<svg version="1.1" viewBox="0 0 64 64" xmlns="http://www.w3.org/2000/svg">
 <defs>
  <style>.cls-1{fill:#fff;}</style>
  <linearGradient id="a" y1=".5" y2=".5">
   <stop stop-color="#fec053" offset="0"/>
   <stop stop-color="#f2203e" offset=".33"/>
   <stop stop-color="#b729a8" offset=".67"/>
   <stop stop-color="#5342d6" offset="1"/>
  </linearGradient>
 </defs>
 <path transform="translate(-1e-5) scale(1) translate(-.00079 .01132) scale(.9997) translate(-2.908 -2.909) scale(1.455)" d="m30.13 2c-0.06211 0.0131-0.1237 0.035-0.1777 0.06836-2.42 1.448-4.382 3.548-5.662 6.06-0.8586 1.645-1.424 3.427-1.672 5.266-0.7726 0.1034-1.533 0.2845-2.27 0.5391-0.3827 0.1271-0.5849 0.5435-0.4453 0.9219 0.1006 0.2951 0.3776 0.4957 0.6894 0.4941 0.07752 0.01226 0.1549 0.01226 0.2324 0 0.8059-0.2915 1.651-0.4695 2.506-0.5273h0.666c2.503 0.0023 4.906 0.9857 6.693 2.738-0.8964-0.2174-1.826-0.2533-2.736-0.1055-0.3096 0.05229-0.5534 0.2968-0.5996 0.6074-0.04768 0.3132 0.116 0.6223 0.4004 0.7617 7.39 4.036 3.921 15.3-4.459 14.48-0.8339-0.03333-1.658-0.1918-2.445-0.4688l-0.5508-0.2207-0.291-0.1426c-2.363-1.136-4.013-3.364-4.41-5.955 0.1638-0.5382 1.392-2.877 6.014-2.877 0.7688-0.1477 1.46-0.5619 1.953-1.17 0.6042-0.4441 1.041-1.08 1.24-1.803v-0.08203c-0.0234-0.5148-0.281-0.6434-1.357-1.17-1.369-0.6093-2.651-1.396-3.814-2.34l-0.2227-0.2109c-0.6201-0.6084-0.9243-0.9125-1.228-1.17l-0.3613-0.291c-0.3685-1.431-0.3685-2.934 0-4.365 0.1692-0.5983-0.4449-1.118-1.008-0.8535-1.649 0.772-3.14 1.842-4.398 3.158-0.2346-1.237-0.3293-2.497-0.2812-3.756 0.01135-0.06581 0.01135-0.1334 0-0.1992-0.05384-0.2373-0.2184-0.4326-0.4434-0.5254-0.09677-0.01682-0.1962-0.01682-0.293 0-0.4336 0.03906-0.8433 0.2141-1.17 0.502-0.7482 0.5398-1.45 1.146-2.096 1.805-0.7266 0.7237-1.391 1.506-1.988 2.34-1.374 1.941-2.349 4.136-2.867 6.457-0.3244 1.408-0.4841 2.848-0.4785 4.293 0.00567 0.03487 0.00567 0.07061 0 0.1055v0.1406c-0.1581 11.12 8.31 20.47 19.39 21.41 11.08 0.942 21.01-6.846 22.73-17.83l0.06836-0.584 0.07031-0.2109c0.4241-3.667-0.1001-7.381-1.522-10.79-0.8862-2.256-2.436-4.189-4.445-5.545-0.2784-0.1478-0.6202-0.09532-0.8418 0.1289-0.1835 0.1837-0.2591 0.4485-0.1992 0.7012-0.3159-0.4095-0.6431-0.7955-0.9707-1.17l-0.4922-0.5625-0.502-0.5742c-0.5265-0.6318-1.136-1.286-1.697-1.965-0.846-0.9942-1.627-2.041-2.34-3.135l-0.4668-0.7617c-0.07323-0.121-0.14-0.2466-0.1992-0.375-0.09511-0.1958-0.1757-0.3984-0.2363-0.6074-0.05222-0.3228-0.2984-0.5784-0.6191-0.6426zm0.09375 2.07 0.1504 0.2812c0.1638 0.2808 0.2582 0.3737 0.5039 0.8066s0.4906 0.8189 0.748 1.17a49.14 49.14 0 0 0 3.453 4.283c0.3627 0.351 0.7252 0.7604 1.076 1.17l0.2559 0.3027 0.1055 0.1172 0.2344 0.2812 0.1172 0.1523 0.1875 0.2812 0.127 0.1621c0.0702 0.0936 0.1992 0.1759 0.1992 0.2695l0.1426 0.1641 0.1875 0.2676a2.141 2.141 0 0 0 0.1504 0.1875l0.1758 0.2578 0.1641 0.2109 0.1738 0.2695 0.1426 0.2227 0.1641 0.2578 0.1504 0.2324 0.1523 0.2695 0.1777 0.293c0.0468 0.0936 0.1504 0.1876 0.1504 0.2812l0.1406 0.2578 0.1406 0.2793 0.1387 0.2812a2.995 2.995 0 0 0 0.1309 0.2812l0.1387 0.291c0.0351 0.1053 0.1172 0.1994 0.1172 0.3047v0.1426a12.26 12.26 0 0 1-3.252 9.873 11.34 11.34 0 0 0 0.127-1.463 9.418 9.418 0 0 0-3.053-7.371l-0.2324-0.1992a11.99 11.99 0 0 0-1.99-2.514 9.524 9.524 0 0 1-3.041-7.57 10.53 10.53 0 0 1 1.545-4.785zm-2.352 1.578a12.95 12.95 0 0 0-0.4805 1.85 10.68 10.68 0 0 0 0.9824 6.738 10.85 10.85 0 0 0-4.223-0.8887 14.72 14.72 0 0 1 3.721-7.699zm-17.24 5.359a8.19 8.19 0 0 0 0.8438 4.096 0.7839 0.7839 0 0 0 0.5957 0.2812h0.1172a8.915 8.915 0 0 1 4.035 0.8066l0.4121 0.2695c0.1638 0.1053 0.1743 0.1293 0.4668 0.3516s0.5966 0.5263 1.17 1.088l0.2227 0.2207a15.01 15.01 0 0 0 3.451 2.201 9.36 9.36 0 0 1-5.348-0.7266 8.401 8.401 0 0 0-8.26 0.3633 0.7605 0.7605 0 0 0-0.2559 0.8652 5.944 5.944 0 0 0 4.75 3.512 10.12 10.12 0 0 0 6.117 9.254l0.2695 0.1387a11.97 11.97 0 0 0 6.049 1.381 16.92 16.92 0 0 0 10.44-3.99 0.9126 0.9126 0 0 0 0.2363-0.127 16.31 16.31 0 0 0 5.205-7.373 18.4 18.4 0 0 1-1.604 7.875 16.82 16.82 0 0 1-15.63 9.525h-0.5957a19.89 19.89 0 0 1-18.92-16.23 3.873 3.873 0 0 1-0.07031-0.5586 24.36 24.36 0 0 1 0.2812-2.609c0.0234-0.1638 0.2344-1.043 0.2344-1.23v-0.127a16.47 16.47 0 0 1 2.598-5.852l0.05859-0.07031a16.87 16.87 0 0 1 1.812-2.164 14.31 14.31 0 0 1 1.322-1.17zm5.486 1.252a10.85 10.85 0 0 0 0 2.305 10.02 10.02 0 0 0-2.34-0.5039 13.81 13.81 0 0 1 2.34-1.801zm24.76 2.475a13.08 13.08 0 0 1 1.377 2.522 20.26 20.26 0 0 1 1.275 9.91v0.2227l-0.09375 0.4902a19.66 19.66 0 0 1-19.44 16.38 19.81 19.81 0 0 1-17.67-10.88 20.7 20.7 0 0 0 3.627 3.955 21.48 21.48 0 0 0 13.32 5.148h0.6523a18.3 18.3 0 0 0 16.94-10.41 19.33 19.33 0 0 0 0.7715-13.91 2.738 2.738 0 0 0 0-0.3047 18.9 18.9 0 0 0-0.7578-3.117zm-10.23 4.348a6.622 6.622 0 0 1 2.049 0.9219l0.2578 0.2109a7.944 7.944 0 0 1 2.584 6.262 11.37 11.37 0 0 1-0.6426 3.404l-0.01172 0.08008a17.62 17.62 0 0 1-5.043 2.867 8.904 8.904 0 0 0 3.146-4.75 9.173 9.173 0 0 0-2.34-8.996zm-18.14 1.133a7.172 7.172 0 0 1 3.469 0.75 10.69 10.69 0 0 0 6.035 0.8203 1.93 1.93 0 0 1-0.4902 0.3027c-4.844 0.0585-6.622 2.342-7.184 3.512a7.137 7.137 0 0 1 0-1.861 0.7254 0.7254 0 0 0-0.1875-0.5723 0.7488 0.7488 0 0 0-0.5371-0.248 4.528 4.528 0 0 1-3.873-2.035 7.172 7.172 0 0 1 2.768-0.668z" fill="url(#a)"/>
</svg>
