<svg version="1.1" viewBox="0 0 64 64" xmlns="http://www.w3.org/2000/svg">
 <defs>
  <linearGradient id="a" y1="1">
   <stop stop-color="#5433ff" offset="0"/>
   <stop stop-color="#20bdff" offset=".5"/>
   <stop stop-color="#a5fecb" offset="1"/>
  </linearGradient>
 </defs>
 <path transform="translate(-0) scale(1) translate(-0) scale(1) translate(-5e-6 2e-5) scale(1) translate(.0107 .00276) scale(.9999) translate(.9686 .9707) scale(.9696)" d="m32 6.441c-9.399 0-16.98 6.8-18.86 15.65-8.02 1.849-14.15 8.782-14.15 17.35 0 9.972 8.145 18.12 18.12 18.12h31.26c9.15 0 16.63-7.478 16.63-16.63 0-8.082-5.973-14.49-13.62-15.95-0.5844-10.27-8.965-18.54-19.38-18.54zm0 6.467h0.0059c7.296 0.0032 13.14 5.844 13.14 13.14 0 0.404-0.01707 0.8079-0.05273 1.203-0.2448 2.714-1.308 5.169-2.949 7.158-1.127 1.369-0.9327 3.425 0.4375 4.553 1.366 1.128 3.416 0.932 4.547-0.4316 1.69-2.046 2.59-4.569 3.297-7.133 4.589 0.9895 8.123 4.654 8.123 9.535 0 5.657-4.507 10.16-10.16 10.16h-31.26c-6.478 0-11.65-5.174-11.65-11.65 0-6.097 4.609-11.04 10.53-11.6 0.3695-0.03516 0.7429-0.05273 1.121-0.05273 2.641 0 5.039 0.8662 6.99 2.332a1 1 0 0 0 0.0059 0c1.416 1.063 3.452 0.7733 4.518-0.6406 1.068-1.418 0.7787-3.463-0.6406-4.529-2.274-1.708-5.112-2.442-7.994-2.894 1.735-5.214 6.198-9.15 12-9.152z" fill="url(#a)"/>
</svg>
