<svg version="1.1" viewBox="0 0 64 64" xmlns="http://www.w3.org/2000/svg">
 <defs>
  <linearGradient id="a" x1="1" x2="0" y1="1">
   <stop stop-color="#00b8ff" offset="0"/>
   <stop stop-color="#00ff9d" offset="1"/>
  </linearGradient>
 </defs>
 <path transform="translate(0) scale(1) translate(0) scale(1) translate(2.5e-5 .000917) scale(1) translate(.248 .25) scale(.9921)" d="M16.59 27.52c-2.05-.051-4.041 1.538-4.041 3.924v15.49a4.52 4.52 0 0 0 4.516 4.516h15.49c1.735 0 3.057-1.061 3.621-2.422s.382-3.042-.846-4.27l-16.09-16.09a3.84 3.84 0 0 0-2.645-1.152h-.004zm.725 5.969 13.19 13.19h-13.19z" fill="url(#a)"/>
 <path transform="translate(0) scale(1) translate(0) scale(1) translate(2.5e-5 .000917) scale(1) translate(.248 .25) scale(.9921)" d="M6.658-.248A6.91 6.91 0 0 0-.25 6.66v50.23a7.363 7.363 0 0 0 7.357 7.357h50.23c3.066 0 5.382-1.865 6.377-4.266s.672-5.359-1.496-7.527l-50.68-50.68A6.9 6.9 0 0 0 6.747-.251h-.096zm-.143 4.766h.041a2.13 2.13 0 0 1 1.613.625L9.64 6.61 7.6 8.647c-.34.296-.493.675-.481 1.029.012.355.178.676.418.916s.561.404.916.416.733-.143 1.029-.482l2.037-2.03 3.979 3.976-1.5 1.508c-.339.296-.49.67-.479 1.025s.176.68.416.92.562.406.916.417c.355.012.734-.145 1.03-.484l1.503-1.496 3.98 3.975-2.046 2.051.012-.008c-.339.296-.49.67-.478 1.023.011.355.175.682.416.922.24.24.561.404.916.416.354.012.733-.143 1.029-.482l2.033-2.033 3.982 3.982-1.5 1.5c-.34.296-.49.672-.479 1.027s.172.681.412.922c.24.24.567.4.922.412s.733-.14 1.03-.479l1.497-1.5 3.984 3.982-2.033 2.033c-.339.296-.492.675-.48 1.03.011.354.173.679.414.92.24.24.565.4.92.411.354.012.733-.14 1.029-.478l2.033-2.033 3.982 3.979-1.5 1.504c-.34.296-.49.674-.479 1.029s.172.68.412.92.566.402.92.414.733-.142 1.03-.48l1.5-1.5 3.978 3.978-2.029 2.037c-.339.296-.49.675-.478 1.03.011.354.171.68.412.921.24.24.565.4.92.412.354.012.729-.14 1.025-.478l2.037-2.033 3.979 3.979-1.494 1.504c-.34.296-.496.674-.485 1.029s.176.675.416.916c.24.24.567.404.922.416s.727-.14 1.023-.479l1.506-1.5 3.98 3.98-2.03 2.036c-.339.296-.496.675-.484 1.03.011.354.177.675.418.915.24.24.565.404.92.416.354.012.729-.14 1.025-.478l2.037-2.033.404.4c.683.682.77 1.584.46 2.332-.31.749-1.013 1.323-1.978 1.322H7.096a2.59 2.59 0 0 1-2.592-2.592V6.651a2.13 2.13 0 0 1 2.008-2.129zM55.95 57.205" fill="url(#a)"/>
</svg>
