<svg version="1.1" viewBox="0 0 64 64" xmlns="http://www.w3.org/2000/svg">
 <defs>
  <linearGradient id="a" x1="1" x2="0" y2="1">
   <stop stop-color="#fea201" offset="0"/>
   <stop stop-color="#f2203e" offset=".33"/>
   <stop stop-color="#b729a8" offset=".67"/>
   <stop stop-color="#5342d6" offset="1"/>
  </linearGradient>
 </defs>
 <path transform="translate(.02135 -.00565) scale(1) translate(-38.54 -36.37) scale(.7273)" d="m120.9 64.02c-0.7175 0.0022-1.432 0.04208-2.141 0.1191-1.888 0.2055-3.73 0.675-5.453 1.389-6.66 2.759-11.93 9.378-12.28 17.63-0.03921 0.2771-0.06641 0.5578-0.06641 0.8457v20c0 0.2071 0.0109 0.4116 0.0312 0.6133 0.3315 10.69 9.201 19.39 19.97 19.39 10.98 0 20-9.025 20-20 0-10.98-9.025-20-20-20-2.838 0-5.545 0.6029-8 1.688v-1.688c0-3.818 2.084-6.208 4.938-7.391s6.019-0.9653 8.719 1.734a6 6 0 0 0 8.486-2e-3 6 6 0 0 0-2e-3 -8.484c-4.016-4.016-9.178-5.857-14.2-5.842zm-49.34 0.332a5.516 5.516 0 0 0-1.508 0.248 15.01 15.01 0 0 0-3.975 2.178l-10.53 7.293c-2.725 1.886-3.405 5.625-1.518 8.35 1.886 2.725 5.625 3.405 8.35 1.518l3.584-2.48v30.55h-7c-3.314 0-6 2.686-6 6s2.686 6 6 6h26c3.314 0 6-2.686 6-6s-2.686-6-6-6h-7v-40a13.12 13.12 0 0 0-0.5957-3.908c-0.2598-0.8322-1.193-2.04-2.135-2.617-0.2249-0.1378-0.4518-0.2726-0.6836-0.4023l-0.7383-0.3066a5.516 5.516 0 0 0-2.248-0.418zm49.4 31.65c4.489 0 8 3.511 8 8s-3.511 8-8 8-8-3.511-8-8 3.511-8 8-8z" fill="url(#a)"/>
</svg>
