<svg version="1.1" viewBox="0 0 64 64" xmlns="http://www.w3.org/2000/svg">
 <defs>
  <linearGradient id="a" y2="1">
   <stop stop-color="#ffd200" offset="0"/>
   <stop stop-color="#f0a" offset="1"/>
  </linearGradient>
 </defs>
 <style transform="translate(-.01528 .03166) scale(.9999) translate(-123.8 -112.4) scale(3.379)">.st0{opacity:0.15;fill:url(#a);enable-background:new    ;}
	.st1{fill:url(#a);}
	.st2{opacity:0.34;fill:url(#a);enable-background:new    ;}
	.st3{fill:url(#a);}
	.st4{opacity:0.12;fill:url(#a);enable-background:new    ;}
	.st5{fill:url(#a);}
	.st6{fill:url(#a);}</style>
 <path transform="translate(-.01528 .03166) scale(.9999) translate(-123.8 -112.4) scale(3.379)" d="m46.83 33.27c-0.4828-0.02567-0.9995-0.01947-1.553 0.02539-8.732 0.7177-6.46 9.929-6.58 13.04-0.1196 1.316-0.4786 2.752-0.957 4.307-0.2392 0.7177 0.2408 1.436 1.078 1.436 0.4785 0 0.9566-0.3594 1.076-0.8379 0.1196-0.5981 0.2383-1.195 0.2383-1.674 0.1196 0.1196 0.2393 0.2383 0.4785 0.2383 0.2392 0.1196 0.4795 0.3604 0.7188 0.5996 0.5981 0.4785 1.196 1.076 2.512 1.195h0.2402c1.316 0 2.151-0.5982 2.869-0.957 0.3589-0.2392 0.5986-0.3589 0.8379-0.4785 0.7177-0.2392 1.436-0.5977 1.914-1.076l0.2402-0.2402c0.1196 0.5981 0.3589 1.197 0.4785 1.795 0.3589 0.957 1.195 1.555 2.152 1.555 1.436 0 2.393-1.555 1.795-2.871-0.3589-1.077-0.7188-2.153-0.7188-3.35 0-4.374 0.4209-12.32-6.82-12.7zm0.5996 6.965c1.316 0 2.514 1.315 2.514 3.109-0.1196 0.7177-0.2407 1.435-0.5996 2.033-0.1196 0-0.1187-0.1191-0.2383-0.1191-0.3589-0.1196-0.7178-0.2398-0.957-0.3594 0.1196-0.2392 0.2383-0.5977 0.2383-1.076 0-0.957-0.4781-1.795-1.076-1.795s-1.195 0.7183-1.195 1.795v0.1191c-0.3589-0.1196-0.7193-0.3574-1.078-0.3574v-0.1211c0-1.794 1.077-3.228 2.393-3.228zm-6.219 0.3574c0.957 0 1.794 1.078 1.914 2.633v0.2383c-0.3589 0.1196-0.5986 0.2398-0.8379 0.3594-0.1196-0.8373-0.5977-1.555-1.076-1.436-0.4785 0-0.8384 0.8384-0.7188 1.676 0 0.3589 0.1206 0.7158 0.2402 0.9551l-0.2402 0.2402c-0.1196 0.1196-0.2398 0.1187-0.3594 0.2383-0.2392-0.5981-0.478-1.196-0.5977-2.033-0.1196-1.555 0.5992-2.752 1.676-2.871zm2.871 4.068c0.7177 0 1.434 0.2378 2.272 0.8359 0.3589 0.2392 0.7188 0.3589 1.197 0.4785 0.2392 0.1196 0.5977 0.2398 1.076 0.3594 0.4785 0 0.957 0.3594 0.957 0.8379 0 0.8373-1.076 1.555-2.033 1.914-0.3589 0.1196-0.7188 0.3584-1.197 0.5977-0.5981 0.3589-1.314 0.8379-2.272 0.8379h-0.2402c-0.8374 0-1.316-0.479-1.795-0.8379-0.2392-0.2392-0.5982-0.4776-0.957-0.7168-0.8374-0.4785-1.314-0.9571-1.314-1.436 0-0.2392 0.1182-0.48 0.3574-0.5996 0.4785-0.3589 0.8389-0.5972 1.078-0.7168 0.2392-0.1196 0.3574-0.2402 0.3574-0.2402l0.1211-0.1191c0.4785-0.4785 1.196-1.195 2.393-1.195zm-2.814 2.074c-0.1741-0.0082-0.3412 0.04774-0.416 0.1973-0.1196 0.2392-0.1201 0.5991 0.1191 0.7188 0.5981 0.4785 1.794 0.7183 2.99 0.8379h0.5996c1.077 0 2.272-0.1206 3.707-0.7188 0.2392-0.1196 0.3599-0.4776 0.2402-0.7168-0.2392-0.2392-0.4795-0.3599-0.7188-0.2402-1.555 0.7177-2.871 0.7173-3.828 0.5977-1.077-0.1196-2.034-0.3584-2.393-0.5977-0.08971-0.04486-0.1964-0.07322-0.3008-0.07813z" fill="url(#a)"/>
</svg>
