<svg version="1.1" viewBox="0 0 64 64" xmlns="http://www.w3.org/2000/svg">
 <defs>
  <linearGradient id="a" y1="1">
   <stop stop-color="#f10" offset="0"/>
   <stop stop-color="#ff115a" offset="1"/>
  </linearGradient>
 </defs>
 <path transform="translate(-.008504 -.008754) scale(1.001)" d="m9.546 3c-5.26 0-9.537 4.278-9.537 9.537l5e-4 36.66c0.00494 1.545 1.256 2.796 2.801 2.801 1.544-6e-3 2.794-1.257 2.799-2.801l-5e-4 -36.66c-0.00222-2.175 1.763-3.938 3.938-3.934h44.9c2.175-0.00555 3.94 1.759 3.936 3.934l5e-4 38.91c0.0033 2.175-1.761 3.939-3.936 3.936h-33.68c-1.544 6e-3 -2.794 1.257-2.799 2.801 0.0049 1.544 1.255 2.795 2.799 2.801h33.68c5.255 0 9.529-4.278 9.529-9.537l-5e-4 -38.91c-6.8e-5 -5.262-4.271-9.537-9.529-9.537h-44.91zm2.244 52.38c-1.545 0.0044-2.796 1.256-2.799 2.801 0.00493 1.544 1.255 2.795 2.799 2.801 1.545-0.0049 2.796-1.256 2.801-2.801-0.0049-1.545-1.256-2.796-2.801-2.801" fill="url(#a)"/>
 <path transform="translate(-.008504 -.008754) scale(1.001)" d="m47.08 44.11c-1.375 0-2.5 1.125-2.5 2.5v0.3613c0 1.375 1.125 2.5 2.5 2.5h0.3613c1.375 0 2.5-1.125 2.5-2.5v-0.3613c0-1.375-1.125-2.5-2.5-2.5z" fill="url(#a)" stop-color="#000000"/>
 <path transform="translate(-.008504 -.008754) scale(1.001)" d="m16.55 44.11c-1.375 0-2.5 1.125-2.5 2.5v0.3613c0 1.375 1.125 2.5 2.5 2.5h0.3613c1.375 0 2.5-1.125 2.5-2.5v-0.3613c0-1.375-1.125-2.5-2.5-2.5z" fill="url(#a)" stop-color="#000000"/>
 <path transform="translate(-.008504 -.008754) scale(1.001)" d="m42.72 39.75c-1.375 0-2.5 1.125-2.5 2.5v0.3633c0 1.375 1.125 2.5 2.5 2.5h0.3633c1.375 0 2.5-1.125 2.5-2.5v-0.3633c0-1.375-1.125-2.5-2.5-2.5z" fill="url(#a)" stop-color="#000000"/>
 <path transform="translate(-.008504 -.008754) scale(1.001)" d="m20.92 39.75c-1.375 0-2.5 1.125-2.5 2.5v0.3633c0 1.375 1.125 2.5 2.5 2.5h0.3633c1.375 0 2.5-1.125 2.5-2.5v-0.3633c0-1.375-1.125-2.5-2.5-2.5z" fill="url(#a)" stop-color="#000000"/>
 <path transform="translate(-.008504 -.008754) scale(1.001)" d="m25.28 35.39c-1.375 0-2.5 1.125-2.5 2.5v0.3613c0 1.375 1.125 2.5 2.5 2.5h13.44c1.375 0 2.5-1.125 2.5-2.5v-0.3613c0-1.375-1.125-2.5-2.5-2.5z" fill="url(#a)" stop-color="#000000"/>
 <path transform="translate(-.008504 -.008754) scale(1.001)" d="m42.72 17.95c-1.375 0-2.5 1.125-2.5 2.5v4.727c0 1.375 1.125 2.5 2.5 2.5h4.727c1.375 0 2.5-1.125 2.5-2.5v-4.727c0-1.375-1.125-2.5-2.5-2.5z" fill="url(#a)" stop-color="#000000"/>
 <path transform="translate(-.008504 -.008754) scale(1.001)" d="m16.55 17.95c-1.375 0-2.5 1.125-2.5 2.5v4.727c0 1.375 1.125 2.5 2.5 2.5h4.727c1.375 0 2.5-1.125 2.5-2.5v-4.727c0-1.375-1.125-2.5-2.5-2.5z" fill="url(#a)" stop-color="#000000"/>
 <title>folder-crash</title>
</svg>
