<svg version="1.1" viewBox="0 0 64 64" xmlns="http://www.w3.org/2000/svg">
 <defs>
  <linearGradient id="a" x1="1" x2="0" y1="1">
   <stop stop-color="#ff0002" offset="0"/>
   <stop stop-color="#ff0050" offset="1"/>
  </linearGradient>
 </defs>
 <path transform="translate(0) scale(1) translate(-3e-4 -.000324) scale(1) translate(-.00363 3.6e-5) scale(1) translate(-3.256 -3.244) scale(4.408)" d="M7.544.736c-.097 0-.618.205-.633.248v.002c-.021.06.048.051.31-.037.234-.08.437-.213.323-.213m4.417.128c-.035-.05-.066.072-.07.316h-.003c-.004.235.005.305.038.28.06-.048.102-.33.07-.488a.3.3 0 0 0-.035-.108m-1.947.061a.7.7 0 0 0-.302.08c-.146.081-.145.081-.537.02C8.96.99 8.575.95 8.319.936c-.402-.02-.463-.015-.463.033q.001.057-.191.097c-.105.022-.26.072-.345.113s-.163.067-.175.055c-.01-.01.002-.022.03-.022.044 0 .046-.006-.002-.037-.047-.03-.044-.043.02-.031.091.008.207-.036.207-.08 0-.042-.202-.046-.333-.012-.052.013-.08.04-.068.068q.021.048-.121.071a5 5 0 0 0-.274.054c-.128.03-.13.029-.047-.026.046-.031.085-.069.085-.087 0-.06-.118-.031-.383.097-.146.07-.295.12-.331.109-.13-.04-1.546 1.13-1.846 1.527-.07.092-.135.144-.175.132-.042-.009-.086.031-.127.109-.036.066-.171.284-.3.484-.296.455-.391.633-.461.867a3 3 0 0 1-.107.296 3 3 0 0 0-.108.496c-.056.388-.114.557-.175.52-.019-.007-.043 0-.052.014-.051.079-.144.828-.173 1.382-.03.585-.027.642.043.818.04.103.14.435.22.735.318 1.206.428 1.558.633 2.016.613 1.375 1.607 2.476 3.127 3.467.692.451 1.809.894 2.588 1.023v-.01c.198.028.543.05 1.052.038.645-.007.813-.02 1.127-.092.238-.056.369-.103.369-.135 0-.043-.049-.046-.199-.033-1.014.089-1.27.059-1.78-.215-.364-.196-.47-.23-.369-.111.07.08-.045.074-.321-.017a1.5 1.5 0 0 0-.31-.073c-.077 0-.085-.008-.052-.068.065-.114.047-.15-.075-.15-.125 0-.271-.06-.51-.217-.12-.082-.174-.093-.258-.07-.093.025-.131.008-.284-.123-.24-.21-.306-.287-.307-.362-.001-.068-.078-.083-.137-.028-.023.02-.18-.088-.411-.282-.207-.173-.356-.314-.331-.326.08-.025.045-.11-.062-.149-.17-.062-.246-.137-.22-.217.019-.056-.019-.106-.165-.224a1.6 1.6 0 0 1-.246-.234c-.052-.077-.048-.079.057-.064.163.023.137-.043-.109-.291-.236-.238-.39-.323-.54-.295-.07.013-.135-.008-.22-.078-.173-.138-.358-.408-.299-.428q.046-.018-.075-.14a.57.57 0 0 1-.16-.321.64.64 0 0 0-.13-.288c-.23-.235-.348-.614-.554-1.746-.168-.93-.169-.909-.014-1.57.106-.453.113-.538.035-.538-.073 0-.076.012.06-.317.303-.737.867-1.542 1.19-1.692.147-.068.246-.182.246-.286 0-.029-.026-.03-.059-.019-.046.018-.044.003.014-.075.148-.196.334-.334.62-.459.169-.074.309-.16.335-.208.041-.074.039-.08-.038-.061-.046.012-.078.026-.07.014l.31-.272c.269-.238.687-.505.562-.36-.028.034-.035.067-.015.079.02.01.058-.004.083-.033.056-.064.383-.215.719-.329.686-.232 1.649-.29 2.217-.132.666.185 1.37.604 1.93 1.146.39.376.64.723.783 1.082.042.107.09.2.108.213.058.035.31 1.029.336 1.326.018.224.037.29.08.29.048 0 .054.055.043.31-.012.287-.021.319-.128.425-.11.11-.114.125-.09.345l.026.23-.229.35c-.205.312-.604.799-.435.531.051-.082.054-.101.01-.101-.03 0-.127.106-.215.236-.16.233-.295.355-.515.463-.063.03-.21.106-.324.168-.287.152-.598.222-.983.222a2.76 2.76 0 0 1-2.01-.912c-.2-.232-.49-.751-.49-.88 0-.037-.019-.061-.053-.049-.04.015-.063-.045-.094-.25-.056-.359-.053-.46.019-.82.106-.539.404-.959.943-1.321.38-.257.64-.327 1.175-.327.38.003.487.017.654.083.11.044.22.08.246.078.106-.002-.246-.224-.525-.33a1.7 1.7 0 0 0-.666-.133c-.611-.027-1.081.154-1.534.588-.257.246-.506.627-.506.77a.5.5 0 0 1-.078.18c-.168.262-.267 1.094-.175 1.472.25 1.035.757 1.578 1.966 2.12.384.171.494.27.208.187-.262-.076-.625-.226-.744-.307-.13-.09-.156-.093-.156-.021 0 .037-.07.013-.234-.088-.128-.077-.249-.135-.267-.123-.097.058.537.479.964.64.63.234 1.342.332 1.874.247.314-.051.842-.274.782-.331-.025-.016-.074-.015-.146.011-.183.067-.586.14-.929.166-.261.02-.369.01-.55-.043l-.225-.066.456-.023a4 4 0 0 0 1.252-.244c.76-.266 1.43-.832 1.853-1.562.157-.27.208-.318.208-.189 0 .103.092.069.109-.04a.6.6 0 0 0-.033-.215.42.42 0 0 1 0-.289c.04-.142.048-.15.106-.104.143.117.16.112.137-.052a1.8 1.8 0 0 1 .038-.46c.033-.169.063-.405.066-.527l.007-.223.021.208c.023.216.09.287.112.119.012-.09-.032-.32-.088-.473-.026-.069-.025-.069.033 0 .092.108.106.051.043-.18a1.4 1.4 0 0 1-.033-.515c.024-.295.004-.35-.09-.26-.06.057-.17-.163-.175-.35-.002-.101-.027-.164-.08-.205a.8.8 0 0 1-.15-.18l-.073-.123.107.083c.06.045.115.076.125.064.01-.009-.033-.104-.094-.21s-.136-.25-.164-.32c-.084-.215-.27-.367-.31-.252-.006.02-.05-.033-.096-.119l-.083-.158.085-.012a.23.23 0 0 0 .128-.064c.035-.043.08-.008.25.194.115.136.324.417.466.627s.263.363.272.34c.018-.053-.06-.2-.336-.634-.122-.19-.222-.368-.222-.392s-.028-.094-.061-.158l-.062-.116.08.069c.142.12.134.031-.016-.168-.63-.841-1.483-1.44-2.526-1.775-.323-.107-.405-.109-.322-.012.044.052.036.052-.068 0a.6.6 0 0 1-.165-.116c-.038-.042-.128-.059-.23-.054zm-1.943.156c.028-.013.061-.012.073 0v.002c.012.008-.01.022-.05.022q-.067-.004-.023-.024m.262.033c.089-.012.225-.012.303 0 .072.003.004.014-.16.014-.168 0-.232-.002-.143-.014m.549.038a.25.25 0 0 1 .132 0c.036.005.006.016-.066.016s-.103-.004-.066-.016m-.917.012c.04-.01.066-.004.054.014-.012.017-.048.033-.078.033-.077 0-.065-.024.024-.047m1.203.026c.027-.014.06-.012.073 0v.002c.012.007-.01.021-.05.021-.045 0-.054-.011-.023-.023m-1.432.03h.132l-.151.029v.002a2 2 0 0 0-.23.052q-.072.026.022-.03a.5.5 0 0 1 .227-.053m-.958.15c.009.007-.106.053-.252.099-.183.059-.279.072-.305.047-.027-.024-.098-.02-.223.021a2 2 0 0 0-.293.123l-.108.062.101-.078c.148-.115.493-.226.53-.17.02.032.09.023.281-.038.14-.044.26-.079.27-.067m.497.004c.008.009-.077.04-.187.071-.22.062-.222.064-.222.043s.39-.13.409-.114m-1.704.348c.01 0-.012.03-.05.07s-.076.074-.087.074.012-.034.05-.074.076-.07.087-.07m-.447.364q.002.002-.033.042c-.05.063-.083.081-.083.052 0-.007.03-.036.066-.064q.046-.034.05-.03M2.168 5.442c-.095-.004-.097.002-.094.208 0 .117.013.212.028.212.069 0 .186-.204.175-.307-.009-.092-.028-.113-.109-.113m9.047.498c-.035-.007-.066.02-.083.085-.017.064 0 .125.06.201.142.186.232.075.13-.16q-.053-.115-.107-.126m2.496.026c.012.027.01.059-.002.071-.012.013-.023-.009-.021-.047q.004-.066.023-.024M2.101 6.6c-.034-.011-.047.044-.047.203 0 .12.011.242.023.274s.038.057.057.057c.056 0 .024-.516-.033-.535m9.198.302c-.018-.01-.044.07-.059.18a.6.6 0 0 1-.102.28l-.075.084.016-.09c.01-.051.03-.146.045-.21.043-.18-.032-.142-.106.054-.085.227-.078.293.021.333.167.065.208.045.253-.123.05-.192.054-.48.007-.508m-.732 1.125c-.008-.007-.09.02-.182.06s-.251.09-.35.11c-.173.035-.24.11-.135.151h.002c.026.009.14.022.256.022.206.002.209.001.316-.163.06-.091.1-.168.092-.18m-3.065.82c-.082 0-.017.103.184.298.119.115.22.21.227.21.006 0 .01-.02.01-.045 0-.053-.373-.463-.422-.463m-.116.362c-.016 0-.029.046-.029.101 0 .104.141.243.527.508v.003c.1.065.179.1.187.075.015-.04-.63-.687-.685-.687m.9.432.104.06c.057.033.104.063.104.075 0 .029-.03.013-.118-.06z" fill="url(#a)"/>
</svg>
