<svg version="1.1" viewBox="0 0 64 64" xmlns="http://www.w3.org/2000/svg">
 <defs>
  <linearGradient id="a" x1="1" x2="0" y1="1">
   <stop stop-color="#004dca" offset="0"/>
   <stop stop-color="#33ff9e" offset="1"/>
  </linearGradient>
 </defs>
 <path transform="translate(-.01078 .01267) scale(1) translate(-25.7 -32.07) scale(1.803)" d="m32 17.78c-9.799 0-17.74 7.945-17.74 17.74 0 9.801 7.945 17.74 17.74 17.74 9.801 0 17.74-7.942 17.74-17.74 0-9.799-7.942-17.74-17.74-17.74zm0 3.023c8.129 0 14.72 6.59 14.72 14.72 0 1.25-0.1743 2.457-0.4678 3.617l-7-7.781-8.949 10.18 4.318-8.637-2.157-3.859-12.72 14.63c-1.552-2.333-2.46-5.132-2.46-8.144 0-8.129 6.59-14.72 14.72-14.72z" fill="url(#a)" stroke-width="2.218"/>
</svg>
