<svg version="1.1" viewBox="0 0 64 64" xmlns="http://www.w3.org/2000/svg">
 <defs>
  <linearGradient id="a" x1="1" x2="0" y1="1">
   <stop stop-color="#ff0015" offset="0"/>
   <stop stop-color="#fc00a3" offset="1"/>
  </linearGradient>
 </defs>
 <path transform="translate(0 3e-4) scale(1) translate(1e-6 .1926) scale(2.909)" d="m13.21 12.08c-0.103-0.08107-0.2899-0.2179-0.5321-0.2666-0.2422-0.04871-0.3981-0.01431-0.5631 0.0086-0.4564 0.06301-0.9426 0.236-1.639 0.4787-0.4809 0.1674-0.9272 0.3708-1.293 0.5707-0.3661 0.1997-0.6104 0.3041-0.8865 0.6549-1.009 1.282-0.7868 3.157 0.4964 4.167 1.282 1.009 3.157 0.7868 4.167-0.4964 0.2766-0.3514 0.3203-0.613 0.4284-1.016 0.108-0.4025 0.2009-0.884 0.2509-1.391 0.07233-0.7346 0.1283-1.248 0.0814-1.707-0.0169-0.1665-0.0238-0.3274-0.1281-0.5502s-0.2777-0.3708-0.3812-0.4523z" fill="url(#a)" stroke-width=".9567"/>
 <path transform="translate(0 3e-4) scale(1) matrix(2.783 0 0 2.783 1.395 11.23)" d="m10.94-0.2656-0.01563 0.001953c-0.0051 4.416e-4 -0.01056 0.00145-0.01563 0.001953-0.0013 1.037e-5 -0.0026-1.082e-5 -0.0039 0h-2e-3l-2e-3 0.001953h-2e-3c-6.282 0.0547-11.38 5.178-11.4 11.47-6.95e-5 0.0087-1.112e-4 0.01665 0 0.02539-1.834e-5 5e-3 -4.036e-5 0.01065 0 0.01563v0.0039c1.376e-5 0.0012-1.743e-5 0.0027 0 0.0039 4.175e-4 0.05258 0.004939 0.0999 0.009766 0.1406 0.005654 0.4074 0.02553 0.8152 0.07422 1.219 0.08082 0.6698 0.651 1.131 1.303 1.131h0.1602c0.3255 0 0.6411-0.1423 0.8398-0.3828 0.1926-0.233 0.2616-0.5457 0.2266-0.8496h1.701c0.6927 0 1.266-0.5729 1.266-1.266 2e-7 -0.6927-0.5714-1.268-1.266-1.268h-0.8262c-0.0575-0.00828-0.1137-0.02113-0.1719-0.02148h-0.623c0.2182-1.518 0.8013-2.894 1.678-4.064l1.223 1.223c0.4903 0.4903 1.301 0.4903 1.791 0 0.491-0.491 0.491-1.302 0-1.793l-0.5508-0.5488-0.01953-0.02148-0.00977-0.00977c-0.01068-0.01184-0.02013-0.02373-0.03125-0.03516l-0.6074-0.6074c1.17-0.875 2.546-1.456 4.062-1.674v1.617c0 0.6942 0.5749 1.266 1.268 1.266 0.6927 0 1.268-0.5714 1.268-1.266v-0.9648c1.86e-4 -0.01252 1.86e-4 -0.02459 0-0.03711v-0.6152c1.517 0.2178 2.894 0.8002 4.064 1.676l-0.6152 0.6133-0.01367 0.01562c-0.0033 0.00388-0.0065 0.0078-0.0098 0.01172l-0.582 0.5801c-0.491 0.491-0.491 1.302 0 1.793s1.302 0.491 1.793 0l1.221-1.221c0.8763 1.17 1.46 2.546 1.678 4.062h-1.619c-0.08673 2.79e-5 -0.1716 0.00854-0.2539 0.02539-0.05253 0.01073-0.09346 0.0246-0.1211 0.0332-0.4775 0.1486-0.8329 0.5695-0.8848 1.08-0.0043 0.04243-0.0059 0.08606-0.0059 0.1289 0 0.6927 0.5714 1.268 1.266 1.268h1.693c-0.04134 0.3106 0.03541 0.6308 0.2324 0.8691 0.1988 0.2405 0.5144 0.3828 0.8398 0.3828h0.1602c0.6518 0 1.222-0.4611 1.303-1.131 0.05096-0.4224 0.07824-0.8552 0.08203-1.291v-0.01758c0.0017-0.02867 0.0039-0.05693 0.0039-0.08008 0-0.01732-0.0011-0.03971-2e-3 -0.06055v-2e-3c-0.03349-6.295-5.162-11.41-11.46-11.43-0.0082-1.162e-4 -0.0172-4.28e-5 -0.02539 0-0.0172-3.504e-4 -0.03358-3.504e-4 -0.05078 0z" fill="url(#a)"/>
</svg>
