<svg version="1.1" viewBox="0 0 64 64" xmlns="http://www.w3.org/2000/svg">
 <defs>
  <linearGradient id="a" y1="1">
   <stop stop-color="#39ff14" offset="0"/>
   <stop stop-color="#00ff81" offset="1"/>
  </linearGradient>
 </defs>
 <path transform="translate(0) scale(1) translate(0) scale(1) translate(0 -1e-6) scale(1) translate(.000754 .006792) scale(1) translate(-27.41 -27.42) scale(1.857) translate(0) scale(1) translate(0) scale(1) translate(0) scale(1) translate(0) scale(1) translate(.00025 .0016) scale(1) translate(-.00029 .000494) scale(1)" d="m19.93 14.76c-2.835 0-5.17 2.336-5.17 5.17v24.12c0 2.835 2.336 5.17 5.17 5.17h24.12c2.835 0 5.17-2.336 5.17-5.17v-24.12c0-2.835-2.336-5.17-5.17-5.17zm0 3.443h24.12c0.9847 0 1.725 0.7419 1.725 1.727v5.168h-27.57v-5.168c0-0.9847 0.7399-1.727 1.725-1.727zm-1.725 10.34h6.893v6.891h-6.893zm10.34 0h6.894v6.891h-6.894zm10.34 0h6.893v6.891h-6.893zm-20.68 10.34h6.893v6.893h-5.17c-0.9847 0-1.725-0.7399-1.725-1.725zm10.34 0h6.894v6.893h-6.894zm10.34 0h6.893v5.168c0 0.9847-0.7399 1.725-1.725 1.725h-5.17z" fill="url(#a)"/>
</svg>
