<svg version="1.1" viewBox="0 0 64 64" xmlns="http://www.w3.org/2000/svg">
 <defs>
  <linearGradient id="a" y1="1">
   <stop stop-color="#7700d5" offset="0"/>
   <stop stop-color="#bd00ff" offset="1"/>
  </linearGradient>
 </defs>
 <path transform="translate(0) scale(1) translate(0) scale(1) translate(-.000158 1.9e-5) scale(1) translate(-.011) scale(.9998)" d="M31.78 0v.006a32 32 0 0 0-21.23 8.207 32.03 32.03 0 0 0-10.4 20.27 2.728 2.728 0 1 0 5.422.598 26.52 26.52 0 0 1 8.621-16.81 26.53 26.53 0 0 1 17.61-6.82 2.73 2.73 0 0 0 2.711-2.74A2.73 2.73 0 0 0 31.774 0zm13.74 3.297a2.913 2.913 0 0 0-1.312 5.498 26.28 26.28 0 0 1 11.41 11.8 2.92 2.92 0 0 0 3.904 1.342 2.916 2.916 0 0 0 1.336-3.893 32.13 32.13 0 0 0-13.94-14.41 2.86 2.86 0 0 0-1.387-.336zm15.59 28.29v.002a2.724 2.724 0 0 0-2.648 2.518c-.517 6.646-3.545 12.87-8.445 17.4s-11.33 7.053-18 7.053l-.887-.012a2.724 2.724 0 0 0-.084 5.445l.903.018h.04c8.05 0 15.81-3.042 21.72-8.504s9.56-12.96 10.19-20.98a2.737 2.737 0 0 0-2.784-2.938zM4.74 39.794a2.728 2.728 0 0 0-2.631 3.705 32.16 32.16 0 0 0 13.58 16.04 2.724 2.724 0 1 0 2.779-4.682 26.58 26.58 0 0 1-11.27-13.32 2.72 2.72 0 0 0-2.455-1.744z" fill="url(#a)"/>
 <path transform="translate(0) scale(1) translate(0) scale(1) translate(-.000158 1.9e-5) scale(1)" d="m33.922 12.398-3.845.002v4.956h-3.34v2.57h3.34v2.569h-3.34v2.57h3.34v2.567h-3.34v2.57h3.34v1.321c-.606.331-1.118.836-1.13 1.582a210 210 0 0 0-.001 4.642c.003.387.214.657.492.902a144 144 0 0 0-.431 8.848 55 55 0 0 0-.01 1.793c.003 1.363-.024 1.86 1.435 2.311h3.262c.524-.275.958-.298 1.256-.98.061-.127.084-.266.091-.406.032-.632.006-1.268.012-1.9.007-.705-.07-1.408-.084-2.112a6 6 0 0 0-.033-.57c.016-.458-.077-1.215-.098-1.721l-.285-5.446a2 2 0 0 0 .244-.305 1.5 1.5 0 0 0 .211-.599c.033-.264.02-1.337.014-1.66-.02-.794.041-1.797-.008-2.563a3.4 3.4 0 0 0-.11-.66c-.04-.15-.146-.28-.226-.406a1.87 1.87 0 0 0-.756-.688v-1.384h3.338v-2.568h-3.338v-2.57h3.338v-2.569h-3.338v-2.567h3.34v-2.572h-3.34zM31.08 33.144h1.766c.02.923-.047 1.88-.056 2.776-.004.47-.304.718-.715.82-.534.062-1.012-.146-1.016-.747-.005-.95.009-1.9.022-2.85zm-.253 1.367.033.03c.032.182.02.332.014.514-.142.11-.19.166-.307.297-.029.89.003 1.813-.002 2.705-.007.859.65.656 1.25.656.398 0 .96.092 1.3-.16.407-.312.229-1.331.25-1.807.016-.347.02-.843-.013-1.164-.128-.215-.214-.283-.412-.424-.013-.186-.004-.354.002-.54.51.078.75.253.98.718.168.788.082 2.006.07 2.82-.006.499-.627 1.048-1.081 1.087-.5.044-1.554.12-2.03.03a1.3 1.3 0 0 1-.485-.2c-.625-.427-.416-1.715-.442-2.413-.029-.787-.171-2.008.871-2.145zm1.464 12.357h.002c.558.003 1.09.032 1.211.145.167.158.218.429.23.648.023.39.055 1.594-.05 1.917a.5.5 0 0 1-.11.163c-.145.153-.324.174-.525.18-.474-.01-2.148.12-2.477-.083a.6.6 0 0 1-.268-.361c-.062-.31-.065-1.788-.006-2.094a.6.6 0 0 1 .129-.252c.134-.176.302-.226.514-.26.213.014.794-.01 1.351-.003z" fill="#0f0"/>
</svg>
