<svg version="1.1" viewBox="0 0 64 64" xmlns="http://www.w3.org/2000/svg">
 <defs>
  <linearGradient id="b" y1="1">
   <stop stop-color="#39ff14" offset="0"/>
   <stop stop-color="#00ff81" offset="1"/>
  </linearGradient>
  <linearGradient id="c" y1="1">
   <stop stop-color="#05f" offset="0"/>
   <stop stop-color="#00ffd8" offset="1"/>
  </linearGradient>
  <linearGradient id="a" x1="1" x2="0" y2="1">
   <stop stop-color="#ffc100" offset="0"/>
   <stop stop-color="#ff0069" offset="1"/>
  </linearGradient>
 </defs>
 <path transform="translate(-0) scale(1) translate(-0) scale(1) translate(-0) scale(1) translate(-.007111 -.007979) scale(.9999) translate(-26.13 -26.14) scale(1.817) translate(0) scale(1) translate(-4e-5) scale(1) translate(-.007769 .000329) scale(.9999) translate(.00951 .009765)" d="m16.12 15.23c-2.314 0.04004-2.314 3.491 0 3.531v19.41a3.53 3.53 0 0 0 3.531 3.529h8.906l-4.047 4.045c-1.604 1.664 0.8323 4.1 2.496 2.496l4.988-4.988 4.99 4.988c1.664 1.604 4.098-0.8323 2.494-2.496l-4.047-4.045h8.92a3.53 3.53 0 0 0 3.529-3.529v-19.41c2.314-0.04004 2.314-3.491 0-3.531zm3.531 3.531h24.7v19.41h-24.7z" fill="url(#a)"/>
 <path transform="translate(-0) scale(1) translate(-0) scale(1) translate(-0) scale(1) translate(-.007111 -.007979) scale(.9999) translate(-26.13 -26.14) scale(1.817) translate(0) scale(1) translate(-4e-5) scale(1) translate(-.007769 .000329) scale(.9999) translate(.00951 .009765)" d="m31.44 22.14c-3.423-1e-6 -6.018 2.084-7.129 4.766s-0.7464 5.988 1.674 8.408 5.726 2.784 8.408 1.674 4.764-3.706 4.764-7.129c1e-6 -0.4996-0.4126-0.9141-0.9121-0.9141h-5.893v-5.891c0-0.4996-0.4125-0.9141-0.9121-0.9141zm-0.9121 1.978v5.74a0.3449 0.3449 0 0 0 2e-3 0.02148c8.51e-4 0.01308 4.07e-4 0.02603 2e-3 0.03906 5.81e-4 0.01079 9.53e-4 0.0224 2e-3 0.0332 7.6e-4 0.01012 7.21e-4 0.01916 2e-3 0.0293a0.3449 0.3449 0 0 0 2e-3 0.01953c0.0047 0.02805 0.01225 0.05454 0.01953 0.08203 0.0077 0.03254 0.01805 0.0642 0.0293 0.0957a0.3449 0.3449 0 0 0 0.0039 0.01367c0.01532 0.03797 0.03442 0.07577 0.05469 0.1113 0.0078 0.01359 0.01495 0.02785 0.02344 0.04102l4e-3 4e-3v2e-3l0.0039 2e-3 2e-3 0.0039v2e-3l2e-3 2e-3v2e-3c0.0069 0.01101 0.01412 0.02252 0.02148 0.0332a0.3449 0.3449 0 0 0 0.01563 0.01953c9.45e-4 0.0012 0.0047 0.0048 0.0059 0.0059 0.0011 1e-3 0.0048 0.0048 0.0059 0.0059a0.3449 0.3449 0 0 0 0.01172 0.01563l2e-3 2e-3v2e-3l4e-3 4e-3c0.01569 0.01834 0.03173 0.03568 0.04883 0.05273l4.059 4.059c-3.053 2.208-7.387 1.104-8.857-2.445s0.8116-7.399 4.531-7.998zm3.113 6.652h3.514c-0.147 0.9006-0.494 1.742-1.027 2.482z" fill="url(#c)"/>
 <path transform="translate(-0) scale(1) translate(-0) scale(1) translate(-0) scale(1) translate(-.007111 -.007979) scale(.9999) translate(-26.13 -26.14) scale(1.817) translate(0) scale(1) translate(-4e-5) scale(1) translate(-.007769 .000329) scale(.9999) translate(.00951 .009765)" d="m33.7 19.87c-0.4996 0-0.9121 0.4125-0.9121 0.9121v6.805c2e-6 0.4996 0.4125 0.9141 0.9121 0.9141h6.807c0.4996-2e-6 0.9121-0.4145 0.9121-0.9141 0-4.019-3.7-7.717-7.719-7.717zm0.9141 1.975c2.31 0.4555 4.374 2.52 4.83 4.83h-4.83z" fill="url(#b)"/>
</svg>
