<svg version="1.1" viewBox="0 0 64 64" xmlns="http://www.w3.org/2000/svg">
 <defs>
  <linearGradient id="c" x1="12.52" x2="8" y1="4.34" y2="8" gradientUnits="userSpaceOnUse">
   <stop stop-color="#ffa800" offset="0"/>
   <stop stop-color="#fff737" offset="1"/>
  </linearGradient>
  <linearGradient id="b" x1="2.498" x2="6.059" y1="6.07" y2="9.996" gradientUnits="userSpaceOnUse">
   <stop stop-color="#02aa93" offset="0"/>
   <stop stop-color="#67ff80" offset="1"/>
  </linearGradient>
  <linearGradient id="a" x1="10.94" x2="9.658" y1="14.75" y2="9.721" gradientUnits="userSpaceOnUse">
   <stop stop-color="#5570ff" offset="0"/>
   <stop stop-color="#4dd3ff" offset="1"/>
  </linearGradient>
 </defs>
 <path transform="translate(-0) scale(1) translate(-0) scale(1) translate(-1e-4 -.00015) scale(1) translate(-.003134 -.0042) scale(1) translate(-2.136 -2.694) scale(4.269)" d="M6.523 9.721a.53.53 0 0 0-.465.275L3.88 13.97c-.182.333.086.786.465.786h8.447c.193 0 .37-.106.463-.272v-.002l2.18-3.975c.181-.333-.086-.785-.467-.785zm.277 1h7.377l-1.662 3.033H5.138z" fill="url(#a)"/>
 <path transform="translate(-0) scale(1) translate(-0) scale(1) translate(-1e-4 -.00015) scale(1) translate(-.003134 -.0042) scale(1) translate(-2.136 -2.694) scale(4.269)" d="M4.883 2.172a.52.52 0 0 0-.45.266L.564 9.704a.53.53 0 0 0 .015.527l2.23 3.635c.201.328.737.315.92-.024L7.66 6.57a.53.53 0 0 0-.017-.535L5.35 2.405a.52.52 0 0 0-.467-.233zm.055 1.449L6.65 6.336l-3.414 6.312-1.664-2.713zM6.78 6.096h.002l-.002.002z" fill="url(#b)"/>
 <path transform="translate(-0) scale(1) translate(-0) scale(1) translate(-1e-4 -.00015) scale(1) translate(-.003134 -.0042) scale(1) translate(-2.136 -2.694) scale(4.269)" d="M6.062 1.5c-.393 0-.66.488-.447.818l4.44 6.904a.53.53 0 0 0 .447.247h4.342c.393 0 .658-.489.445-.819l-4.44-6.906a.53.53 0 0 0-.447-.244zm.86 1h3.224l3.836 5.969h-3.225z" fill="url(#c)"/>
</svg>
