<svg style="isolation:isolate" version="1.1" viewBox="0 0 64 64" xmlns="http://www.w3.org/2000/svg" xmlns:xlink="http://www.w3.org/1999/xlink">
 <defs>
  <linearGradient id="b" x1="30.28" x2="62.26" y1="45.2" y2="45.2" gradientUnits="userSpaceOnUse" xlink:href="#a"/>
  <linearGradient id="a" x2="2" y2="2" gradientUnits="userSpaceOnUse">
   <stop stop-color="#ef02ff" offset="0"/>
   <stop stop-color="#008dff" offset="1"/>
  </linearGradient>
  <linearGradient id="c" x1="37.19" x2="55.9" y1="45.77" y2="45.77" gradientUnits="userSpaceOnUse" xlink:href="#a"/>
  <linearGradient id="e" x1="28.17" x2="28.17" y1="64" gradientUnits="userSpaceOnUse">
   <stop stop-color="#fea51d" offset="0"/>
   <stop stop-color="#ff0a76" offset="1"/>
  </linearGradient>
 </defs>
 <g transform="translate(.00052) scale(1)" fill-rule="evenodd">
  <path transform="translate(.009)scale(.9999)" d="M45.54 28.12a16.78 16.78 0 0 0-11.38 4.455 16.7 16.7 0 0 0-5.297 11 1.516 1.516 0 0 0 1.402 1.627 1.525 1.525 0 0 0 1.631-1.4 13.66 13.66 0 0 1 4.33-9 13.704 13.704 0 0 1 18.981.357c2.561 2.564 4.004 6.04 4.004 9.66s-1.442 7.095-4.004 9.66a13.72 13.72 0 0 1-9.672 3.998 1.52 1.52 0 1 0 0 3.038c4.43 0 8.684-1.76 11.82-4.887a16.72 16.72 0 0 0 4.893-11.81c0-4.424-1.762-8.674-4.893-11.81a16.76 16.76 0 0 0-11.82-4.889zM31.78 49.91q-.299.014-.584.15a1.517 1.517 0 0 0-.7 2.031 16.75 16.75 0 0 0 7.273 7.506 1.519 1.519 0 0 0 1.414-2.688 13.7 13.7 0 0 1-5.949-6.145 1.53 1.53 0 0 0-1.453-.854z" fill="url(#b)"/>
  <path transform="translate(.009)scale(.9999)" d="M46.2 38.3c-.215.01-.468.122-.738.348l-3.566 2.97h-3.777a.93.93 0 0 0-.928.928v6.463c0 .511.416.928.928.928h3.777l3.508 2.631c.818.614 1.484.28 1.484-.742v-12.51c0-.671-.277-1.031-.688-1.014zm4.688.008a.93.93 0 0 0-.352 1.785 5.75 5.75 0 0 1 2.557 2.094c.622.927.957 2.029.957 3.15a5.69 5.69 0 0 1-3.068 5.043c-.455.23-.633.785-.398 1.24s.791.636 1.242.4a7.53 7.53 0 0 0 4.078-6.684 7.57 7.57 0 0 0-1.272-4.19 7.65 7.65 0 0 0-3.381-2.772.9.9 0 0 0-.363-.068zm-1.873 2.453a.93.93 0 0 0-.902.75c-.1.5.227.986.728 1.084.63.13 1.204.472 1.611.973a2.797 2.797 0 0 1-1.166 4.383.92.92 0 0 0-.533 1.19.92.92 0 0 0 1.19.534 4.57 4.57 0 0 0 2.167-1.705 4.619 4.619 0 0 0-.23-5.578 4.6 4.6 0 0 0-2.679-1.613 1 1 0 0 0-.187-.018z" fill="url(#c)"/>
  <path transform="translate(.009)scale(.9999)" d="M8.695 0a6.96 6.96 0 0 0-6.957 6.957v50.09a6.96 6.96 0 0 0 6.957 6.957h19.48a2.783 2.783 0 1 0 0-5.564h-18.09c-1.536 0-2.783-1.247-2.783-2.783s1.247-2.783 2.783-2.783h12.52a2.783 2.783 0 0 0 0-5.564h-4.871v-6.957a2.086 2.086 0 0 0-4.174 0v6.957H8.691q-.715 0-1.391.139v-37.7a4.176 4.176 0 0 1 4.174-4.174h2.086v24.52c0 2.304 1.323 2.85 2.951 1.223l4.701-4.701 4.701 4.7c1.628 1.629 2.951 1.082 2.951-1.222V5.575h16a4.176 4.176 0 0 1 4.174 4.174v12.52a2.783 2.783 0 0 0 5.566 0v-15.3A6.96 6.96 0 0 0 47.647.012H8.687zm9.043 5.564h6.957v18.62l-2.494-2.496a1.39 1.39 0 0 0-1.967 0l-2.496 2.496z" fill="url(#e)"/>
 </g>
</svg>
