<svg version="1.1" viewBox="0 0 64 64" xmlns="http://www.w3.org/2000/svg">
 <defs>
  <linearGradient id="a" y1=".5" y2=".5">
   <stop stop-color="#fd5" offset="0"/>
   <stop stop-color="#ff80e5" offset=".5"/>
   <stop stop-color="#0cf" offset="1"/>
  </linearGradient>
 </defs>
 <path transform="translate(.000193 .001371) scale(1) translate(-.000711 .00063) scale(1)" d="m28.88 5.826c-3.079-0.03566-4.387 0.985-6.084 2.422l-8.875 7.234h-4.238c-4.949 0-8.629 4.189-9.23 8.49l-0.007813 0.06445c-0.557 4.47-0.6298 11.16 0.005859 15.73 0.2817 2.278 1.162 4.482 2.816 6.139 1.662 1.664 4.064 2.58 6.416 2.58h4.24l9.096 7.387c1.628 1.369 3.192 2.303 5.869 2.268 4.039 0.05315 7.433-2.923 8.566-6.707l0.0332-0.1211c0.59-2.2 0.6389-4.022 0.8047-5.393 0.6931-5.536 0.6931-22.33 0-27.87-0.1733-1.424-0.2526-3.292-0.7969-5.371l-0.04102-0.1445c-1.135-3.785-4.527-6.764-8.572-6.709zm25.44 0.3457v0.00977a3.189 3.189 0 0 0-2.572 5.01c3.597 5.174 5.844 12.26 5.844 20.29s-2.247 15.11-5.844 20.29a3.189 3.189 0 0 0 5.236 3.643c4.422-6.36 6.986-14.74 6.986-23.94 0-9.188-2.564-17.57-6.986-23.94a3.189 3.189 0 0 0-2.664-1.369zm-25.31 8.135v0.0039l2e-3 2e-3c0.0032 0.0074 0.01333 0.02097 0.01758 0.02734v0.0039c-0.0776-0.01063-0.07421-0.03197-0.2305-0.03516a4.252 4.252 0 0 0 0.2109-2e-3zm0.08594 0.1875h0.0039l0.0039 0.0039c0.01595 0.01488 0.05265 0.08559 0.1738 0.4141 0.2254 0.9004 0.3595 2.427 0.5742 4.18l2e-3 0.01367c0.2466 1.973 0.2466 23.78 0 25.76l-2e-3 0.01367c-0.2211 1.812-0.2941 3.116-0.5684 4.172-0.09461 0.2658-0.1827 0.416-0.2422 0.5 0.04252 0.01595 0.07602 0.03306 0.08984 0.04687v2e-3l0.0059 0.0039v0.0098h-0.0039v0.0039l-2e-3 2e-3h-2e-3a0.4252 0.4252 0 0 1-0.1641 0.03125c0.0064-0.01382 0.03684-0.04433 0.07617-0.09961-0.1648-0.05953-0.4893-0.1326-0.5488-0.1836l-0.05664-0.04492-10.32-8.387a4.252 4.252 0 0 0-2.68-0.9513h-5.752c-0.2764 0-0.3397-0.01461-0.3652-0.03906-0.01063-0.01276-0.01708-0.02774-0.03516-0.04688-0.06059-0.06059-0.2976-0.3518-0.3965-1.178l-0.01172-0.07813c-0.4358-3.089-0.4066-10.16 0.00586-13.51 0.1488-1.057 0.2138-1.139 0.8027-1.139h5.75a4.252 4.252 0 0 0 2.686-0.9551l10.11-8.242 0.0625-0.05078c0.02657-0.02126 0.5356-0.1378 0.8066-0.2441zm15.82 0.07422a3.189 3.189 0 0 0-2.572 5.01c2.076 2.987 3.412 7.137 3.412 11.91s-1.335 8.914-3.412 11.9a3.189 3.189 0 0 0 5.236 3.643c2.902-4.171 4.553-9.623 4.553-15.54 0-5.921-1.652-11.37-4.553-15.54a3.189 3.189 0 0 0-2.664-1.369zm-15.95 35.08v2e-3l2e-3 2e-3v2e-3h0.0059l0.0039 0.0039a4.252 4.252 0 0 0-0.1914-2e-3c0.07175-0.0014 0.1324-0.0036 0.1797-0.0078z" fill="url(#a)"/>
</svg>
