<svg version="1.1" viewBox="0 0 64 64" xmlns="http://www.w3.org/2000/svg">
 <defs>
  <linearGradient id="a" y1="1">
   <stop stop-color="#00f0ff" offset="0"/>
   <stop stop-color="#00c3ff" offset="1"/>
  </linearGradient>
 </defs>
 <path transform="translate(.0021) scale(.9999) translate(-5e-5) scale(1)" d="m44.59 15.11a2.518 2.518 0 0 0-2.518 2.518v5.035a2.518 2.518 0 0 0 2.518 2.52h5.037a2.518 2.518 0 0 0 2.518-2.52v-5.035a2.518 2.518 0 0 0-2.518-2.518z" fill="url(#a)"/>
 <path transform="translate(.0021) scale(.9999) translate(-5e-5) scale(1)" d="m14.38 15.11a2.518 2.518 0 0 0-2.518 2.518v5.035a2.518 2.518 0 0 0 2.518 2.52h5.037a2.518 2.518 0 0 0 2.518-2.52v-5.035a2.518 2.518 0 0 0-2.518-2.518z" fill="url(#a)"/>
 <path transform="translate(.0021) scale(.9999) translate(-5e-5) scale(1)" d="m54.66 0a2.518 2.518 0 0 0-2.518 2.518v5.035a2.518 2.518 0 0 0 2.518 2.52h5.035a2.518 2.518 0 0 0 2.518-2.52v-5.035a2.518 2.518 0 0 0-2.518-2.518z" fill="url(#a)"/>
 <path transform="translate(.0021) scale(.9999) translate(-5e-5) scale(1)" d="m29.48 0a2.518 2.518 0 0 0-2.518 2.518v5.035a2.518 2.518 0 0 0 2.518 2.52h5.037a2.518 2.518 0 0 0 2.518-2.52v-5.035a2.518 2.518 0 0 0-2.518-2.518z" fill="url(#a)"/>
 <path transform="translate(.0021) scale(.9999) translate(-5e-5) scale(1)" d="m4.305 0a2.518 2.518 0 0 0-2.518 2.518v5.035a2.518 2.518 0 0 0 2.518 2.52h5.035a2.518 2.518 0 0 0 2.518-2.52v-5.035a2.518 2.518 0 0 0-2.518-2.518z" fill="url(#a)"/>
 <path transform="translate(.0021) scale(.9999) translate(-5e-5) scale(1)" d="m32.01 18.71c-6.368 0-11.58 5.209-11.58 11.58v3.42c-3.364 1.168-5.99 3.984-6.478 7.621-0.301 2.236-0.5625 4.596-0.5625 7.062s0.2614 4.831 0.5625 7.07c0.6118 4.544 4.382 8.117 9.008 8.336 2.889 0.1328 5.824 0.2051 9.051 0.2051s6.164-0.07232 9.053-0.2051c4.625-0.2127 8.392-3.787 9.008-8.336 0.3013-2.236 0.5625-4.598 0.5625-7.07s-0.2612-4.829-0.5625-7.062c-0.612-4.544-4.38-8.124-9.008-8.336-2.889-0.1328-5.826-0.1992-9.053-0.1992-2.308 0-4.43 0.05242-6.531 0.1211v-2.629c0-3.642 2.889-6.531 6.531-6.531 2.621 0 4.989 2.308 5.654 4.307a1.014 1.014 0 0 0 0 0.0039c0.4369 1.308 1.878 2.03 3.188 1.596a1.014 1.014 0 0 0 0.0059-2e-3c1.308-0.4369 2.028-1.874 1.594-3.184a1.014 1.014 0 0 0 0-0.0039c-1.333-3.998-5.234-7.756-10.44-7.756zm0 19.13c3.153 0 6.008 0.06803 8.818 0.1973 2.144 0.09851 3.942 1.789 4.236 3.967 0.2894 2.149 0.5176 4.284 0.5176 6.393s-0.2281 4.241-0.5176 6.391c-0.2932 2.177-2.093 3.871-4.236 3.969-2.812 0.1292-5.666 0.1973-8.818 0.1973-3.155 0-6.01-0.06807-8.818-0.1973-2.144-0.09851-3.942-1.791-4.236-3.969-0.2894-2.149-0.5176-4.282-0.5176-6.391 0-2.108 0.2281-4.243 0.5176-6.393 0.2932-2.177 2.093-3.868 4.236-3.967 2.812-0.1293 5.668-0.1973 8.818-0.1973z" fill="url(#a)"/>
 <path transform="translate(.0021) scale(.9999) translate(-5e-5) scale(1)" d="m32.01 42.73a3.374 3.374 0 0 0-2.266 5.908v3.15a2.265 2.265 0 0 0 4.529 0v-3.15a3.374 3.374 0 0 0-2.264-5.908z" fill="url(#a)"/>
</svg>
