<svg version="1.1" viewBox="0 0 64 64" xmlns="http://www.w3.org/2000/svg">
 <defs>
  <linearGradient id="a" x1="1" x2="0" y1=".5" y2=".5">
   <stop stop-color="#00fffa" offset="0"/>
   <stop stop-color="#0078ff" offset="1"/>
  </linearGradient>
 </defs>
 <path transform="translate(0) scale(1) translate(-.00117 2.6e-5) scale(1) translate(-4.573 -4.572) scale(4.572)" d="M8.029 1a.09.09 0 0 0-.08.088v1.65c0 .055.044.1.1.1h.712a.55.55 0 0 1 .547.503v7.76c0 .188-.055 1.526-1.63 1.375-1.862-.175-3.022-2.357-1.919-3.283.806-.674 2.027-.091 2.084-.06.037.02.063.02.078.014l.006-.004.008-.008a.1.1 0 0 0 .01-.037V6.614a.15.15 0 0 0-.117-.149c-2.98-.655-5.43 1.453-5.123 4.15.28 2.47 2.704 4.383 5.186 4.383 2.22 0 3.93-1.528 4.06-3.559l.006-8.033v-.029a.55.55 0 0 1 .55-.54h.713a.1.1 0 0 0 .1-.1V1.087A.087.087 0 0 0 13.232 1H8.029z" fill="url(#a)"/>
</svg>
