<svg version="1.1" viewBox="0 0 64 64" xmlns="http://www.w3.org/2000/svg">
 <defs>
  <linearGradient id="b" y1="1">
   <stop stop-color="#fe0844" offset="0"/>
   <stop stop-color="#feb302" offset="1"/>
  </linearGradient>
  <linearGradient id="a" y1="1">
   <stop stop-color="#0061ff" offset="0"/>
   <stop stop-color="#60efff" offset="1"/>
  </linearGradient>
 </defs>
 <path transform="translate(.000563 .00079) scale(1) translate(-1e-6) scale(1) matrix(1.576 0 0 1.576 -18.42 -18.44)" d="m33.07 15.51c-0.5682 8.44e-4 -1.148 0.1607-1.606 0.4805-0.9253 0.6463-1.029 1.717-0.207 2.393l-2e-3 2e-3 5.287 4.303-16.12 0.01563h-0.02344c-1.333 0.0016-2.613 0.8766-2.867 1.982-0.2606 1.126 0.6423 2.058 2.029 2.062v0.0039l8.172-0.01563-14.59 11.2-0.06055 0.04102c-1.376 1.053-1.815 2.805-0.9492 3.914 0.8797 1.129 2.749 1.131 4.139 0.0078l7.957-6.514s-0.1157 0.8805-0.1055 1.406h-2e-3c0.01016 0.5312 0.1778 1.562 0.4316 2.367 0.5481 1.732 1.469 3.322 2.695 4.662 1.316 1.447 2.923 2.6 4.715 3.385 1.951 0.8593 4.06 1.297 6.191 1.285 2.132 0.0034 4.241-0.4417 6.188-1.307 1.792-0.7916 3.394-1.949 4.711-3.398 1.225-1.345 2.144-2.94 2.693-4.674 0.5279-1.681 0.6724-3.457 0.4238-5.199-0.2368-1.67-0.8251-3.274-1.721-4.703-0.8288-1.33-1.891-2.499-3.133-3.455h0.0039l-12.69-9.734-0.0332-0.02734c-0.4162-0.3197-0.9748-0.4775-1.543-0.4766zm5.086 11.23h0.0039c2.125-0.0034 4.153 0.6926 5.748 1.986 0.812 0.6615 1.47 1.445 1.947 2.312 0.494 0.8898 0.7949 1.873 0.8828 2.887 0.08966 1.039-0.04707 2.084-0.4023 3.062-0.3806 1.032-0.9787 1.97-1.752 2.752h-2e-3c-1.642 1.672-3.934 2.618-6.42 2.621-2.486 0.0068-4.782-0.9352-6.424-2.604-0.7747-0.7781-1.373-1.714-1.754-2.744-0.7038-1.959-0.5299-4.129 0.4766-5.949 0.4956-0.8915 1.158-1.679 1.951-2.32 1.594-1.299 3.622-2 5.744-2.004z" fill="url(#b)"/>
 <path transform="translate(.000563 .00079) scale(1) translate(-1e-6) scale(1) matrix(1.576 0 0 1.576 -18.42 -18.44)" d="m38.34 29.33v2e-3c-1.365-0.01016-2.691 0.463-3.742 1.336-1.002 0.8458-1.666 2.04-1.744 3.393h2e-3c-0.07614 1.39 0.4841 2.682 1.465 3.641 1.081 1.032 2.524 1.601 4.02 1.586 1.494 0.01524 2.935-0.5541 4.016-1.586 0.9813-0.9591 1.541-2.25 1.465-3.643-0.07612-1.352-0.7389-2.545-1.74-3.391-0.9813-0.8288-2.302-1.338-3.74-1.338z" fill="url(#a)"/>
</svg>
