<svg version="1.1" viewBox="0 0 64 64" xmlns="http://www.w3.org/2000/svg">
 <path transform="translate(0) scale(1) translate(-5e-4) scale(1)" d="M32.005.001C16.92.001 9.373 0 4.686 4.681.003 9.372.006 16.912.006 31.995s-.002 22.63 4.68 27.313c2.192 2.192 5 3.354 8.913 3.97l4.8.495c3.697.22 8.163.221 13.603.221s9.899 0 13.596-.221l4.8-.494c3.913-.621 6.726-1.785 8.907-3.971 4.687-4.68 4.687-12.23 4.687-27.313 0-1.09-.003-1.636-.051-2.193a12.9 12.9 0 0 0-2.95-7.112 26 26 0 0 0-1.54-1.62L42.911 4.542A27 27 0 0 0 41.303 3 12.94 12.94 0 0 0 34.19.05C33.634 0 33.085 0 31.997 0z" fill="#0f0" opacity=".5"/>
 <path transform="translate(0) scale(1) translate(-5e-4) scale(1)" d="M22.335 45.498c-4.817 0-8.727 3.91-8.727 8.727v7.141c0 .668.074 1.32.216 1.944l4.585.466c3.697.22 8.156.221 13.596.221s9.897-.001 13.597-.221l4.579-.466a8.8 8.8 0 0 0 .221-1.944v-7.141c0-4.817-3.91-8.727-8.727-8.727zM16.005 16.795c-.636 0-1.243.26-1.693.71a2.38 2.38 0 0 0-.705 1.687c0 .637.255 1.249.705 1.7.45.449 1.057.71 1.693.71h19.2a2.401 2.401 0 0 0 0-4.807z" fill="#0f0"/>
</svg>
