<svg style="isolation:isolate" version="1.1" viewBox="0 0 64 64" xmlns="http://www.w3.org/2000/svg">
 <linearGradient id="b" transform="translate(7e-6) scale(1) translate(-.0161 -.004241) scale(1) translate(-1.104 -1.103) scale(1.379)" x2=".9075" y1=".5" y2=".9201" gradientTransform="matrix(35.07,0,0,6.2,4.33,30.53)" gradientUnits="userSpaceOnUse">
  <stop stop-color="#00b1ff" offset=".02174"/>
  <stop stop-color="#0072ff" offset=".8389"/>
 </linearGradient>
 <path transform="translate(7e-6) scale(1) translate(-.0161 -.004241) scale(1) translate(-1.104 -1.103) scale(1.379)" d="m37.9 30.53h1.5v3h-2.14v3.2h-10.48v-3.2h-5.56v3.2h-10.48v-3.2h-6.41v-3h9.41v3.2h4.48v-3.2h11.56v3.2h4.48v-3.2h3.64z" fill="url(#b)"/>
 <linearGradient id="a" transform="translate(7e-6) scale(1) translate(-.0161 -.004241) scale(1) translate(-1.104 -1.103) scale(1.379)" x2=".9075" y1=".5" y2=".9201" gradientTransform="matrix(46.4 0 0 42.84 .8 2.582)" gradientUnits="userSpaceOnUse">
  <stop stop-color="#00c4ff" offset="0"/>
  <stop stop-color="#0072ff" offset=".8389"/>
 </linearGradient>
 <path transform="translate(7e-6) scale(1) translate(-.0161 -.004241) scale(1) translate(-1.104 -1.103) scale(1.379)" d="m12.78 23.48c0-0.59 0.479-1.069 1.069-1.069s1.069 0.479 1.069 1.069-0.479 1.069-1.069 1.069-1.069-0.479-1.069-1.069zm20.31 0c0-0.59 0.479-1.069 1.069-1.069s1.069 0.479 1.069 1.069-0.479 1.069-1.069 1.069-1.069-0.479-1.069-1.069zm-9.619-1.069h1.068v4.275h-1.068v-4.275zm-12.29 1.069c0-0.706 0.278-1.39 0.78-1.892s1.186-0.78 1.892-0.78c0.705 0 1.389 0.278 1.892 0.78 0.502 0.502 0.78 1.186 0.78 1.892 0 0.705-0.278 1.389-0.78 1.892-0.503 0.502-1.187 0.78-1.892 0.78-0.706 0-1.39-0.278-1.892-0.78-0.502-0.503-0.78-1.187-0.78-1.892zm20.31 0c0-0.706 0.278-1.39 0.78-1.892 0.503-0.502 1.187-0.78 1.892-0.78 0.706 0 1.39 0.278 1.892 0.78s0.78 1.186 0.78 1.892c0 0.705-0.278 1.389-0.78 1.892-0.502 0.502-1.186 0.78-1.892 0.78-0.705 0-1.389-0.278-1.892-0.78-0.502-0.503-0.78-1.187-0.78-1.892zm-8.016-3.207h1.068c1.18 0 2.138 0.958 2.138 2.138v4.275c0 1.18-0.958 2.138-2.138 2.138h-1.068c-1.18 0-2.138-0.958-2.138-2.138v-4.275c0-1.18 0.958-2.138 2.138-2.138zm-14.43 3.207c0-1.272 0.502-2.501 1.411-3.399 0.898-0.909 2.127-1.411 3.399-1.411s2.501 0.502 3.399 1.411c0.908 0.898 1.411 2.127 1.411 3.399s-0.503 2.501-1.411 3.399c-0.898 0.908-2.127 1.411-3.399 1.411s-2.501-0.503-3.399-1.411c-0.909-0.898-1.411-2.127-1.411-3.399zm20.31 0c0-1.272 0.503-2.501 1.411-3.399 0.898-0.909 2.127-1.411 3.399-1.411s2.501 0.502 3.399 1.411c0.909 0.898 1.411 2.127 1.411 3.399s-0.502 2.501-1.411 3.399c-0.898 0.908-2.127 1.411-3.399 1.411s-2.501-0.503-3.399-1.411c-0.908-0.898-1.411-2.127-1.411-3.399zm-21.91 2.138c0 0.884-0.719 1.603-1.603 1.603-0.885 0-1.604-0.719-1.604-1.603v-4.682l-3.113-3.113c-0.417-0.418-0.417-1.095 0-1.512l6.098-6.099c0.418-0.417 1.095-0.417 1.512 0l1.767 1.767 3.121-1.251-0.859-4.296c-0.116-0.578 0.235-1.225 0.783-1.444l5.806-2.318c0.548-0.219 1.259 2e-3 1.586 0.493l1.79 2.681h2.566l1.79-2.681c0.327-0.491 1.038-0.712 1.586-0.493l5.806 2.318c0.548 0.219 0.899 0.866 0.783 1.444l-0.859 4.296 3.121 1.251 1.767-1.767c0.417-0.417 1.094-0.417 1.512 0l6.098 6.099c0.417 0.417 0.417 1.094 0 1.512l-3.113 3.113v13.23c0 0.15-0.022 0.3-0.064 0.449-0.246 0.866-0.588 1.71-1.005 2.512-0.406 0.78-0.898 1.507-1.454 2.17-0.566 0.695-1.208 1.315-1.913 1.87-0.77 0.599-1.593 1.133-2.458 1.582-0.374 0.193-0.749 0.364-1.123 0.535-0.406 0.171-0.823 0.331-1.24 0.481-1.304 0.47-2.65 0.823-4.018 1.058-1.775 0.299-3.56 0.491-5.366 0.566-2.416 0.096-4.853-0.032-7.247-0.374-1.817-0.267-3.58-0.769-5.269-1.486-0.909-0.395-1.785-0.855-2.619-1.389-0.791-0.502-1.528-1.069-2.212-1.7-0.674-0.63-1.294-1.314-1.85-2.041-0.577-0.77-1.09-1.582-1.528-2.426-0.118-0.225-0.182-0.481-0.182-0.738v-3.741h3.207v3.335c0.31 0.567 0.673 1.112 1.058 1.635 0.438 0.578 0.93 1.123 1.475 1.614 0.545 0.513 1.133 0.962 1.753 1.358 0.684 0.438 1.411 0.823 2.159 1.143 1.432 0.61 2.929 1.037 4.468 1.262 2.202 0.32 4.436 0.438 6.659 0.342 1.656-0.064 3.313-0.246 4.959-0.524 1.176-0.203 2.341-0.513 3.474-0.909 0.353-0.128 0.705-0.267 1.047-0.416 0.31-0.129 0.62-0.278 0.92-0.428 0.684-0.363 1.336-0.78 1.956-1.261 0.523-0.417 1.004-0.887 1.432-1.4 0.406-0.492 0.769-1.026 1.069-1.604 0.288-0.545 0.523-1.122 0.705-1.71v-14.32l2.544-2.544-3.078-3.079-1.753 1.753-7.568-3.024 1.069-5.345-2.896-1.165-1.892 2.843h-5.986l-1.892-2.843-2.896 1.165 1.069 5.345-7.568 3.024-1.753-1.753-3.078 3.079 2.544 2.544v6.007z" fill="url(#a)" fill-rule="evenodd"/>
</svg>
