<svg version="1.1" viewBox="0 0 64 64" xmlns="http://www.w3.org/2000/svg">
 <defs>
  <linearGradient id="a" y1=".5" y2=".5">
   <stop stop-color="#be0de2" offset="0"/>
   <stop stop-color="#ff0050" offset="1"/>
  </linearGradient>
 </defs>
 <path transform="translate(.004582 .009564) scale(1) translate(-28.2 -35.13) scale(1.881) translate(.00019 .00142) scale(1)" d="m31.98 18.69c-0.5196 0.01106-1.016 0.1089-1.492 0.2969-0.4756 0.1879-0.8907 0.4584-1.244 0.8125l-13.11 13.11c-0.365 0.3761-0.6489 0.8016-0.8477 1.277-0.1988 0.4758-0.2969 0.9746-0.2969 1.494 0 0.5308 0.09779 1.028 0.2969 1.492 0.1991 0.4644 0.483 0.8794 0.8477 1.244l13.11 13.11c0.365 0.365 0.7865 0.6489 1.262 0.8477 0.475 0.1988 0.9726 0.2969 1.492 0.2969 0.542 0 1.045-0.09779 1.51-0.2969 0.4644-0.1991 0.8794-0.483 1.244-0.8477l13.13-13.11c0.3538-0.365 0.631-0.7865 0.8301-1.262 0.1991-0.4752 0.2969-0.9662 0.2969-1.475-0.01106-0.5308-0.1089-1.034-0.2969-1.51-0.188-0.475-0.4651-0.8966-0.8301-1.262l-13.13-13.11c-0.3761-0.365-0.8016-0.6401-1.277-0.8281-0.4758-0.1879-0.9746-0.2812-1.494-0.2812zm0.01758 2.586c0.3538 0 0.6529 0.122 0.8965 0.3652l13.13 13.13c0.2434 0.2434 0.3652 0.5405 0.3652 0.8945s-0.122 0.6529-0.3652 0.8965l-13.13 13.13c-0.2434 0.2434-0.5424 0.3652-0.8965 0.3652s-0.6529-0.122-0.8965-0.3652l-13.13-13.13c-0.2543-0.2543-0.3809-0.5534-0.3809-0.8965 0-0.1659 0.03133-0.3258 0.09766-0.4805 0.06635-0.1548 0.1616-0.2926 0.2832-0.4141l8.705-8.705 2.902 2.902c-0.1438 0.3429-0.2148 0.68-0.2148 1.012 0 0.5308 0.1487 1.017 0.4473 1.459 0.2986 0.4426 0.6958 0.7639 1.193 0.9629v7.379c-0.4976 0.1991-0.8949 0.5187-1.193 0.9609-0.2986 0.4423-0.4473 0.9283-0.4473 1.459 0.01106 0.3761 0.08217 0.7196 0.2148 1.029 0.1327 0.3099 0.3191 0.5848 0.5625 0.8281 0.2433 0.2434 0.5203 0.4317 0.8301 0.5644s0.647 0.1992 1.012 0.1992c0.3761-0.01106 0.7196-0.08405 1.029-0.2168 0.3099-0.1327 0.5867-0.3191 0.8301-0.5625 0.2434-0.2433 0.4298-0.5203 0.5625-0.8301s0.1992-0.647 0.1992-1.012c0-0.5308-0.1487-1.017-0.4473-1.459-0.2986-0.4426-0.6978-0.7619-1.195-0.9609v-7.379l0.05078-0.01758 3.084 3.102c-0.1216 0.3098-0.1816 0.6202-0.1816 0.9297 0.02212 0.3761 0.09326 0.7177 0.2148 1.027 0.1216 0.3099 0.3036 0.5867 0.5469 0.8301s0.5203 0.4317 0.8301 0.5644c0.3098 0.1328 0.647 0.1992 1.012 0.1992 0.3761-0.01106 0.7196-0.08405 1.029-0.2168 0.3099-0.1327 0.5848-0.3211 0.8281-0.5644 0.2434-0.2433 0.4318-0.5184 0.5644-0.8281 0.1327-0.3098 0.1992-0.647 0.1992-1.012-0.01106-0.365-0.08405-0.7087-0.2168-1.029-0.1327-0.3205-0.3191-0.5958-0.5625-0.8281-0.2433-0.2322-0.5203-0.4161-0.8301-0.5488s-0.647-0.1973-1.012-0.1973c-0.387 0-0.7467 0.08221-1.078 0.248l-3.051-3.055c0.1438-0.3538 0.2148-0.6955 0.2148-1.027-0.01106-0.3761-0.08217-0.7196-0.2148-1.029-0.1327-0.3099-0.3211-0.5848-0.5644-0.8281-0.2433-0.2434-0.5203-0.4317-0.8301-0.5644s-0.647-0.1992-1.012-0.1992c-0.3318 0-0.6692 0.07297-1.012 0.2168l-2.902-2.902 3.02-3.022c0.2434-0.2434 0.5424-0.3633 0.8965-0.3633z" fill="url(#a)"/>
</svg>
