<svg version="1.1" viewBox="0 0 64 64" xmlns="http://www.w3.org/2000/svg">
 <defs>
  <linearGradient id="a" x2="0" y2="1">
   <stop stop-color="#0072ff" offset="0"/>
   <stop stop-color="#43e97b" offset="1"/>
  </linearGradient>
 </defs>
 <path transform="translate(.000284 -.00035) scale(1) matrix(4 0 0 4 -.002 -.001)" d="M7.092 2C4.269 2 4.207 3.885 3.391 5.153c1-.471 2.114-.874 3.317-1.184a19 19 0 0 1 3.267-.554C9.295 2.863 8.822 2 7.092 2zm3.875 2.7a17.2 17.2 0 0 0-3.926.56C2.655 6.392-.471 8.857.059 10.764c.305 1.089 1.778 2.076 3.971 2.206l-.004-.022v-.004c-.002-.019-.009-.036-.012-.055-.128-1.164.538-2.066 1.302-2.703.765-.637 1.746-1.096 2.858-1.344a7.4 7.4 0 0 1 1.751-.173c.668.008 1.408.157 2.06.527.537.304 1.028.833 1.237 1.488 2.002-1.223 3.037-2.871 2.722-4.022-.35-1.263-2.259-2.015-4.977-1.962M9.775 10a5.8 5.8 0 0 0-1.312.143c-1.837.41-3.236 1.573-3.123 2.599s1.695 1.524 3.533 1.115 3.234-1.573 3.121-2.6c-.082-.745-.956-1.241-2.219-1.257" fill="url(#a)"/>
</svg>
