<svg version="1.1" viewBox="0 0 64 64" xmlns="http://www.w3.org/2000/svg">
 <defs>
  <linearGradient id="a" x1="1" x2="0" y1=".5" y2=".5">
   <stop stop-color="#0cf" offset="0"/>
   <stop stop-color="#006cff" offset="1"/>
  </linearGradient>
 </defs>
 <path transform="translate(0) scale(1) translate(0) scale(1) translate(0) scale(1)" d="M32 0A32 32 0 0 0 0 32a32 32 0 0 0 32 32 32 32 0 0 0 32-32A32 32 0 0 0 32 0m-.143 4.59a27.26 27.26 0 0 1 27.27 27.27 27.26 27.26 0 0 1-27.27 27.27 27.26 27.26 0 0 1-27.27-27.27 27.26 27.26 0 0 1 27.27-27.27" fill="url(#a)"/>
 <path transform="translate(0) scale(1) translate(0) scale(1) translate(0) scale(1)" d="M36.69 5.043v.004c-.873 3.883-1.35 7.616-1.473 11.21a4.6 4.6 0 0 1 1.223-.17 4.6 4.6 0 0 1 1.973.455 57.7 57.7 0 0 1 1.385-10.77 27 27 0 0 0-3.107-.732zM24 5.77a27.3 27.3 0 0 0-5.06 2.098c-2.935 5.037-4.924 10.07-6.107 15.08a4.6 4.6 0 0 1 .885-.09 4.6 4.6 0 0 1 2.232.59c1.417-5.828 3.98-11.7 8.053-17.68zm24.47 4.506v.002c-2.776 2.743-5.717 5.098-8.775 7.178a4.57 4.57 0 0 1 1.312 2.99c3.494-2.306 6.786-5.006 9.881-8.082a27 27 0 0 0-2.418-2.088m4.201 4.018.002.004.002-.002zm.002.004c-5.48 4.204-9.808 8.834-13.04 13.84a4.57 4.57 0 0 1 2.84 1.492c3.029-4.585 7.011-8.855 12.13-12.78a27 27 0 0 0-1.936-2.56zm-20.63 7.568c-4.377 1.95-9.078 3.204-14.16 3.695a4.6 4.6 0 0 1 .402 1.867 4.6 4.6 0 0 1-.177 1.268c5.664-.561 10.91-2.013 15.78-4.25a4.57 4.57 0 0 1-1.848-2.58zm6.715 2.732a4.57 4.57 0 0 1-2.31.632 4.6 4.6 0 0 1-.725-.052c.18 1.282.397 2.55.67 3.795a4.57 4.57 0 0 1 2.678-.868 5 5 0 0 1 .295.01 44 44 0 0 1-.607-3.518zm-33.33.695a27 27 0 0 0-.598 3.143c1.547.206 3.034.282 4.535.385a4.6 4.6 0 0 1-.222-1.393 4.6 4.6 0 0 1 .375-1.795c-1.356-.1-2.69-.154-4.09-.34zm6.221 6.21v.003c-.17 3.307-.092 6.604.367 9.88-2.44-1.492-4.787-3.26-7.072-5.214a27.3 27.3 0 0 0 1.357 5.125 63 63 0 0 0 3.795 2.543 4.57 4.57 0 0 1 4.32-3.106 4.6 4.6 0 0 1 .688.053 47.3 47.3 0 0 1-.428-8.9 4.6 4.6 0 0 1-.965.107 4.6 4.6 0 0 1-2.062-.49zm24.02 4.224v.002a51.4 51.4 0 0 0-2.65 8.346l.08-.01a4.57 4.57 0 0 1 2.98 1.117c.586-2.734 1.342-5.414 2.393-7.982a4.57 4.57 0 0 1-2.803-1.473zm6.34.447a4.57 4.57 0 0 1-2.945 1.072h-.01c1.178 2.808 2.632 5.498 4.285 8.104a4.57 4.57 0 0 1 2.527-1.982c-1.479-2.325-2.787-4.71-3.857-7.193zm14.72 6.775a83 83 0 0 1-5.803 2.07 4.57 4.57 0 0 1 .885 2.705 5 5 0 0 1-.01.348c.839-.259 1.668-.485 2.518-.776a27.3 27.3 0 0 0 2.41-4.348zm-37.77 1.9a5 5 0 0 1 .027.455 4.57 4.57 0 0 1-.777 2.545 45.4 45.4 0 0 0 10.72 2.66 4.6 4.6 0 0 1-.4-1.875 4.6 4.6 0 0 1 .177-1.258 41.3 41.3 0 0 1-9.75-2.527zm23.76 2.17q-2.636.45-5.16.625a4.6 4.6 0 0 1 .107.99 4.6 4.6 0 0 1-.535 2.135 55 55 0 0 0 6.197-.687 4.57 4.57 0 0 1-.66-2.357 4.6 4.6 0 0 1 .053-.705zm-25.74 2.07a4.57 4.57 0 0 1-2.572.787 5 5 0 0 1-.508-.027c.345 1.137.71 2.268 1.107 3.4a27.3 27.3 0 0 0 4.508 2.885 70 70 0 0 1-2.535-7.045zm34 1.26a4.57 4.57 0 0 1-2.65 1.812c.233.284.45.576.688.857a27 27 0 0 0 2.375-2.197q-.204-.237-.413-.472zm-16 2.445a4.6 4.6 0 0 1-1.883.412 4.6 4.6 0 0 1-1.385-.224 75 75 0 0 0-.16 6.117l.295.017a27 27 0 0 0 2.92-.187 74 74 0 0 1 .213-6.135z" fill="url(#a)"/>
 <path transform="translate(0) scale(1) translate(0) scale(1) translate(0) scale(1)" d="m33.1 44.07a4.57 4.57 0 0 0-4.572 4.572 4.57 4.57 0 0 0 4.572 4.57 4.57 4.57 0 0 0 4.57-4.57 4.57 4.57 0 0 0-4.57-4.572" fill="url(#a)"/>
 <path transform="translate(0) scale(1) translate(0) scale(1) translate(0) scale(1)" d="m47.25 43.16a4.57 4.57 0 0 0-4.57 4.57 4.57 4.57 0 0 0 4.57 4.572 4.57 4.57 0 0 0 4.57-4.572 4.57 4.57 0 0 0-4.57-4.57" fill="url(#a)"/>
 <path transform="translate(0) scale(1) translate(0) scale(1) translate(0) scale(1)" d="m14.42 40.74a4.57 4.57 0 0 0-4.57 4.572 4.57 4.57 0 0 0 4.57 4.57 4.57 4.57 0 0 0 4.572-4.57 4.57 4.57 0 0 0-4.572-4.572" fill="url(#a)"/>
 <path transform="translate(0) scale(1) translate(0) scale(1) translate(0) scale(1)" d="m39.07 28.1a4.57 4.57 0 0 0-4.57 4.572 4.57 4.57 0 0 0 4.57 4.57 4.57 4.57 0 0 0 4.57-4.57 4.57 4.57 0 0 0-4.57-4.572" fill="url(#a)"/>
 <path transform="translate(0) scale(1) translate(0) scale(1) translate(0) scale(1)" d="M13.71 22.86a4.57 4.57 0 0 0-4.57 4.57A4.57 4.57 0 0 0 13.71 32a4.57 4.57 0 0 0 4.57-4.57 4.57 4.57 0 0 0-4.57-4.57" fill="url(#a)"/>
 <path transform="translate(0) scale(1) translate(0) scale(1) translate(0) scale(1)" d="m36.44 16.09a4.57 4.57 0 0 0-4.572 4.57 4.57 4.57 0 0 0 4.572 4.572 4.57 4.57 0 0 0 4.57-4.572 4.57 4.57 0 0 0-4.57-4.57" fill="url(#a)"/>
 <title>Gnome Symbolic Icon Theme</title>
</svg>
