<svg version="1.1" viewBox="0 0 64 64" xmlns="http://www.w3.org/2000/svg">
 <defs>
  <linearGradient id="a" x2="0" y2="1">
   <stop stop-color="#00ffa5" offset="0"/>
   <stop stop-color="#a100ff" offset="1"/>
  </linearGradient>
 </defs>
 <path transform="translate(-.0053 -4.2e-5) scale(.9999) translate(-2.233 -3.721) scale(2.977)" d="m11.14 4.25c-1.186 0-2.16 0.9805-2.16 2.166v5.697l-0.2383-0.2402c-0.9738-0.9822-2.619-0.8903-3.478 0.1934-0.6613 0.8336-0.6799 2.017-0.04492 2.871a0.7501 0.7501 0 0 0 0.00977 0.01367l3.383 4.344c0.4983 0.6399 0.8398 1.816 0.8398 2.705a0.75 0.75 0 0 0 0.75 0.75 0.75 0.75 0 0 0 0.75-0.75c0-1.222-0.3606-2.605-1.156-3.627l-3.373-4.33v-2e-3c-0.2309-0.3121-0.2236-0.737 0.01758-1.041 0.3204-0.404 0.8745-0.4353 1.236-0.07031l1.523 1.535a0.7501 0.7501 0 0 0 1.281-0.5273v-7.522c0-0.3792 0.2895-0.666 0.6602-0.666s0.6582 0.2868 0.6582 0.666v5.195a0.75 0.75 0 0 0 0.75 0.75 0.75 0.75 0 0 0 0.75-0.75v-1.139h0.1894c0.6301 0 1.129 0.4987 1.129 1.139v0.9434a0.75 0.75 0 0 0 0.75 0.75 0.75 0.75 0 0 0 0.75-0.75v-0.9434c0-0.1185 0.07823-0.1953 0.1894-0.1953 0.6301 0 1.129 0.4986 1.129 1.139v0.9453a0.75 0.75 0 0 0 0.75 0.75 0.75 0.75 0 0 0 0.75-0.75v-0.9453c0-0.01796 0.0035-0.03301 0.0078-0.04102l8e-3 -8e-3h2e-3c0.0081-0.0029 0.02013-0.0025 0.03516 0l0.3223 0.05469c0.5474 0.09194 0.9431 0.5594 0.9431 1.123v0.4453c0 2.053-0.02499 3.009-0.2617 3.631-0.09982 0.2622-0.5435 0.8771-0.9023 1.289-0.4359 0.5002-0.7148 1.148-0.7148 1.852v1.1a0.75 0.75 0 0 0 0.75 0.75 0.75 0.75 0 0 0 0.75-0.75v-1.1c0-0.3014 0.1232-0.6118 0.3457-0.8672 0.4022-0.4617 0.9109-1.055 1.172-1.74 0.3851-1.012 0.3614-2.111 0.3613-4.162v-0.4473c0-1.283-0.9311-2.392-2.195-2.604l-0.3223-0.05273c-0.3109-0.05211-0.5686 0.1116-0.8359 0.2344-0.464-0.7552-1.15-1.346-2.094-1.346-0.2954 0-0.517 0.1837-0.7598 0.3203-0.4721-0.713-1.147-1.264-2.059-1.264h-0.1894v-2.557c0-1.186-0.9725-2.166-2.158-2.166z" fill="url(#a)"/>
 <path transform="translate(-.0053 -4.2e-5) scale(.9999) translate(-2.233 -3.721) scale(2.977)" d="m5.176 1.25c-0.7487 0-1.323-0.00459-1.836 0.06055s-1.01 0.2264-1.389 0.584c-0.3786 0.3576-0.5638 0.8554-0.6348 1.354-0.07091 0.4981-0.06641 1.045-0.06641 1.752s-0.00451 1.254 0.06641 1.752c0.07091 0.4981 0.2562 0.9959 0.6348 1.354 0.3786 0.3576 0.8757 0.5188 1.389 0.584 0.513 0.06514 1.087 0.06055 1.836 0.06055h0.8242a0.75 0.75 0 0 0 0.75-0.75 0.75 0.75 0 0 0-0.75-0.75h-0.8242c-0.7487 0-1.296-0.00413-1.648-0.04883s-0.4603-0.1038-0.5469-0.1856c-0.08656-0.08176-0.1343-0.1558-0.1797-0.4746-0.04538-0.3188-0.05078-0.8339-0.05078-1.541s0.005399-1.222 0.05078-1.541c0.04538-0.3188 0.09312-0.3928 0.1797-0.4746 0.08657-0.08176 0.1948-0.1408 0.5469-0.1856 0.352-0.0447 0.8997-0.04883 1.648-0.04883h11.65c0.7487 0 1.296 0.00413 1.648 0.04883s0.4603 0.1038 0.5469 0.1856c0.08657 0.08176 0.1343 0.1558 0.1797 0.4746 0.04538 0.3188 0.05078 0.8339 0.05078 1.541s-0.0054 1.222-0.05078 1.541-0.09312 0.3928-0.1797 0.4746c-0.08658 0.08176-0.1948 0.1408-0.5469 0.1856s-0.8997 0.04883-1.648 0.04883h-0.8242a0.75 0.75 0 0 0-0.75 0.75 0.75 0.75 0 0 0 0.75 0.75h0.8242c0.7487 0 1.323 0.00459 1.836-0.06055s1.01-0.2264 1.389-0.584c0.3786-0.3576 0.5638-0.8554 0.6348-1.354 0.07092-0.4982 0.06641-1.045 0.06641-1.752s0.00451-1.254-0.06641-1.752-0.2561-0.9959-0.6348-1.354c-0.3786-0.3576-0.8757-0.5188-1.389-0.584-0.513-0.06514-1.087-0.06055-1.836-0.06055z" fill="url(#a)"/>
</svg>
