<svg version="1.1" viewBox="0 0 64 64" xmlns="http://www.w3.org/2000/svg">
 <defs>
  <linearGradient id="a" y2="1">
   <stop stop-color="#f7f206" offset="0"/>
   <stop stop-color="#ffbb24" offset=".983"/>
  </linearGradient>
 </defs>
 <path transform="translate(-3e-4 .000431) scale(1) translate(-2.973 -2.912) scale(2.912)" d="M10.14 1a2.06 2.06 0 0 0-1.766.977l-.008.01-5.08 8.454c-.781 1.298.27 3.014 1.764 3.014h1.951L4.34 20.103v.002c-.422.925-.044 1.975.645 2.484.688.51 1.798.568 2.564-.1l.03-.029 13.11-12.4a1 1 0 0 0-.687-1.727h-4.78l3.25-4.107c.499-.631.535-1.497.205-2.13a2.07 2.07 0 0 0-1.826-1.093zm-.021 2h6.73q.023 0 .03.002h.001v.002h.002v.002h-.002v.004l-4.512 5.7a1 1 0 0 0 .784 1.62h4.34L6.232 20.98l-.04.035H6.19v-.002l-.008-.022-.002-.002-.002-.002-.006-.005-.006-.004-.01-.002h-.007l-.002.002q-.006 0-.01.004l-.002.002h-.002c.001-.003.01-.014.025-.05l.018-.042 3.23-8.066a1 1 0 0 0-.928-1.371h-3.43l-.043.004 5.068-8.43a.06.06 0 0 1 .043-.03z" fill="url(#a)"/>
</svg>
