<svg version="1.1" viewBox="0 0 64 64" xmlns="http://www.w3.org/2000/svg">
 <defs>
  <linearGradient id="a" y2="1">
   <stop stop-color="#feac5e" offset=".013"/>
   <stop stop-color="#c779d0" offset=".53"/>
   <stop stop-color="#4bc0c8" offset=".996"/>
  </linearGradient>
 </defs>
 <path transform="translate(-.000409 -.001333) scale(1) translate(-4.562 -4.545) scale(2.285)" d="M25.51 1.996a2.5 2.5 0 0 0-2.205 3.699L22.11 6.89a10.95 10.95 0 0 0-6.109-1.852c-2.26 0-4.359.684-6.107 1.854L8.697 5.695a2.5 2.5 0 0 0-2.205-3.693 2.5 2.5 0 0 0-2.447 2.041 2.5 2.5 0 1 0 1.652 4.652l1.19 1.19a10.95 10.95 0 0 0-1.885 6.154c0 2.034.56 3.535 1.732 4.529.342.29.72.522 1.125.709l-2.16 2.166a2.4 2.4 0 0 0-1.34-.41c-1.3 0-2.357 1.04-2.357 2.322 0 1.28 1.056 2.312 2.356 2.312a2.34 2.34 0 0 0 2.348 2.332c1.3 0 2.356-1.04 2.356-2.322 0-.53-.182-1.01-.486-1.4l1.463-1.471a2.626 2.626 0 0 0 4.254 1.598c.47.373 1.065.596 1.71.596s1.242-.223 1.712-.596A2.626 2.626 0 0 0 21.97 24.8l1.482 1.549a2.322 2.322 0 0 0 1.91 3.64c1.28 0 2.32-1.04 2.32-2.32 1.28 0 2.33-1.03 2.33-2.31s-1.04-2.32-2.32-2.32c-.53 0-1.01.181-1.4.481l-2.144-2.24a5 5 0 0 0 1.123-.709c1.173-.995 1.732-2.498 1.732-4.53a10.95 10.95 0 0 0-1.883-6.157l1.188-1.188a2.5 2.5 0 1 0 1.652-4.652 2.5 2.5 0 0 0-2.447-2.047zM16 7.039c4.968 0 9 4.023 9 9 0 1.667-.445 2.516-1.025 3.008-.63.535-1.616.826-3.057.947L20 20.07v4.305a.625.625 0 0 1-1.25 0V23a1 1 0 0 0-2 0v1.25a.75.75 0 0 1-1.5 0V23a1 1 0 0 0-2 0v1.375a.625.625 0 0 1-1.25 0v-4.303l-.912-.08c-1.444-.125-2.43-.415-3.062-.949C7.446 18.55 7 17.704 7 16.04c0-4.968 4.032-9 9-9zM11.756 13.5c-1.8 0-3.256 1.474-3.256 3.277S9.966 19 11.756 19 15 18.58 15 16.777c0-1.813-1.443-3.277-3.244-3.277m8.434 0c-1.76 0-3.19 1.467-3.19 3.273S18.43 19 20.19 19s3.191-.42 3.191-2.227c0-1.816-1.431-3.283-3.191-3.273M15.997 18c-.343 0-.653.256-.76.633l-.21.724c-.1.312.113.643.4.643h1.148c.294 0 .498-.34.4-.65l-.219-.727c-.115-.368-.418-.623-.76-.623z" fill="url(#a)"/>
</svg>
