<svg version="1.1" viewBox="0 0 64 64" xmlns="http://www.w3.org/2000/svg" xmlns:xlink="http://www.w3.org/1999/xlink">
 <defs>
  <linearGradient id="c" x1="17.27" x2="17.27" y1="39.75" gradientTransform="matrix(.5197 0 0 .7004 12.69 12.69)" gradientUnits="userSpaceOnUse" xlink:href="#a"/>
  <linearGradient id="a" x2="0" y1="1">
   <stop stop-color="#879af2" offset="0"/>
   <stop stop-color="#d3208b" offset=".479"/>
   <stop stop-color="#fda000" offset=".979"/>
  </linearGradient>
  <linearGradient id="d" x1="5.786" x2="5.786" y1="65.91" y2="15.32" gradientTransform="matrix(.6212 0 0 .5859 12.69 12.69)" gradientUnits="userSpaceOnUse" xlink:href="#a"/>
 </defs>
 <path transform="translate(0) scale(1) translate(4e-5) scale(1) translate(.00057 -.002442) scale(.9999) translate(-21.05 -21.04) scale(1.658) translate(.008199 .003999) scale(.9998)" d="m32 12.69c-2.544 0-5.107 0.8426-7.071 2.587-1.961 1.743-3.258 4.411-3.258 7.741v7.186c0 5.688 4.64 10.33 10.33 10.33 5.689 0 10.33-4.64 10.33-10.33v-7.186c0-3.33-1.297-5.998-3.258-7.741s-4.523-2.587-7.071-2.587zm0 2.694c1.945 0 3.873 0.6553 5.28 1.904 1.406 1.25 2.352 3.07 2.352 5.729v7.186a7.611 7.611 0 0 1-7.632 7.632 7.611 7.611 0 0 1-7.632-7.632v-7.186c0-2.656 0.9473-4.479 2.352-5.729 1.406-1.25 3.334-1.904 5.282-1.904z" fill="url(#c)" stroke-width=".8795"/>
 <path transform="translate(0) scale(1) translate(4e-5) scale(1) translate(.00057 -.002442) scale(.9999) translate(-21.05 -21.04) scale(1.658) translate(.008199 .003999) scale(.9998)" d="m35.6 21.67a1.346 1.346 0 0 0-1.347 1.347 1.346 1.346 0 0 0 1.347 1.347h5.389a1.346 1.346 0 0 0 1.347-1.347 1.346 1.346 0 0 0-1.347-1.347zm-17.96 7.186a1.346 1.346 0 0 0-1.347 1.347c0 8.187 6.365 14.72 14.36 15.44v2.967h-4.041a1.346 1.346 0 0 0-1.347 1.347 1.346 1.346 0 0 0 1.347 1.347h10.77a1.346 1.346 0 0 0 1.347-1.347 1.346 1.346 0 0 0-1.347-1.347h-4.041v-2.967c8.006-0.7186 14.36-7.258 14.36-15.44a1.346 1.346 0 0 0-1.347-1.347 1.346 1.346 0 0 0-1.347 1.347c0 7.21-5.813 13.02-13.02 13.02s-13.02-5.814-13.02-13.02a1.346 1.346 0 0 0-1.347-1.347zm17.96 0a1.346 1.346 0 0 0-1.347 1.347 1.346 1.346 0 0 0 1.347 1.347h5.389a1.346 1.346 0 0 0 1.347-1.347 1.346 1.346 0 0 0-1.347-1.347z" fill="url(#d)" stroke-width=".8795"/>
</svg>
