<svg version="1.1" viewBox="0 0 64 64" xmlns="http://www.w3.org/2000/svg">
 <defs>
  <linearGradient id="a" x1="1" x2="0" y2="1">
   <stop stop-color="#fda700" offset="0"/>
   <stop stop-color="#ffde00" offset="1"/>
  </linearGradient>
 </defs>
 <path transform="translate(0) scale(1) translate(0) scale(1) translate(-.00085 .00045) scale(1) translate(.06 -.005)" d="m10.08 6.84c-5.53 0-10.09 4.555-10.09 10.09v36.98c0 5.53 4.555 10.09 10.09 10.09h36.98c5.53 0 10.09-4.555 10.09-10.09v-10.09a3.36 3.36 0 0 0-3.363-3.363 3.36 3.36 0 0 0-3.361 3.363v10.09c0 1.896-1.465 3.361-3.361 3.361h-36.98c-1.896 0-3.361-1.465-3.361-3.361v-36.98c0-1.896 1.465-3.361 3.361-3.361h10.09a3.36 3.36 0 0 0 3.359-3.363 3.36 3.36 0 0 0-3.359-3.361z" fill="url(#a)"/>
 <path transform="translate(0) scale(1) translate(0) scale(1) translate(-.00085 .00045) scale(1) translate(.06 -.005)" d="M53.72.008a6.68 6.68 0 0 0-4.955 1.97l-18.44 18.59c-.992.997-1.635 1.65-2.176 2.392a11.7 11.7 0 0 0-1.213 2.115c-.373.84-.61 1.73-.973 3.086l-.638 2.393-.004.02-1.271 4.756a16 16 0 0 0-.328 1.369 3.2 3.2 0 0 0-.002 1.33l.002-.004a3 3 0 0 0 .052.217l-.006.002a3 3 0 0 0 .069.213 3.17 3.17 0 0 0 1.838 1.822 3.27 3.27 0 0 0 1.764.101 13 13 0 0 0 .933-.215l.168-.047 7.418-2.053c1.355-.373 2.24-.62 3.078-1q1.111-.503 2.098-1.227c.736-.544 1.391-1.199 2.381-2.199l18.44-18.59a6.68 6.68 0 0 0 1.605-6.764 7 7 0 0 0-.341-.845A14.55 14.55 0 0 0 56.365.65a6.7 6.7 0 0 0-2.646-.64zm-.137 3.89a2.8 2.8 0 0 1 1.105.265 10.67 10.67 0 0 1 5.021 4.984 3 3 0 0 1 .143.351 2.8 2.8 0 0 1-.674 2.822l-1.982 2.006a16.68 16.68 0 0 0-7.666-7.609l1.98-1.998a2.8 2.8 0 0 1 2.072-.822zm-7.002 5.798a12.79 12.79 0 0 1 7.674 7.594l-13.4 13.52c-1.133 1.144-1.567 1.558-2.033 1.9a8 8 0 0 1-1.398.824c-.527.238-1.104.4-2.654.83l-.3.083a8.2 8.2 0 0 0-1.909-2.943 8.2 8.2 0 0 0-2.963-1.887h-.007l.076-.297c.415-1.553.574-2.135.806-2.662q.336-.75.815-1.412c.337-.468.758-.903 1.893-2.045l13.4-13.5zm1.785 3.953.004.004a1.94 1.94 0 0 0-1.438.57l-11.2 11.3a1.95 1.95 0 0 0-.445 1.754v.004a1.944 1.944 0 0 0 3.203.973l11.2-11.3a1.95 1.95 0 0 0 .467-1.96l-.002-.003a1.94 1.94 0 0 0-1.79-1.342zm-34.5 10.37c-3.359.002-3.359 5.042 0 5.041h4.027c3.36-.001 3.36-5.042 0-5.04zm14.71 9.373a4.32 4.32 0 0 1 2.113 2.096l.002.002-2.885.799.77-2.896zm-14.71.707c-3.359.002-3.359 5.042 0 5.041h4.027c3.36-.001 3.36-5.042 0-5.04zm0 10.08a2.521 2.521 0 0 0 0 5.041h25.2a2.521 2.521 0 0 0 0-5.04z" fill="url(#a)"/>
</svg>
