<svg version="1.1" viewBox="0 0 64 64" xmlns="http://www.w3.org/2000/svg" xmlns:xlink="http://www.w3.org/1999/xlink">
 <defs>
  <linearGradient id="b" x1="11" x2="21" y1="21.1" y2="8.535" gradientTransform="translate(-.982 -.988)scale(1.089)" gradientUnits="userSpaceOnUse">
   <stop stop-color="#00f1fa" offset="0"/>
   <stop stop-color="#006cff" offset="1"/>
  </linearGradient>
 </defs>
 <path transform="translate(-.01767 .00109) scale(1) translate(.007 .028) scale(2.909)" d="m11 17.63a2.178 2.178 0 1 0 0 4.355 2.178 2.178 0 0 0 0-4.355" color="#ddd" fill="url(#b)"/>
 <path transform="translate(-.01767 .00109) scale(1) translate(.007 .028) scale(2.909)" d="M11-.01c-4.237 0-7.14 1.171-9.984 2.986a1.98 1.98 0 0 0-.6 2.717 1.98 1.98 0 0 0 2.72.604C5.537 4.764 7.581 3.926 11 3.926c3.423 0 5.524.841 7.852 2.359a1.98 1.98 0 0 0 2.723-.574 1.98 1.98 0 0 0-.572-2.725c-2.808-1.832-5.77-2.996-10-2.996zm.002 6.041L11 6.033c-3.077 0-5.144.832-7.238 2.055a1.98 1.98 0 0 0-.709 2.693 1.98 1.98 0 0 0 2.693.705c1.733-1.01 2.978-1.516 5.256-1.516 2.267 0 3.537.53 5.268 1.523a1.98 1.98 0 0 0 2.688-.726 1.98 1.98 0 0 0-.728-2.687v-.002C16.17 6.896 14.091 6.03 11.001 6.03zM11 11.795c-1.66 0-3.142.432-4.465 1.107a1.98 1.98 0 0 0-.86 2.648 1.98 1.98 0 0 0 2.649.86c.863-.441 1.713-.678 2.676-.678.932 0 1.825.25 2.688.684a1.98 1.98 0 0 0 2.64-.875 1.98 1.98 0 0 0-.872-2.643c-1.3-.654-2.802-1.104-4.455-1.104z" color="#ddd" fill="url(#b)"/>
</svg>
