<svg version="1.1" viewBox="0 0 64 64" xmlns="http://www.w3.org/2000/svg">
 <defs>
  <linearGradient id="a" y1=".5" y2=".5">
   <stop stop-color="#5433ff" offset="0"/>
   <stop stop-color="#20bdff" offset=".5"/>
   <stop stop-color="#a5fecb" offset="1"/>
  </linearGradient>
 </defs>
 <path transform="translate(0 -5e-5) scale(1) translate(0 5e-5) scale(1) translate(1e-6 5e-5) scale(1) translate(-.003764 -.007951) scale(1) translate(8.9e-5 .00075) scale(1)" d="m33.6 10.8 2e-3 2e-3c-4.976 0-8.992 1.627-12.1 4.066-0.928 0.728-1.781 1.521-2.57 2.357-12.32-0.6444-21.76 11.3-18.15 23.2 2.298 7.576 9.309 12.78 17.22 12.78h31.2c5.98-6.8e-5 11.38-3.61 13.67-9.135v-2e-3c3.117-7.524-0.4838-16.22-8.008-19.34-0.3989-0.1652-0.824-0.2437-1.234-0.373-3.266-8.124-11.13-13.5-19.89-13.55a2.4 2.4 0 0 0-0.1426-0.0039zm2e-3 4.801c5.96 2.14e-4 11.37 3.146 14.37 8.133-3.938 0.325-7.136 2.064-9.508 4.451-2.626 2.64-4.48 5.904-6.32 8.988s-3.657 5.98-5.832 7.992-4.585 3.238-8.309 3.238c-5.12-9.2e-5 -9.691-2.931-11.87-7.424 5.86-2.907 8.727-9.452 12.12-14.83 1.854-2.95 3.826-5.624 6.217-7.5 2.392-1.876 5.159-3.043 9.135-3.043zm-18.6 6.725c-0.2764 0.4204-0.5458 0.8425-0.8106 1.264-3.316 5.276-5.939 10.24-9.359 12.57-0.5248-6.539 3.878-12.41 10.17-13.83zm34.2 6.066 2e-3 2e-3v0.0059c1.313 3.6e-5 2.613 0.2594 3.826 0.7617 5.128 2.124 7.536 7.934 5.412 13.06-1.55 3.743-5.188 6.172-9.24 6.172h-19.36c2.696-2.59 4.624-5.76 6.42-8.772 1.86-3.116 3.603-6.052 5.604-8.064 2-2.01 4.072-3.168 7.336-3.168z" fill="url(#a)"/>
</svg>
