<svg version="1.1" viewBox="0 0 64 64" xmlns="http://www.w3.org/2000/svg">
 <defs>
  <linearGradient id="a" x1="1" x2="0" y1="1">
   <stop stop-color="#07f" offset="0"/>
   <stop stop-color="#00f7ff" offset="1"/>
  </linearGradient>
 </defs>
 <path transform="translate(0 .0012) scale(1) translate(0 -2) scale(4)" d="m1.75 1c-0.966 0-1.75 0.784-1.75 1.75v7.5a1.75 1.75 0 0 0 1.75 1.75h3.477c-0.099 1.041-0.519 1.873-1.291 2.758a0.75 0.75 0 0 0 0.5644 1.242h2.5a0.75 0.75 0 0 0 0-1.5h-1.033a5.712 5.712 0 0 0 0.7656-2.5h0.2676a0.75 0.75 0 0 0 0-1.5h-5.25c-0.138 0-0.25-0.112-0.25-0.25v-7.5a0.25 0.25 0 0 1 0.25-0.25h12.5a0.25 0.25 0 0 1 0.25 0.25v2.25a0.75 0.75 0 0 0 1.5 0v-2.25c0-0.966-0.784-1.75-1.75-1.75z" fill="url(#a)"/>
 <path transform="translate(0 .0012) scale(1) translate(0 -2) scale(4)" d="m10.75 7c-0.967 0-1.75 0.784-1.75 1.75v5.5a1.75 1.75 0 0 0 1.75 1.75h3.5a1.75 1.75 0 0 0 1.75-1.75v-5.5c0-0.966-0.783-1.75-1.75-1.75zm0 1.5h3.5a0.25 0.25 0 0 1 0.25 0.25v5.5a0.25 0.25 0 0 1-0.25 0.25h-3.5c-0.138 0-0.25-0.112-0.25-0.25v-5.5a0.25 0.25 0 0 1 0.25-0.25z" fill="url(#a)"/>
</svg>
