<svg fill="none" version="1.1" viewBox="0 0 64 64" xmlns="http://www.w3.org/2000/svg">
 <defs>
  <linearGradient id="a" x1="31.35" x2="31.35" y1="30.81" y2="3" gradientUnits="userSpaceOnUse">
   <stop stop-color="#5570ff" offset="0"/>
   <stop stop-color="#4dd3ff" offset="1"/>
  </linearGradient>
  <linearGradient id="c" x1="22.18" x2="22.18" y1="45" y2="10.64" gradientUnits="userSpaceOnUse">
   <stop stop-color="#5558ff" offset="0"/>
   <stop stop-color="#00c0ff" offset="1"/>
  </linearGradient>
 </defs>
 <path transform="translate(.00076 .000394) scale(1) translate(-4.137 -4.57) scale(1.524)" d="m26.67 3-5.498.543a1 1 0 0 0-.902.995v25.01a1 1 0 0 0 1.154.989l4.364-.68a1 1 0 0 0 .846-.988v-7.426c0-.978 1.258-1.374 1.82-.574l6.66 9.515a1 1 0 0 0 1.138.374l5.427-1.825a1 1 0 0 0 .431-1.61l-8.526-9.66a1 1 0 0 1 .002-1.326l8.586-9.66a1 1 0 0 0-.43-1.612l-5.49-1.83c-.42-.14-.882.012-1.137.375l-6.662 9.517c-.56.8-1.819.404-1.819-.574V3.034c0-.02.016-.035.036-.035z" fill="url(#a)"/>
 <path transform="translate(.00076 .000394) scale(1) translate(-4.137 -4.57) scale(1.524)" d="M12.26 10.64c-.079.009-.162.027-.221.086l-2.714 2.697a.34.34 0 0 0-.042.423l2.567 4.212c.195.32.191.723.01 1.052-.434.78-.793 1.607-1.072 2.47a1.04 1.04 0 0 1-.774.708l-4.728.975a.364.364 0 0 0-.28.354v3.808c0 .162.123.299.28.336l4.562 1.1c.37.089.654.381.755.748a14 14 0 0 0 1.145 2.87c.18.337.173.748-.038 1.067l-2.665 4.03a.35.35 0 0 0 .044.44l2.712 2.694a.35.35 0 0 0 .43.045l4.186-2.524c.317-.191.711-.19 1.036-.013.835.451 1.72.82 2.647 1.096.368.11.655.404.734.779l.968 4.628a.346.346 0 0 0 .338.279h3.836c.16 0 .3-.108.338-.264l1.16-4.696c.088-.356.366-.633.716-.742a14 14 0 0 0 2.667-1.153 1.04 1.04 0 0 1 1.077.025l4.19 2.727c.139.09.321.074.44-.042l2.7-2.695a.344.344 0 0 0 .057-.425l-1.512-2.477a.81.81 0 0 0-.935-.35.22.22 0 0 1-.225-.074l-.021-.03-1.016-1.374c-.144-.22-.665-.987-1.317-1.891-.44-.609-1.374-.513-1.797.107a10.18 10.18 0 0 1-8.401 4.444c-5.623 0-10.18-4.558-10.18-10.18.003-3.649 1.615-6.914 4.564-8.713a1.07 1.07 0 0 0 .527-.903v-2.072c0-.697-.684-1.152-1.284-.797-.323.19-.74.19-1.054-.014l-4.187-2.723a.32.32 0 0 0-.22-.049z" fill="url(#c)"/>
</svg>
