<svg version="1.1" viewBox="0 0 64 64" xmlns="http://www.w3.org/2000/svg">
 <defs>
  <linearGradient id="a" y1="1">
   <stop stop-color="#8d268e" offset="0"/>
   <stop stop-color="#7c71ee" offset=".393"/>
   <stop stop-color="#00fbff" offset="1"/>
  </linearGradient>
 </defs>
 <path transform="translate(0 -.03727) scale(1) matrix(4 0 0 4 0 -2.016)" d="m0 10.06 3.008 1.737A3 3 0 1 0 9 12.004a3 3 0 0 0-.033-.408l3.638-2.598A3.5 3.5 0 0 0 16 5.504a3.5 3.5 0 1 0-7 .014L6.678 9.086A3 3 0 0 0 6 9.004c-.453.001-.9.105-1.307.303L0 6.598m12.5-3.594a2.5 2.5 0 1 1 0 5 2.5 2.5 0 0 1 0-5m0 1a1.5 1.5 0 1 0 .001 3.001 1.5 1.5 0 0 0-.001-3.001m-6.5 6a2 2 0 1 1-1.959 2.389l.705.408c.72.415 1.633.171 2.049-.549a1.497 1.497 0 0 0-.549-2.049l-.338-.195z" fill="url(#a)"/>
</svg>
