<svg style="isolation:isolate" version="1.1" viewBox="0 0 64 64" xmlns="http://www.w3.org/2000/svg">
 <g transform="translate(-.00116 -4e-6) scale(1) translate(-4.402 -3.137) scale(1.255)">
  <linearGradient id="a" x2="1" y1=".5" y2=".5" gradientTransform="matrix(46.31 0 0 24.15 5.843 29.35)" gradientUnits="userSpaceOnUse">
   <stop stop-color="#d300dc" offset="0"/>
   <stop stop-color="#8700ff" offset="1"/>
  </linearGradient>
  <linearGradient id="c" x1=".082" x2=".966" y1=".433" y2=".67" gradientTransform="rotate(35.18 38.392 25.18)scale(56.01 54.66)" gradientUnits="userSpaceOnUse">
   <stop stop-color="#f9d423" offset="0"/>
   <stop stop-color="#ff4e50" offset=".516"/>
   <stop stop-color="#8a2387" offset=".991"/>
  </linearGradient>
  <path d="M45.48 29.35a2 2 0 0 0-.395.03c-.52.09-.981.39-1.29.82s-.43.97-.34 1.5c.09.52.39.979.82 1.289l3.1 2.18-7.701 10.93-18.24-12.86a2 2 0 0 0-2.786.483l-3.338 4.734c-.3.43-.42.971-.33 1.491s.38.99.82 1.289c.43.31.969.43 1.49.34s.99-.38 1.29-.82l2.19-3.1 18.24 12.86a2 2 0 0 0 2.785-.484l10.01-14.19a2 2 0 0 0-.482-2.788l-4.726-3.337a2 2 0 0 0-1.104-.369zM12.83 41.54a2.77 2.77 0 0 0-2.32 1.172L6.042 49.05a1.06 1.06 0 0 0 .255 1.474l3.95 2.785a1.06 1.06 0 0 0 1.475-.255l4.468-6.338a2.77 2.77 0 0 0-.668-3.858l-1.154-.813a2.75 2.75 0 0 0-1.537-.504z" fill="url(#a)"/>
  <path d="M18.54 2.502a7 7 0 0 0-1.364.104 6.91 6.91 0 0 0-4.494 2.839l-4.003 5.679a6.92 6.92 0 0 0-1.163 5.187 6.91 6.91 0 0 0 2.84 4.494l24.61 17.34a6.9 6.9 0 0 0 5.187 1.163 6.92 6.92 0 0 0 4.496-2.839l4.002-5.679a6.91 6.91 0 0 0 1.163-5.187 6.92 6.92 0 0 0-2.839-4.496l-24.61-17.34a6.94 6.94 0 0 0-3.823-1.266zm-.119 4.632c.454.009.898.156 1.273.42l24.61 17.34c.502.354.845.893.94 1.498a2.27 2.27 0 0 1-.38 1.728L40.86 33.8a2.28 2.28 0 0 1-1.5.941 2.28 2.28 0 0 1-1.727-.384l-24.61-17.34a2.27 2.27 0 0 1-.94-1.498 2.28 2.28 0 0 1 .38-1.728l4.003-5.679a2.28 2.28 0 0 1 1.5-.94q.227-.041.455-.038z" fill="url(#c)"/>
 </g>
</svg>
