<svg version="1.1" viewBox="0 0 64 64" xmlns="http://www.w3.org/2000/svg">
 <defs>
  <linearGradient id="a" y2="1">
   <stop stop-color="#00f4ff" offset="0"/>
   <stop stop-color="#0037dc" offset="1"/>
  </linearGradient>
 </defs>
 <path transform="translate(-.004142 -.0014) scale(1) translate(-6.397 -6.401) scale(.4)" d="m100 43c-12.44 0-22.48 4.072-30.25 10.17-2.32 1.82-4.452 3.802-6.426 5.894-30.81-1.611-54.4 28.26-45.38 58 5.746 18.94 23.27 31.94 43.06 31.94h78c14.95-1.7e-4 28.46-9.028 34.18-22.84v-0.00489c7.793-18.81-1.21-40.55-20.02-48.34-0.9972-0.413-2.06-0.6092-3.086-0.9326-8.165-20.31-27.82-33.74-49.73-33.88a6 6 0 0 0-0.3564-0.009766zm0 12c14.9 5.35e-4 28.42 7.864 35.93 20.33-9.845 0.8126-17.84 5.162-23.77 11.13-6.564 6.599-11.2 14.76-15.8 22.47-4.601 7.709-9.142 14.95-14.58 19.98-5.437 5.031-11.46 8.096-20.77 8.096-12.8-2.3e-4 -24.23-7.329-29.68-18.56 14.65-7.268 21.82-23.63 30.29-37.08 4.635-7.374 9.562-14.06 15.54-18.75 5.979-4.691 12.9-7.607 22.84-7.607zm-46.51 16.81c-0.691 1.051-1.364 2.106-2.026 3.159-8.291 13.19-14.85 25.61-23.4 31.42-1.312-16.35 9.698-31.02 25.43-34.58zm85.51 15.17v0.01465c3.283 8.8e-5 6.532 0.6482 9.565 1.904 12.82 5.31 18.84 19.84 13.53 32.66-3.876 9.358-12.97 15.43-23.1 15.43h-48.4c6.74-6.476 11.56-14.4 16.05-21.93 4.649-7.791 9.008-15.13 14.01-20.16 4.999-5.026 10.18-7.92 18.34-7.92z" fill="url(#a)"/>
</svg>
