<svg version="1.1" viewBox="0 0 64 64" xmlns="http://www.w3.org/2000/svg">
 <defs>
  <linearGradient id="a" y1=".5" y2=".5">
   <stop stop-color="#66fff6" offset="0"/>
   <stop stop-color="#00b2ff" offset="1"/>
  </linearGradient>
 </defs>
 <path transform="translate(9e-6 -.00077) scale(1) translate(-.044 -.043) scale(.9998)" d="M54.51 9.279a.28.28 0 0 0-.22.129l-11.91 18.47a1.42 1.42 0 0 0 .265 1.84l1.566 1.35a2.44 2.44 0 0 0 2.137.531l.156-.035a2.57 2.57 0 0 1 1.762.228l2.428 1.273a.856.856 0 0 0 1.246-.65l2.865-22.82a.28.28 0 0 0-.293-.316zm-41.14 10.18a6.55 6.55 0 0 0-3.994 1.301H9.37L.044 27.541l8.898-.404a8.99 8.99 0 0 1 9.055 6.514l5.238 18.34a1.733 1.733 0 0 0 2.891.748 43.82 43.82 0 0 1 37.93 2.082l-12-20-2.912-1.662a4.36 4.36 0 0 0-4.354.015l-10.58 6.152a6.685 6.685 0 0 1-9.53-3.213l-5.169-12.42a6.93 6.93 0 0 0-4.443-3.984 6.6 6.6 0 0 0-1.69-.242zm23.03 8.086a7.46 7.46 0 0 0-4.02 1.182l-5.975 3.822a1.81 1.81 0 0 0-.7 2.211l.42 1.029a5.295 5.295 0 0 0 7.519 2.6l9.963-5.66a.632.632 0 0 0 .086-1.039l-3.4-2.764a6.17 6.17 0 0 0-3.893-1.381z" fill="url(#a)"/>
</svg>
