<svg version="1.1" viewBox="0 0 64 64" xmlns="http://www.w3.org/2000/svg">
 <defs>
  <linearGradient id="b" x1="32.13" x2="43.38" y1="47.85" y2="26.95" gradientTransform="translate(.003626 .000543)" gradientUnits="userSpaceOnUse">
   <stop stop-color="#879af2" offset="0"/>
   <stop stop-color="#d3208b" offset=".5"/>
   <stop stop-color="#fda000" offset="1"/>
  </linearGradient>
  <linearGradient id="a" y1=".5" y2=".5">
   <stop stop-color="#d300dc" offset="0"/>
   <stop stop-color="#8700ff" offset="1"/>
  </linearGradient>
 </defs>
 <path transform="translate(-.0026) scale(1) translate(.001594) scale(2.908)" d="m9.826 0c-1.378 0-2.492 1.115-2.492 2.492a1.247 1.247 0 0 1-1.867 1.078 2.494 2.494 0 0 0-3.402 0.9141l-1.176 2.035a2.494 2.494 0 0 0 0.9121 3.402 1.247 1.247 0 0 1 0 2.16 2.494 2.494 0 0 0-0.9121 3.404l1.176 2.035a2.494 2.494 0 0 0 3.402 0.9141 1.247 1.247 0 0 1 1.871 1.076c0 1.378 1.113 2.494 2.488 2.494h2.352c1.378 0 2.488-1.118 2.488-2.494a1.247 1.247 0 0 1 1.871-1.076 2.494 2.494 0 0 0 3.404-0.9141l1.174-2.035a2.494 2.494 0 0 0-0.9121-3.404 1.247 1.247 0 0 1 0-2.16c1.191-0.688 1.6-2.211 0.9121-3.402l-1.174-2.035a2.494 2.494 0 0 0-3.404-0.9141 1.247 1.247 0 0 1-1.871-1.078c0-1.378-1.113-2.492-2.488-2.492zm0 2.201h2.352c0.1614 0 0.2891 0.1297 0.2891 0.291 0 2.652 2.873 4.31 5.17 2.982a0.2934 0.2934 0 0 1 0.3984 0.1094l1.176 2.035a0.2934 0.2934 0 0 1-0.1055 0.3984c-2.297 1.328-2.297 4.643 0 5.971a0.2934 0.2934 0 0 1 0.1055 0.3984l-1.176 2.035a0.2934 0.2934 0 0 1-0.3984 0.1074c-2.296-1.328-5.168 0.3318-5.168 2.982 0 0.1614-0.1297 0.2891-0.291 0.2891h-2.352a0.2934 0.2934 0 0 1-0.291-0.2891c0-2.652-2.871-4.31-5.168-2.982a0.2934 0.2934 0 0 1-0.4023-0.1074l-1.172-2.035a0.2934 0.2934 0 0 1 0.1074-0.3984c2.297-1.328 2.297-4.643 0-5.971a0.2934 0.2934 0 0 1-0.1094-0.3984l1.174-2.035a0.2934 0.2934 0 0 1 0.4023-0.1094c2.297 1.328 5.168-0.3318 5.168-2.982 0-0.1614 0.1316-0.2891 0.293-0.2891z" fill="url(#a)"/>
 <path transform="translate(-.0026) scale(1)" d="m32.13 17.15a4.193 4.193 0 0 0-4.186 4.189v12.56h-4.363a2.71 2.71 0 0 0-2.502 1.672 2.7 2.7 0 0 0-0.148 1.562c0.104 0.524 0.358 1.001 0.736 1.379l8.549 8.551c0.25 0.252 0.553 0.454 0.88 0.59a2.7 2.7 0 0 0 1.034 0.201 2.68 2.68 0 0 0 1.914-0.791l8.547-8.551a2.69 2.69 0 0 0 0.588-2.941 2.71 2.71 0 0 0-2.502-1.672h-4.357l-8e-3 -12.56a4.19 4.19 0 0 0-4.182-4.189" fill="url(#b)"/>
</svg>
