<svg version="1.1" viewBox="0 0 64 64" xmlns="http://www.w3.org/2000/svg">
 <defs>
  <linearGradient id="a" y1=".5" y2=".5">
   <stop stop-color="#879af2" offset="0"/>
   <stop stop-color="#d3208b" offset=".479"/>
   <stop stop-color="#fda000" offset=".979"/>
  </linearGradient>
 </defs>
 <path transform="translate(-.008619 -.000245) scale(.9999) translate(-5.713 -2.695) scale(.2702)" d="M164 9.975a14 14 0 0 0-9.844 4.086l-46 45.62-3-3a23 23 0 0 0-32.42 32.5l2.852 2.891-21.45 21.34a14 14 0 0 0 0 19.8l12.69 12.69a14 14 0 0 0 19.76 0l21.35-21.05 13.51 13.7a2 2 0 0 1 0 2.83l-64.68 65.41a23 23 0 1 0 32.5 32.47l88.67-89.36a14 14 0 0 0 0-19.78l-37.11-37.48 14.35-14.06a2 2 0 0 1 2.82 0l.068.07 37.39 35.35a14 14 0 0 0 19.74-.07l3.71-3.719a38 38 0 0 0 0-53.74v-.031a2 2 0 0 1-.13-.13l-44.91-42.31A14 14 0 0 0 164 9.979zm.057 12.01a2 2 0 0 1 1.42.592l.12.13 44.89 42.29a26 26 0 0 1-.068 36.71h.02l-3.711 3.71a2 2 0 0 1-2.83 0l-.12-.12-37.43-35.3a14 14 0 0 0-19.61.1l-14.35 14.02-15.75-15.9 46-45.64a2 2 0 0 1 1.42-.592zm-74.17 40.51a11 11 0 0 1 6.857 2.693l72.7 73.39a2 2 0 0 1-.01 2.85v.01l-88.67 89.35a11 11 0 1 1-15.49-15.54l64.67-65.37a14 14 0 0 0 0-19.75l-48.7-49.4a11 11 0 0 1 8.643-18.23zm-5.854 38.12 15.5 15.72-21.4 21.1a2 2 0 0 1-2.83 0l-12.69-12.71a2 2 0 0 1-.58-1.42 2 2 0 0 1 .57-1.4z" fill="url(#a)"/>
</svg>
