<svg style="isolation:isolate" version="1.1" viewBox="0 0 64 64" xmlns="http://www.w3.org/2000/svg">
 <defs>
  <linearGradient id="a" x2="1" y1=".5" y2=".5" gradientTransform="matrix(-68.02 16.16 8.54 35.94 59.48 10.3)" gradientUnits="userSpaceOnUse">
   <stop stop-color="#b2fefa" offset="0"/>
   <stop stop-color="#0ed2f7" offset=".983"/>
  </linearGradient>
 </defs>
 <path transform="translate(-1e-6 .00018) scale(1) translate(.008 -7.219) scale(.9999)" d="M1.708 51.62c1.759-6.522 3.47-11.29 6.96-16.55 1.123-1.692 2.203-3.222 3.369-4.644l-.001.001.026-.03.063-.077c.432-.534 2.225-2.954.934-4.847-1.419-2.078-6.585-1.931-6.585-1.931s2.218-1.393 6.506-2.126c4.025-.688 8.137.784 8.88.952 1.99-1.12 4.297-2.236 7.03-3.396 9.456-4.014 18.43-3.33 23.3-1.42 6.39 2.503 7.08 6.086 7.953 7.753.63 1.199 4.54 2.949 3.743 4.598-.497 1.029-3.11.413-5.177.085-2.174-.343-2.43-.75-8.036-.271-2.578.22-5.224.736-7.179 1.183-.378 1.784-1.483 5.528-4.378 7.886-3.909 3.183-9.432 4.468-9.432 4.468s2.857-2.071 4.344-4.484c1.012-1.643.85-3.735.645-4.903l-.012.004c-3.052 1.365-5.739 2.468-11.81 6.61-5.309 3.624-8.526 7.826-8.526 7.826s2.886-6.09 8.998-11.15c5.018-4.154 9.355-6.648 15.75-8.498 6.986-2.022 12.41-2.353 12.41-2.353s-.892-3.105-6.823-4.34c-5.156-1.074-12.54.295-20.41 4.422-11.12 5.832-13.93 11.93-17.76 18.45-4.074 6.942-6.498 17.57-6.498 17.57s.25-5.371 1.71-10.79z" fill="url(#a)" style="isolation:isolate"/>
</svg>
