<svg version="1.1" viewBox="0 0 64 64" xmlns="http://www.w3.org/2000/svg" xmlns:xlink="http://www.w3.org/1999/xlink">
 <defs>
  <linearGradient id="b" x1=".8452" x2=".8452" y1="15.38" y2="3.55" gradientTransform="matrix(5.408 0 0 3.863 -4.571 -2.286)" gradientUnits="userSpaceOnUse">
   <stop stop-color="#0061ff" offset="0"/>
   <stop stop-color="#60efff" offset="1"/>
  </linearGradient>
  <linearGradient id="a" x2="0" y2="1">
   <stop stop-color="#0f6" offset="0"/>
   <stop stop-color="#0fc" offset="1"/>
  </linearGradient>
 </defs>
 <path transform="translate(1e-5) scale(1) translate(-.02591 .001) scale(1) translate(0) scale(1)" d="m35.43 10.28a3.428 3.428 0 0 0-6.856 0v16.87l-3.291-3.291a3.428 3.428 0 0 0-4.845 4.845l9.142 9.142a3.428 3.428 0 0 0 4.845 0l9.142-9.142a3.428 3.428 0 1 0-4.845-4.845l-3.291 3.291z" fill="url(#a)" stroke-width="4.571"/>
 <path transform="translate(1e-5) scale(1) translate(-.02591 .001)" d="m17.3 18.28a3.428 3.428 0 0 0-3.204 2.208l-6.994 18.36h11.03a4.571 4.571 0 0 1 3.803 2.034l1.856 2.788a4.571 4.571 0 0 0 3.803 2.034h8.822a4.571 4.571 0 0 0 3.803-2.034l1.856-2.788a4.571 4.571 0 0 1 3.803-2.034h11.03l-6.994-18.36a3.428 3.428 0 0 0-3.2-2.208h-2.135a3.428 3.428 0 0 1 0-6.856h2.13c4.269 0 8.091 2.637 9.613 6.623l7.012 18.4c0.4434 1.17 0.6719 2.409 0.6719 3.661v6.738a10.28 10.28 0 0 1-10.28 10.28h-43.42a10.28 10.28 0 0 1-10.28-10.28v-6.738c0-1.252 0.2286-2.491 0.6719-3.661l7.012-18.4a10.28 10.28 0 0 1 9.613-6.623h2.13a3.428 3.428 0 0 1 0 6.856z" fill="url(#b)" stroke-width="4.571"/>
</svg>
