<svg version="1.1" viewBox="0 0 64 64" xmlns="http://www.w3.org/2000/svg" xmlns:xlink="http://www.w3.org/1999/xlink">
 <defs>
  <linearGradient id="a" x2="0" y1="1">
   <stop stop-color="#ff4000" offset="0"/>
   <stop stop-color="#ffa200" offset=".905"/>
  </linearGradient>
  <linearGradient id="c" x1="21.9" x2="21.9" y1="24.28" y2="-4.055" gradientTransform="matrix(.8871 0 0 1.127 .004446 4.635)" gradientUnits="userSpaceOnUse" xlink:href="#a"/>
  <linearGradient id="b" x1="-.002535" x2="-.002535" y1="67.62" y2="13.53" gradientTransform="matrix(1.183 0 0 .8449 .002999 5.715)" gradientUnits="userSpaceOnUse" xlink:href="#a"/>
 </defs>
 <path transform="translate(0 .5402) scale(1)" d="m35.34 33.63c-0.07672 4.493-6.779 4.493-6.856 0v-21.87l-3.29 3.29c-3.228 2.997-7.842-1.617-4.845-4.845l9.141-9.141c1.339-1.336 3.506-1.336 4.845 0l9.141 9.141c3.477 3.228-1.617 8.322-4.845 4.845l-3.29-3.29z" fill="url(#c)" stroke-width=".9998"/>
 <path transform="translate(0 .5402) scale(1)" d="m15.3 24c-1.423-2.7e-5 -2.698 0.8783-3.204 2.208l-4.992 18.36h11.03c1.528-4.04e-4 2.954 0.7627 3.802 2.034l1.856 2.788c0.8477 1.271 2.275 2.034 3.802 2.034h8.821c1.528 4.05e-4 2.954-0.7627 3.802-2.034l1.856-2.788c0.8477-1.271 2.275-2.034 3.802-2.034h11.03l-4.993-18.36c-0.5062-1.328-1.779-2.206-3.199-2.208h-2.135c-4.493-0.07672-4.493-6.779 0-6.856h2.13c4.269 0 8.089 2.637 9.612 6.623l5.011 18.4c0.4429 1.17 0.6719 2.409 0.6719 3.661v6.737c0 5.682-4.606 10.29-10.29 10.29h-43.42c-5.682 0-10.29-4.606-10.29-10.29v-6.737c0-1.253 0.229-2.491 0.6719-3.661l5.01-18.4c1.52-3.987 5.345-6.622 9.612-6.623h2.13c4.493 0.07672 4.493 6.779 0 6.856z" fill="url(#b)" stroke-width=".9998"/>
</svg>
