<svg version="1.1" viewBox="0 0 64 64" xmlns="http://www.w3.org/2000/svg">
 <defs>
  <linearGradient id="a" x1="1" x2="0" y1="1">
   <stop stop-color="#feaa00" offset="0"/>
   <stop stop-color="#fd0575" offset=".5"/>
   <stop stop-color="#7b31fe" offset="1"/>
  </linearGradient>
 </defs>
 <path transform="translate(0) scale(1) translate(0) scale(1) translate(0) scale(1) translate(0) scale(1) translate(0) scale(1) translate(0) scale(1) translate(-1e-6 -1e-6) scale(1) translate(.006001 .006001) scale(1) translate(-18.29 -18.29) scale(4.571)" d="m11 4c-3.866 0-7 3.134-7 7s3.134 7 7 7 7-3.134 7-7-3.134-7-7-7zm-0.6367 1.336c0.06743-4.69e-5 0.1414 0.00563 0.2031 0.00195 0.0098 0.03904-0.05926 0.1776-0.1523 0.3809-0.5927 1.295-0.6262 2.813-0.07617 3.623 0.09332 0.1378 0.1792 0.2719 0.1894 0.3027v0.0039l-2e-3 0.00195v0.00195h-2e-3c-7.92e-4 5.642e-4 -0.0049 0.00335-0.0059 0.00391-0.02999 0.01444-0.1201 0.02734-0.2188 0.02734-0.2849 0-0.5545-0.1731-1.106-0.6094-0.2446-0.1938-0.5621-0.3562-0.6854-0.3808-0.1936-0.03867-0.2457-0.02193-0.4961 0.2285-0.233 0.233-0.3047 0.359-0.3047 0.5723 0 0.8087 0.9595 1.45 2.744 1.828 2.424 0.5137 3.021 0.9756 3.088 2.25 0.08393 1.598-0.7674 2.804-2.631 3.736-0.2224 0.1114-0.3637 0.1535-0.457 0.1894-0.04135-0.0037-0.07205 0.0037-0.1133 0-0.01586-0.04941-0.03906-0.1637-0.03906-0.3809 0-0.8488-0.3338-1.722-0.8379-2.211-0.1353-0.1312-0.5154-0.4085-0.8398-0.6094-0.3245-0.2008-0.6517-0.4337-0.7246-0.5332-0.1209-0.1652-0.13-0.2671-0.03711-0.5723 0.1693-0.5573 0.37-0.8686 0.7617-1.221 0.2053-0.1846 0.4115-0.3381 0.457-0.3418h0.0039v-4e-3h-0.00195s-0.00195-2e-3 -0.00195-2e-3c-0.03446-0.02147-0.3185-0.1027-0.7227-0.1854-0.4618-0.09466-1.139-0.2935-1.488-0.4199-0.6387-0.2311-1.499-0.7153-1.828-1.066-0.01391-0.01488-0.02698-0.02588-0.03906-0.03906 0.471-1.876 1.792-3.413 3.545-4.154 0.3667-0.1551 0.7455-0.2621 1.144-0.3438 0.1987-0.04062 0.4042-0.05531 0.6094-0.07617 0.0204-0.00212 0.04197-0.00194 0.06445-0.00195zm5.633 2.857c0.0028-3.675e-4 0.0092-9.97e-5 0.01172 0 0.0023 3.376e-4 0.0078 0.00308 0.0098 0.00391 0.1433 0.08856 0.6835 1.259 0.8379 1.83 0.1994 0.737 0.185 2.012 0 2.744-0.07039 0.2787-0.1594 0.5398-0.1894 0.5723l-2e-3 2e-3h-2e-3v2e-3h-8e-3c-0.04157-0.01184-0.1418-0.1827-0.2559-0.3848-0.128-0.2268-0.5371-0.7098-0.877-1.068-0.981-1.035-1.136-1.574-0.7246-2.4 0.1975-0.397 1.026-1.278 1.199-1.301z" fill="url(#a)"/>
</svg>
