<svg version="1.1" viewBox="0 0 22 22" xmlns="http://www.w3.org/2000/svg">
 <defs>
  <linearGradient id="a" x1="1" x2="0" y2="1">
   <stop stop-color="#00ff7f" offset="0"/>
   <stop stop-color="#5fff00" offset="1"/>
  </linearGradient>
 </defs>
 <path transform="translate(1e-6 -1e-6) scale(1) translate(-1e-6 1e-6) scale(1) translate(1e-6 -1e-6) scale(1) translate(-.000943 .000359) scale(1) matrix(.02585 0 0 .02585 -1.422 23.42)" d="m480.3-906c-59.36 0-114.8 11.2-166.3 33.56-51.51 22.35-96.53 52.7-135 91.02-38.51 38.33-68.8 83.26-90.86 134.8-22.05 51.55-33.09 107-33.09 166.3s11.03 114.7 33.09 166.1c22.06 51.46 52.4 96.5 91.02 135.1s83.7 68.96 135.2 91.02c51.5 22.05 106.8 33.09 166.1 33.09 59.25 0 114.7-11.1 166.2-33.28 51.56-22.18 96.48-52.45 134.8-90.86s68.66-83.39 91.02-134.9c22.35-51.49 33.56-106.9 33.56-166.2 1e-5 -59.38-11.19-114.9-33.52-166.6-22.32-51.68-52.62-96.65-90.9-134.9-38.27-38.23-83.22-68.48-134.8-90.78-51.63-22.3-107.1-33.48-166.5-33.48zm-47.27 97.93v35.47c0 12.91 4.477 23.89 13.48 32.97 9 9.087 20.11 13.63 33.32 13.63 13.22 0 24.4-4.546 33.52-13.63 9.12-9.08 13.67-20.06 13.67-32.97v-35.39c72.2 9.319 134.8 40.49 187.7 93.52 53.06 53.17 84.19 115.7 93.4 187.5h-35.47c-12.91 0-23.89 4.477-32.97 13.48-9.087 9-13.63 20.11-13.63 33.32 0 13.22 4.546 24.4 13.63 33.52 9.08 9.12 20.06 13.67 32.97 13.67h35.39c-9.325 72.14-40.5 134.7-93.52 187.7-53.17 53.1-115.7 84.22-187.5 93.44v-35.59c0-12.94-4.477-24.11-13.48-33.48-9-9.36-20.11-14.02-33.32-14.02-13.22 0-24.4 4.688-33.52 14.1-9.12 9.42-13.67 20.61-13.67 33.52v35.39c-72.14-9.325-134.7-40.5-187.7-93.52-53.1-53.17-84.22-115.7-93.44-187.5h35.59c12.94 0 24.11-4.477 33.48-13.48 9.36-9 14.02-20.11 14.02-33.32 0-13.22-4.688-24.4-14.1-33.52-9.42-9.12-20.61-13.67-33.52-13.67h-35.39c9.319-72.2 40.49-134.8 93.52-187.7 53.17-53.06 115.7-84.19 187.5-93.4z" fill="url(#a)"/>
 <path transform="translate(1e-6 -1e-6) scale(1) translate(-1e-6 1e-6) scale(1) translate(1e-6 -1e-6) scale(1) translate(-.000943 .000359) scale(1) matrix(.02585 0 0 .02585 -1.422 23.42)" d="m480.2-651c-13.22 0-24.4 4.759-33.52 14.22-9.12 9.453-13.67 20.7-13.67 33.79v148c0 5.713 1.008 11.26 3.008 16.64s5.333 10.49 10 15.35l105 104c9.38 9.333 20.54 13.98 33.52 13.98s24.27-4.95 33.87-14.84c9.073-9.007 13.59-19.86 13.59-32.58 0-12.71-4.651-23.93-13.98-33.59l-91.02-90.98v-126c0-13.09-4.477-24.34-13.48-33.79-9-9.46-20.11-14.22-33.32-14.22z" fill="url(#a)"/>
</svg>
