<svg version="1.1" viewBox="0 0 22 22" xmlns="http://www.w3.org/2000/svg">
 <defs>
  <linearGradient id="a" x1="1" x2="0" y1=".5" y2=".5">
   <stop stop-color="#00f0ff" offset="0"/>
   <stop stop-color="#00c3ff" offset="1"/>
  </linearGradient>
 </defs>
 <path transform="translate(-.003661 -3e-6) scale(1) translate(.001661 1.7e-5) scale(1)" d="m22 9.401c0-1.202-0.9974-2.201-2.199-2.201h-17.6c-1.202 0-2.199 0.9994-2.199 2.201v3.199c0 1.202 0.9974 2.201 2.199 2.201h17.6c1.202 0 2.199-0.9994 2.199-2.201zm-2.199 0v3.199h-4.4v-3.199zm-5.65 9.064a0.9325 0.9325 0 0 0-0.2891-0.6855c-0.2072-0.2076-0.4333-0.3105-0.6758-0.3105-0.2421 3.45e-4 -0.4585 0.09188-0.6523 0.2715l-0.5391 0.5176v-2.281c0-0.2732-0.09436-0.5067-0.2812-0.6953-0.1864-0.1885-0.4172-0.2812-0.6914-0.2812a0.948 0.948 0 0 0-0.6953 0.2812c-0.1892 0.1889-0.2832 0.4224-0.2832 0.6953v2.281l-0.541-0.5391c-0.1937-0.1661-0.4074-0.2549-0.6426-0.2617-0.2348-0.0066-0.4431 0.08217-0.623 0.2617-0.2218 0.2212-0.3319 0.3312-0.3418 0.7363-0.0066 0.27 0.0859 0.5019 0.2793 0.6953l2.137 2.135a1.088 1.088 0 0 0 0.3379 0.2383c0.1136 0.04834 0.2369 0.07422 0.3691 0.07422s0.2532-0.02587 0.3672-0.07422c0.1136-0.04836 0.2274-0.1277 0.3379-0.2383l2.137-2.135c0.1937-0.194 0.291-0.4231 0.291-0.6855zm-0.02148-14.93a0.9325 0.9325 0 0 0-0.291-0.6855l-2.137-2.139c-0.1102-0.1109-0.222-0.1899-0.3359-0.2383-0.114-0.04836-0.2369-0.07227-0.3691-0.07227a0.9325 0.9325 0 0 0-0.3691 0.07227 1.088 1.088 0 0 0-0.3379 0.2383l-2.135 2.139a0.9118 0.9118 0 0 0-0.2812 0.6934c0.0066 0.2694 0.122 0.5147 0.3438 0.7363 0.1796 0.1796 0.3859 0.2667 0.6211 0.2598s0.4508-0.09402 0.6445-0.2598l0.5391-0.5391v2.281a0.9376 0.9376 0 0 0 0.2832 0.6953c0.1889 0.1885 0.4227 0.2812 0.6973 0.2812 0.2742 0 0.5029-0.09263 0.6895-0.2812 0.1869-0.1885 0.2812-0.4221 0.2812-0.6953v-2.281l0.5391 0.5195c0.194 0.1796 0.4106 0.2695 0.6523 0.2695 0.2424 0 0.4685-0.1049 0.6758-0.3125 0.1937-0.1934 0.2891-0.4189 0.2891-0.6816zm-0.9297 5.863v3.199h-4.398v-3.199zm-6.6 0v3.199h-4.4v-3.199z" fill="url(#a)"/>
</svg>
