<svg version="1.1" viewBox="0 0 22 22" xmlns="http://www.w3.org/2000/svg">
 <path transform="translate(0) scale(1) translate(0) scale(1) translate(-.00169 .000233) scale(1) translate(.000245 -.00041) scale(1)" d="m10.94 0.3828v0.001953c-0.337 0.014-0.5218 0.24-0.7598 0.457-0.2153 0.1953-0.4293 0.3912-0.6426 0.5879l-2.15 1.971-6.945 6.314c-0.268 0.245-0.4145 0.3778-0.4394 0.7598-0.043 0.6659 0.713 1.146 1.293 0.8203 0.158-0.08999 0.3151-0.2609 0.4551-0.3809 0.2853-0.244 0.5633-0.4959 0.834-0.7559 0.024 0.262 0.01267 0.6529 0.01367 0.9238v1.6l0.00391 4.828-0.00195 1.137c-9.999e-4 0.37-0.02363 0.8366 0.06836 1.186a2.4 2.4 0 0 0 1.137 1.473c0.5659 0.324 1.023 0.3126 1.641 0.3066 0.3313-0.0033 0.6641-0.0033 0.9961-2e-3l3.584-0.0039h5.129c0.6233-2e-3 1.248 0.0011 1.873 0.0098a2.36 2.36 0 0 0 2.129-1.227c0.285-0.509 0.2734-0.9586 0.2734-1.518v-3.59c2e-3 -0.7859-4.79e-4 -1.571-0.0078-2.356v-0.7188c0-0.12 0.0095-0.3911-0.01953-0.4961l-0.01953-0.01953c-0.177-0.191-0.3804-0.3619-0.5664-0.5449-0.264-0.257-0.5474-0.4922-0.8164-0.7422l-3.326-3.045-2.053-1.871c-0.372-0.343-0.7399-0.6986-1.131-1.02-0.317-0.252-0.8311-0.2164-1.121 0.06055-0.32 0.286-0.3619 0.8673-0.08594 1.197 0.163 0.194 0.429 0.411 0.625 0.5859l1.068 0.9648 4.279 3.898c0.287 0.266 0.5901 0.5142 0.873 0.7852 0.182 0.174 0.3719 0.316 0.5469 0.5l0.0039 0.1152c-0.028 2.219 0.0209 4.464 0.0039 6.684-5e-3 0.25-0.1893 0.5031-0.4473 0.5371-0.127 0.016-0.2529 0.01462-0.3809 0.01563l-0.6035 0.0059c-0.6229 3e-3 -1.361 0.01523-1.977-0.0098-8e-3 -0.157-2e-3 -0.3741-2e-3 -0.5371v-4.949c9.99e-4 -0.453 0.04491-0.7966-0.373-1.1-0.28-0.202-0.6252-0.1513-0.9492-0.1543-0.173-2e-3 -0.3495 0.0029-0.5234 0.0039l-1.908-2e-3 -1.309-2e-3c-0.386 0-0.8395-0.06394-1.148 0.207-0.354 0.31-0.3086 0.6326-0.3086 1.059l-0.00195 0.9277v2.865c2e-3 0.504 0.02318 1.196-0.00781 1.688-0.07599 2e-3 -0.1525 0.0026-0.2285 2e-3 -0.8549 3e-3 -1.71 0-2.564 0-0.19 1e-3 -0.2976-0.02398-0.4336-0.168a0.5 0.5 0 0 1-0.1601-0.3203c-0.01-0.141-0.00781-0.2838-0.00781-0.4258l-0.00195-0.7871 0.00586-2.564v-4.816a138 138 0 0 1 0.00391-2.191c0.09198-0.107 0.2455-0.24 0.3535-0.3359 0.1806-0.1586 0.3598-0.3192 0.5391-0.4805l1.977-1.799 2.33-2.137c0.3033-0.282 0.6074-0.5619 0.9141-0.8398 0.155-0.14 0.3781-0.3575 0.5391-0.4805 0.248 0.198 0.6047 0.5359 0.8477 0.7559l1.525 1.381 5.158 4.699 1.451 1.324c0.205 0.187 0.4178 0.4042 0.6348 0.5742 0.314 0.244 0.8127 0.1958 1.098-0.07813a0.8999 0.8999 0 0 0 0.2734-0.6328c3e-3 -0.314-0.1097-0.5325-0.3457-0.7305-0.18-0.15-0.3591-0.3128-0.5371-0.4668a92.99 92.99 0 0 1-1.268-1.133c-0.127-0.118-0.2981-0.2551-0.4121-0.3711l-0.01172-0.01367c-0.031-0.6179-0.0098-1.368-0.0098-1.998l-0.0039-2.963v-1.1c0-0.196 0.01023-0.4105-0.0098-0.6035-0.022-0.211-0.1623-0.3983-0.3203-0.5312-0.164-0.14-0.3769-0.1825-0.5879-0.1875-0.6799-0.005999-1.362-0.001953-2.043-0.001953l-0.6094-0.001953c-0.148 0-0.316-0.008419-0.459 0.01758-0.296 0.053-0.6043 0.3132-0.6543 0.6191-0.051 0.31-0.03034 0.6703-0.02734 0.9883 0.0047 0.4666 0.0021 0.9331-0.0059 1.4-0.1279-0.07899-0.3612-0.3274-0.4882-0.4414l-2.025-1.814a19 19 0 0 1-0.3438-0.3066c-0.253-0.233-0.4602-0.4567-0.8262-0.4727zm5.492 1.756c0.392-0.01 0.8306 0.00372 1.225 0.01172 0.02 0.5979 0.01267 1.242 0.01367 1.844 4e-3 0.7013 0.0028 1.402-0.0039 2.104a2.4 2.4 0 0 1-0.2969-0.2539c-0.306-0.297-0.6292-0.5696-0.9492-0.8496-0.021-0.524-1e-3 -1.178 0-1.711l-2e-3 -0.668c0-0.152-0.0053-0.3286 0.01367-0.4766zm-4.584 12.71c0.211-2e-3 0.4512-0.0052 0.6602 0.0098 0.018 0.17 0.0068 0.4109 0.0098 0.5879 8e-3 0.442-0.01177 0.8891-0.0098 1.33 0.0093 0.6866 0.0131 1.374 0.0098 2.06 0 0.276 0.01319 0.7147-0.0078 0.9727h-0.123l-1.988 0.0078c-0.266 0-0.6474 0.01019-0.9023-0.0078-0.013-0.17-0.00391-0.4967-0.00391-0.6797l-0.00195-1.361-0.00195-1.914c0-0.32-0.00714-0.6772 0.00586-0.9922l0.1465-0.0059c0.7339-0.014 1.472 0.0022 2.207-0.0078z" fill="#0f0"/>
</svg>
