<svg version="1.1" viewBox="0 0 22 22" xmlns="http://www.w3.org/2000/svg">
 <path transform="translate(0) scale(1) translate(0) scale(1) translate(0) scale(1) translate(0) scale(1) translate(5e-4 .000751) scale(1)" d="M7.24 20.748c0 .526-.532.953-1.189.953-.656 0-1.19-.427-1.19-.953V6.004c0-.526.533-.953 1.19-.953s1.19.427 1.19.953zM4.862 2.585q.004.125-.006.253a2.376 2.376 0 0 1-2.371 2.215h-.108c-3.17-.001-3.17-4.758 0-4.755h.108a2.38 2.38 0 0 1 2.378 2.285zM21.998 16.784h-.002q.005.125-.004.253a2.376 2.376 0 0 1-2.37 2.215h-8.855c-3.17 0-3.17-4.755 0-4.755h8.854A2.38 2.38 0 0 1 22 16.784zM21.998 9.683h-.002q.005.125-.004.253a2.376 2.376 0 0 1-2.37 2.215h-8.855c-3.17 0-3.17-4.755 0-4.755h8.854A2.38 2.38 0 0 1 22 9.683z" fill="#ff0"/>
</svg>
