<svg version="1.1" viewBox="0 0 22 22" xmlns="http://www.w3.org/2000/svg">
 <path transform="translate(0) scale(1) translate(0) scale(1) translate(0) scale(1) translate(0) scale(1) translate(-.00025 -5e-4) scale(1)" d="M1.25 7.24c-.525 0-.952-.532-.952-1.19 0-.656.427-1.19.953-1.19h14.745c.526 0 .953.533.953 1.19s-.427 1.19-.953 1.19zM19.412 4.862q-.125.004-.253-.007a2.376 2.376 0 0 1-2.215-2.37v-.107c0-3.17 4.757-3.17 4.754 0v.107a2.38 2.38 0 0 1-2.284 2.378zM5.216 21.995v-.002a2.376 2.376 0 0 1-2.469-2.374v-8.855c0-3.17 4.754-3.17 4.754 0v8.854c0 1.29-1.025 2.33-2.286 2.378zM12.314 21.995v-.002a2.376 2.376 0 0 1-2.469-2.374v-8.855c.001-3.17 4.755-3.17 4.755 0v8.854c0 1.29-1.025 2.33-2.286 2.378z" fill="#ff7f00"/>
</svg>
