<svg version="1.1" viewBox="0 0 22 22" xmlns="http://www.w3.org/2000/svg">
 <path transform="translate(-1e-6) scale(1) translate(.004 .00176) scale(1) translate(.000613 6e-4) scale(1)" d="m2.07 0c-0.2761 0-0.7271 0.00638-0.9902 0.08789-0.3724 0.1154-0.8486 0.3804-1.018 0.9883-0.07369 0.265-0.0625 0.718-0.0625 0.9941v0.5703a0.5 0.5 0 0 0 0.5 0.5h0.5703a0.5 0.5 0 0 0 0.5-0.5v-0.5703a0.5 0.5 0 0 1 0.5-0.5h0.5703a0.5 0.5 0 0 0 0.5-0.5v-0.5703a0.5 0.5 0 0 0-0.5-0.5zm4.713 0a0.5 0.5 0 0 0-0.5 0.5v0.5703a0.5 0.5 0 0 0 0.5 0.5h2.143a0.5 0.5 0 0 0 0.5-0.5v-0.5703a0.5 0.5 0 0 0-0.5-0.5zm6.285 0a0.5 0.5 0 0 0-0.5 0.5v0.5703a0.5 0.5 0 0 0 0.5 0.5h2.143a0.5 0.5 0 0 0 0.5-0.5v-0.5703a0.5 0.5 0 0 0-0.5-0.5zm6.283 0a0.5 0.5 0 0 0-0.5 0.5v0.5703a0.5 0.5 0 0 0 0.5 0.5h0.5703a0.5 0.5 0 0 1 0.5 0.5v0.5703a0.5 0.5 0 0 0 0.5 0.5h0.5703a0.5 0.5 0 0 0 0.5-0.5v-0.5703c0-0.2761 0.01088-0.7282-0.06055-0.9941-0.1669-0.6212-0.644-0.8831-1.018-0.9941-0.2638-0.0784-0.7141-0.08203-0.9902-0.08203zm-14.14 4.713a0.5 0.5 0 0 0-0.5 0.5v11.57a0.5 0.5 0 0 0 0.5 0.5h11.57a0.5 0.5 0 0 0 0.5-0.5v-11.57a0.5 0.5 0 0 0-0.5-0.5zm-4.713 1.57a0.5 0.5 0 0 0-0.5 0.5v2.145a0.5 0.5 0 0 0 0.5 0.5h0.5703a0.5 0.5 0 0 0 0.5-0.5v-2.145a0.5 0.5 0 0 0-0.5-0.5zm20.42 0a0.4997 0.4997 0 0 0-0.5 0.5v2.143a0.5 0.5 0 0 0 0.5 0.5h0.5684a0.5 0.5 0 0 0 0.5-0.5v-2.143a0.5003 0.5003 0 0 0-0.5-0.5zm-2e-3 5.973a0.5 0.5 0 0 0-0.5 0.5v2.143a0.5 0.5 0 0 0 0.5 0.5h0.5703a0.5 0.5 0 0 0 0.5-0.5v-2.143a0.5 0.5 0 0 0-0.5-0.5zm-20.42 0.3125a0.5 0.5 0 0 0-0.5 0.5v2.143a0.5 0.5 0 0 0 0.5 0.5h0.5703a0.5 0.5 0 0 0 0.5-0.5v-2.143a0.5 0.5 0 0 0-0.5-0.5zm0 6.281a0.5 0.5 0 0 0-0.5 0.5v0.5723c0 0.2761-0.01123 0.7289 0.0625 0.9941 0.1691 0.6082 0.6451 0.8731 1.018 0.9883 0.2629 0.08129 0.7141 0.08789 0.9902 0.08789h0.5703a0.5 0.5 0 0 0 0.5-0.5v-0.5684a0.5 0.5 0 0 0-0.5-0.5h-0.5703a0.5 0.5 0 0 1-0.5-0.5v-0.5742a0.5 0.5 0 0 0-0.5-0.5zm20.42 0a0.5003 0.5003 0 0 0-0.502 0.5v0.5723a0.5003 0.5003 0 0 1-0.5 0.5h-0.5703a0.5 0.5 0 0 0-0.5 0.5v0.5703a0.5 0.5 0 0 0 0.5 0.5h0.5703c0.2761 0 0.7282-0.0017 0.9922-0.08008 0.3738-0.111 0.8506-0.3733 1.018-0.9941 0.07147-0.2657 0.06055-0.718 0.06055-0.9941v-0.5742a0.5 0.5 0 0 0-0.5-0.5zm-14.14 1.572a0.4998 0.4998 0 0 0-0.5 0.5v0.5703a0.5 0.5 0 0 0 0.5 0.5h2.143a0.5 0.5 0 0 0 0.5-0.5v-0.5684a0.5002 0.5002 0 0 0-0.5-0.502zm6.285 0a0.4998 0.4998 0 0 0-0.5 0.5v0.5703a0.5 0.5 0 0 0 0.5 0.5h2.143a0.5 0.5 0 0 0 0.5-0.5v-0.5684a0.5002 0.5002 0 0 0-0.5-0.502z" fill="#0ff"/>
</svg>
