<svg version="1.1" viewBox="0 0 22 22" xmlns="http://www.w3.org/2000/svg">
 <path transform="translate(0) scale(1) translate(2e-5) scale(1) translate(-.00065) scale(.9997)" d="M3.987 14.045c-.5 0-.907.507-.907 1.132s.407 1.132.907 1.132h14.034c.5 0 .906-.506.906-1.132 0-.624-.406-1.132-.906-1.132zM14.48 17.378q-.12-.002-.24.007a2.26 2.26 0 0 0-2.109 2.256v.102c.001 3.017 4.529 3.017 4.526 0v-.102a2.265 2.265 0 0 0-2.175-2.263zM14.48 4.532a2.262 2.262 0 0 0-2.35 2.258l.001 3.9c.002 3.017 4.529 3.017 4.526 0v-3.9a2.26 2.26 0 0 0-2.175-2.258zM7.766 0v.002a2.262 2.262 0 0 0-2.35 2.26v8.428c.001 3.017 4.526 3.017 4.526 0V2.262A2.266 2.266 0 0 0 7.766 0z" fill="#0ff"/>
</svg>
