<svg version="1.1" viewBox="0 0 22 22" xmlns="http://www.w3.org/2000/svg">
 <path transform="translate(0) scale(1) translate(0) scale(1) translate(0 5e-4) scale(1)" d="M4.4 10.448a.55.55 0 0 1-.551.55H.55a.55.55 0 0 1-.55-.55V7.15a.55.55 0 0 1 .55-.55H3.85a.55.55 0 0 1 .55.55zm4.399 10.999a.55.55 0 0 1-.55.55H4.95a.55.55 0 0 1-.55-.55v-3.298a.55.55 0 0 1 .55-.55h3.298a.55.55 0 0 1 .55.55zm13.199-8.8a.55.55 0 0 1-.551.551h-3.298a.55.55 0 0 1-.55-.55V9.35a.55.55 0 0 1 .55-.55h3.298a.55.55 0 0 1 .55.55zm-13.2 2.2a.55.55 0 0 0 .551.551h3.299a.55.55 0 0 0 .55-.55v-3.299a.55.55 0 0 0-.55-.55H9.349a.55.55 0 0 0-.55.55zm4.4-10.998a.55.55 0 0 0 .55.55h3.3a.55.55 0 0 0 .55-.55V.55a.55.55 0 0 0-.55-.55h-3.3a.55.55 0 0 0-.55.55z" fill="#f0f"/>
</svg>
