<svg version="1.1" viewBox="0 0 22 22" xmlns="http://www.w3.org/2000/svg">
 <path transform="translate(0) scale(1) translate(0) scale(1) translate(0) scale(1) translate(0) scale(1) translate(0) scale(1) translate(3e-4 .000644) scale(1)" d="M3.422 19.55c-.54 0-.978.548-.978 1.223s.438 1.222.978 1.222h15.15c.54 0 .979-.548.979-1.222s-.438-1.222-.979-1.222zM7.164 4.896a2.444 2.444 0 0 0-2.277 2.439v7.332a2.444 2.444 0 0 0 4.888 0V7.335a2.444 2.444 0 0 0-2.61-2.44M14.49.006a2.444 2.444 0 0 0-2.278 2.439v12.22a2.444 2.444 0 0 0 4.888 0V2.445a2.444 2.444 0 0 0-2.61-2.44" fill="#0ff"/>
</svg>
