<svg version="1.1" viewBox="0 0 22 22" xmlns="http://www.w3.org/2000/svg">
 <path transform="translate(0 -6e-5) scale(1) translate(0 9e-4) scale(.9995)" d="M14.05 3.987c0-.5.507-.906 1.132-.906s1.132.406 1.132.906v14.034c0 .5-.507.907-1.132.907s-1.132-.407-1.132-.907zM17.383 14.486q-.004-.12.006-.242a2.26 2.26 0 0 1 2.257-2.108h.102c3.017.001 3.017 4.529 0 4.526h-.102a2.265 2.265 0 0 1-2.264-2.174zM4.532 14.486q-.006-.12.002-.242a2.26 2.26 0 0 1 2.256-2.108h3.9c3.017.002 3.017 4.529 0 4.526h-3.9a2.26 2.26 0 0 1-2.258-2.174zM0 7.766h.002q-.004-.12.004-.241a2.26 2.26 0 0 1 2.256-2.109h8.428c3.017.001 3.017 4.526 0 4.526H2.262A2.266 2.266 0 0 1 0 7.766z" fill="#0f0"/>
</svg>
