<svg version="1.1" viewBox="0 0 22 22" xmlns="http://www.w3.org/2000/svg">
 <path transform="translate(0) scale(1) translate(7e-4 5e-4) scale(1)" d="M10.915 21.993a1.22 1.22 0 0 1-1.139-1.22v-3.665H4.014c-1.543 0-2.792-1.094-2.792-2.444s1.249-2.444 2.792-2.444h5.762V9.776H6.11c-3.259 0-3.259-4.888 0-4.888h3.666V1.222c0-1.63 2.444-1.63 2.444 0v3.666h3.666c3.26 0 3.26 4.888 0 4.888H12.22v2.444h5.762c1.543 0 2.792 1.093 2.792 2.444s-1.249 2.444-2.792 2.444H12.22v3.666c0 .708-.6 1.268-1.305 1.22z" fill="#f0f"/>
</svg>
