<svg version="1.1" viewBox="0 0 22 22" xmlns="http://www.w3.org/2000/svg">
 <path transform="translate(0) scale(1) translate(0) scale(1) translate(0) scale(1) translate(0) scale(1) translate(0 .000251) scale(1)" d="M14.754 20.745c0 .525.533.952 1.19.952s1.19-.427 1.19-.952V5.999c0-.525-.533-.952-1.19-.952s-1.19.427-1.19.952zM17.134 2.584q-.004.125.006.254a2.376 2.376 0 0 0 2.37 2.215h.108c3.17-.001 3.17-4.758 0-4.755h-.108a2.38 2.38 0 0 0-2.378 2.285zM.002 16.786h.002q-.005.125.004.253a2.376 2.376 0 0 0 2.37 2.216h8.855c3.17-.001 3.17-4.755 0-4.755H2.378A2.38 2.38 0 0 0 0 16.786zM.002 9.682h.002q-.005.125.004.254a2.376 2.376 0 0 0 2.37 2.215h8.855c3.17-.001 3.17-4.755 0-4.755H2.378A2.38 2.38 0 0 0 0 9.683z" fill="#0f0"/>
</svg>
