<svg version="1.1" viewBox="0 0 22 22" xmlns="http://www.w3.org/2000/svg">
 <path transform="translate(.00105 .001887) scale(1) translate(-1.279 -1.279) scale(1.023)" d="m20.98 5.25a0.75 0.75 0 0 0-0.7305 0.668l-0.6367 5.728c-0.1457 1.311-0.3675 1.939-0.6894 2.252-0.322 0.3132-0.9547 0.5174-2.27 0.627l-8.721 0.7266a0.75 0.75 0 0 0-0.6856 0.8106 0.75 0.75 0 0 0 0.8106 0.6856l8.721-0.7266c1.414-0.1178 2.449-0.325 3.191-1.047 0.742-0.7218 0.9781-1.752 1.135-3.162l0.6367-5.73a0.75 0.75 0 0 0-0.6641-0.8281 0.75 0.75 0 0 0-0.09766-0.003906z" fill="#f00"/>
 <path transform="translate(.00105 .001887) scale(1) translate(-1.279 -1.279) scale(1.023)" d="M 6,5.25 A 0.75,0.75 0 0 0 5.25,6 0.75,0.75 0 0 0 6,6.75 H 8 A 0.75,0.75 0 0 0 8.75,6 0.75,0.75 0 0 0 8,5.25 Z m 12.5,0 A 0.75,0.75 0 0 0 17.75,6 0.75,0.75 0 0 0 18.5,6.75 H 22 A 0.75,0.75 0 0 0 22.75,6 0.75,0.75 0 0 0 22,5.25 Z" fill="#f00"/>
 <path transform="translate(.00105 .001887) scale(1) translate(-1.279 -1.279) scale(1.023)" d="m16.5 2.248a0.75 0.75 0 0 0-0.5312 0.2207l-2.469 2.469-2.469-2.469a0.75 0.75 0 0 0-0.5312-0.2188 0.75 0.75 0 0 0-0.5312 0.2188 0.75 0.75 0 0 0 0 1.062l2.469 2.469-2.469 2.469a0.75 0.75 0 0 0 0 1.062 0.75 0.75 0 0 0 1.062 0l2.469-2.469 2.469 2.469a0.75 0.75 0 0 0 1.062 0 0.75 0.75 0 0 0 0-1.062l-2.469-2.469 2.469-2.469a0.75 0.75 0 0 0 0-1.062 0.75 0.75 0 0 0-0.5312-0.2207z" fill="#f00"/>
 <path transform="translate(.00105 .001887) scale(1) translate(-1.279 -1.279) scale(1.023)" d="m6 17.25c-1.51 0-2.75 1.24-2.75 2.75s1.24 2.75 2.75 2.75 2.75-1.24 2.75-2.75-1.24-2.75-2.75-2.75zm0 1.5c0.6992 0 1.25 0.5508 1.25 1.25s-0.5508 1.25-1.25 1.25-1.25-0.5508-1.25-1.25 0.5508-1.25 1.25-1.25z" fill="#f00"/>
 <path transform="translate(.00105 .001887) scale(1) translate(-1.279 -1.279) scale(1.023)" d="m17 17.25c-1.51 0-2.75 1.24-2.75 2.75s1.24 2.75 2.75 2.75 2.75-1.24 2.75-2.75-1.24-2.75-2.75-2.75zm0 1.5c0.6992 0 1.25 0.5508 1.25 1.25s-0.5508 1.25-1.25 1.25-1.25-0.5508-1.25-1.25 0.5508-1.25 1.25-1.25z" fill="#f00"/>
 <path transform="translate(.00105 .001887) scale(1) translate(-1.279 -1.279) scale(1.023)" d="m8 19.25a0.75 0.75 0 0 0-0.75 0.75 0.75 0.75 0 0 0 0.75 0.75h7a0.75 0.75 0 0 0 0.75-0.75 0.75 0.75 0 0 0-0.75-0.75z" fill="#f00"/>
 <path transform="translate(.00105 .001887) scale(1) translate(-1.279 -1.279) scale(1.023)" d="m2 1.25a0.75 0.75 0 0 0-0.75 0.75 0.75 0.75 0 0 0 0.75 0.75h0.9668c0.6141 0 1.127 0.3989 1.27 0.9512l2.977 11.56c0.09276 0.3605 0.01454 0.7368-0.2188 1.039l-0.9551 1.238a0.75 0.75 0 0 0 0.1348 1.053 0.75 0.75 0 0 0 1.053-0.1348l0.9551-1.238c0.5106-0.6616 0.6904-1.524 0.4824-2.332l-2.975-11.56c-0.3161-1.228-1.447-2.078-2.723-2.078z" fill="#f00"/>
</svg>
