<svg version="1.1" viewBox="0 0 22 22" xmlns="http://www.w3.org/2000/svg">
 <defs>
  <linearGradient id="a" x2="0" y1="1">
   <stop stop-color="#f70606" offset="0"/>
   <stop stop-color="#ff24f5" offset="1"/>
  </linearGradient>
 </defs>
 <path transform="translate(.00034 -5.7e-5) scale(1) translate(.00096 .00201) scale(.9999)" d="m2.211-0.001953v0.001953l-0.9414 0.001953c-0.6962-3.425e-4 -1.27 0.5732-1.27 1.27-3.432e-4 0.6962 0.5732 1.268 1.27 1.268h0.9414c0.3668 0 0.6374 0.2259 0.7148 0.5234l2.896 11.25c0.05005 0.1945 0.01391 0.3774-0.1172 0.5469l-0.5488 0.7148c-1.762 0.0033-3.209 1.45-3.209 3.211 1e-7 1.763 1.451 3.215 3.215 3.215 1.292 0 2.317-0.8405 2.822-1.943h5.057c0.5047 1.103 1.53 1.943 2.822 1.943 1.764 0 3.213-1.451 3.213-3.215s-1.449-3.215-3.213-3.215c-1.294 0-2.321 0.8425-2.824 1.949h-5.041c-0.1354-0.2946-0.3164-0.5553-0.5293-0.793l0.2441-0.3144a0.3955 0.3955 0 0 0 0.00195 0c0.08059-0.1044 0.1316-0.2094 0.1914-0.3144l7.785-0.6484c1.406-0.1171 2.572-0.329 3.436-1.17 0.8636-0.84 1.109-2.001 1.264-3.402v-0.001953l0.4961-4.445h-0.1523c0.6956-3.427e-4 1.266-0.5736 1.266-1.27 3.43e-4 -0.6962-0.5713-1.268-1.268-1.268h-2.436c-0.6962-3.433e-4 -1.268 0.5713-1.268 1.268-3.43e-4 0.6962 0.5713 1.27 1.268 1.27h0.0332l-0.4609 4.166c-0.1369 1.229-0.3768 1.729-0.5137 1.863-0.137 0.1328-0.6412 0.356-1.877 0.459l-7.242 0.6055-1.92-7.455c0.09346-0.05529 0.1937-0.08492 0.2773-0.166 0.1804-0.175 0.323-0.4414 0.3223-0.7422 3.43e-4 -0.6958-0.57-1.268-1.266-1.268h0.1094l-0.3789-1.469c-0.3699-1.436-1.69-2.426-3.17-2.426zm2.949 18.11c0.4024 0 0.6797 0.2767 0.6797 0.6777v2e-3c-0.00115 0.3995-0.2784 0.6738-0.6797 0.6738-0.402 0-0.6758-0.2739-0.6758-0.6758 0-0.4024 0.2738-0.6777 0.6758-0.6777zm10.7 0c0.4024 0 0.6777 0.2767 0.6777 0.6777 0 0.4009-0.2758 0.6758-0.6777 0.6758-0.391 0-0.6571-0.2613-0.6738-0.6426 3.85e-4 -0.0082-1.6e-4 -0.01216 0-0.02344 6e-5 -0.0047 6e-5 -9e-3 0-0.01367-1.5e-4 -0.01187 4.09e-4 -0.01706 0-0.02539 0.01578-0.3831 0.2835-0.6484 0.6738-0.6484z" fill="url(#a)"/>
 <path transform="translate(.00034 -5.7e-5) scale(1) matrix(.9999 0 0 .9999 .00096 .00201)" d="m9.477 4.01c-0.4797 0.001383-0.8531 0.2971-1.01 0.6758-0.1569 0.3792-0.1014 0.8533 0.2383 1.193l2.023 2.023-2.023 2.023c-0.2543 0.2478-0.3625 0.548-0.3477 0.8281 0.0149 0.2808 0.1438 0.5384 0.3359 0.7305s0.4516 0.323 0.7324 0.3379c0.2802 0.01487 0.5784-0.09337 0.8262-0.3477l2.024-2.025 2.025 2.023c0.205 0.2059 0.4848 0.3242 0.7754 0.3242 0.6028-4.39e-4 1.094-0.4929 1.094-1.096 2.33e-4 -0.2899-0.1154-0.5685-0.3203-0.7734v-0.00195l-2.025-2.023 2.025-2.023c0.2057-0.2051 0.3206-0.483 0.3203-0.7734 1e-6 -0.6028-0.4909-1.095-1.094-1.096-0.2905-3.13e-5 -0.5704 0.1144-0.7754 0.3203l-2.025 2.024-2.023-2.023c-0.2051-0.2054-0.4831-0.3199-0.7734-0.3203z" fill="#f00"/>
</svg>
