<svg version="1.1" viewBox="0 0 22 22" xmlns="http://www.w3.org/2000/svg">
 <defs>
  <linearGradient id="b" x1="1" x2="0" y2="1">
   <stop stop-color="#007bf6" offset="0"/>
   <stop stop-color="#d60cff" offset=".5"/>
   <stop stop-color="#ff167a" offset="1"/>
  </linearGradient>
  <linearGradient id="a" y1=".5" y2=".5">
   <stop stop-color="#ffa800" offset="0"/>
   <stop stop-color="#fff737" offset="1"/>
  </linearGradient>
 </defs>
 <path transform="translate(.000344 -.00039) scale(1) translate(.4846 .582) scale(.9693)" d="m0.8457 1.756c-0.7372 1.743e-4 -1.346 0.6086-1.346 1.346 1.743e-4 0.7372 0.6086 1.346 1.346 1.346h13.56c0.3969-0.01221 0.7537-0.1862 0.9785-0.4453s0.3262-0.5833 0.3262-0.9004-0.1013-0.6393-0.3262-0.8984-0.5816-0.4351-0.9785-0.4473h-0.0078zm0 4.512c-0.7384 1.73e-4 -1.347 0.6112-1.346 1.35 0.001238 0.7363 0.6092 1.344 1.346 1.344h11.29c0.4001-0.0087 0.7591-0.1814 0.9863-0.4414s0.3301-0.5854 0.3301-0.9043-0.1028-0.6443-0.3301-0.9043c-0.2274-0.26-0.5862-0.4327-0.9864-0.4414l-0.0059-0.00195zm0 4.514c-0.7372 1.74e-4 -1.346 0.6085-1.346 1.346-0.001571 0.7384 0.6073 1.348 1.346 1.348h6.781c0.4001-0.0087 0.7591-0.1814 0.9863-0.4414s0.3301-0.5854 0.3301-0.9043-0.1028-0.6443-0.3301-0.9043-0.5862-0.4327-0.9863-0.4414h-0.00586zm0 4.514c-0.7372 1.74e-4 -1.346 0.6066-1.346 1.344v2e-3c1.728e-4 0.7377 0.6102 1.346 1.348 1.346h5.646l0.00781-2e-3c0.3969-0.01221 0.7517-0.1862 0.9766-0.4453 0.2248-0.2591 0.3281-0.5813 0.3281-0.8984s-0.1033-0.6413-0.3281-0.9004-0.5797-0.4331-0.9766-0.4453h-0.00781z" fill="url(#a)"/>
 <path transform="translate(.000344 -.00039) scale(1) matrix(.9693 0 0 .9693 .4846 .582)" d="m20.28 4.055c-0.2912 0.0022-0.5614 0.07904-0.7969 0.166-0.308 0.113-0.6718 0.2883-1.088 0.4883l-2.016 0.9668-0.07813 0.03711c-0.305 0.145-0.6309 0.3007-0.8789 0.5547-0.195 0.2-0.3454 0.4402-0.4414 0.7031-0.122 0.333-0.1211 0.6944-0.1211 1.033v0.123c-6.67e-4 0.2186 5.79e-4 0.4239 0.0039 0.6152h-0.0039v4.094c-0.5859-0.386-1.271-0.5908-1.973-0.5898-2.047 0-3.668 1.7-3.668 3.748 0 2.047 1.62 3.746 3.668 3.746 2.048 1e-6 3.668-1.699 3.668-3.746v-4.836c0.377 0.04899 0.7251-0.0424 1.02-0.1523 0.308-0.113 0.6718-0.2883 1.088-0.4883l2.016-0.9668 0.07617-0.03711c0.306-0.145 0.6329-0.3017 0.8809-0.5547a2 2 0 0 0 0.4414-0.7031c0.122-0.332 0.1191-0.6936 0.1191-1.031v-0.125c0-0.462 7.03e-4 -0.866-0.0293-1.19-0.032-0.334-0.1047-0.7137-0.3477-1.049-0.298-0.409-0.7415-0.6914-1.24-0.7812-0.1015-0.01825-0.2018-0.02612-0.2988-0.02539z" fill="url(#b)"/>
</svg>
