<svg version="1.1" viewBox="0 0 22 22" xmlns="http://www.w3.org/2000/svg">
 <defs>
  <linearGradient id="a" y1="1">
   <stop stop-color="#fd3aaf" offset="0"/>
   <stop stop-color="#ff8dd1" offset="1"/>
  </linearGradient>
 </defs>
 <path transform="translate(-0) scale(1) translate(-0) scale(1) translate(-.00048) scale(1) translate(1e-5) scale(1)" d="m11 0c-0.3767 0-0.6944 0.1343-0.9551 0.4043-0.26 0.2693-0.3906 0.5915-0.3906 0.9648v19.28a1.3 1.3 0 0 0 0.3867 0.9512c0.256 0.2587 0.5719 0.3887 0.9492 0.3887s0.6951-0.13 0.9551-0.3887c0.26-0.2593 0.3906-0.5758 0.3906-0.9512v-19.28c0-0.3733-0.1294-0.6955-0.3867-0.9648-0.256-0.27-0.5719-0.4043-0.9492-0.4043z" fill="url(#a)"/>
</svg>
