<svg version="1.1" viewBox="0 0 22 22" xmlns="http://www.w3.org/2000/svg">
 <defs>
  <linearGradient id="b" x1="1" x2="0" y1="1">
   <stop stop-color="#feaa00" offset="0"/>
   <stop stop-color="#fd0575" offset=".5"/>
   <stop stop-color="#7b31fe" offset="1"/>
  </linearGradient>
  <linearGradient id="a" y2="1">
   <stop stop-color="#ffc100" offset="0"/>
   <stop stop-color="#ff0069" offset="1"/>
  </linearGradient>
 </defs>
 <path transform="translate(-.001 -.00079) scale(1) matrix(.9998 0 0 .9998 .00203 .00164)" d="m10.2 1.76v0.00195c-1.089-0.01277-1.548 0.3459-2.146 0.8535l-3.135 2.557h-1.498c-1.748 0-3.049 1.483-3.262 3.002l-0.003906 0.02148c-0.1968 1.578-0.2206 3.942 0.003906 5.557 0.0995 0.8047 0.4099 1.584 0.9941 2.168 0.5868 0.5876 1.437 0.9102 2.268 0.9102h1.498l3.213 2.609c0.5752 0.4836 1.124 0.8132 2.07 0.8008 1.426 0.01877 2.628-1.032 3.027-2.369l0.01172-0.04297c0.2084-0.7772 0.2247-1.42 0.2832-1.904 0.2448-1.955 0.2448-7.887 0-9.844-0.0612-0.5031-0.0891-1.163-0.2812-1.898l-0.01367-0.05273c-0.401-1.337-1.601-2.389-3.029-2.369zm0.04687 2.996v0.00195l2e-3 0.00195v0.00391l0.0039 0.00391v0.00195c-0.02741-0.00376-0.02684-0.01059-0.08203-0.01172a1.502 1.502 0 0 0 0.07617-0.00195zm0.03125 0.06836h2e-3l2e-3 0.00195c0.0069 0.00985 0.02115 0.04307 0.05859 0.1445 0.0796 0.3181 0.1272 0.8584 0.2031 1.478v0.00391c0.08711 0.6969 0.08711 8.399 0 9.098v0.0039c-0.0781 0.6402-0.1043 1.101-0.2012 1.475-0.03342 0.09387-0.06491 0.148-0.08594 0.1777-0.0568-0.0203-0.1677-0.0467-0.1934-0.06445l-0.01961-0.01757-3.644-2.961a1.502 1.502 0 0 0-0.9473-0.3379h-2.031c-0.07932 0-0.1098-0.0038-0.123-0.0098l-0.00391-0.0039c-0.00376-0.0045-0.00729-0.0088-0.01367-0.01563-0.02141-0.02127-0.1038-0.1242-0.1387-0.416l-0.00391-0.02734c-0.1539-1.091-0.1437-3.588 0.00195-4.772 0.05256-0.3732 0.07328-0.4043 0.2812-0.4043h2.031a1.502 1.502 0 0 0 0.9492-0.3359l3.57-2.912 0.02148-0.01758c0.00939-0.00751 0.1894-0.04839 0.2852-0.08594zm-0.01953 12.38c0.01091 0.0041 0.02335 0.0098 0.0293 0.01367l2e-3 2e-3v2e-3h2e-3v0.0039h-2e-3v2e-3a0.1502 0.1502 0 0 1-0.05859 0.0098l0.0039-0.0039c0.0044-0.0057 0.01301-0.01465 0.02344-0.0293zm-0.0293 0.03711h2e-3v2e-3h2e-3v2e-3a1.502 1.502 0 0 0-0.06445-2e-3c0.02535-4.97e-4 0.04384-3.75e-4 0.06055-2e-3z" fill="url(#b)"/>
 <path transform="translate(-.001 -.00079) scale(1) matrix(.9998 0 0 .9998 .00203 .00164)" d="m18.15 7.148a3.851 3.851 0 0 0-3.85 3.852 3.851 3.851 0 0 0 3.85 3.85 3.851 3.851 0 0 0 3.852-3.85 3.851 3.851 0 0 0-3.852-3.852z" fill="url(#a)"/>
</svg>
