<svg version="1.1" viewBox="0 0 22 22" xmlns="http://www.w3.org/2000/svg">
 <path transform="translate(0) scale(1) translate(.000729) scale(1)" d="M1.75 21.994q-.562 0-.951-.39a1.3 1.3 0 0 1-.39-.955q0-.565.39-.951a1.3 1.3 0 0 1 .952-.385h1.084V2.71H1.75q-.564 0-.952-.39a1.3 1.3 0 0 1-.39-.953Q.41.804.8.402 1.187 0 1.75 0h4.82q.564 0 .953.407.388.407.388.97t-.388.948-.952.385H5.516v16.603h1.056q.563 0 .952.39.388.39.388.956t-.388.95-.952.385zm16.837-11L11.142 3.55a1.37 1.37 0 0 1-.406-.973 1.28 1.28 0 0 1 .381-.968q.419-.419 1.008-.418c.589 0 .72.138.983.418l7.813 7.765q.345.34.504.762a2.394 2.394 0 0 1 0 1.72q-.159.413-.504.761l-7.813 7.814a1.3 1.3 0 0 1-.983.403 1.39 1.39 0 0 1-.983-.428 1.45 1.45 0 0 1-.405-.983 1.3 1.3 0 0 1 .405-.982z" fill="#00ff80"/>
</svg>
