<svg version="1.1" viewBox="0 0 22 22" xmlns="http://www.w3.org/2000/svg">
 <path transform="translate(-0) scale(1) translate(-0) scale(1) translate(-0) scale(1)" d="M20.368 10.186a10.16 10.16 0 0 1-1.94 5.937l3.092 3.093c.285.31.477.767.477 1.152s-.192.842-.477 1.152c-.31.285-.767.477-1.152.477s-.842-.192-1.152-.477l-3.093-3.093a10.16 10.16 0 0 1-5.939 1.941c-2.783-.018-5.38-1.163-7.201-2.983S0 12.967 0 10.184s1.163-5.38 2.983-7.201S7.4 0 10.184 0s5.38 1.163 7.201 2.983 2.965 4.42 2.983 7.203M4.711 4.71c-1.423 1.423-2.267 3.307-2.267 5.473s.844 4.05 2.267 5.473 3.307 2.267 5.473 2.267 4.05-.844 5.473-2.267 2.267-3.307 2.267-5.473-.844-4.05-2.267-5.473-3.307-2.267-5.473-2.267-4.05.844-5.473 2.267m9.639 9.952h-2.506c-.17-.018-.402-.102-.51-.21s-.193-.34-.21-.51V12.69c.017-.17.102-.4.21-.51.108-.108.34-.193.51-.211h.532v-3.57h-.532c-.17-.018-.402-.104-.51-.212s-.193-.34-.21-.51V6.426c.017-.17.102-.402.21-.51s.34-.192.51-.21h2.506c.17.018.4.102.509.21s.194.34.212.51v7.518c-.018.17-.104.402-.212.51-.109.108-.34.192-.51.21M8.523 8.4H7.99v3.57h.532c.17.018.402.103.51.212.108.108.193.34.21.51v1.252c-.017.17-.103.402-.21.51-.109.108-.34.192-.51.21H6.017c-.17-.018-.402-.102-.51-.21s-.193-.34-.21-.51V6.425c.017-.17.102-.402.21-.51s.34-.192.51-.21h2.506c.17.018.401.102.51.21.107.108.193.34.21.51v1.253c-.017.17-.102.4-.21.51-.108.107-.34.193-.51.21" fill="#ff0"/>
</svg>
