<svg version="1.1" viewBox="0 0 22 22" xmlns="http://www.w3.org/2000/svg" xmlns:xlink="http://www.w3.org/1999/xlink">
 <defs>
  <linearGradient id="a" x1="4.663" x2="12.69" y1="10.95" y2="18.97" gradientTransform="matrix(0 1.028 -.636 0 29.45 1.394)" gradientUnits="userSpaceOnUse">
   <stop stop-color="#f0f" offset="0"/>
   <stop stop-color="#ff0080" offset="1"/>
  </linearGradient>
  <linearGradient id="b" x1="4.663" x2="12.69" y1="10.95" y2="18.97" gradientTransform="matrix(0 -1.028 .636 0 -7.452 19.23)" gradientUnits="userSpaceOnUse" xlink:href="#a"/>
  <linearGradient id="c" x2="0" y2="1">
   <stop stop-color="#00ff87" offset="0"/>
   <stop stop-color="#60efff" offset="1"/>
  </linearGradient>
 </defs>
 <path transform="translate(.000179 .00127) scale(.9998) translate(.4689 .4689) scale(.9575)" d="m3.986 0.6875a0.55 0.55 0 0 0-0.5488 0.5488v1.65c0 0.304 0.2448 0.5508 0.5488 0.5508h1.65a0.55 0.55 0 0 0 0.5508-0.5508v-1.65a0.55 0.55 0 0 0-0.5508-0.5488h-1.65zm4.125 0a0.55 0.55 0 0 0-0.5488 0.5488v1.65a0.55 0.55 0 0 0 0.5488 0.5508h1.65a0.55 0.55 0 0 0 0.5508-0.5508v-1.65a0.55 0.55 0 0 0-0.5508-0.5488h-1.65zm4.125 0a0.55 0.55 0 0 0-0.5508 0.5488v1.65a0.55 0.55 0 0 0 0.5508 0.5508h1.65a0.55 0.55 0 0 0 0.5488-0.5508v-1.65a0.55 0.55 0 0 0-0.5488-0.5488h-1.65zm4.125 0a0.55 0.55 0 0 0-0.5508 0.5488v1.65c0 0.304 0.2468 0.5508 0.5508 0.5508h1.65a0.55 0.55 0 0 0 0.5488-0.5508v-1.65a0.55 0.55 0 0 0-0.5488-0.5488h-1.65zm-12.37 4.125a0.55 0.55 0 0 0-0.5488 0.5488v1.65c0 0.304 0.2448 0.5508 0.5488 0.5508h1.65a0.55 0.55 0 0 0 0.5508-0.5508v-1.65a0.55 0.55 0 0 0-0.5508-0.5488h-1.65zm12.37 0a0.55 0.55 0 0 0-0.5508 0.5488v1.65a0.55 0.55 0 0 0 0.5508 0.5508h1.65a0.55 0.55 0 0 0 0.5488-0.5508v-1.65a0.55 0.55 0 0 0-0.5488-0.5488h-1.65zm0.1367 6.873-11 0.001953c-0.759 0-1.373 0.614-1.373 1.373v6.875c0 0.759 0.614 1.375 1.373 1.375h11c0.759 0 1.375-0.616 1.375-1.375v-6.875c0-0.76-0.615-1.375-1.375-1.375zm-9.625 2.752h8.25v4.123h-8.25v-4.123z" fill="url(#c)"/>
 <path transform="translate(.000179 .00127) scale(.9998) translate(.4689 .4689) scale(.9575)" d="m22.49 13.5a0.9525 0.9525 0 0 0-0.3048-0.7106l-2.502-2.505 2.502-2.503a0.9525 0.9525 0 0 0-1.345-1.345l-3.176 3.176a0.9525 0.9525 0 0 0 0 1.345l3.176 3.176a0.9525 0.9525 0 0 0 1.65-0.6316z" fill="url(#a)" stroke-width=".8086"/>
 <path transform="translate(.000179 .00127) scale(.9998) translate(.4689 .4689) scale(.9575)" d="m-0.4897 7.125a0.9525 0.9525 0 0 0 0.3048 0.7106l2.502 2.505-2.502 2.503a0.9525 0.9525 0 0 0 1.345 1.345l3.176-3.176a0.9525 0.9525 0 0 0 0-1.345l-3.176-3.176a0.9525 0.9525 0 0 0-1.65 0.6316z" fill="url(#b)" stroke-width=".8086"/>
</svg>
