<svg version="1.1" viewBox="0 0 22 22" xmlns="http://www.w3.org/2000/svg">
 <path transform="translate(0) scale(1) translate(0 .00188) scale(1) translate(0 2e-5) scale(1)" d="m0.5 11a0.5 0.5 0 0 0-0.5 0.5v0.5703a0.5 0.5 0 0 0 0.5 0.5h21a0.5 0.5 0 0 0 0.5-0.5v-0.5703a0.5 0.5 0 0 0-0.5-0.5z" fill="#06f" stroke-width="1.571"/>
 <path transform="translate(0) scale(1) translate(0 .00188) scale(1) translate(0 2e-5) scale(1)" d="m3.174 2.271a0.5 0.5 0 0 0-0.3535 0.1465l-0.4043 0.4043a0.5 0.5 0 0 0 0 0.707l16.05 16.05a0.5 0.5 0 0 0 0.707 0l0.4043-0.4043a0.5 0.5 0 0 0 0-0.707l-16.05-16.05a0.5 0.5 0 0 0-0.3535-0.1465z" fill="#f00" stroke-width="1.571"/>
</svg>
