<svg version="1.1" viewBox="0 0 22 22" xmlns="http://www.w3.org/2000/svg">
 <defs>
  <linearGradient id="a" x1="1" x2="0" y2="1">
   <stop stop-color="#dc18fc" offset="0"/>
   <stop stop-color="#8e1eff" offset="1"/>
  </linearGradient>
 </defs>
 <path transform="translate(0) scale(1) translate(-.00803 5.8e-5) scale(1) translate(.473 .4801) scale(.9564)" d="m17.88-0.502-15.12 0.001953c-1.565 2.1e-4 -2.443 1.905-1.426 3.094a0.5 0.5 0 0 0 0.00195 0l7.205 8.406-7.205 8.406a0.5 0.5 0 0 0-0.00195 0c-1.017 1.189-0.139 3.094 1.426 3.094h15.12c1.78 0 3.25-1.471 3.25-3.25v-2.75c0-1.03-0.8454-1.875-1.875-1.875s-1.875 0.8454-1.875 1.875v2.25h-10.55l5.6-6.531a0.5 0.5 0 0 0 2e-3 0c0.5989-0.6993 0.5989-1.738 0-2.438a0.5 0.5 0 0 0-2e-3 0l-5.598-6.531h10.55v2.248c0 1.03 0.8454 1.877 1.875 1.877s1.875-0.8473 1.875-1.877v-2.75c0-1.78-1.471-3.25-3.25-3.25z" fill="url(#a)"/>
</svg>
