<svg version="1.1" viewBox="0 0 22 22" xmlns="http://www.w3.org/2000/svg">
 <defs>
  <linearGradient id="a" y1="1">
   <stop stop-color="#fe0844" offset="0"/>
   <stop stop-color="#feb302" offset="1"/>
  </linearGradient>
  <linearGradient id="b" x1="1" x2="0" y2="1">
   <stop stop-color="#00f0ff" offset="0"/>
   <stop stop-color="#00c3ff" offset="1"/>
  </linearGradient>
 </defs>
 <path transform="translate(0) scale(1) translate(.000755 -1e-6) scale(1) translate(6.9e-5 .008051) scale(1.374)" d="m5.201 1.998c-1.122 0-1.681 7.5e-4 -2.109 0.2188-0.376 0.192-0.681 0.497-0.873 0.873-0.218 0.43-0.2188 0.9894-0.2188 2.109v5.602c0 1.122 7.5e-4 1.681 0.2188 2.109a2 2 0 0 0 0.873 0.873c0.43 0.218 0.9894 0.2188 2.109 0.2188h5.602c1.122 0 1.681-7.5e-4 2.109-0.2188a2 2 0 0 0 0.873-0.873c0.218-0.43 0.2188-0.9894 0.2188-2.109v-5.602c0-1.122-7.5e-4 -1.681-0.2188-2.109-0.192-0.376-0.497-0.681-0.873-0.873-0.43-0.218-0.9894-0.2188-2.109-0.2188zm-0.001953 1.002h5.602c0.577 0 0.9475-5.625e-4 1.228 0.02344 0.272 0.022 0.3719 0.06094 0.4219 0.08594 0.188 0.096 0.3415 0.2495 0.4375 0.4375 0.025 0.05 0.06394 0.1499 0.08594 0.4219 0.023 0.283 0.02344 0.6545 0.02344 1.228v5.602c0 0.577 5.62e-4 0.9475-0.02344 1.228-0.022 0.272-0.06094 0.3719-0.08594 0.4219a1 1 0 0 1-0.4375 0.4375c-0.05 0.025-0.1499 0.06394-0.4219 0.08594-0.283 0.023-0.6545 0.02344-1.228 0.02344h-5.602c-0.577 0-0.9475 5.62e-4 -1.228-0.02344-0.272-0.022-0.3719-0.06094-0.4219-0.08594a1 1 0 0 1-0.4375-0.4375c-0.025-0.05-0.06394-0.1499-0.08594-0.4219a17 17 0 0 1-0.02344-1.228v-5.602c0-0.577-5.625e-4 -0.9475 0.02344-1.228 0.022-0.272 0.06094-0.3719 0.08594-0.4219 0.096-0.188 0.2495-0.3415 0.4375-0.4375 0.05-0.025 0.1499-0.06394 0.4219-0.08594 0.283-0.024 0.6545-0.02344 1.228-0.02344z" fill="url(#b)"/>
 <path transform="translate(0) scale(1) translate(.000755 -1e-6) scale(1) matrix(1.374 0 0 1.374 6.9e-5 .008051)" d="m6.406-0.005859c-2.24 1e-8 -3.365-4.531e-4 -4.221 0.4356a4.03 4.03 0 0 0-1.75 1.75c-0.436 0.86-0.4356 1.981-0.4356 4.221v3.199c0 2.24-4.531e-4 3.365 0.4356 4.221a4.03 4.03 0 0 0 1.75 1.75c0.86 0.436 1.981 0.4356 4.221 0.4356h3.199c2.24 0 3.365 4.53e-4 4.221-0.4356a4.03 4.03 0 0 0 1.75-1.75c0.436-0.86 0.4356-1.981 0.4356-4.221v-3.199c0-2.24 4.53e-4 -3.365-0.4356-4.221-0.39-0.755-0.997-1.367-1.75-1.75-0.86-0.436-1.981-0.4356-4.221-0.4356zm-0.00586 1.006h3.199c1.14 0 1.931-2.188e-4 2.551 0.05078 0.605 0.05 0.9518 0.1414 1.219 0.2754a3.02 3.02 0 0 1 1.31 1.31c0.134 0.263 0.2254 0.6117 0.2754 1.221 0.05 0.617 0.05274 1.409 0.05274 2.549v3.201c0 1.14-0.0017 1.929-0.05274 2.549-0.05 0.605-0.1414 0.9537-0.2754 1.221a3 3 0 0 1-1.31 1.31c-0.263 0.134-0.6098 0.2254-1.219 0.2754-0.617 0.05-1.411 0.05078-2.551 0.05078h-3.199c-1.14 0-1.931 0.0012-2.551-0.04883-0.605-0.05-0.9518-0.1433-1.219-0.2773a3 3 0 0 1-1.31-1.31c-0.134-0.263-0.2254-0.6107-0.2754-1.221-0.05-0.617-0.05273-1.409-0.05273-2.549v-3.201c0-1.14 0.001734-1.929 0.05273-2.549 0.05-0.605 0.1414-0.9537 0.2754-1.221a3.02 3.02 0 0 1 1.31-1.31c0.263-0.134 0.6098-0.2254 1.219-0.2754 0.617-0.05 1.411-0.05078 2.551-0.05078z" fill="url(#a)"/>
</svg>
