<svg version="1.1" viewBox="0 0 22 22" xmlns="http://www.w3.org/2000/svg">
 <defs>
  <linearGradient id="a" y2="1">
   <stop stop-color="#f0f" offset="0"/>
   <stop stop-color="#ff0080" offset="1"/>
  </linearGradient>
 </defs>
 <path transform="translate(.00092 .001182) scale(1) translate(-2e-5 -2.2e-5) scale(1)" d="m2.238 20.49c0 0.4203 0.1455 0.7743 0.4351 1.064 0.2881 0.2896 0.6408 0.4351 1.06 0.4351h14.49c0.402 0.0065 0.7899-0.1493 1.077-0.4308 0.2992-0.2852 0.4504-0.6371 0.4504-1.057 0.0074-0.4024-0.1572-0.7883-0.4504-1.064-0.2992-0.2896-0.6582-0.4351-1.077-0.4351h-14.49c-0.3974-0.0086-0.7799 0.1462-1.06 0.4287-0.2896 0.2859-0.4351 0.6393-0.4351 1.06z" fill="url(#a)" stroke-width="1.114"/>
 <path transform="translate(.00092 .001182) scale(1) translate(-2e-5 -2.2e-5) scale(1)" d="m4.99 10.87a1.779 1.779 0 0 0 0.4591 1.116l4.155 4.152a1.779 1.779 0 0 0 2.509 0l4.155-4.152a1.779 1.779 0 0 0-1.181-3.084 1.779 1.779 0 0 0-1.329 0.57l-2.899 2.892-2.896-2.892a1.779 1.779 0 0 0-2.974 1.397z" fill="url(#a)" stroke-width="1.114"/>
 <path transform="translate(.00092 .001182) scale(1) translate(-2e-5 -2.2e-5) scale(1)" d="m4.929 1.828a1.779 1.779 0 0 0 0.52 1.255l4.155 4.153a1.779 1.779 0 0 0 2.509 0l4.155-4.153a1.779 1.779 0 0 0-1.181-3.084 1.779 1.779 0 0 0-1.329 0.57l-2.899 2.894-2.896-2.894a1.779 1.779 0 0 0-2.515 0 1.779 1.779 0 0 0-0.52 1.258z" fill="url(#a)" stroke-width="1.114"/>
</svg>
