<svg version="1.1" viewBox="0 0 22 22" xmlns="http://www.w3.org/2000/svg">
 <defs>
  <linearGradient id="a" x2="0" y1="1">
   <stop stop-color="#007bf6" offset="0"/>
   <stop stop-color="#d60cff" offset=".5"/>
   <stop stop-color="#ff167a" offset="1"/>
  </linearGradient>
 </defs>
 <path transform="translate(.00028 -1e-5) scale(1) translate(-1e-4 .00011) scale(.9996)" d="m5.502 0a3.93 3.93 0 0 0-3.93 3.93 3.93 3.93 0 0 0 3.143 3.842v6.465a3.93 3.93 0 0 0-3.143 3.84 3.93 3.93 0 0 0 3.93 3.932 3.93 3.93 0 0 0 3.93-3.932 3.93 3.93 0 0 0-3.144-3.85v-6.455a3.93 3.93 0 0 0 1.379-0.5664l5.564 5.564a3.93 3.93 0 0 0-0.6543 2.164 3.93 3.93 0 0 0 3.93 3.932 3.93 3.93 0 0 0 3.93-3.932 3.93 3.93 0 0 0-3.93-3.93 3.93 3.93 0 0 0-2.164 0.6543l-5.564-5.564a3.93 3.93 0 0 0 0.6543-2.164 3.93 3.93 0 0 0-3.93-3.93z" fill="url(#a)"/>
</svg>
