<svg version="1.1" viewBox="0 0 22 22" xmlns="http://www.w3.org/2000/svg">
 <defs>
  <linearGradient id="b" x1="1" x2="0" y2="1">
   <stop stop-color="#fd5" offset="0"/>
   <stop stop-color="#ff80e5" offset=".5"/>
   <stop stop-color="#0cf" offset="1"/>
  </linearGradient>
  <linearGradient id="a" x1="1" x2="0" y2="1">
   <stop stop-color="#ffe100" offset="0"/>
   <stop stop-color="#f0e" offset="1"/>
  </linearGradient>
 </defs>
 <path transform="translate(.001417 5e-4) scale(1) translate(.001953 .001) scale(1) translate(-.00287)" d="m10.31 0c-0.3794 0-0.6875 0.3081-0.6875 0.6875v1.375a0.6873 0.6873 0 0 0 0.6875 0.6855h1.375c0.3794 0 0.6875-0.3059 0.6875-0.6855v-1.375c0-0.3794-0.3081-0.6875-0.6875-0.6875zm-6.113 2.533a0.6873 0.6873 0 0 0-0.4863 0.2012l-0.9727 0.9727a0.6873 0.6873 0 0 0 0 0.9727l0.9727 0.9707a0.6873 0.6873 0 0 0 0.9727 0l0.9707-0.9707a0.6873 0.6873 0 0 0 0-0.9727l-0.9707-0.9727a0.6873 0.6873 0 0 0-0.4863-0.2012zm13.6 0.00195a0.6873 0.6873 0 0 0-0.4844 0.2012l-0.9746 0.9707a0.6873 0.6873 0 0 0 0 0.9727l0.9746 0.9707a0.6873 0.6873 0 0 0 0.9727 0l0.9707-0.9707a0.6873 0.6873 0 0 0 0-0.9727l-0.9707-0.9707a0.6873 0.6873 0 0 0-0.4863-0.2012zm-17.11 7.082c-0.3794 0-0.6875 0.3081-0.6875 0.6875v1.375a0.6873 0.6873 0 0 0 0.6875 0.6855h1.375c0.3794 0 0.6875-0.3059 0.6875-0.6855v-1.375c0-0.3794-0.3081-0.6875-0.6875-0.6875zm19.25 0c-0.3794 0-0.6875 0.3081-0.6875 0.6875v1.375a0.6873 0.6873 0 0 0 0.6875 0.6855h1.375c0.3794 0 0.6875-0.3059 0.6875-0.6855v-1.375c0-0.3794-0.3081-0.6875-0.6875-0.6875zm-15.74 6.523a0.6873 0.6873 0 0 0-0.4863 0.2012l-0.9727 0.9707a0.6873 0.6873 0 0 0 0 0.9727l0.9727 0.9727a0.6873 0.6873 0 0 0 0.9727 0l0.9707-0.9727a0.6873 0.6873 0 0 0 0-0.9727l-0.9707-0.9707a0.6873 0.6873 0 0 0-0.4863-0.2012zm13.6 0a0.6873 0.6873 0 0 0-0.4844 0.2012l-0.9746 0.9707a0.6873 0.6873 0 0 0 0 0.9727l0.9746 0.9727a0.6873 0.6873 0 0 0 0.9727 0l0.9707-0.9727a0.6873 0.6873 0 0 0 0-0.9727l-0.9707-0.9707a0.6873 0.6873 0 0 0-0.4863-0.2012zm-7.488 3.107c-0.3794 0-0.6875 0.3081-0.6875 0.6875v1.375a0.6873 0.6873 0 0 0 0.6875 0.6875h1.375c0.3794 0 0.6875-0.3081 0.6875-0.6875v-1.375c0-0.3794-0.3081-0.6875-0.6875-0.6875z" fill="url(#b)"/>
 <path transform="translate(.001417 5e-4) scale(1) translate(.001953 .001) scale(1) translate(-.00287)" d="m11 4.123a6.875 6.875 0 0 0 0 13.75 6.875 6.875 0 0 0 0-13.75zm-0.6152 2.799c0.3422-0.01583 0.6152 0.283 0.6152 0.6387v6.873c0 0.3794-0.3097 0.6935-0.6836 0.6309a4.124 4.124 0 0 1-3.441-4.068 4.124 4.124 0 0 1 3.44-4.066h2e-3c0.02337-0.00392 0.04555-0.00676 0.06836-0.00781z" fill="url(#a)"/>
</svg>
