<svg version="1.1" viewBox="0 0 22 22" xmlns="http://www.w3.org/2000/svg">
 <defs>
  <linearGradient id="a" y2="1">
   <stop stop-color="#a8ff78" offset="0"/>
   <stop stop-color="#78ffd6" offset="1"/>
  </linearGradient>
 </defs>
 <path transform="translate(-0) scale(1) translate(-.000171 -.000121) scale(.9999) translate(-.000278 2.2e-5) scale(1) translate(-1.22 -1.222) scale(1.111)" d="M1.807 1.1a.706.706 0 0 0-.707.707v18.39c0 .392.315.707.707.707s.707-.315.707-.707V2.517h17.68c.392 0 .707-.315.707-.707s-.315-.707-.707-.707zm15.57 2.831c-.799-.007-1.9.032-3.108.213-2.415.362-5.421 1.28-7.367 3.8-3.599 4.664-3.328 10.68-3.328 10.68a1.415 1.415 0 1 0 2.829-.09s-.08-5.215 2.735-8.861c1.261-1.634 3.51-2.426 5.549-2.732s3.704-.141 3.704-.141a1.414 1.414 0 1 0 .282-2.812s-.497-.051-1.296-.058z" fill="url(#a)"/>
</svg>
