<svg version="1.1" viewBox="0 0 22 22" xmlns="http://www.w3.org/2000/svg">
 <defs>
  <linearGradient id="b" x1="7.348" x2="665.2" y1="742.9" y2="603" gradientTransform="translate(0 -.018)scale(.02148)" gradientUnits="userSpaceOnUse">
   <stop stop-color="#0061ff" offset="0"/>
   <stop stop-color="#60efff" offset="1"/>
  </linearGradient>
  <linearGradient id="d" x1="963.2" x2="412.8" y1="864.9" y2="479.5" gradientTransform="translate(0 -.018)scale(.02148)" gradientUnits="userSpaceOnUse">
   <stop stop-color="#02aa93" offset="0"/>
   <stop stop-color="#33d38a" offset=".5"/>
   <stop stop-color="#67ff80" offset="1"/>
  </linearGradient>
  <linearGradient id="a" x1="523.5" x2="603.5" y1="19.65" y2="479.7" gradientTransform="translate(0 -.018)scale(.02148)" gradientUnits="userSpaceOnUse">
   <stop stop-color="#ff4000" offset="0"/>
   <stop stop-color="#ffa200" offset="1"/>
  </linearGradient>
 </defs>
 <g transform="translate(0) scale(1) translate(0 -5e-5) scale(1)" stroke-width=".021">
  <path transform="translate(0 .002)scale(.9999)" d="M3.836 8.041c-.002-.198-.005-.41.001-.607A7.24 7.24 0 0 1 6.13 2.35 7.13 7.13 0 0 1 11.247.403a7.26 7.26 0 0 1 5.01 2.33 7.23 7.23 0 0 1 1.906 5.305c-.03.27-.042.52-.087.791-.108.662-.318 1.253-.59 1.86-.07.146-.162.29-.241.432-.63 1.136-1.66 2.172-2.81 2.784.011.268.02.537.01.8-.048 1.29-.52 2.54-1.242 3.6-.06.089-.141.205-.191.3-.36.51-.957 1.075-1.455 1.452-.185.14-.385.264-.565.4l-.032.019c-.292.17-.571.331-.88.471a7.1 7.1 0 0 1-4.76.421A7.15 7.15 0 0 1 .374 16.71a6.6 6.6 0 0 1-.273-1.064c-.014-.086-.063-.481-.086-.52L0 15.125v-1.493c.043-.008.062-.235.069-.28.055-.392.138-.77.261-1.147A7.15 7.15 0 0 1 3.836 8.04m7.154.31c.28-.135.5-.276.807-.413a8 8 0 0 1 2.912-.681c.29-.012.56 0 .847.01-.088-1.745-1.32-3.354-2.949-3.965a4.6 4.6 0 0 0-1.766-.295c-2.268.074-4.28 2.01-4.375 4.298.438-.019.78-.036 1.224-.01a7.15 7.15 0 0 1 3.3 1.057zm-2.022 10.21a8 8 0 0 1-.627-.991 7.3 7.3 0 0 1-.778-3.343c0-.118.009-.236.01-.354-1.415-.73-2.355-1.767-3.079-3.166a4.55 4.55 0 0 0-1.824 2.952c-.204 1.255.091 2.437.833 3.462a4.48 4.48 0 0 0 2.935 1.786c.899.142 1.701.004 2.53-.345zm1.783-6.356c.14.005.259.01.399-.005-.032-.099-.111-.265-.156-.366a3 3 0 0 0-.243.371M7.114 9.948c.31.495.734.92 1.194 1.276.205-.383.336-.61.596-.958-.5-.165-1.26-.381-1.79-.318zm5.853.339c.09.084.658.866.721.983.442-.314.973-.9 1.234-1.377-.71.038-1.29.098-1.955.393zm-1.113 4.459c-.439.053-1.242.081-1.681.007.055.81.37 1.524.773 2.213a3 3 0 0 0 .232-.334 4.9 4.9 0 0 0 .676-1.887z" fill="url(#a)"/>
  <path transform="translate(0 .002)scale(.9999)" d="M7.691 7.294c-.444-.026-.786-.009-1.224.01-.066.89.159 1.894.647 2.646.53-.064 1.291.152 1.79.318a5 5 0 0 1 .4-.5c.513-.59 1.032-.997 1.686-1.417a7.14 7.14 0 0 0-3.3-1.057zm-3.855.747A7.16 7.16 0 0 0 .33 12.206a6.7 6.7 0 0 0-.261 1.148c-.007.044-.026.271-.069.279v1.494l.016-.002c.023.04.072.434.086.52q.092.544.273 1.064a7.15 7.15 0 0 0 4.944 4.66 7.1 7.1 0 0 0 4.761-.422 10 10 0 0 0 .912-.49c.18-.136.38-.26.565-.4.498-.377 1.095-.942 1.455-1.452.05-.095.13-.211.19-.3.723-1.06 1.194-2.31 1.242-3.6.01-.263.002-.532-.01-.8-.952.493-1.523.665-2.58.842a4.9 4.9 0 0 1-.677 1.887c-.06.097-.158.252-.232.334-.571.704-1.148 1.205-1.977 1.595-.829.35-1.632.487-2.53.345a4.47 4.47 0 0 1-2.935-1.785c-.742-1.026-1.037-2.207-.833-3.462a4.55 4.55 0 0 1 1.824-2.953C4.1 9.884 3.892 8.95 3.836 8.04zm9.13 2.247a4.7 4.7 0 0 0-1.972 1.548c.045.1.124.267.156.365 1.026-.086 1.699-.362 2.538-.93-.063-.116-.632-.899-.721-.983z" fill="url(#b)"/>
  <path transform="translate(0 .002)scale(.9999)" d="M14.71 7.257a8 8 0 0 0-2.912.681c-.306.137-.527.279-.806.414-.655.42-1.174.826-1.686 1.417a5 5 0 0 0-.4.5c-.26.348-.39.574-.596.957-.458.958-.638 1.595-.735 2.648 0 .118-.009.236-.01.354a7.3 7.3 0 0 0 .778 3.343c.166.327.413.697.627.992.829-.39 1.406-.891 1.977-1.595-.403-.689-.717-1.402-.772-2.213a3.3 3.3 0 0 1-.013-.561 4.2 4.2 0 0 1 .591-1.987 3 3 0 0 1 .243-.371 4.7 4.7 0 0 1 1.972-1.548c.665-.296 1.245-.356 1.955-.394.475-.843.686-1.657.635-2.628-.288-.009-.557-.02-.848-.01zm3.454.781c-.03.27-.042.52-.086.791-.109.662-.318 1.253-.59 1.86.221.168.47.358.661.56a4.4 4.4 0 0 1 1.2 2.502c.158 1.294-.154 2.435-.937 3.468a4.45 4.45 0 0 1-2.908 1.7 4.7 4.7 0 0 1-2.426-.315c-.022-.009-.044-.005-.065 0-.36.511-.956 1.076-1.455 1.453-.185.14-.384.263-.565.4.148.117.466.273.64.36a7.1 7.1 0 0 0 5.43.427 7.27 7.27 0 0 0 4.336-3.949 7 7 0 0 0 .53-1.848c.013-.084.039-.393.073-.448v-1.193c-.034-.068-.064-.41-.08-.514-.295-2.019-1.545-3.856-3.25-4.959a5 5 0 0 0-.509-.296z" fill="url(#d)"/>
 </g>
</svg>
