<svg version="1.1" viewBox="0 0 22 22" xmlns="http://www.w3.org/2000/svg">
 <defs>
  <style>.ColorScheme-Text { color:#444444; } .ColorScheme-Highlight { color:#4285f4; } .ColorScheme-NeutralText { color:#ff9800; } .ColorScheme-PositiveText { color:#4caf50; } .ColorScheme-NegativeText { color:#f44336; }</style>
  <linearGradient id="a" y1="1">
   <stop stop-color="#007bf6" offset="0"/>
   <stop stop-color="#d60cff" offset=".5"/>
   <stop stop-color="#ff167a" offset="1"/>
  </linearGradient>
 </defs>
 <path transform="translate(0) scale(1) translate(0) scale(1) translate(0) scale(1) translate(0) scale(1) translate(0) scale(1) translate(0) scale(1.375)" d="m8 0c-4.414 0-8 3.586-8 8s3.586 8 8 8 8-3.586 8-8-3.586-8-8-8zm0 2c3.311 0 6 2.689 6 6 2e-6 3.311-2.689 6-6 6-3.311 1e-6 -6-2.689-6-6s2.689-6 6-6zm2.049 2.002a1 1 0 0 0-0.1348 0.00195 1 1 0 0 0-0.7461 0.4414l-2 3a1 1 0 0 0-0.1621 0.6504l-2.797 1.998a0.5 0.5 0 0 0-0.1152 0.6973 0.5 0.5 0 0 0 0.6973 0.1152l2.799-2a1 1 0 0 0 1.242-0.3516l2-3a1 1 0 0 0-0.2773-1.387 1 1 0 0 0-0.5059-0.166z" fill="url(#a)"/>
</svg>
