<svg version="1.1" viewBox="0 0 22 22" xmlns="http://www.w3.org/2000/svg">
 <path transform="translate(0) scale(1) translate(.00093 -.000172) scale(.3437) translate(-3.311 -3.31) scale(2.207)" d="m10.8 1.5c-2.466 0-4.832 0.981-6.576 2.725s-2.725 4.11-2.725 6.576v10.4c0 2.466 0.9809 4.832 2.725 6.576s4.11 2.725 6.576 2.725h10.4c2.466 0 4.832-0.9809 6.576-2.725 1.744-1.744 2.725-4.11 2.725-6.576v-10.4c0-2.466-0.9809-4.832-2.725-6.576-1.744-1.744-4.11-2.725-6.576-2.725zm0 3h10.4c1.671 0 3.273 0.6639 4.455 1.846 1.182 1.182 1.846 2.784 1.846 4.455v10.4c0 1.671-0.6638 3.273-1.846 4.455-1.182 1.182-2.784 1.846-4.455 1.846h-10.4c-1.671 0-3.273-0.6638-4.455-1.846-1.182-1.182-1.846-2.784-1.846-4.455v-10.4c0-1.671 0.6638-3.273 1.846-4.455 1.182-1.182 2.784-1.846 4.455-1.846z" fill="#0f0" stroke-width=".453"/>
 <path transform="translate(0) scale(1) translate(.00093 -.000172) scale(.3437)" d="m43.18 19.65a2.105 2.105 0 0 0-1.532 0.613l-0.9681 0.9568 0.01876 0.01876-8.694 8.564a1.542 1.542 0 0 0 0 2.201l4.631 4.564a1.602 1.602 0 0 0 2.239 0l8.724-8.585v0.0038l5.741-5.494c1.01-0.9645 0.3318-2.652-1.073-2.675zm-20.82 9.666-0.0038 0.0037-9.086 0.157c-1.407 0.02488-2.08 1.702-1.069 2.668l5.741 5.498 8.721 8.585a1.602 1.602 0 0 0 2.239 0l4.631-4.568a1.537 1.537 0 0 0 0-2.201l-8.69-8.56 0.01875-0.01876-0.9681-0.9568a2.105 2.105 0 0 0-1.532-0.6093z" fill="#0f0" stroke-width=".9998"/>
</svg>
