<svg version="1.1" viewBox="0 0 22 22" xmlns="http://www.w3.org/2000/svg">
 <g transform="translate(-0) scale(1) translate(9e-6 .000509) scale(1)" stroke-width="1.375">
  <path d="M2.75.691A2.743 2.743 0 0 0 0 3.441v13.747a2.743 2.743 0 0 0 2.75 2.75h5.643a4 4 0 0 1-.145-1.037v-.339H2.75a1.37 1.37 0 0 1-1.374-1.374V6.19c0-.762.613-1.375 1.374-1.375h15.117c.762 0 1.375.613 1.375 1.375v2.75h1.375v-5.5a2.743 2.743 0 0 0-2.75-2.75z" fill="#00f"/>
  <path d="M12.378 10.312a2.743 2.743 0 0 0-2.75 2.75v5.498a2.743 2.743 0 0 0 2.75 2.75h6.873a2.743 2.743 0 0 0 2.75-2.75v-5.499a2.743 2.743 0 0 0-2.75-2.75zm0 2.75h6.873c.762 0 1.375.612 1.375 1.374v4.124c0 .762-.613 1.375-1.375 1.375h-6.873a1.37 1.37 0 0 1-1.375-1.375v-4.124c0-.762.613-1.375 1.375-1.375" fill="#0cf"/>
 </g>
</svg>
