<svg version="1.1" viewBox="0 0 22 22" xmlns="http://www.w3.org/2000/svg">
 <defs>
  <linearGradient id="a" x1="1" x2="0" y2="1">
   <stop stop-color="#ff0073" offset="0"/>
   <stop stop-color="#5a00ff" offset="1"/>
  </linearGradient>
 </defs>
 <path transform="translate(0) scale(1) translate(2e-5) scale(1) translate(6e-4) scale(.9999) translate(2.204) scale(1.1)" d="M6.5 0a2.5 2.5 0 0 0-1.428 4.553 8 8 0 0 0-1.127.549 1.5 1.5 0 1 0-2.078 1.76 8 8 0 1 0 12.26 0 1.5 1.5 0 1 0-2.076-1.76 8 8 0 0 0-1.127-.549A2.5 2.5 0 0 0 9.496 0zm0 2h3a.5.5 0 0 1 0 1h-3a.5.5 0 0 1 0-1M8 6a6 6 0 0 1 0 12A6 6 0 0 1 8 6" fill="url(#a)"/>
 <path transform="translate(0) scale(1) translate(2e-5) scale(1) translate(6e-4) scale(.9999) translate(.004) scale(.9999)" d="M11.49 7.501a.527.527 0 0 0-.488.523v2.977c0 .292.23.51.492.555a1.57 1.57 0 0 1 1.281 1.283c.046.263.265.493.557.493h2.977a.523.523 0 0 0 .521-.545 5.613 5.613 0 0 0-5.285-5.285h-.052z" fill="url(#a)"/>
</svg>
