<svg version="1.1" viewBox="0 0 22 22" xmlns="http://www.w3.org/2000/svg">
 <defs>
  <linearGradient id="a" y2="1">
   <stop stop-color="#221dff" offset="0"/>
   <stop stop-color="#8733ff" offset=".25"/>
   <stop stop-color="#ff31fa" offset=".5"/>
   <stop stop-color="#ff793e" offset=".75"/>
   <stop stop-color="#ffde3e" offset="1"/>
  </linearGradient>
 </defs>
 <path transform="translate(-.000134 -8e-5) scale(1) translate(.4783 .4784) scale(.9566)" d="m8.713 0.5996a0.5 0.5 0 0 0-0.00586 0.003906c-2.55 0.002017-4.764 0.9112-6.533 2.691-1.769 1.782-2.674 3.988-2.674 6.52v9.5c0 0.5541 0.2105 1.077 0.5957 1.465 0.3856 0.3891 0.9088 0.6025 1.463 0.6035a0.5 0.5 0 0 0 0.00195 0h0.001956c0.5553-4.19e-4 1.078-0.2141 1.467-0.6016 0.3886-0.3876 0.6055-0.912 0.6055-1.467v-9.5c0-1.414 0.4767-2.568 1.473-3.566 0.9953-0.9971 2.16-1.477 3.598-1.477 1.414 0 2.571 0.4782 3.57 1.477 0.9994 0.9984 1.477 2.153 1.477 3.566v4.535l-1.084-1.082a0.5 0.5 0 0 0-0.01172-0.01172c-0.4072-0.3799-0.9145-0.6008-1.441-0.5859-0.5194 0.01477-1.008 0.2487-1.391 0.6309-0.4068 0.4072-0.6465 0.9264-0.6465 1.473 0 0.5372 0.2239 1.048 0.6133 1.438a0.5 0.5 0 0 0 0.00195 2e-3l4.56 4.525 0.01367 0.01367c0.1799 0.2003 0.4021 0.3583 0.6504 0.4688 0.2541 0.113 0.5243 0.1777 0.7988 0.1777 0.2889 0 0.5717-0.06279 0.8281-0.1816 0.2444-0.1133 0.4686-0.2698 0.6641-0.4648l2e-3 -2e-3 4.572-4.537a0.5 0.5 0 0 0 2e-3 -2e-3c0.3916-0.3916 0.6133-0.9094 0.6133-1.455 0-0.5452-0.2217-1.063-0.6133-1.455a0.5 0.5 0 0 0-0.01172-0.01367c-0.4091-0.3817-0.9234-0.6016-1.461-0.6016-0.5377 0-1.048 0.2245-1.438 0.6133l-1.049 1.049v-4.535c0-2.531-0.9125-4.741-2.693-6.522-1.782-1.779-3.987-2.691-6.52-2.691z" fill="url(#a)"/>
</svg>
