<svg version="1.1" viewBox="0 0 22 22" xmlns="http://www.w3.org/2000/svg">
 <defs>
  <linearGradient id="a" y1="1">
   <stop stop-color="#dc18fc" offset="0"/>
   <stop stop-color="#614eff" offset="1"/>
  </linearGradient>
 </defs>
 <path transform="translate(1e-6 -1e-5) scale(1) translate(-.000359 -.00066) scale(1) translate(.766 .383) scale(.9655)" d="M13.07 5.744c-.874 0-1.576.708-1.576 1.576v7.352a1.573 1.573 0 0 0 1.574 1.576h7.348a1.58 1.58 0 0 0 1.574-1.576V7.32c0-.868-.706-1.576-1.574-1.576z" fill="url(#a)"/>
 <path transform="translate(1e-6 -1e-5) scale(1) translate(-.000359 -.00066) scale(1) translate(.766 .383) scale(.9655)" d="M2.832 2.33c-.827 0-1.578.656-1.578 1.52v.123c0 .864.751 1.52 1.578 1.52h5.777c.827 0 1.58-.653 1.58-1.52V3.85c0-.867-.753-1.52-1.58-1.52zM1.756 7.051l-.025.004c-.876.06-1.475.857-1.475 1.578 0 .72.598 1.52 1.475 1.58h4.832c.876-.06 1.473-.86 1.473-1.58s-.597-1.518-1.473-1.578l-.028-.004zM.707 11.778l-.027.004c-.876.06-1.473.857-1.473 1.578 0 .72.596 1.518 1.473 1.578l.027.002h6.848a1.59 1.59 0 0 0 1.582-1.584 1.6 1.6 0 0 0-1.582-1.578zm4.201 4.721-.027.004c-.876.06-1.477.857-1.477 1.578 0 .72.6 1.52 1.477 1.58h3.78c.877-.06 1.474-.86 1.474-1.58s-.597-1.518-1.473-1.578l-.03-.004z" fill="url(#a)"/>
</svg>
