<svg version="1.1" viewBox="0 0 22 22" xmlns="http://www.w3.org/2000/svg">
 <path transform="translate(0) scale(1) translate(0) scale(1) translate(1e-6) scale(1) translate(-.00456 -2e-5) scale(1) translate(-.001941 -.00023) scale(1)" d="m14.84 12.88c-0.3693-0.01452-0.5643 0.4322-0.3027 0.6934l2.225 2.225 1.316 1.312c0.4489 0.4487 1.037 0.6738 1.625 0.6738l-2e-3 -2e-3c0.5871 3.7e-5 1.175-0.223 1.625-0.6719 0.8978-0.8978 0.8978-2.349 0-3.246l-0.6465-0.6445c-0.07222-0.07223-0.1694-0.1151-0.2715-0.1191z" fill="#FC0FC0" opacity=".5"/>
 <path transform="translate(0) scale(1) translate(0) scale(1) translate(1e-6) scale(1) translate(-.00456 -2e-5) scale(1) translate(-.001941 -.00023) scale(1)" d="m11.17 4.209c-0.2652 0-0.5265 0.05264-0.7715 0.1543-0.2446 0.1014-0.4688 0.2496-0.6562 0.4375l-9.062 9.062c-0.2137 0.2132-0.3845 0.4678-0.5 0.7461-0.1154 0.2785-0.1738 0.5754-0.1738 0.877s0.05836 0.6023 0.1738 0.8809c0.1149 0.2771 0.2843 0.53 0.4961 0.7422 0.444 0.451 1.03 0.6743 1.619 0.6758l0.00195-2e-3c0.5878 0.0016 1.174-0.2188 1.617-0.6621l5.814-5.816c0.7922-0.7923 2.076-0.7917 2.869 0l0.6484 0.6484c0.07221 0.07216 0.1695 0.1151 0.2715 0.1191l5.57 0.2188c0.3692 0.01451 0.566-0.4302 0.3047-0.6914l-6.797-6.799c-0.1874-0.1877-0.4112-0.3359-0.6562-0.4375-0.2449-0.1016-0.5046-0.1543-0.7695-0.1543z" fill="#FC0FC0"/>
</svg>
