<svg version="1.1" viewBox="0 0 22 22" xmlns="http://www.w3.org/2000/svg">
 <defs>
  <linearGradient id="a" y1="1">
   <stop stop-color="#addcff" offset="0"/>
   <stop stop-color="#eaf6ff" offset=".5028"/>
   <stop stop-color="#eaf6ff" offset="1"/>
  </linearGradient>
 </defs>
 <path transform="translate(-.00421 -.00074) scale(1) translate(.00084 .00074) scale(1)" d="m16.9 0a5 5 0 0 0-0.3828 0.02344 2.84 2.84 0 0 0-1.859 0.957l-1.826 2.113-0.05664-0.05078a1.3 1.3 0 0 0-0.8535-0.3184h-0.01367l-0.07031 0.00391h-0.0098a1.3 1.3 0 0 0-0.8926 0.4434l-0.2695 0.3144a1.3 1.3 0 0 0-0.3184 0.8477v0.01562l0.0039 0.07031v0.00977c0.02 0.348 0.1863 0.6655 0.4453 0.8945l0.418 0.3594-3.115 3.604h-0.00195v0.00195h-0.00195v0.0039a0.57 0.57 0 0 0-0.1348 0.3828c5e-3 0.205 0.09991 0.3925 0.2539 0.5215 0.13 0.11 0.2889 0.1766 0.4629 0.1816a0.6 0.6 0 0 0 0.4492-0.1914s0.00195-2e-3 0.00195-2e-3v-2e-3s0.00195-2e-3 0.00195-2e-3v-4e-3l3.121-3.596 2.082 1.809-4.369 5.047-0.2168 0.25-3.354-0.3496 0.6289-0.7227a0.682 0.682 0 0 0-1.031-0.8906l-1.176 1.356-0.4492 0.5137-1.822 2.106a1.005 1.005 0 0 0 0.09961 1.4h0.00391l0.2891 0.25-0.09375 0.1094a1.3 1.3 0 0 0-0.3203 0.8516v0.01563l0.00586 0.06445v0.0098c0.024 0.35 0.1833 0.6686 0.4473 0.8926l0.05078 0.04297c-0.6933 0.7387-0.9987 1.32-0.9141 1.742 0.127 0.635 0.4119 0.9199 0.9199 0.9199s0.8249-0.4439 0.9199-0.9199c0.06188-0.3101-0.2302-0.8759-0.877-1.695 0.24 0.21 0.5376 0.3203 0.8516 0.3203h0.0957c0.344-0.025 0.6686-0.1902 0.8926-0.4492l0.08984-0.1113 0.293 0.2559a1.005 1.005 0 0 0 1.4-0.09961v-0.0059l3.613-4.176h0.0059l0.6484-0.75 0.0293-0.03125 4.375-5.055 0.2637 0.2305c0.234 0.204 0.5317 0.3203 0.8457 0.3203h0.01563l0.07031-0.00586h0.0098c0.344-0.025 0.6686-0.1852 0.8926-0.4492l0.2695-0.3086c0.203-0.234 0.3184-0.5387 0.3184-0.8477v-0.08984h-2e-3v-0.00195l-2e-3 -0.00195v-0.0039h-2e-3v-0.00195a1.29 1.29 0 0 0-0.4414-0.8926l-0.2168-0.1856 1.83-2.111 4e-3 -0.0039c7.81e-4 -0.00125 0.0033-0.00461 0.0039-0.00586l4e-3 -0.0039c0.2147-0.2613 0.3757-0.553 0.4863-0.873 0.115-0.314 0.1816-0.6426 0.1856-0.9766v-0.1152c-0.01-0.239-0.0418-0.4837-0.0918-0.7227a3 3 0 0 0-0.1838-0.5977c-0.08-0.19-0.1798-0.374-0.2988-0.543a2.5 2.5 0 0 0-0.3926-0.4394 2.5 2.5 0 0 0-0.4688-0.3125 2.5 2.5 0 0 0-0.5391-0.2148 3 3 0 0 0-0.6465-0.1152 5 5 0 0 0-0.3848-0.007812zm0.01953 1.498a3 3 0 0 1 0.2617 0.00977c0.1187 6e-3 0.2338 0.02402 0.3438 0.05469a1.5 1.5 0 0 1 0.25 0.09961 1 1 0 0 1 0.332 0.2949 1.3 1.3 0 0 1 0.1406 0.2539 2 2 0 0 1 0.09961 0.3242 3 3 0 0 1 0.06055 0.4863v0.03516c-6e-3 0.169-0.03656 0.3343-0.1016 0.4883-0.05 0.1547-0.1246 0.2953-0.2246 0.4199l-1.822 2.106-0.9824-0.8496a0.685 0.685 0 0 0-0.8965 1.031l2.281 1.975-0.1894 0.2129-4.738-4.102 0.1894-0.2129 1.281 1.109a0.7 0.7 0 0 0 0.4473 0.166 0.69 0.69 0 0 0 0.5195-0.2344 0.7 0.7 0 0 0 0.1641-0.4492c0-0.199-0.08438-0.3876-0.2344-0.5176l-0.1426-0.123 1.826-2.109a1.33 1.33 0 0 1 0.873-0.4551 3 3 0 0 1 0.2617-0.01367zm-11.62 13.11 3.352 0.3438-2.75 3.172-0.2891-0.25a0.992 0.992 0 0 0-1.4 0.09961l-0.293 0.3438-0.00586-0.0039 0.293-0.3438a0.992 0.992 0 0 0-0.09961-1.4l-0.2871-0.25z" fill="url(#a)"/>
</svg>
