<svg version="1.1" viewBox="0 0 22 22" xmlns="http://www.w3.org/2000/svg">
 <defs>
  <linearGradient id="a" x2="0" y2="1">
   <stop stop-color="#4d4d4d" offset="0"/>
   <stop stop-color="#979797" offset="1"/>
  </linearGradient>
 </defs>
 <path transform="translate(-.004331 .000625) scale(1) translate(-.00104 -.000482) scale(1)" d="m16.9 0.001953a5 5 0 0 0-0.3828 0.02148 2.84 2.84 0 0 0-1.859 0.957l-1.824 2.113-0.05664-0.05078a1.3 1.3 0 0 0-0.8535-0.3184h-0.01563l-0.07031 0.00391h-0.0098a1.3 1.3 0 0 0-0.8906 0.4434l-0.2695 0.3144c-0.204 0.235-0.3203 0.5387-0.3203 0.8477v0.01367l0.0078 0.07031v0.00977c0.02 0.349 0.1824 0.6675 0.4414 0.8965l0.418 0.3594-3.111 3.604h-0.005846v0.00195h-0.00195v0.00195a0.57 0.57 0 0 0-0.1348 0.3848c5e-3 0.205 0.09991 0.3934 0.2539 0.5234 0.13 0.11 0.2898 0.1727 0.4648 0.1777a0.6 0.6 0 0 0 0.4473-0.1894h0.001953v-2e-3l0.00195-2e-3v-2e-3l0.00195-2e-3v-2e-3l3.121-3.597 2.08 1.81-4.369 5.047-0.2148 0.25-3.352-0.3496 0.627-0.7227a0.683 0.683 0 0 0-1.031-0.8926l-1.178 1.357-0.4473 0.5117-1.824 2.107a1 1 0 0 0-0.2402 0.6465c0 0.29 0.1248 0.5649 0.3398 0.7539h0.00391l0.2891 0.248-0.09375 0.1094c-0.205 0.234-0.3184 0.5405-0.3184 0.8535v0.01367l0.00391 0.06445v0.01172c0.025 0.349 0.1842 0.6666 0.4492 0.8906l0.04883 0.04492c-0.6933 0.738-0.9981 1.318-0.9141 1.74 0.127 0.634 0.4119 0.9199 0.9199 0.9199s0.8269-0.4449 0.9219-0.9199c0.06133-0.3107-0.2316-0.876-0.8789-1.695 0.24 0.209 0.5395 0.3184 0.8535 0.3184h0.09375c0.344-0.025 0.6686-0.1883 0.8926-0.4473l0.08984-0.1094 0.293 0.2539a1.003 1.003 0 0 0 1.4-0.09961v-0.0059l3.615-4.176h0.0039l0.6484-0.75 0.0293-0.0332 4.375-5.051 0.2637 0.2285c0.234 0.204 0.5337 0.3184 0.8477 0.3184h0.01563l0.06836-0.00391h0.0098c0.344-0.02395 0.6675-0.1852 0.8925-0.4492l0.2695-0.3086c0.203-0.235 0.3184-0.5387 0.3184-0.8477v-0.08984l-0.003906-0.003906v-0.00586a1.29 1.29 0 0 0-0.4434-0.8906l-0.2148-0.1875 1.826-2.109 0.0059-0.00391 0.0059-0.01172h2e-3c0.2153-0.2613 0.3763-0.553 0.4863-0.873 0.115-0.314 0.1806-0.6406 0.1856-0.9746v-0.1152c-0.01-0.24-0.03984-0.4837-0.08984-0.7227a3 3 0 0 0-0.1837-0.5996c-0.08-0.1907-0.1808-0.3716-0.3008-0.543a2.5 2.5 0 0 0-0.3926-0.4394c-0.144-0.119-0.2998-0.2275-0.4688-0.3125a2.5 2.5 0 0 0-0.5371-0.2129c-0.209-0.06-0.4294-0.1012-0.6484-0.1172v0.001953a5 5 0 0 0-0.3848-0.005859zm0.01953 1.496c0.08667-0.00133 0.1744 0.00177 0.2617 0.00977 0.12 6e-3 0.2344 0.02402 0.3438 0.05469 0.086 0.026 0.1693 0.05894 0.25 0.09961a1 1 0 0 1 0.1777 0.125c0.06 0.05133 0.1122 0.1073 0.1562 0.168 0.055 0.08 0.1037 0.1639 0.1387 0.2539 0.045 0.105 0.07361 0.2152 0.09961 0.3242 0.03 0.16 0.05555 0.3233 0.06055 0.4883v0.03516c-5e-3 0.17-0.03461 0.3343-0.09961 0.4883-0.05 0.1547-0.1253 0.2946-0.2246 0.4199l-1.824 2.106-0.9824-0.8496a0.676 0.676 0 0 0-0.9668 0.07031 0.683 0.683 0 0 0 0.07031 0.9609l2.281 1.977-0.1894 0.2129-4.738-4.104 0.1894-0.2129 1.281 1.109a0.7 0.7 0 0 0 0.4492 0.166c0.2 0 0.3876-0.08438 0.5176-0.2344a0.7 0.7 0 0 0 0.1641-0.4492c0-0.2-0.08438-0.3886-0.2344-0.5176l-0.1426-0.123 1.828-2.111c0.224-0.26 0.5331-0.4181 0.8711-0.4531 0.088-0.00733 0.175-0.01234 0.2617-0.01367zm-11.62 13.11 3.35 0.3438-2.75 3.172-0.2891-0.25a0.99 0.99 0 0 0-1.4 0.1016l-0.293 0.3438-0.00586-0.0039 0.2949-0.3438a0.991 0.991 0 0 0-0.09961-1.4l-0.2891-0.25z" fill="url(#a)"/>
</svg>
