<svg version="1.1" viewBox="0 0 22 22" xmlns="http://www.w3.org/2000/svg">
 <defs>
  <linearGradient id="a" y1="1">
   <stop stop-color="#0028ff" offset="0"/>
   <stop stop-color="#36a0ff" offset=".5"/>
   <stop stop-color="#4dd3ff" offset="1"/>
  </linearGradient>
 </defs>
 <path transform="translate(0) scale(1) translate(0) scale(1) translate(-.00247 -.00257) scale(1) translate(-1.138 -.3795) scale(.09483)" d="m127.2 4.029a12 12 0 0 0-6.068 2.141 259 259 0 0 0-42.18 39c-28.09 32.26-42.94 66.45-42.94 98.83a92 92 0 0 0 184 0c0-77.36-81.64-135.4-85.12-137.8a12 12 0 0 0-7.693-2.141zm0.8125 27.08a249.4 249.4 0 0 1 31.3 30.18c16.7 19.34 36.7 49.4 36.7 82.71a68.07 68.07 0 0 1-68 68 68.07 68.07 0 0 1-68-68c0-33.31 20-63.37 36.7-82.71a249.4 249.4 0 0 1 31.3-30.18zm37.75 112.9a12 12 0 0 0-11.01 8.394 28 28 0 0 1-18.32 18.32 12 12 0 0 0 3.6 23.45 12.2 12.2 0 0 0 3.6-0.5508 52 52 0 0 0 34-34l0.0215-0.0195a12 12 0 0 0-11.89-15.59z" fill="url(#a)"/>
</svg>
