<svg version="1.1" viewBox="0 0 22 22" xmlns="http://www.w3.org/2000/svg">
 <defs>
  <style>.ColorScheme-Text {
        color:#232629;
      }</style>
 </defs>
 <path transform="translate(-5e-5 -5e-5) scale(1) translate(.4783 .4783) scale(.9565)" d="m0-0.5a0.5 0.5 0 0 0-0.5 0.5v22a0.5 0.5 0 0 0 0.5 0.5h22a0.5 0.5 0 0 0 0.5-0.5v-22a0.5 0.5 0 0 0-0.5-0.5zm1.875 2.375h18.25v18.25h-18.25z" fill="#f00"/>
 <path transform="translate(-5e-5 -5e-5) scale(1) translate(.4783 .4783) scale(.9565)" d="m1.375 0.875a0.5 0.5 0 0 0-0.5 0.5v19.25a0.5 0.5 0 0 0 0.5 0.5h19.25a0.5 0.5 0 0 0 0.5-0.5v-19.25a0.5 0.5 0 0 0-0.5-0.5z" fill="#f00" fill-opacity=".6"/>
</svg>
