<svg version="1.1" viewBox="0 0 22 22" xmlns="http://www.w3.org/2000/svg">
 <path transform="translate(-0) scale(1) translate(-0) scale(1) translate(-0 -7e-6) scale(1) translate(.002 .00148) scale(.9999) translate(0 -3e-5) scale(1)" d="m4.73 0.9258a4.736 4.736 0 0 0-4.73 4.73 4.735 4.735 0 0 0 4.73 4.73c2.607 0 4.73-2.12 4.73-4.73a4.736 4.736 0 0 0-4.73-4.73zm8.162 2.896c-1.008 0-1.832 0.824-1.832 1.832s0.824 1.834 1.832 1.834h7.275c1.008 0 1.832-0.826 1.832-1.834s-0.824-1.832-1.832-1.832zm-8.162 0.7695c0.591 0 1.062 0.4715 1.062 1.062s-0.4705 1.062-1.062 1.062-1.062-0.4705-1.062-1.062c0-0.591 0.4715-1.062 1.062-1.062zm12.54 7.022a4.735 4.735 0 0 0-4.73 4.73 4.736 4.736 0 0 0 4.73 4.73 4.736 4.736 0 0 0 4.73-4.73 4.735 4.735 0 0 0-4.73-4.73zm-15.44 2.896c-1.008 0-1.832 0.824-1.832 1.832s0.824 1.834 1.832 1.834h7.272c1.009 0 1.834-0.825 1.834-1.834s-0.825-1.832-1.834-1.832zm15.44 0.7695c0.592 0 1.062 0.4705 1.062 1.062 0 0.591-0.4715 1.062-1.062 1.062s-1.062-0.4715-1.062-1.062 0.4705-1.062 1.062-1.062z" fill="#f0f"/>
</svg>
