<svg version="1.1" viewBox="0 0 22 22" xmlns="http://www.w3.org/2000/svg">
 <path transform="translate(-0) scale(1) translate(-0) scale(1) translate(5e-4) scale(1)" d="M1.57 0C0 0 0 1.57 0 1.57v1.572c0 1.57 1.57 1.57 1.57 1.57h6.284q.142 0 .267-.018l1.022 3.16h-6v6.284h8.028l1.43 4.427c-.031.167-.034.285-.034.285v1.57c0 1.572 1.57 1.572 1.57 1.572h6.284c1.57 0 1.57-1.571 1.57-1.571V18.85c0-1.57-1.57-1.57-1.57-1.57h-6.283a2 2 0 0 0-.267.018l-1.022-3.16h6V7.853h-8.028L9.391 3.43c.032-.168.034-.288.034-.288V1.57C9.425 0 7.855 0 7.855 0zm3.143 9.425H9.65l1.015 3.142H4.713zm6.614 0h5.952v3.142h-4.937z" fill="red"/>
</svg>
