<svg version="1.1" viewBox="0 0 22 22" xmlns="http://www.w3.org/2000/svg">
 <defs>
  <linearGradient id="a" y2="1">
   <stop stop-color="#ff00e2" offset="0"/>
   <stop stop-color="#00b2ff" offset="1"/>
  </linearGradient>
 </defs>
 <g transform="translate(0) scale(1) translate(-.00012 -.000171) scale(1) translate(-9.2e-5 -.000279) scale(1) translate(-1.213 -1.22) scale(1.111)" fill="url(#a)" stroke-width="1.238">
  <path d="M11 8.457 8.482 11 11 13.543 13.518 11zm0 1.454L12.079 11 11 12.089 9.921 11z"/>
  <path d="m13.4 1.1-5.293.034.841 5.21 3.684-.026zm-.906.793-.535 3.642-2.349.02-.587-3.639 3.471-.024zm5.513 1.648-4.048 3.34.169.29 1.697 2.92 4.863-1.936zm-14.3.401-2.615 4.65 4.885 1.868.166-.292L7.8 7.226 3.707 3.94zm14.09.79 1.755 3.026L16.16 9.11l-1.19-2.045zm-13.86.4 2.857 2.29-1.16 2.064-3.41-1.308L3.938 5.13zm12.07 6.4-.167.297-1.653 2.941 4.09 3.286 2.618-4.65zm-9.844.371-4.86 1.938 2.68 4.614 4.046-3.343-.17-.29zm10.19.607 3.413 1.308-1.716 3.043-2.854-2.286 1.158-2.064zm-10.53.377 1.189 2.045-2.823 2.33-1.755-3.024zm7.212 2.763-.332.005-3.351.026L8.58 20.9l5.298-.036zm-.663.793.588 3.635-3.471.024.534-3.642z"/>
 </g>
</svg>
