<svg version="1.1" viewBox="0 0 22 22" xmlns="http://www.w3.org/2000/svg">
 <defs>
  <linearGradient id="a" x1="1" x2="0" y1="1">
   <stop stop-color="#feaa00" offset="0"/>
   <stop stop-color="#fd0575" offset=".5"/>
   <stop stop-color="#7b31fe" offset="1"/>
  </linearGradient>
 </defs>
 <path transform="translate(0) scale(1) translate(0) scale(1) translate(0) scale(.04297)" d="m256 0c-17.7 0-32 14.3-32 32v10.4c-93.7 13.9-167.7 87.9-181.6 181.6h-10.4c-17.7 0-32 14.3-32 32s14.3 32 32 32h10.4c13.9 93.7 87.9 167.7 181.6 181.6v10.4c0 17.7 14.3 32 32 32s32-14.3 32-32v-10.4c93.6-13.9 167.7-87.9 181.6-181.6h10.4c17.7 0 32-14.3 32-32s-14.3-32-32-32h-10.4c-13.9-93.6-87.9-167.7-181.6-181.6v-10.4c0-17.7-14.3-32-32-32zm-32 107.4v20.6c0 17.7 14.3 32 32 32s32-14.3 32-32v-20.6c58.3 12.5 104.1 58.3 116.6 116.6h-20.6c-17.7 0-32 14.3-32 32s14.3 32 32 32h20.6c-12.5 58.2-58.3 104.1-116.6 116.6v-20.6c0-17.7-14.3-32-32-32s-32 14.3-32 32v20.6c-58.2-12.5-104.1-58.3-116.6-116.6h20.6c17.7 0 32-14.3 32-32s-14.3-32-32-32h-20.6c12.5-58.3 58.3-104.1 116.6-116.6zm32 116.6a32 32 0 0 0 0 64 32 32 0 0 0 0-64z" fill="url(#a)"/>
</svg>
