<svg version="1.1" viewBox="0 0 22 22" xmlns="http://www.w3.org/2000/svg">
 <defs>
  <style>.ColorScheme-Text { color:#444444; } .ColorScheme-Highlight { color:#4285f4; }</style>
  <linearGradient id="a" y1=".5" y2=".5">
   <stop stop-color="#e6ff00" offset="0"/>
   <stop stop-color="#dcba14" offset="1"/>
  </linearGradient>
 </defs>
 <path transform="translate(0 -9e-6) scale(1) translate(0 -.004391) scale(1) matrix(1.542 0 0 1.542 -1.334 -1.333)" d="m12.8 2.795c-0.166 0.0027-0.3041 0.05524-0.4141 0.1426l-0.04687 0.03906-5 4.734c-0.1527 0.1447-0.2291 0.3519-0.2051 0.5606s0.1468 0.394 0.3281 0.5l2.828 1.641-1.441 3.459c-0.122 0.2907-0.02234 0.628 0.2363 0.8066 0.1153 0.07867 0.2476 0.1172 0.3789 0.1172 0.1653 0 0.331-0.06293 0.459-0.1836l5-4.734c0.1527-0.1447 0.2271-0.3519 0.2031-0.5606-0.02467-0.2087-0.1468-0.3947-0.3281-0.5l-2.826-1.639 1.424-3.42c0.044-0.08933 0.06836-0.1909 0.06836-0.2969 0-0.368-0.2961-0.666-0.6641-0.666z" fill="url(#a)"/>
 <path transform="translate(0 -9e-6) scale(1) translate(0 -.004391) scale(1)" d="m5.785 10.21a0.5 0.5 0 0 0-0.5 0.5v0.7617a0.5 0.5 0 0 0 0.5 0.5h2.193a0.5 0.5 0 0 0 0.5-0.5v-0.7617a0.5 0.5 0 0 0-0.5-0.5z" fill="#0ff"/>
 <path transform="translate(0 -9e-6) scale(1) translate(0 -.004391) scale(1)" d="m0.8809 9.338c-0.4888 0-0.8809 0.3902-0.8809 0.8789v1.748c0 0.4853 0.3922 0.8789 0.8809 0.8789h1.762c0.4888 0 0.8828-0.3936 0.8828-0.8789v-1.748c0-0.4888-0.394-0.8789-0.8828-0.8789z" fill="#0ff"/>
 <path transform="translate(0 -9e-6) scale(1) translate(0 -.004391) scale(1)" d="m5.785 5.814a0.5 0.5 0 0 0-0.5 0.5v0.7617a0.5 0.5 0 0 0 0.5 0.5h4.828a0.5 0.5 0 0 0 0.5-0.5v-0.7617a0.5 0.5 0 0 0-0.5-0.5z" fill="#0ff"/>
 <path transform="translate(0 -9e-6) scale(1) translate(0 -.004391) scale(1)" d="m0.8809 4.945c-0.4888 0-0.8809 0.3922-0.8809 0.8809v1.746c0 0.4853 0.3922 0.8789 0.8809 0.8789h1.762c0.4888 0 0.8828-0.3936 0.8828-0.8789v-1.746c0-0.4888-0.394-0.8809-0.8828-0.8809z" fill="#0ff"/>
 <path transform="translate(0 -9e-6) scale(1) translate(0 -.004391) scale(1)" d="m5.785 1.406a0.5 0.5 0 0 0-0.5 0.5v0.7637a0.5 0.5 0 0 0 0.5 0.5h6.543a0.5 0.5 0 0 0 0.5-0.5v-0.7637a0.5 0.5 0 0 0-0.5-0.5z" fill="#0ff"/>
 <path transform="translate(0 -9e-6) scale(1) translate(0 -.004391) scale(1)" d="m0.8809 0.5254c-0.4888 0-0.8809 0.394-0.8809 0.8828v1.762c0 0.4888 0.3922 0.8789 0.8809 0.8789h1.762c0.4888 0 0.8828-0.3902 0.8828-0.8789v-1.762c0-0.4888-0.394-0.8828-0.8828-0.8828z" fill="#0ff"/>
</svg>
