<svg version="1.1" viewBox="0 0 22 22" xmlns="http://www.w3.org/2000/svg">
 <path transform="translate(0) scale(1) translate(0 5e-4) scale(1)" d="M3.422 3.817c0 .663.534 1.197 1.197 1.197s1.197-.534 1.197-1.197S5.282 2.62 4.619 2.62s-1.197.534-1.197 1.197M4.387.87c.026-.008.232-.046.232-.046.785.026 1.608.366 2.117.875s.666.934.797 1.518h13.842c.33 0 .599.269.599.599v9.575c0 .33-.269.598-.599.598H4.62a.6.6 0 0 1-.599-.598v-1.795H2.394v5.984h1.65v-.598c0-.33.267-.599.598-.599h16.756c.33 0 .598.268.598.599v3.59c0 .33-.268.599-.598.599H4.642a.6.6 0 0 1-.599-.599v-.598H.598A.6.6 0 0 1 0 19.376V9.801c0-.33.268-.598.598-.598H4.02V6.729c-.579-.135-1.01-.286-1.519-.795s-.874-1.332-.874-2.117.366-1.609.874-2.117a3.1 3.1 0 0 1 .952-.64c.339-.143.934-.189.934-.189m2.027 10.726H19.58V5.612H6.414z" fill="#ff0"/>
</svg>
