<svg version="1.1" viewBox="0 0 22 22" xmlns="http://www.w3.org/2000/svg">
 <path transform="translate(-.002579 .000489) scale(1) translate(.003149 .000182) scale(1)" d="m15.64 0a0.91 0.91 0 0 0-0.709 0.3203l-2.062 2.062a4.6 4.6 0 0 0-1.949-0.3789c-0.66 0.02-1.297 0.1655-1.912 0.4375l-2.025-2.002c-0.22-0.216-0.4594-0.3242-0.7188-0.3242-0.26 0-0.4945 0.1057-0.7031 0.3164-0.202 0.2047-0.3077 0.4404-0.3164 0.707-0.00933 0.2673 0.09517 0.5092 0.3125 0.7266l1.533 1.477c-0.562 0.2907-1.071 0.6536-1.525 1.09-0.4553 0.436-0.8001 0.9537-1.033 1.555h-2.527c-0.3127 0-0.5652 0.09512-0.7578 0.2852-0.192 0.19-0.2884 0.4419-0.2891 0.7559 0 0.314 0.0977 0.5684 0.291 0.7617 0.192 0.1933 0.4432 0.291 0.7559 0.291h1.658a5.6 5.6 0 0 0-0.2207 1.469c-8e-3 0.4933-0.01172 0.9922-0.01172 1.496h-1.453c-0.3133 0-0.5678 0.09512-0.7598 0.2852-0.1927 0.1893-0.2884 0.4412-0.2891 0.7559 6.667e-4 0.314 0.09636 0.5664 0.2891 0.7598 0.192 0.1933 0.4464 0.291 0.7598 0.291h1.451c0 0.4587-0.00124 0.9163-0.00391 1.375s0.05834 0.9125 0.1797 1.357h-1.6c-0.3133 0-0.5658 0.09445-0.7578 0.2852-0.1933 0.1893-0.2891 0.4412-0.2891 0.7559 0 0.314 0.09569 0.5684 0.2891 0.7617 0.1927 0.1933 0.4508 0.2891 0.7715 0.2891h2.31a6.18 6.18 0 0 0 2.684 2.992 7.9 7.9 0 0 0 3.975 1.047 7.96 7.96 0 0 0 3.996-1.045 6.33 6.33 0 0 0 2.711-2.994h2.326c0.2967 6.67e-4 0.5448-0.09387 0.7441-0.2832 0.3-0.284 0.3008-0.4428 0.3008-0.7578 0-0.3133-0.1008-0.5664-0.3008-0.7598a1.03 1.03 0 0 0-0.7441-0.2891h-1.656c0.1167-0.452 0.1745-0.9058 0.1738-1.357v-1.377h1.482c0.2967 0 0.5454-0.09387 0.7461-0.2832 0.301-0.284 0.3008-0.4419 0.3008-0.7559 0-0.3147-0.09886-0.5684-0.2988-0.7617-0.2013-0.1933-0.4514-0.2904-0.748-0.291h-1.482c0-0.4973 0.0012-0.9962 0.0039-1.496 2e-3 -0.5007-0.07703-0.9892-0.2363-1.469h1.805a0.93 0.93 0 0 0 0.6641-0.2812 0.915 0.915 0 0 0 0-1.348 0.93 0.93 0 0 0-0.6641-0.2891h-2.473a7 7 0 0 0-1.115-1.725 5.7 5.7 0 0 0-1.613-1.268l1.449-1.453a0.97 0.97 0 0 0 0.293-0.7012c0-0.2673-0.09885-0.5036-0.2969-0.7109a0.94 0.94 0 0 0-0.7109-0.3047zm-4.666 4.852h2e-3c1.392 0 2.538 0.4943 3.441 1.478 0.904 0.984 1.357 2.177 1.357 3.58v4.357c0 1.387-0.4512 2.567-1.352 3.539-0.9007 0.9733-2.048 1.46-3.441 1.459-2.089-1e-3 -2.537-0.486-3.441-1.459-0.904-0.9727-1.357-2.152-1.357-3.539v-4.357c0-1.403 0.4492-2.596 1.35-3.58s2.048-1.478 3.441-1.478z" fill="#0f0"/>
 <path transform="translate(-.002579 .000489) scale(1) translate(.003149 .000182) scale(1)" d="m8.91 8.492a0.9 0.9 0 0 0-0.4394 0.1172c-0.3 0.1653-0.4498 0.4091-0.4492 0.7305v5.473c0 0.3413 0.1492 0.5926 0.4492 0.7539 0.3 0.16 0.5848 0.1544 0.8535-0.01758l4.289-2.75c0.268-0.185 0.4043-0.4198 0.4043-0.7148 0-0.2993-0.135-0.535-0.4043-0.707l-4.289-2.75a0.8 0.8 0 0 0-0.4121-0.1348z" fill="#0f0"/>
</svg>
