<svg version="1.1" viewBox="0 0 22 22" xmlns="http://www.w3.org/2000/svg">
 <path transform="translate(0) scale(1) translate(.000582 -.00088) scale(1) translate(-2.964 24.76) scale(.02906)" d="m640.4-852c-9.7 0-17.82 3.644-24.38 10.98l-71.02 71.02c-22-9.333-44.39-13.68-67.15-13.01s-44.71 5.667-65.86 15l-69.69-68.83c-7.547-7.44-15.77-11.17-24.73-11.17s-16.99 3.619-24.14 10.86c-6.947 7.047-10.6 15.19-10.94 24.38-0.333 9.193 3.255 17.52 10.74 25l52.77 50.78c-19.33 10-36.83 22.5-52.5 37.5s-27.51 32.81-35.51 53.48h-86.99c-10.77 0-19.48 3.272-26.09 9.805-6.62 6.533-9.922 15.2-9.922 26.02s3.302 19.56 9.922 26.21c6.613 6.653 15.33 10 26.09 10h56.99c-4.833 16.67-7.37 33.47-7.617 50.47-0.253 17-0.3906 34.19-0.3906 51.52h-50c-10.77 0-19.44 3.272-26.06 9.805s-9.961 15.2-9.961 26.02 3.341 19.56 9.961 26.21c6.613 6.653 15.29 9.961 26.06 9.961h50c0 15.78-0.0372 31.57-0.1172 47.34-0.087 15.78 1.966 31.31 6.133 46.64h-55c-10.77 0-19.48 3.272-26.09 9.805-6.62 6.533-9.922 15.2-9.922 26.02s3.302 19.56 9.922 26.21c6.613 6.653 15.42 10 26.44 10h79.65c19.33 44.67 50.09 78.97 92.3 103 42.21 24 87.78 36.02 136.8 36.02 49.47 0 95.34-12.02 137.6-36.02 42.23-24 73.36-58.3 93.36-103h80c10.2-1e-5 18.72-3.272 25.62-9.805s10.35-15.2 10.35-26.02-3.452-19.56-10.35-26.21c-6.9-6.653-15.42-10-25.62-10h-57.03c4-15.55 6.016-31.08 6.016-46.64v-47.34h51.02c10.2 0 18.72-3.272 25.62-9.805s10.35-15.2 10.35-26.02-3.452-19.56-10.35-26.21c-6.9-6.653-15.42-9.961-25.62-9.961h-51.02c0-17.11 0.0302-34.3 0.1172-51.52 0.08-17.22-2.625-34.02-8.125-50.47h61.99c8.5 0 16.14-3.254 22.89-9.727 6.747-6.473 10.12-14.19 10.12-23.12s-3.37-16.69-10.12-23.28c-6.753-6.593-14.39-9.883-22.89-9.883h-84.96c-9.96-21.84-22.78-41.63-38.48-59.38s-34.21-32.3-55.55-43.63l50-50c6.667-6.847 10-14.87 10-24.06 0-9.2-3.395-17.34-10.2-24.49-6.573-6.947-14.71-10.43-24.41-10.43zm-160.6 167c47.89 0 87.41 16.92 118.5 50.78 31.11 33.87 46.64 74.93 46.64 123.2v150c0 47.73-15.48 88.33-46.48 121.8s-70.47 50.23-118.4 50.23c-47.89-1e-5 -87.41-16.76-118.5-50.23-31.11-33.47-46.64-74.07-46.64-121.8v-150c0-48.27 15.48-89.34 46.48-123.2s70.47-50.78 118.4-50.78zm0.4297 63.79c-6.995 0-15.1 3.325-19.96 8.125-4.913 4.85-7.834 12.99-8.203 19.96v104.2l-7.578-7.578c-5.212-4.71-12.99-8.32-19.8-8.32-6.802 0-14.59 3.61-19.8 8.32-4.589 5.2-7.937 12.94-8.477 19.73 0.246 7.02 3.452 14.96 8.125 20.2l55.47 55.47c5.136 4.57 13.03 8.32 20.08 8.32 7.042 0 14.92-3.663 20.12-8.203l55.2-55.2c4.681-5.28 7.893-13.26 8.125-20.35-0.537-6.86-3.844-14.43-8.438-19.53-5.195-4.72-12.91-8.359-19.69-8.359-6.751 0-14.53 3.533-19.84 8.203l-7.305 7.305v-104.2c-0.361-6.95-3.275-15.06-8.125-19.92-4.82-4.82-12.88-8.164-19.88-8.164zm-0.0391 258.5c-15.58 0-30.69 6.502-41.8 16.99-10.56 11.1-17.15 26.23-17.15 41.84 0 15.59 6.539 30.74 17.07 41.8 11.07 10.56 26.19 17.19 41.8 17.19s30.71-6.6 41.8-17.07c10.58-11.07 17.15-26.28 17.15-41.88s-6.547-30.65-17.07-41.76c-11.09-10.57-26.21-17.11-41.8-17.11z" fill="#00FF80"/>
</svg>
