<svg version="1.1" viewBox="0 0 22 22" xmlns="http://www.w3.org/2000/svg">
 <defs>
  <linearGradient id="a" y1="1">
   <stop stop-color="#ff00d4" offset="0"/>
   <stop stop-color="#0040ff" offset="1"/>
  </linearGradient>
 </defs>
 <path transform="translate(0 4e-6) scale(1) translate(0 4e-6) scale(1)" d="m7.613-4e-6a0.846 0.846 0 0 0-0.1309 0.009766c-1.022 0.01604-1.898 0.0576-2.676 0.1621-1.324 0.1781-2.417 0.576-3.238 1.396-0.8212 0.8212-1.218 1.914-1.396 3.238-0.1044 0.7762-0.1441 1.652-0.1602 2.672a0.846 0.846 0 0 0-0.01172 0.1348 0.846 0.846 0 0 0 0.007812 0.1133c-0.007694 0.6523-0.007812 1.363-0.007812 2.143v2.256c0 0.7801 9.838e-5 1.49 0.007812 2.143a0.846 0.846 0 0 0-0.007812 0.1152 0.846 0.846 0 0 0 0.01172 0.1367c0.01611 1.019 0.05581 1.892 0.1602 2.668 0.178 1.324 0.576 2.417 1.396 3.238 0.8212 0.8213 1.914 1.218 3.238 1.396 0.7747 0.1042 1.649 0.146 2.666 0.1621a0.846 0.846 0 0 0 0.1406 0.01172 0.846 0.846 0 0 0 0.1191-0.007813c0.651 0.0076 1.359 0.00586 2.137 0.00586h2.258c0.7777 0 1.486 0.00184 2.137-0.00586a0.846 0.846 0 0 0 0.1191 0.007813 0.846 0.846 0 0 0 0.1406-0.01172c1.017-0.01617 1.889-0.05798 2.664-0.1621 1.324-0.1781 2.419-0.576 3.24-1.396 0.8213-0.8212 1.218-1.914 1.396-3.238 0.1043-0.7758 0.1441-1.651 0.1602-2.67a0.846 0.846 0 0 0 0.01172-0.1348 0.846 0.846 0 0 0-0.007813-0.1152c0.0077-0.6527 0.007813-1.363 0.007813-2.143v-2.256c0-0.7795-1.26e-4 -1.489-0.007813-2.141a0.846 0.846 0 0 0 0.007813-0.1152 0.846 0.846 0 0 0-0.01172-0.1367c-0.0161-1.02-0.05577-1.894-0.1602-2.67-0.1781-1.324-0.576-2.417-1.396-3.238-0.8212-0.8213-1.916-1.218-3.24-1.396-0.7774-0.1046-1.652-0.1461-2.674-0.1621a0.846 0.846 0 0 0-0.1309-0.009766 0.846 0.846 0 0 0-0.1094 0.007812c-0.654-0.007773-1.365-0.007812-2.146-0.007812h-2.258c-0.782 0-1.493 3.747e-5 -2.146 0.007812a0.846 0.846 0 0 0-0.1094-0.007812zm2.256 1.691h2.258c0.4999 0 0.9678 0.001396 1.408 0.003906v3.746l0.8848-0.8848c0.2297-0.2307 0.5071-0.4042 0.8086-0.5098v-2.324c0.6684 0.02251 1.245 0.06279 1.736 0.1289 1.133 0.1523 1.765 0.4137 2.266 0.9141 0.5003 0.5003 0.7636 1.135 0.916 2.268 0.06617 0.4918 0.1044 1.066 0.127 1.734h-2.318c-0.1054 0.3033-0.2798 0.5816-0.5117 0.8125l-0.8809 0.8809h3.742c0.0025 0.4406 0.003906 0.9104 0.003906 1.41v2.256c0 0.4998-0.001407 0.9679-0.003906 1.408h-3.715l0.8535 0.8535v0.001953c0.2377 0.237 0.4149 0.525 0.5195 0.8379h2.311c-0.02251 0.6684-0.06077 1.244-0.127 1.736-0.1523 1.133-0.4156 1.767-0.916 2.268-0.5003 0.5003-1.133 0.7617-2.266 0.9141-0.4917 0.06617-1.068 0.1044-1.736 0.127v-2.352c-0.3015-0.1056-0.5789-0.2791-0.8086-0.5098l-0.8867-0.8867v3.775c-0.4406 0.0025-0.9066 0.003906-1.406 0.003906h-2.26c-0.4999 0-0.9658-0.001406-1.406-0.003906v-3.738l-0.8418 0.8418c-0.2559 0.2702-0.5482 0.4592-0.8516 0.5723v2.297c-0.6684-0.02251-1.245-0.06077-1.736-0.127-1.133-0.1523-1.765-0.4137-2.266-0.9141-0.5003-0.5003-0.7636-1.135-0.916-2.268-0.06612-0.4918-0.1044-1.068-0.127-1.736h2.301c0.1133-0.3016 0.3035-0.5931 0.5723-0.8477l0.8457-0.8457h-3.744c-0.00251-0.4406-0.003906-0.9087-0.003906-1.408v-2.256c0-0.5 0.001396-0.9697 0.003906-1.41h3.77l-0.8809-0.8809c-0.2409-0.2417-0.4076-0.5201-0.5078-0.8125h-2.355c0.02251-0.6683 0.06078-1.243 0.127-1.734 0.1523-1.133 0.4156-1.767 0.916-2.268 0.5003-0.5003 1.133-0.7617 2.266-0.9141 0.4918-0.06618 1.068-0.1064 1.736-0.1289v2.312c0.3146 0.1044 0.6031 0.2825 0.8418 0.5215l0.8516 0.8516v-3.713c0.4406-0.0025 0.9085-0.003906 1.408-0.003906zm-0.04688 5.076 1.193 1.193 1.193-1.193h-2.387zm-3.053 2.994v2.445l1.223-1.223-1.223-1.223zm8.463 0.0293-1.193 1.193 1.193 1.193v-2.387zm-4.217 4.217-1.221 1.221h2.441l-1.221-1.221z" fill="url(#a)"/>
 <path transform="translate(0 4e-6) scale(1)" d="m6.098 4.429a1.64 1.64 0 0 0-1.158 2.797l3.759 3.759-3.759 3.759a1.638 1.638 0 1 0 2.316 2.316l3.759-3.759 3.759 3.759a1.634 1.634 0 0 0 1.158 0.481 1.64 1.64 0 0 0 1.64-1.64 1.634 1.634 0 0 0-0.481-1.158l-3.759-3.759 3.759-3.759a1.634 1.634 0 0 0 0.481-1.158 1.64 1.64 0 0 0-1.64-1.64 1.634 1.634 0 0 0-1.158 0.481l-3.759 3.759-3.759-3.759a1.64 1.64 0 0 0-1.158-0.481" fill="#f00" stroke-width=".596"/>
</svg>
