<svg version="1.1" viewBox="0 0 22 22" xmlns="http://www.w3.org/2000/svg">
 <path transform="translate(0) scale(1) translate(-2e-4) scale(1)" d="M10.989 10.895q-.525 0-.883-.362-.358-.36-.358-.884V4.215l-4.215 4.24q-.397.398-.901.398t-.848-.397q-.398-.371-.398-.862t.398-.888L10.119.371q.186-.185.414-.278.23-.093.464-.093t.474.093q.238.093.424.278l6.335 6.335q.371.398.385.893.013.494-.374.861-.382.393-.888.393t-.872-.397L12.24 4.215v5.434q0 .523-.363.884-.362.362-.888.362m0 5.434q-.525 0-.883-.362-.358-.36-.358-.884v-1.326q0-.523.362-.898.363-.374.888-.374.526 0 .884.374.358.375.358.898v1.326q0 .523-.363.884-.362.362-.888.362m0 5.672q-.525 0-.883-.361t-.358-.885v-1.59q0-.524.362-.885.363-.361.888-.361.526 0 .884.361t.358.885v1.59q0 .524-.363.885-.362.361-.888.361" fill="#ff0040"/>
</svg>
