<svg version="1.1" viewBox="0 0 22 22" xmlns="http://www.w3.org/2000/svg">
 <g transform="translate(0) scale(1) translate(-.00018) scale(1)" stroke-width=".027">
  <path transform="translate(-.002)scale(.9999)" d="M13.41 5.084v1.898a.9.9 0 0 1-.285.678q-.285.27-.694.271c-.41.001-.503-.097-.691-.282a.94.94 0 0 1-.282-.694V2.557q0-.538.366-.905.366-.366.935-.364h4.365a.97.97 0 0 1 .692.266q.285.268.284.683a.93.93 0 0 1-.284.688.94.94 0 0 1-.692.283H15.2q.95.87 1.75 1.952a9.4 9.4 0 0 1 1.233 2.229q.19.513-.068.986a1.16 1.16 0 0 1-.8.597 1.3 1.3 0 0 1-.99-.152 1.78 1.78 0 0 1-.718-.754 6.5 6.5 0 0 0-.854-1.59 8 8 0 0 0-1.342-1.393z" fill="#f0f" style="-inkscape-stroke:none;font-variation-settings:normal"/>
  <path transform="translate(-.002)scale(.9999)" d="M13.28 12.33v9.317a.35.35 0 0 1-.352.352h-1.331a.35.35 0 0 1-.353-.352v-7.634h-.978a.35.35 0 0 1-.352-.352V12.33c0-.195.157-.353.352-.353h2.662c.194 0 .352.158.352.353z" fill="#0cf" style="-inkscape-stroke:none;font-variation-settings:normal"/>
  <path transform="translate(-.002)scale(.9999)" d="M5.795 15.66v-1.898a.9.9 0 0 1 .285-.684.98.98 0 0 1 .694-.266.93.93 0 0 1 .692.277.94.94 0 0 1 .281.694v4.393q0 .545-.366.911-.366.367-.935.369H2.08q-.405-.001-.691-.271a.9.9 0 0 1-.285-.683c0-.271.095-.505.285-.69.19-.19.42-.281.69-.281h1.926a13.5 13.5 0 0 1-1.75-1.958 9.4 9.4 0 0 1-1.233-2.218 1.16 1.16 0 0 1 .068-.993 1.16 1.16 0 0 1 .8-.596q.515-.123.99.146c.316.184.555.434.718.765.217.575.501 1.106.854 1.583q.529.716 1.342 1.399z" fill="#f0f" style="-inkscape-stroke:none;font-variation-settings:normal"/>
  <path transform="translate(-.002)scale(.9999)" d="M2.409.88A3.1 3.1 0 0 1 4.54 0a3.1 3.1 0 0 1 2.131.88c.526.525.883 1.324.883 2.133 0 .831-.149 1.43-.769 1.995.473.55.769 1.152.769 1.998 0 .804-.357 1.602-.883 2.13a3.1 3.1 0 0 1-2.132.885 3.1 3.1 0 0 1-2.131-.885c-.527-.527-.868-1.325-.883-2.13.017-.844.3-1.447.77-1.997-.47-.552-.753-1.164-.77-1.995.015-.811.357-1.61.883-2.135zM4.54 6.028a.9.9 0 0 0-.692.288c-.197.196-.287.396-.287.69s.09.495.287.691c.197.198.397.288.692.288s.495-.09.692-.288c.196-.196.287-.396.287-.69s-.09-.495-.287-.691a.9.9 0 0 0-.692-.288m0-3.993a.9.9 0 0 0-.692.287c-.197.197-.287.397-.287.691s.09.495.287.691c.197.198.397.288.692.288s.495-.09.692-.288c.196-.196.287-.396.287-.69s-.09-.495-.287-.692a.9.9 0 0 0-.692-.288" fill="#ff0060" style="-inkscape-stroke:none;font-variation-settings:normal"/>
  <path transform="translate(-.002)scale(.9999)" d="M20.71 15.34h-1.331a.35.35 0 0 1-.352-.352c.015-.294-.09-.494-.287-.69a.9.9 0 0 0-.692-.289.9.9 0 0 0-.692.288c-.197.197-.303.397-.287.69v1.15c.318-.108.467-.17.979-.17.806 0 1.604.354 2.13.879.527.525.884 1.324.884 2.134 0 .804-.357 1.602-.883 2.129a3.1 3.1 0 0 1-2.13.885 3.1 3.1 0 0 1-2.133-.885c-.526-.527-.867-1.325-.882-2.13v-3.992c.015-.81.357-1.61.883-2.134s1.324-.88 2.13-.88c.807 0 1.605.355 2.132.88.526.525.868 1.324.883 2.134a.35.35 0 0 1-.352.352zm-3.354 2.95c-.197.197-.287.397-.287.69s.09.495.287.691a.9.9 0 0 0 .692.288c.295 0 .495-.09.692-.288a.9.9 0 0 0 .287-.69.9.9 0 0 0-.287-.691.9.9 0 0 0-.692-.288.9.9 0 0 0-.692.288" fill="#0cf" style="-inkscape-stroke:none;font-variation-settings:normal"/>
 </g>
</svg>
