<svg version="1.1" viewBox="0 0 22 22" xmlns="http://www.w3.org/2000/svg">
 <defs>
  <linearGradient id="c" y2="1">
   <stop stop-color="#01ff4d" offset="0"/>
   <stop stop-color="#2fff00" offset="1"/>
  </linearGradient>
  <linearGradient id="b" y2="1">
   <stop stop-color="#f00" offset="0"/>
   <stop stop-color="#ff0086" offset="1"/>
  </linearGradient>
  <linearGradient id="d" x1="1" x2="0" y2="1">
   <stop stop-color="#0061ff" offset="0"/>
   <stop stop-color="#60efff" offset="1"/>
  </linearGradient>
  <linearGradient id="a" y1="1">
   <stop stop-color="#ff6900" offset="0"/>
   <stop stop-color="#f1fa00" offset="1"/>
  </linearGradient>
 </defs>
 <path transform="translate(0) scale(1) translate(0) scale(1) translate(-4e-4) scale(1) translate(.001008 .000113) scale(1) matrix(1.128 0 0 1.128 -2.537 -2.537)" d="m6.75 12.75c-1.165 0-1.828-0.02912-2.494 0.2461a0.7501 0.7501 0 0 0 0 2e-3c-0.7961 0.3297-1.428 0.9617-1.758 1.758a0.7501 0.7501 0 0 0-0.00195 0c-0.2752 0.6662-0.2461 1.329-0.2461 2.494s-0.02912 1.828 0.2461 2.494a0.7501 0.7501 0 0 0 0.00195 0c0.3298 0.7961 0.9617 1.428 1.758 1.758a0.7501 0.7501 0 0 0 0 2e-3c0.6663 0.2751 1.329 0.246 2.494 0.246s1.828 0.02912 2.494-0.2461a0.7501 0.7501 0 0 0 0-2e-3c0.7961-0.3297 1.428-0.9617 1.758-1.758a0.7501 0.7501 0 0 0 2e-3 0c0.2751-0.6662 0.246-1.329 0.246-2.494s0.02912-1.828-0.2461-2.494a0.7501 0.7501 0 0 0-2e-3 0c-0.3297-0.7961-0.9617-1.428-1.758-1.758a0.7501 0.7501 0 0 0 0-2e-3c-0.6662-0.2751-1.329-0.246-2.494-0.246zm0 1.5c1.165 0 1.666 0.02803 1.92 0.1328 0.4291 0.1777 0.7695 0.5182 0.9473 0.9473 0.1048 0.2537 0.1328 0.7549 0.1328 1.92s-0.02803 1.666-0.1328 1.92c-0.1777 0.4291-0.5182 0.7695-0.9473 0.9473-0.2537 0.1048-0.7549 0.1328-1.92 0.1328s-1.666-0.02803-1.92-0.1328c-0.4291-0.1777-0.7695-0.5182-0.9473-0.9473-0.1048-0.2537-0.1328-0.7549-0.1328-1.92s0.02803-1.666 0.1328-1.92c0.1777-0.4291 0.5182-0.7695 0.9473-0.9473 0.2537-0.1048 0.7549-0.1328 1.92-0.1328z" fill="url(#a)"/>
 <path transform="translate(0) scale(1) translate(0) scale(1) translate(-4e-4) scale(1) translate(.001008 .000113) scale(1) matrix(1.128 0 0 1.128 -2.537 -2.537)" d="m6.75 2.25c-1.165 0-1.828-0.02912-2.494 0.2461a0.7501 0.7501 0 0 0 0 0.00195c-0.7961 0.3298-1.428 0.9617-1.758 1.758a0.7501 0.7501 0 0 0-0.00195 0c-0.2752 0.6663-0.2461 1.329-0.2461 2.494s-0.02912 1.828 0.2461 2.494a0.7501 0.7501 0 0 0 0.00195 0c0.3298 0.7961 0.9617 1.428 1.758 1.758a0.7501 0.7501 0 0 0 0 2e-3c0.6663 0.2751 1.329 0.246 2.494 0.246s1.828 0.02912 2.494-0.2461a0.7501 0.7501 0 0 0 0-2e-3c0.7961-0.3297 1.428-0.9617 1.758-1.758a0.7501 0.7501 0 0 0 2e-3 0c0.2751-0.6662 0.246-1.329 0.246-2.494s0.02912-1.828-0.2461-2.494a0.7501 0.7501 0 0 0-2e-3 0c-0.3296-0.7961-0.9617-1.428-1.758-1.758a0.7501 0.7501 0 0 0 0-0.00195c-0.6663-0.2752-1.329-0.2461-2.494-0.2461zm0 1.5c1.165 0 1.666 0.02803 1.92 0.1328 0.4291 0.1777 0.7695 0.5182 0.9473 0.9473 0.1048 0.2537 0.1328 0.7549 0.1328 1.92s-0.02803 1.666-0.1328 1.92c-0.1777 0.4291-0.5182 0.7695-0.9473 0.9473-0.2537 0.1048-0.7549 0.1328-1.92 0.1328s-1.666-0.02803-1.92-0.1328c-0.4291-0.1777-0.7695-0.5182-0.9473-0.9473-0.1048-0.2537-0.1328-0.7549-0.1328-1.92s0.02803-1.666 0.1328-1.92c0.1777-0.4291 0.5182-0.7695 0.9473-0.9473 0.2537-0.1048 0.7549-0.1328 1.92-0.1328z" fill="url(#b)"/>
 <path transform="translate(0) scale(1) translate(0) scale(1) translate(-4e-4) scale(1) translate(.001008 .000113) scale(1)" d="m16.92 9.396e-4c-1.314 0-2.062-0.03285-2.813 0.2776a0.8461 0.8461 0 0 0 0 0.002256c-0.898 0.3719-1.611 1.085-1.983 1.983a0.8461 0.8461 0 0 0-0.0023 0c-0.3103 0.7515-0.2774 1.499-0.2774 2.813s-0.03285 2.062 0.2776 2.813a0.8461 0.8461 0 0 0 0.0023 0c0.3719 0.898 1.085 1.611 1.983 1.983a0.8461 0.8461 0 0 0 0 0.00226c0.7515 0.3103 1.499 0.2775 2.813 0.2775s2.062 0.03285 2.813-0.2776a0.8461 0.8461 0 0 0 0-0.00226c0.898-0.3719 1.611-1.085 1.983-1.983a0.8461 0.8461 0 0 0 0.0023 0c0.3103-0.7515 0.2775-1.499 0.2775-2.813s0.03285-2.062-0.2776-2.813a0.8461 0.8461 0 0 0-0.0023 0c-0.3719-0.898-1.085-1.611-1.983-1.983a0.8461 0.8461 0 0 0 0-0.002256c-0.7515-0.3103-1.499-0.2775-2.813-0.2775zm0 1.692c1.314 0 1.879 0.03162 2.166 0.1498 0.484 0.2004 0.868 0.5845 1.069 1.069 0.1182 0.2862 0.1498 0.8515 0.1498 2.166s-0.03162 1.879-0.1498 2.166c-0.2004 0.484-0.5845 0.868-1.069 1.069-0.2862 0.1182-0.8515 0.1498-2.166 0.1498s-1.879-0.03162-2.166-0.1498c-0.484-0.2004-0.868-0.5845-1.069-1.069-0.1182-0.2862-0.1498-0.8515-0.1498-2.166s0.03162-1.879 0.1498-2.166c0.2004-0.484 0.5845-0.868 1.069-1.069 0.2862-0.1182 0.8515-0.1498 2.166-0.1498z" fill="url(#d)" stroke-width="1.128"/>
 <path transform="translate(0) scale(1) translate(0) scale(1) translate(-4e-4) scale(1) translate(.001008 .000113) scale(1)" d="m16.92 10.77c-1.606 0-2.919 1.315-2.919 2.921v0.7786c-0.8135 0.3117-1.456 0.9963-1.576 1.894-0.07349 0.5459-0.1377 1.126-0.1377 1.733 0 0.6074 0.06425 1.186 0.1377 1.733 0.1554 1.154 1.114 2.063 2.29 2.118 0.7044 0.03237 1.42 0.04974 2.206 0.04974 0.7861 0 1.504-0.01737 2.208-0.04974 1.176-0.05407 2.134-0.9632 2.29-2.118 0.07346-0.5458 0.1377-1.124 0.1377-1.733s-0.06428-1.188-0.1377-1.733c-0.1209-0.898-0.7635-1.582-1.576-1.894v-0.7786c0-1.606-1.313-2.921-2.919-2.921zm0 1.435c0.8317 0 1.486 0.6548 1.486 1.487v0.5338c-0.4784-0.01506-0.9607-0.02678-1.486-0.02678s-1.006 0.01173-1.485 0.02678v-0.5338c0-0.8317 0.6529-1.487 1.485-1.487zm0 3.428c0.7656 0 1.46 0.01645 2.143 0.04783 0.4701 0.0216 0.8685 0.3927 0.9336 0.8743 0.07015 0.5213 0.1244 1.036 0.1244 1.542 0 0.5055-0.05421 1.021-0.1244 1.542-0.06482 0.4811-0.4631 0.8565-0.9336 0.8781-0.6828 0.03138-1.377 0.04783-2.143 0.04783-0.7661 0-1.458-0.01645-2.141-0.04783-0.47-0.02161-0.8685-0.3964-0.9336-0.8781-0.07015-0.5212-0.1244-1.036-0.1244-1.542 0-0.5055 0.05416-1.021 0.1244-1.542 0.06482-0.4811 0.463-0.8526 0.9336-0.8743 0.6828-0.0314 1.375-0.04783 2.141-0.04783zm-3.038 0.3157c-0.04186 0.05504-0.08054 0.1122-0.1129 0.1741 0.03234-0.06192 0.07101-0.1191 0.1129-0.1741zm3.038 0.6677c-0.4231-0.0039-0.7429 0.2616-0.8705 0.595-0.1225 0.3203-0.06967 0.7109 0.2162 0.9891v0.7251a0.1033 0.1033 0 0 0 0 2e-3c0.0055 0.2044 0.09052 0.3706 0.2143 0.4783 0.1237 0.1077 0.2819 0.1588 0.44 0.1588s0.3182-0.05108 0.4419-0.1588c0.1237-0.1077 0.2069-0.2739 0.2124-0.4783a0.1033 0.1033 0 0 0 0-2e-3v-0.7232c0.2877-0.2784 0.3411-0.6699 0.2181-0.991-0.1278-0.3335-0.449-0.5993-0.8724-0.595zm0.4668 1.483a0.1033 0.1033 0 0 0-0.01148 0.02104 0.1033 0.1033 0 0 1 0.01148-0.02104zm3.792 1.9c-0.0291 0.1284-0.07058 0.2539-0.1205 0.3731 0.04994-0.1191 0.09142-0.2447 0.1205-0.3731z" fill="url(#c)" stop-color="#000000" stroke-linecap="round" stroke-linejoin="round" stroke-width=".9795"/>
</svg>
