<svg fill="none" version="1.1" viewBox="0 0 22 22" xmlns="http://www.w3.org/2000/svg">
 <path transform="translate(0) scale(1) translate(0) scale(1) translate(0) scale(1)" d="M7.01.002v.065C4.978.24 3.354 1.857 3.354 3.889v5.334a.564.564 0 0 1-.582.555H2.62a1.1 1.1 0 0 0-1.095 1.094v.256A1.1 1.1 0 0 0 2.62 12.22h.152c.33 0 .582.25.582.556v5.333c0 2.149 1.796 3.888 3.99 3.888h1.065c.6 0 1.096-.495 1.096-1.096v-.253a1.1 1.1 0 0 0-1.096-1.094H7.344c-.835 0-1.498-.648-1.498-1.445v-5.334c0-.485-.115-.948-.325-1.358a.96.96 0 0 1 0-.838c.21-.409.325-.872.325-1.358V3.888c0-.797.663-1.445 1.498-1.445h1.065A1.1 1.1 0 0 0 9.505 1.35v-.254C9.505.496 9.01 0 8.409 0h-1.4zm6.58 0c-.6 0-1.095.495-1.095 1.095v.254a1.1 1.1 0 0 0 1.095 1.094h1.066c.835 0 1.497.648 1.497 1.445v5.333c0 .486.116.95.326 1.359a.96.96 0 0 1 0 .837c-.21.41-.326.873-.326 1.359v5.333c0 .797-.662 1.446-1.497 1.446H13.59a1.1 1.1 0 0 0-1.095 1.093v.254c0 .6.495 1.096 1.095 1.096h1.066c2.194 0 3.99-1.74 3.99-3.888v-5.334c0-.306.251-.555.582-.555h.151a1.1 1.1 0 0 0 1.096-1.094v-.254c0-.6-.495-1.095-1.096-1.095h-.151a.563.563 0 0 1-.582-.556V3.891c0-2.149-1.796-3.888-3.99-3.888z" fill="#ff00df"/>
</svg>
