<svg version="1.1" viewBox="0 0 22 22" xmlns="http://www.w3.org/2000/svg">
 <g transform="translate(-0) scale(1) translate(-0) scale(1) translate(1e-5 5e-4) scale(1)" fill="#39ff14">
  <path d="M14.436 10.311A3.437 3.437 0 0 1 11 13.75a3.437 3.437 0 0 1-3.437-3.438 3.437 3.437 0 0 1 3.437-3.437 3.437 3.437 0 0 1 3.437 3.437M18.56.687a3.437 3.437 0 0 0-3.437 3.438 3.437 3.437 0 0 0 3.438 3.437 3.437 3.437 0 0 0 3.437-3.437A3.437 3.437 0 0 0 18.56.687m0 1.375a2.06 2.06 0 0 1 2.063 2.063 2.06 2.06 0 0 1-2.062 2.062 2.06 2.06 0 0 1-2.063-2.062 2.06 2.06 0 0 1 2.063-2.063"/>
  <path d="m10.98 6.187c-2.27 0-4.124 1.855-4.124 4.124s1.855 4.125 4.124 4.125 4.125-1.855 4.125-4.125-1.855-4.124-4.125-4.124m0 1.375c1.526 0 2.75 1.223 2.75 2.75s-1.223 2.75-2.75 2.75-2.75-1.224-2.75-2.75 1.224-2.75 2.75-2.75"/>
  <path d="M4.125 2.062A4.116 4.116 0 0 0 0 6.187v8.25a4.116 4.116 0 0 0 4.125 4.124h13.748a4.116 4.116 0 0 0 4.125-4.125v-6.96a4.8 4.8 0 0 1-1.375.991v5.97a2.744 2.744 0 0 1-2.75 2.75H4.125a2.744 2.744 0 0 1-2.75-2.75v-8.25a2.744 2.744 0 0 1 2.75-2.749h9.672a4.8 4.8 0 0 1 .421-1.375H4.124zM6.187 19.936h9.624c.38 0 .687.306.687.687s-.306.687-.687.687H6.187c-.381 0-.688-.306-.688-.687s.307-.687.688-.687"/>
 </g>
</svg>
