<svg version="1.1" viewBox="0 0 22 22" xmlns="http://www.w3.org/2000/svg">
 <g transform="translate(-0) scale(1) translate(-0) scale(1) translate(8e-6 1e-5) scale(1)" fill="#00fefc">
  <path d="m8.928 6.41-4.487 4.952-.462.51 1.018.924.461-.51L8.944 8.44l4.124 4.398 4.488-4.952.462-.51L17 6.452l-.462.51-3.485 3.846z"/>
  <path d="M4.125 1.375A4.116 4.116 0 0 0 0 5.499v8.25a4.116 4.116 0 0 0 4.125 4.124h13.748a4.116 4.116 0 0 0 4.125-4.124v-8.25a4.116 4.116 0 0 0-4.125-4.124zm0 1.375h13.748a2.744 2.744 0 0 1 2.75 2.75v8.249a2.744 2.744 0 0 1-2.75 2.75H4.125a2.744 2.744 0 0 1-2.75-2.75v-8.25a2.744 2.744 0 0 1 2.75-2.75M6.187 19.248h9.624a.686.686 0 1 1 0 1.375H6.187c-.381 0-.688-.307-.688-.688s.307-.687.688-.687"/>
 </g>
</svg>
