<svg version="1.1" viewBox="0 0 22 22" xmlns="http://www.w3.org/2000/svg">
 <defs>
  <linearGradient id="a" x1="4.004" x2="18" y1="18" y2="4.004" gradientTransform="matrix(0 .9999 -1 0 22 -.001003)" gradientUnits="userSpaceOnUse">
   <stop stop-color="#e6ff00" offset="0"/>
   <stop stop-color="#dcba14" offset="1"/>
  </linearGradient>
  <linearGradient id="b" x1="1" x2="0" y2="1">
   <stop stop-color="#f9ad07" offset="0"/>
   <stop stop-color="#ff06a6" offset="1"/>
  </linearGradient>
 </defs>
 <path transform="translate(-.002997 -3e-6) scale(1) translate(.000997 .002003) scale(1)" d="m22 1.497a1.502 1.502 0 0 0-1.498-1.498h-19c-0.8329 0-1.5 0.6712-1.5 1.498v19c0 0.8329 0.6667 1.5 1.498 1.5h19a1.498 1.498 0 0 0 1.502-1.498zm-1.498 1.004v17.01c0 0.5502-0.4492 0.998-1.004 0.998h-17.01c-0.5502 0-0.9961-0.4478-0.9961-0.998v-17.01a1.002 1.002 0 0 1 0.9961-1.004h17.01c0.5547 0 1.004 0.4492 1.004 1.004z" fill="url(#b)"/>
 <path transform="translate(-.002997 -3e-6) scale(1) translate(.000997 .002003) scale(1)" d="m17.99 5.499a1.495 1.495 0 0 0-1.498-1.496h-11c-0.8268 0-1.5 0.6652-1.5 1.498v3c0 0.8314 0.6732 1.5 1.5 1.5h11a1.495 1.495 0 0 0 1.498-1.5zm0 8.004a1.495 1.495 0 0 0-1.498-1.502h-11c-0.8268 0-1.5 0.6691-1.5 1.502v2.998a1.502 1.502 0 0 0 1.5 1.498h11a1.498 1.498 0 0 0 1.498-1.498zm-1.498-7.508v2.002a0.4988 0.4988 0 0 1-0.4961 0.5039h-10a0.5018 0.5018 0 0 1-0.5-0.5039v-2a0.4988 0.4988 0 0 1 0.5-0.4941h10a0.4988 0.4988 0 0 1 0.4961 0.4922zm0 8v2.002a0.4988 0.4988 0 0 1-0.4961 0.502h-10a0.5018 0.5018 0 0 1-0.5-0.502v-2.002a0.4958 0.4958 0 0 1 0.5-0.4941h10c0.2721 0 0.4961 0.216 0.4961 0.4941z" fill="url(#a)"/>
</svg>
