<svg version="1.1" viewBox="0 0 22 22" xmlns="http://www.w3.org/2000/svg">
 <defs>
  <linearGradient id="a" x2="0" y2="1">
   <stop stop-color="#00f0ff" offset="0"/>
   <stop stop-color="#00c3ff" offset="1"/>
  </linearGradient>
 </defs>
 <path transform="translate(0) scale(1) translate(-4.5e-5) scale(1) translate(.003318 .00113) scale(.9998) translate(-.0185 .001953) scale(.9998) matrix(1.18 0 0 1.18 -1.862 -1.812)" d="m2.5 3.81c-0.3774-1.147e-4 -0.682 0.3062-0.6803 0.6836v15.01c0.01531 0.8946 1.349 0.8946 1.364 0v-4.772h5.23c0.3783 0.0012 0.6848-0.3053 0.6836-0.6836v-5.916c-7.154e-4 -0.3768-0.3068-0.6803-0.6836-0.6786h-5.23v-2.956c3.341e-4 -0.3777-0.3059-0.6831-0.6836-0.6819zm0.6902 5.004h4.093c0.25 0 0.4519 0.2028 0.4519 0.4568v3.636c0 0.25-0.2019 0.4535-0.4519 0.4535h-4.093z" fill="url(#a)"/>
 <path transform="translate(0) scale(1) translate(-4.5e-5) scale(1) translate(.003318 .00113) scale(.9998) translate(-.0185 .001953) scale(.9998) matrix(1.18 0 0 1.18 -1.862 -1.812)" d="m13.42 3.808-0.0017 0.00166c-0.3783-0.00117-0.6848 0.3053-0.6836 0.6836v15.01c0 0.9093 1.364 0.9093 1.364 0v-1.589h5.232c0.3783 0.0012 0.6848-0.3053 0.6836-0.6836v-9.099c-6.7e-4 -0.3768-0.3067-0.6803-0.6835-0.6786h-5.232v-2.956c0.001716-0.3768-0.3018-0.6845-0.6786-0.6852zm0.6786 5.005h4.093c0.254 0 0.4568 0.2028 0.4568 0.4568v6.819c0 0.25-0.2028 0.4505-0.4568 0.4535h-4.093z" fill="url(#a)"/>
 <path transform="translate(0) scale(1) translate(-4.5e-5) scale(1) translate(.003318 .00113) scale(.9998) translate(-.0185 .001953) scale(.9998) matrix(1.18 0 0 1.18 -1.862 -1.812)" d="m9.399 1.534v0.00166a0.318 0.318 0 0 0-0.3161 0.3161v3.804c0 0.239 0.2574 0.3951 0.4684 0.2781l2.228-1.903c0.235-0.195 0.235-0.3538 0-0.5528l-2.228-1.903a0.34 0.34 0 0 0-0.1523-0.03972z" fill="#FDFF00"/>
 <path transform="translate(0) scale(1) translate(-4.5e-5) scale(1) translate(.003318 .00113) scale(.9998) translate(-.0185 .001953) scale(.9998) matrix(1.18 0 0 1.18 -1.862 -1.812)" d="m6.974 1.534-0.00166 0.00166a0.353 0.353 0 0 0-0.1523 0.03972l-2.221 1.9c-0.239 0.199-0.239 0.3595 0 0.5545l2.221 1.903a0.317 0.317 0 0 0 0.4701-0.2781v-3.804c0-0.172-0.1411-0.3178-0.3161-0.3178z" fill="#FDFF00"/>
</svg>
