<svg version="1.1" viewBox="0 0 22 22" xmlns="http://www.w3.org/2000/svg">
 <defs>
  <linearGradient id="a" x1="1" x2="0" y1=".5" y2=".5">
   <stop stop-color="#879af2" offset="0"/>
   <stop stop-color="#d3208b" offset=".5"/>
   <stop stop-color="#fda000" offset="1"/>
  </linearGradient>
 </defs>
 <path transform="translate(0) scale(1) translate(0) scale(1) translate(0 1.9e-5) scale(1) translate(.004989 .001837) scale(.9999) translate(-.000312) scale(5.197)" d="m2.752 0.1323a0.1058 0.1058 0 0 0-0.1059 0.1059v0.8465a0.1058 0.1058 0 0 0 0.1059 0.1059h1.111a0.1058 0.1058 0 0 0 0.1059-0.1059v-0.8465a0.1058 0.1058 0 0 0-0.1059-0.1059zm-2.646 0.2646a0.1058 0.1058 0 0 0-0.1059 0.1059v0.8465a0.1058 0.1058 0 0 0 0.1059 0.1059h1.111a0.1058 0.1058 0 0 0 0.1059-0.1059v-0.8465a0.1058 0.1058 0 0 0-0.1059-0.1059zm2.91 1.058a0.1058 0.1058 0 0 0-0.1059 0.1059v0.8465a0.1058 0.1058 0 0 0 0.1059 0.1059h1.111a0.1058 0.1058 0 0 0 0.1059-0.1059v-0.8465a0.1058 0.1058 0 0 0-0.1059-0.1059zm-1.588 0.2646a0.1058 0.1058 0 0 0-0.1059 0.1059v0.8465a0.1058 0.1058 0 0 0 0.1059 0.1059h1.111a0.1058 0.1058 0 0 0 0.1059-0.1059v-0.8465a0.1058 0.1058 0 0 0-0.1059-0.1059zm-1.323 1.323a0.1058 0.1058 0 0 0-0.1059 0.1059v0.8465a0.1058 0.1058 0 0 0 0.1059 0.1059h1.111a0.1058 0.1058 0 0 0 0.1059-0.1059v-0.8465a0.1058 0.1058 0 0 0-0.1059-0.1059zm1.588 0a0.1058 0.1058 0 0 0-0.1059 0.1059v0.8465a0.1058 0.1058 0 0 0 0.1059 0.1059h1.111a0.1058 0.1058 0 0 0 0.1059-0.1059v-0.8465a0.1058 0.1058 0 0 0-0.1059-0.1059z" fill="url(#a)"/>
</svg>
