<svg version="1.1" viewBox="0 0 22 22" xmlns="http://www.w3.org/2000/svg" xmlns:xlink="http://www.w3.org/1999/xlink">
 <defs>
  <linearGradient id="b" x1="3" x2="19" y1="11" y2="11" gradientTransform="matrix(0 -1.375 1.375 0 -4.124 26.12)" gradientUnits="userSpaceOnUse">
   <stop stop-color="#FE0844" offset="0"/>
   <stop stop-color="#FEB302" offset="1"/>
  </linearGradient>
  <linearGradient id="a" x1="9" x2="13" y1="11" y2="11" gradientTransform="matrix(0 -1.375 1.375 0 -4.124 17.87)" gradientUnits="userSpaceOnUse">
   <stop stop-color="#8D01A2" offset="0"/>
   <stop stop-color="#FF00D2" offset="1"/>
  </linearGradient>
  <linearGradient id="c" x1="3" x2="19" y1="11" y2="11" gradientTransform="matrix(0 -1.375 1.375 0 -4.124 34.37)" gradientUnits="userSpaceOnUse" xlink:href="#b"/>
 </defs>
 <path transform="translate(0) scale(1)" d="m17.05 21.99h4.399a0.5499 0.5499 0 0 0 0.5499-0.5499v-4.399a0.5499 0.5499 0 0 0-0.5499-0.5499h-4.399a0.5499 0.5499 0 0 0-0.5499 0.5499v4.399a0.5499 0.5499 0 0 0 0.5499 0.5499zm0.8248-1.65v-2.199a0.2749 0.2749 0 0 1 0.2749-0.2749h2.199a0.2749 0.2749 0 0 1 0.2749 0.2749v2.199a0.2749 0.2749 0 0 1-0.2749 0.2749h-2.199a0.2749 0.2749 0 0 1-0.2749-0.2749z" fill="url(#b)" stroke-width="1.375"/>
 <path transform="translate(0) scale(1)" d="m8.798 13.75h4.399a0.5499 0.5499 0 0 0 0.5499-0.5499v-4.399a0.5499 0.5499 0 0 0-0.5499-0.5499h-4.399a0.5499 0.5499 0 0 0-0.5499 0.5499v4.399a0.5499 0.5499 0 0 0 0.5499 0.5499zm0.8248-1.65v-2.199a0.2749 0.2749 0 0 1 0.2749-0.2749h2.199a0.2749 0.2749 0 0 1 0.2749 0.2749v2.199a0.2749 0.2749 0 0 1-0.2749 0.2749h-2.199a0.2749 0.2749 0 0 1-0.2749-0.2749z" fill="url(#c)" stroke-width="1.375"/>
 <path transform="translate(0) scale(1)" d="m0.5499 21.99h4.399a0.5499 0.5499 0 0 0 0.5499-0.5499v-4.399a0.5499 0.5499 0 0 0-0.5499-0.5499h-4.399a0.5499 0.5499 0 0 0-0.5499 0.5499v4.399a0.5499 0.5499 0 0 0 0.5499 0.5499zm0.8248-1.65v-2.199a0.2749 0.2749 0 0 1 0.2749-0.2749h2.199a0.2749 0.2749 0 0 1 0.2749 0.2749v2.199a0.2749 0.2749 0 0 1-0.2749 0.2749h-2.199a0.2749 0.2749 0 0 1-0.2749-0.2749z" fill="url(#b)" stroke-width="1.375"/>
 <path class="ColorScheme-Accent" transform="translate(0) scale(1)" d="m3.299 5.499h0.2749a0.5499 0.5499 0 0 0 0.5499-0.5499v-0.8248h2.749v0.8248a0.5499 0.5499 0 0 0 0.5499 0.5499h0.2749a0.5499 0.5499 0 0 0 0.5499-0.5499v-4.399a0.5499 0.5499 0 0 0-0.5499-0.5499h-0.2749a0.5499 0.5499 0 0 0-0.5499 0.5499v0.8248h-2.749v-0.8248a0.5499 0.5499 0 0 0-0.5499-0.5499h-0.2749a0.5499 0.5499 0 0 0-0.5499 0.5499v4.399a0.5499 0.5499 0 0 0 0.5499 0.5499zm11 0h0.2749a0.5499 0.5499 0 0 0 0.5499-0.5499v-0.8248h2.749v0.8248a0.5499 0.5499 0 0 0 0.5499 0.5499h0.2749a0.5499 0.5499 0 0 0 0.5499-0.5499v-4.399a0.5499 0.5499 0 0 0-0.5499-0.5499h-0.2749a0.5499 0.5499 0 0 0-0.5499 0.5499v0.8248h-2.749v-0.8248a0.5499 0.5499 0 0 0-0.5499-0.5499h-0.2749a0.5499 0.5499 0 0 0-0.5499 0.5499v4.399a0.5499 0.5499 0 0 0 0.5499 0.5499z" color="#3daee9" fill="url(#a)" stroke-width="1.375"/>
</svg>
