<svg version="1.1" viewBox="0 0 22 22" xmlns="http://www.w3.org/2000/svg">
 <defs>
  <linearGradient id="a" x1="1" x2="0" y2="1">
   <stop stop-color="#00f1fa" offset="0"/>
   <stop stop-color="#006cff" offset="1"/>
  </linearGradient>
 </defs>
 <path transform="translate(0) scale(1) translate(-.00015) scale(1) translate(.00115 .001953)" d="m7.83 7.188a0.6501 0.6501 0 0 0-0.6504 0.6504v0.832a0.6501 0.6501 0 0 0 0.6504 0.6504h1.18v3.365h-1.18a0.6501 0.6501 0 0 0-0.6504 0.6504v0.834a0.6501 0.6501 0 0 0 0.6504 0.6504h6.334a0.6501 0.6501 0 0 0 0.6504-0.6504v-0.834a0.6501 0.6501 0 0 0-0.6504-0.6504h-1.184v-3.365h1.184a0.6501 0.6501 0 0 0 0.6504-0.6504v-0.832a0.6501 0.6501 0 0 0-0.6504-0.6504z" fill="#f0f"/>
 <path transform="translate(0) scale(1) translate(-.00015) scale(1) translate(.00115 .001953)" d="m3.357 16.5c-0.8449 0-1.525 0.8153-1.525 1.832v1.834c0 1.017 0.6805 1.832 1.525 1.832h15.28c0.8449 0 1.529-0.8153 1.529-1.832v-1.834c0-1.017-0.6844-1.832-1.529-1.832z" fill="url(#a)"/>
 <path transform="translate(0) scale(1) translate(-.00015) scale(1) translate(.00115 .001953)" d="m3.357-0.001953c-0.8449 0-1.525 0.8173-1.525 1.834v1.832c0 1.017 0.6805 1.834 1.525 1.834h15.28c0.8449 0 1.529-0.8173 1.529-1.834v-1.832c0-1.017-0.6844-1.834-1.529-1.834z" fill="url(#a)"/>
</svg>
