<svg version="1.1" viewBox="0 0 22 22" xmlns="http://www.w3.org/2000/svg">
 <defs>
  <linearGradient id="a" x1="1" x2="0" y1=".5" y2=".5">
   <stop stop-color="#e6ff00" offset="0"/>
   <stop stop-color="#dcba14" offset="1"/>
  </linearGradient>
 </defs>
 <path transform="translate(0) scale(1) translate(0) scale(1) translate(-.008554 -.004491) scale(1) translate(-.05165 -.02876) scale(1.003) matrix(1.621 0 0 1.621 -1.861 -2.073)" d="m3.445 9.387a0.989 0.989 0 0 0-0.9916 0.9916v0.9916h-0.6338a0.663 0.663 0 0 0 0 1.323h0.6338v0.9952c0 0.546 0.4416 0.9928 0.9916 0.9928h5.98c0.552 0 0.994-0.4468 0.994-0.9928v-0.9952h1.982a0.664 0.664 0 0 0 0.6651-0.6639c0-0.363-0.2971-0.6591-0.6651-0.6591h-1.982v-0.9916a0.989 0.989 0 0 0-0.9916-0.9916zm0.6615 0.994h4.659c0.367 0 0.6603 0.2933 0.6603 0.6603v1.982a0.66 0.66 0 0 1-0.6603 0.6651h-4.659a0.663 0.663 0 0 1-0.6615-0.6651v-1.982a0.66 0.66 0 0 1 0.6615-0.6603z" fill="url(#a)"/>
 <path transform="translate(0) scale(1) translate(0) scale(1) translate(-.008554 -.004491) scale(1) translate(-.05165 -.02876) scale(1.003) matrix(1.621 0 0 1.621 -1.861 -2.073)" d="m13.09 5.325c-0.06143 0.00504-0.1225 0.0483-0.1904 0.1289l-1.383 1.616a0.23 0.23 0 0 0 0.2036 0.3422h2.766c0.128 0 0.2301-0.1011 0.2301-0.2301h-0.001205c0-0.035-0.007702-0.07708-0.02771-0.1121l-1.381-1.616c-0.07703-0.09138-0.1473-0.1346-0.2169-0.1289zm-1.37 3.391a0.23 0.23 0 0 0-0.2036 0.341l1.383 1.616c0.145 0.176 0.2623 0.176 0.4073 0l1.381-1.616a0.207 0.207 0 0 0 0.02771-0.1108 0.228 0.228 0 0 0-0.2301-0.2301h-2.765z" fill="#f0f"/>
 <path transform="translate(0) scale(1) translate(0) scale(1) translate(-.008554 -.004491) scale(1) translate(-.05165 -.02876) scale(1.003) matrix(1.621 0 0 1.621 -1.861 -2.073)" d="m6.117 1.449a0.991 0.991 0 0 0-0.9916 0.9916v0.994h-3.306a0.66 0.66 0 0 0 0 1.319h3.306v0.9928c0 0.55 0.4446 0.9916 0.9916 0.9916h3.309c0.55 0 0.9916-0.4406 0.9916-0.9916v-0.9928a0.66 0.66 0 0 0 0.0012 0h1.982a0.66 0.66 0 0 0 0.6651-0.6591c0-0.364-0.2971-0.6603-0.6651-0.6603h-1.982a0.66 0.66 0 0 0-0.0012 0v-0.994a0.989 0.989 0 0 0-0.9916-0.9916zm0.6615 0.994h1.987c0.367 0 0.6591 0.2923 0.6591 0.6603l0.0012-0.0012v1.984c0 0.367-0.2933 0.6603-0.6603 0.6603h-1.986a0.66 0.66 0 0 1-0.6639-0.6603v-1.983a0.66 0.66 0 0 1 0.6627-0.6603z" fill="url(#a)"/>
</svg>
