<svg version="1.1" viewBox="0 0 22 22" xmlns="http://www.w3.org/2000/svg">
 <defs>
  <linearGradient id="a" y1="1">
   <stop stop-color="#46d9ff" offset="0"/>
   <stop stop-color="#ff23ff" offset=".5"/>
   <stop stop-color="#ffd93f" offset="1"/>
  </linearGradient>
 </defs>
 <path transform="translate(-0) scale(1) translate(1e-6 .000451)" d="m7.426 1.812c-0.4389 0-0.8008 0.36-0.8008 0.7988v0.2754c0 0.4389 0.3619 0.7988 0.8008 0.7988h5.773c0.4389 0 0.8008-0.36 0.8008-0.7988v-0.2754c0-0.4389-0.3619-0.7988-0.8008-0.7988zm11 5.498c-0.4394-7.99e-4 -0.8027 0.3614-0.8027 0.8008v5.773c0 0.4389 0.3619 0.8008 0.8008 0.8008h0.2734c0.4389 0 0.8008-0.3619 0.8008-0.8008v-5.773c-8.4e-5 -0.4387-0.3619-0.8008-0.8008-0.8008zm-11 11c-0.4389 0-0.8008 0.36-0.8008 0.7988v0.2754c0 0.4389 0.3619 0.7988 0.8008 0.7988h5.773c0.4389 0 0.8008-0.36 0.8008-0.7988v-0.2754c0-0.4389-0.3619-0.7988-0.8008-0.7988z" fill="#fdff00" stop-color="#000000" stroke-linecap="round" stroke-linejoin="round"/>
 <path transform="translate(-0) scale(1) translate(-0) scale(1) translate(-0 .0014) scale(1) translate(1e-6 -.000949) scale(1)" d="m0.5508 0.6875a0.55 0.55 0 0 0-0.5508 0.5488v19.52a0.55 0.55 0 0 0 0.5508 0.5508h4.398a0.55 0.55 0 0 0 0.5508-0.5508v-19.52a0.55 0.55 0 0 0-0.5508-0.5508zm15.12 0a0.55 0.55 0 0 0-0.5508 0.5488v4.354a0.595 0.595 0 0 0 0.5957 0.5957h5.727a0.55 0.55 0 0 0 0.5508-0.5488v-4.4a0.55 0.55 0 0 0-0.5508-0.5488zm0 15.12a0.55 0.55 0 0 0-0.5508 0.5488v4.4a0.55 0.55 0 0 0 0.5508 0.5488h5.771a0.55 0.55 0 0 0 0.5508-0.5488v-4.4a0.55 0.55 0 0 0-0.5488-0.5488z" fill="url(#a)" stroke-width="5.197"/>
</svg>
