<svg version="1.1" viewBox="0 0 22 22" xmlns="http://www.w3.org/2000/svg">
 <g transform="translate(0) scale(1) translate(0) scale(1) translate(0) scale(1)" fill="#ff0080">
  <path d="M2.2 5.133a2.2 2.2 0 0 0-2.2 2.2 2.2 2.2 0 0 0 2.2 2.2 2.2 2.2 0 0 0 2.2-2.2 2.2 2.2 0 0 0-2.2-2.2m0 1.467a.733.733 0 0 1 .733.734.733.733 0 0 1-.733.733.733.733 0 0 1-.733-.733A.733.733 0 0 1 2.2 6.6M2.2 12.467a2.2 2.2 0 0 0-2.2 2.2 2.2 2.2 0 0 0 2.2 2.2 2.2 2.2 0 0 0 2.2-2.2 2.2 2.2 0 0 0-2.2-2.2m0 1.467a.733.733 0 0 1 .733.733.733.733 0 0 1-.733.733.733.733 0 0 1-.733-.733.733.733 0 0 1 .733-.733M8.067 5.133a2.2 2.2 0 0 0-2.2 2.2 2.2 2.2 0 0 0 2.2 2.2 2.2 2.2 0 0 0 2.2-2.2 2.2 2.2 0 0 0-2.2-2.2m0 1.467a.733.733 0 0 1 .733.734.733.733 0 0 1-.733.733.733.733 0 0 1-.733-.733.733.733 0 0 1 .733-.734M8.067 12.467a2.2 2.2 0 0 0-2.2 2.2 2.2 2.2 0 0 0 2.2 2.2 2.2 2.2 0 0 0 2.2-2.2 2.2 2.2 0 0 0-2.2-2.2m0 1.467a.733.733 0 0 1 .733.733.733.733 0 0 1-.733.733.733.733 0 0 1-.733-.733.733.733 0 0 1 .733-.733M13.934 5.133a2.2 2.2 0 0 0-2.2 2.2 2.2 2.2 0 0 0 2.2 2.2 2.2 2.2 0 0 0 2.2-2.2 2.2 2.2 0 0 0-2.2-2.2m0 1.467a.733.733 0 0 1 .733.734.733.733 0 0 1-.733.733.733.733 0 0 1-.734-.733.733.733 0 0 1 .734-.734M13.934 12.467a2.2 2.2 0 0 0-2.2 2.2 2.2 2.2 0 0 0 2.2 2.2 2.2 2.2 0 0 0 2.2-2.2 2.2 2.2 0 0 0-2.2-2.2m0 1.467a.733.733 0 0 1 .733.733.733.733 0 0 1-.733.733.733.733 0 0 1-.734-.733.733.733 0 0 1 .734-.733M19.8 5.133a2.2 2.2 0 0 0-2.2 2.2 2.2 2.2 0 0 0 2.2 2.2 2.2 2.2 0 0 0 2.2-2.2 2.2 2.2 0 0 0-2.2-2.2m0 1.467a.733.733 0 0 1 .734.734.733.733 0 0 1-.733.733.733.733 0 0 1-.734-.733.733.733 0 0 1 .734-.734M19.8 12.467a2.2 2.2 0 0 0-2.2 2.2 2.2 2.2 0 0 0 2.2 2.2 2.2 2.2 0 0 0 2.2-2.2 2.2 2.2 0 0 0-2.2-2.2m0 1.467a.733.733 0 0 1 .734.733.733.733 0 0 1-.733.733.733.733 0 0 1-.734-.733.733.733 0 0 1 .734-.733"/>
 </g>
</svg>
