<svg version="1.1" viewBox="0 0 22 22" xmlns="http://www.w3.org/2000/svg">
 <path transform="translate(0 -1e-6) scale(1) translate(0 .003166) scale(1)" d="M6.284 3.142c0 .623-.238 1.332-.578 1.813s-.599.65-.993.887v9.081c-.035.274.045.37.23.555s.282.265.555.23h.786v-.785a.785.785 0 0 1 1.256-.628l3.142 2.356a.785.785 0 0 1 0 1.257L7.54 20.264a.784.784 0 0 1-1.256-.628v-.786h-.786c-1.029-.034-2.11-.482-2.777-1.15s-1.115-1.748-1.15-2.777V5.837c-.39-.238-.652-.402-.993-.882S0 3.765 0 3.142C0 2.332.394 1.445.92.92 1.446.394 2.332 0 3.143 0s1.696.393 2.221.92c.526.524.92 1.41.92 2.22m6.283-1.571h.785c1.03.035 2.11.482 2.778 1.15s1.115 1.748 1.15 2.777v2.394a.786.786 0 0 1-.786.786h-1.57a.786.786 0 0 1-.786-.786V5.498c.034-.273-.046-.369-.231-.554s-.281-.266-.555-.231h-.785v.785a.785.785 0 0 1-1.257.628L8.17 3.77a.785.785 0 0 1 0-1.256L11.31.157a.784.784 0 0 1 1.257.629zm8.64 15.708h-4.292l-2.91 4.363a.786.786 0 0 1-1.438-.435V10.21c0-.302.173-.577.444-.709a.79.79 0 0 1 .831.096l7.855 6.283a.785.785 0 0 1-.49 1.398M2.357 3.142a.786.786 0 1 0 1.57 0 .786.786 0 0 0-1.57 0" fill="red"/>
</svg>
