<svg version="1.1" viewBox="0 0 22 22" xmlns="http://www.w3.org/2000/svg">
 <defs>
  <linearGradient id="a" y1="1">
   <stop stop-color="#05f" offset="0"/>
   <stop stop-color="#00ffd8" offset="1"/>
  </linearGradient>
 </defs>
 <path transform="translate(-0) scale(1) translate(-0) scale(1) translate(-0) scale(1) translate(-0) scale(1) translate(-0) scale(1) translate(-0) scale(1) translate(-.001)" d="M8.938 0a2.06 2.06 0 0 0-2.06 2.062v2.06l-.008 2.06v9.621c0 1.139.924 2.063 2.062 2.062h4.121l2.068.008h3.438a2.06 2.06 0 0 0 2.06-2.062V4.29a2.06 2.06 0 0 0-.603-1.457L17.788.606A2.06 2.06 0 0 0 16.33.002zm.256 2.062h4.557v3.781c0 .57.46 1.031 1.029 1.031h3.78v8.676a.26.26 0 0 1-.257.258l-.004.002H9.193a.26.26 0 0 1-.258-.26V2.32c.001-.142.116-.256.258-.256zm6.615 0h.412a.26.26 0 0 1 .184.076l2.076 2.078a.26.26 0 0 1 .076.182v.414h-2.748z" fill="url(#a)"/>
 <path transform="translate(-0) scale(1) translate(-0) scale(1) translate(-0) scale(1) translate(-0) scale(1) translate(-0) scale(1) translate(-0) scale(1) translate(-.001)" d="M3.438 4.123a2.06 2.06 0 0 0-2.06 2.06v13.75a2.06 2.06 0 0 0 2.06 2.062h9.621a2.06 2.06 0 0 0 2.062-2.062v-2.059l-2.068-.008v1.805a.26.26 0 0 1-.258.258l.002.002H3.688a.26.26 0 0 1-.258-.258V6.443c0-.142.116-.258.258-.258l.002-.002h3.18l.008-2.06z" fill="url(#a)"/>
</svg>
