<svg version="1.1" viewBox="0 0 22 22" xmlns="http://www.w3.org/2000/svg">
 <path transform="translate(.4806 .4783) scale(.9566)" d="m7.068-0.5c-2.005 0.001276-3.641 1.637-3.641 3.643a0.5 0.5 0 0 0 0 0.001953c0.00237 1.175 0.6278 2.217 1.57 2.895v8.104s-0.00632 1.283 0.6426 2.58c0.6489 1.298 2.049 2.633 4.572 2.633h1.068v2.643a0.5 0.5 0 0 0 0.8008 0.4004l6.285-4.715a0.5 0.5 0 0 0 0-0.7988l-6.283-4.713a0.5 0.5 0 0 0-0.8008 0.3984v2.643h-1.07c-0.6183 0-0.7911-0.2346-0.9277-0.5078-0.1366-0.2732-0.1426-0.5625-0.1426-0.5625v-8.104c0.9424-0.6778 1.568-1.719 1.57-2.895 6.38e-4 -2.007-1.638-3.645-3.645-3.645z" fill="#00ff80" stop-color="#000000" stroke-linecap="round" stroke-linejoin="round"/>
</svg>
