<svg version="1.1" viewBox="0 0 22 22" xmlns="http://www.w3.org/2000/svg">
 <path transform="translate(-.00199 3.5e-5) scale(1) translate(-.00035)" d="m12.69 0-5.814 0.001953a5.046 5.046 0 0 0-5.039 5.039v10.59c0.06382-0.09095 0.1368-0.1778 0.2168-0.2578l2.531-2.529v-7.801a2.29 2.29 0 0 1 2.291-2.289h5.041v3.664a1.83 1.83 0 0 0 1.393 1.781c-0.04807-0.1765-0.07041-0.3615-0.06445-0.5488 0.01526-0.4843 0.2055-0.9419 0.541-1.277 0.2593-0.2593 0.4369-0.4184 0.7871-0.4883 0.04821-0.04931 0.1508-0.06331 0.2598-0.06445 0.109-0.00114 0.224 0.01039 0.293 0.01172 0.4819 0.01537 0.9385 0.2041 1.273 0.5391l3.549 3.549c0.08137 0.08137 0.1541 0.169 0.2188 0.2617v-2.703l2e-3 -0.00195a5.02 5.02 0 0 0-1.479-3.566l-2.434-2.436a5 5 0 0 0-3.566-1.477zm7.477 12.27c-0.06459 0.09272-0.1373 0.1802-0.2188 0.2617l-2.531 2.529v1.898l-2e-3 2e-3a2.29 2.29 0 0 1-2.289 2.291h-6.625c0.1762 0.3011 0.2671 0.649 0.2559 1.006-0.01524 0.4829-0.2062 0.9377-0.5391 1.271h-0.00195c-0.2181 0.2192-0.4857 0.3796-0.7753 0.4668h7.686a5.046 5.046 0 0 0 5.041-5.039zm-18.25 5.562a5.046 5.046 0 0 0 4.375 4.129c-0.2572-0.09053-0.4932-0.2354-0.6875-0.4297l-3.549-3.545c-0.04912-0.04912-0.09561-0.1009-0.1387-0.1543z" fill="#00f"/>
 <path transform="translate(-.00199 3.5e-5) scale(1)" d="m6.909 11.81c-0.3862 0-0.705 0.1229-0.9548 0.3728l-3.548 3.548c-0.2726 0.2726-0.4065 0.589-0.4065 0.9524s0.1339 0.6822 0.4065 0.9548l3.548 3.545c0.2499 0.2499 0.5628 0.3801 0.938 0.3921 0.3753 0.01194 0.6976-0.1185 0.9692-0.3921 0.2499-0.2499 0.3826-0.5612 0.3944-0.9356s-0.1099-0.6981-0.3608-0.9717l-1.193-1.229h4.295c0.3862 0 0.7099-0.1279 0.9717-0.3896 0.2618-0.2617 0.3906-0.5887 0.3896-0.9741-9.85e-4 -0.3853-0.1288-0.7099-0.3896-0.9717-0.2608-0.2618-0.5854-0.3896-0.9717-0.3896h-4.295l1.193-1.229c0.2499-0.2499 0.3752-0.5612 0.3752-0.9356 0-0.3745-0.1362-0.6981-0.4088-0.9717-0.2499-0.2499-0.5662-0.3728-0.9524-0.3728z" fill="#0f0" stroke-width="1.231"/>
 <path transform="translate(-.00199 3.5e-5) scale(1)" d="m15.11 6.335v0.00241c-0.3745-0.01183-0.6981 0.1185-0.9717 0.3921-0.2499 0.2499-0.3826 0.5628-0.3944 0.938-0.01194 0.3753 0.1099 0.6976 0.3608 0.9692l1.193 1.229h-4.295c-0.3862 0-0.7109 0.1303-0.9717 0.3921-0.2608 0.2618-0.3886 0.5863-0.3896 0.9717-9.089e-4 0.3854 0.127 0.7089 0.3896 0.9717 0.2627 0.2627 0.5873 0.3913 0.9717 0.3896h4.295l-1.193 1.229c-0.2499 0.2499-0.3752 0.5603-0.3752 0.9356s0.1362 0.6999 0.4088 0.9717c0.2499 0.2499 0.5662 0.3728 0.9524 0.3728 0.3862 0 0.705-0.1229 0.9548-0.3728l3.548-3.545c0.2726-0.2726 0.4065-0.5914 0.4065-0.9548 0-0.3634-0.1339-0.6797-0.4065-0.9524l-3.548-3.548c-0.2499-0.2499-0.5612-0.3801-0.9356-0.3921z" fill="#fdff00" stroke-width="1.231"/>
</svg>
