<svg version="1.1" viewBox="0 0 22 22" xmlns="http://www.w3.org/2000/svg">
 <path transform="translate(0) scale(1) translate(0) scale(1) translate(0) scale(1) translate(0) scale(1) translate(0) scale(1)" d="M6.874 0a5.047 5.047 0 0 0-5.039 5.039v11.92a5.047 5.047 0 0 0 5.039 5.039h8.25a5.046 5.046 0 0 0 5.039-5.039v-9.48a5 5 0 0 0-1.475-3.564l-2.436-2.434A5 5 0 0 0 12.69.004zm0 2.746v.004h5.039v3.666a1.84 1.84 0 0 0 1.834 1.834h3.668v8.707a2.3 2.3 0 0 1-.674 1.619 2.3 2.3 0 0 1-1.617.672h-8.25a2.295 2.295 0 0 1-2.29-2.291V5.037a2.293 2.293 0 0 1 2.29-2.291z" fill="#0f0" opacity=".4"/>
 <path transform="translate(0) scale(1) translate(0) scale(1) translate(0) scale(1) translate(0) scale(1) translate(0) scale(1)" d="M11.019 9.133a1.37 1.37 0 0 0-.957.38 1.28 1.28 0 0 0-.406.934v1.956H7.728a1.32 1.32 0 0 0-1.34 1.331c0 .363.135.7.383.96a1.28 1.28 0 0 0 .933.404h1.951v1.93c0 .361.136.695.387.947.253.256.596.39.97.39.35 0 .676-.132.934-.378a1.28 1.28 0 0 0 .406-.936v-1.95h1.93a1.33 1.33 0 0 0 .948-.386c.255-.253.388-.596.388-.97 0-.349-.132-.677-.379-.936a1.28 1.28 0 0 0-.935-.404h-1.95v-1.932c0-.362-.136-.697-.386-.95a1.32 1.32 0 0 0-.947-.388z" fill="#0f0"/>
</svg>
