<svg version="1.1" viewBox="0 0 22 22" xmlns="http://www.w3.org/2000/svg">
 <defs>
  <linearGradient id="a" x1="1" x2="0" y1="1">
   <stop stop-color="#0078ff" offset="0"/>
   <stop stop-color="#00fffa" offset="1"/>
  </linearGradient>
  <linearGradient id="c" x1="22.67" x2="5.468" y1="17.2" gradientTransform="matrix(-.2743 0 0 -.4487 20.43 17.93)" gradientUnits="userSpaceOnUse">
   <stop stop-color="#ffab00" offset=".19"/>
   <stop stop-color="#ff004c" offset=".83"/>
  </linearGradient>
 </defs>
 <path transform="translate(-0) scale(1) translate(-0) scale(1) translate(-0) scale(1) translate(-0) scale(1) translate(-0) scale(1) translate(-0) scale(1) translate(-0) scale(1) translate(-0) scale(1) translate(-0) scale(1) translate(-0) scale(1) translate(-0) scale(1) translate(-0) scale(1) translate(-0) scale(1) translate(.001733 .00025) scale(1) translate(-1.279 -1.279) scale(1.023)" d="m8 5.25c-1.414 0-2.491-0.004071-3.393 0.1172-0.9019 0.1213-1.678 0.3989-2.26 0.9805s-0.8592 1.358-0.9805 2.26c-0.1213 0.9019-0.1172 1.978-0.1172 3.393s-0.00407 2.491 0.1172 3.393 0.3989 1.678 0.9805 2.26c0.8489 0.8489 2.029 1.032 3.629 1.08l0.04688-1.5c-1.507-0.04539-2.182-0.207-2.615-0.6406-0.2971-0.2971-0.4563-0.6684-0.5547-1.4-0.09841-0.732-0.1035-1.777-0.1035-3.191s0.005104-2.459 0.1035-3.191c0.09841-0.732 0.2576-1.103 0.5547-1.4s0.6684-0.4563 1.4-0.5547c0.732-0.09841 1.777-0.1035 3.191-0.1035h8c1.414 0 2.459 0.0051 3.191 0.1035 0.732 0.09841 1.103 0.2576 1.4 0.5547 0.2971 0.2971 0.4563 0.6684 0.5547 1.4 0.09841 0.732 0.1035 1.777 0.1035 3.191s-0.0051 2.459-0.1035 3.191c-0.09841 0.732-0.2576 1.103-0.5547 1.4-0.4337 0.4337-1.108 0.5952-2.615 0.6406l0.04687 1.5c1.6-0.04821 2.78-0.2312 3.629-1.08 0.5816-0.5816 0.8592-1.358 0.9805-2.26 0.1213-0.9019 0.1172-1.978 0.1172-3.393s0.0041-2.491-0.1172-3.393c-0.1213-0.9019-0.3989-1.678-0.9805-2.26-0.5816-0.5816-1.358-0.8592-2.26-0.9805s-1.978-0.1172-3.393-0.1172z" fill="url(#a)"/>
 <path transform="translate(-0) scale(1) translate(-0) scale(1) translate(-0) scale(1) translate(-0) scale(1) translate(-0) scale(1) translate(-0) scale(1) translate(-0) scale(1) translate(-0) scale(1) translate(-0) scale(1) translate(-0) scale(1) translate(-0) scale(1) translate(-0) scale(1) translate(-0) scale(1) translate(.001733 .00025) scale(1) translate(-1.279 -1.279) scale(1.023)" d="M 6,9.25 A 0.75,0.75 0 0 0 5.25,10 0.75,0.75 0 0 0 6,10.75 H 9 A 0.75,0.75 0 0 0 9.75,10 0.75,0.75 0 0 0 9,9.25 Z" fill="url(#a)"/>
 <path transform="translate(-0) scale(1) translate(-0) scale(1) translate(-0) scale(1) translate(-0) scale(1) translate(-0) scale(1) translate(-0) scale(1) translate(-0) scale(1) translate(-0) scale(1) translate(-0) scale(1) translate(-0) scale(1) translate(-0) scale(1) translate(-0) scale(1) translate(-0) scale(1) translate(.001733 .00025) scale(1) translate(-1.279 -1.279) scale(1.023)" d="m5 13.25a0.75 0.75 0 0 0-0.75 0.75 0.75 0.75 0 0 0 0.75 0.75h14a0.75 0.75 0 0 0 0.75-0.75 0.75 0.75 0 0 0-0.75-0.75z" fill="url(#a)"/>
 <path transform="translate(-0) scale(1) translate(-0) scale(1) translate(-0) scale(1) translate(-0) scale(1) translate(-0) scale(1) translate(-0) scale(1) translate(-0) scale(1) translate(-0) scale(1) translate(-0) scale(1) translate(-0) scale(1) translate(-0) scale(1) translate(-0) scale(1) translate(-0) scale(1) translate(.001733 .00025) scale(1) translate(-1.279 -1.279) scale(1.023)" d="m12 1.25c-1.393 0-2.514-9.225e-4 -3.393 0.1172-0.9001 0.121-1.658 0.3786-2.26 0.9805-0.872 0.872-1.034 2.087-1.08 3.629l1.5 0.04688c0.04715-1.565 0.23-2.205 0.6406-2.615 0.2768-0.2768 0.6666-0.456 1.4-0.5547 0.7554-0.1016 1.756-0.1035 3.191-0.1035s2.436 0.00196 3.191 0.1035c0.7338 0.09865 1.124 0.2779 1.4 0.5547 0.4106 0.4106 0.5935 1.05 0.6406 2.615l1.5-0.04688c-0.0464-1.542-0.2081-2.757-1.08-3.629-0.602-0.6019-1.36-0.8594-2.26-0.9805-0.8786-0.1181-2-0.1172-3.393-0.1172zm-6 12c-0.4142 0-0.75 0.3358-0.75 0.75v2c0 1.393-9.225e-4 2.514 0.1172 3.393 0.121 0.9001 0.3786 1.658 0.9805 2.26 0.6019 0.6019 1.36 0.8595 2.26 0.9805 0.8785 0.1181 2 0.1172 3.393 0.1172s2.514 9.12e-4 3.393-0.1172c0.9001-0.121 1.658-0.3786 2.26-0.9805 0.6019-0.602 0.8595-1.36 0.9805-2.26 0.1181-0.8786 0.1172-2 0.1172-3.393v-2c0-0.4142-0.3358-0.75-0.75-0.75s-0.75 0.3358-0.75 0.75v2c0 1.435-2e-3 2.436-0.1035 3.191-0.0987 0.7338-0.2779 1.124-0.5547 1.4s-0.6666 0.456-1.4 0.5547c-0.7554 0.1015-1.756 0.1035-3.191 0.1035s-2.436-2e-3 -3.191-0.1035c-0.7338-0.0987-1.124-0.2779-1.4-0.5547s-0.456-0.6666-0.5547-1.4c-0.1016-0.7554-0.1035-1.756-0.1035-3.191v-2c0-0.4142-0.3358-0.75-0.75-0.75z" fill="url(#a)"/>
 <path transform="translate(-0) scale(1) translate(-0) scale(1) translate(-0) scale(1) translate(-0) scale(1) translate(-0) scale(1) translate(-0) scale(1) translate(-0) scale(1) translate(-0) scale(1) translate(-0) scale(1) translate(-0) scale(1) translate(-0) scale(1) translate(-0) scale(1) translate(-0) scale(1) translate(.001733 .00025) scale(1) translate(-1.279 -1.279) scale(1.023)" d="m17 9a1 1 0 0 0-1 1 1 1 0 0 0 1 1 1 1 0 0 0 1-1 1 1 0 0 0-1-1z" fill="url(#a)"/>
 <path transform="translate(-0) scale(1) translate(-0) scale(1) translate(-0) scale(1) translate(-0) scale(1) translate(-0) scale(1) translate(-0) scale(1) translate(-0) scale(1) translate(-0) scale(1) translate(-0) scale(1) translate(-0) scale(1) translate(-0) scale(1) translate(-0) scale(1) translate(-0) scale(1) translate(.001733 .00025) scale(1) translate(-1.279 -1.279) scale(1.023)" d="m9 15.75a0.75 0.75 0 0 0-0.75 0.75 0.75 0.75 0 0 0 0.75 0.75h6a0.75 0.75 0 0 0 0.75-0.75 0.75 0.75 0 0 0-0.75-0.75z" fill="url(#a)"/>
 <path transform="translate(-0) scale(1) translate(-0) scale(1) translate(-0) scale(1) translate(-0) scale(1) translate(-0) scale(1) translate(-0) scale(1) translate(-0) scale(1) translate(-0) scale(1) translate(-0) scale(1) translate(-0) scale(1) translate(-0) scale(1) translate(-0) scale(1) translate(-0) scale(1) translate(.001733 .00025) scale(1) translate(-1.279 -1.279) scale(1.023)" d="m9 18.25a0.75 0.75 0 0 0-0.75 0.75 0.75 0.75 0 0 0 0.75 0.75h4a0.75 0.75 0 0 0 0.75-0.75 0.75 0.75 0 0 0-0.75-0.75z" fill="url(#a)"/>
 <path transform="translate(-0) scale(1)" d="m15.03 9.717c-0.3364 0-0.6742 0.1253-0.9297 0.377a0.5 0.5 0 0 0-0.003906 0.005859c-0.5032 0.511-0.5032 1.345 0 1.855a0.5 0.5 0 0 0 0.001953 0.003906l2.111 2.113-2.115 2.113c-0.248 0.2466-0.3838 0.584-0.3809 0.9336 3.85e-4 0.3494 0.1407 0.6836 0.3906 0.9277 0.1509 0.1503 0.3685 0.1721 0.5684 0.2344a0.5 0.5 0 0 0 0.3574 0.1504c0.3486-2.78e-4 0.6827-0.1388 0.9297-0.3848a0.5 0.5 0 0 0 0-0.001953l3.109-3.111c0.4736-0.4719 0.4741-1.254 0.001954-1.727l-0.001954-0.001953-3.109-3.109a0.5 0.5 0 0 0-0.001954-0.001953c-0.2555-0.2514-0.5913-0.377-0.9277-0.377z" fill="url(#c)" stop-color="#000000" stroke-linecap="round" stroke-linejoin="round"/>
</svg>
