<svg version="1.1" viewBox="0 0 22 22" xmlns="http://www.w3.org/2000/svg">
 <defs>
  <linearGradient id="c" x1="2.147" x2="46.46" y1="45.86" y2="1.54" gradientTransform="matrix(-.2275 0 0 .2333 20.9 10.51)" gradientUnits="userSpaceOnUse">
   <stop stop-color="#00ff87" offset="0"/>
   <stop stop-color="#60efff" offset="1"/>
  </linearGradient>
  <linearGradient id="a" x2="0" y1="1">
   <stop stop-color="#feaa00" offset="0"/>
   <stop stop-color="#fd0575" offset=".5"/>
   <stop stop-color="#7b31fe" offset="1"/>
  </linearGradient>
 </defs>
 <path transform="translate(-.001374 -.001724) scale(.9999) translate(.000444 .000869) scale(.3437) translate(-29.09 -28.92) scale(1.455)" d="M41.99 19.88c-2.848 0-5.138-.003-6.936.238-1.842.248-3.396.776-4.628 2.007-1.514 1.514-1.98 3.533-2.144 6.038q-.742.05-1.414.14c-1.846.249-3.433.818-4.624 2.008s-1.759 2.774-2.007 4.62-.242 4.049-.242 6.944-.006 5.095.242 6.94.817 3.437 2.007 4.628c1.483 1.483 3.459 1.972 6.042 2.144q.049.752.137 1.414c.247 1.842.775 3.392 2.007 4.624s2.783 1.756 4.624 2.004c1.798.242 4.094.242 6.944.242s5.142 0 6.94-.242c1.842-.248 3.392-.772 4.624-2.004q.265-.265.488-.55l-2.191-2.223a3 3 0 0 1-.469.602c-.566.564-1.363.93-2.863 1.132-1.546.208-3.594.211-6.53.211s-4.985-.003-6.53-.21c-1.502-.203-2.298-.567-2.863-1.134-.564-.566-.934-1.367-1.136-2.867-.208-1.545-.215-3.593-.215-6.53l.004-.511h8.061a9.3 9.3 0 0 1 .531-3.07H27.66a1.535 1.535 0 0 0 0 3.07h.512v.511q-.001 1.299.008 2.445c-2.013-.157-3.06-.51-3.777-1.23-.608-.607-.931-1.366-1.133-2.863-.202-1.498-.215-3.637-.215-6.53s.013-5.032.215-6.53.524-2.256 1.133-2.863c.608-.607 1.366-.934 2.863-1.136 1.497-.2 3.638-.21 6.53-.21h16.38c2.893 0 5.033.01 6.53.21 1.498.202 2.256.529 2.863 1.136.608.608.935 1.366 1.136 2.863.201 1.498.21 3.637.21 6.53s-.009 5.033-.21 6.53c-.202 1.498-.528 2.256-1.136 2.863-.486.487-1.12.804-2.101 1.008q-.069.226-.149.446c-.012.041-.022.085-.039.129l-.007.015c-.012.029-.028.057-.04.086l1.89 2.054c1.006-.33 1.873-.823 2.617-1.566 1.19-1.19 1.76-2.782 2.007-4.628.249-1.846.243-4.045.243-6.94s.006-5.099-.243-6.944c-.248-1.846-.817-3.429-2.007-4.62-1.19-1.19-2.778-1.759-4.624-2.007-.449-.06-.917-.107-1.414-.14-.164-2.505-.63-4.524-2.144-6.038-1.232-1.232-2.786-1.76-4.628-2.007-1.796-.242-4.089-.239-6.936-.239zm0 3.07h.004c2.936 0 4.98.003 6.526.21 1.502.203 2.298.567 2.863 1.134.686.686 1.064 1.685 1.23 3.773-.756-.006-1.567-.004-2.441-.004h-16.36c-.873 0-1.685-.002-2.441.004.167-2.088.544-3.088 1.23-3.773.566-.567 1.363-.93 2.863-1.133 1.545-.208 3.59-.211 6.526-.211m10.24 12.79a2.045 2.045 0 1 0 0 4.092 2.045 2.045 0 1 0 0-4.092m-22.51.512a1.535 1.535 0 0 0 0 3.07h6.139a1.535 1.535 0 0 0 0-3.07z" fill="url(#a)"/>
 <path transform="translate(-.001374 -.001724) scale(.9999) translate(.000444 .000869) scale(.3437) translate(0 -.003) scale(2.909)" d="M15.49 16.69a.347.347 0 0 1 .478.105.345.345 0 0 1-.104.477 2.887 2.887 0 0 1-3.047.043 2.9 2.9 0 0 1-1.308-1.775 2.89 2.89 0 0 1 .33-2.18 2.9 2.9 0 0 1 1.775-1.308 2.89 2.89 0 0 1 2.18.33 2.89 2.89 0 0 1 1.392 2.44.344.344 0 0 1-.341.349.347.347 0 0 1-.35-.342 2.187 2.187 0 0 0-4.063-1.112 2.194 2.194 0 0 0 .743 3.006 2.19 2.19 0 0 0 2.315-.034zm.804-.925a.345.345 0 0 1 .627.291q-.076.166-.173.318a.346.346 0 1 1-.586-.365q.075-.117.132-.244zm-4.084-3.292a.403.403 0 0 1-.535-.604 3.98 3.98 0 0 1 2.631-.995c1.053 0 2.064.42 2.811 1.164a3.99 3.99 0 0 1 1.164 2.81c0 1.054-.42 2.065-1.164 2.812a3.979 3.979 0 0 1-5.61.012 3.98 3.98 0 0 1-1.175-2.79.405.405 0 0 1 .401-.407.4.4 0 0 1 .406.4 3.16 3.16 0 0 0 .937 2.223 3.164 3.164 0 0 0 4.47-.01 3.16 3.16 0 0 0 0-4.48 3.16 3.16 0 0 0-2.24-.928c-.772 0-1.518.284-2.097.793zm-.867 1.253a.404.404 0 0 1-.755-.286q.086-.22.193-.428a.403.403 0 1 1 .715.373q-.087.167-.153.34m6.518 4.136a.404.404 0 0 1 .597-.544l1.675 1.848a1.073 1.073 0 0 1-.092 1.54l-.277.239a1.11 1.11 0 0 1-1.548-.092h-.002l-1.675-1.848a.404.404 0 1 1 .597-.542l1.675 1.846a.307.307 0 0 0 .426.026l.276-.24a.27.27 0 0 0 .095-.205.28.28 0 0 0-.07-.182h-.002z" fill="url(#c)" fill-rule="evenodd" style="isolation:isolate"/>
</svg>
