<svg version="1.1" viewBox="0 0 22 22" xmlns="http://www.w3.org/2000/svg">
 <defs>
  <linearGradient id="b" x1="6.904" x2="56.1" y1="53.54" y2="4.339" gradientTransform="matrix(.04454 .1666 .2382 -.06367 7.994 13.11)" gradientUnits="userSpaceOnUse">
   <stop stop-color="#5433ff" offset="0"/>
   <stop stop-color="#e948ff" offset=".5"/>
   <stop stop-color="#ff005b" offset="1"/>
  </linearGradient>
  <linearGradient id="a" y1="1">
   <stop stop-color="#0078ff" offset="0"/>
   <stop stop-color="#00fffa" offset="1"/>
  </linearGradient>
 </defs>
 <path transform="translate(-2e-6) scale(1) translate(.00195 .001025) scale(.9999) translate(-.851 .002)" d="M12.69-.002 6.874 0a5.047 5.047 0 0 0-5.039 5.039v11.92a5.047 5.047 0 0 0 5.039 5.039h3.602a2 2 0 0 1-.086-.203 2 2 0 0 1-.062-.236l-.004-.002v-.01l-.002-.008.002.002a1.8 1.8 0 0 1 .006-.742q.041-.209.1-.412l.001-.004.002-.002v-.01l.305-1.117H6.875a2.29 2.29 0 0 1-2.291-2.291V5.043a2.29 2.29 0 0 1 2.29-2.29h5.042v3.665a1.83 1.83 0 0 0 1.832 1.834h3.668v2.793a2.76 2.76 0 0 1 1.84-.618c.312.012.62.079.91.194V7.478l.002-.002a5.02 5.02 0 0 0-1.477-3.566l-2.436-2.436a5 5 0 0 0-3.564-1.477z" fill="url(#a)"/>
 <path transform="translate(-2e-6) scale(1) translate(.00195 .001025) scale(.9999) translate(-.851 .002)" d="M11.3 21.36a.85.85 0 0 1 .002-.349 4 4 0 0 1 .088-.358l.34-1.247.001-.004.17-.627c.098-.356.16-.588.26-.808a3 3 0 0 1 .32-.552c.142-.194.312-.364.574-.624l4.857-4.85a1.75 1.75 0 0 1 1.995-.34 3.8 3.8 0 0 1 1.788 1.79 2 2 0 0 1 .088.222 1.75 1.75 0 0 1-.43 1.771l-4.857 4.85c-.26.26-.433.431-.626.573q-.26.188-.552.319c-.22.098-.452.162-.808.258l-1.948.53-.044.01a4 4 0 0 1-.244.057.86.86 0 0 1-.463-.029.83.83 0 0 1-.479-.48 1 1 0 0 1-.03-.113zm1.078-.45.758-.206a1.13 1.13 0 0 0-.551-.553zm.475-1.75a2.15 2.15 0 0 1 .775.5 2.15 2.15 0 0 1 .496.774l.08-.021c.407-.11.559-.153.697-.215a2 2 0 0 0 .368-.214c.123-.09.236-.198.535-.497l3.528-3.526a3.36 3.36 0 0 0-2.001-2l-3.53 3.523c-.298.298-.408.411-.497.533q-.127.174-.216.37c-.06.138-.103.29-.214.696zm1.496-.604a.51.51 0 0 1 .12-.46l2.951-2.949a.51.51 0 0 1 .844.207.51.51 0 0 1-.124.514l-2.952 2.947a.51.51 0 0 1-.838-.26zm3.76-5.372a4.37 4.37 0 0 1 2 2.005l.523-.523a.73.73 0 0 0 .18-.74 1 1 0 0 0-.037-.093 2.8 2.8 0 0 0-1.311-1.312.73.73 0 0 0-.834.142z" fill="url(#b)"/>
</svg>
