<svg version="1.1" viewBox="0 0 22 22" xmlns="http://www.w3.org/2000/svg">
 <defs>
  <style>.ColorScheme-Text { color:#ebdbb2; } .ColorScheme-Highlight { color:#458588; }</style>
  <linearGradient id="a" y1="1">
   <stop stop-color="#8b00fc" offset="0"/>
   <stop stop-color="#ff33db" offset="1"/>
  </linearGradient>
 </defs>
 <path transform="translate(.00072 -1e-4) scale(1) matrix(.978 0 0 .978 .2446 .2446)" d="m17.78 18.6a0.7501 0.7501 0 0 0-0.75 0.75v2.143a0.7501 0.7501 0 0 0 0.75 0.75h2.143a0.7501 0.7501 0 0 0 0.75-0.75v-2.143a0.7501 0.7501 0 0 0-0.75-0.75z" fill="url(#a)"/>
 <path transform="translate(.00072 -1e-4) scale(1) matrix(.978 0 0 .978 .2446 .2446)" d="m9.925 18.6a0.7501 0.7501 0 0 0-0.75 0.75v2.143a0.7501 0.7501 0 0 0 0.75 0.75h2.143a0.7501 0.7501 0 0 0 0.75-0.75v-2.143a0.7501 0.7501 0 0 0-0.75-0.75z" fill="url(#a)"/>
 <path transform="translate(.00072 -1e-4) scale(1) matrix(.978 0 0 .978 .2446 .2446)" d="m2.069 18.6a0.7501 0.7501 0 0 0-0.75 0.75v2.143a0.7501 0.7501 0 0 0 0.75 0.75h2.143a0.7501 0.7501 0 0 0 0.75-0.75v-2.143a0.7501 0.7501 0 0 0-0.75-0.75z" fill="url(#a)"/>
 <path transform="translate(.00072 -1e-4) scale(1) matrix(.978 0 0 .978 .2446 .2446)" d="m14.64 13.89a0.7501 0.7501 0 0 0-0.75 0.75v2.143a0.7501 0.7501 0 0 0 0.75 0.75h2.143a0.7501 0.7501 0 0 0 0.75-0.75v-2.143a0.7501 0.7501 0 0 0-0.75-0.75z" fill="url(#a)"/>
 <path transform="translate(.00072 -1e-4) scale(1) matrix(.978 0 0 .978 .2446 .2446)" d="m5.213 13.89a0.7501 0.7501 0 0 0-0.75 0.75v2.143a0.7501 0.7501 0 0 0 0.75 0.75h2.143a0.7501 0.7501 0 0 0 0.75-0.75v-2.143a0.7501 0.7501 0 0 0-0.75-0.75z" fill="url(#a)"/>
 <path transform="translate(.00072 -1e-4) scale(1) matrix(.978 0 0 .978 .2446 .2446)" d="m3.123-0.25s-0.4266-0.001561-0.8789 0.2246c-0.1498 0.07489-0.3738 0.1952-0.5644 0.4258s-0.3095 0.5454-0.3457 0.877c-0.011 0.1009-0.01367 0.1977-0.01367 0.293v10.5a0.7501 0.7501 0 0 0 0.75 0.75h2.143a0.7501 0.7501 0 0 0 0.75-0.75v-8.676h7.356v3.963a0.7501 0.7501 0 0 0 0.75 0.75h3.963v3.963a0.7501 0.7501 0 0 0 0.75 0.75h2.143a0.7501 0.7501 0 0 0 0.75-0.75v-5.578a0.7501 0.7501 0 0 0-0.2188-0.5312l-5.99-5.99a0.7501 0.7501 0 0 0-0.5312-0.2188h-10.79a0.7501 0.7501 0 0 0-0.01953 0z" fill="url(#a)"/>
</svg>
