<svg style="isolation:isolate" version="1.1" viewBox="0 0 22 22" xmlns="http://www.w3.org/2000/svg">
 <linearGradient id="a" transform="translate(.00123 .003014) scale(1) translate(-.02151 -.02151) scale(.04305)" x1=".03177" x2=".9557" y1=".06139" y2=".9731" gradientTransform="matrix(511 0 0 511 .5 .5)" gradientUnits="userSpaceOnUse">
  <stop stop-color="#5b64ed" offset=".02174"/>
  <stop stop-color="#c674fb" offset=".5167"/>
  <stop stop-color="#f9a24e" offset=".9833"/>
 </linearGradient>
 <path transform="translate(.00123 .003014) scale(1) translate(-.02151 -.02151) scale(.04305)" d="m260.4 222.1 56.44-56.44c7.581-7.582 19.87-7.582 27.45 0 7.582 7.581 7.582 19.87 0 27.45l-56.44 56.44c0.082 0.907 0.124 1.826 0.124 2.754 0 16.72-13.61 30.33-30.33 30.33-3.908 0-7.645-0.743-11.08-2.095l-92.73 92.73c-2.368 2.369-5.474 3.554-8.579 3.554s-6.209-1.186-8.579-3.554c-4.738-4.739-4.738-12.42 0-17.16l92.73-92.73c-1.352-3.433-2.095-7.171-2.095-11.08 0-0.928 0.042-1.847 0.124-2.754l-82.18-82.18c-7.582-7.581-7.582-19.87 0-27.45 7.581-7.582 19.87-7.582 27.45 0l82.18 82.18c0.908-0.082 1.827-0.124 2.756-0.124s1.848 0.042 2.756 0.124zm-143.5 42.34h-18.2c-6.701 0-12.13-5.433-12.13-12.13s5.432-12.13 12.13-12.13h18.2c6.701 0 12.13 5.433 12.13 12.13s-5.432 12.13-12.13 12.13zm140.7-140.7c-6.701 0-12.13-5.433-12.13-12.13v-18.2c0-6.7 5.432-12.13 12.13-12.13s12.13 5.433 12.13 12.13v18.2c0 6.699-5.432 12.13-12.13 12.13zm158.9 140.7h-18.2c-6.701 0-12.13-5.433-12.13-12.13s5.432-12.13 12.13-12.13h18.2c6.701 0 12.13 5.433 12.13 12.13s-5.432 12.13-12.13 12.13zm-158.9 158.9c-6.701 0-12.13-5.433-12.13-12.13v-18.2c0-6.7 5.432-12.13 12.13-12.13s12.13 5.433 12.13 12.13v18.2c0 6.7-5.432 12.13-12.13 12.13zm207.4-184.9c1.079 12.75 12.34 22.25 25.14 21.2 12.8-1.045 22.31-12.29 21.23-25.1-5.351-64.18-34.86-124.1-82.6-167.5-47.74-43.35-110.2-67.18-174.7-66.6-67.81 0.613-132.7 28.14-180.3 76.42-47.49 48.4-73.88 113.7-73.27 181.4 0.614 67.7 28.19 132.5 76.54 180 48.47 47.41 113.8 73.77 181.7 73.16 12.84-0.116 23.17-10.62 23.05-23.44-0.117-12.82-10.64-23.13-23.47-23.02-55.48 0.501-109-21.08-148.6-59.86-39.55-38.9-62.14-91.89-62.64-147.3-0.502-55.4 21.12-108.8 59.96-148.4 38.96-39.49 92.03-62.04 147.5-62.54 52.81-0.477 103.9 18.92 143 54.46 39.06 35.54 63.12 84.56 67.55 137.1zm-109.6 193.1c-11.31 5.945-15.56 19.76-9.487 30.83s20.18 15.23 31.49 9.286c48.16-25.36 86.87-65.22 110.3-113.6 5.545-11.36 0.624-24.96-10.98-30.36s-25.53-0.553-31.08 10.81c-19.18 39.68-50.75 72.18-90.22 93.03z" fill="url(#a)" fill-rule="evenodd"/>
</svg>
