<svg version="1.1" viewBox="0 0 22 22" xmlns="http://www.w3.org/2000/svg">
 <defs>
  <linearGradient id="a" x2="0" y1="1">
   <stop stop-color="#0061ff" offset="0"/>
   <stop stop-color="#60efff" offset="1"/>
  </linearGradient>
 </defs>
 <path transform="translate(0) scale(1) translate(0) scale(1) translate(-6.6 -6.6) scale(2.2)" d="m6 3c-0.554 0-1 0.446-1 1s0.446 1 1 1h4c0.554 0 1-0.446 1-1s-0.446-1-1-1z" fill="url(#a)"/>
 <path transform="translate(0) scale(1) translate(0) scale(1) translate(-6.6 -6.6) scale(2.2)" d="m6 7c-0.554 0-1 0.446-1 1s0.446 1 1 1h4c0.554 0 1-0.446 1-1s-0.446-1-1-1z" fill="url(#a)"/>
 <path transform="translate(0) scale(1) translate(0) scale(1) translate(-6.6 -6.6) scale(2.2)" d="m6 11c-0.554 0-1 0.446-1 1s0.446 1 1 1h4c0.554 0 1-0.446 1-1s-0.446-1-1-1z" fill="url(#a)"/>
</svg>
