<svg version="1.1" viewBox="0 0 22 22" xmlns="http://www.w3.org/2000/svg">
 <defs>
  <linearGradient id="a" x1="-28.5" x2="-20.5" y1="24.59" y2="24.59" gradientUnits="userSpaceOnUse">
   <stop stop-color="#fe0844" offset="0"/>
   <stop stop-color="#feb302" offset="1"/>
  </linearGradient>
  <linearGradient id="b" x1="14.02" x2="21.87" y1="8.957" y2="8.957" gradientUnits="userSpaceOnUse">
   <stop stop-color="#bc4e9c" offset="0"/>
   <stop stop-color="#f80759" offset="1"/>
  </linearGradient>
 </defs>
 <path transform="translate(-5e-6) scale(1) translate(.0118 1e-6) scale(.9998) translate(-.009501 -.002667) scale(1) matrix(1.38 0 0 1.407 40.06 -16.51)" d="M-28.5 26.31c3.111.001 2.794-3.181 4.304-4.106 1.75-1.073 3.284.257 3.591 1.35.386 1.38-.338 2.509-1.3 3.119-1.846 1.171-6.3.756-6.595-.363" fill="url(#a)"/>
 <path transform="translate(-5e-6) scale(1) translate(.0118 1e-6) scale(.9998) translate(-.009501 -.002667) scale(1) matrix(1.5 0 0 1.5 -11.54 -6.038)" d="M21.79 4.621c.261-.592-.139-.82-.62-.317-3.39 3.53-3.97 3.559-7.14 8.14.85.033 1.58.61 1.96 1.444 3.752-4.246 4.175-6.524 5.8-9.267z" fill="url(#b)"/>
</svg>
