<svg version="1.1" viewBox="0 0 22 22" xmlns="http://www.w3.org/2000/svg">
 <g transform="translate(0) scale(1) translate(0) scale(1) translate(0) scale(1)" fill="#39ff14">
  <path d="m11 0a11 11 0 0 0-11 11 11 11 0 0 0 11 11 11 11 0 0 0 11-11 11 11 0 0 0-11-11m0 1.57a9.425 9.425 0 0 1 9.425 9.426 9.425 9.425 0 0 1-9.425 9.425 9.425 9.425 0 0 1-9.425-9.425 9.425 9.425 0 0 1 9.425-9.425"/>
  <path d="M15.708 5.171v1.112h1.113l-2.683 2.683V7.854h-1.113zM7.854 7.854h6.284v6.284H7.854zM15.708 0h6.284v6.283h-6.284z"/>
 </g>
</svg>
