<svg version="1.1" viewBox="0 0 22 22" xmlns="http://www.w3.org/2000/svg">
 <g transform="translate(0) scale(1) translate(0 .005) scale(1) translate(-0) scale(1)" fill="#ff0">
  <path d="m21.99 8.247c0 4.612-2.902 8.756-7.236 10.33s-9.219 0.269-12.18-3.264a11.02 11.02 0 0 1-1.1-12.57" fill-opacity=".3"/>
  <path d="m1.473 2.749a11.1 11.1 0 0 0-1.473 5.498c0 6.073 4.923 11 11 11s11-4.923 11-11l-20.52-5.498zm0.849 1.825 18.02 4.829a9.425 9.425 0 0 1-9.345 8.269 9.424 9.424 0 0 1-9.424-9.425 9.4 9.4 0 0 1 0.751-3.673z"/>
 </g>
</svg>
