<svg version="1.1" viewBox="0 0 22 22" xmlns="http://www.w3.org/2000/svg">
 <defs>
  <linearGradient id="a" y1="1">
   <stop stop-color="#fe0844" offset="0"/>
   <stop stop-color="#feb302" offset="1"/>
  </linearGradient>
 </defs>
 <path transform="translate(0) scale(1) translate(0) scale(1) translate(-1 -1) scale(1)" d="m11 1c-1.645 0-3 1.355-3 3v4h-4c-1.645 0-3 1.355-3 3v2c0 1.645 1.355 3 3 3h4v4c0 1.645 1.355 3 3 3h2c1.645 0 3-1.355 3-3v-4h4c1.645 0 3-1.355 3-3v-2c0-1.645-1.355-3-3-3h-4v-4c0-1.645-1.355-3-3-3zm0 2h2c0.5641 0 1 0.4359 1 1v4c0 1.093 0.9073 2 2 2h4c0.5641 0 1 0.4359 1 1v2c0 0.5641-0.4359 1-1 1h-4c-1.093 0-2 0.9073-2 2v4c0 0.5641-0.4359 1-1 1h-2c-0.5641 0-1-0.4359-1-1v-4c0-1.093-0.9073-2-2-2h-4c-0.5641 0-1-0.4359-1-1v-2c0-0.5641 0.4359-1 1-1h4c1.093 0 2-0.9073 2-2v-4c0-0.5641 0.4359-1 1-1z" fill="url(#a)"/>
</svg>
