<svg version="1.1" viewBox="0 0 22 22" xmlns="http://www.w3.org/2000/svg">
 <defs>
  <linearGradient id="a" x1="1" x2="0" y2="1">
   <stop stop-color="#008cfe" offset="0"/>
   <stop stop-color="#03effe" offset=".343"/>
   <stop stop-color="#6eff6e" offset="1"/>
  </linearGradient>
 </defs>
 <g transform="translate(0) scale(1) translate(0) scale(1) translate(0 -.000275) scale(1) translate(0 .003) scale(.9999)" fill="url(#a)" stroke-width="1.571">
  <path d="M5.5 14.66v.003C0 16.137 4.125 19.62 0 21.998c5.5 0 8.25-2.753 8.25-4.588 0-.915.093-2.598-2.75-2.75"/>
  <path d="M18.86 12.57c-.611 2.007-2.139 3.726-2.799 5.107-.231.41-.344.877-.344 1.375 0 1.633 1.402 2.946 3.143 2.946s3.143-1.314 3.143-2.946c0-.498-.162-.965-.393-1.375-.66-1.381-2.139-3.1-2.75-5.107"/>
  <path d="M21.33.01a2.75 12.38 44.99 0 0-10.24 7.013 2.75 12.38 44.99 0 0-4.871 5.657 4.77 4.77 0 0 1 3.104 3.104 2.75 12.38 44.99 0 0 5.654-4.871 2.75 12.38 44.99 0 0 6.807-10.7 2.75 12.38 44.99 0 0-.457-.205z"/>
 </g>
</svg>
