<svg version="1.1" viewBox="0 0 22 22" xmlns="http://www.w3.org/2000/svg">
 <defs>
  <linearGradient id="a" x1="1" x2="0" y2="1">
   <stop stop-color="#0f9" offset="0"/>
   <stop stop-color="#14dc57" offset="1"/>
  </linearGradient>
  <linearGradient id="b" x2="0" y1="1">
   <stop stop-color="#fd5" offset="0"/>
   <stop stop-color="#ff80e5" offset=".5"/>
   <stop stop-color="#0cf" offset="1"/>
  </linearGradient>
 </defs>
 <path transform="translate(0) scale(1) translate(0) scale(1) translate(0 -.000199) scale(1) translate(-.003093 -.00081) scale(.9996) translate(-.9983 -1.438) scale(1.512)" d="m9.626 2.227c-1.555 3e-3 -3.118 0.544-4.333 1.169v1.324c1.219-0.63 2.79-1.169 4.345-1.169 0.316-4e-3 0.6332 0.02031 0.9492 0.07031v-1.324a6.12 6.12 0 0 0-0.9609-0.07031zm2.894 3.52c0.3 1.308 0.2847 2.483-0.05127 3.64h1.32c0.34-1.157 0.3567-2.332 0.05566-3.64zm-10.4 0.9917c-0.387 1.446-0.3978 2.719-0.03076 3.973h1.324c-0.367-1.254-0.3556-2.527 0.02637-3.973zm8.47 4.667c-1.473 0.758-3.446 1.388-5.294 1.103v1.324c1.848 0.285 3.821-0.349 5.294-1.103z" fill="url(#b)"/>
 <path transform="translate(0) scale(1) translate(0) scale(1) translate(0 -.000199) scale(1) translate(-.003093 -.00081) scale(.9996) matrix(1.512 0 0 1.512 -.9983 -1.438)" d="m1.654 10.71a0.991 0.991 0 0 0-0.9917 0.9932v2.646c0 0.55 0.4447 0.9917 0.9917 0.9917h2.648c0.55 0 0.9917-0.4417 0.9917-0.9917v-2.646a0.989 0.989 0 0 0-0.9917-0.9917zm0.6636 0.9932h1.32a0.66 0.66 0 0 1 0.665 0.6606v1.324c0 0.363-0.2966 0.6606-0.6636 0.6606h-1.32a0.663 0.663 0 0 1-0.665-0.6606v-1.324a0.66 0.66 0 0 1 0.6636-0.6606z" fill="url(#a)"/>
 <path transform="translate(0) scale(1) translate(0) scale(1) translate(0 -.000199) scale(1) translate(-.003093 -.00081) scale(.9996) matrix(1.512 0 0 1.512 -.9983 -1.438)" d="m11.58 9.387a0.989 0.989 0 0 0-0.9917 0.9917v2.644c0 0.551 0.4407 0.9932 0.9917 0.9932h2.646c0.55 0 0.9917-0.4422 0.9917-0.9932v-2.643a0.989 0.989 0 0 0-0.9917-0.9917zm0.6592 0.9917h1.326a0.66 0.66 0 0 1 0.6606 0.6606v1.324a0.66 0.66 0 0 1-0.6606 0.6592h-1.326a0.657 0.657 0 0 1-0.6592-0.6592v-1.323c0-0.367 0.2922-0.6606 0.6592-0.6606z" fill="url(#a)"/>
 <path transform="translate(0) scale(1) translate(0) scale(1) translate(0 -.000199) scale(1) translate(-.003093 -.00081) scale(.9996) matrix(1.512 0 0 1.512 -.9983 -1.438)" d="m1.654 2.11a0.991 0.991 0 0 0-0.9917 0.9932v2.644c0 0.55 0.4447 0.9917 0.9917 0.9917h2.648c0.55 0 0.9917-0.4407 0.9917-0.9917v-2.644a0.989 0.989 0 0 0-0.9917-0.9932zm0.659 0.9932h1.32c0.368 0 0.665 0.2952 0.665 0.6592v1.324a0.66 0.66 0 0 1-0.6636 0.6606h-1.32a0.66 0.66 0 0 1-0.665-0.6606v-1.324c0-0.364 0.2966-0.6592 0.6636-0.6592z" fill="url(#a)"/>
 <path transform="translate(0) scale(1) translate(0) scale(1) translate(0 -.000199) scale(1) translate(-.003093 -.00081) scale(.9996) matrix(1.512 0 0 1.512 -.9983 -1.438)" d="m11.58 1.118a0.989 0.989 0 0 0-0.9917 0.9917v2.644c0 0.55 0.4407 0.9932 0.9917 0.9932h2.646c0.55 0 0.9917-0.4422 0.9917-0.9932v-2.644a0.989 0.989 0 0 0-0.9917-0.9917zm0.654 0.9917h1.326c0.363 0 0.6606 0.2962 0.6606 0.6592v1.326a0.66 0.66 0 0 1-0.6606 0.6592h-1.326a0.657 0.657 0 0 1-0.6592-0.6592v-1.324a0.66 0.66 0 0 1 0.6592-0.6606z" fill="url(#a)"/>
</svg>
