<svg version="1.1" viewBox="0 0 22 22" xmlns="http://www.w3.org/2000/svg">
 <path transform="translate(-0) scale(1) translate(-0) scale(1) translate(-0) scale(1)" d="M10.996 10.996h1.57v1.57h-1.57zm4.712-7.854c-1.57 0-1.57 1.57-1.57 1.57v6.284c0 1.57 1.57 1.57 1.57 1.57h1.571c1.571 0 1.571-1.57 1.571-1.57V4.713c0-1.571-1.57-1.571-1.57-1.571zm0 1.57h1.571v6.284h-1.57zm-9.425-1.57v1.57h1.571v7.855h1.571V3.142zM0 0v15.708h7.854l6.284 6.284v-6.284h1.57v6.284l6.284-6.284V0zm1.57 1.57h18.851v12.568H1.571z" fill="#00fefc"/>
</svg>
