<svg version="1.1" viewBox="0 0 22 22" xmlns="http://www.w3.org/2000/svg">
 <g transform="translate(0) scale(1) translate(0) scale(1) translate(0) scale(1) translate(0) scale(1) translate(0) scale(1) translate(0) scale(1) translate(-.000235 -3e-4) scale(1)" fill="#00ff80">
  <path d="m10.921 3.755 5.29 4.703c.989.879 1.484 1.318 1.667 1.839.16.455.16.951 0 1.407-.183.52-.677.959-1.667 1.839l-5.29 4.702c-.45.4-.674.598-.864.606a.53.53 0 0 1-.43-.194c-.122-.146-.122-.446-.122-1.047v-1.966c0-.552-.448-1.004-.998-.96-2.27.183-4.563.978-6.298 2.261C1.173 17.71.654 18.093.457 18.08a.48.48 0 0 1-.414-.255c-.102-.17-.012-.7.169-1.757 1.063-6.22 5.038-8.318 8.296-8.66.55-.058.998-.5.998-1.052V4.39c0-.601 0-.9.121-1.048a.53.53 0 0 1 .43-.193c.192.007.415.207.865.606z"/>
  <path d="M13.75 2.486a.797.797 0 0 1 1.127-.042l5.544 5.149a4.94 4.94 0 0 1 1.1 5.738c-.299.63-.728 1.19-1.26 1.642l-5.41 4.605a.797.797 0 0 1-1.033-1.214l5.41-4.605a3.34 3.34 0 0 0 .912-3.852 3.35 3.35 0 0 0-.804-1.148l-5.544-5.148a.797.797 0 0 1-.041-1.126z" opacity=".4"/>
 </g>
</svg>
