<svg version="1.1" viewBox="0 0 22 22" xmlns="http://www.w3.org/2000/svg">
 <defs>
  <linearGradient id="a" y1="1">
   <stop stop-color="#fe0844" offset="0"/>
   <stop stop-color="#feb302" offset="1"/>
  </linearGradient>
 </defs>
 <path transform="translate(0 -.003) scale(1) translate(.00014 .00196) scale(1) translate(-.198 22.28) scale(.02328)" d="M323.25-99Q416-99 482.5-164.86 549-230.73 549-323.3q0-30.71-9.5-62.31T513-445l-24-37 43-74-113-65-40.57 72h-58.69Q227-549 162.5-481.5T98-325q0 95.07 65.74 160.54Q229.48-99 323.25-99M867-572q-18.75 0-31.37-12.76Q823-597.53 823-615.26 823-633 835.63-646q12.62-13 31.37-13h40q17.63 0 30.31 12.96 12.69 12.97 12.69 31 0 18.04-12.69 30.54Q924.63-572 907-572zM608.04-830q-18.04 0-30.54-12.63Q565-855.25 565-874v-40q0-17.63 12.76-30.31Q590.53-957 608.26-957 626-957 639-944.31q13 12.68 13 30.31v40q0 18.75-12.96 31.37-12.97 12.63-31 12.63M776-782.82q-14-13.82-14-31T776-845l28-28q13.78-13 30.89-13T866-873q13 13.78 13 30.89T866-811l-28 28q-13.78 14-30.89 14T776-782.82M669.33-634q-7 0-12.16-1.5-5.17-1.5-11.04-5.02L609-662q-14-7-28.52-2.83Q565.95-660.65 559-648l-3 6 34 19q24.29 16.4 32.15 43.7Q630-552 615-526l-23 42q21.5 37 32.75 77.5T636-323q0 130.25-91.47 220.62Q453.06-12 323.06-12t-220.53-91.46Q12-194.93 12-324.96 12-455 103.29-545.5 194.57-636 326.01-636H328l23-42q15.4-25.86 43.7-32.93T449-704l32 19 4-7q26-44 74.5-56.5T653-737l37.09 22.04Q700-710 706-700.06t6 23.4q0 17.53-12.59 30.1Q686.82-634 669.33-634" fill="url(#a)"/>
</svg>
