<svg version="1.1" viewBox="0 0 22 22" xmlns="http://www.w3.org/2000/svg">
 <defs>
  <style>.ColorScheme-Text { color:#ebdbb2; } .ColorScheme-Highlight { color:#458588; }</style>
  <linearGradient id="a" y1=".5" y2=".5">
   <stop stop-color="#46d9ff" offset="0"/>
   <stop stop-color="#ff23ff" offset=".5"/>
   <stop stop-color="#ffd93f" offset="1"/>
  </linearGradient>
 </defs>
 <path transform="translate(.000302 .005894) scale(1) translate(.8783 -.053) scale(1.005)" d="m0.75 0.05273a0.7001 0.7001 0 0 0-0.6992 0.6992v0.9004a0.7001 0.7001 0 0 0 0.6992 0.6992h1.199v0.001953h0.001953c0.01517 0.00631 0.03397 0.02687 0.03906 0.04102l0.001953 0.001953c9.17e-5 0.00124 3.8e-6 0.002386 0 0.003906a0.7001 0.7001 0 0 0 0 0.001953v17.19l-0.001953 0.001953c-2.819e-4 9.53e-4 -0.001563 0.004859-0.001953 0.005859-0.00699 0.01439-0.02395 0.03156-0.03516 0.03711a0.7001 0.7001 0 0 0-0.003906 0v0.001953h-0.001953c-0.00124 9.1e-5 -0.002436 4e-6 -0.003906 0a0.7001 0.7001 0 0 0-0.001953 0h-1.191a0.7001 0.7001 0 0 0-0.6992 0.6992v0.9023a0.7001 0.7001 0 0 0 0.6992 0.6992h4.783a0.7001 0.7001 0 0 0 0.6992-0.6992v-0.9023a0.7001 0.7001 0 0 0-0.6992-0.6992h-1.19v-0.001953h-0.009765l-0.003906-0.003906c-0.01301-0.007086-0.03282-0.02874-0.03906-0.04297v-17.18c2.971e-4 -0.00135 0.001273-0.00444 0.001953-0.01172v-0.003906h0.001953v-0.001953c0.00494-0.01334 0.02218-0.0305 0.03516-0.03711l0.001953-0.001953h0.001953l0.001953-0.001953c0.00134-9.68e-5 0.002586-1.03e-5 0.003906 0a0.7001 0.7001 0 0 0 0.005859 0h1.188a0.7001 0.7001 0 0 0 0.6992-0.6992v-0.9004a0.7001 0.7001 0 0 0-0.6992-0.6992h-4.783zm12.99 3.516a0.7001 0.7001 0 0 0-0.6758 0.5176l-3.609 13.46a0.7001 0.7001 0 0 0 0.6758 0.8809h1.408a0.7001 0.7001 0 0 0 0.6758-0.5176l3.604-13.46a0.7001 0.7001 0 0 0-0.6758-0.8809h-1.402zm4.248 0a0.7001 0.7001 0 0 0-0.6758 0.5176l-3.609 13.46a0.7001 0.7001 0 0 0 0.6758 0.8809h1.408a0.7001 0.7001 0 0 0 0.6758-0.5176l3.605-13.46a0.7001 0.7001 0 0 0-0.6758-0.8809h-1.404zm-11.82 12.15a0.7001 0.7001 0 0 0-0.6992 0.6992v1.303a0.7001 0.7001 0 0 0 0.6992 0.6992h1.303a0.7001 0.7001 0 0 0 0.6992-0.6992v-1.303a0.7001 0.7001 0 0 0-0.6992-0.6992h-1.303z" fill="url(#a)" stop-color="#000000" stroke-linecap="round" stroke-linejoin="round"/>
</svg>
