<svg version="1.1" viewBox="0 0 22 22" xmlns="http://www.w3.org/2000/svg">
 <defs>
  <linearGradient id="a" x1="19.06" x2="-.0002598" y1="22.23" y2="3.175" gradientTransform="matrix(-1.154 0 0 .8658 22 .00065)" gradientUnits="userSpaceOnUse">
   <stop stop-color="#f00" offset="0"/>
   <stop stop-color="#ff0086" offset="1"/>
  </linearGradient>
 </defs>
 <path transform="translate(-0) scale(1)" d="m12.37 2.75c1.144 0 2.145 0.4725 3.153 1.074 1.009 0.6015 2.015 1.38 2.927 2.197 0.9074 0.8215 1.725 1.681 2.348 2.471 0.3114 0.3973 0.5741 0.7744 0.783 1.15 0.2101 0.3815 0.414 0.7305 0.414 1.359 0 0.6283-0.2047 0.9772-0.414 1.354-0.2097 0.3815-0.4716 0.7563-0.783 1.148-0.6232 0.795-1.44 1.656-2.348 2.473-0.9133 0.8218-1.917 1.601-2.927 2.203-1.011 0.6022-2.01 1.074-3.153 1.074h-8.248c-2.26 0-4.126-1.866-4.126-4.126v-8.248c0-2.26 1.866-4.124 4.126-4.124zm-1.375 4.124c-0.365 0-0.7147 0.1445-0.9725 0.4022l-1.777 1.779-1.777-1.779a1.374 1.374 0 0 0-1.945 0 1.375 1.375 0 0 0 0 1.945l1.777 1.777-1.777 1.779c-0.5373 0.5369-0.5373 1.406 0 1.943 0.5373 0.5369 1.408 0.5369 1.945 0l1.777-1.777 1.777 1.777a1.375 1.375 0 1 0 1.945-1.943l-1.777-1.779 1.777-1.777a1.374 1.374 0 0 0-0.9725-2.348z" fill="url(#a)" stroke-width=".9998"/>
</svg>
