<svg version="1.1" viewBox="0 0 22 22" xmlns="http://www.w3.org/2000/svg">
 <defs>
  <linearGradient id="a" y1="1">
   <stop stop-color="#c42482" offset="0"/>
   <stop stop-color="#cc2477" offset=".047"/>
   <stop stop-color="#e0255a" offset=".128"/>
   <stop stop-color="#ff272d" offset=".231"/>
   <stop stop-color="#ff8e00" offset=".571"/>
   <stop stop-color="#ffbf00" offset=".746"/>
   <stop stop-color="#ffde00" offset=".88"/>
   <stop stop-color="#ffea00" offset=".955"/>
  </linearGradient>
 </defs>
 <path transform="translate(0) scale(1) translate(0) scale(1) translate(0) scale(1) translate(0) scale(1) translate(0) scale(1) translate(-.00022 .00089) scale(1) translate(-1.343) scale(.3857)" d="M51.15 0v.002a2.93 2.93 0 0 0-2.873 1.822l-7.926 19.5-2.158-.58-.584-.137a9.09 9.09 0 0 0-8.744 3.19l-.984 1.191-1.742 2.033-.647.744-1.387 1.541-.732.807-1.545 1.65c-3.2 3.363-6.994 7.009-11.03 10.18a2.932 2.932 0 0 0 .67 5.006l2.394 1.014 2.41.978 2.869 1.141 2.146.83 2.29.854 2.384.86 1.215.421c4.046 1.396 8.323 2.71 11.89 3.42 1.774.352 3.5.584 4.998.56 1.314-.023 3.255-.242 4.609-1.608 3.686-3.718 5.175-8.776 5.709-13.33.536-4.592.146-9.046-.27-11.98-.487-3.413-3.048-5.918-6.127-6.742l-1.93-.516 7.654-18.82.11-.32A2.932 2.932 0 0 0 51.15.004zM22.54 2.34a.33.33 0 0 0-.303.2l-.293.648a15.25 15.25 0 0 1-5.779 6.367l-.463.275a.317.317 0 0 0 0 .549l.457.27a15.25 15.25 0 0 1 5.78 6.374l.298.647a.331.331 0 0 0 .606 0l.293-.647a15.25 15.25 0 0 1 5.779-6.375l.463-.27a.317.317 0 0 0 0-.548l-.457-.275a15.25 15.25 0 0 1-5.78-6.367l-.298-.649a.33.33 0 0 0-.303-.199m-8.814 14.32a.21.21 0 0 0-.178.125l-.187.408a9.56 9.56 0 0 1-3.62 4.002l-.29.172a.2.2 0 0 0 0 .344l.29.172a9.56 9.56 0 0 1 3.626 3.996l.187.412a.208.208 0 0 0 .385 0l.19-.406a9.56 9.56 0 0 1 3.616-4.01l.3-.166a.2.2 0 0 0 0-.348l-.3-.166a9.56 9.56 0 0 1-3.623-4.004l-.189-.406a.21.21 0 0 0-.207-.125m22.14 9.648a3.2 3.2 0 0 1 .8.098l9.8 2.623.338.115c.865.349 1.392 1.043 1.5 1.785l.068.533.139 1.15-15.82-4.236.71-.86a3.2 3.2 0 0 1 2.47-1.206zm-7.463 6.988h.002l20.35 5.449a32 32 0 0 1-.201 2.652c-.449 3.832-1.61 7.306-3.854 9.695-1.012.208-2.133.066-3.195-.13l-1.23-.235a32 32 0 0 0 1.856-2.55c.833-1.26 1.618-2.568 2.289-3.923a2.935 2.935 0 0 0-5.256-2.606l-.602 1.129a34 34 0 0 1-1.322 2.17c-1.16 1.759-2.445 3.307-3.539 4.06a137 137 0 0 1-4.022-1.305A29 29 0 0 0 32 45.188c.895-1.085 1.753-2.24 2.44-3.473a2.932 2.932 0 0 0-5.119-2.852l-.418.681a21 21 0 0 1-1.432 1.918 21.4 21.4 0 0 1-4.182 3.924 261 261 0 0 1-5.078-1.994 129 129 0 0 0 10.2-10.1z" fill="url(#a)"/>
</svg>
