<svg version="1.1" viewBox="0 0 22 22" xmlns="http://www.w3.org/2000/svg">
 <defs>
  <linearGradient id="a" y2="1">
   <stop stop-color="#ff0" offset="0"/>
   <stop stop-color="#ffc200" offset="1"/>
  </linearGradient>
 </defs>
 <path transform="translate(-0) scale(1) translate(-0) scale(1) translate(-0) scale(1) translate(-0) scale(1) translate(.005026 .0011) scale(1) translate(-.000571) scale(1)" d="m10.85 0c-1.558 0-3.026 0.3241-4.406 0.9707-1.378 0.6466-2.592 1.53-3.639 2.652v-1.711c6.666e-4 -0.2886-0.09451-0.5282-0.2852-0.7168s-0.4319-0.2832-0.7266-0.2832-0.5385 0.09456-0.7285 0.2832c-0.19 0.1893-0.2832 0.4288-0.2832 0.7168v4.137c0 0.3806 0.1281 0.7004 0.3848 0.957 0.2566 0.2566 0.5744 0.3848 0.9551 0.3848h4.166c0.288 0 0.5318-0.1008 0.7305-0.3008 0.198-0.1993 0.2969-0.4512 0.2969-0.7559 0-0.288-0.0989-0.5318-0.2969-0.7305-0.1986-0.198-0.4425-0.2969-0.7305-0.2969h-1.369c0.7779-0.7999 1.675-1.432 2.693-1.898s2.099-0.6992 3.24-0.6992c2.307 6.666e-4 4.281 0.7906 5.924 2.369 1.642 1.578 2.465 3.51 2.465 5.797 6.66e-4 2.343-0.8186 4.337-2.455 5.978-1.636 1.642-3.614 2.463-5.934 2.463-2.106 0-3.906-0.6848-5.402-2.055-1.495-1.369-2.376-3.054-2.643-5.051-0.09599-0.3606-0.2813-0.6498-0.5566-0.8691s-0.5944-0.3201-0.957-0.3008c-0.38 0.01866-0.6948 0.1624-0.9414 0.4277-0.2473 0.2653-0.3318 0.5694-0.2559 0.9141 0.3046 2.72 1.474 5.002 3.51 6.848 2.036 1.845 4.452 2.768 7.25 2.768 1.518-6.3e-5 2.947-0.2912 4.289-0.8711 1.34-0.5799 2.517-1.368 3.529-2.367 1.013-0.9992 1.807-2.169 2.383-3.51 0.5759-1.34 0.8652-2.773 0.8652-4.295s-0.2893-2.944-0.8652-4.266c-0.5753-1.322-1.37-2.476-2.383-3.465s-2.189-1.776-3.529-2.356c-1.34-0.5799-2.773-0.8691-4.295-0.8691z" fill="url(#a)"/>
 <path transform="translate(-0) scale(1) translate(-0) scale(1) translate(-0) scale(1) translate(-0) scale(1) translate(.005026 .0011) scale(1)" d="m11.53 6.53c-0.1087 0.00342-0.2358 0.117-0.4914 0.3447v-0.00111l-3.012 2.677c-0.563 0.5009-0.8442 0.7508-0.9484 1.047-0.09108 0.2596-0.09108 0.542 0 0.8015 0.1042 0.296 0.3848 0.5453 0.9484 1.046l3.012 2.677c0.2556 0.2277 0.3827 0.3407 0.4914 0.3447a0.3017 0.3017 0 0 0 0.2457-0.1101c0.06888-0.08368 0.06894-0.2538 0.06894-0.596v-1.12c0-0.3142 0.2556-0.5721 0.5692-0.547 1.292 0.1042 2.597 0.5571 3.585 1.288 0.5897 0.436 0.8852 0.6541 0.9973 0.6461a0.2732 0.2732 0 0 0 0.2357-0.1457c0.05806-0.09677 0.0069-0.3978-0.09671-0.9996-0.6045-3.541-2.868-4.736-4.723-4.93-0.3131-0.03359-0.567-0.2862-0.567-0.6006v-1.119c0-0.3415-5.69e-4 -0.5123-0.07002-0.596a0.3017 0.3017 0 0 0-0.2446-0.109z" fill="#00bfff" stroke-width=".5692"/>
 <path transform="translate(-0) scale(1) translate(-0) scale(1) translate(-0) scale(1) translate(-0) scale(1) translate(.005026 .0011) scale(1)" d="m9.114 6.007a0.4537 0.4537 0 0 0-0.3258 0.1212l-3.156 2.93a2.812 2.812 0 0 0-0.6262 3.267c0.1696 0.3586 0.4137 0.6774 0.7161 0.9341l3.08 2.623a0.4543 0.4543 0 1 0 0.5892-0.6916l-3.08-2.622a1.904 1.904 0 0 1-0.06228-2.846l3.158-2.932a0.4537 0.4537 0 0 0 0.02335-0.6415v0.00223a0.4537 0.4537 0 0 0-0.3158-0.1457z" fill="#00bfff" opacity=".4" stroke-width=".5692"/>
</svg>
