<svg version="1.1" viewBox="0 0 22 22" xmlns="http://www.w3.org/2000/svg">
 <defs>
  <linearGradient id="a" x1="1" x2="0" y2="1">
   <stop stop-color="#1a6cff" offset="0"/>
   <stop stop-color="#c522ff" offset="1"/>
  </linearGradient>
 </defs>
 <path transform="translate(0 3e-6) scale(1) translate(0 .002652) scale(.9998) translate(0 .003437) scale(.9998)" d="m9.195 0.007812c-5.068 0-9.195 4.13-9.195 9.195 0 5.068 4.13 9.195 9.195 9.195 5.068 0 9.195-4.129 9.195-9.195 0-5.068-4.129-9.195-9.195-9.195zm0 1.934c4.021 0 7.262 3.242 7.262 7.264s-3.24 7.262-7.262 7.262c-4.021 0-7.262-3.24-7.262-7.262 0-4.021 3.24-7.264 7.262-7.264z" fill="url(#a)"/>
 <path transform="translate(0 3e-6) scale(1) translate(0 .002652) scale(.9998) translate(0 .003437) scale(.9998)" d="m15.99 14.8-1.193 1.17 0.6426 0.6406c-0.2708 0.5263-0.167 1.17 0.2539 1.586l3.375 3.398c0.5237 0.5245 1.38 0.5245 1.904 0l0.6426-0.6445c0.5239-0.5271 0.5239-1.377 0-1.904l-3.396-3.375c-0.419-0.4191-1.066-0.5138-1.586-0.2305z" fill="url(#a)"/>
 <path transform="translate(0 3e-6) scale(1) translate(0 .002652) scale(.9998) matrix(.9998 0 0 .9998 0 .003437)" d="m14.21 7.531c-0.9234 0-1.672 0.7485-1.672 1.672 0 0.9234 0.7485 1.672 1.672 1.672 0.9234 0 1.672-0.7485 1.672-1.672 0-0.9234-0.7485-1.672-1.672-1.672z" fill="url(#a)"/>
 <path transform="translate(0 3e-6) scale(1) translate(0 .002652) scale(.9998) matrix(.9998 0 0 .9998 0 .003437)" d="m9.196 7.531c-0.9234 0-1.672 0.7485-1.672 1.672 0 0.9234 0.7485 1.672 1.672 1.672 0.9234 0 1.672-0.7485 1.672-1.672 0-0.9234-0.7485-1.672-1.672-1.672z" fill="url(#a)"/>
 <path transform="translate(0 3e-6) scale(1) translate(0 .002652) scale(.9998) matrix(.9998 0 0 .9998 0 .003437)" d="m4.18 7.531c-0.9234 0-1.672 0.7485-1.672 1.672 0 0.9234 0.7485 1.672 1.672 1.672s1.672-0.7485 1.672-1.672c0-0.9234-0.7485-1.672-1.672-1.672z" fill="url(#a)"/>
</svg>
