<svg version="1.1" viewBox="0 0 22 22" xmlns="http://www.w3.org/2000/svg">
 <defs>
  <linearGradient id="a" x1="1" x2="0" y1="1">
   <stop stop-color="#5433ff" offset="0"/>
   <stop stop-color="#20bdff" offset=".5"/>
   <stop stop-color="#a5fecb" offset="1"/>
  </linearGradient>
 </defs>
 <path transform="translate(.000642 .0019) scale(1) translate(-.000148 -.00151) scale(1)" d="m11.94 3.15c-0.191 6e-3 -0.4143 0.2055-0.8633 0.6055v-0.00195l-5.291 4.703c-0.989 0.88-1.483 1.319-1.666 1.84-0.16 0.456-0.16 0.9522 0 1.408 0.183 0.52 0.676 0.9579 1.666 1.838l5.291 4.703c0.449 0.4 0.6723 0.5985 0.8633 0.6055a0.53 0.53 0 0 0 0.4316-0.1934c0.121-0.147 0.1211-0.4459 0.1211-1.047v-1.967c0-0.552 0.449-1.005 1-0.9609 2.269 0.183 4.563 0.9787 6.297 2.262 1.036 0.766 1.555 1.149 1.752 1.135a0.48 0.48 0 0 0 0.4141-0.2559c0.102-0.17 0.01208-0.6989-0.1699-1.756-1.062-6.221-5.039-8.319-8.297-8.66-0.55-0.059-0.9961-0.5027-0.9961-1.055v-1.965c0-0.6-1e-3 -0.8999-0.123-1.047a0.53 0.53 0 0 0-0.4297-0.1914z" fill="url(#a)"/>
 <path transform="translate(.000642 .0019) scale(1) translate(-.000148 -.00151) scale(1)" d="m7.695 2.23a0.797 0.797 0 0 0-0.5723 0.2129l-5.545 5.148a4.94 4.94 0 0 0-1.1 5.74c0.298 0.63 0.7268 1.19 1.258 1.641l5.41 4.607a0.798 0.798 0 1 0 1.035-1.215l-5.41-4.606a3.345 3.345 0 0 1-0.1094-5l5.547-5.15a0.797 0.797 0 0 0 0.04102-1.127v0.00391a0.797 0.797 0 0 0-0.5547-0.2559z" fill="url(#a)" opacity=".4"/>
</svg>
