<svg version="1.1" viewBox="0 0 22 22" xmlns="http://www.w3.org/2000/svg">
 <defs>
  <linearGradient id="b" x1="1" x2="0" y1="1">
   <stop stop-color="#ff00b8" offset="0"/>
   <stop stop-color="#faff00" offset="1"/>
  </linearGradient>
  <linearGradient id="a" x1="13.32" x2=".0007847" y1="18.14" y2="18.14" gradientTransform="matrix(.6607 -.6607 .2422 .2422 2.202 10.43)" gradientUnits="userSpaceOnUse">
   <stop stop-color="#5433ff" offset="0"/>
   <stop stop-color="#e948ff" offset=".5"/>
   <stop stop-color="#ff005b" offset="1"/>
  </linearGradient>
 </defs>
 <path transform="translate(-.004012 1e-5) scale(1) translate(.2446 .244) scale(.978)" d="m11 0.7734c-3.21 0-5.976 0.6559-8.008 2.107-2.036 1.454-3.238 3.75-3.238 6.582 0 4.288 2.859 7.265 5.562 9.09 2.703 1.824 5.393 2.627 5.393 2.627 0.646 0.193 1.309-0.3023 1.309-0.9766v-2.174c2.745-0.131 5.189-0.696 6.992-1.984 2.036-1.454 3.238-3.75 3.238-6.582s-1.203-5.129-3.238-6.582c-2.032-1.452-4.799-2.107-8.01-2.107zm0 2.033c2.927 0 5.28 0.6242 6.826 1.728 1.551 1.108 2.389 2.638 2.389 4.928s-0.8364 3.819-2.389 4.928c-1.546 1.104-3.9 1.727-6.826 1.727-0.5588 7.5e-5 -1.016 0.4588-1.016 1.018v1.555c-0.8826-0.3411-2.032-0.811-3.529-1.822-2.413-1.629-4.668-4.021-4.668-7.404 0-2.29 0.8364-3.819 2.389-4.928 1.546-1.104 3.898-1.728 6.824-1.728z" fill="url(#b)"/>
 <path transform="translate(-.004012 1e-5) scale(1)" d="m12.55 5.639-1 1.006-0.01172 0.01172-3.506 3.524c-0.2431 0.2438-0.4022 0.405-0.5342 0.586a2.871 2.871 0 0 0-0.2962 0.5149c-0.09209 0.2058-0.1505 0.4229-0.2398 0.7552l-0.5016 1.86a3.157 3.157 0 0 0-0.05076 0.2289 0.8038 0.8038 0 0 0 0.02736 0.4305 0.775 0.775 0 0 0 0.4484 0.4484 0.8038 0.8038 0 0 0 0.4312 0.025 3.732 3.732 0 0 0 0.3344-0.08282l1.164-0.3196 0.00472-0.0016 0.5838-0.1601c0.3315-0.0909 0.5491-0.1506 0.754-0.2429 0.1825-0.08242 0.355-0.1827 0.5166-0.301 0.1811-0.1328 0.3387-0.2918 0.5809-0.5357l3.505-3.524 0.01326-0.01487 0.9984-1.003a1.633 1.633 0 0 0 0.3131-1.863 3.561 3.561 0 0 0-1.674-1.665 1.723 1.723 0 0 0-0.2078-0.08281 1.636 1.636 0 0 0-0.6624-0.0672l-8.1e-4 7.919e-4a1.636 1.636 0 0 0-0.9888 0.4718zm0.6737 0.6686a0.689 0.689 0 0 1 0.4133-0.1977l8.1e-4 7.965e-4a0.689 0.689 0 0 1 0.2766 0.02812 0.689 0.689 0 0 1 0.08672 0.03514 2.613 2.613 0 0 1 1.228 1.22 0.6833 0.6833 0 0 1-0.1313 0.78l-0.486 0.4876a4.083 4.083 0 0 0-1.876-1.863l8.09e-4 -7.913e-4zm-1.208 1.216a3.132 3.132 0 0 1 1.873 1.865l-3.283 3.301c-0.2777 0.2794-0.382 0.3817-0.496 0.4647-0.1078 0.07919-0.2226 0.1468-0.3445 0.2023-0.1286 0.05764-0.2707 0.0969-0.6505 0.2006l-0.07269 0.02114a2.038 2.038 0 0 0-0.467-0.7218 2.038 2.038 0 0 0-0.724-0.4631l0.01952-0.07263c0.1029-0.3806 0.1423-0.5226 0.1991-0.6522a1.894 1.894 0 0 1 0.1984-0.3437c0.08304-0.1144 0.1854-0.2216 0.4632-0.5007l-7.9e-6 0.0016zm0.08762 1.114-2.746 2.762a0.4754 0.4754 0 0 0 0.6726 0.6714l2.746-2.762a0.4756 0.4756 0 0 0-0.1936-0.7885 0.4881 0.4881 0 0 0-0.1906-0.01876h-0.0016a0.4765 0.4765 0 0 0-0.2867 0.1367zm-4.503 4.681h0.0016a1.062 1.062 0 0 1 0.5156 0.514l-0.7076 0.1937z" fill="url(#a)" stroke-width=".5657"/>
</svg>
