<svg version="1.1" viewBox="0 0 22 22" xmlns="http://www.w3.org/2000/svg">
 <defs>
  <linearGradient id="a" y2="1">
   <stop stop-color="#07f" offset="0"/>
   <stop stop-color="#00f7ff" offset="1"/>
  </linearGradient>
 </defs>
 <path transform="translate(0) scale(1.375)" d="m8 5c-1.644 0-3 1.356-3 3v5c0 1.644 1.356 3 3 3h5c1.644 0 3-1.356 3-3v-5c0-1.644-1.356-3-3-3zm0 2h5c0.5703 0 1 0.4297 1 1v5c0 0.5703-0.4297 1-1 1h-5c-0.5703 0-1-0.4297-1-1v-5c0-0.5703 0.4297-1 1-1z" fill="url(#a)"/>
 <path transform="translate(0) scale(1.375)" d="m3 0c-1.644 0-3 1.356-3 3v5c0 1.644 1.356 3 3 3 0.5508 0 1-0.4492 1-1s-0.4492-1-1-1c-0.5703 0-1-0.4297-1-1v-5c0-0.5703 0.4297-1 1-1h5c0.5703 0 1 0.4297 1 1 0 0.5508 0.4492 1 1 1s1-0.4492 1-1c0-1.644-1.356-3-3-3z" fill="url(#a)"/>
</svg>
