<svg version="1.1" viewBox="0 0 22 22" xmlns="http://www.w3.org/2000/svg">
 <defs>
  <linearGradient id="a" x1="1" x2="0" y1="1">
   <stop stop-color="#ff0002" offset="0"/>
   <stop stop-color="#ff0050" offset="1"/>
  </linearGradient>
 </defs>
 <path transform="translate(-0) scale(1) translate(-0) scale(1) translate(.004676) scale(.9999) translate(-24.32) scale(2.264)" d="m15.6 0c-2.674 0-4.859 2.185-4.859 4.859s2.185 4.859 4.859 4.859 4.857-2.185 4.857-4.859-2.183-4.859-4.857-4.859zm0 1.535c1.846 0 3.324 1.479 3.324 3.324 0 0.6394-0.2244 1.2-0.5332 1.705l-4.498-4.496c0.5052-0.3088 1.068-0.5332 1.707-0.5332zm-2.793 1.617h2e-3l4.496 4.498c-0.5052 0.3088-1.066 0.5332-1.705 0.5332-1.846 0-3.326-1.479-3.326-3.324 0-0.6394 0.2244-1.202 0.5332-1.707z" fill="url(#a)"/>
</svg>
