<svg version="1.1" viewBox="0 0 22 22" xmlns="http://www.w3.org/2000/svg">
 <g transform="translate(-0) scale(1) translate(-5e-4) scale(1)" stroke-width="1.833">
  <path d="M12.84.007H9.17V9.17h3.671zm0 12.829H9.17v9.163h3.671z" fill="red"/>
  <path d="M3.67 0S.006 0 .006 3.665v14.658c0 3.665 3.664 3.665 3.664 3.665H18.33s3.664 0 3.664-3.665V3.665C21.993 0 18.33 0 18.33 0zm0 1.832H18.33s1.832 0 1.832 1.833v14.658c-.001 1.833-1.832 1.832-1.832 1.832H3.67s-1.833 0-1.833-1.832V3.665c0-1.833 1.833-1.833 1.833-1.833" fill="#06f"/>
  <path d="m11 7.34a3.665 3.665 0 1 0 0 7.33 3.665 3.665 0 0 0 0-7.33m0 1.831a1.832 1.832 0 1 1 0 3.664 1.832 1.832 0 0 1 0-3.664" fill="#0cf"/>
 </g>
</svg>
