<svg version="1.1" viewBox="0 0 22 22" xmlns="http://www.w3.org/2000/svg">
 <g transform="translate(-0) scale(1) translate(5e-4) scale(1)" stroke-width="1.832">
  <path d="M.005 3.664v14.658c0 3.664 3.664 3.664 3.664 3.664h14.659s3.663 0 3.663-3.664V3.664C21.991 0 18.328 0 18.328 0H3.669S.005 0 .005 3.664M3.67 1.832h14.659s1.831 0 1.83 1.832l.001 14.658c0 1.832-1.831 1.832-1.831 1.832H3.669s-1.832 0-1.832-1.832V3.664c0-1.84 1.832-1.832 1.832-1.832" fill="#06f"/>
  <path d="M9.165 0v9.163h3.664V0zm3.664 9.163v3.67h9.16v-3.67zm0 3.67H9.165v9.164h3.664zm-3.664 0v-3.67H.006v3.67z" fill="red"/>
  <path d="m11 7.337a3.665 3.665 0 1 0 0 7.33 3.665 3.665 0 0 0 0-7.33m0 1.832a1.832 1.832 0 1 1 0 3.665 1.832 1.832 0 0 1 0-3.665" fill="#0cf"/>
 </g>
</svg>
