<svg version="1.1" viewBox="0 0 22 22" xmlns="http://www.w3.org/2000/svg">
 <defs>
  <linearGradient id="a" x1="1" x2="0" y1="1">
   <stop stop-color="#f00" offset="0"/>
   <stop stop-color="#ff0086" offset="1"/>
  </linearGradient>
 </defs>
 <path transform="translate(-.000871 .000918) scale(1) translate(.000896 5e-5) scale(1)" d="m7.861 0.2715c-0.04438 0.002054-0.09095 0.006005-0.1367 0.01172-0.7169 0.0898-1.17 0.5887-1.502 1.104-0.3229 0.5011-0.6461 1.206-1.029 2.041l-0.2363 0.5137c-0.2585 0.5629-0.3042 0.6304-0.3535 0.6758-0.04774 0.04368-0.1151 0.08462-0.6934 0.2871l-0.5273 0.1836c-0.855 0.2995-1.582 0.5535-2.107 0.8281-0.5454 0.285-1.073 0.6928-1.232 1.394-0.1622 0.7117 0.1505 1.299 0.5332 1.775 0.3636 0.4533 0.9182 0.9631 1.566 1.557l0.4062 0.3711c0.4447 0.4076 0.4747 0.4588 0.4922 0.5 0.01974 0.04636 0.03666 0.1125 0.02734 0.7305l-0.01172 0.5625c-0.01373 0.9049-0.02418 1.672 0.05273 2.256 0.07901 0.599 0.2813 1.254 0.9219 1.621 0.239 0.1368 0.4844 0.2002 0.7246 0.2148v2e-3c0.05004 3e-3 0.1007 0.0031 0.1504 2e-3 0.3468-0.0081 0.683-0.1105 0.9883-0.2363 0.5464-0.225 1.212-0.619 1.996-1.084l0.4883-0.2871c0.5341-0.3162 0.6032-0.3407 0.6582-0.3477 0.04935-0.0062 0.1106-0.0037 0.6875 0.1738l0.5273 0.1621c0.8437 0.2596 1.566 0.4812 2.143 0.5664 0.6066 0.08973 1.27 0.06251 1.807-0.4277 0.5313-0.4863 0.6233-1.143 0.5996-1.758-0.02277-0.5897-0.1625-1.34-0.3281-2.223l-0.1035-0.5469c-0.1123-0.5987-0.1092-0.673-0.0957-0.7324 0.01446-0.06341 0.04889-0.1367 0.4121-0.6406l0.332-0.4591c0.5378-0.7461 0.9902-1.378 1.268-1.904 0.2834-0.5406 0.4964-1.185 0.2129-1.854-0.2888-0.6811-0.9081-0.9588-1.496-1.104-0.5646-0.1397-1.322-0.2082-2.207-0.2891l-0.5508-0.05078c-0.6083-0.05567-0.6631-0.07902-0.6992-0.09961-0.03509-0.02006-0.08257-0.05443-0.4356-0.5488l-0.3203-0.4473c-0.5124-0.7179-0.9503-1.333-1.356-1.748-0.3969-0.4072-0.9066-0.7769-1.572-0.7461zm0.06445 1.611h0.00195c0.00816-8.25e-4 0.02305-0.00192 0.05469 0.01367 0.0545 0.02682 0.1492 0.0946 0.2969 0.2461 0.308 0.316 0.6787 0.8259 1.24 1.613l0.2793 0.3945c0.01974 0.02758 0.03883 0.05618 0.05859 0.08398 0.2478 0.3492 0.5046 0.7072 0.8867 0.9258 0.3811 0.218 0.8211 0.2568 1.25 0.2949 0.03412 3e-3 0.06757 0.00858 0.1016 0.01172l0.4863 0.04297c0.9684 0.08863 1.6 0.1492 2.031 0.2559 0.2071 0.05128 0.3125 0.1015 0.3633 0.1348 0.02025 0.01335 0.02905 0.02176 0.0332 0.02734l0.0039 0.00391v0.00391l2e-3 0.00195c0.0031 8e-3 0.0082 0.02958 0 0.07812-0.01246 0.07402-0.05349 0.1969-0.1582 0.3965-0.2167 0.4138-0.6006 0.9507-1.186 1.762l-0.293 0.4082c-0.01996 0.02758-0.04061 0.05652-0.06055 0.08398-0.2634 0.3639-0.5206 0.7188-0.6172 1.143-0.09753 0.4282-0.01572 0.8551 0.06641 1.287 0.0062 0.03272 0.01144 0.06491 0.01758 0.09766l0.0918 0.4824c0.1807 0.9626 0.2969 1.597 0.3144 2.053 0.01554 0.4024-0.05466 0.4876-0.07422 0.5059l-0.0039 0.0039c-0.01473 0.01475-0.09988 0.07642-0.4844 0.01953-0.4406-0.06519-1.043-0.247-1.967-0.5312l-0.4648-0.1426c-0.03176-0.0098-0.06384-0.01941-0.0957-0.0293-0.4117-0.1279-0.8294-0.2579-1.268-0.2031-0.432 0.05409-0.8087 0.2788-1.19 0.5059-0.02951 0.01761-0.05827 0.03517-0.08789 0.05273l-0.4317 0.2559c-0.8547 0.5062-1.418 0.8368-1.844 1.012-0.2052 0.08451-0.3286 0.1108-0.3965 0.1152-0.02889 0.0017-0.04166-0.0013-0.04492-2e-3h-0.00195c-0.00141-5.16e-4 -0.00534-0.0025-0.00781-0.0039-6.186e-4 -3.44e-4 -0.0035-0.0018-0.00391-2e-3h-0.00195l-0.00195-2e-3c-0.00365-0.0046-0.01387-0.01978-0.02344-0.03906-0.02887-0.05806-0.06708-0.171-0.09571-0.3885-0.05945-0.4509-0.05018-1.101-0.03516-2.088l0.00586-0.4961c5.499e-4 -0.03444 0.0014-0.06898 0.00195-0.1035 0.00783-0.4392 0.01596-0.8802-0.1543-1.281-0.1723-0.4062-0.494-0.7016-0.8105-0.9902-0.02478-0.02264-0.0515-0.04572-0.07617-0.06836l-0.3555-0.3262c-0.7107-0.6509-1.172-1.078-1.449-1.422-0.1324-0.165-0.1871-0.2685-0.209-0.3301-0.01652-0.04636-0.01555-0.06293-0.01172-0.08008l0.00391-0.00195c0.002576-0.01416 0.0201-0.1195 0.4082-0.3223 0.409-0.2137 1.02-0.4297 1.951-0.7559l0.4688-0.1641c0.03154-0.01105 0.0623-0.02226 0.09375-0.0332 0.4193-0.1459 0.8293-0.2884 1.152-0.584 0.3215-0.2942 0.5028-0.6933 0.6894-1.102 0.01395-0.03069 0.02882-0.061 0.04297-0.0918l0.209-0.457c0.4165-0.9066 0.694-1.504 0.9473-1.896 0.1221-0.1896 0.2097-0.2892 0.2695-0.3379 0.04677-0.03818 0.06966-0.03975 0.08008-0.04102zm8.975 8.045c-0.2064 0-0.4116 0.0792-0.5684 0.2363-0.3134 0.3142-0.3142 0.8252 0 1.139l1.609 1.609c0.1569 0.1569 0.3628 0.2342 0.5684 0.2344h2e-3c0.2057-1.68e-4 0.4116-0.07735 0.5684-0.2344 0.3142-0.3142 0.3142-0.8252 0-1.139l-1.609-1.609c-0.1571-0.1571-0.3639-0.2363-0.5703-0.2363zm3.758 3.756c-0.2063 0-0.4116 0.07725-0.5684 0.2344-0.3134 0.3142-0.3142 0.8272 0 1.141l0.5352 0.5352c0.1571 0.1571 0.3645 0.2363 0.5703 0.2363 0.2059 0 0.4113-0.07914 0.5684-0.2363 0.3142-0.3142 0.3142-0.8252 0-1.139l-0.5352-0.5371c-0.1571-0.1571-0.364-0.2344-0.5703-0.2344zm-11.8 2.144c-0.2063 0-0.4136 0.0792-0.5703 0.2363-0.3134 0.3142-0.3142 0.8272 0 1.141l0.5371 0.5352c0.1569 0.1569 0.3628 0.2342 0.5684 0.2344h0.00195c0.2057-1.68e-4 0.4116-0.07736 0.5684-0.2344 0.3142-0.3142 0.3142-0.8252 0-1.139l-0.5352-0.5371c-0.1571-0.1571-0.364-0.2363-0.5703-0.2363zm7.51 0c-0.2063 0-0.4116 0.0792-0.5684 0.2363-0.3134 0.3142-0.3142 0.8252 0 1.139l2.682 2.684c0.1569 0.1569 0.3648 0.2342 0.5703 0.2344 0.2057-1.68e-4 0.4136-0.07736 0.5703-0.2344 0.3142-0.3142 0.3142-0.8272 0-1.141l-2.684-2.682c-0.1571-0.1571-0.364-0.2363-0.5703-0.2363zm-5.363 2.146c-0.2063 0-0.4136 0.0792-0.5703 0.2363-0.3137 0.3142-0.3142 0.8252 0 1.139l2.146 2.146c0.157 0.157 0.3625 0.2343 0.5684 0.2344h2e-3c0.2056-2.22e-4 0.4116-0.07742 0.5684-0.2344 0.3142-0.3142 0.3142-0.8252 0-1.139l-2.145-2.146c-0.1571-0.1571-0.364-0.2363-0.5703-0.2363z" fill="url(#a)"/>
</svg>
