<svg version="1.1" viewBox="0 0 22 22" xmlns="http://www.w3.org/2000/svg">
 <g transform="translate(0) scale(1) translate(0) scale(1) translate(0) scale(1)" fill="#00fefc" stroke-width="1.375">
  <path d="M7.737 11.229c-.385-.183-.553-.63-.515-1.375a4.9 4.9 0 0 1 .64-2.146c.197-.338.193-.337.354-.08.594.953.865 2.38.59 3.112a.86.86 0 0 1-.325.454c-.113.078-.16.092-.36.099-.194.008-.257-.003-.385-.063zm-.668 7.698c-2.728-.195-4.576-1.496-4.227-2.974.23-.974 1.404-1.781 3.083-2.117.701-.138 1.004-.165 1.858-.165.839.002 1.235.04 1.87.178.181.042.364.08.405.087l.076.012-.08.005c-.042.002-.22.045-.392.096-1.443.426-2.31 1.042-2.574 1.837a1.55 1.55 0 0 0 .016.873c.264.764 1.192 1.417 2.548 1.792.165.046.312.094.326.105.012.012-.11.052-.272.088a9.4 9.4 0 0 1-2.636.183z" opacity=".3"/>
  <path d="M12.229 18.948c-.766-.05-1.948-.206-2.053-.272-.018-.011.12-.07.304-.133 2.076-.704 2.827-2.204 1.722-3.44-.378-.422-1.177-.88-1.917-1.097l-.18-.054.27-.055c1.778-.363 3.974-.3 5.616.161 1.856.52 2.849 1.478 2.629 2.536-.065.31-.226.582-.512.866-.3.301-.52.454-.981.677-.777.379-1.91.662-3.059.768a23 23 0 0 1-1.838.044z" opacity=".55"/>
  <path d="M10.899 12.429c-.267-.085-.481-.381-.546-.754a3.9 3.9 0 0 1 .05-1.114 5 5 0 0 1 .345-.985c.13-.273.378-.677.415-.677s.283.404.412.677c.253.53.39 1.059.413 1.602.026.643-.128 1.04-.47 1.217a1.03 1.03 0 0 1-.62.033zM9.697 18.558a6.2 6.2 0 0 1-1.13-.423c-.459-.223-.68-.376-.983-.675-.405-.403-.562-.77-.53-1.25.059-.927 1.011-1.697 2.676-2.162.404-.113.44-.109 1.022.126 1.22.491 1.893 1.2 1.95 2.047.064.957-.798 1.848-2.259 2.333-.179.06-.34.107-.362.106a6 6 0 0 1-.383-.103z" opacity=".7"/>
  <path d="M6.178 5.033 5.055 3.912l-1.06 1.062c-1.051 1.05-1.06 1.06-1.004 1.121.055.06.077.062 2.183.062h2.127zM5.03 9.447a58 58 0 0 1-1.602-1.576c-1.013-1.018-1.52-1.544-1.533-1.6-.057-.233-.065-.222 1.276-1.567l1.255-1.257-.205-.207c-.296-.3-.325-.522-.094-.725.085-.075.134-.094.242-.094a.6.6 0 0 1 .219.043c.044.024.903.869 1.91 1.876C7.75 5.597 8.333 6.2 8.346 6.257a.39.39 0 0 1-.129.406c-.062.055-.129.115-.147.136-.293.319-2.61 2.63-2.67 2.662a.39.39 0 0 1-.37-.014zm10.09 2.927a66 66 0 0 1-3.48-3.524c-.201-.209-.388-.43-.233-.678.036-.055 1.09-1.136 2.397-2.434 2.585-2.574 2.46-2.464 2.717-2.395a.45.45 0 0 1 .288.23.6.6 0 0 1 .015.379 3 3 0 0 1-.312.344l-.291.288.944.945 2.091 2.06s.341.37.341.534a.6.6 0 0 1-.041.218c-.022.04-.371.405-.371.405s-.66.673-2.335 2.331c-.701.7-1.309 1.286-1.354 1.302-.104.04-.304.037-.377-.004zm3.324-4.157.08-.069-1.466-1.467-1.467-1.468-1.537 1.539-1.539 1.538h5.849zM0 0v2.75h1.375V1.375H2.75V0zm4.125 0v1.375h2.75V0zm4.124 0v1.375H11V0zm4.125 0v1.375h2.75V0zm4.124 0v1.375h1.375V0zm2.75 0v1.375h1.375V2.75h1.375V0zM0 4.125v2.75h1.375v-2.75zm20.618 0v2.75h1.375v-2.75zM0 8.249V11h1.375v-2.75zm20.618 0V11h1.375v-2.75zM0 12.374v2.75h1.375v-2.75zm20.618 0v2.75h1.375v-2.75zM0 16.498v1.375h1.375v-1.375zm20.618 0v1.375h1.375v-1.375zM0 19.248v2.75h2.75v-1.375H1.375v-1.375zm20.618 0v1.375h-1.375v1.375h2.75v-2.75zM4.12 20.623v1.375h2.75v-1.375zm4.124 0v1.375h2.75v-1.375zm4.125 0v1.375h2.75v-1.375zm4.124 0v1.375h1.375v-1.375z"/>
 </g>
</svg>
