<svg version="1.1" viewBox="0 0 22 22" xmlns="http://www.w3.org/2000/svg">
 <defs>
  <linearGradient id="a" x1="1" x2="0" y1="1">
   <stop stop-color="#002eff" offset="0"/>
   <stop stop-color="#fb00ff" offset="1"/>
  </linearGradient>
 </defs>
 <path transform="translate(0) scale(1) translate(0) scale(1) translate(0) scale(1) translate(0) scale(1) translate(0 -.000369) scale(1) translate(0 -.002135) scale(1) translate(0 .01339) scale(.9855)" d="m9.196 0.008213c-5.068 0-9.196 4.129-9.196 9.194 0 5.068 4.131 9.196 9.196 9.196 2.272 0 4.355-0.8297 5.961-2.202l-0.007928 0.007928 0.6064 0.7115c-0.2708 0.5263-0.1692 1.168 0.2517 1.584l3.375 3.399c0.5237 0.5245 1.383 0.5245 1.907 0l0.6401-0.6441c0.5239-0.5271 0.5239-1.378 0-1.905l-3.397-3.375c-0.419-0.4191-1.064-0.5132-1.584-0.2299l-0.7293-0.6144-0.01784 0.01784c1.364-1.605 2.188-3.682 2.188-5.946 0-5.068-4.128-9.194-9.194-9.194zm0 1.934c4.021 0 7.262 3.242 7.262 7.264s-3.24 7.262-7.262 7.262c-4.021 0-7.264-3.24-7.264-7.262 0-4.021 3.242-7.264 7.264-7.264zm0 1.938c-1.284-8.62e-4 -2.518 0.5098-3.425 1.419a0.9682 0.9682 0 0 0 0.001982 1.367 0.9682 0.9682 0 0 0 1.367-0.001982c0.5441-0.5451 1.285-0.8491 2.055-0.8482a0.9682 0.9682 0 0 0 0.001982 0c0.7701-8.229e-4 1.506 0.3029 2.051 0.8482a0.9682 0.9682 0 0 0 1.367 0.001982 0.9682 0.9682 0 0 0 0.001982-1.367c-0.9068-0.9086-2.139-1.42-3.423-1.419z" fill="url(#a)"/>
</svg>
