<svg fill="none" version="1.1" viewBox="0 0 22 22" xmlns="http://www.w3.org/2000/svg">
 <defs>
  <linearGradient id="a" x1="5.2" x2="5.2" y1="13.13" y2="2.867" gradientUnits="userSpaceOnUse">
   <stop stop-color="#fd5900" offset="0"/>
   <stop stop-color="#ffde00" offset="1"/>
  </linearGradient>
  <linearGradient id="c" x1="12.67" x2="12.67" y1="13.13" y2="8.467" gradientUnits="userSpaceOnUse">
   <stop stop-color="#fd5900" offset="0"/>
   <stop stop-color="#ffde00" offset="1"/>
  </linearGradient>
 </defs>
 <path transform="translate(-.00098 -.00058) scale(1) translate(-1.845 -1.718) scale(1.59)" d="M4.822 2.867a.4.4 0 0 0-.378.27l-3.261 9.467a.4.4 0 0 0 .378.53h.932a.4.4 0 0 0 .379-.271l.45-1.324a.4.4 0 0 1 .378-.272h3.003a.4.4 0 0 1 .379.27l.456 1.327a.4.4 0 0 0 .378.27h.924a.4.4 0 0 0 .378-.53L5.957 3.137a.4.4 0 0 0-.378-.27zm-.003 4.35a.4.4 0 0 1 .76 0l.55 1.657a.4.4 0 0 1-.379.526H4.648a.4.4 0 0 1-.38-.526z" fill="url(#a)"/>
 <path transform="translate(-.00098 -.00058) scale(1) translate(-1.845 -1.718) scale(1.59)" d="M11.2 8.467a.4.4 0 0 0-.4.4V9c0 .221.18.4.4.4h2.4c.2 0 .467.285.467.467v.067a.4.4 0 0 1-.4.4h-1.933c-.43 0-.812.176-1.05.452-.238.27-.35.612-.35.948s.126.677.364.948.61.452 1.035.452H14.6a.4.4 0 0 0 .4-.4V9.867c0-.761-.616-1.4-1.4-1.4zm.533 2.8h1.933c.221 0 .4.18.4.4v.133a.4.4 0 0 1-.4.4h-1.933c-.186 0-.265-.051-.335-.13s-.131-.206-.131-.336.046-.256.116-.336c.07-.074.154-.131.35-.131" clip-rule="evenodd" fill="url(#c)" fill-rule="evenodd" opacity=".4"/>
</svg>
