<svg version="1.1" viewBox="0 0 22 22" xmlns="http://www.w3.org/2000/svg">
 <defs>
  <linearGradient id="a" y1=".5" y2=".5">
   <stop stop-color="#07f" offset="0"/>
   <stop stop-color="#00f7ff" offset="1"/>
  </linearGradient>
 </defs>
 <path transform="translate(.000466 .00081) scale(1) translate(-1.279 -1.279) scale(1.023)" d="m7 10.25c-1.178 0-2.078-0.0053-2.844 0.09766-0.7657 0.1029-1.447 0.3452-1.955 0.8535-0.5084 0.5084-0.7506 1.189-0.8535 1.955-0.103 0.7657-0.09763 1.665-0.09766 2.844-2.5e-5 1.179-0.00528 2.078 0.09766 2.844 0.1029 0.7658 0.3451 1.447 0.8535 1.955 0.5084 0.5084 1.189 0.7506 1.955 0.8535 0.7658 0.103 1.665 0.09766 2.844 0.09766h10c1.178 0 2.078 0.0053 2.844-0.09766 0.7658-0.103 1.447-0.3452 1.955-0.8535 0.5083-0.5084 0.7506-1.189 0.8535-1.955 0.103-0.7657 0.09766-1.665 0.09766-2.844s0.0053-2.078-0.09766-2.844c-0.1029-0.7658-0.3452-1.447-0.8535-1.955-0.5084-0.5083-1.189-0.7506-1.955-0.8535s-1.665-0.09766-2.844-0.09766zm0 1.5h10c1.178 0 2.047 0.0039 2.643 0.08398 0.5958 0.0801 0.8718 0.2039 1.096 0.4277 0.2239 0.2239 0.3476 0.4999 0.4277 1.096 0.0801 0.5958 0.08398 1.464 0.08398 2.643s-0.0039 2.047-0.08398 2.643c-0.0801 0.5958-0.2039 0.8718-0.4277 1.096-0.2239 0.2239-0.4999 0.3476-1.096 0.4277-0.5958 0.0801-1.464 0.08398-2.643 0.08398h-10c-1.178 0-2.047-0.0039-2.643-0.08398-0.5958-0.08012-0.8718-0.2039-1.096-0.4277-0.2238-0.2238-0.3476-0.4999-0.4277-1.096s-0.08401-1.464-0.08398-2.643c2.5e-5 -1.178 0.00387-2.047 0.08398-2.643 0.08012-0.5958 0.2039-0.8719 0.4277-1.096 0.2239-0.2238 0.4999-0.3476 1.096-0.4277 0.5958-0.0801 1.464-0.08398 2.643-0.08398z" fill="url(#a)"/>
 <path transform="translate(.000466 .00081) scale(1) translate(-1.279 -1.279) scale(1.023)" d="m8 6.25c-1.4 0-2.204-0.03924-2.975 0.3535-0.6113 0.3115-1.11 0.8086-1.422 1.42-0.3928 0.7707-0.3535 1.576-0.3535 2.977a0.75 0.75 0 0 0 0.75 0.75 0.75 0.75 0 0 0 0.75-0.75c5e-5 -1.4 0.03908-1.996 0.1914-2.295 0.1678-0.3293 0.4344-0.5959 0.7637-0.7637 0.2989-0.1523 0.8947-0.1914 2.295-0.1914h8c1.4 0 1.996 0.03912 2.295 0.1914 0.3294 0.1678 0.5958 0.4342 0.7637 0.7637 0.1523 0.2989 0.1914 0.8948 0.1914 2.295a0.75 0.75 0 0 0 0.75 0.75 0.75 0.75 0 0 0 0.75-0.75c0-1.4 0.0392-2.204-0.3535-2.975-0.3115-0.6114-0.8104-1.11-1.422-1.422-0.7707-0.3927-1.574-0.3535-2.975-0.3535z" fill="url(#a)"/>
 <path transform="translate(.000466 .00081) scale(1) translate(-1.279 -1.279) scale(1.023)" d="m10 2.25c-1.4 0-2.204-0.03922-2.975 0.3535-0.6114 0.3115-1.11 0.8086-1.422 1.42-0.3928 0.7707-0.3535 1.576-0.3535 2.977a0.75 0.75 0 0 0 0.75 0.75 0.75 0.75 0 0 0 0.75-0.75c4e-5 -1.4 0.0391-1.996 0.1914-2.295 0.1678-0.3293 0.4344-0.5959 0.7637-0.7637 0.2989-0.1523 0.8947-0.1914 2.295-0.1914h4c1.4 0 1.996 0.03912 2.295 0.1914 0.3294 0.1678 0.5958 0.4342 0.7637 0.7637 0.1523 0.2989 0.1914 0.8948 0.1914 2.295a0.75 0.75 0 0 0 0.75 0.75 0.75 0.75 0 0 0 0.75-0.75c0-1.4 0.0392-2.204-0.3535-2.975-0.3115-0.6114-0.8104-1.11-1.422-1.422-0.7707-0.3927-1.574-0.3535-2.975-0.3535z" fill="url(#a)"/>
 <path transform="translate(.000466 .00081) scale(1) translate(-1.279 -1.279) scale(1.023)" d="m8.008 14.25a0.75 0.75 0 0 0-0.457 0.1484 0.75 0.75 0 0 0-0.1504 1.049l0.2988 0.4004c0.5888 0.7851 0.9402 1.294 1.57 1.609 0.6302 0.315 1.249 0.291 2.23 0.291h1c0.9814 0 1.6 0.02398 2.23-0.291 0.6301-0.3152 0.9814-0.8243 1.57-1.609l0.2988-0.4004a0.75 0.75 0 0 0-0.1504-1.049 0.75 0.75 0 0 0-1.049 0.1504l-0.3008 0.3984c-0.5889 0.7851-0.8266 1.061-1.041 1.168-0.2145 0.1072-0.5772 0.1328-1.559 0.1328h-1c-0.9814 0-1.344-0.02559-1.559-0.1328-0.2145-0.1073-0.4522-0.3829-1.041-1.168l-0.3008-0.3984a0.75 0.75 0 0 0-0.5918-0.2988z" fill="url(#a)"/>
</svg>
