<svg version="1.1" viewBox="0 0 22 22" xmlns="http://www.w3.org/2000/svg">
 <g transform="translate(-0 6e-5) scale(1)" stroke-width=".026">
  <path d="M1.722 18.116q-.745 0-1.234-.489Q0 17.14 0 16.393q0-.747.488-1.234.489-.488 1.234-.489h17.719q.745 0 1.233.49.489.488.489 1.233 0 .75-.489 1.236-.488.486-1.233.487zm12.55-1.082h4.957a.62.62 0 0 0 .64-.64q0-.364-.181-.502a.74.74 0 0 0-.46-.14h-4.957z" fill="#ff0"/>
  <path d="M14.798 3.883q-.519 0-.894.377-.376.374-.375.894 0 .519.375.893c.25.254.548.377.894.377q.519 0 .885-.37.365-.366.365-.892 0-.528-.365-.902a1.19 1.19 0 0 0-.885-.377m5.93 0q-.52-.001-.883.367-.365.368-.365.894c0 .526.12.652.363.902.243.254.537.377.885.377.345 0 .643-.123.894-.377q.376-.373.377-.892 0-.52-.377-.894a1.22 1.22 0 0 0-.894-.377M14.452 9.26c-.216 0-.368.123-.455.36a.69.69 0 0 0 .102.677q.645.889 1.605 1.326.96.433 2.05.434 1.143 0 2.143-.477a4.06 4.06 0 0 0 1.635-1.41.52.52 0 0 0 .055-.592q-.159-.317-.477-.318a.74.74 0 0 0-.4.106 2 2 0 0 0-.32.253 2.95 2.95 0 0 1-1.16.873 3.7 3.7 0 0 1-1.45.293q-.757.001-1.456-.271a2.67 2.67 0 0 1-1.164-.873 1.4 1.4 0 0 0-.313-.262.7.7 0 0 0-.394-.119z" fill="#00ff80"/>
  <path d="M1.271 3.883q-.518 0-.894.377-.376.374-.377.894 0 .519.377.893c.25.254.55.377.904.377q.509 0 .873-.373.365-.374.365-.893c0-.519-.12-.649-.363-.898a1.19 1.19 0 0 0-.885-.377m5.918 0q-.509-.002-.873.373-.365.373-.365.898 0 .519.363.892c.242.254.538.377.887.377.345 0 .643-.123.894-.377q.376-.373.377-.892 0-.52-.377-.894a1.24 1.24 0 0 0-.906-.377m-2.953 4.87q-1.1-.002-2.059.436A4 4 0 0 0 .571 10.51a.7.7 0 0 0-.107.677q.125.361.467.36a.7.7 0 0 0 .394-.114q.177-.12.305-.267.468-.598 1.16-.873a4 4 0 0 1 1.465-.272q.773 0 1.457.293a2.94 2.94 0 0 1 1.147.873c.1.102.206.182.319.254a.73.73 0 0 0 .402.106q.317 0 .477-.319a.52.52 0 0 0-.053-.591 4.07 4.07 0 0 0-1.641-1.406 4.9 4.9 0 0 0-2.129-.479z" fill="#d500ff"/>
 </g>
</svg>
