<svg version="1.1" viewBox="0 0 22 22" xmlns="http://www.w3.org/2000/svg">
 <g transform="translate(0) scale(1) translate(0) scale(1) translate(-.000254) scale(1)" fill="#28ff00" stroke-width="1.963">
  <path d="m13.819 0-1.165 1.518c1.599 1.228 2.145 2.339 2.369 3.58.223 1.24.047 2.661-.046 4.273s-.083 3.43.693 5.344c.777 1.912 2.3 3.868 5.033 5.852l1.123-1.552c-2.526-1.834-3.755-3.489-4.378-5.021-.622-1.532-.648-2.992-.56-4.512.089-1.52.315-3.088.02-4.725-.222-1.23-.78-2.471-1.848-3.63A10 10 0 0 0 13.818 0zM1.449 2.097a.958.958 0 0 0-.271 1.863c1.808.649 1.963 1.267 1.836 2.494s-.932 2.983-1.68 4.83S-.125 15.13.3 17.136s2.11 3.74 5.377 4.814a.958.958 0 0 0 .598-1.821c-2.906-.956-3.832-2.11-4.104-3.392-.273-1.28.223-2.965.939-4.733.715-1.768 1.623-3.565 1.808-5.355S4.17 2.996 1.825 2.154a1 1 0 0 0-.376-.058z"/>
  <path d="M1.2 2.602 13.729.812l1.921 3.843s.2 4.44.2 4.839c0 .398.596 5.235.662 5.5s1.59 2.651 2.055 2.983c.464.331 2.585 1.79 2.585 1.79L6.303 21.29l-3.115-1.922s-2.253-1.59-2.186-1.856c.066-.265 0-2.386.198-3.115.2-.729 1.193-3.976 1.193-3.976s.862-2.983.928-3.314-.265-2.916-.265-2.916z" opacity=".3"/>
 </g>
</svg>
