<svg version="1.1" viewBox="0 0 22 22" xmlns="http://www.w3.org/2000/svg">
 <defs>
  <linearGradient id="a" y1="1">
   <stop stop-color="#fee800" offset="0"/>
   <stop stop-color="#ff1162" offset=".507"/>
   <stop stop-color="#ff00ab" offset="1"/>
  </linearGradient>
 </defs>
 <path transform="translate(0 -.004) scale(1) translate(-.00063 .00205) scale(1) translate(-2.093 25.3) scale(.02719)" d="m91-184.8c-9.333-9.33-14-21-14-35s4.667-25.67 14-35l222-222c18.67-18.67 40.83-28 66.5-28s47.83 9.33 66.5 28l93 92 266-298q13-15 32.5-16.5c19.5-1.5 24.17 3.17 33.5 12.5 9.333 8.67 14.33 19.5 15 32.5s-3 24.17-11 33.5l-267 302c-18 20.67-40.67 31.33-68 32s-50.67-8.67-70-28l-90-89-219 219c-9.333 9.33-21 14-35 14s-25.67-4.67-35-14m508.4-460-25.72-57.29-57.29-25.72c-11.69-5.38-17.54-14.5-17.54-26.89s5.846-21.51 17.54-26.89l57.29-24.56 25.72-58.44c4.676-10.99 13.26-16.37 25.72-16.37s21.44 5.38 26.89 16.37l25.72 58.44 57.28 24.56c11.69 5.38 17.54 14.5 17.54 26.89s-5.846 21.51-17.54 26.89l-57.28 25.72-25.72 57.29c-5.449 11.68-14.43 17.52-26.89 17.52s-21.04-5.84-25.72-17.52" fill="url(#a)"/>
</svg>
