<svg fill="none" version="1.1" viewBox="0 0 22 22" xmlns="http://www.w3.org/2000/svg">
 <defs>
  <linearGradient id="a" x1=".5" x2="15.61" y1="7.936" y2="7.936" gradientUnits="userSpaceOnUse">
   <stop stop-color="#FFC152" offset="0"/>
   <stop stop-color="#FF5F5F" offset="1"/>
  </linearGradient>
 </defs>
 <path transform="translate(-.7281 -.5555) scale(1.456)" d="m3.856 4.224c0-0.9523 0.772-1.724 1.724-1.724 0.9523 0 1.724 0.772 1.724 1.724 0 0.9523-0.772 1.724-1.724 1.724-0.9523 0-1.724-0.772-1.724-1.724zm1.724-3.224c-1.781 0-3.224 1.444-3.224 3.224s1.444 3.224 3.224 3.224 3.224-1.444 3.224-3.224-1.444-3.224-3.224-3.224zm4.33 0c-0.4142 0-0.75 0.3358-0.75 0.75s0.3358 0.75 0.75 0.75c0.9522 0 1.724 0.772 1.724 1.724 0 0.9523-0.772 1.724-1.724 1.724-0.4142 0-0.75 0.3358-0.75 0.75 0 0.4142 0.3358 0.75 0.75 0.75 1.781 0 3.224-1.444 3.224-3.224s-1.444-3.224-3.224-3.224zm-9.41 11.14c0-2.054 1.665-3.719 3.719-3.719h2.722c2.054 0 3.719 1.665 3.719 3.719 0 1.507-1.222 2.729-2.729 2.729h-4.701c-1.507 0-2.729-1.222-2.729-2.729zm3.719-2.219c-1.226 0-2.219 0.9935-2.219 2.219 0 0.6789 0.5504 1.229 1.229 1.229h4.701c0.679 0 1.229-0.5504 1.229-1.229 0-1.226-0.9935-2.219-2.219-2.219h-2.722zm6.928-1.5c-0.4143 0-0.75 0.3358-0.75 0.75s0.3357 0.75 0.75 0.75h0.7422c1.226 0 2.219 0.9935 2.219 2.219 0 0.6789-0.5504 1.229-1.229 1.229h-1.732c-0.4143 0-0.75 0.3358-0.75 0.75s0.3357 0.75 0.75 0.75h1.732c1.507 0 2.729-1.222 2.729-2.729 0-2.054-1.665-3.719-3.719-3.719h-0.7422z" clip-rule="evenodd" fill="url(#a)" fill-rule="evenodd"/>
</svg>
