<svg version="1.1" viewBox="0 0 22 22" xmlns="http://www.w3.org/2000/svg">
 <path transform="translate(0) scale(1)" d="M16.718.004a.8.8 0 0 0-.553.201l-.851.729a.816.816 0 0 1-1.074 0L13.39.205a.82.82 0 0 0-1.072 0l-.851.729a.816.816 0 0 1-1.074 0L9.541.205a.825.825 0 0 0-1.074 0l-.851.729a.81.81 0 0 1-1.072 0L5.693.205a.826.826 0 0 0-1.074 0l-.851.729a.81.81 0 0 1-1.072 0L1.845.205A.825.825 0 0 0 .482.83v16.495A4.69 4.69 0 0 0 5.157 22h11.686a4.69 4.69 0 0 0 4.675-4.675.825.825 0 0 0-.826-.824H17.53V.826A.824.824 0 0 0 16.722 0zM5.15 1.918l.315.269c.922.79 2.297.79 3.22 0L9 1.917l.314.27c.922.79 2.298.79 3.22 0l.315-.27.314.27a2.48 2.48 0 0 0 2.71.326V16.5H9a.82.82 0 0 0-.582.242.82.82 0 0 0-.242.582c0 1.68-1.344 3.024-3.024 3.024s-3.024-1.345-3.024-3.024V2.507c.871.432 1.945.33 2.71-.326l.315-.27zm4.591 16.235h9.991a3 3 0 0 1-2.897 2.198H8.682a4.63 4.63 0 0 0 1.06-2.198" fill="#06f"/>
 <path transform="translate(0) scale(1)" d="M4.459 4.818c-.297 0-.538.369-.538.824s.24.825.538.825h5.556c.297 0 .538-.37.538-.825s-.241-.824-.538-.824zm0 3.849c-.297 0-.538.369-.538.824s.24.825.538.825h5.556c.297 0 .538-.37.538-.825s-.241-.824-.538-.824zm0 3.848c-.297 0-.538.37-.538.825s.24.825.538.825h5.556c.297 0 .538-.37.538-.825s-.241-.825-.538-.825z" fill="#0cf"/>
 <path transform="translate(0) scale(1) translate(.003 .006) scale(.9997)" d="M12.64 9.158V7.937h-1.229a.33.33 0 0 1-.33-.33v-.222a.33.33 0 0 1 .33-.33h1.229V5.814a.33.33 0 0 1 .33-.33h.222a.33.33 0 0 1 .33.33v1.24h1.23a.33.33 0 0 1 .33.33v.223a.33.33 0 0 1-.33.33h-1.23v1.221a.33.33 0 0 1-.33.33h-.222a.33.33 0 0 1-.33-.33" fill="#0f0" style="isolation:isolate"/>
 <path transform="translate(0) scale(1) translate(.003 .006) scale(.9997)" d="M14.73 11.9h-3.308a.346.346 0 0 1-.346-.346v-.364c0-.191.155-.347.346-.347h3.308c.191 0 .346.156.346.347v.364a.346.346 0 0 1-.346.346" fill="red" style="isolation:isolate"/>
</svg>
