<svg version="1.1" viewBox="0 0 22 22" xmlns="http://www.w3.org/2000/svg">
 <defs>
  <style>.ColorScheme-Text { color:#ebdbb2; } .ColorScheme-Highlight { color:#458588; }</style>
 </defs>
 <path transform="translate(0) scale(1) translate(0) scale(1) translate(0) scale(1) translate(-1.571 -1.571) scale(1.571)" d="m8 1c-3.863 0-7 3.137-7 7s3.137 7 7 7 7-3.137 7-7-3.137-7-7-7zm0 2c1.019 0 1.959 0.2876 2.75 0.8125l-2.762 2.762-2.744-2.744c0.7905-0.5239 1.737-0.8301 2.756-0.8301zm-4.17 2.244 2.744 2.744-2.762 2.762c-0.5249-0.791-0.8125-1.731-0.8125-2.75 0-1.018 0.3065-1.965 0.8301-2.756zm8.357 0.005859c0.5248 0.791 0.8125 1.731 0.8125 2.75 0 1.018-0.3065 1.965-0.8301 2.756l-2.744-2.744zm-4.176 4.176 2.744 2.744c-0.7904 0.5236-1.74 0.8301-2.758 0.8301-1.019 0-1.959-0.2876-2.75-0.8125z" fill="#f00"/>
</svg>
