<svg fill="none" version="1.1" viewBox="0 0 22 22" xmlns="http://www.w3.org/2000/svg">
 <defs>
  <linearGradient id="c" x1=".798" x2="17.21" y1=".157" y2="14.96" gradientUnits="userSpaceOnUse">
   <stop stop-color="#f9d423" offset="0"/>
   <stop stop-color="#ff4e50" offset=".516"/>
   <stop stop-color="#8a2387" offset=".991"/>
  </linearGradient>
  <clipPath id="a">
   <path d="M0 0h16v16H0z" fill="#fff"/>
  </clipPath>
 </defs>
 <g transform="translate(-4e-5) scale(1) translate(4e-5) scale(1.375)" clip-path="url(#a)">
  <path d="M8.072 0a7 7 0 0 0-3.488.891 1 1 0 1 0 .975 1.744A5 5 0 0 1 13 6.994q0 .003.002.008l-.002.01v.997a.996.996 0 0 0 1 .998 1 1 0 0 0 1-.998V6.994A7 7 0 0 0 11.54.96 7 7 0 0 0 8.073 0zM2.955 2.994a1.03 1.03 0 0 0-.516.115 1 1 0 0 0-.382.352A6.6 6.6 0 0 0 1.006 6.88L1 6.942V12a.999.999 0 0 0 1.707.706A1 1 0 0 0 3 12V7.03c0-.901.263-1.784.756-2.55a.94.94 0 0 0-.305-1.336 1 1 0 0 0-.496-.15zM8 3a4.015 4.015 0 0 0-4 4.012v.998a.996.996 0 0 0 1 .997 1 1 0 0 0 1-.997V7c0-1.116.883-2 2-2a1.985 1.985 0 0 1 2 2.012v4.986s.01.44.176.94c.23.664.613 1.266 1.117 1.76a1 1 0 0 0 1.098.23 1 1 0 0 0 .622-.932 1 1 0 0 0-.306-.709c-.383-.38-.55-.733-.633-.98-.084-.248-.074-.309-.074-.309V7c0-2.197-1.803-4-4-4zm-.016 3A1 1 0 0 0 7 7.012v4.986s0 .593.145 1.316.412 1.647 1.148 2.38a1 1 0 1 0 1.414-1.41c-.265-.262-.497-.836-.602-1.358-.105-.524-.106-.928-.106-.928V7.012A.995.995 0 0 0 7.984 6zm-3 3.99A1 1 0 0 0 4 11v2.992a.996.996 0 0 0 1 .997 1 1 0 0 0 1-.997V11a.995.995 0 0 0-.625-.937 1 1 0 0 0-.39-.073M14 10a1 1 0 1 0 0 1.998A1 1 0 0 0 14 10" fill="url(#c)"/>
 </g>
</svg>
