<svg version="1.1" viewBox="0 0 22 22" xmlns="http://www.w3.org/2000/svg">
 <defs>
  <linearGradient id="a" x2="0" y2="1">
   <stop stop-color="#ffea00" offset=".279"/>
   <stop stop-color="#fd0" offset=".402"/>
   <stop stop-color="#ffba00" offset=".63"/>
   <stop stop-color="#ff9100" offset=".856"/>
   <stop stop-color="#ff6711" offset=".933"/>
   <stop stop-color="#ff4a1d" offset=".994"/>
  </linearGradient>
 </defs>
 <path transform="translate(.00052 -.000743) scale(1) translate(-1.29 -1.285) scale(1.024)" d="M11.96 1.256a.7.7 0 0 0-.15.021.8.8 0 0 0-.461.354l-.094.148V5.22l.094.149c.357.574 1.223.443 1.363-.207.057-.268.057-3.071 0-3.32a.75.75 0 0 0-.752-.586zm5.975.996a.1.1 0 0 0-.04.008 2 2 0 0 1-.16.04c-.086.02-.425.33-1.212 1.112-.601.598-1.13 1.15-1.176 1.225-.133.212-.12.558.031.771.064.091.185.2.268.243a.86.86 0 0 0 .675.013c.076-.037.637-.565 1.242-1.176 1.04-1.045 1.105-1.119 1.143-1.299.071-.34-.053-.659-.322-.822a1 1 0 0 0-.45-.115zm-11.98.008a.7.7 0 0 0-.14.017.8.8 0 0 0-.46.35c-.12.197-.122.546-.004.736.046.075.575.626 1.176 1.223 1.025 1.02 1.105 1.087 1.283 1.125.58.121 1.021-.321.9-.9-.037-.178-.104-.258-1.124-1.283-.597-.601-1.14-1.126-1.205-1.166a.84.84 0 0 0-.426-.102zm6.365 4.998c-3.751-.004-7.001.004-7.221.02-1.009.07-1.532.446-1.738 1.253-.098.385-.149 1.682-.086 2.21.081.682.004.585 2.53 3.12 1.783 1.791 2.25 2.283 2.323 2.441l.092.198.02 2.859.019 2.86.094.15c.362.582 1.227.44 1.365-.224.032-.156.042-.975.033-2.803l-.012-2.584h4.52v5.461l.094.149c.31.5 1.054.48 1.31-.037.072-.144.077-.31.096-2.992l.02-2.84.09-.198c.074-.158.541-.65 2.325-2.44 2.525-2.537 2.448-2.439 2.529-3.122.062-.52.011-1.829-.086-2.207-.164-.642-.52-.994-1.186-1.182l-.313-.09zm-.271 1.516c5.733.005 7.077.017 7.119.059.037.037.055.241.064.73l.012.678H4.764v-.617c0-.648.028-.805.148-.836.04-.011 3.254-.017 7.141-.014zM5.824 11.76h12.35l-1.69 1.695c-.928.933-1.686 1.716-1.686 1.74 0 .033-.77.045-2.8.045H9.2l-.047-.09c-.026-.049-.786-.832-1.69-1.74zm6.14 6.496a.7.7 0 0 0-.15.021.8.8 0 0 0-.46.354c-.093.147-.095.162-.095 1.369s.002 1.222.094 1.369c.357.574 1.223.443 1.363-.207.056-.261.056-2.078 0-2.32a.75.75 0 0 0-.752-.586z" fill="url(#a)"/>
</svg>
