<svg version="1.1" viewBox="0 0 22 22" xmlns="http://www.w3.org/2000/svg">
 <defs>
  <linearGradient id="a" y2="1">
   <stop stop-color="#f7f206" offset="0"/>
   <stop stop-color="#ffbb24" offset=".983"/>
  </linearGradient>
 </defs>
 <path transform="translate(0) scale(1) translate(0 -.002) scale(1) translate(.00025 .00275) scale(1) translate(-1.422 23.42) scale(.02585)" d="M149-135c-26.03 0-48.21-9.327-66.53-27.98C64.16-181.63 55-203.63 55-229v-502c0-25.64 9.157-47.88 27.47-66.73C100.79-816.58 122.97-826 149-826h222c12.46 0 24.57 2.667 36.34 8s22.02 12.36 30.75 21.09L481.45-754h329.6c25.64 0 47.88 9.323 66.73 27.97 18.85 18.65 28.27 40.66 28.27 66.03v431c0 25.37-9.423 47.37-28.27 66.02-18.85 18.65-41.09 27.98-66.73 27.98zm0-94h662v-431H442l-71-71H149zm171.1-157v-60.67c0-21.7 17.62-39.3 39.32-39.3h241.1c21.71 0 39.32 17.6 39.32 39.3V-386c0 21.71-17.62 39.33-39.32 39.33s-39.33-17.62-39.33-39.33v-21.34h-162.4V-386c0 21.71-17.62 39.33-39.33 39.33s-39.32-17.62-39.32-39.33z" fill="url(#a)"/>
</svg>
