<svg version="1.1" viewBox="0 0 22 22" xmlns="http://www.w3.org/2000/svg">
 <defs>
  <linearGradient id="a" y1="1">
   <stop stop-color="#00f0ff" offset="0"/>
   <stop stop-color="#00c3ff" offset="1"/>
  </linearGradient>
 </defs>
 <path transform="translate(0 .00127) scale(1) translate(0 -7e-5) scale(1)" d="m8.652 7.111v1.17h1.17v-1.17zm1.17 1.17v1.17h1.164v1.168h1.17v-1.168h-1.164l-2e-3 -1.17zm-1.17 0h-1.168v1.17h1.164v1.168h1.17v-1.168h-1.164zm-5.893 0v1.17h1.211v1.168h1.17v-1.168h-1.166v-1.17zm2.385 0v1.17h1.164v1.168h1.172v-1.168h-1.166v-1.17zm7.016 0v1.17h1.164v1.168h1.17v-1.168h-1.164l-2e-3 -1.17zm2.338 0v1.17h1.166v1.168h1.168v-1.168h-1.164v-1.17zm2.338 0v1.17h1.164v1.168h1.17v-1.168h-1.164v-1.17zm2.344 0v1.17h1.223v-1.17z" fill="url(#a)" opacity=".6"/>
 <path transform="translate(0 .00127) scale(1) translate(0 -7e-5) scale(1)" d="m3.984 7.111v1.172h1.17v-1.172zm2.338 0v1.172h1.17v-1.172zm4.678 0v1.172h1.17v-1.172zm2.338 0v1.172h1.17v-1.172zm2.338 0v1.172h1.17l-2e-3 -1.172zm2.336 0v1.172h1.17v-1.172zm-16.4 0.01172v1.17h1.17v-1.17zm0 2.338v1.17h1.17v-1.17z" fill="url(#a)" opacity=".6"/>
 <path transform="translate(0 .00127) scale(1) translate(0 -7e-5) scale(1)" d="m4.4 1.65a4.4 4.4 0 0 0-4.4 4.4v9.898a4.4 4.4 0 0 0 4.4 4.4h13.2a4.4 4.4 0 0 0 4.4-4.4v-7.039a4.4 4.4 0 0 0-4.4-4.4h-5.119l-2.197-2a3.3 3.3 0 0 0-2.225-0.8594zm-0.00195 2.201h3.66a1.1 1.1 0 0 1 0.7402 0.2871v-0.00391l2.201 2.006a2.2 2.2 0 0 0 1.478 0.5703h5.119a2.2 2.2 0 0 1 2.199 2.199v7.039a2.2 2.2 0 0 1-2.199 2.201h-13.2a2.2 2.2 0 0 1-2.199-2.201v-9.898a2.2 2.2 0 0 1 2.199-2.197z" fill="url(#a)"/>
 <path transform="translate(0 .00127) scale(1) translate(0 -7e-5) scale(1)" d="m11 7.498c-1.344 0-2.443 1.098-2.443 2.443v0.7227c-0.71 0.2465-1.266 0.8416-1.369 1.609-0.06355 0.4721-0.1172 0.9695-0.1172 1.49 0 0.5206 0.05361 1.02 0.1172 1.492 0.1291 0.9592 0.9255 1.713 1.902 1.76 0.6098 0.02802 1.231 0.04297 1.912 0.04297s1.3-0.01494 1.91-0.04297c0.9764-0.04489 1.772-0.7993 1.902-1.76 0.06359-0.4721 0.1191-0.9708 0.1191-1.492 0-0.5218-0.05559-1.018-0.1191-1.49-0.1292-0.9592-0.9252-1.715-1.902-1.76-0.6098-0.02804-1.229-0.04297-1.91-0.04297-0.4873 0-0.9371 0.01089-1.381 0.02539v-0.5547c0-0.7689 0.6119-1.379 1.381-1.379 0.5533 0 1.052 0.4863 1.193 0.9082a0.2141 0.2141 0 0 0 0 0.00195c0.09223 0.2762 0.3956 0.4275 0.6719 0.3359a0.2141 0.2141 0 0 0 2e-3 0c0.2762-0.09223 0.4276-0.3956 0.3359-0.6719-0.2814-0.844-1.105-1.639-2.205-1.639zm0 4.039c0.6657 0 1.268 0.01373 1.861 0.04102 0.4526 0.02079 0.8324 0.3781 0.8945 0.8379 0.06108 0.4537 0.1094 0.9031 0.1094 1.348s-0.04828 0.896-0.1094 1.35c-0.06189 0.4595-0.442 0.8173-0.8945 0.8379-0.5935 0.02728-1.196 0.04102-1.861 0.04102-0.666 0-1.268-0.01374-1.861-0.04102-0.4526-0.0208-0.8324-0.3783-0.8945-0.8379-0.06108-0.4537-0.1094-0.9047-0.1094-1.35s0.04828-0.8944 0.1094-1.348c0.06189-0.4595 0.442-0.8171 0.8945-0.8379 0.5935-0.02729 1.196-0.04102 1.861-0.04102z" fill="url(#a)"/>
 <path transform="translate(0 .00127) scale(1) translate(0 -7e-5) scale(1)" d="m11 12.57a0.7123 0.7123 0 0 0-0.4785 1.248v0.6641a0.4785 0.4785 0 0 0 0.957 0v-0.6641a0.7123 0.7123 0 0 0-0.4785-1.248z" fill="url(#a)"/>
</svg>
