<svg version="1.1" viewBox="0 0 22 22" xmlns="http://www.w3.org/2000/svg" xmlns:xlink="http://www.w3.org/1999/xlink">
 <defs>
  <linearGradient id="a" x1="1" x2="0" y1="1">
   <stop stop-color="#007bf6" offset="0"/>
   <stop stop-color="#d60cff" offset=".5"/>
   <stop stop-color="#ff167a" offset="1"/>
  </linearGradient>
  <linearGradient id="b" x1="3.605" x2="-5.614" y1="3.6" y2="-5.613" gradientTransform="scale(.9996 1)" gradientUnits="userSpaceOnUse" xlink:href="#a"/>
 </defs>
 <path transform="translate(5e-6) scale(.3438) translate(-.000671 -.000265) scale(2.909) translate(4.472 4.473) scale(.7966)" d="m2.94 0-0.00586 0.001953c-0.1488-2.2e-4 -0.2936 0.00839-0.4434 0.02539-0.6026 0.06853-1.229 0.3392-1.678 0.7871-0.448 0.4486-0.7188 1.075-0.7871 1.678-0.06853 0.6026 0.0128 1.191 0.1621 1.826 0.2985 1.271 0.8944 2.767 1.668 4.744l2.564 6.555c0.7392 1.891 1.291 3.322 1.881 4.391 0.295 0.5349 0.598 0.9923 1.027 1.371 0.4293 0.3788 1.062 0.6531 1.688 0.6191 0.6297-0.03323 1.232-0.3782 1.619-0.8027 0.3861-0.4245 0.6365-0.914 0.873-1.48 0.4734-1.133 0.8724-2.622 1.41-4.596 0.3191-1.172 0.4696-1.518 0.5762-1.625a1.222 1.222 0 0 0 0-0.0039c0.1026-0.103 0.4545-0.2524 1.625-0.5723 1.972-0.5378 3.465-0.9367 4.598-1.41 0.5663-0.2367 1.05-0.4871 1.475-0.873 0.4239-0.3854 0.7726-0.9862 0.8066-1.615v-0.003913c0.03288-0.6259-0.2405-1.264-0.6191-1.691-0.3791-0.4293-0.8363-0.7287-1.371-1.023-1.07-0.5892-2.5-1.138-4.391-1.877l-6.557-2.566a1.222 1.222 0 0 0-0.00195 0 1.222 1.222 0 0 0 0-0.00195c-1.98-0.7736-3.473-1.37-4.744-1.668-0.4757-0.1117-0.9264-0.1862-1.375-0.1875zm-0.01172 2.451h0.00391c0.1915 0.00335 0.4702 0.03711 0.8281 0.1211 0.9577 0.2249 2.435 0.7894 4.412 1.562a1.222 1.222 0 0 0 0 0.00195h0.00195l6.553 2.564c1.891 0.739 3.295 1.299 4.1 1.742 0.3522 0.194 0.5307 0.3416 0.6328 0.4394-0.1134 0.08739-0.3098 0.2179-0.6856 0.375-0.8559 0.3578-2.321 0.7669-4.295 1.305-1.175 0.3212-2.004 0.4956-2.713 1.207-0.7065 0.7078-0.8857 1.534-1.205 2.707-0.5378 1.974-0.945 3.442-1.303 4.299-0.1562 0.3739-0.2874 0.5634-0.375 0.6777-0.09834-0.1028-0.2441-0.2741-0.4375-0.625-0.4438-0.8048-1.005-2.21-1.744-4.1l-2.566-6.557c-0.774-1.978-1.34-3.453-1.564-4.412-0.1125-0.4792-0.1351-0.8179-0.1152-0.9922 0.01983-0.1743 0.03472-0.1732 0.08789-0.2266 0.05324-0.05316 0.05019-0.06415 0.2246-0.08398 0.04277-0.0048 0.09779-0.00669 0.1602-0.00586z" fill="url(#a)"/>
 <path transform="translate(5e-6) scale(.3438) translate(-.000671 -.000265) scale(2.909) translate(4.472 4.473) scale(.7966)" d="m-2.803-5.615c-1.47 0-2.809 1.335-2.809 2.807 0 1.471 1.337 2.809 2.809 2.809s2.803-1.337 2.803-2.809-1.332-2.807-2.803-2.807z" fill="url(#b)"/>
</svg>
