<svg version="1.1" viewBox="0 0 22 22" xmlns="http://www.w3.org/2000/svg">
 <defs>
  <linearGradient id="a" y1="1">
   <stop stop-color="#0061ff" offset="0"/>
   <stop stop-color="#60efff" offset="1"/>
  </linearGradient>
 </defs>
 <path transform="translate(-0) scale(1) translate(-0) scale(1) translate(-0) scale(1) translate(-0) scale(1) translate(-3.9e-5) scale(1.375)" d="M16 0c-1.462.8-4.472 1.1-7.319 1.067-2.235.013-6.598-.185-7.347 2 .283-.39 5.479-2.161 4.956.039-.615 1.792-1.714 3.285-2.656 4.907-.915.068-2.182.108-2.968.654.205-.126 1.947-.473 2.646-.092-1.069 1.768-2.172 3.2-2.956 5.123-.216.662-.702 1.725.045 2.204.633.295.19-.13.446-.543 1.075-2.31 2.555-4.257 3.906-6.402.789.328 1.554.936 2.414 1.031 1.172.139 3.19-1.516 3.5-2.654-1.334 1.001-3.635.69-5.155.657l3.283-5.06c.323.1.894.126 1.837.136C12.832 3.13 15.642 2.32 16 0z" fill="url(#a)"/>
</svg>
