<svg version="1.1" viewBox="0 0 22 22" xmlns="http://www.w3.org/2000/svg">
 <defs>
  <linearGradient id="a" x1="11.62" x2="11.62" y1="11.63" y2="52.37" gradientTransform="matrix(.7847 0 0 .7845 8.588 9.942)" gradientUnits="userSpaceOnUse">
   <stop stop-color="#0cf" offset="0"/>
   <stop stop-color="#006cff" stop-opacity=".984" offset="1"/>
  </linearGradient>
 </defs>
 <path transform="translate(-0) scale(.3438) translate(-0) scale(1) translate(-0) scale(1) translate(-.003542 -.002813) scale(.9999) translate(-.00102 .000687) scale(1) translate(-35.46 -38.16) scale(2.002)" d="M49.68 19.07c-2.921 1.597-8.936 2.199-14.62 2.132-4.465.027-13.18-.368-14.68 3.997.566-.78 10.94-4.317 9.901.078-1.229 3.58-3.423 6.562-5.305 9.8-1.828.136-4.36.217-5.931 1.308.409-.253 3.89-.944 5.286-.184-2.136 3.532-4.339 6.391-5.905 10.23-.431 1.323-1.404 3.447.089 4.404 1.266.59.38-.26.892-1.085 2.148-4.617 5.105-8.505 7.804-12.79 1.576.656 3.104 1.87 4.822 2.06 2.341.277 6.373-3.029 6.992-5.303-2.665 2-7.262 1.377-10.3 1.312l6.56-10.11c.646.197 1.785.252 3.67.271 4.394.126 10.01-1.494 10.73-6.127z" fill="url(#a)"/>
 <path transform="translate(-0) scale(.3438)" d="m52.98 36.18a2.166 2.166 0 0 0-1.577 0.6308l-0.9963 0.9847 0.01923 0.01923-8.947 8.813a1.587 1.587 0 0 0 0 2.265l4.766 4.697a1.648 1.648 0 0 0 2.304 0l8.978-8.834v0.0038l5.908-5.654c1.04-0.9925 0.3415-2.729-1.104-2.753zm-21.43 9.947-0.0038 0.0038-9.35 0.1615c-1.447 0.02573-2.141 1.752-1.1 2.745l5.908 5.658 8.974 8.834a1.648 1.648 0 0 0 2.304 0l4.766-4.701a1.581 1.581 0 0 0 0-2.265l-8.943-8.809 0.01923-0.01923-0.9963-0.9847a2.166 2.166 0 0 0-1.577-0.627z" fill="#0f0" stroke-width="1.969"/>
</svg>
