<svg version="1.1" viewBox="0 0 22 22" xmlns="http://www.w3.org/2000/svg">
 <defs>
  <linearGradient id="a" y1="1">
   <stop stop-color="#007bf6" offset="0"/>
   <stop stop-color="#d60cff" offset=".5"/>
   <stop stop-color="#ff167a" offset="1"/>
  </linearGradient>
 </defs>
 <path transform="translate(5.4e-5 -.003882) scale(1.001) matrix(1.571 0 0 1.571 .000153 -1.6e-5)" d="m1.358 1.765c-0.5957 0-1.03 0.3724-1.197 0.7062-0.1669 0.3338-0.1604 0.6515-0.1604 0.6515v7.754c0 0.5957 0.3711 1.03 0.7049 1.197 0.3338 0.1669 0.6527 0.1604 0.6527 0.1604h11.28c0.5957 0 1.03-0.3711 1.197-0.7049 0.1669-0.3338 0.1604-0.6527 0.1604-0.6527v-7.754c0-0.5957-0.3724-1.03-0.7062-1.197-0.3338-0.1669-0.6515-0.1604-0.6515-0.1604zm0 1.001h11.28s0.1098 0.00708 0.2051 0.0547c0.09524 0.04762 0.1517 0.03981 0.1517 0.3021v7.754s-0.0071 0.1098-0.0547 0.2051c-0.04762 0.09524-0.03981 0.1529-0.3021 0.1529h-11.28s-0.1098-0.0071-0.2051-0.0547c-0.09524-0.04762-0.1529-0.04105-0.1529-0.3034v-7.754s0.007082-0.1098 0.0547-0.2051c0.04762-0.09524 0.04105-0.1517 0.3033-0.1517z" fill="url(#a)"/>
 <path transform="translate(5.4e-5 -.003882) scale(1.001)" d="m6.608 6.387c-1.847 1e-7 -3.363 1.516-3.363 3.365 0 0.939 0.39 1.792 1.018 2.404-0.1122 0.06158-0.2218 0.1268-0.3301 0.1973-0.8073 0.5255-1.47 1.274-1.938 2.164a0.7855 0.7855 0 0 0 0.3301 1.061 0.7855 0.7855 0 0 0 1.059-0.3301c0.3514-0.6685 0.8408-1.206 1.406-1.574 0.5656-0.3681 1.187-0.5566 1.818-0.5566 0.6312 0 1.253 0.1886 1.818 0.5566 0.5656 0.3681 1.055 0.9056 1.406 1.574a0.7855 0.7855 0 0 0 1.063 0.3301 0.7855 0.7855 0 0 0 0.3281-1.061c-0.4677-0.8897-1.133-1.638-1.939-2.164-0.1072-0.06977-0.217-0.1342-0.3281-0.1953 0.6264-0.6125 1.016-1.467 1.016-2.406 0-1.847-1.515-3.363-3.363-3.363zm0 1.572c0.9992 0 1.793 0.7932 1.793 1.793 0 0.7465-0.452 1.377-1.09 1.65-0.2157 0.09238-0.4505 0.1406-0.7031 0.1406-0.9992 0-1.793-0.7932-1.793-1.793 0-0.9992 0.7932-1.791 1.793-1.791z" fill="url(#a)" stroke-width="1.571"/>
 <path transform="translate(5.4e-5 -.003882) scale(1.001)" d="m17.57 7.967a0.4724 0.4724 0 0 0-0.3439 0.1376l-0.2173 0.2147 0.0042 0.00418-1.951 1.922a0.3461 0.3461 0 0 0 0 0.4939l1.039 1.024a0.3594 0.3594 0 0 0 0.5024 0l1.958-1.926v8.259e-4l1.288-1.233c0.2267-0.2164 0.07447-0.5952-0.2407-0.6004zm-4.672 2.169-8.27e-4 8.27e-4 -2.039 0.03523c-0.3156 0.0056-0.4668 0.382-0.2399 0.5986l1.288 1.234 1.957 1.926a0.3594 0.3594 0 0 0 0.5025 0l1.039-1.025a0.3448 0.3448 0 0 0 0-0.4939l-1.95-1.921 0.0042-0.0042-0.2173-0.2147a0.4724 0.4724 0 0 0-0.3439-0.1367z" fill="#0f0" stroke-width=".4294"/>
 <desc>User Identifier Card Streamline Icon: https://streamlinehq.com</desc>
</svg>
