<svg version="1.1" viewBox="0 0 22 22" xmlns="http://www.w3.org/2000/svg">
 <path transform="translate(-3.3e-5 .000275) scale(.9999) translate(-2.154 -2.154) scale(.5481)" d="m9.104 4.066c-2.862 0-5.175 2.314-5.174 5.17 0 2.854 2.313 5.17 5.176 5.17 1.784 0 3.356-0.9062 4.285-2.285 2.322 0.456 4.541 1.195 6.654 2.217 1.179 0.57 2.303 1.206 3.375 1.908-0.195 0.626-0.2901 1.293-0.2891 2 9e-3 1.808 0.662 3.359 1.959 4.656v2e-3l2e-3 2e-3h2e-3c1e-3 1e-3 0.0013 0.0032 2e-3 0.0039l2e-3 2e-3c1.298 1.297 2.85 1.95 4.658 1.959 0.698 3e-3 1.361-0.09506 1.986-0.2891 0.73 1.118 1.391 2.295 1.977 3.531 0.982 2.064 1.692 4.223 2.131 6.477-1.284 0.94-2.119 2.459-2.119 4.17 0 2.863 2.316 5.174 5.17 5.174 2.857 0 5.171-2.312 5.17-5.174 0-2.213-1.394-4.101-3.352-4.836-0.53-2.869-1.419-5.604-2.67-8.203-0.729-1.515-1.55-2.954-2.467-4.314 0.523-0.943 0.7822-1.99 0.7812-3.144-3e-3 -1.816-0.6571-3.37-1.955-4.668s-2.86-1.946-4.674-1.949c-1.148-1e-3 -2.193 0.2574-3.131 0.7734-1.448-0.9721-2.982-1.84-4.604-2.598-2.587-1.209-5.295-2.067-8.127-2.574-0.779-1.867-2.622-3.18-4.77-3.18zm20.56 11.51c0.024-8.75e-4 0.04731-2e-3 0.07031 0 0.097-4e-3 0.1902 0.0028 0.2832 0.0098 0.782 0.083 1.467 0.4994 1.904 1.107 0.323 0.437 0.5099 0.9802 0.5039 1.574 3e-3 1.387-1.054 2.53-2.41 2.672-0.09 0.01-0.1825 0.01567-0.2715 0.01367-0.344-3e-3 -0.6784-0.06459-0.9824-0.1836-0.35-0.135-0.6589-0.3464-0.9199-0.6074-0.486-0.486-0.7871-1.157-0.7871-1.898-4e-3 -1.432 1.121-2.604 2.539-2.686 0.022 5e-4 0.04631-0.0011 0.07031-2e-3z" fill="#0f0"/>
</svg>
