<svg version="1.1" viewBox="0 0 22 22" xmlns="http://www.w3.org/2000/svg">
 <path transform="translate(1e-5 .000511) scale(1)" d="M1.227 21.994q-.503 0-.865-.364T0 20.76t.362-.877.865-.37h19.512q.515 0 .885.37t.37.884-.37.87-.885.357zm9.128-4.878q-.502 0-.864-.364t-.362-.87.362-.877.864-.37H20.74q.515 0 .885.37t.37.883-.37.872-.885.356zm0-4.878q-.502 0-.864-.364t-.362-.87.362-.877.864-.37H20.74q.515 0 .885.369.37.37.37.884 0 .515-.37.872-.37.356-.885.356zm0-4.878q-.502 0-.864-.364t-.362-.87.362-.877.864-.37H20.74q.515 0 .885.369.37.37.37.884 0 .515-.37.871-.37.357-.885.357zM1.227 2.482q-.503 0-.865-.364T0 1.248.362.37 1.227 0h19.512q.515 0 .885.37t.37.884-.37.871-.885.357zM1.15 14.939q-.352.323-.752.159T0 14.46V7.477q0-.457.428-.615t.751.165l3.528 3.528q.2.205.2.473t-.2.468z" fill="#ff8000"/>
</svg>
