<svg version="1.1" viewBox="0 0 22 22" xmlns="http://www.w3.org/2000/svg">
 <defs>
  <linearGradient id="b" x1="1" x2="0" y1="1">
   <stop stop-color="#46d9ff" offset="0"/>
   <stop stop-color="#ff23ff" offset=".5"/>
   <stop stop-color="#ffd93f" offset="1"/>
  </linearGradient>
  <linearGradient id="a" y1=".5" y2=".5">
   <stop stop-color="#ff0" offset="0"/>
   <stop stop-color="#ffc200" offset="1"/>
  </linearGradient>
 </defs>
 <path transform="translate(-.000236 -.09645) scale(.9999) matrix(.8946 0 0 .8946 1.199 1.253)" d="m4.338 8.106v0.00195c-0.7004 0-1.489 0.1375-2.281 0.5215-0.6382 0.3095-1.262 0.7724-1.807 1.414-0.9045 1.066-1.59 2.642-1.59 4.596 0 1.783 0.5702 3.442 1.664 4.676 0.5065 0.5713 1.12 1.041 1.814 1.367 0.6725 0.3155 1.418 0.4922 2.199 0.4922 0.8204-9e-4 1.637-0.1699 2.398-0.5059 0.247-0.1089 0.487-0.2343 0.7188-0.377 0.08756 0.1668 0.2018 0.3083 0.334 0.4258 0.1581 0.1405 0.3368 0.2404 0.5176 0.3047 0.1829 0.06502 0.3718 0.0957 0.5566 0.0957 0.1878 0 0.3784-0.03165 0.5586-0.0957 0.1838-0.06536 0.3598-0.1662 0.5156-0.3047 0.1601-0.1423 0.2926-0.3193 0.3828-0.5254 0.09211-0.2106 0.1348-0.4351 0.1348-0.6641v-9.725c0-0.2309-0.04335-0.4571-0.1348-0.666-0.09081-0.2076-0.2239-0.3841-0.3828-0.5254-0.1568-0.1394-0.3331-0.2398-0.5156-0.3047-0.1812-0.06444-0.372-0.0957-0.5586-0.0957-0.186 2e-7 -0.3748 0.03105-0.5566 0.0957-0.1818 0.06466-0.3603 0.1649-0.5176 0.3047-0.1256 0.1116-0.2332 0.2458-0.3184 0.4004-0.2198-0.1388-0.4469-0.2619-0.6797-0.3691-0.7898-0.364-1.627-0.5371-2.453-0.5371zm12.8 0v0.00195c-0.7004 0-1.487 0.1375-2.279 0.5215-0.6382 0.3095-1.264 0.7724-1.809 1.414-0.9045 1.066-1.588 2.642-1.588 4.596 0 1.783 0.5682 3.442 1.662 4.676 0.5065 0.5713 1.12 1.041 1.814 1.367 0.6725 0.3155 1.418 0.4922 2.199 0.4922 0.8204-9e-4 1.637-0.1699 2.398-0.5059 0.247-0.1089 0.489-0.2343 0.7207-0.377 0.08756 0.1668 0.2018 0.3083 0.334 0.4258 0.1581 0.1405 0.3349 0.2404 0.5156 0.3047 0.1829 0.06502 0.3738 0.0957 0.5586 0.0957 0.1878 0 0.3765-0.03165 0.5566-0.0957 0.1838-0.06536 0.3618-0.1662 0.5176-0.3047 0.1601-0.1423 0.2907-0.3193 0.3809-0.5254 0.09211-0.2106 0.1348-0.4351 0.1348-0.6641v-9.725a0.8369 0.8372 43.28 0 0-0.0039-0.05078c-0.01315-0.2212-0.06393-0.4332-0.1602-0.6289-0.0955-0.1942-0.2274-0.3604-0.3828-0.4922-0.1535-0.1302-0.3248-0.2238-0.502-0.2852-0.176-0.06092-0.3598-0.08984-0.541-0.08984-0.1806 1e-7 -0.3645 0.02872-0.541 0.08984-0.1765 0.06111-0.3499 0.1545-0.5039 0.2852-0.128 0.1086-0.2389 0.2402-0.3281 0.3926-0.2395-0.1527-0.4882-0.2846-0.7402-0.3984-0.7912-0.3573-1.617-0.52-2.414-0.5195zm-12.56 3.098a0.837 0.837 0 0 0 0.07617 0.0039c0.5218 0 1.076 0.1544 1.586 0.4668 0.42 0.2572 0.7833 0.6055 1.039 1.008v3.715c-0.2714 0.4339-0.6483 0.8316-1.062 1.125-0.2376 0.1683-0.4956 0.3091-0.7676 0.4062-0.2578 0.0921-0.5244 0.1445-0.7949 0.1445-0.3141 0-0.6295-0.07207-0.9297-0.2188-0.2939-0.1436-0.5766-0.3607-0.8242-0.6523-0.4888-0.5757-0.8398-1.447-0.8398-2.562 0-0.5995 0.09908-1.113 0.2559-1.541 0.1597-0.4365 0.3812-0.7894 0.6309-1.066 0.2578-0.2861 0.5479-0.4926 0.8359-0.627 0.2734-0.1276 0.5441-0.1907 0.7949-0.2012zm12.88 2e-3 -0.0039 2e-3c0.385 0 0.9785 0.09393 1.586 0.4668 0.3908 0.2399 0.7671 0.5834 1.039 1.012v3.715c-0.2639 0.4217-0.6358 0.8229-1.062 1.125-0.251 0.1777-0.5093 0.3139-0.7676 0.4062-0.2726 0.09745-0.5399 0.1426-0.7949 0.1426-0.3078 0-0.6217-0.06899-0.9277-0.2188-0.2895-0.1417-0.5714-0.3564-0.8223-0.6523-0.4781-0.5639-0.8398-1.428-0.8398-2.564 0-0.5958 0.09608-1.108 0.2539-1.539 0.1588-0.4339 0.3801-0.7884 0.6309-1.066 0.2567-0.2846 0.5445-0.4901 0.834-0.625 0.3013-0.1404 0.6019-0.2028 0.875-0.2031z" fill="url(#b)"/>
 <path transform="translate(-.000236 -.09645) scale(.9999)" d="m20.11 1.999a1.33 1.33 0 0 0-0.9957 0.4264l-2.169 2.163-2.165-2.163a1.33 1.33 0 0 0-2.226 1.047 1.33 1.33 0 0 0 0.3442 0.837l3.109 3.103a1.33 1.33 0 0 0 0.9384 0.3897v-0.00174a1.33 1.33 0 0 0 0.9402-0.3879l3.105-3.105a1.33 1.33 0 0 0 0.4281-0.9975v-0.00174a1.33 1.33 0 0 0-1.309-1.309z" fill="url(#a)" stroke-width=".8946"/>
</svg>
