<svg version="1.1" viewBox="0 0 22 22" xmlns="http://www.w3.org/2000/svg">
 <path transform="translate(-.000832 -.006406) scale(1) translate(-.6858 22.69) scale(.02434)" d="m384.3-614c-36.71 0.09-68.19 13.26-94.45 39.53-14.47 14.46-24.93 30.57-31.41 48.24h-29.02c-8.424-17.3-20.79-31.35-37.15-41.95-4.659-3.02-9.492-5.613-14.49-7.773-13.53-6.32-28.36-9.375-44.41-9.375-29.37-0.01-54.23 10.29-74.61 30.74-20.37 20.24-30.54 45.18-30.55 74.73 3e-3 29.34 10.22 54.24 30.59 74.49 20.38 20.23 45.21 30.31 74.57 30.31 17.12 0 32.82-3.612 47.07-10.74 4.054-1.92 8.01-4.112 11.84-6.602 16.29-10.55 28.64-24.34 37.07-41.52h28.87c6.459 17.78 16.98 33.93 31.48 48.44l0.2734 0.3125c8.012 8.01 16.94 15.07 26.06 20.55 20.26 12.37 42.85 18.41 68.05 18.4 36.53-0.2 67.98-13.37 94.22-39.61l0.0391-0.0391h0.0391v-0.0391c0.03-0.03 0.0892-0.0481 0.1172-0.0781 14.41-14.41 24.87-30.39 31.41-47.93h216.9c8.426 17.18 20.79 30.96 37.07 41.52 12.04 7.8 25.23 12.83 39.53 14.96 7.455 1.61 15.22 2.383 23.32 2.383 29.36 0 54.24-10.09 74.61-30.31 20.38-20.26 30.54-45.16 30.55-74.49-4e-3 -29.56-10.2-54.49-30.59-74.73-20.36-20.45-45.2-30.74-74.57-30.74-8.162 0-16.01 0.7828-23.52 2.383-14.24 2.1-27.35 6.996-39.34 14.77-16.36 10.59-28.72 24.65-37.15 41.95h-216.5c-1.573-4.29-3.352-8.507-5.391-12.62-6.194-12.69-14.83-24.6-25.7-35.47l-0.1562-0.1562c-0.142-0.15-0.1715-0.1725-0.3125-0.3125-26.17-26.17-57.68-39.28-94.38-39.22zm0.1172 79.77c28.07-0.05 51.12 21.19 54.02 48.67 0.169 1.8 0.3164 3.689 0.2344 5.469-0.082 6.92-1.241 13.81-3.672 19.96-2.765 7.05-6.986 13.31-12.27 18.59-9.826 9.82-23.38 15.94-38.48 15.86-28.97 0.07-52.6-22.63-54.26-51.33 0.027-0.89-0.063-1.872 0-2.812-0.076-1.96 0.0814-3.793 0.2344-5.703 1.571-15.88 9.978-29.74 22.27-38.59 8.829-6.54 19.82-10.34 31.91-10.12z" fill="#f0f"/>
</svg>
