<svg version="1.1" viewBox="0 0 22 22" xmlns="http://www.w3.org/2000/svg">
 <path transform="translate(.4784 .4783) scale(.9567)" d="m10.99-0.5c-0.4965 0-0.9722 0.199-1.316 0.5547-0.3409 0.3523-0.5312 0.8237-0.5312 1.314v9.936l-1.141-1.158a0.5 0.5 0 0 0-0.001953-0.001953c-0.3486-0.3486-0.82-0.5469-1.311-0.5469-0.4906 0-0.9606 0.198-1.309 0.5469-0.3456 0.3465-0.5474 0.81-0.5605 1.297-0.01332 0.4937 0.1805 0.9715 0.5312 1.322l4.309 4.309a0.5 0.5 0 0 0 0.001953 0.001953c0.1748 0.1739 0.3789 0.3132 0.6035 0.4141a0.5 0.5 0 0 0 0.001953 0.001953c0.2269 0.1007 0.4691 0.1562 0.7129 0.1562 0.2441 0 0.4867-0.05621 0.7148-0.1562 0.2286-0.1002 0.4369-0.2416 0.6133-0.418l4.164-4.166c0.3489-0.348 0.5469-0.818 0.5469-1.309 0-0.4903-0.1971-0.9599-0.5449-1.309a0.5 0.5 0 0 0 0-0.001953c-0.3445-0.3436-0.8008-0.5453-1.281-0.5586-0.4876-0.01349-0.9604 0.1822-1.309 0.5313l-1.059 1.059v-9.949a0.5 0.5 0 0 0 0-0.001953c-0.002601-0.4881-0.1885-0.9561-0.5234-1.309-0.3402-0.358-0.816-0.5586-1.312-0.5586zm0.6113 16.87c-0.04516 0.04516-0.09196 0.08465-0.1426 0.1191 0.05062-0.03449 0.09742-0.07398 0.1426-0.1191zm-9.121 2.449c-0.4877 0.0017-0.9557 0.1895-1.301 0.5293-0.3475 0.3422-0.5391 0.8145-0.5391 1.307 0 0.4919 0.1904 0.9649 0.5352 1.311 0.3445 0.3454 0.8159 0.5352 1.307 0.5352h17a0.5 0.5 0 0 0 0.001953 0c0.4891-0.0017 0.9579-0.1874 1.311-0.5234 0.3575-0.3406 0.5566-0.8165 0.5566-1.312 0-0.496-0.1992-0.9704-0.5547-1.314-0.3524-0.3411-0.8232-0.5312-1.314-0.5312h-17a0.5 0.5 0 0 0-0.001953 0z" fill="#ff00d2" stop-color="#000000" stroke-linecap="round" stroke-linejoin="round"/>
</svg>
