<svg version="1.1" viewBox="0 0 22 22" xmlns="http://www.w3.org/2000/svg">
 <defs>
  <linearGradient id="a" x2="0" y1="1">
   <stop stop-color="#ff00f5" offset="0"/>
   <stop stop-color="#ff81ff" offset="1"/>
  </linearGradient>
 </defs>
 <path transform="translate(0) scale(1) translate(0) scale(1) translate(.000281 -2e-4) scale(1) translate(-6.1e-5 .6875) scale(1.375)" d="m4.58 1.5a1.74 1.74 0 0 0-1.057 0.3574c-2.13 1.633-3.281 3.98-3.488 6.6-0.02333 0.1787-0.03516 0.3596-0.03516 0.543v0.3359a4.25 4.25 0 0 0 4.25 4.164h0.25a4.25 4.25 0 0 0 3.5-1.838 4.25 4.25 0 0 0 3.5 1.838h0.25a4.25 4.25 0 0 0 4.25-4.25v-0.25a4.25 4.25 0 0 0-3.039-4.074v-0.00195c0.158-0.352 0.307-0.6484 0.418-0.8594 0.598-1.139-0.2078-2.564-1.549-2.564a1.74 1.74 0 0 0-1.057 0.3574 8.76 8.76 0 0 0-3.059 4.363c-0.524-0.607-1.216-1.063-2.004-1.297 0.158-0.352 0.307-0.6484 0.418-0.8594 0.598-1.139-0.2078-2.564-1.549-2.564zm0 1.5a0.25 0.25 0 0 1 0.2207 0.3672 18 18 0 0 0-0.5293 1.098 14 14 0 0 0-0.6797 1.863 2.8 2.8 0 0 1 0.6562-0.07812h0.25a2.8 2.8 0 0 1 0.6621 0.08008h0.00195c1.199 0.296 2.09 1.38 2.09 2.67v0.25a2.75 2.75 0 0 1-2.75 2.75h-0.252a2.747 2.747 0 0 1-2.748-2.656v-0.00391h-0.001953v-0.3398a3 3 0 0 1 0.02734-0.3867c0.01933-0.2613 0.04851-0.5175 0.08984-0.7695a8 8 0 0 1 0.498-1.779 7.2 7.2 0 0 1 1.391-2.172 8 8 0 0 1 0.9297-0.8438 0.24 0.24 0 0 1 0.1445-0.04883zm7.25 0c0.186 0 0.3067 0.2022 0.2207 0.3672a19 19 0 0 0-0.2207 0.4336 18 18 0 0 0-0.4297 0.9512 14 14 0 0 0-0.5566 1.576l0.05273-0.01172a2.8 2.8 0 0 1 0.6035-0.06641h0.25c0.2287 6.667e-4 0.4482 0.02741 0.6602 0.08008a2.75 2.75 0 0 1 2.09 2.67v0.25a2.75 2.75 0 0 1-2.75 2.75h-0.25a2.747 2.747 0 0 1-2.748-2.656v-0.00391h-0.001953v-0.3398c0-0.1313 0.00934-0.2607 0.02734-0.3867 0.02-0.2613 0.04984-0.5175 0.08984-0.7695a8 8 0 0 1 0.5586-1.918 7.2 7.2 0 0 1 2.162-2.801l0.09766-0.07617a0.24 0.24 0 0 1 0.1445-0.04883z" fill="url(#a)"/>
</svg>
