<svg version="1.1" viewBox="0 0 22 22" xmlns="http://www.w3.org/2000/svg">
 <path transform="translate(-0) scale(1) translate(-0) scale(1)" d="M2.482 21.997q-.563 0-.952-.39t-.389-.956.39-.95.951-.386h17.004q.564 0 .967.39t.403.956-.403.95-.967.386zm8.498-4.85q-.253 0-.51-.114-.256-.115-.456-.314L5.706 12.41q-.4-.4-.385-.956t.414-.956.955-.4.956.4l1.997 2.026V1.369q0-.563.39-.966T10.99 0t.95.403.386.966v11.156l1.912-1.912q.399-.4.941-.385t.942.414q.399.4.399.956t-.4.955l-4.165 4.166q-.2.2-.46.314t-.514.114" fill="#ff00d2"/>
</svg>
