<svg version="1.1" viewBox="0 0 22 22" xmlns="http://www.w3.org/2000/svg">
 <defs>
  <linearGradient id="a" y1="1">
   <stop stop-color="#007bf6" offset="0"/>
   <stop stop-color="#d60cff" offset=".5"/>
   <stop stop-color="#ff167a" offset="1"/>
  </linearGradient>
 </defs>
 <path transform="translate(-3e-6) scale(1) translate(.01057 .00034) scale(1) translate(-9.146 -9.152) scale(1.832)" d="m12.2 5.641a0.846 0.846 0 0 0-0.8184 0.627l-2.416 9.023a0.846 0.846 0 0 0 0.5957 1.037 0.846 0.846 0 0 0 1.039-0.5996l2.416-9.023a0.846 0.846 0 0 0-0.5977-1.037 0.846 0.846 0 0 0-0.2188-0.02734zm2.066 1.914v0.00195a0.846 0.846 0 0 0-0.5977 0.252 0.846 0.846 0 0 0 0.0059 1.195l0.1484 0.1465c0.5748 0.5748 0.9913 1 1.221 1.301 0.2299 0.3012 0.2598 0.4141 0.2598 0.5449s-0.0298 0.2457-0.2598 0.5469c-0.2299 0.3012-0.6461 0.726-1.223 1.303l-0.1504 0.1484a0.846 0.846 0 0 0 0 1.197 0.846 0.846 0 0 0 1.197 0l0.1484-0.1504c0.5763-0.5769 1.026-1.018 1.373-1.473 0.3471-0.4546 0.6055-0.9874 0.6055-1.572s-0.2584-1.118-0.6055-1.572c-0.3471-0.4548-0.7964-0.8959-1.373-1.473a0.8461 0.8461 0 0 0-2e-3 -0.00195l-0.1503-0.1465a0.846 0.846 0 0 0-0.5977-0.248zm-6.553 0.001953a0.846 0.846 0 0 0-0.5996 0.2461l-0.1484 0.1484a0.8461 0.8461 0 0 0-0.00391 0.00195c-0.5765 0.5765-1.024 1.017-1.371 1.473-0.3469 0.4549-0.6035 0.9877-0.6035 1.572 0 0.5846 0.2568 1.118 0.6035 1.572 0.3468 0.4548 0.7938 0.8952 1.371 1.473l0.1504 0.1484a0.846 0.846 0 0 0 1.195 0 0.846 0.846 0 0 0 0-1.195l-0.1484-0.1504c-0.5769-0.5769-0.9932-1-1.223-1.301s-0.2578-0.4152-0.2578-0.5469c0-0.1312 0.02826-0.2457 0.2578-0.5469 0.2292-0.3006 0.646-0.7244 1.221-1.299l0.1484-0.1484a0.846 0.846 0 0 0 0.00391-1.195 0.846 0.846 0 0 0-0.5957-0.25z" fill="url(#a)"/>
</svg>
