<svg version="1.1" viewBox="0 0 22 22" xmlns="http://www.w3.org/2000/svg">
 <defs>
  <linearGradient id="a" x1="1" x2="0" y1="1">
   <stop stop-color="#07f" offset="0"/>
   <stop stop-color="#00f7ff" offset="1"/>
  </linearGradient>
 </defs>
 <path transform="translate(.01955) scale(1)" d="m19.92 0c2.667 0 2.667 4 0 4h-17.92c-2.667 0-2.667-4 0-4zm0.04102 6c2.667 0 2.667 4 0 4h-9.92c-2.667 0-2.667-4 0-4zm0 6c2.667 0 2.667 4 0 4h-9.92c-2.667 0-2.667-4 0-4zm-0.04102 6c2.667 0 2.667 4 0 4h-17.92c-2.667 0-2.667-4 0-4z" fill="url(#a)"/>
</svg>
