<svg version="1.1" viewBox="0 0 22 22" xmlns="http://www.w3.org/2000/svg">
 <path transform="translate(-0) scale(1) translate(-0) scale(1) translate(8e-6 8e-6) scale(1)" d="M3.142 0A3.135 3.135 0 0 0 0 3.142V18.85a3.135 3.135 0 0 0 3.142 3.142H18.85a3.135 3.135 0 0 0 3.142-3.142V3.142A3.135 3.135 0 0 0 18.85 0zm0 1.57H18.85c.87 0 1.571.701 1.571 1.572V18.85c0 .87-.7 1.571-1.57 1.571H3.14c-.87 0-1.57-.7-1.57-1.57V3.14c0-.87.7-1.57 1.57-1.57m1.522 1.572-2.26 6.007-.104.276h1.681l.295-.786h2.449l.294.786H8.7l-.103-.276L6.34 3.142zm5.546 0v12.566H8.64l2.378 3.142 2.334-3.142H11.78V3.142zm5.498 0v12.566h-1.57l2.378 3.142 2.334-3.142h-1.571V3.142zM5.504 5.379l.632 1.69H4.869zm-.792 5.617v4.712h-1.57L5.52 18.85l2.334-3.142h-1.57v-4.712z" fill="#ffff09"/>
</svg>
