<svg version="1.1" viewBox="0 0 22 22" xmlns="http://www.w3.org/2000/svg">
 <defs>
  <style>.ColorScheme-Text { color: #fcfcfc; }</style>
  <linearGradient id="a" x1="1" x2="0" y2="1">
   <stop stop-color="#ff62c0" offset="0"/>
   <stop stop-color="#be35ff" offset=".5"/>
   <stop stop-color="#7926ff" offset="1"/>
  </linearGradient>
 </defs>
 <path transform="translate(-4e-5 -4e-5) scale(.9999) translate(1.397 1.397) scale(.8731)" d="m-1.1-1.6a0.5 0.5 0 0 0-0.5 0.5v24.2a0.5 0.5 0 0 0 0.5 0.5h24.2a0.5 0.5 0 0 0 0.5-0.5v-24.2a0.5 0.5 0 0 0-0.5-0.5zm2.012 2.512h20.18v20.18h-20.18v-17.65z" fill="url(#a)"/>
 <path transform="translate(-4e-5 -4e-5) scale(.9999) translate(1.397 1.397) scale(.8731)" d="m2.75 2.25a0.5 0.5 0 0 0-0.5 0.5v2.75a0.5 0.5 0 0 0 0.5 0.5h16.5a0.5 0.5 0 0 0 0.5-0.5v-2.75a0.5 0.5 0 0 0-0.5-0.5zm0 6.875a0.5 0.5 0 0 0-0.5 0.5v2.75a0.5 0.5 0 0 0 0.5 0.5h16.5a0.5 0.5 0 0 0 0.5-0.5v-2.75a0.5 0.5 0 0 0-0.5-0.5zm0 6.875a0.5 0.5 0 0 0-0.5 0.5v2.75a0.5 0.5 0 0 0 0.5 0.5h16.5a0.5 0.5 0 0 0 0.5-0.5v-2.75a0.5 0.5 0 0 0-0.5-0.5z" fill="url(#a)"/>
</svg>
