<svg version="1.1" viewBox="0 0 22 22" xmlns="http://www.w3.org/2000/svg">
 <defs>
  <linearGradient id="a" x2="0" y1="1">
   <stop stop-color="#ff0001" offset="0"/>
   <stop stop-color="#ec3dc4" offset="1"/>
  </linearGradient>
  <linearGradient id="c" x1="35.43" x2="35.43" y1="25.53" y2="6.613" gradientTransform="matrix(.5329 0 0 1.877 15.99 .001)" gradientUnits="userSpaceOnUse">
   <stop stop-color="#ff4000" offset="0"/>
   <stop stop-color="#ffa200" offset=".905"/>
  </linearGradient>
  <linearGradient id="b" x1="56.24" x2="56.24" y1="13.27" y2="29.66" gradientTransform="matrix(.6193 0 0 1.615 -16 .001)" gradientUnits="userSpaceOnUse">
   <stop stop-color="#01ff01" offset="0"/>
   <stop stop-color="#1b8b00" offset="1"/>
  </linearGradient>
 </defs>
 <path transform="translate(.001123 .000472) scale(1) translate(-8.72 -1.673) scale(.4941)" d="M55.91 3.385q-2.114 0-3.594 1.49-1.48 1.493-1.48 3.623v34.37q.001 2.1 1.465 3.568 1.464 1.47 3.566 1.471 2.134 0 3.627-1.471 1.494-1.47 1.494-3.568V8.498q0-2.13-1.482-3.623-1.481-1.49-3.596-1.49" fill="url(#a)"/>
 <path transform="translate(.001123 .000472) scale(1) translate(-8.72 -1.673) scale(.4941)" d="m23.9 21.43q-2.113 0-3.594 1.49-1.48 1.493-1.48 3.623v16.32q0 2.1 1.463 3.568 1.464 1.47 3.566 1.471 2.135 0 3.629-1.471 1.494-1.47 1.494-3.568v-16.32q0-2.13-1.482-3.623-1.482-1.49-3.596-1.49" fill="url(#b)"/>
 <path transform="translate(.001123 .000472) scale(1) translate(-8.72 -1.673) scale(.4941)" d="M39.92 12.41q-2.104 0-3.576 1.492-1.473 1.492-1.473 3.621v25.34q.001 2.1 1.465 3.568 1.463 1.47 3.564 1.471 2.104 0 3.576-1.471 1.473-1.47 1.473-3.568v-25.34q0-2.13-1.463-3.621T39.92 12.41" fill="url(#c)"/>
</svg>
