<svg version="1.1" viewBox="0 0 22 22" xmlns="http://www.w3.org/2000/svg">
 <defs>
  <linearGradient id="a" x2="0" y2="1">
   <stop stop-color="#00c6ff" offset="0"/>
   <stop stop-color="#0072ff" offset="1"/>
  </linearGradient>
  <linearGradient id="b" y1="1">
   <stop stop-color="#ffc025" offset="0"/>
   <stop stop-color="#ffff7f" offset="1"/>
  </linearGradient>
 </defs>
 <path transform="translate(-0) scale(1) translate(5e-4 8e-6) scale(1) translate(0 .005) scale(.9996)" d="M10.88-.002 5.984 0A4.25 4.25 0 0 0 1.74 4.244v10.04a4.245 4.245 0 0 0 3.133 4.094 4 4 0 0 1-.045-.621v-1.93a1.93 1.93 0 0 1-.773-1.545V4.242a1.93 1.93 0 0 1 1.931-1.93h4.244v1.159h3.738a4.2 4.2 0 0 1 2.842 1.092 4.2 4.2 0 0 0-.875-1.272L13.882 1.24A4.22 4.22 0 0 0 10.88-.005z" fill="url(#a)"/>
 <path transform="translate(-0) scale(1) translate(5e-4 8e-6) scale(1) translate(0 .005) scale(.9996)" d="M9.074 3.471a4.25 4.25 0 0 0-3 1.246 4.25 4.25 0 0 0-1.246 3v10.04a4.25 4.25 0 0 0 1.246 3 4.25 4.25 0 0 0 3 1.246h6.947a4.25 4.25 0 0 0 4.244-4.246V9.773h.002a4.22 4.22 0 0 0-1.244-3.002l-2.051-2.053a4.22 4.22 0 0 0-3.002-1.244zm-.002 2.318h4.246v3.088a1.546 1.546 0 0 0 1.545 1.545h3.088v7.332l-.002.004a1.927 1.927 0 0 1-1.93 1.93H9.074a1.93 1.93 0 0 1-1.928-1.93V7.718a1.93 1.93 0 0 1 1.928-1.93z" fill="url(#a)"/>
 <path transform="translate(-0) scale(1) translate(5e-4 8e-6) scale(1) translate(0 .005) scale(.9996)" d="M12.55 11.01a.49.49 0 0 0-.348.84.5.5 0 0 0 .348.143 2.951 2.951 0 1 1-2.95 2.95.492.492 0 0 0-.985 0 3.937 3.937 0 0 0 6.718 2.783 3.935 3.935 0 0 0-2.783-6.716m-1.756.621a.493.493 0 1 0 .064.983.493.493 0 0 0-.064-.983M9.54 12.895a.494.494 0 0 0-.318.84.492.492 0 1 0 .318-.838zm3.193.022a.59.59 0 0 0-.592.591v1.268l-.926.618a.593.593 0 1 0 .656.988l1.19-.795a.6.6 0 0 0 .266-.492v-1.586a.593.593 0 0 0-.594-.592" fill="url(#b)"/>
</svg>
