<svg version="1.1" viewBox="0 0 22 22" xmlns="http://www.w3.org/2000/svg">
 <path transform="translate(-0) scale(1)" d="m9.862 17.692-.885.884q-.324.335-.771.335t-.807-.383q-.334-.334-.334-.818t.334-.807l2.774-2.774q.167-.167.385-.263.219-.095.43-.095.213 0 .428.095.215.096.382.263l2.774 2.774q.334.324.334.82t-.382.853q-.335.335-.77.335t-.76-.335l-.885-.884v3.18q0 .472-.327.797t-.8.326q-.475 0-.797-.326-.323-.325-.323-.798zm-6-5.57q-.473 0-.799-.328-.326-.327-.326-.8 0-.475.326-.797t.798-.323H18.11q.472 0 .81.327t.338.8q0 .475-.338.797t-.81.323zm6-7.843V1.124q0-.473.327-.798t.8-.326q.475 0 .797.326.323.325.323.798v3.155l.885-.884q.324-.31.771-.31t.807.382q.334.334.334.818t-.334.807l-2.774 2.774q-.167.167-.385.263-.219.095-.43.095-.213 0-.428-.095-.215-.096-.382-.263L7.399 5.092q-.334-.324-.334-.82t.382-.877q.335-.31.77-.31t.76.31z" fill="#0f0"/>
</svg>
