<svg version="1.1" viewBox="0 0 22 22" xmlns="http://www.w3.org/2000/svg">
 <defs>
  <style>.ColorScheme-Text {color:#fcfcfc;}</style>
  <linearGradient id="a" x1="1" x2="0" y2="1">
   <stop stop-color="#0072ff" offset="0"/>
   <stop stop-color="#43e97b" offset="1"/>
  </linearGradient>
 </defs>
 <path transform="translate(-.000297 .0014) scale(.9998) translate(-3.303 -9.624) scale(1.3)" d="m3.545 9.73a1.004 1.004 0 0 0-1.004 1.004v10.26a1.004 1.004 0 0 0 1.004 1.006h4.129a1.004 1.004 0 0 0 1.004-1.006v-10.26a1.004 1.004 0 0 0-1.004-1.004zm8.188 1.488c-0.8568-3.71e-4 -1.564 0.7062-1.562 1.562v0.03516c-3.73e-4 0.8568 0.7062 1.564 1.562 1.562h6.172c0.8568 3.72e-4 1.564-0.7062 1.562-1.562v-0.03516c3.72e-4 -0.8568-0.7062-1.564-1.562-1.562zm0 6.137c-0.8568-3.71e-4 -1.564 0.7062-1.562 1.562v0.03711c-3.73e-4 0.8568 0.7062 1.564 1.562 1.562h6.172c0.8568 3.72e-4 1.564-0.7062 1.562-1.562v-0.03711c3.73e-4 -0.8568-0.7062-1.564-1.562-1.562z" fill="url(#a)"/>
</svg>
