<svg version="1.1" viewBox="0 0 22 22" xmlns="http://www.w3.org/2000/svg">
 <path transform="translate(0) scale(1) translate(-.004009) scale(1) matrix(1.071 0 0 1.071 -.3997 0)" d="m16 0c-1.925 0-3.5 1.583-3.5 3.506v4.299c0 1.1 0.4434 2.028 1.115 2.625 0.6719 0.5971 1.533 0.8789 2.387 0.8789 0.853 0 1.717-0.2818 2.389-0.8789 0.6719-0.5971 1.115-1.526 1.115-2.625v-4.299c0-1.925-1.58-3.506-3.506-3.506zm0 1.623c1.046 2.167e-4 1.883 0.8381 1.883 1.885v4.299c0 0.6938-0.2313 1.11-0.5684 1.41-0.3371 0.2997-0.8203 0.4668-1.312 0.4668s-0.9696-0.1671-1.307-0.4668-0.5703-0.7163-0.5703-1.41v-4.299c0-1.049 0.8287-1.884 1.875-1.885z" fill="#0f0"/>
 <path transform="translate(0) scale(1) translate(-.004009) scale(1) matrix(1.071 0 0 1.071 -.3997 0)" d="m7.398 0c-1.922 0-3.5 1.581-3.5 3.506v4.299c0 1.925 1.58 3.504 3.5 3.504 1.925 0 3.506-1.577 3.506-3.504v-4.299c0-1.925-1.58-3.506-3.506-3.506zm0 1.623c1.046 0 1.881 0.838 1.881 1.885v4.299c0 1.046-0.8344 1.881-1.881 1.881-1.038 0-1.875-0.8344-1.875-1.881v-4.299c0-1.047 0.837-1.885 1.875-1.885z" fill="#0ff"/>
 <path transform="translate(0) scale(1) translate(-.004009) scale(1) translate(-.3997) scale(1.071)" d="m1.705 9.418c-0.4195 0-0.7598 0.3647-0.7598 0.8086 0 0.4455 0.3403 0.8066 0.7598 0.8066h0.0918a0.7837 0.7837 0 0 0 0.7617-0.8066c0-0.4439-0.3357-0.8086-0.7617-0.8086z" fill="#0ff"/>
 <path transform="translate(0) scale(1) translate(-.004009) scale(1) matrix(1.071 0 0 1.071 -.3997 0)" d="m16.09 11.98a0.8081 0.8081 0 0 0-0.8047 0.8086v2.691h-2.686a0.8081 0.8081 0 0 0 0 1.613h2.686v2.69a0.8081 0.8081 0 0 0 1.613 0v-2.69h2.693a0.8081 0.8081 0 0 0 0-1.613h-2.693v-2.691a0.8032 0.8032 0 0 0-0.8086-0.8066z" fill="#0f0"/>
</svg>
