<svg version="1.1" viewBox="0 0 22 22" xmlns="http://www.w3.org/2000/svg">
 <path transform="translate(.00125 .00125) scale(1) matrix(1.333 0 0 1.333 -3.667 -3.667)" d="m5.5 2.75c-1.523 0-2.75 1.227-2.75 2.75h1.375c0-0.7617 0.6133-1.375 1.375-1.375zm11 0v1.375c0.7617 0 1.375 0.6133 1.375 1.375h1.375c0-1.523-1.227-2.75-2.75-2.75zm-6.188 2.75v4.812h-4.812v1.375h4.812v4.812h1.375v-4.812h4.812v-1.375h-4.812v-4.812zm-7.562 11c0 1.523 1.227 2.75 2.75 2.75v-1.375c-0.7617 0-1.375-0.6133-1.375-1.375zm15.12 0c0 0.7617-0.6133 1.375-1.375 1.375v1.375c1.523 0 2.75-1.227 2.75-2.75z" fill="#9f00c5"/>
 <path transform="translate(.00125 .00125) scale(1) matrix(1.333 0 0 1.333 -3.667 -3.667)" d="m5.5 2.75v2.75h11v-2.75zm11 2.75v11h2.75v-11zm0 11h-11v2.75h11zm-11 0v-11h-2.75v11z" fill="#0ff"/>
</svg>
