<svg version="1.1" viewBox="0 0 22 22" xmlns="http://www.w3.org/2000/svg">
 <path transform="translate(-.001901) scale(1) matrix(.9999 0 0 .9999 .0049 .001953)" d="m3.664-0.001953c-2.03 0-3.666 1.636-3.666 3.666v14.66c0 2.03 1.636 3.666 3.666 3.666v-1.834c-1.015 0-1.832-0.8167-1.832-1.832v-6.414h8.248v4.582h1.834v-4.582h8.248v6.414c0 1.015-0.8186 1.832-1.834 1.832v1.834c2.03 0 3.666-1.636 3.666-3.666v-14.66c0-2.03-1.636-3.666-3.666-3.666v1.834c1.015 0 1.834 0.8167 1.834 1.832v6.414h-8.248v-8.248h-1.834v8.248h-8.248v-6.414c0-1.015 0.8167-1.832 1.832-1.832zm6.414 18.33v1.832h1.834v-1.832z" fill="#9f00c5"/>
 <path transform="translate(-.001901) scale(1) translate(.0049 .001953) scale(.9999)" d="m3.664-0.001953v1.834h14.66v-1.834zm0 16.5v1.832h14.66v-1.832zm0 3.666v1.832h14.66v-1.832z" fill="#0ff"/>
</svg>
