<svg version="1.1" viewBox="0 0 22 22" xmlns="http://www.w3.org/2000/svg">
 <defs>
  <linearGradient id="b" x1="1" x2="0" y2="1">
   <stop stop-color="#ff62c0" offset="0"/>
   <stop stop-color="#be35ff" offset=".5"/>
   <stop stop-color="#7926ff" offset="1"/>
  </linearGradient>
  <linearGradient id="a" y1=".5" y2=".5">
   <stop stop-color="#07f" offset="0"/>
   <stop stop-color="#00f7ff" offset="1"/>
  </linearGradient>
 </defs>
 <path transform="translate(-.000295 -.001271) scale(1) translate(-.2193 .06942) scale(.9938)" d="m18.2 0c-0.3228 0-0.6334 0.1285-0.8613 0.3574l-2.94 2.938a1.226 1.226 0 0 0 0.0039 1.721 1.226 1.226 0 0 0 1.725-0.00195l0.8574-0.8555v3.166a1.226 1.226 0 0 0 1.217 1.221h2e-3c0.6676 0 1.216-0.5538 1.215-1.221v-3.168l0.8594 0.8574a1.226 1.226 0 0 0 1.723 0.00195 1.223 1.223 0 0 0 0-1.721l-2.934-2.938a1.216 1.216 0 0 0-0.8613-0.3574z" fill="url(#a)"/>
 <path transform="translate(-.000295 -.001271) scale(1) matrix(.9938 0 0 .9938 -.2193 .06942)" d="m1.709 1.93c-0.4329 0-0.8531 0.1932-1.113 0.4863a1.504 1.504 0 0 0-0.375 1.004c0 0.3506 0.1145 0.7127 0.375 1.006 0.2605 0.2931 0.6807 0.4844 1.113 0.4844h9.789a1.504 1.504 0 0 0 1.488-1.492c0-0.8122-0.6754-1.486-1.488-1.486zm-0.02344 7.584a1.513 1.513 0 0 0-1.078 0.4961 1.504 1.504 0 0 0-0.3633 0.9922c0 0.3448 0.1123 0.698 0.3633 0.9863s0.6549 0.4846 1.078 0.498h9.809a1.504 1.504 0 0 0 1.486-1.488c0-0.8122-0.6744-1.482-1.486-1.482h-9.799zm0.02148 7.098a1.501 1.501 0 0 0-1.482 1.49c0 0.8122 0.6716 1.484 1.484 1.484h9.789c0.8122 0 1.487-0.6764 1.488-1.484a1.5 1.5 0 0 0-1.488-1.49h-9.789z" fill="url(#b)"/>
 <path transform="translate(-.000295 -.001271) scale(1) translate(-.2193 .06942) scale(.9938)" d="m18.2 13.46c-0.6658 9.66e-4 -1.216 0.5524-1.217 1.219v3.168l-0.8555-0.8574a1.226 1.226 0 0 0-1.728 0 1.226 1.226 0 0 0 0.0039 1.725l2.938 2.93a1.226 1.226 0 0 0 1.721 0l2.936-2.934a1.223 1.223 0 0 0 0-1.721 1.223 1.223 0 0 0-1.723 0l-0.8574 0.8594v-3.17a1.226 1.226 0 0 0-1.215-1.219z" fill="url(#a)"/>
</svg>
