<svg version="1.1" viewBox="0 0 22 22" xmlns="http://www.w3.org/2000/svg">
 <defs>
  <linearGradient id="a" y2="1">
   <stop stop-color="#ff00c7" offset="0"/>
   <stop stop-color="#ebff00" offset="1"/>
  </linearGradient>
 </defs>
 <path transform="translate(.000153 -5e-4) scale(1) translate(-1.082 -2.02) scale(1.184)" d="M7.552 4.5H19a.5.5 0 0 1 .5.5v2a.5.5 0 0 1-.5.5h-.986c-3.252.188-6.071 1.529-8.173 3.621C7.74 13.211 6.477 15.919 6.5 19a.5.5 0 0 1-.5.5H4a.5.5 0 0 1-.5-.5c.04-5.222 2.414-8.836 6.039-11.5H7.551c-.261.521-.557.941-1.105 1.339a3.58 3.58 0 0 1-2.032.661c-.931 0-1.869-.419-2.475-1.025S.914 6.931.914 6s.419-1.869 1.025-2.475S3.483 2.5 4.414 2.5c.733 0 1.486.264 2.032.661.548.398.846.816 1.106 1.339M3.414 6a1 1 0 1 0 2 0 1 1 0 0 0-2 0M19.5 9.65V19a.5.5 0 0 1-.5.5H8.895a.5.5 0 0 1-.5-.481c-.002-.102-.024-.242-.024-.409a9.53 9.53 0 0 1 2.645-6.553c1.612-1.67 3.938-2.76 6.423-2.882.036-.001.134-.012.392-.025H19a.5.5 0 0 1 .5.5" fill="url(#a)"/>
</svg>
