<svg version="1.1" viewBox="0 0 22 22" xmlns="http://www.w3.org/2000/svg">
 <defs>
  <linearGradient id="a" x1="1" x2="0" y2="1">
   <stop stop-color="#fea201" offset="0"/>
   <stop stop-color="#f2203e" offset=".33"/>
   <stop stop-color="#b729a8" offset=".67"/>
   <stop stop-color="#5342d6" offset="1"/>
  </linearGradient>
 </defs>
 <path transform="translate(1e-4) scale(.9999) translate(1.7e-5) scale(.3438)" d="m30.23 0-0.0059 0.001953-19.93 0.005859c-3.995 0-7.238 3.243-7.238 7.238v49.22c0 3.995 3.243 7.533 7.238 7.533h21.72c1.598 0 2.893-1.298 2.893-2.894 0-1.598-1.294-2.894-2.893-2.894h-18.82c-2.397 0-4.344-2.242-4.344-4.639v-43.43c0-2.397 1.947-4.344 4.344-4.344h17.7c0.799 0 1.89 0.4744 2.438 1.057 0.1041 0.1108 0.2084 0.2232 0.3125 0.334 0.4722 0.5025 0.9748 0.9464 1.416 1.508l19.44 24.7c0.9639 1.034 2.986 0.712 3.863-0.1055 0.8764-0.8174 1.334-2.815 0.3711-3.848l-1.074-1.195-19.6-24.57-0.4961-0.5234c-0.2144-0.2258-0.4587-0.4459-0.7227-0.6582-1.768-1.422-4.521-2.494-6.607-2.494zm14.79 0.007812c-1.598 0-2.893 1.301-2.893 2.898 0 1.598 1.295 2.893 2.893 2.893h5.791c2.397 0 4.342 1.947 4.342 4.344v5.789c0 1.598 1.298 2.894 2.894 2.894 1.598 0 2.893-1.298 2.893-2.894v-8.684c0-3.995-3.241-7.238-7.236-7.238h-8.684zm13.03 45.16v2e-3l-0.0059 0.0039c-1.598 0-2.893 1.3-2.893 2.896v5.791c0 2.397-1.945 4.34-4.342 4.34h-5.789c-1.598 0-2.894 1.298-2.894 2.894 0 1.598 1.298 2.893 2.894 2.893h8.686c3.995 0 7.236-3.241 7.236-7.236v-8.688c0-1.598-1.294-2.896-2.893-2.896z" fill="url(#a)"/>
 <path transform="translate(1e-4) scale(.9999)" d="m11.77 11.16a0.5671 0.5671 0 0 0-0.5664 0.5664v0.5474h-0.5474a0.5671 0.5671 0 0 0-0.5664 0.5664v0.3038a0.5671 0.5671 0 0 0 0.5664 0.5664h0.5474v3.019h-0.5474a0.5671 0.5671 0 0 0-0.5664 0.5664v0.3038a0.5671 0.5671 0 0 0 0.5664 0.5664h0.5474v0.5474a0.5671 0.5671 0 0 0 0.5664 0.5664h0.3038a0.5671 0.5671 0 0 0 0.5664-0.5664v-0.5474h3.019v0.5474a0.5671 0.5671 0 0 0 0.5664 0.5664h0.3038a0.5671 0.5671 0 0 0 0.5664-0.5664v-0.5474h0.5474a0.5671 0.5671 0 0 0 0.5664-0.5664v-0.3038a0.5671 0.5671 0 0 0-0.5664-0.5664h-0.5474v-3.019h0.5474a0.5671 0.5671 0 0 0 0.5664-0.5664v-0.3038a0.5671 0.5671 0 0 0-0.5664-0.5664h-0.5474v-0.5474a0.5671 0.5671 0 0 0-0.5664-0.5664h-0.3038a0.5671 0.5671 0 0 0-0.5664 0.5664v0.5474h-3.019v-0.5474a0.5671 0.5671 0 0 0-0.5664-0.5664zm0.8701 2.55h3.019v3.019h-3.019z" fill="url(#a)" stop-color="#000000" stroke-linecap="round" stroke-linejoin="round" stroke-width=".81"/>
 <path transform="translate(1e-4) scale(.9999)" d="m5.372 2.572a0.5671 0.5671 0 0 0-0.5664 0.5664v0.5474h-0.5474a0.5671 0.5671 0 0 0-0.5664 0.5664v0.3038a0.5671 0.5671 0 0 0 0.5664 0.5664h0.5474v3.019h-0.5474a0.5671 0.5671 0 0 0-0.5664 0.5664v0.3038a0.5671 0.5671 0 0 0 0.5664 0.5664h0.5474v0.5474a0.5671 0.5671 0 0 0 0.5664 0.5664h0.3038a0.5671 0.5671 0 0 0 0.5664-0.5664v-0.5474h3.019v0.5474a0.5671 0.5671 0 0 0 0.5664 0.5664h0.3038a0.5671 0.5671 0 0 0 0.5664-0.5664v-0.5474h0.5474a0.5671 0.5671 0 0 0 0.5664-0.5664v-0.3038a0.5671 0.5671 0 0 0-0.5664-0.5664h-0.5474v-3.019h0.5474a0.5671 0.5671 0 0 0 0.5664-0.5664v-0.3038a0.5671 0.5671 0 0 0-0.5664-0.5664h-0.5474v-0.5474a0.5671 0.5671 0 0 0-0.5664-0.5664h-0.3038a0.5671 0.5671 0 0 0-0.5664 0.5664v0.5474h-3.019v-0.5474a0.5671 0.5671 0 0 0-0.5664-0.5664zm0.8701 2.55h3.019v3.019h-3.019z" fill="url(#a)" stop-color="#000000" stroke-linecap="round" stroke-linejoin="round" stroke-width=".81"/>
</svg>
