<svg version="1.1" viewBox="0 0 22 22" xmlns="http://www.w3.org/2000/svg">
 <defs>
  <style>.ColorScheme-Text {
        color:#232629;
      }</style>
 </defs>
 <path transform="translate(1e-6 1e-6) scale(1) matrix(.9778 0 0 .9778 .2444 .2444)" d="m0.4991-0.2499a0.7501 0.7501 0 0 0-0.7491 0.7491v4.5a0.7501 0.7501 0 0 0 0.7491 0.751h4.5a0.7501 0.7501 0 0 0 0.751-0.751v-4.5a0.7501 0.7501 0 0 0-0.751-0.7491zm8.252 0a0.7501 0.7501 0 0 0-0.751 0.7491v4.5a0.7501 0.7501 0 0 0 0.751 0.751h4.5a0.7501 0.7501 0 0 0 0.7491-0.751v-4.5a0.7501 0.7501 0 0 0-0.7491-0.7491zm8.25 0a0.7501 0.7501 0 0 0-0.751 0.7491v4.5a0.7501 0.7501 0 0 0 0.751 0.751h4.5a0.7501 0.7501 0 0 0 0.7491-0.751v-4.5a0.7501 0.7501 0 0 0-0.7491-0.7491zm-15.38 1.876h2.251v2.249h-2.251zm16.5 0h2.249v2.249h-2.249zm-17.62 6.374a0.7501 0.7501 0 0 0-0.7491 0.751v4.5a0.7501 0.7501 0 0 0 0.7491 0.7491h4.5a0.7501 0.7501 0 0 0 0.751-0.7491v-4.5a0.7501 0.7501 0 0 0-0.751-0.751zm1.131 1.876h2.251v2.249h-2.251zm-1.125 6.374a0.7501 0.7501 0 0 0-0.751 0.751v4.5a0.7501 0.7501 0 0 0 0.751 0.7491h4.5a0.7501 0.7501 0 0 0 0.7491-0.7491v-4.5a0.7501 0.7501 0 0 0-0.7491-0.751z" fill="#FDFF00"/>
 <path transform="translate(1e-6 1e-6) scale(1)" d="m19.02 6.886a0.8875 0.8875 0 0 0-0.8874 0.8874v6.73c0 2.091-1.681 3.772-3.772 3.772-0.968 0-1.779-0.4376-2.442-1.035h1.038a0.8875 0.8875 0 0 0 0.8874-0.8874v-0.4437a0.8875 0.8875 0 0 0-0.8874-0.8874h-3.697a0.8875 0.8875 0 0 0-0.8874 0.8874v3.697a0.8875 0.8875 0 0 0 0.8874 0.8874h0.4437a0.8875 0.8875 0 0 0 0.8874-0.8874v-0.5962c1.031 0.8745 2.305 1.484 3.772 1.484 3.309 0 5.989-2.681 5.989-5.989v-6.73a0.8875 0.8875 0 0 0-0.8874-0.8874z" fill="#0ff" stroke-width="1.183"/>
</svg>
