<svg version="1.1" viewBox="0 0 22 22" xmlns="http://www.w3.org/2000/svg">
 <defs>
  <style>.ColorScheme-Text {color:#fcfcfc;}.ColorScheme-Highlight {color:#3daee9;}.ColorScheme-NegativeText {color:#da4453;}</style>
  <linearGradient id="a" x1="1" x2="0" y1="1">
   <stop stop-color="#ff00d4" offset="0"/>
   <stop stop-color="#0040ff" offset="1"/>
  </linearGradient>
 </defs>
 <path transform="translate(0) scale(1) translate(0 6e-4) scale(1) translate(-3.64 -3.561) scale(1.82)" d="m4 2s-2 0-2 2v8c0 2 2 2 2 2h8s2 0 2-2c0 0 0.1366-6 0.06836-8-0.06821-2-2.068-2-2.068-2zm0 1h2v2h1v-2h2v2h1v-2h2s1.001 0 1.004 1c0.003226 1-0.003906 1-0.003906 1h-3v1h3v3h-3v1h3v2c0 1-1 1-1 1h-2v-3h-1v3h-2v-3h-1v3h-2s-1 0-1-1v-2h3v-1h-3v-3h3v-1h-3v-1c0-1 1-1 1-1z" fill="url(#a)"/>
 <path transform="translate(0) scale(1) translate(0 6e-4) scale(1) translate(-3.64 -3.561) scale(1.82)" d="m5 4v7h6v-7zm1 1h4v1l-1 1.5 1 1.5v1h-4v-1l1-1.5-1-1.5z" fill="#f00"/>
</svg>
