<svg version="1.1" viewBox="0 0 22 22" xmlns="http://www.w3.org/2000/svg" xmlns:xlink="http://www.w3.org/1999/xlink">
 <defs>
  <linearGradient id="a" x1="1" x2="0" y1=".5" y2=".5">
   <stop stop-color="#00ff87" offset="0"/>
   <stop stop-color="#60efff" offset="1"/>
  </linearGradient>
 </defs>
 <g transform="translate(-0) scale(1) matrix(-1 0 0 1 22 0)" fill="url(#a)">
  <path transform="matrix(.9565 0 0 .9565 .4789 .4828)" d="m4.025 6.473c-0.3467-2.784e-4 -0.6789 0.1374-0.9238 0.3828l-3.219 3.221c-0.5058 0.5055-0.5058 1.34 0 1.846l3.219 3.219c0.5058 0.508 1.342 0.508 1.848 0 0.5055-0.505 0.5045-1.34 0-1.846v-2e-3l-0.9922-0.9902h5.434c0.7146-5.5e-5 1.305-0.5901 1.305-1.305-5.6e-5 -0.7146-0.5901-1.305-1.305-1.305h-5.432l0.9883-0.9883c0.5073-0.5051 0.5079-1.344 0.00195-1.85-0.2449-0.2454-0.5771-0.3831-0.9238-0.3828z"/>
  <path transform="matrix(.9565 0 0 .9565 .4789 .4828)" d="m11-0.5c-2.402 0-4.232-0.008991-5.766 0.1973-1.54 0.2071-2.861 0.6812-3.859 1.68-0.7826 0.7826-1.251 1.775-1.504 2.894-0.1583 0.6963 0.2863 1.403 0.9824 1.562a0.5 0.5 0 0 0 0.001953 0c0.6953 0.1563 1.4-0.2877 1.559-0.9824a0.5 0.5 0 0 0 0-0.00195c0.1806-0.7962 0.4116-1.228 0.8086-1.625a0.5 0.5 0 0 0 0-0.00195c0.5058-0.5058 1.112-0.7681 2.357-0.9356 1.238-0.1666 3.018-0.1758 5.42-0.1758 0.7043 0 1.315 0.00294 1.914 0.00781v17.76c-0.5987 0.0048-1.21 0.0078-1.914 0.0078-2.402 0-4.183-0.0094-5.42-0.1758-1.244-0.1673-1.852-0.4302-2.357-0.9355-0.3974-0.3975-0.628-0.831-0.8086-1.627a0.5 0.5 0 0 0 0-2e-3c-0.1591-0.6945-0.8633-1.137-1.559-0.9804a0.5 0.5 0 0 0-0.001953 0c-0.6947 0.1591-1.139 0.8613-0.9824 1.557a0.5 0.5 0 0 0 0 2e-3c0.2539 1.119 0.7217 2.113 1.504 2.896 0.9982 0.9982 2.32 1.47 3.859 1.678a0.5 0.5 0 0 0 0 2e-3c1.534 0.206 3.364 0.1952 5.766 0.1952s4.23 0.01092 5.764-0.1953c1.54-0.207 2.861-0.6812 3.859-1.68 0.998-0.9982 1.468-2.317 1.676-3.856 0.2062-1.533 0.1973-3.364 0.1973-5.766s0.0089-4.234-0.1973-5.768c-0.2069-1.539-0.6773-2.857-1.676-3.856-0.9982-0.9982-2.32-1.472-3.859-1.68-1.533-0.2061-3.361-0.1953-5.76-0.1953a0.5 0.5 0 0 0-0.0039-0.003906zm4.523 2.711c0.3085 0.0224 0.6353 0.0413 0.8945 0.07617 1.244 0.1674 1.857 0.431 2.361 0.9356 0.5049 0.505 0.768 1.114 0.9356 2.359 0.01454 0.1081 0.02285 0.2387 0.03516 0.3555h-4.227zm0 6.336h4.348c0.01094 0.7458 0.01758 1.524 0.01758 2.451 0 0.9246-0.0047 1.705-0.01563 2.449h-4.35zm0 7.51h4.227c-0.01239 0.1187-0.02041 0.2517-0.03516 0.3613-0.1674 1.244-0.4304 1.854-0.9356 2.359-0.5048 0.5048-1.116 0.7681-2.361 0.9356-0.2593 0.03487-0.5861 0.05377-0.8945 0.07617z"/>
 </g>
</svg>
