<svg version="1.1" viewBox="0 0 22 22" xmlns="http://www.w3.org/2000/svg">
 <defs>
  <linearGradient id="a" x1="1" x2="0" y1="1">
   <stop stop-color="#ff6900" offset="0"/>
   <stop stop-color="#f1fa00" offset="1"/>
  </linearGradient>
 </defs>
 <path transform="translate(-.000105 .005108) scale(1) translate(-.001713 -.003391) scale(1)" d="m2.35 0.6465a2.39 2.39 0 0 0-2.348 2.35v0.003906a2.39 2.39 0 0 0 0.7637 1.781l6.277 6.285-6.277 6.283a2.39 2.39 0 0 0 3.375 3.377l7.971-7.971a2.39 2.39 0 0 0 0-3.377l-7.971-7.971a2.39 2.39 0 0 0-1.789-0.7617z" fill="url(#a)"/>
 <path transform="translate(-.000105 .005108) scale(1) translate(-.001713 -.003391) scale(1)" d="m18.38 7.379c-1.994-0.00212-3.623 1.628-3.621 3.621 2e-3 1.588 0.9827 2.82 2.234 3.338 1.252 0.5187 2.821 0.3397 3.943-0.7812 1.122-1.124 1.302-2.69 0.7832-3.941-0.5186-1.252-1.752-2.232-3.338-2.234h-2e-3a0.5569 0.5569 0 0 0 0-0.00195z" fill="url(#a)"/>
</svg>
