<svg version="1.1" viewBox="0 0 22 22" xmlns="http://www.w3.org/2000/svg">
 <defs>
  <linearGradient id="a" y1=".5" y2=".5">
   <stop stop-color="#02aa93" offset="0"/>
   <stop stop-color="#33d38a" offset=".485"/>
   <stop stop-color="#67ff80" offset="1"/>
  </linearGradient>
 </defs>
 <path transform="translate(0 .004) scale(1) translate(-.000198 .00234) scale(1) translate(-2.629 24.62) scale(.02839)" d="M169.1-474.3v213.2c0 10.7-3.711 19.76-11.13 27.14q-11.122 11.1-27.26 11.1c-10.75 0-19.79-3.7-27.11-11.1-7.324-7.38-10.99-16.44-10.99-27.14v-517.6c0-10.72 3.698-19.9 11.09-27.57 7.388-7.67 16.44-11.5 27.16-11.5h247.4c8.952 0 17.02 3.13 24.21 9.36 7.188 6.25 11.6 13.71 13.22 22.38l8.952 38.25h158.7c10.72 0 19.9 3.83 27.57 11.49 7.66 7.67 11.49 16.85 11.49 27.58v265.3c0 10.72-3.831 19.76-11.49 27.16-7.666 7.39-16.86 11.08-27.57 11.08h-176.6c-8.952 0-17.02-2.83-24.21-8.54-7.188-5.7-11.6-12.88-13.22-21.56l-8.951-39.06zm271.8-7.33h104.2v-188.8H390.5c-8.951 0-17.02-2.98-24.21-8.96-7.188-5.96-11.6-13.28-13.22-21.97l-8.952-39.05h-175v189.6h225.4c8.951 0 17.02 2.82 24.21 8.52 7.187 5.71 11.6 12.89 13.22 21.57zM729-492.15l-14.68 54.78c-2.152 8.04-6.798 13.99-13.72 17.98-6.944 3.94-14.28 4.89-22.4 2.71-8.128-2.16-14.01-6.66-18.04-13.56-3.816-6.84-4.662-14.28-2.51-22.31l27.84-103.9c3.33-12.43 10.3-21.81 21.29-28.08 10.81-6.3 22.54-7.75 34.98-4.42l103.9 27.84c7.944 2.13 14 6.7 18.02 13.62 3.822 6.88 4.849 14.42 2.687 22.49-2.166 8.09-6.807 14.04-13.52 17.95-6.919 3.91-14.42 4.74-22.37 2.61l-52.9-14.17c27.76 32.43 45.78 67.96 53.86 106.6 8.275 38.67 8.027 74.31-.72 107-13.69 51.09-41.74 91.57-83.76 121.5-42.05 29.91-88.02 43.57-137.9 40.98-8.818-.34-15.75-3.95-20.96-10.91-5.229-6.97-6.658-14.46-4.506-22.47 2.151-8.03 7.05-14.25 14.52-18.72 7.67-4.41 15.98-6.72 24.75-6.97 35.04-.05 66.67-10.8 94.71-32.32 28.02-21.52 46.85-50.24 56.48-86.17 7.077-26.4 6.783-55.49-.909-87.25-7.684-31.75-22.39-59.97-44.11-84.71z" fill="url(#a)"/>
</svg>
