<svg version="1.1" viewBox="0 0 22 22" xmlns="http://www.w3.org/2000/svg">
 <path transform="translate(.000154 1e-4) scale(1)" d="M15.694 7.28q-.34-.34-.34-.771c0-.431.113-.537.34-.749q.316-.317.748-.317c.432 0 .537.105.749.317l4.469 4.469q.157.159.25.363c.092.204.09.272.09.408s-.03.272-.09.408-.145.257-.25.363L17.19 16.24q-.318.317-.749.317c-.43 0-.536-.106-.748-.317s-.322-.462-.329-.749a.99.99 0 0 1 .306-.748L19.436 11zM8.41 6.322a.92.92 0 0 1 .673.274.92.92 0 0 1 .275.673v2.784h6.412q.398 0 .673.27a.91.91 0 0 1 .274.674.93.93 0 0 1-.274.678.92.92 0 0 1-.673.274H9.358v2.784a.92.92 0 0 1-.275.673.92.92 0 0 1-.673.275H.948a.92.92 0 0 1-.673-.275.92.92 0 0 1-.275-.673V7.271c0-.267.092-.488.275-.674a.92.92 0 0 1 .673-.274zm-6.494 7.462H7.46V8.239H1.916z" fill="#00ff80"/>
</svg>
