<svg version="1.1" viewBox="0 0 22 22" xmlns="http://www.w3.org/2000/svg">
 <defs>
  <linearGradient id="a" x1="1" x2="0" y2="1">
   <stop stop-color="#01ff4d" offset="0"/>
   <stop stop-color="#2fff00" offset="1"/>
  </linearGradient>
 </defs>
 <path transform="translate(.0041 .00087) scale(1) translate(.0019 -.00095) scale(1)" d="m12.25 2.52-7.559 0.00586c-2.575 0-4.697 2.117-4.697 4.693v7.56c0 2.576 2.12 4.701 4.697 4.701h7.559c1.299 0 2.387-0.5327 3.361-1.113 0.9955-0.5935 1.955-1.342 2.826-2.125 0.8656-0.7789 1.646-1.598 2.26-2.379l0.0039-0.0039c0.3052-0.3842 0.5735-0.7664 0.7969-1.172v-0.0039c0.1856-0.3342 0.4941-0.9108 0.4941-1.686 0-0.7744-0.3088-1.349-0.4941-1.686a0.9167 0.9167 0 0 0-0.001947-0.001966c-0.222-0.3995-0.4886-0.7854-0.7949-1.176a0.9167 0.9167 0 0 0-2e-3 -0.00195c-0.6133-0.7779-1.395-1.594-2.26-2.377a0.9167 0.9167 0 0 0-2e-3 -0.00391c-0.8694-0.7789-1.832-1.525-2.826-2.117-0.9717-0.5801-2.06-1.115-3.361-1.115zm0 1.832c0.7962 0 1.548 0.3347 2.424 0.8574 0.8555 0.5096 1.736 1.192 2.539 1.91 0.799 0.7236 1.52 1.481 2.047 2.15 0.2632 0.3356 0.4744 0.6414 0.6348 0.9297 0.1998 0.3625 0.2656 0.423 0.2656 0.8008 0 0.3774-0.06745 0.4402-0.2656 0.7969a0.9167 0.9167 0 0 0-2e-3 0.0039c-0.1597 0.2903-0.3673 0.5902-0.6309 0.9219a0.9167 0.9167 0 0 0-2e-3 0.0039c-0.5302 0.6754-1.251 1.436-2.049 2.154-0.8041 0.7231-1.681 1.404-2.537 1.914-0.8787 0.5232-1.626 0.8535-2.422 0.8535h-7.558c-1.567 0-2.865-1.3-2.865-2.867v-7.56c0-1.568 1.297-2.861 2.865-2.861z" fill="url(#a)"/>
 <path transform="translate(.0041 .00087) scale(1) translate(.0019 -.00095) scale(1)" d="m7.113 6.195c-0.5167 0-0.9951 0.1196-1.377 0.3789-0.3815 0.2592-0.6292 0.6383-0.7715 1.012-0.2365 0.6204-0.2117 1.241-0.2109 1.84l-1.01 1.008a0.8005 0.8005 0 0 0 0 1.133l1.01 1.008c-7.039e-4 0.599-0.0256 1.22 0.2109 1.84 0.1422 0.3732 0.39 0.7522 0.7715 1.012 0.3815 0.2595 0.8598 0.377 1.377 0.377a0.8005 0.8005 0 0 0 0.8008-0.8008 0.8005 0.8005 0 0 0-0.8008-0.7988c-0.2838 0-0.4078-0.05483-0.4766-0.1016-0.06876-0.04673-0.1199-0.108-0.1777-0.2598-0.1157-0.3035-0.1465-0.9386-0.1465-1.641a0.8005 0.8005 0 0 0-0.2344-0.5664l-0.6348-0.6348 0.6348-0.6348a0.8005 0.8005 0 0 0 0.2344-0.5664c0-0.702 0.0308-1.337 0.1465-1.641 0.05784-0.1517 0.109-0.2111 0.1777-0.2578 0.06873-0.04669 0.1927-0.1035 0.4766-0.1035a0.8005 0.8005 0 0 0 0.8008-0.7988 0.8005 0.8005 0 0 0-0.8008-0.8008zm4.803 0a0.8005 0.8005 0 0 0-0.8008 0.8008 0.8005 0.8005 0 0 0 0.8008 0.8008c0.2838 0 0.4058 0.05483 0.4746 0.1016 0.06873 0.04669 0.1199 0.106 0.1777 0.2578 0.1157 0.3035 0.1484 0.9405 0.1484 1.643a0.8005 0.8005 0 0 0 0.2344 0.5664l0.6348 0.6348-0.6348 0.6348a0.8005 0.8005 0 0 0-0.2344 0.5644c0 0.702-0.03275 1.339-0.1484 1.643-0.05785 0.1517-0.109 0.2111-0.1777 0.2578s-0.1908 0.1016-0.4746 0.1016a0.8005 0.8005 0 0 0-0.8008 0.8008 0.8005 0.8005 0 0 0 0.8008 0.8008c0.5167 0 0.9932-0.1196 1.375-0.3789s0.6312-0.6383 0.7734-1.012c0.2365-0.6204 0.2117-1.239 0.2109-1.838l1.008-1.01a0.8005 0.8005 0 0 0 0-1.131l-1.008-1.01c7.09e-4 -0.599 0.02559-1.218-0.2109-1.838-0.1422-0.3732-0.3919-0.7522-0.7734-1.012-0.3815-0.2592-0.8579-0.3789-1.375-0.3789z" fill="url(#a)"/>
</svg>
