<svg version="1.1" viewBox="0 0 22 22" xmlns="http://www.w3.org/2000/svg">
 <defs>
  <linearGradient id="a" y1="1">
   <stop stop-color="#0061ff" offset="0"/>
   <stop stop-color="#60efff" offset="1"/>
  </linearGradient>
 </defs>
 <g transform="translate(.00015 .000181) scale(1) translate(1e-5 .000846) scale(.9995) matrix(0 -1 -1 0 22.01 22.01)" fill="url(#a)">
  <path transform="matrix(1.001,0,0,1.001,1.44e-4,-6.1e-4)" d="m20.5 2.238c-0.4024-0.00735-0.7892 0.158-1.064 0.4512-0.2896 0.2992-0.4356 0.6575-0.4356 1.076v14.49c-0.0086 0.3974 0.1472 0.7814 0.4297 1.06 0.2858 0.2896 0.6379 0.4354 1.059 0.4356 0.4203-1.2e-5 0.7752-0.1458 1.064-0.4356 0.2896-0.2881 0.4356-0.6422 0.4356-1.06v-14.49c0.0065-0.402-0.1501-0.7893-0.4316-1.076-0.2852-0.2992-0.6359-0.4512-1.057-0.4512z"/>
  <path transform="matrix(1.001,0,0,1.001,1.44e-4,-6.1e-4)" d="m10.65 5.154a1.779 1.779 0 0 0-1.75 1.75 1.779 1.779 0 0 0 0.5703 1.33l2.891 2.898-2.891 2.896a1.779 1.779 0 0 0 1.396 2.973 1.779 1.779 0 0 0 1.117-0.459l4.148-4.156a1.779 1.779 0 0 0 0-2.508l-4.148-4.156a1.779 1.779 0 0 0-1.334-0.5684z"/>
  <path transform="matrix(1.001,0,0,1.001,1.44e-4,-6.1e-4)" d="m1.75 5.154a1.779 1.779 0 0 0-1.75 1.75 1.779 1.779 0 0 0 0.5703 1.328l2.894 2.898-2.894 2.896a1.779 1.779 0 0 0 0 2.516 1.779 1.779 0 0 0 1.258 0.5195 1.779 1.779 0 0 0 1.256-0.5195l4.152-4.156a1.779 1.779 0 0 0 0-2.508l-4.152-4.156a1.779 1.779 0 0 0-1.334-0.5684z"/>
 </g>
</svg>
