<svg version="1.1" viewBox="0 0 22 22" xmlns="http://www.w3.org/2000/svg">
 <defs>
  <linearGradient id="a" y1="1">
   <stop stop-color="#39ff14" offset="0"/>
   <stop stop-color="#00ff81" offset="1"/>
  </linearGradient>
 </defs>
 <path transform="translate(0) scale(1) translate(0) scale(1) translate(0) scale(1) translate(0) scale(1) translate(0) scale(1) translate(0) scale(1) translate(0) scale(1) translate(.00032) scale(1) translate(.001622) scale(.3437)" d="m31.99 0c-8.999 0-16.36 7.36-16.36 16.36v4.832c-4.753 1.65-8.465 5.631-9.156 10.77-0.4254 3.16-0.793 6.495-0.793 9.98s0.3676 6.826 0.793 9.99c0.8645 6.421 6.193 11.47 12.73 11.78 4.082 0.1876 8.231 0.2891 12.79 0.2891s8.708-0.1015 12.79-0.2891c6.536-0.3005 11.86-5.352 12.73-11.78 0.4257-3.16 0.7949-6.497 0.7949-9.99s-0.3692-6.824-0.7949-9.98c-0.8648-6.421-6.191-11.48-12.73-11.78-4.082-0.1877-8.231-0.2812-12.79-0.2812-3.262 0-6.26 0.07486-9.23 0.1719v-3.717c0-5.147 4.083-9.228 9.23-9.228 3.704 0 7.05 3.262 7.99 6.086a1.433 1.433 0 0 0 0 0.0059c0.6174 1.849 2.654 2.867 4.504 2.254a1.433 1.433 0 0 0 0.0059-0.0039c1.849-0.6174 2.868-2.648 2.254-4.498a1.433 1.433 0 0 0 0-0.0059c-1.884-5.65-7.396-10.96-14.76-10.96zm0 27.03c4.456 0 8.489 0.09467 12.46 0.2773 3.03 0.1392 5.57 2.528 5.986 5.606 0.4089 3.037 0.7324 6.054 0.7324 9.033s-0.3234 5.994-0.7324 9.031c-0.4143 3.076-2.957 5.471-5.986 5.609-3.973 0.1826-8.006 0.2773-12.46 0.2773-4.458 0-8.491-0.09473-12.46-0.2773-3.03-0.1392-5.57-2.532-5.986-5.609-0.4089-3.037-0.7324-6.052-0.7324-9.031s0.3234-5.996 0.7324-9.033c0.4143-3.076 2.957-5.467 5.986-5.606 3.973-0.1827 8.008-0.2773 12.46-0.2773z" fill="url(#a)"/>
 <path transform="translate(0) scale(1) translate(0) scale(1) translate(0) scale(1) translate(0) scale(1) translate(0) scale(1) translate(0) scale(1) translate(0) scale(1) translate(.00032) scale(1) translate(.001622) scale(.3437)" d="m31.99 33.94a4.768 4.768 0 0 0-3.201 8.35v4.451a3.2 3.2 0 0 0 6.4 0v-4.451a4.768 4.768 0 0 0-3.199-8.35z" fill="url(#a)"/>
</svg>
