<svg version="1.1" viewBox="0 0 22 22" xmlns="http://www.w3.org/2000/svg">
 <path transform="translate(0) scale(1) translate(0) scale(1) translate(0) scale(1) translate(0 5e-4) scale(1)" d="M4.4 1.651a4.4 4.4 0 0 0-4.4 4.4v9.898a4.4 4.4 0 0 0 4.4 4.4h13.2a4.4 4.4 0 0 0 4.4-4.4V8.91a4.4 4.4 0 0 0-4.4-4.4h-5.119l-2.197-2a3.3 3.3 0 0 0-2.225-.86zm0 2.2h3.658a1.1 1.1 0 0 1 .74.288v-.004L11 6.14a2.2 2.2 0 0 0 1.48.57h5.12a2.2 2.2 0 0 1 2.198 2.2v7.04a2.2 2.2 0 0 1-2.199 2.2h-13.2a2.2 2.2 0 0 1-2.2-2.2v-9.9a2.2 2.2 0 0 1 2.2-2.198z" fill="#0f0"/>
 <path transform="translate(0) scale(1) translate(0) scale(1) translate(0) scale(1) translate(0 5e-4) scale(1)" d="M11.02 7.968a1.3 1.3 0 0 0-.908.361 1.21 1.21 0 0 0-.385.885v1.854H7.899a1.254 1.254 0 0 0-1.272 1.264c0 .344.128.664.363.91a1.21 1.21 0 0 0 .883.385h1.854v1.828c0 .343.128.661.365.9.24.243.565.37.92.37.33 0 .642-.126.887-.36a1.22 1.22 0 0 0 .385-.888v-1.85h1.83a1.26 1.26 0 0 0 .898-.366c.242-.24.37-.565.37-.92 0-.33-.127-.643-.36-.888a1.22 1.22 0 0 0-.887-.385h-1.85v-1.83c0-.343-.128-.66-.365-.9a1.25 1.25 0 0 0-.899-.37z" fill="#0f0"/>
</svg>
