<svg fill="none" version="1.1" viewBox="0 0 22 22" xmlns="http://www.w3.org/2000/svg">
 <path transform="translate(-0) scale(1) translate(-0) scale(1) translate(-0) scale(1) translate(-4e-6 3.9e-5) scale(1) translate(.01698 .003961) scale(.9992)" d="M4.13 6.866a3.2 3.2 0 0 1-2.267-.94L.465 4.686a1.377 1.377 0 0 1 1.833-2.052L3.749 3.93a.53.53 0 0 0 .38.188.46.46 0 0 0 .324-.133L7.764.832a1.375 1.375 0 0 1 1.896 1.99l-3.286 3.13a3.16 3.16 0 0 1-2.244.915zM22 3.66a1.375 1.375 0 0 0-1.375-1.375h-7.33a1.375 1.375 0 0 0 0 2.75h7.33A1.375 1.375 0 0 0 22 3.66M6.374 13.28l3.285-3.13a1.375 1.375 0 0 0-1.895-1.989l-3.31 3.152a.46.46 0 0 1-.648 0L2.353 9.859a1.375 1.375 0 1 0-1.944 1.944l1.454 1.453a3.21 3.21 0 0 0 4.51.023zm15.625-2.29a1.375 1.375 0 0 0-1.375-1.375h-7.33a1.375 1.375 0 1 0 0 2.75h7.33A1.376 1.376 0 0 0 22 10.99M6.374 20.609l3.285-3.128a1.375 1.375 0 0 0-1.895-1.99l-3.31 3.152a.46.46 0 0 1-.324.134.53.53 0 0 1-.38-.19l-1.452-1.294a1.376 1.376 0 0 0-1.833 2.053l1.395 1.242a3.21 3.21 0 0 0 4.514.023zm15.625-2.289a1.375 1.375 0 0 0-1.375-1.375h-7.33a1.375 1.375 0 0 0 0 2.749h7.33A1.375 1.375 0 0 0 22 18.319" fill="#ff00df"/>
</svg>
