<svg version="1.1" viewBox="0 0 22 22" xmlns="http://www.w3.org/2000/svg">
 <defs>
  <linearGradient id="a" y1="1">
   <stop stop-color="#00b8ff" offset="0"/>
   <stop stop-color="#00ff9d" offset="1"/>
  </linearGradient>
 </defs>
 <path transform="translate(-2.5e-5) scale(1) translate(.000412 -9.6e-5) scale(.9996) translate(-.26 -.26) scale(1.024)" d="M9.4.254a.75.75 0 0 0-.299.078.75.75 0 0 0-.414.67v1.545C4.41 2.677.908 5.93.482 10.13a9 9 0 0 0-.045.87c0 3.42 2.076 6.287 4.973 7.627a.75.75 0 0 0 1.064-.682v-2.004a.75.75 0 0 0-.342-.628C4.682 14.369 3.687 12.83 3.687 11q0-.277.026-.538c.26-2.559 2.375-4.538 4.975-4.666v1.451a.75.75 0 0 0 1.199.6l4.166-3.123a.75.75 0 0 0 0-1.199L9.887.403A.75.75 0 0 0 9.4.255zm6.94 3.076a.75.75 0 0 0-.777.75v1.992a.75.75 0 0 0 .338.627c1.263.833 2.173 2.116 2.37 3.648q.042.317.042.652a5.2 5.2 0 0 1-1.202 3.338c-.912 1.105-2.276 1.779-3.799 1.856v-1.441a.75.75 0 0 0-1.199-.6l-4.166 3.123a.75.75 0 0 0 0 1.2l4.166 3.122a.75.75 0 0 0 1.2-.6V19.45c4.567-.14 8.25-3.848 8.25-8.45 0-3.402-2.06-6.25-4.933-7.6a.8.8 0 0 0-.29-.07" fill="url(#a)"/>
</svg>
