<svg version="1.1" viewBox="0 0 22 22" xmlns="http://www.w3.org/2000/svg">
 <defs>
  <linearGradient id="a" y1=".5" y2=".5">
   <stop stop-color="#248efe" offset="0"/>
   <stop stop-color="#1df4ff" offset="1"/>
  </linearGradient>
  <linearGradient id="b" y1=".5" y2=".5">
   <stop stop-color="#ff00f5" offset="0"/>
   <stop stop-color="#ff81ff" offset="1"/>
  </linearGradient>
 </defs>
 <path transform="translate(0) scale(1) translate(0) scale(1) translate(.002461 3e-4) scale(1) translate(-.002111) scale(1)" d="m11.04 0a1.431 1.431 0 0 0-1.008 0.418l-3.344 3.344a1.431 1.431 0 0 0-0.459 1.074 1.431 1.431 0 0 0 1.406 1.408 1.431 1.431 0 0 0 1.074-0.459l2.33-2.326 2.332 2.326a1.431 1.431 0 0 0 2.394-1.127h-0.0039a1.431 1.431 0 0 0-0.3692-0.8984l-3.344-3.34a1.431 1.431 0 0 0-1.01-0.4199z" fill="url(#b)"/>
 <path transform="translate(0) scale(1) translate(0) scale(1) translate(.002461 3e-4) scale(1) translate(-.002111) scale(1)" d="m14.36 15.75a1.431 1.431 0 0 0-1.072 0.459l-2.332 2.326-2.328-2.326a1.431 1.431 0 0 0-2.396 1.127h0.00391a1.431 1.431 0 0 0 0.3691 0.8984l3.346 3.342a1.431 1.431 0 0 0 1.008 0.418h2e-3a1.431 1.431 0 0 0 1.006-0.418l3.346-3.344a1.431 1.431 0 0 0 0.457-1.074 1.431 1.431 0 0 0-1.406-1.408z" fill="url(#b)"/>
 <path transform="translate(0) scale(1) translate(0) scale(1) translate(.002461 3e-4) scale(1) translate(-.002111)" d="m5.117 11.61c-0.2812 0-0.5529 0.07465-0.8086 0.2695-0.2557 0.1949-0.5293 0.5856-0.5293 1.094 0 0.5082 0.2736 0.9008 0.5293 1.096 0.2557 0.195 0.5273 0.2695 0.8086 0.2695h11.76c0.2813 0 0.553-0.07469 0.8086-0.2695 0.2556-0.1948 0.5293-0.5872 0.5293-1.096s-0.2736-0.899-0.5293-1.094c-0.2557-0.1948-0.5274-0.2695-0.8086-0.2695z" fill="url(#a)"/>
 <path transform="translate(0) scale(1) translate(0) scale(1) translate(.002461 3e-4) scale(1) translate(-.002111)" d="m5.117 7.666c-0.2812 0-0.5529 0.07465-0.8086 0.2695-0.2557 0.1949-0.5293 0.5856-0.5293 1.094 0 0.5082 0.2736 0.9008 0.5293 1.096 0.2557 0.195 0.5273 0.2695 0.8086 0.2695h11.76c0.2813 0 0.553-0.07469 0.8086-0.2695 0.2556-0.1948 0.5293-0.5872 0.5293-1.096s-0.2736-0.899-0.5293-1.094c-0.2557-0.1948-0.5274-0.2695-0.8086-0.2695z" fill="url(#a)"/>
</svg>
