<svg version="1.1" viewBox="0 0 22 22" xmlns="http://www.w3.org/2000/svg">
 <defs>
  <linearGradient id="a" x2="0" y2="1">
   <stop stop-color="#f9ad07" offset="0"/>
   <stop stop-color="#ff06a6" offset="1"/>
  </linearGradient>
 </defs>
 <path transform="translate(-0) scale(.3438) translate(.001239 .001072) scale(.9999) translate(-.003679 .001215) scale(.9999) translate(-3.718 -3.718) scale(2.977)" d="m11.93 1.25c-0.3995 0.0131-0.6518 0.1887-0.8765 0.3667s-0.4235 0.3919-0.6233 0.6351c-0.3997 0.4864-0.7904 1.094-1.135 1.713-0.3444 0.6193-0.6398 1.243-0.8299 1.781-0.09506 0.2691-0.1658 0.5128-0.1975 0.7656-0.01581 0.1264-0.0253 0.2562 0.001968 0.4199 0.02727 0.1637 0.1019 0.3963 0.3261 0.578 0.2623 0.2127 0.6109 0.2595 0.8654 0.2303 0.2546-0.02924 0.4691-0.1074 0.6994-0.2067 0.4606-0.1987 0.9892-0.503 1.695-0.9028 0.01287-0.00729 0.02354-0.0144 0.03346-0.01968 0.0068 0.00326 0.01544 0.007739 0.02362 0.01181 0.1433 0.07133 0.741 0.4546 1.346 0.744 0.3022 0.1447 0.6169 0.2769 0.967 0.3418 0.3501 0.06485 0.824 0.07148 1.211-0.267 0.2127-0.186 0.2798-0.4155 0.3044-0.5787s0.01351-0.2925-0.003937-0.4199c-0.03494-0.2548-0.1091-0.4986-0.2086-0.7689-0.199-0.5407-0.5046-1.167-0.8614-1.783-0.3568-0.6162-0.7597-1.215-1.174-1.693-0.2072-0.239-0.415-0.4488-0.6502-0.6206s-0.5072-0.3399-0.9119-0.3267zm0.04396 1.556c0.0946 0.07149 0.2332 0.198 0.3858 0.374 0.3183 0.3671 0.6871 0.9084 1.008 1.463 0.2965 0.512 0.5362 1.022 0.6954 1.43-0.05967-0.02506-0.09405-0.02635-0.1568-0.05642-0.4768-0.2283-0.9507-0.548-1.326-0.7348-0.1971-0.09811-0.4411-0.1988-0.7381-0.1889s-0.5303 0.1223-0.7243 0.2322c-0.4892 0.2772-0.769 0.4175-1.077 0.576 0.1532-0.3727 0.3231-0.7723 0.5649-1.207 0.311-0.5593 0.6705-1.109 0.9821-1.488 0.1513-0.1841 0.2891-0.3224 0.3851-0.4002zm-5.333 5.444c-0.06914 0.00187-0.1338 0.008984-0.1975 0.01771-0.2548 0.03492-0.4993 0.1098-0.7696 0.2093-0.5407 0.199-1.165 0.504-1.781 0.8608-0.6162 0.3568-1.217 0.7597-1.695 1.174-0.239 0.2072-0.4496 0.415-0.6213 0.6502-0.1718 0.2352-0.3393 0.5072-0.3261 0.9119 0.0131 0.3995 0.1894 0.6525 0.3674 0.8772s0.3912 0.4235 0.6344 0.6233c0.4864 0.3997 1.094 0.7904 1.713 1.135 0.6193 0.3444 1.243 0.6398 1.781 0.8299 0.2691 0.09506 0.5128 0.1658 0.7656 0.1975 0.1264 0.01581 0.2562 0.02541 0.4199-0.001968 0.1637-0.02728 0.3963-0.1019 0.578-0.3261 0.2127-0.2622 0.2595-0.6108 0.2303-0.8654s-0.1074-0.4691-0.2067-0.6994c-0.1987-0.4606-0.5023-0.9899-0.9021-1.695-0.00729-0.01287-0.0144-0.02289-0.01968-0.0328 0.00326-0.0068 0.007739-0.01544 0.01181-0.02362 0.07133-0.1433 0.4546-0.741 0.744-1.346 0.1447-0.3022 0.2769-0.6169 0.3418-0.967 0.06486-0.3501 0.07085-0.824-0.2677-1.211-0.186-0.2127-0.4128-0.2798-0.576-0.3044-0.0816-0.01231-0.1559-0.01565-0.225-0.01378v-6.561e-4zm10.72 0c-0.06914-0.00187-0.1428 0.001468-0.2244 0.01378-0.1632 0.02463-0.3907 0.09169-0.5767 0.3044-0.3385 0.3871-0.3325 0.8609-0.2677 1.211 0.06485 0.3501 0.1971 0.6648 0.3418 0.967 0.2894 0.6043 0.6733 1.202 0.7446 1.346 0.0039 0.0078 0.006641 0.01443 0.009841 0.02099-0.0052 0.0097-0.01063 0.02098-0.01771 0.03346v0.001968c-0.3998 0.7058-0.7042 1.235-0.9028 1.695-0.09933 0.2303-0.1775 0.4442-0.2067 0.6987s0.01759 0.6032 0.2303 0.8654c0.1818 0.2241 0.4143 0.2988 0.578 0.3261 0.1637 0.02728 0.2935 0.01768 0.4199 0.001968 0.2528-0.03161 0.4966-0.1017 0.7656-0.1968 0.5382-0.1901 1.162-0.4862 1.781-0.8306 0.6193-0.3444 1.226-0.735 1.713-1.135 0.2432-0.1999 0.457-0.398 0.6351-0.6226 0.178-0.2246 0.3536-0.4777 0.3667-0.8772 0.01328-0.4047-0.1543-0.6767-0.3261-0.9119-0.1717-0.2353-0.3822-0.4435-0.6213-0.6508-0.4781-0.4146-1.079-0.8168-1.695-1.174s-1.24-0.6625-1.781-0.8614c-0.2704-0.09949-0.5148-0.1737-0.7696-0.2086-0.0637-0.00873-0.1276-0.01583-0.1968-0.01771h-6.56e-4zm-5.36 0.9999c-1.51 0-2.75 1.24-2.75 2.75s1.24 2.75 2.75 2.75 2.75-1.24 2.75-2.75-1.24-2.75-2.75-2.75zm-5.928 0.6915c-0.02506 0.05967-0.02635 0.09339-0.05642 0.1561-0.2283 0.4768-0.5473 0.9507-0.7341 1.326-0.09812 0.1971-0.1996 0.4411-0.1896 0.7381 0.00989 0.297 0.1242 0.531 0.2342 0.725 0.2773 0.4895 0.4181 0.7683 0.5767 1.076-0.373-0.1532-0.7736-0.3228-1.209-0.5649-0.5593-0.311-1.109-0.6705-1.488-0.9821-0.1841-0.1513-0.3231-0.2885-0.4009-0.3845 0.07141-0.09461 0.199-0.2342 0.3753-0.3871 0.3671-0.3183 0.9084-0.6864 1.463-1.008 0.5115-0.2962 1.021-0.5356 1.429-0.6948zm11.86 6.561e-4c0.4076 0.1592 0.9176 0.3978 1.43 0.6941 0.5545 0.3211 1.096 0.6899 1.463 1.008 0.1763 0.1529 0.3032 0.2918 0.3746 0.3864-0.07774 0.09591-0.2161 0.2338-0.4002 0.3851-0.3792 0.3116-0.929 0.6711-1.488 0.9821-0.4355 0.2422-0.836 0.4117-1.209 0.5649 0.1585-0.3079 0.2994-0.5873 0.5767-1.077 0.11-0.1941 0.2243-0.4273 0.2342-0.7243s-0.09158-0.541-0.1896-0.7381c-0.1868-0.3753-0.5057-0.8493-0.7341-1.326-0.02996-0.06256-0.03229-0.09694-0.05708-0.1561zm-5.929 0.8083c0.6993 0 1.25 0.5505 1.25 1.25s-0.5505 1.25-1.25 1.25-1.25-0.5505-1.25-1.25 0.5505-1.25 1.25-1.25zm-2.643 5.5c-0.2408-0.0077-0.5361 0.05206-0.7656 0.2382-0.2242 0.1818-0.2994 0.4143-0.3267 0.578-0.02727 0.1637-0.01779 0.2935-0.001968 0.4199 0.03162 0.2528 0.1024 0.4966 0.1975 0.7656 0.1901 0.5381 0.4855 1.162 0.8299 1.781 0.3444 0.6193 0.735 1.226 1.135 1.713 0.1999 0.2432 0.3987 0.457 0.6233 0.6351s0.4777 0.3536 0.8772 0.3667c0.4047 0.01328 0.6767-0.1543 0.9119-0.3261s0.4429-0.3822 0.6502-0.6213c0.4145-0.4781 0.8174-1.079 1.174-1.695 0.3568-0.6162 0.6625-1.241 0.8614-1.781 0.09949-0.2704 0.1737-0.5148 0.2086-0.7696 0.01746-0.1274 0.02857-0.2587 0.003936-0.4219-0.02461-0.1632-0.09169-0.3899-0.3044-0.576-0.3871-0.3385-0.8609-0.3325-1.211-0.2677-0.3501 0.06485-0.6648 0.1971-0.967 0.3418-0.6043 0.2894-1.202 0.6727-1.346 0.744-0.0082 0.0041-0.01678 0.008589-0.02362 0.01181-0.0099-0.0053-0.02059-0.01239-0.03346-0.01968-0.7058-0.3998-1.235-0.7035-1.695-0.9021-0.2303-0.09933-0.4449-0.1775-0.6994-0.2067-0.03182-0.0037-0.06532-0.006773-0.09972-0.007873v-6.56e-4zm4.7 1.677c-0.1592 0.4076-0.3985 0.9169-0.6948 1.429-0.3211 0.5545-0.6892 1.096-1.008 1.463-0.1529 0.1763-0.2925 0.3039-0.3871 0.3753-0.09592-0.07775-0.2332-0.2168-0.3845-0.4009-0.3116-0.3792-0.6718-0.929-0.9828-1.488-0.2422-0.4355-0.411-0.8355-0.5642-1.208 0.3079 0.1585 0.5867 0.2987 1.076 0.576 0.194 0.1099 0.4281 0.2242 0.725 0.2342 0.297 0.0099 0.5409-0.0909 0.7381-0.1889 0.3753-0.1868 0.8493-0.5064 1.326-0.7348 0.0628-0.03007 0.09652-0.03136 0.1561-0.05642z" fill="url(#a)"/>
</svg>
