<svg version="1.1" viewBox="0 0 22 22" xmlns="http://www.w3.org/2000/svg">
 <defs>
  <linearGradient id="a" y1="1">
   <stop stop-color="#02aa93" offset="0"/>
   <stop stop-color="#33d38a" offset=".485"/>
   <stop stop-color="#67ff80" offset="1"/>
  </linearGradient>
 </defs>
 <path transform="translate(5e-4 .000609) scale(1) translate(-2.81 -3.307) scale(1.726)" d="M4 5.5h5.472q.004-.072.004-.156c0-.398-.075-.611-.368-.82-.27-.259-.646-.344-1.292-.344-.46 0-.879.051-1.319.161a8 8 0 0 0-1.219.406.5.5 0 0 1-.668-.288l-.448-1.232a.5.5 0 0 1 .269-.629 8.6 8.6 0 0 1 1.531-.494 8.4 8.4 0 0 1 1.822-.188c.771 0 1.507.136 2.102.393.603.26 1.14.683 1.49 1.178.356.503.556 1.172.556 1.841q0 .087-.003.172H12a.5.5 0 0 1 .5.5v1a.5.5 0 0 1-.5.5h-.717q-.105.144-.226.27c-.417.435-1.013.824-1.735 1.151H12a.5.5 0 0 1 .5.5v1a.5.5 0 0 1-.5.5H6.304a2 2 0 0 0-.004.151c0 .456.11.683.458.945.36.273.838.395 1.618.395.579 0 1.11-.06 1.657-.194.547-.133.98-.274 1.34-.435a.5.5 0 0 1 .703.457v1.376c0 .194-.112.37-.287.452-.399.185-.915.34-1.486.44-.567.1-1.203.152-1.863.152-1.317 0-2.472-.33-3.281-.951-.827-.636-1.299-1.646-1.299-2.765v-.043a.5.5 0 0 1-.36-.48v-1a.5.5 0 0 1 .5-.5h.494c.268-.34.621-.651 1.025-.897.29-.181.626-.357.997-.524H4a.5.5 0 0 1-.5-.5V6a.5.5 0 0 1 .5-.5" fill="url(#a)"/>
</svg>
