<svg version="1.1" viewBox="0 0 22 22" xmlns="http://www.w3.org/2000/svg">
 <defs>
  <linearGradient id="a" x1="1" x2="0" y1=".5" y2=".5">
   <stop stop-color="#ff7aa8" offset=".107"/>
   <stop stop-color="#ffb9b3" offset=".871"/>
  </linearGradient>
 </defs>
 <path transform="translate(4e-5 .000255) scale(1) translate(-1.543 -2.538) scale(1.692)" d="M5 1.5h1a.5.5 0 0 1 .5.5v1.242l4.148-1.555a.5.5 0 0 1 .644.292l.352.938a.5.5 0 0 1-.292.644L6.5 5.381v.862l4.148-1.556a.5.5 0 0 1 .644.292l.352.938a.5.5 0 0 1-.292.644L6.5 8.381v4.101c1.06-.096 1.84-.458 2.682-1.3S10.522 9.279 10.5 8a.5.5 0 0 1 .5-.5h1a.5.5 0 0 1 .5.5c-.022 1.759-.755 3.447-1.904 4.596S7.759 14.478 6 14.5H5a.5.5 0 0 1-.5-.5V9.13l-1.148.431a.5.5 0 0 1-.644-.292l-.352-.938a.5.5 0 0 1 .292-.644L4.5 6.992V6.13l-1.148.431a.5.5 0 0 1-.644-.292l-.352-.938a.5.5 0 0 1 .292-.644L4.5 3.992V2a.5.5 0 0 1 .5-.5" fill="url(#a)"/>
</svg>
