<svg version="1.1" viewBox="0 0 22 22" xmlns="http://www.w3.org/2000/svg">
 <defs>
  <linearGradient id="a" y1=".5" y2=".5">
   <stop stop-color="#f1fa00" offset="0"/>
   <stop stop-color="#ff6900" offset="1"/>
  </linearGradient>
 </defs>
 <path transform="translate(-6.5e-5 -6e-5) scale(1) translate(.647 .647) scale(1.294)" d="M16.5 3v1a.5.5 0 0 1-.5.5h-2.5v2.047c.757.124 1.478.481 1.975.978.606.606 1.025 1.544 1.025 2.475s-.419 1.869-1.025 2.475c-.497.497-1.218.854-1.975.978V14a.5.5 0 0 1-.5.5h-1a.5.5 0 0 1-.5-.5v-.5H9a.5.5 0 0 1-.5-.5v-1a.5.5 0 0 1 .5-.5h2.5v-3c-.793-.022-1.606-.363-2.121-.879C8.863 7.106 8.5 6.293 8.5 5.5s.363-1.606.879-2.121c.515-.516 1.328-.857 2.121-.879V2a.5.5 0 0 1 .5-.5h1a.5.5 0 0 1 .5.5v.5H16a.5.5 0 0 1 .5.5m-5.707 1.793c-.208.209-.293.395-.293.707s.085.498.293.707c.209.208.395.315.707.293v-2c-.312-.022-.498.085-.707.293m3.268 6.268c.299-.299.439-.611.439-1.061s-.14-.762-.439-1.061a1.5 1.5 0 0 0-.561-.374v2.87c.208-.072.387-.2.561-.374M4 2.5c.931.022 1.869.419 2.475 1.025S7.5 5.069 7.5 6s-.419 1.869-1.025 2.475c-.43.43-1.027.755-1.671.915l2.55 2.549a.5.5 0 0 1 .146.354V13a.5.5 0 0 1-.5.5h-.707a.5.5 0 0 1-.354-.146L2.086 9.5H1.5V13a.5.5 0 0 1-.5.5H0a.5.5 0 0 1-.5-.5V3a.5.5 0 0 1 .5-.5zm-2.5 5H4c.45.022.762-.14 1.061-.439S5.5 6.45 5.5 6s-.14-.762-.439-1.061S4.45 4.478 4 4.5H1.5z" fill="url(#a)"/>
</svg>
