<svg version="1.1" viewBox="0 0 22 22" xmlns="http://www.w3.org/2000/svg">
 <defs>
  <linearGradient id="a" y2="1">
   <stop stop-color="#f10" offset="0"/>
   <stop stop-color="#ff115a" offset="1"/>
  </linearGradient>
 </defs>
 <path transform="translate(.006749 .003089) scale(.9997) translate(.000856 .00785) scale(.9999)" d="m10.7 3.309c-6.079 0.1539-9.598 5.495-10.56 7.143a1.103 1.103 0 0 0 0 1.102c0.6927 1.198 4.398 7.143 10.88 7.143h0.2735c6.079-0.1539 9.608-5.495 10.56-7.143a1.1 1.1 0 0 0 0-1.102h-0.001954c-0.7027-1.22-4.572-7.341-11.15-7.143h-0.001953zm0.1094 2.197c4.714-0.121 7.815 3.946 8.794 5.495-1.132 1.769-3.968 5.387-8.364 5.497-4.737 0.11-7.826-3.948-8.794-5.497 1.1-1.769 3.969-5.385 8.364-5.495zm0.1914 1.651a3.848 3.848 0 0 0-3.555 2.371 3.848 3.848 0 0 0 0.836 4.194 3.848 3.848 0 0 0 1.969 1.055 3.852 3.852 0 0 0 4.598-3.772 3.846 3.846 0 0 0-3.848-3.848zm-0.08009 2.197a1.646 1.646 0 0 1 1.246 2.813 1.647 1.647 0 1 1-1.246-2.813z" fill="url(#a)" opacity=".8"/>
 <path transform="translate(.006749 .003089) scale(.9997)" d="m20.62 9.847e-6a0.2445 0.2445 0 0 0 0 0.00382c-0.3626 0.002065-0.712 0.1443-0.9684 0.4011l-19.24 19.24a0.2445 0.2445 0 0 0-0.00382 0.0038c-0.2961 0.3113-0.4192 0.6836-0.3954 1.029 0.02385 0.3459 0.1847 0.6606 0.4202 0.8958 0.2355 0.2352 0.5498 0.3968 0.8958 0.4202 0.346 0.02343 0.7186-0.1008 1.029-0.3973a0.2445 0.2445 0 0 0 0.00573-0.0038l19.23-19.24c0.537-0.5351 0.5361-1.412 0-1.948-0.2558-0.2562-0.6047-0.3984-0.9664-0.4011v-0.00382z" fill="url(#a)" stop-color="#000000" stroke-linecap="round" stroke-linejoin="round"/>
</svg>
