<svg version="1.1" viewBox="0 0 22 22" xmlns="http://www.w3.org/2000/svg">
 <g transform="translate(0) scale(1) translate(0) scale(1) translate(0) scale(1)" fill="#00a2ff" stroke-width="1.515">
  <path d="m0.97 11v9.644h19.95v-9.644z" opacity=".3"/>
  <path d="M3.548 0A3.55 3.55 0 0 0 0 3.548v14.898a3.55 3.55 0 0 0 3.548 3.548h14.898a3.55 3.55 0 0 0 3.548-3.548V3.548A3.55 3.55 0 0 0 18.446 0zm.12 1.355h14.66a2.315 2.315 0 0 1 2.313 2.314v14.658a2.315 2.315 0 0 1-2.314 2.314H3.67a2.315 2.315 0 0 1-2.314-2.314V3.67A2.315 2.315 0 0 1 3.67 1.355"/>
 </g>
</svg>
