<svg version="1.1" viewBox="0 0 22 22" xmlns="http://www.w3.org/2000/svg">
 <defs>
  <linearGradient id="a" y1="1">
   <stop stop-color="#0f9" offset="0"/>
   <stop stop-color="#14dc57" offset="1"/>
  </linearGradient>
 </defs>
 <path transform="translate(0 4e-6) scale(1) translate(-.01005 .01144) scale(.9996) translate(-.991 -1.001) scale(1)" d="m11.99 1.002a9.787 9.787 0 0 0-0.998 19.52v1.477a1 1 0 0 0 1.238 0.9707 12.54 12.54 0 0 0 9.467-10.98 9.734 9.734 0 0 0-9.705-11zm0.3613 2.008a7.787 7.787 0 0 1 7.426 7.779 8 8 0 0 1-0.07031 0.9922 10.55 10.55 0 0 1-6.717 8.861v-1.066a1 1 0 0 0-1-1 7.787 7.787 0 1 1 0.3613-15.57zm-3.359 4.68a2 2 0 0 0 0 4h0.01562v0.5a0.5 0.5 0 0 1-0.5 0.5 1 1 0 0 0 0 2 2.5 2.5 0 0 0 2.5-2.5v-2.5a1 1 0 0 0-0.03125-0.1504 1.994 1.994 0 0 0-1.984-1.85zm6 0a2 2 0 0 0 0 4h0.01563v0.5a0.5 0.5 0 0 1-0.5 0.5 1 1 0 0 0 0 2 2.5 2.5 0 0 0 2.5-2.5v-2.5a1 1 0 0 0-0.03126-0.1504 1.994 1.994 0 0 0-1.984-1.85z" fill="url(#a)"/>
</svg>
