<svg version="1.1" viewBox="0 0 22 22" xmlns="http://www.w3.org/2000/svg">
 <defs>
  <linearGradient id="a" x1="8.993" x2="6.709" y1="9.272" y2="6.988" gradientTransform="matrix(1.825 0 0 1.811 -3.54 -3.545)" gradientUnits="userSpaceOnUse">
   <stop stop-color="#ff6900" offset="0"/>
   <stop stop-color="#f1fa00" offset="1"/>
  </linearGradient>
  <linearGradient id="c" x1="1" x2="0" y1="1">
   <stop stop-color="#01ff4d" offset="0"/>
   <stop stop-color="#2fff00" offset="1"/>
  </linearGradient>
  <linearGradient id="b" y1="1">
   <stop stop-color="#fe0f7c" offset="0"/>
   <stop stop-color="#df0066" offset="1"/>
  </linearGradient>
 </defs>
 <path transform="translate(-1e-5) scale(1) translate(.001211 -.001174) scale(.9998) matrix(1.8 0 0 1.8 -3.398 -3.399)" d="m9.56 1.889c-0.3193 0.00422-0.6278 0.08484-0.9297 0.2461-0.483 0.258-0.8284 0.6549-0.9844 1.172v0.0332l-0.01562 0.1211-0.07031-0.1211-0.1719-0.3106c-0.276-0.43-0.6198-0.6876-1.051-0.8086h-0.00195c-0.379-0.086-0.6906-0.05191-1.018 0.1211-0.362 0.224-0.5702 0.5678-0.6562 1.051-0.086 0.5 7.656e-4 0.9828 0.2598 1.465l0.1211 0.1719-0.4141-0.1367c-0.517-0.121-0.9994-0.05197-1.482 0.207-0.5 0.259-0.8106 0.6211-1.018 1.121-0.19 0.483-0.1726 0.9479 0.06836 1.379 0.103 0.19 0.2595 0.3443 0.3965 0.4473 0.207 0.207 0.4654 0.3279 0.7754 0.3789l0.1211 0.03516-0.2578 0.2227c-0.241 0.207-0.3788 0.4656-0.4648 0.7246-0.086 0.31-0.05191 0.6211 0.1211 0.9141 0.086 0.138 0.1706 0.2587 0.3086 0.3457 0.138 0.121 0.3106 0.2057 0.5176 0.2227 0.379 0.086 0.776 0.08722 1.207-0.05078l-0.3106 0.5156-0.08594 0.2246c-0.172 0.552-0.1203 1.033 0.1387 1.533 0.121 0.19 0.2585 0.3626 0.3965 0.5176 0.207 0.19 0.4663 0.3095 0.7773 0.3965 0.517 0.138 1.033 0.1223 1.533-0.1367 0.483-0.259 0.7923-0.6734 0.9473-1.191l0.01758-0.1016c0.327 0.362 0.6374 0.6034 0.9824 0.6894 0.345 0.103 0.69 0.08591 1-0.1211 0.293-0.172 0.5005-0.4652 0.6035-0.8262 0.086-0.379 0.086-0.7594 0-1.19 0.172 0.121 0.3457 0.2068 0.5527 0.2578 0.552 0.172 1.033 0.1545 1.516-0.1035 0.466-0.258 0.7766-0.672 0.9316-1.207 0.138-0.517 0.1037-1.017-0.1543-1.5l-0.08594-0.1367c-0.138-0.207-0.2774-0.4147-0.4844-0.5527-0.172-0.121-0.3784-0.207-0.5684-0.293 0.535-0.259 0.9139-0.6209 1.086-1.086 0.121-0.379 0.08606-0.69-0.08594-1v-0.03516c-0.207-0.345-0.4831-0.5684-0.9141-0.6894-0.259-0.052-0.5526-0.0512-0.8106-0.0332l-0.5684 0.1211 0.1894-0.4316c0.172-0.552 0.1211-1.086-0.1719-1.586l-0.05078-0.08594c-0.259-0.431-0.6392-0.6892-1.156-0.8262-0.2002-0.05175-0.3944-0.07675-0.5859-0.07422zm0.02148 0.7246c0.125 0.0025 0.25 0.02689 0.373 0.07227 0.362 0.086 0.6204 0.2754 0.7754 0.5684 0.086 0.172 0.1387 0.3795 0.1387 0.6035l-0.05274 0.3789c-0.069 0.19-0.1538 0.3626-0.2578 0.5176l-1.553 1.896c-0.155-0.121-0.328-0.207-0.5-0.293l-0.1719-1.949-0.01758-0.6894 0.01758-0.1719c0.086-0.345 0.3277-0.6024 0.6387-0.7754 0.1938-0.1075 0.401-0.1624 0.6094-0.1582zm-3.664 0.2812c0.069-0.00213 0.1424 0.01433 0.2109 0.04883 0.31 0.086 0.5684 0.3112 0.7754 0.7422 0.086 0.172 0.172 0.3438 0.207 0.5508l0.3438 2.035-0.2578 0.08594-1.535-1.672-0.08594-0.1719c-0.138-0.311-0.2225-0.6041-0.1875-0.9141h-0.00195c0.017-0.31 0.1387-0.5177 0.3457-0.6387 0.0515-0.043 0.1166-0.06428 0.1856-0.06641zm6.238 2.592c0.07605-5.625e-4 0.1527 0.00322 0.2305 0.01172 0.293 0.034 0.5005 0.1719 0.6035 0.3789l0.06836 0.2246-0.0332 0.1719c-0.121 0.31-0.3796 0.5512-0.8106 0.7402-0.172 0.086-0.3614 0.1222-0.5684 0.1562l-2.121 0.2578-0.0332-0.1211-0.03516-0.05078 0.07031-0.08594 1.74-1.449 0.2051-0.08398c0.2325-0.1035 0.4554-0.1487 0.6836-0.1504zm-8.074 0.09375c0.1208-0.00546 0.2444 0.00716 0.373 0.03906h0.00195l0.4648 0.1894 1.518 1.104c-0.138 0.172-0.2253 0.3456-0.2773 0.5176l-2.48 0.3086-0.1719-0.0332c-0.31-0.052-0.5182-0.1893-0.6562-0.4473-0.138-0.259-0.1372-0.5183-0.0332-0.7773 0.121-0.328 0.3449-0.5847 0.6719-0.7227 0.1938-0.1081 0.3876-0.1686 0.5898-0.1777zm3.805 1.385c0.31 0 0.603 0.1196 0.793 0.3086 0.241 0.241 0.3457 0.5006 0.3457 0.8106s-0.1037 0.6036-0.3457 0.8106c-0.224 0.224-0.483 0.3438-0.793 0.3438-0.328 0-0.6046-0.1198-0.8106-0.3438-0.224-0.207-0.3438-0.5006-0.3438-0.8106s0.1198-0.5696 0.3438-0.8106c0.207-0.19 0.4836-0.3086 0.8106-0.3086zm4.328 1.328 0.1719 0.01562c0.259 0.086 0.5007 0.241 0.6387 0.5 0.172 0.19 0.2578 0.4492 0.2578 0.7422l-0.05273 0.3438c-0.086 0.345-0.2929 0.6052-0.5859 0.7422-0.31 0.172-0.6208 0.2069-0.9648 0.08594-0.207-0.052-0.3438-0.1393-0.4648-0.2773l-1.811-1.5 0.1211-0.2578 0.05078-0.207 1.949-0.1719zm-6.121 0.1367 0.1211 0.3438 0.05273 0.1211c-0.259 0.224-0.4492 0.4311-0.6562 0.6211l-0.5156 0.4316-0.1387 0.08594c-0.328 0.155-0.6035 0.2069-0.8965 0.1719-0.259-0.017-0.4648-0.1028-0.5508-0.2578l-0.05273-0.1894 0.0332-0.1562c0.086-0.259 0.31-0.517 0.707-0.707 0.207-0.086 0.3796-0.172 0.5176-0.207zm2.707 1.121 0.7246 0.7402 0.4473 0.5527 0.08594 0.1719c0.155 0.293 0.241 0.5685 0.207 0.8965-0.034 0.31-0.1368 0.5341-0.3438 0.6211-0.121 0.086-0.2595 0.08536-0.3965 0.06836-0.328-0.086-0.5873-0.3438-0.7773-0.7578l-0.2051-0.5703-0.2598-1.5 0.293-0.1016zm-1.861 0.03516c0.172 0.086 0.3442 0.1705 0.5332 0.1875 0.034 0.586 0.08588 1.207 0.1719 1.879v0.6914l-0.01562 0.1719c-0.121 0.31-0.3287 0.569-0.6387 0.707-0.31 0.172-0.6373 0.2071-0.9473 0.1211-0.345-0.086-0.6042-0.2943-0.7422-0.5703-0.086-0.172-0.1543-0.3789-0.1543-0.5859l0.08594-0.3945c0.034-0.172 0.1198-0.3464 0.2578-0.4844z" fill="url(#c)"/>
 <path transform="translate(-1e-5) scale(1) translate(.001211 -.001174) scale(.9998)" d="m7.593 11.75-2.507 0.4723c-0.2509 0.06363-0.5647 0.22-0.941 0.3763-0.7217 0.3454-1.129 0.8145-1.285 1.285l-0.06036 0.2805 0.09586 0.3443c0.1563 0.2818 0.5305 0.4378 1.001 0.4687 0.5327 0.06363 1.034-0.03067 1.63-0.3125l0.2522-0.1562 0.9374-0.7812c0.3763-0.3454 0.7221-0.7219 1.193-1.129l-0.09586-0.2202z" fill="url(#b)" stroke-width="1.818"/>
 <path transform="translate(-1e-5) scale(1) translate(.001211 -.001174) scale(.9998)" d="m10.81 9.11c-0.5945 0-1.097 0.2193-1.474 0.5647-0.4072 0.4381-0.6285 0.9065-0.6285 1.47s0.2213 1.097 0.6285 1.474c0.3745 0.4072 0.8774 0.6285 1.474 0.6285 0.5636 0 1.034-0.2213 1.442-0.6285 0.44-0.3763 0.625-0.9101 0.625-1.474s-0.1869-1.032-0.625-1.47c-0.3454-0.3436-0.8781-0.5647-1.442-0.5647z" fill="url(#a)" stroke-width="1.818"/>
</svg>
