<svg version="1.1" viewBox="0 0 22 22" xmlns="http://www.w3.org/2000/svg">
 <defs>
  <style>.ColorScheme-Text {
       color:#f2f2f2;
     }</style>
  <linearGradient id="a" x1="1" x2="0" y2="1">
   <stop stop-color="#007dff" offset="0"/>
   <stop stop-color="#00ff63" offset="1"/>
  </linearGradient>
 </defs>
 <path transform="translate(0 -.000497) scale(1) translate(-.00467 -.00168) scale(.9998) matrix(1.373 0 0 1.373 -4.099 -4.1)" d="m16.16 13.31c-0.04524-1.94e-4 -0.09019 0.0016-0.1348 0.0059-0.3566 0.03423-0.6888 0.2126-0.9297 0.5547-0.4815 0.6839-3.847 4.907-9.363 3.154 0.2078 0.181 0.4283 0.3536 0.6582 0.5156 3.618 2.548 8.614 1.679 11.16-1.94 0.482-0.6844 0.229-1.493-0.4492-1.971-0.2969-0.209-0.6267-0.319-0.9434-0.3203z" fill="url(#a)"/>
 <path transform="translate(0 -.000497) scale(1) translate(-.00467 -.00168) scale(.9998) matrix(1.373 0 0 1.373 -4.099 -4.1)" d="m11 7.918c-1.163 0-1.883 0.8767-1.93 1.98-0.03101 0.06132-0.04883 0.1316-0.04883 0.207 0 0.0096 0.0016 0.01972 0.00195 0.0293-0.07717 0.1235-0.123 0.2734-0.123 0.4375 0 0.02752 0.00147 0.05503 0.00391 0.08203-0.1857 0.06916-0.4314 0.3825-0.6113 0.8066-0.2296 0.5404-0.2663 1.056-0.08203 1.152 0.127 0.06637 0.3253-0.084 0.5117-0.3613 0.07386 0.3024 0.2566 0.5752 0.5176 0.7949-0.2738 0.101-0.4531 0.2662-0.4531 0.4531 0 0.3076 0.4849 0.5566 1.082 0.5566 0.5386 0 0.984-0.2033 1.066-0.4688 0.02212-3.49e-4 0.1075-3.49e-4 0.1289 0 0.08275 0.2653 0.5281 0.4688 1.066 0.4688 0.5972 0 1.082-0.2492 1.082-0.5566 0-0.1867-0.1791-0.3521-0.4531-0.4531 0.2606-0.2198 0.4441-0.4925 0.5176-0.7949 0.1864 0.2773 0.3846 0.4277 0.5117 0.3613 0.1845-0.09599 0.1481-0.6121-0.08203-1.152-0.1803-0.4244-0.4244-0.7375-0.6113-0.8066 0.0028-0.02683 0.0039-0.05451 0.0039-0.08203 0-0.1639-0.04518-0.314-0.123-0.4375 0.0014-0.0096 0-0.01972 0-0.0293 0-0.0756-0.01639-0.1459-0.04687-0.207-0.04721-1.104-0.7667-1.98-1.93-1.98z" fill="url(#a)"/>
 <path transform="translate(0 -.000497) scale(1) translate(-.00467 -.00168) scale(.9998) matrix(1.373 0 0 1.373 -4.099 -4.1)" d="m8.41 3.404c-0.2606 0.08954-0.5182 0.1921-0.7734 0.3106-4.015 1.86-5.764 6.623-3.904 10.64 0.3515 0.759 1.178 0.9445 1.932 0.5957 0.7526-0.3488 1.146-1.098 0.7949-1.857-0.3515-0.7592-2.325-5.787 1.951-9.688z" fill="url(#a)"/>
 <path transform="translate(0 -.000497) scale(1) translate(-.00467 -.00168) scale(.9998) matrix(1.373 0 0 1.373 -4.099 -4.1)" d="m11.57 3c-0.7497 0.00979-1.26 0.6059-1.33 1.381-0.07421 0.8268 0.3797 1.544 1.213 1.619 0.8329 0.07526 6.173 0.8795 7.412 6.533 0.05313-0.2705 0.09193-0.5475 0.1172-0.8281 0.3974-4.408-2.853-8.302-7.26-8.699-0.05205-0.00468-0.1024-0.00651-0.1523-0.00586z" fill="url(#a)"/>
</svg>
