<svg xmlns="http://www.w3.org/2000/svg" viewBox="0 0 22 22"><defs><linearGradient id="a" x1="1" x2="0" y1="1"><stop offset="0" stop-color="#00ffdc"/><stop offset="1" stop-color="#00ff29"/></linearGradient></defs><path fill="url(#a)" d="M8.441 2.534q.04-.003.081-.003h2a1.001 1.001 0 0 1 0 2h-.014l-.081.003h-2a1 1 0 0 1 0-2zm.069 16.928h-.152a1 1 0 0 1 0-2h2q.041 0 .081.004h.151a1 1 0 0 1 0 2h-2a1 1 0 0 1-.08-.004M18.522 2.531h1.055a.897.897 0 0 1 .897.898v1.149a1 1 0 0 1-2 0V4.53a1 1 0 0 1 .048-1.999m-.041 14.931a1 1 0 0 1 1.993.116v.987a.897.897 0 0 1-.897.897h-1.219a1.001 1.001 0 0 1 0-2zM13.522 4.531a1 1 0 0 1 0-2h2a1.001 1.001 0 0 1 0 2zm4.952 3.047a1 1 0 0 1 2 0v2a1 1 0 0 1-2 0zm0 5a1 1 0 0 1 2 0v2a1 1 0 0 1-2 0zm-3.116 4.884a1.001 1.001 0 0 1 0 2h-2a1.001 1.001 0 0 1 0-2zM.427 2.534a1 1 0 0 1 .047 1.999v.049a1.001 1.001 0 0 1-2 0v-1.15a.9.9 0 0 1 .898-.898zm.041 14.932H.59a1 1 0 0 1 0 2H-.628a.9.9 0 0 1-.898-.898v-.986a1 1 0 0 1 1.994-.116M5.427 4.534h-2a1 1 0 0 1 0-2h2a1 1 0 0 1 0 2M.474 7.582v2a1 1 0 0 1-2 0v-2a1 1 0 0 1 2 0m0 5v2a1.001 1.001 0 0 1-2 0v-2a1 1 0 0 1 2 0m3.116 4.884h2a1 1 0 0 1 0 2h-2a1 1 0 0 1 0-2" transform="translate(1.526 .001)scale(.9999)"/></svg>