<svg xmlns="http://www.w3.org/2000/svg" viewBox="0 0 22 22"><defs><linearGradient id="a" x2="0" y1="1"><stop offset="0" stop-color="#c0f"/><stop offset="1" stop-color="#4b9eff"/></linearGradient><linearGradient id="c" x2="0" y2="1"><stop offset="0" stop-color="#d300dc"/><stop offset="1" stop-color="#8219ff"/></linearGradient></defs><path fill="url(#a)" d="M31.99-.002c-2.111.001-4.22.566-6.096 1.687h-.006l-4.346 2.596c-12.07 7.211-16.16 22.76-9.215 34.94v.011l.006.006.057.284v.006c-.014.019-.032.038-.046.057l.063.045 1.812 9.63.006.022v.005c.113.643.245 1.278.392 1.914l.01.052a16.84 16.84 0 0 0 15.33 12.69h.007c.541.037 1.064.04 2.028.04s1.487-.003 2.028-.04h.005a16.84 16.84 0 0 0 15.33-12.69c.13-.512.225-1.02.404-1.966l1.818-9.663.05-.04q-.016-.023-.033-.046l.05-.284-.005.006-.017.023q.012-.022.023-.046h.006v-.017c6.949-12.18 2.856-27.74-9.215-34.94L38.09 1.678a11.9 11.9 0 0 0-6.101-1.687zm2.238 5.079c.527.17 1.091.146 1.579.437l4.352 2.602c9.694 5.793 13.16 17.93 8.186 27.87a24.4 24.4 0 0 0-14.12-6.13v-4.624a5 5 0 0 0 1.244-.34 5.2 5.2 0 0 0 2.818-2.806v-.006c.48-1.162.398-2.095.398-3.482V15.62c0-1.384.082-2.318-.404-3.482a5.2 5.2 0 0 0-2.806-2.818h-.005a5 5 0 0 0-1.244-.335zm-4.465.006v3.903c-.412.056-.82.156-1.261.34a5.2 5.2 0 0 0-2.812 2.807v.011c-.48 1.162-.398 2.09-.398 3.477v2.977c0 1.387-.085 2.321.404 3.488a5.2 5.2 0 0 0 2.806 2.812h.005c.44.181.846.286 1.255.34v4.62a24.4 24.4 0 0 0-14.12 6.118c-4.975-9.933-1.504-22.06 8.186-27.86h.006l4.34-2.602c.489-.292 1.057-.262 1.585-.432zm2.227 8.31c1.372 0 1.833.083 1.778.058a.75.75 0 0 1 .398.397v.006c-.03-.071.057.385.057 1.772v2.977c0 1.372-.082 1.834-.057 1.778a.75.75 0 0 1-.404.392h-.005c.069-.029-.35.05-1.62.057h-.283c-1.266-.006-1.695-.081-1.642-.057a.76.76 0 0 1-.398-.403c.03.071-.057-.386-.057-1.772V15.62c0-1.372.082-1.834.057-1.778a.75.75 0 0 1 .403-.392h.006c-.072.03.38-.057 1.767-.057m-.017 20.83h.028a19.89 19.89 0 0 1 14.83 6.54l-1.449 7.703c-.178.946-.261 1.383-.34 1.699a12.36 12.36 0 0 1-11.29 9.334h-.029c-.308.021-.754.028-1.72.028s-1.409-.007-1.717-.028h-.034a12.36 12.36 0 0 1-11.29-9.334l.006.05a34 34 0 0 1-.347-1.72v-.023l-1.454-7.726a19.88 19.88 0 0 1 14.81-6.522z" transform="translate(.002)scale(.3438)"/><path fill="url(#c)" d="M29.76 5.083v3.903c-.412.056-.82.156-1.261.34a5.2 5.2 0 0 0-2.812 2.807v.011c-.48 1.162-.398 2.09-.398 3.477v2.977c0 1.387-.085 2.321.404 3.488a5.2 5.2 0 0 0 2.806 2.812h.005c.44.182.846.286 1.255.341v4.62a24.4 24.4 0 0 0-14.12 6.117c-4.975-9.933-1.504-22.06 8.186-27.86h.006l4.34-2.602c.489-.291 1.057-.261 1.585-.432z" transform="translate(.002)scale(.3438)"/></svg>