<svg xmlns="http://www.w3.org/2000/svg" viewBox="0 0 22 22"><defs><linearGradient id="a" x2="0%" y2="100%"><stop offset="0" stop-color="#0abdc6"/><stop offset="1" stop-color="#b800ff"/></linearGradient><style>.ColorScheme-Text{color:#0abdc6}</style></defs><g fill="url(#a)" transform="translate(.002)scale(1.3748)"><path stroke-width="1.143" d="M0 0v16h8.041A.04.04 0 0 1 8 15.959v-2.244H6.857v-2.287H4.572v2.287H2.285v-2.287h2.287V9.143H2.285V6.858h2.287V4.573H2.285V2.286h2.287v2.287h2.285V2.286h2.285v2.287h2.285V2.286h2.287v2.287h-2.287v2.285h2.287v1.143h2.244a.04.04 0 0 1 .041.041V.001h-16zm9.143 4.572V8h2.285zm-2.285 0L4.573 8l2.285 3.428zm9.143 11.39a.04.04 0 0 1-.041.041h.041z" class="ColorScheme-Text"/><path stroke-width=".521" d="M12.87 8.178c-.576 0-1.043.467-1.043 1.043h-1.564c-.521 0-.521.522-.521.522v5.735c0 .522.521.522.521.522h5.215S16 16 16 15.479V9.743c0-.522-.522-.522-.522-.522h-1.564a1 1 0 0 0-.016-.212 1.05 1.05 0 0 0-1.027-.831zm0 .522c.216 0 .393.138.473.325a.5.5 0 0 1 .048.196.522.522 0 1 1-.521-.521m-2.086 1.564h.521v.521h3.13v-.521h.521v4.694h-4.172z" class="ColorScheme-Text"/></g></svg>