<svg xmlns="http://www.w3.org/2000/svg" viewBox="0 0 22 22"><defs><linearGradient id="b" y2="1"><stop offset="0" stop-color="#fda700"/><stop offset="1" stop-color="#ffde00"/></linearGradient><linearGradient id="a" x2="0" y2="1"><stop offset="0" stop-color="#fe3661"/><stop offset=".331" stop-color="#c723c7"/><stop offset=".55" stop-color="#aa35d6"/><stop offset="1" stop-color="#1ea3fd"/></linearGradient></defs><path fill="url(#a)" d="M16.5 10.33c-.77 0-1.54.292-2.121.873l-9.086 9.086a1 1 0 0 0 0 1.414 1 1 0 0 0 1.414 0l9.086-9.086a.985.985 0 0 1 1.414 0l3.086 3.086a1 1 0 0 0 1.414 0 1 1 0 0 0 0-1.414l-3.086-3.086a3 3 0 0 0-2.121-.873" transform="translate(-2.095 -1.047)scale(1.048)"/><path fill="#0f0" d="M17.809 0a1.05 1.05 0 0 0-1.047 1.049v2.095h-2.095a1.05 1.05 0 0 0-1.048 1.047 1.05 1.05 0 0 0 1.048 1.048h2.095v2.095a1.05 1.05 0 0 0 1.047 1.049 1.05 1.05 0 0 0 1.049-1.049V5.24h2.095A1.05 1.05 0 0 0 22 4.191a1.05 1.05 0 0 0-1.048-1.047h-2.095V1.05A1.05 1.05 0 0 0 17.808 0"/><path fill="url(#a)" d="M5 2C3.355 2 2 3.355 2 5v14c0 1.645 1.355 3 3 3h14c1.645 0 3-1.355 3-3v-7.5a1 1 0 0 0-1-1 1 1 0 0 0-1 1V19c0 .564-.436 1-1 1H5c-.564 0-1-.436-1-1V5c0-.564.436-1 1-1h7.5a1 1 0 0 0 1-1 1 1 0 0 0-1-1z" transform="translate(-2.095 -1.047)scale(1.048)"/><path fill="url(#b)" d="M9 6C7.355 6 6 7.355 6 9s1.355 3 3 3 3-1.355 3-3-1.355-3-3-3m0 2c.564 0 1 .436 1 1s-.436 1-1 1-1-.436-1-1 .436-1 1-1" transform="translate(-2.095 -1.047)scale(1.048)"/></svg>