<svg xmlns="http://www.w3.org/2000/svg" viewBox="0 0 22 22"><defs><linearGradient id="a" x2="0" y2="1"><stop offset="0" stop-color="#36c5f0"/><stop offset="1" stop-color="#cf00ff"/></linearGradient></defs><path fill="url(#a)" d="M188.5-238.5v-256c0-11.17 4.06-20.79 12.18-28.88 8.113-8.08 18.11-12.12 30-12.12 11.88 0 21.65 4.04 29.32 12.12 7.667 8.09 11.5 17.71 11.5 28.88v257q0 17.745-11.68 29.37c-7.78 7.75-17.61 11.63-29.5 11.63-11.88 0-21.82-4.04-29.82-12.13-8-8.08-12-18.04-12-29.87m254 1v-257c0-11.17 4.06-20.79 12.18-28.88q12.17-12.12 29-12.12c11.21 0 20.82 4.04 28.82 12.12 8 8.09 12 17.71 12 28.88v257c0 11.17-4.06 20.79-12.18 28.87-8.113 8.09-17.78 12.13-29 12.13-11.21 0-20.82-4.04-28.82-12.13-8-8.08-12-17.7-12-28.87m-341 172c-13.17 0-24.29-4.56-33.37-13.68Q54.5-92.85 54.5-112.68c0-13.21 4.543-24.32 13.63-33.32 9.08-9 20.2-13.5 33.37-13.5h756c13.17 0 24.46 4.56 33.88 13.68 9.413 9.11 14.12 20.28 14.12 33.5 0 13.21-4.707 24.32-14.12 33.32-9.42 9-20.71 13.5-33.88 13.5zm586-173v-256c0-11.17 4.06-20.79 12.18-28.88 8.113-8.08 18.11-12.12 30-12.12 11.88 0 21.65 4.04 29.32 12.12 7.667 8.09 11.5 17.71 11.5 28.88v257q0 17.745-11.68 29.37c-7.78 7.75-17.61 11.63-29.5 11.63-11.88 0-21.82-4.04-29.82-12.13-8-8.08-12-18.04-12-29.87m171-334h-763c-11.72 0-21.48-4.07-29.29-12.21S54.5-602.45 54.5-613.5v-29q0-10.995 5.5-21c5.5-10.005 8.833-12 15.5-16l359-204c13.45-7.33 28.45-11 45-11s31.55 3.67 45 11l356 202c7.333 4.67 13.33 10.67 18 18s7 15.5 7 24.5v18.23c0 13.73-4.49 25.2-13.47 34.43-8.987 9.23-20.16 13.84-33.53 13.84m-606-95h454zm0 0h454l-227-132z" transform="translate(-1.409 23.405)scale(.02585)"/></svg>