<svg version="1.1" viewBox="0 0 22 22" xmlns="http://www.w3.org/2000/svg">
 <defs>
  <linearGradient id="a" y1="1">
   <stop stop-color="#f00" offset="0"/>
   <stop stop-color="#ff0086" offset="1"/>
  </linearGradient>
 </defs>
 <path transform="translate(0) scale(1) translate(0) scale(1) translate(0) scale(1) translate(0) scale(1) translate(0) scale(1) translate(-.000612) scale(1) translate(-9e-4) scale(.9998)" d="m6.354 0c-3.394 0-6.164 2.771-6.164 6.164v9.672c0 3.394 2.771 6.168 6.164 6.168h9.299c3.394 0 6.164-2.773 6.164-6.168v-9.672c0-3.394-2.771-6.164-6.164-6.164zm0 1.914h9.299c2.359 0 4.25 1.891 4.25 4.25v9.672c0 2.359-1.892 4.248-4.25 4.248h-9.299c-2.359 0-4.25-1.89-4.25-4.248v-9.672c0-2.359 1.893-4.25 4.25-4.25z" fill="url(#a)"/>
 <path transform="translate(0) scale(1) translate(0) scale(1) translate(0) scale(1) translate(0) scale(1) translate(0) scale(1) translate(-.000612) scale(1) translate(-9e-4) scale(.9998)" d="m12.09 3.67v0.0039c-0.03644 0-0.07396 0.00141-0.1113 0.00586-0.777 0.01534-1.571-0.03893-2.373 0.00977l-0.1523 0.00977-0.00586 0.04883c-0.1867 0.06669-0.3415 0.1815-0.4394 0.3242-0.124 0.1814-0.1933 0.3829-0.25 0.5469-0.08671 0.2387-0.1014 0.4774-0.1348 0.6816-0.03201 0.2014-0.08189 0.3606-0.1973 0.4902-0.2494 0.1941-0.5507 0.3504-0.8516 0.5312a42.01 42.01 0 0 1-1.232-0.4434h-0.00195c-0.4789-0.1721-1.027-0.006056-1.311 0.4062v0.00195c-0.3668 0.5377-0.6831 1.094-1.023 1.627h-0.00195v0.00195c-0.1761 0.2854-0.4217 0.678-0.2715 1.113 0.1214 0.3909 0.3997 0.6527 0.6758 0.8789 0.2628 0.2174 0.5174 0.4126 0.6914 0.6367 0.02934 0.2508 0.00321 0.5297 0.00391 0.8281-0.3469 0.3596-0.8159 0.6471-1.193 1.076l-0.00586 0.0059c-0.1787 0.2247-0.215 0.4937-0.1816 0.7344 0.03334 0.2401 0.13 0.4632 0.2227 0.6523l0.00391 0.0059c0.3068 0.5621 0.6264 1.118 0.9668 1.664 0.2534 0.4442 0.8026 0.6517 1.301 0.5352 0.4782-0.1167 0.9194-0.2978 1.357-0.4531 0.3108 0.1614 0.6144 0.3451 0.918 0.5332 0.1327 0.547 0.2189 1.123 0.4375 1.688l0.00195 2e-3c0.1147 0.2801 0.3751 0.3832 0.5137 0.4805l0.05078 0.03711 0.0625-2e-3c0.8722-0.02401 1.76 0.02286 2.652-0.0059h0.01758l0.01758-0.0039c0.46-0.1054 0.7602-0.4276 0.9238-0.791 0.1601-0.3555 0.205-0.7525 0.207-1.098 0.03534-0.2994-0.1429-0.556-0.375-0.6914-0.2308-0.1347-0.5388-0.1678-0.7949-0.01172-0.2467 0.1387-0.3568 0.3784-0.4043 0.5957-0.03603 0.1634-0.04774 0.3014-0.06641 0.4336-0.4954 0-0.9898 0.0033-1.482 0a18 18 0 0 0-0.2559-1.108l-0.00195-0.0039v-2e-3c-0.1434-0.4847-0.5587-0.7934-0.9609-0.998-0.3248-0.1727-0.6542-0.4434-1.098-0.5527h-0.00781c-0.7027-0.1387-1.28 0.2192-1.81 0.3965-0.2441-0.4428-0.5039-0.8726-0.7422-1.303 0.3354-0.2734 0.7155-0.5353 1.016-0.9062 0.3727-0.4469 0.2742-1.007 0.2969-1.414 0.02668-0.4535-0.03031-0.9836-0.4004-1.371-0.2908-0.3021-0.6157-0.5491-0.9199-0.8066 0.2661-0.4136 0.5175-0.8298 0.7754-1.238 0.4621 0.1334 0.9556 0.4291 1.57 0.3906 0.4136-0.02001 0.7286-0.2495 1.002-0.4043l0.003906-0.001953c0.3916-0.2348 0.8829-0.4678 1.15-0.9453v-0.00195c0.2267-0.4029 0.3209-0.8407 0.3828-1.266 0.4899 0.00355 0.9753 0.00462 1.465 0.00195 0.09468 0.3727 0.1739 0.7552 0.2812 1.141l4e-3 0.01562c0.1447 0.3916 0.4426 0.6512 0.7578 0.8496 0.3151 0.1982 0.6558 0.3505 0.9277 0.5234l0.0059 0.00391 0.0078 0.00391c0.4222 0.2201 0.8525 0.1746 1.238 0.0625 0.3374-0.0987 0.646-0.231 0.9375-0.3184 0.2401 0.4335 0.4908 0.8525 0.7305 1.275-0.427 0.3768-1.04 0.713-1.252 1.391l-0.0059 0.01758-2e-3 0.01758a8.004 8.004 0 0 0-0.02539 1.486l2e-3 0.01367c0.0667 0.4181 0.3119 0.7308 0.5859 0.9883 0.2361 0.2208 0.4864 0.4054 0.7051 0.5938-0.2628 0.4236-0.5192 0.8471-0.7891 1.256-0.2614-0.11-0.5366-0.2486-0.877-0.2812h-2e-3c-0.6123-0.06003-1.059 0.6812-0.6816 1.16 0.1574 0.2127 0.3799 0.3218 0.5879 0.3984 0.2092 0.07615 0.4135 0.1273 0.5703 0.2012 0.4982 0.2487 1.188 0.1896 1.527-0.3106l2e-3 -2e-3c0.4115-0.6175 0.7893-1.252 1.17-1.879l0.0059-0.0078c0.1987-0.3001 0.2598-0.703 0.06836-1.043-0.1634-0.3421-0.4425-0.5682-0.7031-0.7734-0.2501-0.1987-0.4713-0.3846-0.6074-0.6074-4e-3 -0.2961-0.01763-0.5785 0.03906-0.8223 0.3401-0.3613 0.8542-0.6336 1.209-1.121 0.1727-0.2301 0.1861-0.5043 0.1348-0.7363-0.05148-0.232-0.1583-0.44-0.2404-0.6132l-0.0039-0.01172a28.01 28.01 0 0 0-0.9785-1.666c-0.2668-0.4476-0.8364-0.6078-1.318-0.4844-0.4689 0.112-0.8927 0.2942-1.318 0.4394-0.3168-0.1727-0.6282-0.3356-0.8926-0.5352-0.144-0.3761-0.1588-0.8296-0.3262-1.291a1.314 1.314 0 0 0-0.4356-0.6445 1.067 1.067 0 0 0-0.668-0.2461z" fill="url(#a)"/>
 <path transform="translate(0) scale(1) translate(0) scale(1) translate(0) scale(1) translate(0) scale(1) translate(0) scale(1) translate(-.000612) scale(1) translate(-9e-4) scale(.9998)" d="m11.17 7.707-0.01172 0.00586a3.301 3.301 0 0 0-3.469 3.213 3.301 3.301 0 0 0 3.328 3.373 3.272 3.272 0 0 0 3.299-3.299 3.301 3.301 0 0 0-3.146-3.293zm-0.1562 1.523h0.0098a1.725 1.725 0 0 1 1.772 1.768v0.01367a1.725 1.725 0 0 1-1.772 1.768h-0.0098a1.725 1.725 0 0 1-1.768-1.768v-0.01367a1.725 1.725 0 0 1 1.768-1.768z" fill="url(#a)"/>
</svg>
