<svg version="1.1" viewBox="0 0 22 22" xmlns="http://www.w3.org/2000/svg">
 <defs>
  <linearGradient id="a" y1="1">
   <stop stop-color="#a08" offset="0"/>
   <stop stop-color="#f00" offset="1"/>
  </linearGradient>
 </defs>
 <path transform="translate(.01831 -3.8e-5) scale(.9997) translate(-9.631 .001514) scale(1.875)" d="m14.69 0.003906a2.046 2.046 0 0 0-1.295 0.5703l-2.41 2.41-2.412-2.408a2.046 2.046 0 0 0-2.893 2.891l2.412 2.408-2.412 2.418a2.046 2.046 0 0 0 2.893 2.889l2.408-2.41 2.418 2.41a2.046 2.046 0 0 0 2.891-2.893l-2.412-2.41 2.412-2.412a2.046 2.046 0 0 0-1.6-3.463z" fill="url(#a)"/>
</svg>
