<svg xmlns="http://www.w3.org/2000/svg" viewBox="0 0 22 22"><path fill="#0ff" d="M4.273 6.61q-.982-.363-1.588-1.216c-.606-.853-.607-1.223-.607-1.96v-.026q0-1.041.536-1.854.19-.29.447-.553.983-1 2.414-1.001h.014c.954 0 1.765.336 2.431.997q1 .992 1 2.41v.027q0 1.12-.633 1.967-.631.847-1.588 1.208v.207A3.06 3.06 0 0 0 7.71 8.943q.415.386.893.6.582.242 1.272.242h2.25q2.284.01 3.899 1.555 1.623 1.556 1.675 3.816v.185l.026.048a3.3 3.3 0 0 1 1.588 1.218 3.3 3.3 0 0 1 .606 1.983 3.3 3.3 0 0 1-.506 1.808 3.6 3.6 0 0 1-.477.603q-.983.998-2.413.997h-.015q-1.431 0-2.431-.994c-1-.994-1-1.468-1-2.414v-.026q0-1.116.633-1.967.631-.845 1.588-1.208v-.211a3.06 3.06 0 0 0-1.011-2.123 3.3 3.3 0 0 0-.894-.6 3.3 3.3 0 0 0-1.27-.242H9.876q-.69.001-1.271.242-.48.218-.894.6a3.07 3.07 0 0 0-1.01 2.127H6.7v.206a3.5 3.5 0 0 1 1.588 1.209q.633.852.633 1.967l-.001.026c0 .95-.333 1.75-1 2.416q-.998.991-2.43.992h-.015q-1.43.001-2.414-.997a3.313 3.313 0 0 1-.983-2.442 3.3 3.3 0 0 1 .608-1.952 3.3 3.3 0 0 1 1.587-1.219l.026-.046v-.186c.034-1.502.593-2.778 1.675-3.816q.189-.18.387-.34a6 6 0 0 1-.387-.341Q4.35 9.103 4.3 6.843v-.185zm12.263 13.115q.493 0 .814-.343.315-.337.32-.808v-.011q0-.487-.342-.827-.344-.334-.829-.335c-.485-.001-.596.119-.819.346q-.333.339-.333.826 0 .377.205.675.058.075.13.14.36.336.854.336zM5.494 4.595q.485 0 .819-.342c.334-.342.334-.504.334-.827q0-.387-.214-.687a1.221 1.221 0 0 0-.975-.467q-.493-.001-.814.346-.32.34-.321.824.003.485.343.818.342.335.828.335zM6.31 19.39a1 1 0 0 0 .13-.14q.206-.295.206-.676 0-.486-.333-.826-.334-.344-.82-.346c-.485-.002-.599.114-.828.335a1.12 1.12 0 0 0-.342.827v.01q.005.472.32.81.322.342.814.341c.492 0 .613-.108.853-.335"/></svg>