<svg xmlns="http://www.w3.org/2000/svg" viewBox="0 0 22 22"><defs><linearGradient id="a" y1=".5" y2=".5"><stop offset="0" stop-color="#05f"/><stop offset="1" stop-color="#00ffd8"/></linearGradient></defs><path fill="#0f0" d="M17.756 13.489c-.36 0-.657.123-.888.38a1.27 1.27 0 0 0-.347.898v1.717h-1.754q-.508 0-.876.373a1.25 1.25 0 0 0-.366.899c0 .343.122.642.366.883q.367.364.876.366h1.754v1.717q0 .526.353.9.353.381.895.38.541.001.907-.38a1.24 1.24 0 0 0 .366-.9v-1.717h1.717q.507 0 .875-.373.368-.361.368-.876 0-.525-.368-.9a1.19 1.19 0 0 0-.875-.372h-1.717v-1.717q0-.526-.38-.899a1.23 1.23 0 0 0-.906-.38"/><path fill="url(#a)" d="M360-658.5c-11.92.655-25.55 6.154-34.38 13.83-7.834 8.786-14.14 22.47-14.14 34.49 0 12 6.245 25.71 14.02 34.57 8.83 7.835 22.51 13.46 34.49 14.14h71.48v211.5c.655 11.92 6.154 25.55 13.83 34.38 8.786 7.834 22.47 14.14 34.49 14.14 12 0 25.71-6.245 34.57-14.02 7.835-8.83 13.46-22.51 14.14-34.49v-211.5h71.48c11.92-.654 25.55-6.155 34.38-13.83 7.827-8.787 14.14-22.48 14.14-34.49 0-12-6.249-25.71-14.02-34.57-8.834-7.836-22.51-13.46-34.49-14.14z" transform="translate(-.404 22.406)scale(.02376)"/><path fill="url(#a)" d="M63.98-943c-13.17 0-24.28 4.553-33.36 13.63-9.087 9.087-13.63 20.19-13.63 33.36v153c0 13.17 4.546 24.28 13.63 33.36 9.08 9.087 20.19 13.63 33.36 13.63h32.03v432H63.98c-13.17 0-24.28 4.514-33.36 13.59-9.087 9.087-13.63 20.23-13.63 33.4v153c0 13.17 4.546 24.28 13.63 33.36 9.08 9.087 20.19 13.63 33.36 13.63h153c13.17 0 24.31-4.546 33.4-13.63 9.08-9.08 13.59-20.19 13.59-33.36v-153c0-13.17-4.514-24.31-13.59-33.4-9.087-9.08-20.23-13.59-33.4-13.59h-26.99v-432h26.99c13.17 0 24.31-4.546 33.4-13.63 9.08-9.08 13.59-20.19 13.59-33.36V-770h432v26.99c0 13.17 4.546 24.28 13.63 33.36 9.08 9.087 20.19 13.63 33.36 13.63h153c13.17 0 24.27-4.546 33.36-13.63 9.08-9.08 13.63-20.19 13.63-33.36v-153c0-13.17-4.553-24.27-13.63-33.36-9.087-9.08-20.19-13.63-33.36-13.63h-153c-13.17 0-24.28 4.553-33.36 13.63-9.087 9.087-13.63 20.19-13.63 33.36v32.03h-432v-32.03c0-13.17-4.514-24.27-13.59-33.36-9.087-9.08-20.23-13.63-33.4-13.63zm25 71.99h104v104h-104zm678 0h104v104h-104zm-678.1 678h104v104h-104z" transform="translate(-.404 22.406)scale(.02376)"/></svg>