<svg xmlns="http://www.w3.org/2000/svg" viewBox="0 0 22 22"><defs><linearGradient id="a" y2="1"><stop offset="0" stop-color="#ea8bf3"/><stop offset="1" stop-color="#826ef5"/></linearGradient></defs><path fill="url(#a)" d="M0 0v7.856c0 2.608 2.105 4.713 4.713 4.713s4.713-2.105 4.713-4.713V4.713l4.713 7.856h3.143V-.001h-3.143v7.856L9.426-.001H6.283v7.856c0 .871-.699 1.57-1.57 1.57s-1.57-.699-1.57-1.57V-.001zm18.85 0v3.143h3.143V0zm0 4.713v7.856h3.143V4.713z" transform="translate(0 .367)"/><path fill="#0f0" d="M16.02 13.927c-.296.014-.605.141-.853.381L11 18.474l-4.16-4.16a1.3 1.3 0 0 0-.923-.384c-.347 0-.68.14-.924.384a1.313 1.313 0 0 0 0 1.846l5.084 5.086a1.313 1.313 0 0 0 1.848 0l5.088-5.088.004-.002c.275-.284.399-.648.377-.982a1.34 1.34 0 0 0-.395-.85 1.34 1.34 0 0 0-.85-.394 1 1 0 0 0-.126-.002z"/></svg>