<svg xmlns="http://www.w3.org/2000/svg" viewBox="0 0 22 22"><defs><linearGradient id="a" y2="1"><stop offset="0" stop-color="#fea51d"/><stop offset="1" stop-color="#ff0a76"/></linearGradient></defs><path fill="url(#a)" d="M92.3-898.5c-26.31 0-48.71 9.431-67.23 28.28C6.56-851.37-2.7-828.8-2.7-802.49v647c0 26.03 9.26 48.2 27.77 66.52 18.51 18.31 40.92 27.5 67.23 27.5h777.4c25.56 0 47.44-9.187 65.66-27.5 18.22-18.32 27.34-40.49 27.34-66.52v-647c0-26.31-9.124-48.88-27.34-67.73-18.22-18.85-40.1-28.28-65.66-28.28zm0 96.02h90.98v91.02H92.3zm186 0h406.4v647H278.3zm499.4 0h91.99v91.02H777.7zm-685.4 185h90.98v91.99H92.3zm685.4 0h91.99v91.99H777.7zm-685.4 186h90.98v91.99H92.3zm685.4 0h91.99v91.99H777.7zm-685.4 185h90.98v90.98H92.3zm685.4 0h91.99v90.98H777.7z" transform="translate(.062 21.937)scale(.02279)"/><path fill="url(#a)" d="M381.5-669.3c-8.466-.31-16.99 1.793-25.59 6.328-17.2 9.38-25.78 24.09-25.78 44.1v281.4c0 18.46 8.585 32.51 25.78 42.23 17.2 9.37 34.12 8.436 50.82-3.164l209.5-140.7c13.54-9.4 20.31-22.81 20.31-40.04 0-17.2-6.772-30.91-20.31-41.25l-209.5-140.7c-8.348-5.165-16.77-7.893-25.23-8.203z" transform="translate(.062 21.937)scale(.02279)"/></svg>