<svg xmlns="http://www.w3.org/2000/svg" fill-rule="evenodd" stroke-linejoin="round" stroke-miterlimit="2" clip-rule="evenodd" viewBox="0 0 22 22"><defs><linearGradient id="b" x1=".5" x2="15.5" y1="7.5" y2="7.5" gradientUnits="userSpaceOnUse"><stop offset="0" stop-color="#ff0002"/><stop offset="1" stop-color="#ff0050"/></linearGradient><linearGradient id="a" x1="1.569" x2="12.8" y1="15.58" y2="0" gradientUnits="userSpaceOnUse"><stop offset="0" stop-color="#9000ff"/><stop offset="1" stop-color="#ff37ff"/></linearGradient><style>.ColorScheme-Text{color:#dfdfdf}</style></defs><path fill="url(#b)" d="M.5 7v1h1V7zm2 0v1h1V7zm2 0v1h1V7zm2 0v1h1V7zm2 0v1h1V7zm2 0v1h1V7zm2 0v1h1V7zm2 0v1h1V7z" class="ColorScheme-Text" transform="translate(-.298)scale(1.41186)"/><path fill="url(#a)" d="M5.582 8.489v4.927a2.16 2.16 0 0 1-2.156 2.162h-.598a1.56 1.56 0 0 1-1.557-1.562v-.139c0-.794.631-1.586 1.403-1.762l1.72-.39a.82.82 0 0 0 .606-.76l.003-2.476zm7.216 0v3.033a2.18 2.18 0 0 1-2.178 2.183h-.621a1.564 1.564 0 0 1-1.562-1.566v-.145c0-.788.627-1.574 1.393-1.746l1.773-.398a.82.82 0 0 0 .606-.758v-.603zM11.89.022A1 1 0 0 1 12.082 0c.408 0 .715.307.715.752v.499h.001v5.128h-.589V3.36L5.593 4.758v1.621h-.587l.004-3.254v-.928c0-.346.275-.691.611-.767zm.372.742L5.6 2.187v1.091l6.662-1.422z" class="ColorScheme-Text" transform="translate(-.298)scale(1.41186)"/></svg>