<svg version="1.1" viewBox="0 0 22 22" xmlns="http://www.w3.org/2000/svg">
 <defs>
  <linearGradient id="a" y1="1">
   <stop stop-color="#00fffa" offset="0"/>
   <stop stop-color="#0078ff" offset="1"/>
  </linearGradient>
 </defs>
 <path transform="translate(0) scale(1) translate(-.00145) scale(.9999) translate(.00045) scale(1)" d="m10.48 0a1.05 1.05 0 0 0-1.049 1.049v8.379h-8.379a1.05 1.05 0 0 0-1.049 1.047v10.48a1.05 1.05 0 0 0 1.049 1.047h19.9a1.05 1.05 0 0 0 1.049-1.049v-19.9a1.05 1.05 0 0 0-1.049-1.047zm1.047 2.096h8.379v17.8h-17.81v-8.381h8.381a1.05 1.05 0 0 0 1.047-1.047z" fill="url(#a)"/>
 <path transform="translate(0) scale(1) translate(-.00145) scale(.9999) translate(.00045) scale(1)" d="m15.71 4.186v0.00391a1.05 1.05 0 0 0-1.047 1.047v9.428h-6.898l0.3066-0.3066a1.05 1.05 0 0 0 0-1.48 1.05 1.05 0 0 0-0.7402-0.3066 1.05 1.05 0 0 0-0.7402 0.3066l-2.096 2.094-0.03125 0.03711-0.05664 0.06445-0.00781 0.01367a1 1 0 0 0-0.06836 0.09961l-0.03125 0.0625-0.0293 0.05859-0.04492 0.1348a1 1 0 0 0-0.02734 0.1309 1 1 0 0 0 0 0.2773v2e-3a1 1 0 0 0 0.02734 0.1309l0.02539 0.07422 0.01953 0.06055 0.0293 0.05664 0.03125 0.06445a1 1 0 0 0 0.06836 0.09961l0.00781 0.01172 0.05664 0.06641 0.03125 0.03516 2.096 2.096a1.05 1.05 0 0 0 1.48 0 1.05 1.05 0 0 0 0-1.48l-0.3066-0.3066h7.945a1.05 1.05 0 0 0 1.049-1.049v-10.48a1.05 1.05 0 0 0-1.049-1.049z" fill="url(#a)"/>
</svg>
