<svg xmlns="http://www.w3.org/2000/svg" viewBox="0 0 22 22"><g fill="#06f" stroke-width=".524"><path d="M10.48 0a1.05 1.05 0 0 0-1.048 1.048v8.38h-8.38a1.05 1.05 0 0 0-1.048 1.047v10.478A1.05 1.05 0 0 0 1.052 22h19.896a1.05 1.05 0 0 0 1.048-1.048V1.057A1.05 1.05 0 0 0 20.948.009zm1.047 2.095h8.38V19.9H2.1v-8.38h8.38a1.05 1.05 0 0 0 1.047-1.047z"/><path d="M15.708 4.19a1.05 1.05 0 0 0-1.047 1.047v9.427h-6.9l.308-.307a1.05 1.05 0 0 0 0-1.48 1.05 1.05 0 0 0-.74-.307 1.05 1.05 0 0 0-.741.306l-2.095 2.095-.032.036-.057.066-.008.013a1 1 0 0 0-.068.099l-.031.064-.029.058-.02.059-.026.075a1 1 0 0 0-.027.132 1 1 0 0 0 0 .276v.002a1 1 0 0 0 .027.132l.026.074.02.06.029.057.031.064a1 1 0 0 0 .068.1l.008.012.057.066.032.036 2.095 2.095a1.05 1.05 0 0 0 1.48 0 1.05 1.05 0 0 0 0-1.481l-.306-.307h7.945a1.05 1.05 0 0 0 1.048-1.048V5.234a1.05 1.05 0 0 0-1.048-1.048z"/></g></svg>