<svg version="1.1" viewBox="0 0 22 22" xmlns="http://www.w3.org/2000/svg">
 <defs>
  <linearGradient id="a" x2="0" y1="1">
   <stop stop-color="#248efe" offset="0"/>
   <stop stop-color="#1df4ff" offset="1"/>
  </linearGradient>
  <linearGradient id="b" y1=".5" y2=".5">
   <stop stop-color="#dc18fc" offset="0"/>
   <stop stop-color="#8e1eff" offset="1"/>
  </linearGradient>
 </defs>
 <path transform="translate(-.000253 -.000581) scale(.9999) translate(-.7428 -.3714) scale(1.034)" d="m8.006 0.5723c-1.019 0-1.861 0.8427-1.861 1.861v5.586h1.49v-5.586c0-0.2192 0.1519-0.3711 0.3711-0.3711h11.98l-0.8535 0.8535c-0.2093 0.2093-0.3281 0.493-0.3281 0.7891v9.158c0 0.2192-0.1519 0.3711-0.3711 0.3711h-2.793v1.49h2.793c1.019 0 1.861-0.8427 1.861-1.861v-9.004l1.381-1.379c0.3295-0.3295 0.3997-0.8386 0.2422-1.219-0.1575-0.3802-0.5672-0.6894-1.033-0.6894z" fill="url(#b)"/>
 <path transform="translate(-.000253 -.000581) scale(.9999) matrix(1.034 0 0 1.034 -.7428 -.3714)" d="m1.83 7.275c-0.4659 0-0.8738 0.3094-1.031 0.6894-0.1574 0.3801-0.08721 0.8874 0.2422 1.217l1.381 1.381v9.002c0 1.018 0.8429 1.863 1.861 1.863h10.43c1.018 0 1.863-0.8448 1.863-1.863v-10.43c0-1.018-0.8448-1.861-1.863-1.861h-12.88a0.7446 0.7446 0 0 0-0.00195-0.00195zm0.9004 1.49h11.98c0.2193 0 0.373 0.1537 0.373 0.373v10.43c0 0.2193-0.1537 0.373-0.373 0.373h-10.43c-0.2193 0-0.373-0.1537-0.373-0.373v-9.156c0-0.296-0.1169-0.5798-0.3262-0.7891z" fill="url(#a)"/>
 <path transform="translate(-.000253 -.000581) scale(.9999) matrix(1.034 0 0 1.034 -.7428 -.3714)" d="m5.773 16.04c-0.4069 0-0.7461 0.3372-0.7461 0.7441s0.3392 0.7461 0.7461 0.7461h5.51c0.4069 0 0.7461-0.3392 0.7461-0.7461s-0.3392-0.7441-0.7461-0.7441z" fill="url(#a)"/>
 <path transform="translate(-.000253 -.000581) scale(.9999) matrix(1.034 0 0 1.034 -.7428 -.3714)" d="m5.773 13.6c-0.4069 0-0.7461 0.3372-0.7461 0.7441s0.3392 0.7461 0.7461 0.7461h7.447c0.4069 0 0.7441-0.3392 0.7441-0.7461s-0.3372-0.7441-0.7441-0.7441z" fill="url(#a)"/>
 <path transform="translate(-.000253 -.000581) scale(.9999) matrix(1.034 0 0 1.034 -.7428 -.3714)" d="m5.773 11.07c-0.4069 0-0.7461 0.3372-0.7461 0.7441s0.3392 0.7461 0.7461 0.7461h7.447c0.4069 0 0.7441-0.3392 0.7441-0.7461s-0.3372-0.7441-0.7441-0.7441z" fill="url(#a)"/>
</svg>
