<svg xmlns="http://www.w3.org/2000/svg" viewBox="0 0 22 22"><g fill="#00ff80"><path d="M8.342.79A7.964 7.964 0 0 0 .726 12.027L.077 14.23a1.896 1.896 0 0 0 2.354 2.354l2.205-.648a8 8 0 0 0 2.158.639 7.97 7.97 0 0 0 10.562 3.912l2.206.648a1.896 1.896 0 0 0 2.354-2.354l-.649-2.205A7.964 7.964 0 0 0 15.195 5.37 7.96 7.96 0 0 0 8.34.793zm-.27 2.216A5.689 5.689 0 1 1 5.28 13.711a1.14 1.14 0 0 0-.54-.135 1.1 1.1 0 0 0-.322.046l-1.964.578.58-1.966a1.14 1.14 0 0 0-.089-.853 5.69 5.69 0 0 1 5.127-8.377zm7.813 4.861a5.69 5.69 0 0 1 3.165 8.06l-.004.003a1.14 1.14 0 0 0-.088.853l.577 1.966-1.962-.572a1.14 1.14 0 0 0-.858.088 5.69 5.69 0 0 1-7.33-1.735 7.957 7.957 0 0 0 6.5-8.662z"/><path d="M7.92 4.568a.954.954 0 0 0-.954.954V7.75H4.74a.954.954 0 0 0-.955.954.954.954 0 0 0 .955.955h2.226v2.226a.954.954 0 0 0 .955.955.954.954 0 0 0 .954-.955V9.658h2.227a.954.954 0 0 0 .954-.955.954.954 0 0 0-.954-.954H8.875V5.522a.954.954 0 0 0-.954-.954"/></g></svg>