<svg fill="none" version="1.1" viewBox="0 0 22 22" xmlns="http://www.w3.org/2000/svg">
 <defs>
  <linearGradient id="c" x1="40" x2="40" y1="6" y2="40" gradientUnits="userSpaceOnUse">
   <stop stop-color="#DC18FC" offset="0"/>
   <stop stop-color="#8E1EFF" offset="1"/>
  </linearGradient>
  <linearGradient id="b" x1="24" x2="24" y1="58" y2="24" gradientUnits="userSpaceOnUse">
   <stop stop-color="#5570FF" offset="0"/>
   <stop stop-color="#4DD3FF" offset="1"/>
  </linearGradient>
  <linearGradient id="a" x1="27" x2="27" y1="48" y2="34" gradientUnits="userSpaceOnUse">
   <stop stop-color="#5570FF" offset="0"/>
   <stop stop-color="#4DD3FF" offset="1"/>
  </linearGradient>
 </defs>
 <path transform="translate(-1.319 -1.319) scale(.385)" d="m20 24v-15c0-1.662 1.338-3 3-3h34.59c0.8909 0 1.337 1.077 0.7071 1.707l-4 4c-0.1875 0.1875-0.2929 0.4419-0.2929 0.7071v24.59c0 1.662-1.338 3-3 3h-7.5" stroke="url(#c)" stroke-width="4"/>
 <path transform="translate(-1.319 -1.319) scale(.385)" d="m6.414 24c-0.8909 0-1.337 1.077-0.7071 1.707l4 4c0.1875 0.1875 0.2929 0.4419 0.2929 0.7071v24.59c0 1.662 1.338 3 3 3h28c1.662 0 3-1.338 3-3v-28c0-1.662-1.338-3-3-3h-34.59z" stroke="url(#b)" stroke-width="4"/>
 <path transform="translate(-1.319 -1.319) scale(.385)" d="m17 34c-0.5523 0-1 0.4477-1 1s0.4477 1 1 1h20c0.5523 0 1-0.4477 1-1s-0.4477-1-1-1h-20zm0 6c-0.5523 0-1 0.4477-1 1s0.4477 1 1 1h20c0.5523 0 1-0.4477 1-1s-0.4477-1-1-1h-20zm0 6c-0.5523 0-1 0.4477-1 1s0.4477 1 1 1h14.8c0.5523 0 1-0.4477 1-1s-0.4477-1-1-1h-14.8z" stroke="url(#a)" stroke-width="2"/>
</svg>
