<svg xmlns="http://www.w3.org/2000/svg" viewBox="0 0 22 22"><path fill="#00ff80" d="M13.369 5.724q0-1.072-.701-1.728-.702-.656-1.824-.656a3 3 0 0 0-1.334.292q-.603.293-1.045.848-.556.61-1.314.729-.757.12-1.31-.279-.636-.397-.702-1.08-.066-.681.437-1.358A6 6 0 0 1 7.846.63Q9.187 0 10.851 0q2.703 0 4.36 1.565 1.655 1.564 1.656 4.08 0 1.326-.689 2.677c-.689 1.351-1.14 1.82-2.04 2.757a8 8 0 0 0-.849 1.026q-.318.47-.503 1.015-.319.662-.838 1.034-.52.37-1.065.37-.684 0-1.193-.45-.51-.45-.51-1.08 0-1.056.57-2.096.57-1.039 1.614-1.813 1.023-.79 1.514-1.611c.491-.821.49-1.131.49-1.75zm-2.205 9.881q1.327-.001 2.26.943.936.947.935 2.256 0 1.323-.934 2.261a3.1 3.1 0 0 1-2.261.933q-1.31 0-2.252-.933a3.07 3.07 0 0 1-.943-2.26q0-1.31.943-2.257.942-.944 2.252-.943m-.428 3.659-.626-.641a.47.47 0 0 0-.313-.126.35.35 0 0 0-.296.126.4.4 0 0 0-.14.303.36.36 0 0 0 .123.303l.692.696a.77.77 0 0 0 .56.227.77.77 0 0 0 .56-.227l1.548-1.6q.115-.112.115-.287c0-.175-.038-.217-.115-.308a.53.53 0 0 0-.313-.121.36.36 0 0 0-.297.121z"/></svg>