<svg xmlns="http://www.w3.org/2000/svg" viewBox="0 0 22 22"><path fill="red" d="M9.625 2.063 7.447 4.241h-.002l-.34.342h-.001a.78.78 0 0 1-.555.23H1.375C.641 4.814 0 5.456 0 6.19v11a2.766 2.766 0 0 0 2.75 2.748h16.5A2.766 2.766 0 0 0 22 17.189V3.439c0-.734-.64-1.375-1.375-1.375zm.854 2.062h9.457v13.06a.66.66 0 0 1-.688.688h-16.5a.66.66 0 0 1-.687-.688V6.875h4.486c.755 0 1.48-.3 2.014-.834z"/><path fill="red" d="M12.1 5.956a.314.314 0 0 0-.324.315v8.356c0 .173.141.314.315.314h2.516c.173 0 .312-.14.312-.314v-2.514c0-.174.141-.315.315-.315h2.07c.28 0 .42-.339.222-.537l-5.213-5.213a.3.3 0 0 0-.213-.092zM7.385 8.653a.315.315 0 0 0-.314.315v2.516c0 .173-.14.312-.314.312H4.689c-.28 0-.421.34-.223.537l5.213 5.213a.314.314 0 0 0 .535-.222V8.968a.314.314 0 0 0-.312-.315z"/></svg>