<svg xmlns="http://www.w3.org/2000/svg" xmlns:xlink="http://www.w3.org/1999/xlink" viewBox="0 0 22 22"><defs><linearGradient id="a" y1=".5" y2=".5"><stop offset="0" stop-color="#fd8900"/><stop offset="1" stop-color="#ffde00"/></linearGradient><linearGradient xlink:href="#a" id="b" x1="11.5" x2="28.13" y1="8.609" y2="8.609" gradientTransform="matrix(0 -.7734 1.263 0 .127 21.76)" gradientUnits="userSpaceOnUse"/><linearGradient xlink:href="#a" id="c" x1="-.196" x2="7.036" y1="24.08" y2="24.08" gradientTransform="matrix(0 -1.251 .7807 0 .127 21.76)" gradientUnits="userSpaceOnUse"/><linearGradient xlink:href="#a" id="e" x1="-.196" x2="7.037" y1="3.774" y2="3.774" gradientTransform="matrix(0 -1.251 .7807 0 .127 21.76)" gradientUnits="userSpaceOnUse"/></defs><path fill="url(#b)" d="M.5 10.5q0 .979.68 1.668.683.69 1.65.691h16.34q.97 0 1.65-.691.682-.69.682-1.668V2.358q0-.956-.681-1.656a2.22 2.22 0 0 0-1.65-.703H2.83q-.97 0-1.65.703a2.3 2.3 0 0 0-.682 1.656zm2.33 0V2.358h2.955v3.326Q5.784 6 6 6.213q.215.215.533.216.32 0 .531-.216a.72.72 0 0 0 .21-.529V2.358h2.98v3.326q.001.316.218.529.214.215.532.216a.71.71 0 0 0 .53-.216.72.72 0 0 0 .21-.529V2.358h2.979v3.326q.001.316.218.529.214.215.533.216A.71.71 0 0 0 16 6.213a.72.72 0 0 0 .21-.529V2.358h2.956l.006 8.142z" transform="scale(.9999)"/><path fill="url(#c)" d="M16.11 14.13c.012.26.12.524.322.734l.074.077h.006l2.538 2.54-2.61 2.61a1.12 1.12 0 0 0 0 1.583 1.13 1.13 0 0 0 1.587 0l3.403-3.4a1.13 1.13 0 0 0 0-1.587l-3.41-3.41a1.12 1.12 0 0 0-.845-.324c-.29.02-.543.153-.728.338s-.317.44-.335.728v.002a1 1 0 0 0-.002.108z" transform="scale(.9999)"/><path fill="url(#e)" d="m.25 17.57.006.008c.021.254.129.503.322.697l3.401 3.4a1.13 1.13 0 0 0 1.587 0 1.12 1.12 0 0 0 0-1.584l-2.61-2.608 2.54-2.542H5.5l.072-.075c.202-.21.312-.473.324-.734v-.002a1.137 1.137 0 0 0-.338-.836 1.14 1.14 0 0 0-.728-.34 1.12 1.12 0 0 0-.843.325l-.006.006-3.405 3.403a1.13 1.13 0 0 0-.326.795z" transform="scale(.9999)"/></svg>