<svg xmlns="http://www.w3.org/2000/svg" viewBox="0 0 22 22"><defs><linearGradient id="a" x1="1" x2="0" y2="1"><stop offset="0" stop-color="#fce94f"/><stop offset=".5" stop-color="#fce94f"/><stop offset=".75" stop-color="#edd400"/><stop offset="1" stop-color="#c4a000"/></linearGradient></defs><path fill="url(#a)" d="m16.051 4.463 1.562-.743a.502.502 0 0 1 .667.667l-.743 1.562 1.631.58a.5.5 0 0 1 0 .942l-1.631.58.743 1.562a.502.502 0 0 1-.667.667l-1.562-.743-.58 1.631a.5.5 0 0 1-.942 0l-.58-1.631-1.562.743a.502.502 0 0 1-.667-.667l.743-1.562-1.631-.58a.5.5 0 0 1 0-.942l1.631-.58-.743-1.562a.502.502 0 0 1 .667-.667l1.562.743.58-1.631a.5.5 0 0 1 .942 0zm-7.343 6.075 1.153-1.344a.5.5 0 0 1 .867.434l-.383 1.728 1.669-.587a.498.498 0 0 1 .534.809l-1.194 1.305 1.738.325a.5.5 0 0 1 .058.968l-1.688.532 1.344 1.153a.5.5 0 0 1-.434.867l-1.728-.383.587 1.669a.498.498 0 0 1-.809.534l-1.304-1.194-.326 1.738a.499.499 0 0 1-.968.058l-.532-1.688-1.153 1.344a.5.5 0 0 1-.867-.434l.383-1.728-1.669.587a.5.5 0 0 1-.534-.809l1.196-1.304-1.74-.326a.499.499 0 0 1-.058-.968l1.688-.532-1.344-1.153a.5.5 0 0 1 .434-.867l1.728.383-.587-1.669a.498.498 0 0 1 .809-.534l1.305 1.196.325-1.74a.5.5 0 0 1 .968-.058z" transform="translate(-3.235 -3.235)scale(1.29406)"/></svg>