<svg xmlns="http://www.w3.org/2000/svg" viewBox="0 0 22 22"><defs><linearGradient id="a" y1=".5" y2=".5"><stop offset="0" stop-color="#ffe100"/><stop offset="1" stop-color="#f0e"/></linearGradient></defs><path fill="url(#a)" d="M8 1a7 7 0 0 0-7 7 7 7 0 0 0 1.35 4.104 1.241 1.248 0 0 0-.125.541 1.241 1.248 0 0 0 1.242 1.25 1.241 1.248 0 0 0 .566-.143A7 7 0 0 0 8 15a7 7 0 0 0 7-7 7 7 0 0 0-7-7m0 1a6 6 0 0 1 6 6 6 6 0 0 1-6 6 6 6 0 0 1-3.338-1.031 1.241 1.248 0 0 0 .045-.324 1.241 1.248 0 0 0-1.24-1.248 1.241 1.248 0 0 0-.365.056A6 6 0 0 1 2 8a6 6 0 0 1 6-6m0 1.5A4.5 4.5 0 0 0 3.5 8 4.5 4.5 0 0 0 8 12.5a4.5 4.5 0 0 0 2.734-.94 1.241 1.248 0 0 0 .422.079 1.241 1.248 0 0 0 1.242-1.248 1.241 1.248 0 0 0-.229-.723A4.5 4.5 0 0 0 12.5 8 4.5 4.5 0 0 0 8 3.5m0 1A3.5 3.5 0 0 1 11.5 8a3.5 3.5 0 0 1-.201 1.15 1.241 1.248 0 0 0-.143-.008 1.241 1.248 0 0 0-1.242 1.248 1.241 1.248 0 0 0 .096.47A3.5 3.5 0 0 1 8 11.5 3.5 3.5 0 0 1 4.5 8 3.5 3.5 0 0 1 8 4.5m0 1.748A1.747 1.751 0 0 0 6.252 8 1.747 1.751 0 0 0 8 9.752 1.747 1.751 0 0 0 9.748 8 1.747 1.751 0 0 0 8 6.248" transform="translate(-1.57 -1.57)scale(1.571)"/></svg>