<svg xmlns="http://www.w3.org/2000/svg" viewBox="0 0 22 22"><defs><linearGradient id="a" y1="1"><stop offset="0" stop-color="#f06"/><stop offset="1" stop-color="#f7c"/></linearGradient></defs><path fill="url(#a)" d="M9 4.998c-3.866 0-7 2.678-7 5.982s2.134 5.766 6 5.766c-3.222 0-4.834-3.012-4.834-5.766S5.778 5.994 9 5.994c1.456 0 2.771.473 3.793 1.227A5 3.916 0 0 0 11 6.955a5 3.916 0 0 0-5 3.918v.01a5 3.916 0 0 0 .02.317C6.213 14.43 9.259 17 13 17c3.866 0 7-2.741 7-6.122S17.866 5 14 5c3.222 0 4.834 3.057 4.834 5.875S16.222 15.978 13 15.978c-1.672 0-3.177-.62-4.24-1.606a5 3.916 0 0 0 2.24.418 5 3.916 0 0 0 4.992-3.81h.007q-.001-.027-.004-.056a5 3.916 0 0 0 .004-.05 5 3.916 0 0 0-.03-.401c-.304-3.066-3.305-5.475-6.97-5.475z" transform="translate(-2.444 -2.443)scale(1.2221)"/></svg>