<svg xmlns="http://www.w3.org/2000/svg" viewBox="0 0 22 22"><defs><linearGradient id="c" x1="22" x2="0" y1="0" y2="22" gradientTransform="translate(14.07 14.64)scale(.3346)" gradientUnits="userSpaceOnUse"><stop offset="0" stop-color="#01ff01"/><stop offset="1" stop-color="#1bc100"/></linearGradient><linearGradient id="a" x1="1" x2="0" y2="1"><stop offset="0" stop-color="#ff4000"/><stop offset="1" stop-color="#ffa200"/></linearGradient></defs><path fill="url(#a)" d="M3 2.5a.503.503 0 0 0-.5.5v2c0 .277.222.5.497.5 5.269-.032 9.96 2.94 12.18 7.716a.5.5 0 0 0 .452.285h2.187a.502.502 0 0 0 .463-.688 16.7 16.7 0 0 0-6.066-7.49 16.7 16.7 0 0 0-9.216-2.821zm0 4a.503.503 0 0 0-.5.5v2c0 .277.22.5.497.5 3.04-.02 5.808 1.374 7.602 3.829a.5.5 0 0 0 .557.175l.011-.003h2.214a.498.498 0 0 0 .433-.752C11.581 8.95 7.408 6.54 3.004 6.5zm0 4a.5.5 0 0 0-.5.5v2a.5.5 0 0 0 .5.5c1.555-.021 2.866.589 3.889 1.612S8.522 17.446 8.5 19a.5.5 0 0 0 .5.5h2a.5.5 0 0 0 .5-.5c-.021-2.311-.98-4.501-2.49-6.011C7.5 11.479 5.312 10.522 3 10.5zm1.499 5c-.516 0-1.08.25-1.414.586-.335.334-.586.899-.586 1.415s.251 1.08.586 1.414c.334.335.898.586 1.414.586s1.08-.251 1.414-.586c.335-.334.586-.898.586-1.414s-.251-1.081-.586-1.415a2.13 2.13 0 0 0-1.414-.586" transform="translate(-2.496 -3.067)scale(1.227)"/><path fill="url(#c)" d="M17.76 14.64a1.1 1.1 0 0 0-.764.304 1.02 1.02 0 0 0-.323.744v1.558h-1.538a1.054 1.054 0 0 0-1.07 1.063c0 .29.109.557.307.764a1.02 1.02 0 0 0 .742.324h1.558v1.539c0 .288.108.554.307.755.202.204.476.31.775.31.278 0 .54-.104.745-.301a1.02 1.02 0 0 0 .323-.746v-1.556h1.54a1.06 1.06 0 0 0 .755-.308c.204-.201.31-.475.31-.773 0-.278-.105-.54-.301-.746a1.02 1.02 0 0 0-.746-.324h-1.556v-1.54c0-.288-.108-.554-.308-.756a1.05 1.05 0 0 0-.755-.31z" transform="scale(.9999)"/></svg>