<svg version="1.1" viewBox="0 0 22 22" xmlns="http://www.w3.org/2000/svg">
 <defs>
  <linearGradient id="a" x1="1" x2="0" y2="1">
   <stop stop-color="#0f9" offset="0"/>
   <stop stop-color="#14dc57" offset="1"/>
  </linearGradient>
 </defs>
 <path transform="translate(-0) scale(1) translate(.000279 -.00078) scale(1) translate(.337 .34) scale(.9692)" d="M11-.35C5.132-.35.29 4.11-.29 9.84q-.058.576-.057 1.16c0 6.26 5.086 11.35 11.35 11.35h.002c3.354-.003 6.385-1.525 8.447-3.94v-.003l.002-.002v-.002l.002-.002a11.8 11.8 0 0 0 1.721-2.688 1.35 1.35 0 0 0-1.225-1.918h-1.346a1.35 1.35 0 0 0-1.182.698c-.834 1.515-2.092 2.71-3.562 3.387q-.435.2-.908.342a6.8 6.8 0 0 1-1.95.287 7.504 7.504 0 0 1 0-15.01h.001c1.868.006 3.628.758 5.002 2.01l-1.973 1.969a1.35 1.35 0 0 0 .953 2.305h6.014a1.35 1.35 0 0 0 1.35-1.35V2.421a1.35 1.35 0 0 0-2.305-.955l-1.32 1.32c-2.098-1.97-4.834-3.127-7.72-3.13h-.003z" fill="url(#a)"/>
</svg>
