<svg xmlns="http://www.w3.org/2000/svg" fill="none" viewBox="0 0 22 22"><defs><linearGradient id="a" x1="11" x2="11" y1="19.15" y2="3.438" gradientUnits="userSpaceOnUse"><stop offset="0" stop-color="#fda700"/><stop offset="1" stop-color="#ffde00"/></linearGradient></defs><path fill="url(#a)" d="M.786 3.438A.786.786 0 0 0 0 4.224v14.14c0 .434.352.785.786.785h1.57a.786.786 0 0 0 .786-.785V4.224a.786.786 0 0 0-.785-.786zm6.286 0a.786.786 0 0 0-.786.786v14.14c0 .434.352.785.786.785h1.57a.786.786 0 0 0 .786-.785V4.224a.786.786 0 0 0-.785-.786zm6.286 0a.786.786 0 0 0-.786.786v14.14c0 .434.352.785.786.785h1.57a.786.786 0 0 0 .786-.785V4.224a.786.786 0 0 0-.785-.786zm6.286 0a.786.786 0 0 0-.786.786v14.14c0 .434.352.785.786.785h1.572a.786.786 0 0 0 .785-.785V4.224a.786.786 0 0 0-.785-.786z" transform="translate(0 -.293)scale(.99995)"/></svg>