<svg xmlns="http://www.w3.org/2000/svg" viewBox="0 0 22 22"><defs><linearGradient id="a" x1="1" x2="0" y1="1"><stop offset="0" stop-color="#ff0002"/><stop offset="1" stop-color="#ff0050"/></linearGradient></defs><g fill="url(#a)" stroke-width="1.48" transform="scale(.9999)"><path d="M5.913 4.387c-.843 0-1.526.683-1.526 1.526v10.17c0 .843.683 1.526 1.526 1.526h10.17c.843 0 1.526-.683 1.526-1.526V5.913c0-.843-.683-1.526-1.526-1.526z"/><path d="M3.37 0A3.386 3.386 0 0 0 0 3.37v15.26A3.386 3.386 0 0 0 3.37 22h15.26A3.386 3.386 0 0 0 22 18.63V3.37A3.386 3.386 0 0 0 18.63 0zm0 2.162h15.26c.68 0 1.208.528 1.208 1.208v15.26c0 .68-.529 1.208-1.208 1.208H3.37c-.68 0-1.208-.529-1.208-1.208V3.37c0-.68.528-1.208 1.208-1.208"/></g></svg>