<svg version="1.1" viewBox="0 0 22 22" xmlns="http://www.w3.org/2000/svg">
 <g transform="translate(0) scale(1) translate(2.4e-5) scale(1) translate(-.005) scale(.9999)" fill="#0f0" stroke-width="1.692">
  <path d="M19.73 22c.85 0 1.54-.541 1.54-1.21s-.69-1.21-1.54-1.21H2.28c-.85 0-1.54.542-1.54 1.21S1.43 22 2.28 22z"/>
  <path d="m19.23 3.6-7.319 12c-.452.702-1.272.7-1.722 0L2.87 3.6C1.518 1.383 2.933.008 3.731 0h14.64c1.352 0 1.698 2.228.861 3.6zm-8.181-1.001H4.893l6.156 9.562 6.156-9.562z"/>
 </g>
</svg>
