<svg version="1.1" viewBox="0 0 22 22" xmlns="http://www.w3.org/2000/svg">
 <path transform="translate(0) scale(1) translate(0) scale(1) translate(0) scale(1) translate(-3e-5) scale(1) translate(.000473 .001108) scale(.9999) translate(.4783 .4783) scale(.9566)" d="m2.275 19.08c-0.5312 0-1.023 0.1657-1.398 0.4609-0.3758 0.2952-0.6426 0.7419-0.6426 1.248s0.2668 0.9548 0.6426 1.25 0.8672 0.4609 1.398 0.4609h17.45c0.531 0 1.022-0.1658 1.398-0.4609 0.3759-0.2952 0.6426-0.7436 0.6426-1.25s-0.2667-0.9529-0.6426-1.248c-0.3759-0.2952-0.8674-0.4609-1.398-0.4609z" fill="#0f0"/>
 <path transform="translate(0) scale(1) translate(0) scale(1) translate(0) scale(1) translate(-3e-5) scale(1) translate(.000473 .001108) scale(.9999) translate(.4783 .4783) scale(.9566)" d="m3.721-0.5c-0.6831 0.006848-1.328 0.4826-1.686 1.264-0.3573 0.781-0.3379 1.882 0.4023 3.096l7.318 12a0.5 0.5 0 0 0 0.00586 0.0098c0.2996 0.466 0.7797 0.7555 1.281 0.7559s0.9826-0.289 1.283-0.7559a0.5 0.5 0 0 0 0.0059-0.0098l7.316-12 2e-3 -0.00195a0.5 0.5 0 0 0 2e-3 0c0.4967-0.8148 0.6314-1.814 0.453-2.676-0.08918-0.4306-0.2602-0.8331-0.5488-1.15-0.2886-0.3173-0.7181-0.5332-1.193-0.5332h-14.64a0.5 0.5 0 0 0-0.00586 0zm2.084 3.6h10.48l-5.238 8.137z" fill="#0f0"/>
</svg>
