<svg xmlns="http://www.w3.org/2000/svg" viewBox="0 0 22 22"><defs><linearGradient id="a" x1="1" x2="0" y2="1"><stop offset="0" stop-color="#8cff19"/><stop offset="1" stop-color="#8cff19"/></linearGradient></defs><path fill="url(#a)" d="M433-433H218l32 34c9.333 9.22 14 20.36 14 33.41 0 13.06-4.7 24.26-14.1 33.59q-14.11 14-34.03 14-19.905 0-33.87-14L68-446a55.7 55.7 0 0 1-10.95-16.33c-2.7-6.107-4.05-12.08-4.05-17.91 0-5.84 1.35-11.74 4.05-17.71A55.7 55.7 0 0 1 68-514l115-115q14.4-14 34.2-14c19.8 0 24.47 4.667 33.8 14s14 20.6 14 33.8-4.667 24.6-14 34.2l-33 34h215v-216l-33 33c-9.453 9.333-20.82 14-34.09 14s-24.58-4.667-33.91-14-14-20.6-14-33.8 4.667-24.6 14-34.2l114-114a55.7 55.7 0 0 1 16.33-10.95c6.107-2.7 12.08-4.05 17.91-4.05 5.84 0 11.74 1.35 17.71 4.05A55.7 55.7 0 0 1 514-892l114 114c9.333 9.453 14 20.82 14 34.09s-4.667 24.58-14 33.91-20.6 14-33.8 14-24.6-4.667-34.2-14l-33-33v525l39-37c9.22-9.333 20.36-14 33.41-14 13.06 0 24.26 4.7 33.59 14.1q14 14.11 14 34.03 0 19.905-14 33.87L514-68a55.7 55.7 0 0 1-16.33 10.95c-6.107 2.7-12.08 4.05-17.91 4.05-5.84 0-11.74-1.35-17.71-4.05A55.7 55.7 0 0 1 446-68L327-187c-9.333-9.38-14-20.72-14-34.03s4.667-24.64 14-33.97 20.6-14 33.8-14 24.6 4.667 34.2 14l38 37z" transform="translate(1.983 23.358)scale(.02575)"/></svg>