<svg xmlns="http://www.w3.org/2000/svg" viewBox="0 0 22 22"><g stroke-width="1.165"><path fill="#ff0" d="m21.176 2.584-5.262 9.212a.63.63 0 0 1-.241.24L6.46 17.3a.647.647 0 0 1-.882-.24l-.642-1.122a.646.646 0 0 1 .24-.884l8.751-5.003L18.93 1.3a.646.646 0 0 1 .884-.24l1.122.641c.31.177.418.572.24.882"/><path fill="#06f" d="M3.883.647v17.465h17.464c.358 0 .647.29.647.647v1.294c0 .358-.29.647-.647.647H3.883v.647c0 .358-.29.647-.648.647H1.941a.647.647 0 0 1-.647-.647V20.7H.647A.647.647 0 0 1 0 20.053V18.76c0-.357.29-.647.647-.647h.647V.647c0-.357.29-.647.647-.647h1.294c.358 0 .648.29.648.647"/></g></svg>