<svg xmlns="http://www.w3.org/2000/svg" viewBox="0 0 22 22"><g fill="#0ff"><path d="M0 0v6.284h1.571V1.57h4.713V0zm9.426 0v12.568H0v1.57h9.426v7.855h1.57V14.14h10.997v-1.571H10.997V0zm6.284 0v1.571h4.712v4.713h1.571V0zM0 15.71v6.283h6.284v-1.57H1.57V15.71zm20.422 0v4.712H15.71v1.571h6.283V15.71z"/><path d="M4.713 4.713v7.855h1.57V6.284h9.427v6.284h1.57V4.713H6.284z" opacity=".3"/><path d="m4.713 12.585 1.323.331s.69-2.24 1.203-3.508c.523-1.289 1.156-2.567 1.838-3.475.68-.905 1.325-1.216 1.918-1.22.572.02 1.096.107 1.603.612.51.508 1.004 1.28 1.46 2.238.677 1.42 1.842 5.16 1.842 5.16l1.38-.153s-1.232-4.01-2.005-5.632c-.498-1.047-1.055-1.951-1.739-2.633s-1.53-1.135-2.628-1.149-2.094.837-2.9 1.91c-.806 1.074-1.472 2.44-2.02 3.796-.55 1.359-1.275 3.723-1.275 3.723"/></g></svg>