<svg xmlns="http://www.w3.org/2000/svg" viewBox="0 0 22 22"><g stroke-width=".021"><path fill="#d500ff" d="M2.099.244c-.59 0-1.09.208-1.491.612Q0 1.468 0 2.368v17.287q0 .887.608 1.496.605.601 1.49.603h2.77a1 1 0 0 0 .746-.306c.205-.203.303-.451.303-.744a1 1 0 0 0-.303-.747 1 1 0 0 0-.747-.301H2.1V2.368h2.768q.444 0 .747-.306c.205-.205.303-.449.303-.746a1.04 1.04 0 0 0-.303-.755 1 1 0 0 0-.747-.317zm15.031 0c-.294 0-.545.107-.746.312q-.306.32-.304.76c.002.44.099.541.304.746.2.203.452.306.746.306h2.767v17.287H17.13q-.443 0-.746.302a1 1 0 0 0-.304.746q-.002.44.304.745a1 1 0 0 0 .746.306h2.767q.887-.001 1.493-.604.608-.607.608-1.495V2.368q0-.9-.608-1.512a2.03 2.03 0 0 0-1.493-.612z"/><path fill="#0cf" d="M5.296 3.431q-.76 0-1.302.547-.54.547-.54 1.316v3.253q0 .779.54 1.322.54.54 1.302.54h3.272q.759 0 1.302-.54a1.8 1.8 0 0 0 .54-1.322V5.294q0-.768-.54-1.316a1.77 1.77 0 0 0-1.302-.547zm8.153 0q-.78 0-1.323.547a1.8 1.8 0 0 0-.54 1.316v3.253q0 .779.54 1.322a1.8 1.8 0 0 0 1.323.54h3.253q.768 0 1.315-.54a1.8 1.8 0 0 0 .547-1.322V5.294q0-.768-.547-1.316a1.8 1.8 0 0 0-1.315-.547zM5.296 5.293h3.272v3.253H5.296zm8.153 0h3.253v3.253h-3.253zm-8.153 6.29q-.76.002-1.302.543a1.77 1.77 0 0 0-.54 1.3V16.7q0 .76.54 1.3c.54.54.795.543 1.302.543h3.272q.759 0 1.302-.543.54-.54.54-1.3v-3.274q0-.758-.54-1.3a1.78 1.78 0 0 0-1.302-.542zm8.153 0q-.78.002-1.323.543a1.77 1.77 0 0 0-.54 1.3V16.7q0 .76.54 1.3.543.542 1.323.543h3.253q.768 0 1.315-.543.547-.54.547-1.3v-3.274q0-.758-.547-1.3a1.8 1.8 0 0 0-1.315-.542zm-8.153 1.843h3.272V16.7H5.296zm8.153 0h3.253V16.7h-3.253z"/></g></svg>