<svg xmlns="http://www.w3.org/2000/svg" viewBox="0 0 22 22"><defs><linearGradient id="a" x1="1" x2="0" y1="1"><stop offset="0" stop-color="#fd3aaf"/><stop offset="1" stop-color="#ff8dd1"/></linearGradient></defs><g stroke-width="1.294"><path fill="#0f0" d="M18.118 12.287v6.47h1.295v-6.47zm-2.588 2.59v3.88h1.295v-3.88zm-2.587 1.293v2.588h1.293V16.17z"/><path fill="#00bfff" d="M5.278 3.236a2.586 2.586 0 1 0 .547 5.09 2.59 2.59 0 0 0 1.938-2.504H5.175l1.37-2.197a2.6 2.6 0 0 0-1.267-.389z"/><path fill="url(#a)" d="M3.883.647S0 .647 0 4.53v12.94c0 3.882 3.883 3.883 3.883 3.883h14.23s3.883-.001 3.883-3.884V4.53c0-3.881-3.883-3.882-3.883-3.882zm0 1.294h6.471v18.12H3.883s-2.588 0-2.588-2.587V4.534c0-2.588 2.588-2.588 2.588-2.588zm7.764 0h6.471s2.588 0 2.588 2.589v12.94c0 2.588-2.588 2.588-2.588 2.588h-6.471z" transform="translate(0 -.001)scale(.9999)"/></g></svg>