<svg xmlns="http://www.w3.org/2000/svg" viewBox="0 0 22 22"><defs><linearGradient id="a" y1="1"><stop offset="0" stop-color="#fd7c60"/><stop offset="1" stop-color="#ff00c6"/></linearGradient></defs><path fill="url(#a)" d="M3.5 5.5H3a.5.5 0 0 1-.5-.5V2a.5.5 0 0 1 .5-.5h3a.5.5 0 0 1 .5.5v3a.5.5 0 0 1-.5.5h-.5v10H6a.5.5 0 0 1 .5.5v.5h9V16a.5.5 0 0 1 .5-.5h3a.5.5 0 0 1 .5.5v3a.5.5 0 0 1-.5.5h-3a.5.5 0 0 1-.5-.5v-.5h-9v.5a.5.5 0 0 1-.5.5H3a.5.5 0 0 1-.5-.5v-3a.5.5 0 0 1 .5-.5h.5zM4 18h1v-1H4zm13 0h1v-1h-1zM4 4h1V3H4z" transform="translate(-2.444 -1.833)scale(1.2221)"/></svg>