<svg xmlns="http://www.w3.org/2000/svg" viewBox="0 0 22 22"><g fill="#ff0"><path d="M.021.012 0 21.99h1.57v-9.419l20.424-.003v-1.57l-20.424.003.021-7.852V.009z"/><path d="M7.026.012c-1.055 0-1.909.83-2.601 1.876-.692 1.047-1.264 2.377-1.736 3.697C1.745 8.225.987 11.45.987 11.45s1.178.112 1.26-.247c.206-.888.877-3.297 1.516-5.085.449-1.255.993-2.5 1.58-3.386.583-.882 1.165-1.335 1.676-1.339.491.02.914.255 1.349.746.438.495.863 1.248 1.255 2.182.785 1.869 1.44 4.432 2.096 7.008s1.31 5.163 2.17 7.163c.428 1 .907 1.862 1.5 2.495.592.632 1.33 1.027 2.145 1.003 1.022-.006 1.799-.87 2.369-1.926.572-1.059.999-2.39 1.333-3.713.354-1.403.6-2.797.752-3.797.135-.885-1.002-1.25-1.092-.627-.14.97-.393 2.507-.779 4.033-.316 1.254-.727 2.498-1.198 3.37s-.941 1.291-1.394 1.291h-.016c-.494.016-.904-.191-1.335-.652s-.853-1.185-1.244-2.095c-.782-1.821-1.438-4.363-2.094-6.94-.656-2.575-1.31-5.183-2.167-7.222-.428-1.02-.907-1.901-1.494-2.565C8.587.482 7.86.04 7.043.014h-.007z"/><path d="M1.591 1.582v1.57h9.42V20.42h10.988v-9.419h-1.57v7.85H12.58V1.581z" opacity=".3"/></g></svg>