<svg xmlns="http://www.w3.org/2000/svg" viewBox="0 0 22 22"><g stroke-width="1.042"><path fill="#ff8000" d="m16.038 6.534 2.055 2.052 2.05-2.052a.58.58 0 0 1 .82.001s.71.723.711.734a.57.57 0 0 1 .246.304v.005l.002.003a.6.6 0 0 1 .029.175v.008a.58.58 0 0 1-.168.405l-.004.004v.002l-3.271 3.271a.58.58 0 0 1-.415.17.58.58 0 0 1-.417-.17l-2.049-2.049-3.746 3.748a.58.58 0 0 1-.358.166h.484c.154 0 .301.062.41.17l3.207 3.207 2.048-2.049a.58.58 0 0 1 .417-.169c.15 0 .3.056.415.17l3.268 3.269.043.04c.115.11.18.261.18.42v2.47c0 .319-.26.578-.58.578H7.529a.58.58 0 0 1-.579-.579V9.262c0-.32.26-.58.58-.58h1.157c.32 0 .579.26.579.58V11h1.494l4.463-4.464a.58.58 0 0 1 .412-.169.57.57 0 0 1 .411.17zM9.257 19.099h5.504l-3.473-3.473H9.257zm7.227 0h3.204l-1.6-1.6z"/><path fill="#06f" d="M21.993 1.154V4.62c0 .32-.259.58-.578.58h-1.158a.58.58 0 0 1-.579-.58V2.891H6.946v4.051c0 .32-.26.58-.579.58H2.315v10.42h1.737c.32 0 .579.259.579.578v1.158c0 .32-.26.579-.58.579H.58a.58.58 0 0 1-.579-.58V5.79c0-.154.061-.3.17-.41L4.8.75a.58.58 0 0 1 .41-.17h16.21c.319 0 .578.26.578.58z"/></g></svg>