<svg xmlns="http://www.w3.org/2000/svg" viewBox="0 0 22 22"><g stroke-width=".99"><path fill="#bf00ff" d="M14.588 21.442a.88.88 0 0 1-.65-.265.88.88 0 0 1-.264-.649v-1.517q0-.165.068-.323.068-.155.204-.299l4.117-4.1a1.434 1.434 0 0 1 1.02-.432q.29 0 .552.116c.262.116.341.19.496.331l.72.718q.214.216.311.478a1.53 1.53 0 0 1-.01 1.094q-.108.269-.322.494l-4.084 4.102a.9.9 0 0 1-.297.193 1 1 0 0 1-.343.06zm.545-1.458h.737l2.295-2.31-.084-.09.084.084-.348-.37-.37-.349-2.314 2.29zm2.948-2.4-.634-.635.37.353z"/><path fill="#00ff80" d="M6.16 3.85a3.12 3.12 0 0 0-2.004.756c-.42.422-.74 1.024-.824 1.578s.04 1.223.314 1.75c.303.51.806.972 1.32 1.192.515.22 1.193.267 1.773.134.571-.165 1.143-.536 1.485-.979s.558-1.09.575-1.684a.55.55 0 0 0-.55-.549H7.042l.64-1.024a.555.555 0 0 0-.176-.76A3.1 3.1 0 0 0 6.16 3.85z"/><path fill="#06f" d="M.551.551a.55.55 0 0 0-.551.55v19.797a.55.55 0 0 0 .551.55h10.997a.55.55 0 0 0 .551-.55v-8.25h9.348a.55.55 0 0 0 .551-.55V1.1a.55.55 0 0 0-.551-.549zM2.2 2.75h7.7v7.701H2.2zm9.899 0h7.7v7.701h-7.7zm-9.9 9.899h7.7v6.6H2.2z"/></g></svg>