<svg xmlns="http://www.w3.org/2000/svg" viewBox="0 0 22 22"><g stroke-width=".943"><path fill="#ff8000" d="M16.767 12.563a.524.524 0 0 0-.523.525v5.235c0 .29.234.525.523.525h1.048a.524.524 0 0 0 .523-.525v-5.235a.524.524 0 0 0-.523-.525zm-3.141 2.096a.523.523 0 0 0-.523.523v3.141c0 .29.234.525.523.525h1.047a.524.524 0 0 0 .523-.525v-3.141a.523.523 0 0 0-.523-.523zm-3.142 1.046a.526.526 0 0 0-.525.525v2.094c0 .289.236.525.525.525h1.046a.526.526 0 0 0 .525-.525V16.23a.526.526 0 0 0-.525-.525z"/><path fill="#00ff80" d="M6.394 3.144a2.98 2.98 0 0 0-1.907.72c-.4.402-.704.974-.785 1.502-.08.526.039 1.162.3 1.666.287.486.766.925 1.256 1.135s1.136.257 1.688.13c.543-.157 1.089-.512 1.414-.933.326-.422.533-1.037.549-1.603a.524.524 0 0 0-.525-.522h-1.15l.61-.977a.523.523 0 0 0-.167-.722 3 3 0 0 0-1.282-.395z"/><path fill="#d500ff" d="M1.053 0A.524.524 0 0 0 .53.525v20.95c0 .288.234.524.523.524h19.894a.524.524 0 0 0 .523-.525V.525A.524.524 0 0 0 20.947 0zm1.57 2.096h16.762v7.331H2.623zm0 9.424h16.762v8.378H2.623z"/></g></svg>