<svg xmlns="http://www.w3.org/2000/svg" viewBox="0 0 22 22"><g stroke-width=".941"><path fill="#ff8000" d="M17.955 12.565a.523.523 0 0 0-.523.523v5.23c0 .289.234.523.523.523H19a.523.523 0 0 0 .523-.523v-5.23a.523.523 0 0 0-.523-.523zm-2.591 2.092a.523.523 0 0 0-.523.523v3.138c0 .289.234.523.523.523h1.046a.523.523 0 0 0 .523-.523V15.18a.523.523 0 0 0-.523-.523zm-2.516 1.046a.523.523 0 0 0-.523.523v2.092c0 .289.235.523.523.523h1.046a.523.523 0 0 0 .523-.523v-2.092a.523.523 0 0 0-.523-.523z"/><path fill="#00ff80" d="M6.016 3.156a2.97 2.97 0 0 0-1.906.719c-.4.401-.702.973-.783 1.5-.08.526.039 1.162.3 1.664.287.485.765.923 1.254 1.133.49.21 1.135.255 1.686.128.543-.157 1.088-.508 1.413-.929.326-.421.532-1.036.547-1.6a.523.523 0 0 0-.523-.524h-1.15l.61-.974a.524.524 0 0 0-.167-.72 3 3 0 0 0-1.28-.395z"/><path fill="#d500ff" d="M.523.017A.523.523 0 0 0 0 .54v20.92c0 .288.234.523.523.523h20.953A.523.523 0 0 0 22 21.46V.54a.523.523 0 0 0-.523-.523zm1.569 2.092H9.94V9.43H2.092zm9.94 0h7.875V9.43h-7.875zm-9.94 9.413H9.94v8.367H2.092zm9.94 0h7.875v8.367h-7.875z"/></g></svg>