<svg version="1.1" viewBox="0 0 22 22" xmlns="http://www.w3.org/2000/svg">
 <g transform="translate(0) scale(1) translate(0) scale(1) translate(8e-6 8e-6) scale(1)" fill="#00f">
  <path d="M2.933 0A2.927 2.927 0 0 0 0 2.933v16.134a2.927 2.927 0 0 0 2.933 2.934h16.134a2.927 2.927 0 0 0 2.934-2.934V2.933A2.927 2.927 0 0 0 19.067 0zm0 1.467h16.134c.813 0 1.467.654 1.467 1.466v16.134c0 .813-.654 1.467-1.467 1.467H2.933a1.463 1.463 0 0 1-1.466-1.467V2.933c0-.812.654-1.466 1.466-1.466"/>
  <path d="M2.933 2.933v7.334h16.134V2.933zM4.4 4.4h13.2v4.4H4.4zM2.933 11.734v7.333h16.134v-7.333zM4.4 13.2h13.2v4.4H4.4z"/>
 </g>
</svg>
