<svg xmlns="http://www.w3.org/2000/svg" viewBox="0 0 22 22"><defs><linearGradient id="a" y2="1"><stop offset="0" stop-color="#ff00e6"/><stop offset="1" stop-color="#00f7cf"/></linearGradient><linearGradient id="d" y2="1"><stop offset="0" stop-color="#ff00e2"/><stop offset="1" stop-color="#00b2ff"/></linearGradient><linearGradient id="b" y1=".5" y2=".5"><stop offset="0" stop-color="#f0f"/><stop offset="1" stop-color="#ff0080"/></linearGradient></defs><g stroke-width="1.571"><path fill="url(#a)" d="M11 0A11 11 0 0 0 0 11a11 11 0 0 0 11 11 11 11 0 0 0 11-11A11 11 0 0 0 11 0m0 3.143A7.857 7.857 0 0 1 18.857 11 7.857 7.857 0 0 1 11 18.857 7.857 7.857 0 0 1 3.143 11 7.857 7.857 0 0 1 11 3.143" transform="scale(.9999)"/><path fill="url(#b)" d="M11.15 7.857c-1.741 0-3.143 1.402-3.143 3.143s1.402 3.143 3.143 3.143 3.143-1.402 3.143-3.143c0-.322-.061-.626-.15-.918a1.567 1.567 0 1 1-2.074-2.074 3.1 3.1 0 0 0-.918-.15z" transform="scale(.9999)"/><path fill="url(#d)" d="M11.15 4.715A6.285 6.285 0 1 0 17.435 11a6.284 6.284 0 0 0-5.744-6.258c-.667-.027-.55-.027-.541-.027zm0 1.57a4.715 4.715 0 1 1 0 9.43 4.715 4.715 0 0 1 0-9.43" transform="scale(.9999)"/></g></svg>