<svg xmlns="http://www.w3.org/2000/svg" viewBox="0 0 22 22"><defs><linearGradient id="a" x1="1" x2="0" y1="1"><stop offset="0" stop-color="#4fe4ff"/><stop offset="1" stop-color="#2ab2eb"/></linearGradient></defs><path fill="url(#a)" d="M766-97q-52 0-87.5-30.5T634-198H443q-69.3 0-114.15-45Q284-287.99 284-357.5q0-68.5 44.85-113.5T443-516h77q37.7 0 62.35-24.71t24.65-62.5-24.65-62.29T520-690H327q-11 40-46 70.5T194-589q-56.92 0-96.96-40.06t-40.04-97T97.04-823 194-863q52 0 87 30.5t46 70.5h193q69 0 114 45t45 114-45 114-114 45h-77q-38 0-62.5 24.5-24.5 24.51-24.5 62 0 38.5 24.5 63T443-270h191q10-40 45-70.5t87-30.5q56.92 0 96.96 40.06t40.04 97T862.96-137 766-97M194-672q23 0 38.5-15.5T248-726t-15.5-38.5T194-780t-38.5 15.5T140-726t15.5 38.5T194-672" transform="translate(-1.482 23.476)scale(.026)"/></svg>