<svg fill="none" version="1.1" viewBox="0 0 22 22" xmlns="http://www.w3.org/2000/svg">
 <defs>
  <linearGradient id="a" x1="42.6" x2="42.6" y1="117.7" y2="44.52" gradientUnits="userSpaceOnUse">
   <stop stop-color="#5570ff" offset="0"/>
   <stop stop-color="#4dd3ff" offset="1"/>
  </linearGradient>
  <linearGradient id="c" x1="85.4" x2="85.4" y1="10" y2="83.19" gradientUnits="userSpaceOnUse">
   <stop stop-color="#5570ff" offset="0"/>
   <stop stop-color="#4dd3ff" offset="1"/>
  </linearGradient>
 </defs>
 <path transform="translate(0) scale(1) translate(0) scale(1) translate(-.00012 -.00015) scale(1) translate(-.00048 -4e-4) scale(1) translate(-1.137 -1.11) scale(.1896)" d="M53.79 44.52c-2.41-.023-4.821.28-7.16.908-4.394 1.165-8.552 3.4-12 6.801l-20.8 20.5c-10.44 10.29-10.44 26.97 0 37.26s27.36 10.29 37.8 0l11.35-10.72c1.65-1.626.08-3.598-1.531-5.262-.78-.806-1.499-1.629-2.379-2.627-1.919-2.176-3.679-3.782-5.746-1.746a4100 4100 0 0 0-11.14 11.04c-5.198 5.123-13.7 5.123-18.9 0-5.198-5.124-5.198-13.51 0-18.63l20.8-20.5c.804-.792 1.701-1.49 2.693-2.002 5.103-2.98 11.81-2.33 16.21 2.002 3.421 3.372 8.244 4.515 12.62 3.45 2.218-.54 3.196-3.007 2.242-5.08a26.1 26.1 0 0 0-5.412-7.685 26.4 26.4 0 0 0-11.48-6.66 26.7 26.7 0 0 0-7.158-1.049z" fill="url(#a)"/>
 <path transform="translate(0) scale(1) translate(0) scale(1) translate(-.00012 -.00015) scale(1) translate(-.00048 -4e-4) scale(1) translate(-1.137 -1.11) scale(.1896)" d="M95.27 10c-6.84 0-13.68 2.574-18.9 7.721l-11.35 10.72c-1.65 1.626-.08 3.598 1.531 5.262.78.806 1.499 1.629 2.379 2.627 1.919 2.176 3.679 3.782 5.746 1.746 1.957-1.928 5.364-5.301 11.14-11.04 5.198-5.124 13.7-5.124 18.9 0 5.198 5.124 5.198 13.51 0 18.63l-20.8 20.5c-.804.792-1.701 1.492-2.693 2.004-5.103 2.981-11.81 2.328-16.21-2.004-3.421-3.372-8.244-4.513-12.62-3.447-2.218.54-3.196 3.006-2.242 5.08a26.1 26.1 0 0 0 5.412 7.684 26.4 26.4 0 0 0 11.48 6.66 26.7 26.7 0 0 0 14.32.14c4.394-1.164 8.552-3.4 12-6.8l20.8-20.5a26.08 26.08 0 0 0 0-37.26c-5.222-5.147-12.06-7.721-18.9-7.721z" fill="url(#c)"/>
 <path transform="translate(0) scale(1) translate(0) scale(1) translate(-.00012 -.00015) scale(1) translate(-.00048 -4e-4) scale(1)" d="M17.896 13.876a.49.49 0 0 0-.445.342.55.55 0 0 0 .304.686l.949.38a.487.487 0 0 0 .643-.307.55.55 0 0 0-.304-.686l-.948-.38a.5.5 0 0 0-.199-.035zm-2.032 3.147a.48.48 0 0 0-.318.12.55.55 0 0 0-.059.747l.652.826c.18.228.497.263.71.077a.55.55 0 0 0 .057-.747l-.65-.826a.5.5 0 0 0-.392-.197m-3.302 1.545a.5.5 0 0 0-.102.006c-.274.047-.455.32-.405.61l.18 1.05c.05.29.312.488.586.441.27-.045.455-.317.405-.61l-.18-1.05a.53.53 0 0 0-.484-.447M8.17 1.832a.465.465 0 0 0-.455.573l.239 1.015c.06.258.318.423.577.369a.464.464 0 0 0 .358-.563l-.237-1.015a.494.494 0 0 0-.481-.38M4.308 3.745a.47.47 0 0 0-.297.12.47.47 0 0 0-.022.673l.715.772a.484.484 0 0 0 .679.038.47.47 0 0 0 .022-.672l-.715-.773a.5.5 0 0 0-.382-.158m-2.24 3.619a.47.47 0 0 0-.455.327c-.077.25.066.52.32.601l1.001.324a.47.47 0 0 0 .599-.303.486.486 0 0 0-.32-.602L2.21 7.388a.5.5 0 0 0-.145-.024" fill="#0cf"/>
</svg>
