<svg version="1.1" viewBox="0 0 22 22" xmlns="http://www.w3.org/2000/svg">
 <defs>
  <linearGradient id="a" y1="1">
   <stop stop-color="#f00" offset="0"/>
   <stop stop-color="#ff0086" offset="1"/>
  </linearGradient>
 </defs>
 <path transform="translate(.004321 -1.7e-5) scale(1) translate(-.00091 -.000337) scale(1)" d="m18.38 0.001953a1.13 1.13 0 0 0-1.107 0.7031l-3.057 7.52-0.832-0.2227-0.2266-0.05273a3.506 3.506 0 0 0-3.373 1.23l-0.3789 0.459-0.6719 0.7852-0.25 0.2852-0.5352 0.5957-0.2812 0.3106-0.5957 0.6367c-1.234 1.297-2.697 2.703-4.254 3.926a1.131 1.131 0 0 0 0.2578 1.932l0.9238 0.3906 0.9297 0.377 1.106 0.4414 0.8281 0.3184 0.8828 0.3301 0.9199 0.332 0.4688 0.1621c1.56 0.5384 3.21 1.044 4.586 1.318 0.6842 0.1358 1.35 0.226 1.928 0.2168 0.5068-0.0089 1.255-0.09228 1.777-0.6191 1.422-1.434 1.997-3.386 2.203-5.143 0.2067-1.771 0.05498-3.489-0.1055-4.621-0.1878-1.316-1.176-2.282-2.363-2.6l-0.7441-0.1992 2.953-7.26 0.04102-0.123a1.131 1.131 0 0 0-1.029-1.43zm-11.05 0.9023a0.1273 0.1273 0 0 0-0.09961 0.07617l-0.1133 0.25a5.882 5.882 0 0 1-2.228 2.455l-0.1797 0.1074a0.1223 0.1223 0 0 0 0 0.2109l0.1758 0.1035a5.882 5.882 0 0 1 2.23 2.459l0.1152 0.25a0.1277 0.1277 0 0 0 0.2324 0l0.1133-0.25a5.882 5.882 0 0 1 2.228-2.459l0.1797-0.1035a0.1223 0.1223 0 0 0 0-0.2109l-0.1758-0.1074a5.882 5.882 0 0 1-2.23-2.455l-0.1152-0.25a0.1273 0.1273 0 0 0-0.1172-0.07617 0.1273 0.1273 0 0 0-0.01562 0zm-3.383 5.522a0.081 0.081 0 0 0-0.06836 0.04883l-0.07227 0.1582a3.687 3.687 0 0 1-1.396 1.543l-0.1113 0.06641a0.07714 0.07714 0 0 0 0 0.1328l0.1113 0.06641a3.687 3.687 0 0 1 1.398 1.541l0.07227 0.1582a0.08023 0.08023 0 0 0 0.1484 0l0.07227-0.1562a3.687 3.687 0 0 1 1.396-1.547l0.1152-0.0625a0.07714 0.07714 0 0 0 0-0.1348l-0.1152-0.06445a3.687 3.687 0 0 1-1.398-1.545l-0.07227-0.1562a0.081 0.081 0 0 0-0.08008-0.04883zm8.539 3.723h2e-3a1.234 1.234 0 0 1 0.3066 0.03711l3.779 1.012 0.1309 0.04492c0.3336 0.1346 0.5365 0.4013 0.5781 0.6875l0.02734 0.207 0.05273 0.4434-6.102-1.635 0.2734-0.332a1.234 1.234 0 0 1 0.9512-0.4648zm-2.879 2.695h0.00195l7.848 2.102a12.34 12.34 0 0 1-0.07617 1.022c-0.1732 1.478-0.6208 2.819-1.486 3.74-0.3903 0.08023-0.8228 0.02482-1.232-0.05078l-0.4746-0.08984a12.34 12.34 0 0 0 0.7148-0.9844c0.3213-0.486 0.624-0.9891 0.8828-1.512a1.132 1.132 0 0 0-2.027-1.006l-0.2324 0.4356a13.11 13.11 0 0 1-0.5098 0.8379c-0.4474 0.6784-0.9433 1.274-1.365 1.564a52.84 52.84 0 0 1-1.551-0.502 11.18 11.18 0 0 0 0.8965-0.9707c0.3452-0.4185 0.6745-0.8643 0.9394-1.34a1.131 1.131 0 0 0-1.973-1.1l-0.1621 0.2637a8.1 8.1 0 0 1-0.5527 0.7383 8.254 8.254 0 0 1-1.613 1.514 100.7 100.7 0 0 1-1.957-0.7695 49.76 49.76 0 0 0 3.93-3.893z" fill="url(#a)"/>
</svg>
