<svg version="1.1" viewBox="0 0 22 22" xmlns="http://www.w3.org/2000/svg">
 <g transform="translate(.00026 .000234) scale(1)" stroke-width=".749">
  <path d="M9.69 7.46q-.537 0-.889.347-.352.35-.352.863t.352.865q.351.354.889.354h7.39q.509.001.875-.347.367-.349.366-.863 0-.511-.366-.864a1.22 1.22 0 0 0-.874-.355z" fill="#06f"/>
  <path d="M3.196 6.54q-.891 0-1.531.624a2.04 2.04 0 0 0-.638 1.515q0 .889.63 1.522.635.632 1.527.631.87 0 1.491-.624.62-.625.62-1.512 0-.89-.615-1.524a2 2 0 0 0-1.485-.631z" fill="#f0f"/>
  <path d="M9.69.93q-.537 0-.889.348-.352.35-.352.862 0 .513.352.865.351.354.889.355h10.033q.507 0 .872-.348.368-.35.369-.862 0-.513-.369-.865a1.2 1.2 0 0 0-.872-.355z" fill="#06f"/>
  <path d="M3.17 0Q2.29 0 1.66.624a2.05 2.05 0 0 0-.631 1.515q0 .889.623 1.522.626.63 1.508.63.881.001 1.507-.623.629-.626.629-1.515T4.673.631A2.03 2.03 0 0 0 3.171 0z" fill="#f0f"/>
 </g>
 <path transform="translate(.00026 .000234) scale(1)" d="M13.658 17.346v2.25a.283.283 0 0 1-.464.217l-3.986-3.322a.536.536 0 0 1 0-.824l3.986-3.322a.283.283 0 0 1 .464.217v2.25h1.267c1.338 0 2.687.482 3.581 1.43.76.802 1.308 2.064 1.106 3.987-.549-.866-1.152-1.551-1.858-2.038-.885-.61-1.834-.846-2.829-.846zm2.534 1.462c.98.334 1.828 1.129 2.66 2.623.188.337.54.56.927.56a.97.97 0 0 0 .965-.775c1.019-5.358-2.591-7.67-5.818-7.67v-.983a1.55 1.55 0 0 0-2.542-1.19l-3.988 3.322a1.803 1.803 0 0 0 0 2.77l3.987 3.322a1.55 1.55 0 0 0 2.542-1.191v-.984c.45 0 .87.06 1.267.195" fill="#0cf"/>
</svg>
