<svg xmlns="http://www.w3.org/2000/svg" viewBox="0 0 22 22"><defs><linearGradient id="a" y1="1"><stop offset="0" stop-color="#6203ff"/><stop offset=".704" stop-color="#e901ff"/></linearGradient></defs><path fill="url(#a)" d="M9.043 7.65A9.053 9.053 0 0 0 0 16.693v30.6a9.053 9.053 0 0 0 9.043 9.043h45.9a9.053 9.053 0 0 0 9.043-9.043v-30.6a9.053 9.053 0 0 0-9.043-9.043h-17.17q.046.361.047.734v5.873h17.12c.901 0 1.337.775 1.74 1.504l-9.451 7.525c.554.836.914 1.816.976 2.883.09 1.52-.516 3.172-1.78 4.438v.002l-4.878 5.586 15.12 12.04c-.4.727-.836 1.502-1.738 1.502H9.02c-.9 0-1.335-.775-1.738-1.502l15.12-12.04-4.934-5.59-.044-.046c-1.19-1.271-1.74-2.893-1.633-4.38a5.8 5.8 0 0 1 1.002-2.858l-9.494-7.564c.4-.726.832-1.498 1.734-1.5h17.03V8.386q0-.374.046-.737zM6.607 23.59l10.55 8.402-10.55 8.402zm50.78 0v16.8l-10.55-8.402z" transform="translate(0 .54)scale(.3438)"/><path fill="#00ff7f" d="M10.895 2.094a1.33 1.33 0 0 0-1.242 1.328v6.55L8.375 8.693a1.33 1.33 0 0 0-1.88 1.882l3.552 3.551a1.33 1.33 0 0 0 1.881 0l3.552-3.551a1.33 1.33 0 1 0-1.882-1.882L12.32 9.971V3.422a1.33 1.33 0 0 0-1.423-1.328z"/></svg>