<svg version="1.1" viewBox="0 0 22 22" xmlns="http://www.w3.org/2000/svg">
 <defs>
  <linearGradient id="b" x1="9" x2="16" y1="6" y2="6" gradientTransform="translate(7.959 1.894)scale(2.766)" gradientUnits="userSpaceOnUse">
   <stop stop-color="#5570ff" offset="0"/>
   <stop stop-color="#4dd3ff" offset="1"/>
  </linearGradient>
  <linearGradient id="e" x1="12.46" x2="27.97" y1="46.79" y2="33.22" gradientUnits="userSpaceOnUse">
   <stop stop-color="#8d01a2" offset="0"/>
   <stop stop-color="#ff33db" offset="1"/>
  </linearGradient>
 </defs>
 <path transform="translate(.001595 .00165) scale(1) translate(-6.407 -6.409) scale(1.582) translate(0) scale(1) translate(0) scale(1) translate(0) scale(1) translate(0) scale(.3438)" d="m35.62 43.2a2.766 2.766 0 0 0 0 5.532h13.83a2.766 2.766 0 0 0 0-5.532z" fill="url(#b)" style="-inkscape-stroke:none;font-variation-settings:normal"/>
 <path transform="translate(.001595 .00165) scale(1) translate(-6.407 -6.409) scale(1.582) translate(0) scale(1) translate(0) scale(1) translate(0) scale(1) translate(0) scale(.3438)" d="M26.04 15.27a2.7 2.7 0 0 0-2.009.788l-5.742 5.747-1.914-1.914a2.707 2.707 0 0 0-3.828 3.828l3.828 3.828a2.707 2.707 0 0 0 3.828 0l7.656-7.656a2.707 2.707 0 0 0-1.819-4.621" fill="#0f0"/>
 <path transform="translate(.001595 .00165) scale(1) translate(-6.407 -6.409) scale(1.582) translate(0) scale(1) translate(0) scale(1) translate(0) scale(1) translate(0) scale(.3438)" d="m35.62 15.73a2.766 2.766 0 0 0 0 5.532h13.83a2.766 2.766 0 0 0 0-5.532z" fill="url(#b)"/>
 <path transform="translate(.001595 .00165) scale(1) translate(-6.407 -6.409) scale(1.582) translate(0) scale(1) translate(0) scale(1) translate(0) scale(1) translate(0) scale(.3438)" d="m14.4 33.22a1.94 1.94 0 0 0-1.938 1.938v11.63a1.94 1.94 0 0 0 1.938 1.938h11.63a1.94 1.94 0 0 0 1.938-1.938v-11.63a1.94 1.94 0 0 0-1.938-1.938zm1.938 3.876h7.752v7.752h-7.752z" fill="url(#e)"/>
 <path transform="translate(.001595 .00165) scale(1) translate(-6.407 -6.409) scale(1.582) translate(0) scale(1) translate(0) scale(1) translate(0) scale(1) translate(0) scale(.3438)" d="m35.62 29.46a2.766 2.766 0 0 0 0 5.532h13.83a2.766 2.766 0 0 0 0-5.532z" fill="url(#b)" style="-inkscape-stroke:none;font-variation-settings:normal"/>
</svg>
