<svg xmlns="http://www.w3.org/2000/svg" viewBox="0 0 22 22"><defs><linearGradient id="a" x1="-.436" x2="19.63" y1="22.64" y2="2.58" gradientTransform="matrix(1.097 0 0 .8344 .478 .478)" gradientUnits="userSpaceOnUse"><stop offset="0" stop-color="#6203ff"/><stop offset=".704" stop-color="#e901ff"/></linearGradient></defs><path fill="url(#a)" d="M3.109 2.631A3.11 3.11 0 0 0 0 5.738v10.52a3.11 3.11 0 0 0 3.109 3.107h8.428v-.574c0-.213.045-.427.13-.625l.005-.004q.128-.288.36-.533l.005-.006.531-.53H3.11c-.31 0-.46-.265-.597-.515l5.197-4.14 1.242.99c1.16.924 2.936.924 4.098 0l1.242-.99 1.639 1.306 1.54-1.535h.003l.068-.065-1.442-1.148 3.63-2.889v3.457q.19.048.37.13.426.188.791.525l.008.006.955.957h.002q.076.076.145.16V5.735a3.11 3.11 0 0 0-3.11-3.107zm0 2.272h15.78c.31 0 .46.266.598.516l-8.078 6.434c-.217.172-.605.172-.82 0L2.51 5.419c.139-.25.288-.516.598-.516zm-.838 3.209 3.63 2.889-3.63 2.889z" transform="translate(0 -1.294)scale(.9982)"/><path fill="#ff0" d="M13.216 20.666a1.17 1.17 0 0 1-.854-.348 1.17 1.17 0 0 1-.349-.855v-1.996q0-.216.09-.424.09-.202.269-.395l5.416-5.395a1.93 1.93 0 0 1 1.344-.568q.382 0 .726.153.345.152.653.435l.947.947q.28.285.41.63a2 2 0 0 1-.014 1.438 2.1 2.1 0 0 1-.424.65l-5.373 5.396a1.2 1.2 0 0 1-.392.256 1.3 1.3 0 0 1-.452.077zm.717-1.92h.972l3.021-3.04-.094-.099.094.094-.46-.486-.487-.46-3.046 3.014zm3.899-3.14-.853-.852.486.466z"/></svg>