<svg version="1.1" viewBox="0 0 22 22" xmlns="http://www.w3.org/2000/svg">
 <g transform="translate(-0 -.000508) scale(.9999) translate(-3.2e-5 .7347) scale(1) translate(-.0007737 -2.109)" fill="#0ff">
  <path d="m11.08 3.755-5.29 4.703c-0.989 0.88-1.484 1.318-1.667 1.839-0.16 0.456-0.16 0.952 0 1.408 0.183 0.52 0.677 0.959 1.667 1.839l5.291 4.702c0.449 0.4 0.673 0.599 0.864 0.606a0.53 0.53 0 0 0 0.43-0.193c0.121-0.147 0.121-0.447 0.121-1.048v-1.966c0-0.552 0.449-1.004 1-0.96 2.269 0.183 4.563 0.978 6.297 2.261 1.036 0.766 1.555 1.148 1.752 1.134a0.48 0.48 0 0 0 0.415-0.255c0.102-0.17 0.012-0.7-0.17-1.757-1.062-6.221-5.038-8.319-8.296-8.66-0.55-0.059-0.998-0.501-0.998-1.053v-1.965c0-0.6 0-0.9-0.122-1.047a0.53 0.53 0 0 0-0.43-0.193c-0.191 6e-3 -0.415 0.206-0.864 0.606z"/>
  <path d="m8.25 2.486a0.797 0.797 0 0 0-1.127-0.043l-5.544 5.15a4.94 4.94 0 0 0-1.1 5.74c0.298 0.63 0.728 1.19 1.259 1.641l5.41 4.606a0.7977 0.7977 0 1 0 1.035-1.214l-5.41-4.606a3.345 3.345 0 0 1-0.11-5l5.546-5.15a0.797 0.797 0 0 0 0.042-1.127z" opacity=".4"/>
 </g>
 <path transform="translate(-0 -.000508) scale(.9999) translate(-3.2e-5 .7347) scale(1)" d="m16.27 13.67c0.057 0 0.114 0.025 0.147 0.075l0.524 0.786 0.848-0.419a0.176 0.176 0 0 1 0.256 0.148l0.06 0.943 0.944 0.06a0.177 0.177 0 0 1 0.148 0.256l-0.419 0.847 0.786 0.525a0.178 0.178 0 0 1 0 0.295l-0.787 0.525 0.42 0.847a0.178 0.178 0 0 1-0.148 0.256l-0.944 0.06-0.06 0.944a0.18 0.18 0 0 1-0.089 0.143 0.18 0.18 0 0 1-0.167 5e-3l-0.847-0.419-0.525 0.786a0.177 0.177 0 0 1-0.295 0l-0.524-0.786-0.847 0.419a0.178 0.178 0 0 1-0.256-0.148l-0.062-0.943-0.943-0.061a0.177 0.177 0 0 1-0.148-0.256l0.42-0.847-0.787-0.525a0.177 0.177 0 0 1 0-0.295l0.786-0.524-0.418-0.848a0.177 0.177 0 0 1 0.148-0.255l0.942-0.061 0.062-0.943a0.18 0.18 0 0 1 0.088-0.143 0.18 0.18 0 0 1 0.168-5e-3l0.847 0.419 0.524-0.786a0.18 0.18 0 0 1 0.148-0.075z" fill="#ff0" stroke-width="1.127"/>
</svg>
