<svg version="1.1" viewBox="0 0 22 22" xmlns="http://www.w3.org/2000/svg">
 <g transform="translate(.000244 6.5e-5) scale(1)" stroke-width=".949">
  <path d="M16.019.73a1.66 1.66 0 0 0-1.707 1.66V3.44c-3.454 0-7.32 2.474-6.23 8.21.094.49.536.83 1.035.83.414 0 .791-.237.993-.598.89-1.6 1.797-2.451 2.847-2.81a4.1 4.1 0 0 1 1.356-.208v1.052a1.659 1.659 0 0 0 2.72 1.275l4.269-3.555a1.93 1.93 0 0 0 0-2.966l-4.268-3.556A1.66 1.66 0 0 0 16.019.73zm-.037 1.355a.3.3 0 0 1 .185.07l4.266 3.556a.574.574 0 0 1 0 .883l-4.266 3.556a.303.303 0 0 1-.498-.233V7.509h-1.356c-1.064 0-2.08.252-3.027.906-.756.52-1.402 1.253-1.99 2.18-.216-2.057.37-3.409 1.185-4.269.957-1.014 2.4-1.529 3.832-1.529h1.356V2.39a.303.303 0 0 1 .313-.304z" fill="#00ff80"/>
  <path d="M5.978 21.267a1.66 1.66 0 0 0 1.706-1.66v-1.052c3.454 0 7.32-2.473 6.23-8.21-.093-.489-.536-.83-1.035-.83-.414 0-.79.237-.992.599-.892 1.599-1.798 2.45-2.848 2.809a4.1 4.1 0 0 1-1.356.208v-1.052a1.659 1.659 0 0 0-2.72-1.275L.694 14.36a1.93 1.93 0 0 0 0 2.965l4.267 3.556a1.66 1.66 0 0 0 1.015.385zm.037-1.356a.3.3 0 0 1-.186-.07l-4.265-3.556a.574.574 0 0 1 0-.883l4.265-3.556a.303.303 0 0 1 .498.233v2.408h1.356c1.064 0 2.08-.252 3.028-.906.755-.52 1.402-1.252 1.99-2.18.216 2.057-.372 3.41-1.185 4.27-.958 1.013-2.401 1.528-3.833 1.528H6.327v2.408a.303.303 0 0 1-.312.303z" fill="#0cf"/>
 </g>
</svg>
