<svg version="1.1" viewBox="0 0 22 22" xmlns="http://www.w3.org/2000/svg">
 <defs>
  <linearGradient id="a" x2="0" y2="1">
   <stop stop-color="#248efe" offset="0"/>
   <stop stop-color="#1df4ff" offset="1"/>
  </linearGradient>
 </defs>
 <g transform="translate(0) scale(1) translate(.00035 .00015) scale(1) translate(-.00135 .00014) scale(1) translate(-1.57 -.786) scale(1.571)" fill="url(#a)">
  <path d="M7.949 2.002a.75.75 0 0 0-.7.748v3.69l-.72-.719a.75.75 0 0 0-1.059 1.06l2 2a.75.75 0 0 0 1.06 0l2-2a.75.75 0 1 0-1.06-1.06l-.72.719V2.75a.75.75 0 0 0-.801-.748z"/>
  <path d="M4.783 3a2.25 2.25 0 0 0-2.102 1.449L1.146 8.474a2.3 2.3 0 0 0-.146.8v1.476A2.25 2.25 0 0 0 3.25 13h9.5A2.25 2.25 0 0 0 15 10.75V9.275c0-.274-.05-.545-.147-.801l-1.535-4.025A2.25 2.25 0 0 0 11.216 3h-.467a.75.75 0 0 0 0 1.5h.467a.75.75 0 0 1 .701.482L13.447 9h-2.413a1 1 0 0 0-.832.446l-.406.61a1 1 0 0 1-.832.444h-1.93a1 1 0 0 1-.832-.445l-.406-.61A1 1 0 0 0 4.964 9H2.552L4.08 4.982a.75.75 0 0 1 .701-.482h.467a.75.75 0 0 0 0-1.5z"/>
 </g>
</svg>
