<svg version="1.1" viewBox="0 0 22 22" xmlns="http://www.w3.org/2000/svg">
 <g transform="translate(-.000155) scale(1)" stroke-width="1.127">
  <path d="M9.445.004a2.4 2.4 0 0 1 2.471 2.402V3.93c4.998 0 10.596 3.578 9.014 11.875-.135.707-.775 1.2-1.498 1.2-.599 0-1.143-.342-1.435-.866-1.29-2.314-2.601-3.546-4.12-4.064-.615-.21-1.265-.302-1.963-.302v1.523a2.4 2.4 0 0 1-3.936 1.844L1.802 9.994a2.793 2.793 0 0 1 0-4.292L7.978.557A2.4 2.4 0 0 1 9.448 0zM9.5 1.966a.44.44 0 0 0-.268.103L3.058 7.214a.83.83 0 0 0 0 1.277l6.173 5.145a.438.438 0 0 0 .72-.337V9.814h1.962c1.54 0 3.011.365 4.382 1.31 1.093.754 2.029 1.814 2.878 3.155.313-2.979-.537-4.934-1.714-6.177-1.385-1.467-3.475-2.212-5.547-2.212H9.95V2.405a.44.44 0 0 0-.452-.44z" fill="#0cf"/>
  <path d="M13.887 15.257c.057 0 .114.025.147.075l.524.786.848-.419a.176.176 0 0 1 .256.148l.06.943.944.06a.177.177 0 0 1 .148.256l-.419.847.786.525a.178.178 0 0 1 0 .295l-.787.525.42.847a.178.178 0 0 1-.148.256l-.944.06-.06.944a.18.18 0 0 1-.089.143.18.18 0 0 1-.167.005l-.847-.419-.525.786a.177.177 0 0 1-.295 0l-.524-.786-.847.419a.178.178 0 0 1-.256-.148l-.062-.943-.943-.061a.177.177 0 0 1-.148-.256l.42-.847-.787-.525a.177.177 0 0 1 0-.295l.786-.524-.418-.848a.177.177 0 0 1 .148-.255l.942-.061.062-.943a.18.18 0 0 1 .088-.143.18.18 0 0 1 .168-.005l.847.419.524-.786a.18.18 0 0 1 .148-.075z" fill="#ff0"/>
 </g>
</svg>
