<svg version="1.1" viewBox="0 0 22 22" xmlns="http://www.w3.org/2000/svg">
 <g transform="translate(.000456 -.000294) scale(1)" stroke-width="1.834">
  <path d="M.402 6.471a1.375 1.375 0 0 1 0-1.944L4.527.403a1.375 1.375 0 0 1 1.944 0l4.124 4.124a1.375 1.375 0 0 1-1.943 1.944L6.874 4.693v10.43a1.375 1.375 0 0 1-2.75 0V4.692L2.346 6.471a1.375 1.375 0 0 1-1.944 0" fill="#00ff80"/>
  <path d="m21.6 15.53a1.375 1.375 0 0 1 0 1.943l-4.124 4.125a1.375 1.375 0 0 1-1.944 0l-4.125-4.125a1.375 1.375 0 1 1 1.944-1.944l1.778 1.778v-10.43a1.375 1.375 0 0 1 2.75 0v10.43l1.777-1.779a1.375 1.375 0 0 1 1.944 0" fill="#0cf"/>
 </g>
</svg>
