<svg xmlns="http://www.w3.org/2000/svg" viewBox="0 0 22 22"><defs><linearGradient id="a" x1="7.443" x2="10.25" y1="10.01" y2="12.75" gradientTransform="translate(.694 -3.734)scale(1.671)" gradientUnits="userSpaceOnUse"><stop offset="0" stop-color="#01ff01"/><stop offset="1" stop-color="#1bc100"/></linearGradient></defs><g stroke-width=".933"><path fill="#0cf" d="M8.181 12.979a.985.985 0 0 0-.98.98v.226c0 .537.443.98.98.98H10a.984.984 0 0 0 .978-.98v-.226a.984.984 0 0 0-.978-.98zM8.18.25a.984.984 0 0 0-.98.98v.226c0 .537.442.98.98.98h11.358c.537 0 .98-.443.98-.98V1.23a.985.985 0 0 0-.98-.98zm0 3.18a.984.984 0 0 0-.98.98v.228c0 .538.442.979.98.979h8.178c.538 0 .98-.441.98-.979v-.227a.985.985 0 0 0-.98-.98z"/><path fill="#f0f" d="M2.728.547A2.724 2.724 0 0 0 0 3.275c0 .723.287 1.417.798 1.93A2.729 2.729 0 1 0 2.728.546M2.728 10.09a2.724 2.724 0 0 0-1.93 4.655 2.729 2.729 0 1 0 1.93-4.655"/></g><path fill="url(#a)" d="M16.57 10.89a1.253 1.253 0 0 0-1.253 1.253v2.924h-2.924a1.253 1.253 0 0 0-1.253 1.253 1.253 1.253 0 0 0 1.253 1.253h2.924v2.924a1.253 1.253 0 0 0 1.253 1.253 1.253 1.253 0 0 0 1.253-1.253v-2.924h2.924A1.253 1.253 0 0 0 22 16.32a1.253 1.253 0 0 0-1.253-1.253h-2.924v-2.924a1.253 1.253 0 0 0-1.253-1.253" transform="scale(.9999)"/><path fill="#0cf" d="M8.18 9.794a.98.98 0 0 0-.98.979V11c0 .537.442.98.98.98h4.998c.537 0 .98-.443.98-.98v-.227a.984.984 0 0 0-.98-.979z"/></svg>