<svg version="1.1" viewBox="0 0 22 22" xmlns="http://www.w3.org/2000/svg">
 <defs>
  <linearGradient id="a" x1="1" x2="0" y1="1">
   <stop stop-color="#6203ff" offset="0"/>
   <stop stop-color="#e901ff" offset=".704"/>
  </linearGradient>
 </defs>
 <path transform="translate(0 -1e-5) scale(1) translate(0 .004499) scale(.9997) translate(0 -1e-5) scale(1) translate(0) scale(1) translate(2e-4 2e-4) scale(1) translate(.478 .478) scale(.9564)" d="m2.749 2.251a3.254 3.254 0 0 0-3.249 3.249v11a3.254 3.254 0 0 0 3.249 3.249h13.81c-0.04471-0.03714-0.08731-0.07668-0.1287-0.1184-0.3522-0.3551-0.5453-0.8362-0.5453-1.336v-0.921h-13.13c-0.324 0-0.4799-0.2781-0.6249-0.5391l5.432-4.325h0.002042l1.297 1.033c1.214 0.967 3.073 0.967 4.287 0l0.03063-0.02451c0.04103-0.03653 0.08456-0.07128 0.1287-0.1042l0.03063-0.02246 1.107-0.8822 0.6698 0.533h0.774v-1.476c4.53e-4 -0.5055 0.2132-0.9879 0.582-1.334 0.3588-0.3413 0.8363-0.532 1.331-0.531h0.006127v-0.002042h0.002042a0.5228 0.5228 0 0 1 0.1042 0.04697l2.22-1.766v5.065h1.031c0.5044 3.62e-4 0.9873 0.2092 1.334 0.5759 0.003121 0.003275 0.007114 0.006917 0.01021 0.01021v-8.132a3.254 3.254 0 0 0-3.251-3.249h-16.5zm0 2.375h16.5c0.324 0 0.4799 0.2771 0.6249 0.5391l-8.444 6.725c-0.226 0.18-0.6328 0.18-0.8598 0l-8.444-6.725c0.1437-0.2604 0.2993-0.5379 0.6229-0.5391zm-0.874 3.355 3.792 3.02-3.792 3.02v-6.041zm20.63 8.289c-0.009782 0.01015-0.02058 0.02068-0.03063 0.03063-0.3564 0.3531-0.8401 0.5495-1.342 0.5453h-1.262c-0.05599 0.1014-0.1143 0.2058-0.1838 0.2941v1.178c-3.42e-4 0.5066-0.2104 0.9911-0.58 1.338-0.03439 0.03267-0.06975 0.06406-0.1062 0.09394h0.2532a3.254 3.254 0 0 0 3.251-3.249v-0.2308z" fill="url(#a)"/>
 <path transform="translate(0 -1e-5) scale(1) translate(0 .004499) scale(.9997) translate(0 -1e-5) scale(1)" d="m17.5 10.26a1.342 1.342 0 0 0-0.9368 0.3727 1.251 1.251 0 0 0-0.3967 0.913v1.911h-1.886a1.293 1.293 0 0 0-1.311 1.303c0 0.3545 0.1334 0.6824 0.3759 0.9368a1.251 1.251 0 0 0 0.9105 0.3967h1.91v1.887c0 0.3533 0.1317 0.6795 0.3767 0.9265 0.2474 0.2499 0.5835 0.3815 0.9495 0.3815 0.341 0 0.661-0.1298 0.9138-0.3711a1.256 1.256 0 0 0 0.3967-0.915v-1.907h1.887a1.301 1.301 0 0 0 0.9265-0.3767c0.2499-0.2474 0.3807-0.5827 0.3807-0.9487 0-0.341-0.1294-0.6623-0.3702-0.915a1.256 1.256 0 0 0-0.9142-0.3959h-1.908v-1.889c0-0.3533-0.1321-0.6803-0.3767-0.9273a1.288 1.288 0 0 0-0.9265-0.3807z" fill="#0f0" stroke-width=".4103"/>
</svg>
