<svg version="1.1" viewBox="0 0 22 22" xmlns="http://www.w3.org/2000/svg">
 <defs>
  <linearGradient id="a" x2="0" y2="1">
   <stop stop-color="#ffe100" offset="0"/>
   <stop stop-color="#f0e" offset="1"/>
  </linearGradient>
 </defs>
 <g transform="translate(-.000181 .000634) scale(1) translate(-.002 .003) scale(.9999)" fill="url(#a)">
  <path d="M4.511 3.83c-.719 0-1.298.579-1.298 1.298v1.298A2.59 2.59 0 0 0 .617 9.022v10.38a2.59 2.59 0 0 0 2.596 2.596h15.58a2.59 2.59 0 0 0 2.596-2.596V9.022a2.59 2.59 0 0 0-2.596-2.596V5.128c0-.719-.579-1.298-1.298-1.298h-2.802q.026.26.026.544v.192l.18.186q.17.172.268.376h2.328v5.684l-5.79 4.61a1.15 1.15 0 0 1-1.398 0l-5.791-4.61V5.128h2.356q.09-.196.249-.36l.17-.173V4.29q0-.235.018-.459H4.516zM3.213 7.724V9.78l-1.25-.996c.115-.6.615-1.06 1.25-1.06zm15.58 0c.635 0 1.135.46 1.25 1.06l-1.25.996zm-16.87 2.658 4.808 3.831-4.808 3.831zm18.17 0v7.662l-4.808-3.831zm-12.33 4.651 1.517 1.209c.949.755 2.51.755 3.459 0l1.517-1.209 5.791 4.609c-.115.6-.615 1.06-1.25 1.06H3.217c-.635 0-1.135-.46-1.25-1.06l5.791-4.609z"/>
  <path d="M6.256 11.64c-.7-.174-.763-1.261-.088-1.519.128-.049.223-.058.793-.075 1.086-.034 1.437-.22 2.093-1.11.239-.326.243-.264-.03-.502-1.89-1.646-2.468-2.804-1.76-3.525l.227-.233v-.39q0-3.167 3.375-4.191c.619-.188.644-.166.694.595l.03.467.326.072c1.83.406 2.59 1.328 2.59 3.14v.275l.241.248c.685.708.297 1.575-1.506 3.36l-.424.421.148.217c.587.855 1.079 1.119 2.15 1.155.953.031 1.191.194 1.19.816 0 .655-.296.829-1.349.792-1.072-.037-1.522-.264-2.516-1.274-.741-.752-.699-.73-1.381-.743-.724-.013-.648-.05-1.335.646-.768.78-1.154 1.051-1.768 1.248-.38.122-1.389.187-1.7.11zm5.204-3.633c.54-.26 2.295-2.128 2.295-2.442 0-.083-.075-.153-.318-.295-.207-.12-.2-.091-.2-.786 0-1.373-.32-1.77-1.716-2.14-.209-.055-.225-.08-.225-.35 0-.204.015-.196-.245-.14-1.521.32-2.02.938-2.05 2.541l-.015.756-.303.118c-.469.183-.507.247-.331.555.2.349 1.662 1.836 2.085 2.119.333.223.651.243 1.023.063z"/>
 </g>
</svg>
