<svg version="1.1" viewBox="0 0 22 22" xmlns="http://www.w3.org/2000/svg">
 <path transform="translate(-.000705 -.00295) scale(1) translate(-0) scale(1)" d="m9.445 4e-3a2.4 2.4 0 0 1 2.471 2.402v1.524c4.998 0 10.6 3.578 9.014 11.88-0.135 0.707-0.775 1.2-1.498 1.2-0.599 0-1.143-0.342-1.435-0.866-1.29-2.314-2.601-3.546-4.12-4.064-0.615-0.21-1.265-0.302-1.963-0.302v1.523a2.4 2.4 0 0 1-3.936 1.844l-6.176-5.146a2.793 2.793 0 0 1 0-4.292l6.176-5.145a2.4 2.4 0 0 1 1.47-0.557zm0.055 1.962a0.44 0.44 0 0 0-0.268 0.103l-6.174 5.145a0.83 0.83 0 0 0 0 1.277l6.173 5.145a0.438 0.438 0 0 0 0.72-0.337v-3.485h1.962c1.54 0 3.011 0.365 4.382 1.31 1.093 0.754 2.029 1.814 2.878 3.155 0.313-2.979-0.537-4.934-1.714-6.177-1.385-1.467-3.475-2.212-5.547-2.212h-1.962v-3.485a0.44 0.44 0 0 0-0.452-0.44z" fill="#0ff" stroke-width="1.127"/>
 <path transform="translate(-.000705 -.00295) scale(1) translate(-0) scale(1)" d="m13.89 15.26c0.057 0 0.114 0.025 0.147 0.075l0.524 0.786 0.848-0.419a0.176 0.176 0 0 1 0.256 0.148l0.06 0.943 0.944 0.06a0.177 0.177 0 0 1 0.148 0.256l-0.419 0.847 0.786 0.525a0.178 0.178 0 0 1 0 0.295l-0.787 0.525 0.42 0.847a0.178 0.178 0 0 1-0.148 0.256l-0.944 0.06-0.06 0.944a0.18 0.18 0 0 1-0.089 0.143 0.18 0.18 0 0 1-0.167 5e-3l-0.847-0.419-0.525 0.786a0.177 0.177 0 0 1-0.295 0l-0.524-0.786-0.847 0.419a0.178 0.178 0 0 1-0.256-0.148l-0.062-0.943-0.943-0.061a0.177 0.177 0 0 1-0.148-0.256l0.42-0.847-0.787-0.525a0.177 0.177 0 0 1 0-0.295l0.786-0.524-0.418-0.848a0.177 0.177 0 0 1 0.148-0.255l0.942-0.061 0.062-0.943a0.18 0.18 0 0 1 0.088-0.143 0.18 0.18 0 0 1 0.168-5e-3l0.847 0.419 0.524-0.786a0.18 0.18 0 0 1 0.148-0.075z" fill="#ff0" stroke-width="1.127"/>
</svg>
