<svg version="1.1" viewBox="0 0 22 22" xmlns="http://www.w3.org/2000/svg">
 <defs>
  <linearGradient id="b" x1="1" x2="0" y1="1">
   <stop stop-color="#6203ff" offset="0"/>
   <stop stop-color="#e901ff" offset=".704"/>
  </linearGradient>
  <linearGradient id="a" y2="1">
   <stop stop-color="#ffc100" offset="0"/>
   <stop stop-color="#ff0069" offset="1"/>
  </linearGradient>
 </defs>
 <path transform="translate(0) scale(1) translate(0) scale(1) translate(0 .00197) scale(1) translate(0 -1e-5) scale(1) matrix(.9564 0 0 .9564 .4782 .4782)" d="m2.749 2.251a3.254 3.254 0 0 0-3.249 3.249v11a3.254 3.254 0 0 0 3.249 3.249h13.18c-1.002-0.5063-1.807-1.348-2.269-2.375h-10.91c-0.324 0-0.4799-0.2781-0.6249-0.5391l5.432-4.325h0.00204l1.297 1.033c1.214 0.967 3.073 0.967 4.287 0l0.7209-0.5759c0.6198-1.094 1.648-1.927 2.875-2.291h2e-3l3.388-2.696v2.924c1.028 0.4626 1.869 1.269 2.375 2.273v-7.679a3.254 3.254 0 0 0-3.251-3.249zm0 2.375h16.5c0.324 0 0.4799 0.2771 0.6249 0.5391l-8.444 6.725c-0.226 0.18-0.6328 0.18-0.8598 0l-8.444-6.725c0.1437-0.2604 0.2993-0.5379 0.6229-0.5391zm-0.874 3.355 3.792 3.02-3.792 3.02z" fill="url(#b)"/>
 <path transform="translate(0) scale(1) translate(0) scale(1) translate(0 .00197) scale(1) translate(0 -1e-5) scale(1)" d="m17.81 11a0.5235 0.5235 0 1 0 0 1.046 3.137 3.137 0 1 1-3.138 3.138 0.5235 0.5235 0 1 0-1.045 0 4.184 4.184 0 0 0 4.184 4.184 4.184 4.184 0 0 0 4.183-4.184 4.19 4.19 0 0 0-4.184-4.184m-1.866 0.662a0.5235 0.5235 0 1 0 0.06508 1.044 0.5235 0.5235 0 0 0-0.06508-1.044m-1.334 1.344a0.5207 0.5207 0 0 0-0.4026 0.2324 0.5225 0.5225 0 1 0 0.4026-0.2324zm3.396 0.02045a0.6295 0.6295 0 0 0-0.6295 0.6295v1.349l-0.9856 0.6564a0.6313 0.6313 0 0 0 0.6992 1.049l1.265-0.8433a0.6323 0.6323 0 0 0 0.2817-0.5244v-1.686a0.6323 0.6323 0 0 0-0.6304-0.6295z" fill="url(#a)" stroke-width=".9298"/>
</svg>
