<svg fill="none" version="1.1" viewBox="0 0 22 22" xmlns="http://www.w3.org/2000/svg">
 <defs>
  <linearGradient id="a" x1="63.85" x2="63.85" y1="115" y2="13" gradientUnits="userSpaceOnUse">
   <stop stop-color="#02aa93" offset="0"/>
   <stop stop-color="#67ff80" offset="1"/>
  </linearGradient>
  <linearGradient id="b" x1="64" x2="64" y1="74" y2="28" gradientUnits="userSpaceOnUse">
   <stop stop-color="#a93aff" offset="0"/>
   <stop stop-color="#ff81ff" offset="1"/>
  </linearGradient>
 </defs>
 <path transform="translate(.00013 .000108) scale(1) translate(-1.11 -1.137) scale(.1896)" d="M63.85 115c-.98 0-1.897-.48-2.455-1.285-7.218-10.41-13.46-18.39-18.48-24.8-11.55-14.76-17.91-22.89-17.91-37.07 0-21.42 17.43-38.85 38.85-38.85s38.85 17.43 38.85 38.85c0 14.16-6.406 22.36-18.04 37.23-4.995 6.388-11.21 14.34-18.35 24.64A2.99 2.99 0 0 1 63.86 115z" stroke="url(#a)" stroke-width="14"/>
 <path transform="translate(.00013 .000108) scale(1) translate(-1.11 -1.137) scale(.1896)" d="M64 28c-12.7 0-23 10.3-23 23s10.3 23 23 23 23-10.3 23-23-10.3-23-23-23m-2.304 4.396c.268-.028.609.016.88 0 .031.128-.196.584-.501 1.251-1.947 4.254-2.058 9.241-.25 11.9.326.483.622.941.622 1.001s-.352.122-.751.122c-.936 0-1.822-.569-3.632-2.002-.804-.637-1.848-1.17-2.252-1.251-.636-.127-.807-.072-1.63.75-.766.766-1.001 1.18-1.001 1.88 0 2.658 3.153 4.765 9.016 6.008 7.963 1.688 9.926 3.206 10.15 7.393.276 5.25-2.521 9.212-8.644 12.28-.73.366-1.195.504-1.502.622-.136-.012-.237.013-.372 0-.052-.162-.129-.537-.129-1.25 0-2.79-1.097-5.66-2.753-7.265-.444-.43-1.693-1.342-2.76-2.002s-2.14-1.425-2.38-1.752c-.398-.542-.428-.877-.122-1.88.556-1.83 1.216-2.854 2.503-4.01.674-.607 1.352-1.112 1.502-1.124s-.857-.318-2.374-.629c-1.517-.31-3.742-.964-4.89-1.38-2.1-.759-4.926-2.35-6.007-3.504-.046-.048-.09-.085-.129-.128 1.548-6.165 5.89-11.21 11.65-13.65 1.205-.51 2.45-.861 3.761-1.13.653-.133 1.328-.182 2.002-.25zm18.79 9.395c.47.291 2.246 4.137 2.753 6.013.655 2.422.608 6.611 0 9.016-.231.916-.524 1.774-.623 1.88s-.458-.506-.879-1.251c-.42-.745-1.765-2.332-2.88-3.51-3.224-3.401-3.732-5.173-2.382-7.887.681-1.369 3.647-4.486 4.011-4.261" fill="url(#b)"/>
</svg>
