<svg xmlns="http://www.w3.org/2000/svg" viewBox="0 0 22 22"><defs><linearGradient id="a" y1="1"><stop offset="0" stop-color="#ffd458"/><stop offset="1" stop-color="#ffffd5"/></linearGradient></defs><path fill="url(#a)" d="M360.2-251.7q-44.805 0-75.3-30.51c-20.34-20.33-30.5-45.44-30.5-75.31v-74.02c0-14.82 5.133-27.34 15.4-37.57 10.26-10.22 22.83-15.32 37.71-15.32 14.87 0 27.38 5.1 37.51 15.32 10.13 10.23 15.2 22.75 15.2 37.57v74.02h238.5v-74.02c0-14.82 5.133-27.34 15.4-37.57 10.26-10.22 22.79-15.32 37.61-15.32 14.8 0 27.5 5.1 38.07 15.32 10.57 10.23 15.86 22.75 15.86 37.57v74.02c0 29.87-10.28 54.98-30.83 75.31-20.56 20.34-45.93 30.51-76.1 30.51zm550 54.81c0 29.85-10.13 54.95-30.62 75.32-20.26 20.31-45.48 30.5-75.19 30.5h-139.6c-14.86 0-27.46-5.13-37.6-15.4-10.36-10.25-15.31-22.82-15.31-37.71 0-14.88 4.953-27.36 15.31-37.5 10.13-10.13 22.74-15.2 37.6-15.2h139.6v-565.1h-139.6c-14.86 0-27.46-5.14-37.6-15.4-10.36-10.26-15.31-22.8-15.31-37.62 0-14.8 4.953-27.49 15.31-38.06 10.13-10.58 22.74-15.85 37.6-15.85h139.6c29.72 0 54.93 10.27 75.19 30.81 20.49 20.57 30.62 45.94 30.62 76.12zM49.8-761.99c0-30.16 10.14-55.62 30.62-76.1 20.27-20.47 45.49-30.83 75.19-30.83h139.6c14.86 0 27.47 5.39 37.6 15.97 10.36 10.58 15.32 23.18 15.32 38.05s-4.964 27.24-15.32 37.61c-10.13 10.12-22.74 15.3-37.6 15.3h-139.6v565.1h139.6c14.86 0 27.47 5.07 37.6 15.2 10.36 10.14 15.32 22.62 15.32 37.5 0 14.89-4.964 27.46-15.32 37.71-10.13 10.28-22.74 15.4-37.6 15.4h-139.6c-29.71 0-54.92-10.18-75.19-30.5-20.48-20.37-30.62-45.47-30.62-75.32z" transform="translate(-1.273 23.268)scale(.02556)"/></svg>