<svg version="1.1" viewBox="0 0 22 22" xmlns="http://www.w3.org/2000/svg">
 <defs>
  <style>.ColorScheme-Text {
        color:#232629;
      }</style>
  <linearGradient id="a" x1="1" x2="0" y2="1">
   <stop stop-color="#de14ff" offset="0"/>
   <stop stop-color="#7f00ff" offset="1"/>
  </linearGradient>
 </defs>
 <path transform="translate(0) scale(1) translate(-.000507 .005093) scale(.9999) translate(.48 .4848) scale(.9562)" d="m6.873-0.502s-1.82-0.006731-3.658 0.9121c-1.787 0.8936-3.554 2.814-3.652 6.23l-0.003906 0.0039h-0.001953l-0.001953 0.00195v0.00195h-0.001953v0.00195h0.005859c-0.002541 0.09205-0.06055 0.1283-0.06055 0.2227a0.5 0.5 0 0 0 0.9492 0.2207c0.6624-1.325 1.236-1.976 2.125-2.365 0.7748-0.3393 2.066-0.4123 3.682-0.4414-0.06982 6.992-1.001 10.67-1.941 12.71-0.4859 1.056-0.9613 1.723-1.35 2.316-0.3883 0.5934-0.7137 1.166-0.7148 1.906a0.5 0.5 0 0 0 0.1953 0.3965c1.167 0.8956 2.666 1.104 3.928 0.6309 1.261-0.4732 2.265-1.67 2.398-3.391v-0.0039l1.203-14.68 4.475-0.01562-1.199 14.7a0.5 0.5 0 0 0-2e-3 0.03906c0 1.142 0.3929 2.067 1.033 2.682 0.6403 0.6147 1.504 0.9121 2.389 0.9121 1.769 0 3.677-1.186 4.428-3.438l1.375-4.123a0.5 0.5 0 0 0-0.9238-0.3828c-0.6427 1.285-2.015 2.991-3.092 3.762-0.2692 0.1927-0.5166 0.325-0.7051 0.3867-0.1884 0.06172-0.2941 0.04966-0.3438 0.0293-0.04967-0.02036-0.109-0.05162-0.1797-0.2441-0.06993-0.1905-0.1236-0.5292-0.1113-1.006l1.125-13.3 3.754-0.01562a0.5 0.5 0 0 0 0.502-0.498v-3.666a0.5 0.5 0 0 0-0.502-0.5z" fill="url(#a)"/>
</svg>
