<svg xmlns="http://www.w3.org/2000/svg" viewBox="0 0 22 22"><defs><linearGradient id="a" x1="1" x2="0" y1=".5" y2=".5"><stop offset="0" stop-color="#6100ff"/><stop offset=".25" stop-color="#ce04d2"/><stop offset=".5" stop-color="#f9377a"/><stop offset=".75" stop-color="#e36d00"/><stop offset="1" stop-color="#fec600"/></linearGradient></defs><path fill="url(#a)" d="M20.95 2.6a3.5 3.5 0 0 0-2.475 1.025l-14.85 14.85a3.5 3.5 0 0 0 0 4.949l4.951 4.951a3.5 3.5 0 0 0 4.949 0l14.85-14.85a3.5 3.5 0 0 0 0-4.949l-4.951-4.951A3.5 3.5 0 0 0 20.949 2.6zm0 2a1.5 1.5 0 0 1 1.06.44l4.951 4.95a1.5 1.5 0 0 1 0 2.121l-14.85 14.85a1.5 1.5 0 0 1-2.121 0l-4.951-4.95a1.5 1.5 0 0 1 0-2.122l.353-.353 2.123 2.12a1 1 0 1 0 1.414-1.413l-2.123-2.121 1.77-1.768 3.535 3.535a1 1 0 1 0 1.414-1.414L9.99 14.94l1.768-1.768 2.122 2.12a1 1 0 1 0 1.413-1.413l-2.12-2.121L14.94 9.99l3.536 3.535a1 1 0 1 0 1.414-1.414l-3.535-3.535 1.768-1.77 2.12 2.123a1 1 0 1 0 1.415-1.414l-2.121-2.123.353-.354a1.5 1.5 0 0 1 1.06-.439z" transform="translate(-2.134 -2.134)scale(.8209)"/></svg>