<svg version="1.1" viewBox="0 0 22 22" xmlns="http://www.w3.org/2000/svg">
 <defs>
  <linearGradient id="a" y1=".5" y2=".5">
   <stop stop-color="#f0f" offset="0"/>
   <stop stop-color="#fd5" offset="1"/>
  </linearGradient>
 </defs>
 <path transform="translate(.000253 .002858) scale(.9994) translate(-.8226 .1203) scale(1.392)" d="m3.256 3.098c-0.06616 0.001836-0.1328 0.006357-0.2012 0.01367-0.7767 0.08307-1.482 0.499-1.936 1.135-0.637 0.8922-0.5195 1.868-0.5195 3.572s-0.1175 2.68 0.5195 3.572c0.454 0.6357 1.159 1.052 1.936 1.135 1.094 0.1171 1.871-0.4817 3.322-1.334s2.35-1.247 2.789-2.25c0.3132-0.7158 0.3132-1.53 0-2.246-0.439-1.003-1.338-1.398-2.789-2.25-1.36-0.799-2.129-1.375-3.121-1.348zm-0.00977 1.803c0.09611-0.01028 0.7679 0.2434 2.219 1.096 1.451 0.8523 2.003 1.31 2.051 1.42 0.1115 0.2548 0.1115 0.5499 0 0.8047-0.0479 0.1095-0.6 0.5656-2.051 1.418-1.451 0.8523-2.123 1.106-2.219 1.096-0.2617-0.02797-0.5024-0.165-0.6621-0.3887-0.06656-0.09322-0.1836-0.8227-0.1836-2.527 0-1.705 0.117-2.434 0.1836-2.527 0.1597-0.2237 0.4004-0.3626 0.6621-0.3906z" fill="url(#a)"/>
 <path transform="translate(.000253 .002858) scale(.9994) translate(-.8226 .1203) scale(1.392)" d="m10.26 3.098c-0.06616 0.00184-0.1328 0.00636-0.2012 0.01367-0.7767 0.08306-1.482 0.499-1.936 1.135-0.637 0.8922-0.5195 1.868-0.5195 3.572s-0.1175 2.68 0.5195 3.572c0.454 0.6357 1.159 1.052 1.936 1.135 1.094 0.1171 1.871-0.4817 3.322-1.334s2.35-1.247 2.789-2.25c0.3133-0.7158 0.3133-1.53 0-2.246-0.4389-1.003-1.338-1.398-2.789-2.25-1.36-0.799-2.129-1.375-3.121-1.348zm-0.0098 1.803c0.09599-0.01027 0.7678 0.2434 2.219 1.096 1.451 0.8523 2.003 1.31 2.051 1.42 0.1115 0.2547 0.1115 0.548 0 0.8027v0.00195c-0.04782 0.1094-0.5999 0.5656-2.051 1.418-1.451 0.8523-2.123 1.106-2.219 1.096-0.2618-0.02798-0.5024-0.165-0.6621-0.3887-0.06656-0.09322-0.1836-0.8227-0.1836-2.527 0-1.705 0.117-2.434 0.1836-2.527 0.1597-0.2237 0.4003-0.3626 0.6621-0.3906z" fill="url(#a)"/>
</svg>
