<svg version="1.1" viewBox="0 0 22 22" xmlns="http://www.w3.org/2000/svg">
 <defs>
  <linearGradient id="a" y1="1">
   <stop stop-color="#00f0ff" offset="0"/>
   <stop stop-color="#00c3ff" offset="1"/>
  </linearGradient>
  <linearGradient id="c" y1=".5" y2=".5">
   <stop stop-color="#dc18fc" offset="0"/>
   <stop stop-color="#8e1eff" offset="1"/>
  </linearGradient>
  <linearGradient id="b" y1=".5" y2=".5">
   <stop stop-color="#01ff4d" offset="0"/>
   <stop stop-color="#2fff00" offset="1"/>
  </linearGradient>
 </defs>
 <path transform="translate(-.000991 -.00272) scale(1) matrix(.02691 0 0 .02691 -1.443 23.92)" d="m236-730.5c-13.4 0-24.46 4.464-33.1 13.35s-12.92 19.98-12.92 33.31c0 13.32 4.285 24.57 12.92 33.68 8.633 9.12 19.7 13.72 33.1 13.72h589.2c13.4 0 24.38-4.277 33.02-12.77 8.633-8.51 12.99-19.6 12.99-33.31s-4.4-25.15-13.21-34.26c-8.82-9.12-19.78-13.72-32.81-13.72zm138.5 204c-13.4 0-24.38 4.205-33.02 12.7-8.633 8.51-12.92 19.68-12.92 33.39s4.286 25.15 12.92 34.26c8.633 9.12 19.62 13.65 33.02 13.65h69.46c13.4 0 24.38-4.464 33.02-13.35 8.634-8.89 12.99-19.98 12.99-33.31 0-13.32-4.398-24.57-13.21-33.68-8.82-9.12-19.78-13.65-32.81-13.65zm-138.5 203.9c-13.4 0-24.46 4.278-33.1 12.77-8.633 8.51-12.92 19.43-12.92 32.81s4.285 24.64 12.92 33.75c8.633 9.12 19.7 13.72 33.1 13.72h227c13.32 0 24.52-4.277 33.53-12.77 9.007-8.51 13.5-19.43 13.5-32.81s-4.49-24.64-13.5-33.75c-9.007-9.12-20.21-13.72-33.53-13.72z" fill="url(#c)"/>
 <path transform="translate(-.000991 -.00272) scale(1) matrix(.02691 0 0 .02691 -1.443 23.92)" d="m706.8-558.4c-46.66 0-85.77 15.71-117.3 47.23-31.48 31.56-47.23 70.51-47.23 117.2 1e-5 46.73 15.75 85.73 47.23 117.3 31.49 31.55 70.61 47.23 117.3 47.23 46.68 0 85.75-15.68 117.2-47.23 31.5-31.54 47.23-70.54 47.23-117.3 0-46.72-15.73-85.67-47.23-117.2-31.48-31.52-70.55-47.23-117.2-47.23zm-27.9 102.4c3.374 0.045 6.744 1.078 10.12 3.008l64.1 41.33c6.191 4.22 9.297 10.11 9.297 18.05 0 7.93-3.106 13.5-9.297 16.52l-64.1 42.19c-6.747 3.88-13.49 4.022-20.23 0.3125-6.747-3.88-10.12-9.767-10.12-18.05v-82.66c1e-5 -8.25 3.37-14.13 10.12-17.85 3.374-1.94 6.744-2.897 10.12-2.852z" fill="url(#b)"/>
 <path transform="translate(-.000991 -.00272) scale(1) matrix(.02691 0 0 .02691 -1.443 23.92)" d="m81.2-636.6c-3.648-0.2071-7.469 0.4275-11.48 1.875-10.71 4.08-16.06 11.8-16.06 23.16v262.1c1e-6 11.78 4.998 19.73 15 24.02 10 4.07 19.4 1.894 28.2-6.016l133.5-129.3c4.989-4.94 7.5-10.76 7.5-17.62 0-6.65-2.511-12.61-7.5-17.73l-132.4-132.4c-5.061-5.094-10.64-7.741-16.72-8.086z" fill="url(#a)"/>
</svg>
