<svg version="1.1" viewBox="0 0 22 22" xmlns="http://www.w3.org/2000/svg">
 <defs>
  <linearGradient id="a" x2="0" y1="1">
   <stop stop-color="#fd5" offset="0"/>
   <stop stop-color="#ff80e5" offset=".5"/>
   <stop stop-color="#0cf" offset="1"/>
  </linearGradient>
 </defs>
 <path transform="translate(-.002095 .003141) scale(1) matrix(.1018 0 0 .1018 -2.036 -2.032)" d="m199.6 27.98a12.02 12.02 0 0 0-8.096 20.51l3.53 3.511h-99a76.08 76.08 0 0 0-76 76 12 12 0 0 0 23.98 0 52.06 52.06 0 0 1 52.01-51.99h99l-3.53 3.492a12.02 12.02 0 0 0 17 17l24-24a12 12 0 0 0 0-17l-24-24a12.02 12.02 0 0 0-8.902-3.511zm24.42 88.02a12 12 0 0 0-11.99 11.99 52.06 52.06 0 0 1-51.99 52.01h-99l3.511-3.511a12.03 12.03 0 1 0-17-17.02l-24 24a12 12 0 0 0 0 17l24 24a12.02 12.02 0 0 0 17-17l-3.511-3.492h99a76.08 76.08 0 0 0 76-76 12 12 0 0 0-12.01-11.99z" fill="url(#a)"/>
 <path transform="translate(-.002095 .003141) scale(1) matrix(.1018 0 0 .1018 -2.036 -2.032)" d="m104.5 92a3.361 3.361 0 0 0-3.358 3.358v65.29a3.361 3.361 0 0 0 3.358 3.358h11.28a3.361 3.361 0 0 0 3.377-3.358v-14.66h18.02v14.66a3.361 3.361 0 0 0 3.358 3.358h11.28a3.361 3.361 0 0 0 3.358-3.358v-65.29a3.361 3.361 0 0 0-3.358-3.358zm14.66 18.02h18.02v18h-18.02z" fill="#f0f"/>
</svg>
