<svg version="1.1" viewBox="0 0 22 22" xmlns="http://www.w3.org/2000/svg">
 <defs>
  <linearGradient id="a" y1="1">
   <stop stop-color="#fe0844" offset="0"/>
   <stop stop-color="#feb302" offset="1"/>
  </linearGradient>
 </defs>
 <path transform="translate(-.00044 .00048) scale(1) matrix(.04296 0 0 .04296 -2.749 -2.746)" d="m481.7 95.99c-4.651-0.2396-9.389 0.5391-13.89 2.414-12 5-19.8 16.7-19.8 29.6v32h-32c-30.2 0-58.7 14.2-76.8 38.4l-21.2 28.3 40 53.3 32.4-43.2c6-8.1 15.5-12.8 25.6-12.8h32v32c0 12.9 7.801 24.4 19.8 29.4s25.7 2.3 34.9-6.9l64-64c6-6 9.4-14.1 9.4-22.6s-3.4-16.6-9.4-22.6l-64-64c-5.75-5.688-13.26-8.915-21.01-9.314zm-385.7 64.01c-17.7 0-32 14.3-32 32s14.3 32 32 32h64c10.1 0 19.6 4.701 25.6 12.8l153.6 204.8c18.1 24.2 46.6 38.4 76.8 38.4h32v32c0 12.9 7.699 24.5 19.7 29.5s25.7 2.3 34.9-6.9l64.1-64.1c6-6 9.4-14.1 9.4-22.6s-3.4-16.6-9.4-22.6l-64-64c-9.2-9.1-22.9-11.9-34.9-6.9s-19.8 16.7-19.8 29.6v32h-32c-10.1 0-19.6-4.701-25.6-12.8l-153.6-204.8c-18.1-24.2-46.6-38.4-76.8-38.4zm122 200-32.4 43.2c-6 8.1-15.5 12.8-25.6 12.8h-64c-17.7 0-32 14.3-32 32s14.3 32 32 32h64c30.2 0 58.7-14.2 76.8-38.4l21.2-28.3z" fill="url(#a)"/>
 <path transform="translate(-.00044 .00048) scale(1)" d="m0.2992 7.795a0.2991 0.2991 0 0 0-0.2987 0.2987v5.811a0.2991 0.2991 0 0 0 0.2987 0.2987h1.004a0.2991 0.2991 0 0 0 0.3007-0.2987v-1.305h1.604v1.305a0.2991 0.2991 0 0 0 0.2987 0.2987h1.004a0.2991 0.2991 0 0 0 0.2987-0.2987v-5.811a0.2991 0.2991 0 0 0-0.2987-0.2987zm1.305 1.604h1.604v1.602h-1.604z" fill="#f0f" stroke-width=".9998"/>
</svg>
