<svg version="1.1" viewBox="0 0 22 22" xmlns="http://www.w3.org/2000/svg">
 <defs>
  <linearGradient id="a" x1="1" x2="0" y1=".5" y2=".5">
   <stop stop-color="#f000d8" offset="0"/>
   <stop stop-color="#bd02ff" offset="1"/>
  </linearGradient>
 </defs>
 <path transform="translate(0 -.00082) scale(1) matrix(.02788 0 0 .02788 -2.649 22.82)" d="m141-734c-13.4 0-24.36 4.254-33 12.75-8.633 8.507-12.96 19.41-12.96 32.79s4.325 24.66 12.96 33.77c8.633 9.12 19.6 13.66 33 13.66h383.1c13.4 0 24.59-4.184 33.56-12.68 8.967-8.507 13.45-19.48 13.45-32.86s-4.48-24.66-13.45-33.77c-8.967-9.12-20.16-13.66-33.56-13.66h-383.1zm0 187c-13.4 0-24.36 4.409-33 13.24-8.633 8.84-12.96 19.9-12.96 33.28s4.325 24.66 12.96 33.77c8.633 9.12 19.6 13.66 33 13.66h383.1c13.4 0 24.59-4.254 33.56-12.75 8.967-8.507 13.45-19.72 13.45-33.77 0-13.38-4.48-24.66-13.45-33.77-8.967-9.12-20.16-13.66-33.56-13.66h-383.1zm0 188c-13.4-1e-5 -24.36 4.254-33 12.75-8.633 8.507-12.96 19.41-12.96 32.79s4.325 24.66 12.96 33.77c8.633 9.12 19.6 13.66 33 13.66h221c13.4 0 24.59-4.184 33.56-12.68 8.967-8.507 13.45-19.48 13.45-32.86s-4.482-24.66-13.45-33.77c-8.967-9.12-20.16-13.66-33.56-13.66h-221z" fill="url(#a)"/>
 <path transform="translate(0 -.00082) scale(1) matrix(.02788 0 0 .02788 -2.649 22.82)" d="m663.5-424c-4.333-1e-5 -8.5 0.6588-12.5 1.992-3.333 2-6.008 5.209-8.008 9.609s-3.008 8.865-3.008 13.4v261c0 4.667 1.008 9.008 3.008 13.01s4.674 6.674 8.008 8.008c4 2 8.167 3.008 12.5 3.008s8.5-1.357 12.5-4.023l197-132c3.553-2.08 6.271-4.66 8.164-7.773 1.887-3.12 2.812-6.853 2.812-11.13 0-4.287-0.9258-8.024-2.812-11.21-1.893-3.187-4.611-6.12-8.164-8.867l-197-131c-4-2.667-8.167-3.984-12.5-3.984z" fill="#0f0"/>
</svg>
