<svg xmlns="http://www.w3.org/2000/svg" viewBox="0 0 22 22"><g fill="#00ff80"><path d="M8.531 3.432c1.963 0 3.804 1.828 3.546 4.05-.258 2.228-1.583 4.052-3.546 4.052-1.961 0-3.216-1.742-3.544-4.052C4.67 5.27 6.57 3.432 8.53 3.432"/><path fill-opacity=".5" d="M8.49 15.638s1.077-2.325 1.28-2.861c2.065.108 3.642.544 4.794 1.036 1.323.566 2.073 3.27 2.438 5.107a1.323 1.323 0 0 1-1.27 1.686c-3.29.057-10.95.057-14.354.057a1.377 1.377 0 0 1-1.298-1.84c.527-1.772 1.408-4.318 2.623-4.953 1.07-.56 2.518-.924 4.399-1.06z"/><path fill-opacity=".3" d="M13.802 12.755c.333-.727.79-1.737.915-2.067 2.065.109 3.643.544 4.795 1.036 1.322.566 2.072 3.27 2.437 5.108a1.323 1.323 0 0 1-1.269 1.685c-.792.013-1.835.024-3.01.033-.235-1.12-.603-2.487-1.13-3.545-.448-.898-1.03-1.577-1.691-1.86a13 13 0 0 0-1.047-.39m-.878-.25a16.3 16.3 0 0 0-3.12-.455h-.027c.683-.248 1.278-.695 1.756-1.286q.253-.023.516-.044zm-2.539-9.348c.648-1.092 1.859-1.82 3.093-1.82 1.963 0 3.804 1.828 3.546 4.05-.258 2.229-1.583 4.052-3.546 4.052-.388 0-.75-.069-1.082-.196a7 7 0 0 0 .405-1.677c.224-1.942-.885-3.631-2.416-4.41"/></g></svg>