<svg xmlns="http://www.w3.org/2000/svg" viewBox="0 0 22 22"><defs><linearGradient id="a" y1=".5" y2=".5"><stop offset="0" stop-color="#b3e94f"/><stop offset="1" stop-color="#85fa77"/></linearGradient></defs><path fill="url(#a)" d="M129-685.49c-9.98-9.35-15-20.34-14.6-33 .385-12.21 4.868-22.87 13.575-31.96q.502-.525 1.024-1.05c.179-.18.358-.36.538-.53 8.456-8.35 18.244-12.82 29.354-13.4a45 45 0 0 1 2.608-.07c9.906 0 19.064 3.01 27.467 9.04a60 60 0 0 1 6.044 4.97l158.325 158.33 31.664 31.66c12.267 12.27 23.514 20.95 33.732 26.05q2.172 1.08 4.289 1.95c.488.21.989.4 1.502.6 9.064 3.4 21.817 5.45 38.252 6.14 1.78.07 3.603.13 5.468.17q3.762.09 7.757.09h211L668-545.5l-38-38c-7.874-7.34-12.642-15.72-14.318-25.12a45 45 0 0 1-.683-7.88c0-2.19.15-4.34.449-6.43 1.314-9.19 5.513-17.42 12.61-24.67.625-.64 1.272-1.28 1.941-1.9l.304-.3c8.465-8.46 18.408-12.99 29.407-13.62.921-.05 1.851-.08 2.789-.08 9.625 0 18.543 2.84 26.75 8.53a60 60 0 0 1 6.761 5.47L832-513.5l.085.09c8.769 8.81 13.396 19.4 13.873 31.76a55 55 0 0 1 .002 4.26q-.707 18.63-13.96 31.89l-135.99 136c-.908.84-1.826 1.65-2.754 2.42-9.287 7.72-19.542 11.58-30.757 11.58q-.808 0-1.608-.03c-11.406-.36-21.707-4.88-30.444-13.53-.149-.14-.299-.29-.448-.44q-15-13.995-15-33c0-.8.018-1.58.055-2.36.538-11.65 5.091-21.83 13.846-30.54.033-.03.066-.07.099-.1L686-431.52l.999-.98h-211c-23.012 0-40.204 2.14-51.568 6.44a64.217 64.217 0 0 0-3.974 1.68q-14.326 6.645-31.4 22.92A203 203 0 0 0 385-397.5l-189.99 190a71 71 0 0 1-2.397 2.12c-9.406 7.92-19.941 11.88-31.614 11.88q-4.295 0-8.282-.72c-8.752-1.55-16.328-5.66-22.805-12.32q-.46-.48-.913-.96-15-13.995-15-33 0-16.47 11.274-29.19A56 56 0 0 1 129-273.5l24.722-24.72L334.999-479.5 170.204-644.29z" transform="translate(-3.426 25.41)scale(.03005)"/></svg>