<svg xmlns="http://www.w3.org/2000/svg" viewBox="0 0 22 22"><defs><linearGradient id="a" x2="0" y2="1"><stop offset="0" stop-color="#ff00d2"/><stop offset="1" stop-color="#ff0052"/></linearGradient></defs><path fill="url(#a)" d="M5 2v8h2V5h6v5h2V2zm8 8-1.322 1.322L10.358 10l-1.18 1.178L10.5 12.5l-1.322 1.322L10.358 15l1.32-1.322L13 15l1.178-1.178-1.32-1.322 1.32-1.322zm-8 0-1.322 1.322L2.358 10l-1.18 1.178L2.5 12.5l-1.322 1.322L2.358 15l1.32-1.322L5 15l1.178-1.178-1.32-1.322 1.32-1.322z" transform="translate(-1.874 -2.528)scale(1.59095)"/></svg>