<svg xmlns="http://www.w3.org/2000/svg" viewBox="0 0 22 22"><g fill="#d500ff" stroke-width=".024"><path d="M20.898 8.58a.71.71 0 0 1-.525-.22.72.72 0 0 1-.22-.529q0-.307.22-.532a.7.7 0 0 1 .525-.226h.334q.313 0 .538.225c.225.225.225.328.225.537a.7.7 0 0 1-.225.529.75.75 0 0 1-.538.216zM.745 12.18a.7.7 0 0 1-.525-.222.72.72 0 0 1-.22-.526q0-.309.22-.534a.71.71 0 0 1 .525-.225h7.067q.313.002.538.225.225.226.224.537c0 .311-.075.385-.224.53a.76.76 0 0 1-.538.215zM.745 19.38a.7.7 0 0 1-.525-.222.72.72 0 0 1-.22-.527c0-.204.073-.385.22-.534a.71.71 0 0 1 .525-.225h.199a.74.74 0 0 1 .538.225q.224.225.224.538a.71.71 0 0 1-.224.53.76.76 0 0 1-.538.215zM.745 15.79a.7.7 0 0 1-.525-.222.72.72 0 0 1-.22-.526q0-.309.22-.534a.71.71 0 0 1 .525-.225h2.213q.312 0 .537.225t.225.537c0 .312-.075.385-.225.53a.76.76 0 0 1-.537.215z"/><path d="M4 20.25q-.683 0-1.162-.473a1.56 1.56 0 0 1-.48-1.162q0-.69.468-1.161a1.54 1.54 0 0 1 1.389-.452q.12.026.239.078v-3.877q0-.292.185-.474a.67.67 0 0 1 .489-.182h1.536q.28 0 .467.192.19.192.19.484a.62.62 0 0 1-.19.47.66.66 0 0 1-.467.18H5.64v4.747q0 .693-.478 1.162-.48.466-1.162.467z"/><path d="M8.627 16.65q-.684.001-1.163-.472a1.56 1.56 0 0 1-.48-1.161q0-.69.468-1.163a1.54 1.54 0 0 1 1.39-.452q.12.026.238.077V9.605q0-.297.186-.475a.67.67 0 0 1 .489-.183h1.535c.186 0 .343.066.468.19a.67.67 0 0 1 .19.485.62.62 0 0 1-.19.472.66.66 0 0 1-.468.18h-1.022v4.747c0 .46-.16.85-.479 1.16a1.6 1.6 0 0 1-1.161.469zM17.868 9.457q-.684 0-1.163-.472a1.56 1.56 0 0 1-.48-1.161q0-.69.468-1.164a1.54 1.54 0 0 1 1.39-.452q.12.026.238.077V2.412a.63.63 0 0 1 .186-.477.67.67 0 0 1 .489-.183h1.535a.65.65 0 0 1 .657.676.62.62 0 0 1-.189.471.66.66 0 0 1-.468.182H19.51v4.746q0 .692-.479 1.16a1.6 1.6 0 0 1-1.162.469z"/><path d="M13.239 13.05q-.684.001-1.163-.472a1.56 1.56 0 0 1-.48-1.16q0-.691.468-1.165a1.54 1.54 0 0 1 1.39-.451q.12.026.238.077V6.005q0-.299.185-.476a.67.67 0 0 1 .49-.183h1.535q.279.002.468.19a.67.67 0 0 1 .189.485.62.62 0 0 1-.19.472.66.66 0 0 1-.467.18h-1.023v4.747c0 .46-.16.85-.478 1.161a1.6 1.6 0 0 1-1.162.468z"/><path d="M.745 8.58a.71.71 0 0 1-.525-.22A.72.72 0 0 1 0 7.83q0-.307.22-.532a.7.7 0 0 1 .525-.226h11.579q.312 0 .537.225.225.224.225.537a.7.7 0 0 1-.225.529.75.75 0 0 1-.537.216zM11.679 15.79a.72.72 0 0 1-.525-.221q-.22-.221-.22-.529c0-.308.073-.382.22-.532a.7.7 0 0 1 .525-.225h9.56q.313 0 .537.224c.224.224.225.33.225.537a.7.7 0 0 1-.225.53.75.75 0 0 1-.537.216zM6.993 19.38a.71.71 0 0 1-.525-.222.72.72 0 0 1-.22-.528q0-.308.22-.533a.7.7 0 0 1 .525-.225h14.239q.313 0 .537.225t.225.537a.7.7 0 0 1-.225.529.75.75 0 0 1-.537.217zM16.318 12.18q-.305 0-.525-.22c-.22-.22-.22-.324-.22-.53s.074-.382.22-.532a.7.7 0 0 1 .525-.225h4.914q.313 0 .537.225c.224.225.225.329.225.537a.7.7 0 0 1-.225.529.75.75 0 0 1-.537.216z"/></g></svg>