<svg xmlns="http://www.w3.org/2000/svg" viewBox="0 0 22 22"><g stroke-width="1.32"><path fill="#0cf" d="M.733 0v2.933h8.8V0zm11.732 0v2.933h8.8V0zM.733 4.4v2.933h8.8V4.4zm11.732 0v2.933h8.8V4.4z"/><path fill="#00ff80" d="m9.532 8.8-4.4 2.932 4.4 2.933V13.2H11c2.933 0 2.933 1.466 2.933 1.466v1.467s0 4.4 5.866 4.4h1.467v-2.934h-1.467c-2.933 0-2.933-1.466-2.933-1.466v-1.467s0-4.4-5.866-4.4H9.532zm10.266 1.466c-1.272 0-2.268.205-3.047.53a4.4 4.4 0 0 1 1.517 2.584c.391-.11.891-.18 1.53-.18h1.467v-2.934zM9.532 16.132l-4.4 2.933 4.4 2.933V20.53H11c1.272 0 2.267-.205 3.047-.53a4.4 4.4 0 0 1-1.517-2.584c-.391.11-.891.18-1.53.18H9.532z"/></g></svg>