<svg xmlns="http://www.w3.org/2000/svg" viewBox="0 0 22 22"><defs><linearGradient id="a" x1="1" x2="0" y1="1"><stop offset="0" stop-color="#d800bd"/><stop offset=".408" stop-color="#f92d7a"/><stop offset=".59" stop-color="#ff4a52"/><stop offset="1" stop-color="#ffb243"/></linearGradient></defs><path fill="url(#a)" d="M472.9-161.6c-30.1 0-58.68-5.48-85.72-16.45s-51.02-27.17-71.94-48.6c-20.92-20.41-36.86-44.01-47.84-70.8s-16.46-55.49-16.46-86.1c0-43.38 10.84-82.66 32.53-117.9 7.621-12.37 16.11-23.58 25.46-33.62h-60.09c-13.15 0-24.24-4.4-33.3-13.57-9.057-9.18-13.59-20.15-13.59-33.52 0-13.17 4.53-24.14 13.59-33.11 9.057-8.99 20.15-13.57 33.3-13.57h154.4c2.479-2.73 5.049-5.42 7.709-8.08 15.9-15.89 33.61-29.16 53.14-39.8 5.295-9.18 11.24-16.91 17.82-23.21.98-1.59 1.982-3.16 3.005-4.72h-156.2c-13.15 0-24.24-4.38-33.3-13.57-9.058-9.17-13.59-20.14-13.59-33.51 0-13.17 4.528-24.14 13.59-33.11 9.058-8.98 20.15-13.57 33.3-13.57h329.2q1.753 0 3.392.06 2.659-.06 5.332-.06c30.1 0 58.55 5.48 85.34 16.45s50.39 27.17 70.8 48.6c20.41 20.92 36.36 44.78 47.84 71.57 11.48 26.78 17.22 55.23 17.22 85.33 0 40.82-9.184 77.94-27.55 111.4-18.37 33.42-48.47 61.1-90.31 83.04-8.674 18.88-22.58 38.52-41.71 58.93s-39.16 34.7-60.08 42.86c-16.84 36.23-42.35 65.06-76.54 86.49s-73.73 32.14-118.6 32.14zm1.53-63.52c18.88.51 37.5-3.45 55.87-11.87 18.37-8.41 32.4-19.77 42.1-34.06-30.1 2.05-58.8-1.65-86.1-11.09s-51.41-24.11-72.33-44.01c-20.92-20.41-35.97-44.01-45.16-70.8s-12.76-55.23-10.72-85.34c-13.78 11.23-24.49 25.77-32.15 43.63q-11.48 26.79-11.48 55.11c0 21.94 3.827 42.47 11.48 61.61 7.654 19.13 19.14 36.1 34.44 50.89 14.8 14.29 31.89 25.39 51.28 33.3s40.31 12.12 62.76 12.63zm96.44-97.2c18.37 0 36.23-3.83 53.58-11.48 17.35-7.66 31.89-18.37 43.63-32.15-29.59 2.04-58.04-1.91-85.34-11.86s-51.15-25.39-71.56-46.31c-20.92-21.43-36.23-45.67-45.92-72.71s-13.01-55.62-9.95-85.72c-16.84 17.35-28.32 33.29-34.44 47.84q-9.185 21.81-9.185 54.72c0 32.91 3.955 42.48 11.86 61.61 7.908 19.14 19.26 36.1 34.06 50.9s31.89 26.02 51.28 33.68c19.39 7.65 40.05 11.48 62 11.48zm98.73-98.74c8.674 0 16.84-.76 24.49-2.29 7.654-1.53 16.84-4.34 27.55-8.42 8.673-28.07 9.567-56 2.678-83.81-6.888-27.81-21.56-52.68-44.01-74.62-19.9-20.41-45.28-34.32-76.15-41.71-30.87-7.4-59.32-7.53-85.34-.39-2.551 9.19-4.338 17.86-5.358 26.03-1.02 8.16-1.531 17.85-1.531 29.08 0 20.92 3.827 41.07 11.48 60.46s19.13 36.49 34.44 51.28c14.8 15.82 31.76 27.17 50.9 34.06s39.42 10.33 60.85 10.33zm116.3-57.4c13.27-11.22 22.96-24.75 29.08-40.56q9.185-23.73 9.185-58.17c0-21.43-3.827-41.59-11.48-60.46-7.654-18.88-18.88-35.98-33.68-51.29-15.31-14.79-32.4-26.15-51.28-34.05-18.88-7.91-38.78-11.87-59.7-11.87s-40.05 3.32-57.4 9.95c-17.35 6.64-32.66 16.84-45.92 30.62 29.08-1.53 57.53 2.8 85.34 13.01 27.81 10.2 52.68 26.02 74.62 47.45s38.01 45.41 48.22 71.95c10.2 26.53 14.54 54.34 13.01 83.42zm-666.8 113c-13.15 0-24.24-4.4-33.3-13.57-9.056-9.18-13.59-20.16-13.59-33.51 0-13.18 4.53-24.14 13.59-33.11 9.057-9 20.15-13.57 33.3-13.57h35.91c13.13 0 24.22 4.57 33.3 13.77 9.056 8.97 13.58 20.13 13.58 33.3 0 13.18-4.528 24.34-13.58 33.32-9.078 8.97-20.17 13.37-33.3 13.37z" transform="translate(-1.948 23.947)scale(.02697)"/></svg>