<svg version="1.1" viewBox="0 0 22 22" xmlns="http://www.w3.org/2000/svg">
 <defs>
  <linearGradient id="a" y2="1">
   <stop stop-color="#ff00b8" offset="0"/>
   <stop stop-color="#faff00" offset="1"/>
  </linearGradient>
 </defs>
 <path transform="translate(-.000416 -.001846) scale(1) translate(.00053 .002378) scale(1)" d="m19.02 0.01562-2e-3 0.001953a2.968 2.968 0 0 0-1.303 5.633l-0.0039 10.65a2.955 2.955 0 0 0-1.414 1.391l-10.64-2e-3c-0.4892-0.9773-1.498-1.646-2.666-1.646a2.965 2.965 0 0 0-2.961 2.967 2.965 2.965 0 0 0 5.633 1.297l10.66 2e-3a2.945 2.945 0 0 0 2.625 1.615 2.945 2.945 0 0 0 1.385-5.547v-10.73a2.968 2.968 0 0 0-1.312-5.633z" fill="url(#a)"/>
 <path transform="translate(-.000416 -.001846) scale(1) translate(.00053 .002378) scale(1)" d="m3.51 0.01758a2.32 2.32 0 0 0-0.9199 0.2285 5.059 5.059 0 0 0-2.365 2.379 2.448 2.448 0 0 0-0.1172 0.2969 2.325 2.325 0 0 0-0.0957 0.9394l0.001953 0.00195a2.325 2.325 0 0 0 0.6699 1.402v0.00195l1.432 1.422 0.01562 0.01562 5.004 4.982c0.3464 0.3453 0.5767 0.5703 0.834 0.7578a4.078 4.078 0 0 0 0.7324 0.4219c0.2924 0.1308 0.6005 0.211 1.072 0.3379l2.643 0.7148a4.485 4.485 0 0 0 0.3242 0.07227 1.142 1.142 0 0 0 0.6133-0.03906 1.101 1.101 0 0 0 0.6367-0.6387 1.142 1.142 0 0 0 0.03516-0.6113 5.301 5.301 0 0 0-0.1191-0.4766l-0.4512-1.65-2e-3 -0.0078-0.2285-0.8281c-0.1292-0.471-0.2146-0.7814-0.3457-1.072-0.1171-0.2593-0.2578-0.5049-0.4258-0.7344-0.1886-0.2573-0.4172-0.4801-0.7637-0.8242l-5.008-4.98-0.01953-0.01953-1.424-1.416a2.32 2.32 0 0 0-1.728-0.6758zm0.05273 1.35a0.9708 0.9708 0 0 1 0.7246 0.2832l0.6914 0.6894a5.8 5.8 0 0 0-2.648 2.664l-0.6953-0.6934a0.9788 0.9788 0 0 1-0.2812-0.5859v-0.00195a0.9788 0.9788 0 0 1 0.04102-0.3926 0.9788 0.9788 0 0 1 0.04883-0.123 3.712 3.712 0 0 1 1.734-1.744 0.9708 0.9708 0 0 1 0.3848-0.0957zm2.447 1.998 4.69 4.664c0.397 0.3945 0.5422 0.5451 0.6602 0.707 0.1125 0.1531 0.2082 0.3152 0.2871 0.4883 0.08188 0.1827 0.1378 0.3842 0.2852 0.9238l0.03125 0.1035a2.895 2.895 0 0 0-1.025 0.6641 2.895 2.895 0 0 0-0.6602 1.029l-0.1035-0.0293c-0.5407-0.1462-0.7416-0.2025-0.9258-0.2832a2.691 2.691 0 0 1-0.4863-0.2812c-0.1623-0.1178-0.3157-0.2648-0.7109-0.6582h-0.00195l-4.69-4.666a4.449 4.449 0 0 1 2.65-2.662zm-0.6133 1.387a0.6756 0.6756 0 0 0-0.6191 0.4707 0.6934 0.6934 0 0 0-0.02734 0.2715v0.00195a0.677 0.677 0 0 0 0.1934 0.4062l3.924 3.902a0.6754 0.6754 0 0 0 0.9531-0.9551l-3.924-3.902a0.6756 0.6756 0 0 0-0.5-0.1953zm6.928 6.812 0.2754 1.006-1.008-0.2695v-2e-3a1.509 1.509 0 0 1 0.7324-0.7344z" fill="url(#a)"/>
</svg>
