<svg version="1.1" viewBox="0 0 22 22" xmlns="http://www.w3.org/2000/svg">
 <defs>
  <linearGradient id="b" x1="1" x2="0" y1=".5" y2=".5">
   <stop stop-color="#9000ff" offset="0"/>
   <stop stop-color="#ff37ff" offset="1"/>
  </linearGradient>
  <linearGradient id="a" x1="1" x2="0" y1="1">
   <stop stop-color="#ffc100" offset="0"/>
   <stop stop-color="#ff0069" offset="1"/>
  </linearGradient>
 </defs>
 <path transform="translate(2.7e-5 .006408) scale(.9998) matrix(.02465 0 0 .02465 -.8116 22.6)" d="m203.5-884.5c-9.667-0.333-18.18 2.841-25.51 9.508l-133 129c-7.333 8-11.29 16.66-11.96 25.91-0.667 9.24 2.822 17.6 10.38 25.12 6.9 7.333 15.15 11.16 24.8 11.49 9.66 0.333 18.19-3.125 25.75-10.46l133-129c8-7.56 12.19-16.03 12.52-25.35 0.333-9.32-3.493-17.78-11.49-25.35-6.667-6.893-14.81-10.45-24.48-10.78v-0.07923zm551 0c-9.667 0.333-17.81 3.962-24.48 10.86-8 7.567-11.83 16.18-11.49 25.83 0.333 9.66 4.519 17.91 12.52 24.8l133 129c7.56 7.333 16.25 10.79 25.91 10.46 9.653-0.333 17.9-4.16 24.8-11.49 7.56-7.333 11.19-15.71 10.86-25.2-0.333-9.5-4.238-17.79-11.57-24.8l-133.3-129.3c-7.767-7.1-16.48-10.47-26.15-10.14h-0.07923zm-275.5 58.4v0.07923c-52.67 0-102.3 10.18-149 30.51s-87.5 48.04-122.5 83.04-62.48 75.71-82.48 122.3c-20 46.51-30.03 96.35-30.03 149.5 0 53.15 10.03 103.2 30.03 149.8 20 46.67 47.48 87.3 82.48 121.9 35 34.67 75.83 62.01 122.5 82.01 46.67 20 96.36 30.03 149 30.03s102.4-9.948 149-29.79c46.66-19.84 87.49-47.18 122.5-82.01s62.71-75.56 83.04-122.3c20.33-46.67 30.51-96.62 30.51-149.8 0-53.16-10.18-102.9-30.51-149.4-20.33-46.51-48.04-87.31-83.04-122.3s-75.83-62.71-122.5-83.04-96.32-30.51-149-30.51zm0.1585 95.08c80.75 0 149.3 28.21 205.5 84.54 56.24 56.33 84.38 124.9 84.38 205.6 1e-5 80.75-28.21 149.3-84.54 205.5-56.33 56.24-124.8 84.38-205.5 84.38-80.75 0-149.3-28.21-205.5-84.54-56.24-56.33-84.38-124.8-84.38-205.5 1e-5 -80.75 28.21-149.3 84.54-205.5 56.33-56.24 124.9-84.38 205.6-84.38z" fill="url(#a)"/>
 <path transform="translate(2.7e-5 .006408) scale(.9998) matrix(.02465 0 0 .02465 -.8116 22.6)" d="m486.1-629.6c-8.399 0.413-17.66 4.279-23.79 10-5.393 6.235-9.068 15.41-9.453 23.67v179.2c-0.277-0.086-0.5544-0.1654-0.8984-0.2734-6.61-1.992-14.69-3.164-22.62-3.164-24.02 0-46.51 9.701-63.67 26.33-16.56 17.12-26.29 39.58-26.29 63.63 0 24.06 9.729 46.59 26.29 63.71 17.16 16.6 39.66 26.25 63.67 26.25 24 0 46.54-9.652 63.71-26.25 16.55-17.12 25.83-39.65 26.25-63.71v-197h57.11c8.32-0.385 17.47-4.058 23.59-9.531 5.413-6.11 9.198-15.24 9.609-23.67v-35.51c-0.386-8.263-4.023-17.44-9.414-23.67-6.138-5.722-15.4-9.588-23.79-10z" fill="url(#b)"/>
</svg>
