<svg xmlns="http://www.w3.org/2000/svg" viewBox="0 0 22 22"><defs><linearGradient id="a" y1="1"><stop offset="0" stop-color="#ff001e"/><stop offset="1" stop-color="#ff004b"/></linearGradient></defs><path fill="url(#a)" d="M3.717.791a.6.6 0 0 0-.445.186l-1.373 1.37L.528 1.03A.31.31 0 0 0 .186.975Q0 1.053 0 1.265v17.46q0 1.024.729 1.75a2.39 2.39 0 0 0 1.75.73h17.04a2.4 2.4 0 0 0 1.752-.73 2.38 2.38 0 0 0 .726-1.75V1.266q0-.212-.183-.29a.31.31 0 0 0-.344.055l-1.371 1.318L18.728.977a.62.62 0 0 0-.451-.186.6.6 0 0 0-.445.186l-1.373 1.37-1.371-1.37a.67.67 0 0 0-.473-.186.51.51 0 0 0-.424.186L12.82 2.32l-1.373-1.318a.58.58 0 0 0-.451-.211.56.56 0 0 0-.445.21L9.18 2.322 7.834.977A.67.67 0 0 0 7.36.79a.51.51 0 0 0-.424.186l-1.398 1.37L4.168.978A.62.62 0 0 0 3.717.79zM2.479 6.594h17.04v2.559H2.479zm0 4.748h7.44v7.387h-7.44zm9.602 0h7.44v2.611h-7.44zm0 4.801h7.44v2.586h-7.44z"/></svg>