<svg xmlns="http://www.w3.org/2000/svg" viewBox="0 0 22 22"><g stroke-width="1.151"><path fill="#d500ff" d="M10.222.13C8.866.13 7.48.68 6.55 1.57c-.89.933-1.42 2.32-1.441 3.675 0 .352.285.638.638.638h2.559a.637.637 0 0 0 .638-.638c-.03-.541.079-.752.316-.962.209-.236.42-.316.962-.316.54 0 .751.079.96.316.237.209.32.42.32.962 0 .45-.019.498-.12.638-.618.623-1.362 1.15-2.03 1.716-.762.582-1.594 1.541-1.687 2.758v.64c0 .353.287.64.64.64h2.557c.353 0 .64-.287.64-.64v-.373c.847-.812 2.014-1.51 2.92-2.411a1 1 0 0 0 .07-.083c.487-.72.844-1.773.844-2.886 0-1.356-.549-2.743-1.439-3.674-.932-.89-2.32-1.441-3.676-1.441zM8.305 12.917a.64.64 0 0 0-.64.638v2.559a.64.64 0 0 0 .64.638h2.557a.64.64 0 0 0 .64-.638v-2.559a.64.64 0 0 0-.64-.638z"/><path fill="#0ff" d="m21.81 17.207-4.474 4.474a.64.64 0 0 1-.906 0l-.903-.904a.64.64 0 0 1 0-.905l1.84-1.84h-3.945a.64.64 0 0 1-.639-.64v-1.278a.64.64 0 0 1 .64-.64h3.945l-1.841-1.84a.64.64 0 0 1 0-.904l.903-.904c.251-.25.655-.25.906 0L21.81 16.3c.249.25.249.655 0 .905z"/><path fill="#06f" d="M20.454.768v8.95a.64.64 0 0 1-.64.639h-1.278a.64.64 0 0 1-.64-.64V.769a.64.64 0 0 1 .64-.639h1.279a.64.64 0 0 1 .64.64M3.836.768v17.254h8.31a.64.64 0 0 1 .64.64v1.278a.64.64 0 0 1-.64.64h-8.31v.639a.64.64 0 0 1-.64.64H1.919a.64.64 0 0 1-.64-.64v-.64H.64A.64.64 0 0 1 0 19.94v-1.278a.64.64 0 0 1 .64-.64h.639V.768A.64.64 0 0 1 1.918.13h1.279a.64.64 0 0 1 .639.64"/></g></svg>