<svg version="1.1" viewBox="0 0 22 22" xmlns="http://www.w3.org/2000/svg">
 <path transform="translate(.001941 4e-5) scale(.9997) translate(-.7334 -1.534) scale(1.467)" d="m14.69 2.592a0.7253 0.7253 0 0 0-0.09375 0.00781 0.7253 0.7253 0 0 0-0.6191 0.8164c0.2048 1.496-0.04589 3.526-0.9746 5.094s-2.446 2.727-5.096 2.727c-2.655 0-4.125-1.126-5.008-2.656-0.8825-1.53-1.087-3.526-0.8574-5.029a0.7253 0.7253 0 0 0-0.6074-0.8262 0.7253 0.7253 0 0 0-0.8262 0.6074c-0.2755 1.804-0.0628 4.069 1.035 5.973s3.17 3.383 6.264 3.383c3.098 0 5.202-1.51 6.344-3.438 1.142-1.927 1.412-4.219 1.164-6.031a0.7253 0.7253 0 0 0-0.7246-0.627z" fill="#f0f"/>
 <path transform="translate(.001941 4e-5) scale(.9997) translate(-.7334 -1.534) scale(1.467)" d="m8 9.06a2.72 2.72 0 0 0-2.721 2.719 2.72 2.72 0 0 0 2.721 2.721 2.72 2.72 0 0 0 2.721-2.721 2.72 2.72 0 0 0-2.721-2.719z" fill="#f0f"/>
</svg>
