<svg version="1.1" viewBox="0 0 22 22" xmlns="http://www.w3.org/2000/svg">
 <g transform="translate(0) scale(1) translate(0 1e-6) scale(1) translate(.001476 -.00065) scale(1)" fill="#28ff00" stroke-width="1.374">
  <path d="M.654.001A.687.687 0 0 0 .356 1.29s1.071.604 2.201 2.136c.695.943 1.396 2.222 1.833 3.91h1.409C5.324 5.301 4.497 3.741 3.663 2.61 2.384.87 1.041.097 1.041.097A.7.7 0 0 0 .75.003 1 1 0 0 0 .655.001zM4.396 14.66c-.437 1.697-1.142 2.977-1.838 3.92C1.428 20.105.36 20.703.36 20.703a.69.69 0 0 0-.357.604.687.687 0 0 0 1.036.593s1.344-.773 2.625-2.504c.837-1.132 1.668-2.693 2.142-4.736z" opacity=".75"/>
  <path d="M3.676 7.336c-1.016 0-1.83.815-1.83 1.83v3.665c0 1.016.815 1.83 1.83 1.83h3.666c1.016 0 1.83-.815 1.83-1.83V9.166c0-1.016-.815-1.83-1.83-1.83zm0 1.83h3.666v3.665H3.676z"/>
  <path d="M3.679 9.169v3.663h3.664V9.17z" opacity=".5"/>
  <path d="M15.579 5.502v4.58H11v1.831h4.578v4.582h1.834v-4.582h4.581v-1.831h-4.581v-4.58z"/>
 </g>
</svg>
