<svg version="1.1" viewBox="0 0 22 22" xmlns="http://www.w3.org/2000/svg">
 <path transform="translate(.001941 -.00021) scale(.9997) translate(-.7334 -.8004) scale(1.467)" d="m3.096 11.69a0.4524 0.4524 0 1 0 0 0.9043h9.854a0.4524 0.4524 0 1 0 0-0.9043z" fill="#FDFF00"/>
 <path transform="translate(.001941 -.00021) scale(.9997) translate(-.7334 -.8004) scale(1.467)" d="m2.111 10.8c-0.7484 0-1.363 0.6168-1.363 1.365s0.6149 1.365 1.363 1.365h0.04492c0.7484 0 1.367-0.6168 1.367-1.365s-0.6188-1.365-1.367-1.365z" fill="#FDFF00"/>
 <path transform="translate(.001941 -.00021) scale(.9997) translate(-.7334 -.8004) scale(1.467)" d="m13.89 10.78c-0.7495 0-1.367 0.6177-1.367 1.367v2e-3c0 0.7495 0.6177 1.367 1.367 1.367 0.7495 0 1.367-0.6177 1.367-1.367v-2e-3c0-0.7495-0.6177-1.367-1.367-1.367z" fill="#FDFF00"/>
 <path transform="translate(.001941 -.00021) scale(.9997) translate(-.7334 -.8004) scale(1.467)" d="m14.69 2.092a0.7253 0.7253 0 0 0-0.09375 0.00781 0.7253 0.7253 0 0 0-0.6191 0.8164c0.2048 1.496-0.04589 3.526-0.9746 5.094s-2.446 2.727-5.096 2.727c-2.655 0-4.125-1.126-5.008-2.656-0.8825-1.53-1.087-3.526-0.8574-5.029a0.7253 0.7253 0 0 0-0.6074-0.8262 0.7253 0.7253 0 0 0-0.8262 0.6074c-0.2755 1.804-0.0628 4.069 1.035 5.973 1.098 1.903 3.17 3.383 6.264 3.383 3.098 0 5.202-1.51 6.344-3.438 1.142-1.927 1.412-4.219 1.164-6.031a0.7253 0.7253 0 0 0-0.7246-0.627z" fill="#FDFF00"/>
 <path transform="translate(.001941 -.00021) scale(.9997) translate(-.7334 -.8004) scale(1.467)" d="m6.104 8.664c-0.4912 4.496e-4 -0.8882 0.3994-0.8887 0.8906v3.555c4.46e-4 0.4912 0.3974 0.8902 0.8887 0.8906h3.594c0.4912-4.57e-4 0.8882-0.3994 0.8887-0.8906v-3.555c-4.46e-4 -0.4912-0.3974-0.8902-0.8887-0.8906z" fill="#FDFF00"/>
</svg>
