<svg version="1.1" viewBox="0 0 22 22" xmlns="http://www.w3.org/2000/svg">
 <path transform="translate(.002772 4e-5) scale(.9999) translate(-.48 -.5549) scale(.9598)" d="m18.29 4.293-14 14 1.414 1.414 14-14z" fill="#FF8000"/>
 <path transform="translate(.002772 4e-5) scale(.9999) translate(-.48 -.5549) scale(.9598)" d="m5.193 14.08c-0.3139 0-0.6275 0.1201-0.8672 0.3594l-3.467 3.467c-0.4785 0.4794-0.4785 1.255 0 1.734l3.502 3.502c0.4794 0.4785 1.255 0.4785 1.734 0l3.467-3.467c0.4785-0.4794 0.4785-1.255 0-1.734l-3.502-3.502c-0.2397-0.2392-0.5533-0.3594-0.8672-0.3594z" fill="#FF8000"/>
 <path transform="translate(.002772 4e-5) scale(.9999) translate(-.48 -.5549) scale(.9598)" d="m18.69 0.5781c-0.3139 0-0.6275 0.1201-0.8672 0.3594l-3.467 3.467c-0.4785 0.4794-0.4785 1.255 0 1.734l3.502 3.502c0.4794 0.4785 1.255 0.4785 1.734 0l3.467-3.467c0.4785-0.4794 0.4785-1.255 0-1.734l-3.502-3.502c-0.2397-0.2392-0.5533-0.3594-0.8672-0.3594z" fill="#FF8000"/>
</svg>
