<svg version="1.1" viewBox="0 0 22 22" xmlns="http://www.w3.org/2000/svg">
 <path transform="translate(0 5e-5) scale(1) translate(0 .000962) scale(.9998)" d="m9 0a1.496 1.496 0 0 0-1.502 1.5v0.9961h-7.498v2.002h7.498v1.002c0 0.8291 0.6724 1.498 1.502 1.498h3.998a1.498 1.498 0 0 0 1.502-1.498v-1.002h7.498v-2.002h-7.498v-0.9961a1.496 1.496 0 0 0-1.502-1.5zm1 1.5h1.998c0.5555 0 1 0.4458 1 0.998v2c0 0.5517-0.4455 1.002-1 1.002h-1.998a0.9999 0.9999 0 0 1-1-1.002v-2c0-0.5517 0.4447-0.998 1-0.998zm-4.496 13.5-4 2e-3a1.496 1.496 0 0 0-1.5 1.5v3.998a1.496 1.496 0 0 0 1.5 1.502h4a1.498 1.498 0 0 0 1.5-1.502v-0.998h1.998v-2h-1.998v-1.002a1.498 1.498 0 0 0-1.5-1.5zm11 2e-3a1.498 1.498 0 0 0-1.498 1.5v1.002h-2v1.998h2v1c0 0.8299 0.6694 1.5 1.498 1.5h3.998a1.498 1.498 0 0 0 1.502-1.5v-4a1.498 1.498 0 0 0-1.502-1.5zm-14 1.5h2.002c0.5517 0 1.002 0.4464 1.002 1.002v1.998c0 0.5548-0.4494 1-1.002 1h-2c-0.5517 0-0.998-0.4455-0.998-1v-1.998c0-0.5551 0.445-1.001 0.9961-1.002zm15 0h1.998c0.5548 0 1 0.4464 1 1.002v1.998a0.9977 0.9977 0 0 1-1 1h-1.998a0.9977 0.9977 0 0 1-1.002-1v-1.998c0-0.5555 0.446-1.002 1.002-1.002z" fill="#FF8000"/>
 <path transform="translate(0 5e-5) scale(1) translate(0 .000962) scale(.9998)" d="m8.062 9.994a0.4988 0.4988 0 0 0-0.4375 0.7383l3.002 3.51c0.3129 0.3749 0.5614 0.3749 0.877 0l2.998-3.51a0.4867 0.4867 0 0 0 0.05859-0.2402 0.4988 0.4988 0 0 0-0.498-0.498z" fill="#FF8000"/>
</svg>
