<svg version="1.1" viewBox="0 0 22 22" xmlns="http://www.w3.org/2000/svg">
 <defs>
  <linearGradient id="a" y1="1">
   <stop stop-color="#cbcbcb" offset="0"/>
   <stop stop-color="#fafafa" offset=".9973"/>
  </linearGradient>
 </defs>
 <path transform="translate(-1e-5) scale(.9999) translate(0) scale(.3438) translate(0) scale(1) translate(0) scale(1) translate(0) scale(1) translate(-2e-5 -1e-6) scale(1) translate(.008 .004) scale(.9998)" d="M10.8 0a7.18 7.18 0 0 0-7.174 7.174v8.064c0 1.683 1.21 3.047 2.701 3.047s2.703-1.364 2.703-3.047V10.4c0-2.377 1.928-4.973 4.303-4.973h37.32c2.375 0 4.303 2.596 4.303 4.973v26.17c0 1.681 1.212 3.049 2.703 3.049s2.701-1.367 2.701-3.049V7.17a7.18 7.18 0 0 0-7.174-7.174zM6.327 25.91c-1.491 0-2.701 1.364-2.701 3.047v27.87a7.18 7.18 0 0 0 7.174 7.174h23.9c1.491 0 2.701-1.365 2.701-3.047S34.7 58.573 34.7 58.573H13.34c-2.375 0-4.305-2.596-4.305-4.973V28.95c0-1.683-1.212-3.047-2.703-3.047zm51.34 19.81c-1.491 0-2.703 1.364-2.703 3.047v4.838c0 2.377-1.928 4.973-4.303 4.973-1.35.006-3.069-.007-4.053 0-.983.006-2.451.696-2.451 2.379 0 1.681 1.211 3.049 2.703 3.049h6.334a7.18 7.18 0 0 0 7.174-7.174v-8.064c0-1.683-1.21-3.047-2.701-3.047z" fill="url(#a)"/>
</svg>
