<svg xmlns="http://www.w3.org/2000/svg" fill="none" viewBox="0 0 22 22"><defs><linearGradient id="a" x1="11" x2="11" y1="20.62" y2="1.375" gradientUnits="userSpaceOnUse"><stop offset="0" stop-color="#00b59c"/><stop offset="1" stop-color="#9cffac"/></linearGradient><linearGradient id="c" x1="10.85" x2="10.85" y1="20.62" y2="1.375" gradientUnits="userSpaceOnUse"><stop offset="0" stop-color="#00b59c"/><stop offset="1" stop-color="#9cffac"/></linearGradient></defs><path fill="url(#a)" stroke="url(#c)" stroke-width=".6" d="M2.062 1.375a.687.687 0 0 0-.687.688v.229c0 .38.307.687.687.687h1.785c.56 0 .885.633.56 1.088L1.502 8.123a.7.7 0 0 0-.128.4v.186c0 .38.307.687.687.687h5.042c.38 0 .688-.308.688-.687v-.23a.687.687 0 0 0-.688-.687H5.868a.688.688 0 0 1-.572-1.07l2.38-3.57a.7.7 0 0 0 .116-.38v-.709a.687.687 0 0 0-.688-.687zm12.83 3.208a.687.687 0 0 0-.687.688v10.64c0 .612-.741.919-1.175.486l-2.01-2.01a.69.69 0 0 0-.96-.011l-.162.155a.687.687 0 0 0-.014.98l4.771 4.817a.54.54 0 0 0 .702 0l4.771-4.817a.687.687 0 0 0-.013-.98l-.162-.155a.69.69 0 0 0-.96.01l-2.01 2.01a.688.688 0 0 1-1.175-.485V5.27a.69.69 0 0 0-.687-.688zm-10.16 8.021c-.956.022-1.735.144-2.362.342-.322.102-.48.448-.39.773l.05.182c.105.384.514.6.898.497.52-.141 1.189-.29 1.653-.29h.1c1.037.044 1.103.412 1.103 1.303a.42.42 0 0 1-.345.414l-.206.037c-2.513.365-3.86.678-3.86 2.607 0 1.344.989 2.156 2.406 2.156.723 0 1.25-.217 1.74-.554.236-.162.572-.038.617.245.028.178.182.31.362.31h.603c.38 0 .688-.309.688-.688V15.06c0-1.651-1.154-2.456-2.908-2.456h-.15zm.501 4.361a.506.506 0 0 1 .552.504v.885a.66.66 0 0 1-.307.565c-.407.25-.784.402-1.348.402-.628 0-.952-.397-.952-.952 0-1.052.93-1.243 2.055-1.404z" transform="translate(-1.024 -1.191)scale(1.10794)"/></svg>