<svg version="1.1" viewBox="0 0 22 22" xmlns="http://www.w3.org/2000/svg">
 <defs>
  <style>.ColorScheme-Text{color:#ebdbb2}</style>
 </defs>
 <g transform="translate(-0) scale(1) translate(-0) scale(1) translate(-0) scale(1)" fill="#0cf">
  <path class="ColorScheme-Text" d="M12.567 8.64a3.927 3.927 0 0 1-3.927 3.927A3.927 3.927 0 0 1 4.713 8.64 3.927 3.927 0 0 1 8.64 4.713a3.927 3.927 0 0 1 3.927 3.927" opacity=".3"/>
  <path class="ColorScheme-Text" d="M17.28 13.352a3.927 3.927 0 0 1-3.928 3.927 3.927 3.927 0 0 1-3.927-3.927 3.927 3.927 0 0 1 3.927-3.927 3.927 3.927 0 0 1 3.927 3.927m4.712-5.498a3.14 3.14 0 0 0-3.142 3.142 3.14 3.14 0 0 0 3.142 3.142zm0 10.996a3.14 3.14 0 0 0-3.142 3.142h3.142zm-10.996 0a3.14 3.14 0 0 0-3.142 3.142h6.284a3.14 3.14 0 0 0-3.142-3.142M0 18.85v3.142h3.142A3.14 3.14 0 0 0 0 18.85M0 7.854v6.284a3.14 3.14 0 0 0 3.142-3.142A3.14 3.14 0 0 0 0 7.854M0 0v3.142A3.14 3.14 0 0 0 3.142 0zm7.854 0a3.14 3.14 0 0 0 3.142 3.142A3.14 3.14 0 0 0 14.138 0zM18.85 0a3.14 3.14 0 0 0 3.142 3.142V0z"/>
 </g>
</svg>
