<svg version="1.1" viewBox="0 0 22 22" xmlns="http://www.w3.org/2000/svg">
 <path transform="translate(4e-6) scale(1) translate(-.00036 -.000405) scale(.9998) translate(-.00129 -.001635) scale(1) translate(-1.26 -1.347) scale(1.533)" d="M6.707.88 3.879 3.706l1.414 1.414 2.828-2.828zm4 0L7.879 3.706l1.414 1.414 2.828-2.828zM1 1v4h2V1zm12 .001v4h2v-4zm-12 5v4h2V6zm12 0v4h2v-4zm-5.767.135-3.465 2 1 1.731 3-1.73 1 1.731 3.465-2-1-1.731-3 1.73zm-1.098 4.633-1.999 3.465 1.73 1 1.999-3.465zm4 0-1.999 3.465 1.73 1 1.999-3.465zM1 11.001v4h2v-4zm12 .002v4h2v-4z" color="#ebdbb2" fill="#ff0080"/>
</svg>
