<svg version="1.1" viewBox="0 0 22 22" xmlns="http://www.w3.org/2000/svg">
 <defs>
  <linearGradient id="a" x1="1" x2="0" y2="1">
   <stop stop-color="#feaa00" offset="0"/>
   <stop stop-color="#fd0575" offset=".5"/>
   <stop stop-color="#7b31fe" offset="1"/>
  </linearGradient>
 </defs>
 <path transform="translate(.000849 .000584) scale(1) translate(-.9973 -1.187) scale(1.511)" d="m1.983 0.7852a1.32 1.32 0 0 0-1.323 1.324v11.91c0 0.734 0.5888 1.324 1.323 1.324h11.91a1.32 1.32 0 0 0 1.324-1.324v-11.91a1.32 1.32 0 0 0-1.326-1.324zm0.3325 0.9917h11.25c0.364 0 0.6606 0.2966 0.6606 0.6636v11.25c0 0.364-0.2966 0.6592-0.6606 0.6592h-11.25a0.663 0.663 0 0 1-0.6636-0.6592v-11.25c0-0.367 0.2966-0.6636 0.6636-0.6636z" fill="url(#a)" fill-opacity=".997"/>
 <path transform="translate(.000849 .000584) scale(1) translate(-.9973 -1.187) scale(1.511)" d="m11.27 2.77a0.51 0.51 0 0 0-0.4497 0.2461l-2.149 3.64a0.488 0.488 0 0 0-0.00293 0.4995c0.086 0.157 0.2536 0.2505 0.4336 0.2505h4.296c0.18 0 0.3476-0.09349 0.4336-0.2505a0.488 0.488 0 0 0-0.004395-0.4995l-2.148-3.64a0.508 0.508 0 0 0-0.4102-0.2461zm-6.306 0.00293a2.314 2.314 0 0 0-2.314 2.317 2.314 2.314 0 0 0 2.314 2.316 2.314 2.314 0 0 0 2.317-2.316 2.314 2.314 0 0 0-2.316-2.317zm0 0.9932c0.7348 2.672e-4 1.326 0.5904 1.326 1.324a1.32 1.32 0 0 1-1.324 1.324 1.32 1.32 0 0 1-1.324-1.324c0-0.7348 0.589-1.324 1.323-1.324zm6.286 0.4834 1.274 2.161h-2.547zm1.137 3.79-2.292 0.00146a0.664 0.664 0 0 0-0.6636 0.6621v3.992c0 0.364 0.2966 0.6606 0.6636 0.6606h2.292a0.66 0.66 0 0 0 0.6606-0.6606v-3.992a0.66 0.66 0 0 0-0.6606-0.6636zm-9.073 0.6885a0.66 0.66 0 0 0-0.6636 0.6592v3.308c0 0.364 0.2956 0.6606 0.6636 0.6606h3.303a0.663 0.663 0 0 0 0.665-0.6606v-3.308a0.66 0.66 0 0 0-0.665-0.6592zm7.441 0.3032h0.9683c0.183 0 0.3325 0.1495 0.3325 0.3325v2.668a0.332 0.332 0 0 1-0.3325 0.3325h-0.9683a0.332 0.332 0 0 1-0.3325-0.3325v-2.668c0-0.183 0.1485-0.3325 0.3325-0.3325zm-6.781 0.6885h1.983c0.184 0 0.3325 0.1441 0.3325 0.3281v1.983a0.332 0.332 0 0 1-0.3325 0.3325h-1.983a0.332 0.332 0 0 1-0.331-0.3325v-1.983c0-0.184 0.147-0.3281 0.331-0.3281z" fill="url(#a)"/>
</svg>
