<svg version="1.1" viewBox="0 0 22 22" xmlns="http://www.w3.org/2000/svg">
 <path transform="translate(0) scale(1) translate(0) scale(1) translate(0) scale(1)" d="M3.979 0A3.99 3.99 0 0 0 0 3.979v14.037a3.99 3.99 0 0 0 3.979 3.98h14.037a3.99 3.99 0 0 0 3.98-3.98V3.98A3.99 3.99 0 0 0 18.015 0zm0 1.692h14.037a2.264 2.264 0 0 1 2.288 2.288v14.038a2.264 2.264 0 0 1-2.288 2.287H3.98a2.264 2.264 0 0 1-2.288-2.287V3.98A2.264 2.264 0 0 1 3.98 1.692m1.56 1.693L18.614 16.46v-2.458L8 3.386zm6.769 0 6.305 6.305V7.232l-3.847-3.847zM3.385 5.539v2.459L14 18.613h2.458zm0 6.769v2.458l3.847 3.847H9.69z" fill="#00a2ff"/>
</svg>
