<svg version="1.1" viewBox="0 0 22 22" xmlns="http://www.w3.org/2000/svg">
 <defs>
  <style>.ColorScheme-Text{color:#ebdbb2}</style>
 </defs>
 <g transform="translate(-0) scale(1) translate(-0) scale(1) translate(-0) scale(1)" fill="#f0f">
  <path class="ColorScheme-Text" d="M9.425 0h3.142v3.142H9.425zm4.713 4.713h3.141v3.141h-3.141zm-4.713 0h3.142v3.141H9.425zm-4.712 0h3.141v3.141H4.713zM18.85 9.425h3.142v3.142H18.85zm-4.712 0h3.141v3.142h-3.141zm-4.713 0h3.142v3.142H9.425zm-4.712 0h3.141v3.142H4.713zM0 9.425h3.142v3.142H0zm14.138 4.713h3.141v3.141h-3.141zm-4.713 0h3.142v3.141H9.425zm-4.712 0h3.141v3.141H4.713zm4.712 4.712h3.142v3.142H9.425z" opacity=".3"/>
  <path class="ColorScheme-Text" d="M4.713 4.713h1.57v1.57h-1.57zm0 10.995h1.57v1.571h-1.57zm10.995 0h1.571v1.571h-1.57zm0-10.995h1.571v1.57h-1.57zm-5.498 10.21h1.571v1.57h-1.57zM5.498 10.21h1.57v1.571h-1.57zm9.425 0h1.57v1.571h-1.57zM10.21 5.498h1.571v1.57h-1.57zm0 4.712h1.571v1.571h-1.57zM9.425 0h3.142v1.57H9.425zm0 20.421h3.142v1.57H9.425zM0 9.425h1.57v3.142H0zm20.421 0h1.57v3.142h-1.57zm-5.498 5.498h1.57v1.57h-1.57zm-9.425 0h1.57v1.57h-1.57zm0-9.425h1.57v1.57h-1.57zm9.425 0h1.57v1.57h-1.57zM18.85 0h3.142v3.142H18.85zm-4.712 0h3.141v3.142h-3.141zM4.713 0h3.141v3.142H4.713zM0 0h3.142v3.142H0zm18.85 4.713h3.142v3.141H18.85zM0 4.713h3.142v3.141H0zm18.85 9.425h3.142v3.141H18.85zm-18.85 0h3.142v3.141H0zm18.85 4.712h3.142v3.142H18.85zm-4.712 0h3.141v3.142h-3.141zm-9.425 0h3.141v3.142H4.713zM0 18.85h3.142v3.142H0z"/>
 </g>
</svg>
