<svg xmlns="http://www.w3.org/2000/svg" viewBox="0 0 22 22"><defs><linearGradient id="a" x1="1" x2="0" y1=".5" y2=".5"><stop offset="0" stop-color="#40dbff"/><stop offset="1" stop-color="#00acf8"/></linearGradient></defs><path fill="url(#a)" d="M433-276v-409l-53 51q-14 15-33 15t-33-14q-15-14-15-33t15-34l132-132q7-7 16-11t18-4 18 4 16 11l133 133q14 14 14 33.5T646-632q-14 14-33.5 14T580-632l-53-53v409l54-51q14-14 33-14t33 14 14 33-14 33L514-128q-7 7-16 11t-18 4-18-4-16-11L314-261q-14-14-14-33t14-33q14-15 32.5-14.5T380-327z" transform="translate(-3.387 25.386)scale(.02997)"/></svg>