<svg version="1.1" viewBox="0 0 22 22" xmlns="http://www.w3.org/2000/svg">
 <defs>
  <linearGradient id="a" y2="1">
   <stop stop-color="#00efff" offset="0"/>
   <stop stop-color="#07f" offset="1"/>
  </linearGradient>
 </defs>
 <path transform="translate(-0) scale(1) translate(-0) scale(1) translate(-0) scale(1) translate(-.001674 3.2e-5) scale(1) translate(.7023 .7023) scale(.9363)" d="m11-0.75c-2.402 0-4.238-0.0107-5.799 0.1992-1.57 0.2112-2.953 0.7027-4 1.75-1.047 1.047-1.536 2.428-1.748 3.998-0.2108 1.562-0.2012 3.401-0.2012 5.801 0 2.402-0.01071 4.238 0.1992 5.799 0.2111 1.57 0.7027 2.953 1.75 4 1.047 1.047 2.428 1.536 3.998 1.748a0.7501 0.7501 0 0 0 0.00195 0c1.562 0.2099 3.399 0.2012 5.799 0.2012 2.402 0 4.238 0.0087 5.799-0.2012 1.57-0.2111 2.953-0.7008 4-1.748 1.047-1.047 1.536-2.43 1.748-4a0.7501 0.7501 0 0 0 2e-3 0c0.2098-1.562 0.1992-3.399 0.1992-5.799 0-2.402 0.0107-4.24-0.1992-5.801-0.2112-1.57-0.7028-2.951-1.75-3.998-1.047-1.047-2.428-1.538-3.998-1.75-1.562-0.2108-3.401-0.1992-5.801-0.1992zm0 3.109c2.401 0 4.176 0.01131 5.385 0.1738 1.218 0.1639 1.757 0.4032 2.217 0.8633 0.4611 0.4611 0.6993 0.9956 0.8633 2.215 0.1625 1.208 0.1738 2.986 0.1738 5.387s-0.0113 4.177-0.1738 5.385c-0.1639 1.219-0.4029 1.757-0.8633 2.217-0.4611 0.4611-0.9956 0.6993-2.215 0.8633-1.209 0.1626-2.986 0.1738-5.387 0.1738s-4.176-0.01131-5.385-0.1738c-1.218-0.1639-1.757-0.4032-2.217-0.8633-0.4611-0.4611-0.6993-0.9956-0.8633-2.215-0.1625-1.208-0.1738-2.986-0.1738-5.387s0.01131-4.176 0.1738-5.385c0.1639-1.219 0.4029-1.757 0.8633-2.217 0.4611-0.4611 0.9956-0.6993 2.215-0.8633 1.208-0.1625 2.986-0.1738 5.387-0.1738z" fill="url(#a)"/>
</svg>
