<svg version="1.1" viewBox="0 0 22 22" xmlns="http://www.w3.org/2000/svg">
 <defs>
  <linearGradient id="a" x1="1" x2="0" y1="1">
   <stop stop-color="#ff4fff" offset="0"/>
   <stop stop-color="#fd5" offset="1"/>
  </linearGradient>
  <style>.ColorScheme-Text{color:#0abdc6}</style>
 </defs>
 <g transform="translate(0) scale(1) translate(0) scale(1) translate(0) scale(1.375)" fill="url(#a)">
  <path class="ColorScheme-Text" d="M8 2c-.554 0-1 .446-1 1v3.127A4 4 0 0 1 9.873 9H13c.554 0 1-.446 1-1V3c0-.554-.446-1-1-1z" opacity=".403"/>
  <path class="ColorScheme-Text" d="M6 6a4 4 0 1 0 4 4H8c-1.099 0-2-.9-2-2zm1 .127V8c0 .554.446 1 1 1h1.873A4 4 0 0 0 7 6.127" opacity=".801"/>
  <path class="ColorScheme-Text" d="M7.5 0A2.506 2.506 0 0 0 5 2.5v1.584C2.167 4.562 0 7.033 0 10c0 3.308 2.692 6 6 6 2.967 0 5.438-2.167 5.916-5H13.5c1.376 0 2.5-1.124 2.5-2.5v-6C16 1.124 14.876 0 13.5 0zm0 1h6c.84 0 1.5.66 1.5 1.5v6c0 .84-.66 1.5-1.5 1.5H11a5 5 0 0 1-.113 1h.013A4.99 4.99 0 0 1 6 15c-2.767 0-5-2.233-5-5a4.99 4.99 0 0 1 4-4.9v.014A5 5 0 0 1 6 5V2.5C6 1.66 6.66 1 7.5 1z"/>
 </g>
</svg>
