<svg version="1.1" viewBox="0 0 22 22" xmlns="http://www.w3.org/2000/svg">
 <defs>
  <linearGradient id="a" x1="1" x2="0" y2="1">
   <stop stop-color="#feaa00" offset="0"/>
   <stop stop-color="#fd0575" offset=".5"/>
   <stop stop-color="#7b31fe" offset="1"/>
  </linearGradient>
 </defs>
 <path transform="translate(0) scale(1) translate(0) scale(1) translate(0) scale(1) translate(0) scale(1) translate(-1e-6) scale(1) translate(.005355 .00144) scale(1) translate(-.759 -.8779) scale(1.517)" d="m12.09 1.002a2.971 2.971 0 0 0-2.482 1.242l-3.416 4.783c-0.1407-0.01867-0.2862-0.02734-0.4356-0.02734-2.188 0-3.03 1.636-3.26 2.996-0.087 0.513-0.5134 0.888-1.148 1-0.253 0.045-0.5396 0.047-0.8516 0 0 0.528 0.06197 1.068 0.293 1.529a2 2 0 0 0 0.209 0.332 4.78 4.78 0 0 0 4.209 1.775c2.403-0.234 3.789-1.988 3.789-3.894-6.667e-4 -0.314-0.02679-0.6132-0.07812-0.8965l4.836-3.453a2.971 2.971 0 0 0-1.664-5.387zm-0.03125 1.498a1.471 1.471 0 0 1 0.8242 2.668l-0.457 0.3262a4.2 4.2 0 0 0-1.922-1.922l0.3262-0.457a1.471 1.471 0 0 1 1.228-0.6152zm-2.447 2.32a2.7 2.7 0 0 1 1.566 1.564l-2.818 2.014c-0.2046-0.3124-0.4498-0.5771-0.7363-0.793zm-3.854 3.68c0.517 0 0.9142 0.1974 1.199 0.5234 0.297 0.34 0.541 0.9058 0.541 1.715 0 1.121-0.7866 2.24-2.436 2.4a3.3 3.3 0 0 1-2.631-0.9219c0.76-0.337 1.375-0.9667 1.545-1.971 0.086-0.507 0.2711-0.9617 0.5391-1.264 0.225-0.254 0.5722-0.4824 1.242-0.4824z" fill="url(#a)"/>
</svg>
