<svg version="1.1" viewBox="0 0 22 22" xmlns="http://www.w3.org/2000/svg">
 <defs>
  <linearGradient id="a" x1="1" x2="0" y2="1">
   <stop stop-color="#fea201" offset="0"/>
   <stop stop-color="#f2203e" offset=".33"/>
   <stop stop-color="#b729a8" offset=".67"/>
   <stop stop-color="#5342d6" offset="1"/>
  </linearGradient>
 </defs>
 <path transform="translate(2e-4 .000524) scale(1) translate(.4783 .4783) scale(.9565)" d="m1.1-0.5c-0.8777 0-1.6 0.7219-1.6 1.6v17.6c0 2.084 1.717 3.801 3.801 3.801h17.6c0.8777 0 1.6-0.7219 1.6-1.6s-0.7219-1.602-1.6-1.602h-17.6c-0.3629 0-0.5996-0.2367-0.5996-0.5996v-17.6c0-0.8777-0.7238-1.6-1.602-1.6z" fill="url(#a)"/>
 <path transform="translate(2e-4 .000524) scale(1) translate(.4783 .4783) scale(.9565)" d="m19.77 1.701c-0.7205 0.01367-1.349 0.5134-1.523 1.213-0.2279 0.9116-0.897 2.79-1.752 4.254a0.5 0.5 0 0 0 0 0.00195c-0.4269 0.7319-0.9148 1.372-1.332 1.754-0.4216 0.3855-0.72 0.4746-0.8652 0.4746-0.08468 0-0.1111 0.00973-0.123 0.00977h-4e-3v-0.001954h-2e-3l-2e-3 -0.00195c-0.0093-0.01034-0.0256-0.03925-0.1035-0.1094-0.1183-0.1069-0.3634-0.4281-0.6326-0.832-0.2693-0.4039-0.6064-0.9441-1.154-1.438-0.5722-0.5154-1.406-0.9258-2.375-0.9258-1.23 0-2.254 0.6435-2.957 1.418-0.6909 0.7615-1.163 1.673-1.547 2.594-0.7694 1.847-1.19 3.867-1.449 4.902-0.2131 0.8521 0.3117 1.727 1.164 1.94 0.8521 0.2131 1.727-0.3117 1.94-1.164 0.2893-1.157 0.6968-2.998 1.301-4.447 0.301-0.7225 0.6648-1.346 0.9609-1.672 0.3178-0.3506 0.4012-0.3691 0.5859-0.3691 0.07817 0 0.1076-0.00697 0.1211-0.00781h6e-3l2e-3 0.00195h2e-3l2e-3 0.00195c0.0098 0.01081 0.0256 0.0412 0.1035 0.1113 0.1188 0.1069 0.3635 0.4281 0.6328 0.832s0.6064 0.9441 1.154 1.438c0.5722 0.5154 1.406 0.9258 2.375 0.9258 1.218 0 2.239-0.5973 3.022-1.312a0.5 0.5 0 0 0 2e-3 0c0.7796-0.7128 1.402-1.594 1.936-2.508 1.067-1.828 1.777-3.816 2.096-5.094 0.2129-0.8521-0.3117-1.729-1.164-1.941a0.5 0.5 0 0 0-0.0039 0c-0.1349-0.03341-0.2719-0.0491-0.4105-0.04687a0.5 0.5 0 0 0-2e-3 0z" fill="url(#a)"/>
</svg>
