<svg xmlns="http://www.w3.org/2000/svg" viewBox="0 0 22 22"><path fill="#01f9c6" d="M9.662 1.77a9.23 9.23 0 0 0-5.697 3.087c-1.44 1.644-2.3 3.771-2.3 6.139s.86 4.493 2.3 6.137a9.23 9.23 0 0 0 5.697 3.086.156.156 0 0 1 .133.154v1.369a.15.15 0 0 1-.052.116.15.15 0 0 1-.122.038c-2.707-.34-5.13-1.663-6.849-3.593S0 13.798 0 10.996s1.054-5.378 2.772-7.308S6.914.436 9.622.094a.15.15 0 0 1 .12.038.15.15 0 0 1 .053.116v1.369a.156.156 0 0 1-.133.154m12.328 9.226c0 2.802-1.053 5.377-2.772 7.307s-4.142 3.252-6.85 3.593a.15.15 0 0 1-.12-.038.15.15 0 0 1-.053-.116v-1.369c0-.077.057-.142.133-.154a9.23 9.23 0 0 0 5.697-3.086c1.44-1.644 2.3-3.77 2.3-6.137s-.86-4.495-2.3-6.14a9.24 9.24 0 0 0-5.697-3.086.154.154 0 0 1-.133-.153V.248c0-.044.018-.087.052-.116a.15.15 0 0 1 .122-.038c2.707.342 5.13 1.664 6.849 3.594s2.772 4.505 2.772 7.308m-4.499-4.922-.98.98a.155.155 0 0 1-.234-.017c-1.209-1.624-3.095-2.66-5.282-2.66-1.845 0-3.48.728-4.685 1.933s-1.934 2.84-1.934 4.686.729 3.48 1.934 4.684 2.84 1.934 4.685 1.934 3.48-.73 4.685-1.934a6.56 6.56 0 0 0 1.934-4.684c0-.79-.16-1.527-.414-2.234a.16.16 0 0 1 .036-.163l1.059-1.058a.155.155 0 0 1 .252.046 8.302 8.302 0 0 1-1.687 9.272c-1.49 1.488-3.58 2.42-5.865 2.42s-4.375-.932-5.864-2.42a8.3 8.3 0 0 1-2.421-5.863c0-2.285.932-4.375 2.42-5.865a8.3 8.3 0 0 1 5.865-2.42 8.32 8.32 0 0 1 6.509 3.157.155.155 0 0 1-.013.206m-.92 4.922c0 1.533-.63 2.946-1.63 3.945s-2.413 1.63-3.946 1.63-2.946-.63-3.946-1.63-1.63-2.412-1.63-3.945c0-.815.19-1.596.5-2.29a.16.16 0 0 1 .113-.089.16.16 0 0 1 .138.044l1.057 1.057c.04.04.055.1.04.155a3.8 3.8 0 0 0-.18 1.123c0 1.093.426 2.052 1.141 2.766s1.673 1.143 2.767 1.143 2.052-.428 2.767-1.143 1.141-1.673 1.141-2.766-.426-2.053-1.141-2.767-1.673-1.143-2.767-1.143-2.055.424-2.767 1.143a.155.155 0 0 1-.22 0L7.05 7.27a.155.155 0 0 1 0-.22c1.003-.995 2.412-1.63 3.945-1.63s2.946.63 3.946 1.629c1 .998 1.63 2.412 1.63 3.946"/></svg>