<svg xmlns="http://www.w3.org/2000/svg" viewBox="0 0 22 22"><path fill="#d66bff" d="M1.692.846v5.062H0v.013h1.692v15.227h20.302v-1.692H3.384v-1.692h5.075v-.013l.013.013 3.384-3.384h2.693l3.384 3.384h4.06v-1.692h-3.36L15.25 12.69h-4.094l-3.384 3.383H3.383V12.69h3.173l3.383-3.384H7.547l-1.692 1.692H3.383V5.92h1.692v-.013H3.383V.846zm3.383 0v1.692h1.692v5.075H8.46V.846zm7.614 0a2.53 2.53 0 0 0-2.538 2.538v1.692c0 1.406 1.132 2.537 2.538 2.537s2.537-1.131 2.537-2.537V3.384A2.53 2.53 0 0 0 12.69.846m6.767 0a2.53 2.53 0 0 0-2.538 2.538v1.692c0 1.406 1.132 2.537 2.538 2.537s2.538-1.131 2.538-2.537V3.384A2.53 2.53 0 0 0 19.456.846M12.69 2.538c.468 0 .846.377.846.846v1.692c0 .468-.378.846-.846.846s-.846-.378-.846-.846V3.384c0-.469.377-.846.846-.846m6.767 0c.469 0 .846.377.846.846v1.692c0 .468-.377.846-.846.846s-.846-.378-.846-.846V3.384c0-.469.377-.846.846-.846"/></svg>