<svg xmlns="http://www.w3.org/2000/svg" viewBox="0 0 22 22"><defs><linearGradient id="a" x1="1" x2="0" y1=".5" y2=".5"><stop offset="0" stop-color="#ecca7d"/><stop offset=".5" stop-color="#ffe29a"/><stop offset="1" stop-color="#ffedb3"/></linearGradient></defs><g fill="url(#a)" stroke-width="1.691" transform="translate(0 .002)scale(.9999)"><path d="M1.691.854v2.583H.007v.013h1.684v12.62H0v.013h1.691v5.06h20.29v-3.607l-.07-.066-4.782-4.783-.007.007-.01-.007-3.59 3.59-5.281-5.28H3.379v-7.55h7.55L6.757 7.617H3.381V9.31h4.076l6.071-6.07 3.59 3.59.01-.007.007.006 4.783-4.783c.005.009-1.196-1.196-1.196-1.196l-3.594 3.594L13.53.85l-.004.004-.003-.004-2.583 2.583H3.377V.85H1.686zm1.691 11.84h4.162l3.382 3.382H3.382zm13.74 2.385 3.594 3.594.816.786H3.382V16.09h7.557l2.583 2.583.003-.003.003.003 3.597-3.594z"/><path fill-opacity=".5" d="m21.07 1.226-4.145 4.7L13.543.853 6.779 7.617H3.397v11.84h18.6V2.107z"/></g></svg>