<svg xmlns="http://www.w3.org/2000/svg" fill="none" viewBox="0 0 22 22"><defs><linearGradient id="a" x1="7.364" x2="7.364" y1="15.06" y2="2.213" gradientTransform="matrix(-1.402 0 0 1.402 22.22 -.219)" gradientUnits="userSpaceOnUse"><stop offset="0" stop-color="#a93aff"/><stop offset="1" stop-color="#ff81ff"/></linearGradient><linearGradient id="c" x1="11" x2="11" y1="8.947" y2=".94" gradientTransform="matrix(-1.402 0 0 1.402 22.22 -.219)" gradientUnits="userSpaceOnUse"><stop offset="0" stop-color="#a93aff"/><stop offset="1" stop-color="#ff81ff"/></linearGradient></defs><g stroke-width="1.402"><path fill="url(#a)" d="M17.25 2.885a3.56 3.56 0 0 1 3.57 3.57v10.88a3.56 3.56 0 0 1-3.57 3.57H6.54a3.56 3.56 0 0 1-3.57-3.57v-5.456c0-.213.121-.408.318-.489.426-.174 1.034-.39 1.592-.624.477-.2 1.277.231 1.277.748v4.418c0 .989.797 1.785 1.785 1.785h7.905c.988 0 1.784-.796 1.784-1.785V7.86c0-.989-.796-1.785-1.785-1.785H11.56c-.516 0-.948-.802-.747-1.278.236-.558.453-1.168.628-1.592a.52.52 0 0 1 .488-.317h5.321z" opacity=".4" transform="translate(-1.221 -1.222)scale(1.11078)"/><path fill="url(#c)" d="M9.902 2.362A.74.74 0 0 0 9.379 1.1H2.132a.93.93 0 0 0-.948.945v7.219a.74.74 0 0 0 1.262.523l1.462-1.458a1.403 1.403 0 0 1 1.982.001l3.733 3.733a.93.93 0 0 0 1.03.184.8.8 0 0 0 .212-.16l1.282-1.286a.93.93 0 0 0 0-1.262L8.424 5.816a1.4 1.4 0 0 1 .002-1.985z" transform="translate(-1.221 -1.222)scale(1.11078)"/></g></svg>