<svg fill="none" version="1.1" viewBox="0 0 22 22" xmlns="http://www.w3.org/2000/svg">
 <defs>
  <linearGradient id="b" x1="7.364" x2="7.364" y1="15.06" y2="2.213" gradientUnits="userSpaceOnUse">
   <stop stop-color="#A93AFF" offset="0"/>
   <stop stop-color="#FF81FF" offset="1"/>
  </linearGradient>
  <linearGradient id="a" x1="11" x2="11" y1="8.947" y2=".9404" gradientUnits="userSpaceOnUse">
   <stop stop-color="#A93AFF" offset="0"/>
   <stop stop-color="#FF81FF" offset="1"/>
  </linearGradient>
 </defs>
 <path transform="translate(4e-4 .000462) scale(1) translate(-1.465 -1.465) scale(1.558)" d="m3.545 2.213c-1.41 0-2.545 1.135-2.545 2.545v7.756c0 1.41 1.135 2.546 2.545 2.546h7.636c1.41 0 2.546-1.135 2.546-2.546v-3.89c0-0.1521-0.0863-0.2909-0.2271-0.3485-0.3032-0.124-0.7377-0.2779-1.135-0.4453-0.3395-0.143-0.9104 0.1651-0.9104 0.5335v3.151c0 0.7051-0.5677 1.273-1.273 1.273h-5.636c-0.7051 0-1.273-0.5677-1.273-1.273v-5.756c0-0.7051 0.5676-1.273 1.273-1.273h3.057c0.3686 0 0.6767-0.5717 0.5332-0.9112-0.1682-0.3978-0.3231-0.8325-0.4481-1.136-0.05778-0.1402-0.1963-0.2259-0.3479-0.2259h-3.794z" fill="url(#b)" opacity=".4"/>
 <path transform="translate(4e-4 .000462) scale(1) translate(-1.465 -1.465) scale(1.558)" d="m8.783 1.84c-0.332-0.3321-0.09673-0.8999 0.3729-0.8999h5.168c0.3752-0.006038 0.6821 0.2984 0.6761 0.6736v5.148c0 0.4696-0.5677 0.7048-0.8999 0.3729l-1.043-1.04c-0.3907-0.3896-1.023-0.3891-1.413 1e-3l-2.662 2.662c-0.1838 0.1902-0.4949 0.2408-0.7343 0.1314-0.05798-0.0265-0.1062-0.06957-0.1512-0.1147l-0.9142-0.9165c-0.2353-0.2538-0.2353-0.646 0-0.8999l2.655-2.655c0.3911-0.3911 0.3904-1.025-0.0015-1.416l-1.052-1.048z" fill="url(#a)"/>
</svg>
