<svg xmlns="http://www.w3.org/2000/svg" fill="none" viewBox="0 0 22 22"><defs><linearGradient id="a" x1="11" x2="11" y1="5.844" y2=".688" gradientUnits="userSpaceOnUse"><stop offset="0" stop-color="#fd5900"/><stop offset="1" stop-color="#ffde00"/></linearGradient><linearGradient id="b" x1="11" x2="11" y1="13.58" y2="8.422" gradientUnits="userSpaceOnUse"><stop offset="0" stop-color="#fd3a84"/><stop offset="1" stop-color="#ffa68d"/></linearGradient><linearGradient id="d" x1="11" x2="11" y1="21.31" y2="16.16" gradientUnits="userSpaceOnUse"><stop offset="0" stop-color="#a93aff"/><stop offset="1" stop-color="#ff81ff"/></linearGradient></defs><path fill="url(#a)" d="M12.93 5.844H9.063a.644.644 0 0 1-.645-.644V1.333c0-.356.29-.645.645-.645h3.867c.356 0 .645.289.645.645V5.2a.644.644 0 0 1-.645.644" transform="translate(-.733 -.733)scale(1.067)"/><path fill="url(#b)" d="M12.93 13.58H9.063a.644.644 0 0 1-.645-.644V9.067c0-.355.29-.644.645-.644h3.867c.356 0 .645.289.645.645v3.866a.645.645 0 0 1-.645.645" transform="translate(-.733 -.733)scale(1.067)"/><path fill="url(#d)" d="M12.93 21.31H9.063a.644.644 0 0 1-.645-.644v-3.868c0-.356.29-.644.645-.644h3.867c.356 0 .645.288.645.644v3.867a.645.645 0 0 1-.645.645" transform="translate(-.733 -.733)scale(1.067)"/></svg>