<svg version="1.1" viewBox="0 0 22 22" xmlns="http://www.w3.org/2000/svg">
 <defs>
  <style>@import "../../highlights.css";</style>
 </defs>
 <g transform="translate(0) scale(1) translate(-.001) scale(.9999) translate(0) scale(1)" stroke-width="1.375">
  <path d="M14.38 12.358c-.625.283-.829.902-.468 1.393l2.604 3.73-.679.8a2.104 2.104 0 1 0 .695 1.194l.736-.988.588.805a2.102 2.102 0 0 0 2.021 2.688 2.104 2.104 0 1 0-1.277-3.774l-.58-.725 2.604-3.73c.36-.491.157-1.11-.467-1.393l-2.89 4.1zm.085 6.615a.902.902 0 1 1 0 1.805.902.902 0 0 1 0-1.805m5.413 0a.902.902 0 1 1 0 1.805.902.902 0 0 1 0-1.805" fill="#ff3b00"/>
  <path d="m2e-3 0v12.36h22v-12.36zm0 12.36v9.642h12.36v-9.642z" opacity="0"/>
 </g>
</svg>
