<svg version="1.1" viewBox="0 0 22 22" xmlns="http://www.w3.org/2000/svg">
 <defs>
  <style>@import "../../highlights.css";</style>
 </defs>
 <g transform="translate(0) scale(1) translate(0) scale(1) translate(0) scale(1)" stroke-width="1.375">
  <path d="M6.874 4.125a2.743 2.743 0 0 0-2.75 2.75v8.248a2.743 2.743 0 0 0 2.75 2.75h8.25a2.743 2.743 0 0 0 2.75-2.75V8.25l-4.125-4.124zm0 1.374h5.5v2.75c0 .762.613 1.375 1.375 1.375h2.75v5.5c0 .761-.614 1.374-1.376 1.374H6.874A1.37 1.37 0 0 1 5.5 15.123V6.874c0-.761.614-1.375 1.375-1.375m6.875.57 2.18 2.18h-2.18z" fill="#00a2ff"/>
  <path d="m8.25 0 2.749 2.75 2.75-2.75zm-8.25 8.25v5.499l2.75-2.75zm22 0-2.75 2.749 2.75 2.75zm-11 11-2.749 2.75h5.5z" fill="#f0f"/>
 </g>
</svg>
