<svg version="1.1" viewBox="0 0 22 22" xmlns="http://www.w3.org/2000/svg">
 <g transform="translate(0) scale(1) translate(0) scale(1) translate(-.001 9e-6) scale(1)" stroke-width="1.375">
  <path d="M6.888 0a2.743 2.743 0 0 0-2.75 2.75v4.124h1.375V2.749c0-.761.613-1.374 1.375-1.374h6.874v4.124c0 .762.613 1.375 1.374 1.375h4.124V19.25c0 .762-.613 1.375-1.374 1.375H6.888a1.37 1.37 0 0 1-1.375-1.375v-1.375H4.138v1.375a2.743 2.743 0 0 0 2.75 2.75h10.998a2.743 2.743 0 0 0 2.75-2.75V5.504l-5.5-5.499H6.888zm8.248 1.947 3.553 3.552h-3.553z" fill="#00a2ff"/>
  <path d="m6.228 7.493-3.888 3.89.424.425-.428-.425-.97.972 4.857 4.86.973-.972-3.183-3.184h8.373v-1.374H2.765v-.002h1.217l3.216-3.219-.97-.972z" fill="#ff0080"/>
 </g>
</svg>
