<svg version="1.1" viewBox="0 0 22 22" xmlns="http://www.w3.org/2000/svg">
 <g transform="translate(0) scale(1) translate(0) scale(1) translate(-5e-4 9e-6) scale(1)" stroke-width="1.375">
  <path d="M6.876 0a2.743 2.743 0 0 0-2.75 2.75v4.124h1.375V2.749c0-.761.613-1.374 1.375-1.374h6.874v4.124c0 .762.613 1.375 1.374 1.375h4.125V19.25c0 .762-.613 1.375-1.375 1.375H6.876a1.37 1.37 0 0 1-1.375-1.375v-1.375H4.127v1.375a2.743 2.743 0 0 0 2.75 2.75h10.997a2.743 2.743 0 0 0 2.75-2.75V5.504l-5.5-5.499H6.876zm8.248 1.945 3.555 3.554h-3.555z" fill="#00a2ff"/>
  <path d="M1.377 8.248v8.249h8.249V8.248zm1.375 1.375H8.25v5.499h-5.5z" fill="#d66bff"/>
 </g>
</svg>
