<svg version="1.1" viewBox="0 0 22 22" xmlns="http://www.w3.org/2000/svg">
 <defs>
  <style>@import "../../highlights.css";</style>
 </defs>
 <g transform="translate(0) scale(1) translate(0) scale(1) translate(.00051 9e-6) scale(1)" stroke-width="1.375">
  <path d="M4.14 0a2.743 2.743 0 0 0-2.75 2.75v16.498a2.743 2.743 0 0 0 2.75 2.75h11a2.743 2.743 0 0 0 2.75-2.75v-1.375h-1.376v1.375c0 .762-.613 1.375-1.375 1.375H4.141a1.37 1.37 0 0 1-1.375-1.375V2.75c0-.762.613-1.375 1.375-1.375h6.874v4.124c0 .762.613 1.375 1.375 1.375h5.5V5.5L12.39 0zm8.25 1.947 3.552 3.552H12.39z" fill="#0cf"/>
  <path d="m15.744 7.48-.972.972 3.233 3.234H9.64v1.374h9.624v.006h-1.326l-3.163 3.166.972.973 4.86-4.863-.972-.973-.37.371v-.003l.368-.37-3.888-3.888z" fill="#0f0"/>
 </g>
</svg>
