<svg version="1.1" viewBox="0 0 22 22" xmlns="http://www.w3.org/2000/svg">
 <g transform="translate(-0) scale(1) translate(-0) scale(1) translate(7e-6 7e-6) scale(1)" fill="#39ff14">
  <path d="M2.75 0A2.744 2.744 0 0 0 0 2.75v16.5A2.744 2.744 0 0 0 2.75 22h16.5A2.744 2.744 0 0 0 22 19.25V2.75A2.744 2.744 0 0 0 19.25 0zm0 1.375h16.5c.762 0 1.375.613 1.375 1.375v16.5c0 .762-.613 1.375-1.375 1.375H2.75a1.37 1.37 0 0 1-1.375-1.375V2.75c0-.762.613-1.375 1.375-1.375"/>
  <path d="M2.75 2.75h16.5v16.5H2.75z"/>
 </g>
</svg>
