<svg version="1.1" viewBox="0 0 22 22" xmlns="http://www.w3.org/2000/svg">
 <g transform="translate(0) scale(1) translate(0) scale(1) translate(0) scale(1)" fill="#ff00a8">
  <path d="M8.937 0A8.937 8.937 0 0 0 0 8.937a8.94 8.94 0 0 0 7.562 8.823v4.238h2.75V17.76a8.94 8.94 0 0 0 7.448-7.449h4.238v-2.75h-4.232A8.94 8.94 0 0 0 8.936 0m0 2.75a6.19 6.19 0 0 1 6.031 4.812H8.937c-.762 0-1.375.613-1.375 1.375v6.012A6.19 6.19 0 0 1 2.75 8.937 6.187 6.187 0 0 1 8.937 2.75m1.374 7.561h4.638a6.19 6.19 0 0 1-4.638 4.638z"/>
  <path d="M8.937 2.75A6.187 6.187 0 0 0 2.75 8.937a6.187 6.187 0 0 0 6.187 6.186 6.2 6.2 0 0 0 1.374-.169v7.044h11.687V10.31h-7.044a6.2 6.2 0 0 0 .17-1.374A6.187 6.187 0 0 0 8.936 2.75" opacity=".3"/>
 </g>
</svg>
