<svg version="1.1" viewBox="0 0 22 22" xmlns="http://www.w3.org/2000/svg">
 <g transform="translate(0) scale(1) translate(0) scale(1) translate(0) scale(1)" fill="#7a00ff">
  <path d="M8.937 0A8.937 8.937 0 0 0 0 8.937a8.937 8.937 0 0 0 8.25 8.888v4.173h1.374v-6.934a6 6 0 0 1-.687.06A6.187 6.187 0 0 1 2.75 8.936 6.187 6.187 0 0 1 8.937 2.75a6.187 6.187 0 0 1 6.186 6.187 6 6 0 0 1-.059.687h6.934V8.249h-4.154A8.937 8.937 0 0 0 8.937 0"/>
  <path d="M8.937 2.75A6.187 6.187 0 0 0 2.75 8.937a6.187 6.187 0 0 0 6.187 6.187 6 6 0 0 0 .687-.049v6.923h12.374V9.624h-6.923a6 6 0 0 0 .049-.688A6.187 6.187 0 0 0 8.937 2.75z" opacity=".3"/>
 </g>
</svg>
