<svg version="1.1" viewBox="0 0 22 22" xmlns="http://www.w3.org/2000/svg">
 <defs>
  <linearGradient id="a" y1="1">
   <stop stop-color="#9717f2" offset="0"/>
   <stop stop-color="#ff00b0" offset="1"/>
  </linearGradient>
 </defs>
 <path transform="translate(0) scale(1) translate(0) scale(1) translate(-.00054) scale(1) translate(0 .002)" d="M11.46 0C7.739 0 4.492 2.066 3.757 4.998V5c-.316 1.265-.12 2.542.56 3.518.421.603 1.067.991 1.784 1.254-.22.45-.48.885-.48 1.445l-.003 1.814a3.24 3.24 0 0 0 .744 2.068c-.654.7-1.07 1.697-1.07 2.826 0 1.256.515 2.352 1.303 3.051s1.785 1.023 2.77 1.023 1.99-.324 2.775-1.023c.786-.7 1.3-1.794 1.3-3.051 0-1.15-.431-2.167-1.108-2.867q.072-.09.137-.184c.507-.74.814-1.243 1.014-1.356 1.276-.717 2.464-1.467 3.387-2.514a6.1 6.1 0 0 0 1.522-4.08c0-1.672-.5-3.388-1.658-4.723S13.75-.002 11.466-.002zm0 2.443c1.7 0 2.726.556 3.424 1.361s1.06 1.941 1.06 3.121c0 1.105-.31 1.783-.91 2.465-.601.683-1.556 1.324-2.75 1.994-1.11.623-1.493 1.61-1.834 2.107l-.002.002a.8.8 0 0 1-.672.357h-.9a.8.8 0 0 1-.815-.816l.004-1.816v-.002c0-.407.377-.965 1.195-1.576s1.92-1.162 2.793-1.646a1.222 1.222 0 0 0-1.144-2.16q-.018.012-.039.023v-.002l-.045.028A51 51 0 0 0 8.26 7.317h-.002v.002c-.373.22-.657.319-.814.322-.573.011-.888-.187-1.121-.521s-.362-.858-.194-1.527c.345-1.37 2.58-3.148 5.332-3.148zm-2.096 13.85c.442 0 .87.153 1.152.404.283.251.48.582.48 1.227s-.197.974-.48 1.225-.71.405-1.152.405-.864-.153-1.146-.405c-.283-.252-.48-.579-.48-1.225 0-.645.197-.975.48-1.227.283-.25.706-.404 1.146-.404" fill="url(#a)"/>
</svg>
