<svg version="1.1" viewBox="0 0 22 22" xmlns="http://www.w3.org/2000/svg">
 <defs>
  <linearGradient id="a" x1="1" x2="0" y2="1">
   <stop stop-color="#cd87de" offset="0"/>
   <stop stop-color="#fd5" offset=".5"/>
   <stop stop-color="#00aad4" offset="1"/>
  </linearGradient>
 </defs>
 <path transform="translate(1e-6) scale(1) translate(-1e-6) scale(1) translate(1e-6) scale(1) translate(-.004733 -5e-5) scale(1) translate(.4783 .4783) scale(.9565)" d="m17.88-0.5c-0.8588 0-1.472 0.6413-1.691 1.434-3.386 0.1761-6.045 0.9102-8.143 2-0.337-0.3193-0.668-0.6836-1.166-0.6836h-2.75c-1.03 0-1.875 0.8449-1.875 1.875v2.75c0 0.4187 0.2662 0.7255 0.5 1.039-1.193 2.149-1.774 4.833-1.854 8.283-0.772 0.2322-1.396 0.8334-1.396 1.678v2.75c0 1.03 0.8449 1.875 1.875 1.875h2.75c1.03 0 1.875-0.8449 1.875-1.875v-2.75c0-1.03-0.8449-1.875-1.875-1.875h-0.8398c0.08678-3.234 0.6283-5.524 1.684-7.25h1.906c1.03 0 1.875-0.8449 1.875-1.875v-1.662c1.757-0.991 4.094-1.681 7.25-1.873v0.7852c0 1.03 0.8449 1.875 1.875 1.875h2.75c1.03 0 1.875-0.8449 1.875-1.875v-2.75c0-1.03-0.8449-1.875-1.875-1.875zm0.5 2.375h1.75v1.75h-1.75zm-13.75 2.75h1.75v1.75h-1.75zm-2.75 13.75h1.75v1.75h-1.75z" fill="url(#a)"/>
</svg>
