<svg version="1.1" viewBox="0 0 22 22" xmlns="http://www.w3.org/2000/svg">
 <path transform="translate(0) scale(1) translate(0) scale(1) translate(-.000725 -.001514) scale(1)" d="M.37 21.42q-.414-.58-.348-1.343.365-4.017 2.057-7.532A23 23 0 0 1 3.8 9.56q-.27-.48-.402-1.02a4.5 4.5 0 0 1-.125-1.073v-.013c0-1.191.42-2.212 1.262-3.05.84-.838 1.863-1.262 3.063-1.262q1.18 0 2.13.539a23 23 0 0 1 3.003-1.687 22 22 0 0 1 7.564-1.99q.697-.034 1.195.397.497.431.497 1.128 0 .631-.415 1.112c-.415.481-.624.492-1.045.514q-3.45.266-6.485 1.71-1.208.573-2.303 1.284.187.61.187 1.298v.02q0 .757-.223 1.406a4.2 4.2 0 0 1-1.037 1.642c-.841.832-1.861 1.244-3.064 1.244h-.007q-.712 0-1.341-.194-.75 1.125-1.354 2.374a18.4 18.4 0 0 0-1.759 6.468 1.84 1.84 0 0 1-.514 1.128Q2.177 22 1.514 22q-.73 0-1.145-.58zM6.356 8.703c.344.348.793.517 1.243.517.241 0 .481-.045.706-.143a1.9 1.9 0 0 0 .66-.505 1.755 1.755 0 0 0-.123-2.349 1.67 1.67 0 0 0-.96-.497 1.77 1.77 0 0 0-1.393.367 2 2 0 0 0-.136.13c-.022.02-.044.047-.065.066a1.757 1.757 0 0 0 .068 2.414m.528 12.005a2.4 2.4 0 0 1-.339-1.28c.16-1.7.613-3.36 1.326-4.858a14.8 14.8 0 0 1 2.829-3.99 14.6 14.6 0 0 1 4.026-2.799 14.8 14.8 0 0 1 4.896-1.286c.203 0 .462.027.647.088.186.06.414.203.568.324.151.143.325.363.407.55.081.181.135.45.135.66 0 .38-.19.83-.421 1.133a2 2 0 0 1-.505.395 1.9 1.9 0 0 1-.603.155 10.1 10.1 0 0 0-3.734.983 10.7 10.7 0 0 0-3.097 2.167 10.7 10.7 0 0 0-2.183 3.074 10.2 10.2 0 0 0-1.013 3.734c-.057.38-.256.814-.505 1.106a2 2 0 0 1-.537.368c-.179.072-.439.126-.638.126-.225 0-.518-.066-.711-.165a1.8 1.8 0 0 1-.55-.484z" fill="#00ff80"/>
</svg>
