<svg version="1.1" viewBox="0 0 22 22" xmlns="http://www.w3.org/2000/svg">
 <g transform="translate(0) scale(1) translate(.001) scale(.9999) translate(-5e-4) scale(1)" stroke-width="1.375">
  <path d="m20.62 9.623h1.375v12.38h-1.375zm-8.248 0 9.623 6.187-9.623 6.187z" fill="#0f0"/>
  <path d="M19.248 0a2.75 2.75 0 0 0-2.67 2.094c-2.709.143-5.101.742-7.12 1.776A4.8 4.8 0 0 1 8.25.687a3.44 3.44 0 0 0-1.374 2.747A3.44 3.44 0 0 0 7.364 5.2q-.604.473-1.144 1.014c-1.16 1.162-2.087 2.55-2.767 4.142A6.2 6.2 0 0 1 .408 7.003a4.8 4.8 0 0 0-.406 1.931 4.81 4.81 0 0 0 2.55 4.247 20.5 20.5 0 0 0-.454 3.394 2.75 2.75 0 0 0-2.096 2.671 2.75 2.75 0 0 0 2.75 2.75 2.75 2.75 0 0 0 2.749-2.75 2.75 2.75 0 0 0-2.027-2.653q.086-1.563.38-2.945a5 5 0 0 0 .96.098A4.81 4.81 0 0 0 9.49 10.04a6.2 6.2 0 0 1-3.302.956 6.2 6.2 0 0 1-1.445-.171c.613-1.411 1.434-2.627 2.446-3.64q.517-.52 1.104-.97a3.44 3.44 0 0 0 2.02.657 3.44 3.44 0 0 0 2.743-1.375 4.8 4.8 0 0 1-2.437-.668c1.7-.773 3.693-1.237 5.976-1.36a2.75 2.75 0 0 0 2.653 2.03A2.75 2.75 0 0 0 22 2.75 2.75 2.75 0 0 0 19.249 0z" fill="#0cf"/>
 </g>
</svg>
