<svg version="1.1" viewBox="0 0 22 22" xmlns="http://www.w3.org/2000/svg">
 <defs>
  <linearGradient id="a" y1="1">
   <stop stop-color="#ff00a8" offset="0"/>
   <stop stop-color="#9a06f4" offset="1"/>
  </linearGradient>
 </defs>
 <g transform="translate(0) scale(1) translate(0) scale(1) translate(0 -.002) scale(1) translate(.00025 .00215) scale(1) translate(-1.422 23.42) scale(.02585)" fill="url(#a)">
  <path d="M149-135c-26.03 0-48.21-9.16-66.53-27.48C64.16-180.79 55-202.97 55-229v-502q0-39.465 27.47-67.23C100.79-816.74 122.97-826 149-826h662q39.465 0 67.23 27.77C905.995-770.46 906-757.31 906-731v502c0 26.03-9.257 48.21-27.77 66.52Q850.465-135 811-135zm332-184c66.42 0 123.7-15.83 171.8-47.5 48.12-31.67 72.18-69.5 72.18-113.5s-24.06-81.83-72.18-113.5C604.67-625.17 547.4-641 481-641s-123.7 15.83-171.8 47.5c-48.12 31.67-72.18 69.5-72.18 113.5s24.06 81.83 72.18 113.5C357.33-334.83 414.6-319 481-319"/>
  <path d="m149-229v-502z"/>
 </g>
</svg>
