<svg version="1.1" viewBox="0 0 22 22" xmlns="http://www.w3.org/2000/svg">
 <path transform="translate(-0) scale(1) translate(1e-6) scale(1) translate(-.000446 -.000669) scale(1)" d="M6.85 20.7a2.4 2.4 0 0 1-.338-1.285c.16-1.699.612-3.356 1.325-4.851a14.8 14.8 0 0 1 2.829-3.991 14.6 14.6 0 0 1 4.027-2.799 14.8 14.8 0 0 1 4.895-1.284c.203-.004.462.025.646.086.187.062.415.2.57.326.15.141.324.36.406.546.081.184.135.455.135.664 0 .378-.19.83-.421 1.13-.133.144-.334.31-.504.394-.171.084-.41.141-.604.158a10.1 10.1 0 0 0-3.733.982 10.8 10.8 0 0 0-3.095 2.165c-.91.897-1.616 1.89-2.184 3.076a10.2 10.2 0 0 0-1.012 3.733c-.057.38-.256.815-.505 1.1a2 2 0 0 1-.536.37 1.8 1.8 0 0 1-.64.125c-.223 0-.517-.066-.71-.163a1.9 1.9 0 0 1-.55-.48zM3.934 17.09c-.132.502-.23.982-.302 1.449q-.1.689-.11 1.323c-.029.506-.191.958-.48 1.345q-.434.58-1.12.74c-.455.102-.876.042-1.255-.193q-.57-.35-.595-.994a10.7 10.7 0 0 1 .115-2.53c.14-.886.396-1.808.772-2.78q.21-.64.814-.86.603-.224 1.227.137c.396.23.68.56.846 1.004q.255.657.088 1.358zM16.968 3.895a2.1 2.1 0 0 1-1.328-.105 2.02 2.02 0 0 1-.973-.863 1.43 1.43 0 0 1-.133-1.19q.19-.633.826-.835Q16.68.45 17.967.205a11.6 11.6 0 0 1 2.58-.197c.46.02.835.223 1.117.598q.425.566.222 1.242-.159.686-.73 1.136c-.572.45-.83.461-1.339.494a7.4 7.4 0 0 0-1.447.1c-.482.08-.95.183-1.401.317zm-8.853 5.14q-.459.427-.886.979-.424.547-.806 1.183-.4.585-1.077.847a2 2 0 0 1-1.329.047 1.32 1.32 0 0 1-.884-.842c-.154-.422-.127-.81.084-1.174q.74-1.32 1.51-2.328a12 12 0 0 1 1.05-1.212q.32-.323.663-.62.079-.075.164-.132a14 14 0 0 1 1.029-.775A14.4 14.4 0 0 1 10.1 3.642c.376-.194.757-.176 1.143.043.387.222.632.541.74.967.11.439.071.866-.122 1.27-.193.402-.482.73-.862.996a6.5 6.5 0 0 0-1.243.753q-.578.442-1.09.933-.241.242-.516.392z" fill="#bf00ff"/>
</svg>
