<svg xmlns="http://www.w3.org/2000/svg" viewBox="0 0 22 22"><path fill="#ff00d2" d="M3.665-.001-.001 3.665 3.665 7.33 7.33 3.665zM7.33 3.665l3.666 3.666 3.665-3.666-3.665-3.666zm7.331 0 3.666 3.666 3.666-3.666-3.666-3.666zm3.666 3.666-3.666 3.666 3.666 3.665 3.666-3.665zm0 7.331-3.666 3.666 3.666 3.666 3.666-3.666zm-3.666 3.666-3.665-3.666-3.666 3.666 3.666 3.666zm-7.331 0-3.666-3.666-3.666 3.666 3.666 3.666zm-3.666-3.666 3.666-3.665L3.665 7.33l-3.666 3.666zm3.666-3.665 3.666 3.665 3.665-3.665-3.665-3.666z"/></svg>