<svg xmlns="http://www.w3.org/2000/svg" viewBox="0 0 22 22"><defs><linearGradient id="a" x1="1" x2="0" y2="1"><stop offset="0" stop-color="#ffa163"/><stop offset=".15" stop-color="#ffff83"/><stop offset=".507" stop-color="#0dd"/><stop offset=".788" stop-color="#ff7aff"/><stop offset="1" stop-color="#fea"/></linearGradient></defs><path fill="url(#a)" d="M4.5 1v1h1V1zm2 0v1h3V1zm4 0v1h1V1zM3 3v2h2V3zm3 0v2h4V3zm5 0v2h2V3zM1 4.5v1h1v-1zm13 0v1h1v-1zM3 6v4h2V6zm3 0v4h4V6zm5 0v4h2V6zM1 6.5v3h1v-3zm13 0v3h1v-3zm-13 4v1h1v-1zm13 0v1h1v-1zM3 11v2h2v-2zm3 0v2h4v-2zm5 0v2h2v-2zm-6.5 3v1h1v-1zm2 0v1h3v-1zm4 0v1h1v-1z" transform="translate(-1.571 -1.571)scale(1.57095)"/></svg>