<svg fill="none" version="1.1" viewBox="0 0 22 22" xmlns="http://www.w3.org/2000/svg" xmlns:xlink="http://www.w3.org/1999/xlink">
 <defs>
  <linearGradient id="c" x1="47.05" x2="16.33" y1="17.17" y2="46.58" gradientTransform="matrix(.8428 0 0 .8447 18.09 30.44)" gradientUnits="userSpaceOnUse" xlink:href="#a"/>
  <linearGradient id="a" x1="1" x2="0" y2="1">
   <stop stop-color="#de14ff" offset="0"/>
   <stop stop-color="#7f00ff" offset="1"/>
  </linearGradient>
  <linearGradient id="d" x1="39.15" x2="24.53" y1="25.75" y2="38.25" gradientTransform="matrix(.8464 0 0 .8416 18.09 30.44)" gradientUnits="userSpaceOnUse" xlink:href="#a"/>
  <linearGradient id="b" x1="97.88" x2="31.74" y1="46.44" y2="89.24" gradientTransform="scale(1.003 .9973)" gradientUnits="userSpaceOnUse" xlink:href="#a"/>
 </defs>
 <path transform="translate(.000913 .00044) scale(.9998) translate(-8.203 -8.55) scale(.3022)" d="m69.68 44.54c-1.004 0-1.968 0.3993-2.678 1.109-0.7101 0.7101-1.109 1.674-1.109 2.678s0.3993 1.968 1.109 2.678 1.673 1.109 2.678 1.109h26.49c1.004 0 1.968-0.3993 2.678-1.109 0.7101-0.7101 1.109-1.673 1.109-2.678 0-1.004-0.3993-1.968-1.109-2.678-0.7101-0.7101-1.674-1.109-2.678-1.109h-26.49zm0 18.92c-1.004 0-1.968 0.3993-2.678 1.109s-1.109 1.675-1.109 2.68c0 1.004 0.3993 1.968 1.109 2.678s1.673 1.109 2.678 1.109h26.49c1.004 0 1.968-0.3993 2.678-1.109 0.7101-0.7101 1.109-1.673 1.109-2.678 0-1.004-0.3993-1.97-1.109-2.68-0.7101-0.7101-1.674-1.109-2.678-1.109h-26.49zm-37.84 18.92c-1.004 0-1.968 0.3993-2.678 1.109-0.7101 0.7101-1.109 1.673-1.109 2.678 0 1.004 0.3993 1.968 1.109 2.678 0.7101 0.7101 1.674 1.109 2.678 1.109h64.32c1.004 0 1.968-0.3993 2.678-1.109 0.7101-0.7101 1.109-1.674 1.109-2.678s-0.3993-1.968-1.109-2.678c-0.7101-0.7101-1.674-1.109-2.678-1.109h-64.32z" clip-rule="evenodd" fill="url(#b)" fill-rule="evenodd" stop-color="#000000" stroke-linecap="round" stroke-linejoin="round"/>
 <path transform="translate(.000913 .00044) scale(.9998) translate(-8.203 -8.55) scale(.3022)" d="m47.77 39.45v5e-3c-0.08945 0-0.1803 0.0056-0.272 0.01648-1.907 0.03765-3.854-0.09645-5.823 0.02307l-0.3742 0.02143-0.01813 0.1219c-0.4583 0.1637-0.8373 0.4457-1.078 0.7961-0.3045 0.4452-0.474 0.9375-0.6132 1.34-0.2128 0.586-0.2478 1.173-0.3296 1.674-0.07857 0.4943-0.1997 0.8869-0.483 1.205-0.6122 0.4764-1.354 0.8582-2.093 1.302a103.1 103.1 0 0 1-3.023-1.088h-0.0066c-1.176-0.4224-2.522-0.01457-3.219 0.9975v0.0033c-0.9004 1.32-1.675 2.684-2.511 3.993l-0.0033 0.0033v0.0033c-0.4321 0.7006-1.036 1.662-0.6675 2.731 0.2979 0.9595 0.9823 1.605 1.66 2.16 0.645 0.5337 1.271 1.011 1.698 1.561 0.07202 0.6155 0.0082 1.3 0.0099 2.032-0.8515 0.8827-2.003 1.587-2.929 2.64l-0.01647 0.01647c-0.4387 0.5516-0.5285 1.213-0.4467 1.803 0.08185 0.5893 0.3181 1.134 0.5456 1.598l0.0099 0.01648c0.753 1.38 1.539 2.747 2.375 4.086 0.622 1.09 1.968 1.6 3.191 1.314h0.0033c1.174-0.2865 2.256-0.7344 3.331-1.116 0.7628 0.3961 1.506 0.8489 2.251 1.311 0.3257 1.343 0.5393 2.759 1.076 4.143l0.0033 0.0033c0.2815 0.6875 0.9207 0.9409 1.261 1.18l0.1269 0.08903 0.1532-0.0033c2.141-0.05893 4.317 0.05567 6.507-0.01484h0.0445l0.0445-0.0099c1.129-0.2586 1.863-1.05 2.265-1.942 0.3929-0.8726 0.506-1.847 0.511-2.694 0.08675-0.735-0.35-1.365-0.9198-1.698-0.5664-0.3306-1.324-0.4111-1.953-0.02802-0.6056 0.3405-0.8759 0.93-0.9924 1.463-0.08844 0.401-0.1157 0.7406-0.1615 1.065-1.216 0-2.43 0.0049-3.639-0.0033a44.19 44.19 0 0 0-0.6296-2.718l-0.0033-0.0066v-5e-3c-0.3519-1.19-1.371-1.947-2.359-2.449-0.7972-0.424-1.608-1.088-2.696-1.356l-0.01978-0.0033c-1.725-0.3405-3.143 0.537-4.444 0.9721-0.5992-1.087-1.238-2.142-1.823-3.197 0.8234-0.6711 1.757-1.313 2.494-2.224 0.9148-1.097 0.6728-2.471 0.7285-3.469 0.06548-1.113-0.07221-2.413-0.9806-3.364v-0.0033c-0.7137-0.7415-1.511-1.346-2.258-1.978 0.6532-1.015 1.269-2.039 1.902-3.041 1.134 0.3274 2.348 1.054 3.857 0.9595 1.015-0.0491 1.788-0.6108 2.459-0.9907l0.0066-0.0066c0.9612-0.5762 2.167-1.149 2.824-2.321v-0.0033c0.5565-0.989 0.7873-2.064 0.9392-3.107 1.203 0.0087 2.398 0.0098 3.6 0.0033 0.2324 0.9148 0.4238 1.854 0.6873 2.8l0.0033 0.02143 0.0066 0.01648c0.3552 0.9612 1.087 1.6 1.861 2.087 0.7734 0.4865 1.61 0.8582 2.278 1.283l0.01483 0.0099 0.01978 0.01319c1.036 0.5402 2.091 0.4284 3.038 0.1532 0.8283-0.2423 1.586-0.5684 2.302-0.7829 0.5893 1.064 1.205 2.092 1.793 3.13-1.048 0.9249-2.554 1.75-3.075 3.413l-0.01319 0.04285-5e-3 0.0445a19.65 19.65 0 0 0-0.06428 3.646l0.0066 0.03791c0.1637 1.026 0.7678 1.791 1.44 2.423 0.5795 0.5419 1.191 0.9975 1.727 1.46-0.645 1.04-1.273 2.078-1.935 3.082-0.6417-0.2701-1.319-0.6104-2.154-0.6906h-0.0033c-1.503-0.1473-2.599 1.669-1.673 2.845 0.3863 0.5222 0.9316 0.7908 1.442 0.9789 0.5135 0.1869 1.016 0.3116 1.401 0.4928 1.223 0.6105 2.916 0.4662 3.749-0.7614l0.0033-0.0033c1.01-1.516 1.937-3.073 2.871-4.613l0.01319-0.01813c0.4878-0.7366 0.6396-1.727 0.1698-2.561-0.401-0.8397-1.088-1.392-1.727-1.895-0.6138-0.4878-1.156-0.9435-1.49-1.49-0.0098-0.7268-0.04025-1.421 0.0989-2.019 0.8348-0.8869 2.096-1.558 2.967-2.754 0.424-0.5647 0.4573-1.237 0.3313-1.807-0.1261-0.5694-0.3887-1.081-0.59-1.506l-0.01319-0.02473a68.75 68.75 0 0 0-2.398-4.093c-0.6548-1.099-2.054-1.489-3.237-1.186-1.151 0.275-2.192 0.7211-3.237 1.078-0.7775-0.424-1.542-0.8241-2.191-1.314-0.3536-0.9232-0.3885-2.034-0.7994-3.166a3.224 3.224 0 0 0-1.068-1.586 2.619 2.619 0 0 0-1.643-0.6016z" fill="url(#c)" stroke-width=".8439"/>
 <path transform="translate(.000913 .00044) scale(.9998) translate(-8.203 -8.55) scale(.3022)" d="m45.51 49.36-0.02802 0.01319a8.103 8.103 0 0 0-8.515 7.887 8.103 8.103 0 0 0 8.169 8.278 8.03 8.03 0 0 0 8.096-8.096 8.103 8.103 0 0 0-7.721-8.083zm-0.3824 3.735h0.02473a4.235 4.235 0 0 1 4.344 4.341v0.03132a4.235 4.235 0 0 1-4.344 4.341h-0.02473a4.235 4.235 0 0 1-4.341-4.341v-0.03132a4.235 4.235 0 0 1 4.341-4.341z" fill="url(#d)" stroke-width=".8439"/>
</svg>
