<svg version="1.1" viewBox="0 0 22 22" xmlns="http://www.w3.org/2000/svg">
 <defs>
  <linearGradient id="a" y2="1">
   <stop stop-color="#cc00a8" offset="0"/>
   <stop stop-color="#00ffea" offset="1"/>
  </linearGradient>
 </defs>
 <g transform="translate(0) scale(1) translate(0) scale(1) translate(-9.3e-5 7e-6) scale(1) translate(-1.222 -1.221) scale(1.111)" fill="url(#a)" stroke-width="1.414">
  <path d="M3.929 1.1A2.823 2.823 0 0 0 1.1 3.929v14.14a2.823 2.823 0 0 0 2.829 2.829h14.14a2.823 2.823 0 0 0 2.829-2.829V3.929A2.823 2.823 0 0 0 18.069 1.1zm7.154 1.735 2.862 4.701 5.257 1.627-3.586 4.174.075 5.502-5.08-2.116-5.207 1.768.447-5.483-3.296-4.406 5.353-1.271z"/>
  <path d="M20.9 15.24a5.657 5.657 0 0 0-5.657-5.657 5.657 5.657 0 0 0-5.657 5.657 5.657 5.657 0 0 0 5.657 5.657A5.657 5.657 0 0 0 20.9 15.24" opacity=".3"/>
 </g>
</svg>
