<svg version="1.1" viewBox="0 0 22 22" xmlns="http://www.w3.org/2000/svg">
 <defs>
  <linearGradient id="a" x2="0" y2="1">
   <stop stop-color="#00f6d1" offset="0"/>
   <stop stop-color="#d100ff" offset="1"/>
  </linearGradient>
  <linearGradient id="b" x2="0" y2="1">
   <stop stop-color="#feaa00" offset="0"/>
   <stop stop-color="#fd0575" offset=".5"/>
   <stop stop-color="#7b31fe" offset="1"/>
  </linearGradient>
 </defs>
 <path transform="translate(0) scale(1) translate(0) scale(1) translate(0) scale(1) translate(0) scale(1) translate(0) scale(1) translate(0) scale(1) translate(0) scale(1) translate(0) scale(1) translate(3.3e-5) scale(1) translate(3e-6) scale(.9999) translate(0) scale(.3438) translate(-.00014) scale(1) translate(0) scale(2.909) matrix(.3438 0 0 .3438 .000557 0)" d="m30.51 0c-4.532 0-8.252 3.719-8.252 8.252v1.492a24.5 24.5 0 0 0-4.666 2.695l-1.291-0.746c-3.926-2.267-9.004-0.902-11.28 3.022l-1.484 2.564h-8e-3c-2.267 3.926-0.902 9.012 3.022 11.28l1.123 0.652c-0.11 0.925-0.263 1.843-0.267 2.775v0.022c4e-3 0.933 0.157 1.856 0.267 2.78l-1.115 0.653c-3.925 2.267-5.294 7.346-3.029 11.28l1.492 2.566c2.268 3.921 7.35 5.284 11.28 3.022l1.268-0.732a27.4 27.4 0 0 0 4.69 2.789v-4.971a20 20 0 0 1-3.205-2.238l-1.246-1.064-3.818 2.203c-1.77 1.022-3.918 0.444-4.94-1.326l-1.491-2.564h6e-3c-1.022-1.771-0.444-3.92 1.326-4.941l3.824-2.217-0.305-1.615a20 20 0 0 1-0.353-3.615v-0.022a20 20 0 0 1 0.353-3.615l0.305-1.615-3.824-2.21c-1.772-1.027-2.348-3.179-1.326-4.948l1.484-2.558c1.026-1.772 3.172-2.355 4.941-1.334v8e-3l3.832 2.203 1.248-1.059a19.9 19.9 0 0 1 6.287-3.637l1.545-0.55v-4.421c0-2.045 1.567-3.614 3.61-3.616h2.97c2.046 0 3.613 1.571 3.613 3.615v4.434l1.551 0.545a19.9 19.9 0 0 1 6.297 3.621l1.246 1.06 3.818-2.196c1.771-1.022 3.92-0.451 4.941 1.318l1.486 2.572c1.016 1.77 0.442 3.914-1.326 4.934l-3.834 2.217 0.313 1.617a20 20 0 0 1 0.347 3.621 20 20 0 0 1-0.347 3.631l-0.313 1.615 3.834 2.217c1.772 1.026 2.348 3.172 1.326 4.941l-1.486 2.566c-1.026 1.772-3.172 2.348-4.94 1.326l-3.833-2.21-1.248 1.061a20 20 0 0 1-3.193 2.234v4.975a27.4 27.4 0 0 0 4.686-2.789l1.275 0.74c3.926 2.267 9.006 0.902 11.28-3.022l1.482-2.566c2.267-3.926 0.902-9.004-3.022-11.28l-1.123-0.652c0.11-0.925 0.265-1.848 0.27-2.781v-0.021c-5e-3 -0.932-0.16-1.851-0.27-2.775l1.123-0.653c3.925-2.267 5.286-7.353 3.022-11.28l-1.482-2.564c-2.267-3.925-7.348-5.286-11.28-3.022l-1.283 0.739a24.5 24.5 0 0 0-4.674-2.688v-1.492c-1e-3 -4.532-3.72-8.252-8.253-8.252z" fill="url(#a)"/>
 <path transform="translate(0) scale(1) translate(0) scale(1) translate(0) scale(1) translate(0) scale(1) translate(0) scale(1) translate(0) scale(1) translate(0) scale(1) translate(0) scale(1) translate(3.3e-5) scale(1) translate(3e-6) scale(.9999) translate(0) scale(.3438) translate(-.00014) scale(1) translate(0) scale(2.909) translate(.000557) scale(.3438)" d="M36.58 16.86v10.77l-4.592 3.44-4.59-3.44V16.87l-3.131 1.812c-4.72 2.73-7.713 7.786-7.721 13.33 0 5.305 2.7 10 6.795 12.78q-.564-.383-1.09-.812v11.75c0 4.532 3.719 8.26 8.252 8.26h2.973c4.532 0 8.252-3.728 8.252-8.26V43.97c3.476-2.836 5.699-7.15 5.699-11.97-.003-5.547-3.001-10.6-7.721-13.34zm4.174 8.539c1.457 1.911 2.502 4.1 2.504 6.607 0 6.247-5.022 11.27-11.27 11.27s-11.27-5.02-11.27-11.27c.003-2.504 1.049-4.692 2.504-6.602v4.303l8.766 6.574 8.766-6.574zm-14.35 20.99a15.3 15.3 0 0 0 10.684.193v9.15c0 2.046-1.569 3.62-3.613 3.62h-2.971c-2.046 0-3.615-1.576-3.615-3.62v-9.148c-.165-.058-.323-.13-.484-.195z" fill="url(#b)"/>
</svg>
