<svg version="1.1" viewBox="0 0 22 22" xmlns="http://www.w3.org/2000/svg">
 <defs>
  <linearGradient id="a" x1="1" x2="0" y2="1">
   <stop stop-color="#00efff" offset="0"/>
   <stop stop-color="#07f" offset="1"/>
  </linearGradient>
 </defs>
 <path transform="translate(0) scale(1) translate(5e-4 -.00011) scale(1) translate(5e-4 .00011) scale(1)" d="m14.52 1.834-2e-3 0.00195h-9.48a5.046 5.046 0 0 0-5.039 5.041v8.25a5.046 5.046 0 0 0 5.039 5.039h11.92a5.046 5.046 0 0 0 5.039-5.039l0.001953-5.814a5 5 0 0 0-1.477-3.566l-2.436-2.434a5.02 5.02 0 0 0-3.566-1.478zm-9.484 2.752h8.709v3.666a1.83 1.83 0 0 0 1.834 1.834h3.664v5.041a2.29 2.29 0 0 1-2.289 2.291h-11.92a2.29 2.29 0 0 1-2.291-2.291v-8.25a2.29 2.29 0 0 1 2.291-2.289z" fill="url(#a)"/>
</svg>
