<svg version="1.1" viewBox="0 0 22 22" xmlns="http://www.w3.org/2000/svg">
 <defs>
  <linearGradient id="a" x2="0" y2="1">
   <stop stop-color="#de87cd" offset="0"/>
   <stop stop-color="#fd5" offset="1"/>
  </linearGradient>
 </defs>
 <path transform="translate(0) scale(1) translate(0) scale(1) translate(0) scale(1) translate(0) scale(1) translate(0) scale(1) translate(0) scale(1) translate(0) scale(1) translate(0) scale(1) translate(0) scale(1) translate(0) scale(1) translate(0) scale(1) translate(0) scale(1) translate(.00173 .00153) scale(1) translate(.006189 .002051) scale(1)" d="m11.54-0.001953v0.001953c-0.1814 0.002734-0.4368 0.0753-0.8008 0.1856-4.239 1.289-6.357 3.918-6.357 7.896v0.7363l-0.4297 0.4375c-1.333 1.358-0.2424 3.54 3.314 6.641 0.5154 0.4487 0.5077 0.333 0.05664 0.9453-1.234 1.677-1.895 2.03-3.941 2.092-1.073 0.03333-1.25 0.04956-1.492 0.1426-1.271 0.4859-1.152 2.534 0.166 2.861l-0.00195-0.0039c0.5851 0.1457 2.489 0.02234 3.203-0.207 1.158-0.3712 1.884-0.8841 3.33-2.352 1.294-1.312 1.152-1.243 2.516-1.217 1.053 0.02035 1.189-0.0057 1.975 0.7676 0.1064-0.2773 0.267-0.5304 0.4199-0.7832-0.1743-0.3366-0.3791-0.667-0.3789-1.051v-0.916c0-0.2208 0.08181-0.2919 0.1367-0.4531-0.2283-0.1504-0.4847-0.2277-0.6582-0.4766-0.1031-0.1476-0.1894-0.3045-0.2598-0.4668-0.1875 0.1441-0.3495 0.253-0.4766 0.3144-0.7006 0.3379-1.302 0.3017-1.93-0.1191-0.796-0.5324-3.551-3.336-3.926-3.992-0.3317-0.5813-0.2604-0.7027 0.623-1.047l0.5703-0.2207 0.02734-1.424c0.05735-3.019 0.9964-4.184 3.861-4.789 0.1536-0.03245 0.2573-0.05679 0.3262-0.0625h2e-3c0.1514-0.01257 0.1367 0.06239 0.1367 0.3262 0 0.5092 0.0317 0.5555 0.4238 0.6602 2.63 0.6967 3.23 1.444 3.23 4.031 0.0014 1.261-0.01169 1.257 0.3359 1.459 0.4089-0.09215 0.8361-0.1406 1.27-0.1406h2e-3c0.6444 0 1.245 0.1205 1.775 0.3398-0.08661-0.3201-0.268-0.6141-0.5392-0.8945l-0.4531-0.4668v-0.5176c0-3.415-1.432-5.151-4.879-5.916l-0.6152-0.1367-0.05664-0.8789c-0.06394-0.9852-0.1069-1.313-0.5059-1.307zm6.867 18.91c0.08988 0.1978 0.1523 0.4076 0.1523 0.6445 0 0.8388-0.3443 1.595-0.9082 2.098-0.08752 0.07794-0.1794 0.1485-0.2734 0.2129 0.3212 0.04915 0.6722 0.07638 1.066 0.08984 1.982 0.0682 2.541-0.2586 2.541-1.492 7.75e-4 -1.172-0.4459-1.478-2.242-1.537-0.1155-0.0038-0.2273-0.0088-0.3359-0.01563z" fill="url(#a)"/>
 <path transform="translate(0) scale(1) translate(0) scale(1) translate(0) scale(1) translate(0) scale(1) translate(0) scale(1) translate(0) scale(1) translate(0) scale(1) translate(0) scale(1) translate(0) scale(1) translate(0) scale(1) translate(0) scale(1) translate(0) scale(1) translate(.00173 .00153) scale(1) translate(.006189 .002051)" d="m16.81 10.52c-1.874 0-3.514 1.04-3.883 2.518v2e-3c-0.1593 0.6372-0.05964 1.281 0.2832 1.772 0.2118 0.3038 0.5371 0.5007 0.8984 0.6328-0.1108 0.2266-0.2422 0.4446-0.2422 0.7266v0.916a1.63 1.63 0 0 0 0.375 1.041c-0.3296 0.3523-0.5391 0.8547-0.5391 1.424 0 0.6327 0.2593 1.185 0.6562 1.537 0.3961 0.3526 0.9004 0.5156 1.396 0.5156 0.4961 0 1.001-0.1632 1.396-0.5156 0.3958-0.3525 0.6562-0.904 0.6562-1.537 0-0.5797-0.2174-1.093-0.5586-1.445 0.02382-0.0301 0.04674-0.06033 0.06836-0.0918 0.2553-0.3733 0.4093-0.625 0.5098-0.6816 0.6429-0.3613 1.242-0.7403 1.707-1.268 0.4649-0.5272 0.7676-1.228 0.7676-2.057 0-0.8425-0.2526-1.706-0.8359-2.379-0.5834-0.6724-1.505-1.109-2.654-1.109zm0 1.23c0.8556 2.33e-4 1.371 0.282 1.723 0.6875 0.3518 0.4051 0.5352 0.9778 0.5352 1.572 0 0.5567-0.1566 0.8986-0.459 1.242-0.3029 0.344-0.7829 0.666-1.385 1.004-0.5588 0.3137-0.7522 0.8117-0.9238 1.062h-2e-3a0.4024 0.4024 0 0 1-0.3379 0.1816h-0.4531a0.4024 0.4024 0 0 1-0.4102-0.4121l2e-3 -0.916c0-0.2052 0.189-0.487 0.6016-0.7949s0.9677-0.5842 1.408-0.8281a0.6169 0.6169 0 0 0-0.5781-1.09c-0.0066 0.0033-0.01255 0.0084-0.01953 0.01172-0.0057 0.0033-0.01531 0.01038-0.02148 0.01367a25.86 25.86 0 0 0-1.295 0.7227c-0.1881 0.1108-0.331 0.1605-0.4102 0.1621-0.2886 0.0057-0.449-0.09326-0.5664-0.2617-0.1174-0.1683-0.1803-0.4321-0.0957-0.7695 0.1737-0.6899 1.3-1.586 2.688-1.586zm-1.057 6.98c0.2226 0 0.4375 0.07661 0.5801 0.2031s0.2422 0.2946 0.2422 0.6191c0 0.3246-0.09989 0.4908-0.2422 0.6172-0.1425 0.1269-0.3575 0.2031-0.5801 0.2031s-0.4356-0.0762-0.5781-0.2031-0.2422-0.2923-0.2422-0.6172 0.09988-0.4927 0.2422-0.6191c0.1423-0.1264 0.3561-0.2031 0.5781-0.2031z" fill="#bf00ff"/>
</svg>
