<svg xmlns="http://www.w3.org/2000/svg" viewBox="0 0 22 22"><g stroke-width="1.128"><path fill="#00ff80" d="M17.007 20.096q0 .534-.366.903-.364.37-.902.37-.535 0-.907-.37a1.23 1.23 0 0 1-.37-.903v-4.98q0-.535.369-.905.368-.368.905-.369h4.98q.533 0 .902.366.37.366.37.903t-.37.906q-.37.37-.902.371h-1.923l2.113 2.111q.379.378.378.893 0 .513-.368.894-.39.378-.918.392a1.19 1.19 0 0 1-.907-.366l-2.084-2.11z"/><path fill="#d500ff" d="M10.575.627c-.84 0-1.655.22-2.37.623a4.94 4.94 0 0 0-1.732 1.707 1.23 1.23 0 0 0-.087 1.068c.16.334.444.609.8.748.308.143.677.173 1.027.072.335-.12.632-.34.829-.632.196-.262.405-.448.674-.605.256-.158.512-.22.849-.22.475 0 .84.13 1.195.463.371.313.515.615.51 1.041-.129.588-.202.872-.25.914-.34.477-.734.892-1.204 1.252-.502.397-.934.89-1.25 1.443-.14.23-.25.487-.312.729a6 6 0 0 0-.128.72c-.02.375.106.781.367 1.057a1.5 1.5 0 0 0 1.072.442c.373 0 .745-.17 1.002-.43a2.1 2.1 0 0 0 .473-.937c.077-.308.121-.462.156-.505q.42-.77 1.072-1.325c.472-.401.91-.88 1.298-1.405.203-.29.363-.627.453-.948.084-.315.132-.672.132-1.024 0-1.189-.49-2.244-1.375-3.046a4.8 4.8 0 0 0-3.2-1.202zm-.008 11.853c-.491 0-.97.21-1.33.556-.343.357-.556.823-.556 1.286 0 .506.212.99.558 1.343.36.336.84.542 1.332.542s.968-.213 1.313-.56c.325-.359.525-.83.525-1.306 0-.473-.199-.946-.525-1.302a1.88 1.88 0 0 0-1.317-.56z"/><path fill="#06f" d="M1.89 0a.63.63 0 0 0-.628.627v17.608H.637a.63.63 0 0 0-.627.627v1.252c0 .346.282.627.627.627h.625v.627c0 .346.282.625.627.625h1.252c.346 0 .627-.28.627-.625v-.627h7.902a.63.63 0 0 0 .627-.627v-1.252a.63.63 0 0 0-.627-.627H3.768V.627A.63.63 0 0 0 3.141 0zm17.296 0a.63.63 0 0 0-.627.627v10.857c0 .346.281.627.627.627h1.252a.63.63 0 0 0 .627-.627V.627A.63.63 0 0 0 20.438 0z"/></g></svg>