<svg xmlns="http://www.w3.org/2000/svg" xmlns:xlink="http://www.w3.org/1999/xlink" viewBox="0 0 22 22"><defs><linearGradient id="a" x1="14.63" x2=".472" y1="1.395" y2="15.55" gradientTransform="matrix(.7375 0 0 .6572 5.431 6.414)" gradientUnits="userSpaceOnUse"><stop offset="0" stop-color="#ff00d2"/><stop offset="1" stop-color="#b800ff"/></linearGradient><linearGradient xlink:href="#a" id="c" x1="14.63" x2=".472" y1="1.81" y2="15.55" gradientTransform="matrix(.7375 0 0 .6572 5.431 6.414)" gradientUnits="userSpaceOnUse"/><linearGradient xlink:href="#a" id="b" x1="20.36" x2="-5.09" y1="-2.037" y2="19.49" gradientTransform="matrix(.7375 0 0 .6572 5.431 6.414)" gradientUnits="userSpaceOnUse"/></defs><path fill="url(#b)" stroke-width=".696" d="M4.4 1.833a4.4 4.4 0 0 0-4.4 4.4v9.533a4.4 4.4 0 0 0 4.4 4.4h13.2a4.4 4.4 0 0 0 4.4-4.4V8.433a4.4 4.4 0 0 0-4.4-4.4h-7.333l-.91-.91a4.4 4.4 0 0 0-3.112-1.29zm0 2.2h1.845c.583 0 1.143.232 1.555.645l1.555 1.555h8.244a2.2 2.2 0 0 1 2.2 2.2v7.333a2.2 2.2 0 0 1-2.2 2.2h-13.2a2.2 2.2 0 0 1-2.2-2.2V6.233a2.2 2.2 0 0 1 2.2-2.2z" style="-inkscape-stroke:none;font-variation-settings:normal" transform="scale(.9999)"/><path fill="url(#c)" d="M8.937 7.332c-.19-.006-.378.03-.546.127-.27.154-.432.431-.507.726-.075.294-.08.625-.033 1.007a.451.451 0 0 0 .896-.11c-.037-.307-.023-.539.011-.675.035-.136.072-.158.082-.165.011-.006.05-.026.187.013.136.039.343.143.591.33a.451.451 0 0 0 .658-.6.5.5 0 0 0-.114-.12c-.308-.232-.596-.395-.888-.479a1.4 1.4 0 0 0-.337-.054zm4.107.001a1.3 1.3 0 0 0-.228.03c-.594.134-1.171.579-1.82 1.275a.5.5 0 0 0-.078.11.451.451 0 0 0 .738.506c.585-.628 1.112-.954 1.357-1.01.123-.027.14-.008.151.001.012.01.063.06.093.24.058.359-.043 1.07-.325 1.882a13.2 13.2 0 0 1-1.286 2.624.451.451 0 1 0 .764.48 14 14 0 0 0 1.375-2.808c.308-.889.47-1.673.363-2.323-.053-.325-.186-.626-.442-.818a1.02 1.02 0 0 0-.662-.19zm-2.135 2.673c-.827.005-1.625.077-2.334.205-.946.17-1.731.422-2.262.834-.265.205-.468.462-.522.78-.054.32.075.639.277.869.406.46 1.08.742 2.015.96a.452.452 0 1 0 .205-.879c-.841-.196-1.383-.497-1.54-.677-.08-.09-.07-.105-.067-.123.003-.017.032-.098.186-.217.308-.238 1.002-.503 1.87-.66a13.5 13.5 0 0 1 2.965-.172.452.452 0 1 0 .044-.902q-.421-.021-.835-.018zm3.907.608a.451.451 0 0 0-.177.868c.286.122.48.252.58.35s.1.138.1.151-.002.059-.107.159-.303.23-.593.35a.451.451 0 1 0 .348.833c.358-.15.646-.32.867-.53s.384-.49.387-.8c.004-.312-.153-.596-.371-.81s-.503-.381-.858-.532a.5.5 0 0 0-.176-.04zm-5.497 1.02a.452.452 0 0 0-.4.658 14.4 14.4 0 0 0 1.746 2.664c.623.739 1.236 1.296 1.86 1.553.312.129.637.178.94.065.304-.112.519-.384.617-.676.196-.583.1-1.312-.18-2.234a.5.5 0 0 0-.057-.122.451.451 0 0 0-.806.385c.253.83.264 1.455.187 1.683-.038.114-.056.11-.073.117-.018.006-.103.023-.284-.052-.363-.15-.942-.624-1.512-1.301a13.5 13.5 0 0 1-1.635-2.494.45.45 0 0 0-.403-.246zm-1.006 2.7a.45.45 0 0 0-.408.242.5.5 0 0 0-.048.16c-.051.39-.05.73.023 1.03s.238.584.512.741.6.157.898.069c.297-.089.591-.258.905-.499a.452.452 0 0 0-.55-.716c-.255.196-.47.307-.611.349s-.182.021-.193.015-.05-.03-.084-.172c-.035-.142-.047-.383-.006-.7a.45.45 0 0 0-.438-.518z" style="isolation:isolate"/></svg>