<svg fill="none" version="1.1" viewBox="0 0 22 22" xmlns="http://www.w3.org/2000/svg">
 <defs>
  <linearGradient id="a" x1="11.34" x2="11.34" y1="20.62" y2="1.375" gradientUnits="userSpaceOnUse">
   <stop stop-color="#FFA800" offset="0"/>
   <stop stop-color="#FFF737" offset="1"/>
  </linearGradient>
 </defs>
 <path transform="translate(-1.775 -1.253) scale(1.114)" d="m12.83 1.375c-0.3797 0-0.6875 0.3078-0.6875 0.6875v6.646c0 0.3797-0.3078 0.6875-0.6875 0.6875h-3.437c-0.3797 0-0.6875 0.3078-0.6875 0.6875v0.2292c0 0.3797 0.3078 0.6875 0.6875 0.6875h9.854c0.3796 0 0.6875-0.3078 0.6875-0.6875v-0.2292c0-0.3797-0.3079-0.6875-0.6875-0.6875h-3.438c-0.3796 0-0.6875-0.3078-0.6875-0.6875v-6.646c0-0.3797-0.3078-0.6875-0.6875-0.6875h-0.2292zm-4.812 11.23c-0.3797 0-0.6862 0.3085-0.6991 0.6879-0.1396 4.108-1.517 7.333-3.197 7.333h11.23c1.679 0 3.057-3.225 3.197-7.333 0.0129-0.3794-0.2962-0.6879-0.6758-0.6879h-9.854z" fill="url(#a)" stroke="url(#a)" stroke-width=".5"/>
</svg>
