<svg version="1.1" viewBox="0 0 22 22" xmlns="http://www.w3.org/2000/svg">
 <defs>
  <linearGradient id="a" x1="1" x2="0" y2="1">
   <stop stop-color="#fee800" offset="0"/>
   <stop stop-color="#ff1162" offset=".507"/>
   <stop stop-color="#ff00ab" offset="1"/>
  </linearGradient>
 </defs>
 <path transform="translate(-2e-5 -.000138) scale(.3438) translate(-.000926) scale(1)" d="m8.686 11.99v2e-3c-1.327 0-2.408-0.0211-3.508 0.127-1.141 0.1534-2.451 0.5747-3.463 1.586-1.008 1.011-1.433 2.323-1.586 3.463-0.1479 1.101-0.127 2.182-0.127 3.508v5.662c0 5.336-0.02243 9.401 0.4375 12.82 0.4616 3.434 1.518 6.4 3.758 8.641 2.241 2.241 5.213 3.298 8.646 3.76 3.422 0.4601 7.49 0.4414 12.82 0.4414h8.492c1.327 0 2.405 0.01538 3.506-0.1328 1.141-0.1534 2.454-0.5688 3.465-1.58 1.011-1.012 1.434-2.327 1.588-3.467 0.148-1.101 0.125-2.177 0.125-3.504v-5.66c0-5.336 0.02434-9.403-0.4356-12.82-0.4618-3.434-1.524-6.408-3.764-8.648-2.241-2.241-5.208-3.298-8.641-3.76-3.422-0.4601-7.492-0.4356-12.83-0.4356zm49.08 1.4-0.0039 0.1445c-0.2572 0.03507-0.5276 0.0242-0.7715 0.0957-0.9963 0.2919-1.819 0.7915-2.592 1.352-1.552 1.125-3.11 2.66-5.16 4.635v2e-3l-1.98 1.912c-1.247 1.204-2.258 2.086-2.894 3.578-0.6378 1.494-0.5762 2.843-0.5762 4.56v4.654c0 1.72-0.06132 3.067 0.5762 4.56 0.6371 1.493 1.649 2.376 2.896 3.578l1.978 1.912c2.049 1.976 3.608 3.511 5.16 4.635 0.7727 0.5595 1.594 1.06 2.592 1.352 1.05 0.3076 2.277 0.3143 3.396-0.1484 1.121-0.4631 1.989-1.334 2.512-2.307 0.4944-0.9206 0.7099-1.863 0.8457-2.803 0.2727-1.889 0.2461-4.056 0.2461-6.879v-12.46c0-2.822 0.0267-4.989-0.2461-6.879-0.1356-0.9395-0.3509-1.88-0.8457-2.801-0.5225-0.9726-1.39-1.848-2.512-2.31-0.5629-0.2324-1.153-0.338-1.727-0.3555zm-49.08 4.648h8.492c5.336 0 9.282 0.02486 12.02 0.3926 2.75 0.3698 4.074 0.9419 5.172 2.039 1.096 1.096 1.666 2.418 2.037 5.168 0.368 2.735 0.3926 6.686 0.3926 12.02v5.66c0 1.261-0.02251 2.13-0.07031 2.564-0.4353 0.04757-1.306 0.07227-2.566 0.07227h-8.49c-5.336 0-9.284-0.02276-12.02-0.3906-2.747-0.3694-4.072-0.9399-5.17-2.035l-0.00391-0.0059c-1.093-1.095-1.665-2.42-2.035-5.168-0.3677-2.735-0.3926-6.686-0.3926-12.02v-5.662c0-1.261 0.02435-2.128 0.07227-2.562 0.4349-0.04792 1.303-0.07223 2.562-0.07227zm-2.793 0.03516v2e-3h-0.00195v2e-3h-0.00195l-0.1484 0.1484h-0.09375l0.2227-0.1465v2e-3h0.00195l0.00195-2e-3c0.00602-0.0017 0.01562-5e-3 0.01953-0.0059zm51.88 1.978c0.1372 1.128 0.1758 3.036 0.1758 5.719v12.45c0 2.683-0.03862 4.589-0.1758 5.717-0.9229-0.6949-2.356-2.027-4.32-3.922v-2e-3l-1.984-1.91c-0.6169-0.595-1.017-1.005-1.258-1.273-0.1302-0.1449-0.2108-0.2569-0.252-0.3144 0.0014-0.1142-0.1094-0.8152-0.1094-2.195v-4.652c0-1.377 0.1103-2.078 0.1094-2.195 0.04178-0.05841 0.1235-0.1733 0.2539-0.3184 0.2415-0.2687 0.6415-0.6771 1.256-1.27l1.984-1.914c1.964-1.894 3.397-3.226 4.32-3.922zm-20.67 25.72h0.0957l-0.2227 0.1465v-2e-3h-2e-3v2e-3c-0.0043 7.32e-4 -0.01542 0.0025-0.02148 0.0039v-2e-3h2e-3z" fill="url(#a)"/>
</svg>
