<svg version="1.1" viewBox="0 0 22 22" xmlns="http://www.w3.org/2000/svg">
 <defs>
  <linearGradient id="a" y1="1">
   <stop stop-color="#f000d8" offset="0"/>
   <stop stop-color="#bd02ff" offset="1"/>
  </linearGradient>
 </defs>
 <path transform="translate(0) scale(1) translate(7.9e-5 -.00217) scale(1) translate(-2.711 24.71) scale(.02853)" d="m141.9-866c-12.76 0-23.77 4.69-33.01 14.02-9.24 9.333-13.87 20.48-13.87 33.44s4.516 24.1 13.52 33.48c9 9.373 19.97 14.06 32.93 14.06s24.1-4.563 33.48-13.75c9.373-9.18 14.06-20.2 14.06-33.05 1e-5 -13.13-4.651-24.45-13.98-33.94-9.333-9.493-20.36-14.26-33.12-14.26zm169.7 0c-12.96 0-24.14 4.69-33.52 14.02-9.373 9.333-14.06 20.48-14.06 33.44s4.609 24.1 13.79 33.48c9.187 9.373 20.2 14.06 33.05 14.06 13.13 0 24.45-4.563 33.94-13.75 9.493-9.18 14.22-20.2 14.22-33.05 1e-5 -13.13-4.651-24.45-13.98-33.94-9.333-9.493-20.48-14.26-33.44-14.26zm168.6 0c-13.22 0-24.4 4.69-33.52 14.02-9.12 9.333-13.67 20.48-13.67 33.44s4.477 24.1 13.48 33.48c9 9.373 20.11 14.06 33.32 14.06 13.22 0 24.4-4.563 33.52-13.75 9.12-9.18 13.67-20.2 13.67-33.05 0-13.13-4.477-24.45-13.48-33.94-9-9.493-20.11-14.26-33.32-14.26zm170 0c-13.13 0-24.45 4.69-33.94 14.02-9.493 9.333-14.26 20.48-14.26 33.44s4.69 24.1 14.02 33.48c9.333 9.373 20.48 14.06 33.44 14.06s24.1-4.563 33.48-13.75c9.373-9.18 14.06-20.2 14.06-33.05 0-13.13-4.602-24.45-13.79-33.94-9.18-9.493-20.16-14.26-33.01-14.26zm168.4 0c-12.96 0-24.1 4.69-33.48 14.02-9.373 9.333-14.06 20.48-14.06 33.44 1e-5 12.96 4.563 24.1 13.75 33.48 9.18 9.373 20.2 14.06 33.05 14.06 13.13 0 24.45-4.563 33.94-13.75 9.493-9.18 14.26-20.2 14.26-33.05 1e-5 -13.13-4.69-24.45-14.02-33.94-9.333-9.493-20.48-14.26-33.44-14.26zm-676.7 169c-12.76 0-23.77 4.602-33.01 13.79-9.24 9.18-13.87 20.16-13.87 33.01 0 13.13 4.516 24.45 13.52 33.94 9 9.493 19.97 14.26 32.93 14.26s24.1-4.69 33.48-14.02c9.373-9.333 14.06-20.48 14.06-33.44 1e-5 -12.96-4.651-24.1-13.98-33.48-9.333-9.373-20.36-14.06-33.12-14.06zm217.1 0c-26.81 0-49.31 9.123-67.58 27.38-18.26 18.27-27.42 40.81-27.42 67.62v243c1e-5 26.81 9.162 49.31 27.42 67.58 18.27 18.26 40.77 27.42 67.58 27.42h243c26.81-1e-5 49.35-9.162 67.62-27.42 18.26-18.27 27.38-40.77 27.38-67.58v-243c0-26.81-9.123-49.35-27.38-67.62-18.27-18.26-40.81-27.38-67.62-27.38zm459.6 0c-12.96 0-24.1 4.602-33.48 13.79-9.373 9.18-14.06 20.16-14.06 33.01 1e-5 13.13 4.563 24.45 13.75 33.94 9.18 9.493 20.2 14.26 33.05 14.26 13.13 0 24.45-4.69 33.94-14.02 9.493-9.333 14.26-20.48 14.26-33.44 1e-5 -12.96-4.69-24.1-14.02-33.48-9.333-9.373-20.48-14.06-33.44-14.06zm-459.6 95h243v243h-243zm-217.1 75c-12.76 0-23.77 4.477-33.01 13.48-9.24 9-13.87 20.11-13.87 33.32 0 13.22 4.516 24.4 13.52 33.52 9 9.12 19.97 13.67 32.93 13.67s24.1-4.477 33.48-13.48c9.373-9 14.06-20.11 14.06-33.32 1e-5 -13.22-4.651-24.4-13.98-33.52-9.333-9.12-20.36-13.67-33.12-13.67zm676.7 0c-12.96 0-24.1 4.477-33.48 13.48-9.373 9-14.06 20.11-14.06 33.32 1e-5 13.22 4.563 24.4 13.75 33.52 9.18 9.12 20.2 13.67 33.05 13.67 13.13 0 24.45-4.477 33.94-13.48 9.493-9 14.26-20.11 14.26-33.32 1e-5 -13.22-4.69-24.4-14.02-33.52-9.333-9.12-20.48-13.67-33.44-13.67zm-676.7 168c-12.76-1e-5 -23.77 4.651-33.01 13.98-9.24 9.333-13.87 20.48-13.87 33.44s4.516 24.14 13.52 33.52c9 9.373 19.97 14.06 32.93 14.06s24.1-4.609 33.48-13.79c9.373-9.187 14.06-20.2 14.06-33.05 1e-5 -13.13-4.651-24.45-13.98-33.94-9.333-9.493-20.36-14.22-33.12-14.22zm676.7 0c-12.96-1e-5 -24.1 4.651-33.48 13.98-9.373 9.333-14.06 20.48-14.06 33.44 1e-5 12.96 4.563 24.14 13.75 33.52 9.18 9.373 20.2 14.06 33.05 14.06 13.13 0 24.45-4.609 33.94-13.79 9.493-9.187 14.26-20.2 14.26-33.05 1e-5 -13.13-4.69-24.45-14.02-33.94-9.333-9.493-20.48-14.22-33.44-14.22zm-676.7 170c-12.76 0-23.77 4.651-33.01 13.98-9.24 9.333-13.87 20.36-13.87 33.12s4.516 23.77 13.52 33.01c9 9.24 19.97 13.87 32.93 13.87s24.1-4.516 33.48-13.52c9.373-9 14.06-19.97 14.06-32.93 1e-5 -12.96-4.651-24.1-13.98-33.48-9.333-9.373-20.36-14.06-33.12-14.06zm169.7 0c-12.96 0-24.14 4.651-33.52 13.98-9.373 9.333-14.06 20.36-14.06 33.12s4.609 23.77 13.79 33.01c9.187 9.24 20.2 13.87 33.05 13.87 13.13 0 24.45-4.516 33.94-13.52 9.493-9 14.22-19.97 14.22-32.93 1e-5 -12.96-4.651-24.1-13.98-33.48-9.333-9.373-20.48-14.06-33.44-14.06zm168.6 0c-13.22 0-24.4 4.651-33.52 13.98-9.12 9.333-13.67 20.36-13.67 33.12s4.477 23.77 13.48 33.01c9 9.24 20.11 13.87 33.32 13.87 13.22 0 24.4-4.516 33.52-13.52 9.12-9 13.67-19.97 13.67-32.93s-4.477-24.1-13.48-33.48c-9-9.373-20.11-14.06-33.32-14.06zm170 0c-13.13 0-24.45 4.651-33.94 13.98s-14.26 20.36-14.26 33.12 4.69 23.77 14.02 33.01c9.333 9.24 20.48 13.87 33.44 13.87s24.1-4.516 33.48-13.52c9.373-9 14.06-19.97 14.06-32.93s-4.602-24.1-13.79-33.48c-9.18-9.373-20.16-14.06-33.01-14.06zm168.4 0c-12.96 0-24.1 4.651-33.48 13.98-9.373 9.333-14.06 20.36-14.06 33.12s4.563 23.77 13.75 33.01c9.18 9.24 20.2 13.87 33.05 13.87 13.13 0 24.45-4.516 33.94-13.52 9.493-9 14.26-19.97 14.26-32.93 1e-5 -12.96-4.69-24.1-14.02-33.48-9.333-9.373-20.48-14.06-33.44-14.06z" fill="url(#a)"/>
</svg>
