<svg xmlns="http://www.w3.org/2000/svg" viewBox="0 0 22 22"><g stroke-width="1.238"><path fill="#ff00df" d="M2.75.688A2.744 2.744 0 0 0 0 3.438v13.754a2.744 2.744 0 0 0 2.75 2.75h5.645a4 4 0 0 1-.145-1.037v-.338h-5.5a1.37 1.37 0 0 1-1.375-1.375v-11c0-.761.613-1.375 1.375-1.375h15.121c.762 0 1.376.613 1.376 1.376v2.75h1.375v-5.5a2.744 2.744 0 0 0-2.75-2.75H2.752zm4.812 5.5a.686.686 0 0 0-.688.687v1.376c0 .38.307.687.688.687h1.375c.38 0 .687-.307.687-.687V6.875a.686.686 0 0 0-.687-.687zm4.124 0a.686.686 0 0 0-.688.687v1.376c0 .38.307.687.688.687h1.375c.38 0 .688-.307.688-.687V6.875a.686.686 0 0 0-.688-.687zm4.124 0a.686.686 0 0 0-.688.687v1.376c0 .38.307.687.688.687h1.375c.38 0 .688-.307.688-.687V6.875a.686.686 0 0 0-.688-.687zM3.433 10.312a.686.686 0 0 0-.687.687v1.376c0 .38.306.687.687.687H4.81c.38 0 .687-.307.687-.687v-1.376a.686.686 0 0 0-.687-.687zm4.124 0a.686.686 0 0 0-.687.687v1.376c0 .38.306.687.687.687h.688a4.1 4.1 0 0 1 .999-2.666.7.7 0 0 0-.312-.084zm-4.124 4.124a.686.686 0 0 0-.687.687V16.5c0 .38.306.687.687.687H4.81c.38 0 .687-.306.687-.687v-1.376a.686.686 0 0 0-.687-.687zm4.124 0a.686.686 0 0 0-.687.687V16.5c0 .38.306.687.687.687h.688v-2.75z"/><path fill="#ff0" d="M12.377 10.31a2.744 2.744 0 0 0-2.75 2.75v5.5a2.744 2.744 0 0 0 2.75 2.75h6.875a2.744 2.744 0 0 0 2.75-2.75v-5.5a2.744 2.744 0 0 0-2.75-2.75zm0 2.75h6.875c.761 0 1.375.613 1.375 1.376v4.124c0 .761-.613 1.375-1.375 1.375h-6.875A1.37 1.37 0 0 1 11 18.56v-4.124c0-.762.613-1.376 1.376-1.376"/></g></svg>