<svg version="1.1" viewBox="0 0 22 22" xmlns="http://www.w3.org/2000/svg">
 <defs>
  <linearGradient id="a" y1=".5" y2=".5">
   <stop stop-color="#00f0ff" offset="0"/>
   <stop stop-color="#00c3ff" offset="1"/>
  </linearGradient>
 </defs>
 <path transform="translate(-0) scale(1) translate(-2e-6 6e-5) scale(.9998) translate(.002563 .002681) scale(1.375)" d="m3 2a1 1 0 0 0-0.625 0.2207l-0.08203 0.07227-2 2-0.07617 0.08398c-0.514 0.637-0.0688 1.623 0.7832 1.623h1v5l0.00586 0.1758a3 3 0 0 0 2.994 2.824h3l0.1172-0.0078a1 1 0 0 0-0.1172-1.992h-3l-0.1172-0.0078a1 1 0 0 1-0.8828-0.9922v-5h1c0.891 0 1.337-1.077 0.707-1.707l-2-2c-0.02553-0.02602-0.05361-0.0495-0.08203-0.07227l-0.00391-0.00586c-0.00846-0.00667-0.01668-0.01314-0.02539-0.01953a1 1 0 0 0-0.5059-0.1914c-0.024-0.002667-0.04765-0.003906-0.07031-0.003906a1 1 0 0 0-0.01953 0zm5 0-0.1172 0.00781a1 1 0 0 0 0.1172 1.992h3l0.1172 0.00781a1 1 0 0 1 0.8828 0.9922v4.998l-1 0.001953c-0.891 0-1.337 1.077-0.707 1.707l2 2a1 1 0 0 0 0.08594 0.07813l0.0039 2e-3a1 1 0 0 0 0.02148 0.01758 1 1 0 0 0 0.5449 0.1934h0.0039l0.01564 0.0019h0.03125a1 1 0 0 0 0.707-0.293l2-2 0.07617-0.08398c0.514-0.637 0.0688-1.623-0.7832-1.623h-1v-5l-0.0059-0.1758a3 3 0 0 0-2.994-2.824z" fill="url(#a)"/>
</svg>
