<svg version="1.1" viewBox="0 0 22 22" xmlns="http://www.w3.org/2000/svg">
 <defs>
  <linearGradient id="a" y1=".5" y2=".5">
   <stop stop-color="#01ff01" offset="0"/>
   <stop stop-color="#1b8b00" offset="1"/>
  </linearGradient>
 </defs>
 <g transform="translate(0) scale(1) translate(0) scale(1) translate(-1e-4 .000127) scale(1) translate(-1.222 -1.225) scale(1.111)" fill="url(#a)" stroke-width="1.238">
  <path d="M8.044 1.793a.87.87 0 0 0-.586.252 2 2 0 0 0-.383.53c-.226.416-.42.96-.613 1.6-.385 1.278-.758 2.925-1.198 4.483-.056.198-.115.389-.172.584l1.881.526c.323-1.257.577-2.505.773-3.544l.207-1.09c.018.329.051.583.048 1.001a37 37 0 0 1-.253 3.85l1.064.298c.245-1.994.317-4 .241-5.538-.039-.792-.115-1.457-.234-1.953-.059-.248-.127-.454-.228-.629s-.276-.37-.548-.37zm-4.48.572a.88.88 0 0 0-.655.325c-.151.18-.246.398-.323.637-.154.478-.23 1.062-.282 1.636C2.2 6.112 2.197 7.24 2.197 7.24c-.004.415.578.511.709.118l.228-.69c-.018.376-.035.737-.056 1.124l-1.261-.349-.097.351L1.139 9.9l1.755.485c-.13 1.713-.247 3.567-.14 4.82.027.323.075.576.164.79.088.213.242.419.486.486s.47-.031.641-.156a2.3 2.3 0 0 0 .481-.502c.626-.842 1.32-2.39 1.94-4.278q.17-.528.321-1.07L4.884 9.94a38 38 0 0 1-.943 2.739c-.01.025-.015.026-.025.05.004-.586-.012-1.09.04-1.866.05-.713.107-1.452.16-2.172l.156-.569-.117-.032c.02-.301.046-.62.06-.898.062-1.208.075-2.328.029-3.162a6.4 6.4 0 0 0-.12-1.026c-.031-.134-.063-.248-.127-.362s-.208-.277-.432-.277zm8.678.566c-.252 0-.435.158-.556.317s-.215.35-.307.578c-.183.459-.35 1.073-.528 1.802-.334 1.37-.7 3.138-1.166 4.898l1.706.478c.076-.394.143-.784.23-1.2-.051.427-.084.825-.125 1.229l2.364.662c.407-1.603.702-3.168.917-4.388.072-.41.123-.664.18-.983.022.284.054.493.06.851.02 1.308-.075 3.043-.278 4.766l1.08.302q.085-.656.149-1.329c.173-1.849.197-3.718.09-5.146-.052-.714-.134-1.316-.26-1.767-.062-.226-.133-.415-.239-.578s-.287-.335-.54-.335c-.242 0-.451.13-.601.287s-.267.353-.379.586c-.223.464-.416 1.084-.612 1.816-.196.73-.423 1.726-.629 2.619.068-.906.216-1.924.21-2.66-.006-.74-.045-1.363-.119-1.823a2.6 2.6 0 0 0-.147-.583.8.8 0 0 0-.146-.237.5.5 0 0 0-.353-.161zM18.9 5.666a.54.54 0 0 0-.32.148 1 1 0 0 0-.182.266c-.2.383-.364.978-.532 1.644s-.323 1.387-.448 1.932a50 50 0 0 1-.752 2.826l1.502.42-.196.701-1.519-.425a62 62 0 0 1-.627 1.946 31 31 0 0 1-.66 1.76c.03-.306.046-.56.108-.973.123-.828.29-1.849.444-2.939l-1.073-.3c-.222 1.633-.524 3.223-.704 4.453-.098.676-.159 1.242-.142 1.679.009.219.03.405.115.587s.314.368.548.368c.41 0 .765-.219 1.1-.523.333-.305.655-.715.969-1.192.628-.955 1.22-2.186 1.67-3.373l.003-.01.181.049c-.312 2.653-.718 4.323-.718 4.323-.138.384.364.67.623.354 0 0 .046-.085.056-.1h.003l.003-.007c.04-.056.094-.123.201-.357.14-.306.316-.782.489-1.5.149-.615.293-1.42.41-2.431l.78.207.653-2.462-1.236-.327c.034-.81.05-1.707.044-2.705-.014-1.777-.078-2.795-.202-3.363a1.5 1.5 0 0 0-.118-.364c-.054-.108-.136-.244-.33-.297a.4.4 0 0 0-.143-.014zM2.32 8.34l1.052.291-.29 1.052-1.052-.29zm5.33 2.376c-.044.33-.085.658-.137.987-.318 1.999-.801 3.974-1.122 5.463-.16.744-.282 1.365-.32 1.832-.019.233-.025.423.024.615a.63.63 0 0 0 .156.292c.09.094.24.156.368.156.47 0 .8-.323 1.166-.752.365-.43.75-1.016 1.136-1.719.774-1.406 1.559-3.27 2.13-5.173q.107-.362.185-.698l-1.747-.488a53 53 0 0 1-1.583 4.736c-.1.257-.169.395-.26.615.043-.212.058-.334.11-.577.29-1.351.683-3.137.951-4.993zm3.752 1.05c-.026.18-.052.361-.089.552-.357 1.875-.874 3.732-1.265 5.122a49 49 0 0 0-.456 1.689c-.05.209-.087.373-.1.518-.006.073-.012.14.011.24a.4.4 0 0 0 .097.187.44.44 0 0 0 .295.134c.264 0 .394-.136.527-.27s.261-.308.4-.52c.278-.422.59-1.003.916-1.702a35 35 0 0 0 1.893-5.154q.021-.08.042-.16zm7.534 1.21 1.055.279-.28 1.055-1.055-.28z" opacity=".7"/>
  <path d="m1.784 7.481-.094.336-.59 2.096 2.434.686.288-1.027 14.22 3.988-.264.94 2.434.685.684-2.431-2.434-.687-.094.339-.114.4c-.367-.102-9.316-2.606-14.22-3.982l.184-.658-2.434-.684zm.486.863 1.08.304-.305 1.085-1.083-.304zm16.68 4.587 1.08.304-.305 1.085-1.083-.304z"/>
 </g>
</svg>
