<svg version="1.1" viewBox="0 0 22 22" xmlns="http://www.w3.org/2000/svg">
 <defs>
  <linearGradient id="a" x1="1" x2="0" y1="1">
   <stop stop-color="#fd0000" offset="0"/>
   <stop stop-color="#faff00" offset="1"/>
  </linearGradient>
 </defs>
 <g transform="translate(0) scale(1) translate(0) scale(1) translate(.000134 -1e-4) scale(1) translate(-1.224 -1.222) scale(1.111)" fill="url(#a)" stroke-width="1.238">
  <path d="M10.59 1.103v.896c-.62.026-1.068.431-1.307.934-.242.509-.345 1.128-.44 1.767-.096.64-.18 1.298-.33 1.85-.152.551-.37.977-.684 1.209-.304.224-.765.3-1.33.275-.564-.026-1.21-.15-1.841-.255s-1.243-.199-1.79-.126c-.548.074-1.066.39-1.244.987-.18.606.07 1.167.48 1.554s.965.678 1.544.966 1.182.57 1.66.884.815.652.939 1.023c.118.355.042.819-.166 1.35-.208.53-.537 1.11-.846 1.68s-.6 1.126-.71 1.671c-.056.273-.065.548.017.814s.263.506.52.683c.516.355 1.125.284 1.62.013.496-.272.95-.713 1.407-1.174.456-.462.911-.946 1.352-1.301.371-.3.723-.495 1.038-.549.03.037.058.073.096.113l.015.015v.764h.938v-.052c.054.03.105.062.16.087.145.065.312.063.472.08.096.306.219.606.423.849.135.16.272.298.412.402.07.052.138.098.236.13.013.005.041-.015.057-.012.113.075.16.132.16.133 0 0 .004.011-.022.092-.013.041-.035.095-.042.191a.49.49 0 0 0 .137.355c.14.13.297.108.453.113.06.108.111.223.2.308a.8.8 0 0 0 .526.225c.403.007.736-.266 1.08-.716l.022-.035c.208-.358.356-.448.485-.695a.62.62 0 0 0 0-.501c-.042-.079-.11-.133-.167-.193.02-.372.139-.684.265-.928.07-.134.141-.233.175-.416a.48.48 0 0 0-.075-.36c-.043-.059-.098-.06-.15-.088-.26-.645-.644-1.133-1.041-1.387a2 2 0 0 0-.623-.27c-.096-.022-.191.021-.283.022-.018-.181-.004-.576.022-1.044.381-.223.704-.466.871-.588a.6.6 0 0 1 .216-.115c.05-.01.11-.012.243.042a.34.34 0 0 0 .465-.305c.005-.228.196-.608.433-.866.118-.13.246-.231.333-.279.043-.023.066-.024.068-.025a.34.34 0 0 0 .387-.134c.407-.612.661-.646.736-.644q.024.001.03.004c.013.013.024.028.07.046l.063.018.062.008.113-.018.083-.04.083-.078.052-.102v-.003l.08-.048c.212-.126.502-.306.78-.513.28-.206.55-.427.722-.706a.8.8 0 0 0 .138-.5c-.01-.109-.103-.185-.166-.278a.9.9 0 0 0-.052-.286.49.49 0 0 0-.325-.277c-.155-.029-.253.022-.32.057-.068.034-.116.07-.164.1a1 1 0 0 1-.22.118c-.04.009-.032.022-.105-.04-.148-.178-.213-.29-.393-.388a.4.4 0 0 0-.213-.05.4.4 0 0 0-.228.082c-.1.08-.114.13-.138.166-.046.072-.073.119-.172.187-.099.07-.274.154-.598.206a.3.3 0 0 0-.058.012c-.95.328-1.456.957-1.757 1.27-.111.115-.185.158-.203.172-.005-.003-.005-.002-.015-.01a1.3 1.3 0 0 1-.2-.23l-.003-.003c-.11-.704-.007-.73-.678-1.682a.34.34 0 0 0-.245-.142c-.26-.025-.313-.08-.33-.103s-.04-.096-.045-.26c-.01-.329.017-.952-.51-1.447-.255-.4-.464-.64-.63-.794a3.5 3.5 0 0 1-.448-.52.8.8 0 0 0-.002-.2 2.3 2.3 0 0 0-.15-.456c-.125-.304-.287-.669-.4-1.036.037-.106.084-.197.067-.34a.4.4 0 0 0-.08-.196.4.4 0 0 0-.128-.097V1.104zm.026 1.024h.567l-.047.027c-.098.06-.155.118-.21.168-.055.049-.134.09-.06.057l.135.298a.34.34 0 0 0-.008.208l.031.095h-.434v1.024h.831l.02.048c.056.136.09.238.103.295a.34.34 0 0 0 .01.358c.274.418.487.606.655.761s.307.288.568.721a.3.3 0 0 0 .058.073c.333.312.285.578.295.968.006.195.018.438.186.657.12.156.352.204.575.262.658.93.437.552.606 1.509a.34.34 0 0 0 .06.14c.114.157.218.279.341.373s.277.16.438.158c.32-.004.507-.208.68-.388.345-.356.713-.825 1.473-1.092.377-.065.647-.174.838-.307.1-.07.122-.122.18-.19.048.048.024.026.1.115l.038.035c.209.178.487.23.693.185.144-.032.222-.093.31-.148a.3.3 0 0 0 .093.103l.017.013c0-.005.003.02-.034.08-.08.128-.3.337-.549.52a9 9 0 0 1-.728.476l-.22.13c-.021-.002-.028-.014-.05-.015-.33-.007-.765.283-1.2.861-.112.017-.24-.022-.332.028-.18.099-.35.242-.508.415-.232.254-.346.611-.448.961-.108-.015-.22-.062-.32-.042a1.2 1.2 0 0 0-.492.233c-.272.2-.504.436-.953.656a.34.34 0 0 0-.19.282c-.039.596-.053 1.02-.02 1.327.016.153.02.28.142.433a.46.46 0 0 0 .305.165.46.46 0 0 0 .286-.08l-.013.01c-.082.048-.016.005.088.028.105.023.253.08.408.178.31.198.655.558.859 1.161a.3.3 0 0 0 .05.093c-.02.043-.019.045-.055.115-.145.28-.374.738-.368 1.336a.34.34 0 0 0 .108.243c.076.071.086.085.11.113-.042.048-.19.223-.394.56-.286.376-.49.45-.53.448-.02 0-.028 0-.068-.037a.8.8 0 0 1-.147-.238.34.34 0 0 0-.311-.205c-.12-.001-.068.015-.102.008.022-.096.06-.177.02-.321-.062-.218-.24-.403-.506-.556a.34.34 0 0 0-.188-.045c-.005-.003-.002 0-.008-.005a2 2 0 0 1-.297-.295c-.22-.261-.4-.649-.403-.714a.34.34 0 0 0-.406-.32c-.041.008-.168-.007-.325-.078a2.6 2.6 0 0 1-.44-.267v-.173h-.221a4 4 0 0 1-.245-.225 1 1 0 0 1-.098-.113h-.003c.008.015.053.043.018.19l-.33-.077v-.338c-.604 0-1.14.316-1.634.716-.495.4-.962.9-1.41 1.352-.446.452-.879.853-1.248 1.056-.37.202-.604.235-.909.025a.58.58 0 0 1-.257-.325 1 1 0 0 1 0-.478c.08-.396.337-.925.64-1.484.303-.56.646-1.157.882-1.757.235-.6.374-1.221.177-1.81-.198-.594-.673-1.02-1.21-1.374-.54-.354-1.16-.644-1.728-.926s-1.08-.566-1.382-.851-.405-.498-.295-.867c.105-.356.287-.457.683-.51s.97.018 1.59.122 1.285.237 1.923.266 1.265-.041 1.762-.408c.503-.372.766-.953.936-1.575s.252-1.303.346-1.93.201-1.202.38-1.577c.178-.376.352-.539.736-.549z"/>
  <path d="M10.59 1.1v1.025h.94V1.1zm0 1.88v1.022h.94V2.98zm0 1.876v1.025h.94V4.856zm0 1.878v1.025h.94V6.734zm0 1.878v1.025h.94V8.612zm0 1.878v1.022h.94V10.49zm0 1.878v1.022h.94v-1.022zm0 1.876v1.025h.94v-1.025zm0 3.756v1.022h.94V18zm0 1.876v1.025h.94v-1.025z"/>
 </g>
</svg>
