<svg xmlns="http://www.w3.org/2000/svg" viewBox="0 0 22 22"><defs><linearGradient id="a"><stop offset="0" stop-color="#ff4000"/><stop offset="1" stop-color="#ffa200"/></linearGradient></defs><path fill="url(#a)" d="M2.095 0q2.743.001 5.283.71a20 20 0 0 1 4.754 2.01 20.04 20.04 0 0 1 7.149 7.15 20 20 0 0 1 2.01 4.754q.71 2.539.71 5.283 0 .866-.613 1.48-.616.614-1.48.614a2.02 2.02 0 0 1-1.481-.614 2.02 2.02 0 0 1-.614-1.48 15.3 15.3 0 0 0-.566-4.176 15.738 15.738 0 0 0-7.221-9.388 15.9 15.9 0 0 0-3.755-1.588 15.3 15.3 0 0 0-4.176-.566 2.02 2.02 0 0 1-1.48-.614 2.02 2.02 0 0 1-.614-1.48Q0 1.23.615.615t1.48-.614zm0 7.92q2.479 0 4.657.95a12.2 12.2 0 0 1 3.803 2.575 12.3 12.3 0 0 1 2.575 3.802q.95 2.178.95 4.658 0 .867-.613 1.48-.614.615-1.48.615a2.01 2.01 0 0 1-1.48-.615 2.01 2.01 0 0 1-.614-1.48 7.6 7.6 0 0 0-.614-3.032 7.9 7.9 0 0 0-1.672-2.48 7.9 7.9 0 0 0-2.48-1.672 7.6 7.6 0 0 0-3.032-.613 2.01 2.01 0 0 1-1.48-.615 2.01 2.01 0 0 1-.614-1.48q0-.865.614-1.48a2.02 2.02 0 0 1 1.48-.613zm3.851 11q0 .624-.23 1.155a2.905 2.905 0 0 1-1.564 1.552 2.9 2.9 0 0 1-1.143.228 2.9 2.9 0 0 1-1.155-.229 2.94 2.94 0 0 1-1.553-1.551 2.9 2.9 0 0 1-.228-1.155q0-.603.228-1.144a2.92 2.92 0 0 1 1.553-1.565 2.9 2.9 0 0 1 1.155-.228q.602 0 1.143.228.542.229.939.626.398.397.626.939.23.54.229 1.144" transform="scale(.9999)"/></svg>