<svg version="1.1" viewBox="0 0 22 22" xmlns="http://www.w3.org/2000/svg">
 <defs>
  <linearGradient id="a" y1="1">
   <stop stop-color="#ffe600" offset="0"/>
   <stop stop-color="#fcf39f" offset=".816"/>
  </linearGradient>
 </defs>
 <g transform="translate(0) scale(1) translate(.05098) scale(1) translate(-.05098) scale(1.375)" fill="url(#a)">
  <path d="M6.543 0v4.021h.813v-.547a4.543 4.543 0 0 1 3.528 6.8 4.54 4.54 0 0 1-3.528 2.253v-.6h-.813V16h.806v-2.664c.468-.036.924-.131 1.358-.282l.456 1.043.739-.322-.455-1.046c.409-.216.79-.485 1.132-.8l.834.775.55-.589-.834-.777q.25-.312.455-.662.146-.256.262-.524l2.514.885.268-.76-2.512-.885c.12-.45.183-.912.185-1.375l1.134-.081-.058-.807-1.136.083a5.4 5.4 0 0 0-.38-1.334l1.01-.528-.375-.715-1.009.53a5.4 5.4 0 0 0-.88-1.07l1.669-2.079-.63-.504-1.668 2.076a5.4 5.4 0 0 0-1.234-.63l.3-1.098-.779-.213-.299 1.098a5 5 0 0 0-.614-.082V0zm0 5.123v1.166h.813V5.123zm0 2.27v1.164h.813V7.393zm0 2.267v1.166h.813V9.66z"/>
  <path d="m6.727 2.647a5.354 5.354 0 0 0 0 10.71v-0.806a4.546 4.546 0 1 1 0-9.095z" opacity=".4"/>
 </g>
</svg>
