<svg xmlns="http://www.w3.org/2000/svg" viewBox="0 0 22 22"><defs><linearGradient id="a" x1="1" x2="0" y1="1"><stop offset="0" stop-color="#fe5aff"/><stop offset="1" stop-color="#fe9eff"/></linearGradient></defs><path fill="url(#a)" d="m9.773.002-.004.004-.006.004a6 6 0 0 0-.933.095c-.675.127-.97.82-1.21 1.398-.228.555.034 1.352-.468 1.723-.35.259-.706.553-1.127.665-.424.11-.823-.134-1.21-.272-.544-.192-1.094-.448-1.7-.334-.547.103-.941.531-1.23.986a74 74 0 0 0-1.55 2.522A1.68 1.68 0 0 0 .25 8.326c.385.858 1.598 1.095 1.89 1.947.134.39.178.885-.009 1.246-.188.367-.576.571-.879.836-.465.404-1.059.809-1.12 1.478-.08.861.435 1.606.849 2.314.356.61.649 1.268 1.1 1.812.498.605 1.364.699 2.104.506.536-.14 1.025-.46 1.572-.525.426-.051.74.313 1.106.469.458.195.472.73.574 1.144.146.594.188 1.255.541 1.76.325.467.917.614 1.471.609 1.128-.011 2.274.18 3.385-.008.877-.148 1.461-.968 1.633-1.799.094-.452.19-.932.092-1.385-.175-.808-1.22-1.12-1.916-.664-.39.256-.413.753-.623 1.121-.205.358-.643.295-.996.313-.384.019-.845.029-1.072-.338-.227-.362-.277-.803-.377-1.213-.197-.795-.938-1.248-1.602-1.652-.657-.402-1.353-.834-2.166-.787-.556.03-1.05.328-1.582.445-.426.093-.721-.283-.899-.621-.184-.356-.577-.743-.361-1.154.234-.448.687-.712 1.055-1.057.484-.454.621-1.13.621-1.773-.001-.72.07-1.473-.265-2.143-.286-.575-.912-.868-1.28-1.37-.27-.368-.07-.817.155-1.16.207-.315.385-.852.832-.788.41.059.787.262 1.19.377a2.42 2.42 0 0 0 1.92-.26c.796-.495 1.695-.91 2.209-1.752.253-.415.297-.918.52-1.342.206-.395.668-.44 1.075-.445.366-.006.826-.056 1.047.296.23.366.259.814.362 1.227.213.85.975 1.41 1.725 1.758.52.241.984.622 1.572.702.728.096 1.392-.296 2.088-.436.42-.085.71.288.877.625.176.353.572.724.386 1.14-.167.37-.558.555-.85.821-.464.427-.792.995-.827 1.644-.035.656-.109 1.334.037 1.978.184.818.942 1.29 1.478 1.873.297.323.129.775-.09 1.1-.217.32-.375.797-.826.828-.385.028-.727-.171-1.107-.222-.84-.112-1.558.897-1.144 1.65.342.623 1.12.68 1.695.992.693.377 1.686.449 2.246-.16.378-.413.654-.914.943-1.393.39-.645.844-1.256 1.166-1.936.243-.513.117-1.11-.178-1.582-.441-.71-1.498-.93-1.752-1.713a2.1 2.1 0 0 1-.04-1.076c.094-.44.563-.649.882-.918.468-.395 1.06-.798 1.176-1.434.132-.728-.275-1.396-.619-2.004-.426-.755-.795-1.557-1.34-2.232-.506-.627-1.396-.678-2.144-.485-.517.134-.991.454-1.522.502-.44.042-.773-.326-1.156-.486-.353-.148-.411-.545-.475-.879-.15-.786-.287-1.676-.957-2.215a1.65 1.65 0 0 0-1.027-.375C11.68.096 10.721-.034 9.777 0z" transform="translate(-.002 .007)scale(.9998)"/><path fill="url(#a)" d="M10.45 7.709c-.457 0-.856.187-1.26.428-.403.24-.805.553-1.17.879a8.4 8.4 0 0 0-.937.986 3.6 3.6 0 0 0-.313.459c-.084.152-.166.291-.166.543s.082.39.166.54c.083.153.188.303.313.46.248.317.575.66.937.986.365.328.766.64 1.17.881s.803.428 1.26.428h3.295c.903 0 1.648-.744 1.648-1.646V9.356c0-.903-.746-1.646-1.648-1.646z" transform="translate(-.002 .007)scale(.9998)"/></svg>