<svg xmlns="http://www.w3.org/2000/svg" viewBox="0 0 22 22"><defs><linearGradient id="a" x2="0" y1="1"><stop offset="0" stop-color="#ff0001"/><stop offset="1" stop-color="#ec3dc4"/></linearGradient></defs><path fill="url(#a)" d="M39.69 27.76q.133-.131.276-.242a2.47 2.47 0 0 1 1.523-.521l.064-.001.122.002a2.5 2.5 0 0 1 1.7.719l.058.055q.78.782.792 1.897t-.75 1.877l-2.633 2.632 2.578 2.579q.786.786.831 1.873.047 1.089-.766 1.902l-.003.003q-.789.786-1.925.79-1.069.003-1.829-.694-.047-.043-.093-.088l-2.578-2.58-2.579 2.58q-.761.761-1.874.752a2.61 2.61 0 0 1-1.892-.79l-.019-.017q-.757-.757-.766-1.868a2.5 2.5 0 0 1 .561-1.634q.094-.118.205-.229l2.579-2.579-2.589-2.588q-.773-.774-.801-1.899a2.6 2.6 0 0 1 .791-1.932c.542-.542 1.188-.792 1.914-.773q1.104.045 1.875.813l2.595 2.595z" transform="translate(-1.922 -1.8)scale(.5333)"/><path fill="url(#a)" d="M18.35 31.21V16.82q0-.663.426-1.054.426-.39.983-.391.181 0 .383.045.204.045.403.163l11.32 7.259q.317.211.489.511.174.301.174.664 0 .362-.174.662a1.5 1.5 0 0 1-.489.511l-11.32 7.26a1.1 1.1 0 0 1-.406.148 3 3 0 0 1-.385.03q-.561 0-.982-.369-.422-.37-.422-1.046z" transform="translate(-1.922 -1.8)scale(.5333)"/><path fill="url(#a)" d="M27.04 5.487c.393 1.137.803 2.35.803 2.35a17 17 0 0 1 2.541.826l1.93-1.369a3.265 3.265 0 0 1 3.809.021q.047.05.102.088a3.09 3.09 0 0 1 1.116 3.409c-.35 1.15-.732 2.373-.732 2.373a16.6 16.6 0 0 1 1.57 2.162l2.367.026a3.26 3.26 0 0 1 3.068 2.257c.004.046.018.088.032.131a3.09 3.09 0 0 1-1.103 3.413c-.839.634-1.731 1.3-1.941 1.456-1.35.662-4.769.127-4.946-1.052-1.121-5.412-5.918-9.485-11.66-9.485-6.571 0-11.91 5.336-11.91 11.91 0 6.571 5.336 11.9 11.91 11.9a12 12 0 0 0 1.382-.08c.505 1.636 2.082 5.473 1.709 6.58a3.265 3.265 0 0 1-3.095 2.22c-.044-.01-.09-.01-.135-.01a3.09 3.09 0 0 1-2.905-2.103c-.393-1.138-.803-2.351-.803-2.351a16.4 16.4 0 0 1-2.54-.826l-1.931 1.37a3.265 3.265 0 0 1-3.809-.021.7.7 0 0 0-.102-.089 3.09 3.09 0 0 1-1.116-3.408c.35-1.151.732-2.373.732-2.373a17 17 0 0 1-1.57-2.162l-2.367-.026a3.265 3.265 0 0 1-3.068-2.257c-.004-.046-.018-.088-.031-.131a3.09 3.09 0 0 1 1.102-3.413c.959-.725 1.987-1.49 1.987-1.49a16.6 16.6 0 0 1 0-2.672l-1.9-1.413a3.26 3.26 0 0 1-1.156-3.627c.023-.04.037-.083.052-.126a3.09 3.09 0 0 1 2.897-2.114 353 353 0 0 1 2.484-.037c.465-.761.99-1.485 1.57-2.162l-.705-2.259a3.26 3.26 0 0 1 1.197-3.615c.042-.018.079-.045.115-.071a3.09 3.09 0 0 1 3.588-.006c.986.689 2.031 1.429 2.031 1.429a16.6 16.6 0 0 1 2.54-.826l.756-2.243A3.27 3.27 0 0 1 24 3.371c.044.01.09.01.136.01a3.09 3.09 0 0 1 2.904 2.103z" transform="translate(-1.922 -1.8)scale(.5333)"/></svg>