<svg version="1.1" viewBox="0 0 22 22" xmlns="http://www.w3.org/2000/svg">
 <defs>
  <style>.ColorScheme-Text { color:#ebdbb2; } .ColorScheme-Highlight { color:#458588; }</style>
  <linearGradient id="a" y1=".5" y2=".5">
   <stop stop-color="#d300dc" offset="0"/>
   <stop stop-color="#8219ff" offset="1"/>
  </linearGradient>
 </defs>
 <path transform="translate(-0) scale(1) translate(-0) scale(1) translate(.000816 6e-4) scale(1) translate(0 .00195) scale(.9998) translate(.2471 .000198) scale(.9885)" d="m8.803-2.003e-4c-1.625 0-2.936 1.308-2.936 2.934v10.27c0 1.625 1.31 2.934 2.936 2.934h10.27c1.625 0 2.936-1.308 2.936-2.934v-10.27c0-1.625-1.31-2.934-2.936-2.934h-10.27zm0 2.934h10.27v10.27h-10.27v-10.27zm-6.337 2.914c-0.06897-0.00263-0.1384 0.005504-0.2055 0.02173-1.132 0.2668-1.997 1.129-2.264 2.262-0.1101 0.4652 0.253 0.9204 0.7311 0.9207h1.707c0.4112-4.11e-5 0.7508-0.3376 0.7508-0.7488v-1.705c3.305e-4 -0.3993-0.3182-0.7336-0.7172-0.7508a0.25 0.25 0 0 0-0.001976 0zm-1.966 4.169c-0.4112 4.1e-5 -0.7508 0.3396-0.7508 0.7508v1.936c4.112e-5 0.4112 0.3396 0.7488 0.7508 0.7488h1.934c0.4112-4.1e-5 0.7508-0.3376 0.7508-0.7488v-1.936c-4.11e-5 -0.4112-0.3396-0.7508-0.7508-0.7508h-1.934zm0 4.402c-0.4112 4.1e-5 -0.7508 0.3396-0.7508 0.7508v1.936c4.112e-5 0.4112 0.3396 0.7488 0.7508 0.7488h1.934c0.4112-4.1e-5 0.7508-0.3376 0.7508-0.7488v-1.936c-4.11e-5 -0.4112-0.3396-0.7508-0.7508-0.7508h-1.934zm0.2272 4.4c-0.4781 2.64e-4 -0.8392 0.4574-0.7291 0.9227 0.2664 1.134 1.131 1.998 2.264 2.264 0.4652 0.1101 0.9224-0.253 0.9227-0.7311v-1.705c-4.11e-5 -0.4112-0.3396-0.7508-0.7508-0.7508h-1.707zm4.173 0c-0.4112 4.3e-5 -0.7508 0.3396-0.7508 0.7508v1.936c4.11e-5 0.4112 0.3396 0.7488 0.7508 0.7488h1.936c0.4112-4.1e-5 0.7488-0.3376 0.7488-0.7488v-1.936c-4.11e-5 -0.4112-0.3376-0.7508-0.7488-0.7508h-1.936zm4.404 0c-0.4112 4.3e-5 -0.7508 0.3396-0.7508 0.7508v1.936c4.11e-5 0.4112 0.3396 0.7488 0.7508 0.7488h1.93c0.4112-4.1e-5 0.7508-0.3376 0.7508-0.7488v-1.936c-4.1e-5 -0.4112-0.3396-0.7508-0.7508-0.7508h-1.93zm4.398 0c-0.4112 4.3e-5 -0.7508 0.3396-0.7508 0.7508v1.705c2.63e-4 0.4781 0.4574 0.8392 0.9227 0.7291 1.133-0.2661 1.996-1.129 2.262-2.262 0.1101-0.4652-0.251-0.9224-0.7291-0.9227h-1.705z" fill="url(#a)"/>
</svg>
