<svg xmlns="http://www.w3.org/2000/svg" viewBox="0 0 22 22"><path fill="#0ff" d="M1.942 11q0 1.615.819 3.007t2.223 2.187q.327.188.444.539t0 .725q-.117.374-.468.55t-.678.011q-1.989-1.006-3.135-2.9T0 11q0-2.2 1.135-4.083t3.077-2.913q.374-.187.713-.023t.48.561q.117.375-.035.737t-.503.574q-1.38.772-2.153 2.164T1.942 11m11.512 7.885q-3.23 0-5.545-2.328T5.592 11q0-3.229 2.317-5.557t5.545-2.328q1.006 0 2.07.27t2 .853q.329.21.34.597t-.245.643q-.281.304-.667.34t-.76-.13q-.656-.327-1.37-.479t-1.345-.152q-2.457 0-4.2 1.732t-1.743 4.164q0 2.48 1.743 4.235t4.2 1.755q.608 0 1.322-.164t1.369-.444q.374-.164.76-.117t.69.327q.258.281.235.655t-.375.562q-.912.585-1.965.854t-2.06.27m5.85-7.16h-6.599q-.328 0-.55-.222t-.222-.55.21-.55.562-.222h6.598l-1.217-1.217q-.257-.257-.257-.584t.257-.585.597-.258.597.258l2.386 2.363q.328.327.328.795t-.328.796l-2.386 2.386q-.258.258-.585.246t-.585-.269q-.257-.257-.257-.597t.257-.596z"/></svg>