<svg xmlns="http://www.w3.org/2000/svg" viewBox="0 0 22 22"><path fill="#06f" d="M8.881 21.996q-1.066 0-1.792-.726-.727-.726-.727-1.792v-1.59q0-.524.363-.899.362-.374.886-.374.523 0 .896.374.374.375.374.898v1.59h10.63V8.848h-1.59q-.55 0-.912-.362-.361-.362-.361-.888 0-.525.361-.883t.911-.358h1.59q1.028 0 1.76.732.732.733.732 1.76v10.63q0 1.066-.732 1.792t-1.76.726zm-1.062-6.362q-3.269 0-5.544-2.277Q0 11.081 0 7.812 0 4.544 2.277 2.27T7.822-.006t5.543 2.277 2.275 5.545-2.276 5.543-5.545 2.275m-.01-2.518q2.208 0 3.774-1.542 1.566-1.54 1.566-3.749t-1.557-3.773q-1.556-1.566-3.764-1.566T4.07 4.042 2.519 7.806t1.541 3.759 3.749 1.55m.011-5.302"/></svg>