<svg version="1.1" viewBox="0 0 22 22" xmlns="http://www.w3.org/2000/svg">
 <g transform="translate(-0) scale(1) translate(-0) scale(1) translate(1.3e-5 1e-5) scale(1)" fill="#ff17c5">
  <path d="M11.373 9.983a.785.785 0 0 0-1.106.108l-2.271 2.865a.785.785 0 0 0 .012.911l2.276 2.611c.691.742 1.822-.245 1.185-1.03l-1.144-1.31h4.268c.33 0 .573.193.795.479.22.286.328.57.328.57a.785.785 0 0 0 1.477-.531s-.178-.501-.562-1c-.388-.5-1.073-1.09-2.038-1.09h-4.332l1.219-1.477a.785.785 0 0 0-.109-1.106Z"/>
  <path d="M3.142 1.57A3.135 3.135 0 0 0 0 4.714v12.566a3.135 3.135 0 0 0 3.142 3.142H18.85a3.135 3.135 0 0 0 3.142-3.142V7.854a3.135 3.135 0 0 0-3.142-3.141h-6.283c-.611-1.63-1.401-3.142-3.142-3.142Zm0 1.572h6.283c.87 0 1.265.755 1.57 1.57l.252.67-2.472 2.472H1.57V4.713c0-.87.7-1.571 1.57-1.571m9.425 3.141h6.283c.87 0 1.571.701 1.571 1.571v9.425c0 .87-.7 1.571-1.57 1.571H3.14c-.87 0-1.57-.7-1.57-1.57V9.424h7.854z"/>
 </g>
</svg>
