<svg version="1.1" viewBox="0 0 22 22" xmlns="http://www.w3.org/2000/svg">
 <path transform="translate(0) scale(1) translate(0) scale(1) translate(0) scale(1)" d="M5.175.647v.647H16.82V.647c0-.357.29-.647.647-.647h3.882c.357 0 .647.29.647.647v3.882c0 .357-.29.646-.647.646h-.647V16.82h.647c.357 0 .647.29.647.647v3.882c0 .357-.29.647-.647.647h-3.882a.647.647 0 0 1-.647-.647v-.647H5.175v.647c0 .357-.29.647-.646.647H.647A.647.647 0 0 1 0 21.349v-3.882c0-.357.29-.647.647-.647h.647V5.175H.647A.647.647 0 0 1 0 4.53V.647C0 .29.29 0 .647 0h3.882c.357 0 .646.29.646.647m0 3.882c0 .357-.29.646-.646.646h-.647V16.82h.647c.357 0 .646.29.646.647v.647H16.82v-.647c0-.357.29-.647.647-.647h.647V5.175h-.647a.647.647 0 0 1-.647-.646v-.647H5.175zm11.473 1.966v2.002c0 .357-.29.647-.647.647h-3.355v6.358c0 .357-.29.647-.647.647H9.996a.647.647 0 0 1-.646-.647V9.144H5.995a.647.647 0 0 1-.647-.647V6.495c0-.357.29-.647.647-.647H16c.357 0 .647.29.647.647M1.941 20.055h1.294v-1.294H1.94zm16.82-16.82h1.294V1.94h-1.294zm-16.82 0h1.294V1.94H1.94zm16.82 16.82h1.294v-1.294h-1.294z" fill="#239bfe"/>
</svg>
