<svg version="1.1" viewBox="0 0 22 22" xmlns="http://www.w3.org/2000/svg">
 <path transform="translate(-0) scale(1) translate(-0) scale(1) translate(-0) scale(1)" d="M15.708.002v2.23c-3.631.617-6.641 2.038-8.897 4.25-2.345 2.297-3.84 5.414-4.436 9.225H0v6.283h6.283v-2.234c3.632-.616 6.642-2.037 8.898-4.249 2.345-2.298 3.84-5.411 4.436-9.222h2.375V.002zm0 3.83v2.453h2.317c-.57 3.415-1.913 6.114-3.942 8.102-1.945 1.907-4.556 3.181-7.8 3.77v-2.452H3.966C4.538 12.29 5.88 9.588 7.91 7.6c1.945-1.907 4.556-3.181 7.8-3.77z" fill="#ff17c5"/>
</svg>
