<svg xmlns="http://www.w3.org/2000/svg" fill="none" viewBox="0 0 22 22"><defs><linearGradient id="a" x1="11" x2="11" y1="20.62" y2="1.375" gradientUnits="userSpaceOnUse"><stop offset="0" stop-color="#00b59c"/><stop offset="1" stop-color="#9cffac"/></linearGradient></defs><path fill="url(#a)" d="M1.375 1.375v4.812h4.812V1.375zm6.417 0v1.604h7.826l1.604-1.604H7.791zm11.73 0-18.15 18.12 1.147 1.131 18.1-18.13-1.1-1.118zM7.792 4.583v1.604h4.618l1.604-1.604zm12.83.194-1.41 1.41h1.41zM1.372 9.395v4.812h3.014l1.798-1.798V9.395zm6.417 0v1.41l1.41-1.41zm8.215 0L14.4 11h6.222V9.395zm-3.208 3.208-1.604 1.604h9.431v-1.604zm-4.812 4.812L6.38 19.02h14.24v-1.604H7.98z" transform="translate(-1.568 -1.571)scale(1.14283)"/></svg>