<svg version="1.1" viewBox="0 0 22 22" xmlns="http://www.w3.org/2000/svg">
 <defs>
  <linearGradient id="a" y1="1">
   <stop stop-color="#00ffc6" offset="0"/>
   <stop stop-color="#00a0ff" offset="1"/>
  </linearGradient>
 </defs>
 <path transform="translate(5e-6) scale(1) translate(-.000312 -.00026) scale(.9998) translate(-.00049 -.001112) scale(1) translate(-1.334 -1.334) scale(1.542)" d="M7.225.866 6.066 2.025l.813.813L5.731 6.24l-4.525.128 3.59 2.9-1.283 4.565 2.874-2.073.84.84.594-.594 2.229 1.61-.36.36 1.158 1.16 1.16-1.16-1.16-1.159-.135.135-.748-2.668.834-.835-.426-.426L12.632 7.2l.57.57.44-.439.198.242a.535.535 0 1 0 .199-.156l-.217-.266.54-.539-1.16-1.159-.377.378-.165-.214a.537.537 0 0 0-.036-.714.536.536 0 1 0-.163.869l.183.24-.396.396-2.505-.07L8.616 5.21l-.17.17-.863-2.551.803-.804zm.001.662.497.498-.497.496-.497-.496zm.137 1.52L8.224 5.6l-.77.77.166.166.994.995.922-.922 2.577.073.32.32-2.26 1.823-.534-.535L8.48 9.449l.166.166.993.993.098-.099.75 2.667-.24.24-2.23-1.608.367-.367-1.104-1.104V3.13zm4.88 1.95c.072 0 .145.028.2.084.113.112.113.29 0 .401s-.288.112-.4 0-.112-.289 0-.4a.28.28 0 0 1 .2-.085m-3.63.875.497.498-.495.495-.498-.497zm4.59.242.496.497-.497.497-.497-.497zm1.054 1.503a.284.284 0 1 1 0 0M9.64 8.952l.497.496-.497.498-.497-.498zm-2.414 1.992.497.497-.497.496-.497-.496zm3.621 2.535.497.496-.497.498-.497-.498z" fill="url(#a)"/>
</svg>
