<svg version="1.1" viewBox="0 0 22 22" xmlns="http://www.w3.org/2000/svg">
 <defs>
  <linearGradient id="a" x1="1" x2="0" y1="1">
   <stop stop-color="#fd7900" offset="0"/>
   <stop stop-color="#faff00" offset="1"/>
  </linearGradient>
 </defs>
 <path transform="translate(0) scale(1) translate(0) scale(1) translate(-.00061 .000371) scale(1)" d="M2.682 0Q1.567 0 .784.793a2.63 2.63 0 0 0-.783 1.918v16.6q0 1.115.783 1.898a2.59 2.59 0 0 0 1.898.783h16.6q1.126 0 1.918-.783a2.57 2.57 0 0 0 .793-1.898v-16.6q0-1.125-.793-1.918A2.61 2.61 0 0 0 19.282 0zm0 2.711h3.766v3.736H2.682zm6.447 0h3.709v3.736H9.129zm6.42 0h3.736v3.736h-3.736zM2.679 9.158h3.766v3.709H2.679zm6.447 0h3.709v3.709H9.126zm6.42 0h3.736v3.709h-3.736zm-12.87 6.391h3.766v3.766H2.676zm6.447 0h3.709v3.766H9.123zm6.42 0h3.736v3.766h-3.736z" fill="url(#a)"/>
</svg>
