<svg version="1.1" viewBox="0 0 22 22" xmlns="http://www.w3.org/2000/svg">
 <defs>
  <linearGradient id="a" y2="1">
   <stop stop-color="#fe0844" offset="0"/>
   <stop stop-color="#feb302" offset="1"/>
  </linearGradient>
 </defs>
 <path transform="translate(0 1.2e-5) scale(1) translate(6.8e-5 .001725) scale(.9999) translate(-.2338 -.2338) scale(.4681)" d="m35.95 0.75c-0.4509 0.01023-0.9016 0.1113-1.332 0.3125-1.152 0.5387-1.851 1.658-1.955 2.912-0.0385 0.4626-0.07637 0.9995-0.1094 1.623-0.2729 0.00618-0.5454 0.01073-0.8184 0.01172-3.709 0.00643-7.251 1.879-9.316 4.967-0.017 0.0256-0.03488 0.05183-0.05078 0.07813l-12 19.86c-0.0778 0.1013-0.2006 0.1641-0.334 0.1641h-3.846c-2.2 0-5.105 1.182-5.57 4.252-0.07419 0.4894-0.1191 1.027-0.1191 1.606s0.04495 1.114 0.1191 1.604c0.4653 3.07 3.371 4.252 5.57 4.252h3.846c3.933 0 7.355-2.528 9.309-5.449 0.013-0.0195 0.02481-0.03869 0.03711-0.05859l12.01-19.39c0.0814-0.1094 0.2105-0.1682 0.3457-0.168 0.273 1e-3 0.5454 0.0055 0.8184 0.01172 0.0329 0.6222 0.07097 1.159 0.1094 1.621 0.1043 1.254 0.8028 2.372 1.955 2.91 1.148 0.5366 2.448 0.3593 3.477-0.3457 1.035-0.7097 2.447-1.75 4.283-3.246 1.898-1.547 3.149-2.801 3.973-3.764 1.536-1.796 1.536-4.296 0-6.092-0.8239-0.963-2.075-2.217-3.973-3.764-1.836-1.497-3.25-2.538-4.285-3.248-0.6426-0.4406-1.391-0.6752-2.143-0.6582zm0.6309 4.484c0.8525 0.6126 1.936 1.434 3.27 2.522 1.748 1.425 2.82 2.514 3.461 3.264 0.1556 0.1819 0.1914 0.337 0.1914 0.4453s-0.03591 0.2635-0.1914 0.4453c-0.641 0.7492-1.713 1.839-3.461 3.264-1.334 1.087-2.417 1.909-3.27 2.522-0.0406-0.6479-0.07747-1.426-0.1055-2.354-0.0315-1.043-0.8583-1.885-1.9-1.936-0.8422-0.0412-1.549-0.06187-2.047-0.07227-0.2663-0.0055-0.5344-0.01132-0.8008-0.01172-1.474 0-2.855 0.7358-3.676 1.963-0.013 0.0195-0.02481 0.03869-0.03711 0.05859l-12.01 19.4c-1.456 2.16-3.762 3.646-5.965 3.646h-3.846c-0.5285 0-0.9669-0.1398-1.242-0.3203-0.2438-0.1598-0.3423-0.3302-0.373-0.5332-0.04564-0.3011-0.07422-0.636-0.07422-1.004s0.02858-0.7028 0.07422-1.004c0.03078-0.2031 0.1293-0.3734 0.373-0.5332 0.2753-0.1805 0.7137-0.3203 1.242-0.3203h3.846c1.474 0 2.853-0.7338 3.674-1.961 0.0171-0.0255 0.03293-0.05183 0.04883-0.07813l12.01-19.88c1.335-1.97 3.567-3.154 5.959-3.154 0.267-3.8e-4 0.5339-0.00618 0.8008-0.01172 0.4979-0.01035 1.205-0.02916 2.047-0.07031 1.042-0.05091 1.869-0.8946 1.9-1.938 0.028-0.9283 0.06487-1.707 0.1055-2.356zm-30.39 0.373c-2.2 0-5.105 1.182-5.57 4.252-0.07419 0.4894-0.1191 1.027-0.1191 1.606s0.04495 1.114 0.1191 1.604c0.4653 3.07 3.371 4.252 5.57 4.252h3.846c0.1334 1e-6 0.2562 0.06276 0.334 0.1641l0.4258 0.707c0.5711 0.9455 1.801 1.249 2.746 0.6777 0.9454-0.5711 1.249-1.801 0.6777-2.746l-0.4609-0.7617c-0.0159-0.0263-0.03173-0.05253-0.04883-0.07813-0.8207-1.227-2.199-1.963-3.674-1.963h-3.846c-0.5285 5e-6 -0.9669-0.1398-1.242-0.3203-0.2438-0.1599-0.3423-0.3282-0.373-0.5312-0.04564-0.301-0.07422-0.6361-0.07422-1.004s0.02858-0.7049 0.07422-1.006c0.03078-0.2031 0.1293-0.3714 0.373-0.5312 0.2753-0.1805 0.7137-0.3203 1.242-0.3203h3.846c1.878 0 3.656 0.7306 4.98 1.998 0.798 0.7638 2.064 0.7355 2.828-0.0625 0.7637-0.7981 0.7355-2.064-0.0625-2.828-2.062-1.973-4.828-3.107-7.746-3.107zm29.76 20.21c-0.4509 0.01021-0.9016 0.1113-1.332 0.3125-1.152 0.5387-1.851 1.658-1.955 2.912-0.0384 0.4619-0.07648 0.9989-0.1094 1.621l-0.1094 2e-3c-0.2333 0.0048-0.4163 0.0066-0.5391 0.0078-0.0613 6e-4 -0.1064 0.0019-0.1367 2e-3h-0.043c-0.1426-1e-4 -0.2733-0.07145-0.3496-0.1856-0.6141-0.9181-1.855-1.165-2.773-0.5508-0.9182 0.6141-1.165 1.855-0.5508 2.773 0.8206 1.227 2.201 1.963 3.676 1.963h0.0586c0.0367-2e-4 0.09-0.0013 0.1582-2e-3 0.1365-0.0013 0.3349-0.0046 0.584-0.0098 0.4981-0.0103 1.204-0.02921 2.047-0.07031 1.042-0.051 1.869-0.8946 1.9-1.938 0.028-0.9271 0.06487-1.706 0.1055-2.354 0.8525 0.6126 1.936 1.434 3.27 2.522 1.748 1.425 2.82 2.514 3.461 3.264 0.1556 0.1818 0.1914 0.337 0.1914 0.4453s-0.03581 0.2635-0.1914 0.4453c-0.641 0.7493-1.713 1.839-3.461 3.264-1.334 1.087-2.417 1.909-3.27 2.522-0.0406-0.6485-0.07747-1.427-0.1055-2.356-0.0326-1.081-0.917-1.94-1.998-1.94-0.7671 0-1.426-0.01801-1.893-0.03711-0.2328-0.0096-0.4174-0.02034-0.541-0.02734-0.0617-0.0035-0.1084-0.0059-0.1387-0.0078l-0.0332-2e-3h-0.0059c-0.0463-0.0032-0.09433-0.0059-0.1406-0.0059-1.998 0-3.883-0.8257-5.228-2.246-0.7596-0.8019-2.026-0.8358-2.828-0.07617-0.8019 0.7596-0.8358 2.024-0.07617 2.826 2.08 2.196 4.986 3.477 8.064 3.496 0.0386 0.0024 0.09421 6e-3 0.1621 0.0098 0.1423 0.0081 0.3466 0.0188 0.6016 0.0293l0.1348 0.0059c0.0325 0.61 0.06962 1.137 0.1074 1.592 0.1043 1.254 0.8029 2.371 1.955 2.91 1.148 0.5366 2.446 0.3592 3.475-0.3457 1.035-0.7097 2.449-1.749 4.285-3.246 1.898-1.547 3.149-2.801 3.973-3.764 1.536-1.796 1.536-4.298 0-6.094-0.824-0.9631-2.075-2.215-3.973-3.762-1.836-1.496-3.248-2.538-4.283-3.248-0.6427-0.4406-1.393-0.6752-2.144-0.6582z" fill="url(#a)"/>
 <desc>Shuffle Streamline Icon: https://streamlinehq.com</desc>
</svg>
