<svg version="1.1" viewBox="0 0 22 22" xmlns="http://www.w3.org/2000/svg">
 <defs>
  <linearGradient id="a" x1="13.47" x2="13.47" y1="12.96" y2="4.993" gradientTransform="scale(.8162 1.225)" gradientUnits="userSpaceOnUse">
   <stop stop-color="#00f0ff" offset="0"/>
   <stop stop-color="#00c3ff" offset="1"/>
  </linearGradient>
  <linearGradient id="b" x1="-.0005965" x2="22" y1="22" y2="-5.494e-5" gradientTransform="scale(1)" gradientUnits="userSpaceOnUse">
   <stop stop-color="#007bf6" offset="0"/>
   <stop stop-color="#d60cff" offset=".5"/>
   <stop stop-color="#ff167a" offset="1"/>
  </linearGradient>
 </defs>
 <g transform="translate(-.001499 1e-6) scale(.9999) matrix(-1 0 0 1 22 0)">
  <path transform="matrix(.9999 0 0 .9999 .002096 .000104)" d="m11 0c-2.299 0-4.048-0.00776-5.516 0.1894-1.472 0.198-2.734 0.6498-3.69 1.606-0.9547 0.9547-1.407 2.217-1.607 3.69-0.198 1.467-0.1875 3.219-0.1875 5.516 0 2.299-0.009781 4.048 0.1875 5.516 0.198 1.472 0.652 2.733 1.607 3.688 0.9544 0.9544 2.217 1.408 3.69 1.607 1.467 0.1972 3.219 0.1914 5.516 0.1914 2.299 0 4.048 0.0058 5.516-0.1914 1.473-0.1981 2.734-0.6534 3.69-1.607 0.9542-0.9542 1.406-2.214 1.606-3.688 0.1972-1.467 0.1914-3.219 0.1914-5.516 0-2.299 0.0058-4.048-0.1914-5.516-0.198-1.473-0.651-2.736-1.606-3.69-0.9544-0.9544-2.216-1.406-3.69-1.606-1.467-0.198-3.219-0.1894-5.516-0.1894zm0 2.496c2.298 0 3.998 0.00686 5.182 0.166 1.19 0.16 1.774 0.4135 2.256 0.8965 0.4836 0.4836 0.7382 1.065 0.8984 2.256 0.1592 1.183 0.166 2.886 0.166 5.184s-0.0068 4-0.166 5.184c-0.1601 1.191-0.4154 1.774-0.8984 2.256-0.484 0.4836-1.065 0.7362-2.256 0.8965-1.184 0.1594-2.884 0.166-5.182 0.166-0.6738 0-1.257-0.0012-1.83-0.0059v-16.99c0.5726-0.00466 1.157-0.00781 1.83-0.00781zm-4.326 0.0918v16.81c-0.2951-0.02144-0.6076-0.03699-0.8555-0.07031-1.19-0.16-1.774-0.4155-2.256-0.8984-0.4836-0.4836-0.7362-1.063-0.8965-2.254-0.1592-1.183-0.168-2.888-0.168-5.186s0.00879-3.998 0.168-5.182c0.1601-1.191 0.4133-1.776 0.8965-2.258 0.4836-0.4836 1.063-0.7362 2.254-0.8965 0.2482-0.0334 0.5616-0.04888 0.8574-0.07031z" fill="url(#b)"/>
  <path transform="matrix(.9999 0 0 .9999 .002096 .000104)" d="m12.62 6.117a1.626 1.626 0 0 0-1.148 0.4785 1.626 1.626 0 0 0 0 2.297l2.104 2.104-2.104 2.106a1.626 1.626 0 0 0 0 2.301 1.626 1.626 0 0 0 2.301 0l3.25-3.254a1.626 1.626 0 0 0 0-2.301l-3.25-3.248a1.626 1.626 0 0 0-1.148-0.4785v-0.00195z" fill="url(#a)"/>
 </g>
</svg>
