<svg version="1.1" viewBox="0 0 22 22" xmlns="http://www.w3.org/2000/svg">
 <defs>
  <linearGradient id="b" x1="13.48" x2="13.48" y1="4.992" y2="12.96" gradientTransform="matrix(-.8162 0 0 1.225 22 .000104)" gradientUnits="userSpaceOnUse">
   <stop stop-color="#f0f" offset="0"/>
   <stop stop-color="#ff0080" offset="1"/>
  </linearGradient>
  <linearGradient id="a" x1="22" x2="-.0005965" y1="11" y2="11" gradientTransform="matrix(-.9999 0 0 .9999 22 .000104)" gradientUnits="userSpaceOnUse">
   <stop stop-color="#e6ff00" offset="0"/>
   <stop stop-color="#dcba14" offset="1"/>
  </linearGradient>
 </defs>
 <path transform="translate(-.001499 1e-6) scale(.9999)" d="m11 1.04e-4c2.299 0 4.048-0.007759 5.515 0.1894 1.472 0.198 2.734 0.6497 3.69 1.606 0.9546 0.9546 1.407 2.217 1.607 3.69 0.198 1.467 0.1875 3.219 0.1875 5.515 0 2.299 0.0098 4.048-0.1875 5.515-0.198 1.472-0.6519 2.733-1.607 3.688-0.9543 0.9543-2.217 1.408-3.69 1.607-1.467 0.1972-3.219 0.1914-5.515 0.1914-2.299 0-4.048 0.0058-5.515-0.1914-1.473-0.1981-2.734-0.6533-3.69-1.607-0.9541-0.9541-1.406-2.214-1.606-3.688-0.1972-1.467-0.1914-3.219-0.1914-5.515 0-2.299-0.005799-4.048 0.1914-5.515 0.198-1.473 0.6509-2.736 1.606-3.69 0.9543-0.9543 2.216-1.406 3.69-1.606 1.467-0.198 3.219-0.1894 5.515-0.1894zm0 2.496c-2.298 0-3.998 0.00686-5.181 0.166-1.19 0.16-1.774 0.4135-2.256 0.8964-0.4836 0.4836-0.7381 1.065-0.8983 2.256-0.1592 1.183-0.166 2.886-0.166 5.183s0.0068 4 0.166 5.183c0.1601 1.191 0.4154 1.774 0.8983 2.256 0.484 0.4836 1.065 0.7361 2.256 0.8964 1.184 0.1594 2.884 0.166 5.181 0.166 0.6737 0 1.257-0.0012 1.83-0.0059v-16.99c-0.5725-0.00466-1.157-0.00781-1.83-0.00781zm4.326 0.09179v16.81c0.2951-0.02144 0.6075-0.03699 0.8554-0.0703 1.19-0.16 1.774-0.4155 2.256-0.8983 0.4836-0.4836 0.7361-1.063 0.8964-2.254 0.1592-1.183 0.168-2.888 0.168-5.185 0-2.298-0.0087-3.998-0.168-5.181-0.1601-1.191-0.4133-1.776-0.8964-2.258-0.4836-0.4836-1.063-0.7361-2.254-0.8964-0.2482-0.0334-0.5615-0.04888-0.8573-0.0703z" fill="url(#a)" stroke-width=".9999"/>
 <path transform="translate(-.001499 1e-6) scale(.9999)" d="m6.124 6.116 2e-3 0.00195v0.00195a1.626 1.626 0 0 1 1.15 0.4785l3.25 3.248a1.626 1.626 0 0 1 0 2.301l-3.25 3.254a1.626 1.626 0 0 1-2.301 0 1.626 1.626 0 0 1 0-2.301l2.104-2.106-2.104-2.104a1.626 1.626 0 0 1 0-2.297 1.626 1.626 0 0 1 1.148-0.4785z" fill="url(#b)" stroke-width=".9999"/>
</svg>
