<svg xmlns="http://www.w3.org/2000/svg" viewBox="0 0 22 22"><g stroke-width="1.117"><path fill="red" d="M10.621 18.71a1.69 1.69 0 0 1-.515-1.242q0-.73.515-1.257t1.228-.527h8.409q.712 0 1.228.524.515.524.515 1.262 0 .717-.515 1.234a1.67 1.67 0 0 1-1.228.518h-8.41q-.712 0-1.227-.513z"/><path fill="#0f0" d="M1.743 10.521q-.712 0-1.227-.514A1.69 1.69 0 0 1 0 8.767q0-.731.516-1.258.515-.526 1.227-.527h2.461V4.574q0-.735.487-1.264.487-.53 1.247-.53.739 0 1.271.53.533.53.533 1.264v2.408h2.41q.713 0 1.228.524t.515 1.262q0 .717-.515 1.234a1.67 1.67 0 0 1-1.227.518H7.742v2.41q0 .734-.513 1.263-.512.53-1.272.53c-.76 0-.926-.177-1.257-.53a1.78 1.78 0 0 1-.496-1.264V10.52z"/></g></svg>