<svg xmlns="http://www.w3.org/2000/svg" fill="none" stroke-width="1.5" aria-hidden="true" data-slot="icon" viewBox="0 0 22 22"><defs><linearGradient id="a" x2="0" y2="1"><stop offset="0" stop-color="#fbff23"/><stop offset="1" stop-color="#ff2f2f"/></linearGradient></defs><path fill="url(#a)" d="M4.5 3.75c-1.648 0-3 1.352-3 3v10.5c0 1.648 1.352 3 3 3h15c1.648 0 3-1.352 3-3V6.75c0-1.648-1.352-3-3-3zm0 1.5h15c.837 0 1.5.663 1.5 1.5v.75H3v-.75c0-.837.663-1.5 1.5-1.5M3 9.75h18v7.5c0 .837-.663 1.5-1.5 1.5h-15c-.837 0-1.5-.663-1.5-1.5zm2.25 3.75a.75.75 0 0 0-.75.75.75.75 0 0 0 .75.75h6a.75.75 0 0 0 .75-.75.75.75 0 0 0-.75-.75zm0 2.25a.75.75 0 0 0-.75.75.75.75 0 0 0 .75.75h3A.75.75 0 0 0 9 16.5a.75.75 0 0 0-.75-.75z" transform="translate(-1.571 -1.571)scale(1.04756)"/></svg>