<svg version="1.1" viewBox="0 0 22 22" xmlns="http://www.w3.org/2000/svg">
 <defs>
  <linearGradient id="a" x1="1" x2="0" y1=".5" y2=".5">
   <stop stop-color="#fe0844" offset="0"/>
   <stop stop-color="#fee502" offset="1"/>
  </linearGradient>
 </defs>
 <g transform="translate(0) scale(1) translate(0) scale(1) translate(.000789 -.000219) scale(1) translate(-1.224 -1.223) scale(1.111)" fill="url(#a)" stroke-width="1.238">
  <path d="M17.61 4.291 15.39 7.39l1.034.74 2.218-3.1zm-2.96 4.131-2.218 3.099 1.032.74 2.22-3.1zm-2.957 4.131-2.218 3.099 1.032.74 2.218-3.1zm-2.957 4.133-2.218 3.096 1.032.74 2.218-3.097z"/>
  <path d="m11.09 1.479-.288.573-2.796 5.545-6.905.925 5.052 4.748-.831 5.997 8.699-11.74-2.929-6.045zm-.012 1.431 2.202 4.544-6.99 9.436.537-3.858-4.32-4.06 5.915-.79zm6.809 5.303-.106.145-6.325 8.638 5.779 3.268-1.238-6.944L20.9 8.496z"/>
 </g>
</svg>
