<svg xmlns="http://www.w3.org/2000/svg" viewBox="0 0 22 22"><g stroke-width=".021"><path fill="#ff0" d="M10.011 1.484q-2.08 0-3.91.788a10.1 10.1 0 0 0-3.186 2.144A10 10 0 0 0 .78 7.597Q0 9.421 0 11.513c0 2.092.26 2.7.778 3.911a10.03 10.03 0 0 0 5.329 5.327q1.82.778 3.913.777 2.094 0 3.916-.781c1.822-.781 2.273-1.23 3.177-2.133a10.1 10.1 0 0 0 2.144-3.188 9.8 9.8 0 0 0 .788-3.908q0-.43-.06-.84a9 9 0 0 0-.153-.81q-.094-.517-.467-.752-.372-.236-.753-.165-.402.063-.722.373t-.271.85q.117.306.152.652t.036.692q0 3.262-2.274 5.53-2.272 2.265-5.523 2.265T4.488 17.04q-2.274-2.273-2.275-5.538c0-3.265.757-4.02 2.27-5.525q2.27-2.256 5.527-2.256.59 0 1.144.089c.554.089.725.156 1.07.289q.495.165.848-.107.352-.27.447-.67a1.3 1.3 0 0 0-.083-.818q-.175-.408-.763-.55a11 11 0 0 0-1.303-.34 7 7 0 0 0-1.36-.13zm-3.296 6.1q-.578 0-.996.419c-.418.419-.42.609-.42.993s.141.718.42.996q.417.42 1.007.42.564 0 .972-.417c.408-.417.405-.608.405-.994s-.134-.72-.403-.998a1.32 1.32 0 0 0-.985-.42zm6.581 0q-.565.001-.972.416c-.407.415-.406.608-.406.994s.137.72.406.998q.405.42.985.42.576 0 .994-.42c.418-.42.419-.61.419-.996s-.14-.715-.419-.993-.614-.42-1.007-.42zm-7.176 5.77q-.349 0-.525.26-.175.258-.01.555a4.96 4.96 0 0 0 1.86 1.836q1.177.67 2.556.67 1.406 0 2.582-.66c1.176-.66 1.407-1.047 1.878-1.823a.54.54 0 0 0-.039-.568.59.59 0 0 0-.523-.272H6.12z"/><path fill="#0f0" d="M17.377 5.087h-1.272q-.465 0-.786-.322t-.321-.789.321-.785q.32-.318.786-.318h1.272V1.601q0-.462.322-.796t.79-.334.784.334.318.796v1.272h1.272q.462 0 .796.323.335.322.335.789 0 .466-.335.784-.334.318-.796.318h-1.272V6.36q0 .466-.322.786-.322.321-.79.321-.466 0-.784-.32-.318-.321-.318-.787z"/></g></svg>