<svg version="1.1" viewBox="0 0 22 22" xmlns="http://www.w3.org/2000/svg">
 <path transform="translate(-0) scale(1) translate(-0) scale(1) translate(.000458 .000298) scale(1)" d="M0 2.683Q0 1.568.785.785A2.59 2.59 0 0 1 2.682 0h3.31q.562 0 .952.39.388.39.388.956t-.388.95q-.39.386-.953.386H2.682v3.309q0 .563-.39.952-.39.39-.956.389-.565 0-.95-.389A1.3 1.3 0 0 1 0 5.992zm2.682 16.602h2.135v-6.917q0-1.146.78-1.926c.524-.52 1.162-.78 1.926-.78h6.92q1.148 0 1.926.78c.524.52.78 1.162.78 1.926v6.917h2.135v-3.309q0-.563.39-.952.39-.388.953-.388t.965.388.402.952v3.31q0 1.126-.792 1.917c-.792.791-1.168.793-1.918.793H2.683a2.57 2.57 0 0 1-1.898-.793A2.63 2.63 0 0 1 0 19.285v-3.309q0-.563.39-.952.391-.388.956-.388.566 0 .95.388a1.3 1.3 0 0 1 .386.952zM.001 10.978q0-.565.393-.95.4-.385.947-.385c.36 0 .68.13.942.39q.401.39.4.956c-.002.566-.132.693-.4.95s-.588.385-.959.385q-.55 0-.935-.39c-.385-.39-.388-.578-.388-.956m9.642-5.02q0-.55.394-.943.386-.393.952-.393c.566 0 .696.133.953.401s.382.586.382.956-.13.687-.388.954q-.393.399-.958.399c-.565 0-.69-.135-.947-.406s-.388-.594-.388-.968m0-4.633q0-.555.394-.94.386-.385.952-.385c.566 0 .696.132.953.395s.382.578.382.942-.13.679-.388.945q-.393.4-.958.4c-.565 0-.69-.134-.947-.402s-.388-.585-.388-.955m9.642 9.653q.002-.565.405-.95.396-.385.953-.385c.557 0 .69.13.953.39q.401.39.4.956c-.002.566-.138.693-.406.95s-.593.385-.97.385q-.548 0-.941-.39c-.393-.39-.394-.578-.394-.956M15.975.001h3.31q1.126 0 1.918.784c.792.784.792 1.155.792 1.898v3.309q0 .563-.407.952a1.36 1.36 0 0 1-.97.389q-.562 0-.948-.389a1.3 1.3 0 0 1-.385-.952v-3.31h-3.31q-.563 0-.951-.39a1.3 1.3 0 0 1-.389-.955q0-.566.389-.95A1.3 1.3 0 0 1 15.976 0m-1.34 5.957q0-.55.393-.943.387-.393.953-.393c.566 0 .696.133.953.401q.384.402.382.956c-.002.554-.13.687-.388.954q-.394.399-.958.399c-.564 0-.69-.135-.947-.406a1.36 1.36 0 0 1-.388-.968m-9.984 0q0-.55.393-.943.386-.393.953-.393c.567 0 .696.133.953.401q.384.402.382.956c-.002.554-.131.687-.388.954q-.393.399-.958.399c-.565 0-.691-.135-.947-.406a1.36 1.36 0 0 1-.388-.968m2.872 6.41v6.917h6.92v-6.917z" fill="#0f0"/>
</svg>
