<svg version="1.1" viewBox="0 0 22 22" xmlns="http://www.w3.org/2000/svg">
 <path transform="translate(7.5e-5 .000126) scale(.9999) translate(-2.154 -2.154) scale(.5481)" d="m9.24 3.93c-2.862 0-5.174 2.314-5.174 5.17 0 2.855 2.312 5.172 5.174 5.172 1.712 0 3.23-0.8351 4.17-2.119 2.254 0.439 4.413 1.148 6.477 2.129 1.094 0.52 2.142 1.096 3.144 1.728-0.564 0.303-1.091 0.6985-1.58 1.188l-0.01367 0.01563c-0.4 0.401-0.7455 0.837-1.02 1.291-0.611 1.002-0.9092 2.117-0.9062 3.361 8e-3 1.808 0.66 3.359 1.957 4.656l0.0098 0.0098c1.298 1.298 2.85 1.95 4.658 1.959 1.047 4e-3 2.012-0.2134 2.891-0.6484 0.631-0.311 1.217-0.7363 1.76-1.279l0.02147-0.02147c0.489-0.489 0.8864-1.016 1.19-1.58 0.606 0.956 1.16 1.955 1.664 2.996 1.022 2.113 1.761 4.33 2.217 6.652-1.379 0.928-2.285 2.503-2.285 4.287 0 2.863 2.316 5.174 5.17 5.174 2.856 0 5.17-2.311 5.17-5.174 0-2.147-1.312-3.989-3.18-4.768-0.507-2.832-1.365-5.54-2.574-8.127-0.841-1.8-1.814-3.492-2.918-5.076 0.38-0.104 0.7466-0.244 1.1-0.418 0.631-0.311 1.217-0.7363 1.76-1.279l0.0078-0.0078c7e-3 -7e-3 0.0076-0.0067 0.01563-0.01367 1.291-1.292 1.935-2.846 1.932-4.66-2e-3 -1.816-0.6561-3.37-1.955-4.668-1.298-1.298-2.859-1.945-4.674-1.947-1.816-3e-3 -3.37 0.6396-4.662 1.932l-0.01367 0.01562c-0.4 0.401-0.7455 0.837-1.02 1.291-0.303 0.497-0.5297 1.021-0.6797 1.576-1.502-1.049-3.099-1.98-4.793-2.795-2.599-1.25-5.334-2.141-8.203-2.67-0.735-1.959-2.623-3.352-4.836-3.352zm24.21 7.928c0.097-3e-3 0.1902 0.0027 0.2832 0.01172 0.781 0.081 1.468 0.4985 1.904 1.106 0.322 0.437 0.5089 0.9803 0.5039 1.572 2e-3 1.388-1.053 2.532-2.41 2.674-0.089 9e-3 -0.1815 0.01767-0.2695 0.01367-0.345-1e-3 -0.6804-0.06459-0.9844-0.1836-0.35-0.136-0.6599-0.3455-0.9199-0.6055-0.486-0.486-0.7871-1.158-0.7871-1.9-4e-3 -1.43 1.122-2.604 2.539-2.686 0.044 1e-3 0.09463-5e-3 0.1406-2e-3zm-7.334 7.334c0.097-2e-3 0.1892 0.0027 0.2832 0.01172 0.544 0.056 1.043 0.2764 1.443 0.6094 0.041 0.04 0.08109 0.07914 0.1211 0.1191 0.075 0.074 0.1487 0.1496 0.2227 0.2246 0.041 0.049 0.07919 0.1003 0.1172 0.1523 0.322 0.437 0.508 0.9812 0.502 1.574 3e-3 1.388-1.051 2.53-2.408 2.672-0.089 9e-3 -0.1815 0.01667-0.2695 0.01367-0.346-2e-3 -0.6804-0.06459-0.9844-0.1836-0.35-0.136-0.6599-0.3445-0.9199-0.6055-0.486-0.486-0.7871-1.158-0.7871-1.9-5e-3 -1.43 1.121-2.604 2.539-2.686 0.044 1e-3 0.09463-4e-3 0.1406-2e-3z" fill="#FF007C"/>
</svg>
