<svg version="1.1" viewBox="0 0 22 22" xmlns="http://www.w3.org/2000/svg">
 <g transform="translate(0) scale(1) translate(0) scale(1) translate(3e-6 3e-6) scale(1)" stroke-width="1.364">
  <path d="M1.106 0a.68.68 0 0 0-.682.682v5.482a.68.68 0 0 0 .682.682h2.052v6.965a.68.68 0 0 0 .682.682.68.68 0 0 0 .682-.682V6.846h2.055a.68.68 0 0 0 .682-.682V.682A.68.68 0 0 0 6.577 0zm.682 1.364h4.107V5.48H1.788zm14.329 10.059v4.093h1.363v-4.093zm1.363 4.093v1.364h4.094v-1.364zm0 1.364h-1.363v4.094h1.363zm-1.363 0v-1.364h-4.094v1.364z" fill="#f0f"/>
  <g fill="#00a2ff">
   <path d="M9.298 12.789 17.484.509M16.92.13l-2.825 4.238a2.4 2.4 0 0 1 1.137.757L18.057.887zm-5.362 8.04-2.825 4.24 1.138.756 2.825-4.237a2.4 2.4 0 0 1-1.138-.76z"/>
   <path d="m15.78 6.648a2.39 2.39 0 0 1-2.388 2.388 2.39 2.39 0 0 1-2.388-2.388 2.39 2.39 0 0 1 2.388-2.387 2.39 2.39 0 0 1 2.387 2.387" opacity=".35"/>
   <path d="M13.39 3.579c-1.688 0-3.07 1.383-3.07 3.07s1.383 3.069 3.07 3.069 3.07-1.383 3.07-3.07-1.384-3.07-3.07-3.07m0 1.364c.95 0 1.705.755 1.705 1.705s-.755 1.706-1.705 1.706-1.706-.755-1.706-1.706.755-1.705 1.706-1.705"/>
   <path d="m8.275 18.93a2.39 2.39 0 0 1-2.388 2.388 2.39 2.39 0 0 1-2.387-2.388 2.39 2.39 0 0 1 2.387-2.388 2.39 2.39 0 0 1 2.388 2.388" opacity=".35"/>
   <path d="M5.888 15.858c-1.687 0-3.07 1.383-3.07 3.07s1.384 3.07 3.07 3.07 3.07-1.383 3.07-3.07-1.383-3.07-3.07-3.07m0 1.364c.95 0 1.706.756 1.706 1.706s-.755 1.706-1.706 1.706c-.95 0-1.705-.756-1.705-1.706s.755-1.706 1.705-1.706"/>
  </g>
 </g>
</svg>
