<svg version="1.1" viewBox="0 0 22 22" xmlns="http://www.w3.org/2000/svg">
 <path transform="translate(.000815 -.00015) scale(1) translate(-.4075 -.4072) scale(1.63)" d="m7 1.035c-1.01 0-1.99 0.09293-2.932 0.1992a0.5 0.5 0 0 0-0.00195 0c-0.331 0.03841-0.6513 0.127-0.9512 0.2617a0.5 0.5 0 0 0-0.252 0.6621 0.5 0.5 0 0 0 0.6621 0.25c0.2065-0.09282 0.4265-0.155 0.6543-0.1816 0.9289-0.1048 1.871-0.1914 2.82-0.1914 0.9492 0 1.892 0.08823 2.822 0.1914 0.2271 0.02675 0.4483 0.08906 0.6543 0.1816a0.5 0.5 0 0 0 0.6602-0.252 0.5 0.5 0 0 0-0.25-0.6602c-0.2999-0.1348-0.6222-0.2253-0.9531-0.2637a0.5 0.5 0 0 0-0.00195 0c-0.9418-0.1044-1.921-0.1973-2.932-0.1973zm-5.045 1.797a0.5 0.5 0 0 0-0.4707 0.2969c-0.1379 0.3068-0.2275 0.6336-0.2656 0.9727a0.5 0.5 0 0 0 0 0.00391c-0.1004 0.9406-0.1875 1.919-0.1875 2.928s0.08706 1.986 0.1875 2.928a0.5 0.5 0 0 0 0 0.00195c0.03498 0.3115 0.1148 0.6135 0.2344 0.8984a0.5 0.5 0 0 0 0.6543 0.2676 0.5 0.5 0 0 0 0.2676-0.6543c-0.08266-0.1971-0.1377-0.4055-0.1621-0.6211v-0.00195c-0.09897-0.9279-0.1816-1.868-0.1816-2.818s0.08277-1.892 0.1816-2.818v-0.00391c0.02669-0.2341 0.08846-0.4622 0.1836-0.6738a0.5 0.5 0 0 0-0.25-0.6602 0.5 0.5 0 0 0-0.1914-0.04492zm10.09 0.00195a0.5 0.5 0 0 0-0.1894 0.04297 0.5 0.5 0 0 0-0.252 0.6602c0.09546 0.2125 0.1592 0.4406 0.1856 0.6758 0.09902 0.9288 0.1797 1.871 0.1797 2.82 0 0.9497-0.08067 1.89-0.1797 2.818-0.02425 0.2162-0.0792 0.4254-0.1621 0.623a0.5 0.5 0 0 0 0.2676 0.6543 0.5 0.5 0 0 0 0.6543-0.2676c0.1195-0.2849 0.1994-0.5869 0.2344-0.8984a0.5 0.5 0 0 0 0-0.00195c0.1005-0.9415 0.1856-1.92 0.1856-2.928s-0.08506-1.987-0.1856-2.93a0.5 0.5 0 0 0 0-0.00195c-0.03801-0.3387-0.1298-0.6661-0.2676-0.9727a0.5 0.5 0 0 0-0.4707-0.2949zm-1.377 8.777a0.5 0.5 0 0 0-0.1894 0.04492c-0.2081 0.0939-0.4306 0.155-0.6602 0.1816-0.9283 0.1047-1.87 0.1914-2.818 0.1914s-1.889-0.08672-2.818-0.1914h-0.00195c-0.2289-0.02675-0.4508-0.08803-0.6582-0.1816a0.5 0.5 0 0 0-0.6602 0.25 0.5 0.5 0 0 0 0.25 0.6602c0.3012 0.1359 0.6225 0.227 0.9551 0.2656a0.5 0.5 0 0 0 0.00195 0c0.9427 0.1062 1.921 0.1973 2.932 0.1973s1.992-0.09103 2.934-0.1973c0.3326-0.03857 0.6559-0.1297 0.957-0.2656a0.5 0.5 0 0 0 0.25-0.6602 0.5 0.5 0 0 0-0.4727-0.2949z" fill="#FF8000"/>
 <path transform="translate(.000815 -.00015) scale(1) translate(-.4075 -.4072) scale(1.63)" d="m2.035 0.25c-0.5057 0-0.9755 0.1534-1.305 0.4844-0.3292 0.3309-0.4805 0.8017-0.4805 1.309 0 0.5069 0.1512 0.9777 0.4805 1.309s0.799 0.4844 1.305 0.4844c0.5057 0 0.9774-0.1534 1.307-0.4844s0.4805-0.8017 0.4805-1.309-0.1512-0.9777-0.4805-1.309-0.8009-0.4844-1.307-0.4844zm0 1c0.3172 0 0.4897 0.08093 0.5977 0.1894 0.108 0.1085 0.1894 0.2832 0.1894 0.6035 0 0.3204-0.08149 0.495-0.1894 0.6035-0.108 0.1085-0.2804 0.1894-0.5977 0.1894s-0.4877-0.08093-0.5957-0.1894c-0.108-0.1085-0.1894-0.2832-0.1894-0.6035s0.08149-0.495 0.1894-0.6035 0.2785-0.1894 0.5957-0.1894z" fill="#FF8000"/>
 <path transform="translate(.000815 -.00015) scale(1) translate(-.4075 -.4072) scale(1.63)" d="m11.96 0.25c-0.5057 0-0.9774 0.1534-1.307 0.4844-0.3292 0.3309-0.4805 0.8017-0.4805 1.309 0 0.5069 0.1512 0.9777 0.4805 1.309s0.8009 0.4844 1.307 0.4844 0.9755-0.1534 1.305-0.4844 0.4805-0.8017 0.4805-1.309-0.1513-0.9777-0.4805-1.309-0.799-0.4844-1.305-0.4844zm0 1c0.3172 0 0.4877 0.08093 0.5957 0.1894 0.108 0.1085 0.1894 0.2832 0.1894 0.6035 0 0.3204-0.08149 0.495-0.1894 0.6035s-0.2785 0.1894-0.5957 0.1894c-0.3173 0-0.4897-0.08093-0.5977-0.1894-0.108-0.1085-0.1894-0.2832-0.1894-0.6035s0.08149-0.495 0.1894-0.6035c0.108-0.1085 0.2804-0.1894 0.5977-0.1894z" fill="#FF8000"/>
 <path transform="translate(.000815 -.00015) scale(1) translate(-.4075 -.4072) scale(1.63)" d="m2.035 10.16c-0.5057 0-0.9755 0.1534-1.305 0.4844-0.3292 0.331-0.4805 0.8017-0.4805 1.309s0.1512 0.9796 0.4805 1.31c0.3292 0.3309 0.799 0.4824 1.305 0.4824 0.5057 0 0.9774-0.1515 1.307-0.4824s0.4805-0.8037 0.4805-1.31c0-0.5069-0.1513-0.9776-0.4805-1.309-0.3292-0.331-0.8009-0.4844-1.307-0.4844zm0 1c0.3172 0 0.4897 0.08091 0.5977 0.1894 0.108 0.1086 0.1894 0.2832 0.1894 0.6035s-0.08149 0.495-0.1894 0.6035c-0.108 0.1085-0.2804 0.1894-0.5977 0.1894s-0.4877-0.08093-0.5957-0.1894-0.1894-0.2832-0.1894-0.6035 0.08148-0.495 0.1894-0.6035c0.108-0.1086 0.2785-0.1894 0.5957-0.1894z" fill="#FF8000"/>
 <path transform="translate(.000815 -.00015) scale(1) translate(-.4075 -.4072) scale(1.63)" d="m11.96 10.16c-0.5058 0-0.9774 0.1534-1.307 0.4844-0.3292 0.331-0.4805 0.8017-0.4805 1.309s0.1512 0.9796 0.4805 1.31c0.3292 0.3309 0.8009 0.4824 1.307 0.4824s0.9755-0.1515 1.305-0.4824c0.3292-0.3309 0.4805-0.8037 0.4805-1.31 0-0.5069-0.1513-0.9776-0.4805-1.309-0.3292-0.331-0.799-0.4844-1.305-0.4844zm0 1c0.3172 0 0.4877 0.08091 0.5957 0.1894 0.108 0.1086 0.1894 0.2832 0.1894 0.6035s-0.08149 0.495-0.1894 0.6035c-0.108 0.1085-0.2785 0.1894-0.5957 0.1894-0.3173 0-0.4897-0.08093-0.5977-0.1894s-0.1894-0.2832-0.1894-0.6035 0.08148-0.495 0.1894-0.6035c0.108-0.1086 0.2804-0.1894 0.5977-0.1894z" fill="#FF8000"/>
 <desc>Align Selection Streamline Icon: https://streamlinehq.com</desc>
</svg>
