<svg version="1.1" viewBox="0 0 22 22" xmlns="http://www.w3.org/2000/svg">
 <path transform="translate(0) scale(1) translate(0) scale(1) translate(0) scale(1)" d="M6.875 0a5.045 5.045 0 0 0-5.04 5.04v11.92A5.045 5.045 0 0 0 6.875 22h8.25a5.045 5.045 0 0 0 5.04-5.04v-9.7a5.01 5.01 0 0 0-1.458-3.544l-2.191-2.217A5.08 5.08 0 0 0 12.93.003zm0 2.752h5.04v3.664c0 1.013.821 1.833 1.833 1.833h3.667v8.708a2.29 2.29 0 0 1-2.29 2.29h-8.25a2.29 2.29 0 0 1-2.29-2.29V5.047a2.29 2.29 0 0 1 2.29-2.29z" fill="#00b2ff"/>
</svg>
