<svg xmlns="http://www.w3.org/2000/svg" viewBox="0 0 22 22"><path fill="#f0f" d="M10.977 2.713q-.566-.002-.95-.405-.386-.395-.386-.953c0-.558.13-.69.39-.953q.39-.401.956-.4c.566.002.694.137.95.406s.386.593.386.97q0 .548-.39.941c-.39.393-.58.394-.956.394m-9.654 9.642q-.555 0-.94-.394-.384-.387-.385-.953c0-.566.132-.696.396-.952s.577-.383.941-.383.68.131.946.388q.399.394.399.959c0 .565-.134.69-.401.947s-.586.388-.956.388m19.296 0q-.549 0-.943-.394-.392-.387-.393-.953c0-.566.134-.696.401-.952s.586-.383.956-.383.688.131.954.388q.4.394.4.959c0 .565-.136.69-.407.947s-.593.388-.968.388m-9.642 9.642q-.566 0-.95-.394a1.32 1.32 0 0 1-.386-.947c0-.36.13-.679.39-.941q.39-.401.956-.4c.566.001.694.132.95.4s.386.587.386.958c0 .365-.13.68-.39.936s-.58.388-.956.388M7.53 17.176q-1.147-.002-1.929-.782c-.52-.525-.781-1.164-.781-1.928V7.534q0-1.149.781-1.929c.521-.525 1.164-.781 1.929-.781h6.932c.764 0 1.407.256 1.929.781q.78.78.78 1.929v6.932c0 .764-.26 1.403-.78 1.928q-.783.781-1.93.782zm.545-3.235h5.814V8.09H8.076z"/></svg>