<svg version="1.1" viewBox="0 0 22 22" xmlns="http://www.w3.org/2000/svg">
 <defs>
  <linearGradient id="a" x2="0" y1="1">
   <stop stop-color="#0cf" offset="0"/>
   <stop stop-color="#cd87de" offset=".5"/>
   <stop stop-color="#fca" offset="1"/>
  </linearGradient>
  <linearGradient id="b" x1="1" x2="0" y1=".5" y2=".5">
   <stop stop-color="#3dd425" offset="0"/>
   <stop stop-color="#59f07c" offset="1"/>
  </linearGradient>
 </defs>
 <path transform="translate(-.000752 -.002071) scale(1) translate(.001962 .00122)" d="m16.65 5.651c-1.214 0-2.287 0.3682-3.217 1.102-0.864 0.682-1.475 1.571-1.836 2.666h-3.062c-0.4553 0.001333-0.8322 0.1486-1.131 0.4453-0.2987 0.2947-0.4492 0.6585-0.4492 1.092a1.5 1.5 0 0 0 0.4492 1.106c0.299 0.302 0.6759 0.4473 1.131 0.4473h3.045c0.3587 1.132 0.9775 2.04 1.854 2.723 0.93 0.7253 2.001 1.088 3.215 1.088h2e-3c1.469 0 2.727-0.5186 3.775-1.557 1.046-1.037 1.568-2.29 1.568-3.762 6.66e-4 -1.471-0.5223-2.73-1.57-3.777-1.048-1.047-2.305-1.572-3.773-1.572zm2e-3 2.248c0.87-6.667e-4 1.603 0.3004 2.199 0.9004 0.5967 0.5987 0.8945 1.333 0.8945 2.203 6.66e-4 0.87-0.2984 1.603-0.8984 2.199-0.5987 0.596-1.333 0.8945-2.203 0.8945-0.87 6.67e-4 -1.603-0.3004-2.199-0.9004-0.596-0.5987-0.8945-1.333-0.8945-2.203-6.66e-4 -0.8693 0.2984-1.601 0.8984-2.197 0.5987-0.5967 1.333-0.8965 2.203-0.8965z" fill="url(#b)"/>
 <path transform="translate(-.000752 -.002071) scale(1) translate(.001962 .00122)" d="m3.266 1.346c-0.917 0-1.687 0.3162-2.32 0.9492-0.627 0.634-0.9453 1.416-0.9453 2.328a3.2 3.2 0 0 0 0.334 1.461 4 4 0 0 0 0.2051 0.373 3.14 3.14 0 0 0 1.289 1.154l0.00586 6.652c-0.538 0.268-0.9611 0.6462-1.289 1.156-0.245 0.372-0.4057 0.7895-0.4707 1.23-0.05 0.236-0.07217 0.4726-0.07617 0.7266 0.001333 0.914 0.3172 1.688 0.9492 2.322 0.6267 0.6333 1.4 0.9492 2.318 0.9492 0.921-6e-3 1.693-0.3162 2.32-0.9492 0.641-0.64 0.9629-1.409 0.9629-2.322-0.00267-0.254-0.02879-0.4966-0.07812-0.7266-0.064-0.448-0.22-0.8515-0.457-1.23-0.327-0.516-0.7676-0.8942-1.309-1.156l-0.00195-6.652a3.2 3.2 0 0 0 1.307-1.154h0.00195a4 4 0 0 0 0.2422-0.4531c0.196-0.422 0.291-0.8829 0.291-1.379 5e-3 -0.92-0.321-1.69-0.957-2.33-0.632-0.627-1.406-0.9492-2.322-0.9492z" fill="url(#a)"/>
</svg>
