<svg version="1.1" viewBox="0 0 22 22" xmlns="http://www.w3.org/2000/svg">
 <defs>
  <style>.ColorScheme-Text { color:#ebdbb2; } .ColorScheme-Highlight { color:#458588; }</style>
  <linearGradient id="a" x1="1" x2="0" y1="1">
   <stop stop-color="#fd5" offset="0"/>
   <stop stop-color="#ff80e5" offset=".5"/>
   <stop stop-color="#0cf" offset="1"/>
  </linearGradient>
 </defs>
 <path transform="translate(-.000336 -.000163) scale(1) translate(.4769 .4776) scale(.9566)" d="m6.875 0.1875c-3.138 0-5.634 2.431-5.9 5.5h-0.9746a0.5 0.5 0 0 0-0.4453 0.7246l2.076 4.127a0.5 0.5 0 0 0 0.8926-0.0039l2.051-4.125a0.5 0.5 0 0 0-0.4492-0.7227h-0.5293c0.5242-1.761 1.98-3.125 3.922-3.125h2.107a0.5 0.5 0 0 0 0.5-0.5v-1.375a0.5 0.5 0 0 0-0.5-0.5zm6.875 0a0.5 0.5 0 0 0-0.5 0.5v1.375a0.5 0.5 0 0 0 0.5 0.5h2.107c2.373 0 4.268 1.894 4.268 4.268v2.107a0.5 0.5 0 0 0 0.5 0.5h1.375a0.5 0.5 0 0 0 0.5-0.5v-2.75c0-3.315-2.685-6-6-6zm-2.75 8.25a0.5 0.5 0 0 0-0.5 0.5v0.875h-0.875a0.5 0.5 0 0 0-0.5 0.5v1.375a0.5 0.5 0 0 0 0.5 0.5h0.875v0.875a0.5 0.5 0 0 0 0.5 0.5h1.375a0.5 0.5 0 0 0 0.5-0.5v-0.875h0.875a0.5 0.5 0 0 0 0.5-0.5v-1.375a0.5 0.5 0 0 0-0.5-0.5h-0.875v-0.875a0.5 0.5 0 0 0-0.5-0.5zm-9.625 4.125a0.5 0.5 0 0 0-0.5 0.5v2.75c0 3.315 2.685 6 6 6h2.75a0.5 0.5 0 0 0 0.5-0.5v-1.375a0.5 0.5 0 0 0-0.5-0.5h-2.107c-2.373 0-4.268-1.894-4.268-4.268v-2.107a0.5 0.5 0 0 0-0.5-0.5zm19.25 0a0.5 0.5 0 0 0-0.5 0.5v2.107c0 2.373-1.894 4.268-4.268 4.268h-2.107a0.5 0.5 0 0 0-0.5 0.5v1.375a0.5 0.5 0 0 0 0.5 0.5h2.75c3.315 0 6-2.685 6-6v-2.75a0.5 0.5 0 0 0-0.5-0.5z" fill="url(#a)"/>
</svg>
