<svg version="1.1" viewBox="0 0 22 22" xmlns="http://www.w3.org/2000/svg">
 <g transform="translate(-0) scale(1) translate(-0) scale(1) translate(-.000297 -.000753) scale(1)" fill="#00f">
  <path d="M11 3.493c-5.154 0-7.932 1.9-9.306 3.863S.321 11.324.321 11.324a.71.71 0 0 0 .712.712.71.71 0 0 0 .711-.712s0-1.554 1.118-3.151c.976-1.394 3.106-2.651 6.75-2.996-2.04 2.999-2.945 5.651-2.562 7.826.446 2.53 2.224 4.377 4.28 5.684 4.11 2.615 9.541 3.306 9.541 3.306a.71.71 0 0 0 .801-.61.71.71 0 0 0-.611-.8s-5.249-.73-8.97-3.098c-1.859-1.184-3.286-2.721-3.64-4.73s.33-4.64 3.104-8.106a.712.712 0 0 0-.556-1.157z"/>
  <path d="M7.391 4.253 11 .645l3.647 3.646L11.038 7.9z" opacity=".35"/>
  <path d="M6.933 3.797a.644.644 0 0 0 .002.91l3.645 3.646a.644.644 0 0 0 .91.002l3.608-3.608a.644.644 0 0 0 0-.913L11.453.19a.644.644 0 0 0-.912 0zm1.368.457L11 1.555l2.733 2.734-2.698 2.698z"/>
 </g>
</svg>
