<svg version="1.1" viewBox="0 0 22 22" xmlns="http://www.w3.org/2000/svg">
 <defs>
  <linearGradient id="b" y1="1">
   <stop stop-color="#0061ff" offset="0"/>
   <stop stop-color="#60efff" offset="1"/>
  </linearGradient>
  <linearGradient id="a" y1="1">
   <stop stop-color="#cc00a8" offset="0"/>
   <stop stop-color="#ff4de0" offset="1"/>
  </linearGradient>
 </defs>
 <path transform="translate(-0) scale(1) translate(-0) scale(1) translate(-0) scale(1) translate(-.000333 -.004241) scale(1) matrix(.9807 0 0 .9807 -5.9e-5 1.261)" d="m16.92 1.27c-0.2354 7.569e-4 -0.4528 0.04105-0.6504 0.125-0.2044 0.08478-0.4007 0.2266-0.5898 0.4219l-3.758 3.756a1.612 1.612 0 0 0-0.4961 1.221c0.01476 0.4735 0.2114 0.9066 0.6055 1.297 0.3134 0.3157 0.6781 0.4664 1.094 0.4551 0.4111-0.01287 0.7879-0.1637 1.131-0.4551l0.9492-0.9473v4.01a1.669 1.669 0 0 0 0.498 1.217c0.3361 0.3323 0.7415 0.5 1.223 0.5a1.635 1.635 0 0 0 1.211-0.5c0.3293-0.3316 0.4966-0.7375 0.498-1.217v-4.012l0.9453 0.9102c0.335 0.3157 0.7236 0.4746 1.146 0.4746 0.4292 0 0.8249-0.1801 1.19-0.5449 0.335-0.3407 0.5117-0.7423 0.5117-1.203 0-0.4622-0.1767-0.8627-0.5117-1.203l-3.758-3.756c-0.1968-0.1953-0.393-0.3351-0.5898-0.4199-0.2033-0.08515-0.4156-0.127-0.6484-0.127z" fill="url(#b)"/>
 <path transform="translate(-0) scale(1) translate(-0) scale(1) translate(-0) scale(1) translate(-.000333 -.004241) scale(1) translate(-5.9e-5 1.261) scale(.9807)" d="m1.547 15.48c-0.4205 0-0.8294 0.1634-1.115 0.4648-0.2813 0.2967-0.4316 0.6999-0.4316 1.115 0 0.2714 0.0319 0.4931 0.1289 0.6914 0.097 0.1984 0.232 0.321 0.3398 0.4219 0.2956 0.2777 0.6935 0.4222 1.102 0.4219h15.97c0.4194 0 0.8261-0.1637 1.119-0.4609 0.2929-0.2953 0.4539-0.7018 0.4531-1.121-5.32e-4 -0.2726-0.0332-0.4995-0.1348-0.6992-0.1009-0.1983-0.2398-0.3159-0.3516-0.416-0.3047-0.277-0.7055-0.4264-1.117-0.418z" fill="url(#a)"/>
 <path transform="translate(-0) scale(1) translate(-0) scale(1) translate(-0) scale(1) translate(-.000333 -.004241) scale(1) translate(-5.9e-5 1.261) scale(.9807)" d="m1.564 9.727c-0.427-0.01434-0.8409 0.1547-1.133 0.4668-0.2852 0.3007-0.4387 0.703-0.4297 1.117 0.001456 0.4121 0.1527 0.8105 0.4356 1.102 0.1803 0.1852 0.3643 0.3232 0.5703 0.3926 0.2061 0.06939 0.3804 0.06445 0.5391 0.06445h9.803c0.4241 0 0.8359-0.1747 1.127-0.4824 0.2869-0.303 0.4434-0.7063 0.4434-1.123 0-0.2697-0.02998-0.4918-0.125-0.6894-0.09497-0.1977-0.2291-0.3207-0.3359-0.4219a0.4628 0.4628 0 0 0-2e-3 -2e-3c-0.3022-0.2835-0.7048-0.4351-1.119-0.4238z" fill="url(#a)"/>
 <path transform="translate(-0) scale(1) translate(-0) scale(1) translate(-0) scale(1) translate(-.000333 -.004241) scale(1) translate(-5.9e-5 1.261) scale(.9807)" d="m1.564 3.967c-0.427-0.01434-0.8409 0.1566-1.133 0.4688-0.2852 0.3007-0.4387 0.703-0.4297 1.117 0.001456 0.4121 0.1527 0.8105 0.4356 1.102 0.1803 0.1852 0.3643 0.3212 0.5703 0.3906 0.2061 0.06939 0.3804 0.06445 0.5391 0.06445h4.363c0.4197 0 0.8266-0.163 1.119-0.459a0.4628 0.4628 0 0 0 0-0.00195c0.2931-0.2974 0.4523-0.7076 0.4531-1.133 0-0.4255-0.1637-0.8363-0.4668-1.121-0.3018-0.2837-0.7031-0.4384-1.117-0.4277z" fill="url(#a)"/>
</svg>
