<svg xmlns="http://www.w3.org/2000/svg" viewBox="0 0 22 22"><path fill="#fe6f5e" d="M1.528 12.577q-.66 0-1.094-.436Q0 11.706 0 11.075q0-.63.434-1.06.433-.43 1.094-.43h8.786l6.558-6.559h-1.656q-.628 0-1.062-.435t-.434-1.067.434-1.076 1.062-.446h5.253q.629 0 1.079.45t.45 1.078v5.253q0 .628-.452 1.062-.451.434-1.082.434t-1.061-.434-.43-1.062V5.16l-6.526 6.526q-.414.413-.98.652t-1.153.239zM15.215 22q-.628 0-1.062-.435t-.434-1.066.434-1.061 1.062-.43h1.623L13.4 15.569q-.446-.439-.446-1.063t.446-1.07 1.057-.461q.61-.016 1.044.43l3.47 3.406v-1.56q0-.629.435-1.063t1.067-.433 1.076.433.446 1.063v5.253q0 .629-.45 1.062T20.467 22z"/></svg>