<svg xmlns="http://www.w3.org/2000/svg" viewBox="0 0 22 22"><path fill="#0cf" d="M4.273 6.614q-.98-.36-1.588-1.215c-.608-.855-.606-1.223-.606-1.96v-.026q0-1.041.536-1.854.19-.29.446-.553Q4.044.005 5.475.005h.015C6.444.005 7.255.34 7.92 1q1 .994 1 2.412v.026q0 1.12-.633 1.967-.631.848-1.588 1.208v.207a3.06 3.06 0 0 0 1.011 2.128q.415.384.893.599.582.242 1.272.242h2.22q2.304 0 3.928 1.556 1.623 1.555 1.675 3.816v.185l.026.047a3.3 3.3 0 0 1 1.588 1.219 3.3 3.3 0 0 1 .607 1.983 3.3 3.3 0 0 1-.506 1.809 3.6 3.6 0 0 1-.477.602q-.983.999-2.414.997h-.015q-1.431 0-2.431-.994c-1-.994-1-1.467-1-2.414v-.026q0-1.116.633-1.967.631-.844 1.588-1.209v-.21a3.06 3.06 0 0 0-1.012-2.123 3.3 3.3 0 0 0-.893-.6 3.3 3.3 0 0 0-1.271-.243h-2.22q-2.304.002-3.928-1.554Q4.351 9.109 4.3 6.848v-.186zm12.265 13.117q.493 0 .813-.343.315-.336.321-.808v-.01q0-.488-.343-.827a1.15 1.15 0 0 0-.828-.336c-.323 0-.596.119-.819.346q-.334.339-.334.826 0 .378.206.676.057.072.13.14.36.336.853.336zM5.495 4.6q.485 0 .819-.343c.334-.343.333-.504.333-.827q0-.387-.213-.687a1.221 1.221 0 0 0-.975-.467q-.494-.001-.815.346-.32.34-.32.824.003.485.342.818.344.336.829.335z"/></svg>