<svg xmlns="http://www.w3.org/2000/svg" viewBox="0 0 22 22"><path fill="#06f" d="M18.768 0c.85.03 1.74.397 2.29.947s.918 1.44.946 2.29v15.531c-.028.85-.396 1.74-.946 2.29s-1.44.918-2.29.946H3.236c-.849-.028-1.74-.396-2.29-.946s-.917-1.44-.945-2.29V3.236c.028-.849.396-1.74.946-2.29S2.387.03 3.237.002zM2.778 2.779c-.152.152-.217.232-.189.458v15.532c-.028.227.037.307.19.458.15.153.231.218.457.19h15.532c.227.028.307-.037.458-.19.153-.151.218-.231.19-.458V3.236c.028-.226-.037-.306-.19-.458-.151-.152-.231-.217-.458-.189H3.236c-.226-.028-.306.037-.458.19M16.18 3.884c.49.028 1.057.252 1.373.568s.54.883.568 1.373V16.18c-.028.49-.252 1.057-.568 1.373s-.883.54-1.373.568H5.825c-.49-.028-1.057-.252-1.373-.568s-.54-.883-.568-1.373V5.825c.028-.49.252-1.057.568-1.373s.883-.54 1.373-.568z"/></svg>