<svg xmlns="http://www.w3.org/2000/svg" viewBox="0 0 22 22"><path fill="#fe6f5e" d="M19.455 1.989c0 .333-.27.604-.605.604h-2.303L12.53 4.155h6.32c.333 0 .604.27.604.604v1.386c0 .333-.27.604-.605.604h-2.145l-5.787 2.948h7.932c.334 0 .605.27.605.604v1.386c0 .333-.27.604-.605.604h-2.145l-5.787 2.947h7.932c.334 0 .605.27.605.604v1.386c0 .333-.27.604-.605.604h-2.303l-4.016 1.562h6.32c.333 0 .604.27.604.604v1.385c0 .334-.27.605-.605.605H3.136a.605.605 0 0 1-.604-.605v-1.385c0-.333.27-.604.604-.604H5.44l4.016-1.562h-6.32a.605.605 0 0 1-.604-.604v-1.386c0-.333.27-.604.604-.604h2.146l5.786-2.947H3.136a.605.605 0 0 1-.604-.604V10.3c0-.333.27-.604.604-.604h2.146l5.786-2.948H3.136a.605.605 0 0 1-.604-.604V4.759c0-.333.27-.604.604-.604H5.44l4.016-1.562h-6.32a.605.605 0 0 1-.604-.604V.604c0-.334.27-.605.604-.605H18.85c.334 0 .605.27.605.605z"/></svg>