<svg xmlns="http://www.w3.org/2000/svg" viewBox="0 0 22 22"><path fill="#00ffdf" d="M10.933.007c3.529-.034 7.15.85 10.711 2.687a.645.645 0 0 1 .266.895c-3.481 6.027-3.213 9.99-.02 14.854a.646.646 0 0 1-.27.937c-6.61 3.063-13.832 3.876-21.287-.015a.649.649 0 0 1-.264-.881C2.695 13.658 4.075 9.81.087 3.608a.65.65 0 0 1 .264-.923C3.826.985 7.398.037 10.927.005zm-.288 2.604c-.9.023-1.335.093-2.004.2.274 1.135.418 1.745.613 3.247.768-.054 1.34-.087 2.28-.065.597.015.768.03 1.146.057.193-1.318.246-1.76.624-3.285a13.7 13.7 0 0 0-2.66-.154zm5.186.698c-.266 1.081-.398 1.616-.581 3.048.933.15 1.46.266 2.468.514.324-1.059.498-1.509 1-2.568-1.042-.456-1.53-.662-2.888-.995zM3.254 4.329c.467.962.687 1.514 1.022 2.524a24 24 0 0 1 2.407-.518 31 31 0 0 0-.575-2.992c-1.06.293-1.692.516-2.854.986zm6.278 4.297c.138 1.786.147 3.094.025 4.95 1.035.082 1.501.118 2.826-.003-.121-1.774-.113-3.081.025-4.952a17 17 0 0 0-1.396-.041c-.698 0-.754-.017-1.48.046zm-2.574.277c-.67.107-.916.145-2.067.464.152 1.012.207 1.828.09 2.917-.046.41-.05.37-.083.546.955.248 1.011.309 2.088.46.107-1.589.098-2.678-.027-4.387zm8.017.028a27.5 27.5 0 0 0-.023 4.336c.811-.133 1.244-.229 2.19-.464-.14-1.312-.127-2.073.045-3.406-.768-.207-1.033-.3-2.211-.466zM4.262 15.333c-.318.953-.546 1.469-.986 2.417.982.407 1.453.605 2.865.923.286-1.144.394-1.662.566-2.803-.822-.127-1.194-.19-2.445-.537zm10.965.504c.15 1.037.279 1.66.562 2.803 1.01-.252 1.631-.446 2.83-.908-.5-.986-.652-1.365-.968-2.394-.875.217-1.386.329-2.424.5zm-5.944.3c-.147 1.08-.223 1.594-.602 3.022 1.57.198 2.692.207 4.564-.041-.289-1.188-.404-1.546-.586-2.976-1.191.08-2.006.081-3.377-.006z"/></svg>