<svg xmlns="http://www.w3.org/2000/svg" viewBox="0 0 22 22"><path fill="#ff00df" d="M12.27 0a3.141 3.141 0 1 0 0 6.284 3.141 3.141 0 0 0 0-6.283M5.633 2.223a1.57 1.57 0 1 0 0 3.142 1.57 1.57 0 0 0 0-3.142M18.7 3.75a1.57 1.57 0 1 0 0 3.142 1.57 1.57 0 0 0 0-3.142M3.142 6.284a3.141 3.141 0 1 0-.001 6.283 3.141 3.141 0 0 0 0-6.283m8.238 2.524a1.57 1.57 0 1 0 0 3.142 1.57 1.57 0 0 0 0-3.142m7.471.617a3.141 3.141 0 1 0 0 6.283 3.141 3.141 0 0 0 0-6.283m-15.71 5.341a1.57 1.57 0 1 0 0 3.142 1.57 1.57 0 0 0 0-3.142m6.29.942a3.141 3.141 0 1 0 0 6.283 3.141 3.141 0 0 0 0-6.283m7.482 1.571a1.57 1.57 0 1 0 0 3.142 1.57 1.57 0 0 0 0-3.142"/></svg>