<svg xmlns="http://www.w3.org/2000/svg" viewBox="0 0 22 22"><g stroke-width=".48"><path fill="#ff8000" d="M14.6 12.3a.72.72 0 0 0-.473.212.8.8 0 0 0-.189.477c0 .167.084.349.195.471l2.263 2.263a.8.8 0 0 0 .489.202.87.87 0 0 0 .47-.195.76.76 0 0 0 .202-.471.8.8 0 0 0-.202-.484l-2.28-2.28a.8.8 0 0 0-.476-.196zm4.783.01a.8.8 0 0 0-.48.196.76.76 0 0 0-.197.481c0 .17.08.354.186.48a.8.8 0 0 0 .48.2h.238l-5.477 5.488a.77.77 0 0 0-.2.466c-.004.17.081.351.198.475.123.126.302.22.473.22a.74.74 0 0 0 .478-.213l5.483-5.482v.215a.8.8 0 0 0 .193.48c.125.112.312.2.482.2a.76.76 0 0 0 .482-.198.8.8 0 0 0 .197-.482v-1.782a.83.83 0 0 0-.217-.525.83.83 0 0 0-.525-.22zm-.4 4.446a.86.86 0 0 0-.47.194.77.77 0 0 0-.2.477c0 .166.084.35.195.473l1.077 1.07h-.213a.8.8 0 0 0-.478.197.76.76 0 0 0-.188.467c0 .17.081.355.19.477.123.11.306.185.476.193h1.805a.87.87 0 0 0 .521-.21.85.85 0 0 0 .221-.523v-1.782a.8.8 0 0 0-.197-.48.77.77 0 0 0-.477-.188.78.78 0 0 0-.48.188.8.8 0 0 0-.2.48v.234l-1.106-1.08a.77.77 0 0 0-.475-.187z"/><path fill="#d500ff" d="M10.645 0a1.74 1.74 0 0 0-1.65 1.185L8.593 2.38q-.695.166-1.354.44s-.557-.393-1.083-.76a1.65 1.65 0 0 0-1.914.001c-.02.014-.04.03-.063.04a1.74 1.74 0 0 0-.638 1.926l.378 1.204c-.31.361-.59.749-.838 1.155 0 0-.684.007-1.325.019A1.65 1.65 0 0 0 .209 7.532c-.008.023-.014.046-.026.067-.231.71.018 1.488.616 1.933.5.371 1.014.755 1.014.755q-.058.712 0 1.423s-.55.41-1.061.797c-.565.419-.8 1.148-.588 1.818q.012.034.017.07c.23.71.889 1.195 1.636 1.204l1.264.015q.373.61.837 1.152s-.204.652-.39 1.266a1.65 1.65 0 0 0 .594 1.819q.03.02.054.045a1.74 1.74 0 0 0 2.031.013l1.031-.731q.659.275 1.354.44s.218.648.428 1.255a1.65 1.65 0 0 0 1.549 1.12q.036-.002.071.006c.748 0 1.412-.477 1.651-1.184.199-.59-.642-2.637-.911-3.509A6.353 6.353 0 0 1 4.293 11a6.353 6.353 0 0 1 6.349-6.349 6.36 6.36 0 0 1 6.22 5.058c.094.63 1.916.913 2.636.56.112-.083.587-.436 1.035-.775.564-.419.8-1.15.588-1.82q-.013-.034-.018-.07A1.74 1.74 0 0 0 19.467 6.4l-1.261-.013a9 9 0 0 0-.838-1.155s.204-.651.391-1.265c.21-.67-.03-1.4-.597-1.819q-.03-.02-.054-.045a1.74 1.74 0 0 0-2.03-.011l-1.03.729a9 9 0 0 0-1.354-.44s-.22-.649-.43-1.255a1.645 1.645 0 0 0-1.547-1.12.3.3 0 0 1-.074-.006zm-.003 8.54a2.46 2.46 0 1 0 0 4.92 2.46 2.46 0 0 0 0-4.92"/></g></svg>