<svg xmlns="http://www.w3.org/2000/svg" viewBox="0 0 22 22"><g stroke-width="1.294"><path fill="#06f" d="M16.277 4.289v1.855c0 .357-.29.647-.647.647h-3.063v8.626c0 .358-.29.647-.646.647h-1.856a.647.647 0 0 1-.647-.647V6.791H6.356a.647.647 0 0 1-.647-.647V4.29c0-.357.29-.647.647-.647h9.274c.357 0 .647.29.647.647"/><path fill="#d500ff" d="M3.881.65v17.466h14.237V.649c0-.357.29-.647.647-.647h1.294c.357 0 .647.29.647.647v17.467h.647c.357 0 .647.29.647.647v1.293c0 .358-.29.647-.647.647h-.647v.647c0 .357-.29.647-.647.647h-1.294a.647.647 0 0 1-.647-.647v-.647H3.881v.647c0 .357-.29.647-.647.647H1.941a.647.647 0 0 1-.647-.647v-.647H.647A.647.647 0 0 1 0 20.056v-1.293c0-.357.29-.647.647-.647h.647V.649c0-.357.29-.647.647-.647h1.293c.357 0 .647.29.647.647"/></g></svg>