<svg xmlns="http://www.w3.org/2000/svg" viewBox="0 0 22 22"><path fill="#ff0" d="M11.001 21.715q-.657 0-1.225-.27a4.6 4.6 0 0 1-1.08-.668L.852 14.013a3.1 3.1 0 0 1-.626-.808A1.96 1.96 0 0 1 0 12.279v-2.188q0-.512.241-.917.242-.405.583-.76L8.668 1.11Q9.127.684 9.73.485q.602-.198 1.262-.199c.66 0 .862.067 1.267.2q.605.198 1.07.653l7.843 7.304q.342.34.583.739c.24.399.241.559.241.88v2.217q0 .495-.226.926-.226.43-.626.808L13.3 20.777q-.51.398-1.077.668-.565.27-1.222.27m-.088-5.542q.41 0 .771-.141.363-.142.707-.4l6.678-6.053-7.36-6.65q-.086-.141-.265-.213c-.18-.072-.241-.061-.364-.042a4 4 0 0 0-.384.085q-.21.056-.408.17l-7.39 6.679 6.54 6.02q.339.26.702.402c.363.142.5.142.773.142zM7.3 11.114q.57 0 .97-.395.396-.394.397-.966c.001-.572-.132-.704-.395-.97a1.3 1.3 0 0 0-.966-.397q-.571 0-.97.395-.397.394-.397.966c0 .572.131.704.394.97q.395.397.967.397m1.85 1.734q1.307.568 2.666.295c1.359-.273 1.706-.59 2.402-1.222q.957-.835 1.213-2.015c.256-1.18.104-1.568-.2-2.344zm1.844-5.315q.572 0 .97-.394.398-.395.398-.967c0-.572-.132-.704-.395-.97a1.3 1.3 0 0 0-.966-.397q-.573 0-.97.395-.398.394-.398.966c0 .572.132.704.395.97q.394.397.966.397"/></svg>