<svg version="1.1" viewBox="0 0 22 22" xmlns="http://www.w3.org/2000/svg">
 <path transform="translate(-0) scale(1) translate(-0) scale(1) translate(5e-4) scale(1)" d="M1.325 2.71q-.555 0-.94-.4C0 1.91 0 1.724 0 1.354S.132.666.395.4s.578-.4.942-.4.679.136.945.407.4.594.4.968q0 .55-.402.943a1.32 1.32 0 0 1-.955.393m4.832 0q-.549 0-.943-.4-.392-.401-.392-.956c0-.555.133-.688.4-.954s.587-.4.956-.4.688.136.954.407.4.594.4.968q0 .55-.406.943t-.969.393m14.464 14.464q-.55 0-.943-.4-.393-.402-.393-.957c0-.555.134-.687.401-.954s.586-.399.956-.399.687.136.954.406.399.594.399.969q0 .549-.406.942t-.968.393m0 4.821q-.55 0-.943-.395t-.393-.942c0-.547.134-.679.401-.945s.586-.4.956-.4.687.134.954.402.399.586.399.955-.135.683-.406.94-.594.385-.968.385m-1.336-11.011V6.419q0-1.54-1.084-2.624c-1.084-1.084-1.598-1.084-2.625-1.084h-4.564q-.564 0-.952-.39a1.3 1.3 0 0 1-.389-.953q0-.563.39-.965.387-.402.951-.402h4.907q2.535 0 4.307 1.77c1.772 1.77 1.77 2.615 1.77 4.307v4.907q0 .564-.407.952-.406.39-.97.389-.562 0-.948-.39a1.3 1.3 0 0 1-.385-.951zM2.18 19.816h11.97V7.849H2.18zm-1.1 2.179q-.453-.002-.765-.312a1.04 1.04 0 0 1-.313-.766V6.77q0-.451.313-.766.312-.31.764-.312h14.147q.453.002.765.312.313.315.313.766v14.147q0 .455-.313.766a1.05 1.05 0 0 1-.765.312z" fill="#d66bff"/>
</svg>
