<svg version="1.1" viewBox="0 0 22 22" xmlns="http://www.w3.org/2000/svg">
 <defs>
  <style>.ColorScheme-Text{color:#ebdbb2}</style>
 </defs>
 <g transform="translate(0) scale(1) translate(0 1.3e-5) scale(1) translate(0 .01799) scale(.9992)" fill="#bf00ff">
  <path class="ColorScheme-Text" d="M6.853.005v3.566a17 17 0 0 0-3.28 3.288H0v5.482h.833a18 18 0 0 0-.675 6.326.686.686 0 1 0 1.368-.096 16.8 16.8 0 0 1 .726-6.23h3.23V6.858h-.195a15 15 0 0 1 1.566-1.569v.198h5.483V2.223a16.8 16.8 0 0 1 6.227-.755A.686.686 0 0 0 18.654.1c-2.22-.148-4.343.12-6.318.704v-.8zm5.483 5.483V8.84c-.731.43-1.394.93-1.978 1.515a9.8 9.8 0 0 0-1.52 1.986H5.483v5.483h1.628a27 27 0 0 0-.21 3.467.686.686 0 1 0 1.372 0c0-1.264.079-2.412.224-3.467h2.469v-5.483h-.488c.262-.363.54-.707.849-1.017a8 8 0 0 1 1.01-.843v.49h5.482V8.495a25 25 0 0 1 3.475-.225.686.686 0 1 0 0-1.37q-1.859-.001-3.475.208v-1.62z"/>
  <path class="ColorScheme-Text" d="M18.891 1.413a.7.7 0 0 1-.326.06 16.8 16.8 0 0 0-6.227.754v3.264h5.483v1.62c1.009-.13 2.094-.194 3.245-.203zm-6.553 4.078H6.855v-.198a15 15 0 0 0-1.566 1.569h.195v5.482h3.354c.43-.735.934-1.4 1.52-1.986a9.8 9.8 0 0 1 1.979-1.515zm-6.854 6.853h-3.23a16.8 16.8 0 0 0-.726 6.23.7.7 0 0 1-.017.199l5.403 2.138c.014-1.088.074-2.123.198-3.084H5.484z" opacity=".3"/>
 </g>
</svg>
