<svg xmlns="http://www.w3.org/2000/svg" fill="none" viewBox="0 0 22 22"><defs><linearGradient id="a" x1="4.864" x2="22.22" y1="18.35" y2="3.206" gradientUnits="userSpaceOnUse"><stop offset="0" stop-color="#fe0844"/><stop offset="1" stop-color="#feb302"/></linearGradient></defs><path fill="url(#a)" stroke="url(#a)" stroke-width=".6" d="M2.062 1.375a.687.687 0 0 0-.687.688v6.646c0 .38.307.687.687.687h5.042c.38 0 .687.308.687.688v6.646c0 .38.308.687.688.687h3.438c.38 0 .688.308.688.688v1.833c0 .38.307.687.687.687h6.646c.38 0 .688-.308.688-.687v-6.646a.69.69 0 0 0-.688-.688h-6.646a.687.687 0 0 0-.688.688v1.832c0 .38-.307.688-.687.688h-1.833a.69.69 0 0 1-.688-.687v-8.25c0-.38.308-.688.688-.688h1.833c.38 0 .687.308.687.687v1.833c0 .38.308.688.688.688h6.646c.38 0 .688-.308.688-.687V2.06a.69.69 0 0 0-.688-.687h-6.646a.687.687 0 0 0-.688.687v1.833c0 .38-.307.688-.687.688h-1.833a.687.687 0 0 1-.688-.687V2.06a.687.687 0 0 0-.687-.687H2.063zm.917 2.292c0-.38.307-.687.687-.687h3.438c.38 0 .688.307.688.687v3.438c0 .38-.308.688-.688.688H3.666a.687.687 0 0 1-.687-.688zm11.23 0c0-.38.308-.687.687-.687h3.438c.38 0 .688.307.688.687v3.438c0 .38-.308.688-.688.688h-3.438a.687.687 0 0 1-.687-.688z" transform="translate(-1.19 -1.19)scale(1.10794)"/></svg>