<svg xmlns="http://www.w3.org/2000/svg" viewBox="0 0 22 22"><defs><linearGradient id="a" x2="0" y2="1"><stop offset="0" stop-color="#d800bd"/><stop offset=".408" stop-color="#f92d7a"/><stop offset=".59" stop-color="#ff4a52"/><stop offset="1" stop-color="#ffb243"/></linearGradient></defs><path fill="url(#a)" d="M18.8 1.85a5.84 5.84 0 0 0-3.761 1.263c-2.529 2.003-2.961 5.731-.953 8.257l13.28 16.75a5.89 5.89 0 0 0 4.63 2.226 5.9 5.9 0 0 0 4.63-2.224l13.28-16.75.002-.001c2.007-2.527 1.575-6.254-.955-8.257h.003c-2.53-2.008-6.255-1.572-8.258.953L32 15.037l-8.695-10.97-.002-.001a5.87 5.87 0 0 0-4.497-2.214zm37.25 15.2q-.353.008-.703.048a7.3 7.3 0 0 0-4.898 2.709l-.001.003-18.46 23.28-18.45-23.28-.002-.002c-2.5-3.147-7.132-3.685-10.28-1.184-3.154 2.496-3.688 7.132-1.189 10.28l24.16 30.48a7.31 7.31 0 0 0 5.764 2.768 7.3 7.3 0 0 0 5.764-2.768l24.16-30.48c2.497-3.15 1.964-7.784-1.189-10.28a7.27 7.27 0 0 0-4.682-1.574z" transform="matrix(.35 0 0 -.35 -.172 22.178)"/></svg>