<svg version="1.1" viewBox="0 0 22 22" xmlns="http://www.w3.org/2000/svg">
 <defs>
  <linearGradient id="a" x2="0" y1="1">
   <stop stop-color="#ff02f0" offset="0"/>
   <stop stop-color="#ffc800" offset="1"/>
  </linearGradient>
 </defs>
 <path transform="translate(.000781 -.001858) scale(1) translate(-.000506 -.000156)" d="m11 11.58a2.057 2.057 0 0 0-1.617 0.7773l-4.637 5.85c-0.7012 0.8822-0.5512 2.183 0.332 2.883a2.04 2.04 0 0 0 1.312 0.4414h0.00391a2.05 2.05 0 0 0 1.57-0.7734l3.037-3.832 3.037 3.832c0.6992 0.8814 1.999 1.032 2.883 0.332 0.8836-0.6995 1.035-2 0.334-2.883l-2e-3 -2e-3 -4.637-5.85a2.06 2.06 0 0 0-1.617-0.7754z" fill="url(#a)"/>
 <path transform="translate(.000781 -.001858) scale(1) translate(-.000506 -.000156)" d="m11 0.4707a2.553 2.553 0 0 0-2.014 0.9668l-8.436 10.64c-0.8727 1.099-0.6874 2.718 0.4141 3.59 1.099 0.8734 2.717 0.685 3.59-0.4141h0.00195l6.443-8.131 6.445 8.131a2.549 2.549 0 0 0 1.711 0.9473c0.08149 0.0093 0.1639 0.01376 0.2461 0.01563a2.539 2.539 0 0 0 1.633-0.5488c1.101-0.8717 1.288-2.49 0.416-3.59l-8.438-10.64a2.549 2.549 0 0 0-2.014-0.9668z" fill="url(#a)"/>
</svg>
