<svg version="1.1" viewBox="0 0 22 22" xmlns="http://www.w3.org/2000/svg">
 <defs>
  <linearGradient id="a" y1=".5" y2=".5">
   <stop stop-color="#00efff" offset="0"/>
   <stop stop-color="#07f" offset="1"/>
  </linearGradient>
 </defs>
 <path transform="translate(0) scale(1) translate(0) scale(1) translate(-.002148 .00045) scale(1) translate(-.001944 .001362) scale(1) matrix(.9822 0 0 .9822 .196 .1969)" d="m11 5.063c-1.574 0-3.088 0.6278-4.202 1.736-1.109 1.114-1.738 2.626-1.738 4.2s0.6297 3.088 1.738 4.202a0.2 0.2 0 0 0 0 0.001989c1.114 1.108 2.628 1.736 4.202 1.736s3.089-0.6277 4.202-1.736a0.2 0.2 0 0 0 0.001989-0.001989c1.108-1.114 1.736-2.628 1.736-4.202s-0.6277-3.087-1.736-4.2a0.2 0.2 0 0 0-0.001989 0c-1.116-1.111-2.627-1.735-4.202-1.736zm-9.352 1.064a0.2 0.2 0 0 0-0.003977 0.001988c-0.4637 0.01068-0.8748 0.2965-1.046 0.7278-0.5259 1.318-0.7952 2.725-0.7934 4.144 0 1.865 0.4606 3.7 1.352 5.335 0.1761 0.3237 0.4466 0.5198 0.7338 0.5866s0.5843 0.01204 0.8332-0.1233 0.4548-0.355 0.5548-0.6324 0.08461-0.6108-0.09147-0.9346c-0.7024-1.301-1.07-2.756-1.07-4.234 0-1.128 0.2079-2.245 0.6284-3.287a0.2 0.2 0 0 0 0.001988-0.001988c0.303-0.7626-0.2789-1.599-1.1-1.583zm18.8 0.2068c-0.0312-9.16e-4 -0.06188 3.581e-4 -0.09346 0.001988a0.2 0.2 0 0 0-0.007954 0.001988c-0.1134 0.00652-0.2254 0.03065-0.3341 0.07159-0.5952 0.2218-0.9016 0.8903-0.6801 1.485 0.8645 2.33 0.7183 4.914-0.4057 7.131a0.2 0.2 0 0 0-0.001988 0.003977c-0.1558 0.325-0.1579 0.6531-0.04971 0.9227s0.3161 0.4815 0.5647 0.6085 0.5413 0.1737 0.8232 0.1034 0.5477-0.266 0.7198-0.5826a0.2 0.2 0 0 0 0.001988-0.003977c0.8023-1.573 1.219-3.315 1.217-5.081 0-1.334-0.2375-2.656-0.7-3.907a0.2 0.2 0 0 0 0-0.001988c-0.166-0.4443-0.5856-0.7399-1.054-0.7536zm-0.2645 0.1829a0.2 0.2 0 0 0-0.01193 0.0517l-0.001988 0.001988-0.003977-0.0338 0.0179-0.01989zm-9.177 0.8571c0.961 0 1.886 0.3833 2.565 1.062 0.6797 0.679 1.06 1.602 1.06 2.563s-0.3813 1.886-1.06 2.565c-0.679 0.6797-1.604 1.06-2.565 1.06s-1.886-0.3803-2.565-1.06c-0.6796-0.679-1.06-1.604-1.06-2.565 0-0.9611 0.3803-1.884 1.06-2.563 0.679-0.6797 1.604-1.062 2.565-1.062zm4.673 11.36c-0.1922-0.0036-0.3821 0.04095-0.5528 0.1293a0.2 0.2 0 0 0-0.001988 0c-1.27 0.6679-2.683 1.016-4.118 1.016-1.384 0-2.749-0.3209-3.983-0.9426-0.33-0.1659-0.668-0.1727-0.9426-0.06363s-0.4849 0.3229-0.6125 0.5767-0.1736 0.5516-0.09744 0.8372 0.2805 0.552 0.6105 0.7179c1.56 0.7822 3.282 1.188 5.027 1.187 1.811 0 3.591-0.4378 5.194-1.275a0.2 0.2 0 0 0 0.001988 0c0.5625-0.2961 0.7784-0.9966 0.4832-1.559-0.1969-0.375-0.5806-0.6146-1.004-0.6224a0.2 0.2 0 0 0-0.003977 0v-0.001989z" fill="url(#a)"/>
 <path transform="translate(0) scale(1) translate(0) scale(1) translate(-.002148 .00045) scale(1) translate(-.001944 .001362) scale(1) matrix(.9822 0 0 .9822 .196 .1969)" d="m10.99-0.1992a0.2 0.2 0 0 0-2e-3 0.001953c-1.961 0.001893-3.879 0.5363-5.578 1.516l0.02734-0.1328a0.2 0.2 0 0 0 0-0.00781c0.05651-0.3519-0.03164-0.6652-0.2089-0.8926-0.1773-0.2274-0.4353-0.3717-0.707-0.4258-0.2717-0.05412-0.5636-0.0191-0.8144 0.123-0.2509 0.1422-0.4525 0.3974-0.5352 0.7441a0.2 0.2 0 0 0-0.00195 0.005859l-0.4492 2.232c-0.1247 0.6218 0.2338 1.284 0.8223 1.52l2.244 0.8965a0.2 0.2 0 0 0 0.00391 0.00195c0.3396 0.1279 0.6678 0.0997 0.9277-0.0332 0.26-0.1329 0.4509-0.3624 0.5547-0.623s0.1229-0.5568 0.02539-0.832c-0.09321-0.2632-0.305-0.4955-0.6152-0.6387 1.318-0.7373 2.797-1.142 4.312-1.141 1.506 0 2.984 0.378 4.297 1.107a0.2 0.2 0 0 0 0.0039 0.00195c0.3206 0.1699 0.6511 0.1847 0.9258 0.08594 0.2747-0.0988 0.4929-0.3016 0.6289-0.5469s0.1926-0.537 0.1309-0.8223c-0.06178-0.2853-0.2505-0.5584-0.5644-0.7402a0.2 0.2 0 0 0-2e-3 -0.00195c-1.66-0.9161-3.527-1.398-5.424-1.398z" fill="url(#a)"/>
</svg>
