<svg xmlns="http://www.w3.org/2000/svg" viewBox="0 0 22 22"><path fill="#00ff80" d="M5.822 2.59s-.781-.01-1.582.39c-.801.401-1.652 1.335-1.652 2.845v9.059c0 .43-.12.468-.29.552-.168.085-.356.094-.356.094H.647a.647.647 0 0 0-.647.647v2.588a.647.647 0 0 0 .647.646h20.71a.647.647 0 0 0 .646-.646v-2.588a.647.647 0 0 0-.646-.647h-1.295s-.19-.01-.36-.094-.287-.121-.287-.552v-9.06s.008-.78-.393-1.581c-.4-.802-1.332-1.652-2.842-1.652H5.82z" opacity=".5"/><path fill="#00ff80" d="M11 6.408a1.06 1.06 0 0 0-1.059 1.059v2.474H7.467A1.06 1.06 0 0 0 6.408 11a1.06 1.06 0 0 0 1.059 1.059h2.474v2.474A1.06 1.06 0 0 0 11 15.592a1.06 1.06 0 0 0 1.059-1.059v-2.474h2.474A1.06 1.06 0 0 0 15.592 11a1.06 1.06 0 0 0-1.059-1.059h-2.474V7.467A1.06 1.06 0 0 0 11 6.408"/></svg>