<svg version="1.1" viewBox="0 0 22 22" xmlns="http://www.w3.org/2000/svg">
 <defs>
  <linearGradient id="a" x1="1" x2="0" y1="1">
   <stop stop-color="#5433ff" offset="0"/>
   <stop stop-color="#0bbdff" offset=".517"/>
   <stop stop-color="#a5fecb" offset=".983"/>
  </linearGradient>
  <linearGradient id="b" y2="1">
   <stop stop-color="#5433ff" offset="0"/>
   <stop stop-color="#20bdff" offset="1"/>
  </linearGradient>
 </defs>
 <path transform="translate(.001 -.00049) scale(1) translate(0 .002)" d="M5.027 2.225c-.006 0-.686-.007-1.389.344-.705.353-1.465 1.196-1.465 2.51v7.617c0 .317-.058.289-.168.344s-.24.062-.24.062H.679a.68.68 0 0 0-.68.68v2.178a.68.68 0 0 0 .68.68h2.613a1 1 0 0 1 .033-.067 1 1 0 0 1 .047-.068l.006-.008a1 1 0 0 1 .056-.065 1 1 0 0 1 .067-.058l.058-.04.02-.013.004-.002a1 1 0 0 1 .101-.045l.055-.017a1 1 0 0 1 .086-.018 1 1 0 0 1 .088-.006H5l.021-.002a.7.7 0 0 0 .22-.06c.047-.024.084-.034.113-.06l.005-.007a.1.1 0 0 0 .026-.043.8.8 0 0 0 .023-.234v-1.635H4.186a2.8 2.8 0 0 0 .434-1.496V5.079c0-.278.05-.275.13-.326a.8.8 0 0 1 .272-.082h8.709c.318 0 .291.056.346.166.054.109.062.242.062.242v.275h2.445V5.08s.01-.685-.344-1.391c-.352-.706-1.196-1.463-2.51-1.463z" fill="url(#a)"/>
 <path transform="translate(.001 -.00049) scale(1) translate(0 .002)" d="M8.26 5.356c-.016 0-.688-.005-1.385.344-.705.352-1.463 1.196-1.463 2.51v7.617c0 .317-.06.289-.17.344a.7.7 0 0 1-.24.062H3.916a.68.68 0 0 0-.68.68v2.178a.68.68 0 0 0 .68.678h17.4a.68.68 0 0 0 .68-.678v-2.178a.68.68 0 0 0-.68-.68H20.23s-.13-.007-.24-.062-.17-.027-.17-.344V8.21s.009-.685-.344-1.391-1.196-1.463-2.51-1.463H8.267zm-.002 2.445h8.713c.318 0 .289.059.344.168a.7.7 0 0 1 .062.24v7.617c0 .608.19 1.091.434 1.496H7.42c.244-.404.433-.888.433-1.496V8.21c0-.278.049-.274.13-.326a.8.8 0 0 1 .273-.082z" fill="url(#b)"/>
</svg>
