<svg version="1.1" viewBox="0 0 22 22" xmlns="http://www.w3.org/2000/svg">
 <defs>
  <linearGradient id="a" x2="0" y1="1">
   <stop stop-color="#ff00d4" offset="0"/>
   <stop stop-color="#0040ff" offset="1"/>
  </linearGradient>
 </defs>
 <path transform="translate(0 4e-6) scale(1)" d="m6.793 1.697c-0.675 0.02273-1.257 0.06336-1.754 0.1302-1.144 0.1539-1.783 0.4179-2.288 0.9232-0.5054 0.5058-0.7714 1.146-0.9252 2.29-0.06678 0.4967-0.1055 1.077-0.1282 1.752h5.095z" fill="#00BFFF" stroke-width="1.01"/>
 <path transform="translate(0 4e-6) scale(1)" d="m7.613 0a0.846 0.846 0 0 0-0.1309 0.009766c-1.022 0.01604-1.898 0.05759-2.676 0.1621-1.324 0.1781-2.417 0.5755-3.238 1.396-0.8212 0.8212-1.218 1.914-1.396 3.238-0.1044 0.7762-0.1441 1.652-0.1602 2.672a0.846 0.846 0 0 0-0.01172 0.1348 0.846 0.846 0 0 0 0.007812 0.1133c-0.007694 0.6523-0.007812 1.363-0.007812 2.143v2.256c0 0.7801 9.788e-5 1.49 0.007812 2.143a0.846 0.846 0 0 0-0.007812 0.1152 0.846 0.846 0 0 0 0.01172 0.1367c0.01611 1.019 0.05585 1.892 0.1602 2.668 0.178 1.324 0.5755 2.417 1.396 3.238 0.8212 0.8213 1.914 1.218 3.238 1.396 0.7747 0.1042 1.649 0.146 2.666 0.1621a0.846 0.846 0 0 0 0.1406 0.01172 0.846 0.846 0 0 0 0.1191-0.0078c0.651 0.0076 1.359 0.0059 2.137 0.0059h2.258c0.7777 0 1.486 0.0018 2.137-0.0059a0.846 0.846 0 0 0 0.1191 0.0078 0.846 0.846 0 0 0 0.1406-0.01172c1.017-0.01617 1.889-0.05797 2.664-0.1621 1.324-0.1781 2.419-0.5755 3.24-1.396 0.8213-0.8212 1.218-1.914 1.396-3.238 0.1043-0.7758 0.1441-1.651 0.1602-2.67a0.846 0.846 0 0 0 0.01172-0.1348 0.846 0.846 0 0 0-0.0078-0.1152c0.0077-0.6527 0.0078-1.363 0.0078-2.143v-2.256c0-0.7795-1.13e-4 -1.489-0.0078-2.141a0.846 0.846 0 0 0 0.0078-0.1152 0.846 0.846 0 0 0-0.01172-0.1367c-0.0161-1.02-0.05581-1.894-0.1602-2.67-0.1781-1.324-0.5755-2.417-1.396-3.238-0.8212-0.8213-1.916-1.218-3.24-1.396-0.7774-0.1046-1.652-0.1461-2.674-0.1621a0.846 0.846 0 0 0-0.1309-0.009766 0.846 0.846 0 0 0-0.1094 0.007812c-0.654-0.007773-1.365-0.007812-2.146-0.007812h-2.258c-0.782 0-1.493 3.697e-5 -2.146 0.007812a0.846 0.846 0 0 0-0.1094-0.007812zm2.256 1.691h2.258c0.4999 0 0.9676 0.0014 1.408 0.00391v5.072h-5.074v-5.072c0.4406-0.0025 0.9083-0.00391 1.408-0.00391zm-3.102 0.03125v5.045h-5.045c0.02251-0.6683 0.06083-1.243 0.127-1.734 0.1523-1.133 0.4156-1.767 0.916-2.268 0.5003-0.5003 1.133-0.7617 2.266-0.9141 0.4918-0.06618 1.068-0.1064 1.736-0.1289zm8.461 0c0.6684 0.02251 1.245 0.06278 1.736 0.1289 1.133 0.1523 1.765 0.4137 2.266 0.9141 0.5003 0.5003 0.7636 1.135 0.916 2.268 0.06617 0.4918 0.1044 1.066 0.127 1.734h-5.045zm-13.53 6.738h5.072v5.074h-5.072c-0.00251-0.4406-0.00391-0.9085-0.00391-1.408v-2.256c0-0.5 0.0014-0.9695 0.00391-1.41zm6.766 0h5.074v5.074h-5.074zm6.768 0h5.072c0.0025 0.4406 0.0039 0.9102 0.0039 1.41v2.256c0 0.4998-0.0014 0.9677-0.0039 1.408h-5.072zm-13.51 6.768h5.045v5.045c-0.6684-0.02251-1.245-0.06082-1.736-0.127-1.133-0.1523-1.765-0.4137-2.266-0.9141-0.5003-0.5003-0.7636-1.135-0.916-2.268-0.06612-0.4918-0.1044-1.068-0.127-1.736zm6.738 0h5.074v5.072c-0.4406 0.0025-0.9084 0.0039-1.408 0.0039h-2.258c-0.4999 0-0.9676-0.0014-1.408-0.0039zm6.768 0h5.045c-0.02251 0.6684-0.06082 1.244-0.127 1.736-0.1523 1.133-0.4156 1.767-0.916 2.268-0.5003 0.5003-1.133 0.7617-2.266 0.9141-0.4917 0.06617-1.068 0.1044-1.736 0.127z" fill="url(#a)"/>
</svg>
