<svg version="1.1" viewBox="0 0 22 22" xmlns="http://www.w3.org/2000/svg">
 <defs>
  <linearGradient id="a" x1="1" x2="0" y1="1">
   <stop stop-color="#0075ff" offset="0"/>
   <stop stop-color="#4deaff" offset="1"/>
  </linearGradient>
 </defs>
 <path transform="translate(0) scale(1) translate(0) scale(1) translate(0) scale(1) translate(.000689) scale(1) translate(.002299 2.2e-5) scale(1)" d="m3.69 0c-2.046-7e-3 -3.704 1.648-3.69 3.684l0.04688 6.164c7e-3 0.96 0.3897 1.881 1.072 2.56l8.56 8.518c1.435 1.428 3.762 1.428 5.197 0l6.039-6.016c1.435-1.428 1.435-3.74 0-5.168l-8.684-8.646c-0.686-0.6818-1.615-1.066-2.584-1.07zm-0.00586 1.83 5.957 0.02344c0.4847 2e-3 0.9502 0.1923 1.293 0.5332l8.684 8.646c0.7176 0.713 0.7176 1.87 0 2.584l-6.039 6.016c-0.719 0.7141-1.882 0.7141-2.6 0l-8.559-8.522c-0.3415-0.3393-0.5336-0.7969-0.5371-1.277l-0.04688-6.164c-7e-3 -1.018 0.8247-1.844 1.848-1.84z" fill="url(#a)"/>
 <path transform="translate(0) scale(1) translate(0) scale(1) translate(0) scale(1) translate(.000689) scale(1) translate(.002299 2.2e-5) scale(1)" d="m5.498 3.666c-1.012 0-1.832 0.82-1.832 1.832s0.82 1.834 1.832 1.834 1.834-0.8217 1.834-1.834-0.822-1.832-1.834-1.832z" fill="url(#a)"/>
 <path transform="translate(0) scale(1) translate(0) scale(1) translate(0) scale(1) translate(.000689) scale(1)" d="m11.63 7.332c-0.5942 0-1.153 0.1123-1.676 0.3382-0.5237 0.2258-0.979 0.5342-1.366 0.9216-0.3864 0.3867-0.6919 0.8399-0.9183 1.364-0.2261 0.5237-0.3401 1.083-0.3397 1.676 3.011e-4 0.5942 0.1142 1.152 0.3397 1.675 0.2256 0.5233 0.531 0.979 0.9183 1.367 0.3869 0.3867 0.8415 0.6933 1.366 0.92 0.5233 0.2258 1.082 0.3382 1.676 0.3382 0.5955 5.5e-4 1.155-0.1121 1.676-0.3382 0.5224-0.2261 0.9774-0.5326 1.366-0.92 0.3875-0.3867 0.6942-0.8431 0.92-1.367 0.225-0.5233 0.3373-1.081 0.3382-1.675 8.91e-4 -0.5942-0.1117-1.154-0.3382-1.676-0.2265-0.5233-0.533-0.9758-0.92-1.364-0.3864-0.3867-0.8415-0.6949-1.366-0.9216-0.5237-0.2258-1.083-0.3382-1.676-0.3382zm-0.4298 0.8836v0.4062c0 0.1218 0.04104 0.224 0.1232 0.3066 0.08253 0.08221 0.185 0.123 0.3066 0.1232 0.1215 3.007e-4 0.224-0.04075 0.3066-0.1232 0.08254-0.08254 0.1232-0.1848 0.1232-0.3066v-0.4062c0.7756 0.08626 1.446 0.4104 2.01 0.975 0.5645 0.5645 0.89 1.236 0.9766 2.011h-0.4062c-0.1218 0-0.2244 0.04075-0.3066 0.1232-0.08285 0.08254-0.1236 0.185-0.1232 0.3066 2.99e-4 0.1215 0.04104 0.224 0.1232 0.3066 0.0823 0.08254 0.1848 0.1232 0.3066 0.1232h0.4062c-0.08625 0.7756-0.4118 1.446-0.9766 2.01-0.5645 0.5645-1.235 0.8884-2.01 0.975v-0.4062c0-0.1218-0.04104-0.2244-0.1232-0.3066-0.08285-0.08285-0.185-0.1236-0.3066-0.1232-0.1215 3e-4 -0.224 0.04104-0.3066 0.1232-0.08253 0.08229-0.1232 0.1848-0.1232 0.3066v0.4062c-0.7756-0.08625-1.446-0.4104-2.01-0.975-0.5645-0.5645-0.89-1.235-0.9766-2.01h0.4062c0.1218 0 0.224-0.04104 0.3066-0.1232 0.08221-0.08285 0.123-0.185 0.1232-0.3066 3.01e-4 -0.1215-0.04076-0.224-0.1232-0.3066-0.08253-0.08254-0.1848-0.1232-0.3066-0.1232h-0.4062c0.08625-0.7756 0.4118-1.448 0.9766-2.011 0.5645-0.5645 1.235-0.8884 2.01-0.975zm0.4298 1.696v0.0016c-0.1215 2.89e-4 -0.224 0.04106-0.3066 0.1233-0.08253 0.08221-0.1232 0.1848-0.1232 0.3066v1.536c0 0.05761 0.0101 0.1123 0.0316 0.1659 0.0215 0.05362 0.05498 0.1024 0.09798 0.1454l1.084 1.087c0.08625 0.08602 0.1884 0.128 0.3066 0.128s0.2206-0.04201 0.3066-0.128c0.07881-0.08569 0.1185-0.1882 0.1185-0.3066s-0.03968-0.2167-0.1185-0.2955l-0.9669-0.9669v-1.367c5.6e-4 -0.1212-0.04047-0.2237-0.1232-0.3066-0.08285-0.08285-0.185-0.1236-0.3066-0.1232z" fill="#fdff00" stroke-width=".8091"/>
</svg>
