<svg version="1.1" viewBox="0 0 22 22" xmlns="http://www.w3.org/2000/svg">
 <defs>
  <linearGradient id="a" x1="1" x2="0" y2="1">
   <stop stop-color="#34c2ff" offset="0"/>
   <stop stop-color="#0079df" offset="1"/>
  </linearGradient>
 </defs>
 <g transform="translate(0) scale(1) translate(0) scale(1) translate(.000155 -1e-4) scale(1) translate(-1.225 -1.222) scale(1.111)" fill="url(#a)" stroke-width=".9">
  <path d="M5.386 2.082c-.353 0-.68.103-.963.272A6.6 6.6 0 0 0 2.786 2.1c-.652-.015-1.077.07-1.077.07s.842.644 1.813 1.477q-.03.162-.031.331a1.902 1.902 0 0 0 2.285 1.858c1.048 1.313 1.428 2.956 2.037 4.909.653 2.094 1.65 4.49 4.206 6.512a1.9 1.9 0 0 0 1.89 1.793c.315 0 .609-.085.87-.222 1.035.407 2.047.646 2.917.785 1.567.25 2.62.213 2.62.213s-.929-.514-2.252-1.27a52 52 0 0 1-2.258-1.37l.001-.035a1.9 1.9 0 0 0-1.898-1.895c-.236 0-.462.046-.67.125-2.006-1.639-2.7-3.383-3.297-5.3-.603-1.932-1.043-4.09-2.666-5.929q.008-.086.008-.173a1.9 1.9 0 0 0-1.898-1.896zm0 .76c.637 0 1.138.499 1.138 1.136s-.501 1.139-1.138 1.139-1.139-.502-1.139-1.14c0-.636.502-1.135 1.139-1.135m8.523 13.17c.637 0 1.138.5 1.138 1.138s-.501 1.139-1.138 1.139-1.136-.502-1.136-1.14c0-.636.499-1.137 1.136-1.137"/>
  <path d="m2.02 1.1-.625 2.14c1.028.3 1.842.64 2.502 1.013a1.509 1.509 0 0 1 1.337-1.776C4.352 1.94 3.295 1.473 2.022 1.1zm4.861 2.643c.012.077.024.155.024.236a1.51 1.51 0 0 1-1.422 1.508c.245.265.457.539.644.824.807 1.238 1.168 2.793 1.728 4.565s1.366 3.753 3.188 5.53q.63.615 1.424 1.19a1.5 1.5 0 0 1-.074-.444c0-.74.523-1.35 1.22-1.488a11 11 0 0 1-1.013-.854c-1.474-1.438-2.098-2.956-2.62-4.605-.521-1.65-.895-3.438-1.987-5.111A8 8 0 0 0 6.88 3.743zm8.495 13.03c.03.12.052.245.052.375 0 .762-.56 1.385-1.29 1.494 1.549.847 3.474 1.606 5.892 2.254l.576-2.153c-2.2-.59-3.894-1.258-5.23-1.97z" opacity=".5"/>
 </g>
</svg>
