<svg version="1.1" viewBox="0 0 22 22" xmlns="http://www.w3.org/2000/svg">
 <path transform="translate(-0) scale(1) translate(-0) scale(1) translate(7e-6 7e-6) scale(1)" d="M2.75 0A2.744 2.744 0 0 0 0 2.75v16.498a2.744 2.744 0 0 0 2.75 2.75h16.498a2.744 2.744 0 0 0 2.75-2.75V2.75A2.744 2.744 0 0 0 19.248 0zm0 1.375h16.498c.762 0 1.375.613 1.375 1.375v16.498c0 .762-.613 1.375-1.375 1.375H2.75a1.37 1.37 0 0 1-1.375-1.375V2.75c0-.762.613-1.375 1.375-1.375m0 1.375V5.5l1.375-1.375h3.437v8.249l-1.375 1.375h4.124l-1.374-1.375v-8.25h3.437L13.749 5.5V2.75zm12.137 8.485-3.888 3.888.005.006-.005.008 3.888 3.888.972-.972-2.24-2.242h5.63v-1.375H13.63l2.229-2.229z" fill="red"/>
</svg>
