<svg version="1.1" viewBox="0 0 22 22" xmlns="http://www.w3.org/2000/svg">
 <defs>
  <linearGradient id="a" x1="1" x2="0" y1="1">
   <stop stop-color="#2ad4ff" offset="0"/>
   <stop stop-color="#fd5" offset=".5"/>
   <stop stop-color="#b380ff" offset="1"/>
  </linearGradient>
 </defs>
 <path transform="translate(0) scale(1) translate(0) scale(1) translate(0) scale(1) translate(0) scale(1) translate(0) scale(1.375)" d="m2 2v2l1-1h1v3l-1 1h3l-1-1v-3h1l1 1v-2zm7 7v2l1-1h1v3l-1 1h3l-1-1v-3h1l1 1v-2z" fill="url(#a)"/>
 <path transform="translate(0) scale(1) translate(0) scale(1) translate(0) scale(1) translate(0) scale(1) translate(0) scale(1.375)" d="m2 0c-1.108 0-2 0.892-2 2v5c0 1.108 0.892 2 2 2h5c1.108 0 2-0.892 2-2v-5c0-1.108-0.892-2-2-2zm0 1h5c0.554 0 1 0.446 1 1v5c0 0.554-0.446 1-1 1h-5c-0.554 0-1-0.446-1-1v-5c0-0.554 0.446-1 1-1zm8 6v1h1v-1zm2 0v1h1v-1zm2 0v1c0.554 0 1 0.446 1 1h1c0-1.108-0.892-2-2-2zm-7 3v1h1v-1zm8 0v1h1v-1zm-8 2v1h1v-1zm8 0v1h1v-1zm-8 2c0 1.108 0.892 2 2 2v-1c-0.554 0-1-0.446-1-1zm8 0c0 0.554-0.446 1-1 1v1c1.108 0 2-0.892 2-2zm-5 1v1h1v-1zm2 0v1h1v-1z" fill="url(#a)"/>
</svg>
