<svg version="1.1" viewBox="0 0 22 22" xmlns="http://www.w3.org/2000/svg">
 <path transform="translate(0) scale(1) translate(0) scale(1) translate(0 .00035) scale(1)" d="M2.749 3.437v14.437h6.187c.38 0 .689.308.689.687v1.376c0 .38-.31.687-.689.687H.687A.687.687 0 0 1 0 19.937v-16.5c0-.38.307-.688.687-.688h1.374c.38 0 .688.309.688.688m13.75-1.375v1.375a.69.69 0 0 1-.687.688h-3.439v4.811c0 .38-.307.689-.687.689h-1.374a.69.69 0 0 1-.687-.689V4.125H6.187a.69.69 0 0 1-.688-.688V2.062c0-.38.308-.688.688-.688h9.625c.378 0 .687.308.687.688m.687 11.416 2.277-2.278c.27-.269.703-.269.973 0l1.362 1.361a.69.69 0 0 1 0 .973l-2.278 2.278 2.278 2.277a.69.69 0 0 1 0 .973l-1.362 1.36a.687.687 0 0 1-.973 0l-2.277-2.277-2.276 2.277a.69.69 0 0 1-.975 0l-1.36-1.36a.69.69 0 0 1 0-.973l2.277-2.277-2.277-2.278a.69.69 0 0 1 0-.973l1.36-1.36c.27-.27.706-.27.975 0z" fill="#ff355e"/>
</svg>
