<svg xmlns="http://www.w3.org/2000/svg" viewBox="0 0 22 22"><defs><linearGradient id="a" x1="47.03" x2="0" y1="6.608" y2="53.64" gradientTransform="matrix(.3504 0 0 .4676 .784 -3.09)" gradientUnits="userSpaceOnUse"><stop offset="0" stop-color="#0061ff"/><stop offset="1" stop-color="#60efff"/></linearGradient><linearGradient id="b" x1=".876" x2="55.3" y1="35.69" y2="35.69" gradientTransform="matrix(.2451 0 0 .2005 7.659 .53)" gradientUnits="userSpaceOnUse"><stop offset="0" stop-color="#d800bd"/><stop offset=".408" stop-color="#f92d7a"/><stop offset=".59" stop-color="#ff4a52"/><stop offset="1" stop-color="#ffb243"/></linearGradient></defs><path fill="url(#a)" d="M3.163.001q-1.006 0-1.692.7Q.784 1.4.784 2.405v17.21q0 1.006.687 1.693t1.692.687h11.72q.981 0 1.68-.687.7-.686.7-1.693v-.306q0-.5-.343-.844-.341-.345-.843-.345t-.848.345-.346.844v.306H3.163V2.406h6.356q.5 0 .844-.341.345-.343.345-.844 0-.502-.345-.86A1.13 1.13 0 0 0 9.519 0zm3.292 12.28q-.323 0-.54.215-.22.216-.22.54t.22.545q.217.22.54.219h3.544q.323 0 .54-.215.22-.215.22-.54 0-.324-.22-.544a.73.73 0 0 0-.54-.22zm0 3.038q-.323 0-.54.216-.22.215-.22.54 0 .324.22.544.217.22.54.219h5.571q.323 0 .542-.215.218-.215.218-.54 0-.324-.218-.544-.219-.22-.542-.22z" transform="translate(-.003)"/><path fill="url(#b)" fill-rule="evenodd" d="M13.9 2.23c-.642-.008-.915.206-1.269.505l-1.851 1.51h-.884c-1.032 0-1.8.873-1.925 1.77l-.001.013c-.117.933-.132 2.328 0 3.282.06.475.243.934.588 1.28.347.346.848.538 1.338.538h.885l1.897 1.54c.34.286.665.481 1.224.474.842.01 1.55-.61 1.787-1.4l.007-.025c.123-.458.133-.838.167-1.124.145-1.155.145-4.658 0-5.813-.036-.297-.052-.686-.166-1.12l-.008-.03c-.237-.79-.945-1.41-1.788-1.399zm5.305.074a.665.665 0 0 0-.536 1.045c.75 1.079 1.218 2.556 1.218 4.232s-.468 3.152-1.219 4.232a.665.665 0 0 0 1.092.76c.923-1.326 1.457-3.075 1.457-4.992s-.534-3.665-1.457-4.992a.67.67 0 0 0-.555-.286zm-5.278 1.695zl.004.006c-.016-.001-.016-.006-.048-.007zm.018.04h.002a.4.4 0 0 1 .036.086c.047.188.075.506.12.872V5c.051.411.051 4.959 0 5.372v.002c-.047.378-.062.65-.12.87a.4.4 0 0 1-.05.105l.02.01v.004h-.001a.1.1 0 0 1-.035.007v.001h.002v.001h-.04q.023 0 .038-.002l.016-.021c-.034-.013-.102-.028-.114-.038l-.012-.01-2.153-1.749a.9.9 0 0 0-.559-.198H9.896c-.057 0-.07-.003-.076-.008l-.007-.01c-.013-.013-.062-.073-.083-.246l-.002-.016c-.091-.644-.085-2.12 0-2.818.032-.22.045-.238.168-.238h1.2a.9.9 0 0 0 .56-.2L13.762 4.1l.013-.01c.006-.005.112-.03.168-.052zm3.299.015a.665.665 0 0 0-.537 1.045c.433.622.712 1.488.712 2.483 0 .994-.279 1.859-.712 2.483a.665.665 0 0 0 1.092.76c.605-.87.95-2.008.95-3.242 0-1.235-.345-2.372-.95-3.24a.67.67 0 0 0-.555-.286z" transform="translate(-.003)"/></svg>