<svg version="1.1" viewBox="0 0 22 22" xmlns="http://www.w3.org/2000/svg">
 <path transform="translate(-0) scale(1) translate(-0) scale(1) translate(.000365 -.001086) scale(1)" d="M1.384 10.94q-.593 0-.989-.413A1.4 1.4 0 0 1 0 9.52q0-.596.41-.988a1.4 1.4 0 0 1 1.005-.39h15.199q2.226-.001 3.807 1.564C22 11.27 22 12.013 22 13.497q0 2.258-1.58 3.853c-1.58 1.595-2.323 1.595-3.807 1.595h-2.649l.903.843q.15.391.064.806-.087.415-.395.722-.451.459-1.099.488c-.648.03-.787-.11-1.068-.391l-2.86-2.92a1.25 1.25 0 0 1-.33-.455 1.34 1.34 0 0 1-.12-.542q0-.297.12-.552c.12-.255.19-.326.33-.467l2.92-2.95q.446-.45 1.05-.39c.604.06.766.208 1.087.506q.309.327.38.722.072.397-.049.788l-.933.933h2.649q1.06 0 1.809-.753.749-.752.749-1.84 0-1.058-.75-1.806a2.47 2.47 0 0 0-1.808-.748zm0-7.916q-.593 0-.989-.412Q0 2.201 0 1.574 0 .977.41.586A1.4 1.4 0 0 1 1.415.195h17.967q.596 0 1.005.396.41.398.41.993 0 .628-.425 1.033-.425.407-1.02.407zm3.802 11.232c.046-.05.095-.09.145-.132.23-.171.496-.27.805-.27h.099a1.3 1.3 0 0 1 .929.41c.275.27.415.607.419 1 .004.394-.128.722-.397.993l-1.392 1.386 1.363 1.37c.277.27.423.606.44.984q.023.578-.406 1.008H7.19q-.418.42-1.017.42-.567-.001-.968-.37a.2.2 0 0 1-.049-.041l-1.362-1.37-1.363 1.37a1.33 1.33 0 0 1-.99.394q-.585 0-1.001-.419c-.003 0-.007-.008-.01-.008a1.35 1.35 0 0 1-.405-.984c-.002-.337.1-.623.297-.87a1 1 0 0 1 .109-.114l1.362-1.37-1.369-1.361a1.43 1.43 0 0 1-.423-1.01c-.003-.384.132-.729.418-1.016a1.34 1.34 0 0 1 1.012-.41 1.44 1.44 0 0 1 1 .435l1.363 1.36z" fill="#ff3b00"/>
</svg>
