<svg version="1.1" viewBox="0 0 22 22" xmlns="http://www.w3.org/2000/svg">
 <path transform="translate(0) scale(1) translate(0) scale(1) translate(2.7e-5 -.00042) scale(1)" d="M6.02 6.446c.163-.397.245-.603.664-1.09.684-.745 1.662-1.207 2.595-1.265.93-.056 1.96.286 2.728.943.744.684 1.207 1.662 1.265 2.593.055.93-.287 1.96-.944 2.73a4 4 0 0 1-1.04.812q.03.067.034.14a.42.42 0 0 1-.105.304l-1.113 1.253a.42.42 0 0 1-.592.036l-8.78-7.78a.42.42 0 0 1-.034-.592L1.81 3.273a.42.42 0 0 1 .288-.14c.11-.007.22.031.304.105zm-.87 7.477 3.116 1.243a.416.416 0 0 1 .233.545l-.622 1.555a.42.42 0 0 1-.36.262 4 4 0 0 1-.258 1.295c-.39.932-1.157 1.7-2.013 2.07-.858.368-1.941.395-2.888.036-.932-.39-1.7-1.157-2.066-2.013-.369-.858-.396-1.942-.037-2.888.164-.399.409-.784.704-1.114a.42.42 0 0 1-.084-.444l.622-1.556a.42.42 0 0 1 .545-.233zM20.239 1.558l-1.022 1.329a.4.4 0 0 1-.278.16.42.42 0 0 1-.31-.085 1.06 1.06 0 0 0-.93-.251c-.378.03-.62.199-.835.479-.217.281-.317.558-.25.93.03.377.2.619.48.835s.557.317.93.25c.362-.03.621-.181.83-.48a.42.42 0 0 1 .587-.075l1.33 1.022a.42.42 0 0 1 .076.588 4.04 4.04 0 0 1-2.504 1.438c-1.006.11-2.049-.186-2.785-.756-.74-.57-1.289-1.503-1.437-2.502-.11-1.006.186-2.046.755-2.785.56-.726 1.472-1.271 2.454-1.428a.3.3 0 0 1 .05-.01c.102-.013.213-.022.318-.027a4.05 4.05 0 0 1 2.466.781c.182.141.216.404.075.587zM8.562 7.025a1.16 1.16 0 0 0-.314.91c.022.354.127.629.423.865.27.263.556.334.91.313.355-.021.63-.127.866-.422.263-.27.334-.555.314-.908-.022-.352-.128-.627-.423-.864a1.06 1.06 0 0 0-.908-.313c-.357.007-.619.136-.868.42zm-5.51 9.357c-.226.15-.372.313-.468.578-.155.344-.125.637.014.962.14.325.332.548.69.672.344.156.636.126.96-.013.326-.14.549-.332.673-.69.156-.344.126-.636-.014-.96-.14-.326-.333-.549-.69-.673a1.1 1.1 0 0 0-.454-.09 1.1 1.1 0 0 0-.71.214zm15.92-3.565q.09-.087.183-.16a1.63 1.63 0 0 1 1.011-.346h.042l.08.001a1.66 1.66 0 0 1 1.167.513q.517.518.526 1.257.008.739-.498 1.245l-1.746 1.744 1.71 1.711q.52.52.55 1.242.032.722-.507 1.26-.002.001-.003.002a1.74 1.74 0 0 1-1.276.524q-.708 0-1.213-.459l-.062-.06-1.71-1.71-1.707 1.71a1.67 1.67 0 0 1-1.244.5 1.73 1.73 0 0 1-1.255-.525l-.012-.012a1.7 1.7 0 0 1-.508-1.237 1.65 1.65 0 0 1 .508-1.235l1.71-1.71L13 15.354q-.51-.51-.53-1.26c-.004-.488.165-.92.524-1.28.36-.36.79-.526 1.27-.513a1.8 1.8 0 0 1 1.256.55l1.708 1.71z" fill="red"/>
</svg>
