<svg version="1.1" viewBox="0 0 22 22" xmlns="http://www.w3.org/2000/svg">
 <path transform="translate(0) scale(1) translate(0) scale(1) translate(0) scale(1)" d="M2.75 2.062v13.749H0l4.125 5.5 4.124-5.5H5.5V2.062zm6.874 12.374v1.375h2.75v4.125h-2.75v1.374h6.874c2.75 0 2.75-3.437 2.75-3.437s0-3.437-2.75-3.437zm4.125 1.375h2.062c2.062 0 2.062 2.062 2.062 2.062s0 2.063-2.062 2.063h-2.062zm4.124-11.686s0-.688-.687-.688-.688.688-.688.688v4.124L14.78 6.187h-1.031V1.375s0-.688-.688-.688-.687.688-.687.688v4.812h-2.75V4.125s0-.688-.687-.688-.688.688-.688.688v2.062s0 1.375 1.375 1.375h2.75v4.812s0 .687.687.687.688-.687.688-.687V7.562h.343s1.719 2.75 2.406 2.75c1.375 0 1.375-1.375 1.375-1.375zm4.125 1.374c0-.687-.688-.687-.688-.687h-.687V1.375c0-.688-.687-.688-.687-.688H18.56s-.688 0-.688.688.688.687.688.687h.687v9.624h-.687s-.688 0-.688.688.688.687.688.687h1.375s.687 0 .687-.687V6.187h.687s.688 0 .688-.688" fill="#00ff80"/>
</svg>
