<svg version="1.1" viewBox="0 0 22 22" xmlns="http://www.w3.org/2000/svg">
 <defs>
  <linearGradient id="b" x2="0" y2="1">
   <stop stop-color="#01ff01" offset="0"/>
   <stop stop-color="#1bc100" offset="1"/>
  </linearGradient>
  <linearGradient id="a" x1="1" x2="0" y1=".5" y2=".5">
   <stop stop-color="#fda700" offset="0"/>
   <stop stop-color="#ffde00" offset="1"/>
  </linearGradient>
  <linearGradient id="f" x2="0" y2="1">
   <stop stop-color="#ff00d2" offset="0"/>
   <stop stop-color="#b800ff" offset="1"/>
  </linearGradient>
  <linearGradient id="e" x1="1" x2="0" y1="1">
   <stop stop-color="#ff0014" offset="0"/>
   <stop stop-color="#ffe307" offset="1"/>
  </linearGradient>
  <linearGradient id="c" x1="1" x2="0" y1=".5" y2=".5">
   <stop stop-color="#b2fefa" offset="0"/>
   <stop stop-color="#0ed2f7" offset="1"/>
  </linearGradient>
  <linearGradient id="d" y1="1">
   <stop stop-color="#ff0001" offset="0"/>
   <stop stop-color="#ec3dc4" offset="1"/>
  </linearGradient>
  <linearGradient id="g" x1="1" x2="0" y1="1">
   <stop stop-color="#ff00b8" offset="0"/>
   <stop stop-color="#00c4ff" offset="1"/>
  </linearGradient>
 </defs>
 <path transform="translate(0) scale(1) translate(0 -2e-5) scale(1) translate(0 -2.1e-5) scale(.3437) translate(.002595 -.01304) scale(2.909) matrix(1.108 0 0 1.108 .8328 -.969)" d="m6.5 13.01c-0.02964 1.32e-4 -0.05961 0.0031-0.0918 0.0098-0.8692 0.1792-1.751 0.448-2.742 1.535-0.6524 0.716-0.7841 2.147-0.1758 2.9 0.4166 0.516 1.364 0.579 1.965 0.2988 0.9682-0.4509 1.562-1.675 1.67-2.736 0.06501-0.6374-0.00814-1.875-0.5371-1.998h-0.00195c-0.02722-0.0061-0.0563-0.0099-0.08594-0.0098z" fill="url(#f)"/>
 <path transform="translate(0) scale(1) translate(0 -2e-5) scale(1) translate(0 -2.1e-5) scale(.3437) translate(.002595 -.01304) scale(2.909) matrix(1.108 0 0 1.108 .8328 -.969)" d="m8.896 1.18c-0.8252 0.02075-1.641 0.4627-2.535 1.32-1.135 1.087 0.8144 1.646 0.2402 3.109-0.793 2.021-2.923 0.6072-3.406 2.723-0.3069 1.34 0.1012 3.658 1.426 4.023 0.9961 0.2748 1.034-1.687 2.908-0.3652 1.874 1.322 0.3299 3.101 0.752 4.867 0.422 1.766 1.708 1.325 2.648 1.131 1.195-0.2469 0.8341-2.275 2.522-2.498 1.688-0.2224 1.249 1.636 3.109-0.04687 3.111-2.812-3.729-3.746-4.498-5.445 0.1073-2.984 4.077 1.431 5.203-0.2715 0.6683-1.011 0.3981-2.884-0.5879-3.588-0.7242-0.5171-3.788 0.414-4.543-0.05664-1.406-0.8762 0.5934-2.611-0.6504-3.707-0.9296-0.8182-1.762-1.216-2.586-1.195z" fill="url(#g)"/>
 <path transform="translate(0) scale(1) translate(0 -2e-5) scale(1) translate(0 -2.1e-5) scale(.3437) translate(.002595 -.01304) scale(2.909) matrix(1.108 0 0 1.108 .8328 -.969)" d="m15.24 1.346c-0.06814 0.00118-0.1338 0.0083-0.1973 0.01953-0.8178 0.1445-1.51 0.9429-1.805 1.719-0.1769 0.4663-0.3684 1.414 0.0059 1.611 0.03871 0.02036 0.08323 0.03217 0.1348 0.03516 0.6889 0.0398 1.403 0.01624 2.365-0.6016 0.6337-0.4069 1.022-1.455 0.7168-2.143-0.1832-0.4124-0.744-0.647-1.221-0.6387z" fill="url(#d)"/>
 <path transform="translate(0) scale(1) translate(0 -2e-5) scale(1) translate(0 -2.1e-5) scale(.3437) translate(.002595 -.01304) scale(2.909) matrix(1.108 0 0 1.108 .8328 -.969)" d="m17.28 10.65c-0.2062-0.0074-0.5167 0.0097-0.7598 0.07031-0.243 0.06056-0.4189 0.1643-0.3574 0.3281 0.1535 0.4111 0.3577 0.8264 1.045 1.272 0.3674 0.2376 0.9891 0.2972 1.424 0.1445 0.1005-0.03532 0.1902-0.08405 0.2656-0.1426 0.2754-0.2137 0.2593-0.6688 0.0625-0.9492-0.3168-0.451-1.058-0.6998-1.68-0.7227z" fill="url(#a)"/>
 <path transform="translate(0) scale(1) translate(0 -2e-5) scale(1) translate(0 -2.1e-5) scale(.3437) translate(.002595 -.01304) scale(2.909) matrix(1.108 0 0 1.108 .8328 -.969)" d="m13.79 16.62c-0.02535-3.72e-4 -0.05033 2.38e-4 -0.07422 2e-3 -0.1274 0.0092-0.2317 0.04955-0.2969 0.1328-0.02694 0.03445-0.04451 0.0768-0.05664 0.127-0.1622 0.6708-0.2681 1.378 0.168 2.436 0.2873 0.6961 1.251 1.264 1.982 1.086 0.501-0.122 0.8589-0.768 0.8613-1.283 0.0038-0.8301-0.66-1.654-1.371-2.082-0.3004-0.1809-0.8326-0.4124-1.213-0.418z" fill="url(#b)"/>
 <path transform="translate(0) scale(1) translate(0 -2e-5) scale(1) translate(0 -2.1e-5) scale(.3437) translate(.002595 -.01304) scale(2.909) matrix(1.108 0 0 1.108 .8328 -.969)" d="m2.652 1.977c-0.5428-0.00858-1.08 0.1402-1.44 0.4648-0.492 0.4447-0.5026 1.396-0.1894 1.98 0.504 0.9416 1.758 1.465 2.824 1.514 0.64 0.02943 1.872-0.1135 1.965-0.6484v-0.00195c0.00906-0.05503 0.00509-0.1142-0.01172-0.1777-0.2273-0.8579-0.543-1.721-1.684-2.65-0.3756-0.3058-0.922-0.4719-1.465-0.4805z" fill="url(#c)"/>
 <path transform="translate(0) scale(1) translate(0 -2e-5) scale(1) translate(0 -2.1e-5) scale(.3437) translate(.002595 -.01304) scale(2.909) matrix(1.108 0 0 1.108 .8328 -.969)" d="m0.6738 9.207c-0.4074 0.00123-0.8953 0.1928-1.186 0.4727-0.0767 0.07398-0.1394 0.1556-0.1836 0.2402-0.1614 0.309 0.04415 0.7157 0.3398 0.8887 0.4758 0.2781 1.253 0.1972 1.828-0.04102 0.1905-0.07913 0.4663-0.2245 0.6621-0.3809 0.1957-0.1562 0.3116-0.3239 0.1875-0.4473-0.3107-0.3099-0.6703-0.6022-1.48-0.7207-0.05412-0.007876-0.1098-0.0119-0.168-0.01172z" fill="url(#e)"/>
</svg>
