<svg version="1.1" viewBox="0 0 22 22" xmlns="http://www.w3.org/2000/svg">
 <defs>
  <linearGradient id="a" x1="1" x2="0" y1="1">
   <stop stop-color="#6100ff" offset="0"/>
   <stop stop-color="#ce04d2" offset=".25"/>
   <stop stop-color="#f9377a" offset=".5"/>
   <stop stop-color="#e36d00" offset=".75"/>
   <stop stop-color="#fec600" offset="1"/>
  </linearGradient>
 </defs>
 <path transform="translate(.001871 .001681) scale(1) translate(-.00115 5.2e-5) scale(1) translate(-1.28 -1.281) scale(1.023)" d="m16.02 1.252c-0.2481-0.00122-0.4988 0.01972-0.7503 0.06491-0.2001 0.03598-0.3865 0.08732-0.7312 0.1814l-7.742 2.113c-1.333 0.3638-2.069 0.5404-2.715 0.989-1.058 0.7348-1.724 1.917-1.819 3.209-0.05633 0.7659 0.1466 1.484 0.4868 2.774v4.416c0 1.65-0.004648 2.903 0.1394 3.943 0.144 1.04 0.4723 1.918 1.144 2.57 0.6719 0.6527 1.559 0.9622 2.623 1.102 1.064 0.1389 2.35 0.1356 4.049 0.1356h3.089c1.698 0 2.985 0.003446 4.049-0.1356 1.064-0.1389 1.951-0.4485 2.623-1.102 0.6719-0.6527 0.9996-1.53 1.144-2.57s0.1375-2.294 0.1375-3.943v-1.501c0-0.7071 0.005646-1.251-0.063-1.747-0.06863-0.4958-0.2464-0.9934-0.6167-1.354-0.3704-0.3598-0.8641-0.5242-1.367-0.5899-0.5031-0.06571-1.063-0.05919-1.791-0.05919h-8.811l5.583-1.524 0.02864 0.009546 0.005728-0.01909 4.153-1.134c0.09854-0.0269 0.1624-0.04315 0.252-0.07637 0.792-0.2937 1.257-1.12 1.113-1.949-0.01613-0.0931-0.0347-0.1574-0.0611-0.2577-0.09232-0.3512-0.1414-0.541-0.21-0.7331-0.6064-1.698-2.201-2.806-3.939-2.814h-0.003819zm0.504 1.548c0.9061 0.1791 1.683 0.8275 2.02 1.77 0.03461 0.09696 0.07952 0.2598 0.1718 0.6109 0.0264 0.1003 0.0355 0.1382 0.03437 0.1317 0.02312 0.1335-0.04742 0.2478-0.1566 0.2883h-0.00191c0.0085-0.00316-0.02569 0.007486-0.1241 0.03437l-3.179 0.8687 1.235-3.704zm-1.632 0.1566-1.34 4.021-5.233 1.43 1.342-4.023 5.231-1.428zm-6.969 1.902-1.34 4.025-2.505 0.6835c-0.1567-0.6552-0.3433-1.364-0.3227-1.644 0.06225-0.8464 0.5002-1.616 1.182-2.089 0.3251-0.2259 0.922-0.4112 2.255-0.7751l0.7312-0.2005zm-3.673 6.392h13.66c0.7279 0 1.26 0.003601 1.598 0.04773 0.3378 0.04412 0.4356 0.09809 0.5174 0.1776 0.08193 0.07959 0.1311 0.1599 0.1756 0.4811 0.04445 0.3211 0.04773 0.8355 0.04773 1.543v1.501c0 1.65-0.004299 2.872-0.1241 3.738-0.1198 0.8658-0.3211 1.327-0.7045 1.699-0.3834 0.3724-0.8728 0.5738-1.772 0.6911-0.8985 0.1173-2.156 0.1203-3.855 0.1203h-3.091c-1.698 0-2.958-0.00298-3.857-0.1203-0.8985-0.1173-1.388-0.3187-1.772-0.6911-0.3834-0.3725-0.5828-0.8336-0.7026-1.699s-0.1241-2.088-0.1241-3.738l0.003818-3.75zm3.75 5.999a0.75 0.75 0 0 0-0.7503 0.7503 0.75 0.75 0 0 0 0.7503 0.7503h2.999a0.75 0.75 0 0 0 0.7503-0.7503 0.75 0.75 0 0 0-0.7503-0.7503h-2.999z" fill="url(#a)"/>
</svg>
