<svg xmlns="http://www.w3.org/2000/svg" viewBox="0 0 22 22"><path fill="#06f" d="M1.571 0C.701 0 .001.7.001 1.571s.7 1.571 1.57 1.571h1.571v15.71h-1.57c-.871 0-1.572.7-1.572 1.57s.7 1.571 1.571 1.571h6.285c.87 0 1.57-.7 1.57-1.57s-.7-1.571-1.57-1.571H6.285V3.142h1.571c.87 0 1.57-.7 1.57-1.57S8.727 0 7.857 0zM11 12.566c-.87 0-1.571.7-1.571 1.57v3.143c0 .871.7 1.571 1.571 1.571h9.428c.87 0 1.57-.7 1.57-1.57v-3.144c0-.87-.7-1.57-1.57-1.57s-1.571.7-1.571 1.57v1.571h-6.285v-1.57c0-.871-.7-1.571-1.57-1.571z"/></svg>