<svg xmlns="http://www.w3.org/2000/svg" viewBox="0 0 22 22"><path fill="#ff00df" d="M22.004.648V4.53c0 .357-.29.647-.647.647h-3.883a.647.647 0 0 1-.647-.647v-.637c-3.531.136-6.468 1.476-8.963 3.97s-3.833 5.434-3.97 8.963h.637c.357 0 .647.29.647.647v3.883c0 .357-.29.647-.647.647H.648A.647.647 0 0 1 0 21.357v-3.883c0-.357.29-.647.647-.647h.664c.193-4.174 1.83-7.9 4.722-10.793s6.617-4.53 10.793-4.722V.648c0-.357.29-.647.647-.647h3.883c.357 0 .647.29.647.647M1.942 20.063h1.294v-1.295H1.942zM18.768 3.236h1.295V1.942h-1.295z"/></svg>