<svg xmlns="http://www.w3.org/2000/svg" viewBox="0 0 22 22"><defs><linearGradient id="a" y1="1"><stop offset="0" stop-color="#02aa93"/><stop offset=".485" stop-color="#33d38a"/><stop offset="1" stop-color="#67ff80"/></linearGradient></defs><path fill="url(#a)" d="M19.5 11c0 2.308-.98 4.497-2.492 6.008C15.497 18.52 13.308 19.5 11 19.5s-4.497-.98-6.008-2.492C3.48 15.497 2.5 13.308 2.5 11s.98-4.497 2.492-6.008C6.503 3.48 8.692 2.5 11 2.5s4.497.98 6.008 2.492A8.6 8.6 0 0 1 19.5 11M6.402 6.402C5.199 7.604 4.5 9.166 4.5 11s.699 3.396 1.902 4.598C7.604 16.801 9.166 17.5 11 17.5s3.396-.699 4.598-1.902C16.801 14.396 17.5 12.834 17.5 11s-.699-3.396-1.902-4.598C14.396 5.199 12.834 4.5 11 4.5s-3.396.699-4.598 1.902M10.5 6.5v7.493c-.031.312-.24.735-.512.887-.289.162-.76.129-1-.014S8.537 14.332 8.5 14V9.803l-.164.245c-.199.244-.609.48-.92.455-.33-.026-.704-.315-.824-.567-.119-.253-.077-.694.076-.991l2-2.999c.176-.215.526-.409.801-.446.246.015.568.128.727.282s.281.472.304.718m1.984.492c.246.019.567.137.723.293s.274.469.293.715v4.197l.164-.245c.199-.244.609-.48.92-.455.33.026.704.315.824.567.119.253.077.694-.076.991l-2 3c-.08.107-.216.244-.332.311-.286.165-.758.14-1 0s-.458-.535-.5-.866V8.008c.018-.241.131-.556.282-.712s.463-.278.702-.304" transform="translate(-3.235 -3.235)scale(1.294)"/></svg>