<svg version="1.1" viewBox="0 0 22 22" xmlns="http://www.w3.org/2000/svg">
 <defs>
  <linearGradient id="a" x1="1" x2="0" y1="1">
   <stop stop-color="#07f" offset="0"/>
   <stop stop-color="#00f7ff" offset="1"/>
  </linearGradient>
 </defs>
 <path transform="translate(0 .00031) scale(.9999) matrix(1.158 0 0 1.158 -2.316 -2.895)" d="m16.5 9a1 1 0 0 0-0.9316 0.6367l-3.5 9a1 1 0 0 0 0.5684 1.295 1 1 0 0 0 1.295-0.5684l0.5293-1.363h4.078l0.5293 1.363a1 1 0 0 0 1.295 0.5684 1 1 0 0 0 0.5684-1.295l-3.5-9a1 1 0 0 0-0.9316-0.6367zm0 3.76 1.26 3.24h-2.52z" fill="url(#a)"/>
 <path transform="translate(0 .00031) scale(.9999) matrix(1.158 0 0 1.158 -2.316 -2.895)" d="m7.5 4a1 1 0 0 0-1 1v1h-3.5a1 1 0 0 0-1 1 1 1 0 0 0 1 1h5.785c-0.1777 0.9743-0.5905 2.01-1.242 3.057l-1.85-1.777a1 1 0 0 0-1.414 0.02734 1 1 0 0 0 0.02734 1.414l1.996 1.918c-0.7296 0.6708-1.538 1.206-2.48 1.377a1 1 0 0 0-0.8066 1.162 1 1 0 0 0 1.162 0.8066c1.425-0.2577 2.572-1.041 3.553-1.973l1.777 1.709a1 1 0 0 0 1.412-0.02734 1 1 0 0 0-0.02734-1.414l-1.881-1.809c1.002-1.447 1.595-2.996 1.787-4.471h1.201a1 1 0 0 0 1-1 1 1 0 0 0-1-1h-3.5v-1a1 1 0 0 0-1-1z" fill="url(#a)"/>
</svg>
