<svg version="1.1" viewBox="0 0 22 22" xmlns="http://www.w3.org/2000/svg">
 <path transform="translate(-0) scale(1) translate(-0) scale(1) translate(5e-4) scale(1)" d="M.785 0v1.57l3.142 2.618L7.07 1.57l3.141 2.617 3.142-2.617 3.142 2.617 1.57-1.31v2.62l-1.57-1.31-3.142 2.62 3.142 2.617 1.57-1.307v4.449h1.572V0zm12.567 6.808-3.142-2.62-3.141 2.62 3.141 2.617zM10.21 9.425H.785v1.57h10.996v1.572h1.571V9.425zm-6.283 0L7.07 6.808l-3.142-2.62-3.142 2.62zm10.996 3.142v3.141h-3.142v3.142h3.142v3.142l6.283-4.713zM.785 15.708v3.142h3.142v-3.142zm4.713 0v3.142h4.712v-3.142z" fill="#0f0"/>
</svg>
