<svg xmlns="http://www.w3.org/2000/svg" viewBox="0 0 22 22"><defs><linearGradient id="a" y1="1"><stop offset="0" stop-color="#18aefa"/><stop offset="1" stop-color="#83e1ff"/></linearGradient></defs><path fill="url(#a)" d="M189-95q-39.795 0-66.9-27.1C94.995-149.2 95-162.47 95-189v-244c0-25.83 9.033-47.96 27.1-66.38C140.17-517.79 162.47-527 189-527h244c25.83 0 47.96 9.207 66.38 27.62C517.79-480.96 527-458.83 527-433v244q0 39.795-27.62 66.9C480.96-104.03 458.83-95 433-95zm-47.56-676q-19.44 0-32.94-14.06C95-799.12 95-805.6 95-818.56s4.62-24.11 13.86-33.44 20.24-14 33-14 23.81 4.747 33.14 14.24 14 20.81 14 33.94c0 12.85-4.687 23.86-14.06 33.04Q160.88-771 141.44-771m169.4 0c-12.85 0-23.86-4.687-33.05-14.06q-13.77-14.06-13.77-33.5c0-19.44 4.687-24.11 14.06-33.44s20.54-14 33.5-14 24.11 4.747 33.44 14.24 14 20.81 14 33.94c0 12.85-4.747 23.86-14.24 33.04-9.493 9.187-20.81 13.78-33.94 13.78m169 0c-13.21 0-24.32-4.687-33.32-14.06s-13.5-20.54-13.5-33.5 4.56-24.11 13.68-33.44q13.67-14 33.5-14c13.21 0 24.32 4.747 33.32 14.24s13.5 20.81 13.5 33.94c0 12.85-4.56 23.86-13.68 33.04Q499.67-771 479.84-771m169.6 0c-12.96 0-24.11-4.687-33.44-14.06s-14-20.54-14-33.5 4.747-24.11 14.24-33.44 20.81-14 33.94-14c12.85 0 23.86 4.747 33.04 14.24 9.187 9.493 13.78 20.81 13.78 33.94 0 12.85-4.687 23.86-14.06 33.04Q668.88-771 649.44-771m168.4 0c-12.85 0-23.86-4.687-33.04-14.06q-13.78-14.06-13.78-33.5c0-19.44 4.687-24.11 14.06-33.44s20.54-14 33.5-14 24.11 4.747 33.44 14.24 14 20.81 14 33.94c0 12.85-4.747 23.86-14.24 33.04-9.493 9.187-20.81 13.78-33.94 13.78M649.44-95c-12.96 0-24.11-4.62-33.44-13.86s-14-20.24-14-33 4.747-23.81 14.24-33.14 20.81-14 33.94-14c12.85 0 23.86 4.687 33.04 14.06Q697-160.88 697-141.44c0 19.44-4.687 23.94-14.06 32.94S662.4-95 649.44-95m-508-507q-19.44 0-32.94-14.24C95-630.48 95-637.05 95-650.18c0-12.85 4.62-23.86 13.86-33.04q13.86-13.78 33-13.78c19.14 0 23.81 4.687 33.14 14.06s14 20.54 14 33.5-4.687 24.11-14.06 33.44-20.54 14-33.5 14m676.4 0c-12.85 0-23.86-4.747-33.04-14.24-9.187-9.493-13.78-20.81-13.78-33.94 0-12.85 4.687-23.86 14.06-33.04Q799.14-697 818.58-697c19.44 0 24.11 4.687 33.44 14.06s14 20.54 14 33.5-4.747 24.11-14.24 33.44-20.81 14-33.94 14m0 169c-12.85 0-23.86-4.56-33.04-13.68q-13.78-13.67-13.78-33.5c0-13.21 4.687-24.32 14.06-33.32s20.54-13.5 33.5-13.5 24.11 4.56 33.44 13.68q14 13.67 14 33.5c0 13.21-4.747 24.32-14.24 33.32S830.97-433 817.84-433m0 169c-12.85 0-23.86-4.687-33.04-14.06q-13.78-14.06-13.78-33.5c0-19.44 4.687-24.11 14.06-33.44s20.54-14 33.5-14 24.11 4.747 33.44 14.24 14 20.81 14 33.94c0 12.85-4.747 23.86-14.24 33.05-9.493 9.18-20.81 13.77-33.94 13.77m0 169c-12.85 0-23.86-4.62-33.04-13.86q-13.78-13.86-13.78-33c0-19.14 4.687-23.81 14.06-33.14s20.54-14 33.5-14 24.11 4.687 33.44 14.06 14 20.54 14 33.5-4.747 23.94-14.24 32.94S830.97-95 817.84-95m-549.8-113.3c.524 9.12 4.802 19.8 10.69 26.68 6.92 6.14 17.66 11.03 26.86 11.03s19.92-4.83 26.89-10.92c6.042-6.91 10.41-17.63 10.94-26.79v-159h53.08c9.201-.53 19.84-4.86 26.73-10.86 6.017-6.77 10.96-17.32 10.96-26.68 0-9.27-4.869-20-10.87-26.9-6.936-6.09-17.65-10.43-26.82-10.95H215c-9.175.52-19.79 4.76-26.61 10.59-5.966 6.82-11.08 17.59-11.08 26.95 0 9.3 4.906 19.91 10.92 26.74 6.981 6.21 17.57 10.58 26.78 11.11h53.08z" transform="translate(-2.71 24.707)scale(.02853)"/></svg>