<svg version="1.1" viewBox="0 0 22 22" xmlns="http://www.w3.org/2000/svg">
 <defs>
  <linearGradient id="a" x1="1" x2="0" y2="1">
   <stop stop-color="#ffab00" offset=".19"/>
   <stop stop-color="#ff4b2b" offset=".548"/>
   <stop stop-color="#ff004c" offset=".83"/>
  </linearGradient>
 </defs>
 <path transform="translate(.000229 7.5e-5) scale(1) translate(-.001)" d="M11 0a.65.65 0 0 0-.543.283L7.4 4.87c-.278.418.041 1.014.543 1.014h6.113c.502 0 .82-.596.541-1.014L11.542.283A.64.64 0 0 0 11.001 0zM5.203 7.297a.6.6 0 0 0-.334.104L.285 10.456a.663.663 0 0 0 0 1.086l4.584 3.055c.418.278 1.016-.04 1.016-.541V7.943a.64.64 0 0 0-.353-.563.7.7 0 0 0-.329-.082zm11.59 0a.7.7 0 0 0-.328.082.64.64 0 0 0-.352.563v6.115c0 .501.596.817 1.014.539l4.584-3.053a.663.663 0 0 0 0-1.086L17.127 7.4a.6.6 0 0 0-.334-.102zM11.006 8.84c-1.188 0-2.158.97-2.158 2.158s.97 2.16 2.158 2.16 2.16-.972 2.16-2.16-.972-2.158-2.16-2.158m-3.055 7.275c-.502 0-.821.596-.543 1.014l3.057 4.582a.66.66 0 0 0 1.084 0l3.055-4.582c.278-.417-.04-1.014-.541-1.014z" fill="url(#a)"/>
</svg>
