<svg version="1.1" viewBox="0 0 22 22" xmlns="http://www.w3.org/2000/svg">
 <path transform="translate(0) scale(1) translate(0) scale(1) translate(-.000732 -.001) scale(1)" d="M5.533 14.164.357 11.576a.647.647 0 0 1 0-1.156l5.176-2.588a.647.647 0 0 1 .936.578v5.176a.648.648 0 0 1-.936.578m16.106-2.588-5.176 2.588a.647.647 0 0 1-.937-.578V8.41a.648.648 0 0 1 .937-.578l5.176 2.588a.647.647 0 0 1 0 1.156m-8.7-.578c0 .49-.253 1.057-.568 1.373s-.883.568-1.373.568-1.057-.253-1.373-.568-.568-.883-.568-1.373.252-1.057.568-1.373.883-.568 1.373-.568 1.057.252 1.373.568.568.883.568 1.373" fill="#ff00a8"/>
</svg>
