<svg xmlns="http://www.w3.org/2000/svg" viewBox="0 0 22 22"><defs><linearGradient id="a" x1="1" x2="0" y1="1"><stop offset="0" stop-color="#ff0002"/><stop offset="1" stop-color="#ff0050"/></linearGradient></defs><path fill="url(#a)" d="m153-731 325 193 325-193zm-4 584q-39.795 0-66.9-27.1C54.995-201.2 55-214.47 55-241v-490c0-26.81 9.033-49.34 27.1-67.61Q109.205-826 149-826h659c26.81 0 49.34 9.13 67.61 27.39C893.87-780.34 903-757.81 903-731l.717 159.8c0 13.17-5.227 24.29-15.68 33.37-10.45 9.087-25.28 13.63-44.5 13.63-9.6 0-17.8-3.35-24.61-10.05s-10.21-14.68-10.21-23.95L808-652.05l-306.8 183.8c-3.947 2.36-11.6 4.097-22.97 5.21q-7.46 0-12.36-1-4.91-1-10.91-4l-306-184v411h353.8c13.17 0 24.29 4.56 33.38 13.68q13.62 13.67 13.62 33.5c0 13.21-4.54 24.32-13.62 33.32-9.087 9-20.21 13.5-33.38 13.5zm593 0c-17.86 0-34.94-4.87-49.99-14.04-14.86-9.16-25.5-19.61-35.1-33.05l-22.22 12.7c-5.61 3.14-12.37 4.17-18.44 2.88-6.083-1.71-11.58-6.05-14.97-11.77-2.792-5.32-3.589-12.04-2.139-18.33 1.78-6.25 5.956-11.91 11.41-15.33l24.87-14.62c-.613-2.02-.861-2.77-1.591-6.09-.729-3.4-.797-4.17-1.083-6.36h-28.04c-6.444-.17-12.82-2.71-17.4-7-4.286-4.57-7.052-10.96-7.052-17.45 0-6.39 2.767-12.8 7.054-17.35 4.544-4.28 10.91-6.9 17.39-7.09h28.08c.281-2 .314-2.54 1.045-5.86.727-3.39 1.024-4.36 1.668-6.57l-25.17-14.97c-5.52-3.17-9.739-8.7-11.42-15.04-1.292-6.26-.433-13.05 2.327-18.63 3.16-5.45 8.635-9.66 14.83-11.36 6.192-1.29 12.94-.3 18.53 2.76l22.17 12.67c1.447-2.09 1.955-2.91 4.63-5.87l5.486-6.1c-.955-2.71-1.534-4.52-2.288-8.41-.734-3.83-1.127-8.04-1.127-12.17 0-7.91 1.508-16.01 4.259-23.51 2.794-7.42 5.375-11.89 9.109-17.17l-11.91-11.58c-4.421-4.62-7.284-10.94-7.284-17.21 0-6.19 2.874-12.53 7.28-17.21 4.598-4.33 10.89-7.11 17.14-7.65 6.395-.1 12.88 2.37 17.63 6.84l14.63 14.63c3.785-1.66 6.614-2.69 11.68-4.01 5.128-1.3 10.66-2.07 15.99-2.07 5.324 0 10.85.77 15.99 2.07 5.062 1.32 7.921 2.36 11.72 4.02l14.58-14.23c4.715-4.45 11.15-7 17.52-7.01 6.371.3 12.69 3.12 17.29 7.44 4.393 4.67 7.244 10.98 7.244 17.18 0 6.28-2.848 12.57-7.258 17.19l-12.05 12.04c3.533 5.24 6.012 9.64 8.794 16.87 2.749 7.34 4.271 15.46 4.271 23.37 0 4.09-.324 8.17-.897 11.86-.594 3.6-1.071 5.48-1.845 8.19 2.52 2.85 3.183 3.68 5.446 6.47 2.298 2.94 2.762 3.68 4.082 5.67l22.64-12.38c5.566-2.77 12.22-3.57 18.22-2.27 6.032 1.68 11.39 5.81 14.57 11.31 3.034 5.61 3.962 12.39 2.525 18.6-1.826 6.1-5.91 11.44-11.4 14.6l-24.78 14.57c.757 2.36 1.128 3.44 1.749 7.03.563 3.43.601 3.93.837 5.9h28.03c6.469.19 12.85 2.81 17.39 7.09 4.287 4.55 7.053 10.96 7.053 17.35 0 6.49-2.626 13.02-7.05 17.44-4.437 4.44-10.96 6.84-17.4 7.01h-28.03c-.236 2.01-.279 2.54-.84 6.11-.623 3.73-.957 4.61-1.691 6.85l24.76 14.55c5.396 3.44 9.562 8.94 11.37 15.05 1.444 6.2.686 12.95-2.079 18.49-3.187 5.56-8.747 9.78-15.08 11.46-6.316 1.29-13.13.29-18.74-2.86l-21.92-12.73c-9.6 13.14-20.2 23.48-35.02 32.88-15.05 9.26-32.16 14.21-50.01 14.21zm-28-251.6c2.938-1.1 2.788-1.24 8.871-2.83a75.5 75.5 0 0 1 19.13-2.48c6.404 0 12.97.84 19.13 2.48 6.008 1.56 5.965 1.69 8.927 2.73-1.664-3.96-1.736-5.12-8.214-11.41-6.214-6.41-12.25-8.97-19.84-8.97-7.31 0-13.19 2.67-19.67 9-6.508 6.37-6.643 7.45-8.336 11.48zm28 202.7c18.24 0 32.42-7.52 44.5-24.61 12.56-17.06 18.41-34.94 18.41-54.96 0-17.8-5.53-35.2-17.33-53.53-11.21-18.07-25.72-26.03-45.59-26.03-19.88 0-34.38 7.96-45.59 26.03-11.8 18.33-17.33 35.73-17.33 53.53 0 20.02 5.853 37.89 18.41 54.96 12.09 17.09 26.26 24.61 44.51 24.61zm0-29.33c-6.444 0-12.82-2.71-17.4-7-4.285-4.56-6.874-10.96-7.05-17.44v-51.18c.176-6.48 2.727-12.83 6.973-17.53 4.583-4.48 10.99-7.33 17.47-7.33 6.471 0 12.89 2.85 17.47 7.33 4.247 4.7 6.799 11.05 6.975 17.53v51.18c-.176 6.48-2.766 12.88-7.052 17.44-4.581 4.29-10.96 7-17.4 7z" transform="translate(-1.425 23.607)scale(.02592)"/></svg>