<svg xmlns="http://www.w3.org/2000/svg" viewBox="0 0 22 22"><defs><linearGradient id="a" x1="-.001" x2="1024" gradientTransform="scale(.02148)" gradientUnits="userSpaceOnUse"><stop offset="0" stop-color="#00f"/></linearGradient><linearGradient id="b" x1="12.28" x2="954.2" y1="129.4" y2="129.4" gradientTransform="scale(.02277 .02028)" gradientUnits="userSpaceOnUse"><stop offset="0" stop-color="#00a2ed"/></linearGradient><linearGradient id="d" x1="166.8" x2="556.6" y1="17.9" y2="17.9" gradientTransform="scale(.03042 .01518)" gradientUnits="userSpaceOnUse"><stop offset="0" stop-color="#0cf"/></linearGradient><linearGradient id="e" x1="23.91" x2="24" y1="4.316" y2="30" gradientTransform="matrix(-.4318 0 0 .4318 21.36 3.54)" gradientUnits="userSpaceOnUse"><stop offset="0" stop-color="#fe0844"/><stop offset="1" stop-color="#fe1418"/></linearGradient></defs><g stroke-width=".021"><path fill="#eae603" d="M16.71 9.791a3.4 3.4 0 0 0-.605.038c-.558.098-.464.741-.475 1.134-.025.85.054 1.162.992 1.14q.272 0 .545.003c1.02.012 1.164-.106 1.156-1.122-.007-.85-.002-1.232-1.005-1.191-.194.007-.402 0-.609-.002m.708 3.3a3 3 0 0 0-.249.008c-.14.007-.29.02-.434.016-.285-.01-.717-.05-.934.199-.27.309-.135 1.01-.168 1.396-.013.16.11.45.23.537.206.169.665.137.934.143.319.002.722.019 1.026-.03.617-.1.51-.8.503-1.25-.006-.283.054-.572-.167-.798-.17-.17-.473-.218-.74-.221m-.908 3.31q-.075 0-.138.007c-.817.054-.742.592-.73 1.241.005.297-.057.647.202.87.307.246.8.167 1.168.174.178 0 .398.01.57.002.206-.004.408-.03.567-.185.23-.223.167-.622.172-.913.002-.132.012-.274.011-.403-.002-.19-.042-.459-.192-.593-.293-.262-.81-.187-1.176-.186-.136 0-.306-.014-.454-.013z"/><path fill="url(#a)" d="M5.61 0c-.317.14-.554.223-.693.578-.141.36-.086.833-.086 1.217 0 .19-.005.404 0 .59-.097-.014-.265-.01-.37-.01h-.568l-.898-.001c-.38-.003-.848-.014-1.218.067-.3.067-.582.196-.828.379a2.25 2.25 0 0 0-.847 1.279c-.025.1-.047.281-.102.35v15.4c.09.156.102.35.162.514.241.66.76 1.214 1.424 1.457.124.045.328.089.417.182h18.01a.2.2 0 0 1 .031-.055c.113-.058.26-.093.38-.136.775-.28 1.265-.924 1.5-1.693.008-.024.052-.028.075-.033V4.215a.4.4 0 0 1-.1-.185c-.241-.89-1.08-1.584-2.005-1.646-.39-.026-.78-.014-1.178-.011l-1.542.002.002-.816c0-.288.021-.622-.061-.895-.118-.391-.355-.486-.689-.663h-.388c-.121.07-.258.101-.38.182-.45.296-.395.873-.395 1.353v.843l-3.315-.002a5 5 0 0 0 0-.34c-.011-.442.053-1.019-.071-1.436-.1-.333-.387-.46-.671-.6h-.357c-.203.078-.364.137-.52.295-.329.33-.263.836-.26 1.266l.006.818c-.747-.013-1.524-.004-2.274-.004l-.692-.001c-.097 0-.285-.006-.371.008.027-.154.017-.422.015-.589-.01-.401.039-.812-.091-1.2-.12-.355-.376-.448-.683-.593h-.37zm14.77 8.177v9.599c0 .24-.006.49 0 .73.011.55-.112.945-.502 1.346-.624.57-1.27.449-2.049.449H4.09c-.42.002-.88.03-1.284-.068a1.55 1.55 0 0 1-1.158-1.452q-.005-.443-.003-.885V9.017c0-.1-.01-.764.006-.827l-.01-.285c-.033-.564.013-1.158.002-1.725-.005-.263-.012-.566.048-.82.063-.26.186-.503.36-.707.33-.394.716-.566 1.22-.61.108-.014.412-.006.531-.006l1.027.007-.003.632c-.22.248-.391.478-.445.816-.06.37.03.747.251 1.05.222.306.558.512.932.57a1.45 1.45 0 0 0 1.652-1.226c.076-.54-.15-.872-.459-1.28l.002-.566h3.312l-.003.604c-.269.309-.45.577-.477 1.002a1.4 1.4 0 0 0 .355 1.02 1.434 1.434 0 0 0 2.033.102c.272-.247.434-.591.453-.957.023-.496-.157-.823-.484-1.177-.003-.196 0-.397 0-.594h3.31q.011.294.002.588c-.292.315-.477.632-.476 1.076a1.45 1.45 0 0 0 .436 1.046c.275.268.646.414 1.03.405.426-.007.753-.187 1.044-.486.409-.48.486-1.146.157-1.69a2 2 0 0 0-.272-.347v-.593h.963c.676 0 1.205-.021 1.724.5.22.224.378.5.457.804.08.31.05.799.049 1.13l-.002 1.434z" transform="translate(.002)scale(.9999)"/><path fill="#eae603" d="M6.74 5.053c-.003.404.037.751-.276 1.062a.955.955 0 0 1-1.374-.009c-.248-.258-.27-.568-.26-.91q.002-.069.006-.137c-.153.239-.22.412-.216.698.045.356.164.627.455.853a1.17 1.17 0 0 0 1.659-.227c.177-.234.262-.545.22-.837-.021-.146-.094-.397-.214-.493m5.209.019c-.004.404.035.752-.278 1.063a.956.956 0 0 1-1.373-.008c-.248-.26-.27-.57-.26-.912l.006-.136c-.154.238-.22.411-.216.697.046.357.164.628.456.853a1.17 1.17 0 0 0 1.657-.227 1.14 1.14 0 0 0 .22-.837c-.02-.146-.093-.397-.212-.493m5.23.026c-.003.405.037.752-.276 1.063a.955.955 0 0 1-1.374-.009c-.249-.259-.27-.569-.26-.91q.001-.07.005-.137c-.152.238-.22.412-.215.697.045.357.164.628.455.853a1.17 1.17 0 0 0 1.659-.226c.177-.234.262-.546.22-.837-.022-.147-.095-.398-.215-.494M4.762 9.789a3.4 3.4 0 0 0-.604.038c-.559.098-.465.742-.476 1.135-.025.85.054 1.162.992 1.14q.273-.001.545.003c1.02.011 1.164-.107 1.156-1.123-.007-.85-.002-1.232-1.005-1.19-.194.007-.402-.001-.609-.003zm.708 3.3a3 3 0 0 0-.248.009c-.14.007-.29.02-.434.015-.286-.01-.718-.05-.935.199-.27.309-.135 1.01-.168 1.397-.014.16.11.45.23.536.205.17.664.137.934.143.318.002.721.02 1.026-.03.617-.1.51-.799.502-1.249-.006-.284.054-.572-.167-.799-.17-.17-.473-.218-.74-.22zm-.908 3.31q-.074.001-.138.007c-.817.055-.742.592-.73 1.242.005.296-.056.646.202.87.307.246.801.166 1.17.173.177.001.396.01.567.003.207-.004.41-.031.568-.186.23-.223.167-.622.172-.913.002-.131.012-.274.011-.403-.002-.19-.042-.458-.19-.592-.295-.263-.813-.187-1.177-.187-.137 0-.307-.013-.454-.013z"/><path fill="#f0f080" d="M5.552 10.069c-.156-.003-.317.013-.438.01-.207-.003-.415-.018-.615-.006-.15.007-.346.005-.452.126a.36.36 0 0 0-.081.165c-.02.104-.022.245-.019.351.008.246-.008.497 0 .741.018.482.629.364.945.371.22.005.44.01.655.004.114-.003.355-.012.429-.11.17-.226.109-.614.112-.885.002-.216.043-.505-.13-.662-.1-.08-.251-.102-.407-.105zm-.013 3.313c-.111 0-.233.007-.36.003a8 8 0 0 0-.787.007c-.228.016-.397.051-.424.316-.021.216-.015.43-.017.645-.002.594-.042.765.64.76.34-.001.738.007 1.09.002.22-.028.365-.063.398-.319.035-.278.004-.58.015-.853.02-.52-.22-.564-.556-.561m-.807 3.297a3 3 0 0 0-.386.01c-.203.029-.346.08-.373.311-.033.29-.01.585-.017.877-.005.23.032.494.314.525.267.03.54.014.808.02.147 0 .477.014.608-.002.238-.025.375-.086.396-.344q.024-.282.013-.566c-.012-.353.1-.79-.397-.82-.192-.011-.383-.004-.576-.006-.125.003-.258-.002-.39-.005"/><path fill="url(#b)" d="m18.34 2.627-1.156.003c-.02.338-.011.8-.007 1.142q.454.01.908.005c.787-.008 1.392-.022 1.987.587.535.547.562 1.068.562 1.772v11.523q.002.519 0 1.036a1.84 1.84 0 0 1-.59 1.36c-.25.237-.643.444-.987.487-.217.026-.49.018-.713.018H4.348c-.39 0-.78.009-1.17 0a1.82 1.82 0 0 1-1.304-.59 1.9 1.9 0 0 1-.485-1.015c-.033-.236-.025-.483-.025-.721l.001-.906.003-3.088.007-5.596V6.742c0-.348-.007-.732.005-1.078.021-.515.247-1 .628-1.348.815-.759 1.806-.488 2.815-.533l-.001-1.15H3.26c-.483 0-1.084-.033-1.548.085-.667.17-1.285.876-1.393 1.55-.04.244-.032.517-.032.762v3.882l-.009 10.44c0 .334.018.611.134.932a2.2 2.2 0 0 0 1.652 1.396c.185.033.457.022.65.021h4.262l11.42.006.742-.01c.14.002.286.025.435.025a2.18 2.18 0 0 0 1.547-.66c.313-.313.517-.717.583-1.154.023-.158.017-.403.017-.565l-.002-.75-.008-2.968.008-11c-.004-.536-.182-1.019-.568-1.4-.28-.277-.681-.52-1.078-.572-.156-.02-.338-.014-.498-.012-.388-.027-.846-.021-1.237-.018zm-11.58.014q-.016.57-.006 1.141 1.656.016 3.312-.001c.027-.034.014-1.014.014-1.14zm8.51 0c-1.1 0-2.221-.01-3.319.001q-.006.57-.002 1.14h3.325c-.012-.362-.01-.777-.004-1.14" transform="translate(.002)scale(.9999)"/><path fill="#007bf2" d="M19.58 2.645c.16-.002.342-.008.499.012.395.052.796.295 1.077.572.386.382.564.864.568 1.4l-.009 11 .01 2.966v.75c.001.163.007.408-.016.565a2.07 2.07 0 0 1-.583 1.154 2.18 2.18 0 0 1-1.547.66c-.15 0-.295-.023-.436-.024q.09-.01.177-.035c.827-.2 1.56-.876 1.7-1.734.066-.406.052-.822.047-1.233l-.006-1.176-.003-4.233v-5.93l.001-1.87c0-.736.086-1.443-.369-2.077a2 2 0 0 0-.879-.685c-.072-.03-.156-.065-.232-.078z"/><path fill="url(#d)" d="M5.778.272a.7.7 0 0 0-.448.175c-.17.15-.23.324-.24.545-.014.296-.003.588-.001.883L5.088 3.42 5.08 4.735c-.001.354-.059.88.183 1.171.124.15.37.25.565.234.797-.125.652-.893.65-1.496V3.336l.004-1.44c.002-.323.01-.633-.008-.956A1 1 0 0 0 6.44.73L6.42.67 6.394.618l-.028-.05-.011-.015-.022-.03-.037-.04-.041-.036-.046-.033a1 1 0 0 0-.103-.056 1 1 0 0 0-.12-.046 2 2 0 0 0-.135-.039zm5.209.019a.7.7 0 0 0-.448.175c-.17.15-.229.324-.24.545-.014.296-.003.588-.001.883l-.001 1.545-.007 1.315c-.002.354-.06.88.182 1.171.124.15.37.25.565.234.797-.125.652-.893.65-1.496V3.355l.004-1.44c.002-.322.01-.633-.009-.955a1 1 0 0 0-.033-.211l-.02-.059-.025-.054-.029-.049-.033-.044-.037-.04C11.4.4 11.251.34 11.06.293zm5.231.026a.7.7 0 0 0-.448.175c-.17.15-.23.325-.24.546-.014.295-.003.587-.001.883l-.001 1.545-.008 1.315c-.001.354-.059.88.183 1.17.124.15.37.25.565.234.797-.125.652-.893.65-1.496V3.381l.004-1.44c.002-.322.01-.633-.009-.955a1 1 0 0 0-.054-.27l-.024-.053-.02-.035-.009-.014-.033-.045-.003-.003-.034-.037c-.105-.102-.254-.163-.446-.21z" transform="translate(.002)scale(.9999)"/></g><path fill="url(#e)" fill-rule="evenodd" d="M11 7.857c-.432 0-1.726.014-1.726 2.159 0 1.727.863 6.477 1.726 6.477s1.726-4.75 1.726-6.477c0-2.145-1.295-2.159-1.726-2.159m-.088 9.071a1.295 1.295 0 0 0-1.206 1.291 1.295 1.295 0 1 0 2.588 0 1.295 1.295 0 0 0-1.382-1.291" style="isolation:isolate" transform="translate(.002)scale(.9999)"/><path fill="#f0f080" d="M17.51 10.069c-.156-.003-.317.013-.439.01-.206-.003-.414-.018-.614-.006-.15.007-.346.005-.452.126a.36.36 0 0 0-.082.165 2 2 0 0 0-.018.351c.007.246-.008.497 0 .741.018.482.63.364.945.371.22.005.44.01.655.004.113-.003.355-.012.43-.11.17-.226.107-.614.11-.885.003-.216.043-.505-.13-.662-.1-.08-.25-.102-.406-.105m-.013 3.313c-.11 0-.233.007-.36.003a8 8 0 0 0-.786.007c-.229.016-.398.051-.424.316-.022.216-.017.43-.018.645-.002.594-.042.765.641.76.34-.001.738.007 1.09.002.22-.028.365-.063.397-.319.036-.278.005-.58.016-.853.02-.52-.22-.564-.556-.561m-.807 3.297a3 3 0 0 0-.387.01c-.202.029-.345.08-.372.311-.033.29-.01.585-.017.877-.005.23.032.494.313.525.268.03.54.014.81.02.146 0 .475.014.607-.002.237-.025.374-.086.396-.344q.024-.282.013-.566c-.012-.353.1-.79-.397-.82-.192-.011-.383-.004-.576-.006-.125.003-.258-.002-.39-.005"/></svg>