<svg version="1.1" viewBox="0 0 22 22" xmlns="http://www.w3.org/2000/svg">
 <defs>
  <linearGradient id="c" x1="11.31" x2="11.31" y1="18.83" y2="45.89" gradientTransform="matrix(.6112 0 0 .6726 -6.711 -9.051)" gradientUnits="userSpaceOnUse">
   <stop stop-color="#de87cd" offset="0"/>
   <stop stop-color="#fd5" offset="1"/>
  </linearGradient>
  <linearGradient id="a" x1="1" x2="0" y1="1">
   <stop stop-color="#0061ff" offset="0"/>
   <stop stop-color="#60efff" offset="1"/>
  </linearGradient>
 </defs>
 <path transform="translate(-.000226 .001009) scale(.9998) translate(-.194) scale(1.009)" d="M11.81 0c-.466 0-.884 0-1.246.03-.385.03-.808.103-1.227.316A3.18 3.18 0 0 0 7.95 1.733c-.213.418-.285.841-.316 1.227-.02.231-.025.486-.028.761q.281-.1.578-.191c.243-.074.43-.129.602-.152a1 1 0 0 1 .13-.01.56.56 0 0 1 .376.123c.143.123.19.289.224.477s.051.417.07.714l.036.54.324.072q.222.05.432.105V4.25c0-.518.001-.84.02-1.062a1.4 1.4 0 0 1 .027-.2v-.003a.4.4 0 0 1 .162-.16h.002l.011-.002c.027-.006.085-.019.19-.027.223-.019.544-.02 1.062-.02h5.896c.518 0 .84.001 1.062.02a1.3 1.3 0 0 1 .199.029c.07.037.128.092.166.162v.012c.006.026.019.085.027.19.019.222.02.543.02 1.061v5.896c0 .519-.001.84-.02 1.062a1 1 0 0 1-.027.19v.011a.4.4 0 0 1-.164.164v.002h-.002v-.002l-.01.002a1.4 1.4 0 0 1-.19.026c-.222.018-.543.02-1.061.02h-2.871q.113.228.152.482c.058.383-.02.792-.219 1.234a6 6 0 0 1-.638 1.057h3.617c.465 0 .884 0 1.246-.03.384-.031.81-.103 1.228-.316a3.18 3.18 0 0 0 1.387-1.39c.213-.417.284-.84.316-1.226.03-.362.03-.78.03-1.246v-5.98c0-.466 0-.882-.03-1.244v-.002c-.032-.385-.103-.808-.316-1.227A3.18 3.18 0 0 0 20.263.345c-.419-.213-.844-.285-1.228-.316-.363-.03-.78-.03-1.246-.03h-5.98zM8.679 6.738l-.084.018a8 8 0 0 0-.99.271v3.158c0 .466 0 .884.03 1.246.03.385.102.808.316 1.227a3.18 3.18 0 0 0 1.387 1.39c.418.212.841.284 1.227.315h.001q.112.01.231.016.156-.16.309-.322c.39-.415.753-.834 1.016-1.172.13-.17.236-.319.304-.432.04-.066.061-.127.073-.156l-.014-.014a2.3 2.3 0 0 0-.348-.232c-.077-.045-.146-.079-.223-.147a.6.6 0 0 1-.17-.285c-.455 0-.746-.002-.953-.02a1.4 1.4 0 0 1-.199-.027h-.002a.4.4 0 0 1-.164-.164v-.004l-.002-.007a1.4 1.4 0 0 1-.025-.19c-.018-.223-.02-.544-.02-1.062V7.907a8 8 0 0 0-1.166-.389 1.4 1.4 0 0 1-.232-.078.5.5 0 0 1-.21-.177c-.104-.162-.091-.315-.09-.524z" fill="url(#a)" fill-rule="evenodd"/>
 <path transform="translate(-.000226 .001009) scale(.9998) translate(-.194) scale(1.009)" d="M1.075 21.76c-1.091-.271-1.189-1.966-.137-2.368.2-.076.347-.09 1.235-.117 1.693-.052 2.24-.343 3.261-1.73.373-.507.379-.411-.047-.783-2.944-2.565-3.845-4.37-2.742-5.493L3 10.907V10.3Q3 5.362 8.26 3.768c.963-.292 1.003-.258 1.08.928l.047.726.507.113c2.852.633 4.037 2.07 4.037 4.894v.428l.375.387c1.068 1.103.462 2.454-2.347 5.237l-.662.655.231.337c.915 1.332 1.682 1.744 3.351 1.8 1.486.048 1.856.302 1.855 1.271 0 1.02-.461 1.291-2.102 1.234-1.67-.057-2.37-.412-3.92-1.986-1.156-1.173-1.09-1.137-2.153-1.158-1.128-.021-1.01-.078-2.08 1.007-1.197 1.214-1.798 1.638-2.755 1.946-.591.19-2.165.292-2.65.171zm8.109-5.662c.842-.406 3.577-3.316 3.577-3.805 0-.13-.117-.238-.496-.46-.322-.188-.31-.142-.312-1.225 0-2.14-.498-2.757-2.675-3.334-.324-.086-.35-.125-.35-.546 0-.318.024-.305-.383-.219-2.37.5-3.147 1.464-3.194 3.961l-.022 1.178-.472.184c-.73.284-.79.384-.516.865.31.543 2.59 2.862 3.249 3.303.519.347 1.015.378 1.595.098z" fill="url(#c)"/>
</svg>
