<svg version="1.1" viewBox="0 0 22 22" xmlns="http://www.w3.org/2000/svg">
 <defs>
  <linearGradient id="a" x1="1.993" x2="1.993" y1="20.09" y2="-.003" gradientTransform="matrix(2.435 0 0 2.918 -4.86 5.362)" gradientUnits="userSpaceOnUse">
   <stop stop-color="#ff930f" offset="0"/>
   <stop stop-color="#fff95b" offset="1"/>
  </linearGradient>
  <linearGradient id="b" x1="13.07" x2="13.07" y1="14.62" y2="7.638" gradientTransform="matrix(1.772 0 0 4.009 -4.86 5.362)" gradientUnits="userSpaceOnUse">
   <stop stop-color="#197ff1" offset="0"/>
   <stop stop-color="#21c6fb" offset="1"/>
  </linearGradient>
  <linearGradient id="d" x2="0" y1="1">
   <stop stop-color="#ff00d2" offset="0"/>
   <stop stop-color="#ff4de0" offset="1"/>
  </linearGradient>
 </defs>
 <path transform="translate(-.000337 -.00191) scale(1) translate(.002 -1.113) scale(.3493)" d="M25.1 5.378a13.1 13.1 0 1 0-1.24 26.18 13.1 13.1 0 0 0 1.24-26.18m-.8 4.5a8.616 8.616 0 1 1 .381 17.23 8.616 8.616 0 0 1-.383-17.23m-8.682 23.87c-1.775.501-3.56 1.008-5.27 1.703-4.705 1.911-9.18 5.635-10.18 10.84C-.042 47.365 0 48.378 0 49.463v5.366c0 .461-.018 1.05.016 1.503a8.32 8.32 0 0 0 4.353 6.643c1.837.986 3.108 1 5.097 1.005l3.217-.016c1.317-.005 3.153.075 4.42-.005l-.026-.038c-1.224-1.634-2.532-2.362-3.025-4.473a115 115 0 0 0-3.431-.029c-1.84 0-3.727.32-5.07-1.109-.499-.533-.541-.874-.88-1.423-.027-.176-.085-.304-.099-.514-.053-.755-.032-1.546-.032-2.306v-2.985c0-.87-.058-3.292.107-4.044.586-2.76 2.463-4.65 4.745-6.131a17.3 17.3 0 0 1 4.55-2.04c-.027-2.017.283-3.563 1.677-5.128zm17.89.067c1.024 1.855 1.383 3.065 1.57 5.15 3.305.866 6.54 2.78 8.386 5.726.871 1.394.96 2.404.96 3.972l-.009 2.207v3.039c.003.789.072 2.026-.122 2.767a3.6 3.6 0 0 1-1.714 2.223c-1.08.618-2.1.514-3.3.506l-2.634-.016c-.408-.003-1.136-.032-1.511.056-.664 1.885-2.026 3.057-3.28 4.518 1.467.037 2.989.024 4.458.021l3.065.006c.73 0 1.55.026 2.27-.046a8.26 8.26 0 0 0 4.858-2.292 8.18 8.18 0 0 0 2.378-4.85c.053-.462.053-.936.053-1.4l-.016-4.894c0-.57-.019-1.2.005-1.765.294-7.149-6.21-11.96-12.31-14.04a35 35 0 0 0-3.108-.885z" fill="url(#a)"/>
 <path transform="translate(-.000337 -.00191) scale(1) translate(.002 -1.113) scale(.3493)" d="M21.14 35.99c.544-.008 1.12.008 1.666.013 1.781.019 3.545-.04 5.329-.008 1.303.024 2.306 1.36 2.21 2.615-.072.92-.56 1.413-1.09 2.111-.573.8-1.333 1.615-1.855 2.444l-.027.04c.214.99.499 2.08.736 3.073l1.797 7.544q.2.872.413 1.738c.301 1.216.707 2.24-.168 3.32-.485.6-1.05 1.14-1.589 1.692l-1.94 2.01c-.694.739-1.39 1.634-2.533 1.37a1.7 1.7 0 0 1-.677-.325c-.293-.23-1.274-1.26-1.575-1.565l-1.853-1.877c-1.829-1.866-1.965-1.922-1.373-4.444l.624-2.666q1.181-4.955 2.266-9.929a35 35 0 0 0-1.733-2.287c-1.093-1.295-1.602-2.535-.453-4.036.41-.533 1.14-.786 1.826-.834z" fill="url(#b)"/>
 <path transform="translate(-.000337 -.00191) scale(1) translate(.002 -1.113) scale(.3493)" d="M42.41 6.531a2.466 2.466 0 0 0 0 4.932H60.5c1.356 0 2.474-1.102 2.474-2.458A2.48 2.48 0 0 0 60.5 6.531zm0 9.857a2.473 2.473 0 1 0 0 4.943H60.5a2.473 2.473 0 0 0 0-4.943zm0 9.878a2.464 2.464 0 1 0 0 4.925H60.5c1.356 0 2.474-1.102 2.474-2.458a2.473 2.473 0 0 0-2.474-2.468z" fill="url(#d)"/>
</svg>
