<svg xmlns="http://www.w3.org/2000/svg" viewBox="0 0 22 22"><path fill="#f0f" d="M8.414 3.884c0 1.026-.47 2.078-1.137 2.745a4 4 0 0 1-1.451.903v1.613q.287-.067.576-.084h9.131c.225.028.305-.036.458-.19s.218-.232.19-.457v-.882a4 4 0 0 1-1.452-.903c-.668-.667-1.137-1.719-1.137-2.745s.47-2.079 1.137-2.746S16.45.001 17.474.001s2.08.47 2.746 1.137c.668.667 1.137 1.72 1.137 2.746s-.47 2.078-1.137 2.745a4 4 0 0 1-1.451.903v.882c-.027.832-.385 1.71-.92 2.26-.535.548-1.413.928-2.245.976H6.473c-.225-.029-.306.036-.458.189-.107.106-.17.177-.19.284v2.35c.56.201 1.068.52 1.452.903.667.666 1.137 1.719 1.137 2.745s-.47 2.079-1.137 2.745c-.667.668-1.72 1.138-2.746 1.138s-2.078-.47-2.745-1.138C1.118 20.2.648 19.148.648 18.121s.47-2.079 1.138-2.745a4 4 0 0 1 1.451-.904v-6.94a4 4 0 0 1-1.45-.903C1.117 5.962.647 4.91.647 3.884s.47-2.079 1.138-2.746S3.505.001 4.531.001 6.61.47 7.277 1.138s1.137 1.72 1.137 2.746m-4.798-.915c-.27.269-.379.51-.379.915s.109.646.38.915c.268.27.51.379.914.379s.646-.109.915-.38c.27-.268.38-.51.38-.914s-.11-.646-.38-.915c-.269-.27-.51-.38-.915-.38s-.646.11-.915.38m0 14.237c-.27.27-.379.511-.379.915s.109.646.38.915c.268.27.51.38.914.38s.646-.11.915-.38c.27-.269.38-.511.38-.915s-.11-.646-.38-.915c-.269-.27-.51-.38-.915-.38s-.646.11-.915.38M16.56 2.969c-.27.269-.379.51-.379.915s.109.646.38.915c.269.27.51.379.914.379s.646-.109.916-.38c.27-.268.379-.51.379-.914s-.109-.646-.38-.915c-.269-.27-.51-.38-.915-.38s-.645.11-.915.38"/></svg>