<svg xmlns="http://www.w3.org/2000/svg" viewBox="0 0 22 22"><g stroke-width=".026"><path fill="#00ff80" d="M15.954 15.287a1.33 1.33 0 0 1-.836.337 1.06 1.06 0 0 1-.808-.337q-.43-.43-.448-.957c-.006-.35.113-.651.367-.903l2.777-2.777q.218-.216.437-.31.22-.095.48-.095c.26 0 .329.032.48.094q.218.095.437.31l2.777 2.778c.248.252.378.549.378.89 0 .342-.13.638-.378.89-.27.27-.56.404-.879.404-.313 0-.598-.117-.846-.35l-.701-.675v6.133q-.001.533-.367.9-.363.367-.895.367c-.532 0-.658-.122-.906-.367a1.23 1.23 0 0 1-.367-.9v-6.133z"/><path fill="#0cf" d="M9.087 21.909q-1.755-.1-3.78-.628a12.4 12.4 0 0 1-3.667-1.597q-1.641-1.07-1.641-2.953V4.943q0-.913.942-1.798c.942-.885 1.455-1.117 2.482-1.583S5.619.72 6.933.436 9.594.008 10.983.008q1.883 0 3.837.456c1.954.456 2.487.694 3.552 1.17s1.936 1.008 2.611 1.598q1.013.885 1.013 1.768c0 .883-.328 1.17-.984 1.74s-1.508 1.084-2.553 1.541-2.226.823-3.538 1.099-2.625.413-3.937.413q-2.112 0-4.294-.499c-2.182-.499-2.858-.823-4.209-1.47v3.88q1.512.714 3.567 1.17c2.055.457 2.834.495 4.394.571q.541.03.898.4t.357.856q0 .541-.37.898a1.13 1.13 0 0 1-.885.329q-2.368-.029-4.251-.514c-1.883-.485-2.492-.837-3.708-1.541v2.967q.285.885 2.767 1.684c2.482.799 3.576.856 5.764.97q.485.028.813.4.328.37.328.855 0 .542-.328.899a.94.94 0 0 1-.785.328q-.2.028-1.954-.071zm1.898-14.532q2.424 0 4.963-.742c2.54-.742 2.816-1.065 3.367-1.712q-.855-.912-3.439-1.669-2.581-.756-4.893-.756-2.453 0-4.978.742c-2.525.742-2.8 1.056-3.353 1.683q.799 1.027 3.239 1.74c2.44.713 3.324.713 5.092.713z"/></g></svg>