<svg xmlns="http://www.w3.org/2000/svg" viewBox="0 0 22 22"><defs><linearGradient id="a" x2="0" y2="1"><stop offset="0" stop-color="#fda700"/><stop offset="1" stop-color="#ffde00"/></linearGradient></defs><path fill="url(#a)" d="M480.2-866c-13.22 0-24.4 4.727-33.52 14.14-9.12 9.42-13.67 20.7-13.67 33.87v391l-70-71.02c-9.333-9.333-20.52-13.98-33.52-13.98s-24.14 4.651-33.48 13.98c-9.333 9.333-14.2 20.52-14.53 33.52-.333 13 4.182 24.14 13.52 33.48l151 151c4.667 4.667 9.977 8.349 15.98 11.02 6 2.667 11.98 3.984 17.89 3.984 5.907 0 11.88-1.318 17.97-3.984a52.2 52.2 0 0 0 16.13-11.02l146-146c9.333-9.333 13.98-20.48 13.98-33.48s-4.651-24.18-13.98-33.52c-9.333-9.333-20.34-14.16-33.01-14.49-12.67-.333-23.67 4.182-33.01 13.52l-66.99 66.99v-391c0-13.17-4.477-24.45-13.48-33.87-9-9.413-20.11-14.14-33.32-14.14zM182-189c-13.17 0-24.28 4.477-33.36 13.48-9.087 9-13.63 20.11-13.63 33.32 0 13.22 4.546 24.4 13.63 33.52 9.08 9.12 20.19 13.67 33.36 13.67h596c13.17 0 24.45-4.516 33.87-13.52 9.413-9 14.14-20.11 14.14-33.32 0-13.22-4.727-24.36-14.14-33.48-9.42-9.12-20.7-13.67-33.87-13.67z" transform="translate(-2.71 24.707)scale(.02853)"/></svg>