<svg xmlns="http://www.w3.org/2000/svg" viewBox="0 0 22 22"><path fill="#0ff" d="M8.414 18.121c0 1.027-.47 2.079-1.137 2.745-.667.668-1.72 1.138-2.746 1.138s-2.078-.47-2.745-1.138C1.118 20.2.648 19.148.648 18.121s.47-2.079 1.138-2.745a4 4 0 0 1 1.451-.904v-2.175c.027-.833.384-1.711.92-2.26.535-.549 1.412-.928 2.245-.976h3.307V7.532a4 4 0 0 1-1.451-.903C7.59 5.962 7.12 4.91 7.12 3.884s.47-2.079 1.138-2.746C8.924.471 9.976.001 11.003.001s2.079.47 2.745 1.137c.668.667 1.138 1.72 1.138 2.746s-.47 2.078-1.138 2.745a4 4 0 0 1-1.45.903v1.529h3.314c.832.048 1.702.427 2.237.976s.893 1.427.92 2.26v2.175c.559.202 1.068.52 1.45.904.669.666 1.138 1.719 1.138 2.745s-.47 2.079-1.137 2.745c-.667.668-1.72 1.138-2.746 1.138s-2.078-.47-2.745-1.138c-.668-.666-1.137-1.718-1.137-2.745s.47-2.079 1.137-2.745a4 4 0 0 1 1.451-.904v-2.175c.029-.226-.036-.306-.189-.458s-.233-.218-.458-.19h-9.06c-.225-.028-.306.037-.458.19s-.218.232-.19.458v2.175c.56.202 1.068.52 1.452.904.667.666 1.137 1.719 1.137 2.745m-4.798-.915c-.27.27-.379.511-.379.915s.109.646.38.915c.268.27.51.38.914.38s.646-.11.915-.38c.27-.269.38-.511.38-.915s-.11-.646-.38-.915c-.269-.27-.51-.38-.915-.38s-.646.11-.915.38m12.943 0c-.27.27-.379.511-.379.915s.109.646.38.915c.269.27.51.38.914.38s.646-.11.916-.38c.27-.269.379-.511.379-.915s-.109-.646-.38-.915c-.269-.27-.51-.38-.915-.38s-.645.11-.915.38M10.088 2.969c-.27.269-.38.51-.38.915s.11.646.38.915c.269.27.511.379.915.379s.646-.109.915-.38c.27-.268.38-.51.38-.914s-.11-.646-.38-.915c-.27-.27-.511-.38-.915-.38s-.646.11-.915.38"/></svg>