<svg xmlns="http://www.w3.org/2000/svg" viewBox="0 0 22 22"><path fill="#fe6f5e" d="M7.333 5.5c0 .969-.444 1.962-1.075 2.592a3.8 3.8 0 0 1-1.37.853v5.72c-.026.213.035.289.179.433s.22.205.433.178h2.549l-1.58-1.58-.433-.431a.613.613 0 0 1 0-.865l.864-.865a.613.613 0 0 1 .865 0l.432.433 4.099 4.098a.613.613 0 0 1 0 .865l-4.1 4.098-.43.432a.613.613 0 0 1-.866 0l-.864-.864a.613.613 0 0 1 0-.865l.433-.431 1.58-1.58H5.425c-.786-.046-1.607-.404-2.112-.922s-.843-1.348-.869-2.134v-5.72a3.8 3.8 0 0 1-1.37-.853C.444 7.462 0 6.469 0 5.5s.444-1.963 1.074-2.593 1.623-1.074 2.592-1.074 1.963.444 2.592 1.074A3.82 3.82 0 0 1 7.333 5.5m-4.53-.864c-.256.254-.359.482-.359.864s.103.61.358.864c.255.255.483.358.864.358s.61-.103.864-.358c.256-.255.358-.483.358-.864s-.102-.61-.358-.864c-.254-.256-.482-.359-.864-.359s-.61.103-.864.359m11.862 11.862c0-.969.444-1.962 1.075-2.592a3.8 3.8 0 0 1 1.37-.853v-5.72c.026-.213-.036-.288-.18-.432s-.219-.206-.432-.18H13.95l1.582 1.58.43.433a.61.61 0 0 1 0 .864l-.863.864a.61.61 0 0 1-.864 0l-.434-.43-4.098-4.1a.61.61 0 0 1 0-.864l4.1-4.1.432-.431a.61.61 0 0 1 .864 0l.864.864a.61.61 0 0 1 0 .864l-.433.433-1.58 1.58h2.624c.786.045 1.607.403 2.112.92.506.52.843 1.349.869 2.135v5.72c.528.191 1.008.492 1.37.853.63.63 1.074 1.623 1.074 2.592s-.444 1.963-1.074 2.593-1.623 1.074-2.592 1.074-1.963-.444-2.592-1.074a3.82 3.82 0 0 1-1.075-2.593m4.53.864c.255-.255.359-.482.359-.864s-.104-.608-.358-.864c-.256-.254-.483-.358-.864-.358s-.609.104-.864.358c-.255.256-.359.483-.359.864s.104.609.359.864.482.359.864.359.608-.104.864-.359"/></svg>