<svg xmlns="http://www.w3.org/2000/svg" viewBox="0 0 22 22"><path fill="#ff8000" d="M2.558 9.725V14.2h5.115V9.725a.64.64 0 0 1 .64-.64h1.279a.64.64 0 0 1 .639.64v11.508a.64.64 0 0 1-.64.64H.642a.64.64 0 0 1-.64-.64V9.725a.64.64 0 0 1 .64-.64h1.278a.64.64 0 0 1 .64.64m11.135 2.292 1.653 1.654V3.33c.028-.223-.037-.3-.188-.452s-.229-.216-.451-.188H7.034c-.222-.028-.3.037-.451.188s-.216.23-.188.452v5.115a.64.64 0 0 1-.64.64H4.477a.64.64 0 0 1-.64-.64V3.33c.027-.822.38-1.69.91-2.233C5.274.556 6.15.181 6.97.134h7.814c.822.047 1.681.422 2.21.964s.882 1.41.909 2.233v10.34l1.653-1.654.451-.452c.251-.25.655-.25.906 0l.904.904c.25.25.25.655 0 .905l-.453.452-4.288 4.289a.64.64 0 0 1-.905 0l-4.288-4.29-.452-.45a.64.64 0 0 1 0-.906l.904-.904c.25-.25.655-.25.905 0z"/></svg>