<svg version="1.1" viewBox="0 0 22 22" xmlns="http://www.w3.org/2000/svg">
 <defs>
  <linearGradient id="c" x1="1.499" x2="20.49" y1="1.51" y2="20.5" gradientTransform="scale(1 .9995)" gradientUnits="userSpaceOnUse">
   <stop stop-color="#ff00e2" offset="0"/>
   <stop stop-color="#00b2ff" offset="1"/>
  </linearGradient>
  <linearGradient id="a" x1="1.499" x2="20.49" y1="1.51" y2="20.5" gradientTransform="scale(1 .9995)" gradientUnits="userSpaceOnUse">
   <stop stop-color="#ff00d2" offset="0"/>
   <stop stop-color="#00e5ff" offset="1"/>
  </linearGradient>
 </defs>
 <g transform="translate(-.002136 .000651) scale(1)" fill-rule="evenodd" stroke-width=".265">
  <path transform="translate(-1.737 -1.737) scale(1.158)" d="M16.99 10.35q-.461 0-.783.318-.316.317-.317.778v5.295l-.605-.606a1.14 1.14 0 0 0-.72-.29.91.91 0 0 0-.7.29q-.371.374-.387.828a1.03 1.03 0 0 0 .317.78l2.398 2.398q.189.186.377.267.19.081.416.082c.226.001.283-.028.414-.082q.189-.082.377-.267l2.398-2.398c.214-.218.326-.473.326-.768s-.112-.553-.326-.77q-.349-.349-.76-.35c-.27 0-.516.101-.73.304l-.606.582v-5.295q-.001-.46-.316-.778a1.05 1.05 0 0 0-.774-.318z" fill="url(#a)" style="-inkscape-stroke:none;font-variation-settings:normal"/>
  <path transform="translate(-1.737 -1.737) scale(1.158)" d="M10.99 1.51q-1.799 0-3.5.37c-1.701.37-2.144.57-3.031.972q-1.33.604-2.144 1.369c-.814.765-.813 1.025-.813 1.55v10.18q.001 1.627 1.418 2.55 1.417.925 3.166 1.38 1.75.457 3.266.544v-.002q1.515.086 1.688.062a.82.82 0 0 0 .678-.283q.284-.308.283-.777 0-.419-.283-.739c-.283-.32-.424-.329-.703-.345q-2.833-.148-4.977-.838t-2.39-1.453v-2.562a12.7 12.7 0 0 0 3.202 1.33q1.626.42 3.672.443a.98.98 0 0 0 .764-.283 1.03 1.03 0 0 0 .32-.775q0-.42-.309-.74a1.12 1.12 0 0 0-.775-.346q-2.02-.099-3.795-.492c-1.775-.393-2.209-.6-3.08-1.01V8.263q1.75.837 3.635 1.27c1.885.433 2.493.43 3.71.43q1.7 0 3.4-.358c1.7-.358 2.15-.553 3.054-.947q1.356-.593 2.207-1.332t.85-1.502c0-.763-.292-1.02-.875-1.53q-.875-.763-2.254-1.378a17 17 0 0 0-3.068-1.012 14.5 14.5 0 0 0-3.314-.393zm0 2.143q1.996 0 4.227.654 2.23.654 2.969 1.441-.715.838-2.908 1.478t-4.287.64q-2.292 0-4.398-.616-2.108-.615-2.799-1.502.714-.814 2.896-1.455a15.2 15.2 0 0 1 4.301-.64z" fill="url(#c)" style="-inkscape-stroke:none;font-variation-settings:normal"/>
 </g>
</svg>
