<svg xmlns="http://www.w3.org/2000/svg" viewBox="0 0 22 22"><g stroke-width=".023"><path fill="#ff81ff" d="M15.643 20.443q-1.99 0-3.382-1.378t-1.39-3.394q0-1.991 1.39-3.382t3.382-1.391q2.016 0 3.406 1.391t1.391 3.382q0 .663-.14 1.289t-.523 1.135l1.863 1.863q.357.358.357.83t-.357.855q-.383.357-.868.357t-.842-.357l-1.863-1.838q-.536.383-1.149.51t-1.275.128zm0-2.399q.995 0 1.684-.69t.69-1.683-.69-1.685-1.684-.689-1.67.69-.677 1.684.676 1.684 1.671.689"/><path fill="#0cf" d="M9.876 19.654q-.179.025-1.748-.064t-3.382-.561-3.28-1.43T0 14.96q0 1.684 1.468 2.64t3.28 1.43 3.381.561 1.748.064M0 14.959V4.419q0-.817.842-1.608t2.22-1.416T6.201.387 9.825.004q1.684 0 3.433.408t3.177 1.046 2.335 1.43.906 1.581-.88 1.557-2.284 1.377-3.164.983-3.522.37q-1.889 0-3.841-.447T2.221 6.995v3.47q1.352.639 3.19 1.047t3.93.51q.484.026.803.358t.32.765q0 .485-.333.804t-.79.294q-2.118-.026-3.803-.46t-3.317-1.377v2.654q.255.791 2.475 1.505t5.155.868q.434.025.728.357t.293.766q0 .485-.293.804t-.702.293q-.179.026-1.748-.064t-3.382-.56-3.28-1.43T0 14.96zm9.34-.715q-1.046-.025-1.977-.127t-1.812-.332-1.698-.574-1.633-.804q.816.46 1.633.804t1.698.574 1.812.332 1.977.127m.485-7.656q2.169 0 4.44-.663t3.012-1.531Q16.51 3.577 14.2 2.9t-4.376-.677q-2.194 0-4.453.664T2.374 4.393q.714.919 2.896 1.557t4.555.638z"/></g></svg>