<svg xmlns="http://www.w3.org/2000/svg" viewBox="0 0 22 22"><path fill="#00ff80" d="M14.656 5.969v1.814q0 .392-.272.65c-.272.257-.403.257-.664.257a.9.9 0 0 1-.66-.265.9.9 0 0 1-.27-.668V3.558q0-.518.35-.868c.35-.35.531-.35.894-.35h4.173q.39 0 .661.257.273.258.273.65c0 .393-.091.483-.273.663a.9.9 0 0 1-.66.27h-1.84q.906.83 1.671 1.866c.765 1.036.903 1.4 1.18 2.126q.18.492-.066.946c-.246.454-.419.492-.764.57q-.493.117-.946-.143c-.453-.26-.532-.414-.687-.725q-.311-.83-.817-1.517c-.506-.687-.764-.902-1.283-1.334M3.59 10.095a3.3 3.3 0 0 1-2.257-.934A3.23 3.23 0 0 1 .4 6.907c0-.37.068-.759.186-1.094a3.5 3.5 0 0 1 .542-.96l1.679-1.994-.747-1.51a1.1 1.1 0 0 1-.107-.457c.008-.14.073-.322.148-.45.083-.12.21-.255.33-.321.122-.074.304-.108.45-.115h5.127c.146.007.329.04.45.115.121.066.249.2.331.321.076.128.141.31.148.45a1 1 0 0 1-.102.444l-.752 1.523 1.655 1.993c.237.29.433.624.56.96.122.336.194.732.205 1.095a3.26 3.26 0 0 1-.937 2.254 3.3 3.3 0 0 1-2.263.934zm0-1.833H7.29c.403.013.68-.1.956-.396.295-.281.397-.563.397-.96 0-.174-.02-.308-.077-.463a1.2 1.2 0 0 0-.232-.396L6.565 3.92H4.314L2.558 6.047a1.3 1.3 0 0 0-.241.403 1.2 1.2 0 0 0-.082.457c0 .396.103.67.4.952.28.303.556.416.954.403m3.784 7.815v-1.814q0-.393.273-.65a.93.93 0 0 1 .663-.258q.391 0 .66.265.27.265.27.669v4.198q0 .52-.35.869c-.35.349-.531.35-.894.35H3.822a.93.93 0 0 1-.66-.258q-.273-.258-.273-.65c0-.392.09-.482.272-.663a.9.9 0 0 1 .661-.27h1.84A13 13 0 0 1 3.991 16a9 9 0 0 1-1.18-2.125 1.1 1.1 0 0 1 .065-.946q.247-.455.765-.57a1.26 1.26 0 0 1 .946.142q.453.26.687.726.31.83.816 1.516c.506.686.765.903 1.283 1.335m7.31 5.925a3.3 3.3 0 0 1-2.257-.933 3.23 3.23 0 0 1-.933-2.255c0-.37.069-.759.187-1.094.122-.336.315-.678.542-.96l1.678-1.994-.746-1.51a1.06 1.06 0 0 1-.107-.456c.008-.14.073-.324.148-.45.082-.12.21-.255.33-.322.122-.073.304-.106.45-.114h5.127c.146.008.328.041.45.114.12.067.248.202.33.321.077.127.142.311.149.451a1 1 0 0 1-.102.443l-.752 1.523 1.655 1.993c.236.29.433.625.56.961.122.335.193.731.205 1.094a3.26 3.26 0 0 1-.937 2.255 3.3 3.3 0 0 1-2.264.933zm0-1.833h3.7c.404.014.681-.1.957-.395.294-.282.396-.564.396-.96 0-.175-.02-.31-.076-.464a1.2 1.2 0 0 0-.232-.396l-1.77-2.127h-2.25l-1.757 2.127a1.3 1.3 0 0 0-.24.403 1.2 1.2 0 0 0-.082.457c0 .396.102.67.4.953.28.302.555.416.953.402"/></svg>