<svg xmlns="http://www.w3.org/2000/svg" viewBox="0 0 22 22"><g stroke-width=".023"><path fill="#0f0" d="M18.076 14.598a.9.9 0 0 1 .559-.226c.194 0 .415.104.566.237a1 1 0 0 1 .235.56.85.85 0 0 1-.239.562l-3.057 3.083a.95.95 0 0 1-.595.241.93.93 0 0 1-.592-.246l-1.415-1.414a.85.85 0 0 1-.234-.55.9.9 0 0 1 .238-.563.95.95 0 0 1 .558-.253c.2.003.421.092.577.225l.871.872zm-5.49 7.406a1.52 1.52 0 0 1-1.018-.42 1.53 1.53 0 0 1-.42-1.019v-7.559c.008-.381.159-.75.42-1.027a1.52 1.52 0 0 1 1.019-.425h7.559c.384.009.753.163 1.028.425.264.277.416.645.424 1.027v7.56a1.52 1.52 0 0 1-.425 1.02 1.54 1.54 0 0 1-1.027.418zm.219-1.657h7.124v-7.124h-7.124z"/><path fill="#0ff" d="M7.302 15.91v-1.797q0-.389.27-.644a.92.92 0 0 1 .657-.255q.387 0 .654.262a.9.9 0 0 1 .267.662v4.158q0 .513-.347.86c-.347.347-.526.346-.885.346H3.786a.92.92 0 0 1-.654-.255q-.27-.255-.27-.644c0-.389.09-.477.27-.656a.9.9 0 0 1 .654-.267h1.822a12.7 12.7 0 0 1-1.656-1.848 8.9 8.9 0 0 1-1.167-2.104 1.09 1.09 0 0 1 .064-.937q.243-.45.757-.564.487-.115.937.14.45.257.68.72.308.82.809 1.502.5.679 1.27 1.322z"/><path fill="#ff0" d="M3.553 9.988a3.25 3.25 0 0 1-2.234-.925 3.2 3.2 0 0 1-.74-3.316 3.4 3.4 0 0 1 .538-.951l1.662-1.973-.74-1.496a1.05 1.05 0 0 1-.105-.452c.008-.139.072-.319.146-.445A1.1 1.1 0 0 1 2.408.11c.12-.073.3-.106.445-.113H7.93c.144.007.324.04.445.113.12.066.246.199.328.319.075.126.14.306.146.445a1 1 0 0 1-.101.44l-.745 1.508 1.64 1.973c.233.287.428.618.553.952.12.331.192.723.203 1.082a3.22 3.22 0 0 1-.928 2.234 3.27 3.27 0 0 1-2.24.924zm0-1.815h3.665c.4.013.674-.1.947-.392.292-.279.393-.558.393-.95 0-.173-.02-.306-.076-.46a1.2 1.2 0 0 0-.23-.391L6.502 3.873H4.27L2.534 5.98a1.3 1.3 0 0 0-.238.399c-.06.159-.082.286-.082.452 0 .392.102.664.397.943.277.3.55.412.944.4z"/><path fill="#0ff" d="M14.51 5.902V7.7q0 .388-.27.643t-.657.255a.9.9 0 0 1-.654-.262.9.9 0 0 1-.267-.662V3.516q0-.513.346-.86c.346-.347.527-.346.886-.346h4.132q.384 0 .654.255t.27.644-.27.655a.9.9 0 0 1-.654.268h-1.822a12.7 12.7 0 0 1 1.655 1.847 8.9 8.9 0 0 1 1.168 2.105q.18.488-.064.936-.244.45-.758.565-.488.115-.936-.141-.45-.256-.68-.719a6.2 6.2 0 0 0-.809-1.502 7.6 7.6 0 0 0-1.271-1.322z"/></g></svg>