<svg xmlns="http://www.w3.org/2000/svg" viewBox="0 0 22 22"><defs><linearGradient id="a" y1="1"><stop offset="0" stop-color="#d800bd"/><stop offset=".408" stop-color="#f92d7a"/><stop offset=".59" stop-color="#ff4a52"/><stop offset="1" stop-color="#ffb243"/></linearGradient></defs><g stroke-width="1.832"><path fill="url(#a)" d="m12.9.005-4.47 4.47 1.296 1.296 3.178-3.178 3.89 3.89.01-.007.008.007 5.182-5.182c.005.01-1.296-1.296-1.296-1.296L16.804 3.9 12.906.005l-.004.004zM.07 3.892v14.44c0 3.665 3.665 3.665 3.665 3.665h14.44l-1.832-1.832h-12.6s-1.832 0-1.832-1.832v-5.497H6.42l6.478 6.478.004-.004.003.004 1.296-1.296q-3.51-3.501-7.022-7.015H1.911V5.728zm1.832 3.443v1.832l3.447.004-1.832-1.832z" transform="scale(.9999)"/><path fill="red" d="M1.296.005 0 1.301 20.688 21.99l1.296-1.342z"/></g></svg>