<svg version="1.1" viewBox="0 0 22 22" xmlns="http://www.w3.org/2000/svg">
 <defs>
  <linearGradient id="a" y1="1">
   <stop stop-color="#879af2" offset="0"/>
   <stop stop-color="#d3208b" offset=".5"/>
   <stop stop-color="#fda000" offset="1"/>
  </linearGradient>
 </defs>
 <path transform="translate(0 -3e-5) scale(.04297)" d="m345.9 96c-21.38 0-32.09 25.85-16.97 40.97l32.4 32.4-73.37 73.38-73.37-73.37c-12.5-12.5-32.76-12.5-45.25 0l-68.69 68.69c-6.25 6.25-6.25 16.38 0 22.63l22.62 22.62c6.25 6.25 16.38 6.25 22.63 0l46.06-46.07 73.37 73.37c12.5 12.5 32.76 12.5 45.25 0l96-96 32.4 32.4c15.12 15.12 40.97 4.411 40.97-16.97v-118c0.01-8.84-7.15-16-15.99-16z" fill="url(#a)"/>
 <path transform="translate(0 -3e-5) scale(.04297)" d="m16 64c-8.84 0-16 7.16-16 16v336c0 17.67 14.33 32 32 32h464c8.84 0 16-7.16 16-16v-32c0-8.84-7.16-16-16-16h-432v-304c0-8.84-7.16-16-16-16z" fill="url(#a)"/>
</svg>
