<svg xmlns="http://www.w3.org/2000/svg" viewBox="0 0 22 22"><path fill="#ff0060" d="M3.142 0C2.272 0 1.57.7 1.57 1.57v6.285h15.71c1.713 0 3.141 1.428 3.141 3.141v9.426c0 .572-.169 1.105-.445 1.571h.445c.87 0 1.571-.7 1.571-1.57V1.57c0-.87-.7-1.571-1.57-1.571zm1.57 1.57h9.426v1.572H4.713zm10.997 0h3.142v1.572H15.71zM4.713 4.714h4.712v1.57H4.713zM1.57 9.425C.7 9.425 0 10.126 0 10.996v9.426c0 .87.7 1.571 1.57 1.571h15.71c.87 0 1.571-.7 1.571-1.57v-9.427c0-.87-.7-1.57-1.57-1.57zm12.567 4.713h3.142v3.142h-3.142zM1.571 18.851h1.57v1.571h-1.57zm3.142 0h1.57v1.571h-1.57zm3.142 0h1.57v1.571h-1.57zm3.141 0h1.571v1.571h-1.57z" opacity=".3"/></svg>