<svg xmlns="http://www.w3.org/2000/svg" viewBox="0 0 22 22"><path fill="red" d="M3.142 0C2.272 0 1.57.7 1.57 1.57v6.285h15.71a3.14 3.14 0 0 1 3.141 3.141h1.571V1.571c0-.87-.7-1.571-1.57-1.571zm1.57 1.57h9.426v1.572H4.713zm10.997 0h3.142v1.572H15.71zM4.713 4.714h4.712v1.57H4.713zM1.57 9.425C.7 9.425 0 10.126 0 10.996v9.426c0 .87.7 1.571 1.57 1.571h12.568V17.28h-1.57v-4.713h2.356v-1.57h3.927c0-.87-.7-1.572-1.57-1.572zm14.924 3.142v1.571h-2.357v1.571h7.855v-1.57h-2.356v-1.572zm-.786 4.713v4.713h4.713V17.28zM1.571 18.851h1.57v1.571h-1.57zm3.142 0h1.57v1.571h-1.57zm3.142 0h1.57v1.571h-1.57z"/></svg>