<svg version="1.1" viewBox="0 0 22 22" xmlns="http://www.w3.org/2000/svg" xmlns:xlink="http://www.w3.org/1999/xlink">
 <defs>
  <linearGradient id="a" x1="1" x2="0" y2="1">
   <stop stop-color="#fd5" offset="0"/>
   <stop stop-color="#ff45ff" offset="1"/>
  </linearGradient>
  <linearGradient id="b" x1="11.15" x2="6.527" y1="5.849" y2="1.223" gradientTransform="matrix(.4393 0 0 .4392 12.3 .6201)" gradientUnits="userSpaceOnUse">
   <stop stop-color="#fda700" offset="0"/>
   <stop stop-color="#ffde00" offset="1"/>
  </linearGradient>
  <linearGradient id="d" x1="21.88" x2="-.001989" y1=".1207" y2="22" gradientTransform="matrix(.4417 0 0 .4368 12.3 .6201)" gradientUnits="userSpaceOnUse" xlink:href="#a"/>
  <linearGradient id="c" x1="8.457" x2="4.477" y1="8.913" y2="12.89" gradientTransform="matrix(.6002 0 0 .3215 12.3 .6201)" gradientUnits="userSpaceOnUse" xlink:href="#a"/>
  <linearGradient id="e" x2="0" y1="1">
   <stop stop-color="#e6ff00" offset="0"/>
   <stop stop-color="#dcba14" offset="1"/>
  </linearGradient>
  <linearGradient id="f" x2="0" y1="1">
   <stop stop-color="#3a8ee6" offset="0"/>
   <stop stop-color="#3a8ee6" offset=".25"/>
   <stop stop-color="#5c79f0" offset=".5"/>
   <stop stop-color="#9059ff" offset=".75"/>
   <stop stop-color="#c139e6" offset="1"/>
  </linearGradient>
  <linearGradient id="g" x1="13.32" x2=".0007847" y1="18.14" y2="18.14" gradientTransform="matrix(.7081 .7081 -.2596 .2596 16.27 6.934)" gradientUnits="userSpaceOnUse">
   <stop stop-color="#5433ff" offset="0"/>
   <stop stop-color="#e948ff" offset=".5"/>
   <stop stop-color="#ff005b" offset="1"/>
  </linearGradient>
 </defs>
 <path transform="translate(-.003945 -.2991) scale(1.002)" d="m6.859 12.49-3.805 6.04e-4 -0.09855 0.0033a1.486 1.486 0 0 0-1.19 0.7448l-0.9874 1.727h-0.576l-0.03961 0.0037a0.1981 0.1981 0 0 0-0.1583 0.1944v0.2356l0.0036 0.05442a0.3963 0.3963 0 0 0 0.2963 0.3298l0.01239 0.0018-0.05804 0.1312a2.477 2.477 0 0 0-0.169 1.251l0.3597 2.873 0.01239 0.07739a0.9906 0.9906 0 0 0 0.9708 0.7905h0.5529l0.07377-0.0027a0.9906 0.9906 0 0 0 0.9163-0.9874h3.963l0.0036 0.07377a0.9906 0.9906 0 0 0 0.9865 0.9163h0.5529l0.07831-0.0027a0.9906 0.9906 0 0 0 0.9052-0.8644l0.3579-2.873 0.01391-0.1424a2.477 2.477 0 0 0-0.2401-1.239l0.06439-0.02026a0.3963 0.3963 0 0 0 0.2487-0.3676v-0.235l-0.0045-0.03961a0.1981 0.1981 0 0 0-0.1935-0.159h-0.576l-0.9874-1.729-0.05109-0.08526a1.486 1.486 0 0 0-1.238-0.6633zm-3.805 0.9906h3.805a0.4953 0.4953 0 0 1 0.4291 0.2497l0.8498 1.487a0.4953 0.4953 0 0 1-0.4292 0.74h-5.503a0.4953 0.4953 0 0 1-0.4292-0.74l0.8498-1.487a0.4953 0.4953 0 0 1 0.4278-0.2497zm-1.941 2.989 9e-4 5.85e-4a1.466 1.466 0 0 0 1.092 0.4774h5.503l0.1013-0.0045a1.461 1.461 0 0 0 0.99-0.4732c0.05102 0.1862 0.06619 0.3819 0.04142 0.576l-0.3588 2.873h-0.5538v-0.4955l-0.0036-0.05713a0.4953 0.4953 0 0 0-0.4916-0.4377h-4.953l-0.05804 0.0042a0.4953 0.4953 0 0 0-0.4368 0.4919v0.4952h-0.5529l-0.3588-2.873-0.0097-0.1161a1.486 1.486 0 0 1 0.04989-0.4602zm7.074 0.8925a0.2477 0.2477 0 0 0-0.03416 3.09e-4v0.0012a0.2477 0.2477 0 0 0-0.09674 0.02902l-1.358 0.7324c-0.1853 0.1001-0.1095 0.3815 0.101 0.373l1.146-0.04596a0.4953 0.4953 0 0 0 0.4749-0.4952v-0.3464a0.2477 0.2477 0 0 0-0.2331-0.2486zm-6.464 0.0015a0.2477 0.2477 0 0 0-0.234 0.247v0.3473a0.4953 0.4953 0 0 0 0.4761 0.4955l1.145 0.04565c0.21 0.0084 0.2876-0.2718 0.1028-0.3718l-1.358-0.7346a0.2477 0.2477 0 0 0-0.1318-0.02902z" fill="url(#f)" stroke-width=".1548"/>
 <path transform="translate(-.003945 -.2991) scale(1.002)" d="m4.967 0.5723c-1.191 3.785e-4 -2.271 0.383-2.934 0.707-0.06614 0.03234-0.1283 0.06298-0.1855 0.09375-0.1163 0.06196-0.2133 0.121-0.291 0.1719a0.1 0.1 0 0 0-0.0293 0.1406l0.9375 1.377c-1.131 1.214-2.116 2.974-2.029 4.49 0.04402 0.7706 0.3739 1.477 1.098 1.979 0.7238 0.5013 1.831 0.8008 3.434 0.8008 1.603 0 2.708-0.3059 3.428-0.8145 0.7197-0.5085 1.045-1.222 1.084-1.998 0.0771-1.526-0.9128-3.284-2.035-4.457l0.9414-1.377a0.1 0.1 0 0 0-0.02539-0.1387c-0.1158-0.07727-0.2778-0.1712-0.4766-0.2695l-0.03711-0.01758c-0.6586-0.3197-1.71-0.6871-2.877-0.6875zm0 0.7324h0.00195c0.4067 7.13e-5 0.765 0.09397 1.129 0.1738-0.413 0.08199-0.8261 0.1595-1.23 0.2773-0.4661 0.135-1.026 0.1205-1.586 0.01758-0.07937-0.01469-0.1542-0.03885-0.2324-0.05664 0.5532-0.2001 1.179-0.412 1.918-0.4121zm2.291 0.7344-0.625 0.9141c-1.056 0.3689-2.302 0.3695-3.359 0l-0.3457-0.5078c0.0729 0.01603 0.1453 0.03522 0.2188 0.04883 0.6246 0.1152 1.303 0.1437 1.922-0.03516 0.7535-0.2181 1.513-0.3532 2.189-0.4199zm-4.354 1.355a0.1 0.1 0 0 1 0.02539 0.00391 0.1 0.1 0 0 0-0.02539-0.00391zm4.053 0.209c0.5121 0.5468 0.9463 1.163 1.279 1.834 0.3531 0.7209 0.5423 1.439 0.5117 2.045-0.02962 0.5856-0.2498 1.067-0.7734 1.438-0.5457 0.3855-1.485 0.6797-3.008 0.6797-1.523 0-2.466-0.2884-3.018-0.6699-0.5277-0.3655-0.7503-0.8409-0.7832-1.418-0.03442-0.5992 0.1494-1.314 0.502-2.041 0.3291-0.6782 0.7924-1.327 1.285-1.865 1.262 0.4649 2.741 0.4639 4.004-0.001953zm-2.279 0.9512a0.1 0.1 0 0 0-0.08594 0.1016v0.2051c-0.3191 0.0286-0.5984 0.1314-0.7715 0.3262-0.1954 0.2198-0.291 0.5091-0.291 0.7969s0.09564 0.5751 0.291 0.7949c0.1731 0.1948 0.4524 0.2976 0.7715 0.3262v0.832c-0.1271-0.04072-0.2593-0.0896-0.3047-0.2148l-0.00195-0.00195c-0.03584-0.1094-0.1116-0.1896-0.1992-0.2266-0.08844-0.0373-0.1845-0.03388-0.2695-0.003906-0.08502 0.02997-0.1615 0.08736-0.207 0.1719-0.0452 0.08398-0.05277 0.1948-0.01172 0.3027 0.1497 0.4204 0.558 0.653 0.9941 0.7031v0.2363a0.1 0.1 0 0 0 0.09961 0.09961h0.5312a0.1 0.1 0 0 0 0.09961-0.09961v-0.209c0.3128-0.03404 0.5882-0.1364 0.7578-0.3301 0.1915-0.2187 0.2852-0.5049 0.2852-0.7891 0-0.2842-0.0937-0.5684-0.2852-0.7871-0.1696-0.1937-0.445-0.298-0.7578-0.332v-0.834c0.1272 0.03969 0.2624 0.08628 0.3086 0.2168 0.03604 0.1085 0.1101 0.1878 0.1973 0.2246 0.08844 0.0373 0.1865 0.03583 0.2715 0.00586 0.08502-0.02997 0.1615-0.08931 0.207-0.1738 0.04549-0.08452 0.05369-0.1941 0.01172-0.3027-0.1498-0.4208-0.5596-0.6533-0.9961-0.7031v-0.2344a0.1 0.1 0 0 0-0.09961-0.1016h-0.5312a0.1 0.1 0 0 0-0.01367 0zm-0.08594 1.039v0.7793c-0.08458-0.021-0.1742-0.03533-0.2227-0.08984-0.0702-0.07897-0.1094-0.1883-0.1094-0.2988s0.03918-0.2199 0.1094-0.2988c0.0485-0.05457 0.138-0.07081 0.2227-0.0918zm0.7305 1.598c0.07791 0.02338 0.1635 0.03928 0.209 0.0918 0.06791 0.07848 0.1055 0.1852 0.1055 0.293 0 0.1078-0.03756 0.2145-0.1055 0.293-0.04534 0.0524-0.1313 0.06838-0.209 0.0918z" fill="url(#e)" stop-color="#000000" stroke-linecap="round" stroke-linejoin="round"/>
 <path transform="translate(-.003945 -.2991) scale(1.002)" d="m18.87 0.6728q-0.2684 0-0.4959 0.007028c-0.9251 0.02504-1.646 0.6062-1.888 1.431q-0.2974 0.00264-0.5653 0.0101c-0.8587 0.02328-1.609 0.3207-2.185 0.8091v8.785e-4c-0.3255-0.01845-0.6005-0.2991-0.6005-0.6123 0-0.3242 0.2943-0.6132 0.6347-0.6132 0.1906 0 0.2886 0.05051 0.3303 0.0839 0.03953 0.03206 0.04129 0.05534 0.04129 0.0593a0.4204 0.4204 0 0 0 0.8398 0c0-0.5961-0.5434-0.9839-1.211-0.9839-0.7748 0-1.476 0.636-1.476 1.454 0 0.5759 0.3492 1.063 0.8267 1.299-0.3936 0.5833-0.6171 1.301-0.6202 2.085v0.2249c0.0031 0.7994 0.2346 1.533 0.6492 2.126-0.09664 0.2165-0.1818 0.4168-0.2499 0.5789-0.1687 0.405-0.06194 0.889 0.3075 1.168a3.075 3.075 0 0 0 0.2943 0.2007 3.075 3.075 0 0 0 0.3299 0.1559c0.4226 0.1744 0.889 0.02679 1.155-0.3154 0.08873-0.1151 0.1933-0.2526 0.307-0.405a3.778 3.778 0 0 0 0.6281 0.06852q0.4125 0.01098 0.8974 0.01098a32.94 32.94 0 0 0 0.8974-0.01098 3.778 3.778 0 0 0 0.6272-0.0694 23.72 23.72 0 0 0 0.3075 0.4059c0.2662 0.3426 0.7331 0.4902 1.155 0.3154 0.1067-0.04392 0.2288-0.09883 0.3294-0.1559 0.09839-0.05622 0.2047-0.1318 0.2952-0.1999 0.3694-0.2794 0.4761-0.7652 0.307-1.17-0.06764-0.1625-0.1537-0.3619-0.2504-0.5781a3.514 3.514 0 0 0 0.416-0.8003l0.1072 0.00483c0.5016 0.01801 0.8838-0.3663 0.9198-0.8355 0.01493-0.2021 0.02767-0.4713 0.02767-0.8144 0-0.3426-0.0123-0.6106-0.02767-0.8135-0.03558-0.4691-0.4182-0.8539-0.9198-0.8355q-0.1384 0.00527-0.2811 0.01845a3.382 3.382 0 0 0-1.234-1.341c-0.0053-0.586-0.05491-0.9945-0.1098-1.267a2.635 2.635 0 0 0-0.08346-0.3264 1.318 1.318 0 0 0-0.03514-0.09005l-0.01669-0.04041-0.0018-0.004392-0.0018-0.002196v-8.785e-4h-8.79e-4l-0.05578 0.02723 0.05578-0.02811a0.4217 0.4217 0 0 0-0.3755-0.2319zm-0.3132 0.8434v4.393e-4l0.0035 0.01889c0.0448 0.2253 0.09444 0.6079 0.09444 1.2q0 0.07248-8.79e-4 0.1406a0.4217 0.4217 0 0 0 0.2288 0.3804c0.546 0.2794 0.9646 0.7441 1.2 1.33a0.4217 0.4217 0 0 0 0.4463 0.2592 5.271 5.271 0 0 1 0.5104-0.04656 0.04392 0.04392 0 0 1 0.02064 0.00264q0.0061 0.0022 0.01098 0.00747c0.0075 0.00703 0.01889 0.02196 0.02065 0.0492 0.01362 0.1801 0.02504 0.4269 0.02504 0.7498 0 0.3224-0.01142 0.571-0.02504 0.7507-0.0018 0.02723-0.01318 0.04217-0.02065 0.04832a0.04392 0.04392 0 0 1-0.01098 0.00703 0.04392 0.04392 0 0 1-0.02064 0.00351 5.271 5.271 0 0 1-0.3879-0.03075 0.4217 0.4217 0 0 0-0.4546 0.3114 2.679 2.679 0 0 1-0.5209 1.034 0.4217 0.4217 0 0 0-0.0571 0.4428 23.28 23.28 0 0 1 0.3413 0.7805c0.03075 0.07423 0.0066 0.1423-0.03778 0.1757-0.08214 0.06193-0.1546 0.1124-0.206 0.1419-0.05271 0.03031-0.1353 0.06764-0.2328 0.1081-0.05095 0.02108-0.1212 0.00878-0.1696-0.05315a24.16 24.16 0 0 1-0.459-0.6106 0.4217 0.4217 0 0 0-0.4537-0.1577 2.899 2.899 0 0 1-0.7085 0.1063q-0.401 0.01186-0.875 0.01142a31.63 31.63 0 0 1-0.8741-0.01142 2.899 2.899 0 0 1-0.7094-0.1063 0.4217 0.4217 0 0 0-0.4546 0.1581 23.72 23.72 0 0 1-0.4568 0.6101c-0.04876 0.06237-0.119 0.07423-0.1704 0.05271a2.196 2.196 0 0 1-0.2324-0.1076 2.196 2.196 0 0 1-0.206-0.1419c-0.04392-0.03338-0.06896-0.1015-0.03865-0.1757 0.08873-0.2126 0.2078-0.4898 0.3417-0.7805a0.4217 0.4217 0 0 0-0.05711-0.4428c-0.3857-0.4691-0.6163-1.094-0.6193-1.809v-0.2187c0.0035-0.8293 0.3114-1.542 0.8302-2.034l0.0246-0.02328c0.4498-0.4151 1.052-0.6668 1.748-0.6852a32.07 32.07 0 0 1 0.8741-0.01098h0.01142a0.4204 0.4204 0 0 0 0.4177-0.3742c0.0672-0.6079 0.5188-1.039 1.15-1.056zm0.1735 2.538a0.4204 0.4204 0 0 0-0.4186 0.4204v0.2051a0.4204 0.4204 0 0 0 0.839 0v-0.2051a0.4204 0.4204 0 0 0-0.4204-0.4204" fill="url(#d)" stroke-width=".4392"/>
 <path transform="translate(-.003945 -.2991) scale(1.002)" d="m16.48 3.486c-0.4032 0.00879-0.7906 0.08961-1.15 0.2341a0.5418 0.5418 0 0 0 0.4032 1.006 2.24 2.24 0 0 1 1.052-0.1463 0.5416 0.5416 0 0 0 0.1748-1.066 0.4392 0.4392 0 0 0-0.07292-0.01186 3.514 3.514 0 0 0-0.4072-0.01537z" fill="url(#c)" stroke-width=".4392"/>
 <path transform="translate(-.003945 -.2991) scale(1.002)" d="m16.18 1.157a1.015 1.015 0 0 0-1.016 1.017 1.015 1.015 0 0 0 1.016 1.014 1.015 1.015 0 0 0 1.016-1.014 1.015 1.015 0 0 0-1.016-1.017" fill="url(#b)" stroke-width=".4392"/>
 <path transform="translate(-.003945 -.2991) scale(1.002)" d="m21.4 18.02-1.079-1.072-0.01256-0.01256-3.777-3.758c-0.2613-0.2605-0.434-0.4311-0.6281-0.5726a3.077 3.077 0 0 0-0.5519-0.3175c-0.2206-0.0987-0.4533-0.1613-0.8094-0.257l-1.994-0.5376a3.384 3.384 0 0 0-0.2454-0.0544 0.8615 0.8615 0 0 0-0.4614 0.02933 0.8306 0.8306 0 0 0-0.4806 0.4806 0.8615 0.8615 0 0 0-0.02679 0.4622 4 4 0 0 0 0.08876 0.3584l0.3425 1.247 0.0017 5e-3 0.1716 0.6257c0.09743 0.3553 0.1615 0.5885 0.2603 0.8082 0.08834 0.1956 0.1958 0.3805 0.3226 0.5537 0.1423 0.1941 0.3128 0.363 0.5742 0.6226l3.777 3.757 0.01593 0.01422 1.075 1.07a1.75 1.75 0 0 0 1.997 0.3357 3.817 3.817 0 0 0 1.784-1.795 1.847 1.847 0 0 0 0.08876-0.2227 1.754 1.754 0 0 0 0.07203-0.71l-8.67e-4 -8.68e-4a1.754 1.754 0 0 0-0.5057-1.06zm-0.7166 0.7221a0.7384 0.7384 0 0 1 0.2119 0.4429l-8.68e-4 8.68e-4a0.7384 0.7384 0 0 1-0.03014 0.2965 0.7384 0.7384 0 0 1-0.03766 0.09294 2.8 2.8 0 0 1-1.308 1.316 0.7324 0.7324 0 0 1-0.8361-0.1408l-0.5226-0.5209a4.376 4.376 0 0 0 1.997-2.01l8.68e-4 8.67e-4zm-1.303-1.294a3.357 3.357 0 0 1-1.999 2.007l-3.538-3.519c-0.2995-0.2976-0.4091-0.4094-0.4981-0.5316-0.08488-0.1155-0.1573-0.2386-0.2169-0.3692-0.06178-0.1378-0.1039-0.2902-0.215-0.6972l-0.02265-0.07791a2.184 2.184 0 0 0 0.7736-0.5005 2.184 2.184 0 0 0 0.4964-0.776l0.07785 0.02092c0.4079 0.1103 0.5601 0.1525 0.699 0.2133a2.03 2.03 0 0 1 0.3684 0.2127c0.1226 0.089 0.2375 0.1987 0.5367 0.4965h-0.0017zm-1.194 0.09391-2.96-2.943a0.5095 0.5095 0 0 0-0.7197 0.7209l2.96 2.943a0.5097 0.5097 0 0 0 0.8452-0.2075 0.5232 0.5232 0 0 0 0.0201-0.2043v-0.0017a0.5107 0.5107 0 0 0-0.1465-0.3073zm-5.017-4.826-2.1e-5 0.0017a1.139 1.139 0 0 1-0.5509 0.5526l-0.2076-0.7585z" fill="url(#g)" stroke-width=".6063"/>
</svg>
