<svg version="1.1" viewBox="0 0 22 22" xmlns="http://www.w3.org/2000/svg">
 <defs>
  <linearGradient id="a" x1="1" x2="0" y2="1">
   <stop stop-color="#ff0073" offset="0"/>
   <stop stop-color="#5a00ff" offset="1"/>
  </linearGradient>
  <linearGradient id="b" y2="1">
   <stop stop-color="#00f1fa" offset="0"/>
   <stop stop-color="#006cff" offset="1"/>
  </linearGradient>
 </defs>
 <path transform="translate(0) scale(1) translate(.004859 .002506) scale(1) translate(4.3e-5 -.001056) scale(1)" d="m17.47 14.13c-0.8927 0-1.658 0.3153-2.295 0.9453-0.636 0.6287-0.9531 1.396-0.9531 2.303a3.14 3.14 0 0 0 0.9531 2.293c0.6358 0.6345 1.4 0.9523 2.293 0.9531h2e-3c0.3225-8.57e-4 0.625-0.04124 0.9043-0.123a3.2 3.2 0 0 0 0.7852-0.3633l1.363 1.324a0.9 0.9 0 0 0 0.6211 0.252 0.8 0.8 0 0 0 0.5938-0.252 0.86 0.86 0 0 0-0.0098-1.227l-1.381-1.379c0.129-0.222 0.193-0.3303 0.291-0.6973 0.06533-0.2447 0.09766-0.5052 0.09766-0.7812 0-0.906-0.3181-1.677-0.9531-2.303-0.6353-0.63-1.405-0.9453-2.312-0.9453zm-0.0039 1.828a1.34 1.34 0 0 1 0.9961 0.4121 1.45 1.45 0 0 1 0.4258 1.008c0.01333 0.3493-0.1198 0.6733-0.3984 0.9727-0.2787 0.298-0.6194 0.4473-1.025 0.4473-0.4073 6.67e-4 -0.7413-0.1368-1.002-0.4121-0.262-0.2767-0.3945-0.6156-0.3945-1.016a1.39 1.39 0 0 1 0.4004-1.008c0.2653-0.2693 0.598-0.4036 0.998-0.4043z" fill="url(#b)"/>
 <path transform="translate(0) scale(1) translate(.004859 .002506) scale(1) translate(4.3e-5 -.001056)" d="m10.98 0.2832c-0.4264-7.456e-5 -0.8126 0.09446-1.158 0.2832l-9.279 5.272a1.1 1.1 0 0 0-0.4004 0.4141 1.1 1.1 0 0 0-0.1426 0.543v0.75c0 0.286 0.1007 0.5341 0.3027 0.7441 0.202 0.2107 0.4545 0.3157 0.7578 0.3164h19.72c0.3453 0 0.6345-0.1188 0.8672-0.3574 0.232-0.238 0.3477-0.5353 0.3477-0.8906v-0.4727c0-0.2327-0.06031-0.4435-0.1816-0.6328-0.182-0.284-0.2748-0.3448-0.4648-0.4648l-9.201-5.221a2.4 2.4 0 0 0-1.16-0.2832zm0 2.455h0.0039l5.869 3.412h-11.74zm-6.428 6.824c-0.3073 0-0.5661 0.1032-0.7754 0.3125-0.21 0.2093-0.3144 0.4581-0.3144 0.7461v6.619c-1e-7 0.306 0.1026 0.5628 0.3086 0.7715 0.2067 0.2087 0.4642 0.3132 0.7715 0.3125 0.308 6.66e-4 0.5623-0.0995 0.7637-0.2988 0.2-0.2 0.2988-0.4531 0.2988-0.7598v-6.643c0-0.2893-0.09759-0.5394-0.2949-0.748a1 1 0 0 0-0.7578-0.3125zm6.539 0c-0.29 0-0.54 0.1032-0.75 0.3125s-0.3151 0.4581-0.3144 0.7461v6.643c0 0.2893 0.1046 0.5381 0.3106 0.7461 0.2067 0.2093 0.4554 0.3151 0.7461 0.3144 0.29 6.66e-4 0.54-0.1051 0.75-0.3144 0.21-0.208 0.3132-0.4568 0.3125-0.7461v-6.643c0-0.2887-0.1019-0.5374-0.3086-0.7461a1 1 0 0 0-0.7461-0.3125zm6.359 0c-0.3073 0-0.5654 0.1032-0.7754 0.3125-0.2107 0.2093-0.3164 0.4581-0.3164 0.7461v1.25c0 0.306 0.1039 0.5635 0.3106 0.7715 0.2073 0.21 0.4642 0.3144 0.7715 0.3144 0.3067 0 0.561-0.1001 0.7637-0.3008 0.2-0.2 0.3008-0.4531 0.3008-0.7598v-1.275c0-0.288-0.09954-0.5368-0.2969-0.7461a1 1 0 0 0-0.7578-0.3125zm-16.24 9.719c-0.34 0-0.628 0.1163-0.8633 0.3496-0.2347 0.2327-0.3522 0.5207-0.3516 0.8613 0 0.3413 0.1176 0.6292 0.3516 0.8652 0.2353 0.2353 0.5233 0.3535 0.8633 0.3535h11.08c0.34 0 0.631-0.1157 0.875-0.3477 0.2433-0.2327 0.3652-0.5207 0.3652-0.8613 0-0.3427-0.1219-0.6312-0.3652-0.8672a1.22 1.22 0 0 0-0.877-0.3535z" fill="url(#a)"/>
</svg>
