<svg xmlns="http://www.w3.org/2000/svg" viewBox="0 0 22 22"><defs><linearGradient id="a" y1="1"><stop offset="0" stop-color="#873df0"/><stop offset="1" stop-color="#f25ef3"/></linearGradient></defs><path fill="url(#a)" d="M4.812 0c-2.75 0-2.75 2.75-2.75 2.75H.687v4.125h1.375v8.25H.687v4.125h1.375s0 2.75 2.75 2.75h12.38c4.125 0 4.125-4.125 4.125-4.125V4.125S21.317 0 17.192 0zm2.75 1.375h9.625c2.75 0 2.75 2.75 2.75 2.75v13.75s0 2.75-2.75 2.75H7.562c-2.75 0-2.75-2.75-2.75-2.75V4.125s0-2.75 2.75-2.75" transform="translate(-.002)"/><path fill="url(#a)" d="M6.688 2.75a.5.5 0 0 0-.5.5v.375a.5.5 0 0 0 .5.5h5.875a.5.5 0 0 0 .5-.5V3.25a.5.5 0 0 0-.5-.5zm0 2.75a.5.5 0 0 0-.5.5v.375a.5.5 0 0 0 .5.5h7.25a.5.5 0 0 0 .5-.5V6a.5.5 0 0 0-.5-.5zm0 2.75a.5.5 0 0 0-.5.5v.375a.5.5 0 0 0 .5.5h5.875a.5.5 0 0 0 .5-.5V8.75a.5.5 0 0 0-.5-.5zm0 2.75a.5.5 0 0 0-.5.5v.375a.5.5 0 0 0 .5.5h7.25a.5.5 0 0 0 .5-.5V11.5a.5.5 0 0 0-.5-.5zm0 2.75a.5.5 0 0 0-.5.5v.375a.5.5 0 0 0 .5.5h5.875a.5.5 0 0 0 .5-.5v-.375a.5.5 0 0 0-.5-.5zm0 2.75a.5.5 0 0 0-.5.5v.375a.5.5 0 0 0 .5.5h7.25a.5.5 0 0 0 .5-.5V17a.5.5 0 0 0-.5-.5z" transform="translate(-.002)"/><path fill="#0f0" d="M16.308 13.75a.5.5 0 0 0-.5.5v.375a.5.5 0 0 0 .5.5h1.75a.5.5 0 0 0 .5-.5v-.375a.5.5 0 0 0-.5-.5z"/><path fill="red" d="M16.308 8.25a.5.5 0 0 0-.5.5v.375a.5.5 0 0 0 .5.5h1.75a.5.5 0 0 0 .5-.5V8.75a.5.5 0 0 0-.5-.5z"/><path fill="#0f0" d="M16.308 2.75a.5.5 0 0 0-.5.5v.375a.5.5 0 0 0 .5.5h1.75a.5.5 0 0 0 .5-.5V3.25a.5.5 0 0 0-.5-.5z"/></svg>