<svg version="1.1" viewBox="0 0 22 22" xmlns="http://www.w3.org/2000/svg">
 <defs>
  <linearGradient id="a" x2="0" y1="1">
   <stop stop-color="#ff001e" offset="0"/>
   <stop stop-color="#ff004b" offset="1"/>
  </linearGradient>
 </defs>
 <path transform="translate(-.00095) scale(1) translate(.00082 3.1e-5) scale(1) matrix(.4773 0 0 .4773 -.4556 -.4559)" d="m18.95 34.94c-0.4032 0.0074-0.7915 0.1628-1.09 0.4375-0.343 0.315-0.5371 0.7577-0.5371 1.221v7.381c0 2.551 2.94 3.982 4.947 2.408l1.73-1.297 1.73 1.297c2.007 1.574 4.947 0.1428 4.947-2.408v-7.381c0-0.463-0.1941-0.9057-0.5371-1.221-0.342-0.314-0.8017-0.4716-1.264-0.4316-0.853 0.072-1.51 0.7876-1.51 1.643v6.883l-2.602-1.994c-0.452-0.346-1.079-0.346-1.531 0l-2.602 1.994v-6.973c0-0.807-0.616-1.477-1.418-1.545l-0.0918-0.0078c-0.058-5e-3 -0.1162-0.0069-0.1738-0.0059z" fill="url(#a)"/>
 <path transform="translate(-.00095) scale(1) translate(.00082 3.1e-5) scale(1) matrix(.4773 0 0 .4773 -.4556 -.4559)" d="m24 0.9551c-0.45 0-0.9001 0.1708-1.246 0.5098l-2.49 2.44-3.377-0.8691c-0.939-0.241-1.898 0.314-2.158 1.248l-0.9375 3.357-3.359 0.9375c-0.934 0.26-1.487 1.219-1.246 2.158l0.8691 3.377-2.441 2.492c-0.679 0.692-0.679 1.8 0 2.492l2.441 2.49-0.8691 3.377c-0.241 0.939 0.3121 1.898 1.246 2.158l3.359 0.9375 0.9375 3.359c0.26 0.934 1.219 1.486 2.158 1.244l3.377-0.8672 2.49 2.44c0.692 0.679 1.8 0.679 2.492 0l2.49-2.44 3.377 0.8672c0.939 0.242 1.898-0.3101 2.158-1.244l0.9375-3.359 3.359-0.9375c0.934-0.26 1.487-1.219 1.246-2.158l-0.8691-3.377 2.441-2.49c0.678-0.692 0.678-1.8 0-2.492l-2.441-2.492 0.8691-3.377c0.241-0.939-0.3121-1.898-1.246-2.158l-3.359-0.9375-0.9375-3.357c-0.26-0.934-1.219-1.489-2.158-1.248l-3.377 0.8691-2.49-2.44c-0.346-0.339-0.7961-0.5098-1.246-0.5098zm0 4.273 1.963 1.922c0.445 0.437 1.084 0.6091 1.688 0.4531l2.66-0.6836 0.7383 2.644c0.168 0.602 0.6353 1.07 1.236 1.238l2.646 0.7363-0.6836 2.66c-0.156 0.603 0.01417 1.244 0.4512 1.69l1.924 1.963-1.924 1.961c-0.437 0.445-0.6072 1.086-0.4512 1.69l0.6836 2.66-2.646 0.7383c-0.601 0.168-1.068 0.6353-1.236 1.236l-0.7383 2.646-2.66-0.6836c-0.603-0.156-1.242 0.01417-1.688 0.4512l-1.963 1.924-1.963-1.924c-0.445-0.437-1.084-0.6072-1.688-0.4512l-2.66 0.6836-0.7383-2.646c-0.168-0.601-0.6353-1.068-1.236-1.236l-2.646-0.7383 0.6836-2.66c0.156-0.603-0.01417-1.244-0.4512-1.69l-1.924-1.961 1.924-1.963c0.437-0.445 0.6072-1.086 0.4512-1.69l-0.6836-2.66 2.646-0.7363c0.601-0.168 1.068-0.6363 1.236-1.238l0.7383-2.644 2.66 0.6836c0.603 0.156 1.242-0.01612 1.688-0.4531z" fill="url(#a)"/>
 <path transform="translate(-.00095) scale(1) translate(.00082 3.1e-5) scale(1) matrix(.4773 0 0 .4773 -.4556 -.4559)" d="m23.91 10.66c-0.524-2e-3 -0.9764 0.1874-1.357 0.5684l-5.318 5.318c-0.381 0.381-0.5722 0.8335-0.5762 1.356-2e-3 0.523 0.1893 0.9744 0.5723 1.357 0.382 0.381 0.8324 0.5732 1.359 0.5742 0.526 1e-3 0.9803-0.1874 1.361-0.5684l2.053-2.053-2e-3 4.508c-1e-3 0.54 0.1848 0.9914 0.5508 1.357 0.366 0.367 0.8147 0.5565 1.348 0.5625 0.547-8e-3 1.012-0.1936 1.398-0.5606 0.384-0.366 0.5781-0.8194 0.5781-1.359l-0.0293-4.478 2.023 2.023c0.38 0.38 0.8325 0.5722 1.356 0.5742 0.522 2e-3 0.9735-0.1883 1.356-0.5703 0.383-0.383 0.5732-0.8353 0.5742-1.361s-0.1884-0.9804-0.5684-1.359l-5.318-5.32c-0.381-0.381-0.8354-0.5684-1.359-0.5684z" fill="url(#a)"/>
</svg>
