<svg version="1.1" viewBox="0 0 22 22" xmlns="http://www.w3.org/2000/svg">
 <defs>
  <linearGradient id="a" y1="1">
   <stop stop-color="#f0f" offset="0"/>
   <stop stop-color="#fd5" offset="1"/>
  </linearGradient>
 </defs>
 <path transform="translate(.004801 -1e-6) scale(1) translate(.002211 .001954) scale(1)" d="m10.99-0.001953c-2.559 0-4.912 0.6038-6.631 1.826-1.719 1.222-2.798 3.075-2.795 5.537 0.011 2.782 1.66 6.372 3.648 9.307 0.9944 1.467 2.076 2.768 3.088 3.719 1.011 0.9489 1.942 1.554 2.699 1.606 0.7377-0.05184 1.672-0.6558 2.682-1.606 1.01-0.9505 2.093-2.251 3.088-3.719 1.989-2.933 3.636-6.523 3.648-9.307 0.0016-2.462-1.078-4.315-2.795-5.537-1.719-1.223-4.074-1.826-6.633-1.826zm0 1.57h2e-3c2.315 1.229e-4 4.325 0.5446 5.719 1.535 1.392 0.9908 2.136 2.41 2.135 4.258-0.0099 2.192-1.329 5.405-3.377 8.426-0.9304 1.373-1.94 2.586-2.863 3.455-0.7574 0.7109-1.37 1.104-1.654 1.172-0.186-0.05458-0.8039-0.4472-1.576-1.172-0.9214-0.8662-1.928-2.08-2.859-3.455-2.05-3.024-3.371-6.235-3.379-8.432-0.001635-1.841 0.7445-3.261 2.137-4.252 1.391-0.9898 3.402-1.535 5.717-1.535z" fill="url(#a)"/>
 <path transform="translate(.004801 -1e-6) scale(1) translate(.002211 .001954) scale(1)" d="m11 4.334a1.586 1.586 0 0 0-1.512 1.102l-0.418 1.303a0.3728 0.3728 0 0 1-0.3574 0.2598h-1.375a1.586 1.586 0 0 0-0.9375 2.867l1.129 0.8262a0.3728 0.3728 0 0 1 0.1367 0.418l-0.4297 1.326a1.565 1.565 0 0 0 0.582 1.775c0.2694 0.1979 0.5952 0.3036 0.9297 0.3047a1.575 1.575 0 0 0 0.9394-0.3125l1.092-0.8047a0.3728 0.3728 0 0 1 0.4434 0l1.092 0.8027a1.586 1.586 0 0 0 2.451-1.766l-0.4297-1.326a0.3728 0.3728 0 0 1 0.1348-0.418l1.129-0.8262a1.586 1.586 0 0 0-0.003906-2.564 1.575 1.575 0 0 0-0.9316-0.3027h-1.377c-0.1628 0-0.3075-0.1044-0.3574-0.2598l-0.4199-1.303a1.591 1.591 0 0 0-1.51-1.102z" fill="url(#a)"/>
</svg>
