<svg version="1.1" viewBox="0 0 22 22" xmlns="http://www.w3.org/2000/svg">
 <defs>
  <linearGradient id="a" y1="1">
   <stop stop-color="#05f" offset="0"/>
   <stop stop-color="#00ffd8" offset="1"/>
  </linearGradient>
 </defs>
 <path transform="translate(-2e-5) scale(.9999) matrix(.9999 0 0 .9999 .00301 9e-6)" d="m5.5 0a3.66 3.66 0 0 0-3.668 3.668v14.67a3.66 3.66 0 0 0 3.668 3.666h11a3.66 3.66 0 0 0 3.666-3.666v-14.67a3.66 3.66 0 0 0-3.664-3.668zm0 1.832h11c1.015 0 1.832 0.819 1.832 1.834v14.67a1.83 1.83 0 0 1-1.832 1.834h-11a1.83 1.83 0 0 1-1.83-1.834v-14.67c0-1.016 0.816-1.834 1.832-1.834z" fill="url(#a)"/>
 <path transform="translate(-2e-5) scale(.9999) translate(.00301 9e-6) scale(.9999)" d="m15.18 3.557a1.4 1.4 0 0 0-0.1836 0.00391h-7.996a1.5 1.5 0 0 0-1.5 1.5 1.38 1.38 0 0 0 1.5 1.25h7.998a1.5 1.5 0 0 0 1.5-1.5 1.38 1.38 0 0 0-1.318-1.254z" fill="#FDFF00"/>
</svg>
