<svg xmlns="http://www.w3.org/2000/svg" fill="none" viewBox="0 0 22 22"><defs><linearGradient id="a" x1="11" x2="11" y1="19.71" y2="2.062" gradientUnits="userSpaceOnUse"><stop offset="0" stop-color="#02aa93"/><stop offset="1" stop-color="#67ff80"/></linearGradient></defs><path fill="url(#a)" d="M19.04 3.085a4.4 4.4 0 0 0-3.648-.945l-2.633.552a3.6 3.6 0 0 0-1.76.855 3.53 3.53 0 0 0-1.728-.852l-2.696-.561a4.41 4.41 0 0 0-5.2 4.337v7.854a4.406 4.406 0 0 0 3.603 4.337l4.658.92a7.6 7.6 0 0 0 1.36.123q.698 0 1.385-.126l4.622-.917a4.414 4.414 0 0 0 3.623-4.337V6.47a4.4 4.4 0 0 0-1.585-3.386zm-9.243 14.08-4.369-.863a2.005 2.005 0 0 1-1.647-1.973V6.474a2.013 2.013 0 0 1 2-2.006q.168 0 .333.03l2.696.561a1.2 1.2 0 0 1 .987 1.184v10.92zm8.422-2.836a2.01 2.01 0 0 1-1.665 1.976l-4.35.86V6.245a1.21 1.21 0 0 1 1.019-1.19l2.632-.55a2.005 2.005 0 0 1 2.364 1.971v7.855z" transform="translate(-1.57 -1.439)scale(1.14294)"/></svg>