<svg xmlns="http://www.w3.org/2000/svg" viewBox="0 0 22 22"><defs><linearGradient id="a" y1="1"><stop offset="0" stop-color="#d800bd"/><stop offset=".408" stop-color="#f92d7a"/><stop offset=".59" stop-color="#ff4a52"/><stop offset="1" stop-color="#ffb243"/></linearGradient></defs><g stroke-width="1.833"><path fill="#00ff80" d="M12.839 0 5.504 7.335H1.845v1.833h4.418l6.579-6.58 3.891 3.892.011-.007.007.007 5.184-5.183c.005.01-1.296-1.296-1.296-1.296l-3.895 3.895L12.846 0l-.004.004z"/><path fill="url(#a)" d="M.002.004v18.33C.002 22 3.668 22 3.668 22h18.33v-3.91c-1.756-1.747-3.507-3.502-5.26-5.255l-.006.007-.011-.007-3.892 3.892-5.724-5.724h-5.27v-11zm1.833 12.83h4.51l6.48 6.48.004-.004.004.004 3.899-3.895c1.588 1.588 3.166 3.186 4.779 4.747H3.671s-1.833 0-1.833-1.833z" transform="scale(.9999)"/></g></svg>