<svg xmlns="http://www.w3.org/2000/svg" viewBox="0 0 22 22"><defs><linearGradient id="c" x1="8.273" x2="8.273" y1="13.98" y2="2.159" gradientTransform="matrix(1.1 0 0 1.1 -1.1 -1.375)" gradientUnits="userSpaceOnUse"><stop offset="0" stop-color="#a93aff"/><stop offset="1" stop-color="#ff81ff"/></linearGradient><linearGradient id="a"><stop offset="0" stop-color="#39ff14"/></linearGradient></defs><path fill="url(#a)" d="M11 8s-1 0-1 1v1H9c-1 0-1 1-1 1v1s0 1 1 1h1v1c0 1 1 1 1 1h1s1 0 1-1v-1h1c1 0 1-1 1-1v-1s0-1-1-1h-1V9c0-1-1-1-1-1z" transform="translate(-1.57 -1.57)scale(1.57084)"/><path fill="url(#c)" d="M1 1v13h2V1zm3 0v6h1V1zm2 0v13h1V1zm2 0v8h1V1zm2 0v6h1V1zm2 0v6h3V1z" style="-inkscape-stroke:none;font-variation-settings:normal" transform="translate(-1.57 -1.57)scale(1.57084)"/></svg>