<svg version="1.1" viewBox="0 0 22 22" xmlns="http://www.w3.org/2000/svg">
 <defs>
  <linearGradient id="a" y1=".5" y2=".5">
   <stop stop-color="#248efe" offset="0"/>
   <stop stop-color="#1df4ff" offset="1"/>
  </linearGradient>
  <linearGradient id="b" x2="0" y2="1">
   <stop stop-color="#ff930f" offset="0"/>
   <stop stop-color="#fff95b" offset="1"/>
  </linearGradient>
 </defs>
 <path transform="translate(-0) scale(1) translate(-0 -.00164) scale(1) translate(-.002095 .2443) scale(.9779) matrix(.6782 0 0 .6782 -1.428 3.54)" d="m14 0c-1.378 0.248-5.974 8.17-8.506 12.7-1.248 0.2627-1.806 1.274-1.182 2.393-1.468 3.082-2.203 4.857-2.203 5.324-0.02776 1.497 2.114 2.07 2.772 0.6562 1.176-2.451 2.007-4.314 2.494-5.588 2.982-0.6429 5.76-1.215 7.773-1.531 0.7646 4.525 1.457 7.723 3.281 8.041 2.591-0.4754 1.144-2.696 0.2324-5.354l-2.174-10.14c-0.9177-3.879-0.546-6.502-2.496-6.502zm-0.7168 5.324 1.182 5.631c-2.392 0.428-4.176 0.7921-5.354 1.094z" fill="url(#a)"/>
 <path transform="translate(-0) scale(1) translate(-0 -.00164) scale(1) translate(-.002095 .2443) scale(.9779)" d="m16.79 18.46c-0.4517-9.69e-4 -0.8423-0.1588-1.124-0.3099-0.2938-0.1572-0.5659-0.3592-0.8077-0.5656-0.4836-0.4117-0.9664-0.9434-1.398-1.453-0.4369-0.5156-0.86-1.058-1.211-1.505-0.3743-0.4764-0.6311-0.7921-0.7867-0.9522-0.5068-0.5213-0.4962-1.354 0.02517-1.86 0.5213-0.5068 1.355-0.499 1.861 0.02252 0.2758 0.2835 0.6334 0.7358 0.9712 1.166 0.3609 0.4595 0.7487 0.9576 1.147 1.428 0.0035 0.0043 0.0083 0.01164 0.01192 0.0159v-9.59c0-0.727 0.5896-1.316 1.316-1.316s1.316 0.5896 1.316 1.316v9.59l0.0014-0.0013c0.0024-0.0037 0.0054-0.01084 0.0079-0.01457 0.3985-0.4705 0.786-0.9685 1.147-1.428 0.3373-0.4296 0.6965-0.8823 0.9725-1.166 0.5068-0.5215 1.339-0.5293 1.86-0.02252 0.5215 0.5068 0.5318 1.339 0.02513 1.86-0.1557 0.1603-0.4112 0.476-0.7854 0.9522-0.3507 0.4466-0.7752 0.9888-1.212 1.505-0.4321 0.5099-0.9129 1.042-1.396 1.453-0.2423 0.2064-0.5169 0.4084-0.8104 0.5656-0.2835 0.1515-0.6716 0.3098-1.124 0.3099z" fill="url(#b)" stroke-width=".6782"/>
</svg>
