<svg xmlns="http://www.w3.org/2000/svg" viewBox="0 0 22 22"><path fill="#fe6f5e" d="M3.142 0C2.272 0 1.57.7 1.57 1.57v6.285h15.71c1.713 0 3.141 1.428 3.141 3.141v9.426c0 .572-.169 1.105-.445 1.571h.445c.87 0 1.571-.7 1.571-1.57V1.57c0-.87-.7-1.571-1.57-1.571zm1.57 1.57h9.426v1.572H4.713zm10.997 0h3.142v1.572H15.71zM4.713 4.714h4.712v1.57H4.713zM1.57 9.425C.7 9.425 0 10.126 0 10.996v9.426c0 .87.7 1.571 1.57 1.571h15.71c.87 0 1.571-.7 1.571-1.57v-9.427c0-.87-.7-1.57-1.57-1.57zm3.09 2.418q.28.003.549.108c.711.281 1.111.992 1.215 1.789.051.391-.007.717-.058.985-.023.117-.03.126-.05.208.01 0 .034-.002.028.004s.242-.34.482-.682c.12-.17.25-.347.439-.518s.478-.383.899-.365c.345.014.511.16.638.26.126.102.216.2.307.301.18.201.35.413.509.577.131.137.172.22.328.175.149-.13.202-.196.252-.276.137-.173.258-.404.436-.55.203-.12.62-.115.81-.012.189.104.24.19.285.249.089.118.118.181.172.276.107.19.262.467.549.908a.785.785 0 0 1-.23 1.09.786.786 0 0 1-1.09-.23c-.087-.135-.1-.166-.168-.277-.066.061-.079.111-.157.172-.41.322-1.026.37-1.43.212s-.664-.413-.89-.648c-.159-.165-.269-.299-.383-.432-.181.26-.413 1.154-1.81 1.328s-1.57-.812-1.577-1.503c.033-.17.05-.381.107-.562.037-.192.053-.435.047-.484-.055-.417-.213-.525-.237-.534s-.11-.066-.402.24c-.204.213-.391.548-.62.947-.162.4-.434.816-.478 1.283-.095.424-.62.709-1.043.613-.424-.094-.587-.533-.491-.957l.14-.626.035-.077c.128-.277.253-.632.472-1.015.21-.368.444-.83.85-1.255.432-.453 1.005-.73 1.565-.721zM1.58 17.28h10.996v1.571H1.58zm12.567 0h3.142v1.571h-3.142z"/></svg>