<svg version="1.1" viewBox="0 0 22 22" xmlns="http://www.w3.org/2000/svg">
 <defs>
  <linearGradient id="a" y1="1">
   <stop stop-color="#7f00ff" offset="0"/>
   <stop stop-color="#e100ff" offset="1"/>
  </linearGradient>
  <linearGradient id="b" x2="0" y1="1">
   <stop stop-color="#00cca0" offset="0"/>
  </linearGradient>
  <linearGradient id="c" y1="1">
   <stop stop-color="#5433ff" offset="0"/>
   <stop stop-color="#20bdff" offset=".5"/>
   <stop stop-color="#a5fecb" offset="1"/>
  </linearGradient>
 </defs>
 <path transform="translate(-0) scale(1) translate(-0) scale(1) translate(-0 6e-6) scale(1) translate(-0 -6e-6) scale(.9999) matrix(.3439 0 0 .3439 8.999e-6 -.001188)" d="m8.533 4.082a8.514 8.514 0 0 0-8.533 8.535v42.67a8.514 8.514 0 0 0 8.533 8.535h46.91a8.516 8.516 0 0 0 8.535-8.535v-42.67a8.516 8.516 0 0 0-8.535-8.535h-3.062v4.141c0 2.555-2.122 4.666-4.672 4.666s-4.666-2.116-4.666-4.666v-4.141h-22.11v4.141c0 2.555-2.122 4.666-4.672 4.666s-4.666-2.116-4.666-4.666v-4.141zm0 12.8h46.91a4.26 4.26 0 0 1 4.27 4.266v34.12a4.26 4.26 0 0 1-4.27 4.266h-46.91a4.256 4.256 0 0 1-4.266-4.266v-34.12a4.256 4.256 0 0 1 4.266-4.266" fill="url(#a)"/>
 <path transform="translate(-0) scale(1) translate(-0) scale(1) translate(-0 6e-6) scale(1) translate(-0 -6e-6) scale(.9999) matrix(.3439 0 0 .3439 8.999e-6 -.001188)" d="m16.14 0.164a2.67 2.67 0 0 0-2.535 2.666v5.393c0 1.48 1.188 2.666 2.666 2.666s2.672-1.188 2.672-2.666v-5.393a2.663 2.663 0 0 0-2.672-2.666c-0.046 0-0.084-2e-3 -0.129 0z" fill="url(#b)"/>
 <path transform="translate(-0) scale(1) translate(-0) scale(1) translate(-0 6e-6) scale(1) translate(-0 -6e-6) scale(.9999) matrix(.3439 0 0 .3439 8.999e-6 -.001188)" d="m47.58 0.164a2.67 2.67 0 0 0-2.535 2.666v5.393c0 1.48 1.188 2.666 2.666 2.666s2.672-1.188 2.672-2.666v-5.393a2.663 2.663 0 0 0-2.672-2.666c-0.046 0-0.084-2e-3 -0.129 0z" fill="url(#b)"/>
 <path transform="translate(-0) scale(1) translate(-0) scale(1) translate(-0 6e-6) scale(1) translate(-0 -6e-6) scale(.9999)" d="m5.518 16.47c-0.3107 0-0.5719 0.1043-0.7818 0.3148-0.2098 0.2105-0.3141 0.4718-0.3148 0.7818-7.311e-4 0.31 0.1036 0.5705 0.3148 0.7818 0.2113 0.2113 0.4725 0.3163 0.7818 0.3148h4.386c0.3107 0 0.5712-0.1043 0.7818-0.3148s0.3156-0.4718 0.3148-0.7818c-7.31e-4 -0.31-0.105-0.5712-0.3148-0.7818s-0.4711-0.3148-0.7818-0.3148z" fill="url(#c)" stroke-width="1.097"/>
 <path transform="translate(-0) scale(1) translate(-0) scale(1) translate(-0 6e-6) scale(1) translate(-0 -6e-6) scale(.9999)" d="m8.808 12.08c-0.3107 0-0.5719 0.1043-0.7818 0.3148-0.2098 0.2105-0.3141 0.4718-0.3148 0.7818s0.1036 0.5705 0.3148 0.7818c0.2113 0.2113 0.4725 0.3163 0.7818 0.3148h4.386c0.3107 0 0.5712-0.1043 0.7818-0.3148 0.2105-0.2106 0.3156-0.4718 0.3148-0.7818-7.32e-4 -0.31-0.105-0.5712-0.3148-0.7818s-0.4711-0.3148-0.7818-0.3148z" fill="url(#c)" stroke-width="1.097"/>
 <path transform="translate(-0) scale(1) translate(-0) scale(1) translate(-0 6e-6) scale(1) translate(-0 -6e-6) scale(.9999)" d="m12.1 7.696c-0.3107 0-0.5719 0.1043-0.7818 0.3148-0.2098 0.2105-0.3141 0.4718-0.3148 0.7818-7.31e-4 0.31 0.1036 0.5705 0.3148 0.7818 0.2113 0.2113 0.4725 0.3163 0.7818 0.3148h4.386c0.3107 0 0.5712-0.1043 0.7818-0.3148s0.3156-0.4718 0.3148-0.7818c-7.31e-4 -0.31-0.105-0.5712-0.3148-0.7818-0.2098-0.2105-0.4711-0.3148-0.7818-0.3148z" fill="url(#c)" stroke-width="1.097"/>
</svg>
