<svg xmlns="http://www.w3.org/2000/svg" viewBox="0 0 22 22"><defs><linearGradient id="a" y1="1"><stop offset="0" stop-color="#01ff01"/><stop offset="1" stop-color="#1bc100"/></linearGradient></defs><g fill="url(#a)" stroke-width="1.111"><path d="M20.14 0c1.021 0 1.858.836 1.858 1.858v18.28a1.864 1.864 0 0 1-1.858 1.858H1.86a1.864 1.864 0 0 1-1.858-1.858V1.858C.002.838.838 0 1.86 0zm-1.777 4.221h-.508c-.662 0-1.19.53-1.19 1.191v12.95c0 .662.529 1.191 1.19 1.191h.508c.662 0 1.191-.53 1.191-1.19V5.412c0-.663-.53-1.192-1.191-1.192m-5.334 0H3.632c-.662 0-1.191.53-1.191 1.191v12.95c0 .662.53 1.191 1.191 1.191h9.397c.662 0 1.191-.53 1.191-1.19V5.412c0-.663-.53-1.192-1.191-1.192"/><path d="M8.459 6.89c.72 0 1.317.597 1.317 1.317v2.031a.2.2 0 0 0 .206.208h2.033c.72 0 1.315.595 1.315 1.315v.254c0 .72-.595 1.317-1.315 1.317H9.982a.2.2 0 0 0-.206.208v2.031c0 .72-.597 1.315-1.317 1.315h-.254c-.72 0-1.315-.594-1.315-1.315v-2.03a.2.2 0 0 0-.208-.209H4.65c-.72 0-1.317-.597-1.317-1.317v-.254c0-.72.597-1.315 1.317-1.315h2.03a.2.2 0 0 0 .21-.208V8.207c0-.72.594-1.317 1.314-1.317z"/></g></svg>