<svg xmlns="http://www.w3.org/2000/svg" fill="none" viewBox="0 0 22 22"><defs><linearGradient id="a" x1="11" x2="11" y1="17.88" y2="4.125" gradientTransform="translate(-1.965 -1.964)scale(1.179)" gradientUnits="userSpaceOnUse"><stop offset="0" stop-color="#5570ff"/><stop offset="1" stop-color="#4dd3ff"/></linearGradient></defs><g fill="url(#a)" stroke-width="1.179" transform="scale(.9999)"><path d="M1.047 2.896C.468 2.896 0 3.381 0 3.978v7.562c0 .597.468 1.08 1.047 1.08h5.762c.579 0 1.049-.483 1.049-1.08V3.978c0-.597-.47-1.082-1.049-1.082z"/><path d="M1.047 15.86C.468 15.86 0 16.344 0 16.94v1.082c0 .597.468 1.08 1.047 1.08h19.91c.579 0 1.047-.484 1.047-1.08V16.94c0-.597-.468-1.08-1.047-1.08z"/><path d="M12.05 9.379c-.579 0-1.047.484-1.047 1.08v1.082c0 .597.468 1.08 1.047 1.08h8.904c.579 0 1.049-.483 1.049-1.08v-1.082c0-.597-.47-1.08-1.049-1.08z"/><path d="M12.05 2.896c-.579 0-1.047.485-1.047 1.082v1.08c0 .597.468 1.08 1.047 1.08h8.904c.579 0 1.049-.483 1.049-1.08v-1.08c0-.597-.47-1.082-1.049-1.082z"/></g></svg>