<svg xmlns="http://www.w3.org/2000/svg" viewBox="0 0 22 22"><path fill="#ff0" d="M20.402 17.131H13.5a1.7 1.7 0 0 1-1.118-.462 1.7 1.7 0 0 1-.462-1.117V6.45c.011-.417.178-.825.461-1.127a1.7 1.7 0 0 1 1.119-.467h4.167c.209.004.439.053.63.136.185.085.368.211.507.347l2.708 2.708a1.9 1.9 0 0 1 .347.507c.083.191.132.42.136.63v6.367c-.011.413-.182.82-.468 1.119-.3.282-.71.45-1.126.46zm-.287-1.867V9.332l-2.601-2.594h-3.728v8.526zM.467 16.672A1.7 1.7 0 0 1 0 15.556V9.184c.003-.208.052-.438.135-.629.086-.186.212-.366.348-.509l2.71-2.707c.14-.137.323-.263.507-.35.192-.082.422-.132.63-.132h4.168c.413.012.82.18 1.119.465.282.301.45.712.46 1.127v9.107c-.01.41-.179.815-.461 1.116a1.67 1.67 0 0 1-1.118.46H1.593a1.7 1.7 0 0 1-1.127-.46zm7.744-1.406V6.74H4.484L1.883 9.333v5.936z"/></svg>