<svg version="1.1" viewBox="0 0 22 22" xmlns="http://www.w3.org/2000/svg">
 <path transform="translate(.000881 .000204) scale(1) translate(-1.279 -1.279) scale(1.023)" d="m6 6.768a0.75 0.75 0 0 0-0.75 0.75c0 1.795-1.437 3.23-3.232 3.23a0.75 0.75 0 0 0-0.75 0.75 0.75 0.75 0 0 0 0.75 0.75c2.605 0 4.732-2.125 4.732-4.73a0.75 0.75 0 0 0-0.75-0.75zm12 0a0.75 0.75 0 0 0-0.75 0.75c0 2.586 2.107 4.694 4.682 4.73a0.75 0.75 0 0 0 0.7598-0.7383 0.75 0.75 0 0 0-0.7383-0.7598c-1.771-0.02527-3.203-1.458-3.203-3.232a0.75 0.75 0 0 0-0.75-0.75zm-15.98 9.982a0.75 0.75 0 0 0-0.75 0.75 0.75 0.75 0 0 0 0.75 0.75c1.795 0 3.232 1.436 3.232 3.23a0.75 0.75 0 0 0 0.75 0.75 0.75 0.75 0 0 0 0.75-0.75c0-2.605-2.128-4.73-4.732-4.73zm19.87 0c-2.554 0-4.641 2.087-4.641 4.641v0.0918a0.75 0.75 0 0 0 0.75 0.75 0.75 0.75 0 0 0 0.75-0.75v-0.0918c0-1.743 1.398-3.141 3.141-3.141a0.75 0.75 0 0 0 0.75-0.75 0.75 0.75 0 0 0-0.75-0.75z" fill="#00FF80"/>
 <path transform="translate(.000881 .000204) scale(1) translate(-1.279 -1.279) scale(1.023)" d="m6.996 6.75c-1.098 0.006562-1.967 0.02935-2.721 0.168-0.7534 0.1386-1.417 0.4213-1.926 0.9297-0.5817 0.5817-0.8611 1.358-0.9824 2.26-0.1213 0.9019-0.1172 1.977-0.1172 3.391v2c0 1.414-0.00412 2.491 0.1172 3.393 0.1213 0.9018 0.3995 1.677 0.9805 2.26a0.7501 0.7501 0 0 0 0.00195 0c0.5814 0.5814 1.356 0.8613 2.258 0.9824 0.9019 0.1212 1.979 0.1152 3.393 0.1152h8c1.414 0 2.491 0.0059 3.393-0.1152 0.9019-0.1212 1.676-0.401 2.258-0.9824 0.5817-0.5817 0.8611-1.358 0.9824-2.26s0.1172-1.978 0.1172-3.393v-2c0-1.414 0.0041-2.489-0.1172-3.391-0.1213-0.9019-0.4007-1.678-0.9824-2.26-0.5084-0.5084-1.172-0.7912-1.926-0.9297-0.7535-0.1385-1.623-0.16-2.721-0.166a0.75 0.75 0 0 0-0.7539 0.7441 0.75 0.75 0 0 0 0.7461 0.7559c1.077 0.00594 1.886 0.03757 2.457 0.1426 0.5713 0.105 0.8771 0.2541 1.137 0.5137 0.2973 0.2973 0.4582 0.6666 0.5566 1.398 0.09844 0.7319 0.1035 1.777 0.1035 3.191v2c0 1.414-0.0051 2.461-0.1035 3.193-0.09845 0.732-0.2593 1.101-0.5566 1.398-0.2966 0.2966-0.6663 0.4583-1.398 0.5566-0.7321 0.09835-1.777 0.1016-3.191 0.1016h-8c-1.414 0-2.459-0.0032-3.191-0.1016-0.7321-0.09834-1.102-0.2601-1.398-0.5566-0.2973-0.2985-0.4583-0.6676-0.5566-1.398-0.09844-0.7318-0.1035-1.779-0.1035-3.193v-2c0-1.414 0.00507-2.46 0.1035-3.191 0.09844-0.7319 0.2593-1.101 0.5566-1.398 0.2596-0.2596 0.5654-0.4105 1.137-0.5156s1.38-0.1361 2.457-0.1426a0.75 0.75 0 0 0 0.7461-0.7539 0.75 0.75 0 0 0-0.7539-0.7461z" fill="#00FF80"/>
 <path transform="translate(.000881 .000204) scale(1) translate(-1.279 -1.279) scale(1.023)" d="m12 1.752a0.75 0.75 0 0 0-0.75 0.75v3.963c-0.06706-0.07424-0.1277-0.1248-0.1934-0.2012-0.5113-0.5945-0.9473-1.199-0.9473-1.199a0.75 0.75 0 0 0-1.047-0.1719 0.75 0.75 0 0 0-0.1719 1.047s0.4636 0.6453 1.027 1.301c0.2819 0.3278 0.5894 0.661 0.9023 0.9356s0.5583 0.5762 1.18 0.5762 0.8667-0.3016 1.18-0.5762c0.313-0.2745 0.6205-0.6078 0.9023-0.9356 0.5637-0.6555 1.027-1.301 1.027-1.301a0.75 0.75 0 0 0-0.1719-1.047 0.75 0.75 0 0 0-1.047 0.1719s-0.436 0.6047-0.9473 1.199c-0.0657 0.07639-0.1263 0.1269-0.1934 0.2012v-3.963a0.75 0.75 0 0 0-0.75-0.75zm0 8.998c-0.9167 0-1.843 0.302-2.56 0.9394-0.7171 0.6374-1.19 1.623-1.19 2.81s0.4723 2.173 1.19 2.81c0.7171 0.6374 1.644 0.9394 2.56 0.9394s1.843-0.302 2.56-0.9394c0.7171-0.6374 1.19-1.623 1.19-2.81s-0.4723-2.173-1.19-2.81c-0.7171-0.6374-1.644-0.9394-2.56-0.9394zm0 1.5c0.5833 0 1.157 0.198 1.564 0.5606 0.4079 0.3625 0.6856 0.877 0.6856 1.69s-0.2777 1.327-0.6856 1.69c-0.4079 0.3625-0.9811 0.5606-1.564 0.5606s-1.157-0.198-1.564-0.5606c-0.4079-0.3625-0.6856-0.877-0.6856-1.69s0.2777-1.327 0.6856-1.69c0.4079-0.3625 0.9811-0.5606 1.564-0.5606z" fill="#00FF80"/>
</svg>
