<svg version="1.1" viewBox="0 0 22 22" xmlns="http://www.w3.org/2000/svg">
 <defs>
  <linearGradient id="b" x1="1" x2="0" y1="1">
   <stop stop-color="#f00" offset="0"/>
   <stop stop-color="#ff0086" offset="1"/>
  </linearGradient>
  <linearGradient id="a" y1="1">
   <stop stop-color="#f00" offset="0"/>
   <stop stop-color="#ffa500" offset=".5"/>
   <stop stop-color="#ff0" offset="1"/>
  </linearGradient>
 </defs>
 <path transform="translate(-0) scale(1) translate(-.000184 .000514) scale(1) translate(.000307 -.001279) scale(.9999)" d="m0.5059 4.24v13.79c0 1.902 1.564 3.469 3.467 3.469h13.79l-2.926-2.926h-10.87c-0.3313 0-0.5469-0.2136-0.5469-0.5449v-10.87z" fill="url(#a)"/>
 <path transform="translate(-0) scale(1) translate(-.000184 .000514) scale(1) translate(.000307 -.001279) scale(.9999)" d="m19.18 2.346-0.0039 0.00195c-0.671 0.01274-1.258 0.4761-1.42 1.127-0.2123 0.8491-0.8338 2.6-1.631 3.963-0.3976 0.6817-0.8487 1.278-1.238 1.635-0.3927 0.359-0.6714 0.4434-0.8066 0.4434-0.07887 0-0.1041 0.00973-0.1152 0.00977h-0.0039v-0.00195h-2e-3l-2e-3 -0.00195c-0.0087-0.00963-0.02316-0.03807-0.0957-0.1035-0.11-0.09963-0.339-0.3974-0.5898-0.7734-0.2508-0.3762-0.567-0.8798-1.078-1.34-0.4908-0.4422-1.189-0.8014-2.002-0.8555l5.615 5.604c0.4026-0.212 0.7655-0.4829 1.086-0.7754a0.4657 0.4657 0 0 0 2e-3 0c0.7259-0.6638 1.308-1.483 1.805-2.334 0.9942-1.702 1.656-3.556 1.953-4.746 0.1983-0.7936-0.2914-1.608-1.084-1.807a0.4657 0.4657 0 0 0-0.0039 0c-0.1256-0.03112-0.2537-0.04701-0.3828-0.04492a0.4657 0.4657 0 0 0-2e-3 0zm-13.19 7.375c-0.07023 0.152-0.1373 0.3059-0.2012 0.459-0.7165 1.721-1.108 3.602-1.35 4.566-0.1985 0.7936 0.2914 1.608 1.084 1.807 0.7936 0.1985 1.608-0.2856 1.807-1.078 0.2255-0.9024 0.5317-2.252 0.9551-3.459z" fill="url(#a)"/>
 <path transform="translate(-0) scale(1) translate(-.000184 .000514) scale(1) matrix(.9999 0 0 .9999 .000307 -.001279)" d="m1.799 0.001953a0.2921 0.2921 0 0 0-0.2109 0.0957l0.00391-0.009766c-0.2436 0.04585-0.4939 0.09924-0.6719 0.2773l-0.5586 0.5586c-0.481 0.481-0.4827 1.276-0.001953 1.758a0.2921 0.2921 0 0 0 0.001953 0l18.96 18.96c0.4828 0.4836 1.283 0.4786 1.758-0.01367l0.5723-0.5898c0.4709-0.4866 0.4634-1.276-0.01563-1.754l-18.96-18.92c-0.2322-0.232-0.5483-0.3631-0.877-0.3633a0.2921 0.2921 0 0 0-0.00195 0z" fill="url(#b)"/>
</svg>
