<svg xmlns="http://www.w3.org/2000/svg" viewBox="0 0 22 22"><defs><linearGradient id="a" y1="1"><stop offset="0" stop-color="#006adb"/><stop offset=".25" stop-color="#00a6f3"/><stop offset=".5" stop-color="#ad6ccc"/><stop offset=".75" stop-color="#ec45ff"/><stop offset="1" stop-color="#982fff"/></linearGradient></defs><path fill="url(#a)" d="M2.08 1.83c-.552 0-1.099.225-1.486.625C.209 2.853 0 3.395 0 3.937V7.97c0 .541.213 1.073.584 1.467.386.408.936.643 1.496.643h3.908c.56 0 1.097-.242 1.477-.635.38-.391.602-.924.602-1.473V3.939a2.087 2.087 0 0 0-2.076-2.11zm8.799.582c-.444 0-.86.127-1.19.385a1.33 1.33 0 0 0-.525 1.033c0 .4.199.775.523 1.037.328.265.743.396 1.19.396h9.406c.445 0 .861-.131 1.19-.396.324-.263.523-.638.523-1.037 0-.4-.203-.777-.529-1.033-.327-.258-.736-.385-1.182-.385zM2.201 4.029h3.664v3.852H2.201zm8.678 2.621c-.443 0-.86.126-1.19.385a1.32 1.32 0 0 0-.525 1.03c0 .401.2.777.523 1.038.327.264.742.396 1.19.396h9.406c.446 0 .862-.132 1.19-.396.323-.262.523-.638.523-1.037 0-.4-.202-.774-.529-1.031-.328-.259-.737-.385-1.182-.385zm-4.891 5.268-3.908.002c-.553 0-1.099.225-1.486.625-.386.398-.594.94-.594 1.482v4.033c0 .543.208 1.086.594 1.482.388.4.935.627 1.486.627h3.908c.551 0 1.084-.232 1.467-.617.394-.396.611-.942.611-1.492v-4.033c0-.55-.217-1.098-.611-1.494a2.09 2.09 0 0 0-1.467-.615zm4.891.58c-.444 0-.86.129-1.19.387a1.33 1.33 0 0 0-.525 1.039c0 .403.198.782.525 1.039s.743.385 1.19.385h9.408a1.9 1.9 0 0 0 1.184-.385c.327-.258.53-.636.53-1.04 0-.403-.202-.78-.53-1.038a1.9 1.9 0 0 0-1.184-.387zm-8.678 1.623h3.664v3.85H2.201zm8.678 2.617c-.443 0-.86.125-1.19.383a1.33 1.33 0 0 0-.525 1.04c0 .405.198.782.525 1.04s.744.387 1.19.387h9.408c.433 0 .838-.132 1.168-.385.334-.257.545-.634.545-1.041 0-.404-.202-.784-.53-1.041-.328-.259-.742-.383-1.187-.383z"/></svg>