<svg version="1.1" viewBox="0 0 22 22" xmlns="http://www.w3.org/2000/svg">
 <defs>
  <linearGradient id="a" y1="1">
   <stop stop-color="#5433ff" offset="0"/>
   <stop stop-color="#20bdff" offset=".5"/>
   <stop stop-color="#a5fecb" offset="1"/>
  </linearGradient>
 </defs>
 <path transform="translate(-0) scale(1) translate(0) scale(1)" d="m11 0a5.499 5.499 0 0 0-5.5 5.498h-1.832s-3.666 1.56e-5 -3.666 3.666v9.166c0 3.666 3.666 3.666 3.666 3.666h14.66s3.666-1.6e-5 3.666-3.666v-9.166c0-3.666-3.666-3.666-3.666-3.666h-1.834a5.499 5.499 0 0 0-5.498-5.498zm0 1.832a3.666 3.666 0 0 1 3.666 3.666h-7.332a3.666 3.666 0 0 1 3.666-3.666zm-7.332 5.5h1.832v1.994a2.75 2.75 0 1 0 1.834 0v-1.994h7.332v1.994a2.75 2.75 0 1 0 1.832 0v-1.994h1.834s1.832-9.687e-4 1.832 1.832v9.166c0 1.833-1.832 1.832-1.832 1.832h-14.66s-1.834 9.69e-4 -1.834-1.832v-9.166c0-1.833 1.834-1.832 1.834-1.832zm2.75 3.666a0.9165 0.9165 0 0 1 0 1.832 0.9165 0.9165 0 0 1 0-1.832zm9.164 0a0.9165 0.9165 0 0 1 0 1.832 0.9165 0.9165 0 0 1 0-1.832z" fill="url(#a)"/>
</svg>
