<svg version="1.1" viewBox="0 0 22 22" xmlns="http://www.w3.org/2000/svg">
 <defs>
  <linearGradient id="a" y1="1">
   <stop stop-color="#7f00ff" offset="0"/>
   <stop stop-color="#e100ff" offset="1"/>
  </linearGradient>
  <linearGradient id="b" x2="0" y1="1">
   <stop stop-color="#00cca0" offset="0"/>
  </linearGradient>
  <linearGradient id="d" x1="106.5" x2="106.5" y1="22.88" y2="1.616" gradientTransform="scale(.4775 2.094)" gradientUnits="userSpaceOnUse">
   <stop stop-color="#033bda" offset="0"/>
   <stop stop-color="#0b81fc" offset="1"/>
  </linearGradient>
  <linearGradient id="e" x1="56.24" x2="56.24" y1="13.27" y2="29.66" gradientTransform="scale(.6193 1.615)" gradientUnits="userSpaceOnUse">
   <stop stop-color="#01ff01" offset="0"/>
   <stop stop-color="#1b8b00" offset="1"/>
  </linearGradient>
  <linearGradient id="g" x1="35.43" x2="35.43" y1="25.53" y2="6.613" gradientTransform="scale(.5329 1.877)" gradientUnits="userSpaceOnUse">
   <stop stop-color="#ff4000" offset="0"/>
   <stop stop-color="#ffa200" offset=".905"/>
  </linearGradient>
  <linearGradient id="h" x1="4.284" x2="4.284" y1="33.63" y2="19.27" gradientTransform="scale(.702 1.425)" gradientUnits="userSpaceOnUse">
   <stop stop-color="#ff0001" offset="0"/>
   <stop stop-color="#ec3dc4" offset="1"/>
  </linearGradient>
 </defs>
 <path transform="translate(9e-6 -.000194) scale(.9999) translate(0 -.001) scale(.3439)" d="M8.533 4.082A8.514 8.514 0 0 0 0 12.617v42.67a8.514 8.514 0 0 0 8.533 8.535h46.91a8.516 8.516 0 0 0 8.535-8.535v-42.67a8.516 8.516 0 0 0-8.535-8.535h-3.062v4.141c0 2.555-2.122 4.666-4.672 4.666s-4.666-2.116-4.666-4.666V4.082h-22.11v4.141c0 2.555-2.122 4.666-4.672 4.666s-4.666-2.116-4.666-4.666V4.082zm0 12.8h46.91a4.26 4.26 0 0 1 4.27 4.266v34.12a4.26 4.26 0 0 1-4.27 4.266H8.533a4.256 4.256 0 0 1-4.266-4.266v-34.12a4.256 4.256 0 0 1 4.266-4.266" fill="url(#a)"/>
 <path transform="translate(9e-6 -.000194) scale(.9999) translate(0 -.001) scale(.3439)" d="M16.14.164a2.67 2.67 0 0 0-2.535 2.666v5.393c0 1.48 1.188 2.666 2.666 2.666s2.672-1.188 2.672-2.666V2.83A2.663 2.663 0 0 0 16.271.164c-.046 0-.084-.002-.129 0z" fill="url(#b)"/>
 <path transform="translate(9e-6 -.000194) scale(.9999) translate(0 -.001) scale(.3439)" d="M47.58.164a2.67 2.67 0 0 0-2.535 2.666v5.393c0 1.48 1.188 2.666 2.666 2.666s2.672-1.188 2.672-2.666V2.83A2.663 2.663 0 0 0 47.711.164c-.046 0-.084-.002-.129 0z" fill="url(#b)"/>
 <path transform="translate(9e-6 -.000194) scale(.9999) translate(2.29 6.3) scale(.2722)" d="M55.91 3.385q-2.114 0-3.594 1.49-1.48 1.493-1.48 3.623v34.37q.001 2.1 1.465 3.568 1.464 1.47 3.566 1.471 2.134 0 3.627-1.471 1.494-1.47 1.494-3.568V8.498q0-2.13-1.482-3.623-1.481-1.49-3.596-1.49" fill="url(#d)"/>
 <path transform="translate(9e-6 -.000194) scale(.9999) translate(2.29 6.3) scale(.2722)" d="m39.9 21.43q-2.113 0-3.594 1.49-1.48 1.493-1.48 3.623v16.32q0 2.1 1.463 3.568 1.464 1.47 3.566 1.471 2.135 0 3.629-1.471 1.494-1.47 1.494-3.568v-16.32q0-2.13-1.482-3.623-1.482-1.49-3.596-1.49" fill="url(#e)"/>
 <path transform="translate(9e-6 -.000194) scale(.9999) translate(2.29 6.3) scale(.2722)" d="M23.93 12.41q-2.104 0-3.576 1.492-1.473 1.492-1.473 3.621v25.34q.001 2.1 1.465 3.568 1.463 1.47 3.564 1.471 2.104 0 3.576-1.471 1.473-1.47 1.473-3.568v-25.34q0-2.13-1.463-3.621T23.93 12.41" fill="url(#g)"/>
 <path transform="translate(9e-6 -.000194) scale(.9999) translate(2.29 6.3) scale(.2722)" d="M8.029 27.45q-2.091 0-3.557 1.49-1.464 1.493-1.465 3.623v10.3q0 2.1 1.445 3.568 1.444 1.47 3.559 1.471c2.115.001 2.607-.491 3.594-1.471q1.48-1.47 1.48-3.568v-10.3q0-2.13-1.482-3.623-1.482-1.49-3.574-1.49" fill="url(#h)"/>
</svg>
