<svg xmlns="http://www.w3.org/2000/svg" viewBox="0 0 22 22"><defs><linearGradient id="a" y2="1"><stop offset="0" stop-color="#00c3ff"/><stop offset="1" stop-color="#ffff1c"/></linearGradient></defs><path fill="url(#a)" d="M240-55c-40.78 0-75.14-14-103.1-42-27.95-28-41.92-62-41.92-102v-558c0-41.39 14.39-76.57 43.17-105.5 28.77-28.97 63.72-43.46 104.8-43.46h321c26.81 0 49.34 9.13 67.61 27.39 18.26 18.27 27.39 40.8 27.39 67.61v455q0 39.795-27.39 66.9c-18.27 18.07-40.8 27.1-67.61 27.1h-324c-16.43 0-30.21 5.917-41.32 17.75q-16.68 17.745-16.68 42.75c0 25.005 5.567 30.75 16.7 42.25q16.695 17.25 41.37 17.25h538.9v-640c0-12.03 4.253-22.38 12.76-31.03q12.77-12.97 30.5-12.97c11.83 0 22.07 4.323 30.74 12.97 8.667 8.653 13 19 13 31.03v633q0 39.795-27.39 66.9c-18.27 18.07-40.8 27.1-67.61 27.1zm0-290h332v-474H243.5c-17.33 0-31.92 6.083-43.75 18.25S182-774 182-757v428c8.207-5.427 17.05-9.45 26.54-12.07S228.51-345 240-345m166.7-197.4c3.351-3.43 7.485-5.22 12.42-6.02 4.936-.61 9.491 1.4 13.67 6.02l75.24 98.32c3.35 4.01 3.872 8.01 1.544 12.04-2.306 4.01-5.839 6-10.57 6h-245.8c-5.016 0-8.607-1.99-10.78-6-2.187-4.03-1.927-8.03.743-12.04l57.18-75.26c3.353-4.01 7.507-6.02 12.46-6.02 4.957 0 9.512 2.01 13.68 6.22l29.04 36.92z" transform="translate(-1.422 23.418)scale(.02585)"/></svg>