<svg xmlns="http://www.w3.org/2000/svg" viewBox="0 0 22 22"><g stroke-width=".023"><path fill="#06f" d="M10.989.285a2.4 2.4 0 0 0-1.164.284L.545 5.842q-.258.156-.4.415c-.142.259-.143.352-.143.542v.75q0 .43.303.745t.758.315h19.72q.517 0 .866-.358t.349-.89v-.47q0-.35-.18-.634a1.5 1.5 0 0 0-.467-.465L12.15.57a2.4 2.4 0 0 0-1.163-.284zm0 2.456 5.867 3.411H5.124l5.867-3.41zM4.557 9.566q-.46 0-.775.313t-.314.746v6.618q-.001.46.308.773.311.313.772.312.46 0 .762-.3t.302-.759v-6.643q0-.434-.298-.747a1 1 0 0 0-.757-.312zm6.54 0q-.435 0-.75.313t-.315.746v6.644q0 .434.31.746.311.314.747.313.435.001.748-.313.315-.312.315-.746v-6.644q0-.433-.31-.746a1 1 0 0 0-.744-.313m6.359 0q-.46 0-.775.313t-.315.746v1.391q0 .46.31.773.311.314.771.314.461 0 .764-.301.302-.3.302-.76v-1.416q0-.434-.298-.747a1 1 0 0 0-.76-.312zm-16.243 9.72q-.51 0-.861.349-.353.349-.354.861 0 .512.354.866.35.354.861.354h11.221q.51 0 .875-.35.365-.349.366-.861 0-.512-.366-.866a1.21 1.21 0 0 0-.875-.354z"/><path fill="red" d="M15.555 16.832a1.05 1.05 0 0 1-.32-.78 1.06 1.06 0 0 1 .324-.788q.327-.325.793-.33.465-.003.785.317l1.103 1.103 1.08-1.08q.33-.33.79-.352.452-.016.793.325.33.33.335.804 0 .479-.331.81l-1.08 1.08 1.08 1.08c.213.213.323.47.316.785q-.003.465-.334.797a1.08 1.08 0 0 1-.783.32 1.05 1.05 0 0 1-.78-.32l-1.081-1.08-1.08 1.08q-.33.33-.8.34a1.09 1.09 0 0 1-.806-.336 1.05 1.05 0 0 1-.329-.798q.018-.462.348-.793l1.08-1.08z"/></g></svg>