<svg xmlns="http://www.w3.org/2000/svg" viewBox="0 0 22 22"><defs><linearGradient id="b" x2="0" y2="1"><stop offset="0" stop-color="#00edff"/><stop offset="1" stop-color="#0081cd"/></linearGradient><linearGradient id="a" x2="0" y1="1"><stop offset="0" stop-color="#7f00ff"/><stop offset="1" stop-color="#e100ff"/></linearGradient></defs><path fill="url(#a)" d="M20.64.002v.002a3.837 3.837 0 0 0-3.834 3.84.99.99 0 0 1-.822.967c-3.193.582-6.07 1.89-8.35 4.059-3.254 3.094-4.81 7.46-4.81 12.49v25.49c0 5.074 1.54 9.497 4.779 12.64 3.222 3.123 7.637 4.518 12.49 4.518h23.82c4.842 0 9.257-1.363 12.48-4.44 3.248-3.103 4.79-7.477 4.79-12.5v-25.7c.015-5.022-1.52-9.392-4.77-12.5-2.282-2.175-5.158-3.49-8.36-4.065a.99.99 0 0 1-.825-.961 3.836 3.836 0 1 0-7.673 0 .61.61 0 0 1-.607.611h-13.86a.61.61 0 0 1-.608-.611A3.84 3.84 0 0 0 20.644.004zm4.791 12.13h13.13c.542 0 .983.435.983.977a3.835 3.835 0 0 0 7.67 0c0-.327.306-.568.62-.477 1.4.41 2.475 1.044 3.268 1.801 1.153 1.1 2.05 2.782 2.31 5.301.065.614-.433 1.125-1.05 1.125h-40.75c-.62 0-1.123-.515-1.057-1.13.273-2.51 1.18-4.192 2.34-5.29.797-.759 1.87-1.393 3.268-1.802a.484.484 0 0 1 .611.477 3.836 3.836 0 0 0 3.84 3.834 3.835 3.835 0 0 0 3.838-3.834c0-.542.436-.983.977-.983zm-13.84 16.4-.006.002h40.81c.606 0 1.098.49 1.098 1.096v17.44c0 3.446-1.024 5.617-2.418 6.948-1.42 1.356-3.722 2.313-7.175 2.313H20.09c-3.42 0-5.716-.972-7.143-2.358-1.41-1.366-2.449-3.599-2.449-7.12v-17.22a1.1 1.1 0 0 1 1.094-1.1z" transform="scale(.3438)"/><path fill="url(#a)" d="M44.51 42.79c-2.12 0-3.838 1.72-3.838 3.84s1.718 3.834 3.838 3.834h.021a3.838 3.838 0 0 0 0-7.674z" transform="scale(.3438)"/><path fill="url(#a)" d="M32.01 42.79a3.837 3.837 0 1 0 0 7.675h.027c2.121 0 3.832-1.715 3.832-3.834s-1.714-3.84-3.832-3.84z" transform="scale(.3438)"/><path fill="url(#a)" d="M19.49 42.79c-2.12 0-3.838 1.72-3.838 3.84s1.718 3.834 3.838 3.834h.027c2.12 0 3.83-1.715 3.83-3.834s-1.71-3.84-3.83-3.84z" transform="scale(.3438)"/><path fill="url(#b)" d="M44.49 31.84a3.84 3.84 0 1 0 0 7.678h.027c2.12 0 3.834-1.718 3.834-3.838s-1.715-3.84-3.834-3.84z" transform="scale(.3438)"/><path fill="url(#b)" d="M31.99 31.84c-2.12 0-3.832 1.72-3.832 3.84s1.714 3.838 3.832 3.838h.027a3.84 3.84 0 1 0 0-7.678z" transform="scale(.3438)"/><path fill="url(#b)" d="M19.47 31.84a3.84 3.84 0 0 0 0 7.678h.021a3.84 3.84 0 1 0 0-7.678z" transform="scale(.3438)"/></svg>