<svg xmlns="http://www.w3.org/2000/svg" viewBox="0 0 22 22"><path fill="#ff0" d="M0 4.124v13.754c0 4.124 4.03 4.124 4.03 4.124h13.843s4.124 0 4.124-4.124V4.124C21.997 0 17.873 0 17.873 0H4.12S-.005 0-.005 4.124zm1.376 4.124c0-2.75 2.75-2.75 2.75-2.75H17.88s2.75 0 2.75 2.75v9.624c0 2.75-2.75 2.75-2.75 2.75H4.126s-2.75 0-2.75-2.75zm7.554-1.38-2.318 4.638H2.75l3.089 3.088-.774 4.638 3.862-2.318 3.864 2.317-.773-4.637 3.093-3.088h-3.864zm3.49.033v1.375h6.834V6.9zM16.5 9.624v1.375h2.75V9.624zm.005 2.776v1.375h2.75V12.4zm-2.746 2.696v1.376h5.497v-1.376zm-.022 2.75v1.376h5.519v-1.376z"/></svg>