<svg xmlns="http://www.w3.org/2000/svg" viewBox="0 0 22 22"><g stroke-width=".023"><path fill="#d500ff" d="M15.355 21.71a.88.88 0 0 1-.646-.263.88.88 0 0 1-.264-.647v-1.51a.8.8 0 0 1 .068-.321 1 1 0 0 1 .203-.298l4.095-4.08q.219-.215.483-.325.264-.105.534-.105.288 0 .55.117.26.115.493.329l.716.716q.213.21.31.472.096.261.096.534a1.48 1.48 0 0 1-.427 1.045l-4.063 4.084a.9.9 0 0 1-.296.194 1 1 0 0 1-.343.058zm.542-1.451h.735l2.285-2.3-.062-.065.062.06-.349-.367-.368-.348.655.655-.287-.307-.368-.348-2.303 2.275z"/><path fill="#06f" d="M10.989.285A2.4 2.4 0 0 0 9.826.57L.544 5.842q-.257.156-.4.415c-.142.259-.142.353-.142.542v.751q0 .429.303.744t.758.315h19.72q.517 0 .866-.358t.35-.89v-.47q0-.35-.181-.634a1.5 1.5 0 0 0-.467-.465L12.15.57a2.4 2.4 0 0 0-1.163-.285zm0 2.457 5.867 3.41H5.124l5.867-3.41zM4.557 9.567q-.46 0-.775.312-.314.314-.314.746v6.619q-.001.458.308.772.311.314.772.313.46 0 .762-.3t.302-.76v-6.643q0-.433-.298-.747a1 1 0 0 0-.757-.312zm6.54 0q-.435 0-.75.312-.315.314-.315.746v6.644q0 .433.31.747.311.313.747.312.434 0 .749-.312.314-.314.314-.747v-6.644q0-.432-.31-.746a1 1 0 0 0-.744-.312m6.359 0q-.46 0-.775.312-.315.314-.314.746v1.876q0 .459.31.772.31.314.77.313.461 0 .764-.3.302-.3.302-.76v-1.9q0-.433-.298-.747a1 1 0 0 0-.76-.312zM1.213 19.286q-.51 0-.861.349-.353.35-.354.861 0 .512.354.866.35.354.861.354h10.623q.51 0 .875-.35.366-.349.367-.86-.001-.514-.367-.867a1.21 1.21 0 0 0-.875-.353z"/></g></svg>