<svg xmlns="http://www.w3.org/2000/svg" viewBox="0 0 22 22"><defs><linearGradient id="a" x1="6.904" x2="56.1" y1="53.54" y2="4.339" gradientTransform="matrix(.2694 1.008 1.44 -.385 -19.91 10.24)" gradientUnits="userSpaceOnUse"><stop offset="0" stop-color="#5433ff"/><stop offset=".5" stop-color="#e948ff"/><stop offset="1" stop-color="#ff005b"/></linearGradient></defs><path fill="url(#a)" d="M.103 60.09a5.1 5.1 0 0 1 .014-2.108 26 26 0 0 1 .532-2.168l2.055-7.539.007-.026 1.031-3.792c.588-2.149.967-3.554 1.564-4.883a18.6 18.6 0 0 1 1.938-3.342c.863-1.171 1.89-2.199 3.47-3.773l29.37-29.33a10.6 10.6 0 0 1 12.07-2.051 23.08 23.08 0 0 1 10.81 10.82 12 12 0 0 1 .536 1.346l-.004-.004A10.6 10.6 0 0 1 60.9 23.96L31.53 53.29c-1.578 1.576-2.618 2.605-3.79 3.462q-1.566 1.138-3.332 1.93c-1.332.596-2.737.982-4.888 1.564L7.74 63.444l-.265.07a21 21 0 0 1-1.48.339 5.2 5.2 0 0 1-2.796-.174 5.02 5.02 0 0 1-2.898-2.906 5 5 0 0 1-.187-.684zm6.517-2.724 4.584-1.245-.001-.004a6.86 6.86 0 0 0-3.334-3.338zm2.874-10.58a13 13 0 0 1 4.684 3.015 13 13 0 0 1 3.004 4.686l.48-.128c2.465-.671 3.38-.928 4.219-1.301a12.6 12.6 0 0 0 2.226-1.293c.74-.54 1.428-1.2 3.233-3.005l21.34-21.33a20.29 20.29 0 0 0-12.1-12.1L15.24 36.64c-1.808 1.802-2.473 2.484-3.011 3.222q-.766 1.049-1.303 2.234c-.371.835-.628 1.755-1.298 4.215zm9.046-3.657a3.09 3.09 0 0 1 .72-2.781l17.85-17.84a3.08 3.08 0 0 1 5.105 1.25l.001.002a3.09 3.09 0 0 1-.752 3.107l-17.85 17.82a3.08 3.08 0 0 1-5.07-1.572zm22.73-32.49a26.45 26.45 0 0 1 12.1 12.13l3.164-3.165a4.44 4.44 0 0 0 1.086-4.476h-.002a5 5 0 0 0-.222-.56A16.92 16.92 0 0 0 49.47 6.63a4.44 4.44 0 0 0-5.043.86z" transform="scale(.3438)"/></svg>