<svg xmlns="http://www.w3.org/2000/svg" viewBox="0 0 22 22"><g fill="#0cf" stroke-width="1.364"><path d="M3.424 3.424v15.154h1.489l.024.006H7.97c.006 0 .017-.004.023-.006h1.491V3.424zM12.832 3.424v15.154h1.486l.023.006h3.042l.018-.006h1.491V3.424z"/><path d="M3.549 0A3.55 3.55 0 0 0 0 3.55v14.898a3.55 3.55 0 0 0 3.549 3.549h14.898a3.55 3.55 0 0 0 3.549-3.549V3.55A3.55 3.55 0 0 0 18.447 0zm.121 1.356h14.665A2.315 2.315 0 0 1 20.65 3.67v14.665a2.315 2.315 0 0 1-2.314 2.314H3.67a2.315 2.315 0 0 1-2.314-2.314V3.67A2.315 2.315 0 0 1 3.67 1.356"/></g></svg>