<svg xmlns="http://www.w3.org/2000/svg" viewBox="0 0 22 22"><defs><linearGradient id="a" x1="14" x2="2" y1="14" y2="2" gradientTransform="translate(-3.667 -3.667)scale(1.833)" gradientUnits="userSpaceOnUse"><stop offset="0" stop-color="#008cfe"/><stop offset=".343" stop-color="#03effe"/><stop offset="1" stop-color="#6eff6e"/></linearGradient></defs><path fill="#d66bff" d="M12.859614 13.659v-.397h-.804q-.439 0-.752-.307a1.02 1.02 0 0 1-.313-.757V8.37h-.793v.453a.98.98 0 0 1-.304.715.98.98 0 0 1-.715.304h-1.574q-.45 0-.757-.31a1.05 1.05 0 0 1-.307-.766V6.955q0-.457.307-.766.307-.31.757-.31h1.574a.98.98 0 0 1 .715.304.98.98 0 0 1 .304.715v.396h2.662v-.396q0-.41.305-.715a.98.98 0 0 1 .715-.304h1.562q.456 0 .766.31t.31.766v1.811q0 .457-.31.766a1.04 1.04 0 0 1-.766.31h-1.561a.98.98 0 0 1-.715-.304.98.98 0 0 1-.305-.715V8.37h-.804v3.828h.804v-.453q0-.41.305-.715a.98.98 0 0 1 .715-.305h1.562q.456 0 .766.313.31.314.31.752v1.824q0 .45-.31.757a1.05 1.05 0 0 1-.766.307h-1.562a.99.99 0 0 1-.715-.299.97.97 0 0 1-.305-.72zm1.076-4.893h1.506V6.954h-1.506zm0 4.848h1.506V11.79h-1.506zm-6.33-4.848h1.528V6.954h-1.529z"/><path fill="url(#a)" d="M2.119 0c-.28 0-.553.037-.814.125a1.9 1.9 0 0 0-.733.45 1.9 1.9 0 0 0-.447.73A2.5 2.5 0 0 0 0 2.119c.002.535.13 1.103.35 1.727.216.61.526 1.272.92 1.98 1.336 2.4 3.655 5.367 6.595 8.31 2.941 2.94 5.91 5.257 8.31 6.595q1.064.593 1.98.92c.622.22 1.191.348 1.726.35.28 0 .553-.037.815-.125.268-.09.523-.24.73-.448.209-.207.36-.464.45-.732.088-.262.124-.533.124-.813v-.002c-.002-.566-.143-1.17-.388-1.836a11 11 0 0 0-.412-.96.672.672 0 0 0-1.18-.06q-.104.175-.215.345a.67.67 0 0 0-.05.648q.149.326.257.62c.194.52.285.953.283 1.243a.9.9 0 0 1-.035.268.2.2 0 0 1-.039.072.2.2 0 0 1-.072.04.9.9 0 0 1-.268.034c-.273.002-.675-.08-1.156-.252-.5-.177-1.08-.447-1.72-.802-2.217-1.232-5.096-3.47-7.935-6.31-2.84-2.838-5.078-5.717-6.31-7.934a11.7 11.7 0 0 1-.802-1.721h-.002c-.172-.481-.252-.883-.25-1.156 0-.119.015-.209.035-.268a.2.2 0 0 1 .037-.072.2.2 0 0 1 .074-.04.9.9 0 0 1 .268-.034h.002c.29-.002.72.09 1.24.283h.002q.257.094.54.22v.002a.85.85 0 0 0 .81-.064l.003-.004h.002a.849.849 0 0 0-.121-1.49q-.33-.148-.643-.264h-.002C3.29.145 2.684.003 2.12 0zm8.512 1.373A9.95 9.95 0 0 0 3.785 4.09h-.002a.817.817 0 0 0-.021 1.162l.005.008a.814.814 0 0 0 1.123.039c.339-.29.723-.572 1.125-.828a8.3 8.3 0 0 1 4.615-1.396 8.314 8.314 0 0 1 5.892 14.179.85.85 0 0 0 .312 1.154l.085.049a.72.72 0 0 0 .871-.117h.002a9.97 9.97 0 0 0 2.834-6.973c0-5.521-4.475-9.994-9.996-9.994zM1.682 8.42a.845.845 0 0 0-.781.645l-.002.001c-.17.74-.264 1.51-.264 2.301 0 5.521 4.476 9.996 9.996 9.996.801 0 1.58-.096 2.326-.275h.002a.802.802 0 0 0 .248-1.45 1 1 0 0 0-.09-.062.49.49 0 0 0-.402-.054c-.257.077-.865.152-1.248.158-.05 0-.105 0-.15-.004v-1.23a.68.68 0 0 0-.247-.523.688.688 0 0 0-1.125.529v1.178l-.18-.018a3 3 0 0 1-.538-.35c-.585-.475-1.132-1.256-1.57-2.255h.605a.67.67 0 0 0 .459-1.159l-.035-.03a.67.67 0 0 0-.457-.182H7.167c-.134-.466-.245-.961-.334-1.477a.688.688 0 0 0-1.352.246q.11.635.264 1.23H3.524a8.2 8.2 0 0 1-1.152-3.582h1.191a.68.68 0 0 0 .525-1.114h-.002l-.007-.01a.68.68 0 0 0-.524-.247H2.371q.051-.615.19-1.2a.85.85 0 0 0-.153-.71.85.85 0 0 0-.726-.352m2.873 8.586h1.627q.227.606.5 1.141v.002q.196.379.416.719a8.3 8.3 0 0 1-2.543-1.862" style="-inkscape-stroke:none;font-variation-settings:normal"/></svg>