<svg xmlns="http://www.w3.org/2000/svg" viewBox="0 0 22 22"><path fill="#00ff80" d="M0 4.126v13.755h22.007V4.126zm4.126 1.376h13.755v1.375h1.375v1.376h1.375v5.501h-1.375v1.376H17.88v1.375H4.126V15.13H2.751v-1.376H1.376V8.253H2.75V6.877h1.375zm1.376 1.375v1.376H4.126v1.375H2.751v2.75h1.375v1.376h1.376v1.376h11.003v-1.376h1.376V12.38h1.375V9.628H17.88V8.253h-1.376V6.877zm5.501 1.376a2.75 2.75 0 1 1 .001 5.5 2.75 2.75 0 0 1 0-5.5m-.034 1.375a1.375 1.375 0 1 0 .07 2.75 1.375 1.375 0 0 0-.07-2.75"/></svg>