<svg xmlns="http://www.w3.org/2000/svg" viewBox="0 0 22 22"><defs><linearGradient id="a" y1=".5" y2=".5"><stop offset="0" stop-color="#f069ff"/><stop offset="1" stop-color="#9600ff"/></linearGradient></defs><g fill="url(#a)" stroke-width="1.467" transform="translate(0 -.003)"><path d="M2.933.733A2.926 2.926 0 0 0 0 3.666v14.67a2.926 2.926 0 0 0 2.933 2.933h16.13a2.926 2.926 0 0 0 2.933-2.933V3.666A2.926 2.926 0 0 0 19.063.733zm0 4.4h16.13c.813 0 1.467.655 1.467 1.467v11.73c0 .813-.654 1.467-1.467 1.467H2.933a1.464 1.464 0 0 1-1.467-1.467V6.6c0-.812.654-1.467 1.467-1.467"/><path d="M7.04 8.067h7.92c.65 0 1.173.523 1.173 1.173v3.52a1.17 1.17 0 0 1-1.173 1.173H7.04a1.17 1.17 0 0 1-1.173-1.173V9.24c0-.65.523-1.173 1.173-1.173"/><path d="M16.87 13.93h1.467c.406 0 .733.327.733.733v1.467a.73.73 0 0 1-.733.734H16.87a.73.73 0 0 1-.733-.734v-1.467c0-.406.327-.733.733-.733"/><path d="M3.667 13.93h1.467c.406 0 .733.327.733.733v1.467a.73.73 0 0 1-.733.734H3.667a.73.73 0 0 1-.733-.734v-1.467c0-.406.327-.733.733-.733"/></g></svg>