<svg xmlns="http://www.w3.org/2000/svg" viewBox="0 0 22 22"><g stroke-width="1.238"><path fill="#06f" d="M2.75.688A2.744 2.744 0 0 0 0 3.438v13.754a2.744 2.744 0 0 0 2.75 2.75h5.645a4 4 0 0 1-.145-1.037v-.338h-5.5a1.37 1.37 0 0 1-1.375-1.376V6.192c0-.761.613-1.375 1.375-1.375h15.121c.762 0 1.375.613 1.375 1.375v2.75h1.376v-5.5a2.744 2.744 0 0 0-2.75-2.75H2.752z"/><path fill="#0cf" d="M12.377 10.31a2.744 2.744 0 0 0-2.75 2.75v5.5a2.744 2.744 0 0 0 2.75 2.749h6.874a2.744 2.744 0 0 0 2.75-2.75v-5.5a2.744 2.744 0 0 0-2.75-2.749zm0 2.75h6.874c.762 0 1.376.613 1.376 1.375v4.124c0 .762-.613 1.376-1.376 1.376h-6.874A1.37 1.37 0 0 1 11 18.559v-4.124c0-.761.613-1.375 1.376-1.375"/><path fill="#0f0" d="M15.12 14.432h1.376v1.375h1.376v1.376h-1.376v1.375h-1.375v-1.375h-1.376v-1.376h1.376z"/><path fill="#06f" d="M4.124 7.562v6.874H5.5v-2.75h3a4.1 4.1 0 0 1 .816-1.375H5.499v-2.75zm10.999 0v1.375h1.375V7.562z"/></g></svg>