<svg version="1.1" viewBox="0 0 22 22" xmlns="http://www.w3.org/2000/svg">
 <defs>
  <linearGradient id="a" y1="1">
   <stop stop-color="#00ffa5" offset="0"/>
   <stop stop-color="#a100ff" offset="1"/>
  </linearGradient>
 </defs>
 <g transform="translate(0) scale(1) translate(0) scale(1) translate(-8.6e-5 -.00066) scale(1) translate(-1.223 -1.22) scale(1.111)" fill="url(#a)" stroke-width="1.238">
  <path d="M8.245 6.624a.342.337 0 0 0-.278.168l-6.82 11.66a.342.337 0 0 0 .296.506h13.64a.342.337 0 0 0 .297-.506L8.56 6.792a.342.337 0 0 0-.314-.168zm.017 1.01 6.23 10.65H2.032z"/>
  <path d="M18.83 11.84a.343.336 0 0 0-.28.168l-1.713 2.904a.343.336 0 0 0 .298.504h3.424a.343.336 0 0 0 .298-.504l-1.713-2.904a.343.336 0 0 0-.315-.168zm.017 1.007 1.12 1.897h-2.238z"/>
  <path d="M11.64 8.088a.343.336 0 0 0-.296.504l3.513 5.963a.343.336 0 0 0 .594 0l3.513-5.963a.343.336 0 0 0-.009-.35.343.336 0 0 0-.287-.153zm.594.672h5.84l-2.92 4.956z"/>
  <path d="M13.78 3.042a.343.336 0 0 0-.279.168l-1.713 2.904a.343.336 0 0 0 .298.503h3.423a.343.336 0 0 0 .299-.503L14.095 3.21a.343.336 0 0 0-.316-.168zm.018 1.007 1.119 1.896h-2.238z"/>
 </g>
</svg>
