<svg version="1.1" viewBox="0 0 22 22" xmlns="http://www.w3.org/2000/svg">
 <defs>
  <linearGradient id="a" y1="1">
   <stop stop-color="#0500ff" offset="0"/>
   <stop stop-color="#4ad7ff" offset="1"/>
  </linearGradient>
 </defs>
 <path transform="translate(0 6e-6) scale(1) translate(0 .000344) scale(.3437) translate(-.008)" d="M32 0C20.98.014 10.72 5.691 4.88 15.03a2.716 2.716 0 0 0 .865 3.744 2.723 2.723 0 0 0 3.75-.857q.253-.405.522-.797a30.4 30.4 0 0 0 5.014 3.848 55.4 55.4 0 0 0-1.012 8.307H5.453C2.446 29.275.008 30.495.008 32c0 8.485 3.376 16.63 9.37 22.63 6.006 5.988 14.15 9.37 22.63 9.37s16.63-3.376 22.63-9.37C60.628 48.625 64.01 40.48 64.01 32s-3.377-16.63-9.371-22.63A32.08 32.08 0 0 0 32.009 0zm-2.723 6.143v14.14a26.4 26.4 0 0 1-7.953-2.115 34 34 0 0 1 2.275-5.629 21.3 21.3 0 0 1 2.002-3.16 14.2 14.2 0 0 1 2.164-2.26 8.4 8.4 0 0 1 1.512-.978zm5.445 0c.54.274 1.044.597 1.512.979.803.667 1.524 1.43 2.164 2.26a21.4 21.4 0 0 1 2.002 3.16 34 34 0 0 1 2.279 5.642 26.6 26.6 0 0 1-7.959 2.102zm9.67 2.398a26 26 0 0 1 6.107 4.406l-.879.777a23 23 0 0 1-2.123 1.684 39 39 0 0 0-2.248-5.348 21 21 0 0 0-.857-1.52zm-24.8.02c-.304.487-.583.99-.846 1.502a39.4 39.4 0 0 0-2.256 5.369 28 28 0 0 1-2.943-2.477 25.6 25.6 0 0 1 6.045-4.394zm34.4 8.566a26.6 26.6 0 0 1 4.418 12.15h-8.428a55 55 0 0 0-1.016-8.301 30 30 0 0 0 4.272-3.18zm-50.17 3.936c-1.161.03-2.22.81-2.557 1.988l-.152.544A2.73 2.73 0 0 0 3 26.958a2.723 2.723 0 0 0 3.357-1.879l.148-.558a2.71 2.71 0 0 0-1.87-3.356 2.7 2.7 0 0 0-.813-.104zm16.28 2.484a31.4 31.4 0 0 0 9.17 2.207v3.52h-9.805c.098-1.92.308-3.831.635-5.725zm23.79.01c.324 1.891.533 3.802.63 5.718h-9.804v-3.522a31.6 31.6 0 0 0 9.174-2.197zm-24.44 11.16.004.001h9.805v4.883a31.4 31.4 0 0 0-8.96 2.115 50 50 0 0 1-.849-7zm-13.88.001H14a55 55 0 0 0 1.209 9.232c.02.093.037.185.06.278a30 30 0 0 0-4.692 3.482 26.66 26.66 0 0 1-5.004-12.99zm29.14 0h9.807a50 50 0 0 1-.85 6.998 31.4 31.4 0 0 0-8.959-2.115zm15.26 0H58.4a26.7 26.7 0 0 1-5 12.99 30 30 0 0 0-4.697-3.478 54.977 54.977 0 0 0 1.27-9.507zm-15.26 10.35c2.614.271 5.16.931 7.559 1.945a32.6 32.6 0 0 1-1.881 4.438 21.3 21.3 0 0 1-2.002 3.158c-.64.831-1.361 1.592-2.164 2.26a8.4 8.4 0 0 1-1.512.979zm-5.447.002v12.78a8.4 8.4 0 0 1-1.51-.978 14.2 14.2 0 0 1-2.166-2.262 21.3 21.3 0 0 1-2.002-3.156 32.6 32.6 0 0 1-1.881-4.443 26.4 26.4 0 0 1 7.559-1.94zm-12.39 4.59a39 39 0 0 0 1.865 4.27q.405.792.873 1.545a26.3 26.3 0 0 1-5.375-3.728 26 26 0 0 1 2.637-2.086zm30.23.002c.92.635 1.804 1.33 2.641 2.082a26.2 26.2 0 0 1-5.379 3.728c.313-.5.602-1.018.873-1.545a39 39 0 0 0 1.865-4.266z" fill="url(#a)"/>
</svg>
