<svg xmlns="http://www.w3.org/2000/svg" xmlns:xlink="http://www.w3.org/1999/xlink" fill="none" viewBox="0 0 22 22"><defs><linearGradient id="a" x1="38.52" x2="241.3" y1="208.3" y2="115.7" gradientUnits="userSpaceOnUse"><stop offset="0" stop-color="#00f1fa"/><stop offset="1" stop-color="#006cff"/></linearGradient><linearGradient xlink:href="#a" id="c" x1="46.52" x2="247.3" y1="213.3" y2="131.9" gradientTransform="translate(-4.164 -2.661)" gradientUnits="userSpaceOnUse"/><linearGradient xlink:href="#a" id="b" x1="38.52" x2="241.3" y1="208.3" y2="115.7" gradientTransform="translate(3.836 2.339)" gradientUnits="userSpaceOnUse"/></defs><g fill-rule="evenodd" stroke-width="4" clip-rule="evenodd"><path fill="url(#b)" stroke="url(#b)" d="M133.7 140.1c0 2.997-2.714 5.426-6.06 5.426h-60.6c-3.346 0-6.06-2.429-6.06-5.426s2.714-5.427 6.06-5.427h60.6c3.346 0 6.06 2.429 6.06 5.427zm0 21.71c0 2.997-2.714 5.426-6.06 5.426h-60.6c-3.346 0-6.06-2.429-6.06-5.426 0-2.996 2.714-5.426 6.06-5.426h60.6c3.346 0 6.06 2.43 6.06 5.426zm78.79 27.13h-60.6c-3.347 0-6.061-2.429-6.061-5.427v-65.12c0-2.997 2.714-5.426 6.061-5.426h60.6c3.346 0 6.06 2.429 6.06 5.426v65.12c0 2.998-2.714 5.427-6.06 5.427zm-6.061-65.12h-48.48v54.27h48.48zm-115.2 0h-24.24c-3.346 0-6.06-2.429-6.06-5.427s2.714-5.426 6.06-5.426h24.24c3.347 0 6.06 2.429 6.06 5.426s-2.714 5.427-6.06 5.427zm-18.18-48.84c0 2.996-2.714 5.426-6.06 5.426s-6.06-2.43-6.06-5.426c0-2.998 2.714-5.427 6.06-5.427 3.347 0 6.06 2.43 6.06 5.427zm-30.71-27.13h194.7c3.346 0 6.06 2.43 6.06 5.426v152c0 2.997-2.714 5.426-6.06 5.426h-194.7c-3.347 0-6.06-2.429-6.06-5.426v-152c0-2.996 2.713-5.426 6.06-5.426zm6.06 151.9h182.6v-97.68h-182.6zm0-108.5h182.6V58.69h-182.6zm85.25 92.25c0 2.998-2.714 5.427-6.06 5.427h-60.6c-3.346 0-6.06-2.429-6.06-5.427 0-2.996 2.714-5.426 6.06-5.426h60.6c3.346 0 6.06 2.43 6.06 5.426zM97.289 75c0 2.996-2.714 5.426-6.06 5.426-3.348 0-6.061-2.43-6.061-5.426 0-2.998 2.714-5.427 6.061-5.427s6.06 2.43 6.06 5.427zm24.24 0c0 2.996-2.712 5.426-6.06 5.426s-6.06-2.43-6.06-5.426c0-2.998 2.713-5.427 6.06-5.427 3.348 0 6.06 2.43 6.06 5.427z" transform="translate(-.631 .333)scale(.09232)"/><path fill="url(#c)" stroke="url(#c)" d="M18.84 20.34c-5.523 0-10 4.477-10 10v128.2a6 6 0 0 0 12 0V32.34h140.9a6 6 0 1 0 0-12z" transform="translate(-.631 .333)scale(.09232)"/></g></svg>