<svg xmlns="http://www.w3.org/2000/svg" viewBox="0 0 22 22"><path fill="#ff0" d="M7.332 3.011v3.914a.41.41 0 0 1-.407.407h-1.63a.41.41 0 0 1-.407-.407V6.11c0-.224.183-.407.408-.407h.407v-.81l-.411-.005a.41.41 0 0 1-.4-.352l-.03.027-.151.148q-.239.238-.455.493a7.462 7.462 0 0 0-1.808 4.662q-.006.158-.004.318a7.5 7.5 0 0 0 .663 3.074l.901 1.577q.346.468.746.871.068.065.137.127a.407.407 0 0 1 .463-.358l.349.051v-.861h-.407a.41.41 0 0 1-.408-.407v-.815c0-.225.183-.408.408-.408h1.63c.224 0 .406.183.406.408v3.914c.912.375 1.77.564 2.852.567q.747.004 1.46-.126c1.555-.286 2.92-1.048 4.013-2.14q.09-.09.175-.182.277-.303.528-.64l.901-1.578c.44-.98.66-1.992.663-3.074 0-2.166-.844-4.05-2.267-5.473a7.62 7.62 0 0 0-5.473-2.267 7.2 7.2 0 0 0-2.852.567M8.647 6.48q0-.649.43-1.114.43-.467 1.099-.468.65 0 1.12.468.471.466.471 1.114v2.125h2.124q.629 0 1.084.461.453.463.453 1.113 0 .63-.453 1.089a1.48 1.48 0 0 1-1.084.458h-2.124v2.123q0 .649-.453 1.114a1.5 1.5 0 0 1-1.122.469 1.45 1.45 0 0 1-1.108-.469 1.57 1.57 0 0 1-.437-1.114v-2.123h-2.17q-.629 0-1.084-.454-.453-.452-.453-1.095c0-.643.151-.798.453-1.107a1.46 1.46 0 0 1 1.084-.465h2.17zm11.721 3.707a10.16 10.16 0 0 1-1.94 5.937l3.093 3.093c.284.31.476.767.476 1.152s-.193.842-.477 1.153c-.31.284-.767.476-1.152.476s-.842-.192-1.153-.476l-3.092-3.094a10.16 10.16 0 0 1-5.939 1.941c-2.783-.018-5.38-1.163-7.201-2.983S0 12.967 0 10.184s1.163-5.38 2.983-7.201S7.4 0 10.184 0s5.38 1.163 7.201 2.983 2.965 4.42 2.983 7.203"/></svg>