<svg xmlns="http://www.w3.org/2000/svg" viewBox="0 0 22 22"><g stroke-width="1.165"><path fill="#00ff80" d="M11.966 11.388a1.6 1.6 0 0 1-.376.923c-.242.217-.61.381-.943.381-.325 0-.686-.164-.927-.379a1.6 1.6 0 0 1-.38-.925V3.783c.017-.322.152-.696.38-.923.227-.229.601-.363.925-.38h7.603c.334.016.7.163.94.375.217.24.383.6.383.926s-.152.698-.38.926c-.227.228-.608.364-.943.38h-4.447l5.764 5.765c.227.249.405.61.405.927 0 .314-.175.673-.4.92-.24.23-.594.41-.914.41-.309 0-.667-.163-.916-.376l-5.774-5.79z"/><path fill="#0cf" d="M7.205.647v13.832c.668.253 1.188.547 1.71 1.187.525.64.856 1.571.878 2.452-.028 1.027-.47 2.078-1.137 2.745S6.936 22 5.91 22s-2.077-.47-2.744-1.137-1.109-1.72-1.137-2.745c.02-.882.352-1.814.874-2.454.524-.642 1.042-.94 1.713-1.192V.652c0-.358.29-.648.647-.648H6.56c.357 0 .647.29.647.647zM4.996 17.2c-.27.269-.379.51-.379.915s.109.645.38.914c.268.27.51.38.914.38s.646-.11.915-.38c.27-.269.38-.51.38-.914s-.11-.646-.38-.915c-.27-.27-.511-.38-.915-.38s-.646.11-.915.38"/></g></svg>