<svg version="1.1" viewBox="0 0 22 22" xmlns="http://www.w3.org/2000/svg">
 <path transform="translate(7e-5 7e-5) scale(1) translate(.00048 .00048) scale(1) translate(-2.852 -2.852) scale(.8147)" d="M28.5 16.002c-.024 2.741-.871 5.18-2.382 7.288l3.797 3.796c.349.38.585.941.585 1.414s-.237 1.034-.586 1.415c-.38.349-.941.585-1.414.585s-1.034-.236-1.415-.585l-3.795-3.797c-2.108 1.511-4.549 2.358-7.29 2.382-3.416-.022-6.604-1.427-8.839-3.661C4.927 22.604 3.5 19.416 3.5 16s1.427-6.604 3.661-8.839C9.396 4.927 12.584 3.5 16 3.5s6.604 1.427 8.839 3.661c2.234 2.235 3.639 5.425 3.661 8.841M9.282 9.282C7.536 11.029 6.478 13.341 6.5 16a9.2 9.2 0 0 0 .813 3.773l1.107 1.936c1.797 2.435 4.541 3.814 7.58 3.791 3.039.022 5.783-1.356 7.58-3.791l1.107-1.936A9.1 9.1 0 0 0 25.5 16c.022-2.659-1.036-4.971-2.782-6.718C20.971 7.536 18.659 6.5 16 6.5s-4.971 1.036-6.718 2.782m2.168 8.609q-.772 0-1.33-.557-.556-.554-.556-1.344c0-.79.185-.979.556-1.359q.558-.57 1.33-.57h2.663v-2.608q0-.797.528-1.368.527-.573 1.349-.574.8 0 1.375.574.578.571.578 1.368v2.608h2.607a1.8 1.8 0 0 1 1.33.566q.556.567.556 1.366 0 .775-.556 1.336a1.82 1.82 0 0 1-1.33.562h-2.607v2.606q0 .797-.556 1.368-.556.576-1.377.575-.822 0-1.36-.575a1.93 1.93 0 0 1-.537-1.368v-2.606z" fill="#0f0"/>
</svg>
