<svg version="1.1" viewBox="0 0 22 22" xmlns="http://www.w3.org/2000/svg">
 <defs>
  <linearGradient id="d" x1="1" x2="0" y1="1">
   <stop stop-color="#7f00ff" offset="0"/>
   <stop stop-color="#e100ff" offset="1"/>
  </linearGradient>
  <linearGradient id="a" x2="0" y2="64" gradientUnits="userSpaceOnUse">
   <stop stop-color="#00ff96" offset="0"/>
   <stop stop-color="#8450ff" offset="1"/>
  </linearGradient>
  <linearGradient id="b" x1="42.31" x2=".3777" y1="35.94" y2="77.88" gradientTransform="scale(1.498 .6677)" gradientUnits="userSpaceOnUse">
   <stop stop-color="#ff0" offset="0"/>
   <stop stop-color="#33d17a" offset=".33"/>
   <stop stop-color="#8d5fd3" offset=".678"/>
   <stop stop-color="#3584e4" offset="1"/>
  </linearGradient>
  <linearGradient id="c" x1="35.47" x2="45.24" y1="22.58" y2="12" gradientTransform="matrix(1.239,0,0,1.26,-8.807,-2.967)" gradientUnits="userSpaceOnUse">
   <stop stop-color="#fd5900" offset=".188"/>
   <stop stop-color="#ffde00" offset=".682"/>
  </linearGradient>
 </defs>
 <path transform="translate(-0 3e-6) scale(1) translate(-.002555 -.001178) scale(.9998) matrix(1.343 0 0 1.343 -6.836 -6.832)" d="m11.94 5.098-2e-3 0.00195c-3.774 0-6.846 3.075-6.846 6.846 0 3.774 3.075 6.846 6.846 6.846 1.665 0 3.196-0.6006 4.385-1.594l0.2617 0.2617c-0.2016 0.3919-0.1239 0.872 0.1894 1.182l2.514 2.529c0.39 0.3905 1.03 0.3905 1.42 0l0.4766-0.4805c0.3901-0.3924 0.3901-1.023 0-1.416l-2.529-2.514c-0.312-0.312-0.7922-0.3829-1.18-0.1719l-0.2715-0.2715c0.9887-1.187 1.584-2.712 1.584-4.373 0-3.774-3.076-6.846-6.848-6.846zm-2e-3 1.44c2.994 0 5.408 2.415 5.408 5.408s-2.415 5.406-5.408 5.406-5.406-2.413-5.406-5.406c0-2.994 2.413-5.408 5.406-5.408z" fill="url(#d)"/>
 <g transform="translate(-0 3e-6) scale(1) translate(-.002555 -.001178) scale(.9998) matrix(.1661 0 0 .1661 3.937 3.923)">
  <path d="m20 0c-11.01 0-20 8.988-20 20v24c0 11.01 8.988 20 20 20h24c11.01 0 20-8.988 20-20v-24c0-11.01-8.988-20-20-20zm0 8h24c6.716 0 12 5.284 12 12v10.28q0.645 0.512 1.211 1.119l0.063 0.07 5.091 5.72a4 4 0 0 1-0.328 5.647 4 4 0 0 1-2.672 1.016 4 4 0 0 1-2.992-1.336l-0.375-0.422v1.906c0 6.716-5.284 12-12 12h-24c-5.652 0-10.29-3.74-11.61-8.926l-0.904 0.957a4 4 0 0 1-1.774 1.089 4 4 0 0 1-0.5 0.114l-0.012 2e-3a4 4 0 0 1-0.507 0.047 4 4 0 0 1-2.873-1.092 4 4 0 0 1-0.157-5.656l6.344-6.713v-15.82c0-6.716 5.284-12 12-12z" fill="url(#a)"/>
  <path d="m23.86 24v2e-3a11 11 0 0 0-8.039 3.555l-14.16 14.98a4 4 0 0 0 0.156 5.656 4 4 0 0 0 5.656-0.156l14.2-15.02 0.04-0.047a3 3 0 0 1 2.18-0.96c0.776 4e-3 1.544 0.314 2.18 0.991l16.56 17.73a4 4 0 0 0 5.655 0.195 4 4 0 0 0 0.188-5.648l-4.672-5.008 3.18-3.406 0.023-0.023a2.99 2.99 0 0 1 2.172-0.96c0.781 3e-3 1.546 0.313 2.172 0.983l5.031 5.656a4 4 0 0 0 5.648 0.32 4 4 0 0 0 0.328-5.647l-5.092-5.72-0.062-0.07c-2.073-2.22-4.985-3.53-8.041-3.53h-0.024a11 11 0 0 0-8.023 3.561l-2.789 2.977-6.416-6.877c-2.075-2.215-4.979-3.53-8.03-3.53h-0.024z" fill="url(#b)"/>
  <path d="m40.23 12.16a6.557 6.557 0 0 0-6.106 6.545 6.557 6.557 0 1 0 13.11 0 6.557 6.557 0 0 0-7.005-6.545z" fill="url(#c)"/>
 </g>
</svg>
