<svg version="1.1" viewBox="0 0 22 22" xmlns="http://www.w3.org/2000/svg">
 <path transform="translate(-0) scale(1) translate(-0) scale(1) translate(.00058 1e-4) scale(1)" d="M9.888 15.97q-1.214 0-2.293-.431t-1.916-1.187q-.458-.243-.553-.782t.23-.972q.296-.404.7-.458t.837.108q.54.54 1.35.863t1.618.324q2.023 0 3.412-1.403t1.39-3.426-1.39-3.426-3.412-1.403q-2.131 0-3.48 1.335t-1.376 3.44L6.057 7.5q.324-.297.701-.297t.675.324q.324.296.324.688t-.324.715L4.789 11.6q-.405.405-.917.391t-.89-.39L.31 8.93q-.324-.324-.31-.715t.31-.688q.297-.324.715-.324t.715.324l.755.782q.108-3.021 2.172-5.045T9.86 1.241q3.075 0 5.206 2.145t2.132 5.22q0 1.24-.351 2.266t-.998 1.942l5.773 5.72q.378.377.378.903t-.378.93q-.405.379-.944.392t-.918-.391l-5.719-5.72q-.782.594-1.848.958t-2.306.365" fill="#00ff80"/>
</svg>
