<svg version="1.1" viewBox="0 0 22 22" xmlns="http://www.w3.org/2000/svg">
 <path transform="translate(-0) scale(1) translate(-0) scale(1) translate(-0) scale(1)" d="M20.368 10.186a10.16 10.16 0 0 1-1.94 5.937l3.092 3.093c.285.31.477.767.477 1.152s-.192.842-.477 1.152c-.31.285-.767.477-1.152.477s-.842-.192-1.152-.477l-3.093-3.093a10.16 10.16 0 0 1-5.939 1.941c-2.783-.018-5.38-1.163-7.201-2.983S0 12.967 0 10.184s1.163-5.38 2.983-7.201S7.4 0 10.184 0s5.38 1.163 7.201 2.983 2.965 4.42 2.983 7.203M4.711 4.71c-1.423 1.423-2.267 3.307-2.267 5.473s.844 4.05 2.267 5.473 3.307 2.267 5.473 2.267 4.05-.844 5.473-2.267 2.267-3.307 2.267-5.473-.844-4.05-2.267-5.473-3.307-2.267-5.473-2.267-4.05.844-5.473 2.267m10.012 9.264c-.205.175-.511.312-.778.312-.108 0-.246-.029-.348-.062a1.6 1.6 0 0 1-.287-.144l-4.302-2.973a1.2 1.2 0 0 1-.375-.418 1.25 1.25 0 0 1-.118-.506c0-.161.052-.358.117-.505.084-.152.238-.322.389-.426l4.286-2.963c.083-.054.196-.112.288-.146.104-.034.245-.062.35-.062.267 0 .573.137.778.31.189.204.323.522.339.806v5.973c-.016.284-.15.601-.34.804m-7.826.62c-.203.18-.514.325-.791.325s-.589-.143-.793-.324a1.38 1.38 0 0 1-.327-.792V6.565c.015-.275.142-.587.32-.79.202-.18.516-.327.794-.327.277 0 .588.143.79.323.183.204.314.518.33.794v7.239a1.4 1.4 0 0 1-.323.79" fill="#ff00bf"/>
</svg>
