<svg version="1.1" viewBox="0 0 64 64" xmlns="http://www.w3.org/2000/svg">
 <defs>
  <linearGradient id="a" x1="1" x2="0" y1=".5" y2=".5">
   <stop stop-color="#fd5900" offset="0"/>
   <stop stop-color="#fff500" offset="1"/>
  </linearGradient>
 </defs>
 <path transform="translate(1e-6 .0011) scale(.9998) translate(.007827 .00195) scale(1) translate(-.001 3.999) scale(1.707)" d="M14.34 32.81q-2.328 0-4.422-.328c-2.094-.328-2.635-.526-3.719-.922s-1.938-.854-2.562-1.375-.937-1.078-.937-1.672q0-.563.398-1.383a5.1 5.1 0 0 1 1.086-1.477l2.78-13.97 1.673.75-2.828 14.23q-.547.36-.922.906c-.375.546-.385.667-.406.906q2.422 0 4.445.22 2.023.218 3.984.702 1.96.485 4.18 1.297a.53.53 0 0 0 .148-.21.8.8 0 0 0 .055-.29q0-.811-.64-1.828l3.124-13.33 1.828.094-3.078 13.11q.219.344.39.875c.172.531.173.714.173 1.078q0 1.14-.672 1.695t-1.75.734-2.328.18zm-9.016-7.359q-2.515-.405-3.922-1.531c-1.407-1.126-1.406-1.662-1.406-2.734q0-.922.242-2.18a22 22 0 0 1 .64-2.508q.399-1.25.868-2.203c.469-.953.625-1.057.937-1.266q1.032-.703 2.578-.703 1.125 0 2.391.375l-.343 1.188q-1.125-.312-2.016-.313-1.157 0-1.922.5-.313.203-.68 1.04-.368.835-.695 1.96a19 19 0 0 0-.54 2.234q-.21 1.11-.21 1.875 0 1.095 1.133 1.898 1.133.806 3.133 1.117zm.375-2.375q-3.375-.454-3.375-2.031 0-.61.18-1.562t.46-1.945.579-1.727c.298-.735.375-.786.53-.89q.391-.267 1.079-.266.875 0 2.156.39l-.344 1.188a10 10 0 0 0-1.023-.257 4.3 4.3 0 0 0-.742-.086q-.234 0-.313.062-.14.094-.359.742-.22.65-.437 1.516-.22.867-.368 1.656-.148.79-.148 1.18 0 .204.664.43t1.617.352zm5.438 1.266q.376 0 .64-.266c.265-.266.266-.39.266-.64s-.088-.464-.265-.64-.391-.266-.641-.266-.463.088-.64.265-.266.39-.266.64.088.464.265.641.391.266.641.266m4.234 3.359q-1.844-.703-3.828-1.078c-1.984-.375-2.724-.396-4.203-.437l2.234-11.23q.578 0 1.391.062c.813.062 1.078.096 1.609.164q.797.102 1.297.211l-1.266 4.859 1.5 2.094 1.734-1.219 1.391-5.547.984.61zm-4.469-8.625a.63.63 0 0 0 .46-.195q.196-.196.196-.477c0-.28-.065-.346-.195-.477a.63.63 0 0 0-.461-.195.62.62 0 0 0-.469.195q-.187.196-.187.477c0 .281.062.346.187.477q.187.195.469.195m3.297 2.5q.14 0 .43-.148.289-.15.586-.602c.297-.452.354-.766.468-1.391q.423-2.328 1.18-3.844.759-1.515 2.18-1.516.485 0 .72.156c.234.156.304.211.445.32q.21.165.601.165.547 0 .86-.399.312-.398.312-1.117 0-1.094-.867-1.562c-.867-.468-1.518-.469-2.82-.469q-.735-1.406-1.805-2.07a4.4 4.4 0 0 0-2.367-.664q-1.438 0-3.031.75-.812-.312-1.47-.312-.81 0-1.311.437c-.501.437-.5.688-.5 1.188q0 .938.57 1.266t1.617.328q.687 0 1.352-.078a10 10 0 0 1 1.055-.078q1.203 0 1.875.688c.672.688.672 1.125.672 2q0 .906-.367 2.03c-.367 1.125-.49 1.49-.735 2.22q-.366 1.094-.367 1.938a.85.85 0 0 0 .188.515q.188.25.53.25zm-.016 1.359q-.953 0-1.586-.5t-.632-1.406q0-.781.406-1.898.406-1.118.82-2.328c.414-1.21.414-1.55.414-2.227q0-.78-.484-.96-.485-.18-1.172-.18-.438 0-1.062.093a7 7 0 0 1-1.266.094q-1.485 0-2.43-.828t-.946-2.297q0-1.39.954-2.234c.954-.844 1.432-.844 2.39-.844q.75 0 1.454.219.812-.375 1.625-.563c.813-.188 1.068-.187 1.578-.187q1.515 0 2.828.71c1.313.71 1.594 1.2 2.156 2.18q2.126.016 3.219.962 1.094.946 1.094 2.71 0 .688-.368 1.313c-.368.625-.56.757-.945 1.023a2.1 2.1 0 0 1-1.219.398q-.578 0-.86-.172c-.281-.172-.35-.232-.492-.352q-.21-.18-.585-.18-.33 0-.68.477c-.35.477-.458.727-.672 1.227q-.32.75-.54 1.578c-.22.828-.239 1.057-.28 1.516q-.063.782-.414 1.383-.352.602-.93.938c-.578.336-.844.336-1.375.336zm11.86-3q.313 0 .54-.227c.226-.227.226-.325.226-.523q0-.312-.227-.531c-.227-.22-.33-.219-.539-.219a.73.73 0 0 0-.523.219.71.71 0 0 0-.227.531q0 .297.227.523c.227.226.325.227.523.227m2.328 2q.282 0 .485-.203c.203-.203.203-.297.203-.484q0-.297-.203-.5c-.203-.203-.297-.204-.485-.204a.65.65 0 0 0-.492.204.7.7 0 0 0-.195.5q0 .281.195.484t.492.203m-13.86-15.59-3.89-1.547.452-1.172 3.875 1.547zm9.656 23.89q-1.828 0-2.875-.742-1.047-.743-1.047-2.023 0-.875.36-1.734l-1.812-5.344 1.516-.906 2.078 6.172q-.172.405-.274.78-.1.376-.101.673 0 .735.515 1.03c.515.296.943.298 1.797.298q1.625 0 3.336-.438c1.711-.438 2.198-.677 3.172-1.156q1.461-.72 2.367-1.57.907-.852.907-1.68 0-.532-.399-.945c-.399-.413-.633-.414-1.102-.414l-4.312-13.44 1.703-.563 4.047 12.61q.984.313 1.461 1.023.477.711.477 1.727 0 1.22-1.016 2.398-1.015 1.18-2.72 2.141-1.702.96-3.804 1.531-2.102.57-4.273.57zm.157-4.734q-.282 0-.516-.047l-3.281-9.688 1.906-.781v-3.188l3.203-2.328 1.516.219 4.125 12.98q-.234.421-1.031.914-.797.492-1.867.922t-2.156.71q-1.086.282-1.898.282zm1.875-9.953q.39 0 .656-.281c.266-.281.265-.401.265-.64s-.088-.454-.265-.641-.396-.282-.656-.282q-.36 0-.625.282c-.265.282-.266.4-.266.64s.089.453.266.64.385.282.625.282m-10.91-10.61L12.805 1.25 13.82.531l2.5 3.688zm6.953 7.828-.11-1.625q1.015-.375 1.97-.969c.954-.594 1.082-.791 1.343-1.188q.375.047.719.047 1.297 0 2.133-.61.836-.609.836-1.593 0-.735-.57-1.32t-1.742-.586a4 4 0 0 0-.5.031 4.8 4.8 0 0 0-1.156-.586 3.5 3.5 0 0 0-1.125-.195q-1.766 0-2.812 1.89a5.5 5.5 0 0 0-.985-.093q-1.187 0-2 .586-.813.585-1.312 1.742l-1.453-.547q.64-1.531 1.781-2.336 1.14-.804 2.766-.805a6 6 0 0 1 .578.032 3.57 3.57 0 0 1 1.5-1.477 4.3 4.3 0 0 1 2.016-.508q.672 0 1.305.21.633.212 1.164.665.172-.031.328-.04.157-.006.313-.007 1.515 0 2.492.945.976.945.976 2.398 0 2.063-1.305 2.852-1.305.79-3.367.79-.672.702-1.703 1.327c-1.03.625-1.38.74-2.078.97zm-4.156-8.75-1.25-.094L17.179 0l1.25.094zm14.38 14.94-.407-1.188q1.063-.36 1.445-.695a1.1 1.1 0 0 0 .383-.867q0-.406-.133-1.062a14 14 0 0 0-.343-1.336 6 6 0 0 0-.47-1.141q-.257-.461-.523-.461-.188 0-.593.18-.407.18-1.281.71l-.657-1.062q1.016-.609 1.61-.844c.593-.235.723-.234.984-.234q.594 0 1.078.531c.484.531.604.808.844 1.36s.424 1.13.554 1.733q.196.906.196 1.656 0 .954-.641 1.602-.64.65-2.047 1.117zm.718 2.312-.437-1.188q1.812-.64 2.648-1.586.836-.945.836-2.148a9.5 9.5 0 0 0-.258-2.125 10 10 0 0 0-.734-2.117q-.477-.991-1.125-1.617-.65-.625-1.43-.625-.735 0-1.29.188-.555.187-1.335.64l-.625-1.094a9 9 0 0 1 1.648-.742 5.3 5.3 0 0 1 1.617-.242q1.11 0 1.992.719.881.718 1.508 1.875c.627 1.157.737 1.607.96 2.508q.336 1.35.336 2.617 0 1.641-1.078 2.898t-3.234 2.039z" fill="url(#a)"/>
</svg>
