<svg xmlns="http://www.w3.org/2000/svg" viewBox="0 0 64 64"><defs><linearGradient id="a" x2="0" y1="1"><stop offset="0" stop-color="#fe44ff"/><stop offset="1" stop-color="#ffe680"/></linearGradient></defs><path fill="url(#a)" d="M3.141 20.27a18 18 0 0 1-.406-3.859q0-3.532 1.242-6.523 1.242-2.992 3.477-5.211c2.235-2.219 3.242-2.628 5.258-3.445Q15.735.005 19.298.005c3.563 0 4.57.409 6.586 1.227q3.023 1.227 5.258 3.445c2.235 2.218 2.648 3.216 3.477 5.211q1.242 2.992 1.242 6.523 0 2-.422 3.859l-1.828-.344q.375-1.672.375-3.516 0-3.172-1.102-5.852-1.102-2.679-3.078-4.656c-1.976-1.977-2.87-2.344-4.656-3.078q-2.68-1.102-5.852-1.102-3.157 0-5.836 1.102a14.2 14.2 0 0 0-4.664 3.078 14 14 0 0 0-3.086 4.656Q4.61 13.238 4.61 16.41q0 1.844.375 3.516zM9.516 33.6q-1.422 0-3.062-.516c-1.64-.516-2.13-.797-3.109-1.359s-1.781-1.18-2.406-1.852q-.937-1.007-.937-1.977 0-.453.18-.843.179-.39.476-.657a5 5 0 0 1-.438-.93 2.7 2.7 0 0 1-.156-.867q0-.624.274-1.148.273-.523.789-.757a5 5 0 0 1-.102-.47 3 3 0 0 1-.04-.437q0-.921.618-1.586.618-.663 1.523-.664.266 0 .5.055.234.054.453.164.266-.53.766-.86c.5-.33.708-.327 1.125-.327q.468 0 .86.195.39.195.898.734.507.54 1.32 1.586l.39.5q.235-.765.766-1.242.53-.476 1.297-.476 1.062 0 1.688.765c.626.765.687 1.276.812 2.297q.11.797.422 1.688c.312.891.409 1.2.602 1.82q.29.93.289 1.867 0 1.532-.75 2.727t-2.062 1.883c-1.312.688-1.87.688-2.984.688zm-.094-1.547q1.922 0 3.125-1.102 1.203-1.101 1.203-2.758 0-.828-.258-1.562a175 175 0 0 0-.554-1.555 8.4 8.4 0 0 1-.422-1.852q-.11-1-.399-1.438a.91.91 0 0 0-.804-.437q-.47 0-.711.476c-.241.476-.242.706-.242 1.164q0 .282.047.586c.047.304.078.404.14.602l-.469.375q-.405-.454-.89-1.023-.484-.57-.953-1.227l-.203-.282q-.876-1.218-1.242-1.562-.368-.343-.743-.343-.343 0-.539.21-.195.211-.195.57 0 .329.664 1.415t2.305 2.789l-.687.625q-1.672-1.672-2.438-2.703c-.766-1.031-.878-1.188-1.102-1.5q-.336-.47-.758-.469-.345 0-.547.234c-.202.234-.203.38-.203.672q0 .626 1.172 1.836 1.171 1.211 2.984 2.82l-.594.688a34 34 0 0 1-2.07-1.79 60 60 0 0 0-1.164-1.093q-.405-.367-.688-.367-.578 0-.578.625 0 .453.657 1.148.656.695 1.547 1.383c.89.688 1.115.833 1.562 1.125l-.47.797a9.2 9.2 0 0 1-1.71-1.18q-.711-.633-1.117-.633-.516 0-.516.484 0 .61.79 1.336.788.727 2.022 1.391t2.578 1.094q1.345.43 2.47.43zm9.875.766a17.8 17.8 0 0 1-6.484-1.203l1.22-1.406q2.499.89 5.265.89c2.766 0 3.6-.297 5.266-.89l1.22 1.406q-1.47.578-3.103.89a18 18 0 0 1-3.383.313zm-8.922-20.02q0-1.64.93-2.711t2.398-1.07q.984 0 1.859.547c.875.547 1.068.87 1.453 1.516l-1.47.875q-.733-1.22-1.843-1.22-.72 0-1.164.57-.445.571-.445 1.493zm7.297 6.703q-2 0-4.023-.516a19.4 19.4 0 0 1-3.945-1.484l.672-1.594q1.844.938 3.672 1.406c1.828.468 2.427.469 3.625.469q3.188 0 5.97-1.461 2.78-1.461 4.858-4.242l1.375 1.03q-2.328 3.11-5.469 4.75c-3.14 1.64-4.338 1.642-6.734 1.642zm11.41 14.09q-1.672 0-2.984-.688c-1.312-.688-1.562-1.086-2.062-1.883q-.75-1.195-.75-2.727 0-.937.29-1.867.288-.93.609-1.82a7.6 7.6 0 0 0 .414-1.688q.172-1.422.765-2.242.594-.82 1.734-.82.782 0 1.305.476.525.477.758 1.242l.39-.5q.814-1.046 1.32-1.586.509-.539.907-.734c.398-.195.55-.195.852-.195q.64 0 1.14.328c.5.328.584.505.75.86q.219-.11.462-.165.242-.055.492-.055a1.99 1.99 0 0 1 1.53.665q.61.663.61 1.586 0 .202-.031.437c-.031.235-.057.313-.11.469q.516.234.79.758c.274.524.273.731.273 1.148q0 .406-.156.867a5 5 0 0 1-.438.93q.313.265.485.656c.172.39.172.541.172.844q0 .968-.938 1.977-.938 1.007-2.406 1.852c-1.468.845-2.016 1.016-3.109 1.359s-2.115.515-3.062.515zm.094-1.547q1.125 0 2.469-.43a15 15 0 0 0 2.578-1.094q1.234-.664 2.023-1.391t.79-1.336q0-.484-.517-.484-.39 0-1.101.632a9 9 0 0 1-1.727 1.18l-.47-.797a21 21 0 0 0 1.57-1.125q.885-.687 1.54-1.383.656-.695.656-1.148 0-.624-.578-.625-.266 0-.68.368-.414.366-1.172 1.094a34 34 0 0 1-2.07 1.789l-.594-.688q1.812-1.61 2.984-2.82t1.172-1.836q0-.437-.195-.672-.195-.234-.555-.234-.405 0-.75.469l-1.102 1.5q-.758 1.03-2.445 2.703l-.687-.625q1.64-1.703 2.305-2.79.664-1.084.664-1.413 0-.36-.195-.57-.195-.212-.54-.212-.375 0-.742.344c-.367.344-.658.75-1.242 1.562l-.203.281q-.468.657-.953 1.227t-.89 1.023l-.47-.375a4 4 0 0 0 .188-1.187q0-.687-.242-1.164t-.71-.477q-.517 0-.798.438c-.28.438-.323.77-.406 1.438a8 8 0 0 1-.43 1.852q-.305.82-.554 1.555c-.25.735-.25 1.01-.25 1.562q0 1.656 1.203 2.758 1.203 1.101 3.125 1.102zm-7.078-21.08-1.719-.125q.125-1.593 1.078-2.594c.953-1.001 1.417-1 2.344-1q.968 0 1.844.5c.876.5 1.088.797 1.516 1.39l-1.391 1q-.86-1.17-1.969-1.171-.703 0-1.164.539-.46.54-.54 1.46" transform="translate(0 4.144)scale(1.65783)"/></svg>