<svg version="1.1" viewBox="0 0 64 64" xmlns="http://www.w3.org/2000/svg">
 <defs>
  <linearGradient id="a" x2="0" y1="1">
   <stop stop-color="#0cf" offset="0"/>
   <stop stop-color="#bc5fd3" offset=".5"/>
   <stop stop-color="#fc0" offset="1"/>
  </linearGradient>
 </defs>
 <path transform="translate(-.00065) scale(1) translate(-2.715 -2.893) scale(2.893)" d="m12 1c-3 0-3 2-6 4s-5 2-5 2l1 4h0.09961c-0.1 0.3-0.09961 0.7-0.09961 1 0 3.5 1.8 6.6 4.5 8.4l-0.5 0.9004c6.4 4.1 12 0 12 0l-0.5-0.9004c2.7-1.8 4.5-4.9 4.5-8.4v-1l1-4s-2 0-5-2-3-4-6-4zm-1.4 1.4 1.4 1.4 1.4-1.4 0.6992 0.6992-1.4 1.4 1.4 1.4-0.6992 0.6992-1.4-1.4-1.4 1.4-0.6992-0.6992 1.4-1.4-1.4-1.4zm1.4 5.6c2.2 0 5.901 1.6 7.801 2.4 0.1 0.3 0.09961 0.6004 0.09961 0.9004l-10.6-2.801c1-0.3 1.999-0.5 2.699-0.5zm-6 1.699 7.1 1.9v2.4c0 0.5 0.4 1 1 1h2c0.5 0 1-0.4 1-1v-1.4l2.9 0.8008c-0.5 2.1-1.8 3.999-3.5 5.199l-1.5-2.6h-6l-1.5 2.6c-2.1-1.4-3.5-3.8-3.5-6.6 0-0.5 0.09922-1 0.1992-1.5 0.5-0.2 1.101-0.5008 1.801-0.8008zm2.199 2.4c-0.3 0.2-0.4984 0.6004-0.3984 0.9004 0 0.7 0.6988 1.199 1.299 1.199s1.201-0.4992 1.201-1.199c-0.6-0.4-1.302-0.7004-2.102-0.9004zm4.19 5.805c0.2965-0.0073 0.5918 0.07617 0.8106 0.2949 0.3 0.1 0.4004 0.6004 0.4004 0.9004-0.7 0.4-1.399 0.7008-2.199 0.8008-0.5-0.4-0.5-1.2 0-1.6 0.225-0.225 0.6071-0.387 0.9883-0.3965z" fill="url(#a)"/>
</svg>
