<svg xmlns="http://www.w3.org/2000/svg" viewBox="0 0 64 64"><defs><linearGradient id="a" y1="1"><stop offset="0" stop-color="#c841ba"/><stop offset="1" stop-color="#8056f7"/></linearGradient></defs><path fill="url(#a)" d="M14.84 29.42q-1.36 0-2.234-1.047h-.11q-1.203 0-2.14-.828c-.937-.828-.938-1.234-.938-2.047q0-.453-.258-.805-.257-.352-.867-.742-1.376-.89-1.914-1.742-.54-.851-.539-2.117 0-.547.172-1.109a12.1 12.1 0 0 1-.61-3.797q0-2.313.844-4.281c.844-1.968 1.35-2.453 2.36-3.422s2.187-1.724 3.53-2.266 2.797-.813 4.36-.813 3.015.271 4.358.813 2.521 1.297 3.531 2.266 1.797 2.109 2.36 3.422.843 2.74.843 4.281q0 1.938-.61 3.797.173.563.173 1.109 0 1.266-.54 2.117-.539.851-1.913 1.742-.61.39-.868.742c-.258.352-.257.503-.257.805q0 1.219-.938 2.047c-.938.828-1.338.828-2.141.828h-.11q-.874 1.047-2.233 1.047a2.9 2.9 0 0 1-1.656-.516 2.9 2.9 0 0 1-1.656.516zm-9.594 3.391q-1 0-1.781-.734c-.781-.734-.828-1.088-.922-1.797a3.08 3.08 0 0 1-1.82-.946q-.726-.773-.726-1.773c0-1 .273-1.227.82-1.68q.82-.68 2.227-.851l.125-.016q.952-.125 1.305-.234.351-.11.617-.375l2.141-2.141 1.047 1.156-2.078 2.094q-.453.453-1.047.672c-.594.219-1.01.276-1.844.39l-.11.016q-1.608.234-1.608.984 0 .626.601.93c.601.304 1.003.305 1.805.305q0 1.219.305 1.812t.93.593q.406 0 .64-.375c.234-.375.271-.656.344-1.219l.016-.109q.187-1.281.406-1.859c.219-.578.37-.73.672-1.031l2.03-2.031 1.032 1.156-1.97 1.969q-.264.265-.374.625c-.11.36-.146.672-.22 1.297l-.015.14q-.156 1.376-.851 2.204-.697.828-1.695.828zm8.438-4.703-1.25-.625v-2.031q0-.703.625-.703c.625 0 .625.234.625.703zm2.188 0v-2.656q0-.703.625-.703c.625 0 .625.234.625.703v2.656zm3.438 0v-2.656q0-.703.625-.703c.625 0 .625.234.625.703v2.031zm-7.562-8.484q-.985 0-1.672-.742-.687-.743-.687-1.82 0-1.14.75-1.97c.75-.83 1.109-.827 1.828-.827q.984 0 1.671.742.688.743.688 1.82 0 1.11-.742 1.953c-.742.843-1.107.844-1.836.844zm3.859 2.625q-.64 0-.64-.906 0-.516.195-1.227.195-.71.547-1.25c.352-.54.497-.54.789-.54q.453 0 .797.54.343.54.539 1.25c.196.71.195.883.195 1.227q0 .906-.64.906a1 1 0 0 1-.422-.102 2.7 2.7 0 0 1-.47-.289 2.7 2.7 0 0 1-.468.29 1 1 0 0 1-.422.101m-.766 5.453q.407 0 .86-.156c.453-.156.568-.276.797-.516q.343.36.804.516.462.156.852.156.64 0 .938-.344c.298-.344.349-.536.453-.922q.546.22.953.22.5 0 .851-.36.352-.36.352-.875 0-.906.477-1.594.476-.688 1.508-1.281.969-.547 1.28-1.047c.312-.5.313-.802.313-1.406q0-.516-.281-1.078.719-1.875.719-3.828 0-2.61-1.195-4.656a8.7 8.7 0 0 0-3.281-3.227q-2.086-1.18-4.742-1.18c-2.656 0-3.352.393-4.742 1.18a8.67 8.67 0 0 0-3.281 3.227Q7.28 12.578 7.28 15.187q0 1.953.718 3.828-.28.562-.28 1.078 0 .906.32 1.406t1.273 1.047q1.03.594 1.508 1.289.476.695.476 1.586 0 .516.36.875c.36.359.52.36.843.36q.407 0 .953-.22.157.579.461.922c.304.343.513.344.93.344zm-7.609-17.16-2.14-2.141a1.56 1.56 0 0 0-.618-.383q-.352-.117-1.305-.226l-.125-.016Q1.638 7.604.817 6.924q-.82-.68-.82-1.68 0-1.015.727-1.789a3 3 0 0 1 1.82-.93q.14-1.061.921-1.796c.781-.735 1.115-.735 1.781-.735S6.478.27 6.941.822q.696.828.852 2.203l.016.141q.109.937.218 1.297c.11.36.198.448.375.625l1.97 1.969L9.34 8.213 7.31 6.182q-.455-.453-.672-1.031c-.217-.578-.282-1.005-.407-1.859l-.015-.11q-.11-.843-.344-1.218c-.234-.375-.37-.375-.64-.375q-.626 0-.93.593-.305.594-.305 1.812-1.203 0-1.805.305t-.602.93q0 .75 1.61.984l.109.016q1.25.172 1.844.39c.594.218.745.37 1.047.672l2.078 2.094zm20.52 22.27q-1 0-1.695-.828t-.851-2.203l-.016-.14q-.11-.939-.219-1.298c-.109-.359-.198-.448-.375-.625l-1.969-1.969 1.031-1.156 2.031 2.031q.453.453.672 1.031c.22.578.281 1.005.406 1.86l.016.109q.125.843.36 1.219c.234.376.364.375.624.375q.641 0 .938-.594c.297-.594.297-1 .297-1.812q1.203 0 1.805-.305.6-.304.601-.93 0-.75-1.609-.984l-.109-.016q-1.235-.171-1.836-.39a2.86 2.86 0 0 1-1.055-.672l-2.078-2.094 1.047-1.156 2.141 2.141q.266.266.617.375.353.11 1.305.234l.125.016q1.407.172 2.227.852t.82 1.68c0 1-.239 1.258-.718 1.773q-.719.773-1.828.945-.14 1.062-.922 1.797c-.782.735-1.115.734-1.781.734zm-6.5-13.19q-1.093 0-1.836-.844a2.87 2.87 0 0 1-.742-1.953q0-1.079.688-1.82t1.672-.742q1.078 0 1.828.828c.75.828.75 1.208.75 1.97q0 1.077-.688 1.82c-.688.742-1.016.741-1.672.741zm4.516-9.078-1.047-1.156L26.8 7.294a2.85 2.85 0 0 1 1.055-.672q.601-.219 1.836-.39l.11-.016q1.61-.234 1.609-.985 0-.624-.602-.93c-.602-.305-1.003-.304-1.805-.304q0-1.219-.297-1.812c-.297-.593-.51-.594-.937-.594q-.39 0-.625.375c-.235.375-.276.656-.36 1.22l-.015.109q-.187 1.281-.406 1.859c-.22.578-.37.729-.672 1.03l-2.031 2.032-1.031-1.156 1.969-1.97q.265-.265.375-.624c.11-.36.145-.672.218-1.297l.016-.14q.156-1.376.852-2.204.695-.828 1.695-.828c1 0 1.26.245 1.78.734s.829 1.088.923 1.797q1.11.157 1.828.93t.718 1.79q0 .999-.82 1.68-.82.678-2.227.85l-.125.016q-.953.11-1.305.227a1.56 1.56 0 0 0-.617.383z" transform="translate(-.001 .18)scale(1.9388)"/></svg>