<svg xmlns="http://www.w3.org/2000/svg" viewBox="0 0 64 64"><defs><linearGradient id="a" x2="0" y2="1"><stop offset="0" stop-color="#ffe100"/><stop offset="1" stop-color="#f0e"/></linearGradient></defs><path fill="url(#a)" d="M16.56 32.81q-3.562 0-6.586-1.227t-5.258-3.445c-2.234-2.218-2.648-3.216-3.477-5.211q-1.242-2.992-1.242-6.523c0-3.531.414-4.529 1.242-6.523Q2.481 6.889 4.716 4.67c2.235-2.219 3.242-2.628 5.258-3.445Q12.998-.002 16.56-.002c3.562 0 4.57.409 6.586 1.227q3.023 1.227 5.258 3.445c2.235 2.218 2.648 3.216 3.477 5.211q1.242 2.992 1.242 6.523c0 3.531-.414 4.529-1.242 6.523q-1.242 2.993-3.477 5.211c-2.235 2.218-3.242 2.628-5.258 3.445q-3.024 1.227-6.586 1.227M6.18 23.685q-.438-.203-.234-.625l.812-1.641q.219-.438.625-.25.438.203.234.625l-.812 1.641q-.219.438-.625.25m1.719.438a.52.52 0 0 1-.258-.258.4.4 0 0 1 .008-.367l1.25-2.516q.219-.438.61-.25.171.078.257.257a.4.4 0 0 1-.008.368l-1.25 2.516q-.218.437-.609.25m2.125-.438q-.438-.203-.234-.625l.812-1.641q.219-.438.625-.25.438.203.234.625l-.812 1.641q-.219.438-.625.25m3.844 3.031v-1.719h5.375v1.719zm-4.641-6.609a4.7 4.7 0 0 1-2.43-.648 4.86 4.86 0 0 1-1.75-1.75 4.7 4.7 0 0 1-.648-2.43q0-1.343.648-2.438a4.9 4.9 0 0 1 1.75-1.742 4.7 4.7 0 0 1 2.43-.649q1.344 0 2.438.649a4.9 4.9 0 0 1 1.742 1.742q.648 1.094.648 2.438 0 1.327-.648 2.43a4.9 4.9 0 0 1-1.742 1.75q-1.094.648-2.438.648m0-1.25q1 0 1.805-.484.804-.485 1.289-1.297c.485-.812.484-1.141.484-1.797q0-1-.484-1.805a3.7 3.7 0 0 0-1.289-1.29 3.43 3.43 0 0 0-1.805-.484q-.984 0-1.797.485c-.813.485-.974.752-1.297 1.289a3.43 3.43 0 0 0-.484 1.805q0 .984.484 1.797c.484.813.755.974 1.297 1.297s1.141.484 1.797.484m0-1.844q-.72 0-1.227-.508-.508-.507-.508-1.227c0-.72.17-.888.508-1.227q.507-.508 1.227-.508c.72 0 .888.17 1.227.508q.508.508.508 1.227c0 .72-.17.888-.508 1.227a1.67 1.67 0 0 1-1.227.508m12.66 6.672q-.438-.203-.234-.625l.812-1.641q.219-.438.625-.25.438.203.234.625l-.812 1.641q-.219.438-.625.25m-5.328 7.406q3.172 0 5.852-1.102 2.679-1.101 4.656-3.078c1.977-1.977 2.344-2.872 3.078-4.664q1.102-2.688 1.102-5.844 0-3.172-1.102-5.852-1.101-2.679-3.078-4.656c-1.977-1.977-2.87-2.344-4.656-3.078q-2.68-1.102-5.852-1.102-3.157 0-5.836 1.102a14.2 14.2 0 0 0-4.664 3.078 14 14 0 0 0-3.086 4.656q-1.102 2.68-1.102 5.852 0 3.156 1.102 5.844 1.101 2.688 3.078 4.664 1.977 1.977 4.664 3.078 2.688 1.101 5.844 1.102m7.047-6.969a.52.52 0 0 1-.258-.258.4.4 0 0 1 .008-.367l1.25-2.516q.219-.438.61-.25.171.078.257.258a.4.4 0 0 1-.008.367l-1.25 2.516q-.218.438-.609.25m-16.41-16.2-.688-1.391q.735-.375 1.516-.54a7.7 7.7 0 0 1 1.594-.163q.782 0 1.586.133.805.132 1.648.351l-.406 1.516q-.718-.203-1.422-.32a8.5 8.5 0 0 0-1.39-.117q-.657 0-1.274.125-.617.124-1.164.406zm18.53 15.77q-.438-.203-.234-.625l.812-1.641q.219-.438.625-.25.438.203.234.625l-.812 1.641q-.219.438-.625.25m-1.844-3.578a4.7 4.7 0 0 1-2.43-.648 4.86 4.86 0 0 1-1.75-1.75 4.7 4.7 0 0 1-.648-2.43q0-1.344.648-2.438a4.9 4.9 0 0 1 1.75-1.742 4.7 4.7 0 0 1 2.43-.649q1.343 0 2.438.649a4.9 4.9 0 0 1 1.742 1.742q.648 1.094.648 2.438 0 1.327-.648 2.43a4.9 4.9 0 0 1-1.742 1.75q-1.094.648-2.438.648m0-1.25q1 0 1.805-.484.804-.485 1.289-1.297c.485-.812.484-1.141.484-1.797q0-1-.484-1.805a3.7 3.7 0 0 0-1.289-1.29 3.43 3.43 0 0 0-1.805-.484q-.984 0-1.797.485c-.813.485-.974.752-1.297 1.289a3.43 3.43 0 0 0-.484 1.805q0 .984.484 1.797c.484.813.755.974 1.297 1.297s1.141.484 1.797.484m0-1.844q-.72 0-1.227-.508-.508-.507-.508-1.227c0-.72.17-.888.508-1.227q.507-.508 1.227-.508c.72 0 .888.17 1.227.508q.508.508.508 1.227c0 .72-.17.888-.508 1.227a1.67 1.67 0 0 1-1.227.508m2.031-9.094a4.5 4.5 0 0 0-1.164-.406 6.4 6.4 0 0 0-1.273-.125q-.672 0-1.383.117a13 13 0 0 0-1.43.32l-.406-1.516a19 19 0 0 1 1.656-.351 10 10 0 0 1 1.578-.133q.828 0 1.609.164.78.165 1.5.54z" transform="translate(0 .302)scale(1.9318)"/></svg>