<svg version="1.1" viewBox="0 0 16 16" xmlns="http://www.w3.org/2000/svg">
 <path transform="translate(-.000173 .00059) scale(1)" d="M11.955 2.862a.8.8 0 0 0-.582.233l-.368.364.007.007L7.708 6.72a.586.586 0 0 0 0 .837l1.76 1.735a.61.61 0 0 0 .85 0l3.316-3.264v.002l2.182-2.09c.384-.366.126-1.007-.408-1.016l-3.453-.061zM4.044 6.537l-3.453.06c-.534.01-.791.648-.407 1.015L2.366 9.7l3.315 3.264a.61.61 0 0 0 .85 0l1.76-1.736a.584.584 0 0 0 0-.836L4.989 7.137l.008-.007-.368-.364a.8.8 0 0 0-.582-.23z" fill="#0f0"/>
</svg>
