<svg version="1.1" viewBox="0 0 16 16" xmlns="http://www.w3.org/2000/svg" xmlns:xlink="http://www.w3.org/1999/xlink">
 <defs>
  <linearGradient id="a" x2="0" y2="1">
   <stop stop-color="#00efff" offset="0"/>
   <stop stop-color="#07f" offset="1"/>
  </linearGradient>
  <linearGradient id="c" x1="6.881" x2="15.02" y1="9.537" y2="1.622" gradientTransform="scale(.9933 1.007)" gradientUnits="userSpaceOnUse" xlink:href="#a"/>
  <linearGradient id="b" x1="9.227" x2="1.088" y1="6.354" y2="14.27" gradientTransform="scale(.9932 1.007)" gradientUnits="userSpaceOnUse" xlink:href="#a"/>
 </defs>
 <path transform="translate(0) scale(1) translate(-.000853 -.000195) scale(1) translate(1.253 1.255) scale(.8435)" d="m12.31-0.9316a1.5 1.5 0 0 0-0.009766 0.003906c-1.316 0.002514-2.644 0.5031-3.65 1.494l-0.627 0.5937c-0.2438-0.8773-1.035-1.531-1.961-1.568-0.1426-0.005725-0.288 0.002376-0.4355 0.02734-0.8718 0.1474-1.347 0.8467-1.543 1.627-0.7308-0.3607-1.575-0.4371-2.246 0.1484-0.6726 0.5878-0.733 1.47-0.4688 2.262-0.8184 0.06696-1.579 0.4468-1.855 1.258a1.5 1.5 0 0 0 0 0.003906c-0.344 1.017 0.123 2.176 1.123 2.639l-0.6094 0.5996c-2.016 1.988-2.016 5.287 0 7.275 2.003 1.976 5.261 1.989 7.281 0.03906 0.3664 0.876 1.297 1.458 2.309 1.287 0.8725-0.1475 1.348-0.8459 1.543-1.627 0.7309 0.3609 1.575 0.4392 2.246-0.1465h0.001953c0.6723-0.5881 0.7314-1.472 0.4668-2.264 0.8184-0.06698 1.579-0.4448 1.855-1.256a1.5 1.5 0 0 0 0-0.003906c0.3155-0.933-0.05019-1.985-0.8848-2.51l1.125-1.109c2.017-1.989 2.017-5.289 0-7.277-1.009-0.9947-2.342-1.496-3.66-1.496z" fill="#1e1e1e" stop-color="#000000" stroke-linecap="round" stroke-linejoin="round" style="paint-order:stroke fill markers"/>
 <path transform="translate(0) scale(1) translate(-.000853 -.000195) scale(1) translate(1.253 1.255) scale(.8435)" d="m6.594 5.332a3.683 3.683 0 0 0-0.9902 0.125c-0.6059 0.1607-1.178 0.4705-1.654 0.9395l-2.869 2.828c-1.44 1.42-1.44 3.719 0 5.139s3.773 1.42 5.213 0l1.564-1.479c0.2276-0.2243 0.0114-0.4951-0.2109-0.7246-0.1077-0.1112-0.2067-0.2256-0.3281-0.3633-0.2647-0.3002-0.5059-0.5211-0.791-0.2402-0.2698 0.2657-0.7404 0.7317-1.537 1.523-0.7173 0.7067-1.89 0.7067-2.607 0-0.7171-0.7063-0.7171-1.864 0-2.57l2.869-2.828c0.1109-0.1094 0.2342-0.2067 0.3711-0.2773 0.7049-0.4112 1.63-0.3203 2.236 0.2773 0.4715 0.4652 1.136 0.6218 1.74 0.4746 0.3061-0.07449 0.4421-0.4131 0.3105-0.6992a3.6 3.6 0 0 0-0.7461-1.059 3.632 3.632 0 0 0-1.584-0.9199 3.683 3.683 0 0 0-0.9863-0.1445z" fill="url(#b)" stop-color="#000000" stroke-linecap="round" stroke-linejoin="round" style="paint-order:stroke fill markers"/>
 <path transform="translate(0) scale(1) translate(-.000853 -.000195) scale(1) translate(1.253 1.255) scale(.8435)" d="m12.31 0.5684v0.001953c-0.9436 0-1.887 0.3552-2.607 1.064l-1.564 1.48c-0.2276 0.2243-0.0114 0.4951 0.2109 0.7246 0.1077 0.1112 0.2067 0.2256 0.3281 0.3633 0.2647 0.3002 0.5078 0.5211 0.793 0.2402a490.7 490.7 0 0 0 1.537-1.523c0.7173-0.7069 1.89-0.7069 2.607 0 0.7171 0.7063 0.7171 1.864 0 2.57l-2.869 2.828c-0.1109 0.1094-0.2342 0.2048-0.3711 0.2754-0.7049 0.4112-1.63 0.3222-2.236-0.2754-0.4715-0.4652-1.138-0.6238-1.742-0.4766-0.3061 0.07449-0.4402 0.4151-0.3086 0.7012a3.6 3.6 0 0 0 0.7461 1.059 3.632 3.632 0 0 0 1.584 0.918 3.683 3.683 0 0 0 1.977 0.01953c0.6059-0.1606 1.178-0.4685 1.654-0.9375l2.869-2.828c1.44-1.42 1.44-3.721 0-5.141-0.7201-0.7098-1.664-1.064-2.607-1.064z" fill="url(#c)" stop-color="#000000" stroke-linecap="round" stroke-linejoin="round" style="paint-order:stroke fill markers"/>
 <path transform="translate(0) scale(1) translate(-.000853 -.000195) scale(1) translate(1.253 1.255) scale(.8435)" d="m13.01 9.85c-0.2456 0.00945-0.4687 0.174-0.5508 0.418-0.1103 0.3233 0.04546 0.6845 0.3652 0.8125l0.6914 0.2773c0.3218 0.1283 0.6857-0.05644 0.7949-0.377 0.1091-0.3224-0.0454-0.6835-0.3633-0.8105l-0.6895-0.2773a0.25 0.25 0 0 0-2e-3 0c-0.07926-0.03146-0.1631-0.04614-0.2461-0.04297zm-1.467 2.281c-0.1396-0.0012-0.2857 0.04633-0.4004 0.1465-0.2591 0.2262-0.2864 0.6197-0.07422 0.8887l0.4746 0.5996c0.2115 0.2682 0.618 0.3163 0.877 0.08984 0.2584-0.2255 0.286-0.6184 0.07422-0.8867l-0.4746-0.6016c-0.1186-0.1503-0.2962-0.2348-0.4766-0.2363zm-2.459 1.119c-0.01652 9.98e-4 -0.03693 0.0035-0.0625 0.0078-0.3408 0.05741-0.557 0.3947-0.5 0.7305a0.25 0.25 0 0 0 0 2e-3l0.1309 0.7656c0.05761 0.3367 0.3753 0.5809 0.7148 0.5234 0.3387-0.05727 0.5558-0.394 0.498-0.7324l-0.1309-0.7637c-0.05417-0.3152-0.3312-0.5525-0.6504-0.5332z" fill="url(#a)" stop-color="#000000" stroke-linecap="round" stroke-linejoin="round" style="paint-order:stroke fill markers"/>
 <path transform="translate(0) scale(1) translate(-.000853 -.000195) scale(1) translate(1.253 1.255) scale(.8435)" d="m5.941 1.092c-0.02099 0.00128-0.04323 0.00422-0.06445 0.00781-0.3387 0.05727-0.5558 0.394-0.498 0.7324l0.1309 0.7637c0.05417 0.3152 0.3312 0.5525 0.6504 0.5332 0.01652-9.98e-4 0.03693-0.00351 0.0625-0.00781 0.3408-0.05741 0.557-0.3947 0.5-0.7305a0.25 0.25 0 0 0 0-0.00195l-0.1309-0.7656c-0.05401-0.3156-0.3355-0.5505-0.6504-0.5312zm-2.721 1.287c-0.1411-0.001472-0.2832 0.04545-0.3965 0.1445-0.2584 0.2255-0.286 0.6184-0.07422 0.8867l0.4746 0.6016c0.1186 0.1503 0.2962 0.2348 0.4766 0.2363 0.1396 0.0012 0.2857-0.04633 0.4004-0.1465 0.2591-0.2262 0.2864-0.6197 0.07422-0.8887l-0.4746-0.5996c-0.119-0.1509-0.2991-0.2325-0.4805-0.2344zm-1.736 2.602c-0.2432 0.01285-0.4689 0.1776-0.5508 0.418-0.1091 0.3224 0.0454 0.6835 0.3633 0.8105l0.6895 0.2773a0.25 0.25 0 0 0 0.00195 0c0.07926 0.03146 0.1631 0.04614 0.2461 0.04297 0.2456-0.0094 0.4687-0.174 0.5508-0.418 0.1103-0.3233-0.04546-0.6845-0.3652-0.8125l-0.6914-0.2773c-0.08044-0.03208-0.1631-0.0453-0.2441-0.04102z" fill="url(#a)" stop-color="#000000" stroke-linecap="round" stroke-linejoin="round" style="paint-order:stroke fill markers"/>
</svg>
