<svg xmlns="http://www.w3.org/2000/svg" viewBox="0 0 16 16"><defs><linearGradient id="a" y1="1"><stop offset="0" stop-color="#fd7900"/><stop offset="1" stop-color="#faff00"/></linearGradient></defs><path fill="url(#a)" d="M12 3c-.753 0-1.508.408-1.85 1.221L8.396 8.387l-4.551.361c-1.775.14-2.496 2.331-1.143 3.477l3.469 2.938-1.06 4.393c-.413 1.713 1.472 3.066 2.992 2.148l3.896-2.354 3.896 2.354c1.52.918 3.405-.434 2.992-2.148l-1.06-4.39 3.469-2.939c1.353-1.146.632-3.338-1.143-3.478l-4.551-.36-1.754-4.167C13.506 3.409 12.752 3 11.998 3z" transform="matrix(.8 0 0 .8 -1.6 -2)"/></svg>