<svg version="1.1" viewBox="0 0 16 16" xmlns="http://www.w3.org/2000/svg">
 <path transform="translate(0) scale(1) translate(0) scale(1) translate(0) scale(1) translate(0) scale(1) translate(-.001898 -5e-5) scale(1) translate(.96 .9599) scale(.6399)" d="m11.05-1.5c-0.0036 9.136e-4 -0.01 0.00337-0.01367 0.00391h-2e-3c-1.228-0.002878-2.413 0.4669-3.303 1.314-0.9154 0.8585-1.438 2.057-1.439 3.313a1.5 1.5 0 0 0 0 0.00195v3.156h-3.096l0.02148 0.00195c-2.588-0.03625-4.732 2.096-4.713 4.684 0.00212 1.235 0.483 2.423 1.326 3.309l0.001953 2e-3c0.856 0.9094 2.05 1.428 3.299 1.432a1.5 1.5 0 0 0 0.00586 0h3.154v3.098c0 1.234 0.4809 2.435 1.354 3.314 0.8965 0.9054 2.129 1.373 3.379 1.373 1.209 0 2.38-0.4778 3.26-1.316 0.9142-0.8607 1.435-2.061 1.436-3.316a1.5 1.5 0 0 0 0-2e-3v-3.148h3.084c1.244 0.01055 2.442-0.4778 3.326-1.354 0.9043-0.8954 1.373-2.127 1.373-3.377 0-1.206-0.474-2.375-1.309-3.256l-2e-3 -0.00195c-0.8609-0.9162-2.063-1.437-3.32-1.438a1.5 1.5 0 0 0-2e-3 0h-3.148v-3.104c0-1.235-0.4819-2.434-1.354-3.314a1.5 1.5 0 0 0 0-0.001953c-0.8685-0.8751-2.054-1.358-3.285-1.361a1.5 1.5 0 0 0-0.0293-0.01172h-2e-3zm-0.0059 1.5 2e-3 0.001953a3.14 3.14 0 0 1 2.258 0.9277c0.596 0.602 0.918 1.399 0.918 2.26v4.604h4.65a3.06 3.06 0 0 1 2.229 0.9648c0.587 0.616 0.9023 1.399 0.9023 2.23 0 0.892-0.3187 1.71-0.9277 2.312a3.17 3.17 0 0 1-2.258 0.918h-4.598v4.648a3.06 3.06 0 0 1-0.9668 2.23c-0.616 0.588-1.396 0.9043-2.227 0.9043-0.892 0-1.711-0.3207-2.314-0.9297-0.597-0.602-0.918-1.397-0.918-2.258v-4.598h-4.656a3.05 3.05 0 0 1-2.219-0.9668c-0.591-0.62-0.916-1.419-0.916-2.283a3.15 3.15 0 0 1 3.195-3.176h4.596v-4.658a3.05 3.05 0 0 1 0.9668-2.225 3.27 3.27 0 0 1 2.283-0.9082z" fill="#1e1e1e" stop-color="#000000" stroke-linecap="round" stroke-linejoin="round" style="paint-order:stroke fill markers"/>
 <path transform="translate(0) scale(1) translate(0) scale(1) translate(0) scale(1) translate(0) scale(1) translate(-.001898 -5e-5) scale(1) translate(.96 .9599) scale(.6399)" d="m11.04 0a3.27 3.27 0 0 0-2.283 0.9082 3.05 3.05 0 0 0-0.9668 2.225v4.658h-4.596a3.15 3.15 0 0 0-3.195 3.176c0 0.864 0.325 1.663 0.916 2.283a3.05 3.05 0 0 0 2.219 0.9668h4.656v4.598c0 0.861 0.321 1.656 0.918 2.258 0.603 0.609 1.422 0.9297 2.314 0.9297 0.831 0 1.611-0.3163 2.227-0.9043a3.06 3.06 0 0 0 0.9668-2.23v-4.648h4.598a3.17 3.17 0 0 0 2.258-0.918c0.609-0.603 0.9277-1.42 0.9277-2.312 0-0.831-0.3153-1.614-0.9023-2.23a3.06 3.06 0 0 0-2.229-0.9648h-4.65v-4.604c0-0.861-0.322-1.658-0.918-2.26a3.14 3.14 0 0 0-2.258-0.9277z" fill="#0f0" stop-color="#000000" stroke-linecap="round" stroke-linejoin="round" style="paint-order:stroke fill markers"/>
</svg>
