<svg version="1.1" viewBox="0 0 16 16" xmlns="http://www.w3.org/2000/svg">
 <defs>
  <linearGradient id="a" y1="1">
   <stop stop-color="#39ff14" offset="0"/>
   <stop stop-color="#00ff81" offset="1"/>
  </linearGradient>
 </defs>
 <path transform="translate(0) scale(1) translate(0) scale(1) translate(0) scale(1) translate(0) scale(1) translate(-.00105 .000284) scale(1) translate(1.263 1.263) scale(.8421)" d="m8-1.5c-3.068 0-5.592 2.521-5.592 5.59v0.4707c-1.138 0.735-2.081 1.782-2.275 3.23-0.1099 0.8165-0.2109 1.72-0.2109 2.695 0 0.9756 0.1011 1.878 0.2109 2.695 0.3111 2.311 2.234 4.132 4.6 4.244a1.5 1.5 0 0 0 0.001953 0c1.042 0.0479 2.104 0.07422 3.266 0.07422s2.223-0.02631 3.266-0.07422c2.367-0.1088 4.289-1.932 4.602-4.242 0.11-0.8163 0.2109-1.72 0.2109-2.697 0-0.9773-0.1009-1.882-0.2109-2.697-0.2307-1.713-1.351-3.151-2.879-3.828 0.227-0.5213 0.3171-1.113 0.125-1.691a1.5 1.5 0 0 0 0-0.001953c-0.6593-1.977-2.55-3.761-5.109-3.764a1.5 1.5 0 0 0-0.003906-0.003906z" fill="#1e1e1e"/>
 <path transform="translate(0) scale(1) translate(0) scale(1) translate(0) scale(1) translate(0) scale(1) translate(-.00105 .000284) scale(1) translate(1.263 1.263) scale(.8421)" d="m8 0c-2.25 0-4.092 1.84-4.092 4.09v1.209c-1.188 0.4125-2.116 1.407-2.289 2.691-0.1064 0.79-0.1973 1.625-0.1973 2.496 0 0.8713 0.09091 1.705 0.1973 2.496 0.2161 1.605 1.549 2.868 3.184 2.945 1.021 0.0469 2.057 0.07227 3.197 0.07227s2.177-0.02536 3.197-0.07227c1.634-0.07513 2.966-1.338 3.184-2.945 0.1064-0.79 0.1973-1.623 0.1973-2.496 0-0.8733-0.09084-1.707-0.1973-2.496-0.2162-1.605-1.549-2.87-3.184-2.945-1.021-0.04693-2.057-0.07031-3.197-0.07031-0.8155 0-1.564 0.01871-2.307 0.04297v-0.9277c0-1.287 1.02-2.309 2.307-2.309 0.926 0 1.763 0.8155 1.998 1.521a0.3583 0.3583 0 0 0 0 0.00195c0.1544 0.4623 0.6625 0.7177 1.125 0.5645a0.3583 0.3583 0 0 0 2e-3 -0.00195c0.4623-0.1544 0.718-0.6625 0.5645-1.125-0.4711-1.413-1.85-2.74-3.691-2.74zm0 6.758c1.114 0 2.121 0.0227 3.113 0.06836 0.7575 0.0348 1.394 0.6328 1.498 1.402 0.1022 0.7593 0.1816 1.513 0.1816 2.258 0 0.7448-0.07939 1.499-0.1816 2.258-0.1036 0.769-0.7408 1.368-1.498 1.402-0.9933 0.04565-2 0.07031-3.113 0.07031-1.115 0-2.123-0.02467-3.115-0.07031-0.7575-0.0348-1.394-0.6331-1.498-1.402-0.1022-0.7593-0.1816-1.513-0.1816-2.258 0-0.7448 0.07939-1.499 0.1816-2.258 0.1036-0.769 0.7408-1.368 1.498-1.402 0.9933-0.04568 2.002-0.06836 3.115-0.06836z" fill="url(#a)" stop-color="#000000" stroke-linecap="round" stroke-linejoin="round" style="paint-order:stroke fill markers"/>
 <path transform="translate(0) scale(1) translate(0) scale(1) translate(0) scale(1) translate(0) scale(1) translate(-.00105 .000284) scale(1) translate(1.263 1.263) scale(.8421) translate(0) scale(.7274) translate(0) scale(1) translate(0) scale(1) translate(0) scale(1) translate(0) scale(1) translate(0) scale(1) translate(0) scale(1) translate(.00032) scale(1) translate(.001622) scale(.3437)" d="m31.99 33.94a4.768 4.768 0 0 0-3.201 8.35v4.451a3.2 3.2 0 0 0 6.4 0v-4.451a4.768 4.768 0 0 0-3.199-8.35z" fill="url(#a)"/>
</svg>
