<svg version="1.1" viewBox="0 0 16 16" xmlns="http://www.w3.org/2000/svg">
 <path transform="translate(-0) scale(1) translate(-0) scale(1) translate(-0) scale(1) translate(-0) scale(1) translate(.000685 .002296) scale(1) translate(1.27 1.263) scale(.8418)" d="m14.91-1.5c-0.8276 0.02559-1.472 0.4843-1.824 0.8184-0.3416 0.3236-0.5282 0.5519-0.5938 0.6113-2.131-0.7666-4.583-0.3226-6.174 1.416-0.2206 0.2081-0.5386 0.48-0.8496 0.9492-0.331 0.4993-0.6103 1.334-0.4082 2.156 0.1483 0.6082 0.4413 0.9826 0.7207 1.316-0.01193-0.01171-0.02322-0.02345-0.03516-0.03516a1.5 1.5 0 0 0-0.09961-0.08984c-0.5119-0.419-1.135-0.6349-1.789-0.6348-0.8626-0.002199-1.567 0.4373-1.98 0.8047-0.4145 0.3685-0.6676 0.692-0.8086 0.8242a1.5 1.5 0 0 0-0.08594 0.08789c-1.453 1.61-1.768 3.861-1.057 5.83-0.3278 0.3152-0.6269 0.568-0.9824 1.035a1.5 1.5 0 0 0-0.09961 0.1484c-1.1 1.873 0.6592 4.225 2.768 3.689a1.5 1.5 0 0 0 0.04492-0.01172c1.245-0.3562 1.686-1.163 1.859-1.354 2.149 0.7727 4.618 0.3083 6.199-1.455 0.2318-0.2153 0.5415-0.4827 0.8379-0.9434 0.3207-0.4984 0.5785-1.315 0.3828-2.117-0.1488-0.6131-0.4432-0.9932-0.7246-1.328 0.01458 0.01431 0.02837 0.02867 0.04297 0.04297a1.5 1.5 0 0 0 0.07031 0.06445c1.333 1.149 3.197 0.6985 4.145-0.5293 1.044-0.9939 1.913-2.341 1.988-4.002 0.05412-0.8114-0.1151-1.597-0.3848-2.352 0.328-0.3159 0.6268-0.5696 0.9824-1.037a1.5 1.5 0 0 0 0.1191-0.1836c0.9224-1.668-0.3403-3.77-2.254-3.723a1.5 1.5 0 0 0-0.0098 0zm0.04687 1.5c0.7517-0.01842 1.264 0.8436 0.9023 1.498-0.4476 0.5885-1.03 1.066-1.535 1.607 0.4743 0.777 0.7036 1.703 0.6387 2.611-0.05215 1.247-0.746 2.347-1.654 3.158-0.4559 0.6133-1.392 0.8418-2.004 0.3145-1.175-1.152-2.331-2.324-3.498-3.484-0.4493-0.5197-1.118-0.9089-1.289-1.611-0.1823-0.7412 0.4186-1.27 0.8945-1.727 1.352-1.49 3.756-1.765 5.443-0.6895l0.5801-0.5781c0.4778-0.3997 0.8314-1.078 1.521-1.1zm-11.1 6.506c0.3034-7.214e-4 0.6049 0.1046 0.8398 0.2969 1.174 1.151 2.328 2.327 3.494 3.486 0.4492 0.52 1.119 0.9086 1.289 1.611 0.1781 0.7217-0.3899 1.252-0.8613 1.695-1.309 1.475-3.646 1.795-5.336 0.8008-0.273-0.1797-0.4547 0.338-0.6875 0.4668-0.4428 0.3764-0.7697 0.9448-1.352 1.111-0.8019 0.2036-1.522-0.7649-1.104-1.477 0.4475-0.5879 1.03-1.065 1.535-1.605-0.9894-1.574-0.8291-3.776 0.4219-5.162 0.5195-0.4872 0.9707-1.229 1.76-1.225zm-0.3926 9.537c0.01047 0.0039 0.02076 0.0079 0.03125 0.01172l-0.08789 0.06055c0.01313-0.01959 0.00128-0.03145 0.05664-0.07227z" fill="#1e1e1e" stop-color="#000000" stroke-linecap="round" stroke-linejoin="round" style="paint-order:stroke fill markers"/>
 <path transform="translate(-0) scale(1) translate(-0) scale(1) translate(-0) scale(1) translate(-0) scale(1) translate(.000685 .002296) scale(1) translate(1.27 1.263) scale(.8418)" d="m14.96 0c-0.6901 0.02134-1.044 0.6999-1.521 1.1l-0.5801 0.5781c-1.688-1.075-4.091-0.8007-5.443 0.6895-0.4759 0.457-1.077 0.9853-0.8945 1.727 0.1708 0.7024 0.8397 1.092 1.289 1.611 1.167 1.16 2.323 2.333 3.498 3.484 0.6117 0.5274 1.548 0.2989 2.004-0.3145 0.9083-0.8108 1.602-1.911 1.654-3.158 0.06494-0.9087-0.1644-1.834-0.6387-2.611 0.5052-0.5415 1.088-1.019 1.535-1.607 0.3619-0.6545-0.1507-1.516-0.9023-1.498zm-11.1 6.506c-0.789-0.004352-1.24 0.7374-1.76 1.225-1.251 1.386-1.411 3.588-0.4219 5.162-0.5051 0.5408-1.088 1.018-1.535 1.605-0.4181 0.7117 0.3016 1.68 1.104 1.477 0.5819-0.1665 0.9088-0.7349 1.352-1.111 0.2328-0.1288 0.4145-0.6465 0.6875-0.4668 1.69 0.9946 4.027 0.6742 5.336-0.8008 0.4714-0.4431 1.039-0.9736 0.8613-1.695-0.1705-0.7027-0.8398-1.091-1.289-1.611-1.166-1.16-2.32-2.335-3.494-3.486-0.2349-0.1923-0.5365-0.2976-0.8398-0.2969z" fill="#f00" stop-color="#000000" stroke-linecap="round" stroke-linejoin="round" style="paint-order:stroke fill markers"/>
</svg>
