<svg version="1.1" viewBox="0 0 16 16" xmlns="http://www.w3.org/2000/svg">
 <defs>
  <linearGradient id="a" x1="1" x2="0" y1="1">
   <stop stop-color="#f10c86" offset="0"/>
   <stop stop-color="#f10cee" offset="1"/>
  </linearGradient>
 </defs>
 <path transform="translate(0) scale(1) translate(0) scale(1) translate(0) scale(1) translate(.00119 3e-4) scale(1) translate(1.264 1.263) scale(.8422)" d="m8.334-1.5c-3.261 0-6.311 1.787-7.059 4.77a1.5 1.5 0 0 0 0 0.003906c-0.3231 1.292-0.1354 2.676 0.6328 3.777 0.2239 0.3211 0.5471 0.3877 0.8262 0.6016-0.04973 0.2064-0.1484 0.2465-0.1484 0.5039l-0.001953 1.318c-6.047e-4 0.4612 0.2973 0.8373 0.4551 1.264-0.4042 0.6808-0.6934 1.441-0.6934 2.297 0 1.325 0.5416 2.531 1.453 3.34 0.8713 0.7749 1.966 1.123 3.01 1.123s2.141-0.346 3.016-1.125c0.9083-0.8094 1.447-2.015 1.447-3.338 0-0.7458-0.2201-1.422-0.5332-2.045 0.9083-0.5186 1.854-1.088 2.652-1.994 0.8933-1.014 1.48-2.4 1.48-3.959 0-1.514-0.4527-3.127-1.572-4.418-1.143-1.318-2.925-2.119-4.965-2.119zm0 1.5c1.66 0 2.99 0.631 3.832 1.602 0.8419 0.9705 1.205 2.22 1.205 3.436 0 1.195-0.4348 2.205-1.105 2.967s-1.535 1.307-2.463 1.828c-0.1452 0.08177-0.3697 0.4458-0.7383 0.9844-0.0312 0.04543-0.06329 0.09132-0.09766 0.1348 0.4924 0.509 0.8047 1.247 0.8047 2.084 0 0.9136-0.3741 1.71-0.9453 2.219s-1.302 0.7441-2.018 0.7441c-0.7157 0-1.442-0.2352-2.014-0.7441-0.5729-0.5084-0.9492-1.306-0.9492-2.219 0-0.8212 0.3035-1.546 0.7793-2.055a2.352 2.352 0 0 1-0.541-1.504l0.001953-1.32c0-0.407 0.1896-0.7237 0.3496-1.051-0.5214-0.1908-0.9911-0.4737-1.297-0.9121-0.4947-0.7092-0.6381-1.637-0.4082-2.557v-0.001953c0.5344-2.132 2.898-3.635 5.604-3.635zm-0.009766 1.777c-1.997 0.00379-3.619 1.295-3.869 2.289-0.122 0.487-0.02883 0.8684 0.1406 1.111 0.1695 0.2429 0.3979 0.3872 0.8145 0.3789h0.001953c0.1144-0.00237 0.3185-0.0744 0.5898-0.2344v-0.001953h0.001953a37.33 37.33 0 0 1 1.867-1.041c0.00889-0.00474 0.02295-0.01674 0.03125-0.02148v0.001953c0.01007-0.00474 0.01982-0.01088 0.0293-0.01562a0.8888 0.8888 0 0 1 1.283 0.8613 0.8888 0.8888 0 0 1-0.05469 0.2441 0.8888 0.8888 0 0 1-0.3965 0.4648c-0.6357 0.3519-1.436 0.7529-2.031 1.197-0.5955 0.4444-0.8691 0.8502-0.8691 1.146l-0.001953 1.32a0.5806 0.5806 0 0 0 0.5918 0.5957h0.6543a0.5806 0.5806 0 0 0 0.2109-0.03906 0.5806 0.5806 0 0 0 0.2773-0.2227l0.001953-0.001953c0.2477-0.362 0.5276-1.079 1.334-1.531 0.8686-0.4876 1.563-0.9527 2-1.449 0.4367-0.4959 0.6621-0.9895 0.6621-1.793-9e-6 -0.8579-0.2637-1.685-0.7715-2.27-0.5078-0.5854-1.252-0.9902-2.488-0.9902-0.00294 0-0.006827-5.6e-6 -0.009766 0zm-1.516 10.07c-0.3205 0-0.6284 0.1124-0.834 0.2949-0.1799 0.1597-0.3134 0.362-0.3438 0.7246-0.004339 0.0518-0.005859 0.1074-0.005859 0.166 0 0.4693 0.144 0.7075 0.3496 0.8906s0.5129 0.293 0.834 0.293c0.3211-2.3e-5 0.6323-0.1099 0.8379-0.293 0.2056-0.1825 0.3496-0.422 0.3496-0.8906 1e-7 -0.4687-0.144-0.7081-0.3496-0.8906s-0.5168-0.2949-0.8379-0.2949z" fill="#1e1e1e"/>
 <path transform="translate(0) scale(1) translate(0) scale(1) translate(0) scale(1) translate(.00119 3e-4) scale(1) translate(1.264 1.263) scale(.8422)" d="m8.334 0c-2.706 0-5.069 1.502-5.604 3.635v0.00195c-0.2299 0.9196-0.08653 1.847 0.4082 2.557 0.3057 0.4384 0.7755 0.7213 1.297 0.9121-0.16 0.3271-0.3496 0.6437-0.3496 1.051l-0.00195 1.32a2.352 2.352 0 0 0 0.541 1.504c-0.4758 0.5084-0.7793 1.233-0.7793 2.055 0 0.913 0.3763 1.71 0.9492 2.219 0.5718 0.509 1.298 0.7441 2.014 0.7441 0.7157 0 1.446-0.2352 2.018-0.7441 0.5712-0.509 0.9453-1.305 0.9453-2.219 0-0.8366-0.3123-1.575-0.8047-2.084 0.03436-0.04345 0.06645-0.08934 0.09766-0.1348 0.3685-0.5386 0.5931-0.9026 0.7383-0.9844 0.9279-0.5214 1.792-1.067 2.463-1.828 0.6707-0.7614 1.105-1.772 1.105-2.967 0-1.216-0.3631-2.465-1.205-3.436-0.8419-0.9705-2.172-1.602-3.832-1.602zm0 1.777c1.236 0 1.981 0.4048 2.488 0.9902 0.5078 0.5848 0.7715 1.412 0.7715 2.27 0 0.8034-0.2254 1.297-0.6621 1.793-0.4373 0.4965-1.131 0.9616-2 1.449-0.8064 0.4527-1.086 1.169-1.334 1.531l-0.001953 0.001953a0.5806 0.5806 0 0 1-0.4883 0.2617h-0.6543a0.5806 0.5806 0 0 1-0.5918-0.5957l0.00195-1.32c0-0.2962 0.2737-0.7021 0.8691-1.146 0.5955-0.4444 1.395-0.8453 2.031-1.197a0.8888 0.8888 0 0 0-0.832-1.57c-0.00948 0.00474-0.01922 0.01088-0.0293 0.01562v-0.00195c-0.00829 0.00474-0.02236 0.01674-0.03125 0.02148a37.33 37.33 0 0 0-1.867 1.041h-0.00195v0.00195c-0.2714 0.16-0.4755 0.232-0.5898 0.2344h-0.00195c-0.4165 0.008301-0.645-0.136-0.8145-0.3789s-0.2627-0.6243-0.1406-1.111c0.2506-0.996 1.877-2.289 3.879-2.289zm-1.525 10.07c0.3211 0 0.6323 0.1124 0.8379 0.2949s0.3496 0.422 0.3496 0.8906c0 0.4687-0.144 0.7081-0.3496 0.8906-0.2056 0.1831-0.5168 0.293-0.8379 0.293s-0.6284-0.1099-0.834-0.293-0.3496-0.4214-0.3496-0.8906 0.144-0.7081 0.3496-0.8906 0.5134-0.2949 0.834-0.2949z" fill="url(#a)" stop-color="#000000" stroke-linecap="round" stroke-linejoin="round" style="paint-order:stroke fill markers"/>
</svg>
