<svg version="1.1" viewBox="0 0 16 16" xmlns="http://www.w3.org/2000/svg">
 <defs>
  <linearGradient id="a" x1="-.02043" x2="22" y1="22.02" y2="-2.069e-7" gradientTransform="matrix(.9991 0 0 .9991 .02041 0)" gradientUnits="userSpaceOnUse">
   <stop stop-color="red" offset="0"/>
   <stop stop-color="#ff2a2a" offset="1"/>
  </linearGradient>
 </defs>
 <path transform="translate(0) scale(1) translate(0) scale(1) translate(0) scale(1) translate(0) scale(1) translate(.000224 8.2e-5) scale(.9999) translate(.9907 .958) scale(.6387)" d="m2.766-1.5c-1.827 0.00205-3.315 1.163-3.92 2.623-0.6044 1.46-0.3707 3.332 0.9199 4.625a1.5 1.5 0 0 0 0 0.00195l5.24 5.24-5.227 5.229c-0.9314 0.9101-1.385 2.115-1.324 3.225 0.0603 1.109 0.5634 2.089 1.289 2.814 0.7257 0.7257 1.703 1.229 2.812 1.289 1.109 0.0603 2.314-0.3928 3.225-1.324l5.229-5.229 5.238 5.238c0.7952 0.7989 1.879 1.248 3.006 1.248 2.328 0 4.246-1.92 4.246-4.248 4.38e-4 -1.127-0.4491-2.209-1.248-3.004l-5.238-5.238 5.238-5.238c0.7984-0.7948 1.248-1.877 1.248-3.004 0-2.328-1.918-4.248-4.246-4.248-1.127-4.38e-4 -2.211 0.4491-3.006 1.248l-5.238 5.238-5.238-5.24h-0.00195c-0.7951-0.7957-1.875-1.245-3-1.246a1.5 1.5 0 0 0-0.00195 0.00195 1.5 1.5 0 0 0-0.001956-0.00195zm0.001953 1.5a2.748 2.748 0 0 1 1.941 0.8066l6.301 6.301 6.303-6.301a2.738 2.738 0 0 1 1.941-0.8066 2.748 2.748 0 0 1 2.746 2.748 2.738 2.738 0 0 1-0.8066 1.941l-6.301 6.301 6.301 6.301a2.738 2.738 0 0 1 0.8066 1.941 2.748 2.748 0 0 1-2.746 2.748 2.738 2.738 0 0 1-1.941-0.8066l-6.303-6.301-6.301 6.301a2.746 2.746 0 0 1-3.883-3.883l6.303-6.301-6.303-6.301a2.748 2.748 0 0 1 1.941-4.689z" fill="#1e1e1e" stop-color="#000000" stroke-linecap="round" stroke-linejoin="round" style="paint-order:stroke fill markers"/>
 <path transform="translate(0) scale(1) translate(0) scale(1) translate(0) scale(1) translate(0) scale(1) translate(.000224 8.2e-5) scale(.9999) translate(.9907 .958) scale(.6387)" d="m2.768 0a2.748 2.748 0 0 0-1.941 4.689l6.303 6.301-6.303 6.301a2.746 2.746 0 1 0 3.883 3.883l6.301-6.301 6.303 6.301a2.738 2.738 0 0 0 1.941 0.8066 2.748 2.748 0 0 0 2.746-2.748 2.738 2.738 0 0 0-0.8066-1.941l-6.301-6.301 6.301-6.301a2.738 2.738 0 0 0 0.8066-1.941 2.748 2.748 0 0 0-2.746-2.748 2.738 2.738 0 0 0-1.941 0.8066l-6.303 6.301-6.301-6.301a2.748 2.748 0 0 0-1.941-0.8066z" fill="url(#a)" stop-color="#000000" stroke-linecap="round" stroke-linejoin="round" style="paint-order:stroke fill markers"/>
</svg>
