<svg version="1.1" viewBox="0 0 16 16" xmlns="http://www.w3.org/2000/svg">
 <path transform="translate(0) scale(1) translate(0) scale(1) translate(-1e-4) scale(1)" d="M7.33 0c-2 0-4 1.334-4 4v1.6A2.4 2.4 0 0 0 .93 8v5.6a2.4 2.4 0 0 0 2.4 2.4h8q.316-.001.607-.079a1.9 1.9 0 0 1-.715-.326l-.887-.654-.884.652-.004.002c-.33.245-.73.38-1.141.38H8.3a1.93 1.93 0 0 1-1.12-.368h-.003v-.002h-.004l-.002-.002H7.17l-.345-.254.066-.129c-.156-.186-.35-.345-.428-.578A2 2 0 0 1 6.4 14.4H3.33a.8.8 0 0 1-.8-.8V8c0-.442.359-.801.8-.801h5.144l.021-.064a1.93 1.93 0 0 1 1.838-1.342 1.94 1.94 0 0 1 1.84 1.342l.342 1.061h1.123l.092.002V8a2.4 2.4 0 0 0-2.4-2.4V4c0-2.666-2-3.999-4-3.999zm0 1.6c1.2 0 2.4.801 2.4 2.4v1.6H4.929V4c0-1.6 1.2-2.4 2.4-2.4z" fill="#00ff80"/>
 <path transform="translate(0) scale(1) translate(0) scale(1) translate(-1e-4) scale(1)" d="M7.466 15.2c.243.178.536.274.837.276.306-.002.603-.101.848-.284l.983-.723a.34.34 0 0 1 .401 0l.984.723a1.431 1.431 0 0 0 2.21-1.593l-.387-1.195a.34.34 0 0 1 .122-.377l1.018-.745a1.43 1.43 0 0 0-.844-2.586h-1.242a.34.34 0 0 1-.322-.234l-.378-1.174a1.432 1.432 0 0 0-2.725 0l-.377 1.174a.34.34 0 0 1-.322.235h-1.24a1.43 1.43 0 0 0-.845 2.585l1.018.745a.34.34 0 0 1 .122.377L6.94 13.6a1.41 1.41 0 0 0 .526 1.6z" fill="#ff0"/>
</svg>
