<svg version="1.1" viewBox="0 0 16 16" xmlns="http://www.w3.org/2000/svg" xmlns:xlink="http://www.w3.org/1999/xlink">
 <defs>
  <linearGradient id="a" y1="1">
   <stop stop-color="#f10" offset="0"/>
   <stop stop-color="#ff115a" offset="1"/>
  </linearGradient>
  <linearGradient id="b" x1="9.813" x2="12.49" y1="17.75" y2="15.07" gradientTransform="matrix(.8479 0 0 .8713 -1.855 -.5528)" gradientUnits="userSpaceOnUse" xlink:href="#a"/>
  <linearGradient id="c" x1="10.92" x2="16.76" y1="11.53" y2="5.685" gradientTransform="matrix(.6832 0 0 1.081 -1.855 -.5528)" gradientUnits="userSpaceOnUse" xlink:href="#a"/>
 </defs>
 <path transform="translate(0) scale(1) translate(.00034 .000219) scale(1) translate(-1.5 -1.499) scale(1.187) translate(1.716 1.263) scale(.8422)" d="m7.461 0c-0.8749 1.943e-4 -1.75 0.2552-2.457 0.7656-0.4042 0.2916-0.7539 0.6668-1.018 1.125-0.1318 0.2291-0.2412 0.4792-0.3262 0.75-0.1274 0.4061-0.1973 0.8595-0.1973 1.359v1.6c-1.326-2.158e-4 -2.401 1.075-2.4 2.4v5.6c0.00153 0.4972 0.1567 0.982 0.4453 1.387v4e-3h0.00195c0.00968 0.01312 0.01953 0.02596 0.0293 0.03906 0.02819 0.03797 0.0575 0.07509 0.08789 0.1113 0.03481 0.04138 0.0719 0.08021 0.1094 0.1191 0.03402 0.0369 0.0692 0.07273 0.1055 0.1074 0.03501 0.03212 0.0725 0.06177 0.1094 0.0918 0.03685 0.03108 0.07463 0.06104 0.1133 0.08984 0.07899 0.05681 0.1603 0.1092 0.2461 0.1562 0.08713 0.0478 0.1782 0.0901 0.2715 0.127 0.00195 6.54e-4 0.00391 0.0013 0.00586 2e-3 0.09125 0.03578 0.185 0.06534 0.2812 0.08984 0.09273 0.0236 0.1885 0.04228 0.2852 0.05469 0.09462 0.01152 0.1898 0.01739 0.2852 0.01758 0.00729 6.5e-5 0.01418 2e-3 0.02148 2e-3h8c0.0085-6.06e-4 0.01693-0.0013 0.02539-2e-3 0.09466-2.69e-4 0.1892-0.0061 0.2832-0.01758 0.0973-0.01249 0.1919-0.03087 0.2852-0.05469 0.0033-6.44e-4 0.0065-0.0013 0.0098-2e-3 0.09433-0.0245 0.1859-0.0545 0.2754-0.08984 0.09305-0.03662 0.1837-0.07902 0.2715-0.127 0.08574-0.04704 0.1691-0.09944 0.248-0.1562 0.03391-0.0258 0.06712-0.05251 0.09961-0.08008 0.04401-0.03533 0.08752-0.07109 0.1289-0.1094 0.03348-0.03161 0.06605-0.06417 0.09766-0.09766 0.03531-0.03663 0.06861-0.07447 0.1016-0.1133 0.03455-0.03991 0.06777-0.08095 0.09961-0.123 0.0088-0.01192 0.01839-0.02332 0.02734-0.03516h2e-3v-4e-3c0.2887-0.4047 0.4438-0.8895 0.4453-1.387v-5.6c-5.006e-4 -0.1045-0.007603-0.2089-0.02156-0.3125-0.01341-0.1041-0.03364-0.2072-0.06055-0.3086-0.02734-0.1011-0.06127-0.2002-0.1016-0.2969-0.3711-0.897-1.246-1.482-2.217-1.482v-1.6c0-0.1666-0.0083-0.3282-0.02344-0.4844-0.07565-0.7812-0.3341-1.432-0.7148-1.953-0.2285-0.3124-0.5015-0.5782-0.8047-0.7969-0.7071-0.5098-1.581-0.7654-2.455-0.7656zm0 1.6h0.00195c0.6744 0 1.349 0.2535 1.811 0.7598 0.1025 0.1125 0.1943 0.2375 0.2734 0.375 0.1582 0.275 0.2645 0.5996 0.3008 0.9746 0.009091 0.09375 0.01367 0.191 0.01367 0.291v1.6h-0.0332c0.3932 0.4375 0.6625 0.9899 0.7441 1.6h0.8907c0.2748 6.625e-4 0.5185 0.1393 0.6621 0.3516 0.07197 0.1064 0.1191 0.2327 0.1328 0.3672 0.0027 0.0269 0.0039 0.05245 0.0039 0.08008v5.602c-6.45e-4 0.4409-0.3579 0.7982-0.7988 0.7988h-1.826c-0.08437 0.2818-0.2259 0.5522-0.4336 0.791-0.3657 0.4206-0.9512 0.7031-1.576 0.7207a1 1 0 0 1-0.05469 0c-0.625-0.0176-1.21-0.3001-1.576-0.7207-0.2077-0.2388-0.3492-0.5092-0.4336-0.791h-2.102c-0.4417 4.3e-4 -0.8001-0.3572-0.8008-0.7988v-5.207h0.00195v-0.3945c0-0.02762 0.00117-0.05318 0.00391-0.08008 0.00821-0.08071 0.02818-0.1587 0.05859-0.2305 0.01014-0.02393 0.02087-0.04764 0.0332-0.07031 0.037-0.06801 0.08434-0.1293 0.1387-0.1836 0.03585-0.03582 0.07512-0.06912 0.1172-0.09766 0.02128-0.01437 0.04374-0.0287 0.06641-0.04102 0.04481-0.02434 0.09314-0.04504 0.1426-0.06055 0.02503-0.00779 0.05211-0.0142 0.07812-0.01953 0.02539-0.0052 0.05193-0.00899 0.07812-0.01172 0.02685-0.00273 0.05447-0.00391 0.08203-0.00391h1.166c0.081-0.6065 0.3479-1.16 0.7402-1.6h-0.3047v-1.6c0-0.2 0.01758-0.3875 0.05273-0.5625 0.03516-0.175 0.08672-0.3383 0.1523-0.4883 0.09843-0.225 0.229-0.4211 0.3828-0.5898 0.4614-0.5062 1.136-0.7598 1.811-0.7598z" fill="url(#a)" stop-color="#000000" stroke-linecap="round" stroke-linejoin="round" style="paint-order:stroke fill markers"/>
 <path transform="translate(0) scale(1) translate(.00034 .000219) scale(1) translate(-1.5 -1.499) scale(1.187) translate(1.716 1.263) scale(.8422)" d="m7.6 12.58a1.166 1.166 0 0 0 0 2.33 1.166 1.166 0 0 0 0-2.33z" fill="url(#b)" stop-color="#000000" stroke-linecap="round" stroke-linejoin="round" style="paint-order:stroke fill markers"/>
 <path transform="translate(0) scale(1) translate(.00034 .000219) scale(1) translate(-1.5 -1.499) scale(1.187) translate(1.716 1.263) scale(.8422)" d="m7.463 5.6a1.998 1.998 0 0 0-1.861 1.992c0 1.172 0.6594 2.841 1.051 3.725 0.1648 0.3729 0.5365 0.6016 0.9453 0.6016s0.7824-0.229 0.9473-0.6016c0.3908-0.8836 1.053-2.551 1.053-3.725a1.998 1.998 0 0 0-2.135-1.992z" fill="url(#c)" stop-color="#000000" stroke-linecap="round" stroke-linejoin="round" style="paint-order:stroke fill markers"/>
</svg>
