<svg xmlns="http://www.w3.org/2000/svg" viewBox="0 0 16 16"><path fill="#600" d="M7.727.01a4 4 0 0 0-3.726 3.989v1.6a2.4 2.4 0 0 0-2.4 2.4v5.599a2.4 2.4 0 0 0 2.4 2.4h3.071a1.7 1.7 0 0 1-.312-.229c-.349-.32-.56-.83-.545-1.37H4a.8.8 0 0 1-.8-.801v-5.6a.8.8 0 0 1 .8-.8h1.908c.112-.703.42-1.222.83-1.518q.062-.045.125-.082H5.599v-1.6a2.4 2.4 0 0 1 2.236-2.394 2.4 2.4 0 0 1 2.564 2.394v1.6H9.135q.062.037.125.082c.41.295.717.814.83 1.518h1.908a.8.8 0 0 1 .8.8v5.6a.8.8 0 0 1-.8.8H9.783c.014.541-.196 1.051-.545 1.371q-.148.135-.313.229h3.072a2.4 2.4 0 0 0 2.4-2.4v-5.6a2.4 2.4 0 0 0-2.4-2.4v-1.6A4 4 0 0 0 7.725.01z"/><path fill="red" fill-rule="evenodd" d="M8 6.07c-.347 0-1.389.011-1.389 1.737 0 1.389.694 5.21 1.389 5.21s1.389-3.821 1.389-5.21C9.389 6.081 8.347 6.07 8 6.07m-.071 7.297a1.04 1.04 0 0 0-.97 1.039 1.042 1.042 0 1 0 2.082 0 1.04 1.04 0 0 0-1.112-1.039" style="isolation:isolate" transform="translate(.001)scale(.9999)"/></svg>