<svg version="1.1" viewBox="0 0 16 16" xmlns="http://www.w3.org/2000/svg">
 <defs>
  <linearGradient id="a" x2="0" y2="1">
   <stop stop-color="#00f0ff" offset="0"/>
   <stop stop-color="#00c3ff" offset="1"/>
  </linearGradient>
 </defs>
 <path transform="translate(0) scale(1) translate(0) scale(1) translate(0) scale(1) translate(.000359 -2e-4) scale(1) translate(1.262 1.263) scale(.8424)" d="m8.031 1.289c-1.029-4.219e-4 -2.019 0.4091-2.748 1.135a1.5 1.5 0 0 0-0.00195 0.00195l-5.537 5.537c-0.8102 0.7514-1.261 1.815-1.242 2.92 0.03618 2.08 1.742 3.786 3.822 3.822 1.103 0.0176 2.166-0.4332 2.916-1.242l2.791-2.789 2.834 2.83c1.505 1.497 3.983 1.497 5.488 0a1.5 1.5 0 0 0 2e-3 -0.0039c0.7284-0.7294 1.139-1.719 1.139-2.75-7.86e-4 -1.029-0.4114-2.018-1.139-2.746l-5.578-5.578a1.5 1.5 0 0 0-2e-3 -0.00195c-0.7291-0.7257-1.715-1.135-2.744-1.135zm0 1.5a2.391 2.391 0 0 1 1.688 0.6973l5.576 5.576a2.391 2.391 0 0 1 0.6992 1.688 2.391 2.391 0 0 1-0.6992 1.691 2.391 2.391 0 0 1-3.371 0l-3.893-3.889-3.891 3.889a2.391 2.391 0 0 1-1.791 0.7637 2.391 2.391 0 0 1-2.35-2.348 2.391 2.391 0 0 1 0.7656-1.795l5.578-5.578a2.391 2.391 0 0 1 1.688-0.6953z" fill="#1e1e1e" stop-color="#000000" stroke-linecap="round" stroke-linejoin="round" style="paint-order:stroke fill markers"/>
 <path transform="translate(0) scale(1) translate(0) scale(1) translate(0) scale(1) translate(.000359 -2e-4) scale(1) translate(1.262 1.263) scale(.8424)" d="m8.031 2.789a2.391 2.391 0 0 0-1.688 0.6953l-5.578 5.578a2.391 2.391 0 0 0-0.7656 1.795 2.391 2.391 0 0 0 2.35 2.348 2.391 2.391 0 0 0 1.791-0.7637l3.891-3.889 3.893 3.889a2.391 2.391 0 0 0 3.371 0 2.391 2.391 0 0 0 0.6992-1.691 2.391 2.391 0 0 0-0.6992-1.688l-5.576-5.576a2.391 2.391 0 0 0-1.688-0.6973z" fill="url(#a)" stop-color="#000000" stroke-linecap="round" stroke-linejoin="round" style="paint-order:stroke fill markers"/>
</svg>
