<svg xmlns="http://www.w3.org/2000/svg" viewBox="0 0 16 16"><defs><linearGradient id="a" x1="1" x2="0" y1="1"><stop offset="0" stop-color="#ff4000"/><stop offset=".905" stop-color="#ffa200"/></linearGradient></defs><g fill="url(#a)" stroke-width=".831" transform="scale(.9999)"><path d="M8.375 3.875c-.665 0-1.205.538-1.205 1.203v2.58L5.287 8.912a1.206 1.206 0 0 0 1.336 2.008l2.42-1.615c.335-.223.54-.6.54-1.002V5.078c0-.665-.543-1.203-1.208-1.203"/><path d="M8 0a1 1 0 0 0 0 2 6.004 6.004 0 0 1 5.885 7.17 6.004 6.004 0 0 1-4.715 4.715 5.99 5.99 0 0 1-6.158-2.553A6 6 0 0 1 2 8a1 1 0 0 0-2 0 8 8 0 1 0 13.654-5.654A8 8 0 0 0 8 0zM4.432 1.266a1 1 0 0 0-.77.441 1.003 1.003 0 0 0 .832 1.557c.198 0 .39-.06.555-.17a.998.998 0 0 0-.617-1.828M1.879 3.834a1.009 1.009 0 0 0-.77.443 1.004 1.004 0 0 0 .125 1.264 1 1 0 0 0 .707.291 1 1 0 0 0 .557-.166 1 1 0 0 0 .15-1.539 1 1 0 0 0-.77-.293"/></g></svg>