<svg version="1.1" viewBox="0 0 16 16" xmlns="http://www.w3.org/2000/svg">
 <defs>
  <linearGradient id="a" y1="1">
   <stop stop-color="#5433ff" offset="0"/>
   <stop stop-color="#20bdff" offset=".5"/>
   <stop stop-color="#a5fecb" offset="1"/>
  </linearGradient>
 </defs>
 <style transform="translate(-0) scale(1) translate(-0) scale(1) translate(-0) scale(1) translate(.000314 -.000757) scale(1) translate(1.262 1.26) scale(.8425) translate(-3.309 -1.668) scale(1.103)">.ColorScheme-Accent {
            color:#3daee9;
        }
        .ColorScheme-Text {
            color:#232629;
        }</style>
 <path transform="translate(-0) scale(1) translate(-0) scale(1) translate(-0) scale(1) translate(.000314 -.000757) scale(1) translate(1.262 1.26) scale(.8425)" d="m5.523-0.9629a1.5 1.5 0 0 0-0.07812 0.04297c-0.7718 0.0222-1.521 0.2906-2.082 0.8242-0.6073 0.5716-0.9568 1.371-0.957 2.205v0.832h-0.7871c-1.706-0.02271-3.129 1.396-3.117 3.102 0.00186 0.8025 0.3228 1.587 0.8672 2.162 0.5708 0.6084 1.367 0.9575 2.201 0.959a1.5 1.5 0 0 0 0.001953 0h0.834v0.8047c0 0.675 0.2259 1.347 0.6367 1.889-0.4256 0.5379-0.6816 1.216-0.6816 1.949 0 1.731 1.423 3.156 3.154 3.156 0.8556 0 1.635-0.3489 2.205-0.9102 0.5705 0.5612 1.351 0.9102 2.207 0.9102 0.8556 0 1.635-0.3489 2.205-0.9102 0.5705 0.5612 1.351 0.9102 2.207 0.9102 1.731 0 3.152-1.425 3.152-3.156s-1.421-3.154-3.152-3.154c-0.8556 0-1.636 0.3474-2.207 0.9082-0.5701-0.5608-1.35-0.9082-2.205-0.9082-0.5327 0-1.037 0.134-1.479 0.3711 0.1184-0.3259 0.1815-0.6719 0.1816-1.025v-0.832h0.793c0.8214 0.0069 1.613-0.3152 2.197-0.8926a1.5 1.5 0 0 0 0-0.001953c0.6027-0.5968 0.9102-1.419 0.9102-2.225 0-0.7939-0.3222-1.575-0.8633-2.146-0.5726-0.6085-1.371-0.9547-2.207-0.9551a1.5 1.5 0 0 0-0.001953 0h-0.8262v-0.8105c0-0.8075-0.3229-1.61-0.8965-2.189-0.5795-0.5838-1.373-0.905-2.195-0.9023h-0.005859v-0.001953h-0.001953l-0.001953-0.001953h-0.001953l-0.001953-0.001953h-0.003906zm0.01367 1.5a1.575 1.575 0 0 1 1.133 0.4648c0.2988 0.3017 0.4609 0.7011 0.4609 1.133v2.311h2.33a1.534 1.534 0 0 1 1.117 0.4844c0.2943 0.3092 0.4531 0.6985 0.4531 1.115 0 0.4476-0.1595 0.8598-0.4648 1.162a1.589 1.589 0 0 1-1.131 0.459h-2.307v2.33a1.534 1.534 0 0 1-0.3184 0.9375c-0.3956-0.1803-0.8347-0.2812-1.295-0.2812-0.46 0-0.8993 0.1011-1.295 0.2812-0.2058-0.2752-0.3145-0.6093-0.3145-0.9648v-2.305h-2.332a1.529 1.529 0 0 1-1.115-0.4844c-0.2964-0.311-0.459-0.7114-0.459-1.145a1.579 1.579 0 0 1 1.602-1.594h2.305v-2.332a1.529 1.529 0 0 1 0.4844-1.117 1.639 1.639 0 0 1 1.146-0.4551zm4.391 11.62c0.5788 0 1.093 0.304 1.389 0.7598-0.08497 0.284-0.1309 0.5844-0.1309 0.8945s0.04591 0.6105 0.1309 0.8945c-0.296 0.4558-0.8099 0.7598-1.389 0.7598-0.5796-1e-6 -1.095-0.3049-1.391-0.7617 0.08449-0.2835 0.1309-0.5832 0.1309-0.8926 0-0.3095-0.04635-0.6092-0.1309-0.8926 0.2958-0.4568 0.811-0.7617 1.391-0.7617zm4.412 0c0.9072 0 1.654 0.7471 1.654 1.654 0 0.9072-0.7471 1.654-1.654 1.654-0.579-1e-6 -1.094-0.3038-1.391-0.7598 0.08476-0.2839 0.1309-0.5846 0.1309-0.8945 0-0.31-0.04607-0.6107-0.1309-0.8945 0.2965-0.456 0.8116-0.7598 1.391-0.7598zm-7.527 0.6309c0.03274 0.04129 0.06303 0.08461 0.0918 0.1289-0.08497 0.284-0.1309 0.5844-0.1309 0.8945s0.04591 0.6105 0.1309 0.8945c-0.296 0.4558-0.8099 0.7598-1.389 0.7598-0.9072-1e-6 -1.654-0.7471-1.654-1.654 0-0.3827 0.1336-0.7379 0.3555-1.02 0.415 0.1862 0.8651 0.2812 1.311 0.2812 0.4427 0 0.8833-0.1013 1.285-0.2852z" fill="#1e1e1e" stop-color="#000000" stroke-linecap="round" stroke-linejoin="round" style="paint-order:stroke fill markers"/>
 <path transform="translate(-0) scale(1) translate(-0) scale(1) translate(-0) scale(1) translate(.000314 -.000757) scale(1) translate(1.262 1.26) scale(.8425)" d="m14.34 12.15c-0.9072 0-1.656 0.7471-1.656 1.654 0 0.9072 0.749 1.654 1.656 1.654 0.9072 0 1.654-0.7471 1.654-1.654 0-0.9072-0.7471-1.654-1.654-1.654z" fill="url(#a)" stop-color="#000000" stroke-linecap="round" stroke-linejoin="round" style="paint-order:stroke fill markers"/>
 <path transform="translate(-0) scale(1) translate(-0) scale(1) translate(-0) scale(1) translate(.000314 -.000757) scale(1) translate(1.262 1.26) scale(.8425)" d="m5.516 12.15c-0.9072 0-1.654 0.7471-1.654 1.654 0 0.9072 0.7471 1.654 1.654 1.654 0.9072 0 1.654-0.7471 1.654-1.654 0-0.9072-0.7471-1.654-1.654-1.654z" fill="url(#a)" stop-color="#000000" stroke-linecap="round" stroke-linejoin="round" style="paint-order:stroke fill markers"/>
 <path transform="translate(-0) scale(1) translate(-0) scale(1) translate(-0) scale(1) translate(.000314 -.000757) scale(1) translate(1.262 1.26) scale(.8425)" d="m9.928 12.15c-0.9072 0-1.654 0.7471-1.654 1.654 0 0.9072 0.7471 1.654 1.654 1.654 0.9072 0 1.654-0.7471 1.654-1.654 0-0.9072-0.7471-1.654-1.654-1.654z" fill="url(#a)" stop-color="#000000" stroke-linecap="round" stroke-linejoin="round" style="paint-order:stroke fill markers"/>
 <path transform="translate(-0) scale(1) translate(-0) scale(1) translate(-0) scale(1) translate(.000314 -.000757) scale(1) translate(1.262 1.26) scale(.8425)" d="m5.537 0.5371a1.639 1.639 0 0 0-1.146 0.4551 1.529 1.529 0 0 0-0.4844 1.117v2.332h-2.305a1.579 1.579 0 0 0-1.602 1.594c0 0.4331 0.1626 0.8335 0.459 1.145a1.529 1.529 0 0 0 1.115 0.4844h2.332v2.305c0 0.4317 0.1616 0.8311 0.4609 1.133 0.3023 0.3053 0.7145 0.4648 1.162 0.4648 0.4167 0 0.8065-0.1562 1.115-0.4512a1.534 1.534 0 0 0 0.4844-1.119v-2.33h2.307a1.589 1.589 0 0 0 1.131-0.459c0.3053-0.3023 0.4648-0.7145 0.4648-1.162 0-0.4167-0.1588-0.8061-0.4531-1.115a1.534 1.534 0 0 0-1.117-0.4844h-2.33v-2.311c0-0.4317-0.1621-0.8311-0.4609-1.133a1.575 1.575 0 0 0-1.133-0.4648z" fill="url(#a)" stop-color="#000000" stroke-linecap="round" stroke-linejoin="round" style="paint-order:stroke fill markers"/>
</svg>
