<svg xmlns="http://www.w3.org/2000/svg" viewBox="0 0 16 16"><defs><linearGradient id="a" x1="27.51" x2="45.32" y1="57.14" y2="27.28" gradientTransform="matrix(.419 0 0 .4019 -7.386 -7.476)" gradientUnits="userSpaceOnUse"><stop offset="0" stop-color="#a93aff"/><stop offset="1" stop-color="#ff81ff"/></linearGradient></defs><path fill="url(#a)" d="M8.618.348a6.77 6.77 0 0 0-6.129 6.129c-.03.338-.027.89-.027 1.23v3.847a.275.275 0 0 1-.459.205L.458 10.374a.275.275 0 0 0-.458.205v1.436a1.37 1.37 0 0 0 .46 1.024l2.773 2.465a.67.67 0 0 0 .907-.014l2.8-2.643a1.43 1.43 0 0 0 .446-1.038v-1.23a.278.278 0 0 0-.461-.209l-1.54 1.357a.278.278 0 0 1-.46-.208V7.706c0-.34-.006-.893.042-1.23A4.31 4.31 0 0 1 8.62 2.826c.337-.048.89-.048 1.226 0a4.31 4.31 0 0 1 3.652 3.652c.048.336.048.89 0 1.226a4.31 4.31 0 0 1-3.45 3.619c-.333.064-.61.347-.61.687v1.233c0 .34.276.61.614.57a6.775 6.775 0 0 0 5.925-6.107 8 8 0 0 0 0-1.23A6.77 6.77 0 0 0 9.846.346a8 8 0 0 0-1.23 0z" transform="scale(.9999)"/></svg>