<svg xmlns="http://www.w3.org/2000/svg" viewBox="0 0 16 16"><defs><linearGradient id="a" x2="0" y2="1"><stop offset="0" stop-color="#ffc100"/><stop offset="1" stop-color="#ff0069"/></linearGradient></defs><g fill="url(#a)" stroke-width=".727" transform="scale(.9999)"><path d="M1.532 6.267a1.46 1.46 0 0 0-1.182.506 1.455 1.455 0 0 0 .158 2.05l6.546 5.612a1.455 1.455 0 0 0 1.892 0l6.546-5.611a1.455 1.455 0 0 0 .157-2.051 1.455 1.455 0 0 0-2.05-.158l-5.6 4.8-5.6-4.8a1.46 1.46 0 0 0-.868-.348z"/><path d="M1.532 1.218a2 2 0 0 0-.19.001 1.46 1.46 0 0 0-.992.505 1.455 1.455 0 0 0 .158 2.05l6.546 5.61a1.455 1.455 0 0 0 1.892 0l6.546-5.61a1.455 1.455 0 0 0 .157-2.05 1.455 1.455 0 0 0-2.05-.158L8 6.365 2.4 1.566a1.46 1.46 0 0 0-.868-.348z"/></g></svg>