<svg version="1.1" viewBox="0 0 16 16" xmlns="http://www.w3.org/2000/svg">
 <defs>
  <linearGradient id="a" x1="1" x2="0" y1="1">
   <stop stop-color="#b5007f" offset="0"/>
   <stop stop-color="#ff014a" offset=".5"/>
   <stop stop-color="#fbd425" offset="1"/>
  </linearGradient>
 </defs>
 <path transform="translate(0) scale(1) translate(0) scale(1) translate(0) scale(1) translate(.000316 .000316) scale(1) translate(1.261 1.261) scale(.842)" d="m8.004-1.498c-5.245 0-9.502 4.257-9.502 9.502s4.257 9.5 9.502 9.5 9.5-4.255 9.5-9.5-4.255-9.502-9.5-9.502zm0 1.5c4.445 0 8 3.557 8 8.002s-3.555 8-8 8-8.002-3.555-8.002-8 3.557-8.002 8.002-8.002zm0 2.668c-0.9956 1.43e-5 -1.921 0.266-2.668 0.7461l7.254 7.254c0.48-0.7468 0.748-1.67 0.748-2.666-1.08e-4 -2.951-2.383-5.334-5.334-5.334zm-4.588 2.666c-0.48 0.7468-0.7461 1.67-0.7461 2.666 1.036e-4 2.951 2.383 5.334 5.334 5.334 0.9956-1.5e-5 1.919-0.266 2.666-0.7461l-7.254-7.254z" fill="#1e1e1e"/>
 <path transform="translate(0) scale(1) translate(0) scale(1) translate(0) scale(1) translate(.000316 .000316) scale(1) translate(1.261 1.261) scale(.842)" d="m8.004 0.001953c-4.445 0-8.002 3.557-8.002 8.002s3.557 8 8.002 8 8-3.555 8-8-3.555-8.002-8-8.002zm0 2.668c2.951 0 5.334 2.383 5.334 5.334 0 0.9957-0.268 1.919-0.748 2.666l-7.254-7.254c0.7468-0.4801 1.672-0.7461 2.668-0.7461zm-4.588 2.666 7.254 7.254c-0.7468 0.4801-1.67 0.7461-2.666 0.7461-2.951 0-5.334-2.383-5.334-5.334 0-0.9957 0.266-1.919 0.7461-2.666z" fill="url(#a)" stop-color="#000000" stroke-linecap="round" stroke-linejoin="round" style="paint-order:stroke fill markers"/>
</svg>
