<svg fill="none" version="1.1" viewBox="0 0 16 16" xmlns="http://www.w3.org/2000/svg">
 <defs>
  <linearGradient id="a" x1="11" x2="11" y1="20.39" y2="1" gradientUnits="userSpaceOnUse">
   <stop stop-color="#ffa800" offset="0"/>
   <stop stop-color="#fff737" offset="1"/>
  </linearGradient>
 </defs>
 <path transform="translate(-0) scale(1) translate(2e-5 1.9e-5) scale(1) translate(.002645 .001406) scale(.9998) translate(-.8 -.558) scale(.7999)" d="M4.941 19.81c.513.376 1.132.58 1.768.584a3.02 3.02 0 0 0 1.791-.599l2.078-1.528a.71.71 0 0 1 .846 0l2.078 1.528a3.023 3.023 0 0 0 4.667-3.363l-.816-2.526a.71.71 0 0 1 .258-.796l2.15-1.572a3.021 3.021 0 0 0-1.783-5.462h-2.622c-.31 0-.585-.2-.68-.496l-.799-2.48a3.025 3.025 0 0 0-4.659-1.518A3.02 3.02 0 0 0 8.121 3.1l-.795 2.48a.71.71 0 0 1-.68.496H4.024a3.02 3.02 0 0 0-1.784 5.462l2.15 1.572a.71.71 0 0 1 .259.796l-.817 2.525a2.98 2.98 0 0 0 1.11 3.38z" fill="url(#a)"/>
</svg>
