<svg version="1.1" viewBox="0 0 16 16" xmlns="http://www.w3.org/2000/svg">
 <defs>
  <linearGradient id="a" y1="1">
   <stop stop-color="#5433ff" offset="0"/>
   <stop stop-color="#20bdff" offset=".5"/>
   <stop stop-color="#a5fecb" offset="1"/>
  </linearGradient>
 </defs>
 <path transform="translate(0) scale(1) translate(0) scale(1) translate(0) scale(1) translate(-.00079 .000384) scale(1) translate(1.262 1.263) scale(.8422)" d="m7.998-1.5c-3.067 0-5.59 2.522-5.59 5.59v0.4707c-1.138 0.7355-2.081 1.781-2.275 3.23-0.1099 0.8163-0.2109 1.72-0.2109 2.695 0 0.9756 0.1011 1.878 0.2109 2.695 0.3111 2.311 2.234 4.132 4.6 4.242a1.5 1.5 0 0 0 0.00195 0c1.042 0.04789 2.104 0.07422 3.266 0.07422s2.222-0.02633 3.264-0.07422c2.367-0.1088 4.289-1.93 4.602-4.24a1.5 1.5 0 0 0 0-2e-3c0.1095-0.8136 0.2129-1.716 0.2129-2.695 0-0.9795-0.1033-1.884-0.2129-2.697-0.1951-1.449-1.137-2.495-2.275-3.23v-0.4688c9e-6 -3.067-2.522-5.59-5.59-5.59zm0 1.5h0.001953c2.25 0 4.09 1.84 4.09 4.09v1.207c1.188 0.4123 2.116 1.408 2.289 2.693 0.1063 0.7891 0.1992 1.623 0.1992 2.496 0 0.8731-0.09288 1.706-0.1992 2.496-0.2173 1.606-1.55 2.868-3.184 2.943-1.02 0.04689-2.056 0.07227-3.195 0.07227s-2.177-0.02538-3.197-0.07227c-1.634-0.0764-2.968-1.338-3.184-2.943-0.1063-0.791-0.1973-1.625-0.1973-2.496 0-0.8712 0.09093-1.706 0.1973-2.496 0.1729-1.285 1.101-2.281 2.289-2.693v-1.207c0-2.25 1.84-4.09 4.09-4.09zm0 1.783c-1.206 3.87e-5 -2.178 0.8962-2.295 2.068-0.00778 0.07814-0.01172 0.1579-0.01172 0.2383v0.9277c0.7425-0.02425 1.491-0.04102 2.307-0.04102 0.8156 0 1.564 0.01676 2.307 0.04102v-0.9277c-7.1e-5 -1.287-1.02-2.307-2.307-2.307zm0 4.975c-1.114 9e-7 -2.122 0.02464-3.115 0.07031-0.7573 0.03462-1.393 0.6314-1.496 1.4-0.1022 0.7592-0.1836 1.513-0.1836 2.258 0 0.7447 0.08138 1.499 0.1836 2.258 0.1041 0.7692 0.7388 1.368 1.496 1.402 0.9934 0.04565 2.001 0.07031 3.115 0.07031s2.124-0.02466 3.117-0.07031c0.7573-0.03464 1.393-0.6333 1.496-1.402 0.1022-0.7592 0.1836-1.513 0.1836-2.258-3e-6 -0.7446-0.08143-1.499-0.1836-2.258-0.1041-0.7692-0.7388-1.366-1.496-1.4-0.9939-0.04566-2.003-0.07031-3.117-0.07031z" fill="#1e1e1e"/>
 <path transform="translate(0) scale(1) translate(0) scale(1) translate(0) scale(1) translate(-.00079 .000384) scale(1) translate(1.262 1.263) scale(.8422)" d="m7.998 0c-2.249 0-4.09 1.84-4.09 4.09v1.207c-1.188 0.4126-2.116 1.408-2.289 2.693-0.1063 0.7898-0.1973 1.625-0.1973 2.496 0 0.8712 0.09093 1.705 0.1973 2.496 0.2161 1.605 1.549 2.867 3.184 2.943 1.02 0.04689 2.058 0.07227 3.197 0.07227s2.175-0.02538 3.195-0.07227c1.634-0.07511 2.966-1.337 3.184-2.943 0.1063-0.7898 0.1992-1.623 0.1992-2.496 0-0.8731-0.09288-1.707-0.1992-2.496-0.1731-1.286-1.101-2.281-2.289-2.693v-1.207c0-2.249-1.84-4.09-4.09-4.09zm0 1.783c1.287 0 2.307 1.02 2.307 2.307v0.9277c-0.7423-0.02426-1.491-0.04102-2.307-0.04102-0.8153 0-1.564 0.01676-2.307 0.04102v-0.9277c0-1.287 1.02-2.307 2.307-2.307zm0 4.975c1.114 0 2.123 0.02465 3.117 0.07031 0.7573 0.03481 1.392 0.6311 1.496 1.4 0.1022 0.7592 0.1836 1.513 0.1836 2.258 0 0.7447-0.08143 1.499-0.1836 2.258-0.1036 0.769-0.7388 1.368-1.496 1.402-0.9932 0.04565-2.003 0.07031-3.117 0.07031s-2.122-0.02466-3.115-0.07031c-0.7573-0.03481-1.392-0.6331-1.496-1.402-0.1022-0.7592-0.1836-1.513-0.1836-2.258 0-0.7447 0.08136-1.499 0.1836-2.258 0.1036-0.769 0.7388-1.366 1.496-1.4 0.9932-0.04567 2.001-0.07031 3.115-0.07031z" fill="url(#a)" stop-color="#000000" stroke-linecap="round" stroke-linejoin="round" style="paint-order:stroke fill markers"/>
 <path transform="translate(0) scale(1) translate(0) scale(1) translate(0) scale(1) translate(-.00079 .000384) scale(1) translate(1.262 1.263) scale(.8422) matrix(.25 0 0 .25 .001125 -8.749e-5)" d="m31.99 33.95a4.768 4.768 0 0 0-3.2 8.349v4.451a3.2 3.2 0 0 0 6.4 0v-4.451a4.768 4.768 0 0 0-3.2-8.349z" fill="url(#a)" stroke-width="3.2"/>
</svg>
