<svg version="1.1" viewBox="0 0 16 16" xmlns="http://www.w3.org/2000/svg">
 <defs>
  <linearGradient id="a" x1="-.9877" x2="-.9877" y1="16.89" y2="-.7601" gradientTransform="matrix(-.9063 0 0 .8915 15.1 .8085)" gradientUnits="userSpaceOnUse">
   <stop stop-color="#ffa800" offset="0"/>
   <stop stop-color="#fff737" offset="1"/>
  </linearGradient>
 </defs>
 <path transform="translate(-7e-5 -.000119) scale(1)" d="m7.919 0.1308c0.0405 1.683e-4 0.07946 2.424e-4 0.1177 0.001756 0.6053 0.02401 1.194 0.2268 1.687 0.5864a0.8989 0.8989 0 0 1 0.00175 0c0.5253 0.3828 0.916 0.9223 1.115 1.542a0.8989 0.8989 0 0 1 0 0.00175l0.4846 1.516h1.597c1.437-0.00526 2.551 0.96 2.929 2.116 0.3774 1.155 0.04992 2.591-1.111 3.436h-0.0018v0.00175l-1.319 0.9636 0.4986 1.542v0.0036c0.4218 1.267-0.03964 2.668-1.129 3.439-0.5203 0.3783-1.144 0.5859-1.785 0.5899a0.8989 0.8989 0 0 1-0.01053 0c-0.6562-0.0037-1.295-0.2183-1.82-0.611l-1.402-1.03h-0.00175a0.8989 0.8989 0 0 1-0.01404-0.0018l-0.7286 0.5373a0.7191 0.7191 0 0 1-1.006-0.1528 0.7191 0.7191 0 0 1 0.1527-1.006l0.8444-0.6215v-10.92l-0.02634 0.02107-0.04038 0.03511-0.04038 0.03687-0.03863 0.03863-0.03687 0.03863-0.07023 0.08427-0.03336 0.04389-0.02984 0.04565-0.02984 0.0474-0.02809 0.0474-0.02458 0.04916-0.02458 0.05091-0.02282 0.05091-0.00351 0.00878a0.7191 0.7191 0 0 1-0.9304 0.4108 0.7191 0.7191 0 0 1-0.4108-0.9304l0.00881-0.02282a0.7192 0.7192 0 0 1 0.01054-0.02458l0.03336-0.07725a0.7192 0.7192 0 0 1 0.01229-0.02458l0.03511-0.07549a0.7192 0.7192 0 0 1 0.01229-0.02458l0.03863-0.07374a0.7192 0.7192 0 0 1 0.01401-0.02458l0.04038-0.07198a0.7192 0.7192 0 0 1 0.01405-0.02282l0.04389-0.07022a0.7192 0.7192 0 0 1 0.0158-0.02282l0.04565-0.06672a0.7192 0.7192 0 0 1 0.0158-0.02282l0.04916-0.06496a0.7192 0.7192 0 0 1 0.01755-0.02282l0.05091-0.0632a0.7192 0.7192 0 0 1 0.01756-0.02107l0.05267-0.06145a0.7192 0.7192 0 0 1 0.01756-0.02107l0.05618-0.0597a0.7192 0.7192 0 0 1 0.01932-0.01931l0.05618-0.05618a0.7192 0.7192 0 0 1 0.01931-0.01931l0.0597-0.05443a0.7192 0.7192 0 0 1 0.02107-0.01756l0.06145-0.05443a0.7192 0.7192 0 0 1 0.02107-0.0158l0.0632-0.05091a0.7192 0.7192 0 0 1 0.02107-0.0158l0.06672-0.04916a0.7192 0.7192 0 0 1 0.02107-0.0158l0.06672-0.04565a0.7192 0.7192 0 0 1 0.02282-0.01404l0.06847-0.04389a0.7192 0.7192 0 0 1 0.02458-0.01229l0.07022-0.04038a0.7192 0.7192 0 0 1 0.02282-0.01404l0.07198-0.03687a0.7192 0.7192 0 0 1 0.02458-0.01229l0.00175-0.001756a0.7191 0.7191 0 0 1 0.2721-0.07022 0.7191 0.7191 0 0 1 0.09304 0.001756 0.7191 0.7191 0 0 1 0.1457 0.02809 0.8989 0.8989 0 0 1 0.776-0.4389zm-2.477 3.053a0.7191 0.7191 0 0 1 0.1861 0.03336 0.7191 0.7191 0 0 1 0.4635 0.9061l-0.1334 0.4161a0.7192 0.7192 0 0 1-0.00881 0.02634l-0.01405 0.03863a0.7192 0.7192 0 0 1-0.02282 0.05443l-0.01756 0.03687a0.7192 0.7192 0 0 1-0.02634 0.05091l-0.01931 0.03511a0.7192 0.7192 0 0 1-0.02984 0.04916l-0.02282 0.03336a0.7192 0.7192 0 0 1-0.03336 0.04565l-0.02458 0.0316a0.7192 0.7192 0 0 1-0.03687 0.04389l-0.02809 0.02809a0.7192 0.7192 0 0 1-0.03863 0.04038l-0.02984 0.02634a0.7192 0.7192 0 0 1-0.04213 0.03687l-0.0316 0.02458a0.7192 0.7192 0 0 1-0.04565 0.0316l-0.03336 0.02282a0.7192 0.7192 0 0 1-0.04741 0.02984l-0.03336 0.01931a0.7192 0.7192 0 0 1-0.05091 0.02458l-0.03511 0.01756a0.7192 0.7192 0 0 1-0.05267 0.02107l-0.03687 0.01404a0.7192 0.7192 0 0 1-0.05443 0.01756l-0.03863 0.01229a0.7192 0.7192 0 0 1-0.05443 0.01229l-0.04038 0.00878a0.7192 0.7192 0 0 1-0.05618 0.00878l-0.04038 0.00527a0.7192 0.7192 0 0 1-0.05793 0.00351l-0.04213 0.00175a0.7192 0.7192 0 0 1-0.02809 0.00175h-0.4986a0.7191 0.7191 0 0 1-0.718-0.7198 0.7191 0.7191 0 0 1 0.718-0.7198h0.3511l0.08602-0.2721a0.7191 0.7191 0 0 1 0.7198-0.4986zm-2.715 0.7795a0.7191 0.7191 0 0 1 0.6917 0.6478 0.7191 0.7191 0 0 1-0.6443 0.7865l-0.07725 0.00702-0.06145 0.00878-0.06145 0.01229-0.0597 0.01404-0.05618 0.01404-0.05618 0.01756-0.05443 0.02107-0.05267 0.02107-0.05091 0.02282-0.09834 0.05267-0.04565 0.02984-0.04565 0.0316-0.04389 0.0316-0.04213 0.03336-0.04213 0.03687-0.03863 0.03687-0.03863 0.03863-0.00701 0.00702a0.7191 0.7191 0 0 1-1.015 0.04916 0.7191 0.7191 0 0 1-0.04916-1.017l0.0158-0.01756a0.7192 0.7192 0 0 1 0.01931-0.01931l0.05793-0.0597a0.7192 0.7192 0 0 1 0.01931-0.01931l0.06145-0.05618a0.7192 0.7192 0 0 1 0.01932-0.01931l0.0632-0.05443a0.7192 0.7192 0 0 1 0.02107-0.01756l0.06496-0.05267a0.7192 0.7192 0 0 1 0.02282-0.01756l0.06847-0.04916a0.7192 0.7192 0 0 1 0.02282-0.01756l0.06847-0.04565a0.7192 0.7192 0 0 1 0.02458-0.01756l0.07198-0.04389a0.7192 0.7192 0 0 1 0.02634-0.01404l0.07374-0.04214a0.7192 0.7192 0 0 1 0.02458-0.01404l0.07725-0.03863a0.7192 0.7192 0 0 1 0.02634-0.01404l0.07724-0.03511a0.7192 0.7192 0 0 1 0.02809-0.01229l0.08076-0.03336a0.7192 0.7192 0 0 1 0.02809-0.01054l0.08252-0.02984a0.7192 0.7192 0 0 1 0.02809-0.01054l0.08427-0.02634a0.7192 0.7192 0 0 1 0.02809-0.00878l0.08602-0.02282a0.7192 0.7192 0 0 1 0.02984-0.00702l0.08779-0.02107a0.7192 0.7192 0 0 1 0.02984-0.00527l0.08954-0.01756a0.7192 0.7192 0 0 1 0.02984-0.00527l0.09304-0.01229a0.7192 0.7192 0 0 1 0.02809-0.00351l0.09304-0.00877a0.7191 0.7191 0 0 1 0.09483-0.003522zm-1.975 2.103a0.7191 0.7191 0 0 1 0.6865 0.7497v0.07022l0.0018 0.05618 0.00351 0.05443 0.0053 0.05443 0.00881 0.05267 0.00881 0.05443 0.01229 0.05267 0.01405 0.05267 0.01756 0.05267 0.01756 0.05091 0.02107 0.05091 0.02282 0.05091 0.02458 0.04916 0.05618 0.09834 0.06672 0.09483 0.03687 0.04565 0.01229 0.01404a0.7191 0.7191 0 0 1-0.07037 1.015 0.7191 0.7191 0 0 1-1.015-0.07022l-0.02282-0.02634a0.7192 0.7192 0 0 1-0.01756-0.02282l-0.05618-0.07022a0.7192 0.7192 0 0 1-0.01931-0.02282l-0.05091-0.07198a0.7192 0.7192 0 0 1-0.01756-0.02458l-0.04916-0.07198a0.7192 0.7192 0 0 1-0.0158-0.02634l-0.04565-0.07374a0.7192 0.7192 0 0 1-0.0158-0.02458l-0.04038-0.07549a0.7192 0.7192 0 0 1-0.01405-0.02634l-0.03863-0.07725a0.7192 0.7192 0 0 1-0.01229-0.02634l-0.03511-0.07725a0.7192 0.7192 0 0 1-0.01229-0.02634l-0.03161-0.079a0.7192 0.7192 0 0 1-0.01054-0.02634l-0.02809-0.079a0.7192 0.7192 0 0 1-0.008809-0.02809l-0.02458-0.079a0.7192 0.7192 0 0 1-0.008809-0.02809l-0.02107-0.08076a0.7192 0.7192 0 0 1-0.007011-0.02809l-0.01756-0.08076a0.7192 0.7192 0 0 1-0.007011-0.02634l-0.01405-0.08252a0.7192 0.7192 0 0 1-0.005304-0.02634l-0.01229-0.08252a0.7192 0.7192 0 0 1-0.003506-0.02634l-0.007011-0.08252a0.7192 0.7192 0 0 1-0.003506-0.02634l-0.005304-0.08252a0.7192 0.7192 0 0 1-0.001798-0.02634l-0.001798-0.08252a0.7192 0.7192 0 0 1 0-0.02634v-0.08252a0.7192 0.7192 0 0 1 0-0.02634l0.001798-0.02984a0.7191 0.7191 0 0 1 0.7498-0.6865zm1.715 2.437a0.7191 0.7191 0 0 1 0.6425 0.4003c0.102 0.04022 0.3535 0.1001 0.625 0.3739a0.7192 0.7192 0 0 1 0.01932 0.01931l0.02634 0.02984a0.7192 0.7192 0 0 1 0.03686 0.04214l0.02634 0.0316a0.7192 0.7192 0 0 1 0.0316 0.0474l0.02282 0.0316a0.7192 0.7192 0 0 1 0.02984 0.04916l0.01932 0.03511a0.7192 0.7192 0 0 1 0.02458 0.04916l0.01756 0.03687a0.7192 0.7192 0 0 1 0.02107 0.05091l0.01405 0.03687a0.7192 0.7192 0 0 1 0.0158 0.05267l0.01054 0.03863a0.7192 0.7192 0 0 1 0.01405 0.05443l0.00701 0.03863a0.7192 0.7192 0 0 1 0.00881 0.05443l0.0053 0.04038a0.7192 0.7192 0 0 1 0.0053 0.05618l0.0018 0.04038a0.7192 0.7192 0 0 1 0 0.05618l-0.0018 0.04038a0.7192 0.7192 0 0 1-0.0053 0.05618l-0.00351 0.04038a0.7192 0.7192 0 0 1-0.00881 0.05618l-0.00881 0.04038a0.7192 0.7192 0 0 1-0.01229 0.05618l-0.01229 0.04038a0.7192 0.7192 0 0 1-0.00701 0.02458l-0.02282 0.07198a0.7191 0.7191 0 0 1-0.9061 0.4635 0.7191 0.7191 0 0 1-0.3986-0.7532c-0.03171-0.0149-0.09636-0.0499-0.2002-0.09654-0.2078-0.09349-0.6077-0.3517-0.7321-0.7936a0.7191 0.7191 0 0 1 0.4968-0.8866 0.7191 0.7191 0 0 1 0.1967-0.02634zm0.1931 1.691 0.00351 0.01405 0.0053 0.0158 0.00701 0.01405 0.00881 0.0158 0.00881 0.01229 0.01054 0.01405 0.00351 0.0035a0.7191 0.7191 0 0 1-0.0474-0.08954zm0.2159 0.9672a0.7191 0.7191 0 0 1 0.1844 0.03511 0.7191 0.7191 0 0 1 0.4635 0.9043l-0.07549 0.2335-0.02107 0.07198-0.01756 0.06495-0.01229 0.0632-0.01054 0.0632-0.00881 0.06145-0.0053 0.0597-0.0018 0.0597v0.0597l0.0018 0.05618 0.00351 0.05793 0.00701 0.05443 0.01054 0.05618 0.01054 0.05443 0.01405 0.05267 0.0158 0.05618a0.7191 0.7191 0 0 1-0.4863 0.8936 0.7191 0.7191 0 0 1-0.8936-0.4863l-0.01932-0.07023a0.7192 0.7192 0 0 1-0.00881-0.02809l-0.01932-0.08076a0.7192 0.7192 0 0 1-0.00701-0.02984l-0.01756-0.08252a0.7192 0.7192 0 0 1-0.0053-0.02984l-0.01405-0.08427a0.7192 0.7192 0 0 1-0.0053-0.02984l-0.01054-0.08427a0.7192 0.7192 0 0 1-0.0018-0.02984l-0.00701-0.08602a0.7192 0.7192 0 0 1-0.0018-0.02984l-0.00351-0.08779a0.7192 0.7192 0 0 1-0.0018-0.02984v-0.08954a0.7192 0.7192 0 0 1 0.0018-0.02984l0.00351-0.08954a0.7192 0.7192 0 0 1 0.0018-0.02984l0.00701-0.09133a0.7192 0.7192 0 0 1 0.00351-0.02809l0.01229-0.09133a0.7192 0.7192 0 0 1 0.00351-0.02984l0.0158-0.09304a0.7192 0.7192 0 0 1 0.00701-0.02809l0.01956-0.09304a0.7192 0.7192 0 0 1 0.00701-0.02809l0.02282-0.09304a0.7192 0.7192 0 0 1 0.00881-0.02809l0.02809-0.09483a0.7192 0.7192 0 0 1 0.00351-0.01405l0.07725-0.2387a0.7191 0.7191 0 0 1 0.7215-0.4986zm0.8357 2.763a0.7191 0.7191 0 0 1 0.3581 0.1l0.05091 0.02984 0.09834 0.05268 0.05091 0.02282 0.05091 0.02107 0.1054 0.03511 0.05267 0.0158 0.05267 0.01229 0.05443 0.01054 0.05267 0.0088 0.05443 7e-3 0.05443 0.0053 0.1089 0.0036 0.05618-0.0018 0.1089-0.01061 0.05443-0.0088 0.0053-0.0018a0.7191 0.7191 0 0 1 0.848 0.5636 0.7191 0.7191 0 0 1-0.5636 0.8462l-0.01932 0.0035a0.7192 0.7192 0 0 1-0.02984 0.0053l-0.08427 0.01405a0.7192 0.7192 0 0 1-0.02984 0.0035l-0.08427 0.01053a0.7192 0.7192 0 0 1-0.02809 0.0035l-0.08427 0.0053a0.7192 0.7192 0 0 1-0.02984 0.0018l-0.08427 0.0035a0.7192 0.7192 0 0 1-0.02809 0h-0.08427a0.7192 0.7192 0 0 1-0.02809-0.0018l-0.08252-0.0035a0.7192 0.7192 0 0 1-0.02984-0.0018l-0.08252-7e-3a0.7192 0.7192 0 0 1-0.02809-0.0035l-0.08076-0.01054a0.7192 0.7192 0 0 1-0.02809-0.0035l-0.08076-0.01229a0.7192 0.7192 0 0 1-0.02809-0.0053l-0.08076-0.01756a0.7192 0.7192 0 0 1-0.02634-0.0053l-0.08076-0.01931a0.7192 0.7192 0 0 1-0.02634-7e-3l-0.07725-0.02282a0.7192 0.7192 0 0 1-0.02634-0.0088l-0.07725-0.02458a0.7192 0.7192 0 0 1-0.02634-0.0088l-0.07725-0.02809a0.7192 0.7192 0 0 1-0.02458-0.01054l-0.07549-0.02984a0.7192 0.7192 0 0 1-0.02458-0.01054l-0.07374-0.03336a0.7192 0.7192 0 0 1-0.02282-0.01229l-0.07374-0.03687a0.7192 0.7192 0 0 1-0.02282-0.01054l-0.07198-0.04038a0.7192 0.7192 0 0 1-0.02282-0.01229l-0.06145-0.03687a0.7191 0.7191 0 0 1-0.2528-0.9852 0.7191 0.7191 0 0 1 0.6268-0.3529z" fill="url(#a)" stroke-width=".8989"/>
</svg>
