<svg version="1.1" viewBox="0 0 16 16" xmlns="http://www.w3.org/2000/svg">
 <defs>
  <linearGradient id="a" y1="1">
   <stop stop-color="#ffc100" offset="0"/>
   <stop stop-color="#ff0069" offset="1"/>
  </linearGradient>
 </defs>
 <path transform="translate(-5e-6) scale(1) translate(5e-6) scale(1) translate(-5e-6) scale(1) translate(5e-6) scale(1) translate(-.000215 .000182) scale(1) translate(1.263 1.263) scale(.8423)" d="m8.186-1.496c-0.1731-0.00674-0.3468-0.004278-0.5234 0.007813-2.571 0.1761-4.592 2.339-4.592 4.916 0 2.576 1.232 5.416 1.934 7 0.1574 0.3562 0.3738 0.6706 0.6348 0.9375-0.09357 0.08241-0.1804 0.1703-0.2617 0.2617-0.6082 0.6842-0.877 1.538-0.877 2.371 0 0.8332 0.2688 1.687 0.877 2.371 0.6082 0.6842 1.58 1.127 2.621 1.127 1.042 0 2.013-0.4427 2.621-1.127 0.6082-0.6842 0.8789-1.538 0.8789-2.371 0-0.8332-0.2707-1.687-0.8789-2.371-0.08094-0.09106-0.1686-0.1777-0.2617-0.2598 0.2614-0.267 0.4793-0.5826 0.6367-0.9395 0.7003-1.583 1.932-4.424 1.932-7 1.1e-5 -2.655-2.144-4.823-4.74-4.924zm-0.4219 1.504a3.428 3.428 0 0 1 3.662 3.42c0 2.013-1.134 4.876-1.805 6.393-0.1506 0.3412-0.4037 0.6137-0.7129 0.793-0.292-0.07456-0.5976-0.1152-0.9102-0.1152-0.3124 0-0.6183 0.04077-0.9102 0.1152-0.3084-0.1793-0.5601-0.4517-0.7109-0.793-0.6713-1.516-1.807-4.38-1.807-6.393a3.428 3.428 0 0 1 3.193-3.42zm-0.6875 12.21c0.2974 0.08658 0.6074 0.1328 0.9219 0.1328s0.6262-0.0444 0.9238-0.1309a2 2 0 0 1-0.9238 3.773 2 2 0 0 1-0.9219-3.775z" fill="#1e1e1e" stop-color="#000000" stroke-linecap="round" stroke-linejoin="round" style="paint-order:stroke fill markers"/>
 <path transform="translate(-5e-6) scale(1) translate(5e-6) scale(1) translate(-5e-6) scale(1) translate(5e-6) scale(1) translate(-.000215 .000182) scale(1) translate(1.263 1.263) scale(.8423)" d="m7.998 12a2 2 0 0 0 0 4 2 2 0 0 0 0-4z" fill="url(#a)" stop-color="#000000" stroke-linecap="round" stroke-linejoin="round" style="paint-order:stroke fill markers"/>
 <path transform="translate(-5e-6) scale(1) translate(5e-6) scale(1) translate(-5e-6) scale(1) translate(5e-6) scale(1) translate(-.000215 .000182) scale(1) translate(1.263 1.263) scale(.8423)" d="m7.764 0.007812a3.428 3.428 0 0 0-3.193 3.42c0 2.012 1.135 4.876 1.807 6.393 0.2828 0.6399 0.9201 1.035 1.621 1.035 0.701 0 1.341-0.3956 1.623-1.035 0.6707-1.516 1.805-4.379 1.805-6.393a3.428 3.428 0 0 0-3.662-3.42z" fill="url(#a)" stop-color="#000000" stroke-linecap="round" stroke-linejoin="round" style="paint-order:stroke fill markers"/>
</svg>
