<svg version="1.1" viewBox="0 0 16 16" xmlns="http://www.w3.org/2000/svg">
 <defs>
  <linearGradient id="a" x2="0" y1="1">
   <stop stop-color="#ff4000" offset="0"/>
   <stop stop-color="#ffa200" offset="1"/>
  </linearGradient>
 </defs>
 <path transform="translate(0) scale(1) translate(-.00101 .00028) scale(1) translate(-.000788 .00162) scale(1)" d="m16 6.757c0 0.1901-0.01932 0.379-0.05592 0.5608a1.263 1.263 0 0 1-0.03289 0.1299l-0.09541 0.3027a1.263 1.263 0 0 1-0.04605 0.125c-0.1459 0.3351-0.3661 0.6484-0.6381 0.9112-0.5138 0.496-1.226 0.797-1.917 0.8158-0.1513 0.0041-0.3045-0.0118-0.4573-0.03454v2.143c0 0.9625-0.3962 1.913-1.075 2.58-0.6711 0.6586-1.604 1.039-2.544 1.039h-6.286c-0.7218 0-1.466-0.3003-1.987-0.8026-0.1329-0.1279-0.2525-0.2685-0.3586-0.4194a1.263 1.263 0 0 1-0.07072-0.1135l-0.1546-0.2763a1.263 1.263 0 0 1-0.1036-0.2451l-0.09213-0.3043a1.263 1.263 0 0 1-0.03289-0.1283c-0.03495-0.181-0.05122-0.365-0.05099-0.5493 6.989e-5 -0.1871 0.01824-0.3705 0.05263-0.5477a1.263 1.263 0 0 1 0.03125-0.1283l0.09373-0.3043a1.263 1.263 0 0 1 0.1036-0.2451l0.1546-0.278a1.263 1.263 0 0 1 0.07401-0.1168c0.1075-0.1513 0.229-0.2915 0.3635-0.4194 0.52-0.4948 1.26-0.7894 1.977-0.7895h4.238v-0.1513c-0.1094 0.01662-0.2177 0.03953-0.3273 0.04276a1.263 1.263 0 0 1-0.1267-0.003293l-0.3208-0.02302a1.263 1.263 0 0 1-0.2664-0.0477l-0.3125-0.09213a1.263 1.263 0 0 1-0.1315-0.04605c-0.3433-0.1434-0.6658-0.3642-0.9356-0.6414-0.5154-0.5246-0.8224-1.272-0.8224-1.987s0.3036-1.459 0.8141-1.983a1.263 1.263 0 0 1 0.01151-0.01151l3.201-3.201a1.263 1.263 0 0 1 0.00987-0.00987l0.00987-0.00987a1.263 1.263 0 0 1 0.00658-0.00657c0.2528-0.2442 0.5467-0.4407 0.8682-0.5822 0.1719-0.07587 0.3491-0.1341 0.5263-0.1743a1.263 1.263 0 0 1 0.1365-0.02467l0.3208-0.03618a1.263 1.263 0 0 1 0.2861 0.001684l0.3208 0.03618a1.263 1.263 0 0 1 0.1415 0.02467c0.1837 0.04232 0.3629 0.103 0.5346 0.1809 0.3164 0.1429 0.6052 0.3396 0.8539 0.5822h0.0016a1.263 1.263 0 0 1 0.01315 0.0148l3.227 3.209v0.00168c0.5431 0.5265 0.869 1.294 0.8699 2.028a1.263 1.263 0 0 1 0.0016 0.00329zm-1.263 0h-0.0016c0-0.4268-0.1557-0.8041-0.4868-1.125l-3.239-3.222-0.0049-0.00657a1.711 1.711 0 0 0-0.4935-0.3355 1.571 1.571 0 0 0-0.2961-0.1003l-0.3224-0.03619-0.3208 0.03619c-0.09726 0.02206-0.1965 0.05467-0.2961 0.09869a1.711 1.711 0 0 0-0.5 0.3355l-0.01151 0.00987-3.199 3.201c-0.3093 0.3176-0.4573 0.6861-0.4573 1.102 0 0.4157 0.1483 0.7872 0.4621 1.105 0.1579 0.1625 0.3321 0.2786 0.5197 0.3569l0.3141 0.09213 0.3191 0.02302c0.4272-0.01259 0.7922-0.1689 1.096-0.472l0.5329-0.5296v3.636h-5.501c-0.4282 7.2e-5 -0.7976 0.1479-1.107 0.4424a1.614 1.614 0 0 0-0.204 0.2352l-0.1546 0.278-0.09213 0.3027c-0.01916 0.09869-0.02961 0.202-0.02961 0.3092a1.614 1.614 0 0 0 0.02961 0.3092l0.09213 0.3027 0.1529 0.278a1.614 1.614 0 0 0 0.2023 0.2352c0.3098 0.2993 0.6808 0.449 1.11 0.449h6.286c0.6461-7.2e-5 1.199-0.2259 1.66-0.6776 0.4625-0.4541 0.6973-1.013 0.6973-1.679v-4.38l0.546 0.551c0.0072 0.00724 0.01564 0.01449 0.02302 0.02138 0.3321 0.3099 0.7073 0.4486 1.117 0.4375 0.4005-0.01087 0.7617-0.1607 1.075-0.4638 0.1595-0.154 0.2756-0.3236 0.3553-0.5066l0.09541-0.3027c0.02013-0.09996 0.03125-0.2035 0.03125-0.3108z" fill="#1e1e1e" stop-color="#000000" stroke-linecap="round" stroke-linejoin="round" stroke-width=".8421" style="paint-order:stroke fill markers"/>
 <path transform="translate(0) scale(1) translate(-.00101 .00028) scale(1) translate(-.000788 .00162) scale(1)" d="m14.74 6.757c0 0.1073-0.01112 0.2109-0.03125 0.3108l-0.09541 0.3027c-0.07963 0.1829-0.1958 0.3526-0.3553 0.5066-0.314 0.3032-0.6751 0.453-1.075 0.4638-0.4094 0.01108-0.7847-0.1276-1.117-0.4375-0.0074-0.00689-0.01585-0.01414-0.02302-0.02138l-0.546-0.551v4.38c0 0.6664-0.2349 1.225-0.6973 1.679-0.4602 0.4517-1.014 0.6776-1.66 0.6776h-6.286c-0.4295 0-0.8004-0.1497-1.11-0.449a1.614 1.614 0 0 1-0.2023-0.2352l-0.1529-0.278-0.09213-0.3026a1.614 1.614 0 0 1-0.02961-0.3092c0-0.1072 0.01045-0.2105 0.02961-0.3092l0.09213-0.3026 0.1546-0.278a1.614 1.614 0 0 1 0.204-0.2352c0.3093-0.2946 0.6786-0.4424 1.107-0.4424h5.501v-3.636l-0.5329 0.5296c-0.3032 0.3032-0.6682 0.4594-1.096 0.472l-0.3191-0.02302-0.3141-0.09213c-0.1875-0.07834-0.3619-0.1944-0.5197-0.3569-0.3139-0.3181-0.4621-0.6895-0.4621-1.105 0-0.4158 0.148-0.7843 0.4573-1.102l3.199-3.201 0.01151-0.00987a1.711 1.711 0 0 1 0.5-0.3355c0.09954-0.04402 0.1987-0.07662 0.2961-0.09869l0.3208-0.03618 0.3224 0.03618a1.571 1.571 0 0 1 0.2961 0.1003 1.711 1.711 0 0 1 0.4934 0.3355l0.0049 0.00657 3.239 3.222c0.3311 0.3209 0.4868 0.6982 0.4868 1.125z" fill="url(#a)" stop-color="#000000" stroke-linecap="round" stroke-linejoin="round" stroke-width=".8421" style="paint-order:stroke fill markers"/>
</svg>
