<svg xmlns="http://www.w3.org/2000/svg" viewBox="0 0 16 16"><defs><linearGradient id="a" y1=".5" y2=".5"><stop offset="0" stop-color="#cc00a8"/><stop offset="1" stop-color="#ff4de0"/></linearGradient></defs><path fill="url(#a)" d="M140.5 62.4c-.997 0-1.96.098-2.889.285l-2.812.887c-1.7.74-3.282 1.827-4.713 3.309-2.817 2.918-4.196 6.272-4.297 9.994-.103 3.805 1.177 7.294 4.057 10.38q.096.103.197.203l5.131 5.086h-40.71c-6.192 0-11.38 2.18-15.6 6.478q-6.296 6.415-6.297 15.42v58.42c0 3.991 1.387 7.431 4.168 10.31a15 15 0 0 0 2.191 1.877l2.578 1.43 2.816.857a15 15 0 0 0 2.87.272c.996 0 1.953-.095 2.87-.273l2.82-.862 2.58-1.439a15 15 0 0 0 2.188-1.896q4.106-4.311 4.107-10.28v-51.13h33.79l-4.91 4.953c-2.817 2.817-4.279 6.21-4.396 10.18l.211 2.97.854 2.91c.728 1.743 1.82 3.368 3.33 4.835 2.956 2.917 6.397 4.3 10.26 4.3 3.864 0 7.298-1.373 10.25-4.247l29.74-29.74.093-.095a15.9 15.9 0 0 0 3.121-4.65c.409-.925.71-1.842.915-2.746l.337-2.982-.341-2.994a14.6 14.6 0 0 0-.936-2.762 15.9 15.9 0 0 0-3.121-4.576l-.055-.057-29.94-30.09c-2.982-3.077-6.494-4.53-10.46-4.53z" transform="translate(-8.48 -7.974)scale(.12779)"/></svg>