<svg xmlns="http://www.w3.org/2000/svg" viewBox="0 0 16 16"><defs><linearGradient id="a" x1="1" x2="0" y1=".5" y2=".5"><stop offset="0" stop-color="#ff00d2"/><stop offset="1" stop-color="#ff0052"/></linearGradient></defs><path fill="url(#a)" d="M1.984 11.97a8.7 8.7 0 0 1 1.232-4.391c1.455-2.477 4.169-4.146 7.057-4.367v-.041c-.005-.403-.01-.836.033-1.256l.004-.025.004-.024c.085-.385.375-.649.686-.764.305-.112.683-.1.996.116q2.154 1.28 4.285 2.594c.407.203.58.616.568.984a1.07 1.07 0 0 1-.601.945 354 354 0 0 1-4.266 2.582c-.606.408-1.436.08-1.65-.574l-.014-.04-.004-.044a10 10 0 0 1-.041-1.28c-1.494.2-2.905.96-3.828 2.122l-.002.004-.004.002c-1.16 1.409-1.566 3.384-1.049 5.123v.004l.002.004c.69 2.509 3.302 4.362 5.947 4.15h.008l.01-.002c2.778-.108 5.23-2.462 5.432-5.178l.002-.018.004-.017c.07-.45.028-.903-.06-1.385-.043-.24-.097-.482-.153-.733v-.004c-.056-.249-.116-.508-.163-.77l-.005-.038v-.037c0-.814.627-1.315 1.244-1.453.615-.139 1.398.043 1.752.77l.011.026c1.453 3.557.16 7.91-2.947 10.19-2.132 1.628-5.015 2.214-7.627 1.574-2.419-.562-4.555-2.175-5.748-4.324-.764-1.344-1.135-2.886-1.115-4.422z" transform="translate(-.826 -.828)scale(.80234)"/></svg>