<svg version="1" viewBox="0 0 64 64" xmlns="http://www.w3.org/2000/svg">
 <defs>
  <filter id="d" x="-.03834" y="-.07371" width="1.077" height="1.147" color-interpolation-filters="sRGB">
   <feGaussianBlur stdDeviation="0.79849372"/>
  </filter>
  <filter id="c" x="-.04354" y="-.08451" width="1.087" height="1.169" color-interpolation-filters="sRGB">
   <feGaussianBlur stdDeviation="0.90663339"/>
  </filter>
  <filter id="b" x="-.08767" y="-.1489" width="1.175" height="1.298" color-interpolation-filters="sRGB">
   <feGaussianBlur stdDeviation="0.45113308"/>
  </filter>
  <linearGradient id="a" y1="1">
   <stop stop-color="#f00" offset="0"/>
   <stop stop-color="#ffa500" offset=".5"/>
   <stop stop-color="#ff0" offset="1"/>
  </linearGradient>
 </defs>
 <path transform="translate(.9848 .9848) scale(.9692)" d="m8.444 18.95c32.24-9.292 37.22-7.08 47.11 23.92-25.38 10.16-36.21 9.191-42.34-2.451-2.009-3.815-2.351-8.977-3.351-15.38-0.3672-2.351-1.158-3.339-1.419-6.083z" fill="none" stroke="url(#a)" stroke-linecap="round" stroke-linejoin="round" stroke-width="4"/>
 <path transform="translate(.9848 .9848) scale(.9692) matrix(1.123 .1674 -.1674 1.123 1.229 -8.105)" d="m9.645 18.2c-0.7319 0.0168-1.324 0.2952-1.766 0.7109h-0.003906c-0.09909 0.09344-0.1671 0.2101-0.25 0.3164-0.155 0.1996-0.2792 0.4113-0.375 0.6445-0.05721 0.1389-0.1289 0.2713-0.1641 0.418l0.00782 4e-3c-0.2778 1.157 0.1317 2.482 1.438 3.121l10.53 5.391 0.1445-0.2969 22.38 11.14 7.156 2.898 0.0156-0.03906 2.934 1.691 5.312-0.332c-2.048-1.453-3.862-3.067-7.211-3.617l0.0196-0.04296-6.25-4.301-22.27-11.69 0.1758-0.3633-10.52-5.348c-0.4018-0.2114-0.8486-0.3188-1.301-0.3086z" filter="url(#d)" opacity=".4724"/>
 <path transform="translate(.9848 .9848) scale(.9692)" d="m12.56 16.17 31.59 23.1-2.846 3.872-31.61-22.09c-1.354-0.8348-1.353-0.8186-0.5165-2.126l1.471-2.3c0.7574-1.356 0.7497-1.299 1.904-0.453z" fill="#555" stroke-width="1.135"/>
 <path transform="translate(.9848 .9848) scale(.9692)" d="m49.15 44.83c4.576 1.06 6.479 3.441 8.762 5.633l-6.02-0.5183-4.249-3.374z" stroke-width="1.135"/>
 <path transform="translate(.9848 .9848) scale(.9692)" d="m9.042 13.72c-3.196-0.4021-4.781 3.836-2.121 5.669l10.92 7.812 3.532-5.153-10.92-7.766c-0.4156-0.3045-0.9004-0.4977-1.41-0.5619z" fill="#252525" stroke-width="1.135"/>
 <path transform="translate(.9848 .9848) scale(.9692) matrix(1.123 .1674 -.1674 1.123 1.229 -8.105)" d="m7.874 19.73c-0.3952 0.3726-0.6633 0.8568-0.789 1.38l11.08 5.772c0.916 0.4913 1.964-0.6619 0.6682-1.442z" filter="url(#b)" opacity=".2206"/>
 <path transform="translate(.9848 .9848) scale(.9692)" d="m6.938 14.22c-0.506 0.3522-0.8881 0.8509-1.117 1.418l11.47 8.334c0.9461 0.7049 2.315-0.4145 0.9915-1.507z" fill="#d7d7d7" stroke-width="1.135"/>
 <path transform="translate(.9848 .9848) scale(.9692) matrix(1.123 .1674 -.1674 1.123 1.229 -8.105)" d="m9.645 18c-1.876 0.04282-2.855 1.758-2.576 3.279 0.201-1.186 1.11-2.246 2.576-2.279 0.4522-0.01022 0.8991 0.09724 1.301 0.3086l10.52 5.348-0.1758 0.3633 21.85 11.47 0.4141-0.7832-22.27-11.69 0.1758-0.3633-10.52-5.348c-0.4017-0.2114-0.8486-0.3188-1.301-0.3086zm38.99 21.9-1.086 1.715 0.4648 0.2676 0.6211-0.9824c3.348 0.2673 5.273 1.522 7.096 2.848l1.271-0.07812c-2.275-1.614-4.242-3.44-8.367-3.77z" fill="#fff" filter="url(#c)" opacity=".816"/>
 <path transform="translate(.9848 .9848) scale(.9692)" d="m44.16 39.27 6.297 5.876-1.595 2.449-7.548-4.453z" fill="#2d2d2d" stroke-width="1.135"/>
</svg>
