<svg version="1.1" viewBox="0 0 64 64" xmlns="http://www.w3.org/2000/svg">
 <defs>
  <linearGradient id="b" x1="1" x2="0" y2="1">
   <stop stop-color="#ffbb24" offset="0"/>
   <stop stop-color="#f7f206" offset="1"/>
  </linearGradient>
  <linearGradient id="a" x1="1" x2="0" y1=".5" y2=".5">
   <stop stop-color="#ff002e" offset="0"/>
   <stop stop-color="#f09" offset="1"/>
  </linearGradient>
 </defs>
 <path transform="translate(0) scale(1) translate(2.951 2.951) scale(.908)" d="m15.3 18.08v4.174h4.174v23.65h4.172v-27.82zm23.65 0c-7.682 3.75e-4 -13.91 6.228-13.91 13.91s6.228 13.91 13.91 13.91h21.81c0.6624-1.349 1.229-2.743 1.695-4.172h-23.51c-5.378 0-9.738-4.361-9.738-9.738s4.361-9.736 9.738-9.736 9.736 4.359 9.736 9.736h4.174c0-7.682-6.228-13.91-13.91-13.91zm-27.82 5.564v4.174h2.781v18.08h4.172v-22.26zm27.82 0c-4.61 0-8.346 3.736-8.346 8.346s3.736 8.348 8.346 8.348h23.9c0.3722-1.371 0.653-2.766 0.8398-4.174h-24.73c-2.305 0-4.174-1.869-4.174-4.174s1.869-4.172 4.174-4.172 4.172 1.867 4.172 4.172h4.174c0-4.61-3.736-8.346-8.346-8.346z" fill="url(#a)"/>
 <path transform="translate(0) scale(1) matrix(.908 0 0 .908 2.951 2.951)" d="m31.99-3.25c-19.43 0-35.24 15.82-35.24 35.24 0 19.43 15.82 35.24 35.24 35.24 19.43 0 35.24-15.82 35.24-35.24 0-19.43-15.82-35.24-35.24-35.24zm0 6.5c15.91 0 28.74 12.83 28.74 28.74s-12.83 28.74-28.74 28.74-28.74-12.83-28.74-28.74 12.83-28.74 28.74-28.74z" fill="url(#b)"/>
</svg>
