<svg version="1.1" viewBox="0 0 64 64" xmlns="http://www.w3.org/2000/svg">
 <defs>
  <linearGradient id="a" y1=".5" y2=".5">
   <stop stop-color="#7eebda" offset="0"/>
   <stop stop-color="#73ff44" offset=".4957"/>
   <stop stop-color="#ffcd3e" offset=".987"/>
  </linearGradient>
 </defs>
 <path transform="translate(-0) scale(1) translate(-0) scale(1) translate(-0) scale(1) translate(.003958 -7e-5) scale(1) translate(2.553 2.552) scale(.9201)" d="m35.81 6.369c-6.993-0.00161-13.31 3.963-16.54 10.11-4.294 1.271-7.446 4.454-8.779 8.715-7.58 1.552-13.27 8.077-13.27 15.96 0 9.074 7.416 16.49 16.49 16.49h36.58c9.074 0 16.49-7.416 16.49-16.49-2.35e-4 -7.502-5.197-13.69-12.22-15.63 0.0025-0.1254 0.0293-0.2496 0.0293-0.375 0-10.34-8.439-18.78-18.78-18.78zm0 5.549c7.338 0 13.23 5.89 13.23 13.23 2.95e-4 0.6506-0.0473 1.302-0.1426 1.945a2.774 2.774 0 0 0 2.471 3.168c5.622 0.5562 9.865 5.239 9.865 10.89 0 6.076-4.865 10.94-10.94 10.94h-36.58c-6.076 0-10.94-4.865-10.94-10.94-0.00162-5.628 4.207-10.3 9.805-10.89a2.774 2.774 0 0 0 2.465-2.381c0.4792-3.489 3.178-6.219 6.662-6.734a2.774 2.774 0 0 0 2.107-1.576c2.173-4.674 6.848-7.652 12-7.65z" fill="url(#a)"/>
 <path transform="translate(-0) scale(1) translate(-0) scale(1) translate(-0) scale(1) translate(.003958 -7e-5) scale(1) translate(2.553 2.552) scale(.9201)" d="m25.95 23.61a5.666 5.666 0 0 0-5.666 5.666v13.39a5.666 5.666 0 0 0 5.666 5.666h13.39a5.666 5.666 0 0 0 5.666-5.666v-13.39a5.666 5.666 0 0 0-5.666-5.666zm2.584 3.088h8.236v7.725h-8.236zm-3.084 0.05469v4.066h-2.059v-1.545a2.575 2.575 0 0 1 2.059-2.522zm14.42 0a2.574 2.574 0 0 1 2.059 2.522v1.545h-2.059zm-16.49 7.152h2.059v4.119h-2.059zm16.49 0h2.059v4.119h-2.059zm-11.33 3.606h8.236v7.723h-8.236zm-5.146 3.604h2.059v4.064a2.574 2.574 0 0 1-2.059-2.52zm16.48 0h2.059v1.543a2.575 2.575 0 0 1-2.059 2.522z" fill="url(#a)"/>
</svg>
