<svg version="1.1" viewBox="0 0 64 64" xmlns="http://www.w3.org/2000/svg">
 <defs>
  <linearGradient id="a" x1="1" x2="0" y1="1">
   <stop stop-color="#0575e6" offset="0"/>
   <stop stop-color="#00f260" offset="1"/>
  </linearGradient>
 </defs>
 <path transform="translate(0) scale(1) translate(0) scale(1) translate(0) scale(1) translate(0) scale(1) translate(0) scale(1) translate(.002366 .00081) scale(1) translate(-.001006) scale(.9999)" d="m6.16 0 0.01172 0.01367c-0.8144 0-1.61 0.106-2.371 0.3633a5.439 5.439 0 0 0-2.131 1.307 5.439 5.439 0 0 0-1.301 2.129 7.35 7.35 0 0 0-0.3633 2.363v0.00195c0.00588 1.555 0.3752 3.209 1.018 5.022 0.6292 1.773 1.533 3.701 2.678 5.764 3.89 6.981 10.63 15.61 19.18 24.17 8.555 8.554 17.2 15.3 24.17 19.18 2.064 1.147 3.989 2.047 5.762 2.678 1.812 0.6394 3.468 1.011 5.023 1.016 0.8129 0 1.609-0.1056 2.367-0.3613a5.439 5.439 0 0 0 2.127-1.303 5.439 5.439 0 0 0 1.305-2.127 7.35 7.35 0 0 0 0.3652-2.367v-0.0039c-0.00588-1.646-0.4218-3.408-1.135-5.344a32.34 32.34 0 0 0-1.197-2.793 1.949 1.949 0 0 0-3.432-0.1719c-0.2029 0.3371-0.4114 0.6688-0.627 0.998a1.955 1.955 0 0 0-0.1445 1.887c0.2901 0.6331 0.5403 1.235 0.75 1.805 0.5645 1.514 0.8267 2.773 0.8223 3.615v0.0039c0 0.3425-0.03934 0.6024-0.09961 0.7773a0.588 0.588 0 0 1-0.1113 0.2109 0.588 0.588 0 0 1-0.2168 0.1152 2.499 2.499 0 0 1-0.7734 0.09961h-0.0039c-0.7953 0.0044-1.962-0.2272-3.361-0.7285-1.452-0.5145-3.15-1.307-5.01-2.342-6.447-3.584-14.82-10.1-23.08-18.36-8.264-8.258-14.77-16.62-18.36-23.08-1.035-1.861-1.822-3.556-2.34-5.01-0.4998-1.399-0.7315-2.568-0.7285-3.363v-0.00195c0-0.344 0.04081-0.6034 0.09961-0.7754a0.588 0.588 0 0 1 0.1094-0.2051 0.588 0.588 0 0 1 0.2188-0.123c0.1735-0.0588 0.4304-0.09961 0.7773-0.09961h0.00195c0.8438-0.00441 2.105 0.2612 3.617 0.8242 0.4969 0.1862 1.02 0.4015 1.572 0.6465 0.7644 0.3396 1.647 0.2682 2.352-0.1875l0.01758-0.01172 0.0078-0.00586a2.47 2.47 0 0 0-0.3613-4.328c-0.6399-0.2862-1.262-0.5422-1.869-0.7676-1.934-0.71-3.693-1.125-5.338-1.131zm24.78 4.008a28.96 28.96 0 0 0-19.92 7.904l-2e-3 2e-3a2.381 2.381 0 0 0-0.0625 3.379l0.01953 0.02734a2.367 2.367 0 0 0 3.26 0.1172 30.14 30.14 0 0 1 6.438-4.168c-1.025 1.592-1.92 3.413-2.68 5.418h-2.764c-0.7468 0-1.429 0.4137-1.772 1.078s-0.2896 1.466 0.1426 2.076l0.1719 0.2422c0.2646 0.3704 0.6922 0.5898 1.146 0.5898h1.812c-0.1421 0.5586-0.274 1.125-0.3965 1.699-0.122 0.5733 0.01533 1.168 0.377 1.627l-0.0098-0.02344 0.05078 0.06836 2e-3 0.0059a1.999 1.999 0 0 0 3.492-0.8613l2e-3 -0.0039c0.1823-0.8663 0.3908-1.704 0.623-2.514h8.076v10.42h-1.633a1.99 1.99 0 0 0-1.43 3.373l0.0098 0.0098c0.3748 0.3866 0.8897 0.6055 1.428 0.6055h1.627v1.635c0 0.5336 0.2159 1.043 0.5996 1.412l0.05273 0.05273a1.967 1.967 0 0 0 3.336-1.414v-1.686h9.703c-0.1558 3.887-0.7613 7.521-1.705 10.69 0.01862-0.02254 0.03801-0.04485 0.05859-0.06445a0.588 0.588 0 0 0-0.08789 0.1699 2.705 2.705 0 0 0 2.533 3.514l5.223 0.08008-0.2773 0.3223a2.477 2.477 0 0 0 0.6113 3.777l0.2422 0.1465h2e-3c0.8232 0.4748 1.866 0.3339 2.535-0.3438l0.0039-2e-3a28.99 28.99 0 0 0 8.248-20.29c0-16.07-13.02-29.08-29.08-29.08zm-1.994 5.045v7.633h-6.652c0.2234-0.5174 0.4557-1.021 0.7012-1.494 1.133-2.199 2.463-3.928 3.859-5.068a8.379 8.379 0 0 1 1.564-1.02c0.1764-0.0196 0.3519-0.03706 0.5273-0.05078zm3.988 0.00195 0.5234 0.04688c0.5272 0.2597 1.051 0.5991 1.57 1.022 1.702 1.383 3.296 3.658 4.57 6.564h-6.666zm8.287 2.215a24.11 24.11 0 0 1 7.4 5.416h-4.734c-0.441-1.169-0.9268-2.287-1.459-3.322-0.3818-0.7342-0.7832-1.432-1.207-2.094zm-8.287 9.404h8.092c0.8982 3.106 1.469 6.645 1.619 10.42h-9.711zm12.22 0h6.461a23.96 23.96 0 0 1 3.356 10.42h-8.352c-0.1367-3.713-0.6387-7.232-1.465-10.42zm-40.26 3.836 0.00195 2e-3c-0.1176 0.0059-0.234 0.0214-0.3516 0.04492a2.47 2.47 0 0 0-1.922 1.83v0.0059a29.84 29.84 0 0 0-0.7676 6.695c0 16.07 13.02 29.08 29.08 29.08 2.331 0 4.599-0.2765 6.772-0.7969h2e-3a2.337 2.337 0 0 0 1.746-1.887 2.337 2.337 0 0 0-1.023-2.332 2.94 2.94 0 0 0-0.2617-0.1797 1.411 1.411 0 0 0-1.172-0.1582c-0.7424 0.2234-2.513 0.4428-3.629 0.459a5.88 5.88 0 0 1-0.4356-0.01367v-3.58c0-0.5895-0.2645-1.147-0.7188-1.522a1.996 1.996 0 0 0-3.27 1.537v3.428c-0.1735-0.0147-0.347-0.03119-0.5195-0.04883a8.232 8.232 0 0 1-1.572-1.02c-1.702-1.385-3.296-3.656-4.572-6.562h1.768a1.945 1.945 0 0 0 1.33-3.369l-0.09961-0.08984a1.955 1.955 0 0 0-1.332-0.5293h-3.092c-0.3896-1.352-0.7134-2.794-0.9707-4.295a1.911 1.911 0 0 0-0.5176-1.02l-0.0059-0.0098a2.001 2.001 0 0 0-3.406 1.74c0.2117 1.234 0.4658 2.429 0.7637 3.584h-6.459a23.96 23.96 0 0 1-3.356-10.42h3.469a1.976 1.976 0 0 0 1.525-3.24l-0.02344-0.0293a1.984 1.984 0 0 0-1.525-0.7188h-3.445c0.09849-1.191 0.2886-2.352 0.5547-3.488 0.1646-0.6909 0.02148-1.425-0.3945-2.004l-0.04883-0.07031a2.47 2.47 0 0 0-2.117-1.018zm41.74 10.57h8.344a23.96 23.96 0 0 1-3.354 10.42h-6.469c0.8276-3.19 1.34-6.706 1.478-10.42zm-33.37 14.41h4.734c0.441 1.172 0.9268 2.287 1.459 3.322 0.3812 0.735 0.7837 1.433 1.209 2.094a24.11 24.11 0 0 1-7.402-5.414z" fill="url(#a)"/>
</svg>
