<svg version="1.1" viewBox="0 0 64 64" xmlns="http://www.w3.org/2000/svg">
 <path transform="translate(-15.63 -25.3) scale(1.488)" d="M39.602 24.22 50 26.183l-9.531 6.32Zm-4.467 14.691c2.556 6.024 2.04 9.603 11.134 10.85 3.71.356 2.909 5.173-.432 5.228-1.798.01-3.687-.066-5.083-.417-1.584-.4-5.137-3.576-5.137-3.576zm-9.068-3.673L25.102 53.1s-.92-.87-1.425-1.25c-.791-.598-1.39-1.227-2.372-1.371-.927-.136-1.89.55-2.827.538-.73-.01-2.088-.664-2.088-.664-1.749-.556-2.794-3.945-2.242-7.568 1.234-7.701 6.061-8.449 11.92-7.547" opacity=".1"/>
 <path transform="translate(-15.63 -25.3) scale(1.488)" d="M23.482 52.256a.6.6 0 0 0-.434.227 63 63 0 0 0-3.391 4.649 28 28 0 0 0 5.42 1.998c.052-.08.111-.15.16-.232a.6.6 0 0 0 .075-.435l-1.203-5.731a.6.6 0 0 0-.627-.476" fill="#475f9d"/>
 <path transform="translate(-15.63 -25.3) scale(1.488)" d="m39.6 23.22 10.4 1.963-9.531 6.32z" fill="#ffb301"/>
 <path transform="translate(-15.63 -25.3) scale(1.488)" d="M26.067 34.238 25.102 52.1s-.92-.87-1.425-1.25c-.791-.598-1.39-1.227-2.372-1.371-.927-.136-1.89.55-2.827.538-.73-.01-2.088-.664-2.088-.664-1.749-.556-2.794-3.945-2.242-7.568 1.234-7.701 6.061-8.449 11.92-7.547" fill="#eba65b"/>
 <path transform="translate(-15.63 -25.3) scale(1.488)" d="M21.906 33.953c-3.107.153-5.604 1.392-6.958 4.826.661.372 1.553.462 2.255.273.824-.223 1.926-1.83 1.926-1.83 2.515-1.075 5.011-.051 6.73.86l.209-3.845c-1.465-.226-2.866-.347-4.162-.284M14.014 43.2c-.126 3.051.859 5.671 2.377 6.154 0 0 .865.407 1.587.578l-.38-5.582Z" fill="#b2713d"/>
 <path transform="translate(-15.63 -25.3) scale(1.488)" d="M35.135 37.911c2.556 6.024 2.04 9.603 11.134 10.85 3.71.356 2.909 5.173-.432 5.228-1.798.01-3.687-.066-5.083-.417-1.584-.4-5.137-3.576-5.137-3.576z" fill="#475f9d"/>
 <path transform="translate(-15.63 -25.3) scale(1.488)" d="M23.727 35.098C22.622 38.882 21.95 42.859 22 47.047c.044 3.634.416 7.426.766 11.386a28 28 0 0 0 15.982.741C37.9 54.906 36.996 50.328 37 45.737c.003-3.51.652-7.028 1.565-10.42z" fill="#e3563b"/>
 <path transform="translate(-15.63 -25.3) scale(1.488)" d="M47 40.064c-1.105 0-2 .956-2 2.135v14.6a28 28 0 0 0 4-2.551V42.199c0-1.18-.895-2.135-2-2.135" fill="#8d5b34"/>
 <path transform="translate(-15.63 -25.3) scale(1.488)" d="m24.07 35.77 6.054 2.572s-3.29 5.43-2.237 8.368c0.509 1.417 1.706 3.163 2.935 4.433 3.112 2.965-1.1 4.538-2.554 3.574-3.912-2.082-5.833-4.37-6.993-6.76-1.047-4.632 1.11-8.054 2.794-12.19" opacity=".1"/>
 <path transform="translate(-15.63 -25.3) scale(1.488)" d="m24.07 34.77 6.054 2.572s-3.29 5.43-2.237 8.368c0.509 1.417 1.706 3.163 2.935 4.433 3.112 2.965-1.1 4.538-2.554 3.574-3.912-2.082-5.833-4.37-6.993-6.76-1.047-4.632 1.11-8.054 2.794-12.19" fill="#475f9d"/>
 <circle transform="translate(-15.63 -25.3) scale(1.488)" cx="30" cy="29" r="11" opacity=".1"/>
 <circle transform="translate(-15.63 -25.3) scale(1.488)" cx="30" cy="28" r="11" fill="#475f9d"/>
 <circle transform="translate(-15.63 -25.3) scale(1.488)" cx="33" cy="28" r="5" opacity=".2"/>
 <circle transform="translate(-15.63 -25.3) scale(1.488)" cx="33" cy="27" r="5" fill="#fff"/>
 <path transform="translate(-15.63 -25.3) scale(1.488)" d="M33 22a5 5 0 0 0-.662.045A3.98 3.98 0 0 0 31 25.018 3.98 3.98 0 0 0 34.982 29a3.98 3.98 0 0 0 2.973-1.336A5 5 0 0 0 38 27a5 5 0 0 0-5-5" fill="#153e44"/>
</svg>
