<svg version="1.1" viewBox="0 0 64 64" xmlns="http://www.w3.org/2000/svg">
 <defs>
  <linearGradient id="b" y1=".5" y2=".5">
   <stop stop-color="#0061ff" offset="0"/>
   <stop stop-color="#60efff" offset="1"/>
  </linearGradient>
  <linearGradient id="a" y1=".5" y2=".5">
   <stop stop-color="#dc18fc" offset="0"/>
   <stop stop-color="#8e1eff" offset="1"/>
  </linearGradient>
 </defs>
 <path transform="translate(.00785 .007999) scale(1) matrix(5.333 0 0 5.333 -10.67 -10.67)" d="m8 2v7c0.06515 4.4e-6 0.1295-0.0315 0.1719-0.09375l1.795-1.551c0.1004-0.1476-9.65e-4 -0.3555-0.1738-0.3555h-0.5781c-0.1174 0-0.2148-0.09556-0.2148-0.2188v-4.559c0-0.1232-0.09358-0.2227-0.2109-0.2227zm2.363 0.7812c-0.1072 0.0024-0.2116 0.04997-0.2832 0.1426-0.1274 0.1647-0.1008 0.4033 0.06055 0.5332l0.5488 0.4414c0.1614 0.1299 0.3961 0.1022 0.5234-0.0625 0.1274-0.1646 0.0989-0.4033-0.0625-0.5332l-0.5469-0.4414c-0.07061-0.05685-0.1568-0.08193-0.2402-0.08008zm1.951 2.197c-0.03646 0.00279-0.07352 0.01096-0.1094 0.02539-0.1913 0.07692-0.2844 0.2971-0.209 0.4922l0.2559 0.6641c0.07545 0.1951 0.2912 0.2898 0.4824 0.2129 0.1912-0.07692 0.2844-0.2971 0.209-0.4922l-0.2539-0.6621c-0.05656-0.1463-0.1929-0.2366-0.3379-0.2402-0.01208-3e-4 -0.02496-9.307e-4 -0.03711 0zm-0.1582 3.022c-0.6506 0-1.157 0.3735-1.406 0.9746-0.1508 0.364-0.3718 0.8952-0.6504 1.174-0.2786 0.2785-0.6087 0.4996-0.9727 0.6504-0.3572 0.148-0.7404 0.1993-1.127 0.2012v3c0.7879 0 1.569-0.1555 2.297-0.457s1.388-0.7436 1.945-1.301c0.5572-0.5571 0.9992-1.217 1.301-1.945 0.3015-0.728 0.457-1.509 0.457-2.297z" fill="url(#a)"/>
 <path transform="translate(.00785 .007999) scale(1) matrix(5.333 0 0 5.333 -10.67 -10.67)" d="m7.211 2c-0.1174 0-0.2109 0.09949-0.2109 0.2227v4.559c0 0.1232-0.09749 0.2188-0.2148 0.2188h-0.5781c-0.1729 0-0.2743 0.2078-0.1738 0.3555l1.795 1.551c0.04237 0.06225 0.1067 0.09375 0.1719 0.09375v-7zm-1.606 0.7812c-0.07335 0.00434-0.1472 0.03034-0.209 0.08008l-0.5469 0.4414c-0.1614 0.1299-0.1899 0.3686-0.0625 0.5332 0.1274 0.1647 0.3621 0.1924 0.5234 0.0625l0.5488-0.4414c0.1614-0.1299 0.1879-0.3685 0.06055-0.5332-0.07165-0.09261-0.176-0.1402-0.2832-0.1426-0.01043-2.32e-4 -0.02077-6.194e-4 -0.03125 0zm-1.957 2.197c-0.145 0.003624-0.2813 0.0939-0.3379 0.2402l-0.2539 0.6621c-0.07541 0.1951 0.01773 0.4153 0.209 0.4922 0.1912 0.07696 0.407-0.01777 0.4824-0.2129l0.2559-0.6641c0.07544-0.1951-0.0177-0.4153-0.209-0.4922-0.03586-0.01443-0.07291-0.0226-0.1094-0.02539-0.01215-9.307e-4 -0.02502-3e-4 -0.03711 0zm-1.648 3.022c0 0.7879 0.1555 1.569 0.457 2.297s0.7436 1.388 1.301 1.945c0.5571 0.5572 1.217 0.9992 1.945 1.301 0.728 0.3015 1.509 0.457 2.297 0.457v-3c-0.3865-0.001891-0.7697-0.05321-1.127-0.2012-0.364-0.1508-0.6941-0.3718-0.9727-0.6504s-0.4996-0.8099-0.6504-1.174c-0.249-0.6011-0.7556-0.9746-1.406-0.9746z" fill="url(#b)"/>
</svg>
