<svg version="1.1" viewBox="0 0 64 64" xmlns="http://www.w3.org/2000/svg">
 <defs>
  <linearGradient id="a" x2="0" y1="1">
   <stop stop-color="#b00eff" offset="0"/>
   <stop stop-color="#ff0e9f" offset="1"/>
  </linearGradient>
 </defs>
 <path transform="translate(-4e-5) scale(1) translate(-2.909 -2.909) scale(2.909)" d="m12 1c-4.93 0-8.452 3.278-9.598 7.191-1.145 3.914 0.05417 8.572 4.209 11.23a1 1 0 0 0 1.381-0.3021 1 1 0 0 0-0.3028-1.381c-3.422-2.189-4.293-5.82-3.367-8.984 0.9262-3.165 3.617-5.754 7.678-5.754 4.061 0 6.752 2.589 7.678 5.754 0.9262 3.165 0.0549 6.795-3.367 8.984a1 1 0 0 0-0.3028 1.381 1 1 0 0 0 1.381 0.3021c4.155-2.658 5.354-7.317 4.209-11.23-1.145-3.914-4.667-7.191-9.598-7.191h-6.72e-4zm-0.001342 4c-4.88 0.001154-7.728 5.694-4.799 9.6a1 1 0 0 0 1.4 0.2014 1 1 0 0 0 0.2014-1.401c-2.016-2.687-0.1602-6.4 3.199-6.4 3.359 0 5.215 3.713 3.199 6.4a1 1 0 0 0 0.2014 1.401 1 1 0 0 0 1.4-0.2014c2.929-3.905 0.08063-9.599-4.8-9.6h-6.71e-4 -6.71e-4zm0.001342 4c-1.093 0-1.999 0.9074-1.999 2 0 1.093 0.9068 2 1.999 2s2-0.9074 2-2c0-1.093-0.9074-2-2-2zm0 6c-0.4722 0-0.9574 0.1515-1.352 0.5015-0.3937 0.3499-0.6486 0.9153-0.6486 1.499a1 1 0 0 0 0.006042 0.1108l0.4962 4.466c3.6e-5 6.53e-4 -3.7e-5 6.43e-4 0 0.001343l0.004028 0.03357c0.03048 0.382 0.2128 0.7686 0.4861 1.012 0.2999 0.2666 0.6604 0.3773 1.008 0.3773s0.7084-0.1107 1.008-0.3773c0.2733-0.243 0.4556-0.6295 0.4861-1.012l0.004028-0.03357c3.7e-5 -6.53e-4 -3.6e-5 -0.001315 0-0.002015l0.4962-4.465a1 1 0 0 0 0.005371-0.1115c0-0.5833-0.2543-1.148-0.6479-1.498-0.3937-0.3499-0.8795-0.5015-1.352-0.5015z" fill="url(#a)"/>
</svg>
