<svg version="1.1" viewBox="0 0 64 64" xmlns="http://www.w3.org/2000/svg">
 <defs>
  <style>.cls-1{fill:none;stroke:#fff;stroke-linecap:round;stroke-linejoin:round;}</style>
  <style>.cls-1{fill:none;stroke:#fff;stroke-linecap:round;stroke-linejoin:round;}</style>
 </defs>
 <path transform="translate(-22.86 -22.86) scale(2.286)" d="m19 10c-5 0-9 4-9 9v5h6v-5c0-1.662 1.338-3 3-3h5v-6h-5z" fill="#d35244" stroke-linecap="round" stroke-linejoin="round" stroke-width="2"/>
 <path transform="translate(-22.86 -22.86) scale(2.286)" d="m24 10v6h5c1.662 0 3 1.338 3 3v5h6v-5c0-5-4-9-9-9h-5z" fill="#47b25b" stroke-linecap="round" stroke-linejoin="round" stroke-width="2"/>
 <path transform="translate(-22.86 -22.86) scale(2.286)" d="m24 10c-1.662 0-3 1.338-3 3s1.338 3 3 3 3-1.338 3-3-1.338-3-3-3z" fill="#d35244" stroke-linecap="round" stroke-linejoin="round" stroke-width="2"/>
 <path transform="translate(-22.86 -22.86) scale(2.286)" d="m10 24v5c0 5 4 9 9 9h5v-6h-5c-1.662 0-3-1.338-3-3v-5h-6z" fill="#ffcd4b" stroke-linecap="round" stroke-linejoin="round" stroke-width="2"/>
 <path transform="translate(-22.86 -22.86) scale(2.286)" d="m24 32c-1.662 0-3 1.338-3 3s1.338 3 3 3 3-1.338 3-3-1.338-3-3-3z" fill="#2e89e2" stroke-linecap="round" stroke-linejoin="round" stroke-width="2"/>
 <path transform="translate(-22.86 -22.86) scale(2.286)" d="m32 24v5c0 1.662-1.338 3-3 3h-5v6h5c5 0 9-4 9-9v-5h-6z" fill="#2e89e2" stroke-linecap="round" stroke-linejoin="round" stroke-width="2"/>
 <path transform="translate(-22.86 -22.86) scale(2.286)" d="m35 21c-1.662 0-3 1.338-3 3s1.338 3 3 3 3-1.338 3-3-1.338-3-3-3z" fill="#47b25b" stroke-linecap="round" stroke-linejoin="round" stroke-width="2"/>
 <path transform="translate(-22.86 -22.86) scale(2.286)" d="m13 21c-1.662 0-3 1.338-3 3s1.338 3 3 3 3-1.338 3-3-1.338-3-3-3z" fill="#ffcd4b" stroke-linecap="round" stroke-linejoin="round" stroke-width="2"/>
</svg>
