<svg version="1.1" viewBox="0 0 64 64" xmlns="http://www.w3.org/2000/svg">
 <defs>
  <linearGradient id="a" x2="0" y2="1">
   <stop stop-color="#ffc100" offset="0"/>
   <stop stop-color="#ff0069" offset="1"/>
  </linearGradient>
 </defs>
 <path transform="translate(.00293) scale(1) translate(-3.714 -3.709) scale(2.976)" d="m6.459 1.246c-0.08405 2.042e-4 -0.1686 0.003281-0.254 0.003281h-1.064c-0.301 0-0.5397-0.005428-0.8007 0.0315s-0.6161 0.1602-0.842 0.4437a0.7501 0.7501 0 0 0 0 0.001969c-0.2246 0.2833-0.2655 0.6628-0.2382 0.9254 0.02732 0.2626 0.09102 0.4901 0.1641 0.7757l0.5664 2.219a0.7501 0.7501 0 0 0 0 0.001969c0.06889 0.2676 0.1121 0.4704 0.2461 0.7049a0.7501 0.7501 0 0 0 0.001969 0.003938c0.3245 0.5609 0.7704 0.8949 1.098 1.184 0.3273 0.2886 0.5311 0.5067 0.6228 0.7757h-0.001969c0.07625 0.2247 0.04983 0.584-0.09122 1.557l-1.66 11.38h-1.206a0.75 0.75 0 0 0-0.7501 0.7501 0.75 0.75 0 0 0 0.7501 0.7501h1.823 0.063 14.23 0.06563 1.82a0.75 0.75 0 0 0 0.7495-0.7501 0.75 0.75 0 0 0-0.7495-0.7501h-1.204l-1.66-11.38c-0.142-0.9721-0.1678-1.329-0.09122-1.553a0.7501 0.7501 0 0 0 0-0.001969c0.09141-0.2688 0.2937-0.4863 0.6209-0.7751s0.7732-0.6247 1.098-1.187c0.1337-0.232 0.1788-0.4384 0.2461-0.7068l0.5683-2.221c0.0729-0.2856 0.1365-0.5103 0.1641-0.7731 0.02748-0.2623-0.01401-0.6447-0.2402-0.928-0.2258-0.2836-0.5785-0.4085-0.8394-0.4456-0.2615-0.03716-0.5008-0.03085-0.8013-0.03085h-1.064c-0.3425 0-0.6615-0.0449-1.047 0.2107s-0.469 0.573-0.5959 0.8847l-0.506 1.24c-0.02688 0.06585-0.05114 0.1176-0.07022 0.1562-0.04587 0.0034-0.1063 0.005907-0.1838 0.005907h-0.5132c-0.1029 0-0.1744-0.006843-0.2192-0.01181-0.01236-0.03964-0.02846-0.1001-0.0466-0.1897a0.7501 0.7501 0 0 0 0-0.001969l-0.1838-0.8926c-0.07956-0.3903-0.1877-0.7968-0.5624-1.094-0.3747-0.2969-0.7823-0.3104-1.172-0.3104h-1.391c-0.3897 0-0.7973 0.01347-1.172 0.3104-0.3747 0.2969-0.4828 0.7034-0.5624 1.094l-0.1818 0.8926c-0.01864 0.0908-0.03593 0.1518-0.04857 0.1916-0.04465 0.00496-0.1156 0.01181-0.2192 0.01181h-0.5132c-0.0771 0-0.138-0.002527-0.1838-0.005907-0.01877-0.03834-0.04181-0.08931-0.06825-0.1542a0.7501 0.7501 0 0 0-0.001969-0.001969l-0.506-1.238v-0.001969c-0.1271-0.3123-0.2111-0.6293-0.5959-0.8847-0.289-0.1918-0.5406-0.2153-0.7928-0.2146l-6.563e-4 -0.001969zm4.846 1.502h1.391c0.1022 0 0.1722 0.006593 0.2166 0.01181 0.01268 0.03978 0.02981 0.1015 0.04857 0.1936l0.1818 0.8926c0.07898 0.3899 0.1879 0.797 0.5624 1.094 0.375 0.2972 0.7838 0.3085 1.174 0.3085h0.5139c0.3416 0 0.6594 0.04663 1.045-0.2087 0.3853-0.2553 0.4704-0.573 0.5979-0.8853l0.506-1.242c0.02681-0.06584 0.05117-0.1176 0.07022-0.1562 0.04588-0.00341 0.1062-0.005907 0.1838-0.005907h1.064c0.1682 0 0.2253 0.006364 0.3301 0.009844-0.02175 0.09772-0.02744 0.1444-0.06629 0.2966l-0.5683 2.221a0.7501 0.7501 0 0 0 0 0.003938c-0.06593 0.2628-0.08978 0.3204-0.09188 0.3242-0.1396 0.2416-0.4247 0.4874-0.7915 0.8112-0.2462 0.2172-0.5323 0.4812-0.7626 0.8328h-9.818c-0.2302-0.3516-0.516-0.6151-0.7626-0.8328-0.3656-0.3224-0.6494-0.567-0.7895-0.8072v-0.001313l-0.001969-0.001969c-0.00252-0.0049-0.02644-0.06671-0.09385-0.3281v-0.001969l-0.5664-2.219c-0.03879-0.1517-0.04465-0.1999-0.06629-0.2973 0.1048-0.003444 0.1622-0.009844 0.3301-0.009844h1.064c0.07758 0 0.1379 0.002487 0.1838 0.005907 0.01906 0.0387 0.0434 0.09043 0.07022 0.1562a0.7501 0.7501 0 0 0 0 0.001969l0.506 1.24c0.1266 0.3112 0.2113 0.6275 0.5959 0.8827 0.3852 0.2556 0.7042 0.2107 1.047 0.2107h0.5139c0.3902 0 0.7992-0.01155 1.174-0.3085 0.3747-0.2969 0.4824-0.7039 0.5624-1.094l0.1818-0.8926c0.01876-0.09202 0.03588-0.1538 0.04856-0.1936 0.04443-0.00522 0.1144-0.01181 0.2166-0.01181zm-3.798 6.002h8.987c0.00968 0.3845 0.07933 0.8086 0.1569 1.339l0.02363 0.1608h-1.675a0.75 0.75 0 0 0-0.7501 0.7501 0.75 0.75 0 0 0 0.7501 0.7501h1.893l1.386 9.5h-2.665l-0.4889-2.436c-0.1431-0.7183-0.2051-1.181-0.5349-1.635-0.3553-0.4906-0.8818-0.7538-1.348-0.8519-0.4655-0.09806-0.8878-0.07812-1.243-0.0781h-6.57e-4c-0.3553-2.2e-5 -0.7785-0.01977-1.244 0.0781-0.4656 0.09792-0.9912 0.3604-1.347 0.8499a0.7501 0.7501 0 0 0-0.001969 0.001969c-0.3268 0.4527-0.3905 0.9161-0.5336 1.635l-0.4883 2.436h-2.663l1.097-7.523a0.75 0.75 0 0 0 0.1805 0.02231h2a0.75 0.75 0 0 0 0.7501-0.7501 0.75 0.75 0 0 0-0.7501-0.7501h-1.965l0.315-2.161c0.07706-0.5311 0.1468-0.9551 0.1569-1.339zm4.493 9c0.3826 0 0.7132-2.87e-4 0.9359 0.0466 0.2227 0.04689 0.3183 0.09438 0.441 0.2638a0.7501 0.7501 0 0 0 0.001969 0c0.05423 0.07457 0.1347 0.329 0.2776 1.047l0.4272 2.143h-4.167l0.4272-2.143c0.1429-0.7175 0.2224-0.9694 0.2796-1.049 0.1223-0.1673 0.2195-0.2153 0.441-0.2619 0.2227-0.04684 0.5533-0.0466 0.9359-0.0466z" fill="url(#a)"/>
</svg>
