<svg xmlns="http://www.w3.org/2000/svg" fill="none" viewBox="0 0 64 64"><defs><linearGradient id="a" x1="61.5" x2="106" y1="93" y2="77" gradientUnits="userSpaceOnUse"><stop offset="0" stop-color="#9000ff"/><stop offset="1" stop-color="#f0f"/></linearGradient><linearGradient id="c" x1="64" x2="64" y1="125" y2="3" gradientUnits="userSpaceOnUse"><stop offset="0" stop-color="#9000ff"/><stop offset="1" stop-color="#ff1fff"/></linearGradient></defs><path fill="url(#a)" d="M49.42 98.55a37.4 37.4 0 0 1-11.92-8.046 37.5 37.5 0 0 1-8.046-11.92c-.806-1.912-3.025-2.802-4.914-1.992a3.75 3.75 0 0 0-1.992 4.914 44.8 44.8 0 0 0 9.65 14.3 44.9 44.9 0 0 0 14.3 9.65 3.75 3.75 0 0 0 2.922-6.907zm56.03-52.05a44.8 44.8 0 0 0-9.65-14.3 44.9 44.9 0 0 0-14.3-9.65c-1.897-.802-4.109.077-4.914 1.992a3.75 3.75 0 0 0 1.992 4.914 37.4 37.4 0 0 1 11.92 8.046 37.5 37.5 0 0 1 8.046 11.92 3.75 3.75 0 0 0 6.907-2.922zm-41.46-8.749c-14.47 0-26.25 11.78-26.25 26.25s11.78 26.25 26.25 26.25 26.25-11.78 26.25-26.25-11.78-26.25-26.25-26.25m0 45c-10.34 0-18.75-8.412-18.75-18.75 0-10.34 8.412-18.75 18.75-18.75 10.34 0 18.75 8.412 18.75 18.75 0 10.34-8.412 18.75-18.75 18.75m0-30c-6.204 0-11.25 5.046-11.25 11.25s5.046 11.25 11.25 11.25 11.25-5.046 11.25-11.25-5.046-11.25-11.25-11.25m0 15c-2.069 0-3.75-1.681-3.75-3.75s1.681-3.75 3.75-3.75 3.75 1.681 3.75 3.75-1.681 3.75-3.75 3.75" transform="translate(-1.556 -1.202)scale(.5188)"/><path fill="url(#c)" d="M125 64c0-13.57-4.525-26.75-12.86-37.46A61.03 61.03 0 0 0 78.98 4.87a61.014 61.014 0 0 0-68.63 30.085 61 61 0 0 0-6.53 39.07 60.98 60.98 0 0 0 18.84 34.84 60.95 60.95 0 0 0 36.27 15.92 61 61 0 0 0 38.4-9.708l-5.442-8.338c-9.51 6.207-20.82 9.065-32.13 8.123s-22-5.631-30.35-13.32a51.06 51.06 0 0 1-15.77-29.16 51.03 51.03 0 0 1 29.854-55.13 51.04 51.04 0 0 1 33.03-2.732A51.039 51.039 0 0 1 115.032 64h9.957z" transform="translate(-1.556 -1.202)scale(.5188)"/><path fill="#ff0046" stroke="#ff0046" stroke-width=".5188" d="m50.895 27.109-.357.355c.643 1.079 1.09 2.282.986 3.508v.003c-.15 2.082-1.5 3.89-3.112 5.22-1.975 1.5-3.424 3.715-3.91 6.163l-.001.005a10.93 10.93 0 0 0 .726 6.23l.003.006.033.073c.056.124.125.277.213.41.109.164.262.327.492.412.342.166.733.149 1.057.01.327-.141.612-.417.714-.795a1.06 1.06 0 0 0 0-.632 3 3 0 0 0-.16-.42l-.034-.077-.002-.004-.001-.004c-.497-1.055-.683-2.242-.694-3.424-.01-2.213 1.137-4.35 2.846-5.748 1.77-1.37 3.292-3.195 3.985-5.38a1 1 0 0 1 .08-.171c.735.856 1.29 1.873 1.549 2.962.265 1.096.06 2.273-.465 3.28-.371.705-.764 1.399-1.158 2.097l-.113.2a64 64 0 0 0-1.265 2.323l-.067.13.076.123.172.285.106.179.197-.065c.725-.239 1.432-.521 2.129-.809l.45-.186c.545-.226 1.086-.451 1.634-.658a7.3 7.3 0 0 0 3.023-2.077l.057.003h.009c.298.626.578 1.245.774 1.891v.005a7.06 7.06 0 0 1-.171 4.734v.002c-.674 1.73-2.07 3.16-3.777 3.894l-.002.001c-2.034.9-4.498.782-6.418-.347-.327-.208-.842-.432-1.33-.16-.445.208-.675.662-.7 1.095-.024.438.156.916.604 1.16a9.7 9.7 0 0 0 6.127 1.297c2.604-.28 5.042-1.704 6.604-3.799 1.637-2.16 2.27-5.025 1.723-7.673l-.001-.003c-.532-2.443-1.825-4.705-3.63-6.427a.5.5 0 0 0-.56-.179.49.49 0 0 0-.344.497c-.04.876-.313 1.733-.89 2.366a8 8 0 0 0-.19.2l-.075.081c-.09.094-.174.18-.26.253a1.2 1.2 0 0 1-.202.14 7 7 0 0 1 .178-.556c.1-.29.211-.607.258-.945.43-2.088-.226-4.24-1.372-5.95-1.416-2.115-3.391-3.804-5.546-5.104z"/></svg>