<svg version="1.1" viewBox="0 0 64 64" xmlns="http://www.w3.org/2000/svg">
 <defs>
  <linearGradient id="b" x1="1" x2="0" y2="1">
   <stop stop-color="#fff44f" offset="0"/>
   <stop stop-color="#ffe847" offset=".06"/>
   <stop stop-color="#ffc830" offset=".168"/>
   <stop stop-color="#ff980e" offset=".304"/>
   <stop stop-color="#ff8b16" offset=".356"/>
   <stop stop-color="#ff672a" offset=".455"/>
   <stop stop-color="#ff3647" offset=".57"/>
   <stop stop-color="#e31587" offset=".737"/>
  </linearGradient>
  <linearGradient id="a" y1="1">
   <stop stop-color="#07f" offset="0"/>
   <stop stop-color="#00f7ff" offset="1"/>
  </linearGradient>
 </defs>
 <path transform="translate(-6.4e-5 -.001) scale(.9997) matrix(1.143 0 0 1.143 -4.569 -4.571)" d="m14.72 19.23a16.24 16.24 0 0 0 4.477 21.19 12.4 12.4 0 0 1-3.074-15.95 12.4 12.4 0 0 1 16.94-4.54 12.4 12.4 0 0 1 4.54 16.94 12.4 12.4 0 0 1-15.35 5.315 16.24 16.24 0 0 0 20.59-6.716 16.24 16.24 0 0 0-5.943-22.18 16.24 16.24 0 0 0-22.18 5.943z" fill="url(#a)" fill-rule="evenodd" style="paint-order:stroke fill markers"/>
 <path transform="translate(-6.4e-5 -.001) scale(.9997) matrix(1.143 0 0 1.143 -4.569 -4.571)" d="m12.69 4c-0.756 0.046-1.57 0-2.46 0.618-7.958 3.424-2.62 12.82 7.522 19.97 0.062-1.348 0.622-4.282 0.608-5.574-8.654-5.934-13.72-11.71-8.202-14 5.816-2.414 7.622 4.176 7.724 13.74 0.542 0.562 4.294 3.054 4.864 3.448-0.212-8.724-4.848-17.63-9.304-18.14-0.238-0.046-0.5-0.046-0.752-0.046m8.102 15.18-1.81-0.706-1.5 1.012-0.304 3.182 1.896 1.454 0.788 1.056c5.838 3.874 10.81 6.858 17.36 9.322l4.08 0.606h2.684c2.476-1.46 1-2.022 9.994-3.144l-10.14 0.786c-7.818-3.03-15.8-7.384-23.05-12.13m17.84 12.7c1.172 0 10.32-0.794 13.96-1.13 3.6-0.562 8.024-0.73 7.186 3.48 0.952-2.244-1.218-6.056-4.306-6.728-4.774-1.068-12.35 1.858-15.07 2.756m4.388 1.166c-1.42 0.562-4.664 0.966-6.196 1.472 2.172 1.124 13.08 5.15 17.58 4.306 0.72 0 3.76-2.186 3.834-3.758-0.234 2.862-13.56 0.728-15.22-2.078m2.966 0.04999c-1.168-0.56-6.64-0.532-7.844-0.98-6.85 2.396-16.07 8.022-22.66 11.82l-1.91 0.562c-0.37 2.62-1.984 3.522-3.456 5.22l2.232 2.246 1.746-2.864c7.72-4.658 21.8-12.08 30.71-15.69m-30.71 15.69c-0.944 0.562-1.846 1.124-2.7 1.684-1.98 5.618-4.288 9.402-6.492 9.24 3.406 1.628 10.74-6.394 13.21-13.94m-13.21 13.94c-5.194-3.088 5.8-8.714 8.27-10.35 0.554-1.57-0.9835-3.375-0.4875-5.227-7.754 4.828-12.32 11.01-9.716 14.32 0.626 0.786 1.29 1.18 1.948 1.236m7.544-11.76c0.36-1.446 5.15-4.736 6.014-5.242 1.158-9.122 1.214-10.02 2.198-17.11-0.588-0.562-4.21-3.384-4.772-3.776-0.694 7.578-2.002 17.85-3.852 24.71" fill="url(#b)" stroke-width="2" style="isolation:isolate"/>
</svg>
