<svg version="1.1" viewBox="0 0 64 64" xmlns="http://www.w3.org/2000/svg">
 <defs>
  <linearGradient id="a" y1="1">
   <stop stop-color="#f0f" offset="0"/>
   <stop stop-color="#c299ff" offset="1"/>
  </linearGradient>
  <linearGradient id="b" y1=".5" y2=".5">
   <stop stop-color="#f6ff24" offset="0"/>
   <stop stop-color="#ffbb24" offset="1"/>
  </linearGradient>
 </defs>
 <path transform="translate(-.00032 .00072) scale(.9999) translate(-2.455 -.498) scale(1.036)" d="M33.26.48C16.18.48 2.37 14.3 2.37 31.37c0 17.08 13.82 30.89 30.89 30.89 17.08 0 30.89-13.82 30.89-30.89C64.15 14.29 50.33.48 33.26.48m0 4.575c14.62 0 26.32 11.7 26.32 26.32s-11.7 26.32-26.32 26.32-26.32-11.7-26.32-26.32 11.7-26.32 26.32-26.32" fill="url(#a)"/>
 <path transform="translate(-.00032 .00072) scale(.9999) translate(-2.455 -.498) scale(1.036)" d="M23.53 13.66a1.41 1.41 0 0 0-1.262.783l-8.465 16.93a1.41 1.41 0 0 0 .635 1.89 1.41 1.41 0 0 0 1.889-.634l2.432-4.86h9.545l2.393 4.784.008.016.029.068 7.055 14.1a1.41 1.41 0 0 0 2.596-.162l3.604-10.3 3.604 10.3a1.41 1.41 0 0 0 2.644.057l5.646-14.1a1.41 1.41 0 0 0-.79-1.836 1.41 1.41 0 0 0-1.835.789l-4.244 10.61-3.693-10.56a1.41 1.41 0 0 0-1.332-.941 1.41 1.41 0 0 0-1.332.941l-3.836 10.97-5.512-11.02-.002-.006a1 1 0 0 0-.047-.101l-8.467-16.93a1.41 1.41 0 0 0-1.26-.784zm.002 4.56 3.361 6.727h-6.725z" fill="url(#b)"/>
 <path transform="translate(-.00032 .00072) scale(.9999) translate(-2.455 -.498) scale(1.036)" d="M40.43 19.3a1.4 1.4 0 0 0-.182.018 1.4 1.4 0 0 0-.931.546l-6.068 8.092a4.2 4.2 0 0 0-1.254-.19 4.233 4.233 0 0 0-4.232 4.231 4.23 4.23 0 0 0 .664 2.277l-11.72 10.6a.705.705 0 0 0-.05.996.705.705 0 0 0 .997.051l11.72-10.6a4.23 4.23 0 0 0 2.623.91 4.233 4.233 0 0 0 4.234-4.234 4.23 4.23 0 0 0-.715-2.352l6.062-8.084a1.41 1.41 0 0 0-.28-1.98 1.4 1.4 0 0 0-.866-.281z" fill="url(#a)"/>
</svg>
