<svg xmlns="http://www.w3.org/2000/svg" viewBox="0 0 64 64"><path d="M3.931 64.012h12.353l15.722-34.813 15.722 34.813h12.353L38.744 16.846H25.268z" opacity=".2"/><path fill="#57b3c8" d="M3.931 62.889h12.353l15.722-34.813 15.722 34.813h12.353L38.744 15.723H25.268z"/><path fill="#fff" d="M25.268 15.723 3.931 62.889h.509L25.27 16.846h13.476L59.58 62.889h.509L38.751 15.723H25.275z" opacity=".1"/><path d="M14.038 1.124A13.447 13.447 0 0 0 .562 14.6v23.583c0 7.466 6.01 13.476 13.476 13.476h35.936c7.466 0 13.476-6.01 13.476-13.476V14.6c0-7.466-6.01-13.476-13.476-13.476h-7.861v12.353h2.246a6.723 6.723 0 0 1 6.738 6.738v12.353a6.723 6.723 0 0 1-6.738 6.738H19.653a6.723 6.723 0 0 1-6.738-6.738V20.215a6.723 6.723 0 0 1 6.738-6.738h2.246V1.124z" opacity=".2"/><path fill="#69cbde" d="M14.038.001A13.447 13.447 0 0 0 .562 13.477V37.06c0 7.466 6.01 13.476 13.476 13.476h35.936c7.466 0 13.476-6.01 13.476-13.476V13.477C63.45 6.011 57.44.001 49.974.001h-7.861v12.353h2.246a6.723 6.723 0 0 1 6.738 6.738v12.353a6.723 6.723 0 0 1-6.738 6.738H19.653a6.723 6.723 0 0 1-6.738-6.738V19.092a6.723 6.723 0 0 1 6.738-6.738h2.246V.001z"/><path fill="#fff" d="M14.038.001A13.447 13.447 0 0 0 .562 13.477V14.6c0-7.466 6.01-13.476 13.476-13.476h7.861V.001zm28.075 0v1.123h7.861c7.466 0 13.476 6.01 13.476 13.476v-1.123C63.45 6.011 57.44.001 49.974.001zM12.915 31.445v1.123a6.723 6.723 0 0 0 6.738 6.738h24.706a6.723 6.723 0 0 0 6.738-6.738v-1.123a6.723 6.723 0 0 1-6.738 6.738H19.653a6.723 6.723 0 0 1-6.738-6.738" opacity=".2"/></svg>