<svg xmlns="http://www.w3.org/2000/svg" style="isolation:isolate" viewBox="0 0 64 64"><linearGradient id="a" x1=".103" x2=".894" y1=".728" y2=".257" gradientTransform="matrix(0 -41.15 47.15 0 .57 44.58)" gradientUnits="userSpaceOnUse" transform="translate(-.774 -.577)scale(1.357)"><stop offset="0" stop-color="#f96"/><stop offset=".983" stop-color="#ff5e62"/></linearGradient><path fill="url(#a)" fill-rule="evenodd" d="M42.83 22.7a3.3 3.3 0 0 1-.721-.839l-7.026-12.02-4.312 8.104-.95 1.77-3.53-1.89.94-1.76 4.4-8.252h-13.07l3.883 7.252.94 1.76-3.53 1.89-.94-1.77-4.178-7.813-8.661 13.27h6.929v4H6.369l2.644 5.614c.708.986.484 2.358-.499 3.063s-2.355.477-3.063-.51L.955 26.02c-.563-1.071-.493-2.769.156-3.79l10.78-16.95c.649-1.021 2.158-1.85 3.368-1.85h19.81c1.21 0 2.662.862 3.241 1.924l8.928 16.38c.191.35.263.681.231.967h.261c0 2.208-.896 4-2 4H34.57v-4h8.269zM16.24 40.19h15.04l-4.073-8.312-.88-1.8 3.6-1.76 5.134 10.5 4.781-6.826a2.203 2.203 0 0 1 3.014-.745 2.19 2.19 0 0 1 .745 3.003l-5.8 8.513c-.681 1-2.216 1.811-3.426 1.811H13.007c-2.208 0-3.123-1.563-2.042-3.488l.672-1.198 6.71-10 1.11-1.67 3.33 2.23-1.12 1.66-5.423 8.082z" transform="translate(-.774 -.577)scale(1.357)"/><linearGradient id="b" x1=".221" x2=".902" y1=".047" y2=".906" gradientTransform="matrix(29.46 0 0 17.56 9.269 15.22)" gradientUnits="userSpaceOnUse" transform="translate(-.774 -.577)scale(1.357)"><stop offset=".026" stop-color="#edb8d4"/><stop offset=".987" stop-color="#a26ef5"/></linearGradient><path fill="url(#b)" d="M24 15.22c-5.629 0-10.73 3.08-14.5 8.082-.308.41-.308.982 0 1.392 3.766 5.008 8.871 8.088 14.5 8.088s10.73-3.08 14.5-8.082c.308-.41.308-.982 0-1.392C34.734 18.3 29.629 15.22 24 15.22m.404 14.96a6.2 6.2 0 0 1-6.587-6.587c.192-3.086 2.693-5.587 5.779-5.779a6.2 6.2 0 0 1 6.587 6.587c-.198 3.079-2.7 5.581-5.779 5.779m-.187-2.856a3.332 3.332 0 0 1-3.544-3.544c.103-1.663 1.453-3.007 3.116-3.116a3.332 3.332 0 0 1 3.544 3.544 3.35 3.35 0 0 1-3.116 3.116" transform="translate(-.774 -.577)scale(1.357)"/><linearGradient id="d" x1="0" x2="1" y1=".5" y2=".5" gradientTransform="matrix(7 0 0 7 20.5 20.5)" gradientUnits="userSpaceOnUse" transform="translate(-.774 -.577)scale(1.357)"><stop offset="0" stop-color="#00c6ff"/><stop offset=".987" stop-color="#0072ff"/></linearGradient><path fill="url(#d)" d="M20.5 24c0-1.932 1.568-3.5 3.5-3.5s3.5 1.568 3.5 3.5-1.568 3.5-3.5 3.5-3.5-1.568-3.5-3.5" transform="translate(-.774 -.577)scale(1.357)"/></svg>