<svg xmlns="http://www.w3.org/2000/svg" viewBox="0 0 64 64"><defs><linearGradient id="a" x1="1" x2="0" y1=".5" y2=".5"><stop offset="0" stop-color="#a900ff"/><stop offset="1" stop-color="#00ff85"/></linearGradient></defs><path fill="url(#a)" d="M19.69.092A2 2 0 0 0 17.954 1.1L.364 31.87a2 2 0 0 0-.264.992v10.41a4.63 4.63 0 0 0 4.63 4.629h38.56a4.63 4.63 0 0 0 4.628-4.629V4.712A4.63 4.63 0 0 0 43.29.083zm1.16 4h5.586l-12.83 22.44a2 2 0 0 0 .01 2c0 .002 8.963 15.37 8.963 15.37H4.729a.63.63 0 0 1-.63-.63v-9.88zm10.19 0h12.24a.63.63 0 0 1 .629.629v23.46h-7.512l-9.66-16.56zm-6.592 11.53 7.32 12.56h-9.734a2.764 2.764 0 0 1-2.4-4.135l4.813-8.42zm-4.084 16.56h23.55v11.1a.63.63 0 0 1-.629.629h-16.08z" transform="translate(-.134 -.111)scale(1.338)"/></svg>