<svg xmlns="http://www.w3.org/2000/svg" viewBox="0 0 64 64"><defs><linearGradient id="a" x1="2.366" x2="17.25" y1="18.77" y2=".959" gradientUnits="userSpaceOnUse"><stop offset="0" stop-color="#fe0844"/><stop offset="1" stop-color="#fed602"/></linearGradient><linearGradient id="d" x1="4.414" x2="8.691" y1="11.66" y2="7.828" gradientTransform="translate(2.508 -5.919)scale(2.707)" gradientUnits="userSpaceOnUse"><stop offset="0" stop-color="#02aa93"/><stop offset="1" stop-color="#67ff80"/></linearGradient><linearGradient id="b" x1="9" x2="16" y1="6" y2="6" gradientTransform="translate(7.959 1.894)scale(2.766)" gradientUnits="userSpaceOnUse"><stop offset="0" stop-color="#5570ff"/><stop offset="1" stop-color="#4dd3ff"/></linearGradient><linearGradient id="e" x1="12.46" x2="27.97" y1="46.79" y2="33.22" gradientUnits="userSpaceOnUse"><stop offset="0" stop-color="#8d01a2"/><stop offset="1" stop-color="#ff33db"/></linearGradient></defs><path fill="url(#a)" d="M6 0a6 6 0 0 0-6 6v8a6 6 0 0 0 6 6h8a6 6 0 0 0 6-6V6a6 6 0 0 0-6-6zm0 2h8a4 4 0 0 1 4 4v8a4 4 0 0 1-4 4H6a4 4 0 0 1-4-4V6a4 4 0 0 1 4-4" transform="scale(3.2)"/><path fill="url(#b)" d="M35.62 43.2a2.766 2.766 0 0 0 0 5.532h13.83a2.766 2.766 0 0 0 0-5.532z" style="-inkscape-stroke:none;font-variation-settings:normal"/><path fill="url(#d)" d="M26.04 15.27a2.7 2.7 0 0 0-2.009.788l-5.742 5.747-1.914-1.914a2.707 2.707 0 0 0-3.828 3.828l3.828 3.828a2.707 2.707 0 0 0 3.828 0l7.656-7.656a2.707 2.707 0 0 0-1.819-4.621z"/><path fill="url(#b)" d="M35.62 15.73a2.766 2.766 0 0 0 0 5.532h13.83a2.766 2.766 0 0 0 0-5.532z"/><path fill="url(#e)" d="M14.4 33.22a1.94 1.94 0 0 0-1.938 1.938v11.63a1.94 1.94 0 0 0 1.938 1.938h11.63a1.94 1.94 0 0 0 1.938-1.938v-11.63a1.94 1.94 0 0 0-1.938-1.938zm1.938 3.876h7.752v7.752h-7.752z"/><path fill="url(#b)" d="M35.62 29.46a2.766 2.766 0 0 0 0 5.532h13.83a2.766 2.766 0 0 0 0-5.532z" style="-inkscape-stroke:none;font-variation-settings:normal"/></svg>