<svg version="1.1" viewBox="0 0 64 64" xmlns="http://www.w3.org/2000/svg">
 <defs>
  <linearGradient id="a" x1="1" x2="0" y1=".5" y2=".5">
   <stop stop-color="#f40631" offset="0"/>
   <stop stop-color="#f70fa8" offset="1"/>
  </linearGradient>
 </defs>
 <path transform="translate(-.002131 .000486) scale(1) translate(-4.502 -4.497) scale(4.563)" d="M10.06.986C8.596.955 7.648 2.194 7.472 2.964c-.706 2.503-2.514 3.973-4.522 4.51a2.65 2.65 0 0 0-1.871 3.244 2.647 2.647 0 0 0 3.242 1.871c2.29-.585 4.472-.008 6.176 1.654.776.778 2.502 1.242 3.744 0 1.236-1.236.79-2.936.004-3.744-1.697-1.742-2.226-3.935-1.654-6.176.343-1.46-.45-2.862-1.873-3.242a2.8 2.8 0 0 0-.658-.095zm-1.484 5.11a2.593 2.593 0 0 1 2.607 3.26 2.59 2.59 0 1 1-2.608-3.26z" fill="url(#a)"/>
</svg>
