<svg version="1.1" viewBox="0 0 64 64" xmlns="http://www.w3.org/2000/svg">
 <defs>
  <linearGradient id="a" x2="0" y1="1">
   <stop stop-color="#feaa00" offset="0"/>
   <stop stop-color="#fd0575" offset=".5"/>
   <stop stop-color="#7b31fe" offset="1"/>
  </linearGradient>
 </defs>
 <path transform="translate(-.003 .004499) scale(.9998) translate(-.004207 -.0016)" d="m22.31 8.727a0.9698 0.9698 0 0 0-0.0059 0.00586c-4.065 0.00469-7.302 2.88-8.252 6.639-3.685 1.076-6.921 3.562-8.381 7.455a0.9698 0.9698 0 0 0-0.08789 0.0625l-4.107 11.52c-6.202e-4 0.0013 6.198e-4 0.0026 0 0.0039-0.9579 1.968-1.461 4.126-1.469 6.314a0.9698 0.9698 0 0 0 0 0.0039c0 8.003 6.544 14.55 14.55 14.55 6.715 0 12.23-4.672 13.88-10.88 1.051 0.6833 2.232 1.188 3.574 1.188s2.519-0.5042 3.57-1.188c1.655 6.214 7.17 10.88 13.89 10.88 8.003 0 14.55-6.544 14.55-14.55 0-2.001-0.4074-3.918-1.148-5.66l-0.0039-0.01172c-5.55e-4 -0.0013-0.0014-0.0026-2e-3 -0.0039l-4.418-12.35a0.9698 0.9698 0 0 0-0.0039-0.0059v0.2129a0.9698 0.9698 0 0 0-0.06055-0.3066 0.9698 0.9698 0 0 0-0.1856-0.2812l0.1016 0.0957c-1.501-3.516-4.649-5.965-8.324-7.051-0.9506-3.759-4.19-6.641-8.262-6.641-3.767 0-6.805 2.48-8.01 5.818h-3.373c-1.194-3.309-4.195-5.758-7.914-5.801a0.9698 0.9698 0 0 0-0.0332-0.01562v0.00977c-0.02266-1.77e-4 -0.04174-0.01172-0.06445-0.01172zm-0.207 0.08984a0.9698 0.9698 0 0 0-0.4668 0.5644l2e-3 -0.375v-0.00195zm0.209 5.734h0.0039c0.933 7.06e-4 1.629 0.3033 2.117 0.791 0.4872 0.4877 0.7891 1.183 0.7891 2.117v1.941a0.9698 0.9698 0 0 0 0.9707 0.9688h11.64a0.9698 0.9698 0 0 0 0.9707-0.9688v-1.941c0-0.934 0.3014-1.631 0.7891-2.119 0.4876-0.4878 1.184-0.7891 2.119-0.7891s1.633 0.3014 2.121 0.7891c0.4878 0.4876 0.7891 1.184 0.7891 2.119v1.756a0.9698 0.9698 0 0 0 0.8691 0.9648l1.758 0.1816c2.496 0.262 4.709 2.044 5.695 4.328a0.9698 0.9698 0 0 0 0.03516 0.07031c6e-5 1.55e-4 0.0051 0.01022 0.0059 0.01172l0.7676 2.178c-1.386-0.445-2.809-0.7566-4.273-0.7656a0.9698 0.9698 0 0 0-0.0059 0c-5.605 0-10.36 3.286-12.78 7.961-1.264-1.255-2.854-2.14-4.672-2.139-1.82-0.0013-3.411 0.8853-4.674 2.143-2.424-4.674-7.178-7.961-12.78-7.961-1.47 0-2.859 0.2972-4.197 0.7109l0.7441-2.012a0.9698 0.9698 0 0 0 0.01367-0.08203c1.015-2.682 3.019-4.162 5.662-4.441l1.758-0.1816a0.9698 0.9698 0 0 0 0.8691-0.9648v-1.756c0-0.933 0.3002-1.631 0.7871-2.119 0.4866-0.4873 1.185-0.7895 2.117-0.791zm-7.758 17.46c4.86 0 8.728 3.869 8.728 8.728s-3.869 8.728-8.728 8.728-8.728-3.869-8.728-8.728c0-1.214 0.2972-2.342 0.7695-3.438 0.08359-0.1933 0.1197-0.3027 0.1211-0.3301v-0.0039h-0.00586c1.441-3.026 4.484-4.96 7.844-4.957zm34.91 0c4.86 0 8.728 3.869 8.728 8.728s-3.869 8.728-8.728 8.728-8.727-3.869-8.727-8.728 3.867-8.728 8.727-8.728zm-17.46 5.82c0.5941 0 0.9688 0.3746 0.9688 0.9688s-0.3746 0.9707-0.9688 0.9707-0.9707-0.3766-0.9707-0.9707 0.3766-0.9688 0.9707-0.9688z" fill="url(#a)"/>
 <path transform="translate(-.003 .004499) scale(.9998) translate(-.004207 -.0016) scale(1)" d="m49.54 33.91c-2.336 0-4.671 1.001-6.172 2.836-0.6677 0.6677-0.5017 1.668 0.166 2.336 0.6672 0.6672 1.668 0.4997 2.336-0.168 2.002-2.169 5.506-2.169 7.508 0 0.3336 0.3341 0.8344 0.502 1.168 0.502s0.8339-0.1684 1.168-0.502c0.6672-0.5004 0.6672-1.5 0-2.168-1.668-1.835-3.838-2.836-6.174-2.836z" fill="#FF8000"/>
 <path transform="translate(-.003 .004499) scale(.9998) translate(-.004207 -.0016) scale(1)" d="m14.53 33.91c-2.336 0-4.671 1.001-6.172 2.836-0.6677 0.6677-0.5017 1.668 0.166 2.336 0.6672 0.6672 1.668 0.4997 2.336-0.168 2.002-2.169 5.506-2.169 7.508 0 0.3336 0.3341 0.8344 0.502 1.168 0.502s0.8339-0.1684 1.168-0.502c0.6672-0.5004 0.6672-1.5 0-2.168-1.668-1.835-3.838-2.836-6.174-2.836z" fill="#FF8000"/>
</svg>
