<svg xmlns="http://www.w3.org/2000/svg" viewBox="0 0 64 64"><defs><linearGradient id="b" x2="0" y2="1"><stop offset="0" stop-color="#f75050"/><stop offset="1" stop-color="#a00909"/></linearGradient><linearGradient id="a" x2="0" y2="1"><stop offset="0" stop-color="#f6ff24"/><stop offset="1" stop-color="#ffbb24"/></linearGradient></defs><path fill="url(#a)" d="M124 36c-8.836 0-16 7.387-16 16.5v99c0 9.113 7.16 16.5 16 16.5h16.01c8.836 0 16-7.387 16-16.5v-99c0-9.113-7.16-16.5-16-16.5z" transform="translate(-7.384 -7.384)scale(.2051)"/><path fill="url(#a)" d="M244 36c-8.836 0-16 7.387-16 16.5v99c0 9.113 7.16 16.5 16 16.5h16.01c8.836 0 16-7.387 16-16.5v-99c0-9.113-7.16-16.5-16-16.5z" transform="translate(-7.384 -7.384)scale(.2051)"/><path fill="url(#b)" d="M88 156c-8.836 0-16 7.16-16 16v160c0 8.836 7.16 16 16 16h208c8.836 0 16-7.16 16-16V172c0-8.836-7.16-16-16-16z" transform="translate(-7.384 -7.384)scale(.2051)"/></svg>