<svg version="1.1" viewBox="0 0 64 64" xmlns="http://www.w3.org/2000/svg">
 <defs>
  <linearGradient id="a" x1="1" x2="0" y1=".5" y2=".5">
   <stop stop-color="#00f4ff" offset="0"/>
   <stop stop-color="#0037dc" offset="1"/>
  </linearGradient>
 </defs>
 <path transform="translate(0 -3e-5) scale(1)" d="m31.99 2.945c-1.808 0-3.597 0.1785-5.346 0.5254 1.844 1.014 3.551 2.371 5.109 3.941a23.06 23.06 0 0 1 16.55 6.756 23.06 23.06 0 0 1 5.963 10.31c1.762 0.5391 3.408 1.086 4.908 1.621a27.53 27.53 0 0 0-27.19-23.15z" fill="url(#a)" style=""/>
 <path transform="translate(0 -3e-5) scale(1)" d="m19.34 1.521a2.988 2.988 0 0 0-1.475 0.3984c-9.073 5.238-14.53 14.38-15.47 24.09 1.887-2.072 4.307-3.568 6.98-4.611 1.765-5.553 5.456-10.52 10.77-13.83l-0.0039 0.00781c2.64 0.243 5.238 1.715 7.863 4.521 1.931 2.064 3.788 4.767 5.5 7.838 2.459 0.3141 4.912 0.7172 7.312 1.184-2.371-4.969-5.145-9.548-8.463-13.09-3.564-3.81-7.958-6.533-13.02-6.51zm18.05 26.56c3.435 8.382 5.695 17.38 6.814 23.68 1.982-1.147 3.793-2.553 5.369-4.193-1.123-5.293-2.861-11.67-5.201-18-2.253-0.553-4.598-1.061-6.982-1.494zm-29.14 2.67c-0.2516 0.2544-0.4828 0.5202-0.6934 0.7969 0.5699 13.09 11.21 23.49 24.45 23.49 4.438 0 8.573-1.183 12.14-3.234-11.79 5.515-25.93 1.326-32.56-10.16-1.995-3.455-3.082-7.174-3.336-10.89z" fill="url(#a)" style=""/>
 <path transform="translate(0 -3e-5) scale(1)" d="m21.34 19.25c-2.862 0.09099-5.626 0.4029-8.227 1.008-5.202 1.21-9.982 3.747-12.62 8.371l-0.4902 0.8613v0.9844c0 17.63 14.37 32 32 32s32-14.37 32-32v-0.5391a2.929 2.929 0 0 0-1.863-2.729l-0.502-0.1953c-7.261-2.84-19.56-6.344-31.49-7.447-2.983-0.276-5.94-0.4064-8.801-0.3145zm0.2344 7.451c2.483-0.07999 5.146 0.02046 7.879 0.2734 9.83 0.9079 20.04 3.736 26.84 6.15-1.33 12.33-11.6 21.91-24.29 21.91-13.24 0-23.88-10.4-24.45-23.49 1.418-1.863 3.746-3.224 7.25-4.039 1.996-0.465 4.296-0.7227 6.777-0.8027z" fill="url(#a)" style=""/>
</svg>
