<svg xmlns="http://www.w3.org/2000/svg" style="isolation:isolate" viewBox="0 0 64 64"><linearGradient id="a" x2="1.192" y1=".5" y2=".512" gradientTransform="matrix(43 0 0 40 2.5 4)" gradientUnits="userSpaceOnUse" transform="translate(-3.721 -3.721)scale(1.488)"><stop offset="0" stop-color="#5800e2"/><stop offset="1" stop-color="#ff00e6"/></linearGradient><path fill="url(#a)" fill-rule="evenodd" d="M13.5 8a2 2 0 0 0 0-4h-6c-2.76 0-5 2.24-5 5v5a2 2 0 0 0 4 0v-3c0-1.656 1.344-3 3-3zm28 13a2 2 0 0 0 4 0V9c0-2.76-2.24-5-5-5h-18a2 2 0 0 0 0 4h16c1.656 0 3 1.344 3 3zm-11 11a2 2 0 0 1 0-4h10c2.76 0 5 2.24 5 5v6c0 2.76-2.24 5-5 5h-33c-2.76 0-5-2.24-5-5V24a2 2 0 0 1 4 0v13c0 1.656 1.344 3 3 3h29c1.656 0 3-1.344 3-3v-2c0-1.656-1.344-3-3-3z" transform="translate(-3.721 -3.721)scale(1.488)"/><linearGradient id="b" x2=".886" y1=".5" y2=".603" gradientTransform="matrix(19.36 0 0 19.15 7.82 12.22)" gradientUnits="userSpaceOnUse" transform="translate(-3.721 -3.721)scale(1.488)"><stop offset="0" stop-color="#ffe53b"/><stop offset=".987" stop-color="#ff005b"/></linearGradient><path fill="url(#b)" d="M12.29 29.58c-.496.988-1.7 1.389-2.685.895S8.219 28.782 8.71 27.8l6.825-12.1c1.085-1.923 2.846-1.923 3.931 0l6.824 12.1c.491.982.09 2.181-.895 2.675s-2.188.093-2.685-.895l-5.21-8.42z" transform="translate(-3.721 -3.721)scale(1.488)"/><linearGradient id="d" x1="1" x2=".038" y1="1" y2="-.149" gradientTransform="matrix(6.712 4.713 -6.435 9.164 17.22 23.8)" gradientUnits="userSpaceOnUse" transform="translate(-3.721 -3.721)scale(1.488)"><stop offset="0" stop-color="#00c4ff"/><stop offset=".839" stop-color="#0072ff"/></linearGradient><path fill="url(#d)" d="m18.12 24.79 2.939 3.768c.339.435.414 1.19.167 1.683l-3.274 6.548c-.246.494-.647.494-.894 0l-3.274-6.548c-.247-.493-.171-1.248.168-1.683l2.938-3.768c.34-.436.891-.436 1.23 0" transform="translate(-3.721 -3.721)scale(1.488)"/></svg>