<svg fill="none" version="1.1" viewBox="0 0 64 64" xmlns="http://www.w3.org/2000/svg">
 <defs>
  <linearGradient id="a" x1="64" x2="64" y1="119" y2="9" gradientUnits="userSpaceOnUse">
   <stop stop-color="#ff002e" offset="0"/>
   <stop stop-color="#f09" offset="1"/>
  </linearGradient>
 </defs>
 <path transform="translate(.01413 -.005574) scale(.9996) translate(-4.577 -4.568) scale(.5713)" d="M64 47.89a3.22 3.22 0 0 0-3.223 3.223v14.78l-11.95 11.95c-1.259 1.259-1.259 3.298 0 4.557s3.298 1.259 4.557 0l12.89-12.89a3.22 3.22 0 0 0 .944-2.278v-16.11a3.22 3.22 0 0 0-3.223-3.223zm49.34-33.22c-7.307-7.308-20.03-7.308-27.34 0a3.22 3.22 0 0 0 0 4.557l9.114 9.114-3.374 3.374a44.8 44.8 0 0 0-24.51-9.441v-6.823h3.223a3.22 3.22 0 0 0 3.223-3.223 3.22 3.22 0 0 0-3.223-3.223h-12.89a3.22 3.22 0 0 0-3.223 3.223 3.22 3.22 0 0 0 3.223 3.223h3.223v6.823a44.83 44.83 0 0 0-24.51 9.441l-3.374-3.374 9.114-9.114a3.22 3.22 0 0 0 0-4.557c-7.308-7.308-20.04-7.308-27.34 0a19.2 19.2 0 0 0-5.665 13.67c0 5.164 2.011 10.02 5.665 13.67.63.63 1.454.944 2.278.944s1.649-.314 2.278-.944l9.114-9.114 3.141 3.141c-7.78 8.11-12.59 19.09-12.59 31.19 0 15.96 8.356 29.98 20.9 38l-4.448 9.108a3.223 3.223 0 1 0 5.765 2.883l4.351-8.914c5.666 2.568 11.93 4.035 18.55 4.035s12.88-1.467 18.55-4.035l4.351 8.914a3.222 3.222 0 1 0 5.765-2.883l-4.448-9.108c12.54-8.022 20.9-22.04 20.9-38 0-12.1-4.813-23.08-12.59-31.19l3.141-3.141 9.114 9.114c.63.63 1.454.944 2.279.944.824 0 1.649-.314 2.278-.944a19.2 19.2 0 0 0 5.665-13.67c0-5.164-2.011-10.02-5.665-13.67zm-96.1 20.22a12.8 12.8 0 0 1-1.784-6.549c0-3.443 1.341-6.678 3.776-9.114s5.671-3.776 9.114-3.776c2.341 0 4.585.62 6.549 1.784l-17.66 17.66zm85.44 32.34c0 21.32-17.35 38.67-38.67 38.67S25.34 88.55 25.34 67.23s17.35-38.67 38.67-38.67 38.67 17.35 38.67 38.67zm8.098-32.34-17.66-17.66c4.856-2.873 11.57-2.099 15.66 1.992a12.8 12.8 0 0 1 3.777 9.114c0 2.341-.62 4.585-1.785 6.549zm-46.77.111c-17.77 0-32.23 14.46-32.23 32.23s14.46 32.23 32.23 32.23 32.23-14.46 32.23-32.23-14.46-32.23-32.23-32.23zm0 58.01c-14.22 0-25.78-11.57-25.78-25.78 0-14.22 11.57-25.78 25.78-25.78s25.78 11.57 25.78 25.78c0 14.22-11.57 25.78-25.78 25.78z" fill="url(#a)" stroke="url(#a)" stroke-width="2"/>
</svg>
