<svg style="isolation:isolate" version="1.1" viewBox="0 0 64 64" xmlns="http://www.w3.org/2000/svg">
 <linearGradient id="c" transform="translate(-0) scale(1) translate(.001333) scale(1) translate(0) scale(1.333)" x1="-.5536" x2=".3683" y1="1.24" y2=".1156" gradientTransform="matrix(14 0 0 18.75 20 13.25)" gradientUnits="userSpaceOnUse">
  <stop stop-color="#43e97b" offset="0"/>
  <stop stop-color="#38f9d7" offset=".9783"/>
 </linearGradient>
 <path transform="translate(-0) scale(1) translate(.001333) scale(1) translate(0) scale(1.333)" d="m21.01 13.25-1.006 3.752c5.059 0.185 10.14 2.701 14 6-3.061-4.524-7.844-8.365-12.99-9.752zm0.994 8.752c3.405 2.339 5.32 6.276 7 10l3.342-0.894c-2.681-3.847-5.789-7.531-10.34-9.106z" fill="url(#c)"/>
 <linearGradient id="b" transform="translate(-0) scale(1) translate(.001333) scale(1) translate(0) scale(1.333)" x1=".05358" x2=".7929" y1=".9084" y2=".0003401" gradientTransform="matrix(37.33 0 0 35.46 4 8.538)" gradientUnits="userSpaceOnUse">
  <stop stop-color="#43e97b" offset="0"/>
  <stop stop-color="#38f9d7" offset=".9783"/>
 </linearGradient>
 <path transform="translate(-0) scale(1) translate(.001333) scale(1) translate(0) scale(1.333)" d="m4 34v2c0 4.431 3.568 8 8 8h3l1.529-1.855c3.859-4.681 14.98-6.379 22.73-9.52 1.896-0.791 2.33-1.891 1.937-3.357l-0.258-0.965-25.63 6.867 6.869-25.63-3.854-0.998c-0.766-0.047-1.482 0.447-1.689 1.219l-0.313 1.166c-0.351 1.31 0.927 1.551 0.576 2.859l-1.496 5.584c-0.901 2.03-1.985 2.839-3.898 2.631-2.485 0-4.5 2.015-4.5 4.5 0 0.411 0.057 0.821 0.168 1.217 0.271 1.255-0.037 2.601-0.951 3.617l-2.219 2.666z" fill="url(#b)"/>
 <linearGradient id="a" transform="translate(-0) scale(1) translate(.001333) scale(1) translate(0) scale(1.333)" x1=".9364" x2=".02087" y1="1.026" y2=".1103" gradientTransform="scale(48)" gradientUnits="userSpaceOnUse">
  <stop stop-color="#ffab00" offset=".19"/>
  <stop stop-color="#ff004c" offset=".83"/>
 </linearGradient>
 <path transform="translate(-0) scale(1) translate(.001333) scale(1) translate(0) scale(1.333)" d="m42.67 8.533v30.93c0 1.766-1.434 3.2-3.2 3.2h-30.93c-1.766 0-3.2-1.434-3.2-3.2v-30.93c0-1.766 1.434-3.2 3.2-3.2h30.93c1.766 0 3.2 1.434 3.2 3.2zm5.333-1.066v33.07c0 4.121-3.346 7.467-7.467 7.467h-33.07c-4.121 0-7.467-3.346-7.467-7.467v-33.07c0-4.121 3.346-7.467 7.467-7.467h33.07c4.121 0 7.467 3.346 7.467 7.467z" fill="url(#a)" fill-rule="evenodd"/>
 <circle transform="translate(-0) scale(1) translate(.001333) scale(1) translate(0) scale(1.333)" cx="11.5" cy="26.5" r="3.5" fill="#e4e4e4" vector-effect="non-scaling-stroke"/>
 <circle transform="translate(-0) scale(1) translate(.001333) scale(1) translate(0) scale(1.333)" cx="12.5" cy="25.5" r="1.5" fill="#4f4f4f" vector-effect="non-scaling-stroke"/>
</svg>
