<svg xmlns="http://www.w3.org/2000/svg" viewBox="0 0 64 64"><defs><linearGradient id="a" y2="1"><stop offset="0" stop-color="#00fffa"/><stop offset="1" stop-color="#0078ff"/></linearGradient></defs><path fill="#ff007f" d="M40.672 23.348v8.004h3.244l-3.251 4.666a4.99 4.99 0 0 1-2.955 4.242h-.008l-6.371 9.145V40.68h-8.004v18.345c0 2.14 1.565 4.143 3.431 4.755 1.867.61 4.338-.092 5.587-1.845l.016-.015 21.41-30.712c2.197-3.138-.175-7.864-4.074-7.864z"/><path fill="url(#a)" d="M8.916 0a1.23 1.23 0 0 0-1.024.555L2.568 8.194c-.557.778.036 1.973 1.01 1.973h5.348c.7 0 1.243-.567 1.243-1.248V1.25c0-.684-.6-1.25-1.245-1.25h-.004zm-.748 3.656v4.51H5.024z" transform="translate(-.028)scale(4.002)"/></svg>