<svg xmlns="http://www.w3.org/2000/svg" viewBox="0 0 64 64"><defs><linearGradient id="a" x1="1" x2="0" y1="1"><stop offset="0" stop-color="#fd2e00"/><stop offset="1" stop-color="#f90"/></linearGradient></defs><path fill="url(#a)" d="M29.53 4c-5.771.366-11.88 3.086-13.25 10.88-.226.992.456 1.36.908 1.482l6.184.846a.7.7 0 0 0 .315-.018c.576-.185.872-.754.974-1.318.564-2.72 2.604-4.082 4.867-4.332h.455c1.361 0 2.832.619 3.623 1.857.905 1.482.795 3.463.795 5.195v.068c0 .52-.4.952-.918.995-1.242.1-2.599.217-3.955.412-2.604.375-5.207.87-7.356 1.984-4.19 1.855-7.023 5.81-7.023 11.62 0 7.3 4.303 11.01 9.742 11.01 1.81 0 3.282-.25 4.637-.616 1.858-.64 3.456-1.739 5.238-3.61.454-.477 1.234-.429 1.59.124.748 1.162 1.315 2.018 2.898 3.492a.8.8 0 0 0 .285.178c.514.179 1.018.148 1.426-.183 1.361-1.24 3.74-3.466 4.982-4.701.568-.495.458-1.24.114-1.852-1.243-1.733-2.492-3.218-2.492-6.555v-11.13c0-4.697.342-9.026-2.828-12.24-2.604-2.592-6.681-3.584-9.852-3.584zm3.873 21.28a.976.976 0 0 1 1 .984v.487c0 2.843.112 5.067-1.246 7.54-.772 1.683-2.08 2.782-3.506 3.187-.08.023-.164.03-.246.04-.216.03-.5.114-.781.114-2.49 0-3.961-2.102-3.961-5.191 0-3.96 2.152-5.812 4.867-6.682 1.183-.296 2.515-.435 3.873-.478z" transform="translate(-4.174 -4.571)scale(1.14277)"/><path fill="url(#a)" d="M53.26 43.52c-.884 0-1.857.092-2.838.326l-.004-.072-.986.357-.018.01-.558.2v.025a8.5 8.5 0 0 0-1.801 1.104c-.344.28-.628.653-.643 1.223-.009.31.135.666.373.877a1.14 1.14 0 0 0 .92.27l.049-.005.037-.006c.483-.112 1.184-.187 2.008-.312a18 18 0 0 1 2.104-.148c.458-.004.872.031 1.156.097a1.2 1.2 0 0 1 .35.13c.012.042.03.155.027.31.006.593-.224 1.692-.541 2.766a56 56 0 0 1-.912 2.82l-.018.047c-.06.164-.1.345-.1.543-.005.286.103.634.333.865.223.23.514.324.755.324h.012c.362-.003.67-.161.936-.389 2.504-2.457 3.376-6.385 3.412-8.596l-.006-.351v-.004c-.024-.583-.136-1.028-.36-1.396l-.025-.035-.027-.037c-.225-.269-.439-.37-.672-.481l-.006-.004c-.703-.296-1.726-.454-2.957-.457z" opacity=".4" transform="translate(-4.174 -4.571)scale(1.14277)"/><path fill="url(#a)" d="M7.23 45.65c-.31 0-.631.128-.863.365-.233.24-.37.585-.367.938-.004.458.224.88.54 1.154 6.502 6.163 13.63 11.89 23.21 11.9.188 0 .379-.007.569-.01 6.097-.148 12.99-2.4 18.34-6.068l.033-.024c.7-.457 1.4-.978 2.06-1.555.41-.332.694-.852.694-1.393-.019-.958-.763-1.607-1.568-1.607a1.64 1.64 0 0 0-.764.188c-.275.119-.555.257-.82.379l-.39.178-.507.22v.006c-5.506 2.438-11.29 3.87-16.64 3.994-.196.007-.396.006-.586.006-8.417.007-15.28-4.255-22.21-8.455a1.5 1.5 0 0 0-.734-.21z" opacity=".4" transform="translate(-4.174 -4.571)scale(1.14277)"/></svg>