<svg version="1.1" viewBox="0 0 64 64" xmlns="http://www.w3.org/2000/svg">
 <defs>
  <linearGradient id="a" y2="1">
   <stop stop-color="#00fffa" offset="0"/>
   <stop stop-color="#0078ff" offset="1"/>
  </linearGradient>
 </defs>
 <path transform="translate(-7e-4 8.5e-5) scale(1) translate(-4.58 -4.578) scale(.1905)" d="M168.3 24.12c-15.32-.648-31.46 2.379-42.86 8.032-9.902 4.906-18.74 14.43-27.08 29.16-2.141 3.781-4.644 7.371-5.562 7.976-.918.61-4.274 1.457-7.458 1.887-11.07-.371-23.22-2.765-34.97-5.148 0 0-7.496-1.949-8.332 6.152.406 15.12 12.13 25.72 24 35.84-8.113 2.933-10.7 9.23-18.08 14.99-1.422 2.676.208 5.183 4.797 7.402 5.922 2.855 12 3.613 24.4 3.023 12.7-.613 14.39 1.274 18.5 4.668 4.332 3.602 6.024 6.997 6.396 14.89.379 8.137-.11 14-4.626 22.76-3.746 7.269-7.843 13.06-15.94 21.96-14.58 16.06-24.94 33.12-29.5 48.6-4.578 15.57-1.648 36.61 7.711 55.32 4.418 8.843 9.735 16.11 17.57 24.02 19.38 19.57 45.6 30.35 83.27 34.2l.003.016c1.633.168 12.5.206 24.14.085 22.44-.234 28.97-.89 45.17-4.535 60.02-13.51 99.32-54.98 110.5-116.6 1.871-10.31 2.293-34.57.785-44.91-2.114-14.46-5.079-20.4-10.52-28.7-3.843-5.863-7.487-9.21-12.56-9.21-5.184 0-8.508 3.19-14.09 10.7-6.524 8.792-15.25 15.43-21.35 18.54-9.554 4.874-16.89 4.006-34.16-4.04-18.28-8.516-30.96-11.58-49.16-13.2-4.973-.438-12.4-.005-13.25-.005 1.812-1.14 21.2-13.94 28.06-20.18 8.82-9.25 13.99-19 17.4-32.83 2.2-8.922 2.778-27 1.157-36.34-.66-3.805-1.2-7.243-1.2-7.638 0-1.125 2.82-2.37 6.582-2.914 4.516-.648 4.966-2.46 1.17-4.715l-2.755-1.636 2.733-2.208c2.965-2.394 4.898-5.53 4.898-7.953 0-1.844-.132-1.85-6.007-.335-8.35 2.152-14.16.1-22.94-8.09-12.77-11.92-28.42-18.29-46.83-19.07z" fill="url(#a)"/>
</svg>
