<svg xmlns="http://www.w3.org/2000/svg" viewBox="0 0 64 64"><defs><linearGradient id="a" x2="0" y1="1"><stop offset="0" stop-color="#2ad454"/><stop offset="1" stop-color="#b3ff5a"/></linearGradient></defs><path fill="url(#a)" d="M17.17 3.371a1.515 1.515 0 0 0-1.365 2.305l1.223 1.94c-3.306 2.229-5.535 6.037-5.535 10.35v15.67c0 2.3 1.868 4.17 4.168 4.17h2.805l.07 5.319c0 .862.72 1.508 1.51 1.508.863 0 1.51-.718 1.51-1.508l-.072-5.318H26.3l.07 5.318c0 .862.72 1.508 1.51 1.508.863 0 1.51-.718 1.51-1.508l-.072-5.318h2.875c2.3 0 4.168-1.87 4.168-4.17v-15.67c.144-4.312-2.013-8.12-5.391-10.35l1.223-1.941c.431-.719.215-1.653-.504-2.084s-1.653-.215-2.084.504L28.24 6.25c-1.366-.504-2.803-.79-4.24-.79-1.509 0-2.947.286-4.24.79l-1.365-2.154a1.5 1.5 0 0 0-1.223-.725zm6.828 5.18c4.672 0 8.625 3.45 9.344 7.906h-18.69c.719-4.528 4.672-7.906 9.344-7.906zm-16.31 9.272c-.79 0-1.51.647-1.51 1.51v11.14c0 .862.792 1.51 1.582 1.51s1.51-.647 1.51-1.51v-11.14c0-.862-.791-1.51-1.582-1.51m32.63 0c-.79 0-1.51.647-1.51 1.51v11.14c0 .79.72 1.51 1.51 1.51s1.51-.647 1.51-1.51v-11.14c0-.862-.72-1.51-1.51-1.51m-25.8 1.652h18.97v14.16c0 .647-.573 1.15-1.148 1.15H15.66a1.134 1.134 0 0 1-1.148-1.15z" transform="translate(-5.23 -5.226)scale(1.551)"/><path fill="url(#a)" d="M27.53 11.76a1.73 1.73 0 0 0-1.728 1.728 1.73 1.73 0 0 0 1.728 1.728 1.73 1.73 0 0 0 1.73-1.728 1.73 1.73 0 0 0-1.73-1.728" transform="translate(-5.23 -5.226)scale(1.551)"/><path fill="url(#a)" d="M20.47 11.76a1.73 1.73 0 0 0-1.728 1.728 1.73 1.73 0 0 0 1.728 1.728 1.73 1.73 0 0 0 1.728-1.728 1.73 1.73 0 0 0-1.728-1.728" transform="translate(-5.23 -5.226)scale(1.551)"/></svg>