<svg xmlns="http://www.w3.org/2000/svg" style="isolation:isolate" viewBox="0 0 64 64"><linearGradient id="a" x2=".907" y1=".5" y2=".92" gradientTransform="matrix(47 0 0 46.83 .5 .674)" gradientUnits="userSpaceOnUse" transform="translate(-.68 -.8)scale(1.362)"><stop offset="0" stop-color="#4568dc"/><stop offset=".987" stop-color="#b06ab3"/></linearGradient><path fill="url(#a)" fill-rule="evenodd" d="m9.07 36.53 1.28 1.26c-.644.782-1.654 1.742-1.654 1.742-.776.611-1.984.423-2.695-.421L6 39.11a23.49 23.49 0 0 1 .47-30.75c.734-.822 1.998-.894 2.82-.16s.894 1.998.16 2.82a19.475 19.475 0 0 0-.38 25.51M26.49 4.66c-1.098-.143-1.876-1.147-1.735-2.24S25.897.552 26.99.69c5.67.73 10.88 3.49 14.66 7.78 3.77 4.29 5.85 9.82 5.85 15.53 0 6.23-2.48 12.21-6.88 16.62a23.54 23.54 0 0 1-24.46 5.54c-1.043-.37-1.59-1.515-1.22-2.555s1.512-1.585 2.55-1.215a19.54 19.54 0 0 0 20.3-4.6A19.54 19.54 0 0 0 43.5 24c0-4.74-1.72-9.32-4.86-12.88a19.47 19.47 0 0 0-12.15-6.46" transform="translate(-.68 -.8)scale(1.362)"/><linearGradient id="c" x2=".907" y1=".5" y2=".92" gradientTransform="matrix(32.97 0 0 40.31 7.819 4.936)" gradientUnits="userSpaceOnUse" transform="translate(-.68 -.8)scale(1.362)"><stop offset="0" stop-color="#4568dc"/><stop offset=".987" stop-color="#b06ab3"/></linearGradient><path fill="url(#c)" fill-rule="evenodd" d="M22.84 14.98a1.23 1.23 0 0 0-.526.618c-.12.31-.12.65.01.95.13.31.38.55.69.67.71.28 1.45.47 2.2.57.59.07 1.17.1 1.76.1.35 0 .69.02 1.04.06.14.01.29.05.42.11.34.33.63.71.86 1.13.35.61.67 1.23.96 1.87.28.62.59 1.23.92 1.84.34.64.75 1.24 1.23 1.79.51.56 1.1 1.04 1.75 1.43.6.37 1.21.72 1.84 1.05.48.25.95.51 1.4.8q.21.135.39.3c.02.02.04.04.05.06.3.59.45 1.25.46 1.91 0 .52-.1 1.04-.3 1.52-.16.42-.4.8-.72 1.12-.21.22-.47.38-.76.5-.3.11-.62.16-.94.16-.4-.01-.79-.06-1.17-.17-.45-.12-.88-.29-1.3-.5-.68-.33-1.33-.71-1.96-1.13-.44-.32-.87-.65-1.28-1.01 0 0-.01 0-.01-.01l-.19-.16c-.01 0-.01-.01-.02-.01a5.9 5.9 0 0 0-2.08-1.1c-.78-.23-1.58-.35-2.39-.36h-.24c-.55.01-1.1.04-1.65.1q-.69.09-1.38.09c-.31.01-.61-.03-.91-.11-.22-.06-.42-.18-.59-.33-.3-.29-.51-.66-.61-1.07-.11-.57-.16-1.15-.14-1.73v-.34l.01-.28q.03-1.215-.21-2.4c-.06-.32-.25-.61-.53-.79-.27-.19-.61-.25-.94-.19-.32.07-.61.26-.79.53-.19.28-.25.62-.19.94.12.61.18 1.23.16 1.85v.03l-.01.31v.28c-.02.77.04 1.55.2 2.31.2.9.66 1.73 1.34 2.37.46.43 1.02.74 1.62.92a5.6 5.6 0 0 0 1.805.195.14.14 0 0 0 .055.003v.002c.02 1.22.17 2.45.46 3.64.3 1.3.71 2.58 1.22 3.81.49 1.21 1.11 2.36 1.86 3.43.34.49.73.96 1.16 1.38.4.41.86.76 1.36 1.04.29.17.63.21.95.13a1.255 1.255 0 0 0 .88-1.54c-.09-.32-.3-.59-.59-.75-.3-.18-.58-.4-.83-.65-.33-.32-.62-.67-.88-1.04-.64-.92-1.18-1.91-1.6-2.95a20.7 20.7 0 0 1-1.09-3.43 14 14 0 0 1-.4-3.087l.026-.004a.1.1 0 0 1-.025-.035q-.002-.056.003-.113c-.002-.006.003-.01.006-.015q.136-.007.27-.006h.18c.59.01 1.17.1 1.73.26.43.13.84.34 1.19.63l.18.15c.48.41.97.8 1.48 1.16.73.5 1.5.94 2.29 1.32.55.28 1.13.5 1.73.67.59.17 1.2.25 1.82.26.63 0 1.25-.11 1.84-.33.63-.23 1.19-.6 1.66-1.07.55-.56.98-1.23 1.27-1.96.31-.78.47-1.61.47-2.45a6.9 6.9 0 0 0-.74-3.06c-.16-.3-.37-.56-.62-.78-.22-.19-.45-.37-.7-.53-.51-.33-1.05-.63-1.59-.91q-.855-.45-1.68-.96a5.6 5.6 0 0 1-1.2-.97c-.34-.4-.64-.84-.89-1.31-.3-.55-.59-1.12-.85-1.69-.32-.7-.67-1.39-1.05-2.06-.41-.74-.95-1.4-1.59-1.96-.49-.29-1.03-.47-1.6-.54a11 11 0 0 0-.84-.063.1.1 0 0 1 .05.033 8.8 8.8 0 0 1-.21-2.17c0-.37.01-.74.02-1.11.01-.32.02-.65.02-.97 0-.34-.01-.69-.05-1.02-.03-.37-.12-.73-.26-1.08-.22-.46-.5-.9-.84-1.3-.33-.42-.68-.81-1.05-1.19q-.495-.525-1.05-.99c-.13-.11-.28-.22-.43-.33-.24-.18-.54-.3-.85-.33-.37-.03-.74.1-1 .36-.27.26-.42.62-.4.99 0 .05 0 .09.01.14l.01.05c0 .03.01.06.02.09.07.33.1.68.09 1.03-.01.81-.07 1.62-.17 2.42-.09.75-.19 1.49-.31 2.22-.29-.02-.58-.04-.87-.04-.34.01-.67.03-1.01.08-.24-.36-.47-.73-.67-1.12-.36-.66-.69-1.33-1.01-2.01-.24-.51-.49-1.02-.77-1.52-.1-.2-.23-.39-.37-.57-.24-.35-.61-.58-1.03-.65a1.3 1.3 0 0 0-.4 0h-.03c-.09.01-.18.04-.26.07-.28.1-.52.28-.7.52-.11.15-.21.31-.29.49-.15.32-.26.67-.33 1.02-.18.83-.27 1.67-.26 2.52-.01.72.06 1.45.21 2.15.11.42.27.83.47 1.21.21.48.44.95.67 1.42.02.03.04.07.05.11-.19.17-.38.34-.58.49q-.615.465-1.14 1.02c-.43.46-.77 1-1.02 1.58-.18.46-.33.93-.44 1.41-.12.52-.22 1.05-.3 1.58-.16 1.2-.3 2.4-.4 3.61-.09.99-.19 1.99-.31 2.98q-.165 1.47-.45 2.94c-.18.9-.42 1.78-.72 2.65-.26.75-.61 1.47-1.05 2.13-.18.28-.25.61-.19.94.07.32.26.61.54.79s.61.25.94.19c.32-.07.61-.26.79-.54.56-.84 1-1.74 1.33-2.69q.51-1.47.81-3c.2-1.03.36-2.07.49-3.12.11-1.02.22-2.03.31-3.05q.15-1.755.39-3.48c.07-.47.15-.92.26-1.38.07-.34.18-.67.31-1 .13-.3.31-.58.53-.83.26-.27.55-.52.84-.75.76-.58 1.45-1.25 2.06-1.98-.26-.57-.53-1.14-.81-1.7-.23-.47-.45-.94-.67-1.42-.11-.22-.21-.45-.28-.69-.1-.52-.15-1.04-.14-1.57v-.14c.24.48.48.96.74 1.44.52.99 1.16 1.91 1.91 2.73.64-.21 1.31-.33 1.99-.36q1.305.04 2.576.348a.2.2 0 0 1 .08-.066m.259-.085c.309-1.516.554-3.032.735-4.567.06-.43.1-.87.13-1.31l.28.34c.19.23.35.47.48.73.04.1.06.19.06.29.03.26.04.52.04.78 0 .3-.01.61-.02.92-.01.38-.01.76-.02 1.14-.013.674.028 1.353.134 2.02q-.002-.032.039-.031a6.4 6.4 0 0 1-1.023-.309 1.25 1.25 0 0 0-.978.024c-.04.016-.079.036.143-.027" transform="translate(-.68 -.8)scale(1.362)"/></svg>