<svg xmlns="http://www.w3.org/2000/svg" style="isolation:isolate" viewBox="0 0 64 64"><linearGradient id="a" x2="1" y1=".5" y2=".5" gradientTransform="translate(.5 33.12)scale(9.885)" gradientUnits="userSpaceOnUse" transform="scale(1.333)"><stop offset="0" stop-color="#f7f206"/><stop offset=".983" stop-color="#ffbb24"/></linearGradient><path fill="url(#a)" d="m5.442 33.12 4.943 4.943-4.943 4.942L.5 38.063z" transform="scale(1.333)"/><linearGradient id="b" x2="1" y1=".5" y2=".5" gradientTransform="translate(38 9.455)scale(7.545)" gradientUnits="userSpaceOnUse" transform="scale(1.333)"><stop offset="0" stop-color="#fc4988"/><stop offset=".983" stop-color="#ea333e"/></linearGradient><path fill="url(#b)" d="M38 9.455h7.545V17H38z" transform="scale(1.333)"/><linearGradient id="d" x1=".95" x2=".025" y1=".963" y2=".014" gradientTransform="matrix(48 0 0 41.05 0 3.475)" gradientUnits="userSpaceOnUse" transform="scale(1.333)"><stop offset="0" stop-color="#ffe53b"/><stop offset=".987" stop-color="#ff005b"/></linearGradient><path fill="url(#d)" fill-rule="evenodd" d="M12.61 10.78h11.78v20.16h10.99v6.278H23.6v-20.16H12.61zM9.73 7.9h17.54v20.16h10.99V40.1H20.72V19.94H9.73zM2.876 6.354h30.1v15.61h12.14v19.68h-30.1v-13.88H2.876zm-2.88-2.88h35.86v15.61h12.14v25.44h-35.86v-13.88H-.004z" transform="scale(1.333)"/></svg>