<svg version="1.1" viewBox="0 0 64 64" xmlns="http://www.w3.org/2000/svg">
 <defs>
  <linearGradient id="a" x1="1" x2="0" y2="1">
   <stop stop-color="#46d9ff" offset="0"/>
   <stop stop-color="#ff23ff" offset=".5"/>
   <stop stop-color="#ffd93f" offset="1"/>
  </linearGradient>
 </defs>
 <path transform="translate(.002699 .005693) scale(.9997) translate(-1.878 -1.807) scale(1.05)" d="m7.883 1.805s0.03906 16.94 9.387 19.81c-0.07813 0.1562-0.1602 0.2969-0.2344 0.4531-2.648 5.492-3.055 17.73-3.055 17.73l18.29-32.93s-6.27 1.832-11.9 9.641c-7.594-2.543-12.49-14.72-12.49-14.72zm24.39 5.074 18.29 32.93s-0.4062-12.24-3.047-17.73c-0.07813-0.1562-0.1602-0.2969-0.2383-0.4531 9.352-2.871 9.379-19.81 9.379-19.81s-4.898 12.17-12.48 14.72c-5.625-7.808-11.9-9.64-11.9-9.641zm0 0 3.047 25.33 12.2 7.598zm0 0-15.23 32.93 12.19-7.598zm-3.047 30.4s-12.19 2.531-12.19 7.598c0 5.062 12.19 7.602 12.19 7.602s-3.047-2.539-3.047-7.602c0-5.066 3.047-7.598 3.047-7.598zm-12.19 7.598-15.25-2.535 15.25 20.27-6.106-15.19zm18.28-7.598s3.055 2.531 3.055 7.598c0 5.062-3.055 7.602-3.055 7.602s12.2-2.539 12.2-7.602c0-5.066-12.2-7.598-12.2-7.598zm12.2 7.598 6.094 2.539-6.094 15.19 15.24-20.27z" fill="url(#a)"/>
</svg>
