<svg version="1.1" viewBox="0 0 64 64" xmlns="http://www.w3.org/2000/svg">
 <defs>
  <linearGradient id="a" x2="0" y1="1">
   <stop stop-color="#f00" offset="0"/>
   <stop stop-color="#ff0086" offset="1"/>
  </linearGradient>
  <linearGradient id="b" x1="1" x2="0" y1="1">
   <stop stop-color="#f60" offset="0"/>
   <stop stop-color="#ff0" offset="1"/>
  </linearGradient>
 </defs>
 <path transform="translate(-0 -2e-6) scale(1) translate(-.000212 .01037) scale(1) matrix(1.156 0 0 1.156 -5.04 -5.003)" d="m42.44 4.326c-4.49 0.01018-8.87 1.782-12.13 5.041l-20.93 20.93c-8.453 8.454-5.804 22.94 5.094 27.85 10.9 4.911 23.51-2.691 24.24-14.63a2.401 2.401 0 0 0-2e-3 0c0.0069-0.1131 0.04068-0.1618 0.04102-0.1641l4.617-4.617c0.0023-5.66e-4 0.04894-0.03418 0.1621-0.04102a2.401 2.401 0 0 0 2e-3 0c7.37-0.4555 13.65-5.584 15.56-12.72 2.45-9.149-3.014-18.62-12.17-21.07a2.401 2.401 0 0 0 0 0.00195c-1.484-0.3978-2.994-0.5913-4.49-0.5879zm0.01367 4.801c1.079-0.00243 2.169 0.1374 3.24 0.4238 6.644 1.781 10.55 8.546 8.77 15.19-1.383 5.158-5.888 8.841-11.22 9.17-1.153 0.07073-2.342 0.5161-3.262 1.436l-4.623 4.623c-0.9195 0.9195-1.364 2.109-1.436 3.262-0.5404 8.739-9.495 14.14-17.48 10.54-7.98-3.596-9.864-13.89-3.674-20.08l20.94-20.94c2.351-2.351 5.502-3.628 8.74-3.635z" fill="url(#b)"/>
 <path transform="translate(-0 -2e-6) scale(1) translate(-.000212 .01037) scale(1) matrix(1.156 0 0 1.156 -5.04 -5.003)" d="m17.3 35.83a2.401 2.401 0 0 0-1.697 0.7031 2.401 2.401 0 0 0 0 3.394l2.547 2.547-2.547 2.547a2.401 2.401 0 0 0 0 3.394 2.401 2.401 0 0 0 3.394 0l2.547-2.547 2.547 2.547a2.401 2.401 0 0 0 3.394 0 2.401 2.401 0 0 0 0-3.394l-2.547-2.547 2.547-2.547a2.401 2.401 0 0 0 0-3.394 2.401 2.401 0 0 0-3.394 0l-2.547 2.547-2.547-2.547a2.401 2.401 0 0 0-1.697-0.7031z" fill="url(#a)"/>
 <path transform="translate(-0 -2e-6) scale(1) translate(-.000212 .01037) scale(1) matrix(1.156 0 0 1.156 -5.04 -5.003)" d="m42.48 13.25c-0.8225 0-1.645 0.3094-2.264 0.9277-1.237 1.237-1.237 3.291 0 4.527s3.291 1.237 4.527 0 1.237-3.291 0-4.527c-0.6183-0.6183-1.441-0.9277-2.264-0.9277z" fill="url(#a)"/>
 <path transform="translate(-0 -2e-6) scale(1) translate(-.000212 .01037) scale(1) matrix(1.156 0 0 1.156 -5.04 -5.003)" d="m42.48 23.43c-0.8225 0-1.645 0.3094-2.264 0.9277-1.237 1.237-1.237 3.289 0 4.525s3.291 1.237 4.527 0 1.237-3.289 0-4.525c-0.6183-0.6183-1.441-0.9277-2.264-0.9277z" fill="url(#a)"/>
</svg>
