<svg xmlns="http://www.w3.org/2000/svg" fill-rule="evenodd" stroke-linejoin="round" stroke-miterlimit="1.414" clip-rule="evenodd" viewBox="0 0 64 64"><linearGradient id="a" x2="1" gradientTransform="rotate(-89.73 46.097 14.13)scale(55.7506)" gradientUnits="userSpaceOnUse" transform="translate(-4.001 -4.572)scale(1.143)"><stop offset="0" stop-color="#0087bd"/><stop offset="1" stop-color="#17c7e1"/></linearGradient><linearGradient id="b" x2="1" gradientTransform="rotate(-89.36 43.902 12.682)scale(41.4126)" gradientUnits="userSpaceOnUse" transform="translate(-4.001 -4.572)scale(1.143)"><stop offset="0" stop-color="#0926b8"/><stop offset="1" stop-color="#546bdc"/></linearGradient><g fill-rule="nonzero"><path fill="url(#a)" d="M31.65 4.002a6.55 6.55 0 0 0-3.387.849l-19.03 10.82a6.35 6.35 0 0 0-3.234 5.514v21.63a6.35 6.35 0 0 0 3.234 5.514l19.57 5.909a6.56 6.56 0 0 0 6.468 0l12.44-7.296a6.35 6.35 0 0 0 3.234-5.514l6.047-20.25a6.35 6.35 0 0 0-3.234-5.515l-19.03-10.82a6.55 6.55 0 0 0-3.081-.85z" transform="translate(-4.001 -4.572)scale(1.143)"/><path fill="url(#b)" d="M56.45 18.62 7.32 46.65a6.5 6.5 0 0 0 1.921 1.682l19.03 10.82a6.57 6.57 0 0 0 6.47 0l19.03-10.82a6.36 6.36 0 0 0 3.235-5.513v-21.63a6.3 6.3 0 0 0-.553-2.568z" transform="translate(-4.001 -4.572)scale(1.143)"/></g></svg>