<svg xmlns="http://www.w3.org/2000/svg" viewBox="0 0 64 64"><defs><linearGradient id="a" x1="1" x2="0" y1=".5" y2=".5"><stop offset="0" stop-color="#df57ff"/><stop offset=".5" stop-color="#241efc"/><stop offset="1" stop-color="#0eaffe"/></linearGradient></defs><path fill="url(#a)" d="m28.94 11.63-.004.01.004.004v.002l.002.002q0-.009-.002-.018zm.002.018c.12.64.36 1.959.248 2.086l-.006.003-.002.002h-.004l-.002.002h-.008l-.004-.002c-.068-.023-.206-.274-.441-.882-.212-.57-.318-.818-.36-.854l-.001-.002h-.002L28.358 12h-.008v.002l-.002.002-.002.006c-.04.172.361 1.897.164 2.527-.373-.335-.6-2.116-1.511-2.648-.6.609 1.386 1.972 1.15 3.312.511.556.777 3.33.547 3.445l-.006.002h-.006l-.006-.002c-.068-.018-.173-.22-.31-.686-.255-.591-.402-.8-.481-.769-.203.1.066 1.854.098 2.574-.771-1.871-.67-3.926-.973-5.894-.43.477-.683-.605-.717-1.512-.007-.448-.023-.64-.053-.678l-.007-.006h-.002l-.002-.002h-.008l-.002.002h-.002c-.13.1-.422 1.974-.9.493.191 1.794 1.956 2.917 1.726 4.89.025.546.005.799-.04.854l-.006.006-.002.002h-.004l-.006.002-.002.002h-.004c-.206-.048-.756-2.565-.883-2.721l-.008-.008h-.008v.002h-.002l-.002.002v.002l-.002.002c.413 1.632-.37.81-.554-.168.042-1.246-1.474-1.719-.4-.348.243.49.302.717.25.78-.165.165-1.252-1.01-1.405-1.025h-.004l-.002.002h-.002l-.006.004v.002l-.002.006c-.001.046.075.194.268.49 1.718 1.659 2.687 3.862 3.527 6.057.228.558.29.823.25.894l-.006.008-.006.006c-.146.075-.845-.882-1.24-1.453-1.598-1.599-1.92-3.979-2.984-5.9-.609-.074.79 2.31.844 3.057-.76-.076-.883-2.932-2.074-2.75.197.397.326.89.254.982l-.006.006-.002.002h-.002v.002h-.004l-.01.004c-.067.005-.21-.141-.449-.543.173 1 .966 2.421 1.334 3.607-.25 1.164 1.178 2.223 1.25 3.93-1.69-1.866-2.431-4.413-3.113-6.787-.138-.475-.218-.683-.256-.719l-.008-.006h-.007v.002h-.002v.002l-.002.002c-.03.077.08.657.275 1.207.133.57.17.828.14.887l-.003.006-.004.004-.004.002h-.006v.002H21.9l-.002-.002h-.002c-.178-.06-.965-1.976-1.188-1.893-.057.027-.076.193-.033.568-.554-.186-.797-.249-.848-.232h-.002l-.002.002h-.002v.002h-.002v.004h-.002v.006l.002.002c.047.108.913.588 1.272 1.016 1.032 3.227 3.21 5.853 5.043 8.64 1.132 1.517-.115.846-.7-.118-.983-.982-1.867-2.062-2.2-3.44-.2 1.508.836 2.95.504 4.502-.645-.451-1.326-3.042-1.801-4.322-.687-1.613-.847-3.688-2.28-4.81-.472-.37-.698-.5-.761-.489h-.002l-.002.002h-.002l-.01.008v.004c-.023.138.75.987 1.18 1.371.643.798.691 1.981 1.027 2.938-1.314-.667-2.027-3.082-3.21-4.332.203.45.326.85.237.908l-.002.002c-.067.028-.238-.105-.548-.496-.29-.248-.436-.342-.485-.334h-.006l-.01.01v.002c-.05.16.97 1.474.85 1.644l-.002.002-.01.01H17.9c-.035.014-.107-.004-.222-.07-.368.828 2.16 2.29 2.94 3.428.569.444 2.59 3.382.965 2.523-1.873-1.286-3.134-3.218-4.824-4.697-.28-.21-.42-.291-.46-.284l-.003.002h-.006l-.002.004-.002.006c-.027.175 1.726 1.978 1.67 2.172l-.003.006-.006.006h-.002c-.043.016-.181-.048-.448-.232-.483-.403-.736-.532-.808-.51l-.004.002h-.002l-.002.002v.002l-.004.004c-.048.098.36.58.945.9 2.008 1.084 3.51 2.83 5.068 4.46 1.468 1.682-.495.593-1.14-.118.247.763 2.892 2.331 3.456 3.871 1.133 1.56-.377.609-.986-.144-1.471-1.696-3.875-2.847-4.18-5.272-.253-.575-.416-.818-.486-.84h-.01l-.002.002h-.002l-.002.002h-.002c-.07.065.07.637.392 1.262.695 1.528-.212.602-.629-.143.292 1.126-1.612-.636-1.705-1.734q-.059-.063-.086-.064h-.003l-.002.002H17.3l-.002.002h-.002l-.002.002h-.002v.002l-.004.006c-.07.154.346 1.32-.606.257.177 1.08 2.54 2.325 3.15 3.795 1.013 1.65-.494.674-.8-.384-.403-.518-.617-.72-.69-.727h-.004l-.002.002h-.004l-.002.002h-.002l-.002.002h-.002v.002l-.006.006c-.05.129.409.971.867 1.506 1.006 1.306 2.55 3 2.598 4.447-2.029-1.239-3.324-3.302-4.143-5.486-.276-.581-.418-.82-.47-.846l-.002-.002h-.004l-.002-.004h-.002l-.002.004h-.002l-.006.006v.002c-.041.136.366 1.32.65 1.912-.335.353-1.924-2.083-2.779-2.814-.361-.343-.524-.487-.56-.502h-.002l-.002-.002h-.002l-.002.002v.006c.051.131 1.352 1.564 1.238 1.756l-.012.012c-.056.029-.22-.035-.54-.24-.521-.303-.767-.408-.83-.391h-.001l-.004.002h-.002l-.006.006v.002l-.002.002v.002c-.016.141 1.098 1.032 1.658 1.352 1.482.926.188.962-.69.394.018.592 2.41 1.006 2.903 2.141-.277 1.316-3.375-.468-4.562-.818.12.435 3.056 1.662 4.393 1.75 1.959.586 3.582 2.352 4.969 3.824-1.538-.462-2.287-1.603-3.57-2.039-.515-.111-.756-.134-.807-.096l-.002.002-.004.006-.004.01c.005.089.446.325.986.604 1.4 1.34 3.797 1.625 4.387 3.686-1.35-.149-2.696-1.753-4.21-2.14-1.536-1.075-2.26-3.153-4.105-3.755 1.13 1.075 1.085 1.972 2.504 2.674 1.722 1.188-.712.693-1.383.181-1.753-.982-2.754-2.929-3.965-4.477-1.274-1.3-.465.194-.025.817-.705-.216-1.016-.302-1.074-.288h-.002l-.002.002h-.002l-.002.002v.002l-.002.002.002.006v.004l.002.002c.126.172 2.512 1.298 2.31 2.322 2.483 1.92-1.358.764-2.468.455-.004.056.071.961.936.748 1.056.11 4.394.573 3.779 1.504-.95.262-3.975.154-3.76.883 2.093-.261 4.204-.731 6.268-.635 1.866.997 4.047 1.651 5.523 3.223-.463.85-3.084.67-4.287.76-.651.002-2.451-1.924-2.623-1.965h-.012v.002h-.002v.008c.005.035.072.145.217.348 1.35 1.09-.234.856-1.02.408-.351-.105-2.234-.99-2.373-.951h-.004l-.004.004v.01l.002.001c.02.037.145.131.416.3 2.055 1.112-.703.554-1.606.874 1.02.627 3.939-.072 5.539.955 1.95.604-.924 1.32-1.334 1.371 2.38.143-1.018.912-1.125 1.14v.001l-.004.004v.004l.002.002v.004l.002.002v.004l.004.004c.05.04.296.05.834.014-.274.29-.373.436-.361.486v.004l.002.004v.002l.01.008h.001l.006.002c.152.032.997-.528 1.322-.729 1.528-1.444 3.772-1.583 5.596-.615-.5 1.66-3.272 1.027-4.572 2.047.163.506-2.373 1.387-2.33 1.648l.004.01c.034.052.205.077.567.055-.174.286-.235.43-.217.476v.002l.002.002v.002l.002.002.006.004.006.002c.23.05 2.23-2.06 2.139-1.195.425 1.045 1.926-2.024 3.164-1.512.139 1.747-2.401 2.17-3.594 3.107.93-.61 1.528.18 2.408-.84.647.657-1.253 3.022-1.428 3.244 1.678-.751 1.842-2.509 2.598-3.969.765 1.216.968-2.316 2.244-2.465.675-1.659 2.194-.148 2.703.94 2.09 2.009-1.992 2.325-3.055 3.312 1.092.173.388 1.447-.784 1.434-.666.16-.955.308-.968.382v.01l.008.008c.073.067.532.028 1.188-.207 1.25-.757.26.943.297 1.086v.002l.002.002v.004h.002l.002.002h.007c.03-.008.099-.07.217-.207 1.19-1.32 1.9-3.365 3.812-3.584 2.206.802 1.153 3.77 1.344 5.572.578 1.288-1.775 3.516-.14 3.943 1.6.067 3.97.636 5.193-.357-1.496-2.274-.525-5.168.197-7.542.972-2.77 1.93 1.149 2.51 2.139.288.53.455.744.523.764h.01l.002-.002h.004l.002-.002v-.002h.002l.004-.004c.071-.118-.25-1.042-.588-1.551-.92-1.358.106-1.472 1.016-.584.49.232.723.319.783.304l.006-.002h.002l.006-.008v-.002l.002-.002V46.8c-.038-.196-1.892-1.48-2.094-2.082-2.002-.987 1.486-4.59 2.547-2.63.699 1.903.156 4.15 2.273 5.272.346-.219-1.645-2.358-1.35-3.62 1.096.37 1.938 2.681 3.133 3.376-.396-.862-1.1-2.337.469-1.168.48.346.707.48.763.481l.002-.002h.006l.004-.004h.002v-.002h.002v-.01c-.032-.138-1.152-1.084-1.77-1.268-2.155-1.137.664-1.54 1.602-.72-.44-.74.588-1.097-.5-1.006-2.247.843-3.903-.517-4.742-2.52.275-1.532 3.402-.929 4.68-.516 1.508.699 2.876.962 4.551 1.842.527.086.764.11.81.09h.003l.002-.002v-.002h.002v-.002l.002-.002V42.3l-.002-.002-.004-.006c-.134-.139-2.034-.728-2.365-1.254.491-.097.696-.175.717-.238v-.004l.002-.002v-.01c-.052-.172-1.488-.25-1.951-.42-2.384-.362-.04-.65.998-.611-.943-.447-3.25.174-4.68-.252-2.975.546-.426-3.04 1.072-2.727 2.266.53 4.604.553 6.89.865 1.573 1.03 1.297-.878-.275-.438-1.44.053-1.528-.614-.181-1.086-.4-.463-3.448 1.872-3.406.264.02-.054-2.427.409-3.195-.21-1.737-.916 1.369-2.047 2.344-1.33.617.178 4.167-.195 2.352.528-.691.313-.974.492-.994.565v.006l.002.006v.002l.007.007c.158.12 2.151-.505 2.723-1.094.517-.084 2.291-.043 2.457-.127q.002 0 .004-.002h.002l.002-.002v-.002l.002-.002v-.005l-.004-.004c-.033-.032-.238-.079-.687-.145-.663-.328-4.302.61-2.85-.588-.695.522-2.718.679-3.941.375-2.168.474-1.221-1.498-.008-1.936 1.724-.207 3.406-1.063 5.207-.482.99.786 1.724-.312.436-.324-.575-.046-.826-.099-.866-.157h-.002v-.004h-.002v-.002l-.002-.005v-.004l-.002-.002.002-.006c.067-.185 2.03-.42 2.502-.662.1-1.005-1.93.448-3.004.275-.36.05-3.79 1.095-1.842-.486 1.528-1.155 2.49-3.064 4.424-3.486.496-.993-1.17.147-1.369.084l-.005-.002-.012-.01-.002-.006v-.006h-.002c0-.061.125-.232.445-.566.338-.467.47-.682.47-.735v-.008l-.001-.002h-.002l-.002-.002h-.006c-.163.03-1.554 1.543-1.738 1.48h-.002v-.002l-.01-.008-.002-.002c-.024-.056.063-.26.324-.687.962-1.04.297-.98.649-2.086.197-.61.238-.887.197-.947l-.008-.008h-.004l-.002-.002h-.006c-.142.005-.643.953-.787 1.606-.672 1.472-2.808 1.125-3.72 2.193-1.337 1.25-.871-.007-.434-.906 1.207-1.227-.748.076-.041-1.12.689-1.951 2.55-2.805 3.26-4.636-1.09.904-2.233.89-3.211 2.12-.699-.462-1.497 1.49-2.916 1.94.446-1.47 1.88-3.066 3.15-4.192-.37-1.806-1.13.906-1.955 1.678-.827-.025-1.01 1.643-1.91 2.625-1.344 1.47-2.113 3.463-3.738 4.652.393-1.49 1.53-3.564 2.373-5.207 1.039-1.51 1.756-3.287 2.975-4.598.468-.49 1.339-2.07 1.318-2.242l-.002-.002v-.006l-.006-.008h-.004l-.002-.002h-.002l-.002.002h-.002c-.06.022-.253.254-.631.806-.914 1.432-.745.042-.187-.658.832-1.636-.35-.885-.551.301-.242.565-.381.8-.451.822h-.012l-.006-.002h-.002l-.006-.006c-.12-.131.134-1.495.117-2.156-.328 1.46-.74-.409-.71.858.311 3.18-1.627 5.892-3.052 8.559-.28.548-.425.788-.484.828h-.002l-.002.002h-.002l-.006.002-.002.002-.006-.002h-.002l-.004-.002v-.002l-.002-.002-.002-.004c-.056-.178.624-2.071.54-2.242v-.002l-.003-.002v-.002l-.006-.004h-.002l-.002-.002h-.01c-.03.01-.083.068-.162.188-.87 2.009-.917 4.706-2.896 5.982-.521-1.152 1.422-3.343 1.883-4.871.621-1.846 1.87-3.318 2.871-4.957.392-.538.547-.785.549-.842v-.004l-.002-.002v-.002l-.004-.004h-.008l-.004.002c-.152.052-1.166 1.188-1.596 1.732-.581-1.171 1.247-3.809.979-4.904-.28.6-.436.826-.514.824h-.004l-.002-.002h-.006c-.16-.077.11-1.415.217-2.057-1.28 2.908-.856 6.308-2.387 9.15-.744 1.513-1.39 3.307-2.545 4.461.211-.587.263-.85.22-.904l-.001-.002v-.002h-.002l-.002-.002-.006-.002h-.01c-.146.017-.645.78-1.004 1.285.23-1.91 2.488-3.055 2.609-5.076-1.174 1.812-.89-.392-.895-1.336.635-1.822 1.686-3.52 2.412-5.32.612-.458.612-3 .05-1.402-.087.45-.163.637-.225.658l-.006.002h-.002l-.008-.002h-.006c-.189-.068-.286-1.644-.408-1.77l-.006-.004-.004-.002h-.006l-.002-.002-.002.002h-.006l-.002.002c-.041.036-.087.25-.139.735.653 1.854-.271 3.737-1.342 5.219-1.344 1.362-.372-.533.067-1.684.164-.605.217-.872.193-.924l-.002-.002v-.002l-.006-.006h-.008c-.139.048-.839 1.632-1.262 1.904.771-1.942 1.005-4.051 1.356-6.104.112-.55.113-.799.06-.85l-.001-.002H36.8l-.002-.002-.006-.002h-.004l-.002-.002h-.002c-.175.002-.693 1.272-.592 1.85-.121 1.48-.356 3.255-1.236 4.387-.394-1.903.643-4.453.168-5.955-.108.62-.187.878-.248.91l-.006.003-.002.003h-.01l-.004-.004h-.002c-.154-.09-.207-1.719-.455-2.174-.298 5.034.597 10.15-.539 15.13-.595 2.238-.44 4.765-1.449 6.83-.252-2.766-.197-5.56-.219-8.34-.233-1.884.754-3.53.895-5.357-.762.353.362-2.062.068-3.23.267-1.843.652-3.374.258-5.176-.612.308.258 2.613-.67 3.322-1.957 1.68-.038-1.485-.201-2.39-.347.453-.713 1.111-.717-.657-.203.774-.353 1.73-.637.244.32 1.873.49 3.964-.097 5.896-.22-1.99-.337-4.024-.74-6-.318-.486-.49-.679-.561-.68h-.004l-.006.003h-.002l-.006.004-.002.002c-.136.164.544 1.997.525 2.715-.341.558-.8-2.777-1.354-3.34zm.055 2.883c.899-.016 1.536 3.186 1.332 4.4-.018.29-.005.587-.088.869-.669-1.802-1.25-3.43-1.332-5.258a.4.4 0 0 1 .088-.012zm15.21 1.812c-.033.012-.071.075-.108.224.204.101.204-.158.143-.217h-.002v-.002l-.01-.004h-.002l-.002-.002h-.018zm-11.5.045.006.002h.002l.002.002h.002l.002.002c.043.04.066.254.03.748l-.058.269-.052.21c-.485.555-.113-1.158.056-1.23l.002-.001h.006zm-9.127.896c1.12 1.418 2.076 2.961 3.17 4.4-.304.149-.786-.294-.973-.535-.667-1.663-2.204-1.901-2.197-3.865zm8.2.356c.506.6.243 3.273.128 4.63-.055.287-.104.576-.2.852-.696-1.427.063-3.73.073-5.482zm-2.741 1.422v.002c.196-.032.467.725.666 1.264 1.46 2.614 2.192 5.605 1.875 8.602-.78-.156-.28-4.348-1.394-4.467.01 2.363-.755-.166-1.076-1.016-.61-1.116-.495-2.383-.293-3.6.042-.55.123-.77.222-.786zm14.46 1.234c-.099.018-.33.419-.416 1.074a.1.1 0 0 0 .002.039v.002l.002.002v.002l.004.005h.002l.002.002h.005c.05-.005.176-.157.194-.205l.002-.006v-.005h-.002v-.002h-.004l-.002.002h-.002l-.025.015c.256-.548.309-.837.271-.91l-.004-.006v-.002l-.002-.002h-.002V20.3h-.004l-.006-.002-.013-.002zm-17.88 1.732c.707-.04 2.389 1.06 2.606 2.02.757 1.944 2.567 3.813 1.998 6.029-.11.144-.06 1.113-.358.937-1.286-2.582-2.688-5.103-4.09-7.623-.643-.962-.55-1.34-.154-1.361zm20.38.49c.063-.004.111.02.136.086l-.293.275-.232.188c-.458.397-.674.534-.734.525h-.002l-.002-.002h-.002l-.004-.004h-.002l-.002-.002v-.002l-.002-.006c-.021-.14.79-1.04 1.139-1.059zm.937 1.988-.015.002h-.002c-.183.025-.198.525-.508 1.197-.2.399-.254.59-.219.64l.004.004.006.004.004.004h.002c.194.048 1.32-1.392 1.178-1.592l-.004-.004-.004-.002q-.03-.026-.104-.008c-.16-.17-.262-.246-.338-.246zm-4.082.287c.5-.006-.65 2.1-1.1 2.727-.87 1.96-2.559 3.343-4.246 4.584-1.245.655.464-1.751.62-1.97 1.482-1.407 2.101-3.644 3.866-4.761.45-.412.72-.579.86-.58zm-18.73.408c1.328.707 2.707 2.678 3.777 4.059l-.056.047-.215.002c-2.488.407-3.978-1.833-3.506-4.107zm19.53.074h.016l.006.004h.002l.002.002.002.004v.002c.066.118-.243.951-.611 1.365l-.159.258c-.26.433-.395.61-.443.627h-.006l-.002.002h-.002l-.002-.002h-.004v-.002l-.004-.004v-.002l-.002-.006c-.022-.144.436-1.166.715-1.559.273-.482.426-.673.492-.687zm4.537 1.291c.483 1.436-1.742 4.014-3.356 4.801.54-1.043.046-.944-.459-.191l-.207.23c-1.26 1.66-1.16-.39-.62-1.354.675-2.034 2.767-2.862 4.642-3.486zm-27.41 1.56c1.407.477 2.606 2.278 3.963 3.21 2.464 1.674 4.561 4.193 4.967 7.22.082.106-.002.975-.334.44-1.376-1.923-3.257-3.418-4.629-5.336-.237-.433-1.674-2.43-1.904-2.342l-.006.004-.006.003-.004.006c-.03.048-.01.188.086.448.23.79 2.63 2.95 1.242 2.629-1.633-1.75-2.539-4.072-3.375-6.281zm5.47 1.646v.002q.148-.002.403.072c2.381.35 3.256 2.775 3.2 4.881l.03.311.018.262c-.525.095-1.574-1.958-2.244-2.728-.242-.636-2.374-2.796-1.408-2.8zm16.28.352c.983.275-.493 2.88-.694 3.898-.46.35-1.122-.073-1.607-.156.098-1.185 1.326-2.776 2.3-3.742zm-2.065.203c.918.346-.32 3.459-1.703 3.18a6 6 0 0 0-.846.049c.124-.935 1.476-2.51 2.55-3.228zm-28.2.643-.023.002a.1.1 0 0 0-.045.013l-.002.002v.002l-.004.004v.008h-.002v.004l.002.002c.017.059.236.191.79.412.232.064.472.172.72.14-.305-.332-1.123-.58-1.41-.59zm24.02.298c.364 1.466-1.046 3.015-1.959 4.156l-.289.24c.034-1.65 1.017-3.284 2.248-4.395zm13.92 2.705a.93.93 0 0 0-.633.243l.254.042.24.016c1.34.213.799-.314.14-.3m-9.455.545c.4-.017.733.094.899.399-.793 1.625-3.34 1.804-4.725 3.11-1.873.816 1.106-1.91 1.26-2.347.48-.484 1.687-1.125 2.566-1.162zm10.7 1.162c-.45.001-1.336.163-1.367.309l-.002.002v.002l.004.015v.002c.022.037.107.075.273.106.224-.063.542.27.706-.053.443-.152.627-.255.646-.314v-.01l-.002-.006-.002-.002v-.004l-.004-.006c-.03-.029-.125-.041-.252-.04zm-26.37.172c1.256.657 3.49 2.301 3.141 3.646-.425.061-.859.036-1.285-.008-.768-.742-2.584-2.854-1.856-3.639zm10.59.315c.168 1.718-.344 3.513-2.05 4.26-.14.162-.627.356-.462-.086.226-1.471 1.646-3.833 2.512-4.174m4.13 1.254c.194.806-2.256 2.418-3.226 3.316-.135-.1-.348.435-.51.24.255-1.867 1.914-3.247 3.734-3.557zm-15.95 1.432c.842-.01 2.152.592 1.034.847-.534.259-4.086-.661-1.508-.732.11-.08.278-.113.473-.115zm-6.692 1.129v.002h-.002v.002h.002v.002h.006q.013 0 .041-.002-.023-.003-.047-.004zm10.75.226c.486-.003 1.293.487 1.004 1.295.275 1.238-.637-.011-.89-.312-.676-.68-.492-.98-.114-.983zm21.38.76-.006.002h-.002l-.002.002h-.002l-.002.002v.004l.004.004c.036.033.259.125.764.306l.234.07.225.063c.486.107.7.14.738.129h.002l.006-.004v-.002l-.002-.002v-.002c-.09-.087-1.733-.567-1.947-.572zm-15.14.607h.008l.008.002.006.002c.03.016.07.08.115.215-.053.142-.099.205-.13.219l-.01.002h-.011l-.005-.004-.002-.002c-.06-.06-.055-.369.01-.424l.01-.006zm-.861 1.3c.418.005.89.649.146 1.311-.498.997-.552.131-.543-.341-.12-.671.1-.947.356-.97l.04-.001z" transform="translate(-15.896 -17.616)scale(1.5147)"/></svg>