<svg xmlns="http://www.w3.org/2000/svg" fill="none" viewBox="0 0 64 64"><defs><radialGradient id="a" cx="0" cy="0" r="1" gradientTransform="matrix(0 108 -107 0 64 10)" gradientUnits="userSpaceOnUse"><stop offset="0" stop-color="#bafa52"/><stop offset=".38" stop-color="#6ce97a"/><stop offset="1" stop-color="#00a3ff"/></radialGradient></defs><path fill="url(#a)" d="M122.3 34.26c-.497-1.319-2.011-1.989-3.308-1.427-1.232.519-1.838 1.924-1.362 3.157a57.3 57.3 0 0 1 3.654 20.17c0 29.1-21.69 53.12-49.77 56.8V86.21a35 35 0 0 0 4.973-1.341v22.49c23.07-5.6 40.19-26.4 40.19-51.2 0-19.85-10.98-37.15-27.2-46.12-1.232-.692-2.811-.195-3.438 1.081-.584 1.189-.13 2.638 1.016 3.265 14.68 8.13 24.63 23.78 24.63 41.77 0 20.17-12.52 37.43-30.23 44.41v-19.93c3.07-.973 5.384-3.827 5.384-7.243 0-2.832-1.47-5.276-3.74-6.595 1.795-17.19 9.622-12.67 9.622-18.14v-3.178c0-8.216-19.01-34.98-27.89-35.61a10.4 10.4 0 0 0-1.643 0c-8.908.649-27.91 27.39-27.91 35.61v3.2c0 5.47 7.849.93 9.622 18.14-2.292 1.319-3.741 3.762-3.741 6.595 0 3.416 2.292 6.27 5.362 7.243v19.94c-17.71-6.962-30.23-24.22-30.23-44.41 0-17.97 9.946-33.62 24.63-41.77a2.47 2.47 0 0 0 1.016-3.265 2.483 2.483 0 0 0-3.438-1.081c-16.22 8.973-27.2 26.27-27.2 46.12 0 24.8 17.12 45.58 40.19 51.2v-22.49a43 43 0 0 0 4.973 1.34v26.75c-28.06-3.676-49.77-27.7-49.77-56.8 0-7.092 1.297-13.9 3.654-20.17a2.47 2.47 0 0 0-1.362-3.157 2.483 2.483 0 0 0-3.308 1.427 62.3 62.3 0 0 0-3.957 21.9c0 33.54 26.51 60.89 59.74 62.23v-31.55c1.47.087 3.243.108 5.06 0v31.52c33.23-1.319 59.74-28.67 59.74-62.21 0-7.719-1.405-15.09-3.957-21.92zM79.1 68.29a5.12 5.12 0 0 1 5.124 5.124 5.12 5.12 0 0 1-5.124 5.124 5.12 5.12 0 0 1-5.124-5.124A5.12 5.12 0 0 1 79.1 68.29M48.87 78.52a5.12 5.12 0 0 1-5.124-5.124 5.12 5.12 0 0 1 5.124-5.124 5.12 5.12 0 0 1 5.124 5.124 5.12 5.12 0 0 1-5.124 5.124" transform="translate(-.883 -.927)scale(.5139)"/></svg>