<svg xmlns="http://www.w3.org/2000/svg" style="isolation:isolate" viewBox="0 0 64 64"><g transform="translate(-3.92 -3.93)scale(1.12289)"><linearGradient id="a" x2="1.018" y1=".5" y2=".5" gradientTransform="matrix(27 0 0 22.68 10.5 12.66)" gradientUnits="userSpaceOnUse"><stop offset="0" stop-color="#5433ff"/><stop offset=".517" stop-color="#20bdff"/><stop offset=".983" stop-color="#a5fecb"/></linearGradient><linearGradient id="c" x1=".072" x2=".999" y1=".744" y2=".496" gradientTransform="matrix(46 0 0 46 .959 1.03)" gradientUnits="userSpaceOnUse"><stop offset="0" stop-color="#5433ff"/><stop offset=".517" stop-color="#20bdff"/><stop offset=".983" stop-color="#a5fecb"/></linearGradient><path fill="url(#a)" d="M24 12.66 10.5 35.34l11.81-6.663 1.688-.952 1.689.952 11.81 6.663z" transform="translate(2.312 2.224)scale(1.239)"/><path fill="url(#c)" fill-rule="evenodd" d="M24.74 1.044a23 23 0 0 0-10.75 2.254 2 2 0 0 0-.932 2.67 2.01 2.01 0 0 0 2.67.941 18.9 18.9 0 0 1 8.878-1.869 18.94 18.94 0 0 1 8.445 2.31 2.004 2.004 0 0 0 1.921-3.517 23 23 0 0 0-10.23-2.79zM9.44 6.416a2 2 0 1 0-.134 3.998 2 2 0 0 0 .134-3.998m29.8 1.016a2 2 0 1 0-.134 3.998 2 2 0 0 0 .134-3.998M5.58 11.879a1.99 1.99 0 0 0-1.761 1.028 22.9 22.9 0 0 0-2.854 10.34 23.2 23.2 0 0 0 1.164 8.075 2 2 0 1 0 3.796-1.263 19 19 0 0 1-.962-6.676 18.95 18.95 0 0 1 2.35-8.535 2 2 0 0 0-1.734-2.97zm37.23.78a2 2 0 0 0-1.852 2.896 19.06 19.06 0 0 1 1.98 9.124 18.8 18.8 0 0 1-1.59 6.98 2.002 2.002 0 1 0 3.667 1.606 22.9 22.9 0 0 0 1.92-8.45 22.9 22.9 0 0 0-2.406-11.05 2 2 0 0 0-1.72-1.106zM7.99 35.15a2 2 0 0 0-2.068 1.93 2 2 0 1 0 2.068-1.93zm32.02 1.091a2.001 2.001 0 0 0-.137 3.998 2 2 0 1 0 .138-3.998zm-26.75 3.81a2.002 2.002 0 0 0-1.116 3.716 23.002 23.002 0 0 0 23.28.193 2 2 0 0 0 .733-2.732 2.01 2.01 0 0 0-2.736-.74 18.9 18.9 0 0 1-10.12 2.527 18.9 18.9 0 0 1-9.104-2.682 2 2 0 0 0-.941-.283z" transform="translate(2.312 2.224)scale(1.239)"/></g></svg>