<svg style="isolation:isolate" version="1.1" viewBox="0 0 64 64" xmlns="http://www.w3.org/2000/svg">
 <g transform="translate(0) scale(1) translate(0) scale(1) translate(.00032 .00013) scale(1) translate(-4.633 -4.027) scale(1.495)">
  <linearGradient id="a" x1=".672" x2=".422" y1=".021" y2=".96" gradientTransform="matrix(42 0 0 42.81 3.5 2.69)" gradientUnits="userSpaceOnUse">
   <stop stop-color="#1a6cff" offset="0"/>
   <stop stop-color="#c522ff" offset="1"/>
  </linearGradient>
  <path d="m25.39 31.63-3.947 5.92a8.96 8.96 0 0 1-2.579 5.314c-1.68 1.69-3.97 2.64-6.36 2.64s-4.68-.95-6.36-2.64c-1.69-1.68-2.64-3.97-2.64-6.36s.95-4.68 2.64-6.36c1.68-1.69 3.97-2.64 6.36-2.64s4.68.95 6.36 2.64a8.9 8.9 0 0 1 1.959 2.926l3.268-4.901-.017-.045.062-.023 6.618-9.927a1.501 1.501 0 0 1 2.5 1.66l-5.818 8.726 1.285 3.426a9 9 0 0 1 1.423-1.842c1.68-1.69 3.97-2.64 6.36-2.64s4.68.95 6.36 2.64c1.69 1.68 2.64 3.97 2.64 6.36s-.95 4.68-2.64 6.36c-1.68 1.69-3.97 2.64-6.36 2.64s-4.68-.95-6.36-2.64a8.96 8.96 0 0 1-2.597-5.482zM6.5 36.504c0-1.59.63-3.12 1.76-4.24 1.12-1.13 2.65-1.76 4.24-1.76s3.12.63 4.24 1.76c1.13 1.12 1.76 2.65 1.76 4.24s-.63 3.12-1.76 4.24c-1.12 1.13-2.65 1.76-4.24 1.76s-3.12-.63-4.24-1.76a5.97 5.97 0 0 1-1.76-4.24m24 0c0-1.59.63-3.12 1.76-4.24 1.12-1.13 2.65-1.76 4.24-1.76s3.12.63 4.24 1.76c1.13 1.12 1.76 2.65 1.76 4.24s-.63 3.12-1.76 4.24c-1.12 1.13-2.65 1.76-4.24 1.76s-3.12-.63-4.24-1.76a5.97 5.97 0 0 1-1.76-4.24m-5.12-23.38-2.93-5.87-.01-.01c-.23-.47-.58-.88-1.02-1.17-.33-.24-.73-.36-1.14-.37-.21 0-.42.05-.61.14-.26.13-.47.34-.61.6-.18.34-.27.71-.26 1.09 0 .47.11.94.33 1.37v.01l3.99 7.98zm1.83-3.05 2.44-4.41c.53-.89 1.27-1.63 2.15-2.16.85-.52 1.82-.8 2.81-.81.72-.01 1.42.15 2.06.47a4.4 4.4 0 0 1 1.91 1.87c.42.77.63 1.64.62 2.52 0 .94-.23 1.86-.65 2.7l-2.21 4.42a1.498 1.498 0 0 1-2.68-1.34l2.21-4.42v-.01c.22-.43.33-.9.33-1.37.01-.38-.08-.75-.26-1.09-.14-.25-.35-.46-.61-.6-.21-.1-.45-.16-.69-.15-.45 0-.89.13-1.27.37-.47.28-.86.67-1.14 1.14l-3.43 6.05-4.89 8.145c-.569.947-1.431.913-1.924-.074l-5.536-11.07c-.42-.84-.65-1.76-.65-2.7-.01-.88.2-1.75.62-2.52.43-.81 1.09-1.46 1.91-1.87.61-.31 1.29-.47 1.98-.46 1 .01 1.98.32 2.81.89.86.59 1.55 1.39 2.01 2.32z" fill="url(#a)" fill-rule="evenodd"/>
 </g>
</svg>
