<svg version="1.1" viewBox="0 0 64 64" xmlns="http://www.w3.org/2000/svg" xmlns:xlink="http://www.w3.org/1999/xlink">
 <defs>
  <linearGradient id="a" x1="1" x2="0" y2="1">
   <stop stop-color="#ffc700" offset="0"/>
   <stop stop-color="#ff49ab" offset=".552"/>
   <stop stop-color="#ba49ff" offset="1"/>
  </linearGradient>
  <linearGradient id="c" x1="41.81" x2="22.05" y1="21.57" y2="42.61" gradientTransform="scale(1.003 .9974)" gradientUnits="userSpaceOnUse" xlink:href="#a"/>
  <linearGradient id="b" x1="52.72" x2="7.072" y1="9.936" y2="53.27" gradientTransform="scale(.9987 1.001)" gradientUnits="userSpaceOnUse" xlink:href="#a"/>
 </defs>
 <path transform="translate(-.005584 1e-5) scale(1) translate(-.004675 -8.5e-5) scale(1)" d="m36.76 0.01172v0.009766c-0.1591 0-0.3195 0.009896-0.4824 0.0293-3.39 0.06693-6.851-0.1734-10.35 0.03906l-0.6641 0.03906-0.03516 0.2168c-0.8148 0.291-1.486 0.7933-1.914 1.416-0.5413 0.7915-0.8444 1.665-1.092 2.381-0.3783 1.042-0.4404 2.086-0.5859 2.977-0.1397 0.8788-0.354 1.578-0.8574 2.143-1.088 0.8468-2.409 1.524-3.723 2.312a183.3 183.3 0 0 1-5.371-1.932h-0.01172c-2.089-0.7508-4.485-0.02512-5.725 1.773v0.0059c-1.6 2.346-2.977 4.772-4.461 7.1l-0.00586 0.0059v0.0059c-0.7682 1.246-1.842 2.953-1.188 4.854 0.5296 1.705 1.748 2.854 2.951 3.842 1.146 0.9487 2.259 1.796 3.018 2.773 0.128 1.094 0.01467 2.311 0.01758 3.613-1.513 1.568-3.56 2.823-5.207 4.695l-0.02734 0.02735c-0.7799 0.9807-0.9424 2.157-0.7969 3.207 0.1455 1.048 0.5682 2.015 0.9727 2.842l0.01758 0.0293c1.339 2.453 2.737 4.883 4.223 7.264 1.106 1.938 3.496 2.845 5.67 2.336h0.0059c2.086-0.5092 4.01-1.306 5.922-1.984 1.356 0.7042 2.678 1.51 4.002 2.33 0.5791 2.386 0.9615 4.903 1.916 7.365l0.0059 0.0059c0.5005 1.222 1.633 1.673 2.238 2.098l0.2266 0.1582 0.2734-0.0039c3.806-0.1048 7.675 0.09604 11.57-0.0293h0.07813l0.08008-0.01758c2.008-0.4598 3.312-1.866 4.025-3.451 0.6984-1.551 0.8995-3.282 0.9082-4.789 0.1542-1.307-0.624-2.427-1.637-3.018-1.007-0.5878-2.353-0.7337-3.471-0.05273-1.077 0.6053-1.557 1.655-1.764 2.604-0.1571 0.713-0.2076 1.316-0.2891 1.893-2.162 0-4.318 0.0087-6.469-0.0059a78.57 78.57 0 0 0-1.119-4.83l-0.0059-0.01172v-0.01172c-0.6256-2.116-2.436-3.46-4.191-4.354-1.417-0.7537-2.859-1.931-4.795-2.408l-0.03516-0.0059c-3.067-0.6053-5.587 0.9525-7.9 1.727-1.065-1.932-2.198-3.805-3.238-5.682 1.464-1.193 3.122-2.336 4.432-3.955 1.627-1.95 1.198-4.391 1.297-6.166 0.1164-1.979-0.1311-4.29-1.746-5.98v-0.0059c-1.269-1.318-2.684-2.394-4.012-3.518 1.161-1.804 2.255-3.623 3.381-5.404 2.017 0.582 4.172 1.874 6.856 1.705 1.804-0.0873 3.178-1.087 4.371-1.762l0.01172-0.01172c1.708-1.024 3.853-2.043 5.02-4.127v-0.0059c0.9894-1.758 1.399-3.67 1.67-5.523 2.138 0.01551 4.264 0.0175 6.4 0.00586 0.4132 1.627 0.7522 3.296 1.221 4.978l0.0059 0.04102 0.01172 0.02734c0.6315 1.708 1.934 2.846 3.309 3.711s2.862 1.526 4.049 2.279l0.02734 0.01758 0.03516 0.02148c1.842 0.9603 3.718 0.7625 5.4 0.2734 1.472-0.4307 2.818-1.011 4.092-1.393 1.048 1.892 2.143 3.72 3.19 5.564-1.862 1.644-4.54 3.114-5.469 6.07l-0.02148 0.07422-0.01172 0.07813a34.92 34.92 0 0 0-0.1133 6.48l0.0098 0.06836c0.291 1.825 1.368 3.183 2.564 4.307 1.03 0.9632 2.117 1.774 3.07 2.598-1.146 1.848-2.262 3.697-3.44 5.48-1.141-0.4802-2.345-1.086-3.83-1.228h-0.0059c-2.671-0.2619-4.622 2.969-2.975 5.059 0.6868 0.9283 1.656 1.404 2.564 1.738 0.9129 0.3323 1.803 0.5529 2.488 0.875 2.174 1.085 5.187 0.8309 6.668-1.352l0.0059-0.0059c1.796-2.695 3.442-5.463 5.104-8.201l0.02344-0.0332c0.8672-1.31 1.136-3.067 0.3008-4.551-0.713-1.493-1.934-2.476-3.07-3.371-1.091-0.8672-2.055-1.676-2.648-2.648-0.01746-1.292-0.07157-2.527 0.1758-3.59 1.484-1.577 3.725-2.768 5.273-4.894 0.7537-1.004 0.8139-2.2 0.5898-3.213s-0.6928-1.921-1.051-2.678l-0.02148-0.04492a122.2 122.2 0 0 0-4.264-7.275c-1.164-1.953-3.65-2.648-5.754-2.109-2.046 0.4889-3.899 1.282-5.756 1.916-1.382-0.7537-2.74-1.466-3.893-2.336-0.6286-1.641-0.6915-3.613-1.422-5.627a5.733 5.733 0 0 0-1.899-2.82 4.656 4.656 0 0 0-2.922-1.068z" fill="url(#b)"/>
 <path transform="translate(-.005584 1e-5) scale(1) translate(-.004675 -8.5e-5) scale(1)" d="m32.74 17.63-0.05078 0.02344a14.4 14.4 0 0 0-15.13 14.02 14.4 14.4 0 0 0 14.52 14.72 14.28 14.28 0 0 0 14.39-14.39 14.4 14.4 0 0 0-13.73-14.37zm-0.6816 6.637h0.04492a7.528 7.528 0 0 1 7.723 7.719v0.05664a7.528 7.528 0 0 1-7.723 7.717h-0.04492a7.528 7.528 0 0 1-7.717-7.717v-0.05664a7.528 7.528 0 0 1 7.717-7.719z" fill="url(#c)"/>
</svg>
