<svg fill="none" version="1.1" viewBox="0 0 64 64" xmlns="http://www.w3.org/2000/svg">
 <defs>
  <linearGradient id="a" x1="40" x2="40" y1="6" y2="40" gradientUnits="userSpaceOnUse">
   <stop stop-color="#dc18fc" offset="0"/>
   <stop stop-color="#8e1eff" offset="1"/>
  </linearGradient>
  <linearGradient id="b" x1="24" x2="24" y1="58" y2="24" gradientUnits="userSpaceOnUse">
   <stop stop-color="#5570ff" offset="0"/>
   <stop stop-color="#4dd3ff" offset="1"/>
  </linearGradient>
  <linearGradient id="d" x1="27" x2="27" y1="48" y2="34" gradientUnits="userSpaceOnUse">
   <stop stop-color="#5570ff" offset="0"/>
   <stop stop-color="#4dd3ff" offset="1"/>
  </linearGradient>
 </defs>
 <path transform="translate(-.000145 -.000128) scale(.9999)" d="m21.92 0.6426c-3.064 0-5.602 2.536-5.602 5.6v16.8a2.24 2.24 0 0 0 2.24 2.24 2.24 2.24 0 0 0 2.24-2.24v-16.8c0-0.6592 0.4619-1.119 1.121-1.119h36.04l-2.566 2.568c-0.6296 0.6294-0.9842 1.485-0.9844 2.375v27.54c0 0.6592-0.4619 1.119-1.121 1.119h-8.4a2.24 2.24 0 0 0-2.24 2.24 2.24 2.24 0 0 0 2.24 2.24h8.4c3.064 0 5.6-2.536 5.6-5.6v-27.08l4.152-4.152c0.9914-0.9914 1.202-2.519 0.7285-3.662-0.4738-1.143-1.702-2.074-3.104-2.074z" fill="url(#a)" stop-color="#000000" stroke-linecap="round" stroke-linejoin="round"/>
 <path transform="translate(-.000145 -.000128) scale(.9999)" d="m3.348 20.8c-1.402 0-2.632 0.9313-3.105 2.074-0.4738 1.143-0.2629 2.671 0.7285 3.662l4.152 4.152v27.08c0 3.064 2.536 5.6 5.6 5.6h31.36c3.064 0 5.602-2.536 5.602-5.6v-31.36c0-3.064-2.538-5.602-5.602-5.602h-38.73a2.24 2.24 0 0 0-0.00586-0.0039zm2.707 4.484h36.03c0.6592 0 1.121 0.4619 1.121 1.121v31.36c0 0.6592-0.4619 1.119-1.121 1.119h-31.36c-0.6592 0-1.119-0.4599-1.119-1.119v-27.54c-1.904e-4 -0.8902-0.3548-1.746-0.9844-2.375z" fill="url(#b)" stop-color="#000000" stroke-linecap="round" stroke-linejoin="round"/>
 <path transform="translate(-.000145 -.000128) scale(.9999)" d="m15.2 33.12c-0.6533 0-1.286 0.2856-1.678 0.7266-0.3919 0.4409-0.5625 0.9848-0.5625 1.514 0 0.5289 0.1706 1.073 0.5625 1.514 0.3919 0.4409 1.024 0.7266 1.678 0.7266h22.4c0.6533 0 1.286-0.2856 1.678-0.7266 0.3919-0.4409 0.5625-0.9848 0.5625-1.514 0-0.5289-0.1706-1.073-0.5625-1.514-0.3919-0.4409-1.024-0.7266-1.678-0.7266zm0 6.721c-0.6533 0-1.286 0.2837-1.678 0.7246-0.3919 0.4409-0.5625 0.9848-0.5625 1.514 0 0.5289 0.1706 1.075 0.5625 1.516 0.3919 0.4409 1.024 0.7246 1.678 0.7246h22.4c0.6533 0 1.286-0.2837 1.678-0.7246 0.3919-0.4409 0.5625-0.9867 0.5625-1.516 0-0.5289-0.1706-1.073-0.5625-1.514-0.3919-0.4409-1.024-0.7246-1.678-0.7246zm0 6.719c-0.6533 0-1.286 0.2856-1.678 0.7266-0.3919 0.4409-0.5625 0.9848-0.5625 1.514 0 0.5289 0.1706 1.073 0.5625 1.514 0.3919 0.4409 1.024 0.7266 1.678 0.7266h16.58c0.6533 0 1.284-0.2856 1.676-0.7266 0.3919-0.4409 0.5645-0.9848 0.5645-1.514 0-0.5289-0.1725-1.073-0.5645-1.514-0.3919-0.4409-1.022-0.7266-1.676-0.7266z" fill="url(#d)" stop-color="#000000" stroke-linecap="round" stroke-linejoin="round"/>
</svg>
