<svg version="1.1" viewBox="0 0 64 64" xmlns="http://www.w3.org/2000/svg">
 <defs>
  <linearGradient id="a" x1="1" x2="0" y1=".5" y2=".5">
   <stop stop-color="#ffc700" offset="0"/>
   <stop stop-color="#ff49ab" offset=".552"/>
   <stop stop-color="#ba49ff" offset="1"/>
  </linearGradient>
 </defs>
 <path transform="translate(-.0026) scale(1) translate(.001594) scale(2.908)" d="m9.826 0c-1.378 0-2.492 1.115-2.492 2.492a1.247 1.247 0 0 1-1.867 1.078 2.494 2.494 0 0 0-3.402 0.9141l-1.176 2.035a2.494 2.494 0 0 0 0.9121 3.402 1.247 1.247 0 0 1 0 2.16 2.494 2.494 0 0 0-0.9121 3.404l1.176 2.035a2.494 2.494 0 0 0 3.402 0.9141 1.247 1.247 0 0 1 1.871 1.076c0 1.378 1.113 2.494 2.488 2.494h2.352c1.378 0 2.488-1.118 2.488-2.494a1.247 1.247 0 0 1 1.871-1.076 2.494 2.494 0 0 0 3.404-0.9141l1.174-2.035a2.494 2.494 0 0 0-0.9121-3.404 1.247 1.247 0 0 1 0-2.16c1.191-0.688 1.6-2.211 0.9121-3.402l-1.174-2.035a2.494 2.494 0 0 0-3.404-0.9141 1.247 1.247 0 0 1-1.871-1.078c0-1.378-1.113-2.492-2.488-2.492zm0 2.201h2.352c0.1614 0 0.2891 0.1297 0.2891 0.291 0 2.652 2.873 4.31 5.17 2.982a0.2934 0.2934 0 0 1 0.3984 0.1094l1.176 2.035a0.2934 0.2934 0 0 1-0.1055 0.3984c-2.297 1.328-2.297 4.643 0 5.971a0.2934 0.2934 0 0 1 0.1055 0.3984l-1.176 2.035a0.2934 0.2934 0 0 1-0.3984 0.1074c-2.296-1.328-5.168 0.3318-5.168 2.982 0 0.1614-0.1297 0.2891-0.291 0.2891h-2.352a0.2934 0.2934 0 0 1-0.291-0.2891c0-2.652-2.871-4.31-5.168-2.982a0.2934 0.2934 0 0 1-0.4023-0.1074l-1.172-2.035a0.2934 0.2934 0 0 1 0.1074-0.3984c2.297-1.328 2.297-4.643 0-5.971a0.2934 0.2934 0 0 1-0.1094-0.3984l1.174-2.035a0.2934 0.2934 0 0 1 0.4023-0.1094c2.297 1.328 5.168-0.3318 5.168-2.982 0-0.1614 0.1316-0.2891 0.293-0.2891z" fill="url(#a)"/>
 <path transform="translate(-.0026) scale(1) translate(.001594) scale(2.908)" d="m11 6.234c-2.62 0-4.768 2.148-4.768 4.768s2.148 4.768 4.768 4.768 4.768-2.148 4.768-4.768-2.148-4.768-4.768-4.768zm0 2.201c1.431 0 2.568 1.135 2.568 2.566s-1.137 2.568-2.568 2.568-2.566-1.137-2.566-2.568 1.135-2.566 2.566-2.566z" fill="url(#a)"/>
</svg>
