<svg xmlns="http://www.w3.org/2000/svg" viewBox="0 0 64 64"><defs><linearGradient id="b" x2="0" y1="1"><stop offset="0" stop-color="#fd2e00"/><stop offset="1" stop-color="#f90"/></linearGradient><linearGradient id="a" x1="1" x2="0" y2="1"><stop offset="0" stop-color="#00efff"/><stop offset="1" stop-color="#07f"/></linearGradient></defs><path fill="url(#a)" d="M11.02.82q-2.18 0-4.119.84A10.8 10.8 0 0 0 3.52 3.943 10.8 10.8 0 0 0 1.237 7.31q-.84 1.926-.84 4.127 0 2.168.826 4.096c.826 1.928 1.305 2.408 2.268 3.371s2.09 1.717 3.383 2.268q1.939.826 4.115.826c2.176 0 2.82-.276 4.111-.826s2.416-1.305 3.38-2.268 1.723-2.085 2.282-3.37q.84-1.93.84-4.097 0-.54-.388-.93a1.26 1.26 0 0 0-.93-.39q-.543 0-.918.39-.377.39-.377.93 0 3.307-2.338 5.641c-2.338 2.334-3.447 2.334-5.666 2.334s-4.106-.78-5.664-2.338-2.338-3.444-2.338-5.652q0-3.313 2.352-5.65t5.68-2.338q.393 0 .732.041c.34.041.468.06.725.096q.55.027.935-.363c.385-.39.385-.584.385-.971a1.16 1.16 0 0 0-.385-.897 1.73 1.73 0 0 0-.935-.435 27 27 0 0 0-.725-.06 11 11 0 0 0-.726-.024z" transform="translate(-.002)scale(2.909)"/><path fill="url(#a)" d="M10.82 5.934q-.447 0-.72.285a.98.98 0 0 0-.274.705v4.537q0 .272.096.496.096.225.289.385l3.106 3.107q.302.33.687.33c.385 0 .49-.1.701-.302s.317-.435.317-.696a1 1 0 0 0-.303-.707L11.803 11.2l.004-4.27q0-.45-.27-.724-.27-.272-.716-.272z" transform="translate(-.002)scale(2.909)"/><path fill="url(#b)" d="M16.63 0c-.402 0-1.609.012-1.609 2.01 0 1.608.805 6.035 1.609 6.035s1.607-4.422 1.607-6.035C18.237.013 17.032 0 16.63 0m-.082 8.447a1.206 1.206 0 0 0-1.125 1.203 1.207 1.207 0 0 0 2.414 0 1.206 1.206 0 0 0-1.289-1.203" transform="translate(-.002)scale(2.909)"/></svg>