<svg xmlns="http://www.w3.org/2000/svg" style="isolation:isolate" viewBox="0 0 64 64"><linearGradient id="a" x1=".518" x2=".507" y1=".033" y2=".968" gradientTransform="matrix(46.88 0 0 44.17 1.105 1.827)" gradientUnits="userSpaceOnUse" transform="translate(-1.508 -.65)scale(1.365)"><stop offset="0" stop-color="#f46133"/><stop offset=".988" stop-color="#f05081"/></linearGradient><path fill="url(#a)" fill-rule="evenodd" d="M17.29 35.18v7.823h-3v-5.144a14 14 0 0 0-1.319 2.264 31 31 0 0 0-1.54 3.85l-.47 1.42-.034-.011c-.15.364-.508.621-.926.621h-6.98c-1.656 0-2.376-1.191-1.607-2.657l21.19-40.42c.769-1.466 2.017-1.466 2.786 0l22.59 43.07h-7l-1.05-.95c-.21-.21-.45-.4-.7-.55a49 49 0 0 0-1.941-1.155v2.655h-3v-4.527l-.019-.013a28 28 0 0 1-1.981-1.466v4.006h-3V37.26a25 25 0 0 0-1.079-.894 10 10 0 0 0-.921-.626v7.256h-3V34.63a16 16 0 0 0-2-.171v7.537h-3v-7.428a7 7 0 0 0-2 .605zm24.83 7.823h.901l-19.02-36.27-19.02 36.27h3.6a37 37 0 0 1 1.67-4.16c.61-1.29 1.37-2.49 2.26-3.59.88-1.08 1.97-1.98 3.19-2.64 1.31-.67 2.76-1.05 4.24-1.11.59-.03 1.17-.04 1.76-.04 1.04-.02 2.08.06 3.1.22.95.15 1.87.43 2.74.81.89.41 1.73.91 2.5 1.51.88.68 1.71 1.41 2.49 2.2 1.05 1.02 2.19 1.95 3.41 2.77 1.05.7 2.13 1.37 3.23 2 .55.31 1.09.64 1.62.97.47.28.9.62 1.28 1.01z" transform="translate(-1.508 -.65)scale(1.365)"/></svg>