<svg version="1.1" viewBox="0 0 64 64" xmlns="http://www.w3.org/2000/svg">
 <defs>
  <linearGradient id="a" x1="1" x2="0" y2="1">
   <stop stop-color="#fff44f" offset=".05"/>
   <stop stop-color="#ff980e" offset=".37"/>
   <stop stop-color="#ff3647" offset=".53"/>
   <stop stop-color="#e31587" offset=".7"/>
  </linearGradient>
 </defs>
 <path transform="translate(0) scale(1) translate(-.00025) scale(1) translate(-4.568 -4.571) scale(4.571)" d="m8 1-.758 1.768.205.467c-1.162.079-1.02.308-.998.336 0 0-1.428.265-1.428.463v.017a4.8 4.8 0 0 0-.838.543c-3.596 4.832.253 5.95-.601 8.756-.185.61-.96 1.644-.96 1.644s1.56.193 2.204-1.633c.52-1.476-1.244-4.445.072-5.773 1.867-1.884 3.25 1.997 2.666 2.535-.538.489-.465.657-.447.684l.002.002.883 1.783.878-1.783v-.002l.002-.002c.02-.027.094-.193-.443-.682-.589-.538.8-4.423 2.662-2.535 1.321 1.333-.45 4.297.076 5.773.644 1.825 2.203 1.633 2.203 1.633s-.769-1.044-.959-1.644c-.853-2.8 2.983-3.92-.61-8.756a5.4 5.4 0 0 0-.831-.537v-.02c0-.201-1.426-.462-1.426-.462l.002-.002c.022-.028.164-.255-1.004-.334l.203-.467z" fill="url(#a)"/>
</svg>
