<svg xmlns="http://www.w3.org/2000/svg" viewBox="0 0 64 64"><defs><linearGradient id="a" y1=".5" y2=".5"><stop offset="0" stop-color="#eca704"/><stop offset=".185" stop-color="#e87f09"/><stop offset=".361" stop-color="#d63255"/><stop offset=".527" stop-color="#4a2a7d"/><stop offset=".693" stop-color="#343f91"/><stop offset=".844" stop-color="#0a7fb5"/><stop offset="1" stop-color="#019c7a"/></linearGradient></defs><path fill="url(#a)" d="M31.48 0v.008c-2.217.03-4.419.61-6.111 1.936-1.967 1.488-2.987 3.668-3.961 5.75-6.77 15.5-13.64 30.99-20.41 46.49-.777 1.85-1.437 3.965-.611 5.9 1.073 2.28 3.707 3.949 6.488 3.887 1.906.06 3.962-.606 4.912-2.188 1.42-2.3 2.182-4.876 3.262-7.314 5.393-13.19 10.74-26.39 16.06-39.61.175-.382.43-.734.673-1.088 2.38 6.062 4.895 12.08 7.334 18.12 2.288 5.53 4.32 11.13 6.739 16.62 1.74 4.008 3.24 8.12 5.324 12 .787 1.466 2.133 2.772 3.911 3.225 3.092.823 6.616-.47 8.158-3.023 1.494-2.277.455-5.02-.488-7.303C55.907 38 48.82 22.67 42.02 7.24 40.775 4.4 38.763 1.51 35.397.49a14.6 14.6 0 0 0-3.912-.5z" transform="translate(-.005 .011)"/></svg>