<svg xmlns="http://www.w3.org/2000/svg" style="isolation:isolate" viewBox="0 0 64 64"><linearGradient id="a" x2="1" y1=".5" y2=".5" gradientTransform="matrix(19.88 0 0 14.17 14.04 25.16)" gradientUnits="userSpaceOnUse" transform="translate(-1.203 -1.2)scale(1.383)"><stop offset="0" stop-color="#ffe031"/><stop offset=".987" stop-color="#fc5252"/></linearGradient><path fill="url(#a)" d="m16.27 37.23-.38.93-1.85-.75.37-.93 4.21-10.44 3.53 8.35 2.5-5.41 1.71 4.43 3.47-8.25 3.78 11.38.31.95-1.89.63-.32-.95-2.1-6.33-3.33 7.92-1.8-4.65-2.41 5.22-3.41-8.05z" transform="translate(-1.203 -1.2)scale(1.383)"/><linearGradient id="c" x2=".907" y1=".5" y2=".92" gradientTransform="matrix(46.26 0 0 38.28 .87 4.859)" gradientUnits="userSpaceOnUse" transform="translate(-1.203 -1.2)scale(1.383)"><stop offset="0" stop-color="#00c4ff"/><stop offset=".839" stop-color="#0072ff"/></linearGradient><path fill="url(#c)" fill-rule="evenodd" d="M37.02 25.86c.158.947.982 1.67 1.973 1.67 1.1 0 2.15.44 2.93 1.22.77.77 1.21 1.83 1.21 2.93v3.31c0 1.1-.44 2.15-1.21 2.93a4.14 4.14 0 0 1-2.93 1.22 2 2 0 0 0 0 4c2.16 0 4.23-.86 5.76-2.39a8.18 8.18 0 0 0 2.38-5.76v-3.31c0-2.16-.86-4.23-2.38-5.76a8.15 8.15 0 0 0-3.76-2.14v-3.92c0-.08-.01-.17-.02-.25-.15-1.23-.4-2.44-.74-3.63-.28-1.01-.66-1.99-1.13-2.93-.42-.84-.92-1.64-1.48-2.38q-.825-1.065-1.83-1.95c-1.005-.885-1.41-1.11-2.18-1.56-.83-.47-1.7-.87-2.61-1.19-1.03-.36-2.09-.62-3.16-.79-1.29-.2-2.59-.31-3.89-.32q-1.74-.015-3.48.15c-.96.09-1.91.24-2.85.46-.92.2-1.81.48-2.69.83-.76.3-1.5.67-2.2 1.11-.76.47-1.47 1.03-2.11 1.66-.62.61-1.17 1.29-1.64 2.03-.49.78-.9 1.61-1.2 2.48-.34.97-.59 1.97-.74 2.99-.01.1-.02.19-.02.29v2c0 1.103.896 2 2 2s2-.897 2-2v-1.85c.11-.72.29-1.42.53-2.1.21-.59.48-1.14.81-1.66.3-.49.66-.93 1.07-1.33.43-.42.9-.8 1.42-1.12.49-.31 1.01-.57 1.55-.78.69-.27 1.39-.49 2.11-.65.77-.18 1.55-.3 2.34-.38 1.02-.1 2.04-.14 3.07-.13 1.1.01 2.21.1 3.3.27.84.13 1.66.34 2.47.62.67.24 1.31.53 1.93.88.55.32 1.06.68 1.54 1.1.47.41.89.87 1.27 1.36.42.55.78 1.13 1.09 1.74q.54 1.08.87 2.25.405 1.425.6 2.91v5.87zm-28 13.28a2 2 0 0 1 0 4c-2.16 0-4.24-.86-5.76-2.39a8.15 8.15 0 0 1-2.39-5.76v-3.31c0-2.16.86-4.23 2.39-5.76a8.13 8.13 0 0 1 5.76-2.39 2 2 0 0 1 0 4c-1.1 0-2.16.44-2.94 1.22-.77.77-1.21 1.83-1.21 2.93v3.31c0 1.1.44 2.15 1.21 2.93.78.78 1.84 1.22 2.94 1.22m7.11.24c0 1.103-1.344 2-3 2a1 1 0 0 1-1-1V26.29a1 1 0 0 1 1-1c1.656 0 3 .896 3 2zm19.74 0v1a1 1 0 0 1-1 1c-1.656 0-3-.897-3-2V27.29c0-1.104 1.344-2 3-2a1 1 0 0 1 1 1z" transform="translate(-1.203 -1.2)scale(1.383)"/></svg>