<svg xmlns="http://www.w3.org/2000/svg" viewBox="0 0 64 64"><defs><linearGradient id="a" y1=".5" y2=".5"><stop offset="0" stop-color="#00fffa"/><stop offset="1" stop-color="#0078ff"/></linearGradient></defs><path fill="url(#a)" d="M1 6c-.554 0-1 .446-1 1v2c0 .554.446 1 1 1h2c.554 0 1-.446 1-1V7c0-.554-.446-1-1-1zm6 3c-.554 0-1 .446-1 1v2c0 .554.446 1 1 1h2c.554 0 1-.446 1-1v-2c0-.554-.446-1-1-1zm6 0c-.554 0-1 .446-1 1v2c0 .554.446 1 1 1h2c.554 0 1-.446 1-1v-2c0-.554-.446-1-1-1zM2 11l-2 2h4z" transform="matrix(4 0 0 4 0 -6)"/></svg>