<svg xmlns="http://www.w3.org/2000/svg" viewBox="0 0 64 64"><defs><linearGradient id="a" y1=".5" y2=".5"><stop offset="0" stop-color="#0df7f9"/><stop offset="1" stop-color="#0090ff"/></linearGradient></defs><path fill="url(#a)" d="M9.99 0c-.666 0-1.232.478-1.342 1.135l-.266 1.562a8.5 8.5 0 0 0-1.494.629l-1.264-.908a1.35 1.35 0 0 0-1.751.146l-1.374 1.37a1.36 1.36 0 0 0-.146 1.75l.918 1.292a8.5 8.5 0 0 0-.611 1.502l-1.525.258A1.36 1.36 0 0 0 0 10.078v1.934c0 .666.477 1.232 1.135 1.342l1.562.268q.241.773.629 1.492l-.905 1.26a1.356 1.356 0 0 0 .147 1.752l1.369 1.369a1.35 1.35 0 0 0 1.746.146l1.293-.92c.464.244.95.442 1.45.598l.259 1.545c.11.657.675 1.135 1.342 1.135h1.94c.666 0 1.232-.478 1.342-1.135l.261-1.545q.78-.241 1.498-.62l1.273.909a1.35 1.35 0 0 0 1.75-.146l1.37-1.37a1.36 1.36 0 0 0 .146-1.75l-.908-1.277c.252-.482.463-.983.619-1.498l1.545-.257a1.36 1.36 0 0 0 1.135-1.342v-1.936A1.34 1.34 0 0 0 20.87 8.69l-1.543-.262a8.7 8.7 0 0 0-.621-1.498l.91-1.273a1.354 1.354 0 0 0-.147-1.75l-1.369-1.37a1.35 1.35 0 0 0-1.746-.147l-1.277.91a8.6 8.6 0 0 0-1.555-.639l-.256-1.525A1.36 1.36 0 0 0 11.925.001zm-.002 1.236h1.946c.06 0 .11.042.119.102l.322 1.916a.62.62 0 0 0 .46.5 7.5 7.5 0 0 1 1.972.808.62.62 0 0 0 .676-.027l1.584-1.14a.14.14 0 0 1 .07-.023c.019 0 .054.005.086.038l1.37 1.369a.125.125 0 0 1 .015.156L17.47 6.529a.62.62 0 0 0-.027.676c.358.602.626 1.25.8 1.926a.61.61 0 0 0 .496.455l1.93.326c.06.009.102.06.102.119v1.936h-.006c0 .06-.04.11-.1.119l-1.931.322a.62.62 0 0 0-.497.455 7.4 7.4 0 0 1-.798 1.924.62.62 0 0 0 .027.676l1.135 1.6a.125.125 0 0 1-.014.156l-1.369 1.37a.12.12 0 0 1-.156.013l-1.594-1.135a.62.62 0 0 0-.676-.027 7.4 7.4 0 0 1-1.926.799.61.61 0 0 0-.455.496l-.326 1.932c-.01.06-.06.1-.12.1h-1.935c-.06 0-.11-.04-.12-.1l-.322-1.932a.62.62 0 0 0-.455-.496 7.6 7.6 0 0 1-1.883-.772.64.64 0 0 0-.312-.082.6.6 0 0 0-.36.115l-1.607 1.143a.14.14 0 0 1-.07.024.12.12 0 0 1-.086-.037l-1.369-1.37a.125.125 0 0 1-.013-.156l1.129-1.586a.63.63 0 0 0 .027-.68 7.3 7.3 0 0 1-.809-1.92.63.63 0 0 0-.496-.454l-1.943-.332a.12.12 0 0 1-.101-.12v-1.934c0-.06.041-.11.101-.119l1.916-.322a.62.62 0 0 0 .502-.459c.17-.675.431-1.33.785-1.932a.61.61 0 0 0-.033-.67L3.37 4.967a.125.125 0 0 1 .014-.156l1.369-1.369a.12.12 0 0 1 .156-.014L6.494 4.56a.63.63 0 0 0 .68.028 7.3 7.3 0 0 1 1.92-.809.63.63 0 0 0 .455-.496l.332-1.943a.12.12 0 0 1 .107-.102z" transform="translate(.002)scale(2.909)"/><path fill="url(#a)" d="M10.88 6a5 5 0 0 0-5 5 5 5 0 0 0 5 5 5 5 0 0 0 3-1.018v.967c0 .014.009.03.018.039a.05.05 0 0 0 .033.012h1.9a.05.05 0 0 0 .049-.051v-4.902l-.002-.01.002-.037a5 5 0 0 0-5-5zm0 2a3 3 0 0 1 3 3 3 3 0 0 1-3 3 3 3 0 0 1-3-3 3 3 0 0 1 3-3" transform="translate(.002)scale(2.909)"/></svg>