<svg xmlns="http://www.w3.org/2000/svg" fill="none" viewBox="0 0 64 64"><defs><linearGradient id="a" x1="10.63" x2="34" y1="46.64" y2="5.021" gradientUnits="userSpaceOnUse"><stop offset=".107" stop-color="#e02767"/><stop offset=".871" stop-color="#fa5d51"/></linearGradient></defs><path fill="url(#a)" fill-rule="evenodd" d="M17.05 41.68a1 1 0 0 1 .947-.678h10.69a1 1 0 0 1 .948.681l1.568 4.66a.2.2 0 0 1 .011.07v.133c0 .047.038.086.086.086h23.68a1 1 0 0 0 1-1v-3.63a1 1 0 0 0-1-1H42.82a1 1 0 0 1-.782-1.623l13.72-17.18a1 1 0 0 0 .22-.624v-3.218a1 1 0 0 0-1-1h-22.77a1 1 0 0 0-1 1v3.629a1 1 0 0 0 1 1h12.17a1 1 0 0 1 .78 1.624l-8.696 10.88a1 1 0 0 1-1.716-.27L28.194 18a1 1 0 0 0-.934-.644h-7.867a1 1 0 0 0-.935.645L8.078 45.27a1 1 0 0 0 .935 1.356h5.629a1 1 0 0 0 .946-.678l1.453-4.273zm9.907-7.653a1 1 0 0 1-.938 1.346H20.65a1 1 0 0 1-.938-1.347l2.69-7.266c.323-.871 1.556-.87 1.877.002z" clip-rule="evenodd" transform="translate(-10.7 -10.7)scale(1.334)"/></svg>