<svg xmlns="http://www.w3.org/2000/svg" viewBox="0 0 64 64"><path fill="#00bfff" d="M40.553 2.671c-2.424.016-4.908.036-7.672.029h-.096c-5.923-.02-11.84-.013-17.763-.006l-4.465.006C5.333 2.697.571 6.816.274 11.744v.034c-.04 2.938-.036 5.876-.029 8.806q.007 1.878.006 3.755v.301c-.012 6.624-.008 13.25 0 19.88v1.813l1.267-1.296c.469-.477.956-.944 1.449-1.42 1.035-1 2.105-2.037 3.04-3.194q.027-.011.057-.023h.011v-.006h.017v-.006c.096-.04.199-.079.267-.108l.898-.374-.602-.767-.267-.341c-.028-6.354-.028-12.704-.023-19.057q.005-3.621.006-7.238v-.011c-.017-1.48.979-3.002 2.505-3.613l.034-.011c.592-.273 1.296-.36 2.097-.415 2.527-.002 5.05.003 7.58.005h.006c4.733.005 9.466.008 14.205-.011h.057c6.964.01 13.92.019 20.88.011 1.525.16 2.9.948 3.608 2.12.287.579.479 1.108.5 1.63v.012q.01 5.32.006 10.64a3233 3233 0 0 0 .005 11.637v.006q-.01 3.93 0 7.857v.017c-.045 1.383 1.004 2.575 2.319 2.903h.005c.953.228 1.929-.032 2.642-.557.7-.514 1.222-1.344 1.17-2.323v-.029c.003-2.93.007-5.856.007-8.79v-.007c0-1.47-.006-2.938-.006-4.41V27.54q.005-7.526 0-15.05v-.006c.012-1.357-.337-2.663-.835-3.858l-.012-.022a9.5 9.5 0 0 0-.966-1.631l.022-.023-.522-.602C59.94 4.319 57.32 3 54.565 2.74l-.182-.017h-.005l-.194-.017-.01.011-1.558-.023c-4.445-.074-8.174-.053-12.06-.028z"/><path fill="#ff0" d="M50.47 14.141a5.6 5.6 0 0 0-1.94.307c-2.13.699-3.614 2.749-3.48 4.833.058 2.003 1.587 3.85 3.637 4.48.069.016.172.035.276.057l.277.06c2.46.552 5.194-.77 6.104-2.947a4.62 4.62 0 0 0-.286-4.267c-.367-.625-.913-1.134-1.5-1.586-.893-.597-1.987-.92-3.085-.938z"/><path fill="#00f" d="M19.488 26.95q-.136.002-.272.017c-.719.068-1.415.38-1.915.909l-.011.011c-3.773 3.567-7.538 7.136-11.313 10.694l-.023.023c-.036.038-.18.167-.324.29-.144.121-.288.235-.409.363q-.013.015-.023.028l-.057.052c-.057.052-.149.136-.295.272l-.011.012c-1.718 1.718-3.142 2.982-4.687 4.555l-.142.142v.2c-.004 2.558-.014 5.122.006 7.688v.017c.13 3.453 2.46 6.65 5.777 8.142l.011.006.25.091.018.011h.005c3.18 1.362 6.639.7 9.751.841l.023-.488v.494c3.203 0 6.403.003 9.608 0h.006c3.162 0 6.321.003 9.483 0 3.543 0 7.09.003 10.636 0 2.529 0 5.061.007 7.595-.006 3.892-.038 7.627-2.306 9.158-5.658l.01-.023.007-.017c.35-.977-.039-1.86-.574-2.5-.536-.639-1.22-1.15-1.642-1.619l-.023-.023q-2.884-2.776-5.765-5.55l-.006.006a542 542 0 0 0-6.348-6.074l-.005-.006a505 505 0 0 0-5.484-5.294c-.495-.597-1.155-1.2-1.954-1.551-.82-.36-1.825-.422-2.739.142l-.029.017-.022.017c-1.916 1.523-3.674 3.185-5.495 4.75l-.063.057q-.661-.564-1.3-1.148c-1.23-1.118-2.405-2.287-3.573-3.461-1.522-1.526-3.034-3.058-4.643-4.507-.446-.435-.899-.87-1.363-1.295l-.018-.011-.01-.012a2.88 2.88 0 0 0-1.808-.602zm-.028 6.647.006.006c.13.12.259.234.386.358l.136.142.006.005c2.17 2.128 4.366 4.236 6.545 6.354l.341-.353-.318.375c1.441 1.222 2.61 3 4.579 4l.068.04.08.011c.948.145 2.024-.012 2.79-.727 1.75-1.506 3.443-3.046 5.192-4.518.192.19.383.373.574.563l.006.006h.005c1.537 1.471 3.066 2.953 4.608 4.427v.006c2.04 1.969 4.09 3.933 6.135 5.897v-.006c1.703 1.64 3.41 3.278 5.103 4.919-.858.606-1.846.893-2.988.949-1.33.064-2.783-.096-4.171-.012-3.45-.007-6.895-.003-10.348 0q-4.738-.005-9.483-.005c-3.284-.005-6.569 0-9.853.005h-.017c-3.322-.105-6.62.186-9.818-.164-.459-.17-.896-.314-1.233-.523l-.023-.012c-1.407-.768-2.207-2.325-2.147-3.805v-.011c.027-1.677-.037-3.33.034-4.954 4.675-4.268 9.186-8.675 13.8-12.971zM5.511 39.136l.034.46-.17-.426.051-.017zm.034.494c-.025.022-.108.097-.352.324l-.023-.023z"/><path fill="#0ff" d="m28.97 12.851-16.13 38.3h8.33l3.674-7.982h14.47l3.536 7.982h8.3l-16.23-38.3zm2.974 10.51 4.343 11.83h-8.69z"/></svg>