<svg xmlns="http://www.w3.org/2000/svg" viewBox="0 0 64 64"><defs><linearGradient id="a" x1="1" x2="0" y1="1"><stop offset="0" stop-color="#22d88f"/><stop offset=".231" stop-color="#9387da"/><stop offset=".465" stop-color="#ff59e6"/><stop offset=".711" stop-color="#ee0979"/><stop offset=".988" stop-color="#ff6a00"/></linearGradient></defs><path fill="url(#a)" d="M22.49 9.225a2 2 0 0 0-2 2v1.703a2 2 0 0 0 2 2h1.752a2 2 0 0 0 2-2v-1.703a2 2 0 0 0-2-2zm17.28 0a2 2 0 0 0-2 2v1.703a2 2 0 0 0 2 2h1.752a2 2 0 0 0 2-2v-1.703a2 2 0 0 0-2-2zm-25.92 2.856a2 2 0 0 0-2 2v1.693a2 2 0 0 0 2 2h1.762a2 2 0 0 0 2-2v-1.693a2 2 0 0 0-2-2zm34.56 0a2 2 0 0 0-2 2v1.693a2 2 0 0 0 2 2h1.762a2 2 0 0 0 2-2v-1.693a2 2 0 0 0-2-2zM5.22 14.927a2 2 0 0 0-2 2v1.693a2 2 0 0 0 2 2h1.75a2 2 0 0 0 2-2v-1.693a2 2 0 0 0-2-2zm25.91 0a2 2 0 0 0-2 2v1.693a2 2 0 0 0 2 2h1.762a2 2 0 0 0 2-2v-1.693a2 2 0 0 0-2-2zm25.92 0a2 2 0 0 0-2 2v1.693a2 2 0 0 0 2 2h1.752a2 2 0 0 0 2-2v-1.693a2 2 0 0 0-2-2zm-34.56 2.846a2 2 0 0 0-2 2v1.693a2 2 0 0 0 2 2h1.752a2 2 0 0 0 2-2v-1.693a2 2 0 0 0-2-2zm17.28 0a2 2 0 0 0-2 2v1.693a2 2 0 0 0 2 2h1.752a2 2 0 0 0 2-2v-1.693a2 2 0 0 0-2-2zm-25.92 2.846a2 2 0 0 0-2 2v1.693a2 2 0 0 0 2 2h1.762a2 2 0 0 0 2-2v-1.693a2 2 0 0 0-2-2zm34.56 0a2 2 0 0 0-2 2v1.693a2 2 0 0 0 2 2h1.762a2 2 0 0 0 2-2v-1.693a2 2 0 0 0-2-2zM5.22 23.465a2 2 0 0 0-2 2v1.693a2 2 0 0 0 2 2h1.75a2 2 0 0 0 2-2v-1.693a2 2 0 0 0-2-2zm25.91 0a2 2 0 0 0-2 2v1.693a2 2 0 0 0 2 2h1.762a2 2 0 0 0 2-2v-1.693a2 2 0 0 0-2-2zm25.92 0a2 2 0 0 0-2 2v1.693a2 2 0 0 0 2 2h1.752a2 2 0 0 0 2-2v-1.693a2 2 0 0 0-2-2zm-34.56 2.846a2 2 0 0 0-2 2v1.693a2 2 0 0 0 2 2h1.752a2 2 0 0 0 2-2v-1.693a2 2 0 0 0-2-2zm17.28 0a2 2 0 0 0-2 2v1.693a2 2 0 0 0 2 2h1.752a2 2 0 0 0 2-2v-1.693a2 2 0 0 0-2-2zm-25.92 2.846a2 2 0 0 0-2 2v1.693a2 2 0 0 0 2 2h1.762a2 2 0 0 0 2-2v-1.693a2 2 0 0 0-2-2zm34.56 0a2 2 0 0 0-2 2v1.693a2 2 0 0 0 2 2h1.762a2 2 0 0 0 2-2v-1.693a2 2 0 0 0-2-2zM5.22 32.003a2 2 0 0 0-2 2v1.693a2 2 0 0 0 2 2h1.75a2 2 0 0 0 2-2v-1.693a2 2 0 0 0-2-2zm25.91 0a2 2 0 0 0-2 2v1.693a2 2 0 0 0 2 2h1.762a2 2 0 0 0 2-2v-1.693a2 2 0 0 0-2-2zm25.92 0a2 2 0 0 0-2 2v1.693a2 2 0 0 0 2 2h1.752a2 2 0 0 0 2-2v-1.693a2 2 0 0 0-2-2zm-34.56 2.846a2 2 0 0 0-2 2v1.693a2 2 0 0 0 2 2h1.752a2 2 0 0 0 2-2v-1.693a2 2 0 0 0-2-2zm17.28 0a2 2 0 0 0-2 2v1.693a2 2 0 0 0 2 2h1.752a2 2 0 0 0 2-2v-1.693a2 2 0 0 0-2-2zm-25.92 2.846a2 2 0 0 0-2 2v1.693a2 2 0 0 0 2 2h1.762a2 2 0 0 0 2-2v-1.693a2 2 0 0 0-2-2zm34.56 0a2 2 0 0 0-2 2v1.693a2 2 0 0 0 2 2h1.762a2 2 0 0 0 2-2v-1.693a2 2 0 0 0-2-2zm-17.28 2.846a2 2 0 0 0-2 2v1.693a2 2 0 0 0 2 2h1.762a2 2 0 0 0 2-2v-1.693a2 2 0 0 0-2-2zm-8.633 2.846a2 2 0 0 0-2 2v1.693a2 2 0 0 0 2 2h1.752a2 2 0 0 0 2-2v-1.693a2 2 0 0 0-2-2zm17.28 0a2 2 0 0 0-2 2v1.693a2 2 0 0 0 2 2h1.752a2 2 0 0 0 2-2v-1.693a2 2 0 0 0-2-2zm-8.644 5.693a2 2 0 0 0-2 2v1.693a2 2 0 0 0 2 2h1.762a2 2 0 0 0 2-2V51.08a2 2 0 0 0-2-2z" transform="translate(-3.577 -3.564)scale(1.111)"/></svg>