<svg xmlns="http://www.w3.org/2000/svg" xmlns:xlink="http://www.w3.org/1999/xlink" viewBox="0 0 64 64"><linearGradient id="a" transform="translate(-2.637 -2.646)scale(1.443)"><stop offset="0" stop-color="#00ff60"/><stop offset="1" stop-color="#00afff"/></linearGradient><linearGradient xlink:href="#a" id="b" x1="7.272" x2="40.73" y1="24.01" y2="24.01" gradientUnits="userSpaceOnUse" transform="translate(-2.637 -2.646)scale(1.443)"/><linearGradient xlink:href="#a" id="e" x1="34.41" x2="36.88" y1="36.97" y2="36.97" gradientUnits="userSpaceOnUse" transform="translate(-2.637 -2.646)scale(1.443)"/><linearGradient xlink:href="#a" id="c" x1="21.94" x2="30.5" y1="36.85" y2="36.85" gradientUnits="userSpaceOnUse" transform="translate(-2.637 -2.646)scale(1.443)"/><path fill="none" stroke="url(#b)" stroke-width="1.187" d="M22.607 45.34c-.14-.133-.255-.33-.255-.436 0-.142-.063-.17-.223-.1-.123.05-.722.118-1.331.145L19.691 45l-.202-.373c-.18-.331-.239-.36-.529-.254-.794.287-1.585.063-1.585-.45 0-.314 0-.316-.815-.237-.466.047-.963.028-1.157-.043-.288-.104-.334-.184-.302-.518l.041-.394-.778-.06c-.912-.072-1.23-.265-1.121-.681.069-.261.035-.29-.352-.294q-.797-.006-.989-.682c-.08-.283-.157-.338-.43-.306-.518.059-.799-.447-.77-1.396.02-.76-.039-.887-.305-.634-.076.072-.274.113-.44.091-.385-.051-.47-.646-.19-1.312.224-.533.175-.62-.295-.53q-.925.175-.448-1.28c.084-.257.066-.282-.147-.2-.51.198-.626.143-.666-.318-.023-.276.063-.634.227-.94.273-.51.262-.535-.22-.498-.465.035-.481-.314-.047-.98.22-.335.4-.65.4-.703s-.145-.156-.32-.232c-.407-.175-.403-.438.011-1.008.353-.482.324-.712-.086-.712-.536 0-.472-.664.13-1.385.303-.361.366-.533.308-.838-.04-.21-.18-.474-.313-.585s-.242-.305-.242-.432c0-.245.513-.76.989-.993.34-.166.362-.395.08-.804-.19-.275-.188-.322.007-.606.117-.17.403-.394.635-.5s.521-.352.643-.548c.213-.342.213-.37-.009-.601-.364-.383-.032-.815.842-1.098.912-.293 1.14-.5.92-.836-.32-.488.004-.8 1.06-1.022.558-.117.702-.274.619-.673-.063-.296-.02-.374.273-.5.309-.134.338-.198.27-.58-.188-1.064-.227-1.677-.11-1.745.068-.04.302-.008.52.07s.43.112.468.075.006-.484-.074-.993c-.08-.507-.106-1.116-.06-1.351.077-.393.122-.429.526-.429.51 0 .495.063.251-1.031-.245-1.099-.24-1.228.046-1.5.466-.444.54-1.552.212-3.178-.27-1.331-.205-2.054.184-2.054.131 0 .352.136.49.302.289.35.473.385.582.112.145-.356.08-.661-.29-1.359-.409-.77-.779-1.86-.779-2.292s.291-.343 1.052.319c.72.625 1.316 1.559 1.686 2.644.35 1.026.568.85.647-.52.053-.935.113-1.148.319-1.148.24 0 .507.745.771 2.141.238 1.252.262 1.684.184 3.338-.05 1.046-.048 2.026.003 2.178l.093.277.293-.35.294-.35.09.343c.05.19.062 1.195.026 2.236s-.04 1.961-.008 2.045c.145.381.848.009.949-.503q.136-.691 1.01-.143c.296.187.717.388.935.448.335.09.428.066.611-.165.2-.253.246-.26.639-.108.796.308.937.262.9-.302-.022-.328.034-.553.16-.652.11-.087.195-.364.2-.652.006-.275.053-.607.106-.735.063-.152-.053-.643-.328-1.394-.698-1.907-.515-3.12.341-2.254.421.427.638.389.638-.11 0-.266-.27-.916-.766-1.83-1.036-1.921-1.03-2.407.028-1.77.726.438 1.427 1.226 2.078 2.337.712 1.211.889 1.23.798.08-.119-1.492.302-1.76.925-.588.608 1.146.768 1.937.904 4.489.07 1.3.18 2.414.243 2.473.07.066.205-.069.338-.334.43-.856.645-.362.758 1.744.095 1.763.086 1.734.51 1.55.3-.13.367-.115.58.135.132.155.24.433.24.618 0 .515.313.699.764.446.327-.184.383-.186.561-.018.108.104.231.39.273.639.119.692.287.996.553.996.333 0 .503.229.6.808.124.734.242.867.54.61.556-.478.928.13.606.993a6 6 0 0 0-.196.584c0 .029.259.016.574-.03.538-.075.574-.064.574.196a.8.8 0 0 1-.192.48c-.3.313-.119.97.267.97.17 0 .359.105.439.248.112.2.075.355-.187.803-.406.69-.405.718.014.913.468.215.489.37.111.797-.392.443-.406.586-.069.67.287.071.35.552.105.787-.116.108-.095.2.084.388.194.204.21.298.088.55a1.07 1.07 0 0 1-.467.443c-.367.16-.41.365-.124.59.15.12.176.286.111.713-.097.641-.243.86-.572.86-.355 0-.396.184-.116.521.437.53.215.992-.344.718-.292-.144-.552-.06-.552.175 0 .1.148.42.329.714.401.652.374 1.07-.073 1.128-.499.064-.566.213-.271.604.348.467.356.95.015 1.054-.326.098-.324.356.01.8.321.43.278.763-.107.815-.356.049-.36.162-.019.457.5.43.562.67.233.906-.263.19-.28.25-.143.533.336.7.101 1.393-.388 1.143-.29-.149-.267-.172-.458.459-.116.386-.239.533-.523.627-.234.078-.387.223-.413.394-.065.413-.42.572-.714.32-.34-.291-.38-.27-.477.28-.083.466-.34.847-.573.847-.06 0-.227-.142-.373-.317-.296-.36-.607-.32-.67.085a.64.64 0 0 1-.267.401c-.185.11-.279.07-.533-.23l-.306-.363-.368.333c-.408.368-.77.432-.883.151-.103-.255-.272-.226-.708.122-.208.167-.462.303-.563.303-.102 0-.24-.136-.307-.303s-.143-.303-.172-.303c-.03 0-.382.14-.788.309-.863.363-1.347.352-1.527-.038q-.126-.273-.319-.195c-.969.399-1.284.464-1.534.314-.21-.124-.396-.119-1.008.032-.984.242-1.236.233-1.542-.058z" transform="translate(-2.637 -2.646)scale(1.443)"/><path fill="url(#c)" d="M27.62 32.656a2.5 2.5 0 0 0-.505.046c-1.414.273-3.096 1.274-3.993 2.382-.665.818-1.03 1.77-1.118 2.921l-.065.856.669.695c1.13 1.176 2.316 1.55 4.72 1.49 1.072-.025 1.445-.085 1.87-.292.71-.349 1.02-.753 1.198-1.57.19-.864.091-3.628-.157-4.467-.365-1.23-1.446-2.05-2.618-2.061zm1.296 2.857c.278 0 .326.054.326.376 0 .268-.072.393-.245.436-.226.056-.23.092-.063.47.22.5.235 1.747.027 2.18-.283.59-1.324.883-2.207.624-.614-.181-.825-.526-.828-1.347-.005-1.468 1.38-2.739 2.99-2.739" transform="translate(-2.637 -2.646)scale(1.443)"/><path fill="#fff" d="M37.781 53.484c1.277-.553 1.061-2.958-.264-2.958-.637 0-1.64 1.09-1.636 1.777.003.67.121.886.64 1.165.47.254.705.257 1.26.014z"/><path fill="url(#e)" d="M36.422 40.076c.362-.262.511-1.411.442-3.409-.066-1.897-.236-2.666-.643-2.899-.192-.11-.284-.072-.529.216-.447.526-1.199 2.504-1.214 3.19-.002.078.164-.018.369-.212.263-.25.499-.355.799-.355.388 0 .452.055.726.623.345.716.33 1.677-.032 2.022-.433.412-1.76.113-1.904-.429-.031-.118-.038-.032-.015.19.053.513.243.73.883 1.007.606.262.818.273 1.118.056" transform="translate(-2.637 -2.646)scale(1.443)"/><g fill="#fff"><path d="M49.214 53.227c.413-.391.358-1.03-.135-1.574-.552-.61-1.162-.465-1.386.329-.24.857.071 1.522.709 1.522.289 0 .654-.126.812-.276z"/><path d="M21.152.843c-.132.019-.189.143-.189.375 0 .262.107.702.26 1.19.232.022.632.288 1.258.832 1.04.902 1.9 2.247 2.433 3.815.505 1.48.821 1.225.934-.753.078-1.348.161-1.655.46-1.655.344 0 .732 1.075 1.111 3.09.155.815.241 1.386.285 1.99.024-1.292-.024-2.177-.285-3.546-.38-2.015-.767-3.091-1.11-3.091-.3 0-.383.307-.461 1.655-.113 1.977-.429 2.232-.934.75-.534-1.565-1.394-2.912-2.433-3.813-.687-.596-1.11-.87-1.329-.839M35.79 5.151c-.428-.048-.339.505.167 1.608.18.052.402.15.693.325 1.048.632 2.06 1.768 2.999 3.37 1.027 1.747 1.284 1.774 1.153.118-.02-.241.003-.378.003-.576-.084.508-.419.156-1.155-1.1-.94-1.603-1.952-2.737-3.001-3.369q-.571-.347-.859-.376m-14.834.74c-.457 0-.586.733-.411 2.04.078-.288.2-.482.411-.482.19 0 .51.198.707.437.419.506.684.556.844.162.159-.398.133-.758-.131-1.362-.162.144-.391.03-.711-.357-.2-.24-.518-.437-.709-.437zm20.317 1.232c-.383-.108-.578.546-.471 1.892.014.186.004.271.008.414.119-1.048.627-1.02 1.325.296.877 1.652 1.111 2.793 1.307 6.475.101 1.875.257 3.483.35 3.57.1.095.294-.101.487-.482.62-1.237.931-.524 1.095 2.515.136 2.544.122 2.503.735 2.236.433-.187.53-.164.837.195.19.225.346.626.346.893 0 .745.452 1.01 1.101.644.474-.266.554-.27.81-.027.156.148.333.562.395.922.17 1 .413 1.438.797 1.438.48 0 .727.328.867 1.165.177 1.058.346 1.25.78.879.366-.315.672-.292.856-.067l.02-.055c.46-1.246-.076-2.125-.877-1.435-.433.37-.602.179-.78-.88-.139-.836-.386-1.164-.866-1.164-.384 0-.627-.438-.797-1.438-.062-.36-.24-.775-.395-.924-.256-.242-.336-.237-.808.029-.65.365-1.103.101-1.103-.645 0-.266-.156-.668-.346-.892-.307-.36-.404-.38-.837-.195-.613.267-.599.308-.736-2.236-.163-3.04-.475-3.752-1.094-2.517-.193.383-.388.577-.487.484-.093-.087-.25-1.695-.35-3.572-.197-3.68-.43-4.82-1.307-6.475-.338-.635-.632-.977-.862-1.043m-5.216 3.354c-.368.062-.469.76-.267 1.838.154-.377.49-.4 1.006.121.609.616.923.563.923-.157 0-.196-.106-.537-.3-.996-.151-.008-.352-.13-.623-.404-.307-.311-.556-.436-.739-.404zm-15.125 1.509c-.073.658-.244 1.167-.546 1.455-.368.349-.394.591-.153 1.74.046-.06.087-.119.153-.182.507-.485.693-1.522.546-3.013m7.738 1.543-.422.505-.423.505-.134-.399c-.02-.059-.02-.375-.03-.587-.027 1.06-.025 1.977.03 2.144l.134.399.423-.505.422-.505.13.496c.028.098.038.48.05.837.02-1.15.01-2.176-.048-2.394zm8.006 3.333c-.014.133-.046.213-.048.342-.008.415-.132.815-.292.942-.184.143-.26.466-.228.94.051.813-.153.88-1.302.435-.567-.22-.632-.209-.922.155-.264.333-.398.37-.883.238-.313-.087-.917-.375-1.347-.645-.836-.528-1.327-.46-1.46.206-.144.735-1.143 1.27-1.36.735-.003.578-.03 1.486-.005 1.55.21.55 1.22.011 1.365-.728.131-.665.622-.734 1.46-.206.43.27 1.034.558 1.347.645.485.131.619.097.883-.237.288-.365.355-.375.922-.156 1.149.445 1.353.378 1.302-.434-.03-.473.044-.798.228-.94.158-.128.284-.528.292-.943.006-.397.074-.876.15-1.062.052-.121.002-.429-.1-.837zm-16.37.226c-.092.008-.196.006-.349.006-.582 0-.646.052-.759.618-.05.258-.024.837.035 1.42.097-.419.202-.48.724-.48.736 0 .716.09.364-1.488zm-2.043 3.783c-.137-.018-.245-.015-.295.015-.125.073-.087.695.027 1.559.114-.048.424-.009.724.1.315.112.618.163.674.11s.01-.7-.105-1.434c-.007-.04-.007-.08-.013-.121a1.7 1.7 0 0 1-.556-.113 2.3 2.3 0 0 0-.456-.115zm-.255 3.225a1.4 1.4 0 0 1-.271.144c-.423.185-.487.297-.396.721.122.578-.086.806-.891.975-1.524.32-1.992.769-1.53 1.471.317.484-.013.785-1.326 1.208-1.264.407-1.743 1.03-1.218 1.586.206.214.232.343.177.514.243-.2.566-.39 1.04-.543 1.314-.423 1.644-.724 1.327-1.206-.462-.704.006-1.153 1.53-1.474.805-.168 1.013-.396.891-.974-.09-.424-.027-.536.396-.721.443-.19.487-.283.39-.836-.067-.369-.08-.574-.119-.865m36.16 6.688c-.11-.039-.317-.014-.707.043-.216.03-.245.012-.394.022a2.5 2.5 0 0 1-.148.734 9 9 0 0 0-.286.843c0 .042.375.023.83-.043.196-.028.24-.013.356-.02a.8.8 0 0 1 .195-.563 1.15 1.15 0 0 0 .274-.69c0-.187-.01-.289-.12-.326m-41.997.522a2.5 2.5 0 0 1-.71.552c-.333.151-.746.476-.915.721-.283.408-.283.476-.008.875.12.176.19.323.233.456.2-.191.452-.386.69-.495.335-.152.752-.505.928-.791.307-.492.307-.534-.013-.866a.66.66 0 0 1-.205-.452m41.984 1.816a1 1 0 0 1-.141.235c-.433.453-.172 1.4.385 1.4a.75.75 0 0 1 .292.082l.07-.123c.38-.648.433-.87.271-1.159a.78.78 0 0 0-.633-.359.46.46 0 0 1-.244-.076m-43.79 1.525c-.669.346-1.37 1.058-1.37 1.401 0 .183.156.465.346.625.048.04.094.121.14.185a3.8 3.8 0 0 1 .938-.687c.49-.24.524-.57.119-1.16a.85.85 0 0 1-.172-.364m44.491 1.428c-.04.075-.043.109-.095.2-.535.909-.555 1.027-.094 1.255.071-.101.153-.21.273-.346.52-.59.5-.817-.084-1.107zM9.52 38.468c-.062.087-.08.153-.171.26-.826.988-.938 1.896-.285 1.982.093-.141.163-.278.286-.427.437-.52.527-.769.444-1.209a1.7 1.7 0 0 0-.274-.606m45.628.003c-.06.086-.116.166-.208.271-.563.636-.583.846-.097.967.415.102.508.796.153 1.136a.24.24 0 0 0-.086.199 1.4 1.4 0 0 0 .332-.4c.174-.367.153-.5-.127-.794-.26-.274-.286-.405-.119-.562.224-.214.253-.559.15-.817zM8.973 42.25c-.248.488-.155.765.296.959l.06.034c.45-.645.405-.96-.167-.96-.072 0-.13-.017-.187-.031zm45.593.588c-.525.23-.587.528-.176.851.018.015.026.03.044.046a5 5 0 0 0 .117-.574c.023-.147.01-.216.014-.323zM9.102 44.656c-.554.888-.524 1.365.121 1.316h.014c.256-.403.494-.806.494-.87 0-.074-.21-.226-.462-.335-.076-.032-.11-.074-.167-.111m44.75 1.277c-.043.005-.076.028-.125.028-.328 0-.45.117-.404.325.334.078.505-.092.53-.353m-44.23 1.58c-.084-.008-.21.003-.359.014-.033.182-.062.36-.05.517.027.3.084.466.195.548.046-.115.073-.237.131-.346.296-.553.36-.712.082-.733m43.138.137c-.283-.04-.495.094-.495.349 0 .144.213.606.473 1.027l.009.022c.464-.137.5-.628.095-1.37-.029-.008-.056-.025-.082-.028m-42.32 2.373c-.03-.037-.113-.015-.25.037.02.191.053.366.156.461.018-.062.02-.104.043-.17.06-.183.08-.289.05-.328m42.128.648c-.637.097-.726.312-.338.839.015-.005.019-.015.035-.019.314-.094.398-.424.303-.82m-41.136 1.482c-.044-.001-.122.013-.182.02-.054.406-.002.75.16.944.02-.053.024-.1.047-.154.244-.577.265-.792-.025-.808zm41.003.764c-.052.047-.092.108-.169.13-.372.112-.437.375-.216.792.029-.005.042-.015.076-.019.47-.062.563-.421.31-.903m.144 2.086c-.031.202-.18.338-.453.375-.513.07-.522.236-.029.66l.048.043c.042-.09.127-.173.29-.288.322-.231.358-.472.144-.79m-.137 2.34-.005.005c-.381.274-.405.357-.208.766l.008.032c.16-.159.233-.45.205-.804" opacity=".1"/></g></svg>