<svg version="1.1" viewBox="0 0 64 64" xmlns="http://www.w3.org/2000/svg">
 <defs>
  <linearGradient id="a" x2="0" y1="1">
   <stop stop-color="#00f1fa" offset="0"/>
   <stop stop-color="#006cff" offset="1"/>
  </linearGradient>
 </defs>
 <path transform="translate(0) scale(1) translate(0 1.3e-5) scale(1) translate(0 .007774) scale(.9997) translate(0 .009998) scale(2.909)" d="m15.99 14.8-1.193 1.17 0.6426 0.6406c-0.2708 0.5263-0.167 1.17 0.2539 1.586l3.375 3.398c0.5237 0.5245 1.38 0.5245 1.904 0l0.6426-0.6445c0.5239-0.5271 0.5239-1.377 0-1.904l-3.396-3.375c-0.419-0.4191-1.066-0.5138-1.586-0.2305z" fill="url(#a)"/>
 <path transform="translate(0) scale(1) translate(0 1.3e-5) scale(1) translate(0 .007774) scale(.9997) translate(0 .009998) scale(2.909)" d="m9.195 0.007812c-5.068 0-9.195 4.13-9.195 9.195 0 5.068 4.13 9.195 9.195 9.195 5.068 0 9.195-4.129 9.195-9.195 0-5.068-4.129-9.195-9.195-9.195zm0 1.934c4.021 0 7.262 3.242 7.262 7.264s-3.24 7.262-7.262 7.262c-4.021 0-7.262-3.24-7.262-7.262 0-4.021 3.24-7.264 7.262-7.264z" fill="url(#a)"/>
 <path transform="translate(0) scale(1) translate(0 1.3e-5) scale(1) translate(0 .007774) scale(.9997) translate(0 .009998) scale(2.909)" d="m9.322 3.035c-0.3302 1.06-0.3942 1.01-0.4961 2.143-0.5262 0.4707-0.5952 1.005-0.5723 1.525 0.02494 0.5653 0.414 0.935 0.8711 0.9609 0.567-0.00193 0.8974-0.56 0.9492-1.102 0.0613-0.6351-0.04687-1.048-0.502-1.375-0.01196-0.8594-0.04699-1.064-0.25-2.152zm-2.178 0.6055c-0.3301 1.06-0.3904 1.01-0.4922 2.143-0.5262 0.4707-0.5972 1.005-0.5742 1.525 0.02494 0.5653 0.414 0.935 0.8711 0.9609 0.567-0.00193 0.8974-0.56 0.9492-1.102 0.0613-0.6351-0.04686-1.05-0.502-1.377-0.01196-0.8594-0.04897-1.062-0.252-2.15zm4.137 0.2656c-0.203 1.089-0.238 1.293-0.25 2.152-0.4551 0.3269-0.5652 0.7403-0.5039 1.375 0.05229 0.5418 0.3844 1.102 0.9512 1.104 0.4571-0.02594 0.8459-0.3956 0.8711-0.9609 0.02298-0.5206-0.048-1.057-0.5742-1.527-0.1018-1.133-0.164-1.083-0.4941-2.143zm-6.217 1.42c-0.3302 1.06-0.3942 1.01-0.4961 2.143-0.5262 0.4707-0.5952 1.005-0.5723 1.525 0.02494 0.5653 0.414 0.935 0.8711 0.9609 0.567-0.00193 0.8974-0.56 0.9492-1.102 0.0613-0.6351-0.04686-1.048-0.502-1.375-0.01196-0.8594-0.04699-1.064-0.25-2.152zm8.264 0.05078c-0.203 1.089-0.24 1.291-0.252 2.15-0.4551 0.3269-0.5633 0.7415-0.502 1.377 0.05229 0.5418 0.3825 1.1 0.9492 1.102 0.4571-0.02593 0.8459-0.3956 0.8711-0.9609 0.02298-0.5206-0.048-1.055-0.5742-1.525-0.1018-1.133-0.162-1.083-0.4922-2.143zm-4.123 2.75 0.00195 0.00195c-0.7874-0.03842-1.22 0.3258-2.438 1.311-1.576 0.9647-2.05 1.499-2.072 2.912-0.02487 1.563 1.998 2.066 3.625 1.373 0.4962-0.2112 1.567-0.2277 2.139 0.02344 1.188 0.3844 3.295 0.1358 3.328-1.576 0.06756-1.434-0.8468-1.841-2.234-2.732-0.8299-0.8069-1.244-1.259-2.35-1.312z" fill="url(#a)"/>
</svg>
