<svg xmlns="http://www.w3.org/2000/svg" fill="none" viewBox="0 0 64 64"><defs><linearGradient id="a" x1="8" x2="8" y1="1" y2="15" gradientUnits="userSpaceOnUse"><stop offset="0" stop-color="#dc18fc"/><stop offset="1" stop-color="#614eff"/></linearGradient></defs><path fill="url(#a)" fill-rule="evenodd" d="M3.05 3.05a7 7 0 0 1 7.978-1.361h.444a30 30 0 0 0 1.318-.109c.222-.027.47-.057.7.005a.47.47 0 0 1 .248.149.8.8 0 0 1 .156.202c.055.107.062.145.06.345l-.004.346-.006.472c-.005.464.002.651.034.865.039.264.066.43.096.557A7 7 0 1 1 3.05 3.051zm7.92 1.98a4.2 4.2 0 1 0-5.94 5.94 4.2 4.2 0 0 0 5.94-5.94" clip-rule="evenodd" transform="translate(-4.571 -4.571)scale(4.571)"/></svg>