<svg version="1.1" viewBox="0 0 64 64" xmlns="http://www.w3.org/2000/svg">
 <defs>
  <linearGradient id="a" x2="0" y2="1">
   <stop stop-color="#ff76fd" offset="0"/>
   <stop stop-color="#ff0380" offset="1"/>
  </linearGradient>
 </defs>
 <path transform="translate(0) scale(1) translate(.000499 -3e-6) scale(1) translate(.012 .01) scale(.9997)" d="M32-.004 31.998 0c-17.67 0-32 14.51-32 32.41v17.46l.004.621c.01 1.933.078 3.38.455 4.674.44 1.516 1.193 2.924 2.211 4.131s2.277 2.182 3.7 2.87c1.461.706 3.211.988 5.76 1.397l.415.063c.906.144 1.685.27 2.328.334a6.9 6.9 0 0 0 2.053-.057 6.72 6.72 0 0 0 4.988-4.318c.243-.675.337-1.358.375-2.039.038-.65.033-1.45.033-2.381v-13.35c0-1.36.007-2.536-.306-3.541a6.73 6.73 0 0 0-4.893-4.575c-1.011-.234-2.16-.144-3.504-.035l-.297.023-.352.03c-2.506.201-4.227.34-5.682.884-1.024.381-1.97.91-2.824 1.56v-3.757c0-15.39 12.33-27.88 27.54-27.88s27.53 12.48 27.53 27.88v3.756c-.854-.65-1.8-1.175-2.824-1.559-1.456-.547-3.177-.68-5.682-.879l-.351-.035-.295-.023c-1.341-.109-2.495-.199-3.506.035-1.144.27-2.2.834-3.06 1.637s-1.49 1.814-1.833 2.938c-.31 1.005-.313 2.18-.313 3.541v13.35c0 .928 0 1.722.04 2.375.022.696.151 1.385.374 2.045a6.7 6.7 0 0 0 1.926 2.812 6.74 6.74 0 0 0 3.07 1.506c.698.138 1.376.115 2.045.05q1.17-.134 2.33-.333l.414-.069c2.55-.406 4.296-.682 5.76-1.387a11.28 11.28 0 0 0 5.91-7c.458-1.574.461-3.369.461-5.984V32.4c0-17.89-14.33-32.41-32-32.41z" fill="url(#a)"/>
 <path transform="translate(0) scale(1) translate(.000499 -3e-6) scale(1) translate(.012 .01) scale(.9997)" d="M32 12c-.636 0-1.249.255-1.699.705s-.7 1.055-.7 1.691v16A2.4 2.4 0 0 0 32 32.8c.636 0 1.249-.255 1.699-.705s.7-1.063.7-1.699v-16c0-.636-.25-1.24-.7-1.69A2.4 2.4 0 0 0 32 12m-9.604 4.799a2.4 2.4 0 0 0-1.691.705A2.4 2.4 0 0 0 20 19.197V25.6c0 .637.255 1.243.705 1.693a2.39 2.39 0 0 0 3.39 0c.45-.45.705-1.057.705-1.693v-6.402a2.41 2.41 0 0 0-2.404-2.398m19.21 0a2.406 2.406 0 0 0-2.404 2.398V25.6a2.41 2.41 0 0 0 2.404 2.398c.637 0 1.241-.255 1.691-.705s.705-1.057.705-1.693v-6.402c0-.636-.255-1.243-.705-1.693a2.4 2.4 0 0 0-1.691-.705" fill="url(#a)"/>
</svg>
