<svg xmlns="http://www.w3.org/2000/svg" fill="none" viewBox="0 0 64 64"><defs><linearGradient id="a" x1="16" x2="16" y1="29.33" y2="2.666" gradientUnits="userSpaceOnUse"><stop offset="0" stop-color="#5570ff"/><stop offset="1" stop-color="#4dd3ff"/></linearGradient><linearGradient id="b" x1="16" x2="16" y1="19" y2="7" gradientUnits="userSpaceOnUse"><stop offset="0" stop-color="#fda700"/><stop offset="1" stop-color="#ffde00"/></linearGradient></defs><path fill="url(#a)" d="M8 29.33h19a1 1 0 0 0 1-1v-.667a1 1 0 0 0-1-1H8.02c-.616-.016-1.349-.26-1.349-1.333s.733-1.317 1.349-1.333H27a1 1 0 0 0 1-1V5.327a2.67 2.67 0 0 0-2.667-2.667H8.003c-1.608 0-4 1.065-4 4v18.67c0 2.935 2.392 4 4 4zM6.667 10.66v-4c0-1.073.733-1.317 1.333-1.333h16.33a1 1 0 0 1 1 1v14a1 1 0 0 1-1 1H7.66a1 1 0 0 1-1-1V10.66z" transform="matrix(2.4 0 0 2.4 -6.399 -6.383)"/><path fill="url(#b)" d="M14.67 18.5a.5.5 0 0 0 .5.5h1.667a.5.5 0 0 0 .5-.5v-5a.5.5 0 0 1 .5-.5h1.667a.5.5 0 0 0 .5-.5v-2a.5.5 0 0 0-.5-.5h-1.667a.5.5 0 0 1-.5-.5v-2a.5.5 0 0 0-.5-.5H15.17a.5.5 0 0 0-.5.5v2a.5.5 0 0 1-.5.5h-1.667a.5.5 0 0 0-.5.5v2a.5.5 0 0 0 .5.5h1.667a.5.5 0 0 1 .5.5z" transform="matrix(2.4 0 0 2.4 -6.399 -6.383)"/></svg>