<svg xmlns="http://www.w3.org/2000/svg" viewBox="0 0 64 64"><defs><linearGradient id="a" y1="1"><stop offset="0" stop-color="#fd7900"/><stop offset="1" stop-color="#faff00"/></linearGradient></defs><path fill="url(#a)" d="M5.67.979v2.338H3.332v1.556s.893-.014.879 0c.477-.007.63.341.68.573v5.14c-.018.147-.004.51-.338.52.015.013-1.221 0-1.221 0v1.557h1.69c.286-.01.371 0 .647 0v2.338h1.56v-2.338h.76l.034 2.338h1.541l-.016-2.338c1.98-.143 3.132-1.093 3.12-2.727.013-1.503-1.19-2.332-1.937-2.336.745.003 1.168-.807 1.168-1.947 0-1.557-1.074-2.336-2.336-2.336V.98H8.004v2.338c-.309 0-.462-.011-.777 0V.98zm1.559 3.894c1.557 0 2.336 0 2.336 1.17 0 1.168-.779 1.168-2.336 1.168zm0 3.894c2.076 0 3.115-.13 3.115 1.168s-1.039 1.17-3.115 1.17z" transform="translate(-4.51 -4.466)scale(4.564)"/></svg>