<svg xmlns="http://www.w3.org/2000/svg" viewBox="0 0 64 64"><defs><linearGradient id="b" x1="1" x2="0" y1=".5" y2=".5"><stop offset="0" stop-color="#0cf"/><stop offset="1" stop-color="#006cff"/></linearGradient><linearGradient id="a" x2="0" y1="1"><stop offset="0" stop-color="#f300ff"/><stop offset="1" stop-color="#12dbb9"/></linearGradient></defs><path fill="url(#a)" d="M36.38 16q-.195.128-.377.272V19h2.772l.229-.229v-2.772zm3.623 0v1.772L41.775 16zm-5 1.377A4.9 4.9 0 0 0 34.329 19h.674zM34.21 20c-.002.105-.008.21-.004.316a5.64 5.64 0 0 0 .727 2.523l.07-.068v-2.772zm1.793 0v1.772L37.775 20zm-13 4.836c-.744.058-1.505.365-2.195.895-.188.144-.467.536-.805 1.087V27h3zm1 .08V27h2.412c-.222-.293-.447-.587-.635-.844-.489-.669-1.107-1.072-1.777-1.24zm-4 3.084v3h3v-3zm4 0v3h2.77l.23-.23V28zm-5 .604A93 93 0 0 0 17.784 31h1.219zm9 .431v.735l.326-.325zM17.303 32a223 223 0 0 0-1.299 2.734V35h3v-3zm2.701 0v3h2.77l.23-.23V32zm4 0v1.77l1.77-1.77zm-8 4v3h2.77l.23-.23V36zm4 0v1.77l1.77-1.77zm-5 .89q-.484 1.063-.955 2.11h.955zM13.6 40c-.497 1.11-.888 2.012-1.32 3h2.494l.23-.23V40zm2.404 0v1.77l1.77-1.77zm-4 4v1.77l1.77-1.77z" transform="translate(-6.73 -6.688)scale(1.282)"/><path fill="url(#b)" d="m44.01 18.01-7 7a5.66 5.66 0 0 0 2.725.84c1.411.055 2.743-.453 3.701-1.412.96-.96 1.467-2.29 1.412-3.701a5.66 5.66 0 0 0-.838-2.727zM30.22 31.8 14.2 47.82h36.02c2.104.011 2.341-.467 1.209-2.125l-7.666-10.62c-.576-.782-.928-.794-1.613 0l-4.035 4.25c-.987 1.064-1.522 1.032-2.422 0z" transform="translate(-6.73 -6.688)scale(1.282)"/><path fill="url(#a)" d="m52.55 5.219-47.3 47.3a13 13 0 0 0 1.627 2.615l48.29-48.29a13 13 0 0 0-2.613-1.627z" transform="translate(-6.73 -6.688)scale(1.282)"/></svg>