<svg xmlns="http://www.w3.org/2000/svg" fill="none" viewBox="0 0 64 64"><defs><linearGradient id="a" x1="116.7" x2="87.25" y1="36.95" y2="96.25" gradientUnits="userSpaceOnUse"><stop offset="0" stop-color="#d800bd"/><stop offset=".408" stop-color="#f92d7a"/><stop offset=".59" stop-color="#ff4a52"/><stop offset="1" stop-color="#ffb243"/></linearGradient></defs><path fill="url(#a)" fill-rule="evenodd" d="M41.3 43.57a7.565 7.565 0 1 1-15.13 0 7.565 7.565 0 0 1 15.13 0m20.17 0a7.565 7.565 0 1 1-15.13 0 7.565 7.565 0 0 1 15.13 0m12.61 7.565a7.565 7.565 0 1 0 0-15.13 7.565 7.565 0 0 0 0 15.13m27.74-7.565a7.565 7.565 0 1 1-15.13 0 7.565 7.565 0 0 1 15.13 0M13.56 71.31a7.565 7.565 0 1 0 0-15.13 7.565 7.565 0 0 0 0 15.13m27.74-7.565a7.565 7.565 0 1 1-15.13 0 7.565 7.565 0 0 1 15.13 0m12.61 7.565a7.565 7.565 0 1 0 0-15.13 7.565 7.565 0 0 0 0 15.13m27.74-7.565a7.565 7.565 0 1 1-15.13 0 7.565 7.565 0 0 1 15.13 0m12.61 7.565a7.565 7.565 0 1 0 0-15.13 7.565 7.565 0 0 0 0 15.13M122 63.745a7.565 7.565 0 1 1-15.13 0 7.565 7.565 0 0 1 15.13 0M13.6 91.485a7.565 7.565 0 1 0 0-15.13 7.565 7.565 0 0 0 0 15.13m27.74-7.565a7.565 7.565 0 1 1-15.13 0 7.565 7.565 0 0 1 15.13 0m52.96 7.565a7.565 7.565 0 1 0 0-15.13 7.565 7.565 0 0 0 0 15.13m27.74-7.565a7.565 7.565 0 1 1-15.13 0 7.565 7.565 0 0 1 15.13 0" clip-rule="evenodd" transform="translate(-3.31 -3.166)scale(.5517)"/></svg>