<svg xmlns="http://www.w3.org/2000/svg" xmlns:xlink="http://www.w3.org/1999/xlink" viewBox="0 0 64 64"><defs><linearGradient id="a" x1="1" x2="0" y1="1"><stop offset="0" stop-color="#ff0707"/><stop offset=".526" stop-color="#d220ff"/><stop offset="1" stop-color="#fd5"/></linearGradient><linearGradient xlink:href="#a" id="e" x1="316" x2="86.46" y1="292.6" y2="304.9" gradientTransform="scale(1.354 .7385)" gradientUnits="userSpaceOnUse"/><linearGradient xlink:href="#a" id="c" x1="461.7" x2="15.45" y1="291.7" y2="290.9" gradientTransform="scale(1.074 .9308)" gradientUnits="userSpaceOnUse"/><linearGradient id="b" x1="1" x2="0" y1="1"><stop offset="0" stop-color="#f0f"/><stop offset="1" stop-color="#fca"/></linearGradient></defs><path fill="url(#b)" d="M317.3 216.1a10.23 10.23 0 0 0-5.158 1.814l-75.5 47.5a30.11 30.11 0 0 0 35 49 31 31 0 0 0 7-7l47.5-75.5a10.06 10.06 0 0 0-2.299-14 10.23 10.23 0 0 0-6.543-1.814" transform="translate(-2.133 -2.126)scale(.1333)"/><path fill="url(#c)" d="M256 48C123.7 48 16 155.5 16 287.9v.023c-.076 58.64 21.4 115.3 60.34 159.1l.17.188c.701.765 1.828 2.08 3.338 3.629 16.22 17.44 44.49 17.35 60.57-.246l-.04.04c62.41-67.82 168.8-67.82 231.2 0l-.038-.04c16.11 17.63 44.46 17.7 60.67.162l.054-.059 3.2-3.5.156-.173a239.23 239.23 0 0 0 60.34-159.1c-.006-132.3-107.7-239.9-240-239.9zm0 32c115.1 0 208 92.85 208 207.9v.022c.07 50.8-18.52 99.84-52.24 137.8l-3.012 3.295c-3.818 4.134-9.739 4.119-13.54-.036l-.037-.04c-74.76-81.24-203.6-81.24-278.4 0l-.037.04c-3.796 4.154-9.717 4.17-13.54.036a16 16 0 0 0-.44-.457c-.388-.389-1.277-1.414-2.55-2.811l-.003-.002a207.1 207.1 0 0 1-52.26-137.8v-.022c0-115 92.94-207.9 208-207.9z" transform="translate(-2.133 -2.126)scale(.1333)"/><path fill="url(#e)" d="M256 112a16 16 0 0 0-16 16v32a16 16 0 0 0 16 16 16 16 0 0 0 16-16v-32a16 16 0 0 0-16-16m-113.1 46.86a16 16 0 0 0-4.141.545 16 16 0 0 0-7.172 4.143 16 16 0 0 0 0 22.63l22.63 22.63a16 16 0 0 0 22.63 0 16 16 0 0 0 0-22.63l-22.63-22.63a16 16 0 0 0-11.31-4.688zm226.3 0a16 16 0 0 0-4.141.545 16 16 0 0 0-7.172 4.143l-22.63 22.63a16 16 0 0 0 0 22.63 16 16 0 0 0 22.63 0l22.63-22.63a16 16 0 0 0 0-22.63 16 16 0 0 0-11.31-4.688zM96.1 271.96a16 16 0 0 0-16 16 16 16 0 0 0 16 16h32a16 16 0 0 0 16-16 16 16 0 0 0-16-16zm288 0a16 16 0 0 0-16 16 16 16 0 0 0 16 16h32a16 16 0 0 0 16-16 16 16 0 0 0-16-16z" transform="translate(-2.133 -2.126)scale(.1333)"/></svg>