<svg xmlns="http://www.w3.org/2000/svg" viewBox="0 0 64 64"><defs><linearGradient id="a" y1=".5" y2=".5"><stop offset="0" stop-color="#ff0f85"/><stop offset="1" stop-color="#ff0c0c"/></linearGradient></defs><path fill="url(#a)" fill-opacity=".04" d="M25.01 1.912c-8.177 0-14.76 8.766-14.76 19.65v20.87c0 10.89 6.584 19.65 14.76 19.65h13.98c8.177 0 14.76-8.764 14.76-19.65v-20.87c0-10.89-6.582-19.65-14.76-19.65z" transform="translate(.003)scale(.9999)"/><path fill="url(#a)" d="M25.01 0c-4.772 0-9.027 2.58-11.98 6.508-2.95 3.927-4.697 9.229-4.697 15.06v20.87c0 5.829 1.748 11.13 4.697 15.06 2.95 3.927 7.205 6.508 11.98 6.508h13.98c4.772 0 9.025-2.58 11.98-6.508 2.95-3.927 4.697-9.227 4.697-15.06v-20.87c0-5.829-1.748-11.13-4.697-15.06C48.02 2.581 43.767 0 38.99 0zm0 3.822h13.98c3.406 0 6.532 1.803 8.918 4.98s3.93 7.705 3.93 12.76v20.87c0 5.059-1.543 9.584-3.93 12.76-2.386 3.178-5.512 4.98-8.918 4.98H25.01c-3.406 0-6.534-1.803-8.92-4.98s-3.93-7.703-3.93-12.76v-20.87c0-5.059 1.543-9.586 3.93-12.76 2.386-3.178 5.514-4.98 8.92-4.98" transform="translate(.003)scale(.9999)"/><path fill="url(#a)" d="M27.9 9.18v13.69L17.79 12.76v13.98h4.045v-4.217l10.11 10.11v-16.64l9.996 5.457-9.594 11.33 9.596 11.74-9.998 5.178v-16.72l-10.11 10.11v-4.217H17.79v13.98l10.11-10.11v13.6l20.33-10.52-10.62-13 10.63-12.55z" transform="translate(.003)scale(.9999)"/></svg>