<svg xmlns="http://www.w3.org/2000/svg" xmlns:xlink="http://www.w3.org/1999/xlink" style="isolation:isolate" viewBox="0 0 64 64"><defs><linearGradient xlink:href="#a" id="c" x1="6.485" x2="41.59" y1="24.15" y2="24.15" gradientUnits="userSpaceOnUse"/><linearGradient xlink:href="#a" id="e" x1="13.5" x2="36.08" y1="24.72" y2="24.72" gradientUnits="userSpaceOnUse"/><linearGradient id="f" x1="6.414" x2="11.59" y1="14.03" y2="2.606" gradientTransform="matrix(4.209 0 0 4.811 -26 6)" gradientUnits="userSpaceOnUse"><stop offset="0" stop-color="#0061ff"/><stop offset="1" stop-color="#60efff"/></linearGradient></defs><linearGradient id="a" x2=".907" y1=".5" y2=".92" transform="translate(-.407 -.555)scale(1.348)"><stop offset="0" stop-color="#00c4ff"/><stop offset=".839" stop-color="#0072ff"/></linearGradient><rect width="32.27" height="44.64" x="7.903" y="1.83" fill="#96b2ae" fill-opacity=".04" stroke="url(#c)" stroke-linecap="round" stroke-linejoin="round" stroke-width="2.836" rx="10.95" ry="14.58" style="paint-order:normal" transform="translate(-.407 -.555)scale(1.348)"/><path fill="none" stroke="url(#e)" stroke-width="3" d="M15 29.25V36l7.5-7.5v11.25l11.25-5.824-7.5-9.176 7.5-8.859L22.5 9.75V21L15 13.5v6.75" transform="translate(-.407 -.555)scale(1.348)"/><path fill="url(#f)" d="M37 37.5a4.5 4.5 0 1 0 0 9 4.5 4.5 0 0 0 0-9" transform="translate(-.407 -.555)scale(1.348)"/></svg>