<svg xmlns="http://www.w3.org/2000/svg" viewBox="0 0 64 64"><defs><linearGradient id="a" x2="0" y1="1"><stop offset="0" stop-color="#004dff"/><stop offset="1" stop-color="#00e0f8"/></linearGradient></defs><path fill="url(#a)" d="m33.9 13.08-.002.016a1 1 0 0 0-.709.29.996.996 0 0 0 0 1.41c2.44 2.44 3.81 5.74 3.81 9.19a13.02 13.02 0 0 1-3.83 9.173.99.99 0 0 0-.004 1.408.99.99 0 0 0 1.408.004c2.82-2.8 4.412-6.61 4.422-10.6 0-3.98-1.58-7.79-4.39-10.6a1 1 0 0 0-.706-.291zm-19.8.04a1 1 0 0 0-.707.29c-2.82 2.8-4.42 6.61-4.42 10.6.014 3.97 1.6 7.782 4.42 10.6a.995.995 0 0 0 1.41-.004.995.995 0 0 0-.004-1.41 12.98 12.98 0 0 1-3.83-9.16v-.008a12.98 12.98 0 0 1 3.83-9.16.995.995 0 0 0 .004-1.41 1 1 0 0 0-.707-.295zm9.871.874a1 1 0 0 0-.383.076 1 1 0 0 0-.617.924v6.92l-3.381-2.699a1 1 0 0 0-1.41.156 1 1 0 0 0 .156 1.41l4.02 3.22-4.02 3.22a1 1 0 0 0-.156 1.41 1 1 0 0 0 1.41.156l3.381-2.7v6.92a1 1 0 0 0 1.709.706l5-5a1 1 0 0 0-.082-1.488l-4.02-3.22 4.02-3.222a1 1 0 0 0 .082-1.49l-5-5a1 1 0 0 0-.707-.293zm7.072 1.924-.004.006a.997.997 0 0 0-.707 1.703 9 9 0 0 1 2.641 6.361 9.04 9.04 0 0 1-2.65 6.35.996.996 0 0 0-.004 1.41.995.995 0 0 0 1.41.004c2.07-2.05 3.23-4.85 3.24-7.76 0-2.92-1.159-5.721-3.219-7.781a1 1 0 0 0-.707-.293m-14.1.023a1 1 0 0 0-.707.291 10.94 10.94 0 0 0-3.24 7.76c.01 2.91 1.18 5.712 3.24 7.762a.995.995 0 0 0 1.41-.003.995.995 0 0 0-.004-1.41 9 9 0 0 1-2.65-6.34c.01-2.38.963-4.66 2.65-6.34a.996.996 0 0 0-.703-1.705zm8.051 1.471 2.5 2.5-2.5 2zm0 8.67 2.5 2-2.5 2.5z" transform="translate(-19.13 -19.14)scale(2.132)"/></svg>