<svg xmlns="http://www.w3.org/2000/svg" viewBox="0 0 64 64"><defs><linearGradient id="a" x2="0" y2="1"><stop offset="0" stop-color="#00c4ff"/><stop offset="1" stop-color="#0072ff"/></linearGradient></defs><path fill="url(#a)" d="M6.141 4.461a4.5 4.5 0 0 0-.717.023c-.33.038-.485.406-.344.707a7.27 7.27 0 0 1-.003 6.182c-.142.301.01.67.341.707 1.914.217 3.813-.783 6.182-3.072a.51.51 0 0 1 .711.002l1.621 1.621a.906.906 0 0 0 1.54-.517 2.4 2.4 0 0 0-.26-1.508.68.68 0 0 1 0-.647 2.4 2.4 0 0 0 .26-1.51.906.906 0 0 0-1.54-.515l-1.62 1.621a.51.51 0 0 1-.712.002c-2.07-2-3.782-3.017-5.459-3.096zm.137 1.012c1.26.126 2.695.936 4.627 2.803l.006.006-.006.006c-1.934 1.868-3.37 2.68-4.631 2.805a8.27 8.27 0 0 0 .004-5.62zM14.5 6.78q.004.196-.045.385-.043.166-.123.318l.15 2.051q.02.124.018.25l-1.482-1.48-.022-.021.022-.02zm0 3.004-.018-.25a1 1 0 0 0-.027-.135zm-.045-.385a1.4 1.4 0 0 0-.123-.316zm-.123-.316v-1.6a1.68 1.68 0 0 0 0 1.6" transform="translate(-2.104 -1.675)scale(4.21058)"/><path fill="url(#a)" d="M6.148 4.26a5 5 0 0 0-.748.025.64.64 0 0 0-.508.37.74.74 0 0 0 .006.62 7.08 7.08 0 0 1-.004 6.013.74.74 0 0 0-.006.623c.088.19.273.342.508.369 1.998.225 3.956-.824 6.342-3.13a.304.304 0 0 1 .43 0l1.623 1.622a1.104 1.104 0 0 0 1.633-.076c.13-.158.217-.348.246-.551v-.002a2.6 2.6 0 0 0-.284-1.633.49.49 0 0 1 0-.457q.152-.279.231-.588c.088-.34.106-.695.053-1.043a1.113 1.113 0 0 0-.746-.896 1.107 1.107 0 0 0-1.133.266l-1.623 1.622a.304.304 0 0 1-.43-.002c-2.086-2.015-3.845-3.07-5.59-3.152zm-.36.397c1.719-.057 3.47.916 5.673 3.044a.71.71 0 0 0 .99-.005l1.62-1.621a.707.707 0 0 1 1.202.404v.002a2.2 2.2 0 0 1-.238 1.383.88.88 0 0 0 0 .838 2.2 2.2 0 0 1 .238 1.382v.002a.707.707 0 0 1-1.201.403L12.45 8.868a.71.71 0 0 0-.99-.004c-2.351 2.272-4.188 3.226-6.02 3.02a.22.22 0 0 1-.19-.14.35.35 0 0 1 .004-.286 7.46 7.46 0 0 0 .004-6.352.34.34 0 0 1-.004-.283.22.22 0 0 1 .19-.14q.172-.02.343-.026zm.481.615a.2.2 0 0 0-.182.27 8.07 8.07 0 0 1-.002 5.481.2.2 0 0 0 .207.268c1.33-.132 2.802-.977 4.75-2.86h.003l.005-.005a.2.2 0 0 0-.002-.287l-.002-.002v-.002l-.002-.002h-.002C9.095 6.252 7.625 5.406 6.296 5.274zm.26.5c1.096.19 2.375.914 4.064 2.512-1.691 1.598-2.972 2.32-4.068 2.51.254-.813.44-1.651.441-2.51 0-.86-.184-1.698-.437-2.512m7.949.808a.2.2 0 0 0-.121.059l-1.48 1.482-.02.017a.2.2 0 0 0 0 .288l.02.017 1.48 1.482.14-.14h.002l.2.003-.002-.02h.002l-.165-2.261c.046-.095.087-.19.114-.293a1.6 1.6 0 0 0 .05-.44.2.2 0 0 0-.22-.195zm-.324.828v.002c-.008.023.012.05.002.073h-.026v1.6h.026c.01.02-.01.047-.002.068l.002.002-.004.002-.873-.873z" transform="translate(-2.104 -1.675)scale(4.21058)"/><path fill="url(#a)" d="M8.734 2.984a3.5 3.5 0 0 0-.69.049c-.447.077-.392.637.034.795a8.7 8.7 0 0 1 2.307 1.28c.202.158.503.154.61-.08q.014-.031.027-.066a1.17 1.17 0 0 0-.442-1.383 3.46 3.46 0 0 0-1.846-.595z" transform="translate(-2.104 -1.675)scale(4.21058)"/><path fill="url(#a)" d="M10.7 11.26a.3.3 0 0 0-.168.059q-.587.45-1.227.826a.33.33 0 0 0-.07.515c.9.959 2.676-.22 1.672-1.318a.28.28 0 0 0-.207-.082z" transform="translate(-2.104 -1.675)scale(4.21058)"/><path fill="url(#a)" d="M3.574 5.117q-.114 0-.22.059c-.77.419-1.487.927-2.136 1.518A2.1 2.1 0 0 0 .5 8.28c.006 1.544 1.793 2.516 2.975 3.16.155.085.35.035.437-.119a6.19 6.19 0 0 0 .067-5.965.45.45 0 0 0-.405-.24zm-.959 2.637a.526.526 0 0 1 .527.527.527.527 0 0 1-.902.375.53.53 0 0 1 0-.748c.1-.099.235-.154.375-.154" transform="translate(-2.104 -1.675)scale(4.21058)"/></svg>