<svg xmlns="http://www.w3.org/2000/svg" viewBox="0 0 64 64"><defs><linearGradient id="a" y1="1"><stop offset="0" stop-color="#004dff"/><stop offset="1" stop-color="#00e0f8"/></linearGradient></defs><path fill="url(#a)" d="M1.59 1.236c-.878 0-1.592.713-1.592 1.592v10.34c0 .878.714 1.59 1.592 1.59h10.34a1.59 1.59 0 0 0 1.59-1.59v-1.394l2.475 1.945V2.279L13.52 4.222V2.828c0-.879-.712-1.592-1.59-1.592zM3.092 3.56h4.816c1.33 0 2.41 1.264 2.41 2.58 0 .677-.286 1.342-.766 1.807.48.465.766 1.13.766 1.807 0 1.316-1.08 2.58-2.41 2.58H3.092zm1.549 1.547v2.066h3.268c.462.005.861-.576.861-1.033 0-.458-.399-1.033-.861-1.033zm0 3.613v2.064h3.268c.462.005.861-.573.861-1.031S8.371 8.72 7.91 8.72z" transform="translate(.008 .006)scale(4.0006)"/></svg>