<svg xmlns="http://www.w3.org/2000/svg" style="isolation:isolate" viewBox="0 0 64 64"><linearGradient id="a" x1="-.08" x2=".819" y1=".091" y2=".856" gradientTransform="scale(48)" gradientUnits="userSpaceOnUse" transform="scale(1.333)"><stop offset=".013" stop-color="#df57ff"/><stop offset=".521" stop-color="#241efc"/><stop offset=".979" stop-color="#0eaffe"/></linearGradient><path fill="url(#a)" d="m41.27 0-7.474 12.95A14.78 14.78 0 0 1 38.783 24a14.8 14.8 0 0 1-.774 4.675l5.201 3.003A20.7 20.7 0 0 0 44.697 24a20.7 20.7 0 0 0-3.667-11.75l4.753-8.233A29.5 29.5 0 0 0 41.27.003zM4.01 2.215A29.5 29.5 0 0 0-.004 6.728l12.95 7.474a14.78 14.78 0 0 1 11.05-4.987c1.59.005 3.169.266 4.675.774l3.003-5.201a20.7 20.7 0 0 0-7.678-1.487 20.7 20.7 0 0 0-11.75 3.667L4.013 2.215zm.774 14.11a20.7 20.7 0 0 0-1.487 7.678 20.7 20.7 0 0 0 3.667 11.75l-4.753 8.233A29.5 29.5 0 0 0 6.724 48l7.474-12.95A14.78 14.78 0 0 1 9.211 24c.005-1.59.266-3.169.774-4.675l-5.201-3.003zm30.27 17.48a14.78 14.78 0 0 1-11.05 4.987 14.8 14.8 0 0 1-4.675-.774l-3.003 5.201a20.7 20.7 0 0 0 7.678 1.487 20.7 20.7 0 0 0 11.75-3.667l8.233 4.753a29.5 29.5 0 0 0 4.014-4.513l-12.95-7.474z" transform="scale(1.333)"/><linearGradient id="c" x2="1" y1=".5" y2=".5" gradientTransform="translate(15.13 15.13)scale(17.74)" gradientUnits="userSpaceOnUse" transform="scale(1.333)"><stop offset="0" stop-color="#f7f206"/><stop offset=".983" stop-color="#ffbb24"/></linearGradient><path fill="url(#c)" d="M15.13 24c0-4.896 3.975-8.871 8.871-8.871s8.871 3.975 8.871 8.871-3.975 8.871-8.871 8.871S15.13 28.896 15.13 24" transform="scale(1.333)"/></svg>