<svg version="1.1" viewBox="0 0 64 64" xmlns="http://www.w3.org/2000/svg">
 <defs>
  <linearGradient id="b" y1=".5" y2=".5">
   <stop stop-color="#5800e2" offset="0"/>
   <stop stop-color="#ff00e6" offset="1"/>
  </linearGradient>
  <linearGradient id="a" y1=".5" y2=".5">
   <stop stop-color="#f9ad07" offset="0"/>
   <stop stop-color="#ff06a6" offset="1"/>
  </linearGradient>
 </defs>
 <path transform="translate(0 5e-5) scale(1) translate(-.000229 .01025) scale(1) matrix(.9624 0 0 .9624 1.936 1.208)" d="m18.9 12.88a0.5 0.5 0 0 0-0.04102 0.03516c-1.153 0.1291-1.804 1.47-1.137 2.436a0.5 0.5 0 0 0 0.0039 0.0059s1.559 2.184 2.977 4.408c0.7085 1.112 1.383 2.245 1.781 3.047 0.06859 0.1383 0.08782 0.2061 0.127 0.3027-0.4277 0.285-0.8176 0.5794-1.195 0.877-0.2241-0.3114-0.5371-0.5461-0.9453-0.5469h-5.85c-0.6734 0.0013-1.229 0.5571-1.228 1.23v13.15c-4.54e-4 0.6734 0.5551 1.231 1.228 1.232h5.85c0.5766-0.0011 0.9962-0.4442 1.125-0.9844 1.072 0.2774 5.096 1.22 9.258 1.998-1.61 0.8866-3.507 1.906-5.594 2.992-4.866 2.532-9.883 5.051-9.883 5.051a0.5 0.5 0 0 0-2e-3 2e-3c-0.7034 0.3562-0.9731 1.128-0.8223 1.768 0.1508 0.6392 0.735 1.209 1.523 1.213a0.5 0.5 0 0 0 0.0039 0c0.8906 2.22e-4 2.11-0.1874 3.809-0.5039 1.702-0.3171 3.827-0.7758 6.227-1.357 4.798-1.164 10.68-2.814 16.38-4.787 5.701-1.972 11.21-4.248 15.3-6.752 2.045-1.251 3.749-2.556 4.961-4.008 0.9549-1.144 1.623-2.45 1.721-3.852 0.0098-0.07973 0.01294-0.16 0.0098-0.2402 0.0066-0.3048-0.01011-0.6137-0.0625-0.9238-0.03611-0.2128-0.1165-0.417-0.2343-0.5978-0.1497-0.229-0.312-0.4493-0.4805-0.666-0.8671-1.394-2.374-2.598-4.484-3.707l-0.0078-0.0039c-1.925-1.108-4.043-1.966-6.012-2.656-4.017-1.407-7.528-2.046-7.531-2.047-0.05396-0.01034-0.1093-0.01683-0.1641-0.02148a0.5 0.5 0 0 0-0.0039 0s-3.161-0.2461-4.978-0.2461c-3.223 0-6.162 0.3531-8.857 0.9082-1.43-0.9991-3.89-2.361-6.492-3.748a0.5 0.5 0 0 0 0-2e-3c-2.855-1.52-5.457-2.848-5.457-2.848a0.5 0.5 0 0 0-0.01953 0.0059c-0.1832-0.08977-0.3801-0.1541-0.584-0.168-0.07302-0.0051-0.1457-0.0051-0.2188 0zm4.814 5.799c1.408 0.7502 2.908 1.574 4.143 2.279 1.237 0.7062 2.242 1.32 2.533 1.545 0.3697 0.2863 0.8462 0.394 1.303 0.293a0.5 0.5 0 0 0 2e-3 0c2.612-0.5827 5.586-0.9141 8.84-0.9141 0.9721 0 2.58 0.0999 3.637 0.1699 0.1959 1.754 1.34 3.319 2.994 4.604 1.985 1.541 4.714 2.841 7.852 3.682a0.5 0.5 0 0 0 0 2e-3c1.941 0.5189 3.856 0.7131 5.688 0.7676-0.1178 0.1892-0.181 0.3568-0.3574 0.5684-0.8594 1.03-2.317 2.195-4.186 3.338-3.739 2.287-9.106 4.537-14.69 6.467-5.011 1.733-10.04 3.108-14.45 4.221 2.33-1.215 4.633-2.436 6.303-3.373 0.874-0.4905 1.578-0.898 2.084-1.232 0.2368-0.1565 0.4536-0.2948 0.6894-0.5254v2e-3h2e-3c0.01803-0.0065 0.1326-0.09202 0.2422-0.2344 0.1349-0.1752 0.2288-0.4165 0.2812-0.75 0.04255-0.2704-2e-3 -0.515-0.08789-0.7656-0.08596-0.2507-0.2167-0.5031-0.4531-0.7051-0.355-0.3034-0.755-0.3662-0.8809-0.3809-2.108-0.2459-4.461-0.7717-6.684-1.258 1.047-0.2672 2.2-0.4879 3.047-0.834 1.369-0.5593 2.473-1.186 3.293-1.865a0.5 0.5 0 0 0 2e-3 0c0.8071-0.6699 1.507-1.487 1.465-2.57-0.04026-1.042-0.7245-1.806-1.529-2.467a0.5 0.5 0 0 0 0-2e-3c-0.819-0.6717-1.919-1.301-3.279-1.861-1.759-0.726-4.061-1.252-6.631-1.576 0.0594-0.03453 0.114-0.08033 0.1738-0.1133 0.6314-0.3472 0.8688-0.9589 0.9141-1.426 0.03676-0.3784-0.02934-0.6829-0.08789-0.9102-0.1255-0.4872-0.329-0.9435-0.5762-1.441-0.4071-0.8205-1.001-1.784-1.592-2.732zm24.34 4.535c1.488 0.2472 2.977 0.5016 4.285 0.8711 2.633 0.9371 5.173 2.337 7.08 3.865-1.194-0.09257-2.37-0.1261-3.637-0.4648-2.807-0.7523-5.23-1.942-6.805-3.164-0.5299-0.4112-0.6436-0.7426-0.9238-1.107zm-26.05 4.193c3.541 0.1654 6.488 0.8866 8.57 1.746 1.188 0.4903 2.101 1.031 2.656 1.486 0.2686 0.2203 0.4395 0.4248 0.5391 0.5703 0.02421 0.03536 0.029 0.05272 0.04492 0.08008-0.01064 0.01858-0.01087 0.02644-0.02539 0.04883-0.08577 0.1322-0.2417 0.3272-0.5039 0.5449-0.5408 0.4488-1.456 0.9921-2.652 1.48a0.5 0.5 0 0 0-2e-3 0c-2.012 0.8224-4.836 1.513-8.197 1.713-0.4638-0.1243-0.7988-0.2168-0.7988-0.2168-0.1391-0.03921-0.2851-0.05861-0.4297-0.05859l-3.541-0.0059v-7.08c0.5048-1.2e-5 1.006-3.35e-4 3.535 0.0059 0.2982 7.8e-4 0.555-0.1587 0.8047-0.3144z" fill="url(#b)"/>
 <path transform="translate(0 5e-5) scale(1) translate(-.000229 .01025) scale(1) translate(1.936 1.208) scale(.9624)" d="m7.346 24.69c-1.176 1.763-0.2194 2.529 1.023 2.674-1.462 0.5541-2.434-0.8533-3.576-1.19-0.7145-0.2102-2.417 0.7382-3.879-0.02344 0.5307 1.462 2.633 0.4024 3.348 1.068 0.3387 0.3156 1.656 1.809 0.7266 3.004-0.9294 1.194-1.843-0.998-3.316-1.148-0.6947-0.07075-2.257 1.132-3.684 0.5293 1.462 1.501 2.044 0.8363 3.031 1.713 0.987 0.8768 2.014 2.242 0.9141 3.516-0.6901 0.8-2.68 0.6533-2.482 1.551 0.3299-0.4992 2.822-0.02155 3.707-0.6934 2.902-1.807 4.573-0.06485 2.949 1.092-0.4786 0.3185-1.227-0.1575-2.055-0.07617-1.385 0.1362-2.912 0.7355-3.148 1.201 0.467-0.1355 1.614-0.2852 2.791 0.1445 1.02 0.3722 2.05 1.332 2.83 1.256 3.115-0.3048 3.999-3.817 7.547-1.461v-13.15c-0.5491 0.2368-1.08 0.8939-3.232 1.252-2.152 0.3586-3.739 0.4464-3.492-1.252z" fill="url(#a)"/>
</svg>
