<svg xmlns="http://www.w3.org/2000/svg" viewBox="0 0 64 64"><defs><linearGradient id="a" x1="1" x2="0" y1="1"><stop offset="0" stop-color="#fe1952"/><stop offset="1" stop-color="#fe19a7"/></linearGradient></defs><path fill="url(#a)" d="M24 9c-1.025 0-2.033.117-3 .313v22.69c0 .553-.446 1-1 1h-2c-.554 0-1-.447-1-1v-21.25c-4.757 2.514-8 7.494-8 13.25 0 8.283 6.716 15 15 15s15-6.717 15-15-6.716-15-15-15zm0 8c.34 0 .582.16 1 .45l9.383 6.472c.418.289.617.683.617 1.078s-.199.79-.617 1.078L25 32.551c-.418.289-.66.45-1 .45-.66 0-1-.492-1-1V18c0-.509.34-1 1-1z" transform="translate(-19.194 -19.197)scale(2.133)"/></svg>