<svg version="1.1" viewBox="0 0 64 64" xmlns="http://www.w3.org/2000/svg">
 <defs>
  <linearGradient id="a" y1="1">
   <stop stop-color="#07f" offset="0"/>
   <stop stop-color="#00f7ff" offset="1"/>
  </linearGradient>
  <linearGradient id="b" x1="1" x2="0" y2="1">
   <stop stop-color="#ff0015" offset="0"/>
   <stop stop-color="#fc00a3" offset="1"/>
  </linearGradient>
  <linearGradient id="c" y2="1">
   <stop stop-color="#f1fa00" offset="0"/>
   <stop stop-color="#ff6900" offset="1"/>
  </linearGradient>
 </defs>
 <path transform="translate(0) scale(1) translate(0) scale(1) translate(-.001156 -.00064) scale(1) translate(-.003489 -.00092) scale(1) matrix(.9997 0 0 .9997 -.003365 -.00014)" d="m51.65 19.3c-0.2085 0-0.3993 0.08288-0.541 0.2246-0.1417 0.1417-0.2246 0.3325-0.2246 0.541v1.318h7.672v-1.318c0-0.2085-0.08093-0.3993-0.2227-0.541-0.1417-0.1417-0.3345-0.2246-0.543-0.2246zm-0.7656 3.104v1.385h7.672v-1.385zm0.8848 2.41v0.8672c-0.0083 2.168-1.303 2.937-2.529 3.978-1.551 1.31-3.101 2.901-3.143 6.721h1.732c0.05838-3.744 1.911-4.846 3.379-6.106 1.093-0.9425 2.01-1.95 2.244-3.727h2.533c0.2335 1.776 1.154 2.785 2.246 3.727 1.468 1.26 3.318 2.36 3.377 6.106h1.732c-0.0417-3.82-1.591-5.412-3.143-6.721-1.227-1.043-2.521-1.81-2.529-3.978v-0.8672zm4.578 6.287c-0.4837 0-0.877 0.3932-0.877 0.877s0.3932 0.875 0.877 0.875 0.875-0.3913 0.875-0.875-0.3913-0.877-0.875-0.877zm-3.068 1.936c-0.5672 0-1.035 0.468-1.035 1.035 0 0.5755 0.4679 1.033 1.035 1.033s1.033-0.4578 1.033-1.033c0-0.5672-0.4661-1.035-1.033-1.035zm-7.482 4.738 0.4844 7.338h16.71l0.4844-7.338zm2.402 8.73-1.77 2e-3 0.2949 1.559-1.303 2.478 0.0078 0.2148c0.09174 4.278 1.352 6.282 2.652 7.033 1.143 0.7506 2.41 0.583 3.361 0.166 0.5422 0.6672 1.544 1.418 3.279 1.418s2.735-0.7511 3.277-1.418c0.9508 0.417 2.218 0.5846 3.361-0.166 1.302-0.7506 2.561-2.755 2.652-7.033l0.0098-0.2148-1.303-2.478 0.293-1.559h-1.768l-0.3418 1.826 1.365 2.609c-0.0417 1.342-0.1991 2.427-0.4492 3.262-0.3502 1.168-0.859 1.836-1.459 2.17-0.7673 0.417-1.609 0.167-2.076-0.25l-0.9258-0.752-0.4414 1.086s-0.5185 1.166-2.195 1.166c-1.677 0-2.193-1.166-2.193-1.166l-0.4434-1.086-0.9238 0.752c-1.16 1.001-3.794 0.9154-3.986-5.182l1.365-2.609zm8.953 0.7285c-0.6116 0.02363-1.161 0.4425-1.33 1.066-0.2085 0.759 0.2521 1.551 1.02 1.76 0.7673 0.2002 1.551-0.2484 1.76-1.016 0.2085-0.7672-0.2501-1.562-1.018-1.762-0.1438-0.0391-0.2886-0.05428-0.4297-0.04883zm-5.066 0.2148c-0.4837 0-0.875 0.3932-0.875 0.877s0.3913 0.875 0.875 0.875 0.877-0.3913 0.877-0.875-0.3932-0.877-0.877-0.877zm1.387 3.42c-0.6839 0-1.236 0.585-1.236 1.252s0.5519 1.25 1.236 1.25c0.6756 0 1.234-0.583 1.234-1.25 0-0.6672-0.5585-1.252-1.234-1.252z" fill="url(#b)"/>
 <path transform="translate(0) scale(1) translate(0) scale(1) translate(-.001156 -.00064) scale(1) translate(-.003489 -.00092) scale(1) matrix(.9997 0 0 .9997 -.003365 -.00014)" d="m29.86 11.31c-1.933 0-3.533 1.6-3.533 3.533 0 1.684 1.236 3.049 2.826 3.391v5.172c0 0.5215-0.3359 1.096-0.916 1.502-3.289 2.297-5.445 6.121-5.445 10.43v16.96c0 3.885 3.184 7.068 7.068 7.068h11.31c3.885 0 7.068-3.184 7.068-7.068v-16.96c0-4.312-2.155-8.141-5.445-10.43-0.5801-0.4061-0.916-0.9803-0.916-1.502v-5.172c1.59-0.3417 2.826-1.707 2.826-3.391 0-1.933-1.6-3.533-3.533-3.533zm0 2.828h11.31c0.416 0 0.707 0.289 0.707 0.7051s-0.291 0.707-0.707 0.707c-1.16 0-2.121 0.9612-2.121 2.121v5.734c0 1.634 0.9362 2.986 2.123 3.816a1.414 1.414 0 0 0 0.0039 2e-3c2.558 1.78 4.234 4.74 4.234 8.115v16.96c0 2.352-1.888 4.24-4.24 4.24h-11.31c-2.352 0-4.24-1.888-4.24-4.24v-16.96c0-3.369 1.677-6.328 4.236-8.115a1.414 1.414 0 0 0 2e-3 0c1.187-0.8306 2.123-2.184 2.123-3.818v-5.734c0-1.16-0.9612-2.121-2.121-2.121-0.416 0-0.707-0.291-0.707-0.707s0.291-0.7051 0.707-0.7051z" fill="url(#a)"/>
 <path transform="translate(0) scale(1) translate(0) scale(1) translate(-.001156 -.00064) scale(1) translate(-.003489 -.00092) scale(1) matrix(.9997 0 0 .9997 -.003365 -.00014)" d="m35.53 36.12c-0.3867 0-0.774 0.173-1.039 0.5176-1.255 1.617-3.205 4.381-3.205 5.865 0 2.2 1.899 3.977 4.24 3.977s4.24-1.777 4.24-3.977c0-1.484-1.952-4.248-3.197-5.865-0.2651-0.3446-0.6523-0.5176-1.039-0.5176z" fill="url(#a)"/>
 <path transform="translate(0) scale(1) translate(0) scale(1) translate(-.001156 -.00064) scale(1) translate(-.003489 -.00092) scale(1) matrix(.9997 0 0 .9997 -.003365 -.00014)" d="m11.33 4.642v0.001954c-0.3272-0.00593-0.6839-0.0149-0.9925 0.005861a3.225 3.225 0 0 0-1.215 0.3087 3.225 3.225 0 0 0-0.003907 0 3.101 3.101 0 0 0-0.6604 0.4435 3.101 3.101 0 0 0-0.7268 0.9397c-0.05658 0.1129-0.1026 0.2239-0.1407 0.3341-1.887e-4 5.452e-4 1.882e-4 0.001409 0 0.001954-0.03775 0.1095-0.06861 0.2168-0.09182 0.3204-1.312e-4 5.846e-4 1.309e-4 0.00137 0 0.001954-0.04638 0.2077-0.06748 0.4017-0.07815 0.5666-0.0206 0.3068-0.01025 0.666-0.003907 0.9944h0.003907v0.003908l0.02735 1.52 0.001954 0.06838-4.343 6.479 1.547 1.037-1.547-1.032c-0.1232 0.1825-0.1968 0.2941-0.2657 0.4025l-0.005861-0.003907c-2.458 3.811-2.973 8.604-1.444 12.96h0.005861c0.0429 0.1237 0.08777 0.252 0.168 0.465h-0.003907l0.003907 0.003907 0.1465 0.4083a17.96 17.96 0 0 1 0.4787 10.63h0.005861l-0.1133 0.4083 1.364 0.379-1.364-0.3771-0.7268 2.63h-0.005861c-0.4772 1.719-0.8605 3.108-1.088 4.236-0.232 1.137-0.3405 2.184-0.1739 3.218l3.675-0.5939c-0.06327-0.3875-0.04626-0.9208 0.1504-1.885 0.1948-0.9716 0.538-2.206 1.026-3.976h0.003907l0.7268-2.63-1.36-0.379 1.362 0.3751 0.127-0.4513h-0.003908a21.69 21.69 0 0 0-0.5763-12.83c-0.0404-0.1193-0.08715-0.2348-0.1661-0.4454h0.003907l-0.1504-0.4083-1.754 0.6115 1.754-0.6154c-1.162-3.315-0.7481-6.901 1.063-9.706v-0.005861l0.2344-0.3458 4.095-6.115 4.265 0.07619 4.626 6.719c1.952 2.938 2.471 6.557 1.442 9.792l-0.1289 0.4064 1.76 0.592 1.538 0.5216-3.3-1.112h-0.005861l-0.1504 0.4415a21.59 21.59 0 0 0-0.1133 12.82l3.212-0.9554-3.214 0.9593 0.1407 0.4552h0.003907l0.8245 2.657h-0.003907c0.5555 1.791 0.9454 3.049 1.182 4.034 0.2311 0.9809 0.2673 1.521 0.2188 1.897h-0.005862a4.293 4.293 0 0 1-2.446 3.413l0.7756 1.69 0.5959 1.303-1.375-2.995c-0.3169 0.1457-0.8062 0.265-1.78 0.3145-0.9733 0.04952-2.247 0.02903-4.075-0.005861h-0.005862l-1.92-0.03126-0.03712 1.864 0.03321-1.864c-1.828-0.0358-3.099-0.06347-4.079-0.1524-0.9673-0.08569-1.478-0.2188-1.825-0.3868a4.938 4.938 0 0 1-0.005861-0.005861 4.938 4.938 0 0 1-2.679-3.63l-3.669 0.5959h-0.007815a8.655 8.655 0 0 0 4.728 6.377v0.005861h0.003907c0.94 0.4578 1.969 0.6492 3.118 0.7522 1.143 0.1026 2.573 0.1285 4.347 0.1622l1.926 0.03517h0.003908c1.772 0.03578 3.2 0.06076 4.341 0 1.144-0.05984 2.182-0.2168 3.128-0.6506h0.001954v0.001953a8.013 8.013 0 0 0 0.001954 0h0.003907a8.013 8.013 0 0 0 0.001954 0 8.013 8.013 0 0 0 4.591-6.328c0.1302-1.035-0.01929-2.087-0.2911-3.228-0.2701-1.133-0.7073-2.528-1.245-4.267h0.005861l-0.8245-2.663h-0.009769l-0.127-0.4122h0.001954a17.87 17.87 0 0 1 0.09182-10.61l0.1368-0.4142c0.07162-0.2131 0.1142-0.3386 0.1524-0.4611 1.382-4.345 0.6686-9.133-1.891-12.98l-0.2794-0.4142-4.607-6.676-0.03126-1.772c-5e-3 -0.3064-0.0162-0.6459-0.04494-0.9397-2.34e-4 -0.002461-0.001714-0.005342-0.001954-0.007815-0.00727-0.07631-0.01566-0.1598-0.0293-0.2462-4e-4 -0.0025-0.001548-0.005307-0.001954-0.007815-0.02875-0.1776-0.07366-0.3742-0.1485-0.5783-4.82e-4 -0.001314-0.00147-0.002593-0.001954-0.003907-0.03745-0.1018-0.08301-0.2059-0.1368-0.3106a3.101 3.101 0 0 0-0.001953-0.003907 3.101 3.101 0 0 0-0.1915-0.3204 3.101 3.101 0 0 0-0.001954-0.003908 3.101 3.101 0 0 0-1.123-0.9983 3.101 3.101 0 0 0-0.001953 0 3.101 3.101 0 0 0-0.001954-0.003908 3.225 3.225 0 0 0-1.155-0.3224c-0.2915-0.03116-0.627-0.03327-0.9319-0.03712-0.0017-2e-5 -0.002108 2.02e-5 -0.003908 0l-2.26-0.04298zm1.461 18.16c-2.835 0-5.13 2.297-5.13 5.132s2.295 5.132 5.13 5.132 5.13-2.297 5.13-5.132-2.295-5.132-5.13-5.132z" fill="url(#c)"/>
</svg>
