<svg version="1.1" viewBox="0 0 64 64" xmlns="http://www.w3.org/2000/svg">
 <defs>
  <linearGradient id="a" y1="1">
   <stop stop-color="#a93aff" offset="0"/>
   <stop stop-color="#ff81ff" offset="1"/>
  </linearGradient>
  <linearGradient id="b" y1="1">
   <stop stop-color="#5570ff" offset="0"/>
   <stop stop-color="#4dd3ff" offset="1"/>
  </linearGradient>
 </defs>
 <path transform="translate(.002756 -.001002) scale(1) matrix(7.559 0 0 7.559 -32 -32)" d="m5.004 5.004v6.927h6.926v-6.927zm1.041 0.77h4.844l-1.155 1.153h-2.534l-1.156-1.152zm-0.2718 0.2728 1.154 1.153v2.534l-1.154 1.156zm5.388 0v4.843l-1.155-1.155v-2.534zm-3.849 1.266h2.31v2.309h-2.31zm-0.1121 2.694h2.534l1.154 1.153h-4.842z" fill="url(#b)"/>
 <path transform="translate(.002756 -.001002) scale(1) matrix(7.559 0 0 7.559 -32 -32)" d="m11.54 10.39a1.154 1.154 0 0 0-1.154 1.155 1.154 1.154 0 0 0 1.154 1.154 1.154 1.154 0 0 0 1.156-1.154 1.154 1.154 0 0 0-1.156-1.154z" fill="url(#a)"/>
 <path transform="translate(.002756 -.001002) scale(1) matrix(7.559 0 0 7.559 -32 -32)" d="m5.388 10.39a1.154 1.154 0 0 0-1.155 1.155 1.154 1.154 0 0 0 1.154 1.154 1.154 1.154 0 0 0 1.155-1.154 1.154 1.154 0 0 0-1.154-1.154z" fill="url(#a)"/>
 <path transform="translate(.002756 -.001002) scale(1) matrix(7.559 0 0 7.559 -32 -32)" d="m9.813 9.237a0.58 0.58 0 0 0-0.5772 0.5772 0.58 0.58 0 0 0 0.5772 0.5767 0.58 0.58 0 0 0 0.5777-0.5767 0.58 0.58 0 0 0-0.5772-0.5772 0.58 0.58 0 0 0-5.168e-4 0z" fill="url(#a)"/>
 <path transform="translate(.002756 -.001002) scale(1) matrix(7.559 0 0 7.559 -32 -32)" d="m7.12 9.237a0.58 0.58 0 0 0-0.5767 0.5772 0.58 0.58 0 0 0 0.5767 0.5767 0.58 0.58 0 0 0 0.5772-0.5767 0.58 0.58 0 0 0-0.5772-0.5772z" fill="url(#a)"/>
 <path transform="translate(.002756 -.001002) scale(1) matrix(7.559 0 0 7.559 -32 -32)" d="m9.813 6.543a0.58 0.58 0 0 0-0.5772 0.5767 0.58 0.58 0 0 0 0.5772 0.5782 0.58 0.58 0 0 0 0.5777-0.5782 0.58 0.58 0 0 0-0.5767-0.5767 0.58 0.58 0 0 0-0.00103 0z" fill="url(#a)"/>
 <path transform="translate(.002756 -.001002) scale(1) matrix(7.559 0 0 7.559 -32 -32)" d="M 7.12,6.543 A 0.58,0.58 0 0 0 6.5433,7.1197 0.58,0.58 0 0 0 7.12,7.6979 0.58,0.58 0 0 0 7.6972,7.1197 0.58,0.58 0 0 0 7.12,6.543 Z" fill="url(#a)"/>
 <path transform="translate(.002756 -.001002) scale(1) matrix(7.559 0 0 7.559 -32 -32)" d="m11.54 4.235a1.154 1.154 0 0 0-1.154 1.153 1.154 1.154 0 0 0 1.153 1.155 1.154 1.154 0 0 0 1.156-1.153 1.154 1.154 0 0 0-1.155-1.154z" fill="url(#a)"/>
 <path transform="translate(.002756 -.001002) scale(1) matrix(7.559 0 0 7.559 -32 -32)" d="m5.388 4.235a1.154 1.154 0 0 0-1.154 1.153 1.154 1.154 0 0 0 1.154 1.155 1.154 1.154 0 0 0 1.156-1.155 1.154 1.154 0 0 0-1.156-1.153z" fill="url(#a)"/>
</svg>
