<svg xmlns="http://www.w3.org/2000/svg" fill="none" viewBox="0 0 64 64"><defs><linearGradient id="b" x1="4.74" x2="4.74" y1="51.68" y2="51.6" gradientUnits="userSpaceOnUse"><stop offset="0" stop-color="#a93aff"/><stop offset="1" stop-color="#ff81ff"/></linearGradient><linearGradient id="c" x1=".009" x2="64.01" y1="31.05" y2="31.05" gradientUnits="userSpaceOnUse"><stop offset="0" stop-color="#a93aff"/><stop offset="1" stop-color="#ff81ff"/></linearGradient><linearGradient id="d" x1="32.19" x2="32.19" y1="49.22" y2="14.94" gradientUnits="userSpaceOnUse"><stop offset="0" stop-color="#5570ff"/><stop offset="1" stop-color="#4dd3ff"/></linearGradient><clipPath id="a"><path fill="#fff" d="M0 0h64v64H0z"/></clipPath></defs><g clip-path="url(#a)" transform="translate(.002)"><path fill="url(#b)" d="M4.995 51.6h-.51v.077h.51z" opacity=".182"/><path fill="url(#c)" fill-rule="evenodd" d="M6.295 0c2.584 0 4.802 1.537 5.759 3.731l39.93.015c.96-2.185 3.174-3.713 5.751-3.713 3.458 0 6.262 2.754 6.262 6.151 0 2.56-1.592 4.754-3.856 5.68v40.35c2.206.951 3.747 3.116 3.747 5.635 0 3.397-2.803 6.151-6.262 6.151-2.58 0-4.796-1.533-5.755-3.722l-39.87.023c-.966 2.173-3.173 3.692-5.741 3.692-3.458 0-6.262-2.754-6.262-6.15 0-2.536 1.561-4.713 3.79-5.654v-40.4C1.577 10.84.031 8.672.031 6.15.031 2.753 2.834 0 6.293 0zm45.64 55.28-8.073-8.353 3.562-3.24 7.708 7.976v-38.82l-8.876 8.226-3.287-3.509 9.211-8.536a6 6 0 0 1-.183-.374l-39.79-.015 7.505 7.039-3.396 3.408-7.52-7.054v39.92l7.512-7.51 3.42 3.385-7.586 7.58 39.74-.022.046-.1z" clip-rule="evenodd"/><path fill="url(#d)" fill-rule="evenodd" d="M22.57 39.94V24.18a5 5 0 0 0 2.055-2.055l14.98.033a4.97 4.97 0 0 0 1.753 1.935v15.72a4.97 4.97 0 0 0-1.728 2.033l-15.05-.028a5 5 0 0 0-2.006-1.877zm23.79-15.58v15.07c1.681.794 2.841 2.482 2.841 4.437 0 2.718-2.243 4.921-5.009 4.921a5.03 5.03 0 0 1-4.072-2.055l-15.5-.029a5.02 5.02 0 0 1-4.374 2.521c-2.766 0-5.009-2.203-5.009-4.92 0-1.745.924-3.278 2.317-4.15v-16.1c-1.434-.866-2.391-2.422-2.391-4.197 0-2.718 2.243-4.92 5.009-4.92 1.791 0 3.362.923 4.248 2.311l15.47.035a5.03 5.03 0 0 1 4.195-2.23c2.767 0 5.009 2.203 5.009 4.92 0 1.914-1.112 3.572-2.735 4.386z" clip-rule="evenodd"/></g></svg>