<svg xmlns="http://www.w3.org/2000/svg" viewBox="0 0 64 64"><defs><linearGradient id="a" y2="1"><stop offset="0" stop-color="#28e2e2"/><stop offset="1" stop-color="#2d72c7"/></linearGradient></defs><path fill="url(#a)" d="m21.6 5.76-1.244.053-1.213.156-1.179.254-1.141.348-1.1.438-1.052.525-1.002.605-.946.681-.887.754-.823.824-.754.886-.681.946-.605 1.002-.525 1.052-.438 1.1-.348 1.141-.254 1.18-.156 1.212-.053 1.244v43.2l.053 1.242.156 1.213.254 1.18.348 1.142.438 1.1.525 1.051.605 1.002.68.946.755.887.823.823.887.754.946.683 1.002.605 1.052.523 1.1.438 1.141.348 1.179.255 1.213.156 1.244.052h43.2l1.242-.052 1.213-.156 1.179-.255 1.143-.348 1.099-.438 1.052-.523 1.002-.605.946-.683.886-.754.824-.823.754-.887.683-.946.605-1.002.523-1.052.438-1.099.348-1.143.255-1.179.156-1.213.052-1.242v-43.2l-.052-1.244-.156-1.213-.255-1.179-.348-1.14-.438-1.1-.523-1.053-.605-1.002-.683-.946-.754-.886-.823-.824-.887-.754-.946-.681-1.002-.605-1.052-.525-1.099-.438-1.143-.348-1.179-.254-1.213-.156L64.8 5.76zm1.44 8.461h40.32l1.294.116 1.219.334 1.122.533 1.005.709.867.869.71 1.005.532 1.122.336 1.217.115 1.294v34.56l-.115 1.295-.336 1.218-.531 1.121-.71 1.007-.868.867-1.005.71-1.122.532-1.219.335-1.294.116H23.04l-1.295-.116-1.217-.335-1.122-.532-1.005-.71-.869-.868-.709-1.005-.533-1.122-.334-1.219-.117-1.294V21.42l.117-1.295.334-1.217.533-1.122.71-1.005.868-.868 1.005-.71 1.122-.532 1.217-.334zm-1.44 5.76v37.62h19.44v-10.26H30.96v-17.82h10.08v-9.539zm23.76 0v9.539h10.8v17.82h-10.8v9.54H64.8v-36.9z" transform="translate(-6.4 -5.12)scale(.8889)"/></svg>