<svg xmlns="http://www.w3.org/2000/svg" fill="none" viewBox="0 0 64 64"><defs><linearGradient id="a" x1="30.19" x2="30.19" y1="53.75" y2="10.25" gradientUnits="userSpaceOnUse"><stop offset="0" stop-color="#5570ff"/><stop offset="1" stop-color="#4dd3ff"/></linearGradient><linearGradient id="c" x1="32" x2="32" y1="61" y2="3" gradientUnits="userSpaceOnUse"><stop offset="0" stop-color="#5558ff"/><stop offset="1" stop-color="#00c0ff"/></linearGradient></defs><path stroke="url(#a)" stroke-width="6" d="M38.71 49.03c12.13-7.471 18.15-21.15 13.44-30.56-4.709-9.406-18.36-10.97-30.49-3.503-12.13 7.471-18.15 21.15-13.44 30.56 4.709 9.406 18.36 10.97 30.49 3.503z" transform="translate(-3.31 -3.31)scale(1.103)"/><path fill="url(#c)" fill-rule="evenodd" d="M30.19 3a9.06 9.06 0 0 1 9.062 9.062c0 5.005-4.057 9.062-9.062 9.062s-9.062-4.057-9.062-9.062A9.06 9.06 0 0 1 30.19 3M12.07 17.5c5.005 0 9.062 4.057 9.062 9.062s-4.057 9.062-9.062 9.062-9.062-4.057-9.062-9.062S7.065 17.5 12.07 17.5m12.69 34.44c0-5.005-4.057-9.062-9.062-9.062s-9.062 4.057-9.062 9.062 4.057 9.062 9.062 9.062 9.062-4.057 9.062-9.062m16.31-12.69c5.005 0 9.062 4.057 9.062 9.062s-4.057 9.062-9.062 9.062-9.062-4.057-9.062-9.062 4.057-9.062 9.062-9.062m19.94-12.69c0-5.005-4.057-9.062-9.062-9.062s-9.062 4.057-9.062 9.062 4.057 9.062 9.062 9.062 9.062-4.057 9.062-9.062" clip-rule="evenodd" transform="translate(-3.31 -3.31)scale(1.103)"/></svg>