<svg xmlns="http://www.w3.org/2000/svg" viewBox="0 0 64 64"><defs><linearGradient id="a" x1="1" x2="0" y1="1"><stop offset="0" stop-color="#9204ff"/><stop offset="1" stop-color="#ff81ff"/></linearGradient></defs><path fill="url(#a)" d="M19.92 8.412c-.821 0-1.64.282-2.473.838-2.473 1.648-5.771-.826-6.596-.826-.824 0-5.77 6.006-5.77 8.244 0 1.648 6.182 5.44 6.182 6.594 0 .825-1.236 1.22-1.236 2.97 0 1.153 1.648 3.214 3.297 3.214s5.776-3.235 5.772-4.037v-.496c0-.99-3.711-2.237-3.711-4.123 0-1.648 1.236-2.258 1.236-4.121 0-1.603-3.296-2.061-5.77-2.473-.824 0 2.474-2.713 7.008.218 1.147.742-1.238 3.675-.826 6.375.619.577 1.754.866 2.887.866s2.267-.289 2.885-.866c.412-2.7-1.972-5.633-.824-6.375 4.533-2.932 7.83-.22 7.006-.22-2.473.413-5.77.871-5.77 2.475 0 1.863 1.236 2.473 1.236 4.12 0 1.887-3.71 3.135-3.71 4.124v.496c-.002.802 4.123 4.037 5.77 4.037 1.65 0 3.3-2.061 3.3-3.213 0-1.748-1.238-2.146-1.238-2.971 0-1.154 6.184-4.946 6.184-6.594 0-2.238-4.946-8.244-5.77-8.244-.825 0-4.123 2.474-6.596.826-.835-.556-1.65-.838-2.473-.838zm0 19.63c-1.649 0-5.359 2.557-5.359 3.051s3.71 4.533 5.359 4.533c1.648 0 5.357-4.039 5.357-4.533s-3.709-3.049-5.357-3.049z" transform="translate(-10.958 -15.485)scale(2.15657)"/></svg>