<svg xmlns="http://www.w3.org/2000/svg" viewBox="0 0 64 64"><path fill="#61d3e0" d="m8.137 23.507 47.711 10.13v7.121l-1.907 2.412s-13.338-1.906-13.62-1.906l-2.238 5.72H10.435L7.902 43.17z"/><path fill="#fff" d="m8.137 23.507-.231 19.667.016.024.215-18.319 47.711 10.128v-1.362L8.138 23.517z" opacity=".2"/><path d="m9.254 10.214-3.793 3.815v30.509l3.793 3.815h24.802v-4.086H9.54V14.303h45.11v3.54h.784l3.145 3.026v-6.837l-3.793-3.815zm30.032 9.534-3.86 3.935v27.54l3.86 3.934h15.432l3.86-3.935v-27.54l-3.86-3.934zm.226 4.086h14.982V41.54H39.512zm0 21.792h14.982v5.448H39.512zm5.448 1.362v2.724h4.086v-2.724zM.014 51.074l3.767 4.086h33.11l-2.983-3.24v-.846zm60.241 0v.846l-2.984 3.24h2.984l3.768-4.086z" opacity=".2"/><path fill="#fccf42" d="m9.254 8.852-3.793 3.815v30.509l3.793 3.815h24.802v-4.086H9.54V12.94h45.11v3.54h.784l3.145 3.026V12.67l-3.793-3.815H9.254zm30.032 9.534-3.86 3.935v27.54l3.86 3.934h15.432l3.86-3.935V22.32l-3.86-3.934zm.226 4.086h14.982v17.706H39.512zm0 21.792h14.982v5.448H39.512zm5.448 1.362v2.724h4.086v-2.724zM.014 49.712l3.767 4.086h33.11l-2.983-3.24v-.846H.02zm60.241 0v.846l-2.984 3.24h2.984l3.768-4.086z"/></svg>