<svg version="1.1" viewBox="0 0 64 64" xmlns="http://www.w3.org/2000/svg">
 <defs>
  <linearGradient id="a" y1="1">
   <stop stop-color="#39ff14" offset="0"/>
   <stop stop-color="#00ff81" offset="1"/>
  </linearGradient>
 </defs>
 <path transform="translate(0) scale(1) translate(0 -1e-6) scale(1) translate(.005741 .002655) scale(1) translate(-.002531 -.004573)" d="m44.28 0.005859a1.067 1.067 0 0 0-0.01563 0.007812c-1.58-0.001051-3.16-8.84e-4 -4.738 0.001953-2.714 0.003733-5.423 0.007983-8.131-0.005859a1.067 1.067 0 0 0-0.01953 0c-0.9623 0.01315-1.932 0.007286-2.908 0.001953-1.417-0.007465-2.847-0.0149-4.293 0.03516a1.067 1.067 0 0 0-0.01563 0c-3.742 0.1875-7.125 2.647-8.535 6.09a1.067 1.067 0 0 0-0.0039 0.01562c-0.9459 2.411-0.8486 4.876-0.7793 7.168 0.02074 0.6784 0.0091 1.317 0.0059 1.965-0.4957-0.0012-0.9895-4.99e-4 -1.488-0.0039-1.568-0.01013-3.152-0.02136-4.748 0.03516a1.067 1.067 0 0 0-0.02148 2e-3c-4.012 0.2197-7.317 3.71-7.342 7.725-0.02618 3.057-0.02096 6.116-0.01562 9.17 0.0032 1.526 0.00426 3.053 0.00391 4.58a1.067 1.067 0 0 0 0 0.0293c0.01406 0.5355 0.00391 1.099-0.00781 1.682-0.03946 2.007-0.1201 4.295 1.115 6.391a1.067 1.067 0 0 0 0.04102 0.06445c1.004 1.456 2.401 2.592 4.002 3.305a1.067 1.067 0 0 0 0.1973 0.06445c2.198 0.5 4.367 0.4447 6.441 0.4004 0.6344-0.01373 1.245-0.0067 1.861-0.0059 5.1e-4 0.6534 0.0044 1.304-0.0039 1.967-0.01813 1.506-0.03898 3.036 0.04687 4.59a1.067 1.067 0 0 0 0.0098 0.09375c0.148 1.029 0.4257 2.06 0.8906 3.037a1.067 1.067 0 0 0 0.02149 0.04297c1.082 2.038 2.8 3.725 4.916 4.713a1.067 1.067 0 0 0 0.08594 0.03516c0.8403 0.307 1.768 0.6256 2.81 0.7109a1.067 1.067 0 0 0 0.04102-0.03516 1.067 1.067 0 0 0 0.02344 0.02539c6.097 0.09672 12.19 0.08772 18.27 0.07813 3.574-0.0059 7.149-0.01208 10.72 0.0039 3.54 0.07685 6.838-1.904 8.652-4.854a1.067 1.067 0 0 0 2e-3 -0.0039c1.174-1.918 1.444-4.122 1.394-6.16-0.01792-2.876-0.01128-5.754-0.0039-8.639v-2e-3c0.0112-4.409 0.02363-8.827-0.05664-13.25a1.067 1.067 0 0 0-0.0039-0.0098c0.08317-3.578 0.07079-7.147 0.05859-10.71-0.0096-2.477-0.01823-4.95 0.0059-7.416a1.067 1.067 0 0 0 0-0.02149c-0.0043-0.3445-0.0021-0.699 0-1.06a1.067 1.067 0 0 0 0-2e-3c0.0097-1.869 0.04734-3.956-0.8928-5.951-0.9747-2.29-2.859-3.941-4.9-5.037a1.067 1.067 0 0 0-0.1582-0.06836c-1.246-0.4282-2.613-0.8172-4.096-0.7969-1.273-0.00629-2.544-0.001759-3.812 0.001953-1.546 0.0048-3.088 0.009355-4.627-0.003906zm6.688 6.297c1.112-0.00299 2.165 0.04295 3.16 0.2285 0.6855 0.4248 1.3 0.9496 1.822 1.564 0.4591 1.181 0.4849 2.55 0.4629 4.066-0.0059 0.4145-0.01243 0.8386-0.0059 1.272l-2e-3 -0.02149c-0.02347 5.593-0.01475 11.18-0.0078 16.77 0.0095 8.174 0.01948 16.35-0.06445 24.51-0.2426 1.445-1.58 2.765-3.025 2.906-0.8023 0.07059-1.64 0.06195-2.514 0.05078a1.067 1.067 0 0 0-2e-3 0c-0.5022-0.0059-1.016-0.01246-1.543-2e-3a1.067 1.067 0 0 0-2e-3 2e-3c-0.0052-1.6e-5 -0.01042 2.1e-5 -0.01563 0a1.067 1.067 0 0 0-0.0059-2e-3c-0.0083 3.63e-4 -0.01519 0.0014-0.02344 2e-3 -4.918-0.01675-9.832-0.0088-14.75-2e-3a1.067 1.067 0 0 0-2e-3 0c-2.108 0.0037-4.216 0.0048-6.324 0.0059-0.393-0.0032-0.7798 0.0016-1.16 0.0059-1.216 0.01387-2.35 0.0021-3.406-0.2031-1.194-0.5647-2.156-1.591-2.293-2.785-0.1055-1.225-0.09211-2.488-0.07617-3.789 0.0086-0.7136 0.01496-1.44 2e-3 -2.176 0.4051 0.0022 0.807 0.0024 1.215 0.0059 1.646 0.0144 3.313 0.03008 4.994-0.04687a1.067 1.067 0 0 0 0.01563-2e-3c2.598-0.1607 4.737-1.76 6.131-3.684a1.067 1.067 0 0 0 0.09375-0.1523c0.6514-1.315 1.05-2.782 1.041-4.305 8e-3 -2.268 0.0052-4.536 2e-3 -6.805-0.0027-1.814-0.0057-3.626-2e-3 -5.436a1.067 1.067 0 0 0-0.01758-0.02539 1.067 1.067 0 0 0 0.01758-0.01758c-0.02601-0.6789-0.0098-1.405 0.0078-2.156 0.05973-2.557 0.1672-5.533-1.82-7.949a1.067 1.067 0 0 0-0.04687-0.05469c-1.137-1.204-2.611-2.269-4.406-2.619a1.067 1.067 0 0 0-0.05859-0.0059 1.067 1.067 0 0 0-0.0039-0.0039c-0.03022-0.0041-0.05769-1.9e-5 -0.08789-0.0039a1.067 1.067 0 0 0-0.07031-0.0059c-0.01387 2.21e-4 -0.02716 0.0017-0.04102 2e-3 -1.695-0.2074-3.361-0.1989-4.973-0.1758-0.6725 0.0095-1.322-0.0019-1.977-0.0078-0.0031-0.5884 0.0059-1.183-0.01367-1.754-0.06347-1.838-0.09303-3.56 0.3398-5.119 0.5267-0.9034 1.253-1.634 2.107-1.865 1.005-0.252 2.126-0.2441 3.344-0.2207a1.067 1.067 0 0 0 0.0039 0c0.4657 0.00837 0.9434 0.01716 1.434 0.00781 2.094 0.0064 4.187 0.00551 6.281 0.00391 2.302-0.00107 4.601-0.00177 6.9 0.00781a1.067 1.067 0 0 0 0.0078-0.00586c1.334-0.00389 2.668-0.0062 4.002-0.00586a1.067 1.067 0 0 0 2e-3 0c1.782-0.00107 3.564-0.00103 5.35-0.01172zm-40.72 15.32c0.5159-0.01081 1.046-0.0037 1.59 0.0059h0.0078c0.5566 0.01377 1.113 0.01641 1.67 0.0078 1.412 0.0018 2.827 0.0023 4.24 2e-3 1.412-3.55e-4 2.824 4.59e-4 4.238 2e-3a1.067 1.067 0 0 0 2e-3 -0.0039c0.6067 0.0085 1.203 0.0012 1.791-0.0078 1.094-0.01653 2.151-0.03006 3.17 0.05859a1.067 1.067 0 0 0 0.03711 2e-3c0.3635 0.01914 0.7706 0.3393 1.207 0.8301 0.01768 0.05129 0.02918 0.08701 0.04687 0.1387a1.067 1.067 0 0 0 2e-3 0.0059l0.0078 0.02344c0.05552 4.163 0.04997 8.331 0.04102 12.51a1.067 1.067 0 0 0 0 2e-3v0.0039c-5e-3 1.782-0.0082 3.566-0.0078 5.35a1.067 1.067 0 0 0 0.0039 0.08984c0.07157 0.8405-0.6604 1.697-1.49 1.699a1.067 1.067 0 0 0-0.0039 0c-3.564 0.02396-7.133 0.02166-10.7 0.01953-2.288-0.0016-4.579-0.0031-6.869 2e-3 -0.6935-0.06848-1.29-0.4704-1.504-1.016-0.1353-3.87-0.1205-7.758-0.09961-11.66 0.01225-2.271 0.02112-4.55 0.00195-6.83 0.3295-0.6282 0.6932-1.068 1.102-1.121a1.067 1.067 0 0 0 0.00781 0c0.4873-0.06718 0.9914-0.09656 1.51-0.1074z" fill="url(#a)"/>
 <path transform="translate(0) scale(1) translate(0 -1e-6) scale(1) translate(.005741 .002655) scale(1)" d="m14.01 23.28c-0.4922-0.01477-0.9514 0.05234-1.342 0.09766a1.067 1.067 0 0 0-2e-3 0c-0.304 0.03554-0.577 0.06456-0.7988 0.07031a1.067 1.067 0 0 0-0.9746 1.434c0.5025 1.372 1.145 2.637 1.766 3.867a1.067 1.067 0 0 0 0 2e-3c0.5348 1.059 1.028 2.089 1.445 3.131-0.4143 1.084-0.9281 2.153-1.492 3.258-0.6465 1.266-1.318 2.578-1.814 4.018a1.067 1.067 0 0 0 0.9648 1.412c0.2272 0.0093 0.4752 0.03037 0.7383 0.05273 0.8094 0.06941 1.794 0.1793 2.838-0.1816a1.067 1.067 0 0 0 0.5566-0.4453c0.7647-1.231 1.366-2.508 1.951-3.748a1.067 1.067 0 0 0 0-2e-3c0.01576-0.03344 0.03308-0.06427 0.04883-0.09766 0.06203 0.1307 0.1271 0.2488 0.1894 0.3809 0.5531 1.171 1.124 2.389 1.889 3.551a1.067 1.067 0 0 0 0.6661 0.457c1.063 0.2295 2.054 0.1395 2.93 0.07227 0.1726-0.01325 0.3445-0.02365 0.5156-0.03516a1.067 1.067 0 0 0 0.9297-1.436c-0.5728-1.548-1.304-2.982-2.014-4.381v-2e-3c-0.4989-0.9837-0.9688-1.95-1.394-2.922 0.3756-0.9113 0.8075-1.816 1.281-2.748 0.6815-1.341 1.397-2.734 1.887-4.285a1.067 1.067 0 0 0-0.9375-1.383l-0.3906-0.03125 2e-3 2e-3c-0.8802-0.06778-1.869-0.156-2.922 0.03906a1.067 1.067 0 0 0-0.6758 0.4356c-0.8308 1.18-1.389 2.445-1.924 3.643-0.0347 0.07766-0.07289 0.1436-0.1074 0.2207-0.04508-0.09886-0.09341-0.1875-0.1387-0.2871-0.5067-1.115-1.03-2.273-1.728-3.389a1.067 1.067 0 0 0-0.3965-0.373c-0.5262-0.2845-1.052-0.3817-1.545-0.3965z" fill="url(#a)"/>
 <path transform="translate(0) scale(1) translate(0 -1e-6) scale(1) translate(.005741 .002655) scale(1) translate(-.002531 -.004573)" d="m50.51 37.96c-0.8052-1e-3 -1.613 0.06123-2.408 0.1973a1.067 1.067 0 0 0-0.1465 0.03516c-2.822 0.9066-2.697 5.323 0.1836 6.045a1.067 1.067 0 0 0 0.1309 0.02539c1.475 0.179 2.976 0.1692 4.439 0.0078a1.067 1.067 0 0 0 0.1309-0.02344c2.895-0.6898 3.047-5.086 0.2598-6.051-0.0061-0.0021-0.01144-0.0057-0.01758-0.0078a1.067 1.067 0 0 0-2e-3 0 1.067 1.067 0 0 0-0.1816-0.04492c-0.7814-0.118-1.583-0.1826-2.389-0.1836z" fill="url(#a)"/>
 <path transform="translate(0) scale(1) translate(0 -1e-6) scale(1) translate(.005741 .002655) scale(1) translate(-.002531 -.004573)" d="m39.99 37.96c-0.687 0.02071-1.399 0.1123-2.113 0.3574a1.067 1.067 0 0 0-0.1211 0.05078c-0.01598 0.0078-0.03308 0.01542-0.04883 0.02344-2.462 1.254-2.046 5.234 0.6816 5.861a1.067 1.067 0 0 0 0.1543 0.02539l0.07227 0.0059c1.443 0.1163 3.068 0.2656 4.707-0.1328a1.067 1.067 0 0 0 0.1445-0.04687c2.759-1.106 2.306-5.536-0.6406-6.016a1.067 1.067 0 0 0-0.1172-0.01367c-0.2459-0.01241-0.4945-0.025-0.7461-0.04297a1.067 1.067 0 0 0-0.06641-0.0039h-0.01172c-0.5966-0.03967-1.233-0.08832-1.895-0.06836z" fill="url(#a)"/>
 <path transform="translate(0) scale(1) translate(0 -1e-6) scale(1) translate(.005741 .002655) scale(1) translate(-.002531 -.004573)" d="m50.32 28.63c-0.8052-1e-3 -1.613 0.06121-2.408 0.1973a1.067 1.067 0 0 0-0.1484 0.03516c-2.822 0.9059-2.694 5.322 0.1855 6.045a1.067 1.067 0 0 0 0.1309 0.02539c1.475 0.179 2.976 0.1692 4.439 0.0078a1.067 1.067 0 0 0 0.1309-0.02344c2.882-0.6869 3.047-5.049 0.2969-6.039-0.01871-0.0067-0.03766-0.01311-0.05664-0.01953a1.067 1.067 0 0 0-0.1816-0.04492c-0.7814-0.118-1.584-0.1826-2.389-0.1836z" fill="url(#a)"/>
 <path transform="translate(0) scale(1) translate(0 -1e-6) scale(1) translate(.005741 .002655) scale(1) translate(-.002531 -.004573)" d="m39.8 28.62c-0.687 0.02071-1.399 0.1123-2.113 0.3574a1.067 1.067 0 0 0-0.1211 0.05078c-2.515 1.227-2.112 5.254 0.6328 5.885a1.067 1.067 0 0 0 0.1465 0.02344l0.07617 0.0059a1.067 1.067 0 0 0 0.0039 2e-3c1.443 0.1157 3.069 0.2656 4.707-0.1328a1.067 1.067 0 0 0 0.1426-0.04687c2.759-1.106 2.308-5.536-0.6387-6.016a1.067 1.067 0 0 0-0.1172-0.01367c-0.247-0.01242-0.4958-0.02696-0.748-0.04492a1.067 1.067 0 0 0-0.0078 0c-0.6156-0.04062-1.276-0.09102-1.963-0.07031z" fill="url(#a)"/>
 <path transform="translate(0) scale(1) translate(0 -1e-6) scale(1) translate(.005741 .002655) scale(1) translate(-.002531 -.004573)" d="m50.31 19.16c-0.799 4.33e-4 -1.6 0.07527-2.383 0.2305a1.067 1.067 0 0 0-0.09375 0.02344c-2.652 0.7839-2.903 4.7-0.4121 5.859a1.067 1.067 0 0 0 0.1406 0.05469c1.722 0.5211 3.52 0.4247 5.137 0.123a1.067 1.067 0 0 0 0.08984-0.01953c2.867-0.7928 2.842-5.238-0.01367-6.033a1.067 1.067 0 0 0-0.0918-0.01953c-0.7775-0.1436-1.574-0.2192-2.373-0.2188z" fill="url(#a)"/>
 <path transform="translate(0) scale(1) translate(0 -1e-6) scale(1) translate(.005741 .002655) scale(1) translate(-.002531 -.004573)" d="m40.54 19.16c-0.8003 4.41e-4 -1.596 0.07541-2.369 0.2168a1.067 1.067 0 0 0-0.08594 0.01953c-2.875 0.7776-2.901 5.254-0.01953 6.035a1.067 1.067 0 0 0 0.08398 0.01953c1.614 0.3011 3.419 0.4079 5.146-0.1328a1.067 1.067 0 0 0 0.1367-0.05469c2.472-1.166 2.219-5.036-0.4023-5.842a1.067 1.067 0 0 0-0.3008-0.04492c-0.0038-6.92e-4 -0.0079-0.0013-0.01172-2e-3 -0.7191-0.1334-1.449-0.2152-2.178-0.2148z" fill="url(#a)"/>
</svg>
