<svg xmlns="http://www.w3.org/2000/svg" viewBox="0 0 64 64"><defs><linearGradient id="a" y1="1"><stop offset="0" stop-color="#fea51d"/><stop offset="1" stop-color="#ff0a76"/></linearGradient></defs><path fill="url(#a)" d="M27.12 1.01c-2.288-.078-4.495 1.404-5.1 3.457-.777 2.515-1.458 5.055-2.191 7.582-.404.235-.81.472-1.209.707-2.564-.64-5.099-1.372-7.676-1.967-2.11-.47-4.479.444-5.576 2.191a590 590 0 0 0-4.705 7.59c-1.151 1.858-.77 4.379.897 5.861a683 683 0 0 0 5.785 5.361q.046.658.101 1.314c-1.822 1.759-3.759 3.411-5.594 5.158-1.622 1.516-1.95 4.034-.76 5.863 1.635 2.627 3.226 5.281 4.914 7.879.658 1.173 2.258 1.868 3.582 1.199 4.558-2.309 8.973-4.869 13.55-7.141 1.573.132 3.056.736 4.63.897 4.317.648 9.073-.028 12.48-2.728 4.246-3.304 6.104-8.523 6.593-13.5.05-1.136.267-2.432-.515-3.406-.778-.996-2.395-1.184-3.461-.483-3.052 1.701-6.052 3.481-9.113 5.166-.844-1.206-1.63-2.44-2.305-3.736 3.048-1.474 6.149-2.854 9.2-4.32 1.68-.69 1.862-3.105.311-4.014-4.18-2.784-9.437-4.906-14.66-3.832-5.052 1.008-8.76 4.88-11 9.01-.537 1.103-1.48 2.302-.947 3.56.462 1.256 2.177 1.868 3.447 1.281.964-.367 1.298-1.346 1.728-2.139 1.271-2.494 3.035-4.93 5.674-6.322 2.652-1.42 6.051-1.16 8.682.174-2.301 1.44-4.926 2.333-7.33 3.609-1.262.611-1.623 2.25-.832 3.328 1.59 2.589 3.208 5.167 4.82 7.744.582 1.11 2.126 1.666 3.334 1.106 2.435-1.21 4.637-2.786 7.125-3.896-.426 3.849-3.349 7.838-7.623 8.668-3.168.669-6.406-.102-9.414-1.035-.866-.36-1.817-.134-2.586.312-4.025 2.14-8.034 4.31-12.07 6.432-1.297-2.11-2.636-4.2-3.896-6.332 2.15-1.887 4.177-3.898 6.398-5.719 1.115-.863.654-2.329.69-3.498-.107-1.049.257-2.317-.596-3.168-2.426-1.953-4.603-4.154-6.887-6.252 1.626-2.474 2.998-5.122 4.772-7.496 2.74.475 5.416 1.297 8.082 2.057 2.097.847 3.675-1.166 5.447-1.859 1.453-.59 1.355-2.212 1.697-3.414.622-2.18 1.24-4.37 1.893-6.547 3.14-.008 6.283 0 9.424-.004.79 2.76 1.594 5.522 2.228 8.318.386 1.132 1.759 1.433 2.732 1.982 1.133.48 2.24 1.57 3.582 1.09 2.946-.958 6.003-1.574 9.002-2.367 1.586 2.54 3.185 5.08 4.727 7.644-2.142 1.887-4.158 3.894-6.375 5.703-1.142.868-.676 2.344-.711 3.522.098 1.05-.258 2.303.586 3.158 2.435 1.95 4.602 4.16 6.894 6.25-1.577 2.548-3.144 5.095-4.734 7.635-2.99-.805-6.003-1.525-8.967-2.4-1.795-.012-3.074 1.466-4.646 2.102-1.404.595-1.302 2.184-1.644 3.361a679 679 0 0 1-1.89 6.564c-3.14.021-6.286.017-9.427.004-.311-1.06-.538-2.4-1.777-2.875-1.435-.669-3.366.254-3.56 1.744-.107 2.627 1.738 5.537 4.768 5.785 3.257.132 6.52.034 9.777.055 2.319.062 4.545-1.45 5.123-3.545.764-2.503 1.435-5.024 2.182-7.53.4-.228.795-.452 1.195-.675 2.515.628 5.008 1.336 7.53 1.936 2.15.545 4.59-.38 5.72-2.164 1.55-2.432 3.044-4.9 4.568-7.35 1.213-1.8 1.03-4.328-.551-5.889-1.826-1.768-3.741-3.458-5.58-5.209-.622-.413-.43-1.143-.51-1.742a400 400 0 0 0 5.566-5.07c1.666-1.532 1.954-4.103.736-5.949a1117 1117 0 0 0-4.539-7.322c-1.124-1.887-3.692-2.859-5.918-2.252-2.67.62-5.306 1.347-7.977 1.971l-1.217-.582c-.724-2.395-1.288-4.832-2.039-7.223-.59-1.896-2.578-3.316-4.7-3.357-3.12-.05-6.243-.021-9.362-.017z"/></svg>