<svg xmlns="http://www.w3.org/2000/svg" viewBox="0 0 64 64"><defs><linearGradient id="a" x1="1" x2="0" y2="1"><stop offset="0" stop-color="#0061ff"/><stop offset="1" stop-color="#60efff"/></linearGradient></defs><g fill="url(#a)" stroke-width="2.462" transform="scale(.9999)"><path d="M7.384 3.694A7.37 7.37 0 0 0 0 11.078v32a7.37 7.37 0 0 0 7.384 7.384h49.23a7.37 7.37 0 0 0 7.384-7.384v-32a7.37 7.37 0 0 0-7.384-7.384zm0 4.923h49.23a2.457 2.457 0 0 1 2.462 2.462v32a2.457 2.457 0 0 1-2.462 2.462H7.384a2.457 2.457 0 0 1-2.462-2.462v-32a2.457 2.457 0 0 1 2.462-2.462"/><path d="M22.15 55.38h19.69c1.364 0 2.462 1.098 2.462 2.462s-1.098 2.462-2.462 2.462H22.15c-1.364 0-2.462-1.098-2.462-2.462s1.098-2.462 2.462-2.462"/><path d="M44.31 13.54c-1.364 0-2.462 1.098-2.462 2.462s1.098 2.462 2.462 2.462h4.923v4.923c0 1.364 1.098 2.462 2.462 2.462s2.462-1.098 2.462-2.462v-7.384a2.457 2.457 0 0 0-2.462-2.462zm-32 14.77a2.457 2.457 0 0 0-2.462 2.462v7.384a2.457 2.457 0 0 0 2.462 2.462h7.384c1.364 0 2.462-1.098 2.462-2.462s-1.098-2.462-2.462-2.462h-4.923v-4.923a2.457 2.457 0 0 0-2.462-2.462z"/></g></svg>