<svg xmlns="http://www.w3.org/2000/svg" style="isolation:isolate" viewBox="0 0 64 64"><linearGradient id="a" x2="1" y1=".5" y2=".5" gradientTransform="matrix(43.53 0 0 40.18 2.22 3.753)" gradientUnits="userSpaceOnUse" transform="translate(-3.264 -3.054)scale(1.47)"><stop offset="0" stop-color="#ffe031"/><stop offset=".987" stop-color="#fc5252"/></linearGradient><path fill="url(#a)" fill-rule="evenodd" d="M5.72 26.25V13.03c0-1.656 1.325-3.227 2.957-3.508l10.26-1.762c.949-.166 1.588-1.073 1.425-2.025s-1.07-1.591-2.025-1.425L7.147 6.233c-2.72.468-4.928 3.087-4.928 5.847v23.86c0 2.76 2.206 5.393 4.923 5.877l10.52 1.873c.955.171 1.867-.463 2.035-1.415s-.466-1.864-1.415-2.035l-9.606-1.706c-1.63-.289-2.954-1.868-2.954-3.524v-8.76zm20 .78a1.75 1.75 0 0 1-3.5-.06l.309-19.02c.045-2.759 2.286-4.604 5.003-4.118l13.3 2.378c2.717.486 4.922 3.121 4.922 5.881v6.91a1.75 1.75 0 0 1-3.5 0v-5.98c0-1.656-1.323-3.237-2.953-3.529L29.011 7.65c-1.63-.292-2.975.815-3.003 2.471l-.28 16.91zM42.25 30a1.75 1.75 0 0 1 3.5 0v4.5a7.73 7.73 0 0 1-1.85 4.89 7.67 7.67 0 0 1-4.5 2.66c-.01 0-.02.01-.02.01l-10.15 1.77c-.38.07-.75.1-1.13.1-1.57.02-3.08-.6-4.18-1.71a6 6 0 0 1-1.67-4.27V35a1.75 1.75 0 0 1 3.5 0v3c-.01.66.23 1.29.68 1.78.44.42 1.03.66 1.64.65.19 0 .37-.02.55-.05l10.14-1.77c.97-.18 1.84-.71 2.46-1.48.65-.74 1.01-1.69 1.03-2.67zM36 37h-2v-4.37L38.83 27H34v-5h-7.03L34 14.6V10h2v5.4L31.63 20H36v5h7.17L36 33.37z" transform="translate(-3.264 -3.054)scale(1.47)"/></svg>