<svg xmlns="http://www.w3.org/2000/svg" viewBox="0 0 64 64"><defs><linearGradient id="a" x1="1" x2="0" y2="1"><stop offset="0" stop-color="#b380ff"/><stop offset=".5" stop-color="#fca"/><stop offset="1" stop-color="#06b9ff"/></linearGradient></defs><path fill="url(#a)" d="M12.8 3.783c-3.398 0-6.653 1.308-9.041 3.633C1.356 9.728.003 12.877.003 16.166v31.64c0 3.289 1.353 6.438 3.756 8.75 2.388 2.325 5.642 3.633 9.041 3.633h38.39c3.398 0 6.653-1.308 9.041-3.633 2.403-2.312 3.754-5.461 3.754-8.75v-5.918a4.197 4.197 0 0 0-4.195-4.195H36.77c-1.569 0-2.844 1.234-2.844 2.752 0 1.519 1.274 2.75 2.844 2.75H58.3v4.611c0 1.831-.755 3.576-2.076 4.869a7.29 7.29 0 0 1-5.033 2.01h-38.39a7.28 7.28 0 0 1-5.033-2.01c-1.321-1.293-2.076-3.039-2.076-4.869v-31.64c0-1.831.755-3.578 2.076-4.871a7.28 7.28 0 0 1 5.033-2.008h38.39c1.891 0 3.696.728 5.033 2.008 1.321 1.293 2.076 3.04 2.076 4.871v5.973c0 1.519 1.274 2.752 2.844 2.752s2.842-1.232 2.842-2.752v-5.973c0-3.289-1.351-6.438-3.754-8.75-2.388-2.325-5.642-3.633-9.041-3.633z" transform="translate(-.003 .006)"/><path fill="url(#a)" d="M16.44 18.91a2.76 2.76 0 0 0-2.098 1.057 2.76 2.76 0 0 0 .475 3.873l8.228 6.426-8.228 6.426c-1.2.942-1.412 2.677-.475 3.873s2.666 1.408 3.859.475l10.54-8.232c1.796-1.402 1.796-3.68 0-5.084l-10.54-8.23a2.73 2.73 0 0 0-1.762-.582z" transform="translate(-.003 .006)"/></svg>