<svg xmlns="http://www.w3.org/2000/svg" viewBox="0 0 64 64"><path fill="#ff0" d="M27.998 0a2 2 0 0 0-1.789 1.105L14.21 25.11a2 2 0 0 0 1.789 2.893h8.766L18.21 41.111a2 2 0 0 0 1.789 2.892h9.046l-6.902 17.26a2 2 0 0 0 3.27 2.157l24.005-24.005a2 2 0 0 0-1.414-3.414h-7.998l9.597-12.799a2 2 0 0 0-1.6-3.202h-8.466L49.72 3.028A2 2 0 0 0 48.004 0zm1.24 3.998H44.47L34.286 20.97a2 2 0 0 0 1.716 3.032H44L34.4 36.8a2 2 0 0 0 1.602 3.202h7.17L29.477 53.697l4.38-10.952a2 2 0 0 0-1.858-2.741h-8.765l6.554-13.108a2 2 0 0 0-1.792-2.892h-8.762z"/></svg>