<svg xmlns="http://www.w3.org/2000/svg" viewBox="0 0 64 64"><defs><linearGradient id="a" y2="1"><stop offset="0" stop-color="#f9d423"/><stop offset=".516" stop-color="#ff4e50"/><stop offset=".991" stop-color="#8a2387"/></linearGradient></defs><path fill="url(#a)" d="m51.83 25.98-47.14.008a2.634 2.634 0 0 0-2.623 2.623v10.92c0 13.49 10.98 24.46 24.46 24.46 6.175 0 11.81-2.331 16.12-6.121.831-.414 5.504-2.804 10.08-6.611 4.623-3.845 9.19-9.138 9.19-15.38 0-5.454-4.45-9.904-9.902-9.904zM7.31 31.236h38.44v7.494h-.008v.803c0 10.6-8.613 19.22-19.22 19.22s-19.22-8.615-19.22-19.22zm43.68 0h1.018a4.656 4.656 0 0 1 4.658 4.662c0 3.945-3.278 7.851-6.955 10.98.748-2.332 1.279-4.759 1.279-7.34z" transform="translate(.004)"/><path fill="url(#a)" d="M32.89 0a2.9 2.9 0 0 0-2.205 1.08l.002.002-.002.002-.002.004-.002-.002a13 13 0 0 0-1.306 2.068c-.565 1.108-1.144 2.632-1.144 4.285h-.002c0 1.653.579 3.177 1.144 4.285a13 13 0 0 0 1.309 2.068l.822-.652-.334.27-.486.384.004.002.002.002c.136.17.447.62.72 1.178.285.577.464 1.14.464 1.562h1.078v.002h-1.078c0 .418-.174.971-.456 1.545a7.5 7.5 0 0 1-.738 1.209l-.002.002a2.894 2.894 0 0 0 .47 4.057h.003a2.89 2.89 0 0 0 4.05-.453h.003l.004-.006h-.002v-.002c.14-.177.74-.951 1.309-2.066.565-1.108 1.14-2.63 1.14-4.283v-.002c0-1.652-.575-3.177-1.14-4.285a12.8 12.8 0 0 0-1.31-2.066v-.004l-.001-.004h-.002l-.508.41-.227.178.735-.588a7 7 0 0 1-.725-1.18c-.284-.577-.463-1.138-.463-1.56 0-.418.174-.973.455-1.547a7.4 7.4 0 0 1 .74-1.209v-.002h.003A2.894 2.894 0 0 0 32.89 0zm-1.072 22.52h.002l-.334.42z" transform="translate(.004)"/><path fill="url(#a)" d="M21.97 0a2.89 2.89 0 0 0-2.203 1.08l.004.002-.004.006-.004-.002c-.137.173-.738.951-1.309 2.07-.565 1.108-1.142 2.63-1.143 4.283 0 1.653.575 3.179 1.141 4.287a13 13 0 0 0 1.31 2.066l.736-.584-.732.586v.002c.135.168.447.622.723 1.182.284.577.463 1.14.463 1.562 0 .418-.174.971-.456 1.545a7.5 7.5 0 0 1-.74 1.21 2.894 2.894 0 0 0 .471 4.058 2.89 2.89 0 0 0 4.053-.453l-.73-.586.68.54.052.042.002.002.004-.004-.002-.002c.141-.178.739-.953 1.307-2.066.565-1.108 1.142-2.63 1.143-4.283h.002c0-1.653-.58-3.18-1.144-4.287a13 13 0 0 0-1.307-2.066l.002-.002-.004-.006-.697.56-.137.11v-.002l.83-.668a7 7 0 0 1-.725-1.18c-.284-.577-.46-1.138-.46-1.56 0-.418.171-.971.453-1.545a7.5 7.5 0 0 1 .742-1.21v-.003A2.893 2.893 0 0 0 21.972 0z" transform="translate(.004)"/></svg>