<svg version="1.1" viewBox="0 0 64 64" xmlns="http://www.w3.org/2000/svg">
 <defs>
  <linearGradient id="b" x1="1" x2="0" y1="1">
   <stop stop-color="#f300ff" offset="0"/>
   <stop stop-color="#12dbb9" offset="1"/>
  </linearGradient>
  <linearGradient id="a" y1="1">
   <stop stop-color="#ff2aff" offset="0"/>
   <stop stop-color="#ffcb01" offset="1"/>
  </linearGradient>
 </defs>
 <path transform="translate(1e-5 -2e-6) scale(1) translate(0 .006) scale(.9996)" d="M51.22 0 12.81.002l-.482.018a6.403 6.403 0 0 0-5.922 6.385v51.21l.02.482a6.4 6.4 0 0 0 6.382 5.922h26.25a4 4 0 0 1-.762-1.053h-.337l-.35-2.1a13 13 0 0 1-.434-.178l-1.064.756a3.25 3.25 0 0 1-1.898.613c-.87 0-1.702-.35-2.312-.96l-1.818-1.818a3.25 3.25 0 0 1-.894-1.656h-16.38v-12.81h14.84a3.25 3.25 0 0 1 1.3-.526l1.237-.209q.096-.253.205-.502l-.764-1.072a3.28 3.28 0 0 1 .237-4.088h-17.06v-12.81h38.41v9.938c.61.133 1.173.44 1.619.887l1.82 1.822.294.293v.344c.695 1.102.84 2.483.061 3.576l-.746 1.045q.108.246.207.498l1.184.203h.002l.082.013c.745.125 1.4.502 1.879 1.033V6.398l-.02-.48a6.403 6.403 0 0 0-6.383-5.924zM12.81 6.402h38.41v12.81H12.81zm16 3.201-.375.025c-3.963.498-3.619 6.347.375 6.377h6.404l.375-.023c3.985-.481 3.639-6.368-.375-6.38zm0 19.21c-4.168.1-4.168 6.303 0 6.402h6.404c4.168-.1 4.168-6.303 0-6.402zm28.81 23.2c-.3.308-.663.565-1.059.768v.338l-.834.138-1.266.213a13 13 0 0 1-.207.5L55 55.02a3.28 3.28 0 0 1-.353 4.208l-1.824 1.826a3.274 3.274 0 0 1-4.216.35l-1.04-.744q-.246.108-.497.207l-.217 1.266v.002a3.27 3.27 0 0 1-1.037 1.885h5.4l.48-.02a6.403 6.403 0 0 0 5.924-6.383z" fill="url(#a)"/>
 <path transform="translate(1e-5 -2e-6) scale(1) translate(0 .006) scale(.9996)" d="M41 33.62a2.275 2.275 0 0 0-2.24 1.896l-.312 1.836q-.782.265-1.523.639l-1.476-1.062a2.26 2.26 0 0 0-1.322-.424c-.604 0-1.185.238-1.608.67l-1.827 1.822a2.28 2.28 0 0 0-.247 2.924l1.082 1.518a12 12 0 0 0-.623 1.53l-1.785.302a2.274 2.274 0 0 0-1.894 2.24v2.58c0 1.107.804 2.057 1.896 2.24l1.836.312q.267.78.641 1.52l-1.059 1.473-.002.002a2.27 2.27 0 0 0 .248 2.926l1.822 1.822a2.27 2.27 0 0 0 1.606.668c.473 0 .931-.148 1.314-.424l1.516-1.078q.713.35 1.463.602l.3 1.809h.003a2.27 2.27 0 0 0 2.238 1.896h2.586a2.276 2.276 0 0 0 2.24-1.896l.308-1.81a12 12 0 0 0 1.525-.632l1.49 1.066a2.27 2.27 0 0 0 2.926-.244l1.824-1.826c.78-.78.89-2.019.247-2.922l-1.066-1.498q.368-.742.63-1.525l1.81-.303v-.002a2.27 2.27 0 0 0 1.894-2.238v-2.572a2.25 2.25 0 0 0-1.88-2.246h-.003l-1.808-.308a12 12 0 0 0-.632-1.525l1.066-1.492c.641-.9.54-2.143-.246-2.924v-.002l-1.822-1.822a2.27 2.27 0 0 0-1.607-.668c-.472 0-.93.148-1.314.424l-1.498 1.066a12 12 0 0 0-1.597-.659l-.301-1.785a2.276 2.276 0 0 0-2.242-1.894zm.262 2.564h2.078l.388 2.307c.085.499.455.91.952 1.035a9.5 9.5 0 0 1 2.508 1.029c.433.255.982.235 1.396-.057l.002-.002 1.908-1.373 1.473 1.473-1.367 1.918a1.28 1.28 0 0 0-.059 1.4v.004a9.4 9.4 0 0 1 1.016 2.443c.124.496.533.868 1.033.946l2.322.392v1.871h-.006v.207l-2.326.387c-.5.085-.905.458-1.029.945a9.3 9.3 0 0 1-1.016 2.445l-.002.002c-.254.433-.233.983.059 1.396v.002l1.369 1.926-1.473 1.473-1.918-1.365a1.28 1.28 0 0 0-1.4-.06l-.002.002h-.002a9.4 9.4 0 0 1-2.443 1.016 1.27 1.27 0 0 0-.948 1.035l-.392 2.32h-2.076l-.389-2.326v-.002a1.28 1.28 0 0 0-.941-1.027h-.004a9.7 9.7 0 0 1-2.396-.983 1.3 1.3 0 0 0-.643-.172c-.255 0-.52.075-.75.245L34.25 58.41l-1.47-1.473 1.358-1.908.002-.002c.294-.418.313-.968.057-1.402l-.002-.004a9.2 9.2 0 0 1-1.027-2.438l-.002-.008a1.3 1.3 0 0 0-1.023-.938h-.002l-2.344-.398v-2.076l2.307-.387c.5-.085.91-.457 1.035-.953v-.002a9.4 9.4 0 0 1 .998-2.45 1.28 1.28 0 0 0-.067-1.395l-1.377-1.938 1.473-1.47 1.908 1.36v.002c.418.294.968.313 1.402.057l.002-.002h.002a9.3 9.3 0 0 1 2.44-1.027l.004-.002h.002c.48-.132.852-.528.938-1.025z" fill="url(#b)"/>
 <path transform="translate(1e-5 -2e-6) scale(1) translate(0 .006) scale(.9996)" d="m42.35 41.96c-3.74 0-6.785 3.046-6.785 6.785s3.045 6.787 6.785 6.787 6.787-3.047 6.787-6.787-3.048-6.785-6.787-6.785m0 2.57c2.33 0 4.215 1.885 4.215 4.215s-1.885 4.217-4.215 4.217-4.215-1.886-4.215-4.217a4.21 4.21 0 0 1 4.215-4.215" fill="url(#b)"/>
</svg>
