<svg version="1.1" viewBox="0 0 64 64" xmlns="http://www.w3.org/2000/svg">
 <defs>
  <linearGradient id="b" y1=".5" y2=".5">
   <stop stop-color="#fd3a84" offset="0"/>
   <stop stop-color="#ffa68d" offset="1"/>
  </linearGradient>
  <linearGradient id="a" y1=".5" y2=".5">
   <stop stop-color="#a93aff" offset="0"/>
   <stop stop-color="#ff81ff" offset="1"/>
  </linearGradient>
 </defs>
 <path transform="translate(0) scale(1) translate(0) scale(1) translate(0 5e-4) scale(1) translate(0 .001)" d="M57.1 49.92v.088c-1.11.101-2.188.433-3.104 1.082-.953.675-1.654 1.622-2.113 2.69h-19.36v4.967h19.36c.46 1.069 1.162 2.015 2.115 2.69a6.35 6.35 0 0 0 3.654 1.169 6.35 6.35 0 0 0 4.486-1.856 6.347 6.347 0 0 0 0-8.97 6.34 6.34 0 0 0-4.486-1.856z" fill="url(#a)"/>
 <path transform="translate(0) scale(1) translate(0) scale(1) translate(0 5e-4) scale(1) translate(0 .001)" d="M7.445 48.82A7.444 7.444 0 0 0 0 56.263a7.447 7.447 0 0 0 7.447 7.447v-1.648h.006v1.648a7.45 7.45 0 0 0 6.529-3.861h11.4a7.43 7.43 0 0 0 6.522 3.861c4.113 0 7.445-3.334 7.445-7.447s-3.332-7.443-7.445-7.443a7.43 7.43 0 0 0-6.522 3.859h-11.4a7.44 7.44 0 0 0-6.527-3.859z" fill="url(#b)"/>
 <path transform="translate(0) scale(1) translate(0) scale(1) translate(0 5e-4) scale(1)" d="m17.72 29.62a2.615 1.47 0 0 0-2.26 2.203l9.373 9.131 4.838 4.72a2.615 1.47 0 0 0 4.533 0l9.373-9.132 4.84-4.719a2.615 1.47 0 0 0-2.262-2.203h-18.74z" fill="#0f0"/>
 <path transform="translate(0) scale(1) translate(0) scale(1) translate(0 5e-4) scale(1)" d="M22.16.283v9.779h9.779V.282z" fill="#0f0" opacity=".8"/>
 <path transform="translate(0) scale(1) translate(0) scale(1) translate(0 5e-4) scale(1)" d="M31.94.283v9.779h9.779V.282z" fill="#0f0" opacity=".2"/>
 <path transform="translate(0) scale(1) translate(0) scale(1) translate(0 5e-4) scale(1)" d="m22.16 10.06v9.78h9.779v-9.78z" fill="#0f0" opacity=".4"/>
 <path transform="translate(0) scale(1) translate(0) scale(1) translate(0 5e-4) scale(1)" d="m31.94 10.06v9.78h9.779v-9.78z" fill="#0f0" opacity=".9"/>
 <path transform="translate(0) scale(1) translate(0) scale(1) translate(0 5e-4) scale(1)" d="m22.16 19.84v9.78h9.779v-9.78z" fill="#0f0"/>
 <path transform="translate(0) scale(1) translate(0) scale(1) translate(0 5e-4) scale(1)" d="m31.94 19.84v9.78h9.779v-9.78z" fill="#0f0" opacity=".6"/>
</svg>
