<svg version="1.1" viewBox="0 0 64 64" xmlns="http://www.w3.org/2000/svg">
 <defs>
  <linearGradient id="a" x1="1" x2="0" y1=".5" y2=".5">
   <stop stop-color="#07f" offset="0"/>
   <stop stop-color="#00f7ff" offset="1"/>
  </linearGradient>
 </defs>
 <path transform="translate(.00513) scale(1) translate(.00057) scale(1)" d="m32.44 13.73c-1.626 0-1.627 1.703-1.627 1.703v18.65c-1.564-0.5532-3.135-0.843-4.879-0.8457-6.288 0-11.39 3.641-11.39 8.133 0 4.491 5.099 8.131 11.39 8.131s11.38-3.64 11.38-8.131v-19.52s8.41 5.526 4.576 9.043c-1.053 0.6038-1.399 1.536-1.215 2.35 0.2813 1.234 1.783 2.192 3.869 1.305 3.135-1.634 4.154-4.564 4.154-7.004 0-7.32-9.758-13.82-16.26-13.82z" fill="url(#a)"/>
 <path transform="translate(.00513) scale(1) translate(.00057) scale(1)" d="m31.95 0c-3.359 0-6.705 0.5329-9.904 1.586-1.398 0.4559-2.161 1.961-1.705 3.359s1.961 2.163 3.359 1.707c2.666-0.8798 5.451-1.32 8.25-1.32 9.278 0 17.92 4.826 22.77 12.73 2.573 4.186 3.934 8.997 3.934 13.89 0 9.278-4.826 17.92-12.73 22.77-4.186 2.573-8.985 3.934-13.89 3.934-9.278 0-17.92-4.826-22.77-12.73-2.573-4.186-3.932-8.998-3.932-13.89 0-6.278 2.199-12.34 6.211-17.15 0.9491-1.133 0.8029-2.819-0.3262-3.76-1.129-0.9411-2.816-0.7911-3.766 0.334-4.812 5.772-7.451 13.06-7.451 20.58 0 5.892 1.64 11.66 4.719 16.68 5.812 9.491 16.18 15.28 27.31 15.28 5.892 0 11.66-1.64 16.68-4.719 9.491-5.812 15.28-16.18 15.28-27.31 0-5.878-1.64-11.66-4.719-16.68-5.812-9.491-16.18-15.28-27.31-15.28z" fill="url(#a)"/>
</svg>
