<svg version="1.1" viewBox="0 0 64 64" xmlns="http://www.w3.org/2000/svg">
 <defs>
  <linearGradient id="a" x2="0" y1="1">
   <stop stop-color="#879af2" offset="0"/>
   <stop stop-color="#d3208b" offset=".4792"/>
   <stop stop-color="#fda000" offset=".9792"/>
  </linearGradient>
 </defs>
 <path transform="translate(-1.7e-5 1e-5) scale(.9996) translate(-.04109 -.0191) scale(1.001) translate(-10.62 -10.64) scale(5.33)" d="m8 3a0.5 0.5 0 0 0-0.4297 0.2422l-2.531 4.219-0.5918-1.186a0.5 0.5 0 0 0-0.4473-0.2754h-1.5a0.5 0.5 0 1 0 0 1h1.191l0.8613 1.723a0.5 0.5 0 0 0 0.877 0.03516l2.854-4.758h4.717v0.5a0.5 0.5 0 1 0 1 0v-1a0.5 0.5 0 0 0-0.5-0.5zm3.492 1.992a0.5 0.5 0 0 0-0.4512 0.3027 2 2 0 0 0-1.041-0.2949 2 2 0 0 0-2 2 2 2 0 0 0 2 2 2 2 0 0 0 1.041-0.2949 0.5 0.5 0 0 0 0.959-0.2051v-3a0.5 0.5 0 0 0-0.5078-0.5078zm-1.492 1.008a1 1 0 0 1 1 1 1 1 0 0 1-1 1 1 1 0 0 1-1-1 1 1 0 0 1 1-1zm-6.5 4a0.5 0.5 0 1 0 0 1h9a0.5 0.5 0 1 0 0-1zm4 2a0.5 0.5 0 1 0 0 1h1a0.5 0.5 0 1 0 0-1z" fill="url(#a)"/>
</svg>
