<svg xmlns="http://www.w3.org/2000/svg" viewBox="0 0 64 64"><defs><linearGradient id="a" x1="47.5" x2=".5" y1="24" y2="24" gradientUnits="userSpaceOnUse"><stop offset="0" stop-color="#8effee"/><stop offset=".462" stop-color="#c9c7ff"/><stop offset="1" stop-color="#7341ff"/></linearGradient></defs><path fill="url(#a)" d="M22.63 47.49c-.13-.01-.287-.031-.35-.045s-.384-.038-.713-.052c-.485-.021-.609-.034-.66-.068-.046-.03-.148-.046-.376-.058-.233-.012-.347-.03-.444-.07a.8.8 0 0 0-.316-.053.74.74 0 0 1-.333-.062.7.7 0 0 0-.29-.061.5.5 0 0 1-.24-.052 1 1 0 0 0-.284-.072 1 1 0 0 1-.286-.072.5.5 0 0 0-.21-.052.5.5 0 0 1-.21-.051.9.9 0 0 0-.264-.07c-.105-.011-.187-.034-.217-.061-.026-.024-.113-.053-.194-.064s-.184-.045-.231-.073a.4.4 0 0 0-.16-.053.6.6 0 0 1-.198-.062.6.6 0 0 0-.182-.06.4.4 0 0 1-.146-.055.7.7 0 0 0-.21-.073c-.068-.01-.142-.036-.164-.056s-.096-.05-.163-.065a.8.8 0 0 1-.2-.075.3.3 0 0 0-.138-.048.4.4 0 0 1-.158-.062.4.4 0 0 0-.162-.061.3.3 0 0 1-.147-.063.3.3 0 0 0-.138-.062c-.029 0-.08-.02-.112-.046a.4.4 0 0 0-.121-.063 4 4 0 0 1-.446-.2 1 1 0 0 0-.189-.073.26.26 0 0 1-.119-.062.26.26 0 0 0-.123-.061.26.26 0 0 1-.126-.065.16.16 0 0 0-.099-.049.24.24 0 0 1-.118-.05.6.6 0 0 0-.146-.078.4.4 0 0 1-.12-.06.7.7 0 0 0-.123-.073 4 4 0 0 1-.21-.11 10 10 0 0 0-.334-.175 1 1 0 0 1-.242-.151c-.018-.025-.05-.045-.072-.045s-.115-.05-.209-.112a2 2 0 0 0-.236-.138.25.25 0 0 1-.1-.073c-.019-.027-.052-.049-.074-.049-.044 0-.278-.149-.327-.209-.018-.02-.044-.038-.058-.038-.033 0-.272-.16-.313-.21-.018-.02-.047-.038-.065-.038a.1.1 0 0 1-.065-.03c-.11-.105-.444-.34-.483-.34-.016-.001-.044-.02-.062-.045s-.055-.06-.084-.08a13 13 0 0 1-.653-.497 8 8 0 0 1-.386-.307 9 9 0 0 0-.393-.326 9 9 0 0 1-.432-.376 51 51 0 0 1-1.708-1.713c-.102-.114-.217-.24-.254-.28a.4.4 0 0 1-.068-.088c0-.015-.03-.05-.23-.28a13 13 0 0 1-.446-.549c-.03-.039-.078-.1-.108-.136a3 3 0 0 1-.287-.378 1 1 0 0 0-.11-.148c-.02-.01-.032-.025-.216-.297a3 3 0 0 0-.167-.225c-.024-.024-.044-.055-.044-.07s-.047-.088-.105-.164a3 3 0 0 1-.167-.248 2 2 0 0 0-.143-.205.4.4 0 0 1-.08-.127.4.4 0 0 0-.062-.126l-.124-.188a.4.4 0 0 1-.062-.12c0-.014-.022-.046-.05-.07a.34.34 0 0 1-.074-.14c-.014-.053-.037-.096-.05-.096s-.048-.047-.075-.105a4 4 0 0 0-.121-.229 4 4 0 0 1-.11-.205 1 1 0 0 0-.088-.146.23.23 0 0 1-.05-.1c0-.02-.028-.07-.062-.11a.26.26 0 0 1-.062-.13c0-.03-.028-.08-.062-.109a.17.17 0 0 1-.062-.124.17.17 0 0 0-.061-.123.18.18 0 0 1-.062-.119.27.27 0 0 0-.062-.138.26.26 0 0 1-.062-.129.3.3 0 0 0-.062-.139.3.3 0 0 1-.062-.137.24.24 0 0 0-.05-.117.4.4 0 0 1-.065-.146.3.3 0 0 0-.061-.134.4.4 0 0 1-.068-.168c-.012-.064-.04-.136-.062-.16s-.047-.083-.056-.13a.7.7 0 0 0-.074-.186.4.4 0 0 1-.059-.165.16.16 0 0 0-.033-.098.3.3 0 0 1-.09-.21.5.5 0 0 0-.062-.186.5.5 0 0 1-.062-.186c0-.038-.028-.113-.061-.168s-.061-.13-.062-.17a.4.4 0 0 0-.055-.16.7.7 0 0 1-.072-.233.45.45 0 0 0-.058-.19.4.4 0 0 1-.055-.178.6.6 0 0 0-.064-.215.8.8 0 0 1-.068-.255q-.019-.171-.065-.224c-.033-.036-.05-.105-.06-.245s-.027-.21-.06-.245c-.031-.035-.05-.11-.062-.249-.012-.135-.032-.214-.06-.246-.033-.035-.05-.117-.065-.312-.016-.193-.033-.277-.064-.312-.032-.035-.046-.113-.058-.325-.011-.199-.029-.302-.062-.364-.034-.065-.05-.168-.063-.409s-.03-.35-.067-.433c-.042-.095-.052-.184-.064-.594-.011-.384-.023-.506-.059-.594-.041-.104-.045-.228-.045-1.733 0-1.523.003-1.628.046-1.733.037-.09.05-.21.064-.62.014-.428.024-.517.062-.575.034-.052.049-.144.063-.408.015-.277.029-.359.071-.438.044-.082.053-.14.053-.347s.01-.266.052-.346a.9.9 0 0 0 .07-.297c.01-.11.039-.238.064-.286s.053-.176.063-.286a.7.7 0 0 1 .07-.285.4.4 0 0 0 .052-.224c0-.105.014-.156.054-.207s.058-.119.07-.26c.013-.143.031-.211.07-.261a.28.28 0 0 0 .054-.184.3.3 0 0 1 .062-.2.3.3 0 0 0 .062-.184.4.4 0 0 1 .062-.199.4.4 0 0 0 .061-.186c0-.048.027-.13.062-.185a.44.44 0 0 0 .061-.187c0-.054.025-.12.063-.172a.3.3 0 0 0 .062-.155c0-.075.034-.156.09-.212.018-.018.034-.068.034-.112 0-.043.028-.123.062-.177s.061-.122.061-.15.028-.09.062-.14a.35.35 0 0 0 .062-.151c0-.033.023-.09.052-.127a.5.5 0 0 0 .075-.168.5.5 0 0 1 .072-.162.23.23 0 0 0 .048-.119c0-.031.026-.088.057-.126a.6.6 0 0 0 .087-.173.34.34 0 0 1 .067-.133c.02-.017.037-.056.037-.087s.028-.09.062-.13.061-.097.061-.125.028-.083.062-.123.062-.097.062-.124c0-.028.028-.084.062-.124s.062-.09.062-.111.028-.071.062-.112c.034-.04.062-.083.062-.095s.027-.063.062-.113a.4.4 0 0 0 .061-.125c0-.018.022-.057.05-.086s.067-.098.089-.153c.022-.056.048-.1.058-.1s.037-.043.059-.094.085-.163.14-.25c.054-.086.1-.163.1-.172 0-.013.02-.046.162-.262l.072-.111c.014-.022.048-.074.077-.114s.06-.1.07-.13c.01-.031.027-.056.038-.056s.044-.04.072-.087.063-.1.078-.118a2 2 0 0 0 .154-.228 2 2 0 0 1 .087-.12c.03-.038.055-.081.055-.096s.034-.066.076-.115c.144-.17.206-.253.37-.486.034-.048.09-.12.123-.16a4 4 0 0 0 .116-.142c.173-.224.35-.438.496-.597.091-.1.209-.238.261-.31.243-.325 1.788-1.887 2.191-2.214.095-.077.515-.439.579-.498.023-.022.087-.073.143-.114.132-.097.395-.305.458-.362.11-.1.23-.195.247-.195s.085-.05.235-.172c.167-.135.257-.2.279-.2.021 0 .14-.09.242-.184a.3.3 0 0 1 .086-.055c.027-.011.132-.075.234-.141l.285-.185c.054-.035.13-.09.169-.12a.25.25 0 0 1 .116-.057c.025 0 .061-.022.08-.048a.25.25 0 0 1 .1-.074 2 2 0 0 0 .236-.137.9.9 0 0 1 .21-.112c.021 0 .053-.02.071-.045s.127-.093.243-.151.31-.16.433-.226.273-.146.334-.175c.061-.03.138-.074.17-.1a.23.23 0 0 1 .114-.046c.03 0 .074-.021.098-.048a.26.26 0 0 1 .121-.064c.043-.01.1-.037.128-.061a.5.5 0 0 1 .16-.074.6.6 0 0 0 .17-.077.2.2 0 0 1 .103-.047.4.4 0 0 0 .134-.062.36.36 0 0 1 .154-.062c.035 0 .097-.028.137-.062s.105-.062.143-.062a.25.25 0 0 0 .13-.048c.034-.027.108-.059.163-.072s.131-.046.168-.075a.3.3 0 0 1 .146-.052.3.3 0 0 0 .145-.051.5.5 0 0 1 .193-.071c.075-.012.142-.039.16-.064s.078-.048.149-.056a.5.5 0 0 0 .202-.071.34.34 0 0 1 .177-.058.3.3 0 0 0 .174-.062.3.3 0 0 1 .18-.062.5.5 0 0 0 .21-.062.5.5 0 0 1 .213-.062.4.4 0 0 0 .18-.051.6.6 0 0 1 .225-.066.7.7 0 0 0 .244-.072c.07-.04.14-.059.224-.059.077 0 .158-.019.22-.052a.9.9 0 0 1 .302-.07c.14-.012.219-.032.252-.061.034-.031.115-.05.28-.063a.9.9 0 0 0 .329-.073c.077-.041.141-.052.308-.052.166 0 .232-.01.306-.05s.169-.057.41-.073c.195-.013.35-.036.411-.062.075-.032.234-.048.667-.068l.755-.034c.102-.005.358-.02.57-.036.21-.014.508-.027.662-.026.25 0 .294.007.42.066.147.069.341.22.513.397.055.056.183.173.286.26.277.235.55.481.765.69.242.236.912.871 1.174 1.114.337.311.933.92 1.59 1.622.54.578.577.618.577.634 0 .021.13.186.254.321.199.218.313.357.404.493.05.075.112.158.137.185a.8.8 0 0 1 .197.361c.015.067.037.128.05.136.033.02.027.095-.015.175a.4.4 0 0 0-.037.13c0 .124-.266.453-.492.607-.138.095-.3.117-.733.099-.27-.012-.367-.026-.441-.063-.052-.026-.18-.059-.283-.073s-.229-.046-.277-.07a1 1 0 0 0-.273-.058 1.3 1.3 0 0 1-.317-.066.8.8 0 0 0-.249-.051c-.065 0-.201-.023-.302-.05a3.4 3.4 0 0 0-.59-.075 5 5 0 0 1-.558-.059c-.228-.051-2.516-.052-2.723 0-.081.02-.282.043-.445.05a3.4 3.4 0 0 0-.495.063 4 4 0 0 1-.483.07c-.157.013-.327.04-.378.062s-.161.045-.246.053a2 2 0 0 0-.303.06 2.5 2.5 0 0 1-.335.071 1.5 1.5 0 0 0-.272.06 1.6 1.6 0 0 1-.26.065.7.7 0 0 0-.21.062.5.5 0 0 1-.166.06c-.071.014-.171.05-.222.077a.4.4 0 0 1-.168.05.35.35 0 0 0-.15.046.8.8 0 0 1-.204.074c-.07.015-.17.05-.22.077a.4.4 0 0 1-.143.05.5.5 0 0 0-.15.048c-.246.12-.432.2-.467.2-.02 0-.078.027-.128.061s-.107.062-.126.062a.6.6 0 0 0-.151.06c-.064.032-.184.089-.265.126-.193.088-.43.209-.508.26-.114.073-.16.099-.247.14-.048.021-.103.05-.124.062-.02.012-.084.044-.141.072a.4.4 0 0 0-.12.074.4.4 0 0 1-.105.075c-.05.028-.136.077-.19.11l-.193.11a9 9 0 0 0-.649.438c-.04.033-.185.132-.32.22q-.344.224-.694.525c-.16.137-.358.31-.43.377-.076.07-.286.25-.436.377-.164.138-1.145 1.16-1.336 1.392a5 5 0 0 1-.137.16c-.02.022-.065.078-.098.126-.033.047-.072.1-.086.116l-.088.11a1 1 0 0 1-.117.128c-.03.028-.056.063-.056.079s-.025.05-.055.078a1 1 0 0 0-.093.098c-.169.213-.23.298-.411.571a4 4 0 0 0-.221.358c-.008.025-.025.046-.036.046s-.03.025-.04.056c-.009.03-.064.124-.123.207s-.129.195-.158.247c-.029.053-.08.14-.112.195a2 2 0 0 0-.145.285 2 2 0 0 1-.09.16 3 3 0 0 0-.1.187c-.016.034-.044.09-.063.123-.038.07-.05.094-.209.434-.064.136-.13.289-.146.34a.3.3 0 0 1-.053.106c-.012.008-.034.06-.05.118a.5.5 0 0 1-.06.141.5.5 0 0 0-.063.161 1 1 0 0 1-.076.201.3.3 0 0 0-.046.112.6.6 0 0 1-.06.145 1 1 0 0 0-.076.198.5.5 0 0 1-.053.142.7.7 0 0 0-.062.183c-.015.07-.048.174-.073.23s-.047.134-.048.175c0 .041-.024.125-.052.186a1.2 1.2 0 0 0-.075.26.8.8 0 0 1-.072.225.4.4 0 0 0-.048.159c0 .09-.038.244-.09.362a.7.7 0 0 0-.034.218.5.5 0 0 1-.051.24c-.037.072-.058.178-.072.364a1.2 1.2 0 0 1-.064.348c-.034.067-.047.186-.064.557-.01.26-.034.584-.051.72-.021.166-.031.614-.031 1.361 0 .933.007 1.16.043 1.397.024.156.043.373.043.483s.011.239.026.286q.04.136.096.656c.012.109.045.248.073.31a.65.65 0 0 1 .052.273c0 .114.015.19.051.26.028.054.057.159.064.234s.034.192.06.26.057.19.072.27.042.166.063.189.045.102.054.175a.8.8 0 0 0 .073.242.5.5 0 0 1 .058.17c0 .034.022.102.049.151.026.05.064.151.083.226.044.167.078.262.169.473.039.09.07.18.07.2s.022.066.048.099a.4.4 0 0 1 .064.152c.01.05.038.117.062.148a.6.6 0 0 1 .074.166c.016.06.05.137.076.17s.048.079.048.102c0 .024.02.07.047.103a.6.6 0 0 1 .075.163c.015.057.038.11.05.118.014.008.07.109.126.224.057.115.114.216.127.224a.4.4 0 0 1 .072.118c.027.056.076.147.11.201.033.055.083.144.112.198s.089.16.135.236c.046.074.103.172.127.216.023.044.051.08.062.08s.038.044.06.098.054.103.074.11.047.04.06.07c.014.032.053.096.087.144l.097.136c.313.442.646.884.734.973.036.037.124.139.196.227.071.089.159.19.194.226.036.035.126.141.2.235.206.259.98 1.023 1.386 1.368.089.075.168.146.176.159.008.012.021.018.028.013s.061.033.12.083a36 36 0 0 0 .827.665c.082.061.163.124.181.141.018.018.045.031.06.031s.09.049.166.108c.075.06.176.128.224.152a1.3 1.3 0 0 1 .185.124c.055.043.138.1.186.124s.14.087.207.14a.6.6 0 0 0 .145.095c.013 0 .059.025.102.056.086.061.194.124.288.167.076.035.17.081.235.116l.26.132.4.201c.103.052.199.095.213.095s.038.016.053.035.087.049.158.066a.6.6 0 0 1 .188.076.2.2 0 0 0 .099.046c.022 0 .084.028.139.061a.4.4 0 0 0 .162.062c.035 0 .1.027.143.06a.5.5 0 0 0 .181.075.4.4 0 0 1 .16.062c.032.025.1.054.151.063.052.01.127.037.168.062.04.024.13.052.197.062.068.01.155.034.193.053.038.02.132.048.21.062a.5.5 0 0 1 .186.066.5.5 0 0 0 .206.059c.09.01.2.042.244.07.044.027.115.05.157.05.078 0 .33.058.377.087.015.01.143.026.286.039.169.015.281.037.323.064.043.028.147.047.327.06.144.01.313.036.374.058.076.028.263.049.582.065.258.013.548.037.643.051.287.045 2.226.05 2.524.006.136-.02.387-.045.557-.057.17-.011.326-.028.346-.036.035-.014.242-.043.634-.09a1 1 0 0 0 .254-.06c.043-.022.175-.05.294-.062.127-.012.262-.042.327-.073a.7.7 0 0 1 .223-.053.7.7 0 0 0 .21-.04c.055-.022.166-.053.248-.07.081-.016.182-.044.222-.061s.147-.052.236-.076c.088-.025.205-.062.26-.083a.6.6 0 0 1 .177-.04c.044 0 .086-.012.094-.025a.6.6 0 0 1 .169-.073c.169-.054.46-.17.5-.2.013-.01.1-.043.191-.073a.7.7 0 0 0 .181-.077c.008-.013.033-.023.056-.023s.119-.04.214-.087c.094-.048.185-.086.2-.086.017 0 .043-.016.06-.036s.072-.042.125-.051a.4.4 0 0 0 .153-.06.5.5 0 0 1 .118-.064 7 7 0 0 0 .718-.37c.061-.04.205-.12.32-.18.114-.06.235-.13.269-.157s.075-.048.091-.048.06-.025.095-.056c.134-.114.215-.17.288-.195.041-.014.075-.034.075-.044s.076-.066.167-.126c.147-.096.334-.237.522-.396a.2.2 0 0 1 .077-.05c.017 0 .24-.168.385-.291l.24-.195a10 10 0 0 0 .36-.3c.037-.03.107-.089.154-.13a.4.4 0 0 1 .105-.073c.011 0 .212-.188.447-.418.52-.508.593-.573.653-.573a.3.3 0 0 0 .132-.061c.078-.058.103-.062.37-.062.244 0 .296.007.36.05.04.027.114.06.163.074.098.026.272.192.392.37.073.109.075.12.075.404 0 .256-.007.31-.061.438a.76.76 0 0 0-.062.353c0 .162-.01.226-.053.304-.038.07-.058.164-.07.334-.01.163-.03.256-.061.303-.032.048-.05.142-.062.31-.013.182-.03.262-.071.327a.4.4 0 0 0-.055.235.6.6 0 0 1-.061.273.56.56 0 0 0-.062.262.5.5 0 0 1-.058.248.8.8 0 0 0-.071.27 1 1 0 0 1-.066.272.6.6 0 0 0-.052.21.5.5 0 0 1-.053.198.9.9 0 0 0-.072.255.5.5 0 0 1-.06.203.5.5 0 0 0-.063.202 1 1 0 0 1-.073.255.5.5 0 0 0-.05.186.6.6 0 0 1-.062.211.6.6 0 0 0-.062.21c0 .048-.03.132-.063.187s-.06.127-.06.161a.5.5 0 0 1-.052.161c-.028.054-.06.158-.073.232s-.04.152-.06.175a.5.5 0 0 0-.063.176.6.6 0 0 1-.07.196.4.4 0 0 0-.06.166.4.4 0 0 1-.066.17.3.3 0 0 0-.052.145.3.3 0 0 1-.062.163.3.3 0 0 0-.061.143c0 .07-.25.327-.32.327a.2.2 0 0 0-.104.045.7.7 0 0 1-.145.078.6.6 0 0 0-.124.062c-.02.016-.126.072-.235.124a2 2 0 0 0-.257.14.2.2 0 0 1-.1.046.3.3 0 0 0-.126.062.3.3 0 0 1-.125.062.2.2 0 0 0-.102.048.4.4 0 0 1-.134.066.6.6 0 0 0-.158.075c-.047.032-.11.058-.137.058s-.09.028-.136.062a.3.3 0 0 1-.143.062.25.25 0 0 0-.13.058.4.4 0 0 1-.167.075c-.054.008-.111.032-.128.052s-.071.044-.12.052c-.05.01-.138.043-.194.075s-.135.06-.174.06a.4.4 0 0 0-.168.062.4.4 0 0 1-.154.061.5.5 0 0 0-.17.062.5.5 0 0 1-.198.062c-.045 0-.098.017-.118.037a.38.38 0 0 1-.25.087.3.3 0 0 0-.147.051.5.5 0 0 1-.195.07.8.8 0 0 0-.228.073.5.5 0 0 1-.186.053.4.4 0 0 0-.173.053.8.8 0 0 1-.244.072.5.5 0 0 0-.174.043c-.032.049-.129.08-.25.08a.5.5 0 0 0-.242.062.5.5 0 0 1-.266.062.5.5 0 0 0-.265.062c-.095.05-.151.062-.309.062a.65.65 0 0 0-.304.053c-.083.04-.187.057-.412.072-.221.014-.319.03-.367.062-.053.035-.148.048-.454.062-.266.012-.426.031-.511.061-.096.034-.257.048-.706.065a10 10 0 0 0-1.052.071c-.296.034-1.98.05-2.314.023zm20.1-10.51c-.054-.021-.283-.262-.35-.368-.061-.097-.062-.103-.06-.617.003-.428.011-.54.047-.632.03-.08.048-.235.063-.557.012-.245.038-.512.058-.595.025-.101.046-.405.064-.953.015-.442.04-.937.056-1.1.037-.394.037-2.827 0-3.207a16 16 0 0 1-.042-.841c-.008-.307-.02-.624-.026-.706a3 3 0 0 0-.063-.433 8 8 0 0 1-.048-.644 4.5 4.5 0 0 0-.062-.656 4 4 0 0 1-.059-.532c-.014-.283-.03-.405-.062-.465-.03-.058-.046-.17-.056-.384a2 2 0 0 0-.062-.463 2.5 2.5 0 0 1-.067-.42 1.1 1.1 0 0 0-.062-.342c-.027-.052-.051-.183-.065-.356-.014-.178-.036-.295-.062-.334s-.047-.15-.06-.305c-.011-.16-.032-.266-.06-.307a.7.7 0 0 1-.056-.256 1 1 0 0 0-.062-.283.9.9 0 0 1-.061-.235 1 1 0 0 0-.048-.219 1.1 1.1 0 0 1-.085-.342.5.5 0 0 0-.049-.175A1.2 1.2 0 0 1 41.32 20a2 2 0 0 0-.075-.3 1 1 0 0 1-.052-.218c0-.035-.028-.143-.062-.24a1.2 1.2 0 0 1-.062-.232c0-.03-.028-.128-.062-.219a1 1 0 0 1-.062-.232.6.6 0 0 0-.062-.191.6.6 0 0 1-.06-.2.8.8 0 0 0-.063-.229.9.9 0 0 1-.062-.246.3.3 0 0 0-.037-.146.8.8 0 0 1-.07-.198 1.2 1.2 0 0 0-.073-.22.7.7 0 0 1-.056-.173.6.6 0 0 0-.063-.173.6.6 0 0 1-.063-.186 1 1 0 0 0-.075-.225.6.6 0 0 1-.058-.161.7.7 0 0 0-.062-.179.7.7 0 0 1-.062-.185c0-.03-.022-.09-.049-.134a.6.6 0 0 1-.065-.186.7.7 0 0 0-.06-.192 1 1 0 0 1-.072-.189.3.3 0 0 0-.062-.132c-.02-.016-.043-.079-.052-.139a.4.4 0 0 0-.06-.166.5.5 0 0 1-.072-.154.7.7 0 0 0-.076-.173.3.3 0 0 1-.05-.144c0-.039-.024-.104-.053-.145s-.063-.12-.075-.176a.4.4 0 0 0-.061-.145.4.4 0 0 1-.062-.146.5.5 0 0 0-.072-.166.23.23 0 0 1-.049-.102c0-.022-.028-.085-.062-.139s-.06-.117-.06-.139-.022-.067-.048-.1-.06-.104-.074-.158a.7.7 0 0 0-.076-.172.3.3 0 0 1-.05-.107c0-.018-.028-.073-.062-.123s-.062-.109-.062-.13a.3.3 0 0 0-.062-.123.3.3 0 0 1-.062-.148.3.3 0 0 0-.062-.149.3.3 0 0 1-.061-.125.23.23 0 0 0-.05-.106.6.6 0 0 1-.079-.145.5.5 0 0 0-.058-.119.3.3 0 0 1-.048-.099.8.8 0 0 0-.072-.149 2.5 2.5 0 0 1-.176-.321 1 1 0 0 0-.063-.124 1 1 0 0 1-.058-.112 1.5 1.5 0 0 0-.128-.247 4 4 0 0 1-.123-.223 6 6 0 0 0-.098-.186 4 4 0 0 1-.106-.21 3 3 0 0 0-.174-.31 1 1 0 0 1-.103-.188c0-.015-.02-.043-.042-.062a.5.5 0 0 1-.087-.138.4.4 0 0 0-.07-.119.5.5 0 0 1-.073-.118 4 4 0 0 0-.123-.228l-.124-.217c-.029-.051-.06-.093-.071-.093s-.033-.037-.05-.083a.4.4 0 0 0-.079-.128c-.027-.024-.049-.055-.049-.068s-.028-.056-.062-.097c-.034-.04-.061-.093-.061-.117s-.022-.063-.048-.086a.4.4 0 0 1-.077-.116c-.016-.04-.038-.072-.048-.072s-.043-.05-.075-.112c-.031-.06-.066-.11-.078-.11s-.02-.015-.02-.033c0-.028-.042-.095-.232-.376a5 5 0 0 1-.28-.443.6.6 0 0 0-.092-.137c-.022-.018-.04-.043-.04-.055 0-.033-.322-.49-.545-.771a3 3 0 0 1-.135-.191 2 2 0 0 0-.118-.16 2 2 0 0 1-.15-.208l-.171-.26a1.4 1.4 0 0 1-.095-.164.5.5 0 0 0-.073-.112 1 1 0 0 1-.21-.486c-.02-.184.016-.404.081-.491.095-.127.256-.273.304-.273a.5.5 0 0 0 .147-.05c.124-.063.248-.063.322 0 .03.028.087.05.125.05.074 0 .522.222 1 .496.068.039.18.098.248.13.068.034.183.101.256.15.072.05.14.09.15.09.011 0 .051.025.09.056.038.03.1.072.137.093l.164.091a.6.6 0 0 1 .129.093c.018.022.044.04.058.04.033 0 .272.158.313.208.018.021.045.039.06.039.016 0 .09.044.164.098s.203.143.285.198.176.122.21.15c.034.029.106.084.16.124.116.084.212.16.31.247.04.034.097.08.128.104l.231.173c.014.01.08.07.148.132.069.063.152.128.186.147a.8.8 0 0 1 .153.128c.05.052.145.134.21.182.066.047.142.108.17.136l.256.235c.48.435 1.692 1.671 1.797 1.834.066.102.264.334.494.579.041.043.097.11.124.149l.116.159c.06.08.095.122.255.311.027.032.077.099.111.149.07.101.206.278.257.334.018.02.048.064.065.098s.052.082.078.11c.025.027.046.063.046.08s.02.046.045.064c.043.03.07.071.181.271a.7.7 0 0 0 .082.116c.057.06.186.26.186.29 0 .015.028.051.062.08s.062.068.063.086c0 .033.117.217.197.311.027.032.05.078.05.102s.022.063.05.088.064.074.083.11l.085.16a1 1 0 0 0 .087.135c.02.022.054.08.077.127.022.048.073.143.112.21.068.118.106.187.227.421.029.055.073.126.098.159a.2.2 0 0 1 .047.101c0 .024.02.07.046.103s.059.1.073.151.048.122.077.158a.24.24 0 0 1 .051.108c0 .024.02.07.046.102a.5.5 0 0 1 .065.121c.01.034.044.107.075.161s.062.136.07.182.038.11.066.145c.027.035.05.088.05.117s.027.092.061.138a.3.3 0 0 1 .062.135c0 .028.028.095.061.15a.4.4 0 0 1 .062.15.3.3 0 0 0 .063.134.3.3 0 0 1 .061.164c0 .044.017.097.037.117.05.05.087.152.087.237 0 .038.022.094.05.126.027.031.05.06.05.062 0 .068.059.28.087.31a.5.5 0 0 1 .06.182c.013.077.046.17.074.205q.05.064.05.174c0 .069.023.152.062.225a.55.55 0 0 1 .063.215c0 .061.024.138.062.199a.4.4 0 0 1 .06.217q0 .12.063.235a.5.5 0 0 1 .062.253.4.4 0 0 0 .053.223c.036.06.059.151.072.292a.7.7 0 0 0 .063.272c.03.046.049.141.06.302.012.17.031.263.07.334.042.079.053.142.053.31 0 .16.013.237.052.322.04.088.055.192.072.495.015.27.037.43.072.54.043.132.051.223.052.57 0 .409.01.514.084.92.03.164.038.406.038 1.109 0 .853-.02 1.26-.077 1.475a8 8 0 0 0-.044.718c-.017.548-.026.635-.07.73-.041.089-.051.164-.054.413-.004.299-.011.346-.086.544a1 1 0 0 0-.039.297.7.7 0 0 1-.054.31 1.1 1.1 0 0 0-.07.334c-.011.134-.036.259-.062.31a1 1 0 0 0-.064.28q-.02.192-.062.241c-.028.031-.048.11-.059.227a.8.8 0 0 1-.07.278.46.46 0 0 0-.054.213.5.5 0 0 1-.062.23.5.5 0 0 0-.062.196.6.6 0 0 1-.061.203.6.6 0 0 0-.062.21c0 .048-.029.14-.063.203a.5.5 0 0 0-.061.189c0 .04-.023.1-.05.135a.5.5 0 0 0-.073.185.8.8 0 0 1-.072.206.7.7 0 0 0-.066.171.4.4 0 0 1-.064.146.23.23 0 0 0-.047.114c0 .03-.027.107-.061.171a.5.5 0 0 0-.062.186c0 .038-.028.11-.062.16a.35.35 0 0 0-.062.143.5.5 0 0 1-.058.166 4 4 0 0 0-.204.45.4.4 0 0 1-.063.12.2.2 0 0 0-.046.102.23.23 0 0 1-.05.107c-.028.035-.064.1-.079.145s-.048.109-.073.141a.2.2 0 0 0-.046.102.23.23 0 0 1-.05.107c-.028.035-.063.1-.078.146s-.04.096-.055.115a7 7 0 0 0-.307.56.5.5 0 0 1-.088.134.12.12 0 0 0-.04.078c0 .024-.028.077-.062.118s-.062.082-.062.092-.028.056-.062.1a.3.3 0 0 0-.062.12c0 .02-.023.059-.051.085-.05.047-.107.137-.18.289a.5.5 0 0 1-.088.121c-.029.026-.052.065-.052.088s-.068.116-.152.207l-.151.165-.362-.002a4 4 0 0 1-.395-.015zM23.7 33.943a6 6 0 0 0-.581-.035c-.474-.017-.579-.027-.633-.063-.045-.03-.147-.05-.334-.063-.199-.015-.291-.033-.356-.07a.6.6 0 0 0-.247-.063.6.6 0 0 1-.247-.065.4.4 0 0 0-.201-.053.28.28 0 0 1-.178-.05.4.4 0 0 0-.145-.063c-.165-.028-.186-.035-.243-.084a.24.24 0 0 0-.134-.051.4.4 0 0 1-.176-.062.4.4 0 0 0-.15-.061.3.3 0 0 1-.134-.062.3.3 0 0 0-.14-.062.26.26 0 0 1-.128-.062c-.04-.034-.096-.062-.124-.062s-.083-.028-.123-.062-.097-.061-.126-.061a.17.17 0 0 1-.101-.05.6.6 0 0 0-.13-.086 3 3 0 0 1-.217-.125 2 2 0 0 0-.216-.122c-.045-.02-.08-.046-.08-.059s-.034-.037-.075-.054-.074-.039-.074-.05-.042-.038-.093-.062a.8.8 0 0 1-.26-.203c-.029-.03-.064-.056-.079-.056-.03 0-.225-.136-.301-.21l-.321-.297a9 9 0 0 1-.756-.755c-.39-.428-.516-.581-.516-.628 0-.014-.022-.05-.048-.077-.121-.126-.2-.22-.2-.239 0-.025-.145-.237-.204-.298-.024-.025-.043-.063-.043-.085a.24.24 0 0 0-.051-.105c-.087-.113-.196-.287-.196-.316 0-.015-.028-.057-.062-.094s-.062-.092-.062-.123c0-.03-.028-.08-.062-.11a.17.17 0 0 1-.062-.124.2.2 0 0 0-.062-.128c-.034-.032-.062-.085-.062-.118a.26.26 0 0 0-.062-.134.27.27 0 0 1-.061-.143.25.25 0 0 0-.049-.13.6.6 0 0 1-.075-.18.6.6 0 0 0-.075-.18.25.25 0 0 1-.049-.127c0-.036-.028-.11-.061-.164s-.061-.136-.062-.18a.5.5 0 0 0-.05-.18 1 1 0 0 1-.073-.266 1.2 1.2 0 0 0-.073-.278.7.7 0 0 1-.051-.3c0-.133-.02-.244-.064-.38l-.063-.193.008-1.438c.006-1.346.01-1.444.053-1.523.03-.058.051-.167.064-.347.013-.184.035-.295.071-.373a.6.6 0 0 0 .053-.223c0-.066.027-.166.063-.244a.7.7 0 0 0 .062-.21c0-.043.028-.123.062-.177s.06-.129.061-.164c0-.036.022-.093.049-.127a.6.6 0 0 0 .075-.18.6.6 0 0 1 .075-.187.3.3 0 0 0 .049-.13c0-.035.027-.096.061-.136a.27.27 0 0 0 .062-.139c0-.038.026-.086.062-.118a.17.17 0 0 0 .062-.124.17.17 0 0 1 .062-.124c.034-.03.062-.079.062-.11 0-.03.028-.086.062-.123.034-.036.062-.079.062-.094 0-.028.109-.203.196-.316a.24.24 0 0 0 .05-.105c0-.021.02-.06.044-.084.06-.062.204-.274.204-.299 0-.011.03-.054.068-.095.065-.071.102-.116.243-.291a.3.3 0 0 0 .06-.093c0-.044.318-.39.781-.85.476-.475.687-.665.89-.803.05-.034.124-.09.163-.123.039-.034.11-.09.159-.124.048-.034.128-.092.176-.13a.6.6 0 0 1 .135-.081c.026-.009.047-.026.047-.04s.048-.045.105-.072c.058-.027.156-.082.217-.123s.148-.09.192-.112a.6.6 0 0 0 .13-.086.17.17 0 0 1 .101-.05c.029 0 .085-.027.126-.061s.096-.062.123-.062c.028 0 .084-.028.124-.062s.099-.062.129-.062.078-.021.107-.048a.33.33 0 0 1 .14-.064.4.4 0 0 0 .153-.066.4.4 0 0 1 .166-.063.34.34 0 0 0 .16-.063.4.4 0 0 1 .192-.07.4.4 0 0 0 .175-.057c.04-.04.076-.051.243-.074a.3.3 0 0 0 .14-.054c.03-.025.108-.045.214-.053a.7.7 0 0 0 .28-.072.5.5 0 0 1 .278-.059q.166 0 .297-.05c.102-.041.222-.057.563-.075.238-.013.561-.035.718-.05.374-.034.372-.034.816.011.21.022.512.04.668.04.245 0 .3.008.384.055.073.04.155.056.32.065.17.008.247.025.331.07.078.041.151.058.25.058.103 0 .163.016.237.061a.4.4 0 0 0 .2.062c.058 0 .149.026.21.059.06.032.156.064.213.072a.5.5 0 0 1 .177.066c.04.028.107.052.148.052.042 0 .105.025.145.058a.4.4 0 0 0 .163.072c.05.009.12.037.154.063a.4.4 0 0 0 .145.064.27.27 0 0 1 .128.065.16.16 0 0 0 .099.049c.03 0 .083.022.118.05s.1.067.146.088.126.066.18.099c.055.033.155.086.224.12s.14.076.158.098.045.04.06.04c.016 0 .09.044.165.098.074.055.208.15.297.21.473.33.755.571 1.262 1.078.426.427.7.725.77.842.052.085.082.124.157.207.053.058.11.137.21.288l.155.229a.7.7 0 0 1 .093.16c0 .014.018.04.04.06a.5.5 0 0 1 .089.132c.07.148.126.243.187.321.03.038.055.094.055.125 0 .03.022.074.048.098a.25.25 0 0 1 .063.112.5.5 0 0 0 .076.15c.033.046.06.107.06.137s.023.081.05.115a.5.5 0 0 1 .07.163.5.5 0 0 0 .076.168.3.3 0 0 1 .052.146c0 .044.023.11.051.145a.5.5 0 0 1 .07.183.8.8 0 0 0 .073.217c.03.056.054.143.054.2a.27.27 0 0 0 .053.17c.04.05.058.12.07.262.011.123.034.22.063.264.033.05.05.141.064.33.013.187.033.294.073.383.056.123.056.127.057 1.411 0 1.281 0 1.288-.057 1.448-.033.094-.065.26-.076.396-.013.164-.035.265-.071.333a.5.5 0 0 0-.053.235.4.4 0 0 1-.06.237.4.4 0 0 0-.063.198.5.5 0 0 1-.054.198.8.8 0 0 0-.073.217.5.5 0 0 1-.07.182.27.27 0 0 0-.05.144.3.3 0 0 1-.06.158.5.5 0 0 0-.074.175c-.008.052-.032.109-.052.126a.3.3 0 0 0-.065.132.5.5 0 0 1-.072.16.4.4 0 0 0-.061.128.25.25 0 0 1-.064.114c-.026.024-.048.06-.048.08 0 .033-.043.11-.192.341a.4.4 0 0 0-.055.123c0 .02-.028.06-.062.09s-.062.073-.062.096c0 .037-.034.088-.197.3a.3.3 0 0 0-.05.089c0 .022-.076.127-.2.278a6 6 0 0 0-.227.29c-.273.373-1.266 1.352-1.613 1.592-.05.034-.163.12-.252.191a.8.8 0 0 1-.194.13c-.017 0-.046.018-.064.04-.027.032-.126.1-.323.22l-.111.072-.16.106a.4.4 0 0 1-.126.058c-.02 0-.057.021-.081.048a.25.25 0 0 1-.114.063.35.35 0 0 0-.134.076c-.036.033-.088.06-.116.06s-.084.028-.125.062a.27.27 0 0 1-.14.062.3.3 0 0 0-.152.062.3.3 0 0 1-.135.062c-.028 0-.095.029-.15.062s-.128.061-.165.061a.16.16 0 0 0-.1.034.32.32 0 0 1-.227.09.35.35 0 0 0-.178.062.34.34 0 0 1-.188.062.5.5 0 0 0-.213.062.5.5 0 0 1-.252.062.4.4 0 0 0-.223.053c-.067.042-.147.058-.356.074-.19.014-.288.033-.334.064-.053.036-.143.047-.51.06l-.866.034a3 3 0 0 1-.435.003z" transform="translate(-.68 -.68)scale(1.362)"/></svg>