<svg xmlns="http://www.w3.org/2000/svg" viewBox="0 0 64 64"><defs><linearGradient id="a" y2="1"><stop offset="0" stop-color="#a93aff"/><stop offset="1" stop-color="#ff81ff"/></linearGradient></defs><path fill="url(#a)" d="M6.857 9.144c-3.759 0-6.859 3.1-6.859 6.859v32c0 3.759 3.1 6.859 6.859 6.859h50.29c3.759 0 6.859-3.1 6.859-6.859v-32c0-3.759-3.1-6.859-6.859-6.859zm0 4.568h50.29c1.306 0 2.285.984 2.285 2.291v32c0 1.306-.978 2.291-2.285 2.291H6.857c-1.306 0-2.285-.984-2.285-2.291v-32c0-1.306.979-2.291 2.285-2.291" transform="translate(.002 .001)scale(.9999)"/><path fill="url(#a)" d="M22.65 44.47c-.576 0-1.039.464-1.039 1.039s.463 1.039 1.039 1.039h18.7c.576 0 1.039-.463 1.039-1.039s-.464-1.039-1.039-1.039z" transform="translate(.002 .001)scale(.9999)"/><path fill="url(#a)" d="M45.51 40.31c-.576 0-1.039.464-1.039 1.039s.464 1.039 1.039 1.039H55.9c.576 0 1.039-.463 1.039-1.039s-.463-1.039-1.039-1.039z" transform="translate(.002 .001)scale(.9999)"/><path fill="url(#a)" d="M15.38 38.24c-1.151 0-2.078.927-2.078 2.078s.927 2.078 2.078 2.078h2.076c1.151 0 2.078-.927 2.078-2.078s-.927-2.078-2.078-2.078z" transform="translate(.002 .001)scale(.9999)"/><path fill="url(#a)" d="M9.144 38.24c-1.151 0-2.078.927-2.078 2.078s.927 2.078 2.078 2.078h2.078c1.151 0 2.078-.927 2.078-2.078s-.927-2.078-2.078-2.078z" transform="translate(.002 .001)scale(.9999)"/><path fill="url(#a)" d="M45.51 36.16c-.576 0-1.039.464-1.039 1.039s.464 1.039 1.039 1.039H55.9c.576 0 1.039-.463 1.039-1.039s-.463-1.039-1.039-1.039z" transform="translate(.002 .001)scale(.9999)"/><path fill="url(#a)" d="M47.59 27.85a3.117 3.117 0 0 0-3.117 3.117 3.117 3.117 0 0 0 3.117 3.117 3.117 3.117 0 0 0 3.115-3.117 3.117 3.117 0 0 0-3.115-3.117" transform="translate(.002 .001)scale(.9999)"/><path fill="url(#a)" d="M53.82 21.61a3.117 3.117 0 0 0-3.117 3.117 3.117 3.117 0 0 0 3.117 3.117 3.117 3.117 0 0 0 3.117-3.117 3.117 3.117 0 0 0-3.117-3.117" transform="translate(.002 .001)scale(.9999)"/><path fill="url(#a)" d="M13.3 21.61a2.074 2.074 0 0 0-2.078 2.078v2.078H9.144c-1.151 0-2.078.927-2.078 2.078s.927 2.078 2.078 2.078h2.078V32c0 1.151.927 2.078 2.078 2.078s2.078-.927 2.078-2.078v-2.078h2.076c1.151 0 2.078-.927 2.078-2.078s-.927-2.078-2.078-2.078h-2.076v-2.078A2.074 2.074 0 0 0 13.3 21.61" transform="translate(.002 .001)scale(.9999)"/><path fill="url(#a)" d="M23.69 17.46a2.074 2.074 0 0 0-2.078 2.078v20.78c0 1.151.927 2.078 2.078 2.078h16.62a2.074 2.074 0 0 0 2.078-2.078v-20.78a2.074 2.074 0 0 0-2.078-2.078z" transform="translate(.002 .001)scale(.9999)"/><path fill="#5f9ea0" d="M24.73 21.609c-.576 0-1.04.463-1.04 1.039v14.548c0 .576.464 1.04 1.04 1.04h14.548c.576 0 1.039-.464 1.039-1.04V22.648c0-.576-.463-1.04-1.039-1.04z"/></svg>