<svg xmlns="http://www.w3.org/2000/svg" viewBox="0 0 64 64"><defs><linearGradient id="a" x1="1" x2="0" y1="1"><stop offset="0" stop-color="#00efff"/><stop offset="1" stop-color="#07f"/></linearGradient></defs><path fill="url(#a)" d="M6.568 1a5.54 5.54 0 0 0-2.809.762l-.102.06-.127.082a5 5 0 0 0-.293.203q-.037.03-.076.057l-.203.166a5.6 5.6 0 0 0-.795.832l-.056.076a5 5 0 0 0-.204.293l-.082.127-.06.102c-.484.825-.762 1.785-.762 2.809s.278 1.984.762 2.809a5.6 5.6 0 0 0 1.998 1.996c.825.484 1.785.762 2.809.762a5.54 5.54 0 0 0 3.037-.903q.053-.034.104-.07l.015-.01.102-.072q.074-.053.147-.11l.86.862q-.277.225-.577.42l2.334 2.334a1.407 1.407 0 0 0 1.996 0 1.41 1.41 0 0 0 0-1.996l-2.334-2.334q-.195.3-.42.578l-.861-.862a7 7 0 0 0 .18-.248l.011-.015.07-.104q.075-.112.14-.228c.485-.825.763-1.785.763-2.81s-.278-1.983-.762-2.808a5.6 5.6 0 0 0-1.996-1.998A5.54 5.54 0 0 0 6.567 1zm0 1.613c.574 0 1.119.123 1.611.344a3.98 3.98 0 0 1 1.998 1.998 3.9 3.9 0 0 1 .344 1.613 3.9 3.9 0 0 1-.403 1.736l-.03.062-.018.034-.043.078-.004.007a3 3 0 0 1-.082.141l-.03.047-.023.037-.025.04-.024.034-.023.033-.014.02-.03.041a4 4 0 0 1-.34.41q-.035.037-.071.072-.037.038-.073.073l-.064.06q-.026.023-.053.045-.14.124-.293.235l-.04.029-.02.014-.034.023-.035.023q-.02.014-.039.026l-.037.023-.047.03-.045.027-.095.055-.008.003-.08.043q-.014.01-.032.018l-.062.031q-.062.03-.125.059a3.9 3.9 0 0 1-1.611.344 3.9 3.9 0 0 1-1.613-.344 3.98 3.98 0 0 1-1.998-1.998 3.9 3.9 0 0 1-.344-1.611 3.93 3.93 0 0 1 .66-2.183l.045-.069.06-.082.096-.127a4 4 0 0 1 .76-.728q.041-.031.082-.06.035-.024.069-.046a3 3 0 0 1 .168-.107q.195-.115.402-.21a3.9 3.9 0 0 1 1.613-.343z" transform="translate(-4.566 -4.571)scale(4.571)"/><path fill="url(#a)" d="M5.582 3.5c-.161.016-.455.635-.455.635s-.97.683-.498 1.672c.167.35.494.535.832.63l-.037.114s-.385.955-.729 1.537S4.608 9.5 5.08 9.5h2.606c.153 0 .282-.089.377-.227.192 0 .373-.056.53-.148.235-.14.42-.356.55-.61.13-.253.203-.546.203-.851 0-.24-.046-.488-.152-.725a1.2 1.2 0 0 1-.121-.46c0-.089.018-.147.04-.192a.33.33 0 0 1 .163-.154l.031-.014.006-.002a.25.25 0 0 0 .18-.303.26.26 0 0 0-.315-.175c-.022.006-.164.042-.316.168a.8.8 0 0 0-.209.261.9.9 0 0 0-.094.41c0 .192.052.41.164.66.076.17.11.349.11.526 0 .3-.102.596-.256.801a.9.9 0 0 1-.252.234.6.6 0 0 1-.107.05l.011-.07c0-.199-.047-.407-.156-.59-.343-.583-.803-1.58-.803-1.58l-.017-.058c.356-.09.708-.274.885-.644.47-.988-.497-1.672-.497-1.672s-.315-.66-.472-.635-.496.457-.496.457h-.577s-.34-.432-.498-.457z" transform="translate(-4.566 -4.571)scale(4.571)"/></svg>