<svg version="1.1" viewBox="0 0 64 64" xmlns="http://www.w3.org/2000/svg">
 <defs>
  <linearGradient id="b" y1="1">
   <stop stop-color="#007bf6" offset="0"/>
   <stop stop-color="#d60cff" offset=".5"/>
   <stop stop-color="#ff167a" offset="1"/>
  </linearGradient>
  <linearGradient id="a" y1=".5" y2=".5">
   <stop stop-color="#ff0" offset="0"/>
   <stop stop-color="#ffc200" offset="1"/>
  </linearGradient>
 </defs>
 <path transform="translate(-.001027 .00292) scale(1)" d="m51.98 3.029c0.788 0 1.473 0.2785 2.056 0.8435 0.5822 0.565 0.8758 1.363 0.8758 2.393 0 1.608-0.8184 4.062-2.457 7.356-1.639 3.295-3.682 6.75-6.131 10.37 0.2636 0.7911 0.4493 1.604 0.5624 2.438 0.113 0.8343 0.1706 1.68 0.1706 2.535 0 5.006-1.763 9.265-5.286 12.79-3.523 3.523-7.786 5.286-12.79 5.286-0.8664 0-1.694-0.05756-2.485-0.1706s-1.605-0.2988-2.433-0.5624c-3.578 2.485-7.012 4.548-10.31 6.186s-5.768 2.457-7.417 2.457c-0.9891 0-1.785-0.2742-2.388-0.8206-0.6027-0.5461-0.9034-1.277-0.9034-2.189 0-1.347 0.5928-3.195 1.779-5.551s2.323-4.623 3.415-6.809c0.3167-0.6011 0.7738-0.9954 1.369-1.185 0.5947-0.1891 1.195-0.153 1.798 0.1106 0.6403 0.3014 1.043 0.7835 1.212 1.443s0.1254 1.287-0.1383 1.89c-0.7156 1.205-1.406 2.44-2.065 3.7-0.6591 1.26-1.269 2.535-1.834 3.816 1.783-0.7222 3.528-1.533 5.237-2.433 1.707-0.901 3.389-1.882 5.048-2.936-2.447-1.62-4.399-3.734-5.848-6.344s-2.176-5.506-2.176-8.685c0-5.022 1.768-9.303 5.305-12.84 3.538-3.535 7.821-5.301 12.85-5.301 3.122 0 5.99 0.7255 8.605 2.176s4.732 3.38 6.351 5.789c1.048-1.645 2.012-3.311 2.896-5.006 0.8833-1.694 1.706-3.453 2.471-5.272-1.281 0.6027-2.558 1.231-3.84 1.89-1.281 0.6591-2.506 1.327-3.675 2.005-0.6027 0.3014-1.213 0.359-1.834 0.1706s-1.073-0.582-1.355-1.185-0.3401-1.226-0.1706-1.867c0.1695-0.6403 0.5544-1.092 1.157-1.355 2.109-1.055 4.371-2.174 6.78-3.361s4.276-1.779 5.6-1.779zm-23.04 12.71c-3.703 0-6.823 1.283-9.367 3.844s-3.811 5.692-3.811 9.393c0 2.662 0.7033 5.057 2.116 7.186s3.271 3.722 5.567 4.774c3.361-2.436 6.497-5.105 9.412-8.01 2.915-2.908 5.612-6.037 8.1-9.388-1.055-2.298-2.653-4.172-4.798-5.624s-4.555-2.176-7.219-2.176zm-2.785 4.862c0.4154 0 0.7738 0.1592 1.074 0.4793 0.3007 0.3203 0.4517 0.6865 0.4517 1.102 0 0.4154-0.1504 0.7738-0.4517 1.074-0.3014 0.3007-0.6658 0.4517-1.092 0.4517-0.4265 0-0.7934-0.1504-1.102-0.4517-0.3077-0.3014-0.4609-0.6658-0.4609-1.092 0-0.4265 0.1592-0.7934 0.4793-1.102 0.3203-0.3077 0.6865-0.4609 1.102-0.4609zm7.333 2.259c0.5952 0 1.095 0.2079 1.498 0.6223 0.4026 0.4144 0.6039 0.9164 0.6039 1.512 0 0.5952-0.1991 1.095-0.5947 1.498-0.3955 0.4026-0.8959 0.6039-1.503 0.6039-0.6065 0-1.115-0.1991-1.526-0.5947-0.4102-0.3955-0.6131-0.8959-0.6131-1.503 0-0.6065 0.2033-1.115 0.6176-1.526 0.4144-0.4102 0.9209-0.6131 1.517-0.6131zm-10.72 5.083c0.7156 0 1.335 0.2742 1.862 0.8206s0.7927 1.174 0.7927 1.89c2e-6 0.7156-0.2655 1.34-0.7927 1.867s-1.146 0.7927-1.862 0.7927-1.348-0.2655-1.894-0.7927-0.8206-1.151-0.8206-1.867 0.2742-1.344 0.8206-1.89 1.179-0.8206 1.894-0.8206zm18.64 2.601c-1.78 2.177-3.788 4.387-6.03 6.629-2.24 2.241-3.88 3.644-4.928 4.217l0.7606 0.05992 0.7606 0.05532c1.356-0.1883 2.613-0.6219 3.762-1.3 1.149-0.678 2.144-1.505 2.992-2.485 0.8475-0.9794 1.515-2.094 2.005-3.337s0.7153-2.52 0.6776-3.84z" fill="url(#b)" stroke-width="2.36"/>
 <path transform="translate(-.001027 .00292) scale(1)" d="m6.986 1.153a2.109 2.109 0 0 1 2.005 1.466l0.5577 1.728a0.4958 0.4958 0 0 0 0.4748 0.3457h1.83a2.109 2.109 0 0 1 1.249 3.816l-1.503 1.097a0.4958 0.4958 0 0 0-0.1798 0.5532l0.5669 1.765a2.081 2.081 0 0 1-0.7743 2.36c-0.3582 0.2631-0.7906 0.4043-1.235 0.4057a2.095 2.095 0 0 1-1.249-0.4149l-1.452-1.069a0.4958 0.4958 0 0 0-0.59 0l-1.452 1.069a2.109 2.109 0 0 1-3.259-2.351l0.5716-1.765a0.4958 0.4958 0 0 0-0.1798-0.5532l-1.503-1.097a2.109 2.109 0 0 1 0.009204-3.41 2.095 2.095 0 0 1 1.235-0.4057h1.834c0.2165 0 0.4085-0.139 0.4748-0.3457l0.5577-1.728a2.116 2.116 0 0 1 2.01-1.466z" fill="url(#a)" stroke-width="2.36"/>
 <path transform="translate(-.001027 .00292) scale(1)" d="m57.01 29a2.109 2.109 0 0 1 2.01 1.466l0.5532 1.728a0.4958 0.4958 0 0 0 0.4748 0.3502h1.83a2.109 2.109 0 0 1 1.249 3.811l-1.503 1.097a0.4958 0.4958 0 0 0-0.1798 0.5577l0.5669 1.761a2.081 2.081 0 0 1-0.7743 2.36c-0.3582 0.2631-0.7859 0.4088-1.231 0.4102a2.095 2.095 0 0 1-1.254-0.4194l-1.452-1.069a0.4958 0.4958 0 0 0-0.59 0l-1.447 1.069a2.109 2.109 0 0 1-3.264-2.351l0.5716-1.761a0.4958 0.4958 0 0 0-0.1798-0.5577l-1.503-1.097a2.109 2.109 0 0 1 0.0092-3.41 2.095 2.095 0 0 1 1.235-0.401h1.834c0.2165 0 0.4085-0.1436 0.4748-0.3502l0.5577-1.728a2.116 2.116 0 0 1 2.01-1.466z" fill="url(#a)" stroke-width="2.36"/>
 <path transform="translate(-.001027 .00292) scale(1)" d="m33.17 49.29a2.109 2.109 0 0 1 2.01 1.461l0.5577 1.733a0.4958 0.4958 0 0 0 0.4748 0.3457h1.83a2.109 2.109 0 0 1 1.244 3.811l-1.503 1.102a0.4958 0.4958 0 0 0-0.1798 0.5532l0.5716 1.765a2.081 2.081 0 0 1-0.7743 2.36c-0.3582 0.2631-0.7906 0.4043-1.235 0.4057a2.095 2.095 0 0 1-1.249-0.4149l-1.452-1.069a0.4958 0.4958 0 0 0-0.59 0l-1.452 1.065a2.109 2.109 0 0 1-3.259-2.346l0.5669-1.765a0.4958 0.4958 0 0 0-0.1798-0.5532l-1.498-1.102a2.109 2.109 0 0 1 0.0047-3.41 2.095 2.095 0 0 1 1.24-0.401h1.83c0.2165 0 0.4085-0.139 0.4748-0.3457l0.5577-1.733a2.116 2.116 0 0 1 2.01-1.461z" fill="url(#a)" stroke-width="2.36"/>
</svg>
