<svg xmlns="http://www.w3.org/2000/svg" style="isolation:isolate" viewBox="0 0 64 64"><path fill="#78ffc7" d="M22.256 38.403c-.438.136-.812.42-1.222.616-.956.517-1.903 1.058-2.934 1.421-.427.168-2.106 1.453-2.601 1.87-.546.536-1.16.996-1.755 1.472-.285.253-.797.358-.844.796q.167.582.303 1.173c.578-.453 1.142-.925 1.762-1.32.558-.416 1.193-.709 1.796-1.053.296-.158.579-.35.916-.416.304-.084.631-.054.945-.093a5 5 0 0 1 .068-.8c.224-.356.408-.74.659-1.074.855-.98 1.822-1.876 2.907-2.592"/><linearGradient id="a" x1=".183" x2=".903" y1=".249" y2=".903" gradientTransform="matrix(25.16 0 0 19.44 12.91 13.59)" gradientUnits="userSpaceOnUse" transform="translate(-.673 -.71)scale(1.36)"><stop offset=".026" stop-color="#b3ffab"/><stop offset=".987" stop-color="#12fff7"/></linearGradient><path fill="url(#a)" fill-rule="evenodd" d="M37.82 14.42c-1.232.898-2.521 1.719-3.79 2.573a1008 1008 0 0 1-12.61 8.563c-1.633 1.1-3.2 2.293-4.881 3.315-.911.717-1.845 1.561-2.31 2.658-.292.895 1.105.753 1.65 1.016 3.188.808 6.562.561 9.572-.594 3.019-1.152 5.66-3.241 7.514-5.899 2.007-2.649 3.278-5.839 3.782-9.168.162-.903.676-1.665 1.076-2.464zM25 22.996l9.032-6.003 3.79-2.573.241-.164c-1.051.597-2.359-.098-3.481-.226-1.678-.32-3.399-.595-5.087-.361-1.031.06-2.051.175-3.038.474-2.423.479-4.694 1.561-6.731 2.921-4.125 2.829-6.457 7.768-6.819 12.79.863-1.631 7.107-5.488 12.09-6.856z" transform="translate(-.673 -.71)scale(1.36)"/><linearGradient id="c" x1=".994" x2="0" y1=".48" y2=".452" gradientTransform="matrix(47.06 0 0 46.98 .495 .559)" gradientUnits="userSpaceOnUse" transform="translate(-.673 -.71)scale(1.36)"><stop offset="0" stop-color="#11998e"/><stop offset=".991" stop-color="#38ef7d"/></linearGradient><path fill="url(#c)" fill-rule="evenodd" d="M25.63 43.27a2.145 2.145 0 0 0-1.953 2.312 2.137 2.137 0 0 0 2.312 1.952 23.53 23.53 0 0 0 15.43-7.594 23.57 23.57 0 0 0 6.133-16.07 23.59 23.59 0 0 0-7.038-16.58C36.057 2.923 30.044.497 23.814.553s-12.2 2.592-16.58 7.038a23.57 23.57 0 0 0-6.737 16.7 2.14 2.14 0 0 0 4.278-.039 19.27 19.27 0 0 1 5.513-13.66 19.3 19.3 0 0 1 13.56-5.759 19.27 19.27 0 0 1 13.66 5.513 19.271 19.271 0 0 1 .744 26.71 19.27 19.27 0 0 1-12.63 6.211zM7.06 33.19a2.14 2.14 0 0 0-3.768 2.023 23.6 23.6 0 0 0 10.67 10.14c1.067.51 2.345.057 2.852-1.01s.052-2.347-1.015-2.857a19.3 19.3 0 0 1-8.738-8.295z" transform="translate(-.673 -.71)scale(1.36)"/></svg>