<svg version="1.1" viewBox="0 0 64 64" xmlns="http://www.w3.org/2000/svg">
 <defs>
  <linearGradient id="a" x2="0" y2="1">
   <stop stop-color="#1ef197" offset="0"/>
   <stop stop-color="#64ea65" offset="1"/>
  </linearGradient>
  <linearGradient id="b" x1="1" x2="0" y1=".5" y2=".5">
   <stop stop-color="#ffa800" offset="0"/>
   <stop stop-color="#fff737" offset="1"/>
  </linearGradient>
 </defs>
 <path transform="translate(0 .1253) scale(.9966)" d="m18.77 17.31c-3.141 5.77e-4 -5.693 2.552-5.693 5.693 0.0015 0.481 0.06502 0.9602 0.1875 1.426a0.25 0.25 0 0 0 0.4824-2e-3c0.5907-2.293 2.656-3.895 5.023-3.898 2.367 0.0019 4.432 1.601 5.025 3.893a0.25 0.25 0 0 0 0.4844 2e-3c0.1235-0.4653 0.1846-0.9385 0.1855-1.42-5.77e-4 -3.141-2.552-5.693-5.693-5.693z" fill="url(#a)" stop-color="#000000" stroke-linecap="round" stroke-linejoin="round"/>
 <path transform="translate(0 .1253) scale(.9966)" d="m45.2 14.59c-3.14 0-5.691 2.555-5.691 5.695 0 3.14 2.551 5.695 5.691 5.695 3.14 0 5.695-2.555 5.695-5.695 0-3.14-2.555-5.695-5.695-5.695zm-2e-3 3.225c0.6545 0 1.286 0.2593 1.758 0.7168 0.4573 0.4707 0.7168 1.103 0.7168 1.758 5.03e-4 1.369-1.106 2.473-2.475 2.473-0.6549 0-1.282-0.2621-1.738-0.7305a0.25 0.25 0 0 0-0.0039-0.0039c-0.4682-0.4559-0.7305-1.084-0.7305-1.738-5.03e-4 -1.369 1.104-2.473 2.473-2.473a0.25 0.25 0 0 0 0-2e-3zm2.75 1.336c0.07337 0.1792 0.1301 0.366 0.168 0.5566-0.03788-0.1907-0.0946-0.3774-0.168-0.5566z" fill="url(#a)" stop-color="#000000" stroke-linecap="round" stroke-linejoin="round"/>
 <path transform="translate(0 .1253) scale(.9966)" d="m27 2.732c-0.9848 0.02612-1.754 0.421-2.26 1.002s-0.752 1.336-0.752 2.09c0 0.7536 0.2462 1.511 0.752 2.092 0.5058 0.5809 1.275 0.9758 2.26 1.002a0.25 0.25 0 0 0 0.0078 0.00391h28.43c1.436 0 2.594 1.158 2.594 2.594v28.43c-1e-3 1.435-1.159 2.592-2.594 2.592h-10.29a0.25 0.25 0 0 0-0.2246 0.1387l-4.229 8.467-6.379-8.504a0.25 0.25 0 0 0-0.1992-0.1016h-7.109c-1.01 0-1.8 0.3879-2.32 0.9727-0.5198 0.5848-0.7734 1.356-0.7734 2.123 0 0.7666 0.2536 1.536 0.7734 2.121 0.5198 0.5848 1.31 0.9727 2.32 0.9727h4.141l8.654 11.54c0.5072 0.6759 1.159 1.019 1.801 0.9609 0.6414-0.05808 1.222-0.5117 1.6-1.268l5.623-11.23h9.453c3.275-0.0017 5.937-2.662 5.938-5.938v-34.12c-0.0017-3.275-2.663-5.934-5.938-5.936h-31.27a0.25 0.25 0 0 0-0.0059 0zm-21.31 0.25a5.689 5.689 0 0 0-5.686 5.686v34.12a5.689 5.689 0 0 0 5.686 5.688h9.951a2.844 2.844 0 0 0 0-5.688v-0.0039h-7.107a2.844 2.844 0 0 1-2.844-2.842v-28.43a2.844 2.844 0 0 1 2.844-2.844h7.107a2.844 2.844 0 0 0 0-5.688z" fill="url(#a)" stop-color="#000000" stroke-linecap="round" stroke-linejoin="round"/>
 <path transform="translate(0 .1253) scale(.9966) translate(0 -.001151) scale(1)" d="m31.59 25.72a1.17 1.17 0 0 0-0.8359 0.3516l-6.945 6.309c-0.7431 0.7622-0.3528 3.018 0.6992 3.018l7.082 1.209 7.084-1.209c1.052 0 1.442-2.255 0.6992-3.018l-6.947-6.309z" fill="url(#b)" stroke="url(#b)" stroke-linecap="round" stroke-linejoin="round" stroke-width=".5"/>
</svg>
