<svg version="1.1" viewBox="0 0 64 64" xmlns="http://www.w3.org/2000/svg">
 <defs>
  <style>.ColorScheme-Text { color:#ebdbb2; } .ColorScheme-Highlight { color:#458588; }</style>
  <linearGradient id="a" y2="1">
   <stop stop-color="#f1fa00" offset="0"/>
   <stop stop-color="#ff6900" offset="1"/>
  </linearGradient>
 </defs>
 <path transform="translate(0) scale(1) translate(0) scale(1) translate(0) scale(4)" d="m1 1c-0.554 0-1 0.446-1 1v7c0 0.554 0.446 1 1 1h5v4c0 0.554 0.446 1 1 1h8c0.554 0 1-0.446 1-1v-7c0-0.554-0.446-1-1-1h-5v-4c0-0.554-0.446-1-1-1zm0 2h8v5h-8zm9 5h5v5h-8v-3h2c0.554 0 1-0.446 1-1z" fill="url(#a)"/>
</svg>
