<svg version="1.1" viewBox="0 0 64 64" xmlns="http://www.w3.org/2000/svg">
 <path transform="translate(-2.23 -4.685) scale(.14)" d="m255.9 75.97c0.158 3.806 0.07194 8.185 0.08594 12.04-7.969 0.1355-16-0.1453-24 0.1172-0.018-4.032-2.2e-4 -8.066 0.05078-12.1l-120.8-0.007813c-19.8 0.0902-39.59 0.07498-59.39-0.04492 0.1841 3.701 0.07002 8.279 0.07422 12.04l0.02539 11.99 23.98 0.00781 0.01758 11.99 23.98 0.00781 0.01562 11.99 23.98 0.00781 0.01758 11.99 95.98 0.00976c2e-3 7.869 0.138 16.12 0 23.96-1e-3 4.001-0.06051 8.169 0.02149 12.16 0.929 0.167 10.34-0.1059 12.02-0.1309 3e-3 -3.59 0.06214-7.338-0.00586-10.93-0.014-0.739-0.09267-0.6635-0.5137-1.021l0.5215 0.01562c2.422 0.35 9.239-0.06845 11.99-0.06445-0.023-4.031-0.03652-7.952-0.2285-11.98l12.23-0.01758c-0.024-3.962 0.00454-8.043-0.2305-11.99l12.23-0.00977c-0.025-3.965-5.2e-4 -8.041-0.2285-11.99 4.044-0.024 8.139-0.08664 12.18 0.06836 4.003-0.079 8.007-0.1042 12.01-0.07422l0.01758 47.98-0.00391 96.01c3.955-0.015 8.182 0.04731 12.11-0.05469-5e-3 -3.944-0.1147-7.984-0.1777-11.94l12.09-0.01172c-4e-3 -3.997-0.04128-7.994-0.1133-11.99l12.11-0.00977c-3e-3 -3.997-0.04028-7.994-0.1133-11.99l12.12-0.01172c0.012-3.996-0.03367-7.991-0.1387-11.99l12.12-0.02344c0.014-3.99-0.00464-7.98-0.05664-11.97l12.08-0.01953-0.08008-11.99 12.08-0.01172-0.07812-11.99 12.08-0.00976c0.015-3.417 0.04325-6.872 0.03125-10.29-4e-3 -1.069-0.00545-1.107-0.5644-1.641l0.5195 0.05469c1.768 0.366 9.7-0.09086 12.02-0.1309-0.025-3.596 0.06418-7.325-0.00782-10.93-0.016-0.764-0.06471-0.6548-0.5117-1.01l0.502 0.03711c1.989 0.357 9.799-0.02338 12.04-0.1094l-0.1113-11.98 12.09-0.01172-0.08398-11.99 12.09-0.01367-0.08008-12c3.262 0.126 8.848 0.4276 12.04 0.1406l0.02539-12.12c-4.028-0.011-7.989-0.04752-12.02 0.1465l0.01757-12.15c-4.041-0.01-7.979-0.03525-12.02 0.1524l0.01758-12.15c-7.856-0.0375-16.19-0.1336-24.01 0.1543l0.01562-12.15-98.24-0.01953c-15.22 0.0042-30.69 0.2847-45.87-0.04492zm-132 96c0.296 32.08 0.3166 64.15 0.06055 96.23 4.177-0.159 7.853-0.1894 12.04-0.1934 2e-3 -3.997-0.01568-7.993-0.05468-11.99l12.05-0.01367-0.04688-11.99 12.05-0.00976-0.04883-11.99 12.05-0.00781c5e-3 -3.997-0.01459-7.994-0.05859-11.99l12.05-0.02735c0.013-3.992-0.01222-7.985-0.07422-11.98l12.09-0.01367c-7e-3 -3.996-0.04718-7.992-0.1172-11.99l12.11-0.01172c0-3.995-0.03824-7.991-0.1152-11.99l12.12-0.01172c-1e-3 -3.198 0.1212-8.212-0.1328-11.51-0.132-0.137-0.2654-0.2732-0.3984-0.4102-22.4-0.353-45.1 0.1114-67.53-0.05859-9.385-0.071-18.63 0.2892-28.04-0.05078z" fill="#326485"/>
 <path transform="translate(-2.23 -4.685) scale(.14)" d="m435.9 124 0.08008 12-12.09 0.01367 0.08398 11.99-12.09 0.01172 0.1113 11.98c-2.236 0.086-10.05 0.4664-12.04 0.1094l-0.502-0.03711-11.52-0.08984c4e-3 3.989-0.06056 8.185 0.02344 12.16l-0.5195-0.05469c0.559 0.534 0.5604 0.5716 0.5644 1.641 0.012 3.417-0.01625 6.872-0.03125 10.29l-12.08 0.00976 0.07812 11.99-12.08 0.01172 0.08008 11.99-12.08 0.01953c0.052 3.989 0.07064 7.979 0.05664 11.97l24.18-0.02343c-0.229 3.921-0.196 8.093-0.207 12.04l0.00781 24h12l0.00195 60 12-0.00195 0.00195 24h12l0.00195 24h12l0.00195 24h12v24h12c3.998-0.029 7.994-0.03462 11.99-0.01562l0.02734-156c-3.989-0.04-8.027 0.00553-12.02 0.01953l0.01953-24.01c-4.006-0.019-8.014-0.01433-12.02 0.01367l0.01562-12.02c-4.007-0.019-8.013-0.01242-12.02 0.01758l-0.04687-24.09 12.04-0.00586-0.03321-11.99 12.04 0.01563-0.04688-12.02 12.05 0.01367-0.00977-47.94c-3.863-0.043-8.156-0.09858-11.99 0.1074-3.191 0.287-8.777-0.01462-12.04-0.1406zm-83.94 95.99-12.12 0.02344c0.105 3.995 0.1507 7.99 0.1387 11.99l-12.12 0.01172c0.073 3.996 0.1103 7.993 0.1133 11.99l-12.11 0.00977c0.072 3.996 0.1093 7.993 0.1133 11.99l-12.09 0.01172c0.063 3.952 0.1727 7.992 0.1777 11.94-0.348 7.534-0.143 16.45-0.127 24.06l0.00586 24 12 0.00195 0.00196 24 12 0.00195 0.00196 24h12c4-0.03 7.999-0.03367 12-0.01367l0.02148-144zm-60.02-95.98c-4.003-0.03-8.007-0.00478-12.01 0.07422-4.037-0.155-8.132-0.09236-12.18-0.06836 0.228 3.949 0.2035 8.025 0.2285 11.99l-12.23 0.00977c0.235 3.945 0.2065 8.026 0.2305 11.99l-12.23 0.01758c0.192 4.03 0.2055 7.951 0.2285 11.98-2.755-4e-3 -9.572 0.4144-11.99 0.06445l-0.5215-0.01562-11.53-0.07617c-1e-3 4.001-0.06051 8.169 0.02149 12.16l-0.5098-0.05079c0.133 0.137 0.2664 0.2732 0.3984 0.4102 0.254 3.302 0.1318 8.316 0.1328 11.51l-12.12 0.01172c0.077 3.995 0.1152 7.991 0.1152 11.99l-12.11 0.01172c0.07 3.996 0.1102 7.992 0.1172 11.99l-12.09 0.01367c0.062 3.992 0.08722 7.985 0.07422 11.98l-12.05 0.02735c0.044 3.996 0.0636 7.993 0.05859 11.99l-12.05 0.00781 0.04883 11.99-12.05 0.00976 0.04688 11.99-12.05 0.01367c0.039 3.997 0.05669 7.993 0.05468 11.99-4.182 4e-3 -7.858 0.03436-12.04 0.1934 0.127 15.94 0.1298 31.87 0.00976 47.81l0.00391 24h12l0.00391 24h12l0.00195 24h12l0.00195 24h12l0.00782 12c3.918-0.01 8.067-0.09072 11.97-0.01172 4.008-0.03 8.015-0.02723 12.02 0.00977l-0.08203-4.043 0.03125-8.029 0.01953-27.98 0.00977-7.98-0.00586-8.031 0.01562-15.75v-8.244l-0.00976-16-0.00977-15.88 0.00977-16.1 0.01172-20.07 0.00195-11.76c-0.036-2.711-0.02199-5.422 0.04101-8.133l-0.02734-24.01c11.91 0.146 24.12 0.01176 36.05 0.00976-0.043-3.971 0.00763-8.026 0.01563-12l23.97 0.0039c-0.058-3.951 0.00953-8.045 0.01953-12.01l11.98 0.00391c-0.057-3.949 0.00953-8.041 0.01953-12-0.169-3.737-0.07279-8.254-0.09179-12.05l12.03 0.04883-0.02734-12.04 12.04 0.03515-0.01758-47.98z" fill="#2e4269"/>
 <path transform="translate(-2.23 -4.685) scale(.14)" d="m396.7 63.96c-1.522-0.0081-3.07 0.0203-4.023 0.02148l-14.69 0.01758-245.1 0.01758-4.02-0.01953h-4.449c-15.41 0.3461-31.87 0.002859-47.42 0.005859l-20.03 0.01367-4.143-0.0293-4.025 0.01562-8.035 0.003906c0.2731 2.36 0.1705 5.597 0.1484 8.037l0.001954 3.967h-0.9082l0.001954 12.01 11.98 0.001953c-0.0042-3.766 0.1099-8.343-0.07422-12.04 19.79 0.1199 39.59 0.1351 59.39 0.04492l120.8 0.007813c-0.051 4.032-0.06878 8.065-0.05078 12.1 7.996-0.2625 16.03 0.01831 24-0.1172-0.014-3.85 0.07206-8.229-0.08594-12.04 15.18 0.3296 30.65 0.04912 45.87 0.04492l98.24 0.01953-0.01562 12.15c7.819-0.2879 16.16-0.1918 24.01-0.1543l-0.01758 12.15c4.042-0.1876 7.98-0.1624 12.02-0.1524l-0.01757 12.15c4.027-0.194 7.988-0.1575 12.02-0.1465l-0.02539 12.12c3.83-0.206 8.123-0.1504 11.99-0.1074l0.00977 47.94-12.05-0.01367 0.04688 12.02-12.04-0.01563 0.03321 11.99-12.04 0.00586 0.04687 24.09c4.007-0.03 8.013-0.03658 12.02-0.01758l-0.01562 12.02c4.006-0.028 8.014-0.03267 12.02-0.01367l-0.01953 24.01c3.994-0.014 8.033-0.05953 12.02-0.01953l-0.02734 156c-3.998-0.019-7.994-0.01338-11.99 0.01562 0-7.481-0.2354-16.67 0.2656-24.04l-12.26 0.04492c-3e-3 -7.069-0.3085-17.29 0.2695-24.04l-12.27 0.04492c-3e-3 -7.072-0.3065-17.28 0.2715-24.04l-12.27 0.04492c-3e-3 -7.072-0.3055-17.28 0.2715-24.04l-12.27 0.04492 0.00586-38.38c0-6.785-0.2093-15.01 0.2617-21.66l-12.27 0.04297c-3e-3 -7.073-0.3055-17.28 0.2715-24.04l-12.28 0.04297 0.00781 24v0.00195h12l0.00195 60v0.00196l12-0.00196 0.00195 24v0.00195h12l0.00195 24v0.00195h12l0.00195 24v0.00195h12v24 0.00195h12l0.00195 12c3.894-0.012 8.129-0.1124 11.99-0.02149h0.9082c4.002-0.02 8.004-0.01246 12.01 0.01953l-0.02735-4.102 0.00196-7.955-0.01172-28.02 0.01367-7.953-0.00977-8.033-0.00195-24.03 0.03516-16.12c-0.069-5.246-0.01753-10.62-0.01953-15.88l-0.00782-4.199 0.00586-3.768-0.00781-11.99 0.00977-7.996-0.00391-16 0.01953-3.904 0.00977-8.176c-2.823 0.288-8.92 0.1145-11.98 0.1035l-0.01367-23.97c-3.959-0.059-8.022-0.01934-11.99-0.02734-0.041-4.002-0.04468-8.004-0.01368-12.01l-11.98 0.01367-0.04102-8.23 0.00391-7.646-0.00391-8.148 12.03-0.00976-0.02344-11.97 12.04 0.0039-0.03906-12 12.04 0.0039-0.02929-7.98c-0.018-4.97-0.00203-9.942 0.04687-14.91-0.3188-7.182-0.1238-17.85 0.00977-25.15l-12 0.04883c-0.058-4.015-0.05669-8.031 0.00391-12.05l-11.98 0.03906c-0.073-4.014-0.07767-8.027-0.01367-12.04l-11.99 0.03907c-0.053-3.385-0.2359-8.829 0.1191-12.05-3.885 0.123-8.201 0.04585-12.12 0.06055-0.075-4.01-0.08161-8.021-0.01563-12.03l-23.99 0.0293c-0.0519-3.35-0.06497-6.701-0.04297-10.05-0.054-1.034 0.11-1.069-0.375-1.803-0.854-0.1466-2.351-0.1911-3.873-0.1992l-0.0039-0.001954zm-20.69 168.1c0.011-3.945-0.02186-8.117 0.207-12.04v-0.00195l-24.18 0.02343v0.00196l-0.02148 144c-3.999-0.02-7.998-0.01633-12 0.01367l0.00195 12c3.806-0.01159 8.237-0.1397 11.99-0.01562 3.891-0.027 8.153-0.1097 12.01 0.07031l-0.01953-24.18v-8.088l-0.02539-7.951 0.04102-7.863c0.201-11.57 0.02966-22.75 0.02343-34.3l-0.01562-61.68 11.98 0.00586zm-35.99 132c0-7.483-0.2354-16.67 0.2656-24.04l-12.26 0.04492 0.00196 24h12zm-12-24c-4e-3 -7.076-0.3075-17.28 0.2695-24.05l-12.27 0.04687 0.00196 24 12 0.00195zm-12-24c-4e-3 -7.075-0.3075-17.28 0.2695-24.05l-12.27 0.04492c-0.016-7.603-0.2209-16.52 0.127-24.06v-0.00195c-3.931 0.102-8.158 0.03969-12.11 0.05469l0.00391-96.01-12.04-0.03515 0.02734 12.04-12.03-0.04883c0.019 3.797-0.0772 8.314 0.09179 12.05-4.03-0.039-8.06-0.05387-12.09-0.04687 0.019 3.797-0.07816 8.308 0.08984 12.04l-24.09-0.04688c0.017 3.722-0.09434 8.408 0.09766 12.05-15.84-0.272-32.18-0.07868-48.05-0.01368l-0.02344 192c-3.999-0.022-7.997-0.01828-12 0.01172l0.00782 12c3.918-0.0097 8.067-0.09072 11.97-0.01172 0.00327-2e-5 0.0065 3e-5 0.00977 0h0.8984c0.9844-0.00724 1.969-0.00654 2.953-0.00976 2.721-0.00607 5.441-0.00586 8.162 0.01953v-0.00586c0.3029 2e-3 0.6053 0.00481 0.9082 0.00781l-0.08203-4.043 0.03125-7.982c-0.3099-0.0143-0.6132-0.02937-0.9082-0.04687v-0.00196l0.01953-27.98 0.00977-7.98-0.00586-8.031 0.01562-15.75v-8.244l-0.00976-16-0.00977-15.88 0.00977-16.1 0.01172-20.07 0.00195-11.76c-0.036-2.711-0.02199-5.422 0.04101-8.133l-0.02734-24.01c0.05486 6.7e-4 0.1112-6.6e-4 0.166 0 0.0013 2e-5 0.0026-2e-5 0.0039 0 7.849 0.09475 15.81 0.03507 23.75 0.00586 0.9774-0.0036 1.948 0.00346 2.924 0 3.074-0.01083 6.159 0.00412 9.207 0.0039v-0.00195c-0.04299-3.97 0.00801-8.025 0.01563-12l23.97 0.0039v-0.00195c-0.05799-3.95 0.01002-8.044 0.01953-12.01l11.98 0.00391v-0.00195c-0.05699-3.948 0.01002-8.04 0.01953-12l11.95-0.00391-0.01172 84.01v0.00195l12.01-0.00585-0.01367 12v0.00195h11.99l0.00586 24 12 0.00195zm-144 96c-1e-3 -7.481-0.2373-16.67 0.2637-24.04l-12.26 0.04297 0.00195 24h12zm-12-24c-4e-3 -7.075-0.3094-17.28 0.2676-24.04l-12.27 0.04492 0.00195 24h12zm-12-24c-5e-3 -7.072-0.3104-17.28 0.2676-24.04l-12.27 0.04492 0.00391 24h12zm-12-24c-4e-3 -7.074-0.3075-17.28 0.2695-24.04l-12.27 0.04492 0.00391 24h12zm-12-24c0.12-15.94 0.1177-31.87-0.00976-47.81 0.256-32.08 0.2354-64.15-0.06055-96.23 9.416 0.34 18.66-0.02022 28.04 0.05078 22.43 0.17 45.13-0.2944 67.53 0.05859l0.5098 0.05079c-0.08199-3.986-0.02251-8.154-0.02149-12.15v-0.00195l-108 0.01953v0.00195l0.01562 156 12-0.00195zm95.99-156 11.53 0.07617 0.5215 0.01562c-0.078-7.269-0.4874-17.15 0.1816-24.11l-12.23 0.06054v0.00196c0.00202 7.868 0.138 16.12 0 23.96zm0-23.96c-0.03-3.697-0.09879-8.439 0.2422-12.05l-96.24 0.05273 0.01758 11.99 95.98 0.00976zm-96-12c-0.028-3.7-0.09689-8.437 0.2441-12.05l-24.24 0.05273 0.01562 11.99 23.98 0.00781zm-24-12c-0.0294-3.697-0.0999-8.439 0.2422-12.05l-24.24 0.05273 0.01758 11.99 23.98 0.00781zm-24-12c-0.0282-3.703-0.09556-8.434 0.2441-12.05l-24.25 0.05273 0.02539 11.99 23.98 0.00976zm216 71.97 61.85 0.02539c11.21-0.038 22.42-0.0184 33.63 0.0586l0.5195 0.05469c-0.084-3.971-0.01944-8.167-0.02344-12.16l-83.93 0.01171c-0.104-7.949-0.04841-16.03-0.06641-23.99 27.77 0.318 56.14 0.00253 83.98 0.01953-0.026-3.704-0.09491-8.437 0.2461-12.05l-96.24 0.04297 0.01758 47.98zm-0.01758-47.98c-0.026-3.703-0.1047-8.431 0.2363-12.04l-12.22 0.04101-0.02539 12.08c4.003-0.079 8.007-0.1042 12.01-0.07422zm-11.98-12c-0.042-3.688-0.1183-8.434 0.2227-12.04l-12.22 0.04297v12.23c4.065-0.274 7.936-0.1935 12-0.2305zm-12-12c-0.043-3.734-0.1113-8.381 0.2207-12.04l-12.22 0.04102 0.00195 12.23c3.964-0.2688 8.021-0.2244 12-0.2324zm120 36.02 0.00976 23.96 11.52 0.08984 0.502 0.03711c-0.057-7.263-0.4688-17.21 0.1992-24.14l-12.23 0.0625z" fill="#dc3a39"/>
 <path transform="translate(-2.23 -4.685) scale(.14)" d="m21.9 75.9c-1.675 0.02304-3.302 0.1052-4.459 0.3262-0.3857 0.07367-0.7186 0.162-0.9844 0.2695-0.1888 0.2029-0.2956 0.3376-0.3613 0.4668-0.02155 0.04248-0.04071 0.08538-0.05469 0.1289v0.001953c-0.05607 0.1763-0.0622 0.3809-0.1133 0.7598v0.001953 0.001953l0.1094 6.631c-0.0052 5.136-0.05847 10.37-0.005859 15.5l11.98 0.02929 0.001953 7.875-0.001953 4.047c3.996 0.0556 7.992 0.07645 11.99 0.06055l0.0332 11.99c2.349 5e-3 5.269-0.07036 7.572 0.05664l12.58-0.04687 3.828 0.02343 0.01367 11.96c7.934 5e-3 16.07-0.08284 23.98 0.03516l0.001953 16.29 0.01758 11.67-0.003906 31.97-0.01367 8.117 0.003906 7.838 0.003906 20.29-0.001953 23.76 0.003907 8.24-0.007813 7.758 0.01758 20.08-0.01953 15.99 0.007812 11.96 0.009766 8.016c3.952-0.01 8.036-0.07195 11.98-0.00195l0.00781 7.9 0.02149 16.11c3.955-0.01 8.018-0.06866 11.96-0.00586l0.03516 24.01c3.957-0.01 8.017-0.06766 11.96-0.00586l0.01953 7.973 0.01172 16.03c3.957-9e-3 8.026-0.06695 11.97-0.00195l0.02734 11.93 0.00586 8.145-0.01953 3.916 7.99-0.04102 4.006 0.05078 0.03126 3.992-0.0254 7.879c-0.01 3.915-0.09878 8.195 0.07422 12.08l4.107 0.03516c2.557-0.036 5.245 0.00902 7.811 0.01562l0.03516 11.99 23.88-0.0039c-0.0182-11.88-0.1716-24.14 0.03125-35.98-3.9-0.079-8.049 0.00202-11.97 0.01172l-0.00782-12h-12l-0.00195-24h-12l-0.00195-24h-12l-0.00391-24h-12l-0.00391-24-12 0.00195-0.01562-156 108-0.01953c0.138-7.833 2e-3 -16.09 0-23.96l-95.98-0.00976-0.01758-11.99-23.98-0.00781-0.01562-11.99-23.98-0.00781-0.01758-11.99-23.98-0.00976-0.02539-11.99-11.98-0.001953-0.001954-12.01c-4.044-0.0513-8.087-0.07737-12.13-0.07617-1.407 0.0114-3.727-0.06198-5.961-0.03125zm282.1 60.1c0.018 7.959-0.03759 16.04 0.06641 23.99l83.93-0.01171-0.00976-23.96c-27.84-0.017-56.21 0.2985-83.98-0.01953z" fill="#691728"/>
</svg>
