<svg xmlns="http://www.w3.org/2000/svg" fill="none" viewBox="0 0 64 64"><defs><linearGradient id="a" x1="32" x2="32" y1="57" y2="7" gradientUnits="userSpaceOnUse"><stop offset="0" stop-color="#fda700"/><stop offset="1" stop-color="#ffde00"/></linearGradient><linearGradient id="b" x1="24.92" x2="40.28" y1="34.15" y2="27.03" gradientUnits="userSpaceOnUse"><stop offset="0" stop-color="#fd3a84"/><stop offset="1" stop-color="#ffa68d"/></linearGradient><linearGradient id="c" x1="37.45" x2="33.57" y1="32.29" y2="49.83" gradientUnits="userSpaceOnUse"><stop offset="0" stop-color="#fd5900"/><stop offset="1" stop-color="#ffde00"/></linearGradient><linearGradient id="f" x1="34.3" x2="17.97" y1="43.85" y2="36.57" gradientUnits="userSpaceOnUse"><stop offset="0" stop-color="#00b59c"/><stop offset="1" stop-color="#9cffac"/></linearGradient><linearGradient id="g" x1="31.99" x2="32.03" y1="43.09" y2="32.77" gradientUnits="userSpaceOnUse"><stop offset="0" stop-color="#5570ff"/><stop offset="1" stop-color="#4dd3ff"/></linearGradient></defs><path stroke="url(#a)" stroke-width="4" d="M24.21 7a.5.5 0 0 0-.353.146l-3.707 3.707a.5.5 0 0 0-.147.354V17h-15.5a.5.5 0 0 0-.5.5V54c0 1.662 1.338 3 3 3h50c1.662 0 3-1.338 3-3V17.5a.5.5 0 0 0-.5-.5h-15.5v-5.793a.5.5 0 0 0-.146-.354L40.15 7.146A.5.5 0 0 0 39.796 7h-15.59zm-.207 4.5a.5.5 0 0 1 .5-.5h15a.5.5 0 0 1 .5.5V17h-16z" transform="translate(-2.133 -2.133)scale(1.067)"/><path fill="url(#b)" stroke="url(#b)" stroke-width="2" d="M21.9 28a.78.78 0 0 1 .163-.833c2.287-2.324 5.402-3.824 8.658-4.106 4.212-.412 8.577 1.235 11.44 4.36.515.583.038 1.681-.76 1.634-.46.06-.788-.318-1.083-.606-1.305-1.295-2.82-2.451-4.592-3.014-1.714-.545-3.547-.5-5.311-.28-2.327.25-4.521 1.31-6.288 2.824.672 2.066 1.617 4.04 2.356 6.087l.34-.079c-.817 1.344-1.032 2.989-.678 4.516l-.002.159c-1.388-3.564-2.844-7.101-4.24-10.66z" transform="translate(-2.133 -2.133)scale(1.067)"/><path fill="url(#c)" stroke="url(#c)" stroke-width="2" d="M33.05 31.06c3.696-.045 7.393-.011 11.09-.021a.78.78 0 0 1 .722.462c1.284 2.95 1.49 6.351.604 9.441-1.326 4.718-5.29 8.583-10.05 9.759-.47.1-.95.288-1.436.183-.637-.183-.945-1.044-.528-1.575.285-.443.85-.443 1.313-.542 1.355-.209 2.694-.658 3.817-1.457 1.101-.76 1.99-1.778 2.823-2.812 1.482-1.89 2.451-4.212 2.571-6.622.075-1.623-.14-3.268-.68-4.802-2.257-.039-4.514.003-6.773-.02-.864-1.058-2.147-1.712-3.468-1.995z" transform="translate(-2.133 -2.133)scale(1.067)"/><path fill="url(#f)" stroke="url(#f)" stroke-width="2" d="M21.06 31.22c-.318-.734-1.508-.727-1.8.028-1.18 2.555-1.529 5.477-1.049 8.248.52 3.023 2.09 5.838 4.339 7.92 1.982 1.802 4.475 3.073 7.128 3.495.06.01.119.032.18.035.182.007.268-.22.365-.349 2.094-3.198 4.27-6.346 6.336-9.562-1.012 1.025-2.3 1.803-3.744 1.997-1.248 1.896-2.527 3.775-3.757 5.685a12.5 12.5 0 0 1-5.305-2.892c-3.268-3.119-4.61-8.13-3.162-12.44.145-.72.806-1.412.469-2.168z" transform="translate(-2.133 -2.133)scale(1.067)"/><path fill="url(#g)" stroke="url(#g)" stroke-width="2" d="M29.78 31.45c1.032-.42 2.165-.445 3.261-.391 1.321.283 2.605.936 3.468 1.994.857 1.098 1.489 2.428 1.486 3.845.074 1.505-.533 2.968-1.442 4.142-1.012 1.025-2.299 1.803-3.744 1.997-1.441.189-2.973-.125-4.17-.967-1.229-.84-2.044-2.166-2.498-3.562-.354-1.526-.14-3.172.679-4.516.726-1.098 1.714-2.068 2.96-2.542zm1.376 1.696c-1.154.247-2.189 1.024-2.706 2.092-.789 1.46-.496 3.398.66 4.582 1.002 1.082 2.632 1.526 4.04 1.066 1.92-.546 3.193-2.677 2.757-4.629-.396-2.1-2.653-3.623-4.75-3.111z" transform="translate(-2.133 -2.133)scale(1.067)"/></svg>