<svg fill="none" version="1.1" viewBox="0 0 64 64" xmlns="http://www.w3.org/2000/svg">
 <defs>
  <linearGradient id="a" x1="32" x2="32" y1="57" y2="7" gradientTransform="matrix(1.1 0 0 1.1 -3.202 -3.201)" gradientUnits="userSpaceOnUse">
   <stop stop-color="#fda700" offset="0"/>
   <stop stop-color="#ffde00" offset="1"/>
  </linearGradient>
  <linearGradient id="b" x1="24.92" x2="40.28" y1="34.15" y2="27.03" gradientUnits="userSpaceOnUse">
   <stop stop-color="#fd3a84" offset="0"/>
   <stop stop-color="#ffa68d" offset="1"/>
  </linearGradient>
  <linearGradient id="c" x1="37.45" x2="33.57" y1="32.29" y2="49.83" gradientUnits="userSpaceOnUse">
   <stop stop-color="#fd5900" offset="0"/>
   <stop stop-color="#ffde00" offset="1"/>
  </linearGradient>
  <linearGradient id="f" x1="34.3" x2="17.97" y1="43.85" y2="36.57" gradientUnits="userSpaceOnUse">
   <stop stop-color="#00b59c" offset="0"/>
   <stop stop-color="#9cffac" offset="1"/>
  </linearGradient>
  <linearGradient id="g" x1="31.99" x2="32.03" y1="43.09" y2="32.77" gradientUnits="userSpaceOnUse">
   <stop stop-color="#5570ff" offset="0"/>
   <stop stop-color="#4dd3ff" offset="1"/>
  </linearGradient>
 </defs>
 <path transform="translate(4.206 4.21) scale(.8681)" d="m22.86-1.33a1.65 1.65 0 0 0-0.0043 0.00215c-1.208 0.00245-2.368 0.4813-3.225 1.336a1.65 1.65 0 0 0-0.0043 0.002148l-4.351 4.355c-0.8597 0.8588-1.343 2.025-1.343 3.24v2.802h-14.2c-2.52 0-4.583 2.067-4.583 4.585v42.84c0 4.121 3.396 7.52 7.517 7.52h58.68c4.122 0 7.52-3.398 7.52-7.52v-42.84c0-2.52-2.065-4.585-4.585-4.585h-14.19v-2.797c0.0017-1.216-0.4816-2.381-1.338-3.24a1.65 1.65 0 0 0-0.01074-0.01074l-0.0064-0.00645-4.34-4.342a1.65 1.65 0 0 0-0.0021-0.002148c-0.8604-0.8584-2.026-1.34-3.242-1.338h-18.29zm2.112 9.391h14.09a1.65 1.65 0 0 1 1.65 1.65v2.346a1.65 1.65 0 0 1-1.65 1.65h-14.09a1.65 1.65 0 0 1-1.65-1.65v-2.346a1.65 1.65 0 0 1 1.65-1.65zm-21.82 10.34h57.73v38.95h-57.73z" fill="url(#a)" stop-color="#000000" stroke-linecap="round" stroke-linejoin="round" stroke-width="1.1"/>
 <path transform="translate(4.206 4.21) scale(.8681) translate(-2.133 -2.133) scale(1.067)" d="M21.9 28a.78.78 0 0 1 .163-.833c2.287-2.324 5.402-3.824 8.658-4.106 4.212-.412 8.577 1.235 11.44 4.36.515.583.038 1.681-.76 1.634-.46.06-.788-.318-1.083-.606-1.305-1.295-2.82-2.451-4.592-3.014-1.714-.545-3.547-.5-5.311-.28-2.327.25-4.521 1.31-6.288 2.824.672 2.066 1.617 4.04 2.356 6.087l.34-.079c-.817 1.344-1.032 2.989-.678 4.516l-.002.159c-1.388-3.564-2.844-7.101-4.24-10.66z" fill="url(#b)" stroke="url(#b)" stroke-width="2"/>
 <path transform="translate(4.206 4.21) scale(.8681) translate(-2.133 -2.133) scale(1.067)" d="M33.05 31.06c3.696-.045 7.393-.011 11.09-.021a.78.78 0 0 1 .722.462c1.284 2.95 1.49 6.351.604 9.441-1.326 4.718-5.29 8.583-10.05 9.759-.47.1-.95.288-1.436.183-.637-.183-.945-1.044-.528-1.575.285-.443.85-.443 1.313-.542 1.355-.209 2.694-.658 3.817-1.457 1.101-.76 1.99-1.778 2.823-2.812 1.482-1.89 2.451-4.212 2.571-6.622.075-1.623-.14-3.268-.68-4.802-2.257-.039-4.514.003-6.773-.02-.864-1.058-2.147-1.712-3.468-1.995z" fill="url(#c)" stroke="url(#c)" stroke-width="2"/>
 <path transform="translate(4.206 4.21) scale(.8681) translate(-2.133 -2.133) scale(1.067)" d="M21.06 31.22c-.318-.734-1.508-.727-1.8.028-1.18 2.555-1.529 5.477-1.049 8.248.52 3.023 2.09 5.838 4.339 7.92 1.982 1.802 4.475 3.073 7.128 3.495.06.01.119.032.18.035.182.007.268-.22.365-.349 2.094-3.198 4.27-6.346 6.336-9.562-1.012 1.025-2.3 1.803-3.744 1.997-1.248 1.896-2.527 3.775-3.757 5.685a12.5 12.5 0 0 1-5.305-2.892c-3.268-3.119-4.61-8.13-3.162-12.44.145-.72.806-1.412.469-2.168z" fill="url(#f)" stroke="url(#f)" stroke-width="2"/>
 <path transform="translate(4.206 4.21) scale(.8681) translate(-2.133 -2.133) scale(1.067)" d="M29.78 31.45c1.032-.42 2.165-.445 3.261-.391 1.321.283 2.605.936 3.468 1.994.857 1.098 1.489 2.428 1.486 3.845.074 1.505-.533 2.968-1.442 4.142-1.012 1.025-2.299 1.803-3.744 1.997-1.441.189-2.973-.125-4.17-.967-1.229-.84-2.044-2.166-2.498-3.562-.354-1.526-.14-3.172.679-4.516.726-1.098 1.714-2.068 2.96-2.542zm1.376 1.696c-1.154.247-2.189 1.024-2.706 2.092-.789 1.46-.496 3.398.66 4.582 1.002 1.082 2.632 1.526 4.04 1.066 1.92-.546 3.193-2.677 2.757-4.629-.396-2.1-2.653-3.623-4.75-3.111z" fill="url(#g)" stroke="url(#g)" stroke-width="2"/>
</svg>
