<svg xmlns="http://www.w3.org/2000/svg" fill-rule="evenodd" stroke-linejoin="round" stroke-miterlimit="2" clip-rule="evenodd" viewBox="0 0 64 64"><linearGradient id="a" x2="1" gradientTransform="rotate(-90.172 124.85 -78.474)scale(45.3402)" gradientUnits="userSpaceOnUse" transform="translate(-1.737 -1.737)scale(1.406)"><stop offset="0" stop-color="#971e1e"/><stop offset="1" stop-color="#d07a8a"/></linearGradient><linearGradient id="b" x2="1" gradientTransform="rotate(-68.5 126.49 -57.873)scale(31.6)" gradientUnits="userSpaceOnUse" transform="translate(-1.737 -1.737)scale(1.406)"><stop offset="0" stop-color="#69c215"/><stop offset="1" stop-color="#cae294"/></linearGradient><g fill-rule="nonzero"><path fill="url(#a)" d="M24 1.236a23 23 0 0 0-3.445.28C18.422 3.486 3.163 18.637 1.551 20.388q-.03.191-.057.384a53 53 0 0 0 1.945-1.687c.391-.354.873-.773 1.072-.931.198-.159.565-.477.814-.705A122 122 0 0 1 8.12 14.97c.235-.196 1.145-.996 2.024-1.779.878-.782 2.014-1.782 2.523-2.223s1.566-1.401 2.348-2.134c1.507-1.413 6.165-5.544 6.682-5.926.169-.126.326-.21.349-.187.051.051-.243.543-1.278 2.141-.435.67-2.131 3.3-3.77 5.842l-4.522 7.009-4.162 6.451-4.179 6.477a57 57 0 0 0-1.205 1.935 22.76 22.76 0 0 0 19.431 14.106c.65.007-.365-.044.65.007 2.845-10.683 5.217-29.111 11.478-42.2.264-.551-.704-.673-.579-.95A22.8 22.8 0 0 0 24 1.236" transform="translate(-1.737 -1.737)scale(1.406)"/><g fill="#d8d342"><path d="m.454 26.916-.01.013q-.038.233-.072.468.04-.24.082-.481M42.39 1.792v.006q.405.128.806.265a32 32 0 0 0-.806-.27M45.641 3.11l.297.133.002-.004q-.149-.065-.299-.128"/></g><path fill="url(#b)" d="M22.046 2.721c-.023-.023-.18.061-.349.187-.517.382-5.175 4.513-6.682 5.926a98 98 0 0 1-2.348 2.134c-.509.441-1.645 1.441-2.523 2.223-.879.783-1.789 1.583-2.024 1.779a122 122 0 0 0-2.795 2.479c-.249.228-.616.546-.814.705-.199.158-.681.577-1.072.931a53 53 0 0 1-1.945 1.687A23 23 0 0 0 1.236 24a22.8 22.8 0 0 0 2.921 11.131v-.054l-.205-.344q-.225-.445-.433-.901a22 22 0 0 1-.589-1.256c.282-.477.678-1.121 1.205-1.935l4.179-6.477 4.162-6.451 4.522-7.009c1.639-2.542 3.335-5.172 3.77-5.842 1.035-1.598 1.329-2.09 1.278-2.141m-1.505-1.192c-9.716 1.507-17.408 9.145-18.983 18.85 1.625-1.763 16.83-16.858 18.983-18.85" transform="translate(-1.737 -1.737)scale(1.406)"/><path fill="#778b3c" d="M63.81 35.34 35.312 63.838c14.988-1.57 26.94-13.517 28.5-28.5"/><path fill="#eddf36" d="M45.938 3.243c-.176.387-.303.68-.672 1.452C36.463 23.1 30.913 42.925 29.998 59.23a365 365 0 0 1-.25 4.073l-.044.582q1.15.105 2.303.128 1.652-.002 3.294-.174l28.503-28.504a32 32 0 0 0 .21-3.328A32 32 0 0 0 45.937 3.243M35.3 63.84C50.32 62.266 62.195 50.41 63.795 35.395c-1.6 15.015-13.476 26.87-28.494 28.444m-5.597.046v.013z"/></g></svg>