<svg xmlns="http://www.w3.org/2000/svg" fill="none" viewBox="0 0 64 64"><defs><linearGradient id="a" x1="99.59" x2="99.59" y1="70.86" y2="12" gradientUnits="userSpaceOnUse"><stop offset="0" stop-color="#fd5900"/><stop offset="1" stop-color="#ffde00"/></linearGradient><linearGradient id="b" x1="56.49" x2="56.49" y1="46.89" y2="35.24" gradientUnits="userSpaceOnUse"><stop offset="0" stop-color="#fd5900"/><stop offset="1" stop-color="#ffde00"/></linearGradient><linearGradient id="e" x1="26.89" x2="26.89" y1="115.9" y2="55.2" gradientUnits="userSpaceOnUse"><stop offset="0" stop-color="#fd5900"/><stop offset="1" stop-color="#ffde00"/></linearGradient><linearGradient id="f" x1="85.78" x2="85.78" y1="115.9" y2="55.22" gradientUnits="userSpaceOnUse"><stop offset="0" stop-color="#fd5900"/><stop offset="1" stop-color="#ffde00"/></linearGradient></defs><path fill="url(#a)" d="M113.1 12.32c4.43-1.37 9.365 1.85 10.68 6.474 4.242 14.56 4.307 30.51.073 45.09-1.101 3.988-4.682 7.137-8.646 6.963-2.341.14-4.389-1.204-6.322-2.426-11.26-7.102-22.66-13.96-33.88-21.14-3.858-2.626-3.695-9.406.253-11.86 11-6.91 22.06-13.69 33.07-20.57 1.54-.934 3.067-1.963 4.77-2.53zM85.08 41.33c9.682 6.596 19.84 12.46 29.76 18.67 3.148-12.03 3.303-25.02-.041-37.03-9.968 6.012-19.81 12.25-29.72 18.36z" transform="translate(-1.024 -.736)scale(.5121)"/><path fill="url(#b)" d="M54.29 35.76c3.777-2.016 8.565 2.138 7.464 6.509-.595 4.275-6.134 6.186-8.964 3.097-2.855-2.626-2.048-8.158 1.501-9.606z" transform="translate(-1.024 -.736)scale(.5121)"/><path fill="url(#e)" d="M42.77 55.72c4.087-1.963 9.201 1.937 8.973 6.692.049 14.54.016 29.08.016 43.62.261 5.567-4.845 10.82-10.08 9.668-13.54-2.932-26.09-10.55-35.75-21.08-2.537-2.408-4.47-5.951-3.793-9.694.384-3.167 2.414-5.863 5.041-7.277 11.9-7.242 23.61-14.86 35.6-21.93zM12.33 86.38c7.61 9.519 18.49 15.72 29.75 18.8 0-12.41.008-24.81 0-37.21-9.886 6.186-19.76 12.39-29.75 18.41" transform="translate(-1.024 -.736)scale(.5121)"/><path fill="url(#f)" d="M64.95 55.79c2.17-1.073 4.698-.541 6.648.811 11.53 7.198 23.1 14.32 34.62 21.53 4.764 2.722 5.93 10.23 2.309 14.49-9.805 11.56-23.05 19.83-37.34 23.07-4.968 1.108-10.12-3.464-10.22-8.848-.082-14.81-.073-29.62-.016-44.44-.074-2.818 1.623-5.48 4.005-6.614zm5.669 12.53c-.008 12.27.008 24.54-.008 36.81 11.37-2.897 21.83-9.51 29.86-18.57-10-5.986-19.69-12.6-29.86-18.24z" transform="translate(-1.024 -.736)scale(.5121)"/></svg>