<svg xmlns="http://www.w3.org/2000/svg" style="isolation:isolate" viewBox="0 0 64 64"><linearGradient id="a" x1="0" x2="1" y1=".5" y2=".5" gradientTransform="matrix(47.06 0 0 46.98 .495 .559)" gradientUnits="userSpaceOnUse" transform="translate(-.673 -.71)scale(1.36)"><stop offset="0" stop-color="#00c6ff"/><stop offset=".987" stop-color="#0072ff"/></linearGradient><path fill="url(#a)" fill-rule="evenodd" d="M23.5 9a1.6 1.6 0 0 0-.307.033c-7.907.421-14.19 6.954-14.19 14.97 0 8.284 6.716 15 15 15 8.01 0 14.54-6.282 14.97-14.19a1.5 1.5 0 0 0-1.467-1.814 1.5 1.5 0 0 0-1.498 1.469c-.001.004-.012.005-.012.01-.251 6.405-5.523 11.52-11.99 11.52-6.627 0-12-5.373-12-12 0-6.463 5.11-11.73 11.51-11.99.003 0 .006-.009.01-.01a1.5 1.5 0 0 0-.02-3zm0 6q-.204 0-.4.055h-.002C18.552 15.509 15 19.335 15 24a9 9 0 0 0 9 9c4.667 0 8.494-3.555 8.945-8.104Q33 24.702 33 24.5a1.5 1.5 0 0 0-2.996-.074c-.006.011-.021.02-.022.033a6 6 0 1 1-6.382-6.445c.009-.001.015-.015.023-.02A1.5 1.5 0 0 0 23.5 15m.5 6a3 3 0 1 0 0 6 3 3 0 0 0 0-6m-1.583 22.27a2.139 2.139 0 1 1-.359 4.264 23.53 23.53 0 0 1-15.43-7.594A23.57 23.57 0 0 1 .495 23.87 23.59 23.59 0 0 1 7.533 7.29c4.456-4.367 10.47-6.793 16.7-6.737s12.2 2.592 16.58 7.038a23.58 23.58 0 0 1 6.737 16.7 2.14 2.14 0 0 1-4.278-.039 19.27 19.27 0 0 0-5.513-13.66c-3.582-3.637-8.462-5.713-13.56-5.759s-10.02 1.941-13.66 5.513a19.271 19.271 0 0 0-.744 26.71 19.27 19.27 0 0 0 12.63 6.211zm18.57-10.08a2.14 2.14 0 0 1 2.896-.873 2.14 2.14 0 0 1 .872 2.896 23.6 23.6 0 0 1-10.67 10.14 2.136 2.136 0 0 1-2.851-1.01 2.15 2.15 0 0 1 1.015-2.857 19.3 19.3 0 0 0 8.738-8.295z" transform="translate(-.673 -.71)scale(1.36)"/></svg>