<svg xmlns="http://www.w3.org/2000/svg" style="isolation:isolate" viewBox="0 0 64 64"><linearGradient id="a" x1=".472" x2=".577" y1=".976" y2=".104" gradientTransform="matrix(44.39 0 0 47.5 1.807 .25)" gradientUnits="userSpaceOnUse" transform="translate(-.337 -.337)scale(1.347)"><stop offset="0" stop-color="#ffe53b"/><stop offset=".987" stop-color="#ff005b"/></linearGradient><path fill="url(#a)" fill-rule="evenodd" d="m30.39 24.14-5.321 2.66c2.135 3.587 6.627 5.455 10.2 3.461 3.57-1.995 4.748-6.374 2.613-9.866l-5.622 2.812c.728 2.156.005 4.97-1.833 7.582h-.017c1.087-2.051 1.076-4.436-.017-6.649zm-14.64-.933-5.622-2.812c-2.135 3.492-.957 7.871 2.613 9.866s8.062.126 10.2-3.461l-5.321-2.66c-1.093 2.213-1.104 4.598-.017 6.649h-.017c-1.838-2.612-2.561-5.426-1.833-7.582zm8.255 1.752a1 1 0 0 0-.117-.069l-12.81-6.405a2.12 2.12 0 0 0-1.537-.139c-.513.139-.95.47-1.228.929a9.3 9.3 0 0 0-1.388 4.846 9.21 9.21 0 0 0 4.783 8.006 8.47 8.47 0 0 0 4.195 1.078 9.8 9.8 0 0 0 5.092-1.484 10.9 10.9 0 0 0 3.01-2.722 10.9 10.9 0 0 0 3.01 2.722 9.8 9.8 0 0 0 5.092 1.484 8.47 8.47 0 0 0 4.195-1.078 9.21 9.21 0 0 0 4.783-8.006 9.3 9.3 0 0 0-1.388-4.846 2.07 2.07 0 0 0-1.228-.929 2.12 2.12 0 0 0-1.537.139l-12.81 6.405a1 1 0 0 0-.117.069m-18.99.603c0-5.038 1.997-9.874 5.562-13.43a18.97 18.97 0 0 1 26.86 0 18.96 18.96 0 0 1 5.562 13.43c0 5.039-1.997 9.864-5.562 13.43-3.555 3.565-8.39 5.562-13.43 5.562s-9.874-1.997-13.43-5.562a18.98 18.98 0 0 1-5.562-13.43m35.4-14.95a22.204 22.204 0 0 1-.72 30.64c-4.153 4.163-9.81 6.501-15.69 6.501s-11.54-2.338-15.69-6.501a22.2 22.2 0 0 1-6.501-15.69c0-5.359 1.934-10.52 5.416-14.54L3.999.252c2.43 3.646 6.099 5.611 9.347 5.854a22.031 22.031 0 0 1 20.83-.265c3.307-.015 7.179-1.8 9.842-5.405l-3.596 10.18z" transform="translate(-.337 -.337)scale(1.347)"/></svg>