<svg xmlns="http://www.w3.org/2000/svg" viewBox="0 0 64 64"><defs><linearGradient id="a" x1="1" x2="0" y2="1"><stop offset="0" stop-color="#00efff"/><stop offset="1" stop-color="#07f"/></linearGradient></defs><path fill="url(#a)" d="M25 1c-2.735 0-5 2.265-5 5v17h19c.589 0 1 .411 1 1v19h17c2.735 0 5-2.265 5-5V6c0-2.735-2.265-5-5-5zm0 4h32c.589 0 1 .411 1 1v32c0 .589-.411 1-1 1H44V24c0-2.735-2.265-5-5-5H24V6c0-.589.411-1 1-1" transform="translate(-2.133 -1.067)scale(1.06668)"/><path fill="url(#a)" d="M30 12a1 1 0 0 0-1 1v1a1 1 0 0 0 1 1h22a1 1 0 0 0 1-1v-1a1 1 0 0 0-1-1zm0 6a1 1 0 0 0-1 1v1a1 1 0 0 0 1 1h22a1 1 0 0 0 1-1v-1a1 1 0 0 0-1-1zm13 6a1 1 0 0 0-1 1v1a1 1 0 0 0 1 1h9a1 1 0 0 0 1-1v-1a1 1 0 0 0-1-1zm0 6a1 1 0 0 0-1 1v1a1 1 0 0 0 1 1h1a1 1 0 0 0 1-1v-1a1 1 0 0 0-1-1z" transform="translate(-2.133 -1.067)scale(1.06668)"/><path fill="url(#a)" d="M7 19c-2.735 0-5 2.265-5 5v32c0 2.735 2.265 5 5 5h32c2.735 0 5-2.265 5-5V24c0-2.735-2.265-5-5-5zm0 4h32c.589 0 1 .411 1 1v32c0 .589-.411 1-1 1H7c-.589 0-1-.411-1-1V24c0-.589.411-1 1-1" transform="translate(-2.133 -1.067)scale(1.06668)"/><path fill="url(#a)" d="M12 30a1 1 0 0 0-1 1v1a1 1 0 0 0 1 1h22a1 1 0 0 0 1-1v-1a1 1 0 0 0-1-1zm0 6a1 1 0 0 0-1 1v1a1 1 0 0 0 1 1h22a1 1 0 0 0 1-1v-1a1 1 0 0 0-1-1zm0 6a1 1 0 0 0-1 1v1a1 1 0 0 0 1 1h22a1 1 0 0 0 1-1v-1a1 1 0 0 0-1-1zm0 6a1 1 0 0 0-1 1v1a1 1 0 0 0 1 1h14a1 1 0 0 0 1-1v-1a1 1 0 0 0-1-1z" transform="translate(-2.133 -1.067)scale(1.06668)"/></svg>