<svg xmlns="http://www.w3.org/2000/svg" style="isolation:isolate" viewBox="0 0 64 64"><linearGradient id="a" x2="1" y1=".5" y2=".5" gradientTransform="matrix(44.47 0 0 40.32 1.532 4)" gradientUnits="userSpaceOnUse" transform="translate(-2.205 -2.775)scale(1.439)"><stop offset="0" stop-color="#ffe031"/><stop offset=".987" stop-color="#fc5252"/></linearGradient><path fill="url(#a)" fill-rule="evenodd" d="m12.26 10.29-2.149-1.504-1.146 1.636c-2.89 4.129-4.02 9.246-3.146 14.2s3.692 9.373 7.812 12.26c4.112 2.879 9.196 4.022 14.14 3.164s9.346-3.637 12.25-7.732l1.226-1.726-2.151-1.507-1.216 1.712a16.2 16.2 0 0 1-5.472 4.885 1.995 1.995 0 0 1-2.71-.793 2 2 0 0 1 .785-2.716c1.643-.9 3.051-2.16 4.14-3.681l1.198-1.7-9.804-6.865c-.937-.655-1.183-1.922-.549-2.826.633-.904 1.907-1.106 2.843-.451l16.8 11.77a2.07 2.07 0 0 1 .509 2.883l-.612.874.014.01-1.738 2.446a23 23 0 0 1-14.83 9.365A23.02 23.02 0 0 1 1.875 25.323a23.03 23.03 0 0 1 3.811-17.19l1.147-1.638.002.001L7.98 4.861a2 2 0 0 1 2.788-.491l9.128 6.391c.905.634 1.126 1.883.493 2.787s-1.882 1.124-2.787.49l-2.069-1.448-1.147 1.638c-1.873 2.693-2.615 6.019-2.045 9.25s2.404 6.102 5.086 7.992a12.4 12.4 0 0 0 4.764 2.018 2 2 0 1 1-.75 3.93 16.45 16.45 0 0 1-6.309-2.671A16.44 16.44 0 0 1 8.4 24.177a16.37 16.37 0 0 1 2.718-12.23l1.139-1.644zm13.38 24.36a1.5 1.5 0 1 1 2.457 1.721 1.5 1.5 0 0 1-2.457-1.721" transform="translate(-2.205 -2.775)scale(1.439)"/><linearGradient id="b" x1="-.359" x2="2.014" y1="-1.045" y2=".944" gradientTransform="matrix(16.06 0 0 13.02 13.95 18.92)" gradientUnits="userSpaceOnUse" transform="translate(-2.205 -2.775)scale(1.439)"><stop offset="0" stop-color="#ffe031"/><stop offset=".987" stop-color="#fc5252"/></linearGradient><linearGradient id="d" x1="-.371" x2="2.01" y1="-1.065" y2=".901" transform="translate(-2.205 -2.775)scale(1.439)"><stop offset="0" stop-color="#ffe031"/><stop offset=".987" stop-color="#fc5252"/></linearGradient><path fill="url(#b)" fill-rule="evenodd" stroke="url(#d)" stroke-linecap="square" stroke-miterlimit="3" d="M21.66 18.93v0c-4.218-.115-7.669.768-7.702 1.97v0c-.033 1.202.705 2.785 1.647 3.533v0c.942.747 3.837-1.329 6.46-4.635v0c.367-.463.186-.852-.405-.868zm2.471 3.448v0c-3.601 1.95-6.074 4.366-5.518 5.393v0c.556 1.026 1.944 1.998 3.099 2.169v0c1.155.172 2.58-2.978 3.18-7.029v0c.084-.567-.257-.806-.761-.533zm3.694 1.988v0c-2.028 3.301-2.91 6.449-1.97 7.027v0c.941.578 2.538.718 3.565.312v0c1.027-.406.704-3.66-.719-7.262v0c-.2-.505-.592-.539-.876-.077z" transform="translate(-2.205 -2.775)scale(1.439)" vector-effect="non-scaling-stroke"/></svg>