<svg xmlns="http://www.w3.org/2000/svg" style="isolation:isolate" viewBox="0 0 64 64"><linearGradient id="a" x1="-.014" x2="1.016" y1=".01" y2="1.072" gradientTransform="matrix(47 0 0 42.61 .5 2.693)" gradientUnits="userSpaceOnUse" transform="translate(-.68 -.68)scale(1.362)"><stop offset="0" stop-color="#f9d423"/><stop offset=".516" stop-color="#ff4e50"/><stop offset=".991" stop-color="#8a2387"/></linearGradient><path fill="url(#a)" fill-rule="evenodd" d="M10.94 20.45a3.135 3.135 0 0 1 3.134-3.134 3.135 3.135 0 1 1-3.134 3.134m10.44 0a3.135 3.135 0 0 1 3.133-3.134 3.135 3.135 0 0 1 3.134 3.134 3.135 3.135 0 0 1-6.267 0m10.44 0a3.135 3.135 0 0 1 3.134-3.134 3.135 3.135 0 1 1-3.134 3.134M20.33 6.87a2.09 2.09 0 0 1 0-4.178h22.98a4.18 4.18 0 0 1 4.178 4.178v25.07a4.18 4.18 0 0 1-4.178 4.178h-7.06l-4.183 8.357c-.516 1.031-1.496 1.119-2.188.197l-6.413-8.554h-3.134a2.09 2.09 0 0 1 0-4.178h5.223l4.867 6.486 3.238-6.486h7.561a2.09 2.09 0 0 0 2.089-2.088V8.962a2.09 2.09 0 0 0-2.089-2.089h-20.89zm-8.355 25.07a2.09 2.09 0 0 1 0 4.178H4.664A4.18 4.18 0 0 1 .486 31.94V6.87a4.18 4.18 0 0 1 4.178-4.178h7.311a2.09 2.09 0 0 1 0 4.178H6.753a2.09 2.09 0 0 0-2.089 2.089v20.89a2.09 2.09 0 0 0 2.089 2.088h5.222z" transform="translate(-.68 -.68)scale(1.362)"/></svg>