<svg xmlns="http://www.w3.org/2000/svg" style="isolation:isolate" viewBox="0 0 64 64"><linearGradient id="a" x1=".34" x2=".118" y1=".847" y2=".064" gradientTransform="matrix(27.02 0 0 41.72 19.84 2.748)" gradientUnits="userSpaceOnUse" transform="translate(-3.297 -3.297)scale(1.471)"><stop offset=".022" stop-color="#f24f5c"/><stop offset=".496" stop-color="#d067cf"/><stop offset=".983" stop-color="#0073ff"/></linearGradient><path fill="url(#a)" d="m22.43 6.438-.16-1.33.423-.668c.589-.934 1.515-.915 2.065.042l.332.576 20.32 36.78c.8 1.45.187 2.167-1.369 1.601l-22.79-8.285a1.5 1.5 0 0 1 1.02-2.82l18.39 6.69-18.23-32.59z" transform="translate(-3.297 -3.297)scale(1.471)"/><linearGradient id="b" x2="1" y1=".5" y2=".5" gradientTransform="matrix(33.53 0 0 23.38 -.273 20.87)" gradientUnits="userSpaceOnUse" transform="translate(-3.297 -3.297)scale(1.471)"><stop offset="0" stop-color="#43e97b"/><stop offset=".978" stop-color="#38f9d7"/></linearGradient><path fill="url(#b)" d="M31.76 41.25a1.5 1.5 0 0 1 0 3H4.73c-2.759 0-3.304-1.464-1.216-3.268l21.02-18.15c1.253-1.082 2.492-.635 2.764.998l.946 5.671a1.501 1.501 0 0 1-2.96.5l-.56-3.37-16.93 14.62h23.97z" transform="translate(-3.297 -3.297)scale(1.471)"/><linearGradient id="d" x1=".113" x2=".96" y1=".942" y2=".068" gradientTransform="matrix(17.05 0 0 28.69 6.707 5.108)" gradientUnits="userSpaceOnUse" transform="translate(-3.297 -3.297)scale(1.471)"><stop offset="0" stop-color="#00c6ff"/><stop offset=".987" stop-color="#0072ff"/></linearGradient><path fill="url(#d)" d="M10.06 32.5a1.5 1.5 0 0 1-2.6-1.5l11.98-20.96 2.83-4.93 1.49 3.64-1.68 2.71z" transform="translate(-3.297 -3.297)scale(1.471)"/></svg>