<svg xmlns="http://www.w3.org/2000/svg" viewBox="0 0 64 64"><defs><linearGradient id="a" x2="0" y2="1"><stop offset="0" stop-color="#00fa9f"/><stop offset="1" stop-color="#00a4eb"/></linearGradient></defs><path fill="url(#a)" d="M22.1 13.84c-2.436.055-4.866.621-7.299 1.482 0 0 1.051 2.938 4.378 6.064 7.588 7.131 4.214 14.88 4.214 14.88s5.636-8.674-2.539-16.52c-1.578-1.515-1.92-2.829-1.92-2.829 4.626-2.044 10.27-2.173 15.46 1.903-4.151-3.744-8.231-5.073-12.29-4.982z" transform="translate(-15.374 -15.606)scale(1.974)"/><path fill="url(#a)" d="M23.98 7.912c-3.22.001-6.956.827-9.99 2.788-3.035 1.961-5.346 5.185-5.331 9.605.017 4.689 2.586 9.568 5.684 13.36 1.549 1.898 3.239 3.522 4.878 4.699s3.203 1.96 4.742 1.961c1.623.002 3.261-.812 4.929-2.032s3.356-2.893 4.887-4.822c3.062-3.858 5.543-8.712 5.558-13.16.014-4.22-2.306-7.424-5.335-9.44s-6.768-2.966-10.02-2.965zm0 2.162c2.819-.001 6.228.877 8.824 2.604s4.381 4.185 4.37 7.63c-.012 3.611-2.236 8.226-5.09 11.82-1.427 1.798-3.001 3.348-4.466 4.419s-2.834 1.617-3.653 1.616c-.707 0-2.038-.519-3.482-1.556s-3.023-2.542-4.465-4.31c-2.884-3.534-5.182-8.127-5.196-12-.013-3.69 1.765-6.118 4.342-7.783s5.976-2.441 8.817-2.442z" transform="translate(-15.374 -15.606)scale(1.974)"/></svg>