<svg version="1.1" viewBox="0 0 64 64" xmlns="http://www.w3.org/2000/svg">
 <defs>
  <linearGradient id="a" x1="1" x2="0" y1="1">
   <stop stop-color="#01ff01" offset="0"/>
   <stop stop-color="#1b8b00" offset="1"/>
  </linearGradient>
 </defs>
 <path transform="translate(-0) scale(1) translate(-0) scale(1) translate(.001054 .00065) scale(1) translate(.007062 .002038) scale(1)" d="m46.74 0.007812a3.952 3.952 0 0 0-2.748 1.174l-43.13 38.83a2.689 2.689 0 0 0 0 3.961l3.525 3.221a2.65 2.65 0 0 0 3.398 0.1504l51.92-38.9c1.743-1.329 4.238-0.07472 4.238 2.125v-0.1582c0-1.542-0.8776-2.946-2.26-3.617l-13.17-6.381a3.883 3.883 0 0 0-1.793-0.3945z" fill="url(#a)"/>
 <path transform="translate(-0) scale(1) translate(-0) scale(1) translate(.001054 .00065) scale(1) translate(.007062 .002038) scale(1)" d="m6.078 13.73a2.65 2.65 0 0 0-1.674 0.6973l-3.525 3.221a2.689 2.689 0 0 0 0 3.963l43.13 41.19a3.963 3.963 0 0 0 4.541 0.7754l13.17-6.381c1.382-0.6693 2.262-2.075 2.262-3.619v-0.1543c0 2.2-2.502 3.452-4.242 2.123l-51.92-41.26a2.65 2.65 0 0 0-1.727-0.543z" fill="url(#a)"/>
 <path transform="translate(-0) scale(1) translate(-0) scale(1) translate(.001054 .00065) scale(1) translate(.007062 .002038) scale(1)" d="m46.74 0.007812a3.952 3.952 0 0 0-2.453 0.918c1.492-1.087 3.695-0.04422 3.695 1.918v58.3c0 1.964-2.204 3.005-3.695 1.918 1.188 0.9822 2.841 1.202 4.246 0.5215l13.17-6.367c1.384-0.6693 2.26-2.077 2.26-3.621v-43.2a4.02 4.02 0 0 0-2.26-3.623l-13.17-6.367a3.883 3.883 0 0 0-1.793-0.3945z" fill="url(#a)"/>
</svg>
