<svg version="1.1" viewBox="0 0 64 64" xmlns="http://www.w3.org/2000/svg">
 <path transform="translate(-.002001 3e-4) scale(1) translate(.002 -.002851) scale(1)" d="m49.3 26.4-0.1523 0.252a23.31 23.31 0 0 1 0.582 5.041 23.39 23.39 0 0 1-0.3203 3.699 8.726 8.726 0 0 1 5.848 8.228c0 4.82-3.907 8.727-8.727 8.727a8.74 8.74 0 0 1-5.844-2.26 23.26 23.26 0 0 1-8.023 4.037l-0.02148 0.03516a17.46 17.46 0 0 0 13.89 6.916c9.64 0 17.45-7.811 17.45-17.45-0.0053-8.568-6.224-15.86-14.68-17.22z" fill="#00f"/>
 <path transform="translate(-.002001 3e-4) scale(1) translate(.002 -.002851)" d="m14.59 26.44c-8.408 1.399-14.58 8.671-14.59 17.19 0 4.63 1.839 9.071 5.111 12.34a17.45 17.45 0 0 0 12.34 5.111 17.45 17.45 0 0 0 13.89-6.9 23.31 23.31 0 0 1-8.17-3.982 8.726 8.726 0 0 1-5.717 2.152c-4.82 0-8.727-3.907-8.727-8.727a8.726 8.726 0 0 1 5.557-8.129 23.39 23.39 0 0 1-0.3184-3.797c0.0071-1.772 0.2168-3.539 0.625-5.264z" fill="#f00"/>
 <path transform="translate(-.002001 3e-4) scale(1) translate(.002 -.002851)" d="m32 2.906c-9.64 0-17.45 7.813-17.45 17.45a17.44 17.44 0 0 0 0.9824 5.695 23.26 23.26 0 0 1 7.773-5.152 9.269 9.269 0 0 1-0.0293-0.541c0-4.82 3.908-8.727 8.727-8.727s8.727 3.907 8.727 8.727a8.828 8.828 0 0 1-0.0293 0.5469 23.22 23.22 0 0 1 7.777 5.143 17.48 17.48 0 0 0 0.9766-5.69c0-4.63-1.839-9.071-5.111-12.34a17.46 17.46 0 0 0-12.34-5.111z" fill="#0f0"/>
 <path transform="translate(-.002001 3e-4) scale(1) translate(.002 -.002851)" d="m32 14.53a5.818 5.818 0 0 0-5.818 5.818 5.818 5.818 0 0 0 5.818 5.816 5.818 5.818 0 0 0 5.816-5.816 5.818 5.818 0 0 0-5.816-5.818z" fill="#0f0"/>
 <path transform="translate(-.002001 3e-4) scale(1) translate(.002 -.002851)" d="m17.46 37.84a5.818 5.818 0 0 0-5.816 5.816 5.818 5.818 0 0 0 5.816 5.818 5.818 5.818 0 0 0 5.818-5.818 5.818 5.818 0 0 0-5.818-5.816z" fill="#f00"/>
 <path transform="translate(-.002001 3e-4) scale(1) translate(.002 -.002851) scale(1)" d="m46.57 37.84a5.818 5.818 0 0 0-5.818 5.816 5.818 5.818 0 0 0 5.818 5.818 5.818 5.818 0 0 0 5.816-5.818 5.818 5.818 0 0 0-5.816-5.816z" fill="#00f"/>
</svg>
