<svg style="isolation:isolate" version="1.1" viewBox="0 0 64 64" xmlns="http://www.w3.org/2000/svg">
 <defs>
  <linearGradient id="a" x1="10.39" x2="49.24" y1="13.37" y2="57.64" gradientTransform="matrix(-.7555 .7668 .7668 .7555 129.4 87.33)" gradientUnits="userSpaceOnUse">
   <stop stop-color="#f9d423" offset="0"/>
   <stop stop-color="#ff4e50" offset=".516"/>
   <stop stop-color="#8a2387" offset=".991"/>
  </linearGradient>
 </defs>
 <g transform="translate(-1e-6) scale(1) translate(.002301 -.002531) scale(1) translate(-24.5 -24.5) scale(.4414)">
  <path d="m167.2 115.3-.35.58a52.8 52.8 0 0 1 1.319 11.42 53 53 0 0 1-.725 8.384 19.77 19.77 0 0 1 13.25 18.64c0 10.92-8.852 19.77-19.77 19.77a19.8 19.8 0 0 1-13.24-5.121 52.7 52.7 0 0 1-18.18 9.148l-.046.08a39.55 39.55 0 0 0 31.46 15.67c21.84 0 39.54-17.7 39.54-39.54-.012-19.41-14.1-35.94-33.26-39.02z" fill="#37a6e6"/>
  <path d="M88.56 115.4c-19.05 3.168-33.03 19.64-33.06 38.95 0 10.49 4.166 20.55 11.58 27.96a39.53 39.53 0 0 0 27.96 11.58 39.54 39.54 0 0 0 31.46-15.63 52.8 52.8 0 0 1-18.51-9.023 19.77 19.77 0 0 1-12.95 4.877c-10.92 0-19.77-8.852-19.77-19.77a19.77 19.77 0 0 1 12.59-18.42 53 53 0 0 1-.721-8.601c.016-4.018.492-8.02 1.418-11.93z" fill="#f22c42"/>
  <path d="M128 62.09c-21.84 0-39.54 17.7-39.54 39.54a39.5 39.5 0 0 0 2.227 12.9 52.7 52.7 0 0 1 17.61-11.67 21 21 0 0 1-.066-1.226c0-10.92 8.853-19.77 19.77-19.77s19.77 8.852 19.77 19.77a20 20 0 0 1-.066 1.239 52.6 52.6 0 0 1 17.62 11.65 39.6 39.6 0 0 0 2.214-12.89c0-10.49-4.166-20.55-11.58-27.96a39.55 39.55 0 0 0-27.96-11.58z" fill="#76c22b"/>
  <circle cx="128" cy="101.6" r="13.18" fill="#cbe667" vector-effect="non-scaling-stroke"/>
  <circle cx="95.05" cy="154.4" r="13.18" fill="#f76363" vector-effect="non-scaling-stroke"/>
  <circle cx="161" cy="154.4" r="13.18" fill="#6dc7f1" vector-effect="non-scaling-stroke"/>
 </g>
 <path transform="translate(-1e-6) scale(1) translate(.002301 -.002531) scale(1) translate(-24.5 -24.5) scale(.4414)" d="M146.7 146.1c-3.314 8.058-12.33 13.03-20.97 11.76-6.034-.762-11.63-4.406-14.83-9.597-3.012-4.757-3.893-10.76-2.4-16.13 1.809-6.777 7.406-12.32 14.21-14.05 6.293-1.686 13.34-.059 18.35 4.179l.061-.064c.634-.658 1.317-1.368 2.054-1.977l.044-.036.048-.031c.75-.486 1.633-.452 2.318-.143.672.304 1.267.922 1.428 1.77a735 735 0 0 1 2.793 11.01c.335.977-.043 1.916-.647 2.492-.596.569-1.534.901-2.476.57a811 811 0 0 1-11-2.614c-1.626-.306-2.446-2.156-1.752-3.554l.044-.089.06-.077c.6-.773 1.311-1.48 1.974-2.133-2.734-2.053-6.22-3.075-9.562-2.665h-.009l-.009.002c-4.117.429-7.915 2.97-9.848 6.602l-.004.009-.005.009c-2.877 5.153-1.61 12.3 3 16.17l.016.013.015.013c4.658 4.246 12.37 4.35 17.02.283l.03-.026.031-.024c.828-.615 1.485-1.412 2.112-2.331.312-.457.608-.932.916-1.426l.005-.01c.307-.491.625-1.002.966-1.5l.05-.071.06-.063c1.296-1.315 3.107-1.124 4.324-.366 1.215.756 2.187 2.295 1.604 4.033l-.011.03z" fill="url(#a)"/>
</svg>
