<svg version="1.1" viewBox="0 0 64 64" xmlns="http://www.w3.org/2000/svg">
 <defs>
  <linearGradient id="a" y1=".5" y2=".5">
   <stop stop-color="#ff0028" offset="0"/>
   <stop stop-color="#ff005e" offset="1"/>
  </linearGradient>
  <linearGradient id="b" x2="0" y2="1">
   <stop stop-color="#00adf7" offset="0"/>
   <stop stop-color="#00e7ff" offset="1"/>
  </linearGradient>
 </defs>
 <path transform="translate(0) scale(1) translate(0) scale(1) translate(0) scale(1) translate(0) scale(1) translate(0) scale(1) translate(.00176 -.000657) scale(1) matrix(.9171 0 0 .9171 2.654 3.671)" d="m7.682-4c-4.977-0.1055-9.476 3.742-9.475 8.85v52.11a4 4 0 0 0 0 0.0039c0.00903 6.866 7.832 10.88 13.78 7.725l49.04-26.04c2.976-1.581 4.758-4.665 4.758-7.732s-1.782-6.147-4.758-7.728l-49.04-26.04c-1.327-0.7065-2.794-1.082-4.289-1.117a4 4 0 0 0-0.02148-0.02148zm-0.1777 8.01a4 4 0 0 0 0.00586 0.00391c0.2668 0.00589 0.524 0.07979 0.7227 0.1856a4 4 0 0 0 0.00586 0l49.04 26.04c0.537 0.2853 0.5137 0.4655 0.5137 0.6641s0.02332 0.3826-0.5137 0.668l-49.04 26.04c-1.072 0.5691-2.027-0.06504-2.031-0.6582v-52.11c-9.62e-5 -0.3341 0.3736-0.8513 1.297-0.8398z" fill="url(#a)"/>
 <path transform="translate(0) scale(1) translate(0) scale(1) translate(0) scale(1) translate(0) scale(1) translate(0) scale(1) translate(.00176 -.000657) scale(1) translate(2.654 3.671) scale(.9171)" d="m23.18 17.66a3.61 3.61 0 0 0-3.621 3.609v10.85h-3.76a2.327 2.327 0 0 0-1.289 0.3809 2.335 2.335 0 0 0-0.3516 3.594l7.377 7.365a2.313 2.313 0 0 0 1.641 0.6894 2.313 2.313 0 0 0 1.644-0.6894l7.371-7.371a2.327 2.327 0 0 0 0.5059-2.537 2.327 2.327 0 0 0-2.152-1.432h-3.754v-10.84a3.61 3.61 0 0 0-3.611-3.609z" fill="url(#b)"/>
</svg>
