<svg version="1.1" viewBox="0 0 64 64" xmlns="http://www.w3.org/2000/svg">
 <defs>
  <linearGradient id="a" x1="26.87" x2="55.01" y1="10.94" y2="39.08" gradientTransform="matrix(.7425 0 0 1.215 1.6 1.6)" gradientUnits="userSpaceOnUse">
   <stop stop-color="#06f" offset="0"/>
   <stop stop-color="#5df" offset="1"/>
  </linearGradient>
  <linearGradient id="b" y2="1">
   <stop stop-color="#feaa00" offset="0"/>
   <stop stop-color="#fd0575" offset=".5"/>
   <stop stop-color="#7b31fe" offset="1"/>
  </linearGradient>
 </defs>
 <path transform="translate(.001547 .001403) scale(.9999) translate(.002644 .1738) scale(1)" d="m32 0.003906c-6.855-3e-8 -12.06-0.01769-16.35 0.5586-4.294 0.5776-7.856 1.866-10.54 4.555-2.689 2.689-3.972 6.244-4.549 10.54-0.5741 4.269-0.5646 9.452-0.5645 16.27-8.478e-4 0.02792 4.5e-5 0.05802 0 0.08594 9.677e-5 0.03825-0.001602 0.07897 0 0.1172-1.773e-4 6.789-0.008171 11.96 0.5645 16.22 0.5774 4.297 1.861 7.857 4.549 10.54 2.689 2.689 6.249 3.972 10.54 4.549 0.5593 0.07503 1.134 0.1411 1.727 0.1973 1.649 0.1565 2.992-1.134 2.992-2.791v-54.82c3.15-0.166 6.899-0.1953 11.63-0.1953 4.73 0 8.478 0.02929 11.63 0.1953v54.82c2e-6 1.657 1.343 2.948 2.992 2.791 0.5921-0.05627 1.167-0.1221 1.727-0.1973 4.294-0.5776 7.856-1.86 10.54-4.549 2.689-2.689 3.972-6.249 4.549-10.54 0.5728-4.259 0.5627-9.434 0.5625-16.22v-0.0332c8.38e-4 -0.02734-7e-5 -0.05664 0-0.08398-4.3e-5 -0.02792 8.5e-4 -0.05802 0-0.08594 1.11e-4 -6.813 0.01126-12-0.5625-16.27-0.5776-4.294-1.86-7.851-4.549-10.54s-6.249-3.978-10.54-4.555c-4.286-0.5765-9.488-0.5586-16.35-0.5586zm-17.46 6.867v7.676h-7.676c0.5151-2.301 1.134-4.079 2.365-5.311 1.232-1.232 3.01-1.851 5.311-2.365zm34.92 0c2.297 0.5147 4.08 1.135 5.311 2.365 1.232 1.232 1.85 3.01 2.365 5.311h-7.676zm-43.44 13.5h8.52v8.713h-8.697c0.00812-3.377 0.04969-6.27 0.1777-8.713zm43.44 0h8.52c0.1281 2.442 0.1696 5.336 0.1777 8.713h-8.697zm-43.61 14.54h8.697v8.713h-8.521c-0.1281-2.442-0.1677-5.336-0.1758-8.713zm43.61 0h8.697c-0.0081 3.377-0.04965 6.27-0.1777 8.713h-8.52zm-42.59 14.54h7.676v7.67c-2.3-0.5147-4.079-1.128-5.311-2.359s-1.85-3.01-2.365-5.311zm42.59 0h7.676c-0.5151 2.297-1.135 4.08-2.365 5.311-1.231 1.232-3.01 1.85-5.311 2.365z" fill="url(#b)" style=""/>
 <path transform="translate(.001547 .001403) scale(.9999) translate(.002644 .1738) scale(1)" d="m32 49.1c0.6652 1e-3 1.303-0.2642 1.771-0.7366l7.936-7.936c0.7216-0.717 0.939-1.799 0.5504-2.739-0.1914-0.4583-0.5143-0.8496-0.928-1.124-0.4128-0.2755-0.898-0.4223-1.394-0.4218h-4.043v-17.36c-7.38e-4 -2.146-1.74-3.886-3.885-3.886h-0.0079c-1.029 0-2.017 0.4079-2.744 1.136-0.7313 0.7288-1.144 1.718-1.147 2.75v17.36h-4.042c-0.4966-6.55e-4 -0.9822 0.1462-1.395 0.4218-0.4137 0.2748-0.7367 0.6661-0.928 1.124-0.1893 0.4591-0.2381 0.964-0.14 1.451 0.09858 0.4879 0.3392 0.9358 0.6916 1.287l7.936 7.936c0.4684 0.4721 1.106 0.7371 1.771 0.7357z" fill="url(#a)" stroke-width=".4453"/>
</svg>
