<svg xmlns="http://www.w3.org/2000/svg" viewBox="0 0 64 64"><defs><linearGradient id="a" x2="0" y1="1"><stop offset="0" stop-color="#879af2"/><stop offset=".5" stop-color="#d3208b"/><stop offset="1" stop-color="#fda000"/></linearGradient><linearGradient id="c" y1="1"><stop offset="0" stop-color="#879af2"/><stop offset=".5" stop-color="#d3208b"/><stop offset="1" stop-color="#fda000"/></linearGradient></defs><path fill="url(#a)" d="M15.56 1.461c-2.905 0-4.967 1-6.26 2.486S7.484 7.362 7.484 9.191c0 2.511.9 4.641 2.326 6.344H4.005a4.51 4.51 0 0 0-4.5 4.5v12.48H3.54v25.54c0 2.479 2.021 4.5 4.5 4.5h47.98c2.479 0 4.5-2.021 4.5-4.5v-25.54h3.986v-12.48c0-2.479-2.02-4.5-4.5-4.5h-5.701c1.398-1.703 2.273-3.832 2.273-6.344 0-1.828-.523-3.758-1.816-5.244s-3.353-2.486-6.258-2.486h-.008c-3.852 0-7.328 2.035-10.19 4.586-2.626 2.337-4.724 5.094-6.184 7.248-1.469-2.157-3.608-4.913-6.277-7.25-2.912-2.55-6.43-4.584-10.28-4.584zm32.9 5h.035c1.167 0 1.92.245 2.377.662s.7 1.055.7 2.066c0 2.036-1.11 3.573-2.83 4.662s-4.048 1.676-6.296 1.676h-5.803c1.346-1.91 3.058-4.03 4.977-5.744 2.17-1.937 4.56-3.308 6.84-3.322zm-32.91.002h.04c2.281.013 4.723 1.388 6.94 3.326 1.958 1.714 3.708 3.834 5.061 5.74h-5.805c-2.244 0-4.62-.6-6.39-1.707s-2.923-2.664-2.923-4.691c0-1.01.237-1.63.691-2.031s1.214-.637 2.385-.637zM4.5 20.533h25v6.977h-25zm30 0h25v6.977h-25zM8.54 32.513H29.5v25.04H8.54zm25.96 0h21.02v25.04H34.5z" transform="translate(.487 .485)scale(.9846)"/><path fill="url(#c)" d="m15.86 34.72-7.406 20h5.184l1.273-4.285h8.062l1.26 4.285h5.184l-7.408-20zm3.082 4.688 2.445 6.74h-4.906z" transform="translate(.487 .485)scale(.9846)"/><path fill="url(#c)" d="M44.76 37.02a29 29 0 0 0-3.55.22 31 31 0 0 0-3.537.62v4.028a11.5 11.5 0 0 1 2.815-1.02 15 15 0 0 1 3.275-.338c1.449 0 2.519.195 3.202.589.684.383 1.027 1.516 1.027 2.352v.413H44.76c-2.956-.159-5.133.45-6.521 1.354-1.377.905-2.066 1.807-2.066 3.744q0 2.389 1.652 3.892 1.67 1.49 4.332 1.49 1.975.001 3.354-.676c.918-.462 2.067-1.195 2.802-2.198v2.875h5.204v-9.856q0-3.969-2.066-5.724-2.053-1.769-6.692-1.767zm.413 8.673h3.141v.721q0 1.923-1.166 3.212-1.165 1.27-2.869 1.27-1.368 0-2.144-.67-.76-.69-.76-1.888.001-1.305.947-1.975.96-.67 2.85-.67z" transform="translate(-.003 -.004)"/></svg>