<svg xmlns="http://www.w3.org/2000/svg" viewBox="0 0 64 64"><defs><linearGradient id="a" x1="1" x2="0" y1="1"><stop offset="0" stop-color="#2ad454"/><stop offset="1" stop-color="#b3ff5a"/></linearGradient></defs><path fill="url(#a)" d="M8 2.615A7.5 5.192 0 0 0 .5 7.808 7.5 5.192 0 0 0 8 12.999a7.5 5.192 0 0 0 7.5-5.191A7.5 5.192 0 0 0 8 2.615m.035 1.73c2.57 0 4.652 1.433 4.652 3.199s-2.084 3.197-4.652 3.197-4.65-1.431-4.65-3.197 2.082-3.199 4.65-3.199" transform="translate(-2.133 -1.31)scale(4.26657)"/><path fill="url(#a)" d="M8 6.076a1.731 1.442 0 0 0-1.73 1.443A1.731 1.442 0 0 0 8 8.96a1.731 1.442 0 0 0 1.73-1.441A1.731 1.442 0 0 0 8 6.076" transform="translate(-2.133 -1.31)scale(4.26657)"/></svg>