<svg version="1.1" viewBox="0 0 64 64" xmlns="http://www.w3.org/2000/svg">
 <defs>
  <linearGradient id="c" x2="0" y2="1">
   <stop stop-color="#01ff4d" offset="0"/>
   <stop stop-color="#2fff00" offset="1"/>
  </linearGradient>
  <linearGradient id="a" y1="1">
   <stop stop-color="#00fffa" offset="0"/>
   <stop stop-color="#0078ff" offset="1"/>
  </linearGradient>
  <linearGradient id="d" x1="1" x2="0" y2="1">
   <stop stop-color="#6203ff" offset="0"/>
   <stop stop-color="#e901ff" offset="1"/>
  </linearGradient>
  <linearGradient id="b" x2="0" y2="1">
   <stop stop-color="#f1fa00" offset="0"/>
   <stop stop-color="#ff6900" offset="1"/>
  </linearGradient>
 </defs>
 <path transform="translate(.004071 .002475) scale(1) matrix(3.083 0 0 3.083 -1.646 -2.176)" d="m10.95 1.03c-0.5776-0.002108-1.448 0.07863-2.295 0.3106-0.7162 0.196-1.391 0.5395-1.846 1.107-0.1675 0.005018-0.8925 0.02064-1.805 0.1611-0.5059 0.07792-1.017 0.1826-1.455 0.3633-0.2186 0.09032-0.4219 0.1985-0.602 0.3662-0.08474 0.07892-0.09815 0.2309-0.1597 0.3472-0.6717 0.3067-1.157 0.8832-1.463 1.576-0.3401 0.7695-0.5268 1.667-0.6387 2.556-0.2236 1.779-0.1362 3.584-0.1362 3.94 0 0.5067 0.09067 1.637 0.3735 2.732 0.1414 0.5474 0.3257 1.08 0.6108 1.522 0.2852 0.4424 0.7383 0.8408 1.33 0.8408 0.351 0 0.6522-0.1695 0.8774-0.375s0.4012-0.4566 0.564-0.7398c0.3255-0.5662 0.5865-1.264 0.8042-1.957 0.3606-1.148 0.4988-1.925 0.5684-2.281 0.2034-0.0051 0.3596-0.03213 0.7207 0.04248 0.274 0.05662 0.536 0.1542 0.7148 0.2827s0.2827 0.2613 0.3281 0.5024c0.1296 0.7015 0.3782 2.839 0.835 4.783 0.2285 0.9722 0.5054 1.904 0.8818 2.641 0.1882 0.3685 0.3998 0.6925 0.6738 0.9478 0.2741 0.2553 0.6395 0.4424 1.043 0.4424h0.07617c0.4033 0 0.768-0.187 1.042-0.4424s0.4845-0.5793 0.6724-0.9478c0.3757-0.7369 0.6536-1.669 0.8818-2.641 0.4565-1.944 0.7054-4.084 0.8364-4.783 0.04461-0.2406 0.1481-0.3741 0.3267-0.5024s0.4403-0.2261 0.7148-0.2827c0.3631-0.0749 0.5201-0.04764 0.7236-0.04248 0.06922 0.356 0.207 1.133 0.5669 2.281 0.2172 0.6927 0.4771 1.391 0.8027 1.957 0.1628 0.2832 0.3413 0.5342 0.5669 0.7398 0.2256 0.2055 0.5235 0.375 0.8745 0.375 0.5914 0 1.045-0.3986 1.33-0.8408 0.2848-0.4422 0.4691-0.9747 0.6108-1.522 0.2834-1.095 0.375-2.224 0.375-2.732 0-0.3566 0.08666-2.161-0.1377-3.94-0.1122-0.8896-0.2978-1.787-0.6387-2.556-0.3073-0.6938-0.794-1.272-1.468-1.578-0.06126-0.1153-0.07405-0.2672-0.1582-0.3457-0.1799-0.1678-0.3822-0.2758-0.6006-0.3662-0.4367-0.1807-0.948-0.2854-1.453-0.3633-0.9008-0.139-1.603-0.1541-1.784-0.1597-0.4728-0.6694-1.189-1.069-1.912-1.235-0.8442-0.1935-1.686-0.1867-2.169-0.1846zm0 1.099a0.5501 0.5501 0 0 0 0.0044 0c0.4794-0.00214 1.243 0.00215 1.923 0.1582 0.6808 0.156 1.209 0.4388 1.428 0.9199a0.5501 0.5501 0 0 0 0.4878 0.3223s0.939 0.0253 1.857 0.167c0.4592 0.07085 0.9131 0.1758 1.2 0.2944 0.1348 0.05579 0.2299 0.1154 0.2666 0.1465a0.5501 0.5501 0 0 0 0.3779 0.4614c0.3955 0.1285 0.7273 0.4986 0.9976 1.109 0.2703 0.6103 0.4509 1.423 0.5552 2.25 0.2086 1.654 0.1289 3.303 0.1289 3.801 0 0.3518-0.09042 1.493-0.3398 2.456-0.1247 0.4817-0.2955 0.9254-0.4731 1.201-0.1776 0.2758-0.2953 0.3384-0.4043 0.3384h-0.0015c-0.0087-0.0011-0.04835-0.01051-0.1333-0.08789-0.09708-0.08844-0.2261-0.2568-0.353-0.4775-0.2538-0.4415-0.5034-1.086-0.7075-1.737-0.4083-1.302-0.6504-2.622-0.6504-2.622a0.5501 0.5501 0 0 0-0.4907-0.4482s-0.676-0.07018-1.421 0.0835c-0.3724 0.07684-0.7754 0.2087-1.135 0.4673-0.3594 0.2583-0.6686 0.6691-0.7661 1.192-0.1568 0.8356-0.3905 2.879-0.8262 4.734-0.2178 0.9276-0.4863 1.802-0.7881 2.394-0.1509 0.296-0.3122 0.5173-0.4453 0.6416s-0.2121 0.1494-0.29 0.1494h-0.07617c-0.07886 0-0.1595-0.02508-0.293-0.1494-0.1335-0.1244-0.2912-0.3456-0.4424-0.6416-0.3024-0.592-0.576-1.466-0.7939-2.394-0.436-1.855-0.6677-3.898-0.8218-4.731a0.5501 0.5501 0 0 0-0.00146-0.0029c-0.09856-0.5237-0.4064-0.934-0.7661-1.192-0.3597-0.2585-0.7633-0.3904-1.135-0.4673-0.744-0.1537-1.419-0.0835-1.419-0.0835a0.5501 0.5501 0 0 0-0.4878 0.4468s-0.2455 1.321-0.6548 2.624c-0.2046 0.6512-0.4536 1.296-0.7075 1.737-0.127 0.2208-0.2561 0.3891-0.353 0.4775-0.0832 0.07591-0.1255 0.08648-0.1348 0.08789-0.1108 0-0.2281-0.06276-0.4058-0.3384-0.1777-0.2756-0.3472-0.7196-0.4717-1.201-0.2489-0.9632-0.3369-2.104-0.3369-2.456 0-0.4986-0.07901-2.147 0.1289-3.801 0.104-0.827 0.2825-1.641 0.5522-2.252 0.2697-0.6103 0.602-0.9791 0.9961-1.107a0.5501 0.5501 0 0 0 0.375-0.46c0.03496-0.03052 0.1302-0.091 0.2681-0.148 0.2872-0.1187 0.7426-0.2236 1.203-0.2944 0.9201-0.1417 1.862-0.167 1.862-0.167a0.5501 0.5501 0 0 0 0.4775-0.3018c0.1407-0.2803 0.7137-0.629 1.434-0.8262 0.7204-0.1971 1.542-0.2744 2.004-0.2725z" fill="url(#c)"/>
 <path transform="translate(.004071 .002475) scale(1) matrix(3.083 0 0 3.083 -1.646 -2.176)" d="m17.46 4.945c-0.3164 0-0.5698 0.2573-0.5698 0.5698s0.2534 0.5713 0.5698 0.5713c0.3125 0 0.5669-0.2588 0.5669-0.5713s-0.2544-0.5698-0.5669-0.5698zm-1.024 0.9097c-0.3164 0-0.5698 0.2588-0.5698 0.5713s0.2534 0.5654 0.5698 0.5654c0.3125 0 0.5669-0.2529 0.5669-0.5654s-0.2544-0.5713-0.5669-0.5713zm2.048 0c-0.3164 0-0.5713 0.2588-0.5713 0.5713s0.2549 0.5654 0.5713 0.5654c0.3125 0 0.5654-0.2529 0.5654-0.5654s-0.2529-0.5713-0.5654-0.5713zm-3.527 0.9111c-0.375 0-0.6797 0.3037-0.6797 0.6826 0 0.375 0.3047 0.6797 0.6797 0.6797 0.3789 0 0.6826-0.3047 0.6826-0.6797 0-0.3789-0.3037-0.6826-0.6826-0.6826zm2.503 0.2256c-0.3164 0-0.5698 0.2588-0.5698 0.5713s0.2534 0.5654 0.5698 0.5654c0.3125 0 0.5669-0.2529 0.5669-0.5654s-0.2544-0.5713-0.5669-0.5713zm-1.137 1.137c-0.3789 0-0.6841 0.3091-0.6841 0.6841 0 0.3789 0.3052 0.6841 0.6841 0.6841 0.375 0 0.6797-0.3052 0.6797-0.6841 0-0.375-0.3047-0.6841-0.6797-0.6841z" fill="url(#b)"/>
 <path transform="translate(.004071 .002475) scale(1) matrix(3.083 0 0 3.083 -1.646 -2.176)" d="m4.72 5.295c-0.1381 0.01406-0.2461 0.1307-0.2461 0.2725v1.103h-1.103c-0.1512 0-0.2725 0.1212-0.2725 0.2725v0.5537c0 0.1512 0.1212 0.2739 0.2725 0.2739h1.103v1.102c0 0.1512 0.1212 0.2739 0.2725 0.2739h0.5522c0.1512 0 0.2754-0.1227 0.2754-0.2739v-1.102h1.1c0.1512 0 0.2754-0.1227 0.2754-0.2739v-0.5537c0-0.1512-0.1241-0.2725-0.2754-0.2725h-1.1v-1.103c0-0.1512-0.1241-0.2725-0.2754-0.2725h-0.5522c-0.00945 0-0.01716-9.37e-4 -0.02637 0z" fill="url(#a)"/>
 <path transform="translate(.004071 .002475) scale(1) matrix(3.083 0 0 3.083 -1.646 -2.176)" d="m10.92 8.725c-1.3 0-2.361 1.062-2.361 2.361 0 1.303 1.062 2.361 2.361 2.361 1.302 0 2.361-1.059 2.361-2.361 0-1.299-1.058-2.361-2.361-2.361zm0 0.6284c0.9632 0 1.731 0.7734 1.731 1.733 0 0.964-0.7674 1.733-1.731 1.733-0.9595 0-1.733-0.7699-1.733-1.733 0-0.9585 0.7742-1.733 1.733-1.733z" fill="url(#d)"/>
 <path transform="translate(.004071 .002475) scale(1) matrix(3.083 0 0 3.083 -1.646 -2.176)" d="m10.92 9.722c-0.7539 0-1.364 0.6099-1.364 1.364 0 0.7539 0.6099 1.367 1.364 1.367 0.7539 0 1.367-0.6128 1.367-1.367s-0.6128-1.364-1.367-1.364z" fill="url(#a)"/>
 <path transform="translate(.004071 .002475) scale(1)" d="m32.27 17.81c-1.252 0-2.271 1.015-2.271 2.283 0 1.252 1.019 2.271 2.271 2.271 1.268 0 2.283-1.019 2.283-2.271 0-1.268-1.015-2.283-2.283-2.283z" fill="url(#a)" stroke-width="4.008"/>
</svg>
