<svg xmlns="http://www.w3.org/2000/svg" viewBox="0 0 64 64"><defs><linearGradient id="a" y2="1"><stop offset="0" stop-color="#9c33c4"/><stop offset=".513" stop-color="#ff1950"/><stop offset=".987" stop-color="#ff8724"/></linearGradient><linearGradient id="b" x2="0" y2="1"><stop offset="0" stop-color="#fea51d"/><stop offset="1" stop-color="#ff0a76"/></linearGradient></defs><path fill="url(#a)" d="M42.16-.006 21.81 0a7.27 7.27 0 0 0-7.27 7.27v7.414a7.28 7.28 0 0 0-5.816 7.125v13.08c0 1.605 1.303 2.908 2.908 2.908s2.908-1.303 2.908-2.908v-10.18a4.36 4.36 0 0 1 4.361-4.361h26.17a4.36 4.36 0 0 1 4.361 4.361v1.455a2.906 2.906 0 1 0 5.812 0v-4.361a7.276 7.276 0 0 0-5.812-7.125V7.264a7.274 7.274 0 0 0-7.272-7.27zm-18.9 5.822h17.45a2.906 2.906 0 0 1 2.906 2.906v5.816h-23.26V8.722a2.907 2.907 0 0 1 2.904-2.906m3.635 1.453v5.814h2.908V7.27zm7.27 0v5.814h2.908V7.27zm18.18 24.71a2.91 2.91 0 0 0-2.908 2.908 2.906 2.906 0 1 0 5.812 0 2.906 2.906 0 0 0-2.904-2.908m-.002 8.725.002.002a2.906 2.906 0 0 0-2.908 2.904v10.18a4.36 4.36 0 0 1-4.361 4.36h-26.17a4.36 4.36 0 0 1-4.361-4.36v-1.453a2.91 2.91 0 0 0-2.908-2.908 2.91 2.91 0 0 0-2.908 2.908v4.361a7.27 7.27 0 0 0 7.27 7.27h31.98a7.27 7.27 0 0 0 7.27-7.27v-13.09a2.903 2.903 0 0 0-2.904-2.904zm-40.71.002a2.906 2.906 0 1 0 0 5.812 2.906 2.906 0 1 0 0-5.812" transform="translate(0 .006)"/><path fill="url(#b)" d="M33.29 25.1c-1.014-.025-1.998.777-1.998 1.934v.002l.012 1.307v.422c-2.826.153-5.532 1.228-7.59 3.193q-.551.528-1.03 1.119c-3.494 4.28-3.535 10.62-.081 14.94 4.536 5.695 12.84 6.06 17.84 1.064a11.95 11.95 0 0 0 2.805-12.45v-.002c-.47-1.326-2.201-1.728-3.195-.733-.502.502-.718 1.253-.477 1.947l.004.008a8.09 8.09 0 0 1-3.332 9.65h-.002l-.004.002c-2.576 1.644-6.02 1.626-8.578-.037h-.004l-.002-.002c-4.395-2.78-5.077-8.892-1.402-12.57 1.41-1.41 3.21-2.083 5.051-2.225v1.633c0 .84.524 1.511 1.19 1.791s1.513.182 2.107-.412l3.637-3.637c.75-.75.75-1.984 0-2.734l-3.637-3.637c-.264-.264-.604-.324-.931-.404l-.08-.16z" transform="translate(0 .006)"/></svg>