<svg xmlns="http://www.w3.org/2000/svg" viewBox="0 0 64 64"><defs><linearGradient id="a" x2="0" y2="1"><stop offset="0" stop-color="#ffd200"/><stop offset="1" stop-color="#ff7f00"/></linearGradient><linearGradient id="b" y1="1"><stop offset="0" stop-color="#5433ff"/><stop offset=".5" stop-color="#e948ff"/><stop offset="1" stop-color="#ff005b"/></linearGradient></defs><path fill="url(#a)" d="M2.73 0C1.275 0 .044 1.226.044 2.684v9.33c0 1.456 1.228 2.693 2.686 2.693h9.334c1.455 0 2.688-1.236 2.688-2.693v-9.33C14.752 1.23 13.522 0 12.064 0zm24.46.002a7.353 7.353 0 0 0-7.356 7.354 7.353 7.353 0 0 0 7.356 7.352H56.6a7.353 7.353 0 0 0 7.356-7.352A7.353 7.353 0 0 0 56.6.002z"/><path fill="url(#b)" d="M42.76 5.191a4.15 4.15 0 0 0-1.631.447 20 20 0 0 0-1.568.862l-5.414 3.152-.02.011-2.723 1.584c-1.544.9-2.553 1.485-3.459 2.223a15 15 0 0 0-2.188 2.193c-.73.91-1.313 1.92-2.205 3.47l-16.64 28.82a8.49 8.49 0 0 0 .909 9.771 18.5 18.5 0 0 0 10.62 6.135 8.5 8.5 0 0 0 1.152.135l-.002-.002a8.5 8.5 0 0 0 7.762-4.23l16.64-28.82c.895-1.548 1.475-2.567 1.896-3.652q.556-1.45.804-2.982c.188-1.156.193-2.323.2-4.11l.037-9.79v-.219a17 17 0 0 0-.045-1.217 4.15 4.15 0 0 0-.713-2.129 4.02 4.02 0 0 0-2.85-1.644 4 4 0 0 0-.569-.004zM42 10.804l-.015 3.809h-.004a5.5 5.5 0 0 1-3.275-1.891zm-7.596 4.416a10.5 10.5 0 0 0 3.305 3.004 10.5 10.5 0 0 0 4.252 1.357v.398c-.01 2.048-.02 2.81-.135 3.537a10 10 0 0 1-.54 1.992c-.264.685-.635 1.355-1.659 3.127l-12.1 20.95a16.27 16.27 0 0 1-11.88-6.87l12.09-20.94c1.021-1.773 1.412-2.429 1.873-2.999q.654-.812 1.46-1.473c.57-.46 1.23-.851 2.997-1.879zm-.96 7.764a2.47 2.47 0 0 0-2.005 1.133l-10.12 17.52a2.47 2.47 0 0 0 2.025 3.697h.002a2.47 2.47 0 0 0 2.25-1.227l10.11-17.52a2.47 2.47 0 0 0-2.268-3.602zm-20.46 24.34a21.2 21.2 0 0 0 11.9 6.861l-1.796 3.107a3.56 3.56 0 0 1-3.242 1.768v-.002a4 4 0 0 1-.48-.057 13.57 13.57 0 0 1-7.79-4.494 3.555 3.555 0 0 1-.378-4.084z"/></svg>