<svg xmlns="http://www.w3.org/2000/svg" viewBox="0 0 64 64"><defs><linearGradient id="a" x1="1" x2="0" y2="1"><stop offset="0" stop-color="#ff0f85"/><stop offset="1" stop-color="#ff0c0c"/></linearGradient><linearGradient id="b" y1="1"><stop offset="0" stop-color="#d300dc"/><stop offset="1" stop-color="#8219ff"/></linearGradient></defs><path fill="url(#a)" d="M32 23.25a8.746 8.746 0 0 0-8.744 8.748A8.746 8.746 0 0 0 32 40.742a8.746 8.746 0 0 0 8.744-8.744A8.746 8.746 0 0 0 32 23.25" transform="translate(-8.232 -8.224)scale(1.257)"/><path fill="url(#b)" d="M32 17.33c-8.081 0-14.66 6.584-14.66 14.66S23.924 46.65 32 46.65s14.66-6.582 14.66-14.66S40.078 17.33 32 17.33m0 2.934c6.496 0 11.73 5.236 11.73 11.73S38.494 43.724 32 43.724s-11.73-5.236-11.73-11.73 5.236-11.73 11.73-11.73" transform="translate(-8.232 -8.224)scale(1.257)"/><path fill="url(#a)" d="M12.91 6.543c-3.488 0-6.361 2.875-6.361 6.363v4.24h4.24v-4.24c0-1.21.91-2.121 2.121-2.121h4.24V6.543zm12.73 0v4.242h12.73V6.543zm21.21 0v4.242h4.24c1.21 0 2.121.91 2.121 2.121v4.24h4.24v-4.24c0-3.489-2.873-6.363-6.361-6.363zM6.56 25.633v12.73h4.24v-12.73zm46.65 0v12.73h4.24v-12.73zM6.56 46.843v4.24c0 3.489 2.874 6.361 6.361 6.361h4.24v-4.24h-4.24c-1.212 0-2.121-.91-2.121-2.121v-4.24zm46.65 0v4.24c0 1.21-.91 2.121-2.121 2.121h-4.24v4.24h4.24c3.489 0 6.361-2.873 6.361-6.361v-4.24zm-27.57 6.361v4.24h12.73v-4.24z" transform="translate(-8.232 -8.224)scale(1.257)"/></svg>