<svg xmlns="http://www.w3.org/2000/svg" viewBox="0 0 64 64"><defs><linearGradient id="a" x1="19.22" x2=".009" y1="11.07" y2="11.07" gradientTransform="scale(.9813 1.019)" gradientUnits="userSpaceOnUse"><stop offset="0" stop-color="#6c00bf"/><stop offset="1" stop-color="#f0f"/></linearGradient><linearGradient id="c" y1="1"><stop offset="0" stop-color="#ffc025"/><stop offset="1" stop-color="#ffff7f"/></linearGradient></defs><path fill="url(#a)" d="M10.61 1.379a9.271 9.271 0 1 0 7.992 14.4.618.618 0 0 0-.644-.947 7.418 7.418 0 0 1-6.883-12.39.618.618 0 0 0-.463-1.045z" style="-inkscape-stroke:none;font-variation-settings:normal" transform="translate(-5.521 -4.504)scale(3.428)"/><path fill="url(#c)" d="M14.38 2.506a2.53 2.53 0 0 1-2.527 2.527 2.53 2.53 0 0 1 2.527 2.529 2.53 2.53 0 0 1 2.529-2.529 2.53 2.53 0 0 1-2.529-2.527" transform="translate(-5.521 -4.504)scale(3.428)"/><path fill="url(#c)" d="M17.75 5.877a2.53 2.53 0 0 1-2.527 2.527 2.53 2.53 0 0 1 2.527 2.529 2.53 2.53 0 0 1 2.529-2.529 2.53 2.53 0 0 1-2.529-2.527" transform="translate(-5.521 -4.504)scale(3.428)"/><path fill="#00ffdf" d="M22.568 24.054c0-2.254 2.444-3.653 4.387-2.518l15.586 9.108a2.49 2.49 0 0 1 1.236 2.151 2.49 2.49 0 0 1-1.236 2.152l-15.586 9.108a2.917 2.917 0 0 1-4.387-2.517V24.055z"/></svg>