<svg xmlns="http://www.w3.org/2000/svg" viewBox="0 0 64 64"><defs><linearGradient id="a" y1="1"><stop offset="0" stop-color="#5433ff"/><stop offset="1" stop-color="#20bdff"/></linearGradient><linearGradient id="c" x1="1" x2="0" y1="1"><stop offset="0" stop-color="#00fffa"/><stop offset="1" stop-color="#0078ff"/></linearGradient></defs><path fill="url(#a)" d="M4.125 1.375A4.116 4.116 0 0 0 0 5.5v8.248a4.116 4.116 0 0 0 4.125 4.125h13.75A4.116 4.116 0 0 0 22 13.748V5.5a4.116 4.116 0 0 0-4.125-4.125zm0 1.375h13.75a2.745 2.745 0 0 1 2.75 2.75v8.248a2.745 2.745 0 0 1-2.75 2.75H4.125a2.745 2.745 0 0 1-2.75-2.75V5.5a2.745 2.745 0 0 1 2.75-2.75m2.062 16.5c-.38 0-.688.307-.688.688s.307.687.688.687h9.623a.687.687 0 1 0 0-1.375z" transform="scale(2.909)"/><path fill="url(#c)" d="M5.945 5.512c-.506 0-.914.367-.914.822v6.58c0 .456.408.823.914.823h3.654c.506 0 .914-.367.914-.823v-6.58c0-.455-.408-.822-.914-.822z" transform="scale(2.909)"/><path fill="url(#c)" d="M12.8 5.512c-.506 0-.914.383-.914.857v1.713c0 .475.408.858.914.858h3.654c.506 0 .914-.383.914-.858V6.37c0-.474-.408-.857-.914-.857z" transform="scale(2.909)"/><path fill="url(#c)" d="M12.8 10.31c-.506 0-.914.383-.914.857v1.713c0 .475.408.858.914.858h3.654c.506 0 .914-.383.914-.858v-1.713c0-.474-.408-.857-.914-.857z" transform="scale(2.909)"/></svg>