<svg xmlns="http://www.w3.org/2000/svg" viewBox="0 0 64 64"><defs><linearGradient id="b" x2="0" y1="1"><stop offset="0" stop-color="#00b8ff"/><stop offset="1" stop-color="#00ff9d"/></linearGradient><linearGradient id="a" y1="1"><stop offset="0" stop-color="#ff0f85"/><stop offset="1" stop-color="#ff0c0c"/></linearGradient></defs><path fill="url(#a)" d="m42.48-9.234-.484.004A6.26 6.26 0 0 0 37.6-7.44a1.45 1.45 0 0 0-.436 1.036v15.46c0 .795.653 1.45 1.447 1.45.795 0 1.45-.655 1.45-1.45V3.103c1.321-.964 3.1-.954 4.302.225 2.432 2.384 6.362 2.383 8.795 0 .279-.273.438-.648.438-1.037v-8.7a1.46 1.46 0 0 0-.891-1.335 1.45 1.45 0 0 0-1.574.3 3.36 3.36 0 0 1-4.738 0c-1.091-1.07-2.492-1.589-3.914-1.699zm-.484 2.893a3.37 3.37 0 0 1 2.369.973c1.727 1.692 4.174 2.08 6.33 1.365v5.486c-1.322.963-3.101.954-4.303-.225-1.727-1.692-4.174-2.08-6.33-1.365v-5.49c.598-.442 1.258-.744 1.934-.744" transform="translate(-.006 9.335)scale(.9999)"/><path fill="url(#b)" d="m38.64 9.424-.02.004a4.47 4.47 0 0 0-3.908 2.258h-.005l-10.52 18.24-2.717-4.701c-1.736-3.01-6.08-3.01-7.818 0L.612 47.795a4.514 4.514 0 0 0 3.91 6.772h13.04v-.006l.218.006h41.71a4.514 4.514 0 0 0 3.914-6.772l-20.85-36.12a4.47 4.47 0 0 0-3.91-2.258zm-.008 7.527 5.396 9.342-.883.588-2.846-1.898a3.01 3.01 0 0 0-3.338 0l-2.846 1.898-.882-.588zm-21.07 13.54 3.148 5.455-6.84 11.86-.201.37-.152.382H7.132zm21.07.606 2.828 1.897.348.2a3.01 3.01 0 0 0 2.644 0l.346-.2 2.228-1.48 9.836 17.03h-36.48l9.836-17.03 2.228 1.48.347.2a3.01 3.01 0 0 0 2.643 0l.348-.2z" transform="translate(-.006 9.335)scale(.9999)"/></svg>