<svg version="1.1" viewBox="0 0 64 64" xmlns="http://www.w3.org/2000/svg">
 <defs>
  <style>.ColorScheme-Text { color:#dfdfdf; } .ColorScheme-Highlight { color:#4285f4; } .ColorScheme-NeutralText { color:#ff9800; } .ColorScheme-PositiveText { color:#4caf50; } .ColorScheme-NegativeText { color:#f44336; }</style>
  <linearGradient id="a" x2="0" y1="1">
   <stop stop-color="#ffbb24" offset="0"/>
   <stop stop-color="#f7f206" offset="1"/>
  </linearGradient>
  <linearGradient id="b" x2="0" y1="1">
   <stop stop-color="#ff00d2" offset="0"/>
   <stop stop-color="#ff4de0" offset="1"/>
  </linearGradient>
 </defs>
 <path transform="translate(.00035 .00057) scale(1) translate(.1088 .1165) scale(2.904) translate(-.8108 -1.704) scale(1.482)" d="m9.752 5.994v0.00195c-0.02486 0-0.04875 8.063e-4 -0.07422 0.00391-0.5297 0.01046-1.07-0.02732-1.617 0.00586l-0.1055 0.00586-0.00391 0.03516c-0.1273 0.04547-0.2339 0.1234-0.3008 0.2207-0.08457 0.1237-0.1313 0.2592-0.1699 0.3711-0.05911 0.1628-0.06907 0.3274-0.0918 0.4668-0.02183 0.1373-0.05415 0.2458-0.1328 0.334-0.1701 0.1323-0.3766 0.2381-0.582 0.3613a28.65 28.65 0 0 1-0.8398-0.3008h-0.00195c-0.3265-0.1173-0.7008-0.005689-0.8945 0.2754v0.00195c-0.2501 0.3665-0.4654 0.7456-0.6973 1.109v0.00195c-0.12 0.1946-0.2878 0.4609-0.1856 0.7578 0.08275 0.2664 0.273 0.4452 0.4609 0.5996 0.1792 0.1482 0.3521 0.2808 0.4707 0.4336 0.02001 0.171 0.00341 0.3608 0.00391 0.5644-0.2364 0.2451-0.5571 0.4416-0.8144 0.7344l-0.0039 4e-3c-0.1219 0.1532-0.1477 0.3381-0.125 0.502 0.02274 0.1637 0.08914 0.3142 0.1523 0.4434l0.00195 0.0039c0.2092 0.3833 0.4279 0.7628 0.6602 1.135 0.1728 0.3028 0.5471 0.4448 0.8867 0.3652 0.326-0.07957 0.627-0.2026 0.9258-0.3086 0.2119 0.11 0.4181 0.2351 0.625 0.3633 0.09048 0.3728 0.1516 0.7657 0.3008 1.15v2e-3c0.07821 0.191 0.255 0.2617 0.3496 0.3281l0.03516 0.02344h0.04297c0.5947-0.01637 1.2 0.01572 1.809-0.0039h0.01172l0.01172-0.0039c0.3137-0.07184 0.5175-0.2915 0.6289-0.5391 0.1091-0.2424 0.1412-0.5125 0.1426-0.748 0.0241-0.2042-0.09762-0.3804-0.2559-0.4727-0.1573-0.09185-0.3681-0.1142-0.543-0.0078-0.1682 0.09458-0.2431 0.26-0.2754 0.4082-0.02455 0.1114-0.03219 0.2049-0.04492 0.2949-0.3378 0-0.6738 0.0023-1.01 0a12.28 12.28 0 0 0-0.1758-0.7559v-4e-3c-0.09777-0.3306-0.3823-0.5402-0.6563-0.6798-0.2214-0.1178-0.4454-0.3024-0.748-0.377h-0.00586c-0.4792-0.09458-0.8729 0.1486-1.234 0.2695-0.1664-0.3019-0.3432-0.5954-0.5059-0.8887 0.2287-0.1864 0.4868-0.3641 0.6914-0.6172 0.2542-0.3046 0.1877-0.6875 0.2031-0.9648 0.01819-0.3092-0.01913-0.6694-0.2715-0.9336-0.1982-0.206-0.4196-0.3753-0.627-0.5508 0.1814-0.2819 0.3514-0.5655 0.5273-0.8438 0.3151 0.09094 0.6511 0.292 1.07 0.2656 0.2819-0.01364 0.4972-0.1699 0.6836-0.2754l0.00195-0.00195c0.2669-0.1601 0.6028-0.319 0.7852-0.6445 0.1546-0.2746 0.2175-0.5736 0.2598-0.8633 0.3341 0.0024 0.6663 0.00179 1 0 0.06457 0.2542 0.1182 0.5165 0.1914 0.7793v0.00586l0.00195 0.00391c0.09867 0.2669 0.3029 0.4448 0.5176 0.5801s0.4476 0.2377 0.6328 0.3555l0.0039 0.00391 0.0059 0.00195c0.2878 0.15 0.5809 0.1194 0.8438 0.04297 0.2301-0.06729 0.4396-0.1572 0.6387-0.2168 0.1637 0.2956 0.3347 0.5809 0.498 0.8691-0.291 0.2569-0.7085 0.4872-0.8535 0.9492l-0.0039 0.01172-2e-3 0.01172a5.456 5.456 0 0 0-0.01758 1.012l2e-3 0.01172c0.04547 0.2851 0.2135 0.4964 0.4004 0.6719 0.161 0.1505 0.3297 0.2776 0.4785 0.4062-0.1792 0.2887-0.3532 0.5787-0.5371 0.8574-0.1782-0.07503-0.3655-0.1711-0.5977-0.1934h-2e-3c-0.4174-0.04092-0.7202 0.4646-0.4629 0.791 0.1073 0.145 0.2585 0.2192 0.4004 0.2715 0.1426 0.05193 0.2816 0.08638 0.3887 0.1367 0.3397 0.1696 0.8096 0.1301 1.041-0.2109l2e-3 -2e-3c0.2806-0.421 0.5372-0.8534 0.7969-1.281l0.0039-0.0039c0.1355-0.2046 0.1774-0.481 0.04687-0.7129-0.1114-0.2333-0.303-0.3854-0.4805-0.5254-0.1705-0.1355-0.3213-0.2622-0.4141-0.4141-0.0027-0.2019-0.0094-0.3943 0.0293-0.5606 0.2319-0.2464 0.5803-0.4335 0.8222-0.7656 0.1178-0.1569 0.1288-0.344 0.09375-0.502s-0.1081-0.2998-0.1641-0.418l-0.0039-0.00781a19.1 19.1 0 0 0-0.666-1.137c-0.1819-0.3051-0.5697-0.4122-0.8984-0.3281-0.3196 0.07639-0.6103 0.1997-0.9004 0.2988-0.216-0.1178-0.4273-0.2293-0.6074-0.3652-0.09821-0.2564-0.1085-0.5643-0.2227-0.8789a0.8958 0.8958 0 0 0-0.2969-0.4414 0.7275 0.7275 0 0 0-0.457-0.166zm-0.627 2.752-0.007812 0.003906a2.251 2.251 0 0 0-2.365 2.191 2.251 2.251 0 0 0 2.27 2.299 2.231 2.231 0 0 0 2.248-2.248 2.251 2.251 0 0 0-2.144-2.246zm-0.1074 1.037h0.00781a1.176 1.176 0 0 1 1.207 1.207v0.0078a1.176 1.176 0 0 1-1.207 1.207h-0.00781a1.176 1.176 0 0 1-1.205-1.207v-0.0078a1.176 1.176 0 0 1 1.205-1.207z" fill="url(#b)"/>
 <path transform="translate(.00035 .00057) scale(1) translate(.1088 .1165) scale(2.904)" d="m7.739 8.611a0.6411 0.6411 0 0 0 0.2529-0.06223l4.96e-5 -0.00289c0.01963-0.00972 0.03959-0.02133 0.05848-0.03374 0.4144-0.2152 0.854-0.3953 1.273-0.6353l0.08184-0.04491-0.01108-0.02914c0.0828-0.08567 0.135-0.1898 0.1498-0.2927 0.01848-0.1307 0.004876-0.2556-0.008304-0.3591-0.01691-0.1516-0.07522-0.2853-0.1117-0.4043-0.03641-0.117-0.05119-0.2155-0.02351-0.316 0.08264-0.171 0.2045-0.3352 0.3186-0.5127a25.25 25.25 0 0 1 0.7803-0.09079l0.0029 4.98e-5c0.3037-0.03489 0.5543-0.2709 0.5975-0.5687 0.05436-0.3873 0.07426-0.7723 0.1153-1.15 0.01879-0.2007 0.04917-0.4767-0.1476-0.6713-0.1695-0.1781-0.3912-0.2483-0.5999-0.297-0.1994-0.0471-0.3881-0.08262-0.5416-0.157-0.08261-0.1272-0.1439-0.2832-0.2239-0.4439 0.09102-0.286 0.2681-0.5653 0.3571-0.8971l5.3e-5 -0.0029 0.0029-0.0028c0.03643-0.1686-0.01745-0.324-0.09944-0.4446-0.08193-0.1204-0.1929-0.2144-0.2932-0.2917l-0.00285-0.002903c-0.315-0.2211-0.6358-0.436-0.9646-0.639-0.2548-0.1717-0.6062-0.1377-0.8435 0.05787-0.2265 0.1903-0.415 0.4057-0.6097 0.6061-0.2104-0.004135-0.4226-0.02233-0.6362-0.04278-0.2171-0.2593-0.4188-0.545-0.687-0.7906l5.24e-5 -0.002899c-0.1364-0.1203-0.3055-0.1044-0.4061-0.1199l-0.03752-0.006451-0.03213 0.01681c-0.4634 0.2453-0.9549 0.4576-1.428 0.7108l-0.00873 0.002737-0.00883 0.008534c-0.2198 0.1794-0.2953 0.4334-0.2867 0.6724 0.008484 0.234 0.08901 0.4592 0.18 0.6458 0.06074 0.1708 0.2251 0.2619 0.3862 0.273 0.1602 0.01109 0.3355-0.05441 0.4321-0.2067 0.09594-0.1405 0.09187-0.2977 0.05947-0.4275-0.02414-0.09759-0.05448-0.1772-0.0796-0.2532 0.2668-0.132 0.5307-0.2621 0.7971-0.3915a10.82 10.82 0 0 0 0.4338 0.5256l0.00284 0.00294c0.2063 0.2229 0.5116 0.2795 0.7825 0.2826 0.2209 0.00651 0.47 0.06336 0.7381 0.00401l0.00579 9.84e-5c0.4155-0.1125 0.6306-0.4605 0.8689-0.6973 0.2494 0.1736 0.5038 0.3368 0.747 0.5049-0.1078 0.2366-0.2427 0.4792-0.3055 0.759-0.08177 0.3399 0.121 0.6153 0.2171 0.8403 0.1064 0.2514 0.2771 0.5194 0.5797 0.6295l-4.97e-5 0.00289c0.2372 0.08526 0.4795 0.1312 0.7118 0.1888-0.03317 0.2937-0.05714 0.5842-0.08739 0.8727-0.2844 0.05128-0.6293 0.02482-0.9503 0.2094-0.2173 0.1209-0.3278 0.3256-0.4338 0.4818l-4.97e-5 0.00289c-0.1483 0.2308-0.3503 0.4874-0.3672 0.8159-0.01482 0.2774 0.05149 0.5386 0.1313 0.7838-0.2649 0.1286-0.5283 0.2598-0.7913 0.3916-0.1504-0.1756-0.2933-0.3615-0.4539-0.5405l-0.00279-0.00584-0.00284-0.00294c-0.1823-0.1723-0.413-0.2311-0.6354-0.2542-0.2225-0.02301-0.4468-0.0135-0.6391-0.03415l-0.00289-4.98e-5 -0.00575-0.00299c-0.286-0.006084-0.5078 0.1349-0.6855 0.298-0.1554 0.1431-0.2843 0.2964-0.4183 0.4213-0.2448-0.1695-0.4909-0.3292-0.7326-0.4931 0.1295-0.3166 0.3683-0.6617 0.3023-1.083l1.511e-4 -0.00868-0.0056-0.01167a4.809 4.809 0 0 0-0.3798-0.8056l-0.00565-0.00878c-0.1473-0.2074-0.3649-0.3091-0.5812-0.3748-0.1859-0.05601-0.3683-0.0902-0.5362-0.1337 0.02871-0.298 0.05417-0.5952 0.09053-0.8872 0.1702-0.01037 0.3564-0.007194 0.5485-0.08031l4.98e-5 -0.00289c0.3457-0.1308 0.3882-0.6464 0.05726-0.8039-0.1414-0.07266-0.2891-0.07348-0.4217-0.05937-0.133 0.0147-0.2584 0.0438-0.3626 0.04586-0.3347-0.001268-0.6898 0.2122-0.7394 0.572l-4.97e-5 0.00289c-0.05711 0.4422-0.09196 0.8842-0.1299 1.324l-9.84e-5 0.00579c-0.02692 0.2145 0.04819 0.448 0.2418 0.5803 0.1792 0.1408 0.3888 0.1859 0.5838 0.2272 0.1877 0.04042 0.3567 0.08102 0.4893 0.1648 0.081 0.1585 0.1632 0.3086 0.1978 0.455-0.0869 0.2853-0.2933 0.5692-0.3546 0.9261-0.03175 0.1699 0.03633 0.3224 0.1257 0.4335 0.08938 0.1111 0.2003 0.1941 0.2907 0.2656l0.00573 3e-3a16.84 16.84 0 0 0 0.9704 0.6391c0.2628 0.1699 0.6114 0.1022 0.8382-0.0927 0.2227-0.1853 0.4045-0.3944 0.5948-0.5861 0.2167 0.00864 0.429 0.01424 0.6245 0.05126 0.1779 0.1642 0.3063 0.4013 0.5193 0.6052a0.7895 0.7895 45 0 0 0.4042 0.2327 0.6411 0.6411 0 0 0 0.1734 0.01746zm-1.127-2.318a1.983 1.983 0 0 0 0.799-0.1658l0.00289 4.97e-5 0.00299-0.00575a1.983 1.983 0 0 0 1.013-2.655 1.983 1.983 0 0 0-2.691-0.9292 1.967 1.967 0 0 0-0.8997 2.654 1.983 1.983 0 0 0 1.773 1.102zm-0.0684-0.9044a1.037 1.037 0 0 1-0.8814-0.5999l-0.00565-0.00878a1.037 1.037 0 0 1 0.4819-1.422l0.00584-0.00279a1.037 1.037 0 0 1 1.425 0.479l0.00274 0.00873a1.037 1.037 0 0 1-0.4789 1.425l-0.00584 0.00279a1.037 1.037 0 0 1-0.5433 0.118z" fill="url(#a)" stroke-width="1.482"/>
</svg>
