<svg xmlns="http://www.w3.org/2000/svg" fill="none" viewBox="0 0 64 64"><defs><linearGradient id="a" x1="12" x2="12" y1="17.4" y2="12.6" gradientUnits="userSpaceOnUse"><stop offset="0" stop-color="#5570ff"/><stop offset="1" stop-color="#4dd3ff"/></linearGradient><linearGradient id="c" x1="12" x2="12" y1="11.4" y2="6.6" gradientUnits="userSpaceOnUse"><stop offset="0" stop-color="#5570ff"/><stop offset="1" stop-color="#4dd3ff"/></linearGradient></defs><path fill="url(#a)" d="M13.18 17.1c-.447-.158-1.176-.536-1.62-.84-1.098-.75-1.813-1.006-2.819-1.006-1.082 0-1.618.174-2.597.844-.433.296-.854.538-.935.538-.27 0-1.295-1.654-1.208-1.95.11-.374 1.506-1.35 2.514-1.756.637-.256 1.136-.33 2.21-.33 1.594 0 2.391.256 3.874 1.246.505.337 1.234.697 1.622.8 1.3.345 2.768-.017 3.844-.948.182-.157.446-.286.586-.286.311 0 1.4 1.482 1.342 1.827-.065.39-1.7 1.514-2.697 1.855-1.183.405-2.983.408-4.117.007z" transform="matrix(4 0 0 4 -16 -16)"/><path fill="url(#c)" d="M13.86 11.25c-.488-.121-1.521-.598-2.344-1.081-1.258-.739-1.604-.875-2.384-.935-1.118-.087-1.783.1-2.836.794-.446.294-.895.534-.998.534-.22 0-1.303-1.45-1.303-1.745 0-.254.848-.99 1.662-1.443 2.079-1.156 4.753-1 6.858.399 1.135.755 1.752.97 2.787.97.992 0 1.983-.352 2.717-.965.263-.22.58-.4.704-.4s.488.38.81.847c.684.992.666 1.069-.444 1.924-1.38 1.063-3.547 1.519-5.23 1.102z" transform="matrix(4 0 0 4 -16 -16)"/></svg>