<svg xmlns="http://www.w3.org/2000/svg" viewBox="0 0 64 64"><defs><linearGradient id="a" x2="0" y1="1"><stop offset="0" stop-color="#ff001e"/><stop offset="1" stop-color="#ff004b"/></linearGradient></defs><path fill="url(#a)" d="m31.76 0-.5.002v.096c-7.658.164-15.03 2.989-20.73 8.115A32 32 0 0 0 .14 28.473a3.195 3.195 0 0 0 2.818 3.518 3.195 3.195 0 0 0 3.514-2.818 25.57 25.57 0 0 1 8.32-16.22 25.62 25.62 0 0 1 17-6.588 3.19 3.19 0 0 0 3.164-3.2A3.19 3.19 0 0 0 31.759 0zm13.53 3.24-.01.004-.006.002v.006a3.37 3.37 0 0 0-2.932 1.795 3.38 3.38 0 0 0 1.414 4.55 25.4 25.4 0 0 1 11.01 11.38v.006a3.386 3.386 0 0 0 4.514 1.551 3.38 3.38 0 0 0 1.551-4.502v-.005a32.13 32.13 0 0 0-13.94-14.4c-.451-.238-.935-.319-1.414-.34v-.012h-.005v.012c-.062-.003-.12-.048-.182-.047M60.6 31.08l-.006.006h-.006l-.006.006h-.005v-.01l-.004.002v.012a3.185 3.185 0 0 0-3.062 2.926A25.63 25.63 0 0 1 31.99 57.63l-.87-.012a3.19 3.19 0 0 0-3.231 3.137 3.19 3.19 0 0 0 3.137 3.227l.89.015h.041c8.047 0 15.81-3.039 21.72-8.5s9.556-12.96 10.18-20.98l.006-.005a3.2 3.2 0 0 0-3.256-3.428zM5.18 39.148l-.006.006a3.195 3.195 0 0 0-3.08 4.336 32.17 32.17 0 0 0 13.58 16.04 3.194 3.194 0 0 0 4.363-1.113 3.19 3.19 0 0 0-1.113-4.361 25.65 25.65 0 0 1-10.87-12.86A3.2 3.2 0 0 0 5.18 39.15z" transform="translate(.007)"/><path fill="url(#a)" d="M31.99 15.43c-.6 0-1.933 0-3.119.854-1.187.853-2.141 2.547-2.141 5.604 0 2.465.6 6.921 1.5 10.83.45 1.95.972 3.754 1.551 5.104.29.676.592 1.239.932 1.665s.751.761 1.279.761.943-.336 1.283-.761.636-.99.925-1.664c.58-1.351 1.102-3.157 1.553-5.11.9-3.903 1.5-8.355 1.5-10.82 0-3.057-.957-4.747-2.145-5.603-1.187-.853-2.518-.854-3.117-.854zm0 24.98c-1.004 0-2.016.33-2.789 1.018s-1.285 1.735-1.285 3.051c0 1.315.513 2.371 1.285 3.059.773.687 1.785 1.02 2.789 1.02s2.012-.332 2.785-1.02 1.283-1.743 1.283-3.059c0-1.315-.51-2.363-1.283-3.051-.773-.687-1.781-1.018-2.785-1.018" transform="translate(.007)"/></svg>