<svg version="1.1" viewBox="0 0 64 64" xmlns="http://www.w3.org/2000/svg">
 <defs>
  <linearGradient id="a" y1="1">
   <stop stop-color="#5433ff" offset="0"/>
   <stop stop-color="#20bdff" offset=".517"/>
   <stop stop-color="#a5fecb" offset=".983"/>
  </linearGradient>
 </defs>
 <path transform="translate(0) scale(1) translate(0) scale(1) translate(0) scale(1) translate(-.00049 1e-6) scale(1) translate(-.003 -.004)" d="M16.44.004 15.413.04l.016.188c-2.67.522-4.89 2.556-5.365 5.385l-2.98 17.7a3.14 3.14 0 0 0 2.564 3.6 3.14 3.14 0 0 0 3.598-2.562l2.978-17.7a.46.46 0 0 1 .539-.387l38.23 6.434a.455.455 0 0 1 .383.539l-4.883 29.02a3.14 3.14 0 0 0 2.56 3.6 3.14 3.14 0 0 0 3.598-2.566l4.885-29.03c.612-3.643-1.863-7.122-5.506-7.734L17.8.098a6.8 6.8 0 0 0-1.36-.09zm-8.305 32.04.004.004v.004a3.13 3.13 0 0 0-2.96 2.6l-2.737 16.28c-.481 2.862 1.466 5.595 4.326 6.078l41.06 6.912c2.862.481 5.598-1.466 6.08-4.328l1.072-6.375a3.136 3.136 0 0 0-2.56-3.598 3.137 3.137 0 0 0-3.6 2.562l-.834 4.953a.457.457 0 0 1-.537.386l-38.24-6.434a.455.455 0 0 1-.383-.539l2.502-14.87a3.14 3.14 0 0 0-2.562-3.6 3 3 0 0 0-.518-.03v-.007h-.007v.006c-.033 0-.066-.01-.098-.01h-.008z" fill="url(#a)"/>
 <path transform="translate(0) scale(1) translate(0) scale(1) translate(0) scale(1) translate(-.00049 1e-6) scale(1) translate(-.003 -.004)" d="m44.49 19.12.008.002a1.55 1.55 0 0 0-.82.22c-3.841 2.31-8.372 5.335-16.36 13.21l-5.113-3.833a1.545 1.545 0 0 0-1.961.09l-3.03 2.732a1.545 1.545 0 0 0-.08 2.219l10.02 10.41c1.097 1.142 2.944.86 3.701-.463 2.713-4.74 6.747-9.624 10.14-13.36a130 130 0 0 1 5.592-5.772l.346-.332.088-.082.023-.022.004-.006a1.545 1.545 0 0 0 .243-1.977l-1.531-2.332a1.55 1.55 0 0 0-1.27-.699z" fill="url(#a)"/>
</svg>
