<svg version="1.1" viewBox="0 0 64 64" xmlns="http://www.w3.org/2000/svg" xmlns:xlink="http://www.w3.org/1999/xlink">
 <defs>
  <linearGradient id="a" x1="-1.579" x2="65.99" y1="54.93" y2="39.61" gradientTransform="matrix(.9413 0 0 .9413 1.882 2.623)" gradientUnits="userSpaceOnUse">
   <stop stop-color="#00394b" offset="0"/>
   <stop stop-color="#006685" offset=".2529"/>
   <stop stop-color="#0084ad" offset=".5018"/>
   <stop stop-color="#009acc" offset=".7535"/>
   <stop stop-color="#00c0ff" offset="1"/>
  </linearGradient>
 </defs>
 <path transform="translate(-.002648 -.00267) scale(1)" d="m58.02 6.014c-1.247 0.03593-2.452 0.4621-3.438 1.227l-5.657 4.392h-0.0019a1.883 1.883 0 0 0-0.04963 0.04045l-11.99 9.293a1.883 1.883 0 0 0-0.0809 0.06618l-11.8 9.141a1.883 1.883 0 0 0-0.1692 0.1177l-12.05 9.334a1.883 1.883 0 0 0-0.09742 0.08089l-5.925 4.593-4.552 3.524c-1.385 1.074-2.209 2.729-2.203 4.481a1.883 1.883 0 0 0 0 0.0037c0.01411 3.141 2.661 5.66 5.806 5.663a1.883 1.883 0 0 0 0.00368 0h8.122a1.883 1.883 0 0 0 0.1655-0.0073h11.58a1.883 1.883 0 0 0 0.2997 0.0239h12.05a1.883 1.883 0 0 0 0.2629-0.01838h11.79l8.111 0.0073a1.883 1.883 0 0 0 0.0019 0c3.153-4.18e-4 5.806-2.535 5.81-5.685v-40.59a1.883 1.883 0 0 0 0-0.0037c-0.005289-3.203-2.75-5.746-5.953-5.669a1.883 1.883 0 0 0-0.02758-0.01287zm0.1066 3.765a1.883 1.883 0 0 0 0.0037 0.00368c1.208-0.03433 2.101 0.8456 2.105 1.917v40.59c-0.0033 1.049-0.8623 1.919-2.045 1.919l-6.23-0.007342v-40.16l4.931-3.824c0.3447-0.2671 0.7796-0.4257 1.235-0.4394zm-9.931 7.183v37.24h-8.282v-30.83l5.295-4.1zm-12.05 9.338v27.92h-8.284v-21.5zm-12.05 9.319v18.58h-8.282v-12.16zm-12.05 9.341v9.242h-6.24c-1.18-8.66e-4 -2.04-0.8665-2.045-1.914-0.002152-0.5693 0.2583-1.113 0.7446-1.489l4.55-3.524z" fill="url(#a)" stroke-width=".9413"/>
</svg>
