<svg xmlns="http://www.w3.org/2000/svg" viewBox="0 0 64 64"><defs><linearGradient id="a" y2="1"><stop offset="0" stop-color="#00a660"/><stop offset="1" stop-color="#00ff69"/></linearGradient></defs><path fill="url(#a)" d="M14.46 2.285C9.815 3.458 6.931 7.902 6.931 7.902s3.291 4.759 7.213 6.195a3 3 0 0 0 .705-1.168c-2.808-1.049-5.174-4.922-5.174-4.922s2.066-3.228 5.314-4.201a3 3 0 0 0-.53-1.522zm.535 3.379c-1.846.692-2.918 2.338-2.918 2.338l2.314 2.34c.225-.444.42-.84.604-1.188zm-9.352 4.684c-.516.491-2.566 1.715-3.002 2.236.874.866 2.08 1.687 3.447 2.416h5.246c-2.074-1.119-3.903-2.821-5.69-4.652m7.031 5.592q-.067.01-.135.02.068-.01.135-.02" transform="scale(4)"/><path fill="url(#a)" d="M4 0C1.784 0 0 1.784 0 4v8c0 2.216 1.784 4 4 4h8c2.216 0 4-1.784 4-4V4c0-2.216-1.784-4-4-4zm0 1h8c1.662 0 3 1.338 3 3v8c0 1.662-1.338 3-3 3H4c-1.662 0-3-1.338-3-3V4c0-1.662 1.338-3 3-3" transform="scale(4)"/></svg>