<svg version="1.1" viewBox="0 0 64 64" xmlns="http://www.w3.org/2000/svg" xmlns:xlink="http://www.w3.org/1999/xlink">
 <defs>
  <linearGradient id="a" y1="1">
   <stop stop-color="#ff0073" offset="0"/>
   <stop stop-color="#5a00ff" offset="1"/>
  </linearGradient>
  <linearGradient id="b" x1="1" x2="0" y1="1">
   <stop stop-color="#ff01f1" offset="0"/>
   <stop stop-color="#02b6ff" offset="1"/>
  </linearGradient>
  <linearGradient id="e" x1="64.36" x2="6.85" y1="57.52" y2=".003151" gradientTransform="scale(.8987 1.113)" gradientUnits="userSpaceOnUse" xlink:href="#b"/>
  <linearGradient id="d" x1="50.99" x2="34.91" y1="31.18" y2="15.11" gradientTransform="scale(.8597 1.163)" gradientUnits="userSpaceOnUse" xlink:href="#b"/>
  <linearGradient id="c" x1="39.68" x2="19.78" y1="47.33" y2="27.43" gradientTransform="scale(1.02 .9808)" gradientUnits="userSpaceOnUse" xlink:href="#b"/>
 </defs>
 <path transform="translate(0) scale(1) translate(0 -2e-5) scale(1) translate(0 -.003) scale(.9998)" d="M4.924 7.387A4.924 4.924 0 0 0 0 12.311v39.39a4.924 4.924 0 0 0 4.924 4.926h54.16a4.924 4.924 0 0 0 4.924-4.926v-39.39a4.924 4.924 0 0 0-4.924-4.924zm4.924 4.924h48.01a1.23 1.23 0 0 1 1.23 1.23v36.93a1.23 1.23 0 0 1-1.23 1.23H9.848a1.23 1.23 0 0 1-1.23-1.23v-36.93a1.23 1.23 0 0 1 1.23-1.23m-5.539 16a.616.616 0 0 1 .615.615v6.156a.616.616 0 0 1-1.23 0v-6.156a.616.616 0 0 1 .615-.615zm0 8.617a.616.616 0 0 1 0 1.23.616.616 0 0 1 0-1.23" fill="url(#a)"/>
 <g transform="translate(0) scale(1) translate(0 -2e-5) scale(1) matrix(.5151 0 0 .5151 15.51 15.51)">
  <path transform="translate(-.0013 -.003506)" d="m15.35 0.003906c-5.71 0-9.193 1.984-9.193 6.4v4.062c0 2.761 2.902 5.529 6.463 5.529h32.29c1.428 0 2.59-1.42 2.59-2.525s-1.162-2.525-2.59-2.525h-31c-1.428 0-2.588 0.1645-2.588-0.9414v-4.133c0-1.067 2.321-0.793 5.176-0.793h31.01c2.855 0 4.596 0.7139 4.596 2.926v33.99c0 1.098 1.725 2 3.16 2s2.572-0.9019 2.572-2v-33.99c0-4.424-2.321-8-8.023-8zm-6.606 19.99c-1.428 0-2.588 0.9019-2.588 2.008 0 1.106 1.16 1.992 2.588 1.992s2.59-0.8863 2.59-1.992c0-1.106-1.162-2.008-2.59-2.008zm0.291 8.002c-1.428 0-2.879 0.9019-2.879 2.008v25.98c0 4.416 4.628 8.016 10.34 8.016h32.72c5.71 0 8.627-1.451 8.627-5.867v-6.125h-0.1328c-0.6039-2.282-3.208-4-6.33-4h-32.29c-1.428 0-2.588 1.42-2.588 2.525s1.16 2.525 2.588 2.525h31.01c1.428 0 2.588-0.1645 2.588 0.9414v3.6c0 2.204-2.321 1.867-5.176 1.867h-31.01c-2.855 0-4.596-1.255-4.596-3.459v-25.99c0-1.106-1.436-2.008-2.863-2.008zm22.96 25.99c-1.428 0-2.572 0.8863-2.572 1.992s1.145 2.008 2.572 2.008 2.588-0.9019 2.588-2.008-1.16-1.992-2.588-1.992z" fill="url(#e)"/>
  <path transform="translate(-.0013 -.003506)" d="m32.24 17.57c-1.141 0.01-2.198 1.033-2.184 2.219-0.06299 4.468 0.0028 8.94-0.0332 13.41-0.03999 0.9628 0.1075 2.091 0.9863 2.644 1.23 0.9738 3.236 0.1465 3.482-1.41 0.115-1.824 0.02474-3.657 0.05273-5.484 1.676 2.091 3.395 4.144 5.084 6.227 0.5349 0.7199 1.379 1.235 2.293 1.053 1.641-0.141 2.503-2.375 1.461-3.648-1.49-1.909-3.054-3.753-4.588-5.625 1.44-1.84 2.963-3.606 4.422-5.43 0.6859-0.7558 0.8289-1.957 0.291-2.838-0.7458-1.327-2.79-1.452-3.678-0.2188-1.783 2.128-3.526 4.291-5.285 6.44-0.016-1.687 0.02837-3.376-0.01563-5.062 0.04399-1.16-0.9358-2.204-2.06-2.26a2 2 0 0 0-0.2285-0.01172z" fill="url(#d)"/>
  <path transform="translate(-.0013 -.003506)" d="m22.32 26.9c-1.388 0.04599-2.553 1.63-2.023 3.031 0.3649 1.327 1.838 1.633 2.916 2.119a16.5 16.5 0 0 0 0.2695 3.582c-0.8718 0.5869-2.036 0.9696-2.469 2.025-0.5629 1.233 0.2251 2.87 1.549 3.125 1.145 0.2999 2.124-0.5299 3.062-1.051 0.7328 0.7558 1.536 1.44 2.412 2.014-0.195 1.12-0.7867 2.342-0.2168 3.441 0.5549 1.233 2.257 1.621 3.303 0.8125 0.9348-0.6509 0.9832-1.905 1.244-2.924a20 20 0 0 0 2.904-0.332c0.6859 0.9258 1.161 2.249 2.381 2.549 1.435 0.4569 2.995-0.9386 2.793-2.445-0.174-1.133-1.03-1.978-1.564-2.949-0.6179-0.9418-1.157-2.33-2.473-2.312-1.007-0.154-1.815 0.5978-2.762 0.7598-2.148 0.3359-4.524-0.8195-5.379-2.914-0.7578-1.298-0.572-2.843-0.2031-4.232 0.3049-1.096-0.3131-2.269-1.336-2.674-1.268-0.5169-2.51-1.099-3.807-1.543a1.9 1.9 0 0 0-0.6035-0.08008z" fill="url(#c)"/>
 </g>
</svg>
