<svg xmlns="http://www.w3.org/2000/svg" viewBox="0 0 64 64"><defs><linearGradient id="a" y1="1"><stop offset="0" stop-color="#fe0844"/><stop offset="1" stop-color="#feb302"/></linearGradient></defs><path fill="url(#a)" d="M101.7 0a4.15 4.15 0 0 0-1.906.44c-23.24 9.146-46.01 19.9-69.03 29.79-1.91.979-3.117 3.271-3.459 5.64-1.517 8.973-2.202 18.32-.563 27.34.594 3.25 2.343 6.226 4.854 7.812 3.092 2.012 6.475 3.286 9.8 4.652 14.74 5.83 29.44 11.8 44.18 17.62-17.41 7.538-34.72 15.43-52.18 22.82 5.409-5.587 10.36-11.75 15.7-17.43 1.407-1.632 3.446-3.255 3.188-5.904-.026-3.575-4.157-5.656-6.326-3.098-7.662 8.472-15.21 17.08-22.82 25.6-1.84 1.928-2.634 5.171-1.691 7.904 1.02 3.545 4.647 5.806 7.674 4.38 21.6-9.004 42.99-18.73 64.44-28.19 2.277-1.033 3.511-3.81 4.001-6.476 1.75-9.694 2.325-19.96.02-29.6-1.142-4.63-5.081-6.84-8.676-8.184-16.32-6.437-32.65-12.86-48.97-19.32 17.36-7.629 34.73-15.24 52.11-22.82-6.3 7.158-12.66 14.24-19.01 21.35-.942 1.002-1.821 2.298-1.725 3.885-.097 2.543 1.808 4.32 3.764 4.783.962-.44 2.058-.645 2.807-1.557 8.804-9.884 17.6-19.79 26.51-29.56 1.394-1.458 2.775-3.31 2.652-5.664.137-3.448-2.556-6.194-5.336-6.223zM34.01 43.44c1.194.205 2.384.478 3.52.979 14.81 6.011 29.73 11.64 44.56 17.57 2.653 1.085 5.397 1.951 7.889 3.5 1.859 6.444 1.491 13.49.846 20.16-16.29-6.393-32.56-12.87-48.84-19.28-2.298-.95-4.608-1.92-6.738-3.317-.878-.516-1.026-1.777-1.188-2.779-.872-5.557-.75-11.26-.047-16.84z" transform="translate(-.023 .005)scale(.49995)"/></svg>