<svg xmlns="http://www.w3.org/2000/svg" viewBox="0 0 64 64"><defs><linearGradient id="a" x2="0" y2="1"><stop offset="0" stop-color="#fea51d"/><stop offset="1" stop-color="#ff0a76"/></linearGradient></defs><path fill="url(#a)" d="M109.6 81.15a98 98 0 0 0-16.71 13.79 82 82 0 0 0-12.68 17.08 82.8 82.8 0 0 0-7.991 20.47A94 94 0 0 0 70.17 144c-.47 4.11-.71 8.247-.7 12.38.01 4.01.2 8.023.59 12.01l7.96-.783c-.36-3.73-.54-7.49-.55-11.24-.01-3.83.212-7.65.642-11.45.41-3.55 1.04-7.07 1.89-10.53a74.9 74.9 0 0 1 7.198-18.49 74.9 74.9 0 0 1 11.44-15.4 90 90 0 0 1 15.34-12.65l-4.38-6.7zm37.2 0-4.381 6.699a89.7 89.7 0 0 1 15.34 12.65 75 75 0 0 1 11.44 15.4 74.9 74.9 0 0 1 7.199 18.49c.85 3.46 1.484 6.98 1.894 10.53.43 3.8.647 7.62.637 11.45-.01 3.75-.188 7.509-.548 11.24l7.96.783c.39-3.99.578-8.003.588-12.01.01-4.13-.23-8.267-.7-12.38a94 94 0 0 0-2.048-11.51 82.8 82.8 0 0 0-7.991-20.47 82.2 82.2 0 0 0-12.68-17.08 98.4 98.4 0 0 0-16.71-13.79zM124 99.89v23.67h8V99.89zM106.9 145l-14.34 21.01 6.611 4.509 14.34-21.01zm42.2 0-6.611 4.509 14.34 21.01 6.611-4.509z" opacity=".6" transform="translate(-25.675 -25.013)scale(.45067)"/><path fill="url(#a)" d="M128 55.5c-13.04 0-23.67 10.64-23.67 23.67 0 13.04 10.64 23.67 23.67 23.67s23.67-10.64 23.67-23.67c0-13.04-10.64-23.67-23.67-23.67m-26.2 62.1c-1.861 0-3.366 1.494-3.367 3.332v25.89c.001 1.838 1.506 3.326 3.367 3.327h52.44c1.861-.001 3.371-1.489 3.372-3.327v-25.89c-.001-1.838-1.511-3.332-3.372-3.332zM60.35 165c-1.862 0-3.372 1.494-3.372 3.332v25.89c0 1.839 1.51 3.326 3.372 3.327h52.44c1.862-.001 3.372-1.488 3.372-3.327v-25.89c0-1.838-1.51-3.332-3.372-3.332zm82.85 0c-1.862 0-3.372 1.494-3.372 3.332v25.89c0 1.839 1.51 3.326 3.372 3.327h52.44c1.862-.001 3.372-1.488 3.372-3.327v-25.89c0-1.838-1.51-3.332-3.372-3.332z" transform="translate(-25.675 -25.013)scale(.45067)"/></svg>