<svg xmlns="http://www.w3.org/2000/svg" viewBox="0 0 64 64"><defs><linearGradient id="a" y1="1"><stop offset="0" stop-color="#ff00d2"/><stop offset="1" stop-color="#b800ff"/></linearGradient><linearGradient id="b" x2="0" y2="1"><stop offset="0" stop-color="#0f9"/><stop offset="1" stop-color="#14dc57"/></linearGradient><linearGradient id="d" x2="0" y1="1"><stop offset="0" stop-color="#ff4500"/><stop offset="1" stop-color="#dc153b"/></linearGradient></defs><path fill="url(#a)" d="M3.994 1c-1.258.015-2.179-.03-2.932.385a1.88 1.88 0 0 0-.838.998C.06 2.82 0 3.343 0 4v8c0 .658.06 1.179.224 1.617.164.439.462.79.838.998.753.416 1.674.37 2.932.385h8.012c1.258-.015 2.179.03 2.932-.385a1.88 1.88 0 0 0 .838-.998c.164-.438.225-.96.225-1.617V4c0-.658-.06-1.18-.225-1.617a1.88 1.88 0 0 0-.838-.998c-.753-.416-1.674-.37-2.932-.385H3.998zM4 2h8c1.259.015 2.087.06 2.453.262.184.1.29.212.387.472S15 3.408 15 4v8c0 .592-.063 1.006-.16 1.266-.098.26-.203.372-.387.473-.366.202-1.194.247-2.453.262H4c-1.26-.015-2.09-.06-2.455-.262-.183-.1-.287-.213-.385-.473C1.063 13.006 1 12.593 1 12V4c0-.592.063-1.006.16-1.266.098-.26.202-.371.385-.472C1.91 2.06 2.74 2.015 4 2" transform="matrix(4 0 0 4 .002 .003)"/><path fill="url(#a)" d="m12.32 1.297-1 .021c.02.936-.076 1.85-.22 2.75.13-.037.263-.064.404-.064.214 0 .415.049.601.13.143-.927.235-1.871.215-2.837m-7.934.262a33 33 0 0 0-.086 4.13c.211-.113.448-.185.703-.185q.151.001.297.031c-.05-1.259-.03-2.557.082-3.893zM.519 3.407l-.016.021V4.62a75 75 0 0 0 2.898 1.973 17.5 17.5 0 0 0-2.898 1.53v1.17l.016.02A16 16 0 0 1 3.634 7.6a1.5 1.5 0 0 1-.13-.6c0-.477.232-.9.585-1.176a78 78 0 0 1-3.57-2.418zm15.4 1.223a82 82 0 0 0-3.119.129c.128.22.207.47.207.742 0 .085-.012.167-.025.248a83 83 0 0 1 2.959-.12zm-5.814.357c-1.467.167-2.887.414-4.25.783.298.206.517.52.606.88 1.166-.295 2.383-.501 3.64-.65a1.5 1.5 0 0 1-.093-.5c0-.18.037-.352.097-.513zm1.402.018a.49.49 0 0 0-.5.496.49.49 0 0 0 .746.426q.016-.053.031-.106.052-.003.104-.006a.49.49 0 0 0-.379-.81zm-6.5 1.5a.49.49 0 0 0-.5.496.49.49 0 0 0 .5.496.49.49 0 0 0 .5-.496.49.49 0 0 0-.5-.496m5.498.1q-.228.71-.512 1.397L10.007 8c.351 0 .673.127.93.332q.27-.66.492-1.344a1.5 1.5 0 0 1-.924-.384zm-4.022.626a1.5 1.5 0 0 1-.486.883c.82.445 1.66.858 2.525 1.228.037-.353.192-.671.433-.908A30 30 0 0 1 6.482 7.23zm-.89 1.143a1.5 1.5 0 0 1-.587.123c-.157 0-.305-.033-.447-.078.134.823.326 1.616.567 2.38.249-.183.551-.294.88-.294.027 0 .053.006.079.008a16 16 0 0 1-.493-2.139zm4.413.627a.49.49 0 0 0-.5.496c0 .207.12.38.3.455q.028-.028.06-.058c.08.029.163.051.244.08a.48.48 0 0 0 .396-.477.49.49 0 0 0-.5-.496m1.486.365c.004.044.014.086.014.131 0 .313-.099.603-.266.844 1.502.437 3.06.713 4.678.748l.022-1c-1.527-.033-3.009-.3-4.447-.723zm-2.955.432a8 8 0 0 1-1.57 1.066c.26.22.445.518.51.863a9 9 0 0 0 1.596-1.072 1.5 1.5 0 0 1-.535-.857zm-2.53 1.707a.49.49 0 0 0-.5.496.49.49 0 0 0 .5.496.49.49 0 0 0 .5-.496.49.49 0 0 0-.5-.496m-1.474.24c-.145.037-.293.088-.435.117-.928.191-1.794.262-2.457.258a6 6 0 0 1-.819-.054c-.165-.025-.292-.072-.31-.075v.002l.006.004-.012.02v1.008c.056.01.107.021.17.031q.404.06.959.064c.738.004 1.664-.072 2.664-.277.133-.028.274-.076.41-.11a1.47 1.47 0 0 1-.203-.732c0-.088.013-.173.027-.256zm2.617 1.207a1.5 1.5 0 0 1-.873.518c.236.402.49.792.776 1.162l.79-.613a9 9 0 0 1-.693-1.066z" opacity=".5" transform="matrix(4 0 0 4 .002 .003)"/><path fill="url(#a)" d="M6 11a1 .996 0 0 0-1 .996 1 .996 0 0 0 1 .996 1 .996 0 0 0 1-.996A1 .996 0 0 0 6 11" transform="matrix(4 0 0 4 .002 .003)"/><path fill="url(#a)" d="M5 6.004A1 .996 0 0 0 4 7a1 .996 0 0 0 1 .996A1 .996 0 0 0 6 7a1 .996 0 0 0-1-.996" transform="matrix(4 0 0 4 .002 .003)"/><path fill="url(#a)" d="M11.5 4.504a1 .996 0 0 0-1 .996 1 .996 0 0 0 1 .996 1 .996 0 0 0 1-.996 1 .996 0 0 0-1-.996" transform="matrix(4 0 0 4 .002 .003)"/><path fill="url(#a)" d="M10 8.5a1 .996 0 0 0-1 .996 1 .996 0 0 0 1 .996 1 .996 0 0 0 1-.996 1 .996 0 0 0-1-.996" transform="matrix(4 0 0 4 .002 .003)"/><path fill="url(#b)" d="M55.36 27.4c-.593 0-1.142.279-1.439.73l-6.456 9.836a1.33 1.33 0 0 0-.222.687 1.37 1.37 0 0 0 .469 1.061c.312.284.742.444 1.192.443h1.817v11.1c0 .915.742 1.657 1.657 1.657h5.963c.914 0 1.656-.742 1.656-1.657v-11.1h1.818c.593 0 1.142-.278 1.439-.73a1.31 1.31 0 0 0 0-1.461l-3.23-4.918-3.226-4.918c-.297-.452-.845-.731-1.44-.731z"/><path fill="url(#d)" d="M37.29 34.36c-.914 0-1.657.742-1.657 1.657v11.1h-1.817c-.449 0-.879.16-1.192.443a1.37 1.37 0 0 0-.47 1.06c.009.243.085.479.223.688l6.456 9.835c.297.452.846.731 1.44.731.593 0 1.141-.279 1.438-.73l3.227-4.919 3.23-4.918c.296-.452.296-1.009 0-1.46s-.846-.731-1.44-.731H44.91v-11.1c0-.914-.742-1.657-1.657-1.657z"/></svg>