<svg version="1.1" viewBox="0 0 64 64" xmlns="http://www.w3.org/2000/svg">
 <defs>
  <linearGradient id="a" y2="1">
   <stop stop-color="#ff0015" offset="0"/>
   <stop stop-color="#fc00a3" offset="1"/>
  </linearGradient>
  <linearGradient id="b" x1="1" x2="0" y1="1">
   <stop stop-color="#f70606" offset="0"/>
   <stop stop-color="#ff24f5" offset="1"/>
  </linearGradient>
 </defs>
 <path transform="translate(0) scale(1) translate(0) scale(1) translate(-1e-6) scale(1) translate(.007422 -.001002) scale(1) translate(-.00025 -.005316) scale(1) matrix(.9846 0 0 .9846 .4925 .4897)" d="m31.46-0.3367c-5.576 0.139-11.03 1.71-15.82 4.556l-0.09125 0.05158c-2.452 1.457-4.695 3.24-6.677 5.29a0.5 0.5 0 0 0-0.05753 0.03769c-1.366 1.377-2.588 2.888-3.648 4.513-0.2074 0.3177-0.2155 0.7299-0.01984 1.055h-0.00198l3.192 5.324 8.764 14.66 1.351 2.255c0.2786 0.4647 0.8962 0.6214 1.361 0.3432l4.511-2.696c0.4668-0.2787 0.622-0.8975 0.3412-1.363l-1.351-2.259-9.732-16.26c1.662-1.825 3.553-3.426 5.673-4.685a0.5 0.5 0 0 0 0.0099-6e-3l0.0099-6e-3 2e-3 -2e-3c7.97e-4 -6.57e-4 0.0052-0.0033 6e-3 -4e-3l2e-3 -2e-3 0.05356-0.02777a0.5 0.5 0 0 0 2e-3 -2e-3l4e-3 -2e-3c8.768-5.209 19.8-4.64 27.98 1.448 0.8581 0.6383 1.874 0.8065 2.771 0.613 0.8877-0.1916 1.659-0.7058 2.206-1.389 0.5479-0.6843 0.8891-1.572 0.8034-2.521-0.08636-0.957-0.6263-1.901-1.585-2.607-3.523-2.595-7.532-4.452-11.79-5.461a0.5 0.5 0 0 0-2e-3 0c-2.704-0.6364-5.483-0.9246-8.262-0.8569zm2e-3 0.001984 0.06546 0.0734a0.5 0.5 0 0 0-0.2698-0.02579zm29.01 17.8-6.209 2e-3h-19.71c-0.5421 0-0.9918 0.4497-0.9918 0.9918v5.257c0 0.5421 0.4497 0.9938 0.9918 0.9938h21.59c0.7108 2.362 1.115 4.806 1.109 7.27v0.09325c-0.02751 10.2-6.185 19.38-15.61 23.28-0.9886 0.4085-1.654 1.193-1.948 2.061-0.2911 0.8596-0.2482 1.785 0.05753 2.607a0.5 0.5 0 0 0 0 2e-3c0.3065 0.8224 0.8972 1.571 1.756 1.984 0.8656 0.4173 1.952 0.4363 3.051-0.0238 4.033-1.69 7.681-4.178 10.73-7.31l2e-3 -2e-3a0.5 0.5 0 0 0 2e-3 0c5.868-6.044 9.172-14.15 9.198-22.58a0.5 0.5 0 0 0 0-2e-3c3e-6 -0.0013 3e-6 -0.0027 0-4e-3l2e-3 2e-3v-0.1032l-2e-3 2e-3c0.0092-2.862-0.3705-5.707-1.111-8.456a0.5 0.5 0 0 0-2e-3 -0.05554c-0.4802-1.879-1.15-3.704-2-5.447-0.1276-0.262-0.3642-0.4559-0.6467-0.5277l-0.0079-2e-3c-0.08043-0.0206-0.163-0.02975-0.246-0.02975zm-57.25 7.008c-0.7763-7.34e-4 -1.581 0.2425-2.228 0.7955-0.6501 0.5552-1.091 1.396-1.226 2.428-0.5676 4.337-0.2565 8.742 0.9184 12.96a0.5 0.5 0 0 0 0 2e-3c2.281 8.121 7.62 15.05 14.9 19.32l0.08728 0.05157 2e-3 2e-3a0.5 0.5 0 0 0 2e-3 2e-3c2.467 1.444 5.116 2.549 7.875 3.293a0.5 0.5 0 0 0 0.04562 0.0238c1.915 0.5427 3.838 0.8769 5.715 1.014 0.3776 0.0274 0.7366-0.1663 0.9264-0.4939l3.122-5.366a0.5 0.5 0 0 0 4e-3 -0.0119l9.899-17.02c0.272-0.4685 0.1091-1.084-0.359-1.357l-4.539-2.646c-0.4698-0.2749-1.089-0.1105-1.361 0.361l-1.319 2.271-9.532 16.38c-2.4-0.5741-4.713-1.454-6.84-2.698l-0.07935-0.04562c-8.805-5.153-13.64-15.09-12.27-25.2 0.1625-1.193-0.3011-2.263-1.041-2.966-0.6752-0.6413-1.567-0.9624-2.47-1.018-0.00837-0.0042-0.01531-0.0099-0.0238-0.01389l0.00198 0.0079c-0.0556-0.0031-0.107-0.03092-0.1627-0.03174l0.1646 0.04563 0.00793 0.07736a0.5 0.5 0 0 0-0.1726-0.123 0.5 0.5 0 0 0-0.04761-0.02976z" fill="url(#a)"/>
 <path transform="translate(0) scale(1) translate(0) scale(1) translate(-1e-6) scale(1) translate(.007422 -.001002) scale(1) translate(-.00025 -.005316) scale(1) matrix(.9846 0 0 .9846 .4925 .4897)" d="m31.94 16.74c-8.423 0-15.28 6.866-15.28 15.28 0 8.419 6.864 15.28 15.28 15.28s15.28-6.866 15.28-15.28c0-8.419-6.866-15.28-15.28-15.28zm0 8.24c1.859 0 3.666 0.7531 4.99 2.064 1.31 1.323 2.06 3.126 2.06 4.984s-0.7501 3.663-2.06 4.986c-1.324 1.311-3.132 2.064-4.99 2.064-1.856 0-3.656-0.7503-4.98-2.059v-2e-3c-1.319-1.33-2.064-3.12-2.068-4.992 5.15e-4 -1.859 0.7554-3.663 2.068-4.988v-2e-3c1.322-1.306 3.125-2.057 4.98-2.057z" fill="url(#b)"/>
</svg>
