<svg xmlns="http://www.w3.org/2000/svg" fill="none" viewBox="0 0 64 64"><defs><linearGradient id="a" x1="64" x2="64" y1="101.3" y2="32" gradientUnits="userSpaceOnUse"><stop offset="0" stop-color="#02aa93"/><stop offset="1" stop-color="#67ff80"/></linearGradient><linearGradient id="c" x1="58.5" x2="58.5" y1="55" y2="46" gradientUnits="userSpaceOnUse"><stop offset="0" stop-color="#fda700"/><stop offset="1" stop-color="#ffde00"/></linearGradient></defs><path fill="url(#a)" d="M118.2 32c-.476 0-.888.35-.993.815-5.815 25.85-37.16 25.85-37.16 25.85h-58.67c-4.589 0-9.178-3.95-10.37-5.051a1.05 1.05 0 0 0-.711-.283h-3.92a1 1 0 0 0-1 1v19.33a1 1 0 0 0 1 1h3.92c.265 0 .516-.102.711-.282 1.191-1.102 5.78-5.051 10.37-5.051.684 0 1.1.77.813 1.39-.542 1.173-.813 2.422-.813 3.943v10.67c0 5.867 4.8 10.67 10.67 10.67h4.333a1 1 0 0 1 1 1v3.333a1 1 0 0 0 1 1h8.667a1 1 0 0 0 1-1V97a1 1 0 0 1 1-1h3.333a1 1 0 0 1 1 1v3.333a1 1 0 0 0 1 1h8.667a1 1 0 0 0 1-1V97a1 1 0 0 1 1-1h3.333a1 1 0 0 1 1 1v3.333a1 1 0 0 0 1 1h8.667a1 1 0 0 0 1-1V97a1 1 0 0 1 1-1h4.333c5.867 0 10.67-4.8 10.67-10.67V74.66c0-.544 1.068-1.54 1.571-1.334 8.233 3.362 16.47 9.608 19.57 21.89.114.451.517.777.983.777h3.538a1 1 0 0 0 1-1v-62a1 1 0 0 0-1-1h-3.514zM32.05 88c-1.6 0-2.667-1.067-2.667-2.667v-10.67c0-1.6 1.067-2.667 2.667-2.667h4.333a1 1 0 0 1 1 1v14a1 1 0 0 1-1 1H32.05zm17 0a1 1 0 0 1-1-1V73a1 1 0 0 1 1-1h3.333a1 1 0 0 1 1 1v14a1 1 0 0 1-1 1zm16 0a1 1 0 0 1-1-1V73a1 1 0 0 1 1-1h3.333a1 1 0 0 1 1 1v14a1 1 0 0 1-1 1zm23-2.667c0 1.6-1.067 2.667-2.667 2.667H81.05a1 1 0 0 1-1-1V73a1 1 0 0 1 1-1h4.333c1.6 0 2.667 1.067 2.667 2.667v10.67z" transform="translate(-2.909 -4.363)scale(.5455)"/><path fill="url(#c)" d="M38 55h8.75a1 1 0 0 0 1-1v-7a1 1 0 0 0-1-1H38a1 1 0 0 0-1 1v7a1 1 0 0 0 1 1" transform="translate(-2.909 -4.363)scale(.5455)"/><path fill="url(#c)" d="M54.12 55h8.75a1 1 0 0 0 1-1v-7a1 1 0 0 0-1-1h-8.75a1 1 0 0 0-1 1v7a1 1 0 0 0 1 1" transform="translate(-2.909 -4.363)scale(.5455)"/><path fill="url(#c)" d="M70.25 55H79a1 1 0 0 0 1-1v-7a1 1 0 0 0-1-1h-8.75a1 1 0 0 0-1 1v7a1 1 0 0 0 1 1" transform="translate(-2.909 -4.363)scale(.5455)"/></svg>