<svg xmlns="http://www.w3.org/2000/svg" viewBox="0 0 64 64"><defs><linearGradient id="a" x2="0" y2="1"><stop offset="0" stop-color="#7100ff"/><stop offset="1" stop-color="#fe8c19"/></linearGradient><linearGradient id="c" y1="1"><stop offset="0" stop-color="#b42981"/><stop offset=".5" stop-color="#ff4d4f"/><stop offset="1" stop-color="#ffc93a"/></linearGradient></defs><path fill="url(#a)" d="M32.01 0C14.35 0 0 14.34 0 32.01s14.34 32.01 32.01 32.01 32.01-14.34 32.01-32.01S49.68 0 32.01 0m0 5.447a26.6 26.6 0 0 1 18.78 7.777 26.61 26.61 0 0 1 7.744 20.09l-.758.486a83.2 83.2 0 0 1-21.78 9.902 87.3 87.3 0 0 1-24.09 3.295l-1.662-.013h-.164a26.6 26.6 0 0 1-4.631-14.98 26.6 26.6 0 0 1 7.777-18.78 26.6 26.6 0 0 1 18.78-7.777zm25.14 35.11a26.5 26.5 0 0 1-6.354 10.23 26.6 26.6 0 0 1-18.78 7.777 26.43 26.43 0 0 1-16.94-6.139 92.8 92.8 0 0 0 22.43-3.49 87.6 87.6 0 0 0 19.65-8.381z" transform="scale(.9997)"/><path fill="url(#c)" d="M18.45 13.32a.7.7 0 0 0-.62.692v.79c-1.103.166-2.123.562-2.964 1.238-1.186.972-1.928 2.506-1.928 4.253 0 1.862 1.104 3.279 2.307 4.054s2.537 1.12 3.542 1.45c1.088.363 2.208.71 2.917 1.17.708.446 1.006.776 1.006 1.699 0 1.055-.313 1.614-.874 2.043-.543.445-1.45.738-2.62.738-1.153 0-2.107-.293-2.684-.705-.576-.396-.79-.792-.79-1.385 0-.495-.266-.974-.694-1.221a1.45 1.45 0 0 0-1.418 0 1.42 1.42 0 0 0-.692 1.22c0 1.517.825 2.85 1.995 3.674.824.577 1.81.939 2.897 1.104v.809c0 .379.315.693.694.693h1.4a.7.7 0 0 0 .694-.693v-.81c1.104-.164 2.126-.556 2.967-1.232 1.186-.956 1.91-2.49 1.91-4.237 0-1.862-1.088-3.277-2.29-4.052-1.22-.775-2.538-1.121-3.543-1.451-1.088-.363-2.21-.71-2.919-1.17-.708-.445-1.004-.775-1.004-1.698 0-1.038.313-1.63.873-2.075s1.45-.74 2.586-.707h.016c1.17 0 2.125.295 2.686.707.577.395.809.792.809 1.385 0 .494.265.973.693 1.22.429.248.97.248 1.397 0 .445-.246.71-.725.694-1.22 0-1.516-.824-2.851-1.977-3.675-.84-.577-1.812-.94-2.9-1.106v-.807a.7.7 0 0 0-.693-.693h-1.399c-.023 0-.05-.003-.074 0zm28.19 6.111q-.036.003-.072.01h-.069a.84.84 0 0 0-.345.164v.008l-.016.017v.008l-.99.989-3.462 3.446a.714.714 0 0 0 0 .986l.99.989c.28.28.725.28.988 0l2.967-2.963 2.95 2.963c.28.28.723.28.987 0l.988-.989a.684.684 0 0 0 0-.986l-4.433-4.434a.64.64 0 0 0-.484-.208zm-17.01 16.2-.018.002a.7.7 0 0 0-.617.707v1.385a.7.7 0 0 0 .692.71h7.677a.7.7 0 0 0 .691-.71V36.34a.7.7 0 0 0-.691-.707h-7.677l-.04-.002z" transform="scale(.9997)"/></svg>