<svg xmlns="http://www.w3.org/2000/svg" style="isolation:isolate" viewBox="0 0 64 64"><linearGradient id="a" x1="0" x2="1" y1=".5" y2=".5" gradientTransform="matrix(47 0 0 44.76 .5 1.619)" gradientUnits="userSpaceOnUse" transform="translate(-.68 -.681)scale(1.362)"><stop offset="0" stop-color="#d300dc"/><stop offset="1" stop-color="#8700ff"/></linearGradient><path fill="url(#a)" fill-rule="evenodd" d="M20.64 36.3v1.766c-2.294.544-4.159 1.701-5.852 3.338-1.117 1.081-1.182 3.082 0 4.144a3.26 3.26 0 0 0 2.306.833 2.95 2.95 0 0 0 1.928-.833q.324-.316.667-.595c.098-.064.196-.135.294-.199a10 10 0 0 1 1.22-.671 10 10 0 0 1 1.772-.472 9 9 0 0 1 1.022-.039 9 9 0 0 1 1.022.039c.601.103 1.197.261 1.772.472.425.199.828.416 1.22.671.098.064.196.135.294.199q.343.279.667.595a2.95 2.95 0 0 0 1.928.833 3.26 3.26 0 0 0 2.306-.833c1.182-1.062 1.117-3.063 0-4.144-1.693-1.637-3.558-2.794-5.852-3.338V36.3h7.305c.404 0 .815.013 1.225.013h.291c.259 0 .512-.007.771-.02a11.25 11.25 0 0 0 6.362-2.361 10 10 0 0 0 1.062-.946 10.4 10.4 0 0 0 1.724-2.311c.86-1.556 1.327-2.841 1.384-4.619q.008-.153.006-.298c.013-1.435-1.194-2.813-2.659-2.921-.083 0-.171-.006-.253 0h-.032c-.031 0-.069.007-.101.007a3.06 3.06 0 0 0-1.883.844c-.372.362-.65 1.056-.783 1.583a2.8 2.8 0 0 0-.089.699c0 .235-.012.463-.031.698-.082.451-.202.441-.36.873a8 8 0 0 1-.67 1.155 8 8 0 0 1-.449.495q-.239.228-.486.445c-.07.05-.133.095-.202.139-.31.204-.632.381-.961.54a8.4 8.4 0 0 1-1.307.356q-.568.045-1.144.044h-.303c-.499 0-.992-.013-1.479-.013h-20.08c-.613 0-1.232.026-1.858.026h-.291c-.442 0-.884-.013-1.32-.051a8.5 8.5 0 0 1-1.314-.356 8 8 0 0 1-.961-.539l-.189-.134c-.164-.146-.335-.292-.493-.45s-.303-.324-.448-.489a8.238 8.238 0 0 1-.664-1.143 9 9 0 0 1-.366-1.34v-.006a18 18 0 0 1-.076-1.543v-.006c-.013-1.073.044-2.371.044-3.424v-8.122a15 15 0 0 1 0-.743v-.038c.006-.216.013-.438.032-.654q.13-.675.366-1.32c.158-.331.335-.642.531-.946l.133-.191c.151-.165.296-.336.454-.495.158-.165.323-.311.493-.457l.19-.134q.455-.303.947-.539.646-.239 1.321-.362a16 16 0 0 1 1.226-.045h.227c.493 0 .992.013 1.478.013h20.09c.613 0 1.232-.025 1.851-.025h.291c.442.006.884.019 1.326.057.449.082.898.203 1.327.362a8 8 0 0 1 1.144.673c.164.146.335.292.493.451.158.152.303.317.448.488q.067.104.133.197c.202.305.373.622.531.952.164.432.278.877.366 1.327.019.21.025-.022.032.194v.05c.006.769.341 1.741.872 2.287.461.477 1.08.8 1.756.845a1 1 0 0 0 .126.006h.165c1.478-.082 2.761-1.181 2.862-2.692.006-.07.006-.146.006-.216-.032-3.828-2.028-6.954-5.276-8.961-1.87-1.149-3.999-1.587-6.16-1.587H11.59c-2.881 0-5.611 1.06-7.715 3.041C1.652 6.765.489 9.761.489 12.802v11.556c.006 1.466.051 2.92.531 4.329a11.47 11.47 0 0 0 3.645 5.245 10.4 10.4 0 0 0 4.151 2.05c1.295.305 2.565.318 3.873.318h7.943zm-6.927-19.66h4v10.93h-4zm16.57 4h4v6.929h-4zm-8.284-9.633h4v16.56h-4z" transform="translate(-.68 -.681)scale(1.362)"/></svg>