<svg xmlns="http://www.w3.org/2000/svg" viewBox="0 0 64 64"><defs><linearGradient id="a" y2="1"><stop offset="0" stop-color="#00fffa"/><stop offset="1" stop-color="#0078ff"/></linearGradient></defs><path fill="url(#a)" d="M35.48 12.2c5.21 4.498 6.513 9.058 6.513 16.22l2.137-5.537a14.58 14.58 0 0 1 4.234 8.427c.165 2.525-.247 4.76-.898 6.714 2.658-1.692 6.015-3.626 7.452-6.714-.96-10.22-9.171-18.33-19.44-19.11zm-3.663.12c-10.22.96-18.33 9.171-19.11 19.44 4.498-5.21 9.057-6.513 16.22-6.513l-5.536-2.137a14.58 14.58 0 0 1 8.426-4.234c2.525-.165 4.76.247 6.714.898-1.692-2.658-3.626-6.015-6.714-7.452zm-11.54 16.39c-2.657 1.692-6.015 3.626-7.451 6.713.959 10.22 9.17 18.33 19.44 19.11-5.21-4.498-6.514-9.058-6.514-16.22l-2.137 5.536a14.58 14.58 0 0 1-4.233-8.427c-.166-2.524.246-4.76.898-6.713zm34.76 6.267c-4.498 5.21-9.057 6.513-16.22 6.513l5.536 2.138a14.58 14.58 0 0 1-8.426 4.233c-2.525.166-4.76-.246-6.714-.898 1.692 2.658 3.626 6.015 6.714 7.452 10.22-.959 18.33-9.17 19.11-19.44z" transform="translate(-19.209 -18.445)scale(1.51185)"/></svg>