<svg xmlns="http://www.w3.org/2000/svg" style="isolation:isolate" viewBox="0 0 64 64"><linearGradient id="a" x1=".171" x2="1.022" y1=".112" y2="1.098" gradientTransform="matrix(47.5 0 0 41.88 .25 3.059)" gradientUnits="userSpaceOnUse" transform="translate(-.337 -.337)scale(1.347)"><stop offset="0" stop-color="#ffe53b"/><stop offset=".987" stop-color="#ff005b"/></linearGradient><path fill="url(#a)" fill-rule="evenodd" d="M27.55 32.32c-1.165 0-2.111-.915-2.111-2.043 0-1.127.946-2.043 2.111-2.043h17.09a3.117 3.117 0 0 1 3.115 3.115v4.393a9.01 9.01 0 0 1-2.787 6.497c-1.773 1.726-4.19 2.697-6.713 2.697h-28.5c-2.523 0-4.94-.971-6.713-2.697a9.01 9.01 0 0 1-2.787-6.497v-23.49a9.01 9.01 0 0 1 2.787-6.497c1.773-1.726 4.19-2.697 6.713-2.697h28.5c2.523 0 4.94.971 6.713 2.697a9.01 9.01 0 0 1 2.787 6.497v4.433c0 1.128-.946 2.043-2.111 2.043s-2.111-.915-2.111-2.043v-4.433c0-1.359-.56-2.656-1.541-3.616a5.4 5.4 0 0 0-3.737-1.492h-28.5a5.4 5.4 0 0 0-3.737 1.492 5.06 5.06 0 0 0-1.541 3.616v23.49c0 1.359.56 2.656 1.541 3.616a5.4 5.4 0 0 0 3.737 1.492h28.5a5.4 5.4 0 0 0 3.737-1.492 5.06 5.06 0 0 0 1.541-3.616V32.32h-15.98zM9.47 11v1.467h4.4V11zm4.4 1.467v1.466h1.466v-1.466zm-4.4 0H8.003l.135 7.333H9.47zm0 7.333v1.467h4.4V19.8zm4.4 0h1.466v-1.467H13.87zm2.933-8.8v10.27h1.467v-2.934h4.4V16.87h-4.4v-4.4h4.4v-1.467h-5.867zm5.867 1.467v4.4h1.466v-4.4zm0 5.866v2.934h1.466v-2.934zM25.603 11v1.467h2.933v8.8h1.467v-8.8h2.933V11h-7.333m-17.6 11.73V33h7.333V22.73z" transform="translate(-.337 -.337)scale(1.347)"/></svg>