<svg xmlns="http://www.w3.org/2000/svg" viewBox="0 0 64 64"><defs><linearGradient id="a" x2="0" y2="1"><stop offset="0" stop-color="#00ff80"/><stop offset="1" stop-color="#3bff00"/></linearGradient></defs><path fill="url(#a)" d="m38.95 16.34.002.002a8.79 8.79 0 0 0-7.025 3.49 9.4 9.4 0 0 1 1.789 5.535 9.1 9.1 0 0 1-.553 3.104c2.048 1.58 3.851 3.609 5.66 5.578 4.65-.192 8.854-4.363 8.854-9.023 0-4.783-3.9-8.686-8.727-8.686zm-15.23.125c-4.826 0-8.736 3.878-8.736 8.66 0 4.789 3.911 8.666 8.736 8.666a8.74 8.74 0 0 0 4.818-1.436l10.09 16.68c1.351-.59 3.439-8.854.916-12.14-2.552-4.036-5.115-6.12-7.676-8.635.38-.973.59-2.031.59-3.137 0-4.783-3.911-8.66-8.736-8.66zm15.49 5.158a3.355 3.355 0 0 1 3.375 3.361c0 1.873-1.504 3.406-3.375 3.406a3.42 3.42 0 0 1-3.404-3.406c0-1.867 1.537-3.361 3.404-3.361m-15.31.184a3.377 3.377 0 0 1 3.398 3.373c0 1.867-1.515 3.377-3.398 3.377s-3.428-1.508-3.428-3.377c0-1.867 1.544-3.373 3.428-3.373m3.609 12.26c-6.693 3.74-4.038 12.31-2.383 14.97l5.559-9.453z" transform="translate(-29.327 -31.984)scale(1.95741)"/></svg>