<svg version="1.1" viewBox="0 0 64 64" xmlns="http://www.w3.org/2000/svg">
 <defs>
  <linearGradient id="a" y2="1">
   <stop stop-color="#ff7ae2" offset="0"/>
   <stop stop-color="#fa00ff" offset="0"/>
   <stop stop-color="red" offset="1"/>
  </linearGradient>
 </defs>
 <path transform="translate(-.001212 -.00145) scale(1) matrix(4 0 0 4 -.002 .005)" d="M7.604 4.146s-.165-.001-.236.008c-1.62-.01-2.525 1.762-3.322 2.752-.447.734-2.532 2.647-3.893 3.066-.353.07-.06.779.55.422.724-.267 3.322-2.025 3.392-2.082.105-.067.305-.061.392.24.087.302-.113.66-.113.66s-.263.448-.254.695c.124.89.841 1.782 1.57 1.904.525.072 1.3.026 1.3.026l.018-.133c-.017-.2-.427-.285-.427-.285-.003.003-.523.1-.75-.004-.383-.175-.83-.863-.83-.951s.129-.48.129-.48.422.056.562.056.502.017.502.017l.272.42c.086.165.19.081.332.12l.605.007.416-.01v-.152h-.002l-.002-.002c-.013-.027-.062-.261-.265-.265-.234-.011-.54-.042-.567-.127-.043-.138.016-.5.016-.5s.302-.146.94-.02c.635.126 1.36.652 1.36.652-.182.336-.349.41-.38.754-.034.311-.034.31.171.31h.977s0-.413-.281-.392c-.172-.006-.28-.016-.303-.03v-.001H9.48v-.004c0-.08.375-.408.375-.408l.266-.192s.371.25.85.372 1.073.062 1.073.062c.187.112.222.205.315.365.073.288.073.23.234.237.353.009.652-.007.996-.032 0 0 .028-.39-.545-.39 0 0-.21-.131-.248-.328s-.015-.713-.015-.713l.283-.026.373.32.232.022.322.52s.643.046.858-.036c.215-.08.606-.299.832-.543s.375-.821.299-1.146-.498-.714-.498-.714c-.891-.845-2.28-2.258-3.141-2.266-.137 0-.48.322-.678.18-1.233-.85-2.582-1.893-4.06-1.954zm6.309 3.549a.443.443 0 1 1 0 .887.443.443 0 0 1 0-.887" fill="url(#a)"/>
</svg>
