<svg version="1.1" viewBox="0 0 64 64" xmlns="http://www.w3.org/2000/svg">
 <defs>
  <linearGradient id="a" y1=".5" y2=".5">
   <stop stop-color="#e5f230" offset="0"/>
   <stop stop-color="#24d864" offset="1"/>
  </linearGradient>
  <linearGradient id="b" x2="0" y1="1">
   <stop stop-color="#f618c7" offset="0"/>
   <stop stop-color="#ab37c8" offset=".33"/>
   <stop stop-color="#8d5fd3" offset=".67"/>
   <stop stop-color="#0f83ae" offset="1"/>
  </linearGradient>
 </defs>
 <path transform="translate(-.0116 9.7e-5) scale(1) translate(3.153 3.153) scale(.9014)" d="m18.2-3.498c-8.185 0-14.88 6.7-14.88 14.88v41.23c0 8.186 6.702 14.88 14.88 14.88h27.62c8.186 0 14.88-6.702 14.88-14.88v-41.23c0-8.186-6.701-14.88-14.88-14.88zm0 7h27.62c4.421 0 7.883 3.459 7.883 7.883v41.23c0 4.421-3.459 7.885-7.883 7.885h-27.62c-4.421 0-7.885-3.461-7.885-7.885v-41.23c0-4.421 3.46-7.883 7.885-7.883z" fill="url(#b)"/>
 <path transform="translate(-.0116 9.7e-5) scale(1) matrix(.9014 0 0 .9014 3.153 3.153)" d="m31.94 8.287c-3.523 0.01-6.9 1.238-9.668 3.379l-0.9414-0.9414a1.153 1.153 0 0 0-2e-3 -2e-3c-0.7164-0.7132-1.78-0.8494-2.596-0.5117-0.8152 0.3376-1.468 1.186-1.471 2.197a1.153 1.153 0 0 0 0 2e-3v5.643c0 1.303 1.082 2.383 2.385 2.383h5.637a1.153 1.153 0 0 0 2e-3 0c1.012-1e-3 1.863-0.6546 2.201-1.471 0.3382-0.8161 0.1976-1.881-0.5176-2.598l-0.4473-0.4473c3.104-2.071 6.727-2.086 9.707-0.6582 3.314 1.586 5.757 4.889 5.637 9.23-0.1472 5.148-4.187 9.315-9.328 9.615-5.14 0.3024-9.635-3.353-10.4-8.441l-2e-3 -0.01172c-0.3358-2.444-3.54-3.448-5.207-1.621a1.153 1.153 0 0 0-0.0059 0.0078c-0.5725 0.6376-0.8448 1.493-0.7461 2.344a1.153 1.153 0 0 0 0.0039 0.02734c1.14 8.082 8.23 14.01 16.39 13.7a1.153 1.153 0 0 0 0.01172 0c8.249-0.3994 14.86-7.013 15.26-15.26a1.153 1.153 0 0 0 2e-3 -0.01172c0.3464-9.005-6.884-16.53-15.9-16.54a1.153 1.153 0 0 0-0.01172-0.00391z" fill="url(#a)"/>
</svg>
