<svg xmlns="http://www.w3.org/2000/svg" viewBox="0 0 64 64"><defs><linearGradient id="a" y1="1"><stop offset="0" stop-color="#fd0f00"/><stop offset="1" stop-color="#fff500"/></linearGradient></defs><path fill="url(#a)" d="M10.5 1A4.5 4.5 0 0 0 6 5.5a4.5 4.5 0 0 0 4.5 4.5A4.5 4.5 0 0 0 15 5.5 4.5 4.5 0 0 0 10.5 1m.11 2a2.209 1.767 45 0 1 1.64.75 2.209 1.767 45 0 1 .313 2.812 2.209 1.767 45 0 1-2.812-.313 2.209 1.767 45 0 1-.313-2.811A2.209 1.767 45 0 1 10.61 3M5.18 6.883l-3.926 3.998a.88.88 0 0 0-.255.62v2.624c0 .483.391.875.875.875H4.1c.483 0 .9-.392.9-.875V12h2.125c.483 0 .875-.017.875-.5l-.031-1.123a5.5 5.5 0 0 1-1.311-.947l-3.443 3.41c-.619.588-1.517-.308-.93-.928l3.586-3.44a5.5 5.5 0 0 1-.69-1.589" color="#ebdbb2" transform="translate(-4.567 -4.569)scale(4.57117)"/></svg>