<svg xmlns="http://www.w3.org/2000/svg" xmlns:xlink="http://www.w3.org/1999/xlink" viewBox="0 0 64 64"><defs><linearGradient id="a" y1="1"><stop offset="0" stop-color="#00fffa"/><stop offset="1" stop-color="#0078ff"/></linearGradient><linearGradient xlink:href="#a" id="e" x1="3" x2="5" y1="12" y2="10" gradientTransform="translate(3.304 -11.84)scale(3.587)" gradientUnits="userSpaceOnUse"/><linearGradient xlink:href="#a" id="g" x1="4.041" x2="7.506" y1="20.78" y2="17.32" gradientTransform="matrix(6.213 0 0 2.071 3.304 -11.84)" gradientUnits="userSpaceOnUse"/><linearGradient id="h" x1="1.164" x2="19.44" y1="19.41" y2="1.132" gradientTransform="matrix(1.493 0 0 1.666 30.58 23.13)" gradientUnits="userSpaceOnUse"><stop offset="0" stop-color="#9000ff"/><stop offset="1" stop-color="#ff4aff"/></linearGradient><linearGradient xlink:href="#a" id="d" x1=".595" x2="1.508" y1="11.03" y2="11.03" gradientTransform="matrix(6.213 0 0 2.071 3.304 -11.84)" gradientUnits="userSpaceOnUse"/><linearGradient xlink:href="#a" id="b" x1="-.397" x2="1.946" y1="12.67" y2="5.641" gradientTransform="matrix(6.213 0 0 2.071 3.304 -11.84)" gradientUnits="userSpaceOnUse"/></defs><path fill="url(#b)" d="M1.719-.7C.953-.7.301-.067.301.706v12.63c0 .773.695 1.367 1.418 1.367h.883l1.898 2.44 1.898-2.44h1.926a.8.8 0 0 1-.132-.29L7.934 13.3H5.71l-1.213 1.559-1.213-1.56H1.717q-.012 0-.02.003V.699H14.3L14.298.7v5.55q.14.082.268.181l.658.517c.184.144.347.318.475.518V.705c0-.774-.652-1.404-1.418-1.404H1.72zm13.98 10.01a2 2 0 0 1-.082.115l-.736.94-.582.742v2.19l-.02-.002h-1.697l-.896 1.143a1.5 1.5 0 0 1-.26.26h2.855c.723 0 1.418-.593 1.418-1.366z" transform="translate(3.305 2.508)scale(3.587)"/><path fill="url(#a)" d="M3.365 2A.37.37 0 0 0 3 2.367v1.268A.37.37 0 0 0 3.365 4h1.27A.37.37 0 0 0 5 3.635V2.367A.37.37 0 0 0 4.635 2z" transform="translate(3.305 2.508)scale(3.587)"/><path fill="url(#a)" d="M8 2a1 1 0 0 0-1 1 1 1 0 0 0 1 1h4a1 1 0 0 0 1-1 1 1 0 0 0-1-1z" transform="translate(3.305 2.508)scale(3.587)"/><path fill="url(#a)" d="M3.365 10a.37.37 0 0 0-.365.367v1.268a.37.37 0 0 0 .365.365h1.27A.37.37 0 0 0 5 11.635v-1.268A.37.37 0 0 0 4.635 10z" transform="translate(3.305 2.508)scale(3.587)"/><path fill="url(#d)" d="M8 10a1 1 0 0 0-1 1 1 1 0 0 0 .932.997q.077-.18.2-.34l.084-.107h.002L9.433 10z" transform="translate(3.305 2.508)scale(3.587)"/><path fill="url(#e)" d="M15.37 24.03c-.71 0-1.31.607-1.31 1.317v4.548c0 .71.6 1.31 1.31 1.31h4.555c.71 0 1.31-.6 1.31-1.31v-4.548c0-.71-.6-1.317-1.31-1.317z"/><path fill="url(#g)" d="M32 24.03a3.587 3.587 0 0 0-3.588 3.588A3.587 3.587 0 0 0 32 31.204h10.76l1.174-1.498 2.641-3.369a6.1 6.1 0 0 1 1.902-1.605 3.6 3.6 0 0 0-2.131-.701h-14.35z"/><path fill="url(#h)" d="M51.13 25.02c-1.392.036-2.825.726-3.771 1.932l-2.64 3.37-11.46 14.62h-.003a4.45 4.45 0 0 0-.826 3.746l1.23 5.294a1.92 1.92 0 0 0 1.89 1.485l5.433-.07a4.44 4.44 0 0 0 3.444-1.7l11.46-14.61 2.643-3.37c.946-1.208 1.272-2.763.974-4.122-.298-1.36-1.123-2.51-2.214-3.367l-2.36-1.855c-1.091-.856-2.41-1.382-3.8-1.346zm.095 3.832c.334-.008.831.133 1.337.53l2.366 1.855c.508.397.764.845.835 1.17.072.326.059.547-.25.94l-1.456 1.858-5.135-4.026 1.457-1.858c.307-.39.513-.46.847-.468zm-4.67 5.345 5.135 4.026-10.27 13.1-.003.003a.6.6 0 0 1-.465.231h-.003l-3.897.05-.88-3.796a.61.61 0 0 1 .11-.51l.003-.004v-.003z"/></svg>