<svg xmlns="http://www.w3.org/2000/svg" fill="none" viewBox="0 0 64 64"><defs><linearGradient id="a" x1="8" x2="8" y1="14.25" y2="2" gradientUnits="userSpaceOnUse"><stop offset="0" stop-color="#5570ff"/><stop offset="1" stop-color="#4dd3ff"/></linearGradient><linearGradient id="c" x1="8" x2="8" y1="12.5" y2="10.75" gradientUnits="userSpaceOnUse"><stop offset="0" stop-color="#ffa800"/><stop offset="1" stop-color="#fff737"/></linearGradient></defs><path fill="url(#a)" fill-rule="evenodd" stroke="url(#a)" stroke-width=".5" d="M14.12 5.5H1.87v7a.875.875 0 0 0 .875.875h10.5a.875.875 0 0 0 .875-.875zm0-.875H1.87V3.75a.875.875 0 0 1 .875-.875h10.5a.875.875 0 0 1 .875.875zm.875-.875A1.75 1.75 0 0 0 13.245 2h-10.5a1.75 1.75 0 0 0-1.75 1.75v8.75a1.75 1.75 0 0 0 1.75 1.75h10.5a1.75 1.75 0 0 0 1.75-1.75z" clip-rule="evenodd" transform="translate(-3.31 -3.862)scale(4.414)"/><path fill="url(#c)" stroke="url(#c)" stroke-width=".5" d="M3.625 11.19a.44.44 0 0 1 .438-.437h.875a.44.44 0 0 1 .437.437v.875a.44.44 0 0 1-.437.438h-.875a.44.44 0 0 1-.438-.438zm3.5 0a.44.44 0 0 1 .438-.437h.875a.44.44 0 0 1 .437.437v.875a.44.44 0 0 1-.437.438h-.876a.44.44 0 0 1-.437-.438zm3.5 0a.44.44 0 0 1 .438-.437h.874a.44.44 0 0 1 .438.437v.875a.44.44 0 0 1-.437.438h-.876a.44.44 0 0 1-.437-.438z" transform="translate(-3.31 -3.862)scale(4.414)"/></svg>