<svg version="1.1" viewBox="0 0 64 64" xmlns="http://www.w3.org/2000/svg">
 <defs>
  <linearGradient id="a" y1="1">
   <stop stop-color="#ffe100" offset="0"/>
   <stop stop-color="#f0e" offset="1"/>
  </linearGradient>
 </defs>
 <path transform="translate(-0 1e-5) scale(1) translate(.001 .013) scale(.9999)" d="M53.93 41.11q1.075-1.034 2.486-1.034c1.411 0 1.772.345 2.494 1.034l4.06 4.134q1.034 1.047 1.034 2.443c0 1.396-.346 1.752-1.039 2.466s-1.512 1.07-2.46 1.07-1.774-.37-2.481-1.107l-4.06-4.06q-1.107-1.043-1.107-2.478 0-1.434 1.074-2.468zm2.026-34.45q1.034 1.06 1.034 2.486 0 1.425-1.034 2.433l-4.06 4.134q-1.088 1.034-2.495 1.034T46.95 15.71q-1.107-1.068-1.107-2.5c0-1.432.37-1.769 1.107-2.442l4.06-4.134Q52.077 5.6 53.5 5.6q1.422 0 2.456 1.061zm-47.98.01Q9.014 5.6 10.447 5.6c1.433 0 1.779.344 2.471 1.034l4.134 4.134q1.034 1.065 1.034 2.49 0 1.422-1.045 2.456c-1.045 1.034-1.513 1.034-2.448 1.034q-1.403 0-2.412-1.034L7.973 11.58q-1.034-1.024-1.034-2.431T7.976 6.67m2.063 34.44q1.034 1.038 1.034 2.47c0 1.433-.344 1.78-1.034 2.472l-4.06 4.06q-1.042 1.107-2.478 1.107-1.434 0-2.468-1.06-1.034-1.058-1.034-2.447t1.034-2.472l4.134-4.134q1.047-1.034 2.443-1.034c1.396 0 1.74.345 2.429 1.037zm21.92 9.224-12.25 7.456q-.96.664-1.993.535a4.1 4.1 0 0 1-1.848-.687 3.4 3.4 0 0 1-1.218-1.495q-.404-.937-.108-2.119l3.248-13.95-10.92-9.596q-.886-.742-1.107-1.753c-.22-1.01-.147-1.325 0-1.954q.222-.944 1.07-1.608c.848-.664 1.243-.688 2.03-.738l14.33-1.262 5.53-13.28q.425-1.107 1.338-1.624.914-.517 1.891-.517c.977 0 1.288.172 1.907.517q.928.517 1.36 1.624l5.59 13.31 14.34 1.233q1.106.074 1.955.738c.85.664.923.98 1.07 1.608q.222.944.037 1.956-.185 1.014-1.07 1.751l-10.92 9.596 3.248 14.02q.222 1.107-.188 2.054a4.3 4.3 0 0 1-1.146 1.58q-.783.561-1.828.64-1.044.082-2.004-.51zm-8.867-16.4a9 9 0 0 0-.043.53v.013q-.023.44.003.88l.002.095q.014.226.038.447l-.332.47-1.096 1.555a1.81 1.81 0 0 0-.165 1.8 12 12 0 0 0 1.086 1.882c.373.527.998.817 1.641.758l2.467-.226q.215.158.437.3l.012.008c.246.158.5.307.763.437q.044.023.085.047.2.099.406.19l.24.522.798 1.726c.27.586.833.983 1.475 1.043.723.068 1.451.068 2.174.002a1.81 1.81 0 0 0 1.476-1.042l1.038-2.25q.243-.106.48-.23l.012-.004q.391-.201.76-.443.04-.027.083-.05.186-.124.367-.256l.573.052 1.894.173a1.81 1.81 0 0 0 1.64-.757 12 12 0 0 0 1.088-1.882 1.81 1.81 0 0 0-.165-1.8L40.9 35.9q.03-.264.043-.53v-.011q.023-.443-.002-.882l-.003-.097a9 9 0 0 0-.038-.446l.332-.47 1.096-1.554a1.81 1.81 0 0 0 .165-1.8 12 12 0 0 0-1.086-1.884 1.81 1.81 0 0 0-1.641-.755l-2.467.227a8 8 0 0 0-.437-.302l-.011-.009a8 8 0 0 0-.764-.436l-.085-.047a9 9 0 0 0-.405-.19l-.241-.521-.798-1.73a1.81 1.81 0 0 0-1.475-1.04 12 12 0 0 0-2.174 0 1.8 1.8 0 0 0-1.476 1.04l-1.038 2.25a9 9 0 0 0-.48.229l-.011.005a8 8 0 0 0-.761.444l-.082.05a8 8 0 0 0-.368.257l-.573-.053-1.894-.174a1.81 1.81 0 0 0-1.64.757q-.631.893-1.088 1.882a1.81 1.81 0 0 0 .165 1.8zm8.849 5.18q-1.737-.002-2.96-1.223-1.223-1.224-1.223-2.96c0-1.16.408-2.144 1.223-2.961q1.223-1.222 2.96-1.221c1.737 0 2.145.406 2.96 1.22q1.223 1.224 1.223 2.962 0 1.736-1.223 2.96-1.223 1.222-2.96 1.223" fill="url(#a)"/>
</svg>
