<svg xmlns="http://www.w3.org/2000/svg" viewBox="0 0 64 64"><defs><linearGradient id="a" y2="1"><stop offset="0" stop-color="#05f"/><stop offset="1" stop-color="#00ffd8"/></linearGradient></defs><path fill="url(#a)" d="M33.27 0v.004h-2.52V.01c-4.576 0-8.252-.001-11.22.238v.004c-3.05.252-5.71.77-8.164 2.022a20.8 20.8 0 0 0-9.088 9.088C1.026 13.815.501 16.473.253 19.522H.249l.004.008C.009 22.5.009 26.173.009 30.75v2.516H.01l-.002.006c0 4.576 0 8.25.244 11.22l.838-.069v.002l-.838.07c.252 3.047.773 5.71 2.025 8.165a20.8 20.8 0 0 0 9.088 9.088c2.454 1.248 5.114 1.774 8.164 2.022 2.975.243 6.647.244 11.22.244h.139v-.828h.004v.828h10.09c.848 0 1.429 0 1.996-.03a20.8 20.8 0 0 0 12.76-5.285l-.551-.619.55.614c.425-.378.833-.786 1.439-1.387l.062-.067.063-.062c.6-.601 1.008-1.01 1.39-1.434l-.62-.555v-.002h.002l.619.557a20.8 20.8 0 0 0 5.285-12.76c.029-.568.029-1.147.029-2v-.088h-.84v-.004h.84v-10.14c0-4.571.001-8.248-.238-11.22-.252-3.05-.778-5.714-2.025-8.164l-.756.383v-.002l.756-.381a20.8 20.8 0 0 0-9.088-9.092l-.002.004C50.202 1.029 47.544.503 44.492.255V.247l-.004.008c-2.966-.248-6.64-.248-11.22-.248zm-21.9 2.281.38.746h-.003zm19.51 5.715h2.244c4.773 0 8.11 0 10.72.215v.004c2.555.206 4.045.596 5.188 1.176a12.86 12.86 0 0 1 5.602 5.602c.58 1.143.97 2.635 1.176 5.19h.004c.21 2.605.215 5.94.215 10.71v8.336c-2.017 0-3.761.01-5.21.127-1.65.134-3.27.429-4.823 1.219a12.4 12.4 0 0 0-5.42 5.42l.004.002c-.793 1.554-1.092 3.174-1.223 4.82h-.004c-.117 1.452-.127 3.195-.127 5.21h-8.33c-4.773 0-8.11 0-10.72-.214v-.004c-2.555-.206-4.047-.598-5.19-1.178a12.82 12.82 0 0 1-5.6-5.6c-.578-1.142-.969-2.633-1.18-5.182v-.002l-.001-.002v-.004c-.21-2.605-.215-5.94-.215-10.71v-2.24h-.836v-.004h.836c0-4.765.001-8.1.215-10.7v-.008c.21-2.559.602-4.049 1.182-5.188a12.82 12.82 0 0 1 5.6-5.6c1.142-.584 2.633-.974 5.182-1.185v.008c2.605-.21 5.94-.215 10.71-.215zm25.77 31.22v.016h-.144a.6.6 0 0 1 .144-.016m-.627.557v.072h-.004a1 1 0 0 1 .004-.072m-4.633 6.703.066.828a30 30 0 0 1 2.277-.094 8 8 0 0 1 1.104.023 8 8 0 0 1-.449.871l.748.418-.752-.418q-.69 1.231-1.639 2.3c-.218.239-.462.483-1.16 1.185a34 34 0 0 1-1.184 1.154l.57.64-.558-.622-.012-.012a12.6 12.6 0 0 1-2.297 1.641l-.002-.002a8 8 0 0 1-.87.45 8 8 0 0 1-.024-1.102 34 34 0 0 1 .088-2.277c.096-1.15.257-1.607.378-1.848l-.732-.377v-.002l.736.373a4.37 4.37 0 0 1 1.924-1.924h.002v-.002h.004c.245-.126.7-.284 1.844-.375zM39.84 56.02v.01h-.103a1 1 0 0 1 .103-.01m-.623.529v.102h-.008a1 1 0 0 1 .008-.102" transform="translate(-.001)scale(.9998)"/></svg>