<svg xmlns="http://www.w3.org/2000/svg" viewBox="0 0 64 64"><defs><linearGradient id="a" x1="1" x2="0" y2="1"><stop offset="0" stop-color="#00efff"/><stop offset="1" stop-color="#07f"/></linearGradient></defs><path fill="url(#a)" d="M7.58 5.381c-5.047 0-9.18 4.126-9.18 9.17v34.9c0 5.047 4.135 9.17 9.18 9.17h48.84c5.047 0 9.17-4.123 9.17-9.17v-34.9c0-5.047-4.123-9.17-9.17-9.17zm0 4.396h48.84c2.685 0 4.773 2.089 4.773 4.773v34.9c0 2.685-2.087 4.775-4.773 4.775H7.58c-2.685 0-4.783-2.088-4.783-4.775v-34.9c0-2.685 2.099-4.773 4.783-4.773" transform="translate(1.524 1.518)scale(.9525)"/><path fill="url(#a)" d="M8.746 12.07a3.315 3.315 0 0 0-3.322 3.324v12.18a3.313 3.313 0 0 0 3.322 3.322h18.83a3.313 3.313 0 0 0 3.322-3.322v-12.18a3.315 3.315 0 0 0-3.322-3.324z" opacity=".75" transform="translate(1.524 1.518)scale(.9525)"/><path fill="url(#a)" d="M36.44 33.12a3.315 3.315 0 0 0-3.324 3.322v12.19a3.315 3.315 0 0 0 3.324 3.322h18.83a3.315 3.315 0 0 0 3.324-3.322v-12.19a3.315 3.315 0 0 0-3.324-3.322z" opacity=".25" transform="translate(1.524 1.518)scale(.9525)"/><path fill="url(#a)" d="M36.44 12.07a3.317 3.317 0 0 0-3.324 3.324v12.18a3.315 3.315 0 0 0 3.324 3.322h18.83a3.315 3.315 0 0 0 3.324-3.322v-12.18a3.317 3.317 0 0 0-3.324-3.324z" opacity=".25" transform="translate(1.524 1.518)scale(.9525)"/><path fill="url(#a)" d="M8.746 33.12a3.313 3.313 0 0 0-3.322 3.322v12.19a3.313 3.313 0 0 0 3.322 3.322h18.83a3.313 3.313 0 0 0 3.322-3.322v-12.19a3.313 3.313 0 0 0-3.322-3.322z" opacity=".25" transform="translate(1.524 1.518)scale(.9525)"/></svg>