<svg version="1.1" viewBox="0 0 64 64" xmlns="http://www.w3.org/2000/svg">
 <defs>
  <style>.ColorScheme-Text { color:#ebdbb2; } .ColorScheme-Highlight { color:#458588; }</style>
  <linearGradient id="a" y1="1">
   <stop stop-color="#07f" offset="0"/>
   <stop stop-color="#00f7ff" offset="1"/>
  </linearGradient>
 </defs>
 <path transform="translate(1e-6) scale(1) translate(-.000619) scale(1) matrix(4.571 0 0 4.571 -4.571 -4.571)" d="m7.928 1-0.00781 0.00391c-3.841 0.04288-6.92 3.146-6.92 6.996 0 3.878 3.122 7 7 7 3.819 0 6.897-3.03 6.99-6.826 0 0 0.0071-0.1196 0.0098-0.1738v-5.5c-7.4e-5 -0.8304-0.6694-1.5-1.5-1.5h-5.5zm0.07227 2c2.76 0 5 2.24 5 5s-2.24 5.002-5 5.002-5.002-2.242-5.002-5.002 2.242-5 5.002-5z" fill="url(#a)"/>
 <path transform="translate(1e-6) scale(1) translate(-.000619) scale(1) matrix(4.571 0 0 4.571 -4.571 -4.571)" d="m7.77 4.502c-0.0879 0.00483-0.1851 0.02742-0.291 0.07227-0.2748 0.1111-0.2034 0.5133-0.1797 0.7871-0.01575 0.02538-0.04864 0.01562-0.07227 0.01562-0.2984 0.0175-0.4311 0.3598-0.4941 0.6328 0.01575 0.2485-0.01532 0.5229-0.05469 0.7617-0.03938 0.2398-0.119 0.4281-0.127 0.6582-0.01487 0.2056 0.05589 0.4447 0.04102 0.6328-0.1654 0.5302-0.2834 0.8805-0.3691 1.445-0.063 0.1286-0.2825 0.4025-0.3691 0.4629-0.02362 0.04287 0.01593 0.1349-0.02344 0.1953-0.07 0.1102-0.1811 0.1711-0.2441 0.291 0 0 0.00195 2e-3 0.00195 2e-3v8e-3s-0.00195 2e-3 -0.00195 2e-3c-5.514e-4 8.06e-4 -0.00319 5e-3 -0.00391 0.0059-0.01642 0.01557-0.06194 0.03472-0.07812 0.05664-0.00211 0.0035-0.00342 0.0099-0.00391 0.01367v6e-3c0.00788 0.04287 0.06319 0.1535 0.08594 0.1797 0 0 0.00195 2e-3 0.00195 2e-3v2e-3h0.0039c7.268e-4 1.17e-4 0.00504-3.7e-5 0.00586 0 0.01734-6.93e-4 0.05215-0.013 0.06836-0.01172h0.00195v2e-3h0.0039v4e-3h0.00195v2e-3c0.0315 0.1024 0.101 0.3175 0.1797 0.3691 0.3456 0.042 0.3454 0.042 0.4863 0 0.07875-0.2485-0.2669-0.1373-0.2363-0.4707 0.4716-0.1024 0.6205-0.2481 0.8086-0.7871 0.08662-0.3929 0.2056-0.7782 0.3867-1.154l0.00195-0.00195c0.02743-0.0271 0.02081-0.09173 0.07422-0.1172 0.2118 0.385 0.5971 0.6575 0.7852 1.059 0.04725 0.5215 0.1422 0.8038 0.3066 0.8984h0.00195s0.00195 2e-3 0.00195 2e-3 0.00195 2e-3 0.00195 2e-3 0.00195 2e-3 0.00195 2e-3 0.00195 2e-3 0.00195 2e-3c0.02269 0.03691-0.00428 0.1665 0.01953 0.2031 0 0 0.00195 2e-3 0.00195 2e-3 0 0.05162 0.01582 0.1115-0.00781 0.1719-0.01575 0.04287-0.00586 0.09385-0.00586 0.1367v0.05078c7e-3 0.077 0.02288 0.07722 0.09375 0.1367 0.2039 0.1452 0.4772 0.3776 0.752 0.207 0.126-0.2231-0.14-0.5052-0.3281-0.6504-0.063-0.05162-0.1739-0.1799-0.1582-0.2656 0.1024-0.1111 0.1722-0.5983 0.1328-0.9746-0.01575-0.08575-0.03012-0.1719-0.0625-0.2402-0.09362-0.196-0.3061-0.4691-0.4863-0.666 0.02275-0.02538 0.05525-0.06062 0.09375-0.07812 0-0.1881-0.07044-0.2463-0.1641-0.3828-0.07875-0.1374-0.2587-0.4034-0.3926-0.4883h-0.00195v-0.00195h-0.00195c-0.00893-0.00258-0.03747-0.00586-0.1289-0.00586-0.00788-0.0945 0.01543-0.173 0.03906-0.2754 0-0.077 0.05543-0.0344 0.07031-0.2051 0.03938-0.1461 0.02319-0.05985 0.05469-0.2051 0.0315-0.06825 0.04688-0.137 0.04688-0.248 0.1172 0.04288 0.3527 0.03412 0.4551 0l0.02344 0.01758c9.844e-4 2.734e-4 0.00492-1.587e-4 0.00586 0 8.969e-4 5.03e-5 5e-3 5.17e-5 0.00586 0h0.0039l0.0039-0.0039c0.01384-0.00933 0.02442-0.03223 0.03711-0.04297l0.0039-0.0039c7.085e-4 -3.282e-4 0.00317 2.46e-4 0.00391 0 0.1802-0.1032 0.2418-0.2822 0.3906-0.2988 0 0 0.08002-0.04288 0.1973 0 0.02658 0 0.05237 9.932e-4 0.06836-0.00586l0.0039-0.0039c7.297e-4 -5.721e-4 0.00519-0.00326 0.00586-0.00391v-0.00195l0.00195-0.00195c4.912e-4 -8.84e-4 0.00348-0.00489 0.00391-0.00586 0.0018-0.00532 0.00195-0.0116 0.00195-0.01953 0.00788-0.077 0.00859-0.1388 0.04883-0.1894 0.03062 0.2048 0.1167 0.436 0.2734 0.6582l0.1562-0.1191c-0.1488-0.1969-0.2432-0.4174-0.2598-0.6738 0.00788 0.01662 0.01744 0.03415 0.0332 0.05078 0.05513 0 0.08539-0.129 0.1484-0.1211 0.00788-0.01662 0.0233-0.09392 0.03906-0.1543h0.5899l0.2109-0.05178v-0.1191l-0.1562-0.01758v-0.1367h-0.04102v-0.1543h-0.0918v0.1465l-0.2441-0.01758v-0.09375h-0.09375v0.08594l-0.252-0.02539v-0.1289h-0.09375v0.1191l-0.3691-0.02539v-0.04297h-0.2754v-0.07617h-0.1484v0.04102c-0.01662 0.00875-0.032 0.02729-0.04688 0.03516h-0.01562c-0.2599-0.2222-0.2768 0.2313-0.4492 0.1289-0.01575-0.0945-0.00781-0.1807-0.00781-0.291 0.1166-0.00342 0.1737-0.02108 0.1914-0.04492 5.913e-4 -9.811e-4 0.00147-0.00485 0.00195-0.00586 7.414e-4 -0.00207 0.00163-0.00759 0.00195-0.00977 0.00213-0.03673-0.04761-0.08724-0.0918-0.1445-0.0315-0.04288-0.04682-0.1114-0.05469-0.1543-0.05316-0.2113-0.2304-0.3602-0.4941-0.3457zm0.5137 1.316c0.0464-0.00417 0.07422 0.01172 0.07422 0.01172 0.09362-0.01662 0.1804 0.00875 0.3301 0-0.0245 0.2826-0.2121 0.1644-0.416 0.3184-0.05512-0.00875-0.1193-0.00977-0.2051-0.00977-0.01575-0.1881 0.0475-0.2217 0.07812-0.2559 0.05512-0.0448 0.1026-0.06121 0.1387-0.06445z" fill="url(#a)"/>
</svg>
