<svg xmlns="http://www.w3.org/2000/svg" viewBox="0 0 64 64"><defs><linearGradient id="a" y1=".5" y2=".5"><stop offset="0" stop-color="#fea51d"/><stop offset="1" stop-color="#ff0a76"/></linearGradient></defs><path fill="url(#a)" d="M9.025 1a7 7 0 1 0 0 14 7 7 0 0 0 4.947-2.053l-.873-.873a5.77 5.77 0 0 1-4.074 1.691 5.767 5.767 0 0 1-4.076-9.844 5.76 5.76 0 0 1 4.076-1.688 5.77 5.77 0 0 1 4.074 1.691l.873-.873A7 7 0 0 0 9.025.998zm0 2.041c-2.738 0-4.957 2.22-4.957 4.959s2.219 4.959 4.957 4.959a4.96 4.96 0 0 0 3.504-1.455l-.877-.877a3.72 3.72 0 0 1-2.627 1.092 3.718 3.718 0 0 1 0-7.436c.986 0 1.931.393 2.627 1.09l.877-.877a4.96 4.96 0 0 0-3.504-1.455m0 2.041a2.915 2.915 0 1 0 2.062 4.978l-.883-.884a1.668 1.668 0 1 1 0-2.356l.883-.885a2.91 2.91 0 0 0-2.062-.854z" transform="translate(-4.56 -4.562)scale(4.571)"/></svg>