<svg xmlns="http://www.w3.org/2000/svg" fill="none" viewBox="0 0 64 64"><defs><linearGradient id="a" x1="20.86" x2="98.92" y1="64" y2="64" gradientUnits="userSpaceOnUse"><stop offset="0" stop-color="#5570ff"/><stop offset="1" stop-color="#4dd3ff"/></linearGradient><linearGradient id="c" x1="37.38" x2="80" y1="62" y2="62" gradientUnits="userSpaceOnUse"><stop offset="0" stop-color="#5570ff"/><stop offset="1" stop-color="#4dd3ff"/></linearGradient></defs><path stroke="url(#a)" stroke-width="12" d="M47.97 11a2 2 0 0 0-1.414.586l-34.97 34.96A2 2 0 0 0 11 47.96v63.74c0 2.936 2.364 5.3 5.3 5.3h63.73a2 2 0 0 0 1.414-.586l34.97-34.96A2 2 0 0 0 117 80.04V16.3c0-2.936-2.364-5.3-5.3-5.3z" transform="translate(-2.712 -2.712)scale(.5424)"/><path fill="url(#c)" d="M60.18 31A28.12 28.12 0 0 0 32 59.18v5.636a28.12 28.12 0 0 0 28.18 28.18h27.68a2 2 0 0 0 2-2v-12.53a2 2 0 0 0-2-2H60.18c-6.538 0-11.65-5.111-11.65-11.65V59.18c0-6.538 5.111-11.65 11.65-11.65h27.68a2 2 0 0 0 2-2V33a2 2 0 0 0-2-2z" transform="translate(-2.712 -2.712)scale(.5424)"/></svg>