<svg xmlns="http://www.w3.org/2000/svg" style="isolation:isolate" viewBox="0 0 64 64"><linearGradient id="a" x1=".065" x2=".978" y1=".236" y2=".769" gradientTransform="matrix(40.2 0 0 42.04 2.8 2.982)" gradientUnits="userSpaceOnUse" transform="translate(-2.865 -4.54)scale(1.522)"><stop offset=".026" stop-color="#b3ffab"/><stop offset=".987" stop-color="#12fff7"/></linearGradient><path fill="url(#a)" fill-rule="evenodd" d="M41.08 28.63a18 18 0 0 1-.64 1.912l2.546 2.04a21 21 0 0 1-2.155 3.736l-3.041-1.185a18 18 0 0 1-2.849 2.834l1.193 3.06a21 21 0 0 1-3.731 2.159l-2.057-2.567c-1.249.49-2.55.838-3.877 1.037l-.499 3.259a21 21 0 0 1-4.307-.007l-.5-3.252a18 18 0 0 1-1.973-.388 18 18 0 0 1-1.912-.64l-2.04 2.546a21 21 0 0 1-3.736-2.155l1.185-3.042a18 18 0 0 1-2.834-2.848l-3.06 1.193a21 21 0 0 1-2.159-3.731l2.567-2.057a17.8 17.8 0 0 1-1.036-3.877l-3.259-.499a21 21 0 0 1 .006-4.307l3.252-.5a18 18 0 0 1 .388-1.973q.267-.974.64-1.912l-2.546-2.04a21 21 0 0 1 2.155-3.736l3.042 1.185a18 18 0 0 1 2.849-2.834l-1.194-3.06a21 21 0 0 1 3.732-2.159l2.056 2.567c1.249-.49 2.55-.838 3.877-1.037l.499-3.259a21 21 0 0 1 4.307.007l.5 3.252a18 18 0 0 1 1.973.388q.974.267 1.912.64l2.04-2.546a21 21 0 0 1 3.736 2.155l-1.185 3.042a18 18 0 0 1 2.834 2.848l3.06-1.193a21 21 0 0 1 2.159 3.731l-2.566 2.057c.346.884.622 1.794.622 1.794.111.511-.246.927-.798.927h-1.24c-.552 0-1.111-.435-1.247-.97-.067-.266-.558-1.458-1.206-2.58a14.718 14.718 0 0 0-26.965 3.55 14.717 14.717 0 0 0 21.578 16.558c3.381-1.952 5.848-5.167 6.599-7.972.143-.533.707-.966 1.259-.966h1.239c.552 0 .945.245.877.546l-.069.271zM15 27.706l5.267 5.267 2.633-7.9zm3.154-13.1c-.547.338-1.268.169-1.609-.376s-.174-1.265.373-1.606a13.41 13.41 0 0 1 13.57-.35 1.168 1.168 0 0 1-1.131 2.041A11 11 0 0 0 24 12.933c-2.069 0-4.092.577-5.846 1.673m-3.894 14.68a1.164 1.164 0 1 1-2.046 1.113 13.35 13.35 0 0 1-1.62-6.388c0-1.702.32-3.387.95-4.96a1.167 1.167 0 1 1 2.168.862 10.9 10.9 0 0 0-.787 4.098c0 1.842.461 3.655 1.335 5.275m14.88 4.535a1.17 1.17 0 0 1 1.574.495c.299.57.08 1.275-.49 1.574a13.4 13.4 0 0 1-6.219 1.527c-2.087 0-4.15-.483-6.015-1.422a1.168 1.168 0 1 1 1.049-2.087 11 11 0 0 0 4.966 1.178c1.789 0 3.55-.431 5.135-1.265m5.246-13.68a1.165 1.165 0 1 1 2.186-.811 13.5 13.5 0 0 1 .839 4.681c0 2.11-.495 4.197-1.457 6.08a1.166 1.166 0 0 1-2.075-1.061 11.05 11.05 0 0 0 1.201-5.019c0-1.323-.233-2.629-.694-3.87m-20.12 12.68a1.166 1.166 0 1 1 2.331.001 1.166 1.166 0 0 1-2.331-.001m17.65-16.77a1.166 1.166 0 1 1 2.332 0 1.166 1.166 0 0 1-2.332 0m-18.67 0a1.167 1.167 0 1 0 2.333-.001 1.167 1.167 0 0 0-2.333.001m18.4 16.77a1.166 1.166 0 1 0 2.331 0 1.166 1.166 0 0 0-2.331 0" transform="translate(-2.865 -4.54)scale(1.522)"/></svg>