<svg version="1.1" viewBox="0 0 64 64" xmlns="http://www.w3.org/2000/svg">
 <defs>
  <linearGradient id="a" x1="52" x2="52" y1="996.4" y2="1016" gradientTransform="translate(0 -988.4)" gradientUnits="userSpaceOnUse">
   <stop stop-color="#d80d9d" offset="0"/>
   <stop stop-color="#a84873" offset="1"/>
  </linearGradient>
  <linearGradient id="b" x1="7.023" x2="56.98" y1="33.59" y2="33.59" gradientUnits="userSpaceOnUse">
   <stop stop-color="#cdfb1b" offset="0"/>
   <stop stop-color="#ff0037" offset="1"/>
  </linearGradient>
 </defs>
 <g transform="translate(.00129 .001941) scale(1) translate(-.00036 1e-5) scale(.9999) translate(-3.626 -5.4) scale(1.113)">
  <circle cx="18" cy="28" r="6" fill="#f5f4f4"/>
  <circle cx="46" cy="28" r="6" fill="#f5f4f4"/>
  <path d="M15.27 27.27a2 2 0 0 0 2 3.464c.618-.357.366-1.366 1.233-1.867.865-.499 1.613.223 2.231-.133a2 2 0 0 0-2-3.464c-.618.357-.366 1.366-1.233 1.866-.865.5-1.613-.222-2.231.134m30-2a2 2 0 0 0-2 3.464c.619.356 1.366-.366 2.233.134.865.5.614 1.508 1.231 1.866a2 2 0 0 0 2-3.464c-.619-.356-1.366.366-2.233-.134-.865-.5-.614-1.508-1.231-1.866" fill="#343031"/>
  <path d="M32 6a24 24 0 0 0-.63.031c-.287 2.31.481 4.778 1.82 5.457 1.71.869 5.449-.89 6.63-3.535.083-.186.13-.369.18-.553A24 24 0 0 0 32 6m-1.395.07a24 24 0 0 0-9.261 2.457c.357.577.883 1.088 1.586 1.516 2.137 1.304 5.85 1.509 7.187-.982.443-.826.572-1.89.488-2.99zm10.24 2.645c-.77 0-2.784 1.655-2.784 2.388s1.618 2.598 2.387 2.598.498-2.504.498-3.236.669-1.75-.101-1.75m-16.74 2.255c-1.02-.1-2.431 1.104-2.771 1.773-.389.764-.417 2.757.59 3.34s1.883-.733 2.273-1.498c.389-.764 1.323-2.906.317-3.488a1 1 0 0 0-.409-.13zm6.19.261c-1.116.016-2.386.406-3.432.926-2.09 1.04-2.496 3.69-1.636 5.654.858 1.966 2.057 2.714 4.148 1.674s4.285-4.96 3.426-6.926c-.43-.982-1.39-1.34-2.506-1.324zm5.943.887c-.451.041-.925.193-1.416.47-1.962 1.117-2.65 4.375-1.656 6.366s3.692 3.02 5.656 1.904 1.654-4.483.66-6.474c-.746-1.493-1.89-2.386-3.244-2.268zm5.6 2.996c-1.143.074-1.23 1.685-1.182 2.553.05.869.319 3.213 1.461 3.139s1.93-2.323 1.881-3.192c-.05-.868-1.018-2.575-2.16-2.502zm-11.06 4.55c-1.518-.025-3.178 1.106-3.927 2.315-1 1.614-1.49 2.964.251 4.19 1.742 1.228 4.46 1.021 5.46-.592.998-1.613 1.391-4.235-.35-5.463a2.5 2.5 0 0 0-1.432-.45zm-5.183.401c-.623 0-1.528.502-1.528 1.381 0 .88.407 1.272 1.03 1.272.622 0 1.23-.392 1.23-1.272s-.11-1.38-.732-1.38zm9.931 1.91c-.96 0-1.84 1.952-1.84 3.182s1.276 1.274 2.237 1.274 2.238-.999 2.238-2.229-1.673-2.226-2.635-2.226z" fill="url(#a)"/>
  <path d="M32 6A24 24 0 0 0 8 30a24 24 0 0 0 2.361 10.33l-.988.988a7.98 7.98 0 0 0 0 11.31 7.98 7.98 0 0 0 8.516 1.816 7.98 7.98 0 0 0 5.83 6.467A7.98 7.98 0 0 0 32 58.226a7.98 7.98 0 0 0 8.281 2.685 7.98 7.98 0 0 0 5.83-6.467 7.98 7.98 0 0 0 8.516-1.816 7.98 7.98 0 0 0 0-11.31l-.992-.992A24 24 0 0 0 56 30.006a24 24 0 0 0-24-24z" fill="none" stroke="url(#b)" stroke-width="2.3"/>
 </g>
</svg>
