<svg xmlns="http://www.w3.org/2000/svg" style="isolation:isolate" viewBox="0 0 64 64"><linearGradient id="a" x1=".994" x2="0" y1=".48" y2=".452" gradientTransform="matrix(47.06 0 0 46.98 .495 .559)" gradientUnits="userSpaceOnUse" transform="translate(-.673 -.71)scale(1.36)"><stop offset="0" stop-color="#11998e"/><stop offset=".991" stop-color="#38ef7d"/></linearGradient><path fill="url(#a)" fill-rule="evenodd" d="M25.63 43.27a2.145 2.145 0 0 0-1.953 2.312 2.137 2.137 0 0 0 2.312 1.952 23.53 23.53 0 0 0 15.43-7.594 23.57 23.57 0 0 0 6.133-16.07 23.59 23.59 0 0 0-7.038-16.58C36.057 2.923 30.044.497 23.814.553s-12.2 2.592-16.58 7.038a23.57 23.57 0 0 0-6.737 16.7 2.14 2.14 0 0 0 4.278-.039 19.27 19.27 0 0 1 5.513-13.66 19.3 19.3 0 0 1 13.56-5.759 19.27 19.27 0 0 1 13.66 5.513 19.271 19.271 0 0 1 .744 26.71 19.27 19.27 0 0 1-12.63 6.211zM7.06 33.19a2.14 2.14 0 0 0-3.768 2.023 23.6 23.6 0 0 0 10.67 10.14c1.067.51 2.345.057 2.852-1.01s.052-2.347-1.015-2.857a19.3 19.3 0 0 1-8.738-8.295zm15.88-12.62h-3.358q-.307-1.332-.884-1.87-.576-.538-1.627-.538-1.589 0-2.204 1.127-.666 1.307-.666 3.203 0 1.922.756 3.037t2.088 1.115q1.051 0 1.628-.551.576-.551.909-1.832h3.358q-.257 2.562-2.051 3.972-1.563 1.255-3.869 1.255-3.229 0-4.895-2.075-1.461-1.794-1.461-4.844 0-3.69 1.922-5.586 1.666-1.666 4.511-1.666 2.716 0 4.305 1.563 1.358 1.384 1.538 3.69m7.995 4.921 2.793-9.892h3.614l-5.587 16.04q-.589 1.717-1.563 2.371t-2.896.653q-1.768 0-2.46-.461l.538-2.384q.923.231 1.538.231.897 0 1.537-.602.641-.602.641-1.422v-.282l-5.049-14.15h3.87l3.024 9.892z" transform="translate(-.673 -.71)scale(1.36)"/></svg>