<svg xmlns="http://www.w3.org/2000/svg" viewBox="0 0 64 64"><defs><linearGradient id="a" x1="1" x2="0" y1=".5" y2=".5"><stop offset="0" stop-color="#fe3661"/><stop offset=".33" stop-color="#c723c7"/><stop offset=".67" stop-color="#aa35d6"/><stop offset="1" stop-color="#1ea3fd"/></linearGradient></defs><path fill="url(#a)" d="m33.09.016-.002.002.006.002c-5.172-.176-10.3.9-14.96 3.135a2.78 2.78 0 0 0-1.295 3.71 2.797 2.797 0 0 0 3.715 1.31 26.3 26.3 0 0 1 12.35-2.598 26.4 26.4 0 0 1 11.75 3.21 2.79 2.79 0 0 0 3.783-1.108 2.79 2.79 0 0 0-1.111-3.781A31.94 31.94 0 0 0 33.086.017zM11.8 7.486a2.78 2.78 0 0 0-2.871 2.687 2.78 2.78 0 0 0 2.682 2.877 2.786 2.786 0 0 0 2.877-2.688A2.785 2.785 0 0 0 11.8 7.487m41.46 1.415a2.783 2.783 0 0 0-2.877 2.684 2.787 2.787 0 0 0 2.688 2.877A2.783 2.783 0 0 0 53.26 8.9M32 13.993c-9.932 0-18 8.063-18 18s8.064 18 18 18 18-8.064 18-18-8.064-18-18-18M6.45 15.087a2.76 2.76 0 0 0-2.449 1.432A31.9 31.9 0 0 0 .03 30.899c-.13 3.81.423 7.613 1.621 11.23a2.787 2.787 0 0 0 3.525 1.762 2.775 2.775 0 0 0 1.752-3.516 26.6 26.6 0 0 1-1.34-9.287 26.4 26.4 0 0 1 3.273-11.87 2.78 2.78 0 0 0-1.09-3.78 2.8 2.8 0 0 0-1.324-.349l.002-.002zm51.79 1.08.002.004a2.782 2.782 0 0 0-2.578 4.029 26.5 26.5 0 0 1 2.75 12.69 26.1 26.1 0 0 1-2.207 9.71 2.785 2.785 0 0 0 5.1 2.232 31.9 31.9 0 0 0 2.668-11.75 31.9 31.9 0 0 0-3.344-15.37 2.78 2.78 0 0 0-2.391-1.54zm-26.23 1.826c3.706 0 7.278 1.48 9.891 4.107 2.626 2.613 4.106 6.185 4.106 9.89s-1.48 7.275-4.106 9.888c-2.613 2.626-6.185 4.107-9.891 4.107s-7.276-1.481-9.889-4.107a13.965 13.965 0 0 1 0-19.778 13.97 13.97 0 0 1 9.889-4.107m-4.719 5.88a1.61 1.61 0 0 0-1.541 1.61v13.02l.016.242a1.61 1.61 0 0 0 2.4 1.152l11.27-6.512.232-.158a1.61 1.61 0 0 0-.232-2.631l-11.27-6.506-.22-.11a1.6 1.6 0 0 0-.653-.111zm-.613.12v.002h.004zm0 16v.004l.004-.002zM9.818 47.47a2.783 2.783 0 1 0-.187 5.561 2.78 2.78 0 0 0 2.87-2.684 2.783 2.783 0 0 0-2.683-2.877m44.54 1.52a2.785 2.785 0 0 0-2.877 2.684 2.787 2.787 0 0 0 2.688 2.877 2.783 2.783 0 0 0 .189-5.561m-37.2 5.299a2.783 2.783 0 0 0-1.553 5.166 32.1 32.1 0 0 0 15.34 4.518 31.97 31.97 0 0 0 17.05-4.246 2.783 2.783 0 0 0 1.022-3.801 2.8 2.8 0 0 0-3.807-1.027 26.3 26.3 0 0 1-14.08 3.516 26.3 26.3 0 0 1-12.66-3.732 2.8 2.8 0 0 0-1.31-.39l-.002-.003z" transform="translate(-.007)"/></svg>