<svg version="1.1" viewBox="0 0 64 64" xmlns="http://www.w3.org/2000/svg">
 <defs>
  <linearGradient id="a" y1="1">
   <stop stop-color="#7f00ff" offset="0"/>
   <stop stop-color="#e100ff" offset="1"/>
  </linearGradient>
  <linearGradient id="c" x2="0" y1="1">
   <stop stop-color="#00cca0" offset="0"/>
  </linearGradient>
 </defs>
 <path transform="translate(1.1e-5 -.000317) scale(1) translate(-.01)" d="M4.58 4.572A4.56 4.56 0 0 0 .01 9.14v50.28a4.56 4.56 0 0 0 4.57 4.57h54.85A4.56 4.56 0 0 0 64 59.42V9.14a4.56 4.56 0 0 0-4.57-4.568h-4.57v6.856c0 3.798-3.056 6.857-6.856 6.857s-6.857-3.06-6.857-6.857V4.572h-18.28v6.856c0 3.798-3.058 6.857-6.856 6.857s-6.857-3.06-6.857-6.857V4.572zm6.857 18.28h41.14a4.56 4.56 0 0 1 4.568 4.57v25.14a4.56 4.56 0 0 1-4.568 4.57h-41.14a4.56 4.56 0 0 1-4.57-4.57v-25.14a4.56 4.56 0 0 1 4.57-4.57" fill="url(#a)"/>
 <path transform="translate(1.1e-5 -.000317) scale(1) translate(-.01)" d="M47.86.002a3.407 3.407 0 0 0-3.238 3.41v6.893c0 1.891 1.519 3.41 3.41 3.41s3.42-1.519 3.42-3.41V3.412a3.41 3.41 0 0 0-3.42-3.41c-.06 0-.112-.003-.17 0z" fill="url(#c)"/>
 <path transform="translate(1.1e-5 -.000317) scale(1) translate(-.01)" d="M15.86.002a3.41 3.41 0 0 0-3.24 3.41v6.893c0 1.891 1.521 3.41 3.412 3.41s3.418-1.519 3.418-3.41V3.412a3.407 3.407 0 0 0-3.418-3.41c-.06 0-.112-.003-.17 0z" fill="url(#c)"/>
 <path transform="translate(1.1e-5 -.000317) scale(1) translate(-.01)" d="m21.67 28.83-.004.002v.004c-3.13 0-5.202.843-6.82 1.66v5.48q2.447-1.996 5.197-1.998 2.699.001 2.697 2.248c0 1.564-1.179 2.624-3.545 4.492-5.298 4.108-5.48 5.74-5.48 10.97h15.86v-5.375H20.78c.055-1.604 5.593-3.58 7.531-6.707.701-1.13 1.055-2.501 1.055-4.123 0-4.164-2.705-6.652-7.697-6.652zm20.25.006c-4.676 0-7.795 2.612-7.795 5.686 0 1.308.459 3.623 3.383 5.098-3.57 1.566-4.08 3.978-4.08 5.695 0 3.669 3.337 6.37 8.43 6.37 4.909 0 8.432-2.613 8.432-6.425 0-3.43-2.368-4.873-4.07-5.613 2.87-1.371 3.562-3.62 3.562-5.106 0-3.541-3.599-5.705-7.857-5.705zm.045 4.133c1.142 0 2.027.985 2.027 2.312 0 1.116-.789 2.305-2.027 2.305-1.182 0-2-1.123-2-2.305 0-1.298.82-2.312 2-2.312m-.09 9.232c1.422 0 2.482 1.06 2.482 2.57 0 1.352-.862 2.545-2.482 2.545-1.377 0-2.473-.843-2.473-2.545 0-1.581 1.133-2.57 2.473-2.57" fill="url(#c)"/>
</svg>
