<svg xmlns="http://www.w3.org/2000/svg" viewBox="0 0 64 64"><defs><linearGradient id="a" x1="1" x2="0" y1="1"><stop offset="0" stop-color="#007bf6"/><stop offset=".5" stop-color="#d60cff"/><stop offset="1" stop-color="#ff167a"/></linearGradient></defs><path fill="url(#a)" d="M13.71 2.285A13.71 13.71 0 0 0 0 15.995v18.28a13.71 13.71 0 0 0 13.71 13.71h14.86v6.856H17.14a3.429 3.429 0 0 0 0 6.857h29.71a3.429 3.429 0 0 0 0-6.857H35.42v-6.856h14.86a13.71 13.71 0 0 0 13.71-13.71v-18.28a13.71 13.71 0 0 0-13.71-13.71zm0 6.857h36.57a6.856 6.856 0 0 1 6.856 6.856v18.28a6.856 6.856 0 0 1-6.856 6.856H13.71a6.856 6.856 0 0 1-6.856-6.856v-18.28a6.856 6.856 0 0 1 6.856-6.856" transform="translate(16.21 11.949)scale(.7467)"/><path fill="url(#a)" d="M-8-8A13.71 13.71 0 0 0-21.71 5.71v18.28A13.71 13.71 0 0 0-8 37.7H.436A13.7 13.7 0 0 1 0 34.272v-3.43h-8a6.856 6.856 0 0 1-6.856-6.856V5.706A6.856 6.856 0 0 1-8-1.15h36.57a6.86 6.86 0 0 1 5.938 3.428h7.34a13.71 13.71 0 0 0-13.28-10.28zm3.43 52.57a3.429 3.429 0 0 0 0 6.857h29.71a3.43 3.43 0 0 0 3.428-3.377l-.002-.05h-14.85a13.7 13.7 0 0 1-9.07-3.43z" transform="translate(16.21 11.949)scale(.7467)"/></svg>