<svg xmlns="http://www.w3.org/2000/svg" viewBox="0 0 64 64"><defs><linearGradient id="a" x2="0" y1="1"><stop offset="0" stop-color="#fd5900"/><stop offset="1" stop-color="#ffde00"/></linearGradient></defs><path fill="url(#a)" d="M32.03 0C20.9 0 10.53 5.786 4.72 15.28A31.9 31.9 0 0 0 .001 31.96c0 11.13 5.786 21.5 15.28 27.31a31.86 31.86 0 0 0 16.68 4.719c11.13 0 21.5-5.784 27.31-15.28a31.86 31.86 0 0 0 4.719-16.68 32.15 32.15 0 0 0-7.451-20.58c-.95-1.125-2.638-1.275-3.768-.334s-1.275 2.627-.326 3.76a26.8 26.8 0 0 1 6.213 17.16c0 4.892-1.361 9.706-3.934 13.89a26.74 26.74 0 0 1-22.77 12.73 26.5 26.5 0 0 1-13.89-3.934 26.74 26.74 0 0 1-12.73-22.77c0-4.892 1.36-9.704 3.934-13.89a26.74 26.74 0 0 1 22.77-12.73c2.799 0 5.584.439 8.25 1.318 1.398.456 2.905-.307 3.36-1.705s-.308-2.905-1.706-3.361a31.7 31.7 0 0 0-9.904-1.586z" transform="translate(0 .003)"/><path fill="url(#a)" d="M37.08 9.857c-4.866 3.33-8.867 9.879-10.34 14.35 0 0-2.926 6.277.836 10.32 0 0 3.499 3.31 8.44-1.461 0 0 3.134-2.278 5.034-9.969 0 0 .711.406.754.557.043.15-.4 6.309-3.225 10.6 0 0-3.035 5.006-8.54 4.428-5.502-.576-8.615-4.92-10.24-8.772-1.21-2.88-2.05-9.734-.986-17.18-4.258 2.675-7.45 6.652-9.304 11.75-1.25 3.442-1.563 6.968-1.212 10.38 4.66 3.32 15.82 10.03 25.61 7.359 6.648-1.811 8.144-7.898 8.144-7.898 1.567-4.587.337-10.16.337-10.16 7.633 13.83-2.918 22.26-2.918 22.26-5.53 5.177-13.73 6.626-20.02 6.143a23.3 23.3 0 0 0 4.047 1.957l-.007-.012c12.15 4.43 25.58-1.84 30-14 2.049-5.64 1.722-11.81-.346-16.98a35 35 0 0 1-3.557-1.193s-5.642-1.756-9.328-1.303c0 0-2.705.502-5.674 1.449 0 0-.583.073-.895 1.006-.314.93-1.699 3.207-3.865 4.049 0 0-1.395.187-1.13 1.283 0 0 .363 1.463 1.927.635 0 0 3.975-1.977 5.924-6.787 0 0 1.2-.464 2.723-.174 0 0-2.397 7.12-7.279 9.498 0 0-4.743 2.82-3.8-3.158 0 0 .613-5.8 9.718-9.633 0 0 5.745-2.746 9.303-4.045a23.2 23.2 0 0 0-7.703-4.68c-.8-.292-1.618-.417-2.428-.617z" transform="translate(0 .003)"/></svg>