<svg xmlns="http://www.w3.org/2000/svg" style="isolation:isolate" viewBox="0 0 64 64"><linearGradient id="a" x2="1" y1=".5" y2=".5" gradientTransform="matrix(46.81 0 0 47 .564 .5)" gradientUnits="userSpaceOnUse" transform="translate(-.638 -.68)scale(1.362)"><stop offset="0" stop-color="#b2fefa"/><stop offset=".983" stop-color="#0ed2f7"/></linearGradient><path fill="url(#a)" fill-rule="evenodd" d="M32.92 6.952a2.14 2.14 0 0 1-.898-2.888 2.14 2.14 0 0 1 2.888-.898 23.62 23.62 0 0 1 10.24 10.58 2.14 2.14 0 0 1-.984 2.861 2.147 2.147 0 0 1-2.866-.989 19.3 19.3 0 0 0-8.375-8.663zM23.82 4.5a2 2 0 0 0 1.99-2.01A2 2 0 0 0 23.8.5C18.04.53 12.49 2.68 8.21 6.53c-4.28 3.86-7 9.15-7.63 14.88a2.002 2.002 0 1 0 3.98.44c.52-4.75 2.78-9.15 6.33-12.34 3.55-3.2 8.15-4.98 12.93-5.01M5.74 31A2.003 2.003 0 1 0 2 32.44a23.62 23.62 0 0 0 9.97 11.78 2 2 0 0 0 2.04-3.44A19.52 19.52 0 0 1 5.74 31m17.57 12.49a2 2 0 0 0-.06 4l.66.01h.03c5.91 0 11.61-2.23 15.95-6.24s7.02-9.52 7.48-15.41a2.01 2.01 0 0 0-1.84-2.15 2 2 0 0 0-2.15 1.84c-.38 4.88-2.6 9.45-6.2 12.78s-8.32 5.18-13.22 5.18zm-4.804-4.463a16 16 0 0 1-2.772-1.341c4.307.331 9.927-.662 13.72-4.209 0 0 7.226-5.773 1.999-15.25 0 0 .842 3.818-.232 6.959 0 0-1.025 4.171-5.578 5.412-6.708 1.828-14.35-2.767-17.54-5.041-.24-2.338-.026-4.754.83-7.111 1.27-3.492 3.458-6.217 6.375-8.047-.729 5.102-.153 9.799.676 11.77 1.112 2.638 3.245 5.615 7.016 6.01 3.772.396 5.851-3.033 5.851-3.033 1.935-2.94 2.238-7.162 2.208-7.263-.029-.103-.515-.382-.515-.382-1.302 5.269-3.449 6.829-3.449 6.829-3.386 3.269-5.783 1.002-5.783 1.002-2.578-2.768-.573-7.068-.573-7.068 1.009-3.064 3.751-7.549 7.084-9.83.555.138 1.113.223 1.662.423a15.9 15.9 0 0 1 5.278 3.206c-2.437.889-6.373 2.77-6.373 2.77-6.237 2.627-6.658 6.6-6.658 6.6-.646 4.096 2.604 2.163 2.604 2.163 3.344-1.629 4.987-6.506 4.987-6.506-1.043-.199-1.865.118-1.865.118-1.336 3.295-4.059 4.651-4.059 4.651-1.072.567-1.321-.436-1.321-.436-.181-.751.775-.879.775-.879 1.484-.577 2.433-2.136 2.648-2.773.214-.639.613-.689.613-.689 2.033-.649 3.888-.994 3.888-.994 2.525-.31 6.39.894 6.39.894.867.348 1.698.609 2.436.818 1.417 3.539 1.641 7.77.237 11.63-3.027 8.329-12.23 12.63-20.55 9.593z" transform="translate(-.638 -.68)scale(1.362)"/></svg>