<svg xmlns="http://www.w3.org/2000/svg" viewBox="0 0 64 64"><defs><linearGradient id="b" x1="6.904" x2="56.1" y1="53.54" y2="4.339" gradientTransform="matrix(-.501 0 0 -.7159 71.78 51.09)" gradientUnits="userSpaceOnUse"><stop offset="0" stop-color="#5433ff"/><stop offset=".5" stop-color="#e948ff"/><stop offset="1" stop-color="#ff005b"/></linearGradient><linearGradient id="a" y1="1"><stop offset="0" stop-color="#a5a5a5"/><stop offset=".997" stop-color="#dcdcdc"/></linearGradient></defs><path fill="url(#a)" d="M12.78.998 11.663 1c-.698 1.801-1.946 5.158-2.492 5.297C8.163 6.17 7.285 4.379 5.759 4.35c-2.245-.043-2.468 2.948-2.49 3.498-.057 1.411.253 4.012 2.348 4.053 2.05-.228 2.921-2.413 3.607-2.242.779.244 1.436 2.66 2.188 5.342h1.072c-.086-.334-1.865-6.594-3.252-6.369-1.686.235-2.418 2.241-3.596 2.219-1.353-.026-1.341-2.388-1.318-2.961.019-.474.173-2.512 1.42-2.488.983.018 2.349 2.374 3.742 1.98 1.027-.29 2.192-3.228 3.301-6.383z" transform="translate(-11.935 -4.561)scale(4.57054)"/><path fill="url(#b)" d="M46.17 47.98a2.5 2.5 0 0 0 .977-.268 12 12 0 0 0 .939-.516l3.242-1.888.012-.007 1.63-.948c.925-.539 1.53-.89 2.072-1.331q.724-.59 1.31-1.313c.437-.545.786-1.15 1.32-2.077l9.966-17.26a5.085 5.085 0 0 0-.544-5.852 11.1 11.1 0 0 0-6.36-3.674 5 5 0 0 0-.69-.081v.001a5.09 5.09 0 0 0-4.647 2.533l-9.965 17.26c-.536.927-.883 1.537-1.135 2.187a9 9 0 0 0-.482 1.786c-.112.692-.115 1.391-.12 2.462l-.022 5.862v.131a10 10 0 0 0 .027.729 2.5 2.5 0 0 0 .427 1.275 2.4 2.4 0 0 0 1.707.984 2.5 2.5 0 0 0 .34.003zm.455-3.361.01-2.281h.002a3.3 3.3 0 0 1 1.96 1.132zm4.549-2.645a6.3 6.3 0 0 0-1.979-1.799 6.3 6.3 0 0 0-2.546-.813v-.238c.006-1.226.012-1.683.08-2.118a6 6 0 0 1 .325-1.193c.157-.41.38-.812.993-1.873l7.246-12.55a9.74 9.74 0 0 1 7.115 4.115l-7.24 12.54c-.612 1.06-.846 1.454-1.122 1.795a6 6 0 0 1-.874.882c-.341.276-.737.51-1.795 1.125zm.576-4.65a1.48 1.48 0 0 0 1.2-.678l6.06-10.49a1.48 1.48 0 0 0-1.212-2.215h-.002a1.48 1.48 0 0 0-1.347.735l-6.055 10.49a1.48 1.48 0 0 0 1.358 2.157zM64 22.744a12.7 12.7 0 0 0-7.128-4.109l1.075-1.861a2.13 2.13 0 0 1 1.942-1.059v.001a2 2 0 0 1 .288.034 8.13 8.13 0 0 1 4.665 2.691 2.13 2.13 0 0 1 .227 2.446z" transform="translate(-7.286)scale(.9999)"/></svg>