<svg xmlns="http://www.w3.org/2000/svg" fill="none" viewBox="0 0 64 64"><defs><linearGradient id="a" x1="32" x2="32" y1="58.05" y2="6" gradientUnits="userSpaceOnUse"><stop offset="0" stop-color="#c0f"/><stop offset="1" stop-color="#4b9eff"/></linearGradient></defs><path stroke="url(#a)" stroke-linecap="round" stroke-linejoin="round" stroke-width="5" d="M6.064 33.84c-.818-11.69 25.2-20.9 32.52-7.772m-4.748 31.92c-8.654.607-14.93-13.66-10.31-28.19m29.85 17.1a26.03 26.03 0 0 1-32.41 8.681 25.98 25.98 0 0 1-12.58-12.68A26.016 26.016 0 0 1 34.61 6.129a26 26 0 0 1 16.08 7.768 26.02 26.02 0 0 1 7.287 16.31c.607 8.654-14.56 6.977-19.99 4.297 4.025-4.626 1.162-11.68-6.575-11.14-5.046.353-8.463 3.346-8.05 9.258.81 11.54 12.85 17.94 29.96 13.85l.052.422z" transform="translate(-3.888 -3.92)scale(1.12189)"/></svg>