<svg xmlns="http://www.w3.org/2000/svg" viewBox="0 0 64 64"><defs><linearGradient id="a" y2="1"><stop offset="0" stop-color="#fea51d"/><stop offset="1" stop-color="#ff0a76"/></linearGradient></defs><path fill="url(#a)" d="M17.65.002A14.58 14.58 0 0 0 3.332 11.488L.096 26.048 0 29.462a11.52 11.52 0 0 0 2.668 7.32v12.56c.005 3.888 1.551 7.617 4.301 10.37s6.48 4.298 10.37 4.303h29.34c3.888-.004 7.617-1.553 10.37-4.303s4.296-6.479 4.301-10.37v-12.56a11.52 11.52 0 0 0 2.668-7.32v-2.547l-3.332-15.43A14.57 14.57 0 0 0 46.368-.001zm.002 8.002h1.02v4a4 4 0 0 0 8.002 0v-4h10.67v4a4 4 0 0 0 8.002 0v-4h1.018a6.67 6.67 0 0 1 6.512 5.221l3.139 14.13v2.106a3.643 3.643 0 0 1-3.637 3.541 3.64 3.64 0 0 1-3.637-3.541 6.54 6.54 0 0 0-1.87-4.715 6.55 6.55 0 0 0-4.677-1.965 6.54 6.54 0 0 0-4.676 1.965 6.55 6.55 0 0 0-1.87 4.715 3.635 3.635 0 1 1-7.273 0 6.54 6.54 0 0 0-4.01-6.168 6.55 6.55 0 0 0-5.072 0 6.55 6.55 0 0 0-3.55 3.623 6.6 6.6 0 0 0-.46 2.545 3.643 3.643 0 0 1-3.637 3.541c-.948 0-1.86-.37-2.539-1.031a3.64 3.64 0 0 1-1.098-2.51v-2.1l3.14-14.14a6.66 6.66 0 0 1 6.51-5.217zm4.166 27.09A11.62 11.62 0 0 0 32 41.101a11.64 11.64 0 0 0 10.184-6.007 11.65 11.65 0 0 0 10.184 6.008c.333 0 .645-.068.97-.098v8.342a6.67 6.67 0 0 1-1.952 4.715 6.66 6.66 0 0 1-4.713 1.951v.002h-29.34a6.67 6.67 0 0 1-6.666-6.668v-8.342c.325.03.637.098.97.098a11.65 11.65 0 0 0 10.184-6.008z" transform="translate(0 .002)scale(.9997)"/></svg>