<svg fill="none" version="1.1" viewBox="0 0 64 64" xmlns="http://www.w3.org/2000/svg">
 <defs>
  <linearGradient id="a" x1="26.16" x2="26.16" y1="58" y2="13.7" gradientUnits="userSpaceOnUse">
   <stop stop-color="#fd5900" offset="0"/>
   <stop stop-color="#ffde00" offset="1"/>
  </linearGradient>
  <linearGradient id="b" x1="37.61" x2="37.61" y1="39.85" y2="16.53" gradientUnits="userSpaceOnUse">
   <stop stop-color="#5570ff" offset="0"/>
   <stop stop-color="#4dd3ff" offset="1"/>
  </linearGradient>
  <linearGradient id="d" x1="37.61" x2="37.61" y1="50.28" y2="6" gradientUnits="userSpaceOnUse">
   <stop stop-color="#5570ff" offset="0"/>
   <stop stop-color="#4dd3ff" offset="1"/>
  </linearGradient>
 </defs>
 <path transform="translate(2e-5) scale(1) translate(-.00192 .006237) scale(.9998) translate(-4.09 -3.93) scale(1.123)" d="m18.33 13.7-6.237 2.309a6.26 6.26 0 0 0-3.511 3.271 6.42 6.42 0 0 0-.208 4.836l10.64 29.72c.28.78.708 1.498 1.26 2.11a6.2 6.2 0 0 0 1.959 1.459 6.15 6.15 0 0 0 4.761.21l17.33-6.952" stroke="url(#a)" stroke-linecap="round" stroke-linejoin="round" stroke-width="5"/>
 <path transform="translate(2e-5) scale(1) translate(-.00192 .006237) scale(.9998) translate(-4.09 -3.93) scale(1.123)" d="M26.05 18.85a2.32 2.32 0 0 1 2.321-2.322h15.56a2.321 2.321 0 0 1 0 4.643h-15.56a2.32 2.32 0 0 1-2.321-2.321m-.097 9.291a2.32 2.32 0 0 1 2.32-2.321h18.67a2.32 2.32 0 1 1 0 4.642h-18.67a2.32 2.32 0 0 1-2.32-2.321m2.419 7.068a2.32 2.32 0 1 0 0 4.642h9.337a2.32 2.32 0 1 0 0-4.642z" clip-rule="evenodd" fill="url(#b)" fill-rule="evenodd"/>
 <path transform="translate(2e-5) scale(1) translate(-.00192 .006237) scale(.9998) translate(-4.09 -3.93) scale(1.123)" d="M56.29 43.95V12.32a6.38 6.38 0 0 0-1.823-4.473 6.18 6.18 0 0 0-4.401-1.853h-24.9a6.17 6.17 0 0 0-4.401 1.853 6.38 6.38 0 0 0-1.823 4.473v31.63c0 1.678.656 3.287 1.823 4.473a6.17 6.17 0 0 0 4.401 1.853h24.9a6.17 6.17 0 0 0 4.401-1.853 6.38 6.38 0 0 0 1.823-4.473" clip-rule="evenodd" stroke="url(#d)" stroke-linecap="round" stroke-linejoin="round" stroke-width="5"/>
</svg>
