<svg version="1.1" viewBox="0 0 64 64" xmlns="http://www.w3.org/2000/svg">
 <defs>
  <linearGradient id="a" x1="1" x2="0" y2="1">
   <stop stop-color="#fd5" offset="0"/>
   <stop stop-color="#ff6cff" offset=".5"/>
   <stop stop-color="#2ad4ff" offset="1"/>
  </linearGradient>
 </defs>
 <path transform="translate(0) scale(1) translate(-1e-5) scale(1) translate(-2e-5) scale(.9999) translate(.01454 -.000977) scale(2.909) translate(.004953 .002289) scale(1)" d="m5.478-0.001953c-2.574 0.09065-4.643 2.227-4.641 4.803v12.41c-0.004273 3.641 4.054 5.98 7.207 4.158l10.74-6.195c3.15-1.82 3.15-6.503 0-8.322l-10.74-6.205c-0.778-0.4481-1.665-0.6658-2.562-0.6348h-0.00391a1.221 1.221 0 0 0 0-0.009766zm0.08008 2.441c0.4425-0.01597 0.8859 0.09545 1.27 0.3164l10.74 6.205c1.625 0.9382 1.625 3.15 0 4.088l-10.74 6.205c-1.626 0.939-3.551-0.1651-3.549-2.043a1.221 1.221 0 0 0 0-0.0039v-12.41c-7.966e-4 -1.286 0.9968-2.314 2.281-2.359z" fill="url(#a)"/>
 <path transform="translate(0) scale(1) translate(-1e-5) scale(1) translate(-2e-5) scale(.9999) translate(.01454 -.000977) scale(2.909)" d="m7.541 7.068s-1.221 0-1.221 1.23v6.634h1.71v-5.896c0-0.1692 0.00308-0.2451 0.2441-0.2369 0.1087 0.0031 0.2625-0.0082 0.4891-0.0082 1.482 0 2.686 0.5219 2.686 2.212 0 1.369-0.4891 1.965-1.953 2.211v1.72c2.355-0.04615 3.754-2.043 3.662-3.93-0.09128-1.889-1.464-3.932-4.447-3.932z" fill="url(#a)" stroke-width="1.036"/>
</svg>
