<svg xmlns="http://www.w3.org/2000/svg" viewBox="0 0 64 64"><defs><linearGradient id="a" y1="1"><stop offset="0" stop-color="#c42482"/><stop offset=".047" stop-color="#cc2477"/><stop offset=".128" stop-color="#e0255a"/><stop offset=".231" stop-color="#ff272d"/><stop offset=".571" stop-color="#ff8e00"/><stop offset=".746" stop-color="#ffbf00"/><stop offset=".88" stop-color="#ffde00"/><stop offset=".955" stop-color="#ffea00"/></linearGradient></defs><path fill="url(#a)" d="M31.17 15.77a12.13 12.13 0 0 0-11.3 12.1V40a12.13 12.13 0 0 0 8.143 11.46 4.044 4.044 0 1 0 7.977 0A12.13 12.13 0 0 0 44.133 40V27.87a12.13 12.13 0 0 0-12.96-12.1zm.832 4.016a8.09 8.09 0 0 1 7.006 4.045h-2.963a2.022 2.022 0 0 0 0 4.043h4.045v4.045h-4.045a2.022 2.022 0 0 0 0 4.043h4.045v4.045h-4.045a2.022 2.022 0 0 0 0 4.043h2.963a8.08 8.08 0 0 1-7.006 4.043 8.09 8.09 0 0 1-7.006-4.043h2.961a2.022 2.022 0 0 0 0-4.043h-4.043v-4.045h4.043a2.022 2.022 0 0 0 0-4.043h-4.043v-4.045h4.043a2.022 2.022 0 0 0 0-4.043h-2.961a8.09 8.09 0 0 1 7.006-4.045" transform="translate(-18.658 -24.919)scale(1.583)"/></svg>