<svg version="1.1" viewBox="0 0 64 64" xmlns="http://www.w3.org/2000/svg">
 <path transform="translate(-0) scale(1) translate(-0) scale(1) translate(.002 5e-4) scale(1)" d="M24.67 3.326c-8.469 0-15.27 6.478-16.29 14.7-4.986 2.23-8.382 7.073-8.382 12.64 0 6.065 3.909 11.27 9.333 13.2v-5.875a8.63 8.63 0 0 1-4-7.323 8.65 8.65 0 0 1 6.12-8.286l1.86-.566.021-1.95a11.29 11.29 0 0 1 11.33-11.2c2.832 0 5.56 1.062 7.651 2.975l1.238 1.13 1.559-.626a11.3 11.3 0 0 1 4.219-.813c5.362 0 9.963 3.725 11.08 8.97l.34 1.582 1.557.428a8.65 8.65 0 0 1 6.355 8.355 8.63 8.63 0 0 1-4 7.323v5.875c5.425-1.933 9.334-7.132 9.334-13.2 0-5.776-3.646-10.78-8.93-12.87-2.148-6.893-8.404-11.8-15.74-11.8-1.608 0-3.16.45-4.698.906-2.888-2.19-6.318-3.571-9.968-3.571z" fill="#00f"/>
 <path transform="translate(-0) scale(1) translate(-0) scale(1) translate(.002 5e-4) scale(1)" d="M15.891 23.452c-1.107 0-2 .893-2 2.002v1.331c0 1.108.892 2 2 2h1.332a1.997 1.997 0 0 0 2.002-2v-1.331a2 2 0 0 0-2.002-2.002z" fill="#0f0"/>
 <path transform="translate(-0) scale(1) translate(-0) scale(1) translate(.002 5e-4) scale(1)" d="M9.336 31.33v25.34c0 2.193 1.809 4 4.002 4h37.34c2.193 0 4-1.807 4-4V31.33zm2.668 2.668h40v22.67A1.3 1.3 0 0 1 50.672 58h-37.34c-.762 0-1.334-.57-1.334-1.332z" fill="#00bfff"/>
 <path transform="translate(-0) scale(1) translate(-0) scale(1) translate(.002 5e-4) scale(1)" d="M17.003 37.993a1 1 0 0 0-1 1v.666a1 1 0 0 0 1 1h30a1 1 0 0 0 1-1v-.666a1 1 0 0 0-1-1zm0 5.332a1 1 0 0 0-1 1v.668a1 1 0 0 0 1 1h22a1 1 0 0 0 1-1v-.668a1 1 0 0 0-1-1zm0 5.334a1 1 0 0 0-1 1v.668a1 1 0 0 0 1 1h27.34a1 1 0 0 0 1-1v-.668a1 1 0 0 0-1-1z" fill="#00bfff"/>
 <path transform="translate(-0) scale(1) translate(-0) scale(1) translate(.002 5e-4) scale(1)" d="m10 29.99a2 2 0 0 0-2 2v1.334a2 2 0 0 0 2 2h44.01a2 2 0 0 0 2-2v-1.335a2 2 0 0 0-2-2z" fill="#007fff"/>
</svg>
