<svg xmlns="http://www.w3.org/2000/svg" viewBox="0 0 64 64"><defs><linearGradient id="a" x1="1" x2="0" y1="1"><stop offset="0" stop-color="#ff001e"/><stop offset="1" stop-color="#ff004b"/></linearGradient><linearGradient id="c" x2="0" y2="1"><stop offset="0" stop-color="#f7f206"/><stop offset="1" stop-color="#ffbb24"/></linearGradient></defs><path fill="url(#a)" d="M32.01.002a32 32 0 0 0-32 32 32 32 0 0 0 32 32 32 32 0 0 0 32-32 32 32 0 0 0-32-32m0 6.857a25.15 25.15 0 0 1 25.14 25.15 25.15 25.15 0 0 1-25.14 25.14 25.15 25.15 0 0 1-25.15-25.14 25.15 25.15 0 0 1 25.15-25.15" transform="translate(-.01 -.002)scale(.9999)"/><path fill="url(#c)" d="M21.18 13.3a4.14 4.14 0 0 0-2.137.75 22.29 22.29 0 0 0-9.361 16.22 4.18 4.18 0 0 0 1.078 3.19 4.14 4.14 0 0 0 3.051 1.346h9.1a2.48 2.48 0 0 0 2.482-2.48 2.48 2.48 0 0 0-2.482-2.482h-8.174a17.35 17.35 0 0 1 6.453-11.19l4.076 7.053a2.482 2.482 0 0 0 4.297-2.482l-4.549-7.857a4.14 4.14 0 0 0-3.836-2.06zm21.65 0a4.14 4.14 0 0 0-3.836 2.062l-4.541 7.857a2.482 2.482 0 0 0 4.297 2.482l4.076-7.059a17.35 17.35 0 0 1 6.451 11.2h-8.176a2.482 2.482 0 0 0 0 4.963h9.102a4.14 4.14 0 0 0 3.041-1.346 4.18 4.18 0 0 0 1.078-3.191 22.29 22.29 0 0 0-9.361-16.21 4.14 4.14 0 0 0-2.133-.752zM32 29a3.31 3.31 0 0 0-3.309 3.309A3.309 3.309 0 1 0 32 29m-4.438 8.707a2.48 2.48 0 0 0-2.262 1.238l-4.512 7.818a4.136 4.136 0 0 0 1.842 5.82 22.38 22.38 0 0 0 18.75 0 4.136 4.136 0 0 0 1.84-5.82l-4.512-7.812a2.483 2.483 0 0 0-4.299 2.48l4.049 7.01a17.44 17.44 0 0 1-12.9 0l4.051-7.014a2.482 2.482 0 0 0-2.039-3.721z" transform="translate(-.01 -.002)scale(.9999)"/></svg>