<svg xmlns="http://www.w3.org/2000/svg" style="isolation:isolate" viewBox="0 0 64 64"><linearGradient id="a" x1=".486" x2=".507" y1="1.027" y2="-.035" gradientTransform="matrix(36.48 0 0 46 5.76 1)" gradientUnits="userSpaceOnUse" transform="translate(-1.391 -1.391)scale(1.391)"><stop offset="0" stop-color="#5433ff"/><stop offset=".517" stop-color="#20bdff"/><stop offset=".983" stop-color="#a5fecb"/></linearGradient><path fill="url(#a)" fill-rule="evenodd" d="m24.01 8.284-8.779 13.42c2.037-1.836 4.734-2.696 7.294-2.326a7.94 7.94 0 0 1 3.368 1.311c2.289 1.569 1.226 5.149-1.547 5.215l-.022.003a4.287 4.287 0 0 0-4.134 4.28 4.286 4.286 0 0 0 3.791 4.255c.646.126 1.375.08 2.285-.068 1.884-.315 4.624-1.143 6.099-2.397 3.707-2.943 3.029-6.213.802-9.669L24.01 8.278zm1.212-3.314 11.02 15.83c3.785 5.437 3.745 11.31 1.193 15.74-2.551 4.434-7.574 7.462-13.43 7.462s-10.89-3.028-13.44-7.462c-2.554-4.433-2.596-10.3 1.194-15.74L22.779 5c1.06-1.34 1.493-1.319 2.445-.031zm2.468-1.71L38.7 19.08c1.15 1.62 2.04 3.4 2.67 5.29.57 1.75.86 3.57.87 5.41 0 2.9-.76 5.75-2.2 8.26a17.7 17.7 0 0 1-6.61 6.51A19.1 19.1 0 0 1 24 47c-3.3.01-6.55-.83-9.43-2.45a17.6 17.6 0 0 1-6.6-6.51 16.5 16.5 0 0 1-2.21-8.26c.01-1.84.3-3.66.87-5.41.63-1.89 1.53-3.67 2.67-5.29l11.02-15.8c.01-.02.03-.04.05-.06.32-.44.69-.85 1.11-1.21.7-.63 1.61-.99 2.55-1.01.97.01 1.9.39 2.61 1.05.39.36.74.77 1.05 1.21M21.457 22.1c-2.167-.097-4.399 1.106-5.726 3.497-1.929 3.477-1.686 7.643 1.095 10.63 4.041 4.336 9.989 3.532 12.89.496-1.94.592-3.678.837-5.224.683h-.014a7.143 7.143 0 0 1-7.143-7.143 7.14 7.14 0 0 1 6.035-7.051c.299-.085.602-.147.911-.159a5.4 5.4 0 0 0-2.822-.95z" transform="translate(-1.391 -1.391)scale(1.391)"/></svg>