<svg xmlns="http://www.w3.org/2000/svg" viewBox="0 0 64 64"><defs><linearGradient id="a" y1="1"><stop offset="0" stop-color="#879af2"/><stop offset=".5" stop-color="#d3208b"/><stop offset="1" stop-color="#fda000"/></linearGradient><linearGradient id="e" x2="0" y1="1"><stop offset="0" stop-color="#00efff"/><stop offset="1" stop-color="#07f"/></linearGradient><linearGradient id="b" x2="0" y2="1"><stop offset="0" stop-color="#fda700"/><stop offset="1" stop-color="#ffde00"/></linearGradient><linearGradient id="c" y1="1"><stop offset="0" stop-color="#01ff01"/><stop offset="1" stop-color="#1bc100"/></linearGradient></defs><path fill="url(#a)" d="M11.17 8.93v.004a1.87 1.87 0 0 0-1.215.443l-.113.106-8.725 8.732a1.89 1.89 0 0 0 2.674 2.67l8.725-8.734a1.873 1.873 0 0 0-.002-2.648l-.13-.121a1.87 1.87 0 0 0-1.214-.451zm-.037 1.254a.62.62 0 0 1 .474.182l.024.021a.624.624 0 0 1 0 .885l-.592.592-.908-.905.61-.609a.62.62 0 0 1 .392-.166" transform="translate(-1.325 -5.057)scale(3.225)"/><path fill="url(#b)" d="M9.977 2.971 7.534 4.565l-2.477-1.52 1.582 2.438-1.527 2.484 2.443-1.594 2.478 1.518-1.584-2.438z" transform="translate(-1.325 -5.057)scale(3.225)"/><path fill="url(#c)" d="m16.69 13.39-2.211 1.438-2.252-1.387 1.443 2.217-1.377 2.246 2.211-1.436 2.254 1.385-1.445-2.215z" transform="translate(-1.325 -5.057)scale(3.225)"/><path fill="url(#e)" d="m15.23 1.568-.826 3.92-3.881.932 3.906.828.926 3.896.826-3.92 3.88-.932-3.901-.828z" transform="translate(-1.325 -5.057)scale(3.225)"/></svg>