<svg xmlns="http://www.w3.org/2000/svg" viewBox="0 0 64 64"><defs><linearGradient id="a" y2="1"><stop offset="0" stop-color="#fd5"/><stop offset=".53" stop-color="#ff80e5"/><stop offset="1" stop-color="#0cf"/></linearGradient></defs><path fill="url(#a)" d="M28.36-.506 3.63-.5A4.156 4.156 0 0 0-.522 3.621v24.73c.03 2.29 1.881 4.144 4.152 4.144h24.7a4.184 4.184 0 0 0 4.178-4.117V3.638c-.03-2.289-1.881-4.143-4.152-4.143zM3.63 1.6h24.73a2.055 2.055 0 0 1 2.049 2.051v11.3H1.589V3.65A2.053 2.053 0 0 1 3.63 1.6M8.706 4.15c-.401 0-.729.35-.729.752v7.294c0 .401.303.756.729.756h14.5a.735.735 0 0 0 .725-.756V4.874a.723.723 0 0 0-.725-.724zM1.581 17.6h28.82v10.77a2.046 2.046 0 0 1-2.049 2.05H3.622a2.046 2.046 0 0 1-2.049-2.048l.008-10.77zm24.82 1.7a.947.947 0 0 0-.947.95c0 .525.426.945.947.945a.948.948 0 1 0 0-1.894zm-15.47.25a.726.726 0 0 0-.725.704v6.875c0 .4.324.697.725.697v-.002h10.1c.401 0 .7-.294.725-.695v-6.902c-.025-.375-.349-.696-.725-.676zm-5.354.4c-1.1 0-2.199.733-2.199 2.201h-.002a2.201 2.201 0 0 0 4.402 0c0-1.468-1.101-2.2-2.201-2.2m22.72 1.23v.001a.96.96 0 0 0-.658.288c-.615.609-.18 1.66.69 1.66v.002a.975.975 0 0 0 .972-.976.974.974 0 0 0-1.004-.974zm-3.83.04a.95.95 0 0 0-.95.948c0 .525.43.953.95.953a.953.953 0 0 0 .953-.953.95.95 0 0 0-.953-.947m1.94 1.882a.951.951 0 1 0 0 1.9c1.22-.047 1.22-1.854 0-1.9" transform="translate(1.011 1.008)scale(1.93761)"/></svg>