<svg version="1.1" viewBox="0 0 64 64" xmlns="http://www.w3.org/2000/svg">
 <defs>
  <linearGradient id="a" y1="1">
   <stop stop-color="#b5007f" offset="0"/>
   <stop stop-color="#ff014a" offset=".5"/>
   <stop stop-color="#fbd425" offset="1"/>
  </linearGradient>
 </defs>
 <path transform="translate(.004521 .00037) scale(1) translate(-1.96 -1.695) scale(4.238)" d="M6.1.4C5.157.4 4.432.393 3.786.48s-1.273.306-1.736.77-.68 1.088-.767 1.734S1.2 4.356 1.2 5.298v7.453a2.76 2.76 0 0 0 2.748 2.748h5.975c.942 0 1.668.005 2.314-.082s1.273-.304 1.736-.767.68-1.09.767-1.736c.087-.647.082-1.372.082-2.314V7.95h-.037c.007-.35.037-.619.037-1.043V5.3c0-.943.005-1.668-.082-2.314-.086-.647-.304-1.271-.767-1.734-.464-.463-1.09-.683-1.736-.77s-1.372-.08-2.314-.08zm0 1.798V2.2h3.822c.943 0 1.632.007 2.074.066s.58.134.703.256.198.261.258.704.064 1.13.064 2.074v1.607c0 .942-.005 1.632-.064 2.074s-.136.58-.258.702-.26.197-.703.256c-.443.06-1.131.067-2.074.067H3.947c-.368 0-.625.26-.947.395V5.298c0-.943.005-1.632.064-2.074s.136-.582.258-.704.26-.196.703-.256 1.131-.066 2.074-.066zm6.896 9.19c-.006.466-.002 1.012-.039 1.287-.06.442-.136.58-.258.703s-.26.198-.703.258-1.13.064-2.074.064H3.947c-.533 0-.947-.413-.947-.947s.414-.948.947-.948h5.975c.943 0 1.668.007 2.314-.08.284-.038.497-.24.76-.338z" fill="url(#a)"/>
 <path transform="translate(.004521 .00037) scale(1) translate(-1.96 -1.695) scale(4.238)" d="M7.687 2.981H6.541a1 1 0 0 0-1 1v3.816a1 1 0 0 0 1 1h1.15q.886 0 1.531-.345.645-.349.99-1.002.35-.654.35-1.562 0-.907-.35-1.56a2.4 2.4 0 0 0-.994-1q-.642-.348-1.53-.347zm-.341 1.197h.27q.5 0 .841.168.345.166.521.541.176.372.176 1c0 .628-.058.752-.176 1.004q-.174.376-.515.544-.338.166-.826.166h-.292a.4.4 0 0 1-.398-.401V4.579c0-.22.177-.4.398-.4z" fill="url(#a)"/>
</svg>
