<svg xmlns="http://www.w3.org/2000/svg" viewBox="0 0 64 64"><defs><linearGradient id="a" y1=".5" y2=".5"><stop offset="0" stop-color="#fda700"/><stop offset="1" stop-color="#ffde00"/></linearGradient></defs><path fill="url(#a)" d="M11.86 6.004A2 2 0 0 0 10.266 7h-.268a3 3 0 0 0-3 3v9h2v-9a1 1 0 0 1 1-1h.268a2 2 0 0 0 1.732 1 2 2 0 1 0-.139-3.996z" transform="translate(-10.658 -10.655)scale(1.77582)"/><path fill="url(#a)" d="M21.89 6.004A2 2 0 0 0 19.999 8a2 2 0 0 0 3.732 1h.268a1 1 0 0 1 1 1v9h-1.16c-.552 0-.99.45-1.084.994a5.84 5.84 0 0 1-11.51 0C11.15 19.45 10.713 19 10.16 19H7c-.552 0-1.005.448-.955.998A11 11 0 0 0 14 29.582V32c0 1.306.835 2.418 2 2.83a7.25 7.25 0 0 0 14.5-.08v-4a3.75 3.75 0 0 1 7.5 0v2.42a3.001 3.001 0 1 0 2 0v-2.42a5.75 5.75 0 0 0-11.5 0v4a5.25 5.25 0 0 1-10.5.08A3 3 0 0 0 20 32v-2.418a11 11 0 0 0 7.955-9.584c.05-.55-.404-.998-.956-.998v-9a3 3 0 0 0-3-3h-.267a2 2 0 0 0-1.842-.996zm-13.67 15h1.195a7.84 7.84 0 0 0 15.16 0h1.195a9 9 0 0 1-17.55 0m7.775 9h2v2a1 1 0 0 1-2 0zm23 5a1 1 0 0 1 0 2 1 1 0 0 1 0-2" transform="translate(-10.658 -10.655)scale(1.77582)"/></svg>