<svg xmlns="http://www.w3.org/2000/svg" xmlns:xlink="http://www.w3.org/1999/xlink" viewBox="0 0 64 64"><defs><linearGradient id="b" x1="1" x2="0" y1=".5" y2=".5"><stop offset="0" stop-color="#01ff01"/><stop offset="1" stop-color="#1bc100"/></linearGradient><linearGradient id="c" y1=".5" y2=".5"><stop offset="0" stop-color="#f7f206"/><stop offset="1" stop-color="#ffbb24"/></linearGradient><linearGradient id="a" y1=".5" y2=".5"><stop offset="0" stop-color="#ff47c9"/><stop offset="1" stop-color="#8a2be2"/></linearGradient><linearGradient xlink:href="#a" id="g" x1="10.21" x2="14.49" y1="4.861" y2="4.861" gradientTransform="scale(.972 1.029)" gradientUnits="userSpaceOnUse"/><linearGradient xlink:href="#a" id="f" x1="6.254" x2="1.978" y1="10.69" y2="10.69" gradientTransform="scale(.972 1.029)" gradientUnits="userSpaceOnUse"/></defs><path fill="url(#a)" d="M9.199-1A2.216 2.216 0 0 0 7 1.199v13.6c0 1.202.998 2.199 2.199 2.199h5.602A2.216 2.216 0 0 0 17 14.799v-13.6A2.216 2.216 0 0 0 14.801-1zm0 2h5.602c.128 0 .2.071.2.2v13.6c0 .127-.072.198-.2.198H9.199c-.128 0-.2-.07-.2-.199V1.2C9 1.071 9.072 1 9.2 1" transform="translate(3.6 3.603)scale(3.55)"/><path fill="url(#a)" d="M1.199-1A2.216 2.216 0 0 0-1 1.199v13.6c0 1.202.998 2.199 2.199 2.199h5.602A2.216 2.216 0 0 0 9 14.799v-13.6A2.216 2.216 0 0 0 6.801-1zm0 2h5.602c.128 0 .2.071.2.2v13.6c0 .127-.072.198-.2.198H1.199c-.128 0-.2-.07-.2-.199V1.2C1 1.071 1.072 1 1.2 1" transform="translate(3.6 3.603)scale(3.55)"/><path fill="url(#a)" d="M9.807 1.19a.5.5 0 1 0 0 1 .5.5 0 0 0 0-1" transform="translate(3.6 3.603)scale(3.55)"/><path fill="url(#a)" d="M9.807 11.69a.5.5 0 1 0 0 1 .5.5 0 0 0 0-1" transform="translate(3.6 3.603)scale(3.55)"/><path fill="url(#a)" d="M9.807 13.8a.5.5 0 1 0 0 1 .5.5 0 0 0 0-1" transform="translate(3.6 3.603)scale(3.55)"/><path fill="url(#a)" d="M6.182 1.19a.5.5 0 1 0 0 1 .5.5 0 0 0 0-1" transform="translate(3.6 3.603)scale(3.55)"/><path fill="url(#a)" d="M6.182 13.8a.5.5 0 1 0 0 1 .5.5 0 0 0 0-1" transform="translate(3.6 3.603)scale(3.55)"/><path fill="url(#b)" d="M9.127 8.81 6.873 9.937h-7.887v2.252h7.887l2.254-1.127h7.887V8.81z" transform="translate(3.6 3.603)scale(3.55)"/><path fill="url(#c)" d="M9.127 3.81 6.873 4.937h-7.887v2.252h7.887l2.254-1.127h7.887V3.81z" transform="translate(3.6 3.603)scale(3.55)"/><path fill="url(#a)" d="M6.182 3.31a.5.5 0 1 0 0 1 .5.5 0 0 0 0-1" transform="translate(3.6 3.603)scale(3.55)"/><path fill="url(#f)" d="M3.842 8.801a.35.35 0 0 0-.217.107l-.213.21q-.107.105-.107.255c0 .15.036.187.107.258l.828.826H2.252a.3.3 0 0 0-.238.108.37.37 0 0 0-.092.254v.363q0 .149.092.254c.092.105.14.107.238.107H4.24l-.828.83q-.107.102-.107.254c0 .152.036.186.107.254l.213.215q.105.104.254.103a.36.36 0 0 0 .256-.103l1.84-1.842A.34.34 0 0 0 6.079 11a.36.36 0 0 0-.104-.258l-1.84-1.834a.35.35 0 0 0-.256-.107z" transform="translate(3.6 3.603)scale(3.55)"/><path fill="url(#g)" d="M12.09 2.801a.36.36 0 0 0-.22.104l-1.84 1.842A.34.34 0 0 0 9.925 5q0 .148.103.258l1.84 1.834a.35.35 0 0 0 .256.108.35.35 0 0 0 .254-.108l.213-.209q.107-.106.107-.256c0-.15-.035-.186-.107-.257l-.828-.827h1.988a.3.3 0 0 0 .238-.107.37.37 0 0 0 .092-.254v-.363q0-.15-.092-.254c-.092-.104-.14-.108-.238-.108h-1.988l.828-.83q.107-.1.107-.254c0-.154-.035-.186-.107-.253l-.213-.215a.34.34 0 0 0-.254-.104z" transform="translate(3.6 3.603)scale(3.55)"/></svg>