<svg xmlns="http://www.w3.org/2000/svg" viewBox="0 0 64 64"><defs><linearGradient id="a" x2="0" y1="1"><stop offset="0" stop-color="#f0f"/><stop offset="1" stop-color="#c299ff"/></linearGradient></defs><path fill="url(#a)" d="M32-4.576c-20.17 0-36.58 16.41-36.58 36.58S11.83 68.584 32 68.584s36.58-16.41 36.58-36.58S52.17-4.576 32-4.576m0 5.951c16.95 0 30.63 13.68 30.63 30.63S48.95 62.635 32 62.635 1.37 48.955 1.37 32.005 15.05 1.375 32 1.375" transform="translate(4.007 4.003)scale(.8748)"/><path fill="url(#a)" d="M40.41 8.533c-.644.009-1.31.069-2.107.227-1.451.287-2.964 1.168-4.242 2.059-4.34 3.022-5.482 8.926-2.566 13.19 2.44 3.569 6.998 4.826 10.98 3.459.84-.289 1.174-.321 1.824-.375.84-.07 2.189.035 3.4.632.985.486 1.828.905 2.375 2.033.142.294.395.816.45 1.475.085 1.051-.122 1.566-.817 2.9 1.106-.891 1.633-1.037 3.275-3.033 3.269-3.975 3.436-10.62-.125-15.83-2.64-3.86-6.674-6.324-10.48-6.644-.697-.058-1.313-.108-1.957-.1z" transform="translate(4.007 4.003)scale(.8748)"/><path fill="url(#a)" d="m17.9 12.8-.002.004c-4.677.109-9.554 3.397-11.99 8.777C3.85 26.138 3.747 31.254 5.433 35c.617 1.372 1.12 2.43 2.225 3.76 1.005 1.21 2.568 2.16 4.018 2.883 4.924 2.455 10.75.359 13.03-4.676v-.01c1.901-4.212.65-9.17-2.617-12.18-.69-.634-.89-.932-1.275-1.516-.496-.752-1.103-2.075-1.199-3.535-.078-1.188-.144-2.212.575-3.332.187-.292.527-.804 1.084-1.209.887-.645 1.45-.728 2.992-.79-1.362-.562-1.765-.981-4.383-1.452a10 10 0 0 0-1.982-.15z" transform="translate(4.007 4.003)scale(.8748)"/><path fill="url(#a)" d="M42.8 38.4a8 8 0 0 0-.877.033v-.008c-3.931.323-7.005 3.43-7.756 7.268-.159.81-.287 1.09-.543 1.641-.33.71-1.032 1.758-2.059 2.46-.835.57-1.56 1.053-2.699.974-.297-.02-.824-.064-1.367-.324-.867-.416-1.17-.816-1.9-1.992.194 1.303.065 1.798.883 4.043 1.629 4.468 6.78 7.663 12.52 7.193 4.252-.349 8.054-2.467 10.06-5.393.731-1.07 1.274-1.91 1.758-3.342.44-1.303.438-2.926.324-4.365-.363-4.587-4.007-8.083-8.332-8.186z" transform="translate(4.007 4.003)scale(.8748)"/></svg>