<svg xmlns="http://www.w3.org/2000/svg" viewBox="0 0 64 64"><defs><linearGradient id="a" x1="1" x2="0" y2="1"><stop offset="0" stop-color="#757f9a"/><stop offset=".987" stop-color="#d7dde8"/></linearGradient></defs><g fill="url(#a)" opacity=".85" transform="translate(-9.976 -616.284)scale(.6559)"><path d="M64 940.4c-26.51 0-48 21.49-48 48s21.49 48 48 48 48-21.49 48-48-21.49-48-48-48m0 3.998c20.16 0 37.14 13.55 42.36 32.04a76.4 76.4 0 0 1-18.65 24.33c-3.736 3.235-7.817 6.115-12.32 8.146-4.506 2.031-9.46 3.185-14.39 2.902-3.707-.213-7.368-1.246-10.62-3.046 8.603-4.662 16.36-10.87 22.72-18.32 4.171-4.885 7.825-10.44 9.23-16.71.703-3.134.818-6.415.162-9.559s-2.11-6.14-4.31-8.48c-2.148-2.286-4.97-3.908-7.995-4.742s-6.242-.899-9.328-.335c-6.173 1.128-11.69 4.718-16.11 9.172-7.792 7.851-12.61 18.93-11.72 29.95.441 5.513 2.286 10.93 5.452 15.47a29 29 0 0 0 2.319 2.89 72 72 0 0 1-14.23 3.41 43.8 43.8 0 0 1-6.56-23.12c0-24.3 19.7-44 44-44zm.277 8.89c3.093.004 6.208.94 8.676 2.804 2.224 1.68 3.872 4.072 4.806 6.698s1.172 5.475.854 8.244c-.638 5.537-3.427 10.62-6.802 15.05-5.975 7.854-13.92 14.14-22.75 18.54-.904.45-1.824.875-2.746 1.286a22.7 22.7 0 0 1-4.823-5.896c-2.624-4.646-3.492-10.17-2.982-15.48s2.334-10.43 4.782-15.17c2.839-5.496 6.709-10.7 12.13-13.69 2.708-1.494 5.768-2.392 8.86-2.388zm43.33 29.22a44 44 0 0 1 .392 5.89c0 24.3-19.7 44-44 44-13.65 0-25.84-6.21-33.92-15.96a79 79 0 0 0 14.52-4.823 27 27 0 0 0 6.692 3.75c6.904 2.647 14.74 2.263 21.73-.156 6.987-2.419 13.19-6.76 18.59-11.81a80 80 0 0 0 15.99-20.89z"/><path d="M64 939.6c-26.94 0-48.79 21.85-48.79 48.79s21.85 48.79 48.79 48.79 48.79-21.85 48.79-48.79S90.94 939.6 64 939.6m0 1.575c26.08 0 47.21 21.13 47.21 47.21s-21.13 47.21-47.21 47.21-47.21-21.13-47.21-47.21 21.13-47.21 47.21-47.21m0 2.423c-24.73 0-44.79 20.06-44.79 44.79a44.6 44.6 0 0 0 6.68 23.54l.265.433.508-.07a72.8 72.8 0 0 0 14.39-3.443l1.125-.392-.802-.883c-.81-.89-1.57-1.827-2.256-2.81-3.079-4.41-4.882-9.7-5.313-15.08-.862-10.76 3.853-21.63 11.5-29.34 4.34-4.371 9.728-7.857 15.69-8.947 2.981-.545 6.08-.482 8.976.317 2.894.798 5.586 2.346 7.626 4.517 2.088 2.222 3.484 5.091 4.113 8.105.63 3.018.52 6.187-.161 9.224-1.363 6.08-4.93 11.53-9.057 16.37-6.29 7.366-13.97 13.52-22.49 18.14l-1.263.687 1.258.698c3.354 1.86 7.126 2.925 10.95 3.144 5.086.291 10.17-.897 14.77-2.971 4.598-2.072 8.732-5.003 12.51-8.272a77.2 77.2 0 0 0 18.85-24.58l.132-.271-.08-.289c-5.304-18.82-22.61-32.62-43.12-32.62zm0 1.581c19.7 0 36.28 13.18 41.49 31.19-4.433 9.046-10.69 17.2-18.3 23.79-3.696 3.201-7.713 6.041-12.13 8.03-4.41 1.988-9.243 3.107-14.02 2.832-3.1-.178-6.119-1.062-8.919-2.388 8.131-4.612 15.51-10.57 21.58-17.68 4.215-4.937 7.945-10.59 9.392-17.04.724-3.23.85-6.624.167-9.894-.683-3.274-2.194-6.402-4.506-8.861-2.258-2.402-5.203-4.091-8.359-4.961-3.153-.87-6.494-.93-9.686-.346-6.382 1.166-12.02 4.849-16.52 9.386-7.939 7.999-12.85 19.28-11.95 30.58.453 5.646 2.338 11.19 5.59 15.85.494.707 1.062 1.355 1.615 2.013-4.057 1.348-8.229 2.355-12.46 2.954-3.915-6.501-6.19-14.09-6.19-22.24 0-23.87 19.34-43.21 43.21-43.21zm.283 7.309c-3.247-.004-6.436.942-9.248 2.492-5.617 3.098-9.564 8.443-12.44 14.02-2.481 4.804-4.347 10.01-4.87 15.46-.521 5.447.362 11.13 3.082 15.94a23.5 23.5 0 0 0 4.99 6.104l.38.335.462-.208c.93-.415 1.858-.847 2.775-1.304 8.932-4.45 16.97-10.81 23.02-18.77 3.423-4.5 6.302-9.695 6.963-15.44.33-2.874.086-5.846-.894-8.601-.982-2.76-2.716-5.277-5.077-7.061-2.621-1.98-5.892-2.961-9.144-2.965zm-.006 1.581c2.934.004 5.889.9 8.203 2.648 2.086 1.576 3.648 3.837 4.534 6.328.888 2.496 1.126 5.223.82 7.886-.614 5.331-3.327 10.29-6.653 14.66-5.894 7.747-13.74 13.96-22.48 18.31-.73.364-1.474.705-2.22 1.044-1.699-1.553-3.182-3.339-4.31-5.336-2.529-4.477-3.38-9.836-2.884-15.01.497-5.181 2.28-10.21 4.696-14.88 2.798-5.417 6.592-10.48 11.81-13.36 2.606-1.437 5.541-2.294 8.48-2.29zm43.79 25.88-1.154 2.175a79.1 79.1 0 0 1-15.84 20.68c-5.346 4.998-11.46 9.271-18.3 11.64s-14.5 2.728-21.19.162a26.3 26.3 0 0 1-6.496-3.64l-.37-.283-.432.19a78.4 78.4 0 0 1-14.37 4.771l-1.252.289.813.986c8.215 9.926 20.64 16.25 34.53 16.25 24.73 0 44.79-20.06 44.79-44.79 0-2.034-.141-4.034-.403-5.994zm-1.073 5.157c.084 1.09.22 2.166.22 3.277 0 23.87-19.34 43.21-43.21 43.21-12.95 0-24.47-5.766-32.39-14.78 4.412-1.086 8.735-2.521 12.9-4.338 2 1.474 4.174 2.714 6.501 3.606 7.114 2.728 15.14 2.326 22.27-.144 7.127-2.467 13.41-6.881 18.86-11.98 5.866-5.484 10.84-11.88 14.84-18.85z"/></g></svg>