<svg xmlns="http://www.w3.org/2000/svg" viewBox="0 0 64 64"><defs><linearGradient id="a" y1=".5" y2=".5"><stop offset="0" stop-color="#b2fefa"/><stop offset=".983" stop-color="#0ed2f7"/></linearGradient></defs><path fill="url(#a)" d="M32.01-9.469a2.75 2.75 0 0 0-2.459 1.52l-38.72 77.43A2.75 2.75 0 0 0-5.2 73.008c13.81-9.063 26.04-13.63 37.89-13.73 11.85-.103 23.53 4.214 36.4 13.65a2.75 2.75 0 0 0 4.086-3.447l-38.71-77.43a2.75 2.75 0 0 0-2.461-1.52zm0 8.898 31.76 63.51c-10.47-6.117-20.72-9.258-31.12-9.168-10.68.093-21.44 3.588-32.72 9.834z" transform="translate(7.301 7.307)scale(.77172)"/><path fill="url(#a)" d="M32.01 43.64a4.363 4.363 0 1 0 0 8.726 4.363 4.363 0 0 0 0-8.726" transform="translate(7.301 7.307)scale(.77172)"/><path fill="url(#a)" d="m37.81 11.63-10.18 2.91c1.452 5.814 5.592 17.92 2.182 26.19l5.092-2.912c1.452-4.363 2.904-20.36 2.904-26.19z" transform="translate(7.301 7.307)scale(.77172)"/></svg>