<svg xmlns="http://www.w3.org/2000/svg" style="isolation:isolate" viewBox="0 0 64 64"><linearGradient id="a" x2="1" y1=".5" y2=".5" gradientTransform="matrix(45 0 0 45 1.5 1.5)" gradientUnits="userSpaceOnUse" transform="translate(-2.134 -2.134)scale(1.422)"><stop offset="0" stop-color="#ffe031"/><stop offset="1" stop-color="#fa0075"/></linearGradient><path fill="url(#a)" d="M3.346 1.513c-.745.062-1.254.343-1.573.847-.453.719-.332 2.561.289 4.395.568 1.677 1.868 4.276 3.148 6.51a22.63 22.63 0 0 1 8.607-7.697C10.794 3.74 7.66 2.272 5.531 1.761a9.6 9.6 0 0 0-1.36-.236 5 5 0 0 0-.825-.012m41.31 0a5 5 0 0 0-.825.012 9.6 9.6 0 0 0-1.36.236c-2.565.616-6.603 2.59-10.13 4.953-1.795 1.203-1.912 1.358-1.911 2.577 0 .871.069 1.16.508 2.072 1.217 2.524 3.938 5.104 6.265 5.938 1.033.371 2.355.359 2.844-.025 1.229-.963 4.838-7.41 5.892-10.52.621-1.834.742-3.676.289-4.395-.319-.504-.828-.785-1.573-.847zm-20.65 3.201c-11.54 0-20.89 9.354-20.89 20.89s9.354 20.89 20.89 20.89 20.89-9.354 20.89-20.89a20.9 20.9 0 0 0-2.141-9.181c-.025.038-.054.094-.079.132-.561.839-.943 1.441-1.635 1.983-.791.621-1.481.631-2.197.638a6.3 6.3 0 0 1-2.182-.365c-2.943-1.055-5.731-3.769-7.169-6.751-.468-.971-.668-1.812-.669-2.769 0-.661.074-1.545.6-2.254.368-.495.813-.829 1.331-1.183a20.9 20.9 0 0 0-6.752-1.143z" transform="translate(-2.134 -2.134)scale(1.422)"/></svg>