<svg xmlns="http://www.w3.org/2000/svg" style="isolation:isolate" viewBox="0 0 64 64"><linearGradient id="a" x1=".183" x2=".903" y1=".249" y2=".903" gradientTransform="matrix(43 0 0 43 2.5 2.5)" gradientUnits="userSpaceOnUse" transform="translate(-3.721 -3.721)scale(1.488)"><stop offset=".026" stop-color="#b3ffab"/><stop offset=".987" stop-color="#12fff7"/></linearGradient><path fill="url(#a)" fill-rule="evenodd" d="M24 2.5a21.5 21.5 0 0 0-12.63 4.123l4.83 4.829a14.8 14.8 0 0 1 7.797-2.233c8.163 0 14.78 6.618 14.78 14.78a14.8 14.8 0 0 1-2.241 7.79l4.832 4.831A21.5 21.5 0 0 0 45.496 24c0-11.87-9.626-21.5-21.5-21.5zM6.63 11.379a21.5 21.5 0 0 0-4.128 12.62c0 11.87 9.626 21.5 21.5 21.5a21.5 21.5 0 0 0 12.63-4.123l-4.83-4.829a14.8 14.8 0 0 1-7.797 2.233c-8.163 0-14.78-6.618-14.78-14.78a14.8 14.8 0 0 1 2.241-7.79l-4.832-4.831zm9.31 12.62c0-4.45 3.612-8.062 8.062-8.062s8.063 3.612 8.063 8.062-3.613 8.063-8.063 8.063-8.062-3.613-8.062-8.063" transform="translate(-3.721 -3.721)scale(1.488)"/></svg>