<svg xmlns="http://www.w3.org/2000/svg" viewBox="0 0 64 64"><defs><linearGradient id="a" x1="1" x2="0" y1="1"><stop offset="0" stop-color="#879af2"/><stop offset=".479" stop-color="#d3208b"/><stop offset=".979" stop-color="#fda000"/></linearGradient></defs><path fill="url(#a)" d="M24.05 13.63a1.6 1.6 0 0 0-.78.185l-7.806 4.506c-.432.249-.782.856-.782 1.355v8.159c0 .498.348 1.107.78 1.359l8.658 5.06c.431.252.78.053.78-.446v-5.46a.903.903 0 0 0-1.805 0v2.394c0 .249-.176.349-.391.224l-6.215-3.611v-7.54l3.4-1.963.67.394 6.444 3.852-2.565 1.48a.89.89 0 0 1-.786.008l-4.63-2.562a.904.904 0 1 0-1.043 1.475l5.187 2.994c.432.25 1.134.25 1.564 0l6.776-3.91v6.904l-5.062 2.776a.91.91 0 0 0-.306 1.242.9.9 0 0 0 1.236.308l5.149-2.87c.436-.243.79-.844.79-1.343v-9.243c0-.499-.35-.7-.783-.451l-3.617 2.089-.221.127-.454-.268-6.662-3.977 2.367-1.367 5.026 2.826a.902.902 0 1 0 1.051-1.466l-5.19-3.051a1.6 1.6 0 0 0-.78-.19z" transform="translate(-42.073 -42.072)scale(3.087)"/></svg>