<svg version="1.1" viewBox="0 0 64 64" xmlns="http://www.w3.org/2000/svg">
 <defs>
  <linearGradient id="b" x2="0" y2="1">
   <stop stop-color="#00f0ff" offset="0"/>
   <stop stop-color="#00c3ff" offset="1"/>
  </linearGradient>
  <linearGradient id="c" x1="1" x2="0" y2="1">
   <stop stop-color="#00efff" offset="0"/>
   <stop stop-color="#07f" offset="1"/>
  </linearGradient>
  <linearGradient id="a" x1="1" x2="0" y1="1">
   <stop stop-color="#ff007d" offset="0"/>
   <stop stop-color="#f000ff" offset="1"/>
  </linearGradient>
 </defs>
 <path transform="translate(7e-5) scale(1) translate(0 1e-6) scale(2.909) translate(0) scale(1) translate(0) scale(1) translate(0) scale(1) translate(.00013 .000374) scale(1) matrix(.9884 0 0 .9884 .1281 .2475)" d="m5.43-0.25-0.1133 0.007813c-0.5594 0.03978-1.107 0.1874-1.611 0.4336-0.5272 0.2579-0.976 0.6486-1.305 1.135a0.25 0.25 0 0 0-0.00195 0.00195c-0.3692 0.5567-0.5859 1.259-0.5859 2.109v14.44c0 0.6788 0.173 1.255 0.4785 1.713 0.3033 0.452 0.7005 0.7443 1.068 0.9297a0.25 0.25 0 0 0 0.00195 0c0.4344 0.2166 0.9094 0.3373 1.394 0.3555a0.25 0.25 0 0 0 0.00977 0h0.04687a0.25 0.25 0 0 0 0.25-0.25v-1.375a0.25 0.25 0 0 0-0.2383-0.248l-0.03711-2e-3h-0.00391c-0.2038-0.01299-0.403-0.0672-0.5859-0.1582a0.25 0.25 0 0 0-0.00586-2e-3c-0.1379-0.06508-0.2545-0.1665-0.3398-0.2929-0.08274-0.1241-0.1641-0.3181-0.1641-0.6719 0-0.3528 0.08155-0.5457 0.1641-0.6699 0.08619-0.1269 0.2047-0.2282 0.3438-0.293a0.25 0.25 0 0 0 0.00586-2e-3c0.1937-0.09634 0.405-0.1512 0.6211-0.1602h12.98c-0.08779 0.3379-0.1777 0.6834-0.1777 1.125s0.08993 0.7871 0.1777 1.125h-6.115a0.25 0.25 0 0 0-0.25 0.25v1.375a0.25 0.25 0 0 0 0.25 0.25h7.562c0.404 2.62e-4 0.7275-0.2499 0.8633-0.5703 0.1343-0.3168 0.09116-0.7204-0.1816-1.01l-0.0078-0.0078v-2e-3c-0.06918-0.08644-0.1286-0.18-0.1777-0.2793v-2e-3c-0.1682-0.35-0.2526-0.7343-0.2461-1.123a0.25 0.25 0 0 0 0-0.0059c0-0.5276 0.1295-0.8961 0.2441-1.125a0.25 0.25 0 0 0 2e-3 -2e-3c0.05105-0.1036 0.1127-0.2014 0.1856-0.291a0.25 0.25 0 0 0 0.01563-0.02148c0.1526-0.1701 0.239-0.3914 0.2402-0.621v-15.12c0-0.5148-0.4227-0.9375-0.9375-0.9375l-13.8-0.007812a0.25 0.25 0 0 0-0.01758 0zm1.008 1.875h11.88v13.25h-11.88zm-1.875 0.2363c1.67e-5 1.387 1.377e-4 4.447 0 7.394-7.23e-5 1.546 3.12e-4 3.013 0 4.094-1.56e-4 0.5405-0.00171 0.9843-0.00195 1.293-8.64e-5 0.1105 9.87e-5 0.1818 0 0.2559-0.07595 0.0076-0.1533 0.01006-0.2285 0.02344-0.2238 0.03624-0.4328 0.1275-0.6445 0.207v-11.69c0-0.5269 0.1248-0.8508 0.2715-1.07a0.25 0.25 0 0 0 0.00195 0c0.1464-0.2208 0.3488-0.3784 0.582-0.4961l0.00195-0.00195h0.00195l0.00195-0.00195c0.0022-7e-4 0.00745-0.00141 0.00977-0.00195 0.00114-3.548e-4 0.00281-0.00143 0.00391-0.00195zm0 17.63 0.1699 0.0078h0.00195s0.00195 2e-3 0.00195 2e-3z" fill="url(#c)"/>
 <path transform="translate(7e-5) scale(1) translate(0 1e-6) scale(2.909) translate(0) scale(1) translate(0) scale(1) translate(0) scale(1) translate(.00013 .000374) scale(1) translate(.1281 .2475) scale(.9884)" d="m6.188 17.88v3.438a0.6875 0.6875 0 0 0 1.174 0.4863l0.8887-0.8887 0.8887 0.8887a0.6875 0.6875 0 0 0 1.176-0.4863v-3.438z" fill="url(#a)"/>
 <path transform="translate(7e-5) scale(1) translate(0 1e-6) scale(2.909) translate(0) scale(1) translate(0) scale(1) translate(0) scale(1) translate(.00013 .000374) scale(1) matrix(.9884 0 0 .9884 .1281 .2475)" d="m12.1 3.795a1.114 1.114 0 0 0 0 2.228 1.114 1.114 0 0 0 0-2.228zm-0.8398 3.342a0.8353 0.8353 0 0 0-0.8359 0.8359 0.8353 0.8353 0 0 0 0.8359 0.834h0.2773v2.228h-0.2773a0.8353 0.8353 0 0 0 0 1.67h2.227a0.8353 0.8353 0 0 0 0-1.67h-0.2773v-3.062a0.8353 0.8353 0 0 0-0.8359-0.8359z" fill="url(#b)"/>
</svg>
