<svg xmlns="http://www.w3.org/2000/svg" viewBox="0 0 64 64"><defs><linearGradient id="a" x1="1" x2="0" y2="1"><stop offset="0" stop-color="#ff2ad4"/><stop offset="1" stop-color="#0cf"/></linearGradient></defs><path fill="url(#a)" d="M18.48 0C8.609 0 .55 8.061.55 17.93v28.13C.55 55.931 8.611 64 18.48 64h27.05c9.871 0 17.93-8.064 17.93-17.94V17.93C63.46 8.059 55.398 0 45.53 0zm0 5.57h27.05c6.862 0 12.36 5.5 12.36 12.36v28.13c0 6.862-5.502 12.36-12.36 12.36H18.48A12.32 12.32 0 0 1 6.12 46.06V17.93c0-6.861 5.504-12.36 12.36-12.36" transform="translate(-.005)"/><path fill="#0f0" d="M38.29 34.1v2.098h2.099v4.196h2.097v4.196H40.39v4.196H38.29v2.098h4.197v-2.098h2.097v-2.098h2.098v2.098h2.098v2.098h4.196v-2.098h-2.098V44.59H48.78v-4.196h2.098v-4.196h2.098V34.1H48.78v2.098h-2.098v2.098h-2.098v-2.098h-2.098V34.1z"/><path fill="#f0f" d="M27.8 13.12v2.098h-2.098v12.59H27.8v2.098h8.392v-2.098h2.098v-12.59h-2.098V13.12zm2.098 2.098h4.196v12.59h-4.196zM27.8 34.098v2.098h-2.098v12.59H27.8v2.098h8.392v-2.098h2.098v-12.59h-2.098v-2.098zm2.098 2.098h4.196v12.59h-4.196z"/><path fill="#ff0" d="M42.49 13.12v2.098h-2.097v4.196h2.098v2.098h4.196v2.098h2.098v4.196h-4.196V23.61h-4.196v4.196h2.098v2.098h8.392v-2.098h2.098V23.61h-2.098v-2.098h-2.098v-2.098h-4.196v-4.196h4.196v4.196h4.196v-4.196h-2.098V13.12z"/><path fill="#0ff" d="M11.02 34.1v2.098h2.099v12.59H11.02v2.098h10.49v-2.098h2.098v-6.294H21.51v-2.098h2.098V36.2H21.51v-2.098zm6.295 2.098h2.097v4.196h-2.098zm0 6.294h2.097v6.294h-2.098z"/><path fill="red" d="M11.02 13.12v2.098h2.099v12.59H11.02v2.098h10.49v-2.098h2.098v-12.59H21.51V13.12zm6.295 2.098h2.097v12.59h-2.098z"/></svg>