<svg xmlns="http://www.w3.org/2000/svg" viewBox="0 0 64 64"><defs><linearGradient id="a" x1="1" x2="0" y1="1"><stop offset="0" stop-color="#ff001e"/><stop offset="1" stop-color="#ff004b"/></linearGradient></defs><path fill="url(#a)" d="M23.35 11.99c-.855-.015-1.67.081-2.31.66-1.28.342-2.369.142-3.209-.105-1.77.19-4.379-.6-5.609.252.742 1.97-.53 4.02.008 6.07.29 1.78.465 3.49.947 5.1-1.71.645-.37 3.08-.217 4.19-.142 1.55-.78 2.732-.642 4.342-.191 1.5-.33 2.658 1.5 2.648 1.59-.361 3.299-.22 4.969-.121 1.19-.205 3.11.034 3.58.68 1.09-.639 2.4.71 3.66-.317 1.52-.108 3.25-.005 4.57-.121 1.08.055 2.79.443 3.17-.412 1.11-.096 2.75 1.059 2.24-.805-.007-2.8-.016-5.61-.02-8.41-1.7.497.426-1.52-.37-2.4-.719-1.45-.665-2.44.185-3.59.316-2.06.054-4.159.058-6.199.16-1.05-1.4-.793-2.1-1.051-.842-.395-1.09.594-1.65-.219-1.57.27-3.97-.802-4.63.787-.869.321-1.03-.743-1.94-.57l.36-.402c-.8.134-1.695.009-2.55-.006zm-6.33 3.947 16.2 11-1.279 4.602c-1.34-.131-3.061.674-3.861-.754l-13.4-14.3zm12.86.15 1.779.942-.494 3.459-5.092-3.51zm-13.33 9.951 4.84 4.85c-1.56.453-3.639 1.821-5.059.415l-1.262-1.06z" transform="translate(-32.237 -31.68)scale(2.66573)"/></svg>