<svg xmlns="http://www.w3.org/2000/svg" viewBox="0 0 64 64"><defs><linearGradient id="a" y1="1"><stop offset="0" stop-color="#1ad6ab"/><stop offset="1" stop-color="#329db6"/></linearGradient></defs><path fill="url(#a)" d="M22.14 2.133C2.77 2.133 0 4.896 0 24.243v15.5c0 19.36 2.771 22.12 22.14 22.12h19.72c19.37 0 22.14-2.761 22.14-22.12v-15.5c0-19.35-2.771-22.11-22.14-22.11zm-.004 5.23h19.73c1.11 0 2.215.012 3.324.035q1.444.037 2.887.113c.817.047 1.637.118 2.453.204.676.078 1.346.171 2.014.296.527.102 1.053.22 1.568.372.383.113.762.253 1.125.418q.4.178.758.418c.18.125.348.261.504.418.156.152.297.324.414.503q.24.359.418.75.25.553.418 1.13c.148.515.277 1.034.375 1.565.121.66.223 1.328.293 2.004.09.813.156 1.63.207 2.45.055.96.09 1.925.113 2.89.028 1.102.035 2.208.035 3.312v15.52c0 1.106-.007 2.212-.035 3.312-.023.965-.058 1.93-.113 2.891q-.073 1.226-.207 2.445c-.07.68-.172 1.348-.293 2.016a17 17 0 0 1-.375 1.56 8.5 8.5 0 0 1-.418 1.128 5 5 0 0 1-.418.75c-.117.18-.258.348-.414.504s-.324.293-.504.418q-.358.238-.758.418c-.363.164-.742.301-1.125.418q-.774.227-1.568.371a27 27 0 0 1-2.014.3c-.816.085-1.637.155-2.453.198-.96.055-1.926.094-2.887.118q-1.662.035-3.324.035h-19.73q-1.663 0-3.32-.035a88 88 0 0 1-2.887-.118 47 47 0 0 1-2.457-.199 27 27 0 0 1-2.012-.299 16 16 0 0 1-1.57-.37 9.5 9.5 0 0 1-1.125-.419 5 5 0 0 1-.754-.418c-.183-.125-.351-.261-.508-.418s-.296-.324-.414-.504a5 5 0 0 1-.422-.75 9 9 0 0 1-.414-1.129 16 16 0 0 1-.375-1.559 29 29 0 0 1-.293-2.016 43 43 0 0 1-.207-2.445c-.05-.96-.09-1.926-.11-2.89q-.038-1.656-.038-3.313v-15.52q0-1.66.039-3.312c.02-.964.058-1.93.11-2.89q.068-1.231.206-2.45a28 28 0 0 1 .293-2.004q.147-.794.375-1.566c.11-.382.254-.761.414-1.129.118-.261.262-.511.422-.75.118-.18.258-.351.414-.503.157-.157.325-.293.508-.418a5 5 0 0 1 .754-.418 9 9 0 0 1 1.125-.418c.516-.153 1.043-.27 1.57-.372a29 29 0 0 1 2.012-.296 51 51 0 0 1 2.457-.204q1.438-.077 2.887-.113 1.658-.035 3.32-.035m.852 6.16-9.031 9.488v28.44h26.87l9.48-9.027h-21.71l21.48-21.48-6.387-6.393-20.7 20.71z" transform="translate(0 .002)"/></svg>