<svg style="isolation:isolate" version="1.1" viewBox="0 0 64 64" xmlns="http://www.w3.org/2000/svg">
 <defs>
  <linearGradient id="a" x2="0" y2="1">
   <stop stop-color="#5433ff" offset="0"/>
   <stop stop-color="#20bdff" offset=".517"/>
   <stop stop-color="#a5fecb" offset=".983"/>
  </linearGradient>
 </defs>
 <path transform="translate(0) scale(1) translate(0) scale(1) translate(-.00135) scale(1) translate(-5e-5) scale(1)" d="m16.64 38.32v3.152h4.48c0.08315-2.08e-4 0.1506 0.06725 0.1504 0.1504v2.201c2.08e-4 0.08314-0.06725 0.1506-0.1504 0.1504h-4.48v2.045h1.627v5.441c0.0077 0.2291 0.8648 0.155 2.613-0.1816v-5.26h10.45v7.699l2e-3 0.0039h-14.69v6.342l5.719 1.359h38.86a1.5 1.5 0 0 0 1.5-1.5v-20.1a1.5 1.5 0 0 0-1.5-1.5zm7.025 3.152c0.0051-5.02e-4 0.01043-1.3e-5 0.01563 0h3.84c0.08314-2.09e-4 0.1506 0.06725 0.1504 0.1504v2.201c2.08e-4 0.08315-0.06725 0.1506-0.1504 0.1504h-3.84c-0.08314 2.09e-4 -0.1506-0.06724-0.1504-0.1504v-2.201c-1.96e-4 -0.07795 0.05885-0.1428 0.1348-0.1504zm6.4 0c0.0051-5.03e-4 0.01043-1.3e-5 0.01563 0h3.84c0.08315-2.08e-4 0.1506 0.06725 0.1504 0.1504v2.201c2.08e-4 0.08314-0.06725 0.1506-0.1504 0.1504h-3.84c-0.08314 2.08e-4 -0.1506-0.06725-0.1504-0.1504v-2.201c-1.95e-4 -0.07795 0.05884-0.1428 0.1348-0.1504zm6.4 0c0.0051-5.02e-4 0.01043-1.3e-5 0.01563 0h3.84c0.08315-2.09e-4 0.1506 0.06725 0.1504 0.1504v2.201c2.08e-4 0.08315-0.06725 0.1506-0.1504 0.1504h-3.84c-0.08315 2.09e-4 -0.1506-0.06724-0.1504-0.1504v-2.201c-1.96e-4 -0.07795 0.05885-0.1428 0.1348-0.1504zm6.398 0c0.0051-5.03e-4 0.01043-1.3e-5 0.01563 0h3.842c0.08315-2.09e-4 0.1506 0.06725 0.1504 0.1504v2.201c2.08e-4 0.08315-0.06725 0.1506-0.1504 0.1504h-3.842c-0.08314 2.08e-4 -0.1506-0.06725-0.1504-0.1504v-2.201c-1.96e-4 -0.07795 0.05884-0.1428 0.1348-0.1504zm6.4 0c0.0051-5.02e-4 0.01043-1.3e-5 0.01563 0h3.84c0.08315-2.08e-4 0.1506 0.06725 0.1504 0.1504v2.201c2.08e-4 0.08314-0.06725 0.1506-0.1504 0.1504h-3.84c-0.08315 2.09e-4 -0.1506-0.06724-0.1504-0.1504v-2.201c-1.96e-4 -0.07795 0.05885-0.1428 0.1348-0.1504zm6.4 0c0.0051-5.02e-4 0.01043-1.3e-5 0.01563 0h3.199c0.08315-2.09e-4 0.1506 0.06725 0.1504 0.1504v2.201c2.08e-4 0.08315-0.06725 0.1506-0.1504 0.1504h-3.199c-0.08315 2.09e-4 -0.1506-0.06724-0.1504-0.1504v-2.201c-1.96e-4 -0.07795 0.05885-0.1428 0.1348-0.1504zm-21.73 4.4c0.0051-5.03e-4 0.01043-1.3e-5 0.01563 0h10.46c0.08315-2.08e-4 0.1506 0.06725 0.1504 0.1504v7.699c2.09e-4 0.08315-0.06724 0.1506-0.1504 0.1504h-10.46c-0.08315 2.09e-4 -0.1506-0.06725-0.1504-0.1504v-7.699c-1.96e-4 -0.07795 0.05885-0.1428 0.1348-0.1504zm13.07 0c0.0051-5.03e-4 0.01043-1.3e-5 0.01563 0h11.87c0.08315-2.09e-4 0.1506 0.06725 0.1504 0.1504v7.699c2.09e-4 0.08315-0.06725 0.1506-0.1504 0.1504h-11.87c-0.08315 2.09e-4 -0.1506-0.06725-0.1504-0.1504v-7.699c-1.96e-4 -0.07795 0.05885-0.1428 0.1348-0.1504zm-29.73 9.9c0.0051-5.03e-4 0.01043-1.3e-5 0.01563 0h3.84c0.08314-2.08e-4 0.1506 0.06725 0.1504 0.1504v2.199c2.09e-4 0.08315-0.06724 0.1506-0.1504 0.1504h-3.84c-0.08314 2.09e-4 -0.1506-0.06725-0.1504-0.1504v-2.199c-1.95e-4 -0.07795 0.05885-0.1428 0.1348-0.1504zm6.4 0c0.0051-5.03e-4 0.01043-1.3e-5 0.01563 0h3.84c0.08314-2.09e-4 0.1506 0.06724 0.1504 0.1504v2.199c2.09e-4 0.08315-0.06725 0.1506-0.1504 0.1504h-3.84c-0.08314 2.09e-4 -0.1506-0.06725-0.1504-0.1504v-2.199c-1.95e-4 -0.07795 0.05885-0.1428 0.1348-0.1504zm6.4 0c0.0051-5.03e-4 0.01043-1.3e-5 0.01563 0h3.84c0.08314-2.08e-4 0.1506 0.06725 0.1504 0.1504v2.199c2.09e-4 0.08315-0.06724 0.1506-0.1504 0.1504h-3.84c-0.08315 2.08e-4 -0.1506-0.06725-0.1504-0.1504v-2.199c-1.95e-4 -0.07794 0.05885-0.1428 0.1348-0.1504zm6.4 0c0.0051-5.03e-4 0.01043-1.3e-5 0.01563 0h3.84c0.08315-2.09e-4 0.1506 0.06724 0.1504 0.1504v2.199c2.09e-4 0.08315-0.06725 0.1506-0.1504 0.1504h-3.84c-0.08315 2.09e-4 -0.1506-0.06725-0.1504-0.1504v-2.199c-1.95e-4 -0.07795 0.05885-0.1428 0.1348-0.1504zm6.398 0c0.0051-5.03e-4 0.01043-1.3e-5 0.01563 0h3.842c0.08315-2.09e-4 0.1506 0.06724 0.1504 0.1504v2.199c2.09e-4 0.08315-0.06725 0.1506-0.1504 0.1504h-3.842c-0.08315 2.08e-4 -0.1506-0.06725-0.1504-0.1504v-2.199c-1.95e-4 -0.07794 0.05885-0.1428 0.1348-0.1504zm6.4 0c0.0051-5.03e-4 0.01043-1.3e-5 0.01563 0h3.84c0.08314-2.08e-4 0.1506 0.06725 0.1504 0.1504v2.199c2.09e-4 0.08315-0.06724 0.1506-0.1504 0.1504h-3.84c-0.08315 2.09e-4 -0.1506-0.06725-0.1504-0.1504v-2.199c-1.95e-4 -0.07795 0.05885-0.1428 0.1348-0.1504zm6.4 0c0.0051-5.03e-4 0.01043-1.3e-5 0.01563 0h3.199c0.08315-2.09e-4 0.1506 0.06724 0.1504 0.1504v2.199c2.09e-4 0.08315-0.06725 0.1506-0.1504 0.1504h-3.199c-0.08315 2.09e-4 -0.1506-0.06725-0.1504-0.1504v-2.199c-1.95e-4 -0.07795 0.05885-0.1428 0.1348-0.1504z" fill="url(#a)" fill-rule="evenodd"/>
 <linearGradient id="c" transform="translate(0) scale(1) translate(0) scale(1) translate(-.00135) scale(1) translate(-5e-5) scale(1) translate(0 1e-6) scale(1) translate(-.0014 -.009133) scale(1) translate(1.28) scale(1.28)" x1="-.117" x2="1.019" y1=".121" y2=".597" gradientTransform="matrix(14.41 0 0 28.92 10.1 19.94)" gradientUnits="userSpaceOnUse">
  <stop stop-color="#df57ff" offset=".013"/>
  <stop stop-color="#241efc" offset=".521"/>
  <stop stop-color="#0eaffe" offset=".979"/>
 </linearGradient>
 <path transform="translate(0) scale(1) translate(0) scale(1) translate(-.00135) scale(1) translate(-5e-5) scale(1) matrix(1.28 0 0 1.28 1.279 -.009132)" d="m11.72 26.87q-2.043 4.35-1.521 8.147 0.878 10.74 14.31 13.85-5.654-3.046-7.871-6.886c-0.167-4e-3 -2.521-0.63-2.525-0.937-0.035-0.068-0.039-0.547 0.412-0.514 0.537 0.149 1.621 0.712 1.629 0.514q-1.1-2.404-0.919-5.104c-0.082 0.152-2.969-1.637-2.872-1.998-0.044 0.014-0.061-0.636 0.412-0.514 0.519 0.476 2.177 1.905 2.542 1.705q0.265-1.959 1.185-4.069a8.5 8.5 0 0 1 1.019-1.719c-0.099 0.262-3.017-3.208-2.79-3.637 0.036-0.045 0.303-0.73 0.823-0.206 0.082 0.626 1.569 3.011 2.467 3.226 1.016-1.17 2.367-2.276 3.915-3.226-1.339-1.339-2.297-3.189-2.882-5.558-3.356 2.141-6.005 4.586-7.332 6.924z" fill="url(#c)"/>
 <linearGradient id="d" transform="translate(0) scale(1) translate(0) scale(1) translate(-.00135) scale(1) translate(-5e-5) scale(1) translate(0 1e-6) scale(1) translate(-.0014 -.009133) scale(1) translate(1.28) scale(1.28)" x2="1" y1=".5" y2=".5" gradientTransform="scale(39.89 50)" gradientUnits="userSpaceOnUse">
  <stop stop-color="#5433ff" offset="0"/>
  <stop stop-color="#20bdff" offset=".517"/>
  <stop stop-color="#a5fecb" offset=".983"/>
 </linearGradient>
 <path transform="translate(0) scale(1) translate(0) scale(1) translate(-.00135) scale(1) translate(-5e-5) scale(1) matrix(1.28 0 0 1.28 1.279 -.009132)" d="m28.01 14.58a57 57 0 0 0-0.929-0.503l-8.126-13.2a0.24 0.24 0 0 0-0.296-0.092c-0.463 0.206-0.738 0.754-0.635 1.563l3.911 9.778c-6.268-0.862-12.44 0.887-17.29 5.25l2.676-0.412q-6.752 5.268-7.276 15.24-0.142 2.705 0.174 5.755l1.956-4.323q0.644 8.779 9.057 16.37l-1.029-3.397q5.295 4.163 14.62 2.265-15.39-3.461-14.46-16.6 0.047-0.666 0.137-1.357c0.3-3.749 3.29-7.543 8.557-10.76 0.865 3.454 2.785 6.163 5.602 7.285 0.316 0.126 0.636 0.498 0.712 0.83l0.649 2.811c0.077 0.332-0.011 0.834-0.197 1.12l-0.461 0.713c-0.185 0.286-0.074 0.61 0.248 0.723l2.951 1.032c0.322 0.113 0.83 0.081 1.135-0.072l1.366-0.682c0.305-0.153 0.321-0.428 0.035-0.615-0.501-0.328-1.326-0.981-1.52-1.178a2.4 2.4 0 0 1-0.549-1.046l-1.415-7.433c-0.064-0.334 0.136-0.492 0.446-0.351l4.537 2.062c0.31 0.141 0.562 0.533 0.562 0.874v1.132c0 0.17 0.137 0.287 0.305 0.26l1.346-0.212a0.256 0.256 0 0 1 0.305 0.261v1.235c0 0.17 0.135 0.281 0.302 0.248l1.453-0.291c0.168-0.033 0.303 0.078 0.303 0.249v1.338c0 0.17 0.113 0.229 0.253 0.131l2.021-1.423c0.279-0.196 0.476-0.63 0.439-0.969l-0.279-2.581c-0.037-0.339-0.299-0.464-0.586-0.28l-0.402 0.259a0.83 0.83 0 0 1-0.968-0.091l-3.36-3.178-0.823-3.808c-0.747-0.954-2.275-2.099-4.608-3.438-0.917-7.689-1.913-13.47-2.517-14.9a0.29 0.29 0 0 0-0.284-0.164c-0.419 0.051-1.124 0.499-1.322 1.313l-0.224 6.587 3.502 6.679zm-0.696 2.273a62 62 0 0 1 3.877 3.691c0.118 0.123 0.076 0.207-0.093 0.187-0.553-0.066-1.616-0.271-2.585-0.508a0.69 0.69 0 0 1-0.418-0.358 20 20 0 0 1-0.944-2.914c-0.039-0.166 0.035-0.21 0.163-0.098" fill="url(#d)" fill-rule="evenodd"/>
</svg>
