<svg xmlns="http://www.w3.org/2000/svg" fill="none" viewBox="0 0 64 64"><defs><linearGradient id="a" x1="30.21" x2="127.4" y1="105.3" y2="22.1" gradientUnits="userSpaceOnUse"><stop offset="0" stop-color="#fe0844"/><stop offset="1" stop-color="#feb302"/></linearGradient></defs><path fill="url(#a)" fill-rule="evenodd" d="M80 10H48a8 8 0 0 0-8 8v28a8 8 0 0 0 4.656 7.27c.61.281.91 1.035.554 1.605L28.8 81.125a1 1 0 0 1-.849.47h-10.33a6.625 6.625 0 0 0-6.625 6.625v23.19a6.625 6.625 0 0 0 6.625 6.625h29.81a6.625 6.625 0 0 0 6.626-6.625V88.22a6.625 6.625 0 0 0-6.626-6.625H44.46a1 1 0 0 1-.849-1.53l16-25.59a1 1 0 0 1 .849-.47h6.612a1 1 0 0 1 .849.47l1.86 2.976 14.14 22.62a1 1 0 0 1-.849 1.53h-2.506a6.625 6.625 0 0 0-6.626 6.625v23.19a6.625 6.625 0 0 0 6.626 6.625h29.81a6.625 6.625 0 0 0 6.624-6.625v-23.19a6.625 6.625 0 0 0-6.624-6.625h-10.8a1 1 0 0 1-.848-.47l-16.3-26.09c-.368-.589-.036-1.369.606-1.632A8 8 0 0 0 88 46.004v-28a8 8 0 0 0-8-8z" clip-rule="evenodd" transform="translate(-5.915 -5.924)scale(.5924)"/></svg>