<svg style="isolation:isolate" version="1.1" viewBox="0 0 64 64" xmlns="http://www.w3.org/2000/svg">
 <g transform="translate(0) scale(.99999)">
  <linearGradient id="a" transform="translate(-.001 -.001) scale(.9997) translate(-2.909 -2.909) scale(1.455)" x1=".04" x2=".949" y1=".108" y2=".878" gradientTransform="matrix(44 0 0 44 2 2)" gradientUnits="userSpaceOnUse">
   <stop stop-color="#ffe031" offset="0"/>
   <stop stop-color="#fa0075" offset="1"/>
  </linearGradient>
  <path transform="translate(-.001 -.001) scale(.9997) translate(-2.909 -2.909) scale(1.455)" d="M36.5 42h-2v-2h2zm3-.268C40.994 41.386 42 40.74 42 40h-2.5zm-8 .268h-2v-2h2zM6 11a2 2 0 0 1-4 0V9c0-3.863 3.137-7 7-7h30c3.863 0 7 3.137 7 7v23a2 2 0 0 1-4 0V11c0-2.76-2.24-5-5-5H11c-2.76 0-5 2.24-5 5m8.71 20.04c-.58.944-1.814 1.242-2.755.665a2 2 0 0 1-.665-2.745l11-18c.58-.944 1.814-1.242 2.755-.665a2 2 0 0 1 .665 2.745zM26.5 42H11c-2.76 0-5-2.24-5-5V20a2 2 0 0 0-4 0v19c0 3.863 3.137 7 7 7h30c3.863 0 7-3.137 7-7v-1a2 2 0 0 0-2-2H14a2 2 0 0 0 0 4h12.5zm-2-14h10a2 2 0 0 1 0 4h-10a2 2 0 0 1 0-4" fill="url(#a)" fill-rule="evenodd"/>
 </g>
</svg>
