<svg xmlns="http://www.w3.org/2000/svg" fill="none" viewBox="0 0 64 64"><defs><linearGradient id="a" x1="1" x2="0" y2="1"><stop offset="0" stop-color="#02aa93"/><stop offset="1" stop-color="#67ff80"/></linearGradient><linearGradient id="d" x2="0" y2="1"><stop offset="0" stop-color="#01ff01"/><stop offset="1" stop-color="#1bc100"/></linearGradient><linearGradient id="b" x1="1" x2="0" y1=".5" y2=".5"><stop offset="0" stop-color="#0061ff"/><stop offset="1" stop-color="#60efff"/></linearGradient></defs><path fill="url(#a)" d="M4.701.1a3.414 3.414 0 0 0-3.4 3.4v9c0 1.867 1.533 3.4 3.4 3.4h4.621a1.73 1.73 0 0 1-.428-1.14V14.1H4.701a1.59 1.59 0 0 1-1.602-1.6v-9c0-.895.707-1.6 1.602-1.6h6.576c.895 0 1.6.705 1.6 1.6v3.75a2.57 2.57 0 0 1 1.801.935V3.498c0-1.867-1.533-3.4-3.4-3.4z" transform="translate(-2.83 -.395)scale(4.025)"/><path fill="url(#b)" d="M7.951 3a3.75 3.75 0 0 0-3.75 3.75 3.73 3.73 0 0 0 1.111 2.666c.158.155.412.124.55-.049l.933-1.176.033-.047a.63.63 0 0 1 .842-.207l.537.313a.63.63 0 0 1 .23.855l-.334.848c-.103.262.09.545.37.504a3.8 3.8 0 0 0 1.66-.668 2.57 2.57 0 0 1 1.497-2.31 3.75 3.75 0 0 0-1.03-3.38A3.75 3.75 0 0 0 7.95 3zm0 3.125a.624.624 0 1 1-.001 1.248.624.624 0 0 1 .001-1.248m-.51 2.465a.36.36 0 0 0-.28.135l-2.153 2.713a.398.398 0 0 0 .111.594l.817.472a.4.4 0 0 0 .572-.199L7.78 9.082a.36.36 0 0 0-.338-.492z" transform="translate(-2.83 -.395)scale(4.025)"/><path fill="url(#d)" d="M12.7 12.28a.615.615 0 0 0-.413 1.078v.574a.413.413 0 0 0 .826 0v-.574a.615.615 0 0 0-.413-1.078m2.064-1.651v-.826a2.064 2.064 0 0 0-4.128 0v.826a1.24 1.24 0 0 0-1.238 1.238v2.89a1.24 1.24 0 0 0 1.238 1.238h4.128a1.24 1.24 0 0 0 1.238-1.238v-2.89a1.24 1.24 0 0 0-1.238-1.238m-3.303-.826a1.238 1.238 0 0 1 2.477 0v.826h-2.477zm3.715 4.954a.413.413 0 0 1-.413.413h-4.128a.413.413 0 0 1-.413-.413v-2.89a.413.413 0 0 1 .413-.412h4.128a.413.413 0 0 1 .413.412z" transform="translate(-2.83 -.395)scale(4.025)"/></svg>