<svg xmlns="http://www.w3.org/2000/svg" viewBox="0 0 64 64"><defs><linearGradient id="a" x2="0" y1="1"><stop offset="0" stop-color="#2ad454"/><stop offset="1" stop-color="#b3ff5a"/></linearGradient></defs><path fill="url(#a)" d="m21.58 9.844-1.062.703 2.703 4.057c-3.655 2.317-6.253 5.18-7.221 9.4h32c-.966-4.22-3.555-7.088-7.211-9.408l2.695-4.049-1.062-.703-2.742 4.107A16.45 16.45 0 0 0 32 11.998a16.5 16.5 0 0 0-7.69 1.945zM26.004 16a2 2 0 0 1 2 2 2 2 0 0 1-2 2 2 2 0 0 1-2-2 2 2 0 0 1 2-2m12 0a2 2 0 0 1 2 2 2 2 0 0 1-2 2 2 2 0 0 1-2-2 2 2 0 0 1 2-2M9.974 28a2 1.994 0 0 0-1.969 2.023v15.95a2 1.994 0 0 0 4 0v-15.95A2 1.994 0 0 0 9.974 28m6.031 0v24.5c0 1.939 1.585 3.5 3.555 3.5h4.443v-4h6v-4.264a8 8 0 0 1-6-7.736 8 8 0 0 1 8-8 8 8 0 0 1 8 8 8 8 0 0 1-6 7.744V52h6v4h4.445c1.97 0 3.555-1.561 3.555-3.5V28h-28zm37.97 0a2 1.994 0 0 0-1.969 2.023v15.95a2 1.994 0 0 0 4 0v-15.95A2 1.994 0 0 0 53.975 28m-21.97 8a4 4 0 0 0-4 4 4 4 0 0 0 4 4 4 4 0 0 0 4-4 4 4 0 0 0-4-4m0 1.328A2.666 2.666 0 0 1 34.677 40a2.666 2.666 0 0 1-2.672 2.672A2.666 2.666 0 0 1 29.333 40a2.7 2.7 0 0 1 .125-.781 1.33 1.33 0 0 0 1.219.781 1.333 1.333 0 0 0 1.328-1.328 1.33 1.33 0 0 0-.781-1.219 2.7 2.7 0 0 1 .781-.125" transform="translate(-10.67 -11.892)scale(1.333)"/></svg>