<svg xmlns="http://www.w3.org/2000/svg" viewBox="0 0 64 64"><defs><linearGradient id="a" x2="0" y1="1"><stop offset="0" stop-color="#11998e"/><stop offset="1" stop-color="#38ef7d"/></linearGradient></defs><path fill="url(#a)" d="M32-.006c-6.661 0-12.33.69-16.54 1.973-5.988.921-10.68 6.01-10.68 12.21v11.4c0 5.318 3.445 9.851 8.178 11.62v14c0 7.058 5.897 12.78 12.95 12.78h12.15c7.054 0 12.95-5.725 12.95-12.78v-14c4.727-1.779 8.154-6.319 8.154-11.62v-11.4c0-6.143-4.605-11.2-10.52-12.18-4.222-1.3-9.925-1.999-16.63-2zm.01 8.635h.004q.562 0 1.117.008c4.525.082 8.589.654 11.38 1.455 1.077.308 1.655.63 2.27.94-.614.308-1.191.629-2.268.937-3.023.864-7.531 1.46-12.51 1.46-4.972 0-9.48-.598-12.5-1.464-1.077-.308-1.655-.63-2.27-.938.614-.308 1.19-.629 2.268-.937 2.8-.801 6.874-1.373 11.41-1.453q.542-.008 1.092-.008zm-18.59 7.285c1.272.774 2.744 1.336 4.436 1.82 3.8 1.088 8.72 1.695 14.16 1.695 5.437 0 10.36-.606 14.16-1.693 1.66-.475 3.11-1.026 4.367-1.779v9.621c0 2.11-1.653 3.781-3.904 3.793h-29.29c-2.25-.013-3.922-1.695-3.922-3.793zm8.176 22.09h20.78v13.2c0 2.282-1.854 4.148-4.316 4.148H25.91c-2.462 0-4.318-1.866-4.318-4.148z" transform="translate(.02 .006)"/></svg>