<svg xmlns="http://www.w3.org/2000/svg" viewBox="0 0 64 64"><defs><linearGradient id="a" y1="1"><stop offset="0" stop-color="#00a660"/><stop offset="1" stop-color="#00ff69"/></linearGradient></defs><path fill="url(#a)" d="M41.71 4.28a5.75 5.75 0 0 0-4.061 1.684l-2.362 2.362.215-.129a2.1 2.1 0 0 1 .79-.281 2 2 0 0 1 .273-.024 2.1 2.1 0 0 1 .556.067 2 2 0 0 1 .262.082l.026.012a2 2 0 0 1 .228.109h.002a2 2 0 0 1 .233.15l.033.03a2 2 0 0 1 .18.152 2 2 0 0 1 .187.205l.002.002a2 2 0 0 1 .158.229 2.1 2.1 0 0 1 .28.781v.01a2.1 2.1 0 0 1 .01.549l-.016.082a2 2 0 0 1-.035.193l-.03.092a2 2 0 0 0 .065-.285 2.13 2.13 0 0 0-.282-1.414 2.13 2.13 0 0 0-1.864-1.035l.008-.008a2 2 0 0 0-.277.022 2.1 2.1 0 0 0-.785.28l-30.96 18.58A9.353 9.353 0 0 0 .598 38.085l5.526 14.74a9.36 9.36 0 0 0 13.952 4.501l1.807-1.203.877.877c1.754 1.754 4.136 2.741 6.617 2.741s4.863-.987 6.617-2.74l26.35-26.34a5.76 5.76 0 0 0 1.684-4.066v-12.95a9.362 9.362 0 0 0-9.36-9.36H41.716l-.006-.006zm0 4.268h12.95a5.09 5.09 0 0 1 5.092 5.093v12.95c0 .393-.156.765-.434 1.043l-26.34 26.35a5.09 5.09 0 0 1-7.198 0l-2.006-2.008.06.08a2 2 0 0 1 .102.133 2.13 2.13 0 0 1 .24 1.875 2.13 2.13 0 0 0-.243-1.871 2.1 2.1 0 0 0-.57-.576l.023.015a2 2 0 0 1 .156.116l-9.223-9.223a5.09 5.09 0 0 1 0-7.198l23.7-23.7.01-.01a2 2 0 0 0 .19-.198l-.038.047 2.479-2.479a1.48 1.48 0 0 1 1.047-.433zm-3.069 2.092a2 2 0 0 1-.053.166l-.002.004-.008.017-.033.07a2 2 0 0 0 .096-.257m-.115.299-.055.115-.004.008-.016.023-.03.05a2 2 0 0 0 .105-.196m-.162.283-.05.074a2 2 0 0 1-.083.106 2 2 0 0 0 .133-.18M22.804 20.8l-11.51 11.51v.002a9.35 9.35 0 0 0-2.74 6.613c0 2.481.986 4.863 2.74 6.617l7.502 7.502 2.166-1.446a2 2 0 0 1 .252-.139 2 2 0 0 1 .255-.105 2 2 0 0 0-.255.105 2 2 0 0 0-.247.143l-3.262 2.176a5.09 5.09 0 0 1-4.387.608 5.112 5.112 0 0 1-3.202-3.057L4.59 36.599a5.09 5.09 0 0 1 2.151-6.152v-.002l16.06-9.643zm-.784 30.44h.1a2 2 0 0 1 .19.002l.068.008a2 2 0 0 1 .21.033h.007l.007.002.026.008-.04-.01a2.13 2.13 0 0 0-1.081.057 2 2 0 0 1 .16-.045l.074-.02.112-.013a2 2 0 0 1 .168-.022zm.834.117.016.004.006.002.017.008a2 2 0 0 1 .147.065 2 2 0 0 0-.186-.079m.264.114.014.006.006.002.013.007a2 2 0 0 1 .137.084 2 2 0 0 0-.17-.1" transform="translate(-.005 .001)scale(.9996)"/><path fill="url(#a)" d="M41.39 19.73a4 4 0 0 0-.291.002q-.554.026-1.227.197a216 216 0 0 0-9.973 2.805c-2.444.751-3.392 2.193-3.133 4.736.32 3.133.755 6.255 1.19 9.375.256 1.837.514 3.683.941 5.484.356 1.498 1.372 2.095 2.902 1.982.495-.035 1-.087 1.475-.219 4.065-1.125 8.124-2.27 12.18-3.414.118-.032.221-.111.37-.189-.104-1.526-.203-3.022-.311-4.625-.478.134-.827.23-1.174.328-2.941.827-5.891 1.63-8.822 2.49-.842.248-1.168-.011-1.234-.834-.065-.791-.178-1.578-.287-2.516.448-.126.829-.229 1.205-.34 2.26-.668 4.539-1.279 6.773-2.025 2.05-.683 2.939-1.91 2.809-4.053-.13-2.144-.38-4.298-.801-6.402-.372-1.859-1.176-2.739-2.596-2.783zm-3.523 5.31c.286-.002.457.16.506.564.134 1.12.33 2.234.406 3.357.02.293-.246.805-.486.883-1.574.51-3.18.926-4.89 1.406-.188-1.462-.4-2.772-.491-4.092-.02-.294.329-.801.613-.898 1.32-.448 2.676-.778 4.016-1.166q.181-.053.326-.055z" transform="translate(-.005 .001)scale(.9996)"/><path fill="url(#a)" d="M52.86 11.84a3.612 3.612 0 1 0 .002 7.224 3.612 3.612 0 0 0-.002-7.224" transform="translate(-.005 .001)scale(.9996)"/></svg>