<svg version="1.1" viewBox="0 0 64 64" xmlns="http://www.w3.org/2000/svg">
 <defs>
  <linearGradient id="a" x1="1" x2="0" y2="1">
   <stop stop-color="#00fffa" offset="0"/>
   <stop stop-color="#0078ff" offset="1"/>
  </linearGradient>
 </defs>
 <path transform="translate(0) scale(1) translate(0) scale(1) translate(2e-4 .007201) scale(1) translate(-2e-4 3e-4) scale(1)" d="m17.45 14.54c-4.849 0-8.968 1.696-12.36 5.09-3.395 3.394-5.09 7.514-5.09 12.36s1.696 8.968 5.09 12.36c3.394 3.395 7.514 5.092 12.36 5.092 3.2 0 6.136-0.7985 8.801-2.398 2.667-1.6 4.771-3.712 6.324-6.33h8.148v2.91c0.0019 1.602 0.5707 2.97 1.709 4.107 1.138 1.138 2.508 1.709 4.107 1.709h5.818c1.602 0.0019 2.97-0.5687 4.107-1.709 1.138-1.14 1.711-2.508 1.711-4.107v-2.91c1.602 0.0019 2.97-0.5687 4.107-1.709 1.138-1.14 1.711-2.508 1.711-4.107v-5.818c0.0019-1.598-0.5706-2.967-1.711-4.107s-2.508-1.711-4.107-1.711h-25.6c-1.551-2.618-3.657-4.73-6.324-6.33s-5.601-2.396-8.801-2.396zm0 5.818c3.2 0.0019 5.772 0.9856 7.709 2.949 1.939 1.963 3.101 3.886 3.488 5.777h29.53v5.818h-5.818v8.727h-5.818v-8.727h-17.89c-0.3878 1.893-1.55 3.822-3.488 5.783-1.939 1.963-4.509 2.943-7.709 2.943-3.2 0.0019-5.937-1.141-8.215-3.422-2.279-2.281-3.42-5.018-3.42-8.215s1.14-5.934 3.42-8.215c2.279-2.281 5.015-3.42 8.215-3.42zm0 5.818c-1.604-0.0039-2.973 0.5649-4.107 1.709s-1.703 2.514-1.709 4.107 0.5628 2.961 1.709 4.107 2.516 1.719 4.107 1.711c1.6 0 2.967-0.5726 4.107-1.711 1.14-1.138 1.713-2.506 1.711-4.107-2e-3 -1.602-0.5744-2.97-1.711-4.107-1.136-1.136-2.504-1.705-4.107-1.709z" fill="url(#a)"/>
</svg>
