<svg xmlns="http://www.w3.org/2000/svg" viewBox="0 0 64 64"><linearGradient id="c" x1="7.17" x2="39.47" y1="24" y2="24" gradientUnits="userSpaceOnUse" transform="translate(-2.093 -1.279)scale(1.388)"><stop offset="0" stop-color="#9000f6"/><stop offset="1" stop-color="#ff00d9"/></linearGradient><linearGradient id="a" x1="1.508" x2="23.16" y1="23.98" y2="23.98" gradientUnits="userSpaceOnUse" transform="translate(-2.093 -1.279)scale(1.388)"><stop offset="0" stop-color="#ffbf00"/><stop offset="1" stop-color="#fc0e0e"/></linearGradient><path fill="url(#a)" fill-rule="evenodd" d="M21.49 4.005a19.94 19.94 0 0 0-19.98 19.98 19.94 19.94 0 0 0 19.98 19.98c.566 0 1.106-.058 1.665-.104-10.28-.853-18.32-9.38-18.32-19.88s8.04-19.03 18.32-19.88c-.56-.051-1.099-.11-1.665-.11" transform="translate(-2.093 -1.279)scale(1.388)"/><path fill="none" stroke="url(#c)" stroke-linecap="round" stroke-linejoin="round" stroke-width="1.5" d="M25.895 5.732A18.23 18.23 0 0 0 8.209 19.457c.167-.629.356-1.248.58-1.852h6.047a12.79 12.79 0 0 1 11.057-6.392c3.39.003 6.64 1.352 9.035 3.75l3.892-3.89a18.2 18.2 0 0 0-12.925-5.34zm-.002 9.133A9.134 9.134 0 0 0 16.758 24a9.134 9.134 0 0 0 9.135 9.135 9.13 9.13 0 0 0 6.453-2.682l-3.227-3.226a4.57 4.57 0 0 1-3.226 1.34 4.567 4.567 0 1 1 0-9.133 4.57 4.57 0 0 1 3.226 1.34l3.227-3.227a9.13 9.13 0 0 0-6.453-2.682m-17.885 5.48a18 18 0 0 0-.276 1.829h5.516q.134-.93.4-1.828zm-.335 4.569q.046.927.18 1.826h5.56a13 13 0 0 1-.263-1.826zm.288 2.53c.024.126.473 1.91.5 2.036-.027-.125-.476-1.91-.5-2.037zm.5 2.036a18.225 18.225 0 0 0 17.434 12.788c4.847.011 9.5-1.91 12.925-5.34l-3.892-3.89a12.79 12.79 0 0 1-9.035 3.75 12.79 12.79 0 0 1-11.538-7.308z" transform="translate(-2.093 -1.279)scale(1.388)"/><g fill="#ff7300" transform="translate(-2.093 -1.279)scale(1.388)"><rect width="1.827" height="7.307" x="34.84" y="20.35" rx=".457"/><rect width="1.827" height="7.307" x="43.06" y="20.35" rx=".457"/><g transform="rotate(90)"><rect width="1.827" height="7.307" x="23.09" y="-39.41" rx=".457"/><rect width="1.827" height="7.307" x="23.09" y="-47.63" rx=".457"/></g></g></svg>