<svg xmlns="http://www.w3.org/2000/svg" xmlns:xlink="http://www.w3.org/1999/xlink" viewBox="0 0 64 64"><defs><linearGradient id="a" x2="0" y2="1"><stop offset="0" stop-color="#00d4aa"/><stop offset="1" stop-color="#2a7fff"/></linearGradient><linearGradient xlink:href="#a" id="b" x1="269.4" x2="254.4" y1="343.2" y2="358.1" gradientTransform="matrix(3.947 0 0 3.619 -1002 -1232)" gradientUnits="userSpaceOnUse"/><linearGradient xlink:href="#a" id="d" x1="11.21" x2="13.62" y1="4.791" y2="4.791" gradientTransform="translate(66.58 45.21)scale(-4.092)" gradientUnits="userSpaceOnUse"/><linearGradient id="e" x1="11.61" x2="13.21" y1="4.791" y2="4.791" gradientTransform="translate(69.12 46.19)scale(-4.297)" gradientUnits="userSpaceOnUse"><stop offset="0" stop-opacity=".235"/><stop offset="1" stop-opacity="0"/></linearGradient><linearGradient xlink:href="#a" id="h" x1="3.187" x2="12.81" y1="8" y2="8" gradientTransform="matrix(-3.693 0 0 -3.919 61.58 45.5)" gradientUnits="userSpaceOnUse"/><linearGradient xlink:href="#a" id="c" x1="2.385" x2="4.791" y1="4.791" y2="4.791" gradientTransform="translate(62.96 45.21)scale(-4.092)" gradientUnits="userSpaceOnUse"/><linearGradient id="j" x1="15.41" x2="2.27" y1="13.81" y2=".666" gradientTransform="matrix(1.771 0 0 2.163 16.95 26.83)" gradientUnits="userSpaceOnUse"><stop offset="0" stop-color="#ff0002"/><stop offset="1" stop-color="#ff0050"/></linearGradient></defs><path fill="url(#b)" d="M17.21 9.865c-4.647.056-8.047-.118-10.83 1.489-1.39.803-2.486 2.164-3.094 3.861s-.83 3.713-.83 6.257v30.95c0 2.544.222 4.559.83 6.257S4.99 61.737 6.38 62.54c2.78 1.606 6.18 1.433 10.83 1.489H46.8c4.647-.056 8.047.118 10.83-1.489 1.39-.803 2.486-2.164 3.094-3.861s.829-3.713.829-6.257v-30.95c0-2.544-.221-4.559-.83-6.257-.608-1.697-1.704-3.058-3.094-3.861-2.78-1.607-6.18-1.433-10.83-1.489H17.22zm.022 3.869h29.55c4.648.057 7.708.231 9.06 1.013.676.392 1.067.823 1.428 1.829.36 1.006.591 2.604.591 4.896v30.95c0 2.292-.231 3.891-.591 4.896-.36 1.006-.751 1.437-1.43 1.829-1.35.781-4.411.956-9.058 1.013h-29.55c-4.648-.057-7.715-.231-9.066-1.013-.678-.391-1.061-.823-1.42-1.829-.36-1.006-.592-2.604-.592-4.896v-30.95c0-2.292.231-3.891.592-4.896.36-1.006.743-1.437 1.42-1.829 1.35-.781 4.419-.956 9.066-1.013" color="#d5c289" transform="translate(.006 -.008)scale(.9997)"/><path fill="url(#c)" d="M48.28 30.53c2.727 0 4.924-2.197 4.924-4.924s-2.197-4.924-4.924-4.924-4.924 2.197-4.924 4.924 2.197 4.924 4.924 4.924m0-1.641a3.27 3.27 0 0 1-3.283-3.283 3.27 3.27 0 0 1 3.283-3.283 3.27 3.27 0 0 1 3.283 3.283 3.27 3.27 0 0 1-3.283 3.283" transform="translate(.006 -.008)scale(.9997)"/><path fill="url(#g)" fill-opacity=".235" d="M48.28 29.05a3.45 3.45 0 0 1-3.447-3.447c0-1.9 1.547-3.447 3.447-3.447s3.447 1.546 3.447 3.447c0 1.9-1.547 3.447-3.447 3.447" transform="translate(.006 -.008)scale(.9997)"/><path fill="url(#d)" d="M15.78 30.53c2.727 0 4.924-2.197 4.924-4.924s-2.197-4.924-4.924-4.924-4.924 2.197-4.924 4.924 2.197 4.924 4.924 4.924m0-1.641a3.27 3.27 0 0 1-3.283-3.283 3.27 3.27 0 0 1 3.283-3.283 3.27 3.27 0 0 1 3.283 3.283 3.27 3.27 0 0 1-3.283 3.283" transform="translate(.006 -.008)scale(.9997)"/><path fill="url(#e)" fill-opacity=".235" d="M15.78 29.05a3.45 3.45 0 0 1-3.447-3.447c0-1.9 1.547-3.447 3.447-3.447s3.447 1.546 3.447 3.447c0 1.9-1.547 3.447-3.447 3.447" transform="translate(.006 -.008)scale(.9997)"/><path fill="url(#h)" d="M48.33 28.3c.817 0 1.481-.706 1.481-1.572v-7.86c0-10.45-7.932-18.86-17.77-18.86-9.84 0-17.77 8.417-17.77 18.86v7.86c0 .867.665 1.572 1.481 1.572s1.481-.706 1.481-1.572v-7.86c0-8.714 6.601-15.72 14.81-15.72 8.211 0 14.81 7.006 14.81 15.72v7.86c0 .867.665 1.572 1.481 1.572z" transform="translate(.006 -.008)scale(.9997)"/><path fill="url(#j)" d="M31.72 28.27c-.19 0-1.209.4-1.24.486v.004c-.04.116.094.1.606-.074.46-.156.856-.416.634-.416m8.645.25c-.068-.098-.13.142-.139.62h-.004c-.007.46.01.595.074.546.118-.093.2-.643.139-.953a.6.6 0 0 0-.07-.213m-3.811.12a1.4 1.4 0 0 0-.592.157c-.284.16-.283.158-1.05.037a20 20 0 0 0-1.674-.17c-.789-.04-.907-.03-.907.064 0 .076-.121.138-.374.19-.206.042-.51.141-.676.222-.165.08-.318.13-.342.106-.021-.019.003-.041.06-.041.085-.003.088-.013-.004-.074-.093-.06-.087-.084.037-.06.18.016.407-.07.407-.158 0-.08-.397-.09-.652-.023-.102.026-.158.077-.135.134.026.064-.048.108-.236.139a9 9 0 0 0-.536.106c-.251.06-.254.056-.093-.05.09-.062.167-.136.167-.172 0-.118-.23-.061-.75.19-.286.137-.576.236-.647.213-.256-.078-3.026 2.212-3.613 2.989-.137.18-.264.282-.342.259-.083-.017-.17.061-.25.213-.069.13-.334.557-.588.948-.577.89-.764 1.238-.901 1.698-.06.199-.152.46-.209.578-.054.119-.151.555-.213.972-.108.76-.221 1.09-.342 1.018-.035-.015-.083-.001-.102.027-.1.154-.28 1.621-.337 2.705-.06 1.144-.054 1.257.083 1.6.08.202.274.852.43 1.44.623 2.36.84 3.048 1.24 3.945 1.201 2.691 3.145 4.846 6.12 6.786 1.355.884 3.541 1.75 5.065 2.002v-.018c.388.054 1.064.097 2.06.074 1.261-.015 1.59-.039 2.205-.18.467-.11.722-.203.722-.264 0-.085-.095-.091-.389-.065-1.985.173-2.486.114-3.484-.421-.712-.384-.92-.45-.721-.217.135.156-.09.145-.63-.033-.236-.078-.508-.143-.605-.143-.152 0-.169-.016-.102-.134.125-.223.091-.292-.148-.292-.244 0-.53-.12-1-.425-.234-.161-.338-.184-.504-.14-.182.05-.256.018-.555-.24-.471-.41-.599-.56-.601-.708-.002-.132-.152-.162-.268-.055-.045.04-.35-.172-.805-.55-.405-.34-.695-.615-.648-.639.156-.05.088-.215-.12-.291-.334-.123-.482-.27-.43-.426.035-.109-.038-.207-.324-.44-.206-.162-.422-.372-.481-.457-.102-.15-.095-.153.11-.125.32.045.269-.083-.212-.569-.462-.467-.763-.633-1.059-.578-.135.026-.262-.015-.43-.153-.336-.27-.7-.797-.583-.837.062-.021.008-.117-.148-.273-.17-.17-.26-.354-.315-.629-.047-.23-.15-.458-.254-.564-.448-.46-.68-1.202-1.082-3.417-.33-1.82-.33-1.778-.028-3.071.209-.888.221-1.055.07-1.055-.145 0-.15.024.115-.62.595-1.442 1.7-3.018 2.331-3.312.287-.133.481-.356.481-.56 0-.057-.051-.06-.115-.037-.09.036-.086.006.028-.148.288-.384.653-.653 1.212-.897.331-.145.604-.315.656-.408.081-.144.076-.158-.074-.12-.09.024-.153.052-.138.028l.606-.532c.528-.467 1.347-.99 1.1-.703-.054.064-.067.129-.027.152.038.022.112-.007.162-.064.109-.126.75-.42 1.406-.643 1.343-.455 3.228-.567 4.339-.26 1.305.363 2.683 1.183 3.78 2.244.762.736 1.252 1.415 1.53 2.118.084.208.178.392.214.416.113.069.607 2.014.657 2.595.035.438.072.569.157.569.092 0 .104.106.083.606-.024.561-.041.624-.25.833-.215.215-.223.244-.176.675l.051.448-.448.685c-.403.611-1.183 1.564-.851 1.041.1-.16.104-.199.018-.199-.059 0-.248.21-.42.463-.313.457-.578.696-1.009.906-.123.06-.408.208-.633.329-.562.298-1.171.435-1.924.435-1.452 0-2.985-.694-3.932-1.785-.394-.455-.963-1.47-.963-1.721 0-.074-.035-.121-.101-.097-.079.028-.124-.088-.185-.49-.11-.702-.103-.9.037-1.606.208-1.054.791-1.875 1.846-2.586.743-.502 1.254-.638 2.3-.638.743.005.954.032 1.28.162.216.085.432.155.482.152.208-.004-.483-.439-1.027-.647-.481-.185-.727-.233-1.304-.26-1.196-.051-2.116.302-3.002 1.153-.502.48-.99 1.226-.99 1.508 0 .064-.07.221-.153.351-.329.512-.522 2.141-.342 2.881.49 2.026 1.48 3.09 3.848 4.15.75.333.966.528.407.365-.514-.15-1.225-.443-1.457-.602-.256-.175-.305-.181-.305-.041 0 .073-.136.025-.458-.171-.251-.152-.487-.265-.523-.241-.19.114 1.051.936 1.887 1.253 1.232.457 2.627.65 3.668.481.614-.1 1.647-.536 1.531-.648-.05-.03-.145-.029-.287.024-.357.13-1.148.271-1.818.323-.511.04-.722.021-1.078-.083l-.439-.13.893-.046c.987-.054 1.575-.168 2.45-.476 1.488-.521 2.798-1.63 3.628-3.057.308-.53.407-.624.407-.37 0 .2.18.134.213-.079.014-.092-.018-.279-.065-.42-.066-.195-.066-.33 0-.565.078-.28.094-.296.208-.204.28.228.314.218.268-.102-.023-.168.008-.572.075-.902.063-.329.122-.792.129-1.03l.014-.435.041.407c.045.421.175.56.218.231.024-.175-.062-.624-.171-.925-.052-.135-.05-.135.065 0 .18.21.206.1.083-.352-.08-.298-.098-.582-.065-1.008.047-.577.009-.686-.176-.509-.118.112-.332-.32-.342-.684-.005-.2-.053-.322-.157-.403a1.5 1.5 0 0 1-.292-.351l-.143-.24.208.161c.116.088.226.149.245.125.02-.017-.064-.203-.185-.412a6 6 0 0 1-.319-.624c-.166-.422-.528-.72-.606-.495-.014.04-.1-.063-.19-.231l-.162-.31.167-.023a.44.44 0 0 0 .25-.125c.068-.085.156-.016.49.38.225.264.634.815.911 1.225.278.41.516.711.532.666.036-.104-.117-.392-.657-1.24-.239-.374-.434-.72-.434-.768 0-.047-.054-.184-.12-.31l-.121-.226.157.134c.277.237.262.062-.032-.328-1.234-1.646-2.903-2.82-4.944-3.474-.633-.209-.793-.213-.63-.023.086.101.07.101-.133 0a1.2 1.2 0 0 1-.324-.227c-.074-.083-.25-.115-.449-.107zm-3.803.305c.054-.026.12-.023.143 0v.005c.024.014-.019.042-.097.042-.087-.003-.105-.023-.046-.047m.513.065a2.4 2.4 0 0 1 .592 0c.142.005.008.028-.314.028-.327 0-.453-.004-.278-.028m1.073.074a.5.5 0 0 1 .26 0c.07.01.012.033-.13.033s-.2-.01-.13-.033m-1.795.023c.08-.019.13-.008.107.028-.024.033-.094.065-.153.065-.151 0-.126-.048.046-.093m2.355.051c.055-.026.12-.023.144 0v.005c.023.014-.02.041-.097.041-.088-.002-.106-.022-.047-.046m-2.803.06h.26l-.297.056v.004a4 4 0 0 0-.448.102c-.095.036-.08.011.042-.06.101-.06.302-.102.444-.102zm-1.873.292c.017.014-.208.104-.495.194-.357.116-.544.142-.596.093-.053-.048-.191-.04-.435.041a4 4 0 0 0-.574.24l-.213.121.2-.153c.288-.225.964-.442 1.035-.333.04.064.177.047.55-.074.273-.085.511-.153.528-.13zm.972.009c.016.016-.15.077-.366.139-.43.12-.435.126-.435.083s.765-.255.8-.222zm-3.335.68c.021 0-.024.06-.097.139-.074.078-.15.143-.171.143s.023-.065.097-.143c.073-.078.15-.14.17-.14m-.875.712c.004.004-.021.032-.064.084-.097.123-.162.158-.162.101 0-.014.058-.07.13-.124q.09-.067.096-.06m-5.786 6.57c-.187-.008-.19.004-.185.407.003.23.028.416.056.416.135 0 .364-.4.342-.601-.016-.18-.054-.222-.212-.222m17.71.975c-.068-.014-.128.039-.161.167-.034.125 0 .244.115.393.28.365.456.147.255-.314-.066-.15-.14-.231-.209-.246m4.885.051c.024.052.02.115-.004.139-.024.026-.044-.017-.042-.093.005-.082.023-.103.047-.046zm-22.72 1.24c-.066-.021-.092.088-.092.398 0 .234.023.475.046.536.024.062.073.111.111.111.11 0 .047-1.01-.065-1.045m18 .592c-.035-.021-.087.139-.115.352-.03.23-.111.456-.199.55l-.148.162.032-.176c.02-.1.057-.286.088-.411.083-.353-.063-.278-.208.106-.167.444-.153.574.042.652.326.128.407.089.495-.24.1-.377.106-.94.013-.995m-1.434 2.202c-.014-.014-.173.038-.356.116a4.4 4.4 0 0 1-.684.217c-.339.07-.47.216-.264.296h.005c.05.017.274.042.5.042.404.005.408.003.619-.32.116-.177.197-.327.18-.35m-5.999 1.605c-.158 0-.032.202.361.583.233.226.433.412.444.412s.019-.038.019-.088c0-.104-.729-.907-.824-.907m-.226.708c-.031 0-.056.09-.056.199 0 .204.276.476 1.031.994v.005c.197.128.35.195.366.148.028-.08-1.235-1.346-1.342-1.346zm1.762.847.203.115c.112.066.204.124.204.148 0 .057-.06.027-.231-.115z" transform="translate(.006 -.008)scale(.9997)"/></svg>