<svg xmlns="http://www.w3.org/2000/svg" viewBox="0 0 64 64"><defs><linearGradient id="a" x1="1" x2="0" y1="1"><stop offset="0" stop-color="#fea51d"/><stop offset="1" stop-color="#ff0a76"/></linearGradient><linearGradient id="b" y1=".5" y2=".5"><stop offset="0" stop-color="#ffa800"/><stop offset="1" stop-color="#fff737"/></linearGradient><linearGradient id="d" y1="1"><stop offset="0" stop-color="#b2fefa"/><stop offset=".983" stop-color="#0ed2f7"/></linearGradient></defs><path fill="url(#a)" d="M33.51 11c-1.406.024-3.088.609-4.184 2.85-2.144 4.384 1.908 7.24 1.908 7.24 1.006-3.579 2.492-6.972 4.814-9.576 0 0-1.133-.538-2.539-.514zm6.098 1.977c-2.138 1.025-5.062 5.445-4.94 9.332 2.088 1.063 4.236 2.336 1.234 11.54-3.038 9.316-4.635 8.31-6.543 8.227-1.435 1.897-1.978 9.346-.494 10.56 0 0 9.068 4.427 14.44-17.56 5.349-21.87-3.703-22.1-3.703-22.1zm-14.27 28.31c-1.511-.022-4.51.503-4.328 5.062.242 6.082 4.512 5.699 4.512 5.699q-1.841-6.026.658-10.69s-.338-.067-.842-.074z" transform="translate(-15.097 -16.678)scale(1.521)"/><path fill="url(#b)" d="M23.83 20.93a1.1 1.1 0 0 0-.459.11 1.3 1.3 0 0 0-.451.39c-.426.564-.57 1.25-.772 2.078s-.395 1.763-.613 2.594-.49 1.562-.709 1.881c-.102.148-.182.24-.236.295-.084-.058-.211-.15-.434-.21a1.15 1.15 0 0 0-.818.13c-.465.293-.63.687-.91 1.363-.641 1.544-.642 3.866-.772 5.74-.056.803-.146 1.41-.244 1.846-.03-.051-.03-.032-.06-.094a11 11 0 0 1-.526-1.35c-.358-1.096-.719-2.512-1.084-3.93s-.732-2.837-1.131-3.988c-.2-.576-.404-1.084-.639-1.51s-.476-.805-.953-1.033c-.392-.187-.96-.155-1.31.096-.35.25-.521.579-.662.927-.282.697-.419 1.571-.533 2.541-.229 1.94-.33 4.277-.569 5.301a.75.75 0 0 0 .561.9.75.75 0 0 0 .9-.56c.32-1.373.38-3.623.596-5.465.109-.92.266-1.735.436-2.154.025-.062.02-.04.043-.08.052.057.074.062.177.25.167.302.352.748.536 1.277.366 1.06.733 2.458 1.098 3.873.364 1.415.725 2.847 1.109 4.022.191.587.387 1.108.605 1.55.218.44.431.815.85 1.09.172.112.377.207.623.228s.518-.058.71-.19c.385-.264.507-.605.614-.945.213-.68.283-1.533.35-2.496.134-1.927.258-4.297.662-5.27.181-.438.244-.49.252-.52.182.112.337.268.709.215.534-.076.905-.443 1.287-.996.442-.64.69-1.463.923-2.352s.428-1.835.62-2.62c.108-.443.183-.58.287-.862.212.49.449 1.196.625 2.275.209 1.284.375 2.837.545 4.42.339 3.165.607 6.359 1.574 8.16.228.425.434.743.798.973s.987.182 1.3-.055c.624-.473.747-1.084.988-1.756.24-.671.474-1.403.718-1.92.122-.259.25-.459.338-.557a1 1 0 0 1 .069-.068c.074.003.175.055.375.314.22.287.457.759.677 1.238.22.48.412.957.7 1.367.143.206.31.428.658.563s.838.01 1.096-.21c.414-.354.6-.856.677-1.337.079-.482.074-.989.065-1.555-.019-1.132-.075-2.505.215-4.137.322-1.815.34-3.88.482-5.215.038-.358.073-.409.127-.617.224.313.55.892.873 1.832.374 1.087.752 2.44 1.141 3.818s.79 2.779 1.225 3.99.868 2.227 1.516 2.916c.298.316.577.577 1.053.632.238.028.515-.04.71-.168.193-.128.313-.289.4-.439.345-.602.374-1.24.476-1.967s.216-1.503.402-2.06.387-.781.582-.832c.756-.195 1.652.198 2.61.873.957.675 1.843 1.558 2.772 2.041a.75.75 0 0 0 1.01-.32.75.75 0 0 0-.318-1.01c-.55-.286-1.521-1.174-2.602-1.936s-2.402-1.473-3.848-1.1c-.905.233-1.374 1.04-1.631 1.807-.256.765-.362 1.606-.463 2.328-.063.447-.118.617-.181.885-.317-.411-.708-1.13-1.076-2.156-.41-1.14-.804-2.518-1.191-3.893-.388-1.374-.77-2.744-1.168-3.898-.398-1.155-.747-2.08-1.377-2.7-.265-.26-.534-.478-.948-.537s-.872.201-1.072.477c-.4.552-.435 1.136-.513 1.873-.158 1.475-.179 3.489-.467 5.113-.321 1.808-.255 3.325-.237 4.424.008.474-.009.822-.04 1.109-.1-.203-.175-.331-.294-.59-.228-.498-.484-1.046-.85-1.523s-.945-.949-1.69-.898c-.454.03-.816.288-1.061.562s-.42.586-.576.918c-.314.665-.55 1.426-.776 2.055-.146.41-.216.513-.312.694-.024-.038-.017-.015-.041-.06-.624-1.164-1.065-4.447-1.404-7.61-.17-1.58-.335-3.153-.555-4.502s-.455-2.453-.947-3.252c-.226-.366-.451-.688-.934-.82a1 1 0 0 0-.287-.033z" transform="translate(-15.097 -16.678)scale(1.521)"/><path fill="url(#d)" d="M48.99 31a3 3 0 0 0-2.994 3.004A3 3 0 0 0 48.998 37a3 3 0 0 0 2.998-3v-.01A3 3 0 0 0 48.99 31z" transform="translate(-15.097 -16.678)scale(1.521)"/></svg>