<svg xmlns="http://www.w3.org/2000/svg" viewBox="0 0 64 64"><defs><linearGradient id="a" x1="1" x2="0" y2="1"><stop offset="0" stop-color="#00a660"/><stop offset="1" stop-color="#00ff69"/></linearGradient></defs><path fill="url(#a)" d="M32 11c-7.732 0-14 6.268-14 14v4h-1.715c-.757 0-1.456.21-2.072.55l13.37 13.33c2.189 2.184 3.95 2.057 5.482 1.548 1.533-.51 2.598-1.547 2.598-1.547l13.62-13.58a4.3 4.3 0 0 0-1.568-.303H46v-4c0-7.732-6.268-14-14-14zm0 4c5.57 0 10 4.429 10 10v4H22v-4c0-5.571 4.43-10 10-10m19.44 16.19L40.33 42.27l9.164 8.342a4.26 4.26 0 0 0 2.514-3.887v-13.45c0-.764-.215-1.47-.564-2.09zm-39.12.5a4.3 4.3 0 0 0-.31 1.59v13.45c0 1.659.947 3.076 2.325 3.785l8.828-8.006zm25.99 12.6-.62.617s-1.457 1.482-3.712 2.232-5.546.623-8.408-2.232l-.387-.385-6.9 6.482h27.16z" transform="translate(-19.205 -17.593)scale(1.59968)"/></svg>