<svg xmlns="http://www.w3.org/2000/svg" viewBox="0 0 64 64"><defs><linearGradient id="a" x2="0" y1="1"><stop offset="0" stop-color="#d300dc"/><stop offset="1" stop-color="#8219ff"/></linearGradient></defs><path fill="url(#a)" d="M49.09 2.443c-1.924.04-3.508.387-5.072.854-.022.001-.048-.012-.07-.01l.004.02c-.192.057-.433.04-.623.105a2.5 2.5 0 0 0-1.643 2.852c-3.504-.398-7.211-.91-10.92-1.424-2.432-.338-4.74-.606-6.79-.653-2.05-.046-3.836-.007-5.561.948-2.341 1.294-3.54 3.69-3.54 5.875 0 3.588 2.349 6.828 5.645 10.18 1.105 1.122 2.553 2.344 3.984 3.53-6.077-.22-11.97.75-16.85 3.142-4.013 1.964-6.79 5.694-6.203 9.79.37 2.6 1.799 4.89 4.168 7.24 1.957 1.942 3.88 3.339 7.346 5.382l.007.006c4.99 2.914 11.77 5.058 18.97 6.557h.002c.534.11 4.402.889 8.91 1.225 4.508.335 9.53.618 13.18-1.941a2.5 2.5 0 0 0 .61-3.482 2.5 2.5 0 0 0-3.482-.61c-1.178.827-5.791 1.355-9.93 1.047a73 73 0 0 1-8.266-1.135h-.002c-6.863-1.429-13.28-3.537-17.46-5.979h-.002c-3.31-1.952-4.683-2.96-6.354-4.617-1.996-1.98-2.543-3.014-2.74-4.398v-.002c-.198-1.385.816-3.302 3.45-4.592 5.846-2.862 14.18-3.58 22.14-1.693.475.113.82.197 1.255.252.217.028.383.116 1.06-.027.339-.072 1.002-.21 1.582-1.041.58-.832.447-1.995.24-2.471-.414-.95-.667-.937-.856-1.09a6 6 0 0 0-.525-.379 33 33 0 0 0-1.338-.822c-2.526-1.5-6.98-5.02-9.322-7.398-2.786-2.83-4.207-6.116-4.207-6.668 0-.548.141-1.047.957-1.498l.002-.002c.12-.067 1.34-.363 3.03-.324s3.857.278 6.212.605c4.71.654 10.14 1.652 14.74 1.91l.012.002c1.396.072 2.618.182 3.988-.119.685-.15 1.493-.438 2.186-1.15s1.039-1.793 1.035-2.672v-.004c0-.067-.049-.103-.053-.168.13.019.524.012.62.031.522.108.537.153 1.044.39l.002.003c.821.385 1.637 1.325 1.604 2.422a2.5 2.5 0 0 0 2.422 2.576 2.5 2.5 0 0 0 2.576-2.422c.104-3.378-2.039-5.957-4.475-7.102l-.002-.002c-.302-.142-1.09-.54-2.16-.762s-2.437-.325-4.53-.281z" transform="translate(-1.491 -.989)scale(1.08667)"/><path fill="url(#a)" d="M46.02 15.96c-1.587.079-3.158.5-4.328 1.945h-.002c-1.514 1.874-1.237 4.478-.346 6.289s2.283 3.387 3.828 4.906c.977.96 2.02 1.788 3.055 2.654-1.268.008-2.44-.03-3.799.066-2.41.172-4.848.509-7.035 1.297-2.187.79-4.344 2.148-5.246 4.562a3 3 0 0 0-.058.178c-.396 1.361-.1 2.782.467 3.85s1.36 1.903 2.25 2.646c1.778 1.487 3.998 2.616 6.184 3.41l.035.012c3.229 1.12 7.373 2.469 12.53 2.824a2.5 2.5 0 0 0 2.666-2.322 2.5 2.5 0 0 0-2.322-2.666c-4.464-.308-8.062-1.461-11.2-2.551-1.732-.63-3.567-1.613-4.676-2.541-.556-.465-.913-.914-1.041-1.156l-.037-.067c.234-.457.816-.994 2.152-1.477 1.459-.526 3.538-.86 5.693-1.014 2.156-.153 4.394-.144 6.285-.107 1.89.037 3.283.126 4.436.033a2.5 2.5 0 0 0 1.36-4.445c-1.895-1.515-5.507-4.122-8.185-6.754-1.34-1.316-2.407-2.65-2.848-3.547-.44-.894-.368-.795-.252-.937a.2.2 0 0 0-.036.054v.002l-.002.002v.002h.002v.004h.002v.002h.002l.002.002c.07.022.602-.211 1.81-.154 1.503.072 3.655.457 6.027.908a2.5 2.5 0 0 0 2.924-1.988 2.5 2.5 0 0 0-1.988-2.924c-2.384-.453-4.652-.891-6.725-.99a16 16 0 0 0-1.578-.01z" transform="translate(-1.491 -.989)scale(1.08667)"/></svg>