<svg xmlns="http://www.w3.org/2000/svg" viewBox="0 0 64 64"><defs><linearGradient id="a" x2="0" y2="1"><stop offset="0" stop-color="#2ad454"/><stop offset="1" stop-color="#b3ff5a"/></linearGradient></defs><path fill="url(#a)" d="m20.28 13-4.045 2.074-3.234 2.426v4.461l11 15.04 11-15.04V17.5l-3.234-2.426L27.722 13zm.22.96h7l3.5 1.806v2.39l-3.5 1.806h-7L17 18.157v-2.391zm-4.5 2.5v1.81l-2 2.199V17.96zm16 0 2 1.5v2.509l-2-2.2zm-15.39 2.62L20 20.96v3.67l-5.695-3.011zm14.78 0 2.308 2.539-5.695 3.012v-3.67zM21 20.96h6v4h-6zm-5.862 2.23 4.95 2.616 2.476 7.779zm17.73 0-7.426 10.4 2.475-7.778zm-11.68 2.77h5.633l-2.816 9z" transform="translate(-31.999 -34.664)scale(2.66647)"/></svg>