<svg version="1.1" viewBox="0 0 64 64" xmlns="http://www.w3.org/2000/svg">
 <path transform="translate(.00025) scale(1) translate(5e-5) scale(1)" d="m30.23 0-0.0059 0.001953-19.93 0.005859c-3.995 0-7.238 3.243-7.238 7.238v49.22c0 3.995 3.243 7.533 7.238 7.533h21.72c1.598 0 2.894-1.297 2.894-2.893 0-1.598-1.296-2.894-2.894-2.894h-18.82c-2.397 0-4.346-2.242-4.346-4.639v-43.43c0-2.397 1.949-4.346 4.346-4.346h17.7c0.799 0 1.89 0.476 2.438 1.059 0.1041 0.1108 0.2084 0.2232 0.3125 0.334 0.4722 0.5025 0.9748 0.9462 1.416 1.508l19.44 24.7c0.9639 1.034 2.986 0.712 3.863-0.1055 0.8764-0.8174 1.334-2.815 0.3711-3.848l-1.074-1.195-19.6-24.57-0.4961-0.5234c-0.2144-0.2258-0.4587-0.4459-0.7227-0.6582-1.768-1.422-4.521-2.494-6.607-2.494zm14.79 0.007812c-1.598 0-2.893 1.301-2.893 2.898 0 1.598 1.295 2.893 2.893 2.893h5.791c2.397 0 4.342 1.947 4.342 4.344v5.789c0 1.598 1.298 2.894 2.894 2.894 1.598 0 2.893-1.298 2.893-2.894v-8.684c0-3.995-3.239-7.238-7.234-7.238h-8.686zm13.03 45.16v2e-3l-0.0059 0.0039c-1.598 0-2.893 1.3-2.893 2.896v5.791c0 2.397-1.947 4.34-4.344 4.34h-5.789c-1.598 0-2.893 1.297-2.893 2.893 0 1.598 1.297 2.894 2.893 2.894h8.688c3.995 0 7.236-3.241 7.236-7.236v-8.688c0-1.597-1.294-2.895-2.893-2.896z" fill="#fff"/>
</svg>
