<svg style="isolation:isolate" version="1.1" viewBox="0 0 64 64" xmlns="http://www.w3.org/2000/svg">
 <linearGradient id="a" transform="translate(.001 .001) scale(1) translate(-8.421 -8.421) scale(1.684)" x2="1" y1=".5" y2=".5" gradientTransform="matrix(38 0 0 38 5 5)" gradientUnits="userSpaceOnUse">
  <stop stop-color="#5800e2" offset="0"/>
  <stop stop-color="#ff00e6" offset="1"/>
 </linearGradient>
 <path transform="translate(.001 .001) scale(1) translate(-8.421 -8.421) scale(1.684)" d="M39 31a2 2 0 0 1 4 0v7c0 2.76-2.24 5-5 5H10c-2.76 0-5-2.24-5-5V10c0-2.76 2.24-5 5-5h28c2.76 0 5 2.24 5 5v7a2 2 0 0 1-4 0v-5c0-1.656-1.344-3-3-3H12c-1.656 0-3 1.344-3 3v24c0 1.656 1.344 3 3 3h24c1.656 0 3-1.344 3-3zm-6.451-7.686a1.583 1.583 0 0 1 1.524-1.645 1.6 1.6 0 0 1 1.652 1.531l.025.736V24c0 3.112-1.245 6.11-3.442 8.308S27.112 35.75 24 35.75s-6.11-1.245-8.308-3.442S12.25 27.112 12.25 24s1.245-6.11 3.442-8.308A11.78 11.78 0 0 1 24 12.25c3.277 0 6.402 1.372 8.625 3.773a1.591 1.591 0 0 1-2.337 2.159 8.557 8.557 0 0 0-12.347-.241c-1.613 1.6-2.515 3.785-2.515 6.059s.902 4.459 2.515 6.059c1.6 1.613 3.785 2.515 6.059 2.515s4.446-.902 6.059-2.502a8.6 8.6 0 0 0 2.515-6.047zM21.809 24c0-.579.229-1.137.645-1.541.404-.416.962-.645 1.541-.645s1.137.229 1.541.645c.416.404.645.962.645 1.541s-.229 1.137-.645 1.541c-.404.416-.962.645-1.541.645s-1.137-.229-1.541-.645A2.15 2.15 0 0 1 21.809 24m17.19 0a2 2 0 1 1 4.001.001A2 2 0 0 1 39 24m-19.37 0c0-1.159.459-2.273 1.279-3.093s1.934-1.279 3.093-1.279 2.273.459 3.093 1.279 1.279 1.934 1.279 3.093-.459 2.273-1.279 3.093-1.934 1.279-3.093 1.279-2.273-.459-3.093-1.279-1.279-1.934-1.279-3.093m15.37 11.5a1.5 1.5 0 1 1 3.001.001A1.5 1.5 0 0 1 35 35.5m-25 0a1.5 1.5 0 1 1 3.001.001A1.5 1.5 0 0 1 10 35.5" fill="url(#a)" fill-rule="evenodd"/>
</svg>
