<svg style="isolation:isolate" version="1.1" viewBox="0 0 64 64" xmlns="http://www.w3.org/2000/svg">
 <linearGradient id="a" transform="translate(-.001 -.001) scale(.9998) translate(-2.485 -3.728) scale(1.243)" x1=".672" x2=".422" y1=".021" y2=".96" gradientTransform="matrix(51.5 0 0 37.5 2 10)" gradientUnits="userSpaceOnUse">
  <stop stop-color="#1a6cff" offset="0"/>
  <stop stop-color="#c522ff" offset="1"/>
 </linearGradient>
 <path transform="translate(-.001 -.001) scale(.9998) translate(-2.485 -3.728) scale(1.243)" d="M5.5 18.75a1.75 1.75 0 0 1-3.5 0V14c0-2.208 1.792-4 4-4h43.5c2.208 0 4 1.792 4 4v17.75a1.75 1.75 0 0 1-3.5 0V15.5a2 2 0 0 0-2-2H7.5a2 2 0 0 0-2 2zm44.5 21a1.75 1.75 0 0 1 3.5 0v3.75c0 2.208-1.792 4-4 4H6c-2.208 0-4-1.792-4-4V26.75a1.75 1.75 0 0 1 3.5 0V42a2 2 0 0 0 2 2H48a2 2 0 0 0 2-2zm-30.33-4.09c.762-.32 1.642.038 1.965.8s-.033 1.64-.795 1.96a10.482 10.482 0 0 1-11.51-2.25c-1.97-1.96-3.08-4.64-3.08-7.42s1.11-5.46 3.08-7.42c1.96-1.97 4.64-3.08 7.42-3.08s5.46 1.11 7.42 3.08c1.97 1.96 3.08 4.64 3.08 7.42 0 1.65-.39 3.28-1.14 4.75a1.498 1.498 0 1 1-2.67-1.36c.53-1.05.81-2.21.81-3.39 0-1.99-.79-3.9-2.2-5.3-1.4-1.41-3.31-2.2-5.3-2.2s-3.9.79-5.3 2.2c-1.41 1.4-2.2 3.31-2.2 5.3s.79 3.9 2.2 5.3c1.4 1.41 3.31 2.2 5.3 2.2 1 0 2-.2 2.92-.59m14.58-11.41a1.5 1.5 0 0 1 0 3h-4a2 2 0 0 1-2-2v-7a2 2 0 0 1 2-2h17a2 2 0 0 1 2 2v7a2 2 0 0 1-2 2H40.5a2 2 0 0 1-2-2v-3.5a1.5 1.5 0 0 1 3 0v2.5h4.75v-5h-15v5zm-2 10.5a1.499 1.499 0 0 1 2.56-1.06 1.499 1.499 0 1 1-2.12 2.12c-.28-.28-.44-.66-.44-1.06m10 0a1.499 1.499 0 0 1 2.56-1.06 1.499 1.499 0 1 1-2.12 2.12c-.28-.28-.44-.66-.44-1.06m-30.99-8.91 7.71-2.754a1 1 0 0 1 1.278.606l.169.471a1 1 0 0 1-.606 1.278l-7.71 2.753a1 1 0 0 1-1.278-.605l-.168-.471a1 1 0 0 1 .605-1.278m2.436 6 7.71-2.754a1 1 0 0 1 1.278.606l.168.471a1 1 0 0 1-.605 1.278l-7.711 2.753a1 1 0 0 1-1.278-.605l-.168-.471a1 1 0 0 1 .606-1.278m15.56 2.91c0-1.19.47-2.34 1.32-3.18.84-.85 1.99-1.32 3.18-1.32s2.34.47 3.18 1.32c.85.84 1.32 1.99 1.32 3.18s-.47 2.34-1.32 3.18c-.84.85-1.99 1.32-3.18 1.32s-2.34-.47-3.18-1.32a4.47 4.47 0 0 1-1.32-3.18m10 0c0-1.19.47-2.34 1.32-3.18.84-.85 1.99-1.32 3.18-1.32s2.34.47 3.18 1.32c.85.84 1.32 1.99 1.32 3.18s-.47 2.34-1.32 3.18c-.84.85-1.99 1.32-3.18 1.32s-2.34-.47-3.18-1.32a4.47 4.47 0 0 1-1.32-3.18m-25.56-6.454 5.274-1.884a1 1 0 0 1 1.278.605l.169.471a1 1 0 0 1-.606 1.278l-5.275 1.884a1 1 0 0 1-1.278-.606l-.168-.47a1 1 0 0 1 .606-1.278" fill="url(#a)" fill-rule="evenodd"/>
</svg>
