<svg xmlns="http://www.w3.org/2000/svg" style="isolation:isolate" viewBox="0 0 64 64"><linearGradient id="a" x2="1" y1=".5" y2=".509" gradientTransform="matrix(41.26 0 0 43.36 3.37 2.321)" gradientUnits="userSpaceOnUse" transform="translate(-3.425 -3.425)scale(1.476)"><stop offset=".349" stop-color="#b2e56b"/><stop offset=".538" stop-color="#c2e964"/><stop offset=".904" stop-color="#ecf451"/><stop offset="1" stop-color="#faf74b"/></linearGradient><path fill="url(#a)" fill-rule="evenodd" d="m24.92 6.228 12.76 6.971c.485.264.491.706.015.985l-12.78 7.498c-.476.28-1.249.28-1.726.002l-12.84-7.501c-.476-.279-.47-.719.015-.983l12.81-6.974c.484-.263 1.271-.263 1.755.002zm15.69 18.23v7.55c0 .552-.386 1.228-.861 1.509l-9.828 5.803c-.475.281-.861.06-.861-.492v-7.54c0-.552.386-1.228.861-1.509l9.828-5.812c.475-.281.861-.061.861.491M27.56 3.118l15.6 8.524c1.937 1.059 1.964 2.825.06 3.942L27.5 24.806c-1.904 1.117-4.998 1.12-6.904.007l-15.81-9.235c-1.906-1.114-1.88-2.874.06-3.929l15.69-8.537c1.939-1.055 5.087-1.052 7.024.006m17.05 16.32v12.85c0 1.656-1.157 3.684-2.583 4.526l-14.38 8.498c-1.426.843-2.583.182-2.583-1.474v-12.83c0-1.655 1.157-3.684 2.582-4.528l14.39-8.514c1.425-.843 2.582-.183 2.582 1.472zm-25.66 11.85v7.54c0 .552-.386.773-.861.492l-9.828-5.803c-.475-.281-.861-.957-.861-1.509v-7.55c0-.552.386-.772.861-.491l9.828 5.812c.475.281.861.957.861 1.509m4-.28v12.83c0 1.656-1.157 2.317-2.583 1.474l-14.38-8.498c-1.426-.842-2.583-2.87-2.583-4.526v-12.85c0-1.655 1.157-2.315 2.582-1.472l14.39 8.514c1.425.844 2.582 2.873 2.582 4.528z" transform="translate(-3.425 -3.425)scale(1.476)"/></svg>