<svg xmlns="http://www.w3.org/2000/svg" viewBox="0 0 64 64"><defs><linearGradient id="a" y1=".5" y2=".5"><stop offset="0" stop-color="#00b8ff"/><stop offset="1" stop-color="#00ff9d"/></linearGradient></defs><path fill="url(#a)" d="M24 0c-5 0-9.88 1.56-13.95 4.47A23.98 23.98 0 0 0 1.298 16.2a2.001 2.001 0 0 0 3.782 1.301 20 20 0 0 1 7.298-9.78 20 20 0 0 1 23.32.06 20.04 20.04 0 0 1 7.281 9.9c.348 1.043 1.481 1.608 2.53 1.26s1.612-1.481 1.259-2.53a24 24 0 0 0-8.728-11.88C33.95 1.591 29.04.002 24 .002zM2.94 28.33a2 2 0 0 0-.596.085 1.99 1.99 0 0 0-1.34 2.485 24 24 0 0 0 8.66 12.36 24.013 24.013 0 0 0 28.33.23 24.03 24.03 0 0 0 8.752-11.82c.353-1.049-.21-2.186-1.256-2.539s-2.183.21-2.536 1.26a20.03 20.03 0 0 1-7.288 9.851A19.95 19.95 0 0 1 23.996 44c-4.3 0-8.49-1.389-11.94-3.949a20.05 20.05 0 0 1-7.221-10.3 1.99 1.99 0 0 0-1.893-1.42z" transform="translate(.136)scale(1.333)"/><path fill="url(#a)" d="M29.37 15.91a2.84 2.84 0 0 0-2.532 1.781l-4.584 11.46H5.634a2.84 2.84 0 0 0-2.838 2.838 2.84 2.84 0 0 0 2.838 2.838h18.54a2.84 2.84 0 0 0 2.635-1.785l1.752-4.379 3.426 17.12a2.838 2.838 0 0 0 5.419.497l4.584-11.46h16.62a2.84 2.84 0 0 0 2.838-2.838 2.84 2.84 0 0 0-2.838-2.838H40.07a2.84 2.84 0 0 0-2.635 1.785l-1.752 4.379-3.426-17.12a2.84 2.84 0 0 0-2.524-2.269 3 3 0 0 0-.364-.01z" transform="translate(.002)"/></svg>