<svg version="1.1" viewBox="0 0 64 64" xmlns="http://www.w3.org/2000/svg" xmlns:xlink="http://www.w3.org/1999/xlink">
 <defs>
  <linearGradient id="c">
   <stop stop-color="#9c33c4" offset="0"/>
   <stop stop-color="#ff1950" offset=".508"/>
   <stop stop-color="#ff8724" offset="1"/>
  </linearGradient>
  <linearGradient id="a" x2="1" y1=".5" y2=".5" gradientTransform="matrix(14.91 0 0 16.4 1.01 .265)" gradientUnits="userSpaceOnUse">
   <stop stop-color="#9c33c4" offset="0"/>
   <stop stop-color="#ff1950" offset=".499"/>
   <stop stop-color="#ff8724" offset="1"/>
  </linearGradient>
  <linearGradient id="f" x1="4.125" x2="12.63" y1="9.883" y2="9.883" gradientUnits="userSpaceOnUse" xlink:href="#c"/>
  <linearGradient id="e" x1="17" x2="-5.523" y1="281.2" y2="281.9" gradientUnits="userSpaceOnUse" xlink:href="#c"/>
 </defs>
 <path transform="translate(-.00176 .01384) scale(.9999) translate(-1.032 -1.032) scale(3.901)" d="M14.43 7.669v6.39c0 .617-.501 1.118-1.118 1.118H3.619a1.12 1.12 0 0 1-1.118-1.118V2.879c0-.617.501-1.118 1.118-1.118h4.552c.206 0 .494.114.644.255l5.344 5.03c.15.14.272.422.272.628zm-2.61-5.913a.746.746 0 0 1 0-1.491h2.237c1.029 0 1.864.835 1.864 1.864v2.237a.746.746 0 0 1-1.491 0V2.875c0-.618-.501-1.118-1.118-1.118zm4.101 5.645v7.404a1.865 1.865 0 0 1-1.864 1.864H2.877a1.865 1.865 0 0 1-1.864-1.864V2.125c0-1.029.835-1.864 1.864-1.864h5.514c.412 0 .99.229 1.288.511l5.703 5.368c.3.282.543.845.543 1.257z" fill="url(#a)" fill-rule="evenodd" style="isolation:isolate"/>
 <path transform="translate(-.00176 .01384) scale(.9999) matrix(-1.328 1.394 1.328 1.394 -333.8 -372.8)" d="M2.646 277.2c2.015-.303 3.109-.757 4.34-2.703l4.92.057h2.646v3.968h-3.969v17.2H7.937v-17.2h-5.29z" fill="url(#e)"/>
 <path transform="translate(-.00176 .01384) scale(.9999) translate(-1.032 -1.032) scale(3.901)" d="m7.201 11.83.306 1.326-.982.982h-1.09l1.09-1.091-.327-.982-.982-.327-1.09 1.09v-1.09l.981-.982 1.091.218.352.078 3.086-2.968-.383-1.474.982-.982h1.09l-1.09 1.091.327.982.982.328 1.09-1.091v1.09l-.981.983-1.366-.267z" fill="url(#f)"/>
</svg>
