<svg xmlns="http://www.w3.org/2000/svg" fill-rule="evenodd" stroke-linejoin="round" stroke-miterlimit="2" clip-rule="evenodd" viewBox="0 0 64 64"><circle cx="18" cy="39" r="7" fill="#ff6bf4" transform="translate(-5.199 -4.571)scale(1.143)"/><circle cx="28" cy="53" r="7" fill="#de3ad2" transform="translate(-5.199 -4.571)scale(1.143)"/><circle cx="20" cy="49" r="11" fill="#d3361b" transform="translate(-5.199 -4.571)scale(1.143)"/><circle cx="40" cy="41" r="13" fill="#ff4f4f" transform="translate(-5.199 -4.571)scale(1.143)"/><circle cx="35" cy="30" r="18" fill="#fdcc58" transform="translate(-5.199 -4.571)scale(1.143)"/><circle cx="15" cy="52" r="8" fill="#ff6bf4" transform="translate(-5.199 -4.571)scale(1.143)"/><path fill="#f26666" d="M31.583 28.016c-2.338 8.556-7.937 14.95-16.665 12.664S1.018 29.593 3.35 21.044C5.688 12.487 14.655 7.408 23.376 9.703c8.723 2.291 10.533 9.766 8.195 18.322z"/><circle cx="50.1" cy="12" r="8" fill="#75cbce" transform="translate(-5.199 -4.571)scale(1.143)"/><circle cx="48" cy="27" r="8" fill="#44acb0" transform="translate(-5.199 -4.571)scale(1.143)"/><circle cx="46" cy="19" r="11" fill="#3238b5" transform="translate(-5.199 -4.571)scale(1.143)"/><path fill="#98ecef" d="M43.95 16.003c0 5.05-2.453 9.144-7.274 9.144s-8.728-4.094-8.728-9.144 3.908-9.144 8.728-9.144 7.274 4.094 7.274 9.144"/></svg>