<svg style="isolation:isolate" version="1.1" viewBox="0 0 64 64" xmlns="http://www.w3.org/2000/svg">
 <g transform="translate(6e-4 .000605) scale(1) translate(-6e-4 -.00115) scale(.9999) translate(-2.904 -2.852) scale(1.452)" fill-rule="evenodd">
  <linearGradient id="a" x1=".221" x2=".902" y1=".047" y2=".906" gradientTransform="matrix(44.07 0 0 44 2 2)" gradientUnits="userSpaceOnUse">
   <stop stop-color="#edb8d4" offset=".026"/>
   <stop stop-color="#a26ef5" offset=".987"/>
  </linearGradient>
  <path d="M2 35.08v-.06c.01-1.78.23-3.55.64-5.29.25-1.07.56-2.14.91-3.19-.38-.03-.73-.2-.98-.48-.26-.28-.4-.65-.4-1.02-.05-.19-.07-.38-.07-.58-.01-.03 0-.06 0-.09v-.14c.01-.03.01-.05.01-.07.17-1.83.49-3.63.94-5.41.49-2.02 1.21-3.98 2.13-5.84.47-.93 1.02-1.82 1.64-2.66.61-.83 1.32-1.58 2.12-2.23.28-.23.58-.45.89-.65-2.39-.24-4.78-.33-7.18-.26C6.02 4.9 9.77 3.35 13.71 2.53c1.72-.35 3.46-.53 5.21-.53h.09c2.14 0 4.27.32 6.33.94 1.72.53 3.36 1.28 4.9 2.21q1.875 1.155 3.51 2.61c.76.67 1.48 1.38 2.18 2.12.15.16.29.31.44.46 1.21.28 2.39.71 3.49 1.27 1.11.57 2.13 1.29 3.03 2.14.83.78 1.53 1.68 2.09 2.68a8.7 8.7 0 0 1 1.07 4.82c-1.2-.1-2.4-.14-3.6-.14-1.67 0-3.33.09-4.99.28-.89.24-1.76.59-2.58 1.02-.58.31-1.1.7-1.54 1.18-.33.35-.58.76-.75 1.21-.16.45-.25.92-.26 1.4v.16c.01.51.08 1.02.21 1.51.15.58.34 1.14.59 1.68.55 1.2 1.23 2.34 2.01 3.4 1.52 2.09 3.26 4.01 5.21 5.7A26.34 26.34 0 0 1 22.14 46c-5.57-.01-11-1.78-15.5-5.07a.6.6 0 0 1-.09-.07c-.01-.01-.03-.02-.04-.03-.16-.12-.33-.21-.52-.28s-.39-.12-.6-.17c-.42-.08-.84-.21-1.24-.38-.72-.33-1.34-.86-1.78-1.53-.02-.48-.08-.96-.15-1.43-.05-.36-.1-.71-.14-1.07-.04-.27-.07-.55-.08-.83zm7.51 4.18c.13-.32.14-.68.02-1.02a1.5 1.5 0 0 0-.63-.8c-.3-.18-.66-.25-1-.2-.35.05-.67.22-.9.48-.01 0-.02 0-.03-.01.58-.92 1.2-1.8 1.87-2.66.53.55.88 1.25 1.01 2 .12.76 0 1.53-.33 2.22 0 0-.01 0-.01-.01m-2.54-1.55c-.32-.11-.66-.2-.99-.27-.21-.04-.41-.1-.6-.17a.7.7 0 0 1-.11-.07c-.02-.2-.05-.4-.08-.6-.05-.35-.1-.69-.14-1.04-.03-.17-.04-.34-.05-.51v-.01c.01-1.55.2-3.1.56-4.62.46-1.94 1.09-3.84 1.89-5.67.17-.31.32-.63.47-.96.03-.07.06-.15.1-.22.28-.24.54-.49.8-.74.4-.4.79-.8 1.18-1.21l.34-.35c.47-.48.55-1.22.21-1.8-.33-.58-1.02-.87-1.67-.69-.43.11-.86.24-1.28.39-.34.13-.65.31-.93.53-.26.2-.51.42-.75.65-.07.07-.14.13-.21.2.07-.36.16-.72.25-1.08.44-1.8 1.08-3.56 1.9-5.22.39-.78.85-1.52 1.37-2.21.46-.63 1.01-1.2 1.61-1.7.56-.46 1.18-.82 1.85-1.07.69-.26 1.42-.39 2.16-.39.76 0 1.52.12 2.25.35.5-.35.8-.92.81-1.53.02-.61-.25-1.19-.73-1.57a3.1 3.1 0 0 0-.69-.44c-.36-.16-.72-.3-1.09-.41C16.56 5.1 17.74 5 18.93 5h.08c1.84 0 3.68.28 5.45.81 1.48.46 2.89 1.1 4.22 1.9 1.09.67 2.12 1.43 3.07 2.28.69.62 1.36 1.27 2 1.95.17.19.36.37.54.56.26.28.58.5.93.66 1.14.22 2.24.6 3.28 1.12.85.44 1.64 1 2.33 1.65a8 8 0 0 1 1.52 1.95c.04.08.08.15.12.23h-.02c-1.85 0-3.7.11-5.54.33-1.2.3-2.35.74-3.44 1.32-.87.46-1.66 1.07-2.33 1.79-.6.64-1.06 1.4-1.37 2.22-.27.76-.42 1.56-.44 2.37v.23c.01.76.11 1.52.3 2.26.2.74.45 1.47.77 2.17.64 1.38 1.42 2.7 2.32 3.93.96 1.32 2.02 2.59 3.15 3.78-3.99 2.91-8.8 4.48-13.73 4.49-4.48-.01-8.86-1.3-12.62-3.73" fill="url(#a)"/>
  <linearGradient id="b" x1=".221" x2=".902" y1=".047" y2=".906" gradientTransform="matrix(4.97 0 0 3.727 26.13 10.52)" gradientUnits="userSpaceOnUse">
   <stop stop-color="#edb8d4" offset=".026"/>
   <stop stop-color="#a26ef5" offset=".987"/>
  </linearGradient>
  <path d="M26.13 10.8s4.397-1.728 4.97 3.412c-4.336.449-4.97-3.412-4.97-3.412" fill="url(#b)"/>
  <linearGradient id="c" x2=".907" y1=".5" y2=".92" gradientTransform="matrix(33.94 0 0 24.37 3.835 19.56)" gradientUnits="userSpaceOnUse">
   <stop stop-color="#f7f107" offset="0"/>
   <stop stop-color="#ffbb24" offset=".839"/>
  </linearGradient>
  <path d="M5.86 43.93s8.247-23.3 31.91-24.19c0 0-20.37-3.298-33.94 18.19-.075 3.04 2.023 6.003 2.023 6.003z" fill="url(#c)"/>
  <linearGradient id="f" x2=".907" y1=".5" y2=".92" gradientTransform="matrix(9.764 0 0 2.119 8.428 5.415)" gradientUnits="userSpaceOnUse">
   <stop stop-color="#f7f107" offset="0"/>
   <stop stop-color="#ffbb24" offset=".839"/>
  </linearGradient>
  <path d="M8.428 5.741s5.903.343 8.011 1.793c.879-.181 1.627-.784 1.754-1.604-.755-.313-7.667-.876-9.765-.189" fill="url(#f)"/>
  <linearGradient id="g" x2=".907" y1=".5" y2=".92" gradientTransform="matrix(22.59 0 0 9.937 3.54 15.52)" gradientUnits="userSpaceOnUse">
   <stop stop-color="#f7f107" offset="0"/>
   <stop stop-color="#ffbb24" offset=".839"/>
  </linearGradient>
  <path d="M3.573 25.46s7.64-8.876 22.56-9.937c0 0-20.56.918-22.26 6.653-.474 1.379-.295 3.284-.295 3.284z" fill="url(#g)"/>
 </g>
</svg>
