<svg style="isolation:isolate" version="1.1" viewBox="0 0 64 64" xmlns="http://www.w3.org/2000/svg">
 <linearGradient id="e" transform="translate(-2.904 -2.852) scale(1.452)" x1=".2208" x2=".9022" y1=".04724" y2=".9061" gradientTransform="matrix(44.07 0 0 44 2 2)" gradientUnits="userSpaceOnUse">
  <stop stop-color="#edb8d4" offset=".02609"/>
  <stop stop-color="#a26ef5" offset=".987"/>
 </linearGradient>
 <path transform="translate(-2.904 -2.852) scale(1.452)" d="m2 35.08v-0.04-0.02c0.01-1.78 0.23-3.55 0.64-5.29 0.25-1.07 0.56-2.14 0.91-3.19-0.38-0.03-0.73-0.2-0.98-0.48-0.26-0.28-0.4-0.65-0.4-1.02-0.05-0.19-0.07-0.38-0.07-0.58-0.01-0.03 0-0.06 0-0.09v-0.14c0.01-0.03 0.01-0.05 0.01-0.07 0.17-1.83 0.49-3.63 0.94-5.41 0.49-2.02 1.21-3.98 2.13-5.84 0.47-0.93 1.02-1.82 1.64-2.66 0.61-0.83 1.32-1.58 2.12-2.23 0.28-0.23 0.58-0.45 0.89-0.65-2.39-0.24-4.78-0.33-7.18-0.26 3.37-2.21 7.12-3.76 11.06-4.58 1.72-0.35 3.46-0.53 5.21-0.53h0.01 0.08c2.14 0 4.27 0.32 6.33 0.94 1.72 0.53 3.36 1.28 4.9 2.21 1.25 0.77 2.42 1.64 3.51 2.61 0.76 0.67 1.48 1.38 2.18 2.12 0.15 0.16 0.29 0.31 0.44 0.46 1.21 0.28 2.39 0.71 3.49 1.27 1.11 0.57 2.13 1.29 3.03 2.14 0.83 0.78 1.53 1.68 2.09 2.68 0.81 1.47 1.19 3.14 1.07 4.82-1.2-0.1-2.4-0.14-3.6-0.14-1.67 0-3.33 0.09-4.99 0.28-0.89 0.24-1.76 0.59-2.58 1.02-0.58 0.31-1.1 0.7-1.54 1.18-0.33 0.35-0.58 0.76-0.75 1.21-0.16 0.45-0.25 0.92-0.26 1.4v0.16c0.01 0.51 0.08 1.02 0.21 1.51 0.15 0.58 0.34 1.14 0.59 1.68 0.55 1.2 1.23 2.34 2.01 3.4 1.52 2.09 3.26 4.01 5.21 5.7-4.9 4.71-11.43 7.34-18.21 7.35-5.57-0.01-11-1.78-15.5-5.07-0.03-0.02-0.06-0.04-0.09-0.07-0.01-0.01-0.03-0.02-0.04-0.03-0.16-0.12-0.33-0.21-0.52-0.28s-0.39-0.12-0.6-0.17c-0.42-0.08-0.84-0.21-1.24-0.38-0.72-0.33-1.34-0.86-1.78-1.53-0.02-0.48-0.08-0.96-0.15-1.43-0.05-0.36-0.1-0.71-0.14-1.07-0.04-0.27-0.07-0.55-0.08-0.83v-0.06zm7.51 4.18c0.13-0.32 0.14-0.68 0.02-1.02-0.11-0.33-0.33-0.61-0.63-0.8-0.3-0.18-0.66-0.25-1-0.2-0.35 0.05-0.67 0.22-0.9 0.48-0.01 0-0.02 0-0.03-0.01 0.58-0.92 1.2-1.8 1.87-2.66 0.53 0.55 0.88 1.25 1.01 2 0.12 0.76 0 1.53-0.33 2.22 0 0-0.01 0-0.01-0.01zm-2.54-1.55c-0.32-0.11-0.66-0.2-0.99-0.27-0.21-0.04-0.41-0.1-0.6-0.17-0.04-0.02-0.07-0.04-0.11-0.07-0.02-0.2-0.05-0.4-0.08-0.6-0.05-0.35-0.1-0.69-0.14-1.04-0.03-0.17-0.04-0.34-0.05-0.51v-0.01c0.01-1.55 0.2-3.1 0.56-4.62 0.46-1.94 1.09-3.84 1.89-5.67 0.17-0.31 0.32-0.63 0.47-0.96 0.03-0.07 0.06-0.15 0.1-0.22 0.28-0.24 0.54-0.49 0.8-0.74 0.4-0.4 0.79-0.8 1.18-1.21l0.34-0.35c0.47-0.48 0.55-1.22 0.21-1.8-0.33-0.58-1.02-0.87-1.67-0.69-0.43 0.11-0.86 0.24-1.28 0.39-0.34 0.13-0.65 0.31-0.93 0.53-0.26 0.2-0.51 0.42-0.75 0.65-0.07 0.07-0.14 0.13-0.21 0.2 0.07-0.36 0.16-0.72 0.25-1.08 0.44-1.8 1.08-3.56 1.9-5.22 0.39-0.78 0.85-1.52 1.37-2.21 0.46-0.63 1.01-1.2 1.61-1.7 0.56-0.46 1.18-0.82 1.85-1.07 0.69-0.26 1.42-0.39 2.16-0.39 0.76 0 1.52 0.12 2.25 0.35 0.5-0.35 0.8-0.92 0.81-1.53 0.02-0.61-0.25-1.19-0.73-1.57-0.21-0.18-0.44-0.32-0.69-0.44-0.36-0.16-0.72-0.3-1.09-0.41 1.16-0.18 2.34-0.28 3.53-0.28h0.08c1.84 0 3.68 0.28 5.45 0.81 1.48 0.46 2.89 1.1 4.22 1.9 1.09 0.67 2.12 1.43 3.07 2.28 0.69 0.62 1.36 1.27 2 1.95 0.17 0.19 0.36 0.37 0.54 0.56 0.26 0.28 0.58 0.5 0.93 0.66 1.14 0.22 2.24 0.6 3.28 1.12 0.85 0.44 1.64 1 2.33 1.65 0.61 0.57 1.12 1.23 1.52 1.95 0.04 0.08 0.08 0.15 0.12 0.23h-0.02c-1.85 0-3.7 0.11-5.54 0.33-1.2 0.3-2.35 0.74-3.44 1.32-0.87 0.46-1.66 1.07-2.33 1.79-0.6 0.64-1.06 1.4-1.37 2.22-0.27 0.76-0.42 1.56-0.44 2.37v0.01 0.18 0.04c0.01 0.76 0.11 1.52 0.3 2.26 0.2 0.74 0.45 1.47 0.77 2.17 0.64 1.38 1.42 2.7 2.32 3.93 0.96 1.32 2.02 2.59 3.15 3.78-3.99 2.91-8.8 4.48-13.73 4.49-4.48-0.01-8.86-1.3-12.62-3.73" fill="url(#e)" fill-rule="evenodd"/>
 <linearGradient id="d" transform="translate(-2.904 -2.852) scale(1.452)" x1=".2208" x2=".9022" y1=".04724" y2=".9061" gradientTransform="matrix(4.97 0 0 3.727 26.13 10.52)" gradientUnits="userSpaceOnUse">
  <stop stop-color="#edb8d4" offset=".02609"/>
  <stop stop-color="#a26ef5" offset=".987"/>
 </linearGradient>
 <path transform="translate(-2.904 -2.852) scale(1.452)" d="m26.13 10.8s4.397-1.728 4.97 3.412c-4.336 0.449-4.97-3.412-4.97-3.412z" fill="url(#d)" fill-rule="evenodd"/>
 <linearGradient id="c" transform="translate(-2.904 -2.852) scale(1.452)" x2=".9075" y1=".5" y2=".9201" gradientTransform="matrix(33.94 0 0 24.37 3.835 19.56)" gradientUnits="userSpaceOnUse">
  <stop stop-color="#f7f107" offset="0"/>
  <stop stop-color="#ffbb24" offset=".8389"/>
 </linearGradient>
 <path transform="translate(-2.904 -2.852) scale(1.452)" d="m5.86 43.93s8.247-23.3 31.91-24.19c0 0-20.37-3.298-33.94 18.19-0.075 3.04 2.023 6.003 2.023 6.003z" fill="url(#c)" fill-rule="evenodd"/>
 <linearGradient id="b" transform="translate(-2.904 -2.852) scale(1.452)" x2=".9075" y1=".5" y2=".9201" gradientTransform="matrix(9.764,0,0,2.119,8.428,5.415)" gradientUnits="userSpaceOnUse">
  <stop stop-color="#f7f107" offset="0"/>
  <stop stop-color="#ffbb24" offset=".8389"/>
 </linearGradient>
 <path transform="translate(-2.904 -2.852) scale(1.452)" d="m8.428 5.741s5.903 0.343 8.011 1.793c0.879-0.181 1.627-0.784 1.754-1.604-0.755-0.313-7.667-0.876-9.765-0.189z" fill="url(#b)" fill-rule="evenodd"/>
 <linearGradient id="a" transform="translate(-2.904 -2.852) scale(1.452)" x2=".9075" y1=".5" y2=".9201" gradientTransform="matrix(22.59 0 0 9.937 3.54 15.52)" gradientUnits="userSpaceOnUse">
  <stop stop-color="#f7f107" offset="0"/>
  <stop stop-color="#ffbb24" offset=".8389"/>
 </linearGradient>
 <path transform="translate(-2.904 -2.852) scale(1.452)" d="m3.573 25.46s7.64-8.876 22.56-9.937c0 0-20.56 0.918-22.26 6.653-0.474 1.379-0.295 3.284-0.295 3.284z" fill="url(#a)" fill-rule="evenodd"/>
</svg>
