<svg xmlns="http://www.w3.org/2000/svg" viewBox="0 0 64 64"><path fill="#0067b9" d="M6.725 32C6.725 18.038 18.038 6.725 32 6.725c8.775 0 16.5 4.463 21.025 11.25l4.963.975.624-4.712C52.875 5.663 43.1 0 32 0 14.338 0 0 14.338 0 32a31.86 31.86 0 0 0 5.375 17.763l4.813.625.787-4.375A25.17 25.17 0 0 1 6.725 32"/><path fill="#69b3e7" d="M58.688 14.363a.6.6 0 0 1-.1-.125L53 17.975a.6.6 0 0 1 .1.125A25.14 25.14 0 0 1 57.275 32c0 13.963-11.312 25.275-25.275 25.275-8.712 0-16.412-4.4-20.937-11.125a.23.23 0 0 1-.063-.125l-5.6 3.738a.23.23 0 0 1 .063.124C11.224 58.4 20.963 64 32 64c17.663 0 32-14.337 32-32 0-6.512-1.95-12.575-5.312-17.637"/><path fill="#ffc107" d="M32 32 16.788 21.85v20.275c.162-.1.287-.187 0 0l9.55-2.95z"/><path fill="#333e48" d="M16.79 42.12h29.36c.6 0 1.075-.475 1.075-1.075v-19.2z"/></svg>