<svg xmlns="http://www.w3.org/2000/svg" viewBox="0 0 64 64"><defs><linearGradient id="b" x1="1" x2="0" y1="1"><stop offset="0" stop-color="#00d2ff"/><stop offset="1" stop-color="#0006ff"/></linearGradient><linearGradient id="c" x1="1" x2="0" y1="1"><stop offset="0" stop-color="#5433ff"/><stop offset=".5" stop-color="#20bdff"/><stop offset="1" stop-color="#a5fecb"/></linearGradient><linearGradient id="a" x1="1" x2="0" y1=".5" y2=".5"><stop offset="0" stop-color="#b2fefa"/><stop offset=".983" stop-color="#0ed2f7"/></linearGradient><linearGradient id="e" y2="1"><stop offset="0" stop-color="#ff00d2"/><stop offset="1" stop-color="#b800ff"/></linearGradient></defs><path fill="url(#a)" d="M33.98 24.96a4.5 4.5 0 0 0-1.963.338 4.54 4.54 0 0 0-2.797 4.178v3.963H12.57v14.71h16.65v3.965c0 1.814 1.09 3.48 2.783 4.186a4.54 4.54 0 0 0 4.934-.982l11.32-11.32a4.53 4.53 0 0 0 1.324-3.197h-.002v-.003a4.54 4.54 0 0 0-1.322-3.2l-11.32-11.31a4.5 4.5 0 0 0-2.963-1.325zm-.172 3.373c.267.012.52.126.727.334l.007.008 11.32 11.32c.226.225.332.51.332.806s-.101.573-.33.801l-11.32 11.32c-.339.34-.801.431-1.236.25a1.13 1.13 0 0 1-.697-1.057v-5.658c0-.935-.758-1.693-1.693-1.693h-18.35v-7.93h18.35c.935 0 1.693-.758 1.693-1.693v-5.658c0-.454.272-.867.711-1.05q.247-.104.488-.093z" transform="translate(-.001)scale(.9999)"/><path fill="url(#b)" d="M32.06-.008 4.53.006C2.053.003-.006 2.065.005 4.543v27.46c0 2.943.895 5.697 2.434 7.967h.002l.004.004v.002c3.087 4.59 7.444 10.28 12.48 15.01 2.89 2.713 6.005 5.15 9.3 6.809-3.604-2.292-6.121-6.157-6.561-10.61-4.473-4.293-8.511-9.56-11.36-13.8l-.004-.006-.002-.004a9.5 9.5 0 0 1-1.643-5.369V4.646h27.21c1.481.095 3.064.529 4.713 1.246 2.678 1.208 5.643 3.275 8.502 5.779v.004h.002v.002c2.02 1.82 3.969 3.866 5.781 5.963a14.23 14.23 0 0 1 9.648 4.877c-3.189-4.564-7.469-9.916-12.33-14.3l-.023-.02c-3.108-2.727-6.383-5.063-9.701-6.555l-.014-.006-.012-.003C36.411.753 34.306.14 32.132.006z" transform="translate(.002 .008)scale(.9998)"/><path fill="url(#c)" d="m23.02 8.789-9.691.008c-2.473.001-4.525 2.07-4.525 4.537v30.52l.027.174c.82 5.355 4.515 10.02 8.89 13.55 1.98 1.6 4.108 2.979 6.265 4.047-3.474-2.308-5.887-6.098-6.32-10.45-2.234-2.464-3.812-5.208-4.228-7.764V13.43l9.586-.012h17.74c3.506.159 6.685 1.749 9.533 4.172 4.347.163 8.21 2.294 10.72 5.523-4.635-7.063-11.08-13.93-20.05-14.33l-.05-.002z" transform="translate(.002 .008)scale(.9998)"/><path fill="url(#e)" d="M22.13 17.59v.002c-2.484-.001-4.545 2.067-4.536 4.551v11.3h4.637v-11.21h27.51a9.564 9.564 0 0 1 9.62 9.608v27.52h-27.51a9.56 9.56 0 0 1-9.618-9.606v-1.608h-4.639v1.598c-.014 7.848 6.403 14.26 14.26 14.26h27.61c2.484.001 4.547-2.069 4.538-4.553v-27.6c.014-7.849-6.404-14.26-14.26-14.26z" transform="translate(.002 .008)scale(.9998)"/></svg>