<svg xmlns="http://www.w3.org/2000/svg" fill="none" viewBox="0 0 64 64"><defs><linearGradient id="a" x1="18.42" x2="100.9" y1="64" y2="64" gradientUnits="userSpaceOnUse"><stop offset="0" stop-color="#5570ff"/><stop offset="1" stop-color="#4dd3ff"/></linearGradient></defs><path fill="url(#a)" d="M38.33 8c4.11-.017 8.179.811 11.95 2.434a29.9 29.9 0 0 1 9.993 6.998l38.08 38.06a41.684 41.684 0 0 1 12.306 29.69c0 2.516-3.042 3.776-4.821 1.997l-3.594-3.593c-.674-.674-1.076-1.569-1.193-2.515a32.4 32.4 0 0 0-9.297-18.98l-38.17-38.15a20.8 20.8 0 0 0-15.256-6.599c-11.58 0-21 9.422-21 21 0 5.815 2.343 11.23 6.701 15.35l9.02 9.028c.298.299.662.524 1.063.657l8.391 2.797c1.379.46 1.048 2.497-.405 2.497-1.142 0-1.713 1.38-.907 2.188l15.18 15.18a2.7 2.7 0 0 0 1.064.658l8.433 2.813c1.375.459 1.045 2.49-.404 2.49-1.143 0-1.683 1.358-.795 2.078a32.42 32.42 0 0 0 20.51 7.255c3.525 0 5.29-4.262 2.798-6.754l-33.78-33.78a4 4 0 0 1 0-5.657l.941-.942a4 4 0 0 1 5.657 0l56.38 56.38a4 4 0 0 1 0 5.657l-.94.942a4 4 0 0 1-5.658 0l-5.334-5.334a4 4 0 0 0-2.828-1.17h-17.23a41.7 41.7 0 0 1-16.08-3.178 41.6 41.6 0 0 1-13.61-9.129l-37.95-37.99a30 30 0 0 1-7.066-10.03 30 30 0 0 1-2.468-12.01c0-16.73 13.61-30.33 30.33-30.33z" transform="matrix(.58 0 0 .58 -4.64 -4.64)"/></svg>