<svg xmlns="http://www.w3.org/2000/svg" viewBox="0 0 64 64"><defs><linearGradient id="a" y2="1"><stop offset="0" stop-color="#fda700"/><stop offset="1" stop-color="#ffde00"/></linearGradient><linearGradient id="c" x1="1" x2="0" y2="1"><stop offset="0" stop-color="#fd5900"/><stop offset="1" stop-color="#fff500"/></linearGradient></defs><path fill="url(#a)" d="M10.91 0A10.91 10.91 0 0 0 0 10.91v42.18A10.91 10.91 0 0 0 10.91 64h24.75a10.9 10.9 0 0 0 7.715-3.193l17.43-17.43a10.9 10.9 0 0 0 3.191-7.715v-24.75A10.91 10.91 0 0 0 53.086.002zm0 4.363h42.18a6.545 6.545 0 0 1 6.545 6.545v24h-13.82a10.91 10.91 0 0 0-10.91 10.91v13.82h-24a6.545 6.545 0 0 1-6.545-6.545v-42.18a6.545 6.545 0 0 1 6.545-6.545zm34.91 34.91-.002.004h12.73a6.7 6.7 0 0 1-.83 1.012l-17.43 17.43a6.7 6.7 0 0 1-1.012.83v-12.73a6.545 6.545 0 0 1 6.543-6.545z" transform="translate(.002)"/><path fill="url(#c)" d="m50.73 7.275-6.504.008a36.5 36.5 0 0 0-23.56 8.639 31.17 31.17 0 0 0-11.04 23.82v7.34a63 63 0 0 0-1.56 4.389c-.14.468.126.953.594 1.03a.775.775 0 0 0 .89-.546q.438-1.399.944-2.783l1.592-2.801h5.773a22.6 22.6 0 0 0 9.86-2.246 1.97 1.97 0 0 0 1.138-1.795c0-.253-.046-.502-.137-.736h2.074a3.03 3.03 0 0 0 1.904-.702 22.6 22.6 0 0 0 5.482-6.963 175 175 0 0 1 1.818-3.467 2.78 2.78 0 0 0-.072-2.752l-1.043-1.717h2.06a2.73 2.73 0 0 0 2.34-1.316 86 86 0 0 1 9.289-12.92c.462-.499.72-1.152.724-1.832a2.6 2.6 0 0 0-.173-1.008 2.59 2.59 0 0 0-2.4-1.643zm-6.506 3.129h5.404a91 91 0 0 0-4.844 6.238h-7.312a64 64 0 0 1 6.492-3.385.78.78 0 0 0 .39-1.074.775.775 0 0 0-1.011-.361 64 64 0 0 0-8.783 4.805v-4.79a33.4 33.4 0 0 1 9.664-1.433zm-17.6 5.023v7.295a64.9 64.9 0 0 0-13.88 17.66v-.63a28.06 28.06 0 0 1 9.932-21.45 33.4 33.4 0 0 1 3.951-2.874zm.414 9.016h7.856a1.97 1.97 0 0 0 .244 1.404l2.016 3.322c-.504.942-1.32 2.484-1.76 3.363a20.4 20.4 0 0 1-4.604 5.949h-7.066a1.73 1.73 0 0 0-1.732 1.477 1.716 1.716 0 0 0 1.06 1.852l.979.457a19.5 19.5 0 0 1-6.178.99H13.01a62.9 62.9 0 0 1 12.16-17.02 64 64 0 0 1 1.867-1.795z" transform="translate(.002)"/></svg>