<svg version="1.1" viewBox="0 0 64 64" xmlns="http://www.w3.org/2000/svg">
 <defs>
  <style>.ColorScheme-Text { color:#ebdbb2; } .ColorScheme-Highlight { color:#458588; }</style>
  <linearGradient id="c" x1="1" x2="0" y2="1">
   <stop stop-color="#00ff6f" offset="0"/>
   <stop stop-color="#1eff01" offset="1"/>
  </linearGradient>
  <linearGradient id="e" x1="1" x2="0" y2="1">
   <stop stop-color="#00fffa" offset="0"/>
   <stop stop-color="#0078ff" offset="1"/>
  </linearGradient>
  <linearGradient id="b" x1="1" x2="0" y2="1">
   <stop stop-color="#ff00d2" offset="0"/>
   <stop stop-color="#ff0052" offset="1"/>
  </linearGradient>
  <linearGradient id="a" y1="1">
   <stop stop-color="#ffc500" offset="0"/>
   <stop stop-color="#bdee22" offset="1"/>
  </linearGradient>
  <linearGradient id="d" y1="1">
   <stop stop-color="#0abe18" offset="0"/>
   <stop stop-color="#3efb00" offset="1"/>
  </linearGradient>
 </defs>
 <path transform="translate(0) scale(1) translate(0) scale(1) translate(1e-6) scale(1) translate(-.00198 -.00066) scale(.9999) matrix(1.006 0 0 1.006 -.1921 -.1939)" d="m56.83 34.3c-1.105 0-2.082 0.8938-2.289 1.978-1.762 9.239-9.008 16.49-18.25 18.25-1.085 0.2071-1.978 1.184-1.978 2.289v5.19c0 1.105 0.8941 1.941 1.988 1.791 14.29-1.954 25.55-13.22 27.49-27.51 0.1489-1.095-0.6864-1.99-1.791-1.99z" fill="url(#d)"/>
 <path transform="translate(0) scale(1) translate(0) scale(1) translate(1e-6) scale(1) translate(-.00198 -.00066) scale(.9999) matrix(1.006 0 0 1.006 -.1921 -.1939)" d="m6.604 34.3c-1.105 1.11e-4 -1.93 0.8958-1.756 1.986 1.874 11.75 11.11 20.99 22.86 22.86 1.091 0.1739 1.986-0.6513 1.986-1.756v-0.5762c0-1.105-0.8938-2.082-1.978-2.289-9.239-1.762-16.49-9.01-18.25-18.25-0.2071-1.085-1.184-1.979-2.289-1.978z" fill="url(#a)"/>
 <path transform="translate(0) scale(1) translate(0) scale(1) translate(1e-6) scale(1) translate(-.00198 -.00066) scale(.9999) matrix(1.006 0 0 1.006 -.1921 -.1939)" d="m31.99 13.64c-0.7238-8e-6 -1.447 0.02861-1.996 0.08789-8.556 0.9242-15.35 7.722-16.28 16.28-0.1186 1.098-0.1186 2.894 0 3.992 0.9242 8.556 7.722 15.35 16.28 16.28 1.098 0.1186 2.894 0.1186 3.992 0 8.556-0.9242 15.35-7.722 16.28-16.28 0.1186-1.098 0.1186-2.894 0-3.992-0.9242-8.556-7.722-15.35-16.28-16.28-0.549-0.05932-1.272-0.08788-1.996-0.08789zm0 4.602c0.7236-8e-6 1.446 0.03811 1.992 0.1172 6.018 0.8714 10.78 5.63 11.65 11.65 0.1582 1.092 0.1581 2.896 0 3.988-0.8714 6.018-5.63 10.78-11.65 11.65-1.092 0.1582-2.896 0.1581-3.988 0-6.018-0.8714-10.78-5.63-11.65-11.65-0.1582-1.092-0.1581-2.894 0-3.986 0.8714-6.018 5.63-10.78 11.65-11.65 0.5462-0.07911 1.27-0.1172 1.994-0.1172z" fill="url(#e)"/>
 <path transform="translate(0) scale(1) translate(0) scale(1) translate(1e-6) scale(1) translate(-.00198 -.00066) scale(.9999) matrix(1.006 0 0 1.006 -.1921 -.1939)" d="m31.99 22.85c-0.7232-1.3e-5 -1.446 0.05931-1.984 0.1777-3.483 0.7663-6.224 3.508-6.99 6.99-0.237 1.077-0.2369 2.892 0 3.969 0.7663 3.483 3.508 6.224 6.99 6.99 1.077 0.237 2.892 0.2368 3.969 0 3.483-0.7663 6.224-3.508 6.99-6.99 0.237-1.077 0.2368-2.892 0-3.969-0.7663-3.483-3.508-6.224-6.99-6.99-0.5384-0.1185-1.261-0.1777-1.984-0.1777z" fill="url(#c)"/>
 <path transform="translate(0) scale(1) translate(0) scale(1) translate(1e-6) scale(1) translate(-.00198 -.00066) scale(.9999) matrix(1.006 0 0 1.006 -.1921 -.1939)" d="m27.91 0.1934c-0.06666 0.001831-0.1347 0.006274-0.2031 0.01562-14.29 1.954-25.55 13.22-27.49 27.51-0.1489 1.095 0.6864 1.99 1.791 1.99h5.172c1.105 0 2.082-0.8938 2.289-1.978 1.762-9.239 9.01-16.49 18.25-18.25 1.085-0.2071 1.978-1.184 1.978-2.289v-5.19c0-1.036-0.7872-1.834-1.787-1.807z" fill="url(#b)"/>
</svg>
