<svg xmlns="http://www.w3.org/2000/svg" style="isolation:isolate" viewBox="0 0 64 64"><linearGradient id="a" x1=".576" x2=".128" y1=".387" y2=".792" gradientTransform="scale(48)" gradientUnits="userSpaceOnUse" transform="scale(1.333)"><stop offset="0" stop-color="#d300dc"/><stop offset="1" stop-color="#8700ff"/></linearGradient><path fill="url(#a)" fill-rule="evenodd" d="M35 40.7a20 20 0 0 1-2.646 1.469v-13.36A3.55 3.55 0 0 0 33.708 26c0-1.932-1.503-3.5-3.354-3.5S27 24.068 27 26c0 1.15.533 2.171 1.354 2.809v14.71A19.97 19.97 0 0 1 19 43.364V34h1.299c.605.618 1.434 1 2.347 1C24.497 35 26 33.432 26 31.5S24.497 28 22.646 28c-1.337 0-2.492.818-3.031 2H18c-.8 0-1.56.32-2.12.88S15 32.2 15 33v8.858a20 20 0 0 1-4-2.663v-28.2h13.89c.606.906 1.613 1.5 2.752 1.5 1.851 0 3.354-1.568 3.354-3.5s-1.503-3.5-3.354-3.5c-1.139 0-2.146.594-2.752 1.5H13.47c3.138-1.945 6.782-3 10.53-3 3.937 0 7.758 1.164 11 3.3v7.7H18c-.8 0-1.56.32-2.12.88s-.88 1.32-.88 2.12v2.691a3.55 3.55 0 0 0-1.354 2.809c0 1.932 1.503 3.5 3.354 3.5s3.354-1.568 3.354-3.5c0-1.15-.532-2.171-1.354-2.809v-1.691h17c.8 0 1.56-.32 2.12-.88s.88-1.32.88-2.12v-5.224c3.211 3.642 5 8.344 5 13.22h-6c-.8 0-1.56.32-2.12.88s-.88 1.32-.88 2.12v13.7zm4-3.476A20 20 0 0 0 43.595 28H39zM7 13.474c-1.945 3.138-3 6.782-3 10.53s1.055 7.392 3 10.53zm-7 10.53c0-13.25 10.75-24 24-24s24 10.75 24 24-10.75 24-24 24-24-10.75-24-24" transform="scale(1.333)"/></svg>