<svg version="1.1" viewBox="0 0 64 64" xmlns="http://www.w3.org/2000/svg">
 <defs>
  <linearGradient id="a" y1=".5" y2=".5">
   <stop stop-color="#fd5900" offset="0"/>
   <stop stop-color="#ff007a" offset="1"/>
  </linearGradient>
 </defs>
 <path transform="translate(-7.5e-5 -4e-4) scale(1) translate(.007 .005)" d="M57.22 1.06c-13.25.018-26.5.007-39.76.012-2.016.013-4.068-.133-6.049.36-3.567.852-6.847 3.426-8 7.017-.568 1.777-.572 3.688-.416 5.533.268 1.863 2.749 2.761 4.144 1.516 1.747-1.439.46-3.96 1.332-5.783 1.095-2.363 3.82-3.487 6.291-3.41 14.16.018 28.3-.006 42.45.012.831-.027 1.775.025 2.436-.584 1.238-.943 1.29-3.01.102-4.012-.67-.662-1.652-.66-2.527-.66z" fill="url(#a)"/>
 <path transform="translate(-7.5e-5 -4e-4) scale(1) translate(.007 .005)" d="m39.84 11.38-.008.004c-.706.036-1.479-.06-2.113.318-3.326 2.59-6.427 5.482-9.658 8.193-.787.569-1.434 1.613-2.512 1.545-7.603-.099-15.21-.234-22.82-.31-1.215-.086-2.396.793-2.65 1.998-.447 1.593.916 3.324 2.56 3.225 8.081.162 16.17.227 24.25.34a2.83 2.83 0 0 0 2.207-.801c3.482-2.96 6.92-5.981 10.41-8.932.425-.451 1.076-.296 1.625-.332 5.466.081 10.95-.092 16.42.08 1.3-.05 1.193 1.515 1.242 2.44.014 10.67 0 21.34.008 32.01-.013 1.19.072 2.39-.111 3.572-.331 1.7-1.953 2.966-3.656 2.916-15.35.018-30.71.017-46.06.008-2.034.085-3.853-1.752-3.768-3.81-.045-6.161.014-12.32-.022-18.49.12-1.573-1.409-2.983-2.95-2.698-1.279.153-2.285 1.377-2.2 2.672-.031 6.175-.012 12.36-.008 18.53-.08 3.487 2.073 6.87 5.238 8.27 1.985.965 4.242.78 6.383.789 13.57-.005 27.13-.005 40.7 0 2.15-.005 4.42.175 6.408-.799 3.147-1.399 5.288-4.764 5.217-8.238.018-11.28-.008-22.56.014-33.83.027-2.138-.077-4.469-1.445-6.215-1.323-1.787-3.627-2.449-5.746-2.436-5.65-.01-11.3.01-16.95-.012z" fill="url(#a)"/>
 <path transform="translate(-7.5e-5 -4e-4) scale(1) translate(.007 .005)" d="M24.46 38.36a2.51 2.51 0 0 0-2.512 2.512 2.51 2.51 0 0 0 2.512 2.512h10.82l-7.65 8.346a2.511 2.511 0 0 0 2.578 4.102c1.3-.396 4.615-.582 5.512-.338 2.31.63 4.755.594 7.045-.103a2.51 2.51 0 0 0 1.672-3.135 2.51 2.51 0 0 0-3.135-1.672 7.68 7.68 0 0 1-4.256.064c-.488-.133-.996-.063-1.496-.129l7.287-7.949a2.511 2.511 0 0 0-1.854-4.209z" fill="url(#a)"/>
 <path transform="translate(-7.5e-5 -4e-4) scale(1) translate(.007 .005)" d="m26.97 28.32a2.51 2.51 0 0 0-2.438 1.902l-5.023 20.09a2.51 2.51 0 0 0 1.83 3.047 2.51 2.51 0 0 0 3.047-1.83l4.545-18.19h10.59a2.51 2.51 0 0 0 2.512-2.51 2.51 2.51 0 0 0-2.512-2.512z" fill="url(#a)"/>
</svg>
