<svg xmlns="http://www.w3.org/2000/svg" viewBox="0 0 64 64"><defs><linearGradient id="b" x1="852" x2="77.23" y1="796.7" y2="395.9" gradientTransform="translate(-1.664 -1.664)scale(.2532)" gradientUnits="userSpaceOnUse"><stop offset="0" stop-color="#1d99f3"/><stop offset="1" stop-color="#be0ece"/></linearGradient><linearGradient id="d" x1="-4084" x2="-3476" y1="1678" y2="1678" gradientTransform="translate(1085 -296.8)scale(.2532)" gradientUnits="userSpaceOnUse"><stop offset="0" stop-color="#c20ed2"/><stop offset="1" stop-color="#2592f1"/></linearGradient><filter id="a" width="1.05" height="1.056" x="-.025" y="-.028" color-interpolation-filters="sRGB"><feGaussianBlur stdDeviation="10.285"/></filter></defs><g stroke-linecap="round" stroke-linejoin="round"><path d="M-4665 72.24c-37.77.141-89.58 3.109-164.8 3.557-301 1.791-227.5-41.2-376.5 220.4-148.9 261.6-149.4 176.4 2.594 436.2 152 259.8 78.08 217.6 379.1 215.9 301-1.791 227.5 41.2 376.5-220.3 148.9-261.6 149.4-176.4-2.596-436.2-114-194.8-100.9-219.8-214.2-219.4zm-39.13 106.1c85.97-.322 76.03 18.66 162.6 166.5 115.4 197.1 115 132.5 1.969 331s-57.28 165.8-285.6 167.2c-228.4 1.359-172.3 33.31-287.6-163.8-115.4-197.1-115-132.5-1.969-331 113-198.5 57.28-165.8 285.6-167.2 57.09-.34 96.41-2.592 125.1-2.699z" filter="url(#a)" style="paint-order:stroke fill markers" transform="translate(331.75 .206)scale(.0621)"/><path fill="url(#b)" d="M169.1 16.63c-9.565.036-22.69.787-41.74.9-76.22.454-57.62-10.43-95.34 55.8-37.72 66.24-37.85 44.68.657 110.5 38.5 65.78 19.77 55.12 96 54.67 76.22-.453 57.62 10.43 95.34-55.8 37.72-66.24 37.85-44.68-.658-110.5-28.88-49.34-25.56-55.67-54.26-55.57zm-9.911 26.87c21.77-.082 19.26 4.725 41.17 42.16 29.22 49.91 29.12 33.56.499 83.82-28.62 50.26-14.51 42-72.34 42.34-57.84.344-43.62 8.437-72.84-41.48-29.22-49.91-29.12-33.56-.499-83.82 28.62-50.26 14.51-42 72.34-42.34 14.46-.086 24.41-.656 31.67-.684z" style="paint-order:stroke fill markers" transform="scale(.25)"/><path fill="#06355f" fill-rule="evenodd" d="M128.7 50.2c-6.957 0-11.96.596-18.47 2.198-11.68 2.873-22.55 8.488-31.83 16.45-2.698 2.316-3.083 2.798-3.257 4.061-.222 1.613.194 2.962 1.233 4.001 1.03 1.03 2.137 1.394 3.78 1.247 1.743-.156 3.144-.945 5.717-3.23 8.06-7.16 20.31-12.09 34.46-13.88 3.273-.413 13.09-.349 16.32.107 11.63 1.642 22.41 5.958 31.24 12.51 12.07 8.96 20.61 21.23 24.84 35.69 2.402 8.22 3.154 18.7 2.024 28.12-.35 2.92-.284 3.964.315 5.147.552 1.09 1.663 2.186 2.661 2.62.758.33 2.732.371 3.525.074.946-.355 2.034-1.201 2.58-1.997.417-.608.614-1.373 1.032-4.108.78-5.102 1.011-8.87.871-14.08-.135-5.046-.587-9.034-1.555-13.68-5.255-25.27-22.95-46.3-47.03-55.88-9.299-3.701-18.17-5.377-28.46-5.375zM71.17 76.58c-.396 0-.15 2.588.536 5.616.692 3.056 3.252 7.183 6.152 9.919 1.77 1.67 6.416 4.987 8.357 5.965 3.13 1.576 7.478 3.093 17.91 6.253 3.03.918 5.706 1.775 5.951 1.903.86.452 5.18 4.665 6.092 5.944.815 1.141 2.741 4.918 2.741 5.368 0 .093-.466.289-1.039.436-2.927.75-4.724 2.202-7.104 5.743-2.272 3.382-2.15 3.536 2.895 3.599 5.303.066 6.088.27 9.168 2.433 1.932 1.356 2.644 2.195 3.23 3.813.25.688 1.041 2.543 1.756 4.122s1.293 3.028 1.293 3.217c0 .975-.737.042-3.84-4.82-1.13-1.77-2.39-3.626-2.8-4.127-.952-1.161-2.985-2.204-4.337-2.225-1.113-.018-2.234.666-4.008 2.439-1.205 1.205-1.628 2.125-2.439 5.348-.682 2.708-.818 4.22-.53 5.676.419 2.106.322 1.99 1.529 1.85.588-.07 1.47-.27 1.964-.45 1.143-.412 2.405-.294 5.549.517 4.833 1.246 6.08 1.88 11.06 5.65 1.927 1.459 6.29 5.724 6.715 6.56.188.372.658 1.909 1.039 3.419s.945 3.226 1.26 3.813c.816 1.52 2.064 2.7 3.324 3.143.583.205 1.147.532 1.253.73.27.503-.378 1.904-1.562 3.358-.523.642-.849 1.205-.724 1.247.432.144 2.1-.841 3.277-1.93 1.289-1.193 1.434-1.265 1.434-.744 0 .191-.693 1.003-1.535 1.81-.842.806-1.528 1.57-1.528 1.695 0 .4 1.109.24 2.252-.321.7-.345 1.722-1.165 2.754-2.218 1.188-1.213 1.83-1.712 2.346-1.823 1.172-.254 2.172-.869 2.634-1.615.633-1.024 1.025-3.178 1.025-5.63.003-3.01-.266-3.79-.818-2.392-.533 1.35-1.993 2.393-3.338 2.393-1.487 0-1.622-.32-.911-2.084.446-1.11.637-3.75.328-4.504-.205-.5-.5-.298-1.756 1.22-1.228 1.484-3.643 3.079-4.028 2.66-.126-.137-1.099-1.541-2.165-3.122-2.058-3.054-2.854-4.79-4.034-8.853-.667-2.294-2.877-11.68-2.775-11.78.034-.034.6-.253 1.253-.483 1.681-.59 2.24-.428 3.954 1.146 1.732 1.589 3.395 2.467 5.308 2.795 1.29.221 1.614.198 3.224-.201 1.662-.412 1.871-.42 3.01-.147.672.16 1.715.483 2.318.717 2.448.947 3.224 1.539 4.41 3.364.914 1.406 1.71 2.095 2.882 2.513.836.298 1.01.45 1.066.925.1.862-.681 3.222-1.95 5.89-.627 1.32-1.083 2.456-1.012 2.528.071.07.554.013 1.08-.134 1.82-.51 5.948-4.34 7.15-6.635.306-.584.74-1.18.965-1.32.534-.334 2.63-.475 3.793-.255.917.173.922.174.905 1.019-.016.795-.786 2.527-2.352 5.294-.265.469-.417.923-.335 1.005.503.503 2.818-1.594 4.396-3.988 1.673-2.537 2.241-3.202 3.351-3.914 1.039-.667 1.588-1.453 1.588-2.272 0-.267-.229-1.16-.51-1.984-.28-.825-.509-1.655-.509-1.843s.3-.732.664-1.213c1.317-1.737 1.373-1.88 1.374-3.311 0-.75-.088-1.415-.195-1.481-.106-.066-.854.3-1.662.817-.807.518-1.583.992-1.722 1.045-.14.054-1.064-.364-2.057-.924-2.146-1.211-3.333-1.57-6.199-1.87-1.339-.14-2.409-.37-2.855-.61-.392-.212-1.91-.975-3.37-1.696-1.907-.94-2.866-1.547-3.405-2.145-.884-.979-1.48-2.76-1.32-3.947.06-.437.015-1.114-.093-1.508-.324-1.174-2.586-3.36-5.556-5.368-3.267-2.211-3.805-2.691-3.66-3.25.138-.524-.651-2.262-1.788-3.947-3.11-4.607-9.28-8.802-20.47-13.93-5.032-2.307-6.85-3.231-8.022-4.068-.528-.377-1.792-1.17-2.801-1.763-1.831-1.075-3.99-3.036-5.67-5.14-1.421-1.78-1.483-.983-.161 2.09 1.352 3.143 2.583 4.977 4.148 6.173 2.498 1.908 4.279 2.99 7.499 4.564 4.176 2.04 6.274 3.43 8.303 5.502 2.166 2.21 5.455 7.215 7.787 11.86.927 1.844.889 1.972-.536 1.843-1.307-.119-2.91-.54-2.91-.77 0-.083.231-.212.51-.282.753-.19.852-.96.335-2.547-1.358-4.17-5.32-8.417-9.919-10.63-3.488-1.678-15.14-4.903-29.09-8.056-9.366-2.116-11.97-2.916-14.19-4.356-3.927-2.543-8.057-7.44-10.31-12.21-.545-1.156-1.083-2.104-1.193-2.104zm7.392 22.24c-1.23.026-.855.586 1.923 1.655.88.339 1.919.809 2.312 1.045 1.033.622 3.302 2.428 3.19 2.54-.053.053-1.777-.367-3.833-.932-5.706-1.567-6.992-1.863-8.022-1.863-.939 0-1.736.267-1.736.583 0 .09 1.036.467 2.299.838 3.692 1.085 5.046 1.808 5.046 2.694 0 .417.128.43-2.721-.275-2.607-.644-3.849-.68-6.36-.187-2.398.47-4.086 1-3.874 1.213.071.071.819.15 1.655.174s2.134.19 2.888.375c1.498.368 3.921 1.434 3.921 1.722 0 .25-1.059.352-6.018.583-2.356.11-4.512.29-4.792.396-.453.172-.347.229.945.522.799.182 2.999.528 4.892.771s3.485.477 3.532.516c.218.184-.394.302-4.383.871-6.913.987-7.476 1.408-3.15 2.352 2.155.47 2.437.783 1.226 1.374-.756.37-2.585.86-4.048 1.086l-.878.141.16-.79c.088-.433.157-1.388.155-2.125-.004-1.112-.108-1.528-.623-2.446-1.875-3.338-6.243-3.724-8.511-.75-1.655 2.17-2.628 16.34-1.682 24.53.835 7.225 2.466 13.79 5.02 20.2 2.119 5.317 4.154 9.193 7.452 14.18 13.17 19.92 34.79 32.53 58.85 34.33 2.155.161 9.07.12 11.33-.067 17.02-1.421 32.74-8.156 45.46-19.48 1.59-1.415 1.752-1.627 1.977-2.634.482-2.155-.237-4.064-1.923-5.107-.846-.523-1.183-.607-2.346-.597-2.424.022-3.284.502-7.493 4.195-2.307 2.025-5.464 4.035-9.37 5.965-10.67 5.272-23.12 7.835-35.14 7.231-8.197-.412-15.8-1.924-22.89-5.234-2.166-1.012-4.101-2.572-5.716-4.336-5.27-5.756-10.44-12.3-12.45-19.83-.952-3.566-1.29-6.166-1.293-9.952-.009-7.303 1.818-12.32 6.487-17.82 2.669-3.146 8.777-6.14 14.48-7.097 1.59-.267 2.569-.529 2.78-.75.218-.227.443-1.228.678-2.97.802-5.968 1.553-7.105 5.522-8.396 1.1-.359 1.673-.64 1.588-.785-1.865-3.178-5.513-7.25-7.901-8.82-1.141-.749-1.286-.79-2.647-.757-1.906.047-8.825 1.822-11.95 3.063-9.044 3.592-16.28 8.38-21.26 14.09-2.834 3.243-4.845 6.174-7.814 11.37-.556.973-.594.996-.73.51-.433-1.537-.139-2.286 2.331-6.012 4.977-7.508 11.19-13.21 19.24-17.64 4.882-2.688 9.286-4.416 14.4-5.643 1.675-.402 3.01-.77 2.962-.817-.048-.048-1.319-.485-2.82-.972-1.503-.487-4.398-1.546-6.435-2.346s-4.823-1.772-6.186-2.165c-3.652-1.05-6.484-1.554-7.714-1.528zm57.07 5.475c.39.104 1.375.955 2.989 2.58 3.054 3.074 3.487 3.397 6.668 4.979 2.656 1.321 3.972 2.254 3.733 2.64-.26.421-.78.243-4.611-1.568-4.618-2.184-5.521-2.778-6.132-4.041-.254-.524-.89-1.514-1.414-2.198-.913-1.192-1.427-1.999-1.427-2.245 0-.13.064-.182.194-.147zm-12.24 3.88c.303.081 1.105 1.006 2.131 2.708 1.322 2.193 2.94 3.621 5.542 4.892 1.169.571 2.124 1.076 2.124 1.119 0 .309-4.001-.855-5.046-1.468-.956-.56-2.537-2.551-3.88-4.879-.973-1.687-1.174-2.454-.871-2.372zm-16.18 8.431a4.5 4.5 0 0 1 .972.047c1.222.183 1.21.414-.107 2.58-1.323 2.173-1.52 2.747-1.803 5.214-.127 1.105-.328 2.31-.443 2.674s-.283.71-.382.77c-.56.347-1.428-2.865-1.42-5.273.004-1.75.506-3.944 1.111-4.86.464-.7 1.165-1.088 2.071-1.152zm-6.273.61 1.146.06-.074 2.453c-.063 2.111.005 2.755.476 4.718.3 1.252.518 2.632.483 3.063-.059.708-.128.79-.69.845-1.928.188-3.15-3.007-3.15-8.23 0-2.82.109-2.998 1.808-2.91zm-5.134.81q.179-.014.415.008l.764.06.121 2.245c.137 2.546.56 4.327 1.427 6.045.648 1.284.746 2.04.322 2.393-.149.124-.6.36-1.005.53-.674.28-.766.279-1.086-.04-.97-.971-2.281-5.305-2.466-8.15l-.127-1.876.643-.636c.395-.395.63-.546.992-.577zm-4.282 1.073c.522.055.69.605.885 2.165.268 2.146.957 4.229 2.138 6.467.5.948.911 1.882.911 2.078s-.237.466-.523.596c-1.379.629-1.986.145-3.525-2.8-1.356-2.597-2.07-4.776-2.07-6.3 0-1.382.275-1.773 1.527-2.119.266-.073.483-.105.657-.087zm-5.227 1.769c.717-.071 1.127.487 1.3 1.716.293 2.076 1.535 4.55 3.82 7.6.555.74.623.949.456 1.427-.151.431-.35.574-.858.623-.565.055-.819-.095-1.77-1.045-1.14-1.14-2.92-3.714-3.86-5.583-1.12-2.227-1.086-3.85.088-4.457.31-.16.585-.258.824-.281zm-4.162 2.433c.312.013.491.232.583.657.42 1.946 2.843 5.578 5.093 7.627.95.864 1.729 1.69 1.729 1.843 0 .151-.299.46-.664.683-.364.223-.903.402-1.2.402-1.78.003-6.769-5.234-7.935-8.33-.477-1.267-.42-1.396 1.02-2.312.618-.394 1.061-.583 1.373-.57zm57.53.442c.73-.105 4.219.914 5.73 1.675 1.662.837 3.509 2.462 4.262 3.746.52.886.528.931.16 1.2-.643.471-2.53.348-3.712-.241-1.001-.499-1.65-1.125-3.82-3.666-.553-.647-1.47-1.504-2.037-1.91-.882-.633-.965-.75-.583-.804zm-62.59 3.022c.445 0 .893.491 2.272 2.513 1.461 2.144 3.971 4.45 5.857 5.382.816.403 1.481.801 1.481.885s-.327.436-.724.784-.873.631-1.066.63c-.556-.004-3.406-1.636-4.979-2.855-2.259-1.75-4.45-4.652-4.45-5.891 0-.465 1.092-1.448 1.608-1.448zm-3.927 3.498c.496.063 1.172.78 2.714 2.56 1.876 2.165 3.596 3.388 5.971 4.236 1.032.369 1.916.787 1.964.932.048.144-.073.57-.275.945-.455.845-.794.855-3.264.087-2.645-.823-2.86-.932-4.249-2.104-4.009-3.386-4.908-4.863-3.719-6.145.323-.349.56-.548.858-.51zm-3.224 3.847c.135 0 1.184.952 2.332 2.118 2.392 2.43 3.267 2.946 6.936 4.102 1.316.415 2.393.82 2.393.905 0 .292-1.215 1.83-1.615 2.044-.22.118-.523.209-.67.208-.552-.006-3.637-1.185-4.785-1.83-2.945-1.652-5.781-4.604-5.784-6.032-.003-.633.695-1.515 1.193-1.515zm95.35.442c.25.05.6.273 1.086.67 1.185.972 1.19 1.46.02 2.199-.488.308-.993.563-1.119.563-.299 0-.443-.637-.496-2.138-.034-.965.093-1.376.51-1.293zm-97.85 3.451 1.501 1.642c.824.901 1.993 1.95 2.594 2.332.6.383 1.569 1.006 2.158 1.381 1.193.76 2.603 1.255 4.135 1.461.561.076 1.133.233 1.273.349.367.302.311.855-.12 1.247-1.205 1.09-6.873-.493-10.15-2.835-2.173-1.55-2.824-3.236-1.85-4.82zm72.58 3.056c-.308.083.132.497 1.401 1.226 3.688 2.122 5.862 4.315 9.295 9.396 4.039 5.977 6.328 8.718 9.188 11 3.463 2.761 4.533 3.272 7.586 3.64 2.666.32 5.322-.09 7.023-1.087.995-.583 2.867-2.845 4.564-5.522 2.297-3.625 3.005-4.214 5.643-4.624 1.65-.256 3.57.03 5.187.764 1.532.697 3.767 3.012 4.805 4.98.932 1.765 1.171 1.511.449-.476-1.144-3.15-3.354-5.604-6.407-7.117-1.535-.761-1.883-.858-3.203-.865-1.389-.008-1.62.062-3.679 1.086-2.514 1.25-3.6 2.213-5.516 4.92-.673.95-1.933 2.455-2.801 3.343l-1.582 1.615-2.191-.114c-3.895-.206-5.271-.806-8.257-3.599-1.987-1.858-2.862-3.193-5.448-8.317-3.079-6.098-5.412-9.449-6.574-9.449-.56 0-.353.591.744 2.145.475.673 1.047 1.59 1.273 2.037.448.89.777 2.145.563 2.145-.074 0-1.07-.94-2.212-2.09-2.423-2.442-3.62-3.205-6.73-4.27-1.753-.6-2.814-.846-3.122-.764zm-74.82 1.816c.062 0 .81.611 1.662 1.354s2.036 1.662 2.634 2.044c2.276 1.456 5.542 2.418 7.379 2.171.684-.091.864-.043.979.255.189.493-.51 1.754-1.154 2.078-.317.16-1.275.247-2.547.235-3.166-.03-3.901-.242-6.225-1.81-.618-.416-1.405-.901-1.75-1.078-.544-.28-.698-.564-1.18-2.165-.52-1.732-.534-1.88-.234-2.46.176-.34.374-.623.436-.623zm20.07 7.754c-.382 0-.409.14-.409 2.326 0 8.063 2.148 16.04 4.725 17.55 1.836 1.08 5.1-.275 8.645-3.592.731-.683 1.37-1.203 1.421-1.153s-.042 1.184-.208 2.52c-.375 3.024-.38 4.192-.02 4.685.275.377.293.382.865.007.321-.21 1.543-1.384 2.714-2.607s2.537-2.505 3.036-2.848c1.59-1.094 3.57-.942 3.746.288.041.291.28.535.65.664.487.17.747.117 1.582-.348 1.122-.627 1.608-.706 1.608-.255 0 .168-.182.308-.402.308-.691 0-.886.72-.764 2.842.08 1.391.332 2.689.864 4.504.92 3.14 1.148 5.73.637 7.265-.183.55-.705 1.545-1.153 2.218s-.81 1.347-.811 1.494c-.003.427 1.56-.54 2.687-1.662 2.522-2.508 3.294-6.01 2.473-11.19-.387-2.443-.28-2.815.77-2.815.565 0 .575.029.564 1.072-.013 1.161.333 2.651 1.159 5.046.638 1.851.852 3.934.516 4.953-.134.403-.513 1.07-.845 1.488s-.56.806-.51.858c.17.17 1.504-.774 2.172-1.535 1.312-1.494 1.92-4.004 1.588-6.534-.085-.642-.216-1.652-.295-2.245-.12-.906-.085-1.123.221-1.347.32-.234.35-.504.262-2.212-.085-1.622-.203-2.176-.731-3.304-.544-1.163-.764-1.408-1.515-1.75-.481-.218-1.064-.399-1.3-.401-.53-.006-1.217-.63-2.084-1.89-.72-1.046-1.964-1.883-3.103-2.091-.555-.102-.84-.038-1.253.288-.295.232-.618.422-.717.422-.1 0-.627-.467-1.166-1.039-1.288-1.365-2.066-1.68-4.101-1.669-2.584.016-4.878.857-10.37 3.8-.995.533-1.647.744-2.285.744-1.393 0-1.978-.773-4.805-6.347-2.69-5.304-3.437-6.507-4.061-6.507zm-18.5.275c.04-.04.672.148 1.401.422 2.55.96 3.84 1.212 6.286 1.226l2.346.014v1.119c0 1.029-.05 1.145-.583 1.4-.585.281-3.982.49-5.134.316-2.223-.336-2.698-.509-2.955-1.06-.602-1.284-1.427-3.37-1.36-3.437zm9.624 6.152.06.657c.117 1.209-.61 1.895-2.305 2.178-2.16.36-2.142.342-.81.764.801.254 1.531.347 2.137.275 1.158-.138 1.508.096 1.508.992 0 .846-.285 1.22-1.394 1.856-1.63.934-1.617.94-2.842-.945-.966-1.49-3.19-5.352-3.19-5.542 0-.039.941-.086 2.091-.108 1.15-.021 2.69-.056 3.418-.08zm1.166 7.573c.225.14.201 1.983-.034 2.6-.106.281-.375.612-.596.73-.349.187-.509.07-1.18-.844-.718-.978-.742-1.068-.396-1.273.206-.121.748-.463 1.206-.764.46-.3.91-.503 1-.449zm37.2 3.344c.771 0 1.923 1.205 1.923 2.017 0 .852-.246.794-.798-.188-.252-.45-.723-.955-1.052-1.126-.74-.382-.777-.703-.073-.703zm-6.528.65c-.53.052-.71.22-1.119 1.045-.55 1.11-.567 1.55-.322 7.017.126 2.804.094 3.526-.208 4.758-.417 1.703-1.366 3.223-2.292 3.686-.361.181-.594.384-.522.456.232.232.96.132 1.796-.248 1.909-.868 4.275-4.345 5.02-7.372.403-1.637.354-5.338-.087-6.782-.486-1.589-1.42-2.643-2.265-2.56zm-29.91.778c.67 0 1.025.457 1.025 1.314 0 .288-.07.518-.154.516-.166-.004-1.474-1.527-1.474-1.716 0-.064.27-.114.603-.114zm19.42.08c-.159.029-.359.547-.664 1.508-1.033 3.257-.303 7.88 1.69 10.7.217.309.471.556.57.556.371 0 .431-.443.12-.918-.642-.98-.358-1.732 1.796-4.73 1.434-1.998 2.366-3.606 2.366-4.082 0-.404-.602-.184-2.118.778-1.32.837-2.335 1.018-2.768.495-.136-.163-.335-1.009-.443-1.883-.207-1.689-.345-2.463-.55-2.426zm21.78.328c.576 0 1.441.361 1.441.604 0 .246-.27.24-1.173-.02-.725-.21-.898-.584-.268-.584z" style="isolation:isolate;mix-blend-mode:normal;paint-order:stroke fill markers" transform="scale(.25)"/><path fill="url(#d)" fill-rule="evenodd" d="M127.7 51.22c-6.957.003-11.96.596-18.47 2.198-11.68 2.873-22.55 8.488-31.83 16.45-2.698 2.316-3.083 2.798-3.257 4.061-.222 1.613.194 2.962 1.233 4.001 1.03 1.03 2.137 1.394 3.78 1.247 1.743-.156 3.144-.945 5.717-3.23 8.06-7.16 20.31-12.09 34.46-13.88 3.273-.413 13.09-.349 16.32.107 11.63 1.642 22.41 5.96 31.24 12.51 12.07 8.96 20.61 21.23 24.84 35.69 2.402 8.22 3.154 18.7 2.024 28.12-.35 2.92-.284 3.964.315 5.147.552 1.09 1.663 2.186 2.661 2.62.758.33 2.732.371 3.525.074.946-.355 2.034-1.201 2.58-1.997.417-.608.614-1.373 1.032-4.108.78-5.102 1.011-8.87.871-14.08-.135-5.046-.587-9.034-1.555-13.68-5.255-25.27-22.95-46.3-47.03-55.88-9.299-3.701-18.17-5.377-28.46-5.375zM70.17 77.6c-.396 0-.15 2.588.536 5.616.692 3.056 3.252 7.183 6.152 9.919 1.77 1.67 6.416 4.987 8.357 5.965 3.13 1.576 7.478 3.093 17.91 6.253 3.03.918 5.706 1.775 5.951 1.903.86.452 5.18 4.665 6.092 5.944.815 1.141 2.741 4.918 2.741 5.368 0 .093-.466.289-1.039.436-2.927.75-4.724 2.202-7.104 5.743-2.272 3.382-2.15 3.536 2.895 3.599 5.303.066 6.088.27 9.168 2.433 1.932 1.356 2.644 2.195 3.23 3.813.25.688 1.041 2.543 1.756 4.122s1.293 3.028 1.293 3.217c0 .975-.737.042-3.84-4.82-1.13-1.77-2.39-3.626-2.8-4.127-.952-1.161-2.985-2.204-4.337-2.225-1.113-.018-2.234.666-4.008 2.439-1.205 1.205-1.628 2.125-2.439 5.348-.682 2.708-.818 4.22-.53 5.676.419 2.106.323 1.99 1.529 1.85.588-.07 1.47-.27 1.964-.45 1.143-.413 2.405-.294 5.549.517 4.833 1.246 6.08 1.88 11.06 5.65 1.927 1.459 6.29 5.724 6.715 6.56.188.372.658 1.909 1.039 3.419s.945 3.226 1.26 3.813c.816 1.52 2.064 2.7 3.324 3.143.583.205 1.147.532 1.253.73.27.503-.378 1.904-1.562 3.358-.523.642-.849 1.205-.724 1.247.432.144 2.1-.841 3.277-1.93 1.289-1.193 1.434-1.265 1.434-.744 0 .191-.693 1.003-1.535 1.81-.842.806-1.528 1.57-1.528 1.695 0 .4 1.109.24 2.252-.321.7-.345 1.722-1.165 2.754-2.218 1.188-1.213 1.83-1.712 2.346-1.823 1.172-.254 2.172-.869 2.634-1.615.633-1.024 1.025-3.178 1.025-5.63.003-3.01-.266-3.79-.818-2.392-.533 1.35-1.993 2.393-3.337 2.393-1.487 0-1.622-.32-.911-2.084.446-1.11.637-3.75.328-4.504-.205-.5-.5-.298-1.756 1.22-1.228 1.484-3.643 3.079-4.028 2.66-.126-.137-1.099-1.541-2.165-3.122-2.058-3.054-2.854-4.79-4.034-8.853-.667-2.294-2.877-11.68-2.774-11.78.034-.034.6-.253 1.253-.483 1.681-.59 2.24-.428 3.954 1.146 1.732 1.589 3.395 2.467 5.308 2.795 1.29.221 1.614.198 3.224-.201 1.662-.412 1.871-.42 3.01-.147.672.16 1.715.483 2.318.717 2.448.947 3.224 1.539 4.41 3.364.914 1.406 1.71 2.095 2.882 2.513.836.298 1.01.45 1.066.925.1.862-.681 3.222-1.95 5.89-.627 1.32-1.083 2.456-1.012 2.528.072.07.554.013 1.08-.134 1.82-.51 5.948-4.34 7.15-6.635.306-.584.74-1.18.965-1.32.534-.334 2.63-.475 3.793-.255.917.173.922.174.905 1.019-.017.795-.786 2.527-2.352 5.294-.266.469-.417.923-.335 1.005.502.503 2.818-1.594 4.396-3.988 1.673-2.537 2.24-3.202 3.35-3.914 1.04-.667 1.589-1.453 1.589-2.272 0-.267-.23-1.16-.51-1.984s-.509-1.655-.509-1.843.299-.732.664-1.213c1.317-1.737 1.373-1.88 1.374-3.311 0-.75-.088-1.415-.195-1.481-.106-.066-.854.3-1.662.817s-1.583.992-1.722 1.045c-.14.054-1.064-.364-2.057-.924-2.146-1.211-3.333-1.57-6.199-1.87-1.339-.14-2.409-.37-2.855-.61-.392-.212-1.91-.975-3.37-1.696-1.907-.94-2.866-1.547-3.406-2.145-.884-.979-1.48-2.76-1.32-3.947a4.6 4.6 0 0 0-.093-1.508c-.324-1.174-2.586-3.36-5.556-5.368-3.267-2.211-3.805-2.691-3.66-3.25.138-.525-.651-2.262-1.788-3.947-3.11-4.607-9.28-8.802-20.47-13.93-5.032-2.307-6.85-3.231-8.022-4.068-.528-.377-1.792-1.17-2.801-1.763-1.831-1.075-3.99-3.036-5.67-5.14-1.421-1.78-1.483-.983-.161 2.09 1.352 3.143 2.583 4.977 4.148 6.173 2.498 1.908 4.279 2.99 7.499 4.564 4.176 2.04 6.274 3.43 8.303 5.502 2.166 2.21 5.455 7.215 7.787 11.86.927 1.844.889 1.972-.536 1.843-1.307-.119-2.91-.54-2.91-.771 0-.082.231-.211.51-.281.753-.19.852-.96.335-2.547-1.358-4.17-5.32-8.417-9.919-10.63-3.488-1.678-15.14-4.903-29.09-8.056-9.366-2.116-11.97-2.916-14.19-4.356-3.927-2.543-8.057-7.44-10.31-12.21-.545-1.157-1.083-2.104-1.193-2.104zm7.392 22.24c-1.23.026-.855.585 1.923 1.655.88.339 1.919.809 2.312 1.045 1.033.622 3.302 2.428 3.19 2.54-.053.053-1.777-.367-3.833-.932-5.706-1.567-6.992-1.863-8.022-1.863-.939 0-1.736.267-1.736.583 0 .09 1.036.467 2.299.838 3.692 1.085 5.046 1.808 5.046 2.694 0 .417.128.43-2.721-.275-2.607-.644-3.849-.68-6.36-.187-2.398.47-4.086 1-3.874 1.213.071.071.819.15 1.655.174s2.134.19 2.888.375c1.498.368 3.921 1.434 3.921 1.722 0 .25-1.059.352-6.018.583-2.356.11-4.512.29-4.792.396-.453.172-.347.229.945.522.799.182 2.999.528 4.892.771s3.485.477 3.532.516c.218.184-.394.302-4.383.871-6.913.987-7.476 1.408-3.15 2.352 2.155.47 2.437.783 1.226 1.374-.756.37-2.584.86-4.048 1.086l-.878.141.16-.79c.088-.433.157-1.388.155-2.125-.004-1.112-.108-1.528-.623-2.446-1.875-3.338-6.243-3.724-8.511-.75-1.655 2.17-2.628 16.34-1.682 24.53.835 7.225 2.466 13.79 5.02 20.2 2.119 5.317 4.154 9.193 7.452 14.18 13.17 19.92 34.79 32.53 58.85 34.33 2.155.161 9.07.121 11.33-.067 17.02-1.421 32.74-8.156 45.46-19.48 1.59-1.415 1.752-1.627 1.977-2.634.482-2.155-.237-4.064-1.923-5.107-.846-.523-1.183-.607-2.346-.597-2.424.022-3.284.502-7.493 4.195-2.307 2.025-5.464 4.035-9.37 5.965-10.67 5.272-23.12 7.835-35.14 7.231-8.197-.412-15.8-1.924-22.89-5.234-2.166-1.012-4.101-2.572-5.716-4.336-5.27-5.756-10.44-12.3-12.45-19.83-.952-3.566-1.29-6.166-1.293-9.952-.009-7.303 1.818-12.32 6.487-17.82 2.669-3.146 8.777-6.14 14.48-7.097 1.59-.267 2.569-.529 2.78-.75.218-.227.443-1.228.678-2.97.802-5.968 1.553-7.105 5.522-8.396 1.1-.359 1.673-.64 1.588-.785-1.865-3.178-5.513-7.25-7.901-8.82-1.141-.749-1.286-.79-2.647-.757-1.906.047-8.825 1.822-11.95 3.063-9.043 3.592-16.28 8.38-21.26 14.09-2.834 3.243-4.845 6.174-7.814 11.37-.556.973-.594.996-.731.51-.432-1.537-.138-2.286 2.332-6.012 4.977-7.508 11.19-13.21 19.24-17.64 4.882-2.688 9.286-4.416 14.4-5.643 1.675-.402 3.01-.77 2.962-.817-.048-.048-1.319-.485-2.821-.972s-4.397-1.546-6.434-2.346-4.823-1.772-6.186-2.165c-3.652-1.05-6.484-1.554-7.714-1.528zm57.07 5.475c.39.104 1.375.955 2.989 2.58 3.054 3.074 3.487 3.397 6.668 4.979 2.656 1.321 3.972 2.254 3.733 2.64-.26.421-.78.243-4.611-1.568-4.618-2.184-5.521-2.778-6.132-4.041-.254-.524-.89-1.514-1.414-2.198-.913-1.192-1.427-1.999-1.427-2.245 0-.13.064-.182.194-.147zm-12.24 3.88c.303.081 1.105 1.006 2.131 2.708 1.322 2.193 2.94 3.621 5.542 4.892 1.169.571 2.124 1.076 2.124 1.119 0 .309-4.001-.855-5.046-1.468-.956-.56-2.537-2.551-3.88-4.879-.973-1.687-1.174-2.454-.871-2.372zm-16.18 8.431a4.5 4.5 0 0 1 .972.047c1.222.183 1.21.414-.107 2.58-1.323 2.173-1.52 2.747-1.803 5.214-.127 1.105-.328 2.31-.443 2.674s-.283.71-.382.77c-.56.347-1.428-2.865-1.42-5.273.003-1.75.506-3.944 1.111-4.86.465-.7 1.165-1.088 2.071-1.152zm-6.273.61 1.146.06-.074 2.453c-.063 2.111.007 2.755.476 4.718.3 1.252.518 2.632.483 3.063-.058.707-.128.79-.69.844-1.928.189-3.15-3.007-3.15-8.23 0-2.819.108-2.998 1.808-2.909zm-5.134.81q.179-.014.416.008l.764.06.12 2.245c.137 2.546.56 4.327 1.427 6.045.648 1.284.746 2.04.322 2.393-.149.124-.6.36-1.005.53-.674.28-.766.279-1.086-.04-.97-.971-2.281-5.305-2.466-8.15l-.127-1.876.643-.636c.395-.396.63-.546.992-.577zm-4.282 1.073c.522.055.69.605.885 2.165.268 2.146.957 4.229 2.138 6.467.5.948.911 1.882.911 2.078s-.237.466-.523.596c-1.379.629-1.986.145-3.525-2.8-1.356-2.597-2.07-4.776-2.07-6.3 0-1.382.275-1.773 1.527-2.119.267-.073.483-.105.657-.087zm-5.227 1.769c.717-.071 1.127.487 1.3 1.716.293 2.076 1.535 4.55 3.82 7.6.555.74.623.949.456 1.427-.151.431-.35.574-.858.623-.565.055-.819-.095-1.77-1.045-1.14-1.14-2.92-3.714-3.86-5.583-1.12-2.227-1.086-3.85.088-4.457.31-.16.585-.258.824-.281zm-4.162 2.433c.312.013.491.231.583.656.42 1.946 2.843 5.578 5.093 7.627.95.865 1.73 1.691 1.73 1.843s-.3.462-.664.684-.904.402-1.2.402c-1.78.003-6.77-5.234-7.935-8.33-.478-1.267-.421-1.396 1.019-2.312.619-.394 1.062-.583 1.374-.57zm57.53.442c.73-.105 4.219.914 5.73 1.675 1.662.837 3.509 2.462 4.262 3.746.52.886.528.931.16 1.2-.643.47-2.53.348-3.712-.241-1.001-.5-1.65-1.125-3.82-3.666-.553-.647-1.47-1.504-2.037-1.91-.882-.633-.965-.75-.583-.804zm-62.59 3.022c.445 0 .894.49 2.272 2.513 1.461 2.144 3.971 4.449 5.857 5.382.816.403 1.481.801 1.481.885s-.327.436-.724.784-.873.631-1.066.63c-.556-.004-3.406-1.636-4.979-2.855-2.259-1.75-4.45-4.652-4.45-5.891 0-.465 1.092-1.448 1.608-1.448zm-3.927 3.498c.497.063 1.172.78 2.714 2.56 1.876 2.165 3.596 3.388 5.971 4.235 1.032.369 1.916.787 1.964.932.048.144-.073.57-.275.945-.455.845-.794.855-3.264.087-2.645-.823-2.86-.932-4.249-2.104-4.009-3.386-4.908-4.863-3.719-6.146.323-.349.56-.548.858-.51zm-3.224 3.847c.135 0 1.184.952 2.332 2.118 2.392 2.429 3.267 2.946 6.936 4.101 1.316.415 2.393.82 2.393.905 0 .292-1.215 1.83-1.615 2.044-.22.118-.523.209-.67.208-.552-.006-3.637-1.186-4.785-1.83-2.945-1.652-5.781-4.604-5.784-6.032-.003-.633.695-1.515 1.193-1.515zm95.35.442c.25.05.6.273 1.086.67 1.185.971 1.19 1.46.02 2.198-.488.31-.992.563-1.118.563-.3 0-.444-.636-.496-2.138-.035-.964.093-1.376.509-1.293zm-97.85 3.451 1.501 1.642c.824.901 1.993 1.95 2.594 2.332.6.383 1.569 1.006 2.158 1.381 1.193.76 2.603 1.255 4.135 1.461.561.076 1.133.233 1.273.349.367.302.311.855-.12 1.247-1.205 1.09-6.873-.493-10.15-2.835-2.173-1.55-2.824-3.236-1.85-4.82zm72.58 3.056c-.308.082.133.497 1.401 1.226 3.688 2.122 5.862 4.315 9.295 9.396 4.039 5.977 6.328 8.718 9.188 11 3.463 2.761 4.533 3.272 7.586 3.64 2.666.32 5.322-.09 7.023-1.087.995-.583 2.867-2.845 4.564-5.522 2.297-3.625 3.005-4.214 5.643-4.624 1.65-.256 3.57.03 5.187.764 1.532.697 3.767 3.012 4.805 4.98.932 1.765 1.171 1.511.449-.476-1.144-3.15-3.354-5.604-6.407-7.117-1.535-.761-1.883-.858-3.203-.865-1.389-.008-1.62.062-3.679 1.086-2.514 1.249-3.6 2.213-5.516 4.919-.673.95-1.933 2.456-2.801 3.344l-1.582 1.615-2.191-.114c-3.895-.206-5.271-.807-8.257-3.599-1.987-1.858-2.861-3.193-5.448-8.317-3.079-6.098-5.412-9.449-6.574-9.449-.56 0-.353.591.744 2.145.475.673 1.047 1.589 1.273 2.037.448.89.777 2.145.563 2.145-.074 0-1.07-.94-2.212-2.091-2.423-2.441-3.62-3.204-6.73-4.269-1.753-.6-2.814-.846-3.122-.764zm-74.82 1.816c.062 0 .81.61 1.662 1.354.852.743 2.036 1.662 2.634 2.044 2.276 1.456 5.542 2.418 7.379 2.171.684-.091.864-.043.979.255.189.493-.51 1.754-1.154 2.078-.317.16-1.275.247-2.547.235-3.166-.03-3.901-.242-6.225-1.81-.618-.416-1.405-.901-1.75-1.078-.544-.28-.698-.564-1.18-2.165-.52-1.732-.534-1.88-.234-2.46.176-.34.373-.624.436-.624zm20.07 7.754c-.382 0-.409.14-.409 2.326 0 8.063 2.148 16.04 4.725 17.55 1.836 1.08 5.1-.275 8.645-3.592.731-.684 1.37-1.203 1.421-1.153s-.042 1.184-.208 2.52c-.375 3.024-.38 4.192-.02 4.685.276.377.293.382.865.007.321-.21 1.543-1.384 2.714-2.607s2.537-2.505 3.036-2.848c1.59-1.094 3.57-.943 3.746.288.041.291.281.535.65.664.487.17.747.117 1.582-.349 1.122-.626 1.608-.705 1.608-.254 0 .168-.182.308-.402.308-.691 0-.886.721-.764 2.842.08 1.391.333 2.69.864 4.504.92 3.14 1.148 5.73.637 7.265-.183.55-.704 1.545-1.153 2.218-.448.673-.81 1.347-.811 1.494-.003.427 1.56-.54 2.687-1.662 2.522-2.508 3.294-6.01 2.473-11.19-.387-2.443-.28-2.815.77-2.815.565 0 .575.029.564 1.072-.014 1.161.333 2.651 1.159 5.046.638 1.851.852 3.934.516 4.953-.133.403-.513 1.07-.845 1.488s-.56.806-.51.858c.17.17 1.504-.774 2.172-1.535 1.312-1.494 1.92-4.004 1.588-6.534-.084-.642-.216-1.652-.295-2.245-.12-.906-.085-1.123.221-1.347.32-.234.351-.504.262-2.212-.085-1.622-.203-2.176-.73-3.304-.545-1.163-.765-1.408-1.516-1.75-.48-.217-1.064-.399-1.3-.401-.53-.006-1.217-.63-2.084-1.89-.72-1.046-1.964-1.883-3.103-2.091-.554-.102-.84-.038-1.253.288-.295.232-.617.422-.717.422s-.627-.467-1.166-1.039c-1.288-1.365-2.066-1.68-4.1-1.669-2.585.015-4.879.857-10.37 3.8-.996.533-1.648.744-2.286.744-1.393 0-1.978-.773-4.805-6.347-2.69-5.304-3.437-6.507-4.06-6.507zm-18.5.275c.04-.04.672.148 1.401.422 2.55.96 3.84 1.212 6.286 1.226l2.346.014v1.119c0 1.029-.05 1.145-.583 1.4-.585.28-3.982.49-5.134.316-2.223-.336-2.698-.51-2.955-1.06-.602-1.284-1.427-3.37-1.36-3.437zm9.624 6.152.06.657c.117 1.21-.61 1.895-2.305 2.178-2.16.36-2.142.341-.81.764.801.254 1.531.346 2.137.275 1.158-.138 1.508.096 1.508.991 0 .847-.285 1.221-1.394 1.856-1.63.935-1.617.94-2.842-.944-.966-1.49-3.19-5.352-3.19-5.542 0-.039.941-.086 2.091-.108 1.15-.021 2.69-.056 3.418-.08zm1.166 7.573c.225.14.201 1.983-.034 2.6-.106.281-.375.612-.596.73-.349.187-.509.07-1.18-.844-.718-.978-.742-1.068-.396-1.273.206-.121.748-.463 1.206-.764.46-.3.91-.504 1-.449zm37.2 3.344c.771 0 1.923 1.205 1.923 2.017 0 .852-.246.794-.798-.188-.252-.45-.723-.956-1.052-1.126-.74-.382-.777-.703-.073-.703zm-6.527.65c-.53.052-.71.22-1.119 1.045-.55 1.11-.567 1.55-.322 7.017.126 2.804.094 3.526-.207 4.758-.418 1.703-1.366 3.223-2.292 3.686-.362.18-.595.384-.523.456.232.232.96.132 1.796-.248 1.909-.869 4.275-4.345 5.02-7.372.403-1.637.354-5.338-.087-6.782-.486-1.59-1.42-2.643-2.265-2.56zm-29.91.778c.67 0 1.025.457 1.025 1.314 0 .287-.07.518-.154.516-.167-.004-1.474-1.527-1.474-1.716 0-.064.27-.114.603-.114m19.42.08c-.159.028-.359.547-.664 1.508-1.033 3.257-.303 7.879 1.69 10.7.217.309.471.556.57.556.371 0 .431-.443.12-.918-.642-.98-.358-1.732 1.796-4.73 1.434-1.998 2.366-3.606 2.366-4.082 0-.405-.602-.184-2.118.777-1.32.838-2.335 1.018-2.768.496-.136-.163-.335-1.009-.443-1.883-.207-1.689-.345-2.463-.55-2.426zm21.78.328c.576 0 1.441.361 1.441.604 0 .246-.27.24-1.173-.02-.725-.21-.898-.584-.268-.584z" style="isolation:isolate;paint-order:stroke fill markers" transform="scale(.25)"/><path fill="#2791f1" fill-rule="evenodd" d="M146.9 130.6a5 5 0 0 0-.55-.11c-.406-.055-1.177-.466-1.727-.92-.269-.22-1.034-1.018-1.702-1.772-.667-.753-1.52-1.667-1.897-2.032-.66-.64-.674-.66-.405-.606.474.096 2.44.747 3.114 1.032 1.136.479 2.127 1.128 3.27 2.142.833.739 1.909 2.111 1.766 2.253-.085.086-1.556.096-1.871 0z" style="isolation:isolate;paint-order:stroke fill markers" transform="scale(.25)"/><path fill="#2790f1" fill-rule="evenodd" d="M164.8 137.9c-.073-.117-.204-1.883-.15-2.023.038-.1.106-.079.383.12.185.134.528.436.762.673.424.43.425.43.272.599-.158.175-1.024.71-1.148.71-.039 0-.092-.034-.12-.078z" style="isolation:isolate;paint-order:stroke fill markers" transform="scale(.25)"/></g></svg>