<svg xmlns="http://www.w3.org/2000/svg" viewBox="0 0 64 64"><defs><radialGradient id="a" cx="24" cy="24" r="23.66" fr="0" gradientTransform="matrix(1 0 0 1.014 -.337 .227)" gradientUnits="userSpaceOnUse"><stop offset=".156" stop-color="#ffea00"/><stop offset=".231" stop-color="#ffde00"/><stop offset=".365" stop-color="#ffbf00"/><stop offset=".541" stop-color="#ff8e00"/><stop offset=".763" stop-color="#ff272d"/><stop offset=".796" stop-color="#f92433"/><stop offset=".841" stop-color="#e91c45"/><stop offset=".893" stop-color="#cf0e62"/><stop offset=".935" stop-color="#b5007f"/></radialGradient></defs><path fill="none" stroke="url(#a)" stroke-linecap="round" stroke-linejoin="round" stroke-width="3.486" d="m6.207 16.36-.253 1.031m27.1 11.14s13.8-4.846 5.382-20.93m-6.521-4.315s-7.466-2.898-15.32 0m3.283-.83s-3.398.19-6.88 2.508c0 0 7.607-4.518 15.58-.645.99.656 6.999 2.895 9.286 10.37 0 0 2.469 6.441-2.153 11.98 0 0-4.052 4.187-9.56 2.576 0 0-4.432-.386-5.635-5.475 0 0-1.14-3.414 1.456-6.44m0 0s-5.571.193-5.255 8.502m0 0s-5.318-9.92 6.838-17.91c0 0-10.76-2.255-17.6 9.467 0 0 .95-4.895 1.52-6.763 0 0-7.344 5.475-4.495 19.64 0 0 2.532 8.825 11.14 13.46 0 0 8.737 5.476 20.2-.386 0 0 5.888-2.576 9.244-9.919 0 0 4.052-8.696.886-16.94 0 0-3.799-10.05-12.54-13.2" transform="translate(-.347 -.34)scale(1.3473)"/></svg>