<svg xmlns="http://www.w3.org/2000/svg" fill="none" viewBox="0 0 64 64"><defs><linearGradient id="a" x1="7.542" x2="7.542" y1="15" y2="1" gradientUnits="userSpaceOnUse"><stop offset="0" stop-color="#5570ff"/><stop offset="1" stop-color="#4dd3ff"/></linearGradient><linearGradient id="c" x1="10.62" x2="10.62" y1="15" y2="1" gradientUnits="userSpaceOnUse"><stop offset="0" stop-color="#5570ff"/><stop offset="1" stop-color="#4dd3ff"/></linearGradient></defs><path fill="url(#a)" d="m10.09 2.923 2.992 3.194c1.364 1.456 1.329 2.766-.029 4.228l-3.02 3.251c-.69.741-1.134 1.414-2.067 1.404a3.6 3.6 0 0 1-2.508-1.058l-3.395-3.395a3.593 3.593 0 0 1 0-5.093l3.395-3.395a3.59 3.59 0 0 1 2.565-1.058c.915.005 1.39 1.2 2.067 1.923z" opacity=".4" transform="translate(-4.571 -4.571)scale(4.571)"/><path fill="url(#c)" d="M8.4 1.022C8.18.997 8 1.179 8 1.4c.001.658.001 1.967-.006 2.673a.5.5 0 0 1-.131.318C7.36 4.91 6.845 5.412 6.34 5.928c-.064.066-.09.177-.09.268-.008 1.098-.001 2.197 0 3.295 0 .032-.004.065-.002.097 0 .014.009.027.019.037.016.016.04.015.057-.002.855-.856 1.844-1.927 2.75-2.867a.394.394 0 0 1 .677.276c.002.77.004 1.593-.001 2.288 0 .072-.065.158-.118.213-.423.431-1.06 1.21-1.492 1.633a.43.43 0 0 0-.143.34c.005 1.183.01 2.258.011 3.44a.05.05 0 0 0 .052.05 3.6 3.6 0 0 0 2.486-1.055l3.396-3.395a3.593 3.593 0 0 0 0-5.093l-3.396-3.395a3.6 3.6 0 0 0-2.146-1.036z" transform="translate(-4.571 -4.571)scale(4.571)"/></svg>