<svg version="1.1" viewBox="0 0 64 64" xmlns="http://www.w3.org/2000/svg">
 <defs>
  <linearGradient id="a" x1="1" x2="0" y1="1">
   <stop stop-color="#fe8c19" offset="0"/>
   <stop stop-color="#fe19d9" offset="1"/>
  </linearGradient>
  <linearGradient id="b" y1="1">
   <stop stop-color="#46d9ff" offset="0"/>
   <stop stop-color="#ff23ff" offset=".5"/>
   <stop stop-color="#ffd93f" offset="1"/>
  </linearGradient>
 </defs>
 <path transform="translate(-1e-6 1e-5) scale(1) translate(.004829 .00212) scale(.9999) translate(.791 .7972) scale(.9754)" d="m48.88 36.32c-1.332 0-2.432 1.097-2.432 2.43v13.5c0 1.332 1.099 2.43 2.432 2.43h10.12c3.184 0 5.803-2.619 5.803-5.803v-6.752c0-3.184-2.619-5.803-5.803-5.803zm2.43 4.859h7.695c0.5703 0 0.9414 0.3732 0.9414 0.9434v6.752c0 0.5703-0.3713 0.9434-0.9414 0.9434h-7.695z" fill="url(#a)"/>
 <path transform="translate(-1e-6 1e-5) scale(1) translate(.004829 .00212) scale(.9999) matrix(.9754 0 0 .9754 .791 .7972)" d="m25.24 19.44c-6.908 0-12.56 5.647-12.56 12.56 0 6.908 5.647 12.56 12.56 12.56 6.908 0 12.56-5.647 12.56-12.56 0-6.908-5.647-12.56-12.56-12.56zm0 4.859c4.282 0 7.695 3.413 7.695 7.695s-3.413 7.695-7.695 7.695-7.695-3.413-7.695-7.695 3.413-7.695 7.695-7.695z" fill="url(#a)"/>
 <path transform="translate(-1e-6 1e-5) scale(1) translate(.004829 .00212) scale(.9999) matrix(.9754 0 0 .9754 .791 .7972)" d="m25.23 5.938a0.8101 0.8101 0 0 0-0.0059 0.00391c-14.36 0.00699-26.04 11.7-26.04 26.05 0 14.36 11.69 26.05 26.05 26.05h20.25c3.184 0.0015 5.81-2.618 5.81-5.803v-20.25c4e-5 -14.36-11.7-26.05-26.07-26.05zm0.0059 4.863h0.0059c11.74 9.24e-4 21.19 9.457 21.19 21.19v20.25c0 0.5692-0.3743 0.9434-0.9453 0.9434h-20.25c-11.74 0-21.19-9.456-21.19-21.19 0-11.73 9.456-21.19 21.19-21.19a0.8101 0.8101 0 0 0 0.0059-0.0039z" fill="url(#b)"/>
</svg>
