<svg xmlns="http://www.w3.org/2000/svg" viewBox="0 0 64 64"><defs><linearGradient id="a" x1="1" x2="0" y1="1"><stop offset="0" stop-color="#fe8c19"/><stop offset="1" stop-color="#fe19d9"/></linearGradient></defs><path fill="url(#a)" d="M22.5 6c-5.83 0-11.43 2.32-15.56 6.44C2.82 16.57.499 22.171.499 28S2.82 39.43 6.94 43.56a22.05 22.05 0 0 0 17.93 6.311l1.239-.133a22 22 0 0 0 8.32-.298h19.07a2 2 0 0 0 2-2V40a2 2 0 0 0-2-2h-4.405a22.005 22.005 0 0 0-4.036-25.56A22.05 22.05 0 0 0 29.498 6c-1.126 0-2.244.087-3.343.257l-1.447-.147c-.73-.07-1.47-.11-2.21-.11zm7 3c5.04 0 9.87 2 13.44 5.56a19.03 19.03 0 0 1 0 26.88 19.03 19.03 0 0 1-26.88 0C12.5 37.87 10.5 33.04 10.5 28s2-9.87 5.56-13.44A19.03 19.03 0 0 1 29.5 9m-12.27.757a20.8 20.8 0 0 0-3.292 2.682c-4.12 4.13-6.44 9.731-6.44 15.56s2.32 11.43 6.44 15.56a20.7 20.7 0 0 0 3.292 2.682 18.8 18.8 0 0 1-8.161-4.802 19 19 0 0 1 0-26.88 18.8 18.8 0 0 1 8.161-4.803zm12.27 10.24c-4.415 0-8.001 3.586-8.001 8.001s3.586 8 8.001 8 8-3.584 8-8-3.584-8-8-8m0 3c1.33 0 2.599.53 3.539 1.46.93.94 1.46 2.21 1.46 3.54s-.53 2.6-1.46 3.54c-.94.93-2.209 1.46-3.539 1.46s-2.6-.531-3.54-1.46c-.93-.94-1.46-2.21-1.46-3.54s.53-2.6 1.46-3.54c.94-.93 2.21-1.46 3.54-1.46m17.75 18h5.25v5.44h-11a22 22 0 0 0 3.56-2.88 22 22 0 0 0 2.19-2.56" transform="translate(-.58 -.582)scale(1.16365)"/></svg>