<svg style="isolation:isolate" version="1.1" viewBox="0 0 64 64" xmlns="http://www.w3.org/2000/svg">
 <linearGradient id="a" transform="translate(-.004674 .007612) scale(.9997) translate(-.752 -.72) scale(1.364)" x1=".091" x2=".866" y1=".254" y2=".858" gradientTransform="matrix(46.93 0 0 45.62 .552 1.183)" gradientUnits="userSpaceOnUse">
  <stop stop-color="#df57ff" offset=".013"/>
  <stop stop-color="#241efc" offset=".521"/>
  <stop stop-color="#0eaffe" offset=".979"/>
 </linearGradient>
 <path transform="translate(-.004674 .007612) scale(.9997) translate(-.752 -.72) scale(1.364)" d="M13.47 46.73q.258.073.578.071l22.73-.112c1.238-.006 2.729-.892 3.327-1.977l7.068-12.83a2.24 2.24 0 0 0-.778-3.07 2.255 2.255 0 0 0-3.082.778L36.475 42.2l-20.91.104-10.33-17.69 6.961-12.52a2.246 2.246 0 0 0-.526-3.133 2.25 2.25 0 0 0-3.133.537L1.02 22.438c-.622 1.071-.62 2.809.004 3.878l11.48 19.67q.071.162.184.299.005.017.014.021c.221.317.494.468.765.432zm29.78-28.52a2.255 2.255 0 0 0 3.089.748 2.24 2.24 0 0 0 .748-3.078L39.892 3.12c-.608-1.078-2.107-1.949-3.346-1.943l-15.77.078c-1.238.006-2.112 1.004-1.949 2.227.167 1.252 1.332 2.264 2.6 2.258l14.86-.074 6.962 12.54zm-5.343 9.125h-17.13V35.8c0 .544-.43.885-.959.763l-.641-.148c-.529-.122-1.176-.605-1.443-1.078l-6.019-10.66c-.214-.378-.21-.99.009-1.366l6.097-10.45c.219-.376.617-.857.889-1.074s.845-.394 1.28-.394H32c.326 0 .804.158 1.065.352l.233.172c.261.194.608.58.772.861l1.667 2.857c.22.375.045.68-.39.68h-14.57v5.709l18.31.385c.217.005.511.139.657.301.655.725.854 1.711-.067 3.054-.55.472-.745.999-.745.999-.132.318-.592.576-1.027.576z" fill="url(#a)" fill-rule="evenodd"/>
</svg>
