<svg xmlns="http://www.w3.org/2000/svg" style="isolation:isolate" viewBox="0 0 64 64"><linearGradient id="a" x1=".008" x2="1.033" y1="1.039" y2="-.066" gradientTransform="scale(48)" gradientUnits="userSpaceOnUse" transform="scale(1.333)"><stop offset="0" stop-color="#5433ff"/><stop offset=".517" stop-color="#20bdff"/><stop offset=".983" stop-color="#a5fecb"/></linearGradient><path fill="url(#a)" fill-rule="evenodd" d="M3.349 20.13v-6.18c0-1.038.413-2.031 1.15-2.757a3.87 3.87 0 0 1 2.757-1.149h.558V4.06a4.03 4.03 0 0 1 1.194-2.869 4.03 4.03 0 0 1 2.869-1.194h32.06a4.03 4.03 0 0 1 2.869 1.194A4.03 4.03 0 0 1 48 4.06v32.06a4.03 4.03 0 0 1-1.194 2.869 4.03 4.03 0 0 1-2.869 1.194h-5.984v.558a3.87 3.87 0 0 1-1.149 2.757 3.87 3.87 0 0 1-2.757 1.15h-6.18a3.85 3.85 0 0 1-1.11 2.199A3.87 3.87 0 0 1 24 47.997H3.91a3.87 3.87 0 0 1-2.757-1.15 3.87 3.87 0 0 1-1.15-2.757V24c0-1.038.413-2.032 1.15-2.757a3.85 3.85 0 0 1 2.199-1.11zm3.349-.04v-6.14a.52.52 0 0 1 .167-.39.52.52 0 0 1 .391-.168h26.79a.52.52 0 0 1 .39.168.52.52 0 0 1 .168.39v26.79c0 .145-.056.29-.168.391a.52.52 0 0 1-.39.167h-6.14v-17.3a3.87 3.87 0 0 0-1.15-2.757 3.87 3.87 0 0 0-2.757-1.15zm4.465-10.05h22.88a3.87 3.87 0 0 1 2.757 1.149 3.87 3.87 0 0 1 1.149 2.757v22.88h5.984c.19 0 .368-.078.502-.212s.212-.312.212-.502V4.052c0-.19-.078-.368-.212-.502s-.312-.212-.502-.212h-32.06c-.19 0-.368.078-.502.212s-.212.312-.212.502v5.984zm-2.791 17.3v14.51h3.349v-5.581h7.814v-2.232h-7.814v-4.466h7.814v-2.232H8.372zm-4.465-3.907h20.09c.145 0 .29.056.391.167a.53.53 0 0 1 .167.391v20.09c0 .145-.056.29-.167.391a.53.53 0 0 1-.391.167H3.907a.53.53 0 0 1-.391-.167.53.53 0 0 1-.167-.391v-20.09c0-.145.056-.29.167-.391a.53.53 0 0 1 .391-.167" transform="scale(1.333)"/></svg>