<svg xmlns="http://www.w3.org/2000/svg" xmlns:xlink="http://www.w3.org/1999/xlink" viewBox="0 0 64 64"><defs><linearGradient id="a" x1="8" x2="8" y1="14.67" y2="12" gradientUnits="userSpaceOnUse"><stop offset="0" stop-color="#5558ff"/><stop offset="1" stop-color="#00c0ff"/></linearGradient><linearGradient xlink:href="#a" id="c" x1="5.916" x2="10.08" y1="13.33" y2="13.33" gradientTransform="translate(-2.519 -2.519)scale(4.315)" gradientUnits="userSpaceOnUse"/><linearGradient xlink:href="#a" id="g" x1=".584" x2="15.42" y1="11.67" y2="11.67" gradientTransform="translate(-2.519 -2.519)scale(4.315)" gradientUnits="userSpaceOnUse"/><linearGradient xlink:href="#a" id="f" x1="7.059" x2="8.94" y1=".333" y2="11" gradientTransform="translate(-2.519 -2.519)scale(4.315)" gradientUnits="userSpaceOnUse"/><linearGradient id="b" x2="0" y1="1"><stop offset="0" stop-color="#6203ff"/><stop offset=".704" stop-color="#e901ff"/></linearGradient><linearGradient xlink:href="#b" id="h" x1=".094" x2=".094" y1="63.92" y2="-.001" gradientTransform="matrix(.4891 0 0 .4906 16.33 8.791)" gradientUnits="userSpaceOnUse"/><linearGradient xlink:href="#b" id="i" x1="16.67" x2="16.67" y1="46.5" y2="18.67" gradientTransform="matrix(.5025 0 0 .4775 16.33 8.791)" gradientUnits="userSpaceOnUse"/></defs><path fill="url(#c)" d="M32 46.03c-4.928 0-8.993 4.066-8.993 8.993s4.066 8.984 8.993 8.984 8.993-4.057 8.993-8.984c0-4.928-4.066-8.993-8.993-8.993m0 6.473c1.429 0 2.52 1.091 2.52 2.52s-1.091 2.511-2.52 2.511-2.52-1.083-2.52-2.511 1.091-2.52 2.52-2.52" transform="translate(0 .002)scale(.9999)"/><path fill="url(#f)" d="M21.83.002c-1.778 0-2.787-.03-3.961.176-4.47.786-8.138 4.087-9.035 8.506-.242 1.183-.203 2.164-.203 3.809v13.18c0 3.524-.022 6.235.33 8.664.352 2.43 1.246 4.785 3.059 6.473v.01c1.814 1.683 4.182 2.43 6.719 2.746 2.535.316 5.441.304 9.238.304h8.057c3.797 0 6.701.012 9.238-.304 2.536-.317 4.902-1.07 6.719-2.756 1.815-1.684 2.707-4.033 3.059-6.463s.33-5.148.33-8.674v-4.121c0-2.461.025-4.372-.219-6.172-.243-1.794-.887-3.661-2.234-5.057l-.008-.008a9 9 0 0 0-.7-.65c-1.489-1.243-3.332-1.773-5.19-1.989s-3.908-.2-6.56-.2h-.75c-2.326 0-3.209-.037-3.74-.179l-.01-.007a5 5 0 0 1-1.035-.397h-.01c-.465-.242-1.09-.778-2.723-2.293h-.008l-1.104-1.035h-.01c-.55-.507-.885-.823-1.322-1.164l-.017-.017A11.6 11.6 0 0 0 23.666.042h-.01c-.563-.048-1.044-.043-1.82-.043h-.004zm8.273 7.686-.012.146c1.374-.02 2.74.008 3.988-.017a3 3 0 0 1 .246-.014h.008c.8 0 1.51.309 2.051.742a3.8 3.8 0 0 1 1.258 1.865c.36 1.018.44 1.826.606 2.408.335.229.734.458 1.166.694.749-.272 1.523-.588 2.453-.813l.006-.002.002-.002h.003l.116-.027h.004c1.382-.302 2.978.157 3.79 1.516a61 61 0 0 1 2.097 3.578l.013.025q.016.025.028.05l.005.013.006.014c.164.346.44.862.586 1.52.155.692.115 1.609-.465 2.383-.841 1.148-1.825 1.718-2.424 2.266a7 7 0 0 0-.035.927c.195.253.463.527.906.88.552.437 1.291 1.026 1.76 1.98.604 1.101.405 2.362-.203 3.265-.803 1.325-1.613 2.68-2.502 4.014l-.006.008-.005.01-.008.01-.035.054-.01.01c-1.068 1.475-3.036 1.625-4.46.926-.188-.09-.623-.209-1.138-.397-.518-.19-1.202-.514-1.707-1.19-1.307-1.692.156-4.199 2.244-4.077q.023 0 .047 0h.002l.037.004h.011c.585.056.932.252 1.348.418q.406-.638.813-1.303c-.291-.237-.556-.443-.875-.742-.665-.623-1.371-1.491-1.561-2.686v-.002a2 2 0 0 1-.014-.115v-.008a18 18 0 0 1 .059-3.355q.015-.131.055-.258v-.002c.47-1.505 1.518-2.284 2.344-2.912q-.363-.628-.73-1.275c-.402.146-.765.284-1.269.43-.946.275-2.189.417-3.389-.207a1 1 0 0 1-.098-.055l-.005-.004-.004-.002c-.482-.307-1.22-.64-1.975-1.119-.763-.483-1.606-1.193-2.02-2.314l-.006-.011-.004-.012q-.014-.044-.025-.088c-.168-.603-.29-1.153-.42-1.709q-.813.002-1.627-.002c-.147.725-.256 1.457-.674 2.2-.757 1.353-2.042 1.927-2.812 2.39l-.028.018-.019.01-.01.003c-.506.292-1.347.917-2.557.975-1.279.075-2.227-.313-2.992-.615-.253.408-.514.82-.775 1.238.344.286.685.58 1.04.92h.055l.295.306c.78.816 1.058 1.811 1.127 2.715a7.34 7.34 0 0 1 2.406-4.457 8.1 8.1 0 0 1 3.402-1.832h.002v-.002l.002-.002h.002l.121-.033h-.277l.215-.217.361.178c.35-.077.7-.158 1.055-.185a8 8 0 0 1 .645-.024h.007c3.252.02 6.385 1.98 7.486 5.064 1.455 3.673-.487 7.967-4.19 9.514-3.48 1.605-7.81.443-9.946-2.656a7.14 7.14 0 0 1-1.29-3.164c-.04.72-.213 1.588-.856 2.367-.547.68-1.124 1.084-1.68 1.52.25.438.502.888.762 1.342.932-.391 2.096-.89 3.623-.588h.002l.06.014c1.208.296 2.014.966 2.574 1.266l.008.004c.966.496 2.12 1.309 2.541 2.732l.006.015.006.024c.14.53.255 1.077.375 1.62q.756.003 1.52.003c.01-.054.009-.08.021-.137.136-.623.5-1.443 1.336-1.922.904-.542 1.95-.424 2.71.02.767.448 1.392 1.343 1.282 2.422-.01.81-.102 1.757-.517 2.68v.002c-.447.99-1.338 1.946-2.658 2.25h-.002l-.004.002q-.134.03-.27.033c-1.962.063-3.855-.037-5.664.012h-.004c-.3.006-.597-.083-.844-.256v-.002h-.001c-.081-.058-.97-.43-1.402-1.365v-.002l-.016-.022-.037-.097c-.462-1.188-.642-2.298-.87-3.318q-.608-.376-1.208-.706c-.736.272-1.505.566-2.38.793l-.074.038-.113.027c-1.479.345-3.085-.252-3.87-1.617l-.003-.002a71 71 0 0 1-2.084-3.58l-.002-.006-.004-.006-.021-.043c-.214-.437-.47-1.005-.566-1.69-.101-.715.013-1.598.595-2.329l.008-.008.006-.007.031-.037.002-.002c.83-.944 1.677-1.51 2.301-2.08.007-.342.006-.656-.002-.903-.274-.295-.63-.61-1.12-1.016-.622-.513-1.399-1.227-1.753-2.342-.482-1.42.307-2.617.676-3.217l.008-.011.004-.008v-.002h.004v-.002l.011-.022c.702-1.102 1.376-2.296 2.186-3.482l.053-.074.006-.006v-.002c.873-1.193 2.436-1.657 3.834-1.19l.03.007.013.004.01.002.025.01.025.008a86 86 0 0 0 2.154.779c.455-.263.899-.516 1.215-.748.06-.077.109-.168.16-.49.058-.357.083-.956.327-1.633.123-.353.299-.876.658-1.4h-.002c.315-.461.862-.867 1.539-1.082l.176-.149.271-.015 1.195-.155zm1.609 14.26a2.4 2.4 0 0 0-.707.086l-.027.008-.03.006h-.006c-1.013.255-1.848 1.284-1.88 2.16l-.002.044-.002.008c-.058.795.486 1.76 1.312 2.186l.007.004.01.004.008.006c.89.48 2.347.315 3.072-.33l.027-.024h.002l.002-.002h.002v-.001c.722-.607.998-1.71.678-2.514l-.016-.038-.002-.01c-.276-.76-1.225-1.46-2.207-1.575q-.119-.015-.242-.018z" transform="translate(0 .002)scale(.9999)"/><path fill="url(#g)" d="M32 37.4a3.236 3.236 0 0 0-3.236 3.236v8.63A3.236 3.236 0 0 0 32 52.502a3.236 3.236 0 0 0 3.236-3.236v-8.63A3.236 3.236 0 0 0 32 37.4M3.24 51.79a3.236 3.236 0 0 0-3.236 3.236 3.236 3.236 0 0 0 3.236 3.236h23.01a3.236 3.236 0 0 0 3.236-3.236 3.236 3.236 0 0 0-3.236-3.236zm34.52 0a3.236 3.236 0 0 0-3.236 3.236 3.236 3.236 0 0 0 3.236 3.236h23.01a3.236 3.236 0 0 0 3.236-3.236 3.236 3.236 0 0 0-3.236-3.236z" opacity=".5" transform="translate(0 .002)scale(.9999)"/><g stroke-width=".49"><path fill="url(#h)" d="M34.33 8.803q-.115 0-.234.013c-1.662.034-3.352-.086-5.07.02L29 8.86v-.023c-.571.074-.99.426-1.255.815-.266.387-.416.82-.538 1.17-.184.51-.211 1.018-.281 1.456-.07.43-.175.774-.421 1.05-.533.416-1.184.748-1.83 1.135a87 87 0 0 1-2.623-.948l-.007-.002c-1.023-.367-2.198-.01-2.805.87l-.001.003c-.784 1.149-1.458 2.34-2.185 3.48l-.004.005c-.375.61-.902 1.447-.58 2.38.259.835.854 1.4 1.442 1.885.562.465 1.107.879 1.48 1.358.06.536.004 1.133.007 1.772-.742.768-1.744 1.382-2.551 2.301l-.014.016c-.382.48-.461 1.056-.389 1.568s.277.985.475 1.389l.008.015A69 69 0 0 0 19 34.117c.544.947 1.715 1.391 2.78 1.142l.004-.001c1.023-.25 1.965-.637 2.902-.97.664.345 1.31.736 1.959 1.138.284 1.171.47 2.404.939 3.61l.003.007c.244.597.8.817 1.097 1.027a.4.4 0 0 0 .245.074c1.865-.05 3.755.05 5.663-.012a.4.4 0 0 0 .078-.01c.982-.227 1.62-.911 1.97-1.687.344-.76.444-1.613.448-2.353.075-.639-.309-1.187-.804-1.476-.494-.288-1.15-.36-1.7-.024-.527.296-.762.811-.863 1.277-.076.349-.102.642-.14.925-1.062-.002-2.119.002-3.173-.004a38 38 0 0 0-.548-2.365l-.003-.011c-.307-1.037-1.193-1.694-2.051-2.133-.695-.37-1.402-.948-2.353-1.181l-.017-.004c-1.504-.298-2.737.468-3.872.846-.522-.947-1.075-1.862-1.586-2.782.72-.586 1.533-1.15 2.173-1.95.792-.954.588-2.149.635-3.017.057-.97-.064-2.098-.856-2.926h-.001c-.622-.646-1.313-1.179-1.962-1.73.568-.882 1.102-1.774 1.654-2.643.988.284 2.045.917 3.359.837.885-.041 1.558-.531 2.143-.863l.008-.005c.836-.502 1.884-1 2.454-2.023v-.001c.486-.862.683-1.8.816-2.708 1.047.01 2.094.008 3.139.002.203.797.37 1.616.599 2.442l.01.032c.31.838.945 1.39 1.618 1.817s1.398.75 1.976 1.118l.032.018c.902.47 1.825.373 2.649.133.722-.21 1.379-.494 2.004-.681.512.925 1.05 1.825 1.562 2.728-.91.805-2.224 1.521-2.677 2.971a.4.4 0 0 0-.015.076 17 17 0 0 0-.056 3.175l.004.034c.142.893.67 1.562 1.257 2.112.503.471 1.033.865 1.498 1.269-.562.906-1.102 1.812-1.678 2.684-.559-.235-1.154-.532-1.884-.601h-.002c-1.308-.128-2.258 1.449-1.452 2.475.336.456.81.69 1.258.853.45.165.89.274 1.227.435l-.007-.004c1.065.532 2.54.406 3.265-.664l.002-.003c.88-1.32 1.69-2.675 2.503-4.016.434-.644.57-1.516.157-2.25-.35-.73-.949-1.214-1.503-1.654-.536-.425-1.009-.823-1.299-1.3-.01-.631-.037-1.233.086-1.756.727-.773 1.827-1.358 2.585-2.397.37-.492.4-1.074.29-1.568-.111-.495-.34-.94-.515-1.311l-.01-.022a59 59 0 0 0-2.091-3.57c-.573-.956-1.788-1.293-2.817-1.03h-.001c-1 .24-1.911.627-2.82.937-.677-.369-1.343-.716-1.907-1.143-.307-.804-.338-1.77-.695-2.756a2.8 2.8 0 0 0-.932-1.378 2.3 2.3 0 0 0-1.43-.525z" transform="translate(0 .002)scale(.9999)"/><path fill="url(#i)" d="M31.72 17.71q-.285-.002-.571.02-.65.05-1.287.228l-.003-.001-.006.002h-.004l.001.002a7.1 7.1 0 0 0-2.996 1.61c-2.434 2.13-2.86 5.904-.966 8.486 1.834 2.67 5.712 3.722 8.729 2.322 3.222-1.333 4.913-5.11 3.66-8.25-.934-2.641-3.706-4.402-6.56-4.42zm.02 3.237q.167.004.335.024c1.34.157 2.601 1.037 3.034 2.235l.004.012c.493 1.24.092 2.763-.968 3.651l-.008.008c-1.09.968-2.91 1.164-4.212.461l-.008-.004c-1.184-.608-1.945-1.902-1.853-3.15l.001-.015c.052-1.394 1.187-2.728 2.64-3.093l.032-.006a3.4 3.4 0 0 1 1.003-.123z" transform="translate(0 .002)scale(.9999)"/></g></svg>