<svg version="1.1" viewBox="0 0 64 64" xmlns="http://www.w3.org/2000/svg">
 <defs>
  <linearGradient id="a" x2="0" y2="1">
   <stop stop-color="#f10" offset="0"/>
   <stop stop-color="#ff115a" offset="1"/>
  </linearGradient>
 </defs>
 <path transform="translate(0) scale(1) translate(0) scale(1) translate(0) scale(1) translate(0) scale(1) translate(0) scale(1) translate(.000446 -8e-5) scale(1) translate(-.003 -.001) scale(.9999)" d="M12.18 5c-1.318-.004-2.632.045-3.929.288-4.547.943-8.134 4.879-8.214 9.19-.058 11.26.004 22.53-.032 33.8-.027 1.665.162 3.367.945 4.886 1.659 3.496 5.669 5.875 9.81 5.834 14.31-.004 28.63.033 42.94-.016 5.406-.082 10.21-4.476 10.27-9.463.044-6.741.014-13.48.014-20.21.16-1.29-.904-2.574-2.326-2.661-1.45-.177-2.883.965-2.847 2.32-.05 6.028-.01 12.06-.018 18.09-.027 1.412.174 2.91-.528 4.224-.876 1.75-2.889 2.96-4.99 2.952-13.58.025-27.16-.005-40.74.016-1.292-.009-2.643.083-3.859-.395-2.043-.758-3.486-2.702-3.45-4.736-.022-10.86.008-21.7-.014-32.56.009-1.29-.108-2.657.55-3.847.956-1.878 3.202-3.062 5.446-2.927 3.264.07 6.549-.136 9.804.103 2.347 1.017 3.668 3.297 5.653 4.784 1.623 1.355 3.804 2.101 5.99 2.113 9.55.008 19.1.054 28.65.042 1.225.074 2.4-.755 2.629-1.871.415-1.441-.983-2.985-2.601-2.857-9.402-.054-18.81-.066-28.21-.066-.97.017-1.971-.19-2.744-.742-2.102-1.647-3.65-3.875-6.002-5.246-2.468-1.42-5.486-.938-8.24-1.016-1.312.04-2.634-.016-3.952-.02z" fill="url(#a)"/>
 <path transform="translate(0) scale(1) translate(0) scale(1) translate(0) scale(1) translate(0) scale(1) translate(0) scale(1) translate(.000446 -8e-5) scale(1)" d="M33.13 21.02c-.833-.002-1.493.118-1.842.504-.164.182-.279.472-.446.94s-.357 1.091-.575 1.864c-.435 1.545-.963 3.671-1.549 6.242-.852 3.736-.257 5.936.34 7.134.371.742.68 1.313.763 2.042.083.73-.047 1.644-.622 3.096-.414 1.047-.832 1.654-1.22 2.006-.375.34-.72.455-1.08.505-.958-.228-1.794-.35-2.44-.352-.328 0-.617.031-.845.105-.228.075-.415.208-.493.423-.107.294.03.588.27.868.239.28.6.568 1.056.869.911.6 2.222 1.23 3.718 1.77 1.497.54 2.896.887 3.976 1.01.54.06 1.01.072 1.373.011.361-.061.655-.199.762-.492.078-.215.02-.44-.106-.645s-.323-.41-.574-.622c-.497-.42-1.224-.877-2.113-1.314-.385-.395-.716-.71-.891-1.198-.18-.502-.211-1.222.094-2.452.6-2.42 1.32-3.131 2.182-3.683.861-.551 1.928-.926 3.048-2.488 1.875-2.612 2.379-4.641 3.449-7.662.569-1.605.97-2.776 1.22-3.588.126-.407.212-.719.259-.963s.092-.404 0-.587c-.542-1.079-1.865-1.886-3.345-2.452-1.479-.566-3.128-.888-4.377-.89zm.165 1.114c.87.008 2.004.216 2.91.54.987.353 1.924.774 2.592 1.173.335.2.599.385.763.55.164.167.205.294.199.329-.232 1.31-.674 2.327-.891 2.886-.485-.318-1.031-.322-1.549-.152-.61.201-1.232.583-1.901.868s-1.363.476-2.136.329c-.751-.143-1.597-.618-2.546-1.69.038-.145.755-2.883 1.267-4.516.016-.053.11-.155.34-.223s.567-.097.95-.094z" fill="url(#a)"/>
</svg>
