<svg xmlns="http://www.w3.org/2000/svg" viewBox="0 0 64 64"><defs><linearGradient id="a" x2="0" y1="1"><stop offset="0" stop-color="#0500ff"/><stop offset="1" stop-color="#4ad7ff"/></linearGradient></defs><path fill="url(#a)" d="M8.082 3a2.38 2.38 0 0 0-1.672.666L.57 9.32c-.36.346-.561.818-.57 1.312a1.864 1.864 0 0 0 3.162 1.373l1.61-1.559 1.976 1.998a1.854 1.854 0 0 0 2.634.014 1.87 1.87 0 0 0 .014-2.642L7.453 7.853V7.85l.605-.584 4.766 4.723a1.854 1.854 0 0 0 2.634-.014 1.857 1.857 0 0 0-.014-2.636l-5.7-5.654a2.37 2.37 0 0 0-1.662-.685z" transform="matrix(4 0 0 4 .003 .003)"/></svg>