<svg xmlns="http://www.w3.org/2000/svg" viewBox="0 0 64 64"><defs><linearGradient id="a" x2="0" y1="1"><stop offset="0" stop-color="#ff001e"/><stop offset="1" stop-color="#ff004b"/></linearGradient><linearGradient id="b" y1="1"><stop offset="0" stop-color="#00f0ff"/><stop offset="1" stop-color="#85fff0"/></linearGradient></defs><path fill="url(#a)" d="M127.9 35.88c-20.02 0-37.82 3.186-50.69 6.369-6.435 1.591-11.64 3.185-15.27 4.4-1.818.608-3.242 1.12-4.246 1.496-.502.188-.896.34-1.211.467-.157.063-.283.115-.46.191-.09.038-.163.066-.423.19-.13.061-.21.07-.855.457q-.028.016-.073.05a10 10 0 0 0-2.486 2.152l-.021.02.002.004a10 10 0 0 0-2.273 6.676v.006l-.006-.006 2.627 81.94-.006-.36q-.001.01.01.266l.002.016v.017l.002.06v-.048c.006.13.071.63.086.838.028.438.05.65.158 1.543.12 1.05.402 2.404.72 4.039.174.883.266 1.534.518 2.56.133.545.29 1.06.448 1.642a66 66 0 0 0 2.389 7.158c1.325 3.323 2.997 6.869 5.27 10.57 9.349 15.24 27.74 33.27 62.21 46.81h.002a10 10 0 0 0 1.186.383h.002a10 10 0 0 0 1.225.232 10 10 0 0 0 2.492 0 10 10 0 0 0 2.412-.615h.002c34.47-13.54 52.86-31.57 62.21-46.81 2.277-3.712 3.95-7.262 5.275-10.59a66 66 0 0 0 2.39-7.164c.154-.561.305-1.062.434-1.59.263-1.064.36-1.743.537-2.652.313-1.612.592-2.944.71-3.982.102-.85.123-1.038.152-1.477.016-.227.083-.75.09-.889v.04l.002-.048v-.004q0-.022.002-.043.011-.256.01-.265l-.006.36 2.627-81.94-.006.005v-.006a10 10 0 0 0-2.273-6.676l.002-.004-.022-.02a10 10 0 0 0-2.486-2.151q-.045-.034-.072-.051c-.646-.387-.726-.395-.856-.457-.26-.123-.333-.151-.422-.19a20 20 0 0 0-.46-.19 59 59 0 0 0-1.212-.468 126 126 0 0 0-4.246-1.496c-3.636-1.216-8.839-2.809-15.27-4.4-12.87-3.183-30.66-6.369-50.69-6.369h-.164zm.082 20c.111 0 .207.017.318.018 7.993.012 15.51.71 22.6 1.615 2.236.288 4.37.61 6.471.953 3.414.555 6.421 1.178 9.443 1.82 7.615 1.652 14.8 3.458 19.03 4.82l-2.392 74.55a10 10 0 0 0-.004.34s.315 6.76-6.676 18.14c-6.697 10.91-20.31 25.14-48.79 37.08-28.48-11.94-42.09-26.17-48.79-37.08-6.99-11.38-6.676-18.14-6.676-18.14a10 10 0 0 0-.003-.34l-2.393-74.55c4.233-1.363 11.42-3.17 19.03-4.82 3.023-.643 6.03-1.265 9.443-1.82 2.102-.344 4.234-.665 6.47-.953 7.083-.905 14.6-1.603 22.6-1.615.112 0 .208-.018.319-.018" transform="translate(-13.448 -12.74)scale(.3551)"/><path fill="url(#b)" d="m108 85.94-13.1.002c-7.162 0-10.94 4.82-10.94 12.31v3.707H108zm8.01.002v16.02h24.04v-16.02zm32.04 0v16.02h24.04v-3.709c0-7.495-3.776-12.31-10.94-12.31zm-64.09 24.03v16.02h24.03v-16.02zm64.09 0v16.02h24.04v-16.02zm-40.06 24.03-24.03.002v3.707c0 7.495 3.774 12.31 10.94 12.31H108zm8.012.002v16.02h24.03v-16.02zm32.04 0v16.02h13.1c7.162 0 10.94-4.818 10.94-12.31v-3.709z" transform="translate(-13.448 -12.74)scale(.3551)"/></svg>