<svg xmlns="http://www.w3.org/2000/svg" viewBox="0 0 64 64"><defs><linearGradient id="a" x2="0" y2="1"><stop offset="0" stop-color="#ffc100"/><stop offset="1" stop-color="#ff0069"/></linearGradient></defs><path fill="url(#a)" d="M8.869 1.008a8.6 8.6 0 0 0-3.262.818C2.406 3.444.086 7.591 1.351 11.064c1.954 5.24 9.148 5.161 11.58.29.722-1.787 1.253-3.056-.734-4.752v2.1l-.7-1.4s-.621 1.47-1.28 2.138c-.919.932-2.22.663-2.22.663.246.928 2.1 1.398 2.1 1.398-4.814 2.278-4.955-1.53-4.9-2.45.158-2.648 2.288-4.704 5.094-4.556.895.068 2.607.707 2.607.707-.644-1.474-1.563-1.824-2.102-2.1 2.113-.699 3.242 1.507 4.201 2.777H15c-.902-3.813-3.566-4.983-6.13-4.871z" transform="translate(-4.567 -4.573)scale(4.571)"/></svg>