<svg xmlns="http://www.w3.org/2000/svg" viewBox="0 0 64 64"><defs><linearGradient id="a" y1=".5" y2=".5"><stop offset="0" stop-color="#00fffa"/><stop offset="1" stop-color="#0078ff"/></linearGradient></defs><path fill="url(#a)" d="M8.422 10.64c-1.031 0-.941 3.332-.941 7.043 0 1.977-.211 7.922-.407 13.22 1.754-.254 4.051-1.195 5.172-2.188.45-.394 1.04-1.043 1.664-1.773-.082-.086-.164-.176-.246-.254-3.28-3.18-2.617-16.04-5.242-16.04zm48.77 0c-2.625 0-1.969 12.86-5.246 16.04-.203.203-.41.418-.629.652.496.567.95 1.055 1.312 1.375 1.293 1.133 4.137 2.207 5.914 2.25-.195-5.305-.418-11.3-.418-13.28 0-3.71.094-7.043-.933-7.043zm-33.11 11.28c-2.031 0-4.383 2.812-6.871 5.801-.469.559-.918 1.102-1.352 1.602-.586.684-1.133 1.281-1.629 1.746a5 5 0 0 1-.223.207c-.816.719-1.996 1.391-3.266 1.906-1.527.621-3.195 1.023-4.5 1.023-.894 0-1.25-.2-1.34-.258-.61-.422-1.195-.637-1.75-.637-.78 0-1.445.458-1.723 1.212-.351.914-.058 2.047.77 3.023 2.387 2.809 7.578 4.52 14.4 4.797.656.027 1.324.042 2.02.042h.164c5.066-.062 9.62-3.07 12.22-5.894a1.93 1.93 0 0 1 1.363-.609h.004l.023.016.098-.016h.016c.136 0 .824.031 1.363.61 2.559 2.776 7.023 5.741 12 5.886.136.008.261.008.39.008q1.883.002 3.613-.136c6.031-.465 10.6-2.117 12.8-4.703.832-.977 1.125-2.11.777-3.023-.28-.743-.945-1.211-1.73-1.211-.554 0-1.14.214-1.746.636-.093.059-.441.258-1.309.258h-.03c-2.399 0-5.958-1.336-7.77-2.93-.052-.047-.11-.098-.165-.156-.39-.356-.824-.817-1.277-1.32-.55-.633-1.148-1.344-1.762-2.078-2.488-2.988-4.836-5.801-6.87-5.801-1.45 0-3.114.762-4.728 1.496-1.34.613-2.727 1.246-3.633 1.246-.894 0-2.285-.633-3.625-1.246-1.609-.735-3.277-1.496-4.727-1.496zm34.31 21.93c-3.273 1.164-7.383 1.785-12.13 1.785-.668 0-1.324-.047-1.992-.125v5.012c0 1.582 1.492 2.438 3.559 2.438 2.059 0 6.738.422 8.609-3.289.965-1.902 1.586-4.031 1.953-5.82zm-51.12.27c.383 1.727.984 3.742 1.894 5.55 1.879 3.712 6.555 3.29 8.621 3.29 2.055 0 3.559-.856 3.559-2.438V45.4a16 16 0 0 1-2.723.234c-4.379 0-8.207-.523-11.35-1.516z" transform="translate(-1.317 -.666)scale(1.027)"/></svg>