<svg xmlns="http://www.w3.org/2000/svg" style="isolation:isolate" viewBox="0 0 64 64"><linearGradient id="a" x1=".031" x2=".958" y1=".109" y2=".975" gradientTransform="matrix(24.76 0 0 21 10.13 21.39)" gradientUnits="userSpaceOnUse" transform="translate(-.36 -.36)scale(1.348)"><stop offset="0" stop-color="#a5f86a"/><stop offset=".979" stop-color="#2fce92"/></linearGradient><path fill="url(#a)" fill-rule="evenodd" d="M24.59 38.83a1.188 1.188 0 1 1 2.375.001 1.188 1.188 0 0 1-2.375-.001m7.713 0a1.188 1.188 0 1 1 2.375.001 1.188 1.188 0 0 1-2.375-.001m-3.559 2.373a1.187 1.187 0 1 1 2.374 0 1.187 1.187 0 0 1-2.374 0m-.594-8.307c0-.32.131-.617.344-.842.226-.214.522-.344.843-.344s.617.13.842.344c.214.225.345.522.345.842 0 .321-.131.618-.345.843a1.22 1.22 0 0 1-.842.344c-.321 0-.617-.13-.843-.344a1.23 1.23 0 0 1-.344-.843m-12.46 4.747c0-.629.249-1.234.7-1.673.439-.451 1.044-.7 1.673-.7s1.234.249 1.673.7c.451.439.7 1.044.7 1.673s-.249 1.234-.7 1.673c-.439.451-1.044.7-1.673.7s-1.234-.249-1.673-.7a2.33 2.33 0 0 1-.7-1.673m10.09-4.747a3.561 3.561 0 0 1 7.12 0c0 1.965-1.595 3.56-3.56 3.56s-3.56-1.595-3.56-3.56m-12.46 4.747c0-2.62 2.127-4.747 4.747-4.747s4.746 2.127 4.746 4.747-2.126 4.747-4.746 4.747-4.747-2.127-4.747-4.747m-1.424-7.725-1.768-.237 1.768-3.121.475-.178c.854.119 1.721.178 2.587.178a12.1 12.1 0 0 0 3.845-.558 8.4 8.4 0 0 0 2.954-1.661 20.7 20.7 0 0 1 4.759-2.219 15.5 15.5 0 0 1 4.604-.736c.914 0 1.827.095 2.717.273l.436 1.338.62 2.495-1.744-.344a10.5 10.5 0 0 0-2.017-.202 11.9 11.9 0 0 0-3.536.57 16.6 16.6 0 0 0-3.738 1.708 11.9 11.9 0 0 1-3.987 2.172 16 16 0 0 1-4.949.724c-1.008 0-2.017-.071-3.026-.202" transform="translate(-.36 -.36)scale(1.348)"/><linearGradient id="c" x2="1" y1=".5" y2=".5" gradientTransform="matrix(44.5 0 0 47.47 1.75 .267)" gradientUnits="userSpaceOnUse" transform="translate(-.36 -.36)scale(1.348)"><stop offset="0" stop-color="#5433ff"/><stop offset=".517" stop-color="#20bdff"/><stop offset=".983" stop-color="#a5fecb"/></linearGradient><path fill="url(#c)" fill-rule="evenodd" d="M28.34 9.713v9.445l13.55 20.62s0 .012.012.012c.25.415.463.866.617 1.329.107.332.167.676.167 1.02 0 .261-.048.534-.167.772a1.5 1.5 0 0 1-.451.557 2.8 2.8 0 0 1-.984.487 5.5 5.5 0 0 1-1.638.214H8.548a5.5 5.5 0 0 1-1.638-.214 2.8 2.8 0 0 1-.984-.487 1.5 1.5 0 0 1-.451-.557 1.74 1.74 0 0 1-.167-.772c0-.344.06-.688.167-1.02a6.7 6.7 0 0 1 .617-1.329c.012 0 .012-.012.012-.012l13.55-20.62V9.713a1.78 1.78 0 0 0-.407-3.513h-3.77a2.13 2.13 0 0 1-1.376-.474 1.02 1.02 0 0 1-.38-.712c.024-.273.154-.534.38-.712a2.13 2.13 0 0 1 1.376-.475h17.038c.498-.012.997.166 1.376.475.226.178.356.439.38.712a1.02 1.02 0 0 1-.38.712 2.13 2.13 0 0 1-1.376.474h-3.77a1.78 1.78 0 0 0-.407 3.513zm3.56.047v8.401l13.03 19.77c.404.652.724 1.341.973 2.076.226.677.333 1.389.344 2.101a5.3 5.3 0 0 1-.51 2.337 5.2 5.2 0 0 1-1.507 1.863c-.652.499-1.4.867-2.195 1.08a9.3 9.3 0 0 1-2.623.344H8.582a9.3 9.3 0 0 1-2.623-.344 6.3 6.3 0 0 1-2.195-1.08 5.2 5.2 0 0 1-1.507-1.863 5.3 5.3 0 0 1-.51-2.337 7 7 0 0 1 .344-2.101c.249-.735.569-1.424.973-2.076l13.03-19.77V9.76h-.581a5.7 5.7 0 0 1-3.643-1.258 4.6 4.6 0 0 1-1.709-3.488 4.6 4.6 0 0 1 1.709-3.489A5.7 5.7 0 0 1 15.513.267h16.96a5.7 5.7 0 0 1 3.643 1.258 4.6 4.6 0 0 1 1.709 3.489 4.6 4.6 0 0 1-1.709 3.488 5.7 5.7 0 0 1-3.643 1.258h-.581z" transform="translate(-.36 -.36)scale(1.348)"/></svg>