<svg xmlns="http://www.w3.org/2000/svg" viewBox="0 0 64 64"><defs><linearGradient id="a" x2="0" y2="1"><stop offset="0" stop-color="#00f0ff"/><stop offset="1" stop-color="#0070e0"/></linearGradient><linearGradient id="b" x1="1" x2="0" y1="1"><stop offset="0" stop-color="#01ff01"/><stop offset="1" stop-color="#1bc100"/></linearGradient></defs><path fill="url(#a)" d="M20 0A14.7 14.7 0 0 0 9.63 4.299a14.7 14.7 0 0 0-4.297 10.36v34.67a14.65 14.65 0 0 0 4.297 10.36A14.7 14.7 0 0 0 20 63.988h23.99a14.677 14.677 0 0 0 14.659-14.659v-27.58h.006a14.6 14.6 0 0 0-1.107-5.621 14.6 14.6 0 0 0-3.19-4.756l-7.086-7.086a14.6 14.6 0 0 0-4.756-3.19A14.6 14.6 0 0 0 36.9-.011zm-.006 8.006h14.66v10.67a5.33 5.33 0 0 0 5.335 5.33h10.66v25.34a6.66 6.66 0 0 1-1.955 4.709 6.65 6.65 0 0 1-4.709 1.955h-24a6.66 6.66 0 0 1-4.709-1.955 6.65 6.65 0 0 1-1.955-4.709v-34.68c0-1.766.707-3.458 1.955-4.709a6.65 6.65 0 0 1 4.71-1.955z" transform="translate(.006 .011)"/><path fill="url(#b)" d="M31.99 22.64a14.03 14.03 0 0 0-9.902 4.098c-2.622 2.629-4.1 6.194-4.1 9.904s1.478 7.273 4.1 9.902a14.03 14.03 0 0 0 9.902 4.098c3.694 0 7.242-1.462 9.863-4.059a14.02 14.02 0 0 0 4.139-9.828 1.426 1.426 0 0 0-1.412-1.434 1.416 1.416 0 0 0-1.428 1.408 11.14 11.14 0 0 1-3.305 7.832 11.11 11.11 0 0 1-7.854 3.238 11.14 11.14 0 0 1-7.889-3.27c-2.094-2.083-3.27-4.926-3.27-7.889s1.176-5.803 3.27-7.889a11.13 11.13 0 0 1 7.889-3.272c2.72 0 5.35.999 7.387 2.793a1.42 1.42 0 0 0 1.885-2.127 14.02 14.02 0 0 0-9.266-3.506zm11.19 6.764c-.23-.004-.46.05-.678.164a1.417 1.417 0 0 0-.597 1.918c.202.39.38.795.535 1.201a1.424 1.424 0 0 0 2.664-1.008 17 17 0 0 0-.684-1.51 1.42 1.42 0 0 0-1.238-.765zM18.5 44.884a1.43 1.43 0 0 0-1.121.46l-5.902 6.51a3.77 3.77 0 0 0-.99 2.55c0 1.104.478 2.16 1.314 2.875l.974.842a3.9 3.9 0 0 0 2.557.949 3.92 3.92 0 0 0 2.898-1.273h.008l5.902-6.512c.528-.582.486-1.481-.094-2.008s-1.48-.48-2.008.101l-5.904 6.5a1.08 1.08 0 0 1-.802.348c-.252 0-.503-.09-.698-.26l-.974-.841a.94.94 0 0 1-.332-.725c0-.235.088-.462.242-.64h.008l5.904-6.5a1.422 1.422 0 0 0-.98-2.376z" transform="translate(.006 .011)"/><path fill="url(#a)" d="m26.97 31.04-3.451 9.812h2.232l.71-2.328h3.563l.709 2.328h2.232l-3.463-9.812zm1.275 1.514.002.002q.052.24.176.654.123.415 1.106 3.576h-2.55q1.045-3.376 1.267-4.232zm9.283.67q-1.57 0-2.861.676l.676 1.377q1.21-.541 2.107-.541 1.163-.001 1.162 1.135v.328l-1.297.04q-1.679.06-2.51.626c-.831.566-.834.962-.834 1.756q0 1.135.619 1.75.619.616 1.695.617.876 0 1.42-.252.545-.251 1.059-.9h.055l.394 1.018h1.424v-4.982q0-1.338-.803-1.992-.801-.656-2.307-.655zm1.084 4.166v.615q0 .675-.426 1.082-.424.408-1.133.408-.99 0-.99-.863 0-.601.436-.896.434-.294 1.324-.32z" transform="translate(.006 .011)"/></svg>