<svg xmlns="http://www.w3.org/2000/svg" viewBox="0 0 64 64"><defs><linearGradient id="a" y1="1"><stop offset="0" stop-color="#a234cd"/><stop offset=".5" stop-color="#ff1f53"/><stop offset="1" stop-color="#ff8629"/></linearGradient></defs><path fill="url(#a)" d="M32 0a3.213 3.213 0 0 0-3.209 3.211v1.572a.98.98 0 0 1-.984.98h-3.064a1.01 1.01 0 0 1-1.023-1.002V3.209a3.211 3.211 0 0 0-6.42 0v2.69c0 .448-.296.835-.723.967-2.375.74-4.441 1.892-6.131 3.584-1.687 1.686-2.838 3.74-3.576 6.102a1.01 1.01 0 0 1-.963.723H3.208a3.211 3.211 0 0 0 0 6.422h1.553a1.01 1.01 0 0 1 1.002 1.023v3.094a.98.98 0 0 1-.98.984H3.21a3.21 3.21 0 0 0 0 6.42h1.572a.98.98 0 0 1 .981.983v3.096a1.01 1.01 0 0 1-1.002 1.022H3.206a3.211 3.211 0 0 0 0 6.42h2.701c.446 0 .83.3.963.724.739 2.364 1.89 4.415 3.576 6.1 1.692 1.692 3.757 2.85 6.13 3.588.427.133.724.517.724.963v2.69c0 1.772 1.438 3.2 3.209 3.2s3.21-1.429 3.21-3.2v-1.55c0-.559.466-1.009 1.024-1.005h3.094c.543 0 .982.449.982.993v1.562c0 1.772 1.439 3.199 3.211 3.199s3.209-1.427 3.209-3.2v-1.561a.99.99 0 0 1 .984-.993h3.064a1.01 1.01 0 0 1 1.022 1.004v1.551c0 1.772 1.44 3.2 3.211 3.2s3.211-1.429 3.211-3.2v-2.69c0-.447.297-.84.723-.974 2.364-.738 4.418-1.89 6.104-3.576s2.838-3.737 3.576-6.1a1.03 1.03 0 0 1 .975-.725h2.69c1.772 0 3.199-1.436 3.199-3.209s-1.426-3.21-3.2-3.21h-1.552a1.01 1.01 0 0 1-1.002-1.023v-3.098c0-.545.447-.982.992-.982h1.56c1.772 0 3.199-1.44 3.199-3.211s-1.427-3.21-3.2-3.21h-1.56a.99.99 0 0 1-.991-.984v-3.094a1.01 1.01 0 0 1 1.002-1.022h1.553c1.772 0 3.199-1.438 3.199-3.209s-1.426-3.213-3.2-3.213H58.1c-.446 0-.832-.296-.965-.722-.739-2.363-1.888-4.418-3.574-6.102-1.686-1.686-3.74-2.836-6.102-3.574a1.02 1.02 0 0 1-.725-.965v-2.7a3.211 3.211 0 0 0-6.42 0v1.554a1.01 1.01 0 0 1-1.022 1.002c-.126-.002-.248 0-.375 0h-2.72a.98.98 0 0 1-.985-.983V3.211A3.21 3.21 0 0 0 32 .002zm-6.916 12.19h.002l.004.002h13.82c5.44 0 8.415 1.102 10.12 2.797 1.695 1.696 2.805 4.669 2.805 10.11v6.826c0 .028-.01.06-.01.088s.01.057.01.086v6.826c0 5.44-1.11 8.412-2.805 10.11-1.695 1.695-4.671 2.807-10.12 2.807h-6.797c-.03 0-.057-.01-.086-.01s-.057.01-.086.01h-6.856c-5.444 0-8.415-1.112-10.11-2.807-1.696-1.696-2.795-4.667-2.795-10.11v-13.83c0-5.444 1.1-8.414 2.795-10.11 1.696-1.696 4.671-2.795 10.11-2.795z" transform="translate(.004)"/><path fill="#00ff7f" d="M32.594 15.96a1.9 1.9 0 0 0-.598.115c-.507.187-.976.615-1.115 1.242l-.01.041-.004.041c-.07.684-.062 1.392-.054 2.05v.064c-4.707.361-9.135 3.08-11.51 7.119-2.613 4.32-2.681 9.983-.188 14.37 1.945 3.504 5.426 6.136 9.37 7.053 4.258 1.043 8.961.088 12.44-2.566 5.065-3.71 7.171-10.81 4.802-16.61l-.008-.024-.011-.02c-.578-1.183-1.852-1.482-2.856-1.257-1.005.226-2.03 1.042-2.03 2.369v.064l.012.06c.077.427.171.85.262 1.257l.002.008c.092.408.18.8.25 1.19.143.788.21 1.528.096 2.26l-.006.03-.002.027c-.328 4.428-4.33 8.267-8.857 8.443h-.03c-4.311.346-8.568-2.675-9.694-6.766l-.002-.008-.002-.006c-.843-2.835-.18-6.054 1.713-8.352l.004-.003.003-.006c1.505-1.896 3.806-3.131 6.242-3.46-.01.67-.018 1.39.065 2.089l.01.07.021.066c.35 1.066 1.705 1.602 2.691.938a592 592 0 0 0 6.953-4.213c.65-.306.962-.949.98-1.541.02-.6-.26-1.272-.925-1.604a531 531 0 0 0-6.988-4.23 1.7 1.7 0 0 0-1.025-.3z"/></svg>