<svg xmlns="http://www.w3.org/2000/svg" viewBox="0 0 64 64"><defs><linearGradient id="b" x1="-61.7" x2="-61.7" y1="15.98" y2="43.8" gradientTransform="translate(67.54 5.747)scale(.8459)" gradientUnits="userSpaceOnUse"><stop offset="0" stop-color="#ffcf00"/><stop offset="1" stop-color="#bdd800"/></linearGradient><linearGradient id="g" x1="-25.77" x2="-58.13" y1="50.03" y2="50.03" gradientTransform="translate(67.54 5.747)scale(.8459)" gradientUnits="userSpaceOnUse"><stop offset="0" stop-color="#0093e2"/><stop offset="1" stop-color="#bdd800"/></linearGradient><linearGradient id="l" x1="-22.55" x2="-22.55" y1="15.25" y2="46.64" gradientTransform="translate(67.54 5.747)scale(.8459)" gradientUnits="userSpaceOnUse"><stop offset="0" stop-color="#f80024"/><stop offset="1" stop-color="#0093e2"/></linearGradient><linearGradient id="o" x1="-58.8" x2="-22.98" y1="11.98" y2="11.98" gradientTransform="translate(67.54 5.747)scale(.8459)" gradientUnits="userSpaceOnUse"><stop offset="0" stop-color="#ffcf00"/><stop offset="1" stop-color="#f80024"/></linearGradient><linearGradient id="m" x1="-30.99" x2="-37.85" y1=".642" y2="26.83" gradientTransform="rotate(45 -8.319 111.364)scale(.846)" gradientUnits="userSpaceOnUse"><stop offset="0" stop-color="#fd7300"/><stop offset="1" stop-color="#f5002e"/></linearGradient><linearGradient id="j" x1="-9.792" x2="-38.96" y1="19.23" y2="27.11" gradientTransform="rotate(45 -8.319 111.364)scale(.846)" gradientUnits="userSpaceOnUse"><stop offset="0" stop-color="#bc0086"/><stop offset="1" stop-color="#f5002e"/></linearGradient><linearGradient id="n" x1="-53.54" x2="-45.79" y1="-2.745" y2="28.82" gradientTransform="rotate(45 -8.55 109.579)scale(.846)" gradientUnits="userSpaceOnUse"><stop offset="0" stop-color="#fff762"/><stop offset="1" stop-color="#ffd800"/></linearGradient><linearGradient id="p" x1="-71.28" x2="-46.19" y1="19.87" y2="27.16" gradientTransform="rotate(45 -8.55 109.579)scale(.846)" gradientUnits="userSpaceOnUse"><stop offset="0" stop-color="#fd7600"/><stop offset="1" stop-color="#ffd903"/></linearGradient><linearGradient id="d" x1="-38.51" x2="-28.95" y1="34.16" y2="63.92" gradientTransform="rotate(45 -9.409 111.703)scale(.846)" gradientUnits="userSpaceOnUse"><stop offset="0" stop-color="#00a5ef"/><stop offset="1" stop-color="#43d2de"/></linearGradient><linearGradient id="i" x1="-11.62" x2="-38.58" y1="42.72" y2="35.24" gradientTransform="rotate(45 -9.409 111.703)scale(.846)" gradientUnits="userSpaceOnUse"><stop offset="0" stop-color="#1a224d"/><stop offset="1" stop-color="#01a5ef"/></linearGradient><linearGradient id="a" x1="-74.33" x2="-44.74" y1="43.87" y2="34.89" gradientTransform="rotate(45 -9.339 110.882)scale(.846)" gradientUnits="userSpaceOnUse"><stop offset="0" stop-color="#e4eb6e"/><stop offset="1" stop-color="#bbd800"/></linearGradient><linearGradient id="c" x1="-45.73" x2="-53.37" y1="34.88" y2="61.55" gradientTransform="rotate(45 -9.339 110.882)scale(.846)" gradientUnits="userSpaceOnUse"><stop offset="0" stop-color="#bbd800"/><stop offset="1" stop-color="#00a11c"/></linearGradient></defs><g fill-rule="evenodd" stroke-linecap="round" stroke-linejoin="round"><path fill="url(#a)" d="M28.81 30.27a3 3 0 0 0-.363-.312v-.001l-18.49-12.49-.006.012a4.755 4.755 0 0 0-5.9.643 4.755 4.755 0 0 0 0 6.725 4.8 4.8 0 0 0 1.166.85l-.002.004 20.06 9.748.003-.006a3.19 3.19 0 0 0 3.53-.66 3.19 3.19 0 0 0-.001-4.512z" style="paint-order:stroke fill markers" transform="translate(-2.47 -2.38)scale(1.068)"/><path fill="url(#b)" d="M15.66 12.64a3.1 3.1 0 0 0-3.103 3.103 3 3 0 0 0 .043.492c.12 1.36 1.09 12.42 1.09 16.5 0 3.984-.918 13.4-1.076 15a3 3 0 0 0-.058.565l.002.022-.002.016h.003a3.1 3.1 0 0 0 3.1 3.065 3.1 3.1 0 0 0 3.098-3.065h.004l-.002-.021.002-.017a3 3 0 0 0-.018-.336c-.037-.686-.767-14.55-.767-17.13 0-2.648.785-15.08.785-15.08a3.1 3.1 0 0 0-3.101-3.104z" style="paint-order:stroke fill markers" transform="translate(-2.47 -2.38)scale(1.068)"/><path fill="url(#c)" d="M28.81 30.27a3.19 3.19 0 0 0-3.966-.426l-.005-.008-18.41 12.28.001.002a2 2 0 0 0-.22.182 1.674 1.674 0 0 0 0 2.369 1.67 1.67 0 0 0 1.87.338l.002.003.114-.056 19.84-9.603v-.003a3.2 3.2 0 0 0 .779-.57 3.19 3.19 0 0 0-.002-4.51z" style="paint-order:stroke fill markers" transform="translate(-2.47 -2.38)scale(1.068)"/><path fill="url(#d)" d="M34.71 35.9a3.19 3.19 0 0 0-4.511-.001 3 3 0 0 0-.336.404l-.005-.002-12.48 18.56.01.006a4.755 4.755 0 0 0 .664 5.872 4.755 4.755 0 0 0 6.725 0 4.8 4.8 0 0 0 .789-1.046l.015-.027a5 5 0 0 0 .223-.462l.003-.008 9.487-19.6a3.19 3.19 0 0 0-.585-3.702z" style="paint-order:stroke fill markers" transform="translate(-2.47 -2.38)scale(1.068)"/><path fill="url(#g)" d="M15.66 45.2a3.1 3.1 0 0 0-3.103 3.101 3.1 3.1 0 0 0 3.103 3.103s14.86-.785 17.51-.785c2.647 0 15.08.785 15.08.785a3.1 3.1 0 0 0 3.101-3.103A3.1 3.1 0 0 0 48.25 45.2a3 3 0 0 0-.496.043c-1.367.121-12.42 1.09-16.5 1.09-3.989 0-13.43-.92-15-1.076a3 3 0 0 0-.593-.058z" style="paint-order:stroke fill markers" transform="translate(-2.47 -2.38)scale(1.068)"/><path fill="url(#i)" d="M34.71 35.9a3.19 3.19 0 0 0-4.511-.001 3.19 3.19 0 0 0-.479 3.888l-.005.002 12.35 18.46a2 2 0 0 0 .169.196 1.674 1.674 0 0 0 2.367 0 1.67 1.67 0 0 0 .349-1.859l-.004-.006-.044-.093-.008-.015-9.508-19.57a3.2 3.2 0 0 0-.674-.997z" style="paint-order:stroke fill markers" transform="translate(-2.47 -2.38)scale(1.068)"/><path fill="url(#j)" d="M60.47 39.68a4.8 4.8 0 0 0-1.076-.805l.001-.001-.01-.005-.003-.001-20.13-9.832-.004.007a3.19 3.19 0 0 0-3.602.628 3.19 3.19 0 0 0 0 4.512 3 3 0 0 0 .41.34l-.001.005 18.21 12.32.35.239.005-.01a4.755 4.755 0 0 0 5.858-.673 4.755 4.755 0 0 0 0-6.725z" style="paint-order:stroke fill markers" transform="translate(-2.47 -2.38)scale(1.068)"/><path fill="url(#l)" d="M48.25 12.64a3.1 3.1 0 0 0-3.103 3.103 3 3 0 0 0 .043.492c.12 1.36 1.09 12.42 1.09 16.5 0 3.984-.918 13.4-1.076 15a3 3 0 0 0-.058.565l.002.022-.002.016h.003a3.1 3.1 0 0 0 3.1 3.065 3.1 3.1 0 0 0 3.098-3.065h.004l-.002-.021.002-.017a3 3 0 0 0-.018-.336c-.037-.686-.767-14.55-.767-17.13 0-2.648.785-15.08.785-15.08a3.1 3.1 0 0 0-3.101-3.104z" style="paint-order:stroke fill markers" transform="translate(-2.47 -2.38)scale(1.068)"/><path fill="url(#m)" d="M58.17 19.76a1.67 1.67 0 0 0-1.881-.334l-.001-.004-.105.052-19.7 9.594.003.006a3.2 3.2 0 0 0-.846.598 3.19 3.19 0 0 0 0 4.512 3.19 3.19 0 0 0 3.983.417l.004.006 18.29-12.27-.001-.004a1.7 1.7 0 0 0 .252-.203 1.674 1.674 0 0 0 0-2.367z" style="paint-order:stroke fill markers" transform="translate(-2.47 -2.38)scale(1.068)"/><path fill="url(#n)" d="M45.76 3.621a4.755 4.755 0 0 0-6.725 0 4.8 4.8 0 0 0-.845 1.158l-.004-.002-9.758 19.91-.026.051-.112.229.006.003a3.19 3.19 0 0 0 .67 3.508 3.19 3.19 0 0 0 4.511 0 3 3 0 0 0 .335-.396l.007-.011.081-.118 12.38-18.23.11-.161.023-.036h-.001a4.755 4.755 0 0 0-.65-5.91z" style="paint-order:stroke fill markers" transform="translate(-2.47 -2.38)scale(1.068)"/></g><path fill="url(#o)" d="M15.66 12.64a3.1 3.1 0 0 0-3.103 3.103 3.1 3.1 0 0 0 3.103 3.101s14.86-.783 17.51-.783c2.647 0 15.08.783 15.08.783a3.1 3.1 0 0 0 3.101-3.101 3.1 3.1 0 0 0-3.101-3.103 3 3 0 0 0-.487.043c-1.347.12-12.42 1.09-16.5 1.09-3.982 0-13.4-.916-14.99-1.074l-.005-.002a3 3 0 0 0-.6-.057z" transform="translate(-2.47 -2.38)scale(1.068)"/><path fill="url(#p)" fill-rule="evenodd" d="M21.31 5.913a1.674 1.674 0 0 0-2.368-.001 1.67 1.67 0 0 0-.333 1.884h-.003l.05.102 9.705 19.72a3 3 0 0 0 .08.16l.012.026.002-.002a3.2 3.2 0 0 0 .511.674 3.19 3.19 0 0 0 4.512 0 3.19 3.19 0 0 0 .457-3.934l-.014-.021a3 3 0 0 0-.14-.204l-12.21-18.07a2 2 0 0 0-.123-.185 2 2 0 0 0-.139-.158z" style="paint-order:stroke fill markers" transform="translate(-2.47 -2.38)scale(1.068)"/></svg>