<svg xmlns="http://www.w3.org/2000/svg" fill="none" viewBox="0 0 64 64"><defs><linearGradient id="a" x1="32.4" x2="32.4" y1="4" y2="60" gradientUnits="userSpaceOnUse"><stop offset="0" stop-color="#97eb0e"/><stop offset="1" stop-color="#19b90b"/></linearGradient></defs><path fill="url(#a)" d="M33.4 32a1 1 0 0 0-1 1v8.399c0 .887-1.07 1.335-1.702.712l-9.535-9.399a1 1 0 0 1 0-1.424l10.54-10.39a1 1 0 0 1 1.404 0l9.521 9.385c.637.628.192 1.712-.702 1.712h-8.521zm-.298-27.31a1 1 0 0 0-1.404 0l-26.98 26.6a1 1 0 0 0 0 1.424l26.98 26.6a1 1 0 0 0 1.404 0l10.96-10.8a1 1 0 0 0 .298-.712v-14.79a1 1 0 0 1 1-1h13c.894 0 1.339-1.084.702-1.712L33.092 4.7z" transform="translate(-4.989 -5.107)scale(1.16)"/></svg>