<svg version="1.1" viewBox="0 0 64 64" xmlns="http://www.w3.org/2000/svg">
 <defs>
  <linearGradient id="a" x2="0" y2="1">
   <stop stop-color="#fac136" offset="0"/>
   <stop stop-color="#f0f" offset="1"/>
  </linearGradient>
  <linearGradient id="b" x1="9.5" x2="9.5" y1="5.5" y2="9.5" gradientTransform="matrix(3.203 0 0 3.203 27.17 7.978)" gradientUnits="userSpaceOnUse">
   <stop stop-color="#fac136" offset="0"/>
   <stop stop-color="#f0f" offset="1"/>
  </linearGradient>
 </defs>
 <path transform="translate(.000196 -5e-5) scale(1) translate(-2.979 1.558) scale(.9513) translate(.0021 .003379) scale(1) translate(-3.313 -6.434) scale(3.203)" d="M11.53 2.018a9.94 9.94 0 0 0-6.598 2.91l-.004.002h-.002c-4.044 4.051-3.855 10.7.412 14.52 4.267 3.816 10.9 3.263 14.48-1.207a1 1 0 0 0-.074-1.332L14.832 12l4.912-4.91a1 1 0 0 0 .074-1.33 9.96 9.96 0 0 0-7.258-3.736 10 10 0 0 0-1.025-.006zm.098 1.98q.409-.019.818.004c1.895.106 3.677 1.012 5.111 2.44l-4.852 4.85a1 1 0 0 0 0 1.415l4.856 4.854c-2.966 2.952-7.69 3.258-10.89.396a7.98 7.98 0 0 1-.33-11.61h.002a7.98 7.98 0 0 1 5.285-2.346z" fill="url(#a)"/>
 <path transform="translate(.000196 -5e-5) scale(1) translate(-2.979 1.558) scale(.9513) translate(.0021 .003379) scale(1) translate(-3.313 -6.434) scale(3.203)" d="M11.43 6.502a1 1 0 0 0-.932.998 1 1 0 0 0 2 0 1 1 0 0 0-1.068-.998z" fill="url(#a)"/>
 <path transform="translate(.000196 -5e-5) scale(1) translate(-2.979 1.558) scale(.9513) translate(.0021 .003379) scale(1) translate(-3.313 -6.434) scale(3.203)" d="M11.5 5.5c-.472 0-.958.152-1.352.502S9.5 6.917 9.5 7.5s.254 1.148.648 1.498.88.502 1.352.502.958-.152 1.352-.502.648-.915.648-1.498-.254-1.148-.648-1.498A2.02 2.02 0 0 0 11.5 5.5" fill="url(#a)"/>
 <path transform="translate(.000196 -5e-5) scale(1) translate(-2.979 1.558) scale(.9513)" d="m64 25.59c-1.512 0-3.068 0.4869-4.33 1.608s-2.076 2.931-2.076 4.798 0.8136 3.677 2.076 4.798 2.819 1.608 4.33 1.608 3.068-0.4869 4.33-1.608 2.076-2.931 2.076-4.798-0.8136-3.677-2.076-4.798a6.47 6.47 0 0 0-4.33-1.608" fill="url(#b)" stroke-width="3.203"/>
</svg>
