<svg version="1.1" viewBox="0 0 64 64" xmlns="http://www.w3.org/2000/svg">
 <defs>
  <linearGradient id="a" x1="1" x2="0" y1="1">
   <stop stop-color="#f0f" offset="0"/>
   <stop stop-color="#0cf" offset="1"/>
  </linearGradient>
 </defs>
 <path transform="translate(-.000116 4e-4) scale(1) translate(-2.125 -2.126) scale(.1333)" d="M160 80a115 115 0 0 0-31.54 4.25l-.219.063c-26.75 7.895-47.65 28.08-63.52 55.62-15.86 27.54-27.53 62.93-37.04 105.4v.002c-9.74 43.53-14 82.78-10.56 114.7 1.72 15.94 5.34 30.17 12.06 42.24s17.17 21.99 30.45 26.59l.008.004c17.62 6.097 35.86 2.414 50.48-6.184s26.88-21.45 38.5-35.91l.016-.02c11-13.72 21.71-21.53 37.86-26.93 16.15-5.405 38.25-7.873 69.47-7.873s52.98 2.47 68.8 7.848 26.28 13.14 37.38 26.97c11.69 14.57 24.22 27.38 38.9 35.91 14.68 8.534 32.75 12.31 50.16 6.376l.004-.002h.004c13.85-4.732 24.99-14.56 32.02-26.78s10.52-26.57 11.96-42.48c2.881-31.82-2.426-70.63-12.11-114.4-9.405-42.52-21.08-77.94-36.98-105.5-15.89-27.54-36.83-47.69-63.54-55.59l-.055-.015a107.6 107.6 0 0 0-30.59-4.3c-33.22.01-51.66 16-95.97 16s-62.78-15.99-95.97-16zm-.113 32h.084c20.49 0 44.55 16 96 16s75.46-16 96-16h.08c7.272-.036 14.51.98 21.49 3.014 17.02 5.04 31.59 17.88 44.87 40.88 13.29 23.02 24.45 55.72 33.45 96.39l.002.002c9.328 42.16 13.81 78.86 11.48 104.6-1.165 12.86-4.031 22.79-7.834 29.41s-7.972 10.18-14.63 12.45c-7.9 2.691-14.54 1.592-23.74-3.756-9.202-5.35-19.72-15.44-30.03-28.28-13.94-17.38-30.79-30.01-52.04-37.23-21.25-7.223-46.29-9.551-79.1-9.551s-58.12 2.333-79.62 9.527c-21.5 7.195-38.68 19.79-52.68 37.27-10.39 12.92-20.76 23.06-29.77 28.36-9.016 5.305-15.39 6.426-23.78 3.523-5.29-1.837-9.191-5.135-12.97-11.92s-6.795-17.05-8.203-30.1c-2.816-26.11.71-62.86 9.969-104.2v-.002c9.102-40.66 20.27-73.38 33.54-96.42 13.24-22.98 27.73-35.8 44.73-40.86a83 83 0 0 1 22.7-3.047z" fill="url(#a)"/>
 <path transform="translate(-.000116 4e-4) scale(1) translate(-2.125 -2.126) scale(.1333)" d="M336 160a20 20 0 0 0-20 20 20 20 0 0 0 20 20 20 20 0 0 0 20-20 20 20 0 0 0-20-20m-44 44a20 20 0 0 0-20 20 20 20 0 0 0 20 20 20 20 0 0 0 20-20 20 20 0 0 0-20-20m88 0a20 20 0 0 0-20 20 20 20 0 0 0 20 20 20 20 0 0 0 20-20 20 20 0 0 0-20-20m-43 44a20 20 0 1 0-.952 39.99 20 20 0 0 0 20-19.96 20 20 0 0 0-19.05-20.03z" fill="url(#a)"/>
 <path transform="translate(-.000116 4e-4) scale(1) translate(-2.125 -2.126) scale(.1333)" d="m160 160a16 16 0 0 0-16 16v32h-32a16 16 0 0 0-16 16 16 16 0 0 0 16 16h32v32a16 16 0 0 0 16 16 16 16 0 0 0 16-16v-32h32a16 16 0 0 0 16-16 16 16 0 0 0-16-16h-32v-32a16 16 0 0 0-16-16" fill="url(#a)"/>
</svg>
