<svg version="1.1" viewBox="0 0 64 64" xmlns="http://www.w3.org/2000/svg">
 <defs>
  <linearGradient id="b" x2="0" y1="1">
   <stop stop-color="#46d9ff" offset="0"/>
   <stop stop-color="#ff23ff" offset=".5"/>
   <stop stop-color="#ffd93f" offset="1"/>
  </linearGradient>
  <linearGradient id="a" x1="1" x2="0" y1="1">
   <stop stop-color="#fd5" offset="0"/>
   <stop stop-color="#ff80e5" offset=".5"/>
   <stop stop-color="#0cf" offset="1"/>
  </linearGradient>
 </defs>
 <path transform="translate(0 .00311) scale(1) translate(-.001102 -.00271) scale(1) translate(.006908 .00734)" d="m6.479 3.969 0.00195 0.00391v0.00195c-0.6054 0.02454-1.219 0.1572-1.822 0.4297-0.6251 0.2817-1.106 0.7009-1.381 1.209s-0.3324 1.064-0.2773 1.561c0.1104 0.9951 0.6071 1.842 1.012 2.451l8.178 12.35a0.842 0.842 0 0 0 1.168 0.2363 0.842 0.842 0 0 0 0.2363-1.168l-3.184-4.809c0.5108-0.9182 1.716-1.658 3.111-1.99 1.467-0.3482 3.081-0.2074 3.977 0.291a0.842 0.842 0 0 0 0.06641 0.0332 0.842 0.842 0 0 0 2e-3 0l7.383 7.611-3.027 0.7012a0.842 0.842 0 0 0-0.6309 1.01 0.842 0.842 0 0 0 1.012 0.6289l4.846-1.119a0.842 0.842 0 0 0 0.1953 0.209 0.842 0.842 0 0 0 0.0625 0.01367 0.842 0.842 0 0 0 0.0078 0.02539c3.402 1.869 5.598 4.582 7.4 7.49 0.3654 0.5894 0.9962 0.9384 1.607 1.037 0.6116 0.09892 1.223 0.01293 1.846-0.1367 1.244-0.2994 2.555-0.8941 3.693-1.361 1.313-0.5389 2.396-1.355 3.164-2.273 0.7679-0.9176 1.255-1.943 1.207-2.992a0.842 0.842 0 0 0-0.0059-0.06445c-0.1493-1.202-0.7225-2.385-1.506-3.479l0.5801-0.08008a0.842 0.842 0 0 0 0.7168-0.9512 0.842 0.842 0 0 0-0.9512-0.7168l-0.3281 0.04687c-1.05-1.221-2.288-2.476-3.186-3.557-0.4808-0.5798-0.8546-1.116-1.041-1.51-0.1856-0.3917-0.1562-0.5393-0.1426-0.5664 0.0074-0.01415 0.01215-0.02679 0.01367-0.0332h0.0039c0.0049 6.38e-4 0.01109 0.0017 0.02148 0 0.06766-0.01095 0.2953 0.0051 0.6152 0.1191 0.6401 0.228 1.601 0.8055 2.635 1.549 2.07 1.486 4.479 3.606 6.305 4.941a0.842 0.842 0 0 0 1.088-0.08008c1.677-1.646 3.182-3.254 4.408-4.309 0.613-0.5264 1.158-0.9084 1.559-1.09 0.4011-0.1812 0.5669-0.1625 0.6836-0.1055 0.3024 0.1476 0.2727 0.1247 0.25 0.4648-0.02273 0.3401-0.2471 0.9783-0.6445 1.727-0.795 1.497-2.202 3.464-3.365 5.535a0.842 0.842 0 0 0 0.1348 1.006c2.132 2.154 4.534 4.536 6.18 6.471 0.8225 0.9671 1.454 1.832 1.75 2.422 0.11 0.2186 0.1276 0.3249 0.1504 0.4258-0.1378 0.05481-0.3406 0.1136-0.8906-0.08398-0.6392-0.2297-1.505-0.7136-2.477-1.371-1.942-1.316-4.336-3.302-6.791-5.244a0.842 0.842 0 0 0-1.098 0.04687c-3.152 2.967-5.255 5.041-11.04 8.941a0.842 0.842 0 0 0-0.1543 0.1348c-1.413 0.5205-3.367 1.318-5.209 2.42-1.904 1.139-3.731 2.597-4.65 4.535l-4.574 0.9062c0.291-0.4976 0.5914-0.9887 0.8027-1.549 0.6019-1.595 0.9049-3.371 0.8809-4.838a0.842 0.842 0 0 0 0-0.0039c-0.04594-2.698-0.2622-6.241-3.188-9.373a0.842 0.842 0 0 0-0.5859-0.2676v2e-3a0.842 0.842 0 0 0-0.6016 0.2227 0.842 0.842 0 0 0-0.04297 1.191c2.529 2.71 2.689 5.613 2.734 8.254 0.0197 1.2-0.2544 2.841-0.7734 4.217s-1.307 2.426-1.986 2.707a0.842 0.842 0 0 0 0.4863 1.605l6.766-1.338c11.19 6.416 16.21 9.627 23.47 13.32 1.669 0.8486 3.195 1.51 4.549 1.822 1.348 0.3107 2.652 0.2885 3.568-0.5488 0.5855-0.5008 0.9726-1.106 1.082-1.75 0.1108-0.6514-0.05307-1.276-0.3203-1.818-0.5347-1.084-1.48-1.981-2.318-2.811-2.185-2.163-4.86-4.345-6.779-6.094a0.842 0.842 0 0 0-0.6953-0.625c-2.76-2.493-4.868-4.58-9.615-8.641a0.842 0.842 0 0 0 0-0.0039c-0.3786-0.3227-0.7013-0.618-1.043-0.9199 4.746-3.277 7.176-5.466 9.855-7.99 2.226 1.773 4.437 3.597 6.326 4.877 1.03 0.6975 1.971 1.25 2.85 1.566s1.817 0.4262 2.576-0.1113c0.4171-0.2952 0.6334-0.8562 0.6152-1.309-0.01819-0.452-0.1701-0.8483-0.3789-1.264-0.4178-0.8302-1.11-1.742-1.973-2.758-1.6-1.881-3.802-4.065-5.805-6.084 1.04-1.768 2.257-3.529 3.061-5.045 0.4446-0.8371 0.7848-1.604 0.8379-2.404 0.05316-0.7994-0.3867-1.697-1.189-2.088-0.6866-0.3353-1.461-0.2151-2.119 0.08203-0.6578 0.2971-1.289 0.7684-1.963 1.348-1.19 1.022-2.546 2.451-3.967 3.869-1.665-1.27-3.769-3.086-5.756-4.514-1.09-0.7827-2.103-1.432-3.051-1.771-0.3531-0.1257-0.7048-0.2168-1.068-0.2207h-0.0059c-0.1197-4.11e-4 -0.2421 0.0096-0.3652 0.0293-0.5032 0.08085-1.016 0.4362-1.266 0.918-0.3562 0.6888-0.1849 1.438 0.1113 2.062 0.2962 0.6253 0.7476 1.233 1.271 1.863 0.04332 0.05224 0.08669 0.1058 0.1309 0.1582-0.6715-0.3821-1.343-0.6446-1.996-0.7422-0.6648-0.09942-1.297-0.1605-1.9-0.1836l-2e-3 2e-3c-0.603-0.02302-1.176-0.0079-1.723 0.04883-1.095 0.1134-2.086 0.3874-3 0.8418-1.562 0.7754-2.854 2.029-4.107 3.719l-0.8964 0.207-13.63-14.05c-1.149-1.184-2.429-2.331-3.865-3.045-0.7181-0.357-1.495-0.598-2.293-0.6602-0.1996-0.01553-0.3998-0.01795-0.6016-0.00977zm0.0918 1.668c0.6712-0.02862 1.342 0.1627 2.055 0.5176 1.142 0.5678 2.318 1.588 3.404 2.707l3.385 3.488c-0.07802-0.0012-0.1559-8.28e-4 -0.2344 0v2e-3c-0.68 0.0072-1.375 0.09555-2.051 0.2559-1.43 0.3396-2.819 1.017-3.721 2.115l-3.992-6.029c-0.335-0.505-0.6853-1.206-0.7402-1.703-0.02753-0.2482 0.00118-0.427 0.08203-0.5762s0.2268-0.3112 0.5938-0.4766c0.4136-0.1867 0.8161-0.2836 1.219-0.3008zm29.97 12.96-2e-3 2e-3c0.5294 0.02164 1.097 0.07816 1.711 0.1699 0.8061 0.1202 2.482 1.119 3.834 2.48 1.342 1.351 2.39 3.048 2.557 4.275 0.01061 0.4341-0.2285 1.122-0.7988 1.803-0.5798 0.692-1.454 1.361-2.512 1.795-1.175 0.4823-2.453 1.043-3.451 1.283-0.4995 0.1202-0.92 0.1497-1.182 0.1074-0.261-0.04226-0.3429-0.09143-0.4473-0.2598-1.709-2.76-3.984-5.404-7.174-7.42 1.171-1.59 2.283-2.887 3.543-3.512 0.7285-0.3617 1.524-0.5903 2.441-0.6836 0.4591-0.04668 0.9515-0.06264 1.48-0.04102zm-15.61 14.56a0.842 0.842 0 0 0-0.3145 0.08594 0.842 0.842 0 0 0-0.3789 1.127c0.4175 0.8349 0.7035 1.724 0.8125 2.488 0.1309 0.9107 8.22e-4 2.187-0.4414 3.111a0.842 0.842 0 0 0 0.3984 1.125 0.842 0.842 0 0 0 1.121-0.3945c0.6322-1.32 0.7648-2.838 0.5859-4.082-0.1402-0.9813-0.4788-2.016-0.9707-3a0.842 0.842 0 0 0-0.8125-0.459zm19.38 4.447 2e-3 0.0059c0.4627 0.4267 0.9339 0.8169 1.402 1.217 3.866 3.306 6.611 5.65 8.977 7.742-0.8454 0.3328-1.701 0.8551-2.521 1.486-1.243 0.9556-2.383 2.174-3.057 3.537-3.678-2.12-7.795-4.576-13.63-7.928 0.6998-1.44 2.236-2.758 3.986-3.805 1.665-0.9956 3.489-1.753 4.844-2.256zm11.86 10.29c2.163 1.949 4.123 3.802 6.551 6.203 0.8376 0.83 1.661 1.692 1.99 2.357 0.1642 0.3329 0.2054 0.5794 0.1699 0.7891s-0.1442 0.4452-0.5215 0.7637a0.842 0.842 0 0 0-0.02734 0.02734c-0.3168 0.2925-0.9551 0.4056-2.062 0.1504-1.107-0.2551-2.554-0.8608-4.164-1.68-2.671-1.358-5.037-2.653-7.533-4.074 0.5012-1.057 1.509-2.187 2.619-3.041 1.055-0.8108 2.225-1.36 2.979-1.496z" fill="url(#b)"/>
 <path transform="translate(0 .00311) scale(1) translate(-.001102 -.00271) scale(1) translate(.006908 .00734) scale(1)" d="m14.15 20.34c-0.4961 0.02541-0.995 0.1492-1.426 0.5059-0.5744 0.4754-0.7819 1.325-0.6211 2.191 0.6723 3.622 0.4883 6.8 0.5957 10.28-0.01319 0.0084-0.02598 0.01687-0.03906 0.02539-0.5646-2.103-2.21-3.708-4.516-3.984h-0.00391c-2.034-0.2459-4.006-0.3713-5.963-0.4004-0.6675-0.01027-1.253 0.4287-1.549 0.9062s-0.4313 1.012-0.5195 1.572c-0.1765 1.12-0.1224 2.354-0.009766 3.24a0.842 0.842 0 0 0 0 0.0039c0.1137 0.8851 0.3456 2.029 0.791 3.039 0.2226 0.505 0.4965 0.9804 0.8887 1.371 0.3922 0.3907 0.9548 0.7002 1.586 0.6953 2.966-0.02393 4.991-0.4295 7.109-1.131 0.09617 0.1156 0.2025 0.2256 0.3125 0.3301 0.4026 0.3824 0.9239 0.7152 1.539 0.9863 0.2349 0.1036 0.4849 0.1972 0.7461 0.2793-0.6257 1.053-1.375 2.614-1.686 4.02-0.3124 1.42-0.4513 3.23-0.4512 4.852 1.08e-4 0.8112 0.03743 1.57 0.1113 2.215 0.07388 0.6458 0.1413 1.143 0.3984 1.621 0.7389 1.38 2.372 1.797 3.92 1.893 1.547 0.09585 3.099-0.1323 4.18-0.7578 1.039-0.5998 1.563-1.785 2.002-3.127 0.4385-1.342 0.6829-2.852 0.543-4.164-0.301-2.82-2.025-5.793-4.006-7.365 0.2207-0.3617 0.3559-0.7605 0.4453-1.17 0.1923-0.8807 0.1819-1.817-0.04883-2.615-0.1099-0.3799-0.2708-0.7745-0.4824-1.156 2.659-1.926 3.991-4.481 3.963-7.272-0.02801-2.438-1.58-4.946-3.842-5.94-0.81-0.3555-2.173-0.8708-3.473-0.9375-0.1626-0.0084-0.3268-0.01037-0.4922-2e-3zm0.4062 1.686c0.874 0.04483 2.192 0.4959 2.883 0.7988 1.5 0.6593 2.818 2.751 2.838 4.418 0.02339 2.302-0.9744 4.284-3.367 5.959-0.4135-0.2367-0.9436-0.3243-1.453-0.416a0.842 0.842 0 0 0-0.6172-0.2871 0.842 0.842 0 0 0-0.1152 0.0059c-0.1224 0.02379-0.2419 0.05148-0.3594 0.08203-0.06382-3.152 0.06303-6.266-0.6035-9.857-0.09597-0.5166-0.01602-0.5416 0.03516-0.584 0.05113-0.04232 0.3228-0.1416 0.7598-0.1191zm-12.43 8.607h0.00781v2e-3h0.00586v0.0039h0.00977c1.903 0.02822 3.814 0.1498 5.789 0.3887a0.842 0.842 0 0 0 0.00391 0c2.064 0.2458 3.422 1.494 3.492 3.367-0.0871 0.09798-0.1698 0.1969-0.248 0.2969-0.6173 0.7887-0.9915 1.582-1.111 2.32-2.056 0.6937-3.837 1.064-6.725 1.088-0.1207 9.47e-4 -0.2127-0.03191-0.3828-0.2012-0.1699-0.1694-0.3664-0.4769-0.5352-0.8594-0.3368-0.7639-0.5654-1.808-0.6641-2.574v-0.0039c-0.09427-0.7432-0.1338-1.902 0.00195-2.766 0.06798-0.4318 0.1915-0.7847 0.291-0.9453 0.04978-0.08026 0.05977-0.1092 0.06445-0.1172zm13.04 3.51h2e-3c0.2753-0.0088 0.5493 0.1412 0.8711 0.4863 0.3678 0.3944 0.6882 1.012 0.8262 1.488 0.123 0.4252 0.1519 1.199 0.02344 1.787-0.06424 0.2944-0.1669 0.5423-0.2598 0.6836-0.09286 0.1413-0.142 0.1542-0.1582 0.1582-1.264 0.3105-2.537 0.08629-3.465-0.3223-0.4633-0.2043-0.8333-0.4539-1.055-0.6641-0.1448-0.1375-0.2007-0.2606-0.2207-0.2891l-0.0039-0.0039h-0.0039c0.02807-0.2846 0.2703-1.068 0.793-1.736 0.5572-0.7125 1.384-1.351 2.533-1.574 0.03949-0.0076 0.07787-0.01249 0.1172-0.01367zm1.445 6.301a0.842 0.842 0 0 0 0.0039 0.0039c1.525 0.9799 3.545 4.121 3.803 6.527 0.1008 0.9449-0.09549 2.317-0.4707 3.469-0.3752 1.151-1.04 2.073-1.24 2.19-0.5493 0.3174-1.97 0.6117-3.236 0.5332-1.266-0.07844-2.283-0.5333-2.535-1.006a0.842 0.842 0 0 0-0.0039 0c-0.01229-0.0227-0.1473-0.4596-0.2109-1.016-0.06362-0.5561-0.09755-1.266-0.09766-2.027-2.04e-4 -1.522 0.1416-3.267 0.4102-4.488 0.2809-1.274 1.366-3.332 1.834-4.057 0.561 0.02941 1.147-0.0067 1.744-0.1289z" fill="url(#a)"/>
</svg>
