<svg version="1.1" viewBox="0 0 64 64" xmlns="http://www.w3.org/2000/svg">
 <defs>
  <linearGradient id="a" y2="1">
   <stop stop-color="#9c33c4" offset="0"/>
   <stop stop-color="#ff1950" offset=".513"/>
   <stop stop-color="#ff8724" offset=".987"/>
  </linearGradient>
  <linearGradient id="b" y1="1">
   <stop stop-color="#9c33c4" offset="0"/>
   <stop stop-color="#ff1950" offset=".513"/>
   <stop stop-color="#ff8724" offset=".987"/>
  </linearGradient>
 </defs>
 <path transform="translate(-.008748 .003906) scale(.9999) translate(.000148)" d="m25.42-0.003906-0.01562 0.003906a24.64 24.64 0 0 0-16.28 6.16 2.496 2.496 0 0 0 3.309 3.736c3.579-3.152 8.199-4.906 12.98-4.906a19.56 19.56 0 0 1 13.86 5.748c3.679 3.665 5.746 8.653 5.746 13.86s-2.067 10.2-5.746 13.86c-3.665 3.679-8.657 5.746-13.86 5.746-5.176 0-10.14-2.038-13.8-5.689-3.679-3.636-5.762-8.583-5.805-13.76-0.00856-1.378-1.132-2.486-2.51-2.475-1.378 0.01141-2.489 1.14-2.48 2.518 0.05704 6.488 2.665 12.7 7.271 17.27 4.606 4.563 10.84 7.131 17.33 7.131a24.67 24.67 0 0 0 17.4-7.201c4.606-4.62 7.201-10.88 7.201-17.4s-2.595-12.78-7.201-17.4c-4.62-4.606-10.88-7.201-17.4-7.201zm0.332 6.781a17.85 17.85 0 0 0-4.625 0.5176 17.85 17.85 0 0 0-10.98 8.092 17.85 17.85 0 0 0-2.043 13.49 17.85 17.85 0 0 0 8.094 10.98 17.85 17.85 0 0 0 13.49 2.041 17.68 17.68 0 0 0 5.363-2.311 2.133 2.133 0 0 0 0.6445-2.951 2.146 2.146 0 0 0-2.959-0.6484 13.55 13.55 0 0 1-14.33 0.207c-3.073-1.855-5.287-4.864-6.148-8.352-0.8627-3.489-0.3066-7.181 1.549-10.25s4.866-5.287 8.354-6.148a13.55 13.55 0 0 1 10.25 1.551 13.55 13.55 0 0 1 6.541 11.49 2.148 2.148 0 0 0 2.168 2.115 2.132 2.132 0 0 0 2.107-2.158c-0.0057-1.395-0.1853-2.776-0.5176-4.119a17.85 17.85 0 0 0-8.092-10.98 17.85 17.85 0 0 0-8.865-2.559zm-19.93 5.037a2.496 2.496 0 0 0-2.232 1.418c-0.4421 0.8556-0.8429 1.754-1.199 2.652a2.501 2.501 0 0 0 4.678 1.77c0.2709-0.713 0.5849-1.427 0.9414-2.111a2.496 2.496 0 0 0-2.188-3.729zm33.91 17.22v2e-3a2.132 2.132 0 0 0-2.027 1.234c-0.2367 0.529-0.5098 1.024-0.8164 1.512-0.6274 0.9982-0.3247 2.318 0.6777 2.945 1.002 0.627 2.325 0.3213 2.951-0.6855 0.4036-0.6274 0.754-1.288 1.07-1.969a2.139 2.139 0 0 0-1.047-2.842 2.132 2.132 0 0 0-0.8086-0.1973zm9.639 10.04a2.51 2.51 0 0 0-1.799 0.6445 2.5 2.5 0 0 0-0.1641 3.529l10.37 11.42h0.01367c0.2709 0.3137 0.4277 0.7134 0.4277 1.127 0 0.4991-0.2132 0.9573-0.584 1.271l-1.711 1.48c-0.3422 0.2995-0.786 0.457-1.229 0.457-0.5419 0-1.041-0.214-1.412-0.6133l-10.37-11.42c-0.9283-1.022-2.51-1.103-3.529-0.1777s-1.092 2.507-0.1641 3.529l10.37 11.44h0.01367a6.888 6.888 0 0 0 5.092 2.238c1.64 0 3.237-0.5842 4.492-1.668l1.711-1.482c1.469-1.255 2.309-3.11 2.309-5.049 0-1.654-0.6139-3.25-1.74-4.477l-10.37-11.44a2.51 2.51 0 0 0-1.73-0.8086z" fill="url(#a)"/>
 <path transform="translate(-.008748 .003906) scale(.9999) translate(.000148)" d="m32.61 18.26c-0.559-0.01449-1.126 0.1575-1.602 0.5293l-7.93 6.16-2.852-3.564c-0.8656-1.071-2.442-1.243-3.516-0.3848s-1.249 2.43-0.3906 3.508l4.146 5.174a2.903 2.903 0 0 0 4.037 0.4746l9.555-7.432c1.094-0.8499 1.295-2.421 0.4492-3.508-0.4757-0.6112-1.18-0.9384-1.898-0.957z" fill="url(#b)"/>
</svg>
