<svg xmlns="http://www.w3.org/2000/svg" viewBox="0 0 64 64"><defs><linearGradient id="b" y1=".5" y2=".5"><stop offset="0" stop-color="#00ff7f"/><stop offset="1" stop-color="#5fff00"/></linearGradient><linearGradient id="a" x1="1" x2="0" y1=".5" y2=".5"><stop offset="0" stop-color="#ff0015"/><stop offset="1" stop-color="#fc00a3"/></linearGradient></defs><path fill="url(#a)" d="m46.3 13.87.004.004c-5.971-.064-11.87 2.87-15.45 8.16H9.974c-1.383 0-2.712.55-3.69 1.527l-4.77 4.772c-2.016 2.016-2.015 5.363 0 7.379l5.533 5.533a2.61 2.61 0 0 0 3.688 0l1.846-1.846 1.844 1.846a2.61 2.61 0 0 0 3.69 0l1.845-1.846 1.846 1.846a2.6 2.6 0 0 0 1.844.764h7.264c6.3 9.293 19.63 11.09 27.78 2.924 7.349-7.363 6.956-19.34-.467-26.26a18 18 0 0 0-1.578-1.31 17.6 17.6 0 0 0-10.35-3.494zm-.684 5.094-.002.002c2.733-.03 5.513.8 7.926 2.59q.603.448 1.14.945h-.004a12.98 12.98 0 0 1 .33 18.74 12.98 12.98 0 0 1-20.73-3.076 2.61 2.61 0 0 0-2.297-1.375h-7.25L21.8 33.862a2.61 2.61 0 0 0-3.688 0l-1.844 1.846-1.846-1.846a2.61 2.61 0 0 0-3.69 0l-1.846 1.846-3.69-3.688 4.772-4.772h22.01a2.61 2.61 0 0 0 2.299-1.377 12.98 12.98 0 0 1 11.34-6.91zm3.854 6.756v.004a2.6 2.6 0 0 0-1.846.766 2.61 2.61 0 0 0 0 3.688c1.04 1.04 1.04 2.648 0 3.69a2.61 2.61 0 0 0 0 3.69 2.61 2.61 0 0 0 3.691 0c3.034-3.035 3.034-8.034 0-11.07a2.6 2.6 0 0 0-1.846-.766z" transform="translate(1.356 -13.28)scale(.9575)"/><path fill="url(#b)" d="M17.96 44.44c-4.526-.035-9.084 1.63-12.65 5.201-7.349 7.363-6.956 19.34.467 26.26q.742.692 1.578 1.31a17.6 17.6 0 0 0 10.35 3.494l-.004-.004c5.97.064 11.87-2.87 15.45-8.16h20.88c1.383 0 2.712-.55 3.69-1.527l4.77-4.772c2.016-2.016 2.015-5.363 0-7.379l-5.533-5.53a2.61 2.61 0 0 0-3.688 0l-1.846 1.843-1.844-1.844a2.61 2.61 0 0 0-3.691 0l-1.844 1.844-1.846-1.844a2.6 2.6 0 0 0-1.844-.766H33.09a18.48 18.48 0 0 0-15.13-8.125zm.717 5.033c4.419.152 8.71 2.554 11.05 6.934a2.61 2.61 0 0 0 2.297 1.375h7.25l2.928 2.928a2.61 2.61 0 0 0 3.688 0l1.844-1.846 1.846 1.846a2.61 2.61 0 0 0 3.69 0l1.846-1.846 3.69 3.69-4.772 4.77h-22.01a2.61 2.61 0 0 0-2.297 1.377 12.99 12.99 0 0 1-11.34 6.912l.002-.004c-2.733.03-5.513-.8-7.926-2.59a14 14 0 0 1-1.14-.943l.005-.002a12.98 12.98 0 0 1-.33-18.74c2.73-2.732 6.245-3.975 9.682-3.857zm-4.146 6.781a2.6 2.6 0 0 0-1.846.766c-3.034 3.034-3.034 8.033 0 11.07a2.6 2.6 0 0 0 1.846.763v-.004a2.6 2.6 0 0 0 1.846-.763 2.61 2.61 0 0 0 0-3.69 2.57 2.57 0 0 1 0-3.69 2.61 2.61 0 0 0 0-3.688 2.6 2.6 0 0 0-1.846-.766z" transform="translate(1.356 -13.28)scale(.9575)"/></svg>