<svg xmlns="http://www.w3.org/2000/svg" xmlns:xlink="http://www.w3.org/1999/xlink" viewBox="0 0 64 64"><defs><linearGradient id="c" x1="52.87" x2="11.13" y1="10.86" y2="52.6" gradientTransform="translate(22.93 24.62)scale(.7487)" gradientUnits="userSpaceOnUse"><stop offset="0" stop-color="#d300dc"/><stop offset="1" stop-color="#8219ff"/></linearGradient><linearGradient id="a" y1="1"><stop offset="0" stop-color="#fd3ad2"/><stop offset="1" stop-color="#ffa6db"/></linearGradient><linearGradient xlink:href="#a" id="d" x1="18.04" x2="46.8" y1="45.9" y2="17.14" gradientTransform="matrix(.7437 0 0 .7538 22.93 24.62)" gradientUnits="userSpaceOnUse"/><linearGradient xlink:href="#a" id="f" x1="16.89" x2="43.56" y1="43.12" y2="16.45" gradientTransform="matrix(.7032 0 0 .7973 22.93 24.62)" gradientUnits="userSpaceOnUse"/><linearGradient id="b" x1="1" x2="0" y1=".5" y2=".5"><stop offset="0" stop-color="#0072ff"/><stop offset="1" stop-color="#00e5a1"/></linearGradient></defs><path fill="url(#b)" d="M11 1.25c-2.285 0-4.355.339-5.92.926-.783.293-1.443.647-1.949 1.096-.502.445-.875 1.035-.88 1.712l-.001.015v14c0 .685.375 1.28.881 1.728s1.167.803 1.949 1.096c1.565.587 3.635.926 5.92.926a.75.75 0 0 0 .75-.75.75.75 0 0 0-.75-.75c-2.133 0-4.062-.331-5.393-.83-.665-.25-1.177-.543-1.48-.812s-.377-.464-.377-.608v-4.816q.443.273.979.497c1.374.58 3.193.948 5.236 1.043a.75.75 0 0 0 .785-.715.75.75 0 0 0-.715-.783c-1.902-.09-3.582-.445-4.722-.926-.57-.24-1.001-.515-1.252-.758-.238-.23-.304-.393-.31-.523V7.185c.39.243.835.452 1.33.638 1.565.587 3.635.926 5.92.926s4.355-.339 5.92-.926q.744-.276 1.33-.637V11a.75.75 0 0 0 .75.75.75.75 0 0 0 .75-.75V4.984c-.006-.678-.379-1.268-.881-1.712-.506-.449-1.167-.803-1.95-1.096-1.564-.587-3.634-.926-5.92-.926zm0 1.5c2.133 0 4.062.332 5.393.83.665.25 1.177.544 1.48.813s.377.463.377.607-.074.339-.377.608-.815.563-1.48.812c-1.33.499-3.259.83-5.393.83s-4.062-.331-5.393-.83c-.665-.25-1.177-.543-1.48-.812-.303-.27-.377-.464-.377-.608s.074-.338.377-.607c.303-.27.815-.563 1.48-.812 1.33-.5 3.259-.831 5.393-.831m-4.978 7.34a.75.75 0 0 0-.74.535.75.75 0 0 0 .504.934c.639.191 1.343.348 2.1.463a.75.75 0 0 0 .856-.629.75.75 0 0 0-.628-.853 14 14 0 0 1-1.898-.418.8.8 0 0 0-.194-.032zm0 7a.75.75 0 0 0-.74.535.75.75 0 0 0 .504.934c.639.191 1.343.348 2.1.462a.75.75 0 0 0 .856-.628.75.75 0 0 0-.628-.854 14 14 0 0 1-1.898-.417.8.8 0 0 0-.194-.032z" transform="translate(-4.465 -3.72)scale(2.9767)"/><path fill="url(#c)" d="M46.89 32.75c-1.122-.012-1.516.03-1.674 1.388l-.06.481c-.139.881-.165 1.28-.999 1.496l-.168.038-.038.009q-.315.076-.623.17l.002-.003-.098.03-.094.03c-.838.235-1.06-.098-1.622-.794l-.293-.386c-.408-.549-.703-.783-1.016-.809a1 1 0 0 0-.118 0c-.28.022-.587.194-1.011.445-.98.551-1.298.784-.756 2.04l.187.446c.345.896.524 1.242-.272 1.938l.022-.004q-.247.234-.481.48l.004-.02c-.695.796-1.042.616-1.939.27l-.446-.186c-.392-.17-.685-.255-.918-.262-.514-.016-.742.344-1.12 1.018-.573.967-.734 1.328.364 2.144l.386.292c.696.563 1.03.786.793 1.623l-.029.094-.03.098v-.002q-.09.31-.167.625l-.01.036-.037.169c-.216.834-.616.86-1.497.998l-.48.06c-1.359.158-1.4.552-1.388 1.676-.012 1.124.03 1.516 1.388 1.674l.48.06c.881.139 1.28.167 1.497 1l.038.167.009.038q.076.315.168.623l-.002-.001q.016.05.031.098l.03.093c.234.838-.098 1.06-.794 1.623l-.386.293c-1.098.816-.937 1.177-.364 2.144.55.979.782 1.3 2.039.757l.446-.188c.896-.345 1.244-.525 1.939.272l-.005-.022q.235.247.481.48l-.022-.004c.796.696.617 1.042.272 1.94l-.188.445c-.543 1.256-.222 1.488.757 2.04.968.573 1.328.734 2.144-.364l.293-.386c.563-.696.785-1.029 1.623-.793q.046.014.093.027.048.014.098.033l-.001-.003q.309.09.623.168l.038.009.167.038c.834.216.861.616 1 1.497l.06.48c.158 1.358.55 1.4 1.674 1.387 1.124.013 1.518-.029 1.676-1.388l.06-.48c.138-.88.164-1.28.998-1.496l.169-.038.035-.01q.316-.075.626-.167l-.003.003.1-.033q.046-.014.093-.027c.837-.235 1.059.097 1.622.793l.292.386c.816 1.098 1.18.937 2.145.364.98-.55 1.298-.783.756-2.04l-.187-.446c-.345-.896-.526-1.244.27-1.939l-.02.005q.247-.234.481-.481L56 57.03c.695-.796 1.04-.617 1.938-.272l.447.188c1.256.543 1.488.222 2.04-.757.572-.968.733-1.328-.365-2.144l-.386-.293c-.696-.563-1.029-.784-.793-1.622l.029-.093.03-.1-.002.003q.091-.31.168-.626l.001.002.01-.038.037-.167c.216-.834.615-.86 1.496-.999l.481-.061c1.36-.158 1.4-.55 1.388-1.674.013-1.124-.029-1.518-1.388-1.676l-.48-.06c-.882-.139-1.28-.165-1.497-.999l-.038-.167-.009-.038-.001.002q-.076-.316-.168-.626l.003.003-.033-.1q-.014-.046-.027-.093c-.235-.838.097-1.06.793-1.622l.386-.293c1.098-.816.937-1.179.364-2.145-.379-.673-.606-1.036-1.12-1.019-.233.008-.527.094-.92.264l-.445.187c-.896.345-1.242.525-1.938-.27l.004.02a13 13 0 0 0-.48-.481l.02.004c-.796-.695-.616-1.041-.27-1.938l.186-.446c.543-1.256.224-1.488-.756-2.04-.483-.286-.816-.47-1.129-.445-.313.026-.608.26-1.016.809l-.292.386c-.563.697-.784 1.03-1.622.794l-.094-.03-.1-.03.004.003a13 13 0 0 0-.626-.169l.001-.001-.038-.009-.167-.038c-.834-.216-.86-.615-.998-1.496l-.06-.481c-.158-1.358-.552-1.4-1.674-1.388zm-.001 6.458h.002a9.1 9.1 0 0 1 3.03.516 2.5 2.5 0 0 0 1.14 1.433 2.5 2.5 0 0 0 1.805.27 9.15 9.15 0 0 1 3.01 5.114.835.835 0 0 1-.817 1.002h-2.58a.83.83 0 0 1-.797-.596 4.99 4.99 0 0 0-4.787-3.571 5 5 0 0 0-1.154.14.83.83 0 0 1-.92-.392l-1.286-2.23a.833.833 0 0 1 .456-1.206 9.2 9.2 0 0 1 2.898-.48zm-5.483 2.104c.284.013.542.17.683.415l1.29 2.23a.83.83 0 0 1-.118.99 5 5 0 0 0-1.372 3.43 5 5 0 0 0 1.37 3.431c.253.268.3.67.116.99l-1.284 2.226a.833.833 0 0 1-1.274.208 9.18 9.18 0 0 1-2.93-5.155 2.5 2.5 0 0 0 .67-1.7 2.5 2.5 0 0 0-.67-1.7 9.16 9.16 0 0 1 2.928-5.158.84.84 0 0 1 .593-.209zm11.07 7.899h2.57c.528 0 .922.484.817 1a9.14 9.14 0 0 1-3.007 5.114 2.5 2.5 0 0 0-.609-.063 2.5 2.5 0 0 0-1.192.334 2.5 2.5 0 0 0-1.137 1.43 9.1 9.1 0 0 1-3.034.52 9.2 9.2 0 0 1-2.898-.482.833.833 0 0 1-.455-1.206l1.286-2.227a.834.834 0 0 1 .919-.394c.378.092.766.14 1.155.142a5 5 0 0 0 4.787-3.573.83.83 0 0 1 .798-.595z" transform="translate(-.744)scale(.9999)"/><path fill="url(#d)" d="M46.9 37.54c-5.128 0-9.427 3.568-10.55 8.356a2.5 2.5 0 0 1 1.542.782 9.16 9.16 0 0 1 2.929-5.158.833.833 0 0 1 1.274.208l1.289 2.23a.83.83 0 0 1-.117.99 5 5 0 0 0-1.37 3.429 5 5 0 0 0 1.369 3.432c.253.268.301.67.117.99l-1.286 2.226a.833.833 0 0 1-1.274.207 9.17 9.17 0 0 1-2.93-5.157 2.5 2.5 0 0 1-1.541.784c1.123 4.787 5.419 8.356 10.55 8.356 1.087 0 2.135-.16 3.125-.459a2.5 2.5 0 0 1-.094-1.729 9.1 9.1 0 0 1-3.034.52A9.2 9.2 0 0 1 44 57.066a.833.833 0 0 1-.457-1.205l1.287-2.229a.834.834 0 0 1 .92-.393q.568.138 1.153.141a5 5 0 0 0 4.79-3.573.83.83 0 0 1 .797-.595h2.57c.528 0 .922.484.816 1a9.14 9.14 0 0 1-3.007 5.114 2.5 2.5 0 0 1 1.453.944 10.8 10.8 0 0 0 3.414-7.892 10.8 10.8 0 0 0-3.414-7.892 2.5 2.5 0 0 1-1.447.942 9.15 9.15 0 0 1 3.01 5.115c.106.516-.29 1-.817 1h-2.58a.83.83 0 0 1-.797-.596 4.99 4.99 0 0 0-4.787-3.57 5 5 0 0 0-1.154.14.834.834 0 0 1-.92-.394l-1.288-2.229a.835.835 0 0 1 .456-1.208 9.2 9.2 0 0 1 2.901-.478c1.056 0 2.076.182 3.03.516A2.5 2.5 0 0 1 50.025 38c-.99-.297-2.038-.459-3.124-.459zm0 7.502a3.334 3.334 0 0 1 3.333 3.334A3.334 3.334 0 0 1 46.9 51.71a3.334 3.334 0 0 1-3.334-3.334 3.334 3.334 0 0 1 3.334-3.334" transform="translate(-.744)scale(.9999)"/><path fill="url(#f)" d="M52.25 37.74a1.25 1.25 0 0 0-1.024.624 1.25 1.25 0 0 0 .456 1.708 1.25 1.25 0 0 0 1.708-.457 1.25 1.25 0 0 0-.457-1.708 1.25 1.25 0 0 0-.683-.165zm-16.2 9.382a1.25 1.25 0 0 0-1.25 1.25 1.25 1.25 0 0 0 1.25 1.25 1.25 1.25 0 0 0 1.25-1.25 1.25 1.25 0 0 0-1.25-1.25m16.23 9.382v.002a1.25 1.25 0 0 0-.597.166 1.25 1.25 0 0 0-.457 1.708 1.25 1.25 0 0 0 1.708.456 1.25 1.25 0 0 0 .457-1.706 1.25 1.25 0 0 0-1.11-.625z" transform="translate(-.744)scale(.9999)"/></svg>