<svg xmlns="http://www.w3.org/2000/svg" viewBox="0 0 64 64"><defs><linearGradient id="b" x1="6.904" x2="56.1" y1="53.54" y2="4.339" gradientTransform="matrix(-.4573 -.1225 .1751 -.6535 54.91 67.12)" gradientUnits="userSpaceOnUse"><stop offset="0" stop-color="#5433ff"/><stop offset=".5" stop-color="#e948ff"/><stop offset="1" stop-color="#ff005b"/></linearGradient><linearGradient id="a" y1=".5" y2=".5"><stop offset="0" stop-color="#00c400"/><stop offset="1" stop-color="#00f100"/></linearGradient></defs><path fill="url(#a)" d="M8.844 5.004c-2.299.08-4.762 1.295-6.715 4.195-.354.526-1.135 1.51-1.129 2.834.006 1.304.784 2.256 1.129 2.768 2.404 3.569 5.59 4.532 8.268 4.094s4.835-2.031 5.963-3.398c.109-.132.382-.16.38-.16l4.202 2.215c.216.114.448.208.762.219s.759-.136 1.014-.452c.254-.315.294-.659.28-.921s-.076-.485-.165-.71l-.024-.056-1.69-3.606 1.692-3.66.022-.053c.089-.225.153-.446.166-.709s-.027-.606-.281-.922-.7-.461-1.014-.451-.546.105-.762.219l-4.201 2.217c.001 0-.272-.028-.38-.16-1.34-1.624-4.156-3.618-7.517-3.502zm.07 2c2.466-.085 4.977 1.653 5.902 2.775.682.827 1.828 1.2 2.857.656l2.611-1.379-1.18 2.553a1 1 0 0 0 .002.844l1.166 2.482-2.6-1.369c-1.03-.544-2.176-.17-2.857.656-.779.945-2.702 2.363-4.744 2.697s-4.217-.168-6.283-3.236c-.351-.522-.787-1.354-.789-1.658-.001-.32.448-1.2.79-1.709 1.678-2.493 3.437-3.254 5.124-3.312z" transform="translate(-2.909 -5.752)scale(2.909)"/><path fill="url(#a)" d="M6.5 9.146a1 1 0 0 0-1 1 1 1 0 0 0 1 1 1 1 0 0 0 1-1 1 1 0 0 0-1-1" transform="translate(-2.909 -5.752)scale(2.909)"/><path fill="url(#b)" d="M32.3 58.02a2.35 2.35 0 0 0 .957-.006 11 11 0 0 0 .983-.24l3.421-.93.013-.004 1.72-.468c.976-.265 1.614-.437 2.218-.708a8.5 8.5 0 0 0 1.517-.878c.533-.39.999-.858 1.714-1.573l13.32-13.32a4.81 4.81 0 0 0 .935-5.475 10.48 10.48 0 0 0-4.907-4.91 5 5 0 0 0-.61-.242v.002a4.81 4.81 0 0 0-4.863 1.175l-13.32 13.32c-.716.715-1.182 1.187-1.57 1.719a8.5 8.5 0 0 0-.877 1.512c-.272.604-.446 1.242-.711 2.218l-1.454 5.346-.032.12a9 9 0 0 0-.154.671 2.35 2.35 0 0 0 .078 1.268 2.27 2.27 0 0 0 1.317 1.316 2 2 0 0 0 .31.085zm1.238-2.957.566-2.08h.003a3.1 3.1 0 0 1 1.513 1.514zm4.799-1.301a6 6 0 0 0-1.367-2.126 6 6 0 0 0-2.126-1.365l.058-.218c.306-1.118.423-1.533.592-1.914a5.6 5.6 0 0 1 .588-1.01c.244-.336.545-.648 1.364-1.467l9.683-9.68a9.2 9.2 0 0 1 5.488 5.496l-9.677 9.676c-.818.82-1.128 1.12-1.463 1.365q-.477.348-1.013.592c-.38.168-.797.285-1.914.588zM40 49.658a1.4 1.4 0 0 0 1.261-.326l8.099-8.095a1.398 1.398 0 0 0-.565-2.318h-.002a1.4 1.4 0 0 0-1.41.341l-8.093 8.097a1.398 1.398 0 0 0 .713 2.301zm14.75-10.31a12 12 0 0 0-5.5-5.494l1.436-1.436a2.01 2.01 0 0 1 2.031-.492v.002a2 2 0 0 1 .254.1 7.68 7.68 0 0 1 3.6 3.599c.367.768.21 1.686-.391 2.288z" transform="translate(0 -2.855)"/></svg>