<svg xmlns="http://www.w3.org/2000/svg" viewBox="0 0 64 64"><defs><linearGradient id="a" x1="1" x2="0" y1="1"><stop offset="0" stop-color="#24d863"/><stop offset="1" stop-color="#e5f230"/></linearGradient></defs><path fill="url(#a)" d="M8.87 2 1.72 13.91l2.49 4.98a1.999 1.999 0 0 0 3.58-1.781L6.28 14.09 11.13 6h7.74l6 10h12l4.8 8-4.8 8h-9.63l-1.45-2.89a1.999 1.999 0 0 0-3.58 1.781L24.76 36h14.37l7.2-12-7.2-12h-12l-6-10zm13.07 16a2.01 2.01 0 0 0-1.726 1.106l-1.45 2.89H8.873l-7.2 12 7.2 12h12.13l3.601-4.8c.662-.883.483-2.139-.4-2.801s-2.139-.483-2.8.4l-2.4 3.2h-7.87l-4.8-8 4.8-8h10.11l2.55-5.11A1.998 1.998 0 0 0 21.938 18z" transform="translate(-2.397 -2.392)scale(1.433)"/></svg>