<svg version="1.1" viewBox="0 0 64 64" xmlns="http://www.w3.org/2000/svg">
 <path transform="translate(.08625 .02831) scale(.9977)" d="M16.026.692C13.82.622 12.004 2.3 12.004 5.344V56.7c0 4.178 3.276 6.016 5.896 3.925L33.96 47.823l16.059-12.8c2.617-2.089 2.617-7.304 0-9.392l-16.06-11.42L17.9 1.411c-.57-.455-1.215-.705-1.874-.726z" fill="#fff" opacity=".2" stroke="#000" stroke-width="1.382"/>
 <path transform="translate(.08625 .02831) scale(.9977)" d="m4.915 1.931c-2.206-0.071-4.022 1.607-4.022 4.652v52.74c0 4.178 3.277 6.018 5.896 3.926l32.12-25.61c2.617-2.089 2.617-7.304 0-9.392l-32.12-25.61c-0.57-0.455-1.215-0.704-1.874-0.725z" opacity=".2"/>
 <path transform="translate(.08625 .02831) scale(.9977)" d="m16.02 1.931c-2.206-0.071-4.022 1.607-4.022 4.652v52.74c0 4.178 3.276 6.018 5.896 3.926l32.12-25.61c2.616-2.089 2.616-7.304 0-9.392l-16.06-12.8-16.06-12.8c-0.57-0.455-1.215-0.704-1.875-0.725z" opacity=".2"/>
 <path transform="translate(.08625 .02831) scale(.9977)" d="m27.12 1.931c-2.205-0.071-4.021 1.607-4.021 4.652v52.74c-1e-3 4.178 3.276 6.018 5.896 3.926l32.12-25.61c2.616-2.089 2.616-7.304 0-9.392l-16.06-12.8-16.06-12.8c-0.571-0.455-1.215-0.704-1.875-0.725z" opacity=".2"/>
 <path transform="translate(.08625 .02831) scale(.9977)" d="m4.915 0.82c-2.206-0.07-4.022 1.607-4.022 4.653v52.74c0 4.179 3.277 6.018 5.896 3.927l32.12-25.61c2.617-2.09 2.617-7.304 0-9.392l-32.12-25.61c-0.57-0.455-1.216-0.705-1.875-0.726z" fill="#357aef"/>
 <g transform="translate(.08625 .02831) scale(.9977)" fill="#fff">
  <path d="M4.915.823C2.709.752.893 2.43.893 5.476v1.11c0-3.045 1.816-4.724 4.022-4.653.659.021 1.304.272 1.874.727l32.118 25.599c1.176.938 1.82 2.507 1.94 4.14.146-2.003-.498-4.101-1.94-5.25L6.79 1.548C6.22 1.094 5.574.844 4.915.823" opacity=".2"/>
  <path d="m16.02 0.82c-2.206-0.07-4.022 1.607-4.022 4.653v52.74c0 4.179 3.276 6.018 5.896 3.927l32.12-25.61c2.616-2.09 2.616-7.304 0-9.392l-16.06-12.8-16.06-12.8c-0.57-0.455-1.215-0.705-1.875-0.726z"/>
  <path d="M16.02.823c-2.206-.071-4.022 1.607-4.022 4.653v1.11c0-3.045 1.816-4.724 4.021-4.653.66.021 1.304.272 1.875.727l32.118 25.599c1.176.938 1.82 2.507 1.939 4.14.146-2.003-.498-4.101-1.94-5.25l-32.117-25.6c-.57-.455-1.215-.705-1.875-.726" opacity=".2"/>
 </g>
 <path transform="translate(.08625 .02831) scale(.9977)" d="m27.12 0.82c-2.205-0.07-4.021 1.607-4.021 4.653v52.74c-1e-3 4.179 3.276 6.018 5.896 3.927l32.12-25.61c2.616-2.09 2.616-7.304 0-9.392l-16.06-12.8-16.06-12.8c-0.571-0.455-1.215-0.705-1.875-0.726z" fill="#fc8918"/>
 <path transform="translate(.08625 .02831) scale(.9977)" d="M27.125.823C24.92.752 23.104 2.43 23.104 5.476v1.11c0-3.045 1.816-4.724 4.021-4.653.66.021 1.304.272 1.875.727l32.118 25.599c1.176.938 1.82 2.507 1.939 4.14.146-2.003-.498-4.101-1.94-5.25L29 1.548c-.571-.455-1.215-.705-1.875-.726" fill="#fff" opacity=".2"/>
</svg>
