<svg version="1.1" viewBox="0 0 64 64" xmlns="http://www.w3.org/2000/svg">
 <defs>
  <linearGradient id="c" x1="197" x2="486.8" y1="174.4" y2="788.7" gradientUnits="userSpaceOnUse">
   <stop stop-color="#fea51d" offset="0"/>
   <stop stop-color="#ff0a76" offset="1"/>
  </linearGradient>
  <linearGradient id="a" x1="612.9" x2="1017" y1="776.6" y2="776.6" gradientUnits="userSpaceOnUse">
   <stop stop-color="#ff3a7a" offset="0"/>
   <stop stop-color="#ff8fb7" offset="1"/>
  </linearGradient>
 </defs>
 <path transform="translate(-0) scale(1) translate(-0) scale(1) translate(1e-6) scale(1) translate(-.002094 .002521) scale(1) translate(-.505 -.347) scale(.06341)" d="M617.2 558.6c8.492 12.51 20.65 35.96 17.95 51.59-.985 5.71-4.947 9.801-9.59 12.94-32.32 21.82-138.7 21.82-180 21.46-13.12-.115-26.44-1.155-39.52-.947-6.631-.226-13.77-.595-20.38-.526 4.658 1.371 10.99 3.532 15.43 4.688 6.586 2.926 24.19 7.876 31.76 10.07 51.06 14.78 127.4 32.59 180.1 25.19 15.91 10.87 32.22 21.45 48.51 31.75l41.95 23.5c47.99 25.06 114 49.57 166.6 60.14-.165 17.4 1.688 35.33 10.67 50.65 24.65 42.02 92.34 61.4 136 73.67 1.16-38.61-.22-136.7-22.04-166.1-11.54-15.53-29.78-25.78-48.85-28.41-17.86-2.46-34.2 2.19-48.47 12.98a592 592 0 0 0-77.74-49.51c-13.97-7.528-28.18-13.98-41.83-21.27l-39.98-18.26c-14.9-6.184-42.03-17.26-57.66-21.65l.053-.04c-.03-7.317-.355-13.13-3.436-19.86-11.01-24.06-36.95-40.32-59.52-52.07zm318.9 209.9c7.5-.341 13.95 2.566 19.38 7.606 15.53 14.4 17.1 66.86 18.04 88.1a149 149 0 0 1-16.56-6.76l-.611-.3c-13.55-6.726-37.77-21.59-42.4-36.94-6.086-20.18-2.431-44.2 20.29-51.58a46 46 0 0 1 1.85-.126z" fill="url(#a)"/>
 <path transform="translate(-0) scale(1) translate(-0) scale(1) translate(1e-6) scale(1) translate(-.002094 .002521) scale(1) translate(-.505 -.347) scale(.06341)" d="m925.8 836.9" fill="url(#c)"/>
 <path transform="translate(-0) scale(1) translate(-0) scale(1) translate(1e-6) scale(1) translate(-.002094 .002521) scale(1) translate(-.505 -.347) scale(.06341)" d="M827.6 97.15c-18.06.016-28.81 19.2-36.56 35.81-6.352 13.62-10.95 27.93-17.61 40.75-35.93 69.11-108.5 116.2-180.9 139.8-15.53 5.389-27.92 7.773-43.36 11.91a135.24 135.24 0 0 0-102.3-14.53 136.15 136.15 0 0 0-52.96 27.28c-14.31-1.837-27-4.216-40.56-9.6-44.2-17.56-84.94-54.08-113.8-91.26-14.56-18.74-28.14-43.83-42.51-62.91l.03 202.5c-11.43 17.7-11.9 21.57-18.44 40.96-28.3-19.51-60.96-32.08-95.85-25.63a87.6 87.6 0 0 0-57.41 37.45C10.53 451.35 5.93 479.5 8.81 505.7c5.76 52.35 37.93 102.5 81.14 132.1 23.64 16.19 49.99 25.44 78.81 25.74 30.35 22.81 65.22 46.37 99.52 62.75 91.2 43.55 203.7 74.59 304.9 60.2a265 265 0 0 0 15.69-2.703c39.89-6.977 81-22.79 114.6-45.52l-41.95-23.5c-20.04 10.46-43.25 19.76-65.38 24.51a280 280 0 0 1-27.73 5.254c-74.85 10.55-153.2-5.657-223.5-31.38-34.88-12.78-68.89-28.46-100.3-48.34-8.404-5.313-16.94-10.47-24.9-16.46 5.728-4.418 10.43-7.964 15.31-13.43 20.46-22.89 26.19-51.13 24.78-80.88 42.05 11 81.06 2.123 112.6-28.45 11.62 14.61 22.01 24.72 38.3 34.48a134.56 134.56 0 0 0 102.3 15.86c32.23-8.182 65.6-30 82.65-58.88a135.6 135.6 0 0 0 18.87-101.8c-4.886-22.61-13.21-37.48-26.14-56.04 87.76-25.04 172.8-76.2 218.2-157.8 6.2-11.14 10.63-22.06 15.64-33.73 2.94 23.05 3.817 46.28 4.624 69.49 4.034 116-8.606 312.7-81.33 406-2.438 3.129-4.976 6.136-7.75 8.971l39.98 18.26c2.172-3.788 7.246-10.12 9.978-14.1a283 283 0 0 0 16.38-26.91c59.58-109.2 69.03-285.7 64.17-408.6-1.236-26.05-2.79-53.02-7.227-78.68-2.946-14.93-3.685-34.37-19.65-41.73-4.998-2.305-9.554-3.322-13.72-3.318zM239 299.25c2.26 1.859 4.98 4.85 7.043 7.062 7.749 8.313 15.89 15.78 24.38 23.33l-9.111 2.23c-8.932 2.51-13.75 4.697-22.15 8.451-.25-13.6.025-27.38-.168-41.07zm238.4 49.43c5.271-.261 12.03.194 17.22.945a93.9 93.9 0 0 1 62.33 37.35c16.46 22.42 20.93 46.08 16.91 73.07-8.741-30.88-34.19-50.19-66.51-47.99 12.09 3.605 22.17 10.44 25.16 23.74 1.815 8.083.144 17.19-4.457 24.13a31.14 31.14 0 0 1-19.81 13.16 31.33 31.33 0 0 1-23.93-4.607 30.75 30.75 0 0 1-13.41-19.76c-2.152-11.04 1.69-18.47 7.543-27.17-6.401 4.572-8.911 6.857-14.3 12.62-6.389 8.058-10.85 16.43-13.17 26.53a63.56 63.56 0 0 0 8.307 47.9 63.1 63.1 0 0 0 39.26 27.44 101 101 0 0 1-11.71 1.475 94.2 94.2 0 0 1-68.69-23.48 92.34 92.34 0 0 1-31.63-64.38c-3.08-54.36 36.59-98.19 90.9-101zm-187.5 21c4.244-.032 8.054.109 12.28.729a74.42 74.42 0 0 1 49.18 29.79c-2.801 8.449-4.171 14.83-5.857 23.45-11.02-9.285-21.78-12.53-35.8-11.57q2.062.58 4.09 1.273c22.33 7.62 24.26 38.92 2.533 48.18a26.13 26.13 0 0 1-20.42.105 25.12 25.12 0 0 1-13.86-14.56c-3.722-9.974-1.456-17.8 2.826-26.99-15.69 9.606-22.25 20.35-24.83 38.61-.912 28.2 14.46 51.56 43.07 56.9-18.25 3.073-39.78-1.333-54.44-12.93-5.294-4.188-9.658-19.65-14.29-25.62-2.369-3.057-4.539-7.636-7.09-10.75-5.548-7.219-8.37-9.482-8.977-19.01a71.97 71.97 0 0 1 18.45-53.19c14.46-16.16 31.82-23.31 53.14-24.42zm-174.5 64.33c17.52 3.627 35.18 13.64 47.92 24.11 28.9 23.89 50.64 58.61 54.17 96.43 3.284 35.17-10.18 63.95-47.91 67.3-47.42.859-92.31-42.04-110.8-87.72 4.71 1.773 9.696 2.725 14.85 2.725 28.59 0 51.72-28.98 51.72-64.64 0-14.23-3.682-27.47-9.965-38.21zm468.7 72.82c.103.031.25.078.252.074v.002c-.005.003-.154-.046-.252-.076" fill="url(#c)"/>
</svg>
