<svg xmlns="http://www.w3.org/2000/svg" fill="none" viewBox="0 0 64 64"><defs><linearGradient id="a" x1="52.54" x2="48.24" y1="22.05" y2="58.44" gradientUnits="userSpaceOnUse"><stop offset="0" stop-color="#ff65a6"/><stop offset="1" stop-color="#f40631"/></linearGradient><linearGradient id="b" x1="26.56" x2="23.17" y1="56.94" y2="18.8" gradientUnits="userSpaceOnUse"><stop offset="0" stop-color="#5570ff"/><stop offset="1" stop-color="#95e5ff"/></linearGradient><linearGradient id="c" x1="32.28" x2="32.28" y1="75.5" y2="3" gradientUnits="userSpaceOnUse"><stop offset=".174" stop-color="#fd3d00"/><stop offset=".913" stop-color="#ffde00"/></linearGradient></defs><path fill="url(#a)" fill-rule="evenodd" d="M46 27c0-4.394 3.606-8 8-8s8 3.606 8 8c0 2.966-1.643 5.573-4.062 6.954a1.08 1.08 0 0 0-.563.928v10.95c0 5.143-3.938 10.15-9.62 10.15H39.5c-2.514 0-4.434 1.929-4.434 4.099a.29.29 0 0 0-.289-.289h-5.284c.16-5.44 4.852-9.388 10.01-9.388h8.254c2.077 0 4.043-1.957 4.043-4.573v-10.39c0-.445-.297-.83-.711-.994-2.968-1.173-5.086-4.078-5.086-7.446zM29.49 59.79a10 10 0 0 0-.004.288v-.284q0-.004.004-.004M54 31c2.211 0 4-1.789 4-4s-1.789-4-4-4-4 1.789-4 4 1.789 4 4 4" clip-rule="evenodd" transform="translate(-1.59 -1.593)scale(1.05005)"/><path fill="url(#a)" d="m29.49 59.79-.5-.015zm21.59-25.34-.184.465zm2.914-15.95c-4.671 0-8.5 3.829-8.5 8.5h1c0-4.118 3.382-7.5 7.5-7.5zm8.5 8.5c0-4.671-3.829-8.5-8.5-8.5v1c4.118 0 7.5 3.382 7.5 7.5zm-4.314 7.388c2.567-1.466 4.314-4.234 4.314-7.388h-1c0 2.778-1.538 5.223-3.81 6.52zm-.311 11.44v-10.95h-1v10.95zm-10.12 10.65c6.009 0 10.12-5.285 10.12-10.65h-1c0 4.92-3.765 9.65-9.12 9.65zm-8.254 0h8.254v-1h-8.254zm-3.934 3.599c0-1.87 1.67-3.599 3.934-3.599v-1c-2.765 0-4.934 2.128-4.934 4.599zm-6.073.212h5.284v-1h-5.284zm10.01-10.39c-5.393 0-10.34 4.132-10.51 9.873l1 .03c.15-5.14 4.59-8.903 9.505-8.903v-1zm8.254 0h-8.254v1h8.254zm3.543-4.073c0 2.38-1.781 4.073-3.543 4.073v1c2.39 0 4.543-2.221 4.543-5.073zm0-10.39v10.39h1v-10.39zm-5.798-8.441c0 3.582 2.252 6.666 5.403 7.91l.367-.93c-2.786-1.1-4.77-3.826-4.77-6.98zm-15.51 33.08q0-.138.004-.274l-1-.03q-.004.151-.004.304zm-1-.284v.284h1v-.284zm28.51-32.8c0 1.935-1.565 3.5-3.5 3.5v1c2.487 0 4.5-2.013 4.5-4.5zm-3.5-3.5c1.935 0 3.5 1.565 3.5 3.5h1c0-2.487-2.013-4.5-4.5-4.5zm-3.5 3.5c0-1.935 1.565-3.5 3.5-3.5v-1a4.5 4.5 0 0 0-4.5 4.5zm3.5 3.5a3.497 3.497 0 0 1-3.5-3.5h-1c0 2.487 2.013 4.5 4.5 4.5zm-24.01 29.3a.496.496 0 0 1-.496.496v-1a.504.504 0 0 0-.504.504zm22.31-24.35c0-.677-.449-1.231-1.028-1.46l-.368.93c.25.098.395.316.395.53zm-16.73 24.64a.79.79 0 0 0-.789-.788v1a.21.21 0 0 1-.211-.212zm22.12-26.56c-.473.27-.816.773-.816 1.362h1c0-.187.111-.38.311-.494z" transform="translate(-1.59 -1.593)scale(1.05005)"/><path fill="url(#b)" fill-rule="evenodd" d="M34.07 15.27a1 1 0 0 1 1 1v.896c0 2.692-1.046 4.046-2.881 5.703-1.807 1.632-4.212 2.443-6.74 2.443h-9.035c-1.269 0-2.129.427-2.674.989-.553.57-.979 1.486-.979 2.804v.7c0 .417.263.786.64.965 2.71 1.286 4.6 4.054 4.6 7.235 0 3.41-2.17 6.344-5.196 7.488a.07.07 0 0 0-.045.064c0 2.7 1.651 4.294 3.653 4.294h9.035c3.078 0 5.525 1.773 7.09 3.827 1.365 1.794 2.273 4.06 2.483 6.328.051.55-.4.998-.953.998h-3.577c-.552 0-.995-.45-1.093-.994a7.1 7.1 0 0 0-1.298-2.954c-.882-1.16-1.85-1.628-2.652-1.628h-9.035c-5.757 0-9.23-4.812-9.23-9.871a.1.1 0 0 0-.064-.093C4.134 44.3 2 41.386 2 38.004c0-3.161 1.866-5.914 4.55-7.21.374-.18.634-.547.634-.963v-.726c0-2.561.855-4.936 2.553-6.687 1.706-1.76 4.067-2.683 6.677-2.683h9.035c1.352 0 2.363-.428 3.002-1.005.166-.15.32-.247.455-.332.359-.226.586-.37.586-1.232v-.896a1 1 0 0 1 1-1zM10 42c2.211 0 4-1.789 4-4s-1.789-4-4-4-4 1.789-4 4 1.789 4 4 4" clip-rule="evenodd" transform="translate(-1.59 -1.593)scale(1.05005)"/><path fill="url(#b)" d="m32.19 22.86-.335-.371zm-18.45 3.432-.359-.348zm18.8 27.38.398-.303zm-4.437 3.378-.398.303zM9.743 22.41l.359.348zm18.71-3.688-.335-.371zm.455-.332.266.423zm-22.35 12.4-.217-.45zm22.85 29.22-.492.09zm5.623-.004-.498.046zm-27.9-14.54L7.313 45zm5.685.03-.177-.468zm.596-14.72.215-.452zm22.17-13.6v-.897h-1v.896zm-3.045 6.073c.928-.837 1.698-1.635 2.23-2.592.539-.968.816-2.066.816-3.483h-1c0 1.275-.246 2.2-.69 2.996-.449.808-1.119 1.516-2.027 2.336zm-7.075 2.572c2.632 0 5.163-.845 7.075-2.572l-.67-.742c-1.702 1.537-3.982 2.314-6.404 2.314zm-9.035 0h9.035v-1h-9.035zm-2.315.837c.441-.455 1.167-.837 2.315-.837v-1c-1.39 0-2.384.472-3.033 1.14zm-.838 2.456c0-1.206.387-1.99.838-2.456l-.717-.696c-.656.675-1.12 1.722-1.12 3.152zm0 .7v-.7h-1v.7zm5.24 8.2c0-3.383-2.009-6.322-4.885-7.686l-.428.903c2.544 1.207 4.314 3.804 4.314 6.783zm-5.519 7.956c3.212-1.215 5.52-4.33 5.52-7.956h-1c0 3.193-2.035 5.947-4.874 7.02zm3.432 3.39c-.863 0-1.64-.341-2.206-.97-.567-.63-.947-1.578-.947-2.825h-1c0 1.452.446 2.652 1.204 3.494.76.844 1.81 1.3 2.95 1.3zm9.035 0h-9.035v1h9.035zm7.487 4.024c-1.623-2.133-4.203-4.024-7.486-4.024v1c2.872 0 5.187 1.655 6.691 3.63l.796-.606zm2.585 6.585c-.22-2.364-1.163-4.718-2.584-6.585l-.796.605c1.31 1.722 2.183 3.9 2.384 6.071zm-5.028 1.545h3.577v-1h-3.577zm-2.79-4.146a6.6 6.6 0 0 1 1.205 2.74l.984-.178a7.6 7.6 0 0 0-1.392-3.168l-.796.605zm-2.253-1.431c.6 0 1.435.356 2.254 1.43l.795-.605c-.945-1.242-2.047-1.826-3.05-1.826zm-9.035 0h9.035v-1h-9.035zm-9.73-10.37c0 5.265 3.63 10.37 9.73 10.37v-1c-5.415 0-8.73-4.518-8.73-9.371zm-5.183-7.552c0 3.595 2.268 6.689 5.438 7.925l.363-.932c-2.802-1.093-4.801-3.827-4.801-6.993zm4.832-7.661c-2.848 1.375-4.832 4.298-4.832 7.66h1c0-2.96 1.748-5.543 4.267-6.76zm.35-1.24v.727h1v-.726zm2.694-7.034c-1.8 1.856-2.694 4.362-2.694 7.035h1c0-2.45.817-4.694 2.412-6.338zm7.036-2.834c-2.73 0-5.225.967-7.036 2.834l.718.696c1.602-1.652 3.828-2.531 6.318-2.531zm9.035 0h-9.035v1h9.035zm2.667-.876c-.534.482-1.42.876-2.667.876v1c1.458 0 2.594-.463 3.337-1.134zm.524-.385c-.136.086-.322.202-.524.385l.67.742a2.6 2.6 0 0 1 .387-.28zm.353-.809c0 .401-.056.545-.089.6-.03.053-.07.088-.264.21l.533.846c.165-.104.419-.254.592-.546.17-.287.228-.647.228-1.11zm0-.896v.896h1v-.896zm5.077-1.5h-3.577v1h3.577zm-20.57 23.23c0 1.935-1.565 3.5-3.5 3.5v1c2.487 0 4.5-2.013 4.5-4.5zm-3.5-3.5c1.935 0 3.5 1.565 3.5 3.5h1c0-2.487-2.013-4.5-4.5-4.5zm-3.5 3.5c0-1.935 1.565-3.5 3.5-3.5v-1a4.5 4.5 0 0 0-4.5 4.5zm3.5 3.5a3.497 3.497 0 0 1-3.5-3.5h-1c0 2.487 2.013 4.5 4.5 4.5zm19.99-25.23a.5.5 0 0 1 .5-.5v-1a1.5 1.5 0 0 0-1.5 1.5zM6.783 31.25c.524-.253.916-.781.916-1.413h-1c0 .2-.127.404-.351.512zm23.72 29.26c-.261 0-.536-.225-.601-.583l-.984.178c.132.729.741 1.405 1.585 1.405zm4.032-.452c.02.226-.166.452-.456.452v1c.815 0 1.532-.67 1.451-1.545zm-26.84-14.5a.6.6 0 0 0-.382-.56l-.364.933a.4.4 0 0 1-.254-.373zm4.944-.531a.57.57 0 0 0-.367.53h1a.43.43 0 0 1-.28.405zm-.367-15.22c0 .635.397 1.166.926 1.417l.428-.904a.59.59 0 0 1-.354-.514zm23.31-13.53a1.5 1.5 0 0 0-1.5-1.5v1a.5.5 0 0 1 .5.5z" transform="translate(-1.59 -1.593)scale(1.05005)"/><path fill="url(#c)" fill-rule="evenodd" d="M24.5 11c0 3.128 1.826 5.855 4.463 7.168.367.183.62.546.62.957v40.88a1 1 0 0 0 1 1h4.043a1 1 0 0 0 1-1v-40.98c0-.4.241-.757.594-.944 2.538-1.346 4.28-4.02 4.28-7.074 0-4.395-3.606-8-8-8s-8 3.605-8 8zm8 4c2.211 0 4-1.789 4-4s-1.789-4-4-4-4 1.789-4 4 1.789 4 4 4" clip-rule="evenodd" transform="translate(-1.59 -1.593)scale(1.05005)"/><path fill="url(#c)" d="m36.22 18.07-.234-.442zm-7.034-.353C26.71 16.484 25 13.925 25 10.996h-1c0 3.326 1.942 6.222 4.74 7.616zm.898 42.28v-40.88h-1v40.88zm4.542.5h-4.042v1h4.042zm.5-41.48v40.98h1v-40.98zM40 10.999c0 2.86-1.631 5.368-4.014 6.632l.469.883C39.148 17.085 41 14.247 41 10.998zm-7.5-7.5c4.118 0 7.5 3.382 7.5 7.5h1c0-4.671-3.829-8.5-8.5-8.5zm-7.5 7.5c0-4.118 3.382-7.5 7.5-7.5v-1c-4.671 0-8.5 3.829-8.5 8.5zm11 0c0 1.935-1.565 3.5-3.5 3.5v1c2.487 0 4.5-2.013 4.5-4.5zm-3.5-3.5c1.935 0 3.5 1.565 3.5 3.5h1c0-2.487-2.013-4.5-4.5-4.5zm-3.5 3.5c0-1.935 1.565-3.5 3.5-3.5v-1a4.5 4.5 0 0 0-4.5 4.5zm3.5 3.5a3.497 3.497 0 0 1-3.5-3.5h-1c0 2.487 2.013 4.5 4.5 4.5zm3.626 4.518c0-.193.118-.39.329-.502l-.469-.884c-.496.263-.86.778-.86 1.386zm-1.5 42.48a1.5 1.5 0 0 0 1.5-1.5h-1a.5.5 0 0 1-.5.5zm-5.542-1.5a1.5 1.5 0 0 0 1.5 1.5v-1a.5.5 0 0 1-.5-.5zm-.344-41.38c.22.109.344.311.344.509h1c0-.624-.383-1.148-.898-1.404z" transform="translate(-1.59 -1.593)scale(1.05005)"/></svg>