<svg style="isolation:isolate" version="1.1" viewBox="0 0 64 64" xmlns="http://www.w3.org/2000/svg">
 <defs>
  <linearGradient id="a" y1="1">
   <stop stop-color="red" offset="0"/>
   <stop stop-color="#e700ff" offset="1"/>
  </linearGradient>
 </defs>
 <path transform="translate(-.000485 .00027) scale(1) translate(-.343 -.333) scale(1.347)" d="M27.55 32.32c-1.165 0-2.111-.915-2.111-2.043 0-1.127.946-2.043 2.111-2.043h17.09a3.117 3.117 0 0 1 3.115 3.115v4.393a9.01 9.01 0 0 1-2.787 6.497c-1.773 1.726-4.19 2.697-6.713 2.697h-28.5c-2.523 0-4.94-.971-6.713-2.697a9.01 9.01 0 0 1-2.787-6.497v-23.49a9.01 9.01 0 0 1 2.787-6.497c1.773-1.726 4.19-2.697 6.713-2.697h28.5c2.523 0 4.94.971 6.713 2.697a9.01 9.01 0 0 1 2.787 6.497v4.433c0 1.128-.946 2.043-2.111 2.043s-2.111-.915-2.111-2.043v-4.433c0-1.359-.56-2.656-1.541-3.616a5.4 5.4 0 0 0-3.737-1.492h-28.5a5.4 5.4 0 0 0-3.737 1.492 5.06 5.06 0 0 0-1.541 3.616v23.49c0 1.359.56 2.656 1.541 3.616a5.4 5.4 0 0 0 3.737 1.492h28.5a5.4 5.4 0 0 0 3.737-1.492 5.06 5.06 0 0 0 1.541-3.616V32.32h-15.98z" fill="url(#a)"/>
 <path transform="translate(-.000485 .00027) scale(1) translate(-.343 -.333) scale(1.347)" d="M11.25 17.95c-.891-.699-1.049-1.988-.353-2.876s1.98-1.046 2.866-.352l7.82 6.111c1.333 1.042 1.333 2.733 0 3.774l-7.82 6.112c-.886.693-2.17.535-2.866-.353s-.538-2.176.353-2.875l6.108-4.771z" fill="url(#a)"/>
</svg>
