<svg xmlns="http://www.w3.org/2000/svg" viewBox="0 0 64 64"><defs><linearGradient id="d" y1=".5" y2=".5"><stop offset="0" stop-color="#00fffa"/><stop offset="1" stop-color="#0078ff"/></linearGradient><linearGradient id="c" x2="0" y2="1"><stop offset="0" stop-color="#d40000"/><stop offset="1" stop-color="#faa"/></linearGradient><linearGradient id="a" x2="0" y2="1"><stop offset="0" stop-color="#f6ff24"/><stop offset="1" stop-color="#ffbb24"/></linearGradient></defs><path fill="url(#a)" d="m120 42.99-51.39.041c-14.68.013-18.35.014-18.34 14.7-.036.013.076 95.43.076 95.43l18.49 18.46v-.018l-5.086-5.064c-3.022-3.018-4.254-6.766-.008-11.02l5.076-5.096-.021-26.11s6.322-6.338 15.1-15.13l-3.793.004-.035-43.4 6.818-.003.033 40.36 14.87-14.9-.022-25.48 6.818-.004.014 18.66c14.59-14.62 27.61-27.66 27.63-27.65a67 67 0 0 1 2.074-1.996c-.521-11.8-4.649-11.8-18.3-11.79zm18.39 53.78-17.45 17.48 2.613 2.609h4.414l10.43-10.45zm-45.008 55.766c-.085.01-.17.027-.254.04.085-.013.168-.03.254-.04m2.195.024c.169.023.338.043.504.076-.167-.033-.336-.053-.504-.076m.807.152c.165.04.332.076.494.125-.163-.05-.33-.085-.494-.125m-4.037.018c-.047.011-.095.015-.141.027q-.076.023-.152.047.145-.04.293-.074zm-.692.199q-.079.025-.158.05c-.033.013-.063.033-.096.046.085-.032.168-.067.254-.096m5.63.05c.123.045.248.086.368.135-.121-.05-.246-.09-.369-.134m.77.321c.122.058.244.113.362.176-.119-.064-.24-.118-.361-.176m.665.354c.14.082.282.163.418.253-.137-.091-.278-.17-.418-.254m.724.478c.121.089.244.175.36.27-.117-.096-.239-.181-.36-.27m.979.828.006.004zm2.326 4.309q.173.832.176 1.717a8.55 8.55 0 0 0-.176-1.717m-1.092 6.191a8.6 8.6 0 0 1-1.434 1.752c.072-.067.147-.127.217-.197a8.5 8.5 0 0 0 1.217-1.555zm-1.465 1.78q-.408.38-.863.704c.144-.103.288-.206.428-.318l.05-.037.002-.002h.002v-.002l.002-.003c.13-.107.254-.226.38-.341zm-.867.706q-.466.332-.977.6l.11-.055c.171-.093.34-.196.506-.3.067-.043.137-.082.203-.126.054-.036.104-.08.158-.12zm-.977.6q-.345.18-.707.33l.073-.028c.185-.077.366-.168.547-.26zm-.707.33a9 9 0 0 1-.728.26l.045-.012c.188-.059.372-.13.556-.201q.063-.025.127-.047m-2.92.625c-.07.003-.14.009-.213.01l.034.002c.06-.001.12-.01.18-.012zm-10.89 17.08 5.094 5.086q.442.44.875.802l-5.914-5.889z" transform="translate(-19.833 -16.923)scale(.39458)"/><path fill="url(#c)" d="M146.7 50.16c-2.864.011-5.915 2.074-10.45 6.619-.035-.016-67.43 67.53-67.43 67.53l.021 26.11 33.43-33.55 21.3-.008-2.613-2.609 30.66-30.71 4.824 4.818-28.46 28.5 21.03-.006 17.95-17.98 4.824 4.818-13.14 13.16c20.64-.003 39.05 0 39.06.016q1.543-.002 2.88.054c7.963-8.706 5.04-11.62-4.616-21.27l-36.37-36.31c-5.844-5.834-9.22-9.208-12.9-9.193zm24.26 96.52-24.71.02.006 6.818 17.89-.014zm-76.53 5.791c-.764 0-1.503.102-2.207.291a8.6 8.6 0 0 1 2.193-.287 8.5 8.5 0 0 1 6.029 2.494c3.33 3.326 3.336 8.72.012 12.05q-.303.302-.627.568a8.5 8.5 0 0 0 3.129-6.6c-.004-4.707-3.822-8.523-8.53-8.518zm-3.992 1.004q-.112.06-.223.125.11-.064.223-.125m-1.074.68c-.047.034-.096.065-.143.101q.071-.052.143-.101m-1.051.912-.031.035zm-.797.957q-.024.03-.047.062zm61.767 12.374-24.71.019.006 6.816 17.89-.014zm-57.457.708q.061.022.123.041-.062-.02-.123-.04m4.873.102c-.168.046-.337.093-.508.129.172-.036.34-.083.508-.129m-4.146.096c.078.017.154.037.232.052-.078-.015-.155-.035-.232-.052m3.283.091c-.15.025-.297.054-.447.07.151-.016.298-.045.447-.07m-2.478.05c.092.011.183.026.275.034q-.138-.015-.275-.035m.863.064c.077.002.152.011.229.011h.115c-.115.002-.229-.009-.344-.011zm-25.36 2.096.006 7.21c.005 6.01 3.516 7.779 7.787 7.776l7.25-.006z" transform="translate(-19.833 -16.923)scale(.3946)"/><path fill="url(#d)" d="m102.3 116.9-38.51 38.65c-4.247 4.253-3.014 8.002.008 11.02l38.58 38.42h95.42c14.68-.012 14.68-3.678 14.66-18.36l-.041-51.39c-.012-14.68-.012-18.35-14.69-18.34-.014-.036-95.43 0-95.43 0zm87.37 29.8.004 6.816-43.39.035-.006-6.818zm-95.22 5.805c4.707-.005 8.526 3.81 8.529 8.518.005 4.706-3.809 8.525-8.516 8.529-4.703.006-8.528-3.822-8.531-8.516a8.523 8.523 0 0 1 8.518-8.531m95.23 15.89.004 6.818-65.09.05-.006-6.815z" transform="translate(-19.833 -16.923)scale(.3946)"/></svg>