<svg xmlns="http://www.w3.org/2000/svg" viewBox="0 0 64 64"><defs><linearGradient id="c" y1="1"><stop offset="0" stop-color="#01ff01"/><stop offset="1" stop-color="#1bc100"/></linearGradient><linearGradient id="a" x2="0" y1="1"><stop offset="0" stop-color="#00c4ff"/><stop offset="1" stop-color="#0072ff"/></linearGradient></defs><path fill="url(#a)" d="M32 27.63c-21.05 0-38 9.319-38 20.9s16.95 20.9 38 20.9 37.99-9.323 37.99-20.9S53.05 27.63 32 27.63m0 5.699c14.74 0 26.6 6.354 26.6 14.25S46.74 61.829 32 61.829 5.4 55.477 5.4 47.579s11.86-14.25 26.6-14.25" transform="translate(5.053 1.579)scale(.8422)"/><path fill="url(#c)" d="M57.73 2.818a4.4 4.4 0 0 0-1.174.219l-11.72 3.902a8.84 8.84 0 0 0-6.045 8.387v21.57a13.26 13.26 0 1 0 5.894 11.03v-19.98l13.65-4.555a5.895 5.895 0 0 0 4.029-5.588V7.233a4.42 4.42 0 0 0-4.643-4.416z" transform="translate(5.053 1.579)scale(.8422)"/></svg>