<svg xmlns="http://www.w3.org/2000/svg" style="isolation:isolate" viewBox="0 0 64 64"><linearGradient id="a" x1=".062" x2=".99" y1=".147" y2=".987" gradientTransform="matrix(42 0 0 43 3 2.5)" gradientUnits="userSpaceOnUse" transform="translate(-3.72 -3.72)scale(1.488)"><stop offset="0" stop-color="#16b5e4"/><stop offset=".983" stop-color="#f520fa"/></linearGradient><path fill="url(#a)" fill-rule="evenodd" d="M22.51 11.5h-8.09V9.36h4.23c.35 0 .69-.13.96-.35s.45-.53.52-.88c.08-.44.24-.87.46-1.26.14-.27.34-.5.58-.68.26-.21.56-.36.88-.45.57-.16 1.16-.24 1.75-.24s1.18.08 1.75.25c.32.09.62.24.88.45.24.18.43.41.58.67.22.39.37.82.46 1.26.06.35.24.66.51.88s.61.35.96.35h3.64v2.14zm15.99 0a1.5 1.5 0 0 1 0-3H41c2.208 0 4 1.792 4 4v29c0 2.208-1.792 4-4 4H7c-2.208 0-4-1.792-4-4v-29c0-2.208 1.792-4 4-4h1.5a1.5 1.5 0 0 1 0 3H8a2 2 0 0 0-2 2v27a2 2 0 0 0 2 2h32a2 2 0 0 0 2-2v-27a2 2 0 0 0-2-2zM18.5 24a2 2 0 1 1-.001 4.001A2 2 0 0 1 18.5 24m6 0h6a1 1 0 0 1 1 1v2a1 1 0 0 1-1 1h-6a1 1 0 0 1-1-1v-2a1 1 0 0 1 1-1m0 7h6a1 1 0 0 1 1 1v2a1 1 0 0 1-1 1h-6a1 1 0 0 1-1-1v-2a1 1 0 0 1 1-1m-1.99-16.5h-9.09a2 2 0 0 1-2-2V8.36a2 2 0 0 1 2-2h4.1q.195-.495.45-.96c.34-.61.8-1.15 1.36-1.58a5.5 5.5 0 0 1 1.91-.96c.83-.24 1.69-.36 2.56-.36s1.74.12 2.57.36c.7.2 1.35.53 1.92.98.55.43 1 .96 1.34 1.57.17.31.32.62.44.95h3.51a2 2 0 0 1 2 2v4.14a2 2 0 0 1-2 2zm-8.01 6h19v17h-19zm-3-3h25v23h-25zm7 13.5a2 2 0 1 1-.001 4.001A2 2 0 0 1 18.5 31" transform="translate(-3.72 -3.72)scale(1.488)"/></svg>