<svg xmlns="http://www.w3.org/2000/svg" viewBox="0 0 64 64"><defs><linearGradient id="a" y1="1"><stop offset="0" stop-color="#f0f"/><stop offset="1" stop-color="#2ad4ff"/></linearGradient></defs><path fill="url(#a)" d="M30.6 1.5c-4.444 0-8.1 3.656-8.1 8.1v1.037a23.4 23.4 0 0 0-4.25 2.455l-.898-.52c-3.85-2.221-8.844-.881-11.07 2.968l-1.398 2.422h-.002C2.66 21.81 4 26.806 7.849 29.032v-.002l.882.51c-.089.818-.23 1.63-.234 2.454v.02c.003.824.145 1.637.234 2.455l-.882.51v-.002c-3.85 2.222-5.19 7.217-2.967 11.07h.002l1.4 2.424c2.223 3.847 7.216 5.187 11.06 2.965l.888-.514a23.4 23.4 0 0 0 4.26 2.449v1.037c0 4.444 3.656 8.1 8.1 8.1h2.801c4.444 0 8.1-3.656 8.1-8.1v-1.049a23.4 23.4 0 0 0 4.246-2.443l.903.52c3.848 2.221 8.842.881 11.06-2.966l.002-.002 1.398-2.422h.002c2.222-3.849.882-8.844-2.967-11.07v.002l-.883-.51c.09-.818.23-1.63.234-2.454v-.02c-.003-.824-.145-1.637-.234-2.455l.883-.51v.002c3.849-2.222 5.189-7.217 2.967-11.07h-.002l-1.398-2.422-.002-.002c-2.223-3.847-7.216-5.187-11.06-2.965l-.887.512a23.4 23.4 0 0 0-4.262-2.447V9.6c0-4.444-3.656-8.1-8.1-8.1zm0 5h2.801c1.761 0 3.1 1.339 3.1 3.1V14l1.67.586a18.5 18.5 0 0 1 5.85 3.36l1.342 1.144 3.787-2.186c1.524-.88 3.354-.39 4.234 1.135h.002l1.398 2.422c.88 1.524.39 3.354-1.135 4.234v.002l-3.803 2.195.33 1.742c.21 1.109.32 2.236.324 3.365a18.5 18.5 0 0 1-.324 3.365l-.33 1.742 3.803 2.195v.002c1.525.88 2.015 2.71 1.135 4.234l-1.398 2.422h-.002c-.88 1.525-2.71 2.015-4.234 1.135L45.347 44.9l-1.344 1.143a18.5 18.5 0 0 1-5.834 3.357l-1.668.588v4.41c0 1.76-1.339 3.1-3.1 3.1H30.6c-1.761 0-3.1-1.34-3.1-3.1v-4.402l-1.672-.588a18.5 18.5 0 0 1-5.848-3.357l-1.342-1.143-3.787 2.186c-1.524.88-3.354.39-4.234-1.135h-.002l-1.398-2.422c-.88-1.524-.39-3.354 1.135-4.234v-.002l3.803-2.195-.33-1.742A18.5 18.5 0 0 1 13.5 32c.005-1.13.114-2.256.324-3.365l.33-1.742-3.803-2.195v-.002c-1.525-.88-2.015-2.71-1.135-4.234l1.398-2.422h.002c.88-1.525 2.71-2.015 4.234-1.135l3.807 2.195L20 17.952a18.5 18.5 0 0 1 5.836-3.371l1.664-.59V9.6c0-1.761 1.339-3.1 3.1-3.1" transform="translate(-1.562 -1.574)scale(1.049)"/><path fill="#0f0" d="M39.769.524c-1.469 0-1.469 1.54-1.469 1.54v19.039a12.5 12.5 0 0 0-6.291-1.699c-6.952 0-12.588 5.637-12.588 12.588S25.057 44.58 32.009 44.58s12.588-5.636 12.588-12.588l-.003-.04V6.816s2.958 2.552 3.955 5.198c.51 1.352.507 2.73-.664 3.805-.95.545-1.263 1.389-1.096 2.122.254 1.115 1.61 1.98 3.493 1.178 2.83-1.476 3.752-4.121 3.752-6.324 0-6.61-8.39-12.274-14.267-12.274z"/></svg>