<svg version="1.1" viewBox="0 0 64 64" xmlns="http://www.w3.org/2000/svg">
 <defs>
  <linearGradient id="a" x2="0" y1="1">
   <stop stop-color="#00b8ff" offset="0"/>
   <stop stop-color="#00ff9d" offset="1"/>
  </linearGradient>
 </defs>
 <path transform="translate(-.00045 .000219) scale(1) translate(0 .002) scale(2.909)" d="M7.051 0C3.676.06.607 2.775.606 6.555v1.863l.002.04.002.038q.001.02.004.037l.004.04.006.035.005.037.006.037.008.037.01.037.01.035.01.035.011.034.012.035.014.035.013.035.03.064.015.034.018.033.017.031.018.03.02.03.019.032.021.027.022.03.021.029.022.027.023.03.024.025.025.025.025.026.026.027.025.023.028.024.027.023.027.024.03.021.029.02.03.021.03.02.03.02.031.017.031.017q.015.01.031.018l.034.018.033.015.033.014.035.012.033.013.036.014.035.01.035.011.035.01.037.008.035.008.037.006.038.006c.012.001.024.006.037.007.012.002.024 0 .037.002l.039.004.037.002.039.002h5.064V6.51l7.695 4.441-7.693 4.443V12.12H2.104a1.6 1.6 0 0 0-.303.031 1.5 1.5 0 0 0-.939.63 1.5 1.5 0 0 0-.139.253 1.5 1.5 0 0 0-.107.43 2 2 0 0 0-.008.154v.748l-.002 1.076c0 5.04 5.457 8.19 9.822 5.67l7.693-4.445c4.364-2.52 4.364-8.82 0-11.34l-1.584-.914a1.5 1.5 0 0 0-.558-.187 1.49 1.49 0 0 0-1.48.738l-.362.623v.002L12.92 7.694l-1.945-1.121 1.217-2.107h.002l.36-.625a1.5 1.5 0 0 0 .19-.565 1.5 1.5 0 0 0 .008-.289 1.52 1.52 0 0 0-.392-.908 1.6 1.6 0 0 0-.352-.281l-1.58-.912A6.5 6.5 0 0 0 7.051 0m.207 2.209a4 4 0 0 1 .53.049 4 4 0 0 1 .515.113 4 4 0 0 1 .5.176l.14.064a4 4 0 0 1 .334.172l1.295.748-1.217 2.106-1.293-.746-.058-.03A1.87 1.87 0 0 0 5.256 6.51v1.498H2.822l.002-1.498a4 4 0 0 1 .033-.53 4 4 0 0 1 .096-.519 4 4 0 0 1 .162-.506 4 4 0 0 1 .22-.48 4 4 0 0 1 .28-.452 4 4 0 0 1 .33-.414 4 4 0 0 1 .38-.367 4 4 0 0 1 .425-.32 4 4 0 0 1 .457-.264 4 4 0 0 1 .488-.207 4 4 0 0 1 .512-.144 4 4 0 0 1 .521-.08 4 4 0 0 1 .53-.018m8.498 4.314 1.219.703a4 4 0 0 1 .389.256 4 4 0 0 1 .412.342 4.3 4.3 0 0 1 .64.763 4.3 4.3 0 0 1 .45.893 4.3 4.3 0 0 1 .23.973 4.3 4.3 0 0 1 0 .998 4.3 4.3 0 0 1-.23.972 4.3 4.3 0 0 1-.45.893 4.3 4.3 0 0 1-.64.764 4.3 4.3 0 0 1-.801.597L9.278 19.12a4.3 4.3 0 0 1-.918.397 4.3 4.3 0 0 1-.984.174 4.3 4.3 0 0 1-.996-.059 4.3 4.3 0 0 1-.957-.287 4.3 4.3 0 0 1-.868-.498 4.3 4.3 0 0 1-.724-.685 4.3 4.3 0 0 1-.55-.836 4.3 4.3 0 0 1-.343-.938 4.3 4.3 0 0 1-.115-.992v-1.404h2.434v1.404a1.87 1.87 0 0 0 2.805 1.619l7.693-4.441a1.87 1.87 0 0 0 .125-3.162 2 2 0 0 0-.125-.078L14.54 8.63z" fill="url(#a)" opacity=".537"/>
 <path transform="translate(-.00045 .000219) scale(1) translate(0 .002) scale(2.909)" d="M7.06 4.639A1.87 1.87 0 0 0 5.255 6.51v3.365h1.871v2.246H5.255v3.272a1.871 1.871 0 0 0 2.807 1.623l7.697-4.443a1.871 1.871 0 0 0 0-3.24L8.062 4.89a1.87 1.87 0 0 0-1.002-.25z" fill="url(#a)"/>
</svg>
