<svg xmlns="http://www.w3.org/2000/svg" fill="none" viewBox="0 0 64 64"><defs><linearGradient id="a" x1="32" x2="32" y1="60" y2="4" gradientUnits="userSpaceOnUse"><stop offset="0" stop-color="#a93aff"/><stop offset="1" stop-color="#ff81ff"/></linearGradient><linearGradient id="c" x1="32" x2="32" y1="52" y2="12" gradientUnits="userSpaceOnUse"><stop offset="0" stop-color="#a93aff"/><stop offset="1" stop-color="#ff81ff"/></linearGradient></defs><path stroke="url(#a)" stroke-width="6" d="M32 60c15.46 0 28-12.54 28-28S47.46 4 32 4 4 16.54 4 32s12.54 28 28 28z" transform="translate(-1.032 -1.032)scale(1.032)"/><path fill="url(#c)" fill-rule="evenodd" d="M34.29 12.75c.454-.517.96-.766 1.652-.75q.346.009.762.106l-.004.003c.37.085.781.223 1.254.41 1.417.562 1.632 1.1 1.48 3.734-.132 2.294.296 3.217 1.94 4.172 1.4.813 2.54.787 4.669-.109.771-.325 1.63-.533 1.914-.457.612.165 2.417 3.015 2.41 3.805-.004.354-.581 1.037-1.605 1.914-1.998 1.71-2.423 2.556-2.156 4.266.32 2.056.925 2.78 3.136 3.766 2.324 1.035 2.565 1.471 1.996 3.574-.57 2.106-1.106 2.415-3.828 2.238-1.802-.117-2.378-.035-3.13.461-1.961 1.294-2.538 3.514-1.483 5.726 1.108 2.325.884 3.04-1.355 4.211-1.49.778-2.165.719-3.015-.254-1.16-1.327-1.453-1.632-2.207-2.266-.91-.764-2.008-.88-3.59-.375-1.557.497-1.802.747-2.488 2.508-.75 1.925-1.718 2.72-3.082 2.543-.523-.067-1.171-.244-1.441-.39a80 80 0 0 0-1.008-.528c-.622-.319-.797-1.245-.582-3.05.088-.745.09-1.716 0-2.157-.192-.937-1.802-2.44-2.933-2.746-.75-.202-3.242.205-4.79.781-.527.197-.87.16-1.28-.14-.717-.525-1.846-2.508-1.88-3.301-.025-.619.802-1.736 1.66-2.242.789-.464 1.763-1.69 1.966-2.476.28-1.084-.122-3.152-.75-3.867-.298-.339-1.236-.91-2.09-1.277s-1.791-.938-2.078-1.266c-.47-.536-.47-.784-.024-2.461.574-2.154 1.27-2.8 2.63-2.434 1.43.385 3.22.259 4.073-.29 1.042-.668 2.08-2.52 2.062-3.69-.006-.474-.293-1.546-.629-2.383-.813-2.024-.594-2.688 1.207-3.715 1.896-1.081 2.56-1.102 3.332-.114 1.698 2.172 2.193 2.616 3.242 2.898 2.138.576 4.56-.672 5.078-2.613.142-.529.577-1.323.965-1.766zM39.998 32a8 8 0 1 1-16 0 8 8 0 0 1 16 0" clip-rule="evenodd" transform="translate(-1.032 -1.032)scale(1.032)"/></svg>