<svg xmlns="http://www.w3.org/2000/svg" viewBox="0 0 64 64"><defs><linearGradient id="a" x1="1" x2="0" y2="1"><stop offset="0" stop-color="#f0f"/><stop offset="1" stop-color="#0cf"/></linearGradient></defs><path fill="url(#a)" d="M30.3 0a6.81 6.81 0 0 0-6.826 6.826v3.199a25.6 25.6 0 0 0-8.076 4.666l-2.773-1.6a6.814 6.814 0 0 0-9.326 2.5L1.59 18.54a6.814 6.814 0 0 0 2.5 9.326l2.768 1.6a25.6 25.6 0 0 0-.451 4.668 25.6 25.6 0 0 0 .451 4.668l-2.768 1.6a6.81 6.81 0 0 0-2.5 9.324l1.709 2.949a6.814 6.814 0 0 0 9.326 2.5l2.76-1.592a25.6 25.6 0 0 0 8.086 4.65v-9.398c-5.082-2.956-8.531-8.396-8.531-14.7.008-6.126 3.311-11.7 8.531-14.72v10.46l8.533 6.398 8.531-6.398v-10.46c5.222 3.024 8.529 8.6 8.533 14.73 0 6.301-3.454 11.74-8.533 14.7v9.383a25.6 25.6 0 0 0 8.078-4.643l2.772 1.6a6.816 6.816 0 0 0 9.328-2.5l1.707-2.949a6.81 6.81 0 0 0-2.5-9.324l-2.766-1.6a25.6 25.6 0 0 0 .45-4.668 25.6 25.6 0 0 0-.45-4.668l2.766-1.6a6.814 6.814 0 0 0 2.5-9.326l-1.707-2.949a6.816 6.816 0 0 0-9.328-2.5l-2.758 1.592a25.6 25.6 0 0 0-8.088-4.648V6.836A6.81 6.81 0 0 0 33.713.01zm1.707 43.52c-2.364 0-4.266 1.525-4.266 3.416v13.65c0 1.891 1.902 3.418 4.266 3.418s4.268-1.527 4.268-3.418v-13.65c0-1.891-1.904-3.416-4.268-3.416" transform="translate(-.003)scale(.9999)"/></svg>