<svg xmlns="http://www.w3.org/2000/svg" xmlns:xlink="http://www.w3.org/1999/xlink" viewBox="0 0 64 64"><defs><linearGradient id="a" x1="63.15" x2="43.5" y1="17.6" y2="17.6" gradientTransform="matrix(.6698 0 0 1.182 3.531 1.974)" gradientUnits="userSpaceOnUse"><stop offset="0" stop-color="#00b8ff"/><stop offset="1" stop-color="#00ff9d"/></linearGradient><linearGradient id="b" x1="10.82" x2="2.989" y1="15.08" y2="3.426" gradientTransform="scale(1.04 .9615)" gradientUnits="userSpaceOnUse"><stop offset="0" stop-color="#5800e2"/><stop offset="1" stop-color="#ff00e6"/></linearGradient><linearGradient xlink:href="#a" id="d" x1="63.15" x2="43.5" y1="17.6" y2="17.6" gradientTransform="matrix(-.6698 0 0 1.182 60.46 6.421)" gradientUnits="userSpaceOnUse"/></defs><path fill="url(#b)" d="M4 1.5a3 3 0 0 0-3 3v4a3 3 0 0 0 3 3h3.25V13h-2.5a.75.75 0 0 0 0 1.5h6.5a.75.75 0 0 0 0-1.5h-2.5v-1.5H12a3 3 0 0 0 3-3v-4a3 3 0 0 0-3-3zM4 3h8a1.5 1.5 0 0 1 1.5 1.5v4A1.5 1.5 0 0 1 12 10H4a1.5 1.5 0 0 1-1.5-1.5v-4A1.5 1.5 0 0 1 4 3" transform="translate(-4.571 -4.571)scale(4.571)"/><path fill="url(#a)" d="M43.71 10.72a2.4 2.4 0 0 0-1.016.207 2.7 2.7 0 0 0-.906.664l-8.877 9.432a2.57 2.57 0 0 0-.52 2.68c.115.295.287.577.52.824l8.883 9.439c.262.288.572.51.902.656a2.4 2.4 0 0 0 1.014.205c.336-.007.656-.083.945-.209.294-.127.557-.306.78-.515.228-.216.42-.468.562-.746.147-.29.239-.605.266-.932a2.4 2.4 0 0 0-.147-1.025 2.7 2.7 0 0 0-.593-.934l-7.24-7.69 7.233-7.687a2.7 2.7 0 0 0 .6-.937c.127-.341.174-.691.147-1.025a2.5 2.5 0 0 0-.266-.932 2.749 2.749 0 0 0-1.342-1.262 2.5 2.5 0 0 0-.945-.21z"/><path fill="url(#d)" d="M20.28 15.17c.28-.006.634.038 1.016.207.3.133.616.344.906.664l8.877 9.432a2.57 2.57 0 0 1 .52 2.68 2.5 2.5 0 0 1-.52.824l-8.883 9.439c-.262.288-.572.51-.902.656a2.4 2.4 0 0 1-1.014.205 2.5 2.5 0 0 1-.945-.209 2.7 2.7 0 0 1-.78-.515 2.7 2.7 0 0 1-.562-.746 2.5 2.5 0 0 1-.266-.932 2.4 2.4 0 0 1 .147-1.025c.12-.323.313-.643.594-.934l7.24-7.69-7.234-7.687a2.7 2.7 0 0 1-.6-.937 2.4 2.4 0 0 1-.147-1.025c.028-.34.125-.655.266-.932a2.749 2.749 0 0 1 1.342-1.262c.308-.134.627-.204.945-.21z"/></svg>