<svg version="1.1" viewBox="0 0 64 64" xmlns="http://www.w3.org/2000/svg">
 <defs>
  <linearGradient id="a" y1="1">
   <stop stop-color="#f0f" offset="0"/>
   <stop stop-color="#ffd42a" offset="1"/>
  </linearGradient>
  <linearGradient id="b" y1="1">
   <stop stop-color="#ff02f0" offset="0"/>
   <stop stop-color="#ffc800" offset="1"/>
  </linearGradient>
 </defs>
 <path transform="translate(0) scale(1) translate(0) scale(1) translate(.006817 .002037) scale(1) matrix(.9845 0 0 .9845 .4915 .4956)" d="m32-0.5c-7.016 0-12.33-0.0157-16.69 0.5703-4.365 0.5868-7.949 1.888-10.65 4.588-2.701 2.703-4.002 6.281-4.588 10.65-0.5861 4.362-0.5703 9.683-0.5703 16.7 0 7.016-0.01567 12.33 0.5703 16.69 0.5866 4.365 1.888 7.941 4.588 10.64 2.703 2.703 6.287 4.014 10.65 4.6 4.36 0.5849 9.677 0.5644 16.69 0.5644 7.016 0 12.33 0.02188 16.69-0.5644 4.365-0.5869 7.947-1.894 10.64-4.594l0.0059-0.0059c2.699-2.701 4.002-6.278 4.588-10.64 0.5859-4.356 0.5703-9.671 0.5703-16.68v-0.01567c0-7.016 0.01618-12.34-0.5703-16.7-0.5877-4.365-1.886-7.943-4.588-10.65a0.5 0.5 0 0 0-0.0059 0l-0.01172-0.00586c-2.7-2.695-6.272-3.997-10.63-4.582-4.36-0.5861-9.677-0.5703-16.69-0.5703zm0 5.465c4.888 0 8.9 0.00725 12.15 0.1816v53.71c-3.25 0.1744-7.262 0.1816-12.15 0.1816s-8.902-0.0072-12.15-0.1816v-53.71c3.251-0.1744 7.264-0.1816 12.15-0.1816zm-17.62 0.7832v8.637h-8.637c0.5308-2.748 1.371-4.455 2.775-5.861 1.408-1.406 3.115-2.245 5.861-2.775zm35.24 0c2.747 0.5309 4.452 1.371 5.856 2.775 1.407 1.408 2.25 3.116 2.781 5.861h-8.637zm-44.48 14.1h9.238v9.418h-9.418c0.00703-3.675 0.03895-6.795 0.1797-9.418zm44.48 0h9.238c0.1407 2.623 0.1727 5.743 0.1797 9.418h-9.418zm-44.65 14.88h9.418v9.418h-9.238c-0.1407-2.623-0.1727-5.742-0.1797-9.418zm44.65 0h9.418c-7e-3 3.676-0.03894 6.795-0.1797 9.418h-9.238zm-43.87 14.88h8.637v8.637c-2.748-0.5319-4.455-1.375-5.861-2.781-1.405-1.404-2.245-3.108-2.775-5.856zm43.87 0h8.637c-0.5319 2.745-1.376 4.449-2.781 5.856a0.5 0.5 0 0 0 0 0.0059c-1.403 1.405-3.11 2.245-5.856 2.775z" fill="url(#a)"/>
 <path transform="translate(0) scale(1) translate(0) scale(1) translate(.006817 .002037) scale(1) translate(.4915 .4956) scale(.9845)" d="m28.1 21.82c-0.765-0.0032-1.575 0.1835-2.363 0.7051-1.459 0.9651-1.945 2.484-2.16 3.752-0.01285 0.05985-0.02045 0.1169-0.03125 0.1758-0.01454 0.09526-0.04093 0.2017-0.05273 0.293-1.15e-4 9.13e-4 -1.4e-5 0.0047 0 0.0059 1.16e-4 0.0025 2.3e-4 6e-3 0 0.0078-0.1713 1.352-0.1738 3.066-0.1738 5.053v0.3633c-2e-6 1.986 0.0026 3.703 0.1738 5.055 2.3e-4 0.0018 1.16e-4 0.0073 0 0.0098-1.4e-5 0.0012-1.15e-4 3e-3 0 0.0039 0.01136 0.08782 0.03691 0.1898 0.05078 0.2812 0.01151 0.06347 0.02125 0.1248 0.03516 0.1894 0.2151 1.268 0.7007 2.786 2.158 3.75 0.7854 0.5197 1.593 0.7069 2.356 0.7051 0.106 2.51e-4 0.2109-0.0028 0.3144-0.0098a0.5 0.5 0 0 1 0-2e-3c0.8416-0.05789 1.615-0.329 2.227-0.6113 1.214-0.5599 2.592-1.503 4.117-2.529 1.514-1.017 2.884-1.926 3.877-2.844 1.045-0.9602 2.064-2.31 2.064-4.174 4e-6 -2e-3 -2e-6 -0.0039 0-0.0059-1e-6 -0.0013 3e-6 -0.0026 0-0.0039 0-1.864-1.02-3.214-2.064-4.174-0.9924-0.9179-2.363-1.826-3.877-2.844-1.525-1.026-2.903-1.969-4.117-2.529-0.6115-0.2823-1.385-0.5554-2.227-0.6133-0.101-0.0068-0.2034-0.0098-0.3066-0.0098zm0.8066 5.945c0.668 0.3628 1.414 0.8149 2.797 1.744 1.638 1.105 2.647 1.792 3.227 2.326a0.5 0.5 0 0 0 0.01172 0.01172c0.04937 0.04255 0.08517 0.09839 0.1289 0.1465-0.04374 0.0481-0.07954 0.1059-0.1289 0.1484a0.5 0.5 0 0 0-0.01172 0.01172c-0.5796 0.5346-1.589 1.222-3.227 2.326-1.383 0.9293-2.129 1.381-2.797 1.744-0.09597-0.9324-0.1229-2.191-0.123-4.225v-0.0098c9.4e-5 -2.035 0.02703-3.292 0.123-4.225z" fill="url(#b)"/>
</svg>
