<svg version="1.1" viewBox="0 0 64 64" xmlns="http://www.w3.org/2000/svg">
 <defs>
  <linearGradient id="a" x1="134.8" x2="215.3" y1="28.4" y2="28.4" gradientUnits="userSpaceOnUse">
   <stop stop-color="#5458eb" offset="0"/>
   <stop stop-color="#8e53ea" offset="1"/>
  </linearGradient>
  <linearGradient id="b" x1="171.2" x2="215.3" y1="28.4" y2="28.4" gradientUnits="userSpaceOnUse">
   <stop stop-color="#5458eb" offset="0"/>
   <stop stop-color="#bd52eb" offset="1"/>
  </linearGradient>
  <linearGradient id="c" x1="157.6" x2="215.3" y1="28.4" y2="28.4" gradientUnits="userSpaceOnUse">
   <stop stop-color="#6357eb" offset="0"/>
   <stop stop-color="#8d53ea" offset="1"/>
  </linearGradient>
 </defs>
 <path transform="translate(-0) scale(1) translate(.006) scale(1) translate(.009712 .00063) scale(1) translate(-107 9.45) scale(.794)" d="m181.8 28.07-8.217 5.836 21.85 15.69h-51.2v-13.94l13.61 9.434.36-11.08-20.31-14.86h-3.149v30.03s-.423 9.471 8.641 9.471h64.07s5.54-.042 7.293-6.588z" fill="url(#a)"/>
 <path transform="translate(-0) scale(1) translate(.006) scale(1) translate(.009712 .00063) scale(1) translate(-107 9.45) scale(.794)" d="M146.8-1.844s-8.414-.394-10.85 8.709l29.86 21.44 8.035-6.043-18.83-13.71h50.84v25.4l9.455 7.58V7.622s1.274-9.475-11.75-9.475z" fill="url(#b)"/>
 <path transform="translate(-0) scale(1) translate(.006) scale(1) translate(.009712 .00063) scale(1)" d="m22.37 30.26 6.502-4.733 11.79 8.584-6.67 4.497z" fill="#2b3993"/>
 <path transform="translate(-0) scale(1) translate(.006) scale(1) translate(.009712 .00063) scale(1) translate(-107 9.45) scale(.794)" d="m173.8 22.26-8.035 6.043-7.58 5.699-.36 11.08 32.14-22.82.028-4.639h-10.02l-6.164 4.637z" fill="url(#c)"/>
 <path transform="translate(-0) scale(1) translate(.006) scale(1) translate(.009712 .00063) scale(1) translate(-107 9.45) scale(.794)" d="m181.8 28.07-8.217 5.836 21.85 15.69h-51.2v-13.94l13.61 9.434.36-11.08-20.31-14.86h-3.149v30.03s-.423 9.471 8.641 9.471h64.07s5.54-.042 7.293-6.588z" fill="url(#a)"/>
 <path transform="translate(-0) scale(1) translate(.006) scale(1) translate(.009712 .00063) scale(1) translate(-107 9.45) scale(.794)" d="M146.8-1.844s-8.414-.394-10.85 8.709l29.86 21.44 8.035-6.043-18.83-13.71h50.84v25.4l9.455 7.58V7.622s1.274-9.475-11.75-9.475z" fill="url(#b)"/>
 <path transform="translate(-0) scale(1) translate(.006) scale(1) translate(.009712 .00063) scale(1)" d="m22.37 30.26 6.502-4.733 11.79 8.584-6.67 4.497z" fill="#2b3993"/>
 <path transform="translate(-0) scale(1) translate(.006) scale(1) translate(.009712 .00063) scale(1) translate(-107 9.45) scale(.794)" d="m173.8 22.26-8.035 6.043-7.58 5.699-.36 11.08 32.14-22.82.028-4.639h-10.02l-6.164 4.637z" fill="url(#c)"/>
</svg>
