<svg xmlns="http://www.w3.org/2000/svg" viewBox="0 0 64 64"><defs><linearGradient id="a" x1="1" x2="0" y1="1"><stop offset="0" stop-color="#5433ff"/><stop offset=".517" stop-color="#0bbdff"/><stop offset=".983" stop-color="#a5fecb"/></linearGradient></defs><path fill="url(#a)" d="M96 16a31.8 31.8 0 1 0 31.79 31.79A31.79 31.79 0 0 0 96 16m0 12a19.8 19.8 0 1 1-19.79 19.79A19.82 19.82 0 0 1 96 28m-7.114 66c-31.18.01-56.57 25.41-56.57 56.59v11.36c0 7.661 6.338 14 14 14h74.58c21.37 0 38.82-17.45 38.82-38.82v-4.307c0-21.37-17.45-38.82-38.82-38.82H92.104c-.787-.001-1.562.054-2.338.1.742-.044 1.48-.099 2.233-.1h-3.112zm3.205 12h7.8c14.88 0 26.82 11.94 26.82 26.82v4.307c0 14.88-11.93 26.81-26.81 26.82H67.23c-1.176 0-2.004-.822-2.004-1.998v-29.13a26.73 26.73 0 0 1 26.86-26.82zm36.97 1.266a26.72 26.72 0 0 1 18.65 25.56v4.307c0 12.03-7.81 22.14-18.66 25.57 6.007-6.84 9.663-15.79 9.663-25.57v-4.313c0-9.768-3.651-18.72-9.651-25.56zm-74.22 14.49a38.6 38.6 0 0 0-1.611 11.07v29.13c0 .875.094 1.728.252 2.561-.036-.188-.083-.372-.111-.563h-7.067c-1.176 0-1.998-.822-1.998-1.998v-11.36c0-11.02 3.955-21.08 10.54-28.84z" transform="translate(-6.415 -6.401)scale(.39996)"/></svg>