<svg version="1.1" viewBox="0 0 64 64" xmlns="http://www.w3.org/2000/svg">
 <defs>
  <linearGradient id="d" x2="0" y1="1">
   <stop stop-color="#fd5900" offset="0"/>
   <stop stop-color="#ffde00" offset="1"/>
  </linearGradient>
  <linearGradient id="c" x1="1" x2="0" y1="1">
   <stop stop-color="#ff2424" offset="0"/>
   <stop stop-color="#ff8d8d" offset="1"/>
  </linearGradient>
  <linearGradient id="a" y1="1">
   <stop stop-color="#02aa93" offset="0"/>
   <stop stop-color="#67ff80" offset="1"/>
  </linearGradient>
  <linearGradient id="b" x2="0" y1="1">
   <stop stop-color="#5558ff" offset="0"/>
   <stop stop-color="#00c0ff" offset="1"/>
  </linearGradient>
 </defs>
 <path transform="translate(.001744 .002956) scale(1) matrix(2.978 0 0 2.978 -3.738 -3.737)" d="m12.93 1.256c-0.3066 0.01179-0.6342 0.1093-0.8945 0.2832-0.3812 0.2547-0.6309 0.7032-0.7109 1.107-0.08004 0.4042-0.07031 0.7968-0.07031 1.287v8.066a0.7501 0.7501 0 0 0 0.75 0.75c3.17 0 5.75-2.604 5.75-5.791 0-2.389-1.442-4.454-3.508-5.336-0.3508-0.1497-0.6433-0.2887-1.02-0.3496-0.09405-0.01523-0.1947-0.02151-0.2969-0.01758zm0.0039 1.484 2e-3 0.00195h2e-3c0.0065 0.00158 0.0169 0.00655 0.04883 0.01172 0.08646 0.014 0.3192 0.09834 0.6699 0.248 1.522 0.6496 2.598 2.17 2.598 3.957 0 2.113-1.522 3.772-3.5 4.139v-7.164c0-0.4903 0.0092-0.8352 0.04102-0.9961 0.01593-0.08045 0.01912-0.1092 0.02539-0.1211l2e-3 -0.00195v-0.00195h2e-3c0.0072-0.00534 0.02001-0.00876 0.04492-0.02539 0.03527-0.02384 0.05123-0.03925 0.05859-0.04492h4e-3z" fill="url(#c)"/>
 <path transform="translate(.001744 .002956) scale(1) matrix(2.978 0 0 2.978 -3.738 -3.737)" d="m12 11.25c-3.17 0-5.75 2.604-5.75 5.791 0 2.389 1.442 4.454 3.508 5.336 0.3507 0.1497 0.6433 0.2887 1.02 0.3496 0.3762 0.06092 0.8443-0.03372 1.191-0.2656 0.3812-0.2547 0.6309-0.7032 0.7109-1.107 0.08004-0.4042 0.07031-0.7968 0.07031-1.287v-8.066a0.7501 0.7501 0 0 0-0.75-0.75zm-0.75 1.652v7.164c0 0.4903-0.0092 0.8352-0.04102 0.9961-0.01593 0.08045-0.01912 0.1092-0.02539 0.1211l-2e-3 2e-3v2e-3h-2e-3c-0.0072 0.0053-0.02002 0.0088-0.04492 0.02539-0.03527 0.02384-0.05123 0.03925-0.05859 0.04492h-4e-3l-2e-3 2e-3 -2e-3 -2e-3h-2e-3c-0.0065-0.0016-0.0169-0.0065-0.04883-0.01172-0.08646-0.014-0.3192-0.09834-0.6699-0.248-1.522-0.6497-2.597-2.171-2.597-3.957 0-2.113 1.522-3.772 3.5-4.139z" fill="url(#a)"/>
 <path transform="translate(.001744 .002956) scale(1) translate(-3.738 -3.737) scale(2.978)" d="m12 11.25a0.7501 0.7501 0 0 0-0.75 0.75c0 3.17 2.604 5.75 5.791 5.75 2.389 0 4.454-1.442 5.336-3.508 0.1497-0.3507 0.2887-0.6433 0.3496-1.02 0.06092-0.3762-0.03372-0.8443-0.2656-1.191-0.2547-0.3812-0.7032-0.6309-1.107-0.7109-0.4042-0.08004-0.7968-0.07031-1.287-0.07031zm0.9023 1.5h7.164c0.4903 0 0.8352 0.0092 0.9961 0.04102 0.08045 0.01593 0.1092 0.01912 0.1211 0.02539l2e-3 2e-3h2e-3v2e-3c0.0053 0.0072 0.0088 0.02001 0.02539 0.04492 0.02384 0.03527 0.03925 0.05123 0.04492 0.05859v4e-3l2e-3 2e-3 -2e-3 2e-3v2e-3c-0.0016 0.0065-0.0065 0.0169-0.01172 0.04883-0.014 0.08646-0.09834 0.3192-0.248 0.6699-0.6497 1.522-2.171 2.597-3.957 2.597-2.113 0-3.772-1.522-4.139-3.5z" fill="url(#b)"/>
 <path transform="translate(.001744 .002956) scale(1) matrix(2.978 0 0 2.978 -3.738 -3.737)" d="m6.959 6.25c-2.389 0-4.454 1.442-5.336 3.508-0.1497 0.3508-0.2887 0.6433-0.3496 1.02s0.03372 0.8443 0.2656 1.191c0.2547 0.3812 0.7032 0.6309 1.107 0.7109 0.4042 0.08004 0.7968 0.07031 1.287 0.07031h8.066a0.7501 0.7501 0 0 0 0.75-0.75c0-3.17-2.604-5.75-5.791-5.75zm0 1.5c2.113 0 3.772 1.522 4.139 3.5h-7.164c-0.4903 0-0.8352-0.0092-0.9961-0.04102-0.08045-0.01593-0.1092-0.01912-0.1211-0.02539 0 0-0.00195-2e-3 -0.00195-2e-3h-0.00195v-2e-3c-0.00534-0.0072-0.00876-0.02002-0.02539-0.04492-0.02384-0.03527-0.03925-0.05123-0.04492-0.05859v-4e-3s-0.00195-2e-3 -0.00195-2e-3 0.00195-2e-3 0.00195-2e-3v-2e-3c0.00158-0.0065 0.00655-0.0169 0.01172-0.04883 0.014-0.08646 0.09834-0.3192 0.248-0.6699 0.6496-1.522 2.17-2.597 3.957-2.597z" fill="url(#d)"/>
</svg>
