<svg version="1.1" viewBox="0 0 64 64" xmlns="http://www.w3.org/2000/svg" xmlns:xlink="http://www.w3.org/1999/xlink">
 <defs>
  <linearGradient id="b" x2="0" y2="1">
   <stop stop-color="#ff0" offset="0"/>
   <stop stop-color="#ffc200" offset="1"/>
  </linearGradient>
  <linearGradient id="d" y1=".5" y2=".5">
   <stop stop-color="#0061ff" offset="0"/>
   <stop stop-color="#60efff" offset="1"/>
  </linearGradient>
  <linearGradient id="e" y2="1">
   <stop stop-color="#01ff01" offset="0"/>
   <stop stop-color="#1b8b00" offset="1"/>
  </linearGradient>
  <linearGradient id="a" x2="0" y2="1">
   <stop stop-color="#00ea5e" offset="0"/>
   <stop stop-color="#64fb00" offset="1"/>
  </linearGradient>
  <linearGradient id="f" x1="1" x2="0" y1=".5" y2=".5">
   <stop stop-color="#0091ff" offset="0"/>
   <stop stop-color="#50f" offset="1"/>
  </linearGradient>
  <linearGradient id="c" y1=".5" y2=".5">
   <stop stop-color="#f00" offset="0"/>
   <stop stop-color="#ff0086" offset="1"/>
  </linearGradient>
 </defs>
 <path transform="translate(.002 .00103) scale(.9999) matrix(.9984 0 0 .9984 .0544 .05366)" d="m0.06055 42.87a0.05 0.05 0 0 0-0.005859 2e-3l-0.06641 0.01953a0.05 0.05 0 0 0-0.03516 0.04883v11.19c0 2.47 2.013 4.471 4.498 4.471h11.16a0.05 0.05 0 0 0 0.04883-0.03516l0.0098-0.0332a0.05 0.05 0 0 0-0.0078-0.01563v-15.57a0.05 0.05 0 0 0-0.03711-0.04883l-0.06641-0.01953a0.05 0.05 0 0 0-0.01172-2e-3h-15.48a0.05 0.05 0 0 0-0.007812 0z" fill="url(#f)"/>
 <path transform="translate(.002 .00103) scale(.9999) matrix(.9984 0 0 .9984 .0544 .05366)" d="m15.59 5.406a0.05 0.05 0 0 0-0.03125 0.01562l-15.6 15.6a0.05 0.05 0 0 0 0.03516 0.08594h15.6a0.05 0.05 0 0 0 0.04883-0.05078v-15.6a0.05 0.05 0 0 0-0.05274-0.05078z" fill="url(#c)"/>
 <path transform="translate(.002 .00103) scale(.9999) matrix(.9984 0 0 .9984 .0544 .05366)" d="m-0.01172 21.01a0.05 0.05 0 0 0-0.03711 0.04883v21.85a0.05 0.05 0 0 0 0.04883 0.05078h15.61a0.05 0.05 0 0 0 0.04883-0.05078v-21.85a0.05 0.05 0 0 0-0.04883-0.04883h-15.61a0.05 0.05 0 0 0-0.01172 0z" fill="url(#d)"/>
 <path transform="translate(.002 .00103) scale(.9999) matrix(.9984 0 0 .9984 .0544 .05366)" d="m35.89 31.91a0.05 0.05 0 0 0-0.04297 0.05078v10.88h-20.24a0.05 0.05 0 0 0-0.05078 0.05078v15.61a0.05 0.05 0 0 0 0.05078 0.04883h31.35c2.47 0 4.63-1.999 4.596-4.471v-9.522a0.05 0.05 0 0 0-0.01758-0.03906l-15.6-12.59a0.05 0.05 0 0 0-0.0332-0.01172 0.05 0.05 0 0 0-0.0059 0z" fill="url(#a)"/>
 <path transform="translate(.002 .00103) scale(.9999) matrix(.9984 0 0 .9984 .0544 .05366)" d="m61.81 11.64c-0.4291 0.0213-0.8636 0.1801-1.244 0.502a0.05 0.05 0 0 0-0.01758 0.0332v-0.01367l-9.062 7.568a0.05 0.05 0 0 0-0.01953 0.03906v24.8a0.05 0.05 0 0 0 0.01953 0.03906l9.123 7.238c0.698 0.565 1.562 0.5909 2.248 0.2441 0.6857-0.3467 1.195-1.067 1.195-1.984v-36.26c4e-6 -1.277-0.9866-2.163-2.059-2.207-0.06089-0.0025-0.1223-3e-3 -0.1836 0z" fill="url(#a)"/>
 <path transform="translate(.002 .00103) scale(.9999) matrix(.9984 0 0 .9984 .0544 .05366)" d="m15.59 5.398a0.05 0.05 0 0 0-0.04492 0.05078v15.61a0.05 0.05 0 0 0 0.05078 0.05078h20.24v10.88a0.05 0.05 0 0 0 0.03906 0.01758l-0.0098 0.0039 0.0039 0.0039a0.05 0.05 0 0 0 0.02344 2e-3 0.05 0.05 0 0 0 0.02539 0.01172l0.01172-0.0098a0.05 0.05 0 0 0 0-2e-3 0.05 0.05 0 0 0 2e-3 0l15.59-12.2a0.05 0.05 0 0 0 0.01953-0.03906v-9.898c0-2.469-2.012-4.466-4.494-4.469a0.05 0.05 0 0 0-0.0039-0.00586h-31.45a0.05 0.05 0 0 0-0.0059 0zm20.27 26.54 0.02148 0.0098a0.05 0.05 0 0 0-0.0293 0.01367v-0.01758z" fill="url(#b)"/>
 <path transform="translate(.002 .00103) scale(.9999) matrix(.9984 0 0 .9984 .0544 .05366)" d="m51.51 19.7a0.05 0.05 0 0 0-0.01172 0.0059l-0.01172 0.0059a0.05 0.05 0 0 0-0.01758 0.0293l0.01172-0.0098a0.05 0.05 0 0 0-0.0098 0.02539l-0.0039-0.01563a0.05 0.05 0 0 0-0.0078 0.01367v-0.01367l-15.57 12.18a0.05 0.05 0 0 0 0 0.08008l15.59 12.58a0.05 0.05 0 0 0 0.0039 0.0039l0.01172 0.0059a0.05 0.05 0 0 0 0.07813-0.04297v-24.76l-0.01367 0.0098a0.05 0.05 0 0 0 0.0039-0.01172l-0.01367 0.0078a0.05 0.05 0 0 0 0.01563-0.0293v0.01953a0.05 0.05 0 0 0 0.01172-0.03516l-0.0039-0.0098a0.05 0.05 0 0 0-0.05859-0.03906z" fill="url(#e)"/>
</svg>
