<svg xmlns="http://www.w3.org/2000/svg" viewBox="0 0 64 64"><defs><linearGradient id="a" x1="1" x2="0" y2="1"><stop offset="0" stop-color="#00ff7f"/><stop offset="1" stop-color="#5fff00"/></linearGradient></defs><path fill="url(#a)" d="M23.22 0a7.184 7.184 0 0 0-7.184 7.184v8.777l-8.781.002a7.184 7.184 0 0 0-7.184 7.184v36.85c0 3.556 4.298 5.336 6.812 2.822l7.848-7.846a2.4 2.4 0 0 1 1.691-.701h24.36a7.184 7.184 0 0 0 7.184-7.184v-8.78h8.779a7.184 7.184 0 0 0 7.184-7.183V7.185A7.184 7.184 0 0 0 56.745 0zm0 4.789h33.52a2.395 2.395 0 0 1 2.394 2.394v23.94a2.395 2.395 0 0 1-2.394 2.394H45.57v-.002h2.394v-10.38a7.184 7.184 0 0 0-7.184-7.184H20.82V7.174a2.395 2.395 0 0 1 2.394-2.394zM7.26 20.749v.002h33.52a2.395 2.395 0 0 1 2.394 2.394v23.95a2.395 2.395 0 0 1-2.394 2.394H16.42a7.18 7.18 0 0 0-5.08 2.104l-6.482 6.482v-34.93a2.395 2.395 0 0 1 2.394-2.394z" transform="translate(-.002)"/></svg>