<svg xmlns="http://www.w3.org/2000/svg" xmlns:xlink="http://www.w3.org/1999/xlink" viewBox="0 0 64 64"><defs><linearGradient xlink:href="#a" id="f" x1="49.8" x2="17.1" y1="10.81" y2="51.96" gradientTransform="matrix(.3945 0 0 .3954 20.37 27.92)" gradientUnits="userSpaceOnUse"/><linearGradient id="a" x1="1" x2="0" y2="1"><stop offset="0" stop-color="#ffc700"/><stop offset=".552" stop-color="#ff49ab"/><stop offset="1" stop-color="#ba49ff"/></linearGradient><linearGradient xlink:href="#a" id="g" x1="39.94" x2="21.33" y1="22.31" y2="42.99" gradientTransform="matrix(.4053 0 0 .385 20.37 27.92)" gradientUnits="userSpaceOnUse"/><linearGradient id="c" x2="0" y1="1"><stop offset="0" stop-color="#b2fefa"/><stop offset="1" stop-color="#0ed2f7"/></linearGradient><linearGradient id="b" y2="1"><stop offset="0" stop-color="#00c400"/><stop offset="1" stop-color="#00f100"/></linearGradient></defs><path fill="url(#b)" d="M32-2.465c-16.43 0-25.88 9.191-30.65 18.09-4.769 8.901-5.367 17.74-5.367 17.74l-.016.215.018.213s.623 7.757 5.459 15.49c4.835 7.737 14.27 15.55 30.56 15.55 17.42 0 26.93-7.806 31.49-15.63 4.563-7.821 4.533-15.65 4.533-15.65s.038-8.89-4.449-17.87c-4.488-8.975-14.03-18.16-31.58-18.16zm0 5.566c15.69 0 22.78 7.437 26.6 15.08 3.824 7.647 3.861 15.38 3.861 15.38s-.029 6.421-3.777 12.85c-3.749 6.426-10.86 12.87-26.68 12.87-14.58 0-21.77-6.428-25.84-12.94-3.967-6.347-4.564-12.48-4.594-12.8.028-.346.646-7.738 4.688-15.28 4.136-7.721 11.31-15.15 25.74-15.15z" transform="translate(3.58 4.301)scale(.8881)"/><path fill="url(#c)" d="M53.26 5.6a7.242 7.241 0 0 0-7.242 7.242 7.242 7.241 0 0 0 7.242 7.24 7.242 7.241 0 0 0 7.242-7.24A7.242 7.241 0 0 0 53.26 5.6" transform="translate(2.176 4.159)scale(.936)"/><path fill="url(#c)" d="M12.12 3A10.62 10.62 0 0 0 1.5 13.62a10.62 10.62 0 0 0 10.62 10.62 10.62 10.62 0 0 0 10.62-10.62A10.62 10.62 0 0 0 12.12 3" transform="translate(2.176 4.159)scale(.936)"/><path d="M15.899 17.769a2.341 2.34 0 0 0-2.343 2.34 2.341 2.34 0 0 0 2.343 2.34 2.341 2.34 0 0 0 2.34-2.34 2.341 2.34 0 0 0-2.34-2.34M49.709 16.664a2.341 2.34 0 0 0-2.34 2.34 2.341 2.34 0 0 0 2.34 2.34 2.341 2.34 0 0 0 2.342-2.34 2.341 2.34 0 0 0-2.342-2.34"/><path fill="url(#f)" d="m30.82 27.92-.228.03c-.461.06-.799.342-1.014.655s-.334.662-.432.944c-.149.412-.17.822-.227 1.175-.056.346-.139.621-.335.845-.431.336-.957.604-1.48.917a71 71 0 0 1-2.116-.764h-.003l-.003-.002c-.824-.297-1.772-.008-2.263.702v.002c-.632.926-1.176 1.887-1.762 2.806l-.002.002v.003c-.304.493-.73 1.169-.47 1.922.21.671.69 1.126 1.164 1.517.45.372.893.703 1.194 1.087.05.432.004.917.006 1.434-.598.618-1.408 1.118-2.058 1.858l-.005.006-.005.006c-.308.387-.373.85-.315 1.264.058.413.224.794.384 1.12l.003.007.003.005c.528.97 1.08 1.93 1.667 2.87.438.766 1.383 1.123 2.243.923h.003c.826-.202 1.59-.512 2.345-.782.532.278 1.05.591 1.57.914.23.944.384 1.94.762 2.914l.002.003v.002c.198.482.647.66.885.829l.09.063.11-.003c1.503-.04 3.026.04 4.565-.01h.033l.03-.009c.793-.182 1.308-.734 1.59-1.359.277-.613.357-1.3.36-1.899.06-.514-.248-.955-.647-1.188-.398-.232-.926-.292-1.37-.023-.426.239-.617.656-.7 1.031-.06.282-.081.519-.113.747-.855-.001-1.708.002-2.557-.003a30 30 0 0 0-.442-1.906v-.004l-.002-.005c-.247-.834-.958-1.364-1.648-1.718l-.005-.003c-.56-.298-1.13-.764-1.897-.951l-.007-.002h-.007c-1.213-.24-2.205.376-3.121.682-.421-.764-.867-1.502-1.28-2.245.58-.473 1.236-.928 1.752-1.57.642-.769.476-1.733.514-2.433.046-.781-.051-1.69-.69-2.359h-.002v-.001c-.501-.52-1.059-.949-1.583-1.392.459-.712.89-1.43 1.336-2.132.797.23 1.65.74 2.71.674.712-.034 1.253-.429 1.724-.696l.003-.001.004-.004c.675-.404 1.52-.806 1.98-1.63.391-.695.55-1.451.657-2.184q1.266.01 2.529.001c.163.643.299 1.303.484 1.97l.003.012.005.013c.25.676.763 1.12 1.306 1.464.542.345 1.127.605 1.593.902l.012.008.013.006c.728.379 1.472.301 2.136.108.583-.17 1.112-.399 1.616-.55.414.746.847 1.472 1.26 2.2-.734.649-1.794 1.227-2.16 2.396l-.009.03-.003.03c-.096.85-.107 1.71-.045 2.56l.001.014.002.014c.115.72.54 1.26 1.013 1.704.406.38.834.697 1.208 1.023-.452.73-.888 1.46-1.353 2.164-.45-.19-.93-.43-1.52-.485-1.054-.103-1.821 1.168-1.174 1.995.27.369.655.557 1.016.689.363.132.717.22.989.35l-.006-.003c.86.43 2.048.329 2.633-.535l.001-.001.002-.001c.71-1.064 1.36-2.157 2.017-3.24.348-.518.459-1.217.13-1.808-.281-.594-.766-.985-1.215-1.341-.431-.343-.821-.66-1.056-1.044-.007-.51-.026-.992.072-1.413.586-.626 1.476-1.1 2.089-1.94.298-.396.322-.866.234-1.264-.09-.4-.273-.758-.415-1.057l-.004-.009-.004-.008a48 48 0 0 0-1.685-2.875c-.46-.773-1.441-1.046-2.273-.833-.81.194-1.55.505-2.287.756-.543-.296-1.074-.576-1.526-.917-.248-.65-.273-1.432-.562-2.228a2.26 2.26 0 0 0-.75-1.111c-.362-.29-.834-.472-1.345-.412-1.266.026-2.557-.051-3.863.012z" transform="translate(3.58 4.301)scale(.8881)"/><path fill="url(#g)" d="M32.78 35.11q-.23-.001-.46.016c-.212.016-.42.07-.63.112v-.035l-.412.107h-.001l-.002.001h-.002v.001h-.001a5.7 5.7 0 0 0-2.42 1.302c-1.961 1.717-2.303 4.756-.777 6.838 1.478 2.153 4.602 3.002 7.039 1.876 2.6-1.073 3.966-4.12 2.955-6.648-.752-2.132-2.99-3.554-5.29-3.567zm-.02 2.61h.002c1.19.017 2.37.765 2.751 1.822l.002.005.002.005c.398 1 .073 2.228-.781 2.943l-.003.004-.004.003c-.878.78-2.346.94-3.396.372l-.003-.002-.004-.002c-.954-.491-1.568-1.533-1.493-2.54l.001-.005v-.006c.042-1.125.96-2.199 2.132-2.493l.023-.006a2.7 2.7 0 0 1 .773-.1z" transform="translate(3.58 4.301)scale(.8881)"/></svg>