<svg version="1.1" viewBox="0 0 64 64" xmlns="http://www.w3.org/2000/svg">
 <defs>
  <linearGradient id="a" x1="1" x2="0" y2="1">
   <stop stop-color="#0f9" offset="0"/>
   <stop stop-color="#14dc57" offset="1"/>
  </linearGradient>
 </defs>
 <path transform="translate(.000408 -.00102) scale(1) translate(.6249 5.456) scale(.7989)" d="m57.72 4.76c-1.042-0.004103-2.081 0.2452-3.018 0.7402l-22.66 11.97c-11.06-5.904-25.11-1.857-30.64 9.713-0.3677 0.7676-0.6864 1.543-0.959 2.326l0.001953 0.0039c-4.086 11.75 2.348 24.97 14.54 28.74 13.52 4.173 26.95-5.4 28.46-19.09l7.877-4.162a3.2 3.2 0 0 0 1.564-1.887l0.9434-3.057 3.059 0.9434a3.2 3.2 0 0 0 4-2.113l0.9434-3.059 3.057 0.9434a3.2 3.2 0 0 0 4.002-2.111l2.83-9.174c1.031-3.34-0.8845-6.97-4.227-8.002l-7.906-2.44c-0.6073-0.1874-1.234-0.2807-1.859-0.2832zm-0.0293 6.398 7.906 2.44-1.887 6.115-3.059-0.9453a3.2 3.2 0 0 0-4 2.113l-0.9434 3.059-3.059-0.9434a3.2 3.2 0 0 0-4 2.113l-1.496 4.85-7.861 4.152a3.2 3.2 0 0 0-1.705 2.81c-0.04537 10.83-10.37 18.41-20.72 15.22-8.804-2.717-13.36-12.06-10.39-20.52l-0.00195 2e-3v-0.0059c0.1975-0.5638 0.4279-1.122 0.6934-1.676 4.241-8.858 15.23-11.84 23.37-6.35a3.2 3.2 0 0 0 3.283 0.1758zm-42.1 20.61a3.2 3.2 0 0 0-3.178 2.254c-1.551 5.029 1.311 10.45 6.34 12a3.2 3.2 0 0 0 4.004-2.115 3.2 3.2 0 0 0-2.115-4c-1.725-0.5323-2.646-2.277-2.113-4.002a3.2 3.2 0 0 0-2.115-4 3.2 3.2 0 0 0-0.8223-0.1406z" fill="url(#a)"/>
 <path transform="translate(.000408 -.00102) scale(1) matrix(.7989 0 0 .7989 .6249 5.456)" d="m69.99 37.97a1.86 1.86 0 0 0-1.344 0.5371l-0.8496 0.8398 0.01563 0.01563-7.629 7.512a1.35 1.35 0 0 0 0 1.934l4.066 4.002a1.404 1.404 0 0 0 1.963 0l7.652-7.533v0.0039l5.039-4.822c0.885-0.847 0.2906-2.328-0.9434-2.348l-7.971-0.1387zm-18.26 8.48-7.973 0.1426c-1.234 0.022-1.826 1.498-0.9414 2.344l5.039 4.822 7.65 7.533a1.404 1.404 0 0 0 1.965 0l4.064-4.008a1.35 1.35 0 0 0 0-1.93l-7.629-7.514 0.01758-0.01758-0.8516-0.8398a1.86 1.86 0 0 0-1.342-0.5332z" fill="#0f0"/>
</svg>
