<svg version="1.1" viewBox="0 0 64 64" xmlns="http://www.w3.org/2000/svg">
 <defs>
  <linearGradient id="a" y1=".5" y2=".5">
   <stop stop-color="#39ff14" offset="0"/>
   <stop stop-color="#00ff81" offset="1"/>
  </linearGradient>
 </defs>
 <path transform="translate(-.0024 .002976) scale(1)" d="m35.2 23.86-18.77 0.001953c-1.5 0-3.437 0.2652-5.139 1.51-1.726 1.264-2.912 3.54-2.912 6.539s1.187 5.27 2.912 6.535c1.699 1.245 3.637 1.51 5.139 1.51h19.37c1.145 4e-6 2.087-0.9389 2.09-2.084 0.0015-1.148-0.9416-2.094-2.09-2.094h-19.37c-0.9516 0-2.029-0.231-2.672-0.7012-0.6909-0.5065-1.197-1.137-1.197-3.166 0-2.028 0.5064-2.657 1.197-3.166 0.6408-0.4697 1.721-0.7051 2.672-0.7051h19.37c1.147 0 2.09-0.9427 2.09-2.09 0-1.134-0.9214-2.069-2.051-2.09a0.6006 0.6006 0 0 0-0.03906 0 0.6006 0.6006 0 0 0-0.6016 0.5996v-0.5996zm-20.52 12.92c0.5827 0.1448 1.185 0.2012 1.748 0.2012-0.5632 0-1.165-0.05634-1.748-0.2012z" fill="url(#a)" stop-color="#000000" stroke-linecap="round" stroke-linejoin="round"/>
 <path transform="translate(-.0024 .002976) scale(1) translate(-.00028 -.000476) scale(1)" d="m32.28 0.6797c-8.478-0.07465-16.65 3.16-22.71 8.98-6.046 5.834-9.49 13.78-9.566 22.1-0.07332 7.913 2.91 15.57 8.338 21.42 5.444 5.85 12.94 9.468 20.98 10.12 1.605 0.132 3.014-1.036 3.144-2.604 0.132-1.569-1.056-2.952-2.652-3.084-6.582-0.5439-12.72-3.492-17.17-8.279s-6.88-11.05-6.82-17.53c0.06265-6.8 2.887-13.3 7.832-18.08 4.959-4.762 11.64-7.409 18.58-7.348 6.937 0.06132 13.57 2.828 18.44 7.676 4.856 4.862 7.557 11.42 7.496 18.22-0.01466 1.574 1.278 2.862 2.883 2.875 1.606 0.01466 2.922-1.253 2.938-2.826 0.07598-8.311-3.223-16.33-9.16-22.26-5.95-5.926-14.06-9.308-22.54-9.383zm24.2 42c-1.012 0.0053-1.986 0.5476-2.498 1.5-2.61 4.838-6.68 8.708-11.65 11.06-1.422 0.6798-2.028 2.388-1.354 3.81 0.6745 1.422 2.378 2.026 3.801 1.346 6.057-2.867 11.05-7.616 14.22-13.52 0.7438-1.386 0.2246-3.112-1.16-3.857-0.4329-0.2324-0.9003-0.3401-1.359-0.3379z" fill="url(#a)"/>
 <path transform="translate(-.0024 .002976) scale(1)" d="m43.25 20.89c-3.508 0-6.386 1.382-8.262 3.496-1.872 2.106-2.766 4.834-2.766 7.535 0 2.701 0.8953 5.427 2.766 7.533 1.878 2.115 4.757 3.498 8.262 3.498s6.381-1.384 8.258-3.498c1.87-2.106 2.766-4.832 2.766-7.533 0-2.701-0.8952-5.429-2.766-7.535-1.878-2.111-4.751-3.496-8.258-3.496zm0 4.178c2.465 0 4.029 0.8389 5.143 2.092a0.6001 0.6001 0 0 0 0.001953 0c1.105 1.243 1.703 2.987 1.703 4.754 0 1.767-0.5982 3.512-1.703 4.754-1.114 1.254-2.678 2.092-5.145 2.092-2.466 0-4.031-0.839-5.145-2.092a0.6001 0.6001 0 0 0-0.001953 0c-1.105-1.243-1.705-2.988-1.705-4.754 0-1.766 0.601-3.512 1.705-4.754 1.114-1.253 2.68-2.092 5.146-2.092z" fill="url(#a)" stop-color="#000000" stroke-linecap="round" stroke-linejoin="round"/>
</svg>
