<svg version="1.1" viewBox="0 0 64 64" xmlns="http://www.w3.org/2000/svg">
 <defs>
  <linearGradient id="c" x1="817.2" x2="104.6" y1="202.2" y2="914.8" gradientTransform="matrix(.0467 0 0 .03787 10.48 10.85)" gradientUnits="userSpaceOnUse">
   <stop stop-color="#fee800" offset="0"/>
   <stop stop-color="#ff1162" offset=".507"/>
   <stop stop-color="#ff00ab" offset="1"/>
  </linearGradient>
  <linearGradient id="a" y1=".5" y2=".5">
   <stop stop-color="#00ff80" offset="0"/>
   <stop stop-color="#3bff00" offset="1"/>
  </linearGradient>
 </defs>
 <path transform="translate(.001 .001) scale(1) translate(-.002 -.002) scale(.9999)" d="M32.01.002a3.213 3.213 0 0 0-3.211 3.211v1.572c0 .545-.44.982-.984.982H24.75a1.01 1.01 0 0 1-1.022-1.002V3.212a3.211 3.211 0 0 0-6.422 0v2.69c0 .447-.296.833-.723.965-2.375.739-4.44 1.894-6.13 3.586-1.687 1.686-2.839 3.74-3.577 6.102a1.01 1.01 0 0 1-.963.723h-2.7a3.211 3.211 0 0 0 0 6.422h1.552a1.01 1.01 0 0 1 1.002 1.022v3.094a.98.98 0 0 1-.982.984H3.213a3.21 3.21 0 0 0 0 6.42h1.572a.98.98 0 0 1 .982.983v3.096a1.01 1.01 0 0 1-1.002 1.022H3.212a3.211 3.211 0 0 0 0 6.42h2.701c.446 0 .83.299.963.724.739 2.364 1.89 4.415 3.576 6.1 1.692 1.692 3.757 2.85 6.131 3.588.426.133.723.517.723.963v2.69c0 1.772 1.439 3.201 3.21 3.201s3.212-1.429 3.212-3.2v-1.552c0-.558.464-1.008 1.022-1.004h3.094c.544 0 .984.45.984.994v1.562c0 1.772 1.439 3.2 3.211 3.2s3.209-1.428 3.209-3.2v-1.562a.99.99 0 0 1 .984-.994h3.065a1.01 1.01 0 0 1 1.022 1.004v1.551c0 1.772 1.44 3.201 3.211 3.201s3.211-1.429 3.211-3.2v-2.69c0-.447.297-.84.723-.974 2.364-.738 4.417-1.892 6.102-3.578s2.838-3.737 3.576-6.1a1.03 1.03 0 0 1 .975-.724h2.69c1.772 0 3.199-1.437 3.199-3.21s-1.427-3.21-3.2-3.21h-1.552a1.01 1.01 0 0 1-1.002-1.022v-3.097c0-.545.447-.982.992-.982h1.562c1.772 0 3.2-1.439 3.2-3.21s-1.428-3.21-3.2-3.21h-1.562a.99.99 0 0 1-.992-.984v-3.094a1.01 1.01 0 0 1 1.002-1.022h1.553c1.772 0 3.199-1.439 3.199-3.21s-1.427-3.212-3.2-3.212h-2.698c-.446 0-.832-.297-.965-.723-.739-2.363-1.89-4.418-3.576-6.102-1.686-1.686-3.74-2.838-6.102-3.576a1.02 1.02 0 0 1-.723-.964v-2.7a3.211 3.211 0 0 0-6.422 0v1.554a1.01 1.01 0 0 1-1.022 1.002c-.126-.002-.248 0-.375 0h-2.719a.98.98 0 0 1-.984-.983V3.214a3.21 3.21 0 0 0-3.21-3.21zm-6.912 12.19h13.82c5.44 0 8.417 1.102 10.12 2.797 1.695 1.696 2.805 4.67 2.805 10.11v6.826c0 .028-.01.06-.01.088s.01.057.01.086v6.826c0 5.44-1.11 8.415-2.805 10.11s-4.672 2.807-10.12 2.807h-6.797c-.029 0-.057-.01-.086-.01s-.057.01-.086.01h-6.857c-5.444 0-8.415-1.112-10.11-2.807-1.696-1.696-2.795-4.67-2.795-10.11v-13.83c0-5.444 1.1-8.415 2.795-10.11 1.696-1.696 4.67-2.795 10.11-2.795z" fill="url(#a)"/>
 <path transform="translate(.001 .001) scale(.9999)" d="M31.98 18.51c-.714.006-1.23.12-1.741.939l-4.643-.002-1.193-.003c-1.392-.005-1.492.119-2.107 1.371l-.678 1.35c-.119.234-.3.633-.446.846-.367.018-.92-.107-1.188.17-.226.234-.164.634-.173.93-.004.383.01.771-.001 1.155-.677.032-1.154.138-1.645.66-.76.805-.471 1.946-.534 3.005a65 65 0 0 1-1.149-.001c-1.108-.005-1.109.076-1.109 1.152v1.128c0 1.045-.023 2.094-.003 3.138.005.219.028.392.198.55.222.206 1.66.093 2.053.136q.008.525.006 1.05c.001.783.024 1.276.63 1.863.224.22.502.375.806.452.34.083.96.059 1.338.058h1.891c.304.001.735-.01 1.031.011v.961c.004.682-.087 1.331.822 1.324l.378-.003c-.761 1.297-1.595 2.6-2.347 3.904-.05.085-.044.3-.02.396a.54.54 0 0 0 .256.341c.239.136.874.095 1.17.09.728-.015 1.488.05 2.207-.026.266-.028.588-.664.719-.884q.391-.66.77-1.327c.454-.799.998-1.682 1.412-2.486l.02-.04c.204.03.516.01.735.02.207.355.444.721.658 1.078l1.182 1.982c.272.45.532.933.829 1.37.066.098.184.222.304.243.277.048.62.03.904.029l1.343-.004c.164 0 .33.007.493.008.423.003.739.094.973-.334 0-.05.006-.273-.008-.304-.144-.325-.386-.687-.574-.982q-.667-1.065-1.321-2.14c-.129-.207-.526-.786-.6-.97.888-.009 1.274.138 1.226-1.01-.013-.308-.019-.908.004-1.217.848-.034 1.712.007 2.567-.009.768-.014 1.614.112 2.199-.521.308-.333.399-.676.455-1.114q.728-.012 1.454-.01c.148 0 .73-.013.824.026 1.87.781 3.707 1.65 5.572 2.443.196.083.62-.068.639-.269.12-.187.064-1.548.06-1.86q-.01-.9-.008-1.799l-.007-6.16c.007-.814-.003-1.626-.013-2.44-.006-.55.033-1.117-.01-1.668a.504.504 0 0 0-.527-.486c-.186.007-.362.109-.529.189-1.029.496-2.084.939-3.123 1.413-.637.291-1.27.625-1.937.846-.161.052-.787.035-.983.034h-1.447c-.022-.603-.05-.957-.513-1.395-.578-.549-1.5-.428-2.246-.429l-9.344-.001c-1.193.001-2.42.015-3.61 0 0-.333-.014-.821.009-1.143.35-.203.417-.427.583-.784q.106-.23.208-.463c.39-.013.794-.014 1.184-.01 1.264.018 2.541-.016 3.804.014.242.457.61.957 1.124 1.086.48.12 1.351.079 1.85.08l4.152.002c.613 0 1.022.07 1.565-.251.434-.257.67-.567.799-1.051q.042-.151.051-.308c.027-.41-.005-.97.004-1.393.004-.204.003-.889-.023-1.05a1.8 1.8 0 0 0-1.327-1.438c-.312-.078-1.084-.046-1.437-.045l-2.01-.001-2.102-.002c-.29 0-.549-.01-.787-.009zm5.681 1.128c.385.008.82.087.85.52.045.623-.005 1.317.022 1.948.006.126-.011.376-.064.487-.184.382-.641.333-.994.332l-.525-.001-1.97.002-2.1.001c-.121 0-.269.009-.385.003-.366-.02-.858.09-1.14-.193-.25-.25-.211-.672-.203-1.004.013-.53-.033-1.067.02-1.593.02-.193.228-.429.424-.458.352-.04.726-.026 1.083-.026l2.076-.007 2.18-.006h.375c.1-.003.224-.008.352-.005zm-10.16.949c.803 0 1.733-.022 2.527.009.01.382.006.8.003 1.183-.776.035-1.882.005-2.68.005-.487.001-2.526-.055-2.817.058-.315.123-.584.873-.72 1.182-.401.008-.94.006-1.337-.025.08-.197.255-.526.353-.724l.831-1.656c.094-.011.213-.018.309-.026q1.765-.015 3.532-.007zm-6.544 3.559c.733.004 1.535.013 2.262.004l-.001 1.125c-.752.012-1.5-.005-2.252.013-.01-.377.004-.753-.009-1.143zm26.53 1.952.014.013c.032.149.02.818.02 1.018V29.3l-.018 8.575c-.251-.072-.79-.347-1.07-.471l-2.099-.91c-.364-.17-.997-.415-1.317-.608-.027-.31-.012-.862-.012-1.183q-.003-1.142.007-2.284c.01-1.43-.033-2.891 0-4.315.227-.148.633-.3.897-.416l1.691-.752q.549-.24 1.093-.492c.193-.09.607-.296.793-.345zm-13.07.314c1.319 0 2.641-.003 3.96.007.156.003.295.018.402.143.074.085.139.173.143.291.018.482.01.972.01 1.454l-.005 2.802-.006 3.877c-.001.6.007 1.2.003 1.798-.002.352-.206.549-.551.56-.357.01-.721.004-1.078.003l-2.034-.003-6.316.001-6.237-.001-2.024.002c-.367 0-.735.006-1.1-.005-.463-.014-.612-.233-.802-.602.009-.08.003-.402.003-.494v-.97l-.006-3.264q.01-1.238-.002-2.474c-.014-.776-.036-1.707.035-2.485.023-.256.44-.64.696-.627.247-.013.494-.01.738-.01h1.301l4.491.011 8.377-.014zm-7.456 1.176q-.197.002-.396.002l-5.383.008c-.56.029-1.05.363-1.166.93-.065.318-.047.713-.046 1.04l.005 1.268c0 .583-.018 1.171.002 1.752.012.352.21.723.474.951.408.352.97.298 1.474.298l1.234-.002 4.205.001c.547-.044 1.069-.411 1.167-.98.044-.257.029-.54.028-.803l-.002-1.115v-1.36c0-.659.074-1.226-.497-1.689-.326-.264-.708-.3-1.102-.301zm4.588.067q-.087-.002-.175.005a1.712 1.712 0 1 0 .175-.004zm8.482.58c.622.01 1.246-.003 1.865.006l.002 5.623c-.005.529.05 1.362.007 1.852-.237.014-1.62.034-1.8-.005-.066-.08-.04-.85-.054-1.034-.017-1.495-.005-3.005-.005-4.5l-.003-1.317c-.001-.157.008-.487-.012-.623zm-17.21.477 2.621.006c.258 0 1.84-.032 1.982.06.102.33.019 2.345.04 2.825-.002.272.007.543 0 .814a.7.7 0 0 1-.045.224c-.063.1-.266.097-.378.098-.148.002-.306 0-.458-.002l-1.26-.004h-2.745q-.596 0-1.193.003c-.166 0-.21-.008-.336-.119.022-.11.013-1.184.013-1.359l-.002-1.511c0-.248.01-.627-.012-.865.025-.044.075-.152.118-.155.505-.028 1.156-.014 1.656-.014zm8.655.075a.59.59 0 1 1 .054 1.18.59.59 0 0 1-.054-1.18m5.534.015c-.235-.006-.48.018-.672.02q-.678.015-1.357-.007c-.188.02-.354.058-.478.22a.54.54 0 0 0-.107.404c.02.148.098.282.216.374.23.176.843.127 1.144.128l1.54.002a.544.544 0 0 0 .515-.626c-.045-.412-.41-.505-.8-.515zm-20.43 1.254c.322-.005.747-.016 1.06.012.013.18.005.468.006.656l.003 1.281.003 1.182c0 .203.01.5-.006.695l-.035.01c-.307 0-.812.016-1.099-.014-.014-.309-.005-3.736.02-3.806zM37 32.737q-.229 0-.448.004l-1.542.015-3.165-.002c-.508-.001-1.063-.018-1.565-.007-.604.044-.533.446-.535.924-.003.706-.01 1.416.007 2.122.006.181.126.278.266.371l7.406.001c.266-.036.382-.183.389-.45.011-.455-.002-.913 0-1.37-.009-.337.024-1.042-.022-1.334-.096-.133-.175-.226-.345-.248a4 4 0 0 0-.446-.027zm-1.304 1.127c.324-.003.688-.015 1.007.01.013.158.02 1.03-.007 1.164l-.133.004c-.288-.024-.754-.013-1.055-.015-.02-.123-.016-1.004 0-1.132.048-.036.121-.028.187-.03zm-1.328.003q.009.591.001 1.183c-.35 0-.857-.011-1.205-.025.014-.314.023-.841 0-1.152.325 0 .914-.024 1.204-.006zm-3.487.006 1.196.004c.007.225.008.953-.024 1.148-.324.02-.831.003-1.169.003.001-.27-.031-.954-.003-1.155zm-3.536 1.149c-.395-.002-.807.007-.977.007h-2.726l-2.149-.004c-.346 0-.79-.012-1.125.009-.468.253-.587.907.005 1.104.11.037.647.019.79.019h1.63l3.476.002c.566 0 1.278.023 1.823-.002.36-.104.578-.368.442-.75a.56.56 0 0 0-.313-.327c-.104-.043-.482-.056-.877-.058zm2.709 3.443 2.422.007c.36.002.893-.014 1.243.01v1.126c-1.42.04-2.868-.01-4.293.006-1.633.02-3.27-.009-4.903-.002-.065 0-.082.012-.105-.054.022-.272.01-.66.006-.934l.01-.115c.07-.054 1.551-.036 1.755-.037zm1.766 2.253c.143-.005.33.005.477.01a464 464 0 0 1 2.038 3.298q.086.14.175.277c-.3.013-.716-.009-1.025-.017q-.279 0-.557-.003c-.656-.982-1.277-2.023-1.894-3.031-.105-.171-.209-.336-.298-.516.345-.016.735-.013 1.085-.017zm-5.984.011c.51-.003 1.114-.007 1.619.012-.116.293-.464.84-.637 1.13l-.883 1.497c-.095.16-.542.943-.63 1.042-.408 0-1.287.021-1.655-.025.159-.372.481-.797.685-1.156.473-.835 1.056-1.654 1.5-2.498z" fill="url(#c)"/>
</svg>
