<svg xmlns="http://www.w3.org/2000/svg" fill="none" viewBox="0 0 64 64"><defs><linearGradient id="a" x1="32" x2="32" y1="51.29" y2="20.43" gradientUnits="userSpaceOnUse"><stop offset="0" stop-color="#fda700"/><stop offset="1" stop-color="#ffde00"/></linearGradient><linearGradient id="c" x1="49.36" x2="49.36" y1="24.29" y2="12.71" gradientUnits="userSpaceOnUse"><stop offset="0" stop-color="#fda700"/><stop offset="1" stop-color="#ffde00"/></linearGradient></defs><path stroke="url(#a)" stroke-linecap="round" stroke-linejoin="round" stroke-width="8" d="M5 35.86h7.714l7.714-15.43 3.857 30.86L35.855 32l3.857 11.57 7.714-7.714h11.57" transform="translate(-1.032 -3.096)scale(1.032)"/><path fill="url(#c)" fill-rule="evenodd" d="M45.5 12.71h7.714a1.929 1.929 0 1 1 0 3.857H45.5a1.93 1.93 0 0 1 0-3.857m0 7.714h7.714a1.929 1.929 0 1 1 0 3.857H45.5a1.928 1.928 0 0 1 0-3.857" clip-rule="evenodd" transform="translate(-1.032 -3.096)scale(1.032)"/></svg>