<svg xmlns="http://www.w3.org/2000/svg" style="isolation:isolate" viewBox="0 0 64 64"><linearGradient id="a" x2="1" y1=".5" y2=".5" gradientTransform="matrix(47.1 0 0 47.08 .45 .461)" gradientUnits="userSpaceOnUse" transform="translate(-.612 -.612)scale(1.359)"><stop offset="0" stop-color="#5433ff"/><stop offset=".517" stop-color="#20bdff"/><stop offset=".983" stop-color="#a5fecb"/></linearGradient><path fill="url(#a)" fill-rule="evenodd" d="M22.85 21.04c.387 0 .773.149 1.07.446l1.07 1.071-2.143 2.142-1.07-1.07a1.51 1.51 0 0 1 0-2.143 1.52 1.52 0 0 1 1.073-.446M34.13 6.98v.003a.34.34 0 0 0-.233.1l-.923.923a.34.34 0 0 0-.1.241v5.298h-5.299a.35.35 0 0 0-.241.101l-3.416 3.416a.34.34 0 0 0 0 .483l5.666 5.668-.829.828-3.696-3.698a3.134 3.134 0 0 0-4.423 0 3.134 3.134 0 0 0 0 4.423l3.696 3.698-1.457 1.457-2.903-.308c.905-1.223.94-2.911-.167-4.018a3.13 3.13 0 0 0-4.42 0l-5.909 5.909a4.99 4.99 0 0 0 0 7.048 4.99 4.99 0 0 0 7.048 0c.946-.946 1.316-2.186 1.342-3.427l.801.801a.34.34 0 0 0 .483 0l.655-.658a.34.34 0 0 0 0-.483l-3.281-3.281a.34.34 0 0 0-.483 0l-1.97 1.97a.34.34 0 0 0 0 .482l.656.656a.34.34 0 0 0 .485 0l.799-.799c.479 1.211.357 2.616-.626 3.598a3.367 3.367 0 0 1-4.768 0 3.367 3.367 0 0 1 0-4.769l5.907-5.907a1.51 1.51 0 0 1 2.143 0 1.51 1.51 0 0 1 0 2.143l-1.314 1.312a.34.34 0 0 0 0 .485l3.283 3.281c.134.133.35.133.483 0l.656-.656a.34.34 0 0 0 0-.484l-1.553-1.554 3.091.321a.34.34 0 0 0 .278-.101l2.779-2.779a.34.34 0 0 0 0-.485l-2.384-2.382 2.143-2.143 2.384 2.384c.134.133.35.133.483 0l2.626-2.625a.343.343 0 0 0 0-.485l-2.385-2.384 1.729-1.727a.34.34 0 0 0 0-.482l-.656-.658a.34.34 0 0 0-.485 0l-1.726 1.728-2.143-2.143 2.151-2.151h4.767v6.223a.342.342 0 0 0 .585.242l.923-.923a.34.34 0 0 0 .1-.242v-5.3h5.298a.34.34 0 0 0 .242-.098l.923-.923a.342.342 0 0 0-.242-.586h-6.221V7.322a.342.342 0 0 0-.352-.342m-30.4 9.421V4.351h13.42l6.388 6.749 7.47-7.307 13.13.503-.492 12.13-6.639 7.613 7.197 7.777v11.9l-13.19.503-7.459-7.307-6.979 7.307-12.84-.492v-11.85l7.242-7.898-7.242-7.58zM.449 17.724V1.064h18.12l5.064 5.359L29.715.462l17.83.667-.678 16.57-5.458 6.267 6.07 6.552v16.35l-17.76.667-6.093-5.961-5.699 5.961-17.48-.667v-16.26l6.027-6.585-6.027-6.301zm31.22 9.56a4.4 4.4 0 0 0-3.128 1.291 4.434 4.434 0 0 0 0 6.256l.468.47 1.827-1.824-.47-.471c-.725-.725-.725-1.879 0-2.604s1.879-.725 2.604 0c.3.3.465.667.513 1.053v8.319l1.731 1.73 6.255-6.256-1.824-1.825-3.587 3.586c-.004-1.918.005-3.837 0-5.765v-.039l-.005-.038a4.4 4.4 0 0 0-1.256-2.592 4.4 4.4 0 0 0-3.128-1.29z" transform="translate(-.612 -.612)scale(1.359)"/></svg>