<svg xmlns="http://www.w3.org/2000/svg" viewBox="0 0 64 64"><defs><linearGradient id="a" x1="64.03" x2="64.03" y1="89.41" y2="5.936" gradientTransform="translate(.491 .45)scale(.494)" gradientUnits="userSpaceOnUse"><stop offset="0" stop-color="#5570ff"/><stop offset="1" stop-color="#4dd3ff"/></linearGradient><linearGradient id="d" x1="62.26" x2="62.26" y1="122.3" y2="54.68" gradientTransform="translate(.491 .45)scale(.494)" gradientUnits="userSpaceOnUse"><stop offset="0" stop-color="#02aa93"/><stop offset="1" stop-color="#67ff80"/></linearGradient><linearGradient id="b" x1="87.03" x2="87.03" y1="52.43" y2="26.18" gradientTransform="translate(.491 .45)scale(.494)" gradientUnits="userSpaceOnUse"><stop offset="0" stop-color="#fd5900"/><stop offset="1" stop-color="#ffde00"/></linearGradient></defs><g stroke-width=".494"><path fill="url(#a)" d="M40.56 2.666c-2.424.016-4.91.032-7.672.025h-.098c-5.92-.02-11.84-.011-17.76-.004l-4.46.004h-.003C5.34 2.688.577 6.811.287 11.742l-.002.018v.016c-.04 2.939-.032 5.876-.025 8.807q.005 1.88.006 3.758v.298C.254 31.265.254 37.9.262 44.52l.002 1.81 1.268-1.293c.468-.477.954-.946 1.447-1.422 1.035-1 2.109-2.037 3.043-3.193l.055-.021.013-.006h.002v-.002l.01-.002v-.002h.006c.096-.04.195-.08.264-.11l.9-.378-.606-.766-.267-.338c-.028-6.35-.024-12.7-.02-19.06q.003-3.622.004-7.244v-.01c-.016-1.48.98-3 2.506-3.612l.018-.006.015-.008c.593-.273 1.296-.355 2.096-.41q3.791-.001 7.582.004h.004c4.734.004 9.47.007 14.2-.012h.059c6.963.01 13.92.019 20.88.012 1.525.16 2.899.943 3.607 2.115.287.579.481 1.11.502 1.633v.013q.009 5.32.004 10.64-.005 4.164-.002 8.33c1.452.306 2.983 1.066 4.44 2.523a9.9 9.9 0 0 1 1.71 2.252V33.57c0-1.47-.005-2.94-.005-4.41v-1.625c.003-5.017.004-10.03 0-15.05v-.007c.012-1.357-.337-2.66-.836-3.856l-.012-.024a9.5 9.5 0 0 0-.966-1.635l.025-.017-.521-.606v-.002c-1.738-2.028-4.363-3.344-7.117-3.606l-.182-.017h-.002l-.193-.018-.012.014-1.56-.026c-4.444-.074-8.172-.05-12.06-.025z" transform="translate(-.003 -.126)scale(.99991)"/><path fill="url(#b)" fill-rule="evenodd" d="M43.59 13.38a7.3 7.3 0 0 0-2.552.403c-2.8.92-4.753 3.614-4.575 6.352.075 2.633 2.084 5.058 4.778 5.89l.365.077.362.079c3.235.725 6.826-1.013 8.024-3.876a6.06 6.06 0 0 0-.375-5.605c-.482-.82-1.199-1.492-1.97-2.086-1.174-.784-2.612-1.211-4.057-1.235z" transform="translate(-.003 -.126)scale(.99991)"/><path fill="url(#d)" d="M19.49 26.95q-.137 0-.273.014a3.03 3.03 0 0 0-1.912.91l-.014.014q-5.656 5.351-11.31 10.69l-.014.01-.011.013c-.036.039-.18.167-.325.29s-.285.238-.406.366l-.025.026-.055.05c-.057.053-.149.137-.295.274l-.008.006-.006.006c-1.718 1.718-3.143 2.98-4.688 4.555l-.14.142v.201c-.004 2.56-.012 5.124.008 7.688v.016c.13 3.454 2.456 6.656 5.775 8.148l.015.006.246.092.022.007.002-.001c3.18 1.362 6.64.704 9.752.845l.021-.492v.494c3.203 0 6.407.004 9.611 0h7.916v-5.28h-4.654c-3.286-.005-6.57-.001-9.856.003h-.015c-3.322-.105-6.625.187-9.822-.164-.459-.17-.896-.314-1.232-.523l-.012-.008-.012-.006c-1.407-.769-2.204-2.325-2.144-3.807v-.012c.027-1.678-.036-3.33.035-4.953 4.674-4.267 9.187-8.674 13.8-12.97v.002c.13.12.264.238.391.361l.133.141.006.006c2.17 2.128 4.365 4.236 6.547 6.354l.345-.356-.32.377c1.441 1.221 2.608 3.001 4.578 4.002l.07.037.079.012c.948.145 2.024-.012 2.789-.726 1.752-1.506 3.447-3.047 5.197-4.52l.574.568.004.002.004.004q1.015.973 2.029 1.949l4.008-4.008a577 577 0 0 0-3.39-3.254l-.001.002c-.495-.597-1.156-1.2-1.955-1.551-.82-.36-1.824-.424-2.738.14l-.026.016-.021.018c-1.916 1.523-3.678 3.189-5.498 4.754l-.06.052a51 51 0 0 1-1.304-1.146c-1.23-1.119-2.404-2.286-3.574-3.459-1.522-1.526-3.035-3.06-4.643-4.508a61 61 0 0 0-1.363-1.297l-.027-.023a2.9 2.9 0 0 0-1.81-.6zM5.51 39.14l.035.46-.17-.427.051-.017zm.037.494c-.024.02-.105.094-.351.324l-.024-.021z" transform="translate(-.003 -.126)scale(.99991)"/></g><path fill="#bf00ff" d="M50.693 34.291 34.374 50.61v10.879h10.88L61.571 45.17s5.44-5.44 0-10.879-10.88 0-10.88 0m3.74 3.74 3.231 3.231-9.181 9.182v.17l-6.97 6.97-3.231-3.23 10.199-10.37z"/></svg>