<svg version="1.1" viewBox="0 0 64 64" xmlns="http://www.w3.org/2000/svg">
 <defs>
  <linearGradient id="b" x1="1" x2="0" y1="1">
   <stop stop-color="#07f" offset="0"/>
   <stop stop-color="#00f7ff" offset="1"/>
  </linearGradient>
  <linearGradient id="a" x1="1" x2="0" y1="1">
   <stop stop-color="#00ff87" offset="0"/>
   <stop stop-color="#60efff" offset="1"/>
  </linearGradient>
 </defs>
 <path transform="translate(-.000245 .00041) scale(1) matrix(.9136 0 0 .9136 3.076 2.284)" d="m5.762 31.01-0.01562 2e-3h-0.00586c-0.1535 0.0066-0.3596 0.02269-0.5957 0.0625-0.2262 0.03808-0.5217 0.1053-0.8418 0.2304-0.3034 0.1185-0.6857 0.3115-1.055 0.6328-0.3677 0.3202-0.7105 0.7608-0.9238 1.332a2.5 2.5 0 0 0-0.07422 0.2285l-4.5 16.81a2.5 2.5 59.85 0 0-0.00586 0.01172c-0.1236 0.4702-0.1486 0.953-0.08203 1.422 0.06528 0.4598 0.218 0.9 0.4492 1.299 0.2281 0.3936 0.534 0.749 0.9082 1.039 0.3689 0.2859 0.7995 0.5042 1.275 0.6309 15.63 4.188 31.53 8.449 47.49 12.72a2.5 2.5 52.49 0 0 0.01758 0.0039 2.5 2.5 52.49 0 0 0.1523 0.03516c0.4258 0.09272 0.8559 0.1062 1.272 0.04687 0.4667-0.06655 0.908-0.2226 1.303-0.4531 0.3985-0.2328 0.7506-0.5419 1.035-0.9121 0.2864-0.3727 0.4992-0.8021 0.623-1.268l0.0039-0.01172 3.178-11.85 3.18-11.86a2.5 2.5 0 0 0 0.04102-0.1719c0.09232-0.4265 0.1051-0.8597 0.04297-1.281-0.06811-0.4624-0.2252-0.9036-0.459-1.301-0.2306-0.3917-0.5386-0.7445-0.9121-1.031-0.3669-0.2817-0.7952-0.4974-1.268-0.623l-0.01172-0.0039c-5.546-1.486-11.2-3.001-16.9-4.529a2.5 2.5 48.27 0 0-1.014-0.05859c-0.1952 0.02902-0.6911 0.1263-1.264 0.4512-0.2919 0.1656-0.6092 0.394-0.9121 0.7051-0.305 0.3132-0.5803 0.6946-0.7969 1.148a2.5 2.5 65.27 0 0-0.1582 0.4277l-0.9512 3.539-9.303-2.492a2.5 2.5 14.57 0 0-0.3281-0.1133l-17.66-4.736a2.5 2.5 0 0 0-0.4785-0.08008c-0.08723-0.0059-0.244-0.01223-0.4453-0.0039zm0.9219 5.26 16.03 4.299h2e-3a2.5 2.5 0 0 0 0.3301 0.1133l12.05 3.23a2.5 2.5 15.01 0 0 3.06-1.766l1.25-4.658 13.94 3.736-2.818 10.51-2.816 10.51c-15.04-4.029-30.03-8.043-44.78-12zm47.03 3.607h2e-3l-0.0039 0.01758-0.01367 0.04687c0.0046-0.02179 0.01-0.04288 0.01563-0.06445zm-4.705 22.71c0.02175 0.0047 0.0449 0.01 0.06641 0.01563l-0.01758-2e-3c-0.01667-0.0044-0.03219-0.0093-0.04883-0.01367z" fill="url(#b)"/>
 <path transform="translate(-.000245 .00041) scale(1) translate(3.076 2.284) scale(.9136)" d="m14.57-2.5v0.00195c-0.01766 4.598e-4 -0.07416-1.234e-4 -0.07813 0v0.00195c-0.7354 0.02551-1.478 0.2797-2.1 0.7715-0.567 0.4485-1.029 1.095-1.242 1.894-7.62e-4 0.002841-0.0012 0.006924-2e-3 0.009766l-2e-3 0.001953v0.001953c-2 7.459-4.128 15.4-6.357 23.71a2.5 2.5 0 0 0-0.00391 0.01953 2.5 2.5 0 0 0-0.0332 0.1328c-0.09564 0.4314-0.1091 0.871-0.04688 1.297 0.0675 0.4624 0.2238 0.9032 0.457 1.301 0.2303 0.3927 0.5368 0.746 0.9102 1.033 0.3676 0.2827 0.7972 0.4974 1.27 0.623l0.00781 2e-3c0.00201 5.31e-4 0.00385 0.0014 0.00586 2e-3l16.9 4.529a2.5 2.5 48.48 0 0 0.9961 0.06055c0.1977-0.02794 0.7093-0.124 1.297-0.459 0.2997-0.1709 0.6256-0.4072 0.9336-0.7305 0.3099-0.3252 0.5839-0.7188 0.7969-1.188a2.5 2.5 65.19 0 0 0.1289-0.3496c-0.02569 0.09001-0.01897 0.06848 0.02344-0.07031a2.5 2.5 61 0 0 0.02344-0.08398l0.9004-3.359 2.734 0.7324a2.5 2.5 7.487 0 0 0.1523 0.03516c0.09344 0.02548 0.1893 0.05146 0.2871 0.07813a2.5 2.5 0 0 0 0.1699 0.03906c0.2277 0.04535 0.3826 0.08418 0.4961 0.1211a2.5 2.5 64.32 0 0 0.04297 0.01367h2e-3v2e-3h2e-3a2.5 2.5 64.32 0 0 0.2324 0.07617l23.17 6.209a1.414 0.1854 0.03322 0 0 0.6465 0.08594s0.06831 0.0044 0.1758 0l0.1016-2e-3c0.2101-0.0085 0.5169-0.03419 0.8633-0.1133 0.3357-0.07667 0.8069-0.2247 1.277-0.5352 0.2422-0.1598 0.4948-0.37 0.7246-0.6426 0.2326-0.2758 0.4271-0.5989 0.5644-0.9668a2.5 2.5 62.73 0 0 0.07227-0.2285l4.502-16.81a2.471 2.528 59.21 0 0 0.0039-0.01172c0.1249-0.4751 0.148-0.958 0.08203-1.422-0.0661-0.465-0.2216-0.9056-0.4512-1.301-0.2309-0.3976-0.5376-0.7505-0.9082-1.037-0.3724-0.288-0.8031-0.5037-1.273-0.6289l-0.01172-0.0039c-16.17-4.332-32.04-8.582-47.48-12.72a2.5 2.5 52.5 0 0-0.01563-0.00391h-2e-3a2.5 2.5 52.5 0 0-0.123-0.0293c-0.1753-0.04007-0.3743-0.07369-0.5918-0.08594-0.1027-0.00579-0.146-0.00306-0.2051-0.00195zm-0.3184 4.955 0.02148 0.00195 0.0293 0.00977c-0.02071-0.004421-0.03732-0.00817-0.05078-0.01172zm1.365 0.3633 44.77 11.99-3.742 13.97c-7.294-1.955-14.56-3.9-21.74-5.826-0.4183-0.1472-0.8213-0.2394-1.131-0.3027-0.1273-0.03472-0.2499-0.06905-0.3691-0.1016a2.5 2.5 0 0 0-0.1484-0.03516 2.5 2.5 0 0 0-0.02734-0.0059l-4.984-1.334a2.5 2.5 14.99 0 0-3.06 1.77l-1.24 4.625c-4.696-1.258-9.357-2.508-13.96-3.74 1.965-7.328 3.852-14.36 5.637-21.02z" fill="url(#a)"/>
</svg>
