<svg xmlns="http://www.w3.org/2000/svg" viewBox="0 0 64 64"><defs><linearGradient id="a" x1="1" x2="0" y2="1"><stop offset="0" stop-color="#f9d423"/><stop offset=".516" stop-color="#ff4e50"/><stop offset=".991" stop-color="#8a2387"/></linearGradient></defs><path fill="url(#a)" d="M32 40a4 4 0 0 0 0 8 4 4 0 0 0 0-8"/><path fill="url(#a)" d="M20 8a4 4 0 0 0-4 4v12a4 4 0 0 0 4 4h24a4 4 0 0 0 4-4V12a4 4 0 0 0-4-4zm0 4h24v12H20z"/><path fill="url(#a)" d="M31.18 32.03A12 12 0 0 0 20 44a12 12 0 0 0 24 0 12 12 0 0 0-12.82-11.97m.82 3.969a8 8 0 0 1 0 16 8 8 0 0 1 0-16"/><path fill="url(#a)" d="M16 0a8 8 0 0 0-8 8v48a8 8 0 0 0 8 8h32a8 8 0 0 0 8-8V8a8 8 0 0 0-8-8zm0 4h32a4 4 0 0 1 4 4v48a4 4 0 0 1-4 4H16a4 4 0 0 1-4-4V8a4 4 0 0 1 4-4"/></svg>