<svg xmlns="http://www.w3.org/2000/svg" viewBox="0 0 64 64"><defs><linearGradient id="a" y1="1"><stop offset="0" stop-color="#d462aa"/><stop offset=".2" stop-color="#55c6d8"/><stop offset=".4" stop-color="#2ea8b7"/><stop offset=".6" stop-color="#85cc66"/><stop offset=".8" stop-color="#eada39"/><stop offset="1" stop-color="#e4a12c"/></linearGradient><linearGradient id="c" y1="1"><stop offset="0" stop-color="#01ff01"/><stop offset="1" stop-color="#1bc100"/></linearGradient></defs><path fill="url(#a)" d="M55.36 17.64c-14.19 0-27.78 5.457-37.75 15.16C7.58 42.45 1.94 55.6 1.94 69.33v132.1c0 13.73 5.64 26.88 15.67 36.53 9.972 9.708 23.56 15.16 37.75 15.16h160.3c14.19 0 27.78-5.457 37.75-15.16 10.03-9.65 15.67-22.8 15.67-36.53v-24.7c0-9.673-7.847-17.52-17.52-17.52h-96.09c-6.554 0-11.87 5.146-11.87 11.49s5.319 11.49 11.87 11.49h89.87v19.24c0 7.64-3.148 14.94-8.668 20.34-5.578 5.342-13.12 8.387-21.01 8.387h-160.3c-7.893 0-15.44-3.044-21.01-8.387-5.52-5.4-8.668-12.7-8.668-20.34V69.33c0-7.64 3.148-14.94 8.668-20.34 5.578-5.342 13.12-8.387 21.01-8.387h160.3c7.893 0 15.44 3.044 21.01 8.387 5.52 5.4 8.668 12.7 8.668 20.34v24.93c0 6.342 5.32 11.49 11.87 11.49 6.554 0 11.87-5.147 11.87-11.49V69.33c0-13.73-5.641-26.88-15.67-36.53-9.972-9.708-23.56-15.16-37.75-15.16z" transform="translate(-.465 -.434)scale(.2396)"/><path fill="url(#c)" d="M71.93 80.38a11.43 11.43 0 0 0-8.697 4.378c-3.891 4.958-3.007 12.16 1.968 16.06l34.12 26.64-34.12 26.64c-4.975 3.902-5.859 11.1-1.968 16.06s11.06 5.842 16 1.968l43.68-34.14c7.445-5.814 7.445-15.26 0-21.08l-43.68-34.13a11.3 11.3 0 0 0-7.306-2.41z" transform="translate(-.465 -.434)scale(.23958)"/><path fill="url(#c)" d="M183.9 44.03a6.02 6.02 0 0 0-3.891 1.286c-2.632 2.065-3.101 5.869-1.045 8.495l18.12 23.18c3.086 3.952 8.101 3.952 11.19 0l18.12-23.18c2.056-2.626 1.587-6.429-1.045-8.495s-6.454-1.596-8.525 1.045l-14.14 18.11-14.14-18.11a6.08 6.08 0 0 0-4.634-2.331z" transform="translate(-.465 -.434)scale(.23958)"/></svg>