<svg xmlns="http://www.w3.org/2000/svg" viewBox="0 0 64 64"><defs><linearGradient id="a" x2="0" y2="1"><stop offset="0" stop-color="#00f0ff"/><stop offset="1" stop-color="#0070e0"/></linearGradient></defs><path fill="url(#a)" d="M22.08 0 11.3 5.529 2.677 12v11.9L32.007 64l29.33-40.1V12l-8.623-6.471L41.924 0zm.59 2.562h18.66l9.334 4.812v6.375l-9.334 4.814H22.67l-9.334-4.814V7.374zm-12 6.666v4.824l-5.332 5.863v-6.688zm42.66 0 5.332 4v6.688l-5.332-5.863zM12.29 16.21l9.037 5.016v9.787l-15.19-8.031zm39.41 0 6.152 6.772-15.19 8.031v-9.787zM24 21.226h16v10.67H24zM8.37 27.173l13.2 6.973 6.6 20.74zm47.28 0-19.8 27.73 6.6-20.74zM24.51 34.56h15.02l-7.508 24z" transform="translate(-.007)"/></svg>