<svg version="1.1" viewBox="0 0 64 64" xmlns="http://www.w3.org/2000/svg">
 <defs>
  <linearGradient id="a" x1="1" x2="0" y2="1">
   <stop stop-color="#feac5e" offset="0"/>
   <stop stop-color="#c779d0" offset=".5"/>
   <stop stop-color="#4bc0c8" offset="1"/>
  </linearGradient>
  <linearGradient id="b" x1="55.61" x2="80.71" y1="6.769" y2="31.86" gradientTransform="matrix(.7831 0 0 1.277 11.13 -.4612)" gradientUnits="userSpaceOnUse">
   <stop stop-color="#00ff6f" offset="0"/>
   <stop stop-color="#1eff01" offset="1"/>
  </linearGradient>
 </defs>
 <path transform="translate(-.006305) scale(1) translate(-11.11) scale(.9997) translate(10.88 1.1e-5) scale(2.909)" d="m5.228 0c-0.5944 0-1.434-0.001071-1.852 0.0332-0.4342 0.03432-0.8557 0.1158-1.256 0.3203-0.6058 0.309-1.097 0.8021-1.406 1.408-0.2044 0.4009-0.2861 0.8197-0.3203 1.254-0.03422 0.417-0.0332 0.9134-0.0332 1.508v12.96c0 0.5944-0.001091 1.092 0.0332 1.51 0.03432 0.4339 0.1158 0.8546 0.3203 1.256v2e-3c0.3094 0.6054 0.8005 1.096 1.406 1.404 0.4009 0.2046 0.8216 0.2861 1.256 0.3203v-2e-3c0.417 0.03426 1.257 0.0332 1.852 0.0332h4.064c0.5931 0 1.436 0.0011 1.854-0.0332l-2e-3 2e-3c0.4342-0.03429 0.8543-0.1159 1.256-0.3203 0.6061-0.3092 1.1-0.8017 1.408-1.408 0.2045-0.4009 0.284-0.8197 0.3184-1.254v-2e-3c0.03422-0.417 0.0332-0.9134 0.0332-1.508v-12.96c0-0.5941 0.0011-1.09-0.0332-1.508-0.03423-0.4339-0.114-0.8534-0.3183-1.254v-0.00195c-0.3091-0.6058-0.8021-1.098-1.408-1.406-0.4005-0.2045-0.8197-0.2859-1.254-0.3203-0.417-0.03426-1.259-0.0332-1.854-0.0332zm-0.7734 2.01 0.00195 0.00195 0.09766 0.293c0.1167 0.3503 0.1782 0.5466 0.3145 0.7109v0.00195c0.1136 0.1342 0.2599 0.2368 0.4238 0.3008 0.1994 0.07863 0.4045 0.07617 0.7734 0.07617h2.391c0.3689 0 0.576 0.00254 0.7754-0.07617 0.1644-0.0646 0.3082-0.1674 0.4219-0.3027l0.00195-0.00195c0.1364-0.1632 0.1977-0.3574 0.3145-0.707v-0.00195l0.09766-0.293c0.1912 0.00273 0.7256 0.00761 0.916 0.02148 0.3063 0.02455 0.4308 0.06665 0.5078 0.1055 0.2291 0.1173 0.4166 0.3036 0.5332 0.5332 0.03864 0.07567 0.08095 0.2009 0.1055 0.5078 0.02674 0.3166 0.02734 0.7416 0.02734 1.377v12.89c0 0.635-0.0016 1.061-0.02734 1.377-0.02458 0.3077-0.06648 0.4312-0.1055 0.5078-0.1164 0.2293-0.3026 0.416-0.5312 0.5332-0.07767 0.03919-0.2023 0.08099-0.5098 0.1055-0.3156 0.02675-1.088 0.02734-1.723 0.02734h-4.002c-0.6364 0-1.403-0.0016-1.721-0.02734-0.3066-0.02458-0.4315-0.06669-0.5078-0.1055-0.2304-0.1172-0.416-0.3026-0.5332-0.5332-0.03888-0.07608-0.08089-0.1998-0.1055-0.5078-0.02675-0.3156-0.0293-0.742-0.0293-1.377v-12.89c0-0.6364 0.00353-1.059 0.0293-1.377 0.02458-0.3066 0.06672-0.4315 0.1055-0.5078 0.117-0.2298 0.3034-0.4163 0.5332-0.5332 0.07546-0.03854 0.2007-0.08092 0.5059-0.1055 0.1912-0.01394 0.7265-0.01875 0.918-0.02148zm-0.7539 0.5742a0.8532 0.8532 0 0 0-0.8535 0.8535 0.8532 0.8532 0 0 0 0.8535 0.8535 0.8532 0.8532 0 0 0 0.8535-0.8535 0.8532 0.8532 0 0 0-0.8535-0.8535zm1.623 14.77c-0.4449 0-0.8109 0.3653-0.8106 0.8106 0 0.4445 0.366 0.8106 0.8106 0.8106h3.889c0.00175 1.6e-5 0.0041 2.1e-5 0.00586 0 0.2451-0.0061 0.455-0.1089 0.5918-0.2656 0.1352-0.155 0.1992-0.3524 0.1992-0.5449 0-0.1924-0.064-0.3879-0.1992-0.543-0.1351-0.155-0.3427-0.2574-0.584-0.2656a0.08464 0.08464 0 0 0-0.01367 0z" fill="url(#a)"/>
 <path transform="translate(-.006305) scale(1) translate(-11.11) scale(.9997)" d="m58.91 8.187c-0.6323 0.03922-1.123 0.5806-1.123 1.211v1.65c0 0.6731 0.5458 1.21 1.199 1.248 6.267 0.3619 11.23 5.552 11.23 11.91 0 6.36-4.966 11.55-11.23 11.91-0.6535 0.03778-1.199 0.5751-1.199 1.248v1.65c0 0.6729 0.5668 1.243 1.252 1.211 8.505-0.3925 15.29-7.422 15.29-16.02 0-8.599-6.781-15.63-15.29-16.02-0.03659-0.0017-0.08031-0.00288-0.1289 0h-2e-3zm0.01562 6.225c-0.6426 0.02122-1.139 0.5695-1.139 1.201v1.65c0 0.6741 0.5381 1.194 1.17 1.268 2.843 0.3309 5.047 2.741 5.047 5.678 0 2.936-2.205 5.347-5.047 5.678-0.6318 0.0736-1.17 0.5935-1.17 1.268v1.65c0 0.6736 0.5742 1.253 1.268 1.199 5.066-0.391 9.057-4.633 9.057-9.795s-3.991-9.404-9.057-9.795a0.5 0.5 0 0 0-2e-3 0c-0.03898-3e-3 -0.08071-0.0035-0.127-2e-3zm-0.6387 6.189c-1.987 0-3.607 1.621-3.607 3.607 0 1.987 1.621 3.607 3.607 3.607s3.607-1.621 3.607-3.607c0-1.987-1.621-3.607-3.607-3.607zm14.75 0.6582c0.1893 0.9534 0.2891 1.94 0.2891 2.949s-0.09976 1.996-0.2891 2.949c0.1893-0.9534 0.2891-1.94 0.2891-2.949s-0.0998-1.996-0.2891-2.949z" fill="url(#b)" stop-color="#000000" stroke-linecap="round" stroke-linejoin="round"/>
</svg>
