<svg xmlns="http://www.w3.org/2000/svg" viewBox="0 0 64 64"><defs><linearGradient id="a" x2="0" y1="1"><stop offset="0" stop-color="#b555ff"/><stop offset="1" stop-color="#ff5454"/></linearGradient></defs><path fill="url(#a)" d="M7.309-.002A7.29 7.29 0 0 0 .004 7.301v49.39a7.29 7.29 0 0 0 7.305 7.305h.45a7.29 7.29 0 0 0 7.304-7.305v-17.17h33.79v17.17a7.29 7.29 0 0 0 7.305 7.305h.451a7.29 7.29 0 0 0 7.303-7.305v-3.213h.098v-41.93h-.098v-4.24A7.29 7.29 0 0 0 56.61.003h-.45a7.29 7.29 0 0 0-7.306 7.305v17.17h-33.79V7.308A7.29 7.29 0 0 0 7.758.003zM5.926 9.412h3.153c1.229 0 2.219.986 2.219 2.215v3.094c0 1.229-.99 2.219-2.22 2.219H5.986a2.214 2.214 0 0 1-2.22-2.219v-3.094a2.21 2.21 0 0 1 2.16-2.215zm48.97 0h3.151c1.229 0 2.219.986 2.219 2.215v3.094c0 1.229-.99 2.219-2.22 2.219h-3.093a2.213 2.213 0 0 1-2.217-2.219v-3.094a2.21 2.21 0 0 1 2.16-2.215zm-48.94 18.8H9.05c1.229 0 2.219.992 2.219 2.221v3.094c0 1.229-.99 2.217-2.219 2.217H5.956a2.21 2.21 0 0 1-2.217-2.217v-3.094c0-1.229.988-2.221 2.217-2.221m48.97 0h3.094c1.229 0 2.219.992 2.219 2.221v3.094c0 1.229-.99 2.217-2.219 2.217h-3.094a2.21 2.21 0 0 1-2.217-2.217v-3.094c0-1.229.988-2.221 2.217-2.221m-49.03 18.8h3.151c1.229 0 2.219.988 2.219 2.217v3.094c0 1.229-.99 2.221-2.22 2.221H5.954a2.214 2.214 0 0 1-2.217-2.221v-3.094c0-1.21.958-2.187 2.16-2.217zm48.97 0h3.151c1.229 0 2.219.988 2.219 2.217v3.094c0 1.229-.99 2.221-2.22 2.221h-3.093a2.214 2.214 0 0 1-2.217-2.221v-3.094c0-1.21.958-2.187 2.16-2.217z" transform="translate(-.004 .006)scale(.9999)"/></svg>