<svg version="1.1" viewBox="0 0 64 64" xmlns="http://www.w3.org/2000/svg">
 <defs>
  <linearGradient id="b" x1="1" x2="0" y1=".5" y2=".5">
   <stop stop-color="#05f" offset="0"/>
   <stop stop-color="#00ffd8" offset="1"/>
  </linearGradient>
  <linearGradient id="a" x2="0" y2="1">
   <stop stop-color="#01ff4d" offset="0"/>
   <stop stop-color="#2fff00" offset="1"/>
  </linearGradient>
 </defs>
 <path transform="translate(-0) scale(1) translate(-0 -1e-5) scale(1) translate(-.002383 .00127) scale(.9999) matrix(.9014 0 0 .9014 3.15 3.16)" d="m22.15-1.371c-3.447 0-6.36 0.1319-9.049 0.3887a3.5 3.5 0 0 0-0.01172 0 3.5 3.5 0 0 0-0.4766 0.01953c-0.1701 0.01857-0.3143 0.06704-0.4824 0.08789-4.518 0.5364-8.118 1.661-10.79 4.328-2.524 2.521-3.719 5.789-4.299 9.947-0.161 1.122-0.2895 2.29-0.3672 3.553-0.1335 2.204-0.166 4.628-0.166 7.291v15.5c1.9e-6 3.457 0.1327 6.379 0.3926 9.074 0.0994 0.996 0.1669 2.095 0.334 2.998 0.6431 3.576 1.835 6.453 4.106 8.721 2.671 2.667 6.271 3.792 10.79 4.328 0.1682 0.02084 0.3123 0.06933 0.4824 0.08789a3.5 3.5 0 0 0 0.4766 0.01953 3.5 3.5 0 0 0 0.01172 0c2.689 0.2568 5.602 0.3887 9.049 0.3887h19.72c9.853 0 16.41-0.4319 20.81-4.824 4.398-4.392 4.832-10.95 4.832-20.79v-15.5c0-9.845-0.4339-16.4-4.832-20.79-4.398-4.392-10.96-4.824-20.81-4.824zm0 7h19.72c9.521 0 14.03 0.9486 15.86 2.775 1.829 1.827 2.779 6.329 2.779 15.84v15.5c0 9.51-0.9498 14.01-2.779 15.84-1.83 1.827-6.343 2.777-15.86 2.777h-19.72c-2.128 0-4.005-0.04651-5.658-0.1406v-52.45c1.653-0.09407 3.531-0.1406 5.658-0.1406zm-12.66 1.127v50.48c-1.504-0.4303-2.533-0.9814-3.203-1.65-0.6798-0.6788-1.237-1.729-1.67-3.266-0.005771-0.02078-0.01185-0.04348-0.01758-0.06445-0.146-0.5266-0.258-1.192-0.375-1.836-0.2238-1.264-0.4217-2.645-0.5371-4.404-0.1193-1.797-0.1797-3.874-0.1797-6.27v-15.5c9.3e-6 -3.454 0.1731-6.093 0.4238-8.379 0.07172-0.6406 0.129-1.353 0.2207-1.906 0.08735-0.54 0.1799-1.056 0.2852-1.516 0.3883-1.659 0.8878-2.869 1.516-3.662 0.1074-0.1357 0.2177-0.2608 0.332-0.375 0.6702-0.6693 1.7-1.22 3.205-1.65z" fill="url(#b)"/>
 <path transform="translate(-0) scale(1) translate(-0 -1e-5) scale(1) translate(-.002383 .00127) scale(.9999) translate(3.15 3.16) scale(.9014)" d="m48.01 21.42-0.0059 0.0059a4.062 4.062 0 0 0-3.301 1.41l-9.131 10.67-4.324-3.182a4.059 4.059 0 0 0-5.678 0.8652 4.059 4.059 0 0 0 0.8672 5.678l7.363 5.412a4.059 4.059 0 0 0 5.484-0.6289l11.58-13.53a4.059 4.059 0 0 0-0.4394-5.723 4.062 4.062 0 0 0-2.416-0.9727z" fill="url(#a)"/>
</svg>
