<svg xmlns="http://www.w3.org/2000/svg" viewBox="0 0 64 64"><defs><linearGradient id="a" x1="1" x2="0" y1="1"><stop offset="0" stop-color="#9717f2"/><stop offset="1" stop-color="#ff00b0"/></linearGradient></defs><path fill="url(#a)" d="M10.74.004c-2.269.05-4.534.8-6.447 2.27-4.22 3.242-5.484 9.039-3.086 13.73L.096 19.32v.002c-.507 1.52 1.058 3.085 2.578 2.578l3.322-1.108c4.692 2.398 10.49 1.134 13.73-3.086 3.36-4.374 2.953-10.58-.947-14.48a11 11 0 0 0-8.037-3.22zm.059 2.438a8.54 8.54 0 0 1 6.248 2.51 8.55 8.55 0 0 1 .738 11.27 8.55 8.55 0 0 1-11.08 2.193 1.22 1.22 0 0 0-.998-.102l-3.035 1.012 1.014-3.029a1.22 1.22 0 0 0-.1-1.002A8.55 8.55 0 0 1 5.78 4.214a8.53 8.53 0 0 1 5.016-1.772z" transform="translate(.004 -.002)scale(2.909)"/><path fill="url(#a)" d="M34.22 11.74c-6.855 0-12.84 3.806-14.19 9.207v.004c-.583 2.33-.221 4.683 1.033 6.48.774 1.11 1.964 1.829 3.285 2.31-.406.83-.885 1.632-.885 2.663l-.004 3.342a5.96 5.96 0 0 0 1.371 3.81c-1.206 1.287-1.97 3.128-1.97 5.206 0 2.314.95 4.333 2.4 5.62 1.448 1.288 3.291 1.885 5.105 1.885s3.66-.597 5.108-1.885 2.397-3.305 2.397-5.62c0-2.118-.793-3.992-2.039-5.281q.13-.165.248-.339c.934-1.364 1.5-2.29 1.868-2.498 2.351-1.32 4.54-2.702 6.24-4.63 1.698-1.93 2.803-4.49 2.803-7.517 0-3.08-.921-6.24-3.054-8.7s-5.497-4.058-9.704-4.058zm0 4.5c3.132 0 5.018 1.026 6.304 2.507s1.953 3.576 1.953 5.749c0 2.036-.57 3.285-1.677 4.541s-2.866 2.439-5.066 3.673c-2.043 1.147-2.75 2.966-3.378 3.881l-.004.004a1.48 1.48 0 0 1-1.238.658h-1.658c-.857 0-1.502-.647-1.5-1.504l.007-3.345V32.4c0-.749.694-1.778 2.201-2.903 1.51-1.124 3.535-2.14 5.145-3.032a2.251 2.251 0 0 0-2.106-3.979q-.037.021-.072.044v-.004c-.022.012-.062.039-.083.05-1.615.828-3.507 1.916-4.727 2.642h-.004v.004c-.686.404-1.208.588-1.497.594h-.003c-1.055.02-1.636-.346-2.065-.961s-.665-1.58-.357-2.813c.635-2.524 4.756-5.8 9.826-5.8zm-3.861 25.51c.813 0 1.598.282 2.118.745s.885 1.07.885 2.26-.364 1.794-.885 2.257c-.52.463-1.306.745-2.118.745-.813 0-1.595-.282-2.115-.745s-.885-1.067-.885-2.257.364-1.797.885-2.26c.52-.463 1.303-.745 2.115-.745" transform="translate(.004 -.003)"/></svg>