<svg version="1.1" viewBox="0 0 64 64" xmlns="http://www.w3.org/2000/svg">
 <defs>
  <linearGradient id="a" x2="0" y1="1">
   <stop stop-color="#ffc100" offset="0"/>
   <stop stop-color="#ff0069" offset="1"/>
  </linearGradient>
  <linearGradient id="b" y1="1">
   <stop stop-color="#07f" offset="0"/>
   <stop stop-color="#00f7ff" offset="1"/>
  </linearGradient>
 </defs>
 <path transform="translate(0) scale(1) translate(0) scale(1) translate(-.00123 4e-4) scale(.9999) matrix(.9727 0 0 .9727 .8718 1.945)" d="m32-2c-1.889 0-3.816 0.7044-5.15 1.246h-4e-3c-3e-3 6.945e-4 -0.0088 0.003213-0.01172 0.003906h-2e-3l-17.6 6.604a2 2 0 0 0-0.04297 0.01367c-0.7598 0.3053-1.508 0.6762-2.186 1.297-0.677 0.6207-1.275 1.643-1.275 2.768 0 1.41 0.3548 2.281 0.6211 3.275a2 2 0 0 0 0.00781 0.03125l10.48 36.97a2 2 0 0 0 0.0332 0.1113s0.4496 1.415 1.363 2.703a2 2 0 0 0 0 0.0039c0.9888 1.391 2.543 2.574 2.543 2.574l7.717 6.611a2 2 0 0 0 0.05469 0.04883s0.4312 0.3425 0.9961 0.6894 1.15 0.8496 2.457 0.8496 1.892-0.5026 2.457-0.8496 0.9961-0.6894 0.9961-0.6894a2 2 0 0 0 0.05664-0.04883l7.723-6.619a2 2 0 0 0 0.01367-0.0098s1.528-1.237 2.488-2.508c0.9863-1.306 1.404-2.777 1.404-2.777a2 2 0 0 0 0.02539-0.08984l10.47-36.9 0.0039-0.01367c0.3422-1.066 0.6426-2.017 0.6426-3.357 0-0.9704-0.45-2.01-1.129-2.686-0.6765-0.6737-1.486-1.074-2.396-1.4l-17.6-6.6c-1.335-0.5417-3.262-1.246-5.15-1.246zm0 4c0.3118 0 2.788 0.6029 3.66 0.957a2 2 0 0 0 0.05078 0.01758l17.66 6.621a2 2 0 0 0 0.03125 0.01172c0.54 0.1933 0.7721 0.3671 0.8535 0.4356-0.01015 0.7516-0.09264 0.9796-0.4316 2.035a2 2 0 0 0-0.01758 0.06445l-10.46 36.88s-0.4825 1.214-0.8027 1.639c-0.2938 0.389-1.926 1.904-1.926 1.904l-7.66 6.57c-0.0044 0.0033-0.2593 0.2051-0.5898 0.4082-0.1164 0.07151-0.2562 0.124-0.3672 0.1621-0.111-0.03815-0.2508-0.0906-0.3672-0.1621-0.3306-0.2031-0.5855-0.4048-0.5898-0.4082-3.5e-5 -2.8e-5 -0.0039-0.0059-0.0039-0.0059l-7.668-6.572a2 2 0 0 0-0.0098-0.0098s-1.655-1.536-1.871-1.84c-0.3982-0.5633-0.8336-1.677-0.8398-1.693-4.4e-5 -1.13e-4 -0.0039-0.01367-0.0039-0.01367l-10.44-36.82-0.0078-0.03125c-0.298-1.104-0.4202-1.394-0.4394-2.06 0.1298-0.108 0.4402-0.308 0.918-0.5l-0.04297 0.01367 17.66-6.621a2 2 0 0 0 0.05078-0.01758c0.8717-0.3541 3.348-0.957 3.66-0.957z" fill="url(#b)"/>
 <path transform="translate(0) scale(1) translate(0) scale(1) translate(-.00123 4e-4) scale(.9999) matrix(.9727 0 0 .9727 .8718 1.945)" d="m32 7.172-4.414 6.621 2.76 27.04 1.654 1.654 1.656-1.654 2.758-27.04zm-7.725 35.31-1.104 2.207 1.104 2.207 5.518-0.5508 1.104-1.656-1.104-1.654zm15.45 0-5.518 0.5527-1.104 1.654 1.104 1.656 5.518 0.5508 1.104-2.207zm-7.725 4.414-1.654 1.656-0.5527 4.965 2.207 1.104 2.207-1.104-0.5508-4.965z" fill="url(#a)"/>
</svg>
