<svg xmlns="http://www.w3.org/2000/svg" style="isolation:isolate" viewBox="0 0 64 64"><linearGradient id="a" x1=".526" x2=".542" y1=".021" y2=".924" gradientTransform="scale(48)" gradientUnits="userSpaceOnUse" transform="scale(1.333)"><stop offset="0" stop-color="#11998e"/><stop offset=".991" stop-color="#38ef7d"/></linearGradient><path fill="url(#a)" fill-rule="evenodd" d="M42.67 8.533v30.93c0 1.766-1.434 3.2-3.2 3.2H8.54a3.2 3.2 0 0 1-3.2-3.2V8.533c0-1.766 1.434-3.2 3.2-3.2h30.93c1.766 0 3.2 1.434 3.2 3.2m5.333-1.066v33.07a7.47 7.47 0 0 1-7.467 7.467H7.466a7.47 7.47 0 0 1-7.467-7.467V7.467A7.47 7.47 0 0 1 7.466 0h33.07a7.47 7.47 0 0 1 7.467 7.467m-14.13 17.47v13.95h-5.837v-12.5q0-4.631-3.444-4.631-2.449 0-3.54 1.665-1.09 1.665-1.09 5.396v10.06h-5.837V9.107h5.837v6.066q0 .708-.134 3.329l-.134 1.722H20q1.952-3.138 6.2-3.138 3.769 0 5.721 2.029t1.952 5.817z" transform="scale(1.333)"/></svg>