<svg xmlns="http://www.w3.org/2000/svg" style="isolation:isolate" viewBox="0 0 64 64"><linearGradient id="a" x2="1" y1=".5" y2=".5" gradientTransform="matrix(37.69 0 0 21.11 5.157 13.44)" gradientUnits="userSpaceOnUse" transform="translate(-8.758 -8.758)scale(1.698)"><stop offset="0" stop-color="#f7f206"/><stop offset=".978" stop-color="#ffbb24"/></linearGradient><path fill="url(#a)" d="M41.73 18.46c-.43-.385-.852-.694-.852-.694-1.319-1.643-2.902-1.764-2.902-1.764-1.5-2.103-2.556-1.621-2.556-1.621-.264 1.274 1.387 2.624 1.387 2.624-.241.754-1.583.271-3.015-.445-1.168-.754-2.231-1.425-2.608-1.598-8.519-3.905-11.39 2.578-15.34 2.578-2.329 0-6.46-2.156-9.845-4.018-.588-.324-1.146.49-.641.95l.015.015c2.36 2.277 6.038 5.164 9.167 6.008 2.691.724 5.088.226 7.968.045.482-.03.784.536.482.928-2.54 3.384-1.733 7.131-1.349 8.217.739 2.073 1.824 3.58 3.144 4.515 1.259.89 1.568-.09 1.085-.565-1.44-1.41-2.39-3.453-2.382-5.503.03-6.808 5.872-7.147 7.116-5.277.611.912 1.214 1.756.468 2.555-1.093 1.161-.882 2.639-.407 2.036.625-.807 1.673-1.116 2.035-2.073.181-.475.294-.98.497-1.448.302-.686.8-1.266 1.35-1.771a8.5 8.5 0 0 1 2.97-1.757c.905-.007 1.93.023 3.106.091 0 0 .663.15.912.15q.307 0 .513-.09c.588-.226.799-1.071.799-1.071.015-.339-.656-.603-1.116-1.017z" transform="translate(-8.758 -8.758)scale(1.698)"/></svg>