<svg xmlns="http://www.w3.org/2000/svg" viewBox="0 0 64 64"><defs><linearGradient id="a" y1=".5" y2=".5"><stop offset="0" stop-color="#5800e2"/><stop offset="1" stop-color="#ff00e6"/></linearGradient></defs><path fill="url(#a)" d="M32.18 9.211v.012c-9.503.134-18.49 6.1-21.6 15.56-1.813 5.499-1.298 11.84 1.367 17.06 3.162 6.196 8.932 10.49 16.05 11.97 2.14.442 6.19.48 8.361.074 8.431-1.572 15.16-7.29 17.81-15.16 1.802-5.353 1.389-11.63-1.106-16.74-2.266-4.65-6.617-8.797-11.41-10.88a23 23 0 0 0-9.478-1.898zm.492 2.797c4.194-.248 8.426.84 12.02 3.223 1.234.823 3.566 2.896 3.566 3.172v.006h-.002v.004l-.002.004v.002l-.008.006c-.083.041-.494-.06-.976-.25-5.91-2.291-11.05-3.188-15.92-2.781-4.767.4-7.728 1.542-10.11 3.89-1.964 1.938-2.67 3.359-2.78 5.57-.098 2.047.173 3.304 1.126 5.24 2.39 4.859 7.196 8.895 13.94 11.7 3.968 1.653 9.335 2.908 12.51 2.919.62.004.896.082.896.254 0 .4-2.745 2.3-4.619 3.195-.953.453-2.573 1.043-3.604 1.303l-.007-.004c-1.833.464-5.492.734-6.97.515-4.801-.713-8.432-2.39-11.42-5.285-2.572-2.499-4.18-5.15-5.21-8.607-.708-2.374-.847-6.277-.311-8.807 1.26-5.929 5.042-10.74 10.52-13.37a19.7 19.7 0 0 1 7.357-1.902zm4.242 6.301.008.002c3.35-.005 5.422.348 8.693 1.463 2.026.693 5.163 2.151 5.387 2.5.26.417-.11.38-1.734-.166-2.49-.842-4.881-1.199-7.244-1.084-2.431.12-4.081.604-5.695 1.666-.978.643-1.296.994-1.822 1.988-.59 1.124-.626 1.308-.568 2.697.084 1.88.791 3.391 2.406 5.125 3.129 3.354 9.148 5.91 13.92 5.91 1.082 0 1.203.035 1.203.379 0 .208-.21.583-.465.834h-.008c-.437.432-.564.453-2.594.432-2.286-.032-2.265-.027-4.682-.47-3.332-.614-7.686-2.342-10.34-4.112-6.982-4.66-9.212-10.8-5.254-14.48 1.186-1.104 2.485-1.776 4.422-2.297 1.172-.312 1.998-.386 4.367-.39zm8.08 4.902h.002c1.642.044 3.485.41 5.356 1.119.792.296 1.572.687 1.738.87 1.098 1.197 1.475 9.267.46 9.903h-.003c-.13.079-.704.136-1.277.125-5.176-.095-10.94-3.322-12.17-6.826-.394-1.125-.361-1.83.139-2.803.84-1.635 3.02-2.46 5.754-2.389z" transform="translate(-13.295 -12.31)scale(1.398)"/></svg>