<svg xmlns="http://www.w3.org/2000/svg" viewBox="0 0 64 64"><defs><linearGradient id="a" x1="1" x2="0" y1="1"><stop offset="0" stop-color="#00a0ff"/><stop offset="1" stop-color="#00ffe7"/></linearGradient></defs><path fill="url(#a)" d="m32.57-1.317.006.002A35.8 35.8 0 0 0 20.116.641a1.77 1.77 0 0 0-1.185 1.516c-.031.353-.084.821-.143 1.315-.173 1.418-.284 3.905-.299 6.213l-.028 3.877a1.77 1.77 0 0 0 1.89 1.778l.415-.029-.008.009c.493-.032.582-.112.769-.18s.374-.154.575-.244c.4-.18.851-.405 1.307-.657l.016-.006c2.184-1.234 4.117-1.905 7.901-2.713l.027-.008c.425-.085.833-.189 1.199-.31.374-.126.576-.11 1.154-.561l.055-.041c.627-.53.49-.58.616-.802s.26-.48.403-.772c.287-.584.617-1.32.947-2.095l.008-.014a127 127 0 0 1 1.941-4.415v-.006l.45-.941a1.772 1.772 0 0 0-1.342-2.512 34 34 0 0 0-4.214-.36zm18.25 6.52-.002.002a2 2 0 0 0-.243.018 1.8 1.8 0 0 0-.47.14l-.003.002-.047.018-.677.303c-1.848.818-3.278 1.589-5.661 3.046-.622.38-1.093.68-1.467.947a6 6 0 0 0-.512.407c-.165.149-.356.23-.601.812l-.043.096-.014.041-.007.015-.047.194a2 2 0 0 0-.036.268c-.003.045 0 .055 0 .084v.029l.008.008v.004a1.77 1.77 0 0 0 .532 1.266l.014.016.014.006a1.77 1.77 0 0 0 1.203.491h.011l.01.007h.002c.018 0 .058.01.09.016l-.072-.008h-.012l-.096-.008h-.264a75.785 75.785 0 0 1 1.66 1.054c2.03 1.334 4.882 3.943 6.18 5.623.365.479.669.847 1.018 1.17.351.325.79.763 1.716.763.324 0 .343-.021.567-.043s.514-.053.851-.09c.675-.074 1.544-.174 2.457-.284h.014c1.604-.205 3.284-.37 3.758-.395a1.772 1.772 0 0 0 1.516-2.516c-1.464-3.148-3.38-6.053-5.696-8.562a30.4 30.4 0 0 0-4.519-4.548 1.77 1.77 0 0 0-1.133-.393zM6.68 10.097a1.77 1.77 0 0 0-1.352.642C1.514 15.35-1.026 21.21-1.501 28.05a1.77 1.77 0 0 0 .642 1.485c.58.475 1.432 1.125 2.748 2.1 1.914 1.418 3.675 2.606 5.106 3.456.716.425 1.347.767 1.911 1.02.565.251.889.541 1.911.429h.013l.47-.057a1.77 1.77 0 0 0 1.565-1.75l.012-1.977v-.008c.027-2.24.448-4.661 1.301-7.328v-.007c.51-1.572.944-2.617.688-3.965-.257-1.35-1.007-2.176-2.076-3.592l-.008-.006c-1.8-2.366-3.821-5.42-4.45-6.65l-.006-.015-.043-.088a1.77 1.77 0 0 0-1.383-.984 2 2 0 0 0-.22-.01v-.006zm49.95 18.49c-.035 0-.107 0-.209.01a2 2 0 0 0-.108.117h-.014l.116-.117c-.486.046-.958.323-1.238.587l-.055.023-.006.004a2 2 0 0 0-.215.264c-.403.596-.3.674-.346.88a8 8 0 0 0-.118.65 22 22 0 0 0-.16 1.641l.008-.008c-.24 3.647-.791 6.08-1.89 8.664l-.567 1.342a1.77 1.77 0 0 0 .264 1.815l.91 1.12c1.296 1.632 3.155 4.198 4.078 5.625l.331.526a1.772 1.772 0 0 0 3.01-.033 31.5 31.5 0 0 0 2.014-3.981c.016-.037.042-.065.057-.102l-.008-.09c1.956-4.033 2.954-8.431 3.052-12.86a1.77 1.77 0 0 0-.749-1.487l-.613-.436a72 72 0 0 0-3.511-2.283c-1.168-.717-1.951-1.23-2.788-1.56-.33-.135-.613-.297-1.22-.304v-.002h-.026zm-42.36 14.58c-.049 0-.082.008-.127.006-.12-.004-.225 0-.34.004-.228.007-.49.02-.795.043a66 66 0 0 0-2.193.213c-1.56.177-3.645.372-4.478.423-.913.043-2.033.105-2.608.152a1.772 1.772 0 0 0-1.412 2.617c3.072 5.603 7.714 10.1 13.11 13.28a1.77 1.77 0 0 0 1.682.06l1.66-.823c2.034-1 3.65-1.868 4.81-2.582.581-.357 1.04-.66 1.433-.988.196-.164.38-.33.575-.581.187-.242.477-.638.43-1.412a1.8 1.8 0 0 0-.134-.54 1.8 1.8 0 0 0-.304-.526c-.046-.035-.146-.204-.18-.235a4 4 0 0 0-.228-.195c-.15-.12-.316-.248-.517-.395a52 52 0 0 0-1.461-1.017c-2.268-1.538-3.93-2.982-5.841-5.12l-.015-.015a30 30 0 0 0-1.232-1.287 11 11 0 0 0-.505-.464c-.08-.069-.161-.134-.262-.207s-.148-.159-.56-.299c-.296-.1-.422-.115-.504-.114h-.004zM47 49.603c-.046 0-.12 0-.227.01-.61.061-.896.22-1.365.424s-1.057.483-1.856.871c-3.082 1.48-4.76 2.037-7.391 2.471h-.006l-2.091.346a1.77 1.77 0 0 0-1.342 1.072l-.97 2.318c-1.005 2.4-1.903 4.413-2.4 5.39a1.772 1.772 0 0 0 1.37 2.562c5.768.685 11.62.039 16.87-2.195a1.77 1.77 0 0 0 1.071-1.487c.034-.421.084-.975.151-1.571v-.006c.174-1.592.27-3.557.291-5.225.01-.834.006-1.586-.027-2.201a10 10 0 0 0-.075-.843c-.038-.263.09-.396-.383-1.095a2 2 0 0 0-.215-.256l-.012-.014-.022-.012-.007-.009-.006-.006-.014-.022-.035-.027a1.8 1.8 0 0 0-.346-.25 1.86 1.86 0 0 0-.914-.243zh-.001z" transform="translate(1.436 1.449)scale(.9546)"/><path fill="url(#a)" d="M28.33 21.3q-.127-.001-.295.014h-.01l-.002.002h-.002c-.01.004-.022.016-.031.02h-.004c-.445.056-1.052.354-1.342.663s-.39.524-.498.727a3.7 3.7 0 0 0-.36 1.045c-.066.378-.094.772-.119 1.342-.05 1.139-.068 2.987-.09 6.354-.014 2.03-.014 4.023 0 5.606s.026 2.605.085 3.23c.056.61.06.993.261 1.564.202.571.923 1.217 1.268 1.385.072.038.124.082.346.18.24.105.768.223 1.156.171.768-.1.893-.281 1.404-.511l.014-.008c1.448-.629 5.427-2.756 9.197-4.857 2.646-1.469 4.026-2.233 4.926-2.85.45-.308.819-.588 1.143-1.031.316-.434.455-1.004.498-1.301.076-.513-.007-1.282-.332-1.848-.33-.572-.754-.95-1.273-1.35-1.04-.8-2.592-1.708-5.273-3.238a231 231 0 0 0-6.477-3.578 64 64 0 0 0-2.152-1.094c-.284-.136-.527-.249-.748-.34s-.337-.165-.76-.234h-.008c-.124-.02-.267-.061-.521-.063z" transform="translate(1.436 1.449)scale(.9546)"/></svg>