<svg xmlns="http://www.w3.org/2000/svg" viewBox="0 0 64 64"><defs><linearGradient id="a" x2="0" y1="1"><stop offset="0" stop-color="#00b8ff"/><stop offset="1" stop-color="#00ff9d"/></linearGradient></defs><path fill="url(#a)" d="M32.29.05A32.03 32.03 0 0 0 9.58 9.214a32.05 32.05 0 0 0-1.232 44.41 32.03 32.03 0 0 0 20.99 10.33 2.91 2.91 0 0 0 3.144-2.654 2.917 2.917 0 0 0-2.656-3.144 26.24 26.24 0 0 1-17.18-8.447 26.2 26.2 0 0 1-6.822-17.88 26.23 26.23 0 0 1 7.834-18.44c4.96-4.858 11.65-7.56 18.58-7.496s13.57 2.884 18.44 7.83a26.25 26.25 0 0 1 7.5 18.59 2.91 2.91 0 1 0 5.817.053 32.03 32.03 0 0 0-9.162-22.71A32.05 32.05 0 0 0 32.283.083zM57.63 42.9v.003a2.91 2.91 0 0 0-2.551 1.53 26.26 26.26 0 0 1-11.88 11.28 2.924 2.924 0 0 0-1.381 3.888 2.906 2.906 0 0 0 3.879 1.373 32.1 32.1 0 0 0 14.51-13.79 2.913 2.913 0 0 0-1.186-3.94 2.9 2.9 0 0 0-1.389-.344z" transform="translate(-.009 -.013)"/><path fill="url(#a)" d="M15.1 16.82V29.5h12.68V16.82zM27.78 29.5v4.228h-8.453v16.91h8.453v-8.455h8.455v8.455h8.453v-16.91h-8.453V29.5zm8.455 0h12.68V16.82h-12.68z" transform="translate(-.009 -.013)"/></svg>