<svg version="1.1" viewBox="0 0 64 64" xmlns="http://www.w3.org/2000/svg" xmlns:xlink="http://www.w3.org/1999/xlink">
 <defs>
  <linearGradient id="a" x1="18.66" x2="18.66" y1="26.61" y2="55.37" gradientTransform="matrix(.8573 0 0 .9145 52.82 -1.332)" gradientUnits="userSpaceOnUse">
   <stop stop-color="#01ff4d" offset="0"/>
   <stop stop-color="#2fff00" offset="1"/>
  </linearGradient>
  <linearGradient id="b" x2="0" y2="1">
   <stop stop-color="#0f0" offset="0"/>
   <stop stop-color="#fd5" offset="1"/>
  </linearGradient>
 </defs>
 <path transform="translate(1e-4 .003269) scale(1) translate(.4922 .274) scale(.9846)" d="m24 0.4434c-0.276 3.032e-4 -0.4997 0.224-0.5 0.5v7.508h-7.5c-0.276 3.032e-4 -0.4997 0.224-0.5 0.5v15.52h-6.998v-7.51c-3.031e-4 -0.2768-0.2252-0.5008-0.502-0.5h-7.998c-0.2768-7.76e-4 -0.5016 0.2232-0.502 0.5v38.53c0 2.242 0.9058 4.43 2.49 6.016 1.584 1.585 3.772 2.492 6.01 2.492h48c2.239 0 4.428-0.9059 6.012-2.492 1.584-1.586 2.49-3.775 2.49-6.016v-46.54c-3.03e-4 -0.2768-0.2252-0.5008-0.502-0.5h-8c-0.276 3.032e-4 -0.4997 0.224-0.5 0.5v7.508h-6.998v-7.508c-3.03e-4 -0.2768-0.2252-0.5008-0.502-0.5h-8c-0.276 3.032e-4 -0.4997 0.224-0.5 0.5v7.508h-6.998v-15.52c-3.03e-4 -0.2768-0.2252-0.5008-0.502-0.5zm-2.492 14.01h4.986v7.508c3.03e-4 0.276 0.224 0.4997 0.5 0.5h31.5v33.03c0 0.9281-0.07643 1.115-0.7324 1.772-0.656 0.6568-0.8378 0.7305-1.762 0.7305h-48c-0.9242 0-1.104-0.07369-1.76-0.7305-0.6561-0.6567-0.7324-0.8431-0.7324-1.772v-25.02h15.49c0.2768 7.76e-4 0.5016-0.2232 0.502-0.5v-5.004z" fill="url(#b)"/>
 <path transform="translate(1e-4 .003269) scale(1)" d="m18.85 30.68v9.862h9.862v-9.862zm9.862 9.862v3.288h-6.575v13.15h6.575v-6.576h6.576v6.576h6.575v-13.15h-6.575v-3.288zm6.576 0h9.862v-9.862h-9.862z" fill="url(#a)" stroke-width=".8855"/>
</svg>
