<svg fill="none" version="1.1" viewBox="0 0 64 64" xmlns="http://www.w3.org/2000/svg">
 <defs>
  <linearGradient id="a" x1="34" x2="34" y1="59" y2="31" gradientUnits="userSpaceOnUse">
   <stop stop-color="#fd5900" offset="0"/>
   <stop stop-color="#ffde00" offset="1"/>
  </linearGradient>
  <linearGradient id="b" x1="83" x2="83" y1="60" y2="10" gradientUnits="userSpaceOnUse">
   <stop stop-color="#ff2424" offset="0"/>
   <stop stop-color="#ff8d8d" offset="1"/>
  </linearGradient>
  <linearGradient id="e" x1="94" x2="94" y1="97" y2="69" gradientUnits="userSpaceOnUse">
   <stop stop-color="#5558ff" offset="0"/>
   <stop stop-color="#00c0ff" offset="1"/>
  </linearGradient>
  <linearGradient id="f" x1="45" x2="45" y1="119" y2="69" gradientUnits="userSpaceOnUse">
   <stop stop-color="#02aa93" offset="0"/>
   <stop stop-color="#67ff80" offset="1"/>
  </linearGradient>
 </defs>
 <path transform="translate(-2e-4 -.000883) scale(1) translate(-2.133 -2.4) scale(.5333)" d="M34 31c13.8 0 25 11.493 25 25.655V59H11.286C10.028 59 9 57.945 9 56.655 9 42.493 20.2 31 34 31Z" stroke="url(#a)" stroke-width="10"/>
 <path transform="translate(-2e-4 -.000883) scale(1) translate(-2.133 -2.4) scale(.5333)" d="M97 35c0 13.8-11.49 25-25.65 25h-2.345V12.29c0-1.257 1.055-2.286 2.345-2.286 14.16 0 25.65 11.2 25.65 25z" stroke="url(#b)" stroke-width="10"/>
 <path transform="translate(-2e-4 -.000883) scale(1) translate(-2.133 -2.4) scale(.5333)" d="m94 97c-13.8 0-25-11.49-25-25.65v-2.345h47.71c1.257 0 2.286 1.055 2.286 2.345 0 14.16-11.2 25.65-25 25.65z" stroke="url(#e)" stroke-width="10"/>
 <path transform="translate(-2e-4 -.000883) scale(1) translate(-2.133 -2.4) scale(.5333)" d="m31 94c0-13.8 11.49-25 25.65-25h2.345v47.71c0 1.257-1.055 2.286-2.345 2.286-14.16 0-25.65-11.2-25.65-25z" stroke="url(#f)" stroke-width="10"/>
</svg>
