<svg fill="none" version="1.1" viewBox="0 0 64 64" xmlns="http://www.w3.org/2000/svg">
 <defs>
  <linearGradient id="a" x1="64" x2="64" y1="107.3" y2="21" gradientUnits="userSpaceOnUse">
   <stop stop-color="#5570ff" offset="0"/>
   <stop stop-color="#4dd3ff" offset="1"/>
  </linearGradient>
 </defs>
 <path transform="translate(.000112 -.00037) scale(1) translate(-1.574 -1.653) scale(.5246)" d="M95.57 40.75c-3.661-7.14-9.452-12.85-16.5-16.26-7.048-3.414-14.97-4.351-22.58-2.668-7.604 1.683-14.48 5.894-19.58 12-5.105 6.104-8.166 13.77-8.721 21.84-6.322.71-12.14 3.917-16.26 8.959s-6.23 11.54-5.894 18.15c.337 6.612 3.094 12.84 7.704 17.4 4.61 4.561 10.72 7.107 17.08 7.117h58.93c8.044.01 15.8-3.113 21.74-8.758 5.944-5.644 9.645-13.4 10.37-21.74.73-8.341-1.564-16.66-6.431-23.33-4.866-6.669-11.95-11.2-19.87-12.7zm-5.819 60.78h-58.93c-4.906.022-9.637-1.903-13.23-5.384-3.591-3.481-5.773-8.257-6.102-13.35-.329-5.097 1.221-10.13 4.333-14.08s7.553-6.516 12.42-7.176a38.5 38.5 0 0 0 4.066 14.52c.172.333.405.627.686.866.28.24.604.419.952.528a2.66 2.66 0 0 0 2.104-.22c.32-.18.602-.422.832-.715.23-.292.401-.629.506-.99a3 3 0 0 0-.212-2.193c-3.647-7.106-4.552-15.39-2.532-23.17s6.815-14.46 13.41-18.68c6.59-4.223 14.48-5.669 22.06-4.042s14.28 6.202 18.73 12.79a31.2 31.2 0 0 0-12.76 3.142 32.4 32.4 0 0 0-10.5 8.171 2.9 2.9 0 0 0-.58.974 2.98 2.98 0 0 0 .097 2.244c.16.348.386.659.664.914s.602.45.954.572a2.66 2.66 0 0 0 2.15-.178c.328-.178.62-.423.855-.721 2.95-3.485 6.694-6.144 10.89-7.734a25.7 25.7 0 0 1 13.11-1.371c4.413.69 8.587 2.522 12.15 5.326 3.558 2.804 6.384 6.492 8.22 10.73a28.8 28.8 0 0 1 2.292 13.51 28.6 28.6 0 0 1-4.194 13.01c-2.42 3.903-5.741 7.113-9.66 9.336a25.9 25.9 0 0 1-12.77 3.388z" fill="url(#a)" stroke="url(#a)" stroke-width="6"/>
</svg>
