<svg xmlns="http://www.w3.org/2000/svg" viewBox="0 0 64 64"><defs><linearGradient id="f" y1="1"><stop offset="0" stop-color="#f83d5c"/><stop offset="1" stop-color="#b800ff"/></linearGradient><linearGradient id="b" x1="1" x2="0" y2="1"><stop offset="0" stop-color="#f7f206"/><stop offset=".983" stop-color="#ffbb24"/></linearGradient><linearGradient id="e" x2="0" y2="1"><stop offset="0" stop-color="#00ffa5"/><stop offset="1" stop-color="#a100ff"/></linearGradient><linearGradient id="a" y1="1"><stop offset="0" stop-color="#d800bd"/><stop offset=".408" stop-color="#f92d7a"/><stop offset=".59" stop-color="#ff4a52"/><stop offset="1" stop-color="#ffb243"/></linearGradient></defs><g stroke-width=".125"><path fill="url(#a)" d="M14.14 34a3.99 3.99 0 0 0-3.325 1.775L9.34 38H6.003c-3.312 0-6 2.687-6 6v14c0 3.312 2.687 6 6 6h24c3.312 0 6-2.687 6-6V44c0-3.312-2.687-6-6-6h-3.337l-1.475-2.225A3.98 3.98 0 0 0 21.866 34h-.012zm3.862 11a6 6 0 0 1 0 12 6 6 0 0 1 0-12"/><path fill="url(#b)" d="M58.07 32a2 2 0 0 0-1.39.493v-.013l-16 14c-.625.55-.85 1.425-.55 2.212s1.037 1.3 1.875 1.3h6.975l-4.812 11.21a2.005 2.005 0 0 0 .662 2.412c.75.55 1.787.5 2.487-.112l16-14c.625-.55.85-1.425.55-2.212s-1.037-1.3-1.875-1.3H55.03l4.8-11.2a2.005 2.005 0 0 0-1.76-2.792z"/><path fill="url(#e)" d="M61.08.008a3 3 0 0 0-.61.042l-.337.075-20 6A3 3 0 0 0 37.996 9v13.21c-.637-.125-1.312-.2-2-.2-4.412 0-7.999 2.687-7.999 6s3.587 6 8 6c4.15 0 7.548-2.362 7.961-5.387l.038-.612V14.24l14-4.2v6.162c-.638-.125-1.312-.2-2-.2-4.412 0-8 2.687-8 6s3.588 6 8 6c4.15 0 7.549-2.362 7.962-5.387l.037-.613v-19c0-.937-.45-1.837-1.212-2.4A3 3 0 0 0 61.08.011z"/><path fill="url(#f)" d="M8.387 0A8.38 8.38 0 0 0 0 8.387v.762c0 7.012 9.399 14.02 13.79 16.91a4.01 4.01 0 0 0 4.424 0c4.387-2.9 13.79-9.899 13.79-16.91v-.762A8.38 8.38 0 0 0 23.617 0a8.37 8.37 0 0 0-6.7 3.35l-.913 1.225-.912-1.225A8.37 8.37 0 0 0 8.392 0z"/></g></svg>