<svg xmlns="http://www.w3.org/2000/svg" viewBox="0 0 64 64"><defs><linearGradient id="a" y2="1"><stop offset="0" stop-color="#879af2"/><stop offset=".479" stop-color="#d3208b"/><stop offset=".979" stop-color="#fda000"/></linearGradient></defs><path fill="url(#a)" d="M44.13 15.6 29.61 34.52l6.949 9.644c2.331-.381 4.467-1.111 6.285-2.104l-7.916-11.07 11.78-15.39zm-28.27.014 12.08 16.85-6.652 8.686q.838.586 1.795 1.084l10.17-13.36-9.629-13.25zm28 27.87c-1.784 1.006-3.853 1.8-6.117 2.322l1.43 1.984h7.768zm-24.53.216-3.123 4.078h2.65l2.41-3.168a21 21 0 0 1-1.938-.91z" transform="translate(-20.53 -21.03)scale(1.673)"/><path fill="url(#a)" d="M31.4 21.47c-.933 0-1.932.072-2.83.156 1.6 2.056 2.927 3.796 4.455 5.773-.858-1.818-2.621-3.562-2.012-4.459.603-.887 1.714-.736 1.799-.736 1.781 0 3.497.199 5.1.564l.377-.51c-2.138-.542-4.46-.789-6.889-.789zm9.648 1.66-.346.486c4.94 1.906 8.28 5.545 8.28 9.717 0 6.143-7.244 11.13-16.17 11.13s-16.17-4.986-16.17-11.13c0-3.345 2.147-6.347 5.546-8.389l-1.043-1.568c-5.333 2.227-8.873 6.136-8.873 10.59 0 6.925 8.568 12.54 19.12 12.54 10.56 0 19.13-5.62 19.13-12.54 0-4.618-3.808-8.655-9.478-10.83z" transform="translate(-20.53 -21.03)scale(1.673)"/></svg>