<svg version="1.1" viewBox="0 0 64 64" xmlns="http://www.w3.org/2000/svg">
 <defs>
  <linearGradient id="a" y1=".5" y2=".5">
   <stop stop-color="#00ff70" offset="0"/>
   <stop stop-color="#0075ff" offset="1"/>
  </linearGradient>
 </defs>
 <path transform="translate(-7.3e-5) scale(1) translate(.000728 .000855) scale(2.909) translate(3.7e-5) scale(1)" d="m2.117 0 0.00391 0.003906c-0.2799 0-0.5528 0.03659-0.8144 0.125a1.869 1.869 0 0 0-0.7324 0.4492 1.869 1.869 0 0 0-0.4473 0.7324 2.526 2.526 0 0 0-0.125 0.8125c0.002021 0.5345 0.1288 1.104 0.3496 1.727 0.2162 0.6093 0.5264 1.272 0.9199 1.98 1.337 2.399 3.656 5.364 6.594 8.305 2.94 2.94 5.91 5.26 8.305 6.594 0.7093 0.3941 1.371 0.7032 1.98 0.9199 0.6229 0.2198 1.192 0.3481 1.727 0.3496 0.2794 0 0.5538-0.0371 0.8144-0.125a1.869 1.869 0 0 0 0.7305-0.4473 1.869 1.869 0 0 0 0.4473-0.7324 2.526 2.526 0 0 0 0.127-0.8125v-2e-3c-2e-3 -0.5658-0.1456-1.171-0.3906-1.836a11.11 11.11 0 0 0-0.4121-0.9609 0.6699 0.6699 0 0 0-1.178-0.05859c-0.06972 0.1159-0.1427 0.2306-0.2168 0.3438a0.6719 0.6719 0 0 0-0.04883 0.6485c0.09969 0.2176 0.1857 0.4235 0.2578 0.6191 0.194 0.5204 0.2847 0.9547 0.2832 1.244 0 0.1177-0.01444 0.2075-0.03516 0.2676a0.2021 0.2021 0 0 1-0.03906 0.07227 0.2021 0.2021 0 0 1-0.07422 0.03906 0.8588 0.8588 0 0 1-0.2656 0.03516c-0.2733 0.0015-0.6753-0.07773-1.156-0.25-0.4991-0.1768-1.084-0.449-1.723-0.8047-2.216-1.232-5.092-3.471-7.932-6.311-2.84-2.838-5.076-5.714-6.309-7.932-0.3557-0.6396-0.6269-1.221-0.8047-1.721-0.1718-0.481-0.251-0.8829-0.25-1.156 0-0.1182 0.013-0.2085 0.0332-0.2676a0.2021 0.2021 0 0 1 0.03906-0.07031 0.2021 0.2021 0 0 1 0.07422-0.04102c0.05961-0.02021 0.1484-0.03516 0.2676-0.03516 0.29-0.00152 0.7243 0.08971 1.244 0.2832 0.1708 0.06399 0.3494 0.1385 0.5391 0.2227 0.2627 0.1167 0.5666 0.09216 0.8086-0.06445l0.00586-0.00391 0.00391-0.00195a0.8487 0.8487 0 0 0-0.125-1.488c-0.2199-0.09835-0.4341-0.1862-0.6426-0.2637-0.6648-0.244-1.269-0.3866-1.834-0.3887zm8.516 1.377a9.952 9.952 0 0 0-6.846 2.717 0.8184 0.8184 0 0 0-0.02148 1.162l0.00586 0.00977a0.8134 0.8134 0 0 0 1.121 0.03906 10.36 10.36 0 0 1 2.213-1.432c-0.3521 0.5471-0.6607 1.172-0.9219 1.861h-0.9492c-0.2566 0-0.4917 0.1427-0.6094 0.3711s-0.0997 0.5032 0.04883 0.7129l0.06055 0.08398c0.09094 0.1273 0.2365 0.2031 0.3926 0.2031h0.623c-0.04884 0.192-0.09267 0.3866-0.1348 0.584-0.04132 0.1942 0.00474 0.3941 0.125 0.5508l0.01758 0.02344v0.00195a0.6871 0.6871 0 0 0 1.201-0.2969c0.06264-0.2977 0.135-0.5851 0.2148-0.8633h2.775v3.58h-0.5606a0.684 0.684 0 0 0-0.4922 1.16l0.00391 2e-3c0.1288 0.1329 0.3053 0.209 0.4902 0.209h0.5586v0.5625c0 0.1834 0.07517 0.3576 0.207 0.4844l0.01758 0.01758a0.676 0.676 0 0 0 1.146-0.4844v-0.5801h3.334c-0.05355 1.336-0.2616 2.584-0.5859 3.674 0.0064-0.0077 0.01441-0.01475 0.02149-0.02149a0.2021 0.2021 0 0 0-0.03125 0.05859 0.9296 0.9296 0 0 0 0.8711 1.207l1.795 0.02734-0.0957 0.1113a0.8513 0.8513 0 0 0 0.2109 1.299l0.08203 0.04883h2e-3c0.2829 0.1632 0.6412 0.1157 0.8711-0.1172a9.962 9.962 0 0 0 2.836-6.973c0-5.522-4.476-9.992-9.994-9.992zm-0.6836 1.734v2.623h-2.287c0.07679-0.1778 0.1578-0.351 0.2422-0.5137 0.3895-0.7558 0.8443-1.35 1.324-1.742a2.88 2.88 0 0 1 0.5391-0.3496c0.06062-0.00674 0.1214-0.01286 0.1816-0.01758zm1.369 0 0.1797 0.01562c0.1812 0.08925 0.3625 0.2064 0.541 0.3516 0.585 0.4754 1.132 1.257 1.57 2.256h-2.291zm2.848 0.7617a8.285 8.285 0 0 1 2.545 1.861h-1.627c-0.1516-0.4016-0.3191-0.7869-0.502-1.143-0.1314-0.2526-0.2702-0.4911-0.416-0.7188zm-2.848 3.232h2.781c0.3087 1.068 0.5051 2.283 0.5566 3.58h-3.338zm4.201 0h2.221a8.235 8.235 0 0 1 1.152 3.58h-2.869c-0.04698-1.276-0.22-2.484-0.5039-3.58zm-13.84 1.318c-0.03978 0.00208-0.07937 0.00767-0.1191 0.01562a0.8487 0.8487 0 0 0-0.6621 0.6289v0.00195a10.26 10.26 0 0 0-0.2637 2.301c0 5.522 4.475 9.994 9.994 9.994 0.8012 0 1.58-0.09655 2.326-0.2754h2e-3a0.8033 0.8033 0 0 0 0.5996-0.6484 0.8033 0.8033 0 0 0-0.3516-0.8008 1.01 1.01 0 0 0-0.08984-0.0625 0.485 0.485 0 0 0-0.4043-0.05273c-0.2551 0.07679-0.8626 0.1507-1.246 0.1562a2.021 2.021 0 0 1-0.1504-0.0039v-1.23c0-0.2026-0.08999-0.3946-0.2461-0.5234a0.6861 0.6861 0 0 0-1.123 0.5293v1.178c-0.05961-0.0051-0.1204-0.01151-0.1797-0.01758a2.829 2.829 0 0 1-0.5411-0.3496c-0.585-0.4759-1.132-1.257-1.57-2.256h0.6074a0.6684 0.6684 0 0 0 0.457-1.158l-0.03516-0.03125a0.6719 0.6719 0 0 0-0.457-0.1816h-1.062c-0.1339-0.4648-0.2456-0.9588-0.334-1.475a0.6568 0.6568 0 0 0-0.1777-0.3516l-0.00195-2e-3a0.6876 0.6876 0 0 0-1.17 0.5977c0.07275 0.424 0.1593 0.8334 0.2617 1.23h-2.219a8.235 8.235 0 0 1-1.154-3.582h1.193a0.679 0.679 0 0 0 0.5234-1.113l-0.00781-0.0098a0.682 0.682 0 0 0-0.5254-0.248h-1.184c0.03385-0.4092 0.09996-0.8068 0.1914-1.197 0.05658-0.2374 0.006253-0.4904-0.1367-0.6894l-0.01562-0.02344a0.8487 0.8487 0 0 0-0.7266-0.3496zm14.34 3.633h2.867a8.235 8.235 0 0 1-1.152 3.582h-2.223c0.2844-1.096 0.4603-2.305 0.5078-3.582zm-11.47 4.953h1.627c0.1516 0.4026 0.3171 0.785 0.5 1.141 0.131 0.2526 0.2698 0.4937 0.416 0.7207a8.285 8.285 0 0 1-2.543-1.861z" fill="url(#a)"/>
</svg>
