<svg xmlns="http://www.w3.org/2000/svg" viewBox="0 0 64 64"><defs><linearGradient id="a" x2="0" y1="1"><stop offset="0" stop-color="#f70606"/><stop offset="1" stop-color="#ff24f5"/></linearGradient></defs><path fill="url(#a)" d="M12.22 7.254a.1.1 0 0 0-.05.016c-.274.167-5.958 9.168-5.958 9.43v.009l.002.006.002.006.002.002.002.002.006.002.006.002c.134 0 .911-.737 3.133-2.973 1.53-1.535 2.848-2.793 2.926-2.793s1.41 1.27 2.96 2.824c1.548 1.555 2.837 2.777 2.857 2.72.058-.153-.086-.407-2-3.497-1.958-3.165-3.48-5.51-3.691-5.686a.3.3 0 0 0-.196-.07z" transform="translate(-33.2 -32.258)scale(5.35846)"/><path fill="url(#a)" fill-opacity=".886" d="M12.22 7.234a.13.13 0 0 0-.059.02.2.2 0 0 0-.045.044l-.07.09a10 10 0 0 0-.224.313c-.182.263-.426.63-.711 1.066-.572.871-1.308 2.02-2.035 3.172s-1.447 2.306-1.984 3.19c-.269.441-.49.816-.647 1.088q-.118.204-.181.326l-.05.1c-.01.025-.017.04-.017.056h.04s.002-.017.013-.04q.016-.037.049-.096.062-.121.18-.327c.155-.27.377-.644.646-1.086.537-.883 1.257-2.038 1.984-3.19a236 236 0 0 1 2.035-3.172c.286-.435.53-.802.71-1.064a10 10 0 0 1 .292-.4.3.3 0 0 1 .037-.037c.02-.013.058-.017.1-.008a.3.3 0 0 1 .123.06c.022.02.07.076.136.163s.15.204.252.351c.203.294.473.702.8 1.203a223 223 0 0 1 2.501 3.963c.957 1.545 1.471 2.382 1.738 2.85.134.234.206.376.24.467.03.08.026.11.018.14l-.033-.023q-.06-.047-.172-.144c-.148-.13-.358-.326-.617-.573a107 107 0 0 1-2-1.965 119 119 0 0 0-2.033-1.994c-.269-.255-.49-.463-.65-.607a5 5 0 0 0-.25-.209l-.022-.012q-.004-.001-.006-.004h-.002l-.002-.002h-.018l-.002.002-.01.004-.02.012-.058.043q-.07.057-.19.164c-.158.142-.379.348-.644.602-.53.506-1.242 1.205-2.008 1.973-1.236 1.244-2.025 2.024-2.504 2.47-.24.224-.401.364-.502.436a.4.4 0 0 1-.103.059l-.01.002v-.008h-.04c0 .012.006.028.014.037l.002.002.002.002.002.002q.018.008.04.002a.4.4 0 0 0 .116-.066c.104-.075.267-.214.506-.438.48-.447 1.268-1.228 2.504-2.473.766-.767 1.478-1.466 2.008-1.973.265-.253.485-.458.643-.6a5 5 0 0 1 .244-.203l.016-.01h.004l.015.01q.022.014.057.042.07.056.19.164c.16.143.382.35.65.605.536.512 1.258 1.22 2.033 1.996.773.778 1.482 1.472 2 1.965.259.247.47.441.619.572q.112.1.174.147.03.023.049.033.008.006.017.008h.002l.002.002h.002l.008-.002.01-.006.006-.008h-.002c.016-.042.018-.094-.018-.19s-.108-.237-.242-.472c-.268-.47-.783-1.307-1.74-2.852a225 225 0 0 0-2.502-3.963 53 53 0 0 0-.801-1.203 11 11 0 0 0-.252-.353 1 1 0 0 0-.143-.168.3.3 0 0 0-.14-.07.2.2 0 0 0-.07-.007z" transform="translate(-33.2 -32.258)scale(5.35846)"/><path fill="url(#a)" d="M12.29 12.21c-.16.008-.914.816-.914.98 0 .04.07.09.156.114.281.074 1.398.058 1.523-.02.074-.047.098-.144.063-.258-.059-.183-.707-.82-.829-.816z" transform="translate(-33.2 -32.258)scale(5.35846)"/><path fill="url(#a)" fill-opacity=".886" d="M12.29 12.19q-.04.003-.094.041c-.054.038-.08.058-.127.098a4.082 4.082 0 0 0-.588.629q-.055.075-.088.134c-.033.06-.035.07-.035.098 0 .031.024.056.055.078a.4.4 0 0 0 .115.055c.147.039.495.053.826.049.166-.003.326-.01.453-.022q.097-.008.165-.02a.3.3 0 0 0 .095-.029c.083-.052.11-.162.073-.28-.017-.054-.07-.126-.141-.212a4 4 0 0 0-.524-.513q-.06-.048-.105-.077c-.045-.029-.054-.03-.078-.029zm-.004.04h.01q.016 0 .055.022a1 1 0 0 1 .101.073 3.834 3.834 0 0 1 .516.508.8.8 0 0 1 .133.199c.033.108.012.195-.053.236a.3.3 0 0 1-.084.024 2 2 0 0 1-.16.019 6 6 0 0 1-.45.02c-.329.004-.68-.01-.814-.045a.3.3 0 0 1-.105-.05.1.1 0 0 1-.037-.044v-.002c0-.013.01-.042.03-.078q.032-.057.087-.131c.072-.098.171-.215.275-.326s.213-.218.305-.297q.07-.06.123-.094a.3.3 0 0 1 .068-.035z" transform="translate(-33.2 -32.258)scale(5.35846)"/><path fill="url(#a)" d="M11.1 13.9c-.798.007-.835.116-1.242.629-.371.465-.363.559.05.625.47.07 4.376.074 4.716 0 .347-.074.375-.277.082-.625-.45-.535-.621-.578-2.512-.613-.478-.01-.828-.018-1.094-.016z" transform="translate(-33.2 -32.258)scale(5.35846)"/><path fill="url(#a)" fill-opacity=".886" d="M11.1 13.88c-.267.002-.45.018-.592.055s-.24.097-.338.191-.192.222-.328.393q-.139.173-.207.287-.07.112-.066.19c.004.051.04.09.097.116s.135.046.239.063l.008-.04a1 1 0 0 1-.23-.058c-.05-.024-.072-.048-.075-.086s.016-.092.06-.166.113-.167.205-.283c.136-.171.231-.296.325-.387s.184-.148.32-.183c.272-.071.72-.055 1.676-.035.945.017 1.461.038 1.793.119s.48.221.703.488q.216.258.195.398a.17.17 0 0 1-.072.118.5.5 0 0 1-.193.076 2 2 0 0 1-.278.025c-.14.007-.322.011-.533.016a78.97 78.97 0 0 1-3.014 0c-.437-.01-.77-.024-.883-.041l-.005.039c.12.018.45.032.888.04a79 79 0 0 0 3.55-.015q.211-.01.283-.025a.5.5 0 0 0 .209-.084.2.2 0 0 0 .088-.143c.015-.114-.056-.254-.204-.43-.225-.268-.387-.418-.726-.501s-.855-.102-1.801-.12c-.478-.01-.827-.02-1.094-.017z" transform="translate(-33.2 -32.258)scale(5.35846)"/></svg>