<svg version="1.1" viewBox="0 0 64 64" xmlns="http://www.w3.org/2000/svg">
 <defs>
  <linearGradient id="a" y1="1">
   <stop stop-color="#39ff14" offset="0"/>
   <stop stop-color="#00ff81" offset="1"/>
  </linearGradient>
 </defs>
 <path transform="translate(-.00115 -1e-6) scale(1) translate(4.9e-5 -.000953) scale(1.333)" d="m24.82 0.01465c-3.88-0.132-7.729 0.6755-11.22 2.352-1.037 0.5-1.471 1.749-0.9712 2.786 0.501 1.037 1.749 1.476 2.786 0.9814 2.887-1.394 6.062-2.059 9.264-1.95 3.086 0.106 6.108 0.9287 8.814 2.41 1.013 0.553 2.284 0.18 2.837-0.832 0.553-1.013 0.1795-2.284-0.8335-2.837-3.279-1.793-6.943-2.784-10.68-2.911zm-15.97 5.604c-1.152-0.039-2.117 0.8632-2.156 2.014-0.04 1.151 0.8632 2.118 2.014 2.158 1.152 0.039 2.117-0.8646 2.156-2.016s-0.8632-2.117-2.014-2.156zm31.1 1.06c-1.151-0.04-2.119 0.8632-2.158 2.014s0.8646 2.119 2.016 2.158 2.116-0.8636 2.156-2.016c0.039-1.151-0.8632-2.117-2.014-2.156zm-35.12 4.641c-0.7399-0.0065-1.457 0.3814-1.837 1.074-1.836 3.31-2.849 7.014-2.978 10.79-0.097 2.858 0.3168 5.712 1.216 8.426 0.366 1.095 1.551 1.687 2.644 1.321s1.682-1.548 1.315-2.638c-0.748-2.249-1.085-4.599-1.005-6.967 0.107-3.118 0.9421-6.17 2.455-8.906 0.559-1.007 0.1926-2.277-0.8174-2.836-0.3156-0.1747-0.6568-0.2592-0.9932-0.2622zm38.85 0.813c-0.3363-0.01169-0.6794 0.05879-1.002 0.2197-1.032 0.515-1.45 1.77-0.9316 2.802 1.466 2.953 2.178 6.224 2.065 9.52-0.085 2.513-0.6387 4.989-1.657 7.283-0.463 1.056 0.0192 2.289 1.075 2.751 1.056 0.463 2.289-0.0192 2.751-1.075 1.223-2.778 1.898-5.772 2.002-8.817 0.136-3.994-0.7198-7.959-2.508-11.53-0.3527-0.7095-1.056-1.13-1.796-1.156zm-36.33 23.47c-1.151-0.039-2.117 0.8646-2.156 2.016s0.8622 2.116 2.014 2.156c1.151 0.039 2.117-0.8632 2.156-2.014 0.04-1.151-0.8632-2.119-2.014-2.158zm33.41 1.14c-1.151-0.039-2.118 0.8632-2.158 2.014-0.039 1.151 0.8646 2.119 2.016 2.158s2.117-0.8646 2.156-2.016-0.8632-2.116-2.014-2.156zm-27.91 3.976c-0.7402-0.03121-1.475 0.333-1.882 1.012-0.592 0.988-0.2717 2.272 0.7163 2.864 3.489 2.082 7.449 3.25 11.51 3.388 4.474 0.153 8.907-0.948 12.79-3.186 1-0.576 1.343-1.855 0.7661-2.851s-1.857-1.342-2.856-0.7705c-3.206 1.854-6.858 2.763-10.56 2.637-3.358-0.115-6.624-1.072-9.5-2.799-0.3091-0.185-0.6465-0.2802-0.9829-0.2944z" fill="url(#a)"/>
 <path transform="translate(-.00115 -1e-6) scale(1) translate(4.9e-5 -.000953) scale(1.333)" d="m17.45 13.07c-1.187-0.01544-2.397 0.1909-3.567 0.6416-4.68 1.803-7.178 6.914-5.73 11.72 1.447 4.803 6.353 7.682 11.25 6.599 4.801-1.062 7.956-5.588 7.408-10.44h4.283v13.09a0.25 0.25 0 0 0 0.2505 0.2505h2.668a0.25 0.25 0 0 0 0.2505-0.2505v-13.09h5.755a0.25 0.25 0 0 0 0.2505-0.2505v-2.67a0.25 0.25 0 0 0-0.2505-0.249h-14.12c-1.641-3.302-4.941-5.298-8.445-5.344zm-0.1157 3.308c3.518-0.06157 6.398 2.768 6.398 6.287s-2.88 6.349-6.398 6.287c-3.432-0.06006-6.177-2.854-6.177-6.287s2.745-6.227 6.177-6.287z" fill="url(#a)"/>
</svg>
