<svg xmlns="http://www.w3.org/2000/svg" viewBox="0 0 64 64"><defs><linearGradient id="a" y1="1"><stop offset="0" stop-color="#f0f"/><stop offset="1" stop-color="#ffd42a"/></linearGradient></defs><path fill="url(#a)" d="M8.92 9.333c-.182 0-.218.083-.304.686-.19 1.33-.18 2.428.033 3.898.039.268.08.536.092.595q.003.017 0 .022v.002h-.004q-.03-.006-.197-.277c-.978-1.587-2.161-2.498-3.377-2.598-.858-.07-1.643.355-1.984 1.073-.478 1.006-.004 1.868 1.355 2.466 1.174.517 2.52.82 3.862.869.6.022.635.027.71.108.112.118.252.11.326-.017.053-.093.088-.107.422-.16 1.589-.256 3.062-1.19 3.805-2.414.23-.379.338-.72.342-1.08.003-.281-.008-.333-.114-.55a1.07 1.07 0 0 0-.566-.545 1.82 1.82 0 0 0-1.675.103c-.661.418-1.459 1.782-2.084 3.567-.203.58-.172.612-.354-.372-.234-1.264-.284-1.755-.287-2.813-.002-.943.024-1.31.148-2.052.07-.418.042-.511-.149-.511z" transform="translate(-3.172 -3.295)scale(4.138)"/><path fill="url(#a)" d="M9.748.797c-.21 0-.42.029-.563.086-.576.226-.935.78-.935 1.44v.271l-.165-.151c-.267-.246-.441-.308-.864-.308-.331 0-.376.008-.55.105a1.42 1.42 0 0 0-.58.628c-.074.158-.098.274-.108.511-.021.517.162.874.61 1.188l.247.174-.24.058c-.937.232-1.404 1.108-1.024 1.921.126.271.35.507.599.629.153.075.233.089.523.09.309 0 .366-.011.577-.111.13-.061.297-.17.372-.242l.138-.13-.023.188c-.03.24.056.655.183.888.205.375.438.574.84.715.2.07.298.081.583.072.297-.01.377-.027.588-.126.155-.072.312-.184.429-.304.199-.204.427-.63.427-.796 0-.136.038-.124.143.045.17.278.55.455.888.415.373-.045.81-.343 1.016-.695.218-.374.293-.966.172-1.372-.061-.206-.326-.526-.552-.665l-.133-.083.217-.027c.308-.038.637-.212.899-.475.371-.373.527-.81.453-1.27-.137-.86-.904-1.428-1.727-1.282-.284.05-.606.193-.812.36a3 3 0 0 1-.145.112c-.002 0 .002-.125.009-.278.03-.687-.323-1.251-.933-1.496a1.6 1.6 0 0 0-.56-.086zm.093 2.946c.466.027.872.238 1.042.57.28.55-.089 1.388-.753 1.708-.202.097-.287.117-.562.127-.282.01-.353 0-.538-.078a1.23 1.23 0 0 1-.59-.468c-.484-.715-.025-1.623.922-1.822q.245-.05.48-.036z" transform="translate(-3.172 -3.295)scale(4.138)"/></svg>