<svg xmlns="http://www.w3.org/2000/svg" viewBox="0 0 64 64"><defs><linearGradient id="a" x2="0" y2="1"><stop offset="0" stop-color="#4498ec"/><stop offset=".987" stop-color="#00fdfd"/></linearGradient></defs><path fill="url(#a)" d="M18.48 0C8.609 0 .55 8.061.55 17.93v28.13C.55 55.931 8.611 64 18.48 64h26.05l-5.58-5.58H18.48A12.317 12.317 0 0 1 6.12 46.06V17.93c0-6.861 5.503-12.36 12.36-12.36h27.05c6.862 0 12.36 5.499 12.36 12.36v26.88c.885-.468 1.86-.765 2.842-.785.894-.024 1.853.184 2.728.578v-26.67c0-9.871-8.062-17.93-17.93-17.93z" transform="translate(-.16)"/><path fill="url(#a)" d="M22.84 18.96a2.584 2.584 0 0 0-2.475 2.582v20.91l.027.387a2.584 2.584 0 0 0 3.848 1.85l18.09-10.45.371-.252a2.584 2.584 0 0 0-.37-4.225l-18.09-10.44-.352-.178a2.6 2.6 0 0 0-1.05-.176z" transform="translate(-.16)"/><path fill="url(#a)" d="m50.46 33.99.002.006c-.848 0-1.56.276-2.133.861-.573.563-.855 1.273-.855 2.127v16.54l-5.225-5.217a3 3 0 0 0-2.099-.828c-.806 0-1.487.293-2.04.89q-.891.82-.891 2.063t.89 2.2l10.25 10.25c.299.292.623.52.983.673.362.14.733.218 1.115.218s.755-.078 1.115-.218c.362-.152.692-.38.988-.672l10.32-10.32q.891-.899.89-2.104.001-1.203-.89-2.1c-.551-.599-1.24-.876-2.068-.85a3.12 3.12 0 0 0-2.139.85l-5.219 5.156v-16.54q-.002-1.282-.863-2.127c-.573-.585-1.284-.862-2.133-.862z" transform="translate(-.16)"/></svg>