<svg xmlns="http://www.w3.org/2000/svg" style="isolation:isolate" viewBox="0 0 64 64"><linearGradient id="a" x1=".986" x2="-.011" y1=".677" y2=".527" gradientTransform="matrix(46 0 0 46 1 1)" gradientUnits="userSpaceOnUse" transform="translate(-1.391 -1.391)scale(1.391)"><stop offset="0" stop-color="#43e97b"/><stop offset=".978" stop-color="#38f9d7"/></linearGradient><path fill="url(#a)" fill-rule="evenodd" d="M26.95 17H41v-3H26.17a10 10 0 0 0-9.168-6c-5.523 0-10 4.477-10 10s4.477 10 10 10 10-4.477 10-10q0-.506-.049-1zm8.049 6.91V17h-3v6.91h-2.09c-1.656 0-3 1.344-3 3v17.25c0 1.656 1.05 2.16 2.343 1.126l15-12a2 2 0 0 0-2.5-3.12l-10.06 8.045c-.431.345-.781.177-.781-.375v-8.93a1 1 0 0 1 1-1h13.09a2 2 0 0 0 2-2V5.996c0-2.76-2.24-5-5-5h-36c-2.76 0-5 2.24-5 5v36c0 2.76 2.24 5 5 5h16.09a2 2 0 0 0 0-4H8.001c-1.656 0-3-1.344-3-3v-32c0-1.656 1.344-3 3-3h32c1.656 0 3 1.344 3 3v13.91a2 2 0 0 1-2 2h-6zm-18-12.91a7 7 0 1 1 0 14 7 7 0 0 1 0-14" transform="translate(-1.391 -1.391)scale(1.391)"/></svg>