<svg xmlns="http://www.w3.org/2000/svg" viewBox="0 0 64 64"><defs><linearGradient id="a" y2="1"><stop offset="0" stop-color="#00fffa"/><stop offset="1" stop-color="#0078ff"/></linearGradient><linearGradient id="b" x2="0" y2="1"><stop offset="0" stop-color="#ef02ff"/><stop offset="1" stop-color="#008dff"/></linearGradient></defs><path fill="url(#a)" d="M38.74 15.48a2.97 2.97 0 0 0-2.449 1.324 2.9 2.9 0 0 0-.465 1.24 2.96 2.96 0 0 0 1.3 2.867c.23.157.484.278.751.36a2.97 2.97 0 0 0 3.356-1.19 2.967 2.967 0 0 0-.832-4.108 2.95 2.95 0 0 0-1.66-.494zm-17.83.742q-.2 0-.398.002a29 29 0 0 0-4.34.381c-.15.021-.304.05-.455.076-.057.012-.115.02-.17.033q-1.491.272-2.945.702-.314.087-.625.191a11 11 0 0 0-.354.111c-.68.225-1.342.472-2.002.74a30 30 0 0 0-3.453 1.7c.182 1.57.519 3.118 1.008 4.62a23 23 0 0 0 1.084 2.724l.006.01a22 22 0 0 0 1.873 3.23q.365.526.76 1.03a22.2 22.2 0 0 0 8.578 6.67q.03-.026.058-.052c.042-.041.09-.084.131-.125a23 23 0 0 0 2.152-2.316q.084-.105.166-.211l.05-.06.03-.042q.023-.03.05-.06c.096-.13.2-.262.3-.397a23 23 0 0 0 2.287-3.838q.663-1.404 1.129-2.885.05-.15.102-.31a.3.3 0 0 1 .017-.06l-.002-.003q.384-1.29.611-2.615c.01-.049.018-.101.028-.146q.03-.175.053-.346c.133-.862.212-1.69.248-2.486.003-.12.007-.236.007-.356q.037-1.066-.035-2.133V20c-.005-.113-.016-.232-.023-.343a25 25 0 0 0-.29-2.32q-.031-.164-.06-.319l-.023-.137a2 2 0 0 1-.03-.13 29.3 29.3 0 0 0-5.457-.528zm13.94 2.434c-1.731.881-4.339 2.05-6.508 2.688.033.625.055 1.264.03 1.955q-.003.174-.008.35v.02c-.01.2-.03.409-.045.613 2.854-.63 6.167-1.738 8.262-2.52a4.67 4.67 0 0 1-1.73-3.106zm-17.57 3.492a2.22 2.22 0 0 1 1.455 3.897l.766 2.77-2.961.008.012-.018V26.47a2.222 2.222 0 0 1 .729-4.321z" transform="translate(-11.066 -10.384)scale(1.794)"/><path fill="url(#b)" d="M25.26 8.816a16.3 16.3 0 0 0-5.39 1.074c.802.528 1.544 1.618 2.195 2.37q.479-.132.967-.223c3.67-.73 7.085-.326 9.975 1.567l2.742-1.222.074-.036a16.22 16.22 0 0 0-10.56-3.53zm-9.953 1.488a6 6 0 0 0-.978.074c-3.046.496-5.198 3.352-5.477 6.801.069-.03.136-.065.205-.094h.007a33 33 0 0 1 1.971-.732c.458-2.063 1.8-3.664 3.623-3.963a3.913 3.913 0 0 1 1.85.156c.717.235 1.384.661 1.961 1.246q.164.163.309.346c.172.201.328.427.472.662.416-.022.832-.06 1.246-.064.344-.005.694.019 1.04.027-.256-.554-.54-1.085-.891-1.549a7.572 7.572 0 0 0-2.543-2.196 6.2 6.2 0 0 0-2.795-.714zm21.61 3-.033.018c-.242.116-.477.232-.719.347a52 52 0 0 0-.746.328q-.476.213-.963.4c-.198.079-.404.159-.605.243-.27.107-.55.199-.825.3-.279.09-.558.199-.845.288-1.14.375-2.33.693-3.55.978-.251.055-.51.102-.765.15l.016.07.011.058.004.013.002.012.002.004v.002l.012.04.016.071c0 .011.007.051.021.135l.05.258.007.031.002.03c.082.482.14 1.646.203 2.198.36-.118.72-.232 1.072-.359a40 40 0 0 0 3.568-1.508c.283-.128.56-.285.834-.414.273-.149.542-.274.806-.42.354-.2.702-.39 1.04-.584q.248-.143.486-.287.362-.223.717-.436c.233-.144.458-.302.683-.445q.12-.077.23-.154zm4.902 8.191-.271.14q-.353.186-.704.376c-.228.12-.452.236-.683.34l-1.42.658-2.848 1.314-.71.328c-.23.107-.482.195-.72.289-1.883.792-4.395 1.382-6.707 1.902-.089.777-.314 1.33-.51 2.053-.078.248-.168.482-.252.72 2.524.098 7.154-.047 11.44-3.647.168 1.07-1.705 3.654-2.39 4.477-2.522 3.037-6.927 3.644-11.06 3.522a25 25 0 0 1-1.368 2.086l-.006.005c-.114.153-.216.283-.297.393l-.029.04-.03.032-.083.102-.043.058-.004.004v.002l-.002.002-.125.16-.008.014-.012.016c-.339.418-.678.798-1.014 1.164.407.089.824.143 1.232.213.425.092.86.105 1.301.133.437.02.867.074 1.307.035l1.324-.059 1.27-.185.315-.043c.063-.013.087-.01.178-.032l.158-.039.635-.156c.208-.054.422-.097.632-.164l.616-.209.613-.21.6-.265.595-.26c.194-.097.38-.2.574-.302l.577-.309c.186-.104.36-.232.544-.345a10 10 0 0 0 1.06-.743c.344-.262.692-.519 1.001-.824.324-.29.648-.575.922-.89l.436-.46.107-.122.116-.127.203-.252c.255-.34.538-.665.763-1.023l.36-.534c.113-.182.216-.37.324-.554.229-.37.409-.748.592-1.123.19-.364.363-.798.504-1.178l.218-.598c.064-.2.121-.406.184-.611l.174-.614.129-.617c.094-.402.15-.843.207-1.258.06-.425.066-.827.103-1.266.015-.413-.004-.846-.011-1.26z" transform="translate(-11.066 -10.384)scale(1.794)"/></svg>