<svg xmlns="http://www.w3.org/2000/svg" viewBox="0 0 64 64"><defs><linearGradient id="a" x2="0" y1="1"><stop offset="0" stop-color="#ff5f00"/><stop offset="1" stop-color="#ff00fa"/></linearGradient><linearGradient id="c" x2="0" y2="1"><stop offset="0" stop-color="#00fffa"/><stop offset="1" stop-color="#0078ff"/></linearGradient></defs><path fill="url(#a)" d="M24.57 1.725c-3.771 0-6.757-.002-9.164.195-2.465.2-4.551.625-6.453 1.592a16.4 16.4 0 0 0-7.17 7.17c-.97 1.9-1.39 3.988-1.59 6.453-.197 2.407-.197 5.393-.197 9.164v11.28c0 3.235-.002 5.898.123 8.107.011.24.028.475.047.696l.005.052.022.31c.2 2.466.623 4.55 1.59 6.456a16.4 16.4 0 0 0 7.89 7.506q.549.238 1.12.418c1.398.456 2.918.698 4.613.836 2.407.197 5.393.195 9.164.195h9.092a2.59 2.59 0 0 0 0-5.178h-8.977c-3.91 0-6.69-.004-8.861-.184-2.141-.172-3.474-.501-4.523-1.037a11.22 11.22 0 0 1-4.902-4.904c-.553-1.088-.886-2.47-1.06-4.734l-.007-.12-.033-.526v-.203a1 1 0 0 1 .08-.256l.014-.02.082-.115c.103-.138.246-.31.511-.627l.217-.256c1.488-1.782 2.494-2.988 3.344-3.844.829-.839 1.31-1.136 1.666-1.268a4.32 4.32 0 0 1 2.97 0c.355.132.835.429 1.671 1.268.846.857 1.857 2.063 3.346 3.844a5.456 5.456 0 0 0 8.121.297l10.37-10.74c1.416-1.468 2.368-2.455 3.162-3.156.774-.677 1.22-.917 1.56-1.03a4.3 4.3 0 0 1 2.73 0c.448.151 1.037.507 2.267 1.685a2.59 2.59 0 1 0 3.586-3.729c-1.319-1.27-2.609-2.334-4.223-2.873a9.5 9.5 0 0 0-5.994 0c-1.27.425-2.323 1.166-3.338 2.057a62 62 0 0 0-3.4 3.365l-10.45 10.82a.276.276 0 0 1-.412-.013l-.074-.088c-1.395-1.671-2.544-3.058-3.572-4.096-1.06-1.07-2.177-1.964-3.568-2.475a9.5 9.5 0 0 0-6.521 0c-1.392.51-2.51 1.404-3.568 2.475a28 28 0 0 0-.694.728v-10.8c0-3.909.003-6.687.182-8.859.173-2.14.504-3.474 1.04-4.523a11.22 11.22 0 0 1 4.901-4.904c1.053-.535 2.385-.86 4.523-1.037 2.175-.176 4.953-.183 8.861-.183h11.04c3.912 0 6.69.004 8.861.183 2.141.173 3.474.502 4.523 1.037a11.22 11.22 0 0 1 4.902 4.904c.535 1.053.863 2.385 1.04 4.523.175 2.175.18 4.951.18 8.86a2.59 2.59 0 0 0 5.18 0v-.114c0-3.771.002-6.757-.195-9.164-.2-2.465-.625-4.552-1.592-6.455a16.4 16.4 0 0 0-7.168-7.168c-1.906-.97-3.988-1.392-6.453-1.592-2.407-.197-5.393-.195-9.164-.195z" transform="translate(0 .003)"/><path fill="url(#c)" d="M16.47 13.25a3.22 3.22 0 1 0 1.684 5.967l1.316 1.312a.75.75 0 1 0 1.059-1.059l-1.312-1.316a3.22 3.22 0 0 0-2.746-4.904zm-.117 1.504a1.72 1.72 0 0 1 1.838 1.717 1.72 1.72 0 0 1-3.44 0 1.72 1.72 0 0 1 1.602-1.717" transform="translate(-7.77 -9.494)scale(3.453)"/><path fill="#ff0" d="M23.307 12.087a9.496 9.496 0 0 0 0 18.992 9.496 9.496 0 0 0 0-18.992m-.297 5.187a4.316 4.316 0 0 1 4.613 4.309 4.316 4.316 0 0 1-8.632 0 4.316 4.316 0 0 1 4.02-4.31"/></svg>