<svg xmlns="http://www.w3.org/2000/svg" viewBox="0 0 64 64"><defs><linearGradient id="a" y1="1"><stop offset="0" stop-color="#ff00b5"/><stop offset="1" stop-color="#ff0050"/></linearGradient></defs><path fill="url(#a)" d="M14.15 6.998a5 5 0 0 0-.58.006h-.002c-.816.052-1.548.53-1.686.598-.44-.126-.94-.39-1.525-.489-2.028-.344-3.744.205-4.606.803-1.13.783-1.096 1.664-1.19 2.029-.058.226-.57.644-.564.937.01.383.25.506.25.506.215-.017.536-.17.81-.283.408-.167.44-.26 1.553-.426a11 11 0 0 1 1.453-.101c.156.33.544 1.009 1.217 1.334.4.184 1.002.266 1.268.318l.777.115v-.314h-.002s-.651-.27-1.053-.672c-.169-.17-.171-.372-.218-.574.618.116 1.17.204 2.475.703a8 8 0 0 1 2.018 1.127l.002.002h.002l.004.004v-.314l-.004-.002a7.3 7.3 0 0 0-2.268-1.756c-1.17-.577-2.13-.862-3.461-.926-1.382-.067-2.3.092-2.4.11.118-.236.36-.539 1.004-.84.954-.449 2.456-.524 4.18-.085 2.435.622 3.265 1.68 4.312 2.773 1.114 1.163 2.077 3.117 2.078 3.12l.002.001.002.004v-.316l-.008-.024a11.5 11.5 0 0 0-.826-2c-.645-1.189-1.198-2.039-2.121-2.902-.645-.48-1.3-1.136-1.188-1.418.29-.381 1.075-.614 1.078-.615h.002v-.314s-.279-.095-.786-.12z" transform="translate(-18.268 -17.593)scale(4.571)"/></svg>