<svg version="1.1" viewBox="0 0 64 64" xmlns="http://www.w3.org/2000/svg" xmlns:xlink="http://www.w3.org/1999/xlink">
 <defs>
  <linearGradient id="d" x1="6.35" x2="6.615" y1="9.26" y2="-.529" gradientTransform="matrix(1.234 0 0 1.069 -1.486 -1.588)" gradientUnits="userSpaceOnUse">
   <stop stop-color="#c62aff" offset="0"/>
   <stop stop-color="#0ecffc" offset=".483"/>
   <stop stop-color="#40ffc4" offset=".996"/>
   <stop offset="1"/>
  </linearGradient>
  <linearGradient id="c" x1="-1.666" x2="8.994" y1="8.659" y2="9.01" gradientTransform="translate(0 -.758)" gradientUnits="userSpaceOnUse" xlink:href="#a"/>
  <linearGradient id="a" x2="1" y1=".5" y2=".5" gradientTransform="matrix(30 0 0 30 40.12 713)" gradientUnits="userSpaceOnUse">
   <stop stop-color="#5433ff" offset="0"/>
   <stop stop-color="#0bbdff" offset=".517"/>
   <stop stop-color="#a5fecb" offset=".983"/>
  </linearGradient>
  <linearGradient id="b" x1="-7.35" x2="11.93" y1="8.712" y2="9.64" gradientTransform="translate(0 -.758)" gradientUnits="userSpaceOnUse" xlink:href="#a"/>
 </defs>
 <path transform="translate(.00239) scale(5.039)" d="m10.31 5.063-.602.297q.206.39.315.815a.31.31 0 0 0 .252.231l.978.165a.06.06 0 0 1 .052.061v.981h-.003a.06.06 0 0 1-.05.061l-.98.163a.31.31 0 0 0-.251.23 3.7 3.7 0 0 1-.406.977.32.32 0 0 0 .014.343l.576.81a.064.064 0 0 1-.007.08l-.694.694a.06.06 0 0 1-.045.019.06.06 0 0 1-.035-.012l-.808-.575a.32.32 0 0 0-.343-.014 3.7 3.7 0 0 1-.976.405.31.31 0 0 0-.231.252l-.165.979a.06.06 0 0 1-.061.05h-.981a.06.06 0 0 1-.061-.05l-.163-.98a.31.31 0 0 0-.23-.251 3.9 3.9 0 0 1-.956-.391.3.3 0 0 0-.159-.042.3.3 0 0 0-.18.058l-.817.58a.1.1 0 0 1-.035.012.06.06 0 0 1-.044-.019l-.695-.694a.06.06 0 0 1-.007-.08l.574-.803A.32.32 0 0 0 3.1 9.07a3.7 3.7 0 0 1-.41-.974.32.32 0 0 0-.252-.23l-.986-.169a.06.06 0 0 1-.05-.06v-.981c0-.03.02-.057.05-.061l.972-.163a.32.32 0 0 0 .254-.233c.073-.29.18-.573.32-.839l-.636-.125a7 7 0 0 0-.24.61l-.775.13a.69.69 0 0 0-.575.68v.982c0 .338.242.624.575.68l.792.135c.082.26.19.515.32.757L2 9.848a.69.69 0 0 0 .075.888l.694.694a.685.685 0 0 0 .886.075l.654-.466q.355.184.736.303l.131.783a.69.69 0 0 0 .68.575h.984a.69.69 0 0 0 .68-.575l.133-.783q.396-.123.76-.315l.645.462a.684.684 0 0 0 .888-.075l.695-.695a.69.69 0 0 0 .074-.887l-.462-.648a4.4 4.4 0 0 0 .315-.76l.783-.13a.69.69 0 0 0 .576-.68v-.982a.68.68 0 0 0-.57-.68l-.784-.133a12 12 0 0 0-.263-.756" fill="url(#b)" style="isolation:isolate"/>
 <path transform="translate(.00239) scale(5.039)" d="m8.709 6.333-.787.399c.372.734.19 1.621-.442 2.149a1.756 1.756 0 0 1-2.193.052 1.76 1.76 0 0 1-.546-2.125l-.804-.36a2.65 2.65 0 0 0 .817 3.188 2.65 2.65 0 0 0 3.292-.078 2.65 2.65 0 0 0 .664-3.224z" fill="url(#c)"/>
 <path transform="translate(.00239) scale(5.039)" d="M4.506 0c-.427 0-.561.218-.561.486V3.94H2.753c-1.032 0-1.317.544-.635 1.216l2.997 2.952a1.767 1.767 0 0 0 2.47 0l2.997-2.952c.682-.671.397-1.216-.635-1.216H8.755L8.762.486C8.763.217 8.511 0 8.202 0S7.64.217 7.64.486L7.633 4.91h1.102c.206 0 .27.114.142.255L6.58 7.695a.307.307 0 0 1-.463 0L3.82 5.165c-.128-.14-.064-.254.143-.254h1.102V.486C5.065.218 5.03 0 4.504 0z" fill="url(#d)" style="isolation:isolate"/>
</svg>
