<svg xmlns="http://www.w3.org/2000/svg" viewBox="0 0 64 64"><defs><linearGradient id="a" x2="0" y2="1"><stop offset="0" stop-color="#f70fa8"/><stop offset="1" stop-color="#f40631"/></linearGradient></defs><path fill="url(#a)" d="M19.2 8.537a15.3 15.3 0 0 0-4.201.568l-.03.008c-3.565 1.052-6.35 3.743-8.466 7.414-2.114 3.671-3.67 8.39-4.938 14.05v.002C.267 36.381-.3 41.61.159 45.87c.229 2.125.712 4.022 1.607 5.631s2.288 2.93 4.059 3.543v.002c2.349.813 4.782.322 6.73-.824s3.582-2.86 5.13-4.787l.003-.004c1.466-1.829 2.894-2.87 5.047-3.59s5.1-1.049 9.262-1.049 7.06.33 9.17 1.047c2.109.717 3.503 1.75 4.982 3.594 1.558 1.942 3.228 3.65 5.186 4.787s4.366 1.641 6.688.85c1.846-.631 3.33-1.94 4.268-3.568.937-1.63 1.406-3.543 1.598-5.664.384-4.242-.325-9.414-1.615-15.25-1.254-5.668-2.81-10.39-4.93-14.06-2.118-3.671-4.91-6.357-8.471-7.41l-.008-.002a14.3 14.3 0 0 0-4.076-.573c-4.428.002-6.887 2.133-12.79 2.133-5.905 0-8.366-2.13-12.79-2.133zm-.012 4.266h.012c2.731 0 5.94 2.133 12.8 2.133s10.06-2.133 12.8-2.133h.01c.97-.005 1.935.131 2.865.402 2.269.672 4.21 2.383 5.98 5.45 1.772 3.068 3.259 7.427 4.459 12.85 1.243 5.62 1.842 10.51 1.53 13.94-.155 1.713-.537 3.037-1.044 3.92-.507.882-1.062 1.355-1.95 1.657-1.052.359-1.937.211-3.163-.502-1.227-.713-2.63-2.058-4.004-3.77-1.858-2.317-4.104-4-6.938-4.963s-6.17-1.272-10.54-1.272-7.746.31-10.61 1.27c-2.866.96-5.157 2.637-7.023 4.967-1.385 1.722-2.766 3.075-3.967 3.781-1.202.707-2.052.856-3.17.47-.705-.246-1.228-.684-1.73-1.589C5 48.51 4.6 47.142 4.413 45.402c-.376-3.48.094-8.38 1.328-13.89 1.213-5.42 2.702-9.782 4.47-12.85 1.766-3.063 3.698-4.773 5.964-5.447a11 11 0 0 1 3.025-.404z" transform="translate(-.001)"/><path fill="url(#a)" d="M31.99 16.59a3.06 3.06 0 0 0-2.168.898 3.08 3.08 0 0 0-.906 2.172v9.21h-3.191a2 2 0 0 0-1.102.333 2 2 0 0 0-.735.887 2 2 0 0 0-.109 1.146 2 2 0 0 0 .545 1.018l6.27 6.268a1.97 1.97 0 0 0 1.398.58l-.002.002a1.97 1.97 0 0 0 1.4-.582l6.268-6.268a1.98 1.98 0 0 0 .435-2.164 2 2 0 0 0-.734-.886 2 2 0 0 0-1.102-.334h-3.19v-9.21a3.07 3.07 0 0 0-3.07-3.07z" transform="translate(-.001)"/></svg>