<svg xmlns="http://www.w3.org/2000/svg" viewBox="0 0 64 64"><path fill="#0f0" d="M37.737.046 25.624.164C18.841.23 14.941.085 11.226 2.024a15.76 15.76 0 0 0-6.815 6.95c-1.866 3.753-1.637 7.647-1.57 14.43l.174 17.765c.067 6.784-.079 10.684 1.86 14.398a15.77 15.77 0 0 0 6.957 6.816c3.753 1.865 7.648 1.637 14.43 1.57l12.113-.119c6.784-.067 10.684.079 14.399-1.86a15.74 15.74 0 0 0 6.807-6.95c1.866-3.753 1.644-7.655 1.577-14.438l-.181-17.757c-.068-6.784.087-10.684-1.854-14.398a15.77 15.77 0 0 0-6.956-6.816C48.414-.25 44.519-.022 37.737.045zm.07 7.263c6.784-.067 9.67.089 11.128.813a8.48 8.48 0 0 1 3.746 3.667c.752 1.44.966 4.328 1.033 11.111l.174 17.765c.067 6.784-.09 9.666-.813 11.12a8.48 8.48 0 0 1-3.666 3.746c-1.441.752-4.32.965-11.104 1.033l-12.113.118c-6.783.068-9.67-.089-11.127-.812a8.5 8.5 0 0 1-3.746-3.667c-.752-1.441-.965-4.32-1.033-11.103l-.174-17.766c-.067-6.783.09-9.67.813-11.128a8.46 8.46 0 0 1 3.667-3.738c1.44-.752 4.32-.973 11.103-1.04z"/><path fill="#0f0" fill-rule="evenodd" d="M28.519 9.359c-1.48 0-2.689 1.208-2.689 2.689s1.208 2.689 2.689 2.689h5.386c1.48 0 2.69-1.209 2.69-2.69s-1.21-2.688-2.69-2.688zm0 9.092c-1.48 0-2.689 1.217-2.689 2.698s1.208 2.689 2.689 2.689h5.386a2.695 2.695 0 0 0 2.69-2.69 2.7 2.7 0 0 0-2.69-2.697zm2.437 9.408a4.03 4.03 0 0 0-3.904 3.004v.016l-2.973 7.074a8.3 8.3 0 0 0-.268 2.074c0 4.442 3.634 8.035 8.075 8.035s8.076-3.594 8.076-8.035c0-.694-.092-1.405-.269-2.074l-2.965-7.09a4.034 4.034 0 0 0-3.895-3.004zm-1.088 10.11h4.037c1.11 0 2.019.909 2.019 2.019s-.909 2.019-2.019 2.019h-4.037c-1.11 0-2.02-.909-2.02-2.019s.91-2.019 2.02-2.019" clip-rule="evenodd"/></svg>