<svg xmlns="http://www.w3.org/2000/svg" viewBox="0 0 64 64"><defs><linearGradient id="a" x1="1" x2="0" y1="1"><stop offset="0" stop-color="#fd0f00"/><stop offset="1" stop-color="#ffe539"/></linearGradient></defs><path fill="url(#a)" d="M11.8 1.664a1.3 1.3 0 0 0-.666.186c-.552.344-.528.807.1 1.904.226.395.412.877.412.91v.006l-.004.006-.004.005c-.022.025-.088.043-.166.043-.123 0-.405-.348-.951-1.178C9.69 2.283 9.45 2.082 8.904 2.192c-.411.083-.88.402-1.035.703-.178.348-.104.524.728 1.732.512.743.652 1.01.573 1.09-.058.06-.134.106-.17.106s-.503-.6-1.035-1.33c-.341-.467-.607-.81-.805-1.037-.341-.465-.666-.322-1.084-.168-.3.148-.603.362-.752.559-.351.463-.299.755.277 1.564.277.39.69.935.914 1.215.395.488.492.83.254.91-.139.045-.068.126-2.719-2.99-1.64-1.93-2.412-2.768-2.606-2.836-.363-.128-.757.038-1.144.484-.574.658-.642.542 2.584 4.473 1.583 1.93 2.92 3.56 2.97 3.625q.035.049.036.07v.006l-.002.002v.002l-.002.002h-.002l-.001.002H5.88l-.002.002c-.077.028-.526-.196-1.201-.421-.73-.244-.994-.29-1.471-.26-.79.066-1.15.502-1.166 1.104-.012.419.389.821.88 1.072.282.144 3.665 1.414 6.226 2.186 1.119.337 1.565.357 1.92.082.566-.438 4.196-3.511 4.56-3.861.479-.46.481-.582.058-1.812-.926-2.695-2.554-6.042-3.287-6.623-.152-.121-.37-.181-.598-.18z" transform="matrix(4 0 0 4 .019 .009)"/></svg>