<svg xmlns="http://www.w3.org/2000/svg" viewBox="0 0 64 64"><defs><linearGradient id="a" x1="1" x2="0" y1="1"><stop offset="0" stop-color="#9c33c4"/><stop offset=".5" stop-color="#ff0a4c"/><stop offset="1" stop-color="#f79a00"/></linearGradient><linearGradient id="b" x2="0" y2="1"><stop offset="0" stop-color="#ff4000"/><stop offset="1" stop-color="#ffa200"/></linearGradient></defs><path fill="url(#a)" d="M3 9a1 1 0 0 0-1 1v5c0 3.854 3.146 7 7 7h2c2.802 0 5.23-1.662 6.346-4.05 2.266.366 4.54-1.33 4.65-3.763.095-2.1-1.463-3.8-3.363-4.123a3.944 3.944 0 0 0-.633-.057V10a1 1 0 0 0-1-1zm1 2h12v1.365A7.7 7.7 0 0 0 13.5 12c-1.601-.017-3.05.386-4.111 1.207-.596.46-1.637.806-2.877.791h-.024c-1.003.012-1.876-.211-2.488-.541zm14 .994c1.111-.019 2.053.886 1.998 2.1-.053 1.174-1.009 1.975-2.071 1.918A7 7 0 0 0 18 15zm-4.512 2.003h.024c1.003-.012 1.876.212 2.488.542v.46a5 5 0 0 1-.216 1.466A4.98 4.98 0 0 1 11 20H9a4.984 4.984 0 0 1-4.96-4.355c.748.243 1.58.36 2.46.351 1.6.017 3.05-.386 4.11-1.207.596-.46 1.638-.805 2.878-.79z" transform="matrix(3.2 0 0 3.2 -6.399 -6.398)"/><path fill="url(#b)" d="M8.031 2a1 1 0 0 0-.615.187A3.4 3.4 0 0 0 6.004 5a3.4 3.4 0 0 0 1.412 2.812 1 1 0 0 0 1.396-.229 1 1 0 0 0-.23-1.396A1.4 1.4 0 0 1 8 5.02v-.043c-.01-.462.208-.896.584-1.166a1 1 0 0 0 .229-1.396A1 1 0 0 0 8.03 2zm4 0a1 1 0 0 0-.615.187A3.4 3.4 0 0 0 10.004 5a3.4 3.4 0 0 0 1.412 2.812 1 1 0 0 0 1.396-.229 1 1 0 0 0-.228-1.396A1.4 1.4 0 0 1 12 5.02v-.043c-.01-.462.208-.896.584-1.166a1 1 0 0 0 .228-1.396 1 1 0 0 0-.78-.416z" transform="matrix(3.2 0 0 3.2 -6.399 -6.398)"/></svg>