<svg xmlns="http://www.w3.org/2000/svg" viewBox="0 0 64 64"><defs><linearGradient id="d" y1="1"><stop offset="0" stop-color="#fda700"/><stop offset="1" stop-color="#ffde00"/></linearGradient><linearGradient id="b" x2="0" y1="1"><stop offset="0" stop-color="#01ff01"/><stop offset="1" stop-color="#1bc100"/></linearGradient><linearGradient id="a" y1="1"><stop offset="0" stop-color="#006adb"/><stop offset=".25" stop-color="#00a6f3"/><stop offset=".5" stop-color="#ad6ccc"/><stop offset=".75" stop-color="#ec45ff"/><stop offset="1" stop-color="#982fff"/></linearGradient></defs><path fill="url(#a)" d="M4.631-.838C.732-.838-2.5 2.362-2.5 6.26v45.95c0 3.898 3.232 7.096 7.131 7.096h52.5c3.899 0 7.131-3.198 7.131-7.096V6.26c0-3.898-3.232-7.098-7.131-7.098zm0 4.998h52.5c1.234 0 2.133.906 2.133 2.1v45.95c0 1.194-.898 2.096-2.133 2.096h-52.5c-1.234 0-2.133-.902-2.133-2.096V6.26c0-1.194.898-2.1 2.133-2.1" transform="translate(2.396 3.975)scale(.9586)"/><path fill="url(#b)" d="M7.443 10.49a.9.9 0 0 0-.525.182c-.012.008-.023.012-.034.021l-.027.025-.004.004-.05.051v.006a.67.67 0 0 0-.173.58v7.223c.002.406.37.734.827.733h4.95c.457 0 .825-.327.827-.733V11.24c.001-.407-.368-.737-.826-.736H7.586a1 1 0 0 0-.143-.014zm11.03 0a.9.9 0 0 0-.525.182c-.012.008-.025.012-.036.021q-.013.012-.025.025l-.004.004-.053.051v.006a.67.67 0 0 0-.171.58v7.223c.001.406.37.734.826.733h4.95c.457 0 .827-.327.829-.733V11.24c0-.407-.37-.737-.828-.736h-4.82a1 1 0 0 0-.143-.014zm11.28 0a1.103 1.099 0 0 0-1.086 1.115v6.594a1.104 1.1 0 1 0 2.207 0v-6.594a1.103 1.099 0 0 0-1.121-1.115m6.359 0a.9.9 0 0 0-.525.182c-.012.008-.023.012-.034.021l-.027.025-.004.004q-.026.025-.05.051v.006a.67.67 0 0 0-.174.58v7.223c.001.406.372.734.828.733h4.949c.456 0 .826-.327.828-.733V11.24c0-.407-.37-.737-.828-.736h-4.82a1 1 0 0 0-.143-.014zm11.28 0a1.103 1.099 0 0 0-1.084 1.115v6.594a1.103 1.099 0 0 0 2.205 0v-6.594a1.103 1.099 0 0 0-1.119-1.115 1.103 1.099 0 0 0-.002 0m-38.58 2.205h2.207v4.412H8.812zm11.03 0h2.207v4.412h-2.207zm17.65 0h2.207v4.412h-2.207zm-30.06 11.03a.9.9 0 0 0-.525.18q-.019.01-.036.021-.013.013-.025.028l-.004.003-.053.051v.004a.68.68 0 0 0-.171.582v7.223c0 .406.372.734.828.733h4.949c.456 0 .826-.327.828-.733v-7.342c0-.407-.37-.74-.828-.738h-4.82a1 1 0 0 0-.143-.012m11.28 0a1.103 1.099 0 0 0-1.084 1.115v6.594a1.103 1.099 0 1 0 2.205 0V24.84a1.103 1.099 0 0 0-1.121-1.115m6.361 0a.9.9 0 0 0-.525.18q-.019.01-.036.021-.013.013-.025.028l-.006.003q-.026.025-.05.051v.004a.68.68 0 0 0-.173.582v7.223c.002.406.37.734.827.733h4.95c.457 0 .825-.327.827-.733v-7.342c.001-.407-.368-.74-.826-.738h-4.822a1 1 0 0 0-.14-.012m11.03 0a.9.9 0 0 0-.525.18q-.019.01-.036.021-.013.013-.025.028l-.004.003-.053.051v.004a.68.68 0 0 0-.171.582v7.223c0 .406.372.734.828.733h4.949c.456 0 .826-.327.828-.733v-7.342c0-.407-.37-.74-.828-.738h-4.82a1 1 0 0 0-.143-.012m11.03 0a.9.9 0 0 0-.525.18q-.018.01-.034.021-.014.013-.027.028l-.004.003q-.026.025-.05.051v.004a.68.68 0 0 0-.173.582v7.223c.002.406.37.734.827.733h4.95c.457 0 .825-.327.827-.733v-7.342c.001-.407-.368-.74-.826-.738h-4.822a1 1 0 0 0-.143-.012M8.803 25.93h2.205v4.412H8.803zm17.65 0h2.205v4.412h-2.205zm11.03 0h2.205v4.412h-2.205zm11.03 0h2.207v4.412h-2.207zM7.423 36.96a.9.9 0 0 0-.525.182c-.012.008-.025.012-.036.021l-.025.025-.004.006-.053.051v.004a.68.68 0 0 0-.171.582v7.221c0 .406.372.734.828.732h4.949c.456.001.826-.326.828-.732v-7.34c0-.407-.37-.74-.828-.738h-4.82a1 1 0 0 0-.143-.012zm11.28 0a1.103 1.099 0 0 0-1.086 1.117v6.592a1.104 1.1 0 1 0 2.207 0v-6.592a1.103 1.099 0 0 0-1.121-1.117m6.617 0a1.103 1.099 0 0 0-1.084 1.117v6.592a1.103 1.099 0 1 0 2.205 0v-6.592a1.103 1.099 0 0 0-1.119-1.117 1.103 1.099 0 0 0-.002 0M8.8 39.167h2.205v4.412H8.8z" transform="translate(2.396 3.975)scale(.9586)"/><path fill="url(#d)" d="m31.16 49.69-1.457 3.875c-.337.895-.502 1.342-.412 1.67a1.04 1.04 0 0 0 .543.656c.306.152.779.067 1.72-.097l4.079-.706a5.3 5.3 0 0 0-1.23-3.539 5.3 5.3 0 0 0-2.022-1.508 5.3 5.3 0 0 0-1.221-.351z" opacity=".5" transform="translate(2.396 3.975)scale(.9586)"/><path fill="url(#d)" d="M50.36 36.66a1.66 1.66 0 0 0-1.043.379l-10.44 8.656a1.656 1.656 0 0 0 2.109 2.549l10.44-8.656a1.657 1.657 0 0 0-.41-2.797 1.7 1.7 0 0 0-.66-.131z" transform="translate(2.396 3.975)scale(.9586)"/><path fill="url(#d)" d="M55.46 25.48a5.7 5.7 0 0 0-3.59 1.307l-3.801 3.154-.045.035-13.33 11.05c-.924.764-1.527 1.27-2.045 1.854a10 10 0 0 0-1.2 1.688c-.388.683-.664 1.414-1.085 2.537l-2.307 6.146-.05.137a11 11 0 0 0-.257.775 2.8 2.8 0 0 0-.046 1.504 2.7 2.7 0 0 0 1.406 1.701 2.8 2.8 0 0 0 1.486.233 13 13 0 0 0 1.188-.176l4.139-.719.015-.004 2.078-.36c1.18-.204 1.954-.339 2.695-.591q.99-.337 1.887-.87c.672-.4 1.273-.9 2.195-1.665l13.33-11.05.049-.047 3.797-3.144a5.69 5.69 0 0 0 1.709-6.356 12.4 12.4 0 0 0-5.25-6.334 6 6 0 0 0-.693-.354v.002a5.7 5.7 0 0 0-2.275-.457zm.021 3.31a2.4 2.4 0 0 1 .952.19 2.4 2.4 0 0 1 .289.15 9.1 9.1 0 0 1 3.848 4.64 2.38 2.38 0 0 1-.713 2.657l-1.848 1.53a14.22 14.22 0 0 0-5.88-7.087l1.855-1.535a2.4 2.4 0 0 1 1.498-.545zm-6.09 4.354a10.91 10.91 0 0 1 5.87 7.09l-12.49 10.35c-1.056.876-1.453 1.197-1.876 1.447q-.6.358-1.262.586c-.465.157-.97.247-2.322.48l-.26.047a7.1 7.1 0 0 0-1.378-2.66 7.1 7.1 0 0 0-2.356-1.844l.091-.25c.484-1.285.669-1.76.91-2.19a6.6 6.6 0 0 1 .805-1.13c.326-.369.715-.703 1.772-1.578zm-17.24 18.61.004.002a3.7 3.7 0 0 1 1.617 1.953l-2.518.436z" transform="translate(2.396 3.975)scale(.9586)"/></svg>