<svg xmlns="http://www.w3.org/2000/svg" style="isolation:isolate" viewBox="0 0 64 64"><linearGradient id="a" x1="0" x2="1" y1=".5" y2=".5" gradientTransform="matrix(15.6 0 0 15.11 16.2 19.45)" gradientUnits="userSpaceOnUse" transform="translate(-.681 -.68)scale(1.362)"><stop offset="0" stop-color="#00c6ff"/><stop offset=".987" stop-color="#0072ff"/></linearGradient><path fill="url(#a)" d="M24 19.45c-2.064 0-8.709 11.67-7.695 13.64s14.39 1.949 15.39 0c1.002-1.948-5.631-13.64-7.695-13.64" transform="translate(-.681 -.68)scale(1.362)"/><linearGradient id="c" x1=".391" x2=".971" y1=".64" y2=".035" gradientTransform="matrix(47 0 0 47 .5 .5)" gradientUnits="userSpaceOnUse" transform="translate(-.681 -.68)scale(1.362)"><stop offset="0" stop-color="#d300dc"/><stop offset="1" stop-color="#8700ff"/></linearGradient><path fill="url(#c)" d="M24 .5C17.78.5-2.24 36.8.81 42.93c3.052 6.13 43.36 6.059 46.38 0C50.209 36.871 30.22.5 24 .5m15.2 37.11c-1.978 3.972-28.38 4.016-30.39 0C6.808 33.593 19.93 9.81 24 9.81s17.17 23.83 15.19 27.8z" transform="translate(-.681 -.68)scale(1.362)"/></svg>