<svg xmlns="http://www.w3.org/2000/svg" viewBox="0 0 64 64"><defs><linearGradient id="c" x1="117.9" x2="345.2" y1="286.8" y2="51.97" gradientUnits="userSpaceOnUse"><stop offset="0" stop-color="#fd7d00"/><stop offset="1" stop-color="#ffd86e"/></linearGradient></defs><g stroke-width="1.48"><path d="M55.037 27.463c-.173-4.426-2.966-7.485-4.866-6.767-.81.304-1.344 2.365-1.065 3.645.934 4.55 4.775 9.808 3.825 14.308-.713 2.152-7.019 3.49-7.019 3.49s-.123 1.842-.36 3.097c-.288 1.523-.87 2.732-.87 2.732s1.5 1.338 1.557 1.338c.064 0 9.436-4.842 8.796-21.834" opacity=".3"/><path fill="#020202" d="M18.308 53.674s-3.36-2.218-3.293-2.925c2.204-11.894-5.398-3.434-5.973 1.89-.606 5.11 1.285 11.006 1.564 11.364.452-4.174.852-6.489 7.7-10.338M39.863 40.059c-.116 0-.206 0-.459.064-3.261.906-11.59 3.025-12.892 4.435-.508 1.077-1.007 5.372-8.322 8.095-.206.073 6.144 4.16 6.487 4.174 20.72.865 20.702-13.933 20.424-14.61-2.015.033-3.727-.668-5.044-1.957-.065-.064-.124-.132-.197-.196" opacity=".3"/></g><g stroke-width="1.48"><g fill="#265ab1"><path d="M48.648 19.422c-1.352.317-2.62.962-3.734 1.76-1.825 2.487-4.357 4.494-7.724 5.284-1.276-.928-2.834-2.005-3.897-3.228-4.873.556-11.581 1.63-12.737 6.303-1.203 4.851 1.99 11.186 4.588 11.553 2.465.342 10.395-1.85 14.228-2.877-3.211-2.495-6.905-3.587-8.92-3.717-2.375-.188-4.422.236-6.551.783 3.11-1.998 5.93-3.491 8.715-4.044 2.088-.393 5.331-.408 9.23 1.044 4.834 1.8 5.988 4.37 9.38 5.526 2.245-.351 1.106-2.827.64-4.55-.31-.937-.558-1.647-.656-1.958-.172-.52-2.595-6.693-2.948-8.284-.237-1.086-.034-2.493.394-3.597M36.943 9.71c-3.383 1.42-3.498 4.102-3.685 7.01 1.416-1.279 5.872-2.218 7.076-3.253 3.555-3.066 4.933-9.401 4.185-8.464-2.415 3.04-6.333 4.02-7.576 4.704M18.32 52.274s-3.36-2.219-3.293-2.926c2.203-11.894-5.398-3.433-5.973 1.89-.607 5.111 1.284 11.006 1.563 11.364.452-4.173.852-6.488 7.7-10.337"/></g><g fill="url(#c)" transform="translate(-11.101 5.843)scale(.1855)"><path d="M356.5 109c-.931-23.86-15.99-40.35-26.23-36.48-4.371 1.636-7.245 12.75-5.742 19.65 5.031 24.53 25.74 52.87 20.62 77.13-3.845 11.6-37.84 18.81-37.84 18.81s-.665 9.934-1.943 16.7c-1.55 8.211-4.684 14.73-4.684 14.73s8.084 7.21 8.39 7.21c.347 0 50.87-26.1 47.42-117.7"/><path d="M334 174.7c-8.384-3.388-11.3-4.84-22.26-12.92-60.54-45.01-116.3-6.019-115.2-6.413 10.03-3.163 21.38-6.019 36.07-5.1 11.88.786 27.69 8.257 47.21 24.4 13.11 11.48 32.99 12.92 54.09.046"/><path d="M277.2 46.12c-22.38 7.17-34.49 13.32-38.1 16.18-7.419 18.81 7.552 32.96 21.19 42.9 17.93-4.221 32.85-17.45 39.52-32-3.492.486-7.205-.18-11.3-2.463-7.991-4.476-12.85-15.25-11.3-24.62"/></g><path fill="#265ab1" d="M46.367 13.74c-.27-1.061-1.14-2.423-1.375-2.423-.215 0-2.523 1.712-3.12 2.3-1.353 1.347-.697 3.8.802 4.632 2.54 1.42 4.415-1.697 3.695-4.507"/><path fill="#f8de66" d="M44.4 10.152c1.016-.97 2.37-2.561 2.72-4.982.206-2.169-.327-3.506-.984-5.17-.318 3.246-.794 6.856-3.014 10.688-.696 1.206-.318.987 1.276-.538"/><path fill="url(#c)" d="M145.6 204.4c1.897 4.747 1.764 13.76-1.064 29.18-.046.139 0 .226 0 .353 1.989 2.764 6.094 6.106 10.19 9.148 14.13-6.551 31.88-18.82 30.74-19-7.552-1.272-30.91-6.94-39.87-19.69" transform="translate(-11.101 5.843)scale(.1855)"/><path fill="#265ab1" d="M39.874 38.658c-.116 0-.206 0-.459.064-3.26.907-11.59 3.026-12.892 4.436-.507 1.077-1.007 5.372-8.322 8.095-.205.073 6.144 4.159 6.487 4.174 20.72.864 20.702-13.933 20.424-14.61-2.015.033-3.727-.668-5.044-1.957-.065-.065-.124-.132-.197-.197"/></g><g stroke-width="1.974"><path fill="#fff" d="m48.651 19.422-.002.004c-1.352.318-2.621.962-3.735 1.761-1.826 2.487-4.358 4.493-7.725 5.283-1.276-.928-2.835-2.006-3.898-3.228-4.872.556-11.58 1.63-12.735 6.304-.236.95-.301 1.955-.237 2.962.035-.534.11-1.061.237-1.57 1.155-4.674 7.863-5.75 12.735-6.304 1.063 1.222 2.621 2.3 3.898 3.227 3.369-.79 5.9-2.796 7.725-5.282 1.002-.72 2.131-1.314 3.334-1.657a7.5 7.5 0 0 1 .403-1.5zm-.452 3.252c-.067.607-.056 1.21.059 1.737.351 1.59 2.775 7.762 2.948 8.283.098.311.346 1.021.656 1.958.185.685.475 1.488.618 2.231.312-.964-.305-2.464-.618-3.623-.31-.936-.558-1.645-.656-1.957-.172-.521-2.596-6.693-2.948-8.284a4 4 0 0 1-.059-.344zM29.14 34.458a16 16 0 0 0-1.67.11 47 47 0 0 0-3.579 2.109c2.13-.547 4.177-.97 6.553-.783 1.72.11 4.663.924 7.485 2.711l1.434-.385c-3.21-2.494-6.905-3.588-8.92-3.717q-.667-.052-1.304-.044z" opacity=".1"/><path fill="#fcfcfc" d="M44.63 4.914q-.045.005-.115.093C42.1 8.048 38.182 9.027 36.94 9.71v.002c-3.384 1.419-3.498 4.101-3.687 7.01q.052-.045.11-.092c.217-2.316.777-4.357 3.576-5.531v-.002c1.233-.679 5.092-1.648 7.513-4.628.267-.948.33-1.579.179-1.557zm.362 6.406c-.215 0-2.523 1.712-3.12 2.302-.69.686-.857 1.66-.657 2.56a2.46 2.46 0 0 1 .656-1.174c.598-.59 2.906-2.301 3.12-2.301.237 0 1.106 1.36 1.376 2.422l.002.002q.069.27.106.544c.086-.62.06-1.284-.106-1.931l-.002-.002c-.27-1.061-1.14-2.422-1.375-2.422zM39.865 38.66c-.116 0-.206 0-.46.064-3.26.906-11.588 3.025-12.89 4.435-.508 1.077-1.008 5.373-8.323 8.096-.06.021.462.397 1.202.898 6.168-2.723 6.643-6.593 7.12-7.607 1.302-1.411 9.63-3.529 12.891-4.436.254-.064.344-.064.46-.064v.006c.072.065.131.132.197.197 1.318 1.289 3.029 1.99 5.044 1.957.005.01.009.035.013.053.07-.79.034-1.324-.013-1.44-2.015.034-3.725-.668-5.044-1.957-.066-.064-.125-.132-.197-.197zm-25.613 4.655c-1.739.043-4.843 4.596-5.202 7.924-.11.927-.137 1.88-.107 2.822q.024-.723.107-1.435c.36-3.328 3.463-7.881 5.202-7.924.604-.015 1.04.519 1.144 1.83.147-2.34-.36-3.237-1.144-3.217m.937 6.424c-.048.317-.102.645-.167.996-.042.438 1.229 1.454 2.201 2.165q.513-.308 1.083-.63c-.018-.012-2.452-1.622-3.117-2.53zm3.118 2.531.007.005v-.009z" opacity=".1"/><path fill="#fff" d="M46.133 0c-.318 3.246-.795 6.856-3.015 10.689-.613 1.062-.39 1.015.763-.054 1.575-3.296 1.974-6.409 2.253-9.244.479 1.214.89 2.255 1 3.571.152-2.046-.365-3.354-1-4.962zm-5.806 14.4c-4.151 1.33-6.398 2.47-7.069 3.002-.355.9-.432 1.743-.31 2.53.057-.369.156-.748.31-1.139.67-.53 2.917-1.672 7.07-3.002-.288 1.74.614 3.737 2.096 4.568.46.256.893.4 1.308.456a9.6 9.6 0 0 0 .789-1.39c-.648.09-1.337-.034-2.097-.458-1.483-.83-2.384-2.828-2.096-4.567zm-4.901 17.432c-5.985-.068-10.18 2.884-10.05 2.836 1.636-.516 3.461-.987 5.732-.977a18.5 18.5 0 0 1 4.318-.468c3.357.038 7.278 1.026 11.314 4.026 1.28.944 1.968 1.4 2.692 1.765q.705-.32 1.426-.758l.01-.002c-1.556-.629-2.097-.898-4.128-2.396-4.036-3-7.955-3.989-11.314-4.026zm-19.52 11.925c.158.394.24.948.235 1.694 1.355 1.618 3.957 2.566 5.738 3.035.91-.602 1.516-1.061 1.423-1.076-1.4-.236-5.733-1.287-7.396-3.652zm.21 2.388c-.053.816-.184 1.813-.406 3.026-.009.026 0 .042 0 .065q.08.111.185.23c.223-1.452.289-2.534.22-3.32z" opacity=".3"/><path fill="#fff" d="M50.724 19.2q-.286.003-.555.103c-.788.296-1.312 2.253-1.084 3.537.143-.993.553-1.946 1.084-2.145 1.9-.718 4.693 2.34 4.866 6.767h-.003q.018.491.025.97.02-1.14-.025-2.361h.003c-.157-4.012-2.466-6.9-4.31-6.871zm2.325 17.25a7 7 0 0 1-.12.813c-.713 2.152-7.02 3.489-7.02 3.489s-.123 1.842-.36 3.098c-.287 1.524-.869 2.733-.869 2.733l.41.36c.16-.465.336-1.05.46-1.7.236-1.256.36-3.1.36-3.1s6.306-1.337 7.02-3.488c.151-.718.18-1.454.119-2.204z" opacity=".3"/></g></svg>