<svg version="1.1" viewBox="0 0 64 64" xmlns="http://www.w3.org/2000/svg">
 <defs>
  <linearGradient id="a" y1="1">
   <stop stop-color="#0f6" offset="0"/>
   <stop stop-color="#95f" offset="1"/>
  </linearGradient>
  <linearGradient id="b" x2="0" y1="1">
   <stop stop-color="#f0f" offset="0"/>
   <stop stop-color="#ffb380" offset="1"/>
  </linearGradient>
  <linearGradient id="c" x1="1" x2="0" y1="1">
   <stop stop-color="#0ff" offset="0"/>
   <stop stop-color="#fc0" offset="1"/>
  </linearGradient>
 </defs>
 <path transform="translate(0 -1e-4) scale(1) matrix(.9275 0 0 .9275 2.319 4.174)" d="m31.99-2.5c-9.087 0-16.48 7.394-16.48 16.48 0 9.087 7.394 16.48 16.48 16.48 9.087 0 16.48-7.394 16.48-16.48 0-9.087-7.394-16.48-16.48-16.48zm0 5.211c6.243 0 11.27 5.027 11.27 11.27 0 6.239-5.027 11.27-11.27 11.27-6.238 0-11.27-5.033-11.27-11.27 0-6.243 5.027-11.27 11.27-11.27z" fill="url(#b)"/>
 <path transform="translate(0 -1e-4) scale(1)" d="m15.29 36.28c-5.845 0-10.56 4.709-10.56 10.56 1e-7 5.848 4.713 10.56 10.56 10.56 5.845 0 10.56-4.714 10.56-10.56 0-5.846-4.713-10.56-10.56-10.56z" fill="url(#a)" opacity=".5"/>
 <path transform="translate(0 -1e-4) scale(1)" d="m15.29 31.55c-8.428 0-15.29 6.858-15.29 15.29s6.858 15.29 15.29 15.29c8.428 0 15.29-6.858 15.29-15.29 0-8.428-6.858-15.29-15.29-15.29zm0 4.832c5.787 0 10.45 4.665 10.45 10.45 0 5.786-4.666 10.45-10.45 10.45-5.787 0-10.45-4.663-10.45-10.45 0-5.79 4.666-10.45 10.45-10.45z" fill="url(#a)"/>
 <path transform="translate(0 -1e-4) scale(1) translate(2.319 4.174) scale(.9275)" d="m50 29.49c-9.11 0-16.51 7.398-16.51 16.51s7.398 16.5 16.51 16.5 16.5-7.394 16.5-16.5-7.393-16.51-16.5-16.51z" fill="url(#c)"/>
</svg>
