<svg xmlns="http://www.w3.org/2000/svg" viewBox="0 0 64 64"><defs><linearGradient id="a" y2="1"><stop offset="0" stop-color="#fff44f"/><stop offset=".33" stop-color="#ff980e"/><stop offset=".67" stop-color="#ff3647"/><stop offset="1" stop-color="#e31587"/></linearGradient></defs><path fill="url(#a)" d="M24.26.552a23.5 23.5 0 0 0-15.71 5.72A2.001 2.001 0 0 0 11.168 9.3a19.45 19.45 0 0 1 13.03-4.739 19.46 19.46 0 0 1 12.88 5.12 2 2 0 1 0 2.707-2.947 23.5 23.5 0 0 0-15.52-6.18zM3.92 14.062c-.78.016-1.513.49-1.821 1.261a23.63 23.63 0 0 0-.704 15.42A2 2 0 0 0 5.23 29.61a19.5 19.5 0 0 1 .59-12.79 2.006 2.006 0 0 0-1.9-2.748v-.008zm40.12.757a2.135 2.135 0 0 0-1.936 2.848 19.3 19.3 0 0 1 .247 12.05 2.147 2.147 0 0 0 1.428 2.674 2.14 2.14 0 0 0 2.668-1.429 23.6 23.6 0 0 0-.31-14.71 2.14 2.14 0 0 0-2.097-1.426zM8.78 37.359l-.001.001a2 2 0 0 0-1.402.617 2.003 2.003 0 0 0 .064 2.829l.477.455.022.021c4.333 4.02 10.03 6.26 15.94 6.272s11.62-2.204 15.96-6.21a2.01 2.01 0 0 0 .114-2.829 2.003 2.003 0 0 0-2.828-.113c-3.598 3.319-8.334 5.16-13.24 5.153s-9.62-1.86-13.21-5.193l-.47-.45a2 2 0 0 0-1.429-.553z" transform="translate(-.583 -.72)scale(1.36)"/><path fill="url(#a)" d="M9.109 15.92v15.96h3.128V15.92zm19.09 0v15.96h2.39l.523-1.261h.215q1.149 1.466 3.168 1.466 2.04 0 3.226-1.56 1.185-1.559 1.185-4.399 0-2.759-1.149-4.343-1.147-1.584-3.178-1.584-2.154 0-3.25 1.702h-.123q.123-1.559.123-2.266v-3.712L28.2 15.92zm-7.988 4.254q-2.41 0-4.389 1.037l1.035 2.111q1.856-.83 3.23-.83 1.784 0 1.785 1.743v.502l-1.989.06q-2.574.094-3.85.962-1.277.865-1.277 2.69 0 1.743.948 2.687.948.942 2.599.943 1.343 0 2.18-.385.835-.384 1.624-1.38h.082l.604 1.56h2.184v-7.639q0-2.05-1.23-3.056-1.231-1.005-3.538-1.005zm13.36 2.522v.001q.994 0 1.568.846t.574 2.538q0 1.691-.568 2.578-.57.888-1.534.888-1.19 0-1.736-.8-.55-.799-.55-2.645v-.339q.021-1.641.554-2.354.532-.712 1.692-.712zm-11.7 3.867v.942q0 1.036-.652 1.662-.651.626-1.738.626-1.518 0-1.518-1.324 0-.922.668-1.373.666-.45 2.029-.492z" transform="translate(-.583 -.72)scale(1.36)"/></svg>