<svg style="isolation:isolate" version="1.1" viewBox="0 0 64 64" xmlns="http://www.w3.org/2000/svg">
 <linearGradient id="b" transform="translate(.01134 .004) scale(1) translate(0) scale(1.333)" x1=".09111" x2=".8661" y1=".2538" y2=".8576" gradientTransform="matrix(39.65 0 0 48 4.174 0)" gradientUnits="userSpaceOnUse">
  <stop stop-color="#df57ff" offset=".01304"/>
  <stop stop-color="#241efc" offset=".5208"/>
  <stop stop-color="#0eaffe" offset=".9792"/>
 </linearGradient>
 <path transform="translate(.01134 .004) scale(1) translate(0) scale(1.333)" d="m14.17 37.48h23.39c1.152 0 2.087-0.935 2.087-2.087v-2.087c0-1.151 0.935-2.087 2.087-2.087s2.087 0.936 2.087 2.087v3.131c0 2.879-2.338 5.217-5.217 5.217h-28.17c-1.152 0-2.087 0.487-2.087 1.087s0.935 1.087 2.087 1.087h31.3c1.152 0 2.087 0.935 2.087 2.087s-0.935 2.087-2.087 2.087h-32.35c-2.879 0-5.217-2.338-5.217-5.217v-0.087c0-0.327 0.03-0.647 0.088-0.957h-0.088v-36.53c0-2.879 2.338-5.217 5.217-5.217h29.22c2.879 0 5.217 2.338 5.217 5.217v15.65c0 1.151-0.935 2.087-2.087 2.087s-2.087-0.936-2.087-2.087v-13.57c0-1.727-1.403-3.13-3.13-3.13h-22.35v33.31zm-3.131 0h-1.652c-0.357 0-0.706 0.036-1.043 0.105v-30.28c0-1.58 1.173-2.888 2.695-3.1v33.28z" fill="url(#b)" fill-rule="evenodd"/>
 <linearGradient id="a" transform="translate(.01134 .004) scale(1) translate(0) scale(1.333)" x2=".887" y1=".5" y2=".01134" gradientTransform="matrix(22.46 0 0 23 16 9)" gradientUnits="userSpaceOnUse">
  <stop stop-color="#5433ff" offset="0"/>
  <stop stop-color="#e948ff" offset=".4917"/>
  <stop stop-color="#ff005b" offset=".9708"/>
 </linearGradient>
 <path transform="translate(.01134 .004) scale(1) translate(0) scale(1.333)" d="m24.71 19.15 0.583 0.411 10.71 7.573c0.23 0.163 0.417 0.524 0.417 0.806v1.511c0 0.282-0.229 0.511-0.511 0.511h-17.36c-0.282 0-0.511-0.229-0.511-0.511v-1.475c0-0.282 0.194-0.633 0.432-0.783l5.588-3.516c0.476-0.299 0.62-0.929 0.322-1.407-0.299-0.478-0.931-0.621-1.41-0.319l-5.677 3.566c-0.716 0.45-1.297 1.501-1.297 2.346v2.609c0 0.846 0.686 1.532 1.532 1.532h19.4c0.846 0 1.532-0.686 1.532-1.532v-2.573c0-0.845-0.56-1.928-1.251-2.416l-8.412-5.944c0.837-0.254 1.607-0.71 2.237-1.34 1.009-1.009 1.579-2.384 1.579-3.811s-0.57-2.797-1.579-3.805c-1.009-1.009-2.379-1.579-3.806-1.579s-2.801 0.57-3.81 1.579c-1.009 1.008-1.574 2.378-1.574 3.805s0.565 2.802 1.574 3.811c0.383 0.383 0.819 0.702 1.291 0.951zm-0.774-4.762c0-0.873 0.345-1.709 0.962-2.326 0.617-0.622 1.458-0.967 2.331-0.967s1.71 0.345 2.327 0.967c0.622 0.617 0.967 1.453 0.967 2.326s-0.345 1.715-0.967 2.331c-0.617 0.617-1.454 0.962-2.327 0.962s-1.714-0.345-2.331-0.962c-0.617-0.616-0.962-1.458-0.962-2.331z" fill="url(#a)" fill-rule="evenodd"/>
</svg>
