<svg style="isolation:isolate" version="1.1" viewBox="0 0 64 64" xmlns="http://www.w3.org/2000/svg">
 <linearGradient id="a" transform="translate(0) scale(.9998) translate(-1.038 -1.211) scale(1.384)" x1=".582" x2=".276" y1=".778" y2=".321" gradientTransform="matrix(46.25 0 0 46 .75 1)" gradientUnits="userSpaceOnUse">
  <stop stop-color="#1bce89" offset="0"/>
  <stop stop-color="#4e8ed5" offset="1"/>
 </linearGradient>
 <path transform="translate(0) scale(.9998) translate(-1.038 -1.211) scale(1.384)" d="M18.66 43H5.75a1 1 0 0 1-1-1V28.22l2.288-2.974 11.62 17.75zm5.68-10.97L26.85 29l.77.64-2.55 3.07c-.18.22-.45.35-.73.36a.96.96 0 0 1-.73-.36l-1.11-1.33.77-.64zM39 28v6h-6v-6zm0-11v6h-6v-6zm-11 0v6h-6v-6zm11 9c.53 0 1.04.21 1.41.59.38.37.59.88.59 1.41v6c0 .53-.21 1.04-.59 1.41-.37.38-.88.59-1.41.59h-6c-.53 0-1.04-.21-1.41-.59-.38-.37-.59-.88-.59-1.41v-6c0-.53.21-1.04.59-1.41.37-.38.88-.59 1.41-.59zm-11 2v6h-6v-6zm11-13c.53 0 1.04.21 1.41.59.38.37.59.88.59 1.41v6c0 .53-.21 1.04-.59 1.41-.37.38-.88.59-1.41.59h-6c-.53 0-1.04-.21-1.41-.59-.38-.37-.59-.88-.59-1.41v-6c0-.53.21-1.04.59-1.41.37-.38.88-.59 1.41-.59zm-11 0c.53 0 1.04.21 1.41.59.38.37.59.88.59 1.41v6c0 .53-.21 1.04-.59 1.41-.37.38-.88.59-1.41.59h-6c-.53 0-1.04-.21-1.41-.59-.38-.37-.59-.88-.59-1.41v-6c0-.53.21-1.04.59-1.41.37-.38.88-.59 1.41-.59zm0 11c.53 0 1.04.21 1.41.59.38.37.59.88.59 1.41v6c0 .53-.21 1.04-.59 1.41-.37.38-.88.59-1.41.59h-6c-.53 0-1.04-.21-1.41-.59-.38-.37-.59-.88-.59-1.41v-6c0-.53.21-1.04.59-1.41.37-.38.88-.59 1.41-.59zm-3.787 17h17.79a1 1 0 0 0 1-1V6a1 1 0 0 0-1-1H22.618l-12.5 16.25L24.218 43zM23.75 1H43c2.208 0 4 1.792 4 4v38c0 2.208-1.792 4-4 4H4.75c-2.208 0-4-1.792-4-4V5c0-2.208 1.792-4 4-4zM21 11c-.554 0-1 .446-1 1v1c0 .554.446 1 1 1h8c.554 0 1-.446 1-1v-1c0-.554-.446-1-1-1zm11 0c-.554 0-1 .446-1 1v1c0 .554.446 1 1 1h8c.554 0 1-.446 1-1v-1c0-.554-.446-1-1-1z" fill="url(#a)" fill-rule="evenodd"/>
</svg>
