<svg version="1.1" viewBox="0 0 64 64" xmlns="http://www.w3.org/2000/svg">
 <defs>
  <linearGradient id="a" y2="1">
   <stop stop-color="#2ad4ff" offset="0"/>
   <stop stop-color="#fd5" offset=".5"/>
   <stop stop-color="#b380ff" offset="1"/>
  </linearGradient>
 </defs>
 <path transform="translate(2e-6 .00187) scale(1) matrix(.9999 0 0 .9999 -.01726 -.0159)" d="m17.67 6.382-0.003907 0.001953c-0.916-0.02377-1.801 0.3374-2.438 0.9962l-8.669 8.673v-6.372a1.488 1.488 0 0 0 0-0.001953c-3.221e-4 -0.9662-0.4137-1.88-1.055-2.451-0.6414-0.5697-1.439-0.8184-2.215-0.8184-0.7765 0-1.572 0.2523-2.213 0.8223-0.6414 0.57-1.06 1.482-1.059 2.449v21.4c3.223e-4 0.9662 0.4173 1.878 1.059 2.449 0.6414 0.5697 1.437 0.8204 2.213 0.8204 0.7765 0 1.574-0.2504 2.215-0.8204 0.6414-0.57 1.056-1.482 1.055-2.451v-5.776l0.2969-0.2989 8.372 8.38h0.007813c0.6798 0.701 1.626 1.071 2.492 1.025 0.8669-0.04518 1.613-0.4362 2.168-0.9903 0.5546-0.5542 0.9454-1.302 0.9903-2.17 0.04504-0.8649-0.3257-1.811-1.025-2.492l-8.376-8.378 8.374-8.374c0.9992-0.9653 1.215-2.412 0.7755-3.539-0.4382-1.126-1.574-2.04-2.959-2.078a1.488 1.488 0 0 0-0.00586-0.003907zm36.9 9.433a0.5001 0.5001 0 0 1-0.01367 0.003907l-14.76 0.001953c-2.234-0.0015-4.363 0.5523-6.241 1.547-0.6261 0.3317-1.226 0.7117-1.789 1.137-2.255 1.701-3.97 4.118-4.788 6.981l-5.85 20.46a0.5001 0.5001 0 0 1 0 0.003906c-0.03045 0.1077-0.0647 0.2046-0.1035 0.291-0.1165 0.2593-0.268 0.43-0.4317 0.5586a0.5001 0.5001 0 0 0 0 0.001953c-0.01026 0.008001-0.02068 0.01584-0.03125 0.02344v-0.001954c-0.2637 0.1909-0.5712 0.2854-0.8751 0.3067-0.2805 0.03089-0.5731-0.004601-0.8458-0.1192h-0.001953l-0.001953-0.001953c-0.0104-0.003401-0.02097-0.006166-0.03125-0.009767a0.5001 0.5001 0 0 1-0.02735-0.01172 0.5001 0.5001 0 0 1-0.003906-0.001953 0.5001 0.5001 0 0 1-0.03516-0.01367c-0.1234-0.06463-0.1923-0.1223-0.3145-0.2383-0.1222-0.116-0.2602-0.2746-0.3692-0.4883a0.5001 0.5001 0 0 1-0.003907-0.003907c-1.888-3.762-5.725-6.138-9.935-6.145h-2.113c-0.01432 3.08e-4 -0.0267 3.08e-4 -0.04102 0a0.5001 0.5001 0 0 1-0.01172 0c-2.536-0.106-4.649 1.768-4.905 4.229-0.01722 0.1657-0.02735 0.3323-0.02735 0.5 0 2.707 2.227 4.842 4.932 4.729a0.5001 0.5001 0 0 1 0.01172 0c0.01432-3.07e-4 0.0267-3.07e-4 0.04102 0h2.113c0.6226 0 1.198 0.351 1.479 0.9122 2.29 4.579 6.714 6.497 10.97 6.102 4.259-0.3951 8.258-3.095 9.671-8.016l5.84-20.47c0.356-1.243 1.301-2.199 2.479-2.6 0.09814-0.03338 0.1977-0.06238 0.2989-0.0879 0.3034-0.07657 0.6204-0.117 0.9435-0.1172h14.74c2.593-0.04842 4.647-2.143 4.647-4.737 0-2.585-2.041-4.667-4.622-4.729zm-3.311 16.33-0.5098 0.009767-0.03516 0.06251c-6.769 0.2946-12.19 5.845-12.19 12.68 0 7.028 5.715 12.74 12.74 12.74h0.001953c2.355-0.0039 4.593-0.7849 6.587-2.01 0.2682 0.64 0.6635 1.214 1.281 1.574l0.003907 0.001954c1.008 0.5828 2.256 0.578 3.264-0.009767 1.008-0.5872 1.623-1.672 1.606-2.836v-18.92c0.01183-0.8734-0.3297-1.717-0.9513-2.334v-0.001953c-0.6202-0.6193-1.467-0.9601-2.342-0.9454-1.312 0.02108-2.432 0.8375-2.92 1.977-1.979-1.201-4.197-1.972-6.528-1.977l-0.00586-0.009767-0.001953-0.001953zm0.003906 6.499c3.47 0 6.266 2.788 6.266 6.258s-2.795 6.262-6.266 6.262-6.262-2.791-6.262-6.262 2.791-6.258 6.262-6.258z" fill="url(#a)"/>
</svg>
