<svg xmlns="http://www.w3.org/2000/svg" viewBox="0 0 64 64"><defs><linearGradient id="a" x2="0" y1="1"><stop offset="0" stop-color="#fea201"/><stop offset=".33" stop-color="#f2203e"/><stop offset=".67" stop-color="#b729a8"/><stop offset="1" stop-color="#5342d6"/></linearGradient></defs><path fill="url(#a)" d="M23.47 0c-1.182 0-2.133.95-2.133 2.133v6.404c0 1.182.95 2.131 2.133 2.131s2.139-.948 2.139-2.13V2.132A2.13 2.13 0 0 0 23.47 0m8.533 0c-1.182 0-2.133.95-2.133 2.133v6.404c0 1.182.95 2.131 2.133 2.131s2.133-.948 2.133-2.13V2.132C34.136.951 33.186 0 32.003 0m8.533 0a2.13 2.13 0 0 0-2.137 2.133v6.404c0 1.182.954 2.131 2.137 2.131a2.125 2.125 0 0 0 2.133-2.13V2.132C42.669.951 41.719 0 40.536 0m-19.12 12.65c-4.826 0-8.764 3.938-8.764 8.764v21.09c0 4.826 3.938 8.768 8.764 8.768h21.09c4.826 0 8.768-3.942 8.768-8.768v-21.09c0-4.826-3.942-8.764-8.768-8.764zm0 3.87h21.09c2.759 0 4.896 2.133 4.896 4.892v21.09c0 2.76-2.137 4.896-4.896 4.896h-21.09c-2.759 0-4.895-2.137-4.895-4.896v-21.09c0-2.759 2.136-4.893 4.895-4.893m-19.29 4.8c-1.182 0-2.131.95-2.131 2.133s.948 2.137 2.131 2.137H8.53a2.13 2.13 0 0 0 2.131-2.137A2.125 2.125 0 0 0 8.53 21.32zm53.33 0c-1.182 0-2.133.95-2.133 2.133a2.13 2.13 0 0 0 2.133 2.137h6.402a2.13 2.13 0 0 0 2.133-2.137c0-1.183-.95-2.133-2.133-2.133zm-53.33 8.533c-1.182 0-2.131.95-2.131 2.133s.948 2.133 2.131 2.133H8.53c1.182 0 2.131-.95 2.131-2.133s-.948-2.133-2.131-2.133zm53.33 0c-1.182 0-2.133.95-2.133 2.133s.95 2.133 2.133 2.133h6.402c1.182 0 2.133-.95 2.133-2.133s-.95-2.133-2.133-2.133zm-53.33 8.53a2.13 2.13 0 0 0-2.131 2.136c0 1.183.948 2.133 2.131 2.133H8.53c1.182 0 2.131-.95 2.131-2.133a2.13 2.13 0 0 0-2.131-2.137zm53.33 0a2.13 2.13 0 0 0-2.133 2.136c0 1.183.95 2.133 2.133 2.133h6.402c1.182 0 2.133-.95 2.133-2.133a2.13 2.13 0 0 0-2.133-2.137zm-32.01 14.94c-1.182 0-2.133.95-2.133 2.132v6.402c0 1.182.95 2.133 2.133 2.133a2.13 2.13 0 0 0 2.137-2.133v-6.402a2.13 2.13 0 0 0-2.137-2.133m8.533 0c-1.182 0-2.133.95-2.133 2.132v6.402c0 1.182.95 2.133 2.133 2.133s2.133-.95 2.133-2.133v-6.402c0-1.182-.95-2.133-2.133-2.133m8.533 0a2.13 2.13 0 0 0-2.137 2.132v6.402a2.13 2.13 0 0 0 2.137 2.133c1.183 0 2.133-.95 2.133-2.133v-6.402c0-1.182-.95-2.133-2.133-2.133" transform="translate(.006 .003)"/></svg>