<svg style="isolation:isolate" version="1.1" viewBox="0 0 64 64" xmlns="http://www.w3.org/2000/svg">
 <g transform="translate(0) scale(1) translate(.001 .001) scale(1)">
  <linearGradient id="a" x1="-.014" x2="1.016" y1=".01" y2="1.072" gradientTransform="matrix(44 0 0 44 2 2)" gradientUnits="userSpaceOnUse">
   <stop stop-color="#f9d423" offset="0"/>
   <stop stop-color="#ff4e50" offset=".516"/>
   <stop stop-color="#8a2387" offset=".991"/>
  </linearGradient>
  <linearGradient id="b" x2=".907" y1=".5" y2=".92" gradientTransform="matrix(12.12 0 0 12.13 9.074 9.562)" gradientUnits="userSpaceOnUse">
   <stop stop-color="#00ffd8" offset="0"/>
   <stop stop-color="#00ffb8" offset=".839"/>
  </linearGradient>
  <linearGradient id="c" x2=".907" y1=".5" y2=".92" gradientTransform="matrix(11.56 0 0 3.052 9.108 33.31)" gradientUnits="userSpaceOnUse">
   <stop stop-color="#00ffd8" offset="0"/>
   <stop stop-color="#00ffb8" offset=".839"/>
  </linearGradient>
  <linearGradient id="g" x2="1" y1=".5" y2=".5" gradientTransform="matrix(11.56 0 0 3.052 27.11 33.31)" gradientUnits="userSpaceOnUse">
   <stop stop-color="#f12711" offset="0"/>
   <stop stop-color="#f5af19" offset=".991"/>
  </linearGradient>
  <linearGradient id="h" x2="1" y1=".5" y2=".5" gradientTransform="matrix(11.56 0 0 3.052 27.11 29.31)" gradientUnits="userSpaceOnUse">
   <stop stop-color="#f12711" offset="0"/>
   <stop stop-color="#f5af19" offset=".991"/>
  </linearGradient>
  <linearGradient id="i" x2="1" y1=".5" y2=".5" gradientTransform="matrix(9.62 0 0 10.08 28.52 10.26)" gradientUnits="userSpaceOnUse">
   <stop stop-color="#d300dc" offset="0"/>
   <stop stop-color="#8700ff" offset="1"/>
  </linearGradient>
  <path transform="translate(-2.909 -2.909)scale(1.454)" d="M6 18.36a2 2 0 0 1-4 0V7c0-2.76 2.24-5 5-5h11.36a2 2 0 0 1 0 4H9C7.344 6 6 7.344 6 9zM29.64 6a2 2 0 0 1 0-4H41c2.76 0 5 2.24 5 5v11.36a2 2 0 0 1-4 0V9c0-1.656-1.344-3-3-3zM42 29.64a2 2 0 0 1 4 0V41c0 2.76-2.24 5-5 5H30a2 2 0 0 1 0-4h9c1.656 0 3-1.344 3-3zM18.36 42a2 2 0 0 1 0 4H7c-2.76 0-5-2.24-5-5V29.64a2 2 0 0 1 4 0V39c0 1.656 1.344 3 3 3z" fill="url(#a)" fill-rule="evenodd"/>
  <path transform="translate(-2.909 -2.909)scale(1.454)" d="M13.8 20.7V17h-3.724a1 1 0 0 1-1-1v-.673a1 1 0 0 1 1-1H13.8v-3.761a1 1 0 0 1 1-1h.674a1 1 0 0 1 1 1v3.761h3.724a1 1 0 0 1 1 1V16a1 1 0 0 1-1 1h-3.724v3.7a1 1 0 0 1-1 1H14.8a1 1 0 0 1-1-1" fill="url(#b)"/>
  <path transform="translate(-2.909 -2.909)scale(1.454)" d="m19.66 36.36h-9.555a1 1 0 0 1-1-1v-1.052a1 1 0 0 1 1-1h9.555a1 1 0 0 1 1 1v1.052a1 1 0 0 1-1 1" fill="url(#c)"/>
  <path transform="translate(-2.909 -2.909)scale(1.454)" d="m37.66 36.36h-9.555a1 1 0 0 1-1-1v-1.052a1 1 0 0 1 1-1h9.555a1 1 0 0 1 1 1v1.052a1 1 0 0 1-1 1" fill="url(#g)"/>
  <path transform="translate(-2.909 -2.909)scale(1.454)" d="m37.66 32.36h-9.555a1 1 0 0 1-1-1v-1.052a1 1 0 0 1 1-1h9.555a1 1 0 0 1 1 1v1.052a1 1 0 0 1-1 1" fill="url(#h)"/>
  <path transform="translate(-2.909 -2.909)scale(1.454)" d="M37.78 18.38q.36.36.36.82 0 .44-.34.79t-.8.35q-.5 0-.86-.42l-2.82-3.12-2.82 3.12q-.38.4-.86.4-.44 0-.78-.34t-.34-.78q0-.46.36-.82l2.92-3.18-2.76-3q-.36-.36-.36-.82t.34-.79.78-.33q.48 0 .86.4l2.66 2.92 2.66-2.92q.38-.4.86-.4.46 0 .79.33t.33.79-.36.82l-2.76 3z" fill="url(#i)"/>
 </g>
</svg>
