<svg version="1.1" viewBox="0 0 64 64" xmlns="http://www.w3.org/2000/svg" xmlns:xlink="http://www.w3.org/1999/xlink">
 <defs>
  <linearGradient id="c" x1="58.17" x2="41.75" y1="4.556" y2="19.27" gradientUnits="userSpaceOnUse">
   <stop stop-color="#2e4afa" offset="0"/>
   <stop stop-color="#8e9eff" offset="1"/>
  </linearGradient>
  <linearGradient id="b" x1="41.75" x2="57.8" y1="39.59" y2="61.08" gradientUnits="userSpaceOnUse">
   <stop stop-color="#ff00b5" offset="0"/>
   <stop stop-color="#ff0050" stop-opacity=".99" offset="1"/>
  </linearGradient>
  <linearGradient id="a" y2="1">
   <stop stop-color="#01ff01" offset="0"/>
   <stop stop-color="#1bc100" offset="1"/>
  </linearGradient>
  <linearGradient id="g" x1="27.97" x2="1.142" y1="30.68" y2="30.68" gradientTransform="matrix(.9999 0 0 .9999 .005021 4e-6)" gradientUnits="userSpaceOnUse" xlink:href="#a"/>
  <linearGradient id="f" x1="40.2" x2="17.97" y1="47.91" y2="36.99" gradientTransform="matrix(.9999 0 0 .9999 .005021 4e-6)" gradientUnits="userSpaceOnUse" xlink:href="#b"/>
  <linearGradient id="e" x1="27.02" x2="41.52" y1="25.71" y2="17.9" gradientTransform="matrix(.9999 0 0 .9999 .005021 4e-6)" gradientUnits="userSpaceOnUse" xlink:href="#a"/>
  <linearGradient id="d" x1="54.28" x2="49.51" y1="44.1" y2="29.61" gradientTransform="matrix(.9999 0 0 .9999 .005021 4e-6)" gradientUnits="userSpaceOnUse" xlink:href="#c"/>
  <linearGradient id="i" x1="58.17" x2="41.75" y1="4.556" y2="19.27" gradientTransform="matrix(.9999 0 0 .9999 .005021 4e-6)" gradientUnits="userSpaceOnUse" xlink:href="#c"/>
  <linearGradient id="h" x1="41.75" x2="57.8" y1="39.59" y2="61.08" gradientTransform="matrix(.9999 0 0 .9999 .005021 4e-6)" gradientUnits="userSpaceOnUse" xlink:href="#b"/>
 </defs>
 <path transform="translate(0) scale(1)" d="m50.36 20.73c-1.679-0.014-3.253 0.475-4.733 1.136l1.018 22.96c2.818 1.105 4.923 1.108 7.639-0.7139l-0.7859-22.74a8.399 8.399 0 0 0-3.14-0.6399z" fill="url(#d)" stroke-width=".408" style="-inkscape-stroke:none;font-variation-settings:normal"/>
 <path transform="translate(0) scale(1)" d="m38.42 14.97-20 10.85c0.239 3.117 1.955 5.176 3.959 6.823l20.09-11.16c-0.27-3.015-1.206-4.899-4.049-6.516z" fill="url(#e)" stroke-width=".408" style="-inkscape-stroke:none;font-variation-settings:normal"/>
 <path transform="translate(0) scale(1)" d="m20.77 33.15c-2.467 1.92-3.236 4.487-3.503 7.066l20.39 10.59c2.365-1.889 3.419-3.71 3.199-6.973z" fill="url(#f)" stroke-width=".408" style="-inkscape-stroke:none;font-variation-settings:normal"/>
 <path transform="translate(0) scale(1)" d="m48.09 4e-6a13.41 13.41 0 0 0-13.41 13.41 13.41 13.41 0 0 0 13.41 13.42 13.41 13.41 0 0 0 13.42-13.42 13.41 13.41 0 0 0-13.42-13.41" fill="url(#i)" stroke-width=".408"/>
 <path transform="translate(0) scale(1)" d="m14.56 17.27a13.41 13.41 0 0 0-13.42 13.42 13.41 13.41 0 0 0 13.42 13.41 13.41 13.41 0 0 0 13.41-13.41 13.41 13.41 0 0 0-13.41-13.42" fill="url(#g)" stroke-width=".408"/>
 <path transform="translate(0) scale(1)" d="m49.44 37.17a13.41 13.41 0 0 0-13.42 13.41 13.41 13.41 0 0 0 13.42 13.42 13.41 13.41 0 0 0 13.41-13.42 13.41 13.41 0 0 0-13.41-13.41" fill="url(#h)" stroke-width=".408"/>
 <path transform="translate(0) scale(1)" d="m48.79 2.961a5.837 3.98 15.61 0 0-4.461 2.57 5.837 3.98 15.61 0 0 4.551 5.404 5.837 3.98 15.61 0 0 6.693-2.262 5.837 3.98 15.61 0 0-4.551-5.404 5.837 3.98 15.61 0 0-2.232-0.3086z" fill="#fff" fill-opacity=".5" fill-rule="evenodd" stroke-width=".1607"/>
 <path transform="translate(0) scale(1)" d="m49.93 40.98a5.837 3.98 15.61 0 0-4.461 2.572 5.837 3.98 15.61 0 0 4.551 5.404 5.837 3.98 15.61 0 0 6.693-2.264 5.837 3.98 15.61 0 0-4.551-5.404 5.837 3.98 15.61 0 0-2.232-0.3086z" fill="#fff" fill-opacity=".5" fill-rule="evenodd" stroke-width=".1607"/>
 <path transform="translate(0) scale(1)" d="m14.75 20.73a5.837 3.98 15.61 0 0-4.461 2.57 5.837 3.98 15.61 0 0 4.551 5.404 5.837 3.98 15.61 0 0 6.693-2.262 5.837 3.98 15.61 0 0-4.551-5.404 5.837 3.98 15.61 0 0-2.232-0.3086z" fill="#fff" fill-opacity=".5" fill-rule="evenodd" stroke-width=".1607"/>
</svg>
