<svg xmlns="http://www.w3.org/2000/svg" viewBox="0 0 64 64"><defs><linearGradient id="a" x1="1" x2="0" y2="1"><stop offset="0" stop-color="#01ff01"/><stop offset="1" stop-color="#1bc100"/></linearGradient><linearGradient id="c" x2="0" y1="1"><stop offset="0" stop-color="#00efff"/><stop offset="1" stop-color="#07f"/></linearGradient></defs><path fill="url(#a)" d="M32.23 10.48c-11.72 0-21.26 9.54-21.26 21.26S20.51 53 32.23 53s21.26-9.54 21.26-21.26-9.54-21.26-21.26-21.26m0 4a17.23 17.23 0 0 1 17.26 17.26A17.23 17.23 0 0 1 32.23 49a17.23 17.23 0 0 1-17.26-17.26 17.23 17.23 0 0 1 17.26-17.26" transform="translate(-16.51 -15.772)scale(1.505)"/><path fill="url(#a)" d="m36.21 17.16.004.002v-.002zm.004.002c-1.364 4.958-3.977 14.58-3.977 14.58s9.459-2.354 14.58-4.045a15.12 15.12 0 0 0-10.6-10.53z" transform="translate(-16.51 -15.772)scale(1.505)"/><path fill="url(#c)" d="m21.24 24.86 8.98 8.301 6.15 2.701-2.736-4.465z" transform="translate(-16.51 -15.772)scale(1.505)"/><path fill="url(#c)" d="M50.68 26.24 31.4 31.121l-4.65 3.369 6.615-.857z" transform="translate(-16.51 -15.772)scale(1.505)"/><path fill="url(#c)" d="M32.23 15.44a1.481 1.481 0 1 0-.002 2.962 1.481 1.481 0 0 0 .002-2.962M17.42 30.25a1.481 1.481 0 1 0 .002 2.962 1.481 1.481 0 0 0-.002-2.962m29.61 0a1.481 1.481 0 1 0 .002 2.962 1.481 1.481 0 0 0-.002-2.962M32.22 45.06a1.481 1.481 0 1 0-.002 2.962 1.481 1.481 0 0 0 .002-2.962" transform="translate(-16.51 -15.772)scale(1.505)"/></svg>