<svg xmlns="http://www.w3.org/2000/svg" style="isolation:isolate" viewBox="0 0 64 64"><linearGradient id="a" x1=".48" x2=".477" y1=".951" y2="-.019" gradientTransform="matrix(43.56 0 0 49.71 2.22 .828)" gradientUnits="userSpaceOnUse" transform="translate(1.102 -1.075)scale(1.287)"><stop offset="0" stop-color="#c62aff"/><stop offset=".483" stop-color="#0ecffc"/><stop offset=".996" stop-color="#40ffc4"/><stop offset="1"/></linearGradient><path fill="url(#a)" fill-rule="evenodd" d="m26.36 21.87-1.049-3.06A4.502 4.502 0 0 0 24 10.004a4.5 4.5 0 0 0-4.5 4.5 4.51 4.51 0 0 0 3.079 4.271l-1.037 3.062a7.5 7.5 0 0 1-2.822-1.773c-1.4-1.4-2.19-3.3-2.19-5.28s.79-3.88 2.19-5.28 3.3-2.19 5.28-2.19 3.88.79 5.28 2.19 2.19 3.3 2.19 5.28a7.47 7.47 0 0 1-5.11 7.086m2.726 20.3-2.794-8.151-3.932 2.989zm-4.161-12.14-.975-2.844-1.635 4.832zM32.49 4.16a1.498 1.498 0 1 1 1.87-2.34c3.94 3.15 6.24 7.93 6.24 12.97 0 5.47-2.71 10.61-7.22 13.7a1.505 1.505 0 0 1-1.7-2.48 13.61 13.61 0 0 0 5.92-11.22c0-4.13-1.88-8.05-5.11-10.63M16.13 25.88a1.5 1.5 0 0 1-1.74 2.44A16.61 16.61 0 0 1 7.4 14.79c0-5.22 2.47-10.15 6.65-13.29a1.5 1.5 0 0 1 1.8 2.4 13.62 13.62 0 0 0-5.45 10.89c0 4.4 2.14 8.54 5.73 11.09m-.54 5.81a1.5 1.5 0 1 1-1.35 2.68 21.8 21.8 0 0 1-8.77-8.03c-2.12-3.43-3.24-7.4-3.25-11.44 0-4.85 1.63-9.57 4.62-13.4a1.503 1.503 0 0 1 2.37 1.85A18.77 18.77 0 0 0 5.22 14.9c.01 3.49.98 6.9 2.81 9.87 1.83 2.96 4.45 5.36 7.56 6.92m11.74-6.973 7.766 22.64.64 1.89-3.78 1.3-.531-1.544-11.8-9.04-2.938 8.684-.65 1.9-3.78-1.29 8.319-24.57c-4.101-1.418-7.049-5.316-7.049-9.897 0-5.779 4.691-10.47 10.47-10.47s10.47 4.691 10.47 10.47c0 4.613-2.99 8.533-7.136 9.927zm11.4-21.45a1.504 1.504 0 0 1 2.36-1.86c3.03 3.84 4.69 8.6 4.69 13.49-.01 4.07-1.15 8.06-3.3 11.52a21.78 21.78 0 0 1-8.88 8.03 1.5 1.5 0 0 1-1.33-2.69c3.15-1.55 5.81-3.95 7.66-6.93 1.86-2.98 2.84-6.42 2.85-9.93 0-4.22-1.43-8.32-4.05-11.63" transform="translate(1.102 -1.075)scale(1.287)"/></svg>