<svg version="1.1" viewBox="0 0 64 64" xmlns="http://www.w3.org/2000/svg">
 <defs>
  <linearGradient id="a" y1="1">
   <stop stop-color="#07f" offset="0"/>
   <stop stop-color="#00f7ff" offset="1"/>
  </linearGradient>
 </defs>
 <path transform="translate(0) scale(1) translate(-6.4 -6.4) scale(3.2)" d="m8 2c-3.302 0-6 2.698-6 6v8c0 3.302 2.698 6 6 6h8c3.302 0 6-2.698 6-6v-3c0-2.197-1.803-4-4-4v-1c0-3.302-2.698-6-6-6zm0 2h4c2.221 0 4 1.779 4 4v2a1 1 0 0 0 1 1h1c1.116 0 2 0.8836 2 2v3c0 2.221-1.779 4-4 4h-8c-2.221 0-4-1.779-4-4v-8c0-2.221 1.779-4 4-4z" fill="url(#a)"/>
 <path transform="translate(0) scale(1) matrix(3.2 0 0 3.2 -6.4 -6.4)" d="m8.5 13c-1.369 0-2.5 1.131-2.5 2.5s1.131 2.5 2.5 2.5h7c1.369 0 2.5-1.131 2.5-2.5s-1.131-2.5-2.5-2.5zm0 2h7c0.288 0 0.5 0.212 0.5 0.5s-0.212 0.5-0.5 0.5h-7c-0.288 0-0.5-0.212-0.5-0.5s0.212-0.5 0.5-0.5z" fill="url(#a)"/>
 <path transform="translate(0) scale(1) matrix(3.2 0 0 3.2 -6.4 -6.4)" d="m8.5 6c-1.369 0-2.5 1.131-2.5 2.5s1.131 2.5 2.5 2.5h3c1.369 0 2.5-1.131 2.5-2.5s-1.131-2.5-2.5-2.5zm0 2h3c0.288 0 0.5 0.212 0.5 0.5s-0.212 0.5-0.5 0.5h-3c-0.288 0-0.5-0.212-0.5-0.5s0.212-0.5 0.5-0.5z" fill="url(#a)"/>
</svg>
