<svg version="1.1" viewBox="0 0 64 64" xmlns="http://www.w3.org/2000/svg">
 <defs>
  <linearGradient id="a" y1="1">
   <stop stop-color="#5433ff" offset="0"/>
   <stop stop-color="#20bdff" offset=".5"/>
   <stop stop-color="#a5fecb" offset="1"/>
  </linearGradient>
 </defs>
 <path transform="translate(.0015 .003) scale(1) translate(0) scale(1)" d="m19.2 0c-10.57 0-19.2 8.633-19.2 19.2v25.6c0 10.57 8.633 19.2 19.2 19.2h25.6c10.57 0 19.2-8.633 19.2-19.2v-9.602c0-7.03-5.77-12.8-12.8-12.8v-3.201c0-10.57-8.633-19.2-19.2-19.2zm0 6.4h12.8c7.107 0 12.8 5.692 12.8 12.8v6.4a3.2 3.2 0 0 0 3.199 3.201h3.199c3.571 0 6.4 2.826 6.4 6.398v9.602c0 7.107-5.692 12.8-12.8 12.8h-25.6c-7.107 0-12.8-5.692-12.8-12.8v-25.6c0-7.107 5.692-12.8 12.8-12.8z" fill="url(#a)"/>
 <path transform="translate(.0015 .003) scale(1) translate(0) scale(1)" d="m20.8 35.2c-4.381 0-8 3.619-8 8s3.619 8 8 8h22.4c4.381 0 8-3.619 8-8s-3.619-8-8-8zm0 6.4h22.4c0.9216 0 1.602 0.678 1.602 1.6s-0.68 1.602-1.602 1.602h-22.4c-0.9216 0-1.602-0.68-1.602-1.602s0.68-1.6 1.602-1.6z" fill="url(#a)"/>
 <path transform="translate(.0015 .003) scale(1) translate(0) scale(1)" d="m20.8 12.8c-4.381 0-8 3.619-8 8s3.619 8 8 8h9.6c4.381 0 8-3.619 8-8s-3.619-8-8-8zm0 6.398h9.6c0.9216 0 1.6 0.68 1.6 1.602s-0.678 1.6-1.6 1.6h-9.6c-0.9216 0-1.602-0.678-1.602-1.6s0.68-1.602 1.602-1.602z" fill="url(#a)"/>
</svg>
