<svg version="1.1" viewBox="0 0 64 64" xmlns="http://www.w3.org/2000/svg" xmlns:xlink="http://www.w3.org/1999/xlink">
 <defs>
  <linearGradient id="a" y1="1">
   <stop stop-color="#02aa93" offset="0"/>
   <stop stop-color="#67ff80" offset="1"/>
  </linearGradient>
  <linearGradient id="b" x1="69.23" x2="129.6" y1="64.11" y2="3.721" gradientTransform="matrix(.5441 0 0 .4844 -22.1 13.95)" gradientUnits="userSpaceOnUse" xlink:href="#a"/>
 </defs>
 <path transform="translate(-.00099 .001954) scale(1) matrix(1.124 0 0 1.124 -3.982 -3.982)" d="m32 3.541a9.831 9.831 0 0 0-4.916 1.319l-16.22 9.362a9.7 9.7 0 0 0-4.85 8.4v19.09a9.198 9.198 0 0 0 4.598 7.965l16.32 9.42a10.14 10.14 0 0 0 10.14 0l15.45-8.918a10.94 10.94 0 0 0 5.467-9.472v-18.42a9.121 9.121 0 0 0-4.558-7.899l-16.51-9.528a9.831 9.831 0 0 0-4.916-1.319zm0.1425 8.664a6.839 6.839 0 0 1 3.277 0.914l11.48 6.629a6.345 6.345 0 0 1 3.175 5.496v12.82a7.607 7.607 0 0 1-3.805 6.587l-10.75 6.205a7.051 7.051 0 0 1-7.051 0l-11.35-6.554a6.399 6.399 0 0 1-3.199-5.541v-13.28a6.748 6.748 0 0 1 3.375-5.844l11.28-6.514a6.839 6.839 0 0 1 2.706-0.8775 6.839 6.839 0 0 1 0.8567-0.03649z" fill="url(#a)"/>
 <path transform="translate(-.00099 .001954) scale(1)" d="m22.88 15.76a1.625 1.625 0 0 0-1.566 2.296l2.398 5.269c-4.084 2.318-7.074 6.382-7.914 11.56-0.2816 1.729-0.3835 3.588 0.234 5.273 0.7041 1.928 2.14 3.122 3.83 3.791 1.517 0.6066 3.336 0.8276 5.208 0.9359 1.922 0.1127 4.253 0.117 6.933 0.117 2.68 0 5.013-0.0043 6.933-0.117 1.872-0.1083 3.694-0.3336 5.213-0.9359 1.69-0.6716 3.126-1.863 3.83-3.791 0.6174-1.69 0.5135-3.544 0.2318-5.273-0.8449-5.182-3.832-9.247-7.916-11.56l2.398-5.269a1.626 1.626 0 1 0-2.962-1.345l-2.405 5.301a17.12 17.12 0 0 0-5.323-0.8384 17.12 17.12 0 0 0-5.319 0.8384l-2.405-5.301a1.625 1.625 0 0 0-1.397-0.9532zm9.123 8.666c6.499 0 11.92 4.331 13 10.98 1.018 6.263-2.166 6.348-13 6.348s-14.02-0.08666-13-6.348c1.083-6.653 6.499-10.98 13-10.98m-5.527 7.045a1.625 1.625 0 0 0-1.517 1.621v3.25a1.625 1.625 0 0 0 3.25 0v-3.25a1.625 1.625 0 0 0-1.733-1.621m10.83 0a1.625 1.625 0 0 0-1.517 1.621v3.25a1.625 1.625 0 0 0 1.625 1.625 1.625 1.625 0 0 0 1.625-1.625v-3.25a1.625 1.625 0 0 0-1.733-1.621" fill="url(#b)" stroke-width="2.166"/>
</svg>
