<svg image-rendering="optimizeSpeed" version="1.1" viewBox="0 0 64 64" xmlns="http://www.w3.org/2000/svg">
 <defs>
  <linearGradient id="a" x1="1.761" x2="45.46" y1="-37.26" y2="-46.38" gradientUnits="userSpaceOnUse">
   <stop stop-color="#fe7a19" offset="0"/>
   <stop stop-color="#e94800" offset="1"/>
  </linearGradient>
  <linearGradient id="b" x1="22.14" x2="11.97" y1="-60.12" y2="-49.95" gradientUnits="userSpaceOnUse">
   <stop stop-color="#fbd140" offset="0"/>
   <stop stop-color="#fd9a03" offset="1"/>
  </linearGradient>
  <linearGradient id="d" x1="35.42" x2="27.83" y1="-33.29" y2="-23.29" gradientUnits="userSpaceOnUse">
   <stop stop-color="#f37429" offset="0"/>
   <stop stop-color="#fbd140" offset="1"/>
  </linearGradient>
 </defs>
 <path transform="translate(-5e-5) scale(1) translate(.007157 .001343) scale(.9996) translate(9.455 72.61) scale(.9673)" d="m9.832-52.99-3.221 4.414-5.773 7.912.004.008a3.83 3.83 0 0 0-.799 2.326 3.827 3.827 0 0 0 3.828 3.826h31.92a3 3 0 0 1 .147.08 3 3 0 0 1 .343.26 3 3 0 0 1 .305.302 3 3 0 0 1 .258.346 3 3 0 0 1 .205.377 3 3 0 0 1 .152.404 3 3 0 0 1 .092.42l.002.02.004.02.002.02.002.02.002.022.002.02.002.02.002.02.002.022.002.02.002.02v.021l.002.021v.02l.002.022v.042l.002.02v.123l-.002.059-.004.06-.004.06-.006.058-.006.058-.007.059-.008.058-.01.059-.012.059-.011.058-.014.057-.014.058-.015.057-.018.057-.018.056-.017.057-.022.057-.02.054-.023.055a3 3 0 0 1-.193.363l3.053-4.137 5.926-8.029-.004-.007a3.83 3.83 0 0 0 .71-2.214 3.827 3.827 0 0 0-3.825-3.826h-31.93a3 3 0 0 1-.723-.483 3 3 0 0 1-.65-.974 3 3 0 0 1-.229-1.15 3 3 0 0 1 .229-1.148 3 3 0 0 1 .377-.659z" fill="url(#a)"/>
 <path transform="translate(-5e-5) scale(1) translate(.007157 .001343) scale(.9996) translate(9.455 72.61) scale(.9673)" d="M27.35-75.06a2.38 2.38 0 0 0-1.93.996l-.006-.002-15.56 21.04a3 3 0 0 0-.4.69 3 3 0 0 0-.229 1.147 3 3 0 0 0 .229 1.15 3 3 0 0 0 .65.975 3 3 0 0 0 .723.483h13.88l4.982-23.65-.004-.003a2.4 2.4 0 0 0 .047-.45 2.38 2.38 0 0 0-2.383-2.382zM11.72-54.14l-.137.025zm-1.09.422-.12.078zm4.606 2.68-.006.088zm-.469 1.457-.078.119z" fill="url(#b)"/>
 <path transform="translate(-5e-5) scale(1) translate(.007157 .001343) scale(.9996) translate(9.455 72.61) scale(.9673)" d="m21.93-34.5-4.699 22.83.004.002a2.4 2.4 0 0 0-.041.412 2.38 2.38 0 0 0 2.383 2.381 2.38 2.38 0 0 0 2.016-1.113l14.84-19.76.002-.002.223-.297.029-.039.047-.062.158-.215a3 3 0 0 0 .193-.363l.024-.055.02-.055.02-.056.018-.057.018-.057.018-.056.015-.057.014-.059.014-.056.011-.059.012-.058.01-.059.008-.059.007-.058.006-.059.006-.058.004-.059.004-.06.002-.06v-.123l-.002-.02v-.042l-.002-.021v-.02l-.002-.022v-.02l-.002-.021-.002-.02-.002-.021-.002-.02-.002-.021-.002-.02-.002-.021-.002-.02-.002-.021-.004-.02-.002-.02a3 3 0 0 0-.092-.42 3 3 0 0 0-.152-.403 3 3 0 0 0-.205-.377 3 3 0 0 0-.258-.346 3 3 0 0 0-.305-.303 3 3 0 0 0-.343-.26 3 3 0 0 0-.147-.08h-2.896z" fill="url(#d)"/>
</svg>
