<svg version="1.1" viewBox="0 0 64 64" xmlns="http://www.w3.org/2000/svg">
 <defs>
  <linearGradient id="c" y1=".5" y2=".5">
   <stop stop-color="#fe45f0" offset="0"/>
   <stop stop-color="#ff7e78" offset="1"/>
  </linearGradient>
  <linearGradient id="a" x2="0" y1="1">
   <stop stop-color="#ff0015" offset="0"/>
   <stop stop-color="#fc00a3" offset="1"/>
  </linearGradient>
  <linearGradient id="b" x1="1" x2="0" y1=".5" y2=".5">
   <stop stop-color="#00e1ff" offset="0"/>
   <stop stop-color="#0063ff" offset="1"/>
  </linearGradient>
 </defs>
 <path transform="translate(-14.84 -14.83) scale(1.464) translate(.002 .002) scale(.9999) translate(-2e-5) scale(1) translate(.00105 9.4e-5) scale(.9998) matrix(.9999 0 0 .9999 .008509 .003906)" d="m31.21 11.85 0.06445 40.34a1.686 1.686 0 0 0 1.684 1.684 1.648 1.648 0 0 0 1.613-1.684v-40.34z" fill="url(#a)"/>
 <path transform="translate(-14.84 -14.83) scale(1.464) translate(.002 .002) scale(.9999) translate(-2e-5) scale(1) translate(.00105 9.4e-5) scale(.9998) matrix(.9999 0 0 .9999 .008509 .003906)" d="m28.62 10.13a1.342 1.342 0 0 0-1.115 2.086l3.941 5.912a1.672 1.672 0 0 0 2.781 0l3.943-5.912a1.342 1.342 0 0 0-1.115-2.086z" fill="url(#a)"/>
 <path transform="translate(-14.84 -14.83) scale(1.464) translate(.002 .002) scale(.9999) translate(-2e-5) scale(1) translate(.00105 9.4e-5) scale(.9998) matrix(.9999 0 0 .9999 .008509 .003906)" d="m25.66 18.53a1.222 1.222 0 0 0-1.225 1.223v0.07617a1.222 1.222 0 0 0 1.225 1.223h0.916a1.222 1.222 0 0 0 1.223-1.223v-0.07617a1.222 1.222 0 0 0-1.223-1.223zm-3.363 5.043a1.222 1.222 0 0 0-1.223 1.223v0.07617a1.222 1.222 0 0 0 1.223 1.223h4.279a1.222 1.222 0 0 0 1.223-1.223v-0.07617a1.222 1.222 0 0 0-1.223-1.223zm-6.723 5.043a1.222 1.222 0 0 0-1.223 1.223v0.07617a1.222 1.222 0 0 0 1.223 1.223h11a1.222 1.222 0 0 0 1.223-1.223v-0.07617a1.222 1.222 0 0 0-1.223-1.223zm-3.361 5.043a1.222 1.222 0 0 0-1.225 1.223v0.07617a1.222 1.222 0 0 0 1.225 1.223h14.36a1.222 1.222 0 0 0 1.223-1.223v-0.07617a1.222 1.222 0 0 0-1.223-1.223zm3.361 5.043a1.222 1.222 0 0 0-1.223 1.223v0.07617a1.222 1.222 0 0 0 1.223 1.223h11a1.222 1.222 0 0 0 1.223-1.223v-0.07617a1.222 1.222 0 0 0-1.223-1.223zm6.723 5.043a1.222 1.222 0 0 0-1.223 1.223v0.07617a1.222 1.222 0 0 0 1.223 1.223h4.279a1.222 1.222 0 0 0 1.223-1.223v-0.07617a1.222 1.222 0 0 0-1.223-1.223z" fill="url(#b)"/>
 <path transform="translate(-14.84 -14.83) scale(1.464) translate(.002 .002) scale(.9999) translate(-2e-5) scale(1) translate(.00105 9.4e-5) scale(.9998) matrix(.9999 0 0 .9999 .008509 .003906)" d="m39.19 23.07c-0.619 0.03338-1.285 0.5768-1.283 1.18l-0.02344 17.81c0 0.8042 1.184 1.503 1.861 1.025l12.76-8.934c0.6815-0.4718 0.6799-1.58 0-2.053l-12.73-8.875c-0.1699-0.1184-0.3697-0.1653-0.5762-0.1543z" fill="url(#c)"/>
</svg>
