<svg version="1.1" viewBox="0 0 64 64" xmlns="http://www.w3.org/2000/svg" xmlns:xlink="http://www.w3.org/1999/xlink">
 <defs>
  <linearGradient id="d" y1=".5" y2=".5">
   <stop stop-color="#00fffa" offset="0"/>
   <stop stop-color="#0078ff" offset="1"/>
  </linearGradient>
  <linearGradient id="f" x1="11.96" x2="4.279" y1="27.47" y2="27.47" gradientTransform="scale(2.55 .3922)" gradientUnits="userSpaceOnUse" xlink:href="#d"/>
  <linearGradient id="a" y1=".5" y2=".5">
   <stop stop-color="#0abe18" offset="0"/>
   <stop stop-color="#3efb00" offset="1"/>
  </linearGradient>
  <linearGradient id="e" x1="20.82" x2="13.14" y1="27.47" y2="27.47" gradientTransform="scale(2.55 .3922)" gradientUnits="userSpaceOnUse" xlink:href="#a"/>
  <linearGradient id="b" y2="1">
   <stop stop-color="#ff00d4" offset="0"/>
   <stop stop-color="#0040ff" offset="1"/>
  </linearGradient>
  <linearGradient id="c" x2="0" y1="1">
   <stop stop-color="#879af2" offset="0"/>
   <stop stop-color="#d3208b" offset=".5"/>
   <stop stop-color="#fda000" offset="1"/>
  </linearGradient>
  <linearGradient id="h" x1="34.92" x2="34.92" y1="31.67" y2="14.39" gradientTransform="matrix(.9489 0 0 1.054 1.964 .293)" gradientUnits="userSpaceOnUse" xlink:href="#c"/>
  <linearGradient id="g" x1="10.91" x2="10.91" y1="33.66" y2="15.45" gradientTransform="matrix(1 0 0 .9998 .6849 .00304)" gradientUnits="userSpaceOnUse" xlink:href="#c"/>
 </defs>
 <path transform="translate(0) scale(1) translate(0) scale(1) translate(0 -1.4e-5) scale(1) matrix(.9999 0 0 .9999 0 .00304)" d="m6.4 0.7539a1.882 1.882 0 0 0-1.883 1.883v37.65a1.882 1.882 0 0 0 1.883 1.883h51.2a1.882 1.882 0 0 0 1.883-1.883v-37.65a1.882 1.882 0 0 0-1.883-1.883zm1.883 3.764h47.44v33.88h-47.44z" fill="url(#b)"/>
 <path transform="translate(0) scale(1) translate(0) scale(1) translate(0 -1.4e-5) scale(1)" d="m12.8 15.45c-0.661 0-1.211 0.5478-1.211 1.209v0.6132c0 0.661 0.5497 1.209 1.211 1.209h2.434c0.661 0 1.211-0.5478 1.211-1.209v-0.6132c-2e-6 -0.661-0.5497-1.209-1.211-1.209zm6.067 0c-0.661 0-1.213 0.5478-1.213 1.209v0.6132c0 0.661 0.5517 1.209 1.213 1.209h4.254c0.661 0 1.209-0.5478 1.209-1.209v-0.6132c0-0.661-0.5478-1.209-1.209-1.209zm-6.067 4.244c-0.661 0-1.211 0.5497-1.211 1.211v0.6112c0 0.661 0.5497 1.211 1.211 1.211h2.436c0.661 0 1.213-0.5497 1.213-1.211v-0.6112c0-0.661-0.5517-1.211-1.213-1.211zm6.069 0c-0.661 0-1.213 0.5497-1.213 1.211v0.6112c0 0.661 0.5517 1.211 1.213 1.211h7.897c0.661 0 1.211-0.5497 1.211-1.211v-0.6112c0-0.661-0.5497-1.211-1.211-1.211zm-6.063 6.687c-0.661 0-1.213 0.5497-1.213 1.211v0.6112c0 0.661 0.5517 1.211 1.213 1.211h9.72c0.661 0 1.207-0.5497 1.207-1.211v-0.6112c0-0.661-0.5458-1.211-1.207-1.211zm13.35 0c-0.661 0-1.207 0.5497-1.207 1.211v0.6112c0 0.661 0.5458 1.211 1.207 1.211h2.436c0.661 0 1.209-0.5497 1.209-1.211v-0.6112c0-0.661-0.5478-1.211-1.209-1.211zm-13.35 4.246c-0.661 0-1.213 0.5478-1.213 1.209v0.6132c0 0.661 0.5517 1.209 1.213 1.209h7.895c0.661 0 1.211-0.5478 1.211-1.209v-0.6132c0-0.661-0.5497-1.209-1.211-1.209zm11.53 0c-0.661 0-1.213 0.5478-1.213 1.209v0.6132c0 0.661 0.5517 1.209 1.213 1.209h2.432c0.661 0 1.211-0.5478 1.211-1.209v-0.6132c0-0.661-0.5497-1.209-1.211-1.209z" fill="url(#g)" stroke-width=".9999"/>
 <path transform="translate(0) scale(1) translate(0) scale(1) translate(0 -1.4e-5) scale(1)" d="m36.31 15.45c-0.661 0-1.213 0.5478-1.213 1.209v0.6132c0 0.661 0.5517 1.209 1.213 1.209h9.718c0.661 0 1.209-0.5478 1.209-1.209v-0.6132c0-0.661-0.5478-1.209-1.209-1.209zm0.0039 4.244c-0.661 0-1.207 0.5497-1.207 1.211v0.6112c0 0.661 0.5458 1.209 1.207 1.209h2.438c0.661 0 1.209-0.5478 1.209-1.209v-0.6112c0-0.661-0.5478-1.211-1.209-1.211zm6.071 0c-0.661 0-1.213 0.5497-1.213 1.211v0.6112c0 0.661 0.5517 1.209 1.213 1.209h7.897c0.661 0 1.211-0.5478 1.211-1.209v-0.6112c0-0.661-0.5497-1.211-1.211-1.211zm-6.071 6.687c-0.661 0-1.207 0.5497-1.207 1.211v0.6112c0 0.661 0.5458 1.211 1.207 1.211h9.722c0.661 0 1.211-0.5497 1.211-1.211v-0.6112c0-0.661-0.5497-1.211-1.211-1.211zm0 4.244c-0.661 2e-6 -1.207 0.5497-1.207 1.211v0.6112c0 0.661 0.5458 1.211 1.207 1.211h7.901c0.661 0 1.209-0.5497 1.209-1.211v-0.6112c0-0.661-0.5478-1.211-1.209-1.211zm11.53 0c-0.661 2e-6 -1.209 0.5497-1.209 1.211v0.6112c0 0.661 0.5478 1.211 1.209 1.211h2.436c0.661 0 1.209-0.5497 1.209-1.211v-0.6112c0-0.661-0.5478-1.211-1.209-1.211z" fill="url(#h)" stroke-width=".9999"/>
 <path transform="translate(0) scale(1) translate(0) scale(1) translate(0 -1.4e-5) scale(1) matrix(.9999 0 0 .9999 0 .00304)" d="m34.51 9.268a1 1 0 0 0-1 1v1.012a1 1 0 0 0 1 1h17.58a1 1 0 0 0 1-1v-1.012a1 1 0 0 0-1-1z" fill="url(#e)"/>
 <path transform="translate(0) scale(1) translate(0) scale(1) translate(0 -1.4e-5) scale(1) matrix(.9999 0 0 .9999 0 .00304)" d="m11.91 9.268a1 1 0 0 0-1 1v1.012a1 1 0 0 0 1 1h17.58a1 1 0 0 0 1-1v-1.012a1 1 0 0 0-1-1z" fill="url(#f)"/>
 <path transform="translate(0) scale(1) translate(0) scale(1) translate(0 -1.4e-5) scale(1) matrix(.9999 0 0 .9999 0 .00304)" d="m1.883 38.4a1.882 1.882 0 0 0-1.883 1.883v21.08a1.882 1.882 0 0 0 1.883 1.883h60.24a1.882 1.882 0 0 0 1.883-1.883v-21.08a1.882 1.882 0 0 0-1.883-1.883zm1.881 3.766h56.47v17.32h-56.47z" fill="url(#b)"/>
 <path transform="translate(0) scale(1) translate(0) scale(1) translate(0 -1.4e-5) scale(1) matrix(.9999 0 0 .9999 0 .00304)" d="m39.13 43.3 2e-3 2e-3c-0.07126 0.0036-0.1424 0.01119-0.2129 0.02539-0.2827 0.05712-0.5424 0.1982-0.7461 0.4023l-4.6 4.598c-0.2736 0.2714-0.4266 0.6423-0.4258 1.027l-2e-3 -2e-3c-5.94e-4 0.3854 0.154 0.7544 0.4277 1.025l4.6 4.6c0.4154 0.4181 1.043 0.5435 1.588 0.3184 0.2656-0.1109 0.4912-0.2974 0.6504-0.5371 0.1596-0.2392 0.2444-0.521 0.2441-0.8086v-2.344h12.76c1.243-4.27e-4 2.252-1.009 2.252-2.252v-0.0039c0-0.5964-0.2363-1.168-0.6582-1.59-0.4223-0.4237-0.9952-0.6641-1.594-0.666h-12.76v-2.342c3.79e-4 -0.2877-0.08444-0.5693-0.2441-0.8086-0.1592-0.2397-0.3848-0.4262-0.6504-0.5371-0.1995-0.08228-0.4151-0.1183-0.6289-0.1074z" fill="url(#d)"/>
 <path transform="translate(0) scale(1) translate(0) scale(1) translate(0 -1.4e-5) scale(1) matrix(.9999 0 0 .9999 0 .00304)" d="m24.92 46.31c-0.1599 0.0088-0.3194 0.04411-0.4727 0.1074-0.2656 0.1109-0.4931 0.2993-0.6523 0.5391-0.1596 0.2392-0.2444 0.5191-0.2441 0.8066v2.344h-12.75c-1.243 4.29e-4 -2.252 1.007-2.252 2.25v0.0059c0 0.5964 0.2363 1.168 0.6582 1.59 0.4223 0.4237 0.9952 0.6621 1.594 0.6641h12.75v2.342c-3.79e-4 0.2877 0.08444 0.5693 0.2441 0.8086 0.1592 0.2397 0.3868 0.4262 0.6523 0.5371 0.266 0.1097 0.5578 0.1388 0.8398 0.08203 0.2827-0.05712 0.5424-0.1962 0.7461-0.4004l4.6-4.598c0.2736-0.2714 0.4266-0.6423 0.4258-1.027 7.3e-5 -0.3847-0.1526-0.7548-0.4258-1.025l-4.598-4.598c-0.2596-0.2613-0.602-0.409-0.9551-0.4277-0.05297-0.0028-0.1069-0.0029-0.1602 0z" fill="url(#a)"/>
</svg>
