<svg xmlns="http://www.w3.org/2000/svg" viewBox="0 0 64 64"><defs><linearGradient id="a" x1="1" x2="0" y1="1"><stop offset="0" stop-color="#00ff6f"/><stop offset="1" stop-color="#1eff01"/></linearGradient><linearGradient id="c" x1="1" x2="0" y1=".5" y2=".5"><stop offset="0" stop-color="#364f6b"/><stop offset=".428" stop-color="#6b5072"/><stop offset="1" stop-color="#fc5185"/></linearGradient></defs><path fill="url(#a)" d="M45.71 0a18.29 18.29 0 0 0-17.34 12.77l22.85 22.85a18.28 18.28 0 0 0 12.77-17.34C63.99 8.18 55.804 0 45.71 0m4.57 6.857c3.787 0 6.856 3.069 6.856 6.856a6.856 6.856 0 1 1-6.856-6.856m-30.66 28.37L0 54.847v9.143h9.143l4.666-4.57h9.047v-9.143l4.57-4.57h2.678z"/><path fill="url(#c)" d="M0 0v9.143l54.85 54.85h9.143V54.85L9.143 0z"/></svg>