<svg xmlns="http://www.w3.org/2000/svg" viewBox="0 0 64 64"><defs><linearGradient id="a" x1="1" x2="0" y1=".5" y2=".5"><stop offset="0" stop-color="#00fffa"/><stop offset="1" stop-color="#0078ff"/></linearGradient></defs><path fill="url(#a)" d="M28.63 1.56a17.3 17.3 0 0 0-12.2 5.049c-3.23 3.24-5.049 7.631-5.049 12.2s1.819 8.959 5.049 12.2a17.3 17.3 0 0 0 12.2 5.051c4.55 0 8.919-1.8 12.15-5s5.061-7.56 5.101-12.11c.006-.966-.774-1.757-1.74-1.765s-1.755.768-1.761 1.734c-.03 3.63-1.489 7.1-4.069 9.65a13.7 13.7 0 0 1-9.68 3.99c-3.65 0-7.151-1.451-9.721-4.031-2.58-2.57-4.03-6.069-4.03-9.719s1.45-7.151 4.03-9.721a13.72 13.72 0 0 1 9.721-4.03c3.35 0 6.59 1.231 9.1 3.441a1.75 1.75 0 0 0 2.32-2.62 17.28 17.28 0 0 0-11.42-4.32zm.564 4.764c-2.449-.11-4.899.5-7.024 1.783a12.52 12.52 0 0 0-5.675 7.704 12.2 12.2 0 0 0-.363 2.889 1.494 1.494 0 0 0 1.48 1.513 1.505 1.505 0 0 0 1.52-1.484 9.502 9.502 0 0 1 4.586-8.054 9.5 9.5 0 0 1 7.191-1.087c2.446.604 4.555 2.156 5.856 4.311s1.69 4.744 1.085 7.191c-.604 2.446-2.156 4.555-4.31 5.856a9.5 9.5 0 0 1-10.05-.145 1.504 1.504 0 0 0-2.074.456 1.495 1.495 0 0 0 .451 2.068 12.523 12.523 0 0 0 13.222.189 12.52 12.52 0 0 0 5.675-7.704 12.52 12.52 0 0 0-1.433-9.46 12.493 12.493 0 0 0-10.138-6.027zm13.21 3.571a1.747 1.747 0 0 0-1.575 2.565c.25.48.47.98.66 1.48.343.905 1.356 1.363 2.26 1.02s1.363-1.354 1.02-2.26c-.25-.63-.529-1.26-.839-1.86a1.75 1.75 0 0 0-1.526-.944zm-23.81 12.02a1.499 1.499 0 0 0-1.315 2.13c.222.477.468.94.751 1.38a1.499 1.499 0 1 0 2.545-1.585 8.5 8.5 0 0 1-.573-1.06 1.49 1.49 0 0 0-1.408-.865zm-6.772 7.042a1.75 1.75 0 0 0-1.214.568l-7.27 8.02a4.64 4.64 0 0 0-1.22 3.141c0 1.36.59 2.66 1.62 3.54l1.2 1.04a4.82 4.82 0 0 0 3.151 1.17c1.36 0 2.66-.57 3.57-1.57h.01l7.27-8.02c.651-.718.6-1.826-.115-2.475s-1.823-.592-2.474.125l-7.27 8.01a1.333 1.333 0 0 1-1.85.11l-1.202-1.04c-.26-.22-.408-.54-.408-.89 0-.29.109-.57.299-.79h.01l7.27-8.01a1.751 1.751 0 0 0-1.376-2.929z" transform="translate(-2.226 -2.222)scale(1.426)"/></svg>