<svg xmlns="http://www.w3.org/2000/svg" fill="none" viewBox="0 0 64 64"><defs><linearGradient id="a" x1="9.209" x2="50.45" y1="32" y2="32" gradientUnits="userSpaceOnUse"><stop offset="0" stop-color="#5570ff"/><stop offset="1" stop-color="#4dd3ff"/></linearGradient><linearGradient id="c" x1="29" x2="29" y1="51.4" y2="12" gradientUnits="userSpaceOnUse"><stop offset="0" stop-color="#ffa800"/><stop offset="1" stop-color="#fff737"/></linearGradient></defs><path stroke="url(#a)" stroke-width="6" d="M32 60c15.46 0 28-12.54 28-28S47.46 4 32 4 4 16.54 4 32s12.54 28 28 28z" transform="translate(-1.032 -1.032)scale(1.032)"/><path fill="url(#c)" stroke="url(#c)" d="M33.62 12c-3.922.002-7.755 1.175-11.01 3.368s-5.774 5.308-7.245 8.944h-3.91l-2.462 4.925h5.103q-.165 1.226-.178 2.462l-2.462 4.925h3.116a19.7 19.7 0 0 0 19.049 14.774 19.7 19.7 0 0 0 15.376-7.387h-7.222a14.77 14.77 0 0 1-8.153 2.462 14.78 14.78 0 0 1-13.913-9.85h16.38l2.462-4.925h-19.7q.008-1.24.222-2.462h19.48l2.462-4.925h-20.16a14.768 14.768 0 0 1 12.777-7.388c2.899.004 5.732.86 8.148 2.462h7.208a19.7 19.7 0 0 0-15.356-7.387z" transform="translate(-1.032 -1.032)scale(1.032)"/></svg>