<svg version="1.1" viewBox="0 0 64 64" xmlns="http://www.w3.org/2000/svg">
 <defs>
  <linearGradient id="a" x1="1" x2="0" y2="1">
   <stop stop-color="#02aa93" offset="0"/>
   <stop stop-color="#67ff80" offset="1"/>
  </linearGradient>
 </defs>
 <path transform="translate(0) scale(1) translate(.00033 -2e-4) scale(1) translate(1.431 1.433) scale(.9552)" d="M3.52 41.89a1.5 1.5 0 0 0-1.106.49c-.792.861-1.451 1.945-1.451 3.27v9.174c0 1.915 1.227 3.52 2.932 4.768s4.003 2.271 6.779 3.135c5.552 1.728 13.05 2.77 21.33 2.77s15.77-1.04 21.33-2.77c2.776-.864 5.075-1.886 6.779-3.135s2.932-2.853 2.932-4.768V45.65c0-1.324-.659-2.408-1.451-3.27a1.5 1.5 0 0 0-2.26.059c-1.211 1.455-4.68 3.229-9.52 4.422s-11.03 1.924-17.81 1.924c-6.773 0-12.97-.73-17.81-1.924s-8.308-2.967-9.52-4.422a1.5 1.5 0 0 0-1.154-.549m.664 3.346c2.22 1.866 4.988 3.479 9.287 4.539 5.14 1.267 11.54 2.01 18.53 2.01s13.39-.743 18.53-2.01c4.3-1.06 7.07-2.673 9.287-4.539.045.127.22.33.22.414v9.174c0 .6-.424 1.403-1.71 2.346-1.286.942-3.314 1.891-5.885 2.691-5.141 1.6-12.42 2.635-20.44 2.635-8.026 0-15.29-1.035-20.43-2.635-2.57-.8-4.608-1.749-5.894-2.69-1.286-.943-1.711-1.746-1.711-2.347V45.65c0-.085.176-.287.22-.414z" fill="url(#a)"/>
 <path transform="translate(0) scale(1) translate(.00033 -2e-4) scale(1) translate(1.431 1.433) scale(.9552)" d="M60.43 23.54a1.5 1.5 0 0 0-1.104.541c-1.211 1.455-4.68 3.246-9.52 4.441s-11.03 1.924-17.81 1.924c-6.772 0-12.97-.738-17.81-1.934s-8.308-2.976-9.52-4.432a1.5 1.5 0 0 0-1.154-.54 1.5 1.5 0 0 0-1.221.626l-.635.885a2 2 0 0 0-.095.164c-.264.49-.606 1.174-.606 2.096v9.174c0 1.915 1.227 3.52 2.932 4.768s4.003 2.272 6.779 3.135c5.552 1.725 13.05 2.76 21.33 2.76 8.276 0 15.77-1.017 21.33-2.73 2.777-.857 5.072-1.87 6.779-3.125s2.932-2.88 2.932-4.807v-9.174c0-.93-.334-1.474-.547-1.971a1.5 1.5 0 0 0-.154-.29l-.635-.884a1.5 1.5 0 0 0-1.272-.627zm-56.3 3.32c2.217 1.884 5.02 3.498 9.346 4.566 5.139 1.27 11.54 2.02 18.53 2.02 6.987 0 13.39-.75 18.53-2.02 4.32-1.067 7.119-2.675 9.336-4.557.053.165.14.424.166.453h.006v9.162c0 .636-.427 1.44-1.711 2.383s-3.315 1.891-5.885 2.684c-5.139 1.586-12.41 2.596-20.44 2.596-8.026 0-15.3-1.027-20.44-2.625-2.57-.799-4.599-1.75-5.885-2.69-1.286-.942-1.711-1.746-1.711-2.347v-9.174c0-.043.089-.264.162-.451z" fill="url(#a)"/>
 <path transform="translate(0) scale(1) translate(.00033 -2e-4) scale(1) translate(1.431 1.433) scale(.9552)" d="M32-1.5c-8.28 0-15.77 1.041-21.33 2.77-2.776.864-5.075 1.884-6.779 3.133S.959 7.258.959 9.173v9.068c0 1.915 1.227 3.519 2.932 4.768s4.003 2.271 6.779 3.135c5.552 1.728 13.05 2.77 21.33 2.77s15.77-1.041 21.33-2.77c2.776-.864 5.075-1.894 6.779-3.143s2.932-2.845 2.932-4.76V9.173c0-1.915-1.227-3.52-2.932-4.77S56.106 2.134 53.33 1.27C47.778-.458 40.28-1.5 32-1.5m0 3c8.026 0 15.3 1.035 20.44 2.635 2.57.8 4.599 1.749 5.885 2.691s1.711 1.745 1.711 2.346v9.068c0 .599-.425 1.403-1.711 2.346-1.286.942-3.314 1.891-5.885 2.691-5.141 1.6-12.42 2.635-20.44 2.635-8.026 0-15.3-1.035-20.44-2.635-2.57-.8-4.599-1.749-5.885-2.691s-1.711-1.745-1.711-2.346V9.172c0-.599.425-1.403 1.711-2.346 1.286-.942 3.314-1.891 5.885-2.691C16.701 2.535 23.98 1.5 32 1.5m0 1.441c-5.547 0-10.55.514-14.27 1.375-1.861.43-3.402.937-4.596 1.586-.597.324-1.119.684-1.549 1.164s-.777 1.151-.777 1.904c0 .754.348 1.424.777 1.904s.952.837 1.549 1.162c1.194.65 2.725 1.156 4.586 1.588 3.722.864 8.732 1.385 14.28 1.385 5.547 0 10.56-.52 14.28-1.385 1.861-.432 3.392-.938 4.586-1.588.597-.325 1.119-.682 1.549-1.162s.777-1.151.777-1.904-.347-1.424-.777-1.904-.952-.84-1.549-1.164c-1.194-.649-2.735-1.155-4.596-1.586-3.722-.862-8.723-1.375-14.27-1.375m0 3c5.358 0 10.2.512 13.6 1.299 1.699.393 3.042.865 3.836 1.297.325.177.484.32.607.434a2.7 2.7 0 0 1-.607.431c-.795.433-2.137.905-3.836 1.3-3.398.788-8.239 1.308-13.6 1.308-5.357 0-10.2-.52-13.6-1.309-1.699-.394-3.041-.866-3.836-1.299a2.7 2.7 0 0 1-.607-.431c.123-.114.282-.257.607-.434.794-.432 2.137-.904 3.836-1.297 3.398-.786 8.238-1.299 13.6-1.299" fill="url(#a)"/>
</svg>
