<svg xmlns="http://www.w3.org/2000/svg" viewBox="0 0 64 64"><defs><linearGradient id="a" y2="1"><stop offset="0" stop-color="#feaa00"/><stop offset=".5" stop-color="#fd0575"/><stop offset="1" stop-color="#7b31fe"/></linearGradient><linearGradient id="b" x1="1" x2="0" y1="1"><stop offset="0" stop-color="#00fffa"/><stop offset="1" stop-color="#0078ff"/></linearGradient></defs><path fill="url(#a)" d="M4.359 11.63a4.36 4.36 0 0 0-4.361 4.361v14.54c0 1.605 1.303 2.908 2.908 2.908s2.908-1.303 2.908-2.908v-11.63c0-.803.65-1.453 1.453-1.453h49.43c.803 0 1.453.65 1.453 1.453v2.908a2.908 2.908 0 0 0 5.816 0v-5.816a4.364 4.364 0 0 0-4.363-4.361zm56.7 18.9a2.91 2.91 0 0 0-2.908 2.908v11.63c0 .803-.65 1.453-1.453 1.453H7.268c-.802 0-1.453-.65-1.453-1.453V42.16c0-1.605-1.303-2.908-2.908-2.908S-.001 40.555-.001 42.16v5.814a4.364 4.364 0 0 0 4.361 4.363h55.25a4.366 4.366 0 0 0 4.363-4.363v-14.54a2.91 2.91 0 0 0-2.908-2.908z" transform="translate(.002 .004)"/><path fill="url(#b)" d="M47.98 20.35c-.802 0-1.453.653-1.453 1.455v2.906c0 .803.65 1.455 1.453 1.455h2.908c.803 0 1.455-.653 1.455-1.455v-2.906c0-.802-.653-1.455-1.455-1.455zm-8.73 8.73c-.802 0-1.453.65-1.453 1.453v2.908c0 .803.65 1.453 1.453 1.453h2.908c.803 0 1.453-.65 1.453-1.453v-2.908c0-.802-.65-1.453-1.453-1.453zM18.9 37.801c-.802 0-1.453.65-1.453 1.453v2.908c0 .803.65 1.453 1.453 1.453h26.17c.803 0 1.453-.65 1.453-1.453v-2.908c0-.802-.65-1.453-1.453-1.453z" transform="translate(.002 .004)"/><path fill="url(#a)" d="M13.08 20.35c-.802 0-1.453.653-1.453 1.455v2.906c0 .803.65 1.455 1.453 1.455h2.908c.803 0 1.455-.653 1.455-1.455v-2.906c0-.802-.653-1.455-1.455-1.455zm8.73 0c-.802 0-1.455.653-1.455 1.455v2.906c0 .803.653 1.455 1.455 1.455h2.906c.803 0 1.455-.653 1.455-1.455v-2.906c0-.802-.653-1.455-1.455-1.455zm8.721 0c-.802 0-1.453.653-1.453 1.455v2.906c0 .803.65 1.455 1.453 1.455h2.906c.803 0 1.453-.653 1.453-1.455v-2.906c0-.802-.65-1.455-1.453-1.455zm8.719 0c-.802 0-1.453.653-1.453 1.455v2.906c0 .803.65 1.455 1.453 1.455h2.908c.803 0 1.453-.653 1.453-1.455v-2.906c0-.802-.65-1.455-1.453-1.455zm-26.17 8.73c-.803 0-1.453.65-1.453 1.453v2.908c0 .803.65 1.453 1.453 1.453h2.908c.802 0 1.455-.65 1.455-1.453v-2.908c0-.802-.653-1.453-1.455-1.453zm8.73 0c-.802 0-1.455.65-1.455 1.453v2.908c0 .803.653 1.453 1.455 1.453h2.906c.802 0 1.455-.65 1.455-1.453v-2.908c0-.802-.653-1.453-1.455-1.453zm8.721 0c-.802 0-1.453.65-1.453 1.453v2.908c0 .803.65 1.453 1.453 1.453h2.906c.803 0 1.453-.65 1.453-1.453v-2.908c0-.802-.65-1.453-1.453-1.453zm17.45 0c-.803 0-1.453.65-1.453 1.453v2.908c0 .803.65 1.453 1.453 1.453h2.908c.802 0 1.455-.65 1.455-1.453v-2.908c0-.802-.653-1.453-1.455-1.453zm-37.8 8.721c-.803 0-1.455.65-1.455 1.453v2.908c0 .803.653 1.453 1.455 1.453h2.906c.802 0 1.455-.65 1.455-1.453v-2.908c0-.802-.653-1.453-1.455-1.453zm40.7 0c-.802 0-1.453.65-1.453 1.453v2.908c0 .803.65 1.453 1.453 1.453h2.908c.803 0 1.453-.65 1.453-1.453v-2.908c0-.802-.65-1.453-1.453-1.453z" transform="translate(.002 .004)"/></svg>