<svg xmlns="http://www.w3.org/2000/svg" style="isolation:isolate" viewBox="0 0 64 64"><linearGradient id="a" x1=".179" x2=".848" y1=".039" y2=".993" gradientTransform="matrix(38.5 0 0 48 4.75 0)" gradientUnits="userSpaceOnUse" transform="scale(1.333)"><stop offset=".06" stop-color="#2b86d0"/><stop offset=".89" stop-color="#21d789"/></linearGradient><path fill="url(#a)" fill-rule="evenodd" d="M14.88 11.81a18.96 18.96 0 0 1 9.121-2.314c3.3 0 6.408.832 9.115 2.311a9.56 9.56 0 0 0-2.415-4.041 9.5 9.5 0 0 0-6.7-2.77 9.51 9.51 0 0 0-9.121 6.814M9.751 28.75c0-3.78 1.5-7.4 4.17-10.08 2.68-2.67 6.3-4.17 10.08-4.17s7.4 1.5 10.08 4.17c2.67 2.68 4.17 6.3 4.17 10.08s-1.5 7.4-4.17 10.08c-2.68 2.67-6.3 4.17-10.08 4.17s-7.4-1.5-10.08-4.17c-2.67-2.68-4.17-6.3-4.17-10.08m-.244-12.66a19.17 19.17 0 0 0-4.756 12.66c0 10.62 8.626 19.25 19.25 19.25s19.25-8.626 19.25-19.25c0-4.872-1.814-9.323-4.802-12.72l.022-.545.03-.9v-.09c0-3.84-1.53-7.53-4.25-10.25s-6.41-4.25-10.25-4.25-7.53 1.53-10.25 4.25-4.25 6.41-4.25 10.25v.07l.006 1.517zm20.49 12.66a6 6 0 0 1-1.757 4.243 6.003 6.003 0 0 1-8.486 0 6.003 6.003 0 0 1 0-8.486 6.003 6.003 0 0 1 8.486 0 6 6 0 0 1 1.757 4.243" transform="scale(1.333)"/><linearGradient id="b" x2="1" y1=".5" y2=".5" gradientTransform="matrix(2.37 0 0 5 22.82 9.5)" gradientUnits="userSpaceOnUse" transform="scale(1.333)"><stop offset="0" stop-color="#fc4988"/><stop offset=".983" stop-color="#ea333e"/></linearGradient><path fill="url(#b)" d="M24 9.5q-.594.012-1.185.064V14.5h2.37V9.564A17 17 0 0 0 24 9.5" transform="scale(1.333)"/><linearGradient id="d" x2="1" y1=".5" y2=".5" gradientTransform="translate(10.96 15.43)scale(26.07)" gradientUnits="userSpaceOnUse" transform="scale(1.333)"><stop offset="0" stop-color="#00ffd8"/><stop offset=".983" stop-color="#00ffb8"/></linearGradient><path fill="url(#d)" d="M22.82 15.43v3.555h2.37V15.43zm-6.776 3.4-1.676 1.676 1.676 1.676 1.676-1.676zm15.92 0-1.676 1.676 1.676 1.676 1.676-1.676zm-21 8.452v2.37h3.556v-2.37zm22.52 0v2.37h3.556v-2.37zm-17.44 7.47-1.676 1.676 1.676 1.676 1.676-1.676zm15.92 0-1.676 1.676 1.676 1.676 1.676-1.676zm-9.146 3.196v3.556h2.37v-3.556z" transform="scale(1.333)"/></svg>