<svg version="1.1" viewBox="0 0 64 64" xmlns="http://www.w3.org/2000/svg">
 <defs>
  <linearGradient id="a" x1="1" x2="0" y2="1">
   <stop stop-color="#879af2" offset="0"/>
   <stop stop-color="#d3208b" offset=".5"/>
   <stop stop-color="#fda000" offset="1"/>
  </linearGradient>
 </defs>
 <path transform="translate(.00155) scale(1) translate(.00037) scale(1)" d="m39.32 0c-6.079 0-11.92 2.43-16.22 6.73-4.305 4.3-6.73 10.14-6.73 16.22s2.43 11.92 6.73 16.23 10.14 6.728 16.22 6.728c2.224 0 4.42-0.3164 6.559-0.9473 1.512-0.4517 2.376-2.051 1.924-3.572s-2.047-2.389-3.56-1.938l-0.0039 0.0059c-1.607 0.4728-3.257 0.7168-4.922 0.7168-4.563 0-8.954-1.808-12.18-5.037-3.215-3.229-5.039-7.62-5.039-12.18s1.824-8.954 5.039-12.18c3.229-3.215 7.62-5.035 12.18-5.035 4.563 0 8.954 1.82 12.18 5.035 3.229 3.229 5.037 7.62 5.037 12.18 0 3.344-0.9753 6.629-2.812 9.428-0.8718 1.322-0.502 3.106 0.8242 3.977 1.328 0.8718 3.112 0.4975 3.982-0.834 2.44-3.731 3.744-8.107 3.744-12.57 0-6.079-2.428-11.92-6.728-16.22-4.3-4.305-10.15-6.73-16.23-6.73zm-0.01172 8.582c-3.501 0-6.89 1.279-9.516 3.604-2.626 2.326-4.304 5.524-4.734 9.012-0.1422 1.18 0.7008 2.254 1.881 2.396s2.252-0.6995 2.394-1.881c0.3016-2.439 1.479-4.678 3.314-6.299 1.837-1.636 4.207-2.525 6.66-2.525 1.148 0 2.281 0.187 3.357 0.5742 1.117 0.3964 2.348-0.1937 2.748-1.314 0.399-1.121-0.1878-2.352-1.312-2.748-1.536-0.5452-3.157-0.8184-4.793-0.8184zm-23.67 30.33c-0.6429 0.02996-1.273 0.3041-1.74 0.8144l-10.43 11.51c-1.134 1.234-1.75 2.843-1.75 4.508 0 1.952 0.8465 3.815 2.324 5.078l1.723 1.492c1.263 1.09 2.869 1.68 4.52 1.68 1.952 0 3.817-0.8184 5.123-2.254h0.01367l10.43-11.51c0.9351-1.029 0.8599-2.621-0.166-3.551-1.026-0.9311-2.616-0.8522-3.551 0.1777l-10.43 11.5c-0.374 0.4017-0.8766 0.6152-1.422 0.6152-0.4452 0-0.8906-0.1568-1.234-0.457l-1.723-1.494c-0.3727-0.3148-0.5879-0.7736-0.5879-1.275 0-0.4162 0.1571-0.8187 0.4297-1.135h0.01562l10.43-11.49c0.9351-1.03 0.8606-2.622-0.1641-3.553-0.513-0.4656-1.168-0.6804-1.81-0.6504z" fill="url(#a)"/>
</svg>
