<svg style="isolation:isolate" version="1.1" viewBox="0 0 64 64" xmlns="http://www.w3.org/2000/svg">
 <linearGradient id="a" transform="translate(-.00463 -.003951) scale(1) translate(.3951 .3951) scale(1.317)" x1=".01624" x2=".9305" y1=".5823" y2=".1734" gradientTransform="matrix(45.99 0 0 48.6 1.003 -.3)" gradientUnits="userSpaceOnUse">
  <stop stop-color="#f17b41" offset="0"/>
  <stop stop-color="#e05ba2" offset=".5"/>
  <stop stop-color="#cd4bc9" offset=".975"/>
 </linearGradient>
 <path transform="translate(-.00463 -.003951) scale(1) translate(.3951 .3951) scale(1.317)" d="m33.3 29.66c1.149-0.343 2.36 0.316 2.703 1.471s-0.312 2.37-1.46 2.713c-1.624 0.479-3.291 0.719-4.98 0.719-4.62 0-9.055-1.841-12.32-5.11s-5.11-7.704-5.11-12.32 1.841-9.055 5.11-12.32 7.704-5.11 12.32-5.11 9.055 1.841 12.32 5.11 5.11 7.704 5.11 12.32c0 3.389-0.991 6.712-2.844 9.545-0.661 1.011-2.016 1.294-3.024 0.632-1.007-0.661-1.288-2.014-0.626-3.018 1.395-2.125 2.136-4.62 2.136-7.159 0-3.465-1.373-6.799-3.825-9.251-2.452-2.441-5.786-3.824-9.251-3.824s-6.799 1.383-9.251 3.824c-2.441 2.452-3.825 5.786-3.825 9.251s1.384 6.799 3.825 9.251c2.452 2.452 5.786 3.825 9.251 3.825 1.264 0 2.517-0.186 3.737-0.545zm-11.32-13.47c-0.108 0.897-0.923 1.536-1.819 1.428s-1.536-0.924-1.428-1.82c0.327-2.648 1.602-5.077 3.596-6.843 1.994-1.765 4.566-2.735 7.224-2.735 1.242 0 2.474 0.207 3.64 0.621 0.854 0.301 1.3 1.236 0.997 2.087-0.304 0.851-1.239 1.298-2.087 0.997-0.817-0.294-1.678-0.436-2.55-0.436-1.863 0-3.661 0.676-5.056 1.918-1.394 1.231-2.288 2.931-2.517 4.783zm-8.902 16.25c0.71-0.782 0.653-1.99-0.125-2.697-0.779-0.707-1.987-0.65-2.697 0.125l-7.922 8.739c-0.861 0.937-1.329 2.158-1.329 3.422 0 1.482 0.643 2.898 1.765 3.857l1.308 1.133c0.959 0.828 2.179 1.275 3.432 1.275 1.482 0 2.898-0.621 3.89-1.711h0.011l7.921-8.739c0.71-0.781 0.654-1.99-0.125-2.696-0.779-0.707-1.987-0.646-2.697 0.136l-7.921 8.728c-0.284 0.305-0.665 0.468-1.079 0.468-0.338 0-0.676-0.12-0.937-0.348l-1.308-1.134c-0.283-0.239-0.446-0.588-0.446-0.969 0-0.316 0.119-0.621 0.326-0.861h0.011l7.922-8.728z" fill="url(#a)" fill-rule="evenodd"/>
</svg>
