<svg version="1.1" viewBox="0 0 64 64" xmlns="http://www.w3.org/2000/svg">
 <defs>
  <linearGradient id="b" y1=".5" y2=".5">
   <stop stop-color="#fe0844" offset="0"/>
   <stop stop-color="#feb302" offset="1"/>
  </linearGradient>
  <linearGradient id="a" y1="1">
   <stop stop-color="#5433ff" offset="0"/>
   <stop stop-color="#20bdff" offset=".5"/>
   <stop stop-color="#a5fecb" offset="1"/>
  </linearGradient>
 </defs>
 <path transform="translate(0) scale(1)" d="m19.1 37.14c-4.233 0-7.742 3.508-7.742 7.74v18.06h7.227v-18.06c0-0.3278 0.1878-0.5156 0.5156-0.5156h25.8c0.3278 0 0.5156 0.1878 0.5156 0.5156v18.06h7.227v-18.06c0-4.233-3.51-7.74-7.742-7.74z" fill="url(#b)"/>
 <path transform="translate(0) scale(1) translate(0) scale(1)" d="m4 0c-1.111 0-2.056 0.3884-2.834 1.166-0.7776 0.7776-1.166 1.723-1.166 2.834v56c0 1.111-3.63e-4 1.668 1.166 2.834 0.7776 0.7776 1.723 1.166 2.834 1.166h56c1.111 0 1.668 3.63e-4 2.834-1.166 0.7776-0.7776 1.166-1.723 1.166-2.834v-38.67c0-1.111-0.2783-2.333-0.834-3.666s-1.222-2.388-2-3.166l-11.66-11.66c-0.7779-0.7776-1.833-1.444-3.166-2-1.333-0.5557-2.555-0.834-3.666-0.834zm24 5.334h8c0.3609 0 0.6736 0.1306 0.9375 0.3945 0.2639 0.2636 0.3965 0.5762 0.3965 0.9375v13.33c0 0.3608-0.0012 0.5397-0.3965 0.9356-0.2636 0.2639-0.5762 0.3965-0.9375 0.3965h-8c-0.3608 0-0.5416-0.0012-0.9375-0.3965-0.2639-0.2636-0.3945-0.5743-0.3945-0.9356v-13.33c0-0.3609 0.1306-0.6736 0.3945-0.9375 0.2636-0.2639 0.5762-0.3945 0.9375-0.3945zm-22.66 0.003906h5.332v17.33c0 1.111 0.3884 2.056 1.166 2.834s1.721 1.166 2.832 1.166h24c1.111 0 2.054-0.3884 2.832-1.166s1.168-1.723 1.168-2.834v-17.33c0.4165 0 0.6228-9.905e-4 1.623 0.416 0.6668 0.278 1.14 0.5563 1.418 0.834l11.7 11.7c0.2777 0.2777 0.5544 0.7569 0.832 1.438 0.278 0.6806 0.418 1.215 0.418 1.604v37.33h-5.332l0.0059-0.01367h-5.33c-0.07663 0-0.1396 0.0052-0.1875 0.01367h-31.66c-0.03214-0.0084-0.08143-0.01367-0.1504-0.01367h-10.67z" fill="url(#a)"/>
</svg>
