<svg fill="none" version="1.1" viewBox="0 0 64 64" xmlns="http://www.w3.org/2000/svg">
 <defs>
  <linearGradient id="a" x1="42.96" x2="80.49" y1="118.9" y2="68.67" gradientUnits="userSpaceOnUse">
   <stop stop-color="#fe0844" offset="0"/>
   <stop stop-color="#feb302" offset="1"/>
  </linearGradient>
  <linearGradient id="c" x1="2" x2="151.6" y1="126" y2="60.79" gradientUnits="userSpaceOnUse">
   <stop stop-color="#0357d1" offset="0"/>
   <stop stop-color="#27cdfc" offset="1"/>
  </linearGradient>
 </defs>
 <path transform="translate(2e-5 1.9e-5) scale(1) translate(-.00042 -.01645) scale(.9998) translate(-1.032 -1.033) scale(.5162)" d="M97 124V89a8 8 0 0 0-8-8H39a8 8 0 0 0-8 8v35" stroke="url(#a)" stroke-width="14"/>
 <path transform="translate(2e-5 1.9e-5) scale(1) translate(-.00042 -.01645) scale(.9998) translate(-1.032 -1.033) scale(.5162)" d="M33 115.7h62l-3.229 8.073h-58.77zm72.33 0h10.33V43.37q0-1.13-.808-3.108-.807-1.978-1.614-2.785l-22.68-22.68q-.807-.807-2.745-1.615c-1.938-.808-2.341-.807-3.148-.807v33.58q0 3.23-2.26 5.49t-5.49 2.26h-46.5q-3.23 0-5.49-2.26t-2.26-5.49v-33.58h-10.33v103.3h20.67c2.906 0-11.84 4.09-10.33 2.583q2.26-2.26 5.49-2.26h67.17q3.23 0 5.489 2.26c1.507 1.507-9.041-2.583-5.812-2.583h10.33zm-31-74.92V14.95q0-1.05-.767-1.816-.767-.767-1.816-.767h-15.5q-1.05 0-1.816.767-.767.767-.767 1.816v25.83q0 1.05.767 1.816c.767.766 1.117.767 1.816.767h15.5q1.05 0 1.816-.767c.766-.767.767-1.117.767-1.816M126 43.363v74.92q0 3.23-2.26 5.49c-2.26 2.26-3.337 2.26-5.49 2.26H9.75q-3.23 0-5.49-2.26C2 121.513 2 120.436 2 118.283V9.783q0-3.23 2.26-5.49t5.49-2.26h74.92q3.23 0 7.104 1.615t6.135 3.875l22.6 22.6q2.26 2.26 3.875 6.135t1.615 7.104z" fill="url(#c)"/>
</svg>
