<svg version="1.1" viewBox="0 0 64 64" xmlns="http://www.w3.org/2000/svg">
 <defs>
  <linearGradient id="a" x2="0" y2="1">
   <stop stop-color="#fd5" offset="0"/>
   <stop stop-color="#ff80e5" offset=".5"/>
   <stop stop-color="#0cf" offset="1"/>
  </linearGradient>
 </defs>
 <path transform="translate(0) scale(1) translate(0) scale(1) translate(1e-4 2e-4) scale(1) translate(.00394 .00341) scale(1) translate(-.00113 .000138) scale(1)" d="m50.1 0-2.502 0.003906h-18.73l-1.246 0.003906h-14.98a8.808 8.808 0 0 0-3.982 0.9551 8.788 8.788 0 0 0-4.363 5.107c-0.14 0.4336-0.2474 0.8798-0.3203 1.34a8.711 8.711 0 0 0-0.1074 1.371v1.033h0.09766c0.01258 0.1162 7e-3 0.2335 0.02539 0.3496a8.808 8.808 0 0 0 0.8516 2.623 8.808 8.808 0 0 0 1.629 2.234l0.877 0.875 0.875 0.877 1.752 1.754 0.877 0.875 1.754 1.754 0.8789 0.877 0.875 0.877 4.385 4.385 0.873 0.875 2.633 2.633 0.877 0.875 0.877 0.877 0.877 0.875 0.877 0.877a8.905 8.905 0 0 0 2.232 1.627 8.808 8.808 0 0 0 4.008 0.959c0.4633 6.45e-4 0.924-0.03449 1.383-0.1055a8.808 8.808 0 0 0 2.629-0.8535 8.808 8.808 0 0 0 2.232-1.627l0.8242-0.8203 0.8242-0.8242 0.8223-0.8242 0.8242-0.8242 0.8223-0.8203 4.106-4.106a2.801 2.801 0 0 1 1.957-0.7949h2.932c0.3097 0.0013 0.6027 0.04769 0.8789 0.1387 0.2865 0.09421 0.5497 0.2288 0.7891 0.4043a2.814 2.814 0 0 1 1.172 2.297v0.1113c-0.0077 0.211-0.02783 0.4227-0.08203 0.627a2.807 2.807 0 0 1-0.7383 1.277l-0.8809 0.8789-0.875 0.877-0.8809 0.877-0.8789 0.877-0.877 0.8809-0.8789 0.877-1.756 1.756-0.8789 0.877-0.8789 0.8789-1.76 1.756-0.875 0.877-0.8809 0.877-3.512 3.514-0.8789 0.877-2.635 2.635a2.863 2.863 0 0 1-1.582 0.8047 2.904 2.904 0 0 1-1.752-0.2754 2.904 2.904 0 0 1-0.7285-0.5293l-0.3906-0.3887-0.02539-0.0293a0.9679 0.9679 0 0 0-0.08398-0.06836v2e-3l2e-3 0.0039a8.711 8.711 0 0 0-1.039-0.8809 8.779 8.779 0 0 0-5.127-1.652h-12.61c-0.4562 0-0.9017 0.04373-1.334 0.1289a6.832 6.832 0 0 0-5.508 6.707v3.871a6.872 6.872 0 0 0 1.152 3.803c0.251 0.373 0.5347 0.717 0.8516 1.033a6.795 6.795 0 0 0 3.504 1.873c0.4326 0.08518 0.8781 0.1309 1.334 0.1309h42.58a6.872 6.872 0 0 0 3.801-1.152 6.891 6.891 0 0 0 1.885-1.887c0.2471-0.3704 0.4573-0.7642 0.6309-1.182a6.775 6.775 0 0 0 0.5215-2.619v-3.871c0-0.4556-0.04375-0.8991-0.1309-1.332a6.775 6.775 0 0 0-0.3906-1.283 6.872 6.872 0 0 0-1.482-2.217 6.775 6.775 0 0 0-1.033-0.8516 6.775 6.775 0 0 0-2.469-1.022 6.775 6.775 0 0 0-1.332-0.1309h-3.871a2.965 2.965 0 0 0-1.482 5.537c0.4356 0.2516 0.9452 0.3965 1.482 0.3965h2.902c0.331 0 0.643 0.05649 0.9141 0.1484 0.3117 0.1065 0.5688 0.267 0.7305 0.416 0.2013 0.1858 0.2266 0.3195 0.2266 0.3379v2.904a1.868 1.868 0 0 1-1.871 1.873h-40.64a1.858 1.858 0 0 1-1.324-0.5508 1.839 1.839 0 0 1-0.4062-0.6055 1.839 1.839 0 0 1-0.1387-0.7168v-1.936a1.839 1.839 0 0 1 0.5449-1.322 1.878 1.878 0 0 1 1.324-0.5488h11.64c0.2478 0 0.4844 0.03569 0.7109 0.0957a2.807 2.807 0 0 1 1.248 0.6992l0.4824 0.4805-2e-3 -0.0059c0.331 0.3323 0.6804 0.6326 1.049 0.9004a8.808 8.808 0 0 0 3.812 1.576c0.4581 0.07227 0.9188 0.1087 1.381 0.1094 0.4627-6.45e-4 0.9221-0.03711 1.381-0.1094 0.4556-0.07098 0.9063-0.1764 1.35-0.3184a8.711 8.711 0 0 0 2.461-1.258c0.3691-0.2684 0.7191-0.5687 1.051-0.9004l2.631-2.631 0.877-0.875 0.877-0.877 0.8789-0.875 0.875-0.8789 1.754-1.754 0.877-0.875 1.752-1.752 0.875-0.8789 3.51-3.508 0.877-0.875 0.877-0.877 0.877-0.875 0.877-0.8789 0.873-0.877c0.333-0.3317 0.6339-0.6817 0.9023-1.051a8.711 8.711 0 0 0 1.254-2.463c0.142-0.442 0.2474-0.8908 0.3184-1.346 0.01742-0.1162 0.01575-0.2315 0.0293-0.3477h0.09375v-1.031a8.808 8.808 0 0 0-0.4277-2.713 8.711 8.711 0 0 0-1.248-2.445 8.808 8.808 0 0 0-5.725-3.51 8.711 8.711 0 0 0-1.373-0.1074h-2.934a8.711 8.711 0 0 0-2.59 0.3945 8.711 8.711 0 0 0-1.225 0.4824 8.961 8.961 0 0 0-2.152 1.482l-0.8633 0.8633-0.8398 0.834-0.8379 0.8379-0.8398 0.8379-1.672 1.674-0.8398 0.834-0.8359 0.8398-1.676 1.672a2.865 2.865 0 0 1-3.334 0.5293 2.904 2.904 0 0 1-0.7285-0.5293l-0.873-0.877-0.877-0.873-0.877-0.877-0.877-0.875-0.875-0.877-0.877-0.873-1.752-1.752-0.877-0.875-0.875-0.877-0.875-0.875-1.754-1.752-0.873-0.875-0.877-0.875-0.877-0.877-0.877-0.875-0.873-0.877-0.877-0.873-1.752-1.752-0.8867-0.8848-0.0098-0.0098a2.904 2.904 0 0 1-0.4824-0.5976 2.807 2.807 0 0 1-0.4062-1.451 2.826 2.826 0 0 1 0.541-1.666 2.855 2.855 0 0 1 2.297-1.172h38.7a2.841 2.841 0 0 1 2.842 2.838v0.1133c-0.0087 0.211-0.02881 0.4218-0.08398 0.627a2.846 2.846 0 0 1-0.7383 1.279l-0.7246 0.7168-0.7188 0.7207-0.7227 0.7207a2.991 2.991 0 0 0-0.8828 2.115c0 0.5362 0.1419 1.046 0.3945 1.482a2.972 2.972 0 0 0 3.756 1.234c0.3746-0.1645 0.7056-0.3991 0.9785-0.6875l1.379-1.383 0.7031-0.6992a8.808 8.808 0 0 0 2.154-3.514c0.142-0.4426 0.2493-0.8901 0.3203-1.346 0.01742-0.1152 0.01184-0.2334 0.02539-0.3477h0.0957v-1.033a8.808 8.808 0 0 0-0.4258-2.711 8.711 8.711 0 0 0-1.248-2.445 8.711 8.711 0 0 0-0.8965-1.047 8.762 8.762 0 0 0-6.201-2.57zm-41.57 21.05v2e-3c-0.4394 0-0.8608 0.1021-1.234 0.2754a3 3 0 0 0-0.9941 0.7461l-0.00391 0.0039a8.823 8.823 0 0 0-1.52 2.15 8.711 8.711 0 0 0-0.8144 2.562c-0.0684 0.4375-0.1029 0.8843-0.1035 1.342v1.031h0.09766c0.01258 0.1162 7e-3 0.2305 0.02539 0.3457a8.808 8.808 0 0 0 1.58 3.812c0.2684 0.3691 0.5687 0.7191 0.9004 1.051l0.9062 0.9082 0.9082 0.9082 0.9102 0.9082 0.9062 0.9082 0.9004 0.8965a2.961 2.961 0 0 0 2.133 0.9082 2.973 2.973 0 0 0 2.975-2.973 3 3 0 0 0-0.2227-1.135 2.952 2.952 0 0 0-0.6465-0.9707v-2e-3l-0.9023-0.9062-1.814-1.81-1.832-1.832a2.904 2.904 0 0 1-0.4824-0.5957 2.807 2.807 0 0 1-0.4062-1.453 2.807 2.807 0 0 1 0.375-1.394c0.1174-0.2046 0.2573-0.3941 0.4219-0.5664l0.0098-0.0098 0.01367-0.01172a2.952 2.952 0 0 0 0.8887-2.125 2.972 2.972 0 0 0-2.736-2.965h-0.00195l-0.01953-0.0098zm9.912 17.67a2.972 2.972 0 0 0-2.971 2.969 2.972 2.972 0 0 0 1.484 2.568 2.965 2.965 0 0 0 4.055-1.084 2.966 2.966 0 0 0-2.568-4.453z" fill="url(#a)"/>
</svg>
