<svg xmlns="http://www.w3.org/2000/svg" viewBox="0 0 64 64"><defs><linearGradient id="c" x2="0" y1="1"><stop offset="0" stop-color="#5433ff"/><stop offset=".5" stop-color="#20bdff"/><stop offset="1" stop-color="#a5fecb"/></linearGradient><linearGradient id="a" x2="0" y1="1"><stop offset="0" stop-color="#fea51d"/><stop offset="1" stop-color="#ff0a76"/></linearGradient></defs><path fill="url(#a)" d="M94.81 55.97c-2.618 0-4.739 2.129-4.739 4.755v28.53c0 2.626 2.121 4.755 4.739 4.755h66.37c2.618 0 4.739-2.129 4.739-4.755v-28.53c0-2.626-2.121-4.755-4.739-4.755zm-48.26 102a4.746 4.746 0 0 0-4.739 4.755v28.53a4.746 4.746 0 0 0 4.739 4.755h66.37a4.75 4.75 0 0 0 4.745-4.755v-28.53a4.75 4.75 0 0 0-4.745-4.755zm96.54 0a4.746 4.746 0 0 0-4.739 4.755v28.53a4.746 4.746 0 0 0 4.739 4.755h66.37a4.75 4.75 0 0 0 4.745-4.755v-28.53a4.75 4.75 0 0 0-4.745-4.755z" transform="translate(-15.52 -14.778)scale(.37123)"/><path fill="url(#c)" d="m108.1 82.3-30.82 68.2-5.119-2.525c-3.214-1.585-6.986.844-6.848 4.408l.781 20.08h-.002c.138 3.553 4.066 5.636 7.146 3.791l18.03-10.8c3.197-1.916 3.027-6.559-.299-8.199l-5.3-2.613 30.94-68.46zm35.94 0-8.512 3.871 30.94 68.46-5.295 2.611c-3.326 1.64-3.494 6.284-.297 8.199l18.03 10.8c3.08 1.844 7.007-.238 7.144-3.791l.781-20.08c.138-3.564-3.636-5.995-6.85-4.41l-5.123 2.527z" transform="translate(-15.52 -14.778)scale(.3712)"/></svg>