<svg version="1.1" viewBox="0 0 64 64" xmlns="http://www.w3.org/2000/svg">
 <defs>
  <linearGradient id="a" x1="1" x2="0" y1="1">
   <stop stop-color="#ff00d4" offset="0"/>
   <stop stop-color="#0040ff" offset="1"/>
  </linearGradient>
 </defs>
 <path transform="translate(0) scale(1) translate(-.009097) scale(.9997) translate(-.004252) scale(1.001)" d="m28.33 0v25.52c-8.804 5.348-13.27 13.94-13.01 21.88 0.1388 4.292 1.6 8.425 4.482 11.53 2.882 3.107 7.198 5.027 12.19 5.027s9.306-1.92 12.19-5.027c2.882-3.107 4.344-7.24 4.482-11.53 0.257-7.942-4.213-16.53-13.01-21.88v-25.52zm3.654 31.79h2e-3c6.632 4.07 9.533 10.24 9.367 15.38-0.09046 2.789-1.027 5.168-2.541 6.801s-3.594 2.684-6.826 2.684-5.314-1.052-6.828-2.684c-1.514-1.633-2.452-4.012-2.541-6.801-0.1655-5.131 2.736-11.31 9.367-15.38z" fill="url(#a)"/>
 <path transform="translate(0) scale(1) translate(-.009097) scale(.9997) translate(-.004252) scale(1.001)" d="m28.33 18.28c-2.025 0-3.656 1.631-3.656 3.656s1.631 3.654 3.656 3.654h7.309c2.025 0 3.656-1.629 3.656-3.654s-1.631-3.656-3.656-3.656z" fill="url(#a)"/>
 <path transform="translate(0) scale(1) translate(-.009097) scale(.9997) translate(-.004252) scale(1.001)" d="m28.33 10.97c-2.025 0-3.656 1.631-3.656 3.656s1.631 3.654 3.656 3.654h7.309c2.025 0 3.656-1.629 3.656-3.654s-1.631-3.656-3.656-3.656z" fill="url(#a)"/>
 <path transform="translate(0) scale(1) translate(-.009097) scale(.9997) translate(-.004252) scale(1.001)" d="m28.33 3.654c-2.025 0-3.656 1.631-3.656 3.656s1.631 3.654 3.656 3.654h7.309c2.025 0 3.656-1.629 3.656-3.654s-1.631-3.656-3.656-3.656z" fill="url(#a)"/>
</svg>
