<svg version="1.1" viewBox="0 0 64 64" xmlns="http://www.w3.org/2000/svg">
 <defs>
  <linearGradient id="a" x1="64.03" x2="64.03" y1="89.41" y2="5.936" gradientTransform="translate(.491 .45)scale(.494)" gradientUnits="userSpaceOnUse">
   <stop stop-color="#5570ff" offset="0"/>
   <stop stop-color="#4dd3ff" offset="1"/>
  </linearGradient>
  <linearGradient id="d" x1="62.26" x2="62.26" y1="122.3" y2="54.68" gradientTransform="translate(.491 .45)scale(.494)" gradientUnits="userSpaceOnUse">
   <stop stop-color="#02aa93" offset="0"/>
   <stop stop-color="#67ff80" offset="1"/>
  </linearGradient>
  <linearGradient id="b" x1="87.03" x2="87.03" y1="52.43" y2="26.18" gradientTransform="translate(.491 .45)scale(.494)" gradientUnits="userSpaceOnUse">
   <stop stop-color="#fd5900" offset="0"/>
   <stop stop-color="#ffde00" offset="1"/>
  </linearGradient>
  <linearGradient id="e" x1="32" x2="32" y1="58.94" gradientTransform="translate(-4.36 22.4)scale(.6503)" gradientUnits="userSpaceOnUse">
   <stop stop-color="#ff0061" offset="0"/>
   <stop stop-color="#ffa68d" offset="1"/>
  </linearGradient>
  <linearGradient id="f" x1="31.96" x2="31.9" y1="38.94" y2="16.4" gradientTransform="translate(-4.36 22.4)scale(.6503)" gradientUnits="userSpaceOnUse">
   <stop stop-color="#8d01a2" offset="0"/>
   <stop stop-color="#ff33db" offset="1"/>
  </linearGradient>
  <linearGradient id="g" x1="27.75" x2="60.21" y1="62.81" y2="30.7" gradientTransform="translate(-4.36 22.4)scale(.6503)" gradientUnits="userSpaceOnUse">
   <stop stop-color="#a93aff" offset="0"/>
   <stop stop-color="#ff81ff" offset="1"/>
  </linearGradient>
 </defs>
 <g transform="translate(0) scale(1) translate(6.2e-5 .00127) scale(1)" stroke-width=".494">
  <path transform="translate(0 -1.322)scale(.9999)" d="M40.56 2.666c-2.424.016-4.91.032-7.672.025h-.098c-5.92-.02-11.84-.011-17.76-.004l-4.46.004h-.003C5.34 2.688.577 6.811.287 11.742l-.002.018v.016c-.04 2.939-.032 5.876-.025 8.807q.005 1.88.006 3.758v.298L.26 29.082a19.2 19.2 0 0 1 6.117-6.2l.002-3.14q.003-3.622.004-7.244v-.01c-.016-1.48.98-3 2.506-3.612l.017-.006.016-.008c.592-.273 1.296-.355 2.096-.41q3.791-.001 7.582.004h.004c4.734.004 9.469.007 14.2-.012h.059c6.963.01 13.92.019 20.88.012 1.525.16 2.899.943 3.607 2.115.287.579.48 1.11.502 1.633v.013c.007 3.547.005 7.092.004 10.64-.003 3.878-.006 7.758.005 11.64v.004q-.012 3.932 0 7.86v.013c-.045 1.383 1.002 2.576 2.316 2.904l.008.002c.953.227 1.927-.032 2.641-.557.7-.515 1.223-1.347 1.172-2.326v-.025q.006-4.395.006-8.791v-.002c0-1.47-.006-2.94-.006-4.41v-1.625c.003-5.017.004-10.03 0-15.05v-.008c.012-1.357-.337-2.66-.836-3.856l-.011-.023a9.5 9.5 0 0 0-.967-1.635l.025-.018-.521-.605v-.002C59.95 4.319 57.325 3.003 54.57 2.74l-.182-.018h-.002l-.193-.017-.012.013-1.559-.025c-4.445-.074-8.173-.05-12.06-.026z" fill="url(#a)"/>
  <path transform="translate(0 -1.322)scale(.9999)" d="M43.59 13.38a7.3 7.3 0 0 0-2.552.403c-2.8.92-4.753 3.614-4.575 6.352.075 2.633 2.084 5.058 4.778 5.89l.365.077.362.079c3.235.725 6.826-1.013 8.024-3.876a6.06 6.06 0 0 0-.375-5.605c-.482-.82-1.199-1.492-1.97-2.086-1.174-.784-2.612-1.211-4.057-1.235z" fill="url(#b)" fill-rule="evenodd"/>
  <path transform="translate(0 -1.322)scale(.9999)" d="M39.22 32.73a2.75 2.75 0 0 0-1.404.416l-.025.016-.022.017a68 68 0 0 0-2.68 2.268 19 19 0 0 1 .309 3.4c0 .105-.017.407-.02.584l1.748 1.72q1.07-.943 2.154-1.858.288.283.574.569l.004.002.004.003c1.537 1.471 3.068 2.952 4.611 4.426l.002.002q3.062 2.953 6.135 5.898v-.002c1.703 1.64 3.411 3.274 5.104 4.916-.858.607-1.848.894-2.99.95-1.33.064-2.783-.092-4.17-.008-3.449-.008-6.898-.004-10.35 0h-.002q-3.003-.004-6.006-.004l-5.365 5.28q4.057.005 8.115 0h.002c3.543 0 7.091.004 10.64 0 2.53 0 5.063.01 7.596-.003h.002c3.893-.038 7.63-2.307 9.162-5.66l.008-.02.008-.019c.349-.977-.041-1.861-.576-2.5-.536-.639-1.216-1.151-1.64-1.619l-.011-.012-.014-.011c-1.923-1.853-3.848-3.7-5.77-5.551v.001a560 560 0 0 0-6.348-6.072l-.008-.007a506 506 0 0 0-5.482-5.297l-.002.002c-.494-.597-1.156-1.2-1.955-1.551a3.2 3.2 0 0 0-1.334-.276zM0 48.23q-.001 1.988.014 3.977v.016c.13 3.454 2.456 6.656 5.775 8.148l.015.005.246.092.022.008.002-.002c1.144.49 2.324.718 3.512.817a263 263 0 0 0-4.594-6.057C3.045 52.744 1.348 50.624 0 48.23z" fill="url(#d)"/>
 </g>
 <path transform="translate(0) scale(1) translate(6.2e-5 .00127) scale(1) translate(0 -1.322) scale(.9999)" d="M16.45 22.4C7.403 22.4 0 29.801 0 38.85c0 2.919.717 5.447 1.958 7.759s2.931 4.443 5.003 7.091c1.503 1.921 3.283 4.196 5.313 7.032l.587-5.2 1.03-1.014a194 194 0 0 0-2.973-3.916c-2.072-2.648-3.597-4.627-4.533-6.369s-1.36-3.216-1.36-5.384c0-6.323 5.1-11.43 11.42-11.43v-.001c6.323 0 11.43 5.105 11.43 11.43 0 .757-.053 1.43-.161 2.06l.163-.16c.774-.762 1.777-1.136 2.79-1.199l.066-.052h.201c.66 0 1.322.15 1.927.449q.034-.54.034-1.1c0-9.046-7.4-16.45-16.45-16.45z" fill="url(#e)"/>
 <path transform="translate(0) scale(1) translate(6.2e-5 .00127) scale(1) translate(0 -1.322) scale(.9999)" d="m16.43 30.65c-4.686 0-8.535 3.849-8.535 8.535s3.849 8.535 8.535 8.535 8.535-3.849 8.535-8.535-3.849-8.535-8.535-8.535m0 4.308c2.348 0 4.23 1.878 4.23 4.227s-1.882 4.23-4.23 4.23a4.21 4.21 0 0 1-4.227-4.23 4.21 4.21 0 0 1 4.227-4.227" fill="url(#f)"/>
 <path transform="translate(0) scale(1) translate(6.2e-5 .00127) scale(1) translate(0 -1.322) scale(.9999)" d="M30.94 40.08c-.957 0-1.916.362-2.647 1.081l-14.87 14.64-.582 5.16c-.194 1.744 1.32 3.215 3.066 3.025l5.237-.57 14.87-14.63.003-.003.041-.041.048-.048v-.003a3.67 3.67 0 0 0-.095-5.134l-2.428-2.39a3.75 3.75 0 0 0-2.64-1.08zm-.015 3.571a.14.14 0 0 1 .11.038l2.427 2.39c.056.056.056.123-.003.183l-1.406 1.385-2.614-2.573 1.406-1.388h.003a.12.12 0 0 1 .077-.035m-4.047 3.938 2.614 2.573-10 9.839-2.945.325.328-2.883z" fill="url(#g)"/>
</svg>
