<svg version="1.1" viewBox="0 0 64 64" xmlns="http://www.w3.org/2000/svg">
 <defs>
  <linearGradient id="a" y1=".5" y2=".5">
   <stop stop-color="#4bc0c8" offset="0"/>
   <stop stop-color="#c779d0" offset=".5"/>
   <stop stop-color="#ffe680" offset="1"/>
  </linearGradient>
 </defs>
 <path transform="translate(0) scale(1) translate(0) scale(1) translate(.00626 -3e-4) scale(1) translate(.000542 .000351) scale(1)" d="m14.6 3.057-2e-3 0.00195c-0.3839-2.904e-4 -0.7532 0.1515-1.025 0.4219l-1.537 1.525c-0.5676 0.5645-0.5676 1.498 0 2.062l4.945 4.912-4.945 4.91c-0.5695 0.5648-0.5695 1.5 0 2.064l1.537 1.525c0.5633 0.56 1.488 0.56 2.051 0l0.7676-0.7637 6.752-6.705c0.5695-0.5648 0.5695-1.5 0-2.064l-6.752-6.705-0.7676-0.7637c-0.2726-0.2704-0.6399-0.4222-1.023-0.4219zm14.41 0v0.00195c-0.3839-2.9e-4 -0.7532 0.1515-1.025 0.4219l-1.537 1.525c-0.5676 0.5645-0.5676 1.498 0 2.062l4.943 4.912-4.943 4.91c-0.5695 0.5648-0.5695 1.5 0 2.064l1.537 1.525c0.5633 0.56 1.488 0.56 2.051 0l0.7676-0.7637 6.752-6.705c0.5695-0.5648 0.5695-1.5 0-2.064l-6.752-6.705-0.7676-0.7637c-0.2726-0.2704-0.6419-0.4222-1.025-0.4219zm14.41 0v0.00195c-0.3839-2.909e-4 -0.7532 0.1515-1.025 0.4219l-1.537 1.525c-0.5676 0.5645-0.5676 1.498 0 2.062l4.945 4.912-4.945 4.91c-0.5695 0.5648-0.5695 1.5 0 2.064l1.537 1.525c0.5633 0.56 1.488 0.56 2.051 0l0.7676-0.7637 6.754-6.705c0.5695-0.5648 0.5695-1.5 0-2.064l-6.754-6.705-0.7676-0.7637c-0.2726-0.2704-0.6419-0.4222-1.025-0.4219z" fill="url(#a)"/>
 <path transform="translate(0) scale(1) translate(0) scale(1) translate(.00626 -3e-4) scale(1) translate(.000542 .000351)" d="m31.99 0c-6.802 0-11.97-0.01675-16.25 0.5586-4.291 0.5768-7.882 1.87-10.6 4.584-2.715 2.717-4.013 6.313-4.588 10.61-0.5755 4.283-0.5586 9.452-0.5586 16.25 0 6.802-0.01671 11.97 0.5586 16.25 0.5766 4.291 1.875 7.882 4.588 10.6 2.716 2.716 6.307 4.018 10.6 4.594 4.28 0.5742 9.455 0.5527 16.25 0.5527 6.802 0 11.97 0.02292 16.25-0.5527 4.291-0.5769 7.882-1.875 10.6-4.588l0.0059-0.0059c2.713-2.714 4.012-6.304 4.588-10.6 0.5758-4.281 0.5586-9.451 0.5586-16.25 0-6.802 0.01715-11.96-0.5586-16.25-0.5777-4.29-1.873-7.888-4.588-10.61a0.9696 0.9696 0 0 0-0.0059 0l-0.01172-0.00586c-2.714-2.709-6.295-4.003-10.58-4.578-4.281-0.5755-9.449-0.5586-16.25-0.5586zm-0.0039 6.27h0.0039c6.803 0 11.85 0.01415 15.42 0.4941 3.585 0.4817 5.468 1.282 6.996 2.81 1.533 1.534 2.332 3.426 2.812 7.008 0.04252 0.316 0.08347 0.6432 0.1191 0.9824h-50.69c0.03556-0.3393 0.07464-0.6665 0.1172-0.9824 0.4817-3.585 1.282-5.477 2.81-7.008 1.533-1.529 3.418-2.331 6.998-2.81 3.572-0.48 8.62-0.4941 15.42-0.4941zm-25.66 17.56h51.35c0.04909 2.382 0.05273 5.095 0.05273 8.168 0 6.803-0.02152 11.85-0.502 15.42-0.4819 3.581-1.282 5.464-2.812 6.996a0.9696 0.9696 0 0 0 0 0.0059c-1.528 1.53-3.414 2.327-6.996 2.807-3.572 0.48-8.614 0.502-15.42 0.502-6.803 0-11.85-0.02152-15.42-0.502-3.584-0.482-5.467-1.282-6.998-2.812a0.9696 0.9696 0 0 0-0.00586 0c-1.529-1.528-2.324-3.412-2.805-6.996-0.48-3.572-0.5-8.618-0.5-15.42 0-3.073 0.00402-5.786 0.05273-8.168z" fill="url(#a)"/>
 <path transform="translate(0) scale(1) translate(0) scale(1) translate(.00626 -3e-4) scale(1) translate(.000542 .000351)" d="m27.43 27.85v4e-3c-0.9272 0.01888-1.909 0.2882-2.719 0.8223-1.8 1.189-2.406 3.195-2.627 4.924-0.2195 1.712-0.2012 3.621-0.2012 6.1s-0.01772 4.398 0.2012 6.107c0.221 1.728 0.8201 3.734 2.617 4.924 0.9266 0.6138 2.078 0.8807 3.117 0.8144 1.001-0.06378 1.839-0.3716 2.596-0.7207 1.514-0.6994 2.949-1.692 4.803-2.94 1.832-1.231 3.283-2.172 4.508-3.303 1.258-1.16 2.408-2.867 2.408-4.881 0-2.017-1.15-3.719-2.408-4.877-1.228-1.13-2.677-2.072-4.506-3.303a0.6 0.6 0 0 0-2e-3 0c-1.855-1.246-3.284-2.243-4.797-2.943-0.7551-0.3492-1.592-0.653-2.594-0.7168-0.1287-0.0083-0.261-0.01226-0.3906-0.0098a0.6 0.6 0 0 0-0.0059-2e-3zm0.9902 6.965c0.7509 0.4164 1.698 0.9908 3.227 2.018 1.831 1.231 3.153 2.158 3.742 2.699v-2e-3c0.09389 0.08647 0.1235 0.1158 0.1856 0.1758-0.06153 0.05956-0.0915 0.08904-0.1856 0.1758-0.5858 0.5401-1.908 1.466-3.742 2.697-1.532 1.03-2.484 1.608-3.234 2.023-0.1011-1.023-0.1328-2.604-0.1328-4.9 0-2.292 0.03851-3.865 0.1406-4.887zm7.492 4.459a0.6 0.6 0 0 0-0.04492 0.1113l0.04492-0.04687a0.6 0.6 0 0 0-0.06836 0.09961 0.6 0.6 0 0 0-0.0957 0.2344l-2e-3 -0.01563v-0.2129zm-0.166 0.5977c0.0067 7e-3 0.02743 0.02896 0.0332 0.03516 0.0079 0.0084 0.01338 0.01596 0.01953 0.02344a0.6 0.6 0 0 0 0.1133 0.2051l-0.166-0.168z" fill="url(#a)"/>
</svg>
