<svg version="1.1" viewBox="0 0 64 64" xmlns="http://www.w3.org/2000/svg">
 <defs>
  <linearGradient id="a" x1="481.5" x2="49.81" y1="462.6" y2="30.88" gradientTransform="matrix(.1377 0 0 .1482 -4.575 -4.578)" gradientUnits="userSpaceOnUse">
   <stop stop-color="red" offset="0"/>
   <stop stop-color="#e700ff" stop-opacity=".962" offset="1"/>
  </linearGradient>
 </defs>
 <g transform="translate(0) scale(1) translate(0) scale(1) translate(0) scale(1) translate(-.00447 .002) scale(1)" stroke-width=".143">
  <path transform="scale(.9999)" d="M32 0a9.13 9.13 0 0 0-4.596 1.239l-21.71 12.64a6.87 6.87 0 0 0-3.406 5.917v24.405a6.87 6.87 0 0 0 3.405 5.92l.001.001 21.72 12.64h.001a9.13 9.13 0 0 0 4.406 1.236 2 2 0 0 0 .187.007 2 2 0 0 0 .186-.007 9.14 9.14 0 0 0 4.41-1.235h.001l21.72-12.64.002-.002a6.87 6.87 0 0 0 3.401-5.921V19.795a6.87 6.87 0 0 0-3.405-5.917l-21.72-12.64a9.13 9.13 0 0 0-4.596-1.24zm0 4.569c.792 0 1.585.207 2.296.621l20.46 11.91-22.76 13.39L9.236 17.1l20.46-11.91a4.56 4.56 0 0 1 2.297-.621zM6.86 20.999l22.86 13.45v24.36l-.01-.006L8 46.163a2.28 2.28 0 0 1-1.135-1.973v-23.2zm50.29 0v23.19c0 .816-.429 1.562-1.134 1.974l-21.71 12.64-.012.007V34.45L57.154 21z" fill="url(#a)"/>
  <g fill="#0cf">
   <path d="m32 14.85a3.429 2.286 0 0 0-3.429 2.286 3.429 2.286 0 0 0 3.43 2.286 3.429 2.286 0 0 0 3.428-2.286 3.429 2.286 0 0 0-3.429-2.286m-6.859 19.43a2.286 3.429 0 0 0-2.286 3.429 2.286 3.429 0 0 0 2.286 3.428 2.286 3.429 0 0 0 2.286-3.428 2.286 3.429 0 0 0-2.286-3.429m-13.71 4.58a2.286 3.429 0 0 0-2.286 3.428 2.286 3.429 0 0 0 2.286 3.429 2.286 3.429 0 0 0 2.286-3.429 2.286 3.429 0 0 0-2.286-3.428m27.43-4.58a2.286 3.429 0 0 0-2.285 3.429 2.286 3.429 0 0 0 2.285 3.428 2.286 3.429 0 0 0 2.286-3.428 2.286 3.429 0 0 0-2.286-3.429m13.71-7.999a2.286 3.429 0 0 0-2.286 3.429 2.286 3.429 0 0 0 2.286 3.428 2.286 3.429 0 0 0 2.286-3.428 2.286 3.429 0 0 0-2.286-3.43m-13.71 20.58a2.286 3.429 0 0 0-2.285 3.428 2.286 3.429 0 0 0 2.285 3.43 2.286 3.429 0 0 0 2.286-3.43 2.286 3.429 0 0 0-2.286-3.428m13.71-7.999a2.286 3.429 0 0 0-2.286 3.428 2.286 3.429 0 0 0 2.286 3.429 2.286 3.429 0 0 0 2.286-3.429 2.286 3.429 0 0 0-2.286-3.428"/>
  </g>
 </g>
</svg>
