<svg xmlns="http://www.w3.org/2000/svg" viewBox="0 0 64 64"><defs><linearGradient id="b" y1="1"><stop offset="0" stop-color="#5433ff"/><stop offset=".517" stop-color="#0bbdff"/><stop offset=".983" stop-color="#a5fecb"/></linearGradient><linearGradient id="a" y2="1"><stop offset=".026" stop-color="#f7f206"/><stop offset=".987" stop-color="#ffbb24"/></linearGradient></defs><path fill="url(#a)" d="M56.75 35.74a5.38 5.38 0 0 0-3.812 1.57l-9.969 9.969a11.76 11.76 0 0 0-3.203 5.988l-1.022 5.092a2.232 2.232 0 0 0 2.627 2.627l5.092-1.023a11.75 11.75 0 0 0 5.988-3.201h.006l9.963-9.971c2.087-2.088 2.087-5.537 0-7.623l-1.854-1.856a5.38 5.38 0 0 0-3.812-1.568zm.012 4.436a.93.93 0 0 1 .646.29l1.854 1.855c.382.383.382.93 0 1.312l-9.965 9.971a7.3 7.3 0 0 1-3.713 1.982l-1.803.36.362-1.803v-.006a7.3 7.3 0 0 1 1.982-3.701l9.969-9.971a.95.95 0 0 1 .667-.29z" transform="translate(.006 -.003)scale(.9998)"/><path fill="url(#b)" d="M12.17 2.988q-.883 0-1.756.047c-1.67.087-3.027.137-4.39.477A7.8 7.8 0 0 0 2.262 5.72C1.133 6.914.502 8.437.252 9.999.002 11.562.02 13.223.02 15.348v27.56c0 3.637-.28 5.653.992 7.677a5.7 5.7 0 0 0 2 2.006c1.144.715 2.255.817 3.655.906 1.417.09 3.175.088 5.499.088h.006c6.756-.018 12.96 2.833 18.37 6.886 1.458 1.094 3.499-.04 3.702-1.68V13.91c5.375-4.42 12.15-6.803 19.12-6.404h.012c1.672.09 2.827.174 3.544.353.718.18 1.03.344 1.598.942.502.53.69.929.85 1.92.158.991.173 2.514.173 4.64v15.17a2.232 2.232 0 1 0 4.464 0v-15.17c0-2.125.018-3.786-.232-5.349s-.878-3.09-2.01-4.286A7.8 7.8 0 0 0 58 3.531c-1.36-.34-2.713-.393-4.384-.482h-.008c-7.848-.447-15.42 2.248-21.57 7.08-5.66-4.467-12.58-7.136-19.87-7.124zm-.006 4.458.004.004.002.004h.006c6.482-.008 12.67 2.356 17.6 6.427v41.01c-5.264-3.485-11.23-5.795-17.61-5.777h-.006c-2.32 0-4.044 0-5.208-.074-.987-.063-1.537-.243-1.6-.245v.006l-.064-.04a1.2 1.2 0 0 1-.448-.448q-.027-.046-.057-.088c-.007-.013-.302-1.657-.302-5.323v-27.56c0-2.125.015-3.651.174-4.642s.347-1.388.85-1.918c.566-.599.88-.768 1.597-.948.718-.179 1.875-.261 3.546-.35h.006q.748-.04 1.51-.038M9.048 16.87a1.621 1.621 0 0 0 0 3.243h16.21a1.621 1.621 0 0 0 0-3.243zm29.77 0a1.621 1.621 0 0 0 0 3.243h16.21a1.621 1.621 0 0 0 0-3.243zM9.048 27.14a1.621 1.621 0 0 0 0 3.243h16.21a1.621 1.621 0 0 0 0-3.243zm29.77 0a1.621 1.621 0 0 0 0 3.243h16.21a1.621 1.621 0 0 0 0-3.243zm6.484 10.26-6.484.002a1.621 1.621 0 0 0 0 3.239h6.484l.166-.008a1.621 1.621 0 0 0 0-3.225zm-36.26.002a1.621 1.621 0 0 0 0 3.241h16.21a1.621 1.621 0 0 0 0-3.241z" transform="translate(.006 -.003)scale(.9998)"/></svg>