<svg xmlns="http://www.w3.org/2000/svg" viewBox="0 0 64 64"><defs><linearGradient id="a" x2="0" y2="1"><stop offset="0" stop-color="#00b59c"/><stop offset="1" stop-color="#9cffac"/></linearGradient></defs><path fill="url(#a)" d="M4.361 19.96A4.36 4.36 0 0 0 0 24.321v14.54c0 1.605 1.303 2.908 2.908 2.908s2.908-1.303 2.908-2.908v-11.63c0-.803.65-1.453 1.453-1.453h9.156a3.8 3.8 0 0 1-.475-.758l-.003-.008c-.433-.929-.387-1.752-.387-2.87v-2.183zm43.69.004v2.178c0 1.123.043 1.949-.393 2.875h.004c-.135.29-.293.537-.472.762h9.512c.803 0 1.453.65 1.453 1.453v2.906a2.908 2.908 0 0 0 5.816 0v-5.814a4.364 4.364 0 0 0-4.363-4.36zm13.02 18.9-.008.004a2.91 2.91 0 0 0-2.906 2.908v11.63c0 .802-.648 1.453-1.45 1.453H7.276c-.803 0-1.448-.65-1.448-1.453v-2.908a2.91 2.91 0 0 0-5.816 0v5.814a4.364 4.364 0 0 0 4.36 4.36h55.25a4.364 4.364 0 0 0 4.358-4.36v-14.54a2.906 2.906 0 0 0-2.906-2.906z"/><path fill="url(#a)" d="M13.08 28.68c-.802 0-1.453.653-1.453 1.455v2.906c0 .803.65 1.455 1.453 1.455h2.908c.803 0 1.455-.653 1.455-1.455v-2.906c0-.802-.653-1.455-1.455-1.455zm34.9 0c-.802 0-1.453.653-1.453 1.455v2.906c0 .803.65 1.455 1.453 1.455h2.908c.803 0 1.455-.653 1.455-1.455v-2.906c0-.802-.653-1.455-1.455-1.455zm-4.721.506-1.057.88c-1.682 1.403-3.059 2.558-4.316 3.479.205.555.737.951 1.363.951h2.908c.803 0 1.453-.653 1.453-1.455v-2.906c0-.362-.132-.694-.352-.95zm-22.69.184a1.45 1.45 0 0 0-.217.765v2.906c0 .803.653 1.455 1.455 1.455h2.906c.55 0 1.028-.306 1.275-.756-1.33-.952-2.783-2.17-4.586-3.674zm-7.492 8.04c-.803 0-1.453.65-1.453 1.454v2.908c0 .803.65 1.453 1.453 1.453h2.908c.802 0 1.455-.65 1.455-1.453v-2.908c0-.802-.653-1.453-1.455-1.453zm8.73 0c-.802 0-1.455.65-1.455 1.454v2.908c0 .803.653 1.453 1.455 1.453h2.906c.802 0 1.455-.65 1.455-1.453v-2.908c0-.802-.653-1.453-1.455-1.453zm8.721 0c-.802 0-1.453.65-1.453 1.454v2.908c0 .803.65 1.453 1.453 1.453h2.906c.803 0 1.453-.65 1.453-1.453v-2.908c0-.802-.65-1.453-1.453-1.453zm8.719 0c-.802 0-1.453.65-1.453 1.454v2.908c0 .803.65 1.453 1.453 1.453h2.908c.803 0 1.453-.65 1.453-1.453v-2.908c0-.802-.65-1.453-1.453-1.453zm8.73 0c-.803 0-1.453.65-1.453 1.454v2.908c0 .803.65 1.453 1.453 1.453h2.908c.802 0 1.455-.65 1.455-1.453v-2.908c0-.802-.653-1.453-1.455-1.453zm-37.8 8.722c-.803 0-1.455.65-1.455 1.453v2.908c0 .803.653 1.453 1.455 1.453h2.906c.802 0 1.455-.65 1.455-1.453v-2.908c0-.802-.653-1.453-1.455-1.453zm8.719 0c-.802 0-1.453.65-1.453 1.453v2.908c0 .803.65 1.453 1.453 1.453h26.17c.803 0 1.453-.65 1.453-1.453v-2.908c0-.802-.65-1.453-1.453-1.453zm31.98 0c-.802 0-1.453.65-1.453 1.453v2.908c0 .803.65 1.453 1.453 1.453h2.908c.803 0 1.453-.65 1.453-1.453v-2.908c0-.802-.65-1.453-1.453-1.453z"/><path fill="url(#a)" d="M29.37 3.309c-2.864 0-5.048-.011-6.889.236-1.842.248-3.456.822-4.658 2.025-1.041 1.041-1.617 2.406-1.904 3.924-.287 1.52-.343 3.253-.357 5.43q-.006.675-.004 1.42.002.402.004.778v5.018c0 1.119-.046 1.942.386 2.87l.004.008c.434.92 1.092 1.408 1.94 2.115l.069.051 3.447 2.881c2.232 1.86 3.928 3.285 5.518 4.31s3.168 1.655 4.877 1.655c1.71 0 3.292-.633 4.883-1.656s3.286-2.448 5.52-4.309l3.502-2.918c.859-.716 1.522-1.206 1.955-2.133h-.004c.435-.926.392-1.752.392-2.875v-5.016q.002-1.168-.004-2.197c-.014-2.178-.066-3.913-.353-5.432-.287-1.518-.87-2.877-1.908-3.918l-.006-.004c-1.205-1.203-2.811-1.778-4.652-2.025s-4.024-.236-6.889-.236zm0 3.314h4.863c2.864 0 4.978.01 6.445.207 1.466.197 2.181.512 2.758 1.088.495.497.788 1.08.998 2.193.21 1.116.279 2.712.293 4.84.005.666.006 1.394.006 2.172v5.018c0 1.119-.048 1.411-.074 1.467h-.004c-.024.05-.22.28-1.076.994l-3.5 2.916c-2.232 1.861-3.888 3.23-5.19 4.066s-2.158 1.131-3.09 1.131c-.93 0-1.786-.293-3.086-1.13-1.301-.838-2.951-2.207-5.184-4.067l-3.502-2.916-.018-.014c-.842-.704-1.036-.927-1.06-.98-.025-.054-.074-.352-.074-1.467v-5.018q-.001-.424-.004-.785-.002-.723.004-1.387c.014-2.128.082-3.724.293-4.84s.504-1.695 1.002-2.193c.575-.576 1.284-.891 2.75-1.088 1.467-.197 3.585-.207 6.449-.207z"/><path fill="url(#a)" d="m28.84 9.389-2.121.002a.88.88 0 0 0-.88.885v14.31c0 .488.392.885.88.885h2.119a.885.885 0 0 0 .885-.885V21.42c0-.2.066-.391.19-.547l.587-.748a.885.885 0 0 1 1.441.078l3.078 4.854a.89.89 0 0 0 .748.414h2.525a.887.887 0 0 0 .742-1.369l-4.56-7a.88.88 0 0 1 .047-1.033l4.166-5.24c.46-.58.044-1.432-.695-1.432h-2.314a.88.88 0 0 0-.694.34l-5.004 6.4a.15.15 0 0 1-.113.057.143.143 0 0 1-.142-.143v-5.772a.887.887 0 0 0-.885-.887z"/></svg>