<svg version="1.1" viewBox="0 0 64 64" xmlns="http://www.w3.org/2000/svg" xmlns:xlink="http://www.w3.org/1999/xlink">
 <defs>
  <style>.ColorScheme-Text {color:#090d11;}.ColorScheme-Background{color:#ffffff;}</style>
  <linearGradient id="a" y2="1">
   <stop stop-color="#00b8ff" offset="0"/>
   <stop stop-color="#00ff9d" offset="1"/>
  </linearGradient>
  <linearGradient id="e" x2="18.39" y1=".007812" y2="18.4" gradientTransform="matrix(1.544 0 0 1.544 14.1 14.22)" gradientUnits="userSpaceOnUse" xlink:href="#a"/>
  <linearGradient id="d" x1="3.531" x2="8.301" y1="6.032" y2="10.8" gradientTransform="matrix(2.399 0 0 .9933 14.1 14.22)" gradientUnits="userSpaceOnUse" xlink:href="#a"/>
  <linearGradient id="c" x1="14.77" x2="21.97" y1="14.82" y2="22.02" gradientTransform="matrix(1.546 0 0 1.541 14.1 14.22)" gradientUnits="userSpaceOnUse" xlink:href="#a"/>
  <linearGradient id="b" x1="1" x2="0" y2="1">
   <stop stop-color="#ff231d" offset="0"/>
   <stop stop-color="#8e00d1" offset="1"/>
  </linearGradient>
 </defs>
 <path transform="translate(1.006 1.006) scale(.9686)" d="m6.4 3.439c-4.09 0-7.439 3.352-7.439 7.441v12.8c0 1.269 1.049 2.32 2.318 2.32 1.269 0 2.32-1.051 2.32-2.32v-12.8c0-1.604 1.197-2.801 2.801-2.801h12.8c1.269 0 2.32-1.051 2.32-2.32 0-1.269-1.051-2.32-2.32-2.32h-12.8zm38.4 0c-1.269 0-2.32 1.051-2.32 2.32 0 1.269 1.051 2.32 2.32 2.32h12.8c1.604 0 2.801 1.197 2.801 2.801v12.8c0 1.269 1.051 2.32 2.32 2.32s2.318-1.051 2.318-2.32v-12.8c0-4.09-3.35-7.441-7.439-7.441h-12.8zm-43.52 34.56c-1.269 0-2.318 1.051-2.318 2.32v12.8c0 4.09 3.35 7.441 7.439 7.441h12.8c1.269 0 2.32-1.051 2.32-2.32 0-1.269-1.051-2.32-2.32-2.32h-12.8c-1.604 0-2.801-1.197-2.801-2.801v-12.8c0-1.269-1.051-2.32-2.32-2.32zm61.44 0c-1.269 0-2.32 1.051-2.32 2.32v12.8c0 1.604-1.197 2.801-2.801 2.801h-12.8c-1.269 0-2.32 1.051-2.32 2.32 0 1.269 1.051 2.32 2.32 2.32h12.8c4.09 0 7.439-3.352 7.439-7.441v-12.8c0-1.269-1.049-2.32-2.318-2.32z" fill="url(#b)" stop-color="#000000" stroke-linecap="round" stroke-linejoin="round"/>
 <path transform="translate(1.006 1.006) scale(.9686)" d="m8.961 11.12c-1.269 0-2.32 1.051-2.32 2.32v5.121c0 1.269 1.051 2.32 2.32 2.32 1.269 0 2.318-1.051 2.318-2.32v-2.801h2.801c1.269 0 2.32-1.051 2.32-2.32s-1.051-2.32-2.32-2.32h-5.119zm40.96 0c-1.269 0-2.32 1.051-2.32 2.32s1.051 2.32 2.32 2.32h2.801v2.801c0 1.269 1.049 2.32 2.318 2.32 1.269 0 2.32-1.051 2.32-2.32v-5.121c0-1.269-1.051-2.32-2.32-2.32h-5.119zm-40.96 32c-1.269 0-2.32 1.051-2.32 2.32v5.121c0 1.269 1.051 2.32 2.32 2.32h4.479c1.269 0 2.32-1.051 2.32-2.32s-1.051-2.32-2.32-2.32h-2.16v-2.801c0-1.269-1.049-2.32-2.318-2.32zm46.08 0c-1.269 0-2.318 1.051-2.318 2.32v2.801h-2.801c-1.269 0-2.32 1.051-2.32 2.32s1.051 2.32 2.32 2.32h5.119c1.269 0 2.32-1.051 2.32-2.32v-5.121c0-1.269-1.051-2.32-2.32-2.32z" fill="url(#b)" stop-color="#000000" stroke-linecap="round" stroke-linejoin="round"/>
 <path transform="translate(1.006 1.006) scale(.9686)" d="m28.29 14.23c-7.824 0-14.2 6.376-14.2 14.2 0 7.824 6.376 14.2 14.2 14.2 7.824 0 14.2-6.374 14.2-14.2 0-7.824-6.374-14.2-14.2-14.2zm0 2.986c6.208 0 11.21 5.005 11.21 11.21 0 6.209-5.002 11.21-11.21 11.21-6.208 0-11.21-5.002-11.21-11.21 0-6.208 5.002-11.21 11.21-11.21z" fill="url(#e)" stroke-width="2.908"/>
 <path transform="translate(1.006 1.006) scale(.9686)" d="m28.29 20.21c-1.982-0.0014-3.886 0.7855-5.286 2.189a1.495 1.495 0 0 0 3e-3 2.113 1.495 1.495 0 0 0 2.11-3e-3c0.84-0.8415 1.984-1.313 3.172-1.312a1.495 1.495 0 0 0 3e-3 0c1.189-0.0013 2.328 0.4698 3.169 1.312a1.495 1.495 0 0 0 2.11 3e-3 1.495 1.495 0 0 0 0.0031-2.113c-1.4-1.403-3.304-2.191-5.286-2.189z" fill="url(#d)" stroke-width="2.908"/>
 <path transform="translate(1.006 1.006) scale(.9686)" d="m38.78 37.07-1.842 1.806 0.992 0.989c-0.4181 0.8125-0.2578 1.806 0.392 2.448l5.21 5.246c0.8085 0.8097 2.13 0.8097 2.939 0l0.992-0.995c0.8088-0.8137 0.8088-2.126 0-2.939l-5.243-5.21c-0.6468-0.647-1.646-0.7932-2.448-0.3558z" fill="url(#c)" stroke-width="2.908"/>
</svg>
