<svg version="1.1" viewBox="0 0 64 64" xmlns="http://www.w3.org/2000/svg">
 <defs>
  <linearGradient id="a" y1=".5" y2=".5">
   <stop stop-color="#fee800" offset="0"/>
   <stop stop-color="#ff1162" offset=".507"/>
   <stop stop-color="#ff00ab" offset="1"/>
  </linearGradient>
 </defs>
 <path transform="translate(-1.4e-5 .001329) scale(.9998) translate(-3.721 -3.72) scale(2.977)" d="m9 1.25c-0.9428 0-1.665-0.004608-2.295 0.08004s-1.215 0.2892-1.65 0.7243c-0.4352 0.4352-0.6404 1.021-0.725 1.65s-0.08004 1.352-0.08004 2.295v0.5983l-0.885 0.5918c-0.8737 0.5825-1.44 0.9256-1.793 1.588-0.3522 0.6608-0.3237 1.321-0.3202 2.365 0.00424 1.26 0.016 2.546 0.04855 3.85 0.03837 1.537 0.06149 2.711 0.2382 3.713 0.1766 1.002 0.5447 1.859 1.228 2.541 0.684 0.684 1.547 1.05 2.559 1.227 1.011 0.1766 2.2 0.2012 3.758 0.2401 1.951 0.04871 3.885 0.04871 5.836 0 1.558-0.03895 2.748-0.06351 3.759-0.2401s1.875-0.5424 2.559-1.227c0.6824-0.6824 1.05-1.539 1.227-2.541 0.1766-1.002 0.1998-2.176 0.2382-3.713 0.0326-1.304 0.0449-2.59 0.04921-3.85 0.0035-1.044 0.03195-1.704-0.3202-2.365-0.3529-0.6619-0.9192-1.007-1.793-1.59v0.001968l-0.8864-0.5924v-0.5977c0-0.9428 0.004639-1.665-0.08004-2.295-0.08464-0.6296-0.2891-1.215-0.7243-1.65-0.4352-0.4352-1.021-0.6397-1.65-0.7243-0.6296-0.08465-1.352-0.08004-2.295-0.08004h-6.001zm6.561e-4 1.499h6c0.9428 0 1.634 0.004463 2.094 0.06626 0.4597 0.0618 0.64 0.1486 0.7906 0.2992s0.2374 0.331 0.2992 0.7906c0.0618 0.4597 0.06626 1.151 0.06626 2.094v5.375l-3.549 2.128c-1.504 0.9024-2.142 1.248-2.701 1.248s-1.197-0.3454-2.701-1.248l-3.549-2.128v-5.375c0-0.9428 0.004463-1.634 0.06626-2.094 0.0618-0.4597 0.1479-0.64 0.2985-0.7906s0.3316-0.2374 0.7912-0.2992c0.4597-0.0618 1.151-0.06626 2.094-0.06626zm0.9992 2.501a0.75 0.75 0 0 0-0.7499 0.7499 0.75 0.75 0 0 0 0.7499 0.7499h4a0.75 0.75 0 0 0 0.7499-0.7499 0.75 0.75 0 0 0-0.7499-0.7499h-4zm9.751 3.151 0.05445 0.03608c0.8738 0.5825 1.182 0.8186 1.303 1.045 0.02229 0.04183 0.04088 0.08878 0.05708 0.1443l-1.414 0.8483v-2.074zm-15.5 0.002624v2.071l-1.41-0.8457c0.01642-0.05636 0.03584-0.1041 0.05839-0.1463 0.1206-0.2263 0.4271-0.4625 1.301-1.045l0.05052-0.03346zm5.75 0.8457a0.75 0.75 0 0 0-0.7499 0.7505 0.75 0.75 0 0 0 0.7499 0.7499h4a0.75 0.75 0 0 0 0.7499-0.7499 0.75 0.75 0 0 0-0.7499-0.7505h-4zm11.25 2.075c-0.00487 1.194-0.01729 2.405-0.04789 3.629-0.03835 1.537-0.07091 2.67-0.2152 3.488-0.1443 0.8183-0.3622 1.294-0.8102 1.742-0.4464 0.4465-0.9267 0.6659-1.756 0.8109s-1.979 0.1795-3.537 0.2185c-1.926 0.04809-3.836 0.04809-5.762 0-1.558-0.03895-2.706-0.07352-3.535-0.2185-0.8295-0.1449-1.311-0.3644-1.758-0.8109-0.448-0.448-0.6646-0.9237-0.8089-1.742s-0.1781-1.951-0.2165-3.488c-0.03055-1.224-0.04373-2.435-0.04855-3.628l5.773 3.464c1.504 0.9024 2.37 1.461 3.473 1.461s1.969-0.5586 3.473-1.461l5.776-3.465z" fill="url(#a)"/>
</svg>
