<svg xmlns="http://www.w3.org/2000/svg" viewBox="0 0 64 64"><defs><linearGradient id="a" x1="1" x2="0" y1="1"><stop offset="0" stop-color="#c0f"/><stop offset="1" stop-color="#0ff"/></linearGradient></defs><path fill="url(#a)" d="M12 4C9.784 4 8 5.784 8 8v4c-4.433 0-8 3.567-8 8v32c0 4.433 3.567 8 8 8h48c4.433 0 8-3.567 8-8V20c0-4.433-3.567-8-8-8V8c0-2.216-1.784-4-4-4zm0 4h40v17.51L34.16 39.72c-1.222.973-3.091.973-4.312 0l-17.84-14.21V12zm20.26 1.943a12.14 12.14 0 0 0-11.75 8.226 12.1 12.1 0 0 0-.086 7.539 12.12 12.12 0 0 0 4.398 6.129 12.12 12.12 0 0 0 7.166 2.348c.357 0 .7-.14.953-.393a1.35 1.35 0 0 0 0-1.904 1.35 1.35 0 0 0-.953-.39c-2.5 0-4.903-1-6.672-2.769a9.433 9.433 0 0 1 0-13.334 9.44 9.44 0 0 1 6.672-2.762c1.516 0 3.014.363 4.357 1.062a9.4 9.4 0 0 1 3.367 2.961 9.42 9.42 0 0 1 1.137 8.637c-.085.21-.222.397-.393.545l-.14.137a1.596 1.596 0 0 1-1.717.285 1.6 1.6 0 0 1-.7-.586c-.169-.26-.256-.56-.255-.869v-2.738a5.65 5.65 0 0 0-1.221-3.506 5.65 5.65 0 0 0-9.488.961 5.66 5.66 0 0 0 1.402 6.872 5.66 5.66 0 0 0 3.465 1.328 5.66 5.66 0 0 0 3.547-1.102 4.27 4.27 0 0 0 3.056 2.392c.662.13 1.345.103 1.994-.08a4.3 4.3 0 0 0 1.738-.976l.149-.137c.487-.44.858-.989 1.09-1.604a12.117 12.117 0 0 0-4.006-13.762 12.14 12.14 0 0 0-7.117-2.506zM7.99 16v6.336l-3.846-3.07C4.498 17.417 6.035 16 7.99 16m48 0c1.955 0 3.491 1.415 3.846 3.266l-3.846 3.07zm-24 3.1a2.98 2.98 0 0 1 2.096.871c.275.275.494.6.643.96s.22.747.22 1.136a2.94 2.94 0 0 1-.863 2.096c-.275.275-.6.494-.959.643s-.748.222-1.137.222c-.786 0-1.542-.31-2.098-.865-.556-.556-.863-1.31-.863-2.096s.307-1.542.863-2.098a2.97 2.97 0 0 1 2.098-.87M4.01 24.192l14.82 11.8-14.82 11.81zm56 0v23.6l-14.82-11.81zm-37.99 14.34 4.68 3.727c2.924 2.328 7.731 2.328 10.65 0l4.68-3.727 17.84 14.2c-.354 1.849-1.897 3.266-3.852 3.266h-48c-1.955 0-3.497-1.415-3.852-3.266z"/></svg>