<svg version="1.1" viewBox="0 0 64 64" xmlns="http://www.w3.org/2000/svg">
 <defs>
  <linearGradient id="b" y1="1">
   <stop stop-color="#5433ff" offset="0"/>
   <stop stop-color="#e948ff" offset=".5"/>
   <stop stop-color="#ff005b" offset="1"/>
  </linearGradient>
  <linearGradient id="a" x2="0" y1="1">
   <stop stop-color="#ffa200" offset="0"/>
   <stop stop-color="#fffd00" offset="1"/>
  </linearGradient>
 </defs>
 <path transform="translate(0) scale(1) translate(-.000228) scale(1) translate(-.000122) scale(1) translate(-.00015) scale(1) translate(.001)" d="m2.73 0c-1.455 0-2.686 1.226-2.686 2.684v9.33c0 1.456 1.228 2.693 2.686 2.693h9.334c1.455 0 2.688-1.236 2.688-2.693v-9.33c0-1.454-1.23-2.684-2.688-2.684h-9.334zm24.46 0.001953a7.353 7.353 0 0 0-7.357 7.354 7.353 7.353 0 0 0 6.17 7.256c0.5038-0.5474 1.047-1.057 1.625-1.527 0.9463-0.7709 1.98-1.37 3.523-2.27l2.723-1.584a0.5 0.5 0 0 1 0.04297-0.02344l5.393-3.139c0.5169-0.3148 1.047-0.6072 1.59-0.875 0.5083-0.26 1.068-0.389 1.635-0.4492h0.001953c0.06698-0.007089 0.126-0.04855 0.1934-0.05273a0.5 0.5 0 0 1 0.007812 0.005859c0.1004-0.00595 0.2022-0.01055 0.3027-0.009766h0.001953c0.1057 6.712e-4 0.211 0.005565 0.3164 0.01367a0.5 0.5 0 0 1 0.01367 0c1.283 0.1311 2.448 0.8046 3.203 1.85a0.5 0.5 0 0 1 0.007812 0.01172c0.4811 0.7064 0.7581 1.531 0.8008 2.385 0.02981 0.413 0.04633 0.8283 0.04688 1.242v0.2188a0.5 0.5 0 0 0 0 0.001953l-0.01562 4.297h9.186a7.353 7.353 0 0 0 7.355-7.352 7.353 7.353 0 0 0-7.355-7.354h-29.41z" fill="url(#a)"/>
 <path transform="translate(0) scale(1) translate(-.000228) scale(1) translate(-.000122) scale(1) translate(.00085)" d="m42.76 5.191a4.15 4.15 0 0 0-1.631 0.447 20 20 0 0 0-1.568 0.862l-5.414 3.152-0.02 0.011-2.723 1.584c-1.544 0.9-2.553 1.485-3.459 2.223a15 15 0 0 0-2.188 2.193c-0.73 0.91-1.313 1.92-2.205 3.47l-16.64 28.82a8.49 8.49 0 0 0 0.909 9.771 18.5 18.5 0 0 0 10.62 6.135 8.5 8.5 0 0 0 1.152 0.135l-2e-3 -2e-3a8.5 8.5 0 0 0 7.762-4.23l16.64-28.82c0.895-1.548 1.475-2.567 1.896-3.652q0.556-1.45 0.804-2.982c0.188-1.156 0.193-2.323 0.2-4.11l0.037-9.79v-0.219a17 17 0 0 0-0.045-1.217 4.15 4.15 0 0 0-0.713-2.129 4.02 4.02 0 0 0-2.85-1.644 4 4 0 0 0-0.569-4e-3zm-0.76 5.613-0.015 3.809h-4e-3a5.5 5.5 0 0 1-3.275-1.891zm-7.596 4.416a10.5 10.5 0 0 0 3.305 3.004 10.5 10.5 0 0 0 4.252 1.357v0.398c-0.01 2.048-0.02 2.81-0.135 3.537a10 10 0 0 1-0.54 1.992c-0.264 0.685-0.635 1.355-1.659 3.127l-12.1 20.95a16.27 16.27 0 0 1-11.88-6.87l12.09-20.94c1.021-1.773 1.412-2.429 1.873-2.999q0.654-0.812 1.46-1.473c0.57-0.46 1.23-0.851 2.997-1.879zm-0.96 7.764a2.47 2.47 0 0 0-2.005 1.133l-10.12 17.52a2.47 2.47 0 0 0 2.025 3.697h2e-3a2.47 2.47 0 0 0 2.25-1.227l10.11-17.52a2.47 2.47 0 0 0-2.268-3.602zm-20.46 24.34a21.2 21.2 0 0 0 11.9 6.861l-1.796 3.107a3.56 3.56 0 0 1-3.242 1.768v-2e-3a4 4 0 0 1-0.48-0.057 13.57 13.57 0 0 1-7.79-4.494 3.555 3.555 0 0 1-0.378-4.084z" fill="url(#b)"/>
</svg>
