<svg xmlns="http://www.w3.org/2000/svg" viewBox="0 0 64 64"><defs><linearGradient id="a" y2="1"><stop offset="0" stop-color="#00fffa"/><stop offset="1" stop-color="#0078ff"/></linearGradient></defs><path fill="url(#a)" d="m36.49 0-.004.002h.01V0zm-.004.002q-.004 0-.01.002zm-.01.002L28.12.83a1.52 1.52 0 0 0-1.373 1.516v38.11c0 .935.834 1.647 1.758 1.504l6.648-1.035a1.526 1.526 0 0 0 1.291-1.506V28.11c0-1.49 1.917-2.095 2.772-.875l10.15 14.5a1.525 1.525 0 0 0 1.734.572l8.27-2.783a1.522 1.522 0 0 0 .656-2.45l-12.99-14.72a1.526 1.526 0 0 1 .004-2.023L60.12 5.61a1.523 1.523 0 0 0-.656-2.457L51.098.364a1.52 1.52 0 0 0-1.73.573l-10.15 14.5c-.854 1.22-2.773.616-2.773-.873V.064c0-.023.015-.043.035-.051z"/><path fill="url(#a)" d="M14.64 11.64q-.042 0-.086.002h-.008c-.119.015-.246.041-.336.13l-4.135 4.11a.52.52 0 0 0-.064.644l3.91 6.418c.298.49.293 1.102.015 1.604a21.2 21.2 0 0 0-1.633 3.764 1.59 1.59 0 0 1-1.18 1.08L3.92 30.876a.555.555 0 0 0-.427.54v5.803c0 .245.188.455.427.511l6.951 1.676c.564.136.997.582 1.15 1.141a21.2 21.2 0 0 0 1.744 4.371 1.59 1.59 0 0 1-.058 1.627l-4.06 6.14a.535.535 0 0 0 .068.671l4.133 4.106a.535.535 0 0 0 .655.068l6.379-3.846a1.59 1.59 0 0 1 1.578-.02 21 21 0 0 0 4.033 1.67c.56.168.997.616 1.117 1.189l1.475 7.05A.53.53 0 0 0 29.6 64h5.846a.53.53 0 0 0 .516-.403l1.768-7.154a1.6 1.6 0 0 1 1.09-1.13 21 21 0 0 0 4.064-1.759 1.59 1.59 0 0 1 1.64.04l6.384 4.153a.54.54 0 0 0 .672-.064l4.113-4.106a.526.526 0 0 0 .088-.648l-2.305-3.773a1.23 1.23 0 0 0-1.424-.534.33.33 0 0 1-.342-.113q-.017-.022-.033-.045c-.122-.165-.912-1.23-1.55-2.094a98 98 0 0 0-2.005-2.883c-.67-.927-2.094-.78-2.738.164a15.52 15.52 0 0 1-12.8 6.772c-8.568 0-15.51-6.945-15.51-15.51.005-5.56 2.46-10.53 6.953-13.28.483-.295.802-.81.802-1.377V17.1c0-1.062-1.04-1.755-1.955-1.215-.49.29-1.129.29-1.607-.021l-6.379-4.15a.46.46 0 0 0-.246-.074z"/></svg>