<svg version="1.1" viewBox="0 0 64 64" xmlns="http://www.w3.org/2000/svg">
 <defs>
  <linearGradient id="a" x1="1" x2="0" y2="1">
   <stop stop-color="#00ff6f" offset="0"/>
   <stop stop-color="#1eff01" offset="1"/>
  </linearGradient>
 </defs>
 <path transform="translate(-0) scale(1) translate(7e-6 -.001251) scale(1) translate(.000316 .000346) scale(1)" d="m31.25 0.009766 0.001953 0.009766a31.9 31.9 0 0 0-18.76 6.602c-12.28 9.429-15.95 26.3-8.977 39.94l-3.232 9.646v0.0059c-1.475 4.423 3.076 8.973 7.498 7.498l9.664-3.221c13.65 6.976 30.51 3.3 39.94-8.977 9.773-12.72 8.589-30.79-2.756-42.14-6.381-6.381-14.89-9.552-23.38-9.363zm0.1719 7.098a24.86 24.86 0 0 1 18.18 7.303 24.86 24.86 0 0 1 2.146 32.78 24.86 24.86 0 0 1-32.22 6.379 3.56 3.56 0 0 0-2.902-0.2949l-8.83 2.943 2.949-8.812a3.56 3.56 0 0 0-0.2891-2.914 24.86 24.86 0 0 1 6.379-32.22 24.82 24.82 0 0 1 14.59-5.154z" fill="url(#a)"/>
 <path transform="translate(-0) scale(1) translate(7e-6 -.001251) scale(1) translate(.000316 .000346) scale(1)" d="m40.02 21.2a1.974 1.974 0 0 0-1.596 3.107c1.288 1.852 2.117 4.425 2.117 7.383s-0.8303 5.53-2.117 7.383a1.98 1.98 0 0 0 0.4941 2.756 1.98 1.98 0 0 0 2.754-0.4961c1.799-2.588 2.824-5.969 2.824-9.641s-1.025-7.053-2.824-9.641a1.98 1.98 0 0 0-1.652-0.8516z" fill="url(#a)"/>
 <path transform="translate(-0) scale(1) translate(7e-6 -.001251) scale(1) translate(.000316 .000346) scale(1)" d="m45.86 16a1.974 1.974 0 0 0-1.596 3.107c2.23 3.21 3.625 7.6 3.625 12.59 0 4.984-1.393 9.381-3.625 12.59a1.975 1.975 0 0 0 0.4922 2.75 1.98 1.98 0 0 0 2.756-0.4922c2.743-3.945 4.332-9.149 4.332-14.85 0-5.698-1.589-10.9-4.332-14.84a1.98 1.98 0 0 0-1.652-0.8496z" fill="url(#a)"/>
 <path transform="translate(-0) scale(1) translate(7e-6 -.001251) scale(1) translate(.000316 .000346) scale(1)" d="m30.08 15.77v0.0059c-1.911-0.023-2.724 0.61-3.775 1.502l-5.504 4.488h-2.629c-3.07 0-5.35 2.598-5.723 5.266l-0.0078 0.03906c-0.345 2.772-0.389 6.925 0.0039 9.758 0.175 1.412 0.7202 2.777 1.746 3.805 1.031 1.032 2.521 1.602 3.98 1.602h2.633l5.643 4.58c1.01 0.8499 1.979 1.429 3.639 1.408 2.504 0.034 4.608-1.814 5.31-4.162l0.02148-0.07422c0.366-1.365 0.397-2.494 0.5-3.344 0.43-3.434 0.43-13.85 0-17.29-0.108-0.8839-0.1591-2.044-0.4961-3.334l-0.02539-0.0918c-0.7029-2.348-2.807-4.196-5.316-4.16zm-0.04492 5.268h0.127v0.0039l0.0098 0.01758c-0.046-7e-3 -0.04473-0.01948-0.1367-0.02148zm0.1797 0.1152h0.0039l0.0039 0.0039v0.0039c0.012 0.017 0.03948 0.07202 0.1055 0.25 0.14 0.5589 0.2225 1.505 0.3555 2.592v0.0098c0.153 1.225 0.153 14.75 0 15.98v0.0078c-0.138 1.124-0.1825 1.936-0.3535 2.59a1.2 1.2 0 0 1-0.1504 0.3106c0.023 9e-3 0.04665 0.01934 0.05664 0.02734l0.0039 0.0039v0.0078h-0.0039v2e-3h-0.0039l-0.0039 0.0039a0.3 0.3 0 0 1-0.09375 0.01758v0.0039h-0.1133c0.04399 0 0.08004-0.0019 0.1094-0.0039v-0.0039h0.0039c4e-3 -9e-3 0.01993-0.0246 0.04492-0.05859-0.09599-0.035-0.281-0.08228-0.334-0.1133h-0.0078l-0.03125-0.03125-6.404-5.199a2.64 2.64 0 0 0-1.662-0.5918h-3.568c-0.139 0-0.1938-0.0066-0.2168-0.01758l-0.0078-0.0078h-0.0039l-0.0039-0.0039v-2e-3l-0.0059-0.0078v-0.0059l-0.0078-0.0078c-0.037-0.038-0.1841-0.2175-0.2461-0.7305l-0.0078-0.04883c-0.27-1.916-0.2521-6.304 0.0039-8.379 0.09199-0.6559 0.1301-0.709 0.4961-0.709h3.568a2.64 2.64 0 0 0 1.666-0.5918l6.27-5.111 0.03906-0.03125c0.016-0.014 0.331-0.08635 0.5-0.1523z" fill="url(#a)"/>
</svg>
