<svg version="1.1" viewBox="0 0 64 64" xmlns="http://www.w3.org/2000/svg">
 <defs>
  <linearGradient id="a" y1="1">
   <stop stop-color="#f10" offset="0"/>
   <stop stop-color="#ff115a" offset="1"/>
  </linearGradient>
  <linearGradient id="b" x2="0" y1="1">
   <stop stop-color="#9c33c4" offset="0"/>
   <stop stop-color="#ff0a4c" offset=".5"/>
   <stop stop-color="#f79a00" offset="1"/>
  </linearGradient>
 </defs>
 <path transform="translate(1e-6) scale(1) translate(-.004441 -8e-4) scale(1) translate(.00062 -.00029) scale(1)" d="m57.15 2.744c-1.095-0.18-49.87-0.1292-50.64 0.05078a8.43 8.43 0 0 0-6.301 6.385l-0.168 0.7617v36.64l11.05 0.03711v1.728c0 3.038 1.3 4.3 3.428 3.33 0.464-0.212 0.9312-0.6777 1.141-1.121l0.1562-0.3379 0.03711-36.71-0.1856-0.3789c-0.663-1.353-2.746-1.685-3.885-0.6152-0.588 0.552-0.6493 0.7671-0.6973 2.488l-0.03906 1.478-6.475 0.03711 0.0293-3.068 0.02148-3.07 0.1894-0.4824c0.492-1.277 1.274-2.085 2.375-2.455l0.4473-0.1523 24.44 0.00195c25.93 0 24.76-0.01366 25.43 0.3242 1.25 0.637 1.9 1.74 1.996 3.383 0.092 1.564 0.2766 1.711 2.215 1.711 2.03 0 2.258-0.1863 2.258-1.836 0-4.28-2.645-7.432-6.809-8.115zm-6.449 9.133c-0.912 7e-3 -1.825 0.4594-2.238 1.357l-0.1543 0.3379v36.56l0.1699 0.3789c0.793 1.755 3.4 1.845 4.34 0.1504l0.2148-0.3867 0.04492-3.67h6.545l-0.0293 3.473c-0.025 3.094-0.0422 3.513-0.1582 3.869-0.454 1.39-1.384 2.312-2.668 2.654-0.575 0.153-48.67 0.1569-49.25 0.0039-1.838-0.49-2.776-1.766-2.856-3.894-0.066-1.776-0.1677-1.856-2.371-1.856-1.927 3.5e-5 -2.287 0.1842-2.287 1.182 0 4.938 3 8.672 7.43 9.246 0.95 0.124 48.81 0.09375 49.53-0.03125 3.442-0.6 6.162-3.196 6.902-6.574 0.13-0.594 0.134-1.341 0.127-19.37l-0.0078-18.75-10.92-0.03711-2e-3 -1.508c-9.99e-4 -1.318-0.01949-1.547-0.1387-1.809-0.403-0.888-1.315-1.322-2.227-1.314zm2.363 9.143h6.508v8.287h-6.508v-4.143zm-48.48 0.0059h6.506v8.287h-6.506v-4.143zm0 12.79h6.506l-0.01953 3.734c-0.01 2.056 8e-3 3.921 0.04297 4.143l0.0625 0.4043h-6.592v-4.143zm48.48 0.0078h6.471v8.283h-6.471v-4.143z" fill="url(#b)"/>
 <path transform="translate(1e-6) scale(1) translate(-.004441 -8e-4) scale(1) translate(.00062 -.00029)" d="m31.99 17.75c-1.279 0.019-2.192 0.815-2.623 2.131l-2.008 7.365h-6.85c-0.8129 0.027-1.543 0.4194-2.059 1.07-1.117 1.327-0.8817 3.414 0.5352 4.404l5.35 4.053-2.074 5.728-0.0059 0.02148a2.9 2.9 0 0 0 0.7793 2.953c4e-3 0.0053 0.01024 0.01029 0.01758 0.01563 0.9599 0.8829 2.307 0.9966 3.391 0.2656l0.05859-0.04297 5.49-4.106 5.488 4.106 0.0625 0.04297c1.083 0.7299 2.432 0.6173 3.391-0.2656 6e-3 -4e-3 0.01096-0.0083 0.01563-0.01367l2e-3 -2e-3a2.9 2.9 0 0 0 0.7793-2.953l-0.0059-0.02148-2.076-5.728 5.35-4.053c1.418-0.9899 1.654-3.076 0.5371-4.404-0.5159-0.6499-1.249-1.043-2.06-1.07h-6.85l-2.008-7.365c-0.432-1.316-1.345-2.112-2.623-2.131z" fill="url(#a)"/>
</svg>
