<svg version="1.1" viewBox="0 0 64 64" xmlns="http://www.w3.org/2000/svg">
 <defs>
  <linearGradient id="a" y1="1">
   <stop stop-color="#f70606" offset="0"/>
   <stop stop-color="#ff24f5" offset="1"/>
  </linearGradient>
  <linearGradient id="b" x2="0" y1="1">
   <stop stop-color="#46d9ff" offset="0"/>
   <stop stop-color="#ff23ff" offset=".5"/>
   <stop stop-color="#ffd93f" offset="1"/>
  </linearGradient>
 </defs>
 <path transform="translate(0 3e-6) scale(1) translate(.003999 .011) scale(.9998) matrix(.9999 0 0 .9999 .005999 .008999)" d="m10.95 0c-6.022 0-10.96 4.926-10.96 10.94v42.1c0 6.022 4.929 10.94 10.96 10.94h42.1c6.022 0 10.96-4.926 10.96-10.94v-42.1c0-6.022-4.929-10.94-10.96-10.94zm0 5.06h42.1c3.306 0 5.891 2.582 5.891 5.889v42.1c0 3.306-2.584 5.889-5.891 5.889h-42.1c-3.306 0-5.891-2.582-5.891-5.889v-42.1c0-3.306 2.584-5.889 5.891-5.889z" fill="url(#a)"/>
 <path transform="translate(0 3e-6) scale(1) translate(.003999 .011) scale(.9998) matrix(.9999 0 0 .9999 .005999 .008999)" d="m5.879 31.05c-0.2193 0-0.3965 0.1783-0.3965 0.3984v3.182c0 0.2193 0.1763 0.3965 0.3965 0.3965h4.508c0.2193 0 0.3984-0.1763 0.3984-0.3965v-3.182c0-0.2202-0.1783-0.3984-0.3984-0.3984zm7.955 0c-0.2193 0-0.3965 0.1783-0.3965 0.3984v3.182c0 0.2193 0.1763 0.3965 0.3965 0.3965h4.508c0.2193 0 0.3984-0.1763 0.3984-0.3965v-3.182c0-0.2202-0.1783-0.3984-0.3984-0.3984zm7.955 0c-0.2202 0-0.3965 0.1783-0.3965 0.3984v3.182a0.3995 0.3995 0 0 0 0.3984 0.3965h4.506c0.2202 0 0.3984-0.1772 0.3984-0.3965v-3.182c0-0.2202-0.1792-0.3984-0.3984-0.3984zm7.959 0c-0.2193 0-0.3965 0.1783-0.3965 0.3984v3.182c0 0.2193 0.1763 0.3965 0.3965 0.3965h4.51c0.2193 0 0.3965-0.1763 0.3965-0.3965v-3.182c0-0.2202-0.1763-0.3984-0.3965-0.3984zm7.955 0c-0.2202 0-0.3965 0.1783-0.3965 0.3984v3.182a0.3995 0.3995 0 0 0 0.3965 0.3965h4.508c0.2202 0 0.3984-0.1772 0.3984-0.3965v-3.182c0-0.2202-0.1792-0.3984-0.3984-0.3984zm7.961 0c-0.2202 0-0.3984 0.1783-0.3984 0.3984v3.182c0 0.2193 0.1783 0.3965 0.3984 0.3965h4.508c0.2193 0 0.3965-0.1763 0.3965-0.3965v-3.182c0-0.2202-0.1763-0.3984-0.3965-0.3984zm7.955 0c-0.2202 0-0.3984 0.1783-0.3984 0.3984v3.182a0.3995 0.3995 0 0 0 0.3984 0.3965h4.508c0.2202 0 0.3965-0.1772 0.3965-0.3965v-3.182c1e-6 -0.2202-0.1772-0.3984-0.3965-0.3984z" fill="url(#a)"/>
 <path transform="translate(0 3e-6) scale(1) translate(.003999 .011) scale(.9998) translate(.005999 .008999) scale(.9999)" d="m34.81 11.07c-0.7527 0.0092-1.515 0.1302-2.279 0.3867-1.969 0.6606-3.574 1.799-4.57 3.309-0.9965 1.51-1.337 3.249-1.334 4.928 0.0063 3.357 1.206 6.758 2.34 10.16 1.134 3.404 2.232 6.785 2.426 9.438 0.1934 2.653-0.2116 4.245-2.17 5.648a2.486 2.486 0 0 0-2e-3 2e-3c-0.6136 0.4402-1.866 0.678-3.65 0.418-1.785-0.2601-3.94-0.9744-5.957-1.836-4.034-1.723-7.473-3.949-7.473-3.949a2.486 2.486 0 0 0-3.44 0.7285 2.486 2.486 0 0 0 0.7285 3.44s3.717 2.425 8.232 4.354c2.258 0.9643 4.725 1.826 7.191 2.186 2.466 0.3593 5.092 0.2601 7.266-1.299 3.444-2.467 4.495-6.425 4.23-10.05-0.2645-3.628-1.538-7.259-2.666-10.65s-2.08-6.556-2.084-8.602c-2e-3 -1.023 0.188-1.692 0.5098-2.18 0.3217-0.4875 0.8222-0.9362 2.002-1.332a2.486 2.486 0 0 0 2e-3 0c1.101-0.3696 2.285-0.06276 3.932 1.156 1.646 1.219 3.433 3.284 4.98 5.488 3.095 4.408 5.266 9.25 5.266 9.25a2.486 2.486 0 0 0 3.283 1.26 2.486 2.486 0 0 0 1.258-3.283s-2.29-5.173-5.736-10.08c-1.723-2.455-3.728-4.875-6.094-6.627-1.774-1.314-3.933-2.291-6.191-2.264z" fill="url(#b)"/>
</svg>
