<svg xmlns="http://www.w3.org/2000/svg" xmlns:xlink="http://www.w3.org/1999/xlink" fill="none" viewBox="0 0 64 64"><defs><linearGradient id="a" x1="63.83" x2="63.83" y1="99.21" y2="5" gradientUnits="userSpaceOnUse"><stop offset="0" stop-color="#8000e3"/><stop offset="1" stop-color="#f0f"/></linearGradient><linearGradient xlink:href="#a" id="b" x1="63.82" x2="63.82" y1="103.9" y2=".283" gradientTransform="matrix(.9 0 0 .9 6.382 6.347)" gradientUnits="userSpaceOnUse"/><linearGradient xlink:href="#a" id="d" x1="11" x2="10.93" y1="6.806" y2="4.315" gradientTransform="translate(-22.03 -7.981)scale(7.805)" gradientUnits="userSpaceOnUse"/><linearGradient id="c" x1="63.5" x2="63.5" y1="129.1" y2="100.2" gradientTransform="matrix(.9 0 0 .9 6.382 6.347)" gradientUnits="userSpaceOnUse"><stop offset="0" stop-color="#ff00f5"/><stop offset="1" stop-color="#ff81ff"/></linearGradient></defs><path fill="url(#b)" d="M63.06 9.002c-2.264.107-4.494.975-6.205 2.612-2.06 1.817-2.715 4.306-2.913 6.671-4.243 1.262-8.216 3.258-11.67 5.898h-.002v.004h-.002c-1.87 1.408-3.188 3.898-2.387 6.483.901 3.422 4.794 5.339 8.082 3.779l.02-.01.017-.008c2.412-1.213 3.962-2.876 5.622-3.604l.051-.021.05-.025c7.276-3.734 16.88-2.826 23.27 2.181l.031.025c5.053 3.783 8.152 9.863 8.35 16.04.173 7.688-.226 15.47-.016 23.33-.114 3.12 1.932 5.24 3.08 6.85l.013.016.01.016c1.432 1.918 2.928 3.923 4.414 5.91-2.366.025-4.707.035-7.204.087-17.06-.08-34.1.096-51.11-.12 1.478-2.005 2.971-4.04 4.384-5.935l.028-.035.025-.037c.974-1.45 2.9-3.357 2.91-6.291v-.016c-.036-8.419-.066-16.84.036-25.24l.002-.054-.004-.055c-.1-2.097-1.405-3.783-3.055-4.725-1.624-.928-3.796-1.17-5.653-.088-2.817 1.422-3.787 4.584-3.33 7.27.118 7.08.15 14.16-.01 21.22-3.62 5.606-7.881 10.96-11.69 16.74-1.482 1.985-1.16 4.543-.008 6.281s3.088 3.008 5.356 3.008c22.67.468 45.33.15 67.95.27l.017.001.018-.002c3.955-.057 7.785-.38 11.51-.23 2.408.324 4.63-.834 6.04-2.556 1.434-1.751 1.984-4.583.325-6.754-3.788-5.54-7.879-10.79-11.61-16.19-.37-3.578.05-7.442-.204-11.52l-.002-.016v-.014c-.39-4.98.176-10.22-.406-15.67l-.03-.28-.116-.258c-1.008-2.274-1.376-5.174-2.884-8.074-3.977-8.527-11.83-14.98-21.01-17.65-.15-2.023-.606-4.177-2.26-5.919-1.75-2.063-4.275-3.179-6.857-3.305a10 10 0 0 0-.97 0zM22.915 93.46" transform="translate(-1.13 -.935)scale(.519)"/><path fill="url(#c)" d="m71.16 101.1-.11.002c-5.801.092-11.68-.1-17.62.094l-.472.015-.938.573-.045.029c-1.11.77-1.448 2.113-1.46 2.986-.014.873.119 1.563.122 1.836l.002.082.01.08c.74 7.032 7.864 12.22 14.94 10.94 6.791-.936 11.97-7.465 10.81-14.19l-.043-.262-.117-.238c-.644-1.293-2.099-1.837-3.037-1.916s-1.675.01-1.94-.02z" transform="translate(-1.13 -.935)scale(.519)"/><g fill="url(#d)" stroke-width="1.087" transform="translate(-1.13 -.935)scale(.519)"><path d="M117.1 31.39a4.21 4.21 0 0 0 4.707 3.643 4.21 4.21 0 0 0 3.643-4.707 20.7 20.7 0 0 0-1.569-5.576c-.757-1.709-1.849-3.25-3.166-4.567s-2.886-2.382-4.595-3.138a21.8 21.8 0 0 0-5.464-1.569c-2.289-.325-4.416 1.275-4.749 3.572s1.269 4.438 3.572 4.777c1.121.14 2.214.448 3.25.925a7.3 7.3 0 0 1 2.074 1.4 7.5 7.5 0 0 1 1.429 2.046 11.5 11.5 0 0 1 .869 3.194z" style="-inkscape-stroke:none;font-variation-settings:normal;isolation:isolate"/><path d="M10.56 31.39a4.21 4.21 0 0 1-4.707 3.643 4.21 4.21 0 0 1-3.643-4.707 20.7 20.7 0 0 1 1.569-5.576c.757-1.709 1.849-3.25 3.166-4.567s2.886-2.382 4.595-3.138a21.8 21.8 0 0 1 5.464-1.569c2.289-.325 4.416 1.275 4.749 3.572s-1.269 4.438-3.572 4.777c-1.121.14-2.214.448-3.25.925a7.3 7.3 0 0 0-2.074 1.4 7.5 7.5 0 0 0-1.429 2.046 11.5 11.5 0 0 0-.869 3.194z" style="-inkscape-stroke:none;font-variation-settings:normal;isolation:isolate"/><path d="M20.64 41.46a4.21 4.21 0 0 1-4.707 3.643 4.21 4.21 0 0 1-3.643-4.707 20.7 20.7 0 0 1 1.569-5.576c.757-1.709 1.849-3.25 3.166-4.567s2.886-2.382 4.595-3.138a21.8 21.8 0 0 1 5.464-1.569c2.289-.325 4.416 1.275 4.749 3.572s-1.269 4.438-3.572 4.777c-1.121.14-2.214.448-3.25.925a7.3 7.3 0 0 0-2.074 1.4 7.5 7.5 0 0 0-1.429 2.046 11.5 11.5 0 0 0-.869 3.194z" style="-inkscape-stroke:none;font-variation-settings:normal;isolation:isolate"/><path d="M107 41.46a4.21 4.21 0 0 0 4.707 3.643 4.21 4.21 0 0 0 3.643-4.707 20.7 20.7 0 0 0-1.569-5.576c-.757-1.709-1.849-3.25-3.166-4.567s-2.886-2.382-4.595-3.138a21.8 21.8 0 0 0-5.464-1.569c-2.289-.325-4.416 1.275-4.749 3.572s1.269 4.438 3.572 4.777c1.121.14 2.214.448 3.25.925a7.3 7.3 0 0 1 2.074 1.4 7.5 7.5 0 0 1 1.429 2.046 11.5 11.5 0 0 1 .869 3.194z" style="-inkscape-stroke:none;font-variation-settings:normal;isolation:isolate"/></g></svg>