<svg xmlns="http://www.w3.org/2000/svg" viewBox="0 0 64 64"><defs><linearGradient id="a" x1="1" x2="0" y1="1"><stop offset="0" stop-color="#0029ff"/><stop offset="1" stop-color="#44ffc7"/></linearGradient></defs><path fill="url(#a)" d="M12.17.701a2 2 0 0 0-.307.01c-.784.077-1.413.546-1.894 1.027l-.714.717-.026.023-4.338 4.338c-.17.17-.31.388-.41.588s-.192.443-.227.688v.002l-.277 1.934v.002c-.08.552.07 1.098.46 1.486.388.386.931.536 1.48.46l.003-.002 1.94-.277c.242-.035.486-.127.684-.226.199-.1.414-.238.584-.403l.007-.008 4.344-4.344.014-.011.72-.723c.482-.481.951-1.11 1.028-1.894.08-.823-.287-1.609-1.027-2.35C13.566 1.09 12.883.727 12.17.701zM5.963.713c-1.7 0-3.123.334-4.1 1.31s-1.31 2.4-1.31 4.1V9.99c0 1.7.334 3.123 1.31 4.1s2.4 1.31 4.1 1.31H9.83c1.7 0 3.123-.334 4.1-1.31s1.31-2.4 1.31-4.1V8.7a.9.9 0 0 0-1.8 0v1.29c0 1.522-.31 2.353-.784 2.826s-1.304.783-2.826.783H5.963c-1.522 0-2.354-.31-2.828-.783s-.783-1.304-.783-2.826V6.123c0-1.522.31-2.354.783-2.828s1.306-.783 2.828-.783h1.289a.9.9 0 0 0 0-1.8zM12.102 2.2c.23.006.571.118 1.051.598.548.548.618.915.596 1.143-.026.266-.2.585-.596.98l-.305.305a.19.19 0 0 1-.215.04 3.85 3.85 0 0 1-1.95-1.946.19.19 0 0 1 .042-.215l.305-.307c.395-.395.714-.57.98-.595a1 1 0 0 1 .092-.002zM9.444 4.453a.21.21 0 0 1 .197.1 5.4 5.4 0 0 0 1.76 1.758c.114.07.136.228.041.322l-3.36 3.36a1 1 0 0 1-.212.138.9.9 0 0 1-.22.082l-1.936.277h-.002c-.153.02-.208-.028-.217-.037-.008-.008-.055-.058-.033-.207v-.002l.277-1.941V8.3a.9.9 0 0 1 .082-.223 1 1 0 0 1 .131-.201l3.367-3.365a.2.2 0 0 1 .125-.059z" transform="translate(-2.404 -3.046)scale(4.35356)"/></svg>