<svg xmlns="http://www.w3.org/2000/svg" xmlns:xlink="http://www.w3.org/1999/xlink" viewBox="0 0 64 64"><defs><linearGradient id="a"><stop offset="0" stop-color="#bd49d2"/><stop offset="1" stop-color="#f33f4a"/></linearGradient><linearGradient xlink:href="#a" id="b" x1="15.2" x2=".353" y1="2.164" y2="14.61" gradientUnits="userSpaceOnUse"/><linearGradient xlink:href="#a" id="d" x1="1.749" x2="16.58" y1="1.711" y2="9.913" gradientUnits="userSpaceOnUse"/><linearGradient xlink:href="#a" id="c" x1="15.5" x2=".652" y1="1.871" y2="13.7" gradientUnits="userSpaceOnUse"/><linearGradient xlink:href="#a" id="e" x1="15.91" x2="1.531" y1="13.94" y2="1.807" gradientUnits="userSpaceOnUse"/><linearGradient xlink:href="#a" id="h" x1="1.333" x2="14.69" y1="14.33" y2="5.325" gradientUnits="userSpaceOnUse"/><linearGradient xlink:href="#a" id="i" x1="47.5" x2="80.5" y1="70" y2="70" gradientUnits="userSpaceOnUse"/></defs><g transform="scale(3.78)"><rect width="15.29" height="12.94" x=".82" y="1.998" fill="none" stroke="url(#b)" stroke-miterlimit="4.4" stroke-width="1.64" ry="1.633" style="paint-order:stroke fill markers"/><path fill="none" stroke="url(#c)" stroke-width="1.058" d="m10.61 3.808 2.699.009a.855.855 45.09 0 1 .853.855V7.37" transform="translate(0 .124)"/><path fill="none" stroke="url(#d)" stroke-width="1.058" d="m10.61 3.808 2.699.009a.855.855 45.09 0 1 .853.855V7.37" transform="matrix(-1 0 0 1 16.95 .124)"/><path fill="none" stroke="url(#e)" stroke-width="1.058" d="m10.61 3.808 2.699.009a.855.855 45.09 0 1 .853.855V7.37" transform="matrix(1 0 0 -1 0 16.78)"/><path fill="none" stroke="url(#h)" stroke-width="1.058" d="m10.61 3.808 2.699.009a.855.855 45.09 0 1 .853.855V7.37" transform="rotate(180 8.474 8.392)"/><path fill="#ff416c" d="M-14.12 8.108h.611v.847h-.611z" style="paint-order:stroke fill markers" transform="rotate(-90)"/><g fill="url(#i)" transform="translate(-8.467 -10.05)scale(.2646)"><path d="M78.64 59.42h.004l-9.977.008c-6.547 0-10.02-.004-10.02-.004-.922 0-1.656.89-1.68 1.762 0 0-.031-.719-.031 8.75l.007 8.828c.122 1.3.895 1.742 1.723 1.812l10.01-.024h9.898c1.418 0 1.852-.953 1.926-1.84V69.94l-.003-8.55c0-1.235-.797-1.97-1.86-1.97zM47.5 61.764v16.45h.484l.828-.012 3.743-4.078c2.245-2.25 4.085-4.148 4.085-4.223 0-.07-1.8-1.93-4.004-4.133l-3.656-4-.914-.008zm21.23.602q.458.002.914.054a7.64 7.64 0 0 1 6.668 8.465l-.016.137a7.643 7.643 0 0 1-8.555 6.555 7.637 7.637 0 0 1-6.59-8.066 7.64 7.64 0 0 1 7.578-7.145z"/><path d="M72.72 70.54a4.035 4.035 0 0 1-4.516 3.457 4.03 4.03 0 1 1 4.523-3.531"/></g></g></svg>