<svg version="1.1" viewBox="0 0 64 64" xmlns="http://www.w3.org/2000/svg">
 <defs>
  <linearGradient id="a" y1="1">
   <stop stop-color="#f10c86" offset="0"/>
   <stop stop-color="#f10cee" offset="1"/>
  </linearGradient>
  <linearGradient id="c" y1="1">
   <stop stop-color="#05f" offset="0"/>
   <stop stop-color="#00ffd8" offset="1"/>
  </linearGradient>
 </defs>
 <path transform="translate(-.006585 -.006239) scale(.9998) translate(-35.09 -30.16) scale(2.097)" d="m39.04 22.61-2.348.002c-.696 0-1.174.543-1.174 1.168v2.35h-16.43c-1.174 0-2.35 1.172-2.35 2.346v12.91c0 1.174 1.176 2.348 2.35 2.348h25.82c1.173 0 2.348-1.174 2.348-2.348v-12.91c0-1.174-1.175-2.346-2.348-2.346h-4.695v-2.35c0-.65-.524-1.17-1.174-1.17zm-1.762 1.174h1.174c.325 0 .588.263.588.588v1.762h-2.348v-1.762c0-.326.26-.588.586-.588zm-16.21 4.691 8.941.006c.994 0 1.984.832 1.984 1.672v9.56c0 .838-.99 1.682-1.984 1.682h-8.941q-.189 0-.371-.04c-.856-.17-1.613-.905-1.613-1.638v-9.562c0-.838.991-1.674 1.984-1.674zm13.28.006h8.58c.994 0 1.982.835 1.982 1.674v9.56c0 .839-.99 1.68-1.982 1.68h-8.58zm2.934 1.172a.588.588 0 0 0 0 1.176h1.174a.588.588 0 0 0 0-1.176zm3.523 0a.588.588 0 0 0 0 1.176h1.174a.588.588 0 0 0 0-1.176zm-3.523 2.344a.589.589 0 0 0 0 1.178h1.174a.589.589 0 0 0 0-1.178zm3.523 0a.589.589 0 0 0 0 1.178h1.174a.589.589 0 0 0 0-1.178zm0 2.346a.588.588 0 0 0 0 1.176h1.174a.588.588 0 0 0 0-1.176zm-3.523.004a.588.588 0 0 0 0 1.174h1.174a.588.588 0 0 0 0-1.174z" fill="url(#a)"/>
 <path transform="translate(-.006585 -.006239) scale(.9998) translate(-35.09 -30.16) scale(2.097)" d="m42.56 37.86a1.174 1.174 0 1 0 0 2.348 1.174 1.174 0 0 0 0-2.348" fill="url(#c)"/>
 <path transform="translate(-.006585 -.006239) scale(.9998) translate(-35.09 -30.16) scale(2.097)" d="m25.54 30.82a4.11 4.11 0 1 0 0 8.219 4.11 4.11 0 0 0 0-8.219m-2e-3 2.348h2e-3a1.762 1.762 0 1 1-2e-3 3.522 1.762 1.762 0 0 1 0-3.522" fill="url(#c)"/>
 <path transform="translate(-.006585 -.006239) scale(.9998) translate(-35.09 -30.16) scale(2.097)" d="m40.22 15.56v1.174h1.174a4.674 4.674 0 0 1 4.695 4.697v1.174h1.174v-1.174a5.857 5.857 0 0 0-5.869-5.871zm-1.174 3.523v1.174h1.174c1.3 0 2.348 1.047 2.348 2.348v1.172h1.174v-1.174a3.514 3.514 0 0 0-3.522-3.52z" fill="url(#c)"/>
</svg>
