<svg fill="none" version="1.1" viewBox="0 0 64 64" xmlns="http://www.w3.org/2000/svg">
 <defs>
  <linearGradient id="a" x1="112.5" x2="11.5" y1="9" y2="117.5" gradientUnits="userSpaceOnUse">
   <stop stop-color="#FFC700" offset="0"/>
   <stop stop-color="#FF49AB" offset=".1987"/>
   <stop stop-color="#BA49FF" offset=".3796"/>
   <stop stop-color="#5849FF" offset=".5312"/>
   <stop stop-color="#1EFFD6" offset=".8438"/>
   <stop stop-color="#0ff" offset=".9999"/>
  </linearGradient>
 </defs>
 <path transform="translate(-2.434 -2.788) scale(.5406)" d="m109.8 5.49c-1.217-0.00184-2.442 0.1723-3.639 0.5352-2.612 0.7155-4.846 2.28-6.557 4.229-8.336 9.101-16.68 18.2-25.02 27.29l-0.003906 0.005859a1.5 1.5 0 0 0-0.003906 0.003907c-6.854 7.472-13.71 14.94-20.56 22.42-5.232 5.259-4.726 14.53 1.146 19.12 5.127 4.396 13.33 3.911 17.89-1.055 15.46-16.81 30.88-33.63 46.31-50.46 3.466-3.607 4.462-9.06 2.68-13.67-1.705-4.711-6.192-7.882-11.03-8.352-0.4021-0.03899-0.8073-0.05993-1.213-0.06055zm-48.96 0.125c-2.127 0.09998-4.246 0.3087-6.346 0.6172l0.001953-0.001953c-21.19 3.066-39.79 18.5-46.66 38.65-3.88 11-4.318 23.09-1.434 34.36 0.5895 3.071 3.677 5.076 6.727 4.42 3.336-0.5117 5.479-3.966 4.514-7.166l-0.009766-0.03711c-2.432-9.626-1.941-20.02 1.727-29.23a1.5 1.5 0 0 0 0.005859-0.01172c4.65-11.98 14.53-21.89 26.53-26.65a1.5 1.5 0 0 0 0.01172-0.005859c9.244-3.758 19.73-4.453 29.41-2.02 0.01282 0.0032 0.02625 0.006466 0.03906 0.009766 0.989 0.2873 2.097 0.4609 3.246 0.3359 1.145-0.1246 2.353-0.6046 3.277-1.57 3.068-2.798 1.976-8.237-2.02-9.525a1.5 1.5 0 0 0-0.04102-0.01367c-6.159-1.792-12.6-2.458-18.98-2.158zm48.95 11.52c0.0948 0.003001 0.1916 0.01388 0.2871 0.0332 0.3928 0.07945 0.7639 0.2828 0.9395 0.5742a1.5 1.5 0 0 0 0.09375 0.1367c0.228 0.2978 0.2567 0.5505 0.1465 0.9785s-0.4347 0.9488-0.8125 1.295a1.5 1.5 0 0 0-0.0918 0.0918c-6.082 6.619-12.16 13.24-18.23 19.87a1.5 1.5 0 0 0-0.01172 0.01367l-0.001953 0.001953a1.5 1.5 0 0 0-0.001954 0.001953c-9.131 9.964-18.26 19.93-27.42 29.86a1.5 1.5 0 0 0-0.06641 0.07812c-0.5664 0.7052-2.234 0.4133-2.469-0.4609a1.5 1.5 0 0 0-0.0625-0.1816c-0.1649-0.4006-0.1236-0.5759 0.1074-1.016 0.231-0.4397 0.7192-1 1.254-1.576 0.091-0.09794 0.1815-0.1962 0.2734-0.2969l0.007812-0.007812c6.31-6.81 12.57-13.66 18.84-20.51a1.5 1.5 0 0 0 0.04297-0.04492l0.001953-0.001953a1.5 1.5 0 0 0 0.001953-0.001953c8.771-9.591 17.54-19.18 26.42-28.64 0.1967-0.1435 0.4674-0.2082 0.752-0.1992zm5.99 30.02c-0.8503 0.01283-1.705 0.2239-2.502 0.6406-2.765 1.308-3.67 4.497-2.936 7.129l0.0039 0.01562 0.02735 0.1113c-6e-3 -0.0183-0.01033-0.03632-0.01563-0.05469 2.586 12.53-0.2027 26.11-7.637 36.56a1.5 1.5 0 0 0-0.00781 0.01172c-8.322 11.93-22.51 19.9-37.15 20.08-1.108-0.0237-2.367 0.0589-3.596 0.4961-1.211 0.4312-2.418 1.304-3.084 2.684-2.096 3.73 0.9102 8.654 5.238 8.365 22.3 0.4544 43.63-13.45 53.02-33.37l0.00195-0.005859c5.718-11.81 7.231-25.51 4.324-38.27-0.5814-2.717-3.106-4.428-5.693-4.389zm-53.14 26.3c0.3764 0.07618 0.7622 0.1056 1.146 0.08789-0.3843 0.01767-0.7701-0.01172-1.146-0.08789zm-22.86 1.117c-1.159 0.02776-2.322 0.1671-3.477 0.4219-7.809 1.486-14.22 7.974-15.45 15.82a1.5 1.5 0 0 0-0.003906 0.02539c-0.6388 4.576-1.858 9.158-4.812 12.38-2.273 2.441-5.691 3.653-9.221 4.686 0.02786-6e-3 0.05553-0.01247 0.08398-0.01757l-0.1543 0.03711c-1.079 0.2677-1.703 1.213-1.898 2.021-0.2033 0.8393-0.1584 1.745 0.5117 2.57 3.181 4.225 8.263 6.654 13.42 7.002a1.5 1.5 0 0 0 0.01758 0.00195c11.81 0.6601 24.26-2.2 33.62-9.943 6.637-5.076 9.28-14.39 6.262-22.16-2.766-7.789-10.71-13.04-18.89-12.84zm0.1895 11.64c0.4723-0.0089 0.9459 0.02098 1.414 0.08984 1.873 0.2755 3.652 1.164 4.854 2.592a1.5 1.5 0 0 0 0.05469 0.0625c2.746 2.919 2.573 8.131-0.3477 10.87-5.094 4.64-11.88 7.05-18.82 7.838 2.758-4.31 4.373-9.243 5.062-14.2a1.5 1.5 0 0 0 0.007812-0.07227c0.219-2.413 1.663-4.718 3.74-5.984a1.5 1.5 0 0 0 0.03711-0.02344c1.18-0.7677 2.581-1.149 3.998-1.176zm5.453 17.91c-1.765 1.288-3.654 2.379-5.625 3.287 1.971-0.9078 3.86-1.999 5.625-3.287z" clip-rule="evenodd" fill="url(#a)" fill-rule="evenodd" stop-color="#000000" stroke-linecap="round" stroke-linejoin="round"/>
</svg>
