<svg version="1.1" viewBox="0 0 64 64" xmlns="http://www.w3.org/2000/svg">
 <defs>
  <linearGradient id="a" x2="0" y1="1">
   <stop stop-color="#5b00e3" offset="0"/>
   <stop stop-color="#f0f" offset="1"/>
  </linearGradient>
 </defs>
 <path transform="translate(.00173 .00702) scale(1) translate(.00038 .000174) scale(1)" d="m58.77 0-53.54 0.003906c-2.877 1.52e-4 -5.23 2.355-5.228 5.232v7.955c0 1.078 0.8153 1.856 1.762 2.328 0.7057 0.3528 1.652 0.4457 2.582 0.541v0.1875h24.7v5.824c0.01203 0.9026 0.3898 1.687 0.959 2.188s1.291 0.7305 2.002 0.7305c0.7099 0 1.43-0.2296 2-0.7305 0.5692-0.5007 0.947-1.285 0.959-2.188v-5.834h22.92v15.77c0.0097 0.9368 0.3982 1.747 0.9863 2.266 0.5878 0.5183 1.335 0.7578 2.07 0.7578 0.7352 0 1.482-0.2395 2.07-0.7578 0.5878-0.5183 0.9766-1.329 0.9863-2.266v-26.78c0.001069-2.877-2.348-5.232-5.225-5.232zm-52.09 6.121h50.65c0.3218 0 0.5586 0.2368 0.5586 0.5586v3.453h-51.77v-3.453c0-0.3197 0.2398-0.5576 0.5606-0.5586zm-3.508 15.65c-0.1073-0.0042-0.2146-0.0036-0.3242 0.0039h-0.00391c-1.595 0.1091-2.845 1.45-2.846 3.049v33.94c1.521e-4 2.876 2.352 5.227 5.228 5.227h53.54c2.876-1.53e-4 5.228-2.35 5.228-5.227v-13.75c-0.009723-0.9368-0.3982-1.747-0.9863-2.266-0.5878-0.5183-1.335-0.7578-2.07-0.7578-0.7352 0-1.482 0.2395-2.07 0.7578-0.5878 0.5183-0.9786 1.329-0.9883 2.266v12.31c0 0.3204-0.2368 0.5586-0.5586 0.5586h-22.37v-5.19c0-0.913-0.3756-1.711-0.9473-2.219-0.5716-0.5081-1.296-0.7422-2.012-0.7422-0.7155 0-1.444 0.2341-2.016 0.7422-0.5716 0.5081-0.9452 1.306-0.9453 2.219v5.184h-22.35c-0.3218 0-0.5586-0.2421-0.5586-0.5625v-32.49c-5.76e-4 -1.647-1.327-2.99-2.938-3.053z" fill="url(#a)"/>
 <path transform="translate(.00173 .00702) scale(1) translate(.00038 .000174) scale(1)" d="m25.1 24.68c-0.5328-8e-3 -1.046 0.1124-1.498 0.4238-0.907 0.624-1.188 1.748-1.18 2.893s0.2304 2.524 0.5117 4.35l1.496 9.707c0.1546 1 0.2671 1.764 0.4492 2.414 0.182 0.651 0.4806 1.315 1.146 1.68a1.062 1.062 0 0 0 2e-3 2e-3c0.3061 0.1663 0.6445 0.2661 0.9922 0.293a1.062 1.062 0 0 0 0.01172 2e-3c0.7564 0.05191 1.364-0.344 1.869-0.793 0.5047-0.4489 1.013-1.035 1.684-1.793a1.062 1.062 0 0 0 2e-3 0c0.4296-0.4857 0.7415-0.8333 0.9414-1.012 0.121-0.1081 0.1745-0.1414 0.1914-0.1504l2e-3 2e-3c0.03399-3e-3 0.0681-0.0028 0.1016 0.0039h0.0059c0.01577 0.01052 0.06353 0.0505 0.1738 0.1758 0.1769 0.2009 0.4466 0.584 0.8144 1.117l2.467 3.578a1.062 1.062 0 0 0 2e-3 0c0.3667 0.5303 0.5808 0.9122 1.08 1.234a1.062 1.062 0 0 0 0 2e-3c0.5371 0.3447 1.19 0.4649 1.814 0.334 0.5828-0.1218 0.9209-0.4078 1.451-0.7734 0.5321-0.3668 0.914-0.581 1.236-1.082a1.062 1.062 0 0 0 0.0039-2e-3c0.3427-0.5367 0.4652-1.188 0.3301-1.816-0.1231-0.5836-0.4079-0.9215-0.7754-1.451l-2.461-3.545c-0.3745-0.539-0.6405-0.9341-0.7676-1.174-0.07303-0.1378-0.09688-0.2014-0.1035-0.2246 0.0047-0.03391 0.0151-0.06269 0.0293-0.09375v-0.0039c0.01502-0.01357 0.06725-0.05123 0.2129-0.127 0.2412-0.1255 0.6857-0.2992 1.301-0.5312 0.9588-0.3624 1.689-0.6346 2.295-0.9512 0.6052-0.3168 1.201-0.754 1.414-1.49 0.0922-0.3168 0.1203-0.6582 0.07813-0.9863-0.09685-0.7598-0.6173-1.286-1.166-1.691-0.5492-0.4063-1.23-0.7865-2.123-1.293l-8.525-4.842c-1.607-0.9124-2.821-1.611-3.889-2.028-0.2669-0.1039-0.5387-0.1924-0.8106-0.2539h-2e-3c-0.2711-0.06143-0.5405-0.09919-0.8066-0.1035z" fill="url(#a)"/>
</svg>
