<svg xmlns="http://www.w3.org/2000/svg" viewBox="0 0 64 64"><defs><linearGradient id="a" y1="1"><stop offset="0" stop-color="#00a0ff"/><stop offset="1" stop-color="#00ffe7"/></linearGradient></defs><path fill="url(#a)" d="M20.57 0a2.28 2.28 0 0 0-2.287 2.285v16h-16a2.286 2.286 0 0 0 0 4.572h16v18.28h-16a2.286 2.286 0 0 0 0 4.572h16v16a2.286 2.286 0 0 0 4.572 0v-16h18.28v16a2.286 2.286 0 0 0 4.572 0v-16h16a2.286 2.286 0 0 0 0-4.572h-16v-18.28h16a2.286 2.286 0 0 0 0-4.572h-16v-16a2.286 2.286 0 0 0-4.572 0v16h-18.28v-16A2.28 2.28 0 0 0 20.57 0m2.285 22.86h18.28v18.28h-18.28z" transform="translate(.003 .001)"/><path fill="#f0f" d="M7.075 2.694c-.946 0-1.717.77-1.717 1.73v4.299c0 .99.949 1.713 1.717 1.713h4.312c.473 0 .856.576.856 1.285 0 .724-.383 1.301-.856 1.301H5.358v.856c0 .945.772 1.712 1.717 1.712H13.1c.946 0 1.715-.767 1.715-1.713V9.578c0-1.212-.725-1.728-1.715-1.728H8.801c-.473 0-.857-.576-.857-1.285S8.328 5.28 8.8 5.28h6.014v-.855c0-.96-.77-1.73-1.715-1.73zM29.003 25.551a1.72 1.72 0 0 0-1.728 1.727v.86h6.027c.473 0 .857.573.857 1.282 0 .724-.384 1.3-.857 1.3h-4.299c-.99 0-1.728.505-1.728 1.716v4.3c0 .96.768 1.71 1.728 1.71h6.012c.96 0 1.715-.75 1.715-1.71v-.858h-6.014c-.473 0-.857-.577-.857-1.301 0-.71.384-1.285.857-1.285h4.299c.768 0 1.715-.723 1.715-1.713v-4.301c0-.96-.755-1.727-1.715-1.727zM50.863 48.461c-.96 0-1.73.766-1.73 1.727v.86h6.029c.473 0 .856.575.856 1.284 0 .724-.383 1.3-.856 1.3h-4.299c-.99 0-1.73.503-1.73 1.714v4.3c0 .96.77 1.712 1.73 1.712h6.01c.96 0 1.717-.753 1.717-1.713v-.855h-6.016c-.473 0-.855-.579-.855-1.303 0-.71.382-1.283.855-1.283h4.299c.768 0 1.717-.724 1.717-1.713v-4.303a1.71 1.71 0 0 0-1.717-1.727zM13.093 48.461l-6.02.002c-.944 0-1.713.768-1.713 1.727v4.293c0 .989.946 1.713 1.713 1.713h4.31c.472 0 .854.574.854 1.297 0 .708-.382 1.285-.854 1.285H5.36v.857c0 .96.769 1.727 1.713 1.727h6.02c.945 0 1.713-.767 1.713-1.727v-9.447c0-.959-.769-1.727-1.713-1.727zM8.8 51.045h2.584c.472 0 .854.577.854 1.285 0 .723-.382 1.299-.854 1.299H8.8c-.472 0-.855-.576-.855-1.299 0-.708.383-1.285.855-1.285"/><path fill="#00f" d="M23.383 18.891c-.495 0-1.305-.01-1.783.111a3.69 3.69 0 0 0-2.656 2.654c-.121.479-.11 1.288-.11 1.783v1.36a.896.896 0 0 0 .897.896h1.871a.896.896 0 0 0 .897-.897V23.45a.896.896 0 0 1 .896-.896h1.367a.896.896 0 0 0 .897-.897v-1.87a.896.896 0 0 0-.897-.897zm15.85 0a.896.896 0 0 0-.896.897v1.87a.896.896 0 0 0 .896.897H40.6a.896.896 0 0 1 .896.897v1.347a.896.896 0 0 0 .897.897h1.873a.896.896 0 0 0 .897-.897v-1.357c0-.494.01-1.305-.112-1.783a3.69 3.69 0 0 0-2.656-2.654c-.478-.12-1.286-.11-1.78-.11zm-19.51 19.35a.896.896 0 0 0-.895.895v1.358c0 .495-.011 1.306.11 1.784a3.69 3.69 0 0 0 2.656 2.656c.478.12 1.288.109 1.783.109h1.379a.896.896 0 0 0 .894-.895v-1.873a.896.896 0 0 0-.894-.894h-1.37a.896.896 0 0 1-.894-.897v-1.35a.896.896 0 0 0-.896-.894zm22.68 0a.896.896 0 0 0-.897.895v1.351a.896.896 0 0 1-.894.897h-1.367a.896.896 0 0 0-.895.895v1.872a.896.896 0 0 0 .895.895h1.379c.495 0 1.303.01 1.781-.111a3.69 3.69 0 0 0 2.658-2.654c.121-.479.11-1.288.11-1.783v-1.36a.896.896 0 0 0-.897-.894z"/></svg>