<svg version="1.1" viewBox="0 0 64 64" xmlns="http://www.w3.org/2000/svg">
 <defs>
  <linearGradient id="a" x1="1" x2="0" y1="1">
   <stop stop-color="#5433ff" offset="0"/>
   <stop stop-color="#20bdff" offset=".5"/>
   <stop stop-color="#a5fecb" offset="1"/>
  </linearGradient>
 </defs>
 <path transform="translate(-.00336 -.008049) scale(1) matrix(.0752 0 0 .0752 -4.136 68.14)" d="m480.3-906c-59.36 0-114.8 11.2-166.3 33.56-51.51 22.35-96.53 52.7-135 91.02-38.51 38.33-68.8 83.26-90.86 134.8-22.05 51.55-33.09 107-33.09 166.3s11.03 114.7 33.09 166.1c22.06 51.46 52.4 96.5 91.02 135.1s83.7 68.96 135.2 91.02c51.5 22.05 106.8 33.09 166.1 33.09 59.25 0 114.7-11.1 166.2-33.28 51.56-22.18 96.48-52.45 134.8-90.86s68.66-83.39 91.02-134.9c22.35-51.49 33.56-106.9 33.56-166.2 1e-5 -59.38-11.19-114.9-33.52-166.6-22.32-51.68-52.62-96.65-90.9-134.9-38.27-38.23-83.22-68.48-134.8-90.78-51.63-22.3-107.1-33.48-166.5-33.48zm-0.7812 95c92.59 0 171 32.19 235.2 96.52 64.21 64.33 96.33 142.3 96.33 234 1e-5 92.51-32.19 170.9-96.52 235.2-64.33 64.25-142.3 96.37-234 96.37-92.51 0-170.9-32.19-235.2-96.52-64.25-64.33-96.37-142.3-96.37-234 1e-5 -92.59 32.19-171 96.52-235.2 64.33-64.21 142.3-96.33 234-96.33z" fill="url(#a)"/>
 <path transform="translate(-.00336 -.008049) scale(1)" d="m35.29 11.2c-4.831 0-8.761 3.931-8.761 8.761 0 1.715 0.51 3.299 1.365 4.652-3.714 0.7233-6.142 2.735-6.451 3.015a4.373 4.373 0 0 0 2.383 7.629l-1.21 2.42c-1.77 3.526-1.968 7.063-0.5602 9.971 1.238 2.55 3.552 4.281 6.511 4.881 0.9041 0.1835 1.828 0.2807 2.744 0.2807 5.186 0 8.689-2.956 9.067-3.292a4.371 4.371 0 0 0-2.388-7.623l1.209-2.418c1.77-3.526 1.967-7.076 0.5564-9.971a8.767 8.767 0 0 0-0.9691-1.517 8.761 8.761 0 0 0 5.257-8.02c0-4.831-3.928-8.761-8.761-8.761zm0 4.381a4.381 4.381 0 0 1-0.0051 8.761 4.381 4.381 0 0 1 0.0051-8.761zm-4.783 13.14h0.0013c0.593 0 1.225 0.05875 1.871 0.1943 3.591 0.7311 5.097 4.23 2.907 8.598l-2.187 4.367c-1.096 2.185-1.034 3.575 0.2312 4.458 0.396 0.2758 0.9489 0.3671 1.517 0.3671 1.264 0 2.628-0.4662 2.628-0.4662s-2.487 2.195-6.165 2.195c-0.5913 0-1.222-0.05875-1.867-0.1943-3.596-0.7324-5.1-4.231-2.912-8.598l2.193-4.371c1.096-2.181 1.027-3.569-0.2388-4.458-0.3941-0.274-0.9385-0.3684-1.505-0.3684-1.264 0-2.628 0.47-2.628 0.47s2.481-2.193 6.156-2.194z" fill="url(#a)"/>
</svg>
