<svg version="1.1" viewBox="0 0 64 64" xmlns="http://www.w3.org/2000/svg">
 <defs>
  <linearGradient id="a" y1=".5" y2=".5">
   <stop stop-color="#07f" offset="0"/>
   <stop stop-color="#00f7ff" offset="1"/>
  </linearGradient>
 </defs>
 <path transform="translate(-0) scale(1) translate(-.001151 -6.7e-5) scale(.9999) translate(-3.724 -3.721) scale(2.977)" d="m4.584 6.377-1.219 0.8125c-0.8731 0.5814-1.44 0.9265-1.793 1.588-0.3522 0.6613-0.3224 1.322-0.3184 2.365 0.00401 1.261 0.01469 2.546 0.04688 3.85 0.0385 1.538 0.06357 2.711 0.2402 3.713 0.1767 1.002 0.5438 1.859 1.227 2.541 0.6837 0.6837 1.546 1.05 2.557 1.227 1.011 0.1769 2.2 0.2012 3.758 0.2402 1.945 0.04864 3.891 0.04864 5.836 0 1.558-0.039 2.747-0.06152 3.758-0.2383s1.875-0.5441 2.559-1.228c0.6822-0.6822 1.05-1.54 1.227-2.541s0.1998-2.175 0.2383-3.713c0.03219-1.304 0.04482-2.59 0.04883-3.85 3e-3 -1.043 0.0316-1.703-0.3203-2.363-0.3521-0.664-0.919-1.008-1.793-1.59l-1.219-0.8125-0.832 1.246 1.219 0.8144c0.874 0.582 1.181 0.8189 1.301 1.045a0.7501 0.7501 0 0 0 0 0.00195c0.1212 0.227 0.1475 0.6101 0.1445 1.654-4e-3 1.254-0.01506 2.528-0.04687 3.816-0.0385 1.538-0.0743 2.67-0.2188 3.488-0.1444 0.8183-0.3608 1.294-0.8086 1.742-0.4462 0.4466-0.9265 0.6656-1.756 0.8106-0.8294 0.145-1.979 0.1798-3.537 0.2188-1.92 0.04801-3.842 0.04801-5.762 0-1.558-0.03899-2.706-0.07364-3.535-0.2188-0.8294-0.1451-1.31-0.3643-1.756-0.8106a0.7501 0.7501 0 0 0-0.00195 0c-0.4482-0.4478-0.6643-0.924-0.8086-1.742-0.1443-0.8182-0.1783-1.951-0.2168-3.488-0.03181-1.288-0.04288-2.564-0.04688-3.818-4e-3 -1.043 0.02079-1.426 0.1426-1.654 0.1208-0.2262 0.4268-0.4629 1.301-1.045a0.7501 0.7501 0 0 0 0.00195 0l1.217-0.8144z" fill="url(#a)"/>
 <path transform="translate(-0) scale(1) translate(-.001151 -6.7e-5) scale(.9999) translate(-3.724 -3.721) scale(2.977)" d="m2.387 9.357-0.7734 1.285 6.914 4.148c1.504 0.9021 2.371 1.459 3.473 1.459s1.968-0.5578 3.473-1.461v2e-3l6.914-4.148-0.7734-1.285-6.912 4.146c-1.504 0.9028-2.141 1.246-2.701 1.246s-1.197-0.3442-2.701-1.246v2e-3z" fill="url(#a)"/>
 <path transform="translate(-0) scale(1) translate(-.001151 -6.7e-5) scale(.9999) translate(-3.724 -3.721) scale(2.977)" d="m9 1.25c-0.943 0-1.665-0.004609-2.295 0.08008-0.6295 0.08469-1.213 0.2915-1.648 0.7266s-0.6419 1.019-0.7266 1.648c-0.08469 0.6295-0.08008 1.352-0.08008 2.295v6h1.5v-6c0-0.943 0.00459-1.634 0.06641-2.094 0.06181-0.4595 0.1499-0.6382 0.3008-0.7891s0.3296-0.239 0.7891-0.3008c0.4595-0.06181 1.151-0.06641 2.094-0.06641h6c0.943 0 1.634 0.00459 2.094 0.06641 0.4595 0.06181 0.6382 0.1499 0.7891 0.3008s0.239 0.3296 0.3008 0.7891c0.06181 0.4595 0.06641 1.151 0.06641 2.094v6h1.5v-6c0-0.943 0.0046-1.665-0.08008-2.295-0.08468-0.6295-0.2915-1.213-0.7266-1.648s-1.019-0.6419-1.648-0.7266-1.352-0.08008-2.295-0.08008z" fill="url(#a)"/>
 <path transform="translate(-0) scale(1) translate(-.001151 -6.7e-5) scale(.9999) translate(-3.724 -3.721) scale(2.977)" d="m10 5.25a0.75 0.75 0 0 0-0.75 0.75 0.75 0.75 0 0 0 0.75 0.75h4a0.75 0.75 0 0 0 0.75-0.75 0.75 0.75 0 0 0-0.75-0.75zm0 4a0.75 0.75 0 0 0-0.75 0.75 0.75 0.75 0 0 0 0.75 0.75h4a0.75 0.75 0 0 0 0.75-0.75 0.75 0.75 0 0 0-0.75-0.75z" fill="url(#a)"/>
</svg>
