<svg version="1.1" viewBox="0 0 64 64" xmlns="http://www.w3.org/2000/svg" xmlns:xlink="http://www.w3.org/1999/xlink">
 <defs>
  <linearGradient id="e" x1="-24.66" x2="97.04" y1="61.07" y2="-34.11" gradientTransform="matrix(.4435 0 0 .5671 15.95 24.36)" gradientUnits="userSpaceOnUse">
   <stop stop-color="#00f1fa" offset="0"/>
   <stop stop-color="#006cff" offset="1"/>
  </linearGradient>
  <linearGradient id="d" x1="16.25" x2="16.25" y1="49.96" y2="23.64" gradientUnits="userSpaceOnUse" xlink:href="#a"/>
  <linearGradient id="a" x2="0" y1="1">
   <stop stop-color="#ff007d" offset="0"/>
   <stop stop-color="#f000ff" offset="1"/>
  </linearGradient>
  <linearGradient id="c" x1="15.51" x2="15.51" y1="52.19" y2="45.37" gradientTransform="scale(1.554 .6434)" gradientUnits="userSpaceOnUse" xlink:href="#a"/>
  <linearGradient id="b" x1="37.37" x2="37.37" y1="55.19" y2="44.88" gradientTransform="scale(1.002 .9984)" gradientUnits="userSpaceOnUse" xlink:href="#a"/>
 </defs>
 <path transform="translate(-.000637 9.8e-5) scale(1) translate(-.00187 3.2e-5) scale(1)" d="m32 0c-7.017 0-12.33-0.01428-16.63 0.5645-4.305 0.5775-7.751 1.844-10.35 4.447h-0.00586c-2.603 2.605-3.868 6.055-4.447 10.36-0.579 4.308-0.5645 9.614-0.5645 16.63s-0.01457 12.32 0.5645 16.63c0.5775 4.302 1.847 7.752 4.447 10.35l0.00586 0.0059c2.599 2.601 6.049 3.869 10.35 4.447 4.308 0.579 9.614 0.5645 16.63 0.5645s12.32 0.01309 16.63-0.5645c4.305-0.5775 7.755-1.849 10.36-4.453 2.601-2.599 3.869-6.049 4.447-10.35 0.5786-4.308 0.5645-9.612 0.5645-16.63s0.01428-12.32-0.5645-16.63c-0.5775-4.305-1.845-7.755-4.447-10.36-2.605-2.601-6.055-3.869-10.36-4.447-4.305-0.5786-9.612-0.5645-16.63-0.5645zm0 4.465c7.017-1e-7 12.24 0.01258 16.04 0.5234 3.799 0.5097 6.036 1.423 7.795 3.18 1.755 1.756 2.669 3.995 3.18 7.797 0.0366 0.2724 0.07185 0.5528 0.1035 0.8398h-54.23c0.03169-0.287 0.06688-0.5676 0.1035-0.8398 0.5103-3.799 1.428-6.038 3.186-7.797 1.753-1.754 3.989-2.669 7.791-3.18 3.802-0.5109 9.02-0.5234 16.04-0.5234zm-27.42 16.8h54.84c0.1125 2.99 0.1172 6.54 0.1172 10.73 0 7.017-0.01258 12.24-0.5234 16.04-0.5097 3.802-1.425 6.037-3.18 7.791-1.756 1.756-3.993 2.674-7.795 3.186-3.802 0.5111-9.02 0.5234-16.04 0.5234-7.017 1e-6 -12.24-0.01258-16.04-0.5234-3.799-0.51-6.037-1.424-7.791-3.18v-0.0059c-1.756-1.756-2.674-3.992-3.186-7.791-0.5112-3.802-0.5234-9.02-0.5234-16.04 0-4.192 0.0047-7.743 0.1172-10.73z" fill="url(#e)" stroke-width=".5015"/>
 <path transform="translate(-.000637 9.8e-5) scale(1) translate(-.00187 3.2e-5) scale(1)" d="m32.45 8.022a2.977 2.977 0 0 1 2.773 2.971 2.977 2.977 0 0 1-5.954 0 2.977 2.977 0 0 1 3.179-2.971z" fill="#fcd218" stroke-width=".5015"/>
 <path transform="translate(-.000637 9.8e-5) scale(1) translate(-.00187 3.2e-5) scale(1)" d="m41.38 8.022a2.977 2.977 0 0 1 2.773 2.971 2.977 2.977 0 0 1-5.954 0 2.977 2.977 0 0 1 3.179-2.971z" fill="#ae00ed" stroke-width=".5015"/>
 <path transform="translate(-.000637 9.8e-5) scale(1) translate(-.00187 3.2e-5) scale(1)" d="m50.31 8.022a2.977 2.977 0 0 1 2.773 2.971 2.977 2.977 0 0 1-5.954 0 2.977 2.977 0 0 1 3.179-2.971z" fill="#ff493b" stroke-width=".5015"/>
 <g transform="translate(-.000637 9.8e-5) scale(1) translate(-.00187 3.2e-5) scale(1) matrix(1.02 0 0 1.02 -.6485 .2342)">
  <path transform="translate(0,1e-4)" d="m29.41 23.64c-7.254 0-13.16 5.91-13.16 13.16 0 7.254 5.91 13.16 13.16 13.16 7.254 0 13.16-5.909 13.16-13.16 0-7.254-5.91-13.16-13.16-13.16zm0 2.77c5.756 0 10.39 4.639 10.39 10.4 0 5.756-4.637 10.39-10.39 10.39-5.756 0-10.4-4.637-10.4-10.39 0-5.756 4.639-10.4 10.4-10.4z" fill="url(#d)"/>
  <path transform="translate(0,1e-4)" d="m29.41 29.19c-1.838-0.0013-3.601 0.728-4.898 2.029a1.386 1.386 0 0 0 2e-3 1.961 1.386 1.386 0 0 0 1.957-0.0039c0.7788-0.7802 1.838-1.216 2.94-1.215a1.386 1.386 0 0 0 0.0039 0c1.102-0.0012 2.157 0.4344 2.936 1.215a1.386 1.386 0 0 0 1.957 0.0039 1.386 1.386 0 0 0 0.0039-1.961c-1.298-1.3-3.061-2.031-4.898-2.029z" fill="url(#c)"/>
  <path transform="translate(0,1e-4)" d="m39.14 44.81-1.709 1.676 0.9199 0.918c-0.3876 0.7533-0.241 1.673 0.3613 2.268l4.832 4.863c0.7496 0.7506 1.977 0.7506 2.727 0l0.918-0.9199c0.7498-0.7544 0.7498-1.971 0-2.727l-4.861-4.832c-0.5997-0.5999-1.523-0.7336-2.268-0.3281z" fill="url(#b)"/>
 </g>
</svg>
