<svg version="1.1" viewBox="0 0 64 64" xmlns="http://www.w3.org/2000/svg" xmlns:xlink="http://www.w3.org/1999/xlink">
 <defs>
  <linearGradient id="b" x2="0" y1="1">
   <stop stop-color="#0357d1" offset="0"/>
   <stop stop-color="#27cdfc" offset="1"/>
  </linearGradient>
  <linearGradient id="d" y1="1">
   <stop stop-color="#fea51d" offset="0"/>
   <stop stop-color="#ff0a76" offset="1"/>
  </linearGradient>
  <linearGradient id="a" x2="0" y2="1">
   <stop stop-color="#f7f206" offset="0"/>
   <stop stop-color="#ffbb24" offset="1"/>
  </linearGradient>
  <linearGradient id="e" x1=".122" x2=".122" y1="-.006" y2="63.85" gradientTransform="scale(.9978 1.002)" gradientUnits="userSpaceOnUse" xlink:href="#a"/>
  <linearGradient id="f" x1="36.7" x2="36.7" y1="13.49" y2="31.65" gradientTransform="scale(.7227 1.384)" gradientUnits="userSpaceOnUse" xlink:href="#a"/>
 </defs>
 <path transform="translate(0) scale(1) translate(5e-4) scale(1) translate(-.003)" d="M13.24 0c-1.511 0-2.935.619-4.008 1.74a5.78 5.78 0 0 0-1.617 4.01v52.6a5.63 5.63 0 0 0 5.625 5.625h37.5a5.63 5.63 0 0 0 5.625-5.625V5.75c0-3.108-2.512-5.75-5.625-5.75zm-.006 3.728h.008l-.002.021h37.5c.998 0 1.875.935 1.875 2v52.6a1.877 1.877 0 0 1-1.875 1.875H26.26c-.081-.74-1.348-2.377-3.113-4.309a5.8 5.8 0 0 1-1.35 1.096 5.7 5.7 0 0 1-1.346.569c1.164 1.26 1.979 2.275 2.039 2.682h-9.24a1.877 1.877 0 0 1-1.875-1.875l-.004-9.244c.185.026 1.055.733 2.234 1.78.236-.962.697-1.946 1.38-2.907-1.805-1.564-3.218-2.64-3.626-2.688v-39.6c0-1.066.877-2 1.875-2z" fill="url(#b)"/>
 <path transform="translate(0) scale(1) translate(5e-4) scale(1) translate(-.003)" d="m16.98 7.625a1.875 1.875 0 1 0 0 3.75 1.875 1.875 0 0 0 0-3.75" fill="url(#d)"/>
 <path transform="translate(0) scale(1) translate(5e-4) scale(1) translate(-.003)" d="m46.98 7.625a1.875 1.875 0 1 0 0 3.75 1.875 1.875 0 0 0 0-3.75" fill="url(#d)"/>
 <path transform="translate(0) scale(1) translate(5e-4) scale(1) translate(-.003)" d="m39.49 45.25a1.875 1.875 0 1 0 0 3.75h7.5a1.875 1.875 0 1 0 0-3.75z" fill="url(#d)"/>
 <path transform="translate(0) scale(1) translate(5e-4) scale(1) translate(-.003)" d="m39.49 52.75a1.875 1.875 0 1 0 0 3.75h7.5a1.875 1.875 0 1 0 0-3.75z" fill="url(#d)"/>
 <g transform="translate(0) scale(1) translate(5e-4) scale(1) matrix(1.228 0 0 1.228 -6.845 -2.18)">
  <path transform="matrix(.399 0 0 .399 19.48 11.76)" d="m31.84-6e-3a32.1 32.1 0 0 0-21.23 8.107l-3.553-3.553a2.67 2.67 0 0 0-2.906-0.578 2.66 2.66 0 0 0-1.195 0.982 2.67 2.67 0 0 0-0.451 1.48v12.23a2.665 2.665 0 0 0 2.668 2.667h12.23a2.666 2.666 0 0 0 2.615-3.187 2.66 2.66 0 0 0-0.729-1.366l-3.027-3.025a24.01 24.01 0 0 1 36.08 5.747 24 24 0 0 1 3.504 13.19 23.97 23.97 0 0 1-6.766 16.02 24 24 0 0 1-32.37 1.912 24 24 0 0 1-8.6-15.12 4.025 4.025 0 0 0-3.965-3.51 3.98 3.98 0 0 0-3.002 1.313 3.97 3.97 0 0 0-0.994 3.12 32.07 32.07 0 0 0 11.18 20.11 32.04 32.04 0 0 0 21.77 7.435 32.32 32.32 0 0 0 21.29-9.424 32.32 32.32 0 0 0 9.424-21.29 32.01 32.01 0 0 0-8.913-23.42 32.1 32.1 0 0 0-10.52-7.266 32 32 0 0 0-12.53-2.568z" fill="url(#e)"/>
  <path transform="matrix(.399 0 0 .399 19.48 11.76)" d="m30.52 18.67a4 4 0 0 0-4 4v11.45c0 1.414 0.562 2.771 1.562 3.772l4.783 4.781a3.999 3.999 0 0 0 5.654-5.656l-3.998-3.998v-10.35a4 4 0 0 0-4-4z" fill="url(#f)"/>
 </g>
 <path transform="translate(0) scale(1) translate(5e-4) scale(1) translate(-.003)" d="m27.09 34.27-.004.004a1.92 1.92 0 0 0-1.604.713l-10.19 12.61-.023.03c-1.53 1.97-2.12 4.055-1.738 5.888s1.699 3.217 3.254 3.848a5.7 5.7 0 0 0 5.014-.355c1.58-.923 2.775-2.687 3.207-5.012q0-.005.002-.01l3.842-15.33a1.92 1.92 0 0 0-1.006-2.188 1.9 1.9 0 0 0-.75-.2zm-4.094 9.906-1.742 6.941a2 2 0 0 0-.027.13c-.269 1.508-.847 2.13-1.373 2.439a1.84 1.84 0 0 1-1.625.113c-.5-.203-.83-.552-.938-1.07s-.032-1.403 1.01-2.746v-.002h.002v-.002z" fill="url(#d)"/>
</svg>
