<svg xmlns="http://www.w3.org/2000/svg" xmlns:xlink="http://www.w3.org/1999/xlink" viewBox="0 0 64 64"><defs><linearGradient id="a"><stop offset="0" stop-color="#953cfb"/><stop offset="1" stop-color="#4723b7"/></linearGradient><linearGradient xlink:href="#a" id="f" x1="-3.58" x2="-19.04" y1="-19.39" y2="-9.055" gradientTransform="translate(19.48 19.58)scale(.9546)" gradientUnits="userSpaceOnUse"/><linearGradient id="b" x1="58.6" x2="6.245" y1="57.27" y2="21" gradientUnits="userSpaceOnUse"><stop offset="0" stop-color="#ca00b2"/><stop offset=".662" stop-color="#fab003"/><stop offset="1" stop-color="#fc5466"/></linearGradient><linearGradient xlink:href="#a" id="e" x1="11.86" x2="5.364" y1="8.983" y2="11.71" gradientUnits="userSpaceOnUse"/><linearGradient xlink:href="#a" id="c" x1="3.1" x2="7.907" y1="8.451" y2="8.451" gradientUnits="userSpaceOnUse"/></defs><path fill="url(#b)" d="M11.72 17.13s-6.06 2.328-8.34 8.1c0 0-1.241 8.557 6.713 8.557s10.72-.787 15.26 2.664c4.537 3.451 31.95 24 31.95 24s1.409.834 3.1-.143 1.596-2.597 1.596-4.484v-11.51s.083-1.378-1.223-2.445c-1.305-1.067-15.58-12.16-15.58-12.16l-9.549-7.457s-3.579-3.178-5.762-3.44v2.211l-2.266-.183v14.19l-6.035-3.484H14.1l.365-11.77-2.75-.223v-2.43z" transform="translate(-2.136 -2.134)scale(1.067)"/><rect width="4.807" height="15.19" x="3.1" y=".855" fill="url(#c)" fill-rule="evenodd" ry="1.247" style="paint-order:stroke fill markers" transform="translate(-2.136 -2.134)scale(4.032)"/><rect width="2.894" height="13.2" x="4.057" y="1.85" fill="url(#e)" fill-rule="evenodd" ry=".701" style="paint-order:stroke fill markers" transform="translate(-2.136 -2.134)scale(4.032)"/><path fill="url(#f)" d="M15.5.851c-.271.005-.44.165-.44.165L9.003 5.544c.249.185.43.345.43.345l.31.24 5.768-4.29V5.12s-1.744 1.341-3.55 2.74c0 0 .518.405.752.586l3.303-2.566c.332-.257.33-.735.33-.735V2.531c0-.509.09-1.266-.42-1.56A.8.8 0 0 0 15.5.85zM.9 6.674C.466 7.542.473 8.855.647 9.53c.175.673.9 2.661 3.48 3.052 2.58.392 4.797-1.188 4.797-1.188l.057-.044-.75-.564-.043.035c-1.157.952-3.73 1.206-5.238.45-1.322-.665-1.529-2.38-1.56-2.795C1.13 8.211 1 7.872.936 7.558.82 7.08.9 6.675.9 6.675z" transform="translate(-2.136 -2.134)scale(4.032)"/></svg>