<svg version="1.1" viewBox="0 0 64 64" xmlns="http://www.w3.org/2000/svg" xmlns:xlink="http://www.w3.org/1999/xlink">
 <defs>
  <linearGradient id="a" y1="1">
   <stop stop-color="#00f1fa" offset="0"/>
   <stop stop-color="#006cff" offset="1"/>
  </linearGradient>
  <linearGradient id="d" x1="2.011" x2="54.76" y1="64.45" y2="11.7" gradientTransform="matrix(.5051 0 0 .498 15.95 24.36)" gradientUnits="userSpaceOnUse" xlink:href="#a"/>
  <linearGradient id="c" x1="30.04" x2="70.08" y1="40.03" gradientTransform="matrix(.4435 0 0 .5671 15.95 24.36)" gradientUnits="userSpaceOnUse" xlink:href="#a"/>
  <linearGradient id="b" x1="-24.66" x2="97.04" y1="61.07" y2="-34.11" gradientTransform="matrix(.4435 0 0 .5671 15.95 24.36)" gradientUnits="userSpaceOnUse" xlink:href="#a"/>
 </defs>
 <path transform="translate(0) scale(1) translate(-.000637 9.8e-5) scale(1) translate(-.00187 3.2e-5) scale(1)" d="m32 0c-7.017 0-12.33-0.01428-16.63 0.5645-4.305 0.5775-7.751 1.844-10.35 4.447h-0.00586c-2.603 2.605-3.868 6.055-4.447 10.36-0.579 4.308-0.5645 9.614-0.5645 16.63s-0.01457 12.32 0.5645 16.63c0.5775 4.302 1.847 7.752 4.447 10.35l0.00586 0.0059c2.599 2.601 6.049 3.869 10.35 4.447 4.308 0.579 9.614 0.5645 16.63 0.5645s12.32 0.01309 16.63-0.5645c4.305-0.5775 7.755-1.849 10.36-4.453 2.601-2.599 3.869-6.049 4.447-10.35 0.5786-4.308 0.5645-9.612 0.5645-16.63s0.01428-12.32-0.5645-16.63c-0.5775-4.305-1.845-7.755-4.447-10.36-2.605-2.601-6.055-3.869-10.36-4.447-4.305-0.5786-9.612-0.5645-16.63-0.5645zm0 4.465c7.017-1e-7 12.24 0.01258 16.04 0.5234 3.799 0.5097 6.036 1.423 7.795 3.18 1.755 1.756 2.669 3.995 3.18 7.797 0.0366 0.2724 0.07185 0.5528 0.1035 0.8398h-54.23c0.03169-0.287 0.06688-0.5676 0.1035-0.8398 0.5103-3.799 1.428-6.038 3.186-7.797 1.753-1.754 3.989-2.669 7.791-3.18 3.802-0.5109 9.02-0.5234 16.04-0.5234zm-27.42 16.8h54.84c0.1125 2.99 0.1172 6.54 0.1172 10.73 0 7.017-0.01258 12.24-0.5234 16.04-0.5097 3.802-1.425 6.037-3.18 7.791-1.756 1.756-3.993 2.674-7.795 3.186-3.802 0.5111-9.02 0.5234-16.04 0.5234-7.017 1e-6 -12.24-0.01258-16.04-0.5234-3.799-0.51-6.037-1.424-7.791-3.18v-0.0059c-1.756-1.756-2.674-3.992-3.186-7.791-0.5112-3.802-0.5234-9.02-0.5234-16.04 0-4.192 0.0047-7.743 0.1172-10.73z" fill="url(#b)" stroke-width=".5015"/>
 <path transform="translate(0) scale(1) translate(-.000637 9.8e-5) scale(1) translate(-.00187 3.2e-5) scale(1)" d="m32.45 8.022a2.977 2.977 0 0 1 2.773 2.971 2.977 2.977 0 0 1-5.954 0 2.977 2.977 0 0 1 3.179-2.971z" fill="#fcd218" stroke-width=".5015"/>
 <path transform="translate(0) scale(1) translate(-.000637 9.8e-5) scale(1) translate(-.00187 3.2e-5) scale(1)" d="m41.38 8.022a2.977 2.977 0 0 1 2.773 2.971 2.977 2.977 0 0 1-5.954 0 2.977 2.977 0 0 1 3.179-2.971z" fill="#ae00ed" stroke-width=".5015"/>
 <path transform="translate(0) scale(1) translate(-.000637 9.8e-5) scale(1) translate(-.00187 3.2e-5) scale(1)" d="m50.31 8.022a2.977 2.977 0 0 1 2.773 2.971 2.977 2.977 0 0 1-5.954 0 2.977 2.977 0 0 1 3.179-2.971z" fill="#ff493b" stroke-width=".5015"/>
 <path transform="translate(0) scale(1) translate(-.000637 9.8e-5) scale(1) translate(-.00187 3.2e-5) scale(1)" d="m22.9 30.18c-0.1455 0-0.291 0.05592-0.4026 0.1675l-2.417 2.42c-0.2232 0.2232-0.1695 0.5406 0 0.807l2.189 3.437c0.1731 0.2718 0.201 0.7297 0.07833 1.028-0.02232 0.05426-0.04562 0.1061-0.06565 0.1567-0.1184 0.2994-0.4553 0.6028-0.7698 0.673l-3.97 0.8837c-0.308 0.06846-0.5722 0.2565-0.5722 0.5722v3.022c0 0.3156 0.264 0.5025 0.5722 0.5712l3.97 0.8817c0.3146 0.06991 0.6515 0.3744 0.7729 0.673 0.02156 0.05316 0.04444 0.1067 0.0666 0.1597 0.1244 0.2972 0.09092 0.7543-0.0823 1.027l-2.189 3.435c-0.1695 0.2662-0.2232 0.5858 0 0.809l2.417 2.418c0.2232 0.2232 0.5828 0.2232 0.806 0l3.432-2.186c0.2717-0.1731 0.7257-0.1991 1.024-0.07543 0.06505 0.02703 0.1292 0.05316 0.19 0.07738 0.2991 0.1192 0.6023 0.459 0.672 0.7739l0.8807 3.967c0 0.3156 0.2545 0.5702 0.5702 0.5702h3.415c0.3156 0 0.5035-0.262 0.5722-0.5702l0.8837-4.106c0.0678-0.315 0.3687-0.659 0.663-0.7894 0.09579-0.04255 0.1907-0.08767 0.2851-0.1332 0.2902-0.1399 0.7302-0.116 0.992 0.07152l3.357 2.4c0.2232 0.2232 0.5818 0.2232 0.8055 0l2.418-2.418c0.2232-0.2232 0.1695-0.5427 0-0.809l-1.28-2.261c-0.5437 0.2009-1.124-0.03327-1.451-0.4721-0.05918-0.0793-0.138-0.2202-0.1881-0.3056l-1.061-1.807c-0.05014-0.08541-0.1205-0.07974-0.1606 0.01077-1.122 2.532-3.451 4.412-6.259 4.907-0.808 0.1425-2.152 0.1424-2.959 0-3.967-0.6996-6.986-4.164-6.986-8.33 0-3.586 2.233-6.645 5.381-7.874 0.0068-0.2784 8.03e-4 -0.7759-0.0049-1.157-0.0039-0.2615-0.2073-0.4057-0.4506-0.3095-0.1326 0.05236-0.2646 0.1078-0.3958 0.1636-0.2407 0.1024-0.6129 0.07407-0.8335-0.0666l-3.176-2.024c-0.1888-0.1204-0.4848-0.3675-0.7031-0.384-0.01408-0.0011-0.02899-3e-3 -0.04311-3e-3z" fill="url(#d)" stroke-width=".5015"/>
 <path transform="translate(0) scale(1) translate(-.000637 9.8e-5) scale(1) translate(-.00187 3.2e-5) scale(1)" d="m34.13 24.36 1e-3 0.0039a1.278 1.278 0 0 0-0.1685 0.01371l-3.213 0.4868a1.729 1.729 0 0 0-1.47 1.708v19.28a1.14 1.14 0 0 0 1.435 1.099l3.282-0.8817a1.939 1.939 0 0 0 1.435-1.87v-6.615a0.137 0.137 0 0 1 0.2547-0.07051l5.336 8.947a1.226 1.226 0 0 0 1.505 0.5126l3.826-1.515a1.076 1.076 0 0 0 0.431-1.688l-6.058-7.267a1.332 1.332 0 0 1-0.03331-1.663l6.139-7.969a0.982 0.982 0 0 0-0.5336-1.551l-3.088-0.7974a2.034 2.034 0 0 0-2.23 0.8887l-5.286 8.406a0.1432 0.1432 0 0 1-0.2645-0.07638v-8.105a1.278 1.278 0 0 0-1.302-1.278z" fill="url(#c)" stroke-width=".5015"/>
</svg>
