<svg xmlns="http://www.w3.org/2000/svg" fill="none" viewBox="0 0 64 64"><defs><linearGradient id="a" x1="12" x2="12" y1="22" y2="2" gradientUnits="userSpaceOnUse"><stop offset="0" stop-color="#5570ff"/><stop offset="1" stop-color="#4dd3ff"/></linearGradient><linearGradient id="c" x1="14" x2="14" y1="5" y2="15" gradientUnits="userSpaceOnUse"><stop offset="0" stop-color="#dc18fc"/><stop offset="1" stop-color="#8e1eff"/></linearGradient></defs><path fill="url(#a)" d="M4 7a1 1 0 1 0-2 0v13c0 1.1.9 2 2 2h13a1 1 0 1 0 0-2H5a1 1 0 0 1-1-1zm16-5H8c-1.1 0-2 .9-2 2v12c0 1.1.9 2 2 2h12c1.1 0 2-.9 2-2V4c0-1.1-.9-2-2-2m0 13a1 1 0 0 1-1 1H9a1 1 0 0 1-1-1V5a1 1 0 0 1 1-1h10a1 1 0 0 1 1 1z" transform="matrix(3.2 0 0 3.2 -6.4 -6.4)"/><path fill="url(#c)" d="M15.14 8.36c-.45.64-1.22 1.07-1.63 1.8-.16.29-.222.6-.246.891-.035.42.334.769.755.769.415 0 .726-.34.785-.75.029-.194.076-.3.146-.43.33-.6.93-.88 1.56-1.81.57-.84.36-1.97-.01-2.57-.43-.7-1.28-1.26-2.51-1.26-1.188 0-2.075.627-2.573 1.458-.198.331-.01.737.346.885.397.165.836-.062 1.11-.393a1.41 1.41 0 0 1 1.126-.53c1.35 0 1.62 1.26 1.14 1.94z" transform="matrix(3.2 0 0 3.2 -6.4 -6.4)"/><path fill="url(#c)" d="M14 12.91c-.58 0-1.05.45-1.05 1.04 0 .58.47 1.05 1.05 1.05.6 0 1.04-.47 1.04-1.05 0-.59-.45-1.04-1.04-1.04" transform="matrix(3.2 0 0 3.2 -6.4 -6.4)"/></svg>