<svg version="1.1" viewBox="0 0 64 64" xmlns="http://www.w3.org/2000/svg">
 <defs>
  <linearGradient id="a" x2="0" y1="1">
   <stop stop-color="#d800bd" offset="0"/>
   <stop stop-color="#f92d7a" offset=".408"/>
   <stop stop-color="#ff4a52" offset=".59"/>
   <stop stop-color="#ffb243" offset="1"/>
  </linearGradient>
  <linearGradient id="c" x2="0" y1="1">
   <stop stop-color="#ff00e2" offset="0"/>
   <stop stop-color="#00b2ff" offset="1"/>
  </linearGradient>
 </defs>
 <g transform="translate(-0) scale(1) translate(.001006 .001006) scale(1)" stroke-width=".4">
  <g fill="#f0f">
   <path d="M3.19 0A3.184 3.184 0 0 0 0 3.188v22.308a3.184 3.184 0 0 0 3.19 3.19h22.307a3.184 3.184 0 0 0 3.19-3.19V3.189a3.184 3.184 0 0 0-3.19-3.19zm5.145 6.62h12.019c.95 0 1.714.764 1.714 1.715v12.02a1.71 1.71 0 0 1-1.714 1.714H8.334c-.95 0-1.715-.764-1.715-1.715V8.335c0-.95.764-1.715 1.716-1.715M38.496 0a3.184 3.184 0 0 0-3.19 3.189v22.308a3.184 3.184 0 0 0 3.19 3.19h22.307a3.184 3.184 0 0 0 3.19-3.19V3.189a3.184 3.184 0 0 0-3.19-3.19zm5.145 6.62H55.66c.951 0 1.716.764 1.716 1.715v12.02a1.71 1.71 0 0 1-1.716 1.714H43.641a1.71 1.71 0 0 1-1.715-1.715V8.335c0-.95.765-1.715 1.715-1.715M3.19 35.306A3.184 3.184 0 0 0 0 38.496v22.308a3.184 3.184 0 0 0 3.19 3.19h22.307a3.184 3.184 0 0 0 3.19-3.19V38.496a3.184 3.184 0 0 0-3.19-3.19zm5.145 6.62h12.019c.95 0 1.714.765 1.714 1.715v12.02a1.71 1.71 0 0 1-1.714 1.715H8.334c-.95 0-1.715-.764-1.715-1.716V43.641c0-.95.764-1.714 1.716-1.714M38.496 35.306a3.184 3.184 0 0 0-3.19 3.19v22.308a3.184 3.184 0 0 0 3.19 3.19h22.307a3.184 3.184 0 0 0 3.19-3.19V38.496a3.184 3.184 0 0 0-3.19-3.19zm5.145 6.62H55.66a1.71 1.71 0 0 1 1.716 1.715v12.02c0 .95-.764 1.715-1.716 1.715H43.641a1.71 1.71 0 0 1-1.715-1.716V43.641c0-.95.765-1.714 1.715-1.714" opacity=".3"/>
  </g>
  <path transform="scale(.9999)" d="m53.5 10.5a5.516 5.516 0 0 1 0 7.802l-35.2 35.2a5.518 5.518 0 0 1-7.802-7.802l35.2-35.2a5.52 5.52 0 0 1 7.802 0" fill="url(#a)"/>
  <path transform="scale(.9999)" d="m10.5 10.5a5.52 5.52 0 0 1 7.802 0l35.2 35.2a5.516 5.516 0 0 1 0 7.802 5.516 5.516 0 0 1-7.802 0l-35.2-35.2a5.52 5.52 0 0 1 0-7.802" fill="url(#c)"/>
 </g>
</svg>
