<svg xmlns="http://www.w3.org/2000/svg" viewBox="0 0 64 64"><defs><linearGradient id="a" y1="1"><stop offset="0" stop-color="#fda700"/><stop offset="1" stop-color="#ffde00"/></linearGradient></defs><path fill="url(#a)" d="M14.76.002c-.58.043-1.197.618-3.644 3.055-1.572 1.564-2.841 2.896-2.82 2.959.121.363.507.134 1.594-.95l1.148-1.143 1.004 1.023-1.172 1.176c-.819.821-1.152 1.232-1.104 1.357.038.099.135.18.215.18s1.353-1.21 2.828-2.689c2.707-2.713 3.134-3.256 3.14-4 .004-.399-.37-.849-.773-.93a1.5 1.5 0 0 0-.416-.038m.059.643c.541 0 .644.157.46.712-.123.374-.847 1.322-1.01 1.322h-.004c-.055-.013-.3-.227-.556-.488l-.48-.49.564-.53c.481-.45.632-.527 1.025-.527zM12.47 2.567h.005l.006.002c.068.012.302.222.532.478l.43.482-.298.313-.297.314-.507-.507-.51-.508.27-.287c.143-.153.305-.28.368-.287zM6.676 6.196c-.61.01-1.354.847-3.356 2.85C.244 12.123.006 12.44.002 13.49c-.003.699.41 1.592.906 1.959.769.568 1.595.695 2.486.384.415-.145 1.014-.679 3.26-2.904 1.513-1.5 2.853-2.892 2.978-3.094.373-.602.23-.87-1.248-2.33-.84-.829-1.234-1.319-1.71-1.31zm-.217 1.236h.004c.103 0 .22.086.26.191.054.143-.553.816-2.408 2.672-1.44 1.44-2.546 2.459-2.635 2.43-.085-.028-.172-.143-.194-.256v-.002c-.01-.28 4.65-4.998 4.973-5.035" transform="matrix(4 0 0 4 .094 0)"/></svg>