<svg xmlns="http://www.w3.org/2000/svg" fill="none" viewBox="0 0 64 64"><defs><linearGradient id="a" x1="100" x2="100" y1="133" y2="59" gradientUnits="userSpaceOnUse"><stop offset="0" stop-color="#02aa93"/><stop offset="1" stop-color="#67ff80"/></linearGradient></defs><path fill="url(#a)" d="M77.54 50.11a23 23 0 0 0-2.885.057c-11.46.955-21.66 10.52-21.66 23.04v45.55c0 16.7 18.13 28.13 33.2 20.92l47.62-22.78c17.03-8.147 17.03-33.7 0-41.84l-47.62-22.78a22.3 22.3 0 0 0-8.66-2.178zm-1.859 17.8c.874-.028 1.809.166 2.752.617l47.62 22.78c4.486 2.146 4.485 7.224-.002 9.371l-47.61 22.78c-3.772 1.805-7.434-.501-7.434-4.684v-45.55c0-3.136 2.06-5.219 4.682-5.303z" transform="translate(-36.24 -33.64)scale(.6839)"/></svg>