<svg xmlns="http://www.w3.org/2000/svg" viewBox="0 0 64 64"><defs><linearGradient id="b" x1="64.26" x2="5.839" y1="58.42" y2="-.005" gradientTransform="matrix(.4131 0 0 .4958 37.46 35.04)" gradientUnits="userSpaceOnUse"><stop offset="0" stop-color="#feaa00"/><stop offset=".5" stop-color="#fd0575"/><stop offset="1" stop-color="#7b31fe"/></linearGradient><linearGradient id="a" y1="1"><stop offset="0" stop-color="#fda700"/><stop offset="1" stop-color="#ffde00"/></linearGradient></defs><path fill="url(#a)" d="M14.76.002c-.58.043-1.197.618-3.644 3.055-1.572 1.564-2.841 2.896-2.82 2.959.121.363.507.134 1.594-.95l1.148-1.143 1.004 1.023-1.172 1.176c-.819.821-1.152 1.232-1.104 1.357.038.099.135.18.215.18s1.353-1.21 2.828-2.689c2.707-2.713 3.134-3.256 3.14-4 .004-.399-.37-.849-.773-.93a1.5 1.5 0 0 0-.416-.038zm.059.643c.541 0 .644.157.46.712-.123.374-.847 1.322-1.01 1.322h-.004c-.055-.013-.3-.227-.556-.488l-.48-.49.564-.53c.481-.45.632-.527 1.025-.527zM12.47 2.567h.005l.006.002c.068.012.302.222.532.478l.43.482-.298.313-.297.314-.507-.507-.51-.508.27-.287c.143-.153.305-.28.368-.287zM6.676 6.196c-.61.01-1.354.847-3.356 2.85C.244 12.123.006 12.44.002 13.49c-.003.699.41 1.592.906 1.959.769.568 1.595.695 2.486.384.415-.145 1.014-.679 3.26-2.904 1.513-1.5 2.853-2.892 2.978-3.094.373-.602.23-.87-1.248-2.33-.84-.829-1.234-1.319-1.71-1.31zm-.217 1.236h.004c.103 0 .22.086.26.191.054.143-.553.816-2.408 2.672-1.44 1.44-2.546 2.459-2.635 2.43-.085-.028-.172-.143-.194-.256v-.002c-.01-.28 4.65-4.998 4.973-5.035z" transform="matrix(4 0 0 4 .051 .004)"/><path fill="url(#b)" d="m54.16 35.03-7.657.003a6.643 6.643 0 0 0-6.634 6.634v15.69a6.643 6.643 0 0 0 6.634 6.634h10.86a6.643 6.643 0 0 0 6.634-6.634v-12.48l.003-.003a6.6 6.6 0 0 0-1.945-4.693l-3.207-3.207a6.58 6.58 0 0 0-4.693-1.945zm-7.657 3.629h6.634v4.824a2.41 2.41 0 0 0 2.412 2.415h4.829v11.46l-.003.003a3.015 3.015 0 0 1-3.013 3.016h-10.86a3.015 3.015 0 0 1-3.016-3.016V41.67a3.015 3.015 0 0 1 3.016-3.013z" transform="translate(-.054 .001)"/><path fill="#00f" d="M52.716 46.881q-.012 0-.038.002h-.001a.48.48 0 0 0-.43.476c0 .262.204.49.478.49h5.598c.276 0 .49-.229.49-.49s-.224-.477-.49-.477h-5.606zM48.8 48.555l-.037.002a.48.48 0 0 0-.43.475c0 .261.203.49.476.49h5.598c.277 0 .491-.228.491-.49a.49.49 0 0 0-.49-.477H48.8zm3.915 2.797-.037.002h-.001a.48.48 0 0 0-.43.476c0 .262.204.49.477.49h5.598c.277 0 .49-.229.49-.49a.49.49 0 0 0-.49-.478h-5.606zm-3.95 1.747q-.012 0-.037.002a.47.47 0 0 0-.415.461c0 .245.2.464.462.464h8.436a.46.46 0 0 0 .462-.464.465.465 0 0 0-.462-.462h-8.446zm3.95 2.724-.037.002h-.001a.48.48 0 0 0-.43.475c0 .262.204.49.477.49h5.598c.277 0 .49-.229.49-.49s-.224-.477-.49-.477h-5.606zm-3.95 1.747q-.012 0-.037.002a.47.47 0 0 0-.415.462c0 .244.2.463.462.463h8.436a.46.46 0 0 0 .462-.463.466.466 0 0 0-.462-.463h-8.446z"/><path fill="#0ff" d="M46.276 51.351a1.323 1.323 0 0 0 0 2.646c.726 0 1.322-.596 1.322-1.322 0-.737-.6-1.324-1.322-1.324m2.534 0q-.012 0-.038.002a.48.48 0 0 0-.429.476c0 .261.202.49.476.49h2.799c.276 0 .49-.229.49-.49a.49.49 0 0 0-.49-.478H48.81"/><path fill="red" d="M46.276 46.841c-.426 0-.864.137-1.183.456a.5.5 0 0 0-.142.349c0 .429.186.816.39 1.123.2.3.424.562.72.71l.016.007a.54.54 0 0 0 .384.005l.014-.006.013-.006c.3-.15.51-.414.707-.71.201-.303.404-.689.404-1.123a.5.5 0 0 0-.142-.349c-.32-.32-.768-.456-1.182-.456zm2.534.036q-.012 0-.038.002a.48.48 0 0 0-.429.477c0 .26.202.49.476.49h2.799c.276 0 .49-.23.49-.49a.49.49 0 0 0-.49-.478H48.81z"/><path fill="#0f0" d="M46.276 55.821a1.323 1.323 0 0 0 0 2.645c.726 0 1.322-.596 1.322-1.322 0-.737-.6-1.323-1.322-1.323m2.534 0q-.012 0-.038.002a.48.48 0 0 0-.429.475c0 .261.202.49.476.49h2.799c.276 0 .49-.229.49-.49s-.224-.477-.49-.477H48.81"/></svg>