<svg xmlns="http://www.w3.org/2000/svg" viewBox="0 0 64 64"><defs><linearGradient id="a" x1="1" x2="0" y1=".5" y2=".5"><stop offset="0" stop-color="#00efff"/><stop offset="1" stop-color="#07f"/></linearGradient></defs><path fill="url(#a)" d="m19.95 5.905-.004.032c-1.803.078-3.447 1.507-3.447 3.546v109c0 2.707 2.93 4.375 5.261 3.047 4.245-2.42 8.676-4.838 13.12-7.263 4.998-2.73 10.01-5.466 14.76-8.205a3.53 3.53 0 0 0 1.754-3.05c.005-1.206.038-2.53.071-3.908.047-1.91.095-3.918.071-5.782-.034-2.682-2.902-4.104-5.09-2.86-4.59 2.612-9.285 5.275-13.89 7.887l-.66.372a.5.5 0 0 1-.747-.432c-.078-19.69-.082-38.7-.089-57.99-.003-8.936-.007-17.93-.018-27.08a3.46 3.46 0 0 0-1.77-3.026c-1.522-.843-3.188-1.68-4.819-2.505-.916-.463-1.822-.924-2.703-1.382a3.55 3.55 0 0 0-1.8-.4zm20.31 11.82c-1.808.023-3.457 1.472-3.461 3.497q-.06 30.375 0 60.75c.005 2.714 2.92 4.341 5.24 3.15.88-.451 1.786-.904 2.703-1.36l.039-.018c1.627-.81 3.287-1.638 4.797-2.469a3.45 3.45 0 0 0 1.778-3.026c.008-4.085.01-8.034.014-11.93v-.007c.008-8.299.016-16.35.064-24.94a.5.5 0 0 1 .751-.428c4.137 2.412 8.09 4.714 11.97 6.972l.007.003.01.004a7663 7663 0 0 1 26.81 15.66.494.494 0 0 1 .008.853c-11.15 6.56-27.93 16.38-32.15 18.85a3.49 3.49 0 0 0-1.73 3.026l.022 9.852c.005 2.736 3.006 4.407 5.335 2.972l52.1-32.1c2.244-1.383 2.212-4.654-.057-5.994-8.602-5.08-17.13-10.13-25.63-15.17-15.55-9.22-31.04-18.4-46.82-27.64a3.46 3.46 0 0 0-1.803-.485l.007-.028zm20.29 37.55c-1.805.032-3.444 1.483-3.444 3.504v10.89c0 2.694 2.917 4.376 5.25 3.029l9.424-5.442c2.333-1.347 2.333-4.715 0-6.062l-9.424-5.442a3.5 3.5 0 0 0-1.807-.475v-.003z" transform="translate(-4.587 -3.254)scale(.5513)"/></svg>