<svg version="1.1" viewBox="0 0 64 64" xmlns="http://www.w3.org/2000/svg">
 <defs>
  <linearGradient id="a" x1="1" x2="0" y1=".5" y2=".5">
   <stop stop-color="#f00" offset="0"/>
   <stop stop-color="#ff0086" offset="1"/>
  </linearGradient>
 </defs>
 <path transform="translate(-.01259 -7.3e-5) scale(1) matrix(2.909 0 0 2.909 .004219 .001515)" d="m10.68 0.009766a5.006 5.006 0 0 0-1.842 0.4805h-0.00195l-6.4 3.072a3.626 3.626 0 0 0-2.055 3.264v0.7559a15.25 15.25 0 0 0 7.029 12.84l1.492 0.957a3.884 3.884 0 0 0 4.197 0l1.492-0.957a15.25 15.25 0 0 0 7.029-12.84v-0.7559c0-1.393-0.7978-2.661-2.055-3.264l-6.402-3.072a5.006 5.006 0 0 0-2.482-0.4805zm0.1465 2.27h0.0039a2.731 2.731 0 0 1 1.352 0.2637l6.4 3.068a1.35 1.35 0 0 1 0.7637 1.215v0.7559a12.97 12.97 0 0 1-5.978 10.92l-1.496 0.957a1.608 1.608 0 0 1-1.736 0l-1.496-0.957a12.97 12.97 0 0 1-5.978-10.92v-0.7559c0-0.5173 0.2999-0.9903 0.7656-1.215l6.4-3.068a2.731 2.731 0 0 1 1-0.2637z" fill="url(#a)"/>
 <path transform="translate(-.01259 -7.3e-5) scale(1)" d="m47.95 18.29c-1.519 2e-6 -2.773 1.252-2.773 2.771v17.72c2.84e-4 0.8405 0.3521 1.598 0.8906 2.076 0.5385 0.4784 1.218 0.6953 1.883 0.6953s1.344-0.2168 1.883-0.6953c0.5384-0.4786 0.889-1.236 0.8887-2.076v-17.72c1e-6 -1.519-1.252-2.771-2.771-2.771zm-30.12 7.088c-1.431 3.4e-4 -2.631 0.5726-3.404 1.443-0.7737 0.8708-1.139 1.993-1.139 3.102s0.3648 2.231 1.139 3.102c0.7738 0.8706 1.973 1.442 3.404 1.441s2.633-0.5726 3.406-1.443c0.7737-0.8708 1.137-1.993 1.137-3.102 0-1.108-0.3648-2.229-1.139-3.1-0.7738-0.8706-1.973-1.444-3.404-1.443zm21.26 0c-1.431 3.4e-4 -2.631 0.5726-3.404 1.443-0.7737 0.8708-1.139 1.993-1.139 3.102s0.3648 2.231 1.139 3.102c0.7738 0.8706 1.973 1.442 3.404 1.441s2.633-0.5726 3.406-1.443c0.7737-0.8708 1.137-1.993 1.137-3.102 0-1.108-0.3648-2.229-1.139-3.1-0.7738-0.8706-1.973-1.444-3.404-1.443zm-10.46 0.001953c-0.1599-0.0061-0.3211-0.003387-0.4844 0.007813-2.374 0.163-4.233 2.155-4.232 4.535 5.5e-4 1.43 0.5731 2.631 1.443 3.404 0.8707 0.7739 1.993 1.139 3.102 1.139s2.229-0.3647 3.1-1.139c0.8703-0.7736 1.443-1.974 1.443-3.404 8.57e-4 -2.454-1.972-4.451-4.371-4.543zm-9.432 6.76c-0.1395 0.08144-0.2945 0.1503-0.4668 0.2031 0.1722-0.0528 0.3273-0.1217 0.4668-0.2031zm21.26 0c-0.1395 0.08144-0.2945 0.1503-0.4668 0.2031 0.1722-0.0528 0.3273-0.1217 0.4668-0.2031zm-12.97 0.1621c0.1516 0.05364 0.3091 0.09555 0.4707 0.123-0.1616-0.0275-0.3192-0.06941-0.4707-0.123zm1.926 0c-0.1513 0.05364-0.3093 0.09555-0.4707 0.123 0.1614-0.0275 0.3194-0.06941 0.4707-0.123z" fill="url(#a)" stop-color="#000000" stroke-linecap="round" stroke-linejoin="round"/>
</svg>
