<svg xmlns="http://www.w3.org/2000/svg" viewBox="0 0 64 64"><defs><linearGradient id="a" x1="1" x2="0" y1="1"><stop offset="0" stop-color="#06f"/><stop offset=".702" stop-color="#00d4aa"/><stop offset="1" stop-color="#0cf"/></linearGradient></defs><path fill="url(#a)" d="M14.18.139C6.398.139 0 6.529 0 14.319v35.37c0 7.782 6.397 14.18 14.18 14.18h34.33c7.782 0 14.18-6.397 14.18-14.18v-35.37c0-7.782-6.391-14.18-14.18-14.18zm0 8.09h34.33c3.406 0 6.086 2.678 6.086 6.086v35.37c0 3.406-2.678 6.086-6.086 6.086H14.18c-3.406 0-6.08-2.678-6.08-6.086v-35.37c0-3.406 2.673-6.086 6.08-6.086" opacity=".5" transform="translate(.522 -.14)scale(1.0039)"/><path fill="url(#a)" d="M49.97 15.16a4.5 4.5 0 0 0-3.176 1.316l-21.22 21.22-8.082-9.697a4.49 4.49 0 0 0-6.326-.575 4.49 4.49 0 0 0-.575 6.326l11.23 13.48a4.49 4.49 0 0 0 6.626.3l24.71-24.71a4.49 4.49 0 0 0 0-6.351 4.5 4.5 0 0 0-3.176-1.316z" transform="translate(.522 -.137)scale(1.004)"/></svg>