<svg xmlns="http://www.w3.org/2000/svg" style="isolation:isolate" viewBox="0 0 64 64"><linearGradient id="a" x2="1" y1=".5" y2=".5" gradientTransform="matrix(46.81 0 0 47 .564 .5)" gradientUnits="userSpaceOnUse" transform="translate(-.638 -.68)scale(1.362)"><stop offset="0" stop-color="#5433ff"/><stop offset=".517" stop-color="#20bdff"/><stop offset=".983" stop-color="#a5fecb"/></linearGradient><path fill="url(#a)" fill-rule="evenodd" d="M32.92 6.952a2.14 2.14 0 0 1-.898-2.888 2.14 2.14 0 0 1 2.888-.898 23.62 23.62 0 0 1 10.24 10.58 2.14 2.14 0 0 1-.984 2.861 2.147 2.147 0 0 1-2.866-.989 19.3 19.3 0 0 0-8.375-8.663zM23.82 4.5a2 2 0 0 0 1.99-2.01A2 2 0 0 0 23.8.5C18.04.53 12.49 2.68 8.21 6.53c-4.28 3.86-7 9.15-7.63 14.88a2.002 2.002 0 1 0 3.98.44c.52-4.75 2.78-9.15 6.33-12.34 3.55-3.2 8.15-4.98 12.93-5.01M5.74 31A2.003 2.003 0 1 0 2 32.44a23.62 23.62 0 0 0 9.97 11.78 2 2 0 0 0 2.04-3.44A19.52 19.52 0 0 1 5.74 31m17.57 12.49a2 2 0 0 0-.06 4l.66.01h.03c5.91 0 11.61-2.23 15.95-6.24s7.02-9.52 7.48-15.41a2.01 2.01 0 0 0-1.84-2.15 2 2 0 0 0-2.15 1.84c-.38 4.88-2.6 9.45-6.2 12.78s-8.32 5.18-13.22 5.18zM24.194 10c-.189 0-.151.701.047.86.222.179.548.805.644 1.238l.076.338-.613.123c-1.458.294-1.742 1.251-.801 2.701.331.509.334.523.27 1.627-.048.828-.024 1.25.097 1.647.189.615.714 1.182 1.264 1.361.609.198 2.263.103 2.877-.164.672-.293 1.545-1.162 1.789-1.781.287-.73.179-1.737-.279-2.616-.44-.844-1.589-1.992-2.387-2.384-.422-.208-.62-.386-.762-.682-.201-.423-2.009-2.268-2.222-2.268m-7.953 2a.1.1 0 0 0-.071.028c-.218.208-.395 1.303-.375 2.326.019.968-.007 1.167-.209 1.49-.668 1.072-.782 3.038-.24 4.152.48.986 1.275 1.586 2.486 1.874.846.201 1.418.173 2.213-.104 2.192-.763 2.571-2.252.998-3.93-.637-.68-.935-1.233-.935-1.736 0-.612-.235-1.212-.631-1.615-.357-.363-.376-.368-1.059-.311a10 10 0 0 0-1.002.131c-.278.066-.322.032-.523-.392a2.7 2.7 0 0 1-.223-.958c-.002-.419-.253-.939-.429-.955m19.38 4.004c-.236-.052-.31.558-.121 1 .088.204.146.549.129.768l-.029.398-.502.01c-.391.009-.58.077-.853.309-.321.27-.809 1.188-.811 1.523-.001.074-.298.796-.662 1.602s-.692 1.625-.731 1.82c-.205 1.047.365 1.833 1.729 2.379.576.23 1.177.248 1.83.055 1.061-.315 1.743-.911 2.156-1.883.218-.513.249-.72.244-1.653-.005-1.208-.211-1.971-.767-2.841-.174-.272-.387-.8-.473-1.174-.175-.766-.912-2.263-1.139-2.313m-25.49 6.998q-.039-.009-.06.014c-.209.224.105 2.402.422 2.922.077.127.188.562.248.965.27 1.826 1.544 3.531 2.99 4.006.494.162 1.565.104 2.258-.123.573-.188.767-.319 1.199-.805.897-1.01 1.059-2.006.457-2.815-.159-.214-.646-.614-1.08-.888a50 50 0 0 1-1.68-1.123c-1.432-1.008-1.584-1.103-1.978-1.221-.501-.149-1.013.009-1.43.443l-.326.34-.205-.361c-.113-.199-.205-.463-.205-.584-.001-.218-.428-.727-.61-.77M27.511 25c-.608.004-1.31.108-2.119.313-2.287.58-3.369 1.27-3.861 2.465-.213.517-.23.694-.172 1.683.059 1.007.043 1.154-.182 1.657-.228.51-.489.795-1.697 1.863-.384.339-.418.419-.461 1.041-.04.579-.002.773.275 1.392.593 1.324 1.664 2.211 3.004 2.487.635.13 1.054.131 2.143.004 4.234-.496 9.102-2.101 10.49-3.459.727-.711 1.016-1.366 1.065-2.407.092-1.985-.758-3.177-2.276-3.183-1.188-.005-2.383-.732-2.873-1.746-.363-.751-1.099-1.499-1.787-1.817-.43-.198-.943-.296-1.551-.293z" transform="translate(-.638 -.68)scale(1.362)"/></svg>