<svg xmlns="http://www.w3.org/2000/svg" viewBox="0 0 64 64"><defs><linearGradient id="a" y2="1"><stop offset="0" stop-color="#ff2a6d"/><stop offset="1" stop-color="#6a00ff"/></linearGradient></defs><path fill="url(#a)" d="m11 0-.998.045c-1.665.15-3.224.67-4.592 1.478-.475.28-.612.936-.336 1.414L7.96 7.933a.577.577 0 0 0 1 0l3.93-6.81c.276-.477.061-.966-.486-1.036Q12.2.063 11.999.044c-.55-.05-1-.045-.998-.045zm4.932 1.301a1.09 1.09 0 0 0-.912.535l-2.885 4.998a.578.578 0 0 0 .502.865h7.86c.553 0 .87-.428.657-.937a11.05 11.05 0 0 0-4.742-5.34.94.94 0 0 0-.48-.121m-13.17 2.73c-.184.008-.367.105-.514.297A10.95 10.95 0 0 0 .04 10.002a13.5 13.5 0 0 0-.002 1.996V12l.002.002v.002l.002.002.002.002c.056.051.486.092 1.004.092H6.82a.577.577 0 0 0 .5-.866L3.391 4.427c-.155-.269-.392-.406-.629-.396m12.4 5.869a.577.577 0 0 0-.5.865l3.93 6.807c.276.478.806.539 1.141.1a10.95 10.95 0 0 0 2.211-5.674c.05-.55.05-1.446 0-1.996v-.004h-.002v-.004h-.002l-.002-.002c-.055-.051-.486-.092-1.004-.092zm-1.676 3.879a.58.58 0 0 0-.459.287l-3.928 6.81c-.276.477-.063.966.484 1.036q.202.024.407.043c.55.05 1.446.05 1.996 0 1.665-.15 3.224-.67 4.592-1.478.475-.28.612-.936.336-1.414l-2.888-4.996a.58.58 0 0 0-.54-.287zm-11.99.521c-.552 0-.87.429-.656.938a11.05 11.05 0 0 0 4.742 5.34c.48.272 1.115.064 1.39-.414l2.886-4.998a.578.578 0 0 0-.5-.865z" transform="translate(.015 .003)scale(2.91)"/></svg>