<svg xmlns="http://www.w3.org/2000/svg" viewBox="0 0 64 64"><defs><linearGradient id="a" y1="1"><stop offset="0" stop-color="#ff0f85"/><stop offset="1" stop-color="#ff0c0c"/></linearGradient></defs><path fill="url(#a)" d="M32.15 22c-2.705 0-5.13.97-7.047 2.893-1.868 1.874-2.879 4.226-2.879 6.885v13.33H18.89c-2.949 0-5.62 1.059-7.725 3.164s-3.164 4.776-3.164 7.725v45.11a4.446 4.446 0 0 0 4.445 4.445h103.1a4.444 4.444 0 0 0 4.443-4.445v-45.11c0-2.987-1.106-5.67-3.258-7.766-2.087-2.032-4.702-3.123-7.631-3.123h-3.334v-13.33c0-2.691-1.052-5.052-2.963-6.918-1.908-1.865-4.287-2.859-6.963-2.859H83.1c-2.704 0-5.13.97-7.047 2.893-1.868 1.874-2.879 4.226-2.879 6.885v13.33h-18.37v-13.33c0-2.659-1.01-5.01-2.879-6.885-1.917-1.923-4.342-2.893-7.047-2.893zm0 7.111h12.74c.879 0 1.474.261 2.012.8.587.59.803 1.155.803 1.866v8c0 .982-.796 1.777-1.777 1.777h-14.81a1.777 1.777 0 0 1-1.777-1.777v-8c0-.711.215-1.276.802-1.865.539-.54 1.133-.801 2.012-.801zm50.96 0h12.74c.775 0 1.382.238 1.994.836.612.597.82 1.15.82 1.83v8c0 .982-.795 1.777-1.777 1.777h-14.81a1.777 1.777 0 0 1-1.777-1.777v-8c0-.711.216-1.276.803-1.865.538-.54 1.133-.8 2.012-.8zm-64.22 24.89h90.22c.562 0 .967.152 1.432.604.398.388.568.758.568 1.396v38.89c0 .982-.796 1.776-1.779 1.776h-90.67a1.776 1.776 0 0 1-1.777-1.776V56c0-.676.182-1.06.561-1.44s.764-.561 1.44-.561z" transform="translate(-4.572 -4.447)scale(.5714)"/></svg>