<svg xmlns="http://www.w3.org/2000/svg" viewBox="0 0 64 64"><defs><linearGradient id="a" y1=".5" y2=".5"><stop offset="0" stop-color="#00f0ff"/><stop offset="1" stop-color="#0070e0"/></linearGradient></defs><path fill="url(#a)" d="M8.002 4.969c-2.208 0-4 1.802-4 4.016 0 2.216 1.794 4.018 4 4.018 2.208 0 4-1.804 4-4.018 0-2.216-1.794-4.016-4-4.016m-.365.748V7.16H6.7q.127-.66.346-1.32a3.3 3.3 0 0 1 .591-.122m.729 0q.285.032.553.11c.143.432.257.88.34 1.333h-.893V5.718zm1.435.518c.367.242.682.557.926.925h-.723q-.083-.467-.203-.925m-3.641.03q-.12.446-.2.895h-.683c.233-.353.534-.658.883-.896M4.914 7.891h.942q-.039.363-.052.727H4.75q.043-.38.164-.727zm1.674 0h1.05v.727H6.532q.014-.363.056-.727zm1.779 0H9.37q.04.364.059.727H8.367zm1.743 0h.98a3.3 3.3 0 0 1 .164.727h-1.087a11 11 0 0 0-.057-.727zm-5.36 1.46h1.055q.012.363.051.728h-.941a3.3 3.3 0 0 1-.165-.729zm1.782 0h1.106v.728h-1.05a10 10 0 0 1-.057-.729zm1.835 0h1.072q-.009.369-.043.728h-1.03zm1.808 0h1.078a3.3 3.3 0 0 1-.164.728h-.955q.034-.36.04-.729m-4.896 1.46h.682q.08.447.198.893a3.3 3.3 0 0 1-.88-.893m1.422 0h.936v1.441a3.3 3.3 0 0 1-.59-.121 11 11 0 0 1-.346-1.32zm1.665 0h.928c-.086.473-.21.92-.372 1.322l.012.005a3.3 3.3 0 0 1-.568.114zm1.672 0h.686a3.3 3.3 0 0 1-.89.9q.124-.435.204-.9" transform="translate(-31.745 -39.584)scale(7.9662)"/></svg>