<svg style="isolation:isolate" version="1.1" viewBox="0 0 64 64" xmlns="http://www.w3.org/2000/svg">
 <linearGradient id="a" transform="translate(-.000382 -.000362) scale(1) translate(.003 .003) scale(1.319)" x1=".051" x2=".954" y1=".909" y2=".196" gradientTransform="translate(25.7 26.18)scale(21.82)" gradientUnits="userSpaceOnUse">
  <stop stop-color="#7eebda" offset="0"/>
  <stop stop-color="#73ff44" offset=".496"/>
  <stop stop-color="#ffcd3e" offset=".987"/>
 </linearGradient>
 <linearGradient id="b" transform="translate(-.000382 -.000362) scale(1) translate(.003 .003) scale(1.319)" x1=".051" x2=".954" y1=".909" y2=".196">
  <stop stop-color="#7eebda" offset="0"/>
  <stop stop-color="#73ff44" offset=".496"/>
  <stop stop-color="#ffcd3e" offset=".987"/>
 </linearGradient>
 <path transform="translate(-.000382 -.000362) scale(1) translate(.003 .003) scale(1.319)" d="M27.69 36.43v0a.995.995 0 0 1-1.065.915v0a.99.99 0 0 1-.916-1.063v0a10.905 10.905 0 0 1 10.893-10.096c2.894 0 5.674 1.15 7.725 3.193 2.045 2.048 3.197 4.825 3.197 7.716s-1.152 5.668-3.197 7.716a10.95 10.95 0 0 1-7.725 3.193v0a.993.993 0 0 1-.993-.992v0c0-.547.445-.991.993-.991v0a8.96 8.96 0 0 0 6.32-2.614c1.673-1.676 2.616-3.947 2.616-6.312s-.943-4.636-2.616-6.312a8.96 8.96 0 0 0-6.32-2.614 8.95 8.95 0 0 0-6.082 2.38 8.93 8.93 0 0 0-2.83 5.881zm4.756 8.569v0a.99.99 0 0 1 .417 1.339v0a.993.993 0 0 1-1.34.416v0a10.94 10.94 0 0 1-4.752-4.904v0a.99.99 0 0 1 .457-1.326v0a1 1 0 0 1 1.331.459v0a8.96 8.96 0 0 0 3.887 4.016zm7.388-4.887v0a1.206 1.206 0 0 1 1.299 1.107v0a1.2 1.2 0 0 1-1.106 1.293v0a19 19 0 0 1-1.555.06c-.422-.006-.85-.03-1.266-.085a9 9 0 0 1-1.441-.289 6 6 0 0 1-1.145-.464 5.3 5.3 0 0 1-1.085-.79 4.7 4.7 0 0 1-.79-1.024 4.6 4.6 0 0 1-.482-1.278 6.8 6.8 0 0 1-.169-1.562 7 7 0 0 1 .187-1.555c.109-.446.277-.874.506-1.272.217-.379.483-.723.796-1.018a4.8 4.8 0 0 1 1.091-.79q.523-.282 1.091-.446a8.6 8.6 0 0 1 1.362-.289c.428-.055.862-.091 1.296-.091q.806-.009 1.604.054v0a1.205 1.205 0 0 1 1.103 1.296v0a1.205 1.205 0 0 1-1.296 1.104v0a15 15 0 0 0-1.38-.043c-.338 0-.682.024-1.013.073a6 6 0 0 0-.989.205q-.336.1-.645.265a2.6 2.6 0 0 0-.56.404 2.1 2.1 0 0 0-.368.47 2.2 2.2 0 0 0-.247.639 4.2 4.2 0 0 0-.127 1.019c0 .337.036.681.109 1.012q.07.327.241.627c.09.169.211.326.356.458q.245.243.554.404.316.17.669.277c.344.097.699.169 1.055.211.332.043.669.061 1.001.067q.677-.001 1.344-.049z" fill="url(#a)" fill-rule="evenodd" stroke="url(#b)" stroke-linecap="square" stroke-miterlimit="3" vector-effect="non-scaling-stroke"/>
 <linearGradient id="c" transform="translate(-.000382 -.000362) scale(1) translate(.003 .003) scale(1.319)" x1=".116" x2="1.178" y1=".977" y2="-.218" gradientTransform="matrix(43.64 0 0 48 .478 0)" gradientUnits="userSpaceOnUse">
  <stop stop-color="#a5f86a" offset="0"/>
  <stop stop-color="#2fce92" offset=".979"/>
 </linearGradient>
 <path transform="translate(-.000382 -.000362) scale(1) translate(.003 .003) scale(1.319)" d="M32.11 4.364c-1.204 0-2.182-.978-2.182-2.182S30.906 0 32.11 0h6.546a5.457 5.457 0 0 1 5.454 5.455V12c0 1.204-.978 2.182-2.182 2.182s-2.182-.978-2.182-2.182V7.636a3.273 3.273 0 0 0-3.272-3.272zm-9.818 39.27c1.204 0 2.182.978 2.182 2.182s-.978 2.182-2.182 2.182H5.932a5.457 5.457 0 0 1-5.454-5.455V5.453A5.457 5.457 0 0 1 5.932-.002h15.02c1.806 0 4.282 1.064 5.526 2.374l16.91 17.82c.891.807.962 2.187.158 3.082a2.19 2.19 0 0 1-3.082.169l-17.18-18.28c-.413-.439-1.236-.795-1.838-.795H8.106A3.274 3.274 0 0 0 4.833 7.64v32.73a3.274 3.274 0 0 0 3.273 3.272h14.18z" fill="url(#c)" fill-rule="evenodd"/>
 <linearGradient id="d" transform="translate(-.000382 -.000362) scale(1) translate(.003 .003) scale(1.319)" x1="1.563" x2="-.052" y1=".543" y2=".539" gradientTransform="matrix(20.73 0 0 17.46 6.609 10.36)" gradientUnits="userSpaceOnUse">
  <stop stop-color="#b2e56b" offset=".349"/>
  <stop stop-color="#c2e964" offset=".538"/>
  <stop stop-color="#ecf451" offset=".904"/>
  <stop stop-color="#faf74b" offset="1"/>
 </linearGradient>
 <path transform="translate(-.000382 -.000362) scale(1) translate(.003 .003) scale(1.319)" d="M9.881 17.46h5.459v-3.819H9.881zm0 3.272h5.459v3.818H9.881zm8.732 3.818v-3.818h5.45v3.818zm5.45-7.09h-5.45v-3.819h5.45zm-15.27-7.091h16.36c1.204 0 2.182.977 2.182 2.181v13.09a2.183 2.183 0 0 1-2.182 2.182H8.793a2.18 2.18 0 0 1-2.181-2.182V12.55c0-1.204.977-2.181 2.181-2.181" fill="url(#d)" fill-rule="evenodd"/>
</svg>
