<svg xmlns="http://www.w3.org/2000/svg" viewBox="0 0 64 64"><defs><linearGradient id="a" y2="1"><stop offset="0" stop-color="#c1cc00"/><stop offset=".25" stop-color="#dfcd00"/><stop offset=".5" stop-color="#f0cc00"/><stop offset=".75" stop-color="#fd8c08"/><stop offset="1" stop-color="#f25c13"/></linearGradient></defs><path fill="url(#a)" d="m23.18.021.002.002C10.742-.418.012 9.63.002 22.393c-.006 14.15 13.11 24.16 26.64 21.56l6.301 6.301a3.2 3.2 0 0 0 2.262.938h3.201v3.199a3.2 3.2 0 0 0 3.199 3.2h3.201v3.2a3.2 3.2 0 0 0 3.199 3.199h9.6c3.497 0 6.4-2.901 6.4-6.398v-8.275a6.4 6.4 0 0 0-1.875-4.525l-18.12-18.12c2.378-12.31-5.624-24.53-18.32-26.42A23 23 0 0 0 23.182.02zm-.238 6.393a17 17 0 0 1 1.807.168 15.93 15.93 0 0 1 12.96 20.46 3.2 3.2 0 0 0 .8 3.188L57.6 49.32v8.275h-6.4v-3.199a3.2 3.2 0 0 0-3.198-3.2H44.8v-3.2a3.2 3.2 0 0 0-3.2-3.199h-5.075l-6.287-6.289a3.2 3.2 0 0 0-3.188-.798A15.925 15.925 0 0 1 6.4 22.4 15.94 15.94 0 0 1 22.94 6.42zm-.543 6.377c-5.264 0-9.6 4.336-9.6 9.6a3.2 3.2 0 0 0 3.2 3.2 3.2 3.2 0 0 0 3.2-3.2c0-1.805 1.394-3.2 3.199-3.2a3.2 3.2 0 0 0 3.2-3.2 3.2 3.2 0 0 0-3.2-3.199z" transform="translate(-.002 .002)"/></svg>