<svg xmlns="http://www.w3.org/2000/svg" viewBox="0 0 64 64"><path fill="#00bfff" d="M6.4 35.2A6.399 6.399 0 0 0 0 41.6v16A6.398 6.398 0 0 0 6.4 64h16a6.398 6.398 0 0 0 6.4-6.4v-16a6.398 6.398 0 0 0-6.4-6.4zm0 6.4h16v16h-16zM41.6 0a6.398 6.398 0 0 0-6.4 6.4v16a6.398 6.398 0 0 0 6.4 6.4h16a6.398 6.398 0 0 0 6.4-6.4v-16A6.399 6.399 0 0 0 57.6 0zm0 6.4h16v16h-16z"/><path fill="#00f" d="M41.6 35.2a6.398 6.398 0 0 0-6.4 6.4v16a6.398 6.398 0 0 0 6.4 6.4h16a6.398 6.398 0 0 0 6.4-6.4v-16a6.398 6.398 0 0 0-6.4-6.4zm0 6.4h16v16h-16zM6.4 0A6.4 6.4 0 0 0 0 6.4v16a6.398 6.398 0 0 0 6.4 6.4h16a6.398 6.398 0 0 0 6.4-6.4v-16A6.399 6.399 0 0 0 22.4 0Zm0 6.4h16v16h-16Z"/></svg>