<svg xmlns="http://www.w3.org/2000/svg" viewBox="0 0 64 64"><defs><linearGradient id="a" y2="1"><stop offset="0" stop-color="#9c33c4"/><stop offset=".513" stop-color="#ff1950"/><stop offset=".987" stop-color="#ff8724"/></linearGradient></defs><path fill="url(#a)" d="M21.79 0a7.274 7.274 0 0 0-7.273 7.272v7.418a7.28 7.28 0 0 0-5.818 7.129v13.09a2.909 2.909 0 0 0 5.818 0v-10.18a4.364 4.364 0 0 1 4.363-4.363h26.18a4.365 4.365 0 0 1 4.365 4.363v1.455a2.909 2.909 0 0 0 5.816 0v-4.363a7.28 7.28 0 0 0-5.816-7.129V7.274A7.275 7.275 0 0 0 42.152.002zm1.453 5.816h17.46a2.91 2.91 0 0 1 2.91 2.91v5.818h-23.27V8.726a2.91 2.91 0 0 1 2.9-2.91m3.637 1.455v5.818h2.91V7.271zm7.273 0v5.818h2.908V7.271zm18.18 24.73a2.91 2.91 0 0 0-.002 5.816 2.91 2.91 0 1 0 .002-5.816m-40.73 8.727a2.91 2.91 0 0 0 0 5.82 2.91 2.91 0 0 0 0-5.82m40.53.006-.004.002a2.91 2.91 0 0 0-2.709 2.902v10.18a4.364 4.364 0 0 1-4.363 4.363h-26.18a4.36 4.36 0 0 1-4.36-4.363v-1.455a2.909 2.909 0 0 0-5.819 0v4.363a7.275 7.275 0 0 0 7.272 7.273h32a7.276 7.276 0 0 0 7.273-7.273v-13.09a2.91 2.91 0 0 0-3.107-2.902z" transform="translate(-.022)"/><path fill="#00ff7f" d="m32.438 26.1-.004.006v.002a1.5 1.5 0 0 0-.484.092c-.411.151-.79.501-.903 1.01l-.007.033-.004.033c-.057.554-.051 1.124-.045 1.656v.053c-3.813.293-7.398 2.496-9.322 5.768-2.116 3.499-2.172 8.086-.153 11.64 1.575 2.838 4.396 4.97 7.59 5.713 3.45.845 7.26.072 10.08-2.078 4.104-3.004 5.81-8.756 3.891-13.46l-.007-.018-.01-.015c-.468-.96-1.5-1.202-2.312-1.02-.814.183-1.643.843-1.643 1.918v.052l.008.05c.061.344.139.687.213 1.017l.002.006c.074.33.143.648.2.965.116.637.171 1.236.079 1.83l-.004.025-.002.022c-.266 3.587-3.506 6.695-7.174 6.838h-.023c-3.493.28-6.942-2.168-7.854-5.48l-.002-.006-.002-.004c-.683-2.296-.145-4.904 1.389-6.766l.002-.004.003-.004c1.22-1.536 3.084-2.537 5.057-2.803-.007.542-.016 1.126.051 1.691l.008.059.018.052c.283.864 1.38 1.298 2.18.76a482 482 0 0 0 5.633-3.412c.526-.248.778-.768.793-1.248.015-.486-.212-1.032-.75-1.3a439 439 0 0 0-5.66-3.429 1.4 1.4 0 0 0-.83-.244z"/></svg>