<svg xmlns="http://www.w3.org/2000/svg" viewBox="0 0 64 64"><defs><linearGradient id="a" y1="1"><stop offset="0" stop-color="#ff0087"/><stop offset="1" stop-color="#ffe031"/></linearGradient></defs><path fill="url(#a)" d="M15.75 11.48c-.822-.016-2.325 1.796-4.457 7.51 0 0-2.467 7.333-3.619 12.01 0 0-1.241 5.062 2.877 4.023 0 0 4.299-.957 5.678-4.389 0 0 .69-2.3-4.268.656-1.003.598-.797-.167-.576-.998.607-2.279 1.7-5.386 2.84-9.002.736-2.34 1.53-4.709 1.996-6.643.473-1.524.302-3.15-.47-3.166z" transform="translate(-14.007 -11.572)scale(1.868)"/><path fill="url(#a)" d="M19.39 18.1a1.355 1.388 0 0 0-1.356 1.389 1.355 1.388 0 0 0 1.356 1.389 1.355 1.388 0 0 0 1.354-1.389A1.355 1.388 0 0 0 19.39 18.1m19.76 3.32c-1.188-.02-2.452.549-3.055 1.586-.613 1.055-.258 2.346.713 3.037.283.201.593.265.896.424.686.36 1.083.398.715 1.225-.444.998-1.793 1.247-2.775 1.443-1.424.284-1.098 1.428.307 1.148 1.502-.3 4.887-1.237 5.1-3.164.114-1.031-.721-1.396-1.492-1.77-.674-.326-1.29-.572-1.416-1.42q-.263-.974.81-.902.415.399.463.957c.177.79 2.511.203 2.326-.623-.294-1.314-1.404-1.922-2.592-1.941zm-5.514.23c-.401-.01-.879.08-1.432.292-.946.363-2.129 1.413-3.002 2.674-.58.13-1.239.427-1.375.634-.588.896-2.854 4.722-4.396 3.43-.787-.66.78-4.61 1.133-5.465.199-.482-2.038-.258-2.301.381-.433 1.05-1.137 2.925-1.199 4.467-.373-.383-1.244-.538-1.818-.12-.176.127-.355.268-.535.411.217-.532.48-1.106.537-1.195.36-.57.796-1.098 1.203-1.633.47-.62 1.806-1.81 1.18-2.71-.571-.822-2.163-.421-2.904-.194-1.324.405-2.54 1.057-3.691 1.816-.465.307-.51.923-.104 1.28.467.412 1.231.173 1.674-.12.427-.281 1.482-.995 2.346-1.31-.305.349-.665.731-.76.855-.355.47-.713.935-1.026 1.434-.586.93-1.142 2.11-.96 3.246.44 2.742 3.64-.015 4.61-.719.127-.092.215-.182.283-.273.148 1.071.77 1.826 2.303 1.719 1.773-.124 3.317-1.351 4.586-2.791-.024.628.117 1.221.502 1.717 1.894 2.439 6.286-.236 7.772-1.826.53-.566-1.702-.329-2.12.117-.72.77-3.49 1.065-3.737-.115a1.7 1.7 0 0 1-.026-.371c1.27-.14 2.66-.668 3.312-1.148 2.087-1.536 2.115-4.428-.052-4.48zm-.865 1.429a.37.37 0 0 1 .26.105l.006 1.127c-.22 1.01-.899 1.316-2.02.941.031-.064.062-.13.093-.187.172-.33 1.02-1.976 1.66-1.986z" transform="translate(-14.007 -11.572)scale(1.868)"/></svg>