<svg xmlns="http://www.w3.org/2000/svg" style="isolation:isolate" viewBox="0 0 64 64"><linearGradient id="a" x1=".183" x2=".903" y1=".249" y2=".903" gradientTransform="matrix(47 0 0 46.43 .5 .786)" gradientUnits="userSpaceOnUse" transform="translate(-.68 -.68)scale(1.362)"><stop offset=".026" stop-color="#b3ffab"/><stop offset=".987" stop-color="#12fff7"/></linearGradient><path fill="url(#a)" d="M17.83 7.993a1.53 1.53 0 0 1-1.554-2.638L24.035.786l23.47 15.28v26.87l-8.842 4.273-9.261-4.252v-9.711l5.786-5.786v-5.53l-11.23-8.157-12.31 8.198v5.438l6.94 6.174v9.384l-9.261 4.17-8.821-4.191v-27.21l8.719-6.225a1.533 1.533 0 0 1 2.137.357c.49.689.33 1.646-.358 2.137L3.573 17.32V41l5.785 2.75 6.164-2.77v-6.031l-6.941-6.174v-8.443l15.46-10.3 14.22 10.34v8.352l-5.785 5.785v6.481l6.163 2.821 5.806-2.801v-23.3L23.965 4.37l-6.123 3.609z" transform="translate(-.68 -.68)scale(1.362)"/></svg>