<svg version="1.1" viewBox="0 0 64 64" xmlns="http://www.w3.org/2000/svg">
 <defs>
  <style>.a{fill:none;stroke:#000;stroke-linecap:round;stroke-linejoin:round;}</style>
  <linearGradient id="b" y2="1">
   <stop stop-color="#01ff4d" offset="0"/>
   <stop stop-color="#2fff00" offset="1"/>
  </linearGradient>
  <linearGradient id="c" y1="1">
   <stop stop-color="#05f" offset="0"/>
   <stop stop-color="#00ffd8" offset="1"/>
  </linearGradient>
  <linearGradient id="a" y2="1">
   <stop stop-color="#ffd42a" offset="0"/>
   <stop stop-color="#f0f" offset="1"/>
  </linearGradient>
 </defs>
 <path transform="translate(0) scale(1) translate(0) scale(1) translate(.002) scale(1)" d="m39.47 29.75v4.48h20.72v-4.48z" fill="url(#b)" stroke-width="2.624"/>
 <path transform="translate(0) scale(1) translate(0) scale(1) translate(.002) scale(1)" d="m5.2 25.27v4.48h24.09v-4.48z" fill="url(#c)" stroke-width="2.624"/>
 <path transform="translate(0) scale(1) translate(0) scale(1) translate(.002) scale(1)" d="m5.2 34.23v4.48h24.09v-4.48z" fill="url(#b)" stroke-width="2.624"/>
 <path transform="translate(0) scale(1) translate(0) scale(1) translate(.002) scale(1) matrix(.9999 0 0 .9999 -.002 0)" d="m32 0c-17.64 0-32 14.36-32 32s14.36 32 32 32 32-14.36 32-32-14.36-32-32-32zm0 6.066c14.36 0 25.94 11.58 25.94 25.94s-11.58 25.94-25.94 25.94-25.94-11.58-25.94-25.94 11.58-25.94 25.94-25.94z" fill="url(#a)"/>
 <path transform="translate(0) scale(1) translate(0) scale(1) translate(.002) scale(1)" d="m20.45 16.64a1.181 1.181 0 0 0-1.12 1.556c3.751 11.23 3.751 16.37 0 27.59a1.181 1.181 0 0 0 1.12 1.556c18.27 0 26.51-14.28 26.51-14.28a1.181 1.181 0 0 0 0.01582-1.143s-8.211-15.28-26.53-15.28z" fill="url(#a)" stop-color="#000000" stroke-linecap="round" stroke-linejoin="round" stroke-width=".9"/>
</svg>
