<svg version="1.1" viewBox="0 0 64 64" xmlns="http://www.w3.org/2000/svg">
 <defs>
  <linearGradient id="b" x2="0" y2="1">
   <stop stop-color="#de87cd" offset="0"/>
   <stop stop-color="#fd5" offset="1"/>
  </linearGradient>
  <linearGradient id="a" x1="1" x2="0" y2="1">
   <stop stop-color="#fa00ff" offset="0"/>
   <stop stop-color="#f00" offset="1"/>
  </linearGradient>
 </defs>
 <path transform="translate(.00115 -.00055) scale(.9999) translate(2.068 19.47) scale(.9354)" d="m9.367 16.39c-5.145 0-9.367 4.222-9.367 9.367v12.49c0 5.145 4.222 9.367 9.367 9.367h45.27c5.145 0 9.367-4.222 9.367-9.367v-12.49c0-5.145-4.222-9.367-9.367-9.367zm0 4.684h45.27c2.614 0 4.684 2.07 4.684 4.684v12.49c0 2.614-2.07 4.684-4.684 4.684h-45.27c-2.614 0-4.684-2.07-4.684-4.684v-12.49c0-2.614 2.07-4.684 4.684-4.684z" fill="url(#a)"/>
 <path transform="translate(.00115 -.00055) scale(.9999) translate(2.068 19.47) scale(.9354)" d="m48.54 24.98a2.342 2.342 0 0 0-2.342 2.342v0.6211l-0.543-0.3106a2.342 2.342 0 0 0-3.199 0.8594 2.342 2.342 0 0 0 0.8594 3.201l0.5371 0.3106-0.5371 0.3106a2.342 2.342 0 0 0-0.8594 3.201 2.342 2.342 0 0 0 3.199 0.8594l0.543-0.3106v0.6211a2.342 2.342 0 0 0 2.342 2.342 2.342 2.342 0 0 0 2.342-2.342v-0.6211l0.541 0.3106a2.342 2.342 0 0 0 3.201-0.8594 2.342 2.342 0 0 0-0.8594-3.201l-0.5371-0.3106 0.5371-0.3106a2.342 2.342 0 0 0 0.8594-3.201 2.342 2.342 0 0 0-3.201-0.8594l-0.541 0.3106v-0.6211a2.342 2.342 0 0 0-2.342-2.342z" fill="url(#a)"/>
 <path transform="translate(.00115 -.00055) scale(.9999) translate(2.068 19.47) scale(.9354)" d="m32 24.98a2.342 2.342 0 0 0-2.342 2.342v0.6211l-0.543-0.3106a2.342 2.342 0 0 0-3.201 0.8594 2.342 2.342 0 0 0 0.8613 3.201l0.5352 0.3106-0.5352 0.3106a2.342 2.342 0 0 0-0.8613 3.201 2.342 2.342 0 0 0 3.201 0.8594l0.543-0.3106v0.6211a2.342 2.342 0 0 0 2.342 2.342 2.342 2.342 0 0 0 2.34-2.342v-0.6211l0.543 0.3106a2.342 2.342 0 0 0 3.201-0.8594 2.342 2.342 0 0 0-0.8613-3.201l-0.5352-0.3106 0.5352-0.3106a2.342 2.342 0 0 0 0.8613-3.201 2.342 2.342 0 0 0-3.201-0.8594l-0.543 0.3106v-0.6211a2.342 2.342 0 0 0-2.34-2.342z" fill="url(#a)"/>
 <path transform="translate(.00115 -.00055) scale(.9999) translate(2.068 19.47) scale(.9354)" d="m15.61 24.98a2.342 2.342 0 0 0-2.342 2.342v0.6211l-0.543-0.3106a2.342 2.342 0 0 0-3.201 0.8594 2.342 2.342 0 0 0 0.8613 3.201l0.5352 0.3106-0.5352 0.3106a2.342 2.342 0 0 0-0.8613 3.201 2.342 2.342 0 0 0 3.201 0.8594l0.543-0.3106v0.6211a2.342 2.342 0 0 0 2.342 2.342 2.342 2.342 0 0 0 2.34-2.342v-0.6211l0.543 0.3106a2.342 2.342 0 0 0 3.201-0.8594 2.342 2.342 0 0 0-0.8613-3.201l-0.5352-0.3106 0.5352-0.3106a2.342 2.342 0 0 0 0.8613-3.201 2.342 2.342 0 0 0-3.201-0.8594l-0.543 0.3106v-0.6211a2.342 2.342 0 0 0-2.34-2.342z" fill="url(#a)"/>
 <path transform="translate(.00115 -.00055) scale(.9999) matrix(.9354 0 0 .9354 2.068 19.47)" d="m32.9-20.81c-0.296 0.0045-0.7105 0.1209-1.305 0.3008-6.919 2.104-10.38 6.396-10.38 12.89v1.201l-0.7012 0.7148c-2.176 2.216-0.3961 5.778 5.41 10.84 0.8412 0.7324 0.83 0.5436 0.09375 1.543-2.014 2.737-3.094 3.313-6.434 3.414-1.752 0.05439-2.041 0.07867-2.436 0.2305-2.075 0.7931-1.882 4.137 0.2695 4.672l-2e-3 -0.0059c0.9551 0.2378 4.062 0.0385 5.228-0.3359 1.89-0.6059 3.075-1.445 5.436-3.84 2.111-2.142 1.877-2.029 4.104-1.986 2.096 0.04048 1.967-0.02975 4.246 2.285 3.057 3.104 4.44 3.804 7.736 3.918 3.236 0.1113 4.146-0.4217 4.146-2.436 0.0013-1.913-0.7279-2.414-3.66-2.51-3.293-0.1088-4.807-0.9202-6.611-3.549l-0.4551-0.666 1.305-1.291c5.543-5.494 6.737-8.159 4.631-10.34l-0.7383-0.7617v-0.8438c0-5.574-2.338-8.41-7.965-9.658l-1.002-0.2227-0.09375-1.434c-0.1044-1.608-0.175-2.143-0.8262-2.133zm-0.1445 5.611c0.1825 0.0062 0.1641 0.1438 0.1641 0.5352 1e-6 0.8311 0.04938 0.9074 0.6894 1.078 4.293 1.137 5.277 2.356 5.277 6.578 0.0025 2.136-0.0191 2.045 0.6172 2.418 0.7476 0.4377 0.9766 0.6507 0.9766 0.9062 0 0.9664-5.394 6.706-7.057 7.508-1.144 0.5515-2.122 0.4916-3.146-0.1953-1.299-0.869-5.796-5.444-6.408-6.516-0.5414-0.9487-0.4245-1.145 1.018-1.707l0.9316-0.3613 0.04297-2.326c0.09361-4.927 1.626-6.828 6.303-7.814 0.3008-0.06356 0.4823-0.1073 0.5918-0.1035z" fill="url(#b)"/>
</svg>
