<svg xmlns="http://www.w3.org/2000/svg" viewBox="0 0 64 64"><defs><linearGradient id="a" x1="1" x2="0" y1="1"><stop offset="0" stop-color="#ff007d"/><stop offset="1" stop-color="#f000ff"/></linearGradient></defs><path fill="url(#a)" d="M24.22 1.293c-2.218 0-4.362.33-6.385.926a.9.9 0 0 0-.56.48c-1.572 3.342-1.484 8.41-.711 11.12.029.104.05.16.048.156a.9.9 0 0 0 1.4.481 10.8 10.8 0 0 1 6.434-2.096.9.9 0 0 0 .889-.746c.492-2.82 2.011-6.584 3.701-8.398a.9.9 0 0 0-.484-1.496 22.6 22.6 0 0 0-4.326-.424v-.002zm.006.006.06.06-.072.014zm.654.656.236.236-.054.043a.9.9 0 0 0-.182-.279m-.875.924a1 1 0 0 0 .088.088l-.037.025-.063-.037.063.04-.074.056.011-.096zm.213.215.002.002c.893 0 1.774.144 2.658.26-1.494 2.127-2.609 4.8-3.127 7.311-1.967.105-3.831.71-5.535 1.684-.4-2.268-.386-6.062.564-8.469 1.74-.474 3.55-.788 5.438-.789zm14.23 3.55a1 1 0 0 0-.107.007c-3.294.391-7.245 2.755-9.523 5.109-.096.097-.14.152-.143.156a.9.9 0 0 0 .27 1.44 10.8 10.8 0 0 1 5.092 4.94.9.9 0 0 0 1.113.441c2.68-.979 6.835-1.497 9.377-.844a.9.9 0 0 0 1.078-1.156 22.54 22.54 0 0 0-6.56-9.869.9.9 0 0 0-.594-.222zM8.058 8.503a.9.9 0 0 0-.635.298 22.5 22.5 0 0 0-5.305 10.56.9.9 0 0 0 .158.711c1.972 2.682 6.028 4.946 9.228 5.746.409.103.813.187 1.21.266a.9.9 0 0 0 1.058-1.047 11 11 0 0 1-.18-1.875v-.008a10.8 10.8 0 0 1 1.24-5.006.9.9 0 0 0-.234-1.12c-2.223-1.782-4.9-5.255-5.639-7.868a.9.9 0 0 0-.664-.633 1 1 0 0 0-.238-.023zm30.12.078c2.265 2.073 3.96 4.647 5.119 7.482-2.679-.298-5.626.028-8.084.83-1.063-1.835-2.58-3.306-4.389-4.4 1.971-1.765 5.038-3.506 7.354-3.912m-30.28 2.697c1.142 2.535 3.137 4.952 5.109 6.654-.756 1.644-1.209 3.412-1.211 5.227v.01c.002.293.061.58.084.873-2.605-.67-6.201-2.795-7.838-4.775.664-2.931 2.026-5.615 3.856-7.988zm28.13 10.32a.9.9 0 0 0-.846.957q.021.303.024.607v.002a10.8 10.8 0 0 1-1.797 5.945.9.9 0 0 0 .209 1.215c2.266 1.706 5.164 5.392 5.922 8.117a.9.9 0 0 0 1.539.358 22.5 22.5 0 0 0 5.193-10.27.9.9 0 0 0-.143-.702c-2.117-3.039-6.438-5.424-9.158-6.062v-.002c-.253-.058-.49-.101-.709-.146a1 1 0 0 0-.234-.018zm.9 2.09c2.066.598 5.718 2.678 7.441 4.867-.666 2.846-1.998 5.454-3.766 7.772-1.188-2.664-3.309-5.195-5.377-6.9a12.5 12.5 0 0 0 1.701-5.738zm-22.48 4.768a.9.9 0 0 0-.341.08c-2.546 1.168-7.391 1.924-10.23 1.199a.9.9 0 0 0-1.078 1.152 22.56 22.56 0 0 0 6.246 9.63.9.9 0 0 0 .675.233c3.702-.293 7.957-2.855 9.873-4.906l.002-.002q.577-.62 1.12-1.27a.9.9 0 0 0-.356-1.41 10.8 10.8 0 0 1-5.117-4.285.9.9 0 0 0-.795-.422zm-.271 1.902c1.158 1.637 2.692 2.92 4.465 3.846-.122.136-.239.278-.363.412-1.391 1.489-5.406 3.843-8.297 4.246-2.118-2.008-3.698-4.467-4.81-7.156 3.04.317 6.467-.319 9.006-1.348zm16.5 1.764a1 1 0 0 0-.115.01.9.9 0 0 0-.344.13l-.024.016a10.8 10.8 0 0 1-5.998 1.676.9.9 0 0 0-.916.836c-.2 2.801-1.912 7.569-3.875 9.676a.9.9 0 0 0 .485 1.496c3.674.72 7.469.515 11.04-.594a.9.9 0 0 0 .558-.498c1.327-3.036 1.263-7.784.4-10.99v-.004a28 28 0 0 0-.335-1.127.9.9 0 0 0-.88-.623zm-.549 2.13c.008.03.02.06.027.09.708 2.635.647 6.986-.242 9.395-2.667.757-5.44.896-8.186.562 1.738-2.523 2.841-5.892 3.172-8.639 1.836-.073 3.598-.57 5.228-1.408z" transform="translate(-2.344 -1.835)scale(1.41943)"/><path fill="url(#a)" d="M21.49 17.28a1.2 1.2 0 0 0-.623.2c-.503.349-.547.84-.547 1.251v9.867c0 .399.072.856.51 1.197s1.086.244 1.432.024l.004-.004 7.8-5.035c.31-.202.66-.565.667-1.1s-.347-.926-.668-1.133l-7.8-5.035-.015-.01a1.4 1.4 0 0 0-.566-.213 1 1 0 0 0-.194-.01zm.629 2.279 6.356 4.106-6.356 4.104z" transform="translate(-2.344 -1.835)scale(1.41943)"/></svg>