<svg xmlns="http://www.w3.org/2000/svg" viewBox="0 0 64 64"><defs><linearGradient id="a" x1="1" x2="0" y1="1"><stop offset="0" stop-color="#9c33c4"/><stop offset=".529" stop-color="#ff0a4c"/><stop offset="1" stop-color="#f79a00"/></linearGradient><linearGradient id="c" x1="29.31" x2="43.72" y1="61.25" y2="61.25" gradientTransform="matrix(1.287 0 0 .767 1.04 .721)" gradientUnits="userSpaceOnUse"><stop offset="0" stop-color="#ffe031"/><stop offset="1" stop-color="#fa0075"/></linearGradient></defs><path fill="url(#a)" d="M47.99-.002 9.04 0a6.96 6.96 0 0 0-6.955 6.955v50.08A6.96 6.96 0 0 0 9.04 63.99H31.3a2.782 2.782 0 0 0 0-5.564H10.44c-1.536 0-2.783-1.248-2.783-2.783s1.248-2.781 2.783-2.781h15.3c1.534 0 2.783-1.247 2.783-2.783s-1.248-2.783-2.783-2.783h-7.65v-6.955a2.086 2.086 0 0 0-4.172 0v6.955H9.049q-.717.002-1.391.14v-37.7a4.174 4.174 0 0 1 4.172-4.173h2.088v24.51c0 2.304 1.32 2.85 2.949 1.223l4.701-4.701 4.699 4.7c1.629 1.629 2.953 1.082 2.953-1.222V5.563h16a4.175 4.175 0 0 1 4.172 4.174v16.69a2.785 2.785 0 0 0 2.783 2.783 2.786 2.786 0 0 0 2.783-2.783V6.947a6.96 6.96 0 0 0-6.955-6.955zM18.08 5.562h6.957v18.61l-2.494-2.494a1.395 1.395 0 0 0-1.969 0l-2.494 2.494z" transform="translate(-.354 .008)"/><path fill="url(#c)" d="M48.02 42.17v.002c-3.542 0-6.755 1.936-9.127 5.085a.735.735 0 0 0 0 .877c2.371 3.152 5.584 5.091 9.127 5.091s6.755-1.94 9.127-5.089a.73.73 0 0 0 0-.875c-2.371-3.152-5.583-5.091-9.127-5.091m.179 1.63h.002a3.903 3.903 0 0 1 3.71 4.152c-.124 1.939-1.7 3.511-3.64 3.636a3.9 3.9 0 0 1-4.145-4.144 3.91 3.91 0 0 1 4.072-3.644zm-.078 1.798a2.112 2.112 0 0 0-2.197 1.964 2.095 2.095 0 0 0 2.231 2.229 2.11 2.11 0 0 0 1.964-1.96 2.1 2.1 0 0 0-1.999-2.233z" transform="translate(-.354 .006)"/><path fill="url(#c)" d="M48 33.1a14.66 14.66 0 0 0-9.951 3.895h-.002a14.61 14.61 0 0 0-4.633 9.623 1.976 1.976 0 0 0 1.814 2.102 1.977 1.977 0 0 0 2.104-1.807v-.002a10.68 10.68 0 0 1 3.383-7.04h.002a10.725 10.725 0 0 1 14.849.279c2.002 2.005 3.131 4.726 3.131 7.556s-1.13 5.55-3.131 7.557h-.002v.004a10.74 10.74 0 0 1-7.566 3.125 1.973 1.973 0 0 0-1.96 1.963 1.97 1.97 0 0 0 1.96 1.959c3.875 0 7.595-1.539 10.34-4.273v-.002c2.74-2.743 4.283-6.46 4.283-10.33s-1.544-7.586-4.283-10.33v-.002a14.66 14.66 0 0 0-10.34-4.274zM36.5 51.27c-.254.012-.51.074-.752.191a1.967 1.967 0 0 0-.904 2.621 14.64 14.64 0 0 0 6.359 6.562v.002a1.974 1.974 0 0 0 2.648-.822 1.97 1.97 0 0 0-.824-2.648 10.7 10.7 0 0 1-4.654-4.809v-.002A1.995 1.995 0 0 0 36.5 51.27z" transform="translate(-.354 .006)"/></svg>