<svg xmlns="http://www.w3.org/2000/svg" fill="none" viewBox="0 0 64 64"><defs><linearGradient id="a" x1="11.33" x2="11.33" y1="26.53" y2="6" gradientUnits="userSpaceOnUse"><stop offset="0" stop-color="#fd5900"/><stop offset="1" stop-color="#ffde00"/></linearGradient><linearGradient id="b" x1="25.73" x2="25.73" y1="26.53" y2="6" gradientUnits="userSpaceOnUse"><stop offset="0" stop-color="#fd5900"/><stop offset="1" stop-color="#ffde00"/></linearGradient><linearGradient id="d" x1="25.73" x2="25.73" y1="26.53" y2="6" gradientUnits="userSpaceOnUse"><stop offset="0" stop-color="#fd5900"/><stop offset="1" stop-color="#ffde00"/></linearGradient></defs><path fill="url(#a)" d="M17.02 6.001q-.133-.003-.267.004a3.7 3.7 0 0 0-1.765.546 3.75 3.75 0 0 0-1.757 2.735 4 4 0 0 0-.021.718c.03.453-.146.918-.538 1.146l-3.6 2.093c-.396.23-.891.149-1.272-.106a3.73 3.73 0 0 0-2.067-.628 3.7 3.7 0 0 0-2.64 1.1A3.76 3.76 0 0 0 2 16.269a3.78 3.78 0 0 0 1.093 2.658 3.73 3.73 0 0 0 2.64 1.1 3.7 3.7 0 0 0 2.063-.628c.381-.255.876-.336 1.273-.106l3.603 2.094c.393.228.568.693.539 1.146a3.8 3.8 0 0 0 .489 2.121 3.75 3.75 0 0 0 2.266 1.753 3.7 3.7 0 0 0 2.834-.375c.425-.247.797-.575 1.095-.967a3.78 3.78 0 0 0 .272-4.166 3.74 3.74 0 0 0-2.267-1.75 3.71 3.71 0 0 0-3.034.501c-.38.254-.874.334-1.27.105l-3.6-2.09c-.395-.228-.57-.697-.538-1.152a4 4 0 0 0 0-.488c-.03-.454.145-.92.54-1.15l3.6-2.09c.396-.23.891-.148 1.272.107q.096.064.197.123a3.71 3.71 0 0 0 2.833.376 3.74 3.74 0 0 0 2.267-1.75 3.78 3.78 0 0 0-.271-4.166 3.718 3.718 0 0 0-2.875-1.47z" transform="translate(-4.66 -5.904)scale(2.33)"/><path fill="url(#b)" d="M23.09 7.093a3.734 3.734 0 1 1 5.279 5.281 3.734 3.734 0 0 1-5.279-5.281" transform="translate(-4.66 -5.904)scale(2.33)"/><path fill="url(#d)" d="M23.09 20.16a3.734 3.734 0 1 1 5.279 5.281 3.734 3.734 0 0 1-5.279-5.281" transform="translate(-4.66 -5.904)scale(2.33)"/></svg>