<svg xmlns="http://www.w3.org/2000/svg" viewBox="0 0 64 64"><path fill="#00bdfe" d="M28.47.078c1.026-.15 2.238-.167 2.953.715 1.192 1.22.498 3.582-1.208 3.883-2.27.313-4.57.59-6.75 1.362C13.81 9.115 6.282 17.99 4.962 28.053c-.222 1.245-.054 2.9-1.355 3.616-1.434.978-3.655-.197-3.592-1.949.41-7.65 3.88-15.04 9.293-20.438C14.41 4.156 21.285.854 28.474.077zM13.276 27.438c1.02-1.295 3.266-.936 3.872.586a428 428 0 0 1 7.188 14.925c.57.97.164 2.329-.92 2.722-1.576.187-3.161-.126-4.737-.218.745 3.824 2.928 7.33 6.05 9.66.64.543 1.527.906 1.794 1.78-5.887-1.78-10.64-7.27-11.112-13.453.434-1.827 2.73-1.17 4.104-1.363a499 499 0 0 1-4.91-8.853c-2.138 2.588-4.28 5.181-6.465 7.725 1.134.21 2.752.347 3.024 1.748 1.33 5.402 4.685 10.406 9.581 13.165 2.158 1.229 4.52 2.073 6.949 2.558.74.167 1.551.222 2.141.753-5.614.886-11.571-.853-15.883-4.545-2.927-2.471-5.092-5.754-6.483-9.304-1.572-.293-3.207-.305-4.73-.82-1.308-.61-1.605-2.495-.61-3.524 3.638-4.574 7.326-9.111 11.142-13.542z"/><path fill="#2bc882" d="M34.107 4.943c5.299-.756 10.901.69 15.132 3.98 3.291 2.529 5.74 6.057 7.226 9.914 1.618.318 3.354.255 4.888.898 1.217.711 1.38 2.509.414 3.5-3.324 4.204-6.749 8.331-10.184 12.45-.707.803-1.435 1.894-2.643 1.836-1.091.075-1.936-.778-2.338-1.71-2.425-4.874-4.818-9.77-7.059-14.737-.602-1.074.15-2.637 1.434-2.642 1.426-.025 2.844.163 4.264.243-.606-2.956-2.003-5.754-4.12-7.914-1.137-1.296-2.705-2.111-3.83-3.415 5.964 1.467 10.587 7.122 11.249 13.18-.214 2.03-2.727 1.37-4.112 1.538a850 850 0 0 1 4.892 8.856c2.137-2.57 4.25-5.162 6.442-7.688-1.025-.3-2.526-.284-2.91-1.522-.553-1.789-1.063-3.607-1.979-5.254-2.634-5.34-7.817-9.183-13.586-10.488-1.058-.339-2.317-.242-3.187-1.028zM60.362 32.327c1.43-.982 3.643.167 3.61 1.915-.34 6.56-2.95 12.943-7.086 18.024-5.503 6.8-13.908 11.238-22.665 11.726-1.748.004-2.882-2.186-1.915-3.624.832-1.426 2.697-1.112 4.071-1.417 11.33-1.66 20.912-11.235 22.565-22.558.318-1.371 0-3.236 1.418-4.068z"/></svg>