<svg xmlns="http://www.w3.org/2000/svg" style="isolation:isolate" viewBox="0 0 64 64"><linearGradient id="a" x1=".391" x2=".789" y1=".64" y2=".187" gradientTransform="matrix(47.5 0 0 45.42 .25 1.749)" gradientUnits="userSpaceOnUse" transform="translate(-.337 -.952)scale(1.347)"><stop offset="0" stop-color="#d300dc"/><stop offset="1" stop-color="#8700ff"/></linearGradient><path fill="url(#a)" fill-rule="evenodd" d="M26.77 41.62h20.98v.791h-6.333v.792h4.75v.792h-9.5v.791h4.75v.792h-11.08v.792h-12.67v-.792H6.587v-.792h4.75v-.791h-9.5v-.792h6.334v-.792H.254v-.791h21.69-16.94v-.792H.254v-.792h17.85a11.6 11.6 0 0 1-1.949-1.569c-2.18-2.17-3.4-5.13-3.4-8.21 0-2.98 1.15-5.85 3.2-8 2.05-2.16 4.86-3.45 7.84-3.6a8.62 8.62 0 0 0-2.42 5.98c0 2.29.91 4.48 2.52 6.09a8.62 8.62 0 0 0 6.09 2.53c2.23 0 4.38-.87 5.98-2.42-.15 2.98-1.43 5.78-3.59 7.84a11.5 11.5 0 0 1-1.737 1.359h17.12v.792h-4.75v.792h-16.23zm-10.69 4.75h15.83v.791H16.08zm7.146-35.23.42.767.767.42-.767.42-.42.768-.42-.768-.768-.42.768-.42zm11.08 6.252.419.768.768.42-.768.42-.419.767-.42-.767-.768-.42.768-.42zM8.796 19.14l.42.768.767.42-.767.42-.42.767-.42-.767-.768-.42.768-.42zm19.01 3.094.42.768.768.419-.768.42-.42.768-.42-.768-.767-.42.767-.419zm9.652 1.973.84 1.535 1.535.84-1.535.84-.84 1.535-.839-1.535-1.536-.84 1.536-.84zm-7.916 2.375.559 1.023 1.024.56-1.024.56-.559 1.024-.56-1.024-1.024-.56 1.024-.56zm-20.54 5.59.84 1.535 1.535.84-1.535.839-.84 1.536-.839-1.536-1.536-.839 1.536-.84zM5.788 35.29a2.376 2.376 0 0 1-4.75 0V17.63c0-1.656 1.152-3.692 2.572-4.544l17.83-10.7c1.419-.852 3.717-.839 5.127.029l17.83 10.98c1.41.868 2.554 2.917 2.554 4.573v17.33a2.376 2.376 0 0 1-4.75 0v-15.67c0-1.104-.763-2.469-1.703-3.048l-14.82-9.114c-.941-.578-2.472-.587-3.419-.019l-14.76 8.852c-.947.567-1.715 1.925-1.715 3.028v15.97zm12.59-11.23a8.61 8.61 0 0 0-2.63 6.2c0 2.28.91 4.48 2.52 6.09a8.62 8.62 0 0 0 6.09 2.53c2.34 0 4.58-.96 6.2-2.64-.19.01-.38.02-.58.02-3.08 0-6.03-1.23-8.21-3.41-2.18-2.17-3.4-5.13-3.4-8.21 0-.19 0-.38.01-.58" transform="translate(-.337 -.952)scale(1.347)"/></svg>