<svg xmlns="http://www.w3.org/2000/svg" fill="none" viewBox="0 0 64 64"><defs><linearGradient id="a" x1="24" x2="24" y1="45" y2="3" gradientUnits="userSpaceOnUse"><stop offset="0" stop-color="#ac3e00"/><stop offset="1" stop-color="#ff620a"/></linearGradient></defs><path fill="url(#a)" stroke="url(#a)" stroke-width="2" d="M24 3C12.4 3 3 12.402 3 24s9.402 21 21 21 21-9.402 21-21S35.598 3 24 3zm16.87 19H26V7.13c7.788.914 13.96 7.084 14.87 14.87zM22 7.13V22H7.13C8.044 14.212 14.214 8.04 22 7.13zM7.13 26H22v14.87C14.212 39.956 8.04 33.786 7.13 26zM26 40.87V26h14.87c-.914 7.788-7.084 13.96-14.87 14.87z" transform="translate(-2.91 -2.91)scale(1.45456)"/></svg>