<svg xmlns="http://www.w3.org/2000/svg" style="isolation:isolate" viewBox="0 0 64 64"><linearGradient id="a" x1=".571" x2=".537" y1="1.533" y2=".051" gradientTransform="matrix(46 0 0 34.85 1 6.576)" gradientUnits="userSpaceOnUse" transform="translate(-1.385 -1.392)scale(1.391)"><stop offset="0" stop-color="#5433ff"/><stop offset=".517" stop-color="#20bdff"/><stop offset=".983" stop-color="#a5fecb"/></linearGradient><path fill="url(#a)" fill-rule="evenodd" d="M41.42 14.69 29.91 26.22c-1.561 1.562-3.694 2.44-5.91 2.44s-4.349-.878-5.91-2.44L6.58 14.69v18.62l5.701-5.702a2.78 2.78 0 1 1 3.931 3.931l-4.307 4.307h24.2l-4.307-4.307a2.78 2.78 0 1 1 3.931-3.931l5.701 5.702V14.69zM11.9 12.152l10.13 10.12c.515.515 1.226.808 1.965.808s1.45-.293 1.965-.808l10.13-10.12zM6.572 6.576h34.85a5.58 5.58 0 0 1 5.576 5.576v23.7a5.58 5.58 0 0 1-5.576 5.576H6.572a5.58 5.58 0 0 1-5.576-5.576v-23.7a5.58 5.58 0 0 1 5.576-5.576" transform="translate(-1.385 -1.392)scale(1.391)"/></svg>