<svg xmlns="http://www.w3.org/2000/svg" fill="none" viewBox="0 0 64 64"><defs><linearGradient id="a" x1="38.61" x2=".647" y1="41.66" y2="17.94" gradientUnits="userSpaceOnUse"><stop offset="0" stop-color="#2ad454"/><stop offset="1" stop-color="#b3ff5a"/></linearGradient></defs><path fill="url(#a)" d="M16.83 60.5h30.33a12.847 12.847 0 0 0 12.833-12.833v-30.33A12.847 12.847 0 0 0 47.16 4.504H16.83A12.847 12.847 0 0 0 3.997 17.337v30.33A12.847 12.847 0 0 0 16.83 60.5M53 36.17a1 1 0 0 1-1 1h-2.667a1 1 0 0 1-1-1v-7.333a1 1 0 0 1 1-1H52a1 1 0 0 1 1 1zm-30.33.833a1 1 0 0 1 1-1h16.67a1 1 0 0 1 1 1v15.5a1 1 0 0 1-1 1H23.67a1 1 0 0 1-1-1zm18.67-9a1 1 0 0 1-1 1H23.67a1 1 0 0 1-1-1v-15.5a1 1 0 0 1 1-1h16.67a1 1 0 0 1 1 1zM15.67 36.17a1 1 0 0 1-1 1h-2.667a1 1 0 0 1-1-1v-7.333a1 1 0 0 1 1-1h2.667a1 1 0 0 1 1 1zm-4.667 11.5v-2.5a1 1 0 0 1 1-1h2.667a1 1 0 0 1 1 1v6.99c0 .633-.586 1.11-1.166.856a5.83 5.83 0 0 1-3.501-5.346m38.5 5.346c-.58.253-1.166-.223-1.166-.856v-6.99a1 1 0 0 1 1-1h2.667a1 1 0 0 1 1 1v2.5a5.84 5.84 0 0 1-3.501 5.346m3.501-35.68v2.5a1 1 0 0 1-1 1h-2.667a1 1 0 0 1-1-1v-6.99c0-.632.586-1.109 1.166-.856a5.83 5.83 0 0 1 3.501 5.346m-38.5-5.346c.58-.253 1.166.224 1.166.856v6.99a1 1 0 0 1-1 1h-2.667a1 1 0 0 1-1-1v-2.5a5.84 5.84 0 0 1 3.501-5.346" transform="translate(-4.571 -5.143)scale(1.143)"/></svg>