<svg xmlns="http://www.w3.org/2000/svg" viewBox="0 0 64 64"><defs><linearGradient id="a" y1="1"><stop offset="0" stop-color="#879af2"/><stop offset=".479" stop-color="#d3208b"/><stop offset=".979" stop-color="#fda000"/></linearGradient><linearGradient id="c" x1="1" x2="0" y1=".5" y2=".5"><stop offset="0" stop-color="#879af2"/><stop offset=".479" stop-color="#d3208b"/><stop offset=".979" stop-color="#fda000"/></linearGradient><linearGradient id="d" x2="0" y2="1"><stop offset="0" stop-color="#01ff01"/><stop offset="1" stop-color="#1bc100"/></linearGradient></defs><path fill="url(#a)" d="M12.8 3.789c-3.398 0-6.655 1.308-9.043 3.633a12.14 12.14 0 0 0-3.754 8.75v31.64a12.14 12.14 0 0 0 3.754 8.75c2.388 2.325 5.644 3.633 9.043 3.633h20.63a2.66 2.66 0 0 0 2.664-2.693l-.002-.115a2.734 2.734 0 0 0-2.725-2.693h-20.57a7.27 7.27 0 0 1-5.035-2.01c-1.321-1.293-2.074-3.04-2.074-4.871v-31.64a6.82 6.82 0 0 1 2.074-4.87 7.27 7.27 0 0 1 5.035-2.01h38.39a7.27 7.27 0 0 1 5.033 2.01c1.321 1.294 2.076 3.04 2.076 4.87v14.05c0 1.519 1.274 2.752 2.844 2.752s2.844-1.232 2.844-2.752v-14.05a12.14 12.14 0 0 0-3.754-8.75c-2.388-2.325-5.644-3.633-9.043-3.633z" transform="translate(-.003 -.002)"/><path fill="url(#c)" d="M12.4 12.18a2.76 2.76 0 0 0-2.098 1.057 2.76 2.76 0 0 0 .477 3.873l8.227 6.426-8.227 6.426a2.754 2.754 0 1 0 3.384 4.348l10.53-8.232c1.796-1.402 1.796-3.68 0-5.084l-10.53-8.23a2.73 2.73 0 0 0-1.764-.582zM26.9 29.5a2.694 2.694 0 0 0 0 5.387h8.809a2.694 2.694 0 0 0 0-5.386z" transform="translate(-.003 -.002)"/><path fill="url(#d)" d="M48.83 60.19a2.64 2.64 0 0 0 1.879-.781l8.418-8.418a2.66 2.66 0 0 0 .584-2.905 2.66 2.66 0 0 0-.985-1.193 2.66 2.66 0 0 0-1.479-.448h-4.289v-12.37a4.124 4.124 0 0 0-4.122-4.123h-.008a4.1 4.1 0 0 0-2.91 1.205 4.14 4.14 0 0 0-1.218 2.918v12.37h-4.288a2.66 2.66 0 0 0-1.48.448 2.66 2.66 0 0 0-.984 1.193 2.66 2.66 0 0 0-.149 1.539 2.7 2.7 0 0 0 .734 1.366l8.418 8.418a2.64 2.64 0 0 0 1.879.78z" transform="translate(-.003)"/></svg>