<svg version="1.1" viewBox="0 0 64 64" xmlns="http://www.w3.org/2000/svg">
 <defs>
  <linearGradient id="b" y2="1">
   <stop stop-color="#fff44f" offset="0"/>
   <stop stop-color="#ffe847" offset=".06"/>
   <stop stop-color="#ffc830" offset=".168"/>
   <stop stop-color="#ff980e" offset=".304"/>
   <stop stop-color="#ff8b16" offset=".356"/>
   <stop stop-color="#ff672a" offset=".455"/>
   <stop stop-color="#ff3647" offset=".57"/>
   <stop stop-color="#e31587" offset=".737"/>
  </linearGradient>
  <linearGradient id="a" x2="0" y1="1">
   <stop stop-color="#ff69ff" offset="0"/>
   <stop stop-color="#9033dd" offset="1"/>
  </linearGradient>
 </defs>
 <path transform="translate(-2e-5) scale(1) translate(.00035 -2.4e-5) scale(.9999) translate(-.566 -1.129) scale(1.357)" d="m30.48 26.76-.93 3.891c1.19.28 2.34.69 3.45 1.21.92.43 1.78.98 2.56 1.639.61.5 1.11 1.11 1.49 1.79.29.52.44 1.101.45 1.701-.02.84-.31 1.65-.82 2.31-.33.45-.7.85-1.12 1.21-.5.42-1.03.79-1.59 1.119-1.38.78-2.86 1.36-4.4 1.72-1.83.44-3.69.66-5.57.65a23.2 23.2 0 0 1-5.569-.65c-1.54-.36-3.02-.94-4.4-1.72-.56-.33-1.09-.7-1.59-1.119-.42-.36-.79-.76-1.12-1.21-.51-.66-.8-1.47-.82-2.31.01-.57.15-1.13.41-1.63.35-.65.81-1.23 1.36-1.72.72-.63 1.51-1.171 2.37-1.601 1.02-.52 2.09-.929 3.2-1.229l-1.05-3.86c-1.37.37-2.69.879-3.95 1.519-1.16.58-2.24 1.311-3.21 2.171-.92.81-1.68 1.769-2.25 2.849a7.74 7.74 0 0 0-.881 3.52c.03 1.7.59 3.34 1.62 4.69.5.68 1.09 1.31 1.73 1.85.69.59 1.42 1.1 2.2 1.55 1.71.97 3.54 1.69 5.46 2.14 2.12.51 4.3.77 6.49.76 2.19.01 4.372-.25 6.492-.76 1.92-.45 3.75-1.17 5.46-2.14.78-.45 1.51-.96 2.2-1.55.64-.54 1.23-1.17 1.73-1.85a7.95 7.95 0 0 0 1.62-4.69c-.01-1.28-.331-2.529-.951-3.649s-1.44-2.111-2.42-2.931a15.6 15.6 0 0 0-3.429-2.19 21.8 21.8 0 0 0-4.22-1.48z" fill="url(#a)"/>
 <path transform="translate(-2e-5) scale(1) translate(.00035 -2.4e-5) scale(.9999) translate(-.566 -1.129) scale(1.357)" d="M24 .834c-8.286 0-15.06 6.778-15.06 15.06 0 2.674.656 4.99 1.793 7.107s2.684 4.067 4.582 6.492c1.648 2.106 3.661 4.68 5.993 8.042.612.881 1.624 1.412 2.697 1.412s2.085-.53 2.697-1.413c2.307-3.325 4.312-5.891 5.953-7.99 1.911-2.444 3.466-4.407 4.61-6.532s1.805-4.445 1.805-7.12c0-8.285-6.778-15.06-15.06-15.06zm0 4.6c5.791 0 10.46 4.674 10.46 10.46 0 1.98-.39 3.332-1.255 4.94-.864 1.606-2.273 3.433-4.184 5.877a213 213 0 0 0-5.026 6.747 213 213 0 0 0-5.067-6.8c-1.898-2.426-3.294-4.238-4.151-5.834s-1.247-2.945-1.247-4.93c0-5.792 4.674-10.46 10.46-10.46z" fill="url(#b)"/>
 <path transform="translate(-2e-5) scale(1) translate(.00035 -2.4e-5) scale(.9999) translate(-.566 -1.129) scale(1.357)" d="m23.98 8.391c-4.292 0-7.816 3.524-7.816 7.816s3.524 7.818 7.816 7.818 7.816-3.526 7.816-7.818-3.524-7.816-7.816-7.816m0 3.943c2.151 0 3.874 1.722 3.874 3.873s-1.724 3.874-3.874 3.874a3.86 3.86 0 0 1-3.873-3.874 3.86 3.86 0 0 1 3.873-3.873" fill="url(#b)"/>
</svg>
