<svg xmlns="http://www.w3.org/2000/svg" style="isolation:isolate" viewBox="0 0 64 64"><linearGradient id="a" x2="1" y1=".5" y2=".5" gradientTransform="matrix(47 0 0 47 .5 .5)" gradientUnits="userSpaceOnUse" transform="translate(-.68 -.68)scale(1.362)"><stop offset="0" stop-color="#5433ff"/><stop offset=".517" stop-color="#20bdff"/><stop offset=".983" stop-color="#a5fecb"/></linearGradient><path fill="url(#a)" fill-rule="evenodd" d="M24 4c-2.901 0-5.646.623-8.129 1.725L19 8v2.666L21.334 13H23v-1.301L25 10V8.666l1-1.332V4.1q-.987-.099-2-.1M10.78 9c-3.849 3.393-6.383 8.237-6.73 13.7l6.955 5.961v-2l-1.666-1.332 2-2.301h1.332l1.334 1.332.041-2.5 1.959-1.865h1v-1.334l2-1.332v-2l-1.758-1.293-3.242-.041v3h-1.334l-1.666-1.666v-1.334l2.334-2h1.666v-1.334l-1-1.666H10.78zM34 10l-2 2v1.033h2V12.02h1.033v2.322l-.668.658H31v1h-1v2h-3v2.967h4v-.934h2v.666l1.666 1.334H35v-.668l-.334-.666v-.666H36L38 22h2v.301l-.666.699H38l5.545 5.236c.292-1.365.455-2.78.455-4.236 0-5.465-2.177-10.4-5.705-14H34m4 13h-4l-1-1h-4.334L26 24.666v2.668L28.666 30h2L32 31.334V32l1 .666v4l3.053 3.289A20 20 0 0 0 40 35.992v-4.658L41 30v-2.666l-3-3.033zM4.42 30.09c.243.789-.201 1.629-.99 1.875s-1.627-.196-1.87-.985A23.3 23.3 0 0 1 .5 24c0-6.23 2.48-12.21 6.88-16.62C11.79 2.98 17.77.5 24 .5s12.21 2.48 16.62 6.88c4.4 4.41 6.88 10.39 6.88 16.62s-2.48 12.21-6.88 16.62A23.54 23.54 0 0 1 24 47.5c-2.46 0-4.91-.38-7.26-1.14-.789-.259-1.222-1.109-.965-1.895s1.106-1.219 1.895-.965c2.04.66 4.18 1 6.33 1 5.43 0 10.65-2.16 14.5-6 3.84-3.85 6-9.07 6-14.5s-2.16-10.65-6-14.5c-3.85-3.84-9.07-6-14.5-6s-10.65 2.16-14.5 6a20.55 20.55 0 0 0-5.08 20.59" transform="translate(-.68 -.68)scale(1.362)"/><linearGradient id="c" x1=".097" x2=".968" y1=".942" y2=".041" gradientTransform="translate(9.871 9.871)scale(28.26)" gradientUnits="userSpaceOnUse" transform="translate(-.68 -.68)scale(1.362)"><stop offset="0" stop-color="#f9d423"/><stop offset=".516" stop-color="#ff4e50"/><stop offset=".991" stop-color="#8a2387"/></linearGradient><path fill="url(#c)" fill-rule="evenodd" d="m9.871 38.13 12.36-15.9 3.532 3.532-15.9 12.36zm28.26-28.26-15.9 12.36 3.532 3.532 12.36-15.9z" transform="translate(-.68 -.68)scale(1.362)"/></svg>