<svg xmlns="http://www.w3.org/2000/svg" style="isolation:isolate" viewBox="0 0 64 64"><defs><linearGradient id="a" x1=".5" x2=".5" y2="1" gradientTransform="matrix(24.17 0 0 74.11 55.5 94.02)" gradientUnits="userSpaceOnUse"><stop offset="0" stop-color="#1ad6ab"/><stop offset="1" stop-color="#329db6"/></linearGradient><linearGradient id="b" x1=".5" x2=".5" y1="1" gradientTransform="matrix(97.04 0 0 70.23 55.5 67.55)" gradientUnits="userSpaceOnUse"><stop offset="0" stop-color="#037164"/><stop offset="1" stop-color="#00ac98"/></linearGradient><linearGradient id="c" x1=".5" x2=".5" y1="1" gradientTransform="matrix(63.2 0 0 49.73 105.1 138.7)" gradientUnits="userSpaceOnUse"><stop offset="0" stop-color="#037164"/><stop offset="1" stop-color="#00ac98"/></linearGradient><linearGradient id="g" x2="0" y2="1" gradientTransform="matrix(63.2 0 0 49.72 87.72 138.7)" gradientUnits="userSpaceOnUse"><stop offset="0" stop-color="#0fe"/><stop offset="1" stop-color="#14dc99"/></linearGradient><linearGradient id="h" x1=".5" x2=".5" y2="1" gradientTransform="matrix(24.17 0 0 74.11 176.3 94.02)" gradientUnits="userSpaceOnUse"><stop offset="0" stop-color="#1ad6ab"/><stop offset="1" stop-color="#329db6"/></linearGradient><linearGradient id="i" x2="0" y2="1" gradientTransform="matrix(97.04 0 0 70.23 103.5 67.55)" gradientUnits="userSpaceOnUse"><stop offset="0" stop-color="#0fe"/><stop offset="1" stop-color="#14dc99"/></linearGradient></defs><path fill="url(#a)" d="M55.5 94.02h16.11v36.47l8.056 4.557v33.08l-24.17-14.52z" transform="translate(-24.5 -24.5)scale(.4414)"/><path fill="url(#b)" d="m55.5 67.55 97.04 56.03-24.62 14.2L55.5 95.96z" transform="translate(-24.5 -24.5)scale(.4414)"/><path fill="url(#c)" d="m168.3 138.7-63.2 36.49 22.93 13.24 40.28-23.26z" transform="translate(-24.5 -24.5)scale(.4414)"/><path fill="url(#g)" d="M87.72 138.7v26.47L128 188.42l22.93-13.23z" transform="translate(-24.5 -24.5)scale(.4414)"/><path fill="url(#h)" d="M200.5 94.02h-16.11v36.47l-8.056 4.557v33.08l24.17-14.52z" transform="translate(-24.5 -24.5)scale(.4414)"/><path fill="url(#i)" d="m200.5 67.55-97.04 56.03 24.62 14.2 72.42-41.82z" transform="translate(-24.5 -24.5)scale(.4414)"/></svg>