<svg xmlns="http://www.w3.org/2000/svg" viewBox="0 0 64 64"><defs><linearGradient id="a" x2="0" y1="1"><stop offset="0" stop-color="#05f"/><stop offset="1" stop-color="#00ffd8"/></linearGradient></defs><path fill="url(#a)" d="M3.728 1.889C1.706 1.889.007 3.586.007 5.61v15.13h5.422c0 .911-.795 1.703-1.701 1.703h21.8c.985 0 1.932-.394 2.629-1.09l4.969-4.961h26.73c.597.269.95.189 1.223.176.341-.016.583-.07.84-.15s.515-.177.89-.444 1.15-.838 1.195-2.201l.002-.045v-.047c0-1.012-.148-1.523-.386-2.42a7 7 0 0 0-.52-1.432c-.134-.268-.293-.566-.654-.943s-1.09-.945-2.16-.945h-27l-3.938-4.715a3.72 3.72 0 0 0-2.856-1.334H3.742zm1.705 5.422h20.25l3.936 4.715c.03.038.082.051.113.088l-4.91 4.9H5.432z" transform="translate(.002 .089)scale(.9999)"/><path fill="url(#a)" d="m60.19 10.96.002.004-27.74.006c-1.007 0-1.978.4-2.69 1.113l-4.947 4.959H3.725c-2.025 0-3.727 1.7-3.727 3.725v37.45c0 2.023 1.692 3.725 3.723 3.725h56.54c2.031 0 3.723-1.702 3.723-3.725v-43.46c0-2.064-1.731-3.797-3.797-3.797zm-27.07 5.434h25.46v40.13H5.43v-34.06h20.06a3.8 3.8 0 0 0 2.691-1.111zM3.9 19.374l.709.465.014.02zm.877.709.428.623.011.06zm-4.766 1.49v.008H.009v-.004zm.125.856.074.355-.031-.045zm.545 1.09.121.177-.014-.008z" transform="translate(.002 .089)scale(.9999)"/><path fill="url(#a)" d="m5.43 22.46 7.072 6.117-2.721-1.553c.614 1.62 2.441 3.098 2.441 3.098 0 1.188 1.662 3.352 1.662 3.352-1.316.562-3.104 3.285-3.104 3.285 1.831-.984 5.029-.842 5.029-.842-1.303.562-3.947 3.135-3.947 3.135 1.998-1.396 5.959-1.115 5.959-1.115v3.102c-2.445.782-3.104 3.104-3.104 3.104h3.104c-.434 2.107-3.383 4.031-3.383 4.031-3.817-1.62-8.127-.648-8.127-.648 1.207.122 2.6 1.182 2.6 1.182 1.387 1.83 4.438 1.443 4.438 1.443.09.912 2.449 3.096 2.449 3.096 1.564 1.617 1.988 3.287 1.988 3.287 1.908-3.444-1.17-6.824-1.17-6.824 8.502-4.282 7.418-14.9 7.418-14.9 0-3.103 3.104-6.205 3.104-6.205h-6.205c-1.942-4.686-6.644-1.988-6.644-1.988z" transform="translate(.002 .089)scale(.9999)"/></svg>