<svg version="1.1" viewBox="0 0 64 64" xmlns="http://www.w3.org/2000/svg">
 <defs>
  <linearGradient id="b" x1="1" x2="0" y1="1">
   <stop stop-color="#f70606" offset="0"/>
   <stop stop-color="#ff24f5" offset="1"/>
  </linearGradient>
  <linearGradient id="c" x1="6.81" x2="51.04" y1="30.99" y2="30.99" gradientTransform="matrix(1.106 0 0 .9039 1.03 0)" gradientUnits="userSpaceOnUse">
   <stop stop-color="#07f" offset="0"/>
   <stop stop-color="#00f7ff" offset="1"/>
  </linearGradient>
  <linearGradient id="a" y2="1">
   <stop stop-color="#feaa00" offset="0"/>
   <stop stop-color="#fd0575" offset=".5"/>
   <stop stop-color="#7b31fe" offset="1"/>
  </linearGradient>
 </defs>
 <path transform="translate(0) scale(1) translate(-.000874 -.00074) scale(1) translate(-.00022 .004919) scale(.9999)" d="m55.28 8.025c-0.181 0.01054-0.3595 0.04465-0.5317 0.1016l-13.43 4.479c-0.5226 0.1746-0.9535 0.551-1.2 1.044l-13 26.01-16.98 4.247c-1.113 0.2774-1.791 1.404-1.513 2.518 0.2774 1.115 1.405 1.795 2.52 1.515l17.91-4.481c0.5886-0.1466 1.086-0.5427 1.358-1.085l13.05-26.09 12.62-4.206c1.089-0.3624 1.679-1.539 1.317-2.628-0.2976-0.8921-1.158-1.474-2.096-1.418z" fill="url(#c)" stroke-width="1.107"/>
 <path transform="translate(0) scale(1) translate(-.000874 -.00074) scale(1) translate(-.00022 .004919) scale(.9999) matrix(.9451 0 0 .9451 3.506 -5.638)" d="m29.01 29.86 0.0039 2e-3a2.115 2.115 0 0 0-1.342 0.4238l-21.97 16.48a2.115 2.115 0 0 0-0.4219 2.961 2.115 2.115 0 0 0 2.961 0.4238l20.18-15.14 15.24 22.86a2.115 2.115 0 0 0 2.932 0.5859l16.48-10.98a2.115 2.115 0 0 0 0.5879-2.934 2.115 2.115 0 0 0-2.934-0.5879l-14.72 9.812-15.3-22.96a2.115 2.115 0 0 0-1.404-0.9102 2.115 2.115 0 0 0-0.2852-0.0293z" fill="url(#b)"/>
 <path transform="translate(0) scale(1) translate(-.000874 -.00074) scale(1) translate(-.00022 .004919) scale(.9999) matrix(.9451 0 0 .9451 3.506 -5.638)" d="m0.6012 11.18c-0.4265 9.7e-5 -0.817 0.2408-1.008 0.622l-3.18 6.363c-0.3768 0.7501 0.1668 1.635 1.006 1.635h0.994v45.27c-7.62e-5 0.4755 0.2962 0.8821 0.713 1.048 0.03473 0.0138 0.06908 0.02477 0.1054 0.03513a1.074 1.074 0 0 0 0.09506 0.02273 1.074 1.074 0 0 0 0.2211 0.02687h55.52v1.192a1.074 1.074 0 0 0 1.554 0.9589l6.791-3.393a1.074 1.074 0 0 0 0-1.922l-2.263-1.128-4.524-2.267a1.074 1.074 0 0 0-0.4236-0.1137h-0.002067a1.074 1.074 0 0 0-1.132 1.077v1.186h-52.28v-41.99h0.9961c0.8394-6e-5 1.383-0.8844 1.006-1.635l-2.12-4.239c3.1e-6 -0.0015 3.1e-6 -0.002633 0-0.004133l-1.06-2.12c-0.1913-0.3812-0.5818-0.6219-1.008-0.622z" fill="url(#a)"/>
</svg>
