<svg xmlns="http://www.w3.org/2000/svg" fill="none" viewBox="0 0 64 64"><defs><linearGradient id="a" x1="64" x2="64" y1="112" y2="16" gradientUnits="userSpaceOnUse"><stop offset="0" stop-color="#5570ff"/><stop offset="1" stop-color="#4dd3ff"/></linearGradient><linearGradient id="b" x1="70" x2="88.67" y1="35.79" y2="35.79" gradientUnits="userSpaceOnUse"><stop offset="0" stop-color="#a93aff"/><stop offset="1" stop-color="#ff81ff"/></linearGradient><linearGradient id="e" x1="70" x2="88.67" y1="63.79" y2="63.79" gradientUnits="userSpaceOnUse"><stop offset="0" stop-color="#a93aff"/><stop offset="1" stop-color="#ff81ff"/></linearGradient><linearGradient id="f" x1="70" x2="88.67" y1="91.79" y2="91.79" gradientUnits="userSpaceOnUse"><stop offset="0" stop-color="#a93aff"/><stop offset="1" stop-color="#ff81ff"/></linearGradient></defs><path fill="url(#a)" fill-rule="evenodd" d="M117.3 106.5V21.47c0-3.039-2.379-5.486-5.333-5.486h-96c-2.955 0-5.333 2.447-5.333 5.486v85.03c0 3.039 2.379 5.486 5.333 5.486h96c2.954 0 5.333-2.447 5.333-5.486m-4.333-81.69a4 4 0 0 0-4-4h-41a4 4 0 0 0-4 4v79.06a4 4 0 0 0 4 4h40.1c2.715 0 4.9-2.202 4.9-4.937v-78.12zm-82 14.89c0-.947-.767-1.714-1.714-1.714h-6.286a2 2 0 0 0-2 2v6.286a2 2 0 0 0 2 2H32.3a2 2 0 0 0 2-2v-3.19c0-.92-.746-1.667-1.667-1.667-.92 0-1.667-.746-1.667-1.667V39.7zm-1.714 18.86c.947 0 1.714.768 1.714 1.714v.048c0 .92.746 1.667 1.667 1.667.92 0 1.667.746 1.667 1.667v3.19a2 2 0 0 1-2 2h-9.333a2 2 0 0 1-2-2V60.56a2 2 0 0 1 2-2h6.286zm1.714 22.29c0-.947-.767-1.714-1.714-1.714h-6.286a2 2 0 0 0-2 2v6.286a2 2 0 0 0 2 2H32.3a2 2 0 0 0 2-2v-3.19c0-.92-.746-1.667-1.667-1.667-.92 0-1.667-.746-1.667-1.667v-.048z" clip-rule="evenodd" transform="matrix(.6 0 0 .6 -6.4 -6.4)"/><g opacity=".8"><path fill="url(#b)" d="M82 29a2 2 0 0 1 2 2v.667a2 2 0 0 0 2 2h.667a2 2 0 0 1 2 2V41a2 2 0 0 1-2 2h-14.67a2 2 0 0 1-2-2V31a2 2 0 0 1 2-2h10z" transform="matrix(.6 0 0 .6 -6.4 -6.4)"/><path fill="url(#e)" d="M82 57a2 2 0 0 1 2 2v.667a2 2 0 0 0 2 2h.667a2 2 0 0 1 2 2V69a2 2 0 0 1-2 2h-14.67a2 2 0 0 1-2-2V59a2 2 0 0 1 2-2h10z" transform="matrix(.6 0 0 .6 -6.4 -6.4)"/><path fill="url(#f)" d="M82 85a2 2 0 0 1 2 2v.667a2 2 0 0 0 2 2h.667a2 2 0 0 1 2 2V97a2 2 0 0 1-2 2h-14.67a2 2 0 0 1-2-2V87a2 2 0 0 1 2-2h10z" transform="matrix(.6 0 0 .6 -6.4 -6.4)"/></g></svg>