<svg version="1.1" viewBox="0 0 64 64" xmlns="http://www.w3.org/2000/svg" xmlns:xlink="http://www.w3.org/1999/xlink">
 <defs>
  <linearGradient id="c" x2="0" y2="1">
   <stop stop-color="#de87cd" offset="0"/>
   <stop stop-color="#fd5" offset="1"/>
  </linearGradient>
  <linearGradient id="a" x1="1" x2="0" y2="1">
   <stop stop-color="#fa00ff" offset="0"/>
   <stop stop-color="#f00" offset="1"/>
  </linearGradient>
  <linearGradient id="b" x1="1" x2="0" y2="1">
   <stop stop-color="#0061ff" offset="0"/>
   <stop stop-color="#60efff" offset="1"/>
  </linearGradient>
 </defs>
 <path transform="translate(.00115 -.00055) scale(.9999) matrix(.9354 0 0 .9354 2.068 19.47)" d="m9.367 16.39c-5.145 0-9.367 4.222-9.367 9.367v12.49c0 5.145 4.222 9.367 9.367 9.367h45.27c5.145 0 9.367-4.222 9.367-9.367v-12.49c0-5.145-4.222-9.367-9.367-9.367zm0 4.684h45.27c2.614 0 4.684 2.07 4.684 4.684v12.49c0 2.614-2.07 4.684-4.684 4.684h-45.27c-2.614 0-4.684-2.07-4.684-4.684v-12.49c0-2.614 2.07-4.684 4.684-4.684z" fill="url(#a)"/>
 <path transform="translate(.00115 -.00055) scale(.9999) matrix(.9354 0 0 .9354 2.068 19.47)" d="m32 24.98a2.342 2.342 0 0 0-2.342 2.342v0.6211l-0.543-0.3106a2.342 2.342 0 0 0-3.201 0.8594 2.342 2.342 0 0 0 0.8613 3.201l0.5352 0.3106-0.5352 0.3106a2.342 2.342 0 0 0-0.8613 3.201 2.342 2.342 0 0 0 3.201 0.8594l0.543-0.3106v0.6211a2.342 2.342 0 0 0 2.342 2.342 2.342 2.342 0 0 0 2.34-2.342v-0.6211l0.543 0.3106a2.342 2.342 0 0 0 3.201-0.8594 2.342 2.342 0 0 0-0.8613-3.201l-0.5352-0.3106 0.5352-0.3106a2.342 2.342 0 0 0 0.8613-3.201 2.342 2.342 0 0 0-3.201-0.8594l-0.543 0.3106v-0.6211a2.342 2.342 0 0 0-2.34-2.342z" fill="url(#a)"/>
 <path transform="translate(.00115 -.00055) scale(.9999) matrix(.9354 0 0 .9354 2.068 19.47)" d="m15.61 24.98a2.342 2.342 0 0 0-2.342 2.342v0.6211l-0.543-0.3106a2.342 2.342 0 0 0-3.201 0.8594 2.342 2.342 0 0 0 0.8613 3.201l0.5352 0.3106-0.5352 0.3106a2.342 2.342 0 0 0-0.8613 3.201 2.342 2.342 0 0 0 3.201 0.8594l0.543-0.3106v0.6211a2.342 2.342 0 0 0 2.342 2.342 2.342 2.342 0 0 0 2.34-2.342v-0.6211l0.543 0.3106a2.342 2.342 0 0 0 3.201-0.8594 2.342 2.342 0 0 0-0.8613-3.201l-0.5352-0.3106 0.5352-0.3106a2.342 2.342 0 0 0 0.8613-3.201 2.342 2.342 0 0 0-3.201-0.8594l-0.543 0.3106v-0.6211a2.342 2.342 0 0 0-2.34-2.342z" fill="url(#a)"/>
 <path transform="translate(.00115 -.00055) scale(.9999) matrix(.9354 0 0 .9354 2.068 19.47)" d="m32.9-20.81c-0.296 0.0045-0.7105 0.1209-1.305 0.3008-6.919 2.104-10.38 6.396-10.38 12.89v1.201l-0.7012 0.7148c-2.176 2.216-0.3961 5.778 5.41 10.84 0.8412 0.7324 0.83 0.5436 0.09375 1.543-2.014 2.737-3.094 3.313-6.434 3.414-1.752 0.05439-2.041 0.07867-2.436 0.2305-2.075 0.7931-1.882 4.137 0.2695 4.672l-2e-3 -0.0059c0.9551 0.2378 4.062 0.0385 5.228-0.3359 1.89-0.6059 3.075-1.445 5.436-3.84 2.111-2.142 1.877-2.029 4.104-1.986 2.096 0.04048 1.967-0.02975 4.246 2.285 3.057 3.104 4.44 3.804 7.736 3.918 3.236 0.1113 4.146-0.4217 4.146-2.436 0.0013-1.913-0.7279-2.414-3.66-2.51-3.293-0.1088-4.807-0.9202-6.611-3.549l-0.4551-0.666 1.305-1.291c5.543-5.494 6.737-8.159 4.631-10.34l-0.7383-0.7617v-0.8438c0-5.574-2.338-8.41-7.965-9.658l-1.002-0.2227-0.09375-1.434c-0.1044-1.608-0.175-2.143-0.8262-2.133zm-0.1445 5.611c0.1825 0.0062 0.1641 0.1438 0.1641 0.5352 1e-6 0.8311 0.04938 0.9074 0.6894 1.078 4.293 1.137 5.277 2.356 5.277 6.578 0.0025 2.136-0.0191 2.045 0.6172 2.418 0.7476 0.4377 0.9766 0.6507 0.9766 0.9062 0 0.9664-5.394 6.706-7.057 7.508-1.144 0.5515-2.122 0.4916-3.146-0.1953-1.299-0.869-5.796-5.444-6.408-6.516-0.5414-0.9487-0.4245-1.145 1.018-1.707l0.9316-0.3613 0.04297-2.326c0.09361-4.927 1.626-6.828 6.303-7.814 0.3008-0.06356 0.4823-0.1073 0.5918-0.1035z" fill="url(#c)"/>
 <path transform="translate(.00115 -.00055) scale(.9999)" d="m48.45 42.84v0.0023c-0.03266 0-0.06572 0.0019-0.09918 0.0058-0.6961 0.01374-1.406-0.03545-2.125 0.0082l-0.1365 0.0082-7e-3 0.04434c-0.1673 0.05975-0.3054 0.1627-0.3933 0.2906-0.1111 0.1625-0.1733 0.342-0.2241 0.489-0.07767 0.2139-0.09034 0.428-0.1202 0.6112-0.02868 0.1804-0.07283 0.324-0.1762 0.4399-0.2235 0.1739-0.4943 0.313-0.7642 0.4749a37.64 37.64 0 0 1-1.103-0.3968h-0.0023c-0.429-0.1542-0.9207-0.0052-1.175 0.3641v0.0012c-0.3286 0.4816-0.6112 0.9799-0.9159 1.458l-0.0012 0.0012v0.0012c-0.1577 0.2557-0.3783 0.6064-0.2439 0.9966 0.1087 0.3501 0.3589 0.5857 0.6058 0.7887 0.2354 0.1948 0.4637 0.3687 0.6196 0.5695 0.02629 0.2247 0.0029 0.4745 0.0035 0.7421-0.3107 0.322-0.7307 0.5803-1.069 0.9649l-0.0058 0.0058c-0.1601 0.2014-0.1932 0.4419-0.1634 0.6572 0.02987 0.2151 0.1165 0.4138 0.1996 0.5835l0.0035 0.0059c0.2748 0.5036 0.5618 1.003 0.8669 1.491 0.227 0.3979 0.7182 0.5842 1.164 0.4796h0.0012c0.4284-0.1046 0.8233-0.268 1.216-0.4072 0.2784 0.1446 0.5497 0.31 0.8215 0.4785 0.1189 0.4899 0.1973 1.007 0.3933 1.512l0.0012 0.0012c0.1028 0.2509 0.3355 0.3434 0.4598 0.4306l0.04668 0.03268 0.05601-0.0012c0.7815-0.02151 1.576 0.01985 2.375-0.0059h0.01633l0.01633-0.0035c0.4123-0.0944 0.6799-0.3822 0.8263-0.7074 0.1434-0.3185 0.1849-0.6752 0.1867-0.9847 0.03167-0.2683-0.1282-0.4984-0.3361-0.6196-0.2067-0.1207-0.483-0.1503-0.7128-0.0105-0.2211 0.1243-0.3194 0.3397-0.3618 0.5344-0.03226 0.1464-0.04279 0.2703-0.05951 0.3886-0.4439 0-0.8867 0.0018-1.328-0.0012a16.13 16.13 0 0 0-0.23-0.9919l-0.0012-0.0023v-0.0023c-0.1284-0.4344-0.5003-0.7105-0.8603-0.8939-0.291-0.1547-0.587-0.3968-0.9847-0.4948l-7e-3 -0.0012c-0.6297-0.1243-1.147 0.1959-1.622 0.3548-0.2187-0.3967-0.4513-0.7815-0.665-1.167 0.3005-0.245 0.6411-0.4794 0.91-0.812 0.334-0.4003 0.2457-0.9016 0.2661-1.266 0.0239-0.4063-0.02665-0.8807-0.3583-1.228v-0.0012c-0.2605-0.2707-0.5514-0.4917-0.8239-0.7224 0.2384-0.3704 0.4631-0.7439 0.6943-1.11 0.4141 0.1195 0.8574 0.3847 1.408 0.3501 0.3704-0.01792 0.6525-0.2232 0.8974-0.3618l0.0023-0.0023c0.3507-0.2103 0.7899-0.4194 1.029-0.8472v-0.0012c0.2031-0.3609 0.2875-0.7534 0.3431-1.134 0.439 0.0032 0.8765 0.0036 1.315 0.0012 0.08484 0.334 0.1547 0.6769 0.2509 1.022l0.0012 0.0082 0.0023 0.0058c0.1297 0.3507 0.396 0.584 0.6781 0.7618 0.2821 0.1778 0.5877 0.3132 0.8311 0.4679l0.0059 0.0035 7e-3 0.0047c0.3782 0.1972 0.7636 0.1564 1.109 0.05601 0.3023-0.08843 0.5785-0.2076 0.8401-0.2859 0.2151 0.3884 0.4402 0.7636 0.6548 1.142-0.3824 0.3376-0.9321 0.6393-1.123 1.246l-0.0047 0.01517-0.0023 0.01634a7.17 7.17 0 0 0-0.02334 1.331l0.0023 0.014c0.05975 0.3746 0.2808 0.6536 0.5263 0.8843 0.2115 0.1978 0.4348 0.3642 0.6303 0.5333-0.2354 0.3794-0.4646 0.7588-0.7062 1.125-0.2342-0.09858-0.4812-0.2228-0.7863-0.2521h-0.0012c-0.5485-0.05377-0.9488 0.6094-0.6106 1.038 0.141 0.1906 0.3399 0.2884 0.5263 0.3571 0.1874 0.06823 0.3705 0.1136 0.5111 0.1797 0.4463 0.2229 1.065 0.1704 1.369-0.2777l0.0012-0.0012c0.3686-0.5533 0.7068-1.121 1.048-1.684l0.0047-7e-3c0.178-0.2689 0.2333-0.6297 0.06184-0.9345-0.1464-0.3065-0.3971-0.5092-0.6303-0.6931-0.2241-0.178-0.4219-0.3443-0.5438-0.5438-0.0036-0.2653-0.01461-0.5189 0.03618-0.7373 0.3047-0.3238 0.7648-0.5686 1.083-1.005 0.1547-0.2061 0.1674-0.4509 0.1213-0.6584-0.04601-0.2076-0.1424-0.3943-0.2159-0.5496l-0.0047-0.0093a25.09 25.09 0 0 0-0.8753-1.494c-0.239-0.4009-0.748-0.5435-1.18-0.4329-0.42 0.1004-0.8018 0.263-1.183 0.3933-0.2838-0.1547-0.5628-0.301-0.7994-0.4796-0.1291-0.337-0.1418-0.7421-0.2918-1.156a1.177 1.177 0 0 0-0.3898-0.5788 0.956 0.956 0 0 0-0.5999-0.2194z" fill="url(#b)" stroke-width=".5975"/>
 <path transform="translate(.00115 -.00055) scale(.9999)" d="m47.62 46.46-0.0105 0.0047a2.958 2.958 0 0 0-3.106 2.879 2.958 2.958 0 0 0 2.981 3.021 2.931 2.931 0 0 0 2.955-2.955 2.958 2.958 0 0 0-2.818-2.95zm-0.14 1.363h0.0093a1.546 1.546 0 0 1 1.586 1.585v0.01167a1.546 1.546 0 0 1-1.586 1.585h-0.0093a1.546 1.546 0 0 1-1.586-1.585v-0.01167a1.546 1.546 0 0 1 1.586-1.585z" fill="url(#b)" stroke-width=".5975"/>
</svg>
