<svg version="1.1" viewBox="0 0 64 64" xmlns="http://www.w3.org/2000/svg">
 <defs>
  <linearGradient id="a" y1="1">
   <stop stop-color="#0006ff" offset="0"/>
   <stop stop-color="#00d2ff" offset="1"/>
  </linearGradient>
  <linearGradient id="c" x1="1" x2="0" y2="1">
   <stop stop-color="#fd00fd" offset="0"/>
   <stop stop-color="#8511be" offset=".5"/>
   <stop stop-color="#2530b2" offset="1"/>
  </linearGradient>
  <linearGradient id="b" x1="-137.8" x2="-152.2" y1="45.65" y2="58.78" gradientTransform="matrix(.8559 0 0 .9275 158.1 -22.43)" gradientUnits="userSpaceOnUse">
   <stop stop-color="#f0f" offset="0"/>
   <stop stop-color="#ff0080" offset="1"/>
  </linearGradient>
 </defs>
 <path transform="translate(0) scale(1) translate(0) scale(1) translate(0) scale(1) translate(0) scale(1) translate(-.000765 .00079) scale(1) matrix(.9999 0 0 .9999 .009375 -.00209)" d="m49.07 7.117-34.14 0.00586c-3.982 0-6.469-0.1848-9.106 1.16-2.006 1.022-3.644 2.66-4.664 4.664-1.345 2.64-1.16 5.127-1.16 9.107v19.91c0 3.982-0.1837 6.467 1.16 9.102 1.021 2.003 2.655 3.64 4.664 4.664 2.638 1.344 5.121 1.16 9.096 1.16h34.15c3.974 0 6.458 0.1833 9.096-1.16 2.008-1.023 3.644-2.658 4.664-4.664 1.344-2.637 1.16-5.123 1.16-9.098v-19.93c0-3.974 0.1841-6.454-1.16-9.096-1.024-2.011-2.663-3.642-4.664-4.662-2.638-1.344-5.12-1.16-9.102-1.16zm-34.14 7.115v2e-3h34.13c3.982 0 5.469 0.1827 5.871 0.3887 0.6721 0.3424 1.218 0.8836 1.557 1.549 0.2041 0.4006 0.3887 1.9 0.3887 5.873v19.93c0 3.974-0.1837 5.462-0.3887 5.863-0.3399 0.6672-0.8891 1.215-1.557 1.555-0.4021 0.2049-1.893 0.3887-5.865 0.3887h-34.15c-3.974 0-5.475-0.1845-5.873-0.3887-0.6647-0.3386-1.206-0.8822-1.549-1.555-0.2059-0.4038-0.3887-1.89-0.3887-5.871v-19.91c0-3.982 0.1838-5.485 0.3887-5.887 0.3412-0.6697 0.8786-1.208 1.549-1.549 0.4017-0.2048 1.906-0.3887 5.887-0.3887z" fill="url(#c)"/>
 <path transform="translate(0) scale(1) translate(0) scale(1) translate(0) scale(1) translate(0) scale(1) translate(-.000765 .00079) scale(1) matrix(.9999 0 0 .9999 .009375 -.00209)" d="m11.21 41.49c-1.232 0-2.26 1.029-2.26 2.262v0.1738c0 1.232 1.027 2.262 2.26 2.262h41.57c1.232 0 2.26-1.029 2.26-2.262v-0.1738c0-1.232-1.027-2.262-2.26-2.262z" fill="url(#a)"/>
 <path transform="translate(0) scale(1) translate(0) scale(1) translate(0) scale(1) translate(0) scale(1) translate(-.000765 .00079) scale(1) matrix(.9999 0 0 .9999 .009375 -.00209)" d="m20.32 38.72c-2.809 0-5.113 2.306-5.113 5.115s2.304 5.113 5.113 5.113 5.115-2.304 5.115-5.113-2.306-5.115-5.115-5.115z" fill="url(#a)"/>
 <path transform="translate(0) scale(1) translate(0) scale(1) translate(0) scale(1) translate(0) scale(1) translate(-.000765 .00079) scale(1)" d="m27.28 19.26c-1.785 0.02552-3.411 1.459-3.411 3.459v10.92c0 2.666 2.891 4.327 5.194 2.984l9.362-5.464c2.284-1.332 2.284-4.631 0-5.963l-9.362-5.464c-0.5758-0.3357-1.189-0.4834-1.784-0.475z" fill="url(#b)" stroke-width=".7093"/>
</svg>
