<svg xmlns="http://www.w3.org/2000/svg" xmlns:xlink="http://www.w3.org/1999/xlink" viewBox="0 0 64 64"><defs><linearGradient id="a" x1="1" x2="0" y2="1"><stop offset="0" stop-color="#fe3661"/><stop offset=".331" stop-color="#c723c7"/><stop offset=".55" stop-color="#aa35d6"/><stop offset="1" stop-color="#1ea3fd"/></linearGradient><linearGradient xlink:href="#a" id="c" x1="16.13" x2="41.28" y1="51.15" y2="22.31" gradientTransform="scale(1.06 .9434)" gradientUnits="userSpaceOnUse"/><linearGradient xlink:href="#a" id="b" x1="9.612" x2="49.88" y1="53.03" y2="16.43" gradientTransform="scale(.9998 1)" gradientUnits="userSpaceOnUse"/></defs><path fill="url(#b)" d="m33.08.018.004.002c-5.172-.176-10.3.9-14.96 3.135a2.783 2.783 0 0 0-1.295 3.713 2.795 2.795 0 0 0 3.713 1.309 26.3 26.3 0 0 1 12.35-2.6 26.36 26.36 0 0 1 11.75 3.213c1.35.737 3.044.24 3.78-1.11a2.79 2.79 0 0 0-1.11-3.78A31.94 31.94 0 0 0 33.072.019zM11.8 7.488a2.783 2.783 0 0 0-.189 5.564 2.78 2.78 0 0 0 2.873-2.688A2.78 2.78 0 0 0 11.8 7.489m41.46 1.415a2.783 2.783 0 0 0-2.877 2.684 2.782 2.782 0 1 0 2.877-2.684M6.44 15.089a2.75 2.75 0 0 0-2.447 1.432A31.9 31.9 0 0 0 .022 30.9c-.13 3.81.422 7.615 1.621 11.23.488 1.46 2.066 2.25 3.523 1.762s2.243-2.065 1.754-3.518a26.6 26.6 0 0 1-1.34-9.287 26.4 26.4 0 0 1 3.273-11.87 2.78 2.78 0 0 0-1.09-3.781 2.8 2.8 0 0 0-1.324-.35zm51.78 1.082.002.002a2.777 2.777 0 0 0-2.576 4.027 26.5 26.5 0 0 1 2.752 12.69 26.1 26.1 0 0 1-2.209 9.707 2.783 2.783 0 1 0 5.1 2.234 31.9 31.9 0 0 0 2.67-11.75 31.9 31.9 0 0 0-3.344-15.37 2.78 2.78 0 0 0-2.394-1.54zM9.8 47.47a2.783 2.783 0 0 0-.189 5.563A2.782 2.782 0 0 0 9.8 47.47m44.54 1.52a2.787 2.787 0 0 0-2.877 2.686 2.787 2.787 0 0 0 2.688 2.877 2.784 2.784 0 0 0 .189-5.563m-37.2 5.3a2.783 2.783 0 0 0-1.555 5.166 32.1 32.1 0 0 0 15.34 4.519 31.97 31.97 0 0 0 17.05-4.248 2.783 2.783 0 0 0 1.022-3.801 2.8 2.8 0 0 0-3.809-1.025 26.3 26.3 0 0 1-14.08 3.514 26.3 26.3 0 0 1-12.66-3.73 2.77 2.77 0 0 0-1.309-.393z" transform="translate(.006)"/><path fill="url(#c)" d="M23.06 16.43c-2.008.008-3.945.043-5.959.043-1.651 0-2.98 1.328-2.98 2.978s1.33 2.98 2.98 2.98h.992v19.86h-.992c-1.651 0-2.98 1.328-2.98 2.978s1.33 2.98 2.98 2.98h7.945c1.651 0 2.978-1.33 2.978-2.98s-1.328-2.978-2.978-2.978h-.994v-13.4l5.227 11.64c1.052 2.35 4.387 2.35 5.438 0l5.227-11.64v13.4h-.994c-1.651 0-2.978 1.328-2.978 2.978s1.328 2.98 2.978 2.98h7.945c1.65 0 2.98-1.33 2.98-2.98s-1.33-2.978-2.98-2.978h-.992v-19.86h.992c1.65 0 2.98-1.33 2.98-2.98s-1.33-2.978-2.98-2.978c-2.014.02-3.97-.043-5.96-.043a2.98 2.98 0 0 0-2.718 1.758l-6.22 13.85-6.218-13.85a2.98 2.98 0 0 0-2.72-1.758z" transform="translate(.006)"/></svg>