<svg xmlns="http://www.w3.org/2000/svg" style="isolation:isolate" viewBox="0 0 64 64"><linearGradient id="a" x1="-.014" x2="1.016" y1=".01" y2="1.072" gradientTransform="matrix(46 0 0 46 1 1)" gradientUnits="userSpaceOnUse" transform="translate(-1.391 -1.391)scale(1.391)"><stop offset="0" stop-color="#f9d423"/><stop offset=".516" stop-color="#ff4e50"/><stop offset=".991" stop-color="#8a2387"/></linearGradient><path fill="url(#a)" fill-rule="evenodd" d="M13.97 7.87c-.938.58-2.175.29-2.76-.645s-.298-2.17.64-2.755a23.01 23.01 0 0 1 23.28-.6 2.002 2.002 0 0 1-1.94 3.5A18.9 18.9 0 0 0 24 5c-3.55 0-7.02.99-10.03 2.87M7.29 33.05a1.997 1.997 0 1 1-3.51 1.91A22.9 22.9 0 0 1 1 24c0-2.92.55-5.81 1.63-8.51a2.002 2.002 0 0 1 3.72 1.48C5.45 19.2 5 21.59 5 24c0 3.16.79 6.27 2.29 9.05m25.52 7.78c.977-.508 2.187-.127 2.7.85a2 2 0 0 1-.84 2.7A23 23 0 0 1 24 47c-3.58 0-7.12-.83-10.32-2.44a2.004 2.004 0 0 1 1.8-3.58A18.94 18.94 0 0 0 24 43c3.07 0 6.09-.74 8.81-2.17m9-23.47c-.386-1.032.14-2.184 1.175-2.57s2.189.142 2.575 1.18C46.51 18.54 47 21.26 47 24c0 3.62-.85 7.2-2.5 10.43a2 2 0 0 1-3.56-1.82C42.3 29.94 43 26.99 43 24c0-2.27-.4-4.51-1.19-6.64M7.29 39.11a2 2 0 1 1 4.001.001 2 2 0 0 1-4.001-.001m30.28-28.77a2 2 0 1 1 4.001.001 2 2 0 0 1-4.001-.001m-32.04 0a2 2 0 1 0 4.001-.001 2 2 0 0 0-4.001.001m31.58 28.77a2 2 0 1 0 4.001-.001 2 2 0 0 0-4.001.001M13.85 15.17v17.66h5.298v-9.713l4.857 4.415 4.857-4.415v9.713h5.298V15.17h-5.298l-4.857 4.415-4.857-4.415z" transform="translate(-1.391 -1.391)scale(1.391)"/></svg>