<svg xmlns="http://www.w3.org/2000/svg" style="isolation:isolate" viewBox="0 0 64 64"><linearGradient id="a" x2="1" y1=".5" y2=".5" gradientTransform="matrix(46 0 0 46 1 1)" gradientUnits="userSpaceOnUse" transform="translate(-1.391 -1.391)scale(1.391)"><stop offset="0" stop-color="#00ffd8"/><stop offset=".983" stop-color="#00ffb8"/></linearGradient><path fill="url(#a)" fill-rule="evenodd" d="M1 24C1 11.31 11.31 1 24 1a22.9 22.9 0 0 1 9.139 1.89C35.453 3.894 41.154 1.331 43 3c1.799 1.626-.214 6.882 1 9 1.928 3.364 3 7.848 3 12 0 12.69-10.31 23-23 23S1 36.69 1 24m5 0c0-4.77 1.9-9.35 5.27-12.73C14.65 7.9 19.23 6 24 6s9.35 1.9 12.73 5.27C40.1 14.65 42 19.23 42 24s-1.9 9.35-5.27 12.73C33.35 40.1 28.77 42 24 42s-9.35-1.9-12.73-5.27A18.04 18.04 0 0 1 6 24" transform="translate(-1.391 -1.391)scale(1.391)"/><linearGradient id="c" x2=".907" y1=".5" y2=".92" gradientTransform="matrix(33 0 0 33 7.5 7.5)" gradientUnits="userSpaceOnUse" transform="translate(-1.391 -1.391)scale(1.391)"><stop offset="0" stop-color="#00c4ff"/><stop offset=".839" stop-color="#0072ff"/></linearGradient><path fill="url(#c)" fill-rule="evenodd" d="M7.5 24c0-9.107 7.393-16.5 16.5-16.5S40.5 14.893 40.5 24 33.107 40.5 24 40.5 7.5 33.107 7.5 24m5 0c0-3.05 1.21-5.98 3.37-8.13 2.15-2.16 5.08-3.37 8.13-3.37s5.98 1.21 8.13 3.37c2.16 2.15 3.37 5.08 3.37 8.13s-1.21 5.98-3.37 8.13c-2.15 2.16-5.08 3.37-8.13 3.37s-5.98-1.21-8.13-3.37A11.47 11.47 0 0 1 12.5 24" transform="translate(-1.391 -1.391)scale(1.391)"/></svg>