<svg version="1.1" viewBox="0 0 64 64" xmlns="http://www.w3.org/2000/svg">
 <defs>
  <linearGradient id="a" x2="0" y1="1">
   <stop stop-color="#00fffa" offset="0"/>
   <stop stop-color="#0078ff" offset="1"/>
  </linearGradient>
  <linearGradient id="b" x2="0" y1="1">
   <stop stop-color="#fff762" offset="0"/>
   <stop stop-color="#ffd800" offset="1"/>
  </linearGradient>
 </defs>
 <path transform="translate(0) scale(1) matrix(1.362 0 0 1.362 -.6809 -.685)" d="m2.851 4.077c-1.302 0-2.351 0.91-2.351 2.044v32.7c0 1.359 0.543 2.657 1.493 3.617a5.15 5.15 0 0 0 3.617 1.491h36.78a5.15 5.15 0 0 0 3.617-1.491 5.15 5.15 0 0 0 1.493-3.617v-32.7c0-1.133-1.049-2.044-2.351-2.044zm0.715 4.087h40.87v30.65a2.04 2.04 0 0 1-2.044 2.044h-8.174v-2.044a2.04 2.04 0 0 0-2.044-2.044h-16.35a2.04 2.04 0 0 0-2.044 2.044v2.044h-8.174a2.04 2.04 0 0 1-2.044-2.044z" fill="url(#a)"/>
 <path transform="translate(0) scale(1)" d="m40.48 30.96a3.588 3.588 0 0 0-2.683 1.148l-5.841 5.829-5.841-5.829a3.588 3.588 0 0 0-5.068 5.068l8.375 8.369a3.588 3.588 0 0 0 5.062 0l8.375-8.369a3.588 3.588 0 0 0-2.379-6.216z" fill="url(#b)" stroke-width="3.045"/>
 <path transform="translate(0) scale(1)" d="m40.48 13.02a3.588 3.588 0 0 0-2.683 1.148l-5.841 5.835-5.841-5.835a3.588 3.588 0 0 0-5.068 0 3.588 3.588 0 0 0 0 5.068l8.375 8.375a3.588 3.588 0 0 0 5.062 0l8.375-8.375a3.588 3.588 0 0 0-2.379-6.216z" fill="url(#b)" stroke-width="3.045"/>
</svg>
