<svg xmlns="http://www.w3.org/2000/svg" viewBox="0 0 64 64"><defs><linearGradient id="c" x2="0" y1="1"><stop offset="0" stop-color="#fd5900"/><stop offset="1" stop-color="#ffde00"/></linearGradient><linearGradient id="a" y1=".5" y2=".5"><stop offset="0" stop-color="#5558ff"/><stop offset="1" stop-color="#00c0ff"/></linearGradient><linearGradient id="d" x2="0" y2="1"><stop offset="0" stop-color="#d300dc"/><stop offset="1" stop-color="#8700ff"/></linearGradient></defs><path fill="url(#a)" d="M173.4 62.68c-7.716.265-15.7 3.809-20.84 9.668-4.987 5.686-7.018 10.67-7.018 17.24v5.277l-37.11 36.56a34 34 0 0 1 8.785 3.602l6.394-6.256a3.864 3.864 0 0 1 5.398 0l6.277 6.143a3.67 3.67 0 0 1 0 5.283l-6.394 6.258a32.5 32.5 0 0 1 3.197 6.947c2.122-2.025 4.297-4.111 6.498-6.238 29.99-28.98 30.4-29.32 36.14-30.08 13.99-1.845 23.62-10.28 26.39-23.13.878-4.072-.247-11.87-1.711-11.87-.524 0-4.85 3.619-9.615 8.041-4.764 4.422-9.34 8.041-10.17 8.041-3.759 0-13.43-9.513-13.43-13.21 0-1.07 3.91-6.15 8.69-11.3 8.18-8.815 8.538-9.411 6.025-10.12-2.398-.676-4.942-.95-7.514-.861z" transform="translate(-23.627 -26.78)scale(.4343)"/><path fill="url(#c)" d="M96 62.7c-4.417.032-9.156 2.204-11.72 5.861-.985 1.407-1.791 4.858-1.791 7.67 0 5.037.237 5.347 16.3 21.57 8.964 9.052 16.9 16.46 17.64 16.46s1.918-.691 2.617-1.535l-.006-.006c.996-1.202-2.26-5.045-15.05-17.76-13.07-13-16.04-16.51-14.88-17.66 1.151-1.152 3.206.269 10.31 7.139 26.33 25.44 24.01 23.6 26.68 21.2 2.382-2.158 2.367-2.178-13.73-18.32-8.862-8.887-16.11-16.58-16.11-17.09 0-2.488 4.57 1.016 18.85 14.46 8.557 8.055 16.28 14.65 17.16 14.65.883 0 1.909-.795 2.281-1.766.465-1.215-4.188-6.498-14.91-16.94-8.576-8.347-16.7-15.81-18.06-16.57-1.64-.93-3.582-1.358-5.59-1.344zm64.86 71.25-3.045 3.049-3.047 3.049 8.818 8.883c4.863 4.897 9.368 10.56 10.04 12.62 1.175 3.604 7.051 8.42 19.11 15.66l4.119 2.475 2.445-2.606h-.004l2.443-2.606-6.822-10.3c-5.655-8.535-7.609-10.59-11.42-12.02-2.527-.948-8.654-5.433-13.62-9.967z" transform="translate(-23.627 -26.78)scale(.4343)"/><path fill="url(#d)" d="M95.53 118.8c-2.116 0-3.82 1.669-3.82 3.74v8.852a34 34 0 0 0-9.025 3.662l-6.393-6.256a3.867 3.867 0 0 0-5.4 0l-6.275 6.143a3.67 3.67 0 0 0 0 5.283l6.393 6.258a32.5 32.5 0 0 0-3.742 8.832h-9.045c-2.116 0-3.82 1.667-3.82 3.738v8.699c0 2.071 1.704 3.74 3.82 3.74h9.045a32.5 32.5 0 0 0 3.742 8.832l-6.393 6.258a3.67 3.67 0 0 0 0 5.283l6.275 6.143a3.867 3.867 0 0 0 5.4 0l6.393-6.258a34 34 0 0 0 9.025 3.664v8.852c0 2.071 1.704 3.738 3.82 3.738h8.889c2.116 0 3.82-1.667 3.82-3.738v-8.852a34 34 0 0 0 9.025-3.664l6.394 6.258a3.864 3.864 0 0 0 5.398 0l6.277-6.143a3.67 3.67 0 0 0 0-5.283l-6.394-6.258a32.5 32.5 0 0 0 3.744-8.832h9.045c2.116 0 3.82-1.669 3.82-3.74v-8.699c0-2.071-1.704-3.738-3.82-3.738h-9.045a32.5 32.5 0 0 0-3.744-8.832l6.394-6.258a3.67 3.67 0 0 0 0-5.283l-6.277-6.143a3.864 3.864 0 0 0-5.398 0l-6.394 6.256a34 34 0 0 0-9.025-3.662v-8.852c0-2.071-1.704-3.74-3.82-3.74zm4.441 19.03c14.25 0 26.02 11.45 26.02 25.57s-11.77 25.57-26.02 25.57-26.02-11.45-26.02-25.57 11.77-25.57 26.02-25.57m0 10.24c-8.835 0-15.78 6.865-15.78 15.33s6.944 15.34 15.78 15.34 15.78-6.867 15.78-15.34-6.946-15.33-15.78-15.33" transform="translate(-23.627 -26.78)scale(.4343)"/></svg>