<svg xmlns="http://www.w3.org/2000/svg" viewBox="0 0 64 64"><defs><linearGradient id="a" x1="1" x2="0" y1=".5" y2=".5"><stop offset="0" stop-color="#00f260"/><stop offset="1" stop-color="#0575e6"/></linearGradient></defs><path fill="url(#a)" d="M0 1.066v4.266h2.133V9.6c0 2.844 1.778 5.334 4.623 5.334H16V6.045c0-2.924-2.408-4.964-5.332-4.978zm1.066 1.066h9.602c2.352 0 4.266 1.56 4.266 3.912v7.822H6.756c-2.134 0-3.557-2.135-3.557-4.268v-3.91c0-1.054-.41-1.422-1.422-1.422h-.71zm3.555 1.066v7.111c0 1.422 1.068 2.133 2.135 2.133h4.977c1.182 0 1.779-.593 1.779-1.775V6.044c0-.888-.914-1.424-1.779-1.424-.523 0-.915.235-1.254.582-.339-.347-.71-.582-1.234-.582-.937 0-1.777.549-1.777 1.424v3.555h1.066V6.4c0-.442.27-.71.71-.71.443 0 .712.268.712.71v3.199h1.066V6.4c0-.442.27-.71.71-.71.443 0 .712.268.712.71v4.268c0 .591-.12.71-.711.71H6.756c-.712 0-1.066-.712-1.066-1.423V3.199z" transform="scale(4)"/></svg>