<svg xmlns="http://www.w3.org/2000/svg" viewBox="0 0 64 64"><defs><linearGradient id="a" x2="0" y2="1"><stop offset="0" stop-color="#00efff"/><stop offset="1" stop-color="#07f"/></linearGradient></defs><path fill="url(#a)" d="M182.2-372c-13.22 0-24.4 4.514-33.52 13.59-9.12 9.087-13.67 20.23-13.67 33.4v96.02c0 26.03 9.141 48.21 27.46 66.52 18.31 18.32 40.49 27.46 66.52 27.46h502c26.31 0 48.71-9.141 67.23-27.46 18.51-18.31 27.77-40.49 27.77-66.52v-96.02c0-13.17-4.708-24.31-14.1-33.4-9.393-9.08-20.68-13.59-33.83-13.59-13.16 0-24.28 4.514-33.4 13.59-9.12 9.087-13.67 20.23-13.67 33.4v96.02h-502v-96.02c0-13.17-4.477-24.31-13.48-33.4-9-9.08-20.11-13.59-33.32-13.59z" transform="translate(-12.505 75.626)scale(.09262)"/><path fill="url(#a)" d="M480.2-807c-5.833 0-11.78 1.323-17.89 4.023a55.8 55.8 0 0 0-16.33 10.98l-160 161c-9.333 10-14.22 21.5-14.61 34.45-.393 12.95 4.365 24.1 14.22 33.48 9.593 9.38 20.57 14.1 32.97 14.1s23.22-4.69 32.42-14.02l81.99-81.99v276c0 13.17 4.477 24.28 13.48 33.36 9 9.087 20.11 13.63 33.32 13.63 13.22 0 24.4-4.546 33.52-13.63 9.12-9.08 13.67-20.19 13.67-33.36v-276l81.99 81.02c9.333 9.333 20.45 14.17 33.32 14.53s24.24-4.478 34.1-14.53c9.073-8.667 13.59-19.5 13.59-32.5s-4.651-24.18-13.98-33.52l-162-162c-4.733-4.607-10.05-8.283-16.02-10.98-5.967-2.7-11.89-4.023-17.73-4.023z" transform="translate(-12.505 75.626)scale(.09262)"/></svg>