<svg xmlns="http://www.w3.org/2000/svg" viewBox="0 0 64 64"><defs><linearGradient id="a" x2="0" y1="1"><stop offset="0" stop-color="#15ff74"/><stop offset="1" stop-color="#009cc3"/></linearGradient></defs><path fill="url(#a)" d="M32.01-.002A16.01 16.01 0 0 0 16 16.008a.534.534 0 0 1-.533.533H9.33a9.45 9.45 0 0 0-9.336 9.336v23.48a14.8 14.8 0 0 0 14.67 14.67h34.68a14.8 14.8 0 0 0 14.67-14.67v-23.48a9.45 9.45 0 0 0-9.328-9.336h-6.137a.534.534 0 0 1-.533-.533 16.01 16.01 0 0 0-16.01-16.01zm.004 8.006a8 8 0 0 1 8.002 8.002.534.534 0 0 1-.533.533h-14.94a.534.534 0 0 1-.535-.533 8 8 0 0 1 8.004-8.002zm-22.67 16.54h5.527c.63 0 1.143.51 1.143 1.143v2.324a4.004 4.004 0 0 0 4 4.002 4.004 4.004 0 0 0 4.002-4.002v-2.324c0-.632.512-1.143 1.143-1.143h13.72c.632 0 1.144.51 1.144 1.143v2.324a4.004 4.004 0 0 0 4 4.002 4.004 4.004 0 0 0 4.002-4.002v-2.324c0-.632.512-1.143 1.143-1.143h5.527a1.257 1.257 0 0 1 1.334 1.332v23.48h-.006a6.605 6.605 0 0 1-6.668 6.668h-34.68a6.605 6.605 0 0 1-6.668-6.668v-23.48a1.26 1.26 0 0 1 1.334-1.332z" transform="translate(.01 .002)scale(.9995)"/><path fill="url(#a)" d="m31.98 27.6-.004.002a2.6 2.6 0 0 0-1.934.781 2.6 2.6 0 0 0-.771 1.934v14.99l-4.736-4.728a2.72 2.72 0 0 0-1.902-.75 2.42 2.42 0 0 0-1.852.803q-.808.748-.807 1.87c0 1.124.268 1.418.807 1.997l9.293 9.297q.402.4.89.61.495.196 1.012.199.52-.004 1.01-.2a3 3 0 0 0 .897-.61l9.356-9.355a2.62 2.62 0 0 0 .808-1.906q-.001-1.09-.808-1.902a2.32 2.32 0 0 0-1.875-.772 2.83 2.83 0 0 0-1.94.772l-4.728 4.674v-14.99a2.6 2.6 0 0 0-.781-1.934 2.6 2.6 0 0 0-1.934-.781z" transform="translate(.01 .002)scale(.9995)"/></svg>