<svg xmlns="http://www.w3.org/2000/svg" viewBox="0 0 64 64"><defs><linearGradient id="a" y2="1"><stop offset="0" stop-color="#80e5ff"/><stop offset="1" stop-color="#00bdff"/></linearGradient></defs><path fill="url(#a)" d="M192 55.83c-48.85 0-91.02 28.31-111.6 69.22-45.58 10.6-79.68 51.27-79.68 100 0 56.78 46.35 103.1 103.1 103.1h187.3c50.7 0 92.11-41.42 92.11-92.1 0-43.41-30.3-79.84-70.91-89.42-15.01-52.37-63.32-90.82-120.3-90.82zm0 30h.001c46.31 0 84.73 33.12 93.38 76.73l2.13 10.74 10.87 1.248c30.99 3.559 54.87 29.46 54.87 61.53 0 34.48-27.63 62.1-62.11 62.1h-187.3a72.9 72.9 0 0 1-73.12-73.12c0-36.86 26.93-66.66 62.25-71.92l8.323-1.238 3.281-7.752c14.47-34.19 47.89-58.31 87.4-58.31z" transform="translate(-.12 -.121)scale(.1673)"/><path fill="url(#a)" d="M141.6 144.7a16.95 16.95 0 0 0-4.944 32.95c15.09 5.49 21.69 17.69 21.84 29.45s-4.95 21.99-20.66 26.44a16.95 16.95 0 1 0 9.234 32.62c29.22-8.272 45.64-34.28 45.32-59.48s-16.19-50.71-44.15-60.88a16.95 16.95 0 0 0-6.648-1.093z" transform="translate(-.12 -.121)scale(.1673)"/><path fill="url(#a)" d="M209.6 122.2a16.95 16.95 0 0 0-8.906 31.74c13.02 7.515 23.15 28.48 23.6 50.93.454 22.45-8.114 43.19-23.6 52.13a16.95 16.95 0 1 0 16.95 29.36c29.46-17.01 41.19-50.76 40.55-82.18-.636-31.42-12.98-63.68-40.55-79.6a16.95 16.95 0 0 0-8.042-2.38z" transform="translate(-.12 -.121)scale(.1673)"/></svg>