<svg xmlns="http://www.w3.org/2000/svg" fill="none" viewBox="0 0 64 64"><defs><linearGradient id="a" x1="42" x2="42" y1="3" y2="23" gradientUnits="userSpaceOnUse"><stop offset="0" stop-color="#f75050"/><stop offset="1" stop-color="#a00909"/></linearGradient><linearGradient id="b" x1="32" x2="32" y1="61" y2="13" gradientUnits="userSpaceOnUse"><stop offset="0" stop-color="#5570ff"/><stop offset="1" stop-color="#4dd3ff"/></linearGradient><linearGradient id="d" x1="12.8" x2="27.2" y1="48.79" y2="48.79" gradientUnits="userSpaceOnUse"><stop offset="0" stop-color="#a93aff"/><stop offset="1" stop-color="#ff81ff"/></linearGradient></defs><path fill="url(#a)" d="M52 13a10.001 10.001 0 1 1-20.002-.001A10.001 10.001 0 0 1 52 13" transform="translate(-3.31 -3.31)scale(1.103)"/><path fill="url(#b)" d="M32 13C18.74 13 8 23.74 8 37s10.74 24 24 24 24-10.74 24-24-10.74-24-24-24m-4.292 12.68c9.016 0 16.39 7.277 16.39 16.29 0 9.016-7.374 16.39-16.39 16.39s-16.29-7.374-16.29-16.39 7.277-16.29 16.29-16.29" transform="translate(-3.31 -3.31)scale(1.103)"/><path fill="url(#d)" d="M27.2 49a7.2 7.2 0 0 1-7.2 7.2 7.2 7.2 0 1 1 7.2-7.2" transform="translate(-3.31 -3.31)scale(1.103)"/></svg>