<svg xmlns="http://www.w3.org/2000/svg" viewBox="0 0 64 64"><defs><linearGradient id="a" x1="1" x2="0" y1="1"><stop offset="0" stop-color="#00a660"/><stop offset="1" stop-color="#00ff69"/></linearGradient></defs><path fill="url(#a)" d="M24.18 7.984c-1.491.018-4.224.205-7.131 1.17-2.173.721-4.622 1.923-6.656 4.164S7.004 18.892 7.004 22.5s1.355 6.938 3.385 9.182c2.03 2.243 4.474 3.452 6.644 4.18 3.968 1.33 7.616 1.21 8.215 1.18l.016-.002 6.734-.039.039-.016.039.016 6.904-.041a6 6 0 0 0 .406-.018s2.182-.075 3.977.57c.897.324 1.52.742 1.898 1.212.379.47.742 1.057.742 2.777 0 .974-.102.912-.344 1.152-.241.24-.928.654-1.91.927-1.963.547-4.36.438-4.36.438a6 6 0 0 0-.442-.018h-20.79a5.5 5.5 0 0 0-5.5 5.5 5.5 5.5 0 0 0 5.5 5.5h20.57c.872.062 4.262.21 7.977-.824 2.157-.6 4.61-1.624 6.723-3.728s3.58-5.418 3.58-8.947c0-3.804-1.206-7.234-3.182-9.684s-4.493-3.848-6.734-4.654c-3.873-1.393-7.445-1.262-8.35-1.2h-.03L32.014 26l-.04.016-.038-.016-6.904.041a6 6 0 0 0-.24.008s-2.323.03-4.259-.62c-.968-.324-1.662-.77-1.986-1.128-.324-.359-.539-.575-.539-1.801s.215-1.434.535-1.787 1.008-.797 1.975-1.117c1.932-.641 4.254-.604 4.254-.604a6 6 0 0 0 .293.008h20.44a5.5 5.5 0 0 0 5.5-5.5 5.5 5.5 0 0 0-5.5-5.5h-20.29a17 17 0 0 0-1.037-.015z" transform="translate(-3.337 -3.313)scale(1.10453)"/><path fill="url(#a)" d="M31.46 3a2.5 2.497 0 0 0-2.463 2.533v20.47h5V5.533A2.5 2.497 0 0 0 31.46 3m-2.463 34v21.47a2.5 2.497 0 0 0 5 0V37z" transform="translate(-3.337 -3.313)scale(1.10453)"/></svg>