<svg xmlns="http://www.w3.org/2000/svg" style="isolation:isolate" viewBox="0 0 64 64"><linearGradient id="a" x1=".544" x2=".52" y1=".99" y2=".016" gradientTransform="scale(48)" gradientUnits="userSpaceOnUse" transform="scale(1.333)"><stop offset="0" stop-color="#ffe031"/><stop offset=".987" stop-color="#fc5252"/></linearGradient><path fill="url(#a)" fill-rule="evenodd" d="M4.923 30H11V13l13 13 13-13v17h6.079A20.006 20.006 0 0 0 24 4 20.006 20.006 0 0 0 4 24c0 2.053.317 4.075.923 6m35.78 5h-8.706V25l-8 8-8-8v10h-8.7a20.006 20.006 0 0 0 16.7 9c3.82 0 7.56-1.1 10.78-3.15A20.1 20.1 0 0 0 40.703 35m5.844-2.78.08.03-.6 1.31-.56 1.35-.07-.03a24.1 24.1 0 0 1-8.85 9.58A24.07 24.07 0 0 1 23.997 48c-6.36 0-12.47-2.53-16.97-7.03S-.003 30.36-.003 24s2.53-12.47 7.03-16.97S17.637 0 23.997 0s12.47 2.53 16.97 7.03a24.01 24.01 0 0 1 5.58 25.19c-.1.28-.21.56-.32.84l-.2.5-.24.51-.39.81h-.01z" transform="scale(1.333)"/></svg>