<svg xmlns="http://www.w3.org/2000/svg" viewBox="0 0 64 64"><defs><linearGradient id="a" y1=".5" y2=".5"><stop offset="0" stop-color="#757f9a"/><stop offset=".987" stop-color="#d7dde8"/></linearGradient><linearGradient id="c" y1=".5" y2=".5"><stop offset="0" stop-color="#00c4ff"/><stop offset=".839" stop-color="#0072ff"/></linearGradient></defs><path fill="url(#a)" d="M19.36 14c-3.817 0-8.356 3.506-8.356 8.893 0 4.222 1.776 7.889 3.197 11.28l4.783-1.988c-1.98-3.18-4.096-6.623-3.947-9.832.141-3.039 2.84-4.976 5.438-4.641 1.752.226 2.844.995 3.543 1.838s.986 1.808 1.023 2.356c.026.402-.135 1.316-.603 2.01-.468.695-1.16 1.221-2.418 1.162-.9-.042-1.527-.3-1.955-.71-.43-.41-.691-1-.75-1.833v-.004c-.037-.485.18-.982.615-1.297s1.097-.476 2.045-.17c.237.077.61.014.802-.193s.223-.43.221-.62a1.3 1.3 0 0 0-.508-1.022c-.414-.332-.953-.456-1.553-.496a5.1 5.1 0 0 0-1.912.246c-1.295.429-2.542 1.564-2.533 3.408.015 3.285 2.663 5.54 5.303 5.562h.002c2.573.013 4.257-1.05 5.172-2.477.914-1.428 1.462-3.167 1.211-4.543-.76-4.17-4.728-6.924-8.82-6.924z" transform="translate(-27.09 -27.21)scale(2.462)"/><path fill="url(#c)" d="m33.84 13.93-4.615 1.912s1.75 3.155 2.559 4.754c1.455 3.02 2.057 6.294-.262 8.576-2.396 1.749-5.596 1.564-7.512-.682-.71-.858-1.01-1.837-1.043-2.404-.026-.426.05-1.424.62-2.066 1.407-1.586 3.053-1.646 4.501-.464 1.207.985 1.144 2.429.123 3.262-.438.357-1.153.497-2.123.185-.216-.07-.547-.011-.716.174s-.197.384-.194.559c.005.348.158.696.48.957.393.314.91.441 1.499.48s1.246-.03 1.883-.24c1.273-.423 2.484-1.522 2.477-3.332-.014-3.237-2.627-5.458-5.221-5.475-2.55-.016-4.201 1.029-5.102 2.434-.901 1.404-1.088 3.107-.996 4.49.109 1.644 1.156 3.327 2.699 4.63S26.505 34 28.73 34c3.763 0 8.27-3.568 8.27-8.905 0-4.094-1.543-8.45-3.16-11.16z" transform="translate(-27.09 -27.21)scale(2.46175)"/></svg>