<svg xmlns="http://www.w3.org/2000/svg" fill="none" viewBox="0 0 64 64"><defs><linearGradient id="a" x1="51.25" x2="51.25" y1="115" y2="38.5" gradientUnits="userSpaceOnUse"><stop offset="0" stop-color="#9000ff"/><stop offset="1" stop-color="#f0f"/></linearGradient><linearGradient id="b" x1="72.35" x2="72.35" y1="70.49" y2="37.11" gradientUnits="userSpaceOnUse"><stop offset="0" stop-color="#ffbef9"/><stop offset="1" stop-color="#fff1ff"/></linearGradient><linearGradient id="d" x1="88.3" x2="88.3" y1="69.06" y2="13" gradientUnits="userSpaceOnUse"><stop offset="0" stop-color="#fd2e00"/><stop offset="1" stop-color="#fff500"/></linearGradient></defs><path fill="url(#a)" fill-rule="evenodd" stroke="url(#a)" stroke-width="4" d="M88.68 39.31a2.78 2.78 0 0 1 .574 3.104l-31.52 70.93c-.22.497-.58.918-1.037 1.211a2.78 2.78 0 0 1-3.055-.023 2.78 2.78 0 0 1-1.018-1.227l-11.37-26.56-26.56-11.38a2.785 2.785 0 0 1-1.24-4.07 2.8 2.8 0 0 1 1.207-1.036l70.93-31.52a2.79 2.79 0 0 1 3.098.574h.006z" clip-rule="evenodd" transform="translate(-6.598 -6.652)scale(.6039)"/><path fill="url(#b)" d="M86.72 69.49c0 .551-.446 1-.997.983a29.4 29.4 0 0 1-8.262-1.456.974.974 0 0 1-.601-1.264l1.019-2.814c.188-.52.763-.786 1.29-.618a24.7 24.7 0 0 0 6.55 1.154 1.03 1.03 0 0 1 1 1.02z" transform="translate(-6.598 -6.652)scale(.6039)"/><path fill="url(#b)" d="M68.6 62.91a.973.973 0 0 1-1.392.11 28.8 28.8 0 0 1-5.18-6.112.974.974 0 0 1 .35-1.362l2.433-1.4a1.033 1.033 0 0 1 1.38.353 24 24 0 0 0 4.102 4.846c.411.372.469 1.006.11 1.43z" transform="translate(-6.598 -6.652)scale(.6039)"/><path fill="url(#b)" d="M59.41 47.15a.973.973 0 0 1-1.131-.807 28.2 28.2 0 0 1-.009-8.261.973.973 0 0 1 1.13-.81l3.12.513c.551.09.92.616.842 1.17a23.5 23.5 0 0 0 .008 6.503 1.034 1.034 0 0 1-.84 1.172z" transform="translate(-6.598 -6.652)scale(.6039)"/><path stroke="url(#b)" stroke-width="4" d="M86.72 69.49c0 .551-.446 1-.997.983a29.4 29.4 0 0 1-8.262-1.456.974.974 0 0 1-.601-1.264l1.019-2.814c.188-.52.763-.786 1.29-.618a24.7 24.7 0 0 0 6.55 1.154 1.03 1.03 0 0 1 1 1.02z" transform="translate(-6.598 -6.652)scale(.6039)"/><path stroke="url(#b)" stroke-width="4" d="M68.6 62.91a.973.973 0 0 1-1.392.11 28.8 28.8 0 0 1-5.18-6.112.974.974 0 0 1 .35-1.362l2.433-1.4a1.033 1.033 0 0 1 1.38.353 24 24 0 0 0 4.102 4.846c.411.372.469 1.006.11 1.43z" transform="translate(-6.598 -6.652)scale(.6039)"/><path stroke="url(#b)" stroke-width="4" d="M59.41 47.15a.973.973 0 0 1-1.131-.807 28.2 28.2 0 0 1-.009-8.261.973.973 0 0 1 1.13-.81l3.12.513c.551.09.92.616.842 1.17a23.5 23.5 0 0 0 .008 6.503 1.034 1.034 0 0 1-.84 1.172z" transform="translate(-6.598 -6.652)scale(.6039)"/><path fill="url(#d)" fill-rule="evenodd" stroke="url(#d)" stroke-width="4" d="M77.72 14.46a.975.975 0 0 0-.607 1.279l1.023 2.72c.191.51.755.77 1.276.608a26 26 0 0 1 6.702-1.153 1.03 1.03 0 0 0 .999-1.019v-2.892a.976.976 0 0 0-1.001-.984c-2.853.095-5.678.58-8.392 1.442zm24.69 8.408c-.356.437-1 .492-1.442.144a23.5 23.5 0 0 0-5.445-3.208 1.034 1.034 0 0 1-.588-1.289l.951-2.7a.97.97 0 0 1 1.285-.589 28.2 28.2 0 0 1 6.887 4.073.974.974 0 0 1 .135 1.377zm-40.35 3.864a.975.975 0 0 0 .339 1.305l3.065 1.932v.001q.003.003.005 0a24.1 24.1 0 0 1 4.295-5.84c.367-.366.419-.948.103-1.359l-1.639-2.13a.97.97 0 0 0-1.455-.111 28.8 28.8 0 0 0-4.713 6.202zm49.32 10.66a1.03 1.03 0 0 1-1.184-.809 24 24 0 0 0-2.14-5.94 1.034 1.034 0 0 1 .375-1.366l2.333-1.386a.973.973 0 0 1 1.363.373 28.9 28.9 0 0 1 2.69 7.494.973.973 0 0 1-.789 1.152zm-24.75 14.21c5.377 0 9.736-4.359 9.736-9.736s-4.359-9.736-9.736-9.736-9.736 4.359-9.736 9.736 4.359 9.736 9.736 9.736zm10.58 17.1a.973.973 0 0 1-1.278-.577l-.979-2.662c-.19-.518.076-1.09.585-1.303a24 24 0 0 0 5.531-3.23 1.033 1.033 0 0 1 1.424.133l1.83 2.165a.974.974 0 0 1-.128 1.395 28.8 28.8 0 0 1-6.985 4.078zm10.85-16.29c-.25.487-.088 1.09.384 1.366l2.36 1.377a.974.974 0 0 0 1.359-.38 28.8 28.8 0 0 0 2.665-7.518.973.973 0 0 0-.797-1.148l-2.676-.47a1.033 1.033 0 0 0-1.179.815 24 24 0 0 1-2.116 5.958z" clip-rule="evenodd" transform="translate(-6.598 -6.652)scale(.6039)"/></svg>