<svg xmlns="http://www.w3.org/2000/svg" viewBox="0 0 64 64"><defs><linearGradient id="b" y2="1"><stop offset="0" stop-color="#8d01a2"/><stop offset="1" stop-color="#ff00d2"/></linearGradient><linearGradient id="d" y1="1"><stop offset="0" stop-color="#fe0844"/><stop offset="1" stop-color="#feb302"/></linearGradient><linearGradient id="a" x1="1" x2="0" y1="1"><stop offset="0" stop-color="#fd5900"/><stop offset="1" stop-color="#ffde00"/></linearGradient></defs><path fill="url(#a)" d="M32 0C14.43 0 0 14.42 0 32c0 17.57 14.42 32 32 32s32-14.43 32-32S49.57 0 32 0m0 5.754c14.41 0 26.24 11.83 26.24 26.24S46.41 58.234 32 58.234 5.76 46.404 5.76 31.994 17.59 5.754 32 5.754"/><path fill="url(#b)" d="M32.52 26.66c-3.234 0-5.867 2.631-5.867 5.865s2.633 5.867 5.867 5.867 5.867-2.633 5.867-5.867-2.633-5.865-5.867-5.865m0 3.734a2.135 2.135 0 1 1 0 4.266 2.135 2.135 0 0 1 0-4.266"/><path fill="url(#d)" d="M40.4 10.66v.004a2.004 2.004 0 0 0-.785 3.842 20.1 20.1 0 0 1 6.357 4.287 20.1 20.1 0 0 1 4.293 6.359 2 2 0 1 0 3.684-1.557c-1.207-2.856-2.938-5.421-5.148-7.63s-4.772-3.935-7.631-5.147a2 2 0 0 0-.77-.158zm-7.881 7.869c-7.717 0-14 6.278-14 14s6.28 14 14 14 14-6.28 14-14-6.28-14-14-14m-.135 3.865c5.512 0 10 4.485 10 10s-4.485 10-10 10a10.01 10.01 0 0 1-10-10 10.01 10.01 0 0 1 10-10m-19.2 14.41q-.394 0-.775.16a2.007 2.007 0 0 0-1.062 2.621 24 24 0 0 0 5.146 7.63 24 24 0 0 0 7.635 5.15 2 2 0 0 0 1.559-3.685 20.1 20.1 0 0 1-6.36-4.293 20.1 20.1 0 0 1-4.292-6.357 2.01 2.01 0 0 0-1.844-1.223z"/></svg>