<svg version="1.1" viewBox="0 0 64 64" xmlns="http://www.w3.org/2000/svg">
 <defs>
  <linearGradient id="a" y1="1">
   <stop stop-color="#008cfe" offset="0"/>
   <stop stop-color="#03effe" offset=".5"/>
   <stop stop-color="#6eff6e" offset="1"/>
  </linearGradient>
  <linearGradient id="c" y1="1">
   <stop stop-color="#007bf6" offset="0"/>
   <stop stop-color="#d60cff" offset=".5"/>
   <stop stop-color="#ff167a" offset="1"/>
  </linearGradient>
  <linearGradient id="b" x1="1" x2="0" y2="1">
   <stop stop-color="#ff6540" offset="0"/>
   <stop stop-color="#ff00f0" offset=".5"/>
   <stop stop-color="#5f26ff" offset="1"/>
  </linearGradient>
 </defs>
 <path transform="translate(0) scale(1) translate(-1e-6) scale(1) translate(-.000591 -.00079) scale(.9997) matrix(1.044 0 0 1.044 -1.407 -1.407)" d="m32.54 1.354c-2.13-0.07957-4.177 0.7023-6.213 2.047-2.036 1.344-4.151 3.265-6.682 5.775v-0.00195l-1.627 1.609a1.868 1.868 0 0 0 1.51 3.184c1.574-0.1644 3.508-0.2246 5.83-0.2246h13.29c2.522 0 4.591 0.07424 6.232 0.2715a1.868 1.868 0 0 0 1.557-3.162l-0.7695-0.7832c-5.286-5.395-8.863-8.554-13.12-8.713a1.868 1.868 0 0 0-0.0098 0zm-0.1426 3.734a1.868 1.868 0 0 0 0.01367 0c1.789 0.06752 4.379 1.94 7.699 4.982-0.5288-0.0076-0.8944-0.06445-1.461-0.06445h-13.29c-0.398 0-0.6591 0.03543-1.039 0.03906 1.439-1.326 2.966-2.805 4.062-3.529 1.649-1.088 2.858-1.472 4.016-1.428zm20.87 13.59a1.868 1.868 0 0 0-0.7461 0.1777 1.868 1.868 0 0 0-1.059 1.896c0.1809 1.607 0.248 3.609 0.248 6.029v10.44c0 2.367-0.0658 4.331-0.2383 5.92a1.868 1.868 0 0 0 3.172 1.525c4.92-4.882 7.855-8.359 7.869-12.53 0.0146-4.171-2.875-7.761-7.854-12.9a1.868 1.868 0 0 0-1.393-0.5664zm-42.51 0.1289v0.0098a1.868 1.868 0 0 0-1.389 0.5391c-4.919 4.881-7.851 8.354-7.863 12.52-0.01315 4.17 2.878 7.759 7.856 12.9a1.868 1.868 0 0 0 3.197-1.51c-0.1824-1.61-0.248-3.616-0.248-6.045v-10.44c0-2.357 0.06173-4.316 0.2324-5.9a1.868 1.868 0 0 0-1.049-1.883 1.868 1.868 0 0 0-0.7363-0.1836zm-2.146 7.045c-0.00287 0.3422-0.03711 0.5724-0.03711 0.9297v10.44c0 0.349 0.03632 0.5676 0.03906 0.9023-2.048-2.568-3.376-4.701-3.371-6.236 0.00485-1.538 1.332-3.588 3.369-6.041zm46.8 0.04102c2.047 2.566 3.375 4.702 3.369 6.238-0.0054 1.539-1.334 3.59-3.371 6.043 0.0031-0.3493 0.03906-0.5842 0.03906-0.9492v-10.44c0-0.3428-0.03444-0.5597-0.03711-0.8887zm-36.56 24.08 0.0039 2e-3a1.868 1.868 0 0 0-1.301 3.176l0.7871 0.8008c5.286 5.396 8.864 8.554 13.12 8.713 2.13 0.07971 4.18-0.701 6.217-2.045 2.038-1.344 4.154-3.264 6.688-5.773a1.868 1.868 0 0 0 0-2e-3l1.646-1.631a1.868 1.868 0 0 0-1.51-3.186c-1.578 0.1663-3.524 0.2305-5.856 0.2305h-13.29c-2.531 0-4.604-0.07263-6.248-0.2715a1.868 1.868 0 0 0-0.2559-0.01367zm5.033 3.957c0.5338 0.0079 0.9023 0.06641 1.475 0.06641h13.29c0.4079 0 0.674-0.03907 1.062-0.04297-1.45 1.337-2.984 2.824-4.088 3.551-1.65 1.088-2.861 1.47-4.02 1.426-1.794-0.06715-4.389-1.944-7.721-5z" fill="url(#c)"/>
 <path transform="translate(0) scale(1) translate(-1e-6) scale(1) translate(-.000591 -.00079) scale(.9997) matrix(1.044 0 0 1.044 -1.407 -1.407)" d="m25.36 10c-6.617 0-10.89 0.3291-13.68 3.109-2.784 2.78-3.111 7.052-3.111 13.67v10.44c0 6.612 0.3247 10.88 3.109 13.67 2.784 2.78 7.065 3.107 13.68 3.107h13.29c6.617 0 10.89-0.3272 13.68-3.107 2.784-2.78 3.111-7.054 3.111-13.67v-10.44c0-6.612-0.3276-10.88-3.111-13.67-2.784-2.78-7.063-3.107-13.68-3.107zm0 3.736h13.29c6.441 0 9.627 0.603 11.04 2.014s2.018 4.59 2.018 11.02v10.44c0 6.432-0.6059 9.608-2.02 11.02s-4.6 2.018-11.04 2.018h-13.29c-6.441 0-9.627-0.605-11.04-2.016-1.414-1.412-2.016-4.588-2.016-11.02v-10.44c0-6.432 0.6021-9.61 2.016-11.02 1.414-1.412 4.601-2.014 11.04-2.014z" fill="url(#a)"/>
 <path transform="translate(0) scale(1) translate(-1e-6) scale(1) translate(-.000591 -.00079) scale(.9997) matrix(1.044 0 0 1.044 -1.407 -1.407)" d="m28.32 20.65 0.01953 0.02148a0.7628 0.7628 0 0 0-0.03711-2e-3l0.01758-0.01563c-2.619-0.09335-4.828 1.936-5.207 4.574h2e-3c-0.2492 1.726-0.4608 3.979-0.4609 6.672-0.0056 2.201 0.1503 4.395 0.4531 6.572a0.7628 0.7628 0 0 0 2e-3 0.0293 0.7628 0.7628 0 0 0 0.0059 0.07813c0.2324 1.609 1.097 3.016 2.41 3.836a0.7628 0.7628 0 0 0 2e-3 0.0039c1.297 0.8069 2.951 0.9591 4.486 0.3945a0.7628 0.7628 0 0 0 0.08789-0.02734 0.7628 0.7628 0 0 0 0.0059 0c1.515-0.5869 3.506-1.482 6.088-2.857 2.469-1.313 4.391-2.483 5.857-3.465 1.605-1.074 2.545-2.785 2.545-4.559s-0.9397-3.491-2.545-4.566c-1.467-0.9806-3.387-2.15-5.858-3.463a0.7628 0.7628 0 0 0 0-2e-3c-2.585-1.373-4.574-2.265-6.088-2.854a0.7628 0.7628 0 0 0-0.0059 0l-0.06055-0.01367c-0.5659-0.2116-1.146-0.3369-1.721-0.3574zm-0.2617 4.068v2e-3a0.7628 0.7628 0 0 0 0.0059 2e-3c0.02751-0.0012 0.06699-0.0015 0.1113 0 0.122 0.0044 0.2764 0.03217 0.457 0.1016 1.336 0.5178 3.189 1.342 5.654 2.65 2.357 1.253 4.156 2.357 5.504 3.256 0.6118 0.4089 0.7402 0.7805 0.7402 1.176s-0.1295 0.7701-0.7402 1.178c-1.344 0.8982-3.144 1.997-5.504 3.25-2.464 1.31-4.317 2.137-5.652 2.654-0.5083 0.1966-0.6974 0.1338-0.9531-0.02539-0.2311-0.144-0.4508-0.4014-0.5332-0.961-0.2847-2.018-0.4252-4.056-0.4199-6.094a0.7628 0.7628 0 0 0 0-2e-3c7e-6 -0.0029 7e-6 -0.0049 0-0.0078 1.26e-4 -2.48 0.1937-4.535 0.418-6.09 0.06506-0.4503 0.2098-0.7112 0.3555-0.8594 0.1442-0.1466 0.301-0.2172 0.5566-0.2305z" fill="url(#b)"/>
</svg>
