<svg xmlns="http://www.w3.org/2000/svg" viewBox="0 0 64 64"><defs><linearGradient id="c" y1=".5" y2=".5"><stop offset="0" stop-color="#1d61ff"/><stop offset="1" stop-color="#f0f"/></linearGradient><linearGradient id="a" y2="1"><stop offset="0" stop-color="#ec0eb4"/><stop offset="1" stop-color="#f766d2"/></linearGradient></defs><path fill="url(#a)" d="M27.71 23.42v.002q-.066 0-.13.002l-.015.012c-.37.024-.725.208-.949.504-.226.3-.328.682-.328 1.106v13.89c0 .614.235 1.17.707 1.445.473.274 1.072.2 1.606-.104v-.002l12.19-6.963c.533-.304.899-.782.899-1.328s-.366-1.024-.899-1.328l-12.19-6.963a1.94 1.94 0 0 0-.89-.273z" transform="translate(.004 .011)"/><path fill="url(#c)" d="M32.02 13.99v.002c-6.261 0-12.1 3.253-15.37 8.592a17.93 17.93 0 0 0-2.652 9.381 18.1 18.1 0 0 0 4.19 11.58 1.51 1.51 0 0 0 2.119.19 1.5 1.5 0 0 0 .184-2.114 15.06 15.06 0 0 1-3.494-9.652c0-2.753.765-5.458 2.213-7.812a15.04 15.04 0 0 1 12.81-7.162 14.9 14.9 0 0 1 7.81 2.213 15.04 15.04 0 0 1 7.162 12.81c0 2.751-.767 5.458-2.213 7.812a15.04 15.04 0 0 1-12.81 7.16c-1.574 0-3.143-.245-4.643-.74a1.498 1.498 0 1 0-.928 2.848c1.8.592 3.682.893 5.57.893 6.26 0 12.1-3.252 15.37-8.592a17.94 17.94 0 0 0 2.654-9.381c0-6.261-3.253-12.1-8.592-15.37a17.93 17.93 0 0 0-9.381-2.652z" transform="translate(.004 .011)"/><path fill="url(#c)" d="M32.03 0C20.9 0 10.53 5.784 4.72 15.28A31.9 31.9 0 0 0 .001 31.96c0 11.13 5.784 21.5 15.28 27.31a31.86 31.86 0 0 0 16.68 4.719c11.13 0 21.5-5.786 27.31-15.28a31.86 31.86 0 0 0 4.719-16.68 32.15 32.15 0 0 0-7.451-20.58 2.69 2.69 0 0 0-3.768-.334 2.666 2.666 0 0 0-.326 3.76 26.8 26.8 0 0 1 6.213 17.15c0 4.892-1.361 9.706-3.934 13.89a26.74 26.74 0 0 1-22.77 12.73 26.53 26.53 0 0 1-13.89-3.934 26.74 26.74 0 0 1-12.73-22.77 26.53 26.53 0 0 1 3.932-13.89 26.74 26.74 0 0 1 22.77-12.73c2.799 0 5.586.44 8.252 1.32a2.664 2.664 0 0 0 3.36-1.707 2.666 2.666 0 0 0-1.706-3.359 31.7 31.7 0 0 0-9.904-1.586z" transform="translate(.004 .011)"/></svg>