<svg version="1.1" viewBox="0 0 64 64" xmlns="http://www.w3.org/2000/svg">
 <defs>
  <linearGradient id="a" y1="1">
   <stop stop-color="#0357d1" offset="0"/>
   <stop stop-color="#27cdfc" offset="1"/>
  </linearGradient>
 </defs>
 <path transform="translate(-.00622 -.000113) scale(1) translate(1.227 -.9267) scale(1.029)" d="m56.34 15.56-2e-3 0.0039c-0.1814-0.0034-0.379 0.01985-0.5762 0.04687h-2e-3c-7.4e-4 -7e-6 -5e-3 4.9e-5 -0.0059 0h-2e-3c-0.04568 0.0052-0.08657 0.0029-0.1328 0.0098 0.01603-0.0026 0.03088-0.0062 0.04687-0.0078h0.01563c0.02362-0.0021 0.0466-0.0019 0.07031-2e-3 -5.806 5e-6 -11.62-1.4e-5 -17.42 0a1.768 1.768 0 0 0-1.765 1.766v9.934a1.768 1.768 0 0 0 0.8359 1.504c1.081 0.6695 2.159 1.389 3.297 2.018a1.768 1.768 0 0 0 1.604 0.05273c1.239-0.582 2.138-1.374 3.168-1.986a1.768 1.768 0 0 0 0.08594-0.05664c4.414-2.976 8.828-5.951 13.24-8.928a1.768 1.768 0 0 0 0.7012-1.994c-0.05378-0.1727-0.2105-1.097-1.119-1.719-0.6298-0.4316-1.309-0.625-2.037-0.6406zm1.584 7.754 0.0039 0.0039-2e-3 2e-3a1.768 1.768 0 0 0-0.8945 0.2949c-5.09 3.376-10.16 6.769-15.25 10.12-0.2526 0.0121-0.5168-0.06859-0.8789-0.3242-0.4525-0.3195-0.7846-0.6921-1.512-1.072-0.01337-0.0095-0.02895-0.01838-0.04492-0.0293a1.768 1.768 0 0 0-2.766 1.459c-7.26e-4 4.265-0.0033 8.529-0.0039 12.79a1.768 1.768 0 0 0 1.77 1.768c6.014-0.01413 12.04 0.0433 18.07-0.0332a1.768 1.768 0 0 0 0.2227-0.01563c1.096-0.153 2.092-0.928 2.58-1.766 0.5261-0.9037 0.7001-1.882 0.5586-2.902-2.7e-5 -6.18 6.7e-5 -12.36 0-18.53a1.768 1.768 0 0 0-0.9316-1.559 1.768 1.768 0 0 0-0.9199-0.207z" fill="url(#a)"/>
 <path transform="translate(-.00622 -.000113) scale(1) matrix(1.029 0 0 1.029 1.227 -.9267)" d="m35.32 0.9043c-0.1107-0.005677-0.223-0.004374-0.3359 0.001953h-2e-3c-0.1436 0.008053-0.2884 0.02536-0.4296 0.05273-10.66 2.062-21.32 4.124-31.97 6.186a1.419 1.419 0 0 0-0.00195 0c-1.489 0.29-2.579 1.614-2.578 3.131v42.93c-7.758e-5 1.5 1.066 2.813 2.533 3.121a1.419 1.419 0 0 0 0.00195 0c10.65 2.235 21.32 4.472 31.97 6.707 1.949 0.4082 3.838-1.128 3.84-3.119v-55.83c-6.89e-4 -1.696-1.368-3.098-3.027-3.184zm-3.348 7.047v48.04c-8.537-1.789-17.07-3.581-25.6-5.371v-37.71c8.538-1.651 17.07-3.301 25.6-4.951z" fill="url(#a)"/>
 <path transform="translate(-.00622 -.000113) scale(1) matrix(1.029 0 0 1.029 1.227 -.9267)" d="m19.46 20.17c-0.04102 0.0011-0.1195 4e-3 -0.2031 0.0078h-2e-3c-2.787 0.03527-5.425 1.359-7.106 3.602-0.0068 9e-3 -0.01476 0.01829-0.02149 0.02734a1.419 1.419 0 0 0-0.01172 0.01758 1.419 1.419 0 0 0-0.01953 0.02344v2e-3a1.419 1.419 0 0 0-0.02148 0.0293c-2.846 3.957-3.201 9.066-1.613 13.38 1.308 3.738 4.939 6.784 9.367 6.438 4.508-0.1371 7.576-3.657 8.656-7.191v-2e-3l2e-3 -2e-3h2e-3v-2e-3c0.9688-3.14 0.9664-6.612-0.1973-9.803-1.162-3.386-4.209-6.362-8.277-6.518h-2e-3c-0.1903-0.0072-0.3733-0.0067-0.5488-2e-3h-2e-3a1.419 1.419 0 0 0-0.0039-2e-3zm0.1562 5.701a1.419 1.419 0 0 0 2e-3 0c0.06022-0.0016 0.1178-0.0024 0.1777 0a1.419 1.419 0 0 0 2e-3 0c1.256 0.04785 2.617 1.236 3.107 2.68l2e-3 2e-3c0.0056 0.01712 0.01164 0.03376 0.01758 0.05078a1.419 1.419 0 0 0 0.0059 0.02344c0.7038 1.913 0.7257 4.19 0.1094 6.186l0.0098-0.02734a1.419 1.419 0 0 0-0.01172 0.03906c-0.5265 1.728-1.916 3.155-3.416 3.182a1.419 1.419 0 0 0-0.0039 0c-0.06754 0.0013-0.1339 0.0037-0.2012 0.0098-1.487 0.1338-3.028-1.083-3.576-2.658l-2e-3 -2e-3v-0.0039a1.419 1.419 0 0 0-0.01953-0.05273c-0.9783-2.634-0.6909-5.892 0.8906-8.09h2e-3c0.5962-0.7978 1.648-1.327 2.652-1.328 0.05271 1.85e-4 0.1036-0.0012 0.1562-0.0039a1.419 1.419 0 0 0 0.01563 0c0.01304-8.07e-4 0.03997-0.0028 0.08008-0.0039a1.419 1.419 0 0 0 0-2e-3z" fill="url(#a)"/>
</svg>
