<svg style="isolation:isolate" version="1.1" viewBox="0 0 64 64" xmlns="http://www.w3.org/2000/svg">
 <defs>
  <linearGradient id="b" x1="30.47" x2="128" y1="120.7" y2="69.41" gradientUnits="userSpaceOnUse">
   <stop stop-color="#00f1fa" offset="0"/>
   <stop stop-color="#006cff" offset="1"/>
  </linearGradient>
  <linearGradient id="c" x1="28" x2="52" y1="63.78" y2="63.78" gradientUnits="userSpaceOnUse">
   <stop stop-color="#9033dd" offset="0"/>
   <stop stop-color="#ff69ff" offset="1"/>
  </linearGradient>
 </defs>
 <linearGradient id="a" transform="translate(0) scale(1) translate(0 -5e-4) scale(1) matrix(.5 0 0 .5 0 .02)" x2=".5" y1=".235" y2="1" gradientTransform="matrix(0 -113.5 128 0 0 120.7)" gradientUnits="userSpaceOnUse">
  <stop stop-color="#00f1fa" offset="0"/>
  <stop stop-color="#006cff" offset="1"/>
 </linearGradient>
 <path transform="translate(0) scale(1) translate(0 -5e-4) scale(1) matrix(.5 0 0 .5 0 .02)" d="M14.35 120.7C6.431 120.7 0 114.27 0 106.35V21.57C0 13.651 6.43 7.22 14.35 7.22h99.3q.743 0 1.466.073c7.231.736 12.88 6.85 12.88 14.27v12.67a4.84 4.84 0 0 1-.479 2.104q-.232.486-.563.919-.33.431-.744.8a6 6 0 0 1-.902.66 6.6 6.6 0 0 1-2.179.813 7 7 0 0 1-1.228.11q-.63-.002-1.17-.13a4.3 4.3 0 0 1-1.812-.902 4.6 4.6 0 0 1-.656-.682 5.4 5.4 0 0 1-1.124-3.19c-.013-1.966.011-5.402 0-8.103 0-1.781-.73-3.438-1.893-4.812a10 10 0 0 0-1.296-1.274 11.4 11.4 0 0 0-3.195-1.845 11 11 0 0 0-1.768-.502 9.5 9.5 0 0 0-1.792-.176h-86.4c-4.753 0-9.943 3.858-9.943 8.61v74.65c0 4.75 5.19 8.606 9.943 8.606h49.68c3.366 0 6.094 2.423 6.094 5.405s-2.728 5.402-6.094 5.402zm83.56 0c-3.366 0-6.094-2.421-6.094-5.402s2.728-5.405 6.094-5.405h9.295c4.753 0 9.943-3.857 9.943-8.607v-42.73c0-2.4 1.396-5.401 4.762-5.401 3.456-.3 6.094.848 6.094 5.401v47.8c0 7.919-6.428 14.35-14.35 14.35z" fill="url(#a)" style="isolation:isolate"/>
 <path transform="translate(0) scale(1) translate(0 -5e-4) scale(1) matrix(.5 0 0 .5 0 .02)" d="M69.38 80.78c-.192.009-.39.011-.61.014-.762.008-1.828.006-2.82.527l-.001-.004-.024.014-.014.006.002.002c-1.79.897-2.882 3.013-2.908 5.094h-.002l.002.02-.002.015h.002c-.055 1.55.521 3.059 1.438 4.152.894 1.065 2.216 1.84 3.703 1.715v.002c6.423.021 12.85.016 19.27.012q4.124-.004 8.244-.004c1.532.182 2.92-.553 3.863-1.641a6.13 6.13 0 0 0 1.46-4.318h.003l-.002-.028v-.025h-.004a6.04 6.04 0 0 0-1.598-3.977c-.932-.996-2.243-1.644-3.664-1.545v-.008c-4.543-.024-9.089-.019-13.63-.014-4.224.005-8.444.009-12.66-.01h-.025z" fill="url(#b)"/>
 <g transform="translate(0) scale(1) translate(0 -5e-4) scale(1)" stroke-linecap="round" stroke-linejoin="round">
  <path d="m17 22.91 9 9-9 9" fill="none"/>
  <path transform="matrix(.5 0 0 .5 0 .02)" d="M34 39.78a6 6 0 0 0-4.242 1.758 6 6 0 0 0 0 8.484l13.76 13.76-13.76 13.76a6 6 0 0 0 0 8.484 6 6 0 0 0 8.484 0l18-18a6 6 0 0 0 0-8.484l-18-18A6 6 0 0 0 34 39.784z" fill="url(#c)"/>
 </g>
</svg>
