<svg xmlns="http://www.w3.org/2000/svg" style="isolation:isolate" viewBox="0 0 64 64"><linearGradient id="a" x2="1" y1=".5" y2=".5" gradientTransform="matrix(28 0 0 28 10 10)" gradientUnits="userSpaceOnUse" transform="translate(-.68 -.68)scale(1.362)"><stop offset="0" stop-color="#f7f206"/><stop offset=".983" stop-color="#ffbb24"/></linearGradient><path fill="url(#a)" d="M10 10v28h6V24l4 8h8l4-8v14h6V10h-6l-8 15-8-15" transform="translate(-.68 -.68)scale(1.362)"/><linearGradient id="c" x1="1.016" x2=".066" y1="-.054" y2=".939" gradientTransform="matrix(47 0 0 46.73 .5 .633)" gradientUnits="userSpaceOnUse" transform="translate(-.68 -.68)scale(1.362)"><stop offset="0" stop-color="#882ae9"/><stop offset="1" stop-color="#34eceb"/></linearGradient><path fill="url(#c)" fill-rule="evenodd" d="M4.678 25.43a2.09 2.09 0 0 0-4.178 0V41.1c0 1.661.658 3.259 1.838 4.428a6.23 6.23 0 0 0 4.429 1.839h18.8a2.09 2.09 0 0 0 0-4.178h-18.8a2.05 2.05 0 0 1-1.473-.616 2.05 2.05 0 0 1-.616-1.473zm38.64-10.18a2.09 2.09 0 0 0 4.178 0V6.894a6.23 6.23 0 0 0-1.838-4.428A6.23 6.23 0 0 0 41.229.627H6.759A6.23 6.23 0 0 0 2.33 2.466 6.23 6.23 0 0 0 .492 6.894v2.089a2.09 2.09 0 0 0 4.178 0V6.894c0-.554.219-1.086.616-1.473a2.05 2.05 0 0 1 1.473-.616h34.47c.554 0 1.087.219 1.473.616.397.387.616.919.616 1.473zm-8.355 27.93a2.09 2.09 0 0 0 0 4.178h6.266a6.23 6.23 0 0 0 4.429-1.839 6.23 6.23 0 0 0 1.838-4.428v-9.4a2.09 2.09 0 0 0-4.178 0v9.4c0 .554-.219 1.086-.616 1.473a2.05 2.05 0 0 1-1.473.616z" transform="translate(-.68 -.68)scale(1.362)"/></svg>