<svg xmlns="http://www.w3.org/2000/svg" style="isolation:isolate" viewBox="0 0 64 64"><linearGradient id="a" x1=".602" x2=".547" y1=".986" y2="-.405" gradientTransform="matrix(47 0 0 44 .5 2)" gradientUnits="userSpaceOnUse" transform="translate(-.68 -.68)scale(1.362)"><stop offset=".017" stop-color="#f2e73f"/><stop offset=".846" stop-color="#5eefe5"/></linearGradient><path fill="url(#a)" fill-rule="evenodd" d="M3 12H.5V6c0-2.208 1.792-4 4-4h39c2.208 0 4 1.792 4 4v13h-3V9H41v3h-4V9h-3v3h-2v3h-3v-3h-2v3h-3V9h-2v3h-3V7h-2v8h-3v-3H9V9H7v3H3m16.25 31H5.5a2 2 0 0 1-2-2V19.5a1.5 1.5 0 0 0-3 0V42c0 2.208 1.792 4 4 4H28c1.104 0 2-.672 2-1.5s-.896-1.5-2-1.5zm23.25 0a2 2 0 0 0 2-2V29.5a1.5 1.5 0 0 1 3 0V42c0 2.208-1.792 4-4 4H37c-1.104 0-2-.672-2-1.5s.896-1.5 2-1.5z" transform="translate(-.68 -.68)scale(1.362)"/><linearGradient id="b" x1="-.228" x2=".998" y1=".576" y2=".533" gradientTransform="matrix(28 0 0 15 13 19)" gradientUnits="userSpaceOnUse" transform="translate(-.68 -.68)scale(1.362)"><stop offset=".026" stop-color="#b3ffab"/><stop offset=".987" stop-color="#12fff7"/></linearGradient><path fill="url(#b)" fill-rule="evenodd" d="M21.71 26.34c-.33-.32-.66-.64-1-.95-.68-.65-1.4-1.25-2.16-1.81-.65-.47-1.34-.87-2.08-1.18-.63-.26-1.31-.39-1.99-.4A1.503 1.503 0 0 1 13 20.48 1.503 1.503 0 0 1 14.52 19c1.06.01 2.11.22 3.09.63.97.4 1.88.92 2.72 1.54.85.63 1.67 1.31 2.44 2.04.34.32.68.64 1.02.97.25-.25.5-.5.76-.75.79-.77 1.64-1.49 2.54-2.15.91-.67 1.9-1.22 2.95-1.63 1.1-.42 2.27-.65 3.46-.65 1.99 0 3.9.79 5.3 2.2 1.41 1.4 2.2 3.31 2.2 5.3s-.79 3.9-2.2 5.31A7.54 7.54 0 0 1 33.49 34a8.3 8.3 0 0 1-3.1-.63c-.97-.4-1.88-.92-2.72-1.54-.85-.63-1.67-1.31-2.44-2.04-.47-.44-.94-.88-1.4-1.34-.5.52-1 1.03-1.52 1.53-.71.7-1.46 1.35-2.26 1.95-.79.6-1.65 1.09-2.56 1.47-.95.39-1.96.59-2.98.6-.4 0-.78-.15-1.06-.43-.29-.28-.45-.66-.45-1.06s.15-.78.43-1.06c.28-.29.66-.45 1.06-.45.64 0 1.27-.13 1.86-.37.67-.28 1.31-.65 1.89-1.09.7-.52 1.35-1.09 1.97-1.7q.765-.735 1.5-1.5m4.21-.04c.45.44.91.88 1.37 1.31.68.65 1.4 1.25 2.16 1.81.65.47 1.34.87 2.08 1.18.63.26 1.3.39 1.98.4 1.19 0 2.33-.48 3.17-1.32.85-.84 1.32-1.99 1.32-3.18s-.47-2.34-1.32-3.18A4.5 4.5 0 0 0 33.5 22c-.81 0-1.61.15-2.37.45-.8.31-1.57.73-2.26 1.25-.79.57-1.53 1.2-2.23 1.88z" transform="translate(-.68 -.68)scale(1.362)"/><linearGradient id="d" x1="-.005" x2="1.217" y1=".567" y2=".55" gradientTransform="matrix(27.9 0 0 15 7 19)" gradientUnits="userSpaceOnUse" transform="translate(-.68 -.68)scale(1.362)"><stop offset=".026" stop-color="#b3ffab"/><stop offset=".987" stop-color="#12fff7"/></linearGradient><path fill="url(#d)" d="M33.39 19c.4 0 .78.15 1.07.43.28.28.44.66.44 1.06s-.15.78-.43 1.07c-.28.28-.66.44-1.06.44-.79 0-1.56.15-2.29.44-.79.31-1.53.73-2.21 1.23-.78.57-1.51 1.2-2.2 1.87-.75.73-1.48 1.47-2.2 2.23-.7.74-1.41 1.46-2.13 2.17s-1.48 1.37-2.29 1.97c-.79.6-1.66 1.1-2.58 1.49-.95.39-1.97.59-3 .6-1.99 0-3.9-.79-5.31-2.19C7.79 30.4 7 28.49 7 26.5s.79-3.9 2.2-5.3c1.4-1.41 3.31-2.2 5.3-2.2a1.499 1.499 0 0 1 1.06 2.56c-.28.28-.66.44-1.06.44-1.19 0-2.34.47-3.18 1.32-.85.84-1.32 1.99-1.32 3.18s.47 2.34 1.32 3.18A4.5 4.5 0 0 0 14.49 31c.65-.01 1.28-.13 1.88-.38a8.5 8.5 0 0 0 1.91-1.1c.71-.53 1.37-1.1 2-1.72.69-.68 1.38-1.38 2.05-2.09.74-.79 1.51-1.56 2.28-2.32.79-.76 1.63-1.48 2.51-2.13.89-.66 1.87-1.2 2.89-1.61" transform="translate(-.68 -.68)scale(1.362)"/></svg>