<svg xmlns="http://www.w3.org/2000/svg" fill="none" viewBox="0 0 64 64"><defs><linearGradient id="a" x2="310" y1="154" y2="154" gradientUnits="userSpaceOnUse"><stop offset="0" stop-color="#ff5f6d"/><stop offset=".987" stop-color="#ffc371"/></linearGradient><linearGradient id="c" x1="259.7" x2="50.28" y1="148.4" y2="148.4" gradientUnits="userSpaceOnUse"><stop offset="0" stop-color="#ff5f6d"/><stop offset="1" stop-color="#ffc371"/></linearGradient></defs><path fill="url(#a)" d="M121.5 279.8c6.878 1.854 10.96 8.945 9.106 15.82-1.853 6.878-8.944 10.96-15.82 9.106a155.05 155.05 0 0 1-82.8-55.41 155.03 155.03 0 0 1-31.97-94.29c0-41.08 16.34-80.54 45.4-109.6s68.52-45.4 109.6-45.4 80.54 16.34 109.6 45.4a155.07 155.07 0 0 1 45.4 109.6c0 33.97-11.17 66.97-31.71 93.97-20.6 27-49.47 46.5-82.22 55.54-6.878 1.893-14-2.163-15.89-9.041-1.893-6.878 2.163-14 9.041-15.89 27.25-7.491 51.34-23.77 68.52-46.24 17.12-22.54 26.42-50.05 26.42-78.34 0-34.23-13.63-67.1-37.85-91.32s-57.09-37.85-91.32-37.85-67.1 13.63-91.32 37.85-37.85 57.09-37.85 91.32c0 28.42 9.365 56.06 26.67 78.6a129.05 129.05 0 0 0 68.97 46.18z" transform="translate(0 .5)scale(.2065)"/><path fill="url(#c)" d="M238.8 168.9c-1.623 0-3.246.271-5.14.541l-23.26-46.26c8.927-7.304 10.28-20.83 2.976-29.76s-20.83-10.28-29.76-2.976-10.28 20.83-2.975 29.76a12.8 12.8 0 0 0 2.705 2.705l-23.26 46.26a19.8 19.8 0 0 0-9.738 0l-22.99-45.99c8.927-7.304 10.28-20.83 2.976-29.76s-20.83-10.28-29.76-2.976c-8.927 7.304-10.28 20.83-2.975 29.76.812 1.082 1.894 1.893 2.975 2.975l-23.53 46.26c-1.894-.541-3.517-.811-5.41-.811-11.63 0-21.37 9.467-21.37 21.1s9.468 21.37 21.1 21.37c11.63 0 21.37-9.467 21.37-21.1 0-6.222-2.705-12.17-7.574-16.23l23.53-46.53c1.623.27 3.246.541 5.14.541 1.623 0 3.246-.271 4.869-.541l22.99 45.99c-8.926 7.304-10.28 20.83-2.975 29.76s20.83 10.28 29.76 2.976c8.926-7.304 10.28-20.83 2.975-29.76a15.5 15.5 0 0 0-2.975-2.976l23.26-46.26c1.623.541 3.517.541 5.14.541s3.246-.27 4.869-.541l23.26 45.99c-8.927 7.574-10.28 20.83-2.705 29.76 7.574 8.926 20.83 10.28 29.76 2.705 8.926-7.575 10.28-20.83 2.705-29.76-3.787-4.058-9.738-6.763-15.96-6.763z" transform="translate(0 .5)scale(.2065)"/></svg>