<svg version="1.1" viewBox="0 0 64 64" xmlns="http://www.w3.org/2000/svg">
 <defs>
  <linearGradient id="a" x1="24.53" x2="32.68" y1="57.39" y2="49.24" gradientTransform="matrix(.9568 0 0 .9564 1.39 .9546)" gradientUnits="userSpaceOnUse">
   <stop stop-color="#5433ff" offset="0"/>
   <stop stop-color="#20bdff" offset=".5"/>
   <stop stop-color="#a5fecb" offset="1"/>
  </linearGradient>
  <linearGradient id="g" x1="24.01" x2="17.91" y1="39.28" y2="45.38" gradientTransform="matrix(.9569 0 0 .9563 1.39 .9546)" gradientUnits="userSpaceOnUse">
   <stop stop-color="#01ff4d" offset="0"/>
   <stop stop-color="#2fff00" offset="1"/>
  </linearGradient>
  <linearGradient id="f" x1="22.84" x2="27.54" y1="34.01" y2="29.31" gradientTransform="matrix(.9572 0 0 .956 1.39 .9546)" gradientUnits="userSpaceOnUse">
   <stop stop-color="#f0f" offset="0"/>
   <stop stop-color="#fca" offset="1"/>
  </linearGradient>
  <linearGradient id="b" x1="54.83" x2="39.01" y1="39.94" y2="24.13" gradientTransform="matrix(.8019 0 0 1.141 1.39 .9546)" gradientUnits="userSpaceOnUse">
   <stop stop-color="#f0f" offset="0"/>
   <stop stop-color="#ffd42a" offset="1"/>
  </linearGradient>
  <linearGradient id="c" y1="1">
   <stop stop-color="#248efe" offset="0"/>
   <stop stop-color="#1df4ff" offset="1"/>
  </linearGradient>
 </defs>
 <path transform="translate(-1e-5) scale(1) translate(.00038) scale(1) matrix(.9566 0 0 .9566 1.39 2.061)" d="m17.2 9.106c-4.622 0.05558-8.161-0.1612-11.2 1.588a0.7501 0.7501 0 0 0 0 2e-3c-1.56 0.9007-2.762 2.409-3.424 4.254-0.6514 1.819-0.875 3.921-0.875 6.508v30.94c0 2.587 0.2225 4.688 0.875 6.508 0.6616 1.844 1.862 3.355 3.422 4.256 3.029 1.75 6.568 1.532 11.2 1.588a0.7501 0.7501 0 0 0 0.0098 0h29.58a0.7501 0.7501 0 0 0 0.0098 0c4.622-0.05558 8.161 0.1625 11.2-1.588 1.56-0.9007 2.762-2.411 3.424-4.256 0.6521-1.819 0.875-3.921 0.875-6.508v-30.94c0-2.587-0.2225-4.688-0.875-6.508-0.6609-1.845-1.864-3.354-3.424-4.254h-2e-3c-3.028-1.75-6.565-1.534-11.2-1.59a0.7501 0.7501 0 0 0-0.0098 0h-29.58a0.7501 0.7501 0 0 0-0.0098 0zm0.03125 5.367h29.54c2.31 0.0284 4.22 0.08814 5.69 0.2324 1.472 0.1445 2.506 0.4015 2.99 0.6816 0.578 0.3341 0.7728 0.5241 1.1 1.432 0.3092 0.8649 0.5449 2.397 0.5449 4.639v30.94c0 2.24-0.2372 3.778-0.5469 4.641-0.3244 0.9076-0.5176 1.096-1.098 1.432-0.4842 0.2795-1.518 0.5355-2.99 0.6797-1.47 0.1439-3.381 0.2039-5.691 0.2324h-29.54c-2.31-0.0284-4.222-0.08861-5.693-0.2324-1.474-0.1441-2.512-0.4003-2.994-0.6797-0.5757-0.3328-0.7639-0.5213-1.09-1.432-0.3091-0.8646-0.5449-2.4-0.5449-4.641v-30.94c0-2.242 0.2362-3.78 0.5449-4.643 0.3266-0.9112 0.513-1.097 1.09-1.432 0.4835-0.2792 1.52-0.5355 2.994-0.6797 1.473-0.144 3.386-0.2019 5.697-0.2305z" fill="url(#c)"/>
 <path transform="translate(-1e-5) scale(1) translate(.00038) scale(1) translate(-.00021 -.000382) scale(1) matrix(.974 0 0 .974 .8336 1.663)" d="m32.03-1.707c-10.08 0-18.18 8.627-18.18 19.25v7.716c0 1.228 0.9656 2.278 2.19 2.278 1.225 0 2.19-1.052 2.19-2.278v-7.716c0-8.183 6.162-14.69 13.81-14.69 7.642 0 13.81 6.512 13.81 14.69v7.716c0 1.224 0.9609 2.275 2.183 2.278a0.7367 0.7367 0 0 0 2e-3 0h0.0058a0.7367 0.7367 0 0 0 0.0077 0c1.218-0.01036 2.173-1.058 2.173-2.278v-7.716c-4.16e-4 -10.63-8.104-19.25-18.18-19.25z" fill="url(#c)" stroke-width=".9821"/>
 <path transform="translate(-1e-5) scale(1) translate(.00038) scale(1) translate(-.00021 -.000382) scale(1) matrix(.974 0 0 .974 .8336 1.663)" d="m47.97 19.65c-2.489 0-4.512 2.023-4.512 4.512s2.023 4.512 4.512 4.512 4.512-2.023 4.512-4.512-2.023-4.512-4.512-4.512z" fill="url(#c)" stroke-width=".9821"/>
 <path transform="translate(-1e-5) scale(1) translate(.00038) scale(1) translate(-.00021 -.000382) scale(1) matrix(.974 0 0 .974 .8336 1.663)" d="m16.07 19.65c-2.489 0-4.512 2.023-4.512 4.512s2.023 4.512 4.512 4.512 4.514-2.023 4.514-4.512-2.025-4.512-4.514-4.512z" fill="url(#c)" stroke-width=".9821"/>
 <path transform="translate(-1e-5) scale(1) translate(.00038)" d="m36.32 28.49a0.7175 0.7175 0 0 0-0.5063 0.2093l-2.935 2.929a0.7175 0.7175 0 0 0 0 1.016l4.873 4.867-4.873 4.867a0.7175 0.7175 0 0 0 0 1.016l2.935 2.931a0.7175 0.7175 0 0 0 1.014 0l8.314-8.309a0.7175 0.7175 0 0 0 0-1.014l-8.314-8.305a0.7175 0.7175 0 0 0-0.5081-0.2093z" fill="url(#b)" stroke-width=".9566"/>
 <path transform="translate(-1e-5) scale(1) translate(.00038)" d="m25.42 28.97c-1.186 0-2.164 0.9786-2.164 2.166v0.1625c0 1.186 0.9786 2.162 2.164 2.162h0.1663c1.185 0 2.166-0.9757 2.166-2.162v-0.1625c0-1.186-0.9786-2.166-2.166-2.166z" fill="url(#f)" stroke-width=".9566"/>
 <path transform="translate(-1e-5) scale(1) translate(.00038)" d="m21.33 38.52c-1.538 0-2.799 1.261-2.799 2.799v0.2354c0 1.538 1.261 2.799 2.799 2.799h0.2392c1.538 0 2.799-1.261 2.799-2.799v-0.2354c0-1.538-1.261-2.799-2.799-2.799z" fill="url(#g)" stroke-width=".9566"/>
 <path transform="translate(-1e-5) scale(1) translate(.00038)" d="m28.59 48.05c-2.051 0-3.724 1.673-3.724 3.724v0.3438c0 2.051 1.673 3.724 3.724 3.724h0.3475c2.051 0 3.724-1.673 3.724-3.724v-0.3438c0-2.051-1.673-3.724-3.724-3.724z" fill="url(#a)" stroke-width=".9566"/>
</svg>
