<svg version="1.1" viewBox="0 0 64 64" xmlns="http://www.w3.org/2000/svg" xmlns:xlink="http://www.w3.org/1999/xlink">
 <defs>
  <linearGradient id="a" x2="0" y2="1">
   <stop stop-color="#00d4aa" offset="0"/>
   <stop stop-color="#2a7fff" offset="1"/>
  </linearGradient>
  <linearGradient id="b" x1="269.4" x2="254.4" y1="343.2" y2="358.1" gradientTransform="matrix(3.885 0 0 3.562 -985.7 -1212)" gradientUnits="userSpaceOnUse" xlink:href="#a"/>
  <linearGradient id="d" x1="11.21" x2="13.62" y1="4.791" y2="4.791" gradientTransform="translate(66 45)scale(-4.027)" gradientUnits="userSpaceOnUse" xlink:href="#a"/>
  <linearGradient id="e" x1="11.61" x2="13.21" y1="4.791" y2="4.791" gradientTransform="translate(68.5 45.96)scale(-4.229)" gradientUnits="userSpaceOnUse">
   <stop stop-opacity=".235" offset="0"/>
   <stop stop-opacity="0" offset="1"/>
  </linearGradient>
  <linearGradient id="h" x1="3.187" x2="12.81" y1="8" y2="8" gradientTransform="matrix(-3.635 0 0 -3.857 61.08 45.28)" gradientUnits="userSpaceOnUse" xlink:href="#a"/>
  <linearGradient id="c" x1="2.385" x2="4.791" y1="4.791" y2="4.791" gradientTransform="translate(62.44 45)scale(-4.027)" gradientUnits="userSpaceOnUse" xlink:href="#a"/>
  <linearGradient id="j" x1="420" x2="444.4" y1="506.2" y2="506.2" gradientTransform="translate(-166.5 -202.8)scale(.476)" gradientUnits="userSpaceOnUse">
   <stop stop-color="#e374ab" offset="0"/>
   <stop stop-color="#fea75f" offset="1"/>
  </linearGradient>
 </defs>
 <g transform="translate(-5e-5 -5.1e-5) scale(.9999) translate(-9e-5 -6.1e-5) scale(.9998) translate(-.483 -.515) scale(1.016)">
  <path d="M17.42 10.21c-4.573.055-7.92-.116-10.66 1.465-1.368.79-2.447 2.13-3.045 3.8s-.816 3.654-.816 6.158v30.46c0 2.504.217 4.487.816 6.158.599 1.67 1.677 3.01 3.045 3.8 2.736 1.581 6.082 1.41 10.66 1.465h29.12c4.573-.055 7.92.117 10.66-1.465 1.368-.79 2.447-2.13 3.045-3.8s.816-3.654.816-6.158v-30.46c0-2.504-.218-4.487-.817-6.158-.598-1.67-1.677-3.01-3.045-3.8-2.736-1.582-6.082-1.41-10.66-1.465H17.43zm.022 3.808h29.08c4.574.056 7.586.228 8.916.997.666.385 1.05.81 1.406 1.8.354.99.581 2.562.581 4.818v30.46c0 2.256-.227 3.83-.582 4.82-.354.99-.739 1.414-1.406 1.8-1.33.768-4.342.94-8.916.996h-29.08c-4.574-.056-7.593-.228-8.923-.997-.666-.385-1.044-.81-1.398-1.8s-.582-2.562-.582-4.818v-30.46c0-2.257.228-3.83.582-4.82.355-.99.732-1.414 1.398-1.8 1.33-.768 4.35-.94 8.923-.996z" color="#d5c289" fill="url(#b)"/>
  <path d="m47.99 30.55c2.684 0 4.846-2.162 4.846-4.846s-2.162-4.846-4.846-4.846-4.846 2.162-4.846 4.846 2.162 4.846 4.846 4.846m0-1.615c-1.794 0-3.231-1.437-3.231-3.231s1.437-3.231 3.231-3.231 3.231 1.437 3.231 3.231-1.437 3.231-3.231 3.231" fill="url(#c)"/>
  <path d="m47.99 29.09c-1.87 0-3.392-1.522-3.392-3.392s1.523-3.392 3.392-3.392c1.87 0 3.392 1.522 3.392 3.392s-1.523 3.392-3.392 3.392" fill="url(#g)" fill-opacity=".235"/>
  <path d="m16.01 30.55c2.684 0 4.846-2.162 4.846-4.846s-2.162-4.846-4.846-4.846-4.846 2.162-4.846 4.846 2.162 4.846 4.846 4.846m0-1.615c-1.794 0-3.231-1.437-3.231-3.231s1.437-3.231 3.231-3.231 3.231 1.437 3.231 3.231-1.437 3.231-3.231 3.231" fill="url(#d)"/>
  <path d="m16.01 29.09c-1.87 0-3.392-1.522-3.392-3.392s1.523-3.392 3.392-3.392c1.87 0 3.392 1.522 3.392 3.392s-1.523 3.392-3.392 3.392" fill="url(#e)" fill-opacity=".235"/>
  <path d="M48.04 28.35c.804 0 1.458-.694 1.458-1.547v-7.736c0-10.28-7.806-18.56-17.49-18.56s-17.49 8.284-17.49 18.56v7.736c0 .853.654 1.547 1.458 1.547s1.458-.694 1.458-1.547v-7.736c0-8.576 6.497-15.47 14.58-15.47 8.081 0 14.58 6.895 14.58 15.47v7.736c0 .853.654 1.547 1.458 1.547z" fill="url(#h)"/>
  <path d="m36.43 29.58-3.021 3.018 5.538 5.532-5.538 5.532 3.021 3.018 8.559-8.55z" fill="url(#j)"/>
  <rect x="23.72" y="30.08" width="3.147" height="3.143" rx="1.488" ry="1.488" fill="#fa8865"/>
  <g transform="translate(-166.5 -202.8)scale(.476)">
   <rect x="389.4" y="509.9" width="9.519" height="9.509" rx="4.5" ry="4.5" fill="#63c605"/>
   <rect x="403.1" y="530.5" width="13.75" height="13.74" rx="6.5" ry="6.5" fill="#1b89f3"/>
   <path d="m424.3 513.6 6.346 6.34 7.404-7.396-6.346-6.34z" fill="url(#g)" fill-rule="evenodd" opacity=".9"/>
  </g>
 </g>
</svg>
