<svg xmlns="http://www.w3.org/2000/svg" viewBox="0 0 64 64"><path fill="red" d="M42.926.004q-.244-.007-.49.012c-1.674.15-3.332.451-4.988.754-1.115.204-2.231.41-3.352.567-1.579.26-3.159.524-4.723.862C22.874 3.22 16.38 4.333 9.884 5.445h-.002l-3.633.623c-2.989.416-5.18 3.763-4.544 6.914 1.159 7.895 2.332 15.787 3.504 23.68l2.04 13.75c.233 2.278 1.765 4.316 3.82 4.982 1.137.425 2.327.237 3.492.052.215-.034.43-.07.643-.1.013.412.007.832.003 1.254-.016 1.408-.032 2.84.585 4.113.87 1.903 2.755 3.233 4.748 3.255 3.59.046 7.182.037 10.773.006 1.24.073 2.472-.812 2.774-2.116.539-1.659-.664-3.65-2.307-3.769-1.536-.096-3.075-.077-4.614-.056s-3.08.042-4.614-.054c-1.26-.14-1.929-1.579-1.773-2.817.008-4.764.006-9.531.004-14.294-.003-6.354-.008-12.704.014-19.061-.087-1.274 1.002-2.428 2.193-2.33 10.559-.026 21.12-.031 31.68 0 1.166-.073 2.22 1.072 2.142 2.315.022 6.358.02 12.714.016 19.072-.002 4.769-.004 9.538.005 14.304.16 1.253-.545 2.708-1.823 2.813-1.399.088-2.801.068-4.204.048-1.483-.021-2.968-.04-4.446.066-1.482.11-2.604 1.742-2.376 3.292.117 1.471 1.41 2.655 2.79 2.577 3.436.042 6.87.048 10.306-.004 2.8 0 5.287-2.667 5.292-5.656.035-2.39.029-4.781.023-7.172-.005-1.859-.009-3.718.006-5.578q-.009-2.918.004-5.834c-.018-3.567-.015-7.133-.012-10.699.002-3.093.005-6.19-.007-9.283.103-2.174-.943-4.34-2.716-5.428-1.311-.856-2.852-.832-4.355-.81-.414.006-.825.012-1.228 0-1.82.06-2.992.019-4.811-.044-.027-.311-.013-.154-.004-.13h.002v-.005l.002-.027-.002.002v.002h-.002c-.021-.052-.114-.78-.03-.235a317 317 0 0 1-.414-2.863c-.257-1.822-.515-3.644-.831-5.452C47.596 2.16 45.363.078 42.924 0zm-2.08 6.277c.784.043 1.517.35 1.857 1.21.525 1.992.776 4.067.825 6.136-4.628-.164-9.262-.14-13.899-.116-2.859.014-5.716.027-8.573-.003-2.989-.254-5.845 2.486-5.82 5.715-.035 5.04-.03 10.083-.024 15.125.006 5.048.014 10.096-.02 15.147-1.235 0-2.698-.583-2.776-2.116A7704 7704 0 0 1 7.557 14.61c-.427-1.403.456-3 1.865-3.077 5.694-.988 11.392-1.951 17.088-2.912 4.315-.728 8.628-1.455 12.939-2.194.432-.102.92-.172 1.39-.146z"/><path fill="red" d="M37.283 22.402c-.715 0-1.424.432-1.804 1.07-1.043 1.882-.572 6.013 1.227 10.088a96 96 0 0 1-2.27 6.163 74 74 0 0 1-2.572 5.475c-5.21 2.122-8.587 4.595-8.9 6.54-.141.731.1 1.4.61 1.937.178.146.846.727 1.978.727 3.458 0 7.1-5.723 8.956-9.178 1.419-.48 2.845-.92 4.262-1.358a47 47 0 0 1 4.549-1.02c3.651 3.35 6.87 3.879 8.487 3.879 1.994 0 2.703-.826 2.944-1.5.376-.873.095-1.835-.333-2.332l.02.046c-.948-1.013-2.89-1.598-5.639-1.598-1.47 0-3.17.145-5.023.49a27 27 0 0 1-3.08-3.635c-.708-.988-1.328-2.033-1.897-3.063 1.085-3.396 1.61-6.168 1.61-8.164 0-2.237-.808-4.567-3.124-4.567zm-.046 1.04c.997 0 1.183 1.159 1.183 2.089 0 1.563-.475 3.936-1.283 6.643-1.419-3.773-1.511-6.93-.802-8.148h-.006c.083-.171.213-.318.373-.42s.345-.16.535-.166zm1.137 13.024c.465.82.987 1.646 1.509 2.382a37 37 0 0 0 2.631 3.225q-1.965.403-3.904.919a54 54 0 0 0-3.364 1.035 57 57 0 0 0 1.613-3.486c.574-1.363 1.042-2.769 1.516-4.077zm4.154 5.595.015.007q-.008.001-.015.004zm6.17.252c.986 0 1.843.048 2.416.194.657.142 1.698.585 1.464 1.85h.01c-.143.723-.857 1.206-1.851 1.206-.281 0-.522-.052-.808-.094-1.816-.44-3.515-1.364-5.211-2.822a24 24 0 0 1 3.98-.333zM31.12 46.64c-2.414 4.07-4.734 6.592-6.158 6.592-.277 0-.517-.098-.704-.24-.287-.293-.428-.633-.334-1.02.287-1.458 2.985-3.493 7.196-5.332z"/><path fill="red" d="M37.283 21.868c-.93 0-1.787.534-2.262 1.332l-.004.008-.005.006c-.618 1.115-.736 2.702-.516 4.542.21 1.766.795 3.776 1.652 5.775a96 96 0 0 1-2.206 5.99 73 73 0 0 1-2.485 5.291c-2.522 1.045-4.658 2.166-6.194 3.292-1.583 1.162-2.62 2.308-2.82 3.54-.171.898.142 1.764.745 2.4l.023.022.025.021c.152.126 1.003.848 2.317.848 2.023 0 3.87-1.571 5.486-3.482 1.561-1.847 2.873-4.054 3.81-5.779 1.355-.455 2.717-.879 4.079-1.3l-.015.006a47 47 0 0 1 4.284-.96c3.648 3.241 6.914 3.838 8.61 3.838 2.13 0 3.125-.988 3.436-1.843.428-1.012.158-2.024-.34-2.697l.017-.01-.025-.053-.017.01c-.014-.018-.016-.05-.03-.068l-.005-.004c-.009-.013-.012-.036-.02-.048l-.024.014c-1.132-1.189-3.191-1.752-6-1.752-1.411 0-3.05.164-4.796.469a26 26 0 0 1-2.869-3.39l-.004-.005c-.652-.907-1.223-1.874-1.758-2.835 1.038-3.307 1.571-6.045 1.571-8.079 0-1.183-.202-2.402-.762-3.386-.561-.983-1.559-1.714-2.896-1.714zm.131 1.1c.884.045 1.438.442 1.838 1.142.423.74.623 1.804.623 2.858 0 1.902-.51 4.638-1.585 8.002l-.07.22.033.058-.377 1.033c-.479 1.316-.945 2.714-1.509 4.052a56 56 0 0 1-1.596 3.454l-.479.948-.152.052-.1.186c-.918 1.707-2.282 3.977-3.816 5.792s-3.237 3.104-4.671 3.104c-.253 0-.246-.112-.436-.16.97-.075 1.899-.765 2.942-1.887 1.1-1.183 2.298-2.858 3.52-4.916l-.253.171-.252-.86c.39-.173.578-.357.992-.525l.18-.073.093-.173a75 75 0 0 0 2.59-5.517l.002-.002v-.004a97 97 0 0 0 2.254-6.115l.012.036.454-1.517c.817-2.734 1.305-5.125 1.305-6.796 0-.5-.04-1.075-.26-1.6a1.64 1.64 0 0 0-1.28-.962zm-.173 1.01c.285.002.35.083.47.367.12.288.176.756.176 1.185 0 .928-.46 2.628-.804 4.138-.21-.87-.556-1.858-.612-2.568-.108-1.353.076-2.377.325-2.805l.035-.06a.5.5 0 0 1 .16-.18.5.5 0 0 1 .25-.076zm-1.519.582h.042c-.153.478-.224 1.057-.233 1.704.003-.669.065-1.224.191-1.704M38.5 37.659c.314.509.619 1.033.948 1.497l.006.007c.68.926 1.396 1.768 2.11 2.587a70 70 0 0 0-3.091.727h-.002c-.754.205-1.496.453-2.24.69.383-.802.773-1.6 1.119-2.42.44-1.045.79-2.074 1.15-3.088zm2.66 1.917c.556.714 1.131 1.413 1.756 2.067l-.098-.04c-.56-.61-1.11-1.32-1.658-2.027zm10.068 2.408.016.006h-.01v-.002l-.006-.002zm.52.25c1.04.256 1.859.608 2.29 1.065.267.346.494 1.087.223 1.716l-.009.015-.004.016c-.175.492-.596 1.146-2.441 1.146-.19 0-.594-.143-.832-.163 1.055-.087 1.957-.64 2.138-1.576l-.483.29.11-.728.365.438c.144-.783-.139-1.45-.563-1.838-.256-.234-.523-.28-.794-.381zm-3.047.613c.969 0 1.805.055 2.282.177l.02.004c.274.059.616.19.82.375s.324.374.235.856l-.002.009c-.094.43-.506.762-1.317.762-.204 0-.41-.04-.691-.083-1.314-.32-2.569-1.002-3.821-1.892.824-.087 1.646-.207 2.475-.208zM29.32 48.24c-.697 1.015-1.427 2.194-2.042 2.856-1.02 1.098-1.922 1.6-2.32 1.6a.6.6 0 0 1-.337-.114c-.169-.183-.226-.3-.18-.486l.001-.012.002-.01c.092-.464.732-1.314 1.924-2.2.707-.527 1.912-1.083 2.952-1.633zm-5.917 3.608.002.003v.006l-.002.002v.002l-.005.004z"/></svg>