<svg xmlns="http://www.w3.org/2000/svg" fill="none" viewBox="0 0 64 64"><defs><linearGradient id="a" x1="114.9" x2="12.55" y1="9.925" y2="117.6" gradientUnits="userSpaceOnUse"><stop offset="0" stop-color="#d800bd"/><stop offset=".408" stop-color="#f92d7a"/><stop offset=".59" stop-color="#ff4a52"/><stop offset="1" stop-color="#ffb243"/></linearGradient><linearGradient id="b" x1="94.77" x2="74.6" y1="33.64" y2="91.83" gradientUnits="userSpaceOnUse"><stop offset="0" stop-color="#fe0f7c"/><stop offset="1" stop-color="#df0066"/></linearGradient><linearGradient id="d" x1="22" x2=".001" y2="22" gradientTransform="translate(80.18 74.6)scale(1.962)" gradientUnits="userSpaceOnUse"><stop offset="0" stop-color="#01ff01"/><stop offset="1" stop-color="#1bc100"/></linearGradient></defs><path fill="url(#a)" fill-rule="evenodd" d="M120 64c0 30.93-25.07 56-56 56S8 94.93 8 64 33.07 8 64 8s56 25.07 56 56m-14 0c0 23.2-18.8 42-42 42S22 87.2 22 64s18.8-42 42-42 42 18.8 42 42" clip-rule="evenodd" transform="translate(-4.44 -3.523)scale(.5549)"/><path fill="url(#b)" d="M80.67 35.64c-.562-1.524-2.611-1.778-3.528-.437l-11.93 17.45a2 2 0 0 1-3.306-.005l-11.05-16.28c-.922-1.357-2.996-1.088-3.541.46l-15.68 44.54a2 2 0 0 0 1.13 2.515l11.25 4.594a2 2 0 0 0 2.736-1.569l3.71-25.93c.259-1.807 2.606-2.351 3.634-.84l7.805 11.48a2 2 0 0 0 3.305.003l9.229-13.5c.974-1.425 3.175-1.029 3.592.646l6.253 25.14a2 2 0 0 0 2.884 1.281l8.308-4.44a2 2 0 0 0 .934-2.457l-15.73-42.65z" transform="translate(-4.44 -3.523)scale(.5549)"/><path fill="url(#d)" d="M101.8 74.6a6.42 6.42 0 0 0-4.479 1.782c-1.219 1.16-1.897 2.705-1.897 4.365v9.134h-9.016c-1.683 0-3.249.62-4.434 1.793-1.184 1.173-1.832 2.743-1.832 4.441 0 1.694.635 3.262 1.793 4.479 1.159 1.214 2.697 1.897 4.353 1.897h9.134v9.02c0 1.689.63 3.249 1.801 4.43 1.183 1.195 2.79 1.82 4.54 1.82 1.632 0 3.162-.618 4.371-1.77 1.222-1.163 1.897-2.717 1.897-4.375v-9.122h9.02c1.689 0 3.249-.631 4.43-1.801 1.194-1.183 1.82-2.786 1.82-4.536 0-1.632-.618-3.166-1.77-4.375-1.163-1.222-2.717-1.897-4.375-1.897h-9.122v-9.028c0-1.689-.631-3.253-1.801-4.434-1.173-1.183-2.735-1.82-4.43-1.82z" transform="translate(-4.44 -3.523)scale(.5549)"/></svg>