<svg xmlns="http://www.w3.org/2000/svg" fill="none" viewBox="0 0 64 64"><defs><linearGradient id="a" x1="130.6" x2="130.6" y1="183.1" y2="73.05" gradientUnits="userSpaceOnUse"><stop offset="0" stop-color="#fda700"/><stop offset="1" stop-color="#ffde00"/></linearGradient></defs><path fill="url(#a)" fill-rule="evenodd" d="m156.9 127.9-.006-.003v37.69a17.514 17.514 0 0 1-24.5 16.06 17.52 17.52 0 0 1-10.316-18.845c.617-3.84 2.494-7.366 5.336-10.02a17.53 17.53 0 0 1 12.303-4.716c4.16.082 9.09-2.702 9.09-6.864v-33.24c0-3.298 0-6.096.247-8.392.265-2.447.847-4.695 2.237-6.786s3.24-3.493 5.396-4.679c2.021-1.116 4.598-2.199 7.643-3.471l11.29-4.722c6.489-2.717 11.78-4.932 16.05-6.021 4.414-1.127 8.699-1.304 12.52 1.229l.037.027a11.8 11.8 0 0 1 3.342 3.396c1.428 2.194 2.162 4.813 2.582 7.627q.124.846.216 1.698c.431 4.118.431 9.282.431 15.44v51.51a17.525 17.525 0 0 1-13.18 16.966 17.518 17.518 0 1 1-3.998-34.486c4.161.081 9.09-2.703 9.09-6.865v-13.07c0-3.727-3.764-6.275-7.224-4.891l-38.59 15.44zm-88.62-21.75a10.448 10.448 0 0 0-15.638 13.79l.867.982 16.5 16.5a7.997 7.997 0 0 1 .001 11.31l-16.49 16.5a10.448 10.448 0 0 0 6.39 17.824 10.45 10.45 0 0 0 7.4-2.175l.97-.867 29.55-29.55a10.45 10.45 0 0 0 .868-13.789l-.867-.982-29.55-29.54z" clip-rule="evenodd" transform="translate(-20.11 -19.1)scale(.3991)"/></svg>