<svg xmlns="http://www.w3.org/2000/svg" fill="none" viewBox="0 0 64 64"><defs><linearGradient id="a" x1="159.4" x2="159.4" y1="215.8" y2="41" gradientUnits="userSpaceOnUse"><stop offset="0" stop-color="#ff1b71"/><stop offset="1" stop-color="#ff867e"/><stop offset="1" stop-color="#ff6678"/></linearGradient><linearGradient id="c" x1="99.84" x2="99.84" y1="217" y2="39" gradientUnits="userSpaceOnUse"><stop offset="0" stop-color="#ff1b71"/><stop offset="1" stop-color="#ff867e"/><stop offset="1" stop-color="#ff6678"/></linearGradient></defs><path fill="url(#a)" d="M216.3 41.04c9.867-.613 20.33 6.8 21.44 16.89.013 4.8.695 142.1-1.665 146.5-4.48 8.973-15.89 13.79-25.39 10.29-3.822-1.508-7.351-3.602-10.88-5.696l-.076-.045c-1.875-1.112-3.751-2.224-5.671-3.246-4.01-2.108-43.77-25.13-47.68-27.4l-.108-.063c-2.69-1.561-5.381-3.122-8.101-4.628-3.214-1.92-6.4-3.893-9.454-6.053-5.067-2.7-26.38-14.56-31.34-17.43l-.003-.002a1479 1479 0 0 0-4.897-2.82c-4.48-2.493-8.267-6.36-10.04-11.23-3.44-8.6-.493-19.35 7.227-24.63 3.3-2.235 6.78-4.187 10.26-6.14l.02-.01c8.623-4.965 45.56-26.2 54.18-31.16l.001-.002c15.41-8.868 30.83-17.73 46.23-26.62.725-.414 9.501-6.066 15.95-6.467z" opacity=".4" transform="translate(-5.876 -5.607)scale(.2938)"/><path fill="url(#c)" d="M41.93 39.04c-10.05-.624-20.7 6.924-21.83 17.2-.013 4.887-.708 144.7 1.695 149.1 4.562 9.137 16.18 14.04 25.85 10.48 3.892-1.536 7.485-3.668 11.08-5.8l.077-.046c1.91-1.132 3.82-2.264 5.774-3.305 4.083-2.146 44.56-25.58 48.55-27.9l.11-.064c2.74-1.589 5.48-3.179 8.25-4.712 3.271-1.955 6.515-3.964 9.625-6.163 5.16-2.749 26.86-14.83 31.91-17.75l.002-.002c1.661-.959 3.321-1.919 4.986-2.872 4.562-2.538 8.417-6.475 10.22-11.43 3.502-8.756.502-19.7-7.358-25.08-3.36-2.276-6.903-4.263-10.45-6.252l-.02-.01c-8.78-5.056-46.39-26.68-55.17-31.73l-.002-.002q-23.55-13.542-47.07-27.1c-.738-.421-9.674-6.176-16.24-6.584z" transform="translate(-5.876 -5.607)scale(.2938)"/></svg>