<svg xmlns="http://www.w3.org/2000/svg" viewBox="0 0 64 64"><defs><linearGradient id="a" y1="1"><stop offset="0" stop-color="#5433ff"/><stop offset=".5" stop-color="#20bdff"/><stop offset="1" stop-color="#a5fecb"/></linearGradient></defs><path fill="url(#a)" d="M10.7 2.416c-1.35-.011-2.718.036-4.084.33l-.021.004C3.082 3.658.34 6.714.072 10.193v.006c-.113 1.787-.05 3.556-.053 5.297v.002c-.05.967.312 2.046 1.256 2.643 1.649 1.19 4.2.265 4.572-1.7l.004-.02.002-.02c.219-1.974-.027-3.884.117-5.703.101-1.3 1.38-2.494 2.812-2.564 2.789-.115 5.633.082 8.51-.086h.02l.017-.004c2.216-.303 3.192-3.156 1.629-4.682-.598-.652-1.402-.865-2.148-.916-.754-.052-1.492.027-2.082-.004l-.025-.002h-.024c-1.294.057-2.628-.012-3.978-.023zm15.67.549.008.006c-1.27.06-2.348 1.186-2.234 2.396.008 1.237 1.237 2.308 2.549 2.207 9.588.036 19.18-.01 28.76.023 1.963-.06 3.709 1.584 3.658 3.436.034 6.122-.006 12.24.015 18.37l-.017 4.648c-.022 2.155.085 4.31-.043 6.461-.197 1.842-2.161 3.152-4.072 2.967-15.29-.016-30.57.016-45.86 0-1.938.073-3.724-1.499-3.711-3.334-.064-4.986.043-9.972-.043-14.96.051-1.734-2.308-2.874-3.773-1.824-.973.55-1.123 1.682-1.076 2.656.043 4.85-.056 9.698.047 14.55.141 3.972 3.9 7.463 8.123 7.504 5.833.004 11.67.04 17.5-.017-3.415 2.869-6.677 5.902-10.05 8.814-.695.618-1.54 1.275-1.57 2.258-.137 1.366 1.204 2.585 2.646 2.45q15.03.02 30.06 0c1.445.13 2.743-1.122 2.598-2.476-.064-1.16-1.168-1.838-1.957-2.578-3.253-2.803-6.337-5.792-9.691-8.48 5.88.088 11.76.037 17.65.037 4.38-.057 8.182-3.822 8.109-7.94.008-9.834.022-19.68-.004-29.51-.082-4.02-3.843-7.605-8.121-7.654-9.742-.017-19.5-.013-29.23 0v-.002a2 2 0 0 0-.256-.002zm5.9 46.01c3.024 2.636 5.988 5.34 9.023 7.97q-9.057.024-18.1.005c3.053-2.63 6.026-5.341 9.076-7.975z" transform="translate(-.004 .001)"/><path fill="url(#a)" d="M36.61 10.11c-2.101.001-3.913 1.722-3.913 3.825h-.005c0 1.96 1.293 3.25 3.253 3.252 2.15 0 3.961-1.63 3.961-3.83 0-1.96-1.384-3.246-3.296-3.247m-2.638 8.793c-2.771 0-5.254 1.389-7.166 3.203-.622.623-2.72 2.626-2.72 3.487 0 .286.285.623.621.623.857 0 3.148-4.157 4.911-4.157.384 0 .814.428.478 1.288l-3.34 8.415c-.336.814-1.96 4.735-1.96 7.028 0 1.815 1.196 2.62 2.916 2.62 4.826 0 10.42-5.924 10.42-7.31 0-.43-.335-.714-.573-.714-.67 0-3.297 4.058-4.731 4.058-.382 0-.572-.332-.572-.666 0-.763.527-1.962.813-2.68l3.44-9.313c1.718-4.638-.472-5.876-2.529-5.876z" transform="translate(-.003 .001)"/></svg>