<svg xmlns="http://www.w3.org/2000/svg" xmlns:xlink="http://www.w3.org/1999/xlink" viewBox="0 0 64 64"><defs><linearGradient id="f" x1="1" x2="0" y2="1"><stop offset="0" stop-color="#de00c0"/><stop offset="1" stop-color="#8720ff"/></linearGradient><linearGradient id="a" x2="0" y1="1"><stop offset="0" stop-color="#fd7900"/><stop offset="1" stop-color="red"/></linearGradient><linearGradient xlink:href="#a" id="b" x1="8.606" x2="3.859" y1="4.182" y2="8.929" gradientTransform="scale(1.04 .9617)" gradientUnits="userSpaceOnUse"/><linearGradient xlink:href="#a" id="c" x1="11.81" x2="15.88" y1="4.152" y2="8.707" gradientTransform="scale(1.021 .9797)" gradientUnits="userSpaceOnUse"/><linearGradient xlink:href="#a" id="e" x1="8.929" x2="4.008" y1="16.25" y2="11.33" gradientTransform="scale(1.002 .9983)" gradientUnits="userSpaceOnUse"/></defs><path fill="url(#a)" d="M4.002 0C3.61 0 3.213.011 2.83.104 1.212.465-.027 2.03.002 3.692 0 7.996-.002 12.304.004 16.612c-.016 1.849 1.562 3.528 3.41 3.619 1.572.021 3.145.014 4.717.007.454.008.846-.4.853-.845.036-.463-.356-.912-.822-.924-1.542-.043-3.088.017-4.633-.026-.99-.053-1.794-.995-1.748-1.977-.006-4.05.004-8.103-.004-12.15.005-.447-.028-.914.155-1.336a1.92 1.92 0 0 1 1.773-1.186c4.046-.003 8.093.001 12.14-.004.45.008.92-.045 1.35.127.719.265 1.237.997 1.23 1.766.013 1.444-.008 2.886.007 4.328-.021.403.245.8.639.907.563.195 1.206-.32 1.143-.912.01-1.334-.004-2.668.004-4.002.014-.633-.069-1.278-.344-1.854-.567-1.253-1.88-2.126-3.26-2.137-4.204-.011-8.41 0-12.62-.008z" transform="translate(.002)scale(2.909)"/><path fill="url(#b)" d="M7.031 4.022a6.5 6.5 0 0 0-1.26.098 2.41 2.41 0 0 0-1.623 1.545c-.204.705-.117 1.457-.115 2.182-.006.49.532.85.99.709.45-.105.637-.592.586-1.01.054-.605-.222-1.462.426-1.826.805-.292 1.733.093 2.537-.217.624-.32.432-1.39-.274-1.453-.42-.002-.844-.026-1.268-.027z" transform="translate(.002)scale(2.909)"/><path fill="url(#c)" d="M12.96 4.027a7 7 0 0 0-.902.041c-.637.17-.742 1.138-.156 1.44.739.306 1.616-.102 2.344.244.751.581.13 1.668.494 2.418.32.558 1.26.444 1.424-.183.073-.55.034-1.11.03-1.662-.016-1.218-1.108-2.295-2.327-2.287-.302.002-.604-.008-.906-.01z" transform="translate(.002)scale(2.909)"/><path fill="url(#e)" d="M4.777 11.31a.7.7 0 0 0-.398.135c-.414.241-.362.765-.362 1.174.031.71-.097 1.457.194 2.13a2.41 2.41 0 0 0 2.248 1.466c.66-.022 1.333.057 1.986-.049.665-.214.664-1.259.008-1.48-.783-.172-1.614.084-2.385-.14-.786-.457-.356-1.51-.463-2.243.111-.521-.347-1.002-.828-.992z" transform="translate(.002)scale(2.909)"/><path fill="url(#f)" d="M16.04 10.07a5.5 5.5 0 0 0-1.51.203v.002c-1.775.457-3.293 1.787-3.986 3.482a6 6 0 0 0 .103 4.8 5.953 5.953 0 0 0 10.817-.036 6 6 0 0 0-.093-5.152c-.961-2.01-3.133-3.29-5.33-3.3zm-.055 1.799c1.307-.017 2.61.615 3.39 1.674 1.195 1.53 1.083 3.882-.245 5.295-1.293 1.49-3.674 1.819-5.316.725-1.43-.884-2.21-2.687-1.857-4.334.319-1.687 1.774-3.075 3.473-3.31l-.002-.002q.279-.044.559-.047z" transform="translate(.002)scale(2.909)"/></svg>