<svg xmlns="http://www.w3.org/2000/svg" fill="none" viewBox="0 0 64 64"><defs><linearGradient id="a" x1="8.044" x2="8.044" y1="18.44" y2="2" gradientUnits="userSpaceOnUse"><stop offset="0" stop-color="#fda700"/><stop offset="1" stop-color="#ffde00"/></linearGradient></defs><path fill="url(#a)" fill-rule="evenodd" d="M7.7.584h.599c1.092 0 1.958 0 2.655.056.714.059 1.317.18 1.868.461a4.75 4.75 0 0 1 2.076 2.076c.281.551.403 1.155.461 1.868.057.698.057 1.563.057 2.655v2.436c0 .204 0 .336-.007.465a4.75 4.75 0 0 1-1.207 2.914 9 9 0 0 1-.323.333l-.016.015-.015.016a9 9 0 0 1-.333.323A4.75 4.75 0 0 1 10.6 15.41c-.13.007-.26.007-.465.007H7.7c-1.092 0-1.958 0-2.655-.057-.713-.058-1.317-.18-1.868-.46a4.75 4.75 0 0 1-2.076-2.076c-.28-.552-.402-1.155-.46-1.868C.582 10.257.582 9.392.582 8.3v-.6c0-1.092 0-1.958.057-2.655.059-.713.18-1.317.461-1.868a4.75 4.75 0 0 1 2.076-2.076C3.728.821 4.332.7 5.045.641 5.743.582 6.608.582 7.7.582M5.167 2.136c-.62.05-1.005.147-1.309.302a3.25 3.25 0 0 0-1.42 1.42c-.155.304-.252.688-.302 1.309-.052.63-.052 1.434-.052 2.566v.533c0 1.132 0 1.937.052 2.566.05.62.147 1.005.302 1.309a3.25 3.25 0 0 0 1.42 1.42c.304.155.689.252 1.309.302.63.052 1.434.052 2.566.052h2.133a.05.05 0 0 0 .05-.05v-.03c0-.534 0-.98.03-1.344.03-.38.098-.737.27-1.074a2.75 2.75 0 0 1 1.202-1.202c.337-.172.694-.24 1.074-.27.364-.03.81-.03 1.344-.03h.03a.05.05 0 0 0 .05-.05V7.732c0-1.132 0-1.937-.052-2.566-.05-.62-.147-1.005-.302-1.309a3.25 3.25 0 0 0-1.42-1.42c-.305-.155-.689-.251-1.309-.302-.63-.052-1.434-.052-2.566-.052h-.533c-1.132 0-1.937 0-2.566.052zm7.346 10.95q-.27.241-.583.416c-.212.119-.318.178-.417.119s-.097-.19-.094-.451c.003-.22.01-.4.022-.556.023-.287.065-.425.112-.515a1.25 1.25 0 0 1 .546-.546c.09-.047.228-.089.515-.112.156-.013.336-.019.556-.022.261-.003.392-.005.451.094.06.1 0 .205-.118.417a3.3 3.3 0 0 1-.417.583c-.056.062-.119.125-.283.29s-.228.227-.29.282m-7.847-9.17a.75.75 0 0 0 0 1.5h5.333a.75.75 0 0 0 0-1.5zm-.75 3.417a.75.75 0 0 1 .75-.75h4a.75.75 0 0 1 0 1.5h-4a.75.75 0 0 1-.75-.75m.75 1.917a.75.75 0 0 0 0 1.5h1.333a.75.75 0 0 0 0-1.5z" clip-rule="evenodd" transform="translate(-1.607 -1.596)scale(4.20158)"/><path fill="url(#a)" d="M7.734.584v.2zm-.033 0v-.2zm.566 0v.2zm.033 0v-.2zm0 0v.2zm2.655.056-.016.2zm1.868.461-.09.178zM14.9 3.177l.179-.09zm.461 1.868-.2.016zm.057 2.655h-.2zm0 2.436h-.2zm-.007.465-.2-.011zm-1.207 2.914-.149-.134zm-.323.333-.142-.141zm-.03.03-.142-.14zm-.334.324-.134-.149zm-2.914 1.207-.011-.2zm-.465.007v-.2zm-2.436 0v-.2zm-2.655-.057.016-.199zm-1.868-.46-.09.178zm-2.076-2.076.178-.091zm-.46-1.868.199-.017zM.583 8.3h.2zm0 0h-.2zm0-.033h.2zm0-.534h.2zm0-.033h-.2zm0 0h.2zM.64 5.045.442 5.03zm.461-1.868-.178-.09zm2.076-2.076-.09-.178zm1.868-.46L5.03.44zM7.701.582v.2zM3.859 2.437l.09.179zm1.309-.302.016.2zm-2.73 1.723.178.091zm-.302 1.31.2.016zm0 5.665.2-.016zm.302 1.31-.178.09zm1.42 1.42-.09.177zm1.309.301.016-.199zm4.749-.028h.2zm.03-1.344.199.016zm.27-1.074-.178-.09zm1.202-1.202.09.178zm1.074-.27.016.2zm1.344-.03v.2zm.028-4.749-.2.017zm-.302-1.309.178-.09zm-1.42-1.42.09-.178zm-1.31-.302-.015.2zm1.682 10.95-.134-.149zm-1.072-.472-.2-.016zm.111-.515.179.091zm.547-.546.09.178zm.515-.111-.017-.2zm.471 1.072-.148-.134zm.417-.584.175.098zm-1.573 1.572.098.175zm-.51-.332-.2-.003zm.093.451.103-.172zM7.733.381H7.7v.4h.033zm.534 0h-.534v.4h.534zm.033 0h-.033v.4H8.3zm0 0v.4zm2.67.058C10.264.38 9.39.38 8.3.38v.4c1.095 0 1.95 0 2.639.057l.032-.4zm1.944.482C12.33.623 11.697.498 10.97.439l-.033.399c.701.057 1.275.175 1.794.44zm2.163 2.163A4.95 4.95 0 0 0 12.914.92l-.182.356a4.55 4.55 0 0 1 1.988 1.988zm.482 1.943c-.06-.726-.185-1.36-.482-1.943l-.357.181c.265.519.383 1.093.44 1.794zm.057 2.67c0-1.088 0-1.963-.057-2.67l-.399.032c.056.688.056 1.544.056 2.64h.4zm0 0h-.4zm0 0h-.4zm0 0h-.4zm0 0h-.4zm0 .034v-.033h-.4v.033zm0 2.38v-2.38h-.4v2.38zm0 .022v-.021h-.4v.021zm0 0h-.4zm0 0h-.4zm0 0h-.4zm0 0h-.4zm-.007.476c.007-.135.007-.273.007-.476h-.4c0 .206 0 .332-.006.454zm-1.258 3.037a4.95 4.95 0 0 0 1.258-3.037l-.4-.022a4.55 4.55 0 0 1-1.155 2.792zm-.331.341c.143-.143.24-.24.331-.341l-.298-.267a9 9 0 0 1-.316.325zm-.015.015.015-.015-.283-.283-.015.016zm-.015.016.015-.016-.283-.282-.015.015zm-.342.33c.101-.09.198-.187.342-.33l-.283-.283a9 9 0 0 1-.326.316zm-3.037 1.259a4.95 4.95 0 0 0 3.037-1.258l-.267-.298a4.55 4.55 0 0 1-2.792 1.156zm-.475.007c.202 0 .34 0 .475-.007l-.021-.4c-.123.007-.248.007-.454.007zm0 0v-.4zm0 0v-.4zm0 0v-.4zm0 0v-.4zm-.022 0h.022v-.4h-.022zm-2.38 0h2.38v-.4h-2.38zm-.034 0h.033v-.4H7.7zm0 0v-.4zm0 0v-.4zm0 0v-.4zm0 0v-.4zm-2.671-.058c.708.058 1.582.058 2.671.058v-.4c-1.095 0-1.951 0-2.639-.056zm-1.943-.481c.584.297 1.217.422 1.943.481l.033-.398c-.701-.058-1.275-.176-1.794-.44zM.923 12.912a4.95 4.95 0 0 0 2.163 2.163l.182-.357A4.55 4.55 0 0 1 1.28 12.73zm-.482-1.943c.06.725.184 1.359.482 1.943l.356-.182c-.264-.518-.382-1.093-.44-1.794zM.383 8.298c0 1.089 0 1.964.058 2.67l.399-.032c-.056-.688-.056-1.544-.056-2.64h-.4zm0 0h.4zm0-.034v.033h.4v-.033zm0-.533v.533h.4v-.533zm0-.033v.033h.4v-.033zm0 0h.4zm.058-2.67c-.058.707-.058 1.581-.058 2.67h.4c0-1.095 0-1.95.057-2.639l-.4-.033zm.482-1.944C.625 3.668.5 4.301.441 5.027l.399.033c.057-.701.175-1.275.44-1.794zM3.086.921A4.95 4.95 0 0 0 .923 3.084l.356.182a4.55 4.55 0 0 1 1.988-1.988zM5.029.44C4.303.5 3.67.623 3.086.921l.182.356c.518-.264 1.093-.382 1.794-.44zM7.7.382c-1.089 0-1.964 0-2.671.057l.033.399C5.749.782 6.606.782 7.7.782zm0 0v.4zM3.948 2.614c.272-.139.627-.232 1.235-.282l-.032-.398c-.633.051-1.046.151-1.384.323zM2.615 3.947a3.05 3.05 0 0 1 1.333-1.333l-.181-.357a3.45 3.45 0 0 0-1.508 1.508zm-.281 1.235c.05-.609.143-.964.281-1.235l-.356-.182c-.172.337-.272.75-.324 1.384zm-.051 2.55c0-1.136 0-1.93.051-2.55l-.399-.033c-.052.64-.052 1.453-.052 2.582h.4zm0 .533v-.533h-.4v.533zm.051 2.55c-.05-.62-.051-1.414-.051-2.55h-.4c0 1.129 0 1.943.052 2.582zm.281 1.235c-.138-.272-.231-.627-.281-1.235l-.399.032c.052.633.152 1.046.324 1.384zm1.333 1.333a3.05 3.05 0 0 1-1.333-1.333l-.356.181a3.45 3.45 0 0 0 1.508 1.508zm1.235.28c-.608-.049-.963-.142-1.235-.28l-.181.356c.337.172.75.272 1.384.324zm2.55.052c-1.136 0-1.93 0-2.55-.051l-.032.399c.639.052 1.453.052 2.582.052zm2.133 0H7.733v.4h2.133zm-.15.12v.03h.4v-.03zm.03-1.36c-.03.374-.03.829-.03 1.36h.4c0-.537 0-.974.03-1.328zm.292-1.148c-.189.37-.26.756-.291 1.148l.398.032c.03-.367.094-.695.25-.999zm1.289-1.29a2.95 2.95 0 0 0-1.29 1.29l.357.181c.245-.48.635-.87 1.114-1.114zm1.148-.29c-.393.032-.778.102-1.148.29l.181.357c.305-.155.632-.219 1-.249zm1.36-.03c-.531 0-.987 0-1.36.03l.032.398c.355-.029.791-.029 1.328-.029zm.03 0h-.03v.4h.03zm-.15-1.984v2.133h.4V7.733zm-.051-2.55c.05.62.051 1.414.051 2.55h.4c0-1.129 0-1.943-.052-2.582zm-.281-1.235c.138.272.231.627.28 1.235l.4-.032c-.052-.633-.152-1.046-.324-1.384zM12.05 2.615a3.06 3.06 0 0 1 1.333 1.333l.356-.181a3.45 3.45 0 0 0-1.508-1.508zm-1.235-.28c.608.049.963.142 1.235.28l.181-.356c-.337-.172-.75-.272-1.384-.323zm-2.55-.052c1.136 0 1.93 0 2.55.051l.032-.398c-.64-.053-1.453-.053-2.582-.053zm-.534 0h.534v-.4H7.73zm-2.55.051c.62-.05 1.414-.051 2.55-.051v-.4c-1.129 0-1.943 0-2.582.053zm6.844 11.34q.332-.185.62-.442l-.268-.298a3 3 0 0 1-.547.391zm-.785-1.08c-.014.163-.02.349-.023.57l.4.005a8 8 0 0 1 .021-.542zm.132-.59c-.063.124-.108.29-.132.59l.398.033c.023-.275.061-.383.09-.44zm.634-.633a1.45 1.45 0 0 0-.634.634l.357.181c.1-.197.26-.358.458-.458zm.59-.133c-.3.025-.467.07-.59.133l.181.357c.058-.03.166-.068.44-.09zm.569-.022c-.221.003-.407.01-.57.022l.033.4c.15-.013.324-.02.542-.022zm.067 1.427q.258-.286.443-.619l-.35-.195q-.164.293-.39.547zm-.29.298c.163-.164.23-.231.29-.298l-.297-.267c-.052.057-.11.115-.276.282zm-.298.29c.067-.06.135-.127.298-.29l-.283-.283a8 8 0 0 1-.282.275zm-8.53-8.568a.55.55 0 0 1 .55-.55v-.4a.95.95 0 0 0-.95.95zm.55.55a.55.55 0 0 1-.55-.55h-.4c0 .525.426.95.95.95zm5.333 0H4.664v.4h5.333zm.55-.55a.55.55 0 0 1-.55.55v.4a.95.95 0 0 0 .95-.95zm-.55-.55a.55.55 0 0 1 .55.55h.4a.95.95 0 0 0-.95-.95zm-5.333 0h5.333v-.4H4.664zm0 2.267a.95.95 0 0 0-.95.95h.4a.55.55 0 0 1 .55-.55zm4 0h-4v.4h4zm.95.95a.95.95 0 0 0-.95-.95v.4a.55.55 0 0 1 .55.55zm-.95.95a.95.95 0 0 0 .95-.95h-.4a.55.55 0 0 1-.55.55zm-4 0h4v-.4h-4zm-.95-.95c0 .525.426.95.95.95v-.4a.55.55 0 0 1-.55-.55zm.4 2.667a.55.55 0 0 1 .55-.55v-.4a.95.95 0 0 0-.95.95zm.55.55a.55.55 0 0 1-.55-.55h-.4c0 .525.426.95.95.95zm1.333 0H4.664v.4h1.333zm.55-.55a.55.55 0 0 1-.55.55v.4a.95.95 0 0 0 .95-.95zm-.55-.55a.55.55 0 0 1 .55.55h.4a.95.95 0 0 0-.95-.95zm-1.333 0h1.333v-.4H4.664zm8.506 2.169a2 2 0 0 1 .268.006c.042.007.022.012.01-.01l.343-.204a.39.39 0 0 0-.29-.181c-.094-.015-.213-.013-.336-.011zm.505.408c.055-.098.111-.197.14-.283a.38.38 0 0 0-.024-.333l-.344.204a.04.04 0 0 1-.005-.018c0-.005.001-.001-.005.018a2 2 0 0 1-.111.217zm-1.845 1.3a2 2 0 0 1-.218.112l-.018.005q.013.001.019.005l-.205.344a.38.38 0 0 0 .333.024c.087-.03.185-.085.284-.14zm-.613-.16c-.002.123-.004.241.01.335.017.104.06.219.181.29l.205-.343c.021.013.016.032.01-.01a2 2 0 0 1-.006-.267zm2.647-3.051a.25.25 0 0 0 .25-.25h-.4a.15.15 0 0 1 .15-.15zm-4 4a.25.25 0 0 0 .25-.25h-.4a.15.15 0 0 1 .15-.15z" transform="translate(-1.607 -1.596)scale(4.20158)"/></svg>