<svg xmlns="http://www.w3.org/2000/svg" viewBox="0 0 64 64"><defs><linearGradient id="a" y1="1"><stop offset="0" stop-color="#ff0014"/><stop offset="1" stop-color="#ffe307"/></linearGradient></defs><path fill="url(#a)" d="M23.07 0a2 2 0 0 0-.139.004c-2.74.015-5.006.08-6.986.346-2.682.36-4.99 1.189-6.72 2.918C7.49 4.998 6.658 7.31 6.297 9.996c-.36 2.685-.347 5.892-.347 10.1v35.72c0 4.495 3.69 8.188 8.186 8.188h41.68a2.233 2.233 0 0 0 2.234-2.232 2.233 2.233 0 0 0-2.234-2.232h-.612c-.619-.665-1.623-2.01-1.623-3.723s1.004-3.056 1.623-3.721h.612a2.233 2.233 0 0 0 2.234-2.232v-35.72c0-2.807.013-4.956-.239-6.832-.252-1.874-.868-3.611-2.164-4.906C54.353 1.11 52.614.496 50.742.244 48.87-.01 46.717.005 43.91.005h-2.879l-.097-.004-.096.004h-.02L26.048.001c-1.009 0-1.959 0-2.859.004l-.117-.004zm2.977 4.465h12.65v16.19l-5.117-5.117a2.233 2.233 0 0 0-3.162 0l-5.117 5.117V4.465h.742zm17.12 0h.744c2.807 0 4.865.015 6.234.2 1.368.183 1.9.445 2.35.894s.71.981.895 2.35c.184 1.368.199 3.427.199 6.234v33.49h-39.44c-1.447 0-2.538.883-3.723 1.553v-29.09c0-4.21.015-7.32.308-9.498.294-2.18.769-3.281 1.652-4.162l.006-.006c.883-.884 1.982-1.36 4.16-1.652 1.16-.156 2.582-.233 4.293-.272v21.54a2.233 2.233 0 0 0 3.812 1.582l7.352-7.352 7.35 7.352a2.233 2.233 0 0 0 3.812-1.582zm-29.03 47.64h35.76a9.2 9.2 0 0 0-.785 3.721c0 1.42.325 2.668.787 3.723h-35.76c-2.082 0-3.721-1.641-3.721-3.723s1.639-3.721 3.72-3.721z" transform="translate(.001)scale(.9999)"/></svg>