<svg xmlns="http://www.w3.org/2000/svg" viewBox="0 0 64 64"><defs><linearGradient id="a" x2="0" y2="1"><stop offset="0" stop-color="#00fffa"/><stop offset="1" stop-color="#0078ff"/></linearGradient></defs><path fill="url(#a)" d="M49.61 0 14.4.002l-.441.016A5.87 5.87 0 0 0 8.53 5.87v46.94l.017.441a5.87 5.87 0 0 0 5.85 5.428h35.21l.442-.018a5.87 5.87 0 0 0 5.428-5.85V5.871l-.018-.439a5.87 5.87 0 0 0-5.85-5.43zM14.4 5.869h35.21v11.74H14.4zm14.67 2.934-.344.023a2.934 2.934 0 0 0 .344 5.844h5.869l.344-.021a2.934 2.934 0 0 0-.344-5.846zM14.4 23.473h35.21v11.74H14.4zm14.67 2.934a2.935 2.935 0 0 0 0 5.869h5.869a2.935 2.935 0 0 0 0-5.869zM14.4 41.077h35.21v11.74H14.4zm14.67 2.936-.344.021a2.934 2.934 0 0 0 .344 5.846h5.869l.344-.023a2.934 2.934 0 0 0-.344-5.844z" transform="translate(-2.906)scale(1.091)"/></svg>