<svg xmlns="http://www.w3.org/2000/svg" viewBox="0 0 64 64"><defs><linearGradient id="a" x1="1" x2="0" y1=".5" y2=".5"><stop offset="0" stop-color="#fe3661"/><stop offset=".33" stop-color="#c723c7"/><stop offset=".67" stop-color="#aa35d6"/><stop offset="1" stop-color="#1ea3fd"/></linearGradient><linearGradient id="b" y1="1"><stop offset="0" stop-color="#f0ea4d"/><stop offset="1" stop-color="#fc429d"/></linearGradient></defs><path fill="url(#a)" d="M18.48-.9C8.12-.9-.35 7.57-.35 17.93v28.13c0 10.36 8.47 18.84 18.83 18.84h27.05c10.36 0 18.83-8.474 18.83-18.84V17.93C64.36 7.57 55.888-.9 45.53-.9zm0 7.37h27.05c6.381 0 11.46 5.08 11.46 11.46v28.13c0 6.382-5.084 11.46-11.46 11.46H18.48c-6.38 0-11.46-5.081-11.46-11.46V17.93A11.4 11.4 0 0 1 18.48 6.47" transform="translate(.87 .875)scale(.9726)"/><path fill="url(#b)" d="M13.35 13.22a3.595 3.595 0 0 0-3.592 3.59v4.336a3.6 3.6 0 0 0 1.052 2.54 3.6 3.6 0 0 0 2.54 1.044 3.6 3.6 0 0 0 2.54-1.044 3.6 3.6 0 0 0 1.042-2.54V16.81c0-.95-.37-1.866-1.042-2.538a3.6 3.6 0 0 0-2.54-1.052m37.3 0a3.6 3.6 0 0 0-2.53 1.052 3.58 3.58 0 0 0-1.054 2.53v4.344c0 .947.378 1.861 1.046 2.532h.006v.008a3.6 3.6 0 0 0 2.532 1.044 3.6 3.6 0 0 0 2.538-1.044v-.008a3.6 3.6 0 0 0 1.054-2.532v-4.344c0-.951-.382-1.858-1.054-2.53a3.6 3.6 0 0 0-2.538-1.052m0 15.19A3.595 3.595 0 0 0 47.066 32v.285a3.6 3.6 0 0 0 3.584 3.592 3.593 3.593 0 0 0 3.592-3.592V32a3.597 3.597 0 0 0-3.592-3.59m-37.3.08c-.951 0-1.868.377-2.54 1.05a3.58 3.58 0 0 0-1.052 2.53v.294c0 .95.38 1.86 1.052 2.532s1.589 1.052 2.54 1.052 1.868-.38 2.54-1.052a3.57 3.57 0 0 0 1.042-2.532v-.294c0-.95-.37-1.858-1.042-2.53a3.6 3.6 0 0 0-2.54-1.05m0 10.77a3.594 3.594 0 0 0-3.592 3.59v4.338a3.592 3.592 0 0 0 6.132 2.538 3.6 3.6 0 0 0 1.042-2.538V42.85c0-.95-.37-1.865-1.042-2.538a3.6 3.6 0 0 0-2.54-1.052m37.3 0c-.951 0-1.858.372-2.53 1.044a3.6 3.6 0 0 0-1.054 2.538v4.346c0 .951.381 1.858 1.054 2.53a3.6 3.6 0 0 0 2.53 1.052c.95 0 1.865-.379 2.538-1.052a3.58 3.58 0 0 0 1.054-2.53v-4.346c0-.951-.382-1.858-1.054-2.53v-.008a3.6 3.6 0 0 0-2.538-1.044" transform="translate(.87 .875)scale(.9726)"/><path fill="url(#b)" d="M26.6 21.74v.002c-1.9.047-3.672 1.587-3.672 3.674v13.63a3.68 3.68 0 0 0 1.852 3.198 3.7 3.7 0 0 0 3.702-.008l12.15-7.104a3.35 3.35 0 0 0 1.662-2.906c0-.587-.15-1.159-.443-1.668a3.36 3.36 0 0 0-1.219-1.227l-12.15-7.106a3.53 3.53 0 0 0-1.881-.484z" transform="translate(.87 .875)scale(.9726)"/></svg>