<svg version="1.1" viewBox="0 0 64 64" xmlns="http://www.w3.org/2000/svg">
 <defs>
  <linearGradient id="b" x1="21.36" x2="58.64" y1="28.21" y2="28.21" gradientTransform="matrix(.8814 0 0 1.135 .1136 0)" gradientUnits="userSpaceOnUse">
   <stop stop-color="#f17b41" offset="0"/>
   <stop stop-color="#e05ba2" offset=".512"/>
   <stop stop-color="#cd4bc9" offset="1"/>
  </linearGradient>
  <linearGradient id="a" y1=".5" y2=".5">
   <stop stop-color="#df57ff" offset="0"/>
   <stop stop-color="#241efc" offset=".502"/>
   <stop stop-color="#0eaffe" offset="1"/>
  </linearGradient>
 </defs>
 <path transform="translate(0) scale(1)" d="M17.65 0C7.943 0 0 7.943 0 17.65v28.7C0 56.057 7.943 64 17.65 64h28.7C56.057 64 64 56.057 64 46.35v-28.7C64 7.943 56.057 0 46.35 0zm0 6.602h28.7c6.134 0 11.05 4.913 11.05 11.05v28.7c0 6.134-4.92 11.05-11.05 11.05h-28.7c-6.134 0-11.05-4.92-11.05-11.05v-28.7c0-6.134 4.913-11.05 11.05-11.05" fill="url(#a)"/>
 <path transform="translate(0) scale(1)" d="m41.68 10.86-21.24 0.003906a1.5 1.5 0 0 0-1.5 1.5v2.842a1.5 1.5 0 0 0 1.5 1.5h21.24a1.5 1.5 0 0 0 0.001953 0c0.2386-3.32e-4 0.4767 0.0258 0.709 0.07812 0.1152 0.02594 0.2288 0.05758 0.3457 0.09766a1.5 1.5 0 0 0 0 0.001953c0.1127 0.03859 0.2238 0.08346 0.334 0.1348a1.5 1.5 0 0 0 0.003906 0.003906c0.1139 0.05355 0.2205 0.1096 0.3242 0.1699 0.2107 0.1223 0.4105 0.2626 0.5977 0.4199 0.09269 0.07793 0.1819 0.1605 0.2676 0.2461 0.09159 0.09151 0.1724 0.178 0.2461 0.2656 0.07951 0.09453 0.1448 0.2054 0.2168 0.3086v-0.4629a1.5 1.5 0 0 0 0.2031 0.752 1.5 1.5 0 0 0 0 0.001953 1.5 1.5 0 0 0 0.1348 0.1738 1.5 1.5 0 0 0 0.001953 0.003906 1.5 1.5 0 0 0 0.09766 0.125l-0.1562-0.1562c0.03018 0.05688 0.06171 0.1121 0.08984 0.1719a1.5 1.5 0 0 0 0.001953 0.009766c0.05711 0.1215 0.1029 0.2326 0.1387 0.3359 0.07905 0.2283 0.1334 0.464 0.1602 0.6992 0.01304 0.1148 0.01936 0.2325 0.01953 0.3555v23.13a1.5 1.5 0 0 0 0 0.009766c0.0018 0.2488-0.02153 0.4995-0.07031 0.7461-0.04877 0.2465-0.1223 0.4853-0.2188 0.7148a1.5 1.5 0 0 0-0.003906 0.009766c-0.1915 0.4459-0.461 0.8452-0.7969 1.182v0.001953l-0.001953 0.001953c-0.08778 0.08691-0.1772 0.1667-0.2695 0.2422l-0.001953 0.001953c-0.09272 0.0757-0.1916 0.1497-0.293 0.2168-0.6087 0.4031-1.33 0.6211-2.072 0.6191a1.5 1.5 0 0 0-0.003906 0h-21.25a1.5 1.5 0 0 0-1.5 1.5v2.842a1.5 1.5 0 0 0 1.5 1.5h21.25c0.3488 1.62e-4 0.6888-0.01506 1.021-0.04688 0.7508-0.07184 1.472-0.2258 2.158-0.4609a1.5 1.5 0 0 0 0-0.001953c0.2263-0.07763 0.4531-0.1638 0.6777-0.2617a1.5 1.5 0 0 0 0.001953 0c0.5903-0.2584 1.156-0.5741 1.695-0.9473 0.2691-0.1862 0.5328-0.3886 0.7891-0.6035 0.2579-0.2164 0.5072-0.4463 0.75-0.6895 0.7315-0.7315 1.335-1.522 1.809-2.367 0.1584-0.2828 0.3009-0.5716 0.4297-0.8652 0.7551-1.722 0.7754-2.506 0.7754-3.863v-22.08c0-1.394-0.2631-2.703-0.7891-3.904-0.2618-0.5984-0.5812-1.169-0.9551-1.705-0.1878-0.2695-0.3882-0.526-0.5977-0.7715-0.2113-0.2476-0.4347-0.484-0.668-0.709a1.5 1.5 0 0 0-0.003906-0.005859l-0.003906-0.001953c-0.4622-0.4455-0.9586-0.8545-1.486-1.221a1.5 1.5 0 0 0-0.003907-0.001954c-0.2711-0.1868-0.5513-0.3607-0.8359-0.5195-0.2728-0.1523-0.552-0.2907-0.8379-0.418a1.5 1.5 0 0 0-0.03711-0.01953c-0.5998-0.2666-1.228-0.4726-1.881-0.6172-0.6593-0.1458-1.332-0.2184-2.008-0.2168h-0.001953-0.001953zm5.377 36.69c-0.09024 0.102-0.1692 0.2053-0.2656 0.3066 0.002086-0.002501 0.003774-0.00531 0.005859-0.007812 0.09379-0.0988 0.1718-0.1994 0.2598-0.2988z" fill="url(#b)" stop-color="#000000" stroke-linecap="round" stroke-linejoin="round"/>
 <path transform="translate(0) scale(1)" d="m30.7 23.02-16.76.004c-1.197 0-2.152.927-2.152 2.086v15.88h4.49v-5.615h8.865l5.176 5.615H36.1l-5.01-6.158-.05-.016c3.042-.165 5.452-3.182 5.452-6.18 0-3.097-2.6-5.615-5.797-5.615zm-14.42 4.496h13.7c1.034 0 2.022.783 2.022 1.604 0 .834-.988 1.794-2.022 1.766h-13.7z" fill="url(#a)"/>
</svg>
