<svg xmlns="http://www.w3.org/2000/svg" fill="none" viewBox="0 0 64 64"><defs><linearGradient id="a" x1="26.89" x2="-.311" y1="13.26" y2="43.79" gradientUnits="userSpaceOnUse"><stop offset="0" stop-color="#43e97b"/><stop offset=".978" stop-color="#38f9d7"/></linearGradient></defs><path fill="url(#a)" fill-rule="evenodd" stroke="url(#a)" stroke-width="1.6" d="M18 4a2 2 0 0 1 2-2h8a2 2 0 1 1 0 4h-2v4.11a17.9 17.9 0 0 1 8.67 3.392l1.916-1.916a2 2 0 1 1 2.828 2.828l-1.805 1.805a17.93 17.93 0 0 1 4.39 11.78c0 9.941-8.059 18-18 18s-18-8.059-18-18c0-9.265 7-16.9 16-17.89v-4.11h-2a2 2 0 0 1-2-2zm6 10c-7.732 0-14 6.268-14 14s6.268 14 14 14 14-6.268 14-14-6.268-14-14-14zm1.4 5a2 2 0 0 1 2 2v8.4a2 2 0 0 1-2 2H17a2 2 0 1 1 0-4h6.4V21a2 2 0 0 1 2-2z" clip-rule="evenodd" transform="translate(-1.684 -1.684)scale(1.40358)"/></svg>