<svg version="1.1" viewBox="0 0 64 64" xmlns="http://www.w3.org/2000/svg">
 <defs>
  <linearGradient id="b" x2="0" y1="1">
   <stop stop-color="#fda700" offset="0"/>
   <stop stop-color="#ffde00" offset="1"/>
  </linearGradient>
  <linearGradient id="a" x2="0" y1="1">
   <stop stop-color="#ff001e" offset="0"/>
   <stop stop-color="#ff004b" offset="1"/>
  </linearGradient>
  <linearGradient id="c" x2="0" y2="1">
   <stop stop-color="#b00eff" offset="0"/>
   <stop stop-color="#ff0e9f" offset="1"/>
  </linearGradient>
 </defs>
 <path transform="translate(-.00589 -.0015) scale(.9999) translate(-1.886 -2.493) scale(1.078)" d="m46 16c-4.555 0-8.25 3.695-8.25 8.25v13.75c0 4.555 3.695 8.25 8.25 8.25s8.25-3.695 8.25-8.25h-6.875c-0.7562 0-1.375-0.6188-1.375-1.375s0.6188-1.375 1.375-1.375h6.875v-2.75h-6.875c-0.7562 0-1.375-0.6188-1.375-1.375s0.6188-1.375 1.375-1.375h6.875v-2.75h-6.875c-0.7562 0-1.375-0.6188-1.375-1.375s0.6188-1.375 1.375-1.375h6.875c0-4.555-3.695-8.25-8.25-8.25zm-13.06 16.5c-1.143 0-2.062 0.9195-2.062 2.062v3.438c0 7.657 5.689 13.98 13.06 14.99v2.887h-4.125c-1.143 0-2.062 0.9195-2.062 2.062s0.9195 2.062 2.062 2.062h12.38c1.143 0 2.062-0.9195 2.062-2.062s-0.9195-2.062-2.062-2.062h-4.125v-2.887c7.373-1.006 13.06-7.331 13.06-14.99v-3.438c0-1.143-0.9195-2.062-2.062-2.062-1.143 0-2.062 0.9195-2.062 2.062v3.438c0 6.076-4.924 11-11 11s-11-4.924-11-11v-3.438c0-1.143-0.9195-2.062-2.062-2.062z" fill="url(#c)"/>
 <path transform="translate(-.00589 -.0015) scale(.9999) matrix(1.078 0 0 1.078 -1.886 -2.493)" d="m34 10c-5.176 0-9.375 4.199-9.375 9.375v15.62c0 5.176 4.199 9.375 9.375 9.375s9.375-4.199 9.375-9.375h-7.812c-0.8594 0-1.562-0.7031-1.562-1.562s0.7031-1.562 1.562-1.562h7.812v-3.125h-7.812c-0.8594 0-1.562-0.7031-1.562-1.562s0.7031-1.562 1.562-1.562h7.812v-3.125h-7.812c-0.8594 0-1.562-0.7031-1.562-1.562s0.7031-1.562 1.562-1.562h7.812c0-5.176-4.199-9.375-9.375-9.375zm-14.84 18.75c-1.299 0-2.344 1.045-2.344 2.344v3.906c0 8.701 6.465 15.89 14.84 17.03v3.281h-4.688c-1.299 0-2.344 1.045-2.344 2.344s1.045 2.344 2.344 2.344h14.06c1.299 0 2.344-1.045 2.344-2.344s-1.045-2.344-2.344-2.344h-4.688v-3.281c8.379-1.143 14.84-8.33 14.84-17.03v-3.906c0-1.299-1.045-2.344-2.344-2.344s-2.344 1.045-2.344 2.344v3.906c0 6.904-5.596 12.5-12.5 12.5s-12.5-5.596-12.5-12.5v-3.906c0-1.299-1.045-2.344-2.344-2.344z" fill="url(#a)"/>
 <path transform="translate(-.00589 -.0015) scale(.9999) matrix(1.078 0 0 1.078 -1.886 -2.493)" d="m21 4c-5.797 0-10.5 4.703-10.5 10.5v17.5c0 5.797 4.703 10.5 10.5 10.5s10.5-4.703 10.5-10.5h-8.75c-0.9625 0-1.75-0.7875-1.75-1.75s0.7875-1.75 1.75-1.75h8.75v-3.5h-8.75c-0.9625 0-1.75-0.7875-1.75-1.75s0.7875-1.75 1.75-1.75h8.75v-3.5h-8.75c-0.9625 0-1.75-0.7875-1.75-1.75s0.7875-1.75 1.75-1.75h8.75c0-5.797-4.703-10.5-10.5-10.5zm-16.62 21c-1.455 0-2.625 1.17-2.625 2.625v4.375c0 9.745 7.241 17.8 16.62 19.07v3.676h-5.25c-1.455 0-2.625 1.17-2.625 2.625s1.17 2.625 2.625 2.625h15.75c1.455 0 2.625-1.17 2.625-2.625s-1.17-2.625-2.625-2.625h-5.25v-3.676c9.384-1.28 16.62-9.329 16.62-19.07v-4.375c0-1.455-1.17-2.625-2.625-2.625s-2.625 1.17-2.625 2.625v4.375c0 7.733-6.267 14-14 14s-14-6.267-14-14v-4.375c0-1.455-1.17-2.625-2.625-2.625z" fill="url(#b)"/>
</svg>
