<svg xmlns="http://www.w3.org/2000/svg" style="isolation:isolate" viewBox="0 0 64 64"><linearGradient id="a" x1=".115" x2=".998" y1=".656" y2=".498" gradientTransform="scale(48)" gradientUnits="userSpaceOnUse" transform="scale(1.333)"><stop offset="0" stop-color="#00c6ff"/><stop offset=".987" stop-color="#0072ff"/></linearGradient><path fill="url(#a)" fill-rule="evenodd" d="M20.26 28.19h-5.612l9.353 13.09 9.353-13.09h-5.612v-8.378h5.612l-9.353-13.09-9.353 13.09h5.612zm13.63 12.99c.999-.571 2.279-.225 2.856.771s.234 2.274-.766 2.85a24 24 0 0 1-24.29-.202 2.09 2.09 0 0 1-.717-2.864 2.09 2.09 0 0 1 2.865-.717 19.74 19.74 0 0 0 9.499 2.799 19.7 19.7 0 0 0 10.56-2.637zm7.862-26.02a2.086 2.086 0 1 1 3.729-1.867 23.9 23.9 0 0 1 2.509 11.53 23.9 23.9 0 0 1-2.003 8.817 2.089 2.089 0 0 1-3.826-1.676 19.6 19.6 0 0 0 1.657-7.283 19.9 19.9 0 0 0-2.066-9.52zm-26.34-9.021a2.096 2.096 0 0 1-2.786-.982 2.09 2.09 0 0 1 .972-2.786A24 24 0 0 1 24.818.018a24 24 0 0 1 10.68 2.912 2.091 2.091 0 0 1-2.004 3.669 19.8 19.8 0 0 0-8.813-2.41 19.75 19.75 0 0 0-9.265 1.95zm-10.22 24.16c.367 1.09-.223 2.273-1.316 2.639s-2.278-.227-2.644-1.322A24.2 24.2 0 0 1 .016 23.19 23.95 23.95 0 0 1 2.994 12.4c.553-1.007 1.821-1.371 2.831-.812s1.376 1.83.817 2.837a19.901 19.901 0 0 0-1.45 15.872zm36.77-21.46c-.04 1.152-1.006 2.054-2.157 2.015s-2.054-1.006-2.015-2.157a2.087 2.087 0 0 1 4.172.142m-32.6 28.93a2.088 2.088 0 1 1-4.173-.143 2.088 2.088 0 0 1 4.173.143m33.41 1.139a2.09 2.09 0 0 0-2.015-2.157 2.09 2.09 0 0 0-2.157 2.015c-.039 1.151.864 2.118 2.015 2.157s2.118-.864 2.157-2.015m-31.91-31.13a2.088 2.088 0 1 0-4.173-.141 2.088 2.088 0 0 0 4.173.141" transform="scale(1.333)"/></svg>