<svg xmlns="http://www.w3.org/2000/svg" style="isolation:isolate" viewBox="0 0 64 64"><linearGradient id="a" x2=".907" y1=".5" y2=".92" gradientTransform="matrix(47 0 0 44 .5 2)" gradientUnits="userSpaceOnUse" transform="translate(-.68 -.68)scale(1.362)"><stop offset="0" stop-color="#f7f107"/><stop offset=".839" stop-color="#ffbb24"/></linearGradient><path fill="url(#a)" fill-rule="evenodd" d="M10.97 10H8v28h6V16.03q.27.009.54.02c.72.01 1.45.1 2.15.27.26.05.51.17.72.32.19.18.34.39.44.63.3.72.5 1.48.6 2.25.2 1.37.33 2.76.38 4.15.09 2.03.14 4.06.15 6.1.02 2.74.03 5.48.02 8.22l6 .02c.01-2.76 0-5.52-.02-8.28-.01-2.1-.06-4.2-.15-6.31a44 44 0 0 0-.44-4.73c-.17-1.28-.5-2.52-.99-3.71a7.9 7.9 0 0 0-2.19-2.99 7.9 7.9 0 0 0-3.18-1.52c-1.09-.25-2.19-.39-3.31-.42q-.36-.015-.72-.025V10h-1.393a99 99 0 0 0-1.637 0M30 21.89v5h-5v6h5v5h6v-5h5v-6h-5v-5zM19.25 5H5.5a2 2 0 0 0-2 2v21.5a1.5 1.5 0 0 1-3 0V6c0-2.208 1.792-4 4-4H28c1.104 0 2 .672 2 1.5S29.104 5 28 5zM42.5 5a2 2 0 0 1 2 2v11.5a1.5 1.5 0 0 0 3 0V6c0-2.208-1.792-4-4-4H37c-1.104 0-2 .672-2 1.5S35.896 5 37 5zm2 25.5a1.5 1.5 0 0 1 3 0V42c0 2.208-1.792 4-4 4h-39c-2.208 0-4-1.792-4-4v-1.5a1.5 1.5 0 0 1 3 0v.5a2 2 0 0 0 2 2h37a2 2 0 0 0 2-2z" transform="translate(-.68 -.68)scale(1.362)"/></svg>