<svg xmlns="http://www.w3.org/2000/svg" style="isolation:isolate" viewBox="0 0 64 64"><linearGradient id="a" x1=".417" x2=".679" y1=".019" y2=".964" gradientTransform="matrix(44 0 0 44 2 2)" gradientUnits="userSpaceOnUse" transform="translate(-2.909 -2.909)scale(1.455)"><stop offset=".28" stop-color="#00cdd7"/><stop offset=".94" stop-color="#2086d7"/></linearGradient><path fill="url(#a)" fill-rule="evenodd" d="M35 45.93q-.25.07-.524.07H7.236a5.24 5.24 0 0 1-5.238-5.238v-19.9a2.096 2.096 0 0 1 4.19 0v17.81a3.145 3.145 0 0 0 3.143 3.143h25.14q.274 0 .524.07.25-.07.524-.07h3.143a3.145 3.145 0 0 0 3.143-3.143v-3.143a2.095 2.095 0 0 1 4.19 0v5.238a5.24 5.24 0 0 1-5.238 5.238h-5.238q-.274 0-.524-.07zM12.48 6.19a2.095 2.095 0 0 0 0-4.19H7.242a5.24 5.24 0 0 0-5.238 5.238v5.238a2.096 2.096 0 0 0 4.19 0V9.333A3.145 3.145 0 0 1 9.337 6.19zm29.33 19.9a2.095 2.095 0 0 0 4.19 0V7.23a5.24 5.24 0 0 0-5.238-5.238h-18.86a2.096 2.096 0 0 0 0 4.19h16.76a3.145 3.145 0 0 1 3.143 3.143v16.76zm-19.44-.463c-.858-.491.239-1.398.816-1.425 1.564-.074 2.315 1.752 2.034 3.057-.502 2.335-3.186 3.322-5.298 2.644-3.1-.997-4.353-4.638-3.253-7.54 1.466-3.868 6.095-5.392 9.781-3.862 4.639 1.925 6.436 7.555 4.471 12.02-2.38 5.411-9.016 7.483-14.26 5.08-6.184-2.831-8.531-10.48-5.689-16.5 3.281-6.958 11.94-9.58 18.75-6.298 7.733 3.73 10.63 13.4 6.908 20.99a17 17 0 0 1-.914 1.621l-13.34-9.782z" transform="translate(-2.909 -2.909)scale(1.455)"/></svg>