<svg xmlns="http://www.w3.org/2000/svg" style="isolation:isolate" viewBox="0 0 64 64"><linearGradient id="a" x2=".523" y1=".5" y2=".968" gradientTransform="matrix(43 0 0 47 2.5 1)" gradientUnits="userSpaceOnUse" transform="translate(-.681 -1.362)scale(1.362)"><stop offset="0" stop-color="#00ffa9"/><stop offset="1" stop-color="#f074b3"/></linearGradient><path fill="url(#a)" fill-rule="evenodd" d="M22 45v-3.076a25.3 25.3 0 0 1-6.26-1.294c-2.47-.85-4.77-2.13-6.8-3.77a18.3 18.3 0 0 1-4.68-5.71 15.6 15.6 0 0 1-1.76-7.14 2 2 0 0 1 4-.02c.01 1.85.45 3.67 1.3 5.3.91 1.72 2.15 3.24 3.66 4.46a18.2 18.2 0 0 0 5.58 3.09c2.23.77 4.57 1.16 6.92 1.16h.508c.845 0 1.532.687 1.532 1.532V45h4.215a1 1 0 0 1 1 1v1a1 1 0 0 1-1 1h-12.43a1 1 0 0 1-1-1v-1a1 1 0 0 1 1-1zm19.5-20.74c.028-1.104.944-1.978 2.045-1.95s1.977.946 1.955 2.05c-.05 1.82-.41 3.61-1.09 5.31-.66 1.67-1.6 3.23-2.75 4.61a19.7 19.7 0 0 1-4.1 3.69 22.3 22.3 0 0 1-5.13 2.59c-1.038.37-2.18-.175-2.55-1.215s.177-2.185 1.22-2.555c1.49-.52 2.91-1.24 4.22-2.13 1.22-.83 2.32-1.82 3.27-2.95.88-1.05 1.6-2.24 2.11-3.52.49-1.25.76-2.58.8-3.93m-23.28-1.951h11.55a1 1 0 0 1 1 1v1a1 1 0 0 1-1 1H18.22a1 1 0 0 1-1-1v-1a1 1 0 0 1 1-1m4.385-17.31h2.78c2.02 0 3.95.8 5.38 2.23s2.23 3.36 2.23 5.38v10.78c0 2.02-.8 3.95-2.23 5.38s-3.36 2.23-5.38 2.23h-2.78c-2.02 0-3.95-.8-5.38-2.23s-2.23-3.36-2.23-5.38v-10.78c0-2.02.8-3.95 2.23-5.38s3.36-2.23 5.38-2.23m0-4h2.78c3.08 0 6.03 1.22 8.21 3.4s3.4 5.13 3.4 8.21v10.78c0 3.08-1.22 6.03-3.4 8.21s-5.13 3.4-8.21 3.4h-2.78c-3.08 0-6.03-1.22-8.21-3.4s-3.4-5.13-3.4-8.21v-10.78c0-3.08 1.22-6.03 3.4-8.21s5.13-3.4 8.21-3.4" transform="translate(-.681 -1.362)scale(1.362)"/></svg>