<svg xmlns="http://www.w3.org/2000/svg" viewBox="0 0 64 64"><path fill="#61d3e0" d="m8.122 23.503 47.706 10.128v7.121l-1.906 2.412s-13.337-1.906-13.619-1.906l-2.238 5.72H10.42l-2.533-3.814z"/><path fill="#fff" d="m8.122 23.503-.231 19.665.016.024.215-18.317 47.706 10.127V33.64L8.122 23.513z" opacity=".2"/><path d="m9.239 10.211-3.793 3.815v30.506l3.793 3.814h24.8v-4.085H9.524V14.3H54.63v3.54h.785l3.144 3.025V14.03l-3.793-3.815zm30.029 9.533-3.86 3.935v27.537l3.86 3.934h15.43l3.86-3.934V23.679l-3.86-3.935zm.226 4.086h14.98v17.704h-14.98zm0 21.79h14.98v5.447h-14.98zm5.448 1.362v2.723h4.085v-2.723zM0 51.067l3.767 4.086h33.107l-2.984-3.24v-.846zm60.235 0v.846l-2.984 3.24h2.984l3.767-4.086z" opacity=".2"/><path fill="#fccf42" d="m9.239 8.85-3.793 3.814V43.17l3.793 3.814h24.8V42.9H9.524V12.938H54.63v3.54h.785l3.144 3.025v-6.836l-3.793-3.815H9.24zm30.029 9.532-3.86 3.935v27.537l3.86 3.934h15.43l3.86-3.934V22.317l-3.86-3.935zm.226 4.086h14.98v17.704h-14.98zm0 21.79h14.98v5.447h-14.98zm5.448 1.362v2.723h4.085V45.62zM0 49.705l3.767 4.086h33.107l-2.984-3.24v-.846H.007zm60.235 0v.846l-2.984 3.24h2.984l3.767-4.086z"/></svg>