<svg xmlns="http://www.w3.org/2000/svg" style="isolation:isolate" viewBox="0 0 64 64"><linearGradient id="a" x1=".059" x2=".873" y1=".081" y2=".917" gradientTransform="matrix(31.33 0 0 47 8.333 .5)" gradientUnits="userSpaceOnUse" transform="translate(-.68 -.68)scale(1.362)"><stop offset="0" stop-color="#a5f86a"/><stop offset=".979" stop-color="#2fce92"/></linearGradient><path fill="url(#a)" fill-rule="evenodd" d="M8.333 23.92v7.752a15.9 15.9 0 0 0 3.715 10.23c3.594 4.283 8.432 5.594 11.95 5.594 2.811 0 5.594-.764 8.035-2.236 3.186-1.92 6.065-4.922 7.267-8.467l-6.056-2.155c-1.812 4.517-4.913 6.591-9.246 6.591-3.624 0-9.4-2.574-9.4-9.562v-5.425l-6.267-2.324zm0-23.42v16.92l6.267 2.325V16.32c0-.273-.004-.545.016-.812.208-2.642.678-4.409 2.64-6.168s4.522-2.68 7.144-2.575 4.525 1.211 6.428 3.038c1.468 1.409 2.571 3.767 2.572 6.417v12l6.267 1.886v-13.79c0-4.196-1.651-8.221-4.589-11.19S28.155.492 23.998.492H8.328z" transform="translate(-.68 -.68)scale(1.362)"/></svg>