<svg xmlns="http://www.w3.org/2000/svg" viewBox="0 0 64 64"><defs><linearGradient id="a" x1="1" x2="0" y1="1"><stop offset="0" stop-color="#5433ff"/><stop offset=".517" stop-color="#0bbdff"/><stop offset=".983" stop-color="#a5fecb"/></linearGradient></defs><path fill="url(#a)" d="M10.49 1c-.166 0-.36.01-.598.031l-7.764.573c-.626.054-.845.463-.845.953v8.492c0 .38.137.705.463 1.14l1.824 2.372c.3.38.574.46 1.144.433l9.02-.543c.76-.054.98-.408.98-1.008V3.888c0-.326-.137-.406-.545-.705L11.69 1.44c-.45-.326-.7-.438-1.199-.44zm-.047.785c.486.01.763.196.977.364l1.28.925c.039.02.114.102.104.153q0 .004-.002.01l-.004.005-.006.006-.005.004a.1.1 0 0 1-.06.014l-7.708.46c-.818.055-.981.08-1.414-.273L2.54 2.611c-.11-.109-.055-.246.219-.271l7.46-.547q.12-.01.223-.008zm2.967 2.402c.263 0 .383.186.383.52v8.055c0 .355-.057.654-.547.681l-8.473.49c-.49.028-.707-.136-.707-.572l.002-8.287c0-.178.107-.34.436-.367l8.852-.516zm-.98 1.498-1.881.114c-.274.025-.49.242-.436.54l.709.084v3.756L8.043 5.933l-2.016.137c-.38.027-.518.38-.463.627l.682.055v5.359l-.49.137c-.192.052-.247.326-.192.435l1.88-.11c.68 0 .68-.49.68-.49l-.845-.19V7.836l2.67 4.191c.326.408.436.545.873.545.271 0 .597-.11.953-.3V6.285l.408-.082c.247-.03.301-.273.246-.52z" transform="translate(-4.565 -4.57)scale(4.57154)"/></svg>