<svg xmlns="http://www.w3.org/2000/svg" viewBox="0 0 64 64"><defs><linearGradient id="a" x1="32.3" x2="13.33" y1="36.95" y2="17.39" gradientTransform="scale(1.014 .9859)" gradientUnits="userSpaceOnUse"><stop offset="0" stop-color="#d462aa"/><stop offset=".264" stop-color="#55c6d8"/><stop offset=".457" stop-color="#2ea8b7"/><stop offset=".638" stop-color="#85cc66"/><stop offset=".823" stop-color="#eada39"/><stop offset="1" stop-color="#e4a12c"/></linearGradient></defs><path fill="url(#a)" d="M24 9a3 3 0 0 0-3 3 3 3 0 0 0 2 2.828v3.254a6.01 6.01 0 0 0-4.182 2.889l-3.223-1.047a3 3 63 0 0-2.072-2.775 3 3 63 0 0-3.781 1.926 3 3 63 0 0 1.926 3.779 3 3 63 0 0 3.309-1.027l3.135 1.02a5.99 5.99 0 0 0 1.756 5.504l-2.014 2.773a3 3 81 0 0-3.281 1.113 3 3 81 0 0 .664 4.191 3 3 81 0 0 4.19-.664 3 3 81 0 0 .044-3.465l2.057-2.83A6 6 0 0 0 24 30c.88 0 1.717-.19 2.47-.531l2.06 2.831a3 3 0 0 0 .045 3.463 3 3 0 0 0 4.19.664 3 3 0 0 0 .663-4.191 3 3 0 0 0-3.28-1.111l-2.015-2.773A5.98 5.98 0 0 0 30 24.001q0-.595-.112-1.158l3.131-1.018a3 3 0 0 0 3.307 1.029 3 3 0 0 0 1.928-3.781 3 3 0 0 0-3.78-1.926 3 3 0 0 0-2.073 2.775l-3.22 1.047a6 6 0 0 0-4.18-2.887v-3.254a3 3 0 0 0 2-2.828 3 3 0 0 0-3-3zm0 11c.554 0 1 .446 1 1s-.446 1-1 1-1-.446-1-1 .446-1 1-1m0 3c.554 0 1 .446 1 1v3c0 .554-.446 1-1 1s-1-.446-1-1v-3c0-.554.446-1 1-1" transform="translate(-21.32 -19.1)scale(2.22178)"/></svg>