<svg xmlns="http://www.w3.org/2000/svg" style="isolation:isolate" viewBox="0 0 64 64"><linearGradient id="a" x1=".672" x2=".422" y1=".021" y2=".96" gradientTransform="matrix(32.19 0 0 48 7.905 0)" gradientUnits="userSpaceOnUse" transform="scale(1.333)"><stop offset="0" stop-color="#1a6cff"/><stop offset="1" stop-color="#c522ff"/></linearGradient><path fill="url(#a)" fill-rule="evenodd" d="m15.34 14.95-3.175 6.884 4.443 11.16.192-13.16-.218-.723zm2.125-3.138 10.37-6.11-.02.184-.411 3.742-8.576 6.758-1.044-3.496-.322-1.078zm13.28 30.05 1.178-2.369 3.822-23.12-.746-.48-5.983-3.791-9.269 7.298.783 1.9 10.22 20.56zm-3.034.51-8.264-2.795.015-.77.186-12.67 8.063 16.24zm5.472-31.1-2.606-3.578-.196 1.801zm6.91 2.833-4.399 26.61-3.614 7.288-15.85-5.368-8.327-20.91 5.584-12.11 16.33-9.61 10.28 14.11z" transform="scale(1.333)"/></svg>