<svg version="1.1" viewBox="0 0 64 64" xmlns="http://www.w3.org/2000/svg">
 <defs>
  <linearGradient id="a" x1="1" x2="0" y2="1">
   <stop stop-color="#ff00d4" offset="0"/>
   <stop stop-color="#0040ff" offset="1"/>
  </linearGradient>
 </defs>
 <path transform="translate(-0) scale(1) translate(-0) scale(1) translate(-.01478 .000226) scale(1) translate(-6.612 -6.416) scale(.4001)" d="m100.6 16.04c-3.507 0.07306-7.004 1.318-9.822 3.783l-29.27 25.59c-4.141 3.62-6.831 8.622-7.568 14.07a6.001 6.001 0 0 0 0 2e-3l-2.994 22.18-16.39 35.49a6.001 6.001 0 0 0 0 2e-3c-2.841 6.158-1.592 13.48 3.131 18.35l28.33 29.22a6 6 0 0 0 3.23 1.396 6.001 6.001 0 0 0 0.582 0.4062c14.01 1.164 24.89 0.6366 37.81 5.791a6.001 6.001 0 0 0 0.5176 0.1797l9.508 2.818c9.403 2.788 19.35-3.402 20.97-13.08l1.436-8.59a6.001 6.001 0 0 0 0.0684-0.5918c0.1151-1.731 0.9185-4.46 3.615-9.314 2.715-4.887 7.228-11.75 14.06-21.52 3.121-4.449 2.929-10.5-0.4668-14.74a6.001 6.001 0 0 0-4e-3 -4e-3l-3.713-4.627c-10.17-13.68-12.06-21.5-11.81-41l-2e-3 0.01172c0.0354-2.35-0.7401-4.643-2.195-6.488a6.001 6.001 0 0 0-8e-3 -0.01172l-26.74-33.75a6 6 0 0 0-0.0937-0.05273 6 6 0 0 0-0.0332-0.1016c-2.768-3.262-6.65-5.081-10.64-5.379-0.4994-0.03722-1.001-0.05145-1.502-0.04102zm0.2852 11.93c0.1105-0.0029 0.22-4.09e-4 0.3301 0.0078 0.5527 0.04128 1.074 0.2692 1.56 0.5859 2.772 10.72-2.713 18.72-8.318 28.79a6.001 6.001 0 0 0-0.0918 0.1699c-5.546 10.76-6.688 20.25-5.326 28.96 0.962 6.159 2.987 12.02 5.129 18.12-3.628 0.3145-7.356 0.939-11.28 1.906-3.896-11.03-10.79-20.19-19.66-26.12l2.604-19.3v-2e-3c0.349-2.576 1.619-4.932 3.576-6.643a6.001 6.001 0 0 0 0-2e-3l29.27-25.59a6.001 6.001 0 0 0 2e-3 0c0.6569-0.5745 1.434-0.8667 2.207-0.8867zm13.44 14.8 15.52 19.59c-0.1854 20.16 3.043 32.72 14.18 47.69a6.001 6.001 0 0 0 0.1348 0.1738l3.822 4.766c0.0972 0.1214 0.0989 0.2204 0.01 0.3477a6.001 6.001 0 0 0-4e-3 8e-3c-3.753 5.368-6.742 9.789-9.285 13.71-8.599-13.53-19.06-21.57-31.65-23.9-2.725-8.055-5.254-14.74-6.156-20.52-1.038-6.646-0.4842-12.64 4.129-21.6 3.139-5.621 7.295-12.38 9.303-20.27zm-55.09 49.57c8.847 7.374 15.26 20.15 15.26 34.97 0 7.947-2.182 16.53-5.391 23.36l-22.8-23.51a6.001 6.001 0 0 0-2e-3 -2e-3c-1.294-1.334-1.625-3.274-0.8477-4.961v-2e-3zm38.08 24c1.608-0.0601 3.164-0.0228 4.697 0.1094 12.17 1.047 20.91 7.647 29.8 24.56-1.957 3.974-3.316 7.53-3.611 10.92-1.7e-4 2e-3 1.7e-4 4e-3 0 6e-3l-1.393 8.33c-0.4585 2.742-3.026 4.35-5.723 3.551l-9.25-2.744c-3e-3 -1e-3 -5e-3 -9.2e-4 -8e-3 -2e-3 -11.57-4.566-21.65-5.248-31.59-5.824 3.909-8.364 6.266-18.16 6.266-27.93 0-3.062-0.267-6.049-0.6816-8.98 4.141-1.006 8.103-1.861 11.5-1.988z" fill="url(#a)"/>
</svg>
