<svg xmlns="http://www.w3.org/2000/svg" viewBox="0 0 64 64"><defs><linearGradient id="a" x2="0" y2="1"><stop offset="0" stop-color="#0f9"/><stop offset="1" stop-color="#14dc57"/></linearGradient></defs><path fill="url(#a)" d="M31.96-.004a41.4 41.4 0 0 0-8.978 1.156 27 27 0 0 0-6.861 2.674 24 24 0 0 0-2.848 1.857c-.9.673-1.742 1.416-2.529 2.203-.8.801-1.543 1.671-2.228 2.572a27 27 0 0 0-1.961 2.99 30.2 30.2 0 0 0-2.602 6.104 48.4 48.4 0 0 0-1.688 7.95 64 64 0 0 0-.457 7.36c0 3.09.142 4.542.428 7.615a2.87 2.87 0 0 0 3.119 2.582 2.85 2.85 0 0 0 2.572-3.11c-.257-2.888-.4-4.169-.4-7.087a58 58 0 0 1 .413-6.66c.3-2.373.801-4.719 1.486-6.992a25 25 0 0 1 2.117-4.96q.686-1.226 1.543-2.345a17 17 0 0 1 1.703-1.975c.6-.614 1.244-1.172 1.93-1.686a21 21 0 0 1 2.188-1.43 21 21 0 0 1 5.404-2.102 36.4 36.4 0 0 1 7.734-1.002h1.115a24.7 24.7 0 0 1 4.604.473c1.372.271 2.702.686 3.988 1.23a18.26 18.26 0 0 1 6.463 4.789 21 21 0 0 1 2.244 3.129 29 29 0 0 1 2.102 4.205 38 38 0 0 1 1.602 4.818c.559 2.086 1 4.202 1.328 6.332q.196 1.309.346 2.617a98 98 0 0 1 .299 2.873c.243 2.96.357 5.918.357 8.893 0 3.403-.115 6.79-.125 6.957-.113 1.786-.56 3.507-1.004 3.838 0 0-.872.5-1.787.9a7.7 7.7 0 0 1-3.06.658 7.7 7.7 0 0 1-3.045-.658c-2.202-.97-4.09-2.502-4.09-2.502-.788-1.065-2.056-.955-2.83.244 0 0-1.944 1.786-4.23 3.016a6.45 6.45 0 0 1-2.945.772 5.8 5.8 0 0 1-2.703-.729c-2.159-1.258-3.889-3.158-3.889-3.158-.577-1.264-1.646-1.45-2.387-.416 0 0-1.858 1.43-4.018 2.244a8.8 8.8 0 0 1-3.088.559 11 11 0 0 1-3.389-.588 17.8 17.8 0 0 1-3.889-1.9 2.865 2.865 0 0 0-3.959.836 2.855 2.855 0 0 0 .842 3.953 23.6 23.6 0 0 0 5.146 2.53c1.688.572 3.446.871 5.234.886 1.744 0 3.474-.313 5.117-.914a18 18 0 0 0 2.502-1.186c.901.8 1.887 1.516 2.945 2.115a11.4 11.4 0 0 0 5.547 1.486 12.5 12.5 0 0 0 5.633-1.443 21.3 21.3 0 0 0 3.244-2.158 20 20 0 0 0 2.904 1.602 13.7 13.7 0 0 0 5.346 1.129 13.8 13.8 0 0 0 5.363-1.13c2.173-.972 4.144-2.315 4.144-2.315.931-.924 1.834-3.602 2.016-5.977 0 0 .158-4.32.172-8.65a108 108 0 0 0-.688-12.437c-.114-.93-.242-1.872-.384-2.816a68 68 0 0 0-1.443-6.92 42 42 0 0 0-1.846-5.52 35.6 35.6 0 0 0-2.473-4.975 28 28 0 0 0-2.83-3.932 23.8 23.8 0 0 0-8.508-6.291A25.3 25.3 0 0 0 38.864.564a31.5 31.5 0 0 0-5.676-.57H32zm-8.42 18.66c-3.046.164-5.358 3.288-5.158 6.971.201 3.683 2.837 6.541 5.883 6.375s5.356-3.292 5.156-6.975-2.835-6.537-5.881-6.37m16.22 0c-3.046.164-5.356 3.288-5.156 6.971s2.837 6.541 5.883 6.375 5.356-3.292 5.156-6.975-2.837-6.537-5.883-6.37" transform="translate(0 .006)scale(.9997)"/></svg>