<svg version="1.1" viewBox="0 0 64 64" xmlns="http://www.w3.org/2000/svg" xmlns:xlink="http://www.w3.org/1999/xlink">
 <defs>
  <linearGradient id="a" y1="1">
   <stop stop-color="#9c33c4" offset="0"/>
   <stop stop-color="#ff1950" offset=".402"/>
   <stop stop-color="#ff8724" offset=".987"/>
  </linearGradient>
  <linearGradient id="b" x1="39.67" x2="153.1" y1="152.7" y2="39.98" gradientUnits="userSpaceOnUse" xlink:href="#a"/>
  <linearGradient id="d" x1="78.17" x2="148.2" y1="114.9" y2="47.95" gradientTransform="scale(.8481 1.179)" gradientUnits="userSpaceOnUse" xlink:href="#a"/>
  <linearGradient id="c" x1="82.33" x2="195.2" y1="122.1" y2="46.07" gradientTransform="scale(.8481 1.179)" gradientUnits="userSpaceOnUse" xlink:href="#a"/>
 </defs>
 <path transform="translate(.00045 .00045) scale(1) translate(-0) scale(1) matrix(.3938 0 0 .3938 -5.809 -5.809)" d="m96 14.75c-44.79 0-81.25 36.46-81.25 81.25s36.46 81.25 81.25 81.25 81.25-36.46 81.25-81.25-36.46-81.25-81.25-81.25zm0 14.5c36.96 0 66.75 29.79 66.75 66.75s-29.79 66.75-66.75 66.75-66.75-29.79-66.75-66.75 29.79-66.75 66.75-66.75z" fill="url(#b)"/>
 <path transform="translate(.00045 .00045) scale(1) translate(-0) scale(1) matrix(.3938 0 0 .3938 -5.809 -5.809)" d="m96 37.75c-12.52 0-23.42 7.436-30.73 18.09-7.304 10.64-11.52 24.74-11.52 40.17s4.221 29.52 11.52 40.17c7.312 10.65 18.21 18.09 30.73 18.09s23.42-7.436 30.73-18.09c7.304-10.64 11.52-24.74 11.52-40.17s-4.221-29.52-11.52-40.17c-7.312-10.65-18.21-18.09-30.73-18.09zm0 14.5c6.814 0 13.4 3.967 18.77 11.79 5.356 7.804 8.982 19.23 8.982 31.96s-3.625 24.15-8.982 31.96c-5.367 7.821-11.96 11.79-18.77 11.79-6.814 0-13.4-3.967-18.77-11.79-5.356-7.804-8.977-19.23-8.977-31.96s3.62-24.15 8.977-31.96c5.367-7.821 11.96-11.79 18.77-11.79z" fill="url(#d)"/>
 <path transform="translate(.00045 .00045) scale(1) translate(-0) scale(1) matrix(.3938 0 0 .3938 -5.809 -5.809)" d="m115.5 24.75c-34.69 0-61.75 32.56-61.75 71.25s27.06 71.25 61.75 71.25 61.75-32.56 61.75-71.25-27.05-71.25-61.75-71.25zm0 14.5c25.48 0 47.25 24.74 47.25 56.75s-21.76 56.75-47.25 56.75-47.25-24.74-47.25-56.75 21.77-56.75 47.25-56.75z" fill="url(#c)"/>
</svg>
