<svg style="isolation:isolate" version="1.1" viewBox="0 0 64 64" xmlns="http://www.w3.org/2000/svg">
 <linearGradient id="a" transform="translate(-2.1e-5 -1e-6) scale(1) translate(.002639 .002639) scale(1.319)" x2="1" y1=".5" y2=".5" gradientTransform="translate(25.7 26.18)scale(21.82)" gradientUnits="userSpaceOnUse">
  <stop stop-color="#f17b41" offset="0"/>
  <stop stop-color="#e05ba2" offset=".5"/>
  <stop stop-color="#cd4bc9" offset=".975"/>
 </linearGradient>
 <linearGradient id="b" transform="translate(-2.1e-5 -1e-6) scale(1) translate(.002639 .002639) scale(1.319)" y1=".5" y2=".5">
  <stop stop-color="#f17b41" offset="0"/>
  <stop stop-color="#e05ba2" offset=".5"/>
  <stop stop-color="#cd4bc9" offset=".975"/>
 </linearGradient>
 <path transform="translate(-2.1e-5 -1e-6) scale(1) translate(.002639 .002639) scale(1.319)" d="M27.69 36.43v0a.995.995 0 0 1-1.065.915v0a.99.99 0 0 1-.916-1.063v0a10.905 10.905 0 0 1 10.893-10.096c2.894 0 5.674 1.15 7.725 3.193 2.045 2.048 3.197 4.825 3.197 7.716s-1.152 5.668-3.197 7.716a10.95 10.95 0 0 1-7.725 3.193v0a.993.993 0 0 1-.993-.992v0c0-.547.445-.991.993-.991v0a8.96 8.96 0 0 0 6.32-2.614c1.673-1.676 2.616-3.947 2.616-6.312s-.943-4.636-2.616-6.312a8.96 8.96 0 0 0-6.32-2.614 8.95 8.95 0 0 0-6.082 2.38 8.93 8.93 0 0 0-2.83 5.881zm4.756 8.569v0a.99.99 0 0 1 .417 1.339v0a.993.993 0 0 1-1.34.416v0a10.94 10.94 0 0 1-4.752-4.904v0a.99.99 0 0 1 .457-1.326v0a1 1 0 0 1 1.331.459v0a8.96 8.96 0 0 0 3.887 4.016zm2.454-8.787v-3.266q.524.079 1.04.176c.423.081.834.197 1.223.343q.345.13.646.317.172.103.303.244a.8.8 0 0 1 .217.519c.006.154-.017.313-.063.463q-.05.155-.16.291a.9.9 0 0 1-.274.245 2.5 2.5 0 0 1-.52.261q-.13.05-.269.094-.171.046-.343.086a7 7 0 0 1-1.109.176 20 20 0 0 1-.691.051zm0 1.783q.437.026.874.086.446.059.892.163.3.07.583.18.29.11.537.27.171.11.291.253.112.136.172.291c.051.142.08.292.08.437q0 .226-.069.446a.9.9 0 0 1-.165.287 1.2 1.2 0 0 1-.281.249q-.24.162-.531.266a5 5 0 0 1-.269.094 8.626 8.626 0 0 1-1.457.274 15 15 0 0 1-.657.052v-3.348zm3.92-.866q.24.123.463.271c.286.18.526.394.726.63q.3.353.446.758.153.426.16.87c.006.296-.046.596-.143.883q-.137.406-.429.767-.3.361-.72.639a5.436 5.436 0 0 1-1.463.66 10 10 0 0 1-.503.137q-.737.172-1.508.249-1.04.096-2.086.103c-.303 0-.595-.09-.812-.249-.217-.163-.337-.381-.337-.609v-10.29c0-.244.137-.476.383-.639.24-.163.566-.24.891-.214q1.322.116 2.618.36.875.168 1.691.476a6 6 0 0 1 1.058.518c.285.172.537.378.743.605q.29.317.445.686c.103.244.16.501.172.758.011.304-.034.609-.126.9q-.13.42-.423.78c-.194.245-.44.463-.72.647q-.25.166-.526.3v0z" fill="url(#a)" fill-rule="evenodd" stroke="url(#b)" stroke-linecap="square" stroke-miterlimit="3" vector-effect="non-scaling-stroke"/>
 <linearGradient id="e" transform="translate(-2.1e-5 -1e-6) scale(1) translate(.002639 .002639) scale(1.319)" x2="1" y1=".5" y2=".5" gradientTransform="matrix(43.64 0 0 48 .478 0)" gradientUnits="userSpaceOnUse">
  <stop stop-color="#f96adb" offset="0"/>
  <stop stop-color="#bc31d2" offset=".988"/>
 </linearGradient>
 <path transform="translate(-2.1e-5 -1e-6) scale(1) translate(.002639 .002639) scale(1.319)" d="M32.11 4.364c-1.204 0-2.182-.978-2.182-2.182S30.906 0 32.11 0h6.546a5.457 5.457 0 0 1 5.454 5.455V12c0 1.204-.978 2.182-2.182 2.182s-2.182-.978-2.182-2.182V7.636a3.273 3.273 0 0 0-3.272-3.272zm-9.818 39.27c1.204 0 2.182.978 2.182 2.182s-.978 2.182-2.182 2.182H5.932a5.457 5.457 0 0 1-5.454-5.455V5.453A5.457 5.457 0 0 1 5.932-.002h15.02c1.806 0 4.282 1.064 5.526 2.374l16.91 17.82c.891.807.962 2.187.158 3.082a2.19 2.19 0 0 1-3.082.169l-17.18-18.28c-.413-.439-1.236-.795-1.838-.795H8.106A3.274 3.274 0 0 0 4.833 7.64v32.73a3.274 3.274 0 0 0 3.273 3.272h14.18z" fill="url(#e)" fill-rule="evenodd"/>
 <linearGradient id="f" transform="translate(-2.1e-5 -1e-6) scale(1) translate(.002639 .002639) scale(1.319)" x1=".061" x2=".969" y1=".84" y2=".176" gradientTransform="matrix(22.91 0 0 25.37 6.478 15.82)" gradientUnits="userSpaceOnUse">
  <stop stop-color="#879af2" offset="0"/>
  <stop stop-color="#d3208b" offset=".479"/>
  <stop stop-color="#fda000" offset=".979"/>
 </linearGradient>
 <path transform="translate(-2.1e-5 -1e-6) scale(1) translate(.002639 .002639) scale(1.319)" d="M9.75 24.34v3.497l.404.288a12.1 12.1 0 0 0 3.207 1.603c1.419.393 2.88.578 4.353.546a42 42 0 0 0 4.396-.262 1.636 1.636 0 0 1 .371 3.251 45 45 0 0 1-4.723.283c-1.8.044-3.6-.185-5.346-.687a15 15 0 0 1-2.662-1.137v3.751l.404.288a12.1 12.1 0 0 0 3.207 1.604c1.419.392 2.88.578 4.353.545a42 42 0 0 0 4.396-.262 1.636 1.636 0 0 1 .371 3.251 45 45 0 0 1-4.723.284c-1.8.043-3.6-.186-5.346-.687a15 15 0 0 1-4.156-2.073l-1.233-1.331-.539-16.18a2.849 2.849 0 0 1 .452-1.72c.262-.414.589-.764.971-1.047a8.4 8.4 0 0 1 2.596-1.287 19 19 0 0 1 3.393-.764 29 29 0 0 1 4.036-.273c1.353 0 2.706.087 4.037.273 1.156.153 2.28.404 3.392.764a8.4 8.4 0 0 1 2.597 1.287c.382.283.709.633.971 1.036.294.469.458 1.004.458 1.549v4.364c0 1.204-.733 2.182-1.637 2.182-.903 0-1.636-.978-1.636-2.182v-.752a8 8 0 0 1-.753.261c-1.112.36-2.236.611-3.392.764a29 29 0 0 1-4.037.272 29 29 0 0 1-4.036-.272 19 19 0 0 1-3.393-.764 9 9 0 0 1-.753-.261zm.164-3.612a5.3 5.3 0 0 1 1.56-.752 17 17 0 0 1 2.858-.644c1.189-.164 2.4-.24 3.6-.24s2.411.076 3.6.24c.971.131 1.931.349 2.858.644.557.163 1.08.414 1.56.752a5.3 5.3 0 0 1-1.56.753c-.927.295-1.887.513-2.858.644-1.189.163-2.4.24-3.6.24s-2.411-.077-3.6-.24a17 17 0 0 1-2.858-.644 5.3 5.3 0 0 1-1.56-.753" fill="url(#f)" fill-rule="evenodd"/>
</svg>
