<svg xmlns="http://www.w3.org/2000/svg" viewBox="0 0 64 64"><defs><linearGradient id="d" x2="0" y2="1"><stop offset="0" stop-color="#fd00fd"/><stop offset=".5" stop-color="#8511be"/><stop offset="1" stop-color="#2530b2"/></linearGradient><linearGradient id="b" x2="0" y2="1"><stop offset="0" stop-color="#c1cc00"/><stop offset=".25" stop-color="#dfcd00"/><stop offset=".5" stop-color="#f0cc00"/><stop offset=".75" stop-color="#fd8c08"/><stop offset="1" stop-color="#f25c13"/></linearGradient><linearGradient id="a" x2="0" y1="1"><stop offset="0" stop-color="#9000ff"/><stop offset="1" stop-color="#ffa34e"/></linearGradient></defs><path fill="url(#a)" d="M32 14c-9.941 0-18 8.135-18 18.08v6.924h4V32.08C18 24.433 24.353 18 32 18s14 6.429 14 14.08v6.924h4V32.08C50 22.139 41.941 14 32 14" transform="translate(-24.89 -24.89)scale(1.77782)"/><path fill="url(#b)" d="M20 33a6 6 0 0 0-6 6 6 6 0 0 0 6 6z" transform="translate(-24.89 -24.89)scale(1.778)"/><path fill="url(#d)" d="M24 28a4 4.125 0 0 0-4 4.125v13.75A4 4.125 0 0 0 24 50a4 4.125 0 0 0 4.001-4.125v-13.75A4 4.125 0 0 0 24 28" transform="translate(-24.89 -24.89)scale(1.778)"/><path fill="url(#d)" d="M40 28a4 4.125 0 0 0-4.001 4.125v13.75A4 4.125 0 0 0 40 50a4 4.125 0 0 0 4-4.125v-13.75A4 4.125 0 0 0 40 28" transform="translate(-24.89 -24.89)scale(1.778)"/><path fill="url(#b)" d="M44 33v12a6 6 0 0 0 6-6 6 6 0 0 0-6-6" transform="translate(-24.89 -24.89)scale(1.778)"/></svg>