<svg xmlns="http://www.w3.org/2000/svg" viewBox="0 0 64 64"><defs><linearGradient id="a" x1="1" x2="0" y2="1"><stop offset="0" stop-color="#00efff"/><stop offset="1" stop-color="#07f"/></linearGradient></defs><path fill="url(#a)" d="M33.08.02a32.05 32.05 0 0 0-14.96 3.137 2.785 2.785 0 0 0-1.295 3.715 2.795 2.795 0 0 0 3.713 1.309h.006a26.3 26.3 0 0 1 12.35-2.6 26.4 26.4 0 0 1 11.75 3.213 2.787 2.787 0 0 0 2.672-4.89A32 32 0 0 0 33.076.02zM11.79 7.49a2.782 2.782 0 1 0-.189 5.562 2.782 2.782 0 0 0 .189-5.561m41.46 1.417a2.781 2.781 0 1 0 2.686 2.873 2.78 2.78 0 0 0-2.686-2.873M6.45 15.09a2.76 2.76 0 0 0-2.451 1.432A31.9 31.9 0 0 0 .03 30.9c-.13 3.81.42 7.615 1.619 11.23a2.787 2.787 0 0 0 3.525 1.762 2.71 2.71 0 0 0 1.865-2.54 28 28 0 0 0 1.902 3.966h46.11a22 22 0 0 0 .957-1.838 2.72 2.72 0 0 0 1.629 2.785 2.783 2.783 0 0 0 3.666-1.434 31.9 31.9 0 0 0 2.67-11.75 31.9 31.9 0 0 0-3.344-15.37 2.78 2.78 0 0 0-3.73-1.248 2.72 2.72 0 0 0-1.486 2.83l-.004-.002a16 16 0 0 0-.353-.635H9.096a2.785 2.785 0 0 0-2.646-3.573zm2.877 4.906h2.666v2.666H9.327zm5.332 0h2.666v2.666h-2.666zm5.332 0h2.666v2.666h-2.666zm5.332 0h2.666v2.666h-2.666zm5.332 0h2.666v2.666h-2.666zm5.332 0h2.666v2.666h-2.666zm5.332 0h2.666v2.666h-2.666zm5.332 0h2.666v2.666h-2.666zm5.332 0h2.666v2.666h-2.666zM6.803 23.99h3.865v16H6.797a26.5 26.5 0 0 1-1.215-8.898 26.5 26.5 0 0 1 1.221-7.098zm9.184.005h13.33v16h-13.33zm18.66 0h13.33v16h-13.33zm18.68 0h3.861a26.5 26.5 0 0 1 1.223 8.898 26.3 26.3 0 0 1-1.219 7.098h-3.865zm-44 17.33h2.666v2.666H9.327zm5.332 0h2.666v2.666h-2.666zm5.332 0h2.666v2.666h-2.666zm5.332 0h2.666v2.666h-2.666zm5.332 0h2.666v2.666h-2.666zm5.332 0h2.666v2.666h-2.666zm5.332 0h2.666v2.666h-2.666zm5.332 0h2.666v2.666h-2.666zm5.332 0h2.666v2.666h-2.666zM9.793 47.47c-1.534-.052-2.823 1.151-2.875 2.686s1.152 2.822 2.688 2.875a2.782 2.782 0 0 0 .187-5.56m44.54 1.518a2.784 2.784 0 0 0-2.875 2.686 2.784 2.784 0 0 0 2.686 2.875 2.784 2.784 0 0 0 2.875-2.686 2.784 2.784 0 0 0-2.686-2.875m-37.19 5.291a2.785 2.785 0 0 0-1.553 5.168 31.99 31.99 0 0 0 32.38.27c1.333-.767 1.791-2.47 1.022-3.799s-2.475-1.79-3.807-1.029h.008a26.3 26.3 0 0 1-14.08 3.516 26.3 26.3 0 0 1-12.66-3.73 2.8 2.8 0 0 0-1.31-.394z" transform="translate(-.01 -.001)"/></svg>