<svg xmlns="http://www.w3.org/2000/svg" style="isolation:isolate" viewBox="0 0 64 64"><linearGradient id="a" x2=".907" y1=".5" y2=".92" gradientTransform="matrix(23.56 0 0 4 12 22)" gradientUnits="userSpaceOnUse" transform="translate(-.576 -.725)scale(1.36)"><stop offset="0" stop-color="#ff416c"/><stop offset=".844" stop-color="#ff4b2b"/></linearGradient><path fill="url(#a)" fill-rule="evenodd" d="M29.78 22h4.008a1.78 1.78 0 0 1 1.778 1.779v.442A1.78 1.78 0 0 1 33.788 26H29.78a1.78 1.78 0 0 1-1.779-1.779v-.442A1.78 1.78 0 0 1 29.78 22m-16 0h4.008a1.78 1.78 0 0 1 1.778 1.779v.442A1.78 1.78 0 0 1 17.788 26H13.78a1.78 1.78 0 0 1-1.779-1.779v-.442A1.78 1.78 0 0 1 13.78 22" transform="translate(-.576 -.725)scale(1.36)"/><linearGradient id="c" x2="1" y1=".5" y2=".5" gradientTransform="matrix(47.04 0 0 47.01 .423 .55)" gradientUnits="userSpaceOnUse" transform="translate(-.576 -.725)scale(1.36)"><stop offset="0" stop-color="#f7f206"/><stop offset=".978" stop-color="#ffbb24"/></linearGradient><path fill="url(#c)" fill-rule="evenodd" d="M42.1 17.67a2.139 2.139 0 0 1 4.033-1.423 23.6 23.6 0 0 1 .31 14.72 2.137 2.137 0 0 1-2.667 1.428 2.147 2.147 0 0 1-1.429-2.674 19.3 19.3 0 0 0-.247-12.05zm-5.005-7.988a2 2 0 0 0 2.706-2.946 23.473 23.473 0 0 0-31.24-.462 2.003 2.003 0 0 0 2.619 3.029 19.45 19.45 0 0 1 13.03-4.741 19.5 19.5 0 0 1 12.89 5.12zm-31.28 7.132a2.004 2.004 0 0 0-3.721-1.488 23.63 23.63 0 0 0-.703 15.42 2 2 0 0 0 3.835-1.135 19.5 19.5 0 0 1 .589-12.79zm4.386 21.11a2.001 2.001 0 0 0-2.764 2.892l.477.456.022.02c4.333 4.02 10.03 6.261 15.94 6.273s11.62-2.205 15.96-6.21a2.01 2.01 0 0 0 .113-2.828 2 2 0 0 0-2.827-.113c-3.598 3.319-8.333 5.16-13.24 5.153s-9.623-1.861-13.22-5.194l-.47-.449zm11.8-13.92c0-.53.21-1.04.59-1.41.37-.38.88-.59 1.41-.59s1.04.21 1.41.59c.38.37.59.88.59 1.41s-.21 1.04-.59 1.41c-.37.38-.88.59-1.41.59s-1.04-.21-1.41-.59c-.38-.37-.59-.88-.59-1.41m-4 0c0-3.311 2.689-6 6-6s6 2.689 6 6-2.689 6-6 6-6-2.689-6-6" transform="translate(-.576 -.725)scale(1.36)"/></svg>