<svg xmlns="http://www.w3.org/2000/svg" style="isolation:isolate" viewBox="0 0 64 64"><linearGradient id="a" x1=".309" x2=".683" y1=".352" y2=".913" gradientTransform="matrix(48 0 0 45.19 0 1.407)" gradientUnits="userSpaceOnUse" transform="scale(1.333)"><stop offset="0" stop-color="#f7f107"/><stop offset=".839" stop-color="#ffbb24"/></linearGradient><path fill="url(#a)" fill-rule="evenodd" d="M22.17 1.407C9.92 1.407 0 11.527 0 23.997s9.927 22.59 22.17 22.59a21.8 21.8 0 0 0 4.978-.604c-10.05-2.369-17.16-11.48-17.17-21.99.012-10.51 7.14-19.63 17.2-21.99a21.8 21.8 0 0 0-5-.604zm23.87 23.63a.19.19 0 0 1-.161.19l-3.07.512a.98.98 0 0 0-.789.724 11.7 11.7 0 0 1-1.272 3.062.99.99 0 0 0 .044 1.075l1.805 2.544a.2.2 0 0 1-.022.248l-2.178 2.179a.19.19 0 0 1-.139.058.2.2 0 0 1-.11-.037l-2.536-1.805a.99.99 0 0 0-1.075-.044 11.7 11.7 0 0 1-3.062 1.272.97.97 0 0 0-.724.789l-.519 3.07a.19.19 0 0 1-.19.161h-3.077a.19.19 0 0 1-.19-.161l-.512-3.07a.98.98 0 0 0-.724-.789 12.1 12.1 0 0 1-2.997-1.228 1 1 0 0 0-.497-.132.97.97 0 0 0-.57.183l-2.558 1.82a.2.2 0 0 1-.11.037.2.2 0 0 1-.139-.059l-2.178-2.178a.2.2 0 0 1-.022-.248l1.798-2.522c.227-.322.241-.746.044-1.082a11.6 11.6 0 0 1-1.286-3.056 1 1 0 0 0-.79-.723l-3.092-.527a.19.19 0 0 1-.161-.19v-3.077a.19.19 0 0 1 .161-.19l3.048-.512a.99.99 0 0 0 .797-.731c.27-1.074.687-2.112 1.25-3.07a.98.98 0 0 0-.051-1.067l-1.82-2.558a.2.2 0 0 1 .022-.249l2.178-2.178a.19.19 0 0 1 .248-.022l2.522 1.798c.322.227.746.241 1.082.044a11.6 11.6 0 0 1 3.055-1.286c.373-.103.658-.41.724-.79l.526-3.092a.19.19 0 0 1 .19-.161h3.078a.19.19 0 0 1 .19.161l.511 3.048a.99.99 0 0 0 .731.797c1.104.278 2.157.709 3.136 1.286a.99.99 0 0 0 1.075-.043l2.522-1.813a.2.2 0 0 1 .109-.037c.029 0 .088.008.139.059l2.178 2.178a.2.2 0 0 1 .022.249l-1.805 2.536a.99.99 0 0 0-.044 1.075c.57.957.994 1.988 1.272 3.062.095.38.409.665.789.724l3.07.519a.19.19 0 0 1 .161.19v3.077zm.168-5.211-2.456-.417a14 14 0 0 0-.987-2.383l1.447-2.025a2.156 2.156 0 0 0-.233-2.785L41.8 10.038a2.146 2.146 0 0 0-2.777-.234l-2.032 1.447a14 14 0 0 0-2.471-1.016l-.409-2.427a2.16 2.16 0 0 0-2.135-1.805h-3.077a2.16 2.16 0 0 0-2.135 1.805l-.424 2.486c-.818.256-1.615.592-2.375 1.001l-2.01-1.447a2.15 2.15 0 0 0-1.258-.402 2.13 2.13 0 0 0-1.527.636l-2.186 2.178a2.165 2.165 0 0 0-.234 2.785l1.462 2.054a13.6 13.6 0 0 0-.972 2.39l-2.427.41a2.16 2.16 0 0 0-1.805 2.134v3.077c0 1.06.76 1.959 1.805 2.135l2.485.424c.256.818.593 1.615 1.002 2.375l-1.44 2.003a2.155 2.155 0 0 0 .234 2.785l2.178 2.179c.409.409.95.635 1.528.635a2.12 2.12 0 0 0 1.25-.402l2.054-1.461c.738.387 1.513.701 2.31.95l.409 2.456a2.16 2.16 0 0 0 2.134 1.805h3.085c1.06 0 1.959-.76 2.134-1.805l.417-2.456a14 14 0 0 0 2.383-.987l2.025 1.447c.365.263.804.402 1.257.402.577 0 1.118-.226 1.528-.636l2.178-2.178a2.165 2.165 0 0 0 .234-2.785l-1.448-2.032c.403-.767.739-1.564.987-2.383l2.456-.409a2.16 2.16 0 0 0 1.806-2.135V21.96a2.13 2.13 0 0 0-1.791-2.134m-15.7 10.63c-3.84 0-6.96-3.12-6.96-6.96a6.965 6.965 0 0 1 6.96-6.961 6.965 6.965 0 0 1 6.961 6.961c0 3.84-3.12 6.96-6.961 6.96m0-16.38c-5.2 0-9.423 4.224-9.423 9.424s4.223 9.423 9.423 9.423 9.424-4.223 9.424-9.423-4.224-9.424-9.424-9.424" transform="scale(1.333)"/></svg>