<svg xmlns="http://www.w3.org/2000/svg" viewBox="0 0 64 64"><defs><linearGradient id="a" x1="1" x2="0" y2="1"><stop offset="0" stop-color="#05f"/><stop offset="1" stop-color="#00ffd8"/></linearGradient></defs><path fill="url(#a)" d="M12.74 8.285c-1.792 0-3.452.56-4.807 1.514a8.35 8.35 0 0 0-3.391-.713c-.754 0-1.486.098-2.26.324s-1.539.688-2.234 1.18c-.058.038-.058.08-.055.13.06.131.203.082.317.038q.28-.086.568-.152c.592-.137 1.18-.252 1.762-.256 1.855-.014 4.168.76 5.438 1.896.15.107.172-.02.258-.103 1.509-2.035 3.997-3.037 6.766-3.037.427 0 .74.035.766.035a.123.123 0 0 0 .123-.121c0-.073-.056-.104-.084-.116a8.3 8.3 0 0 0-3.166-.619z" transform="matrix(4 0 0 4 .03 -.006)"/><path fill="url(#a)" d="M13.16 3.715a4.85 4.85 0 0 0-2.588.703 4.9 4.9 0 0 0-2.006-.656 4.84 4.84 0 0 0-2.803.572c-.012.005-.059.03-.059.084 0 .079.036.104.178.088.244-.043.844-.111 1.32-.064 1.336.132 2.5.56 3.318 1.525.042.046.08.043.123-.002 1.03-1.24 2.603-1.73 4.297-1.564.23.024.317.045.393.052.056.007.086-.038.086-.087.006-.086-.098-.09-.145-.133a4.9 4.9 0 0 0-2.115-.518z" transform="matrix(4 0 0 4 .03 -.006)"/></svg>