<svg xmlns="http://www.w3.org/2000/svg" viewBox="0 0 64 64"><defs><linearGradient id="a" y2="1"><stop offset="0" stop-color="#ffeb00"/><stop offset="1" stop-color="#ff2824"/></linearGradient></defs><path fill="url(#a)" d="M30.31.27v.003h-.002c-16.79.34-31.04 14.1-31.04 31.73 0 20.16 18.65 35.24 38.35 31.04.72-.151 1.17-.825 1.17-1.445s-.45-1.292-1.17-1.443c-13.29-2.832-22.78-14.56-22.8-28.15v-.002c.004-13.59 9.497-25.31 22.8-28.15.717-.153 1.168-.822 1.168-1.44 0-.62-.45-1.293-1.17-1.444a32 32 0 0 0-7.312-.705zm.053 2.952h.004c.09-.001.21.027.302.03-11.19 5.028-18.78 16.09-18.78 28.75.003 12.38 7.244 23.24 18 28.42-15.02-.543-27.67-12.56-27.67-28.42 0-16.06 12.91-28.49 28.14-28.78z" transform="translate(.715 .716)scale(.9774)"/><path fill="url(#a)" d="m32.39 8.928-.006.002h-.002a1.5 1.5 0 0 0-1.324.984 1.49 1.49 0 0 0 .412 1.594h-.004c.241.216.744.964 1.188 1.94s.876 2.193 1.184 3.447c.452 1.844.55 3.685.492 5.15-1.762-.502-3.47-.914-4.984-.984a17 17 0 0 0-1.506-.002h-.002a1 1 0 0 0-.101.012c-1.422.07-2.733.318-3.938.722-3.286 1.102-5.711 3.252-7.746 5.406-.49.517-.5 1.294-.176 1.805s1.033.834 1.71.612c.307-.102 1.207-.164 2.274-.06 1.067.102 2.34.338 3.578.698 1.826.532 3.472 1.371 4.713 2.154-3.096 3.006-4.884 6.03-5.48 8.975-.688 3.396-.042 6.568.807 9.408.2.686.872 1.086 1.478 1.06.606-.025 1.243-.48 1.385-1.182.066-.317.463-1.123 1.086-1.994a20.3 20.3 0 0 1 2.396-2.748c1.374-1.317 2.919-2.328 4.217-3.01 1.055 4.192 2.784 7.257 5.039 9.248 2.598 2.294 5.67 3.324 8.555 4.008.692.165 1.37-.215 1.65-.752s.205-1.314-.328-1.787c-.242-.215-.744-.961-1.188-1.938a20.3 20.3 0 0 1-1.18-3.45c-.453-1.847-.552-3.685-.495-5.149 4.152 1.178 7.665 1.211 10.51.256 3.287-1.103 5.708-3.254 7.742-5.408l.006-.002c.483-.518.488-1.29.164-1.799s-1.028-.83-1.7-.611h-.003c-.306.1-1.205.165-2.272.06a20.3 20.3 0 0 1-3.578-.703c-1.826-.531-3.47-1.367-4.71-2.15 3.097-3.008 4.887-6.035 5.483-8.98.689-3.397.04-6.57-.81-9.41a1.48 1.48 0 0 0-1.477-1.055 1.48 1.48 0 0 0-1.383 1.176c-.066.316-.464 1.126-1.088 1.998a20.4 20.4 0 0 1-2.398 2.748c-1.368 1.312-2.908 2.315-4.203 2.998-1.055-4.188-2.782-7.25-5.035-9.24-2.598-2.295-5.673-3.32-8.557-4.004a1.5 1.5 0 0 0-.4-.043zM35.468 13c1.42.536 2.772 1.173 3.924 2.19 1.97 1.74 3.575 4.417 4.463 8.857l-3.631 5.254-2.955-5.588c.405-2.205.067-4.931-.566-7.518-.301-1.229-.787-2.184-1.234-3.195zm19.31 5.68c.247 1.498.377 2.988.072 4.492-.521 2.575-2.042 5.303-5.44 8.293l-6.69-.576 3.567-5.164h-.383a.7.7 0 0 0 .221-.037c2.196-.701 4.5-2.42 6.508-4.342.914-.876 1.494-1.772 2.144-2.666zm-25.65 5.318c1.603.065 3.468.457 5.582 1.178l2.906 5.49h-6.66c-1.706-1.426-4.159-2.507-6.686-3.242-1.213-.353-2.28-.41-3.379-.527 1.173-.962 2.397-1.818 3.852-2.307 1.279-.43 2.71-.66 4.385-.592m1.936 9.621h6.42l-3.535 6.002c-2.092.763-4.258 2.35-6.162 4.174-.913.875-1.495 1.771-2.146 2.664-.246-1.498-.373-2.984-.068-4.488.525-2.592 2.048-5.34 5.492-8.352zm11.52.225 6.816.586c1.707 1.452 4.191 2.548 6.748 3.29 1.215.354 2.282.409 3.381.526-1.175.962-2.401 1.818-3.857 2.307-2.502.84-5.63.894-9.941-.572zm-2.617 1.363 3.232 6.299c-.39 2.196-.102 4.875.527 7.44.301 1.229.787 2.183 1.234 3.194-1.419-.536-2.773-1.17-3.924-2.186-1.984-1.752-3.599-4.446-4.482-8.941zm-3.996 8.975.377.922q.014.033.027.068l.028.072q-.214-.534-.432-1.062z" transform="translate(.715 .716)scale(.9774)"/></svg>