<svg xmlns="http://www.w3.org/2000/svg" style="isolation:isolate" viewBox="0 0 64 64"><linearGradient id="a" x1="-.108" x2="1.25" y1=".458" y2=".865" gradientTransform="matrix(39.28 0 0 35.18 4 6.393)" gradientUnits="userSpaceOnUse" transform="translate(-.096 .023)scale(1.333)"><stop offset="0" stop-color="#00c4ff"/><stop offset=".839" stop-color="#0072ff"/></linearGradient><path fill="url(#a)" d="M14.55 6.393a20 20 0 0 0-4.91 3.718l27.75 16.84-29.74-14.44a20 20 0 0 0-2.761 5.617l33.4 11.03-34.03-8.191a20 20 0 0 0-.258 3.035c.002 1.105.095 2.209.279 3.299l31.32 3.105-30.55-.097a20 20 0 0 0 2.629 5.205l28.5-2.578-26.74 4.759a20 20 0 0 0 5.014 3.879l27.38-8.56a20 20 0 0 0 1.453-3.787l-28.73-22.83z" transform="translate(-.096 .023)scale(1.333)"/><linearGradient id="c" x2=".907" y1=".5" y2=".92" gradientTransform="rotate(-28.46 24.007 23.85)scale(48 47.7)" gradientUnits="userSpaceOnUse" transform="translate(-.096 .023)scale(1.333)"><stop offset="0" stop-color="#00c4ff"/><stop offset=".839" stop-color="#0072ff"/></linearGradient><path fill="url(#c)" d="M28.71 43.44a2 2 0 0 1 .924 3.889 24 24 0 0 1-15.36-1.435 24.01 24.01 0 0 1-1.645-43.02A24.01 24.01 0 0 1 30.899.969a24.02 24.02 0 0 1 14.27 11.57 24.03 24.03 0 0 1 2.616 15.13 24.1 24.1 0 0 1-7.095 13.63 2.002 2.002 0 0 1-2.771-2.889 20.06 20.06 0 0 0 5.917-11.35 20.05 20.05 0 0 0-2.184-12.61 20 20 0 0 0-27.11-8.055 20.004 20.004 0 0 0-8.054 27.11 19.98 19.98 0 0 0 9.429 8.732 20 20 0 0 0 12.8 1.198z" transform="translate(-.096 .023)scale(1.333)"/></svg>