<svg xmlns="http://www.w3.org/2000/svg" fill="none" viewBox="0 0 64 64"><defs><linearGradient id="a" x1="32" x2="32" y1="57.01" y2="4" gradientUnits="userSpaceOnUse"><stop offset="0" stop-color="#fda700"/><stop offset="1" stop-color="#ffde00"/></linearGradient><linearGradient id="c" x1="32" x2="32" y1="60" y2="22.67" gradientUnits="userSpaceOnUse"><stop offset="0" stop-color="#fda700"/><stop offset="1" stop-color="#ffde00"/></linearGradient></defs><path fill="url(#a)" d="M32 4C16.54 4 4 16.54 4 32a28.03 28.03 0 0 0 12.95 23.61c1.168.744 2.648-.045 2.815-1.42l1.324-10.94c.072-.594-.132-1.184-.518-1.642a14.93 14.93 0 0 1-3.507-9.606c0-8.247 6.686-14.93 14.93-14.93s14.93 6.686 14.93 14.93a14.94 14.94 0 0 1-3.51 9.593c-.385.458-.59 1.048-.518 1.643l1.323 10.93c.167 1.375 1.647 2.164 2.815 1.42a28 28 0 0 0 12.96-23.58c0-15.46-12.54-28-28-28" opacity=".4" transform="translate(-4.571 -4.571)scale(1.143)"/><path fill="url(#c)" d="M32 22.67a9.335 9.335 0 0 0-9.334 9.334 9.33 9.33 0 0 0 3.419 7.208c.606.497.988 1.244.893 2.022l-1.956 16.08c-.12.987.502 1.92 1.476 2.12 1.809.37 3.652.562 5.501.57a28 28 0 0 0 5.493-.555c.976-.197 1.601-1.132 1.481-2.121l-1.952-16.1c-.094-.778.287-1.524.893-2.021a9.33 9.33 0 0 0 3.42-7.208 9.335 9.335 0 0 0-9.335-9.333z" transform="translate(-4.571 -4.571)scale(1.143)"/></svg>