<svg xmlns="http://www.w3.org/2000/svg" fill-rule="evenodd" stroke-linejoin="round" stroke-miterlimit="2" clip-rule="evenodd" viewBox="0 0 64 64"><linearGradient id="a" x2="1" gradientTransform="rotate(254.01 33.956 10.504)scale(21.772)" gradientUnits="userSpaceOnUse" transform="translate(-2.843 -2.843)scale(1.452)"><stop offset="0" stop-color="#0052ff"/><stop offset="1" stop-color="#00a0fd"/></linearGradient><g fill-rule="nonzero"><path fill="url(#a)" d="M4.944 23.262a.81.81 0 0 1 .719-.377 1 1 0 0 1 .16.026l13.999 3.563-.005.013 6.562 1.759.962-3.588a.79.79 0 0 1 .846-.309l13.247 3.488a.8.8 0 0 1 .59.754l-3.58 13.357c-.783 2.925-3.732 4.679-6.583 3.915L6.26 39.003c-2.85-.763-4.527-3.757-3.744-6.681z" transform="translate(-2.843 -2.843)scale(1.452)"/><path fill="#00d9ff" d="m5.831 25.349 5.201-19.404C12.17 1.697 16.452-.85 20.591.26l37.172 9.96c4.139 1.109 6.574 5.456 5.437 9.701l-3.524 13.147a1.16 1.16 0 0 1-1.277.521q-.002.002-.007 0l-20.32-5.169.007-.026-9.528-2.553-1.397 5.216a1.15 1.15 0 0 1-1.224.438L6.688 26.434a1.16 1.16 0 0 1-.857-1.085"/></g></svg>