<svg xmlns="http://www.w3.org/2000/svg" viewBox="0 0 64 64"><defs><linearGradient id="a" x1="1" x2="0" y2="1"><stop offset="0" stop-color="#00d2ff"/><stop offset="1" stop-color="#0006ff"/></linearGradient><linearGradient id="d" y1="1"><stop offset="0" stop-color="red"/><stop offset="1" stop-color="#ff0086"/></linearGradient><linearGradient id="e" y1="1"><stop offset="0" stop-color="#01ff01"/><stop offset="1" stop-color="#1bc100"/></linearGradient><linearGradient id="c" y1="1"><stop offset="0" stop-color="#00ffd8"/><stop offset=".983" stop-color="#00ffb8"/></linearGradient></defs><path fill="url(#a)" d="M6.4 3.201c-3.509 0-6.4 2.891-6.4 6.4v12.8c0 3.509 2.891 6.4 6.4 6.4h51.2c3.509 0 6.4-2.891 6.4-6.4v-12.8c0-3.509-2.891-6.4-6.4-6.4zm0 4.268h51.2c1.219 0 2.133.914 2.133 2.133v12.8c0 1.219-.914 2.135-2.133 2.135H6.4c-1.219 0-2.133-.916-2.133-2.135v-12.8c0-1.219.914-2.133 2.133-2.133" transform="translate(0 -.005)scale(.9999)"/><path fill="url(#c)" d="M19.8 41.61a.6.6 0 0 0-.6.6v7.334a.6.6 0 0 0 .6.6h24.4a.6.6 0 0 0 .6-.6V42.21a.6.6 0 0 0-.6-.6z" transform="translate(0 -.005)scale(.9999)"/><path fill="url(#d)" d="M28.34 13.87a.6.6 0 0 0-.6.6v3.068a.6.6 0 0 0 .6.6h11.6a.6.6 0 0 0 .6-.6V14.47a.6.6 0 0 0-.6-.6H29.6z" transform="translate(0 -.005)scale(.9999)"/><path fill="url(#c)" d="M7 11.74a.6.6 0 0 0-.6.6v7.334a.6.6 0 0 0 .6.6h15.87a.6.6 0 0 0 .6-.6V12.34a.6.6 0 0 0-.6-.6z" transform="translate(0 -.005)scale(.9999)"/><path fill="url(#e)" d="M49.67 9.602a.6.6 0 0 0-.6.6v3.068a.6.6 0 0 1-.6.6h-3.065a.6.6 0 0 0-.6.599v3.068a.6.6 0 0 0 .6.6h3.066a.6.6 0 0 1 .6.599v3.066a.6.6 0 0 0 .599.6h3.068a.6.6 0 0 0 .6-.6v-3.066a.6.6 0 0 1 .6-.6h3.067a.6.6 0 0 0 .6-.6V14.47a.6.6 0 0 0-.6-.6h-3.068a.6.6 0 0 1-.6-.6v-3.067a.6.6 0 0 0-.599-.6z" transform="translate(0 -.005)scale(.9999)"/><path fill="url(#a)" d="M7.25 30.94C3.268 30.94 0 34.209 0 38.19v15.37c0 3.982 3.269 7.25 7.25 7.25h49.5c3.982 0 7.248-3.269 7.248-7.25V38.19c0-3.982-3.267-7.25-7.248-7.25zm0 4.266h49.5c1.691 0 2.982 1.293 2.982 2.984v15.37c0 1.691-1.291 2.984-2.982 2.984H7.25c-1.691 0-2.982-1.293-2.982-2.984V38.19c0-1.691 1.291-2.984 2.982-2.984" transform="translate(0 -.005)scale(.9999)"/></svg>