<svg xmlns="http://www.w3.org/2000/svg" viewBox="0 0 64 64"><defs><linearGradient id="a" x1="1" x2="0" y2="1"><stop offset="0" stop-color="#00ff80"/><stop offset="1" stop-color="#3bff00"/></linearGradient></defs><path fill="url(#a)" d="M13.72 1.522c-4.262 0-7.74 3.478-7.74 7.74v29.83c0 4.262 3.478 7.74 7.74 7.74h22.77c4.262 0 7.74-3.478 7.74-7.74V9.262c0-4.262-3.478-7.74-7.74-7.74zm0 2.982h22.77a4.717 4.717 0 0 1 4.76 4.758v29.83a4.717 4.717 0 0 1-4.76 4.758H13.72a4.717 4.717 0 0 1-4.76-4.758V9.262a4.717 4.717 0 0 1 4.76-4.758" transform="translate(-1.96 -2.15)scale(1.412)"/><path fill="url(#a)" d="M4.793 15.18a.936.936 0 0 0-.937.938v1.648c0 .519.418.937.937.937h5.182c.52 0 .938-.418.938-.937v-1.648a.936.936 0 0 0-.938-.938z" transform="translate(-1.96 -2.15)scale(1.412)"/><path fill="url(#a)" d="M4.793 22.23a.936.936 0 0 0-.937.938v1.65c0 .519.418.937.937.937h5.182c.52 0 .938-.418.938-.937v-1.65a.936.936 0 0 0-.938-.938z" transform="translate(-1.96 -2.15)scale(1.412)"/><path fill="url(#a)" d="M4.793 29.29a.936.936 0 0 0-.937.938v1.647c0 .52.418.938.937.938h5.182c.52 0 .938-.418.938-.937v-1.648a.936.936 0 0 0-.938-.938z" transform="translate(-1.96 -2.15)scale(1.412)"/><path fill="url(#a)" d="M4.793 36.35a.936.936 0 0 0-.937.938v1.65c0 .519.418.937.937.937h5.182c.52 0 .938-.418.938-.937v-1.65a.936.936 0 0 0-.938-.938z" transform="translate(-1.96 -2.15)scale(1.412)"/><path fill="url(#a)" d="M4.793 8.123a.936.936 0 0 0-.937.938v1.65c0 .519.418.937.937.937h5.182c.52 0 .938-.418.938-.937V9.06a.936.936 0 0 0-.938-.938z" transform="translate(-1.96 -2.15)scale(1.412)"/><path fill="url(#a)" d="M25.16 10.5a6.6 6.6 0 0 0-2.863.695h-.002c-2.227 1.1-3.48 3.445-3.48 6.197v.024a11.2 11.2 0 0 0 2.73 7.078l.006.008.008.007c.266.294.222.18.222.653v.03l.004.032a.3.3 0 0 1-.037.17l-.012.022-.01.023c-.079.172-.049.132-.144.2s-.373.206-.89.411h-.002l-.002.002c-1.124.454-2.62 1.166-3.465 1.693-1.55.961-2.524 1.85-3.068 2.961l-.002.002v.004a2.5 2.5 0 0 0-.237.662c-.045.259-.041.466-.05.834v.004c-.014.461-.014.81.066 1.174.08.366.253.687.436.961.705 1.06 1.993 1.621 3.65 2.037 1.227.307 2.948.447 4.945.563v.105l.93.018c2.2.04 4.403-.044 6.595-.254l.028-.004c1.604-.204 2.897-.502 3.928-.95 1.027-.445 1.83-1.072 2.242-1.944.076-.155.18-.414.209-.662.029-.254.023-.476.023-.895 0-.396.003-.627-.02-.861a2.4 2.4 0 0 0-.162-.639v-.002c-.426-1.049-1.335-1.913-2.55-2.73-1.217-.818-2.769-1.569-4.577-2.215l-.002-.002c-.301-.107-.448-.185-.484-.21l-.006-.007-.008-.014-.002-.002a1.4 1.4 0 0 1-.04-.78l.001-.016.004-.014c.042-.193.041-.18.055-.203s.105-.145.31-.383c1.008-1.14 1.842-2.839 2.252-4.436v-.004c.418-1.648.426-3.448-.039-4.932v-.002c-.866-2.777-3.487-4.516-6.49-4.41zm.03 1.891h.025c2.276-.086 4.009 1.094 4.629 3.084v.002c.322 1.029.342 2.589.01 3.902-.329 1.278-1.13 2.854-1.835 3.65l-.007.008c-.223.257-.378.429-.522.678-.14.242-.21.5-.262.734a3.28 3.28 0 0 0 .106 1.922l.016.043.02.04c.132.275.364.58.651.786.287.205.585.327.952.457 1.69.604 3.116 1.304 4.156 2.004s1.668 1.417 1.854 1.873v.002l.002.004c.02.047.025.053.027.057v.002l.002.04c.007.078.012.291.012.682 0 .419-.007.633-.012.676v.004l-.025.047-.006.01-.006.011c-.152.324-.515.68-1.287 1.016s-1.915.617-3.408.807h-.002v.002h-.002a56 56 0 0 1-6.117.232l-.211-.007c-2.545-.105-4.224-.298-5.471-.61-1.43-.359-2.343-.959-2.537-1.25-.13-.195-.14-.226-.16-.316s-.036-.301-.024-.72v-.003c.01-.372.02-.54.024-.56.003-.02-.006.004.074-.16.33-.676.956-1.31 2.367-2.187l.002-.002c.616-.384 2.153-1.132 3.166-1.54l.006-.003c.547-.218.927-.376 1.277-.623.343-.242.598-.605.752-.928.179-.346.26-.734.24-1.123-.007-.692-.253-1.397-.705-1.896l.016.016a9.32 9.32 0 0 1-2.268-5.87c.003-2.204.88-3.729 2.426-4.49l.003-.003h.004a4.7 4.7 0 0 1 2.047-.5" transform="translate(-1.96 -2.15)scale(1.412)"/></svg>