<svg xmlns="http://www.w3.org/2000/svg" style="isolation:isolate" viewBox="0 0 64 64"><linearGradient id="a" x2="1" y1=".5" y2=".5" gradientTransform="matrix(22.32 0 0 28.84 12.84 9.582)" gradientUnits="userSpaceOnUse" transform="translate(-.68 -.68)scale(1.362)"><stop offset="0" stop-color="#ffe031"/><stop offset=".987" stop-color="#fc5252"/></linearGradient><linearGradient id="b" y1=".5" y2=".5" transform="translate(-.68 -.68)scale(1.362)"><stop offset="0" stop-color="#ffe031"/><stop offset=".987" stop-color="#fc5252"/></linearGradient><path fill="url(#a)" stroke="url(#b)" stroke-width="1.7" d="M33.01 9.582q-1.56 0-2.997.825-1.406.794-2.654 2.316-1.218 1.492-2.217 3.681-.999 2.157-1.717 4.885-.5 1.936-.999 3.269-.5 1.332-1.03 2.22c-.77-.296-1.531-.818-2.28-1.008a8 8 0 0 0-2.247-.317q-.906 0-1.655.286-.718.285-1.249.697a3.8 3.8 0 0 0-.843.889c-.187.317-.281.891-.281 1.166q0 .667.625 1.112c.625.445 1.04.443 1.873.443q3.31 0 5.588-1.746 1.437.635 2.936 1.207 1.53.539 3.372.539 2.092 0 3.341-.888c.833-.613 1.312-1.398 1.811-2.54q.032-.192-.092-.254-.095-.096-.22 0c-.354.719-.614 1.176-1.156 1.557q-.812.57-2.372.57-1.874 0-3.436-.412a37 37 0 0 1-2.934-.983q1.936-2.317 3.029-6.568.655-2.665 1.279-4.442.625-1.776 1.342-2.823c.479-.719 1.001-1.124 1.563-1.399q.874-.444 2.06-.443.874 0 1.435.318.594.285.876.761c.187.317.29.573.31.954s-.029 1.132-.154 1.513q-.032.16.093.222a.27.27 0 0 0 .281-.031c.208-.36.405-1.187.593-1.737q.28-.857.281-1.492 0-.983-.594-1.649-.592-.698-1.561-.698zm-17.52 16.92q1.342 0 2.529.38c.791.253 1.572.829 2.342 1.168a3.8 3.8 0 0 1-1.624.952q-.874.22-1.999.221-1.28 0-1.998-.412c-.458-.275-.687-.903-.687-1.326q0-.984 1.437-.983zm2.927 6.337a1.86 1.86 0 1 0 0 3.72 1.86 1.86 0 0 0 0-3.72zm11.16 0a1.86 1.86 0 1 0 0 3.72 1.86 1.86 0 0 0 0-3.72zm-5.581 1.86a1.86 1.86 0 1 0 0 3.72 1.86 1.86 0 0 0 0-3.72z" transform="translate(-.68 -.68)scale(1.362)" vector-effect="non-scaling-stroke"/><linearGradient id="d" x2="1" y1=".5" y2=".5" gradientTransform="matrix(47 0 0 47 .5 .5)" gradientUnits="userSpaceOnUse" transform="translate(-.68 -.68)scale(1.362)"><stop offset="0" stop-color="#ffe031"/><stop offset=".987" stop-color="#fc5252"/></linearGradient><path fill="url(#d)" fill-rule="evenodd" d="M8.59 12.05c-.673.872-1.928 1.031-2.8.355S4.757 10.472 5.43 9.6C9.88 3.87 16.74.5 24 .5c6.23 0 12.21 2.48 16.62 6.88a23.54 23.54 0 0 1 5.72 23.93 2 2 0 0 1-3.8-1.24 19.56 19.56 0 0 0-4.75-19.86A19.54 19.54 0 0 0 24 4.5a19.53 19.53 0 0 0-15.41 7.55m28.47 26.43c.817-.74 2.08-.675 2.82.145s.677 2.085-.14 2.825A23.54 23.54 0 0 1 24 47.5c-6.23 0-12.21-2.48-16.62-6.88A23.54 23.54 0 0 1 .5 24c0-.67.03-1.33.08-2 .094-1.098 1.064-1.914 2.165-1.82a2 2 0 0 1 1.825 2.16 19.54 19.54 0 0 0 5.64 15.45A19.54 19.54 0 0 0 24 43.5c4.82 0 9.48-1.79 13.06-5.02" transform="translate(-.68 -.68)scale(1.362)"/></svg>