<svg xmlns="http://www.w3.org/2000/svg" viewBox="0 0 64 64"><defs><linearGradient id="a" x2="0" y1="1"><stop offset="0" stop-color="#00b8ff"/><stop offset="1" stop-color="#00ff9d"/></linearGradient></defs><path fill="url(#a)" d="M32 0c-4.218 0-8.463 1.397-11.72 4.287-3.251 2.887-5.398 7.311-5.398 12.83v11.91c0 9.427 7.688 17.12 17.12 17.12s17.12-7.69 17.12-17.12v-11.91c0-5.519-2.15-9.943-5.4-12.83S36.223 0 32.002 0zm0 4.467c3.224 0 6.421 1.086 8.752 3.154s3.9 5.091 3.9 9.496v11.91c0 7.013-5.639 12.65-12.65 12.65s-12.65-5.637-12.65-12.65v-11.91c0-4.402 1.571-7.424 3.898-9.496 2.331-2.072 5.525-3.154 8.752-3.154z" transform="translate(.006)"/><path fill="url(#a)" d="M37.95 14.88a2.23 2.23 0 0 0-2.232 2.232 2.23 2.23 0 0 0 2.232 2.232h8.932a2.23 2.23 0 0 0 2.232-2.232 2.23 2.23 0 0 0-2.232-2.232zM8.18 26.79a2.23 2.23 0 0 0-2.232 2.232c0 13.57 10.55 24.4 23.81 25.59v4.918h-6.697a2.23 2.23 0 0 0-2.232 2.232 2.23 2.23 0 0 0 2.232 2.232h17.86a2.23 2.23 0 0 0 2.232-2.232 2.23 2.23 0 0 0-2.232-2.232h-6.697v-4.918c13.26-1.191 23.81-12.03 23.81-25.59a2.23 2.23 0 0 0-2.232-2.232 2.23 2.23 0 0 0-2.232 2.232c0 11.94-9.636 21.58-21.58 21.58s-21.58-9.636-21.58-21.58a2.23 2.23 0 0 0-2.232-2.232zm29.77 0a2.23 2.23 0 0 0-2.232 2.232 2.23 2.23 0 0 0 2.232 2.232h8.932a2.23 2.23 0 0 0 2.232-2.232 2.23 2.23 0 0 0-2.232-2.232z" transform="translate(.006)"/></svg>