<svg xmlns="http://www.w3.org/2000/svg" viewBox="0 0 64 64"><defs><linearGradient id="a" x2="0" y1="1"><stop offset="0" stop-color="#ff7ae2"/><stop offset="0" stop-color="#fa00ff"/><stop offset="1" stop-color="red"/></linearGradient></defs><path fill="url(#a)" d="M204 63.24c-.813.023-1.656.133-2.52.332-48.26 11.13-98.77 11.13-147 0a12.6 12.6 0 0 0-2.514-.33h-.002c-5.692-.162-9.941 3.846-9.941 10.06v91.81c0 7.108 5.553 14.38 12.47 15.95 20.2 4.579 41.11 7.405 62.04 8.223v42.71a8 8 0 0 0 8 8h6.926a8 8 0 0 0 8-8v-42.63c21.22-.696 42.19-3.57 62.18-8.885 6.856-1.825 12.33-9.392 12.33-16.5V73.3c0-6.215-4.247-10.23-9.94-10.07zM64.9 78.75a5.72 5.72 0 0 1 5.73 5.732v28.66c0 3.174-2.557 5.73-5.73 5.73s-5.732-2.557-5.732-5.73v-28.66A5.72 5.72 0 0 1 64.9 78.75m126.1 0a5.72 5.72 0 0 1 5.732 5.732v28.66c0 3.174-2.559 5.73-5.732 5.73s-5.732-2.557-5.732-5.73v-28.66A5.72 5.72 0 0 1 191 78.75M87.8 81.615a5.72 5.72 0 0 1 5.732 5.732v28.66c0 3.174-2.559 5.732-5.732 5.732s-5.732-2.559-5.732-5.732v-28.66a5.72 5.72 0 0 1 5.732-5.732m80.24 0a5.72 5.72 0 0 1 5.732 5.732v28.66c0 3.174-2.559 5.732-5.732 5.732s-5.73-2.559-5.73-5.732v-28.66a5.72 5.72 0 0 1 5.73-5.732m-57.31 2.865a5.72 5.72 0 0 1 5.732 5.732v28.66c0 3.174-2.559 5.732-5.732 5.732s-5.73-2.559-5.73-5.732v-28.66a5.72 5.72 0 0 1 5.73-5.732m34.39 0a5.72 5.72 0 0 1 5.732 5.732v28.66c0 3.174-2.559 5.732-5.732 5.732s-5.73-2.559-5.73-5.732v-28.66a5.72 5.72 0 0 1 5.73-5.732m-80.24 45.85a5.72 5.72 0 0 1 5.73 5.73v28.66c0 3.174-2.557 5.73-5.73 5.73s-5.732-2.557-5.732-5.73v-28.66a5.72 5.72 0 0 1 5.732-5.73m126.1 0a5.72 5.72 0 0 1 5.73 5.73v28.66c0 3.174-2.557 5.73-5.73 5.73s-5.732-2.557-5.732-5.73v-28.66a5.72 5.72 0 0 1 5.732-5.73m-103.2 2.865a5.72 5.72 0 0 1 5.73 5.73v28.66c0 3.174-2.557 5.73-5.73 5.73s-5.732-2.557-5.732-5.73v-28.66a5.72 5.72 0 0 1 5.732-5.73m80.24 0a5.72 5.72 0 0 1 5.732 5.73v28.66c0 3.174-2.559 5.73-5.732 5.73s-5.73-2.557-5.73-5.73v-28.66a5.72 5.72 0 0 1 5.73-5.73m-57.31 2.865a5.72 5.72 0 0 1 5.732 5.732v28.66c0 3.174-2.559 5.732-5.732 5.732s-5.732-2.559-5.732-5.732v-28.66a5.72 5.72 0 0 1 5.732-5.732m34.39 0a5.72 5.72 0 0 1 5.732 5.732v28.66a5.72 5.72 0 0 1-5.732 5.732 5.72 5.72 0 0 1-5.719-5.361v-3.834a8 8 0 0 0-.012-.434v-24.76a5.72 5.72 0 0 1 5.73-5.732z" transform="translate(-14.342 -22.892)scale(.36206)"/></svg>