<svg xmlns="http://www.w3.org/2000/svg" viewBox="0 0 64 64"><defs><linearGradient id="a" x1="1" x2="0" y2="1"><stop offset="0" stop-color="#fea51d"/><stop offset="1" stop-color="#ff0a76"/></linearGradient><linearGradient id="b" x1="1" x2="0" y2="1"><stop offset="0" stop-color="#8d3aff"/><stop offset="1" stop-color="#ff3680"/></linearGradient><linearGradient id="c" x2="0" y2="1"><stop offset="0" stop-color="#f0f"/><stop offset="1" stop-color="#c299ff"/></linearGradient></defs><path fill="url(#a)" d="M27.69 13.96a1 1 0 0 1-.367.172c-.286.063-.574.111-.861.166l-.024.01-.369.322c.16.31.078.288-.197.363a.68.68 0 0 0-.377.314c-.139.239-.27.479-.403.72v.002h-.002v.004l.002.002v.004c.005.01.016.023.024.033.186.23.088.47.05.722-.032.223.001.47.067.688.048.16.195.288.328.47.115-.016.28.008.262.266-.008.114-.007.232-.031.342a33 33 0 0 1-.286 1.174c-.014.053-.082.11-.138.133-.348.146-.955-.174-1.022-.588-.08-.492-.074-.998-.121-1.496-.015-.156-.087-.304-.123-.46-.017-.072-.045-.193-.01-.22.17-.135.039-.238-.024-.336-.144-.224-.136-.253.16-.336l-.382-.556.2-.172c-.19-.156-.376-.29-.538-.447-.072-.07-.098-.19-.145-.286-.12-.258-.516-.18-.619-.515v-.002l-.004-.006-.002-.002c-.02-.023-.077-.041-.111-.04-.147.01-.296.019-.44.052-.217.05-.413.119-.654.025-.344-.134-.712-.208-1.074-.291-.204-.047-.381.007-.488.217a.26.26 0 0 1-.166.113c-.353.058-.476.343-.615.576.069.118.127.213.21.358-.568.043-.962.266-1.155.652.056.134.147.262.125.314v.004c-.235.375-.144.758-.078 1.143.246.024.21.047.347.26.132.205.08.554.51.594-.159.532-.29 1.046-.467 1.54-.15.424-.39.814-.523 1.24a2.94 2.94 0 0 1-.674 1.136c-.352.382-.73.748-1.04 1.162-.652.868-1.158 1.816-1.464 2.865-.08.275-.139.569-.281.81-.674 1.142-1.222 2.322-1.441 3.649-.1.6-.054 1.145.22 1.67.159.302.162.58-.001.87-.069.122-.212.285-.176.366.166.374-.157.61-.213.914-.027.144-.058.286-.08.396.235-.117.454-.222.67-.337.104-.056.235-.106.29-.198.443-.732.582-1.158-.001-1.91a1.53 1.53 0 0 1-.315-.894c-.028-.536.078-1.05.244-1.55.11-.329.265-.643.414-.958.027-.056.122-.082.184-.121.022.061.059.122.063.185.022.378.031.756.058 1.133q.024.301.088.596c.154.717.326 1.43.135 2.16.459.209-.027.456.057.674.282.058.287.075.16.334-.143.29-.294.577-.406.879-.078.209-.202.445.023.658l.004.004c.02.028.02.1.002.133-.297.504.321.845.232 1.31v.004h.002v.002l.002.002q.007.008.014.011c.253.14.177.438.31.643.145.221.283.47.186.768l-.002.002v.002l.002.013c.013.035.076.087.102.131.055.096.122.19.152.295.184.646.183 1.278-.156 1.885-.097.174-.162.365-.246.547-.176.383-.168.76.035 1.13.118.216.248.424.355.644.059.12.115.26.11.39-.031.789.125 1.555.297 2.312.131.58.14 1.135-.006 1.701-.113.438.015.686.46.772.829.158 1.664.346 2.487-.014.046-.473-.002-.584-.381-.813-.634-.381-1.16-.871-1.41-1.578a9 9 0 0 1-.371-1.46c-.062-.36-.105-.751-.031-1.103.15-.713.205-1.407.003-2.117-.049-.174-.006-.38.018-.568.048-.37.338-.568.57-.82.337-.367.613-.79.922-1.182.041-.053.13-.114.18-.102.054.014.119.105.127.168.047.374.112.75.11 1.125-.004.5-.066.999-.098 1.498-.044.667.103 1.307.32 1.928.217.619.363 1.236.324 1.9-.035.6.001 1.205-.012 1.807-.004.212.095.368.256.422.752.254 1.501.604 2.324.28.135-.054.266-.144.403-.151.24-.012.253-.153.183-.299a.62.62 0 0 0-.287-.283c-.824-.35-1.38-.98-1.742-1.76-.193-.418-.251-.901-.342-1.361-.12-.613-.123-1.218.065-1.836.104-.344.137-.773.027-1.106-.194-.586-.15-1.1.184-1.588.213-.31.486-.58.724-.873.42-.517.859-1.03 1.01-1.7.07-.307.197-.563.44-.753.326-.256.52-.575.586-.988.045-.279.106-.298.363-.182.138-.136.283-.264.41-.41.136-.156.245-.202.4-.016.262.313.593.49 1.019.455.061-.005.168.046.187.096.081.21.243.22.428.223.182.003.418-.032.535.064.306.252.674.218 1.014.291.2.044.226.127.209.281-.008.076-.033.15-.045.204.21.032.325.1.262.326-.052.183-.11.368-.133.556-.013.11.032.23.064.342.03.102.082.197.118.297.088.25.162.507.263.752.064.154.135.359.26.42.183.09.205.203.227.365.014.108.045.282.11.303.232.077.252.294.362.451.07.097.132.23.229.27.164.067.192.166.201.322.02.358.022.724.102 1.07a9.1 9.1 0 0 1 .058 3.787 12 12 0 0 0-.207 1.584c-.02.358-.054.692-.228 1.014-.101.186-.095.388.101.54.486.38.994.698 1.65.626.351-.039.706-.06 1.053-.12.128-.021.256-.114.356-.204.126-.115.12-.247-.035-.352-.138-.093-.28-.183-.407-.289a16 16 0 0 1-.73-.639c-.362-.34-.425-.792-.432-1.256-.01-.69.03-1.382-.025-2.068a2.23 2.23 0 0 1 .338-1.416c.11-.177.23-.353.31-.545.203-.484.355-.987.268-1.52-.07-.428.184-.787.211-1.19.003-.051.064-.104.107-.145.24-.227.486-.449.723-.678.093-.09.17-.196.254-.295.066.124.14.246.2.373.29.63.411 1.293.427 1.986.009.4.073.799.14 1.193.067.395.228.78.245 1.174.054 1.305.072 2.613.078 3.92.001.335-.103.671-.143 1.008-.018.15-.16.32.049.451.298.188.6.357.97.342.484-.02.97-.044 1.454-.049.289-.002.576.029.865.051.214.017.244-.101.197-.263-.024-.082-.065-.176-.129-.223-.25-.185-.497-.383-.773-.522-.328-.164-.628-.36-.71-.722-.091-.41-.345-.694-.587-1.006a1.05 1.05 0 0 1-.219-.563c-.026-.663-.014-1.328-.008-1.992.002-.175.008-.358.057-.523.238-.803.304-1.63.375-2.457.044-.514.131-1.031.613-1.36.043-.028.104-.076.104-.114 0-.42.349-.551.603-.77a.87.87 0 0 0 .256-.406c.096-.342.116-.708.235-1.04.093-.26.27-.498.443-.72.089-.114.27-.154.379-.258.124-.117.207-.053.285.032.05.053.069.132.104.205.284-.206.635.134.894-.145h.008c.017.006.057.037.084.045.038.01.095.03.121.02h.002l.002-.002c.3-.253.595-.514.893-.77.083-.072.174-.132.254-.207.134-.125.294-.24.382-.392.076-.13.123-.228.29-.258.077-.014.143-.128.199-.207.048-.07.063-.162.111-.233.39-.57.912-1.03 1.238-1.67a5 5 0 0 0 .45-1.207c.038-.173.068-.298.237-.3.04-.184.034-.37.116-.502.258-.418.228-.937.506-1.344.041-.061.037-.153.052-.231.08-.402.263-.796.11-1.219l-.002-.002.002-.021v-.004c.232-.306.107-.629.05-.95a3 3 0 0 1-.05-.414c-.009-.245-.002-.49-.002-.736 0-.238-.14-.448.033-.725.145-.232.085-.588.133-.886.036-.228.093-.452.156-.674.015-.054.087-.092.133-.137l.092.121.164-.332.177.176c.277-.099.366-.342.442-.602a.9.9 0 0 1 .15-.326c.046-.056.159-.06.293-.103.298-.59.298-.59.97-.528.052.005.103.035.153.032.294-.02.658.057.863-.09.302-.215.495-.586.721-.9.035-.049.027-.166-.008-.22a9 9 0 0 0-.46-.628c-.092-.115-.185-.25-.31-.31a33 33 0 0 0-1.755-.8c-.278-.115-.487-.263-.569-.564a.4.4 0 0 0-.095-.182c-.293-.29-.296-.29.052-.511.046-.03.103-.041.114-.045-.027-.142-.042-.254-.073-.362a.3.3 0 0 0-.091-.142c-.21-.158-.458-.278-.627-.469-.168-.188-.338-.18-.541-.16-.068.006-.164.01-.205-.03-.24-.23-.57-.118-.85-.216-.244-.086-.58.098-.877.16-.041.008-.091.019-.127.004-.508-.214-.937-.084-1.283.316-.017.089-.04.19-.104.239-.24.186-.512.337-.738.539-.158.14-.326.325-.373.52-.047.194-.14.263-.293.312-.165.052-.318.102-.324.322-.002.055-.1.1-.121.162a3 3 0 0 0-.098.402c-.013.076.017.167-.015.229-.115.222-.254.432-.372.652-.103.193-.29.412-.26.586.039.21-.013.418.036.61.081.323-.078.55-.227.796a4 4 0 0 0-.326.627c-.073.194-.223.38-.105.621.029.06-.044.176-.08.262-.034.08-.106.149-.116.229-.045.38-.067.765-.113 1.146-.058.478-.188.926-.584 1.252-.412.338-.84.338-1.201-.05a8.4 8.4 0 0 1-.76-.943c-.647-.93-1.279-1.873-1.914-2.812-.028-.041-.056-.097-.05-.142.037-.298-.144-.489-.346-.639-.215-.16-.256-.31-.057-.533-.173-.083-.334-.136-.465-.23-.144-.105-.306-.227-.38-.38-.132-.267-.117-.604-.39-.808h-.001l-.004-.004v-.002l-.002-.006c-.007-.022.002-.064-.008-.09a7 7 0 0 0-.176-.396c-.041-.085-.13-.162-.135-.246a8 8 0 0 1 .002-.883c.012-.194.067-.385.094-.578a.3.3 0 0 0-.023-.155c-.082-.201-.186-.395-.252-.601-.037-.116-.016-.25-.022-.375.056-.262-.509-.211-.248-.627-.067-.053-.147-.097-.203-.162-.06-.07-.156-.183-.135-.233.116-.263-.065-.298-.238-.36-.203-.07-.401-.155-.602-.234l.024-.07c-.312.043-.628.164-.926-.055-.04-.029-.109-.054-.149-.039-.317.117-.577-.03-.828-.138z" transform="translate(-23.12 -24.03)scale(1.77682)"/><path fill="url(#b)" d="M41.03 15.11a.9.9 0 0 0-.34.06.86.86 0 0 0-.49 1.12l.414 1.059a.86.86 0 0 0 1.12.49.86.86 0 0 0 .491-1.12l-.414-1.058a.86.86 0 0 0-.781-.551" transform="translate(-23.12 -24.03)scale(1.77682)"/><path fill="url(#b)" d="M42.18 16.55a2.302 2.43 89.8 0 0-2.422 2.31 2.302 2.43 89.8 0 0 2.438 2.295 2.302 2.43 89.8 0 0 2.422-2.312 2.302 2.43 89.8 0 0-2.438-2.293" transform="translate(-23.12 -24.03)scale(1.77682)"/><path fill="url(#c)" d="M42.19 17.56a1.256 1.326 89.8 0 0-1.32 1.26 1.256 1.326 89.8 0 0 1.328 1.25 1.256 1.326 89.8 0 0 1.322-1.26 1.256 1.326 89.8 0 0-1.33-1.25" transform="translate(-23.12 -24.03)scale(1.77682)"/></svg>