<svg xmlns="http://www.w3.org/2000/svg" style="isolation:isolate" viewBox="0 0 64 64"><linearGradient id="a" x1=".621" x2=".488" y1=".044" y2=".963" gradientTransform="matrix(14.13 0 0 18.5 30.72 27.57)" gradientUnits="userSpaceOnUse" transform="translate(-.68 -.68)scale(1.362)"><stop offset="0" stop-color="#ffe031"/><stop offset="1" stop-color="#fa0075"/></linearGradient><path fill="url(#a)" d="M39.97 27.57c-5.782 2.313-9.251 7.731-9.251 11.56a6.934 6.934 0 0 0 6.805 6.93 3.464 3.464 0 0 1-3.401-3.462c0-1.915 1.734-4.625 4.625-5.781 0 4.047 3.103 4.632 2.312 6.938-.448 1.307-1.542 2.299-3.439 2.31l.036.001c3.831 0 6.035-1.996 6.937-4.625 1.583-4.611-4.625-5.781-4.625-13.88l.001.001z" transform="translate(-.68 -.68)scale(1.362)"/><linearGradient id="c" x1=".062" x2=".99" y1=".147" y2=".987" gradientTransform="matrix(47 0 0 47 .5 .5)" gradientUnits="userSpaceOnUse" transform="translate(-.68 -.68)scale(1.362)"><stop offset="0" stop-color="#16b5e4"/><stop offset=".983" stop-color="#f520fa"/></linearGradient><path fill="url(#c)" fill-rule="evenodd" d="M26.89 43.29a1.997 1.997 0 1 1 .59 3.95c-1.15.17-2.32.26-3.48.26-6.23 0-12.21-2.48-16.62-6.88C2.98 36.21.5 30.23.5 24S2.98 11.79 7.38 7.38C11.79 2.98 17.77.5 24 .5s12.21 2.48 16.62 6.88a23.54 23.54 0 0 1 6.33 21.69c-.237 1.076-1.304 1.757-2.38 1.52s-1.762-1.304-1.53-2.38c.31-1.38.46-2.79.46-4.21 0-5.17-2.06-10.13-5.71-13.79C34.13 6.56 29.17 4.5 24 4.5s-10.13 2.06-13.79 5.71C6.56 13.87 4.5 18.83 4.5 24s2.06 10.13 5.71 13.79A19.54 19.54 0 0 0 24 43.5c.97 0 1.93-.07 2.89-.21m-7.12-4.38a1.004 1.004 0 0 1-.55 1.93 17.5 17.5 0 0 1-9.18-6.29 17.47 17.47 0 0 1-2.01-17.7c.221-.502.81-.729 1.315-.505s.731.817.505 1.325C8.96 19.66 8.5 21.82 8.5 24c0 3.37 1.1 6.65 3.13 9.35a15.47 15.47 0 0 0 8.14 5.56m5.92-30.32c-.546-.061-.943-.556-.885-1.105s.553-.946 1.105-.885c4.28.47 8.25 2.51 11.12 5.72 2.88 3.21 4.47 7.37 4.47 11.68v.02l-.01.65c-.011.552-.468.993-1.02.985s-.991-.463-.98-1.015l.01-.65c0-3.82-1.41-7.5-3.96-10.34s-6.06-4.64-9.85-5.06M19.5 24c0-1.19.47-2.34 1.32-3.18.84-.85 1.99-1.32 3.18-1.32s2.34.47 3.18 1.32c.85.84 1.32 1.99 1.32 3.18s-.47 2.34-1.32 3.18c-.84.85-1.99 1.32-3.18 1.32s-2.34-.47-3.18-1.32A4.47 4.47 0 0 1 19.5 24m-4 0c0-2.25.9-4.42 2.49-6.01S21.75 15.5 24 15.5s4.42.9 6.01 2.49S32.5 21.75 32.5 24s-.9 4.42-2.49 6.01S26.25 32.5 24 32.5s-4.42-.9-6.01-2.49S15.5 26.25 15.5 24" transform="translate(-.68 -.68)scale(1.362)"/></svg>