<svg fill="none" version="1.1" viewBox="0 0 64 64" xmlns="http://www.w3.org/2000/svg">
 <defs>
  <linearGradient id="a" x1="4.017" x2="123.3" y1="62.3" y2="62.3" gradientUnits="userSpaceOnUse">
   <stop stop-color="#a93aff" offset="0"/>
   <stop stop-color="#ff81ff" offset="1"/>
  </linearGradient>
  <linearGradient id="b" x1="24.01" x2="104" y1="63.44" y2="63.44" gradientUnits="userSpaceOnUse">
   <stop stop-color="#a93aff" offset="0"/>
   <stop stop-color="#ff81ff" offset="1"/>
  </linearGradient>
  <linearGradient id="c" x1="4.189" x2="19.66" y1="115.2" y2="115.2" gradientUnits="userSpaceOnUse">
   <stop stop-color="#a93aff" offset="0"/>
   <stop stop-color="#ff81ff" offset="1"/>
  </linearGradient>
  <linearGradient id="g" x1="24" x2="36" y1="97.8" y2="97.8" gradientUnits="userSpaceOnUse">
   <stop stop-color="#a93aff" offset="0"/>
   <stop stop-color="#ff81ff" offset="1"/>
  </linearGradient>
  <linearGradient id="h" x1="53" x2="75.52" y1="64.59" y2="64.59" gradientUnits="userSpaceOnUse">
   <stop stop-color="#fd3a84" offset="0"/>
   <stop stop-color="#ffa68d" offset="1"/>
  </linearGradient>
  <linearGradient id="i" x1="38.99" x2="89.39" y1="63.26" y2="63.26" gradientUnits="userSpaceOnUse">
   <stop stop-color="#fd3a84" offset="0"/>
   <stop stop-color="#ffa68d" offset="1"/>
  </linearGradient>
 </defs>
 <path transform="translate(-0) scale(1) translate(-0) scale(1) translate(-0 3e-6) scale(1) translate(.001804 -.01274) scale(1) translate(-2.147 -2.381) scale(.5367)" d="M24.16 5.001h-.006c-1.493.008-3.009.105-4.519.407-8.626 1.61-15.56 9.564-15.6 18.35-.037 11.98-.066 54.96.008 66.93-.029 2.128 1.372 3.762 3.039 4.545 1.654.777 3.792.822 5.43-.458 2-1.315 2.362-3.72 2.34-5.501.012-4.94.009-40.87.005-45.81-.005-6.575-.01-13.15.024-19.73.054-4.346 4.196-8.123 8.612-8.044h.019c13.48-.015 26.94-.01 40.41-.006 12.12.005 24.24.009 36.37-.001q.526-.001 1.038-.007c2.249-.02 4.264-.039 6.059.873l.02.01.021.01c3.242 1.465 5.253 5.052 5.013 8.59l-.002.034v.033c-.006 10.17-.004 20.33-.002 30.5.004 15.97.007 31.94-.02 47.92v.025c.105 4.49-3.896 8.62-8.449 8.605l-.012.001c-6.461.055-12.89.046-19.33.038-5.574-.007-43.15-.014-48.76.02-1.958-.11-3.626.972-4.579 2.422-.95 1.446-1.28 3.395-.398 5.132.542 1.35 1.598 2.196 2.76 2.673 1.15.473 2.441.603 3.59.522 5.016-.03 42.05-.02 47.09-.01 6.851.012 13.71.026 20.55-.063h.031c9.737-.426 18.23-8.987 18.28-18.71v-.005c.021-14.49.016-28.98.012-43.47-.003-11.84-.007-23.69.003-35.53.751-10.6-8.556-20.4-19.26-20.28-14.63-.02-29.26-.015-43.89-.011-11.97.003-23.94.007-35.9-.003z" fill="url(#a)"/>
 <path transform="translate(-0) scale(1) translate(-0) scale(1) translate(-0 3e-6) scale(1) translate(.001804 -.01274) scale(1) translate(-2.147 -2.381) scale(.5367)" d="M37.53 25h-.004c-1.002.005-2.019.07-3.03.273-5.788 1.08-10.44 6.416-10.47 12.31-.026 8.036-.046 36.87.004 44.9-.019 1.427.92 2.523 2.038 3.048 1.11.522 2.544.552 3.643-.307 1.342-.882 1.584-2.495 1.569-3.69.009-3.314.006-27.42.004-30.73-.004-4.41-.007-8.82.016-13.24.036-2.915 2.815-5.449 5.777-5.396h.013c9.04-.01 18.08-.007 27.11-.004 8.132.003 16.26.006 24.4 0q.352-.001.696-.005c1.509-.014 2.86-.026 4.065.585l.013.007.014.007c2.175.983 3.524 3.39 3.363 5.763l-.001.022v.023q-.005 10.23-.001 20.46c.002 10.71.004 21.43-.014 32.14v.016c.07 3.011-2.614 5.782-5.668 5.773h-.008c-4.334.038-8.648.032-12.97.026-3.739-.004-28.95-.009-32.71.014-1.313-.074-2.432.652-3.072 1.625-.637.97-.858 2.278-.267 3.443.364.905 1.072 1.473 1.851 1.793.772.318 1.638.405 2.408.35 3.365-.02 28.21-.014 31.59-.007 4.596.009 9.198.018 13.79-.042h.021c6.532-.285 12.23-6.028 12.26-12.55v-.003c.015-9.719.011-19.44.008-29.16-.002-7.946-.004-15.89.002-23.83.504-7.11-5.739-13.68-12.92-13.6-9.814-.013-19.63-.01-29.44-.008-8.029.003-16.06.005-24.08-.002z" fill="url(#b)"/>
 <path transform="translate(-0) scale(1) translate(-0) scale(1) translate(-0 3e-6) scale(1) translate(.001804 -.01274) scale(1) translate(-2.147 -2.381) scale(.5367)" d="M19.6 116.2c.376-2.744-.988-5.237-2.985-6.77-1.998-1.535-4.768-2.218-7.348-1.185-2.842.888-4.545 3.391-4.971 6.004-.426 2.61.393 5.517 2.808 7.251 2.276 1.977 5.347 2.052 7.811.997 2.462-1.055 4.526-3.328 4.686-6.297z" fill="url(#c)"/>
 <path transform="translate(-0) scale(1) translate(-0) scale(1) translate(-0 3e-6) scale(1) translate(.001804 -.01274) scale(1) translate(-2.147 -2.381) scale(.5367)" d="M35.95 98.55c.292-2.128-.766-4.061-2.315-5.25s-3.698-1.72-5.698-.919c-2.204.689-3.525 2.63-3.855 4.656-.33 2.024.305 4.28 2.177 5.623 1.765 1.533 4.147 1.592 6.057.773 1.909-.818 3.51-2.58 3.634-4.883z" fill="url(#g)"/>
 <path transform="translate(-0) scale(1) translate(-0) scale(1) translate(-0 3e-6) scale(1) translate(.001804 -.01274) scale(1) translate(-2.147 -2.381) scale(.5367)" d="M53.42 59.18c-1.617-3.706 1.741-8.248 5.746-8.145 3.406-.056 6.821-.047 10.24 0 4.234-.094 7.63 5.013 5.442 8.737-.837 2.22-3.216 3.066-5.289 3.781.095 3.536.247 7.091.019 10.63-.01 2.586-2.492 4.307-4.814 4.815-2.664.019-5.775-1.994-5.746-4.853-.18-3.546-.019-7.11-.047-10.67-2.331-.592-4.852-1.815-5.546-4.298z" fill="url(#h)"/>
 <path transform="translate(-0) scale(1) translate(-0) scale(1) translate(-0 3e-6) scale(1) translate(.001804 -.01274) scale(1) translate(-2.147 -2.381) scale(.5367)" d="M60.67 39.26a23.8 23.8 0 0 1 7.002-.006c4.638 1.184 9.327 2.779 12.91 6.056 5.804 4.959 9.17 12.64 8.792 20.21-.744 8.336-5.678 16.34-13.25 20.28-4.827 2.467-10.42 3.913-15.85 2.835-3.668-.866-7.317-2.062-10.4-4.268-6.775-4.58-10.85-12.61-10.87-20.69.271-7.558 3.989-15.01 10.2-19.51 3.328-2.617 7.443-3.82 11.47-4.916zm-.258 7.458c-6.592 1.389-12.21 6.71-13.63 13.25-1.531 5.994.497 12.7 5.086 16.9 4.782 4.561 12.26 6.237 18.48 3.776 8.526-2.891 13.75-12.8 11.05-21.35-2.226-8.785-12.08-14.71-20.99-12.58z" fill="url(#i)"/>
</svg>
