<svg xmlns="http://www.w3.org/2000/svg" viewBox="0 0 64 64"><defs><linearGradient id="a" x2="0" y1="1"><stop offset="0" stop-color="#00efff"/><stop offset="1" stop-color="#07f"/></linearGradient><linearGradient id="f" y1="1"><stop offset="0" stop-color="#ff001e"/><stop offset="1" stop-color="#ff004b"/></linearGradient><linearGradient id="d" y1="1"><stop offset="0" stop-color="#fda700"/><stop offset="1" stop-color="#ffde00"/></linearGradient><linearGradient id="c" y1="1"><stop offset="0" stop-color="#01ff01"/><stop offset="1" stop-color="#1bc100"/></linearGradient><linearGradient id="h" y1="1"><stop offset="0" stop-color="#00efff"/><stop offset="1" stop-color="#07f"/></linearGradient><linearGradient id="b" y2="1"><stop offset="0" stop-color="#d300dc"/><stop offset="1" stop-color="#8219ff"/></linearGradient></defs><path fill="url(#a)" d="M30.42 47.73v6.436h-6.508a1.89 1.89 0 0 0-1.894 1.891v1.26H1.458a1.456 1.575 0 1 0 0 3.148h20.56v1.258c0 1.047.847 1.893 1.894 1.893h16.17a1.89 1.89 0 0 0 1.891-1.893v-1.258h20.57a1.456 1.575 0 1 0 0-3.148h-20.57v-1.26a1.887 1.887 0 0 0-1.891-1.891H33.57V47.73z" transform="translate(.05 .051)scale(.998)"/><path fill="url(#b)" d="M9.344.385C6.182.385 3.35 2.719 3.35 5.867v31.85h.004v8.027c0 3.182 2.797 5.623 5.994 5.623h45.3c3.196 0 5.996-2.44 5.996-5.623V5.864c0-3.148-2.835-5.482-5.998-5.482zm0 3.75h45.3c1.402 0 2.246.881 2.246 1.732v28.1H7.1v-28.1c0-.85.846-1.732 2.244-1.732m-2.242 33.59h49.79v8.025c0 .97-.88 1.87-2.246 1.87h-45.3c-1.368 0-2.246-.9-2.246-1.87z" transform="translate(.05 .051)scale(.9984)"/><path fill="url(#c)" d="M24.65 40.05a2.624 2.624 0 0 0-2.623 2.623 2.624 2.624 0 0 0 2.623 2.625 2.624 2.624 0 0 0 2.625-2.625 2.624 2.624 0 0 0-2.625-2.623" transform="translate(.05 .051)scale(.998)"/><path fill="url(#d)" d="M32 40.05a2.624 2.624 0 0 0-2.625 2.623A2.624 2.624 0 0 0 32 45.298a2.624 2.624 0 0 0 2.623-2.625A2.624 2.624 0 0 0 32 40.05" transform="translate(.05 .051)scale(.998)"/><path fill="url(#f)" d="M39.35 40.05a2.624 2.624 0 0 0-2.625 2.623 2.624 2.624 0 0 0 2.625 2.625 2.624 2.624 0 0 0 2.625-2.625 2.624 2.624 0 0 0-2.625-2.623" transform="translate(.05 .051)scale(.998)"/><path fill="url(#h)" d="M31.56 7.99q-.714.034-1.42.19a8.78 8.78 0 0 0-4.832 2.962c-1.184 1.416-1.9 3.173-2.096 5.03a6.2 6.2 0 0 0-3.758 2.185 6.67 6.67 0 0 0-1.48 4.557 6.62 6.62 0 0 0 1.936 4.371 6.15 6.15 0 0 0 4.314 1.797h13.8a7.83 7.83 0 0 0 5.402-2.176c1.473-1.399 2.385-3.317 2.566-5.375a8.53 8.53 0 0 0-1.59-5.768 7.96 7.96 0 0 0-4.723-3.092c-.904-1.67-2.28-3.017-3.959-3.832a8.6 8.6 0 0 0-4.16-.85zm.52 2.24h.003q.627.008 1.248.14c1.416.305 2.673 1.1 3.625 2.224-.803.112-1.594.307-2.33.666a8 8 0 0 0-2.598 2.022 1.12 1.12 0 0 0-.287.808 1.14 1.14 0 0 0 .362.785 1.1 1.1 0 0 0 .82.284 1.08 1.08 0 0 0 .754-.4l.01-.013a5.8 5.8 0 0 1 2.357-1.67 5.57 5.57 0 0 1 2.842-.296 5.7 5.7 0 0 1 2.635 1.156 6 6 0 0 1 1.79 2.336 6.3 6.3 0 0 1-.415 5.797 5.9 5.9 0 0 1-2.102 2.03 5.6 5.6 0 0 1-2.768.737h-13.8a3.97 3.97 0 0 1-2.783-1.135 4.34 4.34 0 0 1-1.293-2.834 4.38 4.38 0 0 1 .918-2.99 4.02 4.02 0 0 1 2.197-1.412c.14 1.065.426 2.105.912 3.057v.002a1.12 1.12 0 0 0 .648.549 1.07 1.07 0 0 0 .846-.088q.192-.108.328-.282a1.13 1.13 0 0 0 .238-.814 1.2 1.2 0 0 0-.12-.414 7.24 7.24 0 0 1-.56-5.107c.446-1.715 1.501-3.182 2.947-4.11a6.45 6.45 0 0 1 3.574-1.026z" transform="translate(.05 .051)scale(.998)"/></svg>