<svg xmlns="http://www.w3.org/2000/svg" viewBox="0 0 64 64"><defs><linearGradient id="a" y1="1"><stop offset="0" stop-color="#fd5900"/><stop offset="1" stop-color="#ffde00"/></linearGradient></defs><path fill="url(#a)" d="M14.566 3.798c1.873.63 3.643 1.21 4.927 1.2.312.03.735.24.887.51.162.29.129.76-.014 1s-.541.46-.873.49c-1.718-.01-3.686-.68-5.559-1.3s-3.65-1.2-4.934-1.2c-2.656 0-5.988 1.86-6.009 1.87-.275.12-.723.15-.982 0-.288-.16-.504-.59-.505-.86-.001-.28.231-.67.496-.87.05-.03 3.651-2.14 7-2.14 1.72 0 3.694.68 5.566 1.3m-4.757 2.72c1.937.05 3.11.45 4.312.93 1.259.5 2.64 1.09 5.545 1.57.157.03.372.13.493.23.249.22.375.68.32.95s-.362.6-.663.75c-2.717.88-4.922 2.999-8.609 3.47.846.85 1.897 1.78 2.74 2.19.625.32 1.167.55 1.639.72a1.4 1.4 0 0 1-.086-.33c.033-.69.38-1.35.792-1.76.426-.4 1.073-.74 1.708-.74.666 0 1.318.38 1.723.78.404.41.777 1.06.777 1.72 0 .54-.228 1.18-.63 1.6-.386.39-.961.68-1.59.86-1.406.38-3.127-.02-5.226-1.06-1.16-.59-2.36-1.66-3.261-2.57-.812-.81-1.109-1.16-1.338-1.43-.729-.08-.979-.13-1.455-.23v4.33c-.031.31-.24.73-.512.88-.289.16-.76.13-1-.01s-.451-.54-.488-.87v-4.86c-1.796-.59-2.996-1.27-2.996-1.27-.214-.15-.436-.44-.484-.66-.047-.23.043-.58.179-.81.107-.13 3.123-4.1 7.493-4.38.097-.01.208-.02.308-.02.105 0 .209.01.309.02m2.996 3.29c-.022.87-.397 1.76-.968 2.33-.089.09-.186.18-.289.26 2.071-.3 3.324-1.19 5.006-2.07-1.361-.35-2.162-.62-3.175-1.02-.609-.25-.462-.19-.678-.27.063.26.092.14.104.77m-5.51 2.46c-.046-.04-.09-.08-.132-.13-.571-.57-.946-1.46-.968-2.33.008-.5.01-.23.023-.34-1.079.6-1.443 1.07-2.044 1.71.732.34 1.656.81 3.121 1.09M9.394 7.93a1.838 1.838 0 1 0 0 3.676 1.838 1.838 0 0 0 0-3.676" transform="translate(-5.067 -5.224)scale(3.369)"/></svg>