<svg xmlns="http://www.w3.org/2000/svg" style="isolation:isolate" viewBox="0 0 64 64"><linearGradient id="a" x1=".056" x2=".973" y1=".957" y2=".191" gradientTransform="matrix(47.5 0 0 41.88 .25 3.059)" gradientUnits="userSpaceOnUse" transform="translate(-.337 -.336)scale(1.347)"><stop offset="0" stop-color="#879af2"/><stop offset=".479" stop-color="#d3208b"/><stop offset=".979" stop-color="#fda000"/></linearGradient><path fill="url(#a)" d="M25.06 44.94H9.75c-2.523 0-4.94-.971-6.713-2.697A9.01 9.01 0 0 1 .25 35.746v-23.49a9.01 9.01 0 0 1 2.787-6.497C4.81 4.033 7.227 3.062 9.75 3.062h28.5c2.523 0 4.94.971 6.713 2.697a9.01 9.01 0 0 1 2.787 6.497v10.43c0 1.128-.946 2.043-2.111 2.043s-2.111-.915-2.111-2.043v-10.43c0-1.359-.56-2.656-1.541-3.616a5.4 5.4 0 0 0-3.737-1.492H9.75A5.4 5.4 0 0 0 6.013 8.64a5.06 5.06 0 0 0-1.541 3.616v23.49c0 1.359.56 2.656 1.541 3.616a5.4 5.4 0 0 0 3.737 1.492h15.27a2.03 2.03 0 0 1 2.023 2l.001.086c.012 1.104-.874 2-1.977 2z" transform="translate(-.337 -.336)scale(1.347)"/><linearGradient id="b" x2=".887" y1=".5" y2=".011" gradientTransform="translate(25.3 22.49)scale(22.45)" gradientUnits="userSpaceOnUse" transform="translate(-.337 -.336)scale(1.347)"><stop offset="0" stop-color="#5433ff"/><stop offset=".492" stop-color="#e948ff"/><stop offset=".971" stop-color="#ff005b"/></linearGradient><path fill="url(#b)" fill-rule="evenodd" d="M36.53 22.49a2.04 2.04 0 0 1 2.04 2.041v.091a1.69 1.69 0 0 0 1.02 1.541c.63.278 1.365.145 1.857-.337l.062-.061a2.04 2.04 0 0 1 2.887 0 2.04 2.04 0 0 1 0 2.888l-.061.061a1.68 1.68 0 0 0-.337 1.857v.082c.265.616.87 1.017 1.541 1.02h.173a2.04 2.04 0 1 1 0 4.081h-.091a1.69 1.69 0 0 0-1.541 1.02 1.68 1.68 0 0 0 .337 1.857l.061.062a2.04 2.04 0 0 1 0 2.887 2.04 2.04 0 0 1-2.888 0l-.061-.061a1.68 1.68 0 0 0-1.857-.337 1.68 1.68 0 0 0-1.02 1.541v.173a2.041 2.041 0 0 1-4.082 0v-.091a1.68 1.68 0 0 0-1.101-1.541 1.68 1.68 0 0 0-1.857.337l-.062.061a2.04 2.04 0 0 1-2.887 0 2.04 2.04 0 0 1 0-2.888l.061-.061a1.68 1.68 0 0 0 .337-1.857 1.68 1.68 0 0 0-1.541-1.02h-.173a2.041 2.041 0 0 1 0-4.082h.091a1.68 1.68 0 0 0 1.541-1.101 1.68 1.68 0 0 0-.337-1.857l-.061-.062a2.04 2.04 0 0 1 0-2.887 2.04 2.04 0 0 1 2.888 0l.061.061a1.68 1.68 0 0 0 1.857.337h.082a1.69 1.69 0 0 0 1.02-1.541v-.173a2.04 2.04 0 0 1 2.041-2.041m0 8.418a2.806 2.806 0 1 0 0 5.611 2.806 2.806 0 0 0 0-5.611" transform="translate(-.337 -.336)scale(1.347)"/><linearGradient id="d" x1="-.137" x2="1.001" y1=".621" y2=".4" gradientTransform="matrix(21.3 0 0 16.86 7.465 9.292)" gradientUnits="userSpaceOnUse" transform="translate(-.337 -.336)scale(1.347)"><stop offset="0" stop-color="#f9d423"/><stop offset=".516" stop-color="#ff4e50"/><stop offset=".991" stop-color="#8a2387"/></linearGradient><path fill="url(#d)" fill-rule="evenodd" d="M8.252 12.95c-.891-.699-1.049-1.988-.353-2.876s1.98-1.046 2.866-.352l7.82 6.111c1.333 1.042 1.333 2.733 0 3.774l-7.82 6.112c-.886.693-2.17.535-2.866-.353s-.538-2.176.353-2.875l6.108-4.771zm11.97 9.201h6.539c1.103 0 2 .896 2 2s-.897 2-2 2h-6.539a2 2 0 0 1 0-4" transform="translate(-.337 -.336)scale(1.347)"/></svg>