<svg xmlns="http://www.w3.org/2000/svg" fill="none" viewBox="0 0 64 64"><defs><linearGradient id="a" x1="32" x2="32" y1="60" y2="20.72" gradientUnits="userSpaceOnUse"><stop offset="0" stop-color="#fda700"/><stop offset="1" stop-color="#ffde00"/></linearGradient><linearGradient id="b" x1="44.5" x2="44.5" y1="37.98" y2="4" gradientUnits="userSpaceOnUse"><stop offset="0" stop-color="#fda700"/><stop offset="1" stop-color="#ffde00"/></linearGradient><linearGradient id="e" x1="18.5" x2="18.5" y1="60" y2="21" gradientUnits="userSpaceOnUse"><stop offset="0" stop-color="#fda700"/><stop offset="1" stop-color="#ffde00"/></linearGradient><linearGradient id="f" x1="32" x2="32" y1="38" y2="4" gradientUnits="userSpaceOnUse"><stop offset="0" stop-color="#fda700"/><stop offset="1" stop-color="#ffde00"/></linearGradient></defs><path stroke="url(#a)" stroke-width="4" d="M7.011 20.72q-.01.16-.01.32v21.77a6.37 6.37 0 0 0 3.17 5.512l18.66 10.82a6.32 6.32 0 0 0 6.342 0l18.66-10.82a6.37 6.37 0 0 0 3.171-5.515v-21.77a7 7 0 0 0-.013-.24" transform="translate(-2.107 -2.081)scale(1.066)"/><path fill="url(#b)" d="M32.15 4v.004q-.075 0-.148.004v33.98a6.3 6.3 0 0 0 3.172-.848l18.67-10.95a6.4 6.4 0 0 0 2.216-2.18 6.5 6.5 0 0 0 .94-2.986 6.5 6.5 0 0 0-.928-3.014 6.4 6.4 0 0 0-2.228-2.204l-18.67-10.95a6.3 6.3 0 0 0-3.024-.861z" transform="translate(-2.107 -2.081)scale(1.066)"/><path fill="url(#e)" d="M5.013 21q-.005.105-.008.21.01-.105.023-.21zm-.01.266L5 21.318v21.62c.001 2.258 1.307 4.346 3.426 5.475l20.15 10.74c1.09.581 2.21.864 3.426.848V38.15a7.24 7.24 0 0 1-3.428-.852L8.404 26.43c-.98-.53-1.805-1.28-2.399-2.182S5.065 22.321 5 21.264z" transform="translate(-2.107 -2.081)scale(1.066)"/><path stroke="url(#f)" stroke-width="4" d="M32.15 4v.003a6.27 6.27 0 0 0-3.323.857l-18.67 10.95a6.4 6.4 0 0 0-2.215 2.182 6.5 6.5 0 0 0-.94 2.984 6.5 6.5 0 0 0 .928 3.014 6.4 6.4 0 0 0 2.227 2.204l18.67 10.95a6.27 6.27 0 0 0 6.348 0l18.67-10.95a6.4 6.4 0 0 0 2.215-2.182c.55-.9.873-1.926.94-2.984a6.5 6.5 0 0 0-.928-3.014 6.4 6.4 0 0 0-2.227-2.204L35.175 4.86A6.3 6.3 0 0 0 32.151 4z" transform="translate(-2.107 -2.081)scale(1.066)"/></svg>