<svg version="1.1" viewBox="0 0 64 64" xmlns="http://www.w3.org/2000/svg">
 <defs>
  <linearGradient id="a" x2="0" y1="1">
   <stop stop-color="#fda700" offset="0"/>
   <stop stop-color="#ffde00" offset="1"/>
  </linearGradient>
 </defs>
 <path transform="translate(-2e-4) scale(1) translate(.002)" d="m52.6 13.05-.008.008c-.653-.004-1.3.072-1.94.178-1.234.203-2.722.585-4.482 1.036l-10.84 2.794-.404.107c-1.93.494-3.618.93-4.938 1.926a8.17 8.17 0 0 0-2.615 3.367c-.637 1.524-.631 3.267-.627 5.252v17.16c-2.274 0-5.078.383-7.59 1.584-2.605 1.248-5.44 3.717-5.996 7.854-.303 2.26.195 4.998 2.404 7.203 2.213 2.205 4.946 2.698 7.21 2.396 4.144-.557 6.617-3.39 7.868-5.988 1.204-2.507 1.557-5.298 1.557-7.568v-16.54c0-.808.002-1.212.14-1.551a1.83 1.83 0 0 1 .577-.752c.291-.218.68-.319 1.463-.52l16.92-4.356c1.237-.316 1.857-.471 2.344-.326a1.83 1.83 0 0 1 1.025.797c.262.436.261 1.071.261 2.352v10.86c-2.273 0-5.077.383-7.584 1.586-2.605 1.248-5.438 3.713-5.994 7.85-.302 2.263.194 4.992 2.402 7.197a8.43 8.43 0 0 0 7.211 2.394c4.143-.552 6.616-3.382 7.867-5.98 1.204-2.503 1.557-5.303 1.557-7.576v-20.54c0-1.816.002-3.348-.107-4.594-.117-1.288-.37-2.583-1.086-3.758a8.18 8.18 0 0 0-4.613-3.568 7 7 0 0 0-1.977-.285z" fill="url(#a)"/>
 <path transform="translate(-2e-4) scale(1) translate(.002)" d="M26.43 0a2.6 2.6 0 0 0-.676.13l-6.76 2.249a5.1 5.1 0 0 0-3.486 4.84v12.44a7.651 7.651 0 1 0 3.398 6.365v-11.52l7.877-2.623a3.4 3.4 0 0 0 2.324-3.228V2.559a2.55 2.55 0 0 0-2.68-2.547z" fill="url(#a)"/>
</svg>
