<svg xmlns="http://www.w3.org/2000/svg" fill="none" viewBox="0 0 64 64"><defs><linearGradient id="a" x1="63.76" x2="105.9" y1="55.04" y2="8.448" gradientUnits="userSpaceOnUse"><stop offset="0" stop-color="#eb07ff"/><stop offset="1" stop-color="#001aff"/></linearGradient><linearGradient id="b" x1="31.5" x2="60.18" y1="72.96" y2="83.26" gradientUnits="userSpaceOnUse"><stop offset="0" stop-color="#00b59c"/><stop offset="1" stop-color="#9cffac"/></linearGradient><linearGradient id="c" x1="88.85" x2="62.86" y1="106.1" y2="96.26" gradientUnits="userSpaceOnUse"><stop offset="0" stop-color="#fd3a84"/><stop offset="1" stop-color="#ffa68d"/></linearGradient></defs><g fill-rule="evenodd" clip-rule="evenodd"><path fill="url(#a)" d="M30.61 8a8.96 8.96 0 0 0-8.96 8.96v33.6a4.48 4.48 0 0 0 8.96 0V21.44a4.48 4.48 0 0 1 4.48-4.48h57.34a4.48 4.48 0 0 1 4.48 4.48v67.2a4.48 4.48 0 0 1-4.48 4.48H68.24a4.48 4.48 0 0 0 0 8.96h28.67a8.96 8.96 0 0 0 8.96-8.96V16.96A8.96 8.96 0 0 0 96.91 8zM50 20.54h23.04c1.061 0 1.92 1.402 1.92 3.136s-.859 3.136-1.92 3.136H50c-1.061 0-1.92-1.402-1.92-3.136s.859-3.136 1.92-3.136m.64 13.44h30.72c1.415 0 2.56 1.402 2.56 3.136s-1.145 3.136-2.56 3.136H50.64c-1.415 0-2.56-1.402-2.56-3.136s1.145-3.136 2.56-3.136m39.04 13.44h-38.4c-1.769 0-3.2 1.402-3.2 3.136s1.431 3.136 3.2 3.136h38.4c1.769 0 3.2-1.402 3.2-3.136s-1.431-3.136-3.2-3.136m-53-14.78h4.887c1.125 0 2.036.836 2.036 1.867v5.227c0 1.031-.912 1.867-2.036 1.867H36.68c-1.125 0-2.036-.836-2.036-1.867v-5.227c0-1.031.912-1.867 2.036-1.867m4.887-12.1H36.68c-1.125 0-2.036.836-2.036 1.867v5.227c0 1.031.912 1.867 2.036 1.867h4.887c1.125 0 2.036-.836 2.036-1.867v-5.227c0-1.031-.912-1.867-2.036-1.867" transform="translate(-4.444 -4.571)scale(.5714)"/><path fill="url(#b)" d="m10.76 73.75 25.96 18.86c.516.35 4.832 3.645 5.513 3.645 3.24 0 2.636-2.401 2.294-3.306-.087-.23-.18-.458-.25-.693l-2.275-7.703c-.775-2.625 1.221-5.25 3.994-5.25h29.52c2.416 0 4.37-1.51 4.37-3.377V69.17a2.8 2.8 0 0 0-.343-1.302 3.5 3.5 0 0 0-.952-1.099 4.6 4.6 0 0 0-1.414-.728 5.4 5.4 0 0 0-1.66-.246h-29.49c-2.779 0-4.777-2.635-3.99-5.264l2.296-7.685q.043-.14.09-.279c.189-.584.805-2.875-.841-3.65-.815-.383-1.749.035-2.47.57-4.263 3.17-3.858 2.894-4.333 3.219l-26.02 18.42c-.24.163-.431.364-.563.591s-.2.472-.2.721c0 .25.067.495.198.722.13.227.322.429.56.593z" transform="translate(-4.444 -4.571)scale(.5714)"/><path fill="url(#c)" d="m116.8 97.5-25.96 18.86c-.516.35-4.831 3.645-5.513 3.645-3.24 0-2.636-2.401-2.294-3.306.087-.23.18-.458.25-.693l2.273-7.702c.776-2.626-1.22-5.251-3.993-5.251h-29.52c-2.417 0-4.37-1.51-4.37-3.376V92.92c.004-.448.12-.89.343-1.302.222-.412.546-.786.952-1.099s.886-.56 1.414-.728a5.4 5.4 0 0 1 1.66-.247h29.49c2.779 0 4.777-2.635 3.99-5.264l-2.296-7.685q-.043-.14-.09-.278c-.189-.585-.805-2.875.84-3.65.816-.384 1.75.034 2.47.57 4.264 3.17 3.859 2.893 4.334 3.218l26.02 18.42c.24.163.432.364.563.591.132.226.2.472.2.721 0 .25-.066.495-.197.723a1.85 1.85 0 0 1-.561.592z" transform="translate(-4.444 -4.571)scale(.5714)"/></g></svg>