<svg xmlns="http://www.w3.org/2000/svg" viewBox="0 0 64 64"><defs><linearGradient id="a" x1="1" x2="0" y1=".5" y2=".5"><stop offset="0" stop-color="#00efff"/><stop offset="1" stop-color="#07f"/></linearGradient></defs><path fill="url(#a)" d="M4 1c-.658 0-1.18.06-1.617.225a1.88 1.88 0 0 0-.998.837c-.416.753-.37 1.675-.385 2.933v.939a2.9 2.9 0 0 1 1-.637V5c.015-1.26.058-2.087.26-2.453.1-.184.215-.29.475-.386S3.408 2 4 2l8 .005c.592 0 1.006.063 1.266.16.26.098.373.204.474.387.202.366.245 1.193.26 2.453v.295c.378.14.714.359 1 .635V5c-.015-1.258.03-2.179-.385-2.932a1.88 1.88 0 0 0-.998-.838c-.438-.164-.96-.224-1.617-.224zm7 3v1h2V4zM3.986 6c-.66 0-1.183.06-1.623.225a1.9 1.9 0 0 0-1.002.838C1.07 7.589 1.018 8.25 1 9c.018.75.07 1.41.361 1.938.223.389.579.686 1.002.837.44.165.963.225 1.623.225L7 12.003v.998h2v-.996l3.014.002c.66 0 1.183-.06 1.623-.225a1.9 1.9 0 0 0 1.002-.838c.292-.528.343-1.19.361-1.943-.018-.746-.07-1.406-.361-1.932a1.9 1.9 0 0 0-1.002-.838c-.44-.164-.964-.224-1.623-.224zm0 1 8.027.006c.594 0 1.01.063 1.272.16.261.098.375.204.477.387.137.248.19.784.22 1.447-.03.67-.082 1.21-.22 1.459-.102.183-.216.288-.477.386-.26.097-.678.16-1.272.16L3.986 11c-.594 0-1.01-.063-1.272-.16s-.376-.203-.477-.387c-.138-.25-.19-.787-.22-1.453.03-.666.082-1.204.22-1.453.1-.184.216-.29.477-.387.26-.097.677-.16 1.272-.16M11 9v1h2V9zM1 14v1h14v-1z" transform="translate(-4.57 -4.568)scale(4.571)"/></svg>