<svg xmlns="http://www.w3.org/2000/svg" xmlns:xlink="http://www.w3.org/1999/xlink" viewBox="0 0 64 64"><defs><linearGradient id="a" y2="1"><stop offset="0" stop-color="#00fffa"/><stop offset="1" stop-color="#0078ff"/></linearGradient><linearGradient xlink:href="#a" id="b" x1="50.27" x2="64.77" y1="1.91" y2="16.41" gradientTransform="matrix(1.126 0 0 1.164 -45.3 7.252)" gradientUnits="userSpaceOnUse"/></defs><path fill="url(#a)" d="M87.48 70.72c-.853 0-1.714.15-2.48.522-.764.37-1.464 1.008-1.738 1.915l-7.594 24.75-.006.026c-.039.156-.107.223-.107.635 0 1.118.778 1.919 1.586 2.394s1.739.726 2.637.726c.538 0 1.08-.076 1.59-.351.509-.276.944-.8 1.106-1.414l1.279-4.482h7.492l1.28 4.48c.162.614.597 1.14 1.107 1.416s1.053.351 1.592.351c.906 0 1.835-.264 2.639-.744s1.584-1.262 1.584-2.377c0-.34-.08-.517-.11-.637l-.006-.025-7.592-24.74c-.272-.91-.976-1.552-1.748-1.922-.771-.37-1.64-.521-2.51-.521zm-.002 11.31 2.098 7.398h-4.193z" transform="translate(-3.93 -3.926)scale(.56134)"/><path fill="url(#a)" d="M20.07 7C12.873 7 7 12.871 7 20.07v42.17c0 7.196 5.871 13.07 13.07 13.07h32.62v12.85l-10.51 7.506a4.28 4.28 0 0 0 .002 6.966l10.82 7.727c1.153 6.038 6.4 10.64 12.76 10.64h42.18c7.196 0 13.07-5.872 13.07-13.07v-42.17c0-7.197-5.871-13.07-13.07-13.07h-32.62v-12.85l10.51-7.506a4.282 4.282 0 0 0 0-6.966l-10.82-7.727C73.859 11.603 68.612 7 62.252 7zm0 8.562h42.17a4.497 4.497 0 0 1 4.504 4.504c0 1.382.67 2.682 1.795 3.484l7.424 5.303-7.426 5.303a4.29 4.29 0 0 0-1.793 3.484v15.05h-.988c-7.196 0-13.07 5.872-13.07 13.07v.99h-32.62a4.5 4.5 0 0 1-4.506-4.506v-42.18a4.5 4.5 0 0 1 4.506-4.504zm45.69 45.69h42.18a4.5 4.5 0 0 1 4.504 4.506v42.17a4.5 4.5 0 0 1-4.504 4.506H65.76a4.5 4.5 0 0 1-4.504-4.506c0-1.38-.669-2.68-1.793-3.482l-7.426-5.303 7.426-5.303a4.29 4.29 0 0 0 1.793-3.484v-24.6a4.5 4.5 0 0 1 4.504-4.506z" transform="translate(-3.93 -3.926)scale(.56134)"/><text x="19.468" y="26.347" fill="url(#b)" stroke-width="1.266" font-family="FreeSans" font-size="28.96" font-weight="700" style="line-height:0%" text-anchor="middle" transform="scale(.9707 1)"><tspan x="19.468" y="26.347" font-size="22.86">𝛀</tspan></text></svg>