<svg xmlns="http://www.w3.org/2000/svg" style="isolation:isolate" viewBox="0 0 64 64"><linearGradient id="a" x2="1" y1=".5" y2=".5" gradientTransform="matrix(43.99 0 0 42.63 2.005 2.686)" gradientUnits="userSpaceOnUse" transform="scale(1.333)"><stop offset="0" stop-color="#18d0ad"/><stop offset=".904" stop-color="#07c3f2"/></linearGradient><path fill="url(#a)" fill-rule="evenodd" d="M43.17 16.73v12.12c0 1.171-.95 2.121-2.121 2.121h-18.38a2.12 2.12 0 0 1-2.121-2.121V7.64c0-1.171.95-2.121 2.121-2.121h8.632c.39 0 .938.217 1.222.484l10.13 9.537c.284.267.515.801.515 1.191zM38.221 5.52a1.415 1.415 0 0 1 0-2.828h4.242a3.537 3.537 0 0 1 3.535 3.535v4.242a1.415 1.415 0 0 1-2.828 0V7.641c0-1.171-.95-2.121-2.121-2.121zm7.777 10.7v14.04a3.537 3.537 0 0 1-3.535 3.535h-21.21a3.537 3.537 0 0 1-3.535-3.535V6.22a3.537 3.537 0 0 1 3.535-3.535h10.46c.78 0 1.875.434 2.444.969l10.81 10.18c.569.535 1.03 1.603 1.03 2.383zm-30.37.818H6.961c-1.171 0-2.121.95-2.121 2.121v21.21c0 1.171.95 2.121 2.121 2.121h18.38c1.171 0 2.121-.95 2.121-2.121v-5.21h2.828v6.624a3.537 3.537 0 0 1-3.535 3.535H5.545a3.537 3.537 0 0 1-3.535-3.535v-24.04a3.537 3.537 0 0 1 3.535-3.535h10.08v2.828z" transform="scale(1.333)"/><linearGradient id="b" x2=".907" y1=".5" y2=".92" gradientTransform="matrix(48 0 0 5 0 21.5)" gradientUnits="userSpaceOnUse" transform="scale(1.333)"><stop offset="0" stop-color="#ff416c"/><stop offset=".844" stop-color="#ff4b2b"/></linearGradient><path fill="url(#b)" d="M1.348 21.5h45.3c.744 0 1.348.604 1.348 1.348v2.304c0 .744-.604 1.348-1.348 1.348h-45.3A1.35 1.35 0 0 1 0 25.152v-2.304c0-.744.604-1.348 1.348-1.348" transform="scale(1.333)"/></svg>