<svg version="1.1" viewBox="0 0 64 64" xmlns="http://www.w3.org/2000/svg">
 <defs>
  <linearGradient id="a" y1="1">
   <stop stop-color="#7f00ff" offset="0"/>
   <stop stop-color="#e100ff" offset="1"/>
  </linearGradient>
  <linearGradient id="c" x2="0" y1="1">
   <stop stop-color="#00cca0" offset="0"/>
  </linearGradient>
 </defs>
 <path transform="translate(2.6e-5 .000439) scale(1) translate(0 -.004)" d="M8.533 4.082A8.514 8.514 0 0 0 0 12.617v42.67a8.514 8.514 0 0 0 8.533 8.535h46.91a8.516 8.516 0 0 0 8.535-8.535v-42.67a8.516 8.516 0 0 0-8.535-8.535h-3.062v4.141c0 2.555-2.122 4.666-4.672 4.666s-4.666-2.116-4.666-4.666V4.082h-22.11v4.141c0 2.555-2.122 4.666-4.672 4.666s-4.666-2.116-4.666-4.666V4.082zm0 12.8h46.91a4.26 4.26 0 0 1 4.27 4.266v34.12a4.26 4.26 0 0 1-4.27 4.266H8.533a4.256 4.256 0 0 1-4.266-4.266v-34.12a4.256 4.256 0 0 1 4.266-4.266" fill="url(#a)"/>
 <path transform="translate(2.6e-5 .000439) scale(1)" d="M23.67 21.576a1.917 1.917 0 0 0-1.922 1.92v3.838a1.92 1.92 0 0 0 1.922 1.924h3.84c1.064 0 1.92-.86 1.92-1.924v-3.838c0-1.064-.856-1.92-1.92-1.92zM36.46 21.576c-1.064 0-1.92.857-1.92 1.92v3.838c0 1.064.856 1.924 1.92 1.924h3.838c1.064 0 1.924-.86 1.924-1.924v-3.838c0-1.064-.86-1.92-1.924-1.92zM49.25 21.576a1.92 1.92 0 0 0-1.924 1.92v3.838c0 1.064.86 1.924 1.924 1.924h3.842c1.064 0 1.916-.86 1.916-1.924v-3.838c0-1.064-.852-1.92-1.916-1.92zM36.46 34.366c-1.064 0-1.92.86-1.92 1.924v3.842c0 1.064.856 1.916 1.92 1.916h3.838a1.916 1.916 0 0 0 1.924-1.916V36.29c0-1.064-.86-1.924-1.924-1.924zM49.25 34.366c-1.064 0-1.924.86-1.924 1.924v3.842c0 1.064.86 1.916 1.924 1.916h3.842a1.91 1.91 0 0 0 1.916-1.916V36.29a1.916 1.916 0 0 0-1.916-1.924zM10.88 34.366c-1.064 0-1.918.86-1.918 1.924v3.842a1.91 1.91 0 0 0 1.918 1.916h3.842a1.91 1.91 0 0 0 1.916-1.916V36.29a1.916 1.916 0 0 0-1.916-1.924zM10.88 47.166a1.914 1.914 0 0 0-1.918 1.92v3.838c0 1.064.854 1.924 1.918 1.924h3.842c1.064 0 1.916-.86 1.916-1.924v-3.838c0-1.064-.852-1.92-1.916-1.92zM23.67 47.166a1.917 1.917 0 0 0-1.922 1.92v3.838a1.92 1.92 0 0 0 1.922 1.924h3.84c1.064 0 1.92-.86 1.92-1.924v-3.838c0-1.064-.856-1.92-1.92-1.92zM36.46 47.166c-1.064 0-1.92.857-1.92 1.92v3.838c0 1.064.856 1.924 1.92 1.924h3.838c1.064 0 1.924-.86 1.924-1.924v-3.838c0-1.064-.86-1.92-1.924-1.92z" fill="#0040ff"/>
 <path transform="translate(2.6e-5 .000439) scale(1) translate(0 -.004)" d="m25.28 33.57a4.644 4.644 0 0 0-4.33 4.635 4.648 4.648 0 0 0 9.295 0 4.644 4.644 0 0 0-4.963-4.635z" fill="url(#c)"/>
 <path transform="translate(2.6e-5 .000439) scale(1) translate(0 -.004)" d="M16.14.164a2.67 2.67 0 0 0-2.535 2.666v5.393c0 1.48 1.188 2.666 2.666 2.666s2.672-1.188 2.672-2.666V2.83A2.663 2.663 0 0 0 16.271.164c-.046 0-.084-.002-.129 0z" fill="url(#c)"/>
 <path transform="translate(2.6e-5 .000439) scale(1) translate(0 -.004)" d="M47.58.164a2.67 2.67 0 0 0-2.535 2.666v5.393c0 1.48 1.188 2.666 2.666 2.666s2.672-1.188 2.672-2.666V2.83A2.663 2.663 0 0 0 47.711.164c-.046 0-.084-.002-.129 0z" fill="url(#c)"/>
</svg>
