<svg xmlns="http://www.w3.org/2000/svg" fill="none" viewBox="0 0 64 64"><defs><linearGradient id="a" x1="112.8" x2="135.3" y1="36.54" y2="41.16" gradientUnits="userSpaceOnUse"><stop offset="0" stop-color="#f9d423"/><stop offset=".516" stop-color="#ff4e50"/><stop offset=".991" stop-color="#8a2387"/></linearGradient><linearGradient id="b" x1="2.855" x2="23.39" y1="36.54" y2="40.39" gradientUnits="userSpaceOnUse"><stop offset="0" stop-color="#f9d423"/><stop offset=".516" stop-color="#ff4e50"/><stop offset=".991" stop-color="#8a2387"/></linearGradient><linearGradient id="c" x1="109" x2="109" y1="98" y2="29" gradientUnits="userSpaceOnUse"><stop offset="0" stop-color="#00b59c"/><stop offset="1" stop-color="#9cffac"/></linearGradient><linearGradient id="d" x1="18" x2="18" y1="98" y2="29" gradientUnits="userSpaceOnUse"><stop offset="0" stop-color="#00b59c"/><stop offset="1" stop-color="#9cffac"/></linearGradient><linearGradient id="e" x1="65.5" x2="65.5" y1="83" y2="45" gradientUnits="userSpaceOnUse"><stop offset="0" stop-color="#5570ff"/><stop offset="1" stop-color="#4dd3ff"/></linearGradient><linearGradient id="f" x1="63" x2="63" y1="100" y2="27" gradientUnits="userSpaceOnUse"><stop offset="0" stop-color="#5570ff"/><stop offset="1" stop-color="#4dd3ff"/></linearGradient></defs><path fill="url(#a)" d="M119 36h-6v55h6a5 5 0 0 0 5-5V41a5 5 0 0 0-5-5" transform="translate(-1.587 -1.587)scale(.5289)"/><path fill="url(#b)" d="M13 36H8a5 5 0 0 0-5 5v45a5 5 0 0 0 5 5h5z" transform="translate(-1.587 -1.587)scale(.5289)"/><path fill="url(#c)" d="M110 29h-7v69h7a5 5 0 0 0 5-5V34a5 5 0 0 0-5-5" transform="translate(-1.587 -1.587)scale(.5289)"/><path fill="url(#d)" d="M25 29h-9a5 5 0 0 0-5 5v59a5 5 0 0 0 5 5h9z" transform="translate(-1.587 -1.587)scale(.5289)"/><path fill="url(#e)" d="M54.05 82.52a3.41 3.41 0 0 1-3.345.087c-1.05-.56-1.702-1.622-1.702-2.772v-31.67c0-1.15.651-2.21 1.702-2.77 1.05-.551 2.346-.523 3.345.086l26.4 15.83c.967.578 1.553 1.593 1.553 2.684s-.587 2.106-1.553 2.685l-26.4 15.83z" transform="translate(-1.587 -1.587)scale(.5289)"/><path stroke="url(#f)" stroke-width="10" d="M93 27H33a8 8 0 0 0-8 8v57a8 8 0 0 0 8 8h60a8 8 0 0 0 8-8V35a8 8 0 0 0-8-8z" transform="translate(-1.587 -1.587)scale(.5289)"/></svg>