<svg xmlns="http://www.w3.org/2000/svg" fill="none" viewBox="0 0 64 64"><defs><linearGradient id="a" x1="14.2" x2="2.65" y1="5.399" y2="22.45" gradientUnits="userSpaceOnUse"><stop offset=".073" stop-color="#93d83c"/><stop offset=".339" stop-color="#dee200"/><stop offset=".63" stop-color="#ff912b"/><stop offset="1" stop-color="#bd00ff"/></linearGradient><linearGradient id="c" x1="7.253" x2="7.253" y1="9.128" y2="5.463" gradientUnits="userSpaceOnUse"><stop offset="0" stop-color="#fd5900"/><stop offset="1" stop-color="#ffde00"/></linearGradient></defs><path fill="url(#a)" d="M10.62 23H4.205a2.295 2.295 0 0 1-2.292-2.292v-10.67a2.174 2.174 0 0 1-.651-2.813c.99-1.768 1.999-3.512 2.993-5.182a2.17 2.17 0 0 1 1.874-1.04c.466.004.92.152 1.298.423l.026.016c.453.264 4.83 2.87 8.35 4.962l3.123 1.856.143.085q1.512.89 3.018 1.791a2.16 2.16 0 0 1 .641 2.807 237 237 0 0 1-2.992 5.182 2.18 2.18 0 0 1-1.848 1.046q-.225 0-.44-.05c-.128.076-.832.529-1.724 1.1-1.587 1.018-3.756 2.409-4.007 2.538a2.2 2.2 0 0 1-1.096.238zm-6.874-9.865v7.573a.46.46 0 0 0 .459.459H8.41a531 531 0 0 1-4.663-8.032zm1.494-1.1c.44.756 5.187 8.944 5.226 8.999a.33.33 0 0 0 .418.09c.147-.083 4.612-2.952 4.656-2.98-.345-.203-2.844-1.693-5.49-3.269l-4.831-2.873.008.012.01.019v.007zm.521-8.941c-.888 1.43-2.877 4.98-2.903 5.045a.34.34 0 0 0 .137.424c.146.087 14.69 8.75 14.83 8.772h.052a.34.34 0 0 0 .293-.163 454 454 0 0 0 2.963-5.133.35.35 0 0 0-.138-.426c-.14-.084-14.65-8.708-14.75-8.749a.345.345 0 0 0-.42.129l-.008.013-.01.013-.012.022v.006l-.017.026-.015.02z" transform="translate(-2.909 -2.907)scale(2.909)"/><path fill="url(#c)" d="M6.235 8.819c.301.201.655.309 1.017.309v-.003A1.837 1.837 0 0 0 9.086 7.29a1.834 1.834 0 0 0-3.13-1.29 1.833 1.833 0 0 0 .28 2.818z" transform="translate(-2.909 -2.907)scale(2.909)"/></svg>