<svg style="isolation:isolate" version="1.1" viewBox="0 0 64 64" xmlns="http://www.w3.org/2000/svg">
 <linearGradient id="a" transform="translate(-.00138 .01066) scale(1) translate(-.172) scale(1.333)" x1=".133" x2="1" y1=".143" y2="1" gradientTransform="matrix(36.64 0 0 11.38 5.806 36.62)" gradientUnits="userSpaceOnUse">
  <stop stop-color="#f3895f" offset="0"/>
  <stop stop-color="#9622aa" offset=".665"/>
  <stop stop-color="#4a1eef" offset="1"/>
 </linearGradient>
 <path transform="translate(-.00138 .01066) scale(1) translate(-.172) scale(1.333)" d="M27.9 43.87a14 14 0 0 1-1.039-1.218 22.4 22.4 0 0 1-2.044-3.231l-.692-1.333-.692 1.333a22 22 0 0 1-2.147 3.355q-.438.57-.936 1.094zm5.178 0A9.412 9.412 0 0 1 31 42.549a11.4 11.4 0 0 1-1.672-1.776 19 19 0 0 1-1.766-2.777l-.712-1.372-2.725 1.413-2.725-1.413-.712 1.372a19.4 19.4 0 0 1-1.848 2.891 11.6 11.6 0 0 1-1.755 1.796 9 9 0 0 1-1.755 1.115l-.157.072H7.867a2.066 2.066 0 0 0-2.065 2.064c0 1.14.926 2.065 2.065 2.065h32.52a2.066 2.066 0 0 0 0-4.129h-7.305z" fill="url(#a)" fill-rule="evenodd"/>
 <linearGradient id="c" transform="translate(-.00138 .01066) scale(1) translate(-.172) scale(1.333)" x1=".26" x2=".806" y1=".063" y2=".937" gradientTransform="translate(4)scale(40.26)" gradientUnits="userSpaceOnUse">
  <stop stop-color="#879af2" offset="0"/>
  <stop stop-color="#d3208b" offset=".479"/>
  <stop stop-color="#fda000" offset=".979"/>
 </linearGradient>
 <path transform="translate(-.00138 .01066) scale(1) translate(-.172) scale(1.333)" d="M8.305 22.49c.165 1.128-.617 2.18-1.745 2.348s-2.178-.611-2.343-1.739A20.184 20.184 0 0 1 9.894 5.886c3.778-3.768 8.898-5.894 14.24-5.894s10.46 2.126 14.24 5.894c3.768 3.778 5.894 8.898 5.894 14.24s-2.126 10.46-5.894 14.24a20.17 20.17 0 0 1-14.24 5.894 20.11 20.11 0 0 1-14.08-5.75 2.066 2.066 0 0 1 2.89-2.952 15.97 15.97 0 0 0 11.19 4.573 15.98 15.98 0 0 0 11.31-4.686 15.995 15.995 0 1 0-22.62-22.62 16 16 0 0 0-4.51 13.674zm19.76-13.6a1.035 1.035 0 0 1 .661-1.961 14.46 14.46 0 0 1 8.423 7.432c.25.513.038 1.13-.475 1.378s-1.133.033-1.383-.48a12.4 12.4 0 0 0-7.226-6.369M23.1 6.702a1.033 1.033 0 1 1 2.066 0 1.033 1.033 0 0 1-2.066 0m-1.549 14.45c0-.681.269-1.342.754-1.827s1.146-.753 1.827-.753 1.342.268 1.827.753a2.587 2.587 0 0 1 0 3.654c-.485.486-1.146.754-1.827.754s-1.342-.268-1.827-.754a2.59 2.59 0 0 1-.754-1.827m-2.064 0c0-1.228.485-2.415 1.362-3.282.868-.878 2.055-1.363 3.283-1.363s2.416.485 3.283 1.363a4.62 4.62 0 0 1 1.362 3.282 4.62 4.62 0 0 1-1.362 3.283c-.867.877-2.055 1.362-3.283 1.362s-2.415-.485-3.283-1.362a4.62 4.62 0 0 1-1.362-3.283m-2.065 0c0-1.775.713-3.489 1.962-4.748a6.76 6.76 0 0 1 4.748-1.961 6.76 6.76 0 0 1 4.748 1.961 6.76 6.76 0 0 1 1.962 4.748 6.77 6.77 0 0 1-1.962 4.749 6.76 6.76 0 0 1-4.748 1.961 6.76 6.76 0 0 1-4.748-1.961 6.77 6.77 0 0 1-1.962-4.749m-2.064 0c0-2.322.929-4.562 2.57-6.204s3.881-2.57 6.204-2.57 4.563.929 6.204 2.57a8.8 8.8 0 0 1 2.57 6.204c0 2.323-.929 4.563-2.57 6.204s-3.881 2.57-6.204 2.57-4.563-.929-6.204-2.57-2.57-3.881-2.57-6.204" fill="url(#c)" fill-rule="evenodd"/>
</svg>
