<svg style="isolation:isolate" version="1.1" viewBox="0 0 64 64" xmlns="http://www.w3.org/2000/svg">
 <linearGradient id="a" transform="translate(-.6809 .000272) scale(1.362)" x2="1" y1=".5" y2=".5" gradientTransform="matrix(47 0 0 40 .5 3.499)" gradientUnits="userSpaceOnUse">
  <stop stop-color="#43e97b" offset="0"/>
  <stop stop-color="#38f9d7" offset=".9783"/>
 </linearGradient>
 <path transform="translate(-.6809 .000272) scale(1.362)" d="m10.4 4.99c2.09-0.79 4.29-1.27 6.53-1.4h0.04l0.64-0.02h0.01c0.7-0.02 1.39 0.09 2.05 0.31 0.56 0.19 1.06 0.5 1.49 0.91 0.47 0.46 0.81 1.05 0.95 1.7 0.05 0.24 0.08 0.48 0.08 0.72-0.01 0.37-0.06 0.73-0.17 1.09-0.14 0.45-0.33 0.88-0.56 1.28-0.19 0.32-0.42 0.62-0.68 0.89-0.06 0.07-0.12 0.15-0.18 0.22l-0.01 0.14c0.01 0.16 0.05 0.32 0.12 0.47 0.12 0.24 0.3 0.46 0.53 0.63 0.27 0.2 0.58 0.35 0.9 0.44 0.38 0.12 0.78 0.18 1.17 0.2l0.45 0.02c0.36 0 0.72-0.04 1.07-0.12 0.42-0.09 0.81-0.27 1.15-0.53 0.28-0.22 0.5-0.51 0.62-0.84 0.04-0.13 0.07-0.28 0.07-0.42 0-0.13-0.03-0.26-0.07-0.39-0.07-0.15-0.16-0.29-0.27-0.42-0.11-0.12-0.21-0.25-0.31-0.38-0.25-0.32-0.46-0.66-0.63-1.01-0.22-0.45-0.33-0.94-0.34-1.44v-0.04-0.04-0.03c0.03-0.78 0.33-1.52 0.86-2.1 0.46-0.49 1.03-0.86 1.68-1.07 0.56-0.18 1.15-0.27 1.74-0.26 0.46 0.01 0.92 0.04 1.37 0.1 3.13 0.38 6.21 1.1 9.19 2.14-0.01 3.28-0.26 6.56-0.73 9.81l-0.02 0.1v0.03c-0.08 0.47-0.12 0.93-0.14 1.4 0 0.2 0.02 0.39 0.06 0.59s0.13 0.39 0.26 0.56c0.06 0.08 0.15 0.13 0.24 0.16 0.03 0 0.05 0.01 0.08 0.01 0.05-0.01 0.11-0.01 0.17-0.02 0.18-0.04 0.37-0.09 0.55-0.17h0.01l0.27-0.11c0.55-0.25 1.13-0.41 1.72-0.5 0.05-0.01 0.1-0.01 0.14-0.01l0.25-0.02h0.08c0.55 0 1.1 0.12 1.61 0.33 0.6 0.25 1.14 0.63 1.59 1.11 0.8 0.89 1.3 2.02 1.42 3.21 0.04 0.26 0.05 0.52 0.05 0.79 0 0.61-0.08 1.22-0.23 1.82-0.15 0.64-0.43 1.25-0.81 1.79-0.47 0.64-1.09 1.15-1.8 1.49-0.58 0.27-1.21 0.41-1.85 0.42-0.03 0-0.07-0.01-0.1-0.01l-0.36-0.02c-0.05 0-0.11-0.01-0.16-0.02-0.56-0.1-1.11-0.27-1.63-0.51l-0.31-0.13h-0.01c-0.17-0.07-0.35-0.13-0.54-0.17-0.05-0.01-0.1-0.01-0.15-0.01-0.03 0-0.06 0-0.09 0.01-0.05 0.01-0.1 0.04-0.15 0.08-0.08 0.07-0.15 0.16-0.2 0.26-0.17 0.34-0.25 0.71-0.25 1.09v0.02 0.2c0.02 0.78 0.1 1.56 0.23 2.32 0 0.02 0.01 0.03 0.01 0.05l0.12 0.84 0.91 6.87c0.07 0.51-0.13 1.03-0.54 1.36-1.61 1.31-3.54 2.19-5.59 2.54-0.77 0.13-1.55 0.2-2.33 0.2-1.32 0.01-2.62-0.2-3.87-0.63-0.36-0.12-0.71-0.28-1.05-0.48-0.44-0.27-0.82-0.63-1.09-1.07-0.28-0.43-0.43-0.92-0.45-1.43-0.01-0.06 0-0.12 0-0.18l0.02-0.26c0-0.05 0.01-0.1 0.02-0.14 0.09-0.56 0.28-1.09 0.55-1.58l0.26-0.47 0.3-0.57c0.1-0.17 0.16-0.36 0.19-0.56l0.01-0.1c-0.01-0.17-0.06-0.33-0.14-0.48-0.14-0.23-0.33-0.42-0.56-0.56-0.28-0.17-0.59-0.29-0.91-0.36-0.39-0.08-0.79-0.12-1.19-0.12h-0.08-0.01c-0.45 0-0.89 0.05-1.33 0.16-0.37 0.08-0.72 0.23-1.03 0.44-0.25 0.17-0.46 0.41-0.6 0.68-0.08 0.16-0.12 0.34-0.12 0.52 0 0.05 0 0.11 0.01 0.16 0.05 0.19 0.11 0.38 0.2 0.55 0.12 0.27 0.26 0.53 0.4 0.78 0.01 0.01 0.01 0.01 0.01 0.02l0.01 0.01c0.21 0.36 0.38 0.74 0.51 1.14 0 0.01 0.01 0.02 0.01 0.03 0.1 0.29 0.16 0.6 0.17 0.92 0.01 0.16-0.01 0.33-0.04 0.5-0.12 0.76-0.51 1.45-1.08 1.96-0.5 0.45-1.11 0.76-1.76 0.92-0.43 0.1-0.87 0.15-1.32 0.15-0.61-0.01-1.22-0.08-1.83-0.21-2.98-0.55-5.9-1.38-8.72-2.48 0.72-3.17 1.09-6.42 1.08-9.68 0-0.68-0.02-1.37-0.05-2.05 0.01-0.42-0.06-0.84-0.2-1.24-0.03-0.08-0.09-0.16-0.15-0.22 0-0.01-0.01-0.01-0.01-0.01l-0.07-0.01c-0.02 0-0.04 0-0.06 0.01-0.16 0.04-0.31 0.1-0.46 0.18h-0.01l-0.21 0.11c-0.53 0.3-1.11 0.51-1.71 0.62-0.06 0.01-0.12 0.02-0.18 0.02l-0.25 0.01c-0.03 0.01-0.07 0.01-0.1 0.01-0.53 0-1.05-0.12-1.52-0.34-0.58-0.26-1.08-0.64-1.48-1.12-0.68-0.85-1.11-1.87-1.22-2.95-0.04-0.34-0.06-0.67-0.06-1.01 0-0.58 0.05-1.16 0.17-1.73 0.11-0.61 0.33-1.21 0.66-1.74 0.42-0.67 1.01-1.23 1.7-1.6 0.58-0.31 1.23-0.47 1.89-0.48 0.04 0 0.08 0.01 0.11 0.01l0.33 0.02c0.06 0.01 0.12 0.01 0.18 0.02 0.57 0.12 1.13 0.31 1.65 0.58l0.19 0.09c0.02 0 0.04 0.01 0.06 0.02 0.2 0.11 0.42 0.17 0.64 0.19h0.05c0.05-0.02 0.09-0.04 0.13-0.07 0.1-0.08 0.18-0.17 0.24-0.27 0.18-0.38 0.27-0.79 0.27-1.2v-0.04-0.15c-0.02-0.82-0.1-1.64-0.23-2.45 0-0.02 0-0.03-0.01-0.05l-0.14-1.1-0.72-5.78m14.07 31.64 0.01 0.03-0.02-0.08c0 0.02 0.01 0.03 0.01 0.05zm20.99-18.42 0.12-0.01c0.14 0.01 0.29 0.04 0.42 0.1 0.21 0.08 0.39 0.21 0.54 0.37 0.38 0.42 0.61 0.95 0.66 1.51 0.02 0.15 0.03 0.3 0.03 0.46 0 0.37-0.05 0.74-0.14 1.1-0.06 0.27-0.18 0.53-0.34 0.76-0.17 0.22-0.39 0.41-0.64 0.53-0.17 0.08-0.35 0.12-0.53 0.13l-0.21-0.02c-0.29-0.06-0.57-0.15-0.84-0.28-0.03-0.01-0.05-0.02-0.07-0.03l-0.35-0.14c-0.36-0.15-0.73-0.26-1.12-0.33-0.23-0.05-0.47-0.07-0.7-0.07-0.26 0-0.53 0.03-0.78 0.09-0.54 0.13-1.04 0.38-1.45 0.75-0.37 0.33-0.68 0.73-0.91 1.17-0.37 0.76-0.56 1.59-0.56 2.43v0.21 0.06c0.02 0.93 0.11 1.85 0.27 2.76l0.12 0.81 0.79 5.98c-1.07 0.72-2.28 1.2-3.55 1.42-0.61 0.11-1.22 0.16-1.84 0.16-0.98 0.01-1.95-0.15-2.88-0.47-0.17-0.06-0.33-0.13-0.48-0.22-0.03-0.02-0.05-0.04-0.07-0.06 0.04-0.2 0.11-0.4 0.21-0.58l0.26-0.47 0.32-0.58v-0.01c0.27-0.51 0.45-1.06 0.52-1.64 0.01-0.04 0.01-0.08 0.02-0.12l0.01-0.22v-0.08c-0.01-0.71-0.2-1.41-0.56-2.02-0.38-0.66-0.93-1.21-1.58-1.61-0.58-0.34-1.21-0.59-1.87-0.73-0.59-0.12-1.2-0.18-1.81-0.18h-0.07c-0.67 0-1.35 0.08-2.01 0.23-0.72 0.17-1.41 0.47-2.03 0.89-0.68 0.46-1.23 1.08-1.6 1.82-0.29 0.58-0.44 1.21-0.44 1.85 0 0.26 0.02 0.51 0.07 0.76 0.09 0.44 0.24 0.86 0.44 1.27 0.15 0.32 0.32 0.64 0.49 0.95l0.02 0.02c0 0.01 0.01 0.02 0.01 0.03 0.11 0.18 0.19 0.37 0.26 0.57v0.01c0.01 0.02 0.02 0.04 0.02 0.06-0.02 0.07-0.05 0.12-0.1 0.17-0.14 0.12-0.3 0.2-0.47 0.24-0.19 0.05-0.38 0.07-0.57 0.07-0.44-0.01-0.87-0.06-1.3-0.15-1.99-0.37-3.94-0.86-5.86-1.49 0.43-2.55 0.64-5.14 0.64-7.73 0-0.7-0.02-1.41-0.05-2.11 0-0.77-0.13-1.53-0.39-2.25-0.19-0.47-0.47-0.9-0.82-1.26-0.41-0.41-0.92-0.7-1.49-0.84l-0.18-0.03-0.34-0.04c-0.06 0-0.12-0.01-0.18 0-0.28 0-0.56 0.03-0.84 0.1-0.37 0.1-0.72 0.24-1.06 0.41l-0.24 0.12c-0.03 0.01-0.06 0.03-0.08 0.04-0.23 0.13-0.47 0.23-0.73 0.28l-0.08 0.01c-0.09-0.01-0.18-0.03-0.26-0.07-0.16-0.07-0.29-0.17-0.4-0.3-0.32-0.4-0.51-0.88-0.56-1.39-0.03-0.22-0.04-0.44-0.04-0.66 0-0.39 0.04-0.78 0.12-1.17 0.04-0.26 0.13-0.51 0.27-0.73s0.33-0.4 0.56-0.52c0.13-0.08 0.29-0.12 0.44-0.12l0.16 0.01c0.27 0.06 0.53 0.15 0.78 0.28 0.02 0.01 0.04 0.03 0.07 0.04l0.2 0.09c0.59 0.3 1.24 0.47 1.9 0.5h0.17l0.23-0.01c0.03-0.01 0.07-0.01 0.11-0.02 0.59-0.08 1.15-0.32 1.62-0.69 0.43-0.34 0.78-0.76 1.03-1.24 0.41-0.81 0.62-1.71 0.61-2.61v-0.15-0.05c-0.03-0.96-0.11-1.92-0.26-2.87l-0.14-1.07-0.59-4.69c2-0.85 4.13-1.35 6.3-1.48l0.63-0.02c0.33-0.01 0.67 0.04 0.99 0.14 0.14 0.06 0.26 0.13 0.37 0.24 0.06 0.05 0.09 0.12 0.11 0.19 0.01 0.02 0.01 0.03 0.01 0.05 0 0.08-0.02 0.16-0.04 0.23-0.07 0.23-0.16 0.44-0.28 0.64-0.07 0.13-0.16 0.24-0.26 0.35-0.19 0.2-0.37 0.42-0.52 0.65-0.23 0.34-0.39 0.73-0.45 1.14-0.01 0.05-0.01 0.09-0.02 0.13l-0.02 0.35c-0.01 0.04-0.01 0.08-0.01 0.12 0.01 0.63 0.15 1.25 0.42 1.81 0.34 0.68 0.83 1.28 1.44 1.73 0.56 0.41 1.19 0.72 1.85 0.91 0.61 0.18 1.24 0.29 1.88 0.32h0.03l0.48 0.02h0.03c0.6 0 1.19-0.06 1.77-0.19 0.84-0.19 1.63-0.55 2.31-1.07 0.75-0.57 1.31-1.35 1.63-2.23 0.16-0.45 0.24-0.93 0.24-1.41 0-0.53-0.1-1.06-0.3-1.55-0.19-0.44-0.45-0.85-0.76-1.21-0.08-0.09-0.15-0.19-0.22-0.28-0.12-0.15-0.22-0.31-0.3-0.47-0.02-0.06-0.04-0.11-0.04-0.17 0.01-0.05 0.03-0.1 0.07-0.14 0.1-0.12 0.24-0.21 0.39-0.26 0.25-0.08 0.51-0.12 0.78-0.11 0.34 0 0.69 0.03 1.03 0.08 2.21 0.26 4.39 0.71 6.53 1.33-0.09 2.41-0.31 4.82-0.66 7.21l-0.01 0.08c-0.1 0.61-0.16 1.22-0.18 1.83 0 0.41 0.04 0.83 0.12 1.23 0.13 0.66 0.42 1.29 0.84 1.82 0.48 0.62 1.17 1.05 1.93 1.23 0.25 0.06 0.5 0.09 0.76 0.09 0.24-0.01 0.49-0.03 0.73-0.08 0.38-0.07 0.74-0.18 1.1-0.33l0.3-0.11c0.02-0.01 0.04-0.02 0.07-0.03 0.28-0.13 0.58-0.22 0.88-0.27zm-14.68-13.57v-0.01 0.03-0.02zm-17.65-2.02-1.63 0.75c-0.468 0.257-0.808 0.607-1.05 1.02-0.06 0.19-0.07 0.4-0.05 0.6" fill="url(#a)" fill-rule="evenodd"/>
</svg>
