<svg xmlns="http://www.w3.org/2000/svg" fill="none" viewBox="0 0 64 64"><defs><linearGradient id="b" x1="8" x2="8" y1="16" gradientUnits="userSpaceOnUse"><stop offset="0" stop-color="#5570ff"/><stop offset="1" stop-color="#4dd3ff"/></linearGradient><linearGradient id="d" x1="9" x2="9" y1="11.5" y2="2.5" gradientUnits="userSpaceOnUse"><stop offset="0" stop-color="#addcff"/><stop offset=".503" stop-color="#eaf6ff"/><stop offset="1" stop-color="#eaf6ff"/></linearGradient><clipPath id="a"><path fill="#fff" d="M0 0h16v16H0z"/></clipPath></defs><g clip-path="url(#a)" transform="scale(4)"><path fill="url(#b)" fill-rule="evenodd" d="M3.273.048a.16.16 0 0 1 .098-.047h.001a.16.16 0 0 1 .106.025L5.87 1.583c-.072.033-.133.067.02.014l.934.9A5 5 0 0 0 9 12a5 5 0 0 0 4.405-2.633l.069.071c.073.078.118.126.162.176.114.131.212.276.733.986l1.606 2.02a.16.16 0 0 1-.024.198l-1.262 1.254a.16.16 0 0 1-.204.02l-2.354-1.531a6.3 6.3 0 0 1-1.553.649l-.656 2.666a.16.16 0 0 1-.16.124H7.979a.16.16 0 0 1-.16-.129l-.557-2.66a6.3 6.3 0 0 1-1.51-.624l-2.388 1.44a.164.164 0 0 1-.2-.024L1.9 12.75a.16.16 0 0 1-.021-.204l1.524-2.308a6.2 6.2 0 0 1-.646-1.625L.123 7.973A.16.16 0 0 1 0 7.816V6.044c0-.077.054-.144.13-.16l2.713-.56c.15-.498.36-.97.622-1.407L1.987 1.5A.16.16 0 0 1 2.01 1.3zm2.596 1.535.018.012zm.018.012.002.001zm.002.001c.156-.084.06-.05-.02-.013z" clip-rule="evenodd"/><path fill="url(#d)" d="M8.934 2.5a4.5 4.5 0 0 1 3.248 1.318A4.5 4.5 0 1 1 8.934 2.5zm.123.563a3.94 3.94 0 0 0-2.633.964l.79.79a6.7 6.7 0 0 1 1.501-1.053 4.7 4.7 0 0 1 1.55-.49 4 4 0 0 0-1.209-.212zm1.703.734c-.462-.026-.995.091-1.546.34a6.1 6.1 0 0 0-1.6 1.079L9 6.603l2.56-2.56a1.65 1.65 0 0 0-.8-.245zm-4.737.624a3.94 3.94 0 0 0-.751 3.831c.06-.494.228-1.02.495-1.543s.625-1.03 1.052-1.492l-.796-.795zm5.936.018L9.4 7l1.387 1.388c.615-.668 1.068-1.427 1.282-2.147s.176-1.357-.109-1.802zM7.214 5.612C6.6 6.28 6.146 7.04 5.932 7.76s-.175 1.357.109 1.802l2.56-2.56zm5.514.135a4.7 4.7 0 0 1-.495 1.543 6.7 6.7 0 0 1-1.052 1.492l.795.796a3.94 3.94 0 0 0 .752-3.831zM9 7.397l-2.56 2.56c.446.284 1.082.322 1.801.108.72-.214 1.478-.667 2.146-1.281zm1.786 1.785a6.7 6.7 0 0 1-1.5 1.053 4.7 4.7 0 0 1-1.55.49 3.94 3.94 0 0 0 3.841-.753z"/></g></svg>