<svg xmlns="http://www.w3.org/2000/svg" style="isolation:isolate" viewBox="0 0 64 64"><linearGradient id="a" x2="1" y1=".5" y2=".5" gradientTransform="matrix(24 0 0 17.95 10 10)" gradientUnits="userSpaceOnUse" transform="scale(1.333)"><stop offset="0" stop-color="#f7f206"/><stop offset=".983" stop-color="#ffbb24"/></linearGradient><path fill="url(#a)" d="m15.05 25.97-3.47 1.98A11.93 11.93 0 0 1 10 22c0-3.18 1.27-6.24 3.51-8.49C15.76 11.27 18.82 10 22 10s6.24 1.27 8.49 3.51a12.05 12.05 0 0 1 3.42 9.99l-3.97-.49c.04-.34.06-.67.06-1.01 0-2.12-.84-4.16-2.34-5.66S24.12 14 22 14s-4.16.84-5.66 2.34S14 19.88 14 22c0 1.39.36 2.76 1.05 3.97" transform="scale(1.333)"/><linearGradient id="b" x1=".067" x2=".783" y1=".832" y2=".302" gradientTransform="matrix(46.13 0 0 30.72 1.17 9.106)" gradientUnits="userSpaceOnUse" transform="scale(1.333)"><stop offset=".022" stop-color="#5b64ed"/><stop offset=".517" stop-color="#c674fb"/><stop offset=".983" stop-color="#f9a24e"/></linearGradient><path fill="url(#b)" d="M5.41 38.41 4 39.83 1.17 37l1.42-1.41 13.96-13.97 2.66 5.33 6.32-9.94 5.81 4.84L38 9.12l7.33-.014 1.97.014-.66 4.18-1.97-.33-4.54.25-7.47 14.93-6.19-5.16-7.68 12.06-3.34-6.67z" transform="scale(1.333)"/><linearGradient id="e" x1=".133" x2="1" y1=".143" y2="1" gradientTransform="matrix(48 0 0 38.95 0 9.047)" gradientUnits="userSpaceOnUse" transform="scale(1.333)"><stop offset="0" stop-color="#f3895f"/><stop offset=".665" stop-color="#9622aa"/><stop offset="1" stop-color="#4a1eef"/></linearGradient><path fill="url(#e)" d="m48 9.047.002.073v29.758c0 5.033-4.087 9.12-9.12 9.12H9.122c-5.033 0-9.12-4.087-9.12-9.12v-.851l5-4.854v5.705c0 1.09.43 2.14 1.21 2.91.77.78 1.82 1.21 2.91 1.21h29.76c1.09 0 2.14-.43 2.91-1.21.78-.77 1.21-1.82 1.21-2.91V9.648l-.001-.542.001.014z" transform="scale(1.333)"/><linearGradient id="f" x1=".934" x2="-.118" y1=".762" y2=".076" gradientTransform="scale(48 38)" gradientUnits="userSpaceOnUse" transform="scale(1.333)"><stop offset=".19" stop-color="#ffab00"/><stop offset=".83" stop-color="#ff004c"/></linearGradient><path fill="url(#f)" d="M48 9.047C47.962 4.047 43.891 0 38.882 0H9.122C4.089 0 .002 4.087.002 9.12v28.884l5-4.83V9.124c0-1.09.43-2.14 1.21-2.91.77-.78 1.82-1.21 2.91-1.21h29.76c1.09 0 2.14.43 2.91 1.21a4.08 4.08 0 0 1 1.209 2.896L48 9.051z" transform="scale(1.333)"/></svg>