<svg style="isolation:isolate" version="1.1" viewBox="0 0 64 64" xmlns="http://www.w3.org/2000/svg">
 <linearGradient id="a" transform="translate(.0106 .00496) scale(1) translate(-.673 -.71) scale(1.36)" x1=".994" x2="0" y1=".48" y2=".452" gradientTransform="matrix(47.06 0 0 46.98 .495 .559)" gradientUnits="userSpaceOnUse">
  <stop stop-color="#11998e" offset="0"/>
  <stop stop-color="#38ef7d" offset=".991"/>
 </linearGradient>
 <path transform="translate(.0106 .00496) scale(1) translate(-.673 -.71) scale(1.36)" d="m12.23 11.66.857.644c-2.72 1.254 4.265 6.978 4.265 6.978s1.359-1.223 3.351-1.352c1.975-2.025 10.2-.484 9.889 1.177-2.764.044-3.639-.31-3.639-.31s.136.158.192.698c-.202.166-3.059-.474-3.657-.429-1.7.13-2.847.173-4.067.308.839.277 7.525 1.468 9.663 3.534-.57.22-.82.13-1.01.2-.167.062-.337.403-.704.404-.264.002-.174-.233-.717-.49-3.383.135-4.48-1.929-4.814-2.183-1.494-.356-4.01-1.162-4.01-1.162s2.131 1.7 3.299 2.643c.097.079 1.698.377 3.734 1.37 1.094-.896 4.044.624 3.496 2.016-.489 1.239-3.764-.038-3.644-1.725-.748-.233-2.129-.9-3.013-1.219.847.661 4.176 3.434 4.845 4.219 2.931-.36 7.355.371 10.1 2.13-.626.165-3.604.731-4.2.572-1.109-.419-2.761-1.777-2.937-1.93a75 75 0 0 0-2.614-.375c.557.565 2.395 2.69 2.972 3.583.24-.05 1.459.243 1.797.472 1.252-1.277 3.282.965 4.531 2.047-.328.666-5.478-.359-4.79-1.85-.368-.049-1.104-.454-1.376-.475.278.363.883.857 1.681 1.694.768-.218 3.661 2.912 3.738 3.598-2.165-.528-3.234-.987-3.569-1.378-.661-.773-.411-1.883-.348-2.084-.851-.761-1.01-.987-1.288-1.138-.008.008.001.234.014.344 1.398 1.031.722 3.885-.082 3.986-.35.044-1.156-4.026-.149-4.178.023-.08.037-.321.038-.33-.532-.579-3.479-3.713-3.671-3.845.096.248.252.654.396 1.156 1.74 1.138 2.028 2.958 1.897 5.096-.417-.731-4.507-4.06-2.718-5.535.013-.228-.055-.744.095-1.035-.567-.567-2.333-2.31-2.491-2.308.197.404.319.635.417 1.072 1.346.672.955 2.407.342 2.444-.646.039-2.077-1.953-.731-2.375-.109-.502-.306-1.183-.386-1.479a269 269 0 0 1-2.957-2.347c.547.911 1.082 2.329 1.349 3.142 1.613 1.827 1.167 4.653 1.004 7.569-1.893-1.405-3.067-6.2-1.864-7.393-.402-1.387-1.009-3.733-1.009-3.733-2.602-2.019-4.041-3.533-4.041-3.533s1.733 2.248 1.931 3.453c1.518.294 2.786 2.939 1.579 3.391-1.764.659-3.658-2.14-2.153-3.183 0 0-1.333-2.455-2.365-4.608-4.069-4.467-3.678-5.809-2.458-5.958zm10.18 31.61a2.139 2.139 0 1 1-.359 4.264 23.53 23.53 0 0 1-15.43-7.594A23.57 23.57 0 0 1 .488 23.87 23.59 23.59 0 0 1 7.526 7.29c4.456-4.367 10.47-6.793 16.7-6.737s12.2 2.592 16.58 7.038a23.58 23.58 0 0 1 6.737 16.7 2.14 2.14 0 0 1-4.278-.039 19.27 19.27 0 0 0-5.513-13.66c-3.582-3.637-8.462-5.713-13.56-5.759s-10.02 1.941-13.66 5.513a19.271 19.271 0 0 0-.744 26.71 19.27 19.27 0 0 0 12.63 6.211zm18.57-10.08a2.14 2.14 0 0 1 2.896-.873 2.14 2.14 0 0 1 .872 2.896 23.6 23.6 0 0 1-10.67 10.14 2.136 2.136 0 0 1-2.851-1.01 2.15 2.15 0 0 1 1.015-2.857 19.3 19.3 0 0 0 8.738-8.295z" fill="url(#a)" fill-rule="evenodd"/>
</svg>
