<svg xmlns="http://www.w3.org/2000/svg" style="isolation:isolate" viewBox="0 0 64 64"><linearGradient id="a" x1="-.523" x2=".864" y1="-.248" y2=".772" gradientTransform="matrix(47 0 0 42.61 .5 2.693)" gradientUnits="userSpaceOnUse" transform="translate(-.68 -.68)scale(1.362)"><stop offset=".013" stop-color="#df57ff"/><stop offset=".521" stop-color="#241efc"/><stop offset=".979" stop-color="#0eaffe"/></linearGradient><path fill="url(#a)" fill-rule="evenodd" d="m20.18 11.78-.621 1.891-1.991.007 1.607 1.176-.609 1.894 1.614-1.165 1.615 1.165-.609-1.894 1.606-1.176-1.991-.007zm12.36.318-1.864 5.672-5.971.02 4.818 3.527-1.825 5.684 4.842-3.493 4.842 3.493-1.825-5.684 4.818-3.527-5.971-.02zm-4.88-5.226a2.09 2.09 0 0 0 0-4.178H4.68A4.18 4.18 0 0 0 .502 6.872v25.07A4.18 4.18 0 0 0 4.68 36.12h7.06l4.183 8.357c.516 1.031 1.496 1.119 2.188.197l6.413-8.554h3.134a2.09 2.09 0 0 0 0-4.178h-5.223l-4.867 6.486-3.238-6.486H6.769a2.09 2.09 0 0 1-2.089-2.088V8.964a2.09 2.09 0 0 1 2.089-2.089h20.89zm8.355 25.07a2.09 2.09 0 0 0 0 4.178h7.311a4.18 4.18 0 0 0 4.178-4.178V6.872a4.18 4.18 0 0 0-4.178-4.178h-7.311a2.09 2.09 0 0 0 0 4.178h5.222a2.09 2.09 0 0 1 2.089 2.089v20.89a2.09 2.09 0 0 1-2.089 2.088h-5.222z" transform="translate(-.68 -.68)scale(1.362)"/></svg>