<svg version="1.1" viewBox="0 0 64 64" xmlns="http://www.w3.org/2000/svg">
 <defs>
  <linearGradient id="d" x1="37.84" x2="22.67" y1="44.21" y2="30.43" gradientTransform="matrix(1.07 0 0 1.178 -3.93 -3.931)" gradientUnits="userSpaceOnUse">
   <stop stop-color="#9033dd" offset="0"/>
   <stop stop-color="#ff69ff" offset="1"/>
  </linearGradient>
  <linearGradient id="b" x1="26.66" x2="23.34" y1="60.99" y2="53.41" gradientTransform="matrix(2.231 0 0 .5651 -3.93 -3.931)" gradientUnits="userSpaceOnUse">
   <stop stop-color="#9033dd" offset="0"/>
   <stop stop-color="#ff69ff" offset="1"/>
  </linearGradient>
  <linearGradient id="a" x1="25.79" x2="22.63" y1="72.56" y2="65.31" gradientTransform="matrix(2.237 0 0 .5635 -3.93 -3.931)" gradientUnits="userSpaceOnUse">
   <stop stop-color="#9033dd" offset="0"/>
   <stop stop-color="#ff69ff" offset="1"/>
  </linearGradient>
  <linearGradient id="f" x1="53.07" x2="3.07" y1="61.48" y2="11.48" gradientTransform="matrix(1.28 0 0 .9849 -3.93 -3.931)" gradientUnits="userSpaceOnUse">
   <stop stop-color="#9033dd" offset="0"/>
   <stop stop-color="#ff69ff" offset="1"/>
  </linearGradient>
 </defs>
 <g transform="translate(-0) scale(1) translate(-0) scale(1) translate(9.9e-5 5e-5) scale(1)" stroke-width=".063">
  <path transform="translate(.003 .007)scale(.9999)" d="m53.46 32.86-7.188.018-7.191.015-.29.17c-1.406.828-1.071 3.64.479 4.02.103.026 3.332.042 7.173.036l6.982-.009.33-.151c1.4-.633 1.413-3.365.018-3.965z" fill="url(#a)" style="-inkscape-stroke:none;font-variation-settings:normal"/>
  <path transform="translate(.003 .007)scale(.9999)" d="m39.21 26.25-.318.15c-1.375.64-1.278 3.533.136 4.036v-.002c.309.11 14.18.137 14.57.028 1.488-.413 1.663-3.297.246-4.037l-.336-.175H46.36z" fill="url(#b)" style="-inkscape-stroke:none;font-variation-settings:normal"/>
  <path transform="translate(.003 .007)scale(.9999)" d="M12.14 48.06c-1.701-.423-1.854-3.066-.214-3.693.312-.12.541-.14 1.926-.183 2.64-.08 3.494-.534 5.086-2.698.582-.79.591-.641-.074-1.22-4.59-4-5.997-6.816-4.277-8.568l.555-.565v-.95c0-5.134 2.732-8.527 8.202-10.19 1.503-.455 1.565-.401 1.685 1.448l.074 1.134.792.176c4.448.987 6.297 3.228 6.297 7.634v.667l.584.603c1.665 1.721.721 3.827-3.661 8.17l-1.032 1.021.36.526c1.426 2.078 2.623 2.72 5.226 2.806 2.318.076 2.895.472 2.894 1.984 0 1.592-.72 2.014-3.278 1.926-2.606-.09-3.699-.644-6.116-3.098-1.802-1.83-1.699-1.774-3.356-1.806-1.76-.034-1.575-.123-3.244 1.57-1.866 1.893-2.804 2.556-4.298 3.035-.922.296-3.377.454-4.132.266zm12.65-8.831c1.314-.634 5.579-5.171 5.579-5.935 0-.202-.182-.37-.773-.716-.503-.295-.485-.223-.487-1.912 0-3.338-.778-4.301-4.172-5.2-.506-.135-.545-.195-.545-.852 0-.495.036-.475-.598-.341-3.697.78-4.908 2.283-4.982 6.178l-.035 1.838-.736.286c-1.14.444-1.233.6-.805 1.35.484.847 4.04 4.463 5.067 5.15.81.543 1.583.59 2.487.154z" fill="url(#d)" style="-inkscape-stroke:none;font-variation-settings:normal"/>
  <path transform="translate(.003 .007)scale(.9999)" d="M24.58 7.444c-1.996.245-2.739.74-5.925 3.947-3.28 3.302-2.02 2.906-9.272 2.928-6.283.019-6.042.006-6.906.37C1.314 15.18.431 16.252.1 17.573c-.155.617-.127 36.46.029 36.96.25.809.696 1.374 1.33 1.682 1.207.586 2.624-.277 2.863-1.741.033-.207.057-7.346.057-17.2 0-11.11.022-16.92.063-17.05a2.2 2.2 0 0 1 1.075-1.268c.46-.235.997-.257 5.947-.25 5.016.006 5.074.002 5.947-.288 1.135-.376 1.516-.688 4.182-3.436 3.47-3.576 2.217-3.198 10.6-3.197 8.477.002 7.093-.412 10.7 3.202 4.05 4.06 2.966 3.727 12.15 3.726 7.465 0 6.967.03 7.623-.471 1.05-.8 1.09-2.466.08-3.27-.852-.678-.795-.672-7.74-.671-4.024 0-5.799-.021-5.976-.07-.738-.206-1.09-.503-3.52-2.954-2.82-2.847-3.494-3.326-5.256-3.746-.596-.143-14.58-.219-15.67-.086zm37.28 17.63c-.773-.008-1.553.407-2 1.246l-.147.276-.03 11.76c-.03 11.29-.037 11.78-.15 12.08-.302.81-.95 1.43-1.829 1.752-.14.052-6.417.08-23.34.103l-23.15.031-.3.14c-1.813.846-1.59 3.471.349 4.08.218.067 4.499.08 24.14.07l23.88-.013.504-.145c1.951-.563 3.414-2.017 4.042-4.018l.173-.553v-25.17l-.177-.362c-.416-.847-1.181-1.277-1.954-1.285z" fill="url(#f)" style="-inkscape-stroke:none;font-variation-settings:normal"/>
 </g>
</svg>
