<svg xmlns="http://www.w3.org/2000/svg" fill="none" viewBox="0 0 64 64"><defs><linearGradient id="a" x1="6.269" x2="6.269" y1="15" y2="4.859" gradientUnits="userSpaceOnUse"><stop offset="0" stop-color="#02aa93"/><stop offset="1" stop-color="#67ff80"/></linearGradient><linearGradient id="c" x1="9.446" x2="9.446" y1="11.16" y2="1" gradientUnits="userSpaceOnUse"><stop offset="0" stop-color="#02aa93"/><stop offset="1" stop-color="#67ff80"/></linearGradient></defs><path fill="url(#a)" d="M7.36 14.98c-2.092-.202-4.022-1.351-5.17-3.078-1.077-1.62-1.439-3.54-1.02-5.415.156-.698.549-1.709.63-1.619.017.02.073.202.122.405.295 1.198 1.061 2.075 2.35 2.686.823.39 1.61.618 3.216.932 1.49.29 1.876.442 2.477.743.658.33 1.068.712 1.315 1.222.224.463.277.766.255 1.456-.017.528-.032.633-.138.924-.383.989-1.19 1.393-1.924 1.576a6.6 6.6 0 0 1-2.111.168z" opacity=".4" transform="translate(-4.571 -4.571)scale(4.571)"/><path fill="url(#c)" d="M11.54 7.59c1.474.733 2.335 1.866 2.597 3.416.014.085.043.154.064.154.111 0 .474-.946.63-1.646a6.96 6.96 0 0 0-1.014-5.407c-1.74-2.61-5.321-3.742-8.292-2.753-.209.07-.47.175-.58.234-.412.222-.842.84-.99 1.422-.073.29-.083 1.066-.017 1.385.134.645.537 1.134 1.194 1.448.551.264 1.324.437 2.821.742 1.992.405 2.732.58 3.586 1.005z" transform="translate(-4.571 -4.571)scale(4.571)"/></svg>