<svg xmlns="http://www.w3.org/2000/svg" viewBox="0 0 64 64"><defs><linearGradient id="a" x1="1" x2="0" y1="1"><stop offset="0" stop-color="#9c33c4"/><stop offset=".5" stop-color="#ff0a4c"/><stop offset="1" stop-color="#f79a00"/></linearGradient><linearGradient id="b" x1="1" x2="0" y1="1"><stop offset="0" stop-color="#f10"/><stop offset="1" stop-color="#ff115a"/></linearGradient></defs><path fill="url(#a)" d="M23.49-.002c-7.575 0-13.67 1.537-17.81 5.682C1.535 9.825-.002 15.92-.002 23.49V40.5c0 7.575 1.537 13.67 5.682 17.82 4.145 4.145 10.24 5.682 17.81 5.682H40.5c7.575 0 13.67-1.537 17.82-5.682 4.145-4.145 5.682-10.24 5.682-17.82V23.49c0-7.575-1.537-13.67-5.682-17.81C54.175 1.535 48.08-.002 40.5-.002zm0 7.295H40.5c6.602 0 10.43 1.3 12.67 3.535 2.235 2.235 3.537 6.064 3.537 12.67v17.01c0 6.602-1.302 10.43-3.537 12.67-2.235 2.235-6.064 3.537-12.67 3.537H23.49c-6.602 0-10.43-1.302-12.67-3.537-2.235-2.235-3.535-6.064-3.535-12.67v-17.01c0-6.602 1.3-10.43 3.535-12.67 2.235-2.235 6.064-3.535 12.67-3.535" transform="translate(.002 .002)scale(.9999)"/><path fill="url(#a)" d="M13.64 12.93a3.6 3.6 0 0 0-3.592 3.592v4.336a3.58 3.58 0 0 0 3.592 3.584c.95 0 1.869-.372 2.541-1.045a3.6 3.6 0 0 0 1.045-2.539v-4.336c0-.95-.372-1.867-1.045-2.539a3.6 3.6 0 0 0-2.541-1.053m37.31 0c-.948 0-1.859.383-2.531 1.053a3.58 3.58 0 0 0-1.053 2.531v4.344c0 .947.377 1.86 1.045 2.531h.008v.008a3.6 3.6 0 0 0 2.53 1.045 3.6 3.6 0 0 0 2.54-1.045v-.008a3.58 3.58 0 0 0 1.053-2.531v-4.344a3.596 3.596 0 0 0-3.592-3.584m0 15.19a3.597 3.597 0 0 0-3.584 3.592v.285a3.594 3.594 0 0 0 3.584 3.592 3.595 3.595 0 0 0 3.592-3.592v-.285a3.597 3.597 0 0 0-3.592-3.592m-37.31.072c-.951 0-1.865.378-2.537 1.051a3.58 3.58 0 0 0-1.055 2.53v.294c0 .951.382 1.857 1.055 2.53s1.586 1.054 2.537 1.054 1.869-.382 2.541-1.055a3.57 3.57 0 0 0 1.045-2.529v-.295c0-.95-.373-1.857-1.045-2.529a3.6 3.6 0 0 0-2.541-1.05m0 10.77a3.6 3.6 0 0 0-3.592 3.592v4.336a3.596 3.596 0 0 0 3.592 3.592 3.6 3.6 0 0 0 2.541-1.053 3.6 3.6 0 0 0 1.045-2.539v-4.336a3.6 3.6 0 0 0-1.045-2.539 3.6 3.6 0 0 0-2.541-1.053m37.31.008c-.951 0-1.859.373-2.531 1.045a3.6 3.6 0 0 0-1.053 2.54v4.343a3.593 3.593 0 0 0 3.584 3.584 3.595 3.595 0 0 0 3.592-3.584v-4.344a3.57 3.57 0 0 0-1.053-2.53v-.009a3.6 3.6 0 0 0-2.539-1.045" transform="translate(.002 .002)scale(.9999)"/><path fill="url(#b)" d="M32 17.75c-1.279.019-2.192.815-2.623 2.131l-2.008 7.365h-6.85c-.813.027-1.544.421-2.06 1.072-1.117 1.327-.88 3.414.537 4.404l5.35 4.053-2.076 5.73-.006.021a2.9 2.9 0 0 0 .78 2.953q.006.008.017.016c.96.883 2.307.997 3.391.266l.06-.043 5.49-4.107 5.49 4.107.061.043c1.083.73 2.432.617 3.391-.266q.009-.006.016-.014l.002-.002a2.9 2.9 0 0 0 .78-2.953l-.007-.021-2.076-5.73 5.35-4.053c1.418-.99 1.654-3.076.537-4.404-.516-.65-1.248-1.045-2.06-1.072h-6.851l-2.008-7.365c-.432-1.316-1.345-2.112-2.623-2.131z" transform="translate(.002 .002)scale(.9999)"/></svg>