<svg xmlns="http://www.w3.org/2000/svg" style="isolation:isolate" viewBox="0 0 64 64"><linearGradient id="a" x1=".501" x2=".501" y1=".041" y2=".906" gradientTransform="matrix(41.66 44.7 -44.69 41.65 26.06 -19.5)" gradientUnits="userSpaceOnUse" transform="translate(-3.729 -2.777)scale(1.46947)"><stop offset="0" stop-color="#16b5e4"/><stop offset=".983" stop-color="#f520fa"/></linearGradient><path fill="url(#a)" fill-rule="evenodd" d="M29.84 33.74a47 47 0 0 0 4.253-2.579c.544-.37 1.074-.755 1.597-1.147.436-.338.866-.684 1.282-1.059a20 20 0 0 0 1.56-1.509 12 12 0 0 0 1.058-1.314 13.6 13.6 0 0 0 1.669-3.196 29 29 0 0 0 1.329-5.189q.333-2.173.444-4.364.132-2.916.021-5.829a2.12 2.12 0 0 0-.597-1.344 2.1 2.1 0 0 0-1.215-.673 51 51 0 0 0-6.116-.519 32 32 0 0 0-4.691.217 25 25 0 0 0-4.529 1.008A16.5 16.5 0 0 0 22.504 7.8a17 17 0 0 0-3.267 2.567 35 35 0 0 0-3.899 4.646 46 46 0 0 0-1.236 1.843l.167.178 15.57 16.71zm-2.787 1.41a108 108 0 0 1-4.68 2.136l-12.23-13.12a87 87 0 0 1 2.37-4.614l14.54 15.6zm-12.61-23.94a40 40 0 0 0-1.574 2.082 54 54 0 0 0-2.804 4.486 90 90 0 0 0-1.108 2.044l-2.674-2.868 2.732-5.934zM35.253 34a50 50 0 0 1-4.695 2.752q-1.935.994-3.901 1.91l3.244 3.48 5.177-3.165zM17.063 8.29l.048-.047a20.3 20.3 0 0 1 3.835-3.014 20 20 0 0 1 4.034-1.847 28 28 0 0 1 5.084-1.13 34.5 34.5 0 0 1 5.146-.243c2.163.062 4.335.251 6.482.56a5.1 5.1 0 0 1 2.959 1.59 5.1 5.1 0 0 1 1.4 3.247 74 74 0 0 1-.024 6.106 44 44 0 0 1-.477 4.695 30.6 30.6 0 0 1-1.475 5.736 16.1 16.1 0 0 1-3.336 5.529 23 23 0 0 1-1.794 1.741q-.3.262-.606.514l-.292 8.324c-.02.552-.433 1.206-.923 1.46l-7.14 3.705c-.49.254-1.193.132-1.569-.271l-4.105-4.404-.547-.587q-.594.255-1.191.504a1.52 1.52 0 0 1-1.678-.363l-13.64-14.63a1.5 1.5 0 0 1-.268-1.651q.264-.57.534-1.136l-.037-.039-4.104-4.404c-.377-.404-.493-1.138-.26-1.638l3.607-7.748c.233-.5.87-.89 1.422-.871l8.47.298.441.015zm11.39 4.894a4.47 4.47 0 0 1 3.226-1.203 4.45 4.45 0 0 1 3.134 1.427 4.47 4.47 0 0 1 1.203 3.226 4.5 4.5 0 0 1-1.427 3.134 4.5 4.5 0 0 1-3.226 1.202 4.48 4.48 0 0 1-3.134-1.426 4.45 4.45 0 0 1-1.202-3.226 4.47 4.47 0 0 1 1.426-3.134m-2.047-2.197a7.504 7.504 0 0 1 10.6.373c2.822 3.028 2.655 7.778-.373 10.6s-7.778 2.655-10.6-.373-2.655-7.777.373-10.6" transform="translate(-3.729 -2.777)scale(1.46947)"/><linearGradient id="b" x1=".092" x2=".767" y1=".958" y2=".317" gradientTransform="matrix(15 0 0 15 2.501 28.5)" gradientUnits="userSpaceOnUse" transform="translate(-3.729 -2.777)scale(1.46947)"><stop offset="0" stop-color="#ffe53b"/><stop offset=".987" stop-color="#ff005b"/></linearGradient><path fill="url(#b)" fill-rule="evenodd" d="M5.06 35.06a1.5 1.5 0 0 1-2.12-2.12l4-4a1.5 1.5 0 0 1 2.12 2.12zm8 8a1.5 1.5 0 0 1-2.12-2.12l4-4a1.5 1.5 0 0 1 2.12 2.12zm-8 0a1.5 1.5 0 0 1-2.12-2.12l8-8a1.5 1.5 0 0 1 2.12 2.12z" transform="translate(-3.729 -2.777)scale(1.46947)"/></svg>