<svg xmlns="http://www.w3.org/2000/svg" style="isolation:isolate" viewBox="0 0 64 64"><linearGradient id="a" x1="-.014" x2="1.016" y1=".01" y2="1.072" gradientTransform="matrix(46.81 0 0 47 .564 .5)" gradientUnits="userSpaceOnUse" transform="translate(-.638 -.68)scale(1.362)"><stop offset="0" stop-color="#f9d423"/><stop offset=".516" stop-color="#ff4e50"/><stop offset=".991" stop-color="#8a2387"/></linearGradient><path fill="url(#a)" fill-rule="evenodd" d="M21.91 11.82c.734-1.347 1.33-2.447 1.331-2.456s.207.02.461.064l-.547 11.76 8.071.265c1.532.051 2.184 1.186 1.455 2.534l-6.59 12.18-1.329 2.441.014-.137.07-11.67-8.071-.265c-1.532-.05-2.183-1.185-1.454-2.533l6.589-12.18zm11.01-4.873a2.14 2.14 0 0 1-.898-2.888 2.14 2.14 0 0 1 2.888-.898 23.62 23.62 0 0 1 10.24 10.58 2.14 2.14 0 0 1-.984 2.861 2.147 2.147 0 0 1-2.866-.989 19.3 19.3 0 0 0-8.375-8.663zm-9.1-2.452a2 2 0 0 0 1.99-2.01A2 2 0 0 0 23.8.495c-5.76.03-11.31 2.18-15.59 6.03-4.28 3.86-7 9.15-7.63 14.88a2.002 2.002 0 1 0 3.98.44c.52-4.75 2.78-9.15 6.33-12.34 3.55-3.2 8.15-4.98 12.93-5.01m-18.08 26.5A2.003 2.003 0 1 0 2 32.435a23.62 23.62 0 0 0 9.97 11.78 2 2 0 0 0 2.04-3.44 19.52 19.52 0 0 1-8.27-9.78m17.57 12.49a2 2 0 0 0-.06 4l.66.01h.03c5.91 0 11.61-2.23 15.95-6.24s7.02-9.52 7.48-15.41a2.01 2.01 0 0 0-1.84-2.15 2 2 0 0 0-2.15 1.84c-.38 4.88-2.6 9.45-6.2 12.78s-8.32 5.18-13.22 5.18z" transform="translate(-.638 -.68)scale(1.362)"/></svg>