<svg xmlns="http://www.w3.org/2000/svg" style="isolation:isolate" viewBox="0 0 64 64"><g transform="translate(-.675 -.682)scale(1.36132)"><path fill="#22d88f" d="M14.29 13.4a4 4 0 0 0-4 4c.001.338.045.675.131 1.002A4 4 0 0 1 14.29 15.4a4 4 0 0 1 3.869 2.998q.13-.49.131-.998a4 4 0 0 0-4-4"/><linearGradient id="a" x2=".988" y1=".5" y2=".344" gradientTransform="matrix(47 0 0 42.61 .5 2.693)" gradientUnits="userSpaceOnUse"><stop offset="1" stop-color="#22d88f"/><stop offset="1" stop-color="#21d691"/></linearGradient><path fill="url(#a)" fill-rule="evenodd" d="M20.34 6.871a2.09 2.09 0 0 1 0-4.178h22.98a4.18 4.18 0 0 1 4.178 4.178v25.07a4.18 4.18 0 0 1-4.178 4.178h-7.06l-4.183 8.357c-.516 1.031-1.496 1.119-2.188.197l-6.413-8.554h-3.134a2.09 2.09 0 0 1 0-4.178h5.223l4.867 6.486 3.238-6.486h7.561a2.09 2.09 0 0 0 2.089-2.088V8.963a2.09 2.09 0 0 0-2.089-2.089h-20.89zm-8.355 25.07a2.09 2.09 0 0 1 0 4.178H4.674a4.18 4.18 0 0 1-4.178-4.178V6.871a4.18 4.18 0 0 1 4.178-4.178h7.311a2.09 2.09 0 0 1 0 4.178H6.763A2.09 2.09 0 0 0 4.674 8.96v20.89a2.09 2.09 0 0 0 2.089 2.088h5.222zm19.72-16.53a2 2 0 0 1 2-2c.53 0 1.04.21 1.42.58.37.38.58.89.58 1.42a2 2 0 0 1-2 2c-.53 0-1.04-.21-1.41-.59-.38-.37-.59-.88-.59-1.41m-1.998-.001c0-2.208 1.792-4.001 4-4.001s4 1.793 4 4.001-1.792 4.001-4 4.001-4-1.793-4-4.001"/><linearGradient id="b" x2="1" y1=".5" y2=".5" gradientTransform="matrix(12 0 0 8 17.71 19.4)" gradientUnits="userSpaceOnUse"><stop offset="0" stop-color="#f7f206"/><stop offset=".978" stop-color="#ffbb24"/></linearGradient><path fill="url(#b)" d="M23.71 19.4a.86.86 0 0 0-.614.259l-5.104 4.636c-.546.56-.259 2.216.514 2.216l5.204.889 5.204-.889c.773 0 1.06-1.656.514-2.216l-5.104-4.636"/></g></svg>