<svg style="isolation:isolate" version="1.1" viewBox="0 0 64 64" xmlns="http://www.w3.org/2000/svg">
 <linearGradient id="a" transform="translate(-.6809 -.6809) scale(1.362)" x2="1" y1=".5" y2=".5" gradientTransform="matrix(47 0 0 40 .5 4)" gradientUnits="userSpaceOnUse">
  <stop stop-color="#dc508d" offset="0"/>
  <stop stop-color="#f58b7b" offset=".5042"/>
  <stop stop-color="#f9ac50" offset=".9792"/>
 </linearGradient>
 <path transform="translate(-.6809 -.6809) scale(1.362)" d="m18.25 22.4c0.476-0.86 0.747-1.848 0.747-2.9 0-1.011-0.251-1.964-0.693-2.8h11.39c-0.442 0.836-0.693 1.789-0.693 2.8 0 1.052 0.271 2.04 0.747 2.9h-11.49zm-3.253 16.6c0-0.828 0.672-1.5 1.5-1.5s1.5 0.672 1.5 1.5-0.672 1.5-1.5 1.5-1.5-0.672-1.5-1.5zm18 0c0-0.828 0.672-1.5 1.5-1.5s1.5 0.672 1.5 1.5-0.672 1.5-1.5 1.5-1.5-0.672-1.5-1.5zm-13.75-32h-13.75c-1.104 0-2 0.896-2 2v21.5c0 0.828-0.672 1.5-1.5 1.5s-1.5-0.672-1.5-1.5v-22.5c0-2.208 1.792-4 4-4h23.5c1.104 0 2 0.672 2 1.5s-0.896 1.5-2 1.5h-8.75zm23.25 0c1.104 0 2 0.896 2 2v11.5c0 0.828 0.672 1.5 1.5 1.5s1.5-0.672 1.5-1.5v-12.5c0-2.208-1.792-4-4-4h-6.5c-1.104 0-2 0.672-2 1.5s0.896 1.5 2 1.5h5.5zm-31 12.5c0-0.828 0.672-1.5 1.5-1.5s1.5 0.672 1.5 1.5-0.672 1.5-1.5 1.5-1.5-0.672-1.5-1.5zm22 0c0-0.828 0.672-1.5 1.5-1.5s1.5 0.672 1.5 1.5-0.672 1.5-1.5 1.5-1.5-0.672-1.5-1.5zm-1.5 0c0-0.8 0.32-1.56 0.88-2.12s1.32-0.88 2.12-0.88 1.56 0.32 2.12 0.88 0.88 1.32 0.88 2.12-0.32 1.56-0.88 2.12-1.32 0.88-2.12 0.88-1.56-0.32-2.12-0.88-0.88-1.32-0.88-2.12zm-22 0c0-0.8 0.32-1.56 0.88-2.12s1.32-0.88 2.12-0.88 1.56 0.32 2.12 0.88 0.88 1.32 0.88 2.12-0.32 1.56-0.88 2.12-1.32 0.88-2.12 0.88-1.56-0.32-2.12-0.88-0.88-1.32-0.88-2.12zm29.58 21.5-2.505-5h-24.14l-2.505 5h29.15zm-32.44 0 0.529-1.17 2.963-5.935c0.247-0.494 0.895-0.895 1.447-0.895h25.86c0.552 0 1.2 0.401 1.447 0.895l2.963 5.935 0.515 1.139c0.935-0.168 1.645-0.986 1.645-1.969v-10.5c0-0.828 0.672-1.5 1.5-1.5s1.5 0.672 1.5 1.5v11.5c0 2.208-1.792 4-4 4h-39c-2.208 0-4-1.792-4-4v-1.5c0-0.828 0.672-1.5 1.5-1.5s1.5 0.672 1.5 1.5v0.5c0 1.104 0.896 2 2 2h1.631zm6.965-15.6c-0.356 0.066-0.722 0.1-1.096 0.1-3.311 0-6-2.689-6-6s2.689-6 6-6c0.533 0 1.049 0.07 1.541 0.2h0.459 18 0.459c0.492-0.13 1.008-0.2 1.541-0.2 3.311 0 6 2.689 6 6s-2.689 6-6 6c-0.374 0-0.74-0.034-1.096-0.1h-0.904-18-0.904zm8.154-7.15h3.5c0.69 0 1.25 0.56 1.25 1.25s-0.56 1.25-1.25 1.25h-3.5c-0.69 0-1.25-0.56-1.25-1.25s0.56-1.25 1.25-1.25z" fill="url(#a)" fill-rule="evenodd"/>
</svg>
