<svg xmlns="http://www.w3.org/2000/svg" fill="none" viewBox="0 0 64 64"><defs><linearGradient id="a" x1="16" x2="16" y1="30" y2="2" gradientUnits="userSpaceOnUse"><stop offset="0" stop-color="#02aa93"/><stop offset="1" stop-color="#67ff80"/></linearGradient><linearGradient id="c" x1="16" x2="16" y1="20.23" y2="11.77" gradientUnits="userSpaceOnUse"><stop offset="0" stop-color="#02aa93"/><stop offset="1" stop-color="#67ff80"/></linearGradient></defs><path fill="url(#a)" fill-rule="evenodd" d="M16 2c.539 0 .977.437.977.977v2.945c0 .531.476.962 1.007.967.544.006.946-.431.946-.975V2.977a.977.977 0 0 1 1.953 0v3.906c0 .083.057.16.14.171 1.23.168 2.094.501 2.757 1.165.664.663.997 1.529 1.165 2.758.012.082.088.14.171.14h3.906a.977.977 0 0 1 0 1.952h-2.938c-.543 0-.98.402-.974.945.006.532.437 1.008.968 1.008h2.944a.977.977 0 0 1 0 1.955h-2.945c-.531 0-.962.476-.967 1.007-.006.543.431.945.975.945h2.937a.977.977 0 0 1 0 1.953h-3.906c-.083 0-.16.057-.17.14-.169 1.23-.502 2.095-1.166 2.758s-1.529.997-2.758 1.165c-.082.01-.138.087-.14.17v3.906a.977.977 0 0 1-1.952 0v-2.94a.974.974 0 0 0-.989-.97.974.974 0 0 0-.964.97v2.94a.977.977 0 0 1-1.955 0v-2.94a.974.974 0 0 0-.965-.971.974.974 0 0 0-.988.97v2.941a.977.977 0 0 1-1.953 0v-3.906c0-.082-.057-.16-.14-.17-1.23-.168-2.094-.502-2.757-1.165-.664-.664-.997-1.53-1.165-2.758-.012-.083-.088-.14-.171-.14H2.977a.977.977 0 0 1 0-1.953h2.941a.974.974 0 0 0 .97-.988.974.974 0 0 0-.97-.965H2.977a.977.977 0 0 1 0-1.954h2.945c.531 0 .962-.477.967-1.007.006-.544-.431-.946-.975-.946H2.977a.977.977 0 0 1 0-1.953h3.906c.083 0 .16-.058.17-.14.169-1.23.502-2.094 1.166-2.757s1.529-.997 2.758-1.165c.082-.012.139-.088.14-.171V2.977a.977.977 0 0 1 1.952 0v2.94c0 .543.447.977.989.971a.974.974 0 0 0 .964-.97V2.977c0-.54.438-.977.977-.977zm-1.366 7.813c-.867 0-1.613 0-2.209.081-.641.086-1.254.28-1.753.777-.497.499-.692 1.112-.777 1.753-.081.598-.081 1.344-.081 2.21v2.732c0 .867 0 1.611.081 2.21.085.64.28 1.253.777 1.752.498.497 1.112.692 1.753.777.596.081 1.344.081 2.209.081h2.733c.867 0 1.611 0 2.209-.08.641-.086 1.254-.28 1.753-.778.497-.498.692-1.112.777-1.753.081-.598.081-1.344.081-2.209v-2.733c0-.866 0-1.61-.081-2.209-.085-.641-.28-1.254-.777-1.753-.498-.497-1.112-.691-1.753-.777-.598-.081-1.344-.081-2.209-.081z" clip-rule="evenodd" transform="translate(-4.571 -4.571)scale(2.286)"/><path fill="url(#c)" d="M12.05 12.05v-.001c.076-.073.21-.165.63-.222.453-.06 1.066-.062 2.016-.062H17.3c.949 0 1.562.001 2.013.062.424.057.557.15.63.224.075.074.168.207.224.63.061.452.063 1.065.063 2.015V17.3c0 .949-.002 1.562-.063 2.013-.056.424-.149.557-.224.63-.073.075-.206.168-.63.224-.451.061-1.064.063-2.013.063h-2.604c-.95 0-1.562-.002-2.015-.063-.423-.056-.556-.149-.63-.224-.074-.073-.167-.206-.224-.63-.06-.451-.062-1.064-.062-2.013v-2.604c0-.95.001-1.562.062-2.013.057-.423.149-.557.223-.631z" opacity=".5" transform="translate(-4.571 -4.571)scale(2.286)"/></svg>