<svg xmlns="http://www.w3.org/2000/svg" viewBox="0 0 64 64"><defs><linearGradient id="a" y1=".5" y2=".5"><stop offset="0" stop-color="#1a6cff"/><stop offset="1" stop-color="#c522ff"/></linearGradient></defs><path fill="url(#a)" d="M27.71 23.42q-.064-.001-.129.002l-.014.012c-.37.024-.725.208-.949.504-.226.3-.328.682-.328 1.105v13.89c0 .614.235 1.17.707 1.445.473.274 1.071.202 1.605-.102v-.002l12.19-6.963c.533-.304.9-.782.9-1.328s-.367-1.024-.9-1.328l-12.19-6.963a1.94 1.94 0 0 0-.892-.275zm-.379 15.85"/><path fill="url(#a)" d="M24.02 10.5c-4.697 0-9.074 2.44-11.53 6.445a13.45 13.45 0 0 0-1.991 7.037 13.57 13.57 0 0 0 3.144 8.685c.401.475 1.113.54 1.589.142a1.124 1.124 0 0 0 .138-1.586 11.3 11.3 0 0 1-2.621-7.24c0-2.065.574-4.096 1.66-5.862a11.28 11.28 0 0 1 9.608-5.372c2.07 0 4.095.575 5.86 1.66a11.28 11.28 0 0 1 5.373 9.608c0 2.064-.575 4.095-1.66 5.861a11.28 11.28 0 0 1-9.608 5.372c-1.181 0-2.357-.185-3.482-.556a1.123 1.123 0 1 0-.696 2.137c1.35.444 2.761.67 4.178.67 4.697 0 9.074-2.44 11.53-6.446a13.46 13.46 0 0 0 1.991-7.037c0-4.697-2.44-9.074-6.445-11.53a13.45 13.45 0 0 0-7.037-1.99z" transform="scale(1.333)"/><path fill="url(#a)" d="M24.03 0C15.68 0 7.9 4.34 3.54 11.46A23.93 23.93 0 0 0 0 23.97c0 8.35 4.34 16.13 11.46 20.49A23.9 23.9 0 0 0 23.97 48c8.35 0 16.13-4.34 20.49-11.46A23.9 23.9 0 0 0 48 24.03c0-5.64-1.98-11.11-5.59-15.44-.712-.844-1.979-.957-2.826-.25a2 2 0 0 0-.245 2.82A20.1 20.1 0 0 1 44 24.03c0 3.67-1.02 7.281-2.95 10.42A20.06 20.06 0 0 1 23.97 44a19.9 19.9 0 0 1-10.42-2.95A20.06 20.06 0 0 1 4 23.97c0-3.67 1.02-7.282 2.95-10.42A20.06 20.06 0 0 1 24.03 4c2.1 0 4.19.33 6.19.99 1.05.343 2.18-.23 2.521-1.28a2 2 0 0 0-1.28-2.52C29.061.4 26.551 0 24.031 0z" transform="scale(1.333)"/></svg>