<svg xmlns="http://www.w3.org/2000/svg" viewBox="0 0 64 64"><defs><linearGradient id="b" x2="0" y1="1"><stop offset="0" stop-color="#ff4000"/><stop offset="1" stop-color="#ffa200"/></linearGradient><linearGradient id="a" x2="0" y2="1"><stop offset="0" stop-color="#ff002e"/><stop offset="1" stop-color="#f09"/></linearGradient></defs><path fill="url(#a)" d="M24 1.5c-5.263 0-10.06 1.527-13.6 4.092-3.551 2.565-5.894 6.257-5.894 10.41s2.344 7.844 5.894 10.41 8.342 4.092 13.6 4.092c2.081 0 4.053-.3 5.94-.748l-1.381 4.836a1.5 1.5 0 0 0 1.029 1.854 1.5 1.5 0 0 0 1.854-1.029l1.93-6.752c1.53-.625 2.98-1.346 4.234-2.252 3.551-2.565 5.894-6.257 5.894-10.41s-2.344-7.844-5.894-10.41-8.342-4.092-13.6-4.092zm0 3c4.678 0 8.886 1.383 11.85 3.523S40.5 12.971 40.5 16s-1.687 5.836-4.65 7.977S28.678 27.5 24 27.5s-8.886-1.383-11.85-3.523S7.5 19.029 7.5 16s1.687-5.836 4.65-7.977S19.322 4.5 24 4.5" transform="translate(-2.138 -2.133)scale(1.422)"/><path fill="url(#b)" d="M15.98 26.5a1.5 1.5 0 0 0-.387.057 1.5 1.5 0 0 0-1.029 1.854l1.576 5.518c-1.359.379-2.572 1.405-2.623 2.926q-.02.634 0 1.27c.017.909.504 1.66 1.156 2.254.118 1.2.27 2.303.44 3.035.358 1.543 1.702 2.66 3.23 2.828l.002.002c1.177.127 3.017.255 5.66.255s4.483-.128 5.66-.255l.002-.002c1.527-.168 2.872-1.284 3.23-2.828.17-.732.32-1.835.44-3.035.651-.593 1.14-1.345 1.155-2.254q.021-.636 0-1.27c-.06-1.793-1.652-3.14-3.307-3.221h-.002c-1.352-.067-3.604-.135-7.18-.135-2.412 0-3.506.051-4.844.092l-1.715-6.004a1.5 1.5 0 0 0-1.467-1.086zm8.025 9.998c3.539 0 5.746.067 7.033.13.425.022.447.039.457.325q.018.545 0 1.09v.025a.24.24 0 0 1-.152.227 1.5 1.5 0 0 0-.912 1.273 21 21 0 0 1-.455 3.166c-.074.317-.263.482-.633.523-1.061.115-2.793.24-5.338.24s-4.277-.125-5.338-.24c-.37-.04-.56-.207-.633-.523a21 21 0 0 1-.455-3.166 1.5 1.5 0 0 0-.912-1.273.24.24 0 0 1-.153-.227v-.025a17 17 0 0 1 0-1.09c.01-.286.033-.303.457-.324 1.288-.064 3.494-.131 7.033-.131z" transform="translate(-2.138 -2.133)scale(1.422)"/><path fill="url(#a)" d="M24 1.5c-2.868 0-5.307 1.879-6.934 4.522S14.5 12.161 14.5 16s.94 7.336 2.566 9.978C18.692 28.621 21.132 30.5 24 30.5s5.307-1.879 6.934-4.522S33.5 19.839 33.5 16s-.94-7.336-2.566-9.978C29.308 3.379 26.868 1.5 24 1.5m0 3c1.55 0 3.11 1.031 4.379 3.094S30.5 12.66 30.5 16s-.852 6.344-2.121 8.406S25.551 27.5 24 27.5s-3.11-1.031-4.379-3.094S17.5 19.34 17.5 16s.852-6.344 2.121-8.406S22.449 4.5 24 4.5" transform="translate(-2.138 -2.133)scale(1.422)"/></svg>