<svg version="1.1" viewBox="0 0 64 64" xmlns="http://www.w3.org/2000/svg" xmlns:xlink="http://www.w3.org/1999/xlink">
 <defs>
  <linearGradient id="b">
   <stop stop-color="#5433ff" offset="0"/>
   <stop stop-color="#20bdff" offset="1"/>
  </linearGradient>
  <linearGradient id="a">
   <stop stop-color="#43e97b" offset="0"/>
   <stop stop-color="#38f9d7" offset="1"/>
  </linearGradient>
  <linearGradient id="g" x1="10.95" x2="15.09" y1="6.085" y2="8.498" gradientUnits="userSpaceOnUse" xlink:href="#a"/>
  <linearGradient id="f" x1="1.794" x2="8.438" y1="5.116" y2="5.116" gradientUnits="userSpaceOnUse" xlink:href="#a"/>
  <linearGradient id="h" x1="1.84" x2="7.757" y1="8.479" y2="8.479" gradientUnits="userSpaceOnUse" xlink:href="#b"/>
  <linearGradient id="e" x1="8.438" x2="15.08" y1="5.116" y2="5.116" gradientUnits="userSpaceOnUse" xlink:href="#b"/>
  <linearGradient id="d" x2="16.93" y1="8.467" y2="8.467" gradientUnits="userSpaceOnUse" xlink:href="#b"/>
 </defs>
 <g transform="translate(3e-6 3e-6) scale(3.779)">
  <path d="M3.778 1.302h9.378c.655 0 1.286.26 1.749.726.466.463.726 1.094.726 1.75v9.377a2.47 2.47 0 0 1-.726 1.75 2.47 2.47 0 0 1-1.749.726H3.778c-.655 0-1.286-.26-1.749-.727a2.47 2.47 0 0 1-.726-1.749V3.777c0-.654.26-1.286.726-1.749a2.47 2.47 0 0 1 1.749-.726m0-1.302h9.378c1.003 0 1.964.397 2.671 1.107a3.77 3.77 0 0 1 1.107 2.671v9.378a3.77 3.77 0 0 1-1.107 2.671 3.77 3.77 0 0 1-2.671 1.107H3.778a3.77 3.77 0 0 1-2.671-1.107A3.77 3.77 0 0 1 0 13.156V3.778c0-1.003.397-1.964 1.107-2.671A3.77 3.77 0 0 1 3.778 0" fill="url(#d)" fill-rule="evenodd" style="isolation:isolate"/>
  <path d="M8.439 1.765v1.557l4.682 3.732c.47.375.716.883.713 1.406l1.248.006c.005-.924-.44-1.797-1.184-2.39-1.84-1.41-3.619-2.851-5.46-4.312z" fill="url(#e)" fill-opacity=".685" style="paint-order:stroke fill markers"/>
  <path d="M13.83 8.461c-.002.514-.244 1.011-.703 1.379l-4.694 3.765.001 1.567 5.473-4.359c.728-.583 1.166-1.438 1.17-2.346z" fill="#39f7cc" style="paint-order:stroke fill markers"/>
  <path d="M8.438 1.765v1.557L3.757 7.054c-.47.375-.716.883-.713 1.406l-1.248.006c-.005-.924.44-1.797 1.184-2.39 1.84-1.41 3.619-2.851 5.46-4.312z" fill="url(#f)" fill-opacity=".685" style="paint-order:stroke fill markers"/>
  <path d="M3.042 8.461c.003.514.244 1.011.703 1.379l4.694 3.765-.001 1.567-5.473-4.359c-.728-.583-1.166-1.438-1.17-2.346z" fill="#3f6bff" style="paint-order:stroke fill markers"/>
  <circle cx="12.13" cy="8.498" r="2.299" fill="none" stroke="url(#g)" stroke-miterlimit="4.4" stroke-width="1.319" style="paint-order:stroke fill markers"/>
  <circle cx="4.798" cy="8.479" r="2.299" fill="none" stroke="url(#h)" stroke-miterlimit="4.4" stroke-width="1.319" style="paint-order:stroke fill markers"/>
 </g>
</svg>
