<svg version="1.1" viewBox="0 0 64 64" xmlns="http://www.w3.org/2000/svg">
 <path transform="translate(0 -5e-4) scale(1) matrix(.9996 0 0 .9996 2.2e-5 .011)" d="m42.57 8.498a3 3 0 0 0-3 3v1.428a3 3 0 0 0 3 3h12.08c0.0026 3e-6 0.0052 3e-6 0.0078 0 1.114-0.0024 1.938 0.8232 1.936 1.938-3e-6 0.0026-3e-6 0.0052 0 0.0078v28.3c-4e-6 0.0032-4e-6 0.0065 0 0.0098 0.0024 1.114-0.8212 1.936-1.936 1.934-0.0026-2e-6 -0.0052-2e-6 -0.0078 0h-12.08a3 3 0 0 0-3 3v1.432a3 3 0 0 0 3 3h12.07c5.14 0.01124 9.392-4.241 9.381-9.381v-28.28c0.01124-5.14-4.241-9.392-9.381-9.381z" fill="#0ff"/>
 <path transform="translate(0 -5e-4) scale(1) translate(0 -.0014) scale(1) matrix(.9996 0 0 .9996 2.2e-5 .0124)" d="m9.381 8.498c-5.14-0.01124-9.392 4.241-9.381 9.381v28.28c-0.01129 5.14 4.241 9.392 9.381 9.381h12.05a3 3 0 0 0 3-3v-1.432a3 3 0 0 0-3-3h-12.06c-0.0039-7e-6 -0.00782-7e-6 -0.01172 0-1.114 0.0023-1.936-0.8194-1.934-1.934 4.2e-6 -0.0032 4.2e-6 -0.0065 0-0.0098v-28.3c2.7e-6 -0.0026 2.7e-6 -0.0052 0-0.0078-0.00245-1.114 0.8192-1.94 1.934-1.938 0.0039 7e-6 0.00782 7e-6 0.01172 0h12.06a3 3 0 0 0 3-3v-1.428a3 3 0 0 0-3-3z" fill="#007FFF" opacity=".35"/>
 <path transform="translate(0 -5e-4) scale(1) matrix(.9996 0 0 .9996 2.2e-5 .011)" d="m31.57 0a4.592 4.592 0 0 0-4.143 5v54a5 5 0 0 0 5 5 4.592 4.592 0 0 0 4.143-5v-54a5 5 0 0 0-5-5z" fill="#fdff00"/>
</svg>
