<svg xmlns="http://www.w3.org/2000/svg" viewBox="0 0 64 64"><defs><linearGradient id="a" x2="0" y1="1"><stop offset="0" stop-color="#5433ff"/><stop offset=".5" stop-color="#0bbdff"/><stop offset="1" stop-color="#a5fecb"/></linearGradient><linearGradient id="c" x1="1" x2="0" y2="1"><stop offset="0" stop-color="#fea51d"/><stop offset="1" stop-color="#ff0a76"/></linearGradient></defs><path fill="url(#a)" d="M8.446 1.455q-2.902 0-4.867 1.738C2.165 4.451 1.437 6.21 1.437 8.386c0 3.222 1.646 5.616 4.309 6.595l-.037-.026a.36.36 0 0 1-.098-.135h-.004c-.116.012-.199-.065-.235-.151a.45.45 0 0 1 .022-.354c.118-.256.305-.731.549-1.094C4.906 12.24 4.2 10.599 4.2 8.427c0-3.576 1.979-5.693 4.288-5.693 2.267 0 4.226 2.137 4.226 5.833 0 1.912-.58 3.422-1.473 4.404.273.371.48.902.607 1.179.056.119.065.25.022.354-.036.086-.12.163-.235.15h-.004a.36.36 0 0 1-.098.137.24.24 0 0 1-.248.043c-.049.087-.127.145-.234.129a.3.3 0 0 1-.078-.026.2.2 0 0 1-.07.075c-.233.15-.571-.225-.757-.466a3.3 3.3 0 0 1-.346-.552 3.6 3.6 0 0 1-1.354.266 3.4 3.4 0 0 1-.983-.144c-.1.218-.236.43-.366.597-.148.191-.393.468-.604.496a8.5 8.5 0 0 0 2.098.27c1.747 0 3.41-.62 4.68-1.759 1.456-1.298 2.225-3.096 2.225-5.214 0-2.257-.874-4.175-2.475-5.493-1.27-1.039-2.787-1.558-4.575-1.558zm-2.489 13.54a.23.23 0 0 1-.139.011c.085.03.162.072.249.1a.26.26 0 0 1-.11-.111m.312.103a.26.26 0 0 1-.143.027c.067.02.142.027.21.045a.2.2 0 0 1-.067-.072" transform="translate(-6.542 -6.541)scale(4.552)"/><path fill="url(#c)" d="M6.629 12.85c-.51.028-.881 1.034-1.108 1.521-.107.23.047.448.207.19.123-.171.461-.848.509-.868h.002l.001.001v.001l.001.002c.013.068-.478.88-.51.977-.03.09.12.33.27.105.188-.283.517-.969.58-.984h.004l.001.001c.087.056-.587.919-.523 1.093.136.376.517-.43.773-.816.05-.075.071-.042.069-.03v.002c-.352.598-.53.771-.534.91.056.65 1.892-1.714.72-1.866-.165-.178-.32-.246-.462-.238z" transform="translate(-6.542 -6.541)scale(4.552)"/><path fill="url(#c)" d="M10.61 12.69c-.143-.008-.297.06-.461.239-1.173.152.663 2.516.72 1.866-.004-.14-.183-.313-.534-.91v-.002c-.003-.013.019-.046.069.03.255.384.637 1.191.773.816.063-.174-.6-1.025-.525-1.092l.001-.001h.005c.063.014.392.7.58.983.15.225.3-.016.27-.105-.032-.098-.527-.916-.51-.979l.001-.001v-.001h.003c.048.02.386.696.509.868.16.257.314.04.207-.19-.227-.487-.598-1.493-1.108-1.521z" transform="translate(-6.542 -6.541)scale(4.552)"/><path fill="url(#c)" d="M7.638 5.748c-1.086 0-1.836.654-2.215 1.635-.294.008-.767.188-.918.425-.252.457.216.952.69 1.008-.152.92-.506 1.95.002 3.216.239.419.519.778.828 1.073a1.4 1.4 0 0 1 .228-.24.65.65 0 0 1 .369-.152q.277-.016.538.248c.26.05.408.205.45.419.034.18-.009.394-.092.608q.454.133.928.133c.45 0 .886-.086 1.298-.254-.095-.228-.148-.46-.11-.653.041-.214.189-.37.45-.42q.261-.262.538-.247a.65.65 0 0 1 .368.152q.084.068.163.16l.069-.08-.074-.22c-.107-.334-.86-1.49-1.022-1.834-.064-.151-.13-.57.023-.736.46-.267 1.252-.282 1.436-1.361.01-.063-.172-.703-.213-.814a.9.9 0 0 0 .167-.224l.015.027-.01-.038-.005.008-.007-.012q-.014-.033-.036-.066-.034-.052-.072-.102-.05-.07-.102-.138l-.081-.104-.059-.075a1 1 0 0 0-.049-.052l-.052-.05q-.031-.031-.063-.06l-.043-.038-.04-.035-.025-.073.039.035q.022.018.044.038l.062.06.053.05a1 1 0 0 1 .05.053l.06.076q.04.053.081.105.053.069.104.139.037.05.07.1a1 1 0 0 1 .039.066l.022.041.01.034q.057-.11.089-.233l.057.073-.033-.066-.02-.025-.005.016-.019-.022q-.043-.045-.088-.088l-.126-.119-.1-.088-.07-.064a1 1 0 0 0-.058-.043l-.061-.04-.073-.05-.049-.029-.045-.027-.032-.056c-.16.123-.328.228-.468.301a.14.14 0 0 1-.057.016 2 2 0 0 1-.247 0l-.064-.005q-.037-.002-.073-.006l-.007-.054-.033.041-.006.007-.042-.007-.014.012-.049.043q-.035.032-.07.066l-.058.056a1 1 0 0 0-.053.054l-.059.075-.082.103q-.052.067-.102.135c-.023.032-.049.065-.069.097-.014.02-.021.04-.03.06l-.02.036.008-.056.019-.036a.4.4 0 0 1 .032-.06q.033-.048.07-.096l.102-.135q.042-.053.082-.105l.06-.076.055-.055q.03-.029.06-.056l.069-.066.004-.005-.094-.021-.035.051-.06.036-.064.04-.094.06-.08.052-.073.051-.09.071-.123.099q-.08.064-.157.13-.057.046-.109.093-.032.03-.056.06l-.036.036.035-.058.034-.036q.026-.03.059-.06.052-.047.109-.093.077-.065.158-.13l.124-.1.09-.072q.037-.027.076-.052.04-.026.08-.051l.094-.062.065-.04.046-.028q-.048-.014-.093-.032-.034-.011-.067-.022-.046-.02-.087-.043-.032-.013-.06-.03-.044-.025-.085-.054l-.046-.03q-.037-.03-.071-.06-.024-.018-.046-.037-.033-.034-.065-.067l-.039-.041q-.035-.042-.068-.086l-.024-.03a2 2 0 0 1-.157-.249l-.01-.017a.2.2 0 0 1 .004-.171v-.001a.3.3 0 0 1 .025-.044c-.354-.158-.845-.216-1.24-.216zm3.806.342-.022.055-.002.005-.033.06a1 1 0 0 1-.061.095l-.025.032q-.06.08-.135.156l.055-.006.09-.003.074-.004h.075q.05.002.099.007l.074.007a2 2 0 0 0-.035-.127.8.8 0 0 0-.154-.277m.19.404.005.025.126.01q.089.009.177.02.064.006.126.016.04.008.077.018l.047.012-.07-.032-.046-.011A1 1 0 0 0 12 6.534q-.062-.009-.126-.015l-.177-.02zm-4.39-.364a.65.65 0 0 1 .463.156c.023.03-.124.084-.158.09-.499-.36-.787.176-1.164.376.078-.35.483-.612.859-.623zm-.199.326c.55-.009.839.191.821.52-.002.184-.538.486-.9.548-.374.064-.466.03-.481.01-.042-.34.128-1.071.56-1.078zm4.634.369.001.028q.075.04.148.082.056.03.109.065.033.022.062.045.018.015.039.029l-.05-.056-.038-.028q-.03-.024-.063-.046-.053-.032-.108-.063zm.003.147v.026l.188.11q.033.021.062.046l.038.028-.049-.056-.038-.028a1 1 0 0 0-.063-.046q-.053-.032-.108-.063zm-1.726.046.045.006v.002l-.033.041-.037.044q-.024.033-.048.068-.023.028-.043.057a1 1 0 0 0-.036.055l-.035.074-.05.103q-.031.066-.06.133-.021.048-.037.095-.01.031-.012.058l-.007.036-.011-.052.006-.036a.3.3 0 0 1 .013-.057q.016-.048.039-.095.028-.068.059-.135.026-.052.05-.103l.036-.075a1 1 0 0 1 .038-.057l.042-.056q.024-.035.05-.069zm.706.594h.009c.023.005.039.016.058.03.037.026.084.066.156.11l.008.002.027.003a.7.7 0 0 0 .143-.009l.008-.002a.04.04 0 0 1 .029-.02.037.037 0 0 1 .04.032c.003.022-.012.04-.024.047a.1.1 0 0 1-.034.015.72.72 0 0 1-.202.007c-.01-.002-.019-.002-.031-.01-.08-.048-.13-.092-.163-.115q-.02-.014-.025-.015c-.184.228-.296.41-.71.781-.164.147-.437.16-.701.234-.581.163-.968.023-1.216-.187-.24-.203-.353-.463-.41-.57-.01.007-.025.011-.034.017q-.061.043-.071.087a.037.037 0 0 1-.043.03.037.037 0 0 1-.03-.043c.01-.059.053-.102.103-.135.024-.017.053-.026.081-.039a.2.2 0 0 1 .043-.034.5.5 0 0 1 .202-.052c.005 0 .004-.002.016 0l.008.001q.002 0 .006.003c.003.001.012.01.012.01l.008.024-.007.018-.007.009-.004.003-.01.005h-.001l-.033.008c-.03.008-.078.02-.129.037q-.022.01-.043.02c.062.117.168.356.39.544.234.196.587.33 1.15.173.273-.077.538-.098.671-.218.411-.368.515-.543.703-.775a.08.08 0 0 1 .057-.027m-5.315.02c.246.002.167.165.226.314.084.212-.001.607-.175.628-.212.026-.513-.096-.637-.288-.169-.22-.129-.441.214-.598.171-.04.29-.058.372-.057" transform="translate(-6.542 -6.541)scale(4.552)"/><path fill="url(#c)" d="M11.17 6.494h-.004l-.053.005.037.015zm-.02.02q-.108.105-.23.2l.033.02.05.03q.034.025.072.05l.061.04q.03.02.06.043l.071.066.1.089q.064.06.127.12.046.041.088.086c.02.02.034.039.05.059l.009.011a1.6 1.6 0 0 0 .045-.33l-.073-.039q-.06-.03-.119-.063l-.085-.045a1 1 0 0 0-.067-.028l-.07-.025-.083-.03-.055-.017q-.026-.009-.052-.016l-.055-.057.052.016.056.018.083.03.07.025.068.028.087.046.12.064.123.068v-.12l-.006-.003q-.06-.03-.119-.062l-.085-.045a1 1 0 0 0-.067-.028l-.07-.025q-.042-.016-.083-.03l-.055-.017q-.025-.009-.051-.016l-.056-.057.051.016q.028.008.056.018l.084.03.07.025.068.028.087.046.12.063.053.03a2 2 0 0 0-.015-.164l.02.004q.065.017.13.033.086.022.171.046.062.017.122.037.038.013.072.029l.045.02-.062-.043-.045-.02a1 1 0 0 0-.073-.028q-.06-.019-.12-.035l-.172-.047-.091-.022.003.025-.076-.018a1 1 0 0 0-.072-.012l-.074-.007q-.045-.006-.089-.01L11.3 6.61l-.055-.003-.068-.043.054.004.059.003q.045.006.089.01l.074.008.074.011.096.024.042.01-.022-.115-.009-.002-.098-.008h-.073l-.075.005q-.045 0-.089.003l-.058.006-.054.006zm-.23.2-.013-.008.007.013zm-.958.21-.045.04-.045.04.044.008.032-.028zm-.177.047-.013.009.006.001z" transform="translate(-6.542 -6.541)scale(4.552)"/><path fill="url(#a)" d="M7.379 6.64c-.165 0-.3.126-.3.282s.135.281.3.281.3-.126.3-.281-.135-.282-.3-.282" transform="translate(-6.542 -6.541)scale(4.552)"/><path fill="url(#c)" d="M10.58 5.676c-1.18.041-1.682.311-1.602.455.244.438.588.81 1.396.765.652-.337 1.416-1.11.6-1.198-.025-.003-.367-.02-.394-.022z" transform="translate(-6.542 -6.541)scale(4.552)"/></svg>