<svg xmlns="http://www.w3.org/2000/svg" style="isolation:isolate" viewBox="0 0 64 64"><linearGradient id="a" x2="1" y1=".5" y2=".5" gradientTransform="matrix(47 0 0 46.79 .5 .5)" gradientUnits="userSpaceOnUse" transform="translate(-.68 -.536)scale(1.362)"><stop offset="0" stop-color="#5433ff"/><stop offset=".517" stop-color="#20bdff"/><stop offset=".983" stop-color="#a5fecb"/></linearGradient><path fill="url(#a)" fill-rule="evenodd" d="m38 16.05 4.159-.14c.59 0 1.068.501 1.068 1.118V18.1c0 .617-.361 1.446-.807 1.85L38 23.957zm-3 10.63-8.578 7.776c-1.337 1.212-3.507 1.212-4.844 0L13 26.68V4.504a1 1 0 0 1 1-1h20a1 1 0 0 1 1 1V26.68m-25-2.72-4.42-4.007c-.446-.404-.807-1.233-.807-1.85v-1.072c0-.617.478-1.118 1.068-1.118H10zm33.23 4.969a2.137 2.137 0 0 1 4.273 0v13.02a5.343 5.343 0 0 1-5.341 5.341H5.842a5.343 5.343 0 0 1-5.341-5.341v-13.02a2.137 2.137 0 0 1 4.273 0v10.89a3.205 3.205 0 0 0 3.204 3.204h32.05a3.205 3.205 0 0 0 3.204-3.204v-10.89zm-5.227-17.48h7.364c1.179 0 2.136 1.001 2.136 2.235v5.631c0 1.234-.734 2.877-1.639 3.669l-17.76 15.54c-2.261 1.979-5.933 1.979-8.194 0L2.15 22.984c-.905-.792-1.639-2.435-1.639-3.669v-5.631c0-1.234.957-2.235 2.136-2.235h7.364v-7.94c0-1.656 1.344-3 3-3h22c1.656 0 3 1.344 3 3v7.94zm-20.15 4.66c0-1.632.648-3.196 1.799-4.348a6.15 6.15 0 0 1 8.696 0 6.15 6.15 0 0 1 0 8.696 6.15 6.15 0 0 1-8.696 0 6.15 6.15 0 0 1-1.799-4.348m-3.353-.001c0-5.243 4.257-9.5 9.5-9.5s9.5 4.257 9.5 9.5-4.257 9.5-9.5 9.5-9.5-4.256-9.5-9.5" transform="translate(-.68 -.536)scale(1.362)"/></svg>