<svg xmlns="http://www.w3.org/2000/svg" viewBox="0 0 64 64"><defs><linearGradient id="a" x1="1" x2="0" y1=".5" y2=".5"><stop offset="0" stop-color="#ff0005"/><stop offset="1" stop-color="#ff9e00"/></linearGradient></defs><path fill="url(#a)" d="M5.346.004a5.332 5.332 0 0 0 0 10.66 47.99 47.99 0 0 1 47.99 47.99 5.332 5.332 0 0 0 10.66 0c0-32.42-26.23-58.65-58.65-58.65" transform="translate(-.004 .006)"/><path fill="url(#a)" d="M5.346 21.33a5.33 5.33 0 0 0-5.332 5.332 5.33 5.33 0 0 0 5.332 5.332c14.72 0 26.66 11.94 26.66 26.66a5.332 5.332 0 0 0 10.66 0c0-20.64-16.69-37.32-37.32-37.32z" transform="translate(-.004 .006)"/><path fill="url(#a)" d="M9.947 42.66A10.66 10.66 0 0 0 .004 53.31a10.67 10.67 0 0 0 21.34-.01 10.66 10.66 0 0 0-11.4-10.64z" transform="translate(-.004 .006)"/></svg>