<svg fill="none" version="1.1" viewBox="0 0 64 64" xmlns="http://www.w3.org/2000/svg">
 <defs>
  <linearGradient id="a" x1="96" x2="96" y1="40.13" y2="164.4" gradientUnits="userSpaceOnUse">
   <stop stop-color="#a5b9ff" offset="0"/>
   <stop stop-color="#bbe9ff" offset="1"/>
  </linearGradient>
 </defs>
 <path transform="translate(-1e-6 -3e-5) scale(1) translate(.02436 .01544) scale(.9997) translate(-2.902 -3) scale(.3636)" d="M15.66 77.14c52.16-16.22 104.3-32.42 156.5-48.62 4.745-2.168 10.37 2.83 8.42 7.472-11.69 41.28-23.39 82.57-35.1 123.8-.827 4.594-7.702 6.225-10.77 2.647-12.46-13.96-24.82-28-37.19-42.03-2.09-2.168-2.11-5.716-.06-7.913 8.237-10.06 16.39-20.17 24.7-30.18 2.07-2.599 6.48-2.83 8.923-.585 2.555 2.09 2.757 6.014.526 8.393-7.128 8.7-14.2 17.44-21.37 26.09 8.632 9.956 17.46 19.77 26.18 29.67 9.722-34.3 19.52-68.57 29.17-102.9-43.44 13.68-87.02 26.94-130.5 40.59 8.692 3.184 17.2 6.81 25.85 10.12 2.534.796 4.886 2.839 4.896 5.544-.14 12.18-.797 24.36-1.16 36.54 4.108-3.981 7.995-8.191 12.26-12.04 3.613-2.82 9.731-.125 9.883 4.297.394 2.446-1.383 4.45-3.059 6.072-7.44 7.357-14.49 15.08-22.02 22.34-3.665 3.06-10.33.21-10.04-4.527.475-16.09.97-32.18 1.625-48.27-11.75-4.814-23.61-9.37-35.42-14.07-2.23-.96-4.927-1.573-6.178-3.798-1.999-3.232-.05-7.865 3.867-8.69z" fill="url(#a)" stroke="url(#a)" stroke-width="6"/>
</svg>
