<svg version="1.1" viewBox="0 0 64 64" xmlns="http://www.w3.org/2000/svg">
 <defs>
  <linearGradient id="b" y2="1">
   <stop stop-color="#00efff" offset="0"/>
   <stop stop-color="#07f" offset="1"/>
  </linearGradient>
  <linearGradient id="a" x1="1" x2="0" y2="1">
   <stop stop-color="#0f9" offset="0"/>
   <stop stop-color="#14dc57" offset="1"/>
  </linearGradient>
 </defs>
 <path transform="translate(-.000518 -9e-5) scale(1) translate(0 -.002)" d="M39.87 4.446c2.593.001 5.185.99 7.157 2.96l9.861 9.861c.575.575.682 1.36.858 2.107.75.142 1.53.281 2.102.852l3.004 3.004c1.52 1.521 1.52 4.071 0 5.589l-5.874 5.88c-1.521 1.521-4.065 1.521-5.583 0l-3.004-3.016c-.571-.57-.716-1.345-.858-2.096-.748-.176-1.527-.288-2.102-.863l.165.164-8.308 8.32-2.863-2.868 9.736-9.748a2.025 2.025 0 0 1 2.868 0l1.267 1.267c.116.117.213.117.33 0a2.025 2.025 0 0 1 2.862 2.863l-.164.17 2.863 2.869 5.732-5.737-2.863-2.863-.17.176a2.028 2.028 0 0 1-2.864-2.874c.117-.117.117-.213 0-.33l-9.86-9.86c-1.204-1.204-2.75-1.807-4.296-1.807s-3.094.604-4.295 1.806l-1.43 1.431.601.602c2.22-.948 4.755-.97 6.555.83 2.356 2.356 2.356 6.24 0 8.593l-9.736 9.748-2.863-2.868 9.736-9.748a1.994 1.994 0 0 0 0-2.863 1.994 1.994 0 0 0-2.863 0 2.025 2.025 0 0 1-2.863 0l-2.863-2.863a2.025 2.025 0 0 1 0-2.863l2.863-2.868a10.1 10.1 0 0 1 7.157-2.96zm-16.91 29.89 2.863 2.863-14.61 14.61 2.863 2.863 14.61-14.61 2.863 2.868-16.05 16.03a2.025 2.025 0 0 1-2.863 0l-5.732-5.726a2.025 2.025 0 0 1 0-2.863z" fill="url(#a)"/>
 <path transform="translate(-.000518 -9e-5) scale(1) translate(0 -.002)" d="M14.43 5.667q1.075.02 2.136.199a14.17 14.17 0 0 1 7.628 3.914l.006.011c3.804 3.827 4.647 9.4 2.969 14.43l22.8 22.8c2.355 2.355 2.355 6.235 0 8.587-2.355 2.355-6.235 2.355-8.587 0l-22.8-22.8c-5.028 1.675-10.6.835-14.43-2.972v-.006C-.088 25.584-1.205 19.11 1.38 13.7a2.025 2.025 0 0 1 3.26-.562l6.502 6.502c.116.116.218.116.335 0l2.533-2.527c.116-.117.116-.219 0-.335l-6.485-6.479a2.025 2.025 0 0 1 .562-3.26 14.1 14.1 0 0 1 6.345-1.375zm1.125 4.153c-.787-.017-1.573.326-2.374.409l3.687 3.687c1.656 1.656 1.656 4.403 0 6.06l-2.533 2.533c-1.656 1.656-4.403 1.656-6.06 0L4.567 18.8c-.308 2.975.241 5.97 2.442 8.17a10.13 10.13 0 0 0 11.51 1.955 2.025 2.025 0 0 1 2.3.397l23.43 23.42c.818.819 2.044.819 2.863 0 .818-.818.818-2.044 0-2.863l-23.42-23.42a2.025 2.025 0 0 1-.398-2.306 10.12 10.12 0 0 0-1.954-11.51 10.1 10.1 0 0 0-5.435-2.789 2.4 2.4 0 0 0-.34-.034z" fill="url(#b)"/>
</svg>
