<svg xmlns="http://www.w3.org/2000/svg" viewBox="0 0 64 64"><defs><linearGradient id="a" x2="0" y2="1"><stop offset="0" stop-color="#00fffa"/><stop offset="1" stop-color="#0078ff"/></linearGradient></defs><path fill="url(#a)" d="M8 5.385A2.528 2.615 0 0 0 5.473 8 2.528 2.615 0 0 0 8 10.615 2.528 2.615 0 0 0 10.527 8 2.528 2.615 0 0 0 8 5.385" transform="matrix(4 0 0 4 .002 0)"/><path fill="url(#a)" d="M6.684 2.877c-2.191.602-3.807 2.666-3.807 5.121s1.616 4.523 3.807 5.125c-1.58-.734-2.717-2.753-2.717-5.125s1.136-4.387 2.717-5.121m2.633 0c1.58.734 2.717 2.749 2.717 5.121s-1.136 4.391-2.717 5.125c2.191-.602 3.807-2.67 3.807-5.125s-1.616-4.519-3.807-5.121" transform="matrix(4 0 0 4 .002 0)"/><path fill="url(#a)" d="M5.945 0C2.524.94 0 4.165 0 7.998S2.524 15.06 5.945 16c-2.468-1.146-4.244-4.298-4.244-8.002S3.477 1.146 5.945 0m4.109 0c2.468 1.146 4.244 4.294 4.244 7.998S12.522 14.854 10.054 16c3.421-.94 5.945-4.169 5.945-8.002S13.475.94 10.054 0" transform="matrix(4 0 0 4 .002 0)"/></svg>