<svg xmlns="http://www.w3.org/2000/svg" xmlns:xlink="http://www.w3.org/1999/xlink" viewBox="0 0 64 64"><defs><linearGradient id="a"><stop offset="0" stop-color="#00d2ff"/><stop offset="1" stop-color="#0006ff"/></linearGradient><linearGradient xlink:href="#a" id="d" x1="99.24" x2="208.2" y1="138.3" y2="138.3" gradientTransform="translate(-3.026 -3.123)" gradientUnits="userSpaceOnUse"/><linearGradient xlink:href="#a" id="c" x1="-1422" x2="180.9" y1="370.7" y2="370.7" gradientTransform="matrix(.1671 0 0 .2058 238.7 59.98)" gradientUnits="userSpaceOnUse"/></defs><path fill="none" stroke="url(#c)" stroke-width="21.71" d="M13.25 181.6c6.028 20.93 23.65 38.19 52.57 38.19 12.75 0 36.24-7.775 46.93-13.04 11.51 5.07 24.17 7.707 37 7.707 9.048 0 18.04-1.311 26.62-3.882 6.58 1.806 25.05 4.767 32.02 4.808 8.207.048 22.57 1.395 36.09-10.02 12.28-10.37 15.11-28.94 14.39-38.01-1.21-13.84-10.14-35.09-27.5-44.21-8.643-34.07-42.42-64.64-81.52-64.64-35.6 0-67.41 26.51-79.13 56.55-29.92 2.112-53.63 19.17-58.78 40.89" transform="translate(-.33 -1.163)scale(.2384)"/><path fill="url(#d)" d="M153.6 116.7a52 52 0 0 0-3.434.004 74 74 0 0 0-2.821.141 24 24 0 0 0-2.007.22c-.556.09-1.01.198-1.396.33s-.704.289-.987.475l-1.48.97.174 10.02c.042 2.393.077 4.22.126 5.646.05 1.424.111 2.445.207 3.223.096.777.224 1.312.406 1.764s.417.822.724 1.27q.6.875 1.374 1.643t1.731 1.435q.958.665 2.104 1.238 1.148.57 2.495 1.053c.473.169 1.021.312 1.624.432s1.262.214 1.957.284c.695.071 1.427.118 2.176.142a37 37 0 0 0 4.548-.138 30 30 0 0 0 2.142-.27c.68-.113 1.32-.247 1.901-.402.58-.155 1.101-.331 1.544-.528a17.5 17.5 0 0 0 2.085-1.097 16 16 0 0 0 1.838-1.32q.856-.713 1.581-1.53a14.4 14.4 0 0 0 2.358-3.63q.45-.998.759-2.075.307-1.078.465-2.228.16-1.151.165-2.368c.005-1.108-.04-2.054-.156-2.892a10 10 0 0 0-.232-1.18 8 8 0 0 0-.356-1.058q-.212-.502-.497-.972c-.285-.47-.409-.62-.655-.926-.492-.61-1.1-1.219-1.846-1.874a16 16 0 0 0-1.858-1.397q-1.013-.655-2.177-1.222c-1.164-.567-1.599-.723-2.465-1.038a31 31 0 0 0-2.722-.846 37 37 0 0 0-2.948-.646 43 43 0 0 0-3.14-.437 48 48 0 0 0-3.304-.221z" transform="translate(-.33 -1.163)scale(.2384)"/><path fill="url(#d)" d="M150.7 80.72a54.47 54.47 0 0 0-54.46 54.47 54.47 54.47 0 0 0 17.56 40.06c-.003-4.036-.012-6.824-.013-11.86-.002-11.48-.002-20.19.016-26.83.017-6.643.051-11.21.117-14.4.033-1.593.073-2.84.123-3.827s.11-1.714.18-2.268c.072-.553.154-.933.25-1.225.095-.292.203-.495.326-.697a9.7 9.7 0 0 1 2.507-2.746c.526-.394 1.11-.759 1.762-1.096q.975-.505 2.161-.932c1.186-.427 1.658-.547 2.606-.786q1.419-.359 3.094-.655a58 58 0 0 1 3.629-.541c1.304-.163 2.704-.31 4.209-.443a97 97 0 0 1 4.017-.263c1.434-.067 2.952-.113 4.521-.139 3.138-.052 6.478-.025 9.759.074 3.28.098 6.5.268 9.394.501 1.447.117 2.813.249 4.064.396 1.252.147 2.389.309 3.379.485q1.897.336 3.671.733a55 55 0 0 1 3.425.855q1.651.457 3.181.976t2.937 1.099a41 41 0 0 1 2.695 1.223q1.287.642 2.454 1.348t2.215 1.474a26 26 0 0 1 1.977 1.602q.93.831 1.739 1.73.81.897 1.504 1.859c.694.962.885 1.305 1.269 1.99s.73 1.392 1.036 2.12q.459 1.094.804 2.255.344 1.161.572 2.388.228 1.228.342 2.523t.114 2.659q0 1.228-.072 2.4-.072 1.173-.215 2.29a31 31 0 0 1-.357 2.178 28 28 0 0 1-.499 2.064 25 25 0 0 1-.638 1.949q-.354.945-.777 1.832-.422.886-.913 1.714c-.491.828-.678 1.083-1.051 1.594a19.6 19.6 0 0 1-3.956 4.045q-.759.58-1.584 1.098a22 22 0 0 1-1.714.97q-.89.453-1.843.84-.954.387-1.971.71c-1.017.322-1.378.406-2.1.576-.557.131-1.195.246-1.897.345s-1.467.18-2.277.246c-1.62.131-3.422.197-5.262.197s-3.72-.066-5.494-.198a56 56 0 0 1-2.567-.247 38 38 0 0 1-2.305-.345 75 75 0 0 1-4.787-1.066c-1.685-.429-3.43-.922-5.14-1.45s-3.386-1.09-4.935-1.66-2.971-1.144-4.173-1.697l-3.876-1.785-.011 32.44c-.001 1.952-.006 2.882-.008 4.609a54.5 54.5 0 0 0 11.3 1.186 54.47 54.47 0 0 0 54.47-54.47 54.47 54.47 0 0 0-54.47-54.47h-.01z" transform="translate(-.33 -1.163)scale(.2384)"/></svg>