<svg xmlns="http://www.w3.org/2000/svg" fill="none" viewBox="0 0 64 64"><defs><linearGradient id="a" x1="10.02" x2="49.79" y1="12.91" y2="12.91" gradientUnits="userSpaceOnUse"><stop offset="0" stop-color="#5570ff"/><stop offset="1" stop-color="#4dd3ff"/></linearGradient><linearGradient id="b" x1="32" x2="32" y1="55.37" y2="13.37" gradientUnits="userSpaceOnUse"><stop offset="0" stop-color="#5570ff"/><stop offset="1" stop-color="#4dd3ff"/></linearGradient><linearGradient id="d" x1="32.48" x2="32.48" y1="58.03" y2="32" gradientUnits="userSpaceOnUse"><stop offset="0" stop-color="#a93aff"/><stop offset="1" stop-color="#ff81ff"/></linearGradient></defs><path stroke="url(#a)" stroke-width="5" d="M5 5.93A.93.93 0 0 1 5.931 5h20.98c.276 0 .538.123.715.335l4.097 4.91a.93.93 0 0 0 .715.334h25.63c.514 0 .931 2.277.931 2.79-.003.112-.335.207-.43.147a.93.93 0 0 0-.5-.147h-25.68a.93.93 0 0 0-.659.273l-5.041 5.034a.93.93 0 0 1-.658.272H5.93a.93.93 0 0 0-.931.93V5.928z" transform="translate(-2.5 -.728)scale(1.081)"/><path stroke="url(#a)" stroke-width="5" d="M5 20.81v.012-.005l.002-.005L5 20.81z" transform="translate(-2.5 -.728)scale(1.081)"/><path stroke="url(#b)" stroke-width="5" d="M32.42 13.37a1 1 0 0 0-.708.294l-5 5.013a1 1 0 0 1-.708.294H5.934a.933.933 0 0 0-.933.933v.933l.002.001-.002.01v33.59c0 .514.417.933.93.933h52.14c.515 0 .932-.419.932-.933v-40.07a1 1 0 0 0-1-1h-25.58z" transform="translate(-2.5 -.728)scale(1.081)"/><path fill="url(#d)" d="M13 32a1 1 0 0 0-1 1v24.03a1 1 0 0 0 1 1h9.172a1 1 0 0 0 1-1V44.15a1 1 0 0 1 1-1h16.62a1 1 0 0 1 1 1v12.88a1 1 0 0 0 1 1h9.172a1 1 0 0 0 1-1V33a1 1 0 0 0-1-1h-38.97z" transform="translate(-2.5 -.728)scale(1.081)"/></svg>