<svg xmlns="http://www.w3.org/2000/svg" viewBox="0 0 64 64"><defs><linearGradient id="c" y2="1"><stop offset="0" stop-color="#fda700"/><stop offset="1" stop-color="#ffde00"/></linearGradient><linearGradient id="a" y1="1"><stop offset="0" stop-color="#00b59c"/><stop offset="1" stop-color="#9cffac"/></linearGradient></defs><path fill="url(#a)" d="M48.91 1.043a50 50 0 0 0-12.88 2.24 50.1 50.1 0 0 0-20.39 12.33l-.004.004v.002a50.087 50.087 0 0 0-13.974 43.43 4 4 0 0 0 3.277 3.281c7.7 1.268 15.59.715 23.05-1.619a50.1 50.1 0 0 0 20.39-12.33l.004-.004a50 50 0 0 0 12.33-20.38 50.1 50.1 0 0 0 1.643-23.05 4 4 0 0 0-3.277-3.283 50 50 0 0 0-10.164-.621zm.244 5.994q1.919-.08 3.84.01c1.2.055 2.396.222 3.592.377.805 6.299.302 12.7-1.604 18.78a44.1 44.1 0 0 1-10.85 17.94 43.96 43.96 0 0 1-17.94 10.85c-6.074 1.902-12.47 2.395-18.77 1.582-.803-6.298-.301-12.7 1.604-18.77a44.1 44.1 0 0 1 10.85-17.94l.004-.004A44.01 44.01 0 0 1 49.16 7.039z" transform="translate(-1.042 -1.03)scale(1.032)"/><path fill="url(#c)" d="M48 10a6 6 0 1 0 0 12 6 6 0 0 0 0-12M32 20c-6.627 0-12 5.373-12 12s5.373 12 12 12 12-5.373 12-12-5.373-12-12-12M16 42a6 6 0 1 0 0 12 6 6 0 0 0 0-12" transform="translate(-1.042 -1.03)scale(1.032)"/></svg>