<svg fill="none" version="1.1" viewBox="0 0 64 64" xmlns="http://www.w3.org/2000/svg">
 <defs>
  <linearGradient id="b" x1="29.41" x2="29.41" y1="58.88" gradientUnits="userSpaceOnUse">
   <stop stop-color="#fd5900" offset="0"/>
   <stop stop-color="#ffde00" offset="1"/>
  </linearGradient>
  <linearGradient id="c" x1="18.85" x2="18.85" y1="24.97" y2="11.7" gradientUnits="userSpaceOnUse">
   <stop stop-color="#fd5900" offset="0"/>
   <stop stop-color="#ffde00" offset="1"/>
  </linearGradient>
  <linearGradient id="g" x1="40.31" x2="40.31" y1="24.81" y2="11.71" gradientUnits="userSpaceOnUse">
   <stop stop-color="#fd5900" offset="0"/>
   <stop stop-color="#ffde00" offset="1"/>
  </linearGradient>
  <linearGradient id="h" x1="18.85" x2="18.85" y1="47.19" y2="32.9" gradientUnits="userSpaceOnUse">
   <stop stop-color="#fd5900" offset="0"/>
   <stop stop-color="#ffde00" offset="1"/>
  </linearGradient>
  <linearGradient id="i" x1="46.68" x2="46.68" y1="64" y2="29.29" gradientUnits="userSpaceOnUse">
   <stop stop-color="#fd5900" offset="0"/>
   <stop stop-color="#ffde00" offset="1"/>
  </linearGradient>
  <clipPath id="a">
   <path d="M0 0h64v64H0z" fill="#fff"/>
  </clipPath>
 </defs>
 <g transform="translate(-.000684 .0019) scale(1)" clip-path="url(#a)">
  <path d="M8.236.3C9.35.03 10.499 0 11.64 0c12.23.022 24.47-.013 36.7.018 4.012.031 7.832 2.576 9.482 6.22.8 1.674 1.042 3.552 1.002 5.39-.022 3.883.013 7.76-.013 11.64.183 1.727-1.686 3.22-3.323 2.653-1.145-.313-1.923-1.462-1.861-2.634-.045-4.195.018-8.391-.023-12.59.018-2.236-1.485-4.365-3.578-5.135-1.248-.501-2.616-.349-3.927-.371-11.78.013-23.55 0-35.32.009-2.214-.036-4.338 1.404-5.16 3.453-.533 1.226-.435 2.585-.448 3.887.022 11.78-.004 23.57.013 35.35-.134 2.854 2.2 5.59 5.081 5.747 4.495.125 8.994-.05 13.48.076 1.355.036 2.496 1.337 2.393 2.684-.022 1.297-1.167 2.482-2.487 2.46-4.57.018-9.146.044-13.72-.018-5.376-.264-9.965-5.152-9.92-10.53-.017-12.52-.009-25.05-.004-37.57C-.078 5.904 3.527 1.35 8.236.299z" fill="url(#b)"/>
  <path d="M16.79 11.98c2.411-.465 4.911-.22 7.353-.206 2.053.184 2.608 3.296.792 4.227-2.34.904-5.036-.214-7.38.635-1.883 1.06-1.082 3.551-1.24 5.31.148 1.216-.393 2.633-1.7 2.938-1.332.412-2.897-.64-2.88-2.066-.004-2.107-.263-4.289.332-6.342.71-2.156 2.536-3.89 4.723-4.495z" fill="url(#c)"/>
  <path d="M35.06 11.83c1.74-.21 3.506-.076 5.26-.09 3.547-.022 6.727 3.114 6.776 6.656.009 1.606.125 3.234-.09 4.835-.474 1.825-3.21 2.156-4.141.532-1.06-2.183.746-5.345-1.44-7.035-2.116-1.006-4.665.183-6.816-.707-1.705-.877-1.4-3.699.451-4.19z" fill="url(#g)"/>
  <path d="M12.74 33.29c1.686-1.19 3.981.555 3.565 2.496.313 2.133-.94 5.193 1.346 6.521 2.241.653 4.66-.09 6.937.412 1.91.643 1.914 3.684-.022 4.306-1.901.31-3.851.081-5.774.144-2.786.08-5.488-1.691-6.54-4.262-.845-1.96-.474-4.133-.563-6.2 0-1.19-.152-2.714 1.051-3.416z" fill="url(#h)"/>
  <path d="M42.27 29.88c7.684-2.169 16.46 1.811 19.9 9.003 2.344 4.616 2.438 10.29.273 14.99a17.4 17.4 0 0 1-8.243 8.413c-4.437 2.16-9.808 2.281-14.33.318-3.896-1.646-7.125-4.79-8.896-8.632-2.044-4.343-2.147-9.536-.3-13.96 2.017-4.933 6.436-8.802 11.6-10.13z" fill="url(#i)"/>
 </g>
</svg>
