<svg xmlns="http://www.w3.org/2000/svg" style="isolation:isolate" viewBox="0 0 64 64"><linearGradient id="a" x1=".062" x2=".99" y1=".147" y2=".987" gradientTransform="matrix(47 0 0 43.63 .5 2.183)" gradientUnits="userSpaceOnUse" transform="translate(-.68 -.681)scale(1.362)"><stop offset="0" stop-color="#16b5e4"/><stop offset=".983" stop-color="#f520fa"/></linearGradient><path fill="url(#a)" fill-rule="evenodd" d="M26 36.32v2.5c0 1.655-1.344 3-3 3h-3c-1.656 0-3-1.076-3-2.4 0-.595.407-1.115 1.015-1.382A1.997 1.997 0 0 0 20 39.82a2 2 0 0 0 2-2v-9c0-1.06-.42-2.08-1.17-2.83s-1.77-1.17-2.83-1.17v-2a2 2 0 0 0-4 0v.657q-.701.28-1.433.491a7.2 7.2 0 0 1-1.869.265 3.95 3.95 0 0 1-2.115-.582 5.44 5.44 0 0 1-1.757-2.002 11.5 11.5 0 0 1-.796-1.777 18 18 0 0 1-.644-2.278 38.3 38.3 0 0 1-.786-6.088 11 11 0 0 1 .061-2.012c.051-.398.153-.786.296-1.164.072-.184.164-.368.266-.542.082-.143.173-.276.286-.388.102-.122.214-.225.337-.327q.2-.153.429-.276a3.6 3.6 0 0 1 1.205-.398 10.7 10.7 0 0 1 2.411-.092c.745.051 1.471.153 2.196.307q1.11.234 2.199.541a5.8 5.8 0 0 0-.514 2.411v3.064c0 .868.552 1.644 1.369 1.93a.9.9 0 0 1 .439.317c.153.255.225.552.235.858a2.044 2.044 0 0 0 4.086-.082 6 6 0 0 0-.899-3.023 5.3 5.3 0 0 0-1.144-1.195V9.566c0-.542.214-1.063.603-1.441a2 2 0 0 1 1.44-.602h8.171c.542 0 1.062.214 1.44.602.389.378.603.899.603 1.441v1.848a4.7 4.7 0 0 0-1.134 1.195 5.97 5.97 0 0 0-.909 3.044 2.044 2.044 0 0 0 4.086.082c.01-.317.092-.623.245-.899a.74.74 0 0 1 .378-.255 2.065 2.065 0 0 0 1.42-1.951V9.566c0-.839-.172-1.661-.514-2.411a38 38 0 0 1 1.729-.439 22 22 0 0 1 1.982-.337 13 13 0 0 1 2.431-.082c.47.031.929.123 1.369.276.214.071.418.163.623.276.153.091.296.194.439.306.122.112.245.245.347.378.123.163.225.327.307.511.183.378.316.776.377 1.195.113.745.154 1.501.103 2.267a38 38 0 0 1-.777 6.088 20 20 0 0 1-.653 2.278q-.324.92-.787 1.777a5.6 5.6 0 0 1-1.757 2.002 3.97 3.97 0 0 1-2.114.582 7.4 7.4 0 0 1-1.88-.265q-.729-.21-1.426-.489v-.659a2 2 0 0 0-4 0v2c-1.06 0-2.08.42-2.83 1.17a4 4 0 0 0-1.139 2.33H24.5a1 1 0 0 0 0 2H26v1h-1.5a1 1 0 0 0 0 2H26v1h-1.5a1 1 0 0 0 0 2H26m7.006-8.858c.43.171.87.313 1.317.438.95.266 1.941.409 2.932.419a8.08 8.08 0 0 0 4.402-1.246 9.64 9.64 0 0 0 3.126-3.504c.408-.756.756-1.542 1.042-2.349.316-.909.582-1.828.786-2.768.47-2.216.756-4.474.868-6.741a15 15 0 0 0-.153-3.095 8 8 0 0 0-.735-2.36 7.4 7.4 0 0 0-.726-1.185 7 7 0 0 0-.919-.991 7 7 0 0 0-1.123-.786 7 7 0 0 0-1.308-.592 9.4 9.4 0 0 0-2.431-.481 17.5 17.5 0 0 0-3.187.103c-.807.092-1.593.235-2.38.408q-1.503.337-2.962.797l-1.169.361a6.1 6.1 0 0 0-2.314-.453h-8.171c-.796 0-1.577.154-2.301.448l-1.152-.356a39 39 0 0 0-3.524-.909 20 20 0 0 0-2.717-.388 14.6 14.6 0 0 0-3.34.122 7.8 7.8 0 0 0-2.512.838 6.4 6.4 0 0 0-1.032.674 6.2 6.2 0 0 0-.889.827c-.275.317-.51.654-.725 1.001a7 7 0 0 0-.562 1.155 9.3 9.3 0 0 0-.541 2.145 16 16 0 0 0-.082 2.717 41.6 41.6 0 0 0 .868 6.741c.205.94.46 1.859.787 2.768.276.807.623 1.593 1.042 2.349a9.63 9.63 0 0 0 3.125 3.504 8.05 8.05 0 0 0 4.393 1.246 11.4 11.4 0 0 0 2.941-.419 13 13 0 0 0 1.314-.439q.084.098.176.189c.75.75 1.77 1.17 2.83 1.17v5h-1c-1.06 0-2.08.42-2.83 1.17S13 36.76 13 37.82v4c0 1.06.42 2.08 1.17 2.83s1.77 1.17 2.83 1.17h9c1.06 0 2.08-.42 2.83-1.17S30 42.88 30 41.82v-11c0-1.104.475-2 1.06-2 0 0 1.02-.42 1.77-1.17q.091-.092.176-.188" transform="translate(-.68 -.681)scale(1.362)"/></svg>