<svg version="1.1" viewBox="0 0 64 64" xmlns="http://www.w3.org/2000/svg">
 <defs>
  <linearGradient id="c" x1="1" x2="0" y1="1">
   <stop stop-color="#7f00ff" offset="0"/>
   <stop stop-color="#e100ff" offset="1"/>
  </linearGradient>
  <linearGradient id="a" x1="1" x2="0" y1=".5" y2=".5">
   <stop stop-color="#f00" offset="0"/>
   <stop stop-color="#ff006e" offset="1"/>
  </linearGradient>
  <linearGradient id="d" x1="1" x2="0" y1=".5" y2=".5">
   <stop stop-color="#05f" offset="0"/>
   <stop stop-color="#00ffd8" offset="1"/>
  </linearGradient>
  <linearGradient id="b" y1=".5" y2=".5">
   <stop stop-color="#01ff4d" offset="0"/>
   <stop stop-color="#2fff00" offset="1"/>
  </linearGradient>
 </defs>
 <path transform="translate(0) scale(1) translate(0) scale(1) translate(.0022 -6e-4) scale(1) translate(.001 -.001306)" d="m55.57 0.001953-47.15 0.001953a8.423 8.423 0 0 0-8.422 8.42v47.16a8.423 8.423 0 0 0 8.422 8.42h47.15a8.423 8.423 0 0 0 8.422-8.42v-11.8a3.369 3.369 0 0 0-6.736 0v8.438a5.055 5.055 0 0 1-5.053 5.055h-40.42a5.055 5.055 0 0 1-5.053-5.055v-40.42a5.055 5.055 0 0 1 5.053-5.053h40.42a5.055 5.055 0 0 1 5.053 5.053v8.42a3.369 3.369 0 0 0 6.736 0v-11.8a8.423 8.423 0 0 0-8.422-8.42zm4.824 28.56a3.369 3.369 0 0 0-3.133 3.424 3.369 3.369 0 0 0 6.736 0 3.369 3.369 0 0 0-3.602-3.424zm-7.527 20.2a2.527 2.527 0 0 0-2.35 2.596 2.527 2.527 0 0 0 5.053 0 2.527 2.527 0 0 0-2.703-2.596zm-41.93 0.06836c-1.394 0-2.525 1.133-2.525 2.527a2.526 2.526 0 0 0 5.053 0c0-1.396-1.133-2.527-2.527-2.527z" fill="url(#c)"/>
 <path transform="translate(0) scale(1) translate(0) scale(1) translate(.0022 -6e-4) scale(1) translate(.001 -.001306)" d="m46.5 14.5c-0.1643 0.0084-0.3377 0.05208-0.5039 0.1309-0.8863 0.4202-6.609 3.504-10.01 3.504v2e-3c-3.679 0-9.059-3.084-14.3-3.084s-8.379 3.084-8.924 3.504-0.8866 2.031 0.748 1.541c1.635-0.4902 2.997-0.4902 5.586-0.4902s8.798 3.643 15.06 3.643c6.267 0 11.51-4.976 12.67-6.727 0.9406-1.424 0.3976-2.06-0.3144-2.023z" fill="url(#a)"/>
 <path transform="translate(0) scale(1) translate(0) scale(1) translate(.0022 -6e-4) scale(1) translate(.001 -.001306) scale(1)" d="m55.26 27.62c-0.1643 0.0084-0.3377 0.05208-0.5039 0.1309-0.8863 0.4202-6.609 3.504-10.01 3.504v2e-3c-3.679 0-9.059-3.082-14.3-3.082-5.245 0-8.381 3.082-8.926 3.502-0.5449 0.4202-0.8847 2.031 0.75 1.541s2.997-0.4902 5.586-0.4902 8.798 3.644 15.06 3.644c6.267 0 11.51-4.976 12.67-6.727 0.9406-1.424 0.3976-2.062-0.3144-2.025z" fill="url(#b)"/>
 <path transform="translate(0) scale(1) translate(0) scale(1) translate(.0022 -6e-4) scale(1) translate(.001 -.001306)" d="m42.12 40.76c-0.1643 0.0084-0.3377 0.05208-0.5039 0.1309-0.8863 0.4202-6.609 3.504-10.01 3.504v2e-3c-3.679 0-9.059-3.084-14.3-3.084s-8.379 3.084-8.924 3.504c-0.5449 0.4202-0.8866 2.033 0.748 1.541 1.635-0.4902 2.999-0.4902 5.588-0.4902s8.796 3.643 15.06 3.643c6.267 0 11.51-4.976 12.67-6.727 0.9406-1.424 0.3976-2.06-0.3144-2.023z" fill="url(#d)"/>
</svg>
