<svg xmlns="http://www.w3.org/2000/svg" viewBox="0 0 64 64"><defs><linearGradient id="b" x2="0" y1="1"><stop offset="0" stop-color="#01ff01"/><stop offset="1" stop-color="#1bc100"/></linearGradient><linearGradient id="c" x2="0" y1="1"><stop offset="0" stop-color="#9717f2"/><stop offset="1" stop-color="#ff00b0"/></linearGradient><linearGradient id="a" x1="1" x2="0" y1="1"><stop offset="0" stop-color="#9c33c4"/><stop offset=".5" stop-color="#ff1950"/><stop offset="1" stop-color="#ff8724"/></linearGradient></defs><path fill="url(#a)" d="M2.1-.1C.9-.1-.099.9-.099 2.1v19.8c0 1.2 1 2.198 2.199 2.198h19.8c1.2 0 2.199-.999 2.199-2.199V2.1c0-1.2-1-2.199-2.199-2.199zm0 2.2h19.8v19.8H2.1z" transform="translate(.262 .263)scale(2.64474)"/><path fill="url(#a)" d="M3 3v2h2V3zm4 0v2h2V3zm4 0v2h2V3zm4 0v2h2V3zm4 0v2h2V3zM3 19v2h2v-2zm4 0v2h2v-2zm4 0v2h2v-2zm4 0v2h2v-2zm4 0v2h2v-2z" transform="translate(.262 .263)scale(2.645)"/><path fill="url(#b)" d="M5.467 9c-.961 1.594-.39 3.632 1.275 4.553s3.796.375 4.758-1.219z" transform="translate(.262 .263)scale(2.645)"/><path fill="url(#b)" d="m18.53 9-6.033 3.334c.962 1.594 3.092 2.139 4.758 1.219S19.492 10.594 18.53 9" transform="translate(.262 .263)scale(2.645)"/><path fill="url(#c)" d="M8.4 10.62c-.342.884-.194 2.003.58 3.344h.006c-.432-.979-.372-2.052.06-2.984z" transform="translate(.262 .263)scale(2.645)"/><path fill="url(#c)" d="m15.6 10.62-.646.357c.432.932.492 2.007.06 2.986h.006c.774-1.34.923-2.46.58-3.344z" transform="translate(.262 .263)scale(2.645)"/></svg>