<svg xmlns="http://www.w3.org/2000/svg" viewBox="0 0 64 64"><defs><linearGradient id="b" x1="1" x2="0" y1="1"><stop offset="0" stop-color="#ffe031"/><stop offset=".987" stop-color="#fc5252"/></linearGradient><linearGradient id="d" x2="0" y1="1"><stop offset="0" stop-color="#d300dc"/><stop offset="1" stop-color="#8700ff"/></linearGradient><linearGradient id="a" x2="0" y1="1"><stop offset="0" stop-color="#00efff"/><stop offset="1" stop-color="#07f"/></linearGradient></defs><path fill="url(#a)" d="M111.3 53.5v11.19c23.41 0 19.51-7.824 33.44-11.19-20.62 0-17.84 7.276-33.44 0m27.87 11.19L96.32 77.64c16.72 16.79 11.15 50.33 11.15 50.9l48.42-5.07s10.58-38.61-16.72-58.77zm16.72 5.598s14.5 20.68 13.93 48.1c13.37-.57 30.65-3.324 30.65-3.324s-26.2-31.36-44.59-44.78zm-94.75 44.78c-3.901 0-6.141 3.281-5.572 6.65l3.31 17.48c.563 2.233 2.831 3.852 5.049 3.852 2.787 0 4.989 1.752 6.098 4.551 0 0 3.178 11.1 7.838 18.89-5.005 3.913-12.26 5.072-16.72 5.072-2.218 0-3.9.044-5.572-.527v10.15c1.672 0 3.354.521 5.572.521 9.475 0 13.37-2.273 16.72-5.072 5.005 3.92 12.26 5.072 16.72 5.072s11.72-1.159 16.72-5.072c5.005 3.92 12.26 5.072 16.72 5.072s11.71-1.159 16.72-5.072c5.005 3.92 12.26 5.072 16.72 5.072s11.72-1.159 16.72-5.072c5.005 3.92 12.26 5.072 16.72 5.072 2.219 0 3.902-.655 5.574-1.22v-9.976c-1.672.571-3.355 1.053-5.574 1.053-4.458 0-11.72-1.158-16.72-5.076-1.003.79-2.174 1.36-3.311 1.924 16.53-12.4 25.08-42.15 25.08-42.15 1.115-2.228-.518-5.072-3.305-5.072l-20.2 3.326c-7.251 2.227-15.02 3.492-17.24 9.09-1.114 2.233-3.311 3.85-6.098 3.85h-45.11c-4.458 0-6.158-2.866-7.836-7.35l-2.264-6.643c-1.678-5.026-6.142-8.396-11.15-8.396zm16.72 68.21v.006c-5.005 3.912-12.26 5.07-16.72 5.07-2.218 0-3.9.046-5.572-.525v10.15c1.672 0 3.354.521 5.572.521 9.475 0 13.37-2.27 16.72-5.07 5.005 3.918 12.26 5.07 16.72 5.07s11.72-1.158 16.72-5.07c5.005 3.918 12.26 5.07 16.72 5.07s11.71-1.158 16.72-5.07c5.005 3.918 12.26 5.07 16.72 5.07s11.72-1.158 16.72-5.07c5.005 3.918 12.26 5.07 16.72 5.07 2.219 0 3.902-.656 5.574-1.22v-9.974c-1.672.571-3.355 1.051-5.574 1.051-4.458 0-11.72-1.158-16.72-5.076-5.005 3.918-12.26 5.076-16.72 5.076s-11.72-1.158-16.72-5.076c-5.005 3.918-12.26 5.076-16.72 5.076s-11.72-1.158-16.72-5.076c-5.005 3.918-12.26 5.076-16.72 5.076-4.458 0-11.71-1.158-16.72-5.076z" opacity=".2" transform="translate(-17.65 -16.882)scale(.3879)"/><path fill="url(#b)" d="m102.6 97.46-8.69 25.57h4.957l2.312-6.799h4.262q2.817 0 4.75-.67t3.676-2.219a14.4 14.4 0 0 0 2.496-2.844 14.7 14.7 0 0 0 1.666-3.418q1.543-4.54-.012-7.08t-5.869-2.539zm3.58 4.055h3.41q2.835-.001 3.584 1.174.748 1.173-.223 4.025-1.003 2.957-2.688 4.227-1.684 1.27-4.693 1.27h-3.025z" transform="translate(-17.65 -16.882)scale(.3879)"/><path fill="url(#b)" d="m126.7 90.65-8.688 25.57h4.922l4.977-14.65h3.947q1.897 0 2.365.695c.468.695.25 1.34-.187 2.627l-3.848 11.32h4.99l4.043-11.9q1.23-3.618-.07-5.244t-5.44-1.627h-4.4l2.312-6.8z" transform="translate(-17.65 -16.882)scale(.3879)"/><path fill="url(#b)" d="m145.8 97.46-8.691 25.57h4.959l2.31-6.799h4.262q2.818 0 4.75-.67 1.933-.67 3.676-2.219a14.3 14.3 0 0 0 2.496-2.844 14.7 14.7 0 0 0 1.666-3.418q1.542-4.54-.012-7.08c-1.554-2.54-2.992-2.539-5.867-2.539zm3.58 4.055h3.408q2.834-.001 3.584 1.174.749 1.173-.22 4.025-1.005 2.957-2.689 4.227t-4.693 1.27h-3.027z" transform="translate(-17.65 -16.882)scale(.3879)"/><path fill="url(#d)" d="m54.19 133-8.69 25.57h5.478l6.301-20.12-.074 20.12h5.705l13.33-19.92-7.203 19.92h5.272L82.997 133h-7.861l-13.19 19.62.144-19.62z" transform="translate(-17.65 -16.882)scale(.3879)"/><path fill="url(#d)" d="m85.33 139.8-3.932 11.57q-1.317 3.879-.09 5.539c1.227 1.66 2.63 1.662 5.436 1.662h4.383l-.105.313q-.445 1.305-1.443 1.992-.998.685-2.424.685h-8.871l-1.295 3.81h9.723q3.582 0 5.932-1.793 2.348-1.792 3.613-5.514l6.207-18.26h-4.957l-4.973 14.63h-3.982q-2.018 0-2.428-.66-.41-.663.31-2.783l3.801-11.19z" transform="translate(-17.65 -16.882)scale(.3879)"/><path fill="url(#d)" d="m117 133-19.51 25.57h5.705l4.348-6.09h11.12l.28 6.09h5.981L122.707 133zm.918 5.078.533 9.844h-7.617z" transform="translate(-17.65 -16.882)scale(.3879)"/><path fill="url(#d)" d="m147.4 133-2.312 6.799h-4.244q-2.8 0-4.74.67-1.942.67-3.686 2.219a14.3 14.3 0 0 0-2.496 2.844 14.7 14.7 0 0 0-1.666 3.418q-1.542 4.54.012 7.08t5.867 2.539h9.516l8.689-25.57zm-6.682 10.85h2.992l-3.635 10.7h-3.393q-2.817.001-3.568-1.189-.752-1.193.217-4.045 1-2.94 2.689-4.201c1.127-.84 2.69-1.262 4.697-1.262z" transform="translate(-17.65 -16.882)scale(.3879)"/><path fill="url(#d)" d="m154.3 139.8-6.377 18.77h4.99l4.977-14.65h5.793l-4.977 14.65h5.061l4.977-14.65h2.783q1.95 0 2.352.662.4.66-.303 2.728l-3.824 11.26h4.99l4.043-11.9q1.237-3.636-.039-5.252-1.278-1.618-5.418-1.619z" transform="translate(-17.65 -16.882)scale(.3879)"/><path fill="url(#d)" d="m187.9 133-1.584 4.66h5.199l1.584-4.66zm-2.312 6.799-6.379 18.77h5.201l6.379-18.77z" transform="translate(-17.65 -16.882)scale(.3879)"/><path fill="url(#d)" d="m195 139.8-6.377 18.77h4.955l4.977-14.65h3.984q1.965 0 2.404.627.44.626-.275 2.73l-3.836 11.29h4.957l4.043-11.9q1.254-3.687-.016-5.279-1.268-1.592-5.494-1.592z" transform="translate(-17.65 -16.882)scale(.3879)"/></svg>