<svg xmlns="http://www.w3.org/2000/svg" viewBox="0 0 64 64"><defs><linearGradient id="c" x2="0" y1="1"><stop offset="0" stop-color="#0f9"/><stop offset="1" stop-color="#14dc57"/></linearGradient><linearGradient id="a" x2="0" y2="1"><stop offset="0" stop-color="#01ff01"/><stop offset="1" stop-color="#1bc100"/></linearGradient></defs><path fill="url(#a)" d="M31.67-.002c-9.619 0-15.94 7.854-15.94 17.54v4.703c0 .786.633 1.422 1.414 1.422h3.758c.78 0 .746-.636.746-1.422v-4.992c0-6.064 4.07-11.34 10.09-11.34h.531c6.022 0 10.08 5.272 10.08 11.34v4.992c0 .786-.018 1.422.762 1.422h3.756a1.417 1.417 0 0 0 1.398-1.422v-4.703c0-9.684-6.314-17.54-15.93-17.54z" transform="translate(0 .002)"/><path fill="url(#a)" d="M37.17 11.83a2.218 2.218 0 1 0 2.213 2.219 2.22 2.22 0 0 0-2.213-2.219m-10.47.006a2.218 2.218 0 0 0 .11 4.432 2.217 2.217 0 0 0 2.218-2.22 2.22 2.22 0 0 0-2.328-2.212zm8.434 5.109a1 1 0 0 0-.068.006.52.52 0 0 0-.293.133 4.156 4.156 0 0 1-5.564 0 .52.52 0 0 0-.705.761 5.09 5.09 0 0 0 6.973 0 .52.52 0 0 0-.34-.9z" transform="translate(0 .002)"/><path fill="url(#c)" d="m22.92 19.62-8.082.002c-3.893.001-7.108 3.201-7.152 7.088v.006l-.006.006v.012c-.373.997-.826 1.98-.826 3.055v22.39c.001 3.449 2.227 6.238 5.242 7.723 1.193 2.15 3.138 4.092 6.17 4.092h4.988c2.534 0 4.102-1.393 5.297-2.96h6.383c1.194 1.567 2.76 2.96 5.293 2.96h4.992c2.967-.002 4.87-1.864 6.074-3.904 3.316-1.348 5.85-4.216 5.85-7.91V29.79c0-1.043-.433-2.001-.785-2.975v-.041h-.006v-.006l-.012-.018v-.006h-.006v-.023l-.006-.006v-.006c-.048-3.881-3.242-7.088-7.135-7.088H41.12c-1.736-.002-2.919.705-3.906 1.478h-10.39c-.986-.773-2.175-1.478-3.906-1.478zm-8.082 5.918h8.049l-.006.006h-.006v.006l.012.012c.076.059.506.236.89.613a2.96 2.96 0 0 0 2.069.842h12.34a2.96 2.96 0 0 0 2.068-.844c.385-.377.82-.558.896-.617v-.006h.006v-.006h-.012v-.006h8.05c.72 0 1.247.52 1.247 1.248v.027a2.96 2.96 0 0 0 .387 1.47c.261.456.399.974.398 1.501V52.17a3.02 3.02 0 0 1-2.543 3.01 2.96 2.96 0 0 0-2.178 1.641c-.328.684-1.2 1.221-1.287 1.254h-4.982v-.011l-.005-.006c-.067-.096-.93-.638-1.277-1.322a2.96 2.96 0 0 0-2.633-1.617h-9.158a2.96 2.96 0 0 0-2.635 1.617c-.349.685-1.215 1.234-1.283 1.33l-.006.006v.005h-4.986c-.118-.035-.995-.609-1.301-1.3a2.96 2.96 0 0 0-1.93-1.659 3.03 3.03 0 0 1-2.252-2.94V29.791c0-.54.143-1.067.416-1.531a2.96 2.96 0 0 0 .41-1.475c.005-.723.527-1.242 1.242-1.242z" transform="translate(0 .002)"/><path fill="url(#c)" d="M32.17 31.4c-2.072-.07-4.092 1.414-4.574 3.447-.493 1.82.398 3.822 1.945 4.838.383.38.109.93.094 1.391-.284 2.165-.595 4.326-.862 6.492-.05.977.89 1.804 1.848 1.686 1.067-.014 2.136.027 3.201-.023.936-.13 1.57-1.142 1.334-2.045-.311-2.345-.64-4.69-.94-7.035.115-.73 1.057-.913 1.362-1.566 1.347-1.734 1.104-4.414-.484-5.914-.775-.764-1.833-1.24-2.924-1.27z" transform="translate(0 .002)"/></svg>