<svg xmlns="http://www.w3.org/2000/svg" style="isolation:isolate" viewBox="0 0 64 64"><linearGradient id="a" x1="1.267" x2=".018" y1=".606" y2=".612" gradientTransform="matrix(43.4 0 0 44.88 2.247 1.554)" gradientUnits="userSpaceOnUse" transform="translate(-2.151 -2.217)scale(1.426)"><stop offset="0" stop-color="#f9d423"/><stop offset=".516" stop-color="#ff4e50"/><stop offset=".991" stop-color="#8a2387"/></linearGradient><path fill="url(#a)" fill-rule="evenodd" d="M18.21 15.87c.96-.976 2.008-1.316 2.975-1.375 1.343-.045 3.099.265 4.014.375a7.5 7.5 0 0 1 2.026.551 3.64 3.64 0 0 0 1.826-.488l.002-.002q.196-.116.386-.27l.002-.002q.192-.155.369-.355a1.6 1.6 0 0 1-.205-.41v-.002a1.6 1.6 0 0 1-.078-.448v-.002c-.009-.305.07-.616.246-.894a1.58 1.58 0 0 1 1.786-.68h.001a1.62 1.62 0 0 1 .86.613q.18.257.252.571a1.58 1.58 0 0 1-.209 1.197 1.584 1.584 0 0 1-1.807.67 4.1 4.1 0 0 1-.996.863c-.087.054-.174.091-.262.137-.086.045-.174.099-.259.137a5 5 0 0 1-.504.189c.525.403.988 1.188 1.388 1.748q.155-.035.313-.041c.158-.006.209.003.312.02h.002a1.6 1.6 0 0 1 .588.216 1.6 1.6 0 0 1 .721 1.608 1.588 1.588 0 0 1-2.676.885 1.6 1.6 0 0 1-.447-.795 1.6 1.6 0 0 1-.039-.303v-.002a1.7 1.7 0 0 1 .019-.305v-.002a1.6 1.6 0 0 1 .325-.728c-.296-.405-.632-1.061-1.006-1.367a5.5 5.5 0 0 0-1.233-.764l-.004-.002a6.3 6.3 0 0 0-1.211-.406c-1.629-.256-2.674-.605-4.457-.469-.766.056-1.567.336-2.309 1.097l2.575 2.774-2.593 14.09-3.842-2.752-4.565 1.171 2.592-14.09 4.778-2.329zm-5.768-3.371a2.1 2.1 0 0 1-2.934-.477 2.106 2.106 0 0 1 .488-2.934l12.06-7.09c.998-.587 2.624-.594 3.627-.014l18.14 10.47c1.004.579 1.818 1.99 1.818 3.148v18.96c0 1.158-.817 2.565-1.823 3.139l-14.86 8.477c-1.006.574-2.022.121-2.267-1.011l-.161-.746c-.245-1.132.369-2.524 1.371-3.106l13.54-7.866v-17.52l-17.33-10-11.68 6.569zm5.763 27.6a2.11 2.11 0 0 1 .714 2.886 2.1 2.1 0 0 1-2.876.714l-11.97-6.671c-1.011-.564-1.833-1.962-1.833-3.121v-15.14c0-1.158.94-2.115 2.099-2.135a2.056 2.056 0 0 1 2.099 2.062v14.95l11.76 6.454zm12.91-27.25a.556.556 0 0 1 .537.429v.006a.537.537 0 0 1-.416.645.55.55 0 0 1-.414-.069l-.025-.015a.543.543 0 0 1-.145-.741.55.55 0 0 1 .463-.255m5.486 3.203a.549.549 0 0 1 .465.842.56.56 0 0 1-.758.169l-.025-.015a.545.545 0 0 1-.144-.74v-.002a.54.54 0 0 1 .462-.254m-19.6 2.008c.036.009.079.028.107.033a.93.93 0 0 1 .742 1.082.937.937 0 0 1-1.082.742.927.927 0 0 1 .168-1.84c0-.029.029-.027.065-.017m13.38.927c.104 0 .206.028.293.082a.6.6 0 0 1 .156.153.551.551 0 1 1-.987.435v-.002a.55.55 0 0 1 .247-.586.55.55 0 0 1 .291-.082m6.015 3.866a.549.549 0 0 1 .463.841.556.556 0 0 1-.756.17l-.025-.015a.55.55 0 0 1-.147-.741v-.002a.55.55 0 0 1 .465-.253m-6.808 5.302a.55.55 0 1 1-.005 1.1.55.55 0 0 1 .005-1.1m6.808 1.237a.549.549 0 0 1 .463.841.556.556 0 0 1-.756.17l-.025-.015a.55.55 0 0 1-.147-.741v-.002a.55.55 0 0 1 .465-.253m-3.963 3.578c.161 0 .311.071.416.193a.54.54 0 0 1 .131.399.543.543 0 0 1-.547.507.55.55 0 0 1-.418-.191.55.55 0 0 1 .418-.908m-2.845-5.858c-.558 0-1.084.299-1.37.778a1.58 1.58 0 0 0-.175 1.205c.091.362.302.672.599.89-1.053 2.397-2.997 3.402-3.867 3.819a.5.5 0 0 0-.094.045c-.308.138-.561.182-.693.209v1.041c.072-.008.519-.031 1.133-.311 1.39-.353 1.778-.093 2.185.184.266.179.595.405 1.108.431q.04.003.08.002c.548 0 2.345-.566 2.826-.748a1.593 1.593 0 0 0 2.148.071 1.58 1.58 0 0 0 .551-1.086 1.58 1.58 0 0 0-.379-1.157 1.587 1.587 0 0 0-2.244-.173 1.59 1.59 0 0 0-.541 1.404c-.506.182-2.108.655-2.387.646-.213-.011-.338-.089-.578-.252-.304-.206-.227-.393-.677-.48.763-.718 1.762-1.777 2.431-3.338a1.6 1.6 0 0 0 1.311-.772 1.592 1.592 0 0 0-1.367-2.408m7.007-12.1c-.549 0-1.052.276-1.343.74a1.59 1.59 0 0 0 .265 2.02c.006.003.012.011.018.015-.351 1.175-.498 3.385-.209 4.449q-.057.049-.109.104a1.5 1.5 0 0 0-.35.623c-.877.127-1.353.135-1.775.41-.53.344-1.029.669-2.504.693-.511-.059-1.525-.047-1.977-.031a13 13 0 0 1-1.26.002c-.347-.019-.548-.23-.9-.631-.469-.534-1.124-1.209-2.463-1.306v1.041c.857.078 1.274.49 1.68.953.386.44.826.939 1.627.982.55.03.977.017 1.353.002.648-.022 1.758-.042 2.643.178.678.167 3.146 2.514 3.842 3.723q-.045.055-.082.113a1.585 1.585 0 0 0 .419 2.144c.019.015.04.028.075.051.255.162.548.246.849.246.55 0 1.055-.279 1.346-.742a1.585 1.585 0 0 0-.496-2.195 1.6 1.6 0 0 0-1.25-.196c-.666-1.088-2.25-2.718-3.43-3.585.472-.164.794-.373 1.096-.569.371-.241.68-.138 1.264-.236.11.269.295.511.548.689.019.015.038.026.073.049a1.589 1.589 0 0 0 2.404-1.691 1.59 1.59 0 0 0-1.553-1.244l-.097.003c-.185-.82-.04-2.72.209-3.628q.043.004.087.005c.551 0 1.053-.277 1.344-.74a1.58 1.58 0 0 0-.494-2.195 1.6 1.6 0 0 0-.85-.246" transform="translate(-2.151 -2.217)scale(1.426)"/></svg>