<svg xmlns="http://www.w3.org/2000/svg" viewBox="0 0 64 64"><defs><linearGradient id="a" x1="16.96" x2="56.43" y1="52.21" y2="7.598" gradientTransform="scale(.964 1.037)" gradientUnits="userSpaceOnUse"><stop offset="0" stop-color="#fe3661"/><stop offset=".331" stop-color="#c723c7"/><stop offset=".55" stop-color="#aa35d6"/><stop offset="1" stop-color="#1ea3fd"/></linearGradient></defs><path fill="url(#a)" d="M30.44-3c-5.362 0-9.658 4.045-10.48 9.19a28 28 0 0 0-3.629 2.092c-4.862-1.864-10.51-.17-13.19 4.475l-1.56 2.707c-2.655 4.597-1.351 10.27 2.604 13.57-.062.722-.158 1.439-.164 2.164v.049c.006.724.102 1.442.164 2.164-3.953 3.297-5.261 8.97-2.604 13.57l1.56 2.707c2.684 4.647 8.341 6.345 13.21 4.469 1.046.715 2.148 1.33 3.281 1.896v.146c0 5.392 5.003 9.244 10.49 9.244h3.744c5.494 0 10.49-3.854 10.49-9.244v-.132a28 28 0 0 0 3.305-1.902c4.861 1.862 10.51.166 13.19-4.477l1.56-2.707h-.006c2.656-4.598 1.352-10.27-2.604-13.57.062-.722.158-1.44.164-2.164v-.05c-.006-.724-.102-1.441-.164-2.163 3.954-3.297 5.261-8.97 2.604-13.57h.006l-1.56-2.707c-2.683-4.65-8.349-6.345-13.22-4.47a28 28 0 0 0-3.609-2.091C43.208 1.048 38.911-3 33.542-3zm0 6h3.123c2.711.003 4.799 2.093 4.799 4.805v.281a3 3 0 0 0 1.871 2.78 22 22 0 0 1 5.262 3.042 3 3 0 0 0 3.367.227l.25-.147L49.1 14c2.35-1.358 5.197-.596 6.555 1.756l1.56 2.707c1.358 2.349.594 5.206-1.756 6.562l-.244.139a3 3 0 0 0-1.477 3.043c.148 1 .223 2.006.233 3.014a22 22 0 0 1-.233 3.012 3 3 0 0 0 1.477 3.043l.256.146c2.343 1.357 3.1 4.208 1.744 6.555v.006l-1.56 2.701c-1.355 2.35-4.205 3.113-6.555 1.756v.006l-.232-.133a3 3 0 0 0-3.348.225 22 22 0 0 1-5.281 3.043 3 3 0 0 0-1.877 2.78v1.835c0 1.528-1.677 3.244-4.488 3.244H30.13c-2.365 0-3.936-1.22-4.371-2.518v-14.95c1.843 1.073 3.959 1.732 6.244 1.732 6.896 0 12.49-5.592 12.49-12.49s-5.59-12.49-12.49-12.49v.002c-6.896 0-12.49 5.592-12.49 12.49v18.06a22 22 0 0 1-1.014-.746 3 3 0 0 0-3.365-.227l-.233.135c-2.349 1.358-5.204.593-6.56-1.756l-1.56-2.701v-.006c-1.358-2.35-.593-5.204 1.756-6.56l.244-.14a3 3 0 0 0 1.482-3.044c-.147-1-.229-2.004-.238-3.012q.015-1.516.238-3.014a3 3 0 0 0-1.482-3.043l-.244-.138c-2.349-1.355-3.113-4.213-1.756-6.562l1.56-2.707c1.354-2.347 4.206-3.108 6.555-1.756l.233.134a3 3 0 0 0 3.348-.232 22 22 0 0 1 5.28-3.043 3 3 0 0 0 1.878-2.779v-.275c0-2.714 2.09-4.805 4.805-4.805zm1.562 21.98c3.45 0 6.242 2.796 6.242 6.244a6.243 6.243 0 1 1-12.486 0 6.245 6.245 0 0 1 6.244-6.244" transform="translate(2.084 2.805)scale(.9351)"/></svg>