<svg xmlns="http://www.w3.org/2000/svg" style="isolation:isolate" viewBox="0 0 64 64"><linearGradient id="a" x1=".672" x2=".422" y1=".021" y2=".96" gradientTransform="matrix(46.5 0 0 43 .75 1.5)" gradientUnits="userSpaceOnUse" transform="translate(-1.032 .333)scale(1.376)"><stop offset="0" stop-color="#1a6cff"/><stop offset="1" stop-color="#c522ff"/></linearGradient><path fill="url(#a)" fill-rule="evenodd" d="M43.29 11V9.634a4.65 4.65 0 0 0-4.645-4.645h-3.242L38.407 8l-2.994 3zM4.7 11V9.634a4.65 4.65 0 0 1 4.645-4.645h2.218L14.583 8l-3.009 3zm9.709 0 2.994-3-3.004-3.011h8.164L25.583 8l-3.009 3zm11 0 2.994-3-3.004-3.011h7.164L35.583 8l-3.009 3zm17.88 3v22.37a4.65 4.65 0 0 1-4.645 4.645h-6.911c-.525 0-1.029.183-1.405.514a1.65 1.65 0 0 0-.574 1.23c0 .463.208.908.574 1.23.376.332.88.515 1.405.515h9.01a6.506 6.506 0 0 0 6.503-6.503V8.011a6.506 6.506 0 0 0-6.503-6.503H7.253A6.506 6.506 0 0 0 .75 8.011v29.99a6.506 6.506 0 0 0 6.503 6.503h9.01c.525 0 1.029-.183 1.405-.515.366-.322.574-.767.574-1.23s-.208-.907-.574-1.23a2.13 2.13 0 0 0-1.405-.514H9.352a4.65 4.65 0 0 1-4.645-4.645V14h38.59zm-28.35 19.13c0-.711.282-1.396.788-1.897a2.67 2.67 0 0 1 1.896-.787c.712 0 1.396.282 1.897.787.506.501.788 1.186.788 1.897s-.282 1.396-.788 1.897a2.67 2.67 0 0 1-1.897.787 2.67 2.67 0 0 1-1.896-.787 2.67 2.67 0 0 1-.788-1.897m10.74 0c0-.711.282-1.396.788-1.897a2.67 2.67 0 0 1 1.897-.787c.711 0 1.395.282 1.896.787.506.501.788 1.186.788 1.897s-.282 1.396-.788 1.897a2.67 2.67 0 0 1-1.896.787 2.67 2.67 0 0 1-1.897-.787 2.67 2.67 0 0 1-.788-1.897m-2.29-10.46-1.311-2.626-.005-.004a1.3 1.3 0 0 0-.456-.524.9.9 0 0 0-.51-.165.65.65 0 0 0-.273.062.64.64 0 0 0-.273.269 1 1 0 0 0-.116.488c0 .21.049.42.148.612v.005l1.785 3.57zm.818-1.364 1.092-1.973c.237-.398.568-.729.962-.966.38-.233.814-.358 1.257-.363a2 2 0 0 1 .922.21c.362.184.662.475.854.837.188.345.282.734.278 1.127 0 .421-.103.833-.291 1.208l-.989 1.978a.67.67 0 1 1-1.199-.6l.989-1.977v-.005c.098-.192.147-.402.147-.612a1 1 0 0 0-.116-.488.7.7 0 0 0-.273-.269.7.7 0 0 0-.309-.067 1.06 1.06 0 0 0-.568.166c-.21.125-.384.3-.51.51l-1.534 2.707-2.188 3.644c-.254.423-.64.408-.861-.034l-2.476-4.953a2.7 2.7 0 0 1-.291-1.208 2.3 2.3 0 0 1 .277-1.127c.193-.362.488-.653.855-.837.273-.138.577-.21.885-.205.448.004.886.143 1.258.398.384.264.693.622.899 1.038zm-.816 9.644-1.765 2.648a4 4 0 0 1-1.154 2.377 4 4 0 0 1-2.846 1.182 4 4 0 0 1-2.845-1.182c-.756-.751-1.181-1.776-1.181-2.845s.425-2.094 1.181-2.845a4 4 0 0 1 2.845-1.181c1.07 0 2.094.425 2.846 1.181.379.377.675.823.876 1.309l1.462-2.193-.007-.02.027-.01 2.961-4.441a.672.672 0 0 1 1.119.742l-2.603 3.904.575 1.533q.262-.45.636-.824a4 4 0 0 1 2.846-1.181c1.069 0 2.093.425 2.845 1.181.756.751 1.181 1.776 1.181 2.845s-.425 2.094-1.181 2.845a4 4 0 0 1-2.845 1.182 4 4 0 0 1-2.846-1.182 4 4 0 0 1-1.162-2.452z" transform="translate(-1.032 .333)scale(1.376)"/></svg>