<svg version="1.1" viewBox="0 0 64 64" xmlns="http://www.w3.org/2000/svg">
 <defs>
  <linearGradient id="a" x1="1" x2="0" y1=".5" y2=".5">
   <stop stop-color="#5433ff" offset="0"/>
   <stop stop-color="#20bdff" offset=".5"/>
   <stop stop-color="#a5fecb" offset="1"/>
  </linearGradient>
  <linearGradient id="b" y1="1">
   <stop stop-color="#3dd425" offset="0"/>
   <stop stop-color="#59f07c" offset="1"/>
  </linearGradient>
 </defs>
 <path transform="translate(0) scale(1)" d="m32 0c-17.68 0-32 14.32-32 32s14.32 32 32 32 32-14.32 32-32-14.32-32-32-32zm2.549 5.936c4.434 0.4204 8.531 1.928 12.02 4.256 0.11 0.01774 0.2206 0.04016 0.3301 0.06836a1 1 0 0 0 2e-3 0l4.037 1.043h2e-3c1.553 0.3998 2.219 2.337 1.24 3.607l-0.1348 0.1738c0.06598 0.07832 0.1322 0.1572 0.1973 0.2363 6.2e-5 0.0036-1.54e-4 0.0081 0 0.01172 0.02248 0.164 0.1986 0.3267 0.2383 0.5488 0.02116 0.1164-0.05554 0.3675 0 0.4746 0.1232 0.2394 0.4003 0.1654 0.6602 0.123 0.2811 0.384 0.5523 0.776 0.8125 1.176-0.07037 0.1675-0.1658 0.3375-0.248 0.4629-0.2962 0.4496-0.6966 0.4677-1.121 0.707-0.3531 0.201-0.5053 0.535-0.7129 0.8828-0.2248 0.3769-0.366 0.6075-0.2734 1.152-0.3028 0.6017-0.7625 0.9702-1.391 1.256-0.1851 0.08463-0.4388 0.1134-0.6094 0.2363-0.1349 0.09786-0.2107 0.3632-0.4023 0.5801-0.238 0.2645-0.4909 0.3699-0.6152 0.5723-0.09653 0.156-0.1292 0.4714-0.2363 0.6816-0.1441 0.2843-0.4515 0.4246-0.6406 0.7129-0.08728 0.1336-0.1476 0.3997-0.2441 0.5742-0.2142 0.3914-0.5807 0.6738-0.541 1.018 0.03967 0.3319 0.4169 0.392 0.4434 0.6816 4e-3 0.1626-0.1114 0.261-0.1035 0.4394 4e-3 0.2592 0.1813 0.441 0.2012 0.6406 0.05025 0.5038-0.1685 0.7089-0.2637 1.053-0.04496 0.164-0.02863 0.3483-0.07227 0.4766-0.0016 0.0048-0.0041 0.0089-0.0059 0.01367l4.977 5.969a1 1 0 0 0 2e-3 2e-3c0.3117 0.3751 0.4835 0.8156 0.5293 1.264 0.3184-0.05658 0.6484-0.3024 1.008-0.3672 0.4007-0.07141 0.9235-0.1107 1.328-0.06836 0.3094 0.03041 0.6266 0.2157 0.9492 0.2012 0.3398-0.02116 0.7278-0.2741 1.115-0.4434 0.2429-0.1059 0.5326-0.2192 0.8477-0.3164-1.807 11.88-11.48 21.03-23.61 22.05 0.1228-0.1625 0.2284-0.3095 0.3144-0.459 0.1005-0.6189-0.2444-1.05-0.09766-1.592 0.1613-0.6096 1.002-0.9802 1.592-1.254 0.2023-0.09521 0.4126-0.2523 0.5781-0.3106 0.4086-0.1415 0.9181-0.05911 1.291-0.1953 0.6347-0.2327 0.6996-0.9149 1.012-1.494 0.1481-0.2737 0.344-0.5523 0.373-0.748 0.02513-0.1746-0.06488-0.3393-0.03711-0.5469 0.03174-0.205 0.2166-0.3793 0.2734-0.6055 0.07538-0.2936 0.1035-0.7248 0.1035-1.053 0-0.2684-0.1209-0.5024-0.1328-0.7441-0.02849-0.5741 0.1153-0.8152 0.3086-1.047l-2.037-1.455v4e-3h-2e-3v2e-3h-2e-3c-0.03983 0.01378-0.245-0.0041-0.2793-0.01367l-2e-3 -2e-3h-2e-3v-4e-3c-0.1269 0.06121-0.2593 0.1248-0.4004 0.1875a1 1 0 0 0-2e-3 2e-3c-0.01825 0.0081-0.2512 0.3005-0.2891 0.3281l-2e-3 2e-3h-4e-3l-1.154 5.367a1 1 0 0 1-2e-3 0.0078c-0.07397 0.3318-0.2103 0.674-0.4902 0.9805s-0.7513 0.5469-1.234 0.5469h-4.467c-0.9024 0-1.665-0.716-1.74-1.602v-0.0078l-1.135-5.106h-4e-3c-0.0372-0.02415-0.2696-0.3027-0.2695-0.3027-0.08422-0.03357-0.1722-0.06824-0.2617-0.1055-0.01064-0.0044-0.3723 0.03018-0.416 0.02148h-4e-3v-2e-3l-4.416 2.812c-0.6789 0.5783-1.73 0.5477-2.369-0.0918l-3.162-3.162c-0.3431-0.3431-0.5041-0.8492-0.4844-1.264s0.1652-0.7524 0.3477-1.039l2.863-4.492h-2e-3c-0.0072-0.03109 0.02835-0.4267 0.03125-0.4199a1 1 0 0 0 0-2e-3c-0.02662-0.06368-0.05906-0.1361-0.0918-0.2168-0.0045-0.01108-0.2815-0.2412-0.3027-0.2773l-2e-3 -2e-3v-2e-3l-2.908-0.6465c-0.1385 0.105-0.2876 0.218-0.4043 0.373-0.1217 0.16-0.1822 0.398-0.2734 0.5117-0.1666 0.201-0.4128 0.2517-0.5371 0.4394-0.07009 0.1045-0.1383 0.3331-0.207 0.4746-0.2036 0.4311-0.4761 0.7316-0.3047 1.25 0.07154 0.2129 0.4069 0.3581 0.4082 0.6094 0 0.2949-0.6271 0.5608-0.6758 0.8848-0.03597 0.2407 0.191 0.6671 0.2676 0.9805 0.05567 0.2367 0.5076 0.3856 0.6465 0.543 0.238 0.2684 0.4263 0.6504 0.6445 0.9863 0.4298 0.6599 0.7644 1.463 1.184 2.102 0.2208 0.3359 0.5335 0.6388 0.6816 0.9863 0.07538 0.1746 0.066 0.3843 0.1348 0.543 0.242 0.5461 1.314 1.118 1.865 1.391 0.2592 0.1243 0.5426 0.1679 0.7793 0.2988 0.3597 0.201 1.075 0.74 1.256 1.055 0.1626 0.283 0.2618 0.969 0.3398 1.42 0.1058 0.5951-0.0018 1.055 0.03125 1.699 0.02116 0.3491 0.1347 0.6997 0.1387 1.049 6.26e-4 0.05925-0.01457 0.111-0.03125 0.1621-9.045-4.106-15.28-13.19-15.28-23.84 0-0.7552 0.03039-1.502 0.0918-2.24 0.5366 0.2759 0.8792 1.005 1.414 1.272 0.1689 0.08331 0.3861 0.08584 0.6035 0.1348 0.1756 0.03967 0.3115 0.1131 0.4805 0.1699 0.3586 0.1217 0.797 0.11 1.084 0.2383 0.4322 0.1917 0.7495 1.004 1.121 1.223 0.02169 0.2182-0.04492 0.5092 0.03125 0.6719 0.1716 0.2326 0.4124 0.1897 0.6934 0.332v-1.896c0-0.4854 0.2437-0.9572 0.5508-1.236 0.1539-0.1399 0.3167-0.2442 0.4824-0.3223-0.1582-0.2778-0.537-0.4738-0.7441-0.5117-0.6337-0.1164-1.51 0.2538-2.236-0.03711-0.1388-0.2301 0.1604-0.3918 0.2383-0.6152 0.04404-0.127 0.02039-0.2934 0.06641-0.4336 0.08053-0.2156 0.3069-0.3845 0.4082-0.6133 0.07551-0.1746 0.09402-0.4238 0.1699-0.6406 0.08847-0.2473 0.2504-0.4066 0.2695-0.5801 0.02513-0.2274-0.05936-0.4938-0.2383-0.6445-0.5633 0.03042-0.9358 0.05703-1.256 0.2012-0.7336 0.3346-0.5891 1.324-1.322 1.559-0.2535 0.08066-0.6035 0.08773-0.8828 0.1406-0.2392 0.04335-0.5281 0.1734-0.7754 0.1699 0.3498-2.545 1.058-4.967 2.076-7.217 0.2665 0.01855 0.5868 0.08099 0.8144 0.1289 0.2552 0.05289 0.4608 0.225 0.6816 0.2422 0.6268 0.04761 0.7795-0.4405 1.291-0.7129 0.5282 0.07405 0.8764-0.09391 1.354-0.04102 0.3253 0.03703 0.5628 0.3825 0.8164 0.4023 0.2132 0.02116 0.3972-0.1958 0.6035-0.1641 0.201 0.03041 0.5448 0.4663 0.5781 0.7109 0.04099 0.3055-0.226 0.5801-0.1387 0.916 0.2782 0.2828 0.7542 0.3688 1.174 0.5098-0.0569-0.1655-0.09408-0.3456-0.1035-0.543-0.01508-0.3156 0.07623-0.6837 0.2715-0.9922-0.04013-0.2013-0.1161-0.3896-0.1172-0.5664-4e-3 -0.964 0.7791-1.416 1.426-1.797 0.2803-0.1666 0.5024-0.4595 0.7441-0.5801 0.3438-0.1732 0.5985-0.2111 0.8828-0.3711 0.5144-0.2883 0.9574-0.521 1.359-0.8477 0.1851-0.4377 0.01475-1.025 0.0293-1.457 0.1864-0.1137 0.3459 0.04712 0.543 0.03125 0.3108-0.06347 0.3358-0.4954 0.5117-0.6699 0.1031-0.1005 0.3848-0.1763 0.5117-0.2754 0.3081-0.2433 0.406-0.6084 0.6758-0.7129 0.09653-0.03967 0.3245-0.02541 0.4766-0.06641 0.201-0.05289 0.4839-0.2958 0.8106-0.4082 0.2129-0.07405 0.6973-0.08793 0.7793-0.1699 0.1005-0.1018 0.0027-0.3898 0.03711-0.543 0.1653-0.7654 1.317-0.9257 1.998-1.184 0.4774-0.1812 0.9694-0.5142 1.494-0.4121-0.1031 0.3639-0.5937 0.234-0.5117 0.6758 0.07634 0.4068 0.4642 0.1991 0.7793-0.01367 0.3084-0.5046 0.7494-0.9223 1.279-1.199-0.02711 5e-3 -0.05502 0.0052-0.08594 0-0.1865-0.0308-0.4514-0.3248-0.4805-0.543-0.07405-0.566 0.4788-0.8006 0.7129-1.223-0.1547-0.512-0.858-0.1044-1.285-0.3047 0.04099-0.3047 0.3558-0.516 0.7129-0.5742 0.2909-0.04946 0.942-0.027 1.115 0.1289 0.1005 0.08569 0.0061 0.303 0.1699 0.4453 0.1732 0.156 0.3859 0.1382 0.6094 0.1016 0.06805-0.3261-0.3378-0.3132-0.4277-0.4531-0.0029-0.0054-0.0079-0.02145-0.0098-0.02734-0.0042-0.01843-0.0061-0.04244 0-0.06641 0.4589-0.2996 1.205-0.05146 1.766-0.1348 0.3227-0.0476 0.6655-0.2764 0.9512-0.4375 0.2724-0.155 0.6199-0.4254 0.9082-0.1719 0.07802 0.2769-0.249 0.3683-0.4023 0.5059-0.5197 0.4618-1.054 0.9932-1.457 1.529 0.2473 0.2413 0.696 0.1219 1.115 0.1719 0.164 0.02169 0.3697 0.06711 0.543 0.09766 0.1312 0.02333 0.2689 0.0303 0.3926 0.04297h2e-3l0.3691-0.05664a1 1 0 0 0 2e-3 0c0.114-0.01693 0.2285-0.0272 0.3438-0.0293h2e-3c2e-3 -3.4e-5 0.0039 2.9e-5 0.0059 0l-2e-3 2e-3c0.06949-0.0011 0.1114 0.06797 0.1797 0.07227a1 1 0 0 1 0.2871 0.1152c0.0045 8.46e-4 0.0092 0.0011 0.01367 2e-3 0.02519-0.1642-0.0393-0.3657-0.1699-0.5215 0.08331-0.32 0.212-0.4828 0.09961-0.707-0.209-0.418-0.9741-0.0263-1.014-0.547-0.02512-0.338 0.2807-0.3214 0.4023-0.5742-0.05554-0.6532 0.54-0.6996 0.4766-1.285-0.02777-0.2449-0.2363-0.251-0.4082-0.4805-0.03136-0.0412-0.05723-0.0968-0.08203-0.1543zm-16.82 4.057c0.0722 0.211 0.03789 0.413-0.2266 0.5254-0.0381 0.01663-0.3671 0.05444-0.6621 0.07617 0.2922-0.2064 0.5876-0.4071 0.8887-0.6016zm17.03 0.0293-0.08789 0.1152a1 1 0 0 1 0.123-0.02149zm-3.98 0.4785c-0.1174 0.0073-0.2142 0.06363-0.3047 0.1387l0.4141-0.0625c-0.01577-0.02497-0.03503-0.04992-0.05664-0.07617-0.01776-1e-3 -0.03583-0.0011-0.05273 0zm-12.53 0.3906c0.03364-0.0018 0.06979-0.0027 0.1035 0h0.0039c0.1574 0.02275 0.3454 0.1905 0.5371 0.2051 0.1812 4e-3 0.3342-0.09642 0.4453-0.06641 0.283 0.07471 0.4 0.497 0.1328 0.707-0.2208 0.02777-0.308-0.08951-0.4746-0.06055-0.4602 0.07815-0.6366 0.9752-0.9805 0.9453-0.3253-0.02777-0.5023-0.8193-0.1719-1.055 0.02116-0.2055-0.1492-0.2364-0.1387-0.4394 0.08564-0.1093 0.3073-0.2235 0.543-0.2363zm-1.426 0.1035c0.09521 0.0026 0.168 0.02515 0.2051 0.06641-0.04496 0.3613-0.3304 0.3374-0.6094 0.5059-0.4827 0.2909-0.7607 0.7379-0.9141 1.359-0.04364 0.1812-0.5193 0.657-0.748 0.6094-0.5382-0.1133 0.1445-1.099 0.2676-1.25 0.1362-0.167 0.3205-0.3131 0.4805-0.5059 0.09851-0.1179 0.1766-0.2648 0.2578-0.3828 0.1095-0.08615 0.2191-0.1714 0.3301-0.2559 0.2125-0.08363 0.5208-0.1545 0.7305-0.1465zm4.02 1.223c0.1719 0.0026 0.3225 0.02992 0.3926 0.09961-0.1098 0.4478-1.073 0.3316-1.426 0.1699 0.02248-0.1689 0.2837-0.2159 0.5059-0.2383 0.156-4e-3 0.3554-0.03641 0.5273-0.03125zm-2.201 0.8281c0.115-0.0026 0.2312 0.01878 0.3516 0.05078-0.3121 0.261-0.648 0.4073-1.184 0.5781-0.2579 0.08066-0.7044 0.1834-0.748-0.1035-0.05289-0.3533 0.3798-0.2732 0.6152-0.3047 0.2962-0.04113 0.6184-0.2096 0.9648-0.2207zm2.775 19.93c-0.02645 0.2976-0.03906 0.5996-0.03906 0.9043 0 4.967 3.592 9.08 8.31 9.912a1 1 0 0 0 2e-3 0c0.8693 0.1534 2.652 0.1535 3.522 0 1.738-0.3064 3.322-1.06 4.631-2.137-0.3272-0.04119-0.7842-0.2232-1.125-0.2617-0.2314-0.02513-0.5428 0.06876-0.6816 0-0.2116-0.1031-0.2305-0.493-0.4023-0.6094-0.1362-0.09389-0.4018-0.1322-0.6094-0.2129-0.1245-0.04774-0.2401-0.09734-0.3555-0.1426l-4.098 1.102a1 1 0 0 0-2e-3 0c-1.555 0.4156-3.131-0.7904-3.135-2.4a1 1 0 0 1 0-0.0039v-3.688c-0.0033-0.0037-0.0065-8e-3 -0.0098-0.01172-0.287-0.3293-0.4258-0.6278-0.6758-0.7852-0.2367-0.1521-0.5515-0.1473-0.7129-0.3008-0.07141-0.06744-0.06065-0.1812-0.1387-0.3398-0.119-0.2473-0.3214-0.3854-0.1719-0.6816-0.2711-0.1388-0.2761 0.2586-0.5723 0.207-0.2632-0.3742-0.4882-0.5492-1.086-0.4394-0.275 0.05025-0.4222 0.399-0.7422 0.4082-0.2618 0.02116-0.47-0.2968-0.8164-0.3457-0.2605-0.0357-0.558 0.07086-0.7441 0.03516-0.1534-0.03026-0.251-0.1127-0.3477-0.209zm4.986 11.9c0.08537 0.02097 0.17 0.04619 0.2559 0.07617v-2e-3h-2e-3c-2e-3 -6.87e-4 -0.0039-0.0013-0.0059-2e-3 -0.08256-0.02853-0.1658-0.05211-0.248-0.07227z" fill="url(#b)"/>
 <path transform="translate(0) scale(1)" d="m20.09 18.63c-0.1904 0-0.3794 0.07279-0.5254 0.2188l-3.162 3.166c-0.2919 0.2919-0.2217 0.7083 0 1.057l2.863 4.496c0.2264 0.3555 0.262 0.9541 0.1016 1.344-0.02919 0.07098-0.05778 0.1388-0.08398 0.2051-0.1549 0.3916-0.5964 0.789-1.008 0.8809l-5.193 1.154c-0.4029 0.08954-0.748 0.337-0.748 0.75v3.951c0 0.4128 0.3449 0.6582 0.748 0.748l5.193 1.152c0.4114 0.09144 0.853 0.4903 1.012 0.8809 0.02819 0.06953 0.05696 0.1396 0.08594 0.209 0.1628 0.3887 0.1192 0.9856-0.1074 1.342l-2.863 4.494c-0.2217 0.3482-0.2919 0.7667 0 1.059l3.162 3.162c0.2919 0.2919 0.7628 0.2919 1.055 0l4.488-2.859c0.3554-0.2264 0.9502-0.2594 1.34-0.09766 0.08508 0.03536 0.1685 0.06987 0.248 0.1016 0.3912 0.1559 0.7877 0.6 0.8789 1.012l1.152 5.19c0 0.4128 0.3332 0.7441 0.7461 0.7441h4.467c0.4128 0 0.6582-0.341 0.748-0.7441l1.156-5.371c0.08869-0.412 0.4823-0.8607 0.8672-1.031 0.1253-0.05565 0.2496-0.1162 0.373-0.1758 0.3796-0.183 0.9544-0.1514 1.297 0.09375l4.391 3.139c0.2919 0.2919 0.7621 0.2919 1.055 0l3.162-3.162c0.2919-0.2919 0.2217-0.7103 0-1.059l-1.674-2.957c-0.7111 0.2627-1.47-0.04315-1.898-0.6172-0.07741-0.1037-0.1806-0.2887-0.2461-0.4004l-1.389-2.363c-0.06558-0.1117-0.1565-0.1028-0.209 0.01563-1.468 3.312-4.515 5.77-8.188 6.418-1.057 0.1864-2.813 0.1863-3.869 0-5.189-0.9151-9.139-5.447-9.139-10.9 0-4.69 2.921-8.692 7.039-10.3 0.0089-0.3641 0.0016-1.015-0.0059-1.514-0.0051-0.3421-0.2716-0.53-0.5898-0.4043-0.1734 0.06849-0.346 0.1419-0.5176 0.2148-0.3149 0.134-0.8012 0.09612-1.09-0.08789l-4.154-2.646c-0.247-0.1574-0.6344-0.4804-0.9199-0.502-0.01842-0.0014-0.03818-0.0039-0.05664-0.0039z" fill="url(#a)"/>
 <path transform="translate(0) scale(1)" d="m34.78 11.01-0.0039 0.0039a1.672 1.672 0 0 1 0.0059-2e-3zm2e-3 2e-3v2e-3a1.672 1.672 0 0 0-0.0059 0 1.672 1.672 0 0 0-0.2148 0.01758l-4.201 0.6367a2.261 2.261 0 0 0-1.924 2.234v25.22a1.492 1.492 0 0 0 1.877 1.438l4.293-1.152a2.536 2.536 0 0 0 1.877-2.445v-8.652a0.1792 0.1792 0 0 1 0.334-0.09375l6.978 11.7a1.604 1.604 0 0 0 1.969 0.6699l5.004-1.98a1.407 1.407 0 0 0 0.5644-2.207l-7.926-9.506a1.742 1.742 0 0 1-0.04297-2.174l8.029-10.42a1.284 1.284 0 0 0-0.6973-2.029l-4.039-1.043a2.66 2.66 0 0 0-2.918 1.162l-6.914 10.99a0.1874 0.1874 0 0 1-0.3457-0.09961v-10.6a1.672 1.672 0 0 0-1.697-1.674z" fill="url(#a)"/>
</svg>
