<svg xmlns="http://www.w3.org/2000/svg" viewBox="0 0 64 64"><defs><linearGradient id="a" y2="1"><stop offset="0" stop-color="#19c5ff"/><stop offset="1" stop-color="#8819ff"/></linearGradient></defs><path fill="url(#a)" d="M32.05 42.62c-1.144 0-2.3.375-3.18 1.16s-1.467 1.976-1.467 3.475.587 2.706 1.467 3.488c.88.783 2.036 1.162 3.18 1.162s2.291-.377 3.172-1.162 1.463-1.988 1.463-3.488-.582-2.692-1.463-3.475c-.88-.783-2.027-1.16-3.172-1.16" transform="translate(-19.558 -19.492)scale(1.609)"/><path fill="url(#a)" d="M32.05 12.12c-.684 0-2.204-.003-3.557.97s-2.441 2.904-2.441 6.39c0 2.81.686 7.89 1.713 12.35.513 2.222 1.105 4.275 1.766 5.814.33.77.675 1.412 1.062 1.898.388.485.856.867 1.457.867s1.076-.383 1.463-.867c.387-.485.727-1.13 1.057-1.898.661-1.54 1.254-3.594 1.77-5.82 1.026-4.45 1.711-9.528 1.711-12.34 0-3.484-1.09-5.41-2.443-6.385-1.353-.972-2.872-.971-3.557-.971z" transform="translate(-19.558 -19.492)scale(1.609)"/></svg>