<svg fill="none" version="1.1" viewBox="0 0 64 64" xmlns="http://www.w3.org/2000/svg">
 <defs>
  <linearGradient id="a" x1="66.06" x2="66.06" y1="122" y2="6" gradientUnits="userSpaceOnUse">
   <stop stop-color="#fd2e00" offset="0"/>
   <stop stop-color="#f90" offset="1"/>
  </linearGradient>
 </defs>
 <path transform="translate(3e-4 -.000539) scale(1) translate(-3.54 -2.42) scale(.5378)" d="M28.73 10.69c.334-2.653 2.62-4.812 5.069-4.667 10.36-.034 20.72-.009 31.08-.009 2.2-.17 4.12 1.425 5.263 3.37 10.98 17.15 22.03 34.25 32.96 51.44 1.383 1.74 1.344 4.436-.016 6.186-11.04 17.19-22.23 34.29-33.28 51.47-1.166 1.707-2.814 3.541-4.89 3.524-10.66-.009-21.32.008-31.98-.009-3.46-.085-6.554-4.974-3.988-8.233 7.518-11.88 15.21-23.64 22.81-35.47 1.197-2.269 4.066-3.472 6.204-2.039 2.55 1.254 2.783 5.256 1.275 7.516-6.048 9.368-12.08 18.74-18.14 28.1 7.354-.28 14.75.204 22.08-.23 10.32-15.97 20.74-31.87 30.96-47.9-10.41-15.8-20.49-31.86-30.75-47.77-7.207.085-14.42.204-21.62-.069 5.838 9.581 12.03 18.91 17.93 28.44 1.322 2.227.785 5.716-1.469 6.945-2.06 1.612-4.937.333-6.196-1.834-7.238-11.39-14.46-22.8-21.72-34.18-.8-1.374-1.734-2.875-1.578-4.59z" fill="url(#a)" stroke="url(#a)" stroke-width="3"/>
</svg>
