<svg xmlns="http://www.w3.org/2000/svg" style="isolation:isolate" viewBox="0 0 64 64"><linearGradient id="a" x2="1" y1=".5" y2=".5" gradientTransform="matrix(56 0 0 45.55 0 7.009)" gradientUnits="userSpaceOnUse" transform="translate(0 -2.037)scale(1.143)"><stop offset="0" stop-color="#f7f206"/><stop offset=".983" stop-color="#ffbb24"/></linearGradient><path fill="url(#a)" fill-rule="evenodd" d="m56 28.6-.008 4.498H51.17l-16 19.45H20.64l20.1-23.95-18.01-21.46 6.417-.136 18.11 21.59-15.9 18.95h1.47l16.58-18.97 6.586.026zM4 31.098H0l.016-5H22.64l-16-19.07h14.53l18.09 21.57-20.09 23.96-6.519-.005 1.433-1.72 18.66-22.23-13.91-16.57h-1.47l11.87 14.15c.49.54.78 1.24.81 1.97.04 1.01-.47 1.96-1.33 2.49-.53.32-1.14.48-1.76.46H4.004z" transform="translate(0 -2.037)scale(1.143)"/></svg>