<svg xmlns="http://www.w3.org/2000/svg" fill="none" viewBox="0 0 64 64"><defs><linearGradient id="a" x1="95.86" x2="95.86" y1="16.71" y2="174.3" gradientUnits="userSpaceOnUse"><stop offset="0" stop-color="#f75050"/><stop offset="1" stop-color="#a00909"/></linearGradient><linearGradient id="c" x1="95.75" x2="95.75" y1="75.7" y2="118.8" gradientUnits="userSpaceOnUse"><stop offset="0" stop-color="#f75050"/><stop offset="1" stop-color="#a00909"/></linearGradient></defs><path fill="url(#a)" stroke="url(#a)" stroke-width="8" d="M35.51 17.62c2.43-.66 4.95-.89 7.46-.89 33.33.01 66.67 0 100 0 4.75.03 9.64-.35 14.23 1.18 7.87 2.43 14.27 9.01 16.46 16.95 1.13 3.6.92 7.41.94 11.13-.01 16.65 0 33.31-.01 49.96.01 16.56-5.49 33.04-15.35 46.33-11.71 16-29.71 27.25-49.23 30.71-17.03 3.19-35.09.46-50.44-7.57-24.85-12.67-41.84-39.38-42.39-67.32-.11-19.04-.06-38.08-.02-57.12.05-10.73 7.98-20.72 18.35-23.36zm4.92 11.04c-6.5.67-11.73 6.74-11.51 13.26-.08 13.35-.04 26.71.07 40.06-.24 11.19-.58 22.66 2.95 33.44 5.46 17.85 18.83 33.01 35.76 40.82 14.07 6.57 30.45 7.94 45.43 3.92 14.89-3.92 28.27-13.23 37.19-25.77 7.97-11.09 12.37-24.67 12.46-38.32.04-18.05.03-36.1.01-54.15.33-7.32-6.45-13.8-13.72-13.37-36.21.07-72.44-.17-108.6.11z" transform="translate(-5.048 -4.903)scale(.3865)"/><path fill="url(#c)" stroke="url(#c)" stroke-width="8" d="M65.13 76.04c2.72-.88 5.81-.01 7.74 2.07 6.89 6.8 13.67 13.72 20.58 20.51 1.06 1.2 3.14 1.5 4.29.23 7.159-6.88 14.02-14.09 21.16-21 2.56-2.49 6.92-2.84 9.77-.63 3.54 2.55 4.13 8.37.81 11.34-8.78 8.87-17.67 17.64-26.46 26.51-2.99 4.25-9.659 5.13-13.31 1.26-9.33-9.36-18.77-18.62-27.99-28.08-3.68-3.77-1.7-10.9 3.41-12.21z" transform="translate(-5.048 -4.903)scale(.3865)"/></svg>