<svg version="1.1" viewBox="0 0 64 64" xmlns="http://www.w3.org/2000/svg">
 <defs>
  <linearGradient id="a" x1="1" x2="0" y1="1">
   <stop stop-color="#ff0001" offset="0"/>
   <stop stop-color="#ff00b6" offset="1"/>
  </linearGradient>
 </defs>
 <path transform="translate(-.00044 -.00134) scale(1) matrix(.9551 0 0 .9551 1.435 1.434)" d="m7.998 1.164c-5.211 0-9.5 4.291-9.5 9.502v18.67c0 18.46 15.04 33.5 33.5 33.5s33.5-15.04 33.5-33.5v-18.67c0-5.211-4.289-9.502-9.5-9.502zm0 8.336h48.01c0.7427 0 1.166 0.4233 1.166 1.166v18.67c0 13.96-11.22 25.17-25.17 25.17s-25.17-11.21-25.17-25.17v-18.67c1e-7 -0.7427 0.4233-1.166 1.166-1.166z" fill="url(#a)"/>
 <path transform="translate(-.00044 -.00134) scale(1) matrix(.9551 0 0 .9551 1.435 1.434)" d="m17.75 18.25c-1.479 0-2.856 0.6554-3.891 1.693-2.136 2.11-2.138 5.611 0.0059 7.715l14.41 14.41a1.5 1.5 0 0 0 0.0059 0c2.139 2.135 5.644 2.135 7.783 0l14.08-14a1.5 1.5 0 0 0 0.0059-0.0059c2.135-2.139 2.135-5.648 0-7.787a1.5 1.5 0 0 0-0.0059 0c-2.139-2.135-5.648-2.135-7.787 0l-10.19 10.19-10.53-10.52c-1.036-1.036-2.411-1.688-3.891-1.688z" fill="url(#a)"/>
</svg>
