<svg style="isolation:isolate" version="1.1" viewBox="0 0 64 64" xmlns="http://www.w3.org/2000/svg">
 <linearGradient id="a" transform="translate(-.008001 .006702) scale(1.333)" x1=".909" x2="-.025" y1=".937" y2=".245" gradientTransform="matrix(48 0 0 47.48 0 .262)" gradientUnits="userSpaceOnUse">
  <stop stop-color="#b02acd" offset=".021"/>
  <stop stop-color="#8159ee" offset=".454"/>
  <stop stop-color="#6eb9fc" offset=".979"/>
 </linearGradient>
 <path transform="translate(-.008001 .006702) scale(1.333)" d="M23.11 47.55.9 36.44c-.493-.247-.894-.895-.894-1.447v-22c0-.552.401-1.2.894-1.447L23.11.436c.493-.247 1.295-.247 1.788 0l22.21 11.11c.493.247.894.895.894 1.447v22c0 .552-.401 1.2-.894 1.447l-22.21 11.11c-.493.247-1.295.247-1.788 0M4 14.47l9.79-4.89L24 4.47l10.21 5.11L44 14.47v19.06l-9.79 4.89L24 43.53l-10.21-5.11L4 33.53V14.47" fill="url(#a)" fill-rule="evenodd"/>
 <linearGradient id="b" transform="translate(-.008001 .006702) scale(1.333)" x1=".085" x2="1.079" y1=".114" y2="1.227" gradientTransform="matrix(32 0 0 15 8 15.25)" gradientUnits="userSpaceOnUse">
  <stop stop-color="#5b64ed" offset=".022"/>
  <stop stop-color="#c674fb" offset=".517"/>
  <stop stop-color="#f9a24e" offset=".983"/>
 </linearGradient>
 <path transform="translate(-.008001 .006702) scale(1.333)" d="M12 18h1a1 1 0 0 1 1 1v7.75a1 1 0 0 1-1 1h-1a1 1 0 0 1-1-1V19a1 1 0 0 1 1-1m5 0h1a1 1 0 0 1 1 1v7.75a1 1 0 0 1-1 1h-1a1 1 0 0 1-1-1V19a1 1 0 0 1 1-1m5 0h1a1 1 0 0 1 1 1v7.75a1 1 0 0 1-1 1h-1a1 1 0 0 1-1-1V19a1 1 0 0 1 1-1m-11-2.75h26c1.656 0 3 1.344 3 3v12H8v-12c0-1.656 1.344-3 3-3M27 18h1a1 1 0 0 1 1 1v7.75a1 1 0 0 1-1 1h-1a1 1 0 0 1-1-1V19a1 1 0 0 1 1-1" fill="url(#b)" fill-rule="evenodd"/>
 <linearGradient id="d" transform="translate(-.008001 .006702) scale(1.333)" x1="-.024" x2="1.033" y1=".667" y2=".764" gradientTransform="matrix(32 0 0 2.5 8 30.25)" gradientUnits="userSpaceOnUse">
  <stop stop-color="#df57ff" offset=".013"/>
  <stop stop-color="#241efc" offset=".521"/>
  <stop stop-color="#0eaffe" offset=".979"/>
 </linearGradient>
 <path transform="translate(-.008001 .006702) scale(1.333)" d="M8 30.25h32c0 1.38-1.344 2.5-3 2.5H11c-1.656 0-3-1.12-3-2.5" fill="url(#d)"/>
</svg>
