<svg xmlns="http://www.w3.org/2000/svg" viewBox="0 0 64 64"><defs><linearGradient id="a" x1="1" x2="0" y1="1"><stop offset="0" stop-color="#879af2"/><stop offset=".5" stop-color="#d3208b"/><stop offset="1" stop-color="#fda000"/></linearGradient></defs><path fill="url(#a)" d="M18.48 0C8.609 0 .55 8.061.55 17.93v28.13C.55 55.931 8.611 64 18.48 64h27.05c9.871 0 17.93-8.064 17.93-17.94V17.93C63.46 8.059 55.398 0 45.53 0zm0 5.57h27.05c6.862 0 12.36 5.499 12.36 12.36v28.13c0 6.862-5.501 12.36-12.36 12.36H18.48A12.317 12.317 0 0 1 6.12 46.06V17.93c0-6.861 5.503-12.36 12.36-12.36" transform="translate(-.005)"/><path fill="#00bfff" d="M12.436 36.89V54h2.442v-7.332H17.4C17.922 50.877 21.011 54 24.656 54c4.05 0 7.334-3.83 7.334-8.555s-3.283-8.557-7.334-8.557c-3.645 0-6.735 3.124-7.256 7.334h-2.522v-7.334zm12.22 2.445c2.7 0 4.89 2.736 4.89 6.111s-2.19 6.111-4.89 6.111-4.89-2.736-4.89-6.111c0-3.376 2.189-6.111 4.89-6.111"/><path fill="#ff7f00" d="m41.165 32 2.443 2.445h2.445L44.83 32zm2.443 4.889-6.111 17.11h2.932l1.609-4.889h5.586l1.607 4.889h2.932l-6.111-17.11zm1.223 3.721 1.99 6.059h-3.982z"/><path fill="#f0f" d="M30.776 10s-4.89 2.443-9.78 2.443v2.445c1.788 0 3.428-.148 4.89-.367v2.81h-4.89v2.445h4.345l-4.344 4.889 1.223 2.443 3.666-4.277v6.723h2.445v-8.557l3.666 3.668 1.223-2.445-2.443-2.443h2.443v9.777h2.445v-2.445h4.889v2.445h2.445v-17.11h-9.78v4.889h-4.888v-3.275c3.073-.71 4.889-1.613 4.889-1.613zm4.889 4.889h4.889v9.777h-4.89z"/></svg>