<svg xmlns="http://www.w3.org/2000/svg" style="isolation:isolate" viewBox="0 0 64 64"><linearGradient id="a" x1="-.045" x2=".987" y1="1.148" y2=".061" gradientTransform="matrix(44 0 0 44 2 2)" gradientUnits="userSpaceOnUse" transform="translate(-2.909 -2.909)scale(1.455)"><stop offset="0" stop-color="#5433ff"/><stop offset=".517" stop-color="#20bdff"/><stop offset=".983" stop-color="#a5fecb"/></linearGradient><path fill="url(#a)" fill-rule="evenodd" d="M35 2.07a2 2 0 0 0-.524-.07H7.236a5.24 5.24 0 0 0-5.238 5.238v19.9a2.096 2.096 0 0 0 4.19 0V9.328a3.145 3.145 0 0 1 3.143-3.143h25.14q.274 0 .524-.07.25.07.524.07h3.143a3.145 3.145 0 0 1 3.143 3.143v3.143a2.095 2.095 0 0 0 4.19 0V7.233a5.24 5.24 0 0 0-5.238-5.238h-5.238q-.274 0-.524.07zM12.48 41.81a2.095 2.095 0 0 1 0 4.19H7.242a5.24 5.24 0 0 1-5.238-5.238v-5.238a2.096 2.096 0 0 1 4.19 0v3.143a3.145 3.145 0 0 0 3.143 3.143zm29.33-19.9a2.095 2.095 0 0 1 4.19 0v18.86a5.24 5.24 0 0 1-5.238 5.238h-18.86a2.096 2.096 0 0 1 0-4.19h16.76a3.145 3.145 0 0 0 3.143-3.143v-16.76zm-16.15-7.018c1.086.315 2.725 1.955 3.041 3.041.83 2.804-.513 5.608-3.1 6.497-.632.217-1.699.296-3.832.296h-2.942l.079-3.219c.059-2.804.118-3.298.494-3.989.533-1.007 1.737-2.172 2.626-2.548.849-.375 2.528-.394 3.634-.078m-3.989-4.069c-2.982.79-5.49 3.16-6.359 5.945-.376 1.204-.395 1.836-.395 10.41v9.124l.592.573c.889.849 1.995.829 2.785-.059l.572-.632v-7.307h2.726c3.436 0 4.739-.218 6.477-1.067 3.101-1.54 5.016-4.68 5.016-8.235 0-2.528-.967-4.68-2.942-6.557-2.291-2.192-5.471-3.001-8.472-2.192z" transform="translate(-2.909 -2.909)scale(1.455)"/></svg>