<svg xmlns="http://www.w3.org/2000/svg" viewBox="0 0 64 64"><defs><linearGradient id="b" y1="1"><stop offset="0" stop-color="red"/><stop offset="1" stop-color="#ff2a2a"/></linearGradient><linearGradient id="a" x1="1" x2="0" y2="1"><stop offset="0" stop-color="#7eebda"/><stop offset=".5" stop-color="#73ff44"/><stop offset="1" stop-color="#ffcd3e"/></linearGradient></defs><path fill="url(#a)" d="M13.82-1.473c-1.648.03-3.577.705-4.9 2.027L.582 8.896c-2.683 2.683-2.683 7.113 0 9.795l.686.686c-1.623 3.893-2.73 8.1-2.73 12.64 0 18.47 14.98 33.46 33.46 33.46 18.47 0 33.46-14.98 33.46-33.46 0-18.47-14.98-33.46-33.46-33.46-4.51 0-8.698 1.093-12.57 2.699l-.703-.702c-1.343-1.343-3.128-2.059-4.898-2.027zM32 6.513c14.2 0 25.5 11.3 25.5 25.5s-11.3 25.5-25.5 25.5-25.5-11.3-25.5-25.5c0-4.293 1.038-8.303 2.879-11.83l.006-.006 1.357-2.578-3.8-3.8 6.876-6.882 3.799 3.813 2.598-1.354a25.4 25.4 0 0 1 11.79-2.86z" transform="translate(1.412 1.409)scale(.9559)"/><path fill="url(#b)" d="M13.52 5.666a1 1 0 0 0-.893.5L10.992 9h-.002a2 2 0 0 0-1.996 2 2 2 0 0 0 2 2 2 2 0 0 0 2-2 2 2 0 0 0-.27-1.002l1.636-2.832a.996.996 0 0 0-.365-1.365 1 1 0 0 0-.475-.135" transform="translate(1.001 1.014)scale(2.81772)"/><path fill="#00ff7f" d="M31.997 45.236a3.69 3.69 0 0 0-3.677 3.675 3.693 3.693 0 0 0 3.676 3.678 3.69 3.69 0 0 0 3.678-3.678 3.69 3.69 0 0 0-3.677-3.675m16.909-16.909a3.69 3.69 0 0 0-3.678 3.678 3.69 3.69 0 0 0 3.678 3.675 3.69 3.69 0 0 0 3.674-3.675 3.69 3.69 0 0 0-3.674-3.678m-33.817 0a3.69 3.69 0 0 0-3.675 3.678 3.69 3.69 0 0 0 3.675 3.675 3.69 3.69 0 0 0 3.678-3.675 3.69 3.69 0 0 0-3.678-3.678M31.997 11.42a3.693 3.693 0 0 0-3.677 3.677 3.69 3.69 0 0 0 3.676 3.675 3.69 3.69 0 0 0 3.678-3.675 3.69 3.69 0 0 0-3.677-3.676"/></svg>