<svg xmlns="http://www.w3.org/2000/svg" viewBox="0 0 64 64"><defs><linearGradient id="a" x2="0" y1="1"><stop offset="0" stop-color="#ff001e"/><stop offset="1" stop-color="#ff004b"/></linearGradient><linearGradient id="b" y1=".5" y2=".5"><stop offset="0" stop-color="#2ad454"/><stop offset="1" stop-color="#b3ff5a"/></linearGradient></defs><path fill="url(#a)" d="M4.117 2.703c-.004-.007-.31.08-.465.133a4.6 4.6 0 0 0-1.197.6C1.442 4.155.816 5.26.596 6.721c-.048.32-.091.89-.092 1.193v.09l.106.002.107.004-.107.004-.11.004.008.268c.03.991.172 1.834.442 2.619a6.3 6.3 0 0 0 2.83 3.469c1.076.631 2.374 1.012 3.772 1.109.414.028.829.016 1.338-.04 1.056-.116 2.13-.432 2.998-.884a6.6 6.6 0 0 0 1.7-1.25c1.213-1.242 1.84-2.897 1.905-5.025l.008-.268-.11-.002-.107-.002.107-.004.106-.004v-.09c0-.302-.044-.873-.092-1.193-.137-.907-.442-1.703-.885-2.316a4.3 4.3 0 0 0-1.076-1.04 4 4 0 0 0-.531-.3c-.18-.086-.54-.234-.547-.224l-.08.137c-.102.171-.217.34-.31.455a3 3 0 0 1-.33.332.1.1 0 0 0-.024.023l-.004.006v.002l-.002.002v.004l.002.002v.002l.002.004.004.004q.021.016.094.035c.131.032.381.117.544.185 1.152.486 1.836 1.503 2.023 3.014.045.363.054.515.053.981 0 .44-.01.642-.047.975-.145 1.332-.576 2.406-1.312 3.27-.688.808-1.704 1.424-2.91 1.77-.801.229-1.716.34-2.408.294a8 8 0 0 1-2.098-.412c-1.272-.435-2.254-1.158-2.91-2.143-.564-.847-.871-1.827-.974-3.113a14 14 0 0 1 0-1.264c.06-.684.174-1.192.377-1.674.468-1.113 1.39-1.782 2.738-1.992.078-.012.144-.025.146-.027l-.002-.002-.06-.04a1.75 1.75 0 0 1-.725-.878l-.035-.09z" transform="translate(-2.133 -2.126)scale(4.26657)"/><path fill="url(#b)" d="m9.314.5-.086.03c-.13.043-.389.175-.535.273a2.74 2.74 0 0 0-1.107 1.484c-.026.08-.053.178-.06.216a.4.4 0 0 1-.02.073v.004h-.004L7.5 2.578a.4.4 0 0 1-.06-.037 1.43 1.43 0 0 0-.721-.28 4.3 4.3 0 0 0-.778.026c-.56.057-.832.023-1.047-.131a.9.9 0 0 1-.302-.377l-.053-.11.002.069c0 .197.042.512.092.69.147.523.458.815.982.921.12.024.16.026.482.025.296 0 .4-.005.657-.03a11 11 0 0 1 .617-.05l.023-.002v.002l-.002.002a2 2 0 0 1-.166.045 3.6 3.6 0 0 0-1.453.713l-.298.25a6 6 0 0 1-.473.377 2.6 2.6 0 0 1-.895.408c-.063.015-.12.03-.125.034-.01.009.4.21.58.283.264.107.563.196.82.244.162.03.6.028.737-.002.323-.071.566-.204.803-.44.202-.2.336-.391.506-.724.098-.193.208-.447.295-.676.027-.073.054-.137.058-.143s-.013.091-.037.213c-.084.424-.095.515-.096.84 0 .26.003.31.026.432.114.593.444 1.067 1 1.434.126.083.184.115.347.201l.13.068c.006.001.101-.31.13-.427a2.7 2.7 0 0 0 .092-.725c0-.523-.143-.945-.539-1.6-.243-.4-.35-.59-.32-.553.016.02.152.203.302.409.554.755.847 1.084 1.205 1.354.258.193.537.321.811.373.138.025.436.029.57.005.352-.06.72-.223 1.094-.484a.5.5 0 0 0 .098-.08v-.002a1 1 0 0 0-.096-.035 2.4 2.4 0 0 1-.588-.281 5 5 0 0 1-.525-.428c-.386-.353-.611-.522-.879-.656a3 3 0 0 0-.676-.233 1 1 0 0 1-.097-.023q.006-.006.562.037c.564.045.804-.015 1.074-.27.146-.137.268-.298.432-.568.08-.131.226-.404.22-.41h-.002l-.076.03a1.6 1.6 0 0 1-.814.128c-.069-.008-.265-.042-.436-.076s-.349-.068-.394-.074a2 2 0 0 0-.493.004c-.35.06-.697.26-1.066.61a1 1 0 0 1-.123.108h-.001v.002h-.002l-.002-.002v-.002a1.74 1.74 0 0 1 .453-.994q.236-.247.506-.357a.5.5 0 0 0 .093-.045v-.002c0-.005-.026-.09-.058-.188L9.43.86z" transform="translate(-2.133 -2.126)scale(4.26657)"/></svg>