<svg xmlns="http://www.w3.org/2000/svg" viewBox="0 0 64 64"><path fill="#56ccf2" d="M51.736 57.59H14.171c-1.995 0-3.611 1.433-3.611 3.2 0 1.766 1.617 3.199 3.611 3.199h37.565c1.995 0 3.612-1.433 3.612-3.2 0-1.766-1.618-3.199-3.612-3.199M38.393 23.118c-2.26 4.892-6.027 8.824-11.3 10.742l4.52 11.993c.848 2.206 1.601 4.507.942 6.618-.659 2.11-3.672 2.781-5.838.48-4.143-4.508-18.083-32.896-19.114-35.006-1.036-2.11-2.167-3.837-2.167-5.946.095-3.165 4.897-6.426 7.251-8.057C15.042 2.312 19.655.106 23.704.01c4.05-.095 5.744.864 8.099 2.398 3.578 2.397 6.12 6.138 7.062 10.454s.66 7.673-.47 10.07m-10.64-5.18c-.848-2.973-2.637-5.85-4.992-7.769-.47-.383-1.036-.863-1.694-1.055-4.332-1.438-2.449 5.947-1.79 7.865.66 1.919 2.448 5.947 4.426 7.961.47.48.942.863 1.506.96.565.095 1.695-.48 2.166-1.247s.565-1.343.565-2.11c.224-1.534.16-3.096-.188-4.605zM48.809 52.198c-.195.78-.682 1.472-1.461 1.905s-2.63.432-3.702-.347-1.267-2.077-.974-3.116 1.267-2.164 2.63-2.511c2.826-.78 4.091 1.99 3.507 4.069zM45.941 43.062c-1.63-.663-1.087-9.747.453-20.82.454-3.028 1.178-4.543 1.994-5.3.815-.757 3.262-1.135 4.711-.852a8.02 8.02 0 0 1 4.44 2.272c1.088 1.041 1.178 2.177.816 3.597-.363 1.42-1.63 4.447-2.628 6.624l-2.538 5.015c-4.894 9.084-5.89 10.03-7.25 9.463z"/></svg>