<svg version="1.1" viewBox="0 0 64 64" xmlns="http://www.w3.org/2000/svg">
 <defs>
  <linearGradient id="a" x1="10.71" x2="37.17" y1="31.53" y2="31.53" gradientTransform="matrix(.4912 0 0 .4912 -3.76 -7.49)" gradientUnits="userSpaceOnUse">
   <stop stop-color="#00b1b1" offset="0"/>
   <stop stop-color="#95f" offset="1"/>
  </linearGradient>
 </defs>
 <path transform="translate(0) scale(1) translate(0) scale(1) translate(5e-4 5e-4) scale(1) translate(-7.385 -7.385) scale(4.923)" d="m8 1.5a6.5 6.5 0 0 0-6.5 6.5 6.5 6.5 0 0 0 6.5 6.5 6.5 6.5 0 0 0 6.5-6.5 6.5 6.5 0 0 0-6.5-6.5zm0 0.9707a5.53 5.53 0 0 1 5.529 5.529 5.53 5.53 0 0 1-5.529 5.529 5.53 5.53 0 0 1-5.529-5.529 5.53 5.53 0 0 1 5.529-5.529z" fill="url(#a)" opacity=".99" stroke-width=".4912"/>
 <path transform="translate(0) scale(1) translate(0) scale(1) translate(5e-4 5e-4) scale(1) translate(-7.385 -7.385) scale(4.923)" d="m7.55 12.48c-0.418-0.0415-0.8293-0.1336-1.101-0.2481a2.488 2.49 0 0 1-0.1236-0.05311 6.635 6.639 0 0 1-0.04893-0.2623l-0.08376-0.4672c-0.131-0.7079-0.272-1.552-0.2621-1.562 0.00497-0.0058 0.8111 0.5345 1.743 1.167 0.8534 0.5793 1.019 0.6921 1.408 0.9527 0.3898 0.2623 0.3666 0.244 0.3475 0.2548a3.317 3.32 0 0 1-0.4014 0.1303 4.976 4.979 0 0 1-0.5938 0.09378 7.464 7.469 0 0 1-0.8841-0.0058m2.05-0.4482a17.42 17.43 0 0 1-0.865-0.5959 15.76 15.77 0 0 0-0.5532-0.3826 1.659 1.66 0 0 1-0.2637-0.1826c-0.0564-0.04813-0.08128-0.08631-0.0564-0.08631 0.01491 0 0.763-0.1394 1.31-0.244 0.6344-0.1212 1.8-0.3502 2.588-0.5071 0.1443-0.02905 0.2654-0.04979 0.2704-0.04482 0.0083 0.0083-0.0564 0.1353-0.1642 0.3162a4.395 4.399 0 0 1-1.08 1.231 6.635 6.639 0 0 1-0.564 0.3793 4.976 4.979 0 0 1-0.4445 0.2224c-0.0083 0-0.08874-0.0473-0.1783-0.1046zm-3.766-0.09544a3.815 3.818 0 0 1-1.006-0.7403 4.644 4.648 0 0 1-0.7149-0.9195 5.805 5.809 0 0 1-0.2364-0.4399c0-0.01244 0.3541-0.5436 0.6535-0.9801 0.248-0.3627 0.4959-0.7336 0.627-0.9403 0.01575-0.02323 0.03068-0.03984 0.034-0.03652 0.01659 0.01662 0.2289 1.046 0.4072 1.974 0.1576 0.82 0.1891 0.9834 0.2505 1.291 0.07049 0.356 0.1609 0.7975 0.1742 0.849q0.00748 0.03071-0.00496 0.03071c-0.00666 0-0.08957-0.03984-0.1841-0.08797m4.018-1.822c-0.00413-0.01161 0.00831-0.03569 0.03483-0.06556 0.02238-0.02655 0.1543-0.2174 0.2919-0.4257 0.2223-0.3353 0.3807-0.5643 0.7215-1.048a57.22 57.26 0 0 0 1.262-1.84 1.659 1.66 0 0 1 0.09786-0.1436c0.01408-0.0019 0.09206 0.2249 0.1344 0.3884 0.08127 0.3154 0.1062 0.5519 0.1053 0.981q-0.0033 0.9262-0.277 1.642l-0.03317 0.08631-0.05805 0.01161-0.2339 0.04565-1.008 0.1925a72.15 72.2 0 0 1-0.9994 0.1867q-0.03234 0.0083-0.03815-0.01161m-6.147-0.781c-0.1435-0.3643-0.204-0.7511-0.2048-1.305 0-0.4482 0.0282-0.7162 0.1186-1.121 0.03566-0.1627 0.1393-0.4888 0.1617-0.5112 0.0083-0.0083 0.1095-0.03071 0.2264-0.05063 0.2115-0.03651 0.6079-0.1095 1.053-0.1942 0.7447-0.1411 1.073-0.1967 1.099-0.1867 0.00831 0.0033 0.01659 0.01575 0.01659 0.02739 0 0.02406 0.00331 0.01745-0.2098 0.3179l-0.2588 0.366-0.3616 0.5129a92.06 92.12 0 0 0-1.387 1.998 4.976 4.979 0 0 1-0.1932 0.2788 0.8293 0.8299 0 0 1-0.05971-0.1328zm7.062-1.19a7.464 7.469 0 0 0-0.04147-0.2448l-0.07879-0.4457-0.2986-1.769c-0.0481-0.2946-0.2048-1.184-0.2596-1.471a1.161 1.162 0 0 1-0.02986-0.2166c0.01326-0.01327 0.2455 0.117 0.4536 0.2556a4.395 4.399 0 0 1 1.27 1.291c0.1327 0.2075 0.3052 0.527 0.3649 0.6772l0.02156 0.05643-0.06966 0.1096c-0.07547 0.1195-0.1808 0.2672-0.4893 0.6913-0.1103 0.1527-0.2695 0.3784-0.3533 0.5021-0.2115 0.3104-0.4487 0.6241-0.4744 0.6241-0.0041 0-0.01078-0.02656-0.01492-0.05976m-0.7165-1.974a9.123 9.129 0 0 0-0.4396-0.3071 129.4 129.5 0 0 1-2.824-1.949 2.488 2.49 0 0 1-0.2397-0.1992c0-0.0083 0.2397-0.08299 0.3599-0.1112 0.1203-0.02822 0.3865-0.07469 0.5407-0.09295 0.07796-0.01 0.2621-0.01493 0.5407-0.01493 0.3707 0 0.4445 0.0041 0.6029 0.0249 0.282 0.03901 0.481 0.07801 0.6759 0.1344 0.1742 0.04979 0.4561 0.1569 0.4561 0.1726l0.04561 0.2656c0.02488 0.1411 0.08293 0.4913 0.1302 0.7768 0.08293 0.5129 0.1344 0.8133 0.1924 1.135 0.02738 0.1535 0.02903 0.2017 0.0067 0.2017a0.1659 0.166 0 0 1-0.04812-0.03735m-6.106-0.127a4.346 4.349 0 0 1 1.74-1.915c0.1883-0.1129 0.491-0.2656 0.5266-0.2656 0.02654 0 0.0904 0.04399 0.9206 0.6274 0.4918 0.3444 0.6353 0.4432 0.8003 0.5486 0.1426 0.09129 0.282 0.2008 0.282 0.2224 0 5e-3 -0.01408 0.01244-0.03068 0.01575a228.9 229.1 0 0 1-2.578 0.4847l-1.653 0.3071c-0.01744 5e-3 -0.01826 0.0019-0.0083-0.02489" fill="#3499cb" stroke-width=".01127"/>
</svg>
