<svg xmlns="http://www.w3.org/2000/svg" style="isolation:isolate" viewBox="0 0 64 64"><linearGradient id="a" x1="-.152" x2=".786" y1="1.178" y2=".342" gradientTransform="matrix(37.52 0 0 48 5.241 0)" gradientUnits="userSpaceOnUse" transform="scale(1.333)"><stop offset=".013" stop-color="#df57ff"/><stop offset=".521" stop-color="#241efc"/><stop offset=".979" stop-color="#0eaffe"/></linearGradient><path fill="url(#a)" fill-rule="evenodd" d="M5.242 22.57h-.001v-3.896a18.74 18.74 0 0 1 5.529-13.21 18.753 18.753 0 0 1 26.49.033 18.76 18.76 0 0 1 5.496 13.26c0 4.358-1.523 8.595-4.304 11.96a18.7 18.7 0 0 1-9.723 6.185 6.06 6.06 0 0 0 1.337-3.802 5.95 5.95 0 0 0-1.73-4.215 10.74 10.74 0 0 0 4.169-3.1 11.03 11.03 0 0 0 2.526-7.029c0-2.925-1.158-5.738-3.233-7.802a11 11 0 0 0-7.801-3.233 11.05 11.05 0 0 0-7.779 3.211 11.01 11.01 0 0 0-3.255 7.768l-.023 3.858.019 21.02c.002 2.436-1.727 4.414-3.858 4.414s-3.862-1.978-3.862-4.414v-21.02zm10.48 10.54a6.073 6.073 0 0 1 6.069-6.069c3.35 0 6.069 2.72 6.069 6.069a6.07 6.07 0 0 1-6.069 6.069 6.07 6.07 0 0 1-6.069-6.069" transform="scale(1.333)"/></svg>