<svg xmlns="http://www.w3.org/2000/svg" viewBox="0 0 64 64"><defs><linearGradient id="a" y1="1"><stop offset="0" stop-color="#ffe031"/><stop offset=".987" stop-color="#fc5252"/></linearGradient></defs><path fill="url(#a)" d="M44.65 15.16a4.1 4.1 0 0 0-2.658 1.137 4.1 4.1 0 0 0-.129 5.805l-.016-.033a4.1 4.1 0 0 0 4.734.81l-2.82-2.805a.296.296 0 0 1 0-.39l3.631-3.613a4.08 4.08 0 0 0-2.742-.91zm3.131 1.281-3.453 3.453 2.707 2.709a4.6 4.6 0 0 0 .617-.502 4.06 4.06 0 0 0 .13-5.66m-.205 2.082a.3.3 0 0 1 .07.002.26.26 0 0 1 .166.107 1.5 1.5 0 0 1-.193 1.684.3.3 0 0 1-.227.116.5.5 0 0 1-.21 0l-.016-.018c-.113-.114-.098-.309.015-.422a.91.91 0 0 0 .114-1.004l-.002-.004v-.004l-.002-.002v-.002l-.008-.008v-.002l-.002-.002v-.002l-.002-.005v-.002c-.065-.146.016-.324.162-.39a.3.3 0 0 1 .135-.042zm-8.422 2.832c-1.776.12-4.725 2.222-11.66 9.143l2.14 2.141 10.02-10.02c.359-.357.829-.55 1.33-.566-.457-.374-.913-.648-1.493-.694v-.002a2 2 0 0 0-.34-.002zm1.865 1.316a1.42 1.42 0 0 0-.99.4l-9.986 9.926 1.346 1.41 10.56-9.309c.292-.259.454-.616.47-1.006a1.37 1.37 0 0 0-.404-1.022 1.4 1.4 0 0 0-.988-.398zm1.557 2.51a1.6 1.6 0 0 1-.277.291l-10.55 9.291 1.88 1.881c4.363-4.166 8.61-8.447 8.95-11.46zm-15.47 5.643-2.643 2.644-.049.062c-.048.05-.065.098-.049.163a.183.183 0 0 0 .211.144l4.525-.97zm2.562 2.644-1.508 1.506a.15.15 0 0 0 0 .164.12.12 0 0 0 .146 0l2.478-.633zm1.588 1.539-4.102.875-8.463 8.478 2.756 2.838c.08.081.227.081.324 0a.31.31 0 0 0 .129-.324l-.453-1.943a.52.52 0 0 1 .275-.57h.018v-.032a54.7 54.7 0 0 0 11.48-7.36zm-13 9.76-2.123 2.141a.33.33 0 0 0 0 .178c.016.049.081.097.146.113l4.734.309z" transform="translate(-31.5 -29.23)scale(1.954)"/></svg>