<svg xmlns="http://www.w3.org/2000/svg" viewBox="0 0 64 64"><defs><linearGradient id="a" x2="0" y2="1"><stop offset="0" stop-color="#00fffa"/><stop offset="1" stop-color="#0078ff"/></linearGradient></defs><path fill="url(#a)" d="M96.76 16.02a11.7 11.7 0 0 0-3.553.39l-34.58 9.267h-.002c-6.313 1.693-10.15 8.34-8.459 14.65l9.256 34.55-34.55 9.256c-6.316 1.692-10.16 8.34-8.463 14.66v.002l9.268 34.58c1.692 6.315 8.341 10.15 14.66 8.46l34.55-9.255 9.258 34.55v.002c1.692 6.314 8.34 10.15 14.65 8.46l34.58-9.265h.002c6.315-1.692 10.15-8.341 8.461-14.66v-.002l-9.258-34.55 34.55-9.258c6.315-1.692 10.15-8.341 8.461-14.66l-9.266-34.58c-1.692-6.316-8.34-10.16-14.66-8.463l-34.55 9.258-9.258-34.55c-1.269-4.736-5.326-8.08-9.94-8.742a12 12 0 0 0-1.164-.11zm-.48 11.99 10.16 37.91L93.8 87.8 71.92 75.16 61.76 37.25zm58.46 33.75 9.25 34.52-37.91 10.16L104.2 93.8l12.63-21.88zm-88.82 23.8L87.8 98.2l-12.64 21.88-37.91 10.16L28 95.72zm32.27 18.64 21.88 12.64 10.16 37.91-34.52 9.248-10.16-37.91z" transform="matrix(.4 0 0 .4 -6.403 -6.404)"/></svg>