<svg xmlns="http://www.w3.org/2000/svg" viewBox="0 0 64 64"><defs><linearGradient id="c" x1="13.08" x2="2.537" y1="14.27" y2="3.596" gradientTransform="matrix(.8102 0 0 .7743 4.344 5.088)" gradientUnits="userSpaceOnUse"><stop offset="0" stop-color="#fd5900"/><stop offset="1" stop-color="#ffde00"/></linearGradient><linearGradient id="d" x1="3.455" x2="12.64" y1="13.83" y2="4.64" gradientTransform="matrix(.7923 0 0 .7919 4.344 5.088)" gradientUnits="userSpaceOnUse"><stop offset="0" stop-color="#5558ff"/><stop offset="1" stop-color="#00c0ff"/></linearGradient><linearGradient id="a" x1="1" x2="0" y2="1"><stop offset="0" stop-color="#d300dc"/><stop offset="1" stop-color="#8219ff"/></linearGradient></defs><path fill="url(#a)" d="M9.99-.002c-.666 0-1.232.478-1.342 1.135l-.267 1.563a8.5 8.5 0 0 0-1.493.629l-1.264-.91a1.35 1.35 0 0 0-.79-.253c-.363 0-.708.143-.96.4l-1.375 1.37a1.36 1.36 0 0 0-.147 1.751l.92 1.292a8.5 8.5 0 0 0-.613 1.503l-1.526.257a1.36 1.36 0 0 0-1.135 1.342v1.935c0 .667.478 1.233 1.135 1.343l1.563.266c.161.515.372 1.016.63 1.494l-.906 1.26a1.355 1.355 0 0 0 .147 1.751l1.37 1.37a1.35 1.35 0 0 0 1.747.148l1.292-.92c.464.244.951.442 1.452.598l.257 1.544c.11.657.676 1.135 1.342 1.135h1.94a1.36 1.36 0 0 0 1.343-1.135l.262-1.544q.78-.242 1.498-.62l1.273.91c.23.165.505.253.79.253.363 0 .704-.143.961-.4l1.37-1.37a1.36 1.36 0 0 0 .147-1.752l-.91-1.278c.252-.483.464-.984.62-1.498l1.544-.257A1.36 1.36 0 0 0 22 11.967v-1.935a1.34 1.34 0 0 0-1.126-1.342l-1.544-.262a8.7 8.7 0 0 0-.62-1.498l.91-1.273a1.356 1.356 0 0 0-.148-1.752l-1.37-1.37a1.35 1.35 0 0 0-1.746-.147l-1.28.91a8.6 8.6 0 0 0-1.552-.64l-.257-1.524a1.36 1.36 0 0 0-1.343-1.135zM10 1.234h1.934c.06 0 .111.04.12.1l.322 1.916c.041.244.22.442.46.502a7.5 7.5 0 0 1 1.971.809.62.62 0 0 0 .675-.028l1.586-1.14a.14.14 0 0 1 .07-.023c.018 0 .055.004.087.036l1.37 1.37a.125.125 0 0 1 .013.157l-1.135 1.595a.62.62 0 0 0-.027.675c.358.602.625 1.251.8 1.926a.61.61 0 0 0 .496.455l1.93.326c.06.01.102.06.102.12v1.935h-.004a.12.12 0 0 1-.102.12l-1.93.32a.62.62 0 0 0-.497.456 7.4 7.4 0 0 1-.8 1.926.62.62 0 0 0 .028.675l1.135 1.6a.125.125 0 0 1-.014.156l-1.37 1.37a.117.117 0 0 1-.157.014l-1.595-1.135a.62.62 0 0 0-.676-.028 7.4 7.4 0 0 1-1.926.8.61.61 0 0 0-.455.497l-.326 1.93a.12.12 0 0 1-.12.102H10.03a.12.12 0 0 1-.12-.102l-.321-1.93a.62.62 0 0 0-.455-.497 7.7 7.7 0 0 1-1.885-.772.64.64 0 0 0-.312-.082.6.6 0 0 0-.358.115l-1.61 1.144a.14.14 0 0 1-.068.023.12.12 0 0 1-.088-.038l-1.37-1.369a.125.125 0 0 1-.014-.156l1.131-1.586a.63.63 0 0 0 .028-.68 7.3 7.3 0 0 1-.81-1.921.63.63 0 0 0-.496-.455l-1.944-.33a.12.12 0 0 1-.1-.12v-1.935c0-.06.04-.11.1-.12l1.916-.322a.62.62 0 0 0 .502-.46c.17-.675.431-1.328.786-1.93a.61.61 0 0 0-.033-.67l-1.144-1.61a.125.125 0 0 1 .014-.156l1.37-1.37a.12.12 0 0 1 .088-.037q.04.002.068.023l1.586 1.13a.63.63 0 0 0 .68.028 7.3 7.3 0 0 1 1.921-.809.63.63 0 0 0 .455-.497l.33-1.944c.01-.06.06-.1.12-.1z" transform="translate(.007 .007)scale(2.9087)"/><path fill="url(#c)" d="M9.056 6.038c-.507 0-1.015.193-1.4.579L5.728 8.545c-.112.112-.134.265-.169.411-.146.028-.298.056-.41.167l-.588.588a.78.78 0 0 0 0 1.092l1.148 1.149a.78.78 0 0 0 1.092 0l.588-.59c.112-.111.14-.263.167-.41.147-.034.3-.056.412-.168l-.033.032 1.625 1.626.56-.56-1.904-1.906a.396.396 0 0 0-.56 0l-.247.248q-.032.034-.065 0a.396.396 0 0 0-.56.56l.032.032-.56.562-1.12-1.122.56-.56.033.034a.397.397 0 0 0 .56-.561q-.035-.033 0-.065l1.928-1.928c.235-.236.538-.353.84-.353s.604.117.84.353l.28.28-.118.117c-.434-.185-.931-.19-1.282.163-.461.46-.461 1.22 0 1.68l1.904 1.906.56-.56-1.904-1.906c-.158-.158-.158-.403 0-.56s.402-.158.56 0a.396.396 0 0 0 .56 0l.56-.56a.396.396 0 0 0 0-.56l-.56-.56a1.97 1.97 0 0 0-1.4-.58zm3.304 5.845-.56.56 2.857 2.856-.56.56-2.857-2.856-.56.56 3.137 3.136a.396.396 0 0 0 .56 0l1.12-1.12a.396.396 0 0 0 0-.56z" transform="translate(.007 .007)scale(2.9087)"/><path fill="url(#d)" d="M14.03 6.276a2.79 2.79 0 0 0-1.909.804l-.001.002c-.744.748-.908 1.838-.58 2.821l-4.46 4.459c-.46.46-.46 1.22 0 1.68.461.46 1.22.46 1.68 0l4.46-4.459c.982.328 2.074.164 2.82-.58V11a2.775 2.775 0 0 0 .542-3.154.396.396 0 0 0-.637-.11L14.673 9.01q-.033.033-.065 0l-.495-.495q-.034-.033 0-.065l1.267-1.267a.396.396 0 0 0-.11-.638 2.76 2.76 0 0 0-1.24-.269zm-.22.812c.154-.004.308.064.464.08l-.72.721a.844.844 0 0 0 0 1.185l.495.495a.844.844 0 0 0 1.185 0l.725-.725c.06.581-.047 1.167-.478 1.598a1.98 1.98 0 0 1-2.249.382.4.4 0 0 0-.45.077l-4.58 4.58c-.16.16-.4.16-.56 0s-.16-.4 0-.56l4.58-4.58a.4.4 0 0 0 .077-.45 1.98 1.98 0 0 1 .382-2.251c.297-.295.67-.48 1.063-.546a1 1 0 0 1 .067-.006z" transform="translate(.007 .007)scale(2.9087)"/></svg>