<svg version="1.1" viewBox="0 0 64 64" xmlns="http://www.w3.org/2000/svg">
 <defs>
  <linearGradient id="a" x1="1" x2="0" y1="1">
   <stop stop-color="#f0f" offset="0"/>
   <stop stop-color="#fca" offset="1"/>
  </linearGradient>
 </defs>
 <path transform="translate(.004276 -.00133) scale(.9999) translate(-.004284 1e-5) scale(.9999)" d="m64.01 32c0-5.332 0.03866-9.46-0.3465-12.95-0.3854-3.488-1.228-6.368-3.046-8.87-1.096-1.507-2.423-2.837-3.933-3.933-2.499-1.815-5.382-2.664-8.87-3.052-3.488-0.3857-7.63-0.3409-12.96-0.3409h-5.693c-5.332 0-9.478-0.04462-12.97 0.3409-3.488 0.3854-6.362 1.233-8.864 3.052-1.508 1.096-2.837 2.423-3.933 3.933-1.815 2.499-2.664 5.382-3.052 8.87-0.3857 3.488-0.3409 7.619-0.3409 12.95 0 5.332-0.04451 9.478 0.3409 12.97s1.233 6.368 3.052 8.87c1.096 1.508 2.423 2.831 3.933 3.927 2.499 1.815 5.376 2.67 8.864 3.057 3.488 0.3857 7.636 0.3351 12.97 0.3351h5.693c5.332 0 9.472 0.05018 12.96-0.3351 3.488-0.3854 6.368-1.239 8.87-3.057 1.507-1.096 2.837-2.418 3.933-3.927 1.815-2.499 2.659-5.382 3.046-8.87 0.3857-3.488 0.3465-7.636 0.3465-12.97zm-7.051 0c0 10.66-0.3063 15.29-2.051 17.69-0.6595 0.9082-1.461 1.697-2.369 2.358-2.401 1.745-7.017 2.057-17.68 2.057h-5.693c-10.66 0-15.27-0.3124-17.68-2.057-0.9094-0.6606-1.703-1.448-2.364-2.358-1.745-2.401-2.057-7.028-2.057-17.69s0.3121-15.27 2.057-17.68c0.6606-0.9094 1.455-1.697 2.364-2.358 2.401-1.745 7.011-2.057 17.68-2.057h5.693c10.66 0 15.28 0.3121 17.68 2.057 0.9094 0.6606 1.709 1.448 2.369 2.358 1.745 2.401 2.051 7.011 2.051 17.68z" fill="url(#a)" stroke-width="2.909"/>
 <path transform="translate(.004276 -.00133) scale(.9999) translate(-.004284 1e-5) scale(.9999)" d="m32.01 50.86v-0.01135a5.143 5.143 0 0 0 5.143-5.143v-15.45h5.347a3.313 3.313 0 0 0 3.063-2.04 3.313 3.313 0 0 0-0.7214-3.613l-10.49-10.49a3.293 3.293 0 0 0-4.686 0l-10.49 10.49a3.325 3.325 0 0 0 0.4942 5.12 3.313 3.313 0 0 0 1.841 0.5399h5.353v15.45a5.143 5.143 0 0 0 5.155 5.149z" fill="url(#a)" stroke-width="2.909"/>
</svg>
