<svg image-rendering="optimizeSpeed" version="1.1" viewBox="0 0 64 64" xmlns="http://www.w3.org/2000/svg">
 <defs>
  <linearGradient id="b" x1="95.52" x2="118" y1="10.86" y2="33.3" gradientTransform="translate(37.74)" gradientUnits="userSpaceOnUse">
   <stop stop-color="#f82eb0" offset="0"/>
   <stop stop-color="#6e07e7" offset="1"/>
  </linearGradient>
  <linearGradient id="a" x1="138.9" x2="161.3" y1="11.24" y2="33.67" gradientTransform="rotate(180 156.5 31.23)" gradientUnits="userSpaceOnUse">
   <stop stop-color="#24a0fe" offset="0"/>
   <stop stop-color="#5200f0" offset="1"/>
  </linearGradient>
 </defs>
 <g transform="translate(-0 6.3e-5) scale(1) translate(-.05646 -.01137) scale(1.001)" fill-rule="evenodd" stroke-linecap="round" stroke-linejoin="round">
  <g transform="translate(-189.6 -13.124)scale(1.444)" fill="url(#a)">
   <path d="m147.6 53.31-.023-.291c0-15.28 12.39-27.67 27.67-27.67l.304.021v-4.109c-.033-.442-.326-1.535-2.34-2.082-17.16 1.017-30.88 14.79-31.81 31.98.027 1.892 2.31 2.152 2.31 2.152z" style="paint-order:stroke fill markers"/>
   <path d="m160.3 53.31-.025-.291c0-8.276 6.709-14.98 14.98-14.98l.304.023v-6.484l-.304-.02c-11.85.001-21.46 9.612-21.46 21.46q.009.147.021.292z" style="paint-order:stroke fill markers"/>
   <path d="M166.2 53.27h3.275a6.3 6.3 0 0 0 1.24-.125 6.1 6.1 0 0 0 3.309-1.883 6.2 6.2 0 0 0 .853-1.2 6 6 0 0 0 .463-1.102 6 6 0 0 0 .15-.59 6 6 0 0 0 .126-1.24v-3.233a9 9 0 0 0-.278-.03 9.15 9.15 0 0 0-9.147 9.15z" style="paint-order:stroke fill markers"/>
  </g>
  <g transform="translate(-189.6 -13.124)scale(1.444)" fill="url(#b)">
   <path d="m159.3 9.158.023.291c0 15.28-12.39 27.67-27.67 27.67l-.304-.021v4.109c.034.442.327 1.535 2.34 2.082 17.16-1.017 30.88-14.79 31.81-31.98-.027-1.892-2.31-2.152-2.31-2.152z" style="paint-order:stroke fill markers"/>
   <path d="M146.6 9.158q.014.146.025.291c0 8.276-6.709 14.98-14.98 14.98l-.304-.023v6.484l.304.02c11.85-.001 21.46-9.612 21.46-21.46l-.021-.292z" style="paint-order:stroke fill markers"/>
   <path d="M140.8 9.195h-3.275a6.3 6.3 0 0 0-1.24.125 6.1 6.1 0 0 0-3.309 1.883 6.2 6.2 0 0 0-.853 1.2 6 6 0 0 0-.463 1.102 6 6 0 0 0-.15.59 6 6 0 0 0-.126 1.24v3.233a9 9 0 0 0 .278.03 9.15 9.15 0 0 0 9.147-9.15z" style="paint-order:stroke fill markers"/>
  </g>
  <path transform="translate(-189.6 -13.124)scale(1.444)" d="m166.7 20.23a34 34 0 0 0-3.326 1.06 33.96 33.96 0 0 1-19.84 19.89 34 34 0 0 0-1.02 3.211 33.7 33.7 0 0 0 7.711-3.076 27.74 27.74 0 0 1 13.4-13.38 33.6 33.6 0 0 0 3.078-7.707z" fill="#4200aa" style="paint-order:stroke fill markers"/>
 </g>
</svg>
