<svg version="1.1" viewBox="0 0 64 64" xmlns="http://www.w3.org/2000/svg">
 <g transform="translate(0) scale(1) translate(0 -2e-5) scale(1) translate(0 .01115) scale(.9997)" stroke-width=".293">
  <path d="M51.18 60.068q-1.038-.273-1.966-.819c-.928-.546-1.183-.801-1.693-1.31l-.71.437a2.1 2.1 0 0 1-1.556.054 2.26 2.26 0 0 1-1.228-.983l-.327-.491a2.2 2.2 0 0 1-.301-1.556q.136-.846.847-1.392l.655-.492a5.53 5.53 0 0 1 0-4.04l-.655-.546a1.94 1.94 0 0 1-.847-1.339q-.135-.847.3-1.61l.328-.492a2.27 2.27 0 0 1 1.228-.983 1.94 1.94 0 0 1 1.556.11l.71.382a11 11 0 0 1 1.72-1.228q.9-.52 1.938-.793l.055-.982a2.13 2.13 0 0 1 .737-1.365q.628-.546 1.392-.546h.655q.765 0 1.365.518c.6.519.637.774.71 1.284l.11 1.091a7.9 7.9 0 0 1 1.937.793 11 11 0 0 1 1.72 1.228l.656-.382a2.12 2.12 0 0 1 1.529-.082q.764.246 1.256.955l.327.492q.492.765.328 1.61a2.34 2.34 0 0 1-.82 1.393l-.655.491q.329.983.328 2.02 0 1.038-.328 2.021l.656.492q.655.546.819 1.42c.164.874 0 1.11-.328 1.584l-.273.491q-.437.71-1.256.928a2.36 2.36 0 0 1-1.584-.109l-.655-.382q-.765.764-1.692 1.31a7.8 7.8 0 0 1-1.966.819l-.11.983q-.108.819-.71 1.338c-.601.519-.855.519-1.364.519h-.656q-.764 0-1.392-.519a2.02 2.02 0 0 1-.737-1.338zm2.524-4.532q1.641 0 2.841-1.178 1.2-1.179 1.2-2.862c0-1.683-.4-2.076-1.2-2.862q-1.2-1.18-2.841-1.18-1.684 0-2.883 1.18c-1.199 1.18-1.2 1.74-1.2 2.862s.4 2.076 1.2 2.862q1.2 1.178 2.883 1.178" fill="#a0f"/>
  <path d="M56.27 1.089q3.21 0 5.47 2.283T63.998 8.9v23.85q0 1.623-1.11 2.744c-1.11 1.12-1.653 1.12-2.74 1.12s-2.005-.374-2.754-1.12q-1.125-1.12-1.125-2.744V8.9H8.339v15.46q0 1.624-1.125 2.743-1.125 1.12-2.754 1.12c-1.629 0-2-.373-2.74-1.12Q.61 25.983.61 24.36V8.9q0-3.244 2.259-5.527t5.47-2.283z" fill="#0ff"/>
  <path d="M3.863 59.138Q0 55.361 0 49.985q0-3.324 1.6-6.182a12.6 12.6 0 0 1 2.837-3.469h-.849q-1.342 0-2.302-.966a3.17 3.17 0 0 1-.955-2.316q.001-1.359.962-2.298a3.17 3.17 0 0 1 2.296-.935h10.59q1.567 0 2.65 1.127a3.7 3.7 0 0 1 1.071 2.66v10.59q-.001 1.377-.979 2.29-.96.901-2.304.902c-.908 0-1.662-.31-2.263-.918-.598-.605-.904-1.362-.904-2.274v-4.488a6.5 6.5 0 0 0-3.338 2.026q-1.6 1.794-1.599 4.234 0 2.684 1.939 4.583 1.946 1.906 4.733 1.905 1.344 0 2.303.967.955.964.955 2.316-.002 1.369-.972 2.274-.952.892-2.286.892-5.469-.001-9.325-3.77z" fill="#ff0"/>
  <path d="M23.98 31.368h-3.759c-1.08 0-1.868-.49-2.358-1.484-.491-.997-.379-1.94.36-2.826l.012-.014 11.29-13.51c.516-.659 1.184-.984 1.999-.984.804 0 1.484.318 2.032.972l11.26 13.52.01.013c.74.886.852 1.829.36 2.826q-.737 1.486-2.358 1.484H39.07v18.34q-.001 1.094-.757 1.848a2.52 2.52 0 0 1-1.848.758h-9.875q-1.094-.002-1.848-.758a2.51 2.51 0 0 1-.758-1.848zm5.25 13.44a2.26 2.26 0 0 0 2.263 2.263h.099a2.263 2.263 0 0 0 2.263-2.263v-17.6c0-.438.355-.793.793-.793h1.319a.535.535 0 0 0 .4-.892l-3.792-4.944a1.325 1.325 0 0 0-2.104 0l-3.792 4.944a.535.535 0 0 0 .4.892h1.357c.438 0 .793.355.793.793z" fill="#0ff"/>
 </g>
</svg>
