<svg fill="none" version="1.1" viewBox="0 0 64 64" xmlns="http://www.w3.org/2000/svg">
 <defs>
  <linearGradient id="a" x1="63" x2="63" y1="117" y2="20" gradientUnits="userSpaceOnUse">
   <stop stop-color="#fd5900" offset="0"/>
   <stop stop-color="#ffde00" offset="1"/>
  </linearGradient>
  <linearGradient id="b" x1="22.61" x2="22.61" y1="32" y2="12" gradientUnits="userSpaceOnUse">
   <stop stop-color="#fd3a84" offset="0"/>
   <stop stop-color="#ffa68d" offset="1"/>
  </linearGradient>
  <linearGradient id="c" x1="105.5" x2="105.5" y1="32" y2="12" gradientUnits="userSpaceOnUse">
   <stop stop-color="#5570ff" offset="0"/>
   <stop stop-color="#4dd3ff" offset="1"/>
  </linearGradient>
  <linearGradient id="f" x1="63.63" x2="63.63" y1="32" y2="12" gradientUnits="userSpaceOnUse">
   <stop stop-color="#00b59c" offset="0"/>
   <stop stop-color="#9cffac" offset="1"/>
  </linearGradient>
  <linearGradient id="g" x1="93" x2="93" y1="100.1" y2="78" gradientUnits="userSpaceOnUse">
   <stop stop-color="#fd5900" offset="0"/>
   <stop stop-color="#ffde00" offset="1"/>
  </linearGradient>
 </defs>
 <path transform="translate(-0) scale(1) translate(-0) scale(1) translate(5.3e-5 -1e-4) scale(1) translate(-.504 -1.242) scale(.5075)" d="M7.982 20a4.98 4.98 0 0 1 4.982 4.982v78.82c0 2.43 2.231 4.4 4.982 4.4h90.11c2.751 0 4.982-1.97 4.982-4.4v-78.82a4.982 4.982 0 0 1 9.965 0v78.82c0 7.291-6.692 13.2-14.95 13.2h-90.11c-8.255 0-14.95-5.91-14.95-13.2v-78.82A4.98 4.98 0 0 1 7.975 20z" clip-rule="evenodd" fill="url(#a)" fill-rule="evenodd" stroke="url(#a)" stroke-width="4"/>
 <path transform="translate(-0) scale(1) translate(-0) scale(1) translate(5.3e-5 -1e-4) scale(1) translate(-.504 -1.242) scale(.5075)" d="M34.22 12H11C5.477 12 1 16.477 1 22s4.477 10 10 10h23.22c5.523 0 10-4.477 10-10s-4.477-10-10-10" fill="url(#b)"/>
 <path transform="translate(-0) scale(1) translate(-0) scale(1) translate(5.3e-5 -1e-4) scale(1) translate(-.504 -1.242) scale(.5075)" d="M117.1 12H93.88c-5.523 0-10 4.477-10 10s4.477 10 10 10h23.22c5.523 0 10-4.477 10-10s-4.477-10-10-10" fill="url(#c)"/>
 <path transform="translate(-0) scale(1) translate(-0) scale(1) translate(5.3e-5 -1e-4) scale(1) translate(-.504 -1.242) scale(.5075)" d="M75.7 12H51.55c-5.523 0-10 4.477-10 10s4.477 10 10 10H75.7c5.523 0 10-4.477 10-10s-4.477-10-10-10" fill="url(#f)"/>
 <path transform="translate(-0) scale(1) translate(-0) scale(1) translate(5.3e-5 -1e-4) scale(1) translate(-.504 -1.242) scale(.5075)" d="M100.1 80.11c-3.207-2.142-7.569-2.727-11.28-1.419-4.781 1.569-8.117 6.17-7.813 10.84.128 4.495 3.558 8.635 8.157 10.05.156.035.39.085.624.135l.618.133q1-1.311 1.994-2.628c3.512-4.642 7.034-9.296 11.07-13.56-.824-1.401-2.046-2.546-3.363-3.561zm-7.702 17.12q-.995 1.317-1.994 2.628c5.523 1.239 11.66-1.73 13.7-6.618 1.371-3.063 1.128-6.68-.642-9.569-4.032 4.262-7.553 8.916-11.06 13.56z" clip-rule="evenodd" fill="url(#g)" fill-rule="evenodd"/>
</svg>
