<svg version="1.1" viewBox="0 0 64 64" xmlns="http://www.w3.org/2000/svg">
 <defs>
  <linearGradient id="a" y1="1">
   <stop stop-color="#ffa800" offset="0"/>
   <stop stop-color="#fff737" offset="1"/>
  </linearGradient>
 </defs>
 <path transform="translate(.005491) scale(1) translate(-.00084) scale(1)" d="m31.99 0c-8.998 0-16.36 7.36-16.36 16.36v4.828c-4.753 1.65-8.469 5.633-9.158 10.77-0.4253 3.159-0.7891 6.497-0.7891 9.982s0.3638 6.825 0.7891 9.99c0.8643 6.42 6.198 11.47 12.73 11.77 4.081 0.1875 8.226 0.2891 12.78 0.2891s8.709-0.1015 12.79-0.2891c6.534-0.3005 11.86-5.35 12.73-11.77 0.4253-3.159 0.7949-6.496 0.7949-9.99s-0.3696-6.826-0.7949-9.982c-0.6926-5.143-4.402-9.124-9.152-10.77v-4.828c0-8.998-7.36-16.36-16.36-16.36zm0 7.131c5.146-3e-7 9.227 4.08 9.227 9.227v3.715c-2.97-0.09702-5.963-0.1699-9.227-0.1699-3.261 0-6.256 0.07294-9.227 0.1699v-3.715c0-5.146 4.08-9.227 9.227-9.227zm0 19.9c4.454 0 8.485 0.09667 12.46 0.2793 3.028 0.1392 5.574 2.524 5.99 5.602 0.4087 3.037 0.7324 6.05 0.7324 9.029s-0.3237 5.998-0.7324 9.035c-0.4142 3.075-2.959 5.47-5.99 5.609-3.974 0.1826-8.002 0.2793-12.46 0.2793s-8.485-0.09673-12.46-0.2793c-3.028-0.1392-5.574-2.532-5.99-5.609-0.4087-3.037-0.7324-6.056-0.7324-9.035s0.3234-5.992 0.7324-9.029c0.4142-3.075 2.959-5.462 5.99-5.602 3.974-0.1827 8.005-0.2793 12.46-0.2793z" fill="url(#a)"/>
 <path transform="translate(.005491) scale(1) translate(-.00084) scale(1)" d="m31.99 33.95a4.768 4.768 0 0 0-3.197 8.348v4.453a3.2 3.2 0 0 0 6.396 0v-4.453a4.768 4.768 0 0 0-3.197-8.348z" fill="url(#a)"/>
</svg>
