<svg fill="none" version="1.1" viewBox="0 0 64 64" xmlns="http://www.w3.org/2000/svg">
 <defs>
  <linearGradient id="a" x1=".3" x2="1.333" y1="1.326" y2=".213" gradientTransform="matrix(43.5 0 0 44 5 2)" gradientUnits="userSpaceOnUse">
   <stop stop-color="#00f1fa" offset="0"/>
   <stop stop-color="#006cff" offset="1"/>
  </linearGradient>
 </defs>
 <path transform="translate(0) scale(1) translate(0 -3e-5) scale(1) translate(-.001001 -2e-4) scale(.9997) translate(-1.56 -1.226) scale(1.041)" d="M11.78 3.496c-1.297-.01-2.612.036-3.924.318l-.02.004C4.46 4.69 1.822 7.626 1.564 10.97v.006c-.108 1.717-.047 3.416-.05 5.088v.002c-.048.93.3 1.966 1.207 2.54 1.584 1.142 4.036.254 4.393-1.634l.004-.02.002-.019c.21-1.896-.026-3.73.113-5.478.097-1.248 1.327-2.398 2.705-2.467 2.68-.11 5.412.08 8.176-.082h.02l.017-.004c2.129-.29 3.066-3.032 1.564-4.498-.575-.627-1.351-.83-2.068-.879-.724-.05-1.433.026-2-.004l-.023-.002H15.6c-1.243.055-2.523-.012-3.82-.023m15.31.535c-1.322-.09-2.51 1.06-2.394 2.303.008 1.188 1.187 2.216 2.447 2.12 9.213.034 18.43-.008 27.64.023 1.886-.059 3.563 1.523 3.514 3.3.033 5.883-.005 11.76.016 17.65-8.604.04-17.21.028-25.82.075-1.227-.05-2.34.958-2.352 2.11-.107 1.216 1.02 2.35 2.318 2.315 8.612.09 17.23-.082 25.84-.031-.021 2.07.082 4.143-.041 6.209-.19 1.77-2.075 3.028-3.912 2.85-14.69-.016-29.38.015-44.07 0-1.862.07-3.58-1.44-3.566-3.203-.062-4.791.04-9.582-.041-14.37.049-1.666-2.22-2.765-3.63-1.756-.934.528-1.077 1.619-1.032 2.555.04 4.659-.054 9.319.044 13.98.136 3.817 3.748 7.17 7.805 7.209 5.605.003 11.21.038 16.81-.016-3.282 2.757-6.415 5.669-9.652 8.469-.667.594-1.479 1.226-1.508 2.17-.131 1.312 1.157 2.486 2.545 2.357q14.436.018 28.88 0c1.389.124 2.637-1.08 2.497-2.381-.062-1.114-1.121-1.766-1.88-2.477-3.125-2.694-6.09-5.565-9.313-8.15 5.65.085 11.3.035 16.96.035 4.209-.054 7.863-3.672 7.793-7.629.008-9.45.02-18.91-.004-28.36-.079-3.863-3.694-7.307-7.805-7.354-9.361-.015-18.73-.011-28.09 0zm5.41 44.2c2.908 2.535 5.758 5.136 8.678 7.664-5.803.016-11.6.016-17.4.004 2.936-2.528 5.794-5.136 8.727-7.668z" fill="url(#a)" style="-inkscape-stroke:none"/>
</svg>
