<svg version="1.1" viewBox="0 0 64 64" xmlns="http://www.w3.org/2000/svg">
 <defs>
  <linearGradient id="a" x2="0" y1="1">
   <stop stop-color="#f7f206" offset="0"/>
   <stop stop-color="#ffbb24" offset="1"/>
  </linearGradient>
 </defs>
 <path transform="translate(-.005136 .00392) scale(.9999) translate(.00073 -1.2e-5) scale(1) translate(-10.65 -10.66) scale(1.776)" d="M11.86 6.004A2 2 0 0 0 10.266 7h-.268a3 3 0 0 0-3 3v9c-.552 0-1.005.448-.955.998a11 11 0 0 0 7.955 9.584V32c0 1.306.835 2.418 2 2.83a7.25 7.25 0 1 0 14.5-.08v-4a3.75 3.75 0 0 1 7.5 0v2.42a3.001 3.001 0 1 0 2 0v-2.42a5.75 5.75 0 0 0-11.5 0v4a5.25 5.25 0 0 1-10.5.08 3 3 0 0 0 2-2.83v-2.418a11 11 0 0 0 7.955-9.584c.05-.55-.403-.998-.955-.998v-9a3 3 0 0 0-3-3h-.267a2 2 0 0 0-3.732 1 2 2 0 0 0 3.732 1h.267a1 1 0 0 1 1 1v9h.211c-.553 0-.993.45-1.07.996a7.21 7.21 0 0 1-14.28 0C9.782 19.45 9.342 19 8.79 19H9v-9a1 1 0 0 1 1-1h.268A2 2 0 0 0 12 10a2 2 0 1 0-.14-3.996z" fill="url(#a)"/>
</svg>
