<svg version="1.1" viewBox="0 0 64 64" xmlns="http://www.w3.org/2000/svg">
 <defs>
  <linearGradient id="a" y1="1">
   <stop stop-color="#ff0" offset="0"/>
   <stop stop-color="#f0f" offset="1"/>
  </linearGradient>
 </defs>
 <path transform="translate(-0) scale(1) translate(-0) scale(1) translate(-.001647 -.000362) scale(1) translate(-.004 .009) scale(.9996)" d="m56.28.846-.004.013-2.438 5.691-6.547.795 5.684 3.46.186 1.815C47.049 9.096 38.22 7.023 26.4 7.96l-2.723-.45-3.25-5.179.066 5.363L13.86 9.91l7.422.615 1.06 4.555 2.302-5.094 2.414-.369c27.5 2.97 37.41 27.61 10.5 27.98l.705-5.068 4.953-5.894-6.92-3.365-4.074-6.535-5.342 5.543-.554.14c-30.01-3.577-33.15 15.49-15.54 25.14l-1.61 1.712-6.343-1.928 4.453 5.31-2.04 5.734 4.905-4.201 6.34 2.44-4.094-5.914.63-2.025c8.416 3.862 20.73 5.683 36.46 2.793-32.49 4.5-49.08-18.59-29.56-26.38l3.106 5.83-.539 7.68 7.578-1.344 2.594 1.053c29.43 13.83 40.1-11.31 23.16-23.97l1.938-2.996 6.264-2.225L58.38 7.13zM2.1 7.52l.652 3.518L.13 14.003l3.668-.438 2.367 3.146.094-3.973 3.34-2.416-4.478-.23zm48.34 40.23v.002l1.92 6.963-4.23 5.535 6.686-1.711 4.541 4.62-.34-6.93 4.746-4.095-6.953.21z" fill="url(#a)"/>
</svg>
