<svg version="1.1" viewBox="0 0 64 64" xmlns="http://www.w3.org/2000/svg">
 <defs>
  <linearGradient id="a" x2="0" y1="1">
   <stop stop-color="#ff930f" offset="0"/>
   <stop stop-color="#fff95b" offset="1"/>
  </linearGradient>
 </defs>
 <path transform="translate(.6598 .4938) scale(.9792)" d="m10.87-0.502c-0.1602-0.005324-0.3239-0.001535-0.4922 0.009766a0.5 0.5 0 0 0-0.001953 0c-1.225 0.08519-2.289 0.7723-2.986 1.768h-0.2852c-3.213 0-5.828 2.615-5.828 5.828v15.69c-0.986 0.2574-1.791 1.033-1.693 2.107 0.7396 8.12 6.356 14.92 14.13 17.29v3.98c0 2.407 1.486 4.444 3.576 5.33 0.01478 7.377 6.008 13.4 13.43 13.36 7.526-0.04168 13.55-6.298 13.3-13.82v-7.086c0-3.408 2.752-6.16 6.16-6.16 3.408 0 6.16 2.752 6.16 6.16v4.014c-2.764 1.173-3.888 3.859-3.469 6.293 0.4377 2.542 2.519 4.84 5.744 4.84s5.308-2.298 5.746-4.84c0.4189-2.433-0.7068-5.117-3.469-6.291v-4.016c0-5.909-4.802-10.71-10.71-10.71s-10.71 4.802-10.71 10.71v7.096c-0.0793 4.795-3.959 8.639-8.754 8.676-4.698 0.03594-8.526-3.614-8.824-8.27 2.09-0.9292 3.489-2.966 3.488-5.281v-3.98c7.773-2.371 13.39-9.169 14.13-17.29 0.09769-1.075-0.7075-1.85-1.693-2.107v-15.69c0-3.213-2.615-5.828-5.828-5.828h-0.2988c-0.7996-1.132-2.074-1.847-3.475-1.77a0.5 0.5 0 0 0-0.003906 0h-0.01172-0.003906c-2.14 0.1203-3.825 1.901-3.826 4.045 5.4e-4 2.037 1.384 3.478 3.004 3.912 1.528 0.4098 3.295-0.1001 4.35-1.635h0.248c0.7101 3.997e-4 1.275 0.5653 1.275 1.275v15.83c-0.7722 0.3545-1.398 0.9757-1.52 1.844a0.5 0.5 0 0 0 0 0.001953c-0.8398 6.09-6.038 10.62-12.19 10.62s-11.34-4.529-12.18-10.62a0.5 0.5 0 0 0 0-0.001953c-0.1224-0.8679-0.7495-1.489-1.521-1.844v-15.83c4e-4 -0.7106 0.5667-1.276 1.277-1.275h0.291c0.7543 1.071 1.935 1.776 3.26 1.775a0.5 0.5 0 0 0 0.001953 0c1.349-0.003778 2.411-0.5385 3.09-1.338s0.9829-1.837 0.9473-2.855c-0.03561-1.019-0.4115-2.035-1.145-2.785-0.6414-0.6563-1.562-1.09-2.684-1.127zm17.4 33.63c-0.5877 0.5121-1.221 0.9739-1.891 1.377 0.67-0.403 1.303-0.8648 1.891-1.377z" fill="url(#a)" stop-color="#000000" stroke-linecap="round" stroke-linejoin="round"/>
</svg>
