<svg version="1.1" viewBox="0 0 64 64" xmlns="http://www.w3.org/2000/svg">
 <defs>
  <linearGradient id="a" y1=".5" y2=".5">
   <stop stop-color="#00f1fa" offset="0"/>
   <stop stop-color="#006cff" offset="1"/>
  </linearGradient>
 </defs>
 <path transform="translate(-5e-5) scale(1) translate(5e-5) scale(1) translate(.0125 .000584) scale(.9996) translate(-3.719 -3.718) scale(2.977)" d="m12 9.25c-1.51 0-2.75 1.24-2.75 2.75s1.24 2.75 2.75 2.75 2.75-1.24 2.75-2.75-1.24-2.75-2.75-2.75zm0 1.5c0.6993 0 1.25 0.5507 1.25 1.25s-0.5507 1.25-1.25 1.25-1.25-0.5507-1.25-1.25 0.5507-1.25 1.25-1.25z" fill="url(#a)"/>
 <path transform="translate(-5e-5) scale(1) translate(5e-5) scale(1) translate(.0125 .000584) scale(.9996) translate(-3.719 -3.718) scale(2.977)" d="m11.91 1.25c-0.8286 0.02446-1.269 0.5479-1.791 1.119-0.5217 0.5713-1.04 1.294-1.496 2.031-0.4559 0.7378-0.8453 1.483-1.096 2.121-0.1252 0.3189-0.2188 0.6057-0.2598 0.9004-0.02047 0.1473-0.03046 0.2968 0.003906 0.4824 0.03437 0.1856 0.1364 0.4406 0.373 0.6133 0.2899 0.2116 0.6436 0.2522 0.9297 0.2227 0.2861-0.02957 0.5485-0.1147 0.8418-0.2285 0.5866-0.2276 1.294-0.5906 2.234-1.07 0.1224-0.0624 0.1742-0.07796 0.1875-0.08203 0.01505 0.00343 0.065 0.01593 0.1777 0.06641 0.2352 0.1053 1.012 0.5559 1.793 0.8926 0.3907 0.1684 0.7918 0.3168 1.211 0.3867 0.4191 0.06987 0.9226 0.0816 1.361-0.2637 0.2271-0.1787 0.3205-0.4298 0.3516-0.6152 0.03109-0.1854 0.0187-0.3378-0.0039-0.4863-0.04524-0.297-0.1425-0.586-0.2734-0.9062-0.262-0.6406-0.6685-1.385-1.141-2.119-0.4722-0.7338-1.007-1.449-1.547-2.01s-1.017-1.08-1.857-1.055zm0.04492 1.539c0.09813 0.06728 0.4179 0.2302 0.7324 0.5566 0.4371 0.4537 0.9336 1.11 1.365 1.781 0.4317 0.6708 0.8049 1.364 1.014 1.875 0.03211 0.07852 0.0309 0.1053 0.05469 0.1738-0.2061-0.04887-0.4464-0.1181-0.7207-0.2363-0.6602-0.2845-1.315-0.6784-1.772-0.8828-0.2472-0.1107-0.5202-0.2067-0.8359-0.1973s-0.5776 0.1214-0.8223 0.2461c-0.9211 0.4696-1.6 0.8067-2.055 0.9863 0.00407-0.0106 0.00359-0.01268 0.00781-0.02344 0.1997-0.5086 0.5586-1.203 0.9766-1.879 0.4179-0.6763 0.8994-1.341 1.326-1.809 0.3078-0.337 0.6303-0.5186 0.7285-0.5918z" fill="url(#a)"/>
 <path transform="translate(-5e-5) scale(1) translate(5e-5) scale(1) translate(.0125 .000584) scale(.9996) translate(-3.719 -3.718) scale(2.977)" d="m15.51 15.25c-0.1653-4.88e-4 -0.325 0.02265-0.4727 0.05273-0.3938 0.08021-0.7622 0.2338-1.115 0.4043-0.7062 0.341-1.401 0.7881-1.576 0.877-0.1242 0.06298-0.175 0.07815-0.1875 0.08203-0.01486-0.0033-0.06531-0.01541-0.1797-0.06641-0.2354-0.1049-1.01-0.5517-1.791-0.8867-0.3906-0.1675-0.7942-0.3153-1.213-0.3848-0.4187-0.06948-0.9185-0.08202-1.357 0.2617-0.2272 0.178-0.3222 0.4277-0.3535 0.6133-0.03126 0.1856-0.01878 0.3381 0.00391 0.4863 0.04536 0.2965 0.1443 0.5853 0.2754 0.9043 0.2622 0.6381 0.6664 1.379 1.139 2.109 0.4723 0.7305 1.007 1.442 1.547 2 0.5401 0.5579 1.019 1.075 1.857 1.051 0.8263-0.02428 1.269-0.5445 1.791-1.113 0.5219-0.5688 1.038-1.287 1.494-2.022 0.456-0.7345 0.8471-1.478 1.098-2.113 0.1253-0.3176 0.2187-0.6023 0.2598-0.8965 0.02054-0.1471 0.03064-0.2986-0.0039-0.4844-0.03456-0.1858-0.1384-0.4394-0.375-0.6113v-2e-3h-2e-3c-0.2719-0.196-0.5624-0.2608-0.8378-0.2617zm-6.635 1.604c0.2066 0.0486 0.4456 0.1183 0.7207 0.2363 0.6603 0.2832 1.317 0.6756 1.773 0.8789 0.2471 0.1102 0.519 0.2086 0.834 0.1992 0.3149-0.0094 0.5777-0.1221 0.8223-0.2461 0.4047-0.2054 0.9666-0.5821 1.549-0.8633 0.2015-0.09733 0.3624-0.1439 0.5273-0.1973-0.01466 0.04077-0.01209 0.05207-0.0293 0.0957-0.1995 0.5058-0.5568 1.196-0.9746 1.869-0.4178 0.6729-0.8996 1.336-1.326 1.801-0.3089 0.3367-0.6328 0.5178-0.7305 0.5898-0.09699-0.06653-0.4182-0.23-0.7344-0.5566-0.437-0.4514-0.9337-1.104-1.365-1.772-0.4316-0.6675-0.8032-1.358-1.012-1.865-0.03162-0.07697-0.03116-0.1026-0.05469-0.1699z" fill="url(#a)"/>
</svg>
