<svg version="1.1" viewBox="0 0 64 64" xmlns="http://www.w3.org/2000/svg">
 <defs>
  <linearGradient id="a" x1="1" x2="0" y1="1">
   <stop stop-color="#ffab00" offset="0"/>
   <stop stop-color="#ff4b2b" offset=".5"/>
   <stop stop-color="#ff004c" offset="1"/>
  </linearGradient>
 </defs>
 <path transform="translate(.00196) scale(1) translate(-.0015)" d="m21 0c-0.9344 0-1.693 0.7594-1.693 1.693v21.99c0 0.9344 0.7594 1.693 1.693 1.693h21.99c0.9344 0 1.693-0.7594 1.693-1.693v-21.99c0-0.9344-0.7594-1.693-1.693-1.693h-21.99zm-12.69 27.77c-0.9344 0-1.691 0.7594-1.691 1.693v5.076c0 0.9344 0.7574 1.691 1.691 1.691h47.38c0.9344 0 1.689-0.7574 1.689-1.691v-5.076c0-0.9344-0.7555-1.693-1.689-1.693h-47.38zm23.69 10.85c-7.009 0-12.69 5.681-12.69 12.69s5.681 12.69 12.69 12.69 12.69-5.679 12.69-12.69-5.681-12.69-12.69-12.69z" fill="url(#a)"/>
</svg>
