<svg version="1.1" viewBox="0 0 64 64" xmlns="http://www.w3.org/2000/svg">
 <defs>
  <linearGradient id="a" y1="1">
   <stop stop-color="#ff0073" offset="0"/>
   <stop stop-color="#5a00ff" offset="1"/>
  </linearGradient>
  <linearGradient id="c" x2="0" y1="1">
   <stop stop-color="#95f" offset="0"/>
   <stop stop-color="#cd87de" offset=".5"/>
   <stop stop-color="#0cf" offset="1"/>
  </linearGradient>
 </defs>
 <path transform="translate(0) scale(1) translate(0) scale(1) translate(0 -2e-5) scale(1) translate(0 -.003) scale(.9998)" d="M4.924 7.387A4.924 4.924 0 0 0 0 12.311v39.39a4.924 4.924 0 0 0 4.924 4.926h54.16a4.924 4.924 0 0 0 4.924-4.926v-39.39a4.924 4.924 0 0 0-4.924-4.924zm4.924 4.924h48.01a1.23 1.23 0 0 1 1.23 1.23v36.93a1.23 1.23 0 0 1-1.23 1.23H9.848a1.23 1.23 0 0 1-1.23-1.23v-36.93a1.23 1.23 0 0 1 1.23-1.23m-5.539 16a.616.616 0 0 1 .615.615v6.156a.616.616 0 0 1-1.23 0v-6.156a.616.616 0 0 1 .615-.615zm0 8.617a.616.616 0 0 1 0 1.23.616.616 0 0 1 0-1.23" fill="url(#a)"/>
 <path transform="translate(0) scale(1) translate(0) scale(1) translate(0 -2e-5) scale(1) translate(0 -.003) scale(.9998)" d="M33.54 21.93c-.27-.055-.316-.068-9.391 5.727-2 1.277-4.153 2.654-5.68 3.613 1.406-1.216 3.483-2.829 4.947-3.963 3.812-2.956 3.797-2.979 3.537-3.394a.6.6 0 0 0-.404-.27c-.302-.058-.764.088-1.438.442.417-.476.487-.808.302-1.104a.4.4 0 0 0-.253-.18c-.198-.042-.194-.045-2.746 1.625a397 397 0 0 1-4.33 2.807 632 632 0 0 1 4.93-4.514.4.4 0 0 0-.504-.62c-2.343 1.697-4.961 3.467-6.18 4.128.575-.793 1.846-2.17 3.022-3.318a.4.4 0 0 0 .06-.5.56.56 0 0 0-.322-.213c-.305-.05-.689.116-2.064 1.211l-.15.12.22.331.078-.392-.125.654c-2.142 2.325-1.875 2.752-1.748 2.955a.55.55 0 0 0 .313.21c.333.059 1.292-.437 2.52-1.206-3.196 2.934-3.144 3.019-2.965 3.305a.44.44 0 0 0 .265.187c.273.06.615-.047 5.414-3.168l-1.104.764c-3.87 2.665-4.665 3.297-4.275 3.92.06.096.176.173.286.194.335.063.753-.203 3.719-2.38 1.509-1.106 3.926-2.878 5.498-3.823-.608.483-1.35 1.059-2.047 1.6-6.32 4.9-7.11 5.77-6.705 6.418.056.09.15.155.253.177.263.064.27.064 8.104-4.94 2.352-1.5 5.06-3.23 6.89-4.373-1.915 1.66-5.19 4.188-7.983 6.303a240 240 0 0 0-5.898 4.438l.016.022c-.266.256-.215.338-.111.506.06.095.158.162.27.181a.43.43 0 0 0 .316-.078l.58-.45c.329-.247.774-.58 1.254-.937 1.475-1.1 2.796-2.093 3.98-2.99 5.17-3.76 9.929-6.855 11.68-7.369-.6.412-1.55 1.032-2.533 1.674-9.63 6.282-14.99 10.26-13.91 11.98a.42.42 0 0 0 .261.186c.17.035.355.003 1.6-.758-.44.456-.718.848-.789 1.137a.73.73 0 0 0 .079.576c.056.09.147.157.252.18a.42.42 0 0 0 .302-.057c.573-.366 1.172-.749 1.787-1.14-.578.59-.946 1.107-1.045 1.526-.08.344.011.588.102.733a.4.4 0 0 0 .553.123c5.445-3.46 13.28-8.411 15.96-10.03-1.7 1.972-8.184 6.716-14.49 10.84a.4.4 0 0 0-.12.547c.058.093.18.174.286.197.492.107 1.938-.773 8.59-5.228 1.496-1.002 3.105-2.08 4.299-2.85-1.178.903-2.903 2.055-4.312 3-5.268 3.525-7.508 5.182-6.846 6.24.057.09.148.154.252.178.029.012.058.013.088.013v-.003q.114 0 .222-.061c3.803-2.431 5.4-1.907 6.012-2.207a.5.5 0 0 0 .114-.05.4.4 0 0 0 .127-.552.4.4 0 0 0-.252-.18c-.21-.04-.556-.532-4.975 1.384 1.353-1.18 3.95-2.92 5.709-4.096 4.834-3.234 6.478-4.443 5.938-5.31a.44.44 0 0 0-.272-.188c-.232-.049-.567.08-2.508 1.342 2.26-1.886 3.694-3.45 3.268-4.13a.4.4 0 0 0-.254-.18c-.213-.038-.375-.078-16.44 10.13 1.638-2.297 9.972-7.4 13.7-9.68 2.78-1.702 2.781-1.708 2.838-1.95a.407.407 0 0 0-.307-.49c-.197-.049-.446-.114-17.1 10.54 2.34-2.24 9.615-7.086 16.68-11.32a.4.4 0 0 0 .133-.554.45.45 0 0 0-.27-.19c-.393-.084-1.477.53-10.47 6.408-3.221 2.106-6.816 4.456-8.028 5.14.602-1.985 10.34-8.339 13.69-10.52 3.648-2.379 3.647-2.379 3.383-2.804a.8.8 0 0 0-.563-.357c-.713-.122-2.284.579-4.219 1.709 2.061-1.811 1.894-2.077 1.715-2.365a.4.4 0 0 0-.254-.18z" fill="url(#c)" fill-opacity=".852"/>
 <path transform="translate(0) scale(1) translate(0) scale(1) translate(0 -2e-5) scale(1) translate(0 -.003) scale(.9998)" d="M48.94 18.94v.002a1 1 0 0 0-.213.03.56.56 0 0 0-.318.28l-.768 1.59 3.846 1.863.77-1.592a.55.55 0 0 0-.258-.738l-2.85-1.38a.6.6 0 0 0-.21-.055zm-1.541 2.4-.266.553 3.846 1.86.266-.55zm-.51 1.053-.267.55 3.848 1.864.267-.553zm-.51 1.051-8.117 17.83a.6.6 0 0 0-.056.248l.04 3.553a.553.553 0 0 0 .737.518.5.5 0 0 0 .156-.084l2.81-2.174a.56.56 0 0 0 .161-.198l8.117-17.83z" fill="url(#c)" fill-opacity=".851"/>
</svg>
