<svg xmlns="http://www.w3.org/2000/svg" fill="none" viewBox="0 0 64 64"><defs><linearGradient id="a" x1="3.184" x2="23.48" y1="1.216" y2="13.77" gradientUnits="userSpaceOnUse"><stop offset="0" stop-color="#f9d423"/><stop offset=".516" stop-color="#ff4e50"/><stop offset=".991" stop-color="#8a2387"/></linearGradient><linearGradient id="b" x1="8.973" x2="20.5" y1="3.033" y2="16.34" gradientUnits="userSpaceOnUse"><stop offset="0" stop-color="#f9d423"/><stop offset=".516" stop-color="#ff4e50"/><stop offset=".991" stop-color="#8a2387"/></linearGradient><linearGradient id="d" x1="1.98" x2="3.662" y1="2.941" y2="4.386" gradientUnits="userSpaceOnUse"><stop offset="0" stop-color="#f9d423"/><stop offset=".516" stop-color="#ff4e50"/><stop offset=".991" stop-color="#8a2387"/></linearGradient></defs><path fill="url(#a)" d="M3.375 3.75c0-1.028 0-1.542.221-1.925.145-.25.353-.46.604-.604C4.583 1 5.097 1 6.125 1h7.7c1.028 0 1.542 0 1.925.221.25.145.46.353.604.604.221.383.221.896.221 1.925s0 1.542-.221 1.925a1.65 1.65 0 0 1-.604.604c-.383.221-.896.221-1.925.221h-7.7c-1.028 0-1.542 0-1.925-.221a1.65 1.65 0 0 1-.604-.604c-.221-.383-.221-.896-.221-1.925m4.4 12.65v4.4c0 1.037 0 1.555.322 1.878s.84.322 1.878.322 1.555 0 1.878-.322.323-.84.323-1.878v-4.4c0-1.037 0-1.555-.323-1.878s-.84-.322-1.878-.322-1.555 0-1.878.322-.322.84-.322 1.878" transform="translate(-2.615 -2.91)scale(2.91)"/><path fill="url(#b)" d="M17.72 4.575c.5 0 .836 0 1.096.018.253.016.377.046.459.077.355.14.636.42.775.776.033.082.062.206.078.459.018.26.018.595.018 1.096 0 .92-.011 1.174-.078 1.363a1.38 1.38 0 0 1-.651.756c-.177.094-.426.143-1.336.28l-4.535.68c-.85.128-1.563.234-2.127.394-.598.167-1.126.418-1.54.897-.637.742-.708 1.705-.726 2.816v.022c.23-.008.5-.008.819-.008.325 0 .597 0 .83.01.02-1.17.13-1.532.328-1.763.121-.14.305-.266.735-.386.452-.127 1.062-.22 1.977-.357l4.616-.693c.715-.107 1.274-.19 1.735-.435a3.03 3.03 0 0 0 1.432-1.664c.174-.491.174-1.056.173-1.779v-.16c0-.467 0-.857-.021-1.177a3.1 3.1 0 0 0-.19-.955 3.02 3.02 0 0 0-1.706-1.707 3.1 3.1 0 0 0-.956-.19 20 20 0 0 0-1.177-.02h-1.176v1.65z" opacity=".4" transform="translate(-2.615 -2.91)scale(2.91)"/><path fill="url(#d)" fill-rule="evenodd" d="M2 3.75a.825.825 0 0 1 .825-.825h.55v1.65h-.55A.825.825 0 0 1 2 3.75" clip-rule="evenodd" opacity=".4" transform="translate(-2.615 -2.91)scale(2.91)"/></svg>