<svg version="1.1" viewBox="0 0 64 64" xmlns="http://www.w3.org/2000/svg" xmlns:xlink="http://www.w3.org/1999/xlink">
 <defs>
  <linearGradient id="d" x1="-24.66" x2="97.04" y1="61.07" y2="-34.11" gradientTransform="matrix(.4435 0 0 .5671 15.95 24.36)" gradientUnits="userSpaceOnUse">
   <stop stop-color="#00f1fa" offset="0"/>
   <stop stop-color="#006cff" offset="1"/>
  </linearGradient>
  <linearGradient id="e" x1="52.87" x2="11.13" y1="10.86" y2="52.6" gradientTransform="scale(1)" gradientUnits="userSpaceOnUse">
   <stop stop-color="#d300dc" offset="0"/>
   <stop stop-color="#8219ff" offset="1"/>
  </linearGradient>
  <linearGradient id="a" y1="1">
   <stop stop-color="#fd3ad2" offset="0"/>
   <stop stop-color="#ffa6db" offset="1"/>
  </linearGradient>
  <linearGradient id="c" x1="18.04" x2="46.8" y1="45.9" y2="17.14" gradientTransform="scale(.9933 1.007)" gradientUnits="userSpaceOnUse" xlink:href="#a"/>
  <linearGradient id="b" x1="16.89" x2="43.56" y1="43.12" y2="16.45" gradientTransform="scale(.9391 1.065)" gradientUnits="userSpaceOnUse" xlink:href="#a"/>
 </defs>
 <path transform="translate(0) scale(1) translate(0) scale(1) translate(-.000637 9.8e-5) scale(1) translate(-.00187 3.2e-5) scale(1)" d="m32 0c-7.017 0-12.33-0.01428-16.63 0.5645-4.305 0.5775-7.751 1.844-10.35 4.447h-0.00586c-2.603 2.605-3.868 6.055-4.447 10.36-0.579 4.308-0.5645 9.614-0.5645 16.63s-0.01457 12.32 0.5645 16.63c0.5775 4.302 1.847 7.752 4.447 10.35l0.00586 0.0059c2.599 2.601 6.049 3.869 10.35 4.447 4.308 0.579 9.614 0.5645 16.63 0.5645s12.32 0.01309 16.63-0.5645c4.305-0.5775 7.755-1.849 10.36-4.453 2.601-2.599 3.869-6.049 4.447-10.35 0.5786-4.308 0.5645-9.612 0.5645-16.63s0.01428-12.32-0.5645-16.63c-0.5775-4.305-1.845-7.755-4.447-10.36-2.605-2.601-6.055-3.869-10.36-4.447-4.305-0.5786-9.612-0.5645-16.63-0.5645zm0 4.465c7.017-1e-7 12.24 0.01258 16.04 0.5234 3.799 0.5097 6.036 1.423 7.795 3.18 1.755 1.756 2.669 3.995 3.18 7.797 0.0366 0.2724 0.07185 0.5528 0.1035 0.8398h-54.23c0.03169-0.287 0.06688-0.5676 0.1035-0.8398 0.5103-3.799 1.428-6.038 3.186-7.797 1.753-1.754 3.989-2.669 7.791-3.18 3.802-0.5109 9.02-0.5234 16.04-0.5234zm-27.42 16.8h54.84c0.1125 2.99 0.1172 6.54 0.1172 10.73 0 7.017-0.01258 12.24-0.5234 16.04-0.5097 3.802-1.425 6.037-3.18 7.791-1.756 1.756-3.993 2.674-7.795 3.186-3.802 0.5111-9.02 0.5234-16.04 0.5234-7.017 1e-6 -12.24-0.01258-16.04-0.5234-3.799-0.51-6.037-1.424-7.791-3.18v-0.0059c-1.756-1.756-2.674-3.992-3.186-7.791-0.5112-3.802-0.5234-9.02-0.5234-16.04 0-4.192 0.0047-7.743 0.1172-10.73z" fill="url(#d)" stroke-width=".5015"/>
 <path transform="translate(0) scale(1) translate(0) scale(1) translate(-.000637 9.8e-5) scale(1) translate(-.00187 3.2e-5) scale(1)" d="m32.45 8.022a2.977 2.977 0 0 1 2.773 2.971 2.977 2.977 0 0 1-5.954 0 2.977 2.977 0 0 1 3.179-2.971z" fill="#fcd218" stroke-width=".5015"/>
 <path transform="translate(0) scale(1) translate(0) scale(1) translate(-.000637 9.8e-5) scale(1) translate(-.00187 3.2e-5) scale(1)" d="m41.38 8.022a2.977 2.977 0 0 1 2.773 2.971 2.977 2.977 0 0 1-5.954 0 2.977 2.977 0 0 1 3.179-2.971z" fill="#ae00ed" stroke-width=".5015"/>
 <path transform="translate(0) scale(1) translate(0) scale(1) translate(-.000637 9.8e-5) scale(1) translate(-.00187 3.2e-5) scale(1)" d="m50.31 8.022a2.977 2.977 0 0 1 2.773 2.971 2.977 2.977 0 0 1-5.954 0 2.977 2.977 0 0 1 3.179-2.971z" fill="#ff493b" stroke-width=".5015"/>
 <g transform="translate(0) scale(1) translate(0) scale(1) translate(-.000637 9.8e-5) scale(1) translate(-.00187 3.2e-5) scale(1) matrix(.5016 0 0 .5016 15.96 24.35)">
  <path transform="matrix(1.533,0,0,1.533,-17.07,-16.64)" d="m32 10.86c-1.499-0.01661-2.025 0.03946-2.236 1.854l-0.08008 0.6426c-0.1853 1.177-0.2202 1.709-1.334 1.998-0.07464 0.01667-0.1504 0.03311-0.2246 0.05078-0.01756 0.0036-0.03278 0.0082-0.05078 0.01172-0.2805 0.06773-0.5571 0.1449-0.832 0.2266l2e-3 -0.0039c-0.04603 0.01572-0.08728 0.02741-0.1309 0.04101-0.04172 0.01275-0.08342 0.02601-0.125 0.03906-1.119 0.3139-1.414-0.1304-2.166-1.06l-0.3906-0.5156c-0.5452-0.733-0.9391-1.046-1.357-1.08-0.05229-0.0043-0.1048-0.0042-0.1582 0-0.374 0.02933-0.7844 0.259-1.35 0.5938-1.308 0.7361-1.734 1.047-1.01 2.725l0.25 0.5957c0.4609 1.197 0.7001 1.659-0.3633 2.588l0.0293-0.0059c-0.2198 0.2083-0.4341 0.4227-0.6426 0.6426l0.0059-0.02734c-0.9288 1.063-1.392 0.8222-2.59 0.3614l-0.5957-0.25c-0.5243-0.2264-0.9146-0.3399-1.227-0.3496-0.6863-0.02148-0.9899 0.4599-1.496 1.359-0.765 1.292-0.98 1.774 0.4863 2.863l0.5156 0.3906c0.9304 0.752 1.375 1.049 1.06 2.168-0.01308 0.04158-0.02632 0.08331-0.03906 0.125-0.01361 0.04358-0.02529 0.08483-0.04101 0.1309l2e-3 -2e-3c-0.08188 0.2755-0.1568 0.5529-0.2246 0.834-0.0035 0.01718-0.0082 0.03191-0.01172 0.04883-0.01767 0.07425-0.03408 0.15-0.05078 0.2246-0.2883 1.114-0.8228 1.149-2 1.334l-0.6406 0.08008c-1.815 0.2112-1.87 0.7371-1.854 2.238-0.0167 1.501 0.03853 2.025 1.854 2.236l0.6406 0.08008c1.177 0.1853 1.711 0.2222 2 1.336 0.01667 0.07464 0.03311 0.1484 0.05078 0.2227 0.0036 0.01756 0.0082 0.03278 0.01172 0.05078 0.06773 0.2805 0.1429 0.5571 0.2246 0.832l-2e-3 -2e-3c0.01572 0.04603 0.02741 0.08728 0.04101 0.1309 0.01275 0.04169 0.02598 0.08342 0.03906 0.125 0.3139 1.119-0.1304 1.416-1.06 2.168l-0.5156 0.3906c-1.466 1.09-1.251 1.572-0.4863 2.863 0.7361 1.308 1.045 1.736 2.723 1.012l0.5957-0.2519c1.197-0.4609 1.661-0.7001 2.59 0.3633l-0.0059-0.0293c0.2083 0.2198 0.4227 0.4341 0.6426 0.6426l-0.0293-0.0059c1.063 0.9287 0.8242 1.392 0.3633 2.59l-0.252 0.5957c-0.7247 1.677-0.2966 1.988 1.012 2.725 1.292 0.765 1.774 0.98 2.863-0.4863l0.3906-0.5156c0.752-0.9304 1.049-1.374 2.168-1.06 0.04158 0.01308 0.08331 0.02436 0.125 0.03711 0.04358 0.01361 0.08483 0.02722 0.1309 0.04297l-2e-3 -0.0039c0.2749 0.0817 0.5516 0.1569 0.832 0.2246 0.01801 0.0036 0.03322 0.0081 0.05078 0.01172 0.07425 0.01767 0.148 0.03411 0.2227 0.05078 1.114 0.2883 1.151 0.8228 1.336 2l0.08008 0.6406c0.2112 1.815 0.7352 1.87 2.236 1.854 1.501 0.0167 2.027-0.03853 2.238-1.854l0.08008-0.6406c0.1853-1.177 0.2202-1.711 1.334-2 0.07464-0.0167 0.1504-0.03311 0.2246-0.05078 0.01628-0.0034 0.0305-0.0083 0.04687-0.01172 0.2811-0.06785 0.5604-0.1427 0.8359-0.2246l-0.0039 0.0039c0.04603-0.01572 0.08923-0.02936 0.1328-0.04297 0.04169-0.01275 0.08345-0.02403 0.125-0.03711 1.119-0.3139 1.414 0.1301 2.166 1.06l0.3906 0.5156c1.09 1.466 1.574 1.251 2.865 0.4863 1.308-0.7361 1.734-1.047 1.01-2.725l-0.25-0.5957c-0.4609-1.197-0.7021-1.661 0.3613-2.59l-0.02734 0.0059c0.2198-0.2083 0.4341-0.4227 0.6426-0.6426l-0.0059 0.0293c0.9287-1.063 1.39-0.8242 2.588-0.3633l0.5977 0.252c1.677 0.7247 1.987 0.2966 2.723-1.012 0.765-1.292 0.98-1.774-0.4863-2.863l-0.5155-0.3906c-0.9304-0.752-1.374-1.047-1.06-2.166 0.01308-0.04158 0.02629-0.08331 0.03906-0.125 0.01361-0.04358 0.02532-0.08678 0.04102-0.1328l-0.0039 0.0039c0.08188-0.2755 0.1568-0.5548 0.2246-0.8359l2e-3 2e-3c0.0036-0.01801 0.0081-0.03322 0.01172-0.05078 0.01767-0.07425 0.03408-0.148 0.05078-0.2227 0.2883-1.114 0.8208-1.149 1.998-1.334l0.6426-0.08203c1.815-0.2112 1.87-0.7352 1.854-2.236 0.0167-1.501-0.03853-2.027-1.854-2.238l-0.6426-0.08008c-1.177-0.1853-1.709-0.2202-1.998-1.334-0.0167-0.07464-0.03311-0.1484-0.05078-0.2227-0.0036-0.01756-0.0081-0.03278-0.01172-0.05078l-2e-3 2e-3c-0.06785-0.2811-0.1427-0.5604-0.2246-0.8359l0.0039 0.0039c-0.01572-0.04603-0.02936-0.0892-0.04297-0.1328-0.01275-0.04172-0.02403-0.08342-0.03711-0.125-0.3139-1.119 0.1301-1.414 1.06-2.166l0.5156-0.3906c1.466-1.09 1.251-1.574 0.4863-2.865-0.506-0.8995-0.8098-1.383-1.496-1.361-0.312 0.0098-0.7045 0.125-1.228 0.3516l-0.5957 0.25c-1.197 0.4609-1.659 0.7021-2.588-0.3613l0.0059 0.02734c-0.2084-0.2199-0.4228-0.4342-0.6426-0.6427l0.02734 0.0059c-1.063-0.9287-0.8222-1.39-0.3613-2.588l0.25-0.5957c0.7247-1.677 0.2985-1.988-1.01-2.725-0.6459-0.3824-1.09-0.6277-1.508-0.5938-0.4183 0.03395-0.8122 0.3468-1.357 1.08l-0.3906 0.5156c-0.752 0.9304-1.047 1.375-2.166 1.06-0.04158-0.01308-0.08331-0.02632-0.125-0.03906-0.04358-0.01361-0.08681-0.02529-0.1328-0.04101l0.0039 0.0039c-0.2755-0.08188-0.5549-0.1568-0.8359-0.2246l2e-3 -2e-3c-0.01801-0.0035-0.03322-0.0081-0.05078-0.01172-0.07425-0.01767-0.148-0.03408-0.2227-0.05078-1.114-0.2883-1.149-0.8208-1.334-1.998l-0.08008-0.6426c-0.211-1.814-0.7369-1.87-2.236-1.854zm-2e-3 8.625c0.0011-3e-6 0.0029-3e-6 0.0039 0 1.41 8.3e-5 2.771 0.2428 4.045 0.6894a3.34 3.34 0 0 0 1.522 1.914 3.34 3.34 0 0 0 2.412 0.3594c2.005 1.723 3.46 4.091 4.02 6.832 0.1409 0.6902-0.3874 1.338-1.092 1.338h-3.445c-0.4923 4.2e-5 -0.9256-0.3252-1.066-0.7969-0.8444-2.833-3.437-4.767-6.393-4.77-0.5193 0.0028-1.036 0.06494-1.541 0.1875-0.4801 0.1166-0.9794-0.0955-1.227-0.5234l-1.719-2.978c-0.3515-0.6092-0.05729-1.387 0.6094-1.611 1.248-0.4202 2.555-0.637 3.871-0.6406zm-7.322 2.81c0.3788 0.01776 0.7226 0.2263 0.9121 0.5547l1.721 2.978c0.2464 0.4269 0.1827 0.9646-0.1562 1.322-1.172 1.238-1.829 2.874-1.832 4.58 0.0019 1.706 0.6556 3.346 1.828 4.584 0.3387 0.3576 0.4024 0.8956 0.1562 1.322l-1.715 2.973c-0.352 0.6098-1.174 0.7438-1.701 0.2773-2.048-1.811-3.41-4.241-3.914-6.885a3.34 3.34 0 0 0 0.8945-2.27 3.34 3.34 0 0 0-0.8945-2.27c0.502-2.646 1.863-5.075 3.912-6.887 0.217-0.192 0.5016-0.2929 0.791-0.2793zm14.79 10.55h3.432c0.7044-6.7e-5 1.231 0.6458 1.09 1.336-0.5588 2.738-2.012 5.107-4.016 6.83a3.34 3.34 0 0 0-0.8125-0.08398 3.34 3.34 0 0 0-1.592 0.4453 3.34 3.34 0 0 0-1.518 1.91c-1.274 0.4486-2.637 0.6939-4.047 0.6953-0.0017 6e-6 -0.0039 6e-6 -0.0059 0-1.316-0.0052-2.623-0.2234-3.871-0.6445-0.6657-0.2248-0.9584-1.003-0.6074-1.611l1.717-2.975c0.2471-0.4278 0.7465-0.642 1.227-0.5254 0.5048 0.1226 1.023 0.1867 1.543 0.1894 2.956-3e-3 5.548-1.939 6.394-4.772 0.1407-0.472 0.5741-0.7952 1.066-0.7949z" fill="url(#e)"/>
  <path transform="matrix(1.533,0,0,1.533,-17.07,-16.64)" d="m32.01 17.26c-6.849 0-12.59 4.766-14.09 11.16a3.34 3.34 0 0 1 2.06 1.045c0.502-2.646 1.863-5.077 3.912-6.889 0.217-0.192 0.4996-0.291 0.7891-0.2773 0.3788 0.01776 0.7226 0.2263 0.9121 0.5547l1.721 2.978c0.2464 0.4269 0.1827 0.9646-0.1562 1.322-1.172 1.238-1.827 2.874-1.83 4.58 0.0019 1.706 0.6556 3.346 1.828 4.584 0.3387 0.3576 0.4024 0.8956 0.1562 1.322l-1.717 2.973c-0.352 0.6098-1.174 0.7438-1.701 0.2773-2.048-1.811-3.408-4.243-3.912-6.887a3.34 3.34 0 0 1-2.06 1.047c1.5 6.393 7.237 11.16 14.09 11.16 1.452 0 2.852-0.2152 4.174-0.6133a3.34 3.34 0 0 1-0.125-2.309c-1.274 0.4486-2.637 0.6939-4.047 0.6953-0.0017 6e-6 -0.0039 6e-6 -0.0059 0-1.316-0.0052-2.623-0.2234-3.871-0.6445-0.6657-0.2248-0.9603-1.001-0.6094-1.609l1.719-2.977c0.2471-0.4278 0.7465-0.642 1.227-0.5254 0.5048 0.1226 1.021 0.1867 1.541 0.1894 2.956-3e-3 5.55-1.939 6.396-4.772 0.1407-0.472 0.5741-0.7952 1.066-0.7949h3.432c0.7044-6.7e-5 1.231 0.6458 1.09 1.336-0.5588 2.738-2.012 5.107-4.016 6.83a3.34 3.34 0 0 1 1.941 1.26c2.805-2.64 4.56-6.385 4.56-10.54s-1.755-7.898-4.56-10.54a3.34 3.34 0 0 1-1.932 1.258c2.005 1.723 3.46 4.091 4.02 6.832 0.1409 0.6902-0.3874 1.336-1.092 1.336h-3.445c-0.4923 4.2e-5 -0.9256-0.3232-1.066-0.7949-0.8444-2.833-3.437-4.767-6.393-4.77-0.5193 0.0028-1.036 0.06494-1.541 0.1875-0.4801 0.1166-0.9794-0.09745-1.227-0.5254l-1.721-2.977c-0.3515-0.6092-0.05729-1.389 0.6094-1.613 1.248-0.4202 2.555-0.635 3.871-0.6387 0.0011-3e-6 0.0029-3e-6 0.0039 0 1.41 8.4e-5 2.772 0.2428 4.047 0.6894a3.34 3.34 0 0 1 0.127-2.303c-1.322-0.3977-2.722-0.6133-4.172-0.6133zm0 10.02a4.453 4.453 0 0 1 4.451 4.453 4.453 4.453 0 0 1-4.451 4.453 4.453 4.453 0 0 1-4.453-4.453 4.453 4.453 0 0 1 4.453-4.453z" fill="url(#c)"/>
  <path transform="matrix(1.533,0,0,1.533,-17.07,-16.64)" d="m39.16 17.52a1.67 1.67 0 0 0-1.367 0.834 1.67 1.67 0 0 0 0.6094 2.281 1.67 1.67 0 0 0 2.281-0.6113 1.67 1.67 0 0 0-0.6113-2.281 1.67 1.67 0 0 0-0.9121-0.2207zm-21.63 12.53a1.67 1.67 0 0 0-1.67 1.67 1.67 1.67 0 0 0 1.67 1.67 1.67 1.67 0 0 0 1.67-1.67 1.67 1.67 0 0 0-1.67-1.67zm21.67 12.53v2e-3a1.67 1.67 0 0 0-0.7969 0.2227 1.67 1.67 0 0 0-0.6113 2.281 1.67 1.67 0 0 0 2.281 0.6094 1.67 1.67 0 0 0 0.6113-2.279 1.67 1.67 0 0 0-1.484-0.8359z" fill="url(#b)"/>
 </g>
</svg>
