<svg fill="none" version="1.1" viewBox="0 0 64 64" xmlns="http://www.w3.org/2000/svg">
 <path transform="translate(0) scale(1) translate(-.006 .008) scale(1)" d="M20.166 0v.259c-5.86.667-10.519 5.36-10.519 11.279v15.338c0 .682-.553 1.242-1.314 1.242h-.439c-1.92 0-3.506 1.586-3.506 3.508v.73a3.525 3.525 0 0 0 3.506 3.506h.44c.76 0 1.313.56 1.313 1.242v15.338c0 6.38 5.334 11.54 11.839 11.54h3.068c1.92 0 3.507-1.588 3.507-3.508v-.73c0-1.922-1.585-3.507-3.507-3.507h-3.068c-2.214 0-3.945-1.705-3.945-3.798V37.1a8.9 8.9 0 0 0-.976-4.071c-.315-.615-.315-1.47 0-2.084a8.9 8.9 0 0 0 .976-4.072V11.535c0-2.094 1.732-3.799 3.945-3.799h3.068c1.92 0 3.507-1.585 3.507-3.505V3.5c0-1.922-1.586-3.508-3.507-3.508h-3.068zm19.288 0c-1.92 0-3.505 1.586-3.505 3.507v.73a3.525 3.525 0 0 0 3.505 3.506h3.068c2.214 0 3.945 1.707 3.945 3.8v15.34c0 1.453.347 2.844.976 4.07.315.615.315 1.472 0 2.086a8.9 8.9 0 0 0-.976 4.07v15.339c0 2.092-1.731 3.798-3.945 3.798h-3.068a3.525 3.525 0 0 0-3.505 3.506v.732a3.525 3.525 0 0 0 3.505 3.506h3.068c6.501 0 11.839-5.163 11.839-11.54V37.113c0-.68.554-1.241 1.316-1.241h.437c1.92 0 3.508-1.584 3.508-3.506v-.73c0-1.921-1.587-3.508-3.508-3.508h-.437c-.762 0-1.316-.56-1.316-1.242V11.547c0-6.38-5.335-11.54-11.84-11.54h-1.753z" fill="#d500ff"/>
</svg>
