<svg version="1.1" viewBox="0 0 64 64" xmlns="http://www.w3.org/2000/svg">
 <defs>
  <linearGradient id="a" y1="1">
   <stop stop-color="#00f0ff" offset="0"/>
   <stop stop-color="#0070e0" offset="1"/>
  </linearGradient>
 </defs>
 <path transform="translate(-0) scale(1) translate(-0) scale(1) translate(-.00032 .000332) scale(1) translate(.005 .005) scale(1.333)" d="M11.51 18.46c-.9 0-1.629.73-1.629 1.629v1.085c0 .9.73 1.629 1.629 1.629h19.27c.9 0 1.629-.73 1.629-1.629v-1.085c0-.9-.73-1.629-1.629-1.629z" fill="url(#a)"/>
 <path transform="translate(-0) scale(1) translate(-0) scale(1) translate(-.00032 .000332) scale(1) translate(.005 .005) scale(1.333)" d="M11.51 9.773c-.9 0-1.629.73-1.629 1.629v1.085c0 .9.73 1.629 1.629 1.629h11.13c.9 0 1.629-.73 1.629-1.629v-1.085c0-.9-.73-1.629-1.629-1.629z" fill="url(#a)"/>
 <path transform="translate(-0) scale(1) translate(-0) scale(1) translate(-.00032 .000332) scale(1) translate(.005 .005) scale(1.333)" d="M11.78 35.47c-1.109 0-2.008.73-2.008 1.629v1.085c0 .9.9 1.629 2.008 1.629h24.43c1.109 0 2.008-.73 2.008-1.629v-1.085c0-.9-.9-1.629-2.008-1.629z" fill="url(#a)"/>
 <path transform="translate(-0) scale(1) translate(-0) scale(1) translate(-.00032 .000332) scale(1) translate(.005 .005) scale(1.333)" d="M11.78 27.15c-1.109 0-2.008.73-2.008 1.629v1.085c0 .9.9 1.629 2.008 1.629h24.43c1.109 0 2.008-.73 2.008-1.629v-1.085c0-.9-.9-1.629-2.008-1.629z" fill="url(#a)"/>
 <path transform="translate(-0) scale(1) translate(-0) scale(1) translate(-.00032 .000332) scale(1) translate(.005 .005) scale(1.333)" d="M7.714 0a5.43 5.43 0 0 0-5.43 5.43v36.92c0 2.997 2.433 5.651 5.43 5.651h16.29a2.172 2.172 0 0 0 0-4.343H9.884c-1.798 0-3.258-1.682-3.258-3.48V7.598A3.26 3.26 0 0 1 9.884 4.34h13.28c.6 0 1.418.356 1.828.793l.234.25c.355.377.731.71 1.062 1.131l14.58 18.53c.723.775 2.241.534 2.9-.08.657-.612 1-2.108.278-2.883l-.806-.898-14.7-18.43-.373-.393a6 6 0 0 0-.542-.493C26.299.8 24.233-.004 22.668-.004z" fill="url(#a)"/>
 <path transform="translate(-0) scale(1) translate(-0) scale(1) translate(-.00032 .000332) scale(1) translate(.005 .005) scale(1.333)" d="m43.54 33.88a2.173 2.173 0 0 0-2.172 2.172v4.343a3.26 3.26 0 0 1-3.256 3.258h-4.345a2.171 2.171 0 0 0 0 4.343h6.516a5.43 5.43 0 0 0 5.429-5.429v-6.516a2.17 2.17 0 0 0-2.171-2.172z" fill="url(#a)"/>
 <path transform="translate(-0) scale(1) translate(-0) scale(1) translate(-.00032 .000332) scale(1) translate(.005 .005) scale(1.333)" d="M33.77 0a2.172 2.172 0 0 0 0 4.343h4.345a3.26 3.26 0 0 1 3.256 3.258v4.343a2.172 2.172 0 0 0 4.343 0V5.43A5.43 5.43 0 0 0 40.285 0z" fill="url(#a)"/>
</svg>
