<svg version="1.1" viewBox="0 0 64 64" xmlns="http://www.w3.org/2000/svg">
 <defs>
  <linearGradient id="a" x1="1" x2="0" y2="1">
   <stop stop-color="#b00eff" offset="0"/>
   <stop stop-color="#ff0e9f" offset="1"/>
  </linearGradient>
 </defs>
 <path transform="translate(-.0112 -.0053) scale(1) translate(-21.33 -19.69) scale(1.641)" d="m15.54 19a2.535 2.513 0 0 0-2.535 2.512v19.98a2.535 2.513 0 0 0 2.535 2.512h33.93a2.535 2.513 0 0 0 2.535-2.512v-19.98a2.535 2.513 0 0 0-2.535-2.512zm2.152 5a0.7358 0.7466 0 0 1 0.07422 0 0.7358 0.7466 0 0 1 0.3379 0.09961l11.54 6.758a0.7358 0.7466 0 0 1 0 1.289l-11.54 6.756a0.7358 0.7466 0 0 1-1.1-0.6445v-13.51a0.7358 0.7466 0 0 1 0.6875-0.7441zm17.5 1h7.633a1.189 1.506 0 0 1 1.184 1.5 1.189 1.506 0 0 1-1.184 1.5h-7.633a1.189 1.506 0 0 1-1.184-1.5 1.166 1.477 0 0 1 0.3496-1.057 1.166 1.477 0 0 1 0.834-0.4434zm-0.06836 5h11.77a1.115 1.5 0 0 1 0.791 2.557 1.12 1.506 0 0 1-0.791 0.4434h-11.77a1.12 1.506 0 0 1-1.115-1.5 1.12 1.506 0 0 1 1.115-1.5zm0 5h11.77a1.115 1.5 0 0 1 0.791 2.557 1.12 1.506 0 0 1-0.791 0.4434h-11.77a1.12 1.506 0 0 1-1.115-1.5 1.12 1.506 0 0 1 1.115-1.5z" fill="url(#a)"/>
</svg>
