<svg xmlns="http://www.w3.org/2000/svg" viewBox="0 0 64 64"><defs><linearGradient id="b" x2="0" y2="1"><stop offset="0" stop-color="#00d2ff"/><stop offset="1" stop-color="#0006ff"/></linearGradient><linearGradient id="a" x2="0" y2="1"><stop offset="0" stop-color="#ff00d2"/><stop offset="1" stop-color="#ff4de0"/></linearGradient></defs><path fill="url(#a)" d="m24 4-1.951 10.19-5.703-8.67 2.098 10.16-8.586-5.828 5.828 8.586-10.16-2.098 8.67 5.703-10.19 1.951 10.19 1.951-8.67 5.703 10.16-2.098-5.828 8.586 8.586-5.828-2.098 10.16 5.703-8.67L24 43.988l1.951-10.19 5.703 8.67-2.098-10.16 8.586 5.828-5.828-8.586 10.16 2.098-8.67-5.703 10.19-1.951-10.19-1.951 8.67-5.703-10.16 2.098 5.828-8.586-8.586 5.828 2.098-10.16-5.703 8.67z" transform="matrix(1.6 0 0 1.6 -6.41 -6.4)"/><path fill="url(#b)" d="M17.02 4a3 3 0 0 0-2.894 2.15L4.132 40.11a3 3 0 0 0 2.029 3.723 3 3 0 0 0 3.721-2.029l7.049-23.95 4.18 14.92a2.998 2.998 0 0 0 5.773 0l4.18-14.92 7.049 23.95a3 3 0 0 0 3.721 2.029 3 3 0 0 0 2.029-3.723L33.869 6.15a2.998 2.998 0 0 0-5.762.037l-4.109 14.67-4.109-14.67A3 3 0 0 0 17.022 4z" transform="matrix(1.6 0 0 1.6 -6.41 -6.4)"/></svg>