<svg xmlns="http://www.w3.org/2000/svg" style="isolation:isolate" viewBox="0 0 64 64"><linearGradient id="a" x1=".121" x2=".971" y1=".743" y2=".035" gradientTransform="matrix(48 0 0 46.98 0 .508)" gradientUnits="userSpaceOnUse" transform="scale(1.333)"><stop offset="0" stop-color="#d300dc"/><stop offset="1" stop-color="#8700ff"/></linearGradient><path fill="url(#a)" fill-rule="evenodd" d="M25.64 43.22c-1.197.1-2.09 1.136-1.992 2.312.099 1.177 1.155 2.052 2.359 1.953 6.028-.492 11.65-3.205 15.74-7.595 4.073-4.389 6.311-10.13 6.256-16.07-.058-6.235-2.644-12.2-7.179-16.58C36.278 2.874 30.144.447 23.784.504c-6.36.056-12.45 2.591-16.91 7.037-4.454 4.457-6.93 10.47-6.872 16.7.011 1.181.997 2.131 2.201 2.12s2.173-.978 2.162-2.158c-.047-5.102 1.981-10.02 5.624-13.66 3.654-3.637 8.631-5.713 13.83-5.76 5.204-.046 10.22 1.942 13.94 5.513 3.71 3.582 5.827 8.462 5.875 13.56.044 4.855-1.778 9.556-5.116 13.15s-7.943 5.803-12.88 6.21zM7.51 33.14a2.14 2.14 0 0 0-3.768 2.024 23.6 23.6 0 0 0 10.67 10.14c1.068.51 2.345.057 2.852-1.01s.052-2.347-1.015-2.857a19.3 19.3 0 0 1-8.738-8.296z" transform="scale(1.333)"/><linearGradient id="b" x1=".031" x2=".958" y1=".109" y2=".975" gradientTransform="matrix(32 0 0 32 8 9)" gradientUnits="userSpaceOnUse" transform="scale(1.333)"><stop offset="0" stop-color="#a5f86a"/><stop offset=".979" stop-color="#2fce92"/></linearGradient><path fill="url(#b)" d="M24 9a2 2 0 0 0-1.414.586l-14 14a2 2 0 1 0 2.828 2.828l10.59-10.59v23.17a2 2 0 1 0 4 0v-23.17l10.59 10.59a2 2 0 1 0 2.828-2.828l-14-14A2 2 0 0 0 24.008 9z" transform="scale(1.333)"/><linearGradient id="d" x2="1" y1=".5" y2=".5" gradientTransform="matrix(11.42 0 0 4.82 18.29 26.59)" gradientUnits="userSpaceOnUse" transform="scale(1.333)"><stop offset="0" stop-color="#ffe031"/><stop offset="1" stop-color="#fa0075"/></linearGradient><path fill="url(#d)" d="m19.71 30.71-1.42-1.42 2.71-2.7 2 2 2-2 2 2 1.29-1.3 1.42 1.42-2.71 2.7-2-2-2 2-2-2z" transform="scale(1.333)"/></svg>