<svg xmlns="http://www.w3.org/2000/svg" style="isolation:isolate" viewBox="0 0 64 64"><linearGradient id="a" x1=".819" x2=".335" y1=".963" y2=".016" gradientTransform="matrix(21.94 0 0 24.01 13.03 12)" gradientUnits="userSpaceOnUse" transform="scale(1.333)"><stop offset="0" stop-color="#b61f91"/><stop offset=".665" stop-color="#9622aa"/><stop offset="1" stop-color="#4a1eef"/></linearGradient><path fill="url(#a)" fill-rule="evenodd" d="M28.92 33h-2.932l.5-2h2.941l.764-3 2.124.009L31.556 31h2.932l-.5 2h-2.941l-.764 3-2.124-.009zm-2.645-17c.449.006.903-.007 1.348.066q.029.006.056.016c.554.216.925.783 1.112 1.369.34 1.082.226 2.309-.246 3.324-.417.905-1.167 1.61-2.045 1.938-.636.243-1.32.317-1.991.275-.223-.014-.472-.157-.505-.42-.043-.266.008-.536.084-.789.34-1.367.577-2.76.808-4.152.087-.528.166-1.058.248-1.586.375-.043.754-.034 1.131-.041m1.608-3.985c-3.238-.012-6.478-.055-9.715.012-.019.497-.523 1.271.195 1.467.639.359 1.296.983 1.166 1.787-.071 2.623-.789 5.166-1.322 7.719a36 36 0 0 1-2.036 0c-.138.6-.35 1.316.244 1.746.342.505.603 1.091.573 1.694-.025.502-.305 1.016-.415 1.507.975.125 1.779.033 2.765.082q.075.012.096.035l.002.002.003.006.002.01-.003.014c-.053.12-.73.354-.913.463-.651.299-1.365.51-1.949.931-.377 1.043-.319 2.226-.883 3.211-.479.963-1.445 1.515-2.351 2.01-.22.297-.404 1.082-.246 1.283h10.07c-.02-.553.412-1.292-.184-1.639-.809-.806-1.466-2-1.103-3.168q.354-1.582.713-3.164c1.527-.016 3.081.03 4.556-.437 2.674-.744 5.709-2.76 6.847-5.276.759-1.653 1.26-3.537.805-5.347-.434-1.829-1.504-3.609-3.186-4.531-1.021-.563-2.616-.357-3.731-.416z" transform="scale(1.333)"/><linearGradient id="c" x1=".935" x2=".135" y1=".958" y2=".065" gradientTransform="scale(48)" gradientUnits="userSpaceOnUse" transform="scale(1.333)"><stop offset="0" stop-color="#f3895f"/><stop offset=".665" stop-color="#9622aa"/><stop offset="1" stop-color="#4a1eef"/></linearGradient><path fill="url(#c)" fill-rule="evenodd" d="M42.67 8.533v30.93c0 1.766-1.434 3.2-3.2 3.2H8.54a3.2 3.2 0 0 1-3.2-3.2V8.533c0-1.766 1.434-3.2 3.2-3.2h30.93c1.766 0 3.2 1.434 3.2 3.2m5.333-1.066v33.07a7.47 7.47 0 0 1-7.467 7.467H7.466a7.47 7.47 0 0 1-7.467-7.467V7.467A7.47 7.47 0 0 1 7.466 0h33.07a7.47 7.47 0 0 1 7.467 7.467" transform="scale(1.333)"/></svg>