<svg xmlns="http://www.w3.org/2000/svg" style="isolation:isolate" viewBox="0 0 64 64"><defs><linearGradient id="b" x2="1" y1=".5" y2=".5" gradientTransform="matrix(16.81 0 0 4.439 36.52 32.69)" gradientUnits="userSpaceOnUse"><stop offset="0" stop-color="#f12711"/><stop offset=".991" stop-color="#f5af19"/></linearGradient><linearGradient id="d" x2="1" y1=".5" y2=".5" gradientTransform="matrix(16.81 0 0 4.439 36.52 26.88)" gradientUnits="userSpaceOnUse"><stop offset="0" stop-color="#f12711"/><stop offset=".991" stop-color="#f5af19"/></linearGradient><linearGradient id="g" x1="2.522" x2="3.523" y1="0" y2="0" gradientTransform="matrix(17.63 0 0 17.64 -34.53 47.1)" gradientUnits="userSpaceOnUse"><stop offset="0" stop-color="#00ffd8"/><stop offset=".839" stop-color="#00ffb8"/></linearGradient><linearGradient id="f" x1="3.141" x2="4.402" y1="-.336" y2="-.336" gradientTransform="matrix(13.99 0 0 14.66 -33.66 23.87)" gradientUnits="userSpaceOnUse"><stop offset="0" stop-color="#d300dc"/><stop offset="1" stop-color="#8700ff"/></linearGradient><linearGradient id="a" x1="1" x2="0" y1="1"><stop offset="0" stop-color="#ff0064"/><stop offset="1" stop-color="#eb00ff"/></linearGradient></defs><path fill="url(#a)" fill-rule="evenodd" d="M5.817 23.79a2.91 2.91 0 0 1-5.818 0V7.27A7.275 7.275 0 0 1 7.271-.002h16.52a2.91 2.91 0 0 1 0 5.818h-13.61a4.365 4.365 0 0 0-4.363 4.363zm34.38-17.98a2.91 2.91 0 0 1 0-5.818h16.52a7.275 7.275 0 0 1 7.272 7.272v16.52a2.91 2.91 0 0 1-5.818 0v-13.61a4.365 4.365 0 0 0-4.363-4.363zm17.98 34.38a2.91 2.91 0 0 1 5.818 0v16.52a7.275 7.275 0 0 1-7.272 7.272h-16a2.91 2.91 0 0 1 0-5.818h13.09a4.365 4.365 0 0 0 4.363-4.363zm-34.38 17.98a2.91 2.91 0 0 1 0 5.818H7.277a7.275 7.275 0 0 1-7.272-7.272v-16.52a2.91 2.91 0 0 1 5.818 0v13.61a4.365 4.365 0 0 0 4.363 4.363z" transform="translate(.001 .008)"/><path fill="url(#b)" d="M51.86 37.13h-13.9a1.454 1.454 0 0 1-1.454-1.454v-1.53c0-.803.652-1.454 1.454-1.454h13.9c.803 0 1.454.652 1.454 1.454v1.53c0 .803-.651 1.454-1.454 1.454" transform="translate(.001 .008)"/><path fill="url(#d)" d="M51.86 31.31h-13.9a1.454 1.454 0 0 1-1.454-1.454v-1.53c0-.803.652-1.454 1.454-1.454h13.9c.803 0 1.454.651 1.454 1.454v1.53c0 .803-.651 1.454-1.454 1.454" transform="translate(.001 .008)"/><path fill="url(#f)" d="M18.44 9.225c-.856 0-2.049.314-4.357 1.135-.222.078-.224.076-.41.154l.149.587c1.452-.392 1.714-.432 2.086-.432.93 0 1.152.353 1.675 2.696l1.078 4.8-3.05 4.567c-.781 1.172-1.49 1.876-1.9 1.876-.223 0-.595-.118-.967-.351-.486-.274-.858-.39-1.193-.39-.745 0-1.265.584-1.265 1.364 0 1.016.707 1.64 1.862 1.64 1.154 0 1.602-.352 3.464-2.694 1.004-1.288 1.823-2.458 3.349-4.606l1.117 4.685c.483 2.029.965 2.615 2.156 2.615 1.415 0 2.384-.936 4.544-4.45l-.52-.314a14 14 0 0 0-.821 1.054c-.856 1.172-1.301 1.562-1.747 1.562-.523 0-.856-.506-1.117-1.599-.112-.428-.115-.51-.152-.628-.93-3.98-1.341-5.776-1.341-6.362 1.676-3.046 2.98-4.726 3.65-4.726.223 0 .558.118.892.314.448.274.71.352 1.045.352.745 0 1.265-.586 1.265-1.406 0-.858-.634-1.444-1.526-1.444-1.64 0-3.016 1.406-5.622 5.584l-.41-2.148c-.522-2.654-.928-3.436-1.934-3.436z" transform="translate(.001 .008)"/><path fill="url(#g)" d="M18.84 37.13q-3.938 0-6.388 2.202c-1.624 1.468-2.435 3.236-2.435 5.315q0 2.813 1.754 4.659 1.752 1.844 3.881 2.252l.028.854h-3.092q-1.11 0-1.62-.358t-.563-1.262H9.91v3.985h6.935l-.252-3.84c-1.339-.466-2.25-1.274-2.723-2.42q-.708-1.73-.706-3.828-.001-2.901 1.578-4.76 1.593-1.87 4.016-1.868c1.518 0 2.838.58 3.964 1.752q1.701 1.756 1.703 5.052c0 3.358-1.15 5.386-3.454 6.072l-.35 3.84h6.936v-3.985h-.496q-.026.7-.441 1.158c-.269.305-.824.462-1.673.462h-3.161l.132-.854q2.571-.712 4.069-2.548c1.009-1.23 1.518-2.72 1.518-4.477 0-2.162-.812-3.932-2.426-5.314q-2.424-2.088-6.238-2.089z" transform="translate(.001 .008)"/></svg>