<svg xmlns="http://www.w3.org/2000/svg" style="isolation:isolate" viewBox="0 0 64 64"><linearGradient id="a" x2="1" y1=".5" y2=".5" gradientTransform="matrix(47 0 0 42.73 .5 2.636)" gradientUnits="userSpaceOnUse" transform="translate(-.68 -.68)scale(1.362)"><stop offset="0" stop-color="#43e97b"/><stop offset=".978" stop-color="#38f9d7"/></linearGradient><path fill="url(#a)" fill-rule="evenodd" d="M43.23 26.14a2.138 2.138 0 0 1 4.273 0v7.296c0 1.179-.677 2.813-1.511 3.647l-6.774 6.774c-.833.834-2.467 1.511-3.647 1.511H5.841A5.344 5.344 0 0 1 .5 40.027v-7.478a2.137 2.137 0 0 1 4.273 0v5.341a3.206 3.206 0 0 0 3.204 3.205h26.89c.59 0 1.407-.339 1.824-.755l5.785-5.785c.417-.417.755-1.234.755-1.824V26.14zM4.78 21.868a2.138 2.138 0 0 1-4.273 0v-7.296c0-1.179.677-2.813 1.511-3.647l6.774-6.774c.833-.834 2.467-1.511 3.647-1.511h29.73a5.344 5.344 0 0 1 5.341 5.341v7.478a2.137 2.137 0 0 1-4.273 0v-5.341a3.206 3.206 0 0 0-3.204-3.205h-26.89c-.59 0-1.407.339-1.824.755l-5.785 5.785c-.417.417-.755 1.234-.755 1.824v6.591zm14.11 2.066q0-5.471-4.833-5.471H12.14v11.06h1.545q5.205 0 5.205-5.588zm13.73 1.685 3.218-10.11h3.637l-5.774 16.98h-3.927l-5.762-16.98h3.636l3.195 10.11q.267.894.552 2.085.284 1.191.354 1.656.128-1.069.871-3.741m-9.991-1.778q0 4.194-2.387 6.425t-6.895 2.23h-4.81v-16.98h5.333q4.159 0 6.459 2.195 2.3 2.196 2.3 6.134z" transform="translate(-.68 -.68)scale(1.362)"/></svg>