<svg xmlns="http://www.w3.org/2000/svg" viewBox="0 0 64 64"><defs><linearGradient id="a" y2="1"><stop offset="0" stop-color="#fd0065"/><stop offset="1" stop-color="#ff0024"/></linearGradient></defs><path fill="url(#a)" d="M6.191 3.766q-.336 0-.709.004l-1.801.021.182.223c.23.28.478.819 1.39 3.045 1.347 3.286 1.526 3.662 1.78 3.662.039 0 .118-.074.173-.162.227-.36 1.734-3.869 1.732-4.033 0-.098-.212-.663-.47-1.26-.472-1.09-.683-1.389-1.035-1.477-.063-.016-.574-.025-1.242-.023zm-2.744.443q-.136.004-.264.206L0 12.235h3.926S5.285 8.832 5.407 8.5c.041-.111-1.054-2.918-1.463-3.75q-.269-.55-.496-.541zm8.242 1.471c-.29.012-.699.127-1.367.36-.576.2-1 .415-1.062.478-.116.12-1.781 4.076-1.781 4.228 0 .178.172.268.43.227.14-.023 1.494-.52 3.123-1.106C13.16 9.1 14.08 8.8 14.305 8.8c.21 0 .31-.031.31-.094 0-.12-2.096-2.665-2.39-2.875a.8.8 0 0 0-.534-.152zm2.547 3.426c-.135.002-.301.047-.627.15-1.211.387-2.279.82-2.328.94l-.002.002v.004c0 .118.783 2.035.783 2.035h3.936s-1.086-2.792-1.188-2.92c-.038-.049-.19-.125-.336-.17a.8.8 0 0 0-.238-.04z" transform="matrix(4 0 0 4 .003 -.007)"/></svg>