<svg xmlns="http://www.w3.org/2000/svg" style="isolation:isolate" viewBox="0 0 64 64"><linearGradient id="a" x1="1.029" x2="-.01" y1="1.069" y2=".137" gradientTransform="matrix(45.74 0 0 48 1.13 0)" gradientUnits="userSpaceOnUse" transform="scale(1.333)"><stop offset="0" stop-color="#c751fb"/><stop offset=".975" stop-color="#6d44de"/></linearGradient><path fill="url(#a)" fill-rule="evenodd" d="M46.03 37.07a.2.2 0 0 0 .027-.049c.53-1.45.81-2.98.81-4.52-.01-1.71-.33-3.39-.96-4.97-.57-1.41-1.3-2.73-2.2-3.95a23 23 0 0 0-3.58-3.87c.27-1.16.41-2.35.41-3.55-.01-4.31-1.76-8.44-4.86-11.44a16.7 16.7 0 0 0-11.68-4.72c-4.36-.01-8.55 1.68-11.68 4.72-3.09 3-4.85 7.13-4.86 11.44 0 1.2.14 2.39.41 3.55a22.6 22.6 0 0 0-3.57 3.87c-.9 1.22-1.64 2.55-2.21 3.95-.63 1.58-.95 3.27-.96 4.97 0 1.54.28 3.07.81 4.52.11.31.24.61.37.91q.6.135 1.2.06c.24-.02.48-.07.71-.15q.75-.225 1.44-.63c.67-.4 1.28-.88 1.82-1.45.02-.03.05-.05.07-.08.42.92.92 1.8 1.49 2.63-.51.26-.99.59-1.44.96-.46.39-.85.86-1.15 1.4-.31.56-.48 1.19-.48 1.83.02.93.36 1.82.96 2.53.58.68 1.3 1.24 2.11 1.64.88.45 1.82.78 2.79.98 1.08.24 2.19.35 3.29.35 1.48.01 2.95-.2 4.37-.63.63-.2 1.24-.45 1.82-.76.33-.17.65-.37.95-.6.58.06 1.16.09 1.74.1.58-.01 1.16-.04 1.74-.1.3.23.62.43.95.6.58.31 1.19.56 1.82.76 1.42.43 2.89.64 4.37.63 1.1 0 2.21-.11 3.29-.35.97-.2 1.91-.53 2.79-.98.81-.4 1.53-.96 2.11-1.64.6-.71.94-1.6.96-2.53 0-.64-.16-1.27-.48-1.83-.29-.54-.69-1.01-1.15-1.4-.44-.37-.93-.7-1.44-.96.57-.83 1.07-1.71 1.49-2.63.02.03.05.05.07.08.54.56 1.15 1.05 1.82 1.45q.675.405 1.44.63c.23.08.46.13.7.15l.001-.001h.022a.1.1 0 0 1-.023.001l.041.003a1.449 1.449 0 0 0 .919-.213 1.5 1.5 0 0 0 .542-.581.5.5 0 0 0 .051-.13m.021-.045.006-.004c-.023.062-.049.121-.006.004m-44.11-.004c.075.217.2.407.364.563.185-.034.281.042.256.197.28.18.62.25.95.21zm31.86-13.47c.79 1.7 1.2 3.56 1.2 5.45.03 3.11-1.11 6.12-3.19 8.44-.98 1.09-2.17 1.98-3.49 2.6-1.36.63-2.83.96-4.32.96s-2.96-.33-4.32-.96c-1.32-.62-2.51-1.51-3.49-2.6a12.47 12.47 0 0 1-3.19-8.44c0-1.78.36-3.54 1.07-5.18.085-.193 1.943.566 1.84.8-.61 1.38-.91 2.88-.91 4.38-.02 2.62.93 5.16 2.67 7.11.81.89 1.78 1.61 2.86 2.12 1.09.51 2.27.77 3.47.77s2.38-.26 3.47-.77a9.2 9.2 0 0 0 2.86-2.12c1.74-1.95 2.69-4.49 2.67-7.11.01-1.59-.34-3.17-1.01-4.61-.136.113 1.564-.997 1.81-.84m-15.8-11.62a1 1 0 1 1 2 0 1 1 0 0 1-2 0m10.21.549a.5.5 0 0 1-.7-.095.494.494 0 0 1 .1-.695c.37-.29.82-.44 1.29-.44.51.02 1.02.17 1.46.43a.51.51 0 0 1 .165.69.497.497 0 0 1-.685.17 2.15 2.15 0 0 0-.96-.29c-.24.01-.48.09-.67.23m-1.207-.549c0-.671.21-1.317.59-1.785.37-.482.88-.748 1.41-.748s1.04.266 1.41.748c.38.468.59 1.114.59 1.785s-.21 1.317-.59 1.785c-.37.482-.88.747-1.41.747s-1.04-.265-1.41-.747c-.38-.468-.59-1.114-.59-1.785m-10 0c0-.671.21-1.317.59-1.785.37-.482.88-.748 1.41-.748s1.04.266 1.41.748c.38.468.59 1.114.59 1.785s-.21 1.317-.59 1.785c-.37.482-.88.747-1.41.747s-1.04-.265-1.41-.747c-.38-.468-.59-1.114-.59-1.785m8 0c0-1.342.42-2.634 1.17-3.583s1.77-1.482 2.83-1.482 2.08.532 2.83 1.482c.75.949 1.17 2.241 1.17 3.583s-.42 2.634-1.17 3.583-1.77 1.482-2.83 1.482-2.08-.532-2.83-1.482c-.75-.949-1.17-2.241-1.17-3.583m-10 0c0-1.342.42-2.634 1.17-3.583s1.77-1.482 2.83-1.482 2.08.532 2.83 1.482c.75.949 1.17 2.241 1.17 3.583s-.42 2.634-1.17 3.583-1.77 1.482-2.83 1.482-2.08-.532-2.83-1.482c-.75-.949-1.17-2.241-1.17-3.583m-10.67 22.56a10 10 0 0 1-.2-2c0-1.32.26-2.63.75-3.86.47-1.17 1.08-2.27 1.83-3.28 1.29-1.76 2.85-3.3 4.63-4.55-.58-1.48-.88-3.06-.88-4.65.01-3.5 1.44-6.85 3.95-9.29 2.57-2.49 6.01-3.88 9.59-3.87a13.7 13.7 0 0 1 9.59 3.87c2.52 2.44 3.94 5.79 3.95 9.29 0 1.24-.18 2.48-.54 3.67-.18.6.03 1.26.54 1.63 1.42 1.12 2.68 2.43 3.75 3.89.75 1.02 1.36 2.12 1.83 3.29.49 1.23.75 2.54.75 3.86 0 .67-.07 1.34-.2 2-.36-.23-.68-.5-.97-.81a8.5 8.5 0 0 1-1.38-1.9c-.3-.54-.89-.85-1.5-.78-.61.08-1.12.52-1.27 1.11-.86 3.26-2.84 6.11-5.58 8.07 1.56-.21 3.14.05 4.54.75.34.17.66.38.95.62.19.16.35.35.47.57.06.11.1.23.1.35-.01.22-.09.43-.24.6-.32.38-.72.68-1.17.9-.66.34-1.36.59-2.08.74-.88.19-1.77.28-2.67.28-1.18.01-2.35-.16-3.48-.5a7.4 7.4 0 0 1-1.3-.54c-.52-.27-.98-.65-1.35-1.12-.9.17-1.82.26-2.74.27-.92-.01-1.84-.1-2.74-.27-.37.47-.83.85-1.35 1.12-.41.22-.85.4-1.3.54-1.13.34-2.3.51-3.48.5-.9 0-1.79-.09-2.67-.28-.72-.15-1.42-.4-2.08-.74-.45-.21-.85-.52-1.17-.9-.14-.17-.23-.38-.24-.6 0-.13.04-.25.1-.35.12-.22.28-.41.47-.57.29-.24.61-.45.95-.62 1.41-.7 2.99-.96 4.54-.75a14.4 14.4 0 0 1-5.57-8.07c-.16-.59-.67-1.03-1.27-1.11-.61-.07-1.21.24-1.5.78a9.2 9.2 0 0 1-1.38 1.9c-.3.31-.62.58-.98.81" transform="scale(1.333)"/><path fill="#8a48e7" d="M2.586 49.348c.27.748.76.934.827 1.04.309.214.736.48 1.92.08z"/><linearGradient id="b" x1=".34" x2="1.009" y1=".037" y2="1.013" gradientTransform="matrix(39.14 0 0 13.14 4.507 19.71)" gradientUnits="userSpaceOnUse" transform="scale(1.333)"><stop offset="0" stop-color="#9c33c4"/><stop offset=".513" stop-color="#ff1950"/><stop offset=".987" stop-color="#ff8724"/></linearGradient><path fill="url(#b)" fill-rule="evenodd" d="M17.59 27.86c2.062.333 4.146.502 6.235.508 3.3-.01 6.59-.42 9.79-1.21 3.42-.85 6.73-2.04 9.9-3.57l.128-.062c-1.702-2.216-2.978-3.452-3.513-3.815-2.483 1.108-5.067 1.935-7.715 2.597-2.81.69-5.7 1.05-8.6 1.06-2.82-.01-5.63-.36-8.36-1.06-2.59-.67-5.196-1.408-7.585-2.597-.895.737-1.96 1.805-3.363 3.639l.378.198a43.3 43.3 0 0 0 6.926 2.914v6.393h5.779z" transform="scale(1.333)"/><linearGradient id="d" x2="1" y1=".5" y2=".5" gradientTransform="matrix(22 0 0 5.081 13 17.87)" gradientUnits="userSpaceOnUse" transform="scale(1.333)"><stop offset="0" stop-color="#f7f206"/><stop offset=".983" stop-color="#ffbb24"/></linearGradient><path fill="url(#d)" d="M15.25 18.84c5.284-1.524 12.64-1.504 17.51-.03 1.236.374 1.24.994.009 1.384l-6.471 2.048c-1.231.389-3.231.393-4.463.008l-6.603-2.064c-1.232-.386-1.225-.989.015-1.346z" transform="scale(1.333)"/></svg>