<svg xmlns="http://www.w3.org/2000/svg" style="isolation:isolate" viewBox="0 0 64 64"><linearGradient id="a" x1=".474" x2=".523" y1=".997" y2="-.045" gradientTransform="matrix(38.88 0 0 47 4.56 .5)" gradientUnits="userSpaceOnUse" transform="translate(-.68 -.68)scale(1.362)"><stop offset="0" stop-color="#f96adb"/><stop offset=".988" stop-color="#bc31d2"/></linearGradient><path fill="url(#a)" fill-rule="evenodd" d="M24 5.625a6.73 6.73 0 0 1 6.729 6.729c0 4.486-4.486 10.1-5.607 10.15 0 0 .193-3.424-1.122-3.424a6.729 6.729 0 1 1 0-13.458zm0 21.31a3.366 3.366 0 0 1 3.365 3.365 3.36 3.36 0 0 1-2.546 3.253h.303c1.121 0 1.807 1.023 2.479 1.93.627.845.885 2.022.885 2.449v.773q-.002.036 0 .073c0 .892-.727 1.617-1.625 1.617h-5.719a1.624 1.624 0 0 1-1.628-1.619q.002-.034.005-.07c-.002 0-.004-.387-.005-.773 0-.427.198-1.623.798-2.488.634-.916 1.445-1.891 2.567-1.891h.302a3.36 3.36 0 0 1-2.546-3.253A3.365 3.365 0 0 1 24 26.937zm-9.72-6.344v-10.46c.02-.51.14-1.02.36-1.49.18-.49.46-.94.81-1.31 1.19-1.21 2.58-2.19 4.12-2.89 1.35-.61 2.81-.93 4.29-.94 1.51.01 2.99.33 4.37.95 1.59.72 3.05 1.71 4.3 2.93.36.37.64.8.82 1.28.22.46.34.96.36 1.47l.01 10.44 5.98.02c.2 0 .39.07.53.21s.21.33.21.53v22.43a.734.734 0 0 1-.74.74H8.3a.734.734 0 0 1-.74-.74v-22.43a.734.734 0 0 1 .74-.74zm-3-3v-7.48c0-.01 0-.03.01-.04.02-.89.22-1.77.57-2.58.33-.84.82-1.6 1.44-2.25 1.44-1.47 3.14-2.67 5.02-3.53 1.74-.79 3.63-1.2 5.54-1.21 1.93.01 3.84.42 5.6 1.21 1.92.87 3.68 2.07 5.18 3.54.64.64 1.14 1.4 1.47 2.23.37.82.58 1.7.6 2.59v.04l.01 7.47 2.98.01c1 0 1.95.39 2.65 1.1.7.7 1.09 1.65 1.09 2.64v22.43c0 .99-.39 1.94-1.09 2.64-.7.71-1.66 1.1-2.65 1.1H8.3c-.99 0-1.95-.39-2.65-1.1a3.73 3.73 0 0 1-1.09-2.64v-22.43c0-.99.39-1.94 1.09-2.64.7-.71 1.66-1.1 2.65-1.1z" transform="translate(-.68 -.68)scale(1.362)"/></svg>