<svg xmlns="http://www.w3.org/2000/svg" fill="none" viewBox="0 0 64 64"><defs><linearGradient id="a" x1="5.5" x2="52.54" y1="23.24" y2="50.59" gradientUnits="userSpaceOnUse"><stop offset="0" stop-color="#fd5900"/><stop offset="1" stop-color="#ffde00"/></linearGradient><linearGradient id="c" x1="15.42" x2="62.32" y1="51.86" y2="10.95" gradientUnits="userSpaceOnUse"><stop offset="0" stop-color="#fe0844"/><stop offset="1" stop-color="#feb302"/></linearGradient></defs><g fill="url(#a)" opacity=".4" transform="translate(-6.642 -6.642)scale(1.208)"><path d="M13.5 12a1.5 1.5 0 0 0-1.5 1.5v2.333a1.5 1.5 0 0 0 1.5 1.5h2.333a1.5 1.5 0 0 0 1.5-1.5V13.5a1.5 1.5 0 0 0-1.5-1.5z"/><path fill-rule="evenodd" d="M7 5.5A1.5 1.5 0 0 0 5.5 7v15.33a1.5 1.5 0 0 0 1.5 1.5h15.33a1.5 1.5 0 0 0 1.5-1.5V7a1.5 1.5 0 0 0-1.5-1.5zm3.833 5.833a.5.5 0 0 1 .5-.5H18a.5.5 0 0 1 .5.5V18a.5.5 0 0 1-.5.5h-6.667a.5.5 0 0 1-.5-.5z" clip-rule="evenodd"/><path fill-rule="evenodd" d="M28.67 5.5a1.5 1.5 0 0 0-1.5 1.5v6.667a1.5 1.5 0 0 0 1.5 1.5h2.333c.231 0 .45-.052.646-.146a1.5 1.5 0 0 0-.146.646v6.667c0 .231.052.45.146.646a1.5 1.5 0 0 0-.646-.146H28.67a1.5 1.5 0 0 0-1.5 1.5v2.333c0 .231.052.45.146.646a1.5 1.5 0 0 0-.646-.146h-2.333a1.5 1.5 0 0 0-1.5 1.5V31a.5.5 0 0 1-.5.5h-2.333c-.231 0-.45.052-.646.146.094-.196.146-.415.146-.646v-2.333a1.5 1.5 0 0 0-1.5-1.5h-11a1.5 1.5 0 0 0-1.5 1.5v6.667a1.5 1.5 0 0 0 1.5 1.5h6.667a1.5 1.5 0 0 0 1.5-1.5v-2.333a.5.5 0 0 1 .5-.5h2.333c.231 0 .45-.052.646-.146a1.5 1.5 0 0 0-.146.646v2.333a1.5 1.5 0 0 0 1.5 1.5h6.667c.231 0 .45-.052.646-.146a1.5 1.5 0 0 0-.146.646v2.333a1.5 1.5 0 0 0 1.5 1.5h2.333a.5.5 0 0 1 .5.5V44a1.5 1.5 0 0 0 1.5 1.5h2.333c.231 0 .45-.052.646-.146a1.5 1.5 0 0 0-.146.646v2.333c0 .231.052.45.146.646a1.5 1.5 0 0 0-.646-.146H28.67a1.5 1.5 0 0 0-1.5 1.5v2.333a1.5 1.5 0 0 0 1.5 1.5h2.333a.5.5 0 0 1 .5.5v2.333a1.5 1.5 0 0 0 1.5 1.5h2.333a1.5 1.5 0 0 0 1.5-1.5v-6.667c0-.231-.052-.45-.146-.646.196.094.415.146.646.146h2.333c.231 0 .45-.052.646-.146a1.5 1.5 0 0 0-.146.646v2.333a1.5 1.5 0 0 0 1.5 1.5h2.333c.231 0 .45-.052.646-.146a1.5 1.5 0 0 0-.146.646v2.333a1.5 1.5 0 0 0 1.5 1.5h2.333a1.5 1.5 0 0 0 1.5-1.5v-2.333c0-.231-.052-.45-.146-.646.196.094.415.146.646.146h6.667a1.5 1.5 0 0 0 1.5-1.5v-2.333a1.5 1.5 0 0 0-1.5-1.5h-6.667a1.5 1.5 0 0 0-1.5 1.5v2.333c0 .231.052.45.146.646a1.5 1.5 0 0 0-.646-.146h-2.333c-.231 0-.45.052-.646.146.094-.196.146-.415.146-.646v-2.333a1.5 1.5 0 0 0-1.5-1.5h-2.333c-.231 0-.45.052-.646.146.094-.196.146-.415.146-.646v-2.333c0-.231-.052-.45-.146-.646.196.094.415.146.646.146h2.333a1.5 1.5 0 0 0 1.5-1.5v-2.333c0-.231-.052-.45-.146-.646.196.094.415.146.646.146h2.333a.5.5 0 0 1 .5.5v2.333a1.5 1.5 0 0 0 1.5 1.5h2.333a1.5 1.5 0 0 0 1.5-1.5v-6.667c0-.231-.052-.45-.146-.646.196.094.415.146.646.146h2.333a1.5 1.5 0 0 0 1.5-1.5v-6.667a1.5 1.5 0 0 0-1.5-1.5h-6.667a1.5 1.5 0 0 0-1.5 1.5v2.333a1.5 1.5 0 0 0 1.5 1.5h2.333a.5.5 0 0 1 .5.5v2.333c0 .231.052.45.146.646a1.5 1.5 0 0 0-.646-.146H46c-.231 0-.45.052-.646.146.094-.196.146-.415.146-.646v-6.667a1.5 1.5 0 0 0-1.5-1.5h-2.333a1.5 1.5 0 0 0-1.5 1.5v2.333a.5.5 0 0 1-.5.5h-2.333c-.231 0-.45.052-.646.146.094-.196.146-.415.146-.646v-2.333a1.5 1.5 0 0 0-1.5-1.5h-2.333c-.231 0-.45.052-.646.146.094-.196.146-.415.146-.646v-2.333c0-.231-.052-.45-.146-.646.196.094.415.146.646.146h2.333a1.5 1.5 0 0 0 1.5-1.5v-6.667a1.5 1.5 0 0 0-1.5-1.5h-2.333c-.231 0-.45.052-.646.146.094-.196.146-.415.146-.646v-2.333a.5.5 0 0 1 .5-.5h2.333a1.5 1.5 0 0 0 1.5-1.5V6.998a1.5 1.5 0 0 0-1.5-1.5h-6.667zm-.5 23.17c0-.231-.052-.45-.146-.646.196.094.415.146.646.146h2.333c.231 0 .45-.052.646-.146a1.5 1.5 0 0 0-.146.646v2.333a1.5 1.5 0 0 0 1.5 1.5h2.333c.231 0 .45-.052.646-.146a1.5 1.5 0 0 0-.146.646v2.333c0 .231.052.45.146.646a1.5 1.5 0 0 0-.646-.146h-6.667c-.231 0-.45.052-.646.146.094-.196.146-.415.146-.646v-6.667zm8.667 8.667c0-.231-.052-.45-.146-.646.196.094.415.146.646.146h6.667c.231 0 .45-.052.646-.146a1.5 1.5 0 0 0-.146.646v2.333c0 .231.052.45.146.646a1.5 1.5 0 0 0-.646-.146h-2.333a1.5 1.5 0 0 0-1.5 1.5v2.333c0 .231.052.45.146.646a1.5 1.5 0 0 0-.646-.146h-2.333c-.231 0-.45.052-.646.146.094-.196.146-.415.146-.646v-6.667z" clip-rule="evenodd"/></g><path fill="url(#c)" fill-rule="evenodd" d="M40.67 7a1 1 0 0 1 1-1H57a1 1 0 0 1 1 1v15.33a1 1 0 0 1-1 1H41.67a1 1 0 0 1-1-1zM6 41.67a1 1 0 0 1 1-1h15.33a1 1 0 0 1 1 1V57a1 1 0 0 1-1 1H7a1 1 0 0 1-1-1zm40-31.33a1 1 0 0 0-1 1v6.667a1 1 0 0 0 1 1h6.667a1 1 0 0 0 1-1V11.34a1 1 0 0 0-1-1zM10.33 46.01a1 1 0 0 1 1-1h6.667a1 1 0 0 1 1 1v6.667a1 1 0 0 1-1 1H11.33a1 1 0 0 1-1-1z" clip-rule="evenodd" transform="translate(-6.642 -6.642)scale(1.208)"/><path fill="url(#c)" d="M41.67 5.5a1.5 1.5 0 0 0-1.5 1.5h1a.5.5 0 0 1 .5-.5zM57 5.5H41.67v1H57zM58.5 7A1.5 1.5 0 0 0 57 5.5v1a.5.5 0 0 1 .5.5zm0 15.33V7h-1v15.33zm-1.5 1.5a1.5 1.5 0 0 0 1.5-1.5h-1a.5.5 0 0 1-.5.5zm-15.33 0H57v-1H41.67zm-1.5-1.5a1.5 1.5 0 0 0 1.5 1.5v-1a.5.5 0 0 1-.5-.5zm0-15.33v15.33h1V7zM7 40.17a1.5 1.5 0 0 0-1.5 1.5h1a.5.5 0 0 1 .5-.5zm15.33 0H7v1h15.33zm1.5 1.5a1.5 1.5 0 0 0-1.5-1.5v1a.5.5 0 0 1 .5.5zm0 15.33V41.67h-1V57zm-1.5 1.5a1.5 1.5 0 0 0 1.5-1.5h-1a.5.5 0 0 1-.5.5zM7 58.5h15.33v-1H7zM5.5 57A1.5 1.5 0 0 0 7 58.5v-1a.5.5 0 0 1-.5-.5zm0-15.33V57h1V41.67zm40-30.33a.5.5 0 0 1 .5-.5v-1a1.5 1.5 0 0 0-1.5 1.5zm0 6.667V11.34h-1v6.667zm.5.5a.5.5 0 0 1-.5-.5h-1a1.5 1.5 0 0 0 1.5 1.5zm6.667 0H46v1h6.667zm.5-.5a.5.5 0 0 1-.5.5v1a1.5 1.5 0 0 0 1.5-1.5zm0-6.667v6.667h1V11.34zm-.5-.5a.5.5 0 0 1 .5.5h1a1.5 1.5 0 0 0-1.5-1.5zm-6.667 0h6.667v-1H46zM11.33 44.51a1.5 1.5 0 0 0-1.5 1.5h1a.5.5 0 0 1 .5-.5zm6.667 0H11.33v1h6.667zm1.5 1.5a1.5 1.5 0 0 0-1.5-1.5v1a.5.5 0 0 1 .5.5zm0 6.667V46.01h-1v6.667zm-1.5 1.5a1.5 1.5 0 0 0 1.5-1.5h-1a.5.5 0 0 1-.5.5zm-6.667 0h6.667v-1H11.33zm-1.5-1.5a1.5 1.5 0 0 0 1.5 1.5v-1a.5.5 0 0 1-.5-.5zm0-6.667v6.667h1V46.01zm38.33-34a1.5 1.5 0 0 0-1.5 1.5h1a.5.5 0 0 1 .5-.5zm-1.5 1.5v2.333h1V13.51zm0 2.333a1.5 1.5 0 0 0 1.5 1.5v-1a.5.5 0 0 1-.5-.5zm1.5 1.5h2.333v-1H48.16zm2.333 0a1.5 1.5 0 0 0 1.5-1.5h-1a.5.5 0 0 1-.5.5zm1.5-1.5V13.51h-1v2.333zm0-2.333a1.5 1.5 0 0 0-1.5-1.5v1a.5.5 0 0 1 .5.5zm-1.5-1.5H48.16v1h2.333zm-37 34.67a1.5 1.5 0 0 0-1.5 1.5h1a.5.5 0 0 1 .5-.5zm-1.5 1.5v2.333h1V48.18zm0 2.333a1.5 1.5 0 0 0 1.5 1.5v-1a.5.5 0 0 1-.5-.5zm1.5 1.5h2.333v-1h-2.333zm2.333 0a1.5 1.5 0 0 0 1.5-1.5h-1a.5.5 0 0 1-.5.5zm1.5-1.5V48.18h-1v2.333zm0-2.333a1.5 1.5 0 0 0-1.5-1.5v1a.5.5 0 0 1 .5.5zm-1.5-1.5h-2.333v1h2.333z" transform="translate(-6.642 -6.642)scale(1.208)"/></svg>