<svg version="1.1" viewBox="0 0 64 64" xmlns="http://www.w3.org/2000/svg">
 <defs>
  <linearGradient id="a" y1="1">
   <stop stop-color="#5433ff" offset="0"/>
   <stop stop-color="#20bdff" offset=".5"/>
   <stop stop-color="#a5fecb" offset="1"/>
  </linearGradient>
 </defs>
 <path transform="translate(-.01028 .00069) scale(1) translate(-6.553 -6.624) scale(1.334)" d="m28.9 4.965c-13.25 0-23.98 10.73-23.98 23.98s10.73 23.98 23.98 23.98 23.98-10.73 23.98-23.98-10.73-23.98-23.98-23.98zm0 4.996c10.48 0 18.99 8.501 18.99 18.99s-8.501 18.99-18.99 18.99-18.99-8.503-18.99-18.99 8.503-18.99 18.99-18.99z" fill="url(#a)"/>
 <path transform="translate(-.01028 .00069) scale(1) translate(-6.553 -6.624) scale(1.334)" d="m35.89 26.95c-4.968 0-8.994 4.027-8.994 8.994s4.027 8.994 8.994 8.994 8.994-4.027 8.994-8.994-4.027-8.994-8.994-8.994zm0.125 2.217c0.2378 0.09353 0.4809 0.1878 0.7188 0.2812 0.03527 0.1689-0.1687 0.4187-0.2188 0.625-0.07548 0.1394-0.1018 0.2137-0.0957 0.2441 2.41e-4 5.5e-4 0.0031 0.0046 0.0039 0.0059l0.0039 0.0039c0.0019 0.0011 0.0074 0.0032 0.0098 0.0039 0.04185 0.0083 0.1418-0.03244 0.2656-0.03906 0.2894 0.1332-0.1179 0.4197-0.25 0.3438-0.172-0.2651-0.2004-0.2796-0.5625-0.09375-0.3314 0.1708-0.7945 0.1619-0.9375 0.5625-0.09891 0.2203-0.3895 0.4524-0.4356 0.09375-0.05937-0.2059-0.3818-0.4755-0.09375-0.625 0.224-0.1621 0.09039-0.4894-0.1562-0.5625-0.1372-0.1404-0.5564-0.2302-0.2188-0.4062-0.1347-0.0073-0.5289 0.188-0.7188 0.25-0.0723-0.0054-0.1116-0.0061-0.123-0.0039l-2e-3 2e-3v2e-3h2e-3l2e-3 2e-3c0.04417 0.01853 0.3928 0.06885 0.4961 0.06055 0.1299 0.17 0.2288 0.4049 0.5 0.4375-0.2643 0.4466-0.5889 0.01775-0.9062-0.1562-0.2379-0.15-0.4769 0.0078-0.625 0.2188 0.05797-0.0484 0.1473-0.05761 0.2188-0.0625 0.1201-0.0082 0.2522 0.06274 0.2812 0.1875 0.04171 0.3178-0.3595 0.07006-0.5-0.0625h-2e-3v2e-3h-0.0039c-0.0056-4.06e-4 -0.01597-0.0036-0.02148-0.0039h-2e-3v2e-3h-2e-3c-0.03043 0.05202-0.0761 0.1033-0.09375 0.1562-0.2076 0.2154-0.4036-0.0048-0.1875-0.25 0.2005-0.1506 0.3184-0.3034 0.25-0.5625 0.0094-0.02753 0.0215-0.0453 0.03125-0.05273h2e-3l2e-3 -2e-3h2e-3l2e-3 -2e-3h0.0059l4e-3 4e-3c0.04554 0.01571 0.09645 0.1683 0.1445 0.1856h2e-3c7.52e-4 1.33e-4 0.0051-6.1e-5 0.0059 0h0.0039l2e-3 -2e-3h2e-3c3.76e-4 -1.64e-4 0.0046-0.0016 0.0059-2e-3 0.0225-0.01494 0.04435-0.0699 0.06641-0.1914 0.2612-0.02992 0.4719-0.2729 0.75-0.2812 0.2437-0.0065 0.3209-0.2947 0.5938-0.248 0.3116 0.04318 0.05797 0.2288 0.01367 0.2832-7.84e-4 0.0011-0.0034 0.0049-0.0039 0.0059v0.0078h0.005372c0.01546-5.98e-4 0.0578-0.01398 0.1406-0.04687 0.5241-0.1726 1.074-0.2691 1.623-0.3125zm3.154 1.156c0.1919 0.07484 0.3563 0.1624 0.5625 0.1875 0.2723-0.0067 0.5278 0.1099 0.1562 0.2188-0.122-0.02277-0.1852-0.02093-0.207-0.0039l-0.0039 0.0039v2e-3l-2e-3 2e-3v2e-3l-2e-3 2e-3v0.0079c0.0024 0.05901 0.1703 0.187 0.2754 0.2969 0.2084 0.02515 0.3262-0.6121 0.5312-0.2188 1.181 1.091 2.058 2.546 2.279 4.152-0.2541 0.5106-0.4433-0.3424-0.8438-0.125-0.1173-0.05735-0.2532-0.2356-0.3184-0.2441-1e-3 -4.8e-5 -0.0049-4.8e-5 -0.0059 0h-0.0039l-2e-3 2e-3h-2e-3l-0.0039 0.0039v4e-3l-2e-3 2e-3c-0.01711 0.0228-0.0226 0.0816-0.0059 0.2012-0.01481 0.2204 0.3182 0.2996 0.4062 0.4688 0.1996-0.44 0.4269 0.05254 0.375 0.3438-0.1061 0.2572-0.3655 0.4109-0.5938 0.5625-0.33 0.2364-0.5294 0.4936 0.0625 0.3125 0.02148 0.3568-0.2117 0.6358-0.3125 0.9688-0.2502 0.214-0.3811 0.5082-0.498 0.8106-0.01818 0.382-0.05904 0.783 0.0625 1.156-0.06738 0.2427-0.4266 0.314-0.5938 0.5-0.4027 0.1369 0.3137 0.3452 0 0.498-0.3234 0.1189-0.0776 0.3945-0.2812 0.5625-0.1828 0.1387-0.3027 0.471-0.5625 0.4375-0.2661-0.07759-0.3894 0.2673-0.6562 0.1875 0.01197-0.4026-0.09672-0.8161-0.25-1.188-0.1916-0.4099-0.2378-0.9299-0.03125-1.344 0.06207-0.2148-0.2526-0.409-0.1543-0.6543 0.1082-0.2634-0.1628-0.3682-0.2188-0.5625 0.1027-0.2333 0.1554-0.5024-0.09375-0.6562-0.2587 0.1131-0.4158-0.1435-0.5938 0-0.2228 0.3297-0.342-0.1945-0.5312 0.09375-0.3378 0.3331-0.7204-0.514-0.9375-0.7812-0.0495-0.2118-0.2934-0.4388-0.0625-0.623 0.2828-0.1968-0.163-0.3643 0.0625-0.5938 0.154-0.545 0.611-0.8931 0.9688-1.31 0.4169-0.1132 0.8612-0.2784 1.279-0.09375 0.1693 0.1439 0.3328 0.3886 0.5 0.4668 0.1084-0.2269 0.3908-0.2228 0.5938-0.123 0.2114 0.06794 0.5076 0.1693 0.6875 0 0.2221-0.1401 0.3642-0.3686 0.03125-0.4375-0.4457 0.1801-0.5598-0.548-0.875-0.4062-0.01611 0.3045-0.07902 0.5024-0.2812 0.1562-0.03985-0.2307-0.1268-0.4832-0.375-0.5625-0.0109 3e-3 -0.02191 0.0091-0.02734 0.01367v2e-3l-0.0039 0.0039v2e-3l-2e-3 2e-3v0.0078c0.0039 0.08654 0.3941 0.2977 0.1582 0.4688-0.08605 0.08827-0.1352 0.1227-0.1582 0.123l-2e-3 -2e-3h-0.0039l-0.0039-0.0039v-2e-3h-2e-3v-4e-3l-2e-3 -2e-3c-0.01426-0.04362 0.03028-0.1808 0.01563-0.2656-0.2418-0.03035-0.3357-0.4264-0.5938-0.2812-0.2588-0.0053-0.2623 0.2432-0.498 0.3125-0.04119 0.2633-0.2168 0.4284-0.4688 0.5-0.1546-0.2124-0.4112-0.1295-0.3125-0.4688-0.08775-0.2724 0.2519-0.4137 0.4688-0.4375 0.3387 0.05795-0.03808-0.3375-0.125-0.4062 0.2395-0.01596 0.4788-0.09152 0.5938-0.3125-0.01354-0.355 0.5287-0.1099 0.373-0.373 0.01896-0.08294 0.03903-0.1319 0.05664-0.1523 0.0022-0.0022 0.0076-0.0064 0.0098-0.0078l2e-3 -2e-3h2e-3c0.0035-7.4e-4 0.0073 1.5e-4 0.0098 0 0.0034 3.45e-4 0.01024 0.0023 0.01367 0.0039 0.04139 0.02433 0.08888 0.1306 0.1562 0.1875 0.2504 0.1428 0.4516-0.0013 0.625-0.1856 0.02298-0.1547 0.3328-0.3614 0.3652-0.4238v-0.0078l-2e-3 -2e-3h-2e-3v-2e-3h-0.0039c-0.0034-9.89e-4 -0.0079-0.0021-0.01367-2e-3 -0.4285 0.2144-0.2594-0.3262-0.125-0.5312-0.2168-0.01926-0.3976 0.2375-0.5 0.4062 0.06015 0.1655 0.03488 0.5091-0.125 0.5606-0.2196-0.04284-0.3204-0.4338-0.5293-0.1562-0.1924 0.2453-0.1995-0.3469-0.1562-0.4375 0.162-0.1546 0.5074-0.1846 0.4375-0.4668 0.2338-0.2044 0.5477-0.2829 0.8438-0.3438zm-7.369 0.1562c0.2298 0.0013 0.4456 0.1577 0.3418 0.4062-0.1914 0.3424-0.6698 0.4681-0.9668 0.6856 0.0016 0.2915 0.2766 0.3175 0.498 0.4062 0.112 0.07211 0.1375 0.2938 0.1758 0.3379l2e-3 2e-3h2e-3l2e-3 2e-3h0.0039l2e-3 2e-3h0.0039v-2e-3h0.0039l2e-3 -2e-3c0.01986-0.01145 0.04603-0.06399 0.08594-0.1836 0.0678-0.2498 0.4307-0.1957 0.3438-0.5 0.1341-0.1587 0.1886-0.5791 0.4356-0.3125 0.2064 0.03811 0.1268 0.2487 0.1562 0.3125 5.54e-4 9.83e-4 0.0033 5e-3 0.0039 0.0059l0.0059 0.0059h2e-3c7.58e-4 3.41e-4 0.0051 0.0017 0.0059 2e-3 0.02578 0.0068 0.07422-0.01282 0.1699-0.07617 0.2954-0.05792 0.07267 0.4544 0.3125 0.4375 0.303 0.07945 0.03684 0.3648 0.3438 0.4375-0.1574 0.3604-0.2196 0.2146-0.25-0.09375-0.2264 0.0871-0.4411 0.1576-0.6875 0.125-0.1092 0.05988-0.3602 0.1578-0.3945 0.2031l-2e-3 2e-3v0.0078l0.0079 0.0079c0.02026 0.0079 0.0744 0.0081 0.1719-2e-3 0.2249 0.0095 0.6242-0.0762 0.3106 0.2188-0.1 0.2909-0.5265 0.04892-0.623 0.3438-0.06983 0.282-0.4835 0.1587-0.5312 0.4375-0.04854 0.2662-0.2661 0.4401-0.4688 0.5938-0.2656 0.1339-0.1245 0.4456-0.1875 0.6856-0.1503-0.1681-0.2669-0.3866-0.5312-0.373-0.2104-0.03185-0.2797 0.1995-0.5606 0.1562-0.2098 0.1417-0.439 0.2776-0.4062 0.5606-0.046 0.2353 0.08569 0.5029 0.3438 0.5 0.2114-0.1384 0.6159-0.6161 0.4668 0-0.3135 0.5651 0.4238 0.02076 0.25 0.5-0.0591 0.3464 0.4482 0.6826 0.625 0.375 0.1883-0.1243 0.3566-0.4663 0.5625-0.1875 0.1818 0.2174 0.4374 0.1731 0.6875 0.125 0.1942 0.01808 0.2014 0.3759 0.3125 0.5312 0.2632 0.01994 0.4634 0.1295 0.5293 0.4043 0.3329 0.3512 0.8609 0.4584 1.281 0.7188-0.02929 0.2307 1.49e-4 0.4862-0.1875 0.6562-0.2494 0.2084-0.09653 0.5351-0.09375 0.8125-0.1168 0.1899-0.1133 0.522-0.4062 0.5-0.2292-0.0079-0.4342 0.3046-0.2812 0.498-0.1047 0.2096-0.1721 0.4533-0.3125 0.625-0.3025 7.27e-4 -0.3197 0.2752-0.5 0.4375-0.04762 0.5625-0.6821 0.06716-0.998-0.1562 0.01788-0.237 0.08255-0.5088 0.125-0.75-0.1183-0.2148-0.1693-0.4406-0.125-0.6856 0.08339-0.3025-0.1624-0.5401-0.375-0.7188-0.3034-0.1895-0.3989-0.5108-0.5625-0.8125-0.1925-0.2059-0.1492-0.4498-0.0625-0.6875-0.1033-0.2098 0.1662-0.3425 0.1875-0.5606 0.05764-0.1728 0.274-0.5014-0.0625-0.4688-0.2321 0.07994-0.4001-0.1796-0.5625-0.3125-0.1454-0.3155-0.5512-0.2557-0.8106-0.4062-0.3052-0.1604-0.592-0.3569-0.6875-0.7188 0.1809-1.543 0.8348-3.02 1.904-4.152 0.2174-0.4796 0.8699-0.4201 0.9688-0.9062zm5.332 0.5606h2e-3c0.0016 4.5e-5 0.0043 0.0019 0.0059 2e-3 0.1695 0.0094 0.1626 0.2641 0.248 0.4043 0.1434 0.2411 0.3894 0.3786 0.03125 0.5625-0.345 0.1611-0.3565-0.03644-0.2793-0.3125 0.08609-0.252-0.1386-0.3868-0.09375-0.623 0.02776-0.0081 0.06011-0.02756 0.08398-0.03125zm-0.3691 0.4043c0.01149-7.15e-4 0.0243-7.92e-4 0.0332 2e-3 0.04147 0.1748 0.1988 0.3106-0.0625 0.375-0.167 0.1474-0.2274-0.38 0-0.375 0.0076 1.66e-4 0.01781-0.0012 0.0293-2e-3z" fill="url(#a)"/>
 <path transform="translate(-.01028 .00069) scale(1) translate(-6.553 -6.624) scale(1.334)" d="m40.38 34.69c-0.1539 0.08243-0.01542 0.217 0 0.3438 0.148 0.3809 0.4605 0.6889 0.5312 1.125-0.07101 0.2438 0.2981 0.4247 0.377 0.373l0.0078-0.0078v-2e-3l2e-3 -2e-3v-2e-3c3.4e-4 -9.29e-4 0.0017-0.0049 2e-3 -0.0059 0.0045-0.02605-0.0166-0.07002-0.07617-0.1348-0.145-0.1767 0.1685-0.3876-0.1562-0.5312-0.219-0.3823-0.3455-0.8529-0.6875-1.156z" fill="url(#a)"/>
</svg>
