<svg xmlns="http://www.w3.org/2000/svg" viewBox="0 0 64 64"><defs><linearGradient id="a" x1="1" x2="0" y1="1"><stop offset="0" stop-color="#1ad6ab"/><stop offset="1" stop-color="#329db6"/></linearGradient></defs><path fill="url(#a)" d="M32 0C14.34 0 0 14.34 0 32s14.34 32 32 32h26.6c2.917 0 5.4-2.482 5.4-5.4V32C64 14.34 49.66 0 32 0m.002 3.998L32 4c15.51 0 28 12.49 28 28v26.6c0 .776-.623 1.398-1.398 1.398h-26.6c-15.51 0-28-12.49-28-28s12.49-28 28-28"/><path fill="url(#a)" d="M32.03 12.56a19.45 19.45 0 0 0-15.46 7.883 19.5 19.5 0 0 0-3.709 9.264.802.802 0 0 0 .906.893l7.016-1.031a.8.8 0 0 0 .375-.157l3.828-2.93c.663-.5.22-1.554-.601-1.43l-6.273.922c.46-1.089.89-2.19 1.625-3.18 4.024-5.416 10.82-7.456 16.91-5.656a.8.8 0 0 0 .71-.132l2.235-1.703a.8.8 0 0 0-.196-1.375 19.5 19.5 0 0 0-7.368-1.368zm10.67 3.615v.002a.8.8 0 0 0-.758.797v-.11l-1.93 6.062a.8.8 0 0 0-.031.344l.71 5.477c.113.846 1.294.953 1.556.14l1.984-6.21c.774.892 1.575 1.757 2.14 2.852a15.544 15.544 0 0 1-3.32 18.65 1 1 0 0 0-.046.125l-.07.07a1 1 0 0 0-.008.156.8.8 0 0 0-.125.352l.008.07a.8.8 0 0 0 .07.532l5.92 6.86a.8.8 0 0 0 1.133.086l1.82-1.578a.8.8 0 0 0 .078-1.125l-4.256-4.936c4.68-5.832 5.964-13.98 2.305-21.06a19.5 19.5 0 0 0-6.695-7.416l.024.04a.8.8 0 0 0-.508-.172zm-29.42 18.34-.004.002a.8.8 0 0 0-.203.04.8.8 0 0 0-.555.866c1.184 8.772 8.224 15.88 17.42 16.79a19.55 19.55 0 0 0 9.875-1.586.8.8 0 0 0 .29-1.242l-4.608-5.6a.8.8 0 0 0-.312-.234l-4.6-1.914c-.771-.32-1.455.607-.922 1.25l4.24 5.164c-1.174.166-2.343.363-3.57.242a15.54 15.54 0 0 1-13.67-12.08.8.8 0 0 0-.469-.562l-2.57-1.07a.8.8 0 0 0-.344-.063z"/></svg>