<svg xmlns="http://www.w3.org/2000/svg" viewBox="0 0 64 64"><defs><linearGradient id="a" y1="1"><stop offset="0" stop-color="#0047ff"/><stop offset="1" stop-color="#00ff7b"/></linearGradient></defs><path fill="url(#a)" d="M14.16.42A12.99 12.99 0 0 0 1.17 13.41v75.06a12.99 12.99 0 0 0 12.99 12.99 12.99 12.99 0 0 0 12.99-12.99V26.41h216.6v194.1l-43.58-.143a12.99 12.99 0 0 0-13.04 12.94 12.99 12.99 0 0 0 12.94 13.04l56.62.194a12.99 12.99 0 0 0 13.04-12.99V13.45a12.99 12.99 0 0 0-12.99-13L14.14.408zm0 136.2a12.99 12.99 0 0 0-12.99 12.99v83.95a12.99 12.99 0 0 0 12.99 13H75a12.99 12.99 0 0 0 13-13 12.99 12.99 0 0 0-13-12.99H27.15V149.6a12.99 12.99 0 0 0-12.99-12.99z" transform="translate(.634 -.097)scale(.23155)"/><path fill="url(#a)" d="M39.64 63.9c-5.954-.987-9.019-3.684-9.705-8.608-.126-.965-.345-1.864-.471-1.99-.11-.126-1.157-.45-2.292-.73-4.156-1.008-7.753-3.146-10.73-6.403-1.305-1.415-2.012-2.528-3.043-4.671-.752-1.541-1.541-3.553-1.776-4.474-.56-2.226-.774-8.137-.384-10.63 1.393-8.652 7.413-15.34 15.89-17.63 2.1-.576 2.91-.664 6.316-.642 4.732 0 6.706.45 10.49 2.358 5.29 2.676 9.08 7.473 10.73 13.66.471 1.694.559 2.72.575 6.234 0 3.597-.087 4.54-.575 6.382-2.122 7.967-7.37 13.43-15.03 15.62-2.632.73-2.72.812-2.506 2.1.257 1.563 1.223 3.301 2.418 4.348 1.628 1.415 3.64 1.93 7.369 1.908 1.672 0 3.575-.11 4.2-.192.641-.11 1.305-.148 1.458-.11.405.149.384 1.969-.022 2.315-.855.707-10.41 1.563-12.91 1.157m-1.798-14.89c4.024-1.393 7.39-5.121 8.975-9.92 1.305-3.941 1.606-10.39.663-14.75-1.458-6.831-5.313-11.56-10.58-12.98-1.733-.47-5.483-.449-7.347.023-5.63 1.497-9.359 6.552-10.47 14.2-.471 3.125-.214 8.888.516 11.69 1.716 6.662 5.46 10.92 10.69 12.14 2.034.471 5.609.28 7.56-.406" transform="translate(.004)scale(.9998)"/></svg>