<svg xmlns="http://www.w3.org/2000/svg" viewBox="0 0 64 64"><defs><linearGradient id="a" y1="1"><stop offset="0" stop-color="#05f"/><stop offset="1" stop-color="#00ffd8"/></linearGradient></defs><path fill="url(#a)" d="M42.29 10c-4.582-.004-13.94 1.916-14.94 3.143-.3.37-.31.744-.04 1.539.611 1.785 1.004 4.777-.335 13.49-1.552 10.1-2.207 13.6-2.557 13.96-.144.147-.909-.03-1.699-.396-1.947-.901-4.965-.91-6.398-.018-4.271 2.654-2.388 8.126 3.498 10.08v.002c.447.149 1.71.23 2.809.184 1.545-.066 2.355-.306 3.576-1.064 2.326-1.446 3.433-3.905 4.688-10.42.543-2.82 1.015-5.41 1.107-5.504l.004-.004.006-.002.01-.002c.144 0 .768.756 1.387 1.529 4.256 5.315 6.978 7.479 10.06 7.479.956 0 1.572-.108 1.572-.336 0-.207-.755-1.034-1.678-1.961-2.634-2.743-3.792-6.772-6.361-9.703l1.264-.66c8.498-5.257 13.46-13.06 11.19-17.6-1.334-2.668-3.386-3.742-7.158-3.745zm-1.518 7c1.584-.004 3.009.152 3.641.508q.557.315.584.394l.002.002v.008l-.002.002v.002h-.002v.002l-.002.002h-.002l-.002.002h-.002q-.048.022-.303-.043c-.574-.147-.915.102-1.775 1.301-1.343 1.873-3.502 3.878-6.022 5.594-2.987 2.033-3.687 2.424-3.863 2.148-.223-.349 1.104-8.33 1.457-8.764.572-.7 3.651-1.15 6.291-1.158z" transform="translate(-16.757 -15.224)scale(1.5237)"/></svg>