<svg xmlns="http://www.w3.org/2000/svg" viewBox="0 0 64 64"><defs><linearGradient id="a" x2="0" y1="1"><stop offset="0" stop-color="#18aefa"/><stop offset="1" stop-color="#83e1ff"/></linearGradient></defs><g fill="url(#a)" stroke-width="1.414" transform="translate(-3.547 -3.555)scale(3.2319)"><path d="M17.36 9.586c-.688 2.407-2.352 4.486-3.094 6.144-.26.493-.442 1.038-.442 1.635 0 1.959 1.577 3.536 3.536 3.536s3.536-1.577 3.536-3.536c0-.598-.138-1.143-.398-1.635-.742-1.658-2.45-3.735-3.138-6.144z"/><path d="M4.636 9.586c-.688 2.407-2.352 4.486-3.094 6.144-.26.493-.442 1.038-.442 1.635 0 1.959 1.577 3.536 3.536 3.536s3.536-1.577 3.536-3.536c0-.598-.138-1.143-.398-1.635-.742-1.658-2.45-3.735-3.138-6.144z"/><path d="M11 1.1c-.688 2.407-2.352 4.486-3.094 6.144-.26.493-.442 1.038-.442 1.635 0 1.959 1.577 3.536 3.536 3.536s3.536-1.577 3.536-3.536c0-.598-.138-1.143-.398-1.635C13.396 5.586 11.688 3.509 11 1.1z"/></g></svg>