<svg xmlns="http://www.w3.org/2000/svg" viewBox="0 0 64 64"><defs><linearGradient id="a" x2="0" y1="1"><stop offset="0" stop-color="#004dff"/><stop offset="1" stop-color="#00e0f8"/></linearGradient></defs><path fill="url(#a)" d="M31.99-3.301c-19.5 0-35.3 15.8-35.3 35.3s15.8 35.3 35.3 35.3 35.3-15.8 35.3-35.3-15.8-35.3-35.3-35.3m0 6.601c15.96 0 28.7 12.74 28.7 28.7 0 15.02-11.28 27.19-25.91 28.57.556-2.369.521-4.926.11-6.674-.38-1.5-1.364-4.198-1.3-4.304l.01-.004c.133-.091 1.694.062 3.03.062 1.617 0 2.804.059 3.659-.2.723-.22 1.589-.575 2.103-.55 2.284.116 5.173-.921 5.937-2.95.236-.632.646-1.444.909-1.806.43-.593.445-.762.17-1.695-.39-1.318-1.184-2.414-2.867-3.95-1.275-1.164-1.683-1.283-1.747-2.53-.047-.915.198-1.558-.3-2.025-.561-.53-2.22-.188-2.312-.198-.59-.688-1.152-1.405-.064-2.396.822-.752.971-1.033.971-1.855 0-.81-.146-1.1-.86-1.726-.47-.413-.978-.747-1.128-.747s-.908-.606-1.68-1.342C37.92 24.253 36.76 24 35.593 24c-.946 0-2.001-.232-2.001-1.6 1.257-4.551 6.113-6.95 7.999-8-4.777-.677-8.03.323-11.2 3.199-.15-1.671 1.424-5.316 1.603-6.396-3.387 1.773-4.866 4.979-6.398 7.999-.975-1.316-1.227-3.161-1.605-4.798-2.993 3.94-4.313 10.49-5.517 14.43-1.708 5.603-3.878 9.039-6.982 11.04-1.711 1.104-3.257 1.709-6.321 2.437A29 29 0 0 1 3.295 32c0-15.96 12.74-28.7 28.7-28.7z" transform="translate(3 2.993)scale(.9065)"/></svg>