<svg xmlns="http://www.w3.org/2000/svg" style="isolation:isolate" viewBox="0 0 64 64"><path fill="#9bffb0" d="M34.061 59.753v2.082h-4.164V45.179h4.164v14.574"/><path fill="#adea41" d="m53.077 50.134 1.471 1.471-2.943 2.943-11.45-11.451 2.942-2.943z"/><path fill="#ffa943" d="M59.753 29.911h2.082v4.164H45.179v-4.164h14.574"/><path fill="#ff5d4e" d="m49.94 10.923 1.457-1.485 2.97 2.915-1.457 1.485-8.328 8.508-1.457 1.486-2.97-2.915 1.457-1.485z"/><path fill="#fe0668" d="M29.911 4.233V2.151h4.164v15.268h-4.164V4.233"/><path fill="#7c5aff" d="m11.062 13.838-1.444-1.5 2.985-2.9 1.457 1.499 8.245 8.508 1.457 1.486-2.998 2.9-1.443-1.498z"/><path fill="#5434ff" d="M16.725 29.911h2.082v4.164H2.151v-4.164h14.574"/><path fill="#4dd3ed" d="m19.334 41.626 1.472-1.472 2.956 2.93-1.471 1.484-8.453 8.495-1.471 1.485-2.957-2.943 1.472-1.47z"/><linearGradient id="a" x2=".887" y1=".5" y2=".011" gradientTransform="matrix(19.91 0 0 10.78 5.87 1)" gradientUnits="userSpaceOnUse" transform="translate(-1.319 -1.319)scale(1.388)"><stop offset="0" stop-color="#5433ff"/><stop offset=".492" stop-color="#e948ff"/><stop offset=".971" stop-color="#ff005b"/></linearGradient><path fill="url(#a)" d="m9.1 10.66-1 1.12-2.23-2 1-1.12A23 23 0 0 1 24 1h.28l1.5.01-.02 3-1.5-.01H24c-5.69 0-11.11 2.43-14.9 6.66" transform="translate(-1.319 -1.319)scale(1.388)"/><linearGradient id="b" x2=".395" y1=".5" y2=".97" gradientTransform="matrix(23.18 0 0 39.19 1 7.86)" gradientUnits="userSpaceOnUse" transform="translate(-1.319 -1.319)scale(1.388)"><stop offset="0" stop-color="#5433ff"/><stop offset=".517" stop-color="#20bdff"/><stop offset=".983" stop-color="#a5fecb"/></linearGradient><path fill="url(#b)" d="m22.68 43.96 1.5.1-.19 2.99-1.5-.1c-5.83-.38-11.29-2.97-15.28-7.23S1 29.84 1 24c0-5.51 1.98-10.84 5.57-15.01l.98-1.13 2.28 1.96-.98 1.13A19.98 19.98 0 0 0 4 24c0 5.08 1.93 9.97 5.4 13.67a19.97 19.97 0 0 0 13.28 6.29" transform="translate(-1.319 -1.319)scale(1.388)"/><linearGradient id="c" x1=".802" x2=".126" y1="1.022" y2=".015" gradientTransform="matrix(23.03 0 0 39.37 23.97 .95)" gradientUnits="userSpaceOnUse" transform="translate(-1.319 -1.319)scale(1.388)"><stop offset="0" stop-color="#ffe53b"/><stop offset=".987" stop-color="#ff005b"/></linearGradient><path fill="url(#c)" d="m25.46 4.05-1.49-.11.22-2.99 1.49.11c5.8.42 11.22 3.03 15.17 7.28S47 18.19 47 24c0 5.59-2.04 11-5.74 15.2l-.99 1.12-2.25-1.98.99-1.13C42.22 33.56 44 28.86 44 24c0-5.05-1.91-9.92-5.35-13.62-3.43-3.7-8.15-5.96-13.19-6.33" transform="translate(-1.319 -1.319)scale(1.388)"/><linearGradient id="d" x1=".111" x2=".953" y1=".985" y2=".195" gradientTransform="matrix(18.21 0 0 10.35 23.48 36.7)" gradientUnits="userSpaceOnUse" transform="translate(-1.319 -1.319)scale(1.388)"><stop offset="0" stop-color="#a5fecb"/><stop offset=".496" stop-color="#73ff44"/><stop offset=".987" stop-color="#ffcd3e"/></linearGradient><path fill="url(#d)" d="m38.48 37.79 1.04-1.09 2.17 2.07-1.03 1.08a22.97 22.97 0 0 1-15.54 7.12l-1.5.08-.14-3 1.49-.07c5.13-.25 9.97-2.47 13.51-6.19" transform="translate(-1.319 -1.319)scale(1.388)"/><linearGradient id="i" x1=".117" x2="1.167" y1="-.064" y2="1.05" gradientTransform="matrix(11.74 0 0 19.62 12.5 15.98)" gradientUnits="userSpaceOnUse" transform="translate(-1.319 -1.319)scale(1.388)"><stop offset="0" stop-color="#5433ff"/><stop offset=".517" stop-color="#20bdff"/><stop offset=".983" stop-color="#a5fecb"/></linearGradient><path fill="url(#i)" d="m22.76 32.41 1.48.22-.43 2.97-1.49-.22c-2.73-.4-5.22-1.77-7.03-3.86-1.8-2.09-2.79-4.76-2.79-7.52 0-2.45.78-4.84 2.24-6.81l.89-1.21 2.41 1.78-.89 1.21A8.5 8.5 0 0 0 15.5 24c0 2.04.73 4.01 2.06 5.56a8.55 8.55 0 0 0 5.2 2.85" transform="translate(-1.319 -1.319)scale(1.388)"/><linearGradient id="j" x2=".887" y1=".5" y2=".011" gradientTransform="matrix(12.25 0 0 9.31 12.95 12.45)" gradientUnits="userSpaceOnUse" transform="translate(-1.319 -1.319)scale(1.388)"><stop offset="0" stop-color="#4165ff"/><stop offset=".492" stop-color="#e948ff"/><stop offset=".971" stop-color="#ff005b"/></linearGradient><path fill="url(#j)" d="m16.3 20.4-.64 1.36-2.71-1.27.63-1.36c1.83-3.91 5.7-6.47 10.01-6.62l1.5-.06.11 3-1.5.06c-3.19.11-6.05 2-7.4 4.89" transform="translate(-1.319 -1.319)scale(1.388)"/><linearGradient id="k" x1=".806" x2="-.033" y1="1.046" y2="-.057" gradientTransform="matrix(12.13 0 0 20.39 23.37 12.41)" gradientUnits="userSpaceOnUse" transform="translate(-1.319 -1.319)scale(1.388)"><stop offset="0" stop-color="#ffe53b"/><stop offset=".987" stop-color="#ff005b"/></linearGradient><path fill="url(#k)" d="m24.86 15.54-1.49-.15.3-2.98 1.5.15c2.83.29 5.46 1.62 7.37 3.73 1.9 2.11 2.96 4.86 2.96 7.71 0 2.83-1.05 5.57-2.94 7.68l-1 1.12-2.24-2.01 1.01-1.11a8.513 8.513 0 0 0-.02-11.38 8.54 8.54 0 0 0-5.45-2.76" transform="translate(-1.319 -1.319)scale(1.388)"/><linearGradient id="l" x1=".051" x2=".954" y1=".909" y2=".196" gradientTransform="matrix(11.49 0 0 6.72 21.87 28.78)" gradientUnits="userSpaceOnUse" transform="translate(-1.319 -1.319)scale(1.388)"><stop offset="0" stop-color="#7eebda"/><stop offset=".496" stop-color="#73ff44"/><stop offset=".987" stop-color="#ffcd3e"/></linearGradient><path fill="url(#l)" d="m30.15 29.86 1.04-1.08 2.17 2.07-1.04 1.08A11.46 11.46 0 0 1 24 35.5h-.04l-.59-.02-1.5-.04.09-3 1.5.04.56.02c2.32-.01 4.53-.96 6.13-2.64" transform="translate(-1.319 -1.319)scale(1.388)"/></svg>