<svg xmlns="http://www.w3.org/2000/svg" viewBox="0 0 64 64"><defs><linearGradient id="b" y1="1"><stop offset="0" stop-color="red"/><stop offset="1" stop-color="#ff0086"/></linearGradient><linearGradient id="f" y1="1"><stop offset="0" stop-color="#05f"/><stop offset="1" stop-color="#00ffd8"/></linearGradient><linearGradient id="a" y1="1"><stop offset="0" stop-color="#9717f2"/><stop offset="1" stop-color="#ff00b0"/></linearGradient><linearGradient id="d" x1="1" x2="0" y2="1"><stop offset="0" stop-color="#01ff01"/><stop offset="1" stop-color="#1bc100"/></linearGradient><linearGradient id="g" x1="6.904" x2="56.1" y1="53.54" y2="4.339" gradientTransform="matrix(.2008 -.4694 .6708 .287 21.65 51.9)" gradientUnits="userSpaceOnUse"><stop offset="0" stop-color="#5433ff"/><stop offset=".5" stop-color="#e948ff"/><stop offset="1" stop-color="#ff005b"/></linearGradient></defs><path fill="#339" d="M14.107 10.005v51.128a2.866 2.866 0 0 0 2.866 2.866 2.864 2.864 0 0 0 2.862-2.866V10.005z"/><path fill="#339" d="M31.264 11.446c-1.566-.002-2.868 1.297-2.868 2.863v25.735c0 2.412-1.87 4.284-4.28 4.284H16.97c-1.567-.001-2.867 1.3-2.864 2.866.003 1.563 1.301 2.858 2.864 2.856h7.148c5.5 0 10.011-4.505 10.011-10.002V14.312c-.002-1.007-.628-1.748-1.429-2.257v-.603z"/><path fill="url(#a)" d="M25.26 40.38c-3.288 0-5.99 2.696-5.99 5.986s2.7 5.99 5.99 5.99 5.99-2.701 5.99-5.99-2.702-5.986-5.99-5.986" transform="translate(-7.158 1.435)scale(.9553)"/><path fill="url(#b)" d="M25.26-1.502c-4.114 0-7.486 3.367-7.486 7.484s3.37 7.484 7.486 7.484 7.484-3.368 7.484-7.484-3.368-7.484-7.484-7.484" transform="translate(-7.158 1.435)scale(.9553)"/><path fill="url(#d)" d="M40.22 8.971c-3.289 0-5.986 2.7-5.986 5.988s2.698 5.986 5.986 5.986 5.99-2.697 5.99-5.986-2.701-5.988-5.99-5.988" transform="translate(-7.158 1.435)scale(.9553)"/><path fill="url(#f)" d="M25.26 20.19c-3.288 0-5.99 2.696-5.99 5.986s2.701 5.988 5.99 5.988 5.99-2.699 5.99-5.988-2.702-5.986-5.99-5.986" transform="translate(-7.158 1.435)scale(.9553)"/><path fill="url(#g)" d="M34.83 29.16a2.5 2.5 0 0 0-.14 1.022 12 12 0 0 0 .107 1.087l.469 3.794v.014l.236 1.908c.134 1.082.22 1.789.417 2.474a9 9 0 0 0 .705 1.754c.336.628.762 1.198 1.418 2.07l12.18 16.25a5.18 5.18 0 0 0 5.701 1.836 11.3 11.3 0 0 0 5.992-4.486 5 5 0 0 0 .352-.614h-.001a5.19 5.19 0 0 0-.51-5.37l-12.18-16.25c-.654-.874-1.086-1.445-1.594-1.942q-.68-.66-1.48-1.167c-.604-.383-1.257-.665-2.258-1.099l-5.484-2.37-.123-.053a10 10 0 0 0-.694-.267 2.53 2.53 0 0 0-1.366-.111 2.45 2.45 0 0 0-1.607 1.204 2.4 2.4 0 0 0-.139.318zm2.967 1.774 2.134.923-.001.002a3.36 3.36 0 0 1-1.847 1.384zm.654 5.322a6.4 6.4 0 0 0 2.48-1.133 6.4 6.4 0 0 0 1.781-2.06l.224.096c1.147.497 1.572.685 1.952.924a6 6 0 0 1 .988.782c.32.312.608.681 1.356 1.682l8.85 11.82a9.93 9.93 0 0 1-6.707 5.017l-8.847-11.81c-.75-.999-1.024-1.375-1.233-1.771q-.299-.562-.476-1.173c-.122-.43-.182-.895-.335-2.133zm4.126 2.402a1.5 1.5 0 0 0 .155 1.397l7.4 9.884a1.507 1.507 0 0 0 2.56-.249h.001a1.51 1.51 0 0 0-.148-1.558l-7.403-9.878a1.507 1.507 0 0 0-2.566.408zm8.745 17.32a12.94 12.94 0 0 0 6.706-5.03l1.312 1.754a2.17 2.17 0 0 1 .214 2.243h-.001a2 2 0 0 1-.147.255 8.28 8.28 0 0 1-4.392 3.292 2.17 2.17 0 0 1-2.382-.768z" transform="translate(-8.596)scale(.9999)"/></svg>