<svg xmlns="http://www.w3.org/2000/svg" fill="none" viewBox="0 0 64 64"><defs><linearGradient id="a" x1="20.5" x2="114.5" y1="111.5" y2="15" gradientUnits="userSpaceOnUse"><stop offset="0" stop-color="#f9d423"/><stop offset=".516" stop-color="#ff4e50"/><stop offset=".991" stop-color="#8a2387"/></linearGradient></defs><path fill="#ffc540" d="M20.742 50.354a7.111 7.111 0 1 0 0-14.222 7.111 7.111 0 0 0 0 14.222"/><path fill="url(#a)" fill-rule="evenodd" d="M118 102V26.06c0-5.445-2.546-9.51-5.975-12.16-3.374-2.607-7.623-3.871-11.28-3.871h-73.5c-3.652 0-7.901 1.264-11.27 3.871C12.546 16.549 10 20.614 10 26.06V102c0 5.445 2.546 9.51 5.975 12.16 3.374 2.607 7.623 3.871 11.27 3.871h73.5c3.652 0 7.901-1.264 11.28-3.871 3.429-2.649 5.975-6.714 5.975-12.16M67 24.03H27.25c-2.243 0-3.25 1.371-3.25 2.2v75.6c0 .829 1.007 2.2 3.25 2.2h73.5c2.244 0 3.25-1.371 3.25-2.2v-75.6c0-.544-.351-1.236-1.254-1.721l-3.571-.479H96v41.41c0 2.337-2.471 3.47-3.856 1.768l-9.013-11.08c-.88-1.083-2.368-1.083-3.249 0l-9.027 11.09c-1.385 1.7-3.855.567-3.855-1.77v-41.41z" clip-rule="evenodd" transform="translate(-5.925 -5.943)scale(.5926)"/></svg>