<svg xmlns="http://www.w3.org/2000/svg" viewBox="0 0 64 64"><defs><linearGradient id="a" y1="1"><stop offset="0" stop-color="#5433ff"/><stop offset=".517" stop-color="#0bbdff"/><stop offset=".983" stop-color="#a5fecb"/></linearGradient></defs><path fill="url(#a)" d="M23 4a1 1 0 0 0-1 1v4a1 1 0 0 0 1 1h4a1 1 0 0 0 1-1V5a1 1 0 0 0-1-1zm-6.059.322a1 1 0 0 0-.379.086l-3.65 1.64a1 1 0 0 0-.504 1.32h.002l1.637 3.65a1 1 0 0 0 1.32.503l3.65-1.637a1 1 0 0 0 .504-1.322l-1.637-3.65a1 1 0 0 0-.943-.59M5.001 6a1 1 0 0 0-1 1v4a1 1 0 0 0 1 1h4a1 1 0 0 0 1-1V7a1 1 0 0 0-1-1zm18.64 6.232a1 1 0 0 0-.893.45l-2.195 3.343a1 1 0 0 0 .287 1.386l3.344 2.195a1 1 0 0 0 1.385-.288l2.195-3.344a1 1 0 0 0-.287-1.385l-3.344-2.195a1 1 0 0 0-.492-.162M5.001 14a1 1 0 0 0-1 1v4a1 1 0 0 0 1 1h4a1 1 0 0 0 1-1v-4a1 1 0 0 0-1-1zm8 0a1 1 0 0 0-1 1v4a1 1 0 0 0 1 1h4a1 1 0 0 0 1-1v-4a1 1 0 0 0-1-1zm-8 8a1 1 0 0 0-1 1v4a1 1 0 0 0 1 1h4a1 1 0 0 0 1-1v-4a1 1 0 0 0-1-1zm8 0a1 1 0 0 0-1 1v4a1 1 0 0 0 1 1h4a1 1 0 0 0 1-1v-4a1 1 0 0 0-1-1zm8 0a1 1 0 0 0-1 1v4a1 1 0 0 0 1 1h4a1 1 0 0 0 1-1v-4a1 1 0 0 0-1-1z" transform="translate(-10.67 -10.67)scale(2.667)"/></svg>