<svg xmlns="http://www.w3.org/2000/svg" fill="none" viewBox="0 0 64 64"><defs><linearGradient id="a" x1="7.82" x2="7.82" y1="15" y2="1" gradientUnits="userSpaceOnUse"><stop offset="0" stop-color="#fd2e00"/><stop offset="1" stop-color="#fb5"/></linearGradient></defs><path fill="url(#a)" d="M3.656 2.405a6.85 6.85 0 0 1 4.027-1.403 6.85 6.85 0 0 1 4.091 1.252c1.493 1.042 2.562 2.704 2.858 4.519.039.381-.414.683-.744.493-.216-.091-.277-.336-.317-.545-.203-.989-.685-1.902-1.331-2.665q-.325.325-.69.61c-.126.063-.057.211-.023.31a8.72 8.72 0 0 1-.037 6.38q.375.294.713.628a6.05 6.05 0 0 0 1.413-2.892c.04-.265.3-.472.565-.43.306.022.527.36.44.657a7 7 0 0 1-2.194 3.908 6.85 6.85 0 0 1-4.198 1.758 6.86 6.86 0 0 1-4.682-1.473A7 7 0 0 1 1.02 9.314c-.096-.33.187-.688.526-.654.264.008.46.243.49.497a6 6 0 0 0 1.37 2.798c.268-.262.55-.51.858-.722-.257-.828-.496-1.672-.532-2.545a8.75 8.75 0 0 1 .597-3.799 7.6 7.6 0 0 1-.961-.8c-.623.746-1.092 1.633-1.293 2.592-.048.221-.096.492-.333.586-.346.196-.812-.15-.726-.545a6.97 6.97 0 0 1 2.642-4.316zm2.026 2.051a5.14 5.14 0 0 0 4.407-.094 7.7 7.7 0 0 0-2.047-2.315l-.255-.005a7.7 7.7 0 0 0-2.105 2.414zM4.117 3.364q.314.308.665.57a9 9 0 0 1 1.114-1.572 6 6 0 0 0-1.779 1.002zm5.9-.902c.354.417.673.865.949 1.34q.267-.225.514-.472a6.7 6.7 0 0 0-1.463-.868zM5.238 5.405a7.66 7.66 0 0 0-.051 5.287c1.702-.796 3.74-.743 5.417.098a7.7 7.7 0 0 0-.058-5.486 6.24 6.24 0 0 1-5.308.1zm.374 6.241a7.7 7.7 0 0 0 1.864 2.305q.442.024.884-.012c.709-.623 1.376-1.34 1.775-2.208a5.18 5.18 0 0 0-4.524-.085zm-1.457 1.03c.446.357.943.642 1.467.866a9 9 0 0 1-.903-1.36q-.295.23-.564.493zm6.872-.352a9 9 0 0 1-.724 1.087c.402-.2.789-.43 1.143-.71a15 15 0 0 0-.419-.377z" transform="translate(-3.748 -4.572)scale(4.57054)"/></svg>