<svg xmlns="http://www.w3.org/2000/svg" viewBox="0 0 64 64"><defs><linearGradient id="e" x1="-.014" x2="1.016" y1=".01" y2="1.072" gradientTransform="matrix(17.33 0 0 14.44 33.45 31.37)" gradientUnits="userSpaceOnUse"><stop offset="0" stop-color="#f9d423"/><stop offset=".516" stop-color="#ff4e50"/><stop offset=".991" stop-color="#8a2387"/></linearGradient><linearGradient id="b" x1="-.513" x2="1.036" y1="1.271" y2=".125" gradientTransform="matrix(17.33 0 0 14.44 13.23 31.37)" gradientUnits="userSpaceOnUse"><stop offset="0" stop-color="#7eebda"/><stop offset=".496" stop-color="#73ff44"/><stop offset=".987" stop-color="#ffcd3e"/></linearGradient><linearGradient id="c" x1=".431" x2=".501" y1=".035" y2="1.017" gradientTransform="matrix(14.44 0 0 18.78 24.78 11.15)" gradientUnits="userSpaceOnUse"><stop offset="0" stop-color="#5433ff"/><stop offset=".517" stop-color="#20bdff"/><stop offset=".983" stop-color="#a5fecb"/></linearGradient><linearGradient id="a" x1="11.45" x2="52.94" y1="11.54" y2="54.06" gradientTransform="matrix(1.1 0 0 1.1 -3.2 -3.3)" gradientUnits="userSpaceOnUse"><stop offset="0" stop-color="#c751fb"/><stop offset="1" stop-color="#6d44de"/></linearGradient></defs><path fill="url(#a)" d="M20.19 5.054c-8.62 0-15.66 7.039-15.66 15.66v24.56c0 8.62 7.039 15.67 15.66 15.67h23.62c8.62 0 15.66-7.042 15.66-15.67v-24.56c0-8.62-7.038-15.66-15.66-15.66zm0 4.864h23.62c5.992 0 10.79 4.804 10.79 10.79v24.56c0 5.992-4.804 10.79-10.79 10.79H20.19A10.753 10.753 0 0 1 9.4 45.268v-24.56c0-5.991 4.805-10.79 10.79-10.79" transform="translate(-4.646 -5.788)scale(1.145)"/><g stroke-width="1.333"><path fill="url(#b)" d="M20.93 45.82c.47.015 1-.041 1.529-.148 1.565-.327 2.896-1.004 3.917-2.207a13.7 13.7 0 0 0 1.595-2.363c.53-.984.972-2.009 1.357-3.048a32 32 0 0 0 1.18-3.836c.17-.727-.021-1.181-.865-1.432a41 41 0 0 0-3.252-.835c-1.823-.381-3.66-.625-5.533-.565q-.795.031-1.58.163c-1.515.252-2.801.917-3.852 1.969-1.795 1.792-2.51 3.93-2.067 6.368.636 3.484 3.883 5.96 7.57 5.933z" style="isolation:isolate" transform="translate(-4.652 -1.763)scale(1.145)"/><path fill="url(#c)" d="M24.79 18.85c-.02.536.075 1.123.23 1.711.3 1.116.793 2.139 1.376 3.105 1.327 2.197 2.999 4.08 4.812 5.827.149.144.325.264.514.357.19.1.38.1.576.015.19-.087.36-.208.5-.365a63 63 0 0 0 1.848-1.997c.84-.967 1.64-1.961 2.363-3.028.658-.967 1.245-1.983 1.68-3.085.431-1.095.642-2.225.5-3.413-.237-1.96-1.028-3.621-2.443-4.924-1.673-1.537-3.621-2.153-5.815-1.811-3.568.558-6.153 3.88-6.14 7.609z" style="isolation:isolate" transform="translate(-4.652 -1.763)scale(1.145)"/><path fill="url(#e)" d="M43.09 45.82c-.47.015-1-.041-1.529-.148-1.565-.327-2.896-1.004-3.917-2.207a13.7 13.7 0 0 1-1.595-2.363 24 24 0 0 1-1.357-3.048 32 32 0 0 1-1.18-3.836c-.17-.727.021-1.181.865-1.432a41 41 0 0 1 3.252-.835c1.823-.381 3.66-.625 5.533-.565q.795.031 1.58.163c1.515.252 2.801.917 3.852 1.969 1.795 1.792 2.51 3.93 2.067 6.368-.636 3.484-3.883 5.96-7.57 5.933z" style="isolation:isolate" transform="translate(-4.652 -1.763)scale(1.145)"/></g></svg>