<svg xmlns="http://www.w3.org/2000/svg" viewBox="0 0 64 64"><path fill="#00f" d="M58.11 5.892 4.609 21.943l37.44 37.44zm-9.548 9.549-9.548 31.833-22.285-22.285z"/><path fill="#0f0" d="M10.666 12.8A10.666 10.666 0 0 0 0 23.466a10.666 10.666 0 0 0 10.666 10.667 10.666 10.666 0 0 0 10.667-10.667A10.666 10.666 0 0 0 10.666 12.8"/><path fill="#ff0" d="M53.332 0a10.666 10.666 0 0 0-10.666 10.666 10.666 10.666 0 0 0 10.666 10.667A10.666 10.666 0 0 0 64 10.666 10.666 10.666 0 0 0 53.332 0"/><path fill="#0ff" d="M40.532 42.666a10.666 10.666 0 0 0-10.666 10.666A10.666 10.666 0 0 0 40.532 64 10.666 10.666 0 0 0 51.2 53.332a10.666 10.666 0 0 0-10.667-10.666"/></svg>