<svg xmlns="http://www.w3.org/2000/svg" viewBox="0 0 64 64"><defs><linearGradient id="a" x1="1" x2="0" y1=".5" y2=".5"><stop offset="0" stop-color="#5800e2"/><stop offset="1" stop-color="#ff00e6"/></linearGradient></defs><path fill="url(#a)" d="m18.66 14.66 5.33 8.004H13.31l-1.328 5.33H5.98l2-8.004H3.978L0 36h9.582l-1.604 5.33h9.332l-6.658 8.006h8.004l5.33-8.006h16.01l5.332 8.006h8.004l-6.66-8.006h9.332L54.402 36h9.596l-4.002-16.01h-4.002l2.002 8.004h-6.004l-1.32-5.33h-10.69l5.33-8.004H41.31l-5.33 8.004h-8.004l-5.322-8.004zm-1.344 12.01h6.674v6.658h-6.674zm22.68 0h6.676v6.658h-6.676z" transform="translate(0 .001)"/></svg>