<svg version="1.1" viewBox="0 0 64 64" xmlns="http://www.w3.org/2000/svg">
 <defs>
  <linearGradient id="a" x1="1" x2="0" y1=".5" y2=".5">
   <stop stop-color="#5800e2" offset="0"/>
   <stop stop-color="#ff00e6" offset="1"/>
  </linearGradient>
 </defs>
 <path transform="translate(-0) scale(1) translate(-.008013 .0023) scale(1) translate(-1.024 -.3396) scale(1.361)" d="m14.96 10.89a0.9001 0.9001 0 0 0-0.7207 1.44l2.91 3.881h-6.18a0.9001 0.9001 0 0 0-0.8828 0.7168l-0.6797 3.273h-2.607l1.051-4.201a0.9001 0.9001 0 0 0-0.873-1.119h-2.66a0.9001 0.9001 0 0 0-0.873 0.6816l-2.66 10.64a0.9001 0.9001 0 0 0 0.873 1.117h6.375l-0.6055 2.908a0.9001 0.9001 0 0 0 0.8809 1.082h3.52l-2.91 3.881a0.9001 0.9001 0 0 0 0.7207 1.44h5.32a0.9001 0.9001 0 0 0 0.7207-0.3594l3.721-4.961h9.74l3.721 4.961a0.9001 0.9001 0 0 0 0.7188 0.3594h5.32a0.9001 0.9001 0 0 0 0.7207-1.44l-2.91-3.881h3.52a0.9001 0.9001 0 0 0 0.8809-1.082l-0.6035-2.908h6.375a0.9001 0.9001 0 0 0 0.873-1.117l-2.66-10.64a0.9001 0.9001 0 0 0-0.873-0.6816h-2.66a0.9001 0.9001 0 0 0-0.873 1.119l1.051 4.201h-2.607l-0.6816-3.273a0.9001 0.9001 0 0 0-0.8809-0.7168h-6.18l2.91-3.881a0.9001 0.9001 0 0 0-0.7207-1.44h-2.66a0.9001 0.9001 0 0 0-0.7188 0.3613l-3.721 4.959h-4.42l-3.719-4.959a0.9001 0.9001 0 0 0-0.7207-0.3613zm1.799 1.801h0.4102l3.721 4.959a0.9001 0.9001 0 0 0 0.7207 0.3613h5.32a0.9001 0.9001 0 0 0 0.7188-0.3613l3.721-4.959h0.4102l-2.91 3.879a0.9001 0.9001 0 0 0 0.7207 1.441h7.246l0.6816 3.272a0.9001 0.9001 0 0 0 0.8809 0.7188h4.492a0.9001 0.9001 0 0 0 0.873-1.119l-1.051-4.201h0.8047l2.209 8.84h-6.326a0.9001 0.9001 0 0 0-0.8809 1.082l0.6035 2.908h-4.215a0.9001 0.9001 0 0 0-0.7188 1.44l2.908 3.879h-3.068l-3.721-4.959a0.9001 0.9001 0 0 0-0.7207-0.3594h-10.64a0.9001 0.9001 0 0 0-0.7188 0.3594l-3.721 4.959h-3.07l2.91-3.879a0.9001 0.9001 0 0 0-0.7207-1.44h-4.215l0.6055-2.908a0.9001 0.9001 0 0 0-0.8809-1.082h-6.328l2.211-8.84h0.8047l-1.051 4.201a0.9001 0.9001 0 0 0 0.873 1.119h4.492a0.9001 0.9001 0 0 0 0.8809-0.7188l0.6797-3.273h7.248a0.9001 0.9001 0 0 0 0.7207-1.44zm-3.131 6.18a0.9001 0.9001 0 0 0-0.8984 0.9004v5.32a0.9001 0.9001 0 0 0 0.8984 0.8984h5.32a0.9001 0.9001 0 0 0 0.9004-0.8984v-5.32a0.9001 0.9001 0 0 0-0.9004-0.9004zm15.96 0a0.9001 0.9001 0 0 0-0.9004 0.9004l2e-3 5.32a0.9001 0.9001 0 0 0 0.9004 0.8984h5.318a0.9001 0.9001 0 0 0 0.9004-0.8984v-5.32a0.9001 0.9001 0 0 0-0.9004-0.9004zm-15.06 1.801h3.522v3.52h-3.522zm15.96 0h3.522v3.52h-3.522z" fill="url(#a)"/>
</svg>
