<svg xmlns="http://www.w3.org/2000/svg" fill="none" viewBox="0 0 64 64"><defs><linearGradient id="a" x1="12.11" x2="15.18" y1="10.72" y2="6.285" gradientUnits="userSpaceOnUse"><stop offset="0" stop-color="#00b59c"/><stop offset="1" stop-color="#9cffac"/></linearGradient><linearGradient id="b" x1="16" x2="16" y1="7.429" gradientUnits="userSpaceOnUse"><stop offset="0" stop-color="#fda700"/><stop offset="1" stop-color="#ffde00"/></linearGradient><linearGradient id="e" x1="10.61" x2="10.61" y1="21" y2="11" gradientUnits="userSpaceOnUse"><stop offset="0" stop-color="#fd3a84"/><stop offset="1" stop-color="#ffa68d"/></linearGradient><linearGradient id="f" x1="6.5" x2="6.5" y1="13" y2="8" gradientUnits="userSpaceOnUse"><stop offset="0" stop-color="#fda700"/><stop offset="1" stop-color="#ffde00"/></linearGradient></defs><path stroke="url(#a)" stroke-linecap="round" stroke-width="3" d="m11.7 10.44 3.077-4.438" transform="translate(-1.467)scale(2.909)"/><path fill="url(#b)" d="M16 7.429c2.209 0 4-1.663 4-3.714S18.209.001 16 .001s-4 1.663-4 3.714 1.791 3.714 4 3.714" transform="translate(-1.467)scale(2.909)"/><path stroke="url(#e)" stroke-width="2" d="M7.107 11h7c1.662 0 3.584 1.444 3 3l-1.5 4c-.584 1.556-1.338 3-3 3h-4c-1.662 0-2.416-1.444-3-3l-1.5-4c-.584-1.556 1.338-3 3-3z" transform="translate(-1.467)scale(2.909)"/><path fill="url(#f)" d="M6.5 13a2.5 2.5 0 1 0 0-5 2.5 2.5 0 0 0 0 5" transform="translate(-1.467)scale(2.909)"/></svg>