<svg xmlns="http://www.w3.org/2000/svg" style="isolation:isolate" viewBox="0 0 64 64"><linearGradient id="a" x1="-.014" x2="1.016" y1=".01" y2="1.072" gradientTransform="matrix(10.97 0 0 18.68 37.03 11.28)" gradientUnits="userSpaceOnUse" transform="translate(-.085 .473)scale(1.314)"><stop offset="0" stop-color="#f9d423"/><stop offset=".516" stop-color="#ff4e50"/><stop offset=".991" stop-color="#8a2387"/></linearGradient><path fill="url(#a)" d="m37.03 15.75.16-.97.03-3.5 1.75.97L48 18.417l-3.34 7.693-1.53 3.848-2.9-4.408 1.11-1.66 1.79-4.19z" transform="translate(-.085 .473)scale(1.314)"/><linearGradient id="b" x1=".063" x2=".73" y1=".995" y2="-.389" gradientTransform="matrix(23.3 0 0 33.27 24.27 15.06)" gradientUnits="userSpaceOnUse" transform="translate(-.085 .473)scale(1.314)"><stop offset="0" stop-color="#16b5e4"/><stop offset=".932" stop-color="#ea28f9"/><stop offset=".983" stop-color="#f520fa"/></linearGradient><path fill="url(#b)" d="M37.19 22.85v-2.304l.81-5.484 2.81 6.088 6.76 18.62-13.53 8.56-8.03-3.59-1.74-1 1.99-3.47 1.73.99 5.97 2.41 8.47-5.44z" transform="translate(-.085 .473)scale(1.314)"/><linearGradient id="c" x1=".746" x2=".701" y1="1.044" y2=".097" gradientTransform="matrix(32 0 0 47.73 .82 -.36)" gradientUnits="userSpaceOnUse" transform="translate(-.085 .473)scale(1.314)"><stop offset="0" stop-color="#ffe031"/><stop offset="1" stop-color="#fa0075"/></linearGradient><path fill="url(#c)" d="M28 37h1l3.82 1.15-1.48 1.34-10.98 7.88-15.16-5L.82 10.08 14.9-.36l8.09 4.62 1.74 1-1.99 3.47-7.64-4.37-9.92 7.56L8.8 39.63l10.84 3z" transform="translate(-.085 .473)scale(1.314)"/><linearGradient id="f" x1="0" x2="1" y1=".5" y2=".5" gradientTransform="matrix(17.59 0 0 11.6 19.17 -.19)" gradientUnits="userSpaceOnUse" transform="translate(-.085 .473)scale(1.314)"><stop offset="0" stop-color="#00c6ff"/><stop offset=".987" stop-color="#0072ff"/></linearGradient><path fill="url(#f)" d="m23.41 11.41-1.955-.35L19.17 10l1.42-1.41 8.77-8.78 6.34 9.13 1.06 1.7-3.4.42H32.3l-3.66-4.87z" transform="translate(-.085 .473)scale(1.314)"/><linearGradient id="g" x1=".34" x2="1.009" y1=".037" y2="1.013" gradientTransform="matrix(29 0 0 29 9.5 9.5)" gradientUnits="userSpaceOnUse" transform="translate(-.085 .473)scale(1.314)"><stop offset="0" stop-color="#9c33c4"/><stop offset=".513" stop-color="#ff1950"/><stop offset=".987" stop-color="#ff8724"/></linearGradient><path fill="url(#g)" fill-rule="evenodd" d="M35.98 31.22a1.261 1.261 0 0 1 2.522 0v4.13a3.153 3.153 0 0 1-3.152 3.152h-22.7a3.153 3.153 0 0 1-3.152-3.152V23.37a1.262 1.262 0 0 1 2.522 0v10.72c0 1.044.847 1.891 1.891 1.891h20.17a1.89 1.89 0 0 0 1.891-1.891v-2.869zM12.02 16.78a1.261 1.261 0 0 1-2.522 0v-4.13a3.153 3.153 0 0 1 3.152-3.152h22.7a3.153 3.153 0 0 1 3.152 3.152v12.5a1.262 1.262 0 0 1-2.522 0V13.92a1.89 1.89 0 0 0-1.891-1.891h-20.17a1.89 1.89 0 0 0-1.891 1.891v2.869zm1.978 13.72h9V33h-9zm2.334-13.53v2.972h.752q1.106 0 1.633-.369t.526-1.159q0-.782-.538-1.113t-1.666-.331zm14.54 3.544q0-3.544-3.13-3.544h-1.241v7.163h1.001q3.37 0 3.37-3.619m-13.3 1.324h-1.241v4.221h-2.333v-11h3.205q2.242 0 3.318.816t1.076 2.479q0 .971-.534 1.727t-1.512 1.185q2.483 3.709 3.235 4.793h-2.588zm15.72-1.385q0 2.717-1.546 4.161-1.546 1.445-4.466 1.445h-3.115v-11h3.454q2.694 0 4.183 1.422 1.49 1.422 1.49 3.972" transform="translate(-.085 .473)scale(1.314)"/></svg>