<svg xmlns="http://www.w3.org/2000/svg" style="isolation:isolate" viewBox="0 0 64 64"><linearGradient id="a" x1=".276" x2="1.007" y1=".995" y2=".012" gradientTransform="matrix(1.307 0 0 35.08 15.28 4.263)" gradientUnits="userSpaceOnUse" transform="translate(.77)scale(1.333)"><stop offset="0" stop-color="#fc4988"/><stop offset=".983" stop-color="#ea333e"/></linearGradient><path fill="url(#a)" d="M15.28 31.39V4.26h1.308v35.078H15.28V31.39" transform="translate(.77)scale(1.333)"/><linearGradient id="b" x1=".091" x2=".866" y1=".254" y2=".858" gradientTransform="matrix(42.5 0 0 48 2.174 0)" gradientUnits="userSpaceOnUse" transform="translate(.77)scale(1.333)"><stop offset=".013" stop-color="#df57ff"/><stop offset=".521" stop-color="#241efc"/><stop offset=".979" stop-color="#0eaffe"/></linearGradient><path fill="url(#b)" fill-rule="evenodd" d="M6.437 38.37a6 6 0 0 1 1.065-.097h2.688V4.262h-.556a3.2 3.2 0 0 0-3.197 3.197zm-4.234 4.254a5 5 0 0 0-.029.511c0 2.683 2.387 4.862 5.328 4.862h24.82a2.132 2.132 0 0 0 0-4.263H8.562c-1.176 0-2.131-.268-2.131-.599s.955-.6 2.131-.6h30.77a5.33 5.33 0 0 0 5.329-5.328v-9.325a2.132 2.132 0 0 0-4.263 0v8.259a2.13 2.13 0 0 1-2.131 2.132h-24.89V4.262h23.82a3.2 3.2 0 0 1 3.197 3.197v13.85a2.132 2.132 0 0 0 4.263 0V5.319a5.33 5.33 0 0 0-5.329-5.328H7.488A5.33 5.33 0 0 0 2.16 5.319V42.62h.029z" transform="translate(.77)scale(1.333)"/><linearGradient id="d" x2="1" y1=".5" y2=".5" gradientTransform="matrix(18.38 0 0 25.53 18.29 8.548)" gradientUnits="userSpaceOnUse" transform="translate(.77)scale(1.333)"><stop offset="0" stop-color="#f17b41"/><stop offset=".5" stop-color="#e05ba2"/><stop offset=".975" stop-color="#cd4bc9"/></linearGradient><path fill="url(#d)" d="M35.14 14.26c-.05-.403.261-1.04.22-1.908-.044-.87-.468-2.081-2.212-2.96l-.094-.047c-1.134-.548-2.787-.941-4.715-.749-1.498.15-3.054.646-4.521 1.521a12.1 12.1 0 0 0-3.523 3.187 12 12 0 0 0-1.447 2.802q-.236.662-.383 1.364a8.2 8.2 0 0 0-.167 1.969c.071 1.109.387 2.322 1.092 3.413.333.518.747.987 1.226 1.379.476.391 1.02.708 1.615.915.953.327 1.89.327 2.666.204a7 7 0 0 0 1.121-.277 11 11 0 0 0 1.087-.43c.65-.298 1.259-.656 1.745-.944.485-.288.961-.578 1.418-.813.273-.135.596-.287.916-.401q.128-.046.255-.082c.318-.092.632-.133.911-.103.239.024.441.106.577.206a.6.6 0 0 1 .15.148c.036.053.06.102.074.129.015.034.023.103-.003.204a1 1 0 0 1-.158.336q-.123.18-.355.373a3.7 3.7 0 0 1-.551.363c-.467.237-.933.395-1.587.651-.593.231-1.301.531-1.964 1.006a5 5 0 0 0-.995.967 4 4 0 0 0-.701 1.408c-.13.55-.136 1.16.038 1.747.087.298.222.581.395.832.175.255.395.485.655.669.462.322.972.441 1.413.454h.15c.373-.01.729-.091 1.054-.205.34-.109.647-.256.911-.386.27-.135.478-.243.695-.334q.295-.138.527-.176a.8.8 0 0 1 .357.012q.059.02.103.048.041.03.055.044c.015.007.028.018.038.021.011 0 .02.006.033.003s0 .043-.048.102a2 2 0 0 1-.266.242c-.122.097-.29.226-.442.384a1.9 1.9 0 0 0-.434.667 1.6 1.6 0 0 0-.076.807c.049.29.177.528.325.696.2.229.432.326.603.353a.6.6 0 0 0 .117.007c.305-.011.428-.256.482-.328-.076-.075-.153-.267-.213-.431q-.011-.026-.019-.054a.6.6 0 0 1-.041-.221.3.3 0 0 1 .038-.139.17.17 0 0 1 .07-.066c.024-.012.065-.046.138-.092.09-.057.153-.089.314-.18.125-.069.311-.176.489-.322s.383-.358.529-.653c.129-.264.193-.557.193-.845a2.1 2.1 0 0 0-.169-.819 2.2 2.2 0 0 0-.448-.643 2.3 2.3 0 0 0-.595-.425 2.65 2.65 0 0 0-1.273-.255 4 4 0 0 0-1.092.214c-.305.107-.621.248-.844.343a4 4 0 0 1-.644.229 1 1 0 0 1-.407.007l-.036-.01c-.099-.032-.153-.089-.138-.117q.01-.014.012-.05.003-.035.017-.07c.016-.048.043-.132.098-.209.04-.087.108-.184.218-.294.114-.113.262-.228.44-.33.359-.226.786-.394 1.34-.576.513-.17 1.215-.378 1.861-.659a7 7 0 0 0 1.06-.544 5.4 5.4 0 0 0 1.037-.854c.335-.362.626-.789.841-1.267.22-.491.363-1.05.376-1.648a4.2 4.2 0 0 0-.293-1.638 4.4 4.4 0 0 0-.826-1.351 4.75 4.75 0 0 0-2.469-1.443c-.956-.222-1.852-.14-2.541.012a7 7 0 0 0-.541.145 8 8 0 0 0-1.536.665c-.602.327-1.202.724-1.611.986-.475.303-.899.566-1.325.768a3.4 3.4 0 0 1-.614.231 2.6 2.6 0 0 1-.507.082c-.317.017-.584-.043-.764-.151a1.2 1.2 0 0 1-.312-.259 1.4 1.4 0 0 1-.238-.389 2 2 0 0 1-.114-1.054q.023-.338.137-.676a3 3 0 0 1 .238-.529c.237-.418.581-.814.984-1.154a6.2 6.2 0 0 1 2.105-1.329 6.6 6.6 0 0 1 2.317-.431c.889-.006 1.686.154 2.311.23l.052.006c.987.115 1.743-.127 2.415-.464.651-.325 1.234-.764 1.598-.767" transform="translate(.77)scale(1.333)"/></svg>