<svg xmlns="http://www.w3.org/2000/svg" xmlns:xlink="http://www.w3.org/1999/xlink" viewBox="0 0 64 64"><defs><linearGradient id="a" x2="0" y2="1"><stop offset="0" stop-color="#11998e"/><stop offset=".991" stop-color="#38ef7d"/></linearGradient><linearGradient xlink:href="#a" id="d" x1="24.16" x2="24.16" y1="53.82" y2="59.56" gradientTransform="scale(1.323 .7559)" gradientUnits="userSpaceOnUse"/><linearGradient xlink:href="#a" id="c" x1="28.62" x2="24.67" y1="25.26" y2="27.1" gradientTransform="scale(.9439 1.059)" gradientUnits="userSpaceOnUse"/><linearGradient xlink:href="#a" id="b" x1="5.325" x2="9.258" y1="25.48" y2="27.28" gradientTransform="scale(.944 1.059)" gradientUnits="userSpaceOnUse"/></defs><path fill="url(#a)" d="M13.02 28.68a3 3 0 0 0 2.988 2.727 3 3 0 0 0 2.986-2.727 6.5 6.5 0 0 1-2.986.727 6.5 6.5 0 0 1-2.988-.727" transform="translate(-.76 -.205)scale(2.04439)"/><path fill="url(#a)" d="M4.67 16.41c-.698.815-1.199 1.748-1.549 2.764a9 9 0 0 0-.45 2.283 9.6 9.6 0 0 0 .055 1.885c.088.715.262 1.414.54 2.08.151.363.308.726.502 1.068a1.8 1.8 0 0 1 1.598-1.205c-.532-1.152-.806-2.364-.711-3.66a8 8 0 0 1 .343-1.793c.13-.419.31-.816.506-1.205a2.5 2.5 0 0 1-.855-1.883 3 3 0 0 1 .021-.334z" transform="translate(-.76 -.205)scale(2.04439)"/><path fill="url(#a)" d="M5.469 25.28a1.8 1.8 0 0 0-.783 3.424c-.134-.86.091-1.645.64-2.344.295-.374.651-.645 1.06-.83a1.8 1.8 0 0 0-.916-.25z" transform="translate(-.76 -.205)scale(2.04439)"/><path fill="url(#b)" d="M7.465 25.24a3 3 0 0 0-.453.074c-.676.158-1.25.486-1.686 1.041-.583.742-.801 1.58-.611 2.502.259 1.261 1.267 2.208 2.535 2.363.552.068.82-.052 1.033-.562.139-.334.09-.79-.297-1.002-.245-.134-.511-.17-.776-.233-.68-.16-1.068-.922-.845-1.619.155-.484.622-.811 1.123-.838.425-.022.745.163 1.045.428.254.226.79.267 1.078.088.469-.292.52-1.037.086-1.426-.58-.518-1.256-.803-2.107-.816a1 1 0 0 0-.125 0z" transform="translate(-.76 -.205)scale(2.044)"/><path fill="url(#a)" d="M27.38 16.17a3 3 0 0 1 .021.334 2.5 2.5 0 0 1-.855 1.883c.197.39.377.788.506 1.207.18.585.299 1.177.344 1.791.094 1.297-.18 2.508-.711 3.66a1.8 1.8 0 0 1 1.596 1.207c.194-.343.352-.706.504-1.07a7.9 7.9 0 0 0 .539-2.08 9.6 9.6 0 0 0 .054-1.885 9 9 0 0 0-.449-2.283c-.35-1.015-.85-1.948-1.549-2.764z" transform="translate(-.76 -.205)scale(2.04439)"/><path fill="url(#a)" d="M26.58 25.04c-.343 0-.663.095-.936.262a2.8 2.8 0 0 1 1.03.818c.554.705.779 1.498.636 2.367a1.8 1.8 0 0 0-.73-3.447z" transform="translate(-.76 -.205)scale(2.04439)"/><path fill="url(#c)" d="M24.41 25c-.851.013-1.528.298-2.107.816-.434.389-.383 1.135.086 1.428.287.179.824.138 1.078-.087.3-.266.62-.45 1.045-.428.5.026.968.353 1.123.838.223.696-.166 1.458-.846 1.619-.264.062-.53.099-.775.232-.388.212-.436.668-.297 1.002.212.51.48.63 1.033.563a2.955 2.955 0 0 0 2.535-2.363c.19-.923-.028-1.762-.611-2.504-.437-.556-1.01-.881-1.686-1.04-.211-.049-.428-.086-.578-.076z" transform="translate(-.76 -.205)scale(2.044)"/><path fill="url(#a)" d="M6.863 14.26a2.5 2.5 0 0 0-2.215 2.484 2.5 2.5 0 0 0 2.32 2.494 11.864 11.864 0 0 1-.295-2.12 10.503 10.503 0 0 1 .19-2.86z" transform="translate(-.76 -.205)scale(2.04439)"/><path fill="url(#a)" d="M25.15 14.02q.102.476.162.963c.055.445.1.895.082 1.197-.01 1-.107 1.929-.3 2.818a2.5 2.5 0 0 0 2.304-2.492 2.5 2.5 0 0 0-2.248-2.486z" transform="translate(-.76 -.205)scale(2.04439)"/><path fill="url(#a)" d="M9.635 24.2a6.5 6.5 0 0 0 6.371 5.207 6.5 6.5 0 0 0 6.361-5.166c-.879 1.046-1.917 1.892-3.158 2.457a7.8 7.8 0 0 1-2.26.647 7.46 7.46 0 0 1-4.072-.616 8.6 8.6 0 0 1-2.129-1.383 10 10 0 0 1-.63-.605c-.066-.068-.126-.141-.188-.211-.1-.11-.202-.216-.295-.33z" transform="translate(-.76 -.205)scale(2.04439)"/><path fill="url(#a)" d="M16.05.102a1 1 0 0 0-.123.002c-.343.03-.485.178-.549.228-.364.284-.628.582-.857.81-.903.9-1.804 1.824-2.656 2.817-.6.699-1.188 1.416-1.748 2.166a25.4 25.4 0 0 0-2.19 3.436c-.535 1.023-1.002 2.094-1.336 3.24a11.8 11.8 0 0 0-.49 3.213c-.003.319.013.62.027.904q.043.89.207 1.76a13 13 0 0 0 1.314 3.758c.644 1.195 1.462 2.275 2.502 3.182a9.5 9.5 0 0 0 2.352 1.525 8.4 8.4 0 0 0 4.557.687 8.7 8.7 0 0 0 2.518-.72c1.422-.648 2.599-1.628 3.566-2.81.782-.953 1.39-2.02 1.84-3.161.605-1.54.89-3.156.91-4.936.022-.435-.03-.884-.086-1.336a13.8 13.8 0 0 0-.654-2.762c-.553-1.623-1.328-3.11-2.21-4.518a31.5 31.5 0 0 0-3.485-4.551c-.863-.943-1.778-1.867-2.801-2.7V.336A1.14 1.14 0 0 0 16.05.1zm-.04 2.104c.731.641 1.445 1.309 2.12 2.047a29.6 29.6 0 0 1 3.287 4.289c.83 1.327 1.538 2.692 2.033 4.146.271.795.472 1.59.572 2.398.053.43.086.872.076 1.035l-.002.043c-.015 1.609-.265 2.984-.789 4.314a10 10 0 0 1-1.555 2.682c-.825 1.007-1.78 1.793-2.922 2.312a6.9 6.9 0 0 1-1.998.572 6.5 6.5 0 0 1-3.592-.543 7.7 7.7 0 0 1-1.906-1.24c-.859-.75-1.542-1.646-2.1-2.682a11.1 11.1 0 0 1-1.13-3.238 11 11 0 0 1-.18-1.51 15 15 0 0 1-.024-.803c.008-.92.154-1.824.416-2.725.292-1 .708-1.965 1.203-2.912a23.6 23.6 0 0 1 2.037-3.19A39 39 0 0 1 13.23 5.13c.802-.935 1.668-1.827 2.56-2.715.086-.087.143-.133.22-.21z" transform="translate(-.76 -.205)scale(2.044)"/><path fill="url(#a)" d="M16.08 9c-2.832-.041-5.07 2.257-5.08 4.977A5.005 5.005 0 0 0 15.986 19 5 5 0 0 0 21 14.092c.044-2.867-2.257-5.053-4.92-5.092m-.035 1C18.22 10.003 20 11.814 20 14.022c-.001 2.199-1.8 3.979-4.02 3.978-2.21 0-3.983-1.803-3.98-4.043.003-2.185 1.816-3.96 4.045-3.957" transform="translate(-.76 -.205)scale(2.044)"/><path fill="url(#a)" d="M16 12a2 2 0 0 0-2 2 2 2 0 0 0 2 2 2 2 0 0 0 2-2 2 2 0 0 0-2-2" transform="translate(-.76 -.205)scale(2.04439)"/><path fill="url(#d)" d="M25.45 40.68c-.598 0-1.084.507-1.084 1.132v2.073c0 .624.486 1.13 1.084 1.13s1.083-.506 1.083-1.13v-2.073c0-.624-.485-1.132-1.083-1.132m3.251 0c-.598 0-1.084.504-1.084 1.126v4.252c0 .621.486 1.126 1.084 1.126s1.086-.504 1.086-1.126v-4.252c0-.621-.488-1.126-1.086-1.126m3.253 0c-.598 0-1.084.548-1.084 1.223v6.227c0 .675.486 1.223 1.084 1.223s1.084-.547 1.084-1.223v-6.227c0-.674-.486-1.223-1.084-1.223m3.253 0c-.598 0-1.086.56-1.086 1.251v4.002c0 .69.488 1.251 1.086 1.251s1.084-.56 1.084-1.251v-4.002c0-.69-.486-1.251-1.084-1.251m3.251 0c-.598 0-1.084.507-1.084 1.132v2.073c0 .624.486 1.13 1.084 1.13s1.084-.506 1.084-1.13v-2.073c0-.624-.486-1.132-1.084-1.132" style="isolation:isolate" transform="translate(.005)scale(.9997)"/></svg>