<svg version="1.1" viewBox="0 0 64 64" xmlns="http://www.w3.org/2000/svg">
 <defs>
  <linearGradient id="a" x1="1" x2="0" y1="1">
   <stop stop-color="#00efff" offset="0"/>
   <stop stop-color="#07f" offset="1"/>
  </linearGradient>
  <linearGradient id="b" y1="1">
   <stop stop-color="#01ff4d" offset="0"/>
   <stop stop-color="#2fff00" offset="1"/>
  </linearGradient>
  <linearGradient id="d" y1="1">
   <stop stop-color="#7f00ff" offset="0"/>
   <stop stop-color="#e100ff" offset="1"/>
  </linearGradient>
  <linearGradient id="c" y2="1">
   <stop stop-color="#ffbd4f" offset="0"/>
   <stop stop-color="#ffac31" offset=".12"/>
   <stop stop-color="#ff9d17" offset=".25"/>
   <stop stop-color="#ff980e" offset=".38"/>
   <stop stop-color="#ff563b" offset=".5"/>
   <stop stop-color="#ff3750" offset=".62"/>
   <stop stop-color="#f5156c" offset=".75"/>
   <stop stop-color="#eb0878" offset=".88"/>
   <stop stop-color="#e50080" offset="1"/>
  </linearGradient>
 </defs>
 <path transform="translate(0) scale(1) translate(-.001046 .000197) scale(1) matrix(.8432 0 0 .8432 5.018 5.016)" d="m29.69-5.949c-4.036 0-7.367 3.329-7.367 7.365v1.223c-1.323 0.4484-2.601 0.9812-3.836 1.6l-0.8672-0.8691c-1.426-1.426-3.327-2.158-5.209-2.158h-2e-3a2.75 2.75 0 0 0-2e-3 0c-1.881 0.00133-3.778 0.7328-5.203 2.158l-3.264 3.264c-1.573 1.573-2.267 3.714-2.106 5.787-0.1613 2.073 0.5326 4.213 2.106 5.785l0.4824 0.4805c-0.463 0.9944-0.8694 2.014-1.225 3.062h-1.209c-4.036 0-7.367 3.331-7.367 7.367v5.77c0 4.036 3.331 7.367 7.367 7.367h1.211c0.3559 1.049 0.7628 2.07 1.227 3.064l-0.4883 0.4902c-1.572 1.573-2.265 3.711-2.104 5.783-0.1613 2.073 0.5326 4.213 2.106 5.785l3.264 3.264c2.854 2.854 7.564 2.855 10.42 0l0.877-0.877c1.233 0.6176 2.506 1.152 3.826 1.6v1.225c0 4.036 3.331 7.365 7.367 7.365h4.615c4.036 0 7.365-3.33 7.365-7.365v-1.228c1.32-0.4482 2.594-0.9783 3.826-1.596l0.877 0.877c2.854 2.854 7.563 2.855 10.42 0l3.266-3.266c1.574-1.574 2.265-3.714 2.104-5.785 0.161-2.07-0.5297-4.214-2.104-5.787l-0.4883-0.4844c0.4638-0.995 0.8707-2.015 1.227-3.064h1.211c4.036 0 7.367-3.331 7.367-7.367v-5.77c0-4.036-3.331-7.367-7.367-7.367h-1.205c-0.3552-1.049-0.7616-2.068-1.225-3.062l0.4805-0.4824c1.574-1.574 2.265-3.716 2.104-5.787 0.161-2.07-0.5297-4.212-2.104-5.785l-3.266-3.262c-1.426-1.426-3.324-2.158-5.207-2.158-1.882 2.348e-4 -3.783 0.7321-5.209 2.158l-0.8672 0.8691c-1.235-0.6183-2.513-1.151-3.836-1.6v-1.223c0-4.035-3.329-7.365-7.365-7.365zm0 5.5h4.615c1.063 0 1.865 0.801 1.865 1.865v3.191a2.75 2.75 0 0 0 2.059 2.662c2.277 0.5922 4.435 1.503 6.418 2.68a2.75 2.75 0 0 0 3.348-0.4219l2.268-2.27c0.3764-0.3765 0.8409-0.5466 1.32-0.5469 0.4794 6e-5 0.9415 0.17 1.318 0.5469l3.266 3.264c0.4365 0.4362 0.601 0.9979 0.5312 1.555a2.75 2.75 0 0 0 0 0.6816c0.06974 0.5564-0.09501 1.12-0.5312 1.557l-1.85 1.85a2.75 2.75 0 0 0-0.4629 3.275c0.9938 1.798 1.77 3.724 2.297 5.75a2.75 2.75 0 0 0 2.662 2.059h3.191c1.063 0 1.867 0.8045 1.867 1.867v5.77c0 1.063-0.8045 1.867-1.867 1.867h-3.193a2.75 2.75 0 0 0-2.662 2.057c-0.5276 2.026-1.306 3.956-2.301 5.754a2.75 2.75 0 0 0 0.4629 3.275l1.856 1.854c0.4365 0.4362 0.601 0.9979 0.5312 1.555a2.75 2.75 0 0 0 0 0.6836c0.06974 0.5564-0.095 1.118-0.5312 1.555l-3.266 3.266a2.75 2.75 0 0 0-2e-3 0c-0.7504 0.7509-1.885 0.7519-2.637 0l-2.277-2.277a2.75 2.75 0 0 0-3.348-0.4199c-1.983 1.177-4.136 2.087-6.41 2.68a2.75 2.75 0 0 0-2.057 2.66v3.193c0 1.064-0.8026 1.865-1.865 1.865h-4.615c-1.063 0-1.867-0.8026-1.867-1.865v-3.193a2.75 2.75 0 0 0-2.057-2.66c-2.275-0.5926-4.432-1.503-6.414-2.68a2.75 2.75 0 0 0-3.346 0.4199l-2.277 2.277c-0.7481 0.7491-1.885 0.7503-2.637 0l-3.264-3.266c-0.4378-0.4375-0.6026-0.9987-0.5332-1.553a2.75 2.75 0 0 0 0-0.6836c-0.06939-0.5536 0.09563-1.119 0.5332-1.557a2.75 2.75 0 0 0 0.00195-2e-3l1.856-1.854a2.75 2.75 0 0 0 0.459-3.275c-0.9954-1.798-1.773-3.727-2.301-5.752a2.75 2.75 0 0 0-2.662-2.057h-3.193c-1.063 0-1.867-0.8045-1.867-1.867v-5.77c0-1.063 0.8045-1.867 1.867-1.867h3.193a2.75 2.75 0 0 0 2.662-2.059c0.5268-2.026 1.303-3.952 2.297-5.75a2.75 2.75 0 0 0-0.4629-3.275l-1.85-1.85c-0.4378-0.4375-0.6026-1.001-0.5332-1.555a2.75 2.75 0 0 0 0-0.6816c-0.06939-0.5536 0.09563-1.119 0.5332-1.557l3.264-3.264c0.3757-0.3758 0.8374-0.5463 1.316-0.5469h2e-3c0.4789 3.861e-4 0.9442 0.1708 1.32 0.5469l2.268 2.27a2.75 2.75 0 0 0 3.348 0.4219c1.984-1.177 4.14-2.087 6.418-2.68a2.75 2.75 0 0 0 2.058-2.662v-3.191c0-1.063 0.8045-1.865 1.867-1.865zm2.307 16.43c-8.951 0-16.23 7.037-16.59 15.91a2.75 2.75 0 0 0 0 0.2207c0.3576 8.838 7.672 15.92 16.59 15.92s16.23-7.078 16.59-15.92a2.75 2.75 0 0 0 0-0.2207c-0.3541-8.871-7.635-15.91-16.59-15.91zm0 5.5c6.086 0 10.78 4.532 11.07 10.52-0.2966 5.901-5.084 10.53-11.07 10.53-5.99 0-10.78-4.628-11.07-10.53 0.2961-5.983 4.989-10.52 11.07-10.52z" fill="url(#d)"/>
 <path transform="translate(0) scale(1) translate(-.001046 .000197) scale(1) matrix(.8432 0 0 .8432 5.018 5.016)" d="m31.74 2.879v0.00586c-0.5797 0-1.049 0.4694-1.049 1.049v14.06l-17.01-5.102-1.926-0.5781 6.4 19.48c0.1808 0.5508 0.7739 0.8509 1.324 0.6699 0.5508-0.1808 0.8509-0.7739 0.6699-1.324l-5.144-15.66 16.44 4.93 0.3008 0.08984 0.2988-0.08789 16.64-4.922-5.598 15.63-0.1172 0.3223 0.09766 0.3281 4.727 16.07-15.79-4.006c-0.5618-0.1425-1.135 0.1963-1.277 0.7578-0.1425 0.5618 0.1983 1.135 0.7598 1.277l19.36 4.91-0.5195-1.766-4.85-16.49h14.34c0.5797 0 1.049-0.4694 1.049-1.049s-0.4691-1.049-1.049-1.049h-14.25l5.791-16.17 0.6973-1.945-19.26 5.697v-14.07c0-0.5797-0.4694-1.049-1.049-1.049z" fill="url(#c)"/>
 <path transform="translate(0) scale(1) translate(-.001046 .000197) scale(1) matrix(.8432 0 0 .8432 5.018 5.016)" d="m13.64 8.918a4.197 4.197 0 0 0-4.195 4.197 4.197 4.197 0 0 0 4.195 4.197 4.197 4.197 0 0 0 4.197-4.197 4.197 4.197 0 0 0-4.197-4.197z" fill="url(#a)"/>
 <path transform="translate(0) scale(1) translate(-.001046 .000197) scale(1) matrix(.8432 0 0 .8432 5.018 5.016)" d="m19.41 27.8a4.197 4.197 0 0 0-4.197 4.197 4.197 4.197 0 0 0 4.197 4.197 4.197 4.197 0 0 0 4.197-4.197 4.197 4.197 0 0 0-4.197-4.197z" fill="url(#a)"/>
 <path transform="translate(0) scale(1) translate(-.001046 .000197) scale(1) matrix(.8432 0 0 .8432 5.018 5.016)" d="m32 1.049a4.197 4.197 0 0 0-4.197 4.197 4.197 4.197 0 0 0 4.197 4.197 4.197 4.197 0 0 0 4.197-4.197 4.197 4.197 0 0 0-4.197-4.197z" fill="url(#b)"/>
 <path transform="translate(0) scale(1) translate(-.001046 .000197) scale(1) matrix(.8432 0 0 .8432 5.018 5.016)" d="m32 15.21a4.197 4.197 0 0 0-4.197 4.197 4.197 4.197 0 0 0 4.197 4.197 4.197 4.197 0 0 0 4.197-4.197 4.197 4.197 0 0 0-4.197-4.197z" fill="url(#a)"/>
 <path transform="translate(0) scale(1) translate(-.001046 .000197) scale(1) matrix(.8432 0 0 .8432 5.018 5.016)" d="m50.36 8.918a4.197 4.197 0 0 0-4.197 4.197 4.197 4.197 0 0 0 4.197 4.197 4.197 4.197 0 0 0 4.197-4.197 4.197 4.197 0 0 0-4.197-4.197z" fill="url(#a)"/>
 <path transform="translate(0) scale(1) translate(-.001046 .000197) scale(1) matrix(.8432 0 0 .8432 5.018 5.016)" d="m44.59 27.8a4.197 4.197 0 0 0-4.195 4.197 4.197 4.197 0 0 0 4.195 4.197 4.197 4.197 0 0 0 4.197-4.197 4.197 4.197 0 0 0-4.197-4.197z" fill="url(#a)"/>
 <path transform="translate(0) scale(1) translate(-.001046 .000197) scale(1) matrix(.8432 0 0 .8432 5.018 5.016)" d="m49.84 45.64a4.197 4.197 0 0 0-4.195 4.195 4.197 4.197 0 0 0 4.195 4.197 4.197 4.197 0 0 0 4.197-4.197 4.197 4.197 0 0 0-4.197-4.195z" fill="url(#a)"/>
 <path transform="translate(0) scale(1) translate(-.001046 .000197) scale(1) matrix(.8432 0 0 .8432 5.018 5.016)" d="m32 40.92a4.197 4.197 0 0 0-4.197 4.197 4.197 4.197 0 0 0 4.197 4.197 4.197 4.197 0 0 0 4.197-4.197 4.197 4.197 0 0 0-4.197-4.197z" fill="url(#a)"/>
 <path transform="translate(0) scale(1) translate(-.001046 .000197) scale(1) matrix(.8432 0 0 .8432 5.018 5.016)" d="m57.18 27.28a4.197 4.197 0 0 0-4.197 4.197 4.197 4.197 0 0 0 4.197 4.195 4.197 4.197 0 0 0 4.197-4.195 4.197 4.197 0 0 0-4.197-4.197z" fill="url(#b)"/>
</svg>
