<svg xmlns="http://www.w3.org/2000/svg" viewBox="0 0 64 64"><defs><linearGradient id="a" y1="1"><stop offset="0" stop-color="#ff0001"/><stop offset="1" stop-color="#ff00b6"/></linearGradient></defs><path fill="url(#a)" d="M15.23 1.394C6.815 1.394 0 8.352 0 16.834v33.4a2.77 2.77 0 0 0 2.764 2.775 2.77 2.77 0 0 0 2.775-2.775v-33.4c0-5.554 4.301-9.889 9.691-9.889h33.81a2.77 2.77 0 0 0 2.773-2.773 2.77 2.77 0 0 0-2.773-2.775zm45.99 9.588a2.77 2.77 0 0 0-2.773 2.773v33.4c0 5.55-4.305 9.9-9.691 9.9h-33.81a2.77 2.77 0 0 0-2.764 2.766 2.77 2.77 0 0 0 2.764 2.772h33.81c8.415 0 15.23-6.958 15.23-15.44v-33.4a2.77 2.77 0 0 0-2.766-2.773z"/><path fill="url(#a)" d="m17.09 14.77-.16 6.744 14.19 9.394-14.21 9.404.18 6.723 20.79-13.75v-4.732zm16.87 26.46-8.586 5.69h24.54v-5.69h-14.9z"/></svg>