<svg xmlns="http://www.w3.org/2000/svg" viewBox="0 0 64 64"><defs><linearGradient id="a" x2="0" y1="1"><stop offset="0" stop-color="#ff5f00"/><stop offset="1" stop-color="#ff00fa"/></linearGradient></defs><path fill="url(#a)" fill-opacity=".992" d="M5.908 1.42a2 2 0 0 0-.22.016c-.174.027-.383.12-.678.298-.236.142-.55.301-.698.356-.369.137-.474.233-.632.576-.132.285-.137.325-.131.936.005.542.035.78.2 1.602.11.538.247 1.073.311 1.213.058.125.121.23.15.248l.003.002h.004v.002h.004v-.002l.002-.002c.024-.046.05-.43.064-.928.028-1.083.09-1.418.363-1.967.463-.93.829-1.198 2.03-1.48.523-.124.917-.274 1.075-.412.117-.101.121-.116.053-.186q-.073-.075-.52-.119a7 7 0 0 1-.56-.072 4 4 0 0 0-.82-.08zm3.221.248a1 1 0 0 0-.469.106c-.395.212-1.293.705-1.768.968-.778.432-1.269 1.024-1.562 1.88-.104.304-.133.48-.15.966-.026.728.001.797.297.797.316 0 .41-.116.611-.75.22-.694.478-1.186.854-1.627.844-.99 1.954-1.352 3.182-1.039.64.163 1.383.588 1.766 1.012.254.281.39.613.476 1.156.175 1.098.27 1.445.418 1.541q.212.135.217-1.014c.004-1.061-.162-2.037-.432-2.543a2.06 2.06 0 0 0-.865-.822c-.13-.06-.627-.218-1.107-.352-.688-.192-1.142-.283-1.467-.28zm-.002 1.971c-.758-.038-1.161.2-1.859.992-.328.372-.457.57-.74 1.133-.306.608-.344.71-.344.95 0 .218.025.298.129.435.263.345 1.015.65 1.6.65.442 0 .68-.112.975-.46.122-.145.407-.475.634-.737.658-.757.896-1.333.744-1.793-.208-.632-1.658-.644-1.949-.015-.083.179-.132.391-.109.435l.006.006h.002l.002.002h.004l.006-.002.005-.002c.03-.018.051-.073.051-.123 0-.142.27-.408.498-.496.639-.244 1.314.236 1.156.822-.101.378-.578.774-.998.832-.208.029-.275.015-.539-.115-.339-.167-.619-.458-.662-.687-.09-.483.434-1.147 1.049-1.326.195-.057.391-.07.764-.055.59.024.953.143 1.244.406l.187.168-.02.522c-.025.711-.098.845-.935 1.7-.713.729-.798.871-.607 1.026.15.121.549.094.865-.059.46-.223 1.17-1.077 1.352-1.627.135-.408.152-.686.066-1.018-.102-.396-.21-.6-.441-.83-.38-.38-.92-.592-1.785-.701a5 5 0 0 0-.35-.033zm4.34.455a.1.1 0 0 0-.064.027c-.104.086-.09.174.07.457.116.207.15.338.19.735.025.265.06.542.074.613.031.156-.062.492-.332 1.188-.163.42-.22.644-.282 1.131-.09.715-.232 1.17-.51 1.635-.558.935-1.481 1.718-2.7 2.29-.803.375-1.386.486-2.728.525-.709.02-.917.038-.957.085l-.002.002-.002.006-.002.002c-.04.104.117.616.285.93.364.684.964 1.136 1.66 1.254.13.023.423.035.652.024.542-.024.86-.172 1.375-.637.789-.714.852-.751 2.031-1.225.895-.36 1.566-.68 1.881-.897.276-.19.63-.582.736-.816.163-.359.113-.622-.185-.979a5 5 0 0 1-.258-.337l-.08-.125.33-.22c.404-.268.598-.493.691-.804.073-.242.16-1.642.16-2.57.001-.609-.075-.796-.54-1.338a3 3 0 0 0-1.176-.857c-.175-.076-.26-.103-.317-.098zm-10.76.547c-.496 0-.89.294-1.24.92a4.7 4.7 0 0 0-.535 1.557 4.2 4.2 0 0 1-.266.951C.52 8.41.5 8.5.5 8.85c0 .356.014.418.135.61.176.278.506.558 1.412 1.205.76.542 1.566 1.026 1.943 1.166.117.043.403.119.637.168.401.083 1.304.127 1.385.07l.002-.002.002-.002v-.002h.002v-.008c-.017-.027-.152-.123-.31-.22-.422-.257-.833-.707-1.333-1.453-.23-.345-.584-.815-.783-1.043s-.384-.471-.41-.54c-.07-.181-.015-.38.246-.914.313-.64.312-.616-.047-2.018a9 9 0 0 1-.17-.773c-.044-.33-.181-.454-.504-.453m6.266.256c-.082.004-.173.083-.244.22-.1.193-.053.353.135.467a.53.53 0 0 0 .588-.002q.131-.083.146-.125l.002-.001v-.012l-.002-.002V5.44l-.006-.006H9.59c-.021-.008-.07-.005-.144.018-.334.102-.482-.03-.352-.317.046-.1.043-.135-.017-.195a.14.14 0 0 0-.104-.043zm3.178.969-.002.002c-.025.02-.075.134-.113.27-.276.985-.457 1.338-.922 1.804-.333.333-.786.6-1.244.733-.211.059-.363.07-.637.046-.484-.043-.736-.11-2.035-.544-.61-.205-1.248-.394-1.416-.42-.699-.112-1.336.166-1.705.748-.241.38-.16.55.39.822.46.227.587.371.99 1.123.288.54.55.857.886 1.072.287.184.749.373 1.117.457.887.203 2.085-.158 2.94-.889 1.03-.881 1.665-1.946 1.875-3.148.12-.687.039-2.076-.121-2.076z" transform="translate(-2.134 -3.032)scale(4.26657)"/></svg>