<svg xmlns="http://www.w3.org/2000/svg" viewBox="0 0 64 64"><defs><linearGradient id="a" x2="0" y1="1"><stop offset="0" stop-color="#ff002e"/><stop offset="1" stop-color="#f09"/></linearGradient></defs><path fill="url(#a)" d="M22.08 0 11.3 5.531 2.677 12v11.9L32.007 64l29.33-40.1V12l-8.623-6.469L41.924 0zm.588 2.56h18.66l9.334 4.814v6.373l-9.334 4.816h-18.66l-9.334-4.812V7.374zm-12 6.666v4.826l-5.332 5.863v-6.69zm42.66 0 5.332 4v6.69l-5.332-5.867zm-41.04 6.986 9.039 5.012v9.787l-15.19-8.029zm39.41 0 6.154 6.77-15.19 8.031v-9.785zm-27.7 5.012h16v10.67h-16zm-15.63 5.947 13.2 6.975 6.604 20.74zm47.28 0-19.8 27.73 6.6-20.74zm-31.14 7.385h15.02l-7.508 24z" transform="translate(-.007)"/></svg>