<svg xmlns="http://www.w3.org/2000/svg" style="isolation:isolate" viewBox="0 0 64 64"><linearGradient id="a" x1=".115" x2=".962" y2="1.051" gradientTransform="matrix(40.91 0 0 38.21 7.18 -.21)" gradientUnits="userSpaceOnUse" transform="translate(.133 .278)scale(1.325)"><stop offset="0" stop-color="#ffe031"/><stop offset="1" stop-color="#fa0075"/></linearGradient><path fill="url(#a)" d="M13 7.07h-2l-3.82-.33 1.54-1.28 6.8-5.66 11.5 3.13L39.61-.21l8.48 8.48L44.79 38H37v-4h4.21l2.7-24.27-5.52-5.52-11.41 2.86-10.5-2.87z" transform="translate(.133 .278)scale(1.325)"/><linearGradient id="b" x1=".34" x2="1.009" y1=".037" y2="1.013" gradientTransform="matrix(41.39 0 0 45.21 0 2.87)" gradientUnits="userSpaceOnUse" transform="translate(.133 .278)scale(1.325)"><stop offset="0" stop-color="#9c33c4"/><stop offset=".513" stop-color="#ff1950"/><stop offset=".987" stop-color="#ff8724"/></linearGradient><path fill="url(#b)" d="m33.29 40.03-1.03-1.72 3.43-2.05 1.02 1.71 4.68 7.79-32.41 2.32L0 34.61V7.46l17.22-4.59 8.67 4.34L32 10.54l-6.11 1.14-1.78-.89-7.33-3.66L4 10.54v22.85l7.02 10.53 23.59-1.68z" transform="translate(.133 .278)scale(1.325)"/><linearGradient id="d" x1=".069" x2=".956" y1=".948" y2="-.017" gradientTransform="matrix(29 0 0 -29 9.5 38.5)" gradientUnits="userSpaceOnUse" transform="translate(.133 .278)scale(1.325)"><stop offset="0" stop-color="#9c33c4"/><stop offset=".513" stop-color="#ff1950"/><stop offset=".987" stop-color="#ff8724"/></linearGradient><path fill="url(#d)" fill-rule="evenodd" d="M35.98 16.78a1.261 1.261 0 0 0 2.522 0v-4.13a3.153 3.153 0 0 0-3.152-3.152h-22.7a3.153 3.153 0 0 0-3.152 3.152v11.98a1.262 1.262 0 0 0 2.522 0V13.91c0-1.044.847-1.891 1.891-1.891h20.17c1.044 0 1.891.847 1.891 1.891v2.869zM12.02 31.22a1.261 1.261 0 0 0-2.522 0v4.13a3.153 3.153 0 0 0 3.152 3.152h22.7a3.153 3.153 0 0 0 3.152-3.152v-12.5a1.262 1.262 0 0 0-2.522 0v11.23a1.89 1.89 0 0 1-1.891 1.891h-20.17a1.89 1.89 0 0 1-1.891-1.891v-2.869zm1.978 2.282h9v-2.5h-9zm2.127-16.74v2.71h.686q1.009 0 1.489-.336t.48-1.057q0-.713-.49-1.015-.491-.302-1.52-.302zm12.34 8.288h-1.949l-2.415-7.87h-.062q.131 2.402.131 3.205v4.665h-1.901V15.02h2.896l2.373 7.671h.042l2.518-7.671h2.895v10.03H31.01v-4.748q0-.336.01-.775t.093-2.333h-.062zm-11.21-3.849h-1.132v3.849h-2.127V15.02h2.923q2.044 0 3.026.745.981.744.981 2.26 0 .885-.487 1.575-.488.69-1.38 1.081 2.265 3.382 2.951 4.37h-2.36z" transform="translate(.133 .278)scale(1.325)"/></svg>