<svg xmlns="http://www.w3.org/2000/svg" viewBox="0 0 64 64"><defs><linearGradient id="a" y1="1"><stop offset="0" stop-color="#00d6ff"/><stop offset="1" stop-color="#076ff8"/></linearGradient></defs><path fill="url(#a)" d="M32.22 12a20 20 0 0 0-14.35 5.879l.07-.09a19.95 19.95 0 0 0-3.107 24.44 1.773 1.773 0 0 0 2.787.39l3.27-3.245c.592-.517.88-1.36.551-2.074-2.189-4.578-1.36-10.04 2.232-13.62 3.591-3.587 9.058-4.418 13.64-2.23.668.298 1.45.05 1.971-.461l3.357-3.354a1.774 1.774 0 0 0-.32-2.785 20 20 0 0 0-10.1-2.844zm15.25 8.832a1.77 1.77 0 0 0-1.115.504l-3.285 3.266c-.578.518-.86 1.35-.535 2.055 2.188 4.579 1.359 10.04-2.232 13.62-3.592 3.586-9.058 4.416-13.64 2.23-.675-.303-1.466-.048-1.986.478l-3.34 3.334a1.78 1.78 0 0 0 .32 2.785 20.01 20.01 0 0 0 24.48-2.94 19.95 19.95 0 0 0 3.01-24.44 1.77 1.77 0 0 0-1.672-.895z" transform="translate(-19.203 -19.185)scale(1.59968)"/></svg>