<svg xmlns="http://www.w3.org/2000/svg" style="isolation:isolate" viewBox="0 0 64 64"><linearGradient id="a" x1="-.014" x2="1.016" y1=".01" y2="1.072" gradientTransform="matrix(24.62 0 0 35.2 23.38 12.8)" gradientUnits="userSpaceOnUse" transform="scale(1.333)"><stop offset="0" stop-color="#f9d423"/><stop offset=".516" stop-color="#ff4e50"/><stop offset=".991" stop-color="#8a2387"/></linearGradient><path fill="url(#a)" fill-rule="evenodd" d="M36 36.8c0 .883-.627 1.6-1.4 1.6s-1.4-.717-1.4-1.6V15.04a2.246 2.246 0 0 1 2.245-2.245h3.575c4.956 0 8.98 4.024 8.98 8.98v17.24c0 4.956-4.024 8.98-8.98 8.98H34.6c-.773 0-1.4-.717-1.4-1.6s.627-1.6 1.4-1.6h3.865A6.74 6.74 0 0 0 45.2 38.06V22.73a6.74 6.74 0 0 0-6.735-6.735H36v20.8zM26.809 17l-.53 3h-1.404l-.373 2h1.424l-.705 4h-1.467l-.373 2h1.486l-.705 4h2.029l.705-4h2.657l.373-2H27.25l.707-4h2.715l.373-2h-2.736l.529-3z" transform="scale(1.333)"/><linearGradient id="c" x2="1" y1=".5" y2=".5" gradientTransform="scale(24.88 35.2)" gradientUnits="userSpaceOnUse" transform="scale(1.333)"><stop offset="0" stop-color="#5433ff"/><stop offset=".517" stop-color="#20bdff"/><stop offset=".983" stop-color="#a5fecb"/></linearGradient><path fill="url(#c)" fill-rule="evenodd" d="M12 11.2c0-.883.627-1.6 1.4-1.6s1.4.717 1.4 1.6v21.76a2.246 2.246 0 0 1-2.245 2.245H8.98c-4.956 0-8.98-4.024-8.98-8.98V8.985C0 4.029 4.024.005 8.98.005h4.42c.773 0 1.4.717 1.4 1.6s-.627 1.6-1.4 1.6H9.535A6.74 6.74 0 0 0 2.8 9.94v15.33a6.74 6.74 0 0 0 6.735 6.735H12v-20.8zm9.809 5.8-.53 3h-2.607l-.373 2h2.627l-.705 4h-2.67l-.373 2h2.689l-.705 4h2.029l.705-4h1.485l.373-2H22.25l.707-4h1.545l.373-2h-1.566l.529-3z" transform="scale(1.333)"/></svg>