<svg version="1.1" viewBox="0 0 64 64" xmlns="http://www.w3.org/2000/svg">
 <defs>
  <linearGradient id="d" x1="1" x2="0" y1=".5" y2=".5">
   <stop stop-color="#fea51d" offset="0"/>
   <stop stop-color="#ff0a76" offset="1"/>
  </linearGradient>
  <linearGradient id="b" x1="1" x2="0" y1=".5" y2=".5">
   <stop stop-color="#00d2ff" offset="0"/>
   <stop stop-color="#0006ff" offset="1"/>
  </linearGradient>
  <linearGradient id="a" y1="1">
   <stop stop-color="#f17b41" offset="0"/>
   <stop stop-color="#e05ba2" offset=".5"/>
   <stop stop-color="#cd4bc9" offset="1"/>
  </linearGradient>
 </defs>
 <path transform="translate(0) scale(1) translate(-.005)" d="M18.48 0C8.609 0 .55 8.061.55 17.93v28.13C.55 55.931 8.611 64 18.48 64h27.05c9.871 0 17.93-8.064 17.93-17.94V17.93C63.46 8.059 55.398 0 45.53 0zm0 5.57h27.05c6.862 0 12.36 5.499 12.36 12.36v28.13c0 6.862-5.501 12.36-12.36 12.36H18.48A12.317 12.317 0 0 1 6.12 46.06V17.93c0-6.861 5.503-12.36 12.36-12.36" fill="url(#a)"/>
 <path transform="translate(0) scale(1) translate(-.005)" d="M15.29 26.78c-2.884 0-5.221 2.337-5.221 5.221s2.337 5.221 5.221 5.221 5.221-2.337 5.221-5.221-2.337-5.221-5.221-5.221m14.62 0c-2.892 0-5.221 2.328-5.221 5.221s2.328 5.221 5.221 5.221H48.7c2.892 0 5.221-2.328 5.221-5.221S51.593 26.78 48.7 26.78z" fill="url(#b)"/>
 <path transform="translate(0) scale(1) translate(-.005)" d="M15.29 10.07c-2.884 0-5.221 2.337-5.221 5.221s2.337 5.221 5.221 5.221 5.221-2.337 5.221-5.221-2.337-5.221-5.221-5.221m14.62 0c-2.892 0-5.221 2.328-5.221 5.221s2.328 5.221 5.221 5.221H48.7c2.892 0 5.221-2.328 5.221-5.221S51.593 10.07 48.7 10.07z" fill="url(#b)"/>
 <path transform="translate(0) scale(1) translate(-.005)" d="M15.29 43.49c-2.884 0-5.221 2.337-5.221 5.221s2.337 5.221 5.221 5.221 5.221-2.337 5.221-5.221-2.337-5.221-5.221-5.221m14.62 0c-2.892 0-5.221 2.328-5.221 5.221s2.328 5.221 5.221 5.221H48.7c2.892 0 5.221-2.328 5.221-5.221S51.593 43.49 48.7 43.49z" fill="url(#d)"/>
</svg>
