<svg xmlns="http://www.w3.org/2000/svg" viewBox="0 0 64 64"><defs><linearGradient id="a" y2="1"><stop offset="0" stop-color="#0f9"/><stop offset="1" stop-color="#14dc57"/></linearGradient></defs><path fill="url(#a)" d="M32-2.277a12.85 12.85 0 0 0-9.074 3.754l-21.45 21.45a12.85 12.85 0 0 0-3.754 9.074c0 3.402 1.351 6.666 3.754 9.074l21.45 21.45c2.408 2.403 5.672 3.754 9.074 3.754s6.666-1.351 9.074-3.754l21.45-21.45a12.85 12.85 0 0 0 3.754-9.074c0-3.402-1.351-6.666-3.754-9.074l-21.45-21.45A12.85 12.85 0 0 0 32-2.277m-.11 6.996a5.834 5.834 0 0 1 4.234 1.707l1.769 1.768a1 1 0 0 1 0 1.414l-1.885 1.887c-.39.39-1.026.39-1.416 0L29.65 6.552c-.447-.447-.37-1.199.219-1.43a5.8 5.8 0 0 1 2.022-.402zm-8.14 6.246c.256 0 .511.098.707.293l10.96 10.96a1 1 0 0 1 0 1.414l-11.78 11.78a1 1 0 0 1-1.414 0l-10.96-10.96a1 1 0 0 1 0-1.414l11.78-11.78a1 1 0 0 1 .707-.293m19.8 3.301c.256 0 .511.098.707.293l5.186 5.186a1 1 0 0 1 0 1.414l-1.885 1.885a1 1 0 0 1-1.414 0l-5.186-5.186a1 1 0 0 1 0-1.414l1.885-1.885a1 1 0 0 1 .707-.293m11.55 11.55c.255 0 .511.098.707.293l1.768 1.768a5.84 5.84 0 0 1 1.305 6.256c-.232.589-.983.666-1.43.219l-4.943-4.941a1 1 0 0 1 0-1.416l1.887-1.885a1 1 0 0 1 .707-.293zm-14.02 2.475c.256 0 .511.098.707.293l10.96 10.96a1 1 0 0 1 0 1.414l-11.78 11.78a1 1 0 0 1-1.414 0l-10.96-10.96a1 1 0 0 1 0-1.414l11.78-11.78a1 1 0 0 1 .707-.293M5.86 29.365a.96.96 0 0 1 .691.287l4.943 4.941c.39.39.39 1.026 0 1.416l-1.887 1.885a1 1 0 0 1-1.414 0l-1.768-1.768A5.84 5.84 0 0 1 5.12 29.87c.13-.331.426-.5.738-.506zm11.29 11.3c.256 0 .511.098.707.293l5.186 5.186a1 1 0 0 1 0 1.414l-1.885 1.885a1 1 0 0 1-1.414 0l-5.186-5.186a1 1 0 0 1 0-1.414l1.885-1.885a1 1 0 0 1 .707-.293m11.55 11.55c.256 0 .513.098.709.293l4.94 4.943c.448.447.37 1.199-.218 1.43a5.834 5.834 0 0 1-6.256-1.305l-1.768-1.768a1 1 0 0 1 0-1.414l1.885-1.887a1 1 0 0 1 .707-.293z" transform="translate(2.127 2.126)scale(.9335)"/></svg>