<svg xmlns="http://www.w3.org/2000/svg" viewBox="0 0 64 64"><defs><linearGradient id="a" x1="1" x2="0" y2="1"><stop offset="0" stop-color="#feaa00"/><stop offset=".5" stop-color="#fd0575"/><stop offset="1" stop-color="#7b31fe"/></linearGradient></defs><path fill="url(#a)" d="M2.3 10.3c-1.104 0-2 .897-2 2.001v25.4a2 2 0 0 0 2 2h43.4a2 2 0 0 0 2-2v-25.4a2 2 0 0 0-2-2.001zm1.4 3.401h3.8v8.3H10v-8.3h3.999v11.3h4v-11.3h4.688v8.237h2.5v-8.237h4.812v11.42h4v-11.42h3.999v8.424h2.5v-8.424h3.8v22.6h-40.6zm29.12 13.2a4.3 4.3 0 0 0-1.014.111q-.453.111-.836.315c-.383.204-.577.371-.966.702l.906 1.072q.47-.388.902-.598.431-.21.89-.21.435 0 .698.23.262.233.262.708 0 .318-.119.615-.12.297-.39.645-.267.347-1.147 1.248l-1.98 2.002V34.9h5.515v-1.402h-3.438v-.076l1.015-.955q1.014-.927 1.416-1.428.402-.503.593-.98a2.7 2.7 0 0 0 .192-1.021q0-.628-.314-1.113a2.1 2.1 0 0 0-.88-.755q-.566-.27-1.305-.27zm-16.27.1-2.546 2.026.806 1.006.908-.731q.162-.13.577-.545l-.026.822-.016.751v4.57h1.67V27z" transform="translate(-.405 -1.756)scale(1.35)"/></svg>