<svg xmlns="http://www.w3.org/2000/svg" viewBox="0 0 64 64"><defs><linearGradient id="a" x2="0" y1="1"><stop offset="0" stop-color="#c0f"/><stop offset="1" stop-color="#0ff"/></linearGradient></defs><path fill="url(#a)" d="M12.92 1.004c-.891-.044-1.242.376-1.762 1.092l-.002.002c-.62.866-.947 1.885-1.219 2.877-.375 1.389-1.007 2.703-1.805 3.904-1.653 2.478-3.922 4.635-6.715 5.723a.2.2 0 0 0-.047.031l-.113.106c-.106.1-.024.276.12.26 1.959-.23 3.528-1.535 4.972-2.692a21.4 21.4 0 0 0 3.43-.64h.002c1.578-.442 2.883-1.143 3.959-2.473 1.074-1.316 1.254-3.147.861-4.734-.134-.634-.673-1.283-1.367-1.42.256-.533.524-.586.502-1.62a.1.1 0 0 0-.021-.046c-.183-.263-.493-.368-.793-.37z" transform="translate(-4.576 -4.576)scale(4.572)"/></svg>