<svg xmlns="http://www.w3.org/2000/svg" viewBox="0 0 64 64"><defs><linearGradient id="b" x2="0" y1="1"><stop offset="0" stop-color="#01ff01"/><stop offset="1" stop-color="#1bc100"/></linearGradient><linearGradient id="d" x2="0" y2="1"><stop offset="0" stop-color="#fda700"/><stop offset="1" stop-color="#ffde00"/></linearGradient><linearGradient id="a" y1="1"><stop offset="0" stop-color="#00efff"/><stop offset="1" stop-color="#07f"/></linearGradient></defs><path fill="url(#a)" d="M5 2a3 3 0 0 0-3 3v2a3 3 0 0 0 .78 2A3 3 0 0 0 2 11v2a3 3 0 0 0 .78 2A3 3 0 0 0 2 17v2a3 3 0 0 0 3 3h14a3 3 0 0 0 3-3v-2a3 3 0 0 0-.78-2 3 3 0 0 0 .78-2v-2a3 3 0 0 0-.78-2A3 3 0 0 0 22 7V5a3 3 0 0 0-3-3zm0 2h14a1 1 0 0 1 1 1v2a1 1 0 0 1-1 1H5a1 1 0 0 1-1-1V5a1 1 0 0 1 1-1m0 6h14a1 1 0 0 1 1 1v2a1 1 0 0 1-1 1H5a1 1 0 0 1-1-1v-2a1 1 0 0 1 1-1m0 6h14a1 1 0 0 1 1 1v2a1 1 0 0 1-1 1H5a1 1 0 0 1-1-1v-2a1 1 0 0 1 1-1" transform="matrix(3.2 0 0 3.2 -6.4 -6.4)"/><path fill="url(#b)" d="M18 17a1 1 0 1 0 1 1 1 1 0 0 0-1-1" transform="matrix(3.2 0 0 3.2 -6.4 -6.4)"/><path fill="url(#d)" d="M15 17a1 1 0 1 0 1 1 1 1 0 0 0-1-1" transform="matrix(3.2 0 0 3.2 -6.4 -6.4)"/><path fill="url(#a)" d="M6 17a1 1 0 0 0 0 2h3a1 1 0 0 0 0-2z" transform="matrix(3.2 0 0 3.2 -6.4 -6.4)"/><path fill="url(#b)" d="M18 11a1 1 0 1 0 1 1 1 1 0 0 0-1-1" transform="matrix(3.2 0 0 3.2 -6.4 -6.4)"/><path fill="url(#d)" d="M15 11a1 1 0 1 0 1 1 1 1 0 0 0-1-1" transform="matrix(3.2 0 0 3.2 -6.4 -6.4)"/><path fill="url(#a)" d="M6 11a1 1 0 0 0 0 2h3a1 1 0 0 0 0-2z" transform="matrix(3.2 0 0 3.2 -6.4 -6.4)"/><path fill="url(#b)" d="M18 5a1 1 0 1 0 1 1 1 1 0 0 0-1-1" transform="matrix(3.2 0 0 3.2 -6.4 -6.4)"/><path fill="url(#d)" d="M15 5a1 1 0 1 0 1 1 1 1 0 0 0-1-1" transform="matrix(3.2 0 0 3.2 -6.4 -6.4)"/><path fill="url(#a)" d="M6 5a1 1 0 0 0 0 2h3a1 1 0 0 0 0-2z" transform="matrix(3.2 0 0 3.2 -6.4 -6.4)"/></svg>