<svg xmlns="http://www.w3.org/2000/svg" viewBox="0 0 64 64"><path fill="#0ff" d="M15.337 0A13.747 13.747 0 0 0 1.59 13.747a13.747 13.747 0 0 0 13.747 13.747 13.747 13.747 0 0 0 13.747-13.747A13.747 13.747 0 0 0 15.337 0"/><path fill="#0f0" d="M45.226 0v10.308H34.917v6.873h10.309v10.308h6.87V17.181h10.308v-6.873H52.096V0z"/><path fill="#ff0" d="M15.337 33.45 1.59 60.942h27.494L22.21 47.196z"/><path fill="red" d="M59.527 33.45 32.033 44.14l21.406 8.322v11.532h6.112v-9.166l-.023-.01v-10.68z"/></svg>