<svg xmlns="http://www.w3.org/2000/svg" viewBox="0 0 64 64"><defs><linearGradient id="d" x1="1" x2="0" y1=".5" y2=".5"><stop offset="0" stop-color="#007bff"/><stop offset="1" stop-color="#0006ff"/></linearGradient><linearGradient id="a" y1=".5" y2=".5"><stop offset="0" stop-color="#5433ff"/><stop offset=".5" stop-color="#0bbdff"/><stop offset="1" stop-color="#a5fecb"/></linearGradient><linearGradient id="b" x2="0" y1="1"><stop offset="0" stop-color="#9717f2"/><stop offset="1" stop-color="#ff00b0"/></linearGradient></defs><path fill="url(#a)" d="m53.68 4.588-43.35.002v.002h11.78v6.643h30.66v41.52H22.11v6.643h31.57c3.127 0 5.728-2.604 5.728-5.73v-43.35c0-3.128-2.602-5.728-5.728-5.728z" transform="translate(-.005)"/><path fill="url(#b)" d="M23.4 0a1.29 1.29 0 0 0-1.291 1.289v61.41c0 .712.58 1.291 1.291 1.291h2.58a1.29 1.29 0 0 0 1.289-1.291V1.289A1.29 1.29 0 0 0 25.98 0z" transform="translate(-.005)"/><path fill="url(#d)" d="M10.32 4.592c-3.128 0-5.728 2.602-5.728 5.728v43.35c0 3.127 2.603 5.73 5.728 5.73H22.1v-6.644H11.23v-41.52H22.1V4.593z" transform="translate(-.005)"/></svg>