<svg version="1.1" viewBox="0 0 64 64" xmlns="http://www.w3.org/2000/svg">
 <defs>
  <linearGradient id="a" x2="0" y1="1">
   <stop stop-color="#07f" offset="0"/>
   <stop stop-color="#00f7ff" offset="1"/>
  </linearGradient>
  <linearGradient id="b" x1="1" x2="0" y1="1">
   <stop stop-color="#3a8ee6" offset="0"/>
   <stop stop-color="#3a8ee6" offset=".25"/>
   <stop stop-color="#5c79f0" offset=".5"/>
   <stop stop-color="#9059ff" offset=".75"/>
   <stop stop-color="#c139e6" offset="1"/>
  </linearGradient>
 </defs>
 <path transform="translate(0) scale(1) translate(0) scale(1) translate(1e-6 2e-6) scale(1) translate(-.004776 -.009108) scale(1) matrix(1.136 0 0 1.136 -4.358 -4.358)" d="m32.34 3.887c-1.519-0.01887-3.043 0.08735-4.551 0.3164a0.9088 0.9088 0 0 1-0.1348 0.01172h0.0352c-8.931 1.305-16.99 7.229-20.94 15.32a0.9088 0.9088 0 0 1-0.00391 0.0078c-2.879 5.759-3.638 12.52-2.188 18.78a0.9088 0.9088 0 0 1 0 0.0078v2e-3l0.00195 2e-3c0.1616 0.7077 0.3507 1.408 0.5684 2.1v2e-3c1.524 4.843 4.395 9.255 8.213 12.62a0.9088 0.9088 0 0 1 0.0078 0.0098 0.9088 0.9088 0 0 0 2e-3 0c5.006 4.47 11.68 7.001 18.38 7.057a0.9088 0.9088 0 0 0 2e-3 0c1.339 0.01305 2.68-0.07008 4.008-0.248 3.982-0.5339 7.849-1.915 11.24-4.062a0.9088 0.9088 0 0 1 0.0039-0.0039c5.682-3.551 10.03-9.187 11.96-15.6a0.9088 0.9088 0 0 1 2e-3 -0.0098c1.977-6.445 1.532-13.59-1.266-19.74a0.9088 0.9088 0 0 1-2e-3 -0.0059c-2.453-5.457-6.707-10.08-11.94-12.99a0.9088 0.9088 0 0 1-0.0059-0.00195c-4.073-2.291-8.725-3.51-13.39-3.57a0.9088 0.9088 0 0 0-2e-3 0zm-0.6856 3.883c3.959-0.05337 7.932 0.8544 11.45 2.674a0.9088 0.9088 0 0 1 0.0078 2e-3v2e-3h2e-3c4.846 2.49 8.815 6.644 11.04 11.61a0.9088 0.9088 0 0 0 0 2e-3c5.46e-4 0.0012 0.0014 0.0028 2e-3 0.0039a0.9088 0.9088 0 0 1 0.04297 0.1172 0.9088 0.9088 0 0 1 0 2e-3 0.9088 0.9088 0 0 1 0.02539 0.1211 0.9088 0.9088 0 0 1 0.0098 0.123v-0.1406c2.122 4.799 2.594 10.29 1.371 15.38a0.9088 0.9088 0 0 1-0.0039 0.04687c-0.1483 0.6234-0.3238 1.238-0.5234 1.846-1.397 4.258-4.021 8.102-7.465 10.98a0.9088 0.9088 0 0 1-0.02344 0.01953c-0.0055 0.0047-0.01203 0.0091-0.01758 0.01367a0.9088 0.9088 0 0 1-0.07227 0.05078 0.9088 0.9088 0 0 1-2e-3 2e-3 0.9088 0.9088 0 0 1-0.07227 0.04297l0.04102-0.01953c-3.793 3.16-8.575 5.116-13.51 5.486-4.858 0.3944-9.829-0.6875-14.05-3.127a0.9088 0.9088 0 0 0-2e-3 -2e-3c-0.0019-0.0011-0.0021-0.0028-0.0039-0.0039-4.268-2.461-7.763-6.234-9.867-10.68a0.9088 0.9088 0 0 1-0.05664-0.1035 0.9088 0.9088 0 0 0-0.00195-2e-3v-2e-3c-0.00925-0.01974-0.01425-0.0408-0.02344-0.06055a0.9088 0.9088 0 0 1-0.01367-0.0332c-2.97-6.41-2.928-14.13 0.123-20.5a0.9088 0.9088 0 0 1 0.0039-0.0078c0.01332-0.02779 0.02172-0.05625 0.03516-0.08398a0.9088 0.9088 0 0 0 0-2e-3v-2e-3a0.9088 0.9088 0 0 1 0.04883-0.08984c3.31-6.862 10.01-12 17.56-13.28l0.05469-0.01172a0.9088 0.9088 0 0 1 0.0059 0c1.277-0.2266 2.571-0.349 3.869-0.3672a0.9088 0.9088 0 0 1 0.0098-0.00586z" fill="url(#a)"/>
 <path transform="translate(0) scale(1) translate(0) scale(1) translate(1e-6 2e-6) scale(1) translate(-.004776 -.009108) scale(1) matrix(1.136 0 0 1.136 -4.358 -4.358)" d="m31.86 12.78-2e-3 0.0039c0.0014-7.9e-5 0.0025 7.9e-5 0.0039 0-8.11e-4 -0.0015-0.0011-0.0024-2e-3 -0.0039zm2e-3 0.0039c1.946 3.568 3.991 7.081 6.039 10.6h2e-3c0.9571 1.642 1.913 3.285 2.859 4.934 1.026-1.42 1.882-2.954 2.738-4.486 0.5683-1.017 1.136-2.034 1.754-3.02 0.0553-0.1459 0.151-0.2949 0.248-0.4473 0.2236-0.3505 0.4571-0.7164 0.2383-1.092l-2e-3 -2e-3c-3.242-4.185-8.544-6.787-13.88-6.482zm-4.715 0.3535c-0.02254-1.2e-4 -0.04652 0.0015-0.07031 0.0039v2e-3c-5.218 0.7627-10.13 3.99-12.45 8.787 5.628 0.1476 11.27 0.09615 16.9 0.04492l1.068-0.0098c-0.9438-1.708-1.921-3.396-2.898-5.086-0.5462-0.9432-1.093-1.887-1.633-2.834-0.06921-0.08651-0.1325-0.1897-0.1973-0.2969-0.1765-0.2921-0.3635-0.6039-0.7148-0.6113zm21.75 9.06c-1.043 1.802-2.091 3.6-3.141 5.398l-2e-3 2e-3 -2e-3 0.0039v2e-3c-1.961 3.366-3.93 6.731-5.856 10.12l-2e-3 0.0039c2.015 0.341 4.058 0.2348 6.086 0.1289h2e-3l0.1387-0.0078 0.1992-0.01172c0.4499-0.02273 0.9042 0.01167 1.357 0.04492 0.8862 0.06514 1.77 0.1293 2.613-0.2266 2.054-4.966 1.81-11.03-1.394-15.46zm-34.03 3.379-2e-3 2e-3c-0.1011 0.01357-0.2127 0.01333-0.3301 0.01367-0.3353 6.79e-4 -0.699 0.0017-0.8652 0.3203-2.118 4.885-1.622 10.74 1.264 15.21 0.8414-1.094 1.512-2.302 2.182-3.506 0.3824-0.688 0.7639-1.375 1.178-2.041 0.6911-1.257 1.424-2.493 2.156-3.727 1.216-2.052 2.431-4.1 3.457-6.248-1.629-0.01934-3.256-0.01927-4.885-0.01758h-2e-3c-1.384 0.0014-2.767 0.0037-4.152-0.0078zm8.031 10.05v0.0039c-1.018 1.331-1.834 2.799-2.652 4.268-0.5203 0.9329-1.04 1.869-1.611 2.768-0.08007 0.169-0.1904 0.3436-0.3047 0.5254-0.3847 0.6127-0.8046 1.28-0.1856 1.871 3.301 3.956 8.505 6.549 13.72 6.139-1.873-3.41-3.838-6.774-5.805-10.14-1.058-1.808-2.117-3.617-3.16-5.434zm8.621 6.166v2e-3h-0.1387c0.6768 1.464 1.494 2.854 2.31 4.244 0.4682 0.7966 0.9356 1.594 1.377 2.404 0.1486 0.2354 0.2827 0.4837 0.416 0.7324 0.3135 0.5842 0.6273 1.172 1.141 1.6 5.306-0.7233 10.48-3.977 12.7-8.971-5.934-0.03189-11.87-0.0219-17.8-0.01172z" fill="url(#a)"/>
 <path transform="translate(0) scale(1) translate(0) scale(1) translate(1e-6 2e-6) scale(1) translate(-.004776 -.009108) scale(1)" d="m31.99 23.43c-4.709 0-8.559 3.854-8.559 8.574 0 4.708 3.846 8.566 8.559 8.566 4.722 0 8.566-3.857 8.566-8.566 0-4.72-3.843-8.574-8.566-8.574zm0 2c3.642 0 6.566 2.933 6.566 6.574 0 3.627-2.928 6.566-6.566 6.566-3.624 0-6.559-2.944-6.559-6.566 0-3.637 2.937-6.574 6.559-6.574z" fill="url(#b)" stop-color="#000000"/>
 <path transform="translate(0) scale(1) translate(0) scale(1) translate(1e-6 2e-6) scale(1) translate(-.004776 -.009108) scale(1)" d="m31.54 26.23c-0.04622-0.0015-0.09438-1.68e-4 -0.1426 2e-3l2e-3 2e-3c-0.848 0.03723-1.984 0.6231-2.971 1.613h-0.0059c-1.456 1.436-2.029 3.204-1.303 3.91 0.711 0.7297 2.469 0.1483 3.908-1.293 1.436-1.456 2.039-3.201 1.309-3.928-0.1984-0.1945-0.4733-0.2956-0.7969-0.3066z" fill="url(#b)" stroke-width="1.022"/>
</svg>
