<svg xmlns="http://www.w3.org/2000/svg" viewBox="0 0 64 64"><defs><linearGradient id="a" y1="1"><stop offset=".026" stop-color="#b3ffab"/><stop offset=".987" stop-color="#12fff7"/></linearGradient></defs><path fill="url(#a)" d="M17.48 1.002c-2.817.033-7.163.815-8.522 2.434h-.004c-1.033 1.502-1.204 7.177-.975 7.377l.006.002h.01l.006-.002.014-.014c2.307-3.13 7.836-6.997 11.14-8.55 1.783-.843.517-1.273-1.674-1.247zm-2.721 5.107c-1.802.13-4.897 3.04-4.832 3.342 0 .002.005.008.006.01l.002.002.012.008.023.001c1.014-.035 1.755.04 2.607.06v.003q0 .015.012.033c2.229 3.201 3.36 5.37 4.219 8.438.003.01.01.023.015.03.273.256 3.094-2.752 1.188-6.27-.854-1.137-3.569-2.007-4.803-2.222 2.146.092 4.081.323 6.141.963.452.14-.487-4.08-4.59-4.398zm-.92 5.943-.006.002-.006.004-.006.006a.1.1 0 0 0-.01.021c-.987 3.775-1.897 6.048-3.671 8.693-.266.39 4.047.7 5.523-3.143l.002.002c.388-1.75-1.478-5.499-1.81-5.586h-.017zm-1.08 2.412-.017.006c-3.521 1.684-5.844 2.455-9.014 2.803a.1.1 0 0 0-.032.012l-.01.01c-.225.297 2.27 3.474 6.007 2.177h.003c1.601-.84 3.274-4.75 3.092-4.998l-.003-.005-.006-.002-.004-.002z" transform="matrix(3.2 0 0 3.2 -3.204 -3.204)"/><path fill="url(#a)" d="m6.994 4.52-.037.006c-.712.12-3.568 2.088-2.91 5.627l.002.002c.593 1.716 4.229 3.967 4.478 3.805l.008-.008.002-.006a.1.1 0 0 0-.002-.031c-1.136-3.732-1.547-6.146-1.42-9.328.002-.052-.042-.073-.121-.066zm-4.641 5.578c-.375.076-1.156 3.99 2.217 5.994 1.696.691 5.838-.586 5.812-.87l-.004-.009a.1.1 0 0 0-.025-.02c-3.556-1.602-5.64-2.884-7.95-5.077a.06.06 0 0 0-.032-.018z" transform="matrix(3.2 0 0 3.2 -3.204 -3.204)"/></svg>