<svg style="isolation:isolate" version="1.1" viewBox="0 0 64 64" xmlns="http://www.w3.org/2000/svg">
 <linearGradient id="a" transform="translate(-.002361 .005499) scale(.9997) translate(-.68 -.536) scale(1.362)" x2="1" y1=".5" y2=".5" gradientTransform="matrix(47 0 0 46.79 .5 .5)" gradientUnits="userSpaceOnUse">
  <stop stop-color="#5433ff" offset="0"/>
  <stop stop-color="#20bdff" offset=".517"/>
  <stop stop-color="#a5fecb" offset=".983"/>
 </linearGradient>
 <path transform="translate(-.002361 .005499) scale(.9997) translate(-.68 -.536) scale(1.362)" d="m40 16.04 2.159-.136c.59 0 1.068.501 1.068 1.118v1.072c0 .617-.361 1.446-.807 1.85L40 22.138zm-3 8.817-10.58 9.59c-1.337 1.212-3.507 1.212-4.844 0l-10.58-9.59V4.497a1 1 0 0 1 1-1h24a1 1 0 0 1 1 1v20.36zM8 22.138l-2.42-2.194c-.446-.404-.807-1.233-.807-1.85v-1.072c0-.617.478-1.118 1.068-1.118H8zm35.23 6.782a2.137 2.137 0 0 1 4.273 0v13.02a5.343 5.343 0 0 1-5.341 5.341H5.842A5.343 5.343 0 0 1 .501 41.94V28.92a2.137 2.137 0 0 1 4.273 0v10.89a3.205 3.205 0 0 0 3.204 3.204h32.05a3.205 3.205 0 0 0 3.204-3.204V28.92zm-3.227-17.48h5.364c1.179 0 2.136 1.001 2.136 2.235v5.631c0 1.234-.734 2.877-1.639 3.669l-17.76 15.54c-2.261 1.979-5.933 1.979-8.194 0L2.15 22.975C1.245 22.183.511 20.54.511 19.306v-5.631c0-1.234.957-2.235 2.136-2.235h5.364V3.5c0-1.656 1.344-3 3-3h26c1.656 0 3 1.344 3 3v7.94zm-21.23-3.806c-.724 0-1.308.584-1.308 1.309 0 .724.584 1.308 1.308 1.308s1.309-.584 1.309-1.308-.584-1.309-1.309-1.309m8.223 0-2.99 2.99 4.485 4.485-4.485 4.486 2.99 2.99 4.485-4.486 2.99-2.99zm-11.49 7.849a1.96 1.96 0 0 0-1.962 1.962c0 1.088.875 1.963 1.962 1.963s1.962-.875 1.962-1.963a1.96 1.96 0 0 0-1.962-1.962m5.887 7.849a2.61 2.61 0 0 0-2.617 2.616 2.61 2.61 0 0 0 2.617 2.617 2.61 2.61 0 0 0 2.616-2.617 2.61 2.61 0 0 0-2.616-2.616" fill="url(#a)" fill-rule="evenodd"/>
</svg>
