<svg fill="none" version="1.1" viewBox="0 0 64 64" xmlns="http://www.w3.org/2000/svg">
 <defs>
  <linearGradient id="a" x1="3" x2="72.99" y1="61" y2="30.5" gradientUnits="userSpaceOnUse">
   <stop stop-color="#0357D1" offset="0"/>
   <stop stop-color="#27CDFC" offset="1"/>
  </linearGradient>
 </defs>
 <path transform="translate(0 -1e-6) scale(1) translate(.01385 -.01265) scale(.9997) translate(-2.133 -2.133) scale(1.067)" d="m16 7.837c6.338-4.25 14.39-5.824 21.85-4.224-0.4131 0.7698-1.047 1.343-1.682 1.917-0.5446 0.4923-1.091 0.9862-1.502 1.607-5.056-0.5212-10.28 0.4876-14.74 2.959-4.714 2.593-8.538 6.766-10.74 11.69-1.935 4.294-2.585 9.15-1.892 13.81l-0.00118 0.0013c0.2511 1.681 0.6595 3.342 1.265 4.928 0.3951 1.069 0.8572 2.115 1.39 3.124-0.02232 5e-4 -0.04525-4e-4 -0.06867-0.0024 0.02395 0.0021 0.04739 3e-3 0.0702 0.0025 0.06945 0.1229 0.1394 0.2458 0.2092 0.3688 0.7759 1.364 1.559 2.741 1.894 4.295 0.5759 3.043-0.3449 6.16-2.133 8.635l1.1e-4 1e-4 1.024-0.0134c2.799-0.0067 5.598-0.0055 8.397-0.0043 4.282 0.0019 8.564 0.0038 12.85-0.0226 2e-4 -1e-4 4e-4 -1e-4 6e-4 -1e-4 2.705-0.0874 5.39-0.6153 7.942-1.523 0 0 0-1e-4 1e-4 -1e-4 5.749-2.078 10.75-6.241 13.72-11.61 2.387-4.24 3.435-9.224 2.966-14.07l0.0023-0.0026c-0.3351-3.543-1.423-7.013-3.187-10.1 0.658-0.6804 1.202-1.45 1.746-2.22l1e-4 -1e-4v-1e-4h1e-4v-1e-4h1e-4v-2e-4h1e-4v-1e-4h1e-4v-1e-4l2e-4 -2e-4c0.2945-0.4168 0.5891-0.8336 0.9019-1.236 1.604 2.478 2.833 5.192 3.643 8.03 0.0938 0.3599 0.1808 0.7197 0.2646 1.083l-2e-3 0.0023c2.085 8.346 0.0526 17.55-5.301 24.26-4.453 5.713-11.04 9.684-18.15 10.98l-1e-4 1e-4c-2.726 0.5391-5.514 0.5222-8.28 0.5055l-0.1904-0.0011c-3.629 0.0022-7.257 0.0015-10.89 8e-4 -1.814-4e-4 -3.629-8e-4 -5.444-8e-4 -0.7282-0.0096-1.457-0.0038-2.186 2e-3h-0.00222c-1.318 0.0104-2.636 0.0209-3.952-0.0592-1.128-0.3161-1.788-1.702-1.286-2.771 0.4629-0.864 0.9676-1.704 1.472-2.544 0.5538-0.9221 1.107-1.844 1.605-2.796 0.9877-2.038 0.5391-4.482-0.7165-6.295 0.4446-0.5024 0.8246-1.053 1.204-1.604 0.2838-0.4114 0.5675-0.8228 0.8782-1.214 0.1009-0.1425 0.242-0.1708 0.3954-0.158-0.154-0.0131-0.2957 0.0149-0.397 0.1578-0.3107 0.3911-0.5944 0.8025-0.8782 1.214h-3e-5c-0.3799 0.5508-0.7598 1.102-1.204 1.604-1.215-2.142-2.29-4.451-2.799-6.855l-0.0558 0.0561c-1.544-5.589-1.333-11.64 0.5625-17.12 2.026-6.019 6.121-11.3 11.42-14.77zm21.85-4.223c2.354 0.4809 4.644 1.254 6.807 2.297v7e-5c2.377 1.143 4.583 2.623 6.565 4.364-0.9408 0.9584-1.902 1.9-2.893 2.811-1.798-1.56-3.817-2.865-5.98-3.854v-7e-5c-2.427-1.106-5.032-1.822-7.684-2.095 0.4109-0.6205 0.9572-1.114 1.502-1.607 0.6359-0.5748 1.269-1.148 1.682-1.917zm13.37 6.662c1.932 1.722 3.63 3.706 5.063 5.864-0.3127 0.4026-0.6072 0.8194-0.9017 1.236l-3e-4 3e-4v1e-4h-1e-4v1e-4h-1e-4v2e-4h-1e-4v1e-4h-1e-4v1e-4l-2e-4 2e-4v1e-4c-0.544 0.7696-1.088 1.539-1.746 2.22-0.5725-1.002-1.219-1.957-1.912-2.875-0.9843-1.342-2.156-2.535-3.395-3.635 0.9911-0.9112 1.952-1.853 2.893-2.811zm-21.13 6.577c-0.2512-1.21-1.684-1.217-2.592-0.7936-0.7467 0.1649-1.222 1.063-0.9175 1.772 0.432 1.211 0.8907 2.414 1.376 3.605 0.5592 1.17 2.602 0.7734 2.598-0.5481-0.0509-0.9774-0.1846-1.953-0.318-2.927-0.0507-0.3697-0.1013-0.7392-0.1473-1.108zm3.405 1.991c0.0535-0.2542 0.0754-0.5461 0.098-0.8468 0.0696-0.9245 0.1454-1.932 1.161-2.186 0.9744-0.0505 2.411 0.2152 2.608 1.396-0.1852 0.9051-0.5258 1.764-0.8666 2.624-0.1644 0.4147-0.3289 0.8296-0.476 1.25-0.2177 0.908-1.349 1.301-2.116 0.8171-0.7906-0.5166-0.6443-1.411-0.5074-2.249 0.0458-0.2799 0.0905-0.5535 0.0988-0.8045zm-10.12 0.706c-1.242-1.765-4.333 1.036-2.672 2.448 0.432 0.3513 0.8467 0.7241 1.261 1.097l1e-4 1e-4c0.5815 0.5229 1.163 1.046 1.792 1.509 1.038 0.4707 2.206-0.6389 1.902-1.705-0.5032-0.8573-1.085-1.669-1.665-2.479v-1e-4l-2e-4 -2e-4v-1e-4l-1e-4 -1e-4v-1e-4h-1e-4c-0.2072-0.2893-0.4144-0.5785-0.6179-0.8696zm-6.238 5.528c0.7039-0.6019 1.503-0.1587 2.209 0.2333 0.1538 0.0854 0.3033 0.1683 0.4464 0.2375 0.2933 0.1676 0.5957 0.3194 0.898 0.4711 0.4982 0.2501 0.9961 0.5 1.452 0.8202 0.9643 0.8238 0.1741 2.653-1.108 2.387-1.339-0.2656-2.685-0.575-3.981-0.9818-1.259-0.6322-0.6597-2.361 0.0836-3.168zm26.04-3.144c1.396-1.264-0.807-3.534-2.233-2.848-0.6826 0.5994-1.182 1.38-1.681 2.16-0.2794 0.4365-0.5587 0.8727-0.8699 1.277-0.8103 1.049 0.5391 2.7 1.708 2.065 0.7124-0.477 1.34-1.065 1.968-1.652 0.3638-0.3406 0.7279-0.6813 1.109-1.001zm-1.288 4.755c1.172-0.6725 2.374-1.295 3.583-1.897 1.61-0.4237 2.648 2.075 1.721 3.208-0.9875 0.4561-2.065 0.6871-3.135 0.9166h-4e-4v1e-4h-2e-4c-0.421 0.0903-0.8409 0.1803-1.254 0.2838-1.336 0.2287-2.086-1.829-0.9141-2.512zm-25.24 5.266c-1.858 0.3699-1.286 4.059 0.6831 3.595 0.3705-0.0921 0.7435-0.1782 1.117-0.2643 1.016-0.2345 2.034-0.4695 3.012-0.8286 0.7835-0.8003 0.4755-2.394-0.74-2.509-1.359-0.0235-2.716-0.0336-4.072 0.0068zm25.65 2.31c-0.6864-0.7398-0.2411-2.129 0.7969-2.179 0.4142 0 0.8296-0.0076 1.245-0.0151h6e-4c1.055-0.0191 2.112-0.0382 3.157 0.0656 0.981 0.3193 0.924 1.523 0.6763 2.33-0.1205 0.9314-1.202 1.308-1.996 0.9651-0.4439-0.1382-0.9045-0.2355-1.366-0.3328h-1e-4c-0.8743-0.1847-1.75-0.3696-2.515-0.8341zm-20.39 2.942c0.7366-0.4002 1.651 0.0941 1.915 0.844 0.1339 0.5818-0.067 1.194-0.5424 1.557-0.3319 0.2867-0.6562 0.583-0.9804 0.8794h-1e-4c-0.6341 0.5795-1.268 1.159-1.959 1.666-0.7835 0.3429-1.544-0.1816-1.929-0.844-0.8472-0.8071-0.5491-2.253 0.5893-2.589 0.4099-0.2079 0.8157-0.4248 1.221-0.6417 0.5585-0.2985 1.117-0.5969 1.685-0.8715zm19.87-0.0943c-1.095-0.3598-2.146 0.9415-1.654 1.957 1.048 1.1 2.213 2.098 3.398 3.043 1.383 0.5716 2.548-1.204 2.431-2.424-0.226-0.5606-0.7521-0.8267-1.258-1.083-0.1012-0.0512-0.2016-0.1019-0.2986-0.1546-0.3525-0.1736-0.6986-0.3597-1.044-0.5456l-1e-4 -1e-4h-1e-4c-0.518-0.2785-1.036-0.5567-1.574-0.7926zm-15.69 3.702c1.068-0.4573 2.307 0.7533 1.801 1.833-0.1325 0.3483-0.2594 0.7-0.3864 1.052h-1e-4c-0.3353 0.9291-0.6716 1.861-1.114 2.741-0.8303 0.9416-2.129 0.2051-2.88-0.4539-0.7683-0.8559-0.0981-1.766 0.4737-2.542 0.1133-0.1539 0.2229-0.3026 0.3165-0.4445 0.2038-0.2447 0.3766-0.5236 0.5497-0.8029 0.3359-0.542 0.6726-1.086 1.238-1.383zm12.05 0.1851c-0.9409-0.7802-2.531 0.1849-2.213 1.392 0.2158 0.6379 0.456 1.266 0.6962 1.894l1e-4 4e-4c0.2219 0.58 0.4438 1.16 0.6463 1.748 0.8806 1.802 4.098 0.2017 3.345-1.594-0.3621-0.4726-0.6952-0.9672-1.028-1.461-0.4579-0.6801-0.9152-1.359-1.446-1.978zm-7.501 1.95c0.3582-1.17 2.213-1.187 2.612-0.037 0.1712 0.7624 0.2503 1.54 0.3293 2.317 0.0664 0.6521 0.1327 1.304 0.2534 1.947-0.3081 1.712-3.429 1.742-3.703 0.0067 0.1205-1.416 0.2779-2.835 0.509-4.234z" clip-rule="evenodd" fill="url(#a)" fill-rule="evenodd"/>
 <path transform="translate(0 -1e-6) scale(1) translate(.01385 -.01265) scale(.9997) translate(-2.133 -2.133) scale(1.067)" d="m37.85 3.614 0.8812 0.4728 0.6285-1.171-1.3-0.279-0.2098 0.9777zm-21.85 4.224 0.5481 0.8365 0.0089-0.00598-0.557-0.8305zm20.16-2.306-0.6706-0.7418 0.6706 0.7418zm-1.502 1.607-0.1025 0.9947 0.6021 0.06207 0.3342-0.5047-0.8338-0.5521zm-14.74 2.959 0.4819 0.8762 0.0031-0.0017-0.485-0.8745zm-10.74 11.69 0.9117 0.4109 0.0011-0.0024-0.9128-0.4085zm-1.892 13.81 0.7367 0.6762 0.3226-0.3515-0.07017-0.4718-0.9891 0.1471zm-0.00118 0.0013-0.7367-0.6762-0.3228 0.3518 0.07055 0.4722 0.989-0.1478zm1.265 4.928 0.9381-0.3466-0.00386-0.0101-0.9342 0.3567zm1.39 3.124 0.02102 0.9998 1.619-0.034-0.756-1.432-0.8844 0.4667zm-0.06867-0.0024 0.08406-0.9965-0.1699 1.993 0.08584-0.9963zm0.0702 0.0025 0.8704-0.4921-0.2941-0.5202-0.5974 0.0126 0.02108 0.9997zm0.2092 0.3688 0.8693-0.4944-0.8693 0.4944zm1.894 4.295 0.9825-0.186-0.0023-0.0123-0.0026-0.0123-0.9776 0.2106zm-2.133 8.635-0.8106-0.5856-0.7642 1.058 1.22 0.4628 0.3547-0.935zm1.1e-4 1e-4 -0.3547 0.935 0.1777 0.0674 0.19-0.0025-0.01309-0.9999zm1.024-0.0134-0.0024-1-0.0107 1e-4 0.0131 1zm8.397-0.0043-4e-4 1 4e-4 -1zm12.85-0.0226 0.0062 0.9999 0.0719-4e-4 0.0711-0.0107-0.1492-0.9888zm6e-4 -1e-4 -0.0323-0.9995-0.0588 0.0019-0.0582 0.0088 0.1493 0.9888zm7.942-1.523 0.3353 0.9422 0.394-0.1403 0.1769-0.379-0.9062-0.4229zm1e-4 -1e-4 -0.34-0.9405-0.3906 0.1412-0.1756 0.3764 0.9062 0.4229zm13.72-11.61-0.8714-0.4906-0.0036 0.0064 0.875 0.4842zm2.966-14.07-0.7488-0.6627-0.2884 0.3258 0.0419 0.4332 0.9953-0.0963zm0.0023-0.0026 0.7489 0.6627 0.2875-0.3249-0.0408-0.4319-0.9956 0.0941zm-3.187-10.1-0.7188-0.6951-0.5219 0.5396 0.3726 0.6518 0.8681-0.4963zm1.746-2.22-0.8-0.6-0.0085 0.0113-0.0082 0.0116 0.8167 0.5771zm0 0-0.7954-0.6061-0.0046 0.0061 0.8 0.6zm7e-4 -9e-4 0.7954 0.6061 0.0109-0.0143 0.0103-0.0146-0.8166-0.5772zm0.9019-1.236 0.8395-0.5433-0.7652-1.182-0.8641 1.112 0.7898 0.6134zm3.643 8.03 0.9678-0.252-3e-3 -0.0113-0.0032-0.0112-0.9616 0.2745zm0.2646 1.083 0.7588 0.6513 0.3292-0.3836-0.1136-0.4925-0.9744 0.2248zm-2e-3 0.0023-0.7588-0.6513-0.3367 0.3922 0.1253 0.5015 0.9702-0.2424zm-5.301 24.26-0.7817-0.6238-7e-3 9e-3 0.7887 0.6148zm-18.15 10.98-0.1788-0.9839-0.492 0.0894-0.2236 0.4473 0.8944 0.4472zm-1e-4 1e-4 0.194 0.981 0.4811-0.0952 0.2194-0.4386-0.8945-0.4472zm-8.28 0.5055 6e-3 -1-6e-3 1zm-0.1904-0.0011 0.0061-1-0.5185-0.0031-0.3013 0.4218 0.8137 0.5813zm0 0 6e-4 1 0.5142-3e-4 0.2989-0.4184-0.8137-0.5813zm-10.89 8e-4 2e-4 -1-2e-4 1zm-5.444-8e-4 -0.8616-0.5076-0.8884 1.508h1.75v-1zm0 0 0.8615 0.5077 0.8751-1.485-1.723-0.0227-0.0132 0.9999zm-2.186 2e-3v1l0.00794-1e-4 -0.00794-0.9999zm-0.00222 0v-1l-0.00793 1e-4 0.00793 1zm-3.952-0.0592-0.2697 0.9629 0.1026 0.0288 0.1064 0.0064 0.06071-0.9981zm-1.286-2.771-0.8815-0.4722-0.01245 0.0232-0.01121 0.0239 0.9051 0.4251zm1.472-2.544 0.8572 0.5149-0.8572-0.5149zm1.605-2.796 0.8862 0.4633 0.00702-0.0135 0.00661-0.0136-0.8999-0.4362zm-0.7165-6.295-0.7488-0.6628-0.5199 0.5874 0.4467 0.6448 0.822-0.5694zm1.204-1.604-0.8232-0.5677 0.8232 0.5677zm0.8782-1.214 0.783 0.6219 0.01712-0.0215 0.0159-0.0224-0.816-0.578zm0.3954-0.158-0.08283 0.9966 0.1674-1.993-0.08452 0.9964zm-0.397 0.1578 0.783 0.622 0.01711-0.0215 0.0159-0.0225-0.816-0.578zm-0.8782 1.214 0.812 0.5836 0.00566-0.0079 0.00552-8e-3 -0.8232-0.5677zm-3e-5 0-0.812-0.5836-0.00566 0.0079-0.00552 0.0079 0.8232 0.5678zm-1.204 1.604-0.8697 0.4936 0.6908 1.217 0.9278-1.048-0.7488-0.6628zm-2.799-6.855 0.9783-0.2071-0.3831-1.809-1.304 1.311 0.7089 0.7053zm-0.0558 0.0561-0.9639 0.2662 0.4584 1.66 1.214-1.221-0.7089-0.7053zm0.5625-17.12 0.9451 0.3268 0.00263-0.0078-0.9478-0.319zm40.07-16.7 0.766 0.6429 0.827-0.9853-1.159-0.5585-0.4342 0.9008zm-6.807-2.297 0.2002-0.9798-0.7294-0.149-0.352 0.656 0.8812 0.4728zm6.807 2.297-0.766-0.6429-0.8276 0.9861 1.16 0.558 0.4334-0.9012zm6.565 4.364 0.7136 0.7006 0.7404-0.7542-0.7939-0.6976-0.6601 0.7512zm-2.893 2.811-0.6554 0.7553 0.6747 0.5854 0.6576-0.6046-0.6769-0.7361zm-5.98-3.854-0.8683-0.4961-0.5431 0.9506 0.9957 0.4551 0.4157-0.9095zm0-7e-5 0.8682 0.4961 0.5438-0.9516-0.9973-0.4545-0.4147 0.91zm-7.684-2.095-0.8338-0.5521-0.9125 1.378 1.644 0.1689 0.1022-0.9948zm1.502-1.607 0.6706 0.7418-0.6706-0.7418zm20.12 10.61 0.7898 0.6134 0.4409-0.5676-0.3976-0.5989-0.8331 0.5531zm-5.063-5.864 0.6653-0.7466-0.7113-0.634-0.6676 0.68 0.7136 0.7006zm4.161 7.1 0.7954 0.606 0.0109-0.0142 0.0103-0.0147-0.8166-0.5771zm-9e-4 0.0011-0.7954-0.6061-0.0046 0.0061 0.8 0.6zm0 1e-4 -0.8-0.6-0.0085 0.0113-0.0082 0.0115 0.8167 0.5772zm-1.746 2.22-0.8683 0.496 0.661 1.157 0.9262-0.9578-0.7189-0.6951zm-1.912-2.875-0.8064 0.5916 0.0083 0.011 0.7981-0.6026zm-3.395-3.635-0.6768-0.7361-0.8149 0.7493 0.8279 0.7348 0.6638-0.748zm-20.83 2.972 0.2156 0.9765 0.1076-0.0237 0.0999-0.0467-0.4231-0.9061zm2.592 0.7936 0.9923-0.1237-5e-3 -0.04-0.0082-0.0394-0.9791 0.2031zm-3.509 0.9786 0.9419-0.336-0.0106-0.0296-0.0124-0.029-0.9189 0.3946zm1.376 3.605-0.9259 0.3777 0.011 0.0271 0.0126 0.0264 0.9023-0.4312zm2.598-0.5481 1-0.0026v-0.0247l-0.0013-0.0248-0.9987 0.0521zm-0.318-2.927 0.9907-0.1357-0.9907 0.1357zm3.356 0.0354 0.9972 0.075-0.9972-0.075zm-0.098 0.8468-0.9786-0.2057-0.0179 0.0853-0.0029 0.087 0.9994 0.0334zm1.259-3.033-0.0517-0.9986-0.0967 5e-3 -0.094 0.0234 0.2424 0.9702zm2.608 1.396 0.9797 0.2005 0.0373-0.1822-0.0307-0.1834-0.9863 0.1651zm-0.8666 2.624 0.9296 0.3685-0.9296-0.3685zm-0.476 1.25-0.9439-0.3304-0.0167 0.0479-0.0119 0.0494 0.9725 0.2331zm-2.116 0.8171-0.5471 0.8371 0.0065 0.0043 0.0067 0.0042 0.5339-0.8456zm-0.5074-2.249-0.9869-0.1613 0.9869 0.1613zm-12.69 2.35-0.6479 0.7617 0.0084 0.0072 0.0086 7e-3 0.6309-0.7759zm2.672-2.448 0.8196-0.5729-0.0017-0.0025-0.8179 0.5754zm-1.411 3.545 0.7071-0.7071-0.0187-0.0188-0.0198-0.0177-0.6686 0.7436zm0 0-0.7071 0.7071 0.0252 0.0252 0.027 0.0234 0.6549-0.7557zm1e-4 1e-4 0.6687-0.7436-0.0069-0.0061-0.0069-6e-3 -0.6549 0.7557zm1.792 1.509-0.5928 0.8054 0.0844 0.0621 0.0954 0.0433 0.413-0.9108zm1.902-1.705 0.9615-0.2749-0.0349-0.122-0.0642-0.1094-0.8624 0.5063zm-1.665-2.479-0.848 0.53 0.0168 0.0268 0.0183 0.0256 0.8129-0.5824zm-4e-4 -6e-4 0.848-0.53-0.0167-0.0268-0.0184-0.0256-0.8129 0.5824zm-4.647 4.892 0.4853-0.8743-0.4853 0.8743zm-2.209-0.2333-0.6499-0.76-0.0453 0.0387-0.0403 0.0439 0.7355 0.6774zm2.655 0.4708 0.496-0.8683-0.0299-0.017-0.0309-0.015-0.4352 0.9003zm0.898 0.4711-0.4486 0.8937 0.0014 7e-4 0.4472-0.8944zm0 0 0.4486-0.8937-0.0014-7e-4 -0.4472 0.8944zm1.452 0.8202 0.6496-0.7603-0.0362-0.0309-0.039-0.0274-0.5744 0.8186zm-1.108 2.387 0.2029-0.9792-0.0083-0.0017-0.1946 0.9809zm-3.981-0.9818-0.4488 0.8936 0.0722 0.0363 0.077 0.0242 0.2996-0.9541zm23.89-9.16-0.4334-0.9012-0.1235 0.0594-0.1029 0.0904 0.6598 0.7514zm2.233 2.848 0.6427 0.7661 0.0145-0.0122 0.014-0.0126-0.6712-0.7413zm-3.915-0.6885-0.8423-0.5391 0.8423 0.5391zm-0.8699 1.277 0.7914 0.6112 1e-3 -0.0012-0.7924-0.61zm1.708 2.065 0.4778 0.8785 0.0404-0.022 0.0382-0.0256-0.5564-0.8309zm1.968-1.652-0.6834-0.7301 0.6834 0.7301zm3.404 1.858-0.2544-0.9671-0.0994 0.0262-0.092 0.0458 0.4458 0.8951zm-3.583 1.897-0.4977-0.8673-0.0056 0.0032 0.5033 0.8641zm5.304 1.311 0.4192 0.9079 0.2089-0.0965 0.1457-0.178-0.7738-0.6334zm-3.135 0.9166 0.2016 0.9795 8e-3 -0.0018-0.2096-0.9777zm-2e-4 0 0.1644 0.9864 0.0187-0.0031 0.0185-0.0038-0.2016-0.9795zm-4e-4 1e-4 -0.1644-0.9864-0.0227 0.0038-0.0225 0.0048 0.2096 0.9778zm-1.254 0.2838 0.1688 0.9856 0.0374-0.0064 0.0368-0.0092-0.243-0.97zm-25.47 6.349 0.2294 0.9734 0.0119-0.0029-0.2413-0.9705zm-0.6831-3.595-0.0298-0.9995-0.0835 0.0024-0.0819 0.0164 0.1952 0.9807zm1.8 3.33 0.2248 0.9744-0.2248-0.9744zm3.012-0.8286 0.3449 0.9386 0.2118-0.0778 0.1578-0.1613-0.7145-0.6995zm-0.74-2.509 0.0936-0.9956-0.0381-0.0036-0.0382-6e-4 -0.0173 0.9998zm22.37 0.1382v-1h-0.0243l-0.0243 0.0011 0.0486 0.9989zm-0.7969 2.179-0.7331 0.6801 0.0949 0.1023 0.1193 0.0724 0.5189-0.8548zm2.042-2.194v-1h-9e-3l-0.0091 2e-4 0.0181 0.9998zm6e-4 0v1h9e-3l0.0091-1e-4 -0.0181-0.9999zm3.157 0.0656 0.3096-0.9509-0.103-0.0335-0.1078-0.0107-0.0988 0.9951zm0.6763 2.33-0.9559-0.2934-0.0249 0.081-0.0109 0.084 0.9917 0.1284zm-1.996 0.9651 0.3968-0.918-0.0488-0.021-0.0508-0.0158-0.2972 0.9548zm-1.366-0.3328 0.2066-0.9785-0.0105-0.0021-0.1961 0.9806zm-1e-4 0-0.2066 0.9784 0.0105 0.0021 0.1961-0.9805zm-20.99 2.952 0.9745-0.2243-0.0126-0.0551-0.0189-0.0534-0.943 0.3328zm-1.915-0.844 0.4351 0.9004 0.0214-0.0104 0.0209-0.0113-0.4774-0.8787zm1.373 2.401-0.6071-0.7946-0.0239 0.0182-0.0227 0.0196 0.6537 0.7568zm-0.9804 0.8794-0.6747-0.7382-0.0036 0.0034 0.6783 0.7348zm-1e-4 0 0.6746 0.7382 0.0037-0.0034-0.6783-0.7348zm-1.959 1.666 0.401 0.916 0.1014-0.0444 0.0893-0.0655-0.5917-0.8061zm-1.929-0.844 0.8645-0.5026-0.0716-0.1232-0.1031-0.0983-0.6898 0.7241zm0.5893-2.589 0.2833 0.959 0.0876-0.0258 0.0815-0.0414-0.4524-0.8918zm1.221-0.6417 0.4714 0.882-0.4714-0.882zm19.9 0.9912-0.8998 0.4362 0.0681 0.1406 0.1078 0.1131 0.7239-0.6899zm1.654-1.957 0.4015-0.9159-0.0438-0.0192-0.0455-0.0149-0.3122 0.95zm1.744 5-0.6234 0.7819 0.1106 0.0882 0.1308 0.0541 0.382-0.9242zm2.431-2.424 0.9954-0.0956-0.0138-0.1441-0.0542-0.1343-0.9274 0.374zm-1.258-1.083 0.4514-0.8923-0.4514 0.8923zm-0.2986-0.1546 0.4769-0.8789-0.0173-0.0095-0.0178-0.0087-0.4418 0.8971zm-1.044-0.5456 0.4735-0.8808-0.0131-7e-3 -0.0132-0.0066-0.4472 0.8944zm-1e-4 -1e-4 -0.5145 0.8575 0.0329 0.0198 0.0344 0.0172 0.4472-0.8945zm-1e-4 0 0.5145-0.8575-0.0202-0.0121-0.0208-0.0112-0.4735 0.8808zm-15.46 4.742-0.9056-0.4241-0.0158 0.0338-0.0133 0.0348 0.9347 0.3555zm-1.801-1.833-0.3936-0.9192-0.0365 0.0156-0.0352 0.0185 0.4653 0.8851zm1.415 2.885-0.9406-0.3396-0.0094 0.0259-0.0079 0.0263 0.9579 0.2874zm-1e-4 0 0.9406 0.3395 0.0094-0.0258 0.0079-0.0263-0.9579-0.2874zm-1.114 2.741 0.75 0.6615 0.0856-0.0971 0.0581-0.1157-0.8937-0.4487zm-2.88-0.4539-0.7441 0.668 0.0396 0.0441 0.0445 0.0391 0.66-0.7512zm0.4737-2.542-0.8051-0.5932 0.8051 0.5932zm0.3165-0.4445-0.7684-0.6399-0.0356 0.0427-0.0307 0.0464 0.8347 0.5508zm0.5497-0.8029 0.85 0.5268v-1e-4l-0.85-0.5267zm11.07 0.1943-0.967 0.2548 0.0088 0.0332 0.0109 0.0324 0.9473-0.3204zm2.213-1.392 0.7589-0.6512-0.0553-0.0644-0.0653-0.0542-0.6383 0.7698zm-1.517 3.286 0.9486-0.3163-0.0069-0.0207-0.0078-0.0203-0.9339 0.3573zm0 0-0.9487 0.3163 0.0064 0.0193 0.0073 0.0191 0.935-0.3547zm1e-4 4e-4 -0.935 0.3546 1e-3 0.0026 0.934-0.3572zm0.6463 1.748-0.9454 0.3258 0.02 0.058 0.0269 0.0551 0.8985-0.4389zm3.345-1.594 0.9221-0.3868-0.0499-0.119-0.0784-0.1023-0.7938 0.6081zm-1.028-1.461-0.832 0.5547 0.0025 0.0038 0.8295-0.5585zm0 0 0.832-0.5547-0.0025-0.0038-0.8295 0.5585zm-6.336-0.0653 0.9758-0.219-0.0124-0.055-0.0185-0.0533-0.9449 0.3273zm-2.612 0.037-0.9562-0.2927-0.0196 0.0638-0.0109 0.0659 0.9867 0.163zm2.941 2.28 0.9949-0.1012-0.9949 0.1012zm0.2534 1.947 0.9842 0.1772 0.0325-0.181-0.0339-0.1807-0.9828 0.1845zm-3.703 0.0067-0.9964-0.0848-0.0104 0.1211 0.019 0.12 0.9878-0.1563zm7.935-44.55c-7.724-1.658-16.05-0.02915-22.61 4.371l1.114 1.661c6.115-4.101 13.89-5.62 21.08-4.076l0.4197-1.955zm-1.222 3.637c0.6148-0.5557 1.385-1.239 1.893-2.186l-1.762-0.9456c-0.3178 0.5923-0.8149 1.054-1.472 1.648l1.341 1.484zm-1.339 1.417c0.3298-0.4981 0.7786-0.9107 1.339-1.417l-1.341-1.484c-0.5291 0.4783-1.173 1.053-1.665 1.796l1.668 1.104zm-15.08 3.282c4.271-2.369 9.288-3.34 14.15-2.839l0.2051-1.989c-5.252-0.5414-10.68 0.5048-15.32 3.079l0.97 1.749zm-10.31 11.22c2.115-4.726 5.789-8.734 10.31-11.22l-0.9637-1.752c-4.907 2.699-8.881 7.037-11.17 12.16l1.826 0.817zm-1.815 13.25c-0.6654-4.475-0.04075-9.136 1.814-13.25l-1.823-0.8218c-2.016 4.472-2.69 9.522-1.969 14.37l1.978-0.2942zm-0.2536 0.8246 0.00117-0.0013-1.473-1.352-0.00118 0.0013 1.473 1.352zm1.463 3.895c-0.5765-1.51-0.9685-3.099-1.211-4.719l-1.978 0.2956c0.2602 1.742 0.6849 3.474 1.32 5.137l1.868-0.7134zm1.34 3.014c-0.5107-0.9679-0.9552-1.973-1.336-3.004l-1.876 0.6931c0.4095 1.108 0.8892 2.194 1.443 3.244l1.769-0.9334zm-1.037 1.461c0.0521 0.0044 0.1106 7e-3 0.1738 0.0057l-0.04204-2c0.01852-4e-4 0.03116 5e-4 0.03641 9e-4l-0.1681 1.993zm0.1332-1.994c0.01902-4e-4 0.03183 5e-4 0.03671 9e-4l-0.1717 1.993c0.0528 0.0046 0.1125 0.0074 0.1771 6e-3l-0.04215-2zm1.1 0.8741c-0.07-0.1231-0.1393-0.2449-0.2081-0.3665l-1.741 0.9843c0.07021 0.1242 0.1407 0.2482 0.2105 0.3709l1.739-0.9887zm2.002 4.579c-0.3725-1.73-1.239-3.238-2.002-4.579l-1.739 0.9887c0.7889 1.387 1.488 2.632 1.785 4.012l1.955-0.4211zm-2.3 9.432c1.918-2.655 2.941-6.046 2.305-9.407l-1.965 0.3719c0.5158 2.726-0.3029 5.569-1.961 7.864l1.621 1.171zm-0.4558-1.52-1e-4 -1e-4 -0.7093 1.87 1.1e-4 1e-4 0.7093-1.87zm0.6561-0.0784-1.024 0.0135 0.02618 2 1.024-0.0134-0.0262-2zm8.411-0.0043c-2.799-0.0012-5.599-0.0024-8.4 0.0043l0.0048 2c2.797-0.0067 5.595-0.0055 8.394-0.0043l9e-4 -2zm12.84-0.0226c-4.278 0.0264-8.557 0.0245-12.84 0.0226l-9e-4 2c4.282 0.0019 8.567 0.0038 12.85-0.0227l-0.0124-2zm0.1554 1.989 6e-4 -1e-4 -0.2985-1.978-6e-4 1e-4 0.2985 1.978zm-0.1163 0.0106c2.813-0.0909 5.6-0.6396 8.245-1.58l-0.6706-1.884c-2.458 0.8749-5.041 1.382-7.639 1.466l0.0646 1.999zm7.003-2.946c0.0055-0.0119 0.0103-0.0215 0.0133-0.0273 0.0015-3e-3 0.0027-0.0054 0.0034-0.0069 7e-4 -0.0013 0.0013-0.0025 0.0012-0.0023v1e-4l-1e-4 1e-4c0 1e-4 -1e-4 2e-4 -2e-4 4e-4 -2e-4 4e-4 -5e-4 1e-3 -9e-4 0.0017-7e-4 0.0015-2e-3 0.0039-0.0035 0.0069-3e-3 0.0059-0.0077 0.0155-0.0133 0.0275l1.812 0.8457c-0.0056 0.0119-0.0103 0.0215-0.0133 0.0274-0.0015 0.0029-0.0027 0.0054-0.0035 0.0068-7e-4 0.0013-0.0013 0.0025-0.0011 0.0023v-2e-4c1e-4 -1e-4 2e-4 -2e-4 3e-4 -4e-4 1e-4 -4e-4 5e-4 -1e-3 8e-4 -0.0017 8e-4 -0.0015 2e-3 -0.0039 0.0035-0.0069 3e-3 -0.0059 0.0078-0.0155 0.0134-0.0274l-1.812-0.8458zm13.76-11.68c-2.852 5.154-7.66 9.16-13.19 11.16l0.6799 1.881c5.969-2.158 11.16-6.478 14.26-12.07l-1.75-0.9683zm2.846-13.49c0.4492 4.646-0.5561 9.425-2.843 13.49l1.743 0.9812c2.488-4.419 3.579-9.608 3.09-14.66l-1.991 0.1925zm0.2488-0.7616-0.0023 0.0026 1.498 1.325 0.0023-0.0026-1.498-1.325zm-3.307-8.94c1.692 2.961 2.738 6.293 3.06 9.697l1.991-0.1883c-0.3483-3.683-1.479-7.29-3.315-10.5l-1.736 0.9925zm1.797-3.293c-0.5513 0.7801-1.052 1.486-1.648 2.102l1.438 1.39c0.7202-0.7448 1.307-1.578 1.844-2.338l-1.633-1.154zm0.0167-0.0229 1.6 1.2-1.6-1.2zm0.0046-0.0061 1.591 1.212v-1e-4l-1.591-1.212zm1e-4 -1e-4 -1e-4 1e-4 1.591 1.212-1.591-1.212zm0-1e-4v1e-4l1.591 1.212 1e-4 -1e-4 -1.591-1.212zm1e-4 0h-1e-4l1.591 1.212-1.591-1.212zm0-1e-4v1e-4l1.591 1.212 1e-4 -1e-4 -1.591-1.212zm1e-4 0h-1e-4l1.591 1.212v-1e-4l-1.591-1.212zm0-1e-4v1e-4l1.591 1.212h1e-4l-1.591-1.212zm1e-4 -1e-4 -1e-4 1e-4 1.591 1.212v-1e-4l-1.591-1.212zm0 0 1.591 1.212h1e-4l-1.591-1.212zm1e-4 -1e-4 -1e-4 1e-4 1.591 1.212v-1e-4l-1.591-1.212zm0 0 1.591 1.212 1e-4 -1e-4 -1.591-1.212zm0-1e-4v1e-4l1.591 1.212-1.591-1.212zm1e-4 -1e-4 -1e-4 1e-4 1.591 1.212 1e-4 -1e-4 -1.591-1.212zm0 0 1.591 1.212-1.591-1.212zm0.9076-1.244c-0.3289 0.4235-0.6364 0.8589-0.9288 1.273l1.633 1.154c0.2968-0.4199 0.5784-0.8182 0.8751-1.2l-1.58-1.227zm5.394 8.369c-0.8373-2.933-2.107-5.737-3.765-8.299l-1.679 1.087c1.55 2.395 2.738 5.018 3.521 7.761l1.923-0.5491zm0.2774 1.133c-0.0854-0.37-0.1746-0.7391-0.2712-1.11l-1.936 0.504c0.0908 0.3488 0.1757 0.6992 0.2578 1.056l1.949-0.4495zm-0.2176 0.8784 2e-3 -0.0023-1.518-1.303-0.0019 0.0023 1.518 1.303zm-5.278 24.23c5.546-6.95 7.65-16.47 5.489-25.12l-1.94 0.4848c2.009 8.041 0.0481 16.92-5.112 23.39l1.563 1.248zm-18.75 11.34c7.349-1.335 14.15-5.437 18.76-11.34l-1.577-1.23c-4.302 5.519-10.67 9.359-17.54 10.61l0.3575 1.968zm-1.073-1.431c-0.0099 0.0196-0.0172 0.036-0.0218 0.0464-0.0023 0.0052-0.0041 0.0095-0.0052 0.0121-6e-4 0.0013-1e-3 0.0024-0.0013 0.0031-1e-4 3e-4 -2e-4 6e-4 -3e-4 7e-4 0 1e-4 -1e-4 2e-4 -1e-4 2e-4v1e-4c-2e-4 3e-4 7e-4 -0.0017 0.0017-0.0041 0.0011-0.0026 0.0029-0.0068 0.0052-0.0121 0.0046-0.0104 0.0119-0.0267 0.0217-0.0464l1.789 0.8945c0.0098-0.0197 0.0172-0.036 0.0217-0.0464 0.0023-0.0053 0.0041-0.0096 0.0052-0.0122 6e-4 -0.0013 1e-3 -0.0024 0.0013-3e-3 2e-4 -4e-4 3e-4 -6e-4 3e-4 -8e-4 1e-4 -1e-4 1e-4 -2e-4 1e-4 -2e-4v-1e-4c2e-4 -3e-4 -7e-4 0.0017-0.0017 0.0041-0.0011 0.0026-0.0029 0.0069-0.0052 0.0121-0.0045 0.0104-0.0119 0.0268-0.0217 0.0464l-1.789-0.8944zm0.7004-0.5338c-2.611 0.5163-5.296 0.5035-8.081 0.4866l-0.0121 2c2.749 0.0166 5.639 0.0374 8.481-0.5245l-0.3879-1.962zm-8.081 0.4866-0.1903-0.0011-0.0121 2 0.1903 0.0012 0.0121-2zm0.6173 1.58c0.0108-0.0151 0.0191-0.0276 0.0238-0.0348 0.0024-0.0037 0.0043-0.0068 0.0055-0.0086 6e-4 -9e-4 0.0011-0.0017 0.0014-0.0021 1e-4 -3e-4 2e-4 -5e-4 3e-4 -6e-4l1e-4 -1e-4c2e-4 -3e-4 -7e-4 0.0011-0.0018 0.0028-0.0011 0.0018-0.0031 0.0048-0.0055 0.0086-0.0047 0.0072-0.0129 0.0196-0.0237 0.0347l-1.628-1.162c-0.0108 0.0151-0.0191 0.0276-0.0238 0.0348-0.0024 0.0037-0.0043 0.0068-0.0055 0.0086-6e-4 9e-4 -0.0011 0.0017-0.0014 0.0021-1e-4 3e-4 -2e-4 5e-4 -3e-4 6e-4l-1e-4 1e-4c-2e-4 3e-4 7e-4 -0.0011 0.0018-0.0028 0.0011-0.0018 0.0031-0.0048 0.0055-0.0086 0.0047-0.0071 0.0129-0.0196 0.0237-0.0347l1.628 1.162zm-11.7 0.4195c3.628 7e-4 7.256 0.0014 10.89-8e-4l-0.0012-2c-3.629 0.0022-7.256 0.0015-10.88 8e-4l-4e-4 2zm-5.444-8e-4c1.815 0 3.629 4e-4 5.444 8e-4l4e-4 -2c-1.814-4e-4 -3.629-8e-4 -5.444-8e-4v2zm-0.8615-1.508-1e-4 1e-4 1.723 1.015-1.723-1.015zm-1.316 1.51c0.7305-0.0058 1.449-0.0114 2.164-2e-3l0.0264-2c-0.7405-0.0098-1.48-0.0039-2.207 0.0019l0.01587 2zm-0.00808 1e-4h1.4e-4v-2h-1.4e-4v2zm-1.4e-4 0h1.4e-4v-2h-1.4e-4v2zm-1.3e-4 0h1.3e-4v-2h-1.3e-4v2zm-1.4e-4 0h1.4e-4v-2h-1.4e-4v2zm-1.4e-4 0h1.4e-4v-2h-1.4e-4v2zm-1.4e-4 0h1.4e-4v-2h-1.4e-4v2zm-1.4e-4 0h1.4e-4v-2h-1.4e-4v2zm-1.4e-4 0h1.4e-4v-2h-1.4e-4v2zm-1.4e-4 0h1.4e-4v-2h-1.4e-4v2zm-1.4e-4 0h1.4e-4v-2h-1.4e-4v2zm-1.3e-4 0h1.3e-4v-2h-1.3e-4v2zm-1.4e-4 0h1.4e-4v-2h-1.4e-4v2zm-1.4e-4 0h1.4e-4v-2h-1.4e-4v2zm-1.4e-4 0h1.4e-4v-2h-1.4e-4v2zm-1.4e-4 0h1.4e-4v-2h-1.4e-4v2zm-1.4e-4 0h1.4e-4v-2h-1.4e-4v2zm-4.013-0.0611c1.357 0.0826 2.709 0.0714 4.021 0.061l-0.01586-2c-1.323 0.0105-2.607 0.0203-3.884-0.0574l-0.1214 1.996zm-2.13-4.194c-0.7725 1.645 0.2143 3.681 1.921 4.159l0.5395-1.926c-0.5499-0.154-0.8823-0.8888-0.6503-1.383l-1.81-0.8502zm1.52-2.634c-0.5024 0.8364-1.02 1.698-1.496 2.587l1.763 0.9444c0.4494-0.8388 0.9413-1.658 1.448-2.502l-1.715-1.03zm1.576-2.744c-0.4816 0.9213-1.02 1.818-1.576 2.744l1.715 1.03c0.5513-0.9178 1.12-1.865 1.634-2.847l-1.772-0.9265zm-0.6523-5.262c1.101 1.589 1.434 3.65 0.6387 5.289l1.8 0.8724c1.181-2.436 0.6158-5.265-0.7944-7.301l-1.644 1.139zm1.203-2.741c-0.3856 0.559-0.7321 1.059-1.13 1.509l1.498 1.326c0.4914-0.5552 0.9047-1.156 1.279-1.699l-1.646-1.136zm0.9184-1.268c-0.3352 0.4219-0.6378 0.8614-0.9184 1.268l1.646 1.136c0.287-0.4161 0.5518-0.7995 0.838-1.16l-1.566-1.244zm1.261-0.5326c-0.337-0.028-0.9069 0.0296-1.294 0.5766l1.632 1.156c-0.06858 0.0968-0.1778 0.1835-0.3101 0.2295-0.1124 0.039-0.1922 0.0312-0.1934 0.0311l0.1656-1.993zm0.3363 1.732c-0.06889 0.0973-0.1786 0.1842-0.3112 0.2299-0.1125 0.0388-0.192 0.0307-0.1924 0.0307l0.169-1.993c-0.3362-0.0286-0.9086 0.0272-1.298 0.5762l1.632 1.156zm-0.871 1.204c0.287-0.4161 0.5518-0.7994 0.838-1.16l-1.566-1.244c-0.3352 0.422-0.6378 0.8614-0.9183 1.268l1.646 1.136zm-0.01122 0.0159h4e-5l-1.624-1.167-4e-5 1e-4 1.624 1.167zm-1.268 1.683c0.4914-0.5551 0.9046-1.156 1.279-1.699l-1.646-1.136c-0.3856 0.5591-0.7321 1.059-1.13 1.509l1.498 1.326zm-4.526-7.311c0.5395 2.548 1.67 4.96 2.907 7.142l1.739-0.9871c-1.192-2.102-2.212-4.309-2.69-6.569l-1.957 0.4143zm1.631 0.5542 0.0558-0.0561-1.418-1.411-0.0558 0.0561 1.418 1.411zm-1.092-18.15c-1.96 5.67-2.179 11.93-0.5813 17.72l1.928-0.5324c-1.489-5.392-1.286-11.24 0.5437-16.53l-1.89-0.6536zm11.81-15.28c-5.483 3.593-9.72 9.054-11.82 15.29l1.896 0.638c1.954-5.806 5.907-10.9 11.02-14.25l-1.096-1.673zm29.64-1.991c-2.237-1.078-4.606-1.878-7.041-2.376l-0.4003 1.96c2.273 0.4643 4.484 1.211 6.573 2.218l0.8683-1.802zm0.3317 1.544 1e-4 -7e-5 -1.532-1.286-1e-4 7e-5 1.532 1.286zm6.46 2.97c-2.047-1.799-4.329-3.33-6.792-4.514l-0.8668 1.802c2.291 1.102 4.422 2.53 6.339 4.214l1.32-1.502zm-2.876 4.298c1.006-0.9254 1.98-1.879 2.93-2.847l-1.427-1.401c-0.9319 0.9493-1.88 1.878-2.856 2.776l1.354 1.472zm-7.072-3.68c2.075 0.9484 4.013 2.201 5.74 3.7l1.311-1.511c-1.869-1.622-3.968-2.979-6.22-4.008l-0.8314 1.819zm-0.4525-1.406-1e-4 7e-5 1.736 0.9923v-7e-5l-1.736-0.9923zm-6.918-0.6037c2.541 0.261 5.04 0.9478 7.371 2.01l0.8294-1.82c-2.524-1.15-5.234-1.896-7.996-2.179l-0.2043 1.99zm0.9334-3.343c-0.5291 0.4783-1.173 1.053-1.665 1.796l1.668 1.104c0.3299-0.4981 0.7786-0.9107 1.339-1.417l-1.341-1.484zm1.472-1.648c-0.3177 0.5923-0.8148 1.054-1.472 1.648l1.341 1.484c0.6147-0.5557 1.385-1.239 1.893-2.186l-1.762-0.9456zm20.15 12.45c-1.478-2.226-3.231-4.276-5.23-6.058l-1.331 1.493c1.865 1.662 3.506 3.58 4.895 5.671l1.666-1.106zm-0.9182 2.366c0.2967-0.4198 0.5783-0.818 0.8749-1.2l-1.58-1.227c-0.3289 0.4234-0.6364 0.8587-0.9287 1.272l1.633 1.154zm-0.0213 0.029 1e-4 -1e-4 -1.591-1.212 1.591 1.212zm0 1e-4v-1e-4l-1.591-1.212-1e-4 1e-4 1.591 1.212zm-1e-4 0h1e-4l-1.591-1.212 1.591 1.212zm0 1e-4v-1e-4l-1.591-1.212-1e-4 1e-4 1.591 1.212zm0 0-1.591-1.212v1e-4l1.591 1.212zm-1e-4 1e-4 1e-4 -1e-4 -1.591-1.212h-1e-4l1.591 1.212zm0 1e-4v-1e-4l-1.591-1.212v1e-4l1.591 1.212zm-1e-4 0h1e-4l-1.591-1.212 1.591 1.212zm0 1e-4v-1e-4l-1.591-1.212-1e-4 1e-4 1.591 1.212zm-1e-4 0h1e-4l-1.591-1.212v1e-4l1.591 1.212zm0 1e-4v-1e-4l-1.591-1.212h-1e-4l1.591 1.212zm-1e-4 1e-4 1e-4 -1e-4 -1.591-1.212v1e-4l1.591 1.212zm0 0-1.591-1.212h-1e-4l1.591 1.212zm-1e-4 1e-4 1e-4 -1e-4 -1.591-1.212v1e-4l1.591 1.212zm0 0-1.591-1.212-1e-4 1e-4 1.591 1.212zm0 1e-4v-1e-4l-1.591-1.212 1.591 1.212zm-1e-4 1e-4 1e-4 -1e-4 -1.591-1.212-1e-4 1e-4 1.591 1.212zm0 0-1.591-1.212 1.591 1.212zm0.0045-0.0059v-1e-4l-1.6-1.2v1e-4l1.6 1.2zm-1.827 2.315c0.7202-0.7448 1.307-1.578 1.844-2.338l-1.633-1.154c-0.5513 0.7801-1.052 1.486-1.648 2.102l1.438 1.39zm-3.429-2.968c0.6725 0.8907 1.294 1.81 1.842 2.769l1.737-0.9921c-0.5974-1.046-1.268-2.036-1.982-2.982l-1.596 1.205zm-3.261-3.49c1.206 1.071 2.324 2.212 3.253 3.479l1.613-1.183c-1.04-1.417-2.266-2.663-3.538-3.791l-1.328 1.496zm2.843-4.26c-0.9319 0.9493-1.88 1.879-2.856 2.776l1.354 1.472c1.006-0.9255 1.98-1.879 2.93-2.847l-1.427-1.401zm-22.59 7.39c0.2996-0.1399 0.6678-0.1922 0.9237-0.1413 0.1166 0.0232 0.1723 0.0598 0.1953 0.0803 0.0143 0.0128 0.0483 0.0455 0.0703 0.1517l1.958-0.4063c-0.2234-1.077-1.022-1.626-1.834-1.787-0.7502-0.1492-1.552 7e-3 -2.16 0.2908l0.8462 1.812zm-0.4217 0.4715c-0.0147-0.0341-0.027-0.1196 0.0322-0.2332 0.0599-0.1147 0.1415-0.1589 0.182-0.1679l-0.4312-1.953c-0.7062 0.1559-1.236 0.6429-1.524 1.196-0.289 0.554-0.3867 1.272-0.0967 1.948l1.838-0.7892zm1.383 3.622c-0.4797-1.176-0.9331-2.366-1.36-3.563l-1.884 0.6721c0.4367 1.224 0.9007 2.442 1.392 3.646l1.852-0.7554zm0.6723-0.1679c2e-4 0.0519-0.0127 0.0772-0.0417 0.1069-0.0408 0.0418-0.1239 0.0943-0.2459 0.1191-0.1216 0.0248-0.2302 0.0113-0.3008-0.0166-0.0585-0.0231-0.087-0.0519-0.1075-0.0949l-1.805 0.8623c0.5365 1.123 1.732 1.388 2.612 1.209 0.8879-0.1808 1.892-0.9084 1.889-2.191l-2 0.0051zm-0.3087-2.794c0.1343 0.9809 0.2617 1.915 0.3101 2.843l1.997-0.1042c-0.0536-1.026-0.1935-2.044-0.326-3.01l-1.981 0.2715zm-0.1489-1.12c0.0469 0.3762 0.0983 0.7517 0.1489 1.12l1.981-0.2715c-0.0507-0.3708-0.1005-0.7343-0.1457-1.096l-1.985 0.2475zm3.499 0.9451c-0.024 0.3181-0.0423 0.5394-0.0795 0.7161l1.957 0.4114c0.0697-0.3317 0.0952-0.6942 0.1165-0.9775l-1.994-0.15zm1.916-3.082c-0.8801 0.2199-1.376 0.8075-1.625 1.451-0.2184 0.5642-0.2584 1.207-0.2903 1.631l1.994 0.15c0.0377-0.5004 0.0703-0.8242 0.1611-1.059 0.038-0.0981 0.0732-0.1416 0.0943-0.1618 0.0162-0.0155 0.0529-0.0462 0.1508-0.0707l-0.4848-1.94zm3.837 2.201c-0.1742-1.04-0.9116-1.629-1.619-1.919-0.686-0.2818-1.448-0.3398-2.027-0.3098l0.1035 1.997c0.3955-0.0205 0.8386 0.029 1.164 0.1625 0.3035 0.1247 0.383 0.2595 0.4064 0.3994l1.973-0.3302zm-0.9233 3.158c0.3353-0.8457 0.7109-1.786 0.9167-2.792l-1.959-0.401c-0.1646 0.8045-0.4702 1.582-0.8165 2.456l1.859 0.737zm-0.4618 1.212c0.1393-0.3978 0.2961-0.7938 0.4618-1.212l-1.859-0.737c-0.1632 0.4115-0.3353 0.8453-0.4903 1.288l1.888 0.6608zm-3.594 1.332c1.289 0.8138 3.23 0.2093 3.622-1.43l-1.945-0.4662c-0.0198 0.0825-0.0859 0.1734-0.2289 0.2267-0.1493 0.0556-0.2921 0.034-0.3808-0.022l-1.068 1.691zm-0.9604-3.256c-0.063 0.3852-0.1647 0.963-0.1007 1.52 0.0719 0.6255 0.3553 1.274 1.048 1.727l1.094-1.674c-0.0691-0.0452-0.0943-0.0811-0.1074-0.1045-0.016-0.0284-0.0367-0.0801-0.0478-0.1767-0.0262-0.2285 0.0136-0.5169 0.0876-0.9693l-1.974-0.3226zm0.0863-0.6766c-0.0058 0.1743-0.038 0.3809-0.0863 0.6766l1.974 0.3226c0.0432-0.2642 0.1005-0.6047 0.1114-0.9325l-1.999-0.0667zm-11.14 2.426c-0.1292-0.1099-0.139-0.1871-0.1205-0.2931 0.0283-0.1625 0.1529-0.4024 0.3935-0.6216 0.2405-0.2191 0.4924-0.3221 0.6588-0.3359 0.1103-0.0092 0.1824 9e-3 0.2745 0.1398l1.636-1.151c-0.5291-0.752-1.309-1.046-2.076-0.9821-0.7105 0.059-1.36 0.4135-1.84 0.8506-0.4797 0.437-0.894 1.052-1.017 1.757-0.1327 0.7612 0.094 1.564 0.7951 2.16l1.296-1.524zm1.282 1.115c-0.4115-0.37-0.8445-0.7597-1.299-1.129l-1.262 1.552c0.4095 0.3329 0.8058 0.689 1.224 1.065l1.337-1.487zm0.0385 0.0365-1.414 1.414 1.414-1.414zm-0.0521-0.0485-1e-4 -1e-4 -1.31 1.511 1e-4 1e-4 1.31-1.511zm1.73 1.459c-0.5833-0.4294-1.129-0.9188-1.716-1.447l-1.337 1.487c0.5754 0.5174 1.193 1.074 1.868 1.571l1.186-1.611zm0.3475-0.6247c0.0279 0.0976 2e-3 0.2667-0.1616 0.4167-0.1571 0.1439-0.2895 0.1372-0.3657 0.1026l-0.826 1.822c0.9617 0.4361 1.932 0.1099 2.543-0.4498 0.604-0.5536 1.01-1.472 0.7332-2.441l-1.923 0.5497zm-1.517-2.172c0.5851 0.8166 1.139 1.591 1.616 2.403l1.725-1.012c-0.5301-0.903-1.139-1.751-1.715-2.555l-1.626 1.165zm-0.0351-0.0524 1.696-1.06-1.696 1.06zm0-1e-4v1e-4l1.696-1.06v-1e-4l-1.696 1.06zm0 0 1.696-1.06-1.696 1.06zm-1e-4 -1e-4 1e-4 1e-4 1.696-1.06-1e-4 -1e-4 -1.696 1.06zm0 0 1.696-1.06-1.696 1.06zm0 0 1.696-1.06-1.696 1.06zm-1e-4 -1e-4 1e-4 1e-4 1.696-1.06-1e-4 -1e-4 -1.696 1.06zm0 0 1.696-1.06-1.696 1.06zm0-1e-4v1e-4l1.696-1.06v-1e-4l-1.696 1.06zm0 0 1.696-1.06-1.696 1.06zm-1e-4 -1e-4 1e-4 1e-4 1.696-1.06-1e-4 -1e-4 -1.696 1.06zm0 0 1.696-1.06-1.696 1.06zm0-1e-4v1e-4l1.696-1.06v-1e-4l-1.696 1.06zm-1e-4 0h1e-4l1.696-1.06h-1e-4l-1.696 1.06zm-0.5895-0.8266c0.2074 0.2966 0.4179 0.5904 0.6246 0.879l1.626-1.165c-0.2078-0.2901-0.4116-0.5746-0.6112-0.8601l-1.639 1.146zm-2.724 4.314c-0.3226-0.1791-0.8286-0.4686-1.371-0.5907-0.6139-0.1381-1.332-0.0765-1.973 0.4717l1.3 1.52c0.0526-0.045 0.0799-0.0502 0.0888-0.052 0.016-0.0032 0.0586-0.0079 0.1452 0.0116 0.2094 0.0471 0.4559 0.1752 0.8395 0.3881l0.9706-1.749zm0.3963 0.2115c-0.113-0.0546-0.2369-0.123-0.3963-0.2115l-0.9706 1.749c0.1482 0.0822 0.3232 0.1797 0.4965 0.2635l0.8704-1.801zm0.9114 0.4776c-0.3064-0.1537-0.5845-0.2936-0.8506-0.4456l-0.9921 1.737c0.3207 0.1832 0.6473 0.3468 0.9455 0.4965l0.8972-1.788zm-0.0014-6e-4 -0.8944 1.789 0.8944-1.789zm1.58 0.896c-0.5265-0.3695-1.091-0.6508-1.578-0.8953l-0.8972 1.787c0.5094 0.2557 0.9405 0.4741 1.327 0.7451l1.149-1.637zm-1.886 4.185c1.226 0.254 2.14-0.5286 2.511-1.354 0.366-0.8129 0.3595-1.996-0.5506-2.773l-1.299 1.521c0.0397 0.0339 0.0642 0.0753 0.074 0.1426 0.0114 0.0776-4e-4 0.1831-0.048 0.2888-0.0477 0.1061-0.1121 0.1701-0.1584 0.1985-0.033 0.0203-0.0644 0.0303-0.1235 0.018l-0.4057 1.958zm-4.078-1.007c1.344 0.4219 2.729 0.7394 4.086 1.009l0.3891-1.962c-1.322-0.2621-2.629-0.5633-3.876-0.955l-0.5991 1.908zm-0.3523-4.799c-0.4925 0.5346-0.9308 1.352-1.048 2.189-0.0598 0.4291-0.0424 0.9194 0.1531 1.391 0.2037 0.4914 0.5743 0.8962 1.098 1.159l0.8975-1.787c-0.1061-0.0534-0.1327-0.1017-0.1475-0.1375-0.023-0.0553-0.0454-0.1661-0.0198-0.349 0.0539-0.3869 0.2869-0.8377 0.5378-1.11l-1.471-1.355zm24.97-4.414c0.0573-0.0275 0.1761-0.0527 0.3806 0.0196 0.2068 0.073 0.4308 0.2254 0.6055 0.427 0.178 0.2053 0.2481 0.3941 0.2581 0.5108 0.0064 0.0751-0.0026 0.1462-0.1155 0.2484l1.342 1.482c0.5852-0.53 0.8243-1.217 0.7657-1.901-0.055-0.6431-0.363-1.216-0.7395-1.65-0.3799-0.4382-0.8869-0.8036-1.451-1.003-0.5661-0.1999-1.258-0.2515-1.914 0.0639l0.8668 1.802zm-1.273 1.798c0.5137-0.8025 0.9409-1.457 1.499-1.947l-1.32-1.503c-0.8071 0.7087-1.379 1.615-1.864 2.372l1.684 1.078zm-0.9197 1.348c0.3421-0.4445 0.6445-0.9179 0.9197-1.348l-1.684-1.078c-0.2835 0.443-0.5398 0.842-0.82 1.206l1.585 1.22zm0.4375 0.5762c-0.0425 0.0231-0.0705 0.0249-0.1139 0.0122-0.06-0.0177-0.1498-0.0697-0.232-0.1696-0.082-0.0996-0.121-0.2041-0.1289-0.279-0.0063-0.0605 0.0052-0.0983 0.0363-0.1386l-1.583-1.222c-0.7783 1.008-0.4452 2.21 0.1309 2.911 0.5778 0.7023 1.706 1.264 2.846 0.6438l-0.9555-1.757zm1.763-1.504c-0.6384 0.5975-1.208 1.128-1.841 1.552l1.113 1.662c0.7913-0.5298 1.477-1.175 2.095-1.753l-1.367-1.46zm1.149-1.037c-0.4049 0.3397-0.7886 0.6991-1.149 1.037l1.367 1.46c0.3672-0.3437 0.7116-0.6656 1.068-0.9647l-1.286-1.532zm2.492 2.729c-1.217 0.606-2.438 1.238-3.635 1.924l0.9955 1.735c1.148-0.6587 2.33-1.271 3.531-1.869l-0.8916-1.79zm2.941 4.736c0.8002-0.9776 0.6601-2.342 0.2177-3.256-0.4523-0.9357-1.507-1.936-2.967-1.552l0.5088 1.934c0.1506-0.0396 0.4202-0.0025 0.6575 0.4884 0.2474 0.5116 0.1626 0.9636 0.0352 1.119l1.548 1.267zm-3.699 1.261c1.051-0.2253 2.239-0.4758 3.345-0.9864l-0.8385-1.816c-0.8695 0.4015-1.835 0.6129-2.925 0.8466l0.4193 1.956zm-0.0082 0.0018 2e-4 -1e-4 -0.4033-1.959-2e-4 1e-4 0.4033 1.959zm-0.0372 0.0069-0.3288-1.973 0.3288 1.973zm-1e-4 0h1e-4l-0.3288-1.973h-1e-4l0.3288 1.973zm0 0-0.3288-1.973 0.3288 1.973zm-1e-4 0h1e-4l-0.3288-1.973 0.3287 1.973zm0 0-0.3287-1.973-1e-4 1e-4 0.3288 1.973zm0 0-0.3288-1.973 0.3288 1.973zm-1e-4 0h1e-4l-0.3288-1.973h-1e-4l0.3288 1.973zm0 1e-4v-1e-4l-0.3288-1.973 0.3288 1.973zm0 0-0.3288-1.973 0.3288 1.973zm-1e-4 0h1e-4l-0.3288-1.973h-1e-4l0.3288 1.973zm-1.175 0.2674c0.3936-0.0986 0.7968-0.1851 1.221-0.2761l-0.4193-1.956c-0.4182 0.0897-0.8549 0.1832-1.287 0.2916l0.486 1.94zm-1.66-4.346c-1.138 0.6628-1.234 1.941-0.9197 2.804 0.3141 0.8627 1.209 1.78 2.506 1.558l-0.3375-1.971c-0.051 0.0087-0.0811 6e-4 -0.121-0.0279-0.0543-0.0387-0.1236-0.1205-0.1681-0.2428-0.0445-0.1222-0.0439-0.2291-0.0274-0.2931 0.0121-0.0468 0.0297-0.0722 0.0744-0.0983l-1.007-1.728zm-24.28 8.751c-0.1438 0.0339-0.2083 3e-3 -0.2806-0.0657-0.1077-0.1023-0.2294-0.3149-0.2812-0.6155-0.0514-0.2978-0.0141-0.57 0.065-0.7447 0.067-0.1482 0.1414-0.1954 0.2383-0.2147l-0.3904-1.962c-0.8323 0.1656-1.383 0.7181-1.67 1.351-0.2747 0.6065-0.3197 1.297-0.2141 1.91 0.1052 0.6098 0.3797 1.256 0.8749 1.726 0.5307 0.504 1.276 0.7602 2.117 0.5621l-0.4588-1.947zm1.121-0.2654c-0.3719 0.0858-0.7531 0.1737-1.133 0.2682l0.4826 1.941c0.3609-0.0898 0.7257-0.174 1.1-0.2604l-0.4497-1.949zm2.892-0.7929c-0.9083 0.3339-1.865 0.5559-2.892 0.7929l0.4497 1.949c1.006-0.2321 2.086-0.48 3.132-0.8644l-0.6899-1.877zm-0.4887-0.5743c0.0801 0.0076 0.1181 0.0329 0.1439 0.0574 0.0332 0.0315 0.0752 0.0925 0.1005 0.1916 0.0563 0.2205-0.0095 0.4461-0.1253 0.5644l1.429 1.399c0.6677-0.682 0.8396-1.654 0.634-2.458-0.2138-0.8368-0.8854-1.641-1.995-1.745l-0.1873 1.991zm-3.948 0.0108c1.332-0.0397 2.67-0.0299 4.024-0.0065l0.0346-2c-1.365-0.0236-2.739-0.034-4.119 0.0071l0.0596 1.999zm26.37-1.867c-1.014 0.0493-1.683 0.7604-1.941 1.501-0.2537 0.7287-0.18 1.668 0.4595 2.357l1.466-1.36c-0.0468-0.0505-0.0937-0.1759-0.0369-0.3392 0.0251-0.0721 0.0608-0.116 0.0854-0.1367 0.0182-0.0153 0.034-0.0228 0.0638-0.0242l-0.0971-1.998zm1.276-0.016c-0.4171 0.0075-0.8233 0.0149-1.227 0.0149v2c0.4248 0 0.8492-0.0078 1.263-0.0152l-0.0362-2zm0.0182-2e-4h-1e-4v2h1e-4v-2zm1e-4 0h-1e-4v2h1e-4v-2zm1e-4 0h-1e-4v2h1e-4v-2zm0 0v2-2zm1e-4 0h-1e-4v2h1e-4v-2zm1e-4 0h-1e-4v2h1e-4v-2zm1e-4 0h-1e-4v2h1e-4v-2zm3.256 0.0705c-1.113-0.1106-2.229-0.0892-3.274-0.0703l0.0362 2c1.066-0.0193 2.064-0.0362 3.04 0.0608l0.1976-1.99zm1.534 3.619c0.1505-0.4902 0.2659-1.162 0.1516-1.814-0.122-0.6967-0.5376-1.456-1.474-1.76l-0.6192 1.902c0.0547 0.0178 0.0632 0.0334 0.0661 0.0374 0.0106 0.0139 0.0388 0.0603 0.0575 0.1666 0.0405 0.2315 0.0036 0.5651-0.0936 0.8821l1.912 0.5868zm-3.348 1.59c0.6589 0.2848 1.416 0.269 2.047-0.0059 0.6515-0.2841 1.225-0.8786 1.338-1.749l-1.984-0.2567c-0.0059 0.0456-0.0199 0.0706-0.0355 0.0898-0.0188 0.0232-0.0551 0.055-0.1179 0.0824-0.1388 0.0605-0.3191 0.0615-0.4537 0.0033l-0.7935 1.836zm-1.175-0.2723c0.4691 0.0991 0.8834 0.1873 1.275 0.3092l0.5943-1.91c-0.4962-0.1545-1.003-0.2608-1.456-0.3564l-0.4132 1.957zm0.0104 0.0021 1e-4 1e-4 0.3922-1.961h-1e-4l-0.3922 1.961zm-2.838-0.9598c0.9351 0.5677 1.983 0.7794 2.827 0.9577l0.4132-1.957c-0.9042-0.1909-1.608-0.3491-2.203-0.7104l-1.038 1.71zm-17.01 2.599c-0.2265-0.642-0.7165-1.15-1.296-1.424-0.59-0.2791-1.344-0.3433-2.04 0.0346l0.9548 1.757c0.0409-0.0223 0.1124-0.0395 0.2296 0.016 0.1279 0.0605 0.2271 0.1742 0.2652 0.282l1.886-0.6655zm-0.8784 2.684c0.807-0.6165 1.126-1.637 0.9099-2.576l-1.949 0.4485c0.0516 0.2245-0.0311 0.4282-0.175 0.5381l1.214 1.589zm-0.9128 0.8228c0.3259-0.2979 0.6399-0.5847 0.9595-0.8607l-1.307-1.514c-0.3443 0.2974-0.6788 0.6032-1.001 0.898l1.349 1.476zm0.0036-0.0033-1.356-1.47h-1e-4l1.357 1.47zm-2.046 1.738c0.7417-0.5443 1.415-1.161 2.042-1.734l-1.349-1.476c-0.6408 0.5856-1.236 1.128-1.876 1.598l1.183 1.612zm-3.385-1.148c0.2708 0.4658 0.6881 0.914 1.226 1.188 0.5607 0.2854 1.262 0.3791 1.968 0.0698l-0.8019-1.832c-0.077 0.0337-0.1478 0.0366-0.2592-0.0201-0.1345-0.0684-0.2896-0.2137-0.404-0.4104l-1.729 1.005zm1.171-4.051c-1.928 0.5696-2.36 2.972-0.9958 4.272l1.38-1.448c-0.33-0.3143-0.1658-0.8032 0.1828-0.9062l-0.5666-1.918zm1.033-0.5646c-0.4072 0.2177-0.8036 0.4295-1.202 0.6318l0.9048 1.784c0.4211-0.2136 0.8363-0.4356 1.24-0.6515l-0.9428-1.764zm1.721-0.89c-0.5897 0.285-1.166 0.5931-1.721 0.89l0.9428 1.764c0.5615-0.3002 1.102-0.5888 1.649-0.8531l-0.8702-1.801zm19.55 2.327c-0.0377-0.0778-0.0461-0.2418 0.1014-0.4193 0.1427-0.172 0.2743-0.1733 0.3406-0.1516l0.6243-1.9c-1.028-0.338-1.97 0.1314-2.504 0.774-0.5289 0.637-0.8169 1.631-0.3623 2.569l1.8-0.8723zm3.122 2.698c-1.169-0.9319-2.294-1.898-3.298-2.951l-1.448 1.38c1.093 1.147 2.297 2.177 3.499 3.135l1.247-1.564zm0.8121-1.547c0.0288 0.3007-0.1168 0.7877-0.4171 1.138-0.2823 0.3296-0.4858 0.3286-0.6363 0.2663l-0.764 1.848c1.232 0.5094 2.303-0.0937 2.92-0.814 0.5987-0.6992 0.977-1.71 0.8887-2.63l-1.991 0.1911zm-0.7144-0.2861c0.2684 0.1358 0.4436 0.2276 0.5827 0.3327 0.122 0.0922 0.1722 0.1638 0.1996 0.2318l1.855-0.7479c-0.3892-0.9654-1.295-1.379-1.734-1.601l-0.9029 1.785zm-0.3241-0.168c0.1119 0.0607 0.2253 0.118 0.3241 0.168l0.9029-1.785c-0.1035-0.0523-0.1909-0.0966-0.2731-0.1412l-0.9539 1.758zm-1.041-0.5437c0.3433 0.1845 0.705 0.3791 1.076 0.5619l0.8837-1.794c-0.3339-0.1644-0.6643-0.342-1.013-0.5293l-0.947 1.762zm0.0262 0.0136h1e-4l0.8944-1.789-1e-4 -1e-4 -0.8944 1.789zm-0.0674-0.037h1e-4l1.029-1.715h-1e-4l-1.029 1.715zm-1.461-0.7342c0.4953 0.2171 0.9778 0.4758 1.502 0.7575l0.947-1.762c-0.5121-0.2753-1.065-0.573-1.646-0.8277l-0.803 1.832zm-12.58 5.043c0.4718-1.007 0.0951-2.019-0.5087-2.624-0.5984-0.5989-1.598-0.9782-2.592-0.5525l0.7872 1.838c0.0739-0.0316 0.2281-0.0343 0.3898 0.1276 0.1562 0.1563 0.1462 0.2895 0.1124 0.3617l1.811 0.8483zm-0.3514 0.9673c0.1275-0.3534 0.2516-0.697 0.3805-1.036l-1.869-0.711c-0.136 0.3576-0.2658 0.7173-0.3923 1.068l1.881 0.6791zm0.0172-0.0521v-1e-4l-1.916-0.5747v1e-4l1.916 0.5747zm-1.178 2.902c0.4731-0.9425 0.8286-1.931 1.16-2.85l-1.881-0.679c-0.3388 0.9387-0.6559 1.814-1.067 2.632l1.787 0.8973zm-4.433-0.1514c0.4296 0.3774 1.072 0.8316 1.796 1.038 0.7703 0.2195 1.749 0.171 2.494-0.6735l-1.5-1.323c-0.0695 0.0789-0.118 0.0949-0.1521 0.1021-0.0494 0.0105-0.1427 0.0139-0.2937-0.0292-0.3213-0.0915-0.7031-0.3351-1.024-0.6167l-1.32 1.502zm0.3286-3.886c-0.2611 0.3544-0.6809 0.908-0.8835 1.519-0.1086 0.3275-0.1715 0.7136-0.102 1.131 0.0708 0.4252 0.2679 0.8131 0.5728 1.153l1.488-1.336c-0.0793-0.0883-0.0866-0.135-0.0883-0.1454-0.0031-0.0185-0.0068-0.0688 0.0276-0.1727 0.0834-0.2514 0.2846-0.5407 0.5952-0.9623l-1.61-1.186zm0.2869-0.4021c-0.0767 0.1163-0.1699 0.2433-0.2869 0.4021l1.61 1.186c0.1098-0.149 0.2356-0.3193 0.3462-0.4868l-1.669-1.102zm0.5344-0.7788c-0.1802 0.2906-0.3169 0.5081-0.4681 0.6897l1.537 1.28c0.2564-0.3079 0.4653-0.6483 0.6313-0.9161l-1.7-1.054zm1.623-1.741c-0.8476 0.4456-1.316 1.246-1.623 1.741l1.7 1.053c0.3646-0.5883 0.5699-0.8753 0.8536-1.024l-0.9306-1.77zm11.26 2.208c-0.0152-0.0577-0.0091-0.1012 0.0138-0.149 0.0278-0.0578 0.0868-0.1295 0.1804-0.1875 0.2087-0.1293 0.3552-0.0795 0.4137-0.031l1.277-1.54c-0.8824-0.7317-2.002-0.5894-2.744-0.1294-0.7483 0.4637-1.373 1.413-1.075 2.546l1.934-0.5096zm0.6631 1.791c-0.2413-0.6309-0.4744-1.24-0.6828-1.857l-1.895 0.6409c0.2232 0.6596 0.4705 1.306 0.7095 1.93l1.868-0.7145zm0.0147 0.0411v-1e-4l-1.897 0.6325 1.897-0.6324zm1e-4 0h-1e-4l-1.897 0.6324v1e-4l1.897-0.6325zm-0.0136-0.0381-1e-4 -3e-4 -1.87 0.7093 1e-4 3e-4 1.87-0.7093zm0.6568 1.777c-0.209-0.6062-0.4369-1.202-0.6578-1.779l-1.868 0.7145c0.2229 0.5827 0.4387 1.147 0.6349 1.716l1.891-0.6517zm1.477-0.8812c0.0546 0.13 0.0473 0.244-0.0315 0.3849-0.0926 0.1654-0.2825 0.3482-0.5438 0.4754-0.2625 0.1277-0.5071 0.1561-0.6682 0.1268-0.1242-0.0226-0.2102-0.0746-0.2808-0.219l-1.797 0.8779c0.3698 0.7569 1.016 1.181 1.72 1.309 0.6663 0.1214 1.344-0.0247 1.902-0.2962 0.5591-0.2721 1.087-0.7136 1.414-1.297 0.3401-0.6079 0.4525-1.367 0.1304-2.135l-1.844 0.7737zm-0.9352-1.29c0.3298 0.4899 0.6797 1.01 1.064 1.511l1.588-1.216c-0.3404-0.4443-0.6566-0.9134-0.9922-1.412l-1.659 1.117zm-0.0025-0.0038 1.664-1.109-1.664 1.109zm-1e-4 0h1e-4l1.664-1.109h-1e-4l-1.664 1.109zm-1.373-1.882c0.4871 0.5677 0.9125 1.198 1.376 1.886l1.659-1.117c-0.4523-0.6718-0.9414-1.4-1.517-2.071l-1.518 1.302zm-3.186 0.9348c-0.3761-1.086-1.41-1.535-2.278-1.524-0.8695 0.0104-1.896 0.4873-2.235 1.596l1.912 0.5854c0.0149-0.0488 0.0402-0.0822 0.0877-0.1127 0.0563-0.0362 0.1469-0.0673 0.2588-0.0687 0.2493-3e-3 0.3417 0.1149 0.3639 0.179l1.89-0.6546zm0.3793 2.543c-0.078-0.7672-0.162-1.604-0.3484-2.435l-1.952 0.438c0.1559 0.6944 0.2301 1.412 0.3102 2.199l1.99-0.2024zm0.2413 1.864c-0.1116-0.5945-0.1742-1.204-0.2413-1.864l-1.99 0.2024c0.0656 0.645 0.1356 1.339 0.2653 2.03l1.966-0.369zm-5.674 0.3475c0.2489 1.572 1.743 2.139 2.832 2.133 1.088-0.0059 2.566-0.5812 2.843-2.119l-1.968-0.3543c-0.0313 0.1741-0.2671 0.4696-0.8854 0.473-0.6166 0.0033-0.8202-0.2828-0.8459-0.4455l-1.976 0.3126zm0.5101-4.553c-0.2367 1.433-0.3968 2.88-0.5187 4.312l1.993 0.1697c0.1192-1.4 0.2739-2.791 0.4993-4.156l-1.973-0.326z" fill="url(#a)"/>
</svg>
