<svg version="1.1" viewBox="0 0 64 64" xmlns="http://www.w3.org/2000/svg">
 <circle transform="translate(-3.93 -4.491) scale(1.123)" cx="32" cy="33" r="28" opacity=".2"/>
 <circle transform="translate(-3.93 -4.491) scale(1.123)" cx="32" cy="32" r="28" fill="#b24d4e"/>
 <path transform="translate(-3.93 -4.491) scale(1.123)" d="M32 4A28 28 0 0 0 4 32a28 28 0 0 0 .021.586A28 28 0 0 1 32 5a28 28 0 0 1 27.979 27.414L60 32A28 28 0 0 0 32 4" fill="#fff" opacity=".1"/>
 <path transform="translate(-3.93 -4.491) scale(1.123)" d="M48 33c0 13-8.976 23-16 23S16 46 16 33c0-8 2-16 10-22 0 0 3.263-1.842 2 1-4 9 1 19 4 19s8-10 4-19c-1.263-2.842 2-1 2-1 8 6 10 14 10 22" opacity=".2"/>
 <path transform="translate(-3.93 -4.491) scale(1.123)" d="M48 32c0 13-8.976 23-16 23S16 45 16 32c0-8 2-16 10-22 0 0 3.263-1.842 2 1-4 9 1 19 4 19s8-10 4-19c-1.263-2.842 2-1 2-1 8 6 10 14 10 22" fill="#fff"/>
 <path transform="translate(-3.93 -4.491) scale(1.123)" d="m25 40a5.15 2.913 73.16 0 0-2 5 5.15 2.913 73.16 0 0 4 5 5.15 2.913 73.16 0 0 2-5 5.15 2.913 73.16 0 0-4-5m14 0a2.913 5.15 16.84 0 0-4 5 2.913 5.15 16.84 0 0 2 5 2.913 5.15 16.84 0 0 4-5 2.913 5.15 16.84 0 0-2-5" fill="#401e1e"/>
</svg>
