<svg xmlns="http://www.w3.org/2000/svg" viewBox="0 0 64 64"><defs><linearGradient id="a" y1="1"><stop offset="0" stop-color="#5558ff"/><stop offset="1" stop-color="#0ff"/></linearGradient></defs><path fill="url(#a)" d="M8.139.004q-.44.022-.87.133a3.777 3.777 0 0 0-1.482.758 4.6 4.6 0 0 0-.632.642 3.66 3.66 0 0 0-.807 2.291v2.088H2.784c-.768 0-1.39.623-1.39 1.391v7.301c0 .768.622 1.391 1.39 1.391h10.43c.768 0 1.391-.623 1.391-1.39V12.87a.695.695 0 0 0-1.39 0v1.043a.695.695 0 0 1-.696.695H4.87V12.01c0-.293-.234-.53-.522-.53s-.521.237-.521.53v2.598H3.48a.695.695 0 0 1-.695-.695v-5.91a.695.695 0 0 1 .695-.695h9.04a.695.695 0 0 1 .694.695v1.043a.695.695 0 0 0 1.391 0V7.308c0-.768-.623-1.39-1.39-1.39h-.87V3.822q-.005-.309-.072-.611a3 3 0 0 0-.18-.596 4 4 0 0 0-.27-.562q-.15-.27-.36-.504a6 6 0 0 0-.817-.744 4.2 4.2 0 0 0-.816-.48 3.8 3.8 0 0 0-.828-.26A3.8 3.8 0 0 0 8.14.004zm.068 1.39c.178-.01.358.005.536.036a2.5 2.5 0 0 1 .521.164c.191.087.376.195.543.32.226.17.435.362.623.567q.109.12.188.26.105.183.177.377.076.193.121.398.037.156.037.316v2.084H5.738V3.828A2.26 2.26 0 0 1 6.24 2.41q.199-.246.438-.445.204-.174.445-.295.237-.12.494-.187a3 3 0 0 1 .59-.088zM4.313 9.742a.52.52 0 0 0-.486.521.522.522 0 0 0 1.043 0 .52.52 0 0 0-.557-.521m9.55.521a.696.696 0 0 0-.649.696.696.696 0 0 0 1.391 0 .696.696 0 0 0-.742-.696z" transform="matrix(4 0 0 4 0 -.003)"/><path fill="url(#a)" d="M8 8.18a2 2 0 0 0-1.94 1.484c-.185.692.09 1.458.705 1.986v1.106c0 .534.443.976.977.977h.513a.985.985 0 0 0 .979-.977V11.65c.615-.528.888-1.295.703-1.986A1.995 1.995 0 0 0 7.999 8.18zm0 .926c.586-.001.926.354 1.045.799.12.444.004.923-.504 1.215l-.232.132v1.504q-.002.051-.053.051h-.514q-.05-.001-.05-.05v-1.505l-.233-.132c-.508-.292-.623-.77-.504-1.215.12-.445.46-.8 1.045-.8z" transform="matrix(4 0 0 4 0 -.003)"/></svg>