<svg version="1.1" viewBox="0 0 64 64" xmlns="http://www.w3.org/2000/svg">
 <defs>
  <linearGradient id="a" x1="1" x2="0" y1="1">
   <stop stop-color="#ffa200" offset="0"/>
   <stop stop-color="#fffd00" offset="1"/>
  </linearGradient>
 </defs>
 <path transform="translate(-0) scale(1) translate(.002 .002) scale(.9999) translate(-10.67 -10.67) scale(1.778)" d="m24 6a18 18 0 0 0-18 18 18 18 0 0 0 18 18 18 18 0 0 0 18-18 18 18 0 0 0-18-18zm0 2a16 16 0 0 1 15.7 13h-3.705c-0.554 0-1 0.446-1 1s0.446 1 1 1h3.963a16 16 0 0 1 0.03711 1 16 16 0 0 1-0.05078 1h-3.949c-0.554 0-1 0.446-1 1s0.446 1 1 1h3.709a16 16 0 0 1-15.71 13 16 16 0 0 1-15.7-13h3.705c0.554 0 1-0.446 1-1s-0.446-1-1-1h-3.961a16 16 0 0 1-0.03906-1 16 16 0 0 1 0.05078-1h3.949c0.554 0 1-0.446 1-1s-0.446-1-1-1h-3.709a16 16 0 0 1 15.71-13zm0 4c-0.667 0-1.29 0.1881-1.77 0.5371-0.47 0.349-0.772 0.8106-1 1.266-0.454 0.909-0.6851 1.869-1.121 2.75-0.165 0.321-0.2162 0.3176-0.3242 0.3496-0.108 0.033-0.3716 0.03942-0.7656-0.01758-0.8-0.114-2.109-0.4584-3.467 0.2246-0.769 0.38-1.273 1.108-1.482 1.873-0.216 0.765-0.1986 1.584-0.06055 2.432 0.286 1.696 1.09 3.534 2.16 5.141 0.96 1.436 2.214 3.695 3.498 5.625 0.642 0.96 1.288 1.84 1.959 2.533 0.671 0.689 1.373 1.287 2.373 1.287s1.7-0.5981 2.371-1.287c0.669-0.693 1.319-1.573 1.961-2.533 1.284-1.93 2.543-4.189 3.5-5.625 1.071-1.607 1.872-3.445 2.154-5.141 0.144-0.848 0.1533-1.667-0.05469-2.432-0.213-0.765-0.7114-1.493-1.484-1.873-1.357-0.683-2.669-0.3386-3.465-0.2246-0.397 0.057-0.6605 0.05058-0.7715 0.01758-0.1-0.032-0.1514-0.02861-0.3164-0.3496-0.441-0.881-0.675-1.841-1.125-2.75-0.228-0.455-0.5299-0.9166-1.006-1.266-0.474-0.349-1.097-0.5371-1.764-0.5371zm0 10c0.554 0 1 0.446 1 1v6c0 0.554-0.446 1-1 1s-1-0.446-1-1v-6c0-0.554 0.446-1 1-1z" fill="url(#a)"/>
</svg>
