<svg xmlns="http://www.w3.org/2000/svg" fill="none" viewBox="0 0 64 64"><defs><linearGradient id="a" x1="96.3" x2="96.3" y1="183.1" y2="9" gradientUnits="userSpaceOnUse"><stop offset="0" stop-color="#5570ff"/><stop offset="1" stop-color="#4dd3ff"/></linearGradient><linearGradient id="b" x1="96.17" x2="96.17" y1="137.1" y2="54.68" gradientUnits="userSpaceOnUse"><stop offset="0" stop-color="#5570ff"/><stop offset="1" stop-color="#4dd3ff"/></linearGradient><linearGradient id="d" x1="96.17" x2="96.17" y1="137.1" y2="54.68" gradientUnits="userSpaceOnUse"><stop offset="0" stop-color="#5570ff"/><stop offset="1" stop-color="#4dd3ff"/></linearGradient></defs><path fill="url(#a)" stroke="url(#a)" stroke-width="4" d="M37.17 12.96c15.32-6.982 34.21-4.544 47.45 5.763 15.55-2.05 31.76.078 45.89 7.07 20.1 9.663 35.74 28.21 41.43 49.81 3.061 10.41 2.862 21.32 2.329 32.03 3.982 6.483 7.698 13.36 8.708 21.03 2.363 13.97-2.108 28.9-11.79 39.26-9.062 9.951-22.62 15.45-36.03 15.13-11.26-.532-22.54-4.777-30.63-12.74-3.283-3.657-.832-10.13 4.016-10.78 3.793-.864 6.4 2.471 9.229 4.3 11.99 8.444 29.47 7.491 40.5-2.15 9.151-7.602 13.67-20.29 11.21-31.94-1.042-6.051-4.193-11.48-8.053-16.16-2.374-2.549-1.231-6.106-.854-9.143 2.451-16.86-2.485-34.49-12.92-47.9-13.04-17.29-35.27-26.91-56.82-24.95-4.226.022-9.162 2.571-12.7-.875-7.099-6.217-16.78-9.264-26.17-8.068-15.5 1.396-28.6 15.1-29.48 30.59-.81 8.899 2.352 17.91 8.186 24.62 1.986 2.028 2.285 4.92 1.62 7.569-3.073 17.32 1.597 35.71 12.27 49.65 9.229 12.32 23.06 20.99 38.11 24.19 3.716.52 6.522 4.366 5.613 8.057-.599 3.766-4.825 6.193-8.441 5.052-16.76-3.524-32.25-12.81-43.24-25.95-14.56-16.81-21.03-39.98-17.88-61.94-7.199-9.485-10.8-21.64-9.451-33.51 1.564-16.49 12.65-31.55 27.89-38.02z" transform="translate(-2.508 -2.411)scale(.3583)"/><path fill="url(#b)" stroke="url(#d)" stroke-width="4" d="M89.25 55.36c11.59-1.962 24.58.188 33.56 8.201 2.618 2.56 5.712 5.707 5.202 9.708-.333 3.912-4.315 6.97-8.186 6.372-4.47-.166-5.857-5.186-9.451-6.982-7.11-3.912-15.98-4.211-23.52-1.33-3.05 1.263-6.278 3.092-7.565 6.306-.865 3.801 2.651 6.605 5.668 8.09 6.345 3.413 13.78 2.238 20.57 3.967 7.376 1.751 14.63 5.552 18.98 11.95 3.882 5.463 4.648 12.98 1.808 19.06-2.917 6.572-9.107 11.07-15.66 13.61-9.806 3.712-20.98 3.723-30.8.088-5.957-2.294-11.66-6.15-14.8-11.84-2.54-4.71 1.653-11.03 6.966-10.51 4.626-.144 6.201 4.943 9.728 6.882 7.254 4.167 16.48 4.355 24.18 1.286 3.106-1.352 6.666-3.391 7.277-7.037.088-3.58-3.239-5.874-6.101-7.292-6.345-3.347-13.77-2.095-20.51-3.89-7.92-1.906-15.74-6.316-19.77-13.63-3.45-6.028-3.217-13.91.544-19.75 4.736-7.525 13.34-11.74 21.89-13.26z" transform="translate(-2.508 -2.411)scale(.3583)"/></svg>