<svg xmlns="http://www.w3.org/2000/svg" image-rendering="optimizeSpeed" viewBox="0 0 64 64"><defs><linearGradient id="a" x1="1" x2="0" y1="1"><stop offset="0" stop-color="#2ad454"/><stop offset="1" stop-color="#b3ff5a"/></linearGradient></defs><path fill="url(#a)" d="M35.66 2a2.16 2.16 0 0 0-1.748.902h-.006l-14.1 19.08-.078.108-.018.025-2.846 3.898-5.234 7.174.004.008a3.47 3.47 0 0 0-.724 2.107 3.47 3.47 0 0 0 3.47 3.469h16.38l-4.26 20.7.005.002a2 2 0 0 0-.037.373 2.16 2.16 0 0 0 2.16 2.158 2.16 2.16 0 0 0 1.828-1.01l13.46-17.91.001-.002.202-.27.027-.035.043-.056.143-.196a3 3 0 0 0 .175-.328l.022-.05.017-.05.02-.048-.02.052-.017.05-.022.05a3 3 0 0 1-.175.328l2.768-3.75 5.373-7.279-.004-.008a3.47 3.47 0 0 0 .644-2.006 3.47 3.47 0 0 0-3.469-3.469h-16.37l4.516-21.44-.002-.002a2 2 0 0 0 .041-.41 2.16 2.16 0 0 0-2.158-2.158h-.002zM19.23 23.65a2.7 2.7 0 0 0 .092.705 2.7 2.7 0 0 1-.092-.705m.363 1.361a2.7 2.7 0 0 0 .434.565 2.7 2.7 0 0 0 .654.437 2.7 2.7 0 0 1-.654-.438 2.7 2.7 0 0 1-.434-.564" transform="translate(-2.133 -2.133)scale(1.067)"/></svg>