<svg xmlns="http://www.w3.org/2000/svg" viewBox="0 0 64 64"><title>Adwaita Icon Template</title><defs><linearGradient id="a" x1="55.59" x2="98.11" y1="199.6" y2="271" gradientTransform="translate(.433 148.4)scale(.5088)" gradientUnits="userSpaceOnUse"><stop offset="0" stop-color="#cce86c"/><stop offset="1" stop-color="#00c433"/></linearGradient></defs><path fill="none" stroke="url(#a)" stroke-linecap="round" stroke-linejoin="round" stroke-width="5.333" d="M59.46 250.2c-.007-5.453-4.311-9.932-9.759-10.16a4 4 0 0 0-.417-.02h-4.071a4.063 4.063 0 0 0-4.071 4.07v12.212c0 2.255 1.816 4.088 4.07 4.071l3.057-.024c-.546 13.21-16.64 23.96-23.37 23.96v0-2.564a4.063 4.063 0 0 0-4.071-4.07H8.616a4.063 4.063 0 0 0-4.071 4.07v4.071c0 5.607 4.535 10.15 10.14 10.18v.018c26.71 0 44.78-20.23 44.78-38.41" style="paint-order:normal" transform="translate(-1.397 -247.781)scale(1.044)"/></svg>