<svg version="1.1" viewBox="0 0 64 64" xmlns="http://www.w3.org/2000/svg">
 <defs>
  <linearGradient id="a" x1="17.96" x2="63.3" y1="48.93" y2="1.872" gradientTransform="scale(.7905 1.265)" gradientUnits="userSpaceOnUse">
   <stop stop-color="#9717f2" offset="0"/>
   <stop stop-color="#ff00b0" offset="1"/>
  </linearGradient>
  <linearGradient id="b" x1="18.97" x2="46.16" y1="31.44" y2="31.44" gradientTransform="matrix(.7959 0 0 .8243 6.08 6.08)" gradientUnits="userSpaceOnUse">
   <stop stop-color="#05f" offset="0"/>
   <stop stop-color="#00ffd8" offset="1"/>
  </linearGradient>
 </defs>
 <path transform="translate(-.001 2.3e-5) scale(1)" d="M26 51.99c-1.108 0-2 .892-2 2s.892 2 2 2h12c1.107 0 2-.892 2-2s-.893-2-2-2zm-4-44a2 2 0 0 0-2 2 2 2 0 0 0 2 2 2 2 0 0 0 2-2 2 2 0 0 0-2-2" fill="#ff00b0"/>
 <path transform="translate(-.001 2.3e-5) scale(1)" d="M20 0a7.98 7.98 0 0 0-7.999 7.999v48A7.98 7.98 0 0 0 20 63.998h24a7.98 7.98 0 0 0 7.999-7.999v-48A7.98 7.98 0 0 0 44 0zm0 4h24c2.216 0 4 1.784 4 4v48c0 2.216-1.784 4-4 4H20c-2.216 0-4-1.784-4-4V8c0-2.216 1.784-4 4-4" fill="url(#a)"/>
 <path transform="translate(-.001 2.3e-5) scale(1)" d="M31.67 20.8a5.1 5.1 0 0 0-1.878.49h-.003l-6.522 3.13a3.69 3.69 0 0 0-2.093 3.326v.77a15.54 15.54 0 0 0 7.162 13.09l1.522.975a3.96 3.96 0 0 0 4.276 0l1.522-.975a15.54 15.54 0 0 0 7.162-13.09v-.77a3.69 3.69 0 0 0-2.093-3.327L34.2 21.29a5.1 5.1 0 0 0-2.53-.489m.148 2.313a2.8 2.8 0 0 1 1.38.269l6.522 3.127a1.38 1.38 0 0 1 .779 1.238v.77a13.22 13.22 0 0 1-6.092 11.13l-1.525.975a1.64 1.64 0 0 1-1.768 0l-1.525-.976a13.22 13.22 0 0 1-6.092-11.13v-.77c0-.526.304-1.008.779-1.237l6.522-3.127a2.8 2.8 0 0 1 1.023-.269zm4.736 5.021a1.16 1.16 0 0 0-1.081 1.156c0 .492-.283 1.447-.846 2.572-.544 1.087-1.248 2.135-1.904 2.793a1.159 1.159 0 1 0 1.638 1.637c.888-.887 1.73-2.158 2.347-3.39.596-1.193 1.087-2.557 1.087-3.611a1.16 1.16 0 0 0-1.238-1.156z" fill="url(#b)"/>
</svg>
