<svg version="1.1" viewBox="0 0 64 64" xmlns="http://www.w3.org/2000/svg">
 <defs>
  <linearGradient id="a" x1="1" x2="0" y1=".5" y2=".5">
   <stop stop-color="#07f" offset="0"/>
   <stop stop-color="#00f7ff" offset="1"/>
  </linearGradient>
  <linearGradient id="b" y1=".5" y2=".5">
   <stop stop-color="#0cf" offset="0"/>
   <stop stop-color="#c822ff" offset="1"/>
  </linearGradient>
 </defs>
 <path transform="translate(-.00222 -.000226) scale(.9999) translate(4.289 8.261) scale(.866)" d="m27.48 44.36a1.5 1.5 0 0 0-1.5 1.5v6.365h-16.71a1.5 1.5 0 0 0-1.338 0.8223l-4.643 9.143a1.5 1.5 0 0 0 1.34 2.178h54.76a1.5 1.5 0 0 0 1.357-2.135l-4.285-9.141a1.5 1.5 0 0 0-1.357-0.8672h-16.84v-6.365a1.5 1.5 0 0 0-1.5-1.5z" fill="url(#b)"/>
 <path transform="translate(-.00222 -.000226) scale(.9999) matrix(.866 0 0 .866 4.289 8.261)" d="m32-9.539a28.88 28.88 0 0 0 0 57.76 28.88 28.88 0 0 0 0-57.76zm0 4.814c0.8327 0 1.598 0.06661 2.406 0.1484 0.1925 0.01917 0.409-0.02416 0.6016 0 0.2551 0.03369 0.5016 0.1119 0.752 0.1504 0.6932 0.1107 1.284 0.2875 1.953 0.4512 1.237 0.3081 2.461 0.717 3.611 1.203 0.6354 0.2696 1.203 0.5838 1.805 0.9062v0.1484c0.1444 0.06258 0.2173 0.3232 0.4531 0.4531 0.0866 0.04814 0.06663 0.1051 0.1484 0.1484 0.1444 0.07702 0.3316 0.1631 0.3027 0.3027-0.0385 0.1925-0.3164 0.1496-0.4512 0.2988 0.0192 0.2792-0.2266 0.2654-0.2988 0.4531 0.0433 0.1204 0.2796 0.1544 0.2988 0.2988-0.0242 0.154-0.3566 0.1439-0.2988 0.3027 0.2599 0.2022 0.5045 0.04814 0.75 0 0.5391-0.06738 1.021-0.02837 1.354-0.3027-0.0433-0.2551 0.48-0.2182 0.4512-0.4492 0.1348 0.09627 0.3135 0.1929 0.4531 0.2988-0.0529 0.04814-0.09656 0.1263-0.1543 0.1504-0.1027 0.04492-0.2026 0.09652-0.2988 0.1543l-0.4512 0.2969c-0.1107 0.07702-0.3376 0.4531-0.4531 0.4531-0.1396 0-0.3462-0.1832-0.4473-0.1543-0.1444 0.04814-0.1391 0.245-0.3027 0.3027-0.3177 0.1155-0.944-0.1718-1.055 0.3047 0.1348 0.2744 0.6636 0.1428 0.9043 0.2969 0.1444 0.09627 0.4146 0.4399 0.4531 0.6035a2.888 2.888 0 0 1 0 0.9043c-0.154 0.3851-0.6109 0.3036-1.059 0.2988h-0.2988c-0.7461-0.04814-1.468-0.3858-1.805 0.1484 0.0242 0.4092 0.0963 0.6976 0 1.059-0.0674 0.2551-0.4676 0.5247-0.4531 0.7461 0.01 0.1155 0.2738 0.2895 0.3027 0.4531 0.0192 0.08663-0.0385 0.2209 0 0.3027 0.1252 0.2359 0.3801-0.04814 0.6016 0 0.2118 0.04814 0.4531 0.3609 0.4531 0.6016a1.252 1.252 0 0 1-0.1543 0.6016c-0.2118 0.3177-0.5971 0.274-0.9004 0.4473-0.2503 0.1444-0.302 0.5065-0.4512 0.752-0.1588 0.2696-0.3614 0.3708-0.2988 0.7559a1.781 1.781 0 0 1-0.9043 0.9004c-0.13 0.05777-0.3328 0.06181-0.4531 0.1484-0.0963 0.06738-0.164 0.2991-0.2988 0.4531-0.1685 0.1925-0.3617 0.3068-0.4531 0.4512-0.0674 0.1107-0.07623 0.2991-0.1484 0.4531-0.1059 0.2022-0.3183 0.2451-0.4531 0.4473-0.0626 0.09627-0.08103 0.328-0.1484 0.4531-0.154 0.2792-0.3316 0.5045-0.3027 0.75 0.0242 0.231 0.2883 0.2413 0.3027 0.4531 0.0144 0.1155-0.1533 0.1728-0.1484 0.3027 0 0.1829 0.134 0.3048 0.1484 0.4492 0.0337 0.3562-0.2354 0.5104-0.3027 0.7559-0.0337 0.1155 0.0289 0.2006 0 0.2969-0.0578 0.1781-0.294 0.385-0.2988 0.6016-5e-3 0.1492 0.2892 0.2413 0.2988 0.4531 0.0144 0.1396-0.1782 0.3184-0.1445 0.4531 0.0481 0.2599 0.5487 0.5478 0.7461 0.75 0.2744 0.2744 0.6355 0.4631 0.7559 0.752 0.0963 0.2455 0.1091 0.7203 0.2969 0.8984 0.1444 0.1348 0.4254 0.1603 0.6035 0.3047 0.1685 0.13 0.2731 0.1544 0.4512 0.2988 0.2888 0.231 0.7362 0.7876 1.203 0.7539 0.2407-0.04813 0.4824-0.2546 0.752-0.3027 0.2888-0.04814 0.6155-0.1725 0.9043-0.1484 0.2214 0.04814 0.5209 0.1629 0.752 0.1484 0.2407-0.04814 0.4756-0.02812 0.75-0.1484 0.4765-0.207 1.262-0.5494 1.955-0.4531 0.5295 0.07702 0.5288 0.6684 0.9043 0.9043 0.4236 0.04814 0.7119-0.08183 1.049 0 0.2551 0.06258 0.5775 0.4014 0.6016 0.6035 0.0242 0.207-0.268 0.4668-0.2969 0.6016-0.0674 0.2792 0.0481 0.5719 0 0.75-0.0385 0.1396-0.1552 0.3135-0.1504 0.4531 0 0.1252 0.1689 0.4331 0.2988 0.6016 0.1588 0.2022 0.409 0.385 0.6016 0.6016 0.3514 0.4043 0.5045 0.8182 0.75 1.348 0.0626 0.1396-0.0578 0.2837 0 0.457-0.1059 0.8039-0.369 1.357-0.8984 2.252-0.2503 0.2888-0.6064 0.5452-0.6016 0.9062-0.0192 0.8664 0.4897 1.42 0.4512 2.258-0.0866 1.126 0.0866 1.203 0 1.805 0.3803 0.1925 0.1107 0.8036 0 1.203-0.1636 0.4765-0.3597 0.5827-0.4512 0.9004 0.2551 0.1107 0.6144 0.06738 0.8984 0-0.1476 0.154-0.2964 0.3036-0.4473 0.4512a24.07 24.07 0 0 1-3.609 3.01 23.59 23.59 0 0 1-8.279 3.609 24.07 24.07 0 0 1-5.107 0.4531c-0.9146 0-1.819-0.0516-2.711-0.1543-0.7076-0.07702-1.42-0.1592-2.104-0.2988-1.367-0.2792-2.646-0.8558-3.912-1.352-0.04814-0.08183-0.16-0.2084-0.1504-0.3047 0.2503-0.1059 0.7223 0.3562 0.9004 0 0.09627-0.1685-0.1204-0.5815 0-0.75 0.08663-0.1155 0.5778-0.1147 0.7559-0.1484 0.2551-0.04814 0.6076-0.08301 0.752-0.1504 0.1588-0.1011 0.3258-0.4574 0.2969-0.7559-0.0097-0.1396-0.191-0.1737-0.2969-0.2988-0.09627-0.1059 0.06258-0.2017 0-0.3027-0.1155-0.1685-0.405-0.2018-0.4531-0.4473 0.3466-0.06738 0.8529 0.2889 1.354 0.1445 0.2407-0.06258 0.6393-0.5295 0.75-0.7461 0.03369-0.06738-0.0385-0.2161 0-0.3027 0.04814-0.08663 0.1398-0.2507 0.1543-0.2988 0.01263-0.04874 0.0104-0.07333 0.0059-0.08594-3e-3 -0.0065-0.0088-0.01259-0.01172-0.01758v-2e-3c-3.11e-4 -8.36e-4 -0.0017-0.0049-2e-3 -0.0059-0.0013-0.0084 5.9e-4 -0.0213 0.0078-0.04297 0.08663-0.2407 0.3029-0.4235 0.4473-0.6016 0.1107-0.1348 0.352-0.3077 0.4531-0.4473 0.1155-0.1492 0.07625-0.1699 0.1484-0.3047 0.07222-0.4332-0.2552-0.818-0.1445-1.203 0.1107-0.4332 0.7795-0.703 1.203-0.9004 0.1444-0.06738 0.3289-0.109 0.4492-0.1523 0.2888-0.09627 0.6289-0.2026 0.8984-0.2988 0.4525-0.1636 0.5296-0.4923 0.7559-0.9062 0.1059-0.1925 0.2796-0.4572 0.2988-0.6016 0.01917-0.1252-0.02416-0.1476 0-0.2969 0.02416-0.1444-0.0385-0.2895 0-0.4531 0.05294-0.207 0.1504-0.6742 0.1504-0.9004 0-0.1925-0.1445-0.2798-0.1445-0.4531-0.0385-0.6258 0.2162-0.5625 0.4473-0.9043 0.1155-0.1685 0.217-0.4812 0.2988-0.6016 0.3899-0.5776 1.107-0.7743 1.059-1.65-0.0242-0.2888-0.2404-0.9643-0.457-1.06-0.1204-0.04814-0.2711-0.08-0.4492-0.1426-0.568-0.2118-1.062-0.8581-1.654-0.9062h-0.3047c-0.231 0-0.4901-0.1147-0.75-0.1484-0.1636-0.04813-0.5053 0.04814-0.6016 0-0.1444-0.07222-0.1785-0.3713-0.2988-0.4531-0.09627-0.06738-0.3039-0.0955-0.4531-0.1484-0.2359-0.08663-0.3272-0.2835-0.6016-0.3027-0.08663 0-0.2065 0.04814-0.3027 0-0.1444-0.04813-0.3077-0.06376-0.4473-0.1504-0.1733-0.1059-0.3809-0.1496-0.4531-0.2988 0.1588-0.5199-0.3453-0.601-0.4512-0.9043-0.04814-0.1396 0.04814-0.4764 0-0.6016-0.06258-0.1781-0.2558-0.3039-0.4531-0.4531a1.781 1.781 0 0 0-1.049-0.4473c-0.2214-0.04814-0.4911 0.04814-0.7559 0a1.733 1.733 0 0 1-0.9004-0.4531c-0.2022-0.2407-0.275-0.4908-0.4531-0.6016-0.1685-0.1059-0.3356-0.192-0.4512-0.3027-0.04814-0.04814-0.0964-0.03773-0.1445-0.1484-0.09146-0.1781-0.2602-0.2365-0.1543-0.4531-0.1925-0.09627-0.09771 0.188-0.3047 0.1543-0.1877-0.2647-0.3264-0.5301-0.75-0.4531-0.1925 0.04814-0.3753 0.4483-0.6016 0.4531-0.1877 0-0.3561-0.4146-0.6016-0.4531-0.1877-0.04813-0.4716 0.1745-0.6016 0.1504-0.207-0.04814-0.2644-0.1737-0.4473-0.2988-0.1444-0.09627-0.3761-0.3076-0.4531-0.3027-0.2407 0-0.4246 0.476-0.752 0.3027-0.1636-0.207 0.3371-0.2606 0.1445-0.4531-0.1444-0.1444-0.1813 0.08301-0.2969 0.1504-0.1348 0.08663-0.3 0.0955-0.4492 0.1484-0.3369 0.1252-0.6444 0.1631-0.9043 0.3027a0.9627 0.9627 0 0 0-0.4531 0.4531c-0.1107 0.2022-0.2788 0.5919-0.4473 0.6016-0.2022 0-0.2683-0.2209-0.4512-0.3027-0.5536-0.2407-0.8962 0.1436-1.354 0.1484-0.4236 0-1.073-0.6552-1.059-1.055 0.01917-0.2407 0.1254-0.5971 0.1543-0.9004 0.02416-0.2407 0.2979-0.5286 0.3027-0.75 0-0.2984-0.5633-0.4194-0.7559-0.4531-0.4525-0.08183-0.9869 0.2022-1.502 0-0.09627-0.1636 0.0955-0.2875 0.1484-0.4512 0.03369-0.08663-0.03369-0.1977 0-0.2988 0.05777-0.154 0.3809-0.2895 0.4531-0.4531 0.04814-0.1252-0.05294-0.2875 0-0.4512 0.06258-0.1733 0.2892-0.3241 0.2988-0.4492 0.01917-0.1636-0.1688-0.3453-0.2988-0.4512-0.3995 0.04814-0.6732 0.03292-0.9043 0.1484-0.5199 0.2359-0.3757 0.891-0.9004 1.055a4.814 4.814 0 0 1-0.6016 0.1484c-0.08663 0.04814-0.2017-0.0097-0.3027 0 0.0097-0.04813-0.0097-0.1003 0-0.1484 0.02416-0.1107 0.1302-0.192 0.1543-0.3027 0.3369-1.564 0.8694-3.082 1.5-4.512h0.1504c0.1829 0.04813 0.2923 0.2892 0.4512 0.2988 0.4428 0.04813 0.5404-0.4042 0.9062-0.6016 0.3754 0.05294 0.5586-0.04814 0.9004 0 0.231 0.04814 0.5671 0.2835 0.75 0.3027 0.154 0 0.1583-0.1677 0.3027-0.1484 0.1444 0.04813 0.4291 0.274 0.4531 0.4473 0.02416 0.2166-0.2169 0.5152-0.1543 0.7559 0.2262 0.231 0.7313 0.3125 1.059 0.4473 0.207-0.1781 0.02889-0.4997 0-0.75-0.0097-0.1107 0.0097-0.352 0-0.4531-0.02889-0.1733-0.1523-0.298-0.1523-0.4473 0-0.6883 0.5906-0.9384 1.053-1.203 0.1925-0.1155 0.4283-0.3665 0.6016-0.4531 0.2407-0.1204 0.3994-0.03292 0.6016-0.1484 0.3658-0.207 0.6164-0.52 0.9004-0.7559 0.13-0.3129-0.01444-0.7408 0-1.049 0.13-0.08183 0.3135 0 0.4531 0 0.2214-0.04814 0.328-0.328 0.4531-0.4531 0.07219-0.07222 0.2102-0.0782 0.2969-0.1504 0.2214-0.1733 0.2606-0.3742 0.4531-0.4512a1.444 1.444 0 0 1 0.2988-0.1503c0.1444-0.04814 0.3705-0.06568 0.6016-0.1523 0.1492-0.04814 0.5438-0.08676 0.6016-0.1445 0.07219-0.07702-0.01444-0.3483 0-0.459 0.1155-0.5439 0.8664-0.5671 1.357-0.75 0.3369-0.1252 0.6734-0.5205 1.049-0.4531-0.07221 0.2599-0.3614 0.2887-0.2988 0.6016 0.08183 0.438 0.5979-0.08676 0.752-0.1445 0.2936-0.13 0.818-0.3126 1.203-0.457 0.3369-0.1204 0.9192-0.2117 0.6016-0.6016-0.2647-0.04813-0.3705 0.2084-0.6016 0.3047-0.1588 0.04814-0.164-0.136-0.2988-0.1504-0.13 0-0.1728 0.1734-0.3027 0.1445-0.13-0.04813-0.2796-0.2884-0.2988-0.4473-0.05294-0.4043 0.2884-0.4535 0.4473-0.752-0.1107-0.3658-0.5923-0.1583-0.9004-0.3027a0.5295 0.5295 0 0 1 0.4531-0.4473c0.207-0.04814 0.7752 0.03863 0.9004 0.1445 0.0056 0.005264 0.01088 0.01349 0.01367 0.01953 0.02645 0.07171-0.114 0.1916-0.01367 0.2832 0.1252 0.1107 0.2895 0.04814 0.4531 0 0.05777-0.2744-0.3528-0.1207-0.3047-0.2988 0.3273-0.2118 0.9579-0.0955 1.357-0.1484a3.369 3.369 0 0 0 0.752-0.3027c0.1925-0.1107 0.251-0.3381 0.4531-0.1504 0.05294 0.1925-0.04358 0.3472-0.1543 0.4531-0.3706 0.3273-0.7659 0.6734-1.055 1.049 0.1781 0.1733 0.4574 0.1206 0.7559 0.1543 0.1155 0.04814 0.3269-0.02416 0.4473 0 0.1444 0.04814 0.3376-0.04814 0.4531 0 0.2022 0.04814 0.249 0.4473 0.4512 0.4473 0.3273 0 0.1877-0.385 0-0.6016 0.05777-0.2262 0.2322-0.4379 0.1504-0.6016-0.1444-0.2984-0.7231 0.09107-0.752-0.2988-0.01917-0.2407 0.2122-0.2683 0.2988-0.4512-0.0385-0.4621 0.3509-0.4816 0.3027-0.9004-0.02416-0.1733-0.1824-0.1391-0.3027-0.3027-0.06258-0.08663-0.07715-0.3857-0.1445-0.4531-0.2551-0.2118-0.727-0.04775-0.7559-0.4473-0.01444-0.2407 0.03369-0.4968 0-0.752-0.03369-0.2503-0.2394-1.01-0.4512-1.059-0.2696-0.05294-0.4294 0.4534-0.752 0.6074a1.925 1.925 0 0 1-0.75 0.1484c-0.1155-0.04813-0.2902-0.0765-0.3047-0.3027-0.01917-0.2022 0.2277-0.2884 0.3047-0.4473 0.01917-0.0385-0.0097-0.09652 0-0.1543 0.3466-0.09627 0.6965-0.217 1.053-0.2988 0.2022-0.04814 0.3946-0.1119 0.6016-0.1504 0.1444-0.03369 0.3048 0.02416 0.4492 0a24.07 24.07 0 0 1 4.365-0.4512zm-9.775 2.258c-0.154 0.8761-0.9779 1.227-1.955 1.203-0.2214 0.2118-0.02812 0.6068-0.1484 0.9004-0.1011 0.2455-0.5104 0.4704-0.7559 0.4512-0.1781 0-0.4492-0.2827-0.4492-0.4512 0-0.207 0.3274-0.2134 0.1445-0.4492 0.0097-0.04814 0.1062-0.1042 0.1543-0.1523 0.09627-0.05777 0.2036-0.08781 0.3047-0.1504 0.8664-0.5343 1.766-0.928 2.705-1.352zm20.16 0.8984c-0.0866 0.04813-0.07143 0.1062-0.1484 0.1543-0.1829 0.1107-0.3135 0.2459-0.4531 0.2988-0.1974 0.07221-0.4242 0.1246-0.4531 0.3027-0.0242 0.1444 0.16 0.1592 0.1504 0.2988-0.0722 0.1781-0.1108 0.2365-0.1445 0.4531 0.2407 0.3995 0.7456-0.08781 1.049-0.1504 0.1348-0.04814 0.2305-0.0368 0.3027-0.1523 0.0818-0.13 0.08673-0.2663 0.1445-0.4492 0.0722-0.2022 0.3268-0.2731 0.3027-0.4512-0.0192-0.1781-0.4516-0.3288-0.75-0.3047zm-26.32 3.01c0.2262 0.1829 0.548 0.5778 0.1484 0.7559a2.407 2.407 0 0 1-0.752 0.1445c-0.04814 0-0.1099-0.1108-0.1484-0.1445 0.2455-0.2407 0.492-0.5248 0.752-0.7559zm0.8672 0.9043c0.01197-8.849e-4 0.02508-9.025e-4 0.03711 0 0.1107 0 0.164 0.2892 0.2988 0.2988 0.13 0 0.2209-0.1686 0.3027-0.1445 0.2022 0.04814 0.3371 0.4484 0.1445 0.5977-0.154 0.04813-0.1833-0.1696-0.2988-0.1504-0.3273 0.05777-0.5045 0.7712-0.75 0.752-0.231-0.04814-0.3863-0.5835-0.1504-0.752 0-0.1444-0.0097-0.1535 0-0.3027 0.06768-0.08122 0.2365-0.2856 0.416-0.2988zm-1.066 0.1289c0.01037-0.00185 0.0217-8.749e-4 0.0293 0.00195 1e-3 5.348e-4 0.0049 0.00323 0.0059 0.00391 0.0036 0.00329 0.0074 0.00961 0.0098 0.01562-0.02889 0.2551-0.09666 0.3308-0.2988 0.4512-0.3369 0.207-0.6412 0.4624-0.752 0.9004-0.03369 0.13-0.4379 0.482-0.6016 0.4531-0.3803-0.08183 0.2181-0.7945 0.3047-0.9004 0.09627-0.1204 0.191-0.1631 0.2969-0.3027 0.1107-0.1348 0.194-0.3761 0.3047-0.4531a1.203 1.203 0 0 1 0.6015-0.1445v-0.00391c0.0379 0 0.07293-0.01672 0.09961-0.02148zm32.6 0.7734c0.3391 0.00771 0.5186 0.3934 0.6856 0.6055 0.1444 0.1925 0.5161 0.4716 0.752 0.6016 0.1348 0.07221 0.302 0.2354 0.4512 0.3027 0.3129 0.1396 0.886 0.5923 0.9004 0.9004 5e-3 0.154-0.1725 0.3068-0.1484 0.4512 0.2359 0.04814 0.4464-0.3657 0.4512-0.6016 0.4428 0.6258 0.818 1.291 1.203 1.955 0.1781 0.3177 0.435 0.577 0.6035 0.9043-0.2118 0.06258-0.271 0.09666-0.3047 0.2988-0.0481 0.2696 0.1055 0.7086-0.2988 0.752-0.2551 0.04814-0.5529-0.217-0.9043-0.2988-0.1444-0.04814-0.3376 0.04814-0.4531 0-0.2647-0.08663-0.221-0.4427-0.4473-0.6016a2.407 2.407 0 0 0-0.7559-0.3047c-0.13 0-0.1621 0.04814-0.2969 0-0.1636-0.04814-0.4687 0.06738-0.6035 0a1.444 1.444 0 0 1-0.4512-0.4473c-0.0481-0.1781 0.4415-0.302 0.4512-0.4512 0.01-0.1155-0.1244-0.275-0.1484-0.4531-0.0192-0.1059 0.0242-0.2266 0-0.2988-0.0337-0.1252-0.2558-0.1447-0.4531-0.1543h-0.4512c-0.2118 0-0.6356-0.01917-0.9004 0-0.1588 0-0.3039-0.01444-0.4531 0-0.4188 0.04814-0.7226-0.04813-1.055 0a2.888 2.888 0 0 0-0.8984 0.3027c-0.1107 0.04813-0.1603 0.0782-0.3047 0.1504-0.0674 0.04814-0.2102 0.1099-0.2969 0.1484-0.1348 0.06258-0.3232 0.2642-0.4531 0.3027-0.1925 0.04814-0.4102-0.04813-0.752 0-0.2455 0-0.5968-0.1576-0.6016-0.4512-5e-3 -0.4477 0.7795-0.217 1.203-0.2988 0.1588-0.04814 0.2567-0.1872 0.4492-0.3027 0.0963-0.04813 0.06766-0.09745 0.1543-0.1504 0.1444-0.1011 0.4232-0.3356 0.4473-0.4512 0.0192-0.1059-0.0144-0.217 0-0.2988 0.0192-0.1011 0.1728-0.1679 0.3027-0.3027 0.2022-0.2022 0.3513-0.4716 0.6016-0.6016 0.1685-0.08663 0.3761-0.1592 0.4531-0.2988 0.0144-0.154-5e-3 -0.1583 0-0.3027a0.6258 0.6258 0 0 1 0.2988-0.1543c0.2599-0.05777 0.4468 0.01444 0.75 0 0.13 0 0.3135 0.06258 0.4531 0 0.1155-0.07702 0.1872-0.2421 0.3027-0.3047a1.444 1.444 0 0 1 0.4473-0.1445c0.02407-0.00301 0.04771-0.00247 0.07031-0.00195zm2.641 2.861h-0.6016c-0.2118 0-0.4764-0.1107-0.6016 0 0.1781 0.2888 0.5048 0.3809 0.9043 0.4531a0.9627 0.9627 0 0 0 0.2988-0.4531zm-32.28-2.727c0.03624-0.00141 0.06594 0.00343 0.08398 0.02148-0.07702 0.3177-0.8044 0.2649-1.055 0.1445 0.01444-0.1155 0.1458-0.1253 0.3047-0.1445h0.4512c0.07522 0 0.1544-0.01913 0.2148-0.02148zm29.64 0.5801c-0.02226 0.0024-0.04236 0.0189-0.06641 0.04297h-0.0059c-0.1588 0.04813-0.2359 0.4011 0 0.4492 0.1107-0.06738 0.1793-0.2422 0.1504-0.4492-0.0313-0.03369-0.05586-0.04537-0.07813-0.04297zm-31.36 0.04297c-0.207 0.1492-0.4198 0.3481-0.752 0.4492-0.1829 0.05777-0.4175 0.05281-0.4512-0.1445-0.0385-0.2551 0.2875-0.1302 0.4512-0.1543 0.2118-0.04814 0.5065-0.1456 0.752-0.1504zm31.04 0.7324c-0.01861 0.00174-0.03544 0.0078-0.05078 0.01953 0 0.2696 0.0481 0.5141 0 0.75 0.154 0.2984 0.5245 0.0489 0.6016-0.1484 0.0915-0.5006-0.07168-0.6641-0.3027-0.6016-0.06256 0.03911-0.1674-0.02706-0.248-0.01953zm-39.92 11.3h0.00586c0.2696 0.2407 0.4227 0.5931 0.75 0.752a2.407 2.407 0 0 0 0.4531 0.1484c0.1252 0.04814 0.1785-0.0385 0.2988 0 0.2551 0.08663 0.5478 0.2113 0.75 0.3027 0.3081 0.1348 0.6396 0.5979 0.9043 0.752 0.01444 0.154-0.04814 0.3356 0 0.4512 0.1252 0.1685 0.251 0.3385 0.4531 0.4492 0.2407 0.1348 0.3705 0.3453 0.6016 0.4512 0.08183 0.04813 0.1737-0.04814 0.2988 0 0.3177 0.09627 0.4804 0.5301 0.75 0.4531 0.1781-0.05294 0.1254-0.2798 0.1543-0.4531 0.1204-0.13 0.2595-0.2969 0.4473-0.2969 0.2984 0 0.3424 0.4564 0.4531 0.75 0.06258 0.1636 0.2594 0.2798 0.3027 0.4531a4.814 4.814 0 0 1 0 1.348c-0.07702 0.2262-0.4186 0.2115-0.6016 0.457-0.08663 0.1155-0.08689 0.3654-0.1543 0.4473-0.1155 0.1444-0.2102 0.1679-0.2969 0.3027a4.814 4.814 0 0 0-0.1504 0.2988c-0.1444 0.3081-0.4231 0.5288-0.3027 0.9043 0.04814 0.1444 0.3027 0.275 0.3027 0.4531 0 0.2118-0.4175 0.3657-0.4512 0.6016-0.02416 0.1685 0.0955 0.3753 0.1484 0.6016 0.0385 0.1685 0.352 0.3366 0.4531 0.4473 0.1685 0.1925 0.2971 0.5161 0.4512 0.752 0.3032 0.4717 0.4535 1.049 0.752 1.506 0.1588 0.2359 0.4957 0.3513 0.6016 0.6016 0.04814 0.1252-0.04813 0.3376 0 0.4531 0.1733 0.3851 0.9626 0.8622 1.348 1.055 0.1877 0.09146 0.437 0.04827 0.6055 0.1445 0.2551 0.1444 0.7704 0.5296 0.9004 0.7559 0.1155 0.2022 0.09652 0.7302 0.1543 1.053 0.07222 0.4236-0.01917 0.7458 0 1.203 0.0097 0.2503 0.1445 0.3532 0.1445 0.6035 0 0.08663 0.0097 0.3597 0 0.4512 0 0.2984 0.02889 0.5971 0 0.9004a4.814 4.814 0 0 0 0 0.4531c0.01917 0.1444 0.1447 0.164 0.1543 0.2988 0.0097 0.1444-0.1629 0.3405-0.1484 0.4512 0.03369 0.3032 0.2391 0.4728 0.2969 0.752 0.04814 0.2214 0.1832 0.788 0.1543 1.053-0.01917 0.1396-0.135 0.2895-0.1543 0.4531-0.0097 0.1252 0.01917 0.1833 0 0.2988-0.0097 0.1107 0.02889 0.2113 0 0.3027l-0.4473-0.3027a24.07 24.07 0 0 1-3.609-3.008l-0.4531-0.4492c-0.8664-0.9146-1.689-1.968-2.406-3.008-0.06738-0.09627-0.08586-0.2065-0.1484-0.3027a24.07 24.07 0 0 1-2.109-3.908c-0.04814-0.1027-0.09711-0.2052-0.1484-0.3047a24.07 24.07 0 0 1-1.354-4.664 24.07 24.07 0 0 1-0.4531-4.361c0-1.141 0.1448-2.209 0.2988-3.307zm9.387 2.535c0.1638-0.01789 0.1115 0.2898-0.05859 0.3203-0.1781 0.04813-0.1733-0.2122 0-0.2988v-0.0059c0.02166-0.0095 0.04165-0.01377 0.05859-0.01563z" fill="url(#a)"/>
</svg>
