<svg version="1.1" viewBox="0 0 64 64" xmlns="http://www.w3.org/2000/svg">
 <defs>
  <linearGradient id="b" y1=".5" y2=".5">
   <stop stop-color="#879af2" offset="0"/>
   <stop stop-color="#d3208b" offset=".4792"/>
   <stop stop-color="#fda000" offset=".9792"/>
  </linearGradient>
  <linearGradient id="a" y2="1">
   <stop stop-color="#df57ff" offset=".01304"/>
   <stop stop-color="#241efc" offset=".5208"/>
   <stop stop-color="#0eaffe" offset=".9792"/>
  </linearGradient>
 </defs>
 <path transform="translate(0) scale(1) translate(0) scale(1) translate(0 -1e-6) scale(1) translate(9e-4 .002551) scale(1) translate(1e-4 -.0983)" d="m31.99 0.1992c-8.478 0-16.62 3.373-22.62 9.371-5.998 5.998-9.371 14.14-9.371 22.62 0 1.266 0.07993 2.52 0.2266 3.773l0.3066 2.652 0.06836-0.0078c0.8464-1.56 2.499-2.619 4.398-2.619h0.5957l-0.07617-0.6523a26.67 26.67 0 0 1 26.47-29.81 26.67 26.67 0 0 1 26.39 30.46h0.6035c1.903 0 3.558 1.064 4.402 2.629l0.25-1.709a32 32 0 0 0-9.023-27.34c-5.998-5.998-14.14-9.371-22.62-9.371zm-0.3672 7.338a9.332 9.332 0 0 0 0.375 18.66 9.118 9.118 0 0 0 4.822-1.365c0.3537-0.1955 0.6863-0.4182 1-0.668 0.2702-0.2186 0.5283-0.4522 0.7754-0.6992a9.332 9.332 0 0 0-6.973-15.92zm0.375 3.992a5.337 5.337 0 0 1 3.772 1.56 4.799 4.799 0 0 1 0.7793 1.014 5.732 5.732 0 0 0-2.551-0.5859 6.004 6.004 0 0 0-5.998 6.006 4.666 4.666 0 0 0 0.0918 0.9688 5.337 5.337 0 0 1 0.1348-7.402 5.337 5.337 0 0 1 3.772-1.56zm15.26 11.34a9.332 9.332 0 0 0-9.123 13.12h4.424l-0.7129-1.506a5.332 5.332 0 0 1 1.039-6.064 5.337 5.337 0 0 1 7.398-0.1367 4.666 4.666 0 0 0-0.9492-0.08984 6.004 6.004 0 0 0-5.998 6.004 6.004 6.004 0 0 0 0.2734 1.793h11.57a9.398 9.398 0 0 0 0.8047-3.799 9.332 9.332 0 0 0-8.73-9.318zm-29.57 0.6562a9.332 9.332 0 0 0-9.143 12.46h4.455l-0.1836-0.293c-0.5332-0.8531-0.8125-1.838-0.8125-2.838 0-1.413 0.5588-2.774 1.559-3.773a5.337 5.337 0 0 1 6.414-0.8574 6.012 6.012 0 0 0-5.307 5.969 6.004 6.004 0 0 0 0.2734 1.793h11.45a5.998 5.998 0 0 0 0.2734-1.793c-0.0018-0.2071-0.0091-0.4139-0.02148-0.6191 0.01333-0.2399 0.02059-0.4788 0.02148-0.7188a9.332 9.332 0 0 0-8.978-9.33zm14.31 3.33c-2.575 0-4.666 2.091-4.666 4.666 0 2.103 1.395 3.883 3.309 4.465h2.715c1.914-0.5817 3.309-2.362 3.309-4.465 0-2.575-2.091-4.666-4.666-4.666zm-0.09375 2.668a1.998 1.998 0 0 1 1.506 0.5859 1.998 1.998 0 1 1-2.824 2.826c-0.3732-0.3732-0.5879-0.8809-0.5879-1.414a1.998 1.998 0 0 1 1.906-1.998z" fill="url(#b)"/>
 <path transform="translate(0) scale(1) translate(0) scale(1) translate(0 -1e-6) scale(1) translate(9e-4 .002551) scale(1) translate(1e-4 -.0983) scale(1)" d="m5 35.99c-2.761 0-5 2.239-5 5v17.99a5 5 0 0 0 5 5h53.98c2.761 0 5-2.239 5-5v-17.99c0-2.761-2.239-5-5-5zm-1.002 3.75h3.334c0.1381 1.4e-5 0.25 0.1119 0.25 0.25v2.666c-1.37e-5 0.1381-0.1119 0.25-0.25 0.25h-3.334c-0.1381-1.4e-5 -0.25-0.1119-0.25-0.25v-2.666c1.38e-5 -0.1381 0.1119-0.25 0.25-0.25zm6 0h3.998c0.1381 1.4e-5 0.25 0.1119 0.25 0.25v2.666c-1.4e-5 0.1381-0.1119 0.25-0.25 0.25h-3.998c-0.1381-1.4e-5 -0.25-0.1119-0.25-0.25v-2.666c1.38e-5 -0.1381 0.1119-0.25 0.25-0.25zm6.664 0h4c0.1381 1.4e-5 0.25 0.1119 0.25 0.25v2.666c-1.4e-5 0.1381-0.1119 0.25-0.25 0.25h-4c-0.1381-1.4e-5 -0.25-0.1119-0.25-0.25v-2.666c1.4e-5 -0.1381 0.1119-0.25 0.25-0.25zm6.666 0h3.998c0.1381 1.4e-5 0.25 0.1119 0.25 0.25v2.666c-1.4e-5 0.1381-0.1119 0.25-0.25 0.25h-3.998c-0.1381-1.4e-5 -0.25-0.1119-0.25-0.25v-2.666c1.4e-5 -0.1381 0.1119-0.25 0.25-0.25zm6.664 0h4c0.1381 1.4e-5 0.25 0.1119 0.25 0.25v2.666c-1.4e-5 0.1381-0.1119 0.25-0.25 0.25h-4c-0.1381-1.4e-5 -0.25-0.1119-0.25-0.25v-2.666c1.4e-5 -0.1381 0.1119-0.25 0.25-0.25zm6.666 0h3.998c0.1381 1.4e-5 0.25 0.1119 0.25 0.25v2.666c-1.4e-5 0.1381-0.1119 0.25-0.25 0.25h-3.998c-0.1381-1.4e-5 -0.25-0.1119-0.25-0.25v-2.666c1.4e-5 -0.1381 0.1119-0.25 0.25-0.25zm6.664 0h4c0.1381 1.4e-5 0.25 0.1119 0.25 0.25v2.666c-1.4e-5 0.1381-0.1119 0.25-0.25 0.25h-4c-0.1381-1.4e-5 -0.25-0.1119-0.25-0.25v-2.666c1.4e-5 -0.1381 0.1119-0.25 0.25-0.25zm6.666 0h3.998c0.1381 1.4e-5 0.25 0.1119 0.25 0.25v2.666c-1.4e-5 0.1381-0.1119 0.25-0.25 0.25h-3.998c-0.1381-1.4e-5 -0.25-0.1119-0.25-0.25v-2.666c1.4e-5 -0.1381 0.1119-0.25 0.25-0.25zm6.664 0h3.332c0.1381 1.4e-5 0.25 0.1119 0.25 0.25v2.666c-1.4e-5 0.1381-0.1119 0.25-0.25 0.25h-3.332c-0.1381-1.4e-5 -0.25-0.1119-0.25-0.25v-2.666c1.4e-5 -0.1381 0.1119-0.25 0.25-0.25zm-52.65 5.332h13.33c0.1381 1.4e-5 0.25 0.1119 0.25 0.25v9.33c-1.4e-5 0.1381-0.1119 0.25-0.25 0.25h-13.33c-0.1381-1.4e-5 -0.25-0.1119-0.25-0.25v-9.33c1.38e-5 -0.1381 0.1119-0.25 0.25-0.25zm16 0h10.66c0.1381 1.4e-5 0.25 0.1119 0.25 0.25v9.33c-1.4e-5 0.1381-0.1119 0.25-0.25 0.25h-10.66c-0.1381-1.4e-5 -0.25-0.1119-0.25-0.25v-9.33c1.4e-5 -0.1381 0.1119-0.25 0.25-0.25zm13.33 0h10.66c0.1381 1.4e-5 0.25 0.1119 0.25 0.25v9.33c-1.4e-5 0.1381-0.1119 0.25-0.25 0.25h-10.66c-0.1381-1.4e-5 -0.25-0.1119-0.25-0.25v-9.33c1.4e-5 -0.1381 0.1119-0.25 0.25-0.25zm13.33 0h13.33c0.1381 1.4e-5 0.25 0.1119 0.25 0.25v9.33c-1.4e-5 0.1381-0.1119 0.25-0.25 0.25h-13.33c-0.1381-1.4e-5 -0.25-0.1119-0.25-0.25v-9.33c1.4e-5 -0.1381 0.1119-0.25 0.25-0.25zm-42.66 12h3.334c0.1381 1.4e-5 0.25 0.1119 0.25 0.25v2.666c-1.37e-5 0.1381-0.1119 0.25-0.25 0.25h-3.334c-0.1381-1.4e-5 -0.25-0.1119-0.25-0.25v-2.666c1.38e-5 -0.1381 0.1119-0.25 0.25-0.25zm6 0h3.998c0.1381 1.4e-5 0.25 0.1119 0.25 0.25v2.666c-1.4e-5 0.1381-0.1119 0.25-0.25 0.25h-3.998c-0.1381-1.4e-5 -0.25-0.1119-0.25-0.25v-2.666c1.38e-5 -0.1381 0.1119-0.25 0.25-0.25zm6.664 0h4c0.1381 1.4e-5 0.25 0.1119 0.25 0.25v2.666c-1.4e-5 0.1381-0.1119 0.25-0.25 0.25h-4c-0.1381-1.4e-5 -0.25-0.1119-0.25-0.25v-2.666c1.4e-5 -0.1381 0.1119-0.25 0.25-0.25zm6.666 0h3.998c0.1381 1.4e-5 0.25 0.1119 0.25 0.25v2.666c-1.4e-5 0.1381-0.1119 0.25-0.25 0.25h-3.998c-0.1381-1.4e-5 -0.25-0.1119-0.25-0.25v-2.666c1.4e-5 -0.1381 0.1119-0.25 0.25-0.25zm6.664 0h4c0.1381 1.4e-5 0.25 0.1119 0.25 0.25v2.666c-1.4e-5 0.1381-0.1119 0.25-0.25 0.25h-4c-0.1381-1.4e-5 -0.25-0.1119-0.25-0.25v-2.666c1.4e-5 -0.1381 0.1119-0.25 0.25-0.25zm6.666 0h3.998c0.1381 1.4e-5 0.25 0.1119 0.25 0.25v2.666c-1.4e-5 0.1381-0.1119 0.25-0.25 0.25h-3.998c-0.1381-1.4e-5 -0.25-0.1119-0.25-0.25v-2.666c1.4e-5 -0.1381 0.1119-0.25 0.25-0.25zm6.664 0h4c0.1381 1.4e-5 0.25 0.1119 0.25 0.25v2.666c-1.4e-5 0.1381-0.1119 0.25-0.25 0.25h-4c-0.1381-1.4e-5 -0.25-0.1119-0.25-0.25v-2.666c1.4e-5 -0.1381 0.1119-0.25 0.25-0.25zm6.666 0h3.998c0.1381 1.4e-5 0.25 0.1119 0.25 0.25v2.666c-1.4e-5 0.1381-0.1119 0.25-0.25 0.25h-3.998c-0.1381-1.4e-5 -0.25-0.1119-0.25-0.25v-2.666c1.4e-5 -0.1381 0.1119-0.25 0.25-0.25zm6.664 0h3.332c0.1381 1.4e-5 0.25 0.1119 0.25 0.25v2.666c-1.4e-5 0.1381-0.1119 0.25-0.25 0.25h-3.332c-0.1381-1.4e-5 -0.25-0.1119-0.25-0.25v-2.666c1.4e-5 -0.1381 0.1119-0.25 0.25-0.25z" fill="url(#a)"/>
</svg>
