<svg xmlns="http://www.w3.org/2000/svg" xmlns:xlink="http://www.w3.org/1999/xlink" viewBox="0 0 64 64"><defs><linearGradient id="a" x1=".001" x2="57.25" y1="57.58" y2=".336" gradientTransform="matrix(.6986 0 0 .5589 11.99 15.82)" gradientUnits="userSpaceOnUse"><stop offset="0" stop-color="#ff3401"/><stop offset="1" stop-color="#ff00d6"/></linearGradient><linearGradient xlink:href="#a" id="b" x1="-10.9" x2="45.28" y1="38.7" y2="-9.589" gradientTransform="matrix(.6986 0 0 .5589 11.99 15.82)" gradientUnits="userSpaceOnUse"/></defs><path fill="url(#b)" d="M4.371 10.46v2.454h3.682V10.46zm35.57 0v2.454h3.681V10.46zm-35.57 4.908v2.454h3.682v-2.454zm35.57 0v2.454h3.681v-2.454zm-35.57 4.908v2.453h3.682v-2.453zm35.57 0v2.453h3.681v-2.453zm-35.57 4.906v2.453h3.682v-2.453zm35.57 0v2.453h3.681v-2.453zm-35.57 4.906v2.454h3.682v-2.454zm35.57 0v2.454h3.681v-2.454zm-35.57 4.907v2.455h3.682v-2.455zm35.57 0v2.455h3.681v-2.455z" transform="translate(-7.124 -7.055)scale(1.63)"/><path fill="url(#a)" d="M31.99 16.01a124 124 0 0 0-5.163.117l-2.013.093-1.921.113-1.8.126-1.64.125a7.6 7.6 0 0 0-6.986 6.849l-.078.851-.151 1.82a81 81 0 0 0-.243 5.904 82 82 0 0 0 .243 5.904l.15 1.82.079.852a7.6 7.6 0 0 0 6.986 6.849l1.644.125 1.8.125 1.922.114 2.008.092a124 124 0 0 0 5.163.118 124 124 0 0 0 5.163-.118l2.008-.092 1.926-.114 1.797-.125 1.64-.125a7.6 7.6 0 0 0 6.992-6.849l.078-.852.151-1.82c.14-1.886.243-3.939.243-5.904s-.103-4.019-.243-5.904l-.15-1.82-.079-.851a7.6 7.6 0 0 0-6.986-6.85l-1.644-.124-1.8-.126-1.922-.113-2.008-.093c-1.7-.072-3.453-.117-5.163-.117zm0 3.998a122 122 0 0 1 4.999.114l1.956.093 1.878.11 1.762.121 1.616.125a3.6 3.6 0 0 1 3.332 3.245c.234 2.418.453 5.427.453 8.192s-.219 5.773-.453 8.192a3.6 3.6 0 0 1-3.332 3.245l-1.616.125-1.762.121-1.878.109-1.956.094c-1.652.068-3.349.113-4.999.113s-3.347-.045-4.999-.113l-1.956-.094-1.878-.109-1.762-.12-1.616-.126c-1.778-.146-3.162-1.502-3.332-3.245-.234-2.418-.453-5.427-.453-8.192s.219-5.773.453-8.192a3.6 3.6 0 0 1 3.332-3.245l1.616-.125 1.762-.12 1.878-.11 1.956-.095c1.652-.067 3.349-.113 4.999-.113m-2.851 5.95a1.2 1.2 0 0 0-1.149 1.199v9.704l.012.18a1.2 1.2 0 0 0 1.788.859l8.398-4.852.172-.118a1.2 1.2 0 0 0-.172-1.96l-8.398-4.848-.163-.081a1.2 1.2 0 0 0-.489-.082z" transform="translate(.002 -.01)"/></svg>