<svg xmlns="http://www.w3.org/2000/svg" fill="none" viewBox="0 0 64 64"><defs><linearGradient id="a" x1="40" x2="40" y1="6" y2="40" gradientUnits="userSpaceOnUse"><stop offset="0" stop-color="#dc18fc"/><stop offset="1" stop-color="#8e1eff"/></linearGradient><linearGradient id="b" x1="24" x2="24" y1="58" y2="24" gradientUnits="userSpaceOnUse"><stop offset="0" stop-color="#5570ff"/><stop offset="1" stop-color="#4dd3ff"/></linearGradient><linearGradient id="d" x1="27" x2="27" y1="48" y2="34" gradientUnits="userSpaceOnUse"><stop offset="0" stop-color="#5570ff"/><stop offset="1" stop-color="#4dd3ff"/></linearGradient></defs><path stroke="url(#a)" stroke-width="4" d="M20 24V9c0-1.662 1.338-3 3-3h34.59c.89 0 1.337 1.077.707 1.707l-4 4a1 1 0 0 0-.293.707v24.59c0 1.662-1.338 3-3 3h-7.5" transform="translate(-3.837 -3.837)scale(1.12)"/><path stroke="url(#b)" stroke-width="4" d="M6.414 24c-.89 0-1.337 1.077-.707 1.707l4 4a1 1 0 0 1 .293.707v24.59c0 1.662 1.338 3 3 3h28c1.662 0 3-1.338 3-3v-28c0-1.662-1.338-3-3-3H6.41z" transform="translate(-3.837 -3.837)scale(1.12)"/><path stroke="url(#d)" stroke-width="2" d="M17 34a1 1 0 1 0 0 2h20a1 1 0 1 0 0-2zm0 6a1 1 0 1 0 0 2h20a1 1 0 1 0 0-2zm0 6a1 1 0 1 0 0 2h14.8a1 1 0 1 0 0-2z" transform="translate(-3.837 -3.837)scale(1.12)"/></svg>