<svg xmlns="http://www.w3.org/2000/svg" viewBox="0 0 64 64"><defs><linearGradient id="a" x1="1" x2="0" y1="1"><stop offset="0" stop-color="#f0f"/><stop offset="1" stop-color="#0cf"/></linearGradient></defs><path fill="url(#a)" d="M23.78.508C17.42.564 11.33 3.1 6.87 7.545c-4.454 4.457-6.93 10.47-6.872 16.7.011 1.181.996 2.131 2.2 2.12s2.173-.977 2.162-2.158c-.047-5.102 1.98-10.02 5.624-13.67 3.654-3.637 8.631-5.713 13.83-5.76 5.204-.046 10.22 1.943 13.94 5.514 3.71 3.582 5.828 8.461 5.876 13.56.044 4.855-1.779 9.556-5.117 13.15s-7.942 5.804-12.88 6.211c-1.197.1-2.09 1.136-1.992 2.312.099 1.177 1.154 2.052 2.358 1.953 6.028-.492 11.66-3.204 15.74-7.594 4.073-4.389 6.31-10.13 6.255-16.07-.058-6.235-2.644-12.2-7.179-16.58C36.269 2.867 30.135.44 23.775.496zM5.63 32.018a2.14 2.14 0 0 0-1.893 3.15 23.6 23.6 0 0 0 10.67 10.141A2.137 2.137 0 0 0 17.26 44.3a2.15 2.15 0 0 0-1.014-2.858 19.3 19.3 0 0 1-8.739-8.295 2.13 2.13 0 0 0-1.875-1.126z" transform="translate(.004 .012)scale(1.333)"/><path fill="#ff4500" stroke="#ff69b3" stroke-width=".003" d="M20.155 19.172c-.68-.232-1.858-1.233-1.858-1.59 0-.17.562-.973.723-1.027.152-.053.455.116 1.116.634.83.652.741.634 1.116.313.402-.33.455-.688.125-.983-.116-.107-.697-.5-1.286-.866-1.215-.75-1.51-.973-1.51-1.17 0-.205.823-1.41 1.126-1.66.304-.233.509-.278 1.885-.412.866-.08.893-.08 1.197.143.598.43 1.438 1.215 1.438 1.35 0 .062-.16.285-.357.49l-.366.367-.92-.545c-1.036-.625-1.152-.625-1.402-.009-.206.473-.224.455 1.483 1.625.714.491 1.322.947 1.34 1.009.044.107-.608 1.786-.813 2.099-.054.09-.42.17-1.143.241-1.34.143-1.456.143-1.893-.009"/><path fill="#1e8fff" stroke="#ff4500" stroke-width=".002" d="M25.345 18.692c-.608-.598-.626-.616-.554-.91a4 4 0 0 0 .053-.796c0-.267-.009-.705-.017-.973-.01-.67.285-2.001.482-2.134.188-.134 1.116-.134 1.393 0 .286.134.304.41.134 1.723-.223 1.759-.223 1.786-.107 1.946.09.116.223.152.571.143.527-.01.947-.215 1.036-.5.027-.116.036-.724.01-1.35L28.3 14.69l.625.044c.348.018.786.08.974.134l.339.09.027.464c.036.563-.268 2.242-.492 2.706-.223.492-.732.992-1.099 1.09-.17.045-.848.09-1.509.09H25.97"/><path fill="#ffa400" stroke="#ff4500" stroke-width=".002" d="M31.585 19.382c-.224-.09-.25-.16-.411-1.268-.09-.545-.134-1.41-.134-2.242 0-1.045-.027-1.384-.117-1.5-.223-.285-.16-.42.277-.553.42-.125 2.036-.447 2.411-.474.295-.018 2.295 1.045 2.295 1.224 0 .536-.285 1.786-.464 2.09-.348.572-.92.992-1.483 1.1-.83.151-.884.196-1 .883-.063.322-.143.626-.188.67-.116.107-.964.161-1.188.072m2.215-3.054c.25-.241.375-.76.241-1-.107-.197-.518-.358-.928-.366l-.313-.01.009.661c0 .411.045.724.116.795.17.197.625.152.875-.08"/><path fill="#ffd600" stroke="#ff4500" stroke-width=".002" d="M41.295 19.392c-.376-.24-.599-4.956-.268-5.636.089-.196.17-.223.821-.312a15 15 0 0 1 1.331-.107c.688-.01.983.107 1.93.777l.455.33-.045.66c-.062.858-.232 1.287-.705 1.769-.206.214-.385.429-.385.482 0 .045.277.34.617.643.428.393.59.59.553.688-.053.116-1.179.696-1.375.696-.053 0-.33-.33-.625-.723-.634-.866-.848-1.072-.947-.92-.035.063-.098.402-.125.768-.026.402-.098.706-.178.777-.143.134-.893.214-1.054.107m2.099-2.938c.312-.178.527-.59.527-.982 0-.322-.375-.697-.795-.768-.491-.09-.572.027-.572.866 0 .607.027.741.179.884.205.205.312.205.66 0"/><path fill="#00bfff" stroke="#00bfff" stroke-width=".002" d="M36.515 19.242c-.26-.018-.51-.071-.563-.116-.134-.098-.322-1.322-.241-1.554.027-.098.125-.277.214-.393.322-.446.536-1.429.536-2.536.009-1.027.009-1.036.205-1.036.313 0 2.697.402 3.063.51.313.097.322.115.349.526.044.786-.134.875-1.188.599-.652-.179-.849-.143-1.01.151-.142.25-.107.554.063.608.08.027.411.08.733.125.321.044.598.098.625.116.098.098.045.723-.071.786-.063.045-.411.071-.76.08-.723 0-.848.063-.848.447 0 .473.205.554 1.215.5 1.072-.071 1.161-.018 1.233.75l.045.491-1.563-.009a60 60 0 0 1-2.036-.044"/><path fill="#9acd31" stroke="#9acd31" stroke-width=".002" d="M21.465 28.412c-.027-.044-.09-.768-.134-1.608-.152-2.51-.134-2.492-1.1-1.49-.473.49-.696.66-.794.625-.08-.027-.358-.358-.626-.742-.267-.384-.535-.696-.59-.696-.133 0-.222.223-.847 2.08-.26.769-.527 1.439-.59 1.492-.152.125-1.17-.25-2.036-.741-.536-.304-.58-.34-.536-.545.143-.536 2.063-4.975 2.697-6.207l.197-.384h.473c.527 0 1.09.107 1.215.223.045.036.259.491.482 1 .25.572.456.938.545.956.134.017.724-.795 1.054-1.474.143-.295.17-.304.58-.304.412 0 1.403.125 1.466.187.178.17 1.652 7.082 1.536 7.19-.063.063-2.456.51-2.688.51-.143 0-.277-.036-.304-.072"/><path fill="#ff0" stroke="#ff4500" stroke-width=".002" d="M25.535 28.222c-.152-.178-.42-1.116-.706-2.554l-.286-1.393.438-1.509c.241-.821.509-1.634.598-1.813l.152-.303.768.009c.866.017 2.26.232 2.447.375.179.134.706 1.483 1.456 3.715.626 1.849.911 2.778.911 2.983 0 .125-.41.24-1.268.357-.947.116-1.063.045-1.206-.714-.178-.983-.116-.902-.571-.858-1.67.143-2.027.313-2.117 1.036-.08.58-.402.929-.617.67m2.608-3.68c.063-.66-.285-1.652-.634-1.831q-.428-.216-.616.598c-.107.456-.152 1.42-.071 1.5.098.09.687.152.991.108.277-.045.304-.072.33-.375"/><path fill="#ff8c00" stroke="#ff4500" stroke-width=".002" d="M32.565 28.062c-.304-.223-.858-2.152-1.206-4.242-.17-1.009-.304-2.58-.25-2.804.062-.223.267-.277 2.348-.598l1.68-.26.75.439c2.197 1.268 2.152 1.215 1.893 2.492-.241 1.206-.313 1.34-.965 1.786-.304.205-.572.428-.59.482-.026.062.313.438.778.857 1.215 1.1 1.197.974.17 1.447-.483.224-.956.429-1.064.456-.24.062-.384-.09-1.233-1.277-.616-.866-.91-1.143-.928-.858-.045.947-.161 1.965-.242 2.027-.143.143-.964.179-1.143.054m2.18-3.769c.5-.17.562-.241.678-.83.107-.572.045-.876-.214-1.01-.17-.089-1.286-.393-1.456-.393-.08 0-.009 2.152.08 2.286.072.108.474.09.911-.053"/><path fill="#3fdfcf" stroke="#ff4500" stroke-width=".002" d="M38.865 28.112c.125-1.375.08-2.072.089-3 .018-2.17.116-4.305.197-4.43.089-.135.866-.027 1.849.258l.625.17v.42c0 .714-.884 5.796-1.1 6.314-.053.143-.169.232-.356.268-.358.062-1.233.062-1.304 0"/><path fill="#7cfb00" stroke="#ff4500" stroke-width=".002" d="M44.355 28.152c-.822-.268-1.536-.527-1.59-.58-.143-.143-.626-1.59-.68-2.054-.07-.536.18-2.143.394-2.608.196-.429.83-1.304 1.304-1.795.303-.313.357-.34.687-.304.197.018.929.098 1.634.17 1.92.196 1.777.125 2.483 1.152.34.482.75 1.116.929 1.42.313.554.313.554.214 1.072-.125.67-.535 2.045-.714 2.375-.071.134-.33.366-.572.518-.402.25-2.054.982-2.429 1.08-.098.027-.812-.17-1.66-.447m2.365-2.554c.384-.205.438-.267.411-.437a8 8 0 0 1-.09-.67c-.07-.58-.32-.893-.874-1.072-.76-.25-.956-.179-1.393.464-.51.75-.456 1.08.303 1.795l.483.447.357-.143c.197-.08.554-.259.804-.384"/><path fill="#ffa400" stroke="#ff4500" stroke-width=".002" d="M22.895 41.602c-.938-.321-1.331-.527-1.491-.768-.866-1.742-1.268-3.67-1.885-5.475-.242-.696-.438-1.33-.438-1.42 0-.33 2.277-2.519 2.626-2.519.205 0 .268.206.643 2.143.33 1.706.482 2.18.723 2.18.161 0 .5-.358.724-.787.437-.84.777-1 1.17-.571.687.777.821 1.277.92 1.179.071-.063.009-1.09.044-2.224.036-.911.098-1.742.143-1.85.134-.32.393-.473.884-.535.456-.045 1.5 1.009 1.946 1.375l-.553 4.09c-.393 2.983-2.18 5.367-2.206 5.42-.036.099-.608-.419-.902-.812l-.161-.215-.295.385c-.366.473-.652.696-.875.696-.098-.009-.554-.134-1.018-.295"/><path fill="#ff69b3" stroke="#ff4500" stroke-width=".002" d="M35.075 41.322c-.072-.053-.152-.205-.179-.348-.116-.607-.625-.965-1.849-1.313-1.42-.402-1.331-.41-2.134.304-.58.527-.723.616-.956.616-.464 0-.562-.223-.5-1.161.08-1.215.268-1.84 1.054-3.474.58-1.215 1.625-3.063 1.85-3.287.205-.205.25-.214.642-.17.554.072 1.34.313 1.661.518.384.25.554.661.974 2.42.214.893.643 2.563.947 3.707.348 1.322.527 2.117.482 2.17-.125.116-1.84.143-1.992.018m-1.188-4.01c0-1.313-.17-1.75-.598-1.483-.42.259-1.215 1.911-1.018 2.1.125.115.58.196 1.16.213l.456.01"/><path fill="#1e8fff" stroke="#ff4500" stroke-width=".003" d="M38.485 41.942c-.134-.071-.51-.768-.545-4.332-.036-4.43.384-5.153.74-5.384.313-.205 1.09-.268 2.18-.16 1.33.133 1.974.276 3.018.687 1.134.277 1.41 1.1 1.956 1.893.652.947-.322 2.036-.465 2.35-.08.187-1.34.365-1.456.669-.196.554-.08.312 1.322 1.58.295.269.036 1.198.036 1.287-.304.446-.875 1.009-1.366 1.063-.071-.063-.473-.625-.893-1.25-1.108-1.661-1.09-1.643-1.742-1.643-.76 0-.822.098-1.01 1.599-.088.67-.187 1.268-.213 1.34-.108.214-1.295.446-1.563.304m4.207-5.528c1.125-.894 1.036-.858.151-1.617-.321-.42-2.099-.938-2.375-.465-.125.286-.187 2.93-.053 3.135.59-.205 1.885-.741 2.277-1.054"/><path fill="#ff0" stroke="#ff4500" stroke-width=".002" d="M32.035 54.362c2.93-.643 1.885-2.33 2.787-4.564.285-.696 1.786-3.027 1.742-3.099-1.304-1.786-2.715-2.519-3.126-2.519-.242 0-.313.206-.76 2.143-.393 1.706-.732 2.947-1.009 2.947-.196 0-.437-1.125-.705-1.554-.527-.84-.93-1-1.393-.571-.822.777-.375 2.34-.492 2.25-.08-.062-.84-1.705-.893-2.84-.036-.91.125-2.196.072-2.303-.17-.322-.474-.474-1.063-.536-.536-.045-1.777 1.009-2.304 1.384l1.518 4.207c1.027 2.84 1.732 5.243 1.75 5.296.045.098.822-.358 1.08-.813l.724-1.286c.384.384.33 2.143.857 2.152.117-.009.661-.134 1.215-.295"/></svg>