<svg version="1.1" viewBox="0 0 64 64" xmlns="http://www.w3.org/2000/svg">
 <defs>
  <style>.ColorScheme-Text { color:#ebdbb2; } .ColorScheme-Highlight { color:#458588; }</style>
  <linearGradient id="a" x2="0" y2="1">
   <stop stop-color="#e5f230" offset="0"/>
   <stop stop-color="#24d864" offset="1"/>
  </linearGradient>
 </defs>
 <path transform="translate(0) scale(1) translate(0) scale(1) translate(-.00036 2e-6) scale(1) translate(.003909) scale(.9999) translate(4.171 6.853) scale(.853)" d="m15.94-8.034c-2.316 0.09278-4.397 1.697-5.017 4.016l-5.03 18.81a3 3 0 0 0-0.00229 0c-0.7629 2.853 0.9862 5.872 3.835 6.636l13.86 3.716a3 3 0 0 0 0.00229 0.002289c2.728 0.7311 5.544-0.8674 6.462-3.492l8.683 2.326c-0.5178 2.738 1.125 5.526 3.858 6.258a3 3 0 0 0 0.00229 0l13.8 3.691c2.855 0.7648 5.869-0.9812 6.633-3.833l5.042-18.82c0.7676-2.87-0.9839-5.877-3.844-6.642l-46.66-12.48c-0.5374-0.1438-1.085-0.1994-1.612-0.1786a3 3 0 0 0-0.004579-0.00229l-0.00687-0.00458zm0.6297 6.127 45.55 12.19-4.74 17.7-12.76-3.414c0.5195-2.737-1.132-5.523-3.856-6.253l-9.647-2.587c-2.73-0.731-5.551 0.8569-6.473 3.49l-12.81-3.439 4.735-17.69zm-9.333 26.76c-2.334 0.09304-4.4 1.691-5.024 4.021l-5.028 18.82c-0.7644 2.858 0.9628 5.875 3.826 6.642a3 3 0 0 0 0.009159 0l46.66 12.49c2.858 0.765 5.875-0.9728 6.642-3.838l5.028-18.81c0.7624-2.851-0.9782-5.869-3.824-6.636h-0.009159l-13.8-3.7c-2.802-0.7507-5.707 0.9392-6.546 3.7l-8.648-2.319c0.6574-2.807-1.023-5.726-3.817-6.475l-13.85-3.707c-0.4743-0.1271-1.021-0.2118-1.623-0.1878l0.00458-0.00229zm0.6228 6.134 12.79 3.425c-0.6574 2.808 1.019 5.726 3.815 6.475l9.658 2.587c2.799 0.7498 5.696-0.945 6.537-3.702l12.74 3.416-4.726 17.68-45.55-12.18 4.737-17.7z" fill="url(#a)"/>
</svg>
