<svg xmlns="http://www.w3.org/2000/svg" viewBox="0 0 64 64"><defs><linearGradient id="a" y2="1"><stop offset="0" stop-color="#a5f86a"/><stop offset=".979" stop-color="#2fce92"/></linearGradient></defs><path fill="url(#a)" d="M703.6 60.72a86.084 86.084 0 0 0-74.28 43.052l-102.5 177.5a222 222 0 0 0-26.8-1.615h-.004c-9.069 0-18.01.55-26.79 1.615l-102.5-177.5a86.1 86.1 0 0 0-23.8-26.5 86 86 0 0 0-28.48-13.62 86 86 0 0 0-21.57-2.93 86 86 0 0 0-25.7 3.703 86.3 86.3 0 0 0-18.06 7.826l-.115.066a86.1 86.1 0 0 0-40.11 52.28 86.09 86.09 0 0 0 8.6 65.33l102.5 177.5a220.3 220.3 0 0 0-26.84 46.37H92.25a86.1 86.1 0 0 0-60.88 25.22 86.12 86.12 0 0 0-25.22 60.88v.131c0 22.83 9.07 44.73 25.22 60.88a86.14 86.14 0 0 0 60.88 25.22h204.9a220.2 220.2 0 0 0 26.84 46.37l-102.5 177.5A86.105 86.105 0 0 0 253 927.608l.115.067a86.06 86.06 0 0 0 43.05 11.53 86.088 86.088 0 0 0 74.56-43.054l102.5-177.5a223 223 0 0 0 26.79 1.615h.004c9.07 0 18.01-.55 26.8-1.615l102.5 177.5a86.12 86.12 0 0 0 52.28 40.12 86.118 86.118 0 0 0 65.33-8.596l.113-.067a86.07 86.07 0 0 0 40.11-52.28 86.1 86.1 0 0 0-8.598-65.33l-102.5-177.5a220.3 220.3 0 0 0 26.84-46.37h204.9c22.83 0 44.73-9.07 60.88-25.22a86.13 86.13 0 0 0 25.21-60.88v-.13c0-22.83-9.07-44.73-25.21-60.88a86.14 86.14 0 0 0-60.88-25.22h-204.9a220.2 220.2 0 0 0-26.84-46.37l102.5-177.5a86.07 86.07 0 0 0 8.598-65.33 86.11 86.11 0 0 0-40.116-52.286l-.09-.05-.02-.014a86.04 86.04 0 0 0-43.33-11.53zM500 403.02h.004c53.52.002 96.97 43.45 96.97 96.97s-43.45 96.97-96.97 96.97H500c-53.52-.002-96.97-43.45-96.97-96.97s43.45-96.97 96.97-96.97" transform="translate(-.399 -.395)scale(.06479)"/></svg>