<svg xmlns="http://www.w3.org/2000/svg" viewBox="0 0 64 64"><defs><linearGradient id="a" x2="0" y2="1"><stop offset="0" stop-color="#f0f"/><stop offset="1" stop-color="#ffd42a"/></linearGradient></defs><path fill="url(#a)" d="M17.01 3.873a1.874 1.874 0 0 0-1.875 1.873 5.63 5.63 0 0 0 5.625 5.625h22.5c1.034 0 1.875.841 1.875 1.875a1.877 1.877 0 0 1-1.875 1.875h-7.5a5.63 5.63 0 0 0-5.625 5.625v5.518c-2.362-.261-4.779-1.01-7.211-2.238a13 13 0 0 0-5.912-1.404c-6.361 0-11.79 4.53-12.91 10.78L.149 51.222c-.061.275-.13.84-.13 1.396 0 4.135 3.362 7.498 7.497 7.498 3.291 0 3.74-.756 13.11-9.06a5.6 5.6 0 0 0 3.881 1.562 5.63 5.63 0 0 0 5.303-3.75h4.394a5.63 5.63 0 0 0 5.303 3.75 5.6 5.6 0 0 0 3.881-1.562c9.377 8.303 9.813 9.06 13.11 9.06 4.135 0 7.5-3.363 7.5-7.498 0-.531-.066-1.106-.13-1.396l.003-.002-3.953-17.82a13.1 13.1 0 0 0-12.91-10.78c-2.079 0-4.068.472-5.912 1.404-2.432 1.229-4.85 1.977-7.213 2.238v-5.518c0-1.034.841-1.875 1.875-1.875h7.5c3.101 0 5.623-2.524 5.623-5.625s-2.522-5.625-5.623-5.625h-22.5a1.877 1.877 0 0 1-1.875-1.875c0-1.035-.84-1.873-1.875-1.873zm-.01 22.5c1.486 0 2.906.338 4.221 1.002 3.61 1.824 7.237 2.748 10.78 2.748s7.17-.924 10.78-2.748a9.3 9.3 0 0 1 4.221-1.002 9.35 9.35 0 0 1 9.244 7.801l3.953 17.82q.052.31.053.627a3.755 3.755 0 0 1-3.75 3.75v-.004c-1.74 0-1.518-.065-11.4-8.803q.029-.282.029-.572a5.63 5.63 0 0 0-5.623-5.625 5.63 5.63 0 0 0-5.303 3.75H29.81a5.63 5.63 0 0 0-5.303-3.75 5.63 5.63 0 0 0-5.596 6.197c-9.84 8.694-9.66 8.803-11.4 8.803a3.755 3.755 0 0 1-3.697-4.377s3.963-17.87 3.967-17.9a9.355 9.355 0 0 1 9.228-7.723zm0 3.75c-1.035 0-1.875.84-1.875 1.875v1.875H13.25c-1.035 0-1.873.84-1.873 1.875s.838 1.875 1.873 1.875h1.875v1.873a1.875 1.875 0 0 0 3.75 0v-1.873h1.875a1.875 1.875 0 0 0 0-3.75h-1.875v-1.875c0-1.035-.84-1.875-1.875-1.875m30 0c-1.035 0-1.875.84-1.875 1.875v1.875H43.25a1.875 1.875 0 0 0 0 3.75h1.875v1.873a1.875 1.875 0 0 0 3.75 0v-1.873h1.875a1.875 1.875 0 0 0 0-3.75h-1.875v-1.875c0-1.035-.84-1.875-1.875-1.875m-18.75 3.75a1.875 1.875 0 1 0 .001 3.75 1.875 1.875 0 0 0 0-3.75m7.5 0a1.875 1.875 0 0 0 0 3.75c1.036 0 1.873-.84 1.873-1.875a1.874 1.874 0 0 0-1.873-1.875M24.5 45.123c1.034 0 1.875.841 1.875 1.875V47a1.877 1.877 0 0 1-1.875 1.873 1.877 1.877 0 0 1-1.875-1.875c0-1.034.841-1.875 1.875-1.875m15 0c1.034 0 1.875.841 1.875 1.875a1.875 1.875 0 0 1-1.875 1.873v.002a1.877 1.877 0 0 1-1.875-1.875c0-1.034.842-1.875 1.875-1.875" transform="translate(-.018 -.004)"/></svg>