<svg xmlns="http://www.w3.org/2000/svg" style="isolation:isolate" viewBox="0 0 64 64"><linearGradient id="a" x1="-.213" x2=".873" y1="1.429" y2=".833" gradientTransform="matrix(31.5 0 0 27 8.25 10.5)" gradientUnits="userSpaceOnUse" transform="translate(-16.76 -16.76)scale(2.032)"><stop offset=".013" stop-color="#df57ff"/><stop offset=".521" stop-color="#241efc"/><stop offset=".979" stop-color="#0eaffe"/></linearGradient><path fill="url(#a)" d="M20.44 37.5c-.641-.179-.872-.503-1.426-1.688-.761-1.628-.76-1.594-.093-2.588.924-1.378 1.804-3.83 1.804-4.499 0-.422-.414-.754-1.442-1.156-2.213-.866-5.055-2.329-6.602-3.48-1.894-1.409-3.663-3.668-4.214-5.509-.387-1.294-.258-1.573.506-1.098 4.013 2.323 5.267 2.779 9.244 3.143 2.471-.108 3.77-2.058 3.673-3.811-.079-1.323-.53-2.449-1.057-4.142-.296-.955-.131-1.289-.077-1.656.037-.253.133-.485.212-.516 1.066.899 2.323.969 3.14 1.27 2.411.92 3.254 1.448 3.6 2.885.173.717 1.118 1.201 1.607 1.681.231.227.42.473.42.545 0 .37-1.667.459-2.649.179-.864-.246-.955.381-.866 1.178.133 2.119 2.24 2.203 4.583 2.387 1.954.154 5.287-.741 7.819-1.838.53-.229 1.04-.401 1.133-.381-.864 3.731-4.578 7.067-7.789 8.428-1.583.645-3.87 1.381-4.556 1.467-1.708.213-2.293.438-2.569.989-.315.628-.777 3.517-.948 5.714-.411 1.839-2.273 2.482-3.453 2.496" transform="translate(-16.76 -16.76)scale(2.032)"/></svg>