<svg xmlns="http://www.w3.org/2000/svg" viewBox="0 0 64 64"><defs><linearGradient id="a" x1="1" x2="0" y1=".5" y2=".5"><stop offset="0" stop-color="#00b8ff"/><stop offset="1" stop-color="#00ff9d"/></linearGradient></defs><path fill="url(#a)" d="M6.078.537c-1.305.062-2.455.71-3.055 1.744-.107.184-.204.412-.277.637s-.125.43-.125.615v.04c-.01.007-.048.04-.13.09-.22.14-.318.192-.55.214-.231.022-.603-.002-1.264-.063-.178-.016-.258-.043-.404-.002a.38.38 0 0 0-.198.157c-.035.063-.04.102-.048.138a1 1 0 0 0-.028.262 4 4 0 0 0 .01.318C.082 5.711.9 6.57 2.044 6.914c.21.063.563.112.863.131l.387.026.103.171q.06.102.102.18c-.01.015-.016.026-.03.043-.065.087-.16.202-.263.324-.816.977-1.312 1.81-1.527 2.61-.152.565-.149 1.594.006 2.163.4 1.472 1.495 2.501 3.002 2.822.349.075 1.053.08 3.375.082 1.387.002 2.14.002 2.6-.011.46-.014.645-.043.844-.094 1.935-.495 3.586-2.483 4.232-4.978a9.5 9.5 0 0 0 .228-1.31c.022-.21.033-.402.033-.558a2 2 0 0 0-.011-.209c-.009-.063 0-.12-.082-.218a.45.45 0 0 0-.15-.125.4.4 0 0 0-.235-.034c-.143.02-.262.078-.475.174-.461.208-1.05.35-1.387.35-.43-.001-.804-.102-1.69-.467-1.052-.432-1.705-.603-2.499-.645l-.078-.002c.767-.742 1.154-1.757 1.086-3.022-.038-.717-.14-1.114-.431-1.703C9.355 1.22 7.86.451 6.077.536zm.223.85c1.508-.004 2.753.855 3.164 2.154.249.788.192 1.784-.13 2.46-.181.383-.795 1.022-1.241 1.27-.2.111-.327.179-.43.31a.4.4 0 0 0-.084.263c.009.097.05.167.09.22a.4.4 0 0 0 .139.122.5.5 0 0 0 .195.045c.126.006.272-.01.543-.037 1.044-.11 1.615-.002 2.98.566 1.475.614 2.323.682 3.478.273l.06-.02a8.4 8.4 0 0 1-.206 1.224c-.563 2.167-2.114 3.936-3.67 4.305-.009.002-.156.021-.346.031s-.443.017-.733.024a90.575 90.575 0 0 1-4.119-.006c-.294-.008-.55-.015-.748-.026s-.347-.029-.377-.035c-.927-.193-1.73-.816-2.106-1.615-.271-.58-.385-1.255-.312-1.8.126-.944.46-1.579 1.522-2.85.132-.158.251-.309.34-.425q.065-.087.107-.148.02-.029.04-.059l.019-.039.01-.033.007-.03.004-.042c0-.076-.013-.081-.02-.1q-.01-.026-.02-.05L4.4 7.22a7 7 0 0 0-.176-.308 4 4 0 0 1-.156-.28v-.002c.064-.097.118-.17.162-.255a.56.56 0 0 0 .062-.315c-.03-.224-.151-.367-.351-.691-.342-.554-.458-.93-.46-1.45-.001-.743.171-1.163.704-1.698.494-.498 1.33-.832 2.115-.834zM4.916 3.26q-.027 0-.055.002l-.062.007a.8.8 0 0 0-.426.243.8.8 0 0 0-.242.423.77.77 0 0 0 .097.479c.064.123.15.236.276.307.124.07.264.09.412.091a.76.76 0 0 0 .533-.224c.362-.362.283-.989-.17-1.223a.86.86 0 0 0-.363-.106zM2.664 4.586q0 .006.004.011c.1.458.283.9.535 1.29l.142.216-.029.051-.023.041c-.003-.002-.042.004-.153.002a5 5 0 0 1-.529-.047c-.572-.096-1.106-.377-1.354-.67-.134-.159-.274-.499-.336-.744.656.09 1.217.062 1.656-.117zm4.184 4.547a3.2 3.2 0 0 0-.668.095c-.79.21-1.376.688-1.664 1.31-.288.62-.269 1.374.088 2.103.388.794 1.172 1.312 2.137 1.44.31.041.595.034 1.47-.029a29 29 0 0 0 2.4-.295 4 4 0 0 0 .324-.072c.028-.01.046.005.125-.072a.4.4 0 0 0 .119-.245.43.43 0 0 0-.069-.257c-.084-.138-.207-.245-.39-.387l-.053-.04.588-.372c.115-.073.209-.138.287-.219s.152-.205.139-.346a.5.5 0 0 0-.176-.318 2.3 2.3 0 0 0-.313-.236l-.074-.053c.117-.062.244-.13.4-.207.345-.171.523-.258.651-.35a.46.46 0 0 0 .166-.185.4.4 0 0 0 .025-.217c-.01-.082-.048-.22-.154-.297-.105-.076-.19-.083-.303-.102l-1.473-.255c-1.717-.3-2.815-.432-3.582-.393zm.164.888c.45-.017 1.013.023 1.723.12a62 62 0 0 1 1.852.287c-.15.074-.295.15-.406.21a4 4 0 0 0-.211.127c-.019.013-.033.018-.07.063a.4.4 0 0 0-.09.266c.007.1.052.18.103.244.102.128.245.232.455.369.036.023.053.038.084.06-.095.06-.196.12-.314.194-.167.103-.298.188-.4.27s-.192.155-.24.29c-.046.136.006.3.077.393.028.036.07.066.104.097-.644.09-1.311.166-1.873.188-.665.026-1.225-.017-1.37-.066-.776-.269-1.237-.888-1.24-1.631-.001-.446.093-.697.31-.92.274-.284.592-.449 1.095-.524q.188-.027.412-.037z" transform="matrix(4 0 0 4 .005 .007)"/></svg>