<svg xmlns="http://www.w3.org/2000/svg" viewBox="0 0 64 64"><defs><linearGradient id="a" y2="1"><stop offset=".013" stop-color="#feac5e"/><stop offset=".53" stop-color="#c779d0"/><stop offset=".996" stop-color="#4bc0c8"/></linearGradient><linearGradient id="b" x1="1" x2="0" y1="1"><stop offset="0" stop-color="#00ffd8"/><stop offset=".839" stop-color="#00ffb8"/></linearGradient></defs><path fill="url(#a)" d="M39.57.973c-6.234 0-11.88.764-16.18 2.1-2.153.668-3.975 1.46-5.445 2.539S15.16 8.284 15.16 10.36s1.314 3.67 2.785 4.748c1.47 1.079 3.293 1.87 5.445 2.539 4.305 1.336 9.95 2.098 16.19 2.098s11.89-.762 16.19-2.098a25 25 0 0 0 2.984-1.12v8.462l-.002.002h-.004c-.045.022-.218.266-.814.629-.972.59-2.68 1.274-4.795 1.84-4.231 1.13-10.11 1.867-15.92 1.867v5.246c6.238 0 12.43-.754 17.27-2.045a28.5 28.5 0 0 0 4.262-1.506v8.697c-.152.144-.492.415-1.068.716-1.236.647-3.293 1.358-5.748 1.947-4.907 1.18-11.45 1.943-17.24 1.943v5.246c6.243 0 13.05-.785 18.46-2.088 2.128-.511 3.958-1.128 5.594-1.83v7.906c-.02.02-.132.223-.643.598-.736.54-2.106 1.204-3.898 1.76-3.584 1.112-8.835 1.865-14.64 1.865s-11.05-.753-14.64-1.865c-1.792-.556-3.16-1.22-3.896-1.76-.51-.374-.622-.577-.643-.598v-4.354h-5.246v4.436c0 2.076 1.315 3.668 2.785 4.746s3.293 1.871 5.445 2.54c4.305 1.335 9.952 2.1 16.19 2.1 6.243 0 11.89-.765 16.19-2.1 2.153-.668 3.975-1.46 5.445-2.54s2.785-2.67 2.785-4.746v-26.35h-.54c.31-.608.54-1.269.54-2.055v-14.88c0-2.076-1.314-3.67-2.785-4.748-1.47-1.079-3.293-1.87-5.445-2.539C51.45 1.734 45.806.97 39.573.97zm.008 5.246c5.802 0 11.05.75 14.64 1.863 1.792.556 3.162 1.22 3.898 1.76.34.249.5.423.578.517-.077.095-.238.269-.578.518-.736.54-2.106 1.202-3.898 1.758-3.584 1.112-8.84 1.863-14.64 1.863s-11.05-.751-14.64-1.863c-1.792-.556-3.162-1.218-3.898-1.758-.34-.25-.503-.423-.58-.518.077-.094.24-.268.58-.517.735-.54 2.106-1.204 3.898-1.76 3.584-1.112 8.838-1.863 14.64-1.863" transform="translate(-.002 -.007)"/><path fill="url(#a)" d="M6.94 14.12c-.906.01-1.805.2-2.644.559s-1.607.883-2.256 1.547h-.002A7.15 7.15 0 0 0 .52 18.56a7.2 7.2 0 0 0-.518 2.75v24.73a7.2 7.2 0 0 0 .518 2.75c.352.877.87 1.668 1.52 2.332v.002a7 7 0 0 0 2.254 1.545l.002.002a6.9 6.9 0 0 0 2.646.558h24.326a6.9 6.9 0 0 0 2.64-.558l.003-.002a7 7 0 0 0 2.254-1.545v-.002a7.15 7.15 0 0 0 1.52-2.332c.349-.871.526-1.805.518-2.75V21.31a7.2 7.2 0 0 0-.518-2.75 7.1 7.1 0 0 0-1.52-2.334 7 7 0 0 0-2.256-1.547 6.9 6.9 0 0 0-2.646-.559H6.943zM7 19.366h24.2q.331.004.643.137c.207.088.4.217.569.388.167.172.307.382.402.62.094.235.143.494.14.755v24.82a2 2 0 0 1-.14.754 1.9 1.9 0 0 1-.402.62 1.8 1.8 0 0 1-.569.39 1.7 1.7 0 0 1-.64.137h-24.2a1.7 1.7 0 0 1-.641-.137c-.206-.088-.4-.22-.566-.39h-.002a1.9 1.9 0 0 1-.4-.618v-.002a2 2 0 0 1-.141-.754v-24.82a2 2 0 0 1 .14-.754 1.9 1.9 0 0 1 .402-.619c.168-.171.36-.302.567-.39A1.7 1.7 0 0 1 7 19.366" transform="translate(-.002 -.007)"/><path fill="url(#b)" d="M12.05 22.91c-1.358.018-2.598 1.108-2.598 2.631v15.75a2.628 2.628 0 0 0 3.953 2.27l14.04-8.207a2.24 2.24 0 0 0 1.113-1.94 2.24 2.24 0 0 0-1.113-1.938l-14.04-8.207a2.6 2.6 0 0 0-1.356-.363z" transform="translate(-.002 -.007)"/></svg>