<svg xmlns="http://www.w3.org/2000/svg" viewBox="0 0 64 64"><defs><linearGradient id="a" y2="1"><stop offset="0" stop-color="#ff9aff"/><stop offset="1" stop-color="#ffe680"/></linearGradient><linearGradient id="b" x1="1" x2="0" y2="1"><stop offset="0" stop-color="#00efff"/><stop offset="1" stop-color="#07f"/></linearGradient></defs><path fill="url(#a)" d="M31.33 14.99c-7.518 0-13.62 2.573-13.62 4.916v5.163c0 2.329 6.103 4.902 13.62 4.902s13.62-2.573 13.62-4.902v-5.163c0-2.343-6.101-4.916-13.62-4.916m0 .82c6.771 0 12.26 1.962 12.26 4.223s-5.488 4.493-12.26 4.493-12.26-2.232-12.26-4.493 5.491-4.223 12.26-4.223" transform="translate(-24.71 -24.605)scale(1.81)"/><path fill="url(#a)" d="M18.89 26.91c-.76.598-1.183 1.231-1.183 1.847v5.162c0 2.329 6.103 4.904 13.62 4.904s13.62-2.575 13.62-4.904v-5.162c0-.617-.423-1.25-1.184-1.847q-.383.3-.874.585c.48.444.753.896.753 1.389 0 2.248-5.488 4.508-12.26 4.508s-12.26-2.247-12.26-4.508c0-.48.28-.897.74-1.333a8 8 0 0 1-.973-.641zm21.45 1.706c-2.402.814-5.558 1.357-9.014 1.357-2.495 0-4.834-.284-6.846-.748 2.025.474 4.382.762 6.895.762 3.45 0 6.577-.548 8.964-1.372z" transform="translate(-24.71 -24.605)scale(1.81)"/><path fill="url(#a)" d="M18.9 35.76c-.765.6-1.19 1.234-1.19 1.853v5.162c0 2.329 6.103 4.903 13.62 4.903s13.62-2.574 13.62-4.903v-5.162c0-.619-.426-1.254-1.191-1.853a8 8 0 0 1-.868.58c.481.444.755.895.755 1.388 0 2.249-5.488 4.51-12.26 4.51s-12.26-2.248-12.26-4.51c0-.48.28-.896.739-1.332a8 8 0 0 1-.965-.636zm21.49 1.687c-2.407.822-5.581 1.373-9.056 1.373-2.473 0-4.793-.28-6.793-.736 2.013.467 4.351.75 6.842.75 3.47 0 6.614-.555 9.006-1.387z" transform="translate(-24.71 -24.605)scale(1.81)"/><path fill="url(#b)" d="m35.68 13.6-.008.023c-9.915-.01-12.58 11.28-12.2 17.71 1.045.879 1.837 1.935 2.545 2.902-.71-.854-1.676-1.5-2.643-2.223-.076.636-.13 1.228-.164 1.756 1.416 1.06 2.764 3.064 2.764 3.064s-.102-.125-.516-.558c-.367-.384-1.92-1.5-2.275-1.772-.035 1.19.064 1.975.288 2.125.431.302.941.865 1.443 1.498 1.124 1.43 2.19 3.213 2.19 3.213.93 2.765 1.855 5.407 3.966 7.613l.757-.17c-1.188-1.325-2.303-3.16-2.97-5.365-1.02-3.364-1.69-7.562-1.147-12.1 1.18-6.92 4.14-12.8 7.654-15.94-3.092 3.187-6.21 11.8-6.783 15.8-.604 3.664-.263 6.756.05 9.916.317-3.064 4.355-5.027 4.355-5.027s1.473-2.178 3.012-5.188c-2.029.676-3.95 1.43-5.775 2.424 0 0 3.311-2.316 6.39-3.637 2.791-5.801 5.24-13.75-.93-16.07z" transform="translate(-24.71 -24.605)scale(1.81)"/></svg>