<svg xmlns="http://www.w3.org/2000/svg" fill="none" viewBox="0 0 64 64"><defs><linearGradient id="a" x1="32" x2="32" y1="60" y2="4" gradientUnits="userSpaceOnUse"><stop offset="0" stop-color="#00b59c"/><stop offset="1" stop-color="#9cffac"/></linearGradient></defs><path fill="url(#a)" fill-rule="evenodd" d="M4 27.98C4 14.83 14.82 4 27.94 4c13.13 0 23.94 10.83 23.94 23.98v.012c-.003 2.46-.411 4.879-1.146 7.2l5.943 5.955-.069-.067c2.156 2.102 3.521 5.415 3.37 8.391-.153 2.998-1.459 5.457-3.258 7.259-1.799 1.801-4.255 3.11-7.249 3.262s-6.33-1.236-8.426-3.422l-5.795-5.799c-2.357.759-4.812 1.187-7.315 1.186-13.13 0-23.94-10.83-23.94-23.98zm12.69-11.29a15.993 15.993 0 0 1 22.62 0c2.997 3 4.686 7.07 4.686 11.31a16 16 0 0 1-2.746 8.938l9.898 9.898c2.945 2.828-1.415 7.187-4.242 4.242l-9.873-9.873h-.002a16 16 0 0 1-20.345-1.891 15.993 15.993 0 0 1 0-22.62zm15.14 2.075a10.002 10.002 0 0 0-13.066 13.066 10 10 0 0 0 5.412 5.412 10.002 10.002 0 0 0 13.066-13.066 10 10 0 0 0-5.412-5.412" clip-rule="evenodd" transform="translate(-4.571 -4.571)scale(1.143)"/></svg>