<svg xmlns="http://www.w3.org/2000/svg" viewBox="0 0 64 64"><defs><linearGradient id="a" y1="1"><stop offset=".022" stop-color="#f24f5c"/><stop offset=".496" stop-color="#d067cf"/><stop offset=".983" stop-color="#31c1e9"/></linearGradient></defs><path fill="url(#a)" d="m10.28 1.002-1.102 1.67a5 5 0 0 0-.625-.047c-.632 0-1.258.125-1.842.367L5.217 1.668l.402 1.963c-.406.316-.76.694-1.047 1.121a16.3 16.3 0 0 0-4.576-.968V5c6.433.29 11.81 3.943 14 10h.403a16.3 16.3 0 0 0-2.221-4.428c.333-.382.604-.814.802-1.28l2.016-.12-1.684-1.112q.044-.312.047-.628c0-.626-.123-1.244-.361-1.822l1.332-1.498-1.965.402a4.8 4.8 0 0 0-1.967-1.516zM8.553 3.361a4.067 4.067 0 0 1 4.066 4.068 4.07 4.07 0 0 1-.904 2.549 16.3 16.3 0 0 0-6.45-4.938 4.07 4.07 0 0 1 3.288-1.68z" transform="translate(.016 -2.139)scale(4.26657)"/></svg>