<svg version="1.1" viewBox="0 0 64 64" xmlns="http://www.w3.org/2000/svg" xmlns:xlink="http://www.w3.org/1999/xlink">
 <defs>
  <linearGradient id="d" y1="1">
   <stop stop-color="#0061ff" offset="0"/>
   <stop stop-color="#60efff" offset="1"/>
  </linearGradient>
  <linearGradient id="e" x1="1" x2="0" y2="1">
   <stop stop-color="#bc5fd3" offset="0"/>
   <stop stop-color="#60f" offset="1"/>
  </linearGradient>
  <linearGradient id="a" y1="1">
   <stop stop-color="#5800e2" offset="0"/>
   <stop stop-color="#ff00e6" offset="1"/>
  </linearGradient>
  <linearGradient id="c" x1="-.8594" x2="10.63" y1="32" y2="20.51" gradientTransform="matrix(.7759 0 0 1.236 -.2322 .6692)" gradientUnits="userSpaceOnUse" xlink:href="#a"/>
  <linearGradient id="b" x1="70.14" x2="81.63" y1="31.1" y2="19.61" gradientTransform="matrix(.7759 0 0 1.236 1.667 .6692)" gradientUnits="userSpaceOnUse" xlink:href="#a"/>
 </defs>
 <path transform="translate(.8731 .9202) scale(.9712) matrix(.9792 0 0 .9792 .6674 .6692)" d="m32 9.568c-5.759-0.01751-11.52 0.3984-17.29 1.293l2e-3 -0.0039c-3.183 0.4934-6.338 1.895-8.789 4.131-2.452 2.236-4.19 5.405-4.19 9.123v16.99c0 7.348 6.1 14.08 13.49 13.26 11.07-1.23 22.26-1.213 33.57 0 7.545 0.8086 13.48-5.96 13.48-13.26v-16.99c0-3.635-1.479-6.807-3.856-9.074s-5.59-3.676-9.144-4.184c-5.746-0.8204-11.51-1.268-17.26-1.285a1.947 1.947 0 0 0-0.0039 0h-0.0098zm-0.0039 3.894h0.01953c5.56 0.01755 11.14 0.4515 16.72 1.248 2.876 0.4101 5.325 1.538 7.006 3.143s2.65 3.639 2.65 6.258v16.99c0 5.2-4.191 9.93-9.174 9.391-11.57-1.242-23.05-1.263-34.41 0-4.725 0.5257-9.168-4.231-9.168-9.391v-16.99c0-2.534 1.116-4.597 2.922-6.244s4.314-2.782 6.758-3.16a1.947 1.947 0 0 0 2e-3 -2e-3c5.553-0.8623 11.12-1.26 16.68-1.242z" fill="url(#e)"/>
 <path transform="translate(.8731 .9202) scale(.9712) matrix(.9792 0 0 .9792 .6674 .6692)" d="m32 17.69c-3.872-5.17e-4 -7.745 0.2996-11.62 0.9043-2.391 0.3738-4.599 1.243-6.295 2.705s-2.828 3.611-2.828 6.064v10.4c0 4.927 4.311 8.789 9.41 8.789h4.584a1.854 1.854 0 0 0 0.9551-0.2637l5.789-3.475 5.791 3.475a1.854 1.854 0 0 0 0.9512 0.2637h4.586c5.098 0 9.41-3.863 9.41-8.789v-10.4c0-2.477-1.183-4.626-2.891-6.082s-3.906-2.324-6.232-2.686c-3.869-0.6025-7.74-0.9038-11.62-0.9043zm-0.0039 3.707h0.0039c3.68 4.37e-4 7.36 0.2877 11.04 0.8613 1.768 0.2753 3.348 0.9548 4.393 1.846 1.045 0.8913 1.592 1.895 1.592 3.26v10.4c0 2.758-2.428 5.08-5.697 5.08h-4.074l-6.301-3.781a1.854 1.854 0 0 0-1.908 0l-6.303 3.781h-4.072c-3.267 0-5.701-2.323-5.701-5.08v-10.4c0-1.389 0.5236-2.379 1.543-3.258 1.02-0.879 2.587-1.558 4.441-1.848 3.682-0.5754 7.365-0.8619 11.04-0.8613z" fill="url(#d)"/>
 <path transform="translate(.8731 .9202) scale(.9712)" d="m59.22 24.9c-1.713 0-3.138 1.426-3.138 3.138v7.924c0 1.713 1.426 3.136 3.138 3.136h2.639c1.713 0 3.136-1.424 3.136-3.136v-7.924c0-1.713-1.424-3.138-3.136-3.138z" fill="url(#b)" stroke-width=".9792"/>
 <path transform="translate(.8731 .9202) scale(.9712)" d="m2.237 26.01c-1.713 0-3.136 1.426-3.136 3.138v7.924c0 1.713 1.424 3.136 3.136 3.136h2.643c1.713 0 3.136-1.424 3.136-3.136v-7.924c0-1.713-1.424-3.138-3.136-3.138z" fill="url(#c)" stroke-width=".9792"/>
</svg>
