<svg version="1.1" viewBox="0 0 64 64" xmlns="http://www.w3.org/2000/svg">
 <circle transform="translate(-3.93 -4.491) scale(1.123)" cx="25" cy="33" r="14" opacity=".2"/>
 <path transform="translate(-3.93 -4.491) scale(1.123)" d="M25 5v9.8A18.2 18.2 0 0 1 43.2 33 18.2 18.2 0 0 1 25 51.2V61c15.464 0 28-12.536 28-28S40.464 5 25 5" opacity=".2"/>
 <path transform="translate(-3.93 -4.491) scale(1.123)" d="M25 4v9.8A18.2 18.2 0 0 1 43.2 32 18.2 18.2 0 0 1 25 50.2V60c15.464 0 28-12.536 28-28S40.464 4 25 4" fill="#e4e4e4"/>
 <circle transform="translate(-3.93 -4.491) scale(1.123)" cx="25" cy="32" r="14" fill="#556af7"/>
 <path transform="translate(-3.93 -4.491) scale(1.123)" d="M25 4v1c15.296 0 27.719 12.268 27.986 27.5.003-.167.014-.332.014-.5C53 16.536 40.464 4 25 4m18.18 28.248A18.2 18.2 0 0 1 25 50.199v1A18.2 18.2 0 0 0 43.2 33a18 18 0 0 0-.02-.752" fill="#fff" opacity=".2"/>
 <path transform="translate(-3.93 -4.491) scale(1.123)" d="M25 18a14 14 0 0 0-14 14 14 14 0 0 0 .035.5A14 14 0 0 1 25 19a14 14 0 0 1 13.98 13.28L39 32a14 14 0 0 0-14-14" fill="#fff" opacity=".1"/>
 <path transform="translate(-3.93 -4.491) scale(1.123)" d="m16.5 32.5h17m-11-6-6 6 6 6" fill="none" opacity=".2" stroke="#000" stroke-linecap="round" stroke-linejoin="round" stroke-width="3"/>
 <path transform="translate(-3.93 -4.491) scale(1.123)" d="m16.5 31.5h17m-11-6-6 6 6 6" fill="none" stroke="#fff" stroke-linecap="round" stroke-linejoin="round" stroke-width="3"/>
</svg>
