<svg version="1.1" viewBox="0 0 64 64" xmlns="http://www.w3.org/2000/svg">
 <defs>
  <linearGradient id="a" x1="1" x2="0" y2="1">
   <stop stop-color="#ff00d4" offset="0"/>
   <stop stop-color="#0040ff" offset="1"/>
  </linearGradient>
 </defs>
 <path transform="translate(-0 1e-6) scale(1) translate(-.00055 -.000432) scale(1) translate(3.791 3.79) scale(.8815)" d="m32-4.299c-20.02 0-36.3 16.28-36.3 36.3s16.28 36.3 36.3 36.3c20.01 0 36.3-16.28 36.3-36.3 2e-6 -20.02-16.28-36.3-36.3-36.3zm0 5.352c17.12 0 30.95 13.82 30.95 30.94s-13.82 30.95-30.95 30.95-30.94-13.82-30.94-30.95c1e-7 -17.12 13.82-30.94 30.94-30.94z" fill="url(#a)"/>
 <path transform="translate(-0 1e-6) scale(1) translate(-.00055 -.000432) scale(1) matrix(.8815 0 0 .8815 3.791 3.79)" d="m31.92 14.78c-3.201 1.04e-4 -6.405 0.01988-8.927 0.05982-1.262 0.01998-2.353 0.04506-3.197 0.07533-0.834 0.02985-1.324 0.03345-1.87 0.1307a0.5 0.5 0 0 0-0.0022 0c-1.165 0.2084-2.36 0.734-3.226 1.735-0.8389 0.9698-1.37 2.165-2.03 3.851-1.694 4.318-2.909 8.847-3.53 12.85-0.6202 3.992-0.7632 7.393 0.1861 9.937 0.9308 2.497 2.993 4.477 5.537 5.426 2.418 0.9018 5.216 0.135 6.594-2.056 0.4116-0.6533 1.218-2.162 2.058-3.771a0.5 0.5 0 0 0 0-0.0044l0.0022-0.0044c0.526-1.014 1.014-2.002 1.538-2.956h13.85c0.08644 0.1623 0.1701 0.3112 0.277 0.5207 0.4045 0.7928 0.9051 1.807 1.411 2.767 0.9768 1.851 1.657 3.057 2.391 3.977a0.5 0.5 0 0 0 0 0.0022c0.7577 0.9503 1.743 1.604 2.772 1.806 1.808 0.3536 3.584-0.226 5.081-1.17 1.5-0.9459 2.808-2.331 3.55-4.055 0.8828-2.052 1.11-4.266 0.8464-7.053-0.4452-4.728-1.847-10.71-3.569-15.22-0.821-2.15-1.384-3.539-2.262-4.646a0.5 0.5 0 0 0-0.0022 0c-0.9095-1.147-2.207-1.711-3.454-1.939-0.5547-0.1007-1.04-0.09916-1.87-0.1285-0.8414-0.02971-1.932-0.05597-3.193-0.07533-2.522-0.03868-5.726-0.0577-8.934-0.05761l0.02437 0.0044a0.5 0.5 0 0 0-0.06425 0l0.01994-0.0044zm13.18 3.855a0.5 0.5 0 0 0 0.1374 0.2061c-0.0056-3.26e-4 -0.01633-0.0012-0.0421-0.0089-0.01028-3e-3 -0.04646-0.0177-0.04653-0.01773 7.3e-5 3.1e-5 -0.04658-0.02219-0.04653-0.02216 5.4e-5 2.8e-5 -0.08645-0.05984-0.08641-0.05982 9e-6 7e-6 0.05146-0.05873 0.0842-0.09749zm-13.16 0.0066h0.0022c3.191-7.1e-5 6.383 0.01942 8.874 0.05761 1.245 0.0191 2.316 0.0427 3.115 0.0709 0.3935 0.0139 0.7529 0.03786 1.006 0.05539 0.1264 0.0088 0.224 0.01528 0.2903 0.01994 0.01885 0.0013 0.03197 0.0013 0.04653 0.0022 0.3985 0.07349 0.6215 0.1288 0.7245 0.1795 0.107 0.05267 0.1756 0.1156 0.3634 0.3523 0.3114 0.3927 0.8927 1.548 1.684 3.62 1.559 4.082 2.93 9.939 3.332 14.2 0.2282 2.422 0.04972 3.765-0.5517 5.163-0.366 0.8511-1.175 1.755-2.058 2.311-0.8797 0.5548-1.848 0.7279-2.273 0.6448-0.09815-0.01922-0.1257-0.02207-0.1352-0.02437l-0.0022-0.0022h-0.0022l-0.0022-0.0022c-0.0014-1e-3 -0.0041-5.16e-4 -0.0066-0.0022-0.01998-0.014-0.1316-0.1239-0.3456-0.3922-0.3915-0.491-1.048-1.579-1.994-3.372-0.4752-0.9006-0.9676-1.893-1.387-2.716-0.2101-0.4118-0.4024-0.7797-0.5739-1.09-0.1448-0.262-0.2372-0.5194-0.6293-0.935-0.3652-0.3872-0.8727-0.6074-1.405-0.6071h-16.12c-0.6645-8.59e-4 -1.283 0.3393-1.637 0.9018a0.5 0.5 0 0 0 0 0.0022c-0.9509 1.514-1.571 2.992-2.167 4.141-0.408 0.7822-0.8515 1.61-1.21 2.267s-0.6607 1.189-0.6846 1.227a0.5 0.5 0 0 0 0 0.0044 0.5 0.5 0 0 0-0.0022 0c-0.308 0.487-1.117 0.8123-1.97 0.4941-1.496-0.5578-2.772-1.835-3.266-3.157-0.2113-0.5658-0.3724-1.67-0.3855-3.064-0.01304-1.395 0.1069-3.094 0.3922-4.928 0.572-3.675 1.724-7.977 3.31-12.02 0.6129-1.562 1.099-2.435 1.358-2.734 0.1592-0.184 0.2285-0.2413 0.3324-0.2925 0.09915-0.0488 0.2924-0.09963 0.6182-0.1595 0.01743-0.0011 0.03118-0.0027 0.05539-0.0044 0.06718-0.0049 0.1676-0.01339 0.2947-0.02216 0.2542-0.01756 0.6149-0.03903 1.01-0.05318 0.8011-0.02867 1.876-0.05337 3.122-0.07312 2.492-0.03947 5.684-0.05755 8.872-0.05761a0.5 0.5 0 0 0 0.0066-0.0022zm-13.23 0.05982c0.01682 0.03021 0.04875 0.09307 0.04875 0.09306 4.1e-5 -2.3e-5 -0.05525 0.02652-0.05539 0.02659 2.47e-4 -9.9e-5 -0.06464 0.01976-0.07533 0.02216-0.01068 0.0024-0.01408 0.0037-0.01773 0.0044a0.5 0.5 0 0 0 0.09971-0.1462z" fill="#00f"/>
 <path transform="translate(-0 1e-6) scale(1) translate(-.00055 -.000432) scale(1) matrix(.8815 0 0 .8815 3.791 3.79)" d="m40.94 21.84a4.814 4.814 0 0 0-4.81 4.812 4.814 4.814 0 0 0 4.81 4.817 4.814 4.814 0 0 0 4.819-4.817 4.814 4.814 0 0 0-4.819-4.812z" fill="#007fff"/>
 <path transform="translate(-0 1e-6) scale(1) translate(-.00055 -.000432) scale(1) matrix(.8815 0 0 .8815 3.791 3.79)" d="m23.06 21.84a4.814 4.814 0 0 0-4.817 4.812 4.814 4.814 0 0 0 4.817 4.817 4.814 4.814 0 0 0 4.81-4.817 4.814 4.814 0 0 0-4.81-4.812z" fill="#007fff"/>
</svg>
