<svg version="1.1" viewBox="0 0 64 64" xmlns="http://www.w3.org/2000/svg">
 <defs>
  <linearGradient id="a" x2="0" y1="1">
   <stop stop-color="#c0f" offset="0"/>
   <stop stop-color="#0ff" offset="1"/>
  </linearGradient>
 </defs>
 <path transform="translate(0 -.0038) scale(1) translate(0 -1.994) scale(4)" d="M12.5 2a3.5 3.5 0 0 0-3.453 2.941L6.569 9.056a3 3 0 0 0-.568-.057 3 3 0 0 0-1.307.303L.268 6.747A10 10 0 0 0 0 9a10 10 0 0 0 .072 1.1l2.936 1.693A3 3 0 0 0 3 12a3 3 0 0 0 3 3 3 3 0 0 0 3-3 3 3 0 0 0-.015-.283l4.377-2.83A3.5 3.5 0 0 0 16 5.499a3.5 3.5 0 0 0-3.5-3.5zm0 1A2.5 2.5 0 0 1 15 5.5 2.5 2.5 0 0 1 12.5 8 2.5 2.5 0 0 1 10 5.5 2.5 2.5 0 0 1 12.5 3m0 1A1.5 1.5 0 0 0 11 5.5 1.5 1.5 0 0 0 12.5 7 1.5 1.5 0 0 0 14 5.5 1.5 1.5 0 0 0 12.5 4M6 10a2 2 0 0 1 2 2 2 2 0 0 1-2 2 2 2 0 0 1-1.959-1.611l.705.408c.72.416 1.633.171 2.05-.549s.17-1.633-.55-2.049l-.338-.195z" fill="url(#a)"/>
</svg>
