<svg xmlns="http://www.w3.org/2000/svg" viewBox="0 0 64 64"><defs><linearGradient id="a" x1="1" x2="0" y1="1"><stop offset="0" stop-color="#fd5900"/><stop offset="1" stop-color="#ffde00"/></linearGradient></defs><path fill="url(#a)" d="M31.28 7.936c-9.482.184-18.17 6.066-21.7 15.14l15.63 4.188a7.96 7.96 0 0 1 5.93-3.424l4.188-15.63a23.7 23.7 0 0 0-4.045-.27zm9.154 1.639-4.188 15.63a7.96 7.96 0 0 1 3.424 5.93l15.63 4.188c1.68-10.98-4.519-21.71-14.86-25.75zm-32.22 18.6c-1.68 10.98 4.519 21.71 14.86 25.75l4.188-15.63a7.96 7.96 0 0 1-3.424-5.93zm30.09 8.062a7.96 7.96 0 0 1-5.93 3.424l-4.188 15.63c10.98 1.68 21.71-4.519 25.75-14.86z" transform="translate(-10.664 -10.655)scale(1.343)"/></svg>