<svg xmlns="http://www.w3.org/2000/svg" viewBox="0 0 64 64"><path fill="#0cf" d="M47.934 18.63a22.05 22.05 0 0 1 11.84 8.166 21.6 21.6 0 0 1 3.886 16.64 21.38 21.38 0 0 1-9.498 14.3 4.038 4.038 0 0 1-6.167-3.465 3.99 3.99 0 0 1 1.798-3.345 13.38 13.38 0 0 0 5.987-8.85 13.74 13.74 0 0 0-6.554-14.26 14 14 0 0 0-5.222-1.823 4.014 4.014 0 0 1-3.433-3.462 13.9 13.9 0 0 0-5.367-9.175 13.67 13.67 0 0 0-8.308-2.781c-1.134 0-2.266.134-3.368.39a13.61 13.61 0 0 0-9.862 9.434 13.85 13.85 0 0 0 2.159 12.17 4 4 0 0 1-2.211 6.254 7.464 7.464 0 0 0-5.333 9.18 7.7 7.7 0 0 0 7.581 5.44h6.813a3.999 3.999 0 0 1 0 7.998h-6.813A15.59 15.59 0 0 1 .522 49.96a15.42 15.42 0 0 1 6.43-16.84 21.79 21.79 0 0 1 31.15-27.46 21.82 21.82 0 0 1 9.832 12.97" opacity=".4"/><path fill="#0cf" d="M39.994 45.57h4.174a2.582 2.582 0 0 1 1.826 4.41l-8.174 8.178a2.58 2.58 0 0 1-3.657 0l-8.177-8.177a2.582 2.582 0 0 1 1.828-4.41h4.175V33.56a4.009 4.009 0 0 1 6.836-2.833 4 4 0 0 1 1.173 2.833z"/></svg>