<svg version="1.1" viewBox="0 0 64 64" xmlns="http://www.w3.org/2000/svg" xmlns:xlink="http://www.w3.org/1999/xlink">
 <defs>
  <linearGradient id="a" y1="1">
   <stop stop-color="#d300dc" offset="0"/>
   <stop stop-color="#8700ff" offset="1"/>
  </linearGradient>
  <linearGradient id="b" x1="748.5" x2="936" y1="237.6" y2="50.09" gradientTransform="scale(.9999 1)" gradientUnits="userSpaceOnUse" xlink:href="#a"/>
 </defs>
 <path transform="translate(0 -5e-5) scale(1) translate(0 5e-5) scale(1) translate(0 -5e-5) scale(1) translate(0 5e-5) scale(1) translate(-.005388 .00305) scale(1) matrix(.06491 0 0 .06491 .000325 13.75)" d="m814.7 0c-93.19 0-169 74.59-171.2 167.2l-93.54 135.6c-20.19 0.495-39.2 5.593-56.09 14.3l-234.2-144.6c4e-3 -0.437 8e-3 -0.8765 8e-3 -1.312 0-71.6-58.17-129.8-129.8-129.8-71.68 0-129.8 58.21-129.8 129.8 0 71.67 58.14 129.8 129.8 129.8 21.4 0 41.58-5.19 59.39-14.35l234.2 144.6c-4e-3 0.409-6e-3 0.8205-6e-3 1.23 0 71.67 58.21 129.9 129.8 129.9 69.72 0 126.7-55.08 129.7-124.1l134.3-95.81c93.43-1.331 168.8-77.59 168.8-171.3 1.4e-4 -94.51-76.71-171.3-171.3-171.3zm0 67.17c57.46 0 104.2 46.66 104.2 104.1 0 57.52-46.72 104.2-104.2 104.2s-104.2-46.63-104.2-104.2c0-57.46 46.72-104.1 104.2-104.1zm-684.9 18.92c44.51 0 81.15 34.27 84.91 77.83l-58.22-35.92c-23.88-14.72-55.22-7.297-69.94 16.58-14.75 23.85-7.329 55.22 16.55 69.94l58.22 35.95c-9.792 3.853-20.44 6.002-31.52 6.002-47 0-85.2-38.16-85.2-85.2 0-47 38.19-85.19 85.2-85.19zm423.4 261.3c47.07 0 85.2 38.22 85.2 85.2 0 47-38.13 85.19-85.2 85.19-44.51 0-81.12-34.21-84.85-77.83l58.15 35.92c23.88 14.72 55.22 7.297 69.94-16.58 14.75-23.85 7.33-55.22-16.55-69.94l-58.16-35.89c9.73-3.917 20.38-6.064 31.46-6.064z" fill="url(#a)"/>
 <path transform="translate(0 -5e-5) scale(1) translate(0 5e-5) scale(1) translate(0 -5e-5) scale(1) translate(0 5e-5) scale(1) translate(-.005388 .00305) scale(1) matrix(.06491 0 0 .06491 .000325 13.75)" d="m814.7 105c-36.58 0-66.27 29.69-66.27 66.27s29.69 66.3 66.27 66.3 66.27-29.72 66.27-66.3-29.69-66.27-66.27-66.27z" fill="url(#b)"/>
</svg>
