<svg version="1.1" viewBox="0 0 64 64" xmlns="http://www.w3.org/2000/svg">
 <defs>
  <linearGradient id="b" x2="0" y1="1">
   <stop stop-color="#0072ff" offset="0"/>
   <stop stop-color="#43e97b" offset="1"/>
  </linearGradient>
  <linearGradient id="c" x2="0" y2="1">
   <stop stop-color="#00d7ff" offset="0"/>
   <stop stop-color="#005fff" offset="1"/>
  </linearGradient>
  <linearGradient id="a" x1="1" x2="0" y1="1">
   <stop stop-color="#9000ff" offset="0"/>
   <stop stop-color="#f3f" offset="1"/>
  </linearGradient>
 </defs>
 <path transform="translate(-0) scale(1) translate(4.2e-5 .00021) scale(1) matrix(.9895 0 0 .9895 .6841 3.632)" d="m33.42 5.934a1 1 0 0 0-0.998 1v26.74a1 1 0 0 0 0.998 1.002h1.672a1 1 0 0 0 1.002-1.002v-26.74a1 1 0 0 0-1.002-1z" fill="url(#b)"/>
 <path transform="translate(-0) scale(1) translate(4.2e-5 .00021) scale(1) matrix(.9895 0 0 .9895 .6841 3.632)" d="m23.4 5.934a1 1 0 0 0-1 1v26.74a1 1 0 0 0 1 1.002h1.67a1 1 0 0 0 1-1.002v-26.74a1 1 0 0 0-1-1z" fill="url(#b)"/>
 <path transform="translate(-0) scale(1) translate(4.2e-5 .00021) scale(1) matrix(.9895 0 0 .9895 .6841 3.632)" d="m13.37 5.934a1 1 0 0 0-1.002 1v26.74a1 1 0 0 0 1.002 1.002h1.672a1 1 0 0 0 0.998-1.002v-26.74a1 1 0 0 0-0.998-1z" fill="url(#b)"/>
 <path transform="translate(-0) scale(1) translate(4.2e-5 .00021) scale(1) matrix(.9895 0 0 .9895 .6841 3.632)" d="m0.2969 47.77c-0.5467 0.0011-0.9893 0.4454-0.9883 0.9922v6.58c5.344e-5 0.546 0.4423 0.9891 0.9883 0.9902h59.56c0.5475 1e-3 0.9921-0.4427 0.9922-0.9902v-6.58c1e-3 -0.5482-0.4439-0.9932-0.9922-0.9922z" fill="url(#c)"/>
 <path transform="translate(-0) scale(1) translate(4.2e-5 .00021) scale(1) matrix(.9895 0 0 .9895 .6841 3.632)" d="m14.1 32a5.013 5.013 0 0 0-5.014 5.014 5.013 5.013 0 0 0 5.014 5.012 5.013 5.013 0 0 0 5.012-5.012 5.013 5.013 0 0 0-5.012-5.014z" fill="url(#a)"/>
 <path transform="translate(-0) scale(1) translate(4.2e-5 .00021) scale(1) translate(.6841 3.632) scale(.9895)" d="m24.12 32a5.013 5.013 0 0 0-5.014 5.014 5.013 5.013 0 0 0 5.014 5.012 5.013 5.013 0 0 0 5.014-5.012 5.013 5.013 0 0 0-5.014-5.014z" fill="url(#a)"/>
 <path transform="translate(-0) scale(1) translate(4.2e-5 .00021) scale(1) matrix(.9895 0 0 .9895 .6841 3.632)" d="m34.15 32a5.013 5.013 0 0 0-5.012 5.014 5.013 5.013 0 0 0 5.012 5.012 5.013 5.013 0 0 0 5.014-5.012 5.013 5.013 0 0 0-5.014-5.014z" fill="url(#a)"/>
 <path transform="translate(-0) scale(1) translate(4.2e-5 .00021) scale(1) matrix(.9895 0 0 .9895 .6841 3.632)" d="m3.322 1.006a1.067 1.067 0 0 0-1.066 1.066v48.15a1.067 1.067 0 0 0 1.066 1.066h3.566a1.067 1.067 0 0 0 1.066-1.066v-43.52h44.24v43.52a1.067 1.067 0 0 0 1.066 1.066h3.566a1.067 1.067 0 0 0 1.064-1.066v-48.15a1.067 1.067 0 0 0-1.064-1.066z" fill="url(#b)"/>
 <path transform="translate(-0) scale(1) translate(4.2e-5 .00021) scale(1) matrix(.9895 0 0 .9895 .6841 3.632)" d="m44.26 5.457a1 1 0 0 0-0.3867 0.05859l-1.57 0.5723a1 1 0 0 0-0.5957 1.283l9.146 25.11a1 1 0 0 0 1.281 0.5977l1.568-0.5684a1 1 0 0 0 0.6016-1.283l-9.148-25.12a1 1 0 0 0-0.8965-0.6562z" fill="url(#b)"/>
 <path transform="translate(-0) scale(1) translate(4.2e-5 .00021) scale(1) translate(.6841 3.632) scale(.9895)" d="m54.07 29.98 2e-3 2e-3a5.013 5.013 0 0 0-5.027 3.461 5.013 5.013 0 0 0 3.228 6.312 5.013 5.013 0 0 0 6.31-3.228 5.013 5.013 0 0 0-3.227-6.31 5.013 5.013 0 0 0-1.287-0.2363z" fill="url(#a)"/>
 <path transform="translate(-0) scale(1) translate(4.2e-5 .00021) scale(1) matrix(.9895 0 0 .9895 .6841 3.632)" d="m56.99 29.24a5.013 5.013 0 0 0-5.264 4.754 5.013 5.013 0 0 0 4.752 5.26 5.013 5.013 0 0 0 5.26-4.752 5.013 5.013 0 0 0-4.748-5.262z" fill="url(#a)" opacity=".358"/>
 <path transform="translate(-0) scale(1) translate(4.2e-5 .00021) scale(1) matrix(.9895 0 0 .9895 .6841 3.632)" d="m59.23 28.37a5.013 5.013 0 0 0-5.26 4.754 5.013 5.013 0 0 0 4.748 5.26 5.013 5.013 0 0 0 5.264-4.752 5.013 5.013 0 0 0-4.752-5.262z" fill="url(#a)" opacity=".214"/>
</svg>
