<svg xmlns="http://www.w3.org/2000/svg" style="isolation:isolate" viewBox="0 0 64 64"><linearGradient id="a" x1=".062" x2=".99" y1=".147" y2=".987" gradientTransform="matrix(32.83 0 0 47 7.585 .5)" gradientUnits="userSpaceOnUse" transform="translate(-.68 -.68)scale(1.362)"><stop offset="0" stop-color="#16b5e4"/><stop offset=".983" stop-color="#f520fa"/></linearGradient><path fill="url(#a)" fill-rule="evenodd" d="M22.69 8.44H10.58c-1.656 0-3 1.344-3 3v16.98c0 1.656 1.344 3 3 3h21.31a1 1 0 0 1 1 1v8.46a1 1 0 0 1-1 1H16.2a1 1 0 0 1-1-1v-5.13a2 2 0 0 0-4 0v7.13c0 1.656 1.344 3 3 3h4.422v.62a1 1 0 0 0 1 1h1.615a1 1 0 0 0 1-1v-.62h3.615v.62a1 1 0 0 0 1 1h1.616a1 1 0 0 0 1-1v-.62h4.422c1.656 0 3-1.344 3-3V30.42c0-1.656-1.344-3-3-3H12.58a1 1 0 0 1-1-1V13.44a1 1 0 0 1 1-1h22.83a1 1 0 0 1 1 1v8.75a2 2 0 0 0 4 0V11.44c0-1.656-1.344-3-3-3H25.4V6.521c.324-.155.621-.365.877-.625a3.13 3.13 0 0 0 .931-2.233c0-.84-.334-1.645-.931-2.232A3.13 3.13 0 0 0 24.045.5a3.13 3.13 0 0 0-2.233.931 3.13 3.13 0 0 0-.931 2.232c0 .841.335 1.645.931 2.233.256.26.553.47.877.625V8.44zm-5.779 8.233h3.423a1 1 0 0 1 1 1v1.615a1 1 0 0 1-1 1h-3.423a1 1 0 0 1-1-1v-1.615a1 1 0 0 1 1-1m10.85 0h3.423a1 1 0 0 1 1 1v1.615a1 1 0 0 1-1 1h-3.423a1 1 0 0 1-1-1v-1.615a1 1 0 0 1 1-1m-5.067-13.01a1.353 1.353 0 0 1 2.314-.958 1.355 1.355 0 1 1-2.314.958" transform="translate(-.68 -.68)scale(1.362)"/></svg>