<svg xmlns="http://www.w3.org/2000/svg" style="isolation:isolate" viewBox="0 0 64 64"><linearGradient id="a" x1=".183" x2=".903" y1=".249" y2=".903" gradientTransform="matrix(34.53 0 0 16.92 6.499 .09)" gradientUnits="userSpaceOnUse" transform="translate(-.398 -.121)scale(1.35)"><stop offset=".026" stop-color="#b3ffab"/><stop offset=".987" stop-color="#12fff7"/></linearGradient><path fill="url(#a)" fill-rule="evenodd" d="M18.45 10.3a13.8 13.8 0 0 0-3.099-3.825c-.64-.56-1.34-1.04-2.08-1.43-.67-.36-1.39-.62-2.14-.77-.05-.01-.1-.02-.15-.02l-.38-.04h-.15c-.79 0-1.56.26-2.2.72a3.65 3.65 0 0 0-1.4 1.92c-.24.8-.36 1.63-.35 2.46.01 1.33.26 2.65.75 3.88.55 1.4 1.35 2.69 2.36 3.81l1.01-.91h2.22l-1.01-1.11a9.4 9.4 0 0 1-1.79-2.88 8 8 0 0 1-.54-2.81c-.01-.53.07-1.05.22-1.56.05-.14.14-.27.27-.36s.27-.15.43-.16l.2.02c.43.09.85.25 1.23.46.55.29 1.07.64 1.54 1.05a10.9 10.9 0 0 1 2.78 3.68l.62 1.36 2.73-1.26-.07-.152 2.31-.398-.25-1.47c-.1-.54-.14-1.08-.14-1.62-.01-1.18.23-2.35.68-3.43.35-.85.88-1.6 1.56-2.21.13-.11.3-.17.48-.16.19-.01.37.06.51.18.27.27.51.56.71.89.27.43.5.88.67 1.36.44 1.18.66 2.43.65 3.69 0 .49-.03.98-.09 1.46l-.19 1.49 1.729.221-.069.149 2.72 1.26.63-1.36c.65-1.41 1.6-2.67 2.78-3.68q.705-.615 1.53-1.05c.39-.21.81-.37 1.24-.46l.2-.02c.15.01.3.07.42.16.13.09.23.22.28.36.15.51.22 1.03.22 1.56-.01.96-.19 1.91-.55 2.81a9.3 9.3 0 0 1-1.78 2.88v1.11l1.41.91h.81c1.01-1.12 1.81-2.41 2.36-3.81.48-1.23.74-2.55.75-3.88 0-.83-.11-1.66-.35-2.46-.25-.78-.74-1.45-1.4-1.92-.64-.46-1.41-.72-2.2-.72h-.15l-.38.04c-.05 0-.1.01-.16.02-.74.15-1.46.41-2.13.77-.75.39-1.45.87-2.09 1.43a13.7 13.7 0 0 0-2.544 2.91q.005-.085.004-.17c.01-1.62-.27-3.23-.84-4.75-.24-.66-.55-1.3-.93-1.89a7.4 7.4 0 0 0-1.22-1.51 3.72 3.72 0 0 0-2.55-.98c-.9-.01-1.76.31-2.44.88a8.96 8.96 0 0 0-2.37 3.34c-.61 1.45-.92 3.01-.91 4.59q0 .707.079 1.405" transform="translate(-.398 -.121)scale(1.35)"/><linearGradient id="c" x1=".518" x2=".507" y1=".033" y2=".968" gradientTransform="matrix(38.04 0 0 36.7 4.977 10.8)" gradientUnits="userSpaceOnUse" transform="translate(-.398 -.121)scale(1.35)"><stop offset="0" stop-color="#f46133"/><stop offset=".988" stop-color="#f05081"/></linearGradient><path fill="url(#c)" fill-rule="evenodd" d="M10.22 24.76c0-1.289.625-2.335 1.395-2.335s1.395 1.046 1.395 2.335-.625 2.335-1.395 2.335-1.395-1.046-1.395-2.335m6-1c0-1.289.625-2.335 1.395-2.335s1.395 1.046 1.395 2.335-.625 2.335-1.395 2.335-1.395-1.046-1.395-2.335m13 0c0-1.289.625-2.335 1.395-2.335s1.395 1.046 1.395 2.335-.625 2.335-1.395 2.335-1.395-1.046-1.395-2.335m-6.91-2.65c0-1.289.625-2.335 1.395-2.335S25.1 19.821 25.1 21.11s-.625 2.335-1.395 2.335-1.395-1.046-1.395-2.335m0 9c0-1.289.625-2.335 1.395-2.335S25.1 28.821 25.1 30.11s-.625 2.335-1.395 2.335-1.395-1.046-1.395-2.335m-9.3.62c0-1.289.625-2.335 1.395-2.335S15.8 29.441 15.8 30.73s-.625 2.335-1.395 2.335-1.395-1.046-1.395-2.335m13.6 7.355c0-1.289.625-2.335 1.395-2.335s1.395 1.046 1.395 2.335-.625 2.335-1.395 2.335-1.395-1.046-1.395-2.335m5.115-7.355c0-1.289.625-2.335 1.395-2.335s1.395 1.046 1.395 2.335-.625 2.335-1.395 2.335-1.395-1.046-1.395-2.335m4-5.97c0-1.289.625-2.335 1.395-2.335s1.395 1.046 1.395 2.335-.625 2.335-1.395 2.335-1.395-1.046-1.395-2.335m-16.21 13.32c0-1.289.625-2.335 1.395-2.335s1.395 1.046 1.395 2.335-.625 2.335-1.395 2.335-1.395-1.046-1.395-2.335m-9.81-19.49c2-1.54 4.23-2.76 6.61-3.61 2.24-.78 4.6-1.18 6.98-1.18 2.51.01 5.01.42 7.39 1.21 2.7.9 5.27 2.15 5.27 2.15 1.314.861 2.479 1.623 2.6 1.7l1.25 4.58c.16.66.23 1.35.21 2.03 0 .54-.03 1.08-.1 1.62-.05.44-.15.88-.28 1.3-.83 2.53-1.87 4.99-3.11 7.34-.83 1.56-1.84 3.01-3.02 4.32-.69.76-1.44 1.45-2.26 2.06-.7.53-1.45.98-2.24 1.34-.76.34-1.56.6-2.37.77a12.61 12.61 0 0 1-5.24.01c-.81-.16-1.59-.42-2.34-.75-.78-.35-1.52-.78-2.21-1.29-.8-.59-1.55-1.26-2.22-1.99-.29-.32-.58-.65-.84-.98-.3-.37-.59-.75-.86-1.14-.86-1.24-1.62-2.54-2.27-3.91-.88-1.87-1.65-3.8-2.3-5.78-.13-.42-.23-.86-.28-1.3-.07-.54-.1-1.08-.1-1.62a7.7 7.7 0 0 1 .21-2.03l1.02-4.11c.08-.29.25-.56.5-.74m-1.82-2.39c2.24-1.72 4.75-3.09 7.42-4.04 2.57-.9 5.28-1.36 8-1.36 2.83.01 5.64.48 8.33 1.37 2.94.98 5.74 2.33 8.34 4.03.85.56 1.47 1.42 1.72 2.41l1.03 4.12v.02c.21.9.31 1.82.29 2.74 0 .66-.04 1.32-.12 1.97-.08.63-.21 1.25-.4 1.85-.89 2.7-2 5.31-3.32 7.82-.94 1.78-2.1 3.44-3.45 4.93-.81.9-1.71 1.72-2.68 2.45-.87.66-1.81 1.22-2.8 1.67-.96.43-1.96.76-2.99.98-1.07.23-2.16.34-3.26.34-1.08 0-2.16-.11-3.21-.33-1.02-.21-2.01-.53-2.95-.95-.98-.44-1.91-.98-2.77-1.62-.95-.7-1.84-1.5-2.65-2.37-.34-.37-.66-.75-.98-1.14-.33-.42-.66-.85-.97-1.29q-1.44-2.07-2.52-4.35c-.94-1.99-1.76-4.04-2.45-6.14-.19-.6-.32-1.22-.4-1.85-.08-.65-.12-1.31-.12-1.97-.02-.92.08-1.84.29-2.74v-.02l1.03-4.12c.24-.96.8-1.81 1.59-2.41" transform="translate(-.398 -.121)scale(1.35)"/></svg>