<svg xmlns="http://www.w3.org/2000/svg" viewBox="0 0 64 64"><defs><linearGradient id="a" x1="17.05" x2="4.535" y1="13.79" y2="1.269" gradientTransform="matrix(1.349 0 0 1.668 -1 -1)" gradientUnits="userSpaceOnUse"><stop offset="0" stop-color="#9000ff"/><stop offset="1" stop-color="#ff37ff"/></linearGradient><linearGradient id="b" x1="15.99" x2="15.99" y1="25.74" y2="6" gradientTransform="translate(-2.605 -1.11)scale(.4827)" gradientUnits="userSpaceOnUse"><stop offset="0" stop-color="#fda700"/><stop offset="1" stop-color="#ffde00"/></linearGradient></defs><path fill="url(#a)" d="M11.77 11.52zl7.326-2.93a1 1 0 0 1 1.371.929v2.482c0 .79-.936 1.319-1.726 1.303a3.32 3.32 0 0 0-3.348 2.798 3.324 3.324 0 0 0 4.107 3.749 3.326 3.326 0 0 0 2.503-3.221V6.851c0-1.17 0-2.151-.082-2.932a8 8 0 0 0-.041-.322c-.08-.534-.219-1.032-.49-1.448a2.2 2.2 0 0 0-.635-.645L20.75 1.5c-.724-.481-1.537-.447-2.376-.233-.81.206-1.815.627-3.047 1.143l-2.142.896c-.578.242-1.067.447-1.45.66-.41.224-.761.49-1.025.887s-.374.824-.425 1.288c-.047.436-.047.967-.047 1.594v6.311c0 .79-.935 1.32-1.726 1.303a3.322 3.322 0 0 0-3.348 2.798 3.324 3.324 0 0 0 5.911 2.567c.453-.583.7-1.3.7-2.039z" transform="translate(-.153 -1.705)scale(2.916)"/><path fill="url(#b)" d="M4.313 1.545v.241H4.31l-.004-.24a1.014 1.014 0 0 0-.955.786l-.002.008-.105.507-.008.031v.001l-.2.98a.24.24 0 0 1-.237.192H1.7a1.02 1.02 0 0 0-.957.787v.005a.8.8 0 0 0-.002.355c.025.11.076.21.143.3l-.003.001v.002L.885 5.5q.004.01.01.02l.195-.142h.001l-.194.145c.142.17.359.28.597.28h.848c.158 0 .268.136.237.29L2.37 7.1a.24.24 0 0 1-.236.194H1.03a1.015 1.015 0 0 0-.956.786l-.001.005H.073a.8.8 0 0 0 0 .354c.025.11.076.21.143.3l-.004.002.004-.002c.005.006.005.014.01.02l.196-.142.002.001-.196.146c.143.17.359.279.597.279h.848c.158 0 .268.135.236.29L1.65 10.6v.001a.8.8 0 0 0-.001.355c.025.109.077.209.143.298l-.003.003v.001l.004-.003q.005.01.009.02v.001l.197-.141-.194.144a.78.78 0 0 0 .597.28h.012v-.241h.004l.004.24a1.014 1.014 0 0 0 .956-.784v-.001l.002-.008.314-1.528a.24.24 0 0 1 .237-.193h1.315c.158 0 .268.136.236.29l-.261 1.268a.8.8 0 0 0 0 .355c.024.11.076.212.144.303l-.003.002h.001l.002-.001q.005.009.009.017l.195-.145v.001l-.192.146a.78.78 0 0 0 .596.28h.013v-.241h.003l.004.241a1.014 1.014 0 0 0 .956-.786l.002-.008.314-1.528a.24.24 0 0 1 .237-.193h1.043a1.013 1.013 0 0 0 .957-.786v-.002a.8.8 0 0 0 .004-.357.8.8 0 0 0-.143-.298l.004-.003-.004.002c-.005-.007-.006-.016-.011-.022l-.197.14.195-.143a.78.78 0 0 0-.598-.281h-.789a.237.237 0 0 1-.236-.29l.207-1.007a.24.24 0 0 1 .236-.194h1.044a1.014 1.014 0 0 0 .956-.786v-.005c.028-.117.017-.2.012-.264a.6.6 0 0 0-.04-.178 1 1 0 0 0-.097-.186l.007-.005-.005-.01-.009-.01-.004-.004-.014-.018h-.002v-.003h-.001v-.001h-.001v-.001h-.001V4.33h-.001l-.015-.02-.005-.006-.005-.005-.005.005a1 1 0 0 0-.15-.127.6.6 0 0 0-.18-.083c-.061-.016-.134-.042-.247-.042h-.774a.237.237 0 0 1-.237-.29l.26-1.263-.001.006a.8.8 0 0 0 0-.355.8.8 0 0 0-.145-.304l.003-.003-.003.001q-.004-.007-.008-.015l-.194.143.192-.146a.78.78 0 0 0-.597-.28H7.89v.241h-.003l-.005-.24a1.016 1.016 0 0 0-.955.784v.002l-.002.007-.1.493-.002.003H6.82l-.012.043v.001l-.202.98a.24.24 0 0 1-.236.192H5.057a.236.236 0 0 1-.236-.29l.258-1.258a.8.8 0 0 0 .001-.355.8.8 0 0 0-.143-.298l.004-.003H4.94l-.003.001q-.006-.01-.01-.02l-.198.14.195-.143a.77.77 0 0 0-.597-.28h-.013zm5.653 2.757.009.006-.022.018zM4.598 5.801h1.315c.158 0 .268.135.237.29l-.208 1.007a.24.24 0 0 1-.236.193H4.39A.236.236 0 0 1 4.155 7l.206-1.008a.24.24 0 0 1 .237-.192" transform="translate(-.153 -1.705)scale(2.916)"/></svg>