<svg xmlns="http://www.w3.org/2000/svg" viewBox="0 0 64 64"><defs><linearGradient id="b" x1="1" x2="0" y1="1"><stop offset="0" stop-color="#fda700"/><stop offset="1" stop-color="#ffde00"/></linearGradient><linearGradient id="a" x1="1" x2="0" y1="1"><stop offset="0" stop-color="#7700d5"/><stop offset="1" stop-color="#bd00ff"/></linearGradient><linearGradient id="d" x2="0" y2="1"><stop offset="0" stop-color="#05f"/><stop offset="1" stop-color="#00ffd8"/></linearGradient></defs><path fill="url(#a)" d="M7.646 1.838C3.448 1.838 0 5.286 0 9.484v34.43c0 4.198 3.448 7.646 7.646 7.646h25.21l14.15 9.777c3.129 2.163 7.635-.196 7.635-4V51.56h1.711c4.198 0 7.646-3.448 7.646-7.646V9.484c0-4.198-3.448-7.646-7.646-7.646zm-.014 4.17h48.72l-.004.002a3.443 3.443 0 0 1 3.461 3.478v34.43a3.444 3.444 0 0 1-3.477 3.475h-3.797a2.086 2.086 0 0 0-2.086 2.086v7.863c0 .681-.53.96-1.092.57l-14.68-10.15a2.1 2.1 0 0 0-1.186-.37H7.631a3.443 3.443 0 0 1-3.478-3.476V9.486a3.446 3.446 0 0 1 3.478-3.478z"/><path fill="url(#b)" d="M11.99 30.17a2.086 2.086 0 0 0-2.086 2.084 2.086 2.086 0 0 0 2.086 2.086h23.04a2.086 2.086 0 0 0 2.084-2.086 2.086 2.086 0 0 0-2.084-2.084zm32.2 0a2.086 2.086 0 0 0-2.086 2.084 2.086 2.086 0 0 0 2.086 2.086h7.51a2.086 2.086 0 0 0 2.086-2.086A2.086 2.086 0 0 0 51.7 30.17zm-32.2 8.449a2.086 2.086 0 0 0-2.086 2.086 2.086 2.086 0 0 0 2.086 2.086h7.506a2.086 2.086 0 0 0 2.086-2.086 2.086 2.086 0 0 0-2.086-2.086zm16.66 0a2.086 2.086 0 0 0-2.086 2.086 2.086 2.086 0 0 0 2.086 2.086h23.04a2.086 2.086 0 0 0 2.084-2.086 2.086 2.086 0 0 0-2.084-2.086z"/><path fill="url(#d)" d="M39.69 12.48a2.34 2.34 0 0 0-1.789.88l-5.904 7.448-5.9-7.445a2.35 2.35 0 0 0-3.289-.379 2.35 2.35 0 0 0-.38 3.289l7.726 9.742c.462.582 1.152.89 1.844.887a2.34 2.34 0 0 0 1.844-.887l7.727-9.742a2.35 2.35 0 0 0-.38-3.287 2.33 2.33 0 0 0-1.497-.504z"/><path fill="url(#d)" d="M27.78 7.619a1.87 1.87 0 0 0-1.203.404 1.886 1.886 0 0 0-.305 2.641l4.246 5.357a1.88 1.88 0 0 0 1.48.711 1.89 1.89 0 0 0 1.48-.71l4.246-5.357a1.886 1.886 0 0 0-.302-2.643h-.002a1.886 1.886 0 0 0-2.64.305l-2.782 3.51-2.78-3.51a1.88 1.88 0 0 0-1.437-.707z"/></svg>