<svg xmlns="http://www.w3.org/2000/svg" style="isolation:isolate" viewBox="0 0 64 64"><linearGradient id="a" x2="1" y1=".5" y2=".5" gradientTransform="scale(48)" gradientUnits="userSpaceOnUse" transform="translate(0 .002)scale(1.333)"><stop offset="0" stop-color="#882ae9"/><stop offset="1" stop-color="#34eceb"/></linearGradient><path fill="url(#a)" fill-rule="evenodd" d="M43.56 14.33c1.078-.534 2.533.2 3.246 1.639.592 1.195 1.428 5.422 1.14 9.659a24.08 24.08 0 0 1-8.16 16.46 24.06 24.06 0 0 1-17.41 5.859 24.08 24.08 0 0 1-16.46-8.16 24.06 24.06 0 0 1-5.859-17.41 24.08 24.08 0 0 1 8.16-16.46A24.06 24.06 0 0 1 25.627.058c3.977.27 7.813 1.523 8.722 2.095 1.358.857 1.94 2.379 1.3 3.397-.641 1.019-2.264 1.152-3.623.297-.292-.184-3.444-1.214-6.695-1.435a19.7 19.7 0 0 0-14.25 4.79 19.65 19.65 0 0 0-6.674 13.47c-.353 5.195 1.368 10.33 4.79 14.25s8.274 6.321 13.47 6.674a19.65 19.65 0 0 0 14.25-4.79 19.68 19.68 0 0 0 6.674-13.47c.236-3.468-.448-6.926-.695-7.426-.713-1.439-.415-3.041.663-3.576zM10.5 24.001l14 6 16-22-15 30z" transform="translate(0 .002)scale(1.333)"/></svg>