<svg xmlns="http://www.w3.org/2000/svg" style="isolation:isolate" viewBox="0 0 64 64"><linearGradient id="a" x2="1" y1=".5" y2=".5" gradientTransform="matrix(-18.63 0 0 20.74 33.32 13.63)" gradientUnits="userSpaceOnUse" transform="translate(-4.376 -.688)scale(1.493)"><stop offset="0" stop-color="#ffe53b"/><stop offset=".987" stop-color="#ff005b"/></linearGradient><path fill="url(#a)" fill-rule="evenodd" d="M28.97 18.34a.903.903 0 1 0 1.052-1.467l-5.19-3.051c-.43-.253-1.129-.255-1.561-.006l-7.805 4.506c-.432.249-.782.856-.782 1.355v8.159c0 .498.349 1.107.78 1.359l8.658 5.062c.431.251.78.051.78-.448V28.35a.904.904 0 0 0-1.806 0v2.394c0 .249-.175.349-.39.224l-6.216-3.611v-7.54l7.455-4.303zm-2.524 12.93a.91.91 0 0 0-.307 1.242.9.9 0 0 0 1.237.307l5.149-2.87c.436-.243.789-.844.789-1.343v-9.242c0-.499-.35-.701-.782-.452l-8.092 4.673a.88.88 0 0 1-.786.007l-4.631-2.562a.904.904 0 1 0-1.043 1.476l5.187 2.994c.432.249 1.133.249 1.564 0l6.777-3.91v6.903z" transform="translate(-4.376 -.688)scale(1.493)"/><linearGradient id="c" x2="1" y1=".5" y2=".5" gradientTransform="matrix(41.58 0 0 42.85 3.566 .461)" gradientUnits="userSpaceOnUse" transform="translate(-4.376 -.688)scale(1.493)"><stop offset="0" stop-color="#18d0ad"/><stop offset=".904" stop-color="#07c3f2"/></linearGradient><path fill="url(#c)" fill-rule="evenodd" d="m41.05 30.45-3.419-1.93a2.005 2.005 0 0 0-2.765.625 1.997 1.997 0 0 0 .625 2.755l3.902 2.21-9.835 5.396a2.06 2.06 0 0 0-.698 2.82 2.05 2.05 0 0 0 2.81.697l11.69-6.517c.988-.551 1.791-1.917 1.791-3.048v-14.41c0-1.131-.908-1.934-2.026-1.791-1.145.147-2.075 1.207-2.075 2.366v10.82zm-33.38-.016v-16.34L21.95 5.85l.102 4.201a2.001 2.001 0 0 0 4-.1l-.098-4.047 9.336 5.251a2.05 2.05 0 0 0 2.865-.467 2.055 2.055 0 0 0-.477-2.865L25.898.896c-.976-.574-2.564-.58-3.544-.014l-.282.163-.235.006.003.128-17.51 10.11a1.2 1.2 0 0 0-.274.167q-.015.004-.019.013c-.285.196-.425.439-.398.682a2 2 0 0 0-.068.542v20.77c0 1.131.803 2.497 1.791 3.048l11.69 6.517c.968.583 2.227.27 2.81-.697a2.06 2.06 0 0 0-.698-2.82l-9.821-5.388 3.752-2.437a2.004 2.004 0 0 0-2.18-3.36l-3.243 2.113z" transform="translate(-4.376 -.688)scale(1.493)"/></svg>