<svg xmlns="http://www.w3.org/2000/svg" style="isolation:isolate" viewBox="0 0 64 64"><linearGradient id="a" x1=".051" x2=".954" y1=".909" y2=".196" gradientTransform="matrix(22.24 0 0 31.65 12.88 1)" gradientUnits="userSpaceOnUse" transform="translate(-.027 -1.353)scale(1.3616)"><stop offset="0" stop-color="#7eebda"/><stop offset=".496" stop-color="#73ff44"/><stop offset=".987" stop-color="#ffcd3e"/></linearGradient><path fill="url(#a)" fill-rule="evenodd" d="M25.36 11.61c0-.831.609-1.507 1.358-1.507s1.358.676 1.358 1.507v6.531h4.394c2.632 0 3.441 1.674 1.806 3.737l-7.312 9.223c-1.635 2.063-4.289 2.063-5.924 0l-7.312-9.223c-1.635-2.063-.826-3.737 1.806-3.737h4.394V2.501c0-.832.608-1.507 1.358-1.507.749 0 1.358.675 1.358 1.507v18.65h-4.37c-.526 0-.707.348-.402.778l5.578 7.867c.305.43.799.43 1.104 0l5.578-7.867c.305-.43.124-.778-.402-.778h-4.37v-9.545z" transform="translate(-.027 -1.353)scale(1.3616)"/><linearGradient id="b" x2="1" y1=".5" y2=".5" gradientTransform="matrix(45.51 0 0 -46.9 .76 48)" gradientUnits="userSpaceOnUse" transform="translate(-.027 -1.353)scale(1.3616)"><stop offset="0" stop-color="#af68e5"/><stop offset=".983" stop-color="#faac80"/></linearGradient><path fill="url(#b)" fill-rule="evenodd" d="m41.78 15.18-3.742 2.112a2.193 2.193 0 0 1-3.026-.684 2.185 2.185 0 0 1 .684-3.015l4.27-2.418-10.76-5.905c-1.059-.644-1.401-2.027-.763-3.086s2.016-1.401 3.074-.763l12.8 7.132c1.081.603 1.96 2.098 1.96 3.336v15.77c0 1.239-.994 2.117-2.218 1.961-1.253-.161-2.27-1.321-2.27-2.589v-11.85zm-36.53.018v17.88L20.88 42.1l.112-4.598a2.19 2.19 0 0 1 4.378.11l-.108 4.429 10.22-5.746c1.009-.725 2.415-.496 3.136.51s.488 2.412-.522 3.136l-12.9 7.581c-1.067.627-2.805.634-3.878.015l-.309-.179-.257-.006.004-.14-19.16-11.06a1.2 1.2 0 0 1-.3-.183q-.016-.005-.021-.014c-.312-.215-.465-.481-.436-.747a2.2 2.2 0 0 1-.074-.593v-22.73c0-1.238.878-2.733 1.96-3.336l12.79-7.132a2.24 2.24 0 0 1 3.074.763 2.256 2.256 0 0 1-.763 3.086l-10.75 5.896 4.106 2.668a2.192 2.192 0 0 1-2.386 3.677l-3.549-2.313z" transform="translate(-.027 -1.353)scale(1.3616)"/></svg>