<svg xmlns="http://www.w3.org/2000/svg" style="isolation:isolate" viewBox="0 0 64 64"><linearGradient id="a" x2="1" y1=".5" y2=".5" gradientTransform="matrix(44.85 0 0 46.06 1.64 .58)" gradientUnits="userSpaceOnUse" transform="translate(-1.438 -.806)scale(1.389)"><stop offset="0" stop-color="#ffe53b"/><stop offset=".987" stop-color="#ff005b"/></linearGradient><path fill="url(#a)" fill-rule="evenodd" d="m34.72 33.52-.058.128q.514-.077 1-.243 1.125-.36 2.16-.9c.87-.44 1.72-.94 2.54-1.47 2.37-1.55 3.21 2.92.55 6.45-1.44 1.9-3.12 3.6-5.01 5.05a20.7 20.7 0 0 1-5.82 3.08c-2.11.69-4.31 1.03-6.53 1.02-1.64 0-3.28-.17-4.89-.48a35.6 35.6 0 0 1-5.16-1.44c-1.86-.68-3.68-1.47-5.44-2.37-2.15-1.1-4.23-2.31-6.25-3.63a37 37 0 0 1-.17-3.48c-.01-2.19.22-4.37.68-6.52.46-2.05 1.15-4.04 2.08-5.93.93-1.9 2.09-3.68 3.45-5.3 1.43-1.71 3.04-3.27 4.79-4.64a43 43 0 0 1 6.1-3.98 61 61 0 0 1 7.4-3.32 82 82 0 0 1 8.68-2.7c3.68-.94 7.41-1.69 11.16-2.27.34 1.39.51 2.82.51 4.26 0 1.66-.23 3.31-.68 4.91-.49 1.69-1.17 3.31-2.04 4.83-.96 1.68-2.08 3.26-3.34 4.72a43 43 0 0 1-4.224 4.297 11.7 11.7 0 0 0 4.064-2.297c.73-.63 1.38-1.34 1.95-2.11 1.73-2.36 4.28-.61 3.36 3.01-.41 1.57-1.04 3.07-1.89 4.46-.84 1.36-1.88 2.58-3.09 3.63-1.29 1.1-2.71 2.02-4.24 2.74zm.898-2.918q.208-1.123.209-2.307 0-1.008-.15-1.973l.455-.117a14.2 14.2 0 0 0 5.79-3.02c.37-.33.73-.68 1.08-1.04-.35 1.12-.83 2.2-1.44 3.2a13 13 0 0 1-2.59 3.04 16.6 16.6 0 0 1-3.354 2.217m-2.592 5.72a12.88 12.88 0 0 1-10.1 4.873c-7.125 0-12.9-5.775-12.9-12.9 0-7.124 5.775-12.9 12.9-12.9a12.86 12.86 0 0 1 11.27 6.644 44 44 0 0 0 4.332-4.364c1.16-1.35 2.18-2.8 3.07-4.34.77-1.35 1.37-2.78 1.8-4.27a15.6 15.6 0 0 0 .53-5.62c-2.85.5-5.69 1.11-8.5 1.82-2.85.72-5.66 1.6-8.42 2.62-2.43.9-4.8 1.97-7.09 3.19a40 40 0 0 0-5.74 3.74 29.2 29.2 0 0 0-4.41 4.27 24.2 24.2 0 0 0-3.13 4.8c-.84 1.71-1.47 3.51-1.87 5.37a27.3 27.3 0 0 0-.63 5.98q0 1.02.06 2.04c1.62 1.02 3.29 1.97 5 2.84q2.505 1.29 5.16 2.25c1.56.57 3.16 1.01 4.79 1.33 1.45.29 2.93.44 4.41.44 1.95.01 3.88-.29 5.73-.9 1.83-.61 3.55-1.52 5.09-2.69 1.71-1.31 3.23-2.85 4.53-4.57.49-.64.95-1.3 1.4-1.98-.44.26-.89.5-1.35.73-.81.42-1.65.77-2.52 1.06-.76.25-1.55.4-2.35.46l-1.066.077zm-13.32-14.48a1.07 1.07 0 0 0-.762.29 1 1 0 0 0-.319.731v10.856c0 .365.202.703.528.885.327.183.73.183 1.057 0l9.712-5.428c.327-.183.528-.52.528-.885s-.201-.703-.528-.886l-9.712-5.428a1.1 1.1 0 0 0-.504-.135m3.219-4.301c5.937 0 10.75 4.813 10.75 10.75s-4.813 10.75-10.75 10.75-10.75-4.813-10.75-10.75 4.813-10.75 10.75-10.75" transform="translate(-1.438 -.806)scale(1.389)"/></svg>