<svg xmlns="http://www.w3.org/2000/svg" fill="none" viewBox="0 0 64 64"><defs><linearGradient id="a" x1="64" x2="64" y1="16" y2="112.4" gradientUnits="userSpaceOnUse"><stop offset=".12" stop-color="#7730f6"/><stop offset=".844" stop-color="#39d9fd"/></linearGradient><linearGradient id="c" x1="64" x2="64" y1="78.1" y2="35.27" gradientUnits="userSpaceOnUse"><stop offset="0" stop-color="#5558ff"/><stop offset="1" stop-color="#00c0ff"/></linearGradient></defs><path fill="url(#a)" stroke="url(#a)" stroke-width="8" d="M64 16a48.178 48.178 0 0 0-48.18 48.18A48.178 48.178 0 0 0 64 112.36c12.78 0 25.03-5.077 34.07-14.11a48.18 48.18 0 0 0 14.11-34.07 48.2 48.2 0 0 0-2.963-16.45l.101-.077-.251-.357A48.17 48.17 0 0 0 63.997 16zm0 4.818a43.358 43.358 0 0 1 38.48 23.42l-30.07 21.48-51.29 4.659a43 43 0 0 1-.492-6.201 43.36 43.36 0 0 1 43.36-43.36zm41.14 29.82a43.4 43.4 0 0 1 2.221 13.54 43.36 43.36 0 0 1-12.56 30.48l-16.55-24.81 26.89-19.21zm-33.2 21.9 17.7 26.55a43.36 43.36 0 0 1-25.64 8.46 43.34 43.34 0 0 1-25.69-8.468 43.37 43.37 0 0 1-15.67-22.05l49.31-4.491z" transform="translate(-2.712 -2.811)scale(.5424)"/><path fill="url(#c)" fill-rule="evenodd" d="M107.4 54.55c5.322 0 9.636-4.314 9.636-9.636s-4.314-9.636-9.636-9.636-9.636 4.314-9.636 9.636 4.314 9.636 9.636 9.636M30.31 73.82a9.636 9.636 0 0 1-9.636 9.636c-5.322 0-9.636-4.314-9.636-9.636s4.314-9.636 9.636-9.636a9.636 9.636 0 0 1 9.636 9.636m72.27 24.09c0 5.322-4.314 9.636-9.636 9.636s-9.636-4.314-9.636-9.636 4.314-9.636 9.636-9.636 9.636 4.314 9.636 9.636M83.31 69a9.636 9.636 0 0 1-9.636 9.636A9.636 9.636 0 0 1 64.038 69a9.636 9.636 0 0 1 9.636-9.636A9.636 9.636 0 0 1 83.31 69" clip-rule="evenodd" transform="translate(-2.712 -2.811)scale(.5424)"/><path fill="url(#c)" d="M111 44.91a3.636 3.636 0 0 1-3.636 3.636v12c8.636 0 15.64-7.001 15.64-15.64h-12zm-3.636-3.636A3.636 3.636 0 0 1 111 44.91h12c0-8.636-7-15.64-15.64-15.64v12zm-3.636 3.636a3.636 3.636 0 0 1 3.636-3.636v-12c-8.636 0-15.64 7.001-15.64 15.64h12zm3.636 3.636a3.636 3.636 0 0 1-3.636-3.636h-12c0 8.636 7.001 15.64 15.64 15.64v-12zm-86.73 40.91c8.636 0 15.64-7.001 15.64-15.64h-12a3.636 3.636 0 0 1-3.636 3.636v12zm-15.64-15.64c0 8.636 7.001 15.64 15.64 15.64v-12a3.636 3.636 0 0 1-3.636-3.636h-12zm15.64-15.64c-8.636 0-15.64 7.001-15.64 15.64h12a3.636 3.636 0 0 1 3.636-3.636v-12zm15.64 15.64c0-8.636-7.001-15.64-15.64-15.64v12a3.636 3.636 0 0 1 3.636 3.636h12zm56.64 39.73c8.636 0 15.64-7 15.64-15.64h-12a3.636 3.636 0 0 1-3.636 3.636v12zm-15.64-15.64c0 8.636 7.001 15.64 15.64 15.64v-12a3.636 3.636 0 0 1-3.636-3.636h-12zm15.64-15.64c-8.636 0-15.64 7.001-15.64 15.64h12a3.636 3.636 0 0 1 3.636-3.636v-12zm15.64 15.64c0-8.636-7-15.64-15.64-15.64v12a3.636 3.636 0 0 1 3.636 3.636h12zm-34.91-13.27c8.636 0 15.64-7.001 15.64-15.64h-12a3.636 3.636 0 0 1-3.636 3.636v12zm-15.64-15.64c0 8.636 7.001 15.64 15.64 15.64v-12A3.636 3.636 0 0 1 70.008 69h-12zm15.64-15.64c-8.636 0-15.64 7.001-15.64 15.64h12a3.636 3.636 0 0 1 3.636-3.636v-12zm15.64 15.64c0-8.636-7.001-15.64-15.64-15.64v12a3.636 3.636 0 0 1 3.636 3.636h12z" transform="translate(-2.712 -2.811)scale(.5424)"/></svg>