<svg xmlns="http://www.w3.org/2000/svg" viewBox="0 0 64 64"><defs><linearGradient id="a" x1="1" x2="0" y1=".5" y2=".5"><stop offset="0" stop-color="#06d4ff"/><stop offset="1" stop-color="#1853ff"/></linearGradient></defs><path fill="url(#a)" d="M15.83 1a.39.39 0 0 0-.277.106 56 56 0 0 0-2.43 2.523.5.5 0 0 0-.123.421l2.3 13.32c.096.554.892.554.987 0l2.277-13.3a.5.5 0 0 0-.12-.416A64 64 0 0 0 16.09 1.11a.38.38 0 0 0-.26-.11zM9.326 9.076a.48.48 0 0 0-.43.236 31 31 0 0 0-1.457 2.73.495.495 0 0 0 .114.575l5.955 5.507c.417.386 1.05-.112.775-.609L9.746 9.331a.49.49 0 0 0-.42-.256zm12.96.064a.5.5 0 0 0-.422.256l-4.639 8.293c-.275.491.344.991.766.62l6.16-5.425a.49.49 0 0 0 .123-.576 30 30 0 0 0-1.56-2.932.48.48 0 0 0-.429-.236zm-15.98 6.67a.49.49 0 0 0-.475.342 34 34 0 0 0-.552 1.896.494.494 0 0 0 .404.612l6.686 1.045c.57.089.813-.7.291-.946l-6.146-2.9a.5.5 0 0 0-.207-.049zm18.98.002q-.106 0-.207.047l-6.27 2.963c-.519.245-.285 1.03.283.948l6.844-.985a.494.494 0 0 0 .41-.611 35 35 0 0 0-.585-2.022.49.49 0 0 0-.475-.34zm-12.21 4.79q-.025.001-.05.005l-8.18 1.074a.5.5 0 0 0-.427.409c-.107.63-.211 1.306-.287 1.88-.049.374-.087.702-.11.944a5 5 0 0 0-.019.295v.006c0 .033 0 .062.004.097a.4.4 0 0 0 .016.08c.011.039.001.115.166.21.089.05.103.041.125.046s.037.01.055.012q.053.008.119.014c.087.008.193.016.306.021.122.007.259.018.397.031a.5.5 0 0 0 .281-.056l7.852-4.125c.479-.252.269-.965-.248-.944m5.932.119c-.492.018-.67.72-.184.95l8.365 3.966q.03.014.061.011c.19-.014.336-.162.336-.34v-.11c0-.269-.069-.822-.162-1.509-.047-.345-.105-.68-.16-1.037l-.123-.445a.5.5 0 0 0-.41-.363l-7.622-1.117a.6.6 0 0 0-.101-.006zm-1.23 1.53c-.342 0-.649.373-.441.747l2.547 4.586a.25.25 0 0 0 .351.093c.535-.319 1.06-.593 1.59-.828.342-.15.434-.605.16-.86l-3.87-3.6a.5.5 0 0 0-.337-.138zm-4.006.086a.5.5 0 0 0-.338.141l-4.04 3.812a.262.262 0 0 0 .085.434l.352.142.109.045.037.012v.002h.006v.002l.01.004h.006l.021.008q.004 0 .008.004v.002h-.002v.004l.092.044.379.196q.326.17.632.345c.247.142.565.061.704-.187l2.38-4.262c.21-.375-.098-.75-.44-.748zm2.022.174a.49.49 0 0 0-.494.408l-1.211 6.44a.5.5 0 0 0 .168.473c.137.116.276.233.43.37.224.198.431.378.59.511q.118.1.197.162l.07.055.043.027a.1.1 0 0 0 .025.008l.05.01a.4.4 0 0 0 .267-.05l.428-.255a1 1 0 0 0 .062-.045c.16-.134.349-.294.559-.478.12-.106.21-.178.298-.25a.49.49 0 0 0 .172-.465l-1.164-6.508a.49.49 0 0 0-.49-.412z" transform="translate(-1.715 -2.13)scale(2.13457)"/></svg>