<svg xmlns="http://www.w3.org/2000/svg" viewBox="0 0 64 64"><g fill="#0cf"><path d="M47.936 17.076a22.04 22.04 0 0 1 11.838 8.165 21.66 21.66 0 0 1 3.887 16.64 21.4 21.4 0 0 1-3.252 8.145 21.4 21.4 0 0 1-6.248 6.152 4.037 4.037 0 0 1-6.164-3.465 4 4 0 0 1 1.796-3.347 13.4 13.4 0 0 0 5.986-8.845 13.74 13.74 0 0 0-2.451-10.55 13.94 13.94 0 0 0-9.323-5.535 4.02 4.02 0 0 1-3.433-3.464 13.9 13.9 0 0 0-5.366-9.175 13.7 13.7 0 0 0-8.31-2.777 15 15 0 0 0-3.369.392 13.584 13.584 0 0 0-9.863 9.433 13.86 13.86 0 0 0 2.161 12.167 4 4 0 0 1-2.212 6.253 7.464 7.464 0 0 0-5.33 9.182 7.711 7.711 0 0 0 7.58 5.441h6.811a3.998 3.998 0 0 1 0 7.996h-6.812a15.6 15.6 0 0 1-9.642-3.103 15.6 15.6 0 0 1-5.701-8.372 15.41 15.41 0 0 1 6.428-16.841A21.79 21.79 0 0 1 22.026 1.544 21.817 21.817 0 0 1 47.93 17.071z" opacity=".4"/><path d="M39.53 45.317h4.607a2.852 2.852 0 0 0 2.018-4.872L37.13 31.42a2.85 2.85 0 0 0-4.038 0l-9.025 9.025a2.852 2.852 0 0 0 2.018 4.872h4.608v13.26a4.421 4.421 0 1 0 8.843 0z"/></g></svg>