<svg xmlns="http://www.w3.org/2000/svg" viewBox="0 0 64 64"><defs><linearGradient id="a" y1=".5" y2=".5"><stop offset="0" stop-color="#00b8ff"/><stop offset="1" stop-color="#00ff9d"/></linearGradient></defs><path fill="url(#a)" d="M7.326.965C3.303.965 0 4.265 0 8.29v6.939a3.486 3.486 0 0 0 3.469 3.469h1.543a3.486 3.486 0 0 0 3.469-3.47v-4.626a1.14 1.14 0 0 1 1.156-1.156h44.72a1.14 1.14 0 0 1 1.156 1.156v4.627a3.49 3.49 0 0 0 3.471 3.469h1.541a3.487 3.487 0 0 0 3.471-3.47V8.29c0-4.022-3.3-7.321-7.324-7.322h-.002L7.33.965zm-3.855 44.33a3.49 3.49 0 0 0-3.469 3.47v6.939c0 4.023 3.297 7.326 7.322 7.326h49.34c4.023 0 7.322-3.301 7.322-7.326v-6.938c0-1.902-1.566-3.471-3.469-3.471h-1.543a3.49 3.49 0 0 0-3.469 3.469l-.004 4.627a1.14 1.14 0 0 1-1.156 1.156H9.625A1.14 1.14 0 0 1 8.47 53.39v-4.625c0-1.902-1.566-3.471-3.469-3.471H3.467z" transform="translate(.004 .002)"/><path fill="url(#a)" d="M38.14 15.39v.002l.006.002c-1.523 0-3.045.75-3.795 2.248l-7.494 15.02c-.458.917-1.61.918-2.068.002l-1.346-2.682-.002-.002a4.21 4.21 0 0 0-3.785-2.338H3.466a3.49 3.49 0 0 0-3.471 3.47v1.542a3.49 3.49 0 0 0 3.47 3.47h12.85c.442 0 .84.248 1.036.642l4.672 9.369.008.01c.744 1.405 2.199 2.311 3.797 2.311s3.064-.905 3.779-2.334v-.002l7.527-15.03c.458-.915 1.606-.919 2.064-.004l1.357 2.695a4.23 4.23 0 0 0 3.775 2.334h16.19a3.487 3.487 0 0 0 3.469-3.469v-1.545a3.487 3.487 0 0 0-3.471-3.469h-12.85a1.15 1.15 0 0 1-1.031-.638v-.002l-4.705-9.355c-.75-1.497-2.271-2.246-3.793-2.246z" transform="translate(.004 .002)"/></svg>