<svg xmlns="http://www.w3.org/2000/svg" viewBox="0 0 64 64"><defs><linearGradient id="a" x1="1" x2="0" y2="1"><stop offset="0" stop-color="#00fffa"/><stop offset="1" stop-color="#0078ff"/></linearGradient></defs><path fill="url(#a)" d="M10.7 2.412c-1.35-.011-2.718.036-4.084.33l-.021.004C3.082 3.654.338 6.71.07 10.189v.006c-.113 1.787-.05 3.556-.053 5.297v.002c-.05.967.313 2.046 1.256 2.643 1.649 1.19 4.2.265 4.572-1.7l.004-.02.002-.02c.219-1.974-.025-3.884.119-5.703.1-1.3 1.379-2.494 2.812-2.564 2.789-.115 5.633.082 8.51-.086h.02l.017-.004c2.216-.303 3.192-3.156 1.629-4.682-.599-.652-1.404-.865-2.15-.916-.754-.052-1.492.027-2.082-.004l-.026-.002h-.023c-1.294.057-2.626-.012-3.977-.023zm15.67.549.008.006c-1.27.06-2.35 1.185-2.236 2.396C24.15 6.6 25.379 7.67 26.69 7.57c9.588.036 19.18-.01 28.76.023 1.963-.06 3.709 1.585 3.658 3.436.034 6.122-.006 12.24.015 18.37l-.017 4.648c-.022 2.155.085 4.31-.043 6.461-.197 1.842-2.161 3.152-4.072 2.967-15.29-.016-30.57.016-45.86 0-1.938.073-3.724-1.499-3.711-3.334-.064-4.986.043-9.973-.043-14.96.051-1.734-2.31-2.874-3.775-1.824C.63 23.907.48 25.04.527 26.013c.043 4.85-.056 9.7.047 14.55.141 3.972 3.9 7.463 8.123 7.504 5.833.004 11.67.04 17.5-.017-3.415 2.869-6.676 5.9-10.05 8.814-.695.618-1.54 1.275-1.57 2.258-.137 1.366 1.203 2.585 2.646 2.45q15.03.02 30.06 0c1.445.13 2.743-1.122 2.598-2.476-.064-1.16-1.168-1.838-1.957-2.578-3.253-2.803-6.337-5.791-9.691-8.48 5.88.088 11.76.037 17.65.037 4.38-.057 8.182-3.822 8.109-7.94.008-9.834.022-19.68-.004-29.51-.082-4.02-3.843-7.605-8.121-7.654-9.742-.017-19.5-.013-29.23 0v-.002a2 2 0 0 0-.256-.002zm5.898 46.01c3.025 2.637 5.989 5.343 9.025 7.973q-9.057.023-18.1.004c3.054-2.63 6.029-5.343 9.08-7.977z" transform="translate(-.002 .004)"/><path fill="url(#a)" d="m29.24 9.44-.285.037c-.582.075-1.01.433-1.28.828s-.42.833-.544 1.19c-.187.519-.216 1.035-.287 1.48-.07.436-.174.783-.422 1.064-.543.424-1.206.764-1.865 1.158a91 91 0 0 1-2.668-.965h-.004l-.004-.002c-1.04-.373-2.235-.008-2.854.887v.002c-.797 1.168-1.483 2.378-2.223 3.537l-.002.004v.002c-.382.621-.922 1.475-.592 2.424.265.847.87 1.42 1.467 1.912.568.47 1.125.888 1.504 1.371.065.546.006 1.156.008 1.809-.754.78-1.774 1.409-2.594 2.342l-.012.016c-.388.488-.472 1.073-.398 1.594.073.52.283 1 .484 1.412l.004.01.004.005a70 70 0 0 0 2.102 3.62c.552.965 1.744 1.416 2.828 1.163h.004v-.002c1.041-.253 2.003-.645 2.955-.984.671.35 1.324.745 1.98 1.152.289 1.19.484 2.448.96 3.676l.003.002v.004c.249.607.816.83 1.117 1.043l.111.08.139-.004c1.896-.051 3.817.051 5.758-.012l.04-.002.04-.01c.998-.23 1.648-.924 2.004-1.713.35-.773.45-1.64.453-2.394.076-.649-.314-1.204-.816-1.498-.502-.292-1.166-.368-1.725-.029-.539.3-.778.828-.881 1.301-.078.355-.105.654-.145.942-1.078-.002-2.153.002-3.223-.004a39 39 0 0 0-.558-2.404v-.006l-.002-.006c-.311-1.052-1.208-1.721-2.078-2.166l-.006-.002c-.707-.376-1.426-.965-2.393-1.201l-.01-.002h-.008c-1.529-.303-2.782.474-3.938.86-.53-.964-1.092-1.896-1.61-2.833.73-.595 1.554-1.169 2.204-1.978.81-.969.602-2.185.65-3.068l-.001.002c.057-.985-.064-2.13-.87-2.975l-.002-.002c-.632-.656-1.335-1.196-1.996-1.756.578-.898 1.122-1.804 1.684-2.69 1.005.29 2.08.933 3.416.85.898-.043 1.582-.54 2.176-.877l.004-.002.004-.004c.85-.51 1.916-1.016 2.496-2.055v-.002c.494-.876.693-1.829.828-2.754q1.596.013 3.19.002c.207.81.377 1.643.61 2.482l.006.018.006.015c.314.852.96 1.414 1.644 1.848s1.422.762 2.01 1.137l.015.01.016.008c.917.477 1.857.38 2.695.136.734-.213 1.403-.504 2.037-.693.52.94 1.066 1.854 1.586 2.772-.925.819-2.26 1.547-2.721 3.022l-.012.04-.004.038a17.3 17.3 0 0 0-.056 3.228v.016l.003.017c.145.908.68 1.59 1.277 2.15.512.48 1.051.879 1.523 1.29-.57.92-1.12 1.84-1.707 2.727-.568-.239-1.173-.541-1.916-.61-1.329-.13-2.297 1.471-1.48 2.515.342.465.826.703 1.281.87.458.167.906.277 1.248.44 1.082.537 2.576.409 3.312-.677l.002-.002h.002c.895-1.342 1.716-2.72 2.543-4.086.44-.652.579-1.535.165-2.28-.355-.747-.966-1.241-1.531-1.69-.544-.432-1.036-.832-1.332-1.316-.01-.642-.031-1.252.091-1.783.74-.789 1.86-1.386 2.633-2.445.377-.5.407-1.092.295-1.594-.112-.503-.343-.957-.521-1.334l-.006-.01-.006-.012a61 61 0 0 0-2.123-3.627c-.58-.974-1.816-1.317-2.865-1.049-1.021.245-1.956.638-2.885.953-.684-.373-1.353-.727-1.924-1.158-.312-.818-.343-1.806-.707-2.809a2.84 2.84 0 0 0-.947-1.4c-.456-.364-1.052-.594-1.695-.519-1.597.033-3.224-.064-4.871.016z" transform="translate(-.002 .004)"/><path fill="url(#a)" d="M31.71 18.5a7 7 0 0 0-.578.02c-.266.02-.529.088-.793.14v-.043l-.52.135h-.006l-.002.002a7.2 7.2 0 0 0-3.05 1.641c-2.474 2.165-2.906 6-.981 8.623 1.863 2.715 5.804 3.785 8.875 2.365 3.278-1.353 4.999-5.195 3.725-8.385-.948-2.687-3.766-4.481-6.668-4.498zm-.021 3.291h.002c1.499.02 2.986.965 3.467 2.297l.002.006.003.006c.502 1.26.093 2.81-.984 3.71l-.004.007-.006.004c-1.107.983-2.957 1.184-4.28.468l-.005-.002-.004-.003c-1.204-.62-1.978-1.932-1.885-3.201l.002-.008v-.006c.053-1.418 1.21-2.774 2.688-3.144l.028-.008a3.4 3.4 0 0 1 .976-.125z" transform="translate(-.002 .004)"/></svg>