<svg xmlns="http://www.w3.org/2000/svg" xmlns:xlink="http://www.w3.org/1999/xlink" viewBox="0 0 64 64"><defs><linearGradient id="b" x1="1" x2="0" y2="1"><stop offset="0" stop-color="#fda700"/><stop offset="1" stop-color="#ffde00"/></linearGradient><linearGradient id="g" x1="52.87" x2="11.13" y1="10.86" y2="52.6" gradientTransform="translate(-2.688 9.232)scale(.2411)" gradientUnits="userSpaceOnUse"><stop offset="0" stop-color="#d300dc"/><stop offset="1" stop-color="#8219ff"/></linearGradient><linearGradient id="a" y1="1"><stop offset="0" stop-color="#fd3ad2"/><stop offset="1" stop-color="#ffa6db"/></linearGradient><linearGradient xlink:href="#a" id="h" x1="18.04" x2="46.8" y1="45.9" y2="17.14" gradientTransform="matrix(.2395 0 0 .2427 -2.688 9.232)" gradientUnits="userSpaceOnUse"/><linearGradient xlink:href="#a" id="i" x1="16.89" x2="43.56" y1="43.12" y2="16.45" gradientTransform="matrix(.2264 0 0 .2567 -2.688 9.232)" gradientUnits="userSpaceOnUse"/><linearGradient id="d" x2="0" y2="1"><stop offset="0" stop-color="#ff5f6d"/><stop offset=".983" stop-color="#ffc371"/></linearGradient></defs><path fill="url(#b)" d="m46.2 19.12-5.49.002-4.475 7.615c-.306.383-.36.592-.262 1.01.074.332.448.354.448.354l1.18.029-2.213 4.139-.006.004c-.16.078-1.615-.09-1.8-.004l-1.001 4.207 6.69-4.207H36.72l6.666-6.834-4.035-.006z" transform="translate(-18.726 -21.737)scale(1.562)"/><path fill="url(#d)" d="m26.45 17-1.506.004V20h5.499v3.077H22.35l-1.691 2.924h-3.153v5h-2.502v-6.498h-2.997s.085 14.44.05 14.02c-.048-.6.216-.926.394-1.226v-.004c.114-.204.215-.406.44-.636.231-.237.686-.442 1.062-.43.34.011.604.109.89.233l.16.07v-2.529h.532c.222-.242.477-.352.69-.473.259-.153.507-.346.99-.385a1.4 1.4 0 0 1 .218 0c.602.049.983.458 1.28.858l.153.204.018.022c.074.088.058.08.084.109q.196-.058.396-.106h.004c.002 0 .01-.006.011-.007h.004c.008-.039-.002-.024.018-.134l.036-.28c.058-.495.185-1.04.68-1.383.368-.254.69-.283.975-.28q.142.003.273.008l.149-.004v-2.15h1.462l1.69-2.928h8.079q.022-.262.09-.535c.133-.491.36-.952.67-1.357l1.24-2.11h-1.298v-3.073h3.106l1.335-2.27c.165-.282.376-.529.622-.73zm18.69 10q-.115.18-.262.346l-3.699 3.79a2.74 2.74 0 0 1-.644 3.233h5.976V31h.986l1.342 4.997L47.497 41h-.986v-3.002h-5.827l-4 4.002h-5.017c.01.162-.001.313-.003.454.004.348.07.756-.27 1.248-.342.496-.89.623-1.385.68l-.251.033c-.152.024-.117.016-.164.025a9 9 0 0 1-.113.411c.029.026.023.012.11.084l.025.018.2.153c.306.228.62.506.77.895h7.752l3.997-4.001h.174v3h8.056l2.411-8.997L50.566 27z" transform="translate(-18.726 -21.737)scale(1.562)"/><path fill="url(#g)" d="M5.028 11.85c-.361-.004-.488.01-.54.447l-.018.155c-.045.284-.053.412-.322.482l-.054.012-.012.003q-.102.024-.2.054l-.032.009-.03.01c-.27.075-.341-.032-.522-.256l-.095-.124c-.131-.177-.226-.252-.327-.26h-.038c-.09.007-.19.062-.325.143-.316.177-.418.252-.244.657l.06.143c.111.289.17.4-.087.624l.007-.001q-.08.075-.155.155l.001-.007c-.224.256-.335.198-.624.087l-.144-.06a.9.9 0 0 0-.296-.084c-.165-.006-.238.11-.36.327-.185.312-.237.428.117.69l.124.095c.224.181.332.253.256.523l-.01.03-.01.031h.001q-.03.1-.054.2l-.003.013-.012.054c-.07.268-.199.277-.482.321l-.155.02c-.437.05-.45.177-.447.54-.004.361.01.488.447.538l.155.02c.283.044.412.053.482.322l.012.054.003.012q.025.101.054.2l.01.031.01.03c.075.27-.032.342-.257.523l-.124.094c-.353.263-.302.38-.117.69.177.316.252.42.656.245l.144-.061c.288-.11.4-.169.624.088l-.001-.007q.075.08.155.155l-.007-.002c.256.224.199.336.087.625l-.06.143c-.175.405-.072.48.244.657.311.185.427.237.69-.117l.094-.124c.181-.224.253-.332.523-.256l.03.009.031.01q.1.03.2.053l.013.003q.026.007.054.012c.268.07.277.2.322.483l.019.154c.05.438.177.451.54.447.36.004.488-.01.539-.447l.019-.154c.045-.284.053-.413.322-.482l.054-.012.011-.004q.102-.024.202-.054l-.001.001.032-.01.03-.009c.27-.076.34.031.522.256l.094.124c.263.353.38.302.691.117.315-.177.418-.252.244-.657l-.06-.143c-.112-.29-.17-.401.086-.625l-.006.001q.08-.075.155-.155l-.002.008c.224-.257.335-.2.624-.088l.144.06c.405.175.48.072.657-.243.184-.312.236-.428-.117-.69l-.125-.095c-.224-.18-.331-.252-.255-.522l.01-.03.009-.032q.029-.099.053-.2l.004-.012.012-.054c.07-.269.198-.277.482-.322l.154-.02c.438-.05.451-.177.447-.539.004-.361-.009-.488-.447-.54l-.154-.019c-.284-.044-.413-.053-.482-.321l-.012-.054-.003-.012q-.025-.101-.055-.201l-.01-.031-.008-.03c-.076-.27.031-.341.255-.523l.125-.094c.353-.262.301-.38.117-.69-.122-.218-.195-.334-.36-.329a.9.9 0 0 0-.297.085l-.143.06c-.29.112-.4.17-.624-.087l.001.007q-.075-.08-.155-.155l.006.001c-.256-.224-.198-.335-.087-.624l.06-.143c.176-.405.073-.48-.243-.657-.156-.093-.263-.152-.363-.143-.101.008-.196.083-.328.26l-.094.124c-.181.224-.252.332-.522.256l-.03-.01-.032-.01v.001a4 4 0 0 0-.2-.054l-.012-.003-.054-.012c-.269-.07-.277-.198-.322-.482l-.02-.155c-.05-.437-.177-.45-.538-.447zm0 2.08c.34 0 .668.059.976.166a.8.8 0 0 0 .367.462.8.8 0 0 0 .581.086 2.95 2.95 0 0 1 .97 1.647.27.27 0 0 1-.264.323h-.83a.27.27 0 0 1-.258-.192 1.61 1.61 0 0 0-1.54-1.15 1.6 1.6 0 0 0-.372.045.27.27 0 0 1-.296-.126l-.415-.718a.268.268 0 0 1 .147-.389 3 3 0 0 1 .934-.154zm-1.765.678a.27.27 0 0 1 .22.133l.414.718a.27.27 0 0 1-.037.319 1.6 1.6 0 0 0-.442 1.104 1.6 1.6 0 0 0 .44 1.105.27.27 0 0 1 .038.319l-.413.717a.268.268 0 0 1-.41.066 2.95 2.95 0 0 1-.944-1.66.8.8 0 0 0 .216-.547.8.8 0 0 0-.216-.547 2.95 2.95 0 0 1 .943-1.66.27.27 0 0 1 .19-.068zm3.566 2.543h.827c.17 0 .297.156.263.323a2.94 2.94 0 0 1-.968 1.647.8.8 0 0 0-.196-.02.8.8 0 0 0-.384.107.8.8 0 0 0-.366.46 3 3 0 0 1-.977.168 3 3 0 0 1-.934-.156.268.268 0 0 1-.146-.388l.414-.717a.27.27 0 0 1 .296-.127 1.6 1.6 0 0 0 .372.046 1.61 1.61 0 0 0 1.542-1.151.27.27 0 0 1 .257-.192z" transform="translate(.013 -4.536)scale(2.908)"/><path fill="url(#h)" d="M5.03 13.39a3.49 3.49 0 0 0-3.397 2.691.8.8 0 0 1 .497.252 2.95 2.95 0 0 1 .943-1.661.268.268 0 0 1 .41.067l.415.718a.27.27 0 0 1-.038.318 1.6 1.6 0 0 0-.44 1.104 1.6 1.6 0 0 0 .44 1.105.27.27 0 0 1 .037.32l-.414.716a.268.268 0 0 1-.41.067 2.95 2.95 0 0 1-.943-1.66.8.8 0 0 1-.497.252 3.49 3.49 0 0 0 4.403 2.543.8.8 0 0 1-.03-.556 3 3 0 0 1-.977.168 3 3 0 0 1-.933-.156.268.268 0 0 1-.147-.388l.414-.718a.27.27 0 0 1 .296-.126 1.6 1.6 0 0 0 .371.046 1.61 1.61 0 0 0 1.542-1.151.27.27 0 0 1 .257-.192h.828c.17 0 .297.156.263.322a2.94 2.94 0 0 1-.969 1.647.8.8 0 0 1 .468.304c.677-.637 1.1-1.54 1.1-2.541s-.424-1.904-1.1-2.541a.8.8 0 0 1-.465.303 2.95 2.95 0 0 1 .969 1.647.27.27 0 0 1-.264.322h-.83a.27.27 0 0 1-.257-.192 1.61 1.61 0 0 0-1.541-1.15 1.6 1.6 0 0 0-.372.046.27.27 0 0 1-.295-.127l-.415-.718a.27.27 0 0 1 .147-.389 3 3 0 0 1 .934-.154c.34 0 .668.059.975.167a.8.8 0 0 1 .031-.556 3.5 3.5 0 0 0-1.006-.148zm0 2.416a1.074 1.074 0 0 1 1.073 1.074 1.074 1.074 0 0 1-1.073 1.074 1.074 1.074 0 0 1-1.074-1.074 1.074 1.074 0 0 1 1.074-1.074" transform="translate(.013 -4.536)scale(2.908)"/><path fill="url(#i)" d="M6.754 13.46a.4.4 0 0 0-.33.201.403.403 0 0 0 .147.55.403.403 0 0 0 .55-.147.403.403 0 0 0-.147-.55.4.4 0 0 0-.22-.053zm-5.215 3.021a.403.403 0 0 0-.403.403.403.403 0 0 0 .403.402.403.403 0 0 0 .403-.402.403.403 0 0 0-.403-.403m5.225 3.021a.4.4 0 0 0-.192.054.403.403 0 0 0-.148.55.403.403 0 0 0 .55.147.403.403 0 0 0 .148-.55.4.4 0 0 0-.358-.201" transform="translate(.013 -4.536)scale(2.908)"/></svg>