<svg version="1.1" viewBox="0 0 64 64" xmlns="http://www.w3.org/2000/svg">
 <defs>
  <linearGradient id="a" x1="1" x2="0" y1="1">
   <stop stop-color="#43e97b" offset="0"/>
   <stop stop-color="#38f9d7" offset="1"/>
  </linearGradient>
 </defs>
 <path transform="translate(-.00345 -.00586) scale(1) matrix(.9999 0 0 .9999 .00345 .005859)" d="m32 0c-17.7 0-32 14.29-32 32s14.29 32 32 32 32-14.29 32-32-14.29-32-32-32zm0 5.894c14.48 0 26.1 11.62 26.1 26.11s-11.62 26.1-26.1 26.1-26.11-11.62-26.11-26.1 11.62-26.11 26.11-26.11z" fill="url(#a)"/>
 <path transform="translate(-.00345 -.00586) scale(1) translate(.00345 .005859) scale(.9999)" d="m32 13.67a4.982 4.982 0 0 0-3.529 1.461 5.017 5.017 0 0 0-1.475 3.537v14.99h-5.199a3.224 3.224 0 0 0-1.793 0.543 3.23 3.23 0 0 0-1.193 1.445 3.224 3.224 0 0 0-0.1797 1.865 3.247 3.247 0 0 0 0.8887 1.656l10.2 10.2a3.2 3.2 0 0 0 2.277 0.9453l-2e-3 2e-3a3.201 3.201 0 0 0 2.279-0.9473l10.2-10.2a3.227 3.227 0 0 0 0.707-3.522 3.23 3.23 0 0 0-1.193-1.445 3.224 3.224 0 0 0-1.793-0.543h-5.199v-14.99a4.999 4.999 0 0 0-4.996-4.998z" fill="url(#a)"/>
</svg>
