<svg xmlns="http://www.w3.org/2000/svg" viewBox="0 0 64 64"><defs><linearGradient id="a" x2="0" y1="1"><stop offset="0" stop-color="#00f0ff"/><stop offset="1" stop-color="#0070e0"/></linearGradient><linearGradient id="b" x1="1" x2="0" y1=".5" y2=".5"><stop offset="0" stop-color="#ff68ff"/><stop offset="1" stop-color="#0cf"/></linearGradient></defs><path fill="url(#a)" d="M19.77 1.573c-9.663 0-17.57 7.906-17.57 17.57v25.43c0 9.663 7.907 17.58 17.57 17.58h24.46c9.663 0 17.57-7.909 17.57-17.58v-25.43c0-9.663-7.907-17.57-17.57-17.57zm0 7.748h24.46c5.48 0 9.817 4.342 9.817 9.819v25.43c0 5.479-4.342 9.821-9.817 9.821H19.77c-5.478 0-9.819-4.346-9.819-9.821V19.14c0-5.478 4.346-9.819 9.819-9.819" transform="translate(-1.806 -1.662)scale(1.056)"/><path fill="url(#b)" d="M22.87 14.82a.8.8 0 0 0-.18.047c-.1.037-.202.093-.377.183-.174.09-.399.209-.658.35-.518.282-1.18.657-1.859 1.045l-2.48 1.416a.32.32 0 0 0-.164.27v1.164c0 .62-.05 2.195-.127 3.467l-.135 2.324a.32.32 0 0 0 .145.29l5.152 3.1c2.313 1.395 3.876 2.363 4.824 3.003q.696.468.959.697l-.155.098c-.254.157-.622.375-1.057.638-.867.527-2.02 1.227-3.205 1.938a472 472 0 0 1-5.307 3.146l-.87.485a.32.32 0 0 0-.157.261l-.154 3.352a80 80 0 0 0-.078 2.451c-.003.325.001.6.01.803.004.102.01.18.019.252q.007.054.02.107.006.026.02.059a1 1 0 0 0 .038.086c.057.087.089.109.135.146q.076.06.186.135c.142.102.328.223.55.367a62 62 0 0 0 3.361 2.026c.51.287.882.492 1.123.58h.01v.012c.188.071.417.093.678.047.26-.046.556-.152.969-.338.825-.371 2.1-1.064 4.272-2.285 2.202-1.232 6.118-3.493 9.654-5.55s6.667-3.906 7.39-4.388c.39-.252.691-.448.938-.677.248-.23.43-.496.543-.834.225-.676.213-1.587.213-3.36 0-1.143-.006-1.776-.076-2.227a1.77 1.77 0 0 0-.475-.989c-.102-.114-.235-.207-.445-.357a22 22 0 0 0-.854-.582 121 121 0 0 0-3.002-1.87c-2.587-1.57-6.334-3.776-11.23-6.624-3.206-1.87-5.112-2.957-6.287-3.564-.586-.304-.987-.488-1.297-.59a1.7 1.7 0 0 0-.513-.107c-.023 0-.047-.003-.069 0z" transform="translate(-1.806 -1.662)scale(1.056)"/><path fill="url(#a)" d="M23.32 15.17v.002c-.141.011-.219.062-.36.117-.16.063-.357.148-.58.252-.445.208-1 .49-1.55.783a38 38 0 0 0-1.54.864q-.33.194-.562.347c-.154.104-.264.177-.36.282v.01c-.042.048-.1.092-.164.183a.55.55 0 0 0-.078.426c.09.309.323.452.766.756.886.608 2.781 1.714 6.74 4.068 3.485 2.052 6.943 4.154 7.662 4.609l.977.64-.436.377a14 14 0 0 1-.803.553c-.437.286-1.02.66-1.715 1.094a273 273 0 0 1-5.104 3.109h-.01a781 781 0 0 0-5.082 3.09c-.69.423-1.278.781-1.715 1.055s-.701.445-.832.543l-.716.523a.317.317 0 0 0 .02.524l.92.58c.522.342 1.683 1.012 2.624 1.502.465.251.893.483 1.21.648.158.083.291.146.388.194.048.024.082.043.115.058l.049.02.01.01h.02c.003 0 .023.008.028.01.007 0 .03.007.04.01h.019c.058.002.098-.015.115-.02h.01c.005-.001.025-.01.03-.01h.019l.02-.02c.01-.007.026-.013.039-.02l.183-.095c.158-.085.38-.212.658-.369.558-.315 1.343-.76 2.285-1.307 1.885-1.092 4.406-2.566 6.973-4.078 5.133-3.024 10.45-6.194 11.48-6.889l.989-.658a.317.317 0 0 0 0-.524l-.774-.523c-1.863-1.225-7.186-4.388-12.1-7.254a556 556 0 0 0-6.596-3.787c-.888-.5-1.633-.914-2.17-1.201a20 20 0 0 0-.638-.33 4 4 0 0 0-.213-.098h-.01l-.02-.017c-.007-.005-.03-.015-.039-.02a.4.4 0 0 0-.144-.02h-.069z" transform="translate(-1.806 -1.662)scale(1.056)"/></svg>