<svg xmlns="http://www.w3.org/2000/svg" style="isolation:isolate" viewBox="0 0 64 64"><linearGradient id="a" x1=".069" x2=".832" y1=".05" y2=".793" gradientTransform="translate(.17 .17)scale(47.66)" gradientUnits="userSpaceOnUse" transform="translate(-.228 -.228)scale(1.343)"><stop offset="0" stop-color="#c62aff"/><stop offset=".483" stop-color="#0ecffc"/><stop offset=".996" stop-color="#40ffc4"/><stop offset="1"/></linearGradient><path fill="url(#a)" fill-rule="evenodd" d="M8 10.5c0-.66.26-1.3.73-1.77S9.84 8 10.5 8s1.3.26 1.77.73.73 1.11.73 1.77-.26 1.3-.73 1.77-1.11.73-1.77.73-1.3-.26-1.77-.73S8 11.16 8 10.5m18.28 1.747 13.53 13.53a1 1 0 0 1 0 1.414l-2.122 2.122a1 1 0 0 1-1.414 0l-13.53-13.53a1 1 0 0 1 0-1.414l2.121-2.121a1 1 0 0 1 1.414 0zm-5 5 9.529 9.528a1 1 0 0 1 0 1.414l-2.122 2.122a1 1 0 0 1-1.414 0l-9.528-9.529a1 1 0 0 1 0-1.414l2.121-2.121a1 1 0 0 1 1.414 0M5 10.5c0-1.46.58-2.86 1.61-3.89a5.503 5.503 0 0 1 7.78 7.78A5.503 5.503 0 0 1 5 10.5m18.22-5.57 21.42 21.42c.12.12.19.28.19.45s-.07.33-.19.45L27.25 44.64c-.12.12-.28.19-.45.19s-.33-.07-.45-.19L4.93 23.22a3.98 3.98 0 0 1-1.16-2.64l-.6-14.85v-.15c0-.64.25-1.26.69-1.72.46-.44 1.08-.69 1.72-.69h.15l14.85.6c.99.04 1.94.46 2.64 1.16m2.13-2.12 21.41 21.42c.69.68 1.07 1.61 1.07 2.57s-.38 1.89-1.07 2.57L29.37 46.76c-.68.69-1.61 1.07-2.57 1.07s-1.89-.38-2.57-1.07L2.81 25.35A6.96 6.96 0 0 1 .78 20.7L.17 5.82v-.21C.16 4.16.73 2.77 1.74 1.74A5.48 5.48 0 0 1 5.61.17h.21L20.7.78c1.75.07 3.41.79 4.65 2.03m-9.068 20.44 6.557 6.557a1 1 0 0 1 0 1.414l-2.121 2.121a1 1 0 0 1-1.414 0l-6.557-6.557a1 1 0 0 1 0-1.414l2.121-2.121a1 1 0 0 1 1.414 0" transform="translate(-.228 -.228)scale(1.343)"/></svg>