<svg xmlns="http://www.w3.org/2000/svg" fill="none" viewBox="0 0 64 64"><defs><linearGradient id="a" x1="38.77" x2="74.23" y1="59.74" y2="45.72" gradientUnits="userSpaceOnUse"><stop offset=".107" stop-color="#89bcf7"/><stop offset=".513" stop-color="#6ddba6"/><stop offset=".871" stop-color="#ccec72"/></linearGradient><linearGradient id="c" x1="7.26" x2="42.72" y1="59.74" y2="45.72" gradientUnits="userSpaceOnUse"><stop offset=".107" stop-color="#89bcf7"/><stop offset=".513" stop-color="#6ddba6"/><stop offset=".871" stop-color="#ccec72"/></linearGradient></defs><path fill="url(#a)" d="M37.67 20.39a2 2 0 0 1 .8-1.6L54.64 6.66c1.318-.989 3.2-.048 3.2 1.6v35.35a2 2 0 0 1-.8 1.6L40.87 57.34c-1.318.989-3.2.048-3.2-1.6z" transform="translate(-7.628 -7.628)scale(1.238)"/><path fill="url(#c)" d="M6.16 20.39a2 2 0 0 1 .8-1.6L23.13 6.66c1.318-.989 3.2-.048 3.2 1.6v35.35a2 2 0 0 1-.8 1.6L9.36 57.34c-1.318.989-3.2.048-3.2-1.6z" opacity=".5" transform="translate(-7.628 -7.628)scale(1.238)"/></svg>