<svg xmlns="http://www.w3.org/2000/svg" fill="none" viewBox="0 0 64 64"><defs><linearGradient id="a" x1="64.03" x2="64.03" y1="6" y2="122" gradientUnits="userSpaceOnUse"><stop offset=".12" stop-color="#7730f6"/><stop offset=".844" stop-color="#39d9fd"/></linearGradient><linearGradient id="b" x1="29.02" x2="85.17" y1="81.43" y2="31.36" gradientUnits="userSpaceOnUse"><stop offset="0" stop-color="#0357d1"/><stop offset="1" stop-color="#27cdfc"/></linearGradient></defs><path fill="url(#a)" d="M60.25 6.134c10.04-.696 20.21 1.325 29.26 5.727-2.382 1.606-4.436 3.62-6.249 5.841-9.775-4.068-20.79-4.764-31.09-2.442 1.229-2.149 2.979-3.859 4.731-5.571 1.167-1.14 2.335-2.282 3.351-3.555z" transform="translate(-2.131 -2.116)scale(.5331)"/><path fill="url(#a)" d="M15.14 32.78C24.848 17.43 42.09 7.14 60.26 6.14c-1.016 1.273-2.184 2.415-3.351 3.555-1.752 1.712-3.502 3.422-4.731 5.571-9.681 2.462-18.65 7.728-25.31 15.19-8.524 9.246-13.13 21.83-12.97 34.38-3.11 1.685-4.969 4.736-6.757 7.669l-.428.7c-2.201-13.91.77-28.59 8.43-40.42z" transform="translate(-2.131 -2.116)scale(.5331)"/><path fill="url(#a)" d="M89.51 11.86c-2.382 1.606-4.436 3.62-6.249 5.841a44.3 44.3 0 0 1 7.902 4.282c6.944 4.369 12.67 10.6 16.69 17.74 6.523 11.57 8.009 25.8 4.242 38.52-2.964 10.18-9.334 19.28-17.76 25.69-9.628 7.406-22.03 11.01-34.14 10.04-2.456 1.82-4.764 4.141-4.898 7.393 8.912 1.238 18.14.703 26.7-2.168 14.92-4.764 27.63-15.92 34.36-30.05 4.65-9.548 6.389-20.37 5.48-30.92-.85-8.25-3.506-16.25-7.594-23.45-5.814-9.815-14.48-17.9-24.72-22.92z" transform="translate(-2.131 -2.116)scale(.5331)"/><path fill="url(#a)" d="m7.136 72.5-.428.7c1.525 9.38 5.32 18.39 11.1 25.95 3.967 5.166 8.75 9.716 14.19 13.3l.638.422c.728.48 1.458.963 2.219 1.393 6.343 3.512 13.24 6.095 20.44 7.112.134-3.252 2.442-5.573 4.898-7.393-8.29-.623-16.41-3.332-23.38-7.875-5.158-3.352-9.661-7.681-13.33-12.62-4.603-6.383-7.741-13.84-8.905-21.64-.388-2.322-.636-4.67-.69-7.018-3.11 1.685-4.969 4.736-6.757 7.669z" transform="translate(-2.131 -2.116)scale(.5331)"/><path stroke="url(#a)" stroke-width="4" d="M89.51 11.86c-9.046-4.402-19.22-6.423-29.26-5.727m29.26 5.727c-2.382 1.606-4.436 3.62-6.249 5.841m6.249-5.841c10.24 5.025 18.91 13.11 24.72 22.92M60.25 6.13c-1.016 1.273-2.184 2.415-3.351 3.555-1.752 1.712-3.502 3.422-4.731 5.571M60.25 6.13C42.08 7.134 24.84 17.42 15.13 32.77 7.469 44.61 4.5 59.29 6.7 73.19m76.56-55.5c-9.775-4.068-20.79-4.764-31.09-2.442m31.09 2.442a44.3 44.3 0 0 1 7.902 4.282c6.944 4.369 12.67 10.6 16.69 17.74 6.523 11.57 8.009 25.8 4.242 38.52-2.964 10.18-9.334 19.28-17.76 25.69-9.628 7.406-22.03 11.01-34.14 10.04m-8.022-98.72c-9.681 2.462-18.65 7.728-25.31 15.19-8.524 9.246-13.13 21.83-12.97 34.38-3.11 1.685-4.969 4.736-6.757 7.669l-.428.7m7.186-8.37c.053 2.35.301 4.697.69 7.019 1.164 7.794 4.302 15.25 8.905 21.64 3.666 4.938 8.169 9.267 13.33 12.62 6.965 4.543 15.09 7.252 23.38 7.875m-53.49-40.78c1.525 9.38 5.32 18.39 11.1 25.95 3.967 5.165 8.75 9.715 14.19 13.3q.319.21.638.42c.728.482 1.458.964 2.219 1.394 6.343 3.512 13.24 6.095 20.44 7.112m4.898-7.393c-2.456 1.82-4.764 4.14-4.898 7.393 8.912 1.238 18.14.703 26.7-2.168 14.92-4.764 27.63-15.92 34.36-30.05 4.65-9.548 6.389-20.37 5.48-30.92-.85-8.25-3.506-16.25-7.594-23.45a4 4 0 0 0-.91-.19" transform="translate(-2.131 -2.116)scale(.5331)"/><path fill="url(#b)" d="M75.62 47.73c.702-.69 1.9-.863 2.683-.187 1.483 1.018 2.906 2.118 4.331 3.219 1.122.866 2.244 1.734 3.396 2.562a497 497 0 0 0 5.856 4.438 479 479 0 0 1 5.859 4.44c.731.451 1.004 1.248 1.271 2.026q.096.287.201.562c-3.392 2.715-6.866 5.324-10.34 7.932-2.74 2.058-5.48 4.116-8.18 6.225a14.4 14.4 0 0 1-4.489 2.482c-1.105-1.255-1.132-2.799-1.159-4.349-.011-.664-.023-1.33-.12-1.974l-.237-.826-.237-.826-.015-.001c-1.226-.073-2.458-.147-3.685-.167-1.367 0-2.733.01-4.1.018-3.812.025-7.624.05-11.44-.118l-.108.034c-.683.216-1.392.44-1.926.936-.268 1.178-.345 2.382-.422 3.588-.067 1.048-.134 2.097-.327 3.13-.26 0-.529.025-.799.05-.806.074-1.626.15-2.273-.431-1.593-1.108-3.128-2.292-4.664-3.477-1.515-1.17-3.03-2.338-4.602-3.434-.382-.289-.764-.587-1.142-.882v-.001l-.156-.121c-1.09-.842-2.196-1.663-3.302-2.484-1.882-1.397-3.764-2.793-5.563-4.293-1.264-.77-1.218-2.723.074-3.446 3.5-2.698 7.03-5.361 10.56-8.023l.002-.002c2.823-2.13 5.646-4.26 8.453-6.407.984-1.05 3.252-1.164 3.646.482.243 1.212.266 2.448.288 3.682.014.735.027 1.47.087 2.199 2.947.85 6.019.746 9.093.64 1.833-.062 3.666-.125 5.472.015.716-.025 1.435-.016 2.154-.006 1.388.017 2.777.035 4.148-.194 1.313-.86 1.24-2.3 1.167-3.755-.06-1.171-.12-2.353.54-3.256z" transform="translate(-2.131 -2.116)scale(.5331)"/></svg>