<svg version="1.1" viewBox="0 0 64 64" xmlns="http://www.w3.org/2000/svg">
 <defs>
  <linearGradient id="a" x2="0" y1="1">
   <stop stop-color="#00d2ff" offset="0"/>
   <stop stop-color="#0006ff" offset="1"/>
  </linearGradient>
 </defs>
 <path transform="translate(-.000819 .00047) scale(1) translate(-1.599 -1.592) scale(4.199)" d="M8.236 1q-1.232-.02-2.564.4c-1.185.387-2.185 1.087-3.033 2.035-.1.125-.174.286-.074.436.1.137.05.187-.026.287a6.6 6.6 0 0 0-1.186 2.746c-.025.137-.074.186-.173.236-.412.2-.674.563-.748 1.023-.05.287 0 .562-.026.8 0 .249 0 .435-.025.585 0 .948.61 1.532 1.547 1.482.237 0 .361-.136.361-.336.025-.611.026-1.209.026-1.82 0-.636-.026-1.31.1-1.947.71-3.718 4.953-5.752 8.222-3.955 1.984 1.098 2.982 2.82 3.057 5.104.025.849 0 1.696 0 2.545 0 .212.088.362.287.412.724.162 1.475-.348 1.6-1.098.075-.511.026-1.024.026-1.535 0-.586-.262-1.023-.774-1.285-.075-.05-.15-.1-.176-.199a6.9 6.9 0 0 0-1.21-2.82c-.05-.05-.125-.098-.075-.148.262-.337 0-.525-.199-.725Q10.948 1.047 8.237 1zM4.42 7.635c-.402-.003-.724.294-.81.785a2.7 2.7 0 0 0 .421 2.082c.3.444.72.638 1.236.684.289-.012 1.455.044 1.707-.059.325-.114.565-.329.637-.681s-.35-.841-.914-1.354c-.589-.535-1.357-1.104-1.777-1.31a1 1 0 0 0-.5-.148zm6.623 1.016a1 1 0 0 0-.193.018c-.49.073-.914.307-1.357.478-.4.171-.753.378-1.037.647-.4.403-.182.954.445 1.162.08.036.193.061.318.086.354.048.686.122 1.04.146.467.024.82-.122 1.081-.428.33-.379.49-.856.467-1.357-.02-.46-.328-.751-.764-.752zm2.617 2.541a.23.23 0 0 0-.162.1c-.236.674-1.328 2.936-5.053 3.172-4.396.28 2.348 1.135 4.272-.159.658-.46 1.402-.922 1.377-2.25 0-.258-.135-.697-.334-.832a.13.13 0 0 0-.1-.03z" fill="url(#a)"/>
</svg>
