<svg version="1.1" viewBox="0 0 64 64" xmlns="http://www.w3.org/2000/svg">
 <defs>
  <linearGradient id="a" x2="0" y2="1">
   <stop stop-color="#5433ff" offset="0"/>
   <stop stop-color="#20bdff" offset=".5"/>
   <stop stop-color="#a5fecb" offset="1"/>
  </linearGradient>
 </defs>
 <path transform="translate(.01006 -.0028) scale(1) translate(.00044 .00022) scale(1)" d="m32.98 2.607c-3.449-0.05599-7.037 0.504-10.77 1.68-4.976 1.625-9.176 4.564-12.74 8.545-0.4199 0.5249-0.7304 1.2-0.3106 1.83 0.4199 0.5753 0.2098 0.7852-0.1094 1.205a27.71 27.71 0 0 0-4.978 11.53c-0.105 0.5753-0.3109 0.7803-0.7266 0.9902-1.73 0.8398-2.83 2.365-3.141 4.297-0.21 1.205-2.01e-4 2.36-0.1094 3.359 0 1.046-4.938e-4 1.825-0.1055 2.455 0 3.981 2.562 6.433 6.496 6.223 0.9952 0 1.516-0.5704 1.516-1.41 0.105-2.566 0.1094-5.077 0.1094-7.643 0-2.671-0.1092-5.501 0.4199-8.176 2.981-15.61 20.8-24.15 34.52-16.6 8.331 4.61 12.52 11.84 12.84 21.43 0.105 3.565 0 7.121 0 10.69 0 0.8902 0.3695 1.52 1.205 1.73 3.04 0.6802 6.194-1.462 6.719-4.611 0.3149-2.146 0.1094-4.3 0.1094-6.445 0-2.461-1.1-4.294-3.25-5.394-0.3149-0.21-0.6291-0.4202-0.7383-0.8359a28.97 28.97 0 0 0-5.082-11.84c-0.21-0.21-0.5244-0.4111-0.3144-0.6211 1.1-1.415-3.36e-4 -2.205-0.8359-3.045-6.228-6.091-13.14-9.202-20.72-9.334zm-16.02 27.86v0.0059c-1.688-0.0126-3.039 1.233-3.4 3.295a11.34 11.34 0 0 0 1.768 8.742c1.26 1.864 3.023 2.68 5.19 2.873 1.214-0.05039 6.11 0.1844 7.168-0.248 1.365-0.4787 2.374-1.381 2.676-2.859s-1.47-3.532-3.838-5.686c-2.473-2.246-5.699-4.635-7.463-5.5a4.199 4.199 0 0 0-2.1-0.623zm27.81 4.272a4.199 4.199 0 0 0-0.8106 0.07617c-2.058 0.3065-3.837 1.288-5.697 2.006-1.68 0.718-3.163 1.587-4.356 2.717-1.68 1.692-0.7636 4.006 1.869 4.879 0.3359 0.1512 0.8111 0.2564 1.336 0.3613 1.486 0.2016 2.881 0.5125 4.367 0.6133 1.961 0.1008 3.443-0.512 4.539-1.797 1.386-1.591 2.058-3.594 1.961-5.697-0.08398-1.932-1.378-3.154-3.209-3.158zm10.99 10.67a0.9658 0.9658 0 0 0-0.6797 0.4199c-0.991 2.83-5.576 12.33-21.22 13.32-18.46 1.176 9.859 4.766 17.94-0.668 2.763-1.932 5.886-3.871 5.781-9.447 0-1.083-0.5667-2.927-1.402-3.494a0.5459 0.5459 0 0 0-0.4199-0.125z" fill="url(#a)"/>
</svg>
