<svg version="1.1" viewBox="0 0 64 64" xmlns="http://www.w3.org/2000/svg">
 <defs>
  <linearGradient id="b" x2="0" y1="1">
   <stop stop-color="#00c4ff" offset="0"/>
   <stop stop-color="#0072ff" offset="1"/>
  </linearGradient>
  <linearGradient id="a" x1="49.1" x2="61.67" y1="14.4" y2="2.683" gradientTransform="scale(.9996 1)" gradientUnits="userSpaceOnUse">
   <stop stop-color="#ffe031" offset="0"/>
   <stop stop-color="#fa0075" offset="1"/>
  </linearGradient>
 </defs>
 <path transform="translate(-.00208 .00315) scale(1) matrix(.9999 0 0 .9999 .004243 1.118)" d="m37.82 2.227-11.64 0.00195c-5.486 0-9.655-0.01527-13.15 0.4551-3.5 0.4704-6.512 1.55-8.77 3.809-2.254 2.256-3.335 5.268-3.807 8.768-0.471 3.497-0.4551 7.668-0.4551 13.15 0 5.486-0.01528 9.655 0.4551 13.15 0.4704 3.5 1.548 6.51 3.807 8.768 2.155 2.158 4.964 3.223 8.291 3.734-0.01777 0.528-0.02265 1.03-0.0098 1.51 0.02589 0.9638 0.1078 1.854 0.416 2.789 0.3084 0.935 0.9448 1.967 1.914 2.619 1.028 0.6918 2.273 0.8501 3.273 0.7559s1.887-0.3738 2.84-0.7441c1.906-0.7406 4.094-1.894 7-3.402 3.339-1.732 6.909-2.966 9.703-3.004 0.04361 0.0016 0.08722 0.0023 0.1309 2e-3 5.486 0 9.655 0.01542 13.15-0.4551 3.5-0.4704 6.51-1.55 8.768-3.809 2.254-2.256 3.337-5.268 3.809-8.768 0.471-3.497 0.4532-7.668 0.4532-13.15 0-1.39 0.0019-2.695-0.0039-3.926-0.0081-1.657-1.38-3-3.037-3-1.563 0-2.8 1.343-2.789 3 0.0079 1.219 0.0078 2.527 0.0078 3.93 0 5.484-0.02007 9.542-0.4023 12.38-0.3822 2.839-1.002 4.274-2.154 5.426-1.151 1.152-2.586 1.776-5.424 2.158-2.814 0.3786-6.824 0.3981-12.24 0.3984-0.04747-0.0024-0.09502-0.0039-0.1426-0.0039-4.381 0-8.669 1.666-12.51 3.66-2.906 1.508-5.073 2.613-6.432 3.141-0.258 0.1002-0.2974 0.08504-0.4883 0.1426-0.01134-0.1342-0.02865-0.1259-0.0332-0.2949-0.03473-1.293 0.148-3.504 0.4199-6.482l0.125-1.357c0.1441-1.6-1.036-3.014-2.637-3.158-0.1266-0.01222-0.2538-0.01608-0.3809-0.01172l2e-3 -2e-3c-1.46 0.05929-2.649 1.192-2.779 2.646l-0.1055 1.201c-2.289-0.3797-3.586-1-4.623-2.037-1.152-1.151-1.776-2.588-2.158-5.426-0.382-2.839-0.3984-6.894-0.3984-12.38 0-5.484 0.02205-9.542 0.4043-12.38 0.3822-2.839 1-4.274 2.152-5.426 1.151-1.152 2.588-1.776 5.426-2.158 2.839-0.382 6.894-0.3984 12.38-0.3984h11.64c0.5851 0 1.154 8.729e-4 1.707 0.00195 1.657 0.00326 3-1.328 3-2.984 0-1.564-1.343-2.841-3-2.842-0.5547-2.036e-4 -1.123 0-1.707 0z" fill="url(#b)"/>
 <path transform="translate(-.00208 .00315) scale(1) translate(.004243 1.118) scale(.9999)" d="m55.41 0c-4.741 0-8.59 3.852-8.59 8.598s3.849 8.598 8.59 8.598c4.742 0 8.592-3.852 8.592-8.598s-3.85-8.598-8.592-8.598z" fill="url(#a)"/>
</svg>
