<svg style="isolation:isolate" version="1.1" viewBox="0 0 64 64" xmlns="http://www.w3.org/2000/svg">
 <linearGradient id="a" transform="translate(-.00183 -.00095) scale(1) translate(-1.745 -1.745) scale(1.406)" x1=".496" x2=".528" y1=".202" y2=".999" gradientTransform="matrix(35.6 0 0 45.52 6.2 1.241)" gradientUnits="userSpaceOnUse">
  <stop stop-color="#b3ffab" offset=".026"/>
  <stop stop-color="#12fff7" offset=".987"/>
 </linearGradient>
 <path transform="translate(-.00183 -.00095) scale(1) translate(-1.745 -1.745) scale(1.406)" d="M22.5 25.3v-3.655l-5.795-2.664c-1.003-.46-1.533-1.453-1.183-2.215s1.448-1.007 2.451-.546L22.5 18.3v-.863c0-1.104.672-2 1.5-2s1.5.896 1.5 2v4.27l4.535-2.084c1.003-.461 2.102-.217 2.452.545s-.18 1.755-1.183 2.216L25.5 25.051v18.71h6.359c1.104 0 2 .672 2 1.5s-.896 1.5-2 1.5h-15.72c-1.104 0-2-.672-2-1.5s.896-1.5 2-1.5h6.359v-15.12l-5.683-2.612c-1.003-.461-1.533-1.453-1.183-2.215.351-.762 1.449-1.007 2.452-.546l4.414 2.028zm10.6-13.95-.014.004-.307-1.112a8.8 8.8 0 0 0-3.33-4.772 10.05 10.05 0 0 0-5.984-1.926 10.06 10.06 0 0 0-6.184 2.079 8.7 8.7 0 0 0-3.238 5.11l-.284 1.128-.966.713a9.35 9.35 0 0 0-3.1 3.422 10.3 10.3 0 0 0-1.189 4.811 10.05 10.05 0 0 0 2.263 6.406 9 9 0 0 0 2.463 2.079c.928.537 1.956.89 3.023 1.028.627.085 1.067.666.982 1.297s-.662 1.074-1.289.99a10.5 10.5 0 0 1-3.867-1.32 11.3 11.3 0 0 1-3.092-2.616 12.36 12.36 0 0 1-2.785-7.872c0-2.049.499-4.066 1.458-5.877a11.6 11.6 0 0 1 3.867-4.266l.205-.136.056-.263a11.06 11.06 0 0 1 4.089-6.46 12.35 12.35 0 0 1 7.588-2.555A12.34 12.34 0 0 1 30.8 3.605a11.1 11.1 0 0 1 4.196 6.023l.069.246.047.022a11.4 11.4 0 0 1 4.833 4.335 12.4 12.4 0 0 1 1.857 6.568 12.36 12.36 0 0 1-2.785 7.872 11.3 11.3 0 0 1-3.092 2.616 10.5 10.5 0 0 1-3.867 1.32c-.796.084-1.442-.359-1.442-.99s.508-1.212 1.135-1.297a8.1 8.1 0 0 0 3.023-1.028 9 9 0 0 0 2.463-2.079 10.05 10.05 0 0 0 2.263-6.406 10.14 10.14 0 0 0-1.519-5.371 9.04 9.04 0 0 0-3.851-3.46l-1.044-.599z" fill="url(#a)" fill-rule="evenodd"/>
</svg>
