<svg xmlns="http://www.w3.org/2000/svg" style="isolation:isolate" viewBox="0 0 64 64"><linearGradient id="a" x1=".169" x2=".997" y1=".183" y2=".506" gradientTransform="matrix(23 0 0 17.25 1 1)" gradientUnits="userSpaceOnUse" transform="translate(-1.391 -1.391)scale(1.391)"><stop offset="0" stop-color="#ff758c"/><stop offset=".983" stop-color="#ff7eb3"/></linearGradient><path fill="url(#a)" d="M1 1v8.05h8.05v6.9l3.45 2.3 3.45-2.3v-6.9H24V1" transform="translate(-1.391 -1.391)scale(1.391)"/><linearGradient id="b" x1=".519" x2=".5" y1=".06" y2="1" gradientTransform="matrix(14.95 0 0 31.05 9.05 15.95)" gradientUnits="userSpaceOnUse" transform="translate(-1.391 -1.391)scale(1.391)"><stop offset="0" stop-color="#d300dc"/><stop offset="1" stop-color="#8700ff"/></linearGradient><path fill="url(#b)" fill-rule="evenodd" d="M15.95 15.95h-6.9V47H24V15.95z" transform="translate(-1.391 -1.391)scale(1.391)"/><linearGradient id="d" x1="-.412" x2="1.025" y1=".625" y2=".498" gradientTransform="matrix(23 0 0 29.9 24 9.05)" gradientUnits="userSpaceOnUse" transform="translate(-1.391 -1.391)scale(1.391)"><stop offset="0" stop-color="#5433ff"/><stop offset=".517" stop-color="#20bdff"/><stop offset=".983" stop-color="#a5fecb"/></linearGradient><path fill="url(#d)" fill-rule="evenodd" d="M24 15.95v23h14.95v-6.9h-6.9v-16.1zm23 16.1v-23H32.05v6.9h6.9v16.1z" transform="translate(-1.391 -1.391)scale(1.391)"/></svg>