<svg xmlns="http://www.w3.org/2000/svg" viewBox="0 0 64 64"><defs><linearGradient id="a" x1="1" x2="0" y1="1"><stop offset="0" stop-color="#002eff"/><stop offset="1" stop-color="#fb00ff"/></linearGradient><linearGradient id="b" x2="0" y2="1"><stop offset="0" stop-color="#fda700"/><stop offset="1" stop-color="#ffce3c"/></linearGradient></defs><path fill="url(#a)" d="M21.34 8.168 5.61 8.17c-4.453 0-8.117 3.664-8.117 8.117v5.619c.004 3.1 1.826 5.798 4.492 7.154v10.81c.002 4.451 3.664 8.112 8.115 8.113h6.744l.021-.006h.002c.681 3.785 3.866 6.744 7.834 6.744h15.73c3.998 0 7.21-3.002 7.856-6.828.784-.037 1.518-.302 2.256-.56.854.298 1.701.648 2.611.65h5.25c5.638-.002 9.615-5.846 7.55-11.09l-3.51-8.894 3.49-8.691c2.108-5.253-1.87-11.14-7.532-11.14h-5.248c-.912.001-1.76.352-2.617.652-.852-.299-1.698-.65-2.607-.652h-5.254c-4.025.004-7.185 3.018-7.863 6.736h-5.639c-.683-3.781-3.87-6.738-7.836-6.738zm0 4.998a3.08 3.08 0 0 1 3.117 3.119v3.623h15.79l-.611-3c-.405-1.982 1.025-3.737 3.047-3.74h5.236a3.1 3.1 0 0 1 1.449.363l1.172.621 1.172-.62a3.1 3.1 0 0 1 1.45-.364h5.245c2.292 0 3.746 2.152 2.893 4.279l-4.232 10.54 4.238 10.74c.834 2.122-.618 4.257-2.898 4.258H53.17a3.1 3.1 0 0 1-1.45-.363l-1.17-.62-1.17.62a3.1 3.1 0 0 1-1.454.363h-4.371v3.621a3.08 3.08 0 0 1-3.117 3.119h-15.73c-1.751 0-3.115-1.368-3.115-3.119V41.19l-3.502 1.535a3.1 3.1 0 0 1-1.244.26h-6.74a3.08 3.08 0 0 1-3.113-3.115V25.36l-2-.408A3.094 3.094 0 0 1 2.5 21.905V16.29a3.08 3.08 0 0 1 3.117-3.117z" transform="translate(2.325 2.841)scale(.9273)"/><path fill="url(#b)" d="M5.617 16.28v5.615h4.49v17.97h6.74v-17.97h4.492V16.28zm37.07 0 4.691 11.68-4.691 11.9h5.244l2.617-5.898 2.619 5.898h5.244l-4.693-11.9 4.693-11.68h-5.244l-2.619 5.894-2.617-5.894zm-2.24 6.73-15.73.006v23.58h15.73v-5.613h-10.11v-3.371h10.11v-5.615h-10.11v-3.371h10.11z" transform="translate(2.325 2.841)scale(.9273)"/></svg>