<svg xmlns="http://www.w3.org/2000/svg" viewBox="0 0 64 64"><defs><linearGradient id="a" y1=".5" y2=".5"><stop offset="0" stop-color="#05f"/><stop offset="1" stop-color="#00ffd8"/></linearGradient></defs><path fill="url(#a)" d="M351.2 2.385c-21.1 0-38.18 18.13-38.18 39.23s17.08 38.18 38.18 38.18h53.43c21.1 0 38.18 17.12 38.18 38.22-.527 20.85-16.96 38.12-38.18 38.18h-236.8c-21.1 0-38.18 17.12-38.18 38.22s17.08 38.18 38.18 38.18h320.9c21.1 0 38.22 17.12 38.22 38.22-.527 20.85-17 38.12-38.22 38.18h-91.71c-21.1 0-38.18 17.12-38.18 38.22s17.08 38.18 38.18 38.18h30.59c21 0 38.11 17.12 38.11 38.22s-17.11 38.18-38.11 38.18h-137.5c-21.1 0-38.22 17.12-38.22 38.22s17.12 38.18 38.22 38.18h590.1c147.9 0 267.7-119.9 267.7-267.7 0-147.9-119.8-267.7-267.7-267.7l-529-.42zM83.8 3.399c-19.8 0-35.91 16.11-35.91 35.91v4.685c0 19.8 16.11 35.8 35.91 35.8h147.5c19.8 0 35.8-16 35.8-35.8v-4.685c0-19.8-16-35.91-35.8-35.91zm753.6 88.6c82.1 0 148.7 66.6 148.7 148.7v59.51c0 82.2-66.6 148.7-148.7 148.7-82.2 0-148.7-66.47-148.7-148.7v-59.51c0-82.1 66.5-148.7 148.7-148.7m-60.8 140.6c-19.8 0-35.91 16.11-35.91 35.91v4.615c0 19.8 16.11 35.87 35.91 35.87h111.6c19.8 0 35.91-16.07 35.91-35.87v-4.615c0-19.8-16.11-35.91-35.91-35.91zm-580.5 76.4c-19.8 0-35.91 16.11-35.91 35.91v4.615c0 19.8 16.11 35.87 35.91 35.87h80.98c19.8 0 35.91-16.07 35.91-35.87v-4.615c0-19.8-16.11-35.91-35.91-35.91zM38 461.799c-19.8 0-35.91 16.01-35.91 35.91v4.615c0 19.8 16.11 35.91 35.91 35.91h132.1c19.9 0 35.91-16.11 35.91-35.91v-4.615c0-19.9-16.01-35.91-35.91-35.91z" transform="translate(-.117 16.901)scale(.05585)"/></svg>