<svg xmlns="http://www.w3.org/2000/svg" style="isolation:isolate" viewBox="0 0 64 64"><linearGradient id="a" x1=".062" x2=".99" y1=".147" y2=".987" gradientTransform="matrix(47 0 0 45 .5 1.5)" gradientUnits="userSpaceOnUse" transform="translate(-.68 -.68)scale(1.362)"><stop offset="0" stop-color="#16b5e4"/><stop offset=".983" stop-color="#f520fa"/></linearGradient><path fill="url(#a)" fill-rule="evenodd" d="M5.5 4.5a2 2 0 0 0-2 2V33a1.5 1.5 0 0 1-3 0V5.5c0-2.208 1.792-4 4-4H20c1.104 0 2 .672 2 1.5s-.896 1.5-2 1.5zm37 0a2 2 0 0 1 2 2V23a1.5 1.5 0 0 0 3 0V5.5c0-2.208-1.792-4-4-4H37c-1.104 0-2 .672-2 1.5s.896 1.5 2 1.5zm2 26.5a1.5 1.5 0 0 1 3 0v11.5c0 2.208-1.792 4-4 4h-39c-2.208 0-4-1.792-4-4V41a1.5 1.5 0 0 1 3 0v.5a2 2 0 0 0 2 2h37a2 2 0 0 0 2-2zM25.62 3l-.016.4c-.016.453-.352 8.639-.621 15.11-.098 2.364-.168 4.31-.156 4.322s.03.015.039.006 1.118-3.204 2.463-7.1c3.496-10.12 4.234-12.26 4.33-12.52l.086-.225H25.62zm-6.59 8.348s-4.269 3.561-4.305 3.654c-.014.037.698.767 2.086 2.139l4.475 4.422c1.302 1.286 2.382 2.337 2.398 2.337a.033.033 0 0 0 .032-.033h-.002c0-.018-.878-2.39-1.951-5.273-1.074-2.883-2.117-5.689-2.319-6.235s-.414-1.011-.414-1.011m16.56 2.623c-.046-.016-9.655 10.18-9.674 10.26-.01.045.011.047.1.016.061-.021 2.89-1.127 6.289-2.455s6.188-2.434 6.195-2.455c.016-.05-2.857-5.352-2.91-5.369zm-19.36 6.58q-.061-.025-.082.068c-.033.142-.687 5.366-.687 5.485 0 .078.021.105.078.105.042 0 1.526-.299 3.297-.666s3.235-.685 3.256-.705c.02-.021.028-.043.019-.051-.104-.09-5.836-4.219-5.881-4.236m20.38 4.328c-.041-.037-9.704.832-9.746.877-.017.018-.014.041.01.051.021.009 1.967 1.08 4.324 2.379s4.321 2.359 4.364 2.355c.07-.006.118-.242.58-2.82h-.002c.277-1.547.488-2.826.47-2.842m-13.76 1.404c-.051.019-3.199 1.519-6.999 3.332s-7.705 3.675-8.679 4.139-1.772.867-1.772.894.689 1.042 1.532 2.254c1.994 2.87 1.953 2.811 1.988 2.811.016 0 3.171-3.011 7.012-6.692v-.002c3.84-3.68 6.988-6.71 6.996-6.732q.014-.039-.078-.004m2.625.715c-.019-.007-.036.004-.036.025s.369.874.819 1.893l3.468 7.861c1.458 3.305 2.655 6.06 2.682 6.116l.051.107h.08c.048-.027.138-.075.141-.078.011-.015 1.064-.683 2.339-1.486 1.276-.804 2.319-1.473 2.319-1.489 0-.035-11.82-12.93-11.86-12.95zm-1.393.275q-.02-.016-.043.012c-.079.089-4.705 8.357-4.705 8.408 0 .043.132.072.539.125l2.826.371c1.259.166 2.314.291 2.342.282.035-.013.043-.065.027-.178-.02-.148-.708-6.712-.867-8.273-.052-.508-.08-.709-.119-.747" transform="translate(-.68 -.68)scale(1.362)"/></svg>