<svg version="1.1" viewBox="0 0 64 64" xmlns="http://www.w3.org/2000/svg" xmlns:xlink="http://www.w3.org/1999/xlink">
 <defs>
  <linearGradient id="e" x1="137.7" x2="145.6" y1="10.48" y2="46.81" gradientUnits="userSpaceOnUse" xlink:href="#a"/>
  <linearGradient id="a">
   <stop stop-color="#03d0fa" offset="0"/>
   <stop stop-color="#009ffe" offset="1"/>
  </linearGradient>
  <linearGradient id="f" x1="110.3" x2="131" y1="52.96" y2="32.21" gradientUnits="userSpaceOnUse" xlink:href="#b"/>
  <linearGradient id="b">
   <stop stop-color="#019cfa" offset="0"/>
   <stop stop-color="#40bcfc" offset="1"/>
  </linearGradient>
  <linearGradient id="h" x1="111" x2="131" y1="12.21" y2="32.21" gradientUnits="userSpaceOnUse" xlink:href="#d"/>
  <linearGradient id="d">
   <stop stop-color="#0072d5" offset="0"/>
   <stop stop-color="#0049c5" offset="1"/>
  </linearGradient>
  <linearGradient id="i" x1="137.7" x2="145.6" y1="10.48" y2="46.81" gradientTransform="translate(-77.08 8.895)scale(.6988)" gradientUnits="userSpaceOnUse" xlink:href="#a"/>
  <linearGradient id="k" x1="110.3" x2="131" y1="52.96" y2="32.21" gradientTransform="translate(-77.08 8.895)scale(.6988)" gradientUnits="userSpaceOnUse" xlink:href="#b"/>
  <linearGradient id="l" x1="111" x2="131" y1="12.21" y2="32.21" gradientTransform="translate(-77.08 8.895)scale(.6988)" gradientUnits="userSpaceOnUse" xlink:href="#d"/>
  <linearGradient id="m" x1="-15.92" x2="30.7" y1="52.9" y2="52.9" gradientTransform="matrix(.7508 0 0 .8551 56.21 4.542)" gradientUnits="userSpaceOnUse">
   <stop stop-color="#fdb508" offset="0"/>
   <stop stop-color="#ec3624" offset="1"/>
  </linearGradient>
 </defs>
 <g transform="translate(-3e-6 1e-5) scale(1) translate(.03772 .02323) scale(.9994) translate(-15.26 -.391)">
  <path transform="matrix(.7393 0 0 .8267 -66.29 5.047)" d="M126.3 2.846q.159.008.318.021-.159-.013-.318-.021m-1.361.02-.174.015zm2.188.05q.091.01.184.022-.093-.012-.184-.022m-3.004.04q-.082.012-.162.027.08-.016.162-.028m3.895.107q.13.027.262.058-.132-.03-.262-.058m.83.205c.06.017.118.03.178.049q-.09-.025-.178-.05m.955.316q.081.031.162.065zm-8.92.315c-.123.053-.24.11-.359.166.12-.056.236-.113.36-.166m9.74.035q.097.044.196.09-.098-.046-.196-.09m.993.508c.041.023.083.052.125.076zm-11.94.05q-.089.046-.174.092c.056-.031.117-.06.174-.092m12.8.485.146.098zm-13.85.137-.204.134q.1-.067.204-.134m14.84.566.109.088q-.054-.045-.11-.088m.87.723.164.144zm1.08 1.009c4.327 4.331 4.407 10.56 3.447 14.14-.96 3.582-4.268 7.074-4.268 7.074l-3.584 3.584 14.59 14.6 3.894-3.894c6.166-6.277 4.657-16.76-.577-21.99 0 0-3.537-3.505-13.51-13.51z" fill="url(#e)"/>
  <path transform="matrix(.7393 0 0 .8267 -66.29 5.047)" d="m145.6 46.81-13.05 13.05s-7.174 8.225-16.19-.791l-6.104-6.105 20.75-20.75z" fill="url(#f)"/>
  <path transform="matrix(.7393 0 0 .8267 -66.29 5.047)" d="M125.7 2.832c-5.568.07-9.543 4.305-9.543 4.305l-4.926 4.926-.162.15 20 20 3.584-3.584s3.308-3.492 4.268-7.074.88-9.814-3.45-14.14l-.001-.002-.049-.048c-3.447-3.458-6.8-4.564-9.717-4.527z" fill="url(#h)"/>
  <path transform="matrix(1.058 0 0 1.183 15.26 -5.476)" d="m11.21 10.88.223.015q-.113-.01-.223-.015m-.951.014-.122.01zm1.529.035.128.015zm-2.1.027-.113.02zm2.722.075.183.041q-.091-.022-.183-.04m.58.144q.063.016.124.034-.061-.018-.124-.034m.668.22.113.046zm-6.234.221q-.128.057-.251.116.123-.061.251-.116m6.807.024q.068.03.137.063zm.693.355.088.053zm-8.344.036q-.061.031-.121.064c.039-.022.082-.043.121-.064m8.948.338.103.068zm-9.68.096-.142.094zm10.37.395.077.062zm.61.505.115.101zm.75.706c3.024 3.027 3.08 7.381 2.41 9.884-.671 2.503-2.983 4.944-2.983 4.944L14.5 31.404l10.2 10.2 2.722-2.722c4.31-4.387 3.255-11.71-.402-15.37 0 0-2.472-2.45-9.44-9.44z" fill="url(#i)"/>
  <path transform="matrix(1.058 0 0 1.183 15.26 -5.476)" d="m24.7 41.61-9.121 9.121s-5.014 5.748-11.32-.553l-4.266-4.266 14.5-14.5z" fill="url(#k)"/>
  <path transform="matrix(1.058 0 0 1.183 15.26 -5.476)" d="M10.75 10.87c-3.891.048-6.669 3.008-6.669 3.008L.639 17.32l-.113.105 13.97 13.98L17 28.9s2.312-2.44 2.982-4.944.615-6.858-2.41-9.885l-.002-.001-.034-.034c-2.409-2.417-4.752-3.19-6.79-3.164z" fill="url(#l)"/>
  <rect x="44.26" y="42.16" width="35" height="15.23" ry="7.614" fill="url(#m)" fill-rule="evenodd" style="paint-order:stroke fill markers"/>
 </g>
</svg>
