<svg xmlns="http://www.w3.org/2000/svg" style="isolation:isolate" viewBox="0 0 64 64"><linearGradient id="a" x2=".907" y1=".5" y2=".92" gradientTransform="scale(48)" gradientUnits="userSpaceOnUse" transform="scale(1.333)"><stop offset="0" stop-color="#ff416c"/><stop offset=".844" stop-color="#ff4b2b"/></linearGradient><path fill="url(#a)" fill-rule="evenodd" d="M25.11 34.87c-3.098-1.093-4.722-1.416-5.996-1.376-1.353.114-2.505.522-3.832.949-.727.207-.728.196-.048-.547.381-.416 1.727-1.408 2.992-2.204 1.722-1.083 2.676-1.362 3.793-1.362 1.76 0 2.925-1.048 2.548-2.193-1.413-2.25-4.791-5.188-4.791-5.989 0-.67 1.306-2.372 2.871-3.987.692-.715.991-1.287.775-1.481-.45-.405-4.764-1.113-6.779-1.113-1.61 0-3.03.494-3.03 1.534 0 .289.198 1.09.826 1.781l1.142 1.256c-.755.843-1.078 1.756-2.378 1.756-1.864 0-1.864-1.476-1.854-2.911.263-3.516 5.75-7.04 10.94-6.536 3.282.32 6.159.781 9.301 1.011 1.749.084 2.845-.345 4.484-.952 1.188-.44.431.976-1.348 2.52-2.14 1.857-3.405 2.947-6.832 2.639-2.563-.231-3.265-.365-3.852 1.165-.466 1.214.043 2.371 2.463 4.842 1.194 1.218 1.715 2.005 1.707 2.775-.008.69-.428 1.365-1.354 2.324-.817.846-1.284 1.687-1.168 1.87.367.572 2.794 1.798 4.116 1.798.697 0 2.013-.191 2.796-.577 1.323-.652 1.885-.646 1.885.02 0 .527-4.166 3.727-6.549 3.721-.433-.001-1.706-.337-2.828-.733m5.108-29.88a2 2 0 0 0 1.24-3.8A23.8 23.8 0 0 0 24.028 0c-8.35 0-16.13 4.34-20.49 11.46a23.93 23.93 0 0 0-3.54 12.51c0 8.35 4.34 16.13 11.46 20.49 3.76 2.31 8.09 3.54 12.51 3.54 8.35 0 16.13-4.34 20.49-11.46 2.31-3.76 3.54-8.09 3.54-12.51 0-5.64-1.98-11.11-5.59-15.44-.712-.844-1.978-.956-2.825-.25a2 2 0 0 0-.245 2.82c3.01 3.61 4.66 8.16 4.66 12.87 0 3.67-1.02 7.28-2.95 10.42A20.06 20.06 0 0 1 23.968 44c-3.68 0-7.28-1.02-10.42-2.95a20.06 20.06 0 0 1-9.55-17.08c0-3.67 1.02-7.28 2.95-10.42A20.06 20.06 0 0 1 24.028 4c2.1 0 4.19.33 6.19.99" transform="scale(1.333)"/></svg>