<svg xmlns="http://www.w3.org/2000/svg" viewBox="0 0 64 64"><defs><linearGradient id="c" x2="0" y1="1"><stop offset="0" stop-color="#fda700"/><stop offset="1" stop-color="#ffde00"/></linearGradient><linearGradient id="a" y1="1"><stop offset="0" stop-color="#879af2"/><stop offset=".5" stop-color="#d3208b"/><stop offset="1" stop-color="#fda000"/></linearGradient></defs><path fill="url(#a)" d="M12 1.25C7.729 1.25 4.25 4.729 4.25 9c0 1.765.594 3.394 1.592 4.699l-2.139 4.385c-.156.32-.282.566-.373.832a.3.3 0 0 0-.014.082c-.05.172-.085.384-.05.604l-.014.04.066.239.022.043.025-.014.002.002v.006l.002.002v.022h-.002v.004h.002l.002.002.008-.008.002.002v.002l.004.004a1 1 0 0 0 .05.078l-.017.014.082.084c.014.012.02.02.027.025.051.042.047.034.065.047l.002.002h.002l.023.004.002.002h.004l.002.002c.27.185.531.232.822.246l.065.006q.181.004.38-.014.172-.015.356-.049.19-.033.394-.087c.494-.134.736-.172.829-.184l.037-.004a.3.3 0 0 1 .062.03c-.004-.003.018.028.072.138s.142.297.264.606q.095.24.192.45c.1.248.192.46.3.657.163.296.44.67.928.742a.8.8 0 0 0 .178.004.8.8 0 0 0 .197-.006c.487-.079.758-.457.916-.756.099-.187.184-.388.273-.619q.094-.208.184-.45v-.001l1.574-4.172a9 9 0 0 0 .686 0l1.574 4.171v.002q.09.24.183.45c.09.23.175.431.274.618.157.299.428.678.916.756a.8.8 0 0 0 .195.006.8.8 0 0 0 .18-.004c.487-.071.765-.446.927-.742.108-.197.2-.409.3-.656q.097-.21.192-.451c.245-.617.345-.75.336-.744a.3.3 0 0 1 .063-.03l.037.004c.093.012.335.05.828.184a5 5 0 0 0 .75.136q.2.02.381.014l.064-.006c.291-.014.552-.061.823-.246l.002-.002h.004l.002-.002.023-.004h.002l.002-.002c.018-.013.013-.005.065-.047l.027-.025c.014-.012.082-.084.082-.084l-.018-.014a1 1 0 0 0 .051-.078v-.002h.002v-.002l.002-.006.01.01.002-.002v-.01l-.002-.016v-.004h.002l.002-.002v-.002h.002v-.002l.025.014.022-.043.066-.238-.013-.041a1.4 1.4 0 0 0-.053-.604.3.3 0 0 0-.012-.082c-.09-.265-.216-.511-.373-.832l-2.133-4.372a7.7 7.7 0 0 0 1.6-4.71c0-4.272-3.479-7.75-7.75-7.75zm0 1.5c3.461 0 6.25 2.789 6.25 6.25s-2.789 6.25-6.25 6.25S5.75 12.461 5.75 9 8.539 2.75 12 2.75M6.951 14.87a7.74 7.74 0 0 0 3.168 1.644l-1.461 3.867c-.04.108-.067.17-.094.232l-.062.118c-.03-.058-.06-.105-.088-.157a5 5 0 0 1-.08-.193c-.244-.618-.367-1.124-.924-1.49a1.8 1.8 0 0 0-.434-.209h-.002a1.7 1.7 0 0 0-.486-.078q-.075-.001-.15.004c-.338.021-.677.132-1.098.246a1 1 0 0 1-.09.02c-.048.005-.087.006-.139.013l-.017.002c.03-.064.033-.08.07-.154zm10.09.008 1.883 3.857c.036.074.04.09.07.154-.058-.008-.1-.008-.156-.016a1 1 0 0 1-.09-.02c-.42-.113-.76-.224-1.098-.245a2 2 0 0 0-.304.006 1.7 1.7 0 0 0-.332.068h-.002q-.232.074-.434.21c-.557.365-.68.871-.924 1.49-.033.084-.06.141-.082.192-.028.052-.056.099-.086.157l-.062-.118c-.027-.062-.053-.124-.094-.232l-1.459-3.865a7.74 7.74 0 0 0 3.17-1.639z" transform="translate(-3.699 -3.721)scale(2.977)"/><path fill="url(#c)" d="M12 4.287c-.411 0-.823.204-1.012.61l-.723 1.483-1.574.262c-.882.147-1.23 1.282-.625 1.916l1.146 1.2-.254 1.68v.001c-.063.425.124.846.438 1.084a1.14 1.14 0 0 0 1.193.096l1.41-.752 1.412.752a1.14 1.14 0 0 0 1.19-.096c.315-.238.502-.659.438-1.084v-.002l-.254-1.68 1.144-1.199c.609-.633.26-1.77-.623-1.918l-1.573-.262-.723-1.482c-.189-.405-.6-.609-1.012-.609zm0 1.957.47.965.003.002c.156.318.459.554.82.615h.002l1.088.182-.8.84-.005.003a1.15 1.15 0 0 0-.299.961l.17 1.127-.927-.494a1.11 1.11 0 0 0-1.043 0l-.928.494.17-1.125a1.15 1.15 0 0 0-.299-.963l-.004-.004-.803-.84 1.09-.18h.002c.36-.06.67-.295.827-.626z" transform="translate(-3.699 -3.721)scale(2.977)"/></svg>