<svg version="1.1" viewBox="0 0 64 64" xmlns="http://www.w3.org/2000/svg">
 <defs>
  <linearGradient id="c" y1="1">
   <stop stop-color="#0fc" offset="0"/>
   <stop stop-color="#59ff4d" offset="1"/>
  </linearGradient>
  <linearGradient id="b" y1="1">
   <stop stop-color="#f00" offset="0"/>
   <stop stop-color="#ff0086" offset="1"/>
  </linearGradient>
  <linearGradient id="a" x1="1" x2="0" y1="1">
   <stop stop-color="#f0f" offset="0"/>
   <stop stop-color="#fca" offset="1"/>
  </linearGradient>
 </defs>
 <path transform="translate(0) scale(1) translate(0 -3e-5) scale(1) translate(-.00615 -.007068) scale(.9997) matrix(1.134 0 0 1.134 -2.33 -2.739)" d="m54.4 5.725a2.662 2.662 0 0 0-0.9941 0.1367c-6.719 2.282-15.1 0.6426-15.1 0.6426a2.662 2.662 0 0 0-1.088-0.00586s-12.98 2.667-31.83-0.02539a2.662 2.662 0 0 0-3.029 2.85c1.009 12.47 0.8955 16.79 0.6328 18.6-0.1313 0.9048-0.2996 1.283-0.5293 2.246-0.2297 0.9634-0.4023 2.238-0.4023 4.291a2.662 2.662 0 0 0 0.02344 0.3555s0.4232 3.146 0.6699 6.865 0.1569 8.21-0.2891 9.682a2.662 2.662 0 0 0 3.596 3.219c5.057-2.168 7.856-1.703 10.64-0.8828 2.781 0.8202 5.809 2.544 9.785 1.606 9.879-2.332 16.07-0.5996 16.07-0.5996a2.662 2.662 0 0 0 0.8496 0.08789l12.6-0.7246a2.662 2.662 0 0 0 2.51-2.658c0-8.349-1.303-14.27-1.596-18.68 0.3361-5.982-0.1466-10.35-0.3301-13.74-0.187-3.458-0.103-5.795 1.252-8.772a2.662 2.662 0 0 0-1.014-3.359l-1.16-0.7246a2.662 2.662 0 0 0-1.272-0.4004zm-2.404 5.84c-0.6104 2.598-0.8573 5.142-0.7188 7.705 0.2013 3.723 0.6785 7.717 0.3301 13.43a2.662 2.662 0 0 0 0 0.3359c0.2925 4.469 1.182 9.495 1.424 15.86l-9.801 0.5625c-0.9676-0.2313-7.742-1.762-17.97 0.6523-1.817 0.4289-3.642-0.5247-7.055-1.531-2.583-0.7618-5.931-1.225-10.04-0.2793 0.1095-2.298 0.05896-4.681-0.09375-6.982-0.2493-3.757-0.6428-6.658-0.6777-6.92 0.00378-1.719 0.1148-2.422 0.2539-3.006 0.1415-0.5933 0.4246-1.374 0.6191-2.715 0.3444-2.373 0.2894-7.088-0.4062-16.66 17.3 1.979 29.15-0.1027 29.88-0.2461 0.7117 0.1537 7.07 1.294 14.26-0.2129z" fill="url(#c)"/>
 <path transform="translate(0) scale(1) translate(0 -3e-5) scale(1) translate(-.00615 -.007068) scale(.9997) matrix(1.134 0 0 1.134 -2.33 -2.739)" d="m47.86 34.5c-2.471 2.532-4.533 4.921-5.791 7.83-0.6833-1.625-1.593-3.03-2.984-4.213l-1.691 1.99c1.828 1.554 2.626 3.676 3.494 7.258 0.1491 0.6155 0.7193 1.036 1.352 0.9961 0.632-0.0395 1.143-0.5271 1.215-1.156 0.4923-4.332 2.707-7.226 6.275-10.88z" fill="url(#b)"/>
 <path transform="translate(0) scale(1) translate(0 -3e-5) scale(1) translate(-.00615 -.007068) scale(.9997) translate(-2.33 -2.739) scale(1.134)" d="m12.97 27.28a0.5 0.5 0 0 0-0.1953 0.05273l-0.3398 0.1699a0.5 0.5 0 0 0-0.2773 0.4473v0.3574h-0.08789a0.5 0.5 0 0 0-0.5 0.5v0.3066a0.5 0.5 0 0 0 0.5 0.5h0.08789v1.144c0 0.2808 0.07737 0.5815 0.293 0.7988s0.5163 0.2969 0.7969 0.2969c0.282 0 0.5462-0.04434 0.7852-0.1719a0.5 0.5 0 0 0 0.2617-0.3867l0.03906-0.3555a0.5 0.5 0 0 0-0.7773-0.4668c-0.01945 0.01325-0.03906 0.0092-0.05664 0.01758v-0.877h0.332a0.5 0.5 0 0 0 0.5-0.5v-0.3066a0.5 0.5 0 0 0-0.5-0.5h-0.332v-0.5273a0.5 0.5 0 0 0-0.5293-0.5zm27.4 0a0.5 0.5 0 0 0-0.1953 0.05273l-0.3418 0.1699a0.5 0.5 0 0 0-0.2754 0.4473v0.3574h-0.08984a0.5 0.5 0 0 0-0.5 0.5v0.3066a0.5 0.5 0 0 0 0.5 0.5h0.08984v1.144c0 0.2806 0.07555 0.5814 0.291 0.7988 0.2155 0.2175 0.5183 0.2969 0.7988 0.2969 0.2819 0 0.546-0.04426 0.7852-0.1719a0.5 0.5 0 0 0 0.2617-0.3867l0.03906-0.3555a0.5 0.5 0 0 0-0.7793-0.4668c-0.01975 0.01346-0.03896 0.0092-0.05664 0.01758v-0.877h0.334a0.5 0.5 0 0 0 0.5-0.5v-0.3066a0.5 0.5 0 0 0-0.5-0.5h-0.334l2e-3 -0.5273a0.5 0.5 0 0 0-0.5293-0.5zm7.992 0a0.5 0.5 0 0 0-0.1953 0.05273l-0.3418 0.1699a0.5 0.5 0 0 0-0.2754 0.4473v0.3574h-0.08984a0.5 0.5 0 0 0-0.5 0.5v0.3066a0.5 0.5 0 0 0 0.5 0.5h0.08984v1.144c0 0.2807 0.07556 0.5814 0.291 0.7988s0.5183 0.2969 0.7988 0.2969c0.2821 0 0.5458-0.04413 0.7852-0.1719a0.5 0.5 0 0 0 0.2617-0.3867l0.03906-0.3555a0.5 0.5 0 0 0-0.7793-0.4668c-0.01882 0.01282-0.03765 0.0093-0.05469 0.01758v-0.877h0.332a0.5 0.5 0 0 0 0.5-0.5v-0.3066a0.5 0.5 0 0 0-0.5-0.5h-0.332v-0.5273a0.5 0.5 0 0 0-0.5293-0.5zm-26.15 2e-3a0.5 0.5 0 0 0-0.1953 0.05078l-0.3418 0.1699a0.5 0.5 0 0 0-0.2754 0.4473v0.3652c-0.07043-0.0088-0.1259-0.06641-0.1973-0.06641-0.4448 0-0.8829 0.1871-1.164 0.5254a0.5 0.5 0 0 0-2e-3 0.0039c-0.2794 0.342-0.3945 0.7864-0.3945 1.27 0 0.4781 0.1175 0.9218 0.3906 1.266a0.5 0.5 0 0 0 0.0039 0.0059c0.2802 0.3417 0.7193 0.5332 1.166 0.5332 0.2001 0 0.3556-0.1405 0.5391-0.2148a0.5 0.5 0 0 0 0.1582 0.1582h0.3398a0.5 0.5 0 0 0 0.5-0.5v-3.516a0.5 0.5 0 0 0-0.5273-0.498zm-5.223 0.9648c-0.4593 0-0.9065 0.1805-1.209 0.5156-0.3054 0.3388-0.4394 0.7979-0.4394 1.289 0 0.4936 0.1331 0.955 0.4394 1.295a0.5 0.5 0 0 0 0.0059 0.0059c0.304 0.3275 0.7468 0.5 1.203 0.5 0.457 0 0.9025-0.1775 1.203-0.5098l2e-3 -2e-3c0.3063-0.3401 0.4453-0.8012 0.4453-1.293 0-0.4937-0.1385-0.9544-0.4492-1.291-0.3008-0.3316-0.7451-0.5098-1.201-0.5098zm8.402 0c-0.4593 0-0.9065 0.1805-1.209 0.5156-0.3053 0.3387-0.4414 0.7978-0.4414 1.289 0 0.4936 0.1352 0.955 0.4414 1.295a0.5 0.5 0 0 0 0.0039 0.0059c0.304 0.3274 0.7487 0.5 1.205 0.5 0.4579 0 0.9024-0.1778 1.203-0.5117 0.307-0.3405 0.4453-0.8015 0.4453-1.293 0-0.4926-0.1371-0.9522-0.4473-1.289-0.3008-0.3329-0.7442-0.5117-1.201-0.5117zm8.932 0c-0.2669 0-0.5313 0.0678-0.7793 0.1856-6.01e-4 2.84e-4 -0.0047 0.0031-0.0059 0.0039-0.01271 9e-3 -0.02461 0.0258-0.03711 0.03516l-2e-3 2e-3h-2e-3a0.5 0.5 0 0 0-0.168-0.168h-0.8516a0.5 0.5 0 0 0-0.5 0.5v0.3066a0.5 0.5 0 0 0 0.5 0.5h0.01563v0.875h-0.01563a0.5 0.5 0 0 0-0.5 0.5v0.3066a0.5 0.5 0 0 0 0.5 0.5h1.617a0.5 0.5 0 0 0 0.5-0.5v-0.3066a0.5 0.5 0 0 0-0.5-0.5h-0.2461v-0.6875c0-0.02669-0.0025-0.04107-2e-3 -0.04883v-4e-3h2e-3v-0.001948l4e-3 -4e-3c0.0078-0.0058 0.02433-0.01363 0.05469-0.0332a0.5 0.5 0 0 0 2e-3 0c0.02771-0.018 0.06544-0.0139 0.09375-0.02734v0.01172a0.5 0.5 0 0 0 0.5 0.5h0.3457a0.5 0.5 0 0 0 0.5-0.5v-0.8339a0.5 0.5 0 0 0-0.2246-0.416c-0.2096-0.1381-0.4393-0.1559-0.6777-0.166a0.5 0.5 0 0 0-0.01172-0.01563l-2e-3 0.01367c-0.03864-0.0014-0.06983-0.02734-0.1094-0.02734zm-5.781 0.05273a0.5 0.5 0 0 0-0.5 0.5v1.35c0 0.4798 0.06737 0.8898 0.3242 1.221a0.5 0.5 0 0 0 0.0039 0.0039c0.2621 0.3305 0.689 0.4727 1.117 0.4727 0.1918 0 0.382-0.03138 0.5606-0.1133l2e-3 -2e-3h2e-3v-2e-3l2e-3 -2e-3v-2e-3h4e-3v-2e-3h2e-3a0.5 0.5 0 0 0 0.06445 0.06445h0.3516a0.5 0.5 0 0 0 0.5-0.5v-2.488a0.5 0.5 0 0 0-0.5-0.5h-0.3518a0.5 0.5 0 0 0-0.5 0.5v1.494c0 0.1512-0.0289 0.2133-0.03516 0.2246v2e-3h-2e-3v2e-3h-2e-3c-8e-3 0.0034-0.03209 0.0078-0.09766 0.0078-0.03181 0-0.04507-8.59e-4 -0.05078-2e-3h-4e-3v-2e-3l-2e-3 -2e-3v-4e-3l-2e-3 -2e-3c-0.0015-0.0054-0.03711-0.07085-0.03711-0.2344v-1.484a0.5 0.5 0 0 0-0.5-0.5zm14.75 0a0.5 0.5 0 0 0-0.4062 0.793l0.6582 0.9102-0.7168 0.9941a0.5 0.5 0 0 0 0.4062 0.791h0.3711a0.5 0.5 0 0 0 0.4062-0.207l0.334-0.4648 0.334 0.4648a0.5 0.5 0 0 0 0.4062 0.207h0.3691a0.5 0.5 0 0 0 0.4062-0.791l-0.7148-0.9941 0.6562-0.9102a0.5 0.5 0 0 0-0.4062-0.793h-0.3691a0.5 0.5 0 0 0-0.4062 0.207l-0.2754 0.3828-0.2754-0.3828a0.5 0.5 0 0 0-0.4062-0.207zm-26.3 1.254c0.1426 0 0.1526 0.01532 0.1953 0.07031a0.5 0.5 0 0 0 2e-3 0.0039c0.04356 0.0549 0.09766 0.1769 0.09766 0.4199 0 0.2345-0.04928 0.3558-0.1016 0.4238h-2e-3c-0.04761 0.05974-0.05933 0.07422-0.1914 0.07422-0.1439 0-0.1549-0.0174-0.1953-0.06836h-2e-3c-0.04658-0.061-0.0957-0.1851-0.0957-0.4258 0-0.2562 0.05534-0.3835 0.0918-0.4297 0.04053-0.05117 0.05161-0.06836 0.2012-0.06836zm8.402 0c0.1425 0 0.1504 0.01495 0.1934 0.07031a0.5 0.5 0 0 0 0.0039 0.0039c0.04382 0.05515 0.0957 0.1773 0.0957 0.4199 0 0.2356-0.05081 0.3577-0.1035 0.4258-0.0464 0.05809-0.059 0.07227-0.1894 0.07227-0.1424 0-0.1554-0.01615-0.1953-0.06641-0.04721-0.06122-0.09961-0.1864-0.09961-0.4277 0-0.2557 0.05694-0.383 0.09375-0.4297 0.03977-0.05026 0.05253-0.06836 0.2012-0.06836zm-4.15 2e-3c0.1009 0 0.122 0.04579 0.1582 0.08398v0.8144c-0.03449 0.04784-0.05115 0.0918-0.1582 0.0918-0.08333 0-0.07509 0.0055-0.1328-0.07422h-2e-3c-0.06733-0.09589-0.1094-0.2176-0.1094-0.4219 0-0.2493 0.0505-0.3809 0.08984-0.4356h2e-3c0.03918-0.0522 0.03274-0.05859 0.1523-0.05859zm15.92 0.7051c-0.2068 0-0.4305 0.09713-0.5723 0.2383a0.5 0.5 0 0 0-0.0098 0.01172c-0.1338 0.1416-0.2246 0.3583-0.2246 0.5586 0 0.2005 0.09128 0.4155 0.2246 0.5566a0.5 0.5 0 0 0 0.0098 0.01172c0.1418 0.1412 0.3655 0.2383 0.5723 0.2383 0.2039 0 0.4284-0.1004 0.5703-0.2461 0.1369-0.1393 0.2363-0.3552 0.2363-0.5606 0-0.2052-0.09898-0.4228-0.2363-0.5625-0.1419-0.1457-0.3664-0.2461-0.5703-0.2461z" fill="url(#a)"/>
</svg>
