<svg version="1.1" viewBox="0 0 64 64" xmlns="http://www.w3.org/2000/svg">
 <defs>
  <linearGradient id="a" x1="1" x2="0" y1=".5" y2=".5">
   <stop stop-color="#fe0844" offset="0"/>
   <stop stop-color="#feb302" offset="1"/>
  </linearGradient>
 </defs>
 <path transform="translate(.00095) scale(1) translate(-.00295 -.001953) scale(1)" d="m35.93 11.95 0.0039 0.0039a0.8726 0.8726 0 0 0-0.0039 2e-3c-0.5338-8.72e-4 -1.058 0.1368-1.522 0.4023l-20.59 11.81-7.182-4.19c-1.446-0.8435-3.327-0.3484-4.17 1.098-0.843 1.445-0.3481 3.327 1.098 4.17l7.617 4.443a0.8726 0.8726 0 0 0 2e-3 0c1.612 0.9398 3.611 0.9456 5.23 0.01758l21.03-12.07v2e-3c1.452-0.8327 1.96-2.71 1.127-4.162-0.4024-0.7011-1.068-1.215-1.848-1.426-0.2572-0.06974-0.5226-0.1066-0.7891-0.1074zm0 10.44 0.0039 2e-3c-0.5348-0.0015-1.061 0.1382-1.525 0.4043l-20.59 11.81-7.182-4.188c-1.446-0.8436-3.327-0.3484-4.17 1.098-0.843 1.445-0.3481 3.325 1.098 4.168l7.617 4.443c1.613 0.9398 3.613 0.9485 5.232 0.01953l21.03-12.07v2e-3c1.452-0.8327 1.96-2.712 1.127-4.164-0.4024-0.7011-1.068-1.215-1.848-1.426-0.2572-0.06973-0.5226-0.1047-0.7891-0.1055zm0 10.42 0.0039 2e-3c-0.5348-0.0015-1.061 0.1382-1.525 0.4043l-20.59 11.82-7.182-4.188c-1.446-0.8435-3.327-0.3484-4.17 1.098-0.843 1.445-0.3481 3.325 1.098 4.168l7.617 4.443c1.613 0.9398 3.613 0.9485 5.232 0.01953l21.03-12.07c1.452-0.8327 1.96-2.71 1.127-4.162-0.4024-0.7011-1.068-1.213-1.848-1.424-0.2572-0.06974-0.5226-0.1067-0.7891-0.1074z" fill="url(#a)"/>
 <path transform="translate(.00095) scale(1) translate(-.00295 -.001953) scale(1)" d="m9.031 0.001953c-4.956 0-9.027 4.076-9.027 9.029v45.94c0 4.956 4.074 9.027 9.027 9.027h45.94c4.956 0 9.025-4.074 9.025-9.027v-45.94c0-4.956-4.072-9.029-9.025-9.029zm0 6.775h45.94c1.334 0 2.252 0.9199 2.252 2.254v45.94c0 1.334-0.918 2.252-2.252 2.252h-45.94c-1.334 0-2.252-0.918-2.252-2.252v-45.94c0-1.334 0.918-2.254 2.252-2.254z" fill="url(#a)"/>
</svg>
