<svg xmlns="http://www.w3.org/2000/svg" viewBox="0 0 64 64"><defs><linearGradient id="a" x1="1" x2="0" y1="1"><stop offset="0" stop-color="#9000ff"/><stop offset="1" stop-color="#f3f"/></linearGradient></defs><path fill="url(#a)" d="M31.95.002c-1.668-.02-3.337.09-4.988.324-12.69 1.661-23.73 11.56-26.64 23.92-.517 1.714.971 3.516 2.76 3.36 1.386-.008 2.392-1.152 2.627-2.392l.002-.012c2.068-7.987 8.167-14.81 15.89-17.84h.002c6.41-2.584 13.86-2.555 20.24.098h.002c5.88 2.41 10.83 6.993 13.67 12.64v.002c2.383 4.703 3.316 10.13 2.62 15.34v.002c-.722 5.763-3.468 11.25-7.62 15.34v.002c-4.703 4.696-11.24 7.526-17.91 7.764h-.002c-5.588.228-11.24-1.339-15.88-4.439v-.002c-5.281-3.502-9.278-8.901-10.93-14.99l-.002-.004v-.004l-.096-.336c-.213-.766-.467-1.724-1.355-2.225-1.29-.86-3.175-.378-3.869 1.016-.54 1.017-.215 2.105.04 3.002q.059.203.11.395v.004l.003.004c2.218 7.629 7.432 14.32 14.28 18.42 5.657 3.422 12.4 5.014 19.01 4.51 7.062-.445 13.91-3.351 19.16-8.041v-.002c4.48-3.96 7.812-9.18 9.473-14.9 2.175-7.387 1.568-15.54-1.717-22.51-2.977-6.378-8.136-11.7-14.43-14.91-4.454-2.29-9.447-3.485-14.45-3.543v-.008zm-2.768 8.162.002.002q-.154.002-.313.023c-8.37.824-15.99 6.392-19.35 14.03l-.003.01q-.106.258-.231.537c-.214.484-.452 1.011-.568 1.574-.116.559-.1 1.17.195 1.756.687 1.606 2.909 2.012 4.209.918.507-.406.731-.97.93-1.449q.067-.163.132-.312l.004-.008.004-.01c1.946-5.017 6.252-9.13 11.42-10.77l.024-.008.023-.011c.212-.102.362-.045.512.103s.237.396.197.594l-.008.037v.037c.025 11.19.016 22.39.008 33.58v.037l.008.037c.038.191-.049.464-.2.623-.15.16-.283.218-.495.116l-.024-.01-.025-.01c-5.53-1.731-9.972-6.303-11.83-11.73-.682-2.079-3.83-2.298-4.854-.398-.389.621-.437 1.299-.324 1.922.113.625.372 1.215.605 1.752q.116.268.217.513l.002.002.002.006c3.377 7.822 11.23 13.56 19.81 14.2l.021.002h.022c1.327-.059 2.468-1.189 2.508-2.52v-.005c.045-2.502.036-5.004.027-7.502-.01-2.693-.013-5.382.045-8.07 3.248-.14 5.957-3.172 5.617-6.412-.126-2.984-2.726-5.37-5.654-5.59-.005-2.236-.003-4.473-.002-6.707v-.004a1976 1976 0 0 0-.006-7.889c.166-1.537-1.114-2.993-2.662-2.982zm6.842.307a3 3 0 0 0-.285.003 2.6 2.6 0 0 0-1.098.317c-2.21 1.074-1.658 4.704.781 5.055h.004c4.666.998 8.913 3.797 11.59 7.725v.002h.002c3.17 4.57 4.133 10.61 2.424 15.9l-.002.006c-1.8 5.899-6.76 10.78-12.77 12.38l-.008.004c-.177.051-.37.099-.57.148-.445.109-.928.222-1.38.44-.445.214-.863.547-1.122 1.056-1.078 1.715.33 4.177 2.389 4.053l.035-.003c9.786-1.556 17.89-9.838 19.41-19.52v-.002c1.232-6.945-.847-14.36-5.508-19.68h-.002c-3.37-3.88-8.012-6.657-13.06-7.758a3.7 3.7 0 0 0-.826-.12l-.002-.007zm-.11 8.477a2.5 2.5 0 0 0-.808.134c-2.108.574-2.561 3.666-.707 4.811l.04.02.366.17c1.535.703 3.048 1.405 4.15 2.596l.014.013c2.676 2.6 3.752 6.724 2.635 10.28v.008c-.899 3.05-3.307 5.617-6.305 6.732h-.004c-1.069.335-2.01 1.254-2.051 2.467-.197 1.734 1.526 3.275 3.238 2.846l.006-.002.008-.002c6.846-1.995 11.59-9.062 10.98-16.1-.327-5.548-3.85-10.72-8.896-13.12l-.006-.002-.006-.002c-.142-.06-.29-.13-.441-.199-.654-.3-1.402-.655-2.205-.652h-.004z" transform="translate(0 .013)scale(.9998)"/></svg>