<svg version="1.1" viewBox="0 0 64 64" xmlns="http://www.w3.org/2000/svg">
 <defs>
  <linearGradient id="a" x2="0" y1="1">
   <stop stop-color="#07f" offset="0"/>
   <stop stop-color="#00f7ff" offset="1"/>
  </linearGradient>
 </defs>
 <path transform="translate(.001293 -3.4e-5) scale(1) translate(.5076 .4941) scale(.9921)" d="m26.81-0.498a0.5 0.5 0 0 0-0.0059 0.001953c-15.01 0.002033-27.21 11.82-27.21 26.42 0 11.13 7.09 20.65 17.12 24.54a0.5 0.5 0 0 0 0.6191-0.2246c2.371-4.287 4.352-7.518 4.352-7.518a0.5 0.5 0 0 0-0.1875-0.7012l-3.31-1.793a0.5 0.5 0 0 0-0.5859 0.08008l-2.85 2.746-4.873-4.859 2.69-2.748a0.5 0.5 0 0 0 0.09961-0.5527l-2.143-4.836a0.5 0.5 0 0 0-0.457-0.2969h-3.75l0.1797-6.988h3.57a0.5 0.5 0 0 0 0.4492-0.2832l2.346-4.859a0.5 0.5 0 0 0-0.1055-0.5781l-2.861-2.732 4.863-4.688 2.621 2.316a0.5 0.5 0 0 0 0.5312 0.08398l4.943-2.166a0.5 0.5 0 0 0 0.2988-0.459v-4.106h6.844v4.106a0.5 0.5 0 0 0 0.3477 0.4766l5.531 1.766a0.5 0.5 0 0 0 0.4961-0.1133l2.307-2.197 5.084 4.779a0.5 0.5 0 0 0 0.6094 0.05859s1.406-0.8934 4.5-2.812a0.5 0.5 0 0 0 0.1387-0.7207c-1.62-2.214-4.851-4.96-8.842-7.195s-8.734-3.945-13.36-3.945z" fill="url(#a)"/>
 <path transform="translate(.001293 -3.4e-5) scale(1) translate(.5076 .4941) scale(.9921)" d="m56.07 10.26a0.5 0.5 0 0 0-0.3281 0.1035l-1.953 1.498a0.5 0.5 0 0 0-0.01367 0.0098c-0.02233 0.01498-4.07 2.729-8.375 4.805-4.317 2.081-7.947 3.843-13.12 5.557-4.894 1.621-8.026 2.056-8.365 2.102a0.5 0.5 0 0 0-0.3711 0.252l-1.34 2.402a0.5 0.5 0 0 0 0.4492 0.7441l9.338-0.2129-12.47 24.86s-0.4656 0.8609-0.9023 1.941c-0.2209 0.5466-0.4244 1.151-0.5625 1.719-0.1381 0.5676-0.2241 1.083-0.1602 1.547 0.1224 0.8852 0.1759 1.293 0.418 1.693 0.2528 0.4176 0.6663 0.7826 1.537 1.619 0.8657 0.8317 1.768 1.478 3.168 1.971 1.404 0.4935 3.312 0.8351 6.199 1.066 5.619 0.4502 11.04-1.274 11.34-1.371a0.5 0.5 0 0 0 0.2949-0.252l2.443-4.856a0.5 0.5 0 0 0-0.4551-0.7246l-3.033 0.04883c-0.132 0.0022-0.2612-0.0084-0.3809-0.03125-0.06443-0.0123-0.1213-0.02585-0.1699-0.04102-0.269-0.08379-0.4613-0.2265-0.584-0.4219-0.1954-0.3112-0.1939-0.7632 0.04492-1.242v-2e-3l13.44-26.86c0.2213-0.4421 0.6505-0.7073 1.143-0.6992l7.856 0.1309c0.3237 0.0054 0.4586-0.1099 0.627-0.2227s0.3303-0.2001 0.4473-0.5l1.611-4.156c0.0104-0.02679 0.01855-0.05337 0.02539-0.07617a0.5 0.5 0 0 0-0.4316-0.6426c-0.01519-0.0014-0.05729-0.0046-0.1016-0.0039l-7.539 0.1191c-0.1994 0.0031-0.381-0.0795-0.459-0.2012-0.07686-0.12-0.07619-0.32 0.01172-0.5l5.01-10.27a0.5 0.5 0 0 0-0.4258-0.7188z" fill="url(#a)"/>
</svg>
