<svg xmlns="http://www.w3.org/2000/svg" viewBox="0 0 64 64"><defs><linearGradient id="a" x2="0" y1="1"><stop offset="0" stop-color="#d800bd"/><stop offset=".408" stop-color="#f92d7a"/><stop offset=".59" stop-color="#ff4a52"/><stop offset="1" stop-color="#ffb243"/></linearGradient><linearGradient id="b" x1="1" x2="0" y1="1"><stop offset="0" stop-color="#05f"/><stop offset="1" stop-color="#00ffd8"/></linearGradient></defs><path fill="url(#a)" d="M50.69 11.88c-.912.007-1.825.46-2.238 1.354l-.154.338v36.56l.17.379c.793 1.755 3.4 1.847 4.34.152l.214-.387.045-3.67h6.545l-.029 3.471c-.025 3.094-.042 3.515-.158 3.871-.454 1.39-1.384 2.312-2.668 2.654-.575.153-48.67.157-49.25.004-1.838-.49-2.776-1.766-2.856-3.894-.066-1.776-.166-1.856-2.37-1.856-1.927 0-2.288.188-2.288 1.182 0 4.938 3 8.672 7.43 9.246.95.124 48.81.092 49.53-.033 3.442-.6 6.172-3.198 6.912-6.576.13-.594.134-1.343.127-19.37l-.008-18.75-10.92-.037-.002-1.508c-.001-1.318-.02-1.544-.139-1.807-.403-.888-1.312-1.327-2.225-1.32zm2.365 9.143h6.506v8.287h-6.506v-4.143zm0 12.8h6.469v8.285h-6.469v-4.143z" transform="translate(.008 .002)"/><path fill="url(#a)" d="M57.14 2.746c-1.095-.18-49.87-.131-50.64.05A8.43 8.43 0 0 0 .199 9.179l-.168.763v36.64l11.05.038v1.725c0 3.038 1.3 4.3 3.428 3.33.464-.212.935-.676 1.141-1.121l.156-.338.037-36.71-.185-.38c-.663-1.354-2.746-1.684-3.885-.614-.588.552-.648.765-.696 2.488l-.04 1.482-6.472.037.026-3.07.025-3.072.186-.483c.492-1.277 1.274-2.085 2.375-2.455l.447-.152 24.44.002c25.93 0 24.76-.014 25.43.324 1.25.637 1.9 1.74 1.996 3.383.092 1.564.279 1.71 2.215 1.71 2.03 0 2.258-.186 2.258-1.835 0-4.28-2.65-7.436-6.814-8.119zM4.57 21.026h6.506v8.287H4.57V25.17zm0 12.79h6.506l-.02 3.736c-.01 2.056.008 3.92.043 4.143l.063.404H4.57v-4.143z" transform="translate(.008 .002)"/><path fill="url(#b)" d="M32.41 18.01a13.93 13.93 0 0 0-10.85 4.673 14 14 0 0 0-3.395 7.271v.003h-.003v.002a1.972 1.972 0 0 0 1.927 2.285h.004a1.97 1.97 0 0 0 1.938-1.715v-.002a10.07 10.07 0 0 1 11.43-8.499h.003a10.1 10.1 0 0 1 4.876 2.144l-1.138 1.14a1.386 1.386 0 0 0 .98 2.368h5.238c.767 0 1.387-.623 1.387-1.39v-5.238a1.388 1.388 0 0 0-2.368-.98l-1.323 1.321a13.92 13.92 0 0 0-8.706-3.385zm11.5 13.74.005.211v.035h-.002zm0 0a1.97 1.97 0 0 0-1.937 1.718v.003a10.08 10.08 0 0 1-16.31 6.355l1.141-1.14a1.388 1.388 0 0 0-.982-2.367h-5.236a1.39 1.39 0 0 0-1.39 1.386v5.237a1.388 1.388 0 0 0 2.369.982l1.322-1.323c5.764 4.975 14.47 4.422 19.56-1.281a14 14 0 0 0 3.398-7.28 1.975 1.975 0 0 0-1.924-2.29z"/></svg>