<svg version="1.1" viewBox="0 0 64 64" xmlns="http://www.w3.org/2000/svg">
 <defs>
  <linearGradient id="a" x2="0" y1="1">
   <stop stop-color="#ff823b" offset="0"/>
   <stop stop-color="#ff005b" offset=".987"/>
  </linearGradient>
 </defs>
 <path transform="translate(-.000869 .002183) scale(2.91) translate(-.000978 -.5006) scale(1)" d="m4.713 7.494c-0.8392 0-2.153 0.03403-2.734 2.756l-1.924 8.998c-0.1709 0.8006-3.128e-4 2.025 1.496 2.025h18.89c1.495 0 1.672-1.352 1.494-2.152l-1.967-8.871c-0.587-2.653-1.895-2.756-2.734-2.756h-1.537a0.6 0.6 0 0 0-0.5996 0.6016v0.1758a0.6 0.6 0 0 0 0.5996 0.5996h0.7676c1.368 0 1.465 1.81 1.967 4.139l0.7695 3.57c0.226 1.049-4.64e-4 1.941-1.924 1.941h-12.48c-2.009 0-2.114-0.885-1.924-1.941l0.6445-3.57c0.441-2.467 0.6404-4.139 2.008-4.139h0.7676a0.6 0.6 0 0 0 0.5996-0.5996v-0.1758a0.6 0.6 0 0 0-0.5996-0.6016z" fill="url(#a)"/>
 <path transform="translate(-.000869 .002183) scale(2.91) translate(-.000978 -.5006) scale(1)" d="m5.523 1.717c-0.758 0-1.367 0.6134-1.367 1.377 0 0.7635 0.6096 1.379 1.367 1.379h2.734v7.322h-1.531c-0.4454 9.5e-5 -0.6684 0.5386-0.3535 0.8535l4.283 4.305c0.196 0.196 0.5141 0.1952 0.709-2e-3l4.252-4.305c0.3123-0.3158 0.08869-0.8516-0.3555-0.8516h-1.531v-7.322h2.734c0.758 0 1.371-0.6153 1.371-1.379 0-0.7635-0.6133-1.377-1.371-1.377h-8.207z" fill="url(#a)"/>
</svg>
