<svg xmlns="http://www.w3.org/2000/svg" style="isolation:isolate" viewBox="0 0 64 64"><linearGradient id="a" x1=".4" x2=".365" y1=".202" y2="1.119" gradientTransform="matrix(18.14 0 0 13.79 21.49 12.58)" gradientUnits="userSpaceOnUse" transform="translate(-11.02 -18.92)scale(1.893)"><stop offset="0" stop-color="#43e97b"/><stop offset=".978" stop-color="#38f9d7"/></linearGradient><path fill="url(#a)" d="M33.17 12.93c-1.983-.061-3.01.866-3.258.953.225-.428.376-.697.954-1.298-1.964-.021-3.784.404-5.173 1.703-1.862 1.743-1.718 3.187-1.721 3.179 0 .001-.294-.941-.382-1.949-2.028 2.806-2.828 6.524-1.291 9.298.954-2.302 2.469-4.285 4.421-5.849.064-1.641.725-3.028 1.768-4.052-.941 1.127-1.357 2.412-1.315 3.706 2.271-1.694 5.054-2.823 8.111-3.194-2.213.407-4.219 1.289-5.972 2.492 1.097.501 2.35.58 3.667.121-1.262.592-2.664.689-4.082.173a17.8 17.8 0 0 0-3.339 3.207c1.708.559 3.576.443 5.434-.504-1.706 1.102-3.711 1.515-5.853 1.046a19 19 0 0 0-2.129 3.646c.689.508 3.68 2.102 8.809-1.681a8.4 8.4 0 0 1-1.311-.517c.016.007.528.054 2.027-.844 1.324-.774 2.464-2.177 3.305-3.27a14 14 0 0 1-1.273-.541s.925.063 2.36-1.036c1.279-.979 2.708-2.4 2.713-2.36.009.009-3.152-2.327-6.47-2.429" transform="translate(-11.02 -18.92)scale(1.893)"/><linearGradient id="b" x2="1" y1=".5" y2=".5" gradientTransform="matrix(15.19 0 0 9.95 5.823 17.39)" gradientUnits="userSpaceOnUse" transform="translate(-11.02 -18.92)scale(1.893)"><stop offset="0" stop-color="#ffe031"/><stop offset=".987" stop-color="#fc5252"/></linearGradient><path fill="url(#b)" d="M10.32 18.39c1.505-.437 2.463.068 2.669.084-.252-.281-.418-.457-.971-.801 1.497-.403 2.968-.438 4.272.279 1.748.961 1.906 2.09 1.908 2.084 0 .001.049-.775-.071-1.561 2.073 1.74 3.377 4.416 2.718 6.833a11.3 11.3 0 0 0-4.469-3.587c-.355-1.238-1.118-2.165-2.106-2.74.929.673 1.486 1.57 1.695 2.565-2.051-.844-4.39-1.156-6.796-.836 1.768-.126 5.513.13 8.552 2.652-1.201.762-2.651 1.042-4.249.687 1.51.503 3.12.423 4.67-.357a14.5 14.5 0 0 1 2.307 2.36c-.432.523-2.422 2.327-7.048.455.514-.306.906-.653.906-.653-.011.009-.394.146-1.707-.243-1.157-.33-2.289-1.175-3.136-1.842.498-.342.873-.662.873-.663 0 0-.695.23-1.997-.325-1.161-.494-2.518-1.296-2.514-1.264-.005.008 1.977-2.395 4.494-3.127" transform="translate(-11.02 -18.92)scale(1.893)"/><linearGradient id="d" x2="1" y1=".5" y2=".5" gradientTransform="matrix(8.986 0 0 14.29 17.38 26.93)" gradientUnits="userSpaceOnUse" transform="translate(-11.02 -18.92)scale(1.893)"><stop offset="0" stop-color="#fc4988"/><stop offset=".983" stop-color="#ea333e"/></linearGradient><path fill="url(#d)" d="M21.12 39.08c-1.097-1.021-1.144-2.061-1.23-2.239-.111.348-.177.571-.193 1.198-1.065-1.032-1.811-2.225-1.85-3.655-.053-1.917.81-2.609.804-2.607 0 0-.67.345-1.265.835.438-2.571 2.029-4.976 4.361-5.636a10.9 10.9 0 0 0-.807 5.463c-.857.908-1.256 1.997-1.253 3.096.107-1.1.582-2.004 1.308-2.671.298 2.108 1.178 4.188 2.617 6.01-.966-1.393-2.579-4.603-1.962-8.359 1.22.611 2.16 1.664 2.642 3.156-.316-1.493-1.167-2.778-2.572-3.666.165-1.064.45-2.1.839-3.072.646.095 3.117.836 3.814 5.575a6 6 0 0 0-.985-.421c.012.004.313.251.629 1.525.29 1.116.139 2.469-.004 3.497-.527-.24-.976-.388-.976-.388-.001 0 .529.458.702 1.805.155 1.202.15 2.717.174 2.698.009 0-2.956-.436-4.793-2.144" transform="translate(-11.02 -18.92)scale(1.893)"/></svg>