<svg xmlns="http://www.w3.org/2000/svg" viewBox="0 0 64 64"><defs><linearGradient id="b" y2="1"><stop offset="0" stop-color="#007bff"/><stop offset="1" stop-color="#0006ff"/></linearGradient><linearGradient id="a" x1="1" x2="0" y1="1"><stop offset="0" stop-color="#004dff"/><stop offset="1" stop-color="#00e0f8"/></linearGradient><linearGradient id="d" x1="1" x2="0" y1="1"><stop offset="0" stop-color="#00fffa"/><stop offset="1" stop-color="#0078ff"/></linearGradient></defs><path fill="url(#a)" d="M174.8 78.14v.006c-44.49 22.59-72.4 57.34-97.4 94.22 11.64 4.836 26.72 9.782 42.33 14.1 28.67-15.13 56.86-30.85 68.79-66.56-4.178-15.22-8.975-30.02-13.72-41.77z" transform="translate(-24.491 -23.913)scale(.4413)"/><path fill="url(#b)" d="M158.7 54.31q-.225.004-.463.027v-.01c-19.7 1.657-106.7 89.34-102.6 104.5 1.032 3.843 9.482 8.784 21.73 13.88l97.4-94.22c-5.444-13.5-10.77-22.97-14.85-24.06a4.5 4.5 0 0 0-1.227-.14z" transform="translate(-24.491 -23.913)scale(.4413)"/><path fill="url(#d)" d="m188.5 120.1.004.02.018-.016zm.004.022-68.78 66.54c35.05 9.708 72.52 16.13 78.49 10.13 5.889-5.895-.25-42.17-9.713-76.67z" transform="translate(-24.491 -23.913)scale(.44131)"/></svg>