<svg xmlns="http://www.w3.org/2000/svg" style="isolation:isolate" viewBox="0 0 64 64"><linearGradient id="a" x1=".023" x2="1.042" y1=".193" y2="1.045" gradientTransform="matrix(44 0 0 44 2 2)" gradientUnits="userSpaceOnUse" transform="translate(-2.909 -2.909)scale(1.455)"><stop offset="0" stop-color="#ffe53b"/><stop offset=".987" stop-color="#ff005b"/></linearGradient><path fill="url(#a)" fill-rule="evenodd" d="M8 46h33q.156 0 .31-.011A5 5 0 0 0 46 41V7c0-2.76-2.24-5-5-5h-4.98a2 2 0 0 0 0 4H39c1.656 0 3 1.344 3 3v22.26c-1.127-1.678-2.618-2.954-4.551-3.919-2.538-1.267-5.38-2.128-11.47-3.467-3.781-.832-4.714-1.141-4.83-1.601-.174-.694 1.365-1.031 4.686-1.272 3.445-.25 4.741-.645 5.125-1.564.169-.405.085-.7-.297-1.036-.219-.192-.383-.281-.453-.273s-.048.113.103.313c.183.241.17.721-.025.892-.644.564-1.812.685-7.012 1.029-2.965.197-4.329.496-5.33 1.168-.485.327-.845.805-.845 1.121 0 .52.822 1.032 3.281 2.043 3.121 1.284 4.509 2.035 5.457 2.948.635.612.898 1.031 1.074 1.716.283 1.104-.165 2.263-1.334 3.456-2.109 2.151-5.93 4.172-14.54 7.693-2.114.864-3.504 1.41-4.84 1.894L6 42.003v-10a2 2 0 0 0-4 0v9a5 5 0 0 0 5 5h1zM6 24a2 2 0 0 1-4 0V7c0-2.76 2.24-5 5-5h21a2 2 0 0 1 0 4H9C7.344 6 6 7.344 6 9z" transform="translate(-2.909 -2.909)scale(1.455)"/></svg>