<svg xmlns="http://www.w3.org/2000/svg" style="isolation:isolate" viewBox="0 0 64 64"><defs><linearGradient id="d" y1="1"><stop offset="0" stop-color="#ff001e"/><stop offset="1" stop-color="#ff004b"/></linearGradient></defs><linearGradient id="a" x1=".543" x2=".52" y1="-.266" y2=".983" gradientTransform="matrix(45.74 0 0 48 1.13 0)" gradientUnits="userSpaceOnUse" transform="scale(1.333)"><stop offset=".03" stop-color="#a67cf3"/><stop offset=".992" stop-color="#6e5991"/></linearGradient><path fill="url(#a)" fill-rule="evenodd" d="M1.94 37.02c.075.217.2.407.364.563.185-.034.281.042.256.197.28.18.62.25.95.21zm27.37-16.09c-.43-.353-.495-.985-.145-1.41s.985-.488 1.415-.14c1.37 1.13 2.47 2.55 3.22 4.17.79 1.7 1.2 3.56 1.2 5.45.03 3.11-1.11 6.12-3.19 8.44-.98 1.09-2.17 1.98-3.49 2.6-1.36.63-2.83.96-4.32.96s-2.96-.33-4.32-.96c-1.32-.62-2.51-1.51-3.49-2.6A12.47 12.47 0 0 1 13 29c0-1.78.36-3.54 1.07-5.18.68-1.54 1.67-2.92 2.91-4.06.408-.37 1.042-.338 1.415.07s.343 1.04-.065 1.41c-1.04.94-1.86 2.1-2.42 3.38C15.3 26 15 27.5 15 29c-.02 2.62.93 5.16 2.67 7.11.81.89 1.78 1.61 2.86 2.12 1.09.51 2.27.77 3.47.77s2.38-.26 3.47-.77a9.2 9.2 0 0 0 2.86-2.12c1.74-1.95 2.69-4.49 2.67-7.11.01-1.59-.34-3.17-1.01-4.61a9.9 9.9 0 0 0-2.68-3.46M29 13c0-.53.21-1.04.59-1.41.37-.38.88-.59 1.41-.59s1.04.21 1.41.59c.38.37.59.88.59 1.41s-.21 1.04-.59 1.41c-.37.38-.88.59-1.41.59s-1.04-.21-1.41-.59c-.38-.37-.59-.88-.59-1.41m-13 0a1 1 0 1 1 2 0 1 1 0 0 1-2 0m-1 0c0-.53.21-1.04.59-1.41.37-.38.88-.59 1.41-.59s1.04.21 1.41.59c.38.37.59.88.59 1.41s-.21 1.04-.59 1.41c-.37.38-.88.59-1.41.59s-1.04-.21-1.41-.59c-.38-.37-.59-.88-.59-1.41m12 0c0-1.06.42-2.08 1.17-2.83a4.004 4.004 0 0 1 5.66 0 4.004 4.004 0 0 1 0 5.66 4.004 4.004 0 0 1-5.66 0A4 4 0 0 1 27 13m-14 0c0-1.06.42-2.08 1.17-2.83a4.004 4.004 0 0 1 5.66 0 4.004 4.004 0 0 1 0 5.66 4.004 4.004 0 0 1-5.66 0A4 4 0 0 1 13 13M4.33 34.5a10 10 0 0 1-.2-2c0-1.32.26-2.63.75-3.86.47-1.17 1.08-2.27 1.83-3.28 1.29-1.76 2.85-3.3 4.63-4.55-.58-1.48-.88-3.06-.88-4.65.01-3.5 1.44-6.85 3.95-9.29C16.98 4.38 20.42 2.99 24 3a13.7 13.7 0 0 1 9.59 3.87c2.52 2.44 3.94 5.79 3.95 9.29 0 1.24-.18 2.48-.54 3.67-.18.6.03 1.26.54 1.63 1.42 1.12 2.68 2.43 3.75 3.89.75 1.02 1.36 2.12 1.83 3.29.49 1.23.75 2.54.75 3.86 0 .67-.07 1.34-.2 2-.36-.23-.68-.5-.97-.81a8.5 8.5 0 0 1-1.38-1.9c-.3-.54-.89-.85-1.5-.78-.61.08-1.12.52-1.27 1.11-.86 3.26-2.84 6.11-5.58 8.07 1.56-.21 3.14.05 4.54.75.34.17.66.38.95.62.19.16.35.35.47.57.06.11.1.23.1.35-.01.22-.09.43-.24.6-.32.38-.72.68-1.17.9-.66.34-1.36.59-2.08.74-.88.19-1.77.28-2.67.28-1.18.01-2.35-.16-3.48-.5a7.4 7.4 0 0 1-1.3-.54c-.52-.27-.98-.65-1.35-1.12-.9.17-1.82.26-2.74.27-.92-.01-1.84-.1-2.74-.27-.37.47-.83.85-1.35 1.12-.41.22-.85.4-1.3.54-1.13.34-2.3.51-3.48.5-.9 0-1.79-.09-2.67-.28-.72-.15-1.42-.4-2.08-.74-.45-.21-.85-.52-1.17-.9-.14-.17-.23-.38-.24-.6 0-.13.04-.25.1-.35.12-.22.28-.41.47-.57.29-.24.61-.45.95-.62 1.41-.7 2.99-.96 4.54-.75a14.4 14.4 0 0 1-5.57-8.07c-.16-.59-.67-1.03-1.27-1.11-.61-.07-1.21.24-1.5.78a9.2 9.2 0 0 1-1.38 1.9c-.3.31-.62.58-.98.81m40.15 3.49c-.24-.02-.47-.07-.7-.15q-.765-.225-1.44-.63c-.67-.4-1.28-.89-1.82-1.45-.02-.03-.05-.05-.07-.08-.42.92-.92 1.8-1.49 2.63.51.26 1 .59 1.44.96.46.39.86.86 1.15 1.4.32.56.48 1.19.48 1.83-.02.93-.36 1.82-.96 2.53a6.6 6.6 0 0 1-2.11 1.64c-.88.45-1.82.78-2.79.98a15.2 15.2 0 0 1-3.29.35c-1.48.01-2.95-.2-4.37-.63-.63-.2-1.24-.45-1.82-.76-.33-.17-.65-.37-.95-.6-.58.06-1.16.09-1.74.1-.58-.01-1.16-.04-1.74-.1-.3.23-.62.43-.95.6-.58.31-1.19.56-1.82.76-1.42.43-2.89.64-4.37.63-1.1 0-2.21-.11-3.29-.35-.97-.2-1.91-.53-2.79-.98a6.6 6.6 0 0 1-2.11-1.64c-.6-.71-.94-1.6-.96-2.53 0-.64.17-1.27.48-1.83.3-.54.69-1.01 1.15-1.4.45-.37.93-.7 1.44-.96a17.5 17.5 0 0 1-1.49-2.63c-.02.03-.05.05-.07.08-.54.57-1.15 1.05-1.82 1.45q-.69.405-1.44.63a3 3 0 0 1-.71.15q-.6.075-1.2-.06c-.13-.3-.26-.6-.37-.91-.53-1.45-.81-2.98-.81-4.52.01-1.7.33-3.39.96-4.97.57-1.4 1.31-2.73 2.21-3.95 1.03-1.42 2.23-2.72 3.57-3.87-.27-1.16-.41-2.35-.41-3.55.01-4.31 1.77-8.44 4.86-11.44C15.45 1.68 19.64-.01 24 0c4.36-.01 8.55 1.68 11.68 4.72 3.1 3 4.85 7.13 4.86 11.44 0 1.2-.14 2.39-.41 3.55 1.34 1.15 2.54 2.45 3.58 3.87.9 1.22 1.63 2.54 2.2 3.95.63 1.58.95 3.26.96 4.97 0 1.54-.28 3.07-.81 4.52-.11.31-1.17 1.02-1.58.97.34.04.67-.03.96-.21s.5-.44.62-.76zM30 13a1 1 0 1 1 2 0 1 1 0 0 1-2 0" transform="scale(1.333)"/><linearGradient id="c" x2=".907" y1=".5" y2=".92" gradientTransform="matrix(7.421 0 0 9.45 20.29 16)" gradientUnits="userSpaceOnUse" transform="scale(1.333)"><stop offset="0" stop-color="#f7f107"/><stop offset=".839" stop-color="#ffbb24"/></linearGradient><path fill="url(#c)" fill-rule="evenodd" d="M22.02 16h3.96c.44-.01.87.14 1.2.43.34.31.54.75.53 1.21 0 .22-.05.44-.13.65l-2.29 6.11c-.07.22-.19.42-.34.6-.23.28-.58.45-.95.45s-.72-.17-.95-.45c-.15-.18-.27-.38-.34-.6l-2.29-6.11c-.08-.21-.13-.43-.13-.65-.01-.46.19-.9.53-1.21.33-.29.76-.44 1.2-.43M24 22.15 22.44 18h3.12z" transform="scale(1.333)"/><path fill="#775fa1" d="M61.398 49.321c-.12.515-.596.688-.826 1.04-.793.222-1.193.462-1.92.08z"/><path fill="#765ea0" d="M2.586 49.348c.27.748.76.934.827 1.04.309.214.736.48 1.92.08z"/><path fill="url(#d)" d="M31.99 33.92a8 8 0 0 0-8 8 8 8 0 0 0 8 8 8 8 0 0 0 5-1.756v.256c0 .83.669 1.5 1.5 1.5s1.5-.67 1.5-1.5v-13c0-.831-.669-1.5-1.5-1.5s-1.5.669-1.5 1.5v.256a8 8 0 0 0-5-1.756zm0 3a5 5 0 0 1 5 5 5 5 0 0 1-5 5 5 5 0 0 1-5-5 5 5 0 0 1 5-5"/></svg>