<svg xmlns="http://www.w3.org/2000/svg" viewBox="0 0 64 64"><defs><linearGradient id="a" x1="1" x2="0" y1=".5" y2=".5"><stop offset="0" stop-color="#0cf"/><stop offset="1" stop-color="#006cff" stop-opacity=".984"/></linearGradient></defs><path fill="url(#a)" d="M9.511 9.888a3.433 3.433 0 0 0-3.429 3.429l-.007 5.076h4.606l-.027-2.79c0-.631.513-1.143 1.143-1.143h24.52c.63 0 1.141.512 1.141 1.143v16.87c0 .52-.346.957-.82 1.097v4.586l1.964.032c1.893.03 3.429-1.537 3.429-3.429V13.32a3.43 3.43 0 0 0-3.429-3.429z" transform="translate(-1.068 -11.797)scale(1.548)"/><path fill="url(#a)" d="M4.119 18.39A3.43 3.43 0 0 0 .69 21.819v14.55a2.286 2.286 0 0 0 4.57 0v-12.26c0-.631.514-1.143 1.144-1.143h24.51c.63 0 1.143.512 1.143 1.143v16.87c0 .631-.513 1.143-1.143 1.143H6.504a2.287 2.287 0 1 0 0 4.572h26.69a3.43 3.43 0 0 0 3.429-3.429v-21.44a3.43 3.43 0 0 0-3.429-3.429z" transform="translate(-1.068 -11.797)scale(1.548)"/></svg>