<svg xmlns="http://www.w3.org/2000/svg" viewBox="0 0 64 64"><defs><linearGradient id="a" y1="1"><stop offset="0" stop-color="#0072ff"/><stop offset="1" stop-color="#00e5a1"/></linearGradient></defs><path fill="url(#a)" d="M31.99 9.844a20.89 20.89 0 0 0-18.61 11.3C5.77 22.84 0 29.39 0 37.364c0 9.277 7.781 16.77 17.22 16.77h31.4c8.421 0 15.38-6.698 15.38-14.98 0-7.125-5.156-13-11.96-14.52C49.521 16.091 41.5 9.844 32 9.844zm0 4.893c7.83 0 14.28 5.429 15.73 12.48l.356 1.744 1.77.197c5.266.585 9.254 4.822 9.254 9.994 0 5.564-4.628 10.09-10.48 10.09h-31.4c-6.88 0-12.33-5.33-12.33-11.88 0-5.95 4.495-10.82 10.48-11.68l1.348-.195.544-1.248c2.418-5.543 8.046-9.502 14.73-9.502z" transform="translate(0 .011)"/><path fill="url(#a)" d="M28.04 24.13s-3.94 0-3.94 3.94v15.76h3.94v-5.91h7.879v5.91h3.94V28.07s0-3.94-3.94-3.94zm0 3.94h7.879v5.91H28.04z" transform="translate(0 .011)"/></svg>