<svg xmlns="http://www.w3.org/2000/svg" viewBox="0 0 64 64"><defs><linearGradient id="a" y2="1"><stop offset="0" stop-color="#ffd42a"/><stop offset=".469" stop-color="#c779d0"/><stop offset="1" stop-color="#4bc0c8"/></linearGradient><linearGradient id="b" x2="0" y1="1"><stop offset="0" stop-color="#00f0ff"/><stop offset="1" stop-color="#0070e0"/></linearGradient></defs>&gt;<path fill="url(#a)" d="M2.115.397A1.72 1.72 0 0 0 .397 2.115a1.72 1.72 0 0 0 1.718 1.718 1.72 1.72 0 0 0 1.718-1.718A1.72 1.72 0 0 0 2.115.397m0 .256a1.46 1.46 0 0 1 1.462 1.462 1.46 1.46 0 0 1-1.462 1.462A1.46 1.46 0 0 1 .653 2.115 1.46 1.46 0 0 1 2.115.653" transform="translate(-7.392 -7.385)scale(18.62)"/><path fill="url(#b)" d="m3.309 1.594-.521.06.02.13-.103.008a1 1 0 0 0-.034-.124l-.484.056.01.131 1.128-.13zm-1.388.161-.494.057-.009.096-.101.01-.003-.093-.494.058.013.13 1.1-.127zm1.351.253-1.051.124.011.13 1.055-.125zm-1.316.156L.891 2.29l.016.129 1.06-.126zm1.361.256-.303.035.016.13.303-.034zm-.381.04-.68.075.01.131.684-.076zm-.945.104-.967.108.016.13.962-.106z" opacity=".6" transform="translate(-7.392 -7.385)scale(18.62)"/><path fill="url(#a)" d="m2.72 1.19-1.419.128.016.6.102-.01c.006-.122.02-.17.043-.25.046-.185.158-.208.32-.223.077-.007.11-.028.114.032l.108 1.251c.01.124.011.129-.001.152-.017.026-.061.04-.196.052l-.062.005.01.114.812-.073-.01-.114-.061.005c-.133.012-.178.006-.2-.016-.016-.02-.016-.025-.027-.149l-.107-1.251c-.005-.06.029-.045.107-.052.145-.013.261-.018.333.122.043.087.072.143.103.28l.102-.01z" transform="translate(-7.392 -7.385)scale(18.62)"/></svg>