<svg xmlns="http://www.w3.org/2000/svg" viewBox="0 0 64 64"><defs><linearGradient id="a" y2="1"><stop offset="0" stop-color="#fea51d"/><stop offset="1" stop-color="#ff0a76"/></linearGradient></defs><path fill="url(#a)" d="M11.48 5.275q-.112 0-.236.012c-1.043.102-1.711.873-1.81 2.092-.045.57-.022.67.184.892.504.535 1.472.122 2.277-.972.894-1.21.708-2.03-.416-2.023zm-3.457.41q-.174.01-.38.104c-.548.25-.751 1.363-.368 1.996.363.594.805.413 1.215-.485.418-.923.156-1.652-.467-1.615zm-2.166.84a.5.5 0 0 0-.145.021c-.71.203-.78 1.238-.132 1.95.492.54.937.011.863-1.024-.044-.602-.265-.948-.586-.947zM4.164 7.918a.6.6 0 0 0-.361.164c-.367.332-.113 1.324.41 1.61.343.182.375.182.566-.009.175-.175.212-.804.067-1.19-.145-.382-.411-.59-.682-.575zM8.93 8.965a5 5 0 0 0-.398.002 6.4 6.4 0 0 0-2.06.451c-.871.344-1.863 1.297-2.043 1.957-.457 1.694.942 3.876 2.95 4.611.607.22 1.638.16 2.185-.12.762-.395 1.578-1.48 1.578-2.107 0-.567-1.25-.738-1.863-.254a1.03 1.03 0 0 0-.317.555c-.043.219-.162.421-.314.52-.227.152-.274.15-.63-.022-.437-.215-.655-.575-.546-.89.043-.118.668-.637 1.391-1.153.723-.519 1.461-1.098 1.637-1.289.414-.449.524-.976.3-1.449-.238-.504-.962-.783-1.868-.812z" transform="translate(-13.854 -14.899)scale(3.817)"/><path fill="url(#a)" d="M12.49 8.492c-.32-.002-.607.057-.742.176-.558.512.146 1.98 1.307 2.715.828.527 1.422.352 1.512-.453.105-.934-.379-1.887-1.144-2.25-.26-.123-.613-.186-.932-.188zm3.408.34c-.581.017-.782.748-.344 1.688.133.289.328.574.43.637.504.296.867-.137.887-1.06.015-.604-.157-.996-.512-1.155a1.05 1.05 0 0 0-.461-.11zm2.309.91c-.484 0-.66.289-.66 1.09 0 .5.043.684.199.84.278.278.602.145.89-.363.442-.77.223-1.566-.43-1.566zm1.627 1.336-.057.004c-.531.078-.94 1.356-.558 1.74.219.219.277.217.59-.025.3-.238.585-.797.585-1.148 0-.293-.283-.572-.56-.57zm-4.451 1.045c-1.5-.049-2.383.484-2.273 1.42.071.578.496 1.031 1.801 1.926.64.433 1.269.898 1.402 1.031.328.324.317.742-.031 1.043-.586.504-1.105.363-1.234-.34-.086-.445-.434-.715-1.04-.797-1.206-.164-1.46.516-.624 1.668.347.48.88.898 1.389 1.086h.002c2.223.822 5.435-2.25 4.768-4.559-.351-1.203-1.784-2.199-3.478-2.422a7 7 0 0 0-.68-.056z" transform="translate(-13.854 -14.899)scale(3.817)"/></svg>