<svg xmlns="http://www.w3.org/2000/svg" fill="none" viewBox="0 0 64 64"><defs><linearGradient id="a" x1="63.09" x2="63.09" y1="101.6" y2="6.667" gradientUnits="userSpaceOnUse"><stop offset="0" stop-color="#a93aff"/><stop offset="1" stop-color="#ff81ff"/></linearGradient><linearGradient id="b" x1="85.83" x2="85.83" y1="111.1" y2="67.35" gradientUnits="userSpaceOnUse"><stop offset="0" stop-color="#a93aff"/><stop offset="1" stop-color="#ff81ff"/></linearGradient><linearGradient id="e" x1="100.7" x2="100.7" y1="122.3" y2="103.1" gradientUnits="userSpaceOnUse"><stop offset="0" stop-color="#a93aff"/><stop offset="1" stop-color="#ff81ff"/></linearGradient><linearGradient id="f" x1="48.01" x2="99.2" y1="63.94" y2="63.94" gradientUnits="userSpaceOnUse"><stop offset="0" stop-color="#a93aff"/><stop offset="1" stop-color="#ff81ff"/></linearGradient></defs><path fill="url(#a)" stroke="url(#a)" stroke-width="6" d="m45.99 101.6-.004-.001a45.9 45.9 0 0 1-17.79-25.56c-.247-.92.07-1.882.691-2.603a14.37 14.37 0 0 0 3.477-9.385c0-3.59-1.313-6.874-3.486-9.394-.623-.723-.939-1.688-.69-2.609a46.2 46.2 0 0 1 4.59-11.03 45.9 45.9 0 0 1 10.88-12.76c1.222-.99 3.012-.594 3.798.766l3.15 5.456c.673 1.164.366 2.638-.647 3.521a34.564 34.564 0 0 0-8.242 41.42 34.6 34.6 0 0 0 8.242 10.68c1.013.883 1.32 2.356.648 3.52l-4.609 7.99-.005.002zm8.947-76.89c-.786-1.361-.232-3.11 1.235-3.672a46.1 46.1 0 0 1 28.33-1.514c.923.245 1.601 1.002 1.915 1.905a14.38 14.38 0 0 0 16.269 9.394c.938-.179 1.933.03 2.607.706a46.1 46.1 0 0 1 12.86 25.29c.247 1.552-.991 2.907-2.563 2.907h-6.305c-1.345 0-2.467-1.004-2.725-2.324a34.49 34.49 0 0 0-16.63-23.27 34.5 34.5 0 0 0-28.47-2.768c-1.272.437-2.702-.034-3.375-1.198l-3.15-5.454zm41.42-1.884a8.64 8.64 0 0 1-4.066-5.244A8.63 8.63 0 0 1 98.418 6.97a8.636 8.636 0 1 1-2.062 15.856zm-71.09 41.22a8.636 8.636 0 1 1-17.272 0 8.636 8.636 0 0 1 17.272 0z" transform="translate(-2.027 -1.978)scale(.5393)"/><path fill="url(#b)" d="M74.77 97.51a33.5 33.5 0 0 1-12.98-1.748c-1.684-.577-3.632.031-4.564 1.645l-4.601 7.967q-.09.145-.127.314c-.1.46.135.926.561 1.122a46.95 46.95 0 0 0 31.72 2.695c1.312-.351 2.2-1.402 2.597-2.539a13.35 13.35 0 0 1 5.943-7.172l.002-.001a13.366 13.366 0 0 1 9.188-1.56c1.186.225 2.544-.02 3.504-.985a47 47 0 0 0 7.408-9.691 46.9 46.9 0 0 0 5.737-16.15c.35-2.203-1.41-4.063-3.55-4.063h-6.302c-1.863 0-3.365 1.382-3.707 3.129a33.5 33.5 0 0 1-4.977 12.11A33.545 33.545 0 0 1 74.782 97.5z" opacity=".4" transform="translate(-2.027 -1.978)scale(.5393)"/><path fill="url(#e)" d="M95.85 104.4a9.6 9.6 0 0 1 3.568-1.234za9.64 9.64 0 0 0-4.442 5.849v.001a9.637 9.637 0 0 0 16.93 8.366h.002a9.65 9.65 0 0 0 1.939-7.146 9.652 9.652 0 0 0-3.701-6.412 9.7 9.7 0 0 0-3.39-1.661h-.001M95.85 104.4l7.337-1.003zm7.337-1.003a9.6 9.6 0 0 0-3.768-.231z" opacity=".4" transform="translate(-2.027 -1.978)scale(.5393)"/><path fill="url(#f)" fill-rule="evenodd" d="M89.35 47.3c.033-5.424-6.78-9.204-11.47-6.279-5.353 2.674-5.029 11.22.557 13.46 4.907 2.651 11.43-1.776 10.92-7.178zm-22.34 5.096c1.784-5.688-4.739-11.41-10.28-8.942-5.108 1.753-6.513 9.062-2.476 12.57 3.892 3.901 11.69 1.852 12.76-3.627zm4.036 7.221c3.245-1.731 7.371 1.742 6.122 5.15-.769 3.649-6.601 4.241-8.095.822-1.26-2.071-.19-4.953 1.973-5.972m27.98 8.525c1.338-5.819-5.732-11.02-11.03-8.076-4.784 2.148-5.732 9.216-1.639 12.48 4.159 3.989 11.94 1.238 12.67-4.405zm-45.55-3.846c5.073-1.677 10.67 3.068 9.801 8.24-.513 5.424-7.672 8.712-12.08 5.238-5.241-3.254-3.747-12.05 2.275-13.48zm29.8 17.01c-.045-5.238-6.423-8.953-11.11-6.411-5.341 2.323-5.698 10.49-.602 13.28 4.918 3.375 12.29-1.085 11.71-6.87z" clip-rule="evenodd" transform="translate(-2.027 -1.978)scale(.5393)"/></svg>