<svg xmlns="http://www.w3.org/2000/svg" style="isolation:isolate" viewBox="0 0 64 64"><g transform="translate(-1.395 -1.383)scale(1.39124)"><linearGradient id="a" x1=".5" x2="1" y1="1" y2=".5" gradientTransform="matrix(46 0 0 46 1 1)" gradientUnits="userSpaceOnUse"><stop offset="0" stop-color="#00f1fa"/><stop offset="1" stop-color="#006cff"/></linearGradient><path fill="url(#a)" fill-rule="evenodd" d="M24 1c-4.29 0-8.499 1.2-12.15 3.47l-.12.075.23-1.156a2 2 0 0 0-3.92-.78l-.938 4.668c-.217 1.082.439 2.294 1.463 2.704l4.693 1.876a2.001 2.001 0 0 0 1.481-3.72l-.734-.292A18.9 18.9 0 0 1 24 4.997c3.22 0 6.38.81 9.19 2.37a2.001 2.001 0 0 0 1.94-3.5A23.06 23.06 0 0 0 23.997.997zm0 11c-3.18 0-6.24 1.27-8.49 3.51C13.27 17.76 12 20.82 12 24s1.27 6.24 3.51 8.49C17.76 34.73 20.82 36 24 36s6.24-1.27 8.49-3.51C34.73 30.24 36 27.18 36 24s-1.27-6.24-3.51-8.49A12.05 12.05 0 0 0 24 12M4.45 14.228a2 2 0 0 0-1.818 1.263A22.9 22.9 0 0 0 1.003 24c0 3.83.949 7.6 2.779 10.96a1.998 1.998 0 1 0 3.51-1.91A19.06 19.06 0 0 1 5.003 24c0-2.41.45-4.8 1.35-7.03a2.003 2.003 0 0 0-1.902-2.742zm39.13.438q-.297.015-.589.125a1.997 1.997 0 0 0-1.175 2.568 19.06 19.06 0 0 1-.87 15.25 2 2 0 0 0 3.561 1.82 22.9 22.9 0 0 0 2.5-10.43c0-2.74-.49-5.46-1.44-8.03a2.01 2.01 0 0 0-1.987-1.304zM24.01 16c2.12 0 4.16.84 5.66 2.339s2.339 3.54 2.339 5.66-.84 4.16-2.339 5.66-3.54 2.339-5.66 2.339-4.16-.84-5.66-2.339-2.339-3.54-2.339-5.66.84-4.16 2.339-5.66S21.89 16 24.01 16m9.766 24.6a2 2 0 0 0-.957.224 18.9 18.9 0 0 1-8.81 2.171c-2.96 0-5.88-.69-8.52-2.02-.988-.497-2.194-.099-2.69.89s-.098 2.193.89 2.69a23 23 0 0 0 10.32 2.44c3.72 0 7.38-.9 10.67-2.62a2 2 0 0 0 .84-2.7 2.01 2.01 0 0 0-1.744-1.075z"/></g></svg>