<svg version="1.1" viewBox="0 0 64 64" xmlns="http://www.w3.org/2000/svg">
 <defs>
  <linearGradient id="c" x2="0" y1="1">
   <stop stop-color="#ff00d2" offset="0"/>
   <stop stop-color="#b800ff" offset="1"/>
  </linearGradient>
  <linearGradient id="a" x2="0" y1="1">
   <stop stop-color="#00f0ff" offset="0"/>
   <stop stop-color="#0070e0" offset="1"/>
  </linearGradient>
 </defs>
 <path transform="translate(.000256 .00024) scale(1) translate(-.002 .002)" d="M56.43 16.81a8 8 0 0 0-.715.049 7.42 7.42 0 0 0-4.975 2.752v.002l-18.75 23.65-18.74-23.65-.002-.002c-2.539-3.197-7.246-3.744-10.44-1.203-3.202 2.536-3.746 7.243-1.207 10.44l24.54 30.95a7.42 7.42 0 0 0 5.854 2.812 7.43 7.43 0 0 0 5.856-2.812l24.54-30.95h-.002c2.538-3.2 1.995-7.906-1.207-10.44a7.4 7.4 0 0 0-4.756-1.598z" fill="url(#a)"/>
 <path transform="translate(.000256 .00024) scale(1) translate(-.002 .002)" d="M18.6 1.373a5.94 5.94 0 0 0-3.822 1.283c-2.569 2.035-3.006 5.82-.967 8.389l13.49 17.02a5.98 5.98 0 0 0 4.703 2.26 5.99 5.99 0 0 0 4.705-2.26l13.48-17.02h.002c2.038-2.566 1.6-6.353-.969-8.387h-.002c-2.569-2.038-6.35-1.595-8.387.969l-8.836 11.15-8.83-11.15-.002-.002A5.96 5.96 0 0 0 18.6 1.377z" fill="url(#c)"/>
</svg>
