<svg version="1.1" viewBox="0 0 64 64" xmlns="http://www.w3.org/2000/svg">
 <defs>
  <linearGradient id="b" x1="43.28" x2="77.07" y1="16.89" y2="16.89" gradientTransform="matrix(.3555 0 0 .5248 18.19 26.19)" gradientUnits="userSpaceOnUse">
   <stop stop-color="#e374ab" offset="0"/>
   <stop stop-color="#fea75f" offset="1"/>
  </linearGradient>
  <linearGradient id="d" x1="59.78" x2="47.69" y1="16.92" y2="29" gradientTransform="matrix(.4322 0 0 .4317 18.19 26.19)" gradientUnits="userSpaceOnUse">
   <stop offset="0"/>
   <stop stop-opacity="0" offset="1"/>
  </linearGradient>
  <linearGradient id="a" x1="-87.82" x2="-61.17" y1="46.84" y2="8.207" gradientTransform="matrix(.9415 0 0 1.062 92.37 -4.993)" gradientUnits="userSpaceOnUse">
   <stop stop-color="#ff6540" offset="0"/>
   <stop stop-color="#ff00f0" offset=".5"/>
   <stop stop-color="#5f26ff" offset="1"/>
  </linearGradient>
 </defs>
 <path transform="translate(.00219 .000436) scale(1) translate(-.00097) scale(.9997) matrix(1.455 0 0 1.455 -2.911 -2.91)" d="m17 2c-2.76 0-5 2.242-5 5.002v5.098a5.005 5.005 0 0 0-4 4.9v9a2.002 2.002 0 0 0 4.002 0v-6.999c0-1.656 1.344-3 3-3h18c1.656 0 3 1.344 3 3v0.9987a2.001 2.001 0 0 0 4 0v-3a5.006 5.006 0 0 0-3.999-4.9v-5.098c0-2.76-2.24-5.002-5-5.002h-14zm1 4h12a2 2 0 0 1 2 2v4h-16v-4a2 2 0 0 1 2-2zm2.499 1v3.999h2v-3.999h-2zm5 0v3.999h2v-3.999h-2zm12.5 17a2 2 0 1 0 0 4 2 2 0 0 0 0-4zm-28 6a2.002 2.002 0 0 0 0 4.003 2.002 2.002 0 0 0 0-4.003zm28 0a2 2 0 0 0-2 2v7c0 1.656-1.344 2.999-3 2.999h-18c-1.656 0-3-1.343-3-2.999v-1a2 2 0 0 0-4 0v2.999a5.004 5.004 0 0 0 5 5.002h22a5.004 5.004 0 0 0 5.002-5.002v-8.999c0-1.104-0.8974-2-2.001-2z" fill="url(#a)" stroke-width=".6872"/>
 <path transform="translate(.00219 .000436) scale(1) translate(-.00097) scale(.9997)" d="m36.71 26.19-3.133 3.13 5.745 5.736-5.745 5.736 3.133 3.13 8.879-8.87z" fill="url(#b)" stroke-width=".8472"/>
 <path transform="translate(.00219 .000436) scale(1) translate(-.00097) scale(.9997)" d="m25.06 26.71c-0.8549 0-1.542 0.6888-1.542 1.543v0.1745c0 0.8558 0.688 1.543 1.542 1.543h0.1779c0.8549 0 1.542-0.6888 1.542-1.542v-0.1754c0-0.8549-0.688-1.542-1.542-1.542z" fill="#fa8865" stroke-width=".8473"/>
 <path transform="translate(.00219 .000436) scale(1) translate(-.00097) scale(.9997)" d="m20.65 36.88a2.216 2.216 0 0 0-2.221 2.222v0.2516a2.216 2.216 0 0 0 2.221 2.221h0.2567a2.216 2.216 0 0 0 2.222-2.221v-0.2516a2.216 2.216 0 0 0-2.222-2.222z" fill="#63c605" stroke-width=".8473"/>
 <path transform="translate(.00219 .000436) scale(1) translate(-.00097) scale(.9997)" d="m28.42 47.05a3.203 3.203 0 0 0-3.21 3.21v0.3626a3.203 3.203 0 0 0 3.21 3.209h0.3703a3.203 3.203 0 0 0 3.208-3.209v-0.3635a3.203 3.203 0 0 0-3.208-3.21z" fill="#1b89f3" stroke-width=".8473"/>
 <path transform="translate(.00219 .000436) scale(1) translate(-.00097) scale(.9997)" d="m39.32 35.06-3.656 3.651 3.133 3.129 3.655-3.651z" fill="url(#d)" fill-rule="evenodd" opacity=".9" stroke-width=".8472"/>
</svg>
