<svg xmlns="http://www.w3.org/2000/svg" fill="none" viewBox="0 0 64 64"><defs><linearGradient id="a" x1="43" x2="84.38" y1="120" y2="48.15" gradientTransform="translate(-22.47 -34.43)scale(1.349)" gradientUnits="userSpaceOnUse"><stop offset="0" stop-color="#00f1fa"/><stop offset="1" stop-color="#006cff"/></linearGradient></defs><path fill="url(#a)" d="M63.82 1.81c-1.048-1.747-3.58-1.747-4.629 0l-11.41 19.01a1.35 1.35 0 0 0 1.157 2.044h6.232a1.35 1.35 0 0 1 1.349 1.349v58.76c-3.891-1.639-7.922-2.262-11.68-2.805-4.36-.623-8.331-1.246-10.43-2.337-2.093-1.086-2.8-1.614-2.8-5.137v-11.36c2.98-1.734 4.983-4.883 4.983-8.565a9.96 9.96 0 0 0-9.965-9.965 9.964 9.964 0 0 0-9.965 9.965c0 3.677 2.003 6.831 4.983 8.565v11.36c0 6.442 3.657 11.52 8.097 13.86 4.434 2.337 9.188 2.96 13.55 3.582 4.36.623 8.331 1.246 10.43 2.337 2.098 1.086 2.8 1.614 2.8 5.137v.932c-5.78 2.068-9.965 7.533-9.965 14.02a14.95 14.95 0 0 0 25.518 10.57 14.95 14.95 0 0 0 4.378-10.57c0-6.477-4.185-11.95-9.965-14.02q.059-.467 0-.932v-9.188c.02-.25.02-.523 0-.777 0-3.328.952-4.3 3.737-5.92 2.785-1.613 7.474-2.954 12.46-4.2 4.983-1.245 10.26-2.391 14.95-5.141 4.689-2.74 8.72-7.997 8.72-14.63V50.28c0-1.376 1.115-2.491 2.491-2.491s2.491-1.116 2.491-2.491v-14.74a2.7 2.7 0 0 0-2.699-2.7h-14.53a2.7 2.7 0 0 0-2.699 2.7v14.74c0 1.376 1.116 2.49 2.491 2.49s2.491 1.116 2.491 2.492v7.474c0 3.328-.952 4.3-3.737 5.919-2.785 1.614-7.474 2.955-12.46 4.2-4.554 1.13-9.342 2.257-13.7 4.519v-48.17c0-.745.604-1.35 1.349-1.35h6.232a1.35 1.35 0 0 0 1.157-2.043z" transform="translate(-.25 -.252)scale(.50401)"/></svg>