<svg xmlns="http://www.w3.org/2000/svg" viewBox="0 0 64 64"><defs><linearGradient id="a" x2="0" y2="1"><stop offset="0" stop-color="#de87cd"/><stop offset="1" stop-color="#fd5"/></linearGradient><linearGradient id="b" x1="22.34" x2="7.883" y1="15.98" y2="1.524" gradientTransform="matrix(.8976 0 0 1.55 18.44 13.11)" gradientUnits="userSpaceOnUse"><stop offset="0" stop-color="#00b2ff"/><stop offset="1" stop-color="#66fff6"/></linearGradient></defs><path fill="url(#a)" d="M12.14 48.06c-1.701-.423-1.854-3.066-.214-3.693.312-.12.541-.14 1.926-.183 2.64-.08 3.494-.534 5.086-2.698.582-.79.591-.641-.074-1.22-4.59-4-5.997-6.816-4.277-8.568l.555-.565v-.95c0-5.134 2.732-8.527 8.202-10.19 1.503-.455 1.565-.401 1.685 1.448l.074 1.134.792.176c4.448.987 6.297 3.228 6.297 7.634v.667l.584.603c1.665 1.721.721 3.827-3.661 8.17l-1.032 1.021.36.526c1.426 2.078 2.623 2.72 5.226 2.806 2.318.076 2.895.472 2.894 1.984 0 1.592-.72 2.014-3.278 1.926-2.606-.09-3.699-.644-6.116-3.098-1.802-1.83-1.699-1.774-3.356-1.806-1.76-.034-1.575-.123-3.244 1.57-1.866 1.893-2.804 2.556-4.298 3.035-.922.296-3.377.454-4.132.266zm12.65-8.831c1.314-.634 5.579-5.171 5.579-5.935 0-.202-.182-.37-.773-.716-.503-.295-.485-.223-.487-1.912 0-3.338-.778-4.301-4.172-5.2-.506-.135-.545-.195-.545-.852 0-.495.036-.475-.598-.341-3.697.78-4.908 2.283-4.982 6.178l-.035 1.838-.736.286c-1.14.444-1.233.6-.805 1.35.484.847 4.04 4.463 5.067 5.15.81.543 1.583.59 2.487.154" transform="translate(-21.38 -44.549)scale(2.255)"/><path fill="url(#b)" d="M33.77 15.47a4.723 4.723 0 0 0-4.718 4.718c0 .924.275 1.777.735 2.506-2 .39-3.307 1.472-3.473 1.622a2.355 2.355 0 0 0 1.283 4.109l-.652 1.302c-.953 1.899-1.06 3.808-.302 5.37.666 1.373 1.913 2.305 3.506 2.628.487.1.986.15 1.479.15 2.793 0 4.678-1.59 4.884-1.772a2.354 2.354 0 0 0-1.286-4.107l.652-1.302c.953-1.9 1.059-3.808.3-5.37a4.7 4.7 0 0 0-.523-.818 4.72 4.72 0 0 0 2.832-4.319 4.723 4.723 0 0 0-4.718-4.718m0 2.36a2.359 2.359 0 1 1-.002 4.717 2.359 2.359 0 0 1 .002-4.718m-2.576 7.074c.32 0 .66.031 1.008.104 1.934.394 2.746 2.28 1.566 4.631l-1.179 2.352c-.59 1.177-.557 1.925.125 2.4.214.149.512.198.817.198.68 0 1.415-.25 1.415-.25s-1.34 1.181-3.32 1.181a5 5 0 0 1-1.007-.104c-1.937-.394-2.746-2.279-1.566-4.63l1.18-2.355c.59-1.175.554-1.923-.128-2.4-.212-.147-.507-.198-.813-.198-.68 0-1.415.254-1.415.254s1.336-1.182 3.315-1.182z" transform="translate(.005 -.007)"/></svg>