<svg version="1.1" viewBox="0 0 64 64" xmlns="http://www.w3.org/2000/svg">
 <defs>
  <linearGradient id="e" x1="1.761" x2="45.46" y1="-37.26" y2="-46.38" gradientTransform="matrix(.4627 0 0 .4627 13.21 43.42)" gradientUnits="userSpaceOnUse">
   <stop stop-color="#fe7a19" offset="0"/>
   <stop stop-color="#e94800" offset="1"/>
  </linearGradient>
  <linearGradient id="d" x1="22.14" x2="11.97" y1="-60.12" y2="-49.95" gradientTransform="matrix(.4627 0 0 .4627 13.21 43.42)" gradientUnits="userSpaceOnUse">
   <stop stop-color="#fbd140" offset="0"/>
   <stop stop-color="#fd9a03" offset="1"/>
  </linearGradient>
  <linearGradient id="c" x1="35.42" x2="27.83" y1="-33.29" y2="-23.29" gradientTransform="matrix(.4627 0 0 .4627 13.21 43.42)" gradientUnits="userSpaceOnUse">
   <stop stop-color="#f37429" offset="0"/>
   <stop stop-color="#fbd140" offset="1"/>
  </linearGradient>
  <linearGradient id="b" y2="1">
   <stop stop-color="#0038fc" offset="0"/>
   <stop stop-color="#da00ff" offset="1"/>
  </linearGradient>
  <linearGradient id="a" x1="1" x2="0" y2="1">
   <stop stop-color="#00ff7f" offset="0"/>
   <stop stop-color="#5fff00" offset="1"/>
  </linearGradient>
 </defs>
 <path transform="translate(0) scale(1) matrix(1.325 0 0 1.325 .1988 .1787)" d="m13.72 22.42v2e-3c-0.368-0.019-0.7597 5e-4 -1.178 0.0625-4.302 0.63-4.655 5.31-7.158 8.828 2.909 7.441 10.12 12.69 18.61 12.69 6.59 0 12.4-3.17 16.04-8.061-7.483-9.356-9.805 1.271-16.04-1.725-4.474-2.751-4.754-11.52-10.28-11.8z" fill="url(#b)" fill-rule="evenodd" stroke-width=".326"/>
 <path transform="translate(0) scale(1) matrix(1.325 0 0 1.325 .1988 .1787)" d="m23.99-0.1348c-13.34 0-24.14 10.8-24.14 24.14v0.0044c0 13.34 10.8 24.14 24.14 24.14h0.0044c13.34 0 24.14-10.8 24.14-24.14v-0.0044c2.4e-4 -13.34-10.8-24.14-24.14-24.14zm0 4.18h0.0044c11.1 0 19.96 8.861 19.96 19.96v0.0044c0 4.344-1.358 8.345-3.675 11.61-0.09191-0.3133-0.2791-0.6183-0.557-0.8208-1.6-1.846-3.867-3.722-6.491-3.205-2.65 0.4522-4.68 2.979-7.502 2.651-2.354-0.2719-3.643-2.546-4.68-4.416-1.435-2.553-2.403-5.681-5.057-7.262-0.6994-0.3916-1.492-0.6135-2.293-0.6425-2.225-0.1628-4.368 1.098-5.468 3.01-1.164 1.856-1.841 3.981-3.059 5.806-0.7406-2.098-1.142-4.362-1.142-6.727v-0.0044c0-11.1 8.861-19.96 19.96-19.96zm-10.57 19.84c1.299 0.0186 2.582 0.5457 3.408 1.605 2.626 3.051 3.251 7.565 6.669 9.976 1.908 1.228 4.41 0.8517 6.277-0.2711 1.693-0.9167 3.601-2.247 5.613-1.509 1.593 0.5759 2.806 1.835 3.886 3.09 0.03039 0.01166 0.06083 0.02174 0.08989 0.03094-3.649 4.386-9.158 7.158-15.37 7.158h-0.0044c-8.194 0-15.17-4.829-18.26-11.82 0.2748-0.05174 0.5556-0.251 0.7338-0.6233 1.389-2.236 1.976-5.049 4.095-6.766 0.8242-0.5893 1.844-0.8824 2.854-0.8679z" fill="url(#a)"/>
 <path transform="translate(0) scale(1) matrix(1.325 0 0 1.325 .1988 .1787)" d="m17.76 18.9-4.161 5.703 0.0019 0.0037a1.772 1.772 0 0 0-0.3697 1.076 1.771 1.771 0 0 0 1.771 1.77h14.77a1.388 1.388 0 0 1 0.06801 0.03701 1.388 1.388 0 0 1 0.1587 0.1203 1.388 1.388 0 0 1 0.1411 0.1397 1.388 1.388 0 0 1 0.1194 0.1601 1.388 1.388 0 0 1 0.09484 0.1744 1.388 1.388 0 0 1 0.07032 0.1869 1.388 1.388 0 0 1 0.04256 0.1943l9.26e-4 0.0093 0.0018 0.0093 9.25e-4 0.0093 9.26e-4 0.0093 9.25e-4 0.01018 9.25e-4 0.0093 9.26e-4 0.0093 9.25e-4 0.0093 9.25e-4 0.01018 9.26e-4 0.0093 9.25e-4 0.0093v0.0097l9.25e-4 0.0097v0.0093l9.26e-4 0.01018v0.01943l9.25e-4 0.0093v0.05691l-9.25e-4 0.0273-0.0038 0.05552-0.0056 0.05366-0.0032 0.0273-0.0037 0.02683-0.0046 0.0273-0.0056 0.0273-0.0051 0.02683-0.0065 0.02637-0.0065 0.02684-0.0069 0.02637-0.0083 0.02637-0.0083 0.02591-0.0079 0.02637-0.01018 0.02637-0.0093 0.02498-0.01064 0.02545a1.388 1.388 0 0 1-0.08929 0.1679l1.412-1.914 2.742-3.715-0.0019-0.0032a1.772 1.772 0 0 0 0.3287-1.025 1.771 1.771 0 0 0-1.77-1.77h-14.77a1.388 1.388 0 0 1-0.3345-0.2235 1.388 1.388 0 0 1-0.3007-0.4506 1.388 1.388 0 0 1-0.1059-0.5321 1.388 1.388 0 0 1 0.1059-0.5311 1.388 1.388 0 0 1 0.1744-0.3049z" fill="url(#e)" stroke-width=".4627"/>
 <path transform="translate(0) scale(1) matrix(1.325 0 0 1.325 .1988 .1787)" d="m25.87 8.693a1.101 1.101 0 0 0-0.8929 0.4608l-0.0028-9.253e-4 -7.199 9.734a1.388 1.388 0 0 0-0.1851 0.3192 1.388 1.388 0 0 0-0.1059 0.5307 1.388 1.388 0 0 0 0.1059 0.5321 1.388 1.388 0 0 0 0.3007 0.4511 1.388 1.388 0 0 0 0.3345 0.2235h6.422l2.305-10.94-0.0019-0.0014a1.11 1.11 0 0 0 0.02174-0.2082 1.101 1.101 0 0 0-1.103-1.102zm-7.231 9.679-0.06338 0.01157zm-0.5043 0.1952-0.05552 0.03609zm2.131 1.24-0.0028 0.04071zm-0.217 0.6741-0.03609 0.05506z" fill="url(#d)" stroke-width=".4627"/>
 <path transform="translate(0) scale(1) matrix(1.325 0 0 1.325 .1988 .1787)" d="m23.36 27.46-2.174 10.56 0.0019 9.25e-4a1.11 1.11 0 0 0-0.01897 0.1906 1.101 1.101 0 0 0 1.103 1.102 1.101 1.101 0 0 0 0.9327-0.5149l6.866-9.142 9.25e-4 -9.26e-4 0.1032-0.1374 0.01342-0.01804 0.02174-0.02868 0.0731-0.09947a1.388 1.388 0 0 0 0.08929-0.1679l0.0111-0.02545 0.0093-0.02545 0.0093-0.02591 0.0166-0.05274 0.0083-0.02591 0.0069-0.02637 0.0065-0.0273 0.0065-0.02591 0.0051-0.0273 0.0056-0.02683 0.0046-0.0273 0.0037-0.0273 0.0032-0.02683 0.0028-0.0273 0.0028-0.02683 0.0019-0.0273 0.0019-0.02776 9.25e-4 -0.02776v-0.05691l-9.25e-4 -0.0093v-0.01943l-9.25e-4 -0.0097v-0.0093l-9.26e-4 -0.01018v-0.0093l-9.25e-4 -0.0097-9.25e-4 -0.0093-9.26e-4 -0.0097-9.25e-4 -0.0093-9.25e-4 -0.0097-9.26e-4 -0.0093-9.25e-4 -0.0097-9.25e-4 -0.0093-9.25e-4 -0.0097-0.0019-0.0093-9.25e-4 -0.0093a1.388 1.388 0 0 0-0.04256-0.1943 1.388 1.388 0 0 0-0.07032-0.1865 1.388 1.388 0 0 0-0.09484-0.1744 1.388 1.388 0 0 0-0.1194-0.1601 1.388 1.388 0 0 0-0.1411-0.1402 1.388 1.388 0 0 0-0.1587-0.1203 1.388 1.388 0 0 0-0.06801-0.03701h-1.34z" fill="url(#c)" stroke-width=".4627"/>
</svg>
