<svg xmlns="http://www.w3.org/2000/svg" style="isolation:isolate" viewBox="0 0 64 64"><linearGradient id="a" x1="0" x2="1" y1=".5" y2=".5" gradientTransform="matrix(44 0 0 44 2 2)" gradientUnits="userSpaceOnUse" transform="translate(-2.909 -2.909)scale(1.455)"><stop offset="0" stop-color="#00c6ff"/><stop offset=".987" stop-color="#0072ff"/></linearGradient><path fill="url(#a)" d="M6 11.85a2 2 0 0 1-4 0V9c0-3.863 3.137-7 7-7h30c3.863 0 7 3.137 7 7v16.41c0 2.76-2.24 5-5 5h-5.4l-4.71-10.12-4.69 9-4.15-10.04-7.55 16.73-4.02-13.37H8a2 2 0 0 0-2 2V37c0 2.76 2.24 5 5 5h26c2.76 0 5-2.24 5-5v-1.83a2 2 0 0 1 4 0V39c0 3.863-3.137 7-7 7H9c-3.863 0-7-3.137-7-7V23.61c0-2.76 2.24-5 5-5h6.52l1.98 7.09 6.45-15.43 4.85 9.46 4.31-10.5 7.29 17.18H40a2 2 0 0 0 2-2V11c0-2.76-2.24-5-5-5H11c-2.76 0-5 2.24-5 5z" transform="translate(-2.909 -2.909)scale(1.455)"/></svg>