<svg xmlns="http://www.w3.org/2000/svg" viewBox="0 0 64 64"><defs><linearGradient id="a" y1=".5" y2=".5"><stop offset="0" stop-color="#ffbef9"/><stop offset="1" stop-color="#fff1ff"/></linearGradient></defs><path fill="url(#a)" d="M22.44 17.98c-.45 0-.924.016-1.434.016-2.571-.054-5.144.032-7.715 0-1.782-.014-1.371 2.17-.855 3.09 5.704 10.16 12.44 21.55 18.73 32.27 1.207 1.78 2.48-.638 3.156-1.672 1.71-2.614 3.117-5.354 4.561-8.094.61-1.842-1.096-3.26-1.703-4.82-3.706-6.581-7.602-13.04-11.39-19.56-.905-1.086-2.002-1.228-3.352-1.23zm18.64.016c-1.918 0-.7 2.16-.7 2.16s2.876 5.45 4.532 8.434 2.55.415 2.965-.41c1.492-2.973 2.79-6.069 3.836-8.126s-1.133-2.059-1.133-2.059z" transform="translate(-19.187 -25.57)scale(1.59984)"/></svg>