<svg xmlns="http://www.w3.org/2000/svg" viewBox="0 0 64 64"><defs><linearGradient id="a" x1="1" x2="0" y2="1"><stop offset="0" stop-color="#d300dc"/><stop offset="1" stop-color="#8219ff"/></linearGradient></defs><path fill="url(#a)" d="M32.1 0a31.27 31.27 0 0 0-22.07 9.143 31.28 31.28 0 0 0-9.143 22.07c0 5.507 1.458 10.92 4.228 15.69l.27.463-4.623 13.36c-.868 2.505.47 3.854 2.982 3.01l13.88-4.662.742.375a31.1 31.1 0 0 0 17.628 3.09c1.594-.192 2.736-1.646 2.547-3.244s-1.637-2.735-3.23-2.543a26 26 0 0 1-3.004.174c-3.922 0-7.8-.92-11.31-2.684l-3.676-1.31-2.072.361-6.26 1.502 1.662-5.027 1.297-3.312-1.297-2.77a24.73 24.73 0 0 1-3.361-12.47c0-6.578 2.609-12.88 7.268-17.54a24.8 24.8 0 0 1 17.54-7.266c6.179 0 12.13 2.304 16.71 6.465a3.19 3.19 0 0 0 4.514-.199 3.2 3.2 0 0 0-.207-4.522A31.22 31.22 0 0 0 32.095.006zm26.82 18.56a2.911 2.911 0 0 0-2.828 3.914 26 26 0 0 1 1.56 8.867 25.67 25.67 0 0 1-10.98 21.08c-1.328.926-1.656 2.75-.734 4.068s2.74 1.638 4.06.713a31.5 31.5 0 0 0 13.49-25.86c0-3.703-.644-7.391-1.912-10.86a2.93 2.93 0 0 0-2.652-1.918z" transform="translate(.001)"/><path fill="url(#a)" d="M34.85 15.41c-.729 0-1.333.582-1.34 1.287-.004.709.6 1.305 1.334 1.309 3.167.024 5.771 1.024 7.871 2.998 2.075 1.956 3.156 4.665 3.184 8.201v.002c.008.703.613 1.285 1.344 1.285l.016-.004c.732-.007 1.34-.597 1.334-1.305v-.002c-.018-2.06-.353-3.956-1.008-5.623a12.15 12.15 0 0 0-2.986-4.416C42 16.7 38.682 15.436 34.863 15.41zm-13.99 3.018a2.9 2.9 0 0 0-1.227.305h-.045l-.06.035q-1.536.873-2.885 2.342l-.07.076v.072c-.623.776-1.035 1.556-1.13 2.338-.03.133-.03.253-.03.381 0 .356.053.718.163 1.072l.03.1.062.035c.355 1.219 1.162 3.116 2.926 6.328 1.175 2.129 2.374 3.906 3.566 5.404.628.787 1.34 1.608 2.166 2.434.01.01.044.046.082.08.013.013.03.039.076.084l.082.084h.006l.053.055.015.017.016.016c.826.817 1.64 1.532 2.436 2.156 1.496 1.192 3.274 2.4 5.402 3.578 3.216 1.774 5.129 2.576 6.342 2.926l.045.053.072.027c.344.114.701.167 1.055.162.144.008.272-.002.393-.03.83-.096 1.652-.49 2.465-1.173l.01-.012.007-.006.008-.008h.002v-.004l.002-.002.016-.017.004-.004c.962-.879 1.74-1.834 2.324-2.857l.037-.065v-.06c.537-1.118.325-2.261-.547-2.988-.022-.019-.441-.37-.961-.793a46 46 0 0 0-1.588-1.254c-.806-.596-2.05-1.367-2.76-1.762h-.004c-1.366-.76-2.79-.317-3.418.494L34.9 39.424c-.443.558-1.328.505-1.352.504-7.453-1.917-9.457-9.412-9.47-9.465-.002-.024-.056-.911.503-1.361l1.369-1.096c.813-.623 1.271-2.047.504-3.414-.4-.707-1.174-1.96-1.762-2.76h-.004a53 53 0 0 0-1.254-1.592c-.216-.267-.413-.51-.557-.684q-.108-.131-.172-.205l-.048-.056-.016-.018a2.32 2.32 0 0 0-1.396-.816l.004-.002a2.3 2.3 0 0 0-.39-.032zm13.94 3.016c-.663.02-1.234.534-1.283 1.184-.052.694.509 1.313 1.227 1.363 1.775.126 2.973.648 3.873 1.6v.004c.919.97 1.338 2.076 1.303 3.59v.006c-.016.696.567 1.288 1.289 1.303h.033c.711 0 1.304-.563 1.32-1.25.045-2.08-.631-3.936-1.998-5.375-1.372-1.446-3.313-2.257-5.629-2.422h-.002a1 1 0 0 0-.133-.002z" transform="translate(.001)"/></svg>