<svg xmlns="http://www.w3.org/2000/svg" viewBox="0 0 64 64"><defs><linearGradient id="a" y1=".5" y2=".5"><stop offset="0" stop-color="#ff00d2"/><stop offset="1" stop-color="#b800ff"/></linearGradient><linearGradient id="c" y1=".5" y2=".5"><stop offset="0" stop-color="#01ff01"/><stop offset="1" stop-color="#1bc100"/></linearGradient></defs><path fill="url(#a)" d="M50.7 11.88c-.912.007-1.825.459-2.238 1.354l-.154.338v36.56l.17.379c.793 1.755 3.4 1.847 4.34.152l.214-.387.045-3.67h6.545l-.029 3.471c-.025 3.094-.042 3.515-.158 3.871-.454 1.39-1.384 2.312-2.668 2.654-.575.153-48.67.157-49.25.004-1.838-.49-2.776-1.766-2.856-3.894-.066-1.776-.166-1.856-2.37-1.856-1.927 0-2.288.188-2.288 1.182 0 4.938 3 8.672 7.43 9.246.95.124 48.81.092 49.53-.033 3.442-.6 6.172-3.198 6.912-6.576.13-.594.134-1.342.127-19.37l-.008-18.75-10.92-.037-.002-1.51c-.001-1.318-.02-1.544-.139-1.807-.403-.888-1.312-1.327-2.225-1.32zm2.365 9.143h6.506v8.287h-6.506v-4.143zm0 12.8h6.469v8.285h-6.469v-4.143z" transform="translate(-.003 .002)"/><path fill="url(#a)" d="M57.15 2.748c-1.095-.18-49.87-.131-50.64.05A8.43 8.43 0 0 0 .209 9.18l-.168.763v36.64l11.05.038v1.725c0 3.038 1.302 4.3 3.43 3.33.464-.212.934-.676 1.141-1.121l.156-.338.037-36.71-.185-.38c-.663-1.354-2.746-1.684-3.885-.614-.588.552-.648.766-.696 2.488l-.04 1.482-6.474.037.026-3.07.025-3.072.186-.483C5.304 8.618 6.086 7.81 7.187 7.44l.447-.152 24.44.002c25.93 0 24.76-.014 25.43.324 1.25.637 1.9 1.74 1.996 3.383.092 1.564.279 1.71 2.215 1.71 2.03 0 2.258-.186 2.258-1.835 0-4.28-2.65-7.436-6.814-8.119zM4.58 21.028h6.506v8.287H4.58v-4.143zm0 12.79h6.506l-.02 3.736c-.01 2.056.008 3.92.043 4.143l.063.404H4.58v-4.143z" transform="translate(-.003 .002)"/><path fill="url(#c)" d="m19.96 16.91.04.049c0 16.54 7.514 13.53 16.2 20.55a5.84 5.84 0 0 0-1.175 3.523 6.01 6.01 0 0 0 6.013 6.013 6.01 6.01 0 0 0 6.013-6.013c.052-2.205-1.429-3.843-2.87-5.08zm21.08 21.1a3.01 3.01 0 0 1 3.005 3.008 3.01 3.01 0 0 1-3.005 3.005 3.016 3.016 0 0 1-3.008-3.005 3.02 3.02 0 0 1 3.008-3.008" transform="translate(-.003 .002)"/><path fill="url(#c)" d="M44.04 16.96 19.82 36c-1.45 1.243-2.888 2.855-2.871 5.076a6.01 6.01 0 0 0 6.013 6.013 6.01 6.01 0 0 0 6.013-6.013c0-1.336-.438-2.521-1.174-3.523 8.686-7.015 16.2-4.011 16.2-20.55zM22.99 38.01a3.023 3.023 0 0 1 3.008 3.008c0 1.65-1.359 3.005-3.008 3.005s-3.005-1.356-3.005-3.005 1.356-3.008 3.005-3.008" transform="translate(-.003 .002)"/></svg>