<svg xmlns="http://www.w3.org/2000/svg" fill="none" viewBox="0 0 64 64"><defs><linearGradient id="a" x1="17.31" x2="5.028" y1="2.282" y2="8.187" gradientUnits="userSpaceOnUse"><stop offset="0" stop-color="#fe7970"/><stop offset="1" stop-color="#d92b1a"/></linearGradient><linearGradient id="b" x1="33.77" x2="23.48" y1="12.55" y2="24.53" gradientUnits="userSpaceOnUse"><stop offset="0" stop-color="#fe7970"/><stop offset="1" stop-color="#d92b1a"/></linearGradient><linearGradient id="c" x1="22.95" x2="17.81" y1="16.03" y2="20.6" gradientUnits="userSpaceOnUse"><stop offset="0" stop-color="#fe7970"/><stop offset="1" stop-color="#d92b1a"/></linearGradient><linearGradient id="d" x1="20.55" x2="16.54" y1="36.33" y2="40.16" gradientUnits="userSpaceOnUse"><stop offset="0" stop-color="#fe7970"/><stop offset="1" stop-color="#d92b1a"/></linearGradient><linearGradient id="e" x1="17.9" x2="17.9" y1="38.4" y2="20.8" gradientUnits="userSpaceOnUse"><stop offset="0" stop-color="#ff2424"/><stop offset="1" stop-color="#ff8d8d"/></linearGradient><linearGradient id="j" x1="35.5" x2="35.5" y1="19.7" y2="8.7" gradientUnits="userSpaceOnUse"><stop offset="0" stop-color="#ff2424"/><stop offset="1" stop-color="#ff8d8d"/></linearGradient><linearGradient id="l" x1="11.3" x2="11.3" y1="7.6" y2="1" gradientUnits="userSpaceOnUse"><stop offset="0" stop-color="#ff2424"/><stop offset="1" stop-color="#ff8d8d"/></linearGradient><linearGradient id="m" x1="22.3" x2="22.3" y1="18.6" y2="12" gradientUnits="userSpaceOnUse"><stop offset="0" stop-color="#ff2424"/><stop offset="1" stop-color="#ff8d8d"/></linearGradient><linearGradient id="n" x1="20.1" x2="20.1" y1="45" y2="40.6" gradientUnits="userSpaceOnUse"><stop offset="0" stop-color="#ff2424"/><stop offset="1" stop-color="#ff8d8d"/></linearGradient><linearGradient id="o" x1="32.2" x2="32.2" y1="39.5" y2="35.1" gradientUnits="userSpaceOnUse"><stop offset="0" stop-color="#ff2424"/><stop offset="1" stop-color="#ff8d8d"/></linearGradient><linearGradient id="p" x1="29.45" x2="29.45" y1="32.9" y2="29.6" gradientUnits="userSpaceOnUse"><stop offset="0" stop-color="#ff2424"/><stop offset="1" stop-color="#ff8d8d"/></linearGradient></defs><path fill="url(#a)" d="m13.6 6-3.654.96s2.087 3.806 2.88 7.204c1.23 5.274 1.2 9.582 1.2 9.582l3.87-1.846s-2.312-2.696-3.616-8.115C13.522 10.635 13.6 6 13.6 6z" opacity=".5" transform="translate(-3.636 -1.455)scale(1.455)"/><path fill="url(#b)" d="M30.98 15.01s-1.514 3.946-3.311 5.597c-1.752 1.609-5.707 3.332-5.707 3.332l3.042 2.805s1.072-2.71 3.271-4.562c2.091-1.76 6.428-3.346 6.428-3.346z" opacity=".5" transform="translate(-3.636 -1.455)scale(1.455)"/><path fill="url(#c)" d="M20.21 17.25s.497 1.144.11 2.458c-.362 1.227-1.853 2.852-1.853 2.852l3.164.527s-.298-1.613.083-2.824c.418-1.33 1.592-2.144 1.592-2.144l-3.096-.868z" opacity=".5" transform="translate(-3.636 -1.455)scale(1.455)"/><path fill="url(#d)" d="m20.69 37.27-3.88.385s1.789 1.114 1.974 2.21c.145.862.227 1.932.227 1.932l1.836-.453s-.545-.983-.852-1.711c-.463-1.097.695-2.362.695-2.362z" opacity=".5" transform="translate(-3.636 -1.455)scale(1.455)"/><path fill="url(#e)" d="M17.9 38.4a8.8 8.8 0 1 0 0-17.6 8.8 8.8 0 0 0 0 17.6" transform="translate(-3.636 -1.455)scale(1.455)"/><path fill="url(#j)" d="M35.5 19.7a5.5 5.5 0 1 0 0-11 5.5 5.5 0 1 0 0 11" transform="translate(-3.636 -1.455)scale(1.455)"/><path fill="url(#l)" d="M11.3 7.6a3.3 3.3 0 1 0 0-6.6 3.3 3.3 0 0 0 0 6.6" transform="translate(-3.636 -1.455)scale(1.455)"/><path fill="url(#m)" d="M22.3 18.6a3.3 3.3 0 1 0-.001-6.601A3.3 3.3 0 0 0 22.3 18.6" transform="translate(-3.636 -1.455)scale(1.455)"/><path fill="url(#n)" d="M20.1 45a2.2 2.2 0 1 0 0-4.4 2.2 2.2 0 0 0 0 4.4" transform="translate(-3.636 -1.455)scale(1.455)"/><path fill="url(#o)" d="M32.2 39.5a2.2 2.2 0 1 0 0-4.4 2.2 2.2 0 0 0 0 4.4" transform="translate(-3.636 -1.455)scale(1.455)"/><path fill="url(#p)" d="M29.45 32.9a1.65 1.65 0 1 0 0-3.3 1.65 1.65 0 0 0 0 3.3" transform="translate(-3.636 -1.455)scale(1.455)"/></svg>