<svg version="1.1" viewBox="0 0 64 64" xmlns="http://www.w3.org/2000/svg">
 <defs>
  <linearGradient id="a" y1=".5" y2=".5">
   <stop stop-color="#dc18fc" offset="0"/>
   <stop stop-color="#8e1eff" offset="1"/>
  </linearGradient>
 </defs>
 <path transform="translate(0) scale(1) translate(0) scale(1) translate(0) scale(1) translate(0) scale(1) translate(0) scale(1) translate(0) scale(1) translate(0) scale(1)" d="m32 0c-17.69 0-32 14.31-32 32s14.31 32 32 32 32-14.31 32-32-14.31-32-32-32zm0 4.637c15.19 0 27.36 12.16 27.36 27.36s-12.16 27.36-27.36 27.36-27.36-12.16-27.36-27.36 12.17-27.36 27.36-27.36z" fill="url(#a)"/>
 <path transform="translate(0) scale(1) translate(0) scale(1) translate(0) scale(1) translate(0) scale(1) translate(0) scale(1) translate(0) scale(1) translate(0) scale(1)" d="m32 12.35c-10.84 0-19.65 8.803-19.65 19.65s8.803 19.65 19.65 19.65 19.65-8.803 19.65-19.65-8.794-19.65-19.65-19.65zm0 4.215c8.584 0 15.43 6.847 15.43 15.43 0 8.585-6.843 15.43-15.43 15.43s-15.43-6.845-15.43-15.43 6.847-15.43 15.43-15.43z" fill="url(#a)"/>
 <path transform="translate(0) scale(1) translate(0) scale(1) translate(0) scale(1) translate(0) scale(1) translate(0) scale(1) translate(0) scale(1) translate(0) scale(1) translate(0) scale(1)" d="m32 17.84c-1.729 0-3.119 1.391-3.119 3.119v9.359c0 1.729 1.391 3.119 3.119 3.119s3.121-1.391 3.121-3.119v-9.359c0-1.729-1.392-3.119-3.121-3.119z" fill="#0ff"/>
 <path transform="translate(0) scale(1) translate(0) scale(1) translate(0) scale(1) translate(0) scale(1) translate(0) scale(1) translate(0) scale(1) translate(0) scale(1) translate(0) scale(1)" d="m32 6.367c-1.221-0.001189-2.228 1.003-2.228 2.225 2.98e-4 1.221 1.007 2.227 2.228 2.227 1.22-2.97e-4 2.226-1.006 2.227-2.227-2.97e-4 -1.22-1.006-2.224-2.227-2.225zm-17.81 7.42c-1.22 2.98e-4 -2.226 1.006-2.227 2.227 2.97e-4 1.22 1.006 2.224 2.227 2.225 1.22-2.98e-4 2.224-1.004 2.225-2.225-2.98e-4 -1.22-1.004-2.226-2.225-2.227zm35.62 0c-1.22 2.98e-4 -2.226 1.006-2.227 2.227 2.98e-4 1.22 1.006 2.224 2.227 2.225 1.22-2.97e-4 2.226-1.004 2.227-2.225-2.98e-4 -1.22-1.006-2.226-2.227-2.227zm-41.55 16.32c-1.22 2.98e-4 -2.226 1.006-2.227 2.227 2.98e-4 1.22 1.006 2.224 2.227 2.225 1.221 0.0012 2.228-1.003 2.228-2.225-2.97e-4 -1.221-1.007-2.227-2.228-2.227zm47.49 0c-1.22 2.97e-4 -2.226 1.006-2.227 2.227 2.99e-4 1.22 1.006 2.224 2.227 2.225 1.22-2.98e-4 2.224-1.004 2.225-2.225-2.97e-4 -1.22-1.004-2.226-2.225-2.227zm-41.55 16.32c-1.22 2.98e-4 -2.226 1.006-2.227 2.227 2.98e-4 1.22 1.006 2.224 2.227 2.225 1.22-2.99e-4 2.224-1.004 2.225-2.225-2.98e-4 -1.22-1.004-2.226-2.225-2.227zm35.62 0c-1.22 2.98e-4 -2.226 1.006-2.227 2.227 2.99e-4 1.22 1.006 2.224 2.227 2.225 1.22-2.98e-4 2.226-1.004 2.227-2.225-2.98e-4 -1.22-1.006-2.226-2.227-2.227z" fill="#0ff"/>
</svg>
