<svg xmlns="http://www.w3.org/2000/svg" viewBox="0 0 64 64"><defs><linearGradient id="a" x2="0" y1="1"><stop offset="0" stop-color="#fda700"/><stop offset="1" stop-color="#ffde00"/></linearGradient><linearGradient id="c" y2="1"><stop offset="0" stop-color="#7700d5"/><stop offset="1" stop-color="#bd00ff"/></linearGradient></defs><path fill="url(#a)" d="M7.5 9C4.028 9 1 11.795 1 15.332v33.34c0 3.537 3.028 6.332 6.5 6.332h49c3.472 0 6.5-2.795 6.5-6.332v-33.34C63 11.795 59.972 9 56.5 9zm0 6h49c.406 0 .5.176.5.332v33.34c0 .156-.094.332-.5.332h-49c-.406 0-.5-.176-.5-.332v-33.34c0-.156.094-.332.5-.332" transform="translate(-1.032 -1.032)scale(1.032)"/><path fill="url(#c)" d="M16.97 4.002a3 3 0 0 0-1.492.426 3 3 0 0 0-1.029 4.115l6.023 10.04-2.578 1.43a1.788 1.718 0 0 0 0 2.977l10.42 5.78a1.788 1.718 0 0 0 2.68-1.485l.002-5.783v-5.783a1.788 1.718 0 0 0-1.727-1.715 1.788 1.718 0 0 0-.957.228l-2.594 1.44-6.129-10.21a3 3 0 0 0-2.623-1.455z" transform="translate(-1.032 -1.032)scale(1.032)"/><path fill="url(#c)" d="M34.97 35a3 3 0 0 0-1.492.426 3 3 0 0 0-1.029 4.115l6.023 10.04-2.578 1.43a1.788 1.718 0 0 0 0 2.977l10.42 5.78a1.788 1.718 0 0 0 2.68-1.485l.002-5.783v-5.783a1.788 1.718 0 0 0-1.727-1.715 1.788 1.718 0 0 0-.957.228l-2.594 1.44-6.129-10.21a3 3 0 0 0-2.623-1.455z" transform="translate(-1.032 -1.032)scale(1.032)"/></svg>