<svg xmlns="http://www.w3.org/2000/svg" style="isolation:isolate" viewBox="0 0 64 64"><linearGradient id="a" x2=".907" y1=".5" y2=".92" gradientTransform="matrix(124 0 0 106 1.5 10.5)" gradientUnits="userSpaceOnUse" transform="translate(-.774 -.774)scale(.5161)"><stop offset=".017" stop-color="#f2e73f"/><stop offset=".846" stop-color="#5eefe5"/></linearGradient><path fill="url(#a)" fill-rule="evenodd" d="M111.5 26.14v3.351l-.25.031-37.75 4.719v-14.72l13.72 1.96a2 2 0 0 0 .56-3.96l-14-2-.369-.052a5.96 5.96 0 0 0-1.671-3.208 5.97 5.97 0 0 0-4.24-1.76h-31c-1.59 0-3.12.63-4.24 1.76a5.97 5.97 0 0 0-1.76 4.24v24h2c-1.59 0-3.12.63-4.24 1.76a5.97 5.97 0 0 0-1.76 4.24v7h4v-7c0-.53.21-1.04.59-1.41.37-.38.88-.59 1.41-.59h55c.53 0 1.04.21 1.41.59.38.37.59.88.59 1.41v7H28.48c-1.21.01-2.4.18-3.57.49-1.21.32-2.38.76-3.51 1.3-1.13.53-2.21 1.17-3.22 1.91-.98.7-1.86 1.53-2.63 2.45-.01.01-.01.02-.02.02l-8.58 10.57-1.024 1.26H5.31c-1.01 0-1.98.4-2.69 1.12-.72.71-1.12 1.68-1.12 2.69v5.38c0 1.01.4 1.98 1.12 2.69.71.72 1.68 1.12 2.69 1.12h1.844L14 101.361c1.82 4.47 4.93 8.3 8.94 11s8.73 4.14 13.56 4.14h55c4.85 0 9.59-1.41 13.65-4.07 4.06-2.65 7.25-6.43 9.19-10.87l7.47-17.06a3.77 3.77 0 0 0 2.57-1.118c.72-.71 1.12-1.68 1.12-2.69v-5.38c0-1.01-.4-1.98-1.12-2.69a3.78 3.78 0 0 0-2.69-1.12H121l-8.7-11.6c0-.01-.01-.01-.01-.02-.74-.95-1.6-1.81-2.55-2.54-.99-.77-2.05-1.43-3.17-1.99-1.11-.56-2.28-1.01-3.48-1.34-1.16-.32-2.36-.5-3.57-.51H93.5v-7c0-1.59-.63-3.12-1.76-4.24a5.97 5.97 0 0 0-4.24-1.76h-14v-2.239l38.17-4.771a5.3 5.3 0 0 0 1.4 2.44 5.3 5.3 0 0 0 3.78 1.57h1.3c1.42 0 2.78-.56 3.78-1.57a5.3 5.3 0 0 0 1.57-3.78v-8.3c0-1.42-.56-2.78-1.57-3.78a5.3 5.3 0 0 0-3.78-1.57h-1.3c-1.42 0-2.78.56-3.78 1.57a5.3 5.3 0 0 0-1.283 2.049l-12.9-2.579a2 2 0 0 0-.78 3.92l13.39 2.678zm4-1.449v7.461c0 .35.14.7.4.95.25.26.6.4.95.4h1.3c.35 0 .7-.14.95-.4.26-.25.4-.6.4-.95v-8.3c0-.35-.14-.7-.4-.95-.25-.26-.6-.4-.95-.4h-1.3a1.32 1.32 0 0 0-1.005.457zm-46 10.04v-18.23c0-.53-.21-1.04-.59-1.41-.37-.38-.88-.59-1.41-.59h-31c-.53 0-1.04.21-1.41.59-.38.37-.59.88-.59 1.41v24h35v-3.877l-.23-1.863.23-.028zm46.5 36.77H11.1l7.556-9.3c.56-.66 1.19-1.26 1.9-1.76.81-.6 1.68-1.11 2.59-1.54.9-.44 1.85-.79 2.83-1.04.83-.23 1.69-.35 2.56-.36h70.98c.85.01 1.7.13 2.53.37.95.26 1.88.61 2.77 1.06.88.44 1.72.97 2.5 1.58.69.51 1.3 1.12 1.82 1.8l6.89 9.19zm-83.16 13a14.3 14.3 0 0 0-7.421 3.92c-2.67 2.68-4.17 6.3-4.17 10.08s1.5 7.4 4.17 10.08a14.3 14.3 0 0 0 2.636 2.072 19.4 19.4 0 0 1-2.886-1.612 20.3 20.3 0 0 1-7.46-9.19l-6.24-15.35zm29 0a14.3 14.3 0 0 0-7.421 3.92c-2.67 2.68-4.17 6.3-4.17 10.08s1.5 7.4 4.17 10.08a14.3 14.3 0 0 0 7.421 3.92H38.16a14.3 14.3 0 0 0 7.421-3.92c2.67-2.68 4.17-6.3 4.17-10.08s-1.5-7.4-4.17-10.08a14.3 14.3 0 0 0-7.421-3.92zm29 0a14.3 14.3 0 0 0-7.421 3.92c-2.67 2.68-4.17 6.3-4.17 10.08s1.5 7.4 4.17 10.08a14.3 14.3 0 0 0 7.421 3.92H67.16a14.3 14.3 0 0 0 7.421-3.92c2.67-2.68 4.17-6.3 4.17-10.08s-1.5-7.4-4.17-10.08a14.3 14.3 0 0 0-7.421-3.92zm26.6 0-6.76 15.46a21 21 0 0 1-7.418 8.927q.16-.15.318-.307c2.67-2.68 4.17-6.3 4.17-10.08s-1.5-7.4-4.17-10.08a14.3 14.3 0 0 0-7.421-3.92h21.28zm-111.9-4h116v-5h-116zh.03zm25.72 18c0-1.13.45-2.21 1.24-3.01.8-.79 1.88-1.24 3.01-1.24s2.21.45 3.01 1.24c.79.8 1.24 1.88 1.24 3.01s-.45 2.21-1.24 3.01c-.8.79-1.88 1.24-3.01 1.24s-2.21-.45-3.01-1.24c-.79-.8-1.24-1.88-1.24-3.01m29 0c0-1.13.45-2.21 1.24-3.01.8-.79 1.88-1.24 3.01-1.24s2.21.45 3.01 1.24c.79.8 1.24 1.88 1.24 3.01s-.45 2.21-1.24 3.01c-.8.79-1.88 1.24-3.01 1.24s-2.21-.45-3.01-1.24c-.79-.8-1.24-1.88-1.24-3.01m35.06 3.85a1.499 1.499 0 1 1 1.28 2.71 7.259 7.259 0 0 1-8.22-1.43c-1.36-1.36-2.12-3.21-2.12-5.13s.76-3.77 2.12-5.13a7.26 7.26 0 0 1 9.78-.43 1.498 1.498 0 0 1-1.92 2.3 4.26 4.26 0 0 0-2.73-.99c-1.13 0-2.21.45-3.01 1.24-.79.8-1.24 1.88-1.24 3.01a4.254 4.254 0 0 0 4.25 4.25c.63 0 1.24-.14 1.81-.4m-67.06-3.85c0-1.92.76-3.77 2.12-5.13s3.21-2.12 5.13-2.12 3.77.76 5.13 2.12 2.12 3.21 2.12 5.13-.76 3.77-2.12 5.13-3.21 2.12-5.13 2.12-3.77-.76-5.13-2.12-2.12-3.21-2.12-5.13m29 0c0-1.92.76-3.77 2.12-5.13s3.21-2.12 5.13-2.12 3.77.76 5.13 2.12 2.12 3.21 2.12 5.13-.76 3.77-2.12 5.13-3.21 2.12-5.13 2.12-3.77-.76-5.13-2.12-2.12-3.21-2.12-5.13m26 0c0-2.72 1.08-5.33 3-7.25s4.53-3 7.25-3 5.33 1.08 7.25 3 3 4.53 3 7.25-1.08 5.33-3 7.25-4.53 3-7.25 3-5.33-1.08-7.25-3-3-4.53-3-7.25m-58 0c0-2.72 1.08-5.33 3-7.25s4.53-3 7.25-3 5.33 1.08 7.25 3 3 4.53 3 7.25-1.08 5.33-3 7.25-4.53 3-7.25 3-5.33-1.08-7.25-3-3-4.53-3-7.25m29 0c0-2.72 1.08-5.33 3-7.25s4.53-3 7.25-3 5.33 1.08 7.25 3 3 4.53 3 7.25-1.08 5.33-3 7.25-4.53 3-7.25 3-5.33-1.08-7.25-3-3-4.53-3-7.25" transform="translate(-.774 -.774)scale(.5161)"/></svg>