<svg style="isolation:isolate" version="1.1" viewBox="0 0 64 64" xmlns="http://www.w3.org/2000/svg">
 <linearGradient id="a" transform="translate(.000655 .00045) scale(1) translate(-2.958 -2.912) scale(1.455)" x1=".873" x2=".443" y1=".027" y2=".674" gradientTransform="matrix(18 0 0 28 28.03 15)" gradientUnits="userSpaceOnUse">
  <stop stop-color="#d300dc" offset="0"/>
  <stop stop-color="#8700ff" offset="1"/>
 </linearGradient>
 <path transform="translate(.000655 .00045) scale(1) translate(-2.958 -2.912) scale(1.455)" d="M37.6 40.03a5.03 5.03 0 0 1-2.78 2.64c-1.23.47-2.61.44-3.82-.1s-2.16-1.54-2.64-2.77c-.47-1.24-.44-2.62.1-3.83l8-18a5.05 5.05 0 0 1 2.77-2.64c1.24-.47 2.62-.44 3.83.1s2.16 1.54 2.64 2.78c.47 1.23.44 2.61-.1 3.82z" fill="url(#a)"/>
 <linearGradient id="b" transform="translate(.000655 .00045) scale(1) translate(-2.958 -2.912) scale(1.455)" x1=".297" x2=".737" y1=".267" y2=".955" gradientTransform="matrix(21.26 0 0 25.23 19.2 17.77)" gradientUnits="userSpaceOnUse">
  <stop stop-color="#00c6ff" offset="0"/>
  <stop stop-color="#0072ff" offset=".987"/>
 </linearGradient>
 <path transform="translate(.000655 .00045) scale(1) translate(-2.958 -2.912) scale(1.455)" d="M23.59 18.5c7.162 6.926.77-.981 2.119-.524 3.27 1.081.305-1.258 1.782.411 2.017 2.638 3.594 5.931 5.023 8.478l-.016.026 3.707 6.589c1.336 1.426 2.831.97 4.249.145l-2.846 6.402c-1.672 3.756-6.909 4.002-8.926.42l-8.93-15.88-.164-.256c-1.785-2.853 3.209-.617.811-2.787-.268-.238.562-.529.728-.936.672-1.647.578.83 1.994.533.295-.04-.323.006 0 0l.469-2.626z" fill="url(#b)"/>
 <linearGradient id="d" transform="translate(.000655 .00045) scale(1) translate(-2.958 -2.912) scale(1.455)" x2="1" y1=".5" y2=".5" gradientTransform="matrix(33.01 0 0 37.99 2.03 5)" gradientUnits="userSpaceOnUse">
  <stop stop-color="#5433ff" offset="0"/>
  <stop stop-color="#20bdff" offset=".517"/>
  <stop stop-color="#a5fecb" offset=".983"/>
 </linearGradient>
 <path transform="translate(.000655 .00045) scale(1) translate(-2.958 -2.912) scale(1.455)" d="M19.64 39.96a4.7 4.7 0 0 1-.909 1.389.07.07 0 0 1-.054.057 3.4 3.4 0 0 1-.718.634 1.8 1.8 0 0 1-.332.235 4.3 4.3 0 0 1-.781.388c-.052.024-.106.043-.159.065a5.7 5.7 0 0 1-1.152.251c-.123.01-.246.018-.369.009a3 3 0 0 1-.784-.037 2 2 0 0 1-.504-.086 3.2 3.2 0 0 1-.775-.246c-1.125-.441-2.101-1.31-2.667-2.583L7.59 33.634l.039.023-5.165-11.62a5 5 0 0 1-.1-3.82c.48-1.24 1.43-2.24 2.64-2.78s2.59-.57 3.82-.1c1.24.48 2.24 1.43 2.78 2.64l3.942 8.87c1.425-2.543 2.997-5.821 5.007-8.449 1.476-1.669 3.483-3.645 6.754-4.727 1.348-.456 2.461-.617 3.431-.601q.485.009.926.07c1.417.296 2.648.657 3.32 2.305.166.406-.036.792-.304 1.029-2.398 2.17-4.44 5-6.225 7.853l-.164.256-8.651 15.38zM31 7a2 2 0 1 1 4.001.001A2 2 0 0 1 31 7m-6.166-1c-.658.001-1.356.187-2.06.562-2.628 1.401-3.924 3.826-3.76 7.041.041.812.169 1.684.284 1.937s.307.46.426.46c.12 0 .627-.44 1.128-.978.681-.732 1.271-1.158 2.342-1.691 2.861-1.423 3.122-1.585 3.809-2.357 1.296-1.456 1.329-2.889.095-4.061A3.21 3.21 0 0 0 24.834 6m-9.605 7.001a1.8 1.8 0 0 0-.421.036c-1.11.23-1.979 1.973-1.779 3.568.123.99.967 2.504 1.687 3.029.313.228.719.391.903.363.289-.045.352-.23.453-1.337.065-.707.306-1.767.534-2.357.499-1.287.516-1.705.096-2.453-.286-.508-.865-.83-1.473-.849" fill="url(#d)" fill-rule="evenodd"/>
</svg>
