<svg xmlns="http://www.w3.org/2000/svg" viewBox="0 0 64 64"><defs><linearGradient id="a" y2="1"><stop offset="0" stop-color="#879af2"/><stop offset=".479" stop-color="#d3208b"/><stop offset=".979" stop-color="#fda000"/></linearGradient></defs><path fill="url(#a)" d="M38.56-.008 2.46.004A2.46 2.46 0 0 0-.003 2.467a2.46 2.46 0 0 0 2.463 2.46h36.1c3.059 0 4.328.098 4.85.315a4.09 4.09 0 0 1 2.219 2.217c.217.524.314 1.794.314 4.852s-.097 4.33-.314 4.852a4.09 4.09 0 0 1-2.219 2.217c-.524.217-1.792.315-4.85.315H2.46a2.46 2.46 0 0 0-2.463 2.46A2.46 2.46 0 0 0 2.46 24.62h49.23c3.059 0 4.33.095 4.852.312a4.1 4.1 0 0 1 2.219 2.22c.217.523.313 1.793.313 4.851s-.096 4.328-.313 4.85a4.1 4.1 0 0 1-2.219 2.22c-.524.216-1.794.314-4.852.314H35.28a2.46 2.46 0 0 0-2.461 2.46 2.46 2.46 0 0 0 2.461 2.462h6.564c3.059 0 4.33.097 4.852.314a4.09 4.09 0 0 1 2.217 2.219c.217.524.314 1.792.314 4.85s-.097 4.33-.314 4.852a4.08 4.08 0 0 1-2.217 2.217c-.524.217-1.794.314-4.852.314H2.464a2.46 2.46 0 0 0-2.463 2.461 2.46 2.46 0 0 0 2.463 2.463h39.38c3.059 0 4.851.096 6.738-.685a9.02 9.02 0 0 0 4.883-4.885c.78-1.885.687-3.68.687-6.738s.094-4.851-.687-6.738c-.14-.34-.571-.431-.75-.748 2.293.005 4.113.078 5.711-.584a9.02 9.02 0 0 0 4.885-4.885c.78-1.885.686-3.678.686-6.736s.095-4.851-.686-6.738a9.02 9.02 0 0 0-4.885-4.885c-1.885-.781-3.68-.686-6.738-.686h-2.152c.15-.276.525-.353.646-.646.781-1.885.688-3.68.688-6.738s.093-4.851-.687-6.738A9.02 9.02 0 0 0 45.299.685c-1.885-.781-3.68-.688-6.738-.688zm-36.1 39.4a2.46 2.46 0 0 0-2.463 2.461 2.46 2.46 0 0 0 2.463 2.461h9.846a2.46 2.46 0 0 0 2.461-2.46 2.46 2.46 0 0 0-2.461-2.462z" transform="translate(.006 .008)scale(.9998)"/><path fill="url(#a)" d="M35.28 19.7a2.46 2.46 0 0 0-2.463 2.463v20.31c0 .956-.038 1.338-.057 2-.457-.496-.753-.772-1.398-1.512v-.008l-1.582-1.807c-.579-.664-1.03-1.21-1.64-1.738s-1.608-1.096-2.706-1.096-2.095.57-2.705 1.098-1.062 1.072-1.643 1.736h-.006l-1.576 1.814h.006c-.648.743-.945 1.022-1.404 1.52-.018-.663-.056-1.048-.056-2.008v-20.31a2.46 2.46 0 0 0-2.463-2.46 2.46 2.46 0 0 0-2.461 2.46v20.31c0 1.83-.018 3.228.16 4.508.09.64.215 1.273.582 1.961.365.685 1.103 1.41 1.949 1.72.848.31 1.872.228 2.59-.054.72-.282 1.23-.675 1.719-1.102.975-.851 1.879-1.926 3.09-3.314h.006l1.57-1.809.006-.005c.318-.364.431-.468.635-.686.204.22.314.325.634.691l1.584 1.814c1.207 1.386 2.115 2.457 3.09 3.31.488.425 1.004.819 1.725 1.101.72.283 1.741.363 2.59.051.847-.31 1.585-1.032 1.95-1.717.365-.687.487-1.324.576-1.963.177-1.278.16-2.676.16-4.506v-20.31A2.46 2.46 0 0 0 35.28 19.7z" transform="translate(.006 .008)scale(.9998)"/></svg>