<svg xmlns="http://www.w3.org/2000/svg" viewBox="0 0 64 64"><defs><linearGradient id="c" x2="0" y1="1"><stop offset="0" stop-color="#5433ff"/><stop offset="1" stop-color="#20bdff"/></linearGradient><linearGradient id="a" x1="1" x2="0" y1=".5" y2=".5"><stop offset=".281" stop-color="#f15700"/><stop offset=".851" stop-color="red"/></linearGradient></defs><path fill="url(#a)" d="M18.48 0C8.609 0 .55 8.061.55 17.93v28.13C.55 55.931 8.611 64 18.48 64h27.05c9.871 0 17.93-8.064 17.93-17.94V17.93C63.46 8.059 55.4 0 45.53 0zm0 5.57h27.05c6.862 0 12.36 5.501 12.36 12.36v28.13c0 6.862-5.501 12.36-12.36 12.36H18.48A12.32 12.32 0 0 1 6.12 46.06V17.93c0-6.861 5.503-12.36 12.36-12.36" transform="translate(-.005)"/><path fill="url(#c)" d="M34.02 17.63a10.94 10.94 0 0 0-4.857 1.147c-1.364.68-2.536 1.667-3.507 2.837-1.108-.505-2.298-.81-3.519-.813h-.002c-2.267 0-4.444.9-6.048 2.503a8.56 8.56 0 0 0-2.508 6.042v.014c.002.396.07.785.127 1.176-1.262.277-2.44.864-3.308 1.834a6.17 6.17 0 0 0-1.575 4.114v.002a6.175 6.175 0 0 0 3.813 5.707c.749.31 1.552.47 2.363.47h.01c1.44-.006 2.522-1.396 2.297-2.734a6.4 6.4 0 0 1-.09-1.066c0-2.871 1.707-5.186 4.123-6.357l.042-.02.041-.023q.285-.152.583-.277a5.04 5.04 0 0 0 2.7-2.627h-.001a9.9 9.9 0 0 1 2.092-3.061c.228-.228.345-.515.482-.792.296-.047.584-.137.831-.31l.053-.038c1.43-1.066 3.138-1.715 5.067-1.715h.007l.175.014.151-.013c2.432.005 4.563 1.053 6.324 2.673a2.47 2.47 0 0 0 2.147.583c1.466-.32 2.384-2.064 1.624-3.488h-.001a10.92 10.92 0 0 0-9.631-5.783h-.003zm-11.89 7.512c.05 0 .094.034.144.036-.6.826-1.136 1.7-1.55 2.651a.73.73 0 0 1-.388.353q-.462.194-.904.431c-.535.26-.997.643-1.487.981-.006-.082-.026-.163-.027-.246a4.214 4.214 0 0 1 4.212-4.205zm-8.857 11.06c-.036.16-.04.33-.072.492-.008-.07-.041-.135-.041-.205v-.001c0-.106.084-.187.113-.286z" transform="translate(-.005)"/><path fill="url(#c)" d="M33.55 24.76a8.83 8.83 0 0 0-6.173 2.5c-1.525 1.492-2.312 3.459-2.494 5.446-.078-.004-.156-.017-.234-.018h-.028c-1.009.002-1.952.308-2.833.752l-.053.002.001.032c-.552.285-1.105.577-1.556 1.018a6.13 6.13 0 0 0-1.85 4.373c0 1.64.669 3.218 1.85 4.373a6.37 6.37 0 0 0 4.453 1.804h25.12a5.54 5.54 0 0 0 3.88-1.572c1.028-1.007 1.613-2.385 1.613-3.813s-.584-2.806-1.614-3.813a5.53 5.53 0 0 0-2.73-1.453c-.285-.06-.563-.316-.613-.615a7 7 0 0 0-.45-1.546v-.002a7 7 0 0 0-1.545-2.26v-.002a7.1 7.1 0 0 0-2.307-1.507 7.2 7.2 0 0 0-2.715-.528h-.008a7.3 7.3 0 0 0-2.143.33.66.66 0 0 1-.699-.205 8.7 8.7 0 0 0-2.61-2.198 8.9 8.9 0 0 0-4.268-1.097zm-.002 4.339a4.55 4.55 0 0 1 2.182.56c.513.281.955.657 1.306 1.097a4.99 4.99 0 0 0 5.39 1.644c.274-.086.563-.13.856-.131.374 0 .743.072 1.085.21.342.14.648.34.902.589s.451.538.584.851q.117.278.165.57c.358 2.14 2.005 3.727 4.002 4.145.23.048.433.16.587.31a.98.98 0 0 1 .308.71.98.98 0 0 1-.308.71 1.22 1.22 0 0 1-.845.335h-25.12a2.04 2.04 0 0 1-1.418-.568 1.76 1.76 0 0 1-.546-1.27c0-.464.183-.916.545-1.27.358-.35.867-.564 1.408-.566q.123.001.247.019c2.274.318 4.232-1.515 4.282-3.641v.01c.03-1.085.54-2.347 1.26-3.05a4.5 4.5 0 0 1 3.134-1.265z" transform="translate(-.005)"/></svg>