<svg style="isolation:isolate" version="1.1" viewBox="0 0 64 64" xmlns="http://www.w3.org/2000/svg">
 <defs>
  <linearGradient id="a" x1="24" x2="24" y1=".499" y2="47" gradientUnits="userSpaceOnUse">
   <stop stop-color="#ff00a8" offset="0"/>
   <stop stop-color="#9a06f4" offset="1"/>
  </linearGradient>
 </defs>
 <path transform="translate(0) scale(1) translate(0) scale(1) translate(-.00051) scale(1)" d="M31.71 20.424c-4.09 0-7.44 3.35-7.44 7.441s3.35 7.442 7.44 7.442 7.441-3.35 7.441-7.442-3.35-7.441-7.44-7.441m0 6.636c.457 0 .805.348.805.805s-.348.805-.805.805-.805-.348-.805-.805.348-.805.805-.805" clip-rule="evenodd" fill="red" fill-rule="evenodd"/>
 <path transform="translate(0) scale(1) translate(0) scale(1) translate(-.00051) scale(1) translate(-1.03 -.688) scale(1.376)" d="M24 .5a19.54 19.54 0 0 0-13.79 5.71 19.54 19.54 0 0 0-5.5 16.67c.16 1.092 1.178 1.848 2.27 1.685s1.85-1.182 1.69-2.275a15.5 15.5 0 0 1 4.37-13.25C15.95 6.13 19.89 4.5 24 4.5s8.05 1.63 10.96 4.54S39.5 15.89 39.5 20s-1.63 8.05-4.54 10.96S28.11 35.5 24 35.5c-4.05 0-7.95-1.59-10.84-4.43a2.002 2.002 0 0 0-2.801 2.86 19.5 19.5 0 0 0 7.349 4.526c.378.678.63 1.296.694 1.868.085.75-.045 1.525-.905 2.676H8.249a2 2 0 0 0 0 4h31.5a2 2 0 0 0 0-4h-9.856c-.69-1.112-.812-1.92-.737-2.7.05-.523.221-1.06.475-1.633a19.6 19.6 0 0 0 8.158-4.878c3.65-3.66 5.71-8.62 5.71-13.79s-2.06-10.13-5.71-13.79A19.54 19.54 0 0 0 23.999.5zM24 6a1 1 0 1 0 .001 2A1 1 0 0 0 24 6m4.153 1.168a1.004 1.004 0 0 0-.343 1.952 12 12 0 0 1 7 6.17c.243.497.842.705 1.34.465s.702-.838.46-1.335c-1.64-3.4-4.58-6-8.16-7.2a1 1 0 0 0-.297-.052m-6.885 32.14a19.5 19.5 0 0 0 4.997.06q-.06.315-.092.644c-.091.94.032 1.95.41 2.988H20.92c.427-1.038.57-2.058.463-3.012a6 6 0 0 0-.114-.681z" fill="url(#a)" style="isolation:auto"/>
 <path transform="translate(0) scale(1) translate(0) scale(1) translate(-.00051) scale(1) translate(-1.03 -.688) scale(1.376)" d="m23.79 10.26c-5.782 0-10.49 4.705-10.49 10.49s4.705 10.49 10.49 10.49 10.49-4.705 10.49-10.49-4.705-10.49-10.49-10.49m0 2.996c4.13 0 7.49 3.36 7.49 7.49s-3.36 7.49-7.49 7.49-7.49-3.36-7.49-7.49 3.36-7.49 7.49-7.49" fill="url(#a)"/>
</svg>
