<svg xmlns="http://www.w3.org/2000/svg" viewBox="0 0 64 64"><defs><linearGradient id="a" y2="1"><stop offset="0" stop-color="#02aa93"/><stop offset=".485" stop-color="#33d38a"/><stop offset="1" stop-color="#67ff80"/></linearGradient></defs><path fill="url(#a)" d="M7.998.768a7.9 7.9 0 0 0-3.238.673C.691 3.233-1.088 8.027.723 12.021l-.65 2.223c-.405 1.382.974 2.761 2.356 2.356l2.223-.654a8 8 0 0 0 2.141.646 7.98 7.98 0 0 0 7.236 4.641 7.9 7.9 0 0 0 3.31-.734l2.225.658h.002c1.382.406 2.761-.973 2.356-2.356l-.65-2.215a7.98 7.98 0 0 0-1.737-9.092 7.94 7.94 0 0 0-4.332-2.113C13.879 2.524 11.013.788 8 .771zm.003 2.269A5.67 5.67 0 0 1 12.6 5.426a8 8 0 0 0-2.66.998 7.98 7.98 0 0 0-3.833 7.668 5.7 5.7 0 0 1-.829-.362 1.14 1.14 0 0 0-.857-.088l-1.967.578.576-1.965a1.14 1.14 0 0 0-.088-.854 5.673 5.673 0 0 1 2.736-7.875A5.7 5.7 0 0 1 8 3.036zm5.033 3.104c.112.22.215.445.3.684a1.14 1.14 0 0 0 .488.594 1 1 0 0 0 .104.054 1 1 0 0 1-.104-.054 1.14 1.14 0 0 1-.49-.595 6 6 0 0 0-.298-.683m1.23 1.43a1 1 0 0 0 .164.01 5.7 5.7 0 0 1 3.536 1.56 5.68 5.68 0 0 1 1.09 6.807 1.14 1.14 0 0 0-.09.86l.578 1.965-1.963-.578a1.14 1.14 0 0 0-.86.088 5.67 5.67 0 0 1-2.686.671h-.002a5.68 5.68 0 0 1-5.484-4.177 5.68 5.68 0 0 1 2.564-6.399 5.7 5.7 0 0 1 3.152-.806zm-2.505 3.408a1.52 1.52 0 0 0-1.518 1.518 1.52 1.52 0 0 0 1.518 1.52 1.52 1.52 0 0 0 1.518-1.52 1.52 1.52 0 0 0-1.518-1.518m4.55 0a1.52 1.52 0 0 0-1.518 1.518 1.52 1.52 0 0 0 1.518 1.52 1.52 1.52 0 0 0 1.52-1.52 1.52 1.52 0 0 0-1.52-1.518m-9.4 3.325" transform="translate(-.003 -.004)scale(2.909)"/></svg>