<svg xmlns="http://www.w3.org/2000/svg" viewBox="0 0 64 64"><defs><linearGradient id="c" x2="0" y1="1"><stop offset="0" stop-color="#fda700"/><stop offset="1" stop-color="#ffde00"/></linearGradient><linearGradient id="a" x2="0" y2="1"><stop offset="0" stop-color="#0f9"/><stop offset="1" stop-color="#14dc57"/></linearGradient></defs><path fill="url(#a)" d="M79.7 55 67.32 80.4c-7.307 4.981-14.59 5.727-21.82 2.279 3.418 5.539 10.36 8.13 20.85 7.816-.745 30.78 13.25 54.44 42.01 71l19.87-25.73c7.666 4.916 15.25 14.13 22.8 27.68 40.71-35.83 54.45-76.23 19.54-106.2l-19.87 13.68 11.07-1.303c21.69 20.76 20.05 47.13-4.885 79.14-6.427-12.01-17.73-22.88-29.31-29.96l-22.8 34.52c-15.27-16.79-23.75-37.11-25.4-60.91 13.91.556 23.45-4.343 28.66-14.66-5.882-10.59-15.34-18.2-28.34-22.8z" transform="translate(-20.082 -23.6)scale(.44136)"/><path fill="url(#c)" d="m107.4 88.87 1.629 4.56c7.085.743 11.69 9.543 13.83 26.4-4.741 7.372-3.296 18.64-.473 33.85-1.884 1.76-3.423 11.72.327 29.96l-12.05 2.606-.327 3.258c14.35-.345 33.55-.467 57.65-.326l5.211 7.816c2.821-1.916 6.61-4.644 8.795-8.795-2.259-5.76-1.295-16.41 5.537-31.27-5.186 2.82-12.15 10.62-20.85 23.45-12.37-1.254-21.72-.616-28.01 1.953-3.732-20.27-2.47-31.23-2.932-44.62 3.502-6.066 3.462-11.74-.013-16.88.816-18.53 4.95-29.67 15.65-27.74l.326-3.908z" transform="translate(-20.082 -23.6)scale(.4414)"/></svg>