<svg xmlns="http://www.w3.org/2000/svg" viewBox="0 0 64 64"><defs><linearGradient id="a" x1="1" x2="0" y1="1"><stop offset="0" stop-color="#5570ff"/><stop offset="1" stop-color="#4dd3ff"/></linearGradient></defs><path fill="url(#a)" d="M6 4C4.338 4 3 5.338 3 7v10c0 1.662 1.338 3 3 3h3v-1H6c-1.108 0-2-.892-2-2V9c0-1.108.892-2 2-2h11c1.108 0 2 .892 2 2h1V7c0-1.662-1.338-3-3-3z" transform="translate(-10.668 -12.446)scale(3.55602)"/><path fill="url(#a)" d="M13 10c-1.662 0-3 1.338-3 3v5c0 1.662 1.338 3 3 3h5c1.662 0 3-1.338 3-3v-5c0-1.662-1.338-3-3-3zm0 3h5c1.108 0 2 .892 2 2v3c0 1.108-.892 2-2 2h-5c-1.108 0-2-.892-2-2v-3c0-1.108.892-2 2-2" transform="translate(-10.668 -12.446)scale(3.556)"/></svg>