<svg xmlns="http://www.w3.org/2000/svg" viewBox="0 0 64 64"><defs><linearGradient id="c" x1="97.18" x2="438.7" y1="194.7" y2="194.7" gradientTransform="matrix(1.088 0 0 1 -31.04 0)" gradientUnits="userSpaceOnUse"><stop offset="0" stop-color="#006fff"/><stop offset="1" stop-color="#006fff" stop-opacity=".18"/></linearGradient><linearGradient id="e" x1="240.2" x2="440.1" y1="153.1" y2="153.1" gradientTransform="matrix(1.016 0 0 1 -1.247 -3.498)" gradientUnits="userSpaceOnUse"><stop offset="0" stop-color="#006fff"/><stop offset="1" stop-color="#006fff" stop-opacity=".18"/></linearGradient><linearGradient id="a" x1="197" x2="439.2" y1="345.8" y2="345.8" gradientTransform="matrix(1.15 0 0 1 -58.42 13.87)" gradientUnits="userSpaceOnUse"><stop offset="0" stop-color="#006fff"/><stop offset="1" stop-color="#006fff" stop-opacity=".18"/></linearGradient><linearGradient id="f" x1="36.4" x2="480.3" y1="254.6" y2="254.6" gradientTransform="translate(-25.92 -32.61)scale(1.091)" gradientUnits="userSpaceOnUse"><stop offset="0" stop-color="#006fff"/><stop offset="1" stop-color="#006fff" stop-opacity=".18"/></linearGradient></defs><g fill="none" stroke-linecap="round"><path stroke="url(#a)" stroke-width="38.6" d="M267.1 353.5c7.757 2.474 14.51 7.961 18.52 15.05 4.009 7.086 5.233 15.7 3.357 23.62-1.504 6.354-4.936 12.2-9.545 16.82-4.61 4.624-10.37 8.044-16.54 10.17-12.35 4.245-26.03 3.263-38.53-.519-13.15-3.979-25.49-11.11-34.67-21.34s-15.01-23.65-15.1-37.39c-.082-13.09 5.064-26 13.5-36 8.436-10.01 20.02-17.16 32.52-21.05 18.46-5.746 38.27-4.508 57.55-3.153 26.04 1.831 52.1 3.776 78.2 4.11 27.93.356 55.88-1.136 83.62-4.463" transform="translate(-.25 1.112)scale(.126)"/><path stroke="url(#c)" stroke-width="36.97" d="M170.6 214.5c10.98-3.142 20.61-10.74 26.22-20.69 5.606-9.948 7.12-22.12 4.12-33.14-2.977-10.94-10.29-20.54-19.77-26.75-9.485-6.208-21.03-9.058-32.35-8.487s-22.39 4.492-31.84 10.75c-9.452 6.258-17.31 14.81-23.2 24.49-6.902 11.33-11.18 24.39-11.37 37.66-.193 13.27 3.839 26.71 12.05 37.14 5.569 7.073 12.93 12.65 21.02 16.6 8.091 3.948 16.91 6.302 25.83 7.471 17.85 2.338 35.95-.006 53.79-2.495 21.19-2.958 42.36-6.124 63.62-8.49 60.16-6.692 121-6.94 181.2-.737" transform="translate(-.25 1.112)scale(.126)"/><path stroke="url(#e)" stroke-width="36.28" d="M315.2 154.6c5.806-2.286 10.73-6.73 13.6-12.27 2.871-5.54 3.662-12.13 2.182-18.19-1.13-4.631-3.545-8.921-6.802-12.4s-7.339-6.161-11.77-7.918c-8.863-3.513-18.93-3.272-28.07-.527-10.02 3.011-19.15 9.024-25.65 17.22-6.494 8.2-10.27 18.57-10.26 29.03.005 9.938 3.42 19.81 9.385 27.76s14.42 13.96 23.83 17.18c13.22 4.527 27.6 3.555 41.53 2.483 18.79-1.446 37.59-2.975 56.44-3.237 20.16-.28 40.35.896 60.34 3.515" transform="translate(-.25 1.112)scale(.126)"/><path stroke="url(#f)" stroke-linejoin="round" stroke-width="36" d="M492 304a240.2 224 0 0 1-255.7 164.1A240.2 224 0 0 1 20.5 260 240.2 224 0 0 1 205 27.2a240.2 224 0 0 1 276.7 131.3" style="paint-order:normal" transform="translate(-.25 1.112)scale(.126)"/></g></svg>