<svg xmlns="http://www.w3.org/2000/svg" style="isolation:isolate" viewBox="0 0 64 64"><linearGradient id="a" x2="1" y1=".5" y2=".5" gradientTransform="matrix(48 0 0 27.75 0 10.12)" gradientUnits="userSpaceOnUse" transform="scale(1.333)"><stop offset="0" stop-color="#00ffd8"/><stop offset=".983" stop-color="#00ffb8"/></linearGradient><path fill="url(#a)" fill-rule="evenodd" d="M47.56 10.13h-.457a4.354 4.354 0 0 0-4.361 4.354v9.736c0 1.945-1.607 3.519-3.519 3.519a3.64 3.64 0 0 1-2.944-1.531l-9.945-14.2a4.4 4.4 0 0 0-3.62-1.882c-2.267 0-4.307 1.927-4.307 4.306v9.793a3.53 3.53 0 0 1-3.519 3.519 3.64 3.64 0 0 1-2.946-1.532L.812 10.322c-.252-.359-.816-.182-.816.256v8.492c0 .429.131.846.377 1.198l10.95 15.64c.647.924 1.602 1.61 2.702 1.86 2.754.626 5.289-1.494 5.289-4.196v-9.787a3.52 3.52 0 0 1 3.52-3.52h.005c1.172 0 2.271.572 2.944 1.532l9.944 14.2c.827 1.181 2.1 1.882 3.619 1.882 2.318 0 4.303-1.929 4.303-4.306v-9.791a3.52 3.52 0 0 1 3.519-3.52h.388a.44.44 0 0 0 .441-.44v-9.249a.44.44 0 0 0-.441-.441l.002.002z" transform="scale(1.333)"/></svg>