<svg xmlns="http://www.w3.org/2000/svg" viewBox="0 0 64 64"><defs><linearGradient id="a" y2="1"><stop offset="0" stop-color="#da606d"/><stop offset=".204" stop-color="#fd904c"/><stop offset=".397" stop-color="#facf50"/><stop offset=".61" stop-color="#3cc86d"/><stop offset=".808" stop-color="#5498f2"/><stop offset=".983" stop-color="#aa5bd5"/></linearGradient></defs><path fill="url(#a)" d="M17.41 4c-1.55 0-3.14.34-4.76 1.029V7c1.11-.47 2.17-.82 3.19-1v4.461c-1.13.17-2.2.48-3.19.94v1.31c1.15-.56 2.21-.902 3.19-1.023v4.57c-1.16.16-2.22.431-3.19.801v1.9c1.82-.61 3.47-.91 4.94-.91 1.78 0 3.259.39 4.449 1.18V5.179c-1.41-.79-2.949-1.18-4.629-1.18zm-4.961 1.119c-.6.23-1.219.53-1.859.88v1.892l1.859-.772zm-9.779.182-.709.298v.612l.709-.301zm1.83.34L3.5 6v.73l1-.37zm12.92.18c1.08 0 1.97.179 2.73.589v4.39c-.88-.3-1.78-.43-2.69-.43l-.41.011V5.84c.12-.01.239-.02.369-.02zm-7.08.028-1.73.711V8l1.73-.68zm-2.051.19-1.568.63v1.11l1.568-.62zm-1.978.05-1.26.5v.84l1.26-.49zM2.6 7.29l-.57.271v.54l.57-.26zm9.85.04-1.859.77v1.74l1.859-.78zm-8.02.391L3.64 8v.68l.79-.3zm5.83.33-1.48.59v1.228l1.48-.59zm-2.06.08-1.309.53V9.69L8.2 9.16zm-1.949.05-1.06.429v.73l1.06-.4zm-3.65 1.1-.57.259v.541l.57-.26zm9.85 0-1.859.78v1.76l1.859-.78zm-8.02.45-.78.27v.67l.78-.301zm5.83.24-1.48.59v1.22l1.48-.58zm-2.06.16-1.309.52v1.03l1.309-.53zm-1.949.05-1.06.42v.75l1.06-.42zm-3.58 1.06-.709.32v.59l.709-.291zm9.779.01-1.859.75v1.77l1.859-.77zm4.99.31c.99 0 1.901.18 2.711.54v4.43c-.8-.25-1.7-.37-2.69-.37h-.41v-4.58c.13-.01.259-.02.389-.02m-12.94.1-1 .369v.71l1-.37zm5.84.209-1.73.691v1.469l1.73-.7zm-2.051.191-1.568.62v1.12l1.568-.611zm-1.978.049-1.26.5v.84l1.26-.489zm6.139 1.102L10.592 14v1.779l1.859-.78zm-9.85.1-.57.25v.539l.57-.26zm1.83.43-.78.288v.66l.78-.308zm5.83.32-1.48.59v1.23l1.48-.571zm-2.06.09-1.309.519V15.7l1.309-.52zm-1.949.038-1.06.43v.75l1.06-.43zm6.199 1.022-1.859.79v1.76l1.859-.8zm-9.85.12-.57.269v.531l.57-.262zm1.83.43-.78.3v.66l.78-.31zm5.83.24-1.48.599v1.24l1.48-.59zm-2.06.099-1.309.531v1.01l1.309-.521zm-1.949.041-1.06.43v.75l1.06-.42zm6.199 1.029-1.859.791v1.879c.51-.25 1.129-.52 1.859-.8zm-9.779.1-.709.32v.59l.709-.29zm1.83.43-1 .4v.71l1-.4zm5.84.14-1.73.7V20l1.73-.7zm-2.051.19-1.568.63v1.11l1.568-.62zm-1.978.05-1.26.5v.85l1.26-.5z" transform="translate(-6.251 -6.25)scale(3.188)"/></svg>