<svg version="1.1" viewBox="0 0 64 64" xmlns="http://www.w3.org/2000/svg">
 <path transform="translate(0) scale(1) translate(0) scale(1) translate(4.9e-5 7e-5) scale(1)" d="M35.045 36.27a3.5 3.5 0 0 0-1.466.283 3.7 3.7 0 0 0-1.903 2.19c-1.076 3.695-2.72 9.35-3.752 13.338a6.57 6.57 0 0 0 .425 4.678c.692 1.385 1.949 2.554 3.496 3.15 6.406 2.42 12.727 1.118 16.331-.104a6.78 6.78 0 0 0 4.163-4.39 5441 5441 0 0 0 4.241-14.734 2.85 2.85 0 0 0-.666-2.627 2.91 2.91 0 0 0-2.624-.698c-2.368.684-5.375 1.44-7.964 1.696-2.895.311-6.365-1.117-8.83-2.479a3.8 3.8 0 0 0-1.454-.31z" fill="#ffc300"/>
 <path transform="translate(0) scale(1) translate(0) scale(1) translate(4.9e-5 7e-5) scale(1)" d="M18.35 28.187c-3.392-.233-7.19.736-9.786 1.614a6.69 6.69 0 0 0-4.218 4.367C3.197 37.865 1.324 44.387.082 48.713c-.233.913.04 1.978.695 2.653a2.91 2.91 0 0 0 2.647.675c2.327-.597 5.053-.966 8.04-1.213 2.79-.254 6.226 1.128 8.719 2.367a3.62 3.62 0 0 0 2.825-.008 3.62 3.62 0 0 0 1.841-2.133c1.14-3.688 2.822-9.445 3.991-13.471a6.7 6.7 0 0 0-.395-4.71 6.75 6.75 0 0 0-3.456-3.223c-1.894-.622-4.175-1.286-6.639-1.466z" fill="#00b4f1"/>
 <path transform="translate(0) scale(1) translate(0) scale(1) translate(4.9e-5 7e-5) scale(1)" d="M42.4 10.52c-.49 0-.978.1-1.418.291a3.63 3.63 0 0 0-1.832 2.13 937 937 0 0 0-3.994 13.474 6.7 6.7 0 0 0 .395 4.71c.681 1.396 1.92 2.586 3.456 3.22 1.891.629 4.18 1.289 6.641 1.466 3.395.233 7.186-.736 9.786-1.611a6.69 6.69 0 0 0 4.218-4.375c1.146-3.695 3.017-10.211 4.265-14.537a2.94 2.94 0 0 0-.69-2.656 2.91 2.91 0 0 0-2.653-.672c-2.327.594-5.055.963-8.043 1.21-2.787.254-6.222-1.131-8.71-2.37a3.6 3.6 0 0 0-1.422-.277z" fill="#91c300"/>
 <path transform="translate(0) scale(1) translate(0) scale(1) translate(4.9e-5 7e-5) scale(1)" d="M25.117 2.733c-3.733-.099-7.046.698-9.297 1.455a6.78 6.78 0 0 0-4.16 4.383 4642 4642 0 0 0-4.245 14.735 2.82 2.82 0 0 0 .667 2.626 2.85 2.85 0 0 0 2.626.701c2.365-.692 5.365-1.44 7.957-1.698 2.891-.312 6.367 1.122 8.837 2.478a3.75 3.75 0 0 0 2.918.03 3.7 3.7 0 0 0 1.896-2.188c1.077-3.695 2.723-9.353 3.759-13.341a6.6 6.6 0 0 0-.425-4.678 6.6 6.6 0 0 0-3.502-3.15 21.5 21.5 0 0 0-7.031-1.353" fill="#f8682c"/>
</svg>
