<svg xmlns="http://www.w3.org/2000/svg" style="isolation:isolate" viewBox="0 0 64 64"><linearGradient id="a" x1=".48" x2=".5" y1="-.314" y2="1.028" gradientTransform="scale(48)" gradientUnits="userSpaceOnUse" transform="scale(1.333)"><stop offset=".013" stop-color="#df57ff"/><stop offset=".521" stop-color="#241efc"/><stop offset=".979" stop-color="#0eaffe"/></linearGradient><path fill="url(#a)" fill-rule="evenodd" d="M14 16v16.004h4v-.029c.307-.067 1.155-.288 1.676-.805L24 26.877l4.324 4.293c.521.517 1.369.738 1.676.805v.029h4V16h-4v11.2l-6-5.955-6 5.955V16zm10 26.59-6.57-2.72-6.57-2.73-2.73-6.57L5.41 24l2.72-6.57 2.73-6.57 6.57-2.73L24 5.41l6.57 2.72 6.57 2.73 2.73 6.57L42.59 24l-2.72 6.57-2.73 6.57-6.57 2.73zM24 48 7.03 40.971l-3.514-8.486L.001 24l3.515-8.485L7.03 7.029 24 0l16.97 7.029 3.514 8.486L47.999 24l-3.515 8.485-3.514 8.486z" transform="scale(1.333)"/></svg>