<svg xmlns="http://www.w3.org/2000/svg" xmlns:xlink="http://www.w3.org/1999/xlink" viewBox="0 0 64 64"><defs><linearGradient id="b" x1="43.38" x2="43.38" y1="11.72" y2="88.47" gradientTransform="matrix(.5108 0 0 .8338 -13.12 -9.769)" gradientUnits="userSpaceOnUse"><stop offset="0" stop-color="#f10"/><stop offset="1" stop-color="#ff115a"/></linearGradient><linearGradient xlink:href="#a" id="c" x1="49.8" x2="17.1" y1="10.81" y2="51.96" gradientTransform="scale(.9986 1.001)" gradientUnits="userSpaceOnUse"/><linearGradient id="a" x1="1" x2="0" y2="1"><stop offset="0" stop-color="#ffc700"/><stop offset=".552" stop-color="#ff49ab"/><stop offset="1" stop-color="#ba49ff"/></linearGradient><linearGradient xlink:href="#a" id="e" x1="39.94" x2="21.33" y1="22.31" y2="42.99" gradientTransform="scale(1.026 .9746)" gradientUnits="userSpaceOnUse"/></defs><path fill="url(#b)" d="M31.15 0c-1.832-.004-3.286.259-4.053 1.109-.361.4-.614 1.04-.982 2.067-.367 1.028-.785 2.404-1.265 4.104-.958 3.401-2.12 8.08-3.409 13.74-1.877 8.223-.566 13.07.75 15.7.815 1.633 1.494 2.89 1.677 4.494s-.103 3.618-1.37 6.813c-.911 2.304-1.83 3.64-2.683 4.415-.826.75-1.585 1.002-2.376 1.111-2.11-.503-3.948-.772-5.371-.775-.721-.002-1.357.068-1.86.232-.501.163-.913.457-1.085.93-.236.647.068 1.295.594 1.91s1.322 1.251 2.325 1.912c2.006 1.322 4.889 2.71 8.184 3.898 3.296 1.187 6.373 1.951 8.75 2.22 1.192.135 2.226.16 3.022.026.796-.135 1.442-.438 1.677-1.083.172-.473.045-.967-.232-1.42s-.711-.901-1.265-1.37c-1.092-.922-2.693-1.928-4.65-2.89-.846-.868-1.575-1.561-1.96-2.636-.396-1.104-.465-2.69.206-5.397 1.322-5.325 2.907-6.891 4.802-8.105 1.896-1.212 4.244-2.037 6.71-5.476 4.125-5.75 5.234-10.21 7.59-16.86 1.251-3.532 2.134-6.11 2.686-7.896.276-.896.466-1.581.569-2.118.102-.538.202-.89 0-1.292-1.193-2.375-4.104-4.151-7.361-5.397C37.515.72 33.885.012 31.138.006zm.362 2.452c1.915.017 4.412.476 6.403 1.188 2.173.777 4.236 1.703 5.708 2.582.736.44 1.316.848 1.677 1.213.36.365.452.646.439.722-.51 2.886-1.484 5.122-1.96 6.352-1.068-.7-2.27-.709-3.41-.334-1.344.443-2.712 1.282-4.183 1.91-1.472.628-2.999 1.047-4.7.724-1.655-.315-3.517-1.36-5.604-3.72.084-.316 1.661-6.344 2.79-9.938.036-.116.241-.34.749-.49.507-.15 1.246-.214 2.09-.206z" transform="translate(-4.521)"/><path fill="url(#c)" d="m26.46.002-.576.076c-1.168.151-2.023.865-2.566 1.658s-.846 1.675-1.096 2.391c-.376 1.041-.43 2.08-.574 2.975-.14.875-.35 1.571-.848 2.137-1.091.852-2.422 1.53-3.744 2.322a180 180 0 0 1-5.36-1.934l-.007-.002-.006-.004c-2.088-.75-4.486-.019-5.728 1.777l-.002.002v.004c-1.6 2.345-2.976 4.776-4.46 7.104l-.005.006-.002.006C.72 19.768-.362 21.48.3 23.385c.532 1.7 1.746 2.851 2.943 3.84 1.14.942 2.26 1.781 3.022 2.752.13 1.096.012 2.322.016 3.631-1.515 1.565-3.564 2.83-5.209 4.703l-.014.016-.011.015c-.78.98-.945 2.153-.797 3.2.147 1.045.567 2.01.97 2.835l.008.018.008.013a142 142 0 0 0 4.221 7.266c1.108 1.938 3.502 2.844 5.678 2.336h.008l.002-.002c2.09-.509 4.023-1.295 5.934-1.977 1.348.703 2.66 1.496 3.977 2.312.58 2.392.97 4.912 1.928 7.377l.004.008.002.006c.5 1.22 1.635 1.67 2.24 2.098l.226.16.278-.007c3.807-.103 7.664.1 11.56-.026l.082-.002.078-.02c2.005-.46 3.308-1.858 4.022-3.44.7-1.553.904-3.294.912-4.807.153-1.303-.629-2.418-1.64-3.008-1.005-.588-2.343-.74-3.464-.059-1.081.603-1.564 1.66-1.772 2.61-.156.712-.207 1.312-.287 1.89-2.165-.003-4.325.005-6.473-.008a77 77 0 0 0-1.12-4.826l-.001-.011-.004-.012c-.624-2.112-2.426-3.454-4.172-4.348l-.012-.008c-1.419-.755-2.86-1.933-4.803-2.408l-.02-.004-.017-.002c-3.07-.607-5.582.953-7.902 1.727-1.065-1.934-2.195-3.803-3.238-5.684 1.467-1.196 3.126-2.348 4.432-3.975 1.626-1.945 1.205-4.386 1.303-6.16l-.002.002c.116-1.979-.13-4.279-1.746-5.973l-.004-.002v-.002c-1.27-1.318-2.68-2.4-4.008-3.525 1.16-1.803 2.253-3.62 3.381-5.398 2.017.58 4.176 1.873 6.86 1.707 1.802-.086 3.173-1.085 4.366-1.762l.006-.004.012-.008c1.707-1.023 3.845-2.04 5.01-4.127v-.002c.992-1.759 1.393-3.672 1.664-5.529 2.137.02 4.27.017 6.402.004.414 1.628.757 3.3 1.225 4.984l.01.034.011.033c.63 1.71 1.932 2.836 3.305 3.707s2.853 1.53 4.033 2.283l.032.02.033.015c1.842.958 3.726.762 5.408.273 1.474-.428 2.816-1.01 4.09-1.39 1.046 1.887 2.144 3.723 3.188 5.565-1.857 1.643-4.54 3.106-5.465 6.066l-.024.076-.007.079a35 35 0 0 0-.114 6.48l.002.033.006.035c.29 1.822 1.364 3.19 2.564 4.314 1.027.962 2.111 1.766 3.06 2.59-1.147 1.849-2.25 3.696-3.427 5.478-1.14-.48-2.356-1.087-3.848-1.227h-.002c-2.668-.261-4.61 2.956-2.97 5.051.686.934 1.657 1.41 2.571 1.744.92.336 1.817.559 2.504.887l-.014-.008c2.174 1.087 5.184.832 6.666-1.354l.002-.004.004-.002c1.796-2.694 3.445-5.461 5.107-8.203.883-1.31 1.162-3.082.33-4.576-.712-1.502-1.94-2.494-3.076-3.394-1.092-.867-2.079-1.672-2.672-2.644-.018-1.29-.064-2.511.182-3.578 1.484-1.584 3.736-2.781 5.29-4.908.754-1.005.816-2.195.59-3.203-.224-1.01-.69-1.918-1.048-2.676l-.01-.022-.012-.021c-1.345-2.457-2.74-4.901-4.266-7.279-1.166-1.956-3.648-2.648-5.754-2.109-2.05.491-3.925 1.28-5.789 1.914-1.373-.749-2.718-1.458-3.863-2.322-.627-1.643-.691-3.626-1.422-5.639a5.7 5.7 0 0 0-1.9-2.812C38.755.342 37.56-.118 36.267.032c-3.206.066-6.472-.129-9.779.031z" transform="translate(28.529 33.007)scale(.4843)"/><path fill="url(#e)" d="M31.43 18.19q-.582-.003-1.166.041c-.534.041-1.063.179-1.594.283v-.088l-1.043.27h-.002l-.004.004h-.006l-.002.002h-.002c-2.286.593-4.41 1.728-6.123 3.295-4.966 4.347-5.833 12.04-1.969 17.31 3.741 5.45 11.65 7.599 17.82 4.748 6.582-2.717 10.04-10.43 7.48-16.83-1.904-5.396-7.566-8.996-13.39-9.03zm-.049 6.607.002.002h.002c3.01.04 5.997 1.934 6.963 4.609l.004.014.006.011c1.007 2.531.185 5.64-1.978 7.45l-.008.01-.01.007c-2.223 1.975-5.939 2.378-8.598.941l-.007-.004-.008-.005c-2.416-1.243-3.97-3.88-3.781-6.428l.002-.016v-.014c.106-2.847 2.43-5.568 5.396-6.31l.056-.015a6.8 6.8 0 0 1 1.959-.252z" transform="translate(28.529 33.007)scale(.4843)"/><title>Clarity Icon</title><desc>This icon is a part of Clarity icon theme for gtk</desc></svg>