<svg version="1.1" viewBox="0 0 64 64" xmlns="http://www.w3.org/2000/svg">
 <defs>
  <linearGradient id="b" x1="43.38" x2="43.38" y1="11.72" y2="88.47" gradientTransform="matrix(.5108 0 0 .8338 -13.12 -9.769)" gradientUnits="userSpaceOnUse">
   <stop stop-color="#f10" offset="0"/>
   <stop stop-color="#ff115a" offset="1"/>
  </linearGradient>
  <linearGradient id="a" x2="0" y1="1">
   <stop stop-color="#01ff4d" offset="0"/>
   <stop stop-color="#2fff00" offset="1"/>
  </linearGradient>
 </defs>
 <path transform="translate(0) scale(1) translate(.00224) scale(1) translate(1.85 4.5e-5) scale(1) translate(-4.521)" d="m31.15 0c-1.832-4e-3 -3.286 0.259-4.053 1.109-0.361 0.4-0.614 1.04-0.982 2.067-0.367 1.028-0.785 2.404-1.265 4.104-0.958 3.401-2.12 8.08-3.409 13.74-1.877 8.223-0.566 13.07 0.75 15.7 0.815 1.633 1.494 2.89 1.677 4.494s-0.103 3.618-1.37 6.813c-0.911 2.304-1.83 3.64-2.683 4.415-0.826 0.75-1.585 1.002-2.376 1.111-2.11-0.503-3.948-0.772-5.371-0.775-0.721-2e-3 -1.357 0.068-1.86 0.232-0.501 0.163-0.913 0.457-1.085 0.93-0.236 0.647 0.068 1.295 0.594 1.91s1.322 1.251 2.325 1.912c2.006 1.322 4.889 2.71 8.184 3.898 3.296 1.187 6.373 1.951 8.75 2.22 1.192 0.135 2.226 0.16 3.022 0.026 0.796-0.135 1.442-0.438 1.677-1.083 0.172-0.473 0.045-0.967-0.232-1.42s-0.711-0.901-1.265-1.37c-1.092-0.922-2.693-1.928-4.65-2.89-0.846-0.868-1.575-1.561-1.96-2.636-0.396-1.104-0.465-2.69 0.206-5.397 1.322-5.325 2.907-6.891 4.802-8.105 1.896-1.212 4.244-2.037 6.71-5.476 4.125-5.75 5.234-10.21 7.59-16.86 1.251-3.532 2.134-6.11 2.686-7.896 0.276-0.896 0.466-1.581 0.569-2.118 0.102-0.538 0.202-0.89 0-1.292-1.193-2.375-4.104-4.151-7.361-5.397-3.255-1.246-6.885-1.954-9.632-1.96zm0.362 2.452c1.915 0.017 4.412 0.476 6.403 1.188 2.173 0.777 4.236 1.703 5.708 2.582 0.736 0.44 1.316 0.848 1.677 1.213 0.36 0.365 0.452 0.646 0.439 0.722-0.51 2.886-1.484 5.122-1.96 6.352-1.068-0.7-2.27-0.709-3.41-0.334-1.344 0.443-2.712 1.282-4.183 1.91-1.472 0.628-2.999 1.047-4.7 0.724-1.655-0.315-3.517-1.36-5.604-3.72 0.084-0.316 1.661-6.344 2.79-9.938 0.036-0.116 0.241-0.34 0.749-0.49 0.507-0.15 1.246-0.214 2.09-0.206z" fill="url(#b)"/>
 <path transform="translate(0) scale(1) translate(.00224) scale(1) translate(1.85 4.5e-5) scale(1)" d="m41.63 37.57-0.2175 0.02869c-0.441 0.05701-0.7638 0.3266-0.9688 0.626s-0.3194 0.6324-0.4138 0.9027c-0.142 0.393-0.1623 0.7853-0.2167 1.123-0.05286 0.3303-0.1321 0.5931-0.3202 0.8068-0.4119 0.3217-0.9144 0.5776-1.414 0.8766a67.96 67.96 0 0 1-2.024-0.7302l-0.0026-7.55e-4 -0.0023-0.0015c-0.7883-0.2832-1.694-0.0072-2.163 0.6709l-7.55e-4 7.55e-4v0.0015c-0.6041 0.8853-1.124 1.803-1.684 2.682l-0.0019 0.0023-7.55e-4 0.0023c-0.2892 0.4712-0.6977 1.118-0.4478 1.837 0.2008 0.6418 0.6592 1.076 1.111 1.45 0.4304 0.3556 0.8532 0.6724 1.141 1.039 0.04908 0.4138 0.0045 0.8766 6e-3 1.371-0.572 0.5908-1.346 1.068-1.967 1.776l-0.0053 6e-3 -0.0042 0.0057c-0.2945 0.37-0.3568 0.8128-0.3009 1.208 0.0555 0.3945 0.2141 0.7589 0.3662 1.07l3e-3 0.0068 3e-3 0.0049a53.61 53.61 0 0 0 1.594 2.743c0.4183 0.7317 1.322 1.074 2.144 0.8819h3e-3l7.55e-4 -7.55e-4c0.7891-0.1922 1.519-0.4889 2.24-0.7464 0.5089 0.2654 1.004 0.5648 1.501 0.8729 0.219 0.9031 0.3662 1.854 0.7279 2.785l0.0015 3e-3 7.55e-4 0.0023c0.1888 0.4606 0.6173 0.6305 0.8457 0.7921l0.08532 0.06041 0.105-0.0026c1.437-0.03889 2.893 0.03775 4.364-0.0098l0.03096-7.55e-4 0.02945-0.0076c0.757-0.1737 1.249-0.7015 1.518-1.299 0.2643-0.5863 0.3413-1.244 0.3443-1.815 0.05776-0.4919-0.2375-0.9129-0.6192-1.136-0.3794-0.222-0.8846-0.2794-1.308-0.02228-0.4081 0.2277-0.5905 0.6267-0.669 0.9854-0.0589 0.2688-0.07815 0.4953-0.1084 0.7135-0.8174-0.0011-1.633 0.0019-2.444-3e-3a29.07 29.07 0 0 0-0.4227-1.822l-3.77e-4 -0.0042-0.0015-0.0045c-0.2356-0.7973-0.9159-1.304-1.575-1.642l-0.0045-3e-3c-0.5358-0.2851-1.08-0.7298-1.813-0.9091l-0.0076-0.0015-0.0064-7.56e-4c-1.159-0.2292-2.107 0.3598-2.983 0.652-0.4021-0.7302-0.8287-1.436-1.222-2.146 0.5538-0.4515 1.18-0.8865 1.673-1.501 0.6139-0.7343 0.4549-1.656 0.4919-2.326l-7.55e-4 7.55e-4c0.04379-0.7471-0.04908-1.615-0.6592-2.255l-0.0015-7.55e-4v-7.55e-4c-0.4795-0.4976-1.012-0.9061-1.513-1.331 0.4379-0.6807 0.8506-1.367 1.276-2.038 0.7615 0.219 1.577 0.7071 2.59 0.6445 0.6803-0.03247 1.198-0.4096 1.648-0.6652l0.0023-0.0015 0.0045-3e-3c0.6445-0.3862 1.452-0.7702 1.891-1.558v-7.55e-4c0.3745-0.6641 0.5259-1.386 0.6282-2.087 0.8068 0.0076 1.612 0.0064 2.417 0.0015 0.1563 0.6146 0.2858 1.246 0.4625 1.882l0.0038 0.01284 0.0042 0.01246c0.2378 0.6456 0.7294 1.071 1.248 1.4 0.5184 0.3288 1.077 0.5776 1.523 0.8619l0.01208 0.0076 0.01246 0.0057c0.6954 0.3617 1.407 0.2877 2.042 0.1031 0.5565-0.1616 1.063-0.3813 1.544-0.5248 0.3949 0.7124 0.8094 1.406 1.204 2.101-0.7011 0.6203-1.714 1.173-2.063 2.29l-0.0091 0.02869-0.0026 0.02983a13.21 13.21 0 0 0-0.04304 2.446l7.55e-4 0.01246 0.0023 0.01321c0.1095 0.6879 0.515 1.204 0.968 1.629 0.3877 0.3632 0.797 0.6667 1.155 0.9778-0.433 0.6981-0.8495 1.395-1.294 2.068-0.4304-0.1812-0.8895-0.4104-1.453-0.4632h-7.55e-4c-1.007-0.09854-1.74 1.116-1.121 1.907 0.259 0.3526 0.6256 0.5323 0.9707 0.6584 0.3473 0.1269 0.686 0.211 0.9454 0.3349l-0.0053-3e-3c0.8208 0.4104 1.957 0.3141 2.517-0.5112l7.55e-4 -0.0015 0.0015-7.55e-4c0.6781-1.017 1.301-2.062 1.928-3.097 0.3334-0.4946 0.4387-1.164 0.1246-1.728-0.2688-0.5671-0.7324-0.9416-1.161-1.281-0.4123-0.3273-0.7849-0.6312-1.009-0.9982-0.0068-0.487-0.02416-0.948 0.06871-1.351 0.5603-0.598 1.41-1.05 1.997-1.853 0.2847-0.3794 0.3081-0.8287 0.2227-1.209-0.08457-0.3813-0.2605-0.7241-0.3957-1.01l-0.0038-0.0083-0.0045-0.0079c-0.5078-0.9276-1.034-1.85-1.611-2.748-0.4402-0.7385-1.377-0.9997-2.172-0.7962-0.774 0.1854-1.482 0.4832-2.186 0.7226-0.5184-0.2828-1.026-0.5505-1.458-0.8766-0.2367-0.6203-0.2609-1.369-0.5369-2.129a2.152 2.152 0 0 0-0.7173-1.062c-0.3451-0.2767-0.7962-0.4504-1.284-0.3938-1.21 0.02492-2.443-0.0487-3.692 0.0117z" fill="url(#a)" stroke-width=".3775"/>
 <path transform="translate(0) scale(1) translate(.00224) scale(1) translate(1.85 4.5e-5) scale(1)" d="m43.51 44.44q-0.2197-0.0011-0.4402 0.01548c-0.2016 0.01548-0.4013 0.06758-0.6018 0.1068v-0.03322l-0.3938 0.1019h-7.55e-4l-0.0015 0.0015h-0.0023l-7.55e-4 7.55e-4h-7.55e-4c-0.8631 0.2239-1.665 0.6524-2.312 1.244-1.875 1.641-2.202 4.546-0.7434 6.535 1.412 2.058 4.398 2.869 6.728 1.793 2.485-1.026 3.79-3.938 2.824-6.354-0.7188-2.037-2.856-3.396-5.055-3.409zm-0.0185 2.494 7.55e-4 7.55e-4h7.55e-4c1.136 0.0151 2.264 0.7302 2.629 1.74l0.0015 0.0053 0.0023 0.0042c0.3802 0.9556 0.06985 2.129-0.7468 2.813l-3e-3 0.0038-0.0038 0.0026c-0.8393 0.7456-2.242 0.8978-3.246 0.3553l-0.0026-0.0015-3e-3 -0.0019c-0.9121-0.4693-1.499-1.465-1.427-2.427l7.55e-4 -6e-3v-0.0053c0.04002-1.075 0.9174-2.102 2.037-2.382l0.02114-0.0057a2.567 2.567 0 0 1 0.7396-0.09514z" fill="url(#a)" stroke-width=".3775"/>
 <title>Clarity Icon</title>
 <desc>This icon is a part of Clarity icon theme for gtk</desc>
</svg>
