<svg xmlns="http://www.w3.org/2000/svg" viewBox="0 0 64 64"><path fill="#ff0" d="m35.05 35.954.002.008a3.6 3.6 0 0 0-1.467.283 3.7 3.7 0 0 0-1.904 2.188c-1.073 3.694-2.719 9.353-3.752 13.34-.449 1.595-.268 3.297.424 4.682s1.95 2.553 3.498 3.15q.45.17.897.314-.037-.035-.072-.072c-1.807-1.808-2.752-4.102-2.752-6.678s.944-4.87 2.752-6.678 4.102-2.752 6.678-2.752h14.05q1.116.001 2.154.235l1.033-3.602a2.86 2.86 0 0 0-.666-2.627c-.67-.646-1.725-.93-2.627-.702-2.367.686-5.374 1.442-7.965 1.7-2.893.311-6.365-1.12-8.83-2.48a3.7 3.7 0 0 0-1.45-.31z"/><path fill="#00b4f1" d="M18.35 27.874c-3.389-.232-7.189.737-9.786 1.614a6.68 6.68 0 0 0-4.22 4.37c-1.146 3.696-3.019 10.22-4.263 14.54-.232.913.042 1.976.694 2.655a2.9 2.9 0 0 0 2.648.673c2.33-.595 5.053-.965 8.043-1.21 2.787-.255 6.222 1.128 8.717 2.365a3.64 3.64 0 0 0 2.826-.008 3.62 3.62 0 0 0 1.841-2.13c1.142-3.692 2.823-9.447 3.993-13.47.454-1.6.282-3.314-.396-4.71s-1.92-2.584-3.455-3.223c-1.895-.623-4.176-1.288-6.64-1.466z"/><path fill="#91c300" d="M42.4 10.204c-.489.002-.977.1-1.416.29a3.63 3.63 0 0 0-1.834 2.131c-1.146 3.697-2.823 9.446-3.993 13.47-.453 1.6-.28 3.313.397 4.71.678 1.398 1.92 2.586 3.455 3.222 1.892.627 4.18 1.288 6.641 1.466 3.394.232 7.186-.737 9.786-1.614 2.001-.678 3.618-2.345 4.22-4.375 1.146-3.69 3.016-10.21 4.263-14.54.232-.913-.042-1.973-.687-2.656-.685-.645-1.746-.912-2.656-.672-2.328.594-5.056.964-8.043 1.21-2.787.254-6.222-1.13-8.71-2.37A3.6 3.6 0 0 0 42.4 10.2z"/><path fill="#f8682c" d="M25.12 2.417c-3.73-.099-7.044.7-9.297 1.46a6.78 6.78 0 0 0-4.163 4.382c-1.088 3.756-3 10.4-4.242 14.74-.239.906.01 1.963.666 2.626s1.721.926 2.626.7c2.367-.69 5.367-1.44 7.958-1.698 2.893-.312 6.367 1.122 8.837 2.478.895.4 2.011.42 2.918.028a3.68 3.68 0 0 0 1.898-2.188c1.077-3.69 2.723-9.353 3.76-13.34.446-1.6.268-3.296-.425-4.68-.692-1.385-1.954-2.553-3.505-3.15-2.402-.909-4.793-1.294-7.03-1.353z"/><path fill="#f0f" d="M39.35 44.734q-3.51 0-5.97 2.458-2.46 2.46-2.459 5.97c.001 3.512.82 4.332 2.458 5.972q2.46 2.458 5.971 2.458H53.4q3.512 0 5.971-2.458c2.46-2.458 2.458-3.63 2.458-5.97s-.819-4.332-2.458-5.972q-2.459-2.459-5.97-2.458zm0 2.81H53.4q2.317 0 3.967 1.652 1.651 1.65 1.652 3.967c.001 2.317-.55 2.867-1.652 3.967q-1.65 1.651-3.967 1.652H39.35q-2.317 0-3.967-1.652-1.65-1.65-1.652-3.967c0-2.317.552-2.867 1.652-3.967q1.65-1.65 3.967-1.652M53.4 48.95q-1.756 0-2.985 1.23t-1.229 2.984c0 1.755.41 2.166 1.23 2.985q1.23 1.23 2.984 1.23c1.755 0 2.166-.41 2.985-1.23q1.23-1.229 1.23-2.985c0-1.756-.41-2.166-1.23-2.985q-1.23-1.23-2.985-1.23"/></svg>