<svg xmlns="http://www.w3.org/2000/svg" xmlns:xlink="http://www.w3.org/1999/xlink" viewBox="0 0 64 64"><defs><linearGradient id="a"><stop offset="0" stop-color="#21509f"/><stop offset="1" stop-color="#49ade5"/></linearGradient><linearGradient xlink:href="#a" id="c" x1="313.6" x2="261.5" y1="65.05" y2="216.9" gradientTransform="translate(-64.36 -64.36)scale(1.335)" gradientUnits="userSpaceOnUse"/><linearGradient xlink:href="#a" id="b" x1="205.1" x2="140.9" y1="69.7" y2="228.8" gradientTransform="translate(-64.36 -64.36)scale(1.335)" gradientUnits="userSpaceOnUse"/></defs><path fill-opacity=".937" d="m43.649 6.501-6.127 20.74-2.603-9.11-14.548 2.91-4.641 12.846-4.088-18.669-11.639 2.91 8.73 35.121 11.638 1.83 5.163-13.115 3.476 14.092 17.548 2.804L64.017 9.393z" opacity=".3"/><path fill="url(#b)" d="M127.9 127.9 63.81 305.3l64.09 10.08 80.11-203.5z" transform="translate(-2.859 -3.541)scale(.1816)"/><path fill="url(#c)" d="m256.1 47.8-80.61 273 96.63 15.44 96.14-272.4z" transform="translate(-2.859 -3.541)scale(.1816)"/><g opacity=".3"><path d="m.827 16.787 8.73 35.121 11.639 1.83-8.73-39.86zM21.185 19.692l8.639 35.013 17.548 2.804-11.64-40.733z" opacity=".3"/></g><g fill="#21509f"><path d="m0 16.773 8.727 35.105 11.637 1.83-8.728-39.856zM20.364 19.682l8.638 35.008 17.545 2.805-11.637-40.73z"/></g></svg>