<svg version="1.1" viewBox="0 0 64 64" xmlns="http://www.w3.org/2000/svg">
 <defs>
  <linearGradient id="c" x2="0" y1="1">
   <stop stop-color="#5433ff" offset="0"/>
   <stop stop-color="#20bdff" offset=".5"/>
   <stop stop-color="#a5fecb" offset="1"/>
  </linearGradient>
  <linearGradient id="a" y2="1">
   <stop stop-color="#fa00ff" offset="0"/>
   <stop stop-color="red" offset="1"/>
  </linearGradient>
 </defs>
 <path transform="translate(-1e-6) scale(.9999) translate(8e-5 .00257) scale(1) translate(-.01 .006) scale(4)" d="M11.5 9.376za5.02 5.02 0 0 0-4.498 2.81 5.03 5.03 0 0 0 4.498 2.812 5.03 5.03 0 0 0 4.504-2.822A5.02 5.02 0 0 0 11.5 9.376m.002 1.124a1.69 1.69 0 1 1 .002 3.378 1.69 1.69 0 0 1-.002-3.378m0 1.125a.562.562 0 1 0 0 1.125.562.562 0 0 0 0-1.125" fill="url(#a)"/>
 <path transform="translate(-1e-6) scale(.9999) translate(8e-5 .00257) scale(1) translate(-.01 .006) scale(4)" d="M1.186 1A1.142 1.142 0 0 0 .047 2.457l3.047 10.66c.287 1.002 1.655 1.13 2.121.197l2.787-5.572.637 1.272a6.8 6.8 0 0 1 2.25-.609c-.466-.93-1.175-2.347-1.863-3.725a1.143 1.143 0 0 0-2.045 0L4.485 9.666l-2.24-7.838A1.14 1.14 0 0 0 1.186 1zm13.63 0c-.494.018-.92.352-1.057.828l-1.871 6.56c.777.044 1.528.22 2.228.512q.92-3.222 1.84-6.443a1.14 1.14 0 0 0-1.141-1.455z" fill="url(#c)"/>
</svg>
