<svg xmlns="http://www.w3.org/2000/svg" xmlns:xlink="http://www.w3.org/1999/xlink" viewBox="0 0 64 64"><defs><linearGradient id="a" x1="1" x2="0" y2="1"><stop offset="0" stop-color="#00efff"/><stop offset="1" stop-color="#07f"/></linearGradient><linearGradient xlink:href="#a" id="b" x1="26.56" x2="4.663" y1="14.04" y2="35.94" gradientTransform="matrix(1.108 0 0 .8188 27.9 1.518)" gradientUnits="userSpaceOnUse"/><linearGradient xlink:href="#a" id="e" x1="26.57" x2="4.664" y1="38.52" y2="60.42" gradientTransform="matrix(1.108 0 0 .819 1.524 -18.54)" gradientUnits="userSpaceOnUse"/><linearGradient xlink:href="#a" id="c" x1="50.37" x2="28.47" y1="14.04" y2="35.94" gradientTransform="matrix(1.108 0 0 .8188 -24.85 21.57)" gradientUnits="userSpaceOnUse"/></defs><path fill="url(#a)" d="M7.58 5.381c-5.047 0-9.18 4.126-9.18 9.17v34.9c0 5.047 4.135 9.17 9.18 9.17h48.84c5.047 0 9.17-4.123 9.17-9.17v-34.9c0-5.047-4.123-9.17-9.17-9.17zm0 4.396h48.84c2.685 0 4.773 2.089 4.773 4.773v34.9c0 2.685-2.087 4.775-4.773 4.775H7.58c-2.685 0-4.783-2.088-4.783-4.775v-34.9c0-2.685 2.099-4.773 4.783-4.773" transform="translate(1.524 1.518)scale(.9525)"/><path fill="url(#b)" d="M36.23 13.01a3.157 3.157 0 0 0-3.164 3.166v11.6a3.156 3.156 0 0 0 3.164 3.164h17.94a3.156 3.156 0 0 0 3.164-3.164v-11.6a3.157 3.157 0 0 0-3.164-3.166z" opacity=".75"/><path fill="url(#a)" d="M36.44 33.12a3.315 3.315 0 0 0-3.324 3.322v12.19a3.315 3.315 0 0 0 3.324 3.322h18.83a3.315 3.315 0 0 0 3.324-3.322v-12.19a3.315 3.315 0 0 0-3.324-3.322z" opacity=".25" transform="translate(1.524 1.518)scale(.9525)"/><path fill="url(#c)" d="M9.855 33.07a3.16 3.16 0 0 0-3.166 3.166v11.6A3.157 3.157 0 0 0 9.855 51h17.94a3.157 3.157 0 0 0 3.166-3.164v-11.6a3.16 3.16 0 0 0-3.166-3.166z" opacity=".25"/><path fill="url(#e)" d="M9.855 13.01a3.156 3.156 0 0 0-3.164 3.164v11.61a3.156 3.156 0 0 0 3.164 3.164h17.94a3.156 3.156 0 0 0 3.164-3.164v-11.61a3.156 3.156 0 0 0-3.164-3.164z" opacity=".25"/></svg>