<svg xmlns="http://www.w3.org/2000/svg" viewBox="0 0 64 64"><defs><linearGradient id="a" x2="0" y2="1"><stop offset="0" stop-color="#00fffa"/><stop offset="1" stop-color="#0078ff"/></linearGradient></defs><path fill="url(#a)" d="M7.984 2a6.005 6.005 0 0 0-5.74 4.309 6 6 0 0 0 2.496 6.728.8.8 0 0 0 1.107-.236.8.8 0 0 0-.238-1.107 4.39 4.39 0 0 1-1.83-4.934A4.39 4.39 0 0 1 7.988 3.6c1.952-.005 3.667 1.269 4.227 3.139s-.172 3.875-1.805 4.943a.8.8 0 0 0-.233 1.107.8.8 0 0 0 1.107.232 6.01 6.01 0 0 0 2.463-6.742A6.01 6.01 0 0 0 7.983 2z" transform="translate(-10.672 -8.452)scale(5.334)"/><path fill="url(#a)" d="M7.984 4.486a3.51 3.51 0 0 0-3.334 2.48 3.51 3.51 0 0 0 1.387 3.918.78.78 0 0 0 1.08-.207.78.78 0 0 0-.207-1.08c-.709-.48-1.021-1.359-.771-2.178s.997-1.375 1.854-1.379a1.94 1.94 0 0 1 1.863 1.363 1.94 1.94 0 0 1-.752 2.184.78.78 0 0 0-.198 1.082.78.78 0 0 0 1.082.197c1.261-.87 1.81-2.468 1.352-3.93s-1.824-2.458-3.356-2.45" transform="translate(-10.672 -8.452)scale(5.334)"/><path fill="url(#a)" d="M8 7a1 1 0 0 0-1 1 1 1 0 0 0 1 1 1 1 0 0 0 1-1 1 1 0 0 0-1-1" transform="translate(-10.672 -8.452)scale(5.334)"/></svg>