<svg xmlns="http://www.w3.org/2000/svg" viewBox="0 0 64 64"><defs><linearGradient id="a" y1="1"><stop offset="0" stop-color="#00f0ff"/><stop offset="1" stop-color="#0070e0"/></linearGradient></defs><path fill="url(#a)" d="M18.49 2.23a3.35 3.35 0 0 0-1.416.342c-.36.181-.695.438-.963.773-.254.318-.44.713-.527 1.144-.1.421-.122.84-.076 1.228.048.41.161.787.3 1.131.136.336.297.641.46.928.16.283.322.549.468.797a8 8 0 0 1 .4.75q.216.415.409.832.19.413.342.822.15.412.244.814.092.404.115.793c.013.234 0 .463-.03.692l-.109.273a66 66 0 0 1-.74 1.75q-.19.438-.385.875l-.389.88-.39.882-.182.418-.13-.326-.348-.867-.346-.868-.348-.867-.345-.865-.348-.867-.346-.867-.348-.866-.345-.867-.196-.486v-.004l-.002-.002-.15-.375-.346-.867-.144-.362h1.723a1 1 0 1 0 0-2h-5a1 1 0 1 0 0 2h1.123l.096.239.345.867.348.865.012.03-.217.537-.363.91-.364.908-.363.91-.363.908-.364.91-.365.909-.363.908-.162.406-.112-.277-.347-.867-.346-.868-.348-.867-.345-.865-.348-.867-.346-.867-.347-.866-.346-.867-.348-.867-.346-.867-.144-.361h1.723a1 1 0 1 0 0-2h-5a1 1 0 1 0 0 2h1.123l.096.238.345.867.348.865.346.867.347.868.346.867.348.865.346.867.347.867.346.866.348.867.345.867.348.867.346.865.347.868c.108.268.431.459.72.486.41.04.915-.081 1.136-.486l.365-.908.364-.91.363-.909.363-.91.364-.908.363-.91.365-.909.363-.908.163-.406.298.744.346.867.348.867.345.866.348.867.346.867.348.867.345.865.348.868c.336.84 1.528.837 1.859-.006a53 53 0 0 1 .72-1.75q.189-.436.382-.873l.386-.877.389-.881q.196-.441.39-.885.195-.444.385-.893.19-.448.375-.9a51 51 0 0 0 .705-1.836 35 35 0 0 0 .616-1.887q.139-.476.261-.963a24 24 0 0 0 .23-1.021q.073-.44.114-.91c.026-.306.041-.62.037-.938a8 8 0 0 0-.072-.967 6 6 0 0 0-.225-.984 5 5 0 0 0-.43-.967 4.4 4.4 0 0 0-.732-.93 2.9 2.9 0 0 0-1.096-.564 3.2 3.2 0 0 0-.879-.11zm.027 2c.114-.001.226.012.327.04.12.032.22.09.308.155a2.4 2.4 0 0 1 .57.989l.002.002q.098.305.147.652.048.342.053.709t-.03.742q-.033.383-.095.758v.002q-.09.43-.198.855c-.038.155-.083.307-.125.461-.039-.09-.072-.187-.113-.275q-.21-.451-.428-.871l-.015-.032c-.142-.305-.302-.59-.46-.857-.158-.27-.315-.525-.452-.768a6 6 0 0 1-.346-.693 2.4 2.4 0 0 1-.168-.615 1.5 1.5 0 0 1 .045-.594.65.65 0 0 1 .136-.297c.07-.088.17-.17.297-.234a1.3 1.3 0 0 1 .545-.13z" transform="translate(-.006 -3.362)scale(2.919)"/></svg>