<svg version="1.1" viewBox="0 0 64 64" xmlns="http://www.w3.org/2000/svg">
 <defs>
  <linearGradient id="a" y1="1">
   <stop stop-color="#00d2ff" offset="0"/>
   <stop stop-color="#0006ff" offset="1"/>
  </linearGradient>
 </defs>
 <path transform="translate(0) scale(1) translate(-4.571 -4.571) scale(4.571)" d="m2.5 1a1.5 1.5 0 0 0-1.5 1.5v11a1.5 1.5 0 0 0 2.51 1.109l4.49-4.082 4.49 4.082a1.5 1.5 0 0 0 2.51-1.109v-11a1.5 1.5 0 0 0-1.5-1.5 1.5 1.5 0 0 0-1.5 1.5v7.609l-2.99-2.719a1.5 1.5 0 0 0-2.02 0l-2.99 2.719v-7.609a1.5 1.5 0 0 0-1.5-1.5z" fill="url(#a)"/>
</svg>
