<svg xmlns="http://www.w3.org/2000/svg" style="isolation:isolate" viewBox="0 0 64 64"><linearGradient id="a" x1=".724" x2=".221" y1=".639" y2=".129" gradientTransform="matrix(47.5 0 0 32.29 .25 7.854)" gradientUnits="userSpaceOnUse" transform="translate(-.337 -.337)scale(1.347)"><stop offset="0" stop-color="#b355a9"/><stop offset=".504" stop-color="#f58b7b"/><stop offset=".979" stop-color="#f9ac50"/></linearGradient><path fill="url(#a)" fill-rule="evenodd" d="M13.1 30.36h15.308v2.935H6.38L4.697 37.21h29.05l2.201-5.881-4.912-3.925 3.91-9.766H19.598v-2.935h22.028l1.683-3.915h-29.12l-3.024 6.801 5.872 3.915-3.932 8.856zm25-12.72-.023.059-3.504 8.768 4.874 3.905-3.67 9.775H.247l4.188-9.785h5.452l.048-.108 3.415-7.672-5.871-3.914 4.804-10.81h35.46l-4.188 9.785h-5.457zm-15.08 3.425-1.957 4.893h5.872l1.957-4.893z" transform="translate(-.337 -.337)scale(1.347)"/></svg>