<svg xmlns="http://www.w3.org/2000/svg" viewBox="0 0 64 64"><defs><linearGradient id="b" x1="1" x2="0" y1="1"><stop offset="0" stop-color="#fda700"/><stop offset="1" stop-color="#ffde00"/></linearGradient><linearGradient id="a" x1="1" x2="0" y2="1"><stop offset="0" stop-color="#fd5"/><stop offset="1" stop-color="#ff45ff"/></linearGradient></defs><path fill="url(#a)" d="M14.97.121q-.611 0-1.129.016c-1.253.034-2.34.516-3.133 1.297.529.47.881 1.136.94 1.88.447-.755 1.247-1.238 2.246-1.265q.175-.006.363-.01v.002l.008.043c.102.513.214 1.384.214 2.732q0 .165-.002.32a.96.96 0 0 0 .522.865c1.243.637 2.196 1.694 2.732 3.027a.96.96 0 0 0 1.016.59 12 12 0 0 1 1.162-.107.1.1 0 0 1 .047.006q.014.005.025.017c.017.016.042.05.047.112.031.41.057.973.057 1.707s-.026 1.3-.057 1.709c-.005.062-.03.096-.047.11a.1.1 0 0 1-.025.017.1.1 0 0 1-.047.007 12 12 0 0 1-.883-.07.96.96 0 0 0-1.035.709 6.1 6.1 0 0 1-1.186 2.355.96.96 0 0 0-.13 1.008 53 53 0 0 1 .777 1.777c.07.169.015.324-.086.4-.187.141-.352.256-.47.323-.119.069-.307.154-.528.246-.117.048-.277.02-.387-.121a55 55 0 0 1-1.045-1.391.96.96 0 0 0-1.033-.36 6.6 6.6 0 0 1-1.613.243q-.913.025-1.992.025t-1.99-.025a6.6 6.6 0 0 1-1.615-.243.96.96 0 0 0-1.033.36 54 54 0 0 1-1.041 1.39c-.11.143-.27.17-.387.122a5 5 0 0 1-.53-.246 5 5 0 0 1-.468-.323c-.1-.076-.158-.231-.088-.4.202-.484.472-1.115.777-1.777a.96.96 0 0 0-.128-1.008c-.879-1.068-1.404-2.49-1.41-4.119v-.498c.007-1.888.707-3.511 1.889-4.631l.056-.053a5.8 5.8 0 0 1 2.531-1.363 2.8 2.8 0 0 1-.822-1.758 7.7 7.7 0 0 0-2.758 1.49v.002c-.741-.042-1.367-.682-1.367-1.395 0-.738.671-1.395 1.445-1.395.434 0 .657.116.752.192.09.072.094.125.094.134a.957.957 0 0 0 1.863.274q.017-.113.045-.223l.003-.05c0-1.358-1.237-2.24-2.758-2.24C1.594.556 0 2.003 0 3.864c0 1.312.795 2.42 1.881 2.96C.985 8.15.475 9.784.468 11.57v.512c.008 1.82.535 3.49 1.48 4.84-.22.493-.414.95-.569 1.318-.385.922-.142 2.024.7 2.66a7 7 0 0 0 .67.457 7 7 0 0 0 .751.356c.962.396 2.024.06 2.63-.72.202-.26.44-.574.698-.921a8.6 8.6 0 0 0 1.43.156c.628.017 1.306.025 2.043.025a75 75 0 0 0 2.043-.025 8.6 8.6 0 0 0 1.428-.158 54 54 0 0 0 .702.924c.604.78 1.668 1.116 2.629.718.243-.1.52-.224.75-.355.223-.128.466-.3.671-.455.842-.636 1.084-1.742.7-2.664-.154-.37-.35-.825-.57-1.316A8 8 0 0 0 19.6 15.1l.244.012c1.142.04 2.012-.835 2.094-1.902.034-.461.062-1.073.062-1.854 0-.78-.028-1.391-.062-1.852-.082-1.068-.952-1.944-2.094-1.902q-.315.011-.64.04a7.7 7.7 0 0 0-2.81-3.052c-.012-1.334-.125-2.264-.25-2.885a6 6 0 0 0-.191-.743 3 3 0 0 0-.078-.205l-.04-.091-.003-.01-.004-.006V.648h-.002L15.7.71l.127-.064a.96.96 0 0 0-.856-.527zm-.318 7.697a.957.957 0 0 0-.953.957v.467a.957.957 0 0 0 1.91 0v-.467a.957.957 0 0 0-.957-.957" transform="translate(.004 -.006)scale(2.909)"/><path fill="url(#a)" d="M9.51 6.525c-.918.02-1.8.204-2.619.533a1.233 1.233 0 0 0 .918 2.29 5.1 5.1 0 0 1 2.396-.333 1.233 1.233 0 0 0 .398-2.428 1 1 0 0 0-.166-.027 8 8 0 0 0-.927-.035z" transform="translate(.004 -.006)scale(2.909)"/><path fill="url(#b)" d="M8.84 1.223a2.31 2.31 0 0 0-2.312 2.316A2.31 2.31 0 0 0 8.84 5.848a2.31 2.31 0 0 0 2.314-2.309A2.31 2.31 0 0 0 8.84 1.223" transform="translate(.004 -.006)scale(2.909)"/></svg>