<svg xmlns="http://www.w3.org/2000/svg" fill="none" viewBox="0 0 64 64"><defs><linearGradient id="a" x1="32" x2="32" y1="58" y2="6" gradientUnits="userSpaceOnUse"><stop offset="0" stop-color="#fd5900"/><stop offset="1" stop-color="#ffde00"/></linearGradient></defs><path fill="url(#a)" d="M19 6a13 13 0 0 0 0 26 13 13 0 1 0 13 13q-.007-.445-.046-.889l.046.006h.03q-.03.44-.03.883a13 13 0 1 0 12.999-12.999l-.046.005v-.005H45A13 13 0 1 0 32.03 18.117h-.076A12.999 12.999 0 0 0 19 6zm25.97 7.734a5.2 5.2 0 0 1 5.235 4.777c.07.868-.078 1.74-.431 2.536-1.524 3.554-2.842 7.166-5.47 10.43-2.626 3.263-7.13 5.722-12.31 5.722-3.108 0-3.076.14-3.915 1.127-.84.988-2.228 3.968-4.322 8.755a5.203 5.203 0 0 1-6.904 2.812 5.19 5.19 0 0 1-2.784-2.935 5.2 5.2 0 0 1 .161-4.043c2.034-4.65 3.242-8.17 5.92-11.32C22.831 28.44 27.3 26.8 31.99 26.8c2.621 0 3.063-.419 4.21-1.843s2.43-4.312 4.012-8.003a5.2 5.2 0 0 1 4.754-3.22zM19 13.8a5.2 5.2 0 1 1 0 10.4 5.2 5.2 0 0 1 0-10.4m26 26a5.2 5.2 0 1 1 0 10.4 5.2 5.2 0 0 1 0-10.4" transform="translate(-7.384 -7.385)scale(1.231)"/></svg>