<svg xmlns="http://www.w3.org/2000/svg" style="isolation:isolate" viewBox="0 0 64 64"><linearGradient id="a" x2="1" y1=".5" y2=".5" gradientTransform="matrix(45.87 0 0 42 1.063 3)" gradientUnits="userSpaceOnUse" transform="translate(-1.483 -1.483)scale(1.395)"><stop offset="0" stop-color="#ffe53b"/><stop offset=".987" stop-color="#ff005b"/></linearGradient><path fill="url(#a)" fill-rule="evenodd" d="M29.8 10.95c.574-.938 1.804-1.232 2.745-.655s1.235 1.811.655 2.755l-7.967 12.94c-.868 1.41-2.379 1.479-3.372.155l-9.521-12.7c-.331-.441-.819-.409-1.09.072l-5.97 10.62c-.27.481-.275 1.265-.011 1.75l4.991 9.152a2.007 2.007 0 0 1-.805 2.715 2.006 2.006 0 0 1-2.715-.795l-5.093-9.336c-.793-1.454-.778-3.806.034-5.249l8.108-14.41c.812-1.443 2.278-1.54 3.272-.215l9.679 12.9c.331.442.835.418 1.124-.052zM26.5 41a2 2 0 0 1 0 4H14.39c-1.656 0-2.443-1.224-1.758-2.731l5.048-11.1a2.001 2.001 0 0 1 3.64 1.66l-3.296 7.259c-.229.503.034.911.586.911zm-8-34a2 2 0 0 1 0-4h15.24c1.656 0 3.601 1.203 4.341 2.684l8.349 16.71c.739 1.481.659 3.843-.18 5.27l-9.08 15.45c-.839 1.427-2.291 1.485-3.241.129l-7.069-10.09a2.004 2.004 0 0 1 3.28-2.3l4.637 6.631c.316.452.801.433 1.081-.043l6.865-11.66c.28-.476.307-1.263.06-1.756l-8.075-16.13c-.247-.493-.896-.894-1.448-.894H18.5z" transform="translate(-1.483 -1.483)scale(1.395)"/></svg>