<svg version="1.1" viewBox="0 0 64 64" xmlns="http://www.w3.org/2000/svg">
 <defs>
  <linearGradient id="a" y1="1">
   <stop stop-color="#43e97b" offset="0"/>
   <stop stop-color="#38f9d7" offset=".9783"/>
  </linearGradient>
 </defs>
 <path transform="translate(-.008531 -.001) scale(1) translate(2.266 2.788) scale(.929)" d="m32.01-3c-18.99 0-34.44 15.46-34.44 34.44s15.46 34.44 34.44 34.44 34.44-15.46 34.44-34.44-15.46-34.44-34.44-34.44zm0 6.002c15.74 0 28.44 12.7 28.44 28.44s-12.7 28.44-28.44 28.44-28.44-12.7-28.44-28.44 12.7-28.44 28.44-28.44z" fill="url(#a)"/>
 <path transform="translate(-.008531 -.001) scale(1) translate(2.266 2.788) scale(.929)" d="m17.48 14.72a1 1 0 0 0-0.7949 1.606c3.617 4.765 7.232 9.53 10.85 14.3-4.039 5.1-8.208 10.23-11.41 16.06a1 1 0 0 0 0.877 1.48h5.762a1 1 0 0 0 0.8613-0.4941c2.433-4.15 5.428-7.975 8.469-11.79 2.908 3.725 5.61 7.609 7.81 11.75a1 1 0 0 0 0.8848 0.5312h6.234a1 1 0 0 0 0.8887-1.461c-3.072-5.936-7.141-11.18-11.04-16.42 3.317-4.661 6.633-9.322 9.949-13.99a1 1 0 0 0-0.8164-1.58h-5.963a1 1 0 0 0-0.8144 0.4219l-7.012 9.873-7.646-9.906a1 1 0 0 0-0.791-0.3887z" fill="url(#a)"/>
</svg>
