<svg xmlns="http://www.w3.org/2000/svg" fill="none" viewBox="0 0 64 64"><defs><linearGradient id="a" x1="16.5" x2="16.5" y1="34" y2="23" gradientUnits="userSpaceOnUse"><stop offset="0" stop-color="#5570ff"/><stop offset="1" stop-color="#4dd3ff"/></linearGradient><linearGradient id="b" x1="3" x2="3" y1="11" y2="54" gradientUnits="userSpaceOnUse"><stop offset="0" stop-color="#fff"/><stop offset="1" stop-color="#b5b5b5"/></linearGradient><linearGradient id="d" x1="40.5" x2="40.5" y1="46" y2="29" gradientUnits="userSpaceOnUse"><stop offset="0" stop-color="#5570ff"/><stop offset="1" stop-color="#4dd3ff"/></linearGradient></defs><path fill="url(#a)" fill-rule="evenodd" d="M22 28.5a5.5 5.5 0 1 1-11 0 5.5 5.5 0 1 1 11 0m-4 0a1.5 1.5 0 1 1-3 0 1.5 1.5 0 0 1 3 0" clip-rule="evenodd" transform="translate(0 -.5)"/><path fill="url(#b)" d="m23.39 41.17 2.821-1.022-1.004-2.773-2.79.957zm7.905-23.19-2.51 1.643 1.619 2.473 2.497-1.581-1.605-2.534zm-12.88 27.01c2.077 0 4.08-.347 5.95-.988l-1.946-5.676c-1.252.43-2.598.663-4.003.663zM.005 26.49c0 10.2 8.227 18.5 18.41 18.5v-6c-6.838 0-12.41-5.58-12.41-12.5zm18.41-18.5c-10.18 0-18.41 8.299-18.41 18.5h6c0-6.92 5.573-12.5 12.41-12.5zm15.39 8.345c-3.284-5.016-8.947-8.345-15.39-8.345v6c4.326 0 8.144 2.228 10.37 5.631zm7.808-4.345a22.2 22.2 0 0 0-11.92 3.453l3.211 5.069a16.2 16.2 0 0 1 8.713-2.522v-6zm22.39 22.5c0-12.41-10.01-22.5-22.39-22.5v6c9.035 0 16.39 7.371 16.39 16.5zm-22.39 22.5c12.38 0 22.39-10.09 22.39-22.5h-6c0 9.129-7.354 16.5-16.39 16.5zm-21.04-14.8c3.123 8.624 11.36 14.8 21.04 14.8v-6c-7.066 0-13.11-4.506-15.4-10.85l-5.641 2.043z" transform="translate(0 -.5)"/><path fill="url(#d)" fill-rule="evenodd" d="M49 37.5a8.5 8.5 0 1 1-17.001-.001A8.5 8.5 0 0 1 49 37.5m-6 0a2.5 2.5 0 1 1-5 0 2.5 2.5 0 0 1 5 0" clip-rule="evenodd" transform="translate(0 -.5)"/></svg>