<svg xmlns="http://www.w3.org/2000/svg" viewBox="0 0 64 64"><defs><linearGradient id="b" x1="1" x2="0" y2="1"><stop offset="0" stop-color="#9a16ff"/><stop offset="1" stop-color="#f712ff"/></linearGradient><linearGradient id="a" y2="1"><stop offset="0" stop-color="#00f4ff"/><stop offset="1" stop-color="#0037dc"/></linearGradient></defs><path fill="url(#a)" d="M46.4 13.6c-1.994 0-3.6 1.34-3.6 3.002v30c0 1.662 1.606 3.002 3.6 3.002s3.6-1.34 3.6-3.002v-30c0-1.662-1.606-3.002-3.6-3.002" transform="translate(-15.416 -14.826)scale(1.48184)"/><path fill="url(#a)" d="M32 13.6c-1.994 0-3.6 1.34-3.6 3.002v30c0 1.662 1.606 3.002 3.6 3.002s3.6-1.34 3.6-3.002v-30c0-1.662-1.606-3.002-3.6-3.002" transform="translate(-15.416 -14.826)scale(1.48184)"/><path fill="url(#a)" d="M17.6 13.6c-1.994 0-3.6 1.34-3.6 3.002v30c0 1.662 1.606 3.002 3.6 3.002s3.6-1.34 3.6-3.002v-30c0-1.662-1.606-3.002-3.6-3.002" transform="translate(-15.416 -14.826)scale(1.48184)"/><path fill="url(#b)" d="M17.6 20.8a7.197 7.197 0 0 0-7.197 7.197 7.197 7.197 0 0 0 7.197 7.197 7.197 7.197 0 0 0 7.197-7.197A7.197 7.197 0 0 0 17.6 20.8" transform="translate(-15.416 -14.826)scale(1.48184)"/><path fill="url(#b)" d="M32 31.61a7.197 7.197 0 0 0-7.197 7.197A7.197 7.197 0 0 0 32 46.004a7.197 7.197 0 0 0 7.197-7.197A7.197 7.197 0 0 0 32 31.61" transform="translate(-15.416 -14.826)scale(1.48184)"/><path fill="url(#b)" d="M46.4 24.4a7.197 7.197 0 0 0-7.197 7.197 7.197 7.197 0 0 0 7.197 7.197 7.197 7.197 0 0 0 7.197-7.197A7.197 7.197 0 0 0 46.4 24.4" transform="translate(-15.416 -14.826)scale(1.48184)"/></svg>