<svg xmlns="http://www.w3.org/2000/svg" viewBox="0 0 64 64"><defs><linearGradient id="a" x2="0" y2="1"><stop offset="0" stop-color="#ff00d2"/><stop offset="1" stop-color="#ff4de0"/></linearGradient></defs><path fill="url(#a)" d="M31.77 0A31.99 31.99 0 0 0 .15 28.48a2.728 2.728 0 0 0 5.422.602 26.55 26.55 0 0 1 26.23-23.64A2.724 2.724 0 1 0 31.772 0zm13.74 3.297a2.913 2.913 0 0 0-1.318 5.492l.006.006a26.3 26.3 0 0 1 11.41 11.8 2.922 2.922 0 1 0 5.248-2.56 32.16 32.16 0 0 0-13.95-14.4 2.9 2.9 0 0 0-1.393-.334zm15.59 28.29-.006.004a2.724 2.724 0 0 0-2.648 2.51 26.54 26.54 0 0 1-8.445 17.4 26.48 26.48 0 0 1-18 7.06l-.889-.018a2.727 2.727 0 0 0-.078 5.45l.897.011h.04a32.02 32.02 0 0 0 31.91-29.49 2.735 2.735 0 0 0-2.784-2.934zM4.73 39.79a2.727 2.727 0 0 0-2.637 3.707 32.18 32.18 0 0 0 13.58 16.05 2.724 2.724 0 1 0 2.779-4.686 26.6 26.6 0 0 1-11.27-13.32 2.71 2.71 0 0 0-2.455-1.736z" transform="translate(-.01 .004)scale(.9998)"/><path fill="url(#a)" d="M34.56 23.28c-3.521 0-6.676 1.764-9.106 4.068-.789.792-3.457 3.338-3.457 4.432 0 .364.363.793.791.793 1.088 0 4-5.289 6.24-5.289.486 0 1.032.547.607 1.639l-4.248 10.69c-.425 1.036-2.488 6.015-2.488 8.928 0 2.308 1.52 3.33 3.705 3.33 6.131 0 13.23-7.527 13.23-9.287 0-.547-.424-.906-.726-.906-.85 0-4.19 5.152-6.012 5.152-.486 0-.729-.422-.729-.844 0-.972.67-2.494 1.037-3.404l4.37-11.84c2.181-5.893-.601-7.467-3.212-7.467z" transform="translate(-.01 .004)scale(.9998)"/><path fill="url(#a)" d="M37.9 12.11c-2.67.002-4.971 2.186-4.971 4.859h-.006c0 2.491 1.642 4.13 4.133 4.133 2.732 0 5.035-2.069 5.035-4.865 0-2.49-1.759-4.125-4.188-4.127z" transform="translate(-.01 .004)scale(.9998)"/></svg>