<svg xmlns="http://www.w3.org/2000/svg" viewBox="0 0 64 64"><defs><linearGradient id="a" y1=".5" y2=".5"><stop offset="0" stop-color="#5433ff"/><stop offset=".517" stop-color="#20bdff"/><stop offset=".983" stop-color="#a5fecb"/></linearGradient></defs><path fill="url(#a)" d="M40.15 82.44c-.934.511 7.466 5.988 23.16 12.45 15.7 6.463 37.38 22.84 35.68 25.48-5.099 7.182-8.101 15.77-6.025 30.49.374 2.59-7.676 7.081-7.09 10.99.49 2.974 8.996-2.94 9.926-1.772.57 2.098-4.552 12.71-2.482 13.47 1.513.449 14.82-12.63 15.6-12.41 21.94 6.634 50.5 1.629 51.05 1.418-.053-.115 20.54 9.681 22.33 8.51 4.516-4.891-8.561-11.78-6.381-14.54.956-1.441 15.92 5.416 16.66 3.545 1.073-3.239-6.948-10.04-8.154-12.05-1.05-1.858-1.274-4.859 1.418-6.736s30.22-12.41 29.07-20.56c-1.996-14.81-34.92-15.77-35.45-17.02-.249-.586 1.454-21.17-8.152-17.37-5.914 2.201-1.09 15.32-.707 17.02.352 1.562-2.629 1.394-3.191.709-1.255-1.532-5.395-15.2-10.28-12.76-6.853 3.778-.404 15.57-1.772 15.95-2.539 1.418-2.393 4.883-4.428 7.707-3.356 4.809-28.47-2.253-36.59-2.744-5.942-.351-11.62 4.518-12.16 3.898-7.236-7.246-22.21-19.86-38.61-24.05-9.198-2.496-22.88-9.719-23.43-9.627zm167.5 13.25-.002.002h-.002c-.537.148-2.767 11.63-1.693 12.15.948.709 2.599-11.5 1.734-12.13a.1.1 0 0 0-.022-.016l-.006-.002h-.008zm8.125 1.559c-1.243-.022-7.884 10.57-6.357 11.7.947.709 6.867-11.26 6.461-11.66a.16.16 0 0 0-.103-.037zm-32.13 12.9c1.57 0 2.842 1.448 2.842 3.236 0 1.787-1.272 3.236-2.842 3.236s-2.844-1.449-2.844-3.236 1.273-3.236 2.844-3.236m-6.383 1.967c1.208 5.213 3.097 6.87 8.754 6.703-7.201 6.603-11.58-4.706-8.754-6.703m15.57 13.63c.295.011.524.08.672.223 2.837 1.028-12.19 6.436-12.29 5.672-.156-.546 8.769-6.003 11.62-5.894zm1.639 3.461q.166.006.295.072c2.677 2.66-8.477 8.557-8.352 8.35-.914-.552 5.834-8.496 8.057-8.422z" transform="translate(-14.589 -14.592)scale(.364)"/></svg>