<svg xmlns="http://www.w3.org/2000/svg" viewBox="0 0 64 64"><defs><linearGradient id="a" x1="1" x2="0" y2="1"><stop offset="0" stop-color="#8d3aff"/><stop offset="1" stop-color="#ff3680"/></linearGradient></defs><path fill="url(#a)" d="M12 1.25c-.39 0-.695.157-.981.338-.287.18-.583.413-.972.711-.99.758-1.954 1.231-2.887 1.447H7.16c-.776.18-1.236.197-1.703.637-.398.372-.491.793-.67 1.367-1.166 3.734-1.393 7.261-.461 10.22.932 2.954 3.076 5.295 6.404 6.496.45.163.813.29 1.273.29s.819-.127 1.27-.29c3.329-1.2 5.473-3.542 6.404-6.496.93-2.954.7-6.48-.466-10.22-.179-.574-.27-.995-.666-1.367-.468-.44-.929-.457-1.707-.637-.933-.216-1.893-.688-2.883-1.447h-.002c-.389-.298-.684-.528-.97-.71-.286-.18-.592-.339-.982-.339zm-.75 2.025v2.994a1.749 1.749 0 0 0-1.367 1.059v.002c-.16.39-.133.704-.133 1.17v1c0 .466-.029.78.135 1.172.178.427.517.767.944.944h.002c.147.061.283.095.42.114v1.269a.75.75 0 0 0 .75.75.75.75 0 0 0 .75-.75v-1.27a1.748 1.748 0 0 0 1.367-1.058v-.002c.161-.39.133-.704.133-1.17v-1c0-.465.028-.78-.135-1.17a1.75 1.75 0 0 0-.944-.947h-.002a1.7 1.7 0 0 0-.42-.113V3.275c.109.081.16.113.292.214v-.002c1.124.861 2.277 1.445 3.457 1.72.643.148.973.284 1.025.287h.002c.025.053.11.24.254.703 1.102 3.529 1.27 6.76.465 9.316-.805 2.555-2.533 4.473-5.482 5.537-.45.163-.538.199-.76.199-.223 0-.312-.036-.762-.2h-.002c-2.949-1.063-4.678-2.981-5.484-5.536s-.636-5.787.466-9.316c.148-.476.232-.659.254-.705h.007c.057-.006.384-.139 1.018-.286h.002c1.18-.274 2.334-.857 3.459-1.719h.002c.13-.1.181-.131.288-.212zM12 7.75c.462 0 .617.027.598.019.06.026.109.075.134.135v.002c-.01-.024.019.128.019.594v1c0 .461-.028.616-.02.597a.25.25 0 0 1-.135.134h-.002c.024-.01-.125.018-.58.019h-.026c-.451 0-.603-.028-.585-.02a.25.25 0 0 1-.132-.135v-.001c.01.024-.02-.128-.02-.594v-1c0-.461.028-.616.02-.598a.25.25 0 0 1 .134-.133h.002c-.024.01.128-.019.594-.019" transform="translate(-3.71 -3.72)scale(2.9761)"/></svg>