<svg xmlns="http://www.w3.org/2000/svg" viewBox="0 0 64 64"><defs><linearGradient id="a" x2="0" y1="1"><stop offset="0" stop-color="#0357d1"/><stop offset="1" stop-color="#27cdfc"/></linearGradient><linearGradient id="b" y1="1"><stop offset="0" stop-color="#fea51d"/><stop offset="1" stop-color="#ff0a76"/></linearGradient></defs><path fill="url(#a)" d="M13.24 0c-1.511 0-2.935.619-4.008 1.74a5.78 5.78 0 0 0-1.617 4.01v52.6a5.63 5.63 0 0 0 5.625 5.625h37.5a5.63 5.63 0 0 0 5.625-5.625V5.75c0-3.108-2.512-5.75-5.625-5.75zm-.006 3.728h.008l-.002.021h37.5c.998 0 1.875.935 1.875 2v52.6a1.877 1.877 0 0 1-1.875 1.875H26.26c-.081-.74-1.348-2.377-3.113-4.309a5.8 5.8 0 0 1-1.35 1.096 5.7 5.7 0 0 1-1.346.569c1.164 1.26 1.979 2.275 2.039 2.682h-9.24a1.877 1.877 0 0 1-1.875-1.875l-.004-9.244c.185.026 1.055.733 2.234 1.78.236-.962.697-1.946 1.38-2.907-1.805-1.564-3.218-2.64-3.626-2.688v-39.6c0-1.066.877-2 1.875-2" transform="translate(-.003)"/><path fill="url(#b)" d="M16.98 7.625a1.875 1.875 0 1 0 0 3.75 1.875 1.875 0 0 0 0-3.75" transform="translate(-.003)"/><path fill="url(#b)" d="M46.98 7.625a1.875 1.875 0 1 0 0 3.75 1.875 1.875 0 0 0 0-3.75" transform="translate(-.003)"/><path fill="url(#b)" d="M39.49 45.25a1.875 1.875 0 1 0 0 3.75h7.5a1.875 1.875 0 1 0 0-3.75z" transform="translate(-.003)"/><path fill="url(#b)" d="M39.49 52.75a1.875 1.875 0 1 0 0 3.75h7.5a1.875 1.875 0 1 0 0-3.75z" transform="translate(-.003)"/><path fill="url(#a)" d="M32.24 8.762c-8.685 0-15.76 7.074-15.76 15.76s7.076 15.76 15.76 15.76S48 33.208 48 24.522s-7.074-15.76-15.76-15.76m0 3.148c6.984 0 12.61 5.624 12.61 12.61s-5.624 12.61-12.61 12.61-12.61-5.632-12.61-12.61c0-6.984 5.63-12.61 12.61-12.61" transform="translate(-.003)"/><path fill="url(#b)" d="m27.09 34.27-.004.004a1.92 1.92 0 0 0-1.604.713l-10.19 12.61-.023.03c-1.53 1.97-2.12 4.055-1.738 5.888s1.699 3.217 3.254 3.848a5.7 5.7 0 0 0 5.014-.355c1.58-.923 2.775-2.687 3.207-5.012l.002-.01 3.842-15.33a1.92 1.92 0 0 0-1.006-2.188 1.9 1.9 0 0 0-.75-.2zm-4.094 9.906-1.742 6.941a2 2 0 0 0-.027.13c-.269 1.508-.847 2.13-1.373 2.439a1.84 1.84 0 0 1-1.625.113c-.5-.203-.83-.552-.938-1.07s-.032-1.403 1.01-2.746v-.002h.002v-.002z" transform="translate(-.003)"/><path fill="url(#b)" d="M32.24 18.9c-3.102 0-5.625 2.524-5.625 5.625s2.524 5.625 5.625 5.625 5.625-2.524 5.625-5.625S35.341 18.9 32.24 18.9m0 3.75c1.034 0 1.875.842 1.875 1.875S33.274 26.4 32.24 26.4s-1.875-.841-1.875-1.875.842-1.875 1.875-1.875" transform="translate(-.003)"/></svg>