<svg xmlns="http://www.w3.org/2000/svg" viewBox="0 0 64 64"><defs><linearGradient id="a" x1="1" x2="0" y2="1"><stop offset="0" stop-color="#d800bd"/><stop offset=".408" stop-color="#f92d7a"/><stop offset=".59" stop-color="#ff4a52"/><stop offset="1" stop-color="#ffb243"/></linearGradient><linearGradient id="c" x2="0" y2="1"><stop offset="0" stop-color="#0357d1"/><stop offset="1" stop-color="#27cdfc"/></linearGradient></defs><path fill="url(#a)" d="M13.24 0c-1.511 0-2.935.619-4.008 1.74a5.78 5.78 0 0 0-1.617 4.01v52.6a5.63 5.63 0 0 0 5.625 5.625h37.5a5.63 5.63 0 0 0 5.625-5.625V5.75c0-3.108-2.512-5.75-5.625-5.75zm-.006 3.727.002.002h.006l-.002.021h37.5c.999 0 1.875.935 1.875 2v52.6a1.877 1.877 0 0 1-1.875 1.875H26.26c-.081-.74-1.348-2.378-3.113-4.31-.405.441-.858.81-1.35 1.096a5.7 5.7 0 0 1-1.346.569c1.164 1.26 1.979 2.275 2.039 2.682h-9.24a1.877 1.877 0 0 1-1.875-1.875l-.004-9.244c.185.026 1.055.733 2.234 1.78.236-.962.697-1.946 1.38-2.907-1.805-1.564-3.218-2.64-3.626-2.688v-39.6c0-1.066.877-2 1.875-2z" transform="translate(-.003)"/><path fill="url(#c)" d="M16.98 7.625a1.875 1.875 0 1 0 0 3.75 1.875 1.875 0 0 0 0-3.75" transform="translate(-.003)"/><path fill="url(#c)" d="M46.98 7.625a1.875 1.875 0 1 0 0 3.75 1.875 1.875 0 0 0 0-3.75" transform="translate(-.003)"/><path fill="url(#c)" d="M39.49 45.25a1.875 1.875 0 1 0 0 3.75h7.5a1.875 1.875 0 1 0 0-3.75z" transform="translate(-.003)"/><path fill="url(#c)" d="M39.49 52.75a1.875 1.875 0 1 0 0 3.75h7.5a1.875 1.875 0 1 0 0-3.75z" transform="translate(-.003)"/><path fill="url(#a)" d="m27.09 34.27-.004.004a1.92 1.92 0 0 0-1.604.713l-10.19 12.61-.023.03c-1.53 1.97-2.12 4.055-1.738 5.888s1.699 3.217 3.254 3.848a5.7 5.7 0 0 0 5.012-.355c1.58-.923 2.775-2.687 3.207-5.012l.002-.01 3.842-15.33a1.92 1.92 0 0 0-1.006-2.188 1.9 1.9 0 0 0-.75-.2zm-4.094 9.906-1.742 6.941a2 2 0 0 0-.027.13c-.269 1.508-.847 2.13-1.373 2.439a1.84 1.84 0 0 1-1.625.113c-.5-.203-.83-.552-.938-1.07s-.032-1.403 1.01-2.746v-.002h.002v-.002z" transform="translate(-.003)"/><g fill="red" stroke-width="1.702"><path d="M32.274 10.484a3.66 3.66 0 0 0-3.214 1.861h-.022L17.752 33.18c-.01.062-.08.187-.08.187a3.4 3.4 0 0 0 .205 3.531c.66.93 1.945 1.674 3.097 1.674h22.66c1.242 0 2.468-.744 3.12-1.86.494-.745.52-1.673.34-2.603a1.9 1.9 0 0 0-.164-.743 2 2 0 0 0-.063-.187L35.493 12.344h-.012c-.654-1.114-1.937-1.857-3.208-1.857zm0 1.861c.658 0 1.25.37 1.576.93l11.374 20.834a1.68 1.68 0 0 1-.073 1.674 1.68 1.68 0 0 1-1.515.927h-22.67c-.661 0-1.189-.37-1.516-.742a2.06 2.06 0 0 1-.058-1.86l11.286-20.833a1.87 1.87 0 0 1 1.587-.93z"/><path d="M32.23 19.625c-.518 0-2.073.017-2.073 2.592 0 2.073 1.036 7.776 2.073 7.776 1.035 0 2.072-5.702 2.072-7.776 0-2.575-1.554-2.592-2.072-2.592m-.107 10.889a1.55 1.55 0 0 0-1.448 1.55 1.555 1.555 0 1 0 3.108 0 1.55 1.55 0 0 0-1.659-1.55z"/></g></svg>