<svg xmlns="http://www.w3.org/2000/svg" viewBox="0 0 64 64"><defs><linearGradient id="b" x1=".003" x2="32.87" y1="70.11" y2="37.25" gradientTransform="matrix(.4686 0 0 .3905 8.692 26.25)" gradientUnits="userSpaceOnUse"><stop offset="0" stop-color="#d800bd"/><stop offset=".408" stop-color="#f92d7a"/><stop offset=".59" stop-color="#ff4a52"/><stop offset="1" stop-color="#ffb243"/></linearGradient><linearGradient id="c" x1="73.9" x2="46.18" y1="27.71" y2="55.42" gradientTransform="matrix(.3705 0 0 .494 9.324 10.72)" gradientUnits="userSpaceOnUse"><stop offset="0" stop-color="#f7f206"/><stop offset=".983" stop-color="#ffbb24"/></linearGradient><linearGradient id="e" x1="27.21" x2="27.21" y1=".006" y2="34.99" gradientTransform="matrix(.4402 0 0 .4158 27.92 23.98)" gradientUnits="userSpaceOnUse"><stop offset="0" stop-color="#00ffa5"/><stop offset="1" stop-color="#a100ff"/></linearGradient><linearGradient id="g" x2="29.25" y1="29.25" gradientTransform="matrix(.4681 0 0 .3909 9.548 25.53)" gradientUnits="userSpaceOnUse"><stop offset="0" stop-color="#f83d5c"/><stop offset="1" stop-color="#b800ff"/></linearGradient><linearGradient id="a" y1="1"><stop offset="0" stop-color="#00efff"/><stop offset="1" stop-color="#07f"/></linearGradient></defs><path fill="url(#a)" d="M44.93 20.24c-.866 0-1.57.704-1.57 1.57v20.5c0 .578-.468 1.046-1.046 1.046H5.684a1.046 1.046 0 0 1-1.046-1.046v-8.894a1.57 1.57 0 0 0-3.14 0v9.94a3.143 3.143 0 0 0 3.141 3.141h38.72a3.143 3.143 0 0 0 3.141-3.141v-21.54a1.57 1.57 0 0 0-1.57-1.57z" transform="translate(-2.13 -2.127)scale(1.422)"/><path fill="url(#a)" d="M39 6a2 2 0 1 0 0 4 2 2 0 0 0 0-4" transform="translate(-2.13 -2.127)scale(1.422)"/><path fill="url(#a)" d="M4.641 1.5A3.143 3.143 0 0 0 1.5 4.641v19.36a1.57 1.57 0 0 0 3.14 0V5.691c0-.578.468-1.046 1.046-1.046h36.63c.578 0 1.046.468 1.046 1.046v5.14h-32.96a1.57 1.57 0 0 0 0 3.138h32.96c1.733 0 3.141-.702 3.141-1.569V4.645a3.143 3.143 0 0 0-3.141-3.141z" transform="translate(-2.13 -2.127)scale(1.422)"/><path fill="url(#b)" d="M14.74 40.79a1.7 1.7 0 0 0-1.422.76l-.631.951h-1.428a2.567 2.567 0 0 0-2.567 2.567v5.99a2.567 2.567 0 0 0 2.567 2.566h10.27a2.567 2.567 0 0 0 2.567-2.567v-5.989a2.567 2.567 0 0 0-2.567-2.567h-1.428l-.631-.952a1.7 1.7 0 0 0-1.422-.759h-.005zm1.652 4.706a2.567 2.567 0 0 1 0 5.134 2.567 2.567 0 0 1 0-5.134" transform="translate(.002 .004)"/><path fill="url(#c)" d="M34.17 24.41a.86.86 0 0 0-.595.21v-.004l-6.845 5.989c-.267.235-.363.61-.235.946s.444.556.802.556h2.984l-2.059 4.796a.86.86 0 0 0 .284 1.032.85.85 0 0 0 1.064-.048l6.845-5.99a.85.85 0 0 0 .235-.945.855.855 0 0 0-.802-.557H32.87l2.053-4.79a.858.858 0 0 0-.753-1.195" transform="translate(.002 .004)"/><path fill="url(#e)" d="M54.05 23.98a1.3 1.3 0 0 0-.26.018l-.145.032-8.556 2.567c-.54.16-.914.663-.914 1.23v5.651a4.5 4.5 0 0 0-.856-.085c-1.887 0-3.422 1.149-3.422 2.567s1.534 2.567 3.422 2.567c1.775 0 3.23-1.01 3.406-2.305l.016-.262v-5.891l5.99-1.797v2.636a4.5 4.5 0 0 0-.856-.086c-1.887 0-3.422 1.15-3.422 2.567s1.534 2.567 3.422 2.567c1.775 0 3.229-1.01 3.406-2.305l.016-.262v-8.128a1.283 1.283 0 0 0-1.247-1.28z" transform="translate(.002 .004)"/><path fill="url(#g)" d="M13.14 25.53a3.585 3.585 0 0 0-3.588 3.588v.326c0 3 4.021 5.998 5.899 7.234.578.38 1.315.38 1.893 0 1.877-1.24 5.899-4.235 5.899-7.234v-.326a3.585 3.585 0 0 0-6.454-2.155l-.39.524-.39-.524a3.58 3.58 0 0 0-2.867-1.433z" transform="translate(.002 .004)"/></svg>