<svg version="1.1" viewBox="0 0 64 64" xmlns="http://www.w3.org/2000/svg">
 <defs>
  <linearGradient id="a" x1="1" x2="0" y2="1">
   <stop stop-color="#ff0f85" offset="0"/>
   <stop stop-color="#ff0c0c" offset="1"/>
  </linearGradient>
 </defs>
 <path transform="translate(-.000167 .00098) scale(1) translate(-.004)" d="M10.7 2.416c-1.35-.011-2.718.036-4.084.33l-.021.004C3.082 3.658.34 6.714.072 10.193v.006c-.113 1.787-.05 3.556-.053 5.297v.002c-.05.967.312 2.046 1.256 2.643 1.649 1.19 4.2.265 4.572-1.7l.004-.02.002-.02c.219-1.974-.027-3.884.117-5.703.101-1.3 1.38-2.494 2.812-2.564 2.789-.115 5.633.082 8.51-.086h.02l.017-.004c2.216-.303 3.192-3.156 1.629-4.682-.598-.652-1.402-.865-2.148-.916-.754-.052-1.492.027-2.082-.004l-.025-.002h-.024c-1.294.057-2.628-.012-3.978-.023zm15.67.549.008.006c-1.27.06-2.348 1.186-2.234 2.396.008 1.237 1.237 2.308 2.549 2.207 9.588.036 19.18-.01 28.76.023 1.963-.06 3.709 1.584 3.658 3.436.034 6.122-.006 12.24.015 18.37l-.017 4.648c-.022 2.155.085 4.31-.043 6.461-.197 1.842-2.161 3.152-4.072 2.967-15.29-.016-30.57.016-45.86 0-1.938.073-3.724-1.499-3.711-3.334-.064-4.986.043-9.972-.043-14.96.051-1.734-2.308-2.874-3.773-1.824-.973.55-1.123 1.682-1.076 2.656.043 4.85-.056 9.698.047 14.55.141 3.972 3.9 7.463 8.123 7.504 5.833.004 11.67.04 17.5-.017-3.415 2.869-6.677 5.902-10.05 8.814-.695.618-1.54 1.275-1.57 2.258-.137 1.366 1.204 2.585 2.646 2.45q15.03.02 30.06 0c1.445.13 2.743-1.122 2.598-2.476-.064-1.16-1.168-1.838-1.957-2.578-3.253-2.803-6.337-5.792-9.691-8.48 5.88.088 11.76.037 17.65.037 4.38-.057 8.182-3.822 8.109-7.94.008-9.834.022-19.68-.004-29.51-.082-4.02-3.843-7.605-8.121-7.654-9.742-.017-19.5-.013-29.23 0v-.002a2 2 0 0 0-.256-.002zm5.9 46.01c3.024 2.636 5.988 5.34 9.023 7.97q-9.057.024-18.1.005c3.053-2.63 6.026-5.341 9.076-7.975z" fill="url(#a)"/>
 <path transform="translate(-.000167 .00098) scale(1) translate(-.004)" d="M32 27.51a2.153 2.153 0 0 0-1.076 4.015v1.725c0 .396.32.717.717.717h.719a.717.717 0 0 0 .716-.717v-1.725A2.153 2.153 0 0 0 32 27.51z" fill="url(#a)" opacity=".451"/>
 <path transform="translate(-.000167 .00098) scale(1) translate(-.004)" d="M32.23 12.25a7.3 7.3 0 0 0-1.467.225c-.458.117-.9.28-1.316.498a6.4 6.4 0 0 0-1.186.78 7.8 7.8 0 0 0-1.068 1.087 6.18 6.18 0 0 0-1.361 3.869v3.523h-2.643a2.35 2.35 0 0 0-2.348 2.348v12.33a2.35 2.35 0 0 0 2.348 2.348h17.61a2.35 2.35 0 0 0 2.348-2.348v-2.936a1.174 1.174 0 0 0-2.348 0v1.762c0 .648-.526 1.174-1.174 1.174h-12.92v-4.385c0-.496-.395-.9-.88-.9s-.882.404-.882.9v4.385h-.588a1.174 1.174 0 0 1-1.174-1.174v-9.982c0-.648.526-1.174 1.174-1.174h15.27c.648 0 1.174.525 1.174 1.174v1.762a1.174 1.174 0 0 0 2.348 0V24.58a2.35 2.35 0 0 0-2.348-2.348h-1.467v-3.535a5 5 0 0 0-.125-1.033 6.6 6.6 0 0 0-.304-1.004 6.4 6.4 0 0 0-.452-.951 4.8 4.8 0 0 0-.61-.852 10 10 0 0 0-1.38-1.256 7 7 0 0 0-1.38-.81 6.4 6.4 0 0 0-1.397-.44 6.4 6.4 0 0 0-1.457-.102zm.117 2.35c.3-.018.605.006.904.059.3.058.6.152.881.275.323.147.635.33.916.541.382.288.734.61 1.051.957q.186.201.319.44.175.308.299.634c.088.217.152.447.205.676.04.176.064.351.064.533v3.518H28.18V18.71c0-.875.3-1.719.846-2.394q.335-.416.74-.752a3.8 3.8 0 0 1 .75-.5c.264-.135.546-.24.834-.316q.486-.122.998-.147zm-6.516 14.09a.881.881 0 1 0 .001 1.763.881.881 0 0 0 0-1.763m16.14.88a1.174 1.174 0 1 0 0 2.35 1.174 1.174 0 0 0 0-2.35" fill="url(#a)"/>
 <path transform="translate(-.000167 .00098) scale(1) translate(-.004)" d="M32 26.87a2.81 2.81 0 0 0-2.799 2.799c0 .867.452 1.587 1.076 2.102v1.486c0 .745.617 1.363 1.363 1.363h.719c.746 0 1.363-.618 1.363-1.363v-1.488c.623-.514 1.076-1.234 1.076-2.1a2.81 2.81 0 0 0-2.8-2.799zm0 1.291a1.5 1.5 0 0 1 1.508 1.508c0 .562-.305 1.044-.756 1.305l-.322.188v2.096q0 .07-.07.07h-.72q-.07 0-.07-.07V31.16l-.324-.187a1.5 1.5 0 0 1-.754-1.305A1.5 1.5 0 0 1 32 28.161z" fill="url(#a)"/>
</svg>
