<svg version="1.1" viewBox="0 0 64 64" xmlns="http://www.w3.org/2000/svg">
 <defs>
  <linearGradient id="a" x1="1" x2="0" y2="1">
   <stop stop-color="#0061ff" offset="0"/>
   <stop stop-color="#60efff" offset="1"/>
  </linearGradient>
 </defs>
 <path transform="translate(0) scale(1) translate(0) scale(1) translate(-.00035 -.000425)" d="m10.14 6.836c-5.53 0-10.09 4.555-10.09 10.09v36.98c0 5.53 4.555 10.09 10.09 10.09h36.98c5.53 0 10.09-4.555 10.09-10.09v-10.09a3.36 3.36 0 0 0-3.363-3.363 3.36 3.36 0 0 0-3.361 3.363v10.09c0 1.896-1.465 3.361-3.361 3.361h-36.98c-1.896 0-3.361-1.465-3.361-3.361v-36.98c0-1.896 1.465-3.361 3.361-3.361h10.09a3.36 3.36 0 0 0 3.359-3.363 3.36 3.36 0 0 0-3.359-3.361z" fill="url(#a)"/>
 <path transform="translate(0) scale(1) translate(0) scale(1) translate(.00135 -1.2e-5) scale(1) translate(-.0017 -.000413) scale(1)" d="m53.78 0.003906a6.68 6.68 0 0 0-4.955 1.969l-18.44 18.59c-0.992 0.997-1.635 1.651-2.176 2.393a11.7 11.7 0 0 0-1.213 2.115c-0.373 0.84-0.6097 1.73-0.9727 3.086l-0.6387 2.393-0.0039 0.01953-1.272 4.756a16 16 0 0 0-0.3281 1.369 3.2 3.2 0 0 0-2e-3 1.33l2e-3 -0.0039a3 3 0 0 0 0.05273 0.2168l-0.0059 2e-3a3 3 0 0 0 0.06836 0.2129 3.17 3.17 0 0 0 1.838 1.822 3.27 3.27 0 0 0 1.764 0.1016 13 13 0 0 0 0.9336-0.2148l0.168-0.04687 7.418-2.053c1.355-0.373 2.24-0.62 3.078-1 0.7407-0.3353 1.44-0.7458 2.098-1.228 0.736-0.544 1.391-1.197 2.381-2.197l18.44-18.59a6.68 6.68 0 0 0 1.604-6.766 7 7 0 0 0-0.3398-0.8438 14.55 14.55 0 0 0-6.854-6.791 6.7 6.7 0 0 0-2.646-0.6387zm-0.1367 3.889a2.8 2.8 0 0 1 1.106 0.2656 10.67 10.67 0 0 1 5.022 4.984 3 3 0 0 1 0.1426 0.3496 2.8 2.8 0 0 1-0.6738 2.822l-1.982 2.006a16.68 16.68 0 0 0-7.666-7.607l1.98-1.998a2.8 2.8 0 0 1 2.072-0.8223zm-7.002 5.799a12.79 12.79 0 0 1 7.674 7.594l-13.4 13.52c-1.133 1.144-1.565 1.558-2.031 1.9a8 8 0 0 1-1.398 0.8242c-0.527 0.238-1.104 0.4001-2.654 0.8301l-0.3008 0.08203a8.2 8.2 0 0 0-1.908-2.943 8.2 8.2 0 0 0-2.963-1.887h-0.0078l0.07617-0.2969c0.415-1.553 0.5746-2.135 0.8066-2.662 0.224-0.5 0.4951-0.9708 0.8144-1.412 0.337-0.468 0.7576-0.9029 1.893-2.045l13.4-13.5zm1.785 3.953 0.0039 0.0039a1.94 1.94 0 0 0-1.438 0.5703l-11.2 11.3a1.95 1.95 0 0 0-0.4453 1.754v0.0039a1.944 1.944 0 0 0 3.203 0.9727l11.2-11.3a1.95 1.95 0 0 0 0.4668-1.961l-2e-3 -2e-3a1.94 1.94 0 0 0-1.789-1.342zm-34.5 10.37c-3.359 2e-3 -3.359 5.042 0 5.041h4.027c3.36-1e-3 3.36-5.041 0-5.039zm14.71 9.373a4.32 4.32 0 0 1 2.111 2.096l0.0039 2e-3 -2.887 0.7988 0.7715-2.894zm-14.71 0.707c-3.359 2e-3 -3.359 5.042 0 5.041h4.027c3.36-1e-3 3.36-5.041 0-5.039zm0 10.08a2.521 2.521 0 0 0 0 5.041h25.2a2.521 2.521 0 0 0 0-5.039z" fill="url(#a)"/>
</svg>
