<svg xmlns="http://www.w3.org/2000/svg" fill="none" viewBox="0 0 64 64"><defs><linearGradient id="a" x1="43.5" x2="17.5" y1="9" y2="27.5" gradientUnits="userSpaceOnUse"><stop offset="0" stop-color="#5558ff"/><stop offset="1" stop-color="#00c0ff"/></linearGradient><linearGradient id="b" x1="8" x2="43.04" y1="36" y2="16.45" gradientUnits="userSpaceOnUse"><stop offset="0" stop-color="#0357d1"/><stop offset="1" stop-color="#27cdfc"/></linearGradient><linearGradient id="e" x1="29" x2="-9.5" y1="20.5" y2="51" gradientUnits="userSpaceOnUse"><stop offset="0" stop-color="#addcff"/><stop offset=".503" stop-color="#eaf6ff"/><stop offset="1" stop-color="#eaf6ff"/></linearGradient><linearGradient id="f" x1="10" x2="31.72" y1="37" y2="27.53" gradientUnits="userSpaceOnUse"><stop offset="0" stop-color="#0357d1"/><stop offset="1" stop-color="#27cdfc"/></linearGradient></defs><path stroke="url(#a)" stroke-width="3" d="M39.5 31h3.038c1.36 0 2.462-.895 2.462-2V8c0-1.105-1.102-2-2.462-2h-27.08c-1.36 0-2.462.895-2.462 2v3.5" transform="translate(-2.133 -1.422)scale(1.422)"/><path stroke="url(#b)" stroke-width="3" d="M34.5 36h3.038c1.36 0 2.462-.895 2.462-2V13c0-1.105-1.102-2-2.462-2h-27.08c-1.36 0-2.462.895-2.462 2v4" transform="translate(-2.133 -1.422)scale(1.422)"/><path stroke="url(#e)" stroke-width="3" d="M32.54 16H5.46c-1.36 0-2.462.895-2.462 2v21c0 1.105 1.102 2 2.462 2h27.08c1.36 0 2.462-.895 2.462-2V18c0-1.105-1.102-2-2.462-2z" transform="translate(-2.133 -1.422)scale(1.422)"/><path fill="url(#f)" fill-rule="evenodd" d="M27.08 21.82a1 1 0 0 1 .019 1.454l-4.006 3.881a1 1 0 0 0-.008 1.429l4.175 4.134a1 1 0 0 1-.02 1.44l-2.103 1.975a1 1 0 0 1-1.42-.05L19.73 31.77a1 1 0 0 0-1.48.013l-3.973 4.45a1 1 0 0 1-1.433.06l-2.074-1.962a1 1 0 0 1 .005-1.458l4.396-4.103a1 1 0 0 0 .022-1.44l-3.99-3.963a1 1 0 0 1 .038-1.455l2.503-2.236a1 1 0 0 1 1.422.09l3.516 4.052a1 1 0 0 0 1.511 0l3.344-3.86a1 1 0 0 1 1.433-.08l2.111 1.94z" clip-rule="evenodd" transform="translate(-2.133 -1.422)scale(1.422)"/></svg>