<svg xmlns="http://www.w3.org/2000/svg" xmlns:xlink="http://www.w3.org/1999/xlink" viewBox="0 0 64 64"><defs><linearGradient id="a" x1="11" x2="21" y1="21.1" y2="8.535" gradientUnits="userSpaceOnUse"><stop offset="0" stop-color="#00f1fa"/><stop offset="1" stop-color="#006cff"/></linearGradient><linearGradient xlink:href="#a" id="b" x1="11" x2="21" y1="21.1" y2="8.535" gradientTransform="translate(-2.859 -2.875)scale(3.167)" gradientUnits="userSpaceOnUse"/></defs><path fill="url(#b)" d="M31.98 51.28a6.335 6.335 0 1 0 6.334 6.334c0-3.5-2.836-6.334-6.334-6.334" color="#ddd" transform="translate(.011 .031)"/><path fill="url(#b)" d="m31.98-.031.002.002c-12.32 0-20.76 3.404-29.04 8.684-2.644 1.688-3.433 5.262-1.744 7.906S6.458 20 9.102 18.31c6.99-4.46 12.94-6.893 22.88-6.893 9.954 0 16.06 2.447 22.83 6.86 2.627 1.714 6.205.958 7.918-1.67 1.714-2.626.964-6.211-1.664-7.925-8.168-5.327-16.78-8.715-29.09-8.715zm.004 17.57-.002.002c-8.95 0-14.97 2.42-21.06 5.977-2.71 1.58-3.641 5.12-2.06 7.832 1.582 2.709 5.122 3.635 7.833 2.053 5.039-2.941 8.66-4.41 15.29-4.41 6.594 0 10.29 1.545 15.32 4.434 2.72 1.562 6.25.605 7.812-2.115s.604-6.253-2.115-7.814v-.006c-5.986-3.436-12.03-5.951-21.02-5.951zm-.002 16.76c-4.827 0-9.138 1.257-12.99 3.223-2.793 1.427-3.926 4.91-2.498 7.703 1.426 2.793 4.908 3.928 7.7 2.5 2.512-1.282 4.983-1.975 7.782-1.975 2.71 0 5.306.725 7.814 1.986 2.803 1.408 6.274.26 7.684-2.543 1.409-2.803.26-6.272-2.543-7.682-3.782-1.9-8.145-3.213-12.95-3.213z" color="#ddd" transform="translate(.011 .031)"/></svg>