<svg xmlns="http://www.w3.org/2000/svg" fill="none" viewBox="0 0 64 64"><defs><linearGradient id="a" x1="31.67" x2="31.67" y1="53.99" y2="10" gradientUnits="userSpaceOnUse"><stop offset="0" stop-color="#fda700"/><stop offset="1" stop-color="#ffde00"/></linearGradient><linearGradient id="c" x1="31.67" x2="31.67" y1="53.99" y2="10" gradientUnits="userSpaceOnUse"><stop offset="0" stop-color="#fda700"/><stop offset="1" stop-color="#ffde00"/></linearGradient></defs><path fill="url(#a)" fill-rule="evenodd" d="M42.07 10c-.312 0-.608.14-.807.38l-8.307 10.04c-4.742 5.728-8.625 10.53-8.625 10.67s4.06 5.349 9.015 11.58l8.695 10.93c.199.25.5.395.82.395h8.935c7.514 0 9.39-.068 9.188-.337-.512-.677-17.19-21.67-17.56-22.11-.35-.41.405-1.415 7.948-10.52 4.588-5.54 8.506-10.29 8.706-10.54.344-.447-.13-.473-9.066-.473H42.07z" clip-rule="evenodd" transform="translate(-3.31 -3.307)scale(1.103)"/><path fill="url(#c)" d="M7.012 12.95c-.636-.843.24-1.985 1.224-1.601l21.53 8.393c.135.053.168.143.08.259-.482.631-2.298 2.859-4.47 5.474l-4.103 4.95a1.05 1.05 0 0 0-.014 1.32l3.91 4.92a1554 1554 0 0 1 4.684 5.918c.17.227-1.109 2.022-4.178 5.869l-4.109 5.15c-.199.25-.5.395-.819.395H3.627a.628.628 0 0 1-.495-1.014c.436-.555 4.52-5.688 9.07-11.4 3.025-3.802 5.672-7.18 7.095-9.046.5-.655.533-2.415.05-3.082-2.527-3.485-8.924-11.98-12.34-16.5z" opacity=".4" transform="translate(-3.31 -3.307)scale(1.103)"/></svg>