<svg xmlns="http://www.w3.org/2000/svg" viewBox="0 0 64 64"><defs><linearGradient id="a" y1="1"><stop offset="0" stop-color="#873df0"/><stop offset="1" stop-color="#f25ef3"/></linearGradient></defs><path fill="url(#a)" d="M14.02 15c-2.699 0-2.699 4 0 4h1.098c.605 0 .998.181 1.51.617.512.437 1.055 1.152 1.576 1.965.498.777.973 1.62 1.56 2.418-.588.798-1.062 1.641-1.56 2.418-.521.813-1.064 1.528-1.576 1.965s-.905.617-1.51.617H14.02c-2.699 0-2.699 4 0 4h1.098c1.64 0 3.068-.694 4.096-1.57s1.709-1.934 2.346-2.848C22.333 27.474 23.002 26 23.998 26s1.917 1.71 2.498 2.598c.613.937 1.344 1.968 2.379 2.84s2.464 1.564 4.104 1.564h.994c2.7 0 2.7-4 0-4h-.994c-.605 0-1.013-.184-1.537-.625s-1.077-1.16-1.611-1.975c-.507-.773-.991-1.61-1.582-2.4.592-.79 1.075-1.629 1.582-2.402.534-.814 1.087-1.532 1.611-1.973s.931-.625 1.537-.625h.994c2.7 0 2.7-4 0-4h-.994c-1.64 0-3.068.69-4.104 1.562-1.035.871-1.73 1.928-2.379 2.84-.789 1.107-1.504 2.598-2.498 2.598s-1.87-1.698-2.438-2.582c-.601-.938-1.318-1.972-2.346-2.848s-2.456-1.57-4.096-1.57z" transform="translate(-31.986 -31.999)scale(2.66647)"/></svg>