<svg xmlns="http://www.w3.org/2000/svg" fill="none" viewBox="0 0 64 64"><defs><linearGradient id="a" x1="32.64" x2="32.64" y1="8" y2="18.69" gradientUnits="userSpaceOnUse"><stop offset="0" stop-color="#a93aff"/><stop offset="1" stop-color="#ff81ff"/></linearGradient><linearGradient id="b" x1="31.04" x2="31.04" y1="14.86" y2="2" gradientUnits="userSpaceOnUse"><stop offset="0" stop-color="#fda700"/><stop offset="1" stop-color="#ffde00"/></linearGradient><linearGradient id="d" x1="31.57" x2="31.57" y1="54.5" y2="24.5" gradientUnits="userSpaceOnUse"><stop offset="0" stop-color="#fd5900"/><stop offset="1" stop-color="#ffde00"/></linearGradient></defs><path fill="url(#a)" fill-rule="evenodd" d="M56 12v46.28c0 2.837-2.229 5.292-5.188 5.292h-37.62c-2.959 0-5.188-2.456-5.188-5.292V12c0-2.216 1.338-4 3-4h42c1.662 0 3 1.784 3 4zm-43 8v38.28c0 .119.043.198.087.243.041.042.074.05.1.05h37.62c.027 0 .06-.007.101-.05a.34.34 0 0 0 .087-.243V20h-38z" clip-rule="evenodd" transform="translate(-1.262 -2.079)scale(1.039)"/><path fill="url(#b)" d="M11.43 2c-.714 0-1.289.874-1.289 1.959v8.94c0 1.085.575 1.959 1.289 1.959h2.921c.714 0 1.289-.874 1.289-1.959v-8.94C15.64 2.874 15.065 2 14.351 2zm12.1 0c-.714 0-1.289.874-1.289 1.959v8.94c0 1.085.575 1.959 1.289 1.959h2.921c.714 0 1.289-.874 1.289-1.959v-8.94C27.74 2.874 27.165 2 26.451 2zm12.1 0c-.714 0-1.289.874-1.289 1.959v8.94c0 1.085.575 1.959 1.289 1.959h2.921c.714 0 1.289-.874 1.289-1.959v-8.94C39.84 2.874 39.265 2 38.551 2zm12.1 0c-.714 0-1.289.874-1.289 1.959v8.94c0 1.085.575 1.959 1.289 1.959h2.921c.714 0 1.289-.874 1.289-1.959v-8.94C51.94 2.874 51.365 2 50.651 2z" transform="translate(-1.262 -2.079)scale(1.039)"/><path fill="url(#d)" d="M34.23 35.82q.144.168.762.747c5.791 5.98 8.575 8.648 8.351 9.365q-.24.79-1.392 1.34-1.149.52-2.07.471c-.486-.025-2.795-1.864-6.926-6.88l-.185-.233c-.69-.868-1.873-.863-2.488.06a55 55 0 0 0-1.51 2.428c-1.55 3.25-3.588 6.248-4.756 9.681q-.535 1.804-2.723 1.69-1.152-.062-1.415-.782t.215-2.238q.896-2.959 8.445-14.15c.257-.38.344-.837.124-1.24q-.516-.95-1.996-3.1c-1.484-2.156-2.662-3.789-3.534-4.627q-1.417-1.36-1.18-2.086.535-1.803 3.375-1.655c.921.048 2.563 2.07 4.925 5.793q.442.671.796 1.19c.623.914 1.827.98 2.517.116q.454-.57 1-1.305 1.515-2.073 2.095-3.361.573-1.191 1.812-1.898 1.236-.706 2.35-.648 1.725.09 1.25 1.576-.536 1.804-6.229 7.933-1.485 1.593-1.614 1.812" transform="translate(-1.262 -2.079)scale(1.039)"/><path stroke="url(#d)" stroke-width="2" d="M34.23 35.82q.144.168.762.747c5.791 5.98 8.575 8.648 8.351 9.365q-.24.79-1.392 1.34-1.149.52-2.07.471c-.486-.025-2.795-1.864-6.926-6.88l-.185-.233c-.69-.868-1.873-.863-2.488.06a55 55 0 0 0-1.51 2.428c-1.55 3.25-3.588 6.248-4.756 9.681q-.535 1.804-2.723 1.69-1.152-.062-1.415-.782t.215-2.238q.896-2.959 8.445-14.15c.257-.38.344-.837.124-1.24q-.516-.95-1.996-3.1c-1.484-2.156-2.662-3.789-3.534-4.627q-1.417-1.36-1.18-2.086.535-1.803 3.375-1.655c.921.048 2.563 2.07 4.925 5.793q.442.671.796 1.19c.623.914 1.827.98 2.517.116q.454-.57 1-1.305 1.515-2.073 2.095-3.361.573-1.191 1.812-1.898 1.236-.706 2.35-.648 1.725.09 1.25 1.576-.536 1.804-6.229 7.933-1.485 1.593-1.614 1.812" transform="translate(-1.262 -2.079)scale(1.039)"/></svg>