<svg version="1.1" viewBox="0 0 64 64" xmlns="http://www.w3.org/2000/svg">
 <defs>
  <linearGradient id="a" x1="1" x2="0" y1="1">
   <stop stop-color="#fda700" offset="0"/>
   <stop stop-color="#ffde00" offset="1"/>
  </linearGradient>
 </defs>
 <path transform="translate(0) scale(1) translate(0) scale(1) translate(-.00108 -4e-4) scale(1) translate(.963 .97) scale(.9696)" d="m34.99 3.459-5.958.006c-4.91 0-8.67-.017-11.87.413-3.214.432-6.056 1.434-8.204 3.583-2.147 2.148-3.158 4.993-3.589 8.208-.43 3.198-.405 6.952-.405 11.86v13.4c0 4.91-.025 8.668.405 11.87.432 3.214 1.44 6.064 3.589 8.212 2.15 2.15 4.99 3.15 8.204 3.58 3.198.43 6.958.414 11.87.414h8.929a3.23 3.23 0 0 0 2.286-.943v-.006l17.87-17.86a3.23 3.23 0 0 0 .94-2.29v-16.37c0-4.91.02-8.668-.41-11.87-.432-3.214-1.434-6.057-3.583-8.204-2.15-2.15-4.996-3.156-8.21-3.587-3.198-.429-6.952-.415-11.86-.415zm-5.958 6.473h5.952c4.91 0 8.537.015 11 .346 2.484.334 3.573.829 4.502 1.758.93.93 1.416 2.016 1.75 4.5.331 2.465.355 6.091.355 11v10.86c-3.753 0-6.71.01-9.285.357-2.808.378-5.364 1.272-7.295 3.203-1.934 1.932-2.831 4.492-3.21 7.303-.346 2.579-.356 5.535-.356 9.285h-3.418c-4.91 0-8.539-.025-11-.357-2.484-.334-3.571-.82-4.5-1.75-.93-.93-1.422-2.016-1.756-4.5-.331-2.465-.348-6.09-.348-11v-13.4c0-4.91.017-8.537.348-11 .334-2.484.826-3.57 1.756-4.5s2.016-1.418 4.5-1.752c2.465-.331 6.093-.352 11-.352zm21.26 34.94-11.37 11.37c.022-2.601.088-4.633.288-6.121.28-2.081.653-2.874 1.368-3.587v-.002l.004-.004h.002l.002-.002c.716-.717 1.506-1.086 3.587-1.366 1.488-.2 3.52-.27 6.121-.292z" fill="url(#a)"/>
 <path transform="translate(0) scale(1) translate(0) scale(1) translate(-.00108 -4e-4) scale(1) translate(.963 .97) scale(.9696)" d="m20.1 22.81c-1.774 0-3.233 1.46-3.233 3.233s1.46 3.233 3.233 3.233h23.82c1.774 0 3.233-1.46 3.233-3.233s-1.46-3.233-3.233-3.233zm0 11.91a3.25 3.25 0 0 0-3.233 3.233 3.25 3.25 0 0 0 3.233 3.233h10.42a3.25 3.25 0 0 0 3.233-3.233 3.25 3.25 0 0 0-3.233-3.233z" fill="url(#a)"/>
 <path transform="translate(0) scale(1) translate(0) scale(1) translate(-.00108 -4e-4) scale(1) translate(.963 .97) scale(.9696)" d="M45.4-1a3.247 3.247 0 0 0-3.232 3.232v8.932a3.247 3.247 0 0 0 3.232 3.232 3.247 3.247 0 0 0 3.232-3.232V2.232A3.247 3.247 0 0 0 45.4-1" fill="url(#a)"/>
 <path transform="translate(0) scale(1) translate(0) scale(1) translate(-.00108 -4e-4) scale(1) translate(.963 .97) scale(.9696)" d="M32-1a3.247 3.247 0 0 0-3.232 3.232v8.932A3.247 3.247 0 0 0 32 14.396a3.247 3.247 0 0 0 3.232-3.232V2.232A3.247 3.247 0 0 0 32-1" fill="url(#a)"/>
 <path transform="translate(0) scale(1) translate(0) scale(1) translate(-.00108 -4e-4) scale(1) translate(.963 .97) scale(.9696)" d="M18.61-1a3.247 3.247 0 0 0-3.232 3.232v8.932c0 1.774 1.459 3.232 3.232 3.232s3.232-1.459 3.232-3.232V2.232A3.247 3.247 0 0 0 18.61-1" fill="url(#a)"/>
</svg>
