<svg xmlns="http://www.w3.org/2000/svg" fill="none" viewBox="0 0 64 64"><defs><linearGradient id="a" x1="93.7" x2="-3.484" y1="5.818" y2="100.7" gradientUnits="userSpaceOnUse"><stop offset="0" stop-color="#de00c0"/><stop offset="1" stop-color="#8720ff"/></linearGradient><linearGradient id="c" x1="15" x2="119" y1="43.5" y2="47" gradientUnits="userSpaceOnUse"><stop offset="0" stop-color="#d800bd"/><stop offset=".408" stop-color="#f92d7a"/><stop offset=".59" stop-color="#ff4a52"/><stop offset="1" stop-color="#ffb243"/></linearGradient></defs><path fill="url(#a)" fill-rule="evenodd" d="M110.6 116.4V11.7a5.82 5.82 0 0 0-5.818-5.818h-81.46a5.82 5.82 0 0 0-5.818 5.818v104.7a5.82 5.82 0 0 0 5.818 5.819h81.46a5.82 5.82 0 0 0 5.818-5.819m-11.64-9.818v-85.09a4 4 0 0 0-4-4H33.14a4 4 0 0 0-4 4v85.09a4 4 0 0 0 4 4h61.82a4 4 0 0 0 4-4" clip-rule="evenodd" transform="translate(-3.184 -3.211)scale(.54974)"/><path fill="url(#c)" d="M119.3 40.73H8.7a2.91 2.91 0 0 0-2.909 2.909v5.818A2.91 2.91 0 0 0 8.7 52.366h110.6a2.91 2.91 0 0 0 2.909-2.909v-5.818a2.91 2.91 0 0 0-2.909-2.909" transform="translate(-3.184 -3.211)scale(.54974)"/></svg>