<svg xmlns="http://www.w3.org/2000/svg" fill="none" viewBox="0 0 64 64"><defs><linearGradient id="a" x1="96.04" x2="96.04" y1="183.1" y2="8" gradientUnits="userSpaceOnUse"><stop offset="0" stop-color="#5570ff"/><stop offset="1" stop-color="#4dd3ff"/></linearGradient><linearGradient id="b" x1="108.1" x2="108.1" y1="140.7" y2="50.44" gradientUnits="userSpaceOnUse"><stop offset="0" stop-color="#5570ff"/><stop offset="1" stop-color="#4dd3ff"/></linearGradient></defs><path fill="url(#a)" stroke="url(#a)" stroke-width="8" d="m168.5 73.13.021.033.024.03c1.346 1.778 3.446 2.663 5.522 2.735 2.071.072 4.223-.659 5.715-2.25 2.101-2.144 2.467-5.392 1.482-8.012-7.573-21.08-23.78-38.89-44.04-48.72-15.86-7.8-34.1-10.54-51.61-8.062-28.43 3.82-54.16 22.49-66.65 48.06-10.64 21.28-11.88 46.86-3.507 69.08 6.856 18.45 20.24 34.38 37.22 44.5 16.5 9.936 36.36 14.15 55.53 11.97 33.27-3.33 63.43-27.3 73.59-58.93l.007-.021.006-.021c.763-2.797-.466-5.456-2.424-7.114-1.948-1.65-4.77-2.444-7.414-1.382-2.026.658-3.229 2.123-4.064 3.682-.418.779-.757 1.605-1.062 2.39l-.227.587c-.223.58-.432 1.125-.661 1.645l-.006.013-.006.014c-9.995 24.63-34.69 42.53-61.4 44.55h-.012c-17.75 1.562-36.02-3.537-50.2-14.23l-.008-.005c-15-11.07-25.4-28.04-28.37-46.32l-.002-.01c-3.138-18.24 1.138-37.61 11.78-52.82l.005-.006c9.404-13.67 23.67-23.97 39.7-28.64l.006-.001c17.11-5.096 36.1-3.68 52.22 3.958h.003c15.64 7.35 28.5 20.36 35.52 36.03l.003.007c.352.771.66 1.542.98 2.338.164.41.33.827.507 1.254.508 1.225 1.076 2.477 1.832 3.654z" transform="translate(-1.562 -1.398)scale(.3496)"/><path fill="url(#b)" stroke="url(#b)" stroke-width="4" d="M87.5 52.7c-3.659-2.298-8.469-3.086-12.61-1.192-5.185 2.09-8.245 7.58-7.928 12.97.008 7.233 0 14.47-.006 21.71-.014 13.83-.027 27.67.063 41.5-.215 4.709 2.547 8.736 6.277 10.99 3.736 2.26 8.609 2.841 12.73.454 12.75-7.197 25.45-14.48 38.15-21.77 6.063-3.479 12.13-6.957 18.19-10.43 5.15-2.673 8.018-8.896 6.482-14.52-.841-3.93-3.802-6.918-7.13-8.677-18.08-10.33-36.15-20.67-54.21-31.03zm-5.489 25.38c-.065-5.172 5.293-8.211 9.807-5.685 5.74 3.212 11.43 6.504 17.13 9.8 6.168 3.569 12.34 7.142 18.6 10.62.483.345 1.011.63 1.504.885l.385.197c.381.194.735.374 1.079.574.819.478.65 1.534-.169 2.013-12.26 7.18-24.55 14.32-36.95 21.27-5.132 2.876-11.4-.649-11.43-6.53-.016-3.636.018-7.273.052-10.92.049-5.126.097-10.27.006-15.43.048-2.297.02-4.556-.008-6.796z" transform="translate(-1.562 -1.398)scale(.3496)"/></svg>