<svg version="1.1" viewBox="0 0 64 64" xmlns="http://www.w3.org/2000/svg">
 <defs>
  <linearGradient id="a" x2="0" y2="1">
   <stop stop-color="#f00" offset="0"/>
   <stop stop-color="#ff006e" offset="1"/>
  </linearGradient>
  <linearGradient id="b" x2="0" y1="1">
   <stop stop-color="#1a6cff" offset="0"/>
   <stop stop-color="#c522ff" offset="1"/>
  </linearGradient>
 </defs>
 <path transform="translate(0) scale(1) translate(.00044 1.9e-5) scale(1) translate(-6e-4) scale(1) translate(.3507 .9103) scale(.9853)" d="m32.12-0.9239c-17.05 0-30.92 13.86-30.92 30.92s13.86 30.92 30.92 30.92 30.92-13.86 30.92-30.92-13.86-30.92-30.92-30.92zm6.575 4.587c2.565 0.6364 4.984 1.637 7.202 2.944 2.772 2.786-1.247 7.43-4.787 1.633-1.062-1.739-3.868-1.082-3.463 2.02 0.7814 3.939 2.375 11.89-1.229 10.81-0.7856-0.03748-0.442 0.6066-0.442 0.6066 1.556 5.794 0.7986 12.06 0.4738 18.68l0.001982 0.001982v0.005947l0.005947 0.005947v0.003964c0.1771 0.2047 3.043-0.4702 5.283-4.813 2.239-4.342 9.026-10.84 9.442 1.736 1.917 5.211 5.018-1.459 5.324-6.054 0.3194-4.757 1.817-5.854 2.531-4.676 0.1406 1.121 0.2141 2.265 0.2141 3.425 0 15-12.12 27.13-27.13 27.13-15 0-27.13-12.12-27.13-27.13 0-1.242 0.08288-2.464 0.2438-3.661 0.8067-0.608 2.148 0.8427 2.087 4.914-0.06524 4.312 3.881 11.27 5.798 6.056 1.702-10.52 5.113-6.128 9.216-0.6819 3.011 3.997 5.471 3.991 5.519 3.739-0.3234-6.592-1.075-12.82 0.45-18.6 0 0 0.4241-0.7783-0.4143-0.6978-3.614 1.09-2.015-6.868-1.231-10.81 0.4053-3.102-2.525-3.828-3.463-2.02-2.979 5.739-8.476 2.537-5.37-1.312 2.287-1.418 4.8-2.505 7.475-3.195 5.736 0.5647 5.729 11.12 6.894 12.97 0.8945-1.791 1.711-12.23 6.5-13.03z" fill="url(#b)"/>
 <path transform="translate(0) scale(1) translate(.00044 1.9e-5) scale(1) translate(-6e-4) scale(1) matrix(.9853 0 0 .9853 .3507 .9103)" d="m17 20.35c-0.5619 0.01166-0.9844 0.4609-0.9844 0.4609-7.04 7.029 8.337 11.36 11.12 3.977 0 0 0.1954-1.012-0.8164-1.354l-8.91-3.012c-0.141-0.05491-0.2805-0.07496-0.4102-0.07227z" fill="url(#a)"/>
 <path transform="translate(0) scale(1) translate(.00044 1.9e-5) scale(1) translate(-6e-4) scale(1) matrix(.9853 0 0 .9853 .3507 .9103)" d="m47.07 20.32c-0.1297-0.0019-0.2654 0.01852-0.4062 0.07422l-8.894 3.057c-1.01 0.347-0.8106 1.356-0.8106 1.356 2.82 7.365 18.17 2.965 11.1-4.029 0 0-0.4245-0.4483-0.9863-0.457z" fill="url(#a)"/>
 <path transform="translate(0) scale(1) translate(.00044 1.9e-5) scale(1) translate(-6e-4) scale(1) translate(.3507 .9103) scale(.9853)" d="m39.25 43.56c-0.2282 0.0057-0.4869 0.04537-0.7832 0.125-7.032 3.063-12.65 0.03711-12.65 0.03711-3.166-0.8314-2.188 2.912-2.188 2.912 1.824 5.546 8.537 5.072 8.537 5.072s6.714 0.434 8.506-5.123c0 0 0.7853-3.079-1.42-3.023z" fill="url(#b)" fill-opacity=".9922"/>
 <path transform="translate(0) scale(1) translate(.00044 1.9e-5) scale(1) translate(-6e-4) scale(1) matrix(.9853 0 0 .9853 .3507 .9103)" d="m27.37 45.78c-0.3104 0.01-0.6155 0.1055-0.9219 0.3301-1.496 1.096-0.02668 3.628 1.035 6.107 1.871 4.369 2.359 11.72 4.277 11.81 1.897 0.08467 2.378-8.324 5.035-12.23s1.418-5.61 0.127-5.457c-1.291 0.1513-2.656 1.139-4.934 1.064-1.85-0.06203-3.274-1.666-4.619-1.623z" fill="url(#a)"/>
</svg>
