<svg xmlns="http://www.w3.org/2000/svg" viewBox="0 0 64 64"><defs><linearGradient id="a" y1="1"><stop offset="0" stop-color="#f70606"/><stop offset="1" stop-color="#ff24f5"/></linearGradient></defs><path fill="url(#a)" d="M32.01.002C14.33.002 0 14.332 0 32.012s14.33 32.01 32.01 32.01 32.01-14.33 32.01-32.01S49.69.002 32.01.002m0 6.4c14.14 0 25.61 11.47 25.61 25.61s-11.46 25.61-25.61 25.61S6.4 46.162 6.4 32.012c0-14.14 11.47-25.61 25.61-25.61" transform="translate(0 -.002)scale(.9997)"/><path fill="url(#a)" d="M24.18 17.61a3.27 3.27 0 0 0-2.383.943 3.33 3.33 0 0 0-.996 2.381v11.07l.002 11.08c0 .585.152 1.16.441 1.666.29.507.706.926 1.207 1.22a3.28 3.28 0 0 0 3.3.001l9.504-5.54 9.504-5.536a3.3 3.3 0 0 0 1.207-1.219 3.35 3.35 0 0 0 .002-3.33 3.3 3.3 0 0 0-1.207-1.219l-9.506-5.535-9.504-5.539a3.3 3.3 0 0 0-1.572-.443z" transform="translate(0 -.002)scale(.9997)"/></svg>