<svg version="1.1" viewBox="0 0 64 64" xmlns="http://www.w3.org/2000/svg" xmlns:xlink="http://www.w3.org/1999/xlink">
 <defs>
  <linearGradient id="b" x2="0" y1="1">
   <stop stop-color="#01ff01" offset="0"/>
   <stop stop-color="#1bc100" offset="1"/>
  </linearGradient>
  <linearGradient id="d" x2="0" y2="1">
   <stop stop-color="#fda700" offset="0"/>
   <stop stop-color="#ffde00" offset="1"/>
  </linearGradient>
  <linearGradient id="a" y1="1">
   <stop stop-color="#00efff" offset="0"/>
   <stop stop-color="#07f" offset="1"/>
  </linearGradient>
  <linearGradient id="m" x1="2" x2="22" y1="22" y2="2" gradientTransform="matrix(-3.2,0,0,3.2,70.4,-6.4)" gradientUnits="userSpaceOnUse" xlink:href="#a"/>
  <linearGradient id="l" x1="17" x2="17" y1="19" y2="17" gradientTransform="matrix(-3.2,0,0,3.2,70.4,-6.4)" gradientUnits="userSpaceOnUse" xlink:href="#b"/>
  <linearGradient id="k" x1="14" x2="14" y1="17" y2="19" gradientTransform="matrix(-3.2,0,0,3.2,70.4,-6.4)" gradientUnits="userSpaceOnUse" xlink:href="#d"/>
  <linearGradient id="i" x1="17" x2="17" y1="13" y2="11" gradientTransform="matrix(-3.2,0,0,3.2,70.4,-6.4)" gradientUnits="userSpaceOnUse" xlink:href="#b"/>
  <linearGradient id="h" x1="14" x2="14" y1="11" y2="13" gradientTransform="matrix(-3.2,0,0,3.2,70.4,-6.4)" gradientUnits="userSpaceOnUse" xlink:href="#d"/>
  <linearGradient id="f" x1="17" x2="17" y1="7" y2="5" gradientTransform="matrix(-3.2,0,0,3.2,70.4,-6.4)" gradientUnits="userSpaceOnUse" xlink:href="#b"/>
  <linearGradient id="e" x1="14" x2="14" y1="5" y2="7" gradientTransform="matrix(-3.2,0,0,3.2,70.4,-6.4)" gradientUnits="userSpaceOnUse" xlink:href="#d"/>
  <linearGradient id="c" x1="3.162" x2="6.325" y1="11.07" y2="7.906" gradientTransform="matrix(-5.059 0 0 2.024 70.4 -6.4)" gradientUnits="userSpaceOnUse" xlink:href="#a"/>
  <linearGradient id="g" x1="58.91" x2=".003682" y1="5.316" y2="64.22" gradientTransform="matrix(.5706 0 0 .4834 30.52 32.96)" gradientUnits="userSpaceOnUse">
   <stop stop-color="#46d9ff" offset="0"/>
   <stop stop-color="#ff23ff" offset=".5"/>
   <stop stop-color="#ffd93f" offset="1"/>
  </linearGradient>
 </defs>
 <path transform="translate(0) scale(1) translate(0) scale(1) translate(0) scale(1) translate(0 7e-6) scale(1) translate(0 .00119) scale(.9999) translate(0 .06786) scale(.9979)" d="m9.6 0c-5.302 2.157e-4 -9.599 4.298-9.6 9.6v6.4c0.01404 2.368 0.903 4.648 2.496 6.4-1.593 1.753-2.482 4.032-2.496 6.4v6.398c0.01404 2.368 0.903 4.648 2.496 6.4-1.593 1.753-2.482 4.032-2.496 6.4v6.4c2.159e-4 5.302 4.298 9.599 9.6 9.6h23.05c-0.4303-0.298-0.8345-0.6374-1.207-1.016-1.382-1.402-2.278-3.298-2.408-5.385h-19.44c-1.767-4.31e-4 -3.199-1.433-3.199-3.199v-6.4c4.311e-4 -1.767 1.433-3.199 3.199-3.199h19.42v-3.965c0-0.8569 0.1617-1.678 0.4551-2.436h-19.88c-1.767-4.31e-4 -3.2-1.434-3.199-3.201v-6.398c-6.474e-4 -1.767 1.432-3.201 3.199-3.201h44.8c1.767 4.32e-4 3.2 1.434 3.199 3.201v6.398c8.31e-4 1.536-1.089 2.855-2.598 3.145 3.778 0.2814 6.502 3.256 6.502 3.256 1.593-1.753 2.482-4.032 2.496-6.4v-6.398c-0.01404-2.368-0.903-4.648-2.496-6.4 1.593-1.753 2.482-4.032 2.496-6.4v-6.4c-2.16e-4 -5.302-4.298-9.599-9.6-9.6zm0 6.4h44.8c1.767 4.317e-4 3.199 1.433 3.199 3.199v6.4c-4.31e-4 1.767-1.433 3.199-3.199 3.199h-44.8c-1.767-4.31e-4 -3.199-1.433-3.199-3.199v-6.4c4.312e-4 -1.767 1.433-3.199 3.199-3.199z" fill="url(#m)" stroke-width="3.2"/>
 <path transform="translate(0) scale(1) translate(0) scale(1) translate(0) scale(1) translate(0 7e-6) scale(1) translate(0 .00119) scale(.9999) translate(0 .06786) scale(.9979)" d="m12.8 48a3.2 3.2 0 1 1-3.2 3.2 3.2 3.2 0 0 1 3.2-3.2" fill="url(#l)" stroke-width="3.2"/>
 <path transform="translate(0) scale(1) translate(0) scale(1) translate(0) scale(1) translate(0 7e-6) scale(1) translate(0 .00119) scale(.9999) translate(0 .06786) scale(.9979)" d="m22.4 48a3.2 3.2 0 1 1-3.2 3.2 3.2 3.2 0 0 1 3.2-3.2" fill="url(#k)" stroke-width="3.2"/>
 <path transform="translate(0) scale(1) translate(0) scale(1) translate(0) scale(1) translate(0 7e-6) scale(1) translate(0 .00119) scale(.9999) translate(0 .06786) scale(.9979)" d="m12.8 28.8a3.2 3.2 0 1 1-3.2 3.2 3.2 3.2 0 0 1 3.2-3.2" fill="url(#i)" stroke-width="3.2"/>
 <path transform="translate(0) scale(1) translate(0) scale(1) translate(0) scale(1) translate(0 7e-6) scale(1) translate(0 .00119) scale(.9999) translate(0 .06786) scale(.9979)" d="m22.4 28.8a3.2 3.2 0 1 1-3.2 3.2 3.2 3.2 0 0 1 3.2-3.2" fill="url(#h)" stroke-width="3.2"/>
 <path transform="translate(0) scale(1) translate(0) scale(1) translate(0) scale(1) translate(0 7e-6) scale(1) translate(0 .00119) scale(.9999) translate(0 .06786) scale(.9979)" d="m12.8 9.6a3.2 3.2 0 1 1-3.2 3.2 3.2 3.2 0 0 1 3.2-3.2" fill="url(#f)" stroke-width="3.2"/>
 <path transform="translate(0) scale(1) translate(0) scale(1) translate(0) scale(1) translate(0 7e-6) scale(1) translate(0 .00119) scale(.9999) translate(0 .06786) scale(.9979)" d="m22.4 9.6a3.2 3.2 0 1 1-3.2 3.2 3.2 3.2 0 0 1 3.2-3.2" fill="url(#e)" stroke-width="3.2"/>
 <path transform="translate(0) scale(1) translate(0) scale(1) translate(0) scale(1) translate(0 7e-6) scale(1) translate(0 .00119) scale(.9999) translate(0 .06786) scale(.9979)" d="m51.2 9.6a3.2 3.2 0 0 1 0 6.4h-9.6a3.2 3.2 0 0 1 0-6.4z" fill="url(#c)" stroke-width="3.2"/>
 <path transform="translate(0) scale(1) translate(0) scale(1) translate(0) scale(1) translate(0 7e-6) scale(1) translate(0 .00119) scale(.9999) translate(0 .06786) scale(.9979)" d="m40.29 35.53-4.462 0.0061c-2.925-1e-6 -5.305 2.379-5.305 5.305v16.23c0 1.893 0.76 3.612 1.991 4.861a6.933 6.933 0 0 0 4.938 2.068h16.95c2.832 0 5.383-1.727 6.434-4.358l2.959-7.4c1.008-2.521-0.3063-5.171-2.587-6.198-0.3734-3.472-3.24-6.224-6.812-6.224h-6.492c-0.3203 0-0.6297-0.1285-0.8535-0.358l-1.794-1.842a6.933 6.933 0 0 0-4.964-2.095zm-4.462 4.125h4.464c0.7584 0 1.484 0.3064 2.013 0.8493l1.794 1.842a5.315 5.315 0 0 0 3.804 1.603h6.492c1.096 0 1.924 0.7027 2.388 1.611h-16.26a5.31 5.31 0 0 0-5.048 3.667l-0.8319 2.563v-10.95c0-0.6607 0.5257-1.186 1.186-1.186zm4.69 10.03h18.74c0.5499 0 0.9076 0.5268 0.7038 1.037l-2.96 7.4a2.81 2.81 0 0 1-2.61 1.769h-16.95c-0.3707 0-0.6975-0.1345-1.019-0.2637l2.96-9.123a1.182 1.182 0 0 1 1.129-0.8193z" fill="url(#g)" stroke-width=".5252"/>
</svg>
