<svg version="1.1" viewBox="0 0 64 64" xmlns="http://www.w3.org/2000/svg">
 <defs>
  <linearGradient id="c" x2="0" y2="1">
   <stop stop-color="#0f9" offset="0"/>
   <stop stop-color="#14dc57" offset="1"/>
  </linearGradient>
  <linearGradient id="b" x2="0" y1="1">
   <stop stop-color="#06f711" offset="0"/>
   <stop stop-color="#b8ff24" offset="1"/>
  </linearGradient>
  <linearGradient id="a" y1="1">
   <stop stop-color="#ff1b9d" offset="0"/>
   <stop stop-color="#ff63dd" offset="1"/>
  </linearGradient>
 </defs>
 <path transform="translate(0 1e-6) scale(1) translate(0 -1e-6) scale(1) translate(-8e-4 8e-5) scale(1) matrix(4.05 0 0 4.05 -.4034 -.4035)" d="m3.5 3.1c-1.591 0-2.9 1.309-2.9 2.9v6c0 2.143 1.757 3.9 3.9 3.9h7c2.143 0 3.9-1.757 3.9-3.9v-6c0-1.591-1.309-2.9-2.9-2.9zm0 1.801h9c0.6182 0 1.1 0.4814 1.1 1.1v6c0 1.17-0.9291 2.1-2.1 2.1h-7c-1.17 0-2.1-0.9291-2.1-2.1v-6c0-0.6182 0.4814-1.1 1.1-1.1z" fill="url(#c)"/>
 <path transform="translate(0 1e-6) scale(1) translate(0 -1e-6) scale(1) translate(-8e-4 8e-5) scale(1) matrix(4.05 0 0 4.05 -.4034 -.4035)" d="m7.945 0.09961c-1.775 0-3.234 1.459-3.234 3.234v3.111a0.9 0.9 0 0 0 0.9004 0.8984 0.9 0.9 0 0 0 0.9004-0.8984v-3.111c0-0.8023 0.6313-1.434 1.434-1.434 0.8023 0 1.434 0.6313 1.434 1.434v3.111a0.9 0.9 0 0 0 0.8984 0.8984 0.9 0.9 0 0 0 0.9004-0.8984v-3.111c0-1.775-1.457-3.234-3.232-3.234z" fill="url(#b)"/>
 <path transform="translate(0 1e-6) scale(1) translate(0 -1e-6) scale(1) translate(-8e-4 8e-5) scale(1)" d="m32.22 32.01a2.81 2.81 0 0 0-1.988 0.8245l-12.63 12.63a3.159 3.159 0 0 0-0.6925 1.037 3.24 3.24 0 0 0-0.2486 1.225 3.199 3.199 0 0 0 0.9355 2.262c1.238 1.258 3.278 1.252 4.514 0.0162l1.845-1.839 6.264-6.269a2.831 2.831 0 0 1 4.002 0l0.9039 0.9039a0.5669 0.5669 0 0 0 0.3807 0.1636l7.765 0.307a0.5669 0.5669 0 0 0 0.4228-0.967l-9.476-9.476a2.819 2.819 0 0 0-1.992-0.8302zm5.128 12.09a0.5669 0.5669 0 0 0-0.4228 0.967l3.102 3.097 1.84 1.834a3.197 3.197 0 0 0 4.525 0 3.195 3.195 0 0 0 0-4.525l-0.899-0.9039a0.5669 0.5669 0 0 0-0.3807-0.1636z" fill="url(#a)" stroke-width=".8099"/>
</svg>
