<svg xmlns="http://www.w3.org/2000/svg" style="isolation:isolate" viewBox="0 0 64 64"><linearGradient id="a" x2="1" y1=".5" y2=".5" gradientTransform="matrix(39.8 0 0 45.5 4.099 1.25)" gradientUnits="userSpaceOnUse" transform="translate(-1.755 -1.758)scale(1.40658)"><stop offset="0" stop-color="#43e97b"/><stop offset=".978" stop-color="#38f9d7"/></linearGradient><path fill="url(#a)" d="M21.14 1.25c-8.725 0-13.71 3.572-16.96 7.597a99 99 0 0 1 4.797 1.439l.067-3.772.049-.109.126-.038c.768.111 17.12 2.53 24.01 6.545.853.502 1.272 1.025 1.8 1.565 1.904 1.968 4.434 10.16 4.702 11.86l-.109.174c-.099.037-.339.205-.652.419-1.608 1.123-5.366 3.755-10.18 3.326-4.333-.386-9.987-2.872-16.81-7.363.301.708 1.717 4.075 1.955 4.64l.098.116c.987.51 10.46 5.341 15.16 5.242 3.793-.075 7.844-1.926 9.464-2.898l.516-.098c.144.114.122.333.077.536-.099.465-.322 1.317-.477 1.713l-.127.33c-.183.49-.364.962-.709 1.245-.956.87-2.485 1.558-4.873 2.605-3.693 1.613-9.678 2.629-15.24 2.597-1.991-.045-3.919-.264-5.611-.457-3.531-.403-6.4-.726-8.114.604 4.168 4.711 10.26 7.684 17.04 7.684 12.56 0 22.76-10.18 22.76-22.75 0-12.56-10.2-22.75-22.76-22.75l-.003-.001zm6.013 12.04a6.9 6.9 0 0 0-4.66 1.877 6.94 6.94 0 0 0-2.224 4.874c-.126 3.851 2.906 7.102 6.759 7.246a6.95 6.95 0 0 0 5.018-1.887 6.96 6.96 0 0 0 2.217-4.864c.132-3.857-2.899-7.107-6.759-7.246a6 6 0 0 0-.351 0m-.185 2.062a5 5 0 0 1 .477 0 4.89 4.89 0 0 1 3.171 8.455 4.89 4.89 0 0 1-3.501 1.301 4.9 4.9 0 0 1-4.709-5.057 4.84 4.84 0 0 1 1.548-3.395 4.83 4.83 0 0 1 3.014-1.304m1.284 2.443c-1.199 0-2.168.65-2.168 1.448 0 .795.969 1.45 2.168 1.45 1.196 0 2.158-.653 2.158-1.45 0-.798-.962-1.448-2.158-1.448" transform="translate(-1.755 -1.758)scale(1.40658)"/></svg>