<svg version="1.1" viewBox="0 0 64 64" xmlns="http://www.w3.org/2000/svg">
 <defs>
  <linearGradient id="a" y2="1">
   <stop stop-color="#00f1fa" offset="0"/>
   <stop stop-color="#006cff" offset="1"/>
  </linearGradient>
 </defs>
 <path transform="translate(0) scale(1) translate(0) scale(1) translate(0) scale(1) translate(0) scale(1) translate(-.00275 -2.4e-5) scale(1) translate(.0024 -.000629) scale(1)" d="m32.92 0.0293a14.57 14.57 0 0 0-1.857 0.001953 14.57 14.57 0 0 0-5.359 1.396h-0.0078l-18.62 8.94a10.55 10.55 0 0 0-5.977 9.498v2.197a44.36 44.36 0 0 0 20.45 37.36l4.344 2.785a11.3 11.3 0 0 0 12.21 0l4.346-2.785a44.36 44.36 0 0 0 20.45-37.36v-2.197c0-4.052-2.32-7.746-5.977-9.498l-18.63-8.94a14.57 14.57 0 0 0-5.367-1.398zm-1.422 6.606a7.945 7.945 0 0 1 3.932 0.7676l18.62 8.93a3.928 3.928 0 0 1 2.223 3.533v2.199a37.74 37.74 0 0 1-17.4 31.78l-4.354 2.785a4.679 4.679 0 0 1-5.051 0l-4.354-2.785a37.74 37.74 0 0 1-17.4-31.78v-2.199c0-1.505 0.8695-2.88 2.225-3.533l18.62-8.93a7.945 7.945 0 0 1 2.924-0.7676z" fill="url(#a)"/>
 <path transform="translate(0) scale(1) translate(0) scale(1) translate(0) scale(1) translate(0) scale(1) translate(-.00275 -2.4e-5) scale(1) translate(.0024 -.000629) scale(1)" d="m32 13.87c-4.286 0-7.791 3.506-7.791 7.793v2.301c-2.264 0.786-4.032 2.682-4.361 5.131-0.2026 1.505-0.3789 3.094-0.3789 4.754s0.1763 3.251 0.3789 4.758c0.4117 3.058 2.949 5.464 6.062 5.609 1.944 0.08934 3.921 0.1367 6.092 0.1367s4.146-0.04738 6.09-0.1367c3.113-0.1431 5.65-2.549 6.064-5.609 0.2026-1.505 0.3789-3.094 0.3789-4.758s-0.1763-3.25-0.3789-4.754c-0.3299-2.45-2.098-4.345-4.361-5.131v-2.301c0-4.286-3.506-7.793-7.793-7.793zm0 3.396c2.451 0 4.396 1.943 4.396 4.394v1.772c-1.414-0.04622-2.843-0.08203-4.396-0.08203-1.554 0-2.98 0.03583-4.394 0.08203v-1.772c0-2.451 1.943-4.394 4.394-4.394zm0 9.48c2.122 0 4.044 0.04386 5.938 0.1309 1.443 0.06632 2.653 1.204 2.852 2.67 0.1946 1.447 0.3477 2.884 0.3477 4.303s-0.153 2.854-0.3477 4.301c-0.1973 1.465-1.409 2.606-2.852 2.672-1.892 0.08698-3.814 0.1328-5.938 0.1328s-4.043-0.04584-5.936-0.1328c-1.443-0.06632-2.653-1.206-2.852-2.672-0.1947-1.447-0.3496-2.882-0.3496-4.301s0.1548-2.856 0.3496-4.303c0.1973-1.465 1.409-2.604 2.852-2.67 1.892-0.08702 3.813-0.1309 5.936-0.1309z" fill="url(#a)"/>
 <path transform="translate(0) scale(1) translate(0) scale(1) translate(0) scale(1) translate(0) scale(1) translate(-.00275 -2.4e-5) scale(1) translate(.0024 -.000629) scale(1)" d="m32 30.04a2.271 2.271 0 0 0-1.523 3.977v2.119a1.524 1.524 0 0 0 3.049 0v-2.119a2.271 2.271 0 0 0-1.525-3.977z" fill="url(#a)"/>
</svg>
