<svg version="1.1" viewBox="0 0 64 64" xmlns="http://www.w3.org/2000/svg" xmlns:xlink="http://www.w3.org/1999/xlink">
 <defs>
  <linearGradient id="b" x2="0" y1="1">
   <stop stop-color="#01ff01" offset="0"/>
   <stop stop-color="#1bc100" offset="1"/>
  </linearGradient>
  <linearGradient id="d" x2="0" y2="1">
   <stop stop-color="#fda700" offset="0"/>
   <stop stop-color="#ffde00" offset="1"/>
  </linearGradient>
  <linearGradient id="l" x1="17" x2="17" y1="19" y2="17" gradientTransform="matrix(-3.2,0,0,3.2,70.4,-6.4)" gradientUnits="userSpaceOnUse" xlink:href="#b"/>
  <linearGradient id="k" x1="14" x2="14" y1="17" y2="19" gradientTransform="matrix(-3.2,0,0,3.2,70.4,-6.4)" gradientUnits="userSpaceOnUse" xlink:href="#d"/>
  <linearGradient id="i" x1="17" x2="17" y1="13" y2="11" gradientTransform="matrix(-3.2,0,0,3.2,70.4,-6.4)" gradientUnits="userSpaceOnUse" xlink:href="#b"/>
  <linearGradient id="h" x1="14" x2="14" y1="11" y2="13" gradientTransform="matrix(-3.2,0,0,3.2,70.4,-6.4)" gradientUnits="userSpaceOnUse" xlink:href="#d"/>
  <linearGradient id="f" x1="17" x2="17" y1="7" y2="5" gradientTransform="matrix(-3.2,0,0,3.2,70.4,-6.4)" gradientUnits="userSpaceOnUse" xlink:href="#b"/>
  <linearGradient id="e" x1="14" x2="14" y1="5" y2="7" gradientTransform="matrix(-3.2,0,0,3.2,70.4,-6.4)" gradientUnits="userSpaceOnUse" xlink:href="#d"/>
  <linearGradient id="c" x1="3.162" x2="6.325" y1="11.07" y2="7.906" gradientTransform="matrix(-5.059 0 0 2.024 70.4 -6.4)" gradientUnits="userSpaceOnUse">
   <stop stop-color="#00efff" offset="0"/>
   <stop stop-color="#07f" offset="1"/>
  </linearGradient>
  <linearGradient id="n" x1="19.88" x2=".8187" y1="13.69" y2="13.69" gradientTransform="matrix(1.394 0 0 1.234 33.77 33.57)" gradientUnits="userSpaceOnUse" xlink:href="#a"/>
  <linearGradient id="a" x1="1" x2="0" y1=".5" y2=".5">
   <stop stop-color="#0061ff" offset="0"/>
   <stop stop-color="#60efff" offset="1"/>
  </linearGradient>
  <linearGradient id="m" x1="21.99" x2="15.05" y1="17.51" y2="17.51" gradientTransform="matrix(1.312 0 0 1.312 33.77 33.57)" gradientUnits="userSpaceOnUse" xlink:href="#a"/>
  <linearGradient id="j" x1="6.948" x2=".002" y1="17.51" y2="17.51" gradientTransform="matrix(1.312 0 0 1.312 33.77 33.57)" gradientUnits="userSpaceOnUse" xlink:href="#a"/>
  <linearGradient id="g" x1="14.42" x2="7.467" y1="3.618" y2="3.618" gradientTransform="matrix(1.312 0 0 1.312 33.77 33.57)" gradientUnits="userSpaceOnUse">
   <stop stop-color="#0061ff" offset="0"/>
   <stop stop-color="#60efff" offset="1"/>
  </linearGradient>
  <linearGradient id="o" y1=".5" y2=".5">
   <stop stop-color="#5800e2" offset="0"/>
   <stop stop-color="#ff00e6" offset="1"/>
  </linearGradient>
 </defs>
 <path transform="translate(.00165 .00055) scale(1) translate(0) scale(1)" d="m9.6 0c-5.302 2.157e-4 -9.599 4.298-9.6 9.6v6.4c0.01404 2.368 0.903 4.648 2.496 6.4-1.593 1.753-2.482 4.032-2.496 6.4v6.398c0.01404 2.368 0.903 4.648 2.496 6.4-1.593 1.753-2.482 4.032-2.496 6.4v6.4c2.159e-4 5.302 4.298 9.599 9.6 9.6h25.55c-1.245-0.3316-2.296-0.9894-3.059-1.848-1.119-1.258-1.645-2.878-1.645-4.477 1e-6 -0.02526-2.62e-4 -0.05091 0-0.07617h-20.85c-1.767-4.33e-4 -3.199-1.433-3.199-3.199v-6.4c4.311e-4 -1.767 1.433-3.199 3.199-3.199h22.72c0.6687-2.362 1.869-4.555 3.52-6.4h-26.24c-1.767-4.31e-4 -3.2-1.434-3.199-3.201v-6.398c-6.474e-4 -1.767 1.432-3.201 3.199-3.201h44.8c1.767 4.32e-4 3.2 1.434 3.199 3.201v6.398c3.69e-4 0.4095-0.07787 0.8153-0.2305 1.195 0.4946 0.08312 0.9596 0.2995 1.344 0.6289 0.0046 0.0039 0.0091 0.0078 0.01367 0.01172 1.31 1.152 2.412 2.495 3.277 3.969 1.283-1.664 1.984-3.703 1.996-5.805v-6.398c-0.01404-2.368-0.903-4.648-2.496-6.4 1.593-1.753 2.482-4.032 2.496-6.4v-6.4c-2.16e-4 -5.302-4.298-9.599-9.6-9.6zm0 6.4h44.8c1.767 4.317e-4 3.199 1.433 3.199 3.199v6.4c-4.31e-4 1.767-1.433 3.199-3.199 3.199h-44.8c-1.767-4.31e-4 -3.199-1.433-3.199-3.199v-6.4c4.312e-4 -1.767 1.433-3.199 3.199-3.199z" fill="url(#o)" stroke-width="3.2"/>
 <path transform="translate(.00165 .00055) scale(1) translate(0) scale(1)" d="m12.8 48a3.2 3.2 0 1 1-3.2 3.2 3.2 3.2 0 0 1 3.2-3.2" fill="url(#l)" stroke-width="3.2"/>
 <path transform="translate(.00165 .00055) scale(1) translate(0) scale(1)" d="m22.4 48a3.2 3.2 0 1 1-3.2 3.2 3.2 3.2 0 0 1 3.2-3.2" fill="url(#k)" stroke-width="3.2"/>
 <path transform="translate(.00165 .00055) scale(1) translate(0) scale(1)" d="m12.8 28.8a3.2 3.2 0 1 1-3.2 3.2 3.2 3.2 0 0 1 3.2-3.2" fill="url(#i)" stroke-width="3.2"/>
 <path transform="translate(.00165 .00055) scale(1) translate(0) scale(1)" d="m22.4 28.8a3.2 3.2 0 1 1-3.2 3.2 3.2 3.2 0 0 1 3.2-3.2" fill="url(#h)" stroke-width="3.2"/>
 <path transform="translate(.00165 .00055) scale(1) translate(0) scale(1)" d="m12.8 9.6a3.2 3.2 0 1 1-3.2 3.2 3.2 3.2 0 0 1 3.2-3.2" fill="url(#f)" stroke-width="3.2"/>
 <path transform="translate(.00165 .00055) scale(1) translate(0) scale(1)" d="m22.4 9.6a3.2 3.2 0 1 1-3.2 3.2 3.2 3.2 0 0 1 3.2-3.2" fill="url(#e)" stroke-width="3.2"/>
 <path transform="translate(.00165 .00055) scale(1) translate(0) scale(1)" d="m51.2 9.6a3.2 3.2 0 0 1 0 6.4h-9.6a3.2 3.2 0 0 1 0-6.4z" fill="url(#c)" stroke-width="3.2"/>
 <path transform="translate(.00165 .00055) scale(1) translate(0) scale(1)" d="m40.11 38.71a1.141 1.141 0 0 0-0.7083 0.2742 13.26 13.26 0 0 0-4.497 9.967 1.136 1.136 0 0 0 1.139 1.141 1.141 1.141 0 0 0 1.14-1.141 10.98 10.98 0 0 1 3.728-8.26 1.139 1.139 0 0 0-0.8002-1.981zm16.16 0q-0.0564 0-0.1128 0.0026a1.137 1.137 0 0 0-0.686 1.978 10.99 10.99 0 0 1 3.728 8.26 1.141 1.141 0 0 0 1.14 1.14 1.136 1.136 0 0 0 1.137-1.141 13.25 13.25 0 0 0-4.499-9.965 1.141 1.141 0 0 0-0.7057-0.2755zm-11.17 20.86a1.181 1.181 0 0 0-0.5431 0.1482 1.148 1.148 0 0 0-0.4106 1.583 1.128 1.128 0 0 0 0.7215 0.5181c2.177 0.5614 4.465 0.5614 6.644 0a1.139 1.139 0 1 0-0.5693-2.206 11.12 11.12 0 0 1-5.509 0 1.181 1.181 0 0 0-0.3345-0.04329z" fill="url(#n)" opacity=".5" stroke-width="1.312"/>
 <path transform="translate(.00165 .00055) scale(1) translate(0) scale(1)" d="m58.06 51.99a4.557 4.557 0 1 0 0 9.114 4.557 4.557 0 0 0 0-9.114" fill="url(#m)" stroke-width="1.312"/>
 <path transform="translate(.00165 .00055) scale(1) translate(0) scale(1)" d="m38.33 51.99a4.556 4.556 0 1 0 0 9.111 4.556 4.556 0 0 0 0-9.111z" fill="url(#j)" stroke-width="1.312"/>
 <path transform="translate(.00165 .00055) scale(1) translate(0) scale(1)" d="m48.2 33.76a4.557 4.557 0 1 0 0 9.113 4.557 4.557 0 0 0 0-9.113" fill="url(#g)" stroke-width="1.312"/>
</svg>
