<svg version="1.1" viewBox="0 0 64 64" xmlns="http://www.w3.org/2000/svg">
 <defs>
  <linearGradient id="a" x1="51.94" x2="12.05" y1="51.94" y2="12.05" gradientTransform="scale(.9999 1)" gradientUnits="userSpaceOnUse">
   <stop stop-color="#46d9ff" offset="0"/>
   <stop stop-color="#ff23ff" offset=".5"/>
   <stop stop-color="#ffd93f" offset="1"/>
  </linearGradient>
 </defs>
 <path transform="translate(-0) scale(1) translate(-.00306 -5.1e-5) scale(1) translate(-.000377 5.6e-5) scale(1)" d="m31.98 0c-4.14-4.623e-6 -7.477-0.0054-10.09 0.3457-2.679 0.3602-4.931 1.13-6.721 2.922-2.202 2.202-2.882 5.138-3.123 8.781-0.7178 0.0489-1.399 0.1138-2.049 0.2012-2.684 0.361-4.996 1.19-6.727 2.922-1.732 1.73-2.551 4.043-2.912 6.725-0.361 2.684-0.3477 5.885-0.3477 10.1 0 4.213-0.01318 7.414 0.3477 10.1 0.361 2.684 1.182 4.993 2.912 6.725 2.153 2.153 5.028 2.864 8.777 3.117 0.04879 0.7367 0.1142 1.427 0.2012 2.074 0.3602 2.679 1.126 4.931 2.918 6.721 1.792 1.792 4.05 2.561 6.727 2.922 2.614 0.3514 5.954 0.3457 10.1 0.3457 4.144 0 7.48 0.0057 10.1-0.3457 2.679-0.3602 4.938-1.13 6.727-2.922 1.792-1.792 2.556-4.044 2.916-6.721 0.08686-0.6463 0.1518-1.336 0.2012-2.072 3.761-0.2502 6.633-0.96 8.793-3.119 1.73-1.73 2.56-4.042 2.922-6.725 0.361-2.684 0.3457-5.887 0.3457-10.1 0-4.211 0.01503-7.412-0.3457-10.1-0.361-2.684-1.19-4.994-2.922-6.725-1.73-1.73-4.038-2.56-6.721-2.922-0.6575-0.08856-1.344-0.154-2.072-0.2031-0.2404-3.643-0.9244-6.578-3.127-8.779-1.792-1.792-4.047-2.561-6.725-2.922-2.614-0.3514-5.948-0.3457-10.1-0.3457zm0.0078 4.465h0.0039c4.268 3.5e-6 7.243 0.00451 9.49 0.3066 2.183 0.2935 3.344 0.825 4.168 1.648 0.9981 0.9981 1.546 2.452 1.789 5.49-1.097-0.0079-2.272-0.0059-3.537-0.0059h-23.8c-1.274 0-2.456-0.0023-3.559 0.0059 0.2421-3.038 0.787-4.492 1.785-5.49 0.8238-0.8238 1.983-1.354 4.166-1.648 2.247-0.3022 5.228-0.3066 9.496-0.3066zm-11.9 11.91h23.81c4.207 0 7.317 0.0118 9.496 0.3047 2.178 0.2929 3.287 0.7703 4.172 1.654 0.8841 0.8841 1.354 1.988 1.646 4.166s0.3066 5.292 0.3066 9.502-0.01373 7.317-0.3066 9.496c-0.2929 2.178-0.7628 3.281-1.646 4.166-1.048 1.048-2.567 1.564-5.5 1.793 0.0098-1.109 0.0098-2.289 0.0098-3.543v-3.721h0.7461a2.232 2.232 0 0 0 2.232-2.234 2.232 2.232 0 0 0-2.232-2.232h-41.66a2.232 2.232 0 0 0-2.232 2.232 2.232 2.232 0 0 0 2.232 2.234h0.7305v3.721c0 1.254 6.56e-4 2.433 0.0098 3.541-2.92-0.2303-4.438-0.7465-5.48-1.791-0.8841-0.8841-1.354-1.988-1.646-4.166-0.2929-2.178-0.3125-5.286-0.3125-9.496s0.01973-7.323 0.3125-9.502c0.2929-2.178 0.7628-3.281 1.646-4.166 0.8841-0.8838 1.988-1.361 4.166-1.654 2.178-0.2929 5.292-0.3047 9.502-0.3047zm26.78 6.69a2.976 2.976 0 0 0-2.973 2.977 2.976 2.976 0 0 0 2.973 2.977 2.976 2.976 0 0 0 2.977-2.977 2.976 2.976 0 0 0-2.977-2.977zm-32.73 0.7461a2.232 2.232 0 0 0-2.232 2.232 2.232 2.232 0 0 0 2.232 2.232h8.926a2.232 2.232 0 0 0 2.232-2.232 2.232 2.232 0 0 0-2.232-2.232zm2.221 16.38h31.25v3.723c0 4.271-0.0044 7.246-0.3066 9.494-0.2938 2.183-0.8307 3.342-1.654 4.166-0.8238 0.8216-1.983 1.358-4.166 1.652-2.248 0.302-5.225 0.3066-9.496 0.3066s-7.251-0.0044-9.5-0.3066c-2.183-0.2938-3.344-0.8288-4.168-1.652-0.8216-0.8238-1.356-1.983-1.65-4.166-0.3023-2.248-0.3086-5.223-0.3086-9.494zm6.707 2.953a2.232 2.232 0 0 0-2.23 2.227 2.232 2.232 0 0 0 2.23 2.232h17.86a2.232 2.232 0 0 0 2.232-2.232 2.232 2.232 0 0 0-2.232-2.227zm0 7.447a2.232 2.232 0 0 0-2.23 2.23 2.232 2.232 0 0 0 2.23 2.232h11.91a2.232 2.232 0 0 0 2.234-2.232 2.232 2.232 0 0 0-2.234-2.23z" fill="url(#a)"/>
</svg>
