<svg version="1.1" viewBox="0 0 64 64" xmlns="http://www.w3.org/2000/svg">
 <defs>
  <linearGradient id="a" y2="1">
   <stop stop-color="#00d2ff" offset="0"/>
   <stop stop-color="#0006ff" offset="1"/>
  </linearGradient>
  <linearGradient id="b" y1="1">
   <stop stop-color="#b3ffab" offset="0"/>
   <stop stop-color="#12fff7" offset="1"/>
  </linearGradient>
 </defs>
 <path transform="translate(0) scale(1) translate(0) scale(1) translate(0) scale(1) translate(0) scale(1) translate(0) scale(1) translate(0) scale(1) translate(0) scale(1) translate(0 -.002) scale(1) translate(.001262 .00045) scale(1) translate(-13.21 -13.21) scale(1.413)" d="m39.3 33.2a6.24 6.24 0 0 0-6.234 6.234v8.965a6.24 6.24 0 0 0 6.234 6.234h8.969a6.24 6.24 0 0 0 6.234-6.234v-8.965a6.24 6.24 0 0 0-6.234-6.234z" fill="url(#a)"/>
 <path transform="translate(0) scale(1) translate(0) scale(1) translate(0) scale(1) translate(0) scale(1) translate(0) scale(1) translate(0) scale(1) translate(0) scale(1) translate(0 -.002) scale(1) translate(.001262 .00045) scale(1) translate(-13.21 -13.21) scale(1.413)" d="m15.71 33.12a6.24 6.24 0 0 0-6.234 6.234v8.967a6.24 6.24 0 0 0 6.234 6.234h8.967a6.24 6.24 0 0 0 6.234-6.234v-8.967a6.24 6.24 0 0 0-6.234-6.234z" fill="url(#a)"/>
 <path transform="translate(0) scale(1) translate(0) scale(1) translate(0) scale(1) translate(0) scale(1) translate(0) scale(1) translate(0) scale(1) translate(0) scale(1) translate(0 -.002) scale(1) translate(.001262 .00045) scale(1) translate(-13.21 -13.21) scale(1.413)" d="m39.3 9.405a6.24 6.24 0 0 0-6.234 6.234v8.969a6.24 6.24 0 0 0 6.234 6.234h8.969a6.24 6.24 0 0 0 6.234-6.234v-8.969a6.24 6.24 0 0 0-6.234-6.234z" fill="url(#a)"/>
 <path transform="translate(0) scale(1) translate(0) scale(1) translate(0) scale(1) translate(0) scale(1) translate(0) scale(1) translate(0) scale(1) translate(0) scale(1) translate(0 -.002) scale(1) translate(.001262 .00045) scale(1) translate(-13.21 -13.21) scale(1.413)" d="m15.91 9.35a6.24 6.24 0 0 0-6.236 6.234v8.969a6.24 6.24 0 0 0 6.236 6.234h8.965a6.24 6.24 0 0 0 6.234-6.234v-8.969a6.24 6.24 0 0 0-6.234-6.234z" fill="url(#a)"/>
 <path transform="translate(0) scale(1) translate(0) scale(1) translate(0) scale(1) translate(0) scale(1) translate(0) scale(1) translate(0) scale(1) translate(0) scale(1) translate(0 -.002) scale(1) translate(.001262 .00045) scale(1) translate(-13.21 -13.21) scale(1.413)" d="m42.08 14.02-.004.002c-.87-.021-1.584.716-1.584 1.623v1.488h-20.88a2.455 2.455 0 0 0-2.453 2.453v12.44c0 1.353 1.1 2.453 2.453 2.453h22.43v7.535h-18.42v-1.488c-.001-.906-.714-1.642-1.584-1.621-.26.006-.513.08-.738.217l-3.238 1.97-3.238 1.97c-1.03.625-1.03 2.188 0 2.812l3.238 1.969 3.238 1.97c1.027.625 2.323-.164 2.324-1.403v-1.484h20.88a2.457 2.457 0 0 0 2.453-2.455V32.03c0-1.353-1.1-2.453-2.453-2.453h-22.43V22.04h18.42v1.486c0 1.24 1.298 2.03 2.326 1.406l6.476-3.94c1.03-.625 1.03-2.192 0-2.816L42.82 14.24a1.5 1.5 0 0 0-.74-.219z" fill="url(#b)"/>
</svg>
