<svg version="1.1" viewBox="0 0 64 64" xmlns="http://www.w3.org/2000/svg" xmlns:xlink="http://www.w3.org/1999/xlink">
 <defs>
  <linearGradient id="b" x2="0" y1="1">
   <stop stop-color="#01ff01" offset="0"/>
   <stop stop-color="#1bc100" offset="1"/>
  </linearGradient>
  <linearGradient id="d" x2="0" y2="1">
   <stop stop-color="#fda700" offset="0"/>
   <stop stop-color="#ffde00" offset="1"/>
  </linearGradient>
  <linearGradient id="a" y1="1">
   <stop stop-color="#00efff" offset="0"/>
   <stop stop-color="#07f" offset="1"/>
  </linearGradient>
  <linearGradient id="m" x1="2" x2="22" y1="22" y2="2" gradientTransform="matrix(-3.2,0,0,3.2,70.4,-6.4)" gradientUnits="userSpaceOnUse" xlink:href="#a"/>
  <linearGradient id="l" x1="17" x2="17" y1="19" y2="17" gradientTransform="matrix(-3.2,0,0,3.2,70.4,-6.4)" gradientUnits="userSpaceOnUse" xlink:href="#b"/>
  <linearGradient id="k" x1="14" x2="14" y1="17" y2="19" gradientTransform="matrix(-3.2,0,0,3.2,70.4,-6.4)" gradientUnits="userSpaceOnUse" xlink:href="#d"/>
  <linearGradient id="i" x1="17" x2="17" y1="13" y2="11" gradientTransform="matrix(-3.2,0,0,3.2,70.4,-6.4)" gradientUnits="userSpaceOnUse" xlink:href="#b"/>
  <linearGradient id="h" x1="14" x2="14" y1="11" y2="13" gradientTransform="matrix(-3.2,0,0,3.2,70.4,-6.4)" gradientUnits="userSpaceOnUse" xlink:href="#d"/>
  <linearGradient id="f" x1="17" x2="17" y1="7" y2="5" gradientTransform="matrix(-3.2,0,0,3.2,70.4,-6.4)" gradientUnits="userSpaceOnUse" xlink:href="#b"/>
  <linearGradient id="e" x1="14" x2="14" y1="5" y2="7" gradientTransform="matrix(-3.2,0,0,3.2,70.4,-6.4)" gradientUnits="userSpaceOnUse" xlink:href="#d"/>
  <linearGradient id="c" x1="3.162" x2="6.325" y1="11.07" y2="7.906" gradientTransform="matrix(-5.059 0 0 2.024 70.4 -6.4)" gradientUnits="userSpaceOnUse" xlink:href="#a"/>
  <linearGradient id="g" x1="21.55" x2=".56" y1="3.207" y2="18.9" gradientTransform="matrix(1.627 0 0 1.627 27.39 31.86)" gradientUnits="userSpaceOnUse">
   <stop stop-color="#fee800" offset="0"/>
   <stop stop-color="#ff1162" offset=".507"/>
   <stop stop-color="#ff00ab" offset="1"/>
  </linearGradient>
 </defs>
 <path transform="translate(.004) scale(.9999) translate(0) scale(1)" d="m9.6 0a9.6 9.6 0 0 0-9.6 9.6v6.4a9.6 9.6 0 0 0 2.496 6.4 9.6 9.6 0 0 0-2.496 6.4v6.398a9.6 9.6 0 0 0 2.496 6.4 9.6 9.6 0 0 0-2.496 6.4v6.4a9.6 9.6 0 0 0 9.6 9.6h18.03c-1.55-1.247-2.549-3.157-2.551-5.287a1.5 1.5 0 0 0 0-0.001953v-1.111h-15.48a3.2 3.2 0 0 1-3.199-3.199v-6.4a3.2 3.2 0 0 1 3.199-3.199h15.48v-3.988a1.5 1.5 0 0 0 0-0.001953c0.00121-0.8477 0.1607-1.66 0.4492-2.41h-15.93a3.2 3.2 0 0 1-3.199-3.201v-6.398a3.2 3.2 0 0 1 3.199-3.201h44.8a3.2 3.2 0 0 1 3.199 3.201v5.225h1.111a1.5 1.5 0 0 0 0.001953 0c2.079 0.002201 3.948 0.9528 5.195 2.439a9.6 9.6 0 0 0 0.0918-1.266v-6.398a9.6 9.6 0 0 0-2.496-6.4 9.6 9.6 0 0 0 2.496-6.4v-6.4a9.6 9.6 0 0 0-9.6-9.6h-44.8zm0 6.4h44.8a3.2 3.2 0 0 1 3.199 3.199v6.4a3.2 3.2 0 0 1-3.199 3.199h-44.8a3.2 3.2 0 0 1-3.199-3.199v-6.4a3.2 3.2 0 0 1 3.199-3.199z" fill="url(#m)" stroke-width="3.2"/>
 <path transform="translate(.004) scale(.9999) translate(0) scale(1)" d="m12.8 48a3.2 3.2 0 1 1-3.2 3.2 3.2 3.2 0 0 1 3.2-3.2" fill="url(#l)" stroke-width="3.2"/>
 <path transform="translate(.004) scale(.9999) translate(0) scale(1)" d="m22.4 48a3.2 3.2 0 1 1-3.2 3.2 3.2 3.2 0 0 1 3.2-3.2" fill="url(#k)" stroke-width="3.2"/>
 <path transform="translate(.004) scale(.9999) translate(0) scale(1)" d="m12.8 28.8a3.2 3.2 0 1 1-3.2 3.2 3.2 3.2 0 0 1 3.2-3.2" fill="url(#i)" stroke-width="3.2"/>
 <path transform="translate(.004) scale(.9999) translate(0) scale(1)" d="m22.4 28.8a3.2 3.2 0 1 1-3.2 3.2 3.2 3.2 0 0 1 3.2-3.2" fill="url(#h)" stroke-width="3.2"/>
 <path transform="translate(.004) scale(.9999) translate(0) scale(1)" d="m12.8 9.6a3.2 3.2 0 1 1-3.2 3.2 3.2 3.2 0 0 1 3.2-3.2" fill="url(#f)" stroke-width="3.2"/>
 <path transform="translate(.004) scale(.9999) translate(0) scale(1)" d="m22.4 9.6a3.2 3.2 0 1 1-3.2 3.2 3.2 3.2 0 0 1 3.2-3.2" fill="url(#e)" stroke-width="3.2"/>
 <path transform="translate(.004) scale(.9999) translate(0) scale(1)" d="m51.2 9.6a3.2 3.2 0 0 1 0 6.4h-9.6a3.2 3.2 0 0 1 0-6.4z" fill="url(#c)" stroke-width="3.2"/>
 <path transform="translate(.004) scale(.9999) translate(0) scale(1)" d="m31.86 35.53a5.295 5.295 0 0 0-5.288 5.288v17.9a5.295 5.295 0 0 0 5.288 5.288h26.85a5.295 5.295 0 0 0 5.288-5.288v-17.9a5.295 5.295 0 0 0-5.288-5.288zm0 3.864h26.85c0.5272 0 0.781 0.4523 1.017 0.8786l-13.74 10.94c-0.3677 0.2929-1.03 0.2929-1.399 0l-13.74-10.94c0.2343-0.4247 0.4881-0.877 1.017-0.877zm-1.424 5.461 6.172 4.914-6.172 4.914zm29.7 0v9.826l-6.172-4.914zm-20.45 7.369 2.114 1.681c1.975 1.573 4.997 1.573 6.972 0l2.11-1.681 8.845 7.039c-0.2343 0.4247-0.4898 0.8786-1.017 0.8786h-26.85c-0.5272 0-0.781-0.454-1.017-0.8786l8.842-7.039z" fill="url(#g)" stroke-width="1.627"/>
</svg>
