<svg version="1.1" viewBox="0 0 64 64" xmlns="http://www.w3.org/2000/svg" xmlns:xlink="http://www.w3.org/1999/xlink">
 <defs>
  <linearGradient id="b" x1="1" x2="0" y2="1">
   <stop stop-color="#d300dc" offset="0"/>
   <stop stop-color="#8219ff" offset="1"/>
  </linearGradient>
  <linearGradient id="a" x1="1" x2="0" y2="1">
   <stop stop-color="#004dff" offset="0"/>
   <stop stop-color="#00e0f8" offset="1"/>
  </linearGradient>
  <linearGradient id="c" x1="17.53" x2="4.023" y1="55.52" y2="69.03" gradientTransform="matrix(1.327 0 0 .6102 3.2 3.192)" gradientUnits="userSpaceOnUse" xlink:href="#a"/>
  <linearGradient id="e" x1="28.86" x2="10.42" y1="75.75" y2="94.18" gradientTransform="matrix(1.811 0 0 .4473 3.2 3.192)" gradientUnits="userSpaceOnUse" xlink:href="#a"/>
  <linearGradient id="h" x1="22.26" x2="2.791" y1="36.21" y2="55.68" gradientTransform="matrix(1.913 0 0 .4234 3.2 3.192)" gradientUnits="userSpaceOnUse" xlink:href="#a"/>
  <linearGradient id="i" x1="44.45" x2="32.48" y1="22.25" y2="34.22" gradientTransform="matrix(1.176 0 0 .6891 3.2 3.192)" gradientUnits="userSpaceOnUse" xlink:href="#a"/>
  <linearGradient id="f" x1="1" x2="0" y2="1">
   <stop stop-color="#9000ff" offset="0"/>
   <stop stop-color="#f3f" offset="1"/>
  </linearGradient>
 </defs>
 <path transform="translate(0) scale(1) translate(0) scale(1) translate(.00065 -.00025) scale(1) translate(-.56 -.554) scale(1.017)" d="M18.48 4C8.609 4 .55 12.061.55 21.93v20.13C.55 51.931 8.615 60 18.48 60h27.05c9.872 0 17.93-8.064 17.93-17.94V21.93C63.46 12.059 55.398 4 45.53 4zm0 5.57h27.05c6.862 0 12.36 5.496 12.36 12.36v20.13c0 6.862-5.497 12.36-12.36 12.36H18.48A12.315 12.315 0 0 1 6.12 42.06V21.93c0-6.861 5.502-12.36 12.36-12.36" fill="url(#b)"/>
 <path transform="translate(0) scale(1) translate(0) scale(1) translate(.00065 -.00025) scale(1) translate(-.557 -.554) scale(1.017)" d="M12.72 37.07c-1.236-.018-2.371.473-3.13 1.32-.728.811-1.049 1.832-1.049 2.802s.323 1.992 1.051 2.802c.76.846 1.894 1.336 3.129 1.318h13.75V37.07z" fill="url(#c)"/>
 <path transform="translate(0) scale(1) translate(0) scale(1) translate(.00065 -.00025) scale(1) translate(-.557 -.554) scale(1.017)" d="M22.08 37.07v8.242h29.2c1.236.018 2.369-.471 3.129-1.318.728-.81 1.053-1.831 1.053-2.802s-.323-1.994-1.051-2.804h-.002c-.76-.846-1.894-1.336-3.128-1.318z" fill="url(#e)" opacity=".2"/>
 <path transform="translate(0) scale(1) translate(0) scale(1) translate(.00065 -.00025) scale(1) translate(-.557 -.554) scale(1.017)" d="m24.27 35.15c-3.324 0-6.054 2.732-6.054 6.055s2.731 6.052 6.054 6.052 6.052-2.729 6.052-6.052-2.729-6.055-6.052-6.055" fill="url(#f)"/>
 <path transform="translate(0) scale(1) translate(0) scale(1) translate(.00065 -.00025) scale(1) translate(-.557 -.554) scale(1.017)" d="M12.72 18.53c-1.235-.018-2.371.472-3.13 1.318-.728.81-1.051 1.832-1.051 2.802s.323 1.992 1.051 2.802c.76.847 1.895 1.337 3.13 1.32h33.06V18.53z" fill="url(#h)"/>
 <path transform="translate(0) scale(1) translate(0) scale(1) translate(.00065 -.00025) scale(1) translate(-.557 -.554) scale(1.017)" d="M41.38 18.53v8.242h9.882c1.236.018 2.369-.473 3.129-1.32.728-.81 1.051-1.831 1.051-2.802s-.324-1.993-1.051-2.802c-.76-.846-1.894-1.336-3.129-1.318z" fill="url(#i)" opacity=".2"/>
 <path transform="translate(0) scale(1) translate(0) scale(1) translate(.00065 -.00025) scale(1) translate(-.557 -.554) scale(1.017)" d="m43.59 16.59c-3.323 0-6.051 2.73-6.051 6.052s2.727 6.055 6.051 6.055 6.055-2.732 6.055-6.055-2.732-6.052-6.055-6.052" fill="url(#f)"/>
</svg>
