<svg version="1.1" viewBox="0 0 64 64" xmlns="http://www.w3.org/2000/svg">
 <defs>
  <linearGradient id="a" x1="1" x2="0" y1=".5" y2=".5">
   <stop stop-color="#00ff7f" offset="0"/>
   <stop stop-color="#5fff00" offset="1"/>
  </linearGradient>
 </defs>
 <path transform="translate(0) scale(1) translate(0) scale(1) translate(0) scale(1) translate(-1e-6) scale(1) translate(.004792 -.001823) scale(1) translate(.02791 .4182) scale(2.631)" d="m19.12-0.003906c-0.8991 0.02986-1.642 0.6673-1.834 1.512l-2e-3 0.01172-0.2598 1.262c-8e-3 0.032-0.0223 0.0637-0.0293 0.0957l-0.707 3.434h-5.793l0.9531-4.643a1.4 1.4 0 0 0-0.2656-1.184l-2e-3 -0.003906a1.35 1.35 0 0 0-1.033-0.4824h-0.03325c-0.899 0.02986-1.642 0.6654-1.834 1.51l-0.00195 0.01367-0.2695 1.312c0 0.015-0.01067 0.02897-0.01367 0.04297l-0.7012 3.434h-3.748c-0.9 0.029-1.643 0.6648-1.836 1.51l-0.00391 0.01172a1.4 1.4 0 0 0 0.2676 1.19c0.248 0.2962 0.6187 0.4844 1.033 0.4844h3.629l-1.022 4.969h-3.752c-0.9 0.029-1.643 0.6648-1.836 1.51l-0.001953 0.01367a1.4 1.4 0 0 0 0.2676 1.186c0.249 0.2956 0.6192 0.4844 1.033 0.4844h3.629l-0.9609 4.668a1.4 1.4 0 0 0 0.2695 1.186c0.249 0.2968 0.6182 0.4844 1.033 0.4844h0.03125a1.95 1.95 0 0 0 1.836-1.51l0.00391-0.01367 0.9883-4.812h5.797l-0.9609 4.668a1.4 1.4 0 0 0 0.2695 1.186c0.249 0.2968 0.6182 0.4844 1.033 0.4844h0.03125a1.945 1.945 0 0 0 1.834-1.512l0.0039-0.01172 0.9902-4.814h3.6a1.95 1.95 0 0 0 1.836-1.51l0.0039-0.01172a1.39 1.39 0 0 0-0.2617-1.186l-2e-3 -2e-3a1.35 1.35 0 0 0-1.035-0.4844h-3.48l1.022-4.971h3.6a1.95 1.95 0 0 0 1.836-1.51l0.0039-0.01367a1.4 1.4 0 0 0-0.2656-1.184v-0.00195a1.4 1.4 0 0 0-2e-3 -0.00195 1.34 1.34 0 0 0-1.031-0.4844h-3.475l0.9532-4.643a1.4 1.4 0 0 0-0.2656-1.186l-2e-3 -0.001953a1.35 1.35 0 0 0-1.033-0.4844h-0.03125zm-9.279 9.506h5.795l-1.022 4.971h-5.797z" fill="url(#a)"/>
</svg>
