<svg version="1.1" viewBox="0 0 64 64" xmlns="http://www.w3.org/2000/svg" xmlns:xlink="http://www.w3.org/1999/xlink">
 <defs>
  <linearGradient id="b" x2="0" y1="1">
   <stop stop-color="#01ff01" offset="0"/>
   <stop stop-color="#1bc100" offset="1"/>
  </linearGradient>
  <linearGradient id="d" x2="0" y2="1">
   <stop stop-color="#fda700" offset="0"/>
   <stop stop-color="#ffde00" offset="1"/>
  </linearGradient>
  <linearGradient id="a" y1="1">
   <stop stop-color="#00efff" offset="0"/>
   <stop stop-color="#07f" offset="1"/>
  </linearGradient>
  <linearGradient id="m" x1="2" x2="22" y1="22" y2="2" gradientTransform="matrix(-3.2,0,0,3.2,70.4,-6.4)" gradientUnits="userSpaceOnUse" xlink:href="#a"/>
  <linearGradient id="l" x1="17" x2="17" y1="19" y2="17" gradientTransform="matrix(-3.2,0,0,3.2,70.4,-6.4)" gradientUnits="userSpaceOnUse" xlink:href="#b"/>
  <linearGradient id="k" x1="14" x2="14" y1="17" y2="19" gradientTransform="matrix(-3.2,0,0,3.2,70.4,-6.4)" gradientUnits="userSpaceOnUse" xlink:href="#d"/>
  <linearGradient id="i" x1="17" x2="17" y1="13" y2="11" gradientTransform="matrix(-3.2,0,0,3.2,70.4,-6.4)" gradientUnits="userSpaceOnUse" xlink:href="#b"/>
  <linearGradient id="h" x1="14" x2="14" y1="11" y2="13" gradientTransform="matrix(-3.2,0,0,3.2,70.4,-6.4)" gradientUnits="userSpaceOnUse" xlink:href="#d"/>
  <linearGradient id="f" x1="17" x2="17" y1="7" y2="5" gradientTransform="matrix(-3.2,0,0,3.2,70.4,-6.4)" gradientUnits="userSpaceOnUse" xlink:href="#b"/>
  <linearGradient id="e" x1="14" x2="14" y1="5" y2="7" gradientTransform="matrix(-3.2,0,0,3.2,70.4,-6.4)" gradientUnits="userSpaceOnUse" xlink:href="#d"/>
  <linearGradient id="c" x1="3.162" x2="6.325" y1="11.07" y2="7.906" gradientTransform="matrix(-5.059 0 0 2.024 70.4 -6.4)" gradientUnits="userSpaceOnUse" xlink:href="#a"/>
  <linearGradient id="g" x1=".9449" x2="14.17" y1="14.82" y2="1.587" gradientTransform="matrix(2.678 0 0 2.392 26.04 28.57)" gradientUnits="userSpaceOnUse">
   <stop stop-color="#ff00c7" offset="0"/>
   <stop stop-color="#ebff00" offset="1"/>
  </linearGradient>
 </defs>
 <path transform="translate(0) scale(1) translate(0) scale(1) translate(0) scale(1) translate(0 1e-6) scale(1) translate(0 .005599) scale(.9999) translate(0) scale(1)" d="m9.6 0a9.6 9.6 0 0 0-9.6 9.6v6.4a9.6 9.6 0 0 0 2.496 6.4 9.6 9.6 0 0 0-2.496 6.4v6.398a9.6 9.6 0 0 0 2.496 6.4 9.6 9.6 0 0 0-2.496 6.4v6.4a9.6 9.6 0 0 0 9.6 9.6h18.97c-0.06144-0.06169-0.1203-0.1249-0.1777-0.1895-0.9077-1.021-1.328-2.325-1.328-3.607 0-0.8915 0.2022-1.794 0.6309-2.604h-18.1a3.2 3.2 0 0 1-3.199-3.199v-6.4a3.2 3.2 0 0 1 3.199-3.199h21.99c1.447-2.647 3.604-4.856 6.207-6.4h-28.2a3.2 3.2 0 0 1-3.199-3.201v-6.398a3.2 3.2 0 0 1 3.199-3.201h44.8a3.2 3.2 0 0 1 3.199 3.201v6.398a3.2 3.2 0 0 1-2.857 3.182c4.999 2.947 8.23 8.274 8.229 14.23 1.46e-4 1.218-0.9034 2.088-2.012 2.449 1.111 0.1527 2.119 0.5451 2.861 1.188a9.6 9.6 0 0 0 0.1797-1.848v-6.4a9.6 9.6 0 0 0-2.496-6.4 9.6 9.6 0 0 0 2.496-6.4v-6.398a9.6 9.6 0 0 0-2.496-6.4 9.6 9.6 0 0 0 2.496-6.4v-6.4a9.6 9.6 0 0 0-9.6-9.6h-44.8zm0 6.4h44.8a3.2 3.2 0 0 1 3.199 3.199v6.4a3.2 3.2 0 0 1-3.199 3.199h-44.8a3.2 3.2 0 0 1-3.199-3.199v-6.4a3.2 3.2 0 0 1 3.199-3.199z" fill="url(#m)" stroke-width="3.2"/>
 <path transform="translate(0) scale(1) translate(0) scale(1) translate(0) scale(1) translate(0 1e-6) scale(1) translate(0 .005599) scale(.9999) translate(0) scale(1)" d="m12.8 48a3.2 3.2 0 1 1-3.2 3.2 3.2 3.2 0 0 1 3.2-3.2" fill="url(#l)" stroke-width="3.2"/>
 <path transform="translate(0) scale(1) translate(0) scale(1) translate(0) scale(1) translate(0 1e-6) scale(1) translate(0 .005599) scale(.9999) translate(0) scale(1)" d="m22.4 48a3.2 3.2 0 1 1-3.2 3.2 3.2 3.2 0 0 1 3.2-3.2" fill="url(#k)" stroke-width="3.2"/>
 <path transform="translate(0) scale(1) translate(0) scale(1) translate(0) scale(1) translate(0 1e-6) scale(1) translate(0 .005599) scale(.9999) translate(0) scale(1)" d="m12.8 28.8a3.2 3.2 0 1 1-3.2 3.2 3.2 3.2 0 0 1 3.2-3.2" fill="url(#i)" stroke-width="3.2"/>
 <path transform="translate(0) scale(1) translate(0) scale(1) translate(0) scale(1) translate(0 1e-6) scale(1) translate(0 .005599) scale(.9999) translate(0) scale(1)" d="m22.4 28.8a3.2 3.2 0 1 1-3.2 3.2 3.2 3.2 0 0 1 3.2-3.2" fill="url(#h)" stroke-width="3.2"/>
 <path transform="translate(0) scale(1) translate(0) scale(1) translate(0) scale(1) translate(0 1e-6) scale(1) translate(0 .005599) scale(.9999) translate(0) scale(1)" d="m12.8 9.6a3.2 3.2 0 1 1-3.2 3.2 3.2 3.2 0 0 1 3.2-3.2" fill="url(#f)" stroke-width="3.2"/>
 <path transform="translate(0) scale(1) translate(0) scale(1) translate(0) scale(1) translate(0 1e-6) scale(1) translate(0 .005599) scale(.9999) translate(0) scale(1)" d="m22.4 9.6a3.2 3.2 0 1 1-3.2 3.2 3.2 3.2 0 0 1 3.2-3.2" fill="url(#e)" stroke-width="3.2"/>
 <path transform="translate(0) scale(1) translate(0) scale(1) translate(0) scale(1) translate(0 1e-6) scale(1) translate(0 .005599) scale(.9999) translate(0) scale(1)" d="m51.2 9.6a3.2 3.2 0 0 1 0 6.4h-9.6a3.2 3.2 0 0 1 0-6.4z" fill="url(#c)" stroke-width="3.2"/>
 <path transform="translate(0) scale(1) translate(0) scale(1) translate(0) scale(1) translate(0 1e-6) scale(1) translate(0 .005599) scale(.9999) translate(0) scale(1)" d="m45.94 32.37a5.062 5.062 0 0 0-4.715 5.052v0.8656c-5.897 2.086-10.12 7.709-10.12 14.32a1.265 1.265 0 0 0 1.265 1.265h27.84a1.265 1.265 0 0 0 1.265-1.265 15.19 15.19 0 0 0-10.12-14.32v-0.8656a5.062 5.062 0 0 0-5.409-5.052m0.3467 2.521a2.531 2.531 0 0 1 2.531 2.531v0.2075a15.19 15.19 0 0 0-5.062 0v-0.2075a2.531 2.531 0 0 1 2.531-2.531m0 5.062a12.65 12.65 0 0 1 12.59 11.39h-25.18a12.65 12.65 0 0 1 12.59-11.39zm0 2.531a1.265 1.265 0 0 0 0 2.531c2.579 0 4.859 1.283 6.234 3.252a1.265 1.265 0 1 0 2.075-1.443 10.12 10.12 0 0 0-8.309-4.341zm-13.92 13.92a3.796 3.796 0 0 0 0 7.593h27.84a3.796 3.796 0 0 0 0-7.593zm0 2.531h27.84a1.265 1.265 0 0 1 0 2.531h-27.84a1.265 1.265 0 0 1-1.265-1.265 1.265 1.265 0 0 1 1.265-1.265" fill="url(#g)" stroke-width="2.531"/>
</svg>
