<svg version="1.1" viewBox="0 0 64 64" xmlns="http://www.w3.org/2000/svg">
 <defs>
  <linearGradient id="a" x1="1" x2="0" y2="1">
   <stop stop-color="#fea51d" offset="0"/>
   <stop stop-color="#ff0a76" offset="1"/>
  </linearGradient>
 </defs>
 <path transform="translate(-0) scale(1) translate(-0) scale(1) translate(-0) scale(1) translate(-0) scale(1) translate(-0) scale(1) translate(-0) scale(1) translate(.002 .002) scale(.9999) matrix(2.667 0 0 2.667 -10.67 -10.67)" d="m18 19v2h8v-2z" fill="#00f"/>
 <path transform="translate(-0) scale(1) translate(-0) scale(1) translate(-0) scale(1) translate(-0) scale(1) translate(-0) scale(1) translate(-0) scale(1) translate(.002 .002) scale(.9999) matrix(2.667 0 0 2.667 -10.67 -10.67)" d="m6 19v2h8v-2z" fill="#00f"/>
 <path transform="translate(-0) scale(1) translate(-0) scale(1) translate(-0) scale(1) translate(-0) scale(1) translate(-0) scale(1) translate(-0) scale(1) translate(.002 .002) scale(.9999) matrix(2.667 0 0 2.667 -10.67 -10.67)" d="m6 11v2h8v-2z" fill="#00f"/>
 <path transform="translate(-0) scale(1) translate(-0) scale(1) translate(-0) scale(1) translate(-0) scale(1) translate(-0) scale(1) translate(-0) scale(1) translate(.002 .002) scale(.9999) matrix(2.667 0 0 2.667 -10.67 -10.67)" d="m18 11v2h8v-2z" fill="#00f"/>
 <path transform="translate(-0) scale(1) translate(-0) scale(1) translate(-0) scale(1) translate(-0) scale(1) translate(-0) scale(1) translate(-0) scale(1) translate(.002 .002) scale(.9999) matrix(2.667 0 0 2.667 -10.67 -10.67)" d="m18 15v2h8v-2z" fill="#00f"/>
 <path transform="translate(-0) scale(1) translate(-0) scale(1) translate(-0) scale(1) translate(-0) scale(1) translate(-0) scale(1) translate(-0) scale(1) translate(.002 .002) scale(.9999) translate(-10.67 -10.67) scale(2.667)" d="m9 4c-2.77 0-5 2.23-5 5v14c0 2.77 2.23 5 5 5h14c2.77 0 5-2.23 5-5v-14c0-2.77-2.23-5-5-5zm0 2h6v20h-6c-1.662 0-3-1.338-3-3v-14c0-1.662 1.338-3 3-3zm8 0h6c1.662 0 3 1.338 3 3v14c0 1.662-1.338 3-3 3h-6z" fill="url(#a)"/>
 <path transform="translate(-0) scale(1) translate(-0) scale(1) translate(-0) scale(1) translate(-0) scale(1) translate(-0) scale(1) translate(-0) scale(1) translate(.002 .002) scale(.9999) matrix(2.667 0 0 2.667 -10.67 -10.67)" d="m6 15v2h8v-2z" fill="#00f"/>
 <path transform="translate(-0) scale(1) translate(-0) scale(1) translate(-0) scale(1) translate(-0) scale(1) translate(-0) scale(1) translate(-0) scale(1) translate(.002 .002) scale(.9999) translate(-10.67 -10.67) scale(2.667)" d="m9.5 4a0.5 0.5 0 0 0-0.5 0.5v23a0.5 0.5 0 0 0 1 0v-23a0.5 0.5 0 0 0-0.5-0.5zm3 0a0.5 0.5 0 0 0-0.5 0.5v23a0.5 0.5 0 0 0 1 0v-23a0.5 0.5 0 0 0-0.5-0.5zm7 0a0.5 0.5 0 0 0-0.5 0.5v23a0.5 0.5 0 0 0 1 0v-23a0.5 0.5 0 0 0-0.5-0.5zm3 0a0.5 0.5 0 0 0-0.5 0.5v23a0.5 0.5 0 0 0 1 0v-23a0.5 0.5 0 0 0-0.5-0.5z" fill="url(#a)"/>
</svg>
