<svg version="1.1" viewBox="0 0 64 64" xmlns="http://www.w3.org/2000/svg">
 <defs>
  <linearGradient id="a" x2="0" y1="1">
   <stop stop-color="#00fffa" offset="0"/>
   <stop stop-color="#0078ff" offset="1"/>
  </linearGradient>
 </defs>
 <path transform="translate(-0) scale(1) translate(.0111 -.001011) scale(1) translate(-1.822 -1.834) scale(4.229)" d="M3.973.434c-.288 0-.547-.002-.764.013a2.3 2.3 0 0 0-.73.156 2.24 2.24 0 0 0-1.21 1.21c-.103.25-.138.498-.154.73a12 12 0 0 0-.015.764v.052c0 .288 0 .547.015.764.016.232.051.48.155.73.226.548.662.983 1.209 1.21.25.103.498.14.73.156.217.015.476.013.764.013h2.646c.168 0 .252.001.316.034a.3.3 0 0 1 .131.13c.033.065.033.149.033.317v.574c0 .168 0 .252-.033.317a.3.3 0 0 1-.13.13c-.065.033-.149.032-.317.032h-.79c-.529 0-.978 0-1.35.031-.388.032-.768.1-1.13.285-.546.278-.99.722-1.268 1.268-.185.362-.254.742-.285 1.131q-.019.229-.024.498a.8.8 0 0 1-.02.211.26.26 0 0 1-.058.102 1 1 0 0 1-.201.14 2.234 2.234 0 1 0 2.353.006 1 1 0 0 1-.207-.146.3.3 0 0 1-.059-.11.7.7 0 0 1-.01-.209c.004-.13.01-.242.018-.345.023-.278.062-.394.096-.46.105-.206.275-.376.482-.482.066-.033.181-.073.46-.095.288-.024.665-.024 1.24-.024h.751c.168 0 .252 0 .317.033a.3.3 0 0 1 .13.131c.033.064.034.149.034.317v.93c0 .11 0 .164-.014.208a.3.3 0 0 1-.059.106c-.03.035-.089.07-.205.142a2.233 2.233 0 1 0 2.352 0 1 1 0 0 1-.203-.142.3.3 0 0 1-.058-.106c-.014-.044-.014-.098-.014-.209v-.93c0-.167-.001-.252.031-.316a.3.3 0 0 1 .133-.13c.064-.033.146-.034.314-.034h.754c.575 0 .952 0 1.24.024.278.022.393.062.46.095.206.106.374.276.48.483.033.065.073.18.096.459.008.103.014.215.017.345.003.11.006.164-.008.21a.3.3 0 0 1-.058.109c-.03.036-.09.073-.207.146a2.231 2.231 0 0 0 1.18 4.128 2.234 2.234 0 0 0 1.172-4.134 1 1 0 0 1-.2-.14.26.26 0 0 1-.059-.102.8.8 0 0 1-.02-.21 9 9 0 0 0-.023-.499c-.032-.389-.1-.769-.285-1.13a2.9 2.9 0 0 0-1.268-1.269c-.362-.184-.742-.253-1.131-.285-.37-.03-.822-.031-1.352-.031h-.79c-.167 0-.25.001-.314-.032a.3.3 0 0 1-.132-.13c-.033-.065-.032-.149-.032-.317v-.574c0-.168-.001-.252.032-.316a.3.3 0 0 1 .132-.131c.064-.033.147-.034.315-.034h2.648c.287 0 .546.002.763-.013a2.3 2.3 0 0 0 .73-.156 2.24 2.24 0 0 0 1.21-1.21c.104-.25.138-.498.154-.73.015-.217.016-.476.016-.764v-.052c0-.288-.001-.547-.016-.764a2.3 2.3 0 0 0-.154-.73 2.24 2.24 0 0 0-1.21-1.21 2.3 2.3 0 0 0-.73-.156c-.217-.015-.476-.013-.763-.013zM4 2.233h8c.323 0 .52.001.668.011.12.009.16.02.164.022.107.044.19.128.235.234a.7.7 0 0 1 .023.164c.01.148.01.347.01.67s0 .52-.01.668a.7.7 0 0 1-.023.164.43.43 0 0 1-.235.235.8.8 0 0 1-.164.021c-.148.01-.345.012-.668.012H4c-.323 0-.52-.002-.668-.012a.8.8 0 0 1-.164-.021h-.002a.43.43 0 0 1-.232-.235.7.7 0 0 1-.024-.164c-.01-.148-.01-.345-.01-.668s0-.522.01-.67a.7.7 0 0 1 .024-.164.43.43 0 0 1 .232-.234h.002a.8.8 0 0 1 .164-.022c.149-.01.345-.011.668-.011m-1.334 10.67a.432.432 0 1 1 0 .865.432.432 0 1 1 0-.865m5.334 0a.432.432 0 1 1 0 .865.432.432 0 1 1 0-.865m5.334 0a.432.432 0 1 1 0 .864.432.432 0 0 1 0-.864" fill="url(#a)"/>
</svg>
