<svg version="1.1" viewBox="0 0 64 64" xmlns="http://www.w3.org/2000/svg" xmlns:xlink="http://www.w3.org/1999/xlink">
 <defs>
  <linearGradient id="b" x2="0" y1="1">
   <stop stop-color="#01ff01" offset="0"/>
   <stop stop-color="#1bc100" offset="1"/>
  </linearGradient>
  <linearGradient id="d" x2="0" y2="1">
   <stop stop-color="#fda700" offset="0"/>
   <stop stop-color="#ffde00" offset="1"/>
  </linearGradient>
  <linearGradient id="a" y1="1">
   <stop stop-color="#00efff" offset="0"/>
   <stop stop-color="#07f" offset="1"/>
  </linearGradient>
  <linearGradient id="m" x1="2" x2="22" y1="22" y2="2" gradientTransform="matrix(-3.2,0,0,3.2,70.4,-6.4)" gradientUnits="userSpaceOnUse" xlink:href="#a"/>
  <linearGradient id="l" x1="17" x2="17" y1="19" y2="17" gradientTransform="matrix(-3.2,0,0,3.2,70.4,-6.4)" gradientUnits="userSpaceOnUse" xlink:href="#b"/>
  <linearGradient id="k" x1="14" x2="14" y1="17" y2="19" gradientTransform="matrix(-3.2,0,0,3.2,70.4,-6.4)" gradientUnits="userSpaceOnUse" xlink:href="#d"/>
  <linearGradient id="i" x1="17" x2="17" y1="13" y2="11" gradientTransform="matrix(-3.2,0,0,3.2,70.4,-6.4)" gradientUnits="userSpaceOnUse" xlink:href="#b"/>
  <linearGradient id="h" x1="14" x2="14" y1="11" y2="13" gradientTransform="matrix(-3.2,0,0,3.2,70.4,-6.4)" gradientUnits="userSpaceOnUse" xlink:href="#d"/>
  <linearGradient id="f" x1="17" x2="17" y1="7" y2="5" gradientTransform="matrix(-3.2,0,0,3.2,70.4,-6.4)" gradientUnits="userSpaceOnUse" xlink:href="#b"/>
  <linearGradient id="e" x1="14" x2="14" y1="5" y2="7" gradientTransform="matrix(-3.2,0,0,3.2,70.4,-6.4)" gradientUnits="userSpaceOnUse" xlink:href="#d"/>
  <linearGradient id="c" x1="3.162" x2="6.325" y1="11.07" y2="7.906" gradientTransform="matrix(-5.059 0 0 2.024 70.4 -6.4)" gradientUnits="userSpaceOnUse" xlink:href="#a"/>
  <linearGradient id="g" x2="0" y2="1">
   <stop stop-color="#f0f" offset="0"/>
   <stop stop-color="#ff0080" offset="1"/>
  </linearGradient>
 </defs>
 <path transform="translate(0) scale(1) translate(0) scale(1) translate(0) scale(1) translate(0) scale(1) matrix(.9999 0 0 .9999 0 .00275)" d="m9.6 0c-5.302 2.157e-4 -9.599 4.298-9.6 9.6v6.4c0.01404 2.368 0.903 4.648 2.496 6.4-1.593 1.753-2.482 4.032-2.496 6.4v6.398c0.01404 2.368 0.903 4.648 2.496 6.4-1.593 1.753-2.482 4.032-2.496 6.4v6.4c2.159e-4 5.302 4.298 9.599 9.6 9.6h26.02c-0.9986-0.8312-1.745-1.969-2.133-3.252-2.068-0.4315-3.887-1.564-5.145-3.148h-18.74c-1.767-4.31e-4 -3.199-1.433-3.199-3.199v-6.4c4.311e-4 -1.767 1.433-3.199 3.199-3.199h16.94v-5.355c1e-6 -0.3536 0.02085-0.7021 0.0625-1.045h-17c-1.767-4.31e-4 -3.2-1.434-3.199-3.201v-6.398c-6.474e-4 -1.767 1.432-3.201 3.199-3.201h44.8c1.767 4.32e-4 3.2 1.434 3.199 3.201v2.014c2.654 0.2348 4.973 1.678 6.4 3.771v-5.785c-0.01404-2.368-0.903-4.648-2.496-6.4 1.593-1.753 2.482-4.032 2.496-6.4v-6.4c-2.16e-4 -5.302-4.298-9.599-9.6-9.6zm0 6.4h44.8c1.767 4.317e-4 3.199 1.433 3.199 3.199v6.4c-4.31e-4 1.767-1.433 3.199-3.199 3.199h-44.8c-1.767-4.31e-4 -3.199-1.433-3.199-3.199v-6.4c4.312e-4 -1.767 1.433-3.199 3.199-3.199z" fill="url(#m)" stroke-width="3.2"/>
 <path transform="translate(0) scale(1) translate(0) scale(1) translate(0) scale(1) translate(0) scale(1) matrix(.9999 0 0 .9999 0 .00275)" d="m12.8 48a3.2 3.2 0 1 1-3.2 3.2 3.2 3.2 0 0 1 3.2-3.2" fill="url(#l)" stroke-width="3.2"/>
 <path transform="translate(0) scale(1) translate(0) scale(1) translate(0) scale(1) translate(0) scale(1) matrix(.9999 0 0 .9999 0 .00275)" d="m22.4 48a3.2 3.2 0 1 1-3.2 3.2 3.2 3.2 0 0 1 3.2-3.2" fill="url(#k)" stroke-width="3.2"/>
 <path transform="translate(0) scale(1) translate(0) scale(1) translate(0) scale(1) translate(0) scale(1) matrix(.9999 0 0 .9999 0 .00275)" d="m12.8 28.8a3.2 3.2 0 1 1-3.2 3.2 3.2 3.2 0 0 1 3.2-3.2" fill="url(#i)" stroke-width="3.2"/>
 <path transform="translate(0) scale(1) translate(0) scale(1) translate(0) scale(1) translate(0) scale(1) matrix(.9999 0 0 .9999 0 .00275)" d="m22.4 28.8a3.2 3.2 0 1 1-3.2 3.2 3.2 3.2 0 0 1 3.2-3.2" fill="url(#h)" stroke-width="3.2"/>
 <path transform="translate(0) scale(1) translate(0) scale(1) translate(0) scale(1) translate(0) scale(1) matrix(.9999 0 0 .9999 0 .00275)" d="m12.8 9.6a3.2 3.2 0 1 1-3.2 3.2 3.2 3.2 0 0 1 3.2-3.2" fill="url(#f)" stroke-width="3.2"/>
 <path transform="translate(0) scale(1) translate(0) scale(1) translate(0) scale(1) translate(0) scale(1) matrix(.9999 0 0 .9999 0 .00275)" d="m22.4 9.6a3.2 3.2 0 1 1-3.2 3.2 3.2 3.2 0 0 1 3.2-3.2" fill="url(#e)" stroke-width="3.2"/>
 <path transform="translate(0) scale(1) translate(0) scale(1) translate(0) scale(1) translate(0) scale(1) matrix(.9999 0 0 .9999 0 .00275)" d="m51.2 9.6a3.2 3.2 0 0 1 0 6.4h-9.6a3.2 3.2 0 0 1 0-6.4z" fill="url(#c)" stroke-width="3.2"/>
 <path transform="translate(0) scale(1) translate(0) scale(1) translate(0) scale(1) translate(0) scale(1) matrix(.9999 0 0 .9999 0 .00275)" d="m35.2 32.28c-3.957 0.0012-7.163 3.208-7.163 7.165v12.98c0 3.769 2.92 6.825 6.614 7.111 0.3191 2.454 2.337 4.383 4.877 4.383h12.98c2.54 0 4.558-1.929 4.877-4.383 3.696-0.2855 6.613-3.34 6.613-7.111v-12.98c0-3.958-3.207-7.165-7.165-7.165h-21.63zm0.0022 3.515h21.63a3.629 3.629 0 0 1 3.651 3.651v12.98a3.629 3.629 0 0 1-3.651 3.651 2.839 2.839 0 0 0-2.838 2.838 1.469 1.469 0 0 1-1.487 1.487h-12.98a1.469 1.469 0 0 1-1.487-1.487 2.839 2.839 0 0 0-2.84-2.838 3.629 3.629 0 0 1-3.65-3.651v-12.98a3.629 3.629 0 0 1 3.65-3.651zm2.163 3.651c-1.198 0-2.163 0.965-2.163 2.163v8.652c0 1.198 0.965 2.163 2.163 2.163s2.163-0.965 2.163-2.163v-8.652c0-1.198-0.965-2.163-2.163-2.163zm8.652 0c-1.198 0-2.163 0.965-2.163 2.163v8.652c0 1.198 0.965 2.163 2.163 2.163s2.163-0.965 2.163-2.163v-8.652c0-1.198-0.965-2.163-2.163-2.163zm8.652 0c-1.198 0-2.162 0.965-2.162 2.163v8.652c0 1.198 0.9639 2.163 2.162 2.163 1.198 0 2.163-0.965 2.163-2.163v-8.652c0-1.198-0.965-2.163-2.163-2.163z" fill="url(#g)" stroke-width=".5408"/>
</svg>
