<svg version="1.1" viewBox="0 0 64 64" xmlns="http://www.w3.org/2000/svg">
 <defs>
  <linearGradient id="b" x1="4.356" x2="13.44" y1="17.92" y2="8.835" gradientTransform="matrix(3.185 0 0 2.084 3.652 13.58)" gradientUnits="userSpaceOnUse">
   <stop stop-color="#5433ff" offset="0"/>
   <stop stop-color="#20bdff" offset=".5"/>
   <stop stop-color="#a5fecb" offset="1"/>
  </linearGradient>
  <linearGradient id="a" x2="0" y1="1">
   <stop stop-color="#3dd425" offset="0"/>
   <stop stop-color="#59f07c" offset="1"/>
  </linearGradient>
 </defs>
 <path transform="translate(0) scale(1) translate(0) scale(1) translate(-.001) scale(1) translate(.001)" d="m13.77 12.15c-6.444 0-11.75 5.301-11.75 11.74v24.3c0 8.679 7.116 15.8 15.8 15.8h28.35c8.679 0 15.8-7.116 15.8-15.8v-24.3c0-6.444-5.301-11.74-11.74-11.74zm0 7.293h36.45c2.504 0 4.455 1.95 4.455 4.455v24.3c0 4.738-3.764 8.504-8.506 8.504h-28.35c-4.738 0-8.504-3.762-8.504-8.504v-24.3c0-2.504 1.95-4.455 4.455-4.455z" fill="url(#a)"/>
 <path transform="translate(0) scale(1) translate(0) scale(1) translate(-.001) scale(1) translate(.001)" d="m31.77 0c-7.189 0-13.1 5.909-13.1 13.1v12.6a3.645 3.645 0 0 0 3.646 3.639 3.645 3.645 0 0 0 3.646-3.639v-12.6c0-3.249 2.556-5.809 5.807-5.809 3.249 0 5.809 2.558 5.809 5.809v12.6a3.645 3.645 0 0 0 3.639 3.639 3.645 3.645 0 0 0 3.646-3.639v-12.6c0-7.189-5.901-13.1-13.09-13.1z" fill="#0f0"/>
 <path transform="translate(0) scale(1) translate(0) scale(1) translate(-.001) scale(1)" d="m32.12 32a4.341 4.341 0 0 0-3.066 1.268l-10.14 10.14a4.341 4.341 0 0 0-1.389 3.262 4.341 4.341 0 0 0 4.266 4.272 4.341 4.341 0 0 0 3.251-1.399l7.075-7.054 7.069 7.054a4.341 4.341 0 0 0 7.265-3.411h-0.0101a4.341 4.341 0 0 0-1.122-2.723l-10.14-10.14a4.341 4.341 0 0 0-3.066-1.268z" fill="url(#b)" stroke-width="2.576"/>
</svg>
