<svg version="1.1" viewBox="0 0 64 64" xmlns="http://www.w3.org/2000/svg">
 <defs>
  <linearGradient id="b" y1="1">
   <stop stop-color="#39ff14" offset="0"/>
   <stop stop-color="#00ff81" offset="1"/>
  </linearGradient>
  <linearGradient id="a" x1="1" x2="0" y1=".5" y2=".5">
   <stop stop-color="#0078ff" offset="0"/>
   <stop stop-color="#00fffa" offset="1"/>
  </linearGradient>
 </defs>
 <path transform="translate(.007611 .002221) scale(1) matrix(1.029 0 0 1.029 -3.102 0)" d="m9.559 0a5.491 5.491 0 0 0-3.318 1.205 5.473 5.473 0 0 0-0.8223 7.693l14.34 17.92-10.84 14.09a5.496 5.496 0 0 0 1.004 7.707 5.468 5.468 0 0 0 7.668-1.033l29.78-38.7a5.496 5.496 0 0 0-1.004-7.707 5.468 5.468 0 0 0-7.666 1.033l-12.06 15.69-12.67-15.84a5.491 5.491 0 0 0-4.4-2.059z" fill="url(#b)"/>
 <path transform="translate(.007611 .002221) scale(1) translate(-3.102) scale(1.029)" d="m46.23 32.39c-4.148 0-7.512 3.363-7.512 7.512 3.88e-4 3.57 2.511 6.646 6.008 7.359v3.416a0.7416 0.7416 0 0 1-0.7402 0.7422h-1.522a0.7416 0.7416 0 0 0-0.7422 0.7441v1.522a0.7416 0.7416 0 0 0 0.7422 0.7402h1.522a0.7416 0.7416 0 0 1 0.7402 0.7422v0.5195a0.7416 0.7416 0 0 0 0.7422 0.7402h1.522a0.7416 0.7416 0 0 0 0.7422-0.7402v-8.424c3.497-0.7139 6.009-3.792 6.01-7.361 0-4.148-3.363-7.512-7.512-7.512zm0 3.006c2.49 0 4.508 2.016 4.508 4.506s-2.018 4.508-4.508 4.508-4.508-2.018-4.508-4.508 2.018-4.506 4.508-4.506z" fill="url(#a)"/>
 <path transform="translate(.007611 .002221) scale(1) translate(-3.102) scale(1.029)" d="m46.23 26.65c-9.806 0-17.77 7.961-17.77 17.77s7.96 17.77 17.77 17.77 17.77-7.96 17.77-17.77-7.96-17.77-17.77-17.77zm0.0039 3.941c3.658 0 7.171 1.462 9.764 4.055s4.055 6.105 4.055 9.764c0 3.672-1.462 7.187-4.055 9.779s-6.105 4.039-9.764 4.039c-3.672 0-7.185-1.446-9.777-4.039s-4.041-6.108-4.041-9.779c0-3.658 1.448-7.171 4.041-9.764s6.106-4.055 9.777-4.055z" fill="url(#a)"/>
</svg>
