<svg xmlns="http://www.w3.org/2000/svg" style="isolation:isolate" viewBox="0 0 64 64"><linearGradient id="a" x1=".672" x2=".422" y1=".021" y2=".96" gradientTransform="matrix(47 0 0 45.73 .5 .5)" gradientUnits="userSpaceOnUse" transform="translate(-.68 .184)scale(1.362)"><stop offset="0" stop-color="#1a6cff"/><stop offset="1" stop-color="#c522ff"/></linearGradient><path fill="url(#a)" fill-rule="evenodd" d="m36.09 8.698-4.707 18.84c-.535 2.142-2.761 3.881-4.969 3.881h-.07v12.81a2 2 0 0 1-4 0v-12.81h-.03c-2.208 0-4.48-1.727-5.071-3.854l-5.258-18.92a20 20 0 0 0-1.771 1.565A19.54 19.54 0 0 0 4.504 24c0 3.92 1.18 7.74 3.39 10.98 2.2 3.24 5.33 5.74 8.97 7.17 1.027.403 1.533 1.566 1.13 2.595s-1.563 1.533-2.59 1.125c-4.39-1.73-8.16-4.74-10.82-8.64S.504 28.72.504 24c0-6.23 2.48-12.21 6.88-16.62C11.794 2.98 17.774.5 24.004.5s12.21 2.48 16.62 6.88c4.4 4.41 6.88 10.39 6.88 16.62 0 4.53-1.31 8.97-3.78 12.77a23.5 23.5 0 0 1-10.11 8.68c-1.004.453-2.187.002-2.64-1.005s0-2.192 1.01-2.645c3.43-1.54 6.34-4.04 8.39-7.2 2.04-3.16 3.13-6.84 3.13-10.6 0-5.17-2.06-10.13-5.71-13.79a20 20 0 0 0-1.704-1.512m-3.566-2.236-4.746 19.02c-.267 1.07-1.38 1.94-2.484 1.94h-1.94c-1.104 0-2.24-.864-2.535-1.927l-5.287-19.05a19.5 19.5 0 0 1 8.472-1.939 19.5 19.5 0 0 1 8.52 1.962z" transform="translate(-.68 .184)scale(1.362)"/></svg>