<svg style="isolation:isolate" version="1.1" viewBox="0 0 64 64" xmlns="http://www.w3.org/2000/svg">
 <linearGradient id="a" transform="translate(.005809 -.006445) scale(.9998) translate(-.68 -.68) scale(1.362)" x2="1" y1=".5" y2=".5" gradientTransform="matrix(47 0 0 46.89 .5 .555)" gradientUnits="userSpaceOnUse">
  <stop stop-color="#5433ff" offset="0"/>
  <stop stop-color="#20bdff" offset=".517"/>
  <stop stop-color="#a5fecb" offset=".983"/>
 </linearGradient>
 <path transform="translate(.005809 -.006445) scale(.9998) translate(-.68 -.68) scale(1.362)" d="m29.96 15.81 4.48-4.084H13.79c-.541 0-1.061.215-1.439.603a2 2 0 0 0-.602 1.439V29.85H7.665V13.768c0-1.623.644-3.185 1.797-4.328a6.1 6.1 0 0 1 4.328-1.797h25.127l3.293-3.001H6.64c-.542 0-1.062.214-1.44.602a2 2 0 0 0-.602 1.439v30.312H.514V6.683c0-1.623.644-3.185 1.797-4.328A6.14 6.14 0 0 1 6.64.558h36.74c.429 0 .857.041 1.276.113.429.081.837.224 1.215.428a3.03 3.03 0 0 1 1.623 2.624 3.5 3.5 0 0 1-.572 1.858c-.306.48-.673.919-1.102 1.296l-22.96 20.93h5.604v-3.828h4.084v3.828a4.09 4.09 0 0 1-1.195 2.889 4.09 4.09 0 0 1-2.889 1.194H18.38l-4.48 4.084h20.3c.541 0 1.061-.215 1.439-.603.388-.377.602-.898.602-1.439V17.851h4.084v16.081a6.1 6.1 0 0 1-1.797 4.328 6.1 6.1 0 0 1-4.328 1.797H9.418l-3.629 3.308 35.56-.051c.542 0 1.062-.215 1.44-.603.388-.377.602-.898.602-1.439V10.96h4.084v30.312a6.1 6.1 0 0 1-1.797 4.328 6.1 6.1 0 0 1-4.329 1.797l-36.75.051a6 6 0 0 1-1.266-.112 3.9 3.9 0 0 1-1.215-.419 3 3 0 0 1-1.623-2.623c.02-.664.214-1.307.572-1.858.306-.48.673-.919 1.102-1.297l23.31-21.24h-6.074v3.828h-4.083v-3.828a4.1 4.1 0 0 1 1.194-2.889 4.1 4.1 0 0 1 2.889-1.194h10.554z" fill="url(#a)" fill-rule="evenodd"/>
</svg>
