<svg version="1.1" viewBox="0 0 64 64" xmlns="http://www.w3.org/2000/svg">
 <defs>
  <linearGradient id="a" y1=".5" y2=".5">
   <stop stop-color="#5433ff" offset="0"/>
   <stop stop-color="#20bdff" offset=".5"/>
   <stop stop-color="#a5fecb" offset="1"/>
  </linearGradient>
 </defs>
 <path transform="translate(-.000146 8e-4) scale(1) translate(1.201 1.201) scale(.9623)" d="m1.779-1.248c-0.8612 0-1.578 0.3901-2.107 0.9199s-0.9199 1.246-0.9199 2.107v26.67c0 0.8612 0.3901 1.58 0.9199 2.109s1.246 0.9199 2.107 0.9199c0.8612 0 1.58-0.3901 2.109-0.9199s0.9199-1.248 0.9199-2.109v-23.64h49.96l-4.607 4.611h-37.71c-0.8612 0-1.578 0.3901-2.107 0.9199-0.5298 0.5298-0.9199 1.246-0.9199 2.107v16c0 0.8612 0.3901 1.58 0.9199 2.109 0.5298 0.5298 1.246 0.9199 2.107 0.9199 0.8612 0 1.58-0.3901 2.109-0.9199 0.5298-0.5298 0.9199-1.248 0.9199-2.109v-12.97h28.62l-4.607 4.611h-16.38c-0.8612 0-1.578 0.3901-2.107 0.9199-0.5298 0.5298-0.9199 1.246-0.9199 2.107v5.334c0 0.8612 0.3901 1.58 0.9199 2.109 0.5298 0.5298 1.246 0.9199 2.107 0.9199 0.8612 0 1.58-0.3901 2.109-0.9199s0.9199-1.248 0.9199-2.109v-2.305h7.285l-33.42 33.42c-0.4445 0.4445-1.254 1.358-1.254 2.664 0 0.8612 0.3901 1.578 0.9199 2.107s1.246 0.9199 2.107 0.9199h60.45c0.8612 0 1.578-0.3901 2.107-0.9199s0.9199-1.246 0.9199-2.107v-26.67c0-0.8612-0.3901-1.58-0.9199-2.109s-1.246-0.9199-2.107-0.9199-1.578 0.3901-2.107 0.9199-0.9219 1.248-0.9219 2.109v23.64h-49.96l4.607-4.611h37.71c0.8612 0 1.578-0.3901 2.107-0.9199s0.9199-1.246 0.9199-2.107v-16c0-0.8612-0.3901-1.58-0.9199-2.109s-1.246-0.9199-2.107-0.9199-1.578 0.3901-2.107 0.9199-0.9219 1.248-0.9219 2.109v12.97h-28.62l4.607-4.611h16.38c0.8612 0 1.578-0.3901 2.107-0.9199s0.9199-1.246 0.9199-2.107v-5.334c0-0.8612-0.3901-1.58-0.9199-2.109s-1.246-0.9199-2.107-0.9199c-0.8612 0-1.578 0.3901-2.107 0.9199-0.5298 0.5298-0.9219 1.248-0.9219 2.109v2.305h-7.285l33.42-33.42c0.4445-0.4445 1.254-1.358 1.254-2.664 0-0.8612-0.3901-1.578-0.9199-2.107s-1.246-0.9199-2.107-0.9199z" fill="url(#a)"/>
</svg>
