<svg xmlns="http://www.w3.org/2000/svg" viewBox="0 0 64 64"><defs><linearGradient id="b" y1="1"><stop offset="0" stop-color="red"/><stop offset="1" stop-color="#ff0086"/></linearGradient><linearGradient id="a" x2="0" y1="1"><stop offset="0" stop-color="#1a6cff"/><stop offset="1" stop-color="#c522ff"/></linearGradient></defs><path fill="url(#a)" d="M22 9c-1.11 0-2 .892-2 2v3h1v-3c0-.554.446-1 1-1h4c.554 0 1 .446 1 1v3h1v-3c0-1.11-.892-2-2-2zm.5 2c-.277 0-.5.223-.5.5V13h4v-1.5c0-.277-.223-.5-.5-.5zM16 12l-4 4 1 1 1-1 1 1 2-2-1-1 1-1zm16 0-1 1 1 1-1 1 2 2 1-1 1 1 1-1z" transform="translate(-24.885 -21.33)scale(2.37)"/><path fill="url(#a)" d="M23 13v2h2v-2zm-3.631.975-1.728 1 1 1.73 1.728-1zm9.272 0-1 1.73 1.728 1 1-1.73zm-4.631 3.03-1 1v4.5h2v-4.5zm-9.029.635-1 1.728 1.73 1 1-1.728zm18.1 0-1.73 1 1 1.728 1.73-1zm-20 5.37v2h2v-2zm20 0v2h2v-2zm-17.3 4.63-1.728 1 1 1.728 1.728-1zm16.6 0-1 1.728 1.728 1 1-1.728zm-13.7 3.66-1 1.728 1.73 1 1-1.728zm10.7 0-1.73 1 1 1.728 1.73-1zm-6.371 1.71v2h2v-2z" transform="translate(-24.885 -21.33)scale(2.37)"/><path fill="url(#a)" d="M24 12c-6.63 0-12 5.37-12 12s5.37 12 12 12 12-5.37 12-12-5.37-12-12-12m0 2c5.52 0 10 4.48 10 10s-4.48 10-10 10-10-4.48-10-10 4.48-10 10-10" transform="translate(-24.885 -21.33)scale(2.37)"/><path fill="url(#b)" d="m25.5 24.5-1 1L29 30h1v-1z" transform="translate(-24.885 -21.33)scale(2.37)"/><path fill="url(#a)" d="M24 22a2 2 0 1 0-.001 4.001A2 2 0 0 0 24 22" transform="translate(-24.885 -21.33)scale(2.37)"/><path fill="#00f" d="M31.995 33.18a2.37 2.37 0 0 0-2.37 2.37 2.37 2.37 0 0 0 2.37 2.37 2.37 2.37 0 0 0 2.37-2.37 2.37 2.37 0 0 0-2.37-2.37"/></svg>