<svg version="1.1" viewBox="0 0 64 64" xmlns="http://www.w3.org/2000/svg">
 <defs>
  <linearGradient id="a" y1="1">
   <stop stop-color="#5433ff" offset="0"/>
   <stop stop-color="#20bdff" offset=".5"/>
   <stop stop-color="#a5fecb" offset="1"/>
  </linearGradient>
 </defs>
 <path transform="translate(0) scale(1) translate(0) scale(1.333)" d="m24 0c-13.25 0-24 10.75-24 24s10.75 24 24 24 24-10.75 24-24-10.75-24-24-24zm0 5c5.04 0 9.87 2 13.44 5.56 3.56 3.57 5.56 8.4 5.56 13.44s-2 9.87-5.56 13.44c-3.57 3.56-8.4 5.56-13.44 5.56s-9.87-2-13.44-5.56c-3.56-3.57-5.56-8.4-5.56-13.44s2-9.87 5.56-13.44c3.57-3.56 8.4-5.56 13.44-5.56zm0 3c-8.831 0-16 7.17-16 16s7.17 16 16 16 16-7.17 16-16-7.17-16-16-16zm0 4c3.18 0 6.24 1.27 8.49 3.51 2.24 2.25 3.51 5.31 3.51 8.49s-1.27 6.24-3.51 8.49c-2.25 2.24-5.31 3.51-8.49 3.51s-6.24-1.27-8.49-3.51c-2.24-2.25-3.51-5.31-3.51-8.49s1.27-6.24 3.51-8.49c2.25-2.24 5.31-3.51 8.49-3.51zm0 3c-4.967 0-9 4.033-9 9s4.033 9 9 9 9-4.033 9-9-4.033-9-9-9zm0 3c1.59 0 3.121 0.6293 4.241 1.759 1.13 1.12 1.759 2.651 1.759 4.241s-0.6293 3.121-1.759 4.241c-1.12 1.13-2.651 1.759-4.241 1.759s-3.121-0.6293-4.241-1.759c-1.13-1.12-1.759-2.651-1.759-4.241s0.6293-3.121 1.759-4.241c1.12-1.13 2.651-1.759 4.241-1.759z" fill="url(#a)"/>
</svg>
