<svg xmlns="http://www.w3.org/2000/svg" fill="none" viewBox="0 0 64 64"><defs><linearGradient id="a" x1="20.86" x2="98.92" y1="40.15" y2="40.15" gradientUnits="userSpaceOnUse"><stop offset="0" stop-color="#5570ff"/><stop offset="1" stop-color="#4dd3ff"/></linearGradient><linearGradient id="c" x1="20.86" x2="98.92" y1="87.85" y2="87.85" gradientUnits="userSpaceOnUse"><stop offset="0" stop-color="#5570ff"/><stop offset="1" stop-color="#4dd3ff"/></linearGradient></defs><path fill="url(#a)" d="M117 24.25c0 13.25-30.09 30.57-46.29 44.86-.734.622-1.689-.38-1.159-1.218l14.5-28.68c.407-.803-.12-1.71-.955-1.71h-56.26c-8.713 0-15.84-3.652-15.84-13.25s7.13-13.25 15.84-13.25h74.32c8.713-.004 15.84 5.513 15.84 13.25z" transform="translate(-6.642 -6.642)scale(.6038)"/><path fill="url(#c)" d="M11 103.8c0-13.25 30.09-30.57 46.29-44.86.735-.622 1.689.38 1.159 1.218l-14.5 28.68c-.407.803.12 1.71.955 1.71h56.26c8.713 0 15.84 3.652 15.84 13.25s-7.13 13.25-15.84 13.25h-74.32c-8.713.004-15.84-5.513-15.84-13.25z" transform="translate(-6.642 -6.642)scale(.6038)"/></svg>