<svg version="1.1" viewBox="0 0 22 22" xmlns="http://www.w3.org/2000/svg" xmlns:xlink="http://www.w3.org/1999/xlink">
 <defs>
  <style>.ColorScheme-Text { color:#dfdfdf; } .ColorScheme-Highlight { color:#4285f4; } .ColorScheme-NeutralText { color:#ff9800; } .ColorScheme-PositiveText { color:#4caf50; } .ColorScheme-NegativeText { color:#f44336; }</style>
  <linearGradient id="a" y2="1">
   <stop stop-color="#00fffa" offset="0"/>
   <stop stop-color="#0078ff" offset="1"/>
  </linearGradient>
  <linearGradient id="c" x1="10.39" x2="17.82" y1=".4802" y2="8.591" gradientTransform="scale(.5651 1.769)" gradientUnits="userSpaceOnUse" xlink:href="#a"/>
  <linearGradient id="b" x1="4.001" x2="12.07" y1="3.595" y2="12.34" gradientUnits="userSpaceOnUse" xlink:href="#a"/>
 </defs>
 <path transform="translate(0) scale(1) translate(0) scale(1) translate(0) scale(1) translate(0) scale(1) translate(-.00062 -.000204) scale(1) translate(-.9132 -.913) scale(1.489)" d="m8 2.039c-3.27 0-5.961 2.691-5.961 5.961s2.691 5.961 5.961 5.961 5.961-2.691 5.961-5.961-2.691-5.961-5.961-5.961zm0 1.168c2.629 0 4.793 2.164 4.793 4.793s-2.164 4.793-4.793 4.793-4.793-2.164-4.793-4.793 2.164-4.793 4.793-4.793z" fill="url(#b)"/>
 <path transform="translate(0) scale(1) translate(0) scale(1) translate(0) scale(1) translate(0) scale(1) translate(-.00062 -.000204) scale(1) matrix(1.489 0 0 1.489 -.9132 -.913)" d="m6.428 0.6133c-0.436 0-0.7871 0.3653-0.7871 0.8203v3.326s1.18 0.7826 1.18 1.31c0 0.527-1.18 1.31-1.18 1.31v7.186c0 0.455 0.3511 0.8203 0.7871 0.8203h3.144c0.436 0 0.7871-0.3653 0.7871-0.8203v-3.314l-0.0078-0.01563s-1.172-0.8094-1.172-1.359c0-0.551 1.172-1.369 1.172-1.369l0.0078-0.01172v-7.062c0-0.455-0.3511-0.8203-0.7871-0.8203z" fill="url(#c)"/>
</svg>
