<svg version="1.1" viewBox="0 0 22 22" xmlns="http://www.w3.org/2000/svg">
 <defs>
  <linearGradient id="a" y1="1">
   <stop stop-color="#00fffa" offset="0"/>
   <stop stop-color="#0078ff" offset="1"/>
  </linearGradient>
 </defs>
 <path transform="translate(-0) scale(1) translate(-0) scale(1) translate(-.000553 .0023) scale(.9999) matrix(.02965 0 0 .02965 -3.231 25.23)" d="m567-680c-22.36 0-41.8 8.24-58.28 24.73-16.49 16.49-24.73 35.92-24.73 58.28v234c0 22.36 8.24 41.8 24.73 58.28 16.49 16.49 35.92 24.73 58.28 24.73h203c22.67 0 41.83-8.24 57.5-24.73s23.52-35.92 23.52-58.28v-109c0-12.09-3.819-22.12-11.44-30.08-7.62-7.96-17.48-11.91-29.57-11.91h-96.02c-10.77 0-19.44 3.407-26.06 10.27-6.613 6.867-9.922 15.4-9.922 25.55 0 10.82 3.483 19.52 10.43 26.17 6.953 6.653 15.45 10 25.55 10h56.02v78.98h-203v-234h243c12.09 0 21.95-3.992 29.57-11.99 7.627-8 11.44-17.96 11.44-29.84 0-12.13-3.819-22.03-11.44-29.69-7.62-7.66-17.48-11.48-29.57-11.48z" fill="url(#a)"/>
 <path transform="translate(-0) scale(1) translate(-0) scale(1) translate(-.000553 .0023) scale(.9999) matrix(.02965 0 0 .02965 -3.231 25.23)" d="m150-680c-12.08 0-21.94 3.819-29.57 11.44-7.627 7.62-11.44 17.48-11.44 29.57v153c-1e-5 11.83 4.062 21.8 12.15 29.88 8.08 8.087 18.05 12.15 29.88 12.15h172v80.98h-172c-11.83 0-21.8 3.857-29.88 11.52-8.087 7.667-12.15 17.42-12.15 29.3-1e-5 11.89 3.819 21.89 11.44 30 7.627 8.12 17.49 12.19 29.57 12.19h173c22.36 0 41.8-8.24 58.28-24.73 16.49-16.49 24.73-35.92 24.73-58.28v-80.98c0-19.57-7.108-36.49-21.33-50.7-14.21-14.22-31.14-21.33-50.7-21.33h-143v-80.98h174c12.09 0 21.95-3.992 29.57-11.99 7.627-8 11.44-17.96 11.44-29.84 0-12.13-3.819-22.03-11.44-29.69-7.62-7.66-17.48-11.48-29.57-11.48z" fill="url(#a)"/>
</svg>
