<svg version="1.1" viewBox="0 0 22 22" xmlns="http://www.w3.org/2000/svg">
 <path transform="translate(0) scale(1) translate(0) scale(1) translate(0 -1e-5) scale(1) translate(.00318 .00265) scale(.9998) translate(-.001261 7e-5) scale(1)" d="m16.44 3.936a1.1 1.1 0 0 0-0.8008 0.3203l-0.5059 0.5 0.0098 0.00977-4.543 4.475a0.806 0.806 0 0 0 0 1.15l2.42 2.385a0.837 0.837 0 0 0 1.17 0l4.559-4.486v0.00195l3-2.871c0.528-0.504 0.1734-1.386-0.5606-1.398zm-10.88 5.051-0.001953 0.001953-4.748 0.08203c-0.735 0.013-1.087 0.8895-0.5586 1.394l3 2.873 4.557 4.486a0.837 0.837 0 0 0 1.17 0l2.42-2.387a0.803 0.803 0 0 0 0-1.15l-4.541-4.473 0.00977-0.00977-0.5059-0.5a1.1 1.1 0 0 0-0.8008-0.3184z" fill="#0f0"/>
</svg>
