<svg version="1.1" viewBox="0 0 22 22" xmlns="http://www.w3.org/2000/svg">
 <defs>
  <linearGradient id="a" y1="1">
   <stop stop-color="#f00" offset="0"/>
   <stop stop-color="#ff0086" offset="1"/>
  </linearGradient>
 </defs>
 <path transform="translate(-.0064) scale(1) translate(5e-4) scale(1)" d="m9.25 0a1 1 0 0 0-1 1v0.75a1 1 0 0 0 1 1h3.5a1 1 0 0 0 1-1v-0.75a1 1 0 0 0-1-1zm-4.644 0.07617c-0.03312 0.00192-0.06569 0.007525-0.09961 0.01367-2.246 0.4071-4.009 2.17-4.416 4.416-0.09838 0.5428 0.3579 0.9941 0.9102 0.9941h0.75c0.5523 0 0.9833-0.4648 1.178-0.9785 0.2778-0.7338 0.8599-1.316 1.594-1.594 0.5137-0.1945 0.9785-0.6254 0.9785-1.178v-0.75c0-0.5178-0.3977-0.9526-0.8945-0.9238zm12.7 0c-0.4531 0.02593-0.8027 0.4384-0.8027 0.9238v0.75c0 0.5523 0.4648 0.9833 0.9785 1.178 0.7338 0.2778 1.316 0.8599 1.594 1.594 0.1945 0.5137 0.6254 0.9785 1.178 0.9785h0.75c0.5523 0 1.008-0.4514 0.9102-0.9941-0.4071-2.246-2.17-4.009-4.416-4.416-0.03392-0.006148-0.06648-0.01175-0.09961-0.01367-0.03106-0.001801-0.06159-0.001729-0.0918 0zm-16.3 8.174a1 1 0 0 0-1 1v3.5a1 1 0 0 0 1 1h0.75a1 1 0 0 0 1-1v-3.5a1 1 0 0 0-1-1zm19.25 0a1 1 0 0 0-1 1v3.5a1 1 0 0 0 1 1h0.75a1 1 0 0 0 1-1v-3.5a1 1 0 0 0-1-1zm-19.25 8.25c-0.5523 0-1.008 0.4514-0.9102 0.9941 0.4071 2.246 2.17 4.009 4.416 4.416 0.5428 0.09838 0.9941-0.3579 0.9941-0.9102v-0.75c0-0.5523-0.4648-0.9833-0.9785-1.178-0.7338-0.2778-1.316-0.8599-1.594-1.594-0.1945-0.5137-0.6254-0.9785-1.178-0.9785zm19.25 0c-0.5523 0-0.9833 0.4648-1.178 0.9785-0.2778 0.7338-0.8599 1.316-1.594 1.594-0.5137 0.1945-0.9785 0.6254-0.9785 1.178v0.75c0 0.5523 0.4514 1.008 0.9941 0.9102 2.246-0.4071 4.009-2.17 4.416-4.416 0.09838-0.5428-0.3579-0.9941-0.9102-0.9941zm-11 2.75a1 1 0 0 0-1 1v0.75a1 1 0 0 0 1 1h3.5a1 1 0 0 0 1-1v-0.75a1 1 0 0 0-1-1z" fill="url(#a)"/>
</svg>
