<svg version="1.1" viewBox="0 0 22 22" xmlns="http://www.w3.org/2000/svg">
 <defs>
  <linearGradient id="a" x2="0" y2="1">
   <stop stop-color="#00fffa" offset="0"/>
   <stop stop-color="#0078ff" offset="1"/>
  </linearGradient>
 </defs>
 <path transform="translate(0) scale(1) translate(-.001337 .001325) scale(1) translate(-1.568 -1.572) scale(.1963)" d="m57.56 9.004a3.22 3.22 0 0 0-3.225 3.225 3.22 3.22 0 0 0 3.225 3.222h3.222v6.823a44.83 44.83 0 0 0-24.51 9.44l-3.372-3.372 9.115-9.115a3.22 3.22 0 0 0 0-4.556c-7.308-7.308-20.04-7.308-27.34 0a19.2 19.2 0 0 0-5.667 13.67c0 5.164 2.013 10.02 5.667 13.67 0.63 0.63 1.454 0.944 2.278 0.944s1.649-0.314 2.278-0.944l9.115-9.115 3.14 3.14c-7.78 8.11-12.59 19.09-12.59 31.19 0 15.96 8.356 29.98 20.9 38l-4.45 9.111a3.223 3.223 0 1 0 5.766 2.88l4.35-8.913c5.666 2.568 11.93 4.036 18.55 4.036s12.88-1.468 18.55-4.036l4.35 8.913a3.223 3.223 0 1 0 5.766-2.88l-4.45-9.111c12.54-8.022 20.9-22.04 20.9-38 0-12.1-4.812-23.08-12.59-31.19l3.14-3.14 9.115 9.115c0.63 0.63 1.453 0.944 2.278 0.944 0.824 0 1.649-0.314 2.278-0.944a19.2 19.2 0 0 0 5.667-13.67c0-5.164-2.013-10.02-5.667-13.67h-0.0137c-7.307-7.308-20.03-7.308-27.34 0a3.22 3.22 0 0 0 0 4.556l9.115 9.115-3.376 3.372a44.8 44.8 0 0 0-24.51-9.44v-6.823h3.222a3.22 3.22 0 0 0 3.225-3.222 3.22 3.22 0 0 0-3.225-3.225zm-29.22 6.447c2.341 0 4.586 0.6213 6.55 1.785l-17.66 17.65a12.8 12.8 0 0 1-1.785-6.546c0-3.443 1.341-6.679 3.776-9.115s5.672-3.776 9.115-3.776zm70.78 0.0684c3.512-0.1151 7.092 1.147 9.648 3.704a12.8 12.8 0 0 1 3.779 9.111c0 2.34-0.621 4.586-1.785 6.55l-17.66-17.66c1.821-1.077 3.905-1.641 6.012-1.71zm-35.12 13.04c21.32 0 38.67 17.35 38.67 38.67s-17.35 38.67-38.67 38.67-38.67-17.35-38.67-38.67 17.35-38.67 38.67-38.67zm-0.0034 6.44c-17.77 0-32.23 14.46-32.23 32.23s14.46 32.23 32.23 32.23 32.23-14.46 32.23-32.23-14.46-32.23-32.23-32.23zm0 6.45c14.21 0 25.78 11.57 25.78 25.78 0 14.22-11.57 25.78-25.78 25.78-14.22 0-25.78-11.57-25.78-25.78 0-14.22 11.57-25.78 25.78-25.78zm-0.0068 6.44a3.22 3.22 0 0 0-3.225 3.222v14.78l-11.95 11.95c-1.259 1.259-1.259 3.297 0 4.556s3.3 1.259 4.559 0l12.89-12.89a3.22 3.22 0 0 0 0.944-2.278v-16.11a3.22 3.22 0 0 0-3.225-3.225z" fill="url(#a)"/>
 <path transform="translate(0) scale(1) translate(-.001337 .001325) scale(1) translate(-1.568 -1.572) scale(.1963)" d="m57.56 8.006c-2.32-0.00107-4.222 1.9-4.22 4.22-0.0022 2.321 1.9 4.225 4.22 4.224h2.223v4.963c-8.487 0.7742-16.57 3.889-23.38 9.015l-2.086-2.086 8.407-8.407c1.641-1.64 1.642-4.332 0-5.972-7.718-7.718-21.04-7.721-28.75-0.0034-3.828 3.805-5.976 8.984-5.961 14.38 5.131e-4 5.423 2.12 10.54 5.958 14.38 0.8208 0.8208 1.908 1.238 2.986 1.238s2.165-0.4163 2.986-1.238l8.407-8.407 1.806 1.806c-7.552 8.212-12.26 19.1-12.26 31.11 0 15.99 8.238 30.04 20.64 38.31l-4.073 8.338v3e-3c-0.6071 1.188-0.6437 2.438-0.2428 3.451 0.4013 1.015 1.189 1.788 2.114 2.25s2.015 0.6227 3.068 0.3352 2.031-1.06 2.616-2.261h-0.0034l3.95-8.089c5.553 2.381 11.63 3.772 18.06 3.772 6.423 0 12.5-1.389 18.06-3.769l3.95 8.089v7e-3c0.5923 1.184 1.573 1.945 2.62 2.226 1.047 0.2818 2.128 0.1178 3.047-0.342s1.701-1.226 2.103-2.233c0.4026-1.007 0.3768-2.246-0.2155-3.43l-4.077-8.348c12.4-8.272 20.63-22.32 20.63-38.31 0-12.01-4.704-22.9-12.25-31.11l1.806-1.806 8.41 8.407c0.8208 0.8208 1.904 1.238 2.982 1.238 1.077 0 2.166-0.4142 2.986-1.235v-0.0034c3.826-3.804 5.972-8.979 5.958-14.38 0-5.424-2.12-10.54-5.958-14.38l-0.2907-0.2941h-0.0855c-7.763-7.386-20.78-7.312-28.39 0.2941-1.642 1.64-1.642 4.331 0 5.972l8.407 8.407-2.086 2.086c-6.809-5.128-14.89-8.243-23.38-9.015v-4.963h2.22c2.32 0.0011 4.225-1.9 4.224-4.22 0.0022-2.321-1.903-4.225-4.224-4.224h-12.89zm0 2.001h12.89c1.24-0.0012 2.224 0.98 2.223 2.22v0.0034c0.0012 1.24-0.9835 2.224-2.223 2.223h-4.22v8.756l0.9303 0.06498c8.73 0.6136 17.08 3.826 23.96 9.227l0.6977 0.5472 4.706-4.706-9.819-9.822c-0.8769-0.8756-0.8769-2.268 0-3.143 6.9-6.898 19.03-6.898 25.92 0l0.0889 0.08892c3.418 3.456 5.298 8.011 5.298 12.88 0.0132 4.864-1.92 9.53-5.37 12.96v0.0034h-3e-3c-0.4375 0.4382-0.9999 0.6498-1.57 0.6498-0.5713 0-1.131-0.2106-1.57-0.6498l-9.822-9.822-4.542 4.542 0.6772 0.7045c7.608 7.933 12.32 18.67 12.32 30.5 0 15.61-8.178 29.31-20.44 37.16l-0.749 0.4822 4.843 9.912v7e-3c0.3687 0.7372 0.3448 1.298 0.1471 1.792s-0.617 0.9258-1.139 1.187c-0.5219 0.261-1.12 0.3368-1.635 0.1984s-0.9788-0.453-1.348-1.19l-4.774-9.778-0.8858 0.4002c-5.548 2.513-11.66 3.947-18.14 3.947s-12.59-1.434-18.14-3.947l-0.8858-0.4002-4.778 9.785c-0.3657 0.7497-0.828 1.073-1.344 1.214-0.5161 0.141-1.122 0.0647-1.648-0.1984-0.526-0.263-0.9455-0.6996-1.142-1.197s-0.2231-1.064 0.1573-1.806l0.0068-7e-3 4.843-9.918-0.749-0.4822c-12.27-7.844-20.44-21.54-20.44-37.16 0-11.84 4.702-22.57 12.31-30.5l0.6772-0.7045-4.538-4.542-9.822 9.822c-0.4375 0.4382-0.9999 0.6498-1.57 0.6498s-1.134-0.2106-1.573-0.6498c-3.47-3.466-5.37-8.058-5.37-12.96v-0.0034c-0.01321-4.864 1.92-9.53 5.37-12.96h0.0034v-0.0034c6.889-6.897 19.03-6.897 25.92 0 0.8769 0.8756 0.8769 2.268 0 3.143l-9.819 9.822 4.706 4.706 0.6977-0.5472c6.887-5.4 15.23-8.612 23.96-9.227l0.9303-0.0684v-8.752h-4.224c-1.24 0.0012-2.224-0.9835-2.223-2.223v-0.0034c-0.0012-1.24 0.9835-2.221 2.223-2.22zm-29.22 4.446c-3.702 0-7.204 1.447-9.822 4.066-2.617 2.618-4.069 6.118-4.07 9.819v0.0034c-0.0052 2.482 0.6614 4.919 1.926 7.056l0.1505-1.207 1.412 1.412 18.57-18.57-1.108-0.6567c-2.117-1.255-4.542-1.922-7.059-1.922zm70.75 0.05472c-2.266 0.07713-4.508 0.691-6.484 1.86l-1.112 0.6567 18.02 18.02-0.1026 0.1744 0.8345 0.5233 1.122-1.412 0.2599 1.067c1.256-2.117 1.925-4.539 1.926-7.056v-0.0034c0.01-3.686-1.456-7.22-4.07-9.819-2.216-2.217-5.117-3.534-8.123-3.906-0.7515-0.09302-1.512-0.1283-2.268-0.1026zm-70.75 1.943c1.7 0 3.297 0.451 4.798 1.122l-15.57 15.57c-0.676-1.516-1.126-3.125-1.122-4.795v-0.0034c0-3.183 1.233-6.154 3.485-8.407 2.252-2.252 5.223-3.485 8.407-3.485zm71.17 0.09576c0.529-0.01522 1.062 0.0096 1.594 0.07524 2.587 0.3194 5.086 1.433 6.96 3.307h3e-3v0.0034c2.237 2.223 3.49 5.249 3.482 8.403 0 1.7-0.4472 3.3-1.118 4.802l-15.53-15.53c1.458-0.627 3.02-1.018 4.607-1.064zm-35.51 11.02c-21.86 0-39.67 17.81-39.67 39.67s17.81 39.67 39.67 39.67 39.67-17.81 39.67-39.67-17.81-39.67-39.67-39.67zm0 1.997c20.78 0 37.67 16.9 37.67 37.67s-16.9 37.67-37.67 37.67-37.67-16.89-37.67-37.67 16.89-37.67 37.67-37.67zm0 4.443c-18.31 0-33.23 14.92-33.23 33.23s14.92 33.23 33.23 33.23 33.23-14.92 33.23-33.23-14.92-33.23-33.23-33.23zm0 2.001c17.23 0 31.23 14 31.23 31.23s-14 31.23-31.23 31.23-31.23-14-31.23-31.23 14-31.23 31.23-31.23zm0 4.45c-14.75 0-26.78 12.02-26.78 26.78 0 14.75 12.02 26.78 26.78 26.78 14.75 0 26.78-12.02 26.78-26.78 0-14.75-12.03-26.78-26.78-26.78zm0 2.001c13.67 0 24.78 11.11 24.78 24.78 0 13.68-11.11 24.78-24.78 24.78-13.68 0-24.78-11.11-24.78-24.78 0-13.68 11.11-24.78 24.78-24.78zm-0.0068 4.439c-2.322-0.0022-4.226 1.899-4.224 4.22v14.36l-11.66 11.66c-1.641 1.641-1.641 4.331 0 5.972s4.334 1.641 5.975 0l12.89-12.89c0.7919-0.7913 1.238-1.866 1.238-2.986v-16.11c8.24e-4 -1.781-1.129-3.292-2.698-3.909l0.1778-0.3181zm-0.02052 2.008h0.01368c1.24-0.0012 2.224 0.98 2.223 2.22v16.11c4.3e-5 0.5895-0.2328 1.153-0.6498 1.57l-12.89 12.89c-0.8773 0.8773-2.266 0.8773-3.143 0s-0.8773-2.262 0-3.14l12.24-12.24v-15.2c-0.0011-1.232 0.9738-2.202 2.202-2.213z" fill="url(#a)"/>
</svg>
