<svg version="1.1" viewBox="0 0 22 22" xmlns="http://www.w3.org/2000/svg" xmlns:xlink="http://www.w3.org/1999/xlink">
 <defs>
  <linearGradient id="a" y1="1">
   <stop stop-color="#7f00ff" offset="0"/>
   <stop stop-color="#e100ff" offset="1"/>
  </linearGradient>
  <linearGradient id="b" y1="1">
   <stop stop-color="#ffc100" offset="0"/>
   <stop stop-color="#ff0069" offset="1"/>
  </linearGradient>
  <linearGradient id="d" x1="12.5" x2="19.5" y1="30" y2="23" gradientTransform="matrix(.4214 0 0 .4214 4.26 6.397)" gradientUnits="userSpaceOnUse" xlink:href="#b"/>
  <linearGradient id="c" x1="12.58" x2="27.68" y1="16.69" y2="1.589" gradientTransform="matrix(.3349 0 0 .5302 4.26 6.397)" gradientUnits="userSpaceOnUse" xlink:href="#b"/>
  <linearGradient id="f" x1="29.01" x2="43.85" y1="8.473" y2="-11.76" gradientTransform="matrix(.3349 0 0 .5302 4.26 6.397)" gradientUnits="userSpaceOnUse" xlink:href="#b"/>
  <linearGradient id="e" x1="121.8" x2="137.7" y1="8.473" y2="-11.76" gradientTransform="matrix(.3349 0 0 .5302 4.26 6.397)" gradientUnits="userSpaceOnUse" xlink:href="#b"/>
 </defs>
 <path transform="translate(-0 3.1e-5) scale(.9999) translate(9e-6 .000151) scale(.3439) translate(0 -.004)" d="M8.533 4.082A8.514 8.514 0 0 0 0 12.617v42.67a8.514 8.514 0 0 0 8.533 8.535h46.91a8.516 8.516 0 0 0 8.535-8.535v-42.67a8.516 8.516 0 0 0-8.535-8.535h-3.062v4.141c0 2.555-2.122 4.666-4.672 4.666s-4.666-2.116-4.666-4.666V4.082h-22.11v4.141c0 2.555-2.122 4.666-4.672 4.666s-4.666-2.116-4.666-4.666V4.082zm0 12.8h46.91a4.26 4.26 0 0 1 4.27 4.266v34.12a4.26 4.26 0 0 1-4.27 4.266H8.533a4.256 4.256 0 0 1-4.266-4.266v-34.12a4.256 4.256 0 0 1 4.266-4.266" fill="url(#a)"/>
 <path transform="translate(-0 3.1e-5) scale(.9999) translate(9e-6 .000151) scale(.3439) translate(0 -.004)" d="M16.14.164a2.67 2.67 0 0 0-2.535 2.666v5.393c0 1.48 1.188 2.666 2.666 2.666s2.672-1.188 2.672-2.666V2.83A2.663 2.663 0 0 0 16.271.164c-.046 0-.084-.002-.129 0z" fill="url(#f)" stroke-width="1.225"/>
 <path transform="translate(-0 3.1e-5) scale(.9999) translate(9e-6 .000151) scale(.3439) translate(0 -.004)" d="M47.58.164a2.67 2.67 0 0 0-2.535 2.666v5.393c0 1.48 1.188 2.666 2.666 2.666s2.672-1.188 2.672-2.666V2.83A2.663 2.663 0 0 0 47.711.164c-.046 0-.084-.002-.129 0z" fill="url(#e)" stroke-width="1.225"/>
 <path transform="translate(-0 3.1e-5) scale(.9999)" d="m11 16.09a1.475 1.475 0 0 0 0 2.949 1.475 1.475 0 0 0 0-2.949z" fill="url(#d)" stroke-width=".4214"/>
 <path transform="translate(-0 3.1e-5) scale(.9999)" d="m10.83 7.245a2.528 2.528 0 0 0-2.355 2.522c0 1.484 0.8364 3.597 1.331 4.715 0.2086 0.4719 0.6796 0.7627 1.197 0.7627 0.517 0 0.9885-0.291 1.197-0.7627 0.4947-1.118 1.331-3.23 1.331-4.715a2.528 2.528 0 0 0-2.701-2.522z" fill="url(#c)" stroke-width=".4214"/>
</svg>
