<svg version="1.1" viewBox="0 0 22 22" xmlns="http://www.w3.org/2000/svg">
 <defs>
  <linearGradient id="a" y1="1">
   <stop stop-color="#f00" offset="0"/>
   <stop stop-color="#ff0086" offset="1"/>
  </linearGradient>
  <linearGradient id="b" y1="1">
   <stop stop-color="#f00" offset="0"/>
   <stop stop-color="#ff0086" offset="1"/>
  </linearGradient>
 </defs>
 <path transform="translate(0) scale(1) matrix(.9999 0 0 .9999 .000203 -.000832)" d="m10.36 0.6797-2e-3 0.001953c-0.03713-0.001145-0.07373-0.001485-0.1074 0.001953a0.7938 0.7938 0 0 0-0.6562 0.4805l-1.812 4.228-6.223-0.623a0.7956 0.7956 0 0 0-0.6406 1.356l3.342 3.344-3.859 2.203a0.7938 0.7938 0 0 0 0.293 1.478l4.084 0.5137-3.258 4.348a0.7949 0.7949 0 0 0 0.8867 1.23l5.24-1.746 0.5254 3.164c0.1034 0.6243 0.8981 0.8773 1.346 0.4297l2.955-2.953 4.908 3.066a0.7938 0.7938 0 0 0 0.9121-0.04883 0.7973 0.7973 0 0 0 0.2617-0.877v-2e-3l-1.734-5.197 4.484-0.5625a0.7938 0.7938 0 0 0 0.6797-0.6309 0.7921 0.7921 0 0 0-0.3828-0.8457l-3.334-1.906 1.873-0.748a0.7938 0.7938 0 0 0 0.498-0.7051v-0.00195a0.7938 0.7938 0 0 0-0.4394-0.7441l-1.977-0.9844 2.998-5.398a0.7938 0.7938 0 0 0-1.023-1.107l-6.869 3.119-2.344-3.518a0.7904 0.7904 0 0 0-0.5938-0.3457 0.1718 0.1718 0 0 0-0.0293-0.01758zm0.1152 2.459 1.904 2.859h0.0039a0.7938 0.7938 0 0 0 0.9785 0.2832h0.0078l5.295-2.404-2.232 4.02a0.7983 0.7983 0 0 0 0.3398 1.098l1.135 0.5644-1.756 0.7031c-0.601 0.242-0.6617 1.104-0.09961 1.426v2e-3l2.693 1.539-3.076 0.3828c-0.493 0.06188-0.8114 0.57-0.6543 1.041l1.342 4.029-3.568-2.232h-0.0078a0.7925 0.7925 0 0 0-0.9648 0.1074l-0.01172 0.0059-2.309 2.309-0.4238-2.557a0.7973 0.7973 0 0 0-1.033-0.6231l-3.713 1.238 2.557-3.412c0.3596-0.4793 0.05729-1.192-0.5371-1.266l-3.076-0.3848 2.693-1.537c0.4497-0.2571 0.5337-0.8851 0.168-1.252l-2.506-2.508 4.586 0.459a0.7973 0.7973 0 0 0 0.8106-0.4785z" fill="url(#a)"/>
 <path transform="translate(0) scale(1) translate(-.000515 -.000142) scale(1) translate(.000718 -.00069) scale(.9999)" d="m11 13.16a1.084 1.084 0 0 0 0 2.168 1.084 1.084 0 0 0 0-2.168z" fill="url(#b)"/>
 <path transform="translate(0) scale(1) translate(-.000515 -.000142) scale(1) translate(.000718 -.00069) scale(.9999)" d="m10.88 6.67a1.856 1.856 0 0 0-1.728 1.854c0 1.09 0.613 2.642 0.9766 3.463 0.1532 0.3467 0.4992 0.5586 0.8789 0.5586s0.726-0.2121 0.8789-0.5586c0.3633-0.8213 0.9785-2.373 0.9785-3.463a1.856 1.856 0 0 0-1.984-1.854z" fill="url(#b)"/>
</svg>
