<svg version="1.1" viewBox="0 0 22 22" xmlns="http://www.w3.org/2000/svg">
 <defs>
  <linearGradient id="b" x1="1" x2="0" y2="1">
   <stop stop-color="#fea201" offset="0"/>
   <stop stop-color="#f2203e" offset=".33"/>
   <stop stop-color="#b729a8" offset=".67"/>
   <stop stop-color="#5342d6" offset="1"/>
  </linearGradient>
  <linearGradient id="a" x1="-.02043" x2="22" y1="22.02" y2="-2.069e-7" gradientTransform="matrix(.37 0 0 .37 13.86 6.925)" gradientUnits="userSpaceOnUse">
   <stop stop-color="red" offset="0"/>
   <stop stop-color="#ff2a2a" offset="1"/>
  </linearGradient>
 </defs>
 <path transform="translate(0 .00235) scale(.9998) translate(.000403 .00084) scale(1) translate(.001556 -.00012) scale(1)" d="m9.678 2.23v0.00391c-1.033-0.01212-1.472 0.3286-2.041 0.8105l-2.975 2.424h-1.42c-1.659 0-2.89 1.408-3.092 2.85l-0.003906 0.01953c-0.1868 1.498-0.2091 3.741 0.003906 5.273 0.09438 0.7635 0.3886 1.502 0.9434 2.057 0.5568 0.5576 1.358 0.8633 2.146 0.8633h1.424l3.049 2.477c0.5458 0.4588 1.069 0.7716 1.967 0.7598 1.354 0.01781 2.492-0.9791 2.871-2.248l0.01172-0.03906c0.1978-0.7375 0.214-1.348 0.2695-1.809 0.2324-1.856 0.2324-7.486 0-9.342-0.05807-0.4773-0.08528-1.102-0.2676-1.801l-0.01367-0.05078c-0.3805-1.269-1.517-2.267-2.873-2.248zm0.04688 2.844v0.01172h0.00195v0.00195h0.00195v0.00195c-0.02601-0.00356-0.02575-0.01065-0.07812-0.01172a1.425 1.425 0 0 0 0.07422-0.00391zm0.02734 0.06641h0.00195l0.00195 0.00195c0.00654 0.00934 0.02112 0.04047 0.05664 0.1367 0.07552 0.3018 0.1194 0.8133 0.1914 1.402v0.00391c0.08266 0.6613 0.08266 7.971 0 8.633v0.0039c-0.07411 0.6075-0.09559 1.046-0.1875 1.4-0.03171 0.08903-0.06406 0.1398-0.08398 0.168 0.01066 4e-3 0.02338 0.0079 0.0293 0.01172l0.00195 0.0039v2e-3h0.00195v2e-3h-0.00195v2e-3a0.1425 0.1425 0 0 1-0.05469 0.01172v4e-3a1.425 1.425 0 0 0-0.0625-2e-3c0.02405-4.72e-4 0.04469-5.18e-4 0.06055-2e-3h0.00195v-0.0059c0.00414-0.0054 0.01355-0.01346 0.02344-0.02734-0.05354-0.01932-0.1591-0.04357-0.1836-0.06055l-0.01757-0.01767-3.461-2.812a1.425 1.425 0 0 0-0.8965-0.3184h-1.93c-0.07525 0-0.1066-0.0041-0.1191-0.0098l-0.00195-0.0039c-0.00356-0.0043-0.00762-0.0091-0.01367-0.01563-0.02031-0.02031-0.0977-0.1177-0.1309-0.3945l-0.00586-0.02539c-0.1461-1.035-0.1363-3.407 0.001951-4.527 0.04987-0.3542 0.07211-0.3828 0.2695-0.3828h1.926a1.425 1.425 0 0 0 0.9023-0.3203l3.389-2.762 0.02148-0.01562c0.0089-0.00713 0.1788-0.04443 0.2695-0.08008z" fill="url(#b)"/>
 <path transform="translate(0 .00235) scale(.9998) translate(.000403 .00084) scale(1)" d="m14.88 6.925a1.018 1.018 0 0 0-0.7189 1.737l2.334 2.334-2.334 2.334a1.017 1.017 0 1 0 1.438 1.438l2.334-2.334 2.334 2.334a1.014 1.014 0 0 0 0.7189 0.2986 1.018 1.018 0 0 0 1.018-1.018 1.014 1.014 0 0 0-0.2986-0.7189l-2.334-2.334 2.334-2.334a1.014 1.014 0 0 0 0.2986-0.7189 1.018 1.018 0 0 0-1.018-1.018 1.014 1.014 0 0 0-0.7189 0.2986l-2.334 2.334-2.334-2.334a1.018 1.018 0 0 0-0.7189-0.2986" fill="url(#a)" stroke-width=".37"/>
</svg>
