<svg version="1.1" viewBox="0 0 22 22" xmlns="http://www.w3.org/2000/svg">
 <defs>
  <linearGradient id="b" y1=".5" y2=".5">
   <stop stop-color="#94ff54" offset="0"/>
   <stop stop-color="#fffb03" offset="1"/>
  </linearGradient>
  <linearGradient id="a" x1="1" x2="0" y2="1">
   <stop stop-color="#01ff4d" offset="0"/>
   <stop stop-color="#2fff00" offset="1"/>
  </linearGradient>
 </defs>
 <path transform="translate(-0 .00186) scale(1) matrix(1.027 0 0 1.027 -.0001389 -.297)" d="m9.934 2.004c-1.06-0.01243-1.508 0.3377-2.092 0.832l-3.053 2.488h-1.459c-1.702 0-2.967 1.443-3.174 2.922l-0.003906 0.02148c-0.1916 1.537-0.2147 3.838 0.003906 5.41 0.09688 0.7835 0.3999 1.542 0.9688 2.111 0.5714 0.5722 1.396 0.8867 2.205 0.8867h1.459l3.129 2.541c0.5601 0.4709 1.097 0.7914 2.018 0.7793 1.389 0.01828 2.558-1.005 2.947-2.307l0.01172-0.04102c0.2029-0.7568 0.2184-1.382 0.2754-1.854 0.2384-1.904 0.2384-7.681 0-9.586-0.05959-0.4899-0.08625-1.132-0.2734-1.848l-0.01367-0.05078c-0.3905-1.302-1.558-2.326-2.949-2.307zm0.045 2.916v0.00195c2.742e-4 6.398e-4 0.00147 0.00505 0.00195 0.00586 0.00114 0.00169 0.00317 0.00281 0.00391 0.00391v0.00195c-0.02669-0.00366-0.02634-0.01062-0.08008-0.01172a1.462 1.462 0 0 0 0.07422-0.00195zm0.0293 0.06641h2e-3l2e-3 0.00195c0.0067 0.00959 0.02213 0.04178 0.05859 0.1406 0.07751 0.3097 0.1234 0.8346 0.1973 1.438v0.00391c0.08482 0.6786 0.08482 8.179 0 8.859v0.0039c-0.07605 0.6234-0.101 1.072-0.1953 1.436-0.03254 0.0914-0.06351 0.143-0.08398 0.1719 0.01097 0.0041 0.02321 0.0097 0.0293 0.01367l2e-3 2e-3v2e-3h2e-3v0.0039h-2e-3v2e-3a0.1462 0.1462 0 0 1-0.05664 0.0098c0.00219-0.0048 0.01186-0.01419 0.02539-0.0332-0.0549-0.01983-0.1642-0.04507-0.1894-0.0625l-0.01772-0.01774-3.551-2.883a1.462 1.462 0 0 0-0.9219-0.3281h-1.978c-0.07723 0-0.1082-4e-3 -0.1211-0.0098 0 0-0.00195-2e-3 -0.00195-2e-3s-0.00195-2e-3 -0.00195-2e-3c-0.00366-0.0044-0.00746-9e-3 -0.01367-0.01563-0.02084-0.02084-0.1008-0.1202-0.1348-0.4043l-0.00391-0.02734c-0.1499-1.062-0.1399-3.495 0.00195-4.646 0.05118-0.3634 0.07285-0.3926 0.2754-0.3926h1.978a1.462 1.462 0 0 0 0.9238-0.3281l3.477-2.836 0.02148-0.01562c0.00914-0.00731 0.1841-0.04742 0.2773-0.08398zm-0.046 12.09h0.00195v2e-3h0.00195v2e-3a1.462 1.462 0 0 0-0.06445-2e-3c0.02468-4.84e-4 0.04428-5.09e-4 0.06055-2e-3z" fill="url(#b)"/>
 <path transform="translate(-0 .00186) scale(1) translate(.000312 -.2977) scale(1.027)" d="m17.67 7.25a3.75 3.75 0 0 0-3.75 3.75 3.75 3.75 0 0 0 3.75 3.75 3.75 3.75 0 0 0 3.75-3.75 3.75 3.75 0 0 0-3.75-3.75z" fill="url(#a)" stroke-width="1.25"/>
</svg>
