<svg version="1.1" viewBox="0 0 22 22" xmlns="http://www.w3.org/2000/svg">
 <defs>
  <linearGradient id="a" y1="1">
   <stop stop-color="#fea201" offset="0"/>
   <stop stop-color="#f2203e" offset=".33"/>
   <stop stop-color="#b729a8" offset=".67"/>
   <stop stop-color="#5342d6" offset="1"/>
  </linearGradient>
 </defs>
 <path transform="translate(0) scale(1) translate(.0017 -.000457) scale(1) translate(2.802 .00073) scale(.9999)" d="m12.18 0v0.003906c-1.296-0.0152-1.845 0.4134-2.559 1.018l-3.732 3.041h-1.781c-2.081 0-3.626 1.766-3.879 3.574l-0.005859 0.02539c-0.2343 1.879-0.2614 4.693 0.005859 6.615 0.1184 0.9578 0.488 1.884 1.184 2.58 0.6985 0.6995 1.704 1.084 2.693 1.084h1.785l3.824 3.107c0.6847 0.5756 1.343 0.9679 2.469 0.9531 1.698 0.02235 3.126-1.23 3.602-2.822l0.01367-0.04883c0.2481-0.9252 0.2682-1.69 0.3379-2.268 0.2915-2.328 0.2915-9.392 0-11.72-0.07285-0.5988-0.1072-1.384-0.3359-2.26l-0.01563-0.0625c-0.4774-1.592-1.905-2.844-3.606-2.82zm0.05859 3.568v0.00976h2e-3v0.00391h2e-3v0.00195h2e-3v0.00195c-0.03263-0.00447-0.03195-0.01233-0.09766-0.01367a1.788 1.788 0 0 0 0.0918-0.00391zm0.03516 0.08203h2e-3l0.0039 0.00195c0.0082 0.01172 0.02575 0.05115 0.07031 0.1719 0.09475 0.3786 0.1499 1.021 0.2402 1.76v0.00391c0.1037 0.8296 0.1037 10 0 10.83v0.0059c-0.09297 0.7621-0.121 1.311-0.2363 1.756-0.03978 0.1117-0.0785 0.1756-0.1035 0.2109 0.01341 5e-3 0.02771 0.01076 0.03516 0.01563l0.0039 0.0039v2e-3h2e-3v0.0039h-2e-3v2e-3a0.1788 0.1788 0 0 1-0.07031 0.01367v0.0039h2e-3v2e-3a1.788 1.788 0 0 0-0.07813-2e-3c0.03017-5.92e-4 0.05433-0.0021 0.07422-0.0039h2e-3v-0.0039l2e-3 -2e-3c0.0052-0.0068 0.01689-0.01773 0.0293-0.03516-0.06713-0.02424-0.2017-0.05486-0.2324-0.07617l-0.02148-0.02148-4.342-3.527a1.788 1.788 0 0 0-1.125-0.4004h-2.42c-0.09441 0-0.1327-0.0046-0.1484-0.01172l-0.00391-0.0059c-0.00447-0.0054-0.00999-0.01138-0.01758-0.01953-0.02548-0.02548-0.1225-0.1468-0.1641-0.4941l-0.00586-0.0332c-0.1833-1.298-0.1715-4.274 0.001957-5.68 0.06257-0.4443 0.09023-0.4805 0.3379-0.4805h2.416a1.788 1.788 0 0 0 1.131-0.4004l4.252-3.465 0.02734-0.01953c0.01117-0.00894 0.2241-0.05688 0.3379-0.1016v-0.00391z" fill="url(#a)"/>
</svg>
