<svg fill="none" version="1.1" viewBox="0 0 22 22" xmlns="http://www.w3.org/2000/svg">
 <defs>
  <linearGradient id="a" x1="11.6" x2="13.02" y1="16.32" y2="3.327" gradientUnits="userSpaceOnUse">
   <stop stop-color="#b400cf" offset="0"/>
   <stop stop-color="#339dff" offset="1"/>
  </linearGradient>
 </defs>
 <path transform="translate(0) scale(.3438) translate(0 .00013) scale(1) translate(1e-6) scale(2.909) translate(0 -4.7e-5) scale(1) translate(-.001845 -.002229) scale(.9996) translate(-1.831 -1.192) scale(1.109)" d="M20.51 14.54a8.88 8.88 0 0 0-2.032-8.37 1.658 1.658 0 0 0-.51-2.007c-3.68-2.8-9.004-2.802-12.68 0a1.65 1.65 0 0 0-.51 2.006 8.89 8.89 0 0 0-2.049 8.304 1.665 1.665 0 0 0-.676 1.978l.772 2.098a1.695 1.695 0 0 0 2.168 1l.634-.228c.158.19.346.352.578.458a1.7 1.7 0 0 0 2.248-.81c.191-.405.211-.86.056-1.28l-1.543-4.194a1.67 1.67 0 0 0-.875-.945c-.41-.189-.869-.21-1.293-.056-.424.153-.764.46-.955.866-.064.136-.102.279-.127.423a7.8 7.8 0 0 1 1.848-6.81c.67.333 1.324.199 1.787-.155 2.465-1.878 6.091-1.878 8.556 0 .514.392 1.222.424 1.786.154a7.78 7.78 0 0 1 1.774 7.11l-.005-.001a1.65 1.65 0 0 0-.153-.721 1.704 1.704 0 0 0-2.249-.81c-.41.189-.72.525-.875.945l-1.543 4.195c-.155.42-.135.874.056 1.28a1.696 1.696 0 0 0 2.249.81c.23-.107.419-.27.577-.46l.634.23a1.695 1.695 0 0 0 2.168-1.001l.772-2.098a1.66 1.66 0 0 0-.587-1.911zm-15.33-.998a.565.565 0 0 1 .723.334l1.543 4.195a.557.557 0 0 1-.337.715h-.001a.565.565 0 0 1-.723-.333l-1.543-4.195a.556.556 0 0 1 .338-.716zm-1.204 1.621 1.157 3.147-.53.191a.57.57 0 0 1-.723-.334L3.11 16.07a.557.557 0 0 1 .337-.715zm13.41-9.332a.58.58 0 0 1-.79.102c-2.87-2.185-7.062-2.185-9.933 0a.567.567 0 0 1-.79-.102.554.554 0 0 1 .103-.782c1.638-1.247 3.638-1.87 5.6-1.87s4.07.623 5.708 1.87a.554.554 0 0 1 .102.782zm-.623 12.62a.566.566 0 0 1-.723.334.557.557 0 0 1-.337-.716l1.543-4.195a.565.565 0 0 1 .723-.333.557.557 0 0 1 .337.715zm3.277-2.383-.772 2.098a.564.564 0 0 1-.722.334l-.53-.19 1.157-3.148.507.183q.003.001.007.003l.007.001.009.004a.557.557 0 0 1 .337.715z" fill="url(#a)" stroke="url(#a)" stroke-width=".6"/>
</svg>
