<svg version="1.1" viewBox="0 0 22 22" xmlns="http://www.w3.org/2000/svg" xmlns:xlink="http://www.w3.org/1999/xlink">
 <defs>
  <linearGradient id="c" x1=".06474" x2="22" y1="21.97" y2=".033" gradientTransform="translate(-.004771 -.0024)" gradientUnits="userSpaceOnUse">
   <stop stop-color="#ff001e" offset="0"/>
   <stop stop-color="#ff004b" offset="1"/>
  </linearGradient>
  <linearGradient id="a" y1=".5" y2=".5">
   <stop stop-color="#d800bd" offset="0"/>
   <stop stop-color="#f92d7a" offset=".408"/>
   <stop stop-color="#ff4a52" offset=".59"/>
   <stop stop-color="#ffb243" offset="1"/>
  </linearGradient>
  <linearGradient id="b" x1=".06474" x2="22" y1="21.97" y2=".033" gradientTransform="translate(-.07374 -.00105)" gradientUnits="userSpaceOnUse" xlink:href="#c"/>
  <linearGradient id="d" x1="21.16" x2="33.22" y1="7.363" y2="7.363" gradientTransform="matrix(-.6548 0 0 1.46 21.75 .2482)" gradientUnits="userSpaceOnUse" xlink:href="#a"/>
  <linearGradient id="f" x1="-.2842" x2="15.56" y1="9.586" y2="9.586" gradientTransform="matrix(-.8523 0 0 1.122 21.75 .2482)" gradientUnits="userSpaceOnUse" xlink:href="#a"/>
  <linearGradient id="e" x1=".06474" x2="22" y1="21.97" y2=".033" gradientTransform="matrix(-1 0 0 1 22 -.00105)" gradientUnits="userSpaceOnUse" xlink:href="#c"/>
 </defs>
 <path transform="translate(0) scale(1) translate(0) scale(1) translate(0) scale(1) translate(0) scale(1) translate(0) scale(1) translate(0) scale(1) translate(0) scale(1) translate(.00027 .001) scale(1) translate(0) scale(1)" d="m4.398 2.189a0.2444 0.2444 0 0 1 0.00391 0.00196c0.06383 3.33e-4 0.1078 0.06019 0.1699 0.07031 0.2537 0.04125 0.5086 0.1078 0.6914 0.2929 0.4724 0.4773 0.468 1.255-0.00978 1.727-1.797 1.775-2.811 4.195-2.814 6.72 0.00244 2.527 1.016 4.945 2.814 6.72 0.1142 0.1125 0.2052 0.247 0.2676 0.3945 0.2494 0.5955-0.00724 1.189-0.4433 1.484-0.4361 0.2949-1.081 0.3106-1.541-0.1426-2.264-2.242-3.537-5.283-3.537-8.457 0.002053-3.179 1.276-6.226 3.537-8.459 0.2293-0.2271 0.5386-0.3524 0.8613-0.3515zm2.193 3.687c0.3517 0.00631 0.6871 0.1514 0.9316 0.4043 0.5087 0.5253 0.496 1.371-0.0293 1.879a0.2444 0.2444 0 0 1-0.00196 0c-0.7752 0.742-1.214 1.767-1.218 2.84 0.00469 1.073 0.4441 2.096 1.218 2.838 0.2558 0.2449 0.4039 0.5835 0.4102 0.9375 0.00939 0.5822-0.3457 1.043-0.8028 1.242-0.4571 0.1985-1.035 0.1398-1.453-0.2657-1.295-1.252-2.031-2.961-2.031-4.752a0.2444 0.2444 0 0 1 0-2e-3c0.004791-1.793 0.7379-3.506 2.031-4.748 0.2533-0.2444 0.5934-0.3791 0.9453-0.373z" fill="url(#d)" opacity=".3" stroke-width=".9778"/>
 <path transform="translate(0) scale(1) translate(0) scale(1) translate(0) scale(1) translate(0) scale(1) translate(0) scale(1) translate(0) scale(1) translate(0) scale(1) translate(.00027 .001) scale(1) translate(0) scale(1)" d="m11.9 2.116c0.1632-0.00388 0.3268 0.00399 0.4889 0.02292 1.015 0.1164 1.719 0.7288 2.03 1.008 0.3634 0.3263 0.7662 0.7562 1.178 1.196l1.13 1.209h1.182c0.2556 0 0.5622 9.74e-5 0.8441 0.02292 0.4521 0.02944 0.8979 0.1443 1.308 0.3438a0.2444 0.2444 0 0 1 0.0019 0c0.6762 0.3391 1.224 0.891 1.563 1.568 0.2529 0.5057 0.3234 0.9837 0.3495 1.308a0.2444 0.2444 0 0 1 0 0.00573c0.01918 0.2977 0.02588 0.5955 0.021 0.8938v2.669c0 0.2544 0.0019 0.5611-0.021 0.8441-0.02611 0.3246-0.09522 0.8041-0.3495 1.31-0.3379 0.6767-0.8859 1.225-1.563 1.564-0.5057 0.2529-0.9856 0.3214-1.31 0.3476-0.2831 0.02292-0.5907 0.02292-0.8441 0.02292h-1.184l-1.074 1.146-0.05538 0.05921c-0.4118 0.439-0.8147 0.8709-1.178 1.198-0.3101 0.2801-1.015 0.8945-2.032 1.01-1.158 0.1315-2.305-0.3216-3.06-1.209-0.6623-0.7805-0.7562-1.712-0.7926-2.128-0.04159-0.4867-0.04011-1.075-0.04011-1.677v-7.698c0-0.6029-0.00147-1.192 0.04011-1.679 0.03631-0.4136 0.1287-1.347 0.7926-2.128 0.643-0.757 1.578-1.205 2.571-1.232a0.2444 0.2444 0 0 1 2e-3 0zm0.06845 2.658c-0.2374 0.00736-0.4611 0.113-0.6149 0.2941a0.2444 0.2444 0 0 1-2e-3 0c-0.07142 0.08403-0.137 0.2764-0.1681 0.6321-0.03104 0.3557-0.03246 0.8592-0.03246 1.531v7.538c0 0.6721 0.0015 1.172 0.03246 1.527 0.03104 0.3552 0.09827 0.5495 0.1699 0.634 0.1809 0.2134 0.4554 0.3231 0.7334 0.2922 0.1108-0.0127 0.2923-0.1096 0.5577-0.3476 0.2655-0.238 0.6098-0.6033 1.07-1.094h-0.0019l1.276-1.367a0.2444 0.2444 0 0 1 0.0019 0c0.1875-0.1984 0.2916-0.3129 0.4316-0.4068a0.2444 0.2444 0 0 1 0.0019-2e-3c0.1253-0.08106 0.2643-0.1386 0.4087-0.1738 0.1677-0.04155 0.3232-0.03819 0.5959-0.03819h1.431c0.597 0 0.8634-0.01355 1.014-0.08976a0.2444 0.2444 0 0 1 0.0019-2e-3c0.1626-0.08111 0.293-0.2116 0.3743-0.3742 0.07651-0.1538 0.08976-0.4166 0.08976-1.012v-2.628c0-0.5973-0.01311-0.8567-0.08976-1.01a0.2444 0.2444 0 0 1 0-0.00191c-0.08073-0.1638-0.2131-0.2961-0.3762-0.3781-0.152-0.07517-0.419-0.08594-1.014-0.08594h-1.431c-0.2716 0-0.4279 0.00345-0.5959-0.03819-0.1441-0.03653-0.2827-0.09768-0.4068-0.1795l-0.0019-0.00191c-0.1417-0.09207-0.2454-0.2048-0.4316-0.4029a0.2444 0.2444 0 0 1-0.0019 0l-1.278-1.367c-0.4598-0.4912-0.8022-0.856-1.068-1.094-0.2648-0.2378-0.445-0.3344-0.5558-0.3476-0.03929-0.00426-0.07891-0.00512-0.1184-0.00382a0.2444 0.2444 0 0 1-2e-3 -0.00191z" fill="url(#f)" opacity=".8" stroke-width=".9778"/>
 <path transform="translate(0) scale(1) translate(0) scale(1) translate(0) scale(1) translate(0) scale(1) translate(0) scale(1) translate(0) scale(1) translate(0) scale(1) translate(.00027 .001) scale(1) translate(0) scale(1)" d="m1.398 0.03195a1.4 1.4 0 0 1 0.986 0.408l19.14 19.14a1.396 1.396 0 0 1 0 1.975 1.396 1.396 0 0 1-1.975 0l-19.14-19.14a1.396 1.396 0 0 1 0-1.975 1.4 1.4 0 0 1 0.989-0.408" fill="url(#e)"/>
 <path transform="translate(0) scale(1) translate(0) scale(1) translate(0) scale(1) translate(0) scale(1) translate(0) scale(1) translate(0) scale(1) translate(0) scale(1) translate(.00027 .001) scale(1) translate(0) scale(1)" d="m20.54 0.03195a1.4 1.4 0 0 0-0.986 0.408l-19.14 19.14a1.396 1.396 0 0 0 0 1.975 1.396 1.396 0 0 0 1.975 0l19.14-19.14a1.396 1.396 0 0 0 0-1.975 1.4 1.4 0 0 0-0.989-0.408" fill="url(#b)"/>
</svg>
