<svg version="1.1" viewBox="0 0 22 22" xmlns="http://www.w3.org/2000/svg">
 <path transform="translate(.001708 .0011) scale(1) translate(.004162 6e-4) scale(1)" d="m12.16 2.347c0.1589-0.00378 0.3168 0.00307 0.4746 0.02148 0.988 0.1133 1.672 0.7103 1.975 0.9822 0.3537 0.3176 0.7451 0.7365 1.147 1.164l1.102 1.176h1.151c0.2488 0 0.5498-7.286e-4 0.8242 0.02148 0.4401 0.02866 0.8717 0.1398 1.271 0.334a0.2379 0.2379 0 0 1 2e-3 0c0.6582 0.3301 1.192 0.8683 1.521 1.527 0.2462 0.4922 0.3144 0.957 0.3398 1.273a0.2379 0.2379 0 0 1 0 0.00586c0.01867 0.2898 0.02428 0.5807 0.01953 0.8711v2.598c0 0.2476 0.0028 0.5467-0.01953 0.8222-0.02541 0.316-0.09237 0.7832-0.3398 1.275-0.3289 0.6587-0.8634 1.193-1.521 1.523-0.4922 0.2462-0.957 0.3123-1.273 0.3379-0.2756 0.02231-0.5775 0.02148-0.8242 0.02148h-1.153l-1.044 1.116-0.05274 0.05664c-0.4008 0.4273-0.7923 0.848-1.147 1.166-0.3019 0.2726-0.989 0.8717-1.979 0.9841-1.127 0.128-2.245-0.3143-2.979-1.178-0.6447-0.7597-0.7361-1.665-0.7715-2.07-0.04048-0.4737-0.03711-1.045-0.03711-1.632v-7.492c0-0.5869-0.00331-1.16 0.03711-1.634 0.03534-0.4026 0.1252-1.311 0.7715-2.07 0.6259-0.7369 1.536-1.173 2.502-1.199a0.2379 0.2379 0 0 1 0.0019 0zm-7.885 0.07226a0.2379 0.2379 0 0 1 0.00389 0.00196c0.06213 3.242e-4 0.1055 0.05851 0.1661 0.06836 0.247 0.04015 0.4939 0.1048 0.6718 0.2851 0.4598 0.4646 0.4554 1.22-0.00976 1.68-1.749 1.728-2.734 4.084-2.736 6.543 0.00234 2.46 0.9861 4.814 2.736 6.543 0.1112 0.1095 0.201 0.2393 0.2617 0.3828 0.2428 0.5797-0.00701 1.158-0.4316 1.445-0.4245 0.2871-1.052 0.3024-1.5-0.1387-2.204-2.182-3.443-5.142-3.443-8.232 0.002044-3.094 1.242-6.06 3.443-8.234 0.2232-0.2211 0.5238-0.3425 0.8379-0.3418zm7.953 2.513a0.2379 0.2379 0 0 1-0.0019 0c-0.2311 0.00716-0.4499 0.1109-0.5996 0.2872a0.2379 0.2379 0 0 1-0.0019 0c-0.06952 0.0818-0.1318 0.269-0.1621 0.6152-0.03021 0.3462-0.0332 0.8363-0.0332 1.49v7.337c0 0.6542 3e-3 1.141 0.0332 1.486 0.03021 0.3458 0.09432 0.535 0.164 0.6172 0.1761 0.2077 0.4423 0.3132 0.7129 0.2832 0.1079-0.01236 0.2865-0.1062 0.5449-0.3379 0.1577-0.1414 0.344-0.3294 0.5664-0.5625 0.03017 0.04054 0.06161 0.08078 0.0957 0.1191 0.315 0.3543 0.8073 0.586 1.379 0.586 0.5716 0 1.064-0.2317 1.379-0.586 0.3149-0.3543 0.4609-0.8078 0.4609-1.254 0-0.4461-0.146-0.8996-0.4609-1.254-0.01427-0.01606-0.02949-0.03202-0.04492-0.04688 0.08613-0.0032 0.1845-0.0019 0.3066-0.0019h1.391c0.5811 0 0.8433-0.01371 0.9899-0.08789a0.2379 0.2379 0 0 1 2e-3 -0.0019c0.1583-0.07895 0.2842-0.205 0.3633-0.3633 0.07448-0.1497 0.08594-0.4045 0.08594-0.9841v-2.561c0-0.5814-0.01133-0.8329-0.08594-0.9822a0.2379 0.2379 0 0 1 0-0.00196c-0.07878-0.1594-0.2066-0.2893-0.3654-0.3691-0.148-0.07317-0.4107-0.08398-0.9899-0.08398h-0.2461c0.0081-0.1163 0.01172-0.231 0.01172-0.3437-2.43e-4 -1.466-1.145-2.69-2.608-2.789-0.1006-0.00687-0.2004-0.0077-0.2988-0.0039-0.5662 0.02178-1.092 0.2156-1.527 0.5313-0.1525-0.158-0.2865-0.2905-0.4043-0.3965-0.2578-0.2315-0.4352-0.325-0.543-0.3379-0.03824-0.00415-0.07482-0.00517-0.1133-0.0039zm-5.627 1.075c0.3423 0.00614 0.6682 0.1482 0.9062 0.3945 0.4951 0.5113 0.484 1.333-0.02734 1.828a0.2379 0.2379 0 0 1-0.00195 0c-0.7546 0.7223-1.184 1.721-1.188 2.765 0.00457 1.044 0.4333 2.04 1.188 2.762 0.249 0.2384 0.3923 0.5674 0.3984 0.9121 0.00915 0.5667-0.3363 1.016-0.7813 1.209-0.4449 0.1932-1.008 0.1369-1.414-0.2579-1.261-1.219-1.977-2.883-1.977-4.627a0.2379 0.2379 0 0 1 0-0.0019c0.00477-1.745 0.718-3.412 1.977-4.621 0.2467-0.2379 0.5774-0.3692 0.92-0.3633z" fill="#f00" stroke-width=".9734"/>
 <path transform="translate(.001708 .0011) scale(1) translate(.004162 6e-4) scale(1)" d="m15.08 5.643a2.297 2.297 0 0 1 2.141 2.291c0 1.348-0.7592 3.269-1.209 4.285-0.1895 0.4287-0.6182 0.6914-1.088 0.6914-0.4697 0-0.8988-0.2629-1.088-0.6914-0.4494-1.016-1.209-2.936-1.209-4.285a2.297 2.297 0 0 1 2.453-2.291zm-0.1562 8.033a1.34 1.34 0 0 1 0 2.68 1.34 1.34 0 0 1 0-2.68z" fill="#ff8000" stroke-width=".3828"/>
</svg>
