<svg version="1.1" viewBox="0 0 22 22" xmlns="http://www.w3.org/2000/svg">
 <defs>
  <linearGradient id="a" x1="1" x2="0" y1=".5" y2=".5">
   <stop stop-color="#f71252" offset="0"/>
   <stop stop-color="#ff5c39" offset="1"/>
  </linearGradient>
 </defs>
 <path transform="translate(-.007607 -.001365) scale(.3438) translate(.005842 .005264) scale(2.909)" d="m18.68 2.272v0.00195c-0.882 0.01174-1.392 1.006-0.8867 1.728 1.24 1.782 2.014 4.224 2.014 6.992s-0.7734 5.207-2.014 6.99c-0.8373 1.203 0.9666 2.46 1.805 1.258 1.524-2.191 2.408-5.081 2.408-8.25 0-3.166-0.8843-6.055-2.408-8.25-0.2085-0.3-0.553-0.4758-0.918-0.4707zm-10.45 1.418v0.0039c-0.8779-0.01029-1.249 0.2802-1.732 0.6895l-2.527 2.06h-1.207c-1.41 0-2.458 1.195-2.629 2.42l-0.003906 0.01758c-0.1587 1.273-0.1771 3.178 0.003906 4.48 0.08023 0.6488 0.3316 1.277 0.8027 1.748 0.4732 0.4738 1.154 0.7324 1.824 0.7324h1.209l2.59 2.106c0.4638 0.3899 0.9091 0.6546 1.672 0.6445 1.15 0.01514 2.119-0.8318 2.441-1.91l0.0098-0.0332c0.168-0.6267 0.1794-1.144 0.2266-1.535 0.1974-1.577 0.1974-6.362 0-7.94-0.04934-0.4056-0.06966-0.9383-0.2246-1.531l-0.01172-0.04102c-0.3234-1.078-1.291-1.928-2.443-1.912zm7.248 0.1035v0.00195a0.9085 0.9085 0 0 0-0.7344 1.428c1.024 1.473 1.666 3.492 1.666 5.779s-0.6411 4.303-1.666 5.777a0.9092 0.9092 0 0 0 1.492 1.039c1.26-1.811 1.99-4.198 1.99-6.816 0-2.617-0.7313-5.005-1.99-6.818a0.9085 0.9085 0 0 0-0.7578-0.3906zm-7.209 2.316v0.00586h0.00195v0.00195h0.00195v0.00195h0.00195v0.00195c-0.01658-0.00227-0.02128-0.00762-0.04102-0.00977a1.211 1.211 0 0 0 0.03516-0.00195zm0.02539 0.05469h0.00195v0.00195c0.00555 0.00794 0.01864 0.03342 0.04883 0.1152 0.06419 0.2565 0.1029 0.6913 0.1641 1.191v0.00391c0.07024 0.5619 0.07024 6.773 0 7.336v0.0039c-0.06298 0.5162-0.08401 0.888-0.1621 1.19-0.02695 0.07569-0.05337 0.1186-0.07031 0.1426 0.00909 0.0034 0.02035 0.0084 0.02539 0.01172h0.00195v2e-3h0.00195v0.0039h-0.00195v2e-3a0.1211 0.1211 0 0 1-0.04687 0.00773v-2e-3l0.00195-2e-3c0.00354-0.0046 0.00917-0.01163 0.01758-0.02344-0.04547-0.01642-0.1355-0.0383-0.1562-0.05273l-0.01367-0.01358-2.941-2.389a1.211 1.211 0 0 0-0.7637-0.2715h-1.639c-0.06395 0-0.08893-3e-3 -0.09961-0.0078l-0.00391-0.0039c-0.00303-0.0036-0.00658-0.0062-0.01172-0.01172-0.01726-0.01726-0.08317-0.1006-0.1113-0.3359l-0.00195-0.02148c-0.1242-0.8796-0.1175-2.895 0-3.848 0.04239-0.301 0.06077-0.3262 0.2285-0.3262h1.639a1.211 1.211 0 0 0 0.7656-0.2715l2.879-2.348 0.01758-0.01172c0.00757-0.00605 0.1534-0.04004 0.2305-0.07031zm4.504 0.01953a0.9085 0.9085 0 0 0-0.7324 1.428c0.5912 0.8506 0.9727 2.032 0.9727 3.391 0 1.358-0.3807 2.54-0.9727 3.393a0.9086 0.9086 0 0 0 1.492 1.037c0.8265-1.188 1.295-2.742 1.295-4.428s-0.4694-3.241-1.295-4.428a0.9085 0.9085 0 0 0-0.7578-0.3887zm-4.543 9.996h0.001953v2e-3h0.00195v2e-3a1.211 1.211 0 0 0-0.05273-2e-3c0.02044-4.01e-4 0.03535-6.8e-4 0.04883-2e-3z" fill="url(#a)"/>
</svg>
