<svg version="1.1" viewBox="0 0 22 22" xmlns="http://www.w3.org/2000/svg">
 <defs>
  <linearGradient id="a" y1=".5" y2=".5">
   <stop stop-color="#ff0061" offset="0"/>
   <stop stop-color="#ff3800" offset="1"/>
  </linearGradient>
 </defs>
 <path transform="translate(0) scale(1) translate(0) scale(1) translate(0) scale(1) translate(0) scale(1) translate(0) scale(1) translate(0) scale(1) translate(0) scale(1) translate(.000358 .00055) scale(1) translate(-.000351 -.00176) scale(1) translate(-.002818 .2914) scale(.9734)" d="m10.1 2.114c-0.1632-0.003882-0.3255 0.003146-0.4876 0.02207-1.015 0.1164-1.718 0.7297-2.029 1.009-0.3634 0.3263-0.7655 0.7566-1.178 1.196l-1.132 1.208h-1.182c-0.2556 0-0.5648-7.486e-4 -0.8467 0.02207-0.4521 0.02944-0.8955 0.1436-1.306 0.3431a0.2444 0.2444 0 0 0-0.002006 0c-0.6762 0.3391-1.225 0.892-1.563 1.569-0.2529 0.5057-0.323 0.9832-0.3491 1.308a0.2444 0.2444 0 0 0 0 0.00602c-0.01918 0.2977-0.02494 0.5966-0.02006 0.8949v2.669c0 0.2544-0.002834 0.5616 0.02006 0.8447 0.02611 0.3246 0.09489 0.8046 0.3491 1.31 0.3379 0.6767 0.887 1.226 1.563 1.565 0.5057 0.2529 0.9832 0.3208 1.308 0.3471 0.2831 0.02292 0.5933 0.02207 0.8467 0.02207h1.184l1.073 1.146 0.05418 0.05819c0.4118 0.439 0.814 0.8712 1.178 1.198 0.3101 0.2801 1.016 0.8955 2.033 1.011 1.158 0.1315 2.306-0.3229 3.06-1.21 0.6623-0.7805 0.7562-1.711 0.7926-2.127 0.04159-0.4866 0.03812-1.074 0.03812-1.677v-7.697c0-0.6029 0.003437-1.192-0.03812-1.679-0.03631-0.4136-0.1286-1.347-0.7926-2.127-0.643-0.757-1.578-1.205-2.57-1.232a0.2444 0.2444 0 0 0-0.002006 0h-0.002007zm8.1 0.07424a0.2444 0.2444 0 0 0-0.004013 0.002006c-0.06383 3.331e-4 -0.1084 0.06011-0.1706 0.07023-0.2537 0.04125-0.5074 0.1077-0.6902 0.2929-0.4724 0.4773-0.4678 1.253 0.01003 1.726 1.797 1.775 2.809 4.196 2.811 6.722-0.0024 2.527-1.013 4.946-2.811 6.722-0.1142 0.1125-0.2065 0.2458-0.2689 0.3933-0.2494 0.5955 0.007236 1.19 0.4434 1.485 0.4361 0.2949 1.081 0.3107 1.541-0.1425 2.264-2.242 3.537-5.283 3.537-8.457-0.002083-3.179-1.276-6.226-3.537-8.459-0.2293-0.2271-0.5381-0.3519-0.8608-0.3511v-0.002006zm-8.17 2.582a0.2444 0.2444 0 0 0 0.002006 0c0.2374 0.00736 0.4622 0.1139 0.616 0.295a0.2444 0.2444 0 0 0 0.002007 0c0.07142 0.08403 0.1354 0.2763 0.1665 0.632 0.03104 0.3557 0.03411 0.8592 0.03411 1.531v7.538c0 0.6721-0.00311 1.172-0.03411 1.527-0.03104 0.3552-0.0969 0.5496-0.1685 0.6341-0.1809 0.2134-0.4544 0.3218-0.7324 0.2909-0.1108-0.0127-0.2943-0.1091-0.5598-0.3471s-0.6079-0.6024-1.067-1.094h0.002006l-1.276-1.368a0.2444 0.2444 0 0 0-0.002006 0c-0.1876-0.1984-0.2914-0.3115-0.4314-0.4053a0.2444 0.2444 0 0 0-0.002006-0.002006c-0.1253-0.08101-0.2649-0.1394-0.4093-0.1746-0.1677-0.04155-0.3232-0.03812-0.5959-0.03812h-1.429c-0.597 0-0.8663-0.01408-1.017-0.09029a0.2444 0.2444 0 0 0-0.002006-0.002006c-0.1626-0.08111-0.292-0.2106-0.3732-0.3732-0.07651-0.1538-0.08829-0.4156-0.08829-1.011v-2.631c0-0.5973 0.01164-0.8557 0.08829-1.009a0.2444 0.2444 0 0 0 0-0.002006c0.08079-0.1638 0.2121-0.2972 0.3752-0.3792 0.152-0.07517 0.4219-0.08628 1.017-0.08628h1.429c0.2716 0 0.4279 0.005533 0.5959-0.03612 0.1441-0.03653 0.2833-0.09873 0.4073-0.1806l0.002006-0.002006c0.1417-0.09208 0.2453-0.2031 0.4314-0.4013a0.2444 0.2444 0 0 0 0.002006 0l1.278-1.366c0.4598-0.4912 0.8003-0.8591 1.065-1.098 0.2648-0.2378 0.4471-0.3339 0.5578-0.3471 0.03929-0.00426 0.07686-0.005313 0.1164-0.004013zm5.781 1.104c-0.3517 0.00631-0.6865 0.1523-0.931 0.4053-0.5086 0.5253-0.4972 1.369 0.02809 1.878a0.2444 0.2444 0 0 0 0.002006 0c0.7752 0.742 1.216 1.768 1.22 2.841-0.0047 1.073-0.4451 2.096-1.22 2.837-0.2558 0.2449-0.403 0.5829-0.4093 0.937-0.0094 0.5822 0.3455 1.044 0.8026 1.242 0.4571 0.1985 1.036 0.1406 1.453-0.2649 1.295-1.252 2.031-2.962 2.031-4.753a0.2444 0.2444 0 0 0 0-0.002007c-0.00489-1.793-0.7376-3.505-2.031-4.747-0.2534-0.2444-0.5932-0.3793-0.9451-0.3732z" fill="url(#a)"/>
</svg>
