<svg version="1.1" viewBox="0 0 22 22" xmlns="http://www.w3.org/2000/svg">
 <defs>
  <linearGradient id="a" x1="20.04" x2=".002887" y1="12.4" y2="12.4" gradientTransform="matrix(-1.098 0 0 .8633 22 .2914)" gradientUnits="userSpaceOnUse">
   <stop stop-color="#fe0844" offset="0"/>
   <stop stop-color="#fee502" offset="1"/>
  </linearGradient>
 </defs>
 <path transform="translate(1e-6) scale(1) translate(-.003794 -.00034) scale(1) translate(-.000351 -.00176) scale(1)" d="m12.17 2.35c0.1589-0.00378 0.3168 0.00306 0.4746 0.02148 0.988 0.1133 1.672 0.7103 1.975 0.9824 0.3537 0.3176 0.7452 0.7364 1.146 1.164l1.102 1.176h1.15c0.2488 0 0.5498-7.287e-4 0.8242 0.02148 0.4401 0.02866 0.8717 0.1398 1.271 0.334a0.2379 0.2379 0 0 1 2e-3 0c0.6582 0.3301 1.192 0.8683 1.521 1.527 0.2462 0.4922 0.3144 0.9571 0.3398 1.273a0.2379 0.2379 0 0 1 0 0.00586c0.01867 0.2898 0.02428 0.5807 0.01953 0.8711v2.598c0 0.2476 0.0028 0.5467-0.01953 0.8223-0.02541 0.316-0.09237 0.7832-0.3398 1.275-0.3289 0.6587-0.8634 1.193-1.521 1.523-0.4922 0.2462-0.9571 0.3123-1.273 0.3379-0.2756 0.02231-0.5776 0.02148-0.8242 0.02148h-1.152l-1.045 1.115-0.05273 0.05664c-0.4008 0.4273-0.7924 0.848-1.146 1.166-0.3019 0.2726-0.9886 0.8717-1.979 0.9844-1.127 0.128-2.245-0.3143-2.979-1.178-0.6447-0.7597-0.7361-1.665-0.7715-2.07-0.04048-0.4737-0.03711-1.046-0.03711-1.633v-7.492c0-0.5869-0.00335-1.161 0.03711-1.635 0.03534-0.4026 0.1251-1.311 0.7715-2.07 0.6259-0.7369 1.536-1.173 2.502-1.199a0.2379 0.2379 0 0 1 2e-3 0zm-7.885 0.07227a0.2379 0.2379 0 0 1 0.00391 0.00195c0.06213 3.242e-4 0.1055 0.05851 0.166 0.06836 0.2469 0.04016 0.4939 0.1049 0.6719 0.2852 0.4598 0.4646 0.4553 1.219-0.009766 1.68-1.749 1.728-2.734 4.084-2.736 6.543 0.00234 2.46 0.9862 4.814 2.736 6.543 0.1112 0.1095 0.201 0.2392 0.2617 0.3828 0.2428 0.5797-0.00704 1.158-0.4316 1.445-0.4245 0.2871-1.052 0.3025-1.5-0.1387-2.204-2.182-3.443-5.143-3.443-8.232 0.002028-3.094 1.243-6.061 3.443-8.234 0.2232-0.2211 0.5238-0.3426 0.8379-0.3418zm7.953 2.514a0.2379 0.2379 0 0 1-2e-3 0c-0.2311 0.00716-0.4499 0.1108-0.5996 0.2871a0.2379 0.2379 0 0 1-2e-3 0c-0.06952 0.0818-0.1318 0.269-0.1621 0.6152-0.03022 0.3462-0.0332 0.8363-0.0332 1.49v7.338c0 0.6542 3e-3 1.141 0.0332 1.486 0.03021 0.3458 0.09432 0.5349 0.1641 0.6172 0.1761 0.2077 0.4423 0.3133 0.7129 0.2832 0.1079-0.01236 0.2865-0.1062 0.5449-0.3379s0.5917-0.5864 1.039-1.064h-2e-3l1.242-1.332a0.2379 0.2379 0 0 1 2e-3 0c0.1826-0.1931 0.2836-0.3032 0.4199-0.3945a0.2379 0.2379 0 0 1 2e-3 -2e-3c0.122-0.07886 0.2579-0.1357 0.3984-0.1699 0.1632-0.04045 0.3146-0.03711 0.5801-0.03711h1.391c0.5811 0 0.8433-0.01371 0.9902-0.08789a0.2379 0.2379 0 0 1 2e-3 -2e-3c0.1583-0.07895 0.2842-0.205 0.3633-0.3633 0.07447-0.1497 0.08594-0.4045 0.08594-0.9844v-2.56c0-0.5814-0.01133-0.8329-0.08594-0.9824a0.2379 0.2379 0 0 1 0-0.00195c-0.07864-0.1594-0.2065-0.2893-0.3652-0.3691-0.148-0.07317-0.4107-0.08398-0.9902-0.08398h-1.391c-0.2644 0-0.4165 0.00539-0.5801-0.03516-0.1403-0.03556-0.2758-0.09611-0.3965-0.1758l-2e-3 -0.00195c-0.1379-0.08963-0.2387-0.1977-0.4199-0.3906a0.2379 0.2379 0 0 1-2e-3 0l-1.244-1.33c-0.4476-0.4781-0.779-0.8362-1.037-1.068-0.2578-0.2315-0.4352-0.325-0.543-0.3379-0.03825-0.00415-0.07481-0.00517-0.1133-0.00391zm-5.627 1.074c0.3423 0.00614 0.6683 0.1483 0.9062 0.3945 0.4951 0.5113 0.484 1.333-0.02734 1.828a0.2379 0.2379 0 0 1-0.00195 0c-0.7546 0.7223-1.184 1.721-1.188 2.766 0.00457 1.044 0.4332 2.04 1.188 2.762 0.249 0.2384 0.3923 0.5674 0.3984 0.9121 0.00915 0.5667-0.3363 1.016-0.7812 1.209-0.4449 0.1932-1.008 0.1369-1.414-0.2578-1.261-1.219-1.977-2.884-1.977-4.627a0.2379 0.2379 0 0 1 0-2e-3c0.00476-1.745 0.718-3.412 1.977-4.621 0.2467-0.2379 0.5774-0.3692 0.9199-0.3633z" fill="url(#a)" stroke-width=".9734"/>
</svg>
