<svg xmlns="http://www.w3.org/2000/svg" viewBox="0 0 22 22"><defs><linearGradient id="a" x1="-1" x2="8.5" y1="14" y2="2" gradientUnits="userSpaceOnUse"><stop offset="0" stop-color="#e5f230"/><stop offset="1" stop-color="#24d864"/></linearGradient><linearGradient id="b" x1="6.991" x2="11.5" y1="10.91" y2="7" gradientUnits="userSpaceOnUse"><stop offset="0" stop-color="#e5f230"/><stop offset="1" stop-color="#24d864"/></linearGradient></defs><g style="color:#ddd"><path fill="url(#a)" d="M2.598 5A.596.596 0 0 0 2 5.598v4.805c0 .33.267.597.598.597h4.371l.25-1H5.5a1 1 0 0 1-.832-1.555L6.965 5zm7.434 0-.25 1h1.719a1 1 0 0 1 .832 1.555L10.036 11h3.367a.596.596 0 0 0 .598-.598V5.597A.596.596 0 0 0 13.403 5z" transform="translate(1 3)scale(.99995)"/><path fill="url(#b)" d="M8.834 4 5.5 9h3l-.75 3h.416L11.5 7h-3l.75-3z" style="-inkscape-stroke:none" transform="translate(1 3)scale(.99995)"/><path fill="url(#a)" d="M2 2C.892 2-1 3.892-1 5v6c0 1.108 1.892 3 3 3h13c1.108 0 3-1.892 3-3V5c0-1.108-1.892-3-3-3zm0 2h13c.554 0 1 .446 1 1v6c0 .554-.446 1-1 1H2c-.554 0-1-.446-1-1V5c0-.554.446-1 1-1m17 2v4a2 2 0 1 0 0-4" transform="translate(1 3)scale(.99995)"/></g></svg>