<svg version="1.1" viewBox="0 0 22 22" xmlns="http://www.w3.org/2000/svg">
 <defs>
  <linearGradient id="a" y1="1">
   <stop stop-color="#f00" offset="0"/>
   <stop stop-color="#ffa500" offset=".5"/>
   <stop stop-color="#ff0" offset="1"/>
  </linearGradient>
  <linearGradient id="b" x2="0" y1="1">
   <stop stop-color="#ff0" offset="0"/>
   <stop stop-color="#ffc200" offset="1"/>
  </linearGradient>
 </defs>
 <path transform="translate(.0015) scale(1)" d="m8.51 15.1a0.5 0.5 0 0 0-0.5 0.5v0.3008 1.301 1.301a0.5 0.5 0 0 0 0.5 0.5h5a0.5 0.5 0 0 0 0.5-0.5v-0.3008-1.301-1.301a0.5 0.5 0 0 0-0.5-0.5h-1.619c-0.3175 0.4005-0.6299 0.7954-0.9375 1.184-0.08134 0.1042-0.1819 0.1851-0.2891 0.2422-0.1071 0.05713-0.229 0.09567-0.3652 0.1055-0.1422 0.0091-0.2828-0.01497-0.4102-0.06836-0.1238-0.05192-0.2334-0.1302-0.3223-0.2285-0.08747-0.09674-0.1554-0.2131-0.1953-0.3438-0.03957-0.1295-0.05107-0.2711-0.02734-0.4141l0.07812-0.4766h-0.9121z" fill="url(#a)"/>
 <path transform="translate(.0015) scale(1) translate(.003 .000955)" d="m11.06 0c-0.06667-0.002076-0.1331-7.658e-4 -0.2012 0.003906-0.982 0.06742-1.758 0.8383-1.854 1.799-0.01088 0.1099 0.07905 0.1992 0.1894 0.1992h3.6c0.1105 0 0.2022-0.08936 0.1914-0.1992-0.09811-0.996-0.9255-1.772-1.926-1.803zm-3.064 3c-1.108 0-3 1.892-3 3v13c0 1.108 1.892 3 3 3h6c1.108 0 3-1.892 3-3v-13c0-1.108-1.892-3-3-3zm0 2h6c0.554 0 1 0.446 1 1v13c0 0.554-0.446 1-1 1h-6c-0.554 0-1-0.446-1-1v-13c0-0.554 0.446-1 1-1z" fill="url(#a)"/>
 <path transform="translate(.0015) scale(1)" d="m11.75 8.91a0.3682 0.3682 0 0 0-0.2637 0.1406l-2.914 3.682a0.3682 0.3682 0 0 0 0.2871 0.5977h1.406l-0.3867 2.334a0.3682 0.3682 0 0 0 0.3867 0.4277 0.3682 0.3682 0 0 0 0.2637-0.1406l2.916-3.68a0.3682 0.3682 0 0 0 0.07813-0.2422 0.3682 0.3682 0 0 0-0.3672-0.3555h-1.406l0.3887-2.334a0.3682 0.3682 0 0 0-0.3887-0.4297z" fill="url(#b)" stroke-width=".9"/>
</svg>
