<svg version="1.1" viewBox="0 0 22 22" xmlns="http://www.w3.org/2000/svg">
 <defs>
  <linearGradient id="b" x2="0" y1="1">
   <stop stop-color="#ff0" offset="0"/>
   <stop stop-color="#ffc200" offset="1"/>
  </linearGradient>
  <linearGradient id="a" y1="1">
   <stop stop-color="#fd2e00" offset="0"/>
   <stop stop-color="#f90" offset="1"/>
  </linearGradient>
 </defs>
 <path transform="translate(0) scale(1) translate(0) scale(1) translate(0) scale(1) translate(0) scale(1) translate(.0015) scale(1)" d="m8.51 16.4a0.5 0.5 0 0 0-0.5 0.5v1.602a0.5 0.5 0 0 0 0.5 0.5h5a0.5 0.5 0 0 0 0.5-0.5v-1.602a0.5 0.5 0 0 0-0.5-0.5z" fill="url(#a)"/>
 <path transform="translate(0) scale(1) translate(0) scale(1) translate(0) scale(1) translate(0) scale(1) translate(.0015) scale(1) translate(.003 .000955)" d="m11.06 0c-0.06667-0.002076-0.1331-7.658e-4 -0.2012 0.003906-0.982 0.06742-1.758 0.8383-1.854 1.799-0.01088 0.1099 0.07905 0.1992 0.1894 0.1992h3.6c0.1105 0 0.2022-0.08936 0.1914-0.1992-0.09811-0.996-0.9255-1.772-1.926-1.803zm-3.064 3c-1.108 0-3 1.892-3 3v13c0 1.108 1.892 3 3 3h6c1.108 0 3-1.892 3-3v-13c0-1.108-1.892-3-3-3zm0 2h6c0.554 0 1 0.446 1 1v13c0 0.554-0.446 1-1 1h-6c-0.554 0-1-0.446-1-1v-13c0-0.554 0.446-1 1-1z" fill="url(#a)"/>
 <path transform="translate(0) scale(1) translate(.0015)" d="m13.52 12.03a0.3682 0.3682 0 0 0-0.3674-0.3568h-1.406l0.3884-2.333a0.3682 0.3682 0 0 0-0.6521-0.2901l-2.914 3.683a0.3682 0.3682 0 0 0 0.2866 0.5977h1.408l-0.3884 2.333a0.3682 0.3682 0 0 0 0.3867 0.4271 0.3682 0.3682 0 0 0 0.2637-0.1389l2.916-3.681a0.3682 0.3682 0 0 0 0.0791-0.2408z" fill="url(#b)" stroke-width=".9"/>
</svg>
