<svg xmlns="http://www.w3.org/2000/svg" viewBox="0 0 22 22"><defs><linearGradient id="a" x1="1" x2="10.5" y1="18" y2="6" gradientUnits="userSpaceOnUse"><stop offset="0" stop-color="#b900ff"/><stop offset="1" stop-color="#6444ff"/></linearGradient><linearGradient id="c" x1="9" x2="13.5" y1="14.87" y2="11" gradientUnits="userSpaceOnUse"><stop offset="0" stop-color="#e5f230"/><stop offset="1" stop-color="#24d864"/></linearGradient></defs><g style="color:#ddd"><g fill="url(#a)" fill-rule="evenodd" paint-order="stroke fill markers" transform="translate(-1 -1)scale(.99995)"><path d="M4.531 9A.537.537 0 0 0 4 9.545v4.91c0 .303.237.545.531.545H8.47a.537.537 0 0 0 .53-.545V14H7.5a1 1 0 0 1-.832-1.555L8.852 9.17A.52.52 0 0 0 8.469 9H4.53z"/><path d="M4 6C2.892 6 1 7.892 1 9v6c0 1.108 1.892 3 3 3h13c1.108 0 3-1.892 3-3V9c0-1.108-1.892-3-3-3zm0 2h13c.554 0 1 .446 1 1v6c0 .554-.446 1-1 1H4c-.554 0-1-.446-1-1V9c0-.554.446-1 1-1m17 2v4a2 2 0 1 0 0-4"/></g><path fill="url(#c)" d="m10.83 8-3.334 5h3l-.75 3h.416l3.334-5h-3l.75-3z" transform="translate(-1 -1)scale(.99995)"/></g></svg>