<svg version="1.1" viewBox="0 0 22 22" xmlns="http://www.w3.org/2000/svg">
 <defs>
  <style>.ColorScheme-Text{color:#ddd}</style>
 </defs>
 <path transform="translate(0) scale(1) translate(.00265 2.1e-5) scale(1) translate(-3e-4 .000771) scale(1)" d="m10.86 0.003906a2 2 0 0 0-1.863 1.994h4a2 2 0 0 0-2.137-1.994zm-2.863 2.998c-1.108 0-3 1.888-3 2.996v13c0 1.108 1.892 3 3 3h6c1.108 0 3-1.892 3-3v-13c0-1.108-1.892-2.996-3-2.996zm0 1.996h6c0.554 0 1 0.446 1 1v13c0 0.554-0.446 1-1 1h-6c-0.554 0-1-0.446-1-1v-13c0-0.554 0.446-1 1-1z" fill="#f00"/>
 <path transform="translate(0) scale(1) translate(.00265 2.1e-5) scale(1)" d="m9.17 9.191a0.6494 0.6494 0 0 0-0.3867 0.1406l-1.166 0.9336a0.6518 0.6518 0 0 0 0.01562 1.031 40.86 40.86 0 0 1 2.123 1.699 39.91 39.91 0 0 1-1.799 1.795 0.6513 0.6513 0 0 0-0.1133 0.8105l0.2441 0.4043a0.6504 0.6504 0 0 0 0.959 0.1777c0.7554-0.5918 1.508-1.185 2.242-1.801a39.99 39.99 0 0 1 1.607 1.619 0.6513 0.6513 0 0 0 0.8359 0.09766l0.5762-0.3848c0.3083-0.2056 0.3855-0.6302 0.1621-0.9297a41.86 41.86 0 0 0-1.5-1.895 25.37 25.37 0 0 0 1.492-1.533c0.2094-0.2354 0.2182-0.5847 0.02734-0.8301l-0.7871-1.014c-0.2654-0.3409-0.7806-0.3308-1.037 0.01172a41.16 41.16 0 0 1-1.264 1.605 40.81 40.81 0 0 0-1.771-1.764 0.6494 0.6494 0 0 0-0.459-0.1758h-0.001953z" fill="#f00" stroke-width=".4839"/>
</svg>
