<svg version="1.1" viewBox="0 0 22 22" xmlns="http://www.w3.org/2000/svg">
 <defs>
  <linearGradient id="b" x2="0" y1="1">
   <stop stop-color="#ff0" offset="0"/>
   <stop stop-color="#ffc200" offset="1"/>
  </linearGradient>
  <linearGradient id="a" x1="1" x2="0" y1=".5" y2=".5">
   <stop stop-color="#01ff4d" offset="0"/>
   <stop stop-color="#2fff00" offset="1"/>
  </linearGradient>
 </defs>
 <path transform="translate(0) scale(1) translate(0) scale(1) translate(0) scale(1) translate(0) scale(1) translate(.0015) scale(1) translate(.003 .000955)" d="m8.507 5.989v0.001953a0.5 0.5 0 0 0-0.5 0.5v5.336l2.689-3.398c0.1967-0.2484 0.477-0.4064 0.7715-0.4727 0.07384-0.01662 0.1482-0.0279 0.2227-0.0332 0.05587-0.003979 0.1108-0.004326 0.166-0.001953 0.1655 0.00712 0.3266 0.04225 0.4688 0.1055 0.5047 0.2245 0.8993 0.8548 0.793 1.48v0.001953l-0.1953 1.164h0.2266a1 1 0 0 0 0.001953 0c0.3213 5.44e-4 0.6202 0.1173 0.8555 0.3105v-4.494a0.5 0.5 0 0 0-0.5-0.5h-5zm5.5 7.174-2.701 3.408c-0.239 0.3012-0.5949 0.4894-0.9785 0.5156a1 1 0 0 1-0.003906 0.001953c-0.8549 0.05436-1.576-0.7425-1.438-1.588a1 1 0 0 0 0-0.001953l0.1953-1.17h-0.2285a1 1 0 0 1-0.003906 0c-0.3283-0.00118-0.6172-0.1302-0.8418-0.332v4.506a0.5 0.5 0 0 0 0.5 0.5h5a0.5 0.5 0 0 0 0.5-0.5v-5.34z" fill="url(#a)"/>
 <path transform="translate(0) scale(1) translate(0) scale(1) translate(0) scale(1) translate(0) scale(1) translate(.0015) scale(1) translate(.003 .000955)" d="m11.06 0c-0.06667-0.002076-0.1331-7.658e-4 -0.2012 0.003906-0.982 0.06742-1.758 0.8383-1.854 1.799-0.01088 0.1099 0.07905 0.1992 0.1894 0.1992h3.6c0.1105 0 0.2022-0.08936 0.1914-0.1992-0.09811-0.996-0.9255-1.772-1.926-1.803zm-3.064 3c-1.108 0-3 1.892-3 3v13c0 1.108 1.892 3 3 3h6c1.108 0 3-1.892 3-3v-13c0-1.108-1.892-3-3-3zm0 2h6c0.554 0 1 0.446 1 1v13c0 0.554-0.446 1-1 1h-6c-0.554 0-1-0.446-1-1v-13c0-0.554 0.446-1 1-1z" fill="url(#a)"/>
 <path transform="translate(0) scale(1) translate(.0015)" d="m13.52 12.03a0.3682 0.3682 0 0 0-0.3674-0.3568h-1.406l0.3884-2.333a0.3682 0.3682 0 0 0-0.6521-0.2901l-2.914 3.683a0.3682 0.3682 0 0 0 0.2866 0.5977h1.408l-0.3884 2.333a0.3682 0.3682 0 0 0 0.3867 0.4271 0.3682 0.3682 0 0 0 0.2637-0.1389l2.916-3.681a0.3682 0.3682 0 0 0 0.0791-0.2408z" fill="url(#b)" stroke-width=".9"/>
</svg>
