<svg version="1.1" viewBox="0 0 22 22" xmlns="http://www.w3.org/2000/svg">
 <defs>
  <linearGradient id="b" x2="0" y1="1">
   <stop stop-color="#ff0" offset="0"/>
   <stop stop-color="#ffc200" offset="1"/>
  </linearGradient>
  <linearGradient id="a" y1="1">
   <stop stop-color="#00f0ff" offset="0"/>
   <stop stop-color="#00c3ff" offset="1"/>
  </linearGradient>
 </defs>
 <path transform="translate(0) scale(1) translate(.0015) scale(1)" d="m8.51 8.594a0.5 0.5 0 0 0-0.5 0.5v3.543c0.03234-0.08387 0.07781-0.1644 0.1367-0.2383l2.914-3.682c0.03507-0.04453 0.07336-0.08578 0.1152-0.123h-2.666zm3.863 0c0.07391 0.06337 0.1378 0.1396 0.1895 0.2285 0.05072 0.08733 0.08669 0.1846 0.1055 0.2891 0.01891 0.1052 0.01981 0.2143 0.001953 0.3184-0.09691 0.582-0.1933 1.152-0.2852 1.703h0.7695c0.1262 2.22e-4 0.2446 0.02756 0.3477 0.07031 0.1125 0.04666 0.2079 0.1125 0.2852 0.1875 0.08724 0.08474 0.1512 0.1812 0.1953 0.2793 0.01026 0.02282 0.01934 0.04565 0.02734 0.06836v-2.645a0.5 0.5 0 0 0-0.5-0.5h-1.137zm1.637 3.748c-0.03181 0.09099-0.07925 0.1811-0.1445 0.2637l-2.916 3.682c-0.07864 0.09938-0.1771 0.1813-0.2891 0.2402-0.1104 0.05812-0.2327 0.09266-0.3633 0.1016-0.1438 0.00916-0.2826-0.01573-0.4082-0.06836-0.1251-0.05242-0.2343-0.1294-0.3223-0.2266-0.08841-0.09765-0.1557-0.2147-0.1953-0.3438-0.04013-0.1308-0.05078-0.2734-0.02734-0.416l0.2832-1.703h-0.06641c-0.2268 0-0.4613 4e-6 -0.7051 0-0.1817-6.66e-4 -0.3534-0.05456-0.498-0.1504-0.1395-0.09242-0.2484-0.2192-0.3184-0.3652-0.01064-0.0222-0.02042-0.04525-0.0293-0.06836v5.216a0.5 0.5 0 0 0 0.5 0.5h5a0.5 0.5 0 0 0 0.5-0.5v-6.161z" fill="url(#a)"/>
 <path transform="translate(0) scale(1) translate(.0015) scale(1) translate(.003 .000955)" d="m11.06 0c-0.06667-0.002076-0.1331-7.658e-4 -0.2012 0.003906-0.982 0.06742-1.758 0.8383-1.854 1.799-0.01088 0.1099 0.07905 0.1992 0.1894 0.1992h3.6c0.1105 0 0.2022-0.08936 0.1914-0.1992-0.09811-0.996-0.9255-1.772-1.926-1.803zm-3.064 3c-1.108 0-3 1.892-3 3v13c0 1.108 1.892 3 3 3h6c1.108 0 3-1.892 3-3v-13c0-1.108-1.892-3-3-3zm0 2h6c0.554 0 1 0.446 1 1v13c0 0.554-0.446 1-1 1h-6c-0.554 0-1-0.446-1-1v-13c0-0.554 0.446-1 1-1z" fill="url(#a)"/>
 <path transform="translate(0) scale(1) translate(.0015) scale(1)" d="m13.52 12.03a0.3682 0.3682 0 0 0-0.3674-0.3568h-1.406l0.3884-2.333a0.3682 0.3682 0 0 0-0.6521-0.2901l-2.914 3.683a0.3682 0.3682 0 0 0 0.2866 0.5977h1.408l-0.3884 2.333a0.3682 0.3682 0 0 0 0.3867 0.4271 0.3682 0.3682 0 0 0 0.2637-0.1389l2.916-3.681a0.3682 0.3682 0 0 0 0.0791-0.2408z" fill="url(#b)" stroke-width=".9"/>
</svg>
