<svg version="1.1" viewBox="0 0 22 22" xmlns="http://www.w3.org/2000/svg">
 <defs>
  <linearGradient id="b" y1=".5" y2=".5">
   <stop stop-color="#00f1fa" offset="0"/>
   <stop stop-color="#006cff" offset="1"/>
  </linearGradient>
  <linearGradient id="a" y1="1">
   <stop stop-color="#f0f" offset="0"/>
   <stop stop-color="#ff0080" offset="1"/>
  </linearGradient>
 </defs>
 <path transform="translate(-0 .001279) scale(1) translate(4.4e-5 -.00078) scale(1) matrix(.8861 0 0 .8861 .000815 2.415)" d="m5.131-0.003906v0.003906c-0.9102 0.009464-1.758 0.3838-2.504 0.9062-1.491 1.045-2.716 2.675-2.623 4.4 0.2201 4.09 2.482 8.387 5.715 11.62 3.233 3.235 7.495 5.441 11.82 5.014 1.717-0.1694 3.15-1.55 3.932-3.139 0.3908-0.794 0.6136-1.674 0.4863-2.559-0.1272-0.8844-0.6681-1.746-1.58-2.272-0.6518-0.3753-1.53-1.025-2.555-1.396-0.512-0.1857-1.083-0.3051-1.684-0.2227-0.6012 0.08256-1.206 0.3878-1.695 0.9023a0.846 0.846 0 0 0 0 2e-3c-0.4352 0.4577-0.9562 0.5322-1.748 0.3027-0.7916-0.2295-1.734-0.8296-2.514-1.604-0.7797-0.7739-1.396-1.719-1.646-2.531-0.2501-0.8125-0.1866-1.38 0.252-1.842 0.5242-0.5516 0.8206-1.208 0.8789-1.85 0.05832-0.6418-0.09809-1.241-0.3301-1.775-0.464-1.069-1.238-1.962-1.721-2.646-0.6232-0.8807-1.576-1.324-2.486-1.314zm0.01758 1.695c0.432-0.00449 0.7393 0.107 1.088 0.5996 0.552 0.7812 1.233 1.615 1.549 2.344 0.158 0.3642 0.2236 0.6815 0.1992 0.9492-0.02434 0.2677-0.1162 0.5163-0.4199 0.8359-0.9172 0.9653-1.008 2.322-0.6445 3.504s1.13 2.301 2.072 3.236c0.9418 0.9348 2.059 1.685 3.234 2.025 1.175 0.3407 2.529 0.2037 3.445-0.7598a0.846 0.846 0 0 0 0-0.0039c0.2617-0.2742 0.4671-0.3585 0.7012-0.3906 0.235-0.03226 0.5292 0.01129 0.875 0.1367 0.6917 0.251 1.509 0.8232 2.287 1.272 0.5174 0.2978 0.6881 0.616 0.75 1.047 0.06198 0.431-0.05039 0.9997-0.3301 1.568-0.5593 1.136-1.804 2.128-2.58 2.205-3.642 0.3598-7.481-1.548-10.46-4.527-2.977-2.979-5.035-6.997-5.225-10.52-0.03659-0.6865 0.8105-2.158 1.906-2.926 0.5475-0.3838 1.119-0.5933 1.551-0.5977z" fill="url(#b)"/>
 <path transform="translate(-0 .001279) scale(1) translate(4.4e-5 -.00078) scale(1)" d="m12.83 10.59a1.37 1.37 0 0 0 1.015-0.4015l5.413-5.413 0.0035 1.861a1.37 1.37 0 0 0 2.738 0l-0.0018-5.17a1.37 1.37 0 0 0-1.369-1.369h-5.168a1.37 1.37 0 1 0-0.0018 2.736l1.861 0.0035-5.413 5.413a1.37 1.37 0 0 0 0.06758 2.003 1.37 1.37 0 0 0 0.8549 0.3375z" fill="url(#a)" stroke-width=".8861"/>
</svg>
