<svg version="1.1" viewBox="0 0 22 22" xmlns="http://www.w3.org/2000/svg">
 <defs>
  <linearGradient id="a" x1="1" x2="0" y1="1">
   <stop stop-color="#f10" offset="0"/>
   <stop stop-color="#ff115a" offset="1"/>
  </linearGradient>
 </defs>
 <style transform="translate(-.000274 .00019) scale(1) translate(-.001953 .000785) scale(.9999) translate(1.202 .8558) scale(.8907)">.ColorScheme-NegativeText { color: #da4453; } .ColorScheme-Text { color: #fcfcfc; }</style>
 <path transform="translate(-.000274 .00019) scale(1) translate(-.001953 .000785) scale(.9999) matrix(.8907 0 0 .8907 1.202 .8558)" d="m11 4.631c-0.8719 0.00229-1.727 0.2426-2.473 0.6951a0.25 0.25 0 0 0-0.04605 0.3903l6.221 6.221a0.25 0.25 0 0 0 0.3903-0.04605c0.4525-0.7453 0.6928-1.601 0.6951-2.473 0-2.641-2.146-4.787-4.787-4.787zm-4.55 4.561a0.25 0.25 0 0 0-0.2368 0.25c0.01394 2.621 2.139 4.751 4.761 4.765a0.25 0.25 0 0 0 0.1776-0.4276l-4.513-4.515a0.25 0.25 0 0 0-0.1886-0.07236z" fill="url(#a)"/>
 <path transform="translate(-.000274 .00019) scale(1) translate(-.001953 .000785) scale(.9999) matrix(.8907 0 0 .8907 1.202 .8558)" d="m11 0.09392c-2.083 0.01037-4.102 0.7189-5.736 2.011a0.25 0.25 0 0 0-0.02193 0.3728l1.066 1.066a0.25 0.25 0 0 0 0.3289 0.02193c1.261-0.9441 2.791-1.456 4.366-1.46 1.643 0.00555 3.235 0.564 4.522 1.585a0.25 0.25 0 0 0 0.002192 0.002193c0.09916 0.07748 0.1944 0.1587 0.2894 0.2412 0.09088 0.08096 0.1808 0.1625 0.2675 0.2478a0.25 0.25 0 0 0 0 0.002193c0.09189 0.08904 0.1804 0.1804 0.2675 0.2741a0.25 0.25 0 0 0 0.002193 0c0.08925 0.09574 0.1769 0.1934 0.2609 0.2938a0.25 0.25 0 0 0 0.002193 0.002193c0.07844 0.09141 0.1543 0.1856 0.2281 0.2807a0.25 0.25 0 0 0 0.1974 0.09648h4.298v1.013h-1.261a0.25 0.25 0 0 0-0.25 0.25v6.05a0.25 0.25 0 0 0 0.25 0.25h1.261v1.013h-4.263a0.25 0.25 0 0 0-0.1754 0.4254l1.511 1.515a0.25 0.25 0 0 0 0.1776 0.07236h3c0.9721 0 1.765-0.7906 1.765-1.763v-9.076c0-0.9721-0.7928-1.761-1.765-1.761h-3.765c-1.76-1.907-4.22-3.022-6.82-3.026a0.25 0.25 0 0 0-0.004385 0zm-10.61 3.026c-0.9602 0.01338-1.737 0.7967-1.737 1.761v9.076c0 0.9721 0.7884 1.763 1.761 1.763h3.767c1.572 1.704 3.731 2.647 6.024 2.855-0.5163 0.2882-0.9037 0.7328-0.9341 1.357-2.399 0.3864-4.436 1.362-4.436 1.362a0.25 0.25 0 0 0-0.1403 0.2259v1.511a0.25 0.25 0 0 0 0.25 0.25h12.1a0.25 0.25 0 0 0 0.25-0.25v-1.511a0.25 0.25 0 0 0-0.1381-0.2259s-2.032-0.9753-4.436-1.362c-0.03011-0.6256-0.4193-1.069-0.9363-1.357 1.036-0.09476 2.072-0.2313 3.022-0.6622a0.25 0.25 0 0 0 0.07456-0.4035l-1.153-1.158a0.25 0.25 0 0 0-0.2609-0.05482c-0.7901 0.2861-1.627 0.4311-2.467 0.4342-1.643-0.0055-3.235-0.5618-4.522-1.583a0.25 0.25 0 0 0-0.002193-0.002192c-0.09845-0.07677-0.195-0.1572-0.2894-0.239v-0.002193c-0.09088-0.08096-0.1807-0.1646-0.2675-0.25-0.0919-0.08895-0.1826-0.1804-0.2697-0.2741-0.08925-0.09574-0.1769-0.1934-0.2609-0.2938a0.25 0.25 0 0 0-0.002193-0.002193c-0.07845-0.09138-0.1543-0.1855-0.2281-0.2807a0.25 0.25 0 0 0-0.1974-0.09648h-4.3v-1.013h1.263a0.25 0.25 0 0 0 0.25-0.25v-6.05a0.25 0.25 0 0 0-0.25-0.25h-1.263v-1.013h1.239a0.25 0.25 0 0 0 0.1754-0.4254l-1.504-1.511a0.25 0.25 0 0 0-0.1798-0.07456z" fill="url(#a)"/>
 <path transform="translate(-.000274 .00019) scale(1) translate(-.001953 .000785) scale(.9999) matrix(.8907 0 0 .8907 1.202 .8558)" d="m0.9727-0.502a0.5 0.5 0 0 0-0.3555 0.1465l-0.9707 0.9727a0.5 0.5 0 0 0 0 0.709l21.02 21.02a0.5 0.5 0 0 0 0.707 0l0.9727-0.9727a0.5 0.5 0 0 0 0-0.707l-21.02-21.02a0.5 0.5 0 0 0-0.3535-0.1465z" fill="url(#a)"/>
</svg>
