<svg xmlns="http://www.w3.org/2000/svg" viewBox="0 0 22 22"><path fill="#0f0" d="M10.999 6.284a3.143 3.143 0 0 0-3.143 3.143A3.143 3.143 0 0 0 11 12.57a3.143 3.143 0 0 0 3.143-3.143 3.143 3.143 0 0 0-3.143-3.143"/><path fill="#00ff80" d="M10.999 0a9.427 9.427 0 0 0-9.427 9.427 9.43 9.43 0 0 0 3.143 7.017v2.412H1.572c-.87 0-1.572.7-1.572 1.57v1.572h7.856c0-.87.7-1.572 1.57-1.572h3.143c.87 0 1.572.702 1.572 1.572h7.856v-1.572c0-.87-.702-1.57-1.572-1.57h-3.143v-2.412a9.43 9.43 0 0 0 3.143-7.017A9.427 9.427 0 0 0 10.998 0zm0 3.143a6.285 6.285 0 0 1 6.284 6.284A6.285 6.285 0 0 1 11 15.714a6.285 6.285 0 0 1-6.284-6.287 6.285 6.285 0 0 1 6.284-6.284"/></svg>