<svg xmlns="http://www.w3.org/2000/svg" viewBox="0 0 22 22"><g fill="red"><path d="M10.996 0a9.424 9.424 0 0 0-9.425 9.425 9.43 9.43 0 0 0 3.142 7.014v2.411H1.57c-.87 0-1.57.7-1.57 1.571v1.57h7.853c0-.87.7-1.57 1.571-1.57h3.142c.87 0 1.57.7 1.57 1.57h7.855v-1.57c0-.87-.7-1.57-1.571-1.57h-3.142v-2.412a9.42 9.42 0 0 0 3.142-7.014A9.424 9.424 0 0 0 10.996 0m0 3.142a6.284 6.284 0 1 1 0 12.567 6.284 6.284 0 0 1 0-12.567" opacity=".35"/><path d="M10.996 6.283a3.141 3.141 0 1 0 0 6.283 3.141 3.141 0 0 0 0-6.283"/></g></svg>