<svg version="1.1" viewBox="0 0 22 22" xmlns="http://www.w3.org/2000/svg">
 <defs>
  <linearGradient id="a" x1="1" x2="0" y2="1">
   <stop stop-color="#00ff7f" offset="0"/>
   <stop stop-color="#5fff00" offset="1"/>
  </linearGradient>
 </defs>
 <path transform="translate(0) scale(1) translate(-.00158) scale(1) translate(-7e-5) scale(1)" d="m11 0c-3.093 0-5.623 2.53-5.623 5.623v1.66c-1.634 0.5672-2.911 1.936-3.148 3.703-0.1462 1.086-0.2715 2.234-0.2715 3.432s0.1253 2.346 0.2715 3.434c0.2971 2.207 2.13 3.942 4.377 4.047 1.403 0.06447 2.828 0.09961 4.394 0.09961s2.994-0.03514 4.396-0.09961c2.246-0.1033 4.076-1.839 4.375-4.047 0.1462-1.086 0.2734-2.233 0.2734-3.434s-0.1272-2.347-0.2734-3.432c-0.2381-1.768-1.513-3.136-3.146-3.703v-1.66c0-3.093-2.53-5.623-5.623-5.623zm0 2.451c1.769-1e-7 3.172 1.403 3.172 3.172v1.277c-1.021-0.03335-2.05-0.05859-3.172-0.05859-1.121 0-2.151 0.02525-3.172 0.05859v-1.277c0-1.769 1.403-3.172 3.172-3.172zm0 6.842c1.531 0 2.917 0.03292 4.283 0.0957 1.041 0.04786 1.916 0.8681 2.059 1.926 0.1405 1.044 0.252 2.08 0.252 3.104s-0.1115 2.062-0.252 3.106c-0.1424 1.057-1.017 1.88-2.059 1.928-1.366 0.06276-2.751 0.0957-4.283 0.0957s-2.917-0.03294-4.283-0.0957c-1.041-0.04786-1.916-0.87-2.059-1.928-0.1405-1.044-0.252-2.082-0.252-3.106s0.1114-2.06 0.252-3.104c0.1424-1.057 1.017-1.878 2.059-1.926 1.366-0.0628 2.752-0.0957 4.283-0.0957z" fill="url(#a)"/>
 <path transform="translate(0) scale(1) translate(-.00158) scale(1) translate(-7e-5) scale(1)" d="m11 11.67a1.639 1.639 0 0 0-1.1 2.869v1.531a1.1 1.1 0 0 0 2.199 0v-1.531a1.639 1.639 0 0 0-1.1-2.869z" fill="url(#a)"/>
</svg>
