<svg version="1.1" viewBox="0 0 22 22" xmlns="http://www.w3.org/2000/svg">
 <defs>
  <linearGradient id="b" x2="0" y2="1">
   <stop stop-color="#00efff" offset="0"/>
   <stop stop-color="#07f" offset="1"/>
  </linearGradient>
  <linearGradient id="d" y1=".5" y2=".5">
   <stop stop-color="#00efff" offset="0"/>
   <stop stop-color="#07f" offset="1"/>
  </linearGradient>
  <linearGradient id="a" x2="0" y1="1">
   <stop stop-color="#8f0cff" offset="0"/>
   <stop stop-color="#aa1dff" offset=".5"/>
   <stop stop-color="#b826ff" offset="1"/>
  </linearGradient>
 </defs>
 <path transform="translate(3e-5) scale(.9999) translate(0) scale(.3438) translate(1e-5) scale(1) translate(-.008) scale(.9999)" d="M13.72 6.096c-5.014 0-9.144 4.131-9.144 9.144v39.62c0 5.014 4.131 9.144 9.144 9.144H50.3c5.014 0 9.144-4.131 9.144-9.144V15.24c0-5.014-4.131-9.144-9.144-9.144h-7.619a3.05 3.05 0 0 0-3.049 3.049 3.05 3.05 0 0 0 3.049 3.047H50.3c1.719 0 3.049 1.33 3.049 3.049v39.62c0 1.719-1.33 3.049-3.049 3.049H13.72c-1.719 0-3.047-1.33-3.047-3.049v-39.62c0-1.719 1.328-3.049 3.047-3.049h7.621a3.05 3.05 0 0 0 3.047-3.047 3.05 3.05 0 0 0-3.047-3.049z" fill="url(#a)"/>
 <path transform="translate(3e-5) scale(.9999) translate(0) scale(.3438) translate(1e-5) scale(1) translate(-.008) scale(.9999)" d="M27.62 0a9.17 9.17 0 0 0-8.869 6.928L16.858 14.5a3.048 3.048 0 0 0 2.959 3.785h24.38a3.048 3.048 0 0 0 2.959-3.785l-1.898-7.572v-.006A9.17 9.17 0 0 0 36.389 0zm0 6.096h8.77c1.414 0 2.616.939 2.959 2.31l.947 3.785h-16.58l.948-3.785a3.02 3.02 0 0 1 2.953-2.31z" fill="url(#b)"/>
 <path transform="translate(3e-5) scale(.9999) translate(0) scale(.3438) translate(1e-5) scale(1) translate(-.008) scale(.9999)" d="m22.86 30.48a3.05 3.05 0 0 0-3.049 3.047 3.05 3.05 0 0 0 3.049 3.049h18.29a3.05 3.05 0 0 0 3.049-3.049 3.05 3.05 0 0 0-3.049-3.047zm0 12.19a3.05 3.05 0 0 0-3.049 3.049 3.05 3.05 0 0 0 3.049 3.047h18.29a3.05 3.05 0 0 0 3.049-3.047 3.05 3.05 0 0 0-3.049-3.049z" fill="url(#d)"/>
</svg>
