<svg version="1.1" viewBox="0 0 22 22" xmlns="http://www.w3.org/2000/svg">
 <defs>
  <linearGradient id="a" y1="1">
   <stop stop-color="#de14ff" offset="0"/>
   <stop stop-color="#7f00ff" offset="1"/>
  </linearGradient>
 </defs>
 <path transform="translate(.000281 .00092) scale(.9999) translate(3.9e-5 .00038) scale(1)" d="m11 0.5v0.001953c-0.0012-4.86e-6 -0.0027-4.86e-6 -0.0039 0-1.401-6.391e-4 -2.799 0.02717-4.199 0.08594h-0.00195c-1.192 0.05132-2.129 0.08344-2.992 0.2578-0.8757 0.177-1.692 0.5477-2.344 1.205-0.6466 0.652-1.016 1.459-1.188 2.324-0.1685 0.8517-0.188 1.764-0.2285 2.924-0.02698 0.7273-0.04297 1.48-0.04297 2.246 1.453e-4 0.7487 0.01652 1.497 0.04297 2.244 0.04045 1.157 0.06018 2.075 0.2285 2.926 0.171 0.8641 0.5394 1.671 1.188 2.322 0.6523 0.6571 1.468 1.027 2.344 1.205 0.5973 0.1211 1.342 0.1399 2.07 0.1777v1.176c-0.00146 1.587 1.975 2.498 3.18 1.465l2.135-1.832c0.5302-0.4547 0.7302-0.5814 0.7676-0.5957 0.0071-0.0027 0.2819-0.05041 0.9844-0.06445h0.01172c0.7739-0.01518 1.524-0.03726 2.254-0.06836 1.193-0.05132 2.131-0.08344 2.994-0.2578 0.8763-0.177 1.692-0.5479 2.344-1.205 0.6466-0.652 1.016-1.457 1.188-2.322 0.1685-0.8517 0.1899-1.766 0.2305-2.926 0.05262-1.496 0.05262-2.993 0-4.488-0.04104-1.16-0.06188-2.076-0.2305-2.928-0.1711-0.8634-0.5411-1.67-1.19-2.322-0.6523-0.6571-1.466-1.029-2.342-1.207-0.8629-0.1744-1.801-0.2046-2.992-0.2559-1.33-0.05759-2.741-0.08789-4.205-0.08789zm0 2.424v0.00195c1.432 0 2.81 0.02999 4.102 0.08594 1.193 0.05132 2.054 0.09597 2.613 0.209 0.5743 0.1162 0.7928 0.2255 1.106 0.5391 0.3163 0.3185 0.419 0.5266 0.5293 1.084 0.1071 0.5408 0.1469 1.379 0.1875 2.539 0.05063 1.439 0.05063 2.878 0 4.318-0.04055 1.159-0.0804 1.998-0.1875 2.539-0.1104 0.5576-0.2126 0.7667-0.5293 1.086-0.3113 0.3135-0.5297 0.4189-1.106 0.5352-0.559 0.1129-1.421 0.1615-2.613 0.2129-0.709 0.03023-1.441 0.05356-2.197 0.06836-0.7151 0.01354-1.233-0.0028-1.812 0.2207-0.5686 0.2181-0.9467 0.5676-1.478 1.023l-0.166 0.1445-1.144 0.9805v-1.217c4.76e-4 -0.6453-0.5174-1.185-1.162-1.213l-0.2363-0.0098c-0.00685-1.48e-4 -0.01464-1.48e-4 -0.02148 0h-0.00195c-1.177-0.05066-2.041-0.1009-2.594-0.2129-0.575-0.1164-0.79-0.2206-1.104-0.5352-0.3163-0.3185-0.417-0.5266-0.5273-1.084-0.1071-0.5408-0.1469-1.379-0.1875-2.539v-2e-3c-0.02545-0.7192-0.03892-1.441-0.03906-2.162 0-0.7402 0.01326-1.462 0.03906-2.156 4.8e-6 -0.00124 4.8e-6 -0.00265 0-0.00391 0.04056-1.159 0.08041-1.994 0.1875-2.535 0.1104-0.5581 0.2105-0.7646 0.5273-1.084 0.3113-0.3134 0.5278-0.421 1.104-0.5371 0.5585-0.1127 1.422-0.1598 2.613-0.2109 1.364-0.05732 2.731-0.08655 4.1-0.08594z" fill="url(#a)"/>
 <path transform="translate(.000281 .00092) scale(.9999) translate(3.9e-5 .00038) scale(1)" d="m11.26 3.463-0.0039 0.00195c-2.058 0-3.856 1.142-4.262 2.766-0.175 0.6998-0.06598 1.408 0.3105 1.947 0.2326 0.3336 0.5895 0.5482 0.9863 0.6934-0.1218 0.2488-0.2656 0.4891-0.2656 0.7988v1.004a1.79 1.79 0 0 0 0.4102 1.144c-0.362 0.3869-0.5918 0.9394-0.5918 1.564 0 0.6949 0.2847 1.301 0.7207 1.688 0.435 0.3873 0.9884 0.5664 1.533 0.5664s1.1-0.1793 1.535-0.5664c0.4347-0.3871 0.7188-0.9922 0.7188-1.688 0-0.6367-0.2385-1.199-0.6133-1.586 0.02615-0.03305 0.05244-0.067 0.07617-0.1016 0.2804-0.4099 0.4502-0.6878 0.5606-0.75 0.7061-0.3968 1.364-0.8116 1.875-1.391 0.5106-0.579 0.8418-1.348 0.8418-2.258 0-0.9252-0.2773-1.876-0.918-2.615-0.6407-0.7385-1.652-1.219-2.914-1.219zm-0.0039 1.354h2e-3c0.9397 2.549e-4 1.506 0.3086 1.893 0.7539 0.3863 0.4449 0.5859 1.074 0.5859 1.727 0 0.6114-0.1698 0.9859-0.502 1.363-0.3328 0.3778-0.8624 0.7324-1.523 1.104-0.6137 0.3445-0.8252 0.8906-1.014 1.166l-2e-3 2e-3a0.4419 0.4419 0 0 1-0.3711 0.1973h-0.4981a0.4419 0.4419 0 0 1-0.4512-0.4512l0.001953-1.006c0-0.2254 0.209-0.5348 0.6621-0.873s1.061-0.6423 1.545-0.9102a0.6764 0.6764 0 0 0-0.6328-1.195c-0.0071 0.00361-0.01381 0.00812-0.02149 0.01172-0.0063 0.00361-0.01861 0.01201-0.02539 0.01562a28.4 28.4 0 0 0-1.42 0.793h-0.00195c-0.2066 0.1218-0.3623 0.1779-0.4492 0.1797-0.317 0.006312-0.4921-0.104-0.6211-0.2891-0.129-0.1849-0.2003-0.4752-0.1074-0.8457 0.1907-0.7573 1.428-1.741 2.951-1.742zm-1.16 7.666c0.2444 0 0.4821 0.08371 0.6387 0.2227 0.1566 0.1389 0.2656 0.3232 0.2656 0.6797s-0.1093 0.5389-0.2656 0.6777c-0.1565 0.1393-0.3942 0.2227-0.6387 0.2227s-0.4782-0.08325-0.6348-0.2227c-0.1565-0.1393-0.2656-0.3209-0.2656-0.6777s0.1093-0.5408 0.2656-0.6797 0.3909-0.2227 0.6348-0.2227z" fill="url(#a)"/>
</svg>
