<svg version="1.1" viewBox="0 0 22 22" xmlns="http://www.w3.org/2000/svg">
 <defs>
  <linearGradient id="a" x1="59.57" x2="24.55" y1="41.86" y2="6.84" gradientTransform="matrix(.7109 0 0 1.228 2.099 2.101)" gradientUnits="userSpaceOnUse">
   <stop stop-color="#00b2ff" offset="0"/>
   <stop stop-color="#66fff6" offset="1"/>
  </linearGradient>
 </defs>
 <path transform="translate(1.9e-5) scale(1) translate(-2.1e-5) scale(.9999) translate(.000172) scale(.3438) translate(-.0055) scale(1)" d="m18.48 0c-9.871 0-17.93 8.061-17.93 17.93v28.13c0 9.871 8.061 17.94 17.93 17.94h27.05c9.871 0 17.93-8.064 17.93-17.94v-28.13c0-9.871-8.062-17.93-17.93-17.93zm0 5.57h27.05c6.862 0 12.36 5.5 12.36 12.36v28.13c0 6.862-5.502 12.36-12.36 12.36h-27.05c-6.861 0-12.36-5.502-12.36-12.36v-28.13c0-6.861 5.504-12.36 12.36-12.36z" fill="url(#a)" stroke-width=".9343"/>
 <path transform="translate(1.9e-5) scale(1) translate(-2.1e-5) scale(.9999) translate(.000172) scale(.3438)" d="m35.4 10.5c-4.993 0-9.051 4.062-9.051 9.054 0 1.772 0.526 3.409 1.409 4.808-3.838 0.7474-6.347 2.826-6.666 3.115a4.519 4.519 0 0 0 2.464 7.884l-1.252 2.5c-1.829 3.644-2.034 7.304-0.5793 10.31 1.28 2.635 3.672 4.424 6.731 5.043 0.9343 0.1897 1.889 0.2896 2.836 0.2896 5.36 0 8.977-3.055 9.371-3.403a4.517 4.517 0 0 0-2.467-7.878l1.25-2.498c1.829-3.644 2.032-7.31 0.5746-10.31a9.063 9.063 0 0 0-1.002-1.568 9.053 9.053 0 0 0 5.432-8.287c0-4.992-4.059-9.053-9.051-9.053zm0 4.528a4.528 4.528 0 0 1-0.0057 9.053 4.528 4.528 0 0 1 0.0057-9.053m-4.943 13.58h0.0019c0.6129 0 1.267 0.06073 1.934 0.2009 3.711 0.7558 5.268 4.372 3.004 8.885l-2.261 4.515c-1.132 2.258-1.069 3.693 0.2392 4.606 0.4092 0.285 0.981 0.3793 1.568 0.3793 1.306 0 2.715-0.4821 2.715-0.4821s-2.569 2.268-6.37 2.268c-0.611 0-1.263-0.05979-1.93-0.1999-3.717-0.7568-5.27-4.372-3.008-8.885l2.266-4.518c1.132-2.254 1.061-3.688-0.2467-4.606-0.4074-0.2831-0.9707-0.3803-1.557-0.3803-1.306 0-2.715 0.4858-2.715 0.4858s2.564-2.268 6.363-2.268z" fill="url(#a)" stroke-width=".9343"/>
</svg>
