<svg xmlns="http://www.w3.org/2000/svg" xmlns:xlink="http://www.w3.org/1999/xlink" viewBox="0 0 22 22"><defs><linearGradient id="b" y2="1"><stop offset="0" stop-color="#ff00d2"/><stop offset="1" stop-color="#ff0052"/></linearGradient><linearGradient xlink:href="#a" id="d" x1="194.5" x2="152.1" y1="134" y2="91.53" gradientTransform="matrix(.2404 0 0 .2227 -23.85 -4.131)" gradientUnits="userSpaceOnUse"/><linearGradient id="a" x1="1" x2="0" y1="1"><stop offset="0" stop-color="#d800bd"/><stop offset=".408" stop-color="#f92d7a"/><stop offset=".59" stop-color="#ff4a52"/><stop offset="1" stop-color="#ffb243"/></linearGradient><linearGradient xlink:href="#a" id="f" x1="194.5" x2="152.1" y1="134" y2="91.53" gradientTransform="matrix(.2404 0 0 .2227 -9.672 -4.131)" gradientUnits="userSpaceOnUse"/><linearGradient id="c" x2="0" y1="1"><stop offset="0" stop-color="#d800bd"/><stop offset=".408" stop-color="#f92d7a"/><stop offset=".59" stop-color="#ff4a52"/><stop offset="1" stop-color="#ffb243"/></linearGradient></defs><path fill="url(#b)" d="M47.75 22.06a9.943 9.943 0 0 0-9.944 9.944v1.914c0 .425-.334.777-.751.854a6.8 6.8 0 0 0-5.554 6.685v12.59a6.795 6.795 0 0 0 6.795 6.795h18.91a6.795 6.795 0 0 0 6.795-6.795v-12.59a6.8 6.8 0 0 0-5.553-6.685c-.417-.077-.751-.43-.751-.854v-1.914a9.943 9.943 0 0 0-9.944-9.944zm0 7.286a2.66 2.66 0 0 1 2.658 2.658v1.843a.81.81 0 0 1-.815.807h-3.686a.805.805 0 0 1-.807-.807v-1.843a2.654 2.654 0 0 1 2.65-2.658m-8.148 12.6h16.3c.448 0 .807.36.807.807v9.99c0 .448-.36.816-.807.816h-16.3a.81.81 0 0 1-.807-.815v-9.991c0-.448.36-.807.807-.807" transform="translate(0 .001)scale(.3437)"/><path fill="url(#c)" d="M9.944 3.153A9.943 9.943 0 0 0 0 13.097v15.76a9.943 9.943 0 0 0 9.944 9.944h18.51c2.013 0 3.647-1.634 3.647-3.647s-1.634-3.647-3.647-3.647H9.944a2.647 2.647 0 0 1-2.65-2.65v-15.76a2.647 2.647 0 0 1 2.65-2.65h44.11a2.646 2.646 0 0 1 2.65 2.65v7.879a3.648 3.648 0 0 0 7.294 0v-7.879a9.943 9.943 0 0 0-9.944-9.944z" transform="translate(0 .001)scale(.3437)"/><path fill="url(#d)" d="M19.48 16.25a1.6 1.6 0 0 0-.297.04c-.413.094-.737.34-.962.752l-.408.742-.378-.702-.001-.002a1.5 1.5 0 0 0-.967-.768 1.6 1.6 0 0 0-1.2.153c-.38.191-.626.508-.722.952q-.135.624.19 1.165l.455.793h-.877c-.399 0-.765.146-1.091.454-.335.316-.493.683-.493 1.091 0 .399.146.765.454 1.091.316.335.683.493 1.091.493h.897l-.474.79a1.5 1.5 0 0 0-.167 1.187q.164.626.708.954c.4.252.81.317 1.229.208q.634-.163.967-.768v-.002l.385-.715.366.645q.319.58.952.792.665.223 1.275-.157c.392-.218.642-.54.75-.957a1.6 1.6 0 0 0-.157-1.208l-.012-.022-.46-.747h.847q.672 0 1.12-.504c.287-.323.426-.685.426-1.08q.002-.604-.436-1.07a1.46 1.46 0 0 0-1.11-.476h-.866l.445-.755.008-.014c.22-.404.26-.809.13-1.213a1.57 1.57 0 0 0-.77-.918 1.5 1.5 0 0 0-.847-.224" transform="translate(0 .001)scale(.3437)"/><path fill="url(#f)" d="M33.65 16.25a1.6 1.6 0 0 0-.297.04c-.413.094-.737.34-.962.752l-.408.742-.379-.702v-.002a1.5 1.5 0 0 0-.967-.768 1.6 1.6 0 0 0-1.2.153c-.38.191-.626.508-.722.952q-.135.624.19 1.165l.455.793h-.877c-.399 0-.765.146-1.091.454-.335.316-.493.683-.493 1.091 0 .399.146.765.454 1.091.316.335.683.493 1.091.493h.897l-.474.79a1.5 1.5 0 0 0-.167 1.187q.164.626.708.954c.4.252.81.317 1.229.208q.634-.163.967-.768v-.002l.385-.715.366.645q.319.58.952.792.665.223 1.275-.157c.392-.218.642-.54.75-.957a1.6 1.6 0 0 0-.157-1.208l-.012-.022-.46-.747h.847q.673 0 1.12-.504c.287-.323.426-.685.426-1.08q.002-.604-.436-1.07a1.46 1.46 0 0 0-1.11-.476h-.866l.445-.755.008-.014c.22-.404.26-.809.13-1.213a1.57 1.57 0 0 0-.77-.918 1.5 1.5 0 0 0-.847-.224" transform="translate(0 .001)scale(.3437)"/></svg>