<svg version="1.1" viewBox="0 0 22 22" xmlns="http://www.w3.org/2000/svg" xmlns:xlink="http://www.w3.org/1999/xlink">
 <defs>
  <linearGradient id="a" x1="1" x2="0" y1=".5" y2=".5">
   <stop stop-color="#01ff4d" offset="0"/>
   <stop stop-color="#2fff00" offset="1"/>
  </linearGradient>
 </defs>
 <path transform="translate(-.00192 .00096) scale(1)" d="m11 3.213c-0.9721 0-2.021 0.737-2.021 2.359v10.85c-1e-7 1.621 1.049 2.362 2.023 2.361 0.4884 0 0.9814-0.1637 1.471-0.4902l2.898-1.934c0.8158-0.5443 2.395-1.021 3.375-1.021 1.793 0 3.254-1.459 3.254-3.254v-2.17c0-1.793-1.459-3.254-3.254-3.254-0.9813 0-2.559-0.475-3.375-1.02l-2.898-1.934c-0.4893-0.3266-0.9835-0.4922-1.471-0.4922l-0.001953-0.001953v-0.001953zm-7.488 1.238a1.302 1.302 0 0 0-0.9688 0.3965 8.592 8.592 0 0 0-2.543 6.121 8.619 8.619 0 0 0 2.541 6.135 1.303 1.303 0 1 0 1.842-1.842 6.028 6.028 0 0 1-1.777-4.293 6.015 6.015 0 0 1 1.771-4.279 1.302 1.302 0 0 0-0.8652-2.238zm7.645 0.9961 0.1133 0.07031 2.051 1.369v8.24l-2.051 1.367-0.1133 0.06445-0.003906-0.127v-10.85l0.003906-0.1309zm-4.641 1.646a1.302 1.302 0 0 0-0.9629 0.3789c-0.9435 0.9418-1.461 2.193-1.461 3.523 0 1.331 0.5163 2.584 1.459 3.525a1.302 1.302 0 0 0 1.842-1.838c-0.4505-0.4507-0.6992-1.051-0.6992-1.688 0-0.6346 0.2461-1.231 0.6953-1.68a1.302 1.302 0 0 0-0.873-2.223zm7.889 0.4941c1.187 0.7064 3.028 1.244 4.342 1.244a1.085 1.085 0 0 1 1.086 1.084v2.172a1.085 1.085 0 0 1-1.086 1.084c-1.314 0-3.156 0.5368-4.342 1.244v-6.828z" fill="url(#a)" stroke-width=".9197"/>
</svg>
