<svg xmlns="http://www.w3.org/2000/svg" viewBox="0 0 22 22"><defs><linearGradient id="b" x1=".724" x2="25.32" y1="20.62" y2="11.73" gradientUnits="userSpaceOnUse"><stop offset="0" stop-color="#0500ff"/><stop offset="1" stop-color="#4ad7ff"/></linearGradient><linearGradient id="a" x1="4.497" x2="14.27" y1="7.386" y2="2.431" gradientTransform="translate(1 7.737)" gradientUnits="userSpaceOnUse"><stop offset="0" stop-color="#fe0844"/><stop offset="1" stop-color="#feb302"/></linearGradient></defs><path fill="url(#a)" d="M9.62 6.877A4.12 4.12 0 0 0 5.497 11v4.123H9.62c2.278 0 4.123-1.845 4.123-4.123S11.898 6.877 9.62 6.877m0 2.749A1.374 1.374 0 0 1 10.994 11a1.374 1.374 0 0 1-1.374 1.374A1.374 1.374 0 0 1 8.246 11 1.374 1.374 0 0 1 9.62 9.626" opacity=".45" style="-inkscape-stroke:none;font-variation-settings:normal" transform="scale(.9999)"/><path fill="url(#b)" d="M4.123.006A4.114 4.114 0 0 0 0 4.129v13.74a4.114 4.114 0 0 0 4.123 4.123h6.872v-2.75H4.123a1.37 1.37 0 0 1-1.374-1.373V4.129a1.37 1.37 0 0 1 1.374-1.374h10.99a1.37 1.37 0 0 1 1.374 1.374V11h2.749V4.129A4.114 4.114 0 0 0 15.113.006z" style="-inkscape-stroke:none;font-variation-settings:normal" transform="scale(.9999)"/><path fill="red" d="M17.878 12.369c-2.276 0-4.122.615-4.122 1.374v6.871c0 .76 1.846 1.374 4.122 1.374s4.123-.615 4.123-1.374v-6.871c0-.76-1.846-1.374-4.123-1.374m0 1.374c1.016.001 1.995.127 2.75.354v.668c-.756.226-1.735.352-2.75.352-1.015-.001-1.994-.127-2.748-.354v-.669c.755-.226 1.734-.35 2.748-.351M8.245 9.624v6.873h2.748V9.624zm0 8.245v2.748h2.748V17.87z"/></svg>