<svg version="1.1" viewBox="0 0 22 22" xmlns="http://www.w3.org/2000/svg">
 <defs>
  <linearGradient id="b" x1=".0002188" x2=".0002188" y1="64" y2=".003907" gradientTransform="scale(1 .9998)" gradientUnits="userSpaceOnUse">
   <stop stop-color="#0500ff" offset="0"/>
   <stop stop-color="#4ad7ff" offset="1"/>
  </linearGradient>
  <linearGradient id="a" y1="1">
   <stop stop-color="#f00" offset="0"/>
   <stop stop-color="#ff0086" offset="1"/>
  </linearGradient>
 </defs>
 <path transform="translate(-0) scale(1) translate(-0 2e-6) scale(1) translate(-.000509 .004471) scale(.9997) translate(.000954 -.000415) scale(1) matrix(.3437 0 0 .3437 -.000522 .000306)" d="m18.3 0.004792v0.005683c-1.19 0.01242-2.326 0.3863-3.358 0.9035-1.183 0.591-2.353 1.373-3.87 2.37l-5.489 3.608c-1.472 0.9678-2.625 1.703-3.608 2.58-0.9825 0.8772-1.915 2.19-1.972 3.728-0.0571 1.536 0.7756 2.914 1.688 3.864 0.9116 0.9504 2.01 1.771 3.404 2.853l4.626 3.591-4.626 3.58c-1.395 1.082-2.494 1.908-3.404 2.858-0.9116 0.9504-1.745 2.328-1.688 3.864s0.99 2.849 1.972 3.728c0.9812 0.8769 2.135 1.618 3.608 2.586l4.268 2.807v4.819c0 1.841 0.1413 3.468 1.034 4.955 0.8933 1.487 2.283 2.384 3.938 3.228l13.13 6.694c1.452 0.7403 2.494 1.37 4.046 1.37 0.7745 0 1.422-0.1598 2.057-0.4092-0.04994-0.07246-0.09609-0.1452-0.1421-0.2216l-1.074-1.79c-0.4829-0.8061-0.6718-1.724-0.591-2.614-0.1555 0.06283-0.2358 0.09237-0.2557 0.1023-0.05411-0.02691-0.5465-0.1832-1.813-0.8297l-13.13-6.7c-1.368-0.698-1.796-1.096-1.961-1.37-0.1647-0.2742-0.3296-0.8721-0.3296-2.421v-1.591c0.4831 0.3139 0.932 0.5911 1.421 0.8353 0.7328 0.3659 1.682 0.6631 2.671 0.5853 0.9891-0.07804 1.878-0.5252 2.546-1 0.6682-0.4749 1.234-1.002 1.955-1.654l7.41-6.694c0.2418-0.7886 0.7129-1.516 1.409-2.074l5.143-4.12a1.455 1.455 0 0 0 0.0057 0c0.7324-0.5851 1.632-0.9163 2.569-0.9433h0.0057a1.455 1.455 0 0 1 0.01705 0c0.509-0.01017 1.01 0.07139 1.483 0.233l8.774-4.785v-0.0057l5.734 4.444c0.259 0.2007 0.5021 0.3928 0.7331 0.5739 1.583-0.3759 3.353 0.1269 4.444 1.529a1.455 1.455 0 0 0 0.0057 0l2.25 2.898c0.381-0.6427 0.6412-1.375 0.6706-2.165 0.05681-1.536-0.7756-2.912-1.688-3.864-0.9116-0.9504-2.002-1.777-3.398-2.858l-4.626-3.586 4.626-3.586c1.396-1.082 2.486-1.907 3.398-2.858s1.744-2.326 1.688-3.864c-0.05717-1.536-0.99-2.851-1.972-3.728-0.9812-0.8769-2.135-1.612-3.608-2.58l-5.489-3.608c-1.516-0.9963-2.685-1.779-3.87-2.37-1.185-0.5914-2.499-0.9948-3.876-0.8865-1.375 0.1083-2.615 0.7161-3.694 1.483-1.079 0.7676-2.118 1.716-3.472 2.938l-6.024 5.444-6.018-5.444c-1.352-1.222-2.389-2.171-3.472-2.938-1.08-0.7676-2.32-1.375-3.694-1.483-0.1719-0.01354-0.3414-0.01883-0.5114-0.01705zm0.02841 4.921c0.03478 7.081e-4 0.06794 0.00868 0.1023 0.01136 0.2782 0.02192 0.5362 0.09279 1.222 0.5796 0.6852 0.4869 1.678 1.364 3.029 2.586l5.603 5.069-14 7.637-6.183-4.785c-1.395-1.082-2.394-1.884-2.864-2.375-0.1203-0.1254-0.1989-0.2112-0.25-0.2671 0.05503-0.05159 0.1376-0.1286 0.2671-0.2444 0.5037-0.4502 1.558-1.163 3.029-2.131l5.495-3.614c1.516-0.9963 2.613-1.707 3.358-2.08 0.6511-0.3254 0.9406-0.3903 1.188-0.3864zm27.35 0.00568c0.2471-0.00435 0.5289 0.05482 1.182 0.3807 0.7459 0.3728 1.851 1.089 3.364 2.086l5.495 3.608c1.472 0.9678 2.52 1.686 3.023 2.137 0.1302 0.1163 0.2128 0.1932 0.2671 0.2444-0.05044 0.0552-0.129 0.141-0.25 0.2671-0.4706 0.4906-1.469 1.289-2.864 2.37l-6.177 4.79-14-7.637 5.609-5.075c1.352-1.222 2.338-2.099 3.023-2.586 0.6852-0.487 0.9488-0.558 1.227-0.5796 0.03475-0.00274 0.06699-0.00506 0.1023-0.00568zm-13.67 11.82 12.91 7.041-12.91 7.046-12.91-7.046zm-18.17 9.786 14.05 7.66-7.831 7.075c-0.721 0.6517-1.232 1.102-1.506 1.296-0.03223 0.02297-0.05685 0.04105-0.07956 0.05683-0.02218-0.01083-0.04953-0.02463-0.07956-0.03978-0.2959-0.1479-0.8738-0.5082-1.682-1.04l-8.427-5.541c-1.472-0.9678-2.52-1.686-3.023-2.137-0.1316-0.1176-0.2179-0.1985-0.2728-0.25 0.05103-0.05648 0.1277-0.1396 0.25-0.2671 0.4706-0.4906 1.469-1.294 2.864-2.375z" fill="url(#b)"/>
 <path transform="translate(-0) scale(1) translate(-0 2e-6) scale(1) translate(-.000509 .004471) scale(.9997) translate(.000954 -.000415) scale(1)" d="m13.73 11.18a0.985 0.985 0 0 0-0.5878 0.2151l-1.768 1.417a0.9887 0.9887 0 0 0 0.0258 1.563 61.97 61.97 0 0 1 3.219 2.578 60.53 60.53 0 0 1-2.727 2.721 0.988 0.988 0 0 0-0.1721 1.229l0.3699 0.615a0.9865 0.9865 0 0 0 1.452 0.2695c1.146-0.8977 2.286-1.799 3.401-2.733a60.65 60.65 0 0 1 2.437 2.457 0.988 0.988 0 0 0 1.27 0.1477l0.8742-0.5849c0.4676-0.3118 0.5824-0.955 0.2437-1.409a63.48 63.48 0 0 0-2.275-2.874 38.48 38.48 0 0 0 2.264-2.324c0.3176-0.357 0.331-0.8867 0.04157-1.259l-1.194-1.537c-0.4025-0.517-1.182-0.5037-1.572 0.01577a62.42 62.42 0 0 1-1.918 2.434 61.88 61.88 0 0 0-2.688-2.674 0.985 0.985 0 0 0-0.6939-0.2667z" fill="url(#a)" stroke-width=".734"/>
</svg>
