<svg version="1.1" viewBox="0 0 22 22" xmlns="http://www.w3.org/2000/svg">
 <defs>
  <linearGradient id="b" x1=".0002244" x2=".0002244" y1="64.01" y2=".00368" gradientTransform="scale(1 .9998)" gradientUnits="userSpaceOnUse">
   <stop stop-color="#0500ff" offset="0"/>
   <stop stop-color="#4ad7ff" offset="1"/>
  </linearGradient>
 </defs>
 <path transform="translate(0) scale(1) translate(0) scale(1) translate(.000722 -.000409) scale(1) translate(-.000999 .000959) scale(1) translate(.000887 .001631) scale(.3437)" d="m18.3 0.00662c-1.19 0.01242-2.332 0.3864-3.364 0.9035-1.183 0.5909-2.342 1.378-3.859 2.375l-5.495 3.608c-1.472 0.9677-2.62 1.697-3.603 2.574-0.9824 0.8771-1.921 2.191-1.978 3.728-0.05709 1.536 0.7752 2.92 1.688 3.87 0.9115 0.9503 2.01 1.765 3.404 2.847l4.626 3.591-4.626 3.586c-1.395 1.082-2.494 1.903-3.404 2.853-0.9115 0.9503-1.744 2.334-1.688 3.87 0.05699 1.536 0.9954 2.843 1.978 3.722 0.9811 0.8768 2.13 1.618 3.603 2.586l4.268 2.807v4.819c0 1.841 0.1416 3.468 1.034 4.955 0.8932 1.487 2.283 2.385 3.938 3.228l13.13 6.688c1.452 0.7402 2.5 1.37 4.052 1.37s2.6-0.6295 4.052-1.37l4.364-2.222c-0.1748-0.1137-0.3407-0.2476-0.4944-0.3978a1.96 1.96 0 0 0-0.005682-0.005682l-3.262-3.216-2.853 1.455c-1.267 0.6464-1.759 0.8028-1.813 0.8297-0.0541-0.02691-0.5471-0.1833-1.813-0.8297l-13.13-6.7c-1.368-0.6979-1.796-1.096-1.961-1.37-0.1647-0.2742-0.3296-0.8722-0.3296-2.421v-1.591c0.483 0.3139 0.932 0.5911 1.421 0.8353 0.7327 0.3659 1.682 0.6631 2.671 0.5853 0.989-0.07803 1.878-0.5253 2.546-1 0.6681-0.4748 1.228-0.996 1.949-1.648l8.649-7.808 6.018 5.433c0.009269 0.008378 0.01917 0.02006 0.02841 0.02841 0.8721 0.06762 1.697 0.4412 2.324 1.063l0.8013 0.7956a1.96 1.96 0 0 1 0.02273 0.04546l2.034 2.006c0.1732 0.0733 0.3496 0.1395 0.5285 0.1989-0.3704-1.096-0.2649-2.296 0.608-3.154l1.489-1.466c-0.09964 0.0118-0.1856 0.01252-0.2728 0.005682-0.2784-0.02199-0.5416-0.09277-1.227-0.5796-0.6851-0.4868-1.673-1.364-3.023-2.586l-5.211-4.711 14.05-7.66 5.728 4.438c1.395 1.081 2.394 1.879 2.864 2.37 0.1224 0.1276 0.199 0.2163 0.25 0.2728-0.05493 0.05152-0.1355 0.1324-0.2671 0.25-0.2123 0.1898-0.5235 0.427-0.9206 0.7103l4.808 0.08524h0.005682c0.4154 0.007488 0.8121 0.09737 1.176 0.25 0.1096-0.3501 0.1791-0.7159 0.1932-1.097 0.0568-1.536-0.7752-2.912-1.688-3.864-0.9115-0.9503-2.002-1.783-3.398-2.864l-4.631-3.58 4.631-3.591c1.396-1.082 2.486-1.902 3.398-2.853s1.744-2.326 1.688-3.864c-0.05716-1.536-0.9954-2.852-1.978-3.728-0.9811-0.8768-2.13-1.612-3.603-2.58l-5.489-3.603c-1.516-0.9962-2.679-1.784-3.864-2.375-1.185-0.5913-2.504-0.989-3.881-0.8808-1.375 0.1083-2.615 0.7109-3.694 1.477-1.079 0.7675-2.118 1.716-3.472 2.938l-6.018 5.444-6.018-5.444c-1.352-1.222-2.395-2.17-3.478-2.938-1.08-0.7675-2.32-1.369-3.694-1.477-0.1719-0.01354-0.3414-0.02451-0.5114-0.02273h-0.005683zm-0.07387 4.921c0.03282-0.001938 0.06567-4.875e-4 0.0966 0h0.005682c0.03478 7.08e-4 0.06226 0.002993 0.0966 0.005683 0.2782 0.02192 0.5416 0.09855 1.227 0.5853 0.6851 0.4868 1.672 1.364 3.023 2.586l5.609 5.069-14 7.637-6.177-4.785c-1.395-1.082-2.4-1.884-2.87-2.375-0.1203-0.1254-0.1989-0.2112-0.25-0.2671 0.05502-0.05158 0.1433-0.1286 0.2728-0.2444 0.5036-0.4502 1.552-1.169 3.023-2.137l5.495-3.608c1.516-0.9962 2.613-1.713 3.358-2.086 0.5696-0.2847 0.8613-0.3672 1.091-0.3807zm27.45 0c0.2471-0.00435 0.5343 0.06054 1.188 0.3864 0.7458 0.3728 1.851 1.083 3.364 2.08l5.489 3.614c1.472 0.9677 2.52 1.68 3.023 2.131 0.1302 0.1163 0.2185 0.1933 0.2728 0.2444-0.05044 0.05519-0.129 0.1467-0.25 0.2728-0.4706 0.4906-1.469 1.289-2.864 2.37l-6.183 4.785-14-7.637 5.603-5.069c1.352-1.222 2.338-2.099 3.023-2.586 0.6851-0.487 0.9484-0.558 1.227-0.5796 0.03475-0.00274 0.06701-0.005063 0.1023-0.005683v-0.005683zm-13.67 11.82 12.91 7.046-12.91 7.041-12.91-7.041 12.91-7.046zm-18.17 9.786 14.05 7.66-7.831 7.075c-0.7209 0.6516-1.232 1.102-1.506 1.296-0.03223 0.02297-0.05685 0.04105-0.07956 0.05683-0.02218-0.01083-0.04953-0.02463-0.07956-0.03978-0.2959-0.1479-0.8735-0.5082-1.682-1.04l-8.427-5.541c-1.472-0.9677-2.52-1.686-3.023-2.137-0.1316-0.1176-0.2179-0.1985-0.2728-0.25 0.05102-0.05647 0.1277-0.1396 0.25-0.2671 0.4706-0.4906 1.469-1.289 2.864-2.37l5.734-4.444zm40.01 24.42-1.012 0.9945a1.96 1.96 0 0 0-0.005682 0.005682c-1.157 1.131-2.945 1.1-4.217 0.1591 0.8604 1.266 0.9044 2.977-0.2273 4.08l-0.2955 0.2898 1.097-0.5569c1.655-0.8443 3.044-1.743 3.938-3.228 0.3359-0.5592 0.5666-1.142 0.7217-1.745z" fill="url(#b)"/>
 <path transform="translate(0) scale(1) translate(0) scale(1) translate(.000722 -.000409) scale(1) translate(-.000999 .000959) scale(1)" d="m18.92 12.54a0.602 0.602 0 0 0-0.4383 0.1753l-0.2769 0.2737 0.0053 0.0053-2.486 2.449a0.4411 0.4411 0 0 0 0 0.6294l1.324 1.305a0.4581 0.4581 0 0 0 0.6404 0l2.495-2.455v0.0011l1.642-1.571c0.289-0.2758 0.0949-0.7586-0.3068-0.7651zm-5.955 2.764-0.0011 0.0011-2.599 0.04489c-0.4023 0.0072-0.5949 0.4868-0.3057 0.7629l1.642 1.572 2.494 2.455a0.4581 0.4581 0 0 0 0.6404 0l1.324-1.306a0.4395 0.4395 0 0 0 0-0.6294l-2.485-2.448 0.0053-0.0053-0.2769-0.2737a0.602 0.602 0 0 0-0.4383-0.1743z" fill="#0f0" stroke-width=".5473"/>
</svg>
