<svg version="1.1" viewBox="0 0 22 22" xmlns="http://www.w3.org/2000/svg">
 <defs>
  <linearGradient id="a" x1="11.8" x2="11.8" y1="22" y2="11.79" gradientTransform="matrix(.01745 .9999 -.9998 .01745 33.5 -.2985)" gradientUnits="userSpaceOnUse">
   <stop stop-color="#00f0ff" offset="0"/>
   <stop stop-color="#00c3ff" offset="1"/>
  </linearGradient>
  <linearGradient id="b" x2="0" y1="1">
   <stop stop-color="#0500ff" offset="0"/>
   <stop stop-color="#4ad7ff" offset="1"/>
  </linearGradient>
 </defs>
 <path transform="translate(-.000509 .003038) scale(.9998) translate(.000954 -.000365) scale(1) translate(-.000522 .000306) scale(.3437)" d="m18.3 0.004792v0.005683c-1.19 0.01242-2.326 0.3863-3.358 0.9035-1.183 0.591-2.353 1.373-3.87 2.37l-5.489 3.608c-1.472 0.9678-2.625 1.703-3.608 2.58-0.9825 0.8772-1.915 2.19-1.972 3.728-0.0571 1.536 0.7756 2.914 1.688 3.864 0.9116 0.9504 2.01 1.771 3.404 2.853l4.626 3.591-4.626 3.58c-1.395 1.082-2.494 1.908-3.404 2.858-0.9116 0.9504-1.745 2.328-1.688 3.864s0.99 2.849 1.972 3.728c0.9812 0.8769 2.135 1.618 3.608 2.586l4.268 2.807v4.819c0 1.841 0.1413 3.468 1.034 4.955 0.8933 1.487 2.283 2.384 3.938 3.228l13.13 6.694c1.452 0.7403 2.494 1.37 4.046 1.37s2.6-0.6293 4.052-1.37l2.37-1.205c-1.273-1.117-2.373-2.428-3.25-3.887l-1.364 0.699c-1.267 0.6465-1.759 0.8028-1.813 0.8297-0.05411-0.02691-0.5465-0.1832-1.813-0.8297l-13.13-6.7c-1.368-0.698-1.796-1.096-1.961-1.37-0.1647-0.2742-0.3296-0.8721-0.3296-2.421v-1.591c0.4831 0.3139 0.932 0.5911 1.421 0.8353 0.7328 0.3659 1.682 0.6631 2.671 0.5853 0.9891-0.07804 1.878-0.5252 2.546-1 0.6682-0.4749 1.234-1.002 1.955-1.654l8.643-7.808 3.501 3.16c0.9035-1.384 2.01-2.62 3.279-3.671l-2.654-2.404 14.05-7.66v-0.005683l5.734 4.444c1.395 1.081 2.394 1.879 2.864 2.37 0.1224 0.1276 0.199 0.2163 0.25 0.2728-0.05494 0.05152-0.1412 0.1324-0.2728 0.25-0.3098 0.2769-0.8233 0.6559-1.517 1.131 1.496 0.8554 2.842 1.938 3.995 3.205 0.2829-0.2171 0.5553-0.4353 0.8126-0.6649 0.9812-0.8769 1.915-2.192 1.972-3.728 0.05681-1.536-0.7756-2.912-1.688-3.864-0.9116-0.9504-2.002-1.777-3.398-2.858l-4.626-3.586 4.626-3.586c1.396-1.082 2.486-1.907 3.398-2.858s1.744-2.326 1.688-3.864c-0.05717-1.536-0.99-2.851-1.972-3.728-0.9812-0.8769-2.135-1.612-3.608-2.58l-5.489-3.608c-1.516-0.9963-2.685-1.779-3.87-2.37-1.185-0.5914-2.499-0.9948-3.876-0.8865-1.375 0.1083-2.615 0.7161-3.694 1.483-1.079 0.7676-2.118 1.716-3.472 2.938l-6.024 5.444-6.018-5.444c-1.352-1.222-2.389-2.171-3.472-2.938-1.08-0.7676-2.32-1.375-3.694-1.483-0.1719-0.01354-0.3414-0.01883-0.5114-0.01705h-0.005683zm0.02841 4.921c0.03478 7.081e-4 0.06794 0.008675 0.1023 0.01137 0.2782 0.02192 0.5362 0.09279 1.222 0.5796 0.6852 0.4869 1.678 1.364 3.029 2.586l5.603 5.069-14 7.637-6.183-4.785c-1.395-1.082-2.394-1.884-2.864-2.375-0.1203-0.1254-0.1989-0.2112-0.25-0.2671 0.05503-0.05159 0.1376-0.1286 0.2671-0.2444 0.5037-0.4502 1.558-1.163 3.029-2.131l5.495-3.614c1.516-0.9963 2.613-1.707 3.358-2.08 0.6511-0.3254 0.9406-0.3903 1.188-0.3864zm27.35 0.005683c0.2471-0.00435 0.5289 0.05482 1.182 0.3807 0.7459 0.3728 1.851 1.089 3.364 2.086l5.495 3.608c1.472 0.9678 2.52 1.686 3.023 2.137 0.1302 0.1163 0.2128 0.1932 0.2671 0.2444-0.05044 0.0552-0.129 0.141-0.25 0.2671-0.4706 0.4906-1.469 1.289-2.864 2.37l-6.177 4.79-14-7.637 5.609-5.075c1.352-1.222 2.338-2.099 3.023-2.586 0.6852-0.487 0.9488-0.558 1.227-0.5796 0.03475-0.00274 0.06699-0.005063 0.1023-0.005683zm-13.67 11.82 12.91 7.041-12.91 7.046-12.91-7.046 12.91-7.041zm-18.17 9.786 14.05 7.66-7.831 7.075c-0.721 0.6517-1.232 1.102-1.506 1.296-0.03223 0.02297-0.05685 0.04105-0.07956 0.05683-0.02218-0.01083-0.04953-0.02463-0.07956-0.03978-0.2959-0.1479-0.8738-0.5082-1.682-1.04l-8.427-5.541c-1.472-0.9678-2.52-1.686-3.023-2.137-0.1316-0.1176-0.2179-0.1985-0.2728-0.25 0.05103-0.05648 0.1277-0.1396 0.25-0.2671 0.4706-0.4906 1.469-1.294 2.864-2.375l5.739-4.438z" fill="url(#b)"/>
 <path transform="translate(-.000509 .003038) scale(.9998)" d="m22 16.84c-0.01655-1.834-1.028-3.529-2.63-4.416a0.7289 0.7289 0 1 0-0.7058 1.275 3.647 3.647 0 0 1-0.04971 6.406l0.0094-0.05298 0.01127-0.06648c0.0984-0.7975-0.9718-1.209-1.426-0.5096l-0.854 1.316-0.0332 0.05546c-0.2731 0.5063 0.08798 1.159 0.7034 1.144a5.103 5.103 0 0 0 4.822-3.868c0.1071-0.4298 0.1553-0.8606 0.1515-1.284zm-4.437-4.301-0.0011-0.0031c-0.01508-0.3967-0.3334-0.7614-0.7952-0.7496a5.103 5.103 0 0 0-4.821 3.868c-0.5719 2.292 0.5055 4.608 2.478 5.705a0.7295 0.7295 0 1 0 0.7046-1.277 3.647 3.647 0 0 1 0.0508-6.401l-0.01045 0.05405-0.01023 0.06647c-0.09839 0.7981 0.9702 1.209 1.424 0.5096l0.854-1.316 0.0332-0.05546c0.06837-0.1266 0.09754-0.2629 0.09253-0.3952z" fill="url(#a)" stroke-width=".5301"/>
</svg>
