<svg version="1.1" viewBox="0 0 22 22" xmlns="http://www.w3.org/2000/svg">
 <path transform="translate(9.9e-5 -1e-6) scale(.9999) translate(.005901 .003907) scale(1)" d="m4.121-0.003906c-4.126 0-4.127 4.127-4.127 4.127v13.75s4.496e-4 4.125 4.127 4.125h13.75c4.126 0 4.125-4.125 4.125-4.125v-13.75s0.0015-4.119-4.125-4.119zm0 1.381h13.75c2.746 0 2.752 2.746 2.752 2.746v13.75s0.0014 2.752-2.752 2.752h-13.75c-2.746 0-2.746-2.752-2.746-2.752v-13.75s-2.851e-4 -2.746 2.746-2.746zm4.092 4.092v8.246c-0.00103-0.8021-0.2098-1.521-0.7148-2.033a2.774 2.774 0 0 0-2.031-0.7148c-0.5756 0-0.8822-0.1372-1.062-0.3106-0.1803-0.1872-0.3106-0.4869-0.3106-1.062s0.1302-0.8802 0.3106-1.06 0.4869-0.3184 1.062-0.3184 0.8802 0.138 1.06 0.3184c0.1803 0.1803 0.3125 0.4849 0.3125 1.06h1.373c0-0.8045-0.2086-1.525-0.7148-2.031s-1.234-0.7207-2.031-0.7207-1.527 0.2075-2.033 0.7207c-0.5063 0.4993-0.7207 1.227-0.7207 2.031 0 0.8045 0.2075 1.527 0.7207 2.033a2.774 2.774 0 0 0 2.033 0.7148c0.5687 0 0.8733 0.1372 1.06 0.3106 0.1803 0.1872 0.3125 0.4869 0.3125 1.062s-0.1391 0.8802-0.3125 1.06c-0.1872 0.1803-0.4849 0.3184-1.06 0.3184s-0.8822-0.138-1.062-0.3184-0.3106-0.4849-0.3106-1.06h-1.381c0 0.8045 0.2075 1.525 0.7207 2.031 0.5063 0.5063 1.229 0.7207 2.033 0.7207s1.525-0.2075 2.031-0.7207a2.774 2.774 0 0 0 0.7148-1.695v2.416h1.381v-3.148l3.148 3.148h2.35v-3.148l3.148 3.148h1.943l-4.121-4.119 4.127-4.127h-1.941l-3.156 3.156v-5.902h-1.379v2.746h-0.9707l-3.148 3.156v-5.902zm5.5 3.717v6.305l-3.143-3.148z" fill="#f0f"/>
</svg>
