<svg version="1.1" viewBox="0 0 22 22" xmlns="http://www.w3.org/2000/svg">
 <path transform="translate(0) scale(1) translate(0) scale(1)" d="m4.125 0c-2.285 0-4.125 1.84-4.125 4.125v13.75c0 2.285 1.84 4.125 4.125 4.125h13.75c2.285 0 4.125-1.84 4.125-4.125v-13.75c0-2.285-1.84-4.125-4.125-4.125zm7.287 2.201 2.75 2.062-0.8242 1.1-2.75-2.062zm-8.176 0.0625 2.75 2.75-0.9727 0.9727-2.75-2.75zm3.639 3.236h12.38v1.375h-5.5v4.125h4.125v1.375h-4.125v5.5h5.5v1.375h-12.38v-1.375h5.5v-5.5h-4.125v-1.375h4.125v-4.125h-5.5zm-3.639 0.8887 2.75 2.75-0.9727 0.9727-2.75-2.75zm1.611 4.393 1.307 0.4336-2.75 8.25-1.307-0.4336z" fill="#00FF80"/>
</svg>
