<svg version="1.1" viewBox="0 0 22 22" xmlns="http://www.w3.org/2000/svg">
 <defs>
  <linearGradient id="b" y1="1">
   <stop stop-color="#f00" offset="0"/>
   <stop stop-color="#ff0086" offset="1"/>
  </linearGradient>
  <linearGradient id="a" x1="6.66" x2="16.17" y1="17.92" y2="8.409" gradientTransform="matrix(1.132 0 0 1.024 -1.922 -2.488)" gradientUnits="userSpaceOnUse">
   <stop stop-color="#f00" offset="0"/>
   <stop stop-color="#ff0086" offset="1"/>
  </linearGradient>
 </defs>
 <path transform="translate(-.004301 -2.5e-5) scale(1) translate(.00145 .000521) scale(1)" d="m10.68 0.009766a5.006 5.006 0 0 0-1.842 0.4805h-0.00195l-6.4 3.072a3.626 3.626 0 0 0-2.055 3.264v0.7559a15.25 15.25 0 0 0 7.029 12.84l1.492 0.957a3.884 3.884 0 0 0 4.197 0l1.492-0.957a15.25 15.25 0 0 0 7.029-12.84v-0.7559c0-1.393-0.7978-2.661-2.055-3.264l-6.402-3.072a5.006 5.006 0 0 0-2.482-0.4805zm0.1465 2.27h0.0039a2.731 2.731 0 0 1 1.352 0.2637l6.4 3.068a1.35 1.35 0 0 1 0.7637 1.215v0.7559a12.97 12.97 0 0 1-5.978 10.92l-1.496 0.957a1.608 1.608 0 0 1-1.736 0l-1.496-0.957a12.97 12.97 0 0 1-5.978-10.92v-0.7559c0-0.5173 0.2999-0.9903 0.7656-1.215l6.4-3.068a2.731 2.731 0 0 1 1-0.2637z" fill="url(#b)"/>
 <path transform="translate(-.004301 -2.5e-5) scale(1)" d="m6.693 6.127a1.077 1.077 0 0 0-0.7613 0.3155 1.077 1.077 0 0 0 0 1.523l0.3155 0.3155-0.3155 0.3155a1.077 1.077 0 0 0 0 1.523 1.077 1.077 0 0 0 1.523 0l0.3155-0.3155 0.3155 0.3155a1.077 1.077 0 0 0 1.523 0 1.077 1.077 0 0 0 0-1.523l-0.3155-0.3155 0.3155-0.3155a1.077 1.077 0 0 0 0-1.523 1.077 1.077 0 0 0-1.523 0l-0.3155 0.3155-0.3155-0.3155a1.077 1.077 0 0 0-0.7613-0.3155zm6.461 0a1.077 1.077 0 0 0-0.7613 0.3155 1.077 1.077 0 0 0 0 1.523l0.3155 0.3155-0.3155 0.3155a1.077 1.077 0 0 0 0 1.523 1.077 1.077 0 0 0 1.523 0l0.3155-0.3155 0.3155 0.3155a1.077 1.077 0 0 0 1.523 0 1.077 1.077 0 0 0 0-1.523l-0.3155-0.3155 0.3155-0.3155a1.077 1.077 0 0 0 0-1.523 1.077 1.077 0 0 0-1.523 0l-0.3155 0.3155-0.3155-0.3155a1.077 1.077 0 0 0-0.7613-0.3155zm-2.154 6.468c-1.258 0-2.517 0.4822-3.462 1.447a1.077 1.077 0 0 0 0.01682 1.523 1.077 1.077 0 0 0 1.523-0.01472c1.065-1.088 2.779-1.088 3.844 0a1.077 1.077 0 0 0 1.523 0.01472 1.077 1.077 0 0 0 0.01683-1.523c-0.9453-0.9648-2.204-1.447-3.462-1.447z" fill="url(#a)" stroke-width="1.077"/>
</svg>
