<svg version="1.1" viewBox="0 0 22 22" xmlns="http://www.w3.org/2000/svg" xmlns:xlink="http://www.w3.org/1999/xlink">
 <defs>
  <linearGradient id="a" y1=".5" y2=".5">
   <stop stop-color="#f7f206" offset="0"/>
   <stop stop-color="#ffbb24" offset=".978"/>
  </linearGradient>
  <linearGradient id="b" y1=".5" y2=".5">
   <stop stop-color="#ffe031" offset="0"/>
   <stop stop-color="#fa0075" offset="1"/>
  </linearGradient>
  <linearGradient id="c" x1="1" x2="0" y1=".5" y2=".5">
   <stop stop-color="#1a6cff" offset="0"/>
   <stop stop-color="#c522ff" offset="1"/>
  </linearGradient>
 </defs>
 <path transform="translate(.001598 .002662) scale(.3437)" d="m61.47 12.93a0.05 0.05 0 0 0-0.03906 0.02734c-0.6038 1.143-1.244 2.37-2.738 3.857-3.758 3.741-10.95 8.094-24.67 10.76h-2e-3a0.05 0.05 0 0 0-2e-3 0h-0.0059a0.05 0.05 0 0 0-0.0098 0c-5.181 1.005-9.754 5.252-13.42 10.54-3.669 5.296-6.418 11.61-8.004 16.61-0.9817 3.092-1.12 5.303-1.109 6.836a0.05 0.05 0 0 0 0.09375 0.02344c0.04223-0.07153 0.05274-0.1065 0.0625-0.1328 0.0097-0.0263 0.01875-0.04898 0.06641-0.123 0.7742-1.203 2.071-2.817 4.164-4.506 4.188-3.377 11.56-7.036 24.29-8.289 4.861-0.4767 8.628-3.084 11.59-6.781 2.961-3.698 5.09-8.48 6.598-13.21 2.192-6.887 2.878-12.37 3.197-15.55a0.05 0.05 0 0 0-0.0078-0.03125l-0.0039-0.0059a0.05 0.05 0 0 0-0.04687-0.02344z" fill="url(#c)" stop-color="#000000" stroke-linecap="round" stroke-linejoin="round"/>
 <path transform="translate(.001598 .002662) scale(.3437) matrix(.9844 0 0 .9844 .5007 .4944)" d="m62.8 8.977a0.5011 0.5011 0 0 0-0.5 0.4668s-0.05072 0.6568-0.5606 1.828c-0.5098 1.171-1.472 2.808-3.297 4.625-3.65 3.632-10.76 7.994-24.58 10.68h-6e-3a0.5 0.5 0 0 0-0.0078 0c-5.649 1.094-10.44 5.618-14.24 11.1-3.801 5.487-6.621 11.97-8.258 17.13-1.655 5.214-1.115 9.248-1.115 9.248a0.5 0.5 0 0 0 0.9727 0.08398s0.2083-0.6822 0.9434-1.824c0.735-1.142 1.982-2.706 4.027-4.356 4.091-3.3 11.38-6.952 24.18-8.211 5.227-0.5126 9.302-3.346 12.42-7.24s5.309-8.855 6.863-13.74c3.102-9.747 3.65-19.2 3.652-19.24 2e-6 -3.09e-5 0.0059-0.00977 0.0059-0.00977 3e-6 -2.37e-5 0-0.01367 0-0.01367a0.5011 0.5011 0 0 0-0.5-0.5352zm-0.8613 3.703c-0.3241 3.234-1.021 8.801-3.246 15.79-1.531 4.81-3.692 9.665-6.693 13.41-3.002 3.749-6.815 6.386-11.74 6.869-12.94 1.274-20.44 4.992-24.7 8.43-2.131 1.719-3.451 3.366-4.24 4.592-0.09909 0.154-0.04963 0.1188-0.1328 0.2598-0.0109-1.554 0.1294-3.789 1.125-6.926 1.61-5.075 4.4-11.49 8.123-16.86 3.722-5.373 8.362-9.675 13.6-10.69h0.0059a0.5 0.5 0 0 0 0.01367 0c13.96-2.71 21.27-7.138 25.09-10.95 1.523-1.516 2.178-2.768 2.791-3.93z" fill="#303030"/>
 <path transform="translate(.001598 .002662) scale(.3437)" d="m37.62 3.311a0.05 0.05 0 0 0-0.04297 0.03906c-0.1757 1.682-0.6031 3.933-1.752 6.506-2.367 5.299-7.635 11.81-19.09 16.73a0.05 0.05 0 0 0-0.02148 0.01758v2e-3h-2e-3v2e-3c-3.183 1.373-5.127 4.284-6.264 7.971-1.139 3.692-1.441 8.137-1.318 12.41 0.1718 6.036 1.003 10.65 1.576 13.46a0.05 0.05 0 0 0 0.09766 0c0.281-1.487 0.7188-3.304 1.818-5.447 2.444-4.765 7.564-10.57 18.17-14.84 4.592-1.848 7.238-5.179 8.676-9.201 1.439-4.023 1.637-8.739 1.248-13.23-0.576-6.647-2.106-11.62-3.033-14.37v-0.00585a0.05 0.05 0 0 0-2e-3 0 0.05 0.05 0 0 0-0.05469-0.04297zm-20.85 23.38a0.05 0.05 0 0 1-0.01172 0.0059 0.05 0.05 0 0 0 0.01172-0.0059z" fill="url(#b)" stop-color="#000000" stroke-linecap="round" stroke-linejoin="round"/>
 <path transform="translate(.001598 .002662) scale(.3437) matrix(.9844 0 0 .9844 .5007 .4944)" d="m37.28-0.502a0.5 0.5 0 0 0-0.4746 0.5664s0.5172 3.887-1.793 9.059c-2.31 5.172-7.446 11.59-18.91 16.51a0.5 0.5 0 0 0-0.01367 0.01953c-3.553 1.533-5.693 4.779-6.896 8.684-1.205 3.91-1.506 8.509-1.381 12.91 0.2507 8.811 2.209 16.87 2.209 16.87a0.5 0.5 0 0 0 0.9863-0.1523s-0.2373-3.515 2.143-8.156c2.38-4.641 7.374-10.37 17.96-14.63 4.916-1.979 7.819-5.626 9.35-9.906s1.724-9.193 1.32-13.85c-0.8066-9.305-4.018-17.61-4.018-17.61a0.5 0.5 0 0 0-0.4883-0.3223zm0.4277 3.408c0.9411 2.792 2.496 7.85 3.082 14.6 0.3957 4.564 0.1939 9.348-1.264 13.42-1.458 4.076-4.135 7.446-8.785 9.318-10.78 4.337-15.99 10.25-18.48 15.1-1.119 2.183-1.566 4.034-1.852 5.547-0.5818-2.868-1.423-7.545-1.598-13.67-0.1235-4.34 0.1805-8.85 1.334-12.59 1.154-3.742 3.124-6.687 6.35-8.072a0.5 0.5 0 0 0 0.0098-0.01367c11.65-5 17.01-11.62 19.42-17.02 1.17-2.619 1.604-4.913 1.783-6.625z" fill="#303030"/>
 <path transform="translate(.001598 .002662) scale(.3437)" d="m14.29 7.029a0.05 0.05 0 0 0-0.0059 0.00195 0.05 0.05 0 0 0-0.02344 0.01367 0.05 0.05 0 0 0 2e-3 0.03125l-0.0098-0.00195c0.09734 1.432 0.09726 3.479-0.3848 6.313-0.8872 5.216-3.388 12.57-9.795 21.2-1.742 2.347-2.189 5.273-1.852 8.396 0.3374 3.124 1.471 6.424 2.832 9.428 2.098 4.631 3.801 6.787 4.898 8.334a0.05 0.05 0 0 0 0.08984-0.03516c-0.1718-1.141-0.3594-2.35-0.2031-4.09 0.3963-4.411 2.379-10.63 8.631-17.92 2.703-3.151 3.738-6.792 3.766-10.49 0.02726-3.697-0.9532-7.451-2.285-10.84-2.041-5.186-4.386-8.637-5.607-10.34v0.02344a0.05 0.05 0 0 0-0.05274-0.03516z" fill="url(#a)" stop-color="#000000" stroke-linecap="round" stroke-linejoin="round"/>
 <path transform="translate(.001598 .002662) scale(.3437) matrix(.9844 0 0 .9844 .5007 .4944)" d="m13.27 4.238a0.5 0.5 0 0 0-0.4629 0.6172s0.7048 2.928-0.1719 8.082-3.347 12.48-9.772 21.13c-1.949 2.625-2.42 5.867-2.06 9.193 0.3593 3.326 1.541 6.76 2.949 9.869 2.793 6.165 6.444 10.98 6.508 11.06 2.1e-5 2.9e-5 -1.9e-5 0.0056 0 0.0059 5.19e-4 6.85e-4 0.05664 0.0918 0.05664 0.0918a0.5 0.5 0 0 0 0.8516-0.5098s-1.131-2.403-0.7461-6.684c0.3845-4.28 2.303-10.4 8.545-17.67 5.805-6.767 4.431-15.59 1.666-22.62-2.765-7.027-6.947-12.38-6.947-12.38a0.5 0.5 0 0 0-0.416-0.1914zm0.7441 2.441c1.239 1.731 3.618 5.231 5.69 10.49 2.703 6.868 3.978 15.23-1.496 21.61-6.357 7.407-8.376 13.74-8.779 18.23-0.1593 1.773 0.0325 3.007 0.207 4.166-1.116-1.574-2.842-3.757-4.971-8.457-1.381-3.048-2.529-6.397-2.871-9.562-0.3419-3.165 0.1109-6.123 1.871-8.494 6.513-8.766 9.054-16.25 9.957-21.56 0.4903-2.882 0.4917-4.966 0.3926-6.424z" fill="#303030"/>
</svg>
