<svg version="1.1" viewBox="0 0 22 22" xmlns="http://www.w3.org/2000/svg">
 <defs>
  <linearGradient id="a" y1="1">
   <stop stop-color="#5433ff" offset="0"/>
   <stop stop-color="#20bdff" offset=".5"/>
   <stop stop-color="#a5fecb" offset="1"/>
  </linearGradient>
 </defs>
 <path transform="translate(.004047 -.00048) scale(.9996) translate(-1.289 -1.303) scale(1.024)" d="m6.704 2.287c-0.5674 0.005219-1.129 0.1656-1.663 0.4749-0.3416 0.1978-0.7054 0.5086-0.7801 1.007-0.07474 0.4989 0.1793 0.9076 0.4635 1.215a0.7501 0.7501 0 0 0 0.003815 0.005722l4.29 4.56-1.137 0.8297c-0.684 0.5-0.9377 0.6563-1.12 0.6886-0.5504 0.09734-1.693-0.3653-2.726-0.6542-0.4637-0.1291-0.9288-0.09759-1.421 0.03624-0.4921 0.1338-1.082 0.4021-1.308 1.078-0.1579 0.4763 0.07721 0.981 0.2899 1.215 0.2127 0.2338 0.4211 0.3603 0.5035 0.4253l2.377 1.883c0.2385 0.189 0.3183 0.2711 0.3319 0.2823 0.00296 0.01696 0.03414 0.1243 0.08011 0.4215l0.4635 2.975c0.01583 0.1019 0.02433 0.3443 0.124 0.6447 0.0997 0.3004 0.4212 0.7462 0.9079 0.8469 0.6928 0.1439 1.228-0.2226 1.593-0.5779 0.3651-0.3553 0.6238-0.7383 0.7439-1.207 0.2638-1.03 0.4344-2.231 0.7877-2.645v-0.001908c0.117-0.1357 0.3836-0.2772 1.162-0.6104l1.335-0.5722 1.886 6.084a0.7501 0.7501 0 0 0 0 0.001908c0.1196 0.3844 0.3442 0.7989 0.8049 0.9785s0.8987 0.02492 1.228-0.164a0.7501 0.7501 0 0 0 0.001907 0c1.025-0.5876 1.614-1.563 1.642-2.779l0.1183-5.291a0.7501 0.7501 0 0 0 0-0.001908c0.01525-0.7188 0.0219-1.1 0.3281-1.392a0.75 0.75 0 0 0 0.02861-0.03052c0.4805-0.2045 1.845-0.8051 2.649-1.383 1.168-0.8405 1.55-2.061 1.835-3.166a0.7501 0.7501 0 0 0 0-0.001907c0.143-0.5593 0.2572-0.9027 0.2079-1.352-0.06634-0.6048-0.3893-1.153-0.8812-1.509a0.7501 0.7501 0 0 0-0.001908-0.001907c-0.3647-0.2623-0.7205-0.3382-1.282-0.494h-0.001907c-0.5555-0.1554-1.147-0.3025-1.764-0.3395-0.1543-0.009261-0.308-0.01198-0.4654-0.005722v-0.001907c-0.4722 0.01878-0.9569 0.1151-1.451 0.3319-1.117 0.4894-2.691 1.684-2.691 1.684l-0.07629 0.05531c-0.2259-0.08181-0.4975-0.2277-0.8106-0.3986l-0.001908-0.003815-4.904-2.689c-0.5592-0.3068-1.132-0.4553-1.699-0.4501zm0.04387 1.44c0.2631 0.001418 0.5385 0.1078 0.9365 0.3262l4.904 2.691a0.7501 0.7501 0 0 0 0.001907 0.001907c0.05098 0.02782 0.1016 0.05667 0.1545 0.08583l-2.506 1.825-4.358-4.633c0.3524-0.1966 0.6047-0.299 0.8678-0.2975zm11.68 1.52c0.1052-0.00363 0.2107-0.001958 0.3185 0.005722 0.431 0.03071 0.8882 0.1472 1.419 0.2956a0.7501 0.7501 0 0 0 0.001908 0c0.56 0.1554 0.7654 0.2375 0.8068 0.267h0.001908c0.1508 0.1101 0.2456 0.2776 0.2651 0.4559 0.0047 0.04291-0.02495 0.2578-0.1678 0.8163-0.2715 1.055-0.5088 1.782-1.259 2.321-0.6284 0.4501-2.537 1.295-2.537 1.295a0.7501 0.7501 0 0 0-0.001908 0l-5.047 2.171-2.153 0.9232c-0.7803 0.3341-1.296 0.5303-1.711 1.015-0.8902 1.04-0.9001 2.471-1.101 3.252-0.0079 0.03087-0.1622 0.3309-0.3376 0.5016-0.05394 0.05249-0.03323 0.03154-0.07439 0.05722-0.00778-0.0524-0.009084-0.0616-0.01907-0.1259l-0.4654-2.974c-0.0554-0.3581-0.08136-0.6363-0.2651-0.9499-0.1838-0.3136-0.4126-0.4738-0.6981-0.7l-2.378-1.884c-0.04382-0.03459-0.0484-0.03952-0.08583-0.06866 0.03796-0.01762 0.00891-0.009585 0.06485-0.0248 0.2396-0.06517 0.5863-0.04909 0.6256-0.03815 0.7899 0.2216 2.04 0.925 3.389 0.6866 0.6274-0.1115 1.06-0.4563 1.743-0.9556l0.003815-0.001908 1.883-1.377 4.431-3.227a0.7501 0.7501 0 0 0 0.001907 0s1.694-1.209 2.403-1.52c0.3182-0.1394 0.6268-0.2047 0.9422-0.2155zm-2.222 7.553c-0.01552 0.2154-0.01708 0.4197-0.02098 0.6027l-0.1202 5.289c-0.01883 0.8271-0.173 1.062-0.782 1.431l-1.894-6.111 2.817-1.211z" fill="url(#a)"/>
</svg>
