<svg version="1.1" viewBox="0 0 22 22" xmlns="http://www.w3.org/2000/svg">
 <defs>
  <linearGradient id="b" x1="1" x2="0" y1="1">
   <stop stop-color="#0006ff" offset="0"/>
   <stop stop-color="#00d2ff" offset="1"/>
  </linearGradient>
  <linearGradient id="a" x2="0" y2="1">
   <stop stop-color="#00f1fa" offset="0"/>
   <stop stop-color="#006cff" offset="1"/>
  </linearGradient>
 </defs>
 <path transform="translate(-0) scale(.3437) translate(-0 -1e-5) scale(1) translate(-.000124 .001073) scale(2.909) matrix(.9782 0 0 .9782 .2421 .2438)" d="m5.369 0.7715c-1.964 0-3.574 1.61-3.574 3.574v5.627c0 0.5588 0.4587 1.018 1.018 1.018s1.016-0.4587 1.016-1.018v-5.627c0-0.8655 0.6755-1.539 1.541-1.539h2.486c0.3454-5.16e-5 0.6658 0.1698 0.8574 0.457l0.3848 0.5781h-1.682c-0.5588 0-1.018 0.4568-1.018 1.016s0.4587 1.018 1.018 1.018h9.207c0.8655 0 1.539 0.6755 1.539 1.541v2.557c0 0.5588 0.4587 1.018 1.018 1.018 0.5588 0 1.018-0.4587 1.018-1.018v-2.557c0-1.964-1.61-3.574-3.574-3.574h-5.082l-1.137-1.705c-0.5678-0.8511-1.526-1.365-2.549-1.365z" fill="url(#b)"/>
 <path transform="translate(-0) scale(.3437) translate(-0 -1e-5) scale(1) translate(-.000124 .001073) scale(2.909) translate(.2421 .2438) scale(.9782)" d="m5.047 8.955c-1.074 0-1.897-0.00494-2.615 0.08398-0.7219 0.08933-1.41 0.3022-1.928 0.8184-0.05813 0.05767-0.111 0.1182-0.1621 0.1777a0.25 0.25 0 0 0-0.003906 2e-3l-0.001953 2e-3c-0.002107 0.0025-0.003762 0.0054-0.005859 0.0078a0.25 0.25 0 0 0-0.005859 0.0059c-0.4741 0.5672-0.6011 1.296-0.5664 1.996 0.03417 0.6904 0.1892 1.438 0.3809 2.4l0.1211 0.6152a0.25 0.25 0 0 0 0.02734 0.02149c0.206 1.023 0.39 1.974 0.6367 2.709 0.3035 0.9038 0.7414 1.675 1.44 2.246a0.25 0.25 0 0 0 0.00391 2e-3 0.25 0.25 0 0 0 0.02734 0.01953c0.07979 0.0646 0.1587 0.131 0.2441 0.1914v-0.004079c0.7316 0.5181 1.556 0.7638 2.566 0.875s2.215 0.0957 3.758 0.0957h4.068c1.541 0 2.745 0.01521 3.756-0.0957 1.01-0.1109 1.835-0.3556 2.566-0.873a0.25 0.25 0 0 0 2e-3 0c0.09602-0.06756 0.1871-0.1388 0.2754-0.2109 0.6984-0.5708 1.136-1.343 1.44-2.246 0.3022-0.8999 0.509-1.961 0.7852-3.346 0.1922-0.9623 0.3486-1.709 0.3828-2.4 0.03467-0.7006-0.09367-1.43-0.5684-1.996a0.25 0.25 0 0 0-0.0039-2e-3l-0.01172-0.01367-2e-3 -2e-3c-0.05122-0.05962-0.1044-0.118-0.1602-0.1737-0.5175-0.5184-1.208-0.7329-1.93-0.8223-0.7188-0.08894-1.544-0.08398-2.617-0.08398zm0 2.035h11.9c1.074 0 1.866 0.0062 2.369 0.06836 0.5079 0.06285 0.6411 0.141 0.7383 0.2383 0.02016 0.02016 0.04018 0.04303 0.05664 0.0625 0.04679 0.05603 0.06463 0.0824 0.08203 0.1582 0.01758 0.07655 0.02659 0.2099 0.01563 0.4316-0.02127 0.4297-0.1536 1.137-0.3457 2.1a0.25 0.25 0 0 0 0 0.0039c-0.2758 1.383-0.4855 2.399-0.7188 3.094-0.2348 0.6989-0.4471 1.035-0.7969 1.32-0.04971 0.04062-0.1042 0.08044-0.1621 0.1211a0.25 0.25 0 0 0 0 2e-3 0.25 0.25 0 0 0-2e-3 0c-0.7289 0.5162-2.066 0.5957-5.15 0.5957h-4.066c-3.086 0-4.421-0.07908-5.15-0.5957a0.25 0.25 0 0 0-0.00195 0 0.25 0.25 0 0 0-0.00195-2e-3c-0.05377-0.03808-0.1082-0.07922-0.1621-0.123-0.3489-0.2857-0.5624-0.6208-0.7969-1.318-0.2335-0.695-0.4427-1.711-0.7188-3.096-0.1916-0.9622-0.3244-1.672-0.3457-2.102-0.01097-0.2218-3.65e-5 -0.355 0.01758-0.4316 0.01762-0.07659 0.03424-0.1029 0.08203-0.1602 0.01822-0.02098 0.03791-0.04193 0.05273-0.05664a0.25 0.25 0 0 0 0.00195-0.0039c0.09806-0.09806 0.2322-0.1754 0.7402-0.2383 0.5022-0.06216 1.293-0.06835 2.365-0.06836z" fill="url(#a)"/>
</svg>
