<svg version="1.1" viewBox="0 0 22 22" xmlns="http://www.w3.org/2000/svg">
 <defs>
  <linearGradient id="b" x1="4.994" x2="47.76" y1="46.11" y2="1.761" gradientTransform="scale(.7454 1.342)" gradientUnits="userSpaceOnUse">
   <stop stop-color="#9717f2" offset="0"/>
   <stop stop-color="#ff00b0" offset="1"/>
  </linearGradient>
  <linearGradient id="a" x1="52.79" x2="80.33" y1="19.28" y2="19.28" gradientTransform="scale(.7746 1.291)" gradientUnits="userSpaceOnUse">
   <stop stop-color="#ffc100" offset="0"/>
   <stop stop-color="#ff0069" offset="1"/>
  </linearGradient>
 </defs>
 <g transform="translate(0) scale(.3438) translate(.003 1.8e-5) scale(1)" stroke-width="3.556">
  <path transform="scale(.9999)" d="m44.44 7.111v3.555c7.855 0 14.22 6.368 14.22 14.22s-6.366 14.22-14.22 14.22v3.557c9.818 0 17.78-7.961 17.78-17.78s-7.959-17.78-17.78-17.78zm0 7.111v3.555a7.11 7.11 0 1 1 0 14.22v3.557c5.891 0 10.67-4.777 10.67-10.67s-4.775-10.67-10.67-10.67zm0 7.111a3.556 3.556 0 1 0-2e-3 7.112 3.556 3.556 0 0 0 2e-3 -7.112" fill="url(#a)"/>
  <path transform="scale(.9999)" d="M8.75 0a6.956 6.956 0 0 0-6.972 6.972v50.06a6.956 6.956 0 0 0 6.972 6.972h21.61a6.956 6.956 0 0 0 6.972-6.972V6.972A6.956 6.956 0 0 0 30.36 0H16zm.139 3.556h3.556A3.55 3.55 0 0 0 16 7.112h7.11a3.55 3.55 0 0 0 3.557-3.556h3.556a3.55 3.55 0 0 1 3.556 3.556v49.78a3.55 3.55 0 0 1-3.556 3.556H8.894a3.55 3.55 0 0 1-3.556-3.556V7.112a3.55 3.55 0 0 1 3.556-3.556z" fill="url(#b)"/>
  <path d="M13.328 55.104h12.439c.492 0 .888.396.888.889s-.396.888-.888.888h-12.44c-.492 0-.888-.396-.888-.888s.396-.89.889-.89" fill="#ff00b0" opacity=".5"/>
 </g>
</svg>
