<svg fill="none" version="1.1" viewBox="0 0 22 22" xmlns="http://www.w3.org/2000/svg">
 <defs>
  <linearGradient id="c" x1="38" x2="38" y1="158" y2="98" gradientUnits="userSpaceOnUse">
   <stop stop-color="#FD5900" offset="0"/>
   <stop stop-color="#FFDE00" offset="1"/>
  </linearGradient>
  <linearGradient id="b" x1="128" x2="128" y1="158" y2="98" gradientUnits="userSpaceOnUse">
   <stop stop-color="#FD3A84" offset="0"/>
   <stop stop-color="#FFA68D" offset="1"/>
  </linearGradient>
  <linearGradient id="a" x1="218" x2="218" y1="158" y2="98" gradientUnits="userSpaceOnUse">
   <stop stop-color="#A93AFF" offset="0"/>
   <stop stop-color="#FF81FF" offset="1"/>
  </linearGradient>
 </defs>
 <path transform="translate(-.7333 -.7333) scale(.09167)" d="m68 105.5v45c0 4.142-3.358 7.5-7.5 7.5h-45c-4.142 0-7.5-3.358-7.5-7.5v-45c0-4.142 3.358-7.5 7.5-7.5h45c4.142 0 7.5 3.358 7.5 7.5z" fill="url(#c)"/>
 <path transform="translate(-.7333 -.7333) scale(.09167)" d="m158 105.5v45c0 4.142-3.358 7.5-7.5 7.5h-45c-4.142 0-7.5-3.358-7.5-7.5v-45c0-4.142 3.358-7.5 7.5-7.5h45c4.142 0 7.5 3.358 7.5 7.5z" fill="url(#b)"/>
 <path transform="translate(-.7333 -.7333) scale(.09167)" d="m248 105.5v45c0 4.142-3.358 7.5-7.5 7.5h-45c-4.142 0-7.5-3.358-7.5-7.5v-45c0-4.142 3.358-7.5 7.5-7.5h45c4.142 0 7.5 3.358 7.5 7.5z" fill="url(#a)"/>
</svg>
