<svg xmlns="http://www.w3.org/2000/svg" viewBox="0 0 22 22"><defs><linearGradient id="a" y1="1"><stop offset="0" stop-color="#0061ff"/><stop offset="1" stop-color="#60efff"/></linearGradient></defs><path fill="url(#a)" d="M14.67 0c-.595 0-.595.595-.595.595v1.982s0 .595.595.595h1.982c.595 0 .595-.595.595-.595V.595s0-.594-.595-.594zm-.396.595s0-.396.396-.396h1.982c.396 0 .397.396.397.396v1.982s0 .397-.397.397H14.67c-.396 0-.396-.397-.396-.397zm.986.194v1.586h.199v-.454l.454.454h.339v-.454l.454.454h.28l-.594-.594.595-.595h-.28l-.455.455V.79h-.199v.396h-.14l-.454.455V.79zm0 1.19c0-.116-.03-.22-.103-.294a.4.4 0 0 0-.293-.103c-.083 0-.127-.02-.153-.045-.026-.027-.045-.07-.045-.153s.019-.127.045-.153.07-.046.153-.046.127.02.153.046.045.07.045.153h.198c0-.116-.03-.22-.103-.293s-.178-.104-.293-.104-.22.03-.293.104c-.073.072-.104.177-.104.293s.03.22.104.293a.4.4 0 0 0 .293.103c.082 0 .126.02.153.045.026.027.045.07.045.153s-.02.127-.045.153c-.027.026-.07.046-.153.046s-.127-.02-.153-.046-.045-.07-.045-.153h-.199c0 .116.03.22.104.293.073.073.177.104.293.104s.22-.03.293-.104a.4.4 0 0 0 .103-.293m.793-.653v.909L15.6 1.78z" transform="translate(-97.62 -.004)scale(6.9353)"/></svg>