<svg version="1.1" viewBox="0 0 22 22" xmlns="http://www.w3.org/2000/svg">
 <path transform="translate(-0) scale(1) translate(-.00385) scale(1) translate(-.002936 -.001953) scale(.9998)" d="m11.01 0.001953a1.16 1.16 0 0 0-0.8203 0.3418l-2.541 2.539h-3.598c-0.6426 0-1.16 0.5187-1.16 1.16v3.596l-2.543 2.545a1.16 1.16 0 0 0 0 1.641l2.543 2.543v3.596c0 0.6426 0.5176 1.16 1.16 1.16h3.596l2.543 2.543a1.16 1.16 0 0 0 1.641 0l2.543-2.543h3.596c0.6426 0 1.16-0.5176 1.16-1.16v-3.598l2.541-2.541a1.16 1.16 0 0 0 0-1.641l-2.541-2.541v-3.598c0-0.6426-0.5176-1.16-1.16-1.16h-3.598l-2.541-2.541a1.16 1.16 0 0 0-0.8203-0.3418zm-0.1152 3.697 1.738 2.318-0.4609 0.3477h2.314l-0.4609-0.3477 1.74-2.318 0.9277 0.6953-1.478 1.969h2.754v1.16h-2.32v3.48h2.32v1.16h-2.32v5.799h-1.16v-5.799h-2.365c-0.1125 1.298-0.5546 2.354-1.074 3.256-0.7203 1.247-1.961 2.387-1.961 2.387l-0.793-0.8438s1.172-1.124 1.75-2.123c0.4651-0.8061 0.8167-1.638 0.9199-2.676h-2.273v-1.092l-1.16 0.5801v6.31h-3.48v-1.16h2.32v-4.57l-2.06 1.031-0.5156-1.037 2.578-1.289v-3.412h-2.32v-1.158h2.32v-2.32h1.16v2.32h1.158v1.158h-1.158v2.832l0.9004-0.4512 0.5156 1.039-0.1211 0.05859h2.186v-3.48h-1.16v-1.16h1.594l-1.478-1.971zm1.275 3.826v3.478h2.318v-3.478z" fill="#9F00C5"/>
</svg>
