<svg version="1.1" viewBox="0 0 22 22" xmlns="http://www.w3.org/2000/svg">
 <path transform="translate(0) scale(1) translate(0) scale(1) translate(-5e-5) scale(1) translate(5e-5) scale(1)" d="m4.129 0s-4.127 0.001714-4.127 4.129v13.75s-1.923e-4 4.121 4.127 4.121h13.75c4.127 0 4.119-4.121 4.119-4.121v-13.75c0-4.127-4.119-4.129-4.119-4.129zm0 1.375h13.75s2.746 1.013e-4 2.746 2.754v13.75s5.87e-4 2.748-2.746 2.748h-13.75c-2.747 0-2.754-2.748-2.754-2.748v-13.75c0-2.754 2.754-2.754 2.754-2.754zm-1.381 4.127v11h1.381v-3.148l3.148 3.148h2.344v-3.148l3.156 3.148h1.943l-4.121-4.127 4.121-4.119h-1.943l-3.156 3.148v-5.896h-1.373v2.748h-0.9707l-3.148 3.148v-5.896zm13.75 2.746c-0.7977 0-1.527 0.2074-2.033 0.7207a2.774 2.774 0 0 0-0.7148 2.033v2.746c0 0.8046 0.2085 1.527 0.7148 2.033s1.236 0.7207 2.033 0.7207c0.7977 0 1.525-0.2074 2.031-0.7207a2.774 2.774 0 0 0 0.7227-2.033h-1.373c0 0.5757-0.14 0.8827-0.3203 1.062s-0.4854 0.3125-1.06 0.3125c-0.5757 0-0.874-0.1322-1.055-0.3125-0.1873-0.1803-0.3184-0.4873-0.3184-1.062v-2.746c0-0.5757 0.138-0.8808 0.3184-1.06 0.1803-0.1803 0.4856-0.3125 1.055-0.3125 0.5688 0 0.8808 0.1322 1.06 0.3125 0.1873 0.1803 0.3203 0.4854 0.3203 1.06h1.373c0-0.8046-0.2094-1.527-0.7227-2.033a2.774 2.774 0 0 0-2.031-0.7207zm-8.248 0.9707v6.312l-3.148-3.156z" fill="#FF007C"/>
</svg>
