<svg xmlns="http://www.w3.org/2000/svg" viewBox="0 0 22 22"><defs><linearGradient id="a" y1="1"><stop offset="0" stop-color="#45cbff"/><stop offset="1" stop-color="#0569ff"/></linearGradient></defs><path fill="url(#a)" d="M2 0C.892 0 0 .892 0 2v12c0 1.108.892 2 2 2h12c1.108 0 2-.892 2-2V2c0-1.108-.892-2-2-2zm0 2h5.549l-.05.55S7.17 6.07 6.272 8.68c.583.87 1.14 1.769 1.838 3.009l-.869.49A49 49 0 0 0 5.82 9.81c-1.394 3.12-3.365 4.483-3.365 4.483l-.557-.832s1.971-1.31 3.264-4.65c-.765-1.11-1.635-2.23-3.053-4l.782-.621c1.18 1.47 1.973 2.49 2.668 3.45.55-1.9.798-4 .869-4.64H2v-1zm6 0h6v.5c0 2.15-.833 4.97-1.707 6.91-.111.25-.242.46-.367.69.624 1.09 1.46 2.12 2.844 3.232l-.627.779c-1.282-1.034-2.147-2.04-2.803-3.06-1.393 1.984-3.104 3.033-3.104 3.033l-.518-.855s1.78-1.1 3.068-3.14c-.338-.65-.62-1.31-.886-2C9.142 6.14 8.69 3.59 8.589 3h-.59zm1.607 1c.14.77.569 3.03 1.227 4.73.173.45.351.87.539 1.279.757-1.68 1.442-4.16 1.551-6.01z" transform="scale(1.37486)"/></svg>