<svg version="1.1" viewBox="0 0 22 22" xmlns="http://www.w3.org/2000/svg">
 <path transform="translate(-.001) scale(1) translate(.001) scale(1)" d="m2.75 2.75v1.375h1.375v4.125h-1.375v11h8.248v-11h-2.748v-4.125h2.748v-1.375zm8.248 5.5 0.5508 0.4121s0.5499-0.701 1.096-1.787h2.478v2.748h-2.75v1.375h6.875v-1.375h-2.75v-2.748h2.75v-1.375h-2.75v-2.75h-1.375v2.75h-1.9c0.2997-0.84 0.5254-1.775 0.5254-2.75h-1.375c0 2.406-1.924 5.086-1.924 5.086zm-5.498-4.125h1.375v4.125h-1.375zm0 5.498h1.375v4.125h1.375v-4.125h1.373v8.25h-5.498v-1.375h4.125v-1.375h-4.125v-1.375h1.375zm6.873 2.75v6.875h6.875v-6.875zm1.375 1.375h4.125v4.125h-4.125z" fill="#f0f"/>
 <path transform="translate(-.001) scale(1) translate(.001) scale(1)" d="m4.125 0c-2.285 0-4.125 1.84-4.125 4.125v13.75c0 2.285 1.84 4.125 4.125 4.125h13.75c2.285 0 4.125-1.84 4.125-4.125v-13.75c0-2.285-1.84-4.125-4.125-4.125zm0 1.375h13.75c1.523 0 2.75 1.227 2.75 2.75v13.75c0 1.523-1.227 2.75-2.75 2.75h-13.75c-1.523 0-2.75-1.227-2.75-2.75v-13.75c0-1.523 1.227-2.75 2.75-2.75z" fill="#f0f"/>
</svg>
