<svg version="1.1" viewBox="0 0 22 22" xmlns="http://www.w3.org/2000/svg">
 <path transform="translate(1e-4 .001) scale(1) translate(.0019 -.00095) scale(1)" d="m5.238 0.2793c-0.6979 1.88-1.852 3.572-3.463 5.076l1.369 1.047c0.2686-0.054 1.021-0.9945 2.256-2.82h1.047c0.5899 0.8599 1.101 1.748 1.531 2.66l1.611-0.8867-1.289-1.772h2.818v-1.531h-4.994l0.6445-1.289zm8.297 0c-0.6453 1.825-1.746 3.492-3.303 4.996l1.371 1.047c0.9132-0.8592 1.61-1.773 2.094-2.74h1.371a15.6 15.6 0 0 1 1.529 2.578l1.451-0.8848a19 19 0 0 0-1.209-1.693h3.385v-1.529h-5.721c0.2146-0.43 0.4031-0.8611 0.5644-1.291l-1.531-0.4824zm-7.492 5.641-1.369 0.8047c0.7519 0.7519 1.315 1.504 1.691 2.256l1.531-0.8047a10.3 10.3 0 0 0-1.854-2.256zm2.738 0.7246v1.369h8.781v8.297c0 0.7519-0.1865 1.129-0.5625 1.129-0.5366 0-1.236-0.02675-2.096-0.08008l0.4023 1.529c0.7519 0.05333 1.398 0.08008 1.936 0.08008 0.6446 0 1.127-0.1872 1.449-0.5625 0.322-0.376 0.4824-0.9134 0.4824-1.611v-10.15h-10.39zm-5.478 2.174v10.15h1.611v-10.15zm3.949 0.8867v6.93h7.41v-6.93zm1.529 1.369h4.352v1.371h-4.352zm0 2.66h4.352v1.529h-4.352zm-8.783 6.611v1.375h22v-1.375z" fill="#FF8000"/>
</svg>
