<svg version="1.1" viewBox="0 0 22 22" xmlns="http://www.w3.org/2000/svg">
 <path transform="translate(0) scale(1) translate(0) scale(1)" d="m10.33 2.615c-0.2557 1.279-2.13 2.833-4.049 3.918-1.918 1.083-3.762 1.756-3.762 1.756l0.4688 1.295s1.1-0.403 2.516-1.092v1.133h4.812v2.75h-3.438v1.375h3.438v4.123h-6.188v1.375h13.75v-1.375h-6.186v-4.123h3.438v-1.375h-3.438v-2.75h4.81v-1.197c1.397 0.7108 2.508 1.154 2.508 1.154l0.4844-1.289s-5.3-2.06-7.881-5.207c0.01787-0.06874 0.0507-0.1324 0.06445-0.2012zm0.6738 1.828c1.534 1.67 3.495 2.94 5.133 3.807h-10.17c0.3258-0.1664 0.6506-0.327 0.9902-0.5195 1.507-0.851 3.126-1.916 4.045-3.285z" fill="#9F00C5"/>
 <path transform="translate(0) scale(1) translate(0) scale(1)" d="m4.125 0c-2.285 0-4.125 1.84-4.125 4.125v13.75c0 2.285 1.84 4.125 4.125 4.125h13.75c2.285 0 4.125-1.84 4.125-4.125v-13.75c0-2.285-1.84-4.125-4.125-4.125zm0 1.375h13.75c1.523 0 2.75 1.227 2.75 2.75v13.75c0 1.523-1.227 2.75-2.75 2.75h-13.75c-1.523 0-2.75-1.227-2.75-2.75v-13.75c0-1.523 1.227-2.75 2.75-2.75z" fill="#9F00C5"/>
</svg>
