<svg xmlns="http://www.w3.org/2000/svg" viewBox="0 0 22 22"><defs><linearGradient id="a" y1="1"><stop offset="0" stop-color="#45cbff"/><stop offset="1" stop-color="#0569ff"/></linearGradient></defs><g fill="url(#a)" transform="scale(1.37486)"><path d="m7.9 1.7 1.5 2-.398.3h1.996l-.398-.3 1.5-2 .8.6L11.625 4H14v1h-2v3h2v1h-2v5h-1V9H8.959c-.096 1.12-.477 2.031-.926 2.811-.62 1.07-1.691 2.054-1.691 2.054l-.684-.728s1.013-.966 1.51-1.826c.401-.7.704-1.411.793-2.311H6v-.94l-1 .5V14H2v-1h2V9.06l-1.777.89-.446-.9L4 7.94V5H2V4h2V2h1v2h1v1H5v2.44l.777-.39.446.9-.106.05H8V5H7V4h1.375L7.1 2.3zM9 5v3h2V5z"/><path d="M3 0C1.338 0 0 1.338 0 3v10c0 1.662 1.338 3 3 3h9.999c1.662 0 3-1.338 3-3V3c0-1.662-1.338-3-3-3zm0 1h9.999c1.108 0 2 .892 2 2v10c0 1.108-.892 2-2 2H3c-1.108 0-2-.892-2-2V3c0-1.108.892-2 2-2"/></g></svg>