<svg xmlns="http://www.w3.org/2000/svg" viewBox="0 0 22 22"><defs><linearGradient id="a" y1="1"><stop offset="0" stop-color="#45cbff"/><stop offset="1" stop-color="#0569ff"/></linearGradient></defs><path fill="url(#a)" d="M4.152.32q-.645 1.45-2.417 2.82l1.128.886q.805-.564 1.531-1.531h7.493V1.287H5.2q.08-.242.242-.564zm9.829 0a12.5 12.5 0 0 1-2.578 4.592l.967 1.046.806-.966a9.3 9.3 0 0 0 1.692 2.095q-1.29 1.047-3.062 1.853l1.128 1.208q1.773-.967 3.062-2.014a19.3 19.3 0 0 0 3.223 2.014l1.047-1.29q-1.934-.804-3.303-1.771a8.86 8.86 0 0 0 1.934-3.464h1.128v-1.37h-5.317l.644-1.531zM3.991 3.46l-.483 2.337H1.897v1.288h1.37l-.484 2.417h6.042v.484h1.37l.08-.484h.726V8.295h-.645l.161-1.208h1.29V5.798h-1.129l.323-2.336zm10.07.162h3.303q-.403 1.37-1.45 2.578a14.7 14.7 0 0 1-1.934-2.417q.08-.081.08-.161zm-8.862.966h1.047q.403.484.806 1.208H4.957zm2.336 0h2.014l-.161 1.208H8.34zM4.796 7.087h1.047q.403.484.886 1.208H4.554zm2.417 0h2.014l-.242 1.208H7.938a9 9 0 0 0-.725-1.208zm7.815 2.66q-2.578 1.53-3.545 1.691-1.45.242-5.156.323 1.29-.404 2.578-1.208l-1.047-.725Q6.247 10.956 3.83 11.6l.161 1.128q2.417 0 4.914-.161-2.578.966-6.284 1.692l.242 1.289q3.625 0 7.332-.242v1.692q0 .644-.484.644-.886 0-1.772-.241l.242 1.45q.726.16 1.531.16 1.29 0 1.692-.402.403-.403.403-1.37v-2.095a95 95 0 0 0 5.479-.645q.645.645 1.128 1.37l1.53-.725q-1.61-1.933-3.866-3.545l-1.45.645q.886.563 1.61 1.289-3.221.645-9.91.886 5.4-1.209 9.99-3.787zm-1.208 5.88-.644 1.29q2.659.645 5.317 1.771l.644-1.37a48 48 0 0 0-5.317-1.692zm-6.445.161q-2.336.967-5.156 1.531l.967 1.37q3.061-.805 5.237-2.095zM.001 20.306v1.375h22v-1.375z" transform="scale(.9999)"/></svg>