<svg version="1.1" viewBox="0 0 22 22" xmlns="http://www.w3.org/2000/svg">
 <defs>
  <linearGradient id="a" y1="1">
   <stop stop-color="#45cbff" offset="0"/>
   <stop stop-color="#0569ff" offset="1"/>
  </linearGradient>
 </defs>
 <path transform="translate(0 -.00045) scale(.9999) translate(0 -.733) scale(1.467)" d="M3 3a3 3 0 0 0-3 3 3 3 0 0 0 3 3 3 3 0 0 0 3-3 3 3 0 0 0-3-3m9 0a3 3 0 0 0-3 3 3 3 0 0 0 3 3 3 3 0 0 0 .701-.088A3.49 3.49 0 0 1 9.5 11H9v2h.6c2.99 0 5.4-2.453 5.4-5.5V6a3 3 0 0 0-3-3zM3 5a1 1 0 0 1 1 1 1 1 0 0 1-1 1 1 1 0 0 1-1-1 1 1 0 0 1 1-1m9 0a1 1 0 0 1 1 1 1 1 0 0 1-1 1 1 1 0 0 1-1-1 1 1 0 0 1 1-1" fill="url(#a)"/>
</svg>
