<svg xmlns="http://www.w3.org/2000/svg" viewBox="0 0 22 22"><defs><linearGradient id="a" y1="1"><stop offset="0" stop-color="#45cbff"/><stop offset="1" stop-color="#0569ff"/></linearGradient></defs><path fill="url(#a)" d="M2 0C.892 0 0 .892 0 2v12c0 1.108.892 2 2 2h12c1.108 0 2-.892 2-2V2c0-1.108-.892-2-2-2zm5.9 1.699 1.5 2-.398.3h1.996l-.398-.3 1.5-2 .8.602L11.625 4H14v1h-2v3h2v1h-2v5h-1V9H8.959c-.096 1.12-.477 2.03-.926 2.81-.621 1.07-1.691 2.055-1.691 2.055l-.684-.728s1.012-.966 1.51-1.826c.401-.7.704-1.411.793-2.311h-1.96v-.94l-1 .5V14H2v-1h2V9.06l-1.778.889-.445-.899L4 7.94V5H2V4h2V2h1v2h1v1H5v2.44l.777-.39.445.9-.105.05H8V5H7V4h1.375L7.1 2.3l.8-.6zM9 5v3h2V5z" transform="scale(1.37486)"/></svg>