<svg version="1.1" viewBox="0 0 22 22" xmlns="http://www.w3.org/2000/svg">
 <style transform="translate(0) scale(1) translate(.001 .00174) scale(1) translate(-7.615 -9.304) scale(1.692)">.ColorScheme-Accent { color: #3daee9; } .ColorScheme-Background { color: #2a2e32; } .ColorScheme-ButtonText { color: #31363b; } .ColorScheme-Text { color: #fcfcfc; }</style>
 <path transform="translate(0) scale(1) translate(.001 .00174) scale(1) translate(-7.615 -9.304) scale(1.692)" d="m7.5 7.5c-1.648 0-3 1.352-3 3s1.352 3 3 3 3-1.352 3-3-1.352-3-3-3zm0 2c0.5685 0 1 0.4315 1 1s-0.4315 1-1 1-1-0.4315-1-1 0.4315-1 1-1z" fill="#0ff"/>
 <path transform="translate(0) scale(1) translate(.001 .00174) scale(1) translate(-7.615 -9.304) scale(1.692)" d="m14.5 7.5c-1.648 0-3 1.352-3 3 0 1.576 1.266 2.814 2.816 2.924-0.1367 0.1276-0.238 0.3398-0.3828 0.4394-0.792 0.5445-1.56 0.6445-1.56 0.6445a0.5 0.5 0 0 0-0.4316 0.5586l0.125 0.9922a0.5 0.5 0 0 0 0.5566 0.4336s1.232-0.1477 2.443-0.9805c1.22-0.8383 2.434-2.459 2.434-5.012 0-1.648-1.352-3-3-3zm0 2c0.5685 0 1 0.4315 1 1s-0.4315 1-1 1-1-0.4315-1-1 0.4315-1 1-1z" fill="#0ff"/>
</svg>
