<svg version="1.1" viewBox="0 0 22 22" xmlns="http://www.w3.org/2000/svg">
 <defs>
  <linearGradient id="a" y1="1">
   <stop stop-color="#f00" offset="0"/>
   <stop stop-color="#ff0086" offset="1"/>
  </linearGradient>
 </defs>
 <path transform="translate(0) scale(1) translate(0) scale(1) translate(0) scale(1) translate(0 6e-4) scale(1) translate(0 3.434) scale(1)" d="m2.441 0.2324c-1.348 0-2.441 1.098-2.441 2.445v9.772c0 1.348 1.094 2.447 2.441 2.447h17.11c1.348 0 2.447-1.1 2.447-2.447v-9.772c0-1.348-1.1-2.445-2.447-2.445zm0 1.834h17.11c0.336 0 0.6133 0.2774 0.6133 0.6133v9.772c0 0.336-0.2774 0.6113-0.6133 0.6113h-17.11c-0.336 0-0.6113-0.2754-0.6113-0.6113v-9.772c0-0.336 0.2753-0.6133 0.6113-0.6133zm2.139 1.527c-0.336 0-0.6094 0.2754-0.6094 0.6113v0.6113c0 0.336 0.2734 0.6094 0.6094 0.6094h0.6113c0.336 0 0.6094-0.2734 0.6094-0.6094v-0.6113c0-0.336-0.2735-0.6113-0.6094-0.6113zm3.057 0c-0.336 0-0.6113 0.2754-0.6113 0.6113v0.6113c0 0.336 0.2754 0.6094 0.6113 0.6094h0.6094c0.336 0 0.6113-0.2734 0.6113-0.6094v-0.6113c0-0.336-0.2753-0.6113-0.6113-0.6113zm3.053 0c-0.336 0-0.6113 0.2754-0.6113 0.6113v0.6113c0 0.336 0.2754 0.6094 0.6113 0.6094h0.6133c0.336 0 0.6094-0.2734 0.6094-0.6094v-0.6113c0-0.336-0.2735-0.6113-0.6094-0.6113zm3.057 0c-0.336 0-0.6113 0.2754-0.6113 0.6113v0.6113c0 0.336 0.2754 0.6094 0.6113 0.6094h0.6094c0.336 0 0.6113-0.2734 0.6113-0.6094v-0.6113c0-0.336-0.2754-0.6113-0.6113-0.6113zm3.053 0c-0.336 0-0.6094 0.2754-0.6094 0.6113v0.6113c0 0.336 0.2734 0.6094 0.6094 0.6094h0.6113c0.336 0 0.6113-0.2734 0.6113-0.6094v-0.6113c0-0.336-0.2754-0.6113-0.6113-0.6113zm-12.21 3.057c-0.336 0-0.6094 0.2735-0.6094 0.6094v0.6113c0 0.336 0.2734 0.6113 0.6094 0.6113h0.6113c0.336 0 0.6113-0.2754 0.6113-0.6113v-0.6113c0-0.336-0.2754-0.6094-0.6113-0.6094zm3.057 0c-0.336 0-0.6113 0.2735-0.6113 0.6094v0.6113c0 0.336 0.2754 0.6113 0.6113 0.6113h0.6113c0.336 0 0.6094-0.2754 0.6094-0.6113v-0.6113c0-0.336-0.2734-0.6094-0.6094-0.6094zm3.055 0c-0.336 0-0.6133 0.2735-0.6133 0.6094v0.6113c0 0.336 0.2774 0.6113 0.6133 0.6113h0.6113c0.336 0 0.6094-0.2754 0.6094-0.6113v-0.6113c0-0.336-0.2735-0.6094-0.6094-0.6094zm3.055 0c-0.336 0-0.6113 0.2735-0.6113 0.6094v0.6113c0 0.336 0.2754 0.6113 0.6113 0.6113h0.6094c0.336 0 0.6133-0.2754 0.6133-0.6113v-0.6113c0-0.336-0.2774-0.6094-0.6133-0.6094zm3.053 0c-0.336 0-0.6094 0.2735-0.6094 0.6094v0.6113c0 0.336 0.2734 0.6113 0.6094 0.6113h0.6133c0.336 0 0.6094-0.2754 0.6094-0.6113v-0.6113c0-0.336-0.2735-0.6094-0.6094-0.6094zm-10.08 3.359c-0.336 0-0.6094 0.2735-0.6094 0.6094v0.6113c0 0.336 0.2734 0.6113 0.6094 0.6113h8.553c0.336 0 0.6113-0.2753 0.6113-0.6113v-0.6113c0-0.336-0.2754-0.6094-0.6113-0.6094z" fill="url(#a)"/>
</svg>
