<svg xmlns="http://www.w3.org/2000/svg" viewBox="0 0 22 22"><defs><linearGradient id="a" y1=".5" y2=".5"><stop offset="0" stop-color="#ff0002"/><stop offset="1" stop-color="#ff0050"/></linearGradient></defs><g fill="url(#a)" transform="translate(-4.53 -5.175)scale(.64704)"><path d="M8 14h2c.551 0 1 .449 1 1v2a1 1 0 0 1-1 1H8a1 1 0 0 1-1-1v-2c0-.551.449-1 1-1"/><path d="M14 14h2c.551 0 1 .449 1 1v2a1 1 0 0 1-1 1h-2a1 1 0 0 1-1-1v-2c0-.551.449-1 1-1"/><path d="M20 14h2c.551 0 1 .449 1 1v2a1 1 0 0 1-1 1h-2a1 1 0 0 1-1-1v-2c0-.551.449-1 1-1"/><path d="M26 14h2c.551 0 1 .449 1 1v2a1 1 0 0 1-1 1h-2a1 1 0 0 1-1-1v-2c0-.551.449-1 1-1"/><path d="M32 14h2c.551 0 1 .449 1 1v2a1 1 0 0 1-1 1h-2a1 1 0 0 1-1-1v-2c0-.551.449-1 1-1"/><path d="M38 14h2c.551 0 1 .449 1 1v2a1 1 0 0 1-1 1h-2a1 1 0 0 1-1-1v-2c0-.551.449-1 1-1"/><path d="M8 20h2c.551 0 1 .449 1 1v2a1 1 0 0 1-1 1H8a1 1 0 0 1-1-1v-2c0-.551.449-1 1-1"/><path d="M14 20h2c.551 0 1 .449 1 1v2a1 1 0 0 1-1 1h-2a1 1 0 0 1-1-1v-2c0-.551.449-1 1-1"/><path d="M20 20h2c.551 0 1 .449 1 1v2a1 1 0 0 1-1 1h-2a1 1 0 0 1-1-1v-2c0-.551.449-1 1-1"/><path d="M26 20h2c.551 0 1 .449 1 1v2a1 1 0 0 1-1 1h-2a1 1 0 0 1-1-1v-2c0-.551.449-1 1-1"/><path d="M32 20h2c.551 0 1 .449 1 1v2a1 1 0 0 1-1 1h-2a1 1 0 0 1-1-1v-2c0-.551.449-1 1-1"/><path d="M38 20h2c.551 0 1 .449 1 1v2a1 1 0 0 1-1 1h-2a1 1 0 0 1-1-1v-2c0-.551.449-1 1-1"/><path d="M8 26h2c.551 0 1 .449 1 1v2a1 1 0 0 1-1 1H8a1 1 0 0 1-1-1v-2c0-.551.449-1 1-1"/><path d="M14 26h2c.551 0 1 .449 1 1v2a1 1 0 0 1-1 1h-2a1 1 0 0 1-1-1v-2c0-.551.449-1 1-1"/><path d="M20 26h2c.551 0 1 .449 1 1v2a1 1 0 0 1-1 1h-2a1 1 0 0 1-1-1v-2c0-.551.449-1 1-1"/><path d="M26 26h2c.551 0 1 .449 1 1v2a1 1 0 0 1-1 1h-2a1 1 0 0 1-1-1v-2c0-.551.449-1 1-1"/><path d="M32 26h2c.551 0 1 .449 1 1v2a1 1 0 0 1-1 1h-2a1 1 0 0 1-1-1v-2c0-.551.449-1 1-1"/><path d="M38 26h2c.551 0 1 .449 1 1v2a1 1 0 0 1-1 1h-2a1 1 0 0 1-1-1v-2c0-.551.449-1 1-1"/><path d="M14 32h20c.551 0 1 .449 1 1v2a1 1 0 0 1-1 1H14a1 1 0 0 1-1-1v-2c0-.551.449-1 1-1"/><path d="M8 13.996h2c.551 0 1 .449 1 1v2a1 1 0 0 1-1 1H8a1 1 0 0 1-1-1v-2c0-.551.449-1 1-1m6 0h2c.551 0 1 .449 1 1v2a1 1 0 0 1-1 1h-2a1 1 0 0 1-1-1v-2c0-.551.449-1 1-1m6 0h2c.551 0 1 .449 1 1v2a1 1 0 0 1-1 1h-2a1 1 0 0 1-1-1v-2c0-.551.449-1 1-1m6 0h2c.551 0 1 .449 1 1v2a1 1 0 0 1-1 1h-2a1 1 0 0 1-1-1v-2c0-.551.449-1 1-1m6 0h2c.551 0 1 .449 1 1v2a1 1 0 0 1-1 1h-2a1 1 0 0 1-1-1v-2c0-.551.449-1 1-1m6 0h2c.551 0 1 .449 1 1v2a1 1 0 0 1-1 1h-2a1 1 0 0 1-1-1v-2c0-.551.449-1 1-1m-30 6h2c.551 0 1 .449 1 1v2a1 1 0 0 1-1 1H8a1 1 0 0 1-1-1v-2c0-.551.449-1 1-1m6 0h2c.551 0 1 .449 1 1v2a1 1 0 0 1-1 1h-2a1 1 0 0 1-1-1v-2c0-.551.449-1 1-1m6 0h2c.551 0 1 .449 1 1v2a1 1 0 0 1-1 1h-2a1 1 0 0 1-1-1v-2c0-.551.449-1 1-1m6 0h2c.551 0 1 .449 1 1v2a1 1 0 0 1-1 1h-2a1 1 0 0 1-1-1v-2c0-.551.449-1 1-1m6 0h2c.551 0 1 .449 1 1v2a1 1 0 0 1-1 1h-2a1 1 0 0 1-1-1v-2c0-.551.449-1 1-1m6 0h2c.551 0 1 .449 1 1v2a1 1 0 0 1-1 1h-2a1 1 0 0 1-1-1v-2c0-.551.449-1 1-1m-30 6h2c.551 0 1 .449 1 1v2a1 1 0 0 1-1 1H8a1 1 0 0 1-1-1v-2c0-.551.449-1 1-1m6 0h2c.551 0 1 .449 1 1v2a1 1 0 0 1-1 1h-2a1 1 0 0 1-1-1v-2c0-.551.449-1 1-1m6 0h2c.551 0 1 .449 1 1v2a1 1 0 0 1-1 1h-2a1 1 0 0 1-1-1v-2c0-.551.449-1 1-1m6 0h2c.551 0 1 .449 1 1v2a1 1 0 0 1-1 1h-2a1 1 0 0 1-1-1v-2c0-.551.449-1 1-1m6 0h2c.551 0 1 .449 1 1v2a1 1 0 0 1-1 1h-2a1 1 0 0 1-1-1v-2c0-.551.449-1 1-1m6 0h2c.551 0 1 .449 1 1v2a1 1 0 0 1-1 1h-2a1 1 0 0 1-1-1v-2c0-.551.449-1 1-1m-24 6h20c.551 0 1 .449 1 1v2a1 1 0 0 1-1 1H14a1 1 0 0 1-1-1v-2c0-.551.449-1 1-1m0 0"/></g></svg>