<svg version="1.1" viewBox="0 0 22 22" xmlns="http://www.w3.org/2000/svg">
 <defs>
  <linearGradient id="a" y1="1">
   <stop stop-color="#f00" offset="0"/>
   <stop stop-color="#ff0086" offset="1"/>
  </linearGradient>
 </defs>
 <path transform="translate(-.000139) scale(1) translate(.001304) scale(1)" d="m4.541 0a4.052 4.052 0 0 0-2.834 6.857 10.37 10.37 0 0 0-1.129 4.723 10.39 10.39 0 0 0 3.398 7.699l-0.7422 0.7422-0.0957 0.1074a1.158 1.158 0 0 0 1.73 1.531l1.004-1.004 0.3555 0.1894a10.38 10.38 0 0 0 4.768 1.152 10.37 10.37 0 0 0 5.127-1.342l1.004 1.004 0.1094 0.09375a1.158 1.158 0 0 0 1.525-1.732l-0.7422-0.7422 0.2539-0.2441a10.39 10.39 0 0 0 3.144-7.457 10.38 10.38 0 0 0-1.129-4.719 4.052 4.052 0 0 0-2.922-6.857 4.045 4.045 0 0 0-3.25 1.631c-0.9853-0.3092-2.031-0.4746-3.117-0.4746a10.42 10.42 0 0 0-3.119 0.4746 4.052 4.052 0 0 0-3.338-1.631zm0.08984 2.316a1.73 1.73 0 0 1 1.008 0.3242 10.47 10.47 0 0 0-2.57 2.178 1.737 1.737 0 0 1 1.562-2.5zm12.73 0a1.737 1.737 0 0 1 1.559 2.5 10.47 10.47 0 0 0-2.568-2.178c0.2848-0.205 0.6335-0.3223 1.01-0.3223zm-6.369 1.156a8.105 8.105 0 0 1 0 16.2 8.105 8.105 0 0 1 0-16.2z" fill="url(#a)" opacity=".6"/>
 <path transform="translate(-.000139) scale(1) translate(.001304) scale(1)" d="m13.85 6.738c-0.3911 6.041e-4 -0.7268 0.1395-1.006 0.418-0.4186 0.4177-0.418 0.6144-0.418 1.006v7.117a1.373 1.373 0 0 0 0.418 1.004 1.373 1.373 0 0 0 1.006 0.4199 1.368 1.368 0 0 0 1.006-0.4199 1.373 1.373 0 0 0 0.416-1.006v-7.117c9.07e-4 -0.3899-0.1366-0.7239-0.416-1.004-0.2794-0.2794-0.615-0.4183-1.006-0.418z" fill="url(#a)"/>
 <path transform="translate(-.000139) scale(1) translate(.001304) scale(1)" d="m8.154 6.738c-0.3911 6.041e-4 -0.7268 0.1395-1.006 0.418-0.4186 0.4177-0.418 0.6144-0.418 1.006v7.117a1.373 1.373 0 0 0 0.418 1.004 1.373 1.373 0 0 0 1.006 0.4199 1.368 1.368 0 0 0 1.004-0.4199 1.373 1.373 0 0 0 0.4199-1.006v-7.117c6.041e-4 -0.3896-0.1402-0.7239-0.4199-1.004-0.2794-0.2794-0.6131-0.4183-1.004-0.418z" fill="url(#a)"/>
</svg>
