<svg version="1.1" viewBox="0 0 22 22" xmlns="http://www.w3.org/2000/svg">
 <defs>
  <linearGradient id="a" y2="1">
   <stop stop-color="#00ff7f" offset="0"/>
   <stop stop-color="#5fff0f" offset="1"/>
  </linearGradient>
 </defs>
 <path transform="translate(0) scale(.9998) translate(0 -1.467) scale(1.467)" d="m7.5 1a4.5 4.5 0 0 0-4.5 4.5 4.5 4.5 0 0 0 3 4.236v4.264l1.5 2 1.5-2 1-0.5-1-0.6992v-0.75l1-1-1-1v-0.3144a4.5 4.5 0 0 0 3-4.236 4.5 4.5 0 0 0-4.5-4.5zm0 1a1.5 1.5 0 0 1 1.5 1.5 1.5 1.5 0 0 1-1.5 1.5 1.5 1.5 0 0 1-1.5-1.5 1.5 1.5 0 0 1 1.5-1.5zm-0.5 8h1v4h-1z" fill="url(#a)"/>
</svg>
