<svg version="1.1" viewBox="0 0 22 22" xmlns="http://www.w3.org/2000/svg" xmlns:xlink="http://www.w3.org/1999/xlink">
 <defs>
  <style>.ColorScheme-Text{color:#dfdfdf}</style>
  <linearGradient id="a" y1="1">
   <stop stop-color="#ff0015" offset="0"/>
   <stop stop-color="#fc00a3" offset="1"/>
  </linearGradient>
  <linearGradient id="c" x1="4.909" x2="65.68" y1="59.41" y2="-1.36" gradientTransform="scale(.9068 1.103)" gradientUnits="userSpaceOnUse" xlink:href="#a"/>
  <linearGradient id="b" x1="35" x2="47.42" y1="38.77" y2="26.35" gradientTransform="scale(.7762 1.288)" gradientUnits="userSpaceOnUse" xlink:href="#a"/>
 </defs>
 <path transform="translate(.08848) scale(.9998) translate(-2.933 -1.467) scale(1.467)" d="m7.5 1a4.5 4.5 0 0 0-4.5 4.5 4.5 4.5 0 0 0 3 4.236v4.264l1.5 2 1.5-2 1-0.5-1-0.6992v-0.75l1-1-1-1v-0.3144a4.5 4.5 0 0 0 3-4.236 4.5 4.5 0 0 0-4.5-4.5zm0 1a1.5 1.5 0 0 1 1.5 1.5 1.5 1.5 0 0 1-1.5 1.5 1.5 1.5 0 0 1-1.5-1.5 1.5 1.5 0 0 1 1.5-1.5zm-0.5 8h1v4h-1z" fill="url(#b)" stroke-width="1.4"/>
 <g transform="translate(.08848) scale(.9998) matrix(.6419 0 0 .6419 11 11.74)">
  <path transform="matrix(.2387 0 0 .2387 .3588 .3581)" d="m32-1.5c-9.422 0-17.13 7.706-17.13 17.13v5.059c-4.976 1.728-8.864 5.896-9.588 11.28-0.4454 3.308-0.8301 6.801-0.8301 10.45s0.3847 7.147 0.8301 10.46c0.9051 6.723 6.485 12.01 13.33 12.33 4.274 0.1964 8.618 0.3027 13.39 0.3027s9.117-0.1063 13.39-0.3027c6.843-0.3146 12.42-5.603 13.33-12.33 0.4454-3.308 0.832-6.803 0.832-10.46s-0.3866-7.145-0.832-10.45c-0.7252-5.385-4.612-9.553-9.588-11.28v-5.059c0-9.422-7.706-17.13-17.13-17.13zm0 7.467c5.389-3e-7 9.662 4.273 9.662 9.662v3.891c-3.109-0.1016-6.246-0.1797-9.662-0.1797-3.415 0-6.554 0.07812-9.664 0.1797v-3.891c0-5.389 4.275-9.662 9.664-9.662zm0 20.84c4.665 0 8.887 0.09974 13.05 0.291 3.172 0.1458 5.832 2.645 6.268 5.867 0.4279 3.18 0.7676 6.34 0.7676 9.459s-0.3397 6.275-0.7676 9.455c-0.4338 3.221-3.096 5.728-6.268 5.873-4.16 0.1912-8.382 0.291-13.05 0.291s-8.889-0.0998-13.05-0.291c-3.172-0.1458-5.832-2.651-6.268-5.873-0.4281-3.18-0.7676-6.336-0.7676-9.455s0.3394-6.279 0.7676-9.459c0.4338-3.221 3.096-5.722 6.268-5.867 4.16-0.1913 8.384-0.291 13.05-0.291z" fill="url(#c)"/>
  <path transform="matrix(.25 0 0 .25 .001125 -8.749e-5)" d="m31.99 33.95a4.768 4.768 0 0 0-3.2 8.349v4.451a3.2 3.2 0 0 0 6.4 0v-4.451a4.768 4.768 0 0 0-3.2-8.349z" fill="url(#b)" stroke-width="3.2"/>
 </g>
</svg>
