<svg style="isolation:isolate" version="1.1" viewBox="0 0 22 22" xmlns="http://www.w3.org/2000/svg">
 <linearGradient id="a" transform="translate(-1.279 -1.279) scale(.5116)" x1=".0619" x2=".9904" y1=".1472" y2=".9866" gradientTransform="matrix(42,0,0,43,3,2.5)" gradientUnits="userSpaceOnUse">
  <stop stop-color="#16b5e4" offset="0"/>
  <stop stop-color="#f520fa" offset=".9826"/>
 </linearGradient>
 <path transform="translate(-1.279 -1.279) scale(.5116)" d="m22.51 11.5h-8.09v-2.14h4.23c0.35 0 0.69-0.13 0.96-0.35s0.45-0.53 0.52-0.88c0.08-0.44 0.24-0.87 0.46-1.26 0.14-0.27 0.34-0.5 0.58-0.68 0.26-0.21 0.56-0.36 0.88-0.45 0.57-0.16 1.16-0.24 1.75-0.24s1.18 0.08 1.75 0.25c0.32 0.09 0.62 0.24 0.88 0.45 0.24 0.18 0.43 0.41 0.58 0.67 0.22 0.39 0.37 0.82 0.46 1.26 0.06 0.35 0.24 0.66 0.51 0.88s0.61 0.35 0.96 0.35h3.64v2.14h-10.07zm15.99 0c-0.828 0-1.5-0.672-1.5-1.5s0.672-1.5 1.5-1.5h2.5c2.208 0 4 1.792 4 4v29c0 2.208-1.792 4-4 4h-34c-2.208 0-4-1.792-4-4v-29c0-2.208 1.792-4 4-4h1.5c0.828 0 1.5 0.672 1.5 1.5s-0.672 1.5-1.5 1.5h-0.5c-1.104 0-2 0.896-2 2v27c0 1.104 0.896 2 2 2h32c1.104 0 2-0.896 2-2v-27c0-1.104-0.896-2-2-2h-1.5zm-20 12.5c1.104 0 2 0.896 2 2s-0.896 2-2 2-2-0.896-2-2 0.896-2 2-2zm6 0h6c0.552 0 1 0.448 1 1v2c0 0.552-0.448 1-1 1h-6c-0.552 0-1-0.448-1-1v-2c0-0.552 0.448-1 1-1zm0 7h6c0.552 0 1 0.448 1 1v2c0 0.552-0.448 1-1 1h-6c-0.552 0-1-0.448-1-1v-2c0-0.552 0.448-1 1-1zm-1.99-16.5h-9.09c-1.104 0-2-0.896-2-2v-4.14c0-1.104 0.896-2 2-2h4.1c0.13-0.33 0.28-0.65 0.45-0.96 0.34-0.61 0.8-1.15 1.36-1.58 0.57-0.44 1.21-0.77 1.91-0.96 0.83-0.24 1.69-0.36 2.56-0.36s1.74 0.12 2.57 0.36c0.7 0.2 1.35 0.53 1.92 0.98 0.55 0.43 1 0.96 1.34 1.57 0.17 0.31 0.32 0.62 0.44 0.95h3.51c1.104 0 2 0.896 2 2v4.14c0 1.104-0.896 2-2 2h-11.07zm-8.01 6h19v17h-19v-17zm-3-3h25v23h-25v-23zm7 13.5c1.104 0 2 0.896 2 2s-0.896 2-2 2-2-0.896-2-2 0.896-2 2-2z" fill="url(#a)" fill-rule="evenodd"/>
</svg>
