<svg version="1.1" viewBox="0 0 22 22" xmlns="http://www.w3.org/2000/svg">
 <defs>
  <linearGradient id="a" y1=".5" y2=".5">
   <stop stop-color="#9c33c4" offset="0"/>
   <stop stop-color="#ff1950" offset=".513"/>
   <stop stop-color="#ff8724" offset=".987"/>
  </linearGradient>
 </defs>
 <g transform="translate(-0) scale(1) translate(-0) scale(1) translate(-.002739 -.00109) scale(1)" stroke-width=".025">
  <path transform="scale(.9999)" d="M10.95 4.854q-.292.005-.588.178L6.366 7.399h-4.02q-.967 0-1.656.69a2.25 2.25 0 0 0-.687 1.653v2.516q0 .879.582 1.55.582.67 1.465.769h1.16v2.738q0 .51.357.859t.871.35q.514-.001.863-.35.35-.348.35-.86v-2.737h.715l3.996 2.393q.591.345 1.172.021.578-.324.578-1.008V6.018q0-.683-.578-1.008a1.14 1.14 0 0 0-.584-.156zm2.148 2.201v7.867a4.64 4.64 0 0 0 1.498-1.68q.55-1.033.55-2.242c0-1.209-.186-1.554-.556-2.244s-.867-1.257-1.492-1.701zM9.77 8.065v5.871l-2.838-1.678H2.346V9.742h4.586z" fill="url(#a)"/>
  <g fill="#d66bff">
   <path d="m19.658 4.785-1.948 1.48q-.329.247-.744.185-.415-.061-.68-.384-.277-.322-.211-.751.065-.43.402-.677l1.973-1.504q.33-.247.744-.173.415.074.662.382.271.358.197.777t-.395.666zM16.208 15.91q.266-.323.68-.385.415-.061.745.185l2.021 1.504q.321.247.395.662t-.185.756q-.259.333-.674.407t-.776-.205L16.4 17.337q-.321-.246-.395-.672t.203-.756zM20.988 12.01h-2.513q-.45 0-.744-.29-.295-.291-.295-.72 0-.43.298-.721.298-.292.738-.292h2.516q.43 0 .72.29.291.291.291.72t-.29.721-.721.292"/>
  </g>
 </g>
</svg>
