<svg version="1.1" viewBox="0 0 22 22" xmlns="http://www.w3.org/2000/svg" xmlns:xlink="http://www.w3.org/1999/xlink">
 <defs>
  <linearGradient id="b" x1="10.98" x2="11" y2="22" gradientTransform="scale(.9999)" gradientUnits="userSpaceOnUse">
   <stop stop-color="#ff00d2" offset="0"/>
   <stop stop-color="#ff0052" offset="1"/>
  </linearGradient>
  <linearGradient id="a" y1="1">
   <stop stop-color="#ffc100" offset="0"/>
   <stop stop-color="#ff0069" offset="1"/>
  </linearGradient>
  <linearGradient id="d" x1="12.5" x2="19.5" y1="30" y2="23" gradientUnits="userSpaceOnUse" xlink:href="#a"/>
  <linearGradient id="c" x1="12.58" x2="27.68" y1="16.69" y2="1.589" gradientTransform="scale(.7947 1.258)" gradientUnits="userSpaceOnUse" xlink:href="#a"/>
 </defs>
 <path transform="translate(1e-6 5e-4) scale(1)" d="m4.65 0q-0.5849 0-1.094 0.2-0.5099 0.198-0.8749 0.6549l-2.076 2.713a2.8 2.8 0 0 0-0.45 0.7949 2.6 2.6 0 0 0-0.155 0.8869v14.07q0 1.136 0.7729 1.908 0.7729 0.7729 1.908 0.7729h16.61q1.147 0 1.93-0.7729 0.7809-0.7729 0.7809-1.908v-14.07q0-0.453-0.172-0.8869a3.6 3.6 0 0 0-0.433-0.7949l-2.135-2.713a2.07 2.07 0 0 0-0.8729-0.6549q-0.5099-0.2-1.066-0.2zm0.455 2.682h11.72c0.267 0 0.5199 0.122 0.6859 0.332l0.357 0.451a0.33 0.33 0 0 1 0.04 0.346 0.33 0.33 0 0 1-0.296 0.183h-13.29a0.326 0.326 0 0 1-0.256-0.5269l0.35-0.45a0.8799 0.8799 0 0 1 0.6899-0.335zm-1.609 3.795h14.98a0.8159 0.8159 0 0 1 0.8149 0.8139v11.21a0.8159 0.8159 0 0 1-0.8149 0.8149h-14.98a0.8159 0.8159 0 0 1-0.8139-0.8139v-11.21a0.8149 0.8149 0 0 1 0.8139-0.8149" fill="url(#b)" stroke-width=".09599"/>
 <g transform="translate(1e-6 5e-4) scale(1) matrix(.1556 0 0 .1556 6.019 7.981)">
  <path transform="matrix(2.285 0 0 2.285 -4.571 -4.571)" d="m16 23a3.5 3.5 0 0 0 0 7 3.5 3.5 0 0 0 0-7z" fill="url(#d)"/>
  <path transform="matrix(2.285 0 0 2.285 -4.571 -4.571)" d="m15.59 2.014a6 6 0 0 0-5.59 5.986c0 3.522 1.985 8.536 3.16 11.19 0.495 1.12 1.613 1.81 2.84 1.81s2.346-0.6906 2.84-1.81c1.174-2.654 3.16-7.666 3.16-11.19a6 6 0 0 0-6.41-5.986z" fill="url(#c)"/>
 </g>
</svg>
