<svg version="1.1" viewBox="0 0 22 22" xmlns="http://www.w3.org/2000/svg">
 <defs>
  <linearGradient id="a" x1="-.4174" x2="22.83" y1="10.81" y2="10.81" gradientTransform="matrix(-.9129 0 0 .9468 21.23 .7699)" gradientUnits="userSpaceOnUse">
   <stop stop-color="#02aa93" offset="0"/>
   <stop stop-color="#67ff80" offset="1"/>
  </linearGradient>
 </defs>
 <path transform="translate(.001698 .000917) scale(.9999) translate(.002533 .000747) scale(.9997)" d="m3.975 1.543e-5c0.1356-5.693e-4 0.2722 0.01733 0.4067 0.05266 0.5439 0.1392 0.9585 0.5644 1.101 1.095a0.7722 0.7722 0 0 1 0.00363 0.01452c0.07708 0.3154-0.1356 0.5915-0.2524 0.8897h10.5c3.244 0 5.881 2.638 5.881 5.881v1.021c0 0.8423-0.6975 1.543-1.538 1.543s-1.54-0.7011-1.54-1.543v-1.021c0-1.564-1.234-2.804-2.804-2.804h-10.51c0.1205 0.3022 0.3337 0.581 0.2488 0.9043-0.1392 0.544-0.5644 0.9585-1.095 1.101a0.7722 0.7722 0 0 1-0.0109 0.00364c-0.5288 0.1322-1.093-0.02611-1.482-0.414l-2.039-2.039c-0.299-0.299-0.454-0.702-0.454-1.103a0.7722 0.7722 0 0 1 0-0.02179c0.01136-0.3855 0.1735-0.7774 0.454-1.059v-0.00181l2.03-2.036c0.2928-0.302 0.6897-0.4632 1.097-0.4649zm16.09 11.51c0.8422 0 1.54 0.6956 1.54 1.538v1.019c0 3.244-2.639 5.881-5.883 5.881h-10.5c0.1178 0.2984 0.3338 0.5734 0.2542 0.8916a0.7722 0.7722 0 0 1-0.00363 0.01271c-0.1421 0.533-0.5534 0.9557-1.09 1.103a0.7722 0.7722 0 0 1-0.01997 0.0055c-0.5341 0.1305-1.104-0.02154-1.494-0.4249l-2.03-2.037 0.01271 0.0109c-0.3068-0.2945-0.4605-0.7028-0.463-1.101a0.7722 0.7722 0 0 1-0.003626-0.0345c0.01167-0.3844 0.1619-0.7741 0.4667-1.065l2.025-2.032a0.7722 0.7722 0 0 1 0.00186-0.0019c0.3858-0.3858 0.9557-0.5379 1.488-0.3976 0.536 0.1362 0.9641 0.5558 1.101 1.097 0.08545 0.3234-0.1242 0.5995-0.2433 0.8988h10.5c1.571 0 2.806-1.234 2.806-2.806v-1.019c0-0.8424 0.6956-1.538 1.538-1.538z" fill="url(#a)" stroke-width=".9297"/>
</svg>
