<svg version="1.1" viewBox="0 0 22 22" xmlns="http://www.w3.org/2000/svg">
 <defs>
  <linearGradient id="a" x1=".4966" x2="47.25" y1=".7541" y2="47.5" gradientTransform="matrix(-.4707 0 0 .4656 22.24 -.2338)" gradientUnits="userSpaceOnUse">
   <stop stop-color="#fe0844" offset="0"/>
   <stop stop-color="#feb302" offset="1"/>
  </linearGradient>
 </defs>
 <path transform="translate(6.8e-5 .001725) scale(.9999)" d="m5.408 0.1173c0.2111 0.004789 0.422 0.0521 0.6235 0.1463 0.5393 0.2522 0.8665 0.7761 0.9151 1.363 0.01802 0.2165 0.03575 0.4679 0.05121 0.7597 0.1277 0.00289 0.2553 0.00502 0.3831 0.00549 1.736 0.00301 3.394 0.8796 4.361 2.325 8e-3 0.01198 0.01633 0.02426 0.02377 0.03657l5.617 9.296c0.03642 0.04742 0.0939 0.07681 0.1563 0.07681h1.8c1.03 0 2.39 0.5533 2.607 1.99 0.03473 0.2291 0.05575 0.4807 0.05575 0.7518s-0.02104 0.5215-0.05575 0.7508c-0.2178 1.437-1.578 1.99-2.607 1.99h-1.8c-1.841 0-3.443-1.183-4.358-2.551-0.0061-0.0091-0.01161-0.01811-0.01737-0.02743l-5.622-9.076c-0.0381-0.05121-0.09854-0.07873-0.1618-0.07864-0.1278 4.681e-4 -0.2553 0.00257-0.3831 0.00549-0.0154 0.2913-0.03322 0.5425-0.05121 0.7588-0.04882 0.587-0.3758 1.11-0.9151 1.362-0.5374 0.2512-1.146 0.1682-1.628-0.1618-0.4845-0.3322-1.145-0.8192-2.005-1.519-0.8885-0.7242-1.474-1.311-1.86-1.762-0.719-0.8407-0.719-2.011 0-2.852 0.3857-0.4508 0.9713-1.038 1.86-1.762 0.8594-0.7007 1.521-1.188 2.006-1.52 0.3008-0.2062 0.6511-0.3161 1.003-0.3081zm-0.2953 2.099c-0.3991 0.2868-0.9062 0.6713-1.531 1.181-0.8182 0.667-1.32 1.177-1.62 1.528-0.07284 0.08515-0.08959 0.1577-0.08959 0.2084 0 0.0507 0.01681 0.1233 0.08959 0.2084 0.3001 0.3507 0.8019 0.8608 1.62 1.528 0.6244 0.5088 1.131 0.8936 1.531 1.181 0.019-0.3033 0.03626-0.6675 0.04938-1.102 0.01474-0.4882 0.4018-0.8824 0.8894-0.9062 0.3942-0.01929 0.7251-0.02896 0.9582-0.03383 0.1247-0.00257 0.2502-0.0053 0.3749-0.00549 0.69 0 1.336 0.3444 1.721 0.9189 0.00609 0.00913 0.01161 0.01811 0.01737 0.02743l5.622 9.081c0.6816 1.011 1.761 1.707 2.792 1.707h1.8c0.2474 0 0.4526-0.06544 0.5814-0.1499 0.1141-0.0748 0.1602-0.1546 0.1746-0.2496 0.02136-0.1409 0.03474-0.2977 0.03474-0.47s-0.01338-0.329-0.03474-0.47c-0.01441-0.09507-0.06053-0.1748-0.1746-0.2496-0.1289-0.08449-0.3341-0.1499-0.5814-0.1499h-1.8c-0.69 0-1.335-0.3435-1.72-0.9179-8e-3 -0.01194-0.01541-0.02426-0.02286-0.03657l-5.622-9.306c-0.6249-0.9222-1.67-1.476-2.789-1.476-0.125-1.779e-4 -0.2499-0.002893-0.3749-0.005486-0.2331-0.004845-0.5641-0.01365-0.9582-0.03291-0.4878-0.02383-0.8749-0.4188-0.8894-0.9072-0.01311-0.4345-0.03037-0.799-0.04938-1.103zm14.23 0.1746c1.03 0 2.39 0.5533 2.607 1.99 0.03473 0.2291 0.05575 0.4807 0.05575 0.7518s-0.02104 0.5215-0.05575 0.7508c-0.2178 1.437-1.578 1.99-2.607 1.99h-1.8c-0.06244 5e-7 -0.1199 0.02938-0.1563 0.07682l-0.1993 0.3309c-0.2673 0.4426-0.843 0.5847-1.285 0.3172-0.4425-0.2673-0.5847-0.843-0.3172-1.285l0.2157-0.3566c0.0074-0.01231 0.01485-0.02459 0.02286-0.03657 0.3842-0.5744 1.029-0.9189 1.72-0.9189h1.8c0.2474 2.3e-6 0.4526-0.06544 0.5814-0.1499 0.1141-0.07485 0.1602-0.1536 0.1746-0.2487 0.02136-0.1409 0.03474-0.2978 0.03474-0.47s-0.01338-0.33-0.03474-0.4709c-0.01441-0.09507-0.06052-0.1739-0.1746-0.2487-0.1289-0.08449-0.3341-0.1499-0.5814-0.1499h-1.8c-0.8791 0-1.711 0.342-2.331 0.9353-0.3735 0.3575-0.9662 0.3443-1.324-0.02926-0.3575-0.3736-0.3443-0.9662 0.02926-1.324 0.9652-0.9236 2.26-1.454 3.626-1.454zm-13.93 9.46c0.2111 0.0048 0.422 0.0521 0.6235 0.1463 0.5393 0.2522 0.8665 0.7761 0.9151 1.363 0.01798 0.2162 0.0358 0.4676 0.05121 0.7588l0.05121 9.36e-4c0.1092 0.0022 0.1949 0.0031 0.2524 0.0037 0.0287 2.8e-4 0.04981 8.89e-4 0.06399 9.36e-4h0.02013c0.06675-4.7e-5 0.1279-0.03345 0.1636-0.08688 0.2875-0.4298 0.8683-0.5453 1.298-0.2578 0.4298 0.2875 0.5453 0.8683 0.2578 1.298-0.3841 0.5744-1.03 0.9189-1.721 0.9189h-0.02743c-0.01718-9.4e-5 -0.04213-6.09e-4 -0.07405-9.37e-4 -0.0639-6.08e-4 -0.1568-0.0022-0.2734-0.0046-0.2332-0.0048-0.5636-0.01367-0.9582-0.03291-0.4878-0.02387-0.8749-0.4188-0.8894-0.9072-0.01311-0.434-0.03037-0.7986-0.04938-1.102-0.3991 0.2868-0.9062 0.6713-1.531 1.181-0.8182 0.667-1.32 1.177-1.62 1.528-0.07284 0.0851-0.08959 0.1578-0.08959 0.2084 0 0.0507 0.01676 0.1233 0.08959 0.2084 0.3001 0.3507 0.8019 0.8608 1.62 1.528 0.6244 0.5088 1.131 0.8936 1.531 1.181 0.019-0.3036 0.03626-0.668 0.04938-1.103 0.01526-0.506 0.4292-0.9081 0.9353-0.9081 0.3591 0 0.6675-0.0084 0.8861-0.01737 0.109-0.0045 0.1954-0.0095 0.2532-0.0128 0.02888-0.0016 0.05074-0.0028 0.06492-0.0037l0.01554-9.36e-4h0.00276c0.02167-0.0015 0.04416-0.0028 0.06582-0.0028 0.9353 0 1.818-0.3865 2.447-1.051 0.3556-0.3754 0.9484-0.3912 1.324-0.03565 0.3754 0.3556 0.3912 0.9474 0.03566 1.323-0.9736 1.028-2.334 1.628-3.775 1.636-0.01807 0.0011-0.0441 0.0028-0.07588 0.0046-0.06661 0.0038-0.1622 0.0088-0.2816 0.01372l-0.0631 0.0028c-0.01521 0.2855-0.03259 0.5322-0.05027 0.7452-0.04882 0.587-0.3758 1.11-0.9151 1.362-0.5374 0.2512-1.145 0.1681-1.627-0.1618-0.4845-0.3322-1.146-0.8187-2.006-1.519-0.8885-0.7242-1.474-1.311-1.86-1.762-0.719-0.8407-0.719-2.012 0-2.853 0.3857-0.4508 0.9713-1.037 1.86-1.761 0.8594-0.7003 1.52-1.188 2.005-1.52 0.3008-0.2062 0.6521-0.3161 1.004-0.3081z" fill="url(#a)" stroke-width=".4681"/>
 <desc>Shuffle Streamline Icon: https://streamlinehq.com</desc>
</svg>
