<svg version="1.1" viewBox="0 0 22 22" xmlns="http://www.w3.org/2000/svg">
 <defs>
  <linearGradient id="a" x1="1" x2="0" y2="1">
   <stop stop-color="#ffc100" offset="0"/>
   <stop stop-color="#ff0069" offset="1"/>
  </linearGradient>
 </defs>
 <path transform="translate(-.00038 1e-6) scale(1) translate(.004 .002)" d="M17.28-.002Q15.985 0 15.061.922c-.924.922-.924 1.355-.924 2.219v15.71a3.03 3.03 0 0 0 .924 2.219 3.03 3.03 0 0 0 2.219.924 3.02 3.02 0 0 0 2.219-.924 3.03 3.03 0 0 0 .922-2.22V3.14q.003-1.291-.922-2.218-.925-.925-2.219-.924" fill="url(#a)"/>
 <path transform="translate(-.00038 1e-6) scale(1) translate(.004 .002)" d="M4.711-.002Q3.416 0 2.492.922c-.924.922-.924 1.355-.924 2.219v15.71a3.03 3.03 0 0 0 .924 2.219 3.03 3.03 0 0 0 2.219.924 3.02 3.02 0 0 0 2.219-.924 3.03 3.03 0 0 0 .924-2.22V3.14Q7.856 1.85 6.93.923q-.925-.925-2.219-.924" fill="url(#a)"/>
</svg>
