<svg version="1.1" viewBox="0 0 22 22" xmlns="http://www.w3.org/2000/svg">
 <defs>
  <linearGradient id="a" x2="0" y2="1">
   <stop stop-color="#ffc100" offset="0"/>
   <stop stop-color="#ff0069" offset="1"/>
  </linearGradient>
 </defs>
 <path transform="translate(-1.614 2.328) scale(.271) translate(0) scale(1) translate(0) scale(1) translate(.00498) scale(1) translate(-.00098) scale(1) translate(8e-4) scale(1)" d="m32.01 0c-4.218 0-8.464 1.397-11.72 4.287-3.251 2.887-5.398 7.309-5.398 12.83v11.91c0 9.427 7.689 17.12 17.12 17.12s17.12-7.687 17.12-17.12v-11.91c0-5.519-2.148-9.941-5.398-12.83-3.251-2.887-7.5-4.287-11.72-4.287zm0 4.465h2e-3c3.224 2.245e-4 6.419 1.088 8.75 3.156 2.331 2.069 3.898 5.089 3.898 9.494v11.91c0 7.013-5.637 12.65-12.65 12.65s-12.65-5.637-12.65-12.65v-11.91c0-4.402 1.573-7.422 3.9-9.494 2.33-2.071 5.524-3.156 8.75-3.156z" fill="url(#a)"/>
 <path transform="translate(-1.614 2.328) scale(.271) translate(0) scale(1) translate(0) scale(1) translate(.00498) scale(1) translate(-.00098) scale(1)" d="m37.96 14.88a2.232 2.232 0 0 0-2.23 2.229 2.232 2.232 0 0 0 2.23 2.232h8.932a2.232 2.232 0 0 0 2.23-2.232 2.232 2.232 0 0 0-2.23-2.229zm-29.78 11.91a2.232 2.232 0 0 0-2.23 2.232c0 13.57 10.55 24.4 23.81 25.59v4.916h-6.697a2.232 2.232 0 0 0-2.23 2.232 2.232 2.232 0 0 0 2.23 2.234h17.86a2.232 2.232 0 0 0 2.23-2.234 2.232 2.232 0 0 0-2.23-2.232h-6.697v-4.916c13.26-1.191 23.81-12.03 23.81-25.59a2.232 2.232 0 0 0-2.23-2.232 2.232 2.232 0 0 0-2.232 2.232c0 11.95-9.635 21.58-21.58 21.58-11.94 0-21.58-9.635-21.58-21.58a2.232 2.232 0 0 0-2.229-2.232zm29.78 0a2.232 2.232 0 0 0-2.23 2.232 2.232 2.232 0 0 0 2.23 2.232h8.932a2.232 2.232 0 0 0 2.23-2.232 2.232 2.232 0 0 0-2.23-2.232z" fill="url(#a)" style=""/>
 <path transform="translate(-1.614 2.328) scale(.271)" d="m74.51 6.123a1.666 1.666 0 0 1 1.178 0.4879l1.6 1.614c13.12 13.12 13.12 34.44 0 47.56l-1.6 1.614a1.666 1.666 0 0 1-2.355 0l-3.239-3.227a1.666 1.666 0 0 1 0-2.355l1.606-1.614c10.07-10.06 10.07-26.33 0-36.4l-1.606-1.614a1.666 1.666 0 0 1 0-2.355l3.239-3.227a1.666 1.666 0 0 1 1.178-0.4879zm-9.733 9.687a1.666 1.666 0 0 1 1.178 0.4879l1.614 1.614c7.766 7.769 7.766 20.41 0 28.18l-1.614 1.614a1.666 1.666 0 0 1-2.355 0l-3.227-3.227a1.666 1.666 0 0 1 0-2.355l1.6-1.614a1.666 1.666 0 0 1 0.01288 0c4.716-4.713 4.716-12.31 0-17.02a1.666 1.666 0 0 1-0.01288 0l-1.6-1.614a1.666 1.666 0 0 1 0-2.355l3.227-3.227a1.666 1.666 0 0 1 1.178-0.4879z" fill="#0f0" stop-color="#000000" stroke-linecap="round" stroke-linejoin="round" stroke-width="3.331"/>
</svg>
