<svg version="1.1" viewBox="0 0 22 22" xmlns="http://www.w3.org/2000/svg" xmlns:xlink="http://www.w3.org/1999/xlink">
 <defs>
  <linearGradient id="a" x2="0" y1="1">
   <stop stop-color="#007bf6" offset="0"/>
   <stop stop-color="#d60cff" offset=".5"/>
   <stop stop-color="#ff167a" offset="1"/>
  </linearGradient>
  <linearGradient id="c" x1="7.256" x2="7.256" y1="14.43" y2="1.077" gradientTransform="matrix(-.8812 0 0 1.188 23.28 -1.279)" gradientUnits="userSpaceOnUse" xlink:href="#a"/>
  <linearGradient id="b" x1="3.156" x2="3.156" y1="23.43" y2="6.437" gradientTransform="matrix(-1.054 0 0 .9933 23.28 -1.279)" gradientUnits="userSpaceOnUse" xlink:href="#a"/>
 </defs>
 <path transform="translate(.00035) scale(1)" d="m11.01 0c1.45 0 2.908 0.4798 4.027 1.473 1.117 0.9923 1.856 2.512 1.856 4.409v4.092c0 3.24-2.642 5.882-5.882 5.882s-5.882-2.642-5.882-5.882v-4.092c0-1.897 0.7386-3.417 1.856-4.409s2.577-1.473 4.027-1.473m0 1.534c-1.108 0-2.207 0.3734-3.008 1.084s-1.34 1.749-1.34 3.263v4.092c0 2.41 1.938 4.348 4.348 4.348s4.348-1.938 4.348-4.348v-4.092c0-1.513-0.5401-2.551-1.34-3.263-0.801-0.712-1.899-1.084-3.008-1.084" fill="url(#c)" stroke-width="1.023"/>
 <path transform="translate(.00035) scale(1)" d="m8.959 5.115a0.7672 0.7672 0 0 1 0.7672 0.7672 0.7672 0.7672 0 0 1-0.7672 0.7672h-3.069a0.7672 0.7672 0 0 1-0.7672-0.7672 0.7672 0.7672 0 0 1 0.7672-0.7672zm10.23 4.092a0.7672 0.7672 0 0 1 0.7672 0.7672c0 4.663-3.626 8.386-8.184 8.796v1.69h2.302a0.7672 0.7672 0 0 1 0.7672 0.7672 0.7672 0.7672 0 0 1-0.7672 0.7672h-6.138a0.7672 0.7672 0 0 1-0.7672-0.7672 0.7672 0.7672 0 0 1 0.7672-0.7672h2.302v-1.69c-4.558-0.4092-8.184-4.133-8.184-8.796a0.7672 0.7672 0 0 1 0.7672-0.7672 0.7672 0.7672 0 0 1 0.7672 0.7672c0 4.105 3.311 7.417 7.417 7.417s7.417-3.311 7.417-7.417a0.7672 0.7672 0 0 1 0.7672-0.7672m-10.23 0a0.7672 0.7672 0 0 1 0.7672 0.7672 0.7672 0.7672 0 0 1-0.7672 0.7672h-3.069a0.7672 0.7672 0 0 1-0.7672-0.7672 0.7672 0.7672 0 0 1 0.7672-0.7672z" fill="url(#b)" stroke-width="1.023"/>
 <path transform="translate(.00035) scale(1)" d="m1.896 0.5781a1.328 1.328 0 0 1 0.9394 0.3887l18.2 18.2a1.328 1.328 0 0 1 0 1.877 1.328 1.328 0 0 1-1.877 0l-18.2-18.2a1.328 1.328 0 0 1 0-1.877 1.328 1.328 0 0 1 0.9375-0.3887z" fill="#f00"/>
</svg>
