<svg version="1.1" viewBox="0 0 22 22" xmlns="http://www.w3.org/2000/svg">
 <defs>
  <linearGradient id="a" x2="0" y1="1">
   <stop stop-color="#007bf6" offset="0"/>
   <stop stop-color="#d60cff" offset=".5"/>
   <stop stop-color="#ff167a" offset="1"/>
  </linearGradient>
 </defs>
 <path transform="translate(0) scale(.3438) translate(0) scale(1) translate(.0037) scale(1) translate(.0023) scale(1)" d="m32 0c-4.218 0-8.463 1.397-11.72 4.287-3.251 2.887-5.4 7.309-5.4 12.83v11.91c0 9.427 7.69 17.12 17.12 17.12s17.12-7.688 17.12-17.12v-11.91c0-5.519-2.148-9.941-5.398-12.83-3.251-2.887-7.499-4.287-11.72-4.287zm0 4.465c3.224 0 6.421 1.087 8.752 3.156s3.898 5.089 3.898 9.494v11.91c0 7.013-5.637 12.65-12.65 12.65s-12.65-5.637-12.65-12.65v-11.91c0-4.402 1.573-7.422 3.9-9.494 2.331-2.072 5.525-3.156 8.752-3.156z" fill="url(#a)"/>
 <path transform="translate(0) scale(.3438) translate(0) scale(1) translate(.0037) scale(1) translate(.0023) scale(1)" d="m37.95 14.88a2.232 2.232 0 0 0-2.232 2.232 2.232 2.232 0 0 0 2.232 2.232h8.93a2.232 2.232 0 0 0 2.232-2.232 2.232 2.232 0 0 0-2.232-2.232zm-29.77 11.91a2.232 2.232 0 0 0-2.232 2.232c0 13.57 10.55 24.4 23.81 25.59v4.916h-6.697a2.232 2.232 0 0 0-2.232 2.232 2.232 2.232 0 0 0 2.232 2.234h17.86a2.232 2.232 0 0 0 2.232-2.234 2.232 2.232 0 0 0-2.232-2.232h-6.697v-4.916c13.26-1.191 23.81-12.03 23.81-25.59a2.232 2.232 0 0 0-2.232-2.232 2.232 2.232 0 0 0-2.232 2.232c0 11.95-9.635 21.58-21.58 21.58s-21.58-9.635-21.58-21.58a2.232 2.232 0 0 0-2.232-2.232zm29.77 0a2.232 2.232 0 0 0-2.232 2.232 2.232 2.232 0 0 0 2.232 2.232h8.93a2.232 2.232 0 0 0 2.232-2.232 2.232 2.232 0 0 0-2.232-2.232z" fill="url(#a)"/>
</svg>
