<svg version="1.1" viewBox="0 0 22 22" xmlns="http://www.w3.org/2000/svg" xmlns:xlink="http://www.w3.org/1999/xlink">
 <defs>
  <linearGradient id="b" x1="1" x2="0" y2="1">
   <stop stop-color="#01ff4d" offset="0"/>
   <stop stop-color="#2fff00" offset="1"/>
  </linearGradient>
  <linearGradient id="a" y1="1">
   <stop stop-color="#ff00f5" offset="0"/>
   <stop stop-color="#ff81ff" offset="1"/>
  </linearGradient>
 </defs>
 <path transform="translate(-.057) scale(1) matrix(.999 0 0 .999 .00183 .009866)" d="m11.01 6.037-0.00391 0.001955c-3.08 0-5.15 0.8334-7.246 2.057a1.984 1.984 0 0 0-0.7077 2.696 1.984 1.984 0 0 0 2.694 0.7077c1.733-1.013 2.98-1.519 5.261-1.519 2.248 0 3.52 0.5212 5.228 1.498 0.5025-0.2743 1.077-0.4301 1.685-0.4301 0.2688 0 0.5316 0.03023 0.784 0.08798 0.09977-0.1069 0.1882-0.2262 0.2639-0.3578a1.98 1.98 0 0 0-0.7253-2.69v-0.001955c-2.06-1.183-4.142-2.049-7.234-2.049zm-0.00391 5.767v0.001955c-1.661 0-3.142 0.4331-4.467 1.109a1.984 1.984 0 0 0-0.8622 2.649c0.4916 0.9614 1.691 1.353 2.653 0.8622 0.8644-0.4414 1.713-0.6804 2.677-0.6804 0.7417 0 1.458 0.1568 2.154 0.4399 0.2555-0.5575 0.7023-0.9931 1.212-1.331v-0.2581c0-0.7091 0.2127-1.373 0.5767-1.93-1.178-0.5201-2.503-0.8622-3.943-0.8622zm0 5.846a2.181 2.181 0 1 0 0 4.36 2.181 2.181 0 0 0 1.998-1.482c-0.01911-0.08587-0.03504-0.1737-0.04692-0.262-0.06249-0.4648-0.1211-0.9758-0.131-1.527a2.181 2.181 0 0 0-1.82-1.089z" fill="url(#a)"/>
 <path transform="translate(-.057) scale(1) matrix(.999 0 0 .999 .00183 .009866)" d="m11.01-0.009876c-4.241 0-7.143 1.172-9.99 2.989a1.98 1.98 0 0 0-0.6002 2.721 1.984 1.984 0 0 0 2.72 0.6022c2.406-1.535 4.452-2.372 7.873-2.372 3.426 0 5.527 0.8426 7.857 2.362 0.9036 0.5897 2.134 0.3269 2.725-0.5767a1.984 1.984 0 0 0-0.5728-2.727c-2.812-1.833-5.776-2.999-10.01-2.999z" fill="url(#a)" opacity=".33"/>
 <path transform="translate(-.057) scale(1)" d="m17.91 12.05c-1.399 0-2.544 1.145-2.544 2.544v0.7514c-0.7391 0.2567-1.317 0.8757-1.424 1.675-0.06616 0.4913-0.1233 1.01-0.1233 1.552 0 0.542 0.05714 1.062 0.1233 1.554 0.1344 0.9986 0.9632 1.784 1.98 1.831 0.6348 0.02917 1.28 0.04496 1.989 0.04496 0.7088 0 1.354-0.01579 1.989-0.04496 1.016-0.04673 1.845-0.8322 1.98-1.831 0.06616-0.4913 0.1236-1.01 0.1236-1.554s-0.05742-1.061-0.1236-1.552c-0.1077-0.7998-0.685-1.419-1.424-1.675v-0.7514c0-1.399-1.145-2.544-2.544-2.544zm0 1.109c0.8004 0 1.435 0.6347 1.435 1.435v0.5779c-0.4618-0.01509-0.9277-0.02669-1.435-0.02669-0.5072 0-0.9735 0.0116-1.435 0.02669v-0.5779c0-0.8004 0.635-1.435 1.435-1.435zm0 3.095c0.6929 0 1.32 0.01481 1.938 0.04322 0.4711 0.02166 0.8662 0.3929 0.931 0.8714 0.06356 0.4723 0.114 0.9417 0.114 1.405 0 0.4633-0.05046 0.932-0.114 1.404-0.06443 0.4784-0.4599 0.8508-0.931 0.8723-0.6179 0.0284-1.245 0.04322-1.938 0.04322-0.6933 0-1.32-0.01482-1.938-0.04322-0.4711-0.02166-0.8662-0.3938-0.931-0.8723-0.06359-0.4723-0.114-0.9411-0.114-1.404 0-0.4633 0.05041-0.9326 0.114-1.405 0.06443-0.4784 0.4599-0.8499 0.931-0.8714 0.6179-0.02841 1.245-0.04322 1.938-0.04322z" fill="url(#b)" stroke-width=".1485"/>
 <path transform="translate(-.057) scale(1)" d="m17.91 17.33a0.7415 0.7415 0 0 0-0.4976 1.298v0.6922a0.4976 0.4976 0 0 0 0.9953 0v-0.6922a0.7415 0.7415 0 0 0-0.4976-1.298z" fill="url(#b)" stroke-width=".4976"/>
</svg>
