<svg version="1.1" viewBox="0 0 22 22" xmlns="http://www.w3.org/2000/svg">
 <defs>
  <linearGradient id="b" x1="1" x2="0" y1="1">
   <stop stop-color="#5433ff" offset="0"/>
   <stop stop-color="#20bdff" offset=".517"/>
   <stop stop-color="#a5fecb" offset=".983"/>
  </linearGradient>
 </defs>
 <path transform="translate(-0) scale(1) translate(-0) scale(1) translate(-0) scale(1) translate(6e-6) scale(1) translate(.003106 5e-4) scale(.9999) translate(-.05745) scale(1) matrix(.999 0 0 .999 .00183 .009866)" d="m11.01-0.009876c-4.241 0-7.143 1.172-9.99 2.989a1.98 1.98 0 0 0-0.6002 2.721 1.984 1.984 0 0 0 2.72 0.6022c2.406-1.535 4.452-2.372 7.873-2.372 3.426 0 5.527 0.8426 7.857 2.362 0.9036 0.5897 2.134 0.3269 2.725-0.5767a1.984 1.984 0 0 0-0.5728-2.727c-2.812-1.833-5.776-2.999-10.01-2.999zm0.0039 6.047-0.0039 0.00196c-3.08 0-5.15 0.8334-7.246 2.057a1.984 1.984 0 0 0-0.7077 2.696 1.984 1.984 0 0 0 2.694 0.7077c1.733-1.013 2.98-1.519 5.261-1.519 1.383 0 2.396 0.1977 3.369 0.5767 0.9889-0.9095 2.412-1.421 3.9-1.421h2e-3c0.2941 0 0.5798 0.02258 0.8563 0.06647a1.98 1.98 0 0 0-0.8916-1.114v-0.00196c-2.06-1.183-4.142-2.049-7.234-2.049zm-0.0039 5.767v2e-3c-1.661 0-3.142 0.4331-4.467 1.109a1.984 1.984 0 0 0-0.8622 2.649c0.4916 0.9614 1.691 1.353 2.653 0.8622 0.8644-0.4414 1.713-0.6804 2.677-0.6804 0.933 0 1.826 0.2494 2.69 0.6843a1.98 1.98 0 0 0 0.4282 0.1545v-0.393c0-0.2082 0.07873-0.2546 0.1232-0.4164-0.2201-0.1606-0.474-0.221-0.6471-0.4692-0.5499-0.7883-0.6864-1.782-0.4536-2.714 0.04278-0.1707 0.09524-0.3368 0.1584-0.4966-0.727-0.1851-1.495-0.2913-2.299-0.2913zm0 5.846a2.181 2.181 0 1 0 0 4.36 2.181 2.181 0 0 0 0-4.36z" fill="url(#b)" opacity=".35"/>
 <path transform="translate(-0) scale(1) translate(-0) scale(1) translate(-0) scale(1) translate(6e-6) scale(1) translate(.003106 5e-4) scale(.9999) translate(-.05745) scale(1)" d="m18.26 10.14c-2.006 0-3.758 1.114-4.154 2.695v8.9e-4c-0.1705 0.6818-0.06458 1.371 0.3023 1.897 0.2267 0.3251 0.5751 0.5351 0.9617 0.6766-0.1186 0.2425-0.2592 0.4771-0.2592 0.7789l-8.9e-4 0.9784a1.744 1.744 0 0 0 0.4011 1.115c-0.3528 0.3769-0.5773 0.9156-0.5773 1.524 0 0.677 0.2781 1.267 0.7029 1.644 0.424 0.3774 0.963 0.5518 1.494 0.5518 0.5307 0 1.072-0.1744 1.495-0.5518 0.4235-0.3774 0.7012-0.9674 0.7012-1.645 0-0.6203-0.232-1.169-0.5971-1.546q0.03823-0.04832 0.07292-0.09885c0.2733-0.3994 0.4389-0.6704 0.5465-0.7311 0.688-0.3866 1.329-0.7908 1.826-1.355s0.8202-1.314 0.8202-2.2c0-0.9015-0.2698-1.827-0.894-2.546-0.6243-0.7196-1.609-1.188-2.84-1.188zm0 1.318c0.9164 0 1.469 0.3001 1.845 0.7341 0.3765 0.4336 0.572 1.047 0.572 1.683 0 0.5957-0.1669 0.9613-0.4907 1.329-0.3242 0.3682-0.8387 0.7135-1.483 1.075-0.5979 0.3356-0.8053 0.8677-0.9889 1.136l-8.9e-4 8.9e-4a0.4305 0.4305 0 0 1-0.3624 0.1933h-0.4855a0.4305 0.4305 0 0 1-0.4393-0.4407l0.0022-0.9793v-8.9e-4c0-0.2197 0.203-0.5202 0.6445-0.8497s1.035-0.6269 1.506-0.8879a0.6591 0.6591 0 0 0-0.6173-1.165c-7e-3 0.0035-0.01362 0.0088-0.02109 0.0123v-8.9e-4c-0.0061 0.0035-0.01758 0.01142-0.02417 0.01494a27.68 27.68 0 0 0-1.384 0.7728h-8.88e-4v8.9e-4c-0.2012 0.1186-0.3537 0.1722-0.4385 0.174h-8.9e-4c-0.3088 0.0061-0.4789-0.1011-0.6045-0.2812s-0.1946-0.4626-0.1041-0.8238c0.1858-0.7385 1.392-1.698 2.876-1.698zm-1.13 7.469c0.2381 0 0.4679 0.08259 0.6203 0.2179 0.1524 0.1353 0.2592 0.3137 0.2592 0.6612s-0.1068 0.525-0.2592 0.6603c-0.1524 0.1358-0.3822 0.2179-0.6203 0.2179s-0.4666-0.08216-0.619-0.2179c-0.1524-0.1358-0.2592-0.3124-0.2592-0.6603 0-0.348 0.1068-0.5259 0.2592-0.6612s0.3813-0.2179 0.619-0.2179" fill="#0f0" stroke-width=".4393"/>
</svg>
