<svg xmlns="http://www.w3.org/2000/svg" viewBox="0 0 22 22"><g fill="#00dfff"><path d="M19.07 0a.73.73 0 0 0-.734.734v20.535c0 .407.327.734.733.734h1.467a.73.73 0 0 0 .734-.734V.734A.73.73 0 0 0 20.536 0zm-4.401 4.4a.73.73 0 0 0-.734.734V21.27c0 .407.327.734.734.734h1.467a.73.73 0 0 0 .733-.734V5.134a.73.73 0 0 0-.733-.733z" opacity=".35"/><path d="M10.268 8.801a.73.73 0 0 0-.733.734v11.734c0 .407.327.734.733.734h1.467a.73.73 0 0 0 .733-.734V9.535a.73.73 0 0 0-.733-.734zm-4.4 4.4a.73.73 0 0 0-.734.734v7.334c0 .407.327.734.734.734h1.467a.73.73 0 0 0 .733-.734v-7.334a.73.73 0 0 0-.733-.733zm-4.4 4.401a.73.73 0 0 0-.734.734v2.933c0 .407.327.734.733.734h1.467a.73.73 0 0 0 .733-.734v-2.933a.73.73 0 0 0-.733-.734z"/></g></svg>