<svg xmlns="http://www.w3.org/2000/svg" viewBox="0 0 22 22"><defs><linearGradient id="a" x1="11.05" x2="11.2" y1="20.64" y2="0" gradientTransform="scale(.9954 1.005)" gradientUnits="userSpaceOnUse"><stop offset="0" stop-color="#0061ff"/><stop offset="1" stop-color="#60efff"/></linearGradient><linearGradient id="b" x1="36.17" x2="36.17" y1="11.95" y2="4.449" gradientTransform="scale(.543 1.842)" gradientUnits="userSpaceOnUse"><stop offset="0" stop-color="#ff4000"/><stop offset="1" stop-color="#ffa200"/></linearGradient></defs><path fill="url(#a)" d="M9.414 0c-.96 0-1.737.778-1.737 1.737v3.477c0 .96.778 1.737 1.737 1.737h.996v2.835H6.44c-.792 0-1.55.314-2.11.874a2.98 2.98 0 0 0-.874 2.11v1.016h-.994c-.959 0-1.737.778-1.737 1.737V19c0 .96.778 1.737 1.737 1.737H5.94c.96 0 1.737-.778 1.737-1.737v-3.477c0-.959-.777-1.737-1.737-1.737h-.996V12.77c0-.397.158-.777.439-1.058.28-.28.66-.438 1.058-.438h9.119a1.496 1.496 0 0 1 1.496 1.496v1.017h-.993c-.96 0-1.737.778-1.737 1.737V19c0 .96.778 1.737 1.737 1.737h3.477c.96 0 1.737-.778 1.737-1.737v-3.477c0-.959-.778-1.737-1.737-1.737h-.996V12.77a2.983 2.983 0 0 0-2.984-2.983H11.9V6.951h.997c.959 0 1.737-.778 1.737-1.737V1.737c0-.96-.778-1.737-1.737-1.737z" transform="translate(-.386)scale(1.0189)"/><path fill="url(#b)" fill-rule="evenodd" d="M19.64 8.194c-.493 0-1.974.016-1.974 2.468 0 1.974.987 7.403 1.974 7.403s1.974-5.429 1.974-7.403c0-2.452-1.48-2.468-1.974-2.468m-.1 10.37a1.48 1.48 0 0 0-1.379 1.476 1.481 1.481 0 1 0 2.96 0 1.48 1.48 0 0 0-1.58-1.476z" style="isolation:isolate" transform="translate(-.386)scale(1.0189)"/></svg>