<svg version="1.1" viewBox="0 0 22 22" xmlns="http://www.w3.org/2000/svg">
 <defs>
  <linearGradient id="a" x1="33.61" x2="24.47" y1="5.283" y2="14.42" gradientTransform="matrix(.653 0 0 1.525 -.02221 .003493)" gradientUnits="userSpaceOnUse">
   <stop stop-color="#ffab00" offset="0"/>
   <stop stop-color="#ff4b2b" offset=".5"/>
   <stop stop-color="#ff004c" offset="1"/>
  </linearGradient>
  <linearGradient id="b" x2="0" y1="1">
   <stop stop-color="#5433ff" offset="0"/>
   <stop stop-color="#20bdff" offset=".5"/>
   <stop stop-color="#a5fecb" offset="1"/>
  </linearGradient>
 </defs>
 <path transform="translate(-0) scale(1) translate(-0) scale(1) translate(.0039 .000194) scale(.9999) translate(0) scale(1) translate(-2.2 -2.2) scale(1.1)" d="m11 2c-1.645 0-3.001 1.356-3.001 3.001v1.999c0 1.645 1.356 3.001 3.001 3.001v0.9996h-3.001c-1.645 0-2.999 1.354-2.999 2.999-1.645 0-3.001 1.356-3.001 3.001v1.999c0 1.645 1.356 3.001 3.001 3.001h1.999c1.645 0 3.001-1.356 3.001-3.001v-1.999c0-1.645-1.356-3.001-3.001-3.001 0-0.5641 0.4355-0.9996 0.9996-0.9996h7.667c-0.04435-0.3244-0.06925-0.6456-0.06925-0.9588a0.9092 0.9092 0 0 0 0-0.001776c1.17e-4 -0.3601 0.05294-0.7087 0.1527-1.039h-2.75v-0.9996c1.645 0 3.001-1.356 3.001-3.001v-1.999c0-1.645-1.356-3.001-3.001-3.001h-1.999zm0 1.999h1.999c0.5641 0 0.9996 0.4373 0.9996 1.001v1.999c0 0.5641-0.4355 0.9996-0.9996 0.9996h-1.999c-0.5641 0-0.9996-0.4355-0.9996-0.9996v-1.999c0-0.5641 0.4355-1.001 0.9996-1.001zm4.909 10.21c-1.113 0.4403-1.911 1.532-1.911 2.793v1.999c0 1.645 1.356 3.001 3.001 3.001h0.2628c-0.3673-0.4653-0.5344-1.03-0.5344-1.584 0-0.1474 0.01126-0.2952 0.03551-0.4421-0.4454-0.1023-0.7635-0.4922-0.7635-0.9748v-1.999c0-0.3939 0.2123-0.7255 0.5327-0.8896-0.2255-0.5821-0.4504-1.234-0.6232-1.903zm-10.91 1.793h1.999c0.5641 0 0.9996 0.4355 0.9996 0.9996v1.999c0 0.5641-0.4355 1.001-0.9996 1.001h-1.999c-0.5641 0-1.001-0.4373-1.001-1.001v-1.999c0-0.5641 0.4373-0.9996 1.001-0.9996zm16.88 0.1705c-0.1941 0.4963-0.3879 0.9406-0.5469 1.3-0.1847 0.4192-0.489 0.7563-0.8558 0.9908 0.1876 0.117 0.4686 0.1031 0.609 0.261 0.3974 0.4471 0.5936 1.002 0.6214 1.555 0.1854-0.3886 0.2894-0.8227 0.2894-1.278v-1.999c0-0.287-0.04037-0.5655-0.1172-0.8292z" fill="url(#b)"/>
 <path transform="translate(-0) scale(1) translate(-0) scale(1) translate(.0039 .000194) scale(.9999) translate(0) scale(1)" d="m18.74 8.067a2.986 2.986 0 0 0-2.781 2.978c0 1.752 0.9862 4.249 1.571 5.57 0.2463 0.5574 0.8025 0.9004 1.413 0.9004s1.168-0.3433 1.413-0.9004c0.5843-1.32 1.573-3.816 1.573-5.57a2.986 2.986 0 0 0-3.188-2.978zm0.2047 10.45a1.742 1.742 0 0 0 0 3.485 1.742 1.742 0 0 0 0-3.485z" fill="url(#a)" stroke-width=".9979"/>
</svg>
