<svg xmlns="http://www.w3.org/2000/svg" viewBox="0 0 22 22"><defs><linearGradient id="a" x1="1" x2="0" y2="1"><stop offset="0" stop-color="#01ff01"/><stop offset="1" stop-color="#1bc100"/></linearGradient></defs><path fill="url(#a)" d="M24.18 3.959q-1.832.039-3.496 1.701l-4.508 4.508-2.475-1.06q-3.094-.972-5.48 1.414l-6.805 6.807 9.281 5.744-1.326 1.326q-1.945 1.945 0 3.889.794.796 1.856.797 1.061 0 1.945-.885l1.856-1.856-.795-.797 6.63 4.332-7.16 8.043c-6.542-2.77-11.76-2.209-15.64 1.68l-1.857 1.856 24.48 24.48 1.857-1.856q6.275-6.275 1.943-15.91l8.221-7.514 5.746 9.104-.797-.795-1.856 1.856q-.885.885-.885 1.945.001 1.06.797 1.856 1.944 1.945 3.89 0l1.06-1.06 5.833 9.193L53.3 55.95q2.298-2.298 1.592-5.656l-2.12-5.127 3.712-3.713q3.8-3.801-.884-8.484-4.332-4.332-8.131-1.414l-1.15-2.918 4.508-4.154q3.006-3.006 4.332-8.13 1.323-5.127-1.504-7.956-2.828-2.828-7.91-1.459c-5.082 1.37-6.142 2.431-8.264 4.553L33.327 16l-3.094-1.148q1.414-1.415 1.502-3.537c.088-2.122-.795-3.004-2.562-4.772q-2.635-2.635-4.99-2.586zm.217 5.414 1.945 1.943-1.504 1.504-3.094-.797zm24.6 2.527q.594.035.86.3.706.708-.177 3.714c-.883 3.006-1.414 3.535-2.475 4.596L13.355 51l-2.209-2.211 30.23-33.76q1.68-1.68 4.728-2.607 1.906-.58 2.896-.522zm-37.15 2.6 17.5 5.832-4.95 5.658-14.58-9.459zm29.96 17.94 7.514 19.54-1.994 1.994-10.82-16.76zm9.016 3.359 1.857 1.856-2.033 2.033-1.15-2.562zm-44.46 5.746q1.46.044 3.625.441L7.336 44.99l-3.182-3.182q.75-.309 2.209-.263zm13.79 10.25q1.413 3.712.176 6.188l-3.357-3.359z" transform="translate(1.347 -1.404)scale(.35494)"/></svg>