<svg version="1.1" viewBox="0 0 22 22" xmlns="http://www.w3.org/2000/svg">
 <defs>
  <style>.ColorScheme-Text { color:#dfdfdf; } .ColorScheme-Highlight { color:#4285f4; } .ColorScheme-NeutralText { color:#ff9800; } .ColorScheme-PositiveText { color:#4caf50; } .ColorScheme-NegativeText { color:#f44336; }</style>
 </defs>
 <path transform="translate(0) scale(1) translate(0) scale(1) translate(.000408) scale(1) translate(-1.573 -1.571) scale(1.571)" d="m14 1c-0.552 0-0.998 0.448-0.998 1v12c0 0.552 0.446 1 0.998 1 0.551 0 1-0.448 1-1v-12c0-0.552-0.449-1-1-1zm-2.883 2.58c-0.553 0-1 0.449-1 1v9.42c-1e-6 0.552 0.447 1 1 1 0.551 0 1-0.448 1-1v-9.42c-1e-6 -0.551-0.449-1-1-1zm-3.117 3.078c-0.552 0-0.998 0.448-0.998 1v6.342c0 0.552 0.446 1 0.998 1 0.551 0 1-0.448 1-1v-6.342c0-0.552-0.449-1-1-1zm-3.098 3.234c-0.552 0-0.998 0.449-0.998 1v3.107c0 0.552 0.446 1 0.998 1 0.551 0 1-0.448 1-1v-3.107c0-0.551-0.449-1-1-1zm-2.898 3.102c-0.554 0-1.002 0.449-1.002 1.002 0 0.554 0.448 1.004 1.002 1.004 0.552 0 1.002-0.4499 1.002-1.004 0-0.553-0.45-1.002-1.002-1.002z" fill="#f00" fill-opacity=".3"/>
</svg>
