<svg version="1.1" viewBox="0 0 22 22" xmlns="http://www.w3.org/2000/svg">
 <defs>
  <style>.ColorScheme-Text { color:#dfdfdf; } .ColorScheme-Highlight { color:#4285f4; } .ColorScheme-NeutralText { color:#ff9800; } .ColorScheme-PositiveText { color:#4caf50; } .ColorScheme-NegativeText { color:#f44336; }</style>
  <linearGradient id="a" y1="1">
   <stop stop-color="#fd2e00" offset="0"/>
   <stop stop-color="#f90" offset="1"/>
  </linearGradient>
 </defs>
 <path transform="translate(0) scale(1) translate(-.00046) scale(1) translate(-3e-6) scale(1) matrix(1.571 0 0 1.571 -1.573 -1.571)" d="m2.005 12.99c-0.554 0-1.002 0.449-1.002 1.002 0 0.554 0.448 1.005 1.002 1.005 0.552 0 1.002-0.4504 1.002-1.005 0-0.553-0.45-1.002-1.002-1.002z" fill="url(#a)"/>
 <path transform="translate(0) scale(1) translate(-.00046) scale(1) translate(-3e-6) scale(1) matrix(1.571 0 0 1.571 -1.573 -1.571)" d="m4.903 9.892c-0.552 0-0.9983 0.4498-0.9983 1.001v3.107c0 0.552 0.4463 0.9996 0.9983 0.9996 0.551 0 0.9996-0.4476 0.9996-0.9996v-3.107c0-0.551-0.4486-1.001-0.9996-1.001z" fill="url(#a)" opacity=".3"/>
 <path transform="translate(0) scale(1) translate(-.00046) scale(1) translate(-3e-6) scale(1) matrix(1.571 0 0 1.571 -1.573 -1.571)" d="m7.999 6.658c-0.552 0-0.9971 0.4476-0.9971 0.9996v6.343c0 0.552 0.4451 0.9996 0.9971 0.9996 0.551 0 1.001-0.4476 1.001-0.9996v-0.8156c-0.01595-0.186-0.02611-0.3786-0.02611-0.5769s0.01016-0.3908 0.02611-0.5769v-4.374c0-0.552-0.4498-0.9996-1.001-0.9996z" fill="url(#a)" opacity=".3"/>
 <path transform="translate(0) scale(1) translate(-.00046) scale(1) translate(-3e-6) scale(1) matrix(1.571 0 0 1.571 -1.573 -1.571)" d="m11.12 3.58c-0.553 0-1.001 0.4498-1.001 1.001v4.743c0.2273-0.8972 1.039-1.571 2-1.584v-3.159c-1e-6 -0.551-0.4486-1.001-0.9996-1.001z" fill="url(#a)" opacity=".3"/>
 <path transform="translate(0) scale(1) translate(-.00046) scale(1) translate(-3e-6) scale(1) matrix(1.571 0 0 1.571 -1.573 -1.571)" d="m14 1c-0.552 0-0.9983 0.4476-0.9983 0.9996v5.924c0.7272 0.3293 1.237 1.064 1.237 1.91v0.3668c0.3058 0.1559 0.5774 0.3784 0.7609 0.6626v-8.863c0-0.552-0.4486-0.9996-0.9996-0.9996z" fill="url(#a)" opacity=".3"/>
 <path transform="translate(0) scale(1) translate(-.00046) scale(1) translate(-3e-6) scale(1)" d="m17.51 11.09c-1.533 0-2.788 1.254-2.788 2.788v0.823c-0.81 0.2812-1.443 0.9598-1.561 1.836-0.07248 0.5384-0.1346 1.107-0.1346 1.701 0 0.5939 0.06211 1.163 0.1346 1.702 0.1473 1.094 1.056 1.954 2.17 2.006 0.6955 0.03195 1.402 0.04938 2.179 0.04938 0.7763 0 1.484-0.01742 2.179-0.04938 1.113-0.05122 2.021-0.9116 2.169-2.006 0.07248-0.5384 0.1356-1.107 0.1356-1.702 0-0.5954-0.06307-1.163-0.1356-1.701-0.118-0.8765-0.7503-1.555-1.56-1.836v-0.823c0-1.533-1.254-2.788-2.788-2.788zm0 1.215c0.877 0 1.572 0.6955 1.572 1.572v0.6332c-0.5061-0.01653-1.016-0.02905-1.572-0.02905-0.5557 0-1.066 0.01252-1.572 0.02905v-0.6332c0-0.877 0.6955-1.572 1.572-1.572zm0 3.392c0.759 0 1.446 0.01632 2.123 0.04743 0.5161 0.02373 0.9496 0.4302 1.021 0.9547 0.06965 0.5176 0.1249 1.031 0.1249 1.539 0 0.5076-0.05525 1.023-0.1249 1.54-0.0706 0.524-0.504 0.9319-1.021 0.9556-0.6772 0.03113-1.364 0.04743-2.123 0.04743-0.7595 0-1.446-0.01634-2.123-0.04743-0.5161-0.02373-0.9496-0.4312-1.021-0.9557-0.06965-0.5176-0.1249-1.033-0.1249-1.54s0.05521-1.021 0.1249-1.539c0.0706-0.524 0.504-0.9309 1.021-0.9547 0.6772-0.03114 1.364-0.04743 2.123-0.04743zm-9.87e-4 1.178a0.8125 0.8125 0 0 0-0.5441 1.422v0.7591a0.5453 0.5453 0 0 0 1.09 0v-0.7591a0.8125 0.8125 0 0 0-0.5451-1.422z" fill="#fdff00" stroke-width=".4957"/>
 <path transform="translate(0) scale(1) translate(-.00046) scale(1) translate(-3e-6) scale(1)" d="m6.292 0.9099c-0.486 0-0.8836 0.3976-0.8836 0.8836v5.302c0 0.486 0.3976 0.8836 0.8836 0.8836h2.651c0.486 0 0.8836-0.3976 0.8836-0.8836s-0.3976-0.8836-0.8836-0.8836h-1.767v-4.418c0-0.486-0.3976-0.8836-0.8836-0.8836z" fill="#0ff" stroke-width=".8836"/>
</svg>
