<svg version="1.1" viewBox="0 0 22 22" xmlns="http://www.w3.org/2000/svg">
 <defs>
  <linearGradient id="c" x1="33.61" x2="24.47" y1="5.283" y2="14.42" gradientTransform="matrix(.653 0 0 1.525 .04921 -1.32)" gradientUnits="userSpaceOnUse">
   <stop stop-color="#ffab00" offset="0"/>
   <stop stop-color="#ff4b2b" offset=".5"/>
   <stop stop-color="#ff004c" offset="1"/>
  </linearGradient>
  <linearGradient id="a" x2="0" y1="1">
   <stop stop-color="#43e97b" offset="0"/>
   <stop stop-color="#38f9d7" offset="1"/>
  </linearGradient>
  <linearGradient id="b" x2="0" y2="1">
   <stop stop-color="#f1fa00" offset="0"/>
   <stop stop-color="#ff6900" offset="1"/>
  </linearGradient>
 </defs>
 <path transform="translate(0 -1e-5) scale(1) translate(0) scale(1) matrix(.3308 0 0 .3308 .4135 .4111)" d="m48 16c-2.216 0-4.003 1.781-4.003 3.997v16c0 1.714 1.071 3.171 2.58 3.743-1.285-3.63-2.397-7.802-2.397-11.6 0.0015-4.715 2.761-8.857 6.784-10.83-0.73-0.8048-1.785-1.311-2.964-1.311z" fill="url(#a)"/>
 <path transform="translate(0 -1e-5) scale(1) translate(0) scale(1) matrix(.3308 0 0 .3308 .4135 .4111)" d="m32 16c-2.216 0-4.003 1.781-4.003 3.997v16c0 2.216 1.787 4.003 4.003 4.003s3.997-1.787 3.997-4.003v-16c0-2.216-1.781-3.997-3.997-3.997z" fill="url(#a)"/>
 <path transform="translate(0 -1e-5) scale(1) translate(0) scale(1) matrix(.3308 0 0 .3308 .4135 .4111)" d="m16 16c-2.216 0-4.003 1.781-4.003 3.997v16c0 2.216 1.787 4.003 4.003 4.003s3.997-1.787 3.997-4.003v-16c0-2.216-1.781-3.997-3.997-3.997z" fill="url(#a)"/>
 <path transform="translate(0 -1e-5) scale(1) translate(0) scale(1) matrix(.3308 0 0 .3308 .4135 .4111)" d="m12 2.752c-7.319 0-13.25 5.93-13.25 13.25v24c0 6.97 5.401 12.62 12.23 13.15 0.59 4.538 4.319 8.106 9.016 8.106h24c1.789 0 3.44-0.5194 4.83-1.411-0.6049-1.215-0.8915-2.543-0.8915-3.855 0-1.988 0.6523-4.022 2.084-5.632 0.4646-0.5226 1.393-0.4742 2.013-0.862-0.8979-0.5726-1.677-1.33-2.273-2.244-1.838 0.8664-3.01 2.715-3.011 4.747 0.01941 1.527-1.224 2.771-2.751 2.751h-24c-1.525 0.01606-2.765-1.226-2.745-2.751-7.07e-4 -2.901-2.354-5.251-5.255-5.249-3.736 0.02141-6.77-3.013-6.748-6.748v-24c-0.02141-3.736 3.013-6.77 6.748-6.748h40c3.738-0.02472 6.776 3.01 6.754 6.748v0.3661c2.546 0.5555 4.812 1.928 6.494 3.832v-4.198c0-7.319-5.93-13.25-13.25-13.25z" fill="url(#b)"/>
 <path transform="translate(0 -1e-5) scale(1) translate(0) scale(1) translate(-5e-4 -.00091)" d="m18.81 6.743a2.986 2.986 0 0 0-2.781 2.978c0 1.752 0.9862 4.249 1.571 5.57 0.2463 0.5574 0.8025 0.9004 1.413 0.9004s1.168-0.3433 1.413-0.9004c0.5843-1.32 1.573-3.816 1.573-5.57a2.986 2.986 0 0 0-3.188-2.978zm0.2047 10.45a1.742 1.742 0 0 0 0 3.485 1.742 1.742 0 0 0 0-3.485z" fill="url(#c)" stroke-width=".9979"/>
</svg>
