<svg version="1.1" viewBox="0 0 22 22" xmlns="http://www.w3.org/2000/svg">
 <defs>
  <style>.ColorScheme-Text { color:#dfdfdf; } .ColorScheme-Highlight { color:#4285f4; } .ColorScheme-NeutralText { color:#ff9800; } .ColorScheme-PositiveText { color:#4caf50; } .ColorScheme-NegativeText { color:#f44336; }</style>
 </defs>
 <path transform="translate(-0) scale(1) translate(.001561) scale(1) translate(-3e-6) scale(1) matrix(1.571 0 0 1.571 -1.573 -1.571)" d="m14 1c-0.552 0-0.9983 0.4476-0.9983 0.9996v12c0 0.552 0.4463 0.9996 0.9983 0.9996 0.551 0 0.9996-0.4476 0.9996-0.9996v-12c0-0.552-0.4486-0.9996-0.9996-0.9996zm-2.883 2.58c-0.553 0-1.001 0.4498-1.001 1.001v9.42c-1e-6 0.552 0.4478 0.9996 1.001 0.9996 0.551 0 0.9996-0.4476 0.9996-0.9996v-9.42c-1e-6 -0.551-0.4486-1.001-0.9996-1.001zm-3.118 3.078c-0.552 0-0.9971 0.4476-0.9971 0.9996v6.343c0 0.552 0.4451 0.9996 0.9971 0.9996 0.551 0 1.001-0.4476 1.001-0.9996v-6.343c0-0.552-0.4498-0.9996-1.001-0.9996zm-3.097 3.234c-0.552 0-0.9983 0.4498-0.9983 1.001v3.107c0 0.552 0.4463 0.9996 0.9983 0.9996 0.551 0 0.9996-0.4476 0.9996-0.9996v-3.107c0-0.551-0.4486-1.001-0.9996-1.001zm-2.898 3.102c-0.554 0-1.002 0.449-1.002 1.002 0 0.554 0.448 1.005 1.002 1.005 0.552 0 1.002-0.4504 1.002-1.005 0-0.553-0.45-1.002-1.002-1.002z" fill="#f00" opacity=".3"/>
 <path transform="translate(-0) scale(1) translate(.001561) scale(1) translate(-3e-6) scale(1)" d="m6.292 0.9099c-0.486 0-0.8836 0.3976-0.8836 0.8836v5.302c0 0.486 0.3976 0.8836 0.8836 0.8836h2.651c0.486 0 0.8836-0.3976 0.8836-0.8836s-0.3976-0.8836-0.8836-0.8836h-1.767v-4.418c0-0.486-0.3976-0.8836-0.8836-0.8836z" fill="#0ff" stroke-width=".8836"/>
</svg>
