<svg xmlns="http://www.w3.org/2000/svg" viewBox="0 0 22 22"><g fill="#00dfff"><path d="M14.669 4.4a.73.73 0 0 0-.734.734V21.27c0 .405.327.734.734.734h1.467a.733.733 0 0 0 .733-.734V5.134a.73.73 0 0 0-.733-.733zm-4.4 4.401a.73.73 0 0 0-.734.734v11.734c0 .405.327.734.733.734h1.467a.733.733 0 0 0 .733-.734V9.535a.73.73 0 0 0-.733-.734zm-4.401 4.4a.73.73 0 0 0-.734.734v7.334c0 .405.327.734.734.734h1.467a.733.733 0 0 0 .733-.734v-7.334a.73.73 0 0 0-.733-.733zm-4.4 4.401a.73.73 0 0 0-.734.734v2.933c0 .405.327.734.733.734h1.467a.733.733 0 0 0 .733-.734v-2.933a.73.73 0 0 0-.733-.734z"/><path d="M19.07 0h1.466c.407 0 .734.327.734.734v20.535a.73.73 0 0 1-.734.734H19.07a.73.73 0 0 1-.733-.734V.734c0-.407.327-.734.733-.734" opacity=".35"/></g></svg>