<svg version="1.1" viewBox="0 0 22 22" xmlns="http://www.w3.org/2000/svg">
 <defs>
  <linearGradient id="a" x1="-.02043" x2="22" y1="22.02" y2="-2.069e-7" gradientTransform="matrix(.4577 0 0 .4577 11.68 11.65)" gradientUnits="userSpaceOnUse">
   <stop stop-color="red" offset="0"/>
   <stop stop-color="#ff2a2a" offset="1"/>
  </linearGradient>
 </defs>
 <path transform="translate(6e-6) scale(1) translate(-1.2e-5) scale(.9999) translate(0) scale(.3438) translate(0) scale(1) translate(0) scale(1) translate(1.7e-5) scale(1) translate(.001328 .001453) scale(.9999) translate(-.1658) scale(2.909) translate(.00183 .009866) scale(.999)" d="m11.01-0.009876c-4.241 0-7.143 1.172-9.99 2.989a1.98 1.98 0 0 0-0.6002 2.721 1.984 1.984 0 0 0 2.72 0.6022c2.406-1.535 4.452-2.372 7.873-2.372 3.426 0 5.527 0.8426 7.857 2.362 0.9036 0.5897 2.134 0.3269 2.725-0.5767a1.984 1.984 0 0 0-0.5728-2.727c-2.812-1.833-5.776-2.999-10.01-2.999h-0.001955zm0.00391 6.047-0.00391 0.001955c-3.08 0-5.15 0.8334-7.246 2.057a1.984 1.984 0 0 0-0.7077 2.696 1.984 1.984 0 0 0 2.694 0.7077c1.733-1.013 2.98-1.519 5.261-1.519 2.269 0 3.543 0.5313 5.275 1.525 0.9352 0.5374 2.148 0.208 2.686-0.7273a1.98 1.98 0 0 0-0.7253-2.69v-0.001955c-2.06-1.183-4.142-2.049-7.234-2.049zm-0.00391 5.767v0.001955c-1.661 0-3.142 0.4331-4.467 1.109a1.984 1.984 0 0 0-0.8622 2.649c0.4916 0.9614 1.691 1.353 2.653 0.8622 0.8644-0.4414 1.713-0.6804 2.677-0.6804 0.8827 0 1.731 0.2216 2.551 0.6139l-2.029-2.029c-0.613-0.6139-0.7244-1.493-0.436-2.19 0.04786-0.1156 0.1065-0.2269 0.176-0.3324-0.08708-0.002518-0.174-0.00391-0.262-0.00391zm0 5.846a2.181 2.181 0 1 0 0 4.36 2.181 2.181 0 0 0 0.5396-0.08602c-0.008951-0.008657-0.01858-0.01663-0.02737-0.02542-0.3405-0.3405-0.5834-0.8039-0.6119-1.329-0.02902-0.5338 0.1851-1.093 0.6256-1.525l0.8485-0.8485a2.181 2.181 0 0 0-1.374-0.5455z" fill="url(#a)" opacity=".5" stop-color="#000000" stroke-linecap="round" stroke-linejoin="round"/>
 <path transform="translate(6e-6) scale(1) translate(-1.2e-5) scale(.9999) translate(0) scale(.3438) translate(0) scale(1) translate(0) scale(1) translate(1.7e-5) scale(1) translate(.001328 .001453) scale(.9999) translate(-.1658) scale(2.909)" d="m12.94 11.4c-0.6607 7.41e-4 -1.175 0.4099-1.391 0.9316-0.216 0.5218-0.1407 1.175 0.3262 1.643l2.709 2.711-2.709 2.709c-0.3466 0.3398-0.4956 0.7529-0.4746 1.139 0.02102 0.3866 0.2014 0.7385 0.4648 1.002 0.2635 0.2635 0.6154 0.4438 1.002 0.4648 0.3858 0.02097 0.7988-0.128 1.139-0.4746l2e-3 -2e-3 2.709-2.707 2.709 2.709c0.2823 0.2836 0.6662 0.4435 1.066 0.4434 0.8302 4.8e-5 1.508-0.6795 1.508-1.51 1.55e-4 -0.3996-0.1586-0.7823-0.4414-1.064v-2e-3l-2.709-2.707 2.709-2.711c0.2836-0.2823 0.4416-0.6662 0.4414-1.066 0-0.8302-0.6776-1.508-1.508-1.508-0.4002-1.55e-4 -0.7841 0.1578-1.066 0.4414l-2.709 2.711-2.711-2.711c-0.2826-0.2828-0.6646-0.441-1.064-0.4414a0.25 0.25 0 0 0-2e-3 0z" fill="url(#a)" stop-color="#000000" stroke-linecap="round" stroke-linejoin="round"/>
</svg>
