<svg xmlns="http://www.w3.org/2000/svg" viewBox="0 0 22 22"><g fill="red"><path d="M16.82 0v14.233h2.588V0zM12.94 3.882v10.35h2.588V3.883zM9.057 7.763v12.94h2.588V7.762zm-3.881 3.882v9.057h2.587v-9.057zm-3.882 3.882v5.175h2.588v-5.175z" opacity=".35"/><path d="M14.233 15.527v1.294c0 .349.13.685.362.931l1.01 1.01-1.01 1.009a1.3 1.3 0 0 0-.362.931v1.294h1.294c.362 0 .698-.13.931-.362l1.01-1.022 1.009 1.022c.233.233.569.362.931.362h1.294v-1.294c0-.362-.13-.699-.362-.931l-1.01-1.01 1.01-1.009c.233-.246.362-.582.362-.931v-1.294h-1.294c-.362 0-.698.129-.931.362l-1.01 1.01-1.009-1.01a1.3 1.3 0 0 0-.931-.362z"/></g></svg>