<svg version="1.1" viewBox="0 0 22 22" xmlns="http://www.w3.org/2000/svg">
 <defs>
  <style>.ColorScheme-Text { color:#dfdfdf; } .ColorScheme-Highlight { color:#4285f4; } .ColorScheme-NeutralText { color:#ff9800; } .ColorScheme-PositiveText { color:#4caf50; } .ColorScheme-NegativeText { color:#f44336; }</style>
 </defs>
 <path transform="translate(-0) scale(1) translate(.001561) scale(1) translate(-3e-6) scale(1) matrix(1.571 0 0 1.571 -1.573 -1.571)" d="m14 1c-0.552 0-0.9983 0.4476-0.9983 0.9996v12c0 0.552 0.4463 0.9996 0.9983 0.9996 0.551 0 0.9996-0.4476 0.9996-0.9996v-12c0-0.552-0.4486-0.9996-0.9996-0.9996zm-2.883 2.58c-0.553 0-1.001 0.4498-1.001 1.001v9.42c-1e-6 0.552 0.4478 0.9996 1.001 0.9996 0.551 0 0.9996-0.4476 0.9996-0.9996v-9.42c-1e-6 -0.551-0.4486-1.001-0.9996-1.001zm-3.118 3.078c-0.552 0-0.9971 0.4476-0.9971 0.9996v6.343c0 0.552 0.4451 0.9996 0.9971 0.9996 0.551 0 1.001-0.4476 1.001-0.9996v-6.343c0-0.552-0.4498-0.9996-1.001-0.9996zm-3.097 3.234c-0.552 0-0.9983 0.4498-0.9983 1.001v3.107c0 0.552 0.4463 0.9996 0.9983 0.9996 0.551 0 0.9996-0.4476 0.9996-0.9996v-3.107c0-0.551-0.4486-1.001-0.9996-1.001zm-2.898 3.102c-0.554 0-1.002 0.449-1.002 1.002 0 0.554 0.448 1.005 1.002 1.005 0.552 0 1.002-0.4504 1.002-1.005 0-0.553-0.45-1.002-1.002-1.002z" fill="#f00" opacity=".3"/>
 <path transform="translate(-0) scale(1) translate(.001561) scale(1) translate(-3e-6) scale(1)" d="m5.732 0.7598c-0.4688-4.8e-7 -0.8555 0.3843-0.8555 0.8535v3.775c0 1.51 1.232 2.74 2.742 2.74s2.74-1.23 2.74-2.74v-3.775c-1.36e-4 -0.257-0.1068-0.4872-0.2773-0.6387-0.1662-0.1476-0.3756-0.2148-0.5781-0.2148s-0.4114 0.06667-0.5781 0.2148c-0.1709 0.1519-0.2775 0.3834-0.2773 0.6406v3.773c0 0.3779-0.1243 0.6062-0.3125 0.7734-0.1855 0.1649-0.4483 0.2559-0.7168 0.2559s-0.5355-0.09124-0.7207-0.2559c-0.1882-0.1673-0.3125-0.3955-0.3125-0.7734v-3.775c0-0.4688-0.3847-0.8535-0.8535-0.8535z" fill="#0ff" stop-color="#000000" stroke-linecap="round" stroke-linejoin="round"/>
</svg>
