<svg xmlns="http://www.w3.org/2000/svg" viewBox="0 0 22 22"><g fill="#00dfff"><path d="M1.294 0v3.882h1.94a.647.647 0 0 1 0 1.294h-1.94v1.293h1.94a1.94 1.94 0 0 0 0-3.881h-.646V1.294h2.588V0zM6.47 0v6.47h5.175V2.587H9.057v1.294h1.294v1.294H7.763V1.294h3.882V0zM5.176 11.645v9.057h2.587v-9.057zm11.645 1.294c-1.434 0-2.588 1.178-2.588 2.628v1.253h-1.294v5.176h7.763V16.82h-1.294v-1.253c0-1.45-1.154-2.628-2.587-2.628m0 1.294c.716 0 1.293.572 1.293 1.294v1.293h-2.587v-1.293c0-.722.577-1.294 1.294-1.294M1.294 15.527v5.175h2.588v-5.175z"/><path d="M16.82 0v11.645c.999 0 1.905.39 2.588 1.021V0zM12.94 3.882v11.645h.018a3.95 3.95 0 0 1 2.57-3.654V3.882zM9.057 7.763v12.94h2.588V7.762z" opacity=".35"/></g></svg>