<svg version="1.1" viewBox="0 0 22 22" xmlns="http://www.w3.org/2000/svg">
 <defs>
  <linearGradient id="b" y1=".5" y2=".5">
   <stop stop-color="#de14ff" offset="0"/>
   <stop stop-color="#7f00ff" offset="1"/>
  </linearGradient>
  <linearGradient id="a" x2="0" y1="1">
   <stop stop-color="#5433ff" offset="0"/>
   <stop stop-color="#20bdff" offset=".5"/>
   <stop stop-color="#a5fecb" offset="1"/>
  </linearGradient>
 </defs>
 <path transform="translate(0 -.6602) scale(1) translate(0 -.0015)" d="m5.707 5.705c-0.7331 0-1.324 0.5898-1.324 1.322v5.293c0 0.7331 0.5915 1.322 1.324 1.322 0.7331 0 1.322-0.5896 1.322-1.322v-5.293c0-0.7331-0.5898-1.322-1.322-1.322zm5.293 0c-0.7331 0-1.324 0.5898-1.324 1.322v5.293c0 0.7331 0.5915 1.322 1.324 1.322 0.1774 0 0.3457-0.03471 0.5-0.09766-0.3032-0.813-0.3329-1.709-0.1211-2.557a1.5 1.5 0 0 1 0-0.0039c0.1801-0.718 0.5067-1.357 0.9434-1.908v-2.049c0-0.7331-0.5898-1.322-1.322-1.322zm5.289 0c-0.7331 0-1.322 0.5898-1.322 1.322v0.1719c0.812-0.307 1.7-0.4727 2.607-0.4824-0.1384-0.5827-0.6591-1.012-1.285-1.012z" fill="url(#a)"/>
 <path transform="translate(0 -.6602) scale(1) translate(0 -.0015)" d="m4.383 1.322c-2.421 0-4.383 1.962-4.383 4.383v7.939c0 2.306 1.787 4.174 4.047 4.35 0.1952 1.501 1.429 2.684 2.982 2.684h5.445c-0.1175-0.3893-0.1797-0.8022-0.1797-1.229 0-0.324 0.04651-0.6336 0.127-0.9297h-5.396a0.8988 0.8988 0 0 1-0.9082-0.9102 1.737 1.737 0 0 0-1.738-1.734 2.22 2.22 0 0 1-2.23-2.232v-7.939a2.22 2.22 0 0 1 2.23-2.23h13.23a2.22 2.22 0 0 1 2.234 2.23v1.389c0.8429 0.3065 1.577 0.7896 2.15 1.412v-2.799c0-2.421-1.962-4.383-4.383-4.383h-13.23z" fill="url(#a)"/>
 <path transform="translate(0 -.6602) scale(1)" d="m17.66 8.214c-2.331 0-4.367 1.295-4.828 3.133v0.0018c-0.1981 0.7923-0.075 1.59 0.3512 2.202 0.2634 0.3777 0.6689 0.6218 1.118 0.7862-0.1378 0.2819-0.3013 0.5547-0.3013 0.9057l-0.0018 1.137a2.026 2.026 0 0 0 0.4653 1.296c-0.4099 0.438-0.6704 1.062-0.6704 1.771 0 0.7866 0.3229 1.474 0.8165 1.913 0.4927 0.4385 1.119 0.64 1.736 0.64 0.6166 0 1.245-0.2015 1.738-0.64 0.4922-0.4385 0.8148-1.125 0.8148-1.913 0-0.7207-0.2693-1.357-0.6935-1.795 0.0296-0.03743 0.05691-0.07676 0.08379-0.1159 0.3176-0.4641 0.5114-0.7782 0.6365-0.8486 0.7993-0.4493 1.544-0.9183 2.121-1.575 0.5781-0.6557 0.952-1.527 0.952-2.557 0-1.048-0.3127-2.123-1.038-2.959-0.7253-0.8361-1.869-1.382-3.3-1.382zm0 1.532c1.065 0 1.707 0.3478 2.145 0.8522 0.4374 0.5038 0.6632 1.217 0.6632 1.956 0 0.6922-0.1942 1.117-0.5705 1.545-0.3768 0.4277-0.9739 0.8278-1.722 1.248-0.6947 0.39-0.9365 1.008-1.15 1.319l-0.0018 0.0018a0.5002 0.5002 0 0 1-0.4207 0.2264h-0.5633a0.5002 0.5002 0 0 1-0.5099-0.5134l0.0018-1.137c0-0.2552 0.2359-0.6051 0.7488-0.9876 0.513-0.3829 1.204-0.7291 1.751-1.032a0.7657 0.7657 0 0 0-0.7167-1.351c-0.0082 0.0041-0.01806 0.0084-0.02674 0.01248v-0.0018c-0.0071 0.0041-0.01908 0.01552-0.02674 0.01961a32.17 32.17 0 0 0-1.608 0.8967h-0.0018v0.0018c-0.2339 0.1378-0.4097 0.1994-0.5081 0.2015h-0.0018c-0.3589 0.0072-0.5546-0.1169-0.7007-0.3262s-0.2265-0.5378-0.1212-0.9575c0.216-0.8581 1.617-1.972 3.343-1.972zm-1.314 8.675c0.2767 0 0.5448 0.09767 0.722 0.2549 0.1772 0.1573 0.3013 0.3629 0.3013 0.7666 0 0.4038-0.1241 0.6111-0.3013 0.7684-0.1772 0.1577-0.4453 0.2514-0.722 0.2514-0.2767 0-0.5413-0.09356-0.7185-0.2514-0.1772-0.1577-0.3013-0.3641-0.3013-0.7684 0-0.4043 0.1241-0.6094 0.3013-0.7666 0.1772-0.1572 0.4422-0.2549 0.7185-0.2549z" fill="url(#b)" stroke-width="1.457"/>
</svg>
