<svg xmlns="http://www.w3.org/2000/svg" viewBox="0 0 22 22"><g stroke-width="1.294"><path fill="#00dfff" d="M16.819 0V15.76a3.9 3.9 0 0 1 1.293-.233 3.9 3.9 0 0 1 1.294.222V0zm-3.882 3.882V20.7h1.527a3.9 3.9 0 0 1-.233-1.294 3.88 3.88 0 0 1 1.294-2.889V3.88h-2.588zM9.055 7.763v12.939h2.588V7.763zm-3.881 3.882v9.058H7.76v-9.058zm-3.882 3.882v5.175H3.88v-5.175z" opacity=".35"/><path fill="#0f0" d="M20.708 19.408a2.59 2.59 0 0 1-2.588 2.588 2.59 2.59 0 0 1-2.587-2.588 2.59 2.59 0 0 1 2.587-2.587 2.59 2.59 0 0 1 2.588 2.587"/></g></svg>