<svg version="1.1" viewBox="0 0 22 22" xmlns="http://www.w3.org/2000/svg">
 <defs>
  <linearGradient id="a" x1="1" x2="0" y1=".5" y2=".5">
   <stop stop-color="#4f55ca" offset="0"/>
   <stop stop-color="#0cf" offset=".33"/>
   <stop stop-color="#b380ff" offset=".67"/>
   <stop stop-color="#fdb81c" offset="1"/>
  </linearGradient>
 </defs>
 <path transform="translate(.002179 3e-6) scale(.3438) translate(.4852 .4981) scale(.9846)" d="m32.02-0.5059a0.5 0.5 0 0 0-0.0039 0.009766c-0.4378 0.003528-0.9139 0.1346-1.268 0.4922-0.3585 0.3625-0.5449 0.9119-0.5449 1.602v7.064c0 0.5825-0.1346 0.7161-0.3711 1.039-0.2882 0.3616-0.4033 0.8132-0.4883 1.266-0.3476 0.133-0.693 0.2818-0.9629 0.541-4.453 4.28-13.13 9.627-16.54 11.71l-6.309 3.848c-0.1326 0.0817-0.2607 0.1784-0.3809 0.2832-0.01544 0.01352-0.03364 0.02134-0.04883 0.03516h-0.00195v2e-3h0.00195v2e-3c-0.6565 0.4825-1.129 1.219-1.129 2.238v3.096a0.5 0.5 0 0 0 0.00977 0.0059 0.5 0.5 0 0 0 0.00391 0.0078c0.01441 1.215 0.5031 2.351 1.213 3.33-0.5936 4.048-1.437 10.14-2.143 15.39-0.3542 2.634-0.6716 5.052-0.9082 6.879-0.2366 1.826-0.3856 3.015-0.4121 3.359-0.06346 0.8197 0.1709 1.562 0.6894 2.062 0.5186 0.5008 1.266 0.7383 2.139 0.7383h50.36a0.5 0.5 0 0 0 0.04297-0.04492h4.848c0.9923 0 1.73-0.3612 2.107-0.957s0.3948-1.305 0.3125-1.996a0.5 0.5 0 0 0 0-0.0039l-0.4199-3.455a0.5 0.5 0 0 0-0.0059-0.0625c-0.3047-2.496-0.72-5.866-1.096-8.981-0.4119-3.427-1.254-8.996-1.852-12.84 0.7877-1.057 1.241-2.33 1.203-3.65v-2.738a0.5 0.5 0 0 0 0-0.0059 0.5 0.5 0 0 0 0.0078-0.0078v-0.252c0.0019-0.9276-0.4565-1.796-1.225-2.316a0.5 0.5 0 0 0-0.0059 0c-0.8378-0.5625-2.219-1.4-3.856-2.387a0.5 0.5 0 0 0-0.01953-0.0078l-0.0625-0.03516-0.01758-0.0098c-2.346-1.414-5.304-3.201-8.27-5.129-4.021-2.613-9.075-6.592-11.08-8.246-0.2607-0.2162-0.5816-0.3282-0.9004-0.4375-0.1112-0.4497-0.2648-0.8622-0.4199-1.133a0.5 0.5 0 0 0 0-0.00391c-0.2229-0.38-0.371-0.6186-0.371-1.133v-1.775c1.081-0.2637 2.535-0.7118 3.92-1.182 0.7617-0.2585 1.472-0.5102 2.025-0.7109 0.5539-0.2008 0.9247-0.3389 1.102-0.418 0.4314-0.1931 0.7219-0.6029 0.7246-1.041 0.00271-0.4381-0.286-0.8573-0.7207-1.057a0.5 0.5 0 0 0-0.01367-0.00391c-0.8473-0.3665-1.698-0.7136-2.562-1.039l0.01367 0.00977c-3.111-1.304-4.568-1.635-5.334-1.688l-0.03711-0.009766c-0.2855-0.1594-0.6024-0.2498-0.9297-0.2461h-4e-3c-0.0011-4.234e-4 -0.0028-0.001386-0.0039-0.001953h-2e-3l-2e-3 -0.001953zm0 14.56h0.1875c0.9787 3.379 2.895 9.602 4.475 13.77h-9.096c1.57-4.175 3.466-10.4 4.434-13.77zm4.367 2.045c2.504 1.976 5.342 4.264 8.447 6.281 3.026 1.967 6.035 3.782 8.381 5.195l0.4121 0.25h-5.959c-1.562-1.326-6.623-6.003-11.28-11.73zm-8.828 0.4238c-4.536 5.495-9.381 10-10.91 11.3h-6.031l2.949-1.797c2.349-1.437 7.45-4.563 11.95-7.894a0.5 0.5 0 0 0 0.0078-0.0078zm23.43 14.65h5.23c0.09324 0 0.1208-0.0011 0.1797 0 0.1692 0.3332 0.3521 0.8044 0.3789 1.338 0.02786 0.5539-0.09624 1.159-0.5723 1.791-0.3335 0.4394-0.7098 0.5595-1.369 0.4785-0.711-0.1056-1.377-0.401-1.934-0.8555-0.7792-0.6548-1.408-1.799-1.914-2.752zm-43.13 0.0039v2e-3h5.279c-0.5088 0.9497-1.142 2.088-1.928 2.746-0.5615 0.4534-1.234 0.7501-1.947 0.8594-0.6731 0.08243-1.061-0.04132-1.394-0.4824a0.5 0.5 0 0 0-0.00586-0.0059c-0.4816-0.6312-0.5997-1.232-0.5723-1.785 0.02623-0.5296 0.2078-0.9968 0.377-1.328 0.06062-0.0013 0.09334-0.0056 0.1914-0.0059zm20.12 0.1035h8.279c-0.07205 0.986-0.3262 1.846-0.9941 2.408-0.8303 0.6964-2.052 1.109-3.266 1.109-2.635 0-3.924-1.918-4.02-3.518zm-2.402 4.037-0.3672 7.445c-3.026 2.102-5.141 5.47-5.141 9.334v9.102h-8.027c0.4761-3.83 2.003-15.89 3.141-24.83 1.064 0.9688 2.46 1.701 4.381 1.701a0.5 0.5 0 0 0 0.0039 0c2.324-0.01191 4.417-1.103 6.01-2.756zm13.09 0.1699c1.579 1.59 3.68 2.57 5.934 2.586 1.697 0 3.111-0.5083 4.17-1.352 0.1353-0.1076 0.2287-0.2559 0.3535-0.375 1.129 9.066 2.673 21.55 3.07 24.86h-8.238v-9.102c0-3.815-1.99-7.152-4.904-9.262zm-6.545 8.312c4.645 5.86e-4 8.541 3.8 8.541 8.301v9.088h-17.3v-9.088c0-4.432 4.056-8.301 8.758-8.301z" fill="url(#a)"/>
</svg>
