<svg version="1.1" viewBox="0 0 22 22" xmlns="http://www.w3.org/2000/svg">
 <defs>
  <linearGradient id="a" x1="1" x2="0" y2="1">
   <stop stop-color="#00ffe0" offset="0"/>
   <stop stop-color="#19ffff" offset=".5"/>
   <stop stop-color="#00ff85" offset="1"/>
  </linearGradient>
 </defs>
 <path transform="translate(0) scale(.3438) translate(0) scale(1) translate(0 -.008697) scale(.9996) translate(2.2e-5 -25.46) scale(1.354)" d="m6.928 25.08c-3.796-0.008334-6.936 3.132-6.928 6.928v20.89c-0.008338 3.796 3.132 6.936 6.928 6.928h33.43c3.796 0.0083 6.936-3.132 6.928-6.928v-20.89c0.0083-3.796-3.132-6.936-6.928-6.928zm-0.01367 5.486a2.743 2.743 0 0 0 0.00781 0h33.44a2.743 2.743 0 0 0 0.0059 0c0.8231-0.0018 1.432 0.607 1.43 1.43a2.743 2.743 0 0 0 0 0.0059v20.9a2.743 2.743 0 0 0 0 0.0078c0.0018 0.8231-0.607 1.43-1.43 1.428a2.743 2.743 0 0 0-0.0059 0h-33.44a2.743 2.743 0 0 0-0.00781 0c-0.8231 0.0017-1.43-0.6051-1.428-1.428a2.743 2.743 0 0 0 0-0.0078v-20.9a2.743 2.743 0 0 0 0-0.0059c-0.00181-0.8231 0.605-1.432 1.428-1.43z" fill="url(#a)"/>
</svg>
