<svg version="1.1" viewBox="0 0 22 22" xmlns="http://www.w3.org/2000/svg">
 <path transform="translate(0) scale(.3438) translate(0 -2e-4) scale(1) translate(0 2e-4) scale(1)" d="m27.43 0v64h9.143v-64zm30.17 9.137-16.46 0.00586v45.71h16.46c3.546 0 6.4-2.911 6.4-6.529v-32.66c0-3.619-2.856-6.527-6.4-6.527z" fill="#0f0"/>
 <path transform="translate(0) scale(.3438) translate(0 -2e-4) scale(1) translate(0 2e-4) scale(1)" d="m6.4 9.143c-3.547 0-6.4 2.909-6.4 6.527v32.66c0 3.619 2.855 6.529 6.4 6.529h16.46v-45.71z" fill="#0f0" opacity=".3"/>
</svg>
