<svg version="1.1" viewBox="0 0 22 22" xmlns="http://www.w3.org/2000/svg">
 <defs>
  <linearGradient id="a" y1="1">
   <stop stop-color="#5433ff" offset="0"/>
   <stop stop-color="#20bdff" offset=".5"/>
   <stop stop-color="#a5fecb" offset="1"/>
  </linearGradient>
 </defs>
 <path transform="translate(0 .003442) scale(.3439) translate(-2.2e-5 7e-5) scale(1) matrix(1.353 0 0 1.353 4.399e-5 -25.46)" d="m6.928 25.08c-3.796-0.008334-6.936 3.132-6.928 6.928v20.89c-0.008338 3.796 3.132 6.936 6.928 6.928h33.43c3.796 0.0083 6.936-3.132 6.928-6.928v-20.89c0.0083-3.796-3.132-6.936-6.928-6.928zm17.7 2.598a2.216 2.216 0 0 1 0.0029 0c0.6385 0.0027 1.277 0.04609 1.91 0.1313a2.216 2.216 0 0 1 0.0029 0.0043 2.216 2.216 0 0 0 0.0014 0c2.515 0.3433 4.826 1.315 6.771 2.752h7.049a2.743 2.743 0 0 0 0.0058 0c0.8231-0.0018 1.432 0.6079 1.43 1.431a2.743 2.743 0 0 0 0 0.0058v20.9a2.743 2.743 0 0 0 0 0.0072c0.0018 0.8231-0.6065 1.43-1.43 1.428a2.743 2.743 0 0 0-0.0058 0h-7.044c-0.9681 0.7157-2.036 1.321-3.188 1.792-4.856 1.985-10.3 1.209-14.37-1.792h-8.837a2.743 2.743 0 0 0-0.00865 0c-0.8231 0.0017-1.43-0.6052-1.428-1.428a2.743 2.743 0 0 0 0-0.0072v-20.9a2.743 2.743 0 0 0 0-0.0058c-0.00181-0.8231 0.6051-1.433 1.428-1.431a2.743 2.743 0 0 0 0.00865 0h8.873c2.519-1.859 5.6-2.907 8.829-2.888z" fill="url(#a)"/>
 <path transform="translate(0 .003442) scale(.3439) translate(-2.2e-5 7e-5) scale(1) translate(2.2e-5 -.008767) scale(.9996)" d="m33.33 15.02a17.01 17.01 0 0 1 2.197 0.1519v0.0048a17.01 17.01 0 0 1 14.57 14.71 17.01 17.01 0 0 1-30.42 12.43 2.43 2.43 0 0 1 3.868-2.943 12.15 12.15 0 0 0 20.17-1.229 12.15 12.15 0 1 0-21.62-10.98h1.41a2.43 2.43 0 0 1 0 4.86h-7.29a2.43 2.43 0 0 1-2.43-2.43v-7.29a2.43 2.43 0 0 1 4.86 0v0.9634a17.01 17.01 0 0 1 14.68-8.247z" fill="#fdff00" stroke-width="2.43"/>
</svg>
