<svg fill="none" version="1.1" viewBox="0 0 22 22" xmlns="http://www.w3.org/2000/svg">
 <defs>
  <linearGradient id="b" x1="114.9" x2="25.08" y1="15.71" y2="122" gradientUnits="userSpaceOnUse">
   <stop stop-color="#D800BD" offset="0"/>
   <stop stop-color="#F92D7A" offset=".4081"/>
   <stop stop-color="#FF4A52" offset=".5901"/>
   <stop stop-color="#FFB243" offset="1"/>
  </linearGradient>
  <linearGradient id="a" x1="141.6" x2="4.722" y1="-9.208" y2="152.6" gradientUnits="userSpaceOnUse">
   <stop stop-color="#D800BD" offset="0"/>
   <stop stop-color="#F92D7A" offset=".4081"/>
   <stop stop-color="#FF4A52" offset=".5901"/>
   <stop stop-color="#FFB243" offset="1"/>
  </linearGradient>
 </defs>
 <path transform="translate(-1.351 -1.308) scale(.193)" d="m42.15 13.13c0 2e-3 0.0015 0.0036 0.0035 0.0038 3.108 0.2025 6.546 1.349 10.13 3.259 3.541 1.89 7.267 4.55 11.01 7.868 0.3859 0.3416 0.9677 0.3407 1.352-0.0023 3.748-3.341 7.475-6.025 11.02-7.932 3.959-2.132 7.747-3.325 11.11-3.325h0.9675c0.018 0 0.0325 0.0145 0.0325 0.0325 0 0.0169 0.0131 0.0311 0.0301 0.0324 1.635 0.1266 3.168 0.5585 4.549 1.362 3.59 2.071 5.651 6.24 6.43 11.53 0.7184 4.879 0.3774 10.87-0.966 17.47-0.1027 0.5051 0.1897 1.009 0.6792 1.17 6.43 2.119 11.81 4.807 15.7 7.862 4.214 3.314 6.806 7.18 6.806 11.32 0 4.141-2.577 8.002-6.771 11.31-3.863 3.048-9.215 5.729-15.61 7.847-0.4896 0.1622-0.7813 0.6669-0.6773 1.172 1.354 6.583 1.706 12.55 0.9964 17.42-0.7703 5.283-2.825 9.447-6.417 11.52l-7e-3 4e-3c-1.663 0.941-3.58 1.397-5.644 1.397-3.358 0-7.145-1.179-11.1-3.292-3.541-1.889-7.267-4.55-11.01-7.868-0.3859-0.341-0.9676-0.34-1.352 3e-3 -3.748 3.341-7.475 6.025-11.02 7.932-3.959 2.132-7.747 3.325-11.11 3.325-2.057 0-3.956-0.428-5.63-1.403-3.589-2.072-5.649-6.24-6.428-11.53-0.7184-4.879-0.3774-10.87 0.966-17.47 0.1027-0.5051-0.1897-1.009-0.6792-1.17-6.43-2.119-11.81-4.807-15.7-7.862-4.214-3.314-6.806-7.18-6.806-11.32 0-4.13 2.579-7.984 6.774-11.29 3.866-3.048 9.226-5.735 15.63-7.864 0.4891-0.1626 0.7802-0.6669 0.6763-1.172-1.354-6.584-1.706-12.55-0.9968-17.42 0.7703-5.284 2.825-9.447 6.417-11.52l0.0071-0.0041c1.39-0.7866 2.958-1.234 4.641-1.36 0.0162-0.0012 0.0287-0.0146 0.0287-0.0308 0-0.0171 0.0138-0.0309 0.0309-0.0309h0.9691c0.282 0 0.5671 0.0083 0.855 0.0248h0.1163c0.0021 0 0.0038 0.0017 0.0038 0.0038zm16 16.05c0.422 0.3679 0.4503 1.012 0.0722 1.424-2.571 2.808-5.14 5.902-7.605 9.27-0.1666 0.2277-0.4208 0.3754-0.7011 0.4071-4.118 0.4666-8.075 1.124-11.77 1.961-0.5472 0.124-1.094-0.2197-1.204-0.7699-0.3108-1.551-0.5607-3.061-0.7499-4.52-0.5258-4.275-0.4575-8.033 0.0987-10.91 0.5688-2.939 1.596-4.702 2.746-5.368l0.0085-0.0049 0.0084-0.0051c0.482-0.2921 1.149-0.4515 2.095-0.4515h0.6703c2.027 0.1517 4.553 1.001 7.438 2.585 2.744 1.507 5.757 3.647 8.891 6.379zm32.89 12.27c-0.108 0.5516-0.6533 0.8998-1.202 0.778-3.7-0.8215-7.638-1.478-11.74-1.944-0.2778-0.0316-0.53-0.177-0.6964-0.4016-2.499-3.371-5.063-6.488-7.668-9.309-0.3804-0.412-0.3551-1.057 0.0663-1.427 3.128-2.747 6.135-4.899 8.875-6.416 2.892-1.601 5.424-2.458 7.453-2.611h0.6195c0.9093 0 1.58 0.1705 2.122 0.4676 1.161 0.6724 2.194 2.43 2.774 5.354 0.5681 2.868 0.6484 6.621 0.1343 10.9l-4e-4 0.0037c-0.172 1.476-0.4298 3.02-0.7406 4.608zm-48.13 34.56-0.0031-0.0052c-0.3142-0.5325-0.6197-1.067-0.9182-1.601-0.4205-0.7527-1.532-0.6747-1.816 0.1397-0.3179 0.9147-0.6197 1.825-0.9038 2.727-0.1739 0.5523 0.1634 1.133 0.7292 1.256 0.9376 0.2037 1.889 0.3956 2.852 0.5757 0.846 0.1582 1.466-0.7649 1.019-1.5-0.3223-0.5301-0.6421-1.061-0.9596-1.592zm-16.14-22.8-0.0068 0.0029c-3.978 1.674-7.208 3.611-9.424 5.533-2.266 1.964-3.28 3.74-3.28 5.074 0 1.332 1.012 3.095 3.278 5.054 2.217 1.916 5.448 3.854 9.428 5.554 1.376 0.5837 2.828 1.133 4.341 1.656 0.5322 0.184 1.108-0.1148 1.276-0.6522 1.137-3.625 2.528-7.353 4.174-11.16 0.1108-0.2563 0.1105-0.547-1e-3 -0.803-1.668-3.83-3.08-7.583-4.224-11.23-0.1684-0.5378-0.7442-0.837-1.277-0.654-1.499 0.5146-2.937 1.048-4.285 1.628zm12.4 53.82 0.0107 6e-3c0.4745 0.281 1.159 0.46 2.102 0.482 2.121-6e-3 4.87-0.864 8.059-2.627 2.744-1.517 5.757-3.672 8.892-6.425 0.4213-0.37 0.4466-1.015 0.0663-1.427-2.605-2.822-5.169-5.938-7.668-9.31-0.1664-0.2246-0.4186-0.37-0.6964-0.4016-4.1-0.4665-8.037-1.123-11.74-1.944-0.5488-0.1219-1.094 0.2263-1.202 0.7779-0.3108 1.588-0.5686 3.132-0.7406 4.608l-4e-4 0.0036c-0.5141 4.277-0.4338 8.03 0.1343 10.9 0.5804 2.93 1.617 4.69 2.781 5.359zm50.32 0.756-0.5118-0.844 0.0168-0.01c1.15-0.666 2.177-2.429 2.746-5.368 0.5562-2.874 0.6244-6.632 0.0986-10.91-0.1891-1.458-0.439-2.968-0.7417-4.531-0.1074-0.5544-0.6564-0.9035-1.207-0.7788-3.688 0.8347-7.638 1.491-11.75 1.956-0.2803 0.0317-0.5345 0.1794-0.7011 0.4071-2.465 3.368-5.034 6.462-7.605 9.27-0.3781 0.4129-0.3498 1.056 0.0723 1.424 3.134 2.732 6.147 4.873 8.891 6.379 3.2 1.757 5.958 2.61 8.084 2.61 0.946 0 1.613-0.16 2.095-0.452l0.5181 0.855-0.0063-0.011zm11.73-33.36 4e-3 -0.0015c3.966-1.686 7.191-3.63 9.416-5.554 2.261-1.955 3.302-3.724 3.34-5.054 0-1.332-1.011-3.095-3.278-5.054-2.216-1.915-5.446-3.853-9.424-5.552-1.406-0.5891-2.871-1.153-4.397-1.675-0.5301-0.1813-1.101 0.1178-1.268 0.6524-1.138 3.63-2.531 7.364-4.179 11.18-0.1108 0.2563-0.1104 0.547 1e-3 0.8029 1.668 3.83 3.08 7.583 4.224 11.23 0.1684 0.5377 0.7443 0.837 1.277 0.654 1.499-0.5146 2.937-1.049 4.285-1.628zm-17.09-24.41c-0.445-0.7383 0.1758-1.664 1.023-1.504 0.9618 0.1817 1.911 0.3761 2.847 0.5841 0.5628 0.1251 0.8965 0.7038 0.7235 1.254-0.2854 0.9068-0.5886 1.821-0.9081 2.741-0.2831 0.8144-1.395 0.8924-1.816 0.1397-0.2974-0.5326-0.6019-1.065-0.915-1.596-0.3126-0.5424-0.6316-1.082-0.9549-1.618zm-5.158 22.37c-1.611 2.769-3.238 5.389-4.918 7.846-0.1689 0.247-0.4404 0.404-0.7387 0.4277-3.073 0.2435-6.168 0.3653-9.305 0.3653-3.11 0-6.2-0.1215-9.254-0.3462-0.3003-0.0221-0.5743-0.1793-0.7445-0.4277-1.686-2.459-3.333-5.079-4.943-7.824-1.564-2.676-2.988-5.396-4.308-8.141-0.1298-0.2698-0.1308-0.5838-0.0023-0.8543 1.302-2.742 2.743-5.481 4.286-8.16 1.612-2.771 3.24-5.394 4.922-7.853 0.1689-0.247 0.4404-0.404 0.7387-0.4277 3.073-0.2435 6.168-0.3653 9.305-0.3653 3.11 0 6.2 0.1215 9.254 0.3462 0.3003 0.0221 0.5743 0.1793 0.7445 0.4277 1.686 2.459 3.333 5.079 4.943 7.824 1.562 2.673 2.984 5.389 4.303 8.131 0.1311 0.2727 0.1306 0.5903-0.0014 0.8626-1.321 2.725-2.761 5.466-4.282 8.168zm7.058 1.874c0.4153-0.7542 1.524-0.6817 1.81 0.1304 0.3332 0.9466 0.6481 1.889 0.9453 2.824 0.1757 0.5528-0.1608 1.136-0.7274 1.26-0.9524 0.2089-1.92 0.407-2.901 0.5928-0.8458 0.1602-1.467-0.7619-1.025-1.5 0.3326-0.5557 0.6609-1.116 0.9824-1.682 0.3113-0.5402 0.6158-1.082 0.9148-1.625zm-22.7 17.74c0.3909 0.4236 1.059 0.422 1.448-0.0032 0.682-0.7452 1.365-1.516 2.044-2.313 0.5544-0.6506 0.068-1.639-0.7868-1.626-0.6819 0.0101-1.366 0.0152-2.05 0.0152-0.6444 0-1.287-0.0046-1.926-0.0137-0.8583-0.0123-1.344 0.9837-0.7844 1.634 0.6845 0.7951 1.371 1.564 2.056 2.307zm3.391-54.08c0.56 0.6506 0.074 1.647-0.7843 1.634-0.64-0.0091-1.282-0.0137-1.927-0.0137-0.6793 0-1.359 5e-3 -2.036 0.0149-0.8555 0.0126-1.342-0.9777-0.7881-1.629 0.6763-0.7953 1.354-1.564 2.032-2.307 0.3886-0.4263 1.057-0.4283 1.448-0.0043 0.685 0.7423 1.371 1.511 2.055 2.306zm-27.51 12.44c-0.1766-0.5555 0.1641-1.141 0.7341-1.263 0.9513-0.2037 1.914-0.3984 2.889-0.5819 0.846-0.1593 1.467 0.7628 1.025 1.502-0.3316 0.554-0.6589 1.113-0.9794 1.676-0.3094 0.5368-0.6144 1.076-0.9145 1.616-0.4177 0.7513-1.526 0.6766-1.811-0.1341-0.3322-0.9434-0.6461-1.883-0.9426-2.815z" clip-rule="evenodd" fill="url(#b)" fill-rule="evenodd"/>
 <path transform="translate(-1.351 -1.308) scale(.193)" d="m75 64c0 6.075-4.925 11-11 11-6.075 0-11-4.925-11-11 0-6.075 4.925-11 11-11 6.075 0 11 4.925 11 11z" fill="url(#a)" opacity=".4"/>
</svg>
