<svg xmlns="http://www.w3.org/2000/svg" viewBox="0 0 22 22"><g stroke="#000" stroke-width=".1"><path fill="#00ff80" stroke-width=".09954" d="M.05 11.865v5.197h2.736v-5.197zM2.787 4.936V17.06h2.739V4.936z"/><path fill="red" stroke-width=".09954" d="M5.525 9.556v7.506H8.26V9.556z"/><path fill="#00ff80" stroke-width=".09954" d="M8.262 8.401v8.661H11v-8.66zM11 6.668V17.06h2.736V6.668z"/><path fill="red" stroke-width=".09954" d="M13.737 9.556v7.506h2.738V9.556z"/><path fill="#00ff80" stroke-width=".09954" d="M16.474 4.936V17.06h2.736V4.936z"/><path fill="red" stroke-width=".09954" d="M19.211 7.247v9.816h2.737V7.247z"/><path fill="#ff0" stroke-width=".09954" d="M19.211 9.556c-1.368 0-1.367 2.887-2.736 2.887s-1.37 1.154-2.738 1.154-1.368-2.31-2.737-2.31-1.37 2.31-2.738 2.31-1.026 2.31-2.736 2.31-1.37-2.31-2.739-2.31S1.42 15.33.051 15.33v1.732H21.95v-3.465c-1.369 0-1.368-4.042-2.737-4.042z"/></g></svg>