<svg xmlns="http://www.w3.org/2000/svg" viewBox="0 0 22 22"><defs><linearGradient id="a" x1="17.82" x2="4.886" y1="3.461" y2="17.92" gradientTransform="translate(-1.476 -1.476)scale(1.134)" gradientUnits="userSpaceOnUse"><stop offset="0" stop-color="#ffc100"/><stop offset="1" stop-color="#ff0069"/></linearGradient></defs><path fill="url(#a)" d="M11 0a.65.65 0 0 0-.543.284L7.4 4.87c-.278.417.041 1.015.543 1.015h6.115c.502 0 .819-.597.54-1.015L11.545.284A.65.65 0 0 0 11 0zM5.202 7.3a.6.6 0 0 0-.334.102L.28 10.459a.663.663 0 0 0 0 1.086L4.868 14.6c.417.278 1.014-.039 1.014-.54V7.943a.64.64 0 0 0-.352-.562.7.7 0 0 0-.328-.082zm11.6 0a.7.7 0 0 0-.328.082.64.64 0 0 0-.352.563v6.115c0 .502.597.819 1.015.54l4.584-3.055a.663.663 0 0 0 0-1.086l-4.584-3.057a.6.6 0 0 0-.335-.102zm-5.798 1.542c-1.189 0-2.16.971-2.16 2.16s.971 2.16 2.16 2.16 2.16-.971 2.16-2.16-.971-2.16-2.16-2.16M7.947 16.12c-.502 0-.821.597-.543 1.015l3.057 4.584a.663.663 0 0 0 1.086 0l3.055-4.584c.279-.418-.038-1.015-.54-1.015z" transform="translate(.001 .002)scale(.9998)"/></svg>