<svg xmlns="http://www.w3.org/2000/svg" viewBox="0 0 22 22"><defs><linearGradient id="c" x1=".3" x2="1.333" y1="1.326" y2=".213" gradientTransform="matrix(5.253 0 0 5.313 7.437 7.653)" gradientUnits="userSpaceOnUse"><stop offset="0" stop-color="#00f1fa"/><stop offset="1" stop-color="#006cff"/></linearGradient><linearGradient id="a" y1="1"><stop offset="0" stop-color="#f1fa00"/><stop offset="1" stop-color="#ff6900"/></linearGradient></defs><path fill="url(#a)" d="m17.5 12.83-2.02 2.57 1.762 1.636-1.006 1.278 5.095.143-1.057-5.275-1.011 1.287z" transform="translate(-.716 -.716)scale(1.065)"/><path fill="url(#a)" d="m.672 3.487 1.06 5.275 1.01-1.284 1.761 1.636 2.02-2.57-1.762-1.636L5.767 3.63z" transform="translate(-.716 -.716)scale(1.065)"/><path fill="url(#a)" d="m20.64 3.487-5.092.143 1.003 1.278-1.762 1.636 2.023 2.57 1.759-1.636 1.011 1.284z" transform="translate(-.716 -.716)scale(1.065)"/><path fill="url(#a)" d="m4.649 12.89-1.762 1.636-1.009-1.284-1.06 5.275 5.095-.146-1.003-1.275 1.759-1.64z" transform="translate(-.716 -.716)scale(1.065)"/><path fill="url(#c)" d="M8.255 7.833a2 2 0 0 0-.474.038H7.78c-.408.106-.726.46-.758.865-.013.208-.005.413-.006.615a.34.34 0 0 0 .146.306c.191.138.488.031.53-.197l.001-.002v-.002c.026-.23-.003-.45.014-.662.012-.15.16-.29.327-.298.323-.013.653.01.987-.01h.004c.257-.035.37-.366.19-.544a.36.36 0 0 0-.25-.106c-.088-.006-.173.003-.242 0h-.006c-.15.006-.304-.002-.46-.003zm1.849.065c-.16-.011-.303.128-.29.278.002.143.144.267.296.256 1.113.004 2.226-.001 3.338.002.228-.007.43.184.425.399.004.71 0 1.42.002 2.131-1.04.005-2.078.003-3.118.009-.149-.006-.283.116-.284.255-.013.147.123.284.28.28 1.04.01 2.08-.01 3.12-.004-.003.25.01.5-.005.75-.023.213-.251.365-.473.344-1.774-.002-3.548.001-5.322 0-.225.008-.432-.174-.43-.387-.008-.579.004-1.157-.005-1.735.005-.201-.269-.334-.439-.212-.113.064-.13.195-.124.308.005.563-.007 1.125.005 1.688.016.461.453.866.943.87.676.001 1.354.005 2.03-.001-.397.333-.775.684-1.166 1.023-.081.072-.18.148-.183.262-.015.158.14.3.308.284q1.743.003 3.487 0c.167.015.318-.13.301-.287-.007-.135-.135-.213-.227-.3-.377-.324-.735-.671-1.125-.983.683.01 1.365.004 2.048.004.509-.007.95-.444.941-.921q.003-1.712 0-3.425c-.01-.467-.446-.883-.943-.888q-1.696-.003-3.392 0zm.653 5.337c.352.306.696.62 1.048.925q-1.05.003-2.1 0c.354-.305.699-.62 1.053-.925z" transform="translate(-.716 -.716)scale(1.065)"/></svg>