<svg version="1.1" viewBox="0 0 22 22" xmlns="http://www.w3.org/2000/svg">
 <defs>
  <linearGradient id="b" x1="22" x2=".001052" y1="22" gradientTransform="matrix(.54 .1376 -.1376 .5401 9.15 7.227)" gradientUnits="userSpaceOnUse">
   <stop stop-color="#007bf6" offset="0"/>
   <stop stop-color="#d60cff" offset=".5"/>
   <stop stop-color="#ff167a" offset="1"/>
  </linearGradient>
  <linearGradient id="a" y2="1">
   <stop stop-color="#f7f107" offset="0"/>
   <stop stop-color="#ffbb24" offset="1"/>
  </linearGradient>
 </defs>
 <path transform="translate(0) scale(1) translate(-.001138 .00041) scale(1) translate(-1.752 -1.468) scale(1.152)" d="m10.12 1.274-2e-3 0.00195c-4.323 0.00204-7.824 3.505-7.824 7.828 0.00746 3.889 2.861 7.185 6.711 7.738-3.019-0.5412-5.217-4.673-5.219-7.738 0-3.501 2.837-6.338 6.338-6.338 3.187 0 5.848 2.36 6.275 5.467 0.03768 0.2736 0.2727 0.498 0.5488 0.498h0.4883c0.2761 0 0.4914-0.2236 0.4609-0.498-0.4368-3.931-3.766-6.953-7.777-6.959z" fill="url(#a)"/>
 <path transform="translate(0) scale(1) translate(-.001138 .00041) scale(1) translate(-1.752 -1.468) scale(1.152)" d="m10.74 7.631-0.0035 2.75e-4c-0.08029-0.0206-0.1597-0.03587-0.2429-0.04731-0.3348-0.04591-0.7104 0.01406-1.014 0.1942-0.3037 0.1806-0.5361 0.4816-0.656 0.7979-0.1199 0.316-0.157 0.645-0.1637 1.008-0.01368 0.7275 0.1023 1.617 0.248 2.792l0.4827 3.893c0.139 1.123 0.2401 1.972 0.4116 2.63 0.08572 0.3295 0.1864 0.6182 0.366 0.8817 0.1797 0.2636 0.4837 0.4988 0.8264 0.5666 0.3446 0.0687 0.7174-0.03467 0.9848-0.2107 0.2669-0.1761 0.4695-0.406 0.6751-0.6791 0.4116-0.5467 0.8319-1.296 1.394-2.288 0.3336-0.589 0.4625-0.7552 0.5348-0.7983a0.681 0.681 0 0 0 5.69e-4 -0.0021c0.06958-0.04151 0.2802-0.07377 0.9563-0.0855 1.139-0.0191 2-0.02908 2.677-0.1288 0.3384-0.04991 0.6341-0.1186 0.9167-0.2685 0.282-0.1498 0.5529-0.4263 0.6578-0.7612l5.69e-4 -0.0021c0.1039-0.3335 0.04406-0.7157-0.1016-0.9984-0.1457-0.2839-0.3514-0.5085-0.5996-0.741-0.4968-0.4654-1.194-0.9586-2.113-1.618l-3.188-2.288a0.681 0.681 0 0 0-0.0011-2.773e-4 0.681 0.681 0 0 0 2.75e-4 -0.00107c-0.9629-0.6904-1.687-1.218-2.333-1.554-0.2415-0.1258-0.4747-0.228-0.7168-0.2905zm-0.3436 1.322 0.0021 5.701e-4c0.103 0.02818 0.2488 0.08474 0.4306 0.1793 0.4863 0.2532 1.206 0.7614 2.168 1.451a0.681 0.681 0 0 0-2.76e-4 0.0011l0.0011 2.76e-4 3.186 2.286c0.9195 0.6593 1.601 1.155 1.975 1.505 0.1635 0.1532 0.2396 0.2575 0.2813 0.3244-0.07326 0.03159-0.1973 0.07504-0.4219 0.1082-0.5115 0.07545-1.359 0.09479-2.499 0.1138-0.6788 0.01179-1.15-0.0081-1.631 0.2785-0.4789 0.285-0.6894 0.7066-1.023 1.296-0.5621 0.9921-0.984 1.729-1.295 2.142-0.1358 0.1804-0.2327 0.2647-0.2958 0.3144-0.03897-0.06905-0.09411-0.1816-0.1503-0.3977-0.129-0.4957-0.2387-1.332-0.3778-2.454l-0.4835-3.894c-0.1458-1.175-0.2485-2.049-0.2375-2.598 0.0052-0.2743 0.03958-0.4603 0.07431-0.5517 0.03468-0.0914 0.04259-0.08876 0.07865-0.1103 0.03606-0.0214 0.03593-0.02774 0.1329-0.01438 0.02378 0.00333 0.05373 0.00986 0.08731 0.01886z" fill="url(#b)" stroke-width=".5573"/>
</svg>
