<svg version="1.1" viewBox="0 0 22 22" xmlns="http://www.w3.org/2000/svg">
 <defs>
  <linearGradient id="a" y1="1">
   <stop stop-color="#fe5aff" offset="0"/>
   <stop stop-color="#fe9eff" offset="1"/>
  </linearGradient>
 </defs>
 <path transform="translate(.002082) scale(1) translate(.3762) scale(.9999)" d="m0.959 0a0.5 0.5 0 0 0-0.457 0.7012c2.714 6.151 2.229 13.92-0.04688 20.64a0.5 0.5 0 0 0 0.4727 0.6602h6.908a0.5 0.5 0 0 0 0.5-0.4902c0.02333-1.187 0.1343-2.322 0.3223-3.412 1.316-7.627 6.423-13 11.96-17.2a0.5 0.5 0 0 0-0.3027-0.8984h-19.36zm2.609 2.148h12.52c-5.301 3.744-9.686 10.16-9.969 17.6l-3.072-0.08398c1.363-5.285 2.187-12.2 0.5-17.49l0.01758 0.1211v0.001953l-0.05664 0.05469a0.5 0.5 0 0 0 0.0332-0.1934 0.5 0.5 0 0 0 0.03125-0.01172zm13.37 0.4668c-0.04656 0.08059-0.1055 0.1564-0.1738 0.2246 0.06845-0.06818 0.1272-0.144 0.1738-0.2246z" fill="url(#a)" fill-opacity=".999" stop-color="#000000" stroke-linecap="round" stroke-linejoin="round"/>
</svg>
