<svg xmlns="http://www.w3.org/2000/svg" viewBox="0 0 22 22"><path fill="#007fff" d="M.297 2.229c-.152 0-.274.168-.293.386a.44.44 0 0 1 .44-.386zm10.244 0c.226 0 .412.168.44.386-.019-.218-.14-.386-.292-.386zM0 3.237v5.451c0 .245.132.442.296.442h3.616V7.728c0-.286.23-.516.517-.516h2.083c.286 0 .516.23.516.516V9.13h3.661c.164 0 .295-.197.295-.442V3.237z"/><path fill="#0f0" d="M.444 2.229A.44.44 0 0 0 0 2.67v.566h10.984v-.566a.44.44 0 0 0-.443-.442z"/><path fill="#007fff" d="M13.454 5.21a.295.295 0 0 0-.296.294v.148c0-.246.198-.443.444-.443zm8.094 0c.203 0 .373.133.426.318v-.024a.294.294 0 0 0-.295-.295zm-8.39 1.007v9.137c0 .163.132.296.295.296h2.606v-1.437c0-.286.23-.517.516-.517h2.084c.286 0 .516.23.516.517v1.437h2.505a.295.295 0 0 0 .295-.296V6.217z"/><path fill="#f0f" d="M13.603 5.21a.44.44 0 0 0-.443.442v.565h8.835v-.565a.44.44 0 0 0-.444-.443z"/><path fill="#007fff" d="M1.589 11.082a.295.295 0 0 0-.296.295v.147c0-.245.198-.442.444-.442zm8.903 0c.246 0 .444.197.444.442v.566H1.294v6.073c0 .163.132.294.296.294h3.062v-1.281c0-.286.23-.517.516-.517h2.084c.286 0 .516.23.516.517v1.281h2.89a.295.295 0 0 0 .295-.294v-6.785a.295.295 0 0 0-.296-.295z"/><path fill="#ff0" d="M1.736 11.082a.44.44 0 0 0-.443.442v.566h9.642v-.566a.44.44 0 0 0-.443-.442z"/><path fill="#0f0" d="M4.431 7.214a.516.516 0 0 0-.516.517v2.074c0 .286.23.516.516.516h2.083c.287 0 .517-.23.517-.516V7.73a.516.516 0 0 0-.517-.517z"/><path fill="#f0f" d="M16.587 13.693a.516.516 0 0 0-.516.517v2.074c0 .286.23.515.516.515h2.084c.286 0 .516-.23.516-.515V14.21a.516.516 0 0 0-.516-.517z"/><path fill="#ff0" d="M5.17 16.658a.516.516 0 0 0-.517.517v2.074c0 .286.23.517.517.517h2.083c.286 0 .517-.231.517-.517v-2.074a.516.516 0 0 0-.517-.517z"/></svg>