<svg version="1.1" viewBox="0 0 22 22" xmlns="http://www.w3.org/2000/svg" xmlns:xlink="http://www.w3.org/1999/xlink">
 <defs>
  <linearGradient id="a" x1="-24.66" x2="97.04" y1="61.07" y2="-34.11" gradientTransform="matrix(.1524 0 0 .1949 5.481 8.372)" gradientUnits="userSpaceOnUse">
   <stop stop-color="#00f1fa" stop-opacity=".6" offset="0"/>
   <stop stop-color="#006cff" offset="1"/>
  </linearGradient>
  <linearGradient id="b" x1="1.25" x2="1.25" y1="1.25" y2="22.75" gradientTransform="matrix(.4924 0 0 .4924 5.091 7.982)" gradientUnits="userSpaceOnUse">
   <stop stop-color="#f9ad07" offset="0"/>
   <stop stop-color="#ff06a6" offset="1"/>
  </linearGradient>
 </defs>
 <path transform="translate(9.6e-5 .000718) scale(1)" d="m11-6.733e-4c-2.412 0-4.238-0.004908-5.716 0.194-1.48 0.1985-2.664 0.6338-3.557 1.528h-0.00201c-0.8947 0.8954-1.329 2.081-1.528 3.561-0.199 1.481-0.194 3.304-0.194 5.716 0 2.411-0.005008 4.234 0.194 5.716 0.1985 1.479 0.6348 2.664 1.528 3.557l0.00201 2e-3c0.8933 0.894 2.079 1.33 3.557 1.528 1.481 0.199 3.304 0.194 5.716 0.194 2.411 0 4.234 0.0045 5.716-0.194 1.48-0.1985 2.665-0.6355 3.561-1.531 0.894-0.8933 1.33-2.079 1.528-3.557 0.1989-1.481 0.194-3.304 0.194-5.716 0-2.412 0.0049-4.234-0.194-5.716-0.1985-1.48-0.6341-2.665-1.528-3.561-0.8954-0.894-2.081-1.33-3.561-1.528-1.48-0.1989-3.304-0.194-5.716-0.194zm0 1.535c2.412 0 4.207 0.00432 5.513 0.1799 1.306 0.1752 2.075 0.4891 2.679 1.093 0.6032 0.6035 0.9174 1.373 1.093 2.68 0.01258 0.09362 0.0247 0.19 0.03557 0.2886h-18.64c0.01089-0.09864 0.02299-0.1951 0.03557-0.2886 0.1754-1.306 0.4908-2.075 1.095-2.68 0.6025-0.6029 1.371-0.9174 2.678-1.093 1.307-0.1756 3.1-0.1799 5.513-0.1799zm-9.424 5.774h18.85c0.03867 1.028 0.04028 2.248 0.04028 3.688 0 2.412-0.0043 4.207-0.1799 5.513-0.1752 1.307-0.4898 2.075-1.093 2.678-0.6035 0.6035-1.372 0.9191-2.679 1.095-1.307 0.1757-3.1 0.1799-5.513 0.1799-2.412 0-4.207-0.0043-5.513-0.1799-1.306-0.1753-2.075-0.4894-2.678-1.093v-2e-3c-0.6035-0.6036-0.9191-1.372-1.095-2.678-0.1757-1.307-0.1799-3.1-0.1799-5.513 0-1.441 0.00162-2.661 0.04028-3.688z" fill="url(#a)" stroke-width=".1724"/>
 <path transform="translate(9.6e-5 .000718) scale(1)" d="m11.15 2.757a1.023 1.023 0 0 1 0.9531 1.021 1.023 1.023 0 0 1-2.046 0 1.023 1.023 0 0 1 1.093-1.021z" fill="#fcd218" fill-opacity=".6" stroke-width=".1724"/>
 <path transform="translate(9.6e-5 .000718) scale(1)" d="m14.22 2.757a1.023 1.023 0 0 1 0.9531 1.021 1.023 1.023 0 0 1-2.046 0 1.023 1.023 0 0 1 1.093-1.021z" fill="#ae00ed" fill-opacity=".6" stroke-width=".1724"/>
 <path transform="translate(9.6e-5 .000718) scale(1)" d="m17.29 2.757a1.023 1.023 0 0 1 0.9531 1.021 1.023 1.023 0 0 1-2.046 0 1.023 1.023 0 0 1 1.093-1.021z" fill="#ff493b" fill-opacity=".6" stroke-width=".1724"/>
 <path transform="translate(9.6e-5 .000718) scale(1)" d="m10.97 8.597c-0.1967 0.00645-0.321 0.09292-0.4316 0.1806-0.1106 0.08765-0.2085 0.193-0.3069 0.3127-0.1968 0.2395-0.3892 0.5387-0.5589 0.8435-0.1696 0.3049-0.315 0.6121-0.4086 0.877-0.04681 0.1325-0.08164 0.2525-0.09725 0.377-0.00779 0.06224-0.01246 0.1262 9.679e-4 0.2068 0.01343 0.08061 0.05018 0.1951 0.1606 0.2846 0.1292 0.1047 0.3008 0.1278 0.4261 0.1134 0.1254-0.0144 0.231-0.05288 0.3444-0.1018 0.2268-0.09784 0.4871-0.2477 0.8346-0.4445 0.0064-0.0036 0.01159-0.0071 0.01648-0.0097 0.0034 0.0016 0.0076 0.0038 0.01163 0.0058 0.07057 0.03513 0.3649 0.2238 0.6628 0.3663 0.1488 0.07125 0.3038 0.1363 0.4762 0.1683 0.1724 0.03193 0.4057 0.03519 0.5963-0.1315 0.1047-0.09159 0.1378-0.2046 0.1499-0.285 0.01211-0.08036 0.0066-0.144-2e-3 -0.2068-0.01719-0.1254-0.05371-0.2455-0.1027-0.3786-0.09797-0.2662-0.2484-0.5746-0.4241-0.878-0.1757-0.3034-0.3741-0.5983-0.5781-0.8336-0.102-0.1177-0.2043-0.221-0.3201-0.3056-0.1158-0.0846-0.2497-0.1674-0.449-0.1609zm0.02164 0.7662c0.04658 0.0352 0.1148 0.0975 0.19 0.1842 0.1567 0.1808 0.3383 0.4473 0.4963 0.7204 0.146 0.2521 0.264 0.5032 0.3424 0.7041-0.02938-0.01234-0.04631-0.01297-0.0772-0.02778-0.2348-0.1124-0.4681-0.2698-0.6529-0.3618-0.09705-0.04831-0.2172-0.09789-0.3634-0.09302-0.1462 0.0048-0.2611 0.06022-0.3566 0.1143-0.2409 0.1365-0.3787 0.2056-0.5303 0.2836 0.07544-0.1835 0.1591-0.3803 0.2782-0.5943 0.1531-0.2754 0.3302-0.5461 0.4836-0.7327 0.0745-0.09065 0.1424-0.1588 0.1896-0.1971zm-2.626 2.681c-0.03404 9.34e-4 -0.06588 0.0044-0.09725 0.0087-0.1255 0.01719-0.2459 0.05407-0.379 0.1031-0.2662 0.09799-0.5737 0.2482-0.877 0.4239-0.3034 0.1757-0.5993 0.3741-0.8346 0.5781-0.1177 0.102-0.2214 0.2043-0.3059 0.3202-0.0846 0.1158-0.1671 0.2497-0.1606 0.449 0.00645 0.1967 0.09326 0.3213 0.1809 0.4319 0.08765 0.1106 0.1926 0.2085 0.3124 0.3069 0.2395 0.1968 0.5387 0.3892 0.8435 0.5589 0.3049 0.1696 0.6121 0.315 0.877 0.4086 0.1325 0.04681 0.2525 0.08164 0.377 0.09725 0.06224 0.0078 0.1262 0.01252 0.2068-9.33e-4 0.08061-0.01343 0.1951-0.05018 0.2846-0.1606 0.1047-0.1291 0.1278-0.3008 0.1134-0.4262-0.01438-0.1254-0.05288-0.231-0.1018-0.3444-0.09784-0.2268-0.2473-0.4874-0.4442-0.8346-0.00359-0.0064-0.00709-0.01127-0.00969-0.01615 0.0016-0.0034 0.00381-0.0076 0.00582-0.01163 0.03512-0.07056 0.2238-0.3649 0.3663-0.6628 0.07125-0.1488 0.1363-0.3038 0.1683-0.4762 0.03194-0.1724 0.03489-0.4057-0.1318-0.5963-0.09159-0.1047-0.2033-0.1378-0.2836-0.1499-0.04018-6e-3 -0.07676-0.0077-0.1108-0.0068v-2.97e-4zm5.279 0c-0.03405-9.34e-4 -0.07032 7.21e-4 -0.1105 0.0068-0.08036 0.01213-0.1924 0.04515-0.284 0.1499-0.1667 0.1906-0.1637 0.4239-0.1318 0.5963 0.03193 0.1724 0.09705 0.3274 0.1683 0.4762 0.1425 0.2976 0.3315 0.5919 0.3666 0.6628 2e-3 0.0038 0.0032 0.0071 0.0048 0.01033-0.0025 0.0048-0.0053 0.01033-0.0087 0.01648v9.33e-4c-0.1969 0.3475-0.3468 0.6081-0.4445 0.8346-0.04891 0.1134-0.0874 0.2187-0.1018 0.344-0.01437 0.1253 0.0087 0.297 0.1134 0.4261 0.08952 0.1103 0.204 0.1471 0.2846 0.1606 0.08061 0.01343 0.1445 0.0087 0.2068 9.34e-4 0.1245-0.01556 0.2445-0.05008 0.377-0.0969 0.265-0.09361 0.5722-0.2394 0.877-0.409 0.3049-0.1696 0.6037-0.3619 0.8435-0.5589 0.1198-0.09843 0.225-0.196 0.3127-0.3066 0.08765-0.1106 0.1741-0.2352 0.1806-0.4319 0.0065-0.1993-0.07598-0.3332-0.1606-0.449-0.08455-0.1159-0.1882-0.2184-0.3059-0.3205-0.2354-0.2042-0.5313-0.4022-0.8346-0.5781-0.3033-0.1759-0.6106-0.3262-0.877-0.4242-0.1331-0.04899-0.2535-0.08553-0.379-0.1027-0.03136-0.0042-0.06283-0.0078-0.0969-0.0087h-3.2e-4zm-2.639 0.4924c-0.7435 0-1.354 0.6106-1.354 1.354 0 0.7435 0.6106 1.354 1.354 1.354 0.7435 0 1.354-0.6106 1.354-1.354 0-0.7435-0.6106-1.354-1.354-1.354zm-2.919 0.3405c-0.01234 0.02939-0.01298 0.04598-0.02778 0.07687-0.1124 0.2348-0.2695 0.4681-0.3615 0.6529-0.04832 0.09705-0.09828 0.2172-0.09336 0.3634 0.00487 0.1462 0.06116 0.2615 0.1153 0.357 0.1365 0.241 0.2059 0.3783 0.284 0.5298-0.1837-0.07544-0.3809-0.159-0.5953-0.2782-0.2754-0.1531-0.5461-0.3302-0.7327-0.4836-0.09065-0.0745-0.1591-0.1421-0.1974-0.1893 0.03516-0.04659 0.09799-0.1153 0.1848-0.1906 0.1808-0.1567 0.4473-0.338 0.7204-0.4963 0.2519-0.1458 0.5027-0.2637 0.7036-0.3421zm5.84 3.23e-4c0.2007 0.07839 0.4518 0.1959 0.7041 0.3418 0.273 0.1581 0.5397 0.3397 0.7204 0.4963 0.08681 0.07529 0.1493 0.1437 0.1845 0.1903-0.03828 0.04723-0.1064 0.1151-0.1971 0.1896-0.1867 0.1534-0.4574 0.3305-0.7327 0.4836-0.2144 0.1193-0.4116 0.2027-0.5953 0.2782 0.07805-0.1516 0.1474-0.2892 0.284-0.5303 0.05416-0.09558 0.1104-0.2104 0.1153-0.3566 0.0048-0.1462-0.04509-0.2664-0.09336-0.3634-0.09198-0.1848-0.249-0.4182-0.3615-0.6529-0.01476-0.0308-0.01589-0.04773-0.0281-0.07687zm-2.919 0.398c0.3443 0 0.6155 0.2711 0.6155 0.6155 0 0.3444-0.2711 0.6155-0.6155 0.6155s-0.6155-0.2711-0.6155-0.6155c0-0.3444 0.2711-0.6155 0.6155-0.6155zm-1.301 2.708c-0.1186-0.0038-0.264 0.02563-0.377 0.1173-0.1104 0.08952-0.1474 0.204-0.1609 0.2846-0.01343 0.08061-0.00876 0.1445-9.679e-4 0.2068 0.01557 0.1245 0.05042 0.2445 0.09725 0.377 0.09361 0.265 0.2391 0.5722 0.4086 0.877 0.1696 0.3049 0.3619 0.6037 0.5589 0.8435 0.09843 0.1198 0.1963 0.225 0.3069 0.3127 0.1106 0.0877 0.2352 0.1741 0.4319 0.1806 0.1993 0.0065 0.3332-0.07597 0.449-0.1606 0.1158-0.08459 0.2181-0.1882 0.3202-0.3059 0.2041-0.2354 0.4025-0.5313 0.5781-0.8346 0.1757-0.3034 0.3262-0.6111 0.4242-0.877 0.04899-0.1331 0.08553-0.2535 0.1027-0.379 0.0086-0.06274 0.01407-0.1274 2e-3 -0.2077-0.01212-0.08036-0.04514-0.192-0.1499-0.2836-0.1906-0.1667-0.4239-0.1637-0.5963-0.1318-0.1724 0.03193-0.3274 0.09705-0.4762 0.1683-0.2976 0.1425-0.5919 0.3312-0.6628 0.3663-0.0041 2e-3 -0.0082 0.0042-0.01163 0.0058-0.0048-0.0026-0.01014-0.0061-0.01647-0.0097-0.3475-0.1969-0.6081-0.3464-0.8346-0.4442-0.1134-0.04891-0.2191-0.0874-0.3444-0.1018-0.01567-0.0019-0.03216-0.0034-0.0491-0.0039v-3.22e-4zm2.314 0.8258c-0.07839 0.2007-0.1962 0.4515-0.3421 0.7036-0.1581 0.273-0.3394 0.5397-0.4963 0.7204-0.07529 0.08681-0.144 0.1496-0.1906 0.1848-0.04723-0.03828-0.1148-0.1068-0.1893-0.1974-0.1534-0.1867-0.3308-0.4574-0.4839-0.7327-0.1193-0.2144-0.2024-0.4114-0.2778-0.5948 0.1516 0.07805 0.2889 0.1471 0.5298 0.2836 0.09553 0.05412 0.2108 0.1104 0.357 0.1153 0.1462 0.0048 0.2663-0.04476 0.3634-0.09301 0.1848-0.09198 0.4182-0.2494 0.6529-0.3618 0.03092-0.01481 0.04753-0.01544 0.07687-0.02778z" fill="url(#b)" stroke-width=".4924"/>
</svg>
