<svg version="1.1" viewBox="0 0 22 22" xmlns="http://www.w3.org/2000/svg">
 <defs>
  <linearGradient id="a" x2="0" y1="1">
   <stop stop-color="#00d455" offset="0"/>
   <stop stop-color="#00e1bc" offset="1"/>
  </linearGradient>
 </defs>
 <path transform="translate(.003401 .001047) scale(1) translate(-4e-4) scale(1)" d="m10.18 0v0.001953c-2.783 0-5.38 1.16-7.201 2.98-1.82 1.821-2.982 4.418-2.982 7.201s1.162 5.38 2.982 7.201c1.821 1.82 4.418 2.964 7.201 2.982 2.233-0.01955 4.222-0.7078 5.94-1.94l3.092 3.092c0.3104 0.2843 0.7673 0.4766 1.152 0.4766 0.3854 0 0.8431-0.1922 1.152-0.4766 0.2843-0.3104 0.4766-0.7673 0.4766-1.152 0-0.3854-0.1922-0.8431-0.4766-1.152l-3.092-3.092c1.231-1.717 1.92-3.704 1.94-5.938-0.01792-2.783-1.162-5.382-2.982-7.203-1.821-1.82-4.418-2.982-7.201-2.982zm0 2.443c2.166 1.56e-4 4.049 0.8468 5.473 2.27 1.422 1.423 2.286 3.306 2.268 5.473a7.414 7.414 0 0 1-0.6621 3.074l-0.9023 1.576c-1.464 1.984-3.7 3.108-6.176 3.09-2.476 0.01874-4.712-1.106-6.176-3.09l-0.9023-1.576a7.495 7.495 0 0 1-0.6621-3.074c-0.01792-2.166 0.8447-4.049 2.268-5.473 1.423-1.422 3.306-2.269 5.473-2.27zm-0.0098 2.453c-0.4456 0.00103-0.8115 0.1579-1.098 0.4688-0.2868 0.3101-0.4316 0.6807-0.4316 1.113v2.125h-2.17c-0.4193 0-0.7809 0.1552-1.084 0.4648-0.3023 0.3096-0.4531 0.4642-0.4531 1.107 0 0.4291 0.1511 0.7926 0.4531 1.094 0.3031 0.3025 0.6647 0.4551 1.084 0.4551h2.17v2.123a1.572 1.572 0 0 0 0.4375 1.113c0.2922 0.3123 0.6614 0.4688 1.107 0.4688 0.4459 5.43e-4 0.8212-0.1558 1.123-0.4688 0.302-0.3101 0.4512-0.6807 0.4512-1.113v-2.123h2.125a1.483 1.483 0 0 0 1.084-0.459c0.302-0.3047 0.4531-0.6669 0.4531-1.088 0-0.434-0.1511-0.8056-0.4531-1.113a1.466 1.466 0 0 0-1.084-0.4609h-2.125v-2.125c0-0.4329-0.1568-0.8034-0.4707-1.113-0.3122-0.3116-0.683-0.4686-1.117-0.4688z" fill="url(#a)"/>
</svg>
