<svg version="1.1" viewBox="0 0 22 22" xmlns="http://www.w3.org/2000/svg">
 <defs>
  <linearGradient id="a" x1="1" x2="0" y1="1">
   <stop stop-color="#f300ff" stop-opacity=".996" offset="0"/>
   <stop stop-color="#12dbb9" offset="1"/>
  </linearGradient>
 </defs>
 <path transform="translate(0) scale(1) translate(-.00076 .000921) scale(1) translate(.4785 .4842) scale(.9566)" d="m8.725-0.5059a0.5 0.5 0 0 0-0.02148 0.01367c-2.701-0.05736-5.424 0.2673-8.115 0.5293a0.5 0.5 0 0 0-0.4453 0.5742l3.004 19.28a0.5 0.5 0 0 0 0.7207 0.3691c3.372-1.712 5.941-2.108 8.545-1.633 2.604 0.4751 5.276 1.859 8.703 3.799a0.5 0.5 0 0 0 0.7461-0.4375l-0.1074-16.5a0.5 0.5 0 0 0-0.1289-0.332c-3.929-4.357-8.395-5.566-12.9-5.664zm-0.7188 2.924a0.5 0.5 0 0 0 0.00977 0.00586c4.178-0.164 6.727 0.8978 10.69 3.978v11.27c-3.063-1.587-6.207-3.398-12.91-1.627l-2.213-13.12c1.658-0.2604 3.153-0.4578 4.424-0.5078z" fill="url(#a)"/>
</svg>
