<svg xmlns="http://www.w3.org/2000/svg" viewBox="0 0 22 22"><path fill="#06f" d="M11.23 6.834c-.877 0-1.6.722-1.6 1.6v5.133c0 .878.722 1.6 1.6 1.6h9.166c.878 0 1.6-.722 1.6-1.6V8.434c0-.877-.722-1.6-1.6-1.6zm0 1h9.166c.341 0 .6.258.6.6v5.133c0 .34-.259.6-.6.6H11.23a.587.587 0 0 1-.6-.6V8.434c0-.342.259-.6.6-.6M16.37.115c-.877 0-1.6.722-1.6 1.6V4.65c0 .878.722 1.6 1.6 1.6h4.033c.878 0 1.6-.722 1.6-1.6V1.715c0-.877-.722-1.6-1.6-1.6zm0 1h4.033c.341 0 .6.259.6.6v2.934c0 .341-.259.6-.6.6H16.37a.587.587 0 0 1-.6-.6V1.715c0-.341.259-.6.6-.6M16.37 15.71c-.877 0-1.6.722-1.6 1.6v2.934c0 .878.722 1.6 1.6 1.6h4.033c.878 0 1.6-.722 1.6-1.6V17.31c0-.877-.722-1.6-1.6-1.6zm0 1h4.033c.341 0 .6.258.6.6v2.934c0 .34-.259.6-.6.6H16.37a.587.587 0 0 1-.6-.6V17.31c0-.342.259-.6.6-.6" style="paint-order:stroke fill markers" transform="translate(-5.012 -.117)scale(1.012)"/><rect width=".733" height=".733" x="20.19" y="15.87" fill="red" rx=".367" transform="translate(-5.012 -.117)scale(1.012)"/><rect width=".733" height=".733" x="19.28" y="15.87" fill="#d500ff" rx=".367" transform="translate(-5.012 -.117)scale(1.012)"/><rect width=".733" height=".733" x="18.38" y="15.87" fill="#ff0" rx=".367" transform="translate(-5.012 -.117)scale(1.012)"/><rect width=".733" height=".733" x="20.19" y="6.981" fill="red" rx=".367" transform="translate(-5.012 -.117)scale(1.012)"/><rect width=".733" height=".733" x="19.28" y="6.981" fill="#d500ff" rx=".367" transform="translate(-5.012 -.117)scale(1.012)"/><rect width=".733" height=".733" x="18.38" y="6.981" fill="#ff0" rx=".367" transform="translate(-5.012 -.117)scale(1.012)"/><rect width=".733" height=".733" x="20.19" y=".222" fill="red" rx=".367" transform="translate(-5.012 -.117)scale(1.012)"/><rect width=".733" height=".733" x="19.28" y=".222" fill="#d500ff" rx=".367" transform="translate(-5.012 -.117)scale(1.012)"/><rect width=".733" height=".733" x="18.38" y=".222" fill="#ff0" rx=".367" transform="translate(-5.012 -.117)scale(1.012)"/></svg>