<svg fill="none" version="1.1" viewBox="0 0 22 22" xmlns="http://www.w3.org/2000/svg" xmlns:xlink="http://www.w3.org/1999/xlink">
 <defs>
  <linearGradient id="b" x1="3.538" x2="16.16" y1="13.35" y2="2.332" gradientUnits="userSpaceOnUse">
   <stop stop-color="#fe0844" offset="0"/>
   <stop stop-color="#feb302" offset="1"/>
  </linearGradient>
  <clipPath id="a">
   <path d="M0 0h16v16H0z" fill="#fff"/>
  </clipPath>
  <linearGradient id="c" x1="10.32" x2="11.24" y1="14.78" y2="7.32" gradientUnits="userSpaceOnUse">
   <stop stop-color="#8d01a2" offset="0"/>
   <stop stop-color="#ff33db" offset="1"/>
  </linearGradient>
 </defs>
 <g transform="translate(2.5e-5 -.000276) scale(1) translate(-7.5e-5 .000606) scale(1) matrix(0 -1.466 1.466 0 -.7293 22.73)" clip-path="url(#a)">
  <path d="m1.2 1a0.2 0.2 0 0 0-0.2 0.2v2.225c0 0.11 0.09 0.2 0.2 0.2h2.225a0.2 0.2 0 0 0 0.2-0.2v-2.225a0.2 0.2 0 0 0-0.2-0.2zm11.38 0a0.2 0.2 0 0 0-0.2 0.2v2.225c0 0.11 0.09 0.2 0.2 0.2h2.225a0.2 0.2 0 0 0 0.2-0.2v-2.225a0.2 0.2 0 0 0-0.2-0.2zm-10.7 1.075c0-0.11 0.09-0.2 0.2-0.2h0.475c0.11 0 0.2 0.09 0.2 0.2v0.475a0.2 0.2 0 0 1-0.2 0.2h-0.475a0.2 0.2 0 0 1-0.2-0.2zm11.38 0c0-0.11 0.09-0.2 0.2-0.2h0.475c0.11 0 0.2 0.09 0.2 0.2v0.475a0.2 0.2 0 0 1-0.2 0.2h-0.475a0.2 0.2 0 0 1-0.2-0.2zm-6.8 0.675a0.2 0.2 0 0 0-0.2 0.2v0.475c0 0.11 0.09 0.2 0.2 0.2h3.1a0.2 0.2 0 0 0 0.2-0.2v-0.475a0.2 0.2 0 0 0-0.2-0.2zm-3.5 3.5a0.2 0.2 0 0 0-0.2 0.2v3.1c0 0.11 0.09 0.2 0.2 0.2h0.475a0.2 0.2 0 0 0 0.2-0.2v-3.1a0.2 0.2 0 0 0-0.2-0.2zm-1.75 6.125a0.2 0.2 0 0 0-0.2 0.2v2.225c0 0.11 0.09 0.2 0.2 0.2h2.225a0.2 0.2 0 0 0 0.2-0.2v-2.225a0.2 0.2 0 0 0-0.2-0.2zm0.675 1.075c0-0.11 0.09-0.2 0.2-0.2h0.475c0.11 0 0.2 0.09 0.2 0.2v0.475a0.2 0.2 0 0 1-0.2 0.2h-0.475a0.2 0.2 0 0 1-0.2-0.2z" fill="url(#b)" stroke="url(#b)"/>
  <path d="m6.7 6.75a0.2 0.2 0 0 0-0.2 0.2v4.85c0 0.11 0.09 0.2 0.2 0.2h4.85a0.2 0.2 0 0 0 0.2-0.2v-4.85a0.2 0.2 0 0 0-0.2-0.2zm0.675 1.075c0-0.11 0.09-0.2 0.2-0.2h3.1c0.11 0 0.2 0.09 0.2 0.2v3.1a0.2 0.2 0 0 1-0.2 0.2h-3.1a0.2 0.2 0 0 1-0.2-0.2z" clip-rule="evenodd" fill="url(#c)" fill-rule="evenodd"/>
  <path d="m14.2 11.5a0.2 0.2 0 0 0-0.2 0.2v2.225a0.2 0.2 0 0 1-0.2 0.2h-2.225a0.2 0.2 0 0 0-0.2 0.2v0.475c0 0.11 0.09 0.2 0.2 0.2h3.1a0.2 0.2 0 0 0 0.2-0.2v-3.1a0.2 0.2 0 0 0-0.2-0.2z" fill="url(#c)"/>
  <path d="m6.7 6.75a0.2 0.2 0 0 0-0.2 0.2v4.85c0 0.11 0.09 0.2 0.2 0.2h4.85a0.2 0.2 0 0 0 0.2-0.2v-4.85a0.2 0.2 0 0 0-0.2-0.2zm0.675 1.075c0-0.11 0.09-0.2 0.2-0.2h3.1c0.11 0 0.2 0.09 0.2 0.2v3.1a0.2 0.2 0 0 1-0.2 0.2h-3.1a0.2 0.2 0 0 1-0.2-0.2z" clip-rule="evenodd" stroke="url(#c)"/>
  <path d="m14.2 11.5a0.2 0.2 0 0 0-0.2 0.2v2.225a0.2 0.2 0 0 1-0.2 0.2h-2.225a0.2 0.2 0 0 0-0.2 0.2v0.475c0 0.11 0.09 0.2 0.2 0.2h3.1a0.2 0.2 0 0 0 0.2-0.2v-3.1a0.2 0.2 0 0 0-0.2-0.2z" stroke="url(#c)"/>
 </g>
</svg>
