<svg xmlns="http://www.w3.org/2000/svg" viewBox="0 0 22 22"><defs><linearGradient id="a" y1="1"><stop offset="0" stop-color="#e100c2"/><stop offset="1" stop-color="#ffdc19"/></linearGradient></defs><path fill="url(#a)" d="M9 2.5a.5.5 0 0 0-.5.5v6.5h-1V7a.5.5 0 0 0-.854-.354l-4 4a.503.503 0 0 0 0 .707l4 4A.501.501 0 0 0 7.5 15v-2.5h1V19a.5.5 0 0 0 .5.5h4a.5.5 0 0 0 .5-.5l.002-6.5h.998V15a.501.501 0 0 0 .854.353l4-4a.5.5 0 0 0 0-.707l-4-4A.5.5 0 0 0 14.5 7v2.5h-.998L13.5 3a.5.5 0 0 0-.5-.5zm1.5 2h1v13h-1z" transform="translate(-3.235 -3.235)scale(1.294)"/></svg>