<svg version="1.1" viewBox="0 0 22 22" xmlns="http://www.w3.org/2000/svg">
 <defs>
  <linearGradient id="a" x1="1" x2="0" y2="1">
   <stop stop-color="#9204ff" offset="0"/>
   <stop stop-color="#ff81ff" offset="1"/>
  </linearGradient>
 </defs>
 <path transform="translate(0) scale(1) translate(2.3e-5 -.001528) scale(1) translate(.1965 .2583) scale(.9824)" d="m11.02 0.3633c-0.3483-0.004604-0.6988 0.03824-1.037 0.1387a0.7001 0.7001 0 0 0-0.08008 0.03125c-1.713 0.7491-3.384 1.594-5.047 2.434-0.809 0.4088-1.619 0.8155-2.428 1.211h-0.00195v0.00195h-0.00195c-0.00446 0.00218-0.00922 0.00368-0.01367 0.00586-0.2309 0.08678-0.3666 0.2077-0.4902 0.3398-0.1272 0.136-0.2356 0.2756-0.3086 0.5098-0.05927 0.1902-0.06596 0.4478 0.01758 0.6582 0.05989 0.1508 0.2902 0.408 0.4883 0.5117a0.7001 0.7001 0 0 0 0.00195 0h0.00195v0.00195h0.00195a0.7001 0.7001 0 0 0 0.00586 0.00391c1.368 0.7455 2.767 1.437 4.162 2.127 0.88 0.4356 1.759 0.8702 2.623 1.314 1.173 0.6916 2.681 0.7692 3.904 0.1172a0.7001 0.7001 0 0 0 0.02539-0.01172c1.169-0.5895 2.338-1.176 3.508-1.762 1.045-0.5236 2.091-1.044 3.139-1.572a0.7001 0.7001 0 0 0 0.07617-0.04492h2e-3l2e-3 -0.00195h2e-3a0.7001 0.7001 0 0 0 0.0039-0.00195c0.143-0.07606 0.2851-0.1382 0.4707-0.2969 0.01926-0.0165 0.05537-0.0425 0.1133-0.1035a0.7001 0.7001 0 0 0 2e-3 -0.00195c0.03809-0.0403 0.05813-0.06679 0.06641-0.07812l6e-3 -0.00585v-0.00195c0.06267-0.08316 0.1335-0.2168 0.1641-0.3535v-0.001975c0.01997-0.09114 0.0249-0.1719 0.02344-0.2383-3e-3 -0.1696-0.05755-0.3806-0.1543-0.5371h2e-3c-0.01137-0.01848-0.03771-0.05924-0.07813-0.1094-0.0821-0.1009-0.1552-0.1632-0.2191-0.2148a0.7001 0.7001 0 0 0-2e-3 0c-0.1938-0.1561-0.3597-0.2307-0.5156-0.3125-0.02503-0.01316-0.04416-0.02482-0.0625-0.03516-0.01112-0.00627-0.02247-0.0118-0.0332-0.01758a0.7001 0.7001 0 0 0-0.03125-0.01758c-0.7299-0.3603-1.463-0.7219-2.193-1.084-1.469-0.7284-2.939-1.46-4.414-2.178a0.7001 0.7001 0 0 0-0.01758-0.009766h-4e-3c-0.5191-0.2615-1.095-0.4064-1.68-0.4141zm-0.01758 1.398c0.3658 0.00481 0.7392 0.09846 1.07 0.2656a0.7001 0.7001 0 0 0 0.01367 0.00781c1.475 0.7179 2.949 1.451 4.426 2.184 0.7146 0.3545 1.432 0.7059 2.143 1.057-0.9758 0.4913-1.951 0.9805-2.93 1.471-1.168 0.5851-2.338 1.17-3.508 1.76-0.0013 6.566e-4 -0.0026 0.0013-0.0039 0.00195a0.7001 0.7001 0 0 0-0.03516 0.01562c-0.7373 0.4015-1.809 0.3605-2.553-0.07812a0.7001 0.7001 0 0 0-0.005859-0.001953c-0.01823-0.01051-0.03593-0.02172-0.05469-0.03125l-0.00586-0.00195c-0.8789-0.452-1.766-0.8901-2.646-1.326-1.202-0.5943-2.382-1.195-3.543-1.812 0.7072-0.348 1.414-0.6993 2.117-1.055 1.644-0.8305 3.273-1.653 4.918-2.375 0.1868-0.05296 0.3894-0.08283 0.5977-0.08008z" fill="url(#a)"/>
 <path transform="translate(0) scale(1) translate(2.3e-5 -.001528) scale(1) translate(.1965 .2583) scale(.9824)" d="m1.082 6.678c-0.1306-0.00231-0.237 0.01164-0.3301 0.03125a0.7001 0.7001 0 0 0-0.1543 0.05273c-0.3456 0.1632-0.5974 0.5416-0.6875 0.8438-0.04942 0.1656-0.07506 0.3231-0.08984 0.4805-0.01479 0.1573-0.01688 0.3059-0.01758 0.4336a0.7001 0.7001 0 0 0 0 0.00391v0.00391a0.7001 0.7001 0 0 0 0 0.00195c0.002065 0.9009 0.001118 1.804 0 2.709-0.001404 1.163-0.005356 2.331 0 3.496v4e-3c-0.01157 1.192 0.5792 2.416 1.725 2.982 1.296 0.6582 2.6 1.297 3.902 1.94a0.7001 0.7001 0 0 0 0.00195 0c0.9956 0.4908 1.989 0.9852 2.977 1.48 0.1981 0.09927 0.4239 0.2122 0.6973 0.2832a0.7001 0.7001 0 0 0 0.00195 0c0.2634 0.06735 0.5912 0.07577 0.8848-0.03516a0.7001 0.7001 0 0 0 0.08594-0.03906c0.2944-0.1597 0.5283-0.5219 0.6016-0.791a0.7001 0.7001 0 0 0 0-2e-3c0.08289-0.3042 0.08016-0.5667 0.08398-0.7949a0.7001 0.7001 0 0 0 0-0.01172v-0.0039c-7.93e-4 -0.714-5.5e-4 -1.432 0-2.146 9.99e-4 -1.427 0.0017-2.854-0.0078-4.281 0.03391-1.137-0.519-2.302-1.6-2.852-1.88-0.9574-3.77-1.89-5.66-2.82-0.3471-0.1709-0.6955-0.3426-1.043-0.5137-0.00131-6.428e-4 -0.0026-0.00131-0.00391-0.00195l-0.01562-0.00781a0.7001 0.7001 0 0 0-0.03906-0.01758c-0.07683-0.03251-0.1555-0.06992-0.2402-0.1094h-0.00195c-0.037-0.01724-0.0397-0.01768-0.06055-0.02735-0.1238-0.05737-0.2547-0.1142-0.3926-0.1641-0.08696-0.03141-0.1788-0.0607-0.2793-0.08398-0.1005-0.02329-0.2049-0.03904-0.3144-0.04297l0.00391 0.00195a0.7001 0.7001 0 0 0-0.02734-0.00195zm0.1484 1.447c0.08171 0.02988 0.174 0.06812 0.2715 0.1133 0.02367 0.01098 0.0478 0.02229 0.05859 0.02734a0.7001 0.7001 0 0 0 0.00195 0c0.00184 8.655e-4 0.0038 0.0019 0.00391 0.00195 0.07084 0.03298 0.1532 0.07074 0.2422 0.1094l0.01562 0.00781h0.00195v0.00195h0.0039a0.7001 0.7001 0 0 0 0.00195 0.00195c0.3485 0.1716 0.6982 0.3439 1.047 0.5156 1.889 0.9297 3.772 1.857 5.641 2.809 0.5085 0.2589 0.8568 0.9292 0.8379 1.562a0.7001 0.7001 0 0 0 0 0.0078c-3.052e-4 0.01562-3.052e-4 0.03125 0 0.04687 0.00941 1.419 0.00881 2.844 0.00781 4.27-5.482e-4 0.7127-7.844e-4 1.426 0 2.139v0.0117c-0.00257 0.1208-0.01452 0.1846-0.02344 0.2695-0.08849-0.0333-0.1796-0.06624-0.3047-0.1289-0.9902-0.4963-1.988-0.9925-2.986-1.484h-0.00195c-1.304-0.6435-2.605-1.284-3.889-1.936a0.7001 0.7001 0 0 0-0.01172-0.0039l-0.00195-2e-3c-0.5639-0.28-0.9528-1.016-0.9453-1.715a0.7001 0.7001 0 0 0 0-2e-3c4.39e-5 -0.0056 3.51e-5 -0.01195 0-0.01758v-2e-3c-0.00534-1.158-0.00141-2.324 0-3.49 0.00112-0.9042 0.00207-1.808 0-2.711v-0.0039c6.507e-4 -0.1059 0.00514-0.2138 0.01367-0.3046 0.00377-0.04014 0.01003-0.06021 0.01562-0.09375z" fill="url(#a)"/>
 <path transform="translate(0) scale(1) translate(2.3e-5 -.001528) scale(1) translate(.1965 .2583) scale(.9824)" d="m20.9 6.646c-0.1032-0.00223-0.2283 0.0077-0.3555 0.04297-0.08331 0.02311-0.1412 0.04884-0.1797 0.06641-0.03702 0.01689-0.08548 0.04301-0.1348 0.07227a0.7001 0.7001 0 0 0-0.0098 0.00586c-8e-3 0.00485-0.01331 0.00649-0.02148 0.01172-1.984 0.9466-3.955 1.928-5.916 2.91-0.4664 0.2333-0.9327 0.4666-1.398 0.6992a0.7001 0.7001 0 0 0-0.02734 0.01563 0.7001 0.7001 0 0 0-0.02344 0.01367c-1.083 0.5432-1.604 1.719-1.57 2.834-9.93e-4 0.5036-0.0018 1.009-0.0039 1.514-0.0074 1.803-0.0154 3.613 0.02344 5.422v2e-3c9.8e-5 0.0046-9.8e-5 0.0091 0 0.01367a0.7001 0.7001 0 0 0 0 0.02539c0.0047 0.08389 0.03889 0.1532 0.05859 0.2305 0.02037 0.07991 0.02794 0.1676 0.06055 0.2383v2e-3a0.7001 0.7001 0 0 0 0 2e-3c0.04733 0.102 0.1023 0.184 0.1562 0.2539 9.5e-5 2.08e-4 2e-3 0.0059 2e-3 0.0059 0.09358 0.1205 0.204 0.2223 0.3359 0.3047 0.03248 0.02032 0.07141 0.04365 0.1172 0.06641 1e-6 1e-6 0.0038-3.5e-5 0.0039 0 0.2865 0.1413 0.7508 0.1519 1.084-0.02734h4e-3v-2e-3h2e-3a0.7001 0.7001 0 0 0 0.0098-0.0039c2.028-0.9639 4.03-1.974 6.029-2.98 0.4462-0.2245 0.8934-0.4521 1.34-0.6758 0.972-0.4268 1.626-1.391 1.635-2.469a0.7001 0.7001 0 0 0 0-0.01172c5.1e-5 -0.0026 5.1e-5 -0.0052 0-0.0078 0.1104-2.398 0.06658-4.796 0.01953-7.176v-0.0039c0.0631-0.7622-0.5353-1.379-1.24-1.395zm-0.1582 1.488c0.04669 2.366 0.08872 4.721-0.01953 7.047a0.7001 0.7001 0 0 0 0 0.01953c-1.77e-4 0.0091-2.8e-5 0.01823 0 0.02734-0.0039 0.4855-0.3536 1.004-0.7988 1.199a0.7001 0.7001 0 0 0-0.01563 0.0059c-0.01899 0.0089-0.03814 0.01943-0.05664 0.0293-0.4481 0.2246-0.8923 0.4496-1.334 0.6719-1.945 0.9792-3.884 1.952-5.836 2.883-0.03353-1.717-0.03053-3.447-0.02344-5.182 0.0021-0.5068 0.0029-1.009 0.0039-1.512v-0.0098c7.3e-5 -0.0094 1.46e-4 -0.01992 0-0.0293a0.7001 0.7001 0 0 0 0-0.0098c-0.01937-0.6428 0.3222-1.317 0.8242-1.555a0.7001 0.7001 0 0 0 0.02344-0.01172c0.4686-0.234 0.9348-0.4683 1.4-0.7012a0.7001 0.7001 0 0 0 2e-3 -2e-3c1.94-0.972 3.881-1.94 5.83-2.871z" fill="url(#a)"/>
</svg>
