<svg version="1.1" viewBox="0 0 22 22" xmlns="http://www.w3.org/2000/svg">
 <defs>
  <linearGradient id="a" x1="4.831" x2="50.72" y1="13.93" y2="57.95" gradientTransform="scale(.9999 1)" gradientUnits="userSpaceOnUse">
   <stop stop-color="#feaa00" offset="0"/>
   <stop stop-color="#fd0575" offset=".5"/>
   <stop stop-color="#7b31fe" offset="1"/>
  </linearGradient>
 </defs>
 <path transform="translate(-.000155 8e-5) scale(1) translate(-.002655 .03694) scale(.3426) matrix(.9997 0 0 .9997 .004065 5e-6)" d="m31.98-5.002e-6c-4.141-4.624e-6 -7.479-0.005401-10.09 0.3458-2.68 0.3603-4.933 1.131-6.723 2.923-2.203 2.203-2.883 5.14-3.124 8.784-0.718 0.04891-1.399 0.1138-2.049 0.2012-2.685 0.3611-4.998 1.191-6.729 2.923-1.733 1.731-2.552 4.045-2.913 6.727-0.3611 2.685-0.3478 5.887-0.3478 10.1s-0.01318 7.417 0.3478 10.1c0.3611 2.685 1.182 4.995 2.913 6.727 2.154 2.154 5.029 2.865 8.78 3.118 0.0488 0.7369 0.1142 1.428 0.2012 2.075 0.3603 2.68 1.127 4.933 2.919 6.723 1.792 1.792 4.052 2.562 6.729 2.923 2.615 0.3515 5.956 0.3458 10.1 0.3458s7.483 0.0057 10.1-0.3458c0.8192-0.1101 1.599-0.2589 2.339-0.463l-0.379-2.278-5.267 1.756a1.501 1.501 0 0 0-2e-3 0c-1.1 0.3645-2.287-0.1168-2.874-0.93-0.4291-0.5947-0.5895-1.437-0.3732-2.21-1.073 9e-3 -2.249 0.0078-3.544 0.0078-4.272 0-7.253-0.0044-9.503-0.3067-2.184-0.2939-3.345-0.829-4.169-1.653-0.8218-0.8241-1.357-1.983-1.651-4.167-0.3024-2.249-0.3087-5.225-0.3087-9.497l-2e-3 -3.724h28.6l1.481-3.456c0.1737-0.4065 0.448-0.7525 0.7873-1.014h-36.07a2.233 2.233 0 0 0-2.233 2.233 2.233 2.233 0 0 0 2.233 2.235h0.7307v3.722c0 1.254 6.56e-4 2.434 0.0098 3.542-2.921-0.2304-4.439-0.7468-5.482-1.792-0.8844-0.8844-1.354-1.988-1.647-4.167s-0.3126-5.288-0.3126-9.499 0.01973-7.325 0.3126-9.505c0.293-2.179 0.7631-3.282 1.647-4.167 0.8844-0.8841 1.988-1.362 4.167-1.655s5.294-0.3048 9.505-0.3048h23.81c4.208 0 7.319 0.01181 9.499 0.3048 2.179 0.293 3.288 0.7705 4.173 1.655 0.8844 0.8844 1.354 1.988 1.647 4.167s0.3067 5.294 0.3067 9.505c0 1.934-0.0017 3.635-0.03321 5.121l1.737-0.7893a1.501 1.501 0 0 1 0.0039 0c0.9564-0.4335 2.058-0.1859 2.753 0.422 0.02273-1.436 0.01954-3.011 0.01954-4.759 0-4.212 0.01503-7.415-0.3458-10.1-0.3611-2.685-1.191-4.996-2.923-6.727-1.731-1.731-4.04-2.561-6.723-2.923-0.6577-0.08859-1.345-0.1541-2.073-0.2032-0.2405-3.644-0.9247-6.58-3.128-8.782-1.792-1.792-4.049-2.562-6.727-2.923-2.615-0.3515-5.95-0.3458-10.1-0.3458zm0.007815 4.466h4e-3c4.269 3.5e-6 7.245 0.00451 9.493 0.3067 2.184 0.2936 3.345 0.8252 4.169 1.649 0.9984 0.9984 1.547 2.453 1.79 5.492-1.097-0.0079-2.273-0.0059-3.538-0.0059h-23.81c-1.274 0-2.457-0.0023-3.56 0.0059 0.2422-3.039 0.7872-4.494 1.786-5.492 0.8241-0.8241 1.983-1.355 4.167-1.649 2.248-0.3023 5.23-0.3067 9.499-0.3067zm14.89 18.6a2.977 2.977 0 0 0-2.974 2.977 2.977 2.977 0 0 0 2.974 2.977 2.977 2.977 0 0 0 2.977-2.977 2.977 2.977 0 0 0-2.977-2.977zm-32.74 0.7463a2.233 2.233 0 0 0-2.233 2.233 2.233 2.233 0 0 0 2.233 2.233h8.928a2.233 2.233 0 0 0 2.233-2.233 2.233 2.233 0 0 0-2.233-2.233zm36.13 11.92c0.2462 0.1573 0.4634 0.3548 0.633 0.6056a1.501 1.501 0 0 1 0.0059 0.0078l2.393 3.593 1.268-0.5763a2.233 2.233 0 0 0 0.4904-1.397 2.233 2.233 0 0 0-2.233-2.233zm13.49 5.529-2.448 4.406 1.203 0.5998c0.5842-1.244 0.9397-2.645 1.145-4.165 0.03688-0.2742 0.0702-0.5546 0.09964-0.8401zm-40.69 1.895a2.233 2.233 0 0 0-2.231 2.227 2.233 2.233 0 0 0 2.231 2.233h14.86l-2.655-2.657a1.501 1.501 0 0 0-2e-3 0c-0.4952-0.4962-0.7304-1.16-0.7345-1.803zm0 7.45a2.233 2.233 0 0 0-2.231 2.231 2.233 2.233 0 0 0 2.231 2.233h11.91a2.233 2.233 0 0 0 1.194-0.3439l-0.3106-0.03907c-1.137-0.1392-1.999-1.059-2.192-2.034-0.134-0.6748 0.03715-1.448 0.4865-2.047z" fill="url(#a)"/>
 <path transform="translate(-.000155 8e-5) scale(1) translate(-.002655 .03694) scale(.3426)" d="m48.82 36.69q-0.07365-0.0023-0.1405 0.0045a1.05 1.05 0 0 0-0.8693 0.6333l-2.396 5.592-8.234-0.8229a1.053 1.053 0 0 0-0.847 1.791l4.421 4.425-5.106 2.915a1.05 1.05 0 0 0 0.3887 1.956l5.406 0.6774-4.31 5.751h-9.1e-4a1.052 1.052 0 0 0 1.173 1.628l6.933-2.311 0.6947 4.184c0.1368 0.8256 1.188 1.162 1.78 0.5701l3.908-3.906 6.492 4.056a1.05 1.05 0 0 0 1.207-0.06592 1.055 1.055 0 0 0 0.3474-1.159v-0.0018l-2.295-6.879 5.929-0.7424a1.05 1.05 0 0 0 0.8988-0.8366 1.048 1.048 0 0 0-0.506-1.117l-9.1e-4 -9.09e-4 -4.411-2.521 2.478-0.9902a1.05 1.05 0 0 0 0.6602-0.9334v-9.1e-4a1.05 1.05 0 0 0-0.582-0.9839l-2.615-1.304 3.966-7.138a1.05 1.05 0 0 0-1.353-1.465h-9.09e-4l-9.088 4.125-3.1-4.651a1.046 1.046 0 0 0-0.7865-0.4574 0.2273 0.2273 0 0 0-0.03819-0.02228zm0.1573 3.251 2.519 3.783 0.0041 0.0018a1.05 1.05 0 0 0 1.295 0.3719l0.01137 9.1e-4 7.002-3.179-2.952 5.315h-9.09e-4a1.056 1.056 0 0 0 0.4501 1.451l1.502 0.7493-2.323 0.9298h-0.0014c-0.7947 0.3201-0.8738 1.459-0.1305 1.886l9.09e-4 9.09e-4 3.561 2.036-4.069 0.5078c-0.652 0.08184-1.073 0.752-0.8657 1.375l1.775 5.329-4.719-2.952h-0.0091a1.048 1.048 0 0 0-1.278 0.1409l-0.01364 0.0068-3.055 3.054-0.561-3.383a1.055 1.055 0 0 0-1.367-0.8238l-4.91 1.638 3.382-4.513c0.4756-0.6338 0.07729-1.575-0.7093-1.673h-9.09e-4l-4.069-0.5092 3.562-2.034c0.5947-0.3401 0.7061-1.17 0.2223-1.655l-3.315-3.319 6.065 0.6074a1.055 1.055 0 0 0 1.071-0.6333z" fill="#f00" stroke-width=".4546"/>
 <path transform="translate(-.000155 8e-5) scale(1) translate(-.002655 .03694) scale(.3426)" d="m49.67 53.73c-0.3664 0-0.7361 0.12-1.018 0.371s-0.4697 0.6329-0.4697 1.113c0 0.4797 0.1882 0.8657 0.4697 1.116 0.2819 0.251 0.6515 0.3724 1.018 0.3724s0.7338-0.1209 1.016-0.3724c0.2819-0.2514 0.4678-0.6361 0.4678-1.116s-0.186-0.862-0.4678-1.113c-0.2819-0.2501-0.6492-0.371-1.016-0.371" fill="#f00" stroke-width=".4546"/>
 <path transform="translate(-.000155 8e-5) scale(1) translate(-.002655 .03694) scale(.3426)" d="m49.67 43.97c-0.2187 0-0.7056-9.09e-4 -1.138 0.311-0.4328 0.311-0.7815 0.9293-0.7815 2.045 0 0.8993 0.2201 2.526 0.5488 3.951 0.1641 0.7115 0.3533 1.368 0.5647 1.862 0.1059 0.2464 0.216 0.4515 0.3401 0.6074 0.1241 0.155 0.2746 0.2773 0.4669 0.2773s0.3442-0.1228 0.4678-0.2773c0.1241-0.155 0.2328-0.361 0.3383-0.6074 0.2119-0.4928 0.4019-1.151 0.5665-1.863 0.3283-1.424 0.5479-3.049 0.5479-3.948 0-1.115-0.3492-1.732-0.782-2.044-0.4333-0.3114-0.9198-0.311-1.139-0.311z" fill="#f00" stroke-width=".4546"/>
</svg>
