<svg version="1.1" viewBox="0 0 22 22" xmlns="http://www.w3.org/2000/svg">
 <defs>
  <linearGradient id="a" x1="1" x2="0" y2="1">
   <stop stop-color="#66fff6" offset="0"/>
   <stop stop-color="#00b2ff" offset="1"/>
  </linearGradient>
 </defs>
 <path transform="translate(6.6e-5 -.000164) scale(1) translate(-5.784 -5.784) scale(.5245) translate(.4923 .4923) scale(.9846)" d="m36.4 11.5c-1.375 0-2.499 1.126-2.499 2.501v27.2c0 1.375 1.124 2.499 2.499 2.499 1.037-2.64e-4 1.918-0.6528 2.293-1.567 1.419 0.9714 3.08 1.567 4.906 1.567 5.616 0 9.7-5.329 9.7-11.3 0-5.97-4.084-11.3-9.7-11.3-1.737 0-3.326 0.5376-4.699 1.424v-8.524c0-1.375-1.124-2.499-2.499-2.499v-0.001984zm-16 8.8v0.001984c-5.614 0-9.7 5.327-9.7 11.3 0 5.97 4.084 11.3 9.7 11.3 1.738 0 3.326-0.5377 4.699-1.424v8.522c0 1.375 1.124 2.501 2.499 2.501s2.499-1.126 2.499-2.501v-27.2c0-1.374-1.125-2.499-2.499-2.499-1.037-6.5e-5 -1.918 0.6526-2.293 1.567-1.419-0.9714-3.08-1.567-4.906-1.567zm0 5.001c2.301 0 4.699 2.537 4.699 6.3s-2.399 6.3-4.699 6.3-4.701-2.538-4.701-6.3 2.4-6.3 4.701-6.3zm23.2 0.7994c2.3 0 4.701 2.54 4.701 6.302s-2.4 6.298-4.701 6.298-4.699-2.535-4.699-6.298 2.399-6.302 4.699-6.302z" fill="url(#a)"/>
</svg>
