<svg xmlns="http://www.w3.org/2000/svg" viewBox="0 0 22 22"><defs><linearGradient id="a" x2="1" y1=".5" y2=".5" gradientTransform="matrix(12.52 0 0 16 4.739 3)" gradientUnits="userSpaceOnUse"><stop offset="0" stop-color="#ffe031"/><stop offset="1" stop-color="#fa0075"/></linearGradient></defs><path fill="url(#a)" d="M11 3a7.6 7.6 0 0 0-2.379.375A6.5 6.5 0 0 0 6.643 4.42q-.136.106-.264.219l.985.984q.062-.052.127-.101c.47-.362.995-.64 1.559-.825A6.2 6.2 0 0 1 11 4.391a6.2 6.2 0 0 1 1.952.306 5.2 5.2 0 0 1 1.559.825 3.8 3.8 0 0 1 1.008 1.166c.23.417.348.882.351 1.359a8.4 8.4 0 0 1-.138 1.564 5.5 5.5 0 0 1-.366 1.232q-.1.224-.23.431-.099.152-.225.277a.7.7 0 0 1-.172.123.2.2 0 0 1-.093.02c-.333.005-.657.1-.942.268l1.115 1.115c.18-.02.357-.07.52-.149q.303-.145.545-.385.242-.234.425-.521c.13-.202.239-.412.336-.631a7.2 7.2 0 0 0 .457-1.533q.164-.905.16-1.818a4.26 4.26 0 0 0-.525-2.025 5.2 5.2 0 0 0-1.379-1.596 6.6 6.6 0 0 0-1.978-1.045 7.6 7.6 0 0 0-2.379-.375zm.342 1.912a.52.52 0 0 0-.492.371.524.524 0 0 0 .35.652q.657.198 1.257.536c.317.177.61.397.867.654.202.198.369.432.49.686.095.198.144.413.147.632l-.004.106A.522.522 0 1 0 15 8.582l.004-.117v-.022a2.5 2.5 0 0 0-.25-1.082 3.4 3.4 0 0 0-.697-.976 5 5 0 0 0-1.092-.824 7.4 7.4 0 0 0-1.467-.627.5.5 0 0 0-.156-.022zm-5.65.453a5 5 0 0 0-.27.389L6.44 6.772l.043-.084q.095-.169.205-.326V6.36zM4.963 6.71a4.2 4.2 0 0 0-.224 1.332 10 10 0 0 0 .16 1.818c.094.525.248 1.04.457 1.533q.144.33.336.631c.121.191.266.365.426.522q.241.24.544.384c.213.101.443.155.672.158.119.004.23.045.32.118.182.146.328.327.432.529q.237.445.348.936c.09.393.13.791.13 1.195a.698.698 0 0 0 .697.7h3.478a.7.7 0 0 0 .697-.7q0-.326.037-.647l-1.178-1.178a5 5 0 0 0-.084.322q-.09.403-.132.811H9.923a7 7 0 0 0-.133-.81 5 5 0 0 0-.473-1.276 3.1 3.1 0 0 0-.785-.964 1.93 1.93 0 0 0-1.176-.428.2.2 0 0 1-.094-.02.7.7 0 0 1-.172-.123 1.7 1.7 0 0 1-.224-.277 3.4 3.4 0 0 1-.23-.432 5.5 5.5 0 0 1-.366-1.232 8.4 8.4 0 0 1-.139-1.564q0-.082.006-.164zm8.006 5.934q-.143.19-.258.4l1.041 1.042q.073-.18.163-.35.025-.047.054-.092zm-4.404 4.27v1.045c0 .576.47 1.043 1.045 1.043h2.781c.576 0 1.045-.467 1.045-1.043v-1.045h-1.393v.697H9.957v-.697z" style="isolation:isolate" transform="translate(-4.125 -4.125)scale(1.37493)"/><path fill="currentColor" d="M3.707 3 3 3.707l15.29 15.29.707-.707z" style="color:#da4453;-inkscape-stroke:none;paint-order:markers stroke fill" transform="translate(-4.125 -4.125)scale(1.37493)"/></svg>