<svg style="isolation:isolate" version="1.1" viewBox="0 0 22 22" xmlns="http://www.w3.org/2000/svg">
 <linearGradient id="a" transform="translate(-.000344 .001993) scale(.3436) translate(-.68 -.68) scale(1.362)" x1=".18" x2=".873" y1=".076" y2="1.002" gradientTransform="matrix(41.9 0 0 37.6 5.597 9.898)" gradientUnits="userSpaceOnUse">
  <stop stop-color="#00ffd8" offset="0"/>
  <stop stop-color="#00ffb8" offset=".839"/>
 </linearGradient>
 <path transform="translate(-.000344 .001993) scale(.3436) translate(-.68 -.68) scale(1.362)" d="m13.43 15.6 5.547 3.702-5.547 3.695v5.702l14.1-9.397-14.1-9.404zm31.13-2.944-3.952 2.63a18.8 18.8 0 0 1 2.192 8.714 18.8 18.8 0 0 1-18.8 18.8c-5.6-0.012-10.9-2.52-14.46-6.841l-3.938 2.621c4.308 5.427 10.95 8.92 18.4 8.92 12.96 0 23.5-10.54 23.5-23.5 0-4.114-1.074-7.977-2.94-11.34z" fill="url(#a)" fill-rule="evenodd"/>
 <linearGradient id="c" transform="translate(-.000344 .001993) scale(.3436) translate(-.68 -.68) scale(1.362)" x2=".907" y1=".5" y2=".92" gradientTransform="matrix(41.39 0 0 37.6 .5 .5)" gradientUnits="userSpaceOnUse">
  <stop stop-color="#00c4ff" offset="0"/>
  <stop stop-color="#0072ff" offset=".839"/>
 </linearGradient>
 <path transform="translate(-.000344 .001993) scale(.3436) translate(-.68 -.68) scale(1.362)" d="M34.58 38.1v-5.702l-5.546-3.695 5.546-3.701V19.3l-14.1 9.403zM24 .5C11.04.5.5 11.04.5 24c0 3.824.921 7.436 2.55 10.63l3.97-2.641A18.8 18.8 0 0 1 5.2 24 18.802 18.802 0 0 1 23.996 5.204a18.8 18.8 0 0 1 13.93 6.222l3.961-2.635C37.574 3.725 31.157.504 23.997.504z" fill="url(#c)" fill-rule="evenodd"/>
</svg>
