<svg version="1.1" viewBox="0 0 22 22" xmlns="http://www.w3.org/2000/svg">
 <defs>
  <linearGradient id="b" x1="3" x2="19" y1="11" y2="11" gradientUnits="userSpaceOnUse">
   <stop stop-color="#f7f206" offset="0"/>
   <stop stop-color="#ffbb24" offset="1"/>
  </linearGradient>
  <linearGradient id="a" x1="14" x2="19" y1="15" y2="15" gradientUnits="userSpaceOnUse">
   <stop stop-color="#5433ff" offset="0"/>
   <stop stop-color="#33ffe2" offset="1"/>
  </linearGradient>
 </defs>
 <g transform="translate(.00021 .00027) scale(1)" color="#fcfcfc">
  <path transform="translate(-4.125 -5.5) scale(1.375)" d="M16.5 12a1.5 1.5 0 0 0-1.5 1.5V15s-1 0-1 1v1c0 1 1 1 1 1h3s1 0 1-1v-1c0-1-1-1-1-1v-1.5a1.5 1.5 0 0 0-1.5-1.5m0 1a.5.5 0 0 1 .5.5V15h-1v-1.5a.5.5 0 0 1 .5-.5" fill="url(#a)" fill-rule="evenodd"/>
  <path transform="translate(-4.125 -5.5) scale(1.375)" d="M3 9v3.978C3 16 6 16 6 16h7v-1H6s-2 0-2-2V9s0-2 2-2h10c2 0 2 2 2 2v3h1V9s0-3-3-3H6C3 6 3 9 3 9" fill="url(#b)"/>
 </g>
</svg>
