<svg version="1.1" viewBox="0 0 22 22" xmlns="http://www.w3.org/2000/svg">
 <path transform="translate(-0) scale(1) translate(.000103) scale(1) translate(.001272) scale(.3437)" d="m20.52 0c-5.442 0-10.66 2.165-14.51 6.014s-6.014 9.071-6.014 14.51v22.95c0 5.442 2.164 10.66 6.014 14.51 3.849 3.849 9.071 6.014 14.51 6.014h22.95c5.442 0 10.66-2.164 14.51-6.014 3.849-3.849 6.014-9.071 6.014-14.51v-22.95c0-5.442-2.164-10.66-6.014-14.51-3.849-3.849-9.071-6.014-14.51-6.014zm0 6.621h22.95c3.688 0 7.225 1.465 9.834 4.074s4.072 6.144 4.072 9.832v22.95c0 3.688-1.463 7.223-4.072 9.832s-6.146 4.074-9.834 4.074h-22.95c-3.688 0-7.223-1.465-9.832-4.074s-4.074-6.144-4.074-9.832v-22.95c0-3.688 1.465-7.223 4.074-9.832s6.144-4.074 9.832-4.074z" fill="#f00"/>
 <path transform="translate(-0) scale(1) translate(.000103) scale(1)" d="m8.395 5.006a1.341 1.341 0 0 0-0.9882 0.4065l-0.3808 0.3948-0.3271-0.3948a1.339 1.339 0 0 0-0.9882-0.4042v0.00239a1.339 1.339 0 0 0-0.9345 2.273l0.3948 0.3808-0.3948 0.3785a1.316 1.316 0 0 0 0 1.871 1.316 1.316 0 0 0 1.871 0h0.0514l0.3785-0.3948 0.3831 0.3948a1.316 1.316 0 0 0 1.869 0 1.316 1.316 0 0 0 0-1.871l-0.3948-0.3785 0.3948-0.3808a1.341 1.341 0 0 0-0.9345-2.278zm7.894 0.0187a1.316 1.316 0 0 0-0.9345 0.3878l-0.3831 0.3972-0.3785-0.3972a1.322 1.322 0 0 0-1.869 1.871l0.3948 0.3808-0.3948 0.3808a1.316 1.316 0 0 0 0 1.871 1.316 1.316 0 0 0 1.869 0l0.3785-0.3972 0.3831 0.3972a1.316 1.316 0 0 0 1.869 0 1.316 1.316 0 0 0 0-1.871l-0.3948-0.3808 0.3948-0.3808a1.316 1.316 0 0 0 0-1.871 1.316 1.316 0 0 0-0.9345-0.3878zm-5.619 7.946a7.645 7.645 0 0 0-4.817 1.708h0.05608a1.316 1.316 0 0 0-0.1729 1.841 1.316 1.316 0 0 0 1.855 0.1705 4.947 4.947 0 0 1 6.212 0 1.316 1.316 0 0 0 1.855-0.1705 1.316 1.316 0 0 0-0.1729-1.841 7.645 7.645 0 0 0-4.815-1.708z" fill="#f00" stroke-width="1.316"/>
</svg>
