<svg xmlns="http://www.w3.org/2000/svg" viewBox="0 0 22 22"><defs><linearGradient id="a" y1="1"><stop offset="0" stop-color="#fd7900"/><stop offset="1" stop-color="#faff00"/></linearGradient></defs><path fill="url(#a)" d="M11.99 2.998a1 1 0 0 0-.383.074c-.192.076-.314.193-.35.225-.051.05-.094.1-.122.135a4 4 0 0 0-.311.457c-.207.343-.482.84-.771 1.375a169 169 0 0 0-1.607 3.074h-.002l-4.598.365c-1.775.14-2.496 2.339-1.144 3.488L6.17 15.14l-1.06 4.406c-.412 1.72 1.472 3.077 2.992 2.156l3.94-2.39c.593-.358.958-.995.958-1.69v-13.6c0-.053.002-.354-.217-.633A1.01 1.01 0 0 0 11.99 3zm-.992 1.025v.025z" transform="translate(2.316 -3.471)scale(1.15792)"/></svg>