<svg version="1.1" viewBox="0 0 22 22" xmlns="http://www.w3.org/2000/svg">
 <defs>
  <linearGradient id="a" x1="1" x2="0" y1=".5" y2=".5">
   <stop stop-color="#f5d" offset="0"/>
   <stop stop-color="#ffd42a" offset="1"/>
  </linearGradient>
 </defs>
 <path transform="translate(.000429 -.000275) scale(1.375) translate(-.3497 -.3476) scale(.3478)" d="m24.01 1c-1.797 0-3.582 0.9543-4.535 2.779l-4.682 8.963-9.613 1.881c-4.056 0.793-5.489 5.78-2.807 8.74l6.775 7.484-1.268 10.21c-0.495 3.985 3.527 7.288 7.342 5.398l8.738-4.33 0.2305 0.1367a2 2 0 1 0 2.064-3.426l-0.2461-0.1445v-33.21a1.998 1.998 0 0 0 0.7207-3.664c-0.775-0.485-1.691-0.8164-2.721-0.8164zm4.963 4.633a2 2 0 0 0-1.012 0.2188 2 2 0 0 0-0.8711 2.691 32 32 0 0 1 0.7129 1.49c0.344 0.7673 0.7513 1.484 1.223 2.15a2 2 0 0 0 2.789 0.4785c0.902-0.636 1.118-1.883 0.4805-2.785-0.3193-0.4493-0.6011-0.9425-0.8418-1.478-0.25-0.556-0.5158-1.123-0.8008-1.68a2 2 0 0 0-1.68-1.086zm6.738 7.09a2 2 0 0 0-0.7617 3.887 13 13 0 0 0 2.4 0.5703 28 28 0 0 1 1.607 0.2695 2 2 0 1 0 0.7871-3.92 32 32 0 0 0-1.838-0.3086 9 9 0 0 1-1.66-0.3945 2 2 0 0 0-0.5352-0.1035zm8.408 2.816a2 2 0 0 0-1.424 0.5703 2 2 0 0 0-0.03516 2.828 1.13 1.13 0 0 1 0.3223 0.5508c0.035 0.153 0.03878 0.3748-0.07422 0.7148a2.001 2.001 0 0 0 3.797 1.262c0.291-0.875 0.4107-1.852 0.1797-2.865a5.1 5.1 0 0 0-1.359-2.455 2 2 0 0 0-1.406-0.6055zm-2.502 7.613a2 2 0 0 0-1.432 0.543c-0.414 0.39-0.849 0.7762-1.291 1.158a11.5 11.5 0 0 0-1.644 1.746 2 2 0 0 0 0.3848 2.801 2 2 0 0 0 2.803-0.3828c0.304-0.4007 0.6609-0.7794 1.072-1.137 0.47-0.406 0.95-0.8334 1.416-1.273h2e-3a2 2 0 0 0 0.08594-2.826 2 2 0 0 0-1.396-0.6289zm-4.604 8.219a2 2 0 0 0-1.926 2.07 11.6 11.6 0 0 0 0.3379 2.371c0.148 0.599 0.2862 1.199 0.4062 1.789a2.001 2.001 0 0 0 3.924-0.791c-0.135-0.666-0.2893-1.326-0.4473-1.963-0.1307-0.5293-0.2053-1.047-0.2227-1.551a2 2 0 0 0-2.072-1.926zm-8.27 9.348a2 2 0 0 0-0.9512 3.732c0.42 0.24 0.8501 0.479 1.289 0.709a25 25 0 0 0 1.4 0.6816 2 2 0 1 0 1.631-3.652 21 21 0 0 1-1.174-0.5723 33 33 0 0 1-1.15-0.6328 2 2 0 0 0-1.045-0.2656zm9.051 0.1973a2 2 0 0 0-1.785 1.324c-0.115 0.321-0.25 0.4677-0.373 0.5527-0.1 0.069-0.239 0.1282-0.457 0.1582a2 2 0 1 0 0.5234 3.963c0.755-0.1 1.513-0.3521 2.203-0.8281 0.944-0.65 1.531-1.551 1.871-2.498a2 2 0 0 0-1.211-2.557 2 2 0 0 0-0.7715-0.1152z" fill="url(#a)"/>
</svg>
