<svg version="1.1" viewBox="0 0 22 22" xmlns="http://www.w3.org/2000/svg">
 <defs>
  <linearGradient id="a" x1="47.01" x2="1.005" y1="24" y2="24" gradientTransform="matrix(-.3478 0 0 .3478 16.35 -.3476)" gradientUnits="userSpaceOnUse">
   <stop stop-color="#f5d" offset="0"/>
   <stop stop-color="#ffd42a" offset="1"/>
  </linearGradient>
 </defs>
 <path transform="translate(.000429 -.000275) scale(1.375)" d="m7.998 2e-4c0.625 0 1.246 0.3319 1.577 0.9665l1.628 3.117 3.343 0.6542c1.411 0.2758 1.909 2.01 0.9763 3.04l-2.356 2.603 0.441 3.551c0.1722 1.386-1.227 2.535-2.554 1.877l-3.039-1.506-0.08017 0.04754a0.6956 0.6956 0 1 1-0.7179-1.192l0.08559-0.05026v-11.55a0.6949 0.6949 0 0 1-0.2507-1.274c0.2695-0.1687 0.5881-0.2839 0.9464-0.2839zm-1.726 1.611a0.6956 0.6956 0 0 1 0.352 0.0761 0.6956 0.6956 0 0 1 0.303 0.9359 11.13 11.13 0 0 0-0.2479 0.5182c-0.1196 0.2669-0.2613 0.5161-0.4254 0.7478a0.6956 0.6956 0 0 1-0.97 0.1664c-0.3137-0.2212-0.3888-0.6549-0.1671-0.9686 0.1111-0.1563 0.2091-0.3278 0.2928-0.514 0.08695-0.1934 0.1794-0.3906 0.2785-0.5843a0.6956 0.6956 0 0 1 0.5843-0.3777zm-2.343 2.466a0.6956 0.6956 0 0 1 0.2649 1.352 4.521 4.521 0 0 1-0.8347 0.1984 9.738 9.738 0 0 0-0.5589 0.09373 0.6956 0.6956 0 1 1-0.2738-1.363 11.13 11.13 0 0 1 0.6393-0.1073 3.13 3.13 0 0 0 0.5773-0.1372 0.6956 0.6956 0 0 1 0.1861-0.036zm-2.924 0.9794a0.6956 0.6956 0 0 1 0.4953 0.1984 0.6956 0.6956 0 0 1 0.01223 0.9836 0.393 0.393 0 0 0-0.1121 0.1916c-0.01217 0.05321-0.01349 0.1304 0.02581 0.2486a0.6959 0.6959 0 0 1-1.321 0.4389c-0.1012-0.3043-0.1428-0.6441-0.0625-0.9964a1.774 1.774 0 0 1 0.4727-0.8538 0.6956 0.6956 0 0 1 0.489-0.2106zm0.8702 2.648a0.6956 0.6956 0 0 1 0.498 0.1889c0.144 0.1356 0.2953 0.27 0.449 0.4028a4 4 0 0 1 0.5718 0.6073 0.6956 0.6956 0 0 1-0.1338 0.9742 0.6956 0.6956 0 0 1-0.9749-0.1331c-0.1057-0.1394-0.2299-0.2711-0.3728-0.3954-0.1635-0.1412-0.3304-0.2899-0.4925-0.4427h-6.956e-4a0.6956 0.6956 0 0 1-0.02989-0.9829 0.6956 0.6956 0 0 1 0.4855-0.2187zm1.601 2.859a0.6956 0.6956 0 0 1 0.6699 0.7199 4.034 4.034 0 0 1-0.1175 0.8246c-0.05147 0.2083-0.09954 0.417-0.1413 0.6222a0.6961 0.6961 0 0 1-1.365-0.2751c0.04695-0.2316 0.1006-0.4612 0.1556-0.6827 0.04546-0.1841 0.0714-0.3641 0.07746-0.5394a0.6956 0.6956 0 0 1 0.7206-0.6699zm2.876 3.251a0.6956 0.6956 0 0 1 0.3308 1.298c-0.1461 0.08347-0.2957 0.1666-0.4483 0.2466a8.695 8.695 0 0 1-0.4869 0.2371 0.6956 0.6956 0 1 1-0.5673-1.27 7.304 7.304 0 0 0 0.4083-0.199 11.48 11.48 0 0 0 0.4-0.2201 0.6956 0.6956 0 0 1 0.3635-0.09238zm-3.148 0.06862a0.6956 0.6956 0 0 1 0.6208 0.4605c0.04 0.1116 0.08695 0.1627 0.1297 0.1922 0.03478 0.024 0.08312 0.04459 0.1589 0.05502a0.6956 0.6956 0 1 1-0.182 1.378c-0.2626-0.03478-0.5262-0.1225-0.7662-0.288-0.3283-0.2261-0.5325-0.5394-0.6507-0.8688a0.6956 0.6956 0 0 1 0.4212-0.8893 0.6956 0.6956 0 0 1 0.2683-0.04007z" fill="url(#a)" stroke-width=".3478"/>
</svg>
