<svg version="1.1" viewBox="0 0 22 22" xmlns="http://www.w3.org/2000/svg">
 <defs>
  <linearGradient id="a" x2="0" y2="1">
   <stop stop-color="#00fffa" offset="0"/>
   <stop stop-color="#0078ff" offset="1"/>
  </linearGradient>
 </defs>
 <path transform="translate(0) scale(1) translate(-.00285 .000496)" d="m10.68 0.009766a5.006 5.006 0 0 0-1.842 0.4805h-0.00195l-6.4 3.072a3.626 3.626 0 0 0-2.055 3.264v0.7559a15.25 15.25 0 0 0 7.029 12.84l1.492 0.957a3.884 3.884 0 0 0 4.197 0l1.492-0.957a15.25 15.25 0 0 0 7.029-12.84v-0.7559c0-1.393-0.7978-2.661-2.055-3.264l-6.402-3.072a5.006 5.006 0 0 0-2.482-0.4805zm0.1465 2.27h0.0039a2.731 2.731 0 0 1 1.352 0.2637l6.4 3.068a1.35 1.35 0 0 1 0.7637 1.215v0.7559a12.97 12.97 0 0 1-5.978 10.92l-1.496 0.957a1.608 1.608 0 0 1-1.736 0l-1.496-0.957a12.97 12.97 0 0 1-5.978-10.92v-0.7559c0-0.5173 0.2999-0.9903 0.7656-1.215l6.4-3.068a2.731 2.731 0 0 1 1-0.2637z" fill="url(#a)"/>
 <path transform="translate(0) scale(1) translate(0) scale(1) translate(1e-6) scale(1) translate(-.004301 -2.5e-5) scale(1)" d="m11 4.108a1.478 1.478 0 0 0-1.166 0.5599l-4.885 6.162c-0.5054 0.6364-0.3981 1.574 0.2398 2.079 0.6364 0.5058 1.573 0.3967 2.079-0.2398h0.00113l3.731-4.709 3.732 4.709a1.476 1.476 0 0 0 0.9908 0.5486c0.04719 0.0054 0.09492 8e-3 0.1425 0.0091a1.47 1.47 0 0 0 0.9457-0.3178c0.6376-0.5048 0.7459-1.442 0.2409-2.079l-4.886-6.162a1.476 1.476 0 0 0-1.166-0.5599zm0.0012 6.434a1.191 1.191 0 0 0-0.9364 0.4501l-2.685 3.388c-0.4061 0.5109-0.3192 1.264 0.1923 1.67a1.181 1.181 0 0 0 0.7598 0.2556h0.00226a1.187 1.187 0 0 0 0.9092-0.4479l1.759-2.219 1.759 2.219c0.4049 0.5104 1.158 0.5976 1.67 0.1923 0.5117-0.4051 0.5994-1.158 0.1934-1.67l-0.0012-0.0012-2.685-3.388a1.193 1.193 0 0 0-0.9364-0.449z" fill="#0f0" stroke-width=".5791"/>
</svg>
