<svg xmlns="http://www.w3.org/2000/svg" viewBox="0 0 22 22"><path fill="red" d="M10.654 2.684a7 7 0 0 0-1.125.152 6.96 6.96 0 0 0-3.83 2.344c-.907 1.084-1.46 2.424-1.635 3.838a4.97 4.97 0 0 0-2.873 1.721A5.33 5.33 0 0 0 .007 14.38a5.3 5.3 0 0 0 1.549 3.494c.93.92 2.17 1.439 3.459 1.441h10.62a6.23 6.23 0 0 0 4.293-1.728 6.68 6.68 0 0 0 2.037-4.264 6.76 6.76 0 0 0-1.262-4.572 6.32 6.32 0 0 0-3.664-2.43c-.716-1.288-1.785-2.332-3.092-2.963a6.8 6.8 0 0 0-3.297-.674zm.408 2.117h.002q.463.007.924.105c.935.2 1.788.683 2.463 1.375a6.2 6.2 0 0 0-1.508.483h-.002a6.4 6.4 0 0 0-2.06 1.602 1.082 1.082 0 0 0-.174 1.164q.087.192.244.338a1.035 1.035 0 0 0 1.184.148c.12-.065.225-.154.31-.258l.004-.004a4.26 4.26 0 0 1 1.736-1.232V8.52a4.1 4.1 0 0 1 2.088-.216c.703.11 1.37.4 1.941.85a4.43 4.43 0 0 1 1.32 1.724c.296.683.423 1.434.37 2.182a4.6 4.6 0 0 1-.676 2.102 4.35 4.35 0 0 1-1.55 1.496 4.13 4.13 0 0 1-2.011.54H5.017a2.87 2.87 0 0 1-2.008-.82 3.15 3.15 0 0 1-.938-2.054 3.18 3.18 0 0 1 .668-2.168 2.92 2.92 0 0 1 1.383-.973c.123.767.33 1.515.682 2.205l.002.004a1.06 1.06 0 0 0 .613.52 1.02 1.02 0 0 0 1.117-.352 1.07 1.07 0 0 0 .223-.766 1.1 1.1 0 0 0-.113-.388A5.38 5.38 0 0 1 6.23 8.61a5.15 5.15 0 0 1 2.186-3.05 4.77 4.77 0 0 1 2.646-.76z"/><g fill="red"><path d="m8.547 10.478-1.8.021a3.05 3.05 0 0 0-2.94 2.395l-1.821.023a.716.716 0 1 0 .02 1.434l1.821-.024a3.05 3.05 0 0 0 2.998 2.317l1.801-.023a.536.536 0 0 0 .53-.543l-.004-.299 1.492-.018a.717.717 0 0 0-.02-1.433l-1.49.02-.021-1.61 1.492-.02a.717.717 0 0 0-.02-1.433l-1.49.02-.004-.297c-.002-.143-.06-.28-.162-.379s-.24-.152-.383-.15z"/><path d="m14.58 10.558-1.083.014a1.26 1.26 0 0 0-1.238 1.271l.046 3.635a1.25 1.25 0 0 0 .79 1.149c.152.06.315.091.48.09l1.084-.014a3.05 3.05 0 0 0 1.887-.684 3.05 3.05 0 0 0 1.051-1.709l1.822-.025a.72.72 0 0 0 .496-.221h.002a.714.714 0 0 0-.014-1.004.72.72 0 0 0-.502-.209l-1.822.024a3.05 3.05 0 0 0-2.998-2.317z" opacity=".4"/></g></svg>