<svg version="1.1" viewBox="0 0 22 22" xmlns="http://www.w3.org/2000/svg">
 <path transform="translate(-.000296 .00175) scale(1) translate(-4.4e-5 8e-4) scale(1)" d="m9.166 2.443c-3.376 0-6.111 2.735-6.111 6.111 0 0.1871 0.01207 0.3733 0.02734 0.5566-1.826 0.8975-3.082 2.774-3.082 4.943 0 3.036 2.464 5.498 5.5 5.498h11.61c2.7 0 4.889-2.187 4.889-4.887 0-1.906-1.089-3.556-2.678-4.361 0.1528-0.4545 0.2324-0.9412 0.2324-1.445 0-2.532-2.05-4.582-4.582-4.582-0.4392 0-0.8667 0.0613-1.272 0.1797-1.119-1.234-2.734-2.014-4.533-2.014zm0 1.834 0.00391 0.00391c1.436 0 2.711 0.7066 3.486 1.799 0.2559 0.3628 0.7377 0.4878 1.139 0.2969 0.3552-0.168 0.7519-0.2617 1.176-0.2617 1.52 0 2.75 1.228 2.75 2.748 0 0.5385-0.1526 1.039-0.4199 1.463-0.1566 0.2482-0.1869 0.5589-0.07617 0.8301s0.3425 0.4724 0.6289 0.5449c1.329 0.3322 2.31 1.536 2.31 2.965 0 1.688-1.367 3.055-3.055 3.055h-11.61c-2.024 0-3.666-1.642-3.666-3.666 0-1.631 1.065-3.019 2.543-3.492 0.4506-0.1451 0.7184-0.6102 0.6152-1.072-0.06874-0.3017-0.1035-0.6148-0.1035-0.9356 0-2.364 1.913-4.277 4.277-4.277z" fill="#f00"/>
 <path transform="translate(-.000296 .00175) scale(1) translate(-4.4e-5 8e-4) scale(1)" d="m10.99 14.06a1.123 1.123 0 0 0 0 2.246 1.123 1.123 0 0 0 0-2.246z" fill="#f00"/>
 <path transform="translate(-.000296 .00175) scale(1) translate(-4.4e-5 8e-4) scale(1)" d="m10.87 7.336a1.923 1.923 0 0 0-1.791 1.918c0 1.129 0.637 2.737 1.014 3.588 0.1587 0.359 0.5166 0.5801 0.9102 0.5801s0.7516-0.2212 0.9102-0.5801c0.3764-0.8509 1.014-2.458 1.014-3.588a1.923 1.923 0 0 0-2.055-1.918z" fill="#f00"/>
</svg>
