<svg version="1.1" viewBox="0 0 22 22" xmlns="http://www.w3.org/2000/svg">
 <defs>
  <linearGradient id="a" x1="1" x2="0" y1=".5" y2=".5">
   <stop stop-color="#01ff4d" offset="0"/>
   <stop stop-color="#2fff00" offset="1"/>
  </linearGradient>
 </defs>
 <path transform="translate(-.000196 .00069) scale(1) translate(.001856 .00085) scale(.9999)" d="m9.164 2.445c-3.376 0-6.111 2.735-6.111 6.111 0 0.1871 0.01207 0.3733 0.02734 0.5566-1.826 0.8975-3.082 2.774-3.082 4.943 0 3.036 2.464 5.498 5.5 5.498h11.61c2.7 0 4.891-2.187 4.891-4.887 0-1.906-1.089-3.556-2.678-4.361 0.1528-0.4545 0.2305-0.9421 0.2305-1.445 0-2.532-2.048-4.582-4.58-4.582-0.4392 0-0.868 0.06127-1.273 0.1797-1.119-1.234-2.734-2.014-4.533-2.014zm0 1.834 0.00391 0.00391c1.436 0 2.711 0.706 3.486 1.799 0.2559 0.3628 0.7368 0.4878 1.139 0.2969 0.3552-0.168 0.7513-0.2617 1.176-0.2617 1.52 0 2.75 1.228 2.75 2.748 0 0.5385-0.1526 1.041-0.4199 1.465-0.1566 0.2482-0.1869 0.5589-0.07617 0.8301s0.3425 0.4724 0.6289 0.5449c1.329 0.3322 2.31 1.538 2.31 2.967 0 1.688-1.367 3.057-3.055 3.057h-11.61c-2.024 0-3.666-1.642-3.666-3.666 0-1.631 1.065-3.019 2.543-3.492 0.4506-0.1451 0.7184-0.6111 0.6152-1.072-0.06874-0.3017-0.1035-0.6148-0.1035-0.9356 0-2.364 1.913-4.277 4.277-4.277z" fill="url(#a)"/>
 <path transform="translate(-.000196 .00069) scale(1) translate(.001856 .00085) scale(.9999)" d="m13.57 9.711a0.47 0.47 0 0 0-0.3418 0.1367l-0.2129 0.2109 0.0039 0.0039-1.926 1.896a0.34 0.34 0 0 0 0 0.4883l1.027 1.01a0.355 0.355 0 0 0 0.4961 0l1.932-1.898 1.272-1.217a0.344 0.344 0 0 0-0.2383-0.5937zm-4.611 2.141-2.012 0.03711a0.343 0.343 0 0 0-0.2363 0.5898l1.27 1.217 1.934 1.902a0.355 0.355 0 0 0 0.4961 0l1.025-1.012a0.34 0.34 0 0 0 0-0.4863l-1.926-1.896 0.00391-0.0059-0.2148-0.2109a0.47 0.47 0 0 0-0.3398-0.1347z" fill="url(#a)"/>
</svg>
