<svg version="1.1" viewBox="0 0 22 22" xmlns="http://www.w3.org/2000/svg" xmlns:xlink="http://www.w3.org/1999/xlink">
 <defs>
  <linearGradient id="b" y1="1">
   <stop stop-color="#6203ff" offset="0"/>
   <stop stop-color="#e901ff" offset="1"/>
  </linearGradient>
  <linearGradient id="e" x1="5.285" x2="12.62" y1="22" y2="14.67" gradientTransform="matrix(.9999 0 0 1 -2.613 -8.089)" gradientUnits="userSpaceOnUse" xlink:href="#b"/>
  <linearGradient id="g" x1="5.285" x2="12.62" y1="22" y2="14.67" gradientTransform="matrix(.9999 0 0 1 4.717 -11)" gradientUnits="userSpaceOnUse" xlink:href="#b"/>
  <linearGradient id="f" x1="5.285" x2="12.62" y1="22" y2="14.67" gradientTransform="matrix(.9999 0 0 1 -.8847 -.3529)" gradientUnits="userSpaceOnUse" xlink:href="#b"/>
 </defs>
 <path transform="translate(0) scale(1) matrix(1.2 0 0 1.2 -3.073 -4.402)" d="m5.62 14.32a1.223 1.223 0 0 0 0 2.445h1.937l-2.802 2.802a1.222 1.222 0 0 0 0.8647 2.084h4.886a1.222 1.222 0 0 0 0-2.443h-1.937l2.802-2.802a1.222 1.222 0 0 0-0.8647-2.087z" fill="url(#f)" stroke-width="1.156"/>
 <path transform="translate(0) scale(1) matrix(1.2 0 0 1.2 -4.539 -4.403)" d="m17.73 11.61c-1.461 0-2.656 1.195-2.656 2.656v0.7843c-0.7714 0.2679-1.374 0.9141-1.486 1.749-0.06905 0.5129-0.1287 1.054-0.1287 1.62 0 0.5657 0.05964 1.108 0.1287 1.622 0.1403 1.042 1.005 1.862 2.067 1.912 0.6626 0.03045 1.336 0.04693 2.076 0.04693s1.413-0.01648 2.076-0.04693c1.061-0.04877 1.926-0.8687 2.067-1.912 0.06905-0.5129 0.129-1.055 0.129-1.622s-0.05994-1.108-0.129-1.62c-0.1124-0.8349-0.715-1.481-1.486-1.749v-0.7843c0-1.461-1.195-2.656-2.656-2.656zm0 1.158c0.8355 0 1.498 0.6625 1.498 1.498v0.6032c-0.482-0.01575-0.9683-0.02786-1.498-0.02786-0.5294 0-1.016 0.01211-1.498 0.02786v-0.6032c0-0.8355 0.6628-1.498 1.498-1.498zm0 3.231c0.7232 0 1.378 0.01546 2.023 0.04511 0.4918 0.0226 0.9042 0.4101 0.9718 0.9096 0.06634 0.493 0.119 0.9829 0.119 1.466s-0.05267 0.9728-0.119 1.466c-0.06725 0.4994-0.48 0.888-0.9718 0.9105-0.6449 0.02964-1.299 0.04512-2.023 0.04512s-1.378-0.01547-2.023-0.04512c-0.4918-0.0226-0.9042-0.411-0.9718-0.9105-0.06637-0.493-0.119-0.9823-0.119-1.466s0.05262-0.9735 0.119-1.466c0.06725-0.4994 0.48-0.8871 0.9718-0.9096 0.6449-0.02966 1.3-0.04511 2.023-0.04511z" fill="#FDFF00" stroke-width=".3283"/>
 <path transform="translate(0) scale(1) matrix(1.2 0 0 1.2 -4.539 -4.403)" d="m17.73 17.12a0.774 0.774 0 0 0-0.5194 1.355v0.7225a0.5195 0.5195 0 0 0 1.039 0v-0.7225a0.774 0.774 0 0 0-0.5194-1.355z" fill="#FDFF00" stroke-width="1.1"/>
 <path transform="translate(0) scale(1) matrix(1.2 0 0 1.2 -3.073 -4.402)" d="m3.892 6.581a1.223 1.223 0 0 0 0 2.445h1.937l-2.802 2.802a1.222 1.222 0 0 0 0.8647 2.084h4.886a1.222 1.222 0 0 0 0-2.443h-1.937l2.802-2.802a1.222 1.222 0 0 0-0.8647-2.087z" fill="url(#e)" stroke-width="1.156"/>
 <path transform="translate(0) scale(1) matrix(1.2 0 0 1.2 -3.073 -4.402)" d="m11.22 3.669a1.223 1.223 0 0 0 0 2.445h1.937l-2.802 2.802a1.222 1.222 0 0 0 0.8647 2.084h4.886a1.222 1.222 0 0 0 0-2.443h-1.937l2.802-2.802a1.222 1.222 0 0 0-0.8647-2.087z" fill="url(#g)" stroke-width="1.156"/>
</svg>
