<svg xmlns="http://www.w3.org/2000/svg" fill="none" viewBox="0 0 22 22"><defs><linearGradient id="a" x1="20.9" x2="3.9" y1="1.321" y2="20.26" gradientUnits="userSpaceOnUse"><stop offset="0" stop-color="#d800bd"/><stop offset=".408" stop-color="#f92d7a"/><stop offset=".59" stop-color="#ff4a52"/><stop offset="1" stop-color="#ffb243"/></linearGradient><linearGradient id="b" x1="16.66" x2="14.51" y1="19.27" y2="25.48" gradientUnits="userSpaceOnUse"><stop offset="0" stop-color="#d800bd"/><stop offset=".408" stop-color="#f92d7a"/><stop offset=".59" stop-color="#ff4a52"/><stop offset="1" stop-color="#ffb243"/></linearGradient><linearGradient id="d" x1="21.44" x2="14.13" y1="1.138" y2="8.825" gradientUnits="userSpaceOnUse"><stop offset="0" stop-color="#d800bd"/><stop offset=".408" stop-color="#f92d7a"/><stop offset=".59" stop-color="#ff4a52"/><stop offset="1" stop-color="#ffb243"/></linearGradient></defs><g transform="translate(-.9 -1)scale(.99995)"><path fill="url(#a)" d="M19.33 8.7v.774c0 .93.264 1.838.761 2.612l1.22 1.895c1.111 1.732.262 4.084-1.673 4.631a28.4 28.4 0 0 1-15.47 0c-1.935-.546-2.784-2.9-1.672-4.63l1.22-1.896c.498-.78.763-1.686.761-2.612V8.7c0-4.253 3.324-7.7 7.424-7.7s7.425 3.448 7.425 7.7z" opacity=".4"/><path fill="url(#b)" d="M6.668 19.2a5.502 5.502 0 0 0 10.464 0 28.3 28.3 0 0 1-10.46 0z"/><circle cx="17.8" cy="5" r="4" fill="url(#d)"/></g></svg>