<svg version="1.1" viewBox="0 0 22 22" xmlns="http://www.w3.org/2000/svg">
 <path transform="translate(-8.2e-5 .002063) scale(.3438) translate(-.001502 3.9e-5) scale(1)" d="m31.77 0c-7.842 0.04132-15.39 2.969-21.22 8.211-5.827 5.255-9.529 12.46-10.39 20.26-0.1662 1.496 0.9116 2.845 2.408 3.01 1.496 0.1648 2.842-0.9168 3.008-2.412 0.708-6.468 3.786-12.46 8.619-16.81 4.834-4.357 11.1-6.779 17.6-6.82 1.502-0.008168 2.718-1.232 2.711-2.734-0.00817-1.504-1.237-2.719-2.738-2.711h-2e-3zm13.74 3.297c-1.033 0.01464-2.025 0.579-2.539 1.557-0.7475 1.423-0.1993 3.186 1.223 3.934l0.0059 0.00391c4.966 2.621 8.958 6.741 11.41 11.8 0.7067 1.448 2.453 2.05 3.9 1.346 1.446-0.7026 2.047-2.446 1.34-3.893-2.993-6.164-7.885-11.22-13.94-14.41-0.4447-0.2336-0.9225-0.3406-1.393-0.334h-0.0078zm15.56 28.28c-1.378 0.03004-2.538 1.106-2.65 2.516-0.5174 6.645-3.538 12.87-8.44 17.4s-11.33 7.055-18 7.055l-0.8867-0.01367c-1.504-0.02314-2.742 1.18-2.764 2.684-0.02314 1.504 1.18 2.738 2.684 2.762l0.8984 0.01367h0.04102c8.047 0 15.8-3.034 21.71-8.494 5.908-5.46 9.56-12.97 10.19-20.98 0.1117-1.496-1.01-2.81-2.506-2.93-0.09352-0.0075-0.1856-0.0098-0.2773-0.0078zm-56.36 8.195-0.00195 2e-3 -0.00391 0.0039c-0.3541-0.01168-0.7171 0.04652-1.068 0.1816-1.407 0.5405-2.106 2.123-1.564 3.527 2.6 6.713 7.38 12.37 13.58 16.04 1.292 0.7666 2.965 0.339 3.73-0.9531 0.7658-1.292 0.339-2.967-0.9531-3.732-5.146-3.05-9.11-7.733-11.26-13.32-0.4065-1.054-1.394-1.713-2.457-1.748z" fill="#f00"/>
 <path transform="translate(-8.2e-5 .002063) scale(.3438) translate(-.001502 3.9e-5)" d="m23.34 19.32c-0.4572-0.02254-0.9119 0.02617-1.359 0.1289-0.8953 0.2056-1.762 0.6272-2.543 1.125-1.564 0.9956-3.22 2.429-5.418 4.301-1.406 1.196-2.506 2.111-3.394 3.096-0.8884 0.9852-1.622 2.215-1.715 3.629-0.01727 0.264-0.01727 0.5289 0 0.793 0.09249 1.414 0.8272 2.643 1.715 3.629 0.8875 0.9861 1.988 1.903 3.394 3.098 2.199 1.87 3.856 3.303 5.418 4.301 1.562 0.9945 3.456 1.678 5.268 0.9551 0.3133-0.1253 0.6119-0.2765 0.8926-0.4531 1.278-0.8045 1.962-2.198 2.273-3.559 0.1677-0.7313 0.1679-1.697 0.2285-2.547h7.887c0.06069 0.8502 0.06083 1.816 0.2285 2.547 0.3124 1.362 0.9958 2.756 2.273 3.559 0.2815 0.1772 0.5799 0.3279 0.8926 0.4531 1.811 0.7236 3.706 0.03938 5.268-0.9551 1.564-0.9956 3.22-2.429 5.418-4.301 1.406-1.196 2.506-2.113 3.394-3.098 0.8875-0.9855 1.622-2.215 1.715-3.629 0.017-0.2627 0.017-0.5301 0-0.793-0.09249-1.414-0.8272-2.643-1.715-3.629-0.8875-0.9855-1.988-1.901-3.394-3.096-2.199-1.87-3.856-3.303-5.418-4.301-1.564-0.9956-3.462-1.684-5.273-0.957-0.3085 0.1238-0.6048 0.2778-0.8867 0.4551-1.241 0.7815-1.927 2.126-2.246 3.441-0.1649 0.6806-0.1616 1.571-0.2266 2.35h-7.943c-0.06509-0.7791-0.06363-1.669-0.2285-2.35-0.319-1.316-1.003-2.66-2.244-3.441-0.2827-0.1781-0.5762-0.3305-0.8867-0.4551-0.4531-0.1818-0.9137-0.2744-1.371-0.2969zm-0.3574 4.449c0.0143-0.0017 0.03277-5.48e-4 0.04102 0h0.01172l0.0059 0.0059c0.05826 0.02339 0.1136 0.05244 0.1699 0.08789 0.0017 0.0011 0.01325 0.0094 0.01758 0.01172l0.0059 0.0059c0.04128 0.03721 0.1298 0.1674 0.2559 0.6875 0.168 0.6934 0.2797 1.92 0.3164 3.588a2.24 2.24 0 0 0 2.238 2.186h11.99a2.24 2.24 0 0 0 2.238-2.186c0.0366-1.669 0.1483-2.895 0.3164-3.588 0.126-0.52 0.2204-0.6564 0.2617-0.6934l0.0059-0.0059c5e-3 -0.0023 0.01002-0.0049 0.01172-0.0059 0.05539-0.03492 0.1114-0.06442 0.1699-0.08789l0.0059-0.0059h0.01758c0.06889-0.0046 0.3235 0.043 1.174 0.584 1.088 0.6925 2.728 2.062 4.926 3.93 1.406 1.196 2.419 2.078 2.963 2.682 0.5444 0.6047 0.5616 0.757 0.5723 0.9219 5e-3 0.07056 5e-3 0.1403 0 0.2109-0.0107 0.165-0.02792 0.3171-0.5723 0.9219-0.5447 0.6047-1.557 1.487-2.963 2.682-2.199 1.87-3.839 3.238-4.926 3.93-0.8496 0.5412-1.112 0.5885-1.18 0.584h-0.01172l-0.0059-0.0059c-0.0557-0.0224-0.1108-0.05188-0.168-0.08789-2e-3 -0.0011-0.01278-0.0094-0.01758-0.01172-0.0387-0.02837-0.1362-0.1453-0.2754-0.752-0.1712-0.7466-0.2772-2.054-0.3086-3.826a2.24 2.24 0 0 0-2.24-2.205h-11.98a2.24 2.24 0 0 0-2.24 2.205c-0.03139 1.773-0.1375 3.079-0.3086 3.826-0.1391 0.6065-0.2405 0.7297-0.2793 0.7578-0.0046 0.0026-0.0099 0.0048-0.01172 0.0059-0.05808 0.03655-0.1144 0.06571-0.1699 0.08789l-0.0059 0.0059h-0.01758c-0.06886 0.0045-0.3216-0.04306-1.172-0.584-1.088-0.6925-2.73-2.062-4.928-3.93-1.406-1.196-2.419-2.08-2.963-2.684-0.5447-0.6044-0.5616-0.755-0.5723-0.9199-0.0045-0.06925-0.0045-0.1417 0-0.2109 0.01081-0.165 0.02781-0.3171 0.5723-0.9219s1.557-1.487 2.963-2.682c2.199-1.87 3.841-3.238 4.928-3.93 0.7478-0.476 1.032-0.5714 1.137-0.584z" fill="#f00"/>
</svg>
