<svg version="1.1" viewBox="0 0 22 22" xmlns="http://www.w3.org/2000/svg">
 <defs>
  <linearGradient id="a" x1="1" x2="0" y2="1">
   <stop stop-color="#00ff7f" offset="0"/>
   <stop stop-color="#5fff00" offset="1"/>
  </linearGradient>
 </defs>
 <path transform="translate(-.00042 .000859) scale(1) translate(.2324 .2459) scale(.9777)" d="m11.17-0.248c-0.1676-0.006343-0.3384-0.003903-0.5098 0.007813-2.49 0.1702-4.428 2.245-4.428 4.74v7.461c-3.005 3.569-1.185 9.103 3.406 10.11 0.4386 0.09995 0.8864 0.1587 1.336 0.1758a0.25 0.25 0 0 0 0.0078 0c2.698 0.01256 4.783-1.585 5.728-3.686 0.931-2.069 0.7464-4.636-0.9785-6.635v-7.43c2.89e-4 -2.576-2.048-4.653-4.562-4.748zm-0.1191 2.5c1.195 0.0435 2.162 1.022 2.162 2.248v7.94a0.25 0.25 0 0 0 0 2e-3c6.9e-4 0.3341 0.1368 0.6544 0.375 0.8887 1.612 1.557 1.497 4.146-0.2188 5.572a0.25 0.25 0 0 0-0.04883-0.02148c-0.9508 0.8151-1.946 1.063-2.867 0.9473-0.9211-0.1162-1.772-0.6062-2.393-1.307-0.6211-0.7004-1.007-1.605-1.012-2.533-0.004866-0.9284 0.3602-1.886 1.283-2.732a0.25 0.25 0 0 0 0.00586-0.0059c0.2391-0.2339 0.3736-0.5542 0.375-0.8887a0.25 0.25 0 0 0 0-2e-3v-7.859c3.55e-5 -1.185 0.9136-2.163 2.096-2.244 0.08151-0.00562 0.1625-0.00681 0.2422-0.00391z" fill="url(#a)" opacity=".4"/>
 <path transform="translate(-.00042 .000859) scale(1) translate(.2324 .2459) scale(.9777)" d="m11.03 8.25c-0.04399-0.00171-0.08985-0.00111-0.1348 0.00195a0.25 0.25 0 0 0-2e-3 0c-0.6533 0.04481-1.164 0.5931-1.164 1.248v4.688c-0.6012 0.4152-0.9959 1.072-1 1.81a0.25 0.25 0 0 0 0 2e-3c0 0.7292 0.2824 1.308 0.709 1.688 0.4266 0.3792 0.9855 0.5625 1.541 0.5625 0.5556 0 1.114-0.1834 1.541-0.5625s0.709-0.9583 0.709-1.688a0.25 0.25 0 0 0 0-2e-3c-0.0041-0.7381-0.3988-1.395-1-1.81v-4.688c2.12e-4 -0.6753-0.5394-1.224-1.199-1.25z" fill="url(#a)"/>
</svg>
