<svg xmlns="http://www.w3.org/2000/svg" viewBox="0 0 22 22"><defs><linearGradient id="a" x2="0" y1="1"><stop offset="0" stop-color="#ff001e"/><stop offset="1" stop-color="#ff004b"/></linearGradient></defs><path fill="url(#a)" d="M11.09.133v.004a3.6 3.6 0 0 0-1.52.275q-.468.195-.898.527H8.67L1.621 6.431l-.004.002s-.096.062-.244.192a3 3 0 0 0-.254.25C.655 7.38.035 8.345.035 9.89c-.08 3.41 0 3.783 0 5.674 0 .988.232 1.925.643 2.76v.002H.68a6.3 6.3 0 0 0 1.379 1.851 6.28 6.28 0 0 0 4.28 1.69c.817 0 1.67-.199 2.41-.498a1.6 1.6 0 0 0 .39-.17l.017-.007v-.002a1.59 1.59 0 0 0 .754-1.35 1.6 1.6 0 0 0-.217-.8 2 2 0 0 0-.113-.169l-.002-.002-.02-.023a2 2 0 0 0-.115-.131 1.6 1.6 0 0 0-.295-.23l-.033-.024-.004-.002a2 2 0 0 0-.184-.09l-.002-.002a2 2 0 0 0-.195-.065 2 2 0 0 0-.203-.04 2 2 0 0 0-.21-.016 1.6 1.6 0 0 0-.792.215h-.002l-.002-.002a3.6 3.6 0 0 1-1.186.224c-.437 0-.85-.084-1.225-.238h-.002v-.002a3 3 0 0 1-.271-.127h-.002v-.002a3 3 0 0 1-.715-.531 3.1 3.1 0 0 1-.9-2.215V9.89h-.002v-.002h.002v-.404s.003-.26.195-.409S6.77 6.432 6.77 6.432l4.094-3.19c.068-.053.124-.075.181-.07q.017.002.034.006h.002v.002h.006l.002.002q.02.006.043.017l.006.004.005.004.043.028.02.015.002.002 4.057 3.18h.002c.002.002 3.113 2.494 3.305 2.643l.004.002.031.027.002.002.027.03.002.002.026.029h.002v.002a.6.6 0 0 1 .058.1l.002.001a.7.7 0 0 1 .057.213v.407h.002v5.678c0 .877-.34 1.657-.9 2.217a3.04 3.04 0 0 1-1.276.763h-.002q-.444.136-.94.137-.476-.001-.907-.127a3.06 3.06 0 0 1-1.825-1.461 3.2 3.2 0 0 1-.382-1.529v-3.67l1.846 1.416.002.002q.06.045.123.084v.002h.002a1.46 1.46 0 0 0 1.107.182 1.5 1.5 0 0 0 .27-.09h.001q.13-.059.248-.143h.002q.18-.125.32-.308v-.002q.047-.06.087-.123v-.002a2 2 0 0 0 .072-.13v-.001a1.5 1.5 0 0 0 .102-.272v-.002q.017-.069.029-.138v-.002a1.5 1.5 0 0 0 .017-.284v-.002l-.002-.006v-.002a1.5 1.5 0 0 0-.03-.25l-.005-.021a2 2 0 0 0-.039-.135v-.002l-.013-.037a1.5 1.5 0 0 0-.102-.223v-.002h-.002a1.5 1.5 0 0 0-.387-.443L13.78 9.109l-1.856-1.424h-.002l-.043-.03a1.5 1.5 0 0 0-.603-.253h-.002V7.4h-.008a2 2 0 0 0-.188-.02l-.027-.002h-.055l-.027.002h-.021a1.5 1.5 0 0 0-.848.305h-.002l-4.28 3.281a1.475 1.475 0 0 0-.359 1.949v.002h.002q.039.063.084.123v.002h.002q.042.054.088.103.045.051.094.096h.002q.05.045.101.084h.002q.052.04.106.074h.002q.054.036.111.065a1.5 1.5 0 0 0 .363.127 1.49 1.49 0 0 0 1.207-.276l1.746-1.34v3.592c0 1.133.304 2.2.834 3.121.291.506.65.967 1.064 1.373a6.27 6.27 0 0 0 4.4 1.807c3.462 0 6.295-2.838 6.295-6.3 0-1.893.08-2.265 0-5.675h-.002v-.002h.006c.064-2.522-1.596-3.459-1.596-3.459L13.513 1.06a4.5 4.5 0 0 0-1.008-.601h-.002a4 4 0 0 0-1.416-.324z" transform="translate(0 -.002)"/></svg>