<svg version="1.1" viewBox="0 0 22 22" xmlns="http://www.w3.org/2000/svg">
 <defs>
  <linearGradient id="a" x2="0" y1="1">
   <stop stop-color="#f00" offset="0"/>
   <stop stop-color="#ff006e" offset="1"/>
  </linearGradient>
 </defs>
 <path transform="translate(.00061 -.000976) scale(1) translate(.000206 .000633) scale(1)" d="m11.09 0.1328v0.001953a3.6 3.6 0 0 0-1.52 0.2754c-0.312 0.13-0.6118 0.306-0.8984 0.5273h-0.00195l-7.049 5.492-0.00391 0.00195s-0.09614 0.06141-0.2441 0.1914a3 3 0 0 0-0.2539 0.25c-0.464 0.505-1.084 1.471-1.084 3.016-0.08 3.41 0 3.783 0 5.674 0 0.988 0.2316 1.925 0.6426 2.76v2e-3h0.001953a6.3 6.3 0 0 0 1.379 1.852 6.28 6.28 0 0 0 4.281 1.69c0.817 0 1.668-0.199 2.408-0.498a1.6 1.6 0 0 0 0.3906-0.1699l0.01758-0.0078v-2e-3a1.59 1.59 0 0 0 0.7539-1.35 1.6 1.6 0 0 0-0.2168-0.8008 2 2 0 0 0-0.1133-0.168l-0.00195-2e-3 -0.01953-0.02344a2 2 0 0 0-0.1152-0.1308 1.6 1.6 0 0 0-0.2949-0.2305l-0.0332-0.02344-0.00391-2e-3a2 2 0 0 0-0.1836-0.08984l-0.00195-2e-3a2 2 0 0 0-0.1953-0.06445 2 2 0 0 0-0.2031-0.04102 2 2 0 0 0-0.2109-0.01563 1.6 1.6 0 0 0-0.791 0.2148h-0.00195l-0.00195-2e-3a3.6 3.6 0 0 1-1.186 0.2246c-0.437 0-0.8516-0.08428-1.227-0.2383h-0.00195v-2e-3a3 3 0 0 1-0.2695-0.1268h-0.00195v-2e-3a3 3 0 0 1-0.7168-0.5312 3.1 3.1 0 0 1-0.8984-2.215v-5.678h-0.001953v-0.00195h0.00195v-0.4043s0.00136-0.2612 0.1934-0.4102 3.356-2.643 3.356-2.643l4.094-3.19c0.068-0.053 0.1246-0.07531 0.1816-0.07031 0.01133 0.00133 0.02187 0.00319 0.0332 0.00586h2e-3v0.00195h0.0078l2e-3 0.00195c0.01333 4e-3 0.02764 0.01024 0.04297 0.01758l0.0059 0.00391 0.0039 0.00391 0.04297 0.02734 0.01953 0.01562 2e-3 0.00195 4.059 3.18h2e-3c2e-3 2e-3 3.113 2.494 3.305 2.643l0.0039 0.00195 0.03125 0.02734 2e-3 0.00195 0.02734 0.03125 2e-3 0.00195 0.02539 0.02734h2e-3v0.00391a0.6 0.6 0 0 1 0.05859 0.09961h2e-3a0.7 0.7 0 0 1 0.05664 0.2129v0.4082h2e-3v5.678c0 0.877-0.3404 1.657-0.9004 2.217a3.04 3.04 0 0 1-1.275 0.7637h-2e-3c-0.296 0.09067-0.6088 0.136-0.9394 0.1367-0.3173-6.67e-4 -0.6209-0.04295-0.9082-0.127a3.06 3.06 0 0 1-1.824-1.461 3.2 3.2 0 0 1-0.3828-1.529v-3.67l1.846 1.416 2e-3 2e-3c0.04 0.03 0.08105 0.05799 0.123 0.08399v2e-3h2e-3a1.46 1.46 0 0 0 1.107 0.1816 1.5 1.5 0 0 0 0.2695-0.08984h2e-3c0.08667-0.03933 0.1694-0.08658 0.248-0.1426h2e-3c0.12-0.08333 0.227-0.1866 0.3203-0.3086v-2e-3c0.03133-0.04 0.05927-0.08105 0.08594-0.123v-2e-3a2 2 0 0 0 0.07227-0.1309 1.5 1.5 0 0 0 0.1016-0.2715v-2e-3c0.01133-0.046 0.0213-0.09267 0.0293-0.1387v-2e-3a1.5 1.5 0 0 0 0.01758-0.2832v-0.0039l-2e-3 -0.0059v-2e-3a1.5 1.5 0 0 0-0.03125-0.25l-0.0039-0.01953a2 2 0 0 0-0.03906-0.1348v-2e-3l-0.01367-0.03711a1.5 1.5 0 0 0-0.1021-0.2244v-2e-3h-2e-3a1.5 1.5 0 0 0-0.3867-0.4414l-2.422-1.856-1.856-1.424h-2e-3l-0.04297-0.03125a1.5 1.5 0 0 0-0.6035-0.252h-2e-3v-0.00195h-0.0078a2 2 0 0 0-0.1875-0.01953l-0.02734-0.00195h-0.05469l-0.02734 0.00195h-0.02148a1.5 1.5 0 0 0-0.8477 0.3047h-2e-3l-4.279 3.281a1.475 1.475 0 0 0-0.3594 1.947v2e-3h0.00195c0.026 0.042 0.05398 0.08305 0.08398 0.123v2e-3h0.00195c0.028 0.036 0.05722 0.07085 0.08789 0.1035 0.03 0.034 0.06108 0.0657 0.09375 0.0957h0.00195c0.03333 0.03 0.06756 0.05798 0.1016 0.08399h0.00195c0.03467 0.02667 0.06947 0.05155 0.1055 0.07422h0.00195c0.036 0.024 0.07333 0.04707 0.1113 0.06641a1.5 1.5 0 0 0 0.3633 0.1268 1.49 1.49 0 0 0 1.207-0.2773l1.746-1.34v3.592c0 1.133 0.304 2.2 0.834 3.121 0.291 0.506 0.6504 0.967 1.064 1.373a6.27 6.27 0 0 0 4.4 1.807c3.462 0 6.295-2.837 6.295-6.299 0-1.893 0.08-2.266 0-5.676h-2e-3v-0.00195h0.0059c0.064-2.522-1.598-3.459-1.598-3.459l-6.856-5.371a4.5 4.5 0 0 0-1.008-0.6016h-2e-3a4 4 0 0 0-1.414-0.3242z" fill="url(#a)"/>
</svg>
