<svg xmlns="http://www.w3.org/2000/svg" viewBox="0 0 22 22"><defs><linearGradient id="a" x2="0" y2="1"><stop offset="0" stop-color="#7700d5"/><stop offset="1" stop-color="#bd00ff"/></linearGradient></defs><path fill="url(#a)" d="M3.096.285S2.214.28 1.321.733c-.894.453-1.82 1.46-1.82 3.194a.5.5 0 0 0 .5.5h21.99a.5.5 0 0 0 .5-.5c0-1.737-.943-2.744-1.848-3.196-.905-.453-1.795-.446-1.795-.446zM0 12.855a.5.5 0 0 0-.5.498 3.64 3.64 0 0 0 3.643 3.643h7.586l2.994 4.49a.5.5 0 0 0 .832 0l2.992-4.49h1.303s.89.007 1.795-.445 1.848-1.458 1.848-3.195a.5.5 0 0 0-.5-.5z" opacity=".5" transform="translate(.478 .478)scale(.9568)"/><path fill="url(#a)" d="M3.143 5.498C1.399 5.498 0 6.896 0 8.639s1.399 3.143 3.143 3.143 3.141-1.399 3.141-3.143-1.398-3.141-3.141-3.141m7.854 0c-1.744 0-3.143 1.398-3.143 3.141s1.399 3.143 3.143 3.143 3.143-1.399 3.143-3.143-1.399-3.141-3.143-3.141m7.854 0c-1.743 0-3.141 1.398-3.141 3.141s1.398 3.143 3.141 3.143 3.143-1.399 3.143-3.143-1.399-3.141-3.143-3.141" transform="translate(.478 .478)scale(.9568)"/></svg>