<svg version="1.1" viewBox="0 0 22 22" xmlns="http://www.w3.org/2000/svg">
 <path transform="translate(-0 -.0015) scale(1)" d="m1.14 1.843-.23.023-.214.067-.194.105-.168.139-.138.168-.106.193-.066.215L0 2.982l.024.228.066.215.106.195.138.168.168.139.194.105.215.067.228.023h.72v14.899l.024.228.067.215.105.193.139.168.168.139.195.105.215.067.228.023.229-.023.214-.067.194-.105.168-.139.139-.168.105-.193.066-.215.024-.228v-.457a.37.37 0 0 1 .369-.37h.383l.224-.02.211-.065.197-.106.174-.142.596-.596h.916l.595.596.174.142.197.106.213.064.223.022h.525c.226 0 .41.184.41.41v.506a1.047 1.047 0 1 0 2.096 0v-.506a.41.41 0 0 1 .41-.41h1.28a.41.41 0 0 1 .407.41v.506a1.05 1.05 0 0 0 2.098 0v-.506a.41.41 0 0 1 .408-.41h1.28a.41.41 0 0 1 .407.41v.506a1.05 1.05 0 0 0 2.098 0v-.506a.41.41 0 0 1 .408-.41h.42l.23-.024.216-.066.193-.106.168-.138.139-.168.105-.194.066-.215.024-.228V5.777l-.024-.228-.066-.215-.105-.194-.14-.17-.167-.138-.193-.104-.215-.068-.23-.021H4.138V2.99l-.022-.229-.067-.214-.105-.194-.14-.168-.167-.139-.193-.105-.215-.066L3 1.852zm3.657 5.065h14.208a.715.715 0 0 1 .715.715v7.572a.715.715 0 0 1-.715.714h-9.92l-.598-.595-.174-.143-.195-.103L7.905 15l-.223-.021h-1.86L5.598 15l-.213.067-.196.103-.173.143-.54.539a.2.2 0 0 1-.138.056h-.002a.197.197 0 0 1-.197-.195v-1.449c0-.085.069-.152.154-.152h.597l.229-.023.215-.067.195-.105.168-.139.139-.168.105-.195.067-.215.023-.229v-3.72l-.023-.229-.067-.214-.105-.194-.14-.168-.167-.138-.195-.106-.215-.066-.229-.024h-.205a.547.547 0 0 1-.546-.547.656.656 0 0 1 .658-.658zm-.852 2.717a.48.48 0 0 1 .48.48v2.014a.48.48 0 1 1-.96 0v-2.013a.48.48 0 0 1 .48-.48" fill="#00ff80" opacity=".6"/>
 <path transform="translate(-0 -.0015) scale(1)" d="M12.049 4.226c-.684 0-1.33.173-1.934.503a4.9 4.9 0 0 0-1.518 1.329q-.274.465-.09.916.183.466.672.684c.274.128.546.13.826.02q.42-.167.742-.567a2 2 0 0 1 .57-.46q.34-.18.704-.18.62-.001 1.093.38.473.386.472 1.019-.002.478-.323.888c-.213.275-.44.5-.684.684-.261.22-.533.44-.813.668-.281.23-.5.505-.653.834-.121.228-.198.469-.228.735q-.046.396-.047.766.001.482.346.869.343.385.845.385c.336 0 .616-.089.845-.29a.96.96 0 0 0 .346-.771q-.001-.52.319-.96c.213-.302.45-.55.707-.77a6.8 6.8 0 0 0 1.172-1.364 2.95 2.95 0 0 0 .503-1.674c0-1.034-.39-1.903-1.168-2.598q-1.165-1.045-2.705-1.046zm-.028 10.339c-.453 0-.83.158-1.135.46a1.5 1.5 0 0 0-.456 1.109q0 .726.463 1.178c.31.311.69.456 1.144.456s.832-.146 1.136-.448q.459-.455.46-1.172c0-.476-.158-.85-.468-1.144q-.464-.439-1.143-.44z" fill="#ff0080"/>
</svg>
