<svg version="1.1" viewBox="0 0 22 22" xmlns="http://www.w3.org/2000/svg">
 <defs>
  <linearGradient id="d" x2="0" y1="1">
   <stop stop-color="#ff4000" offset="0"/>
   <stop stop-color="#ffa200" offset="1"/>
  </linearGradient>
  <linearGradient id="c" y1=".5" y2=".5">
   <stop stop-color="#00fffa" offset="0"/>
   <stop stop-color="#0078ff" offset="1"/>
  </linearGradient>
  <linearGradient id="b" x1="1" x2="0" y1=".5" y2=".5">
   <stop stop-color="#00fffa" offset="0"/>
   <stop stop-color="#0078ff" offset="1"/>
  </linearGradient>
  <linearGradient id="a" x2="0" y2="1">
   <stop stop-color="#00ff7f" offset="0"/>
   <stop stop-color="#5fff00" offset="1"/>
  </linearGradient>
 </defs>
 <path transform="translate(0 -1e-5) scale(.3438) matrix(.9985 0 0 .9985 .05071 .04977)" d="m4.9 3.633-3.902 0.00391a1.05 1.05 0 0 0-1.048 1.05v2.922a1.05 1.05 0 0 0 1.05 1.05h3.92c1.246 0 2.275 0.9556 2.398 2.165 0.00798 0.07795 0.01174 0.1588 0.01174 0.2445v48.24a1.05 1.05 0 0 0 1.05 1.05h2.92a1.05 1.05 0 0 0 1.052-1.05v-6.334h4.826v3.861a1.05 1.05 0 0 0 1.05 1.05h34.91a1.05 1.05 0 0 0 1.05-1.05v-3.861h2.42c0.2546 0 0.5058-0.01344 0.755-0.03912 2.489-0.2566 4.624-1.756 5.774-3.861 0.1158-0.2118 0.2209-0.4272 0.3149-0.6475 0.379-0.8886 0.5907-1.867 0.5907-2.887v-24.62c0-4.08-3.36-7.435-7.437-7.435h-44.27v-2.418c0-4.076-3.358-7.435-7.435-7.435zm32.59 10.63c4.254 0 7.961 1.606 10.43 4.245h8.701c1.334 0 2.41 1.085 2.41 2.418v24.62c0 1.328-1.079 2.402-2.41 2.402h-13.13c-0.3924 2.074-1.422 3.914-2.916 5.246a3.005 3.005 0 0 0-2e-3 2e-3c-1.869 1.663-4.216 2.398-6.449 2.398-2.234 0-4.579-0.7395-6.445-2.4-1.497-1.332-2.528-3.172-2.922-5.246h-12.41v-29.44h13.51c2.944-2.713 7.184-4.238 11.62-4.241a3.005 3.005 0 0 1 0.01369-0.0039z" fill="url(#a)" opacity=".8"/>
 <path transform="translate(0 -1e-5) scale(.3438) matrix(.9985 0 0 .9985 .05071 .04777)" d="m19.23 23.38a2 2 0 0 0-2.001 2.001v0.9193a2 2 0 0 0 2.001 1.999h2.715c-0.1363-1.235-0.04548-2.502 0.2621-3.732a3.005 3.005 0 0 1 0-0.0059c0.1013-0.4039 0.2221-0.7979 0.3619-1.181zm0.0039 7.382a2 2 0 0 0-1.999 2.001v0.9193a2 2 0 0 0 1.999 2.001h5.845a2 2 0 0 0 0.0313 0v-0.4108c0-0.3694 0.1218-0.6046 0.176-0.9252-0.6233-0.4661-1.234-0.9806-1.729-1.69a3.005 3.005 0 0 0 0-2e-3c-0.4152-0.5958-0.7503-1.232-1.009-1.893zm0 7.384a2 2 0 0 0-1.999 1.999v0.9213a2 2 0 0 0 1.999 1.999h5.845a2 2 0 0 0 0.0489 0c0.2035-0.5596 0.4536-1.098 0.7335-1.618-0.4514-1.033-0.757-2.122-0.755-3.265v-0.03716a2 2 0 0 0-0.02738 0z" fill="url(#c)" opacity=".8"/>
 <path transform="translate(0 -1e-5) scale(.3438) matrix(.9985 0 0 .9985 .05071 .04777)" d="m50.52 22.61c0.76 1.875 1.095 3.862 1.095 5.78 0 0.01021 2.4e-5 0.02109 0 0.0313a38 38 0 0 1 0.8646-0.6866 9.8 9.8 0 0 1 1.665 5.493c0 0.232-0.04659 0.4527-0.06259 0.6807a37 37 0 0 0-3.224-1.117c-0.4355 1.22-1.042 2.34-1.778 3.329a37.3 37.3 0 0 1 4.053 1.389 9.77 9.77 0 0 1-4.452 4.493 35 35 0 0 0-0.8059-3.844 53 53 0 0 0-0.133-0.5027c-0.9952 0.9929-2.075 1.804-3.173 2.517 0.3028 1.32 0.4984 2.448 0.5418 2.821-0.272 0.02-0.5377 0.07824-0.8137 0.07824a9.8 9.8 0 0 1-1.193-0.07237c0.2922 0.7953 0.4916 1.631 0.5497 2.515 0.2147 0.01124 0.432 0.0176 0.6494 0.0176 6.784 0 12.31-5.525 12.31-12.31 0-4.518-2.452-8.475-6.093-10.61z" fill="url(#b)" opacity=".8"/>
 <path transform="translate(0 -1e-5) scale(.3438)" d="m37.49 17.29c-5.964 0-11.17 3.314-12.35 8.014v0.0045c-0.5067 2.027-0.1919 4.068 0.8985 5.632 0.6739 0.9663 1.711 1.591 2.86 2.011-0.3526 0.7211-0.7708 1.419-0.7708 2.317l-0.0045 2.91a5.184 5.184 0 0 0 1.19 3.316c-1.049 1.12-1.715 2.718-1.715 4.53 0 2.012 0.8262 3.771 2.089 4.894 1.26 1.122 2.863 1.637 4.441 1.637 1.577 0 3.185-0.5156 4.446-1.637 1.259-1.122 2.084-2.879 2.084-4.894 0-1.844-0.6889-3.472-1.774-4.593 0.07573-0.09576 0.1456-0.1964 0.2144-0.2966 0.8124-1.187 1.308-1.991 1.628-2.171 2.045-1.149 3.949-2.349 5.427-4.028 1.479-1.677 2.436-3.907 2.436-6.541 0-2.681-0.8-5.431-2.655-7.57-1.856-2.139-4.782-3.535-8.441-3.535zm0 3.918c2.725 0 4.367 0.8897 5.487 2.18 1.119 1.289 1.697 3.113 1.697 5.004 0 1.771-0.4969 2.858-1.459 3.953-0.9639 1.094-2.492 2.118-4.406 3.192-1.777 0.9978-2.396 2.578-2.942 3.374l-0.0047 0.0047a1.28 1.28 0 0 1-1.076 0.5791h-1.441a1.28 1.28 0 0 1-1.304-1.313l0.0045-2.91c0-0.6529 0.6034-1.548 1.915-2.527 1.312-0.9796 3.08-1.865 4.479-2.641a1.959 1.959 0 0 0-1.834-3.456c-0.02101 0.01047-0.0462 0.02148-0.06842 0.03192v-0.0045c-0.0182 0.01047-0.0488 0.0397-0.06841 0.05016a82.29 82.29 0 0 0-4.114 2.294h-0.0045v0.0045c-0.5983 0.3526-1.048 0.51-1.3 0.5154h-0.0045c-0.9182 0.0183-1.419-0.2991-1.792-0.8346-0.3736-0.5354-0.5793-1.376-0.3101-2.45 0.5525-2.195 4.138-5.044 8.551-5.044zm-3.363 22.19c0.7078 0 1.394 0.2499 1.847 0.6522 0.4532 0.4023 0.7708 0.9284 0.7708 1.961 0 1.033-0.3176 1.563-0.7708 1.966-0.4532 0.4035-1.139 0.6431-1.847 0.6431-0.7078 0-1.385-0.2393-1.838-0.6431-0.4532-0.4035-0.7708-0.9315-0.7708-1.966s0.3176-1.559 0.7708-1.961c0.4532-0.4021 1.131-0.6522 1.838-0.6522z" fill="url(#d)" stroke-width="1.457"/>
</svg>
