<svg version="1.1" viewBox="0 0 22 22" xmlns="http://www.w3.org/2000/svg">
 <defs>
  <linearGradient id="a" x1="15.01" x2="1.154" y1="6.926" y2="6.926" gradientTransform="matrix(1.191 0 0 -1.588 1.377 22)" gradientUnits="userSpaceOnUse">
   <stop stop-color="#07f" offset="0"/>
   <stop stop-color="#00f7ff" offset="1"/>
  </linearGradient>
 </defs>
 <path transform="translate(-.00124 .000506) scale(1) translate(.00028 .000894) scale(.9999)" d="m9.622 22c-4.125 0-4.125 0-4.125-4.125v-1.375c0-1.375 0-1.375 1.375-1.375s1.375 0 1.375 1.375v1.375c0 1.375 0 1.375 1.375 1.375h5.5c1.375 0 1.375 0 1.375-1.375v-13.75c0-1.375 0-1.375-1.375-1.375h-5.5c-1.375 0-1.375 0-1.375 1.375-0.0605 1.724 0.02993 1.793 0.01343 3.52 0.3836-0.3891 0.7904-0.8547 1.389-0.8272 1.152-0.066 1.847 1.482 1.074 2.318-1.269 1.272-2.526 2.002-3.832 3.237-1.239-1.166-2.424-1.829-3.631-3.026-0.8497-0.6421-0.5896-2.142 0.4485-2.428 0.715-0.2695 1.366 0.2108 1.807 0.7278 0-1.546-0.01343-1.977-0.01343-3.523 0-4.125 0-4.125 4.125-4.125h5.5c4.125 0 4.125 0 4.125 4.125v13.75l-0.0054 0.0027c0 4.125 0 4.125-4.125 4.125z" fill="url(#a)" stroke-width="1.375"/>
</svg>
