<svg xmlns="http://www.w3.org/2000/svg" viewBox="0 0 22 22"><g stroke-width=".026"><path fill="#bf00ff" d="M10.99.076q-.45 0-.75.31a1.06 1.06 0 0 0-.304.768V6.26c0 .277.111.544.307.74l.014.014a1.047 1.047 0 0 0 1.785-.738V1.153q0-.457-.303-.767a1 1 0 0 0-.75-.31zm4.42 4.286q-.459 0-.77.303a1 1 0 0 0-.313.75v5.241c0 .277.11.544.306.74l.04.04a1.047 1.047 0 0 0 1.785-.739V5.415q0-.447-.295-.75c-.295-.303-.447-.303-.752-.303zM5.497 6.73v9.853q0 .456.308.767.309.311.762.31.462.001.773-.308.314-.31.315-.769v-7.7zm-3.32 1.947q-.445 0-.756.293a1 1 0 0 0-.314.76v2.54q0 .456.308.768.31.31.754.31.455 0 .762-.293.308-.294.308-.76v-2.54q0-.456-.308-.768a1.02 1.02 0 0 0-.754-.31m17.648 0q-.453 0-.765.293a1 1 0 0 0-.313.76v2.54q0 .456.309.768.307.31.76.31.462 0 .775-.293a1 1 0 0 0 .312-.76v-2.54q0-.456-.312-.768a1.04 1.04 0 0 0-.766-.31M9.94 11.163v9.706q.001.465.305.758.303.294.75.295c.447.001.546-.1.748-.295q.302-.293.302-.758v-7.605zm4.39 4.385v1.033q0 .456.31.767.308.311.765.31.456.001.748-.292z"/><path fill="red" d="M5.493 6.729.258 1.5A.87.87 0 0 1 .001.893.82.82 0 0 1 .258.258.83.83 0 0 1 .866.015q.365 0 .635.243L21.74 20.526q.243.243.257.595a.8.8 0 0 1-.257.621.83.83 0 0 1-.608.243.83.83 0 0 1-.608-.243L7.644 8.883z"/></g></svg>