<svg version="1.1" viewBox="0 0 22 22" xmlns="http://www.w3.org/2000/svg">
 <defs>
  <linearGradient id="a" x1="1" x2="0" y1="1">
   <stop stop-color="#009980" offset="0"/>
   <stop stop-color="#69ff80" offset="1"/>
  </linearGradient>
 </defs>
 <path transform="translate(-.000621 .00055) scale(.9999) translate(-.63 -.63) scale(1.454)" d="M.562 2.137a.9.9 0 0 1 1.235-.309l1.666 1a2.35 2.35 0 0 0 2.41 0 4.15 4.15 0 0 1 4.256 0 2.35 2.35 0 0 0 2.41 0l1.666-1a.9.9 0 0 1 .926 1.544l-1.667 1h-.001a4.15 4.15 0 0 1-4.256 0 2.35 2.35 0 0 0-2.41 0 4.15 4.15 0 0 1-4.256 0h-.002l-1.667-1a.9.9 0 0 1-.309-1.235zm2.901 6.369-1.666 1a.9.9 0 0 1-.926-1.544l1.667-1 .001-.001a4.15 4.15 0 0 1 4.256 0 2.35 2.35 0 0 0 2.41 0 4.15 4.15 0 0 1 4.256 0h.002l1.667 1a.9.9 0 0 1-.927 1.544l-1.665-.999a2.35 2.35 0 0 0-2.41 0 4.15 4.15 0 0 1-4.256 0 2.35 2.35 0 0 0-2.41 0zm0 4.667a2.35 2.35 0 0 1 2.41 0 4.15 4.15 0 0 0 4.256 0 2.35 2.35 0 0 1 2.41 0l1.666 1a.9.9 0 0 0 .926-1.545l-1.667-1h-.001a4.15 4.15 0 0 0-4.256 0 2.35 2.35 0 0 1-2.41 0 4.15 4.15 0 0 0-4.256 0h-.002l-1.667 1a.9.9 0 0 0 .926 1.544z" fill="url(#a)"/>
</svg>
