<svg xmlns="http://www.w3.org/2000/svg" xmlns:xlink="http://www.w3.org/1999/xlink" viewBox="0 0 22 22"><defs><linearGradient id="e" x1="10.13" x2="10.13" y1="8.383" y2="16.22" gradientTransform="matrix(.6845 0 0 1.118 1.099 1.195)" gradientUnits="userSpaceOnUse"><stop offset=".039" stop-color="#f7f206"/><stop offset=".974" stop-color="#ffbb24"/></linearGradient><linearGradient id="d" x1="1" x2="0" y1=".5" y2=".5"><stop offset="0" stop-color="#033bda"/><stop offset="1" stop-color="#0b81fc"/></linearGradient><linearGradient id="b" y1=".5" y2=".5"><stop offset="0" stop-color="#033bda"/><stop offset="1" stop-color="#0b81fc"/></linearGradient><linearGradient id="c" x1="1" x2="0" y2="1"><stop offset="0" stop-color="#c50ed2"/><stop offset=".983" stop-color="#8500f7"/></linearGradient><linearGradient id="a"><stop offset="0" stop-color="#abdaf9"/><stop offset="1" stop-color="#e1f2ff"/></linearGradient><linearGradient xlink:href="#a" id="f" x1="412" x2="412" y1="512.6" y2="509.8" gradientTransform="translate(-312.3 -395.5)scale(.8043)" gradientUnits="userSpaceOnUse"/><linearGradient xlink:href="#a" id="g" x1="412" x2="412" y1="512.6" y2="509.8" gradientTransform="translate(-314.1 -392.5)scale(.8043)" gradientUnits="userSpaceOnUse"/><linearGradient xlink:href="#a" id="h" x1="412" x2="412" y1="512.6" y2="509.8" gradientTransform="translate(-316 -395.3)scale(.8043)" gradientUnits="userSpaceOnUse"/><linearGradient xlink:href="#a" id="m" x1="412" x2="412" y1="512.6" y2="509.8" gradientTransform="translate(-317.9 -392.7)scale(.8043)" gradientUnits="userSpaceOnUse"/><linearGradient xlink:href="#a" id="n" x1="412" x2="412" y1="512.6" y2="509.8" gradientTransform="translate(-324.5 -395.4)scale(.8043)" gradientUnits="userSpaceOnUse"/><linearGradient xlink:href="#a" id="o" x1="412" x2="412" y1="512.6" y2="509.8" gradientTransform="translate(-326.4 -392.4)scale(.8043)" gradientUnits="userSpaceOnUse"/><linearGradient xlink:href="#a" id="p" x1="412" x2="412" y1="512.6" y2="509.8" gradientTransform="translate(-328.3 -395.2)scale(.8043)" gradientUnits="userSpaceOnUse"/><linearGradient xlink:href="#a" id="q" x1="412" x2="412" y1="512.6" y2="509.8" gradientTransform="translate(-330.1 -392.6)scale(.8043)" gradientUnits="userSpaceOnUse"/></defs><path fill="url(#b)" d="M9.499-.65a6.78 6.78 0 0 0-6.341 4.38 4.24 4.24 0 0 0 1.079 8.338h10.52a4.239 4.239 0 0 0 1.088-8.336A6.785 6.785 0 0 0 9.504-.65z" transform="translate(0 1.663)scale(.9994)"/><path fill="url(#c)" d="m13.68 0 .008.002a4.97 4.97 0 0 0-3.915 1.901A2.801 2.801 0 0 0 4.786 4.01 4.06 4.06 0 0 0 .003 8.007a4.063 4.063 0 0 0 4.058 4.06H17.8a3.654 3.654 0 0 0 3.644-3.656h.003a3.655 3.655 0 0 0-2.786-3.548A4.99 4.99 0 0 0 13.68 0z" transform="translate(0 1.663)scale(.9994)"/><path fill="url(#d)" d="M13.01 1.779a5.135 5.135 0 0 0-4.935 4.134 5.3 5.3 0 0 0-.103 1.019v.366a2.568 2.568 0 1 0-1.284 4.769h11.56a3.852 3.852 0 0 0 0-7.702 4 4 0 0 0-.642.059 5.14 5.14 0 0 0-4.585-2.644z" transform="translate(0 1.663)scale(.9994)"/><path fill="url(#e)" d="M10.15 10.57a.81.81 0 0 0-.711.484L8.09 14.189c-.08.19-.074.388.028.542a.54.54 0 0 0 .455.235h.777l-1.24 3.532c-.116.33-.064.607.148.753a.44.44 0 0 0 .25.082c.131 0 .306-.06.511-.25l3.861-3.825c.345-.33.288-.608.25-.718-.08-.19-.264-.308-.506-.308h-.798l1.524-2.887a.59.59 0 0 0-.029-.542.54.54 0 0 0-.455-.235z" transform="translate(0 1.663)scale(.9994)"/><path fill="url(#f)" d="M19.1 14.55a1.136 1.136 0 1 0 0 2.272 1.136 1.136 0 0 0 0-2.272" style="-inkscape-stroke:none;font-variation-settings:normal" transform="scale(.9998)"/><path fill="url(#g)" d="M17.22 17.56a1.136 1.136 0 1 0 0 2.272 1.136 1.136 0 0 0 0-2.272" style="-inkscape-stroke:none;font-variation-settings:normal" transform="scale(.9998)"/><path fill="url(#h)" d="M15.33 14.74a1.136 1.136 0 1 0 0 2.272 1.136 1.136 0 0 0 0-2.272" style="-inkscape-stroke:none;font-variation-settings:normal" transform="scale(.9998)"/><path fill="url(#m)" d="M13.46 17.37a1.136 1.136 0 1 0 0 2.272 1.136 1.136 0 0 0 0-2.272" style="-inkscape-stroke:none;font-variation-settings:normal" transform="scale(.9998)"/><path fill="url(#n)" d="M6.871 14.66a1.136 1.136 0 1 0 0 2.272 1.136 1.136 0 0 0 0-2.272" style="-inkscape-stroke:none;font-variation-settings:normal" transform="scale(.9998)"/><path fill="url(#o)" d="M4.987 17.67a1.136 1.136 0 1 0 0 2.272 1.136 1.136 0 0 0 0-2.272" style="-inkscape-stroke:none;font-variation-settings:normal" transform="scale(.9998)"/><path fill="url(#p)" d="M3.103 14.85a1.136 1.136 0 1 0 0 2.272 1.136 1.136 0 0 0 0-2.272" style="-inkscape-stroke:none;font-variation-settings:normal" transform="scale(.9998)"/><path fill="url(#q)" d="M1.22 17.48a1.136 1.136 0 1 0 0 2.272 1.136 1.136 0 0 0 0-2.272" style="-inkscape-stroke:none;font-variation-settings:normal" transform="scale(.9998)"/></svg>