<svg version="1.1" viewBox="0 0 22 22" xmlns="http://www.w3.org/2000/svg">
 <defs>
  <linearGradient id="a" x1="19.22" x2=".009" y1="11.07" y2="11.07" gradientTransform="scale(.9813 1.019)" gradientUnits="userSpaceOnUse">
   <stop stop-color="#6c00bf" offset="0"/>
   <stop stop-color="#f0f" offset="1"/>
  </linearGradient>
  <linearGradient id="c" x1=".405" x2=".405" y1="27.2" y2="130.1" gradientTransform="matrix(.09871 0 0 .06533 -.04 13.41)" gradientUnits="userSpaceOnUse">
   <stop stop-color="#44bcff" offset="0"/>
   <stop stop-color="#001fc1" offset="1"/>
  </linearGradient>
  <linearGradient id="d" x1="33.53" x2="33.53" y1="18.13" y2="80.13" gradientTransform="matrix(.1683 0 0 .1112 10.44 2.64)" gradientUnits="userSpaceOnUse">
   <stop stop-color="#00b5ff" offset="0"/>
   <stop stop-color="#050aff" offset="1"/>
  </linearGradient>
 </defs>
 <path transform="translate(-.00267 .000127) scale(.9998) translate(-1.561 -1.637) scale(1.187)" d="M10.61 1.379a9.271 9.271 0 1 0 7.992 14.4.618.618 0 0 0-.644-.947 7.418 7.418 0 0 1-6.883-12.39.618.618 0 0 0-.463-1.045z" fill="url(#a)" style="-inkscape-stroke:none;font-variation-settings:normal"/>
 <path transform="translate(-.00267 .000127) scale(.9998) translate(.351 -.075) scale(1.007)" d="M5.387 15.19a1.84 1.84 0 0 0-1.43.684 1.6 1.6 0 0 0-.723-.174c-.83 0-1.514.633-1.594 1.443A1.733 1.733 0 0 0 0 18.85c-.005.348.096.673.269.947q0 .002.002.004.001.002.004.004a1.73 1.73 0 0 0 .634.59l.026.013q.077.041.158.075.03.01.059.02.067.024.136.044.054.014.108.023.044.01.092.018.11.016.22.018h.002q.11 0 .217-.012a2.3 2.3 0 0 0 .766.904h.002q.245.173.53.278h.003a2.3 2.3 0 0 0 2.25-.385q.1.074.21.135a1.8 1.8 0 0 0 .877.224 1.82 1.82 0 0 0 1.326-.57c.2-.211.351-.47.434-.758h.002a1.4 1.4 0 0 0 .437.072 1.4 1.4 0 0 0 .983-.408 1.39 1.39 0 0 0 .08-1.884l-.002-.002-.008-.008a1 1 0 0 0-.098-.104l-.01-.01-.01-.007a1.385 1.385 0 0 0-.936-.363l.001-.018a1.39 1.39 0 0 0-1.678-1.358 1.84 1.84 0 0 0-1.7-1.143z" fill="url(#c)" style="-inkscape-stroke:none;font-variation-settings:normal"/>
 <path transform="translate(-.00267 .000127) scale(.9998) translate(.351 -.075) scale(1.007)" d="M16.08 4.656c-1.016 0-1.754.411-2.231.995a3.05 3.05 0 0 0-.651 1.562C11.7 7.366 11 8.518 11 9.373c0 .415.102.967.497 1.418.404.461 1.06.759 2.042.759h5.08c.78 0 1.421-.19 1.871-.581.457-.398.67-.96.67-1.596 0-.685-.34-1.238-.822-1.61a2.8 2.8 0 0 0-1.372-.546c-.081-.842-.463-1.467-.979-1.89a3.07 3.07 0 0 0-1.908-.671z" fill="url(#d)" style="-inkscape-stroke:none;font-variation-settings:normal"/>
</svg>
