<svg xmlns="http://www.w3.org/2000/svg" xmlns:xlink="http://www.w3.org/1999/xlink" viewBox="0 0 22 22"><defs><linearGradient id="f" x1="10.13" x2="10.13" y1="8.383" y2="16.22" gradientTransform="matrix(.6845 0 0 1.118 1.099 1.195)" gradientUnits="userSpaceOnUse"><stop offset=".039" stop-color="#f7f206"/><stop offset=".974" stop-color="#ffbb24"/></linearGradient><linearGradient id="e" x1="1" x2="0" y1=".5" y2=".5"><stop offset="0" stop-color="#033bda"/><stop offset="1" stop-color="#0b81fc"/></linearGradient><linearGradient id="c" y1=".5" y2=".5"><stop offset="0" stop-color="#033bda"/><stop offset="1" stop-color="#0b81fc"/></linearGradient><linearGradient id="d" x1="1" x2="0" y2="1"><stop offset="0" stop-color="#c50ed2"/><stop offset=".983" stop-color="#8500f7"/></linearGradient><linearGradient id="a" x1="17.63" x2="19.96" y1="15.86" y2="13.53" gradientTransform="matrix(.9198 0 0 1.087 7.128 -.124)" gradientUnits="userSpaceOnUse"><stop offset="0" stop-color="#248efe"/><stop offset=".92" stop-color="#1df4ff"/></linearGradient><linearGradient xlink:href="#a" id="g" x1="17.63" x2="19.96" y1="15.86" y2="13.53" gradientTransform="matrix(.8274 0 0 .9779 3.552 1.313)" gradientUnits="userSpaceOnUse"/><linearGradient xlink:href="#a" id="h" x1="17.63" x2="19.96" y1="15.86" y2="13.53" gradientTransform="matrix(.8274 0 0 .9779 1.671 4.326)" gradientUnits="userSpaceOnUse"/><linearGradient xlink:href="#a" id="o" x1="17.63" x2="19.96" y1="15.86" y2="13.53" gradientTransform="matrix(.8274 0 0 .9779 -.218 1.507)" gradientUnits="userSpaceOnUse"/><linearGradient xlink:href="#a" id="p" x1="17.63" x2="19.96" y1="15.86" y2="13.53" gradientTransform="matrix(.8274 0 0 .9779 -2.095 4.131)" gradientUnits="userSpaceOnUse"/><linearGradient xlink:href="#a" id="q" x1="17.63" x2="19.96" y1="15.86" y2="13.53" gradientTransform="matrix(.8274 0 0 .9779 -8.68 1.423)" gradientUnits="userSpaceOnUse"/><linearGradient xlink:href="#a" id="r" x1="17.63" x2="19.96" y1="15.86" y2="13.53" gradientTransform="matrix(.8274 0 0 .9779 -10.56 4.436)" gradientUnits="userSpaceOnUse"/><linearGradient xlink:href="#a" id="s" x1="17.63" x2="19.96" y1="15.86" y2="13.53" gradientTransform="matrix(.8274 0 0 .9779 -12.45 1.617)" gradientUnits="userSpaceOnUse"/><linearGradient xlink:href="#a" id="t" x1="17.63" x2="19.96" y1="15.86" y2="13.53" gradientTransform="matrix(.8274 0 0 .9779 -14.33 4.241)" gradientUnits="userSpaceOnUse"/><linearGradient id="b" x1="19.22" x2=".009" y1="11.07" y2="11.07" gradientTransform="matrix(.3944 0 0 .4096 .314 .094)" gradientUnits="userSpaceOnUse"><stop offset="0" stop-color="#6c00bf"/><stop offset="1" stop-color="#f0f"/></linearGradient></defs><path fill="url(#b)" d="M4.578.648A3.726 3.726 0 1 0 7.79 6.436a.249.249 0 0 0-.259-.38 2.981 2.981 0 0 1-2.766-4.98.249.249 0 0 0-.186-.42z" style="-inkscape-stroke:none;font-variation-settings:normal" transform="translate(0 .183)scale(.9998)"/><path fill="url(#c)" d="M9.499-.65a6.78 6.78 0 0 0-6.341 4.38 4.24 4.24 0 0 0 1.079 8.338h10.52a4.239 4.239 0 0 0 1.088-8.336A6.785 6.785 0 0 0 9.504-.65z" transform="translate(0 1.847)scale(.9994)"/><path fill="url(#d)" d="m13.68 0 .008.002a4.97 4.97 0 0 0-3.915 1.901A2.801 2.801 0 0 0 4.786 4.01 4.06 4.06 0 0 0 .003 8.007a4.063 4.063 0 0 0 4.058 4.06H17.8a3.654 3.654 0 0 0 3.644-3.656h.003a3.655 3.655 0 0 0-2.786-3.548A4.99 4.99 0 0 0 13.68 0z" transform="translate(0 1.847)scale(.9994)"/><path fill="url(#e)" d="M13.01 1.779a5.135 5.135 0 0 0-4.935 4.134 5.3 5.3 0 0 0-.103 1.019v.366a2.568 2.568 0 1 0-1.284 4.769h11.56a3.852 3.852 0 0 0 0-7.702 4 4 0 0 0-.642.059 5.14 5.14 0 0 0-4.585-2.644z" transform="translate(0 1.847)scale(.9994)"/><path fill="url(#f)" d="M10.15 10.57a.81.81 0 0 0-.711.484L8.09 14.189c-.08.19-.074.388.028.542a.54.54 0 0 0 .455.235h.777l-1.24 3.532c-.116.33-.064.607.148.753a.44.44 0 0 0 .25.082c.131 0 .306-.06.511-.25l3.861-3.825c.345-.33.288-.608.25-.718-.08-.19-.264-.308-.506-.308h-.798l1.524-2.887a.59.59 0 0 0-.029-.542.54.54 0 0 0-.455-.235z" transform="translate(0 1.847)scale(.9994)"/><path fill="url(#g)" d="M19.1 14.55a.1.1 0 0 0-.061.026l-.186.177q-.075.069-.155.146a3 3 0 0 0-.334.37c-.195.27-.308.589-.151.964.148.355.504.59.888.59a.97.97 0 0 0 .888-.59c.156-.376.043-.694-.153-.964a3 3 0 0 0-.334-.37q-.08-.077-.155-.147a8 8 0 0 1-.186-.177.1.1 0 0 0-.061-.025z" style="-inkscape-stroke:none;font-variation-settings:normal" transform="translate(0 .183)scale(.9998)"/><path fill="url(#h)" d="M17.22 17.56a.1.1 0 0 0-.061.026l-.186.177q-.075.069-.155.146a3 3 0 0 0-.334.37c-.195.27-.308.589-.151.964.148.355.504.59.888.59a.97.97 0 0 0 .888-.59c.156-.376.043-.694-.153-.964a3 3 0 0 0-.334-.37q-.08-.077-.155-.147a8 8 0 0 1-.186-.177.1.1 0 0 0-.061-.025z" style="-inkscape-stroke:none;font-variation-settings:normal" transform="translate(0 .183)scale(.9998)"/><path fill="url(#o)" d="M15.33 14.74a.1.1 0 0 0-.061.026l-.186.177q-.075.069-.155.146a3 3 0 0 0-.334.37c-.195.27-.308.589-.151.964.148.355.504.59.888.59a.97.97 0 0 0 .888-.59c.156-.376.043-.694-.153-.964a3 3 0 0 0-.334-.37q-.08-.077-.155-.147a8 8 0 0 1-.186-.177.1.1 0 0 0-.061-.025z" style="-inkscape-stroke:none;font-variation-settings:normal" transform="translate(0 .183)scale(.9998)"/><path fill="url(#p)" d="M13.45 17.37a.1.1 0 0 0-.061.026l-.186.177q-.075.069-.155.146a3 3 0 0 0-.334.37c-.195.27-.308.589-.151.964.148.355.504.59.888.59a.97.97 0 0 0 .888-.59c.156-.376.043-.694-.153-.964a3 3 0 0 0-.334-.37q-.08-.077-.155-.147a8 8 0 0 1-.186-.177.1.1 0 0 0-.061-.025z" style="-inkscape-stroke:none;font-variation-settings:normal" transform="translate(0 .183)scale(.9998)"/><path fill="url(#q)" d="M6.87 14.66a.1.1 0 0 0-.061.026l-.186.177q-.075.069-.155.146a3 3 0 0 0-.334.37c-.195.27-.308.589-.151.964.148.355.504.59.888.59a.97.97 0 0 0 .888-.59c.156-.376.043-.694-.153-.964a3 3 0 0 0-.334-.37q-.08-.077-.155-.147a8 8 0 0 1-.186-.177.1.1 0 0 0-.061-.025z" style="-inkscape-stroke:none;font-variation-settings:normal" transform="translate(0 .183)scale(.9998)"/><path fill="url(#r)" d="M4.987 17.67a.1.1 0 0 0-.061.026l-.186.177q-.075.069-.155.146a3 3 0 0 0-.334.37c-.195.27-.308.589-.151.964.148.355.504.59.888.59a.97.97 0 0 0 .888-.59c.156-.376.043-.694-.153-.964a3 3 0 0 0-.334-.37q-.08-.077-.155-.147a8 8 0 0 1-.186-.177.1.1 0 0 0-.061-.025z" style="-inkscape-stroke:none;font-variation-settings:normal" transform="translate(0 .183)scale(.9998)"/><path fill="url(#s)" d="M3.103 14.85a.1.1 0 0 0-.061.026l-.186.177q-.075.069-.155.146a3 3 0 0 0-.334.37c-.195.27-.308.589-.151.964.148.355.504.59.888.59a.97.97 0 0 0 .888-.59c.156-.376.043-.695-.153-.964a3 3 0 0 0-.334-.37q-.08-.077-.155-.147a8 8 0 0 1-.186-.177.1.1 0 0 0-.061-.025z" style="-inkscape-stroke:none;font-variation-settings:normal" transform="translate(0 .183)scale(.9998)"/><path fill="url(#t)" d="M1.219 17.48a.1.1 0 0 0-.061.026l-.186.177q-.075.069-.155.146a3 3 0 0 0-.334.37c-.195.27-.308.589-.151.964.148.355.504.59.888.59a.97.97 0 0 0 .888-.59c.156-.376.043-.694-.153-.964a3 3 0 0 0-.334-.37q-.08-.077-.155-.147a8 8 0 0 1-.186-.177.1.1 0 0 0-.061-.025z" style="-inkscape-stroke:none;font-variation-settings:normal" transform="translate(0 .183)scale(.9998)"/></svg>