<svg xmlns="http://www.w3.org/2000/svg" xmlns:xlink="http://www.w3.org/1999/xlink" viewBox="0 0 22 22"><defs><linearGradient id="j" x1="50.35" x2="50.74" y1="24.58" y2="103" gradientTransform="matrix(.464 0 0 .3065 .534 .443)" gradientUnits="userSpaceOnUse"><stop offset="0" stop-color="#00b5ff"/><stop offset="1" stop-color="#050aff"/></linearGradient><linearGradient id="l" x1="10.13" x2="10.13" y1="8.383" y2="16.22" gradientTransform="matrix(1.303 0 0 2.128 5.181 11.16)" gradientUnits="userSpaceOnUse"><stop offset=".039" stop-color="#f7f206"/><stop offset=".974" stop-color="#ffbb24"/></linearGradient><linearGradient id="a" x1="3.092" x2="11.25" y1="20.19" y2="12.03" gradientTransform="matrix(.5731 0 0 .6491 1.564 4.864)" gradientUnits="userSpaceOnUse"><stop offset="0" stop-color="#248efe"/><stop offset=".92" stop-color="#1df4ff"/></linearGradient><linearGradient xlink:href="#a" id="m" x1="7.142" x2="7.153" y1="1.963" y2="-4.063" gradientTransform="matrix(.7975 0 0 .9034 23.51 42.54)" gradientUnits="userSpaceOnUse"/><linearGradient xlink:href="#a" id="n" x1="7.142" x2="7.153" y1="1.963" y2="-4.063" gradientTransform="matrix(.7975 0 0 .9034 9.406 36.54)" gradientUnits="userSpaceOnUse"/><linearGradient id="b" x1="36.92" x2="36.92" y1="34.95" y2="30.51" gradientTransform="matrix(.92 0 0 1.087 -.367 -.005)" gradientUnits="userSpaceOnUse"><stop offset="0" stop-color="#033bda"/><stop offset="1" stop-color="#0b81fc"/></linearGradient><linearGradient xlink:href="#b" id="o" x1="36.92" x2="36.92" y1="34.95" y2="30.51" gradientTransform="matrix(.92 0 0 1.087 -27.47 5.995)" gradientUnits="userSpaceOnUse"/><linearGradient xlink:href="#c" id="e" x1="1.512" x2="22.5" y1="1.499" y2="22.48" gradientTransform="matrix(.398 0 0 .3982 -.61 .713)" gradientUnits="userSpaceOnUse"/><linearGradient id="c" y2="1"><stop offset=".03" stop-color="#f7f206"/><stop offset=".987" stop-color="#ffbb24"/></linearGradient><linearGradient xlink:href="#c" id="f" x1="5.988" x2="18" y1="6.004" y2="18.01" gradientTransform="matrix(.3984 0 0 .3978 -.61 .713)" gradientUnits="userSpaceOnUse"/></defs><g stroke-width=".398"><path fill="url(#e)" d="M4.166 1.31a.597.597 0 0 0-.597.597v.398l.003.058a.597.597 0 0 0 1.191-.058v-.398L4.76 1.85a.597.597 0 0 0-.594-.54zm2.56 1.047a.6.6 0 0 0-.45.177l-.28.282-.042.046a.597.597 0 0 0 .887.799l.28-.282.041-.045a.597.597 0 0 0-.436-.977m-5.084.002a.6.6 0 0 0-.432.175.597.597 0 0 0 0 .845l.281.282.046.04a.597.597 0 0 0 .8-.886l-.282-.281-.046-.04a.6.6 0 0 0-.367-.135zM.583 4.893l-.058.003a.597.597 0 0 0 .058 1.191h.398l.058-.003a.597.597 0 0 0-.058-1.19zm6.767 0-.058.003a.597.597 0 0 0 .058 1.191h.398l.058-.003a.597.597 0 0 0-.058-1.19zm-5.41 2.25a.6.6 0 0 0-.45.177l-.28.281-.041.046a.597.597 0 0 0 .885.8l.282-.282.041-.046a.597.597 0 0 0-.437-.977zm4.486.002a.6.6 0 0 0-.431.175.597.597 0 0 0 0 .845l.28.281.047.04a.597.597 0 0 0 .8-.885l-.282-.282-.046-.04a.6.6 0 0 0-.368-.135zm-2.261.933a.597.597 0 0 0-.597.597v.398l.003.058a.597.597 0 0 0 1.191-.058v-.398l-.003-.058a.597.597 0 0 0-.594-.54z" transform="translate(.009 -.001)"/><path fill="url(#f)" d="M4.166 3.101a2.39 2.39 0 0 0-2.068 1.194c-.92 1.592.23 3.583 2.068 3.583a2.39 2.39 0 0 0 2.068-1.194c.92-1.592-.23-3.583-2.068-3.583" transform="translate(.009 -.001)"/></g><path fill="url(#j)" d="M23.88 7.979a11.99 11.99 0 0 0-11.52 9.651 12.3 12.3 0 0 0-.239 2.381v.855a5.994 5.994 0 1 0-2.997 11.13h26.97a8.992 8.992 0 0 0 0-17.98 9.6 9.6 0 0 0-1.497.134 11.99 11.99 0 0 0-10.71-6.173z" transform="translate(-1.59 -3.096)scale(.5253)"/><path fill="url(#l)" d="M22.42 29c-.558 0-1.131.39-1.354.92L18.5 35.89c-.153.362-.14.74.054 1.032a1.03 1.03 0 0 0 .867.447h1.478l-2.36 6.723c-.222.627-.123 1.157.281 1.435a.84.84 0 0 0 .474.155c.251 0 .585-.114.975-.477l7.351-7.279c.656-.628.547-1.158.477-1.368-.153-.363-.504-.586-.964-.586h-1.52l2.9-5.495a1.12 1.12 0 0 0-.054-1.032 1.02 1.02 0 0 0-.866-.446z" transform="translate(-1.59 -3.096)scale(.5253)"/><path fill="url(#m)" d="M29.21 38.86q-.435 0-.751.307l-1.624 1.668a1.01 1.01 0 0 0-.307.743q0 .434.307.75l1.624 1.667q.307.307.742.307t.752-.307l1.667-1.668q.308-.306.308-.74c0-.435-.104-.542-.308-.752l-1.667-1.668a1.01 1.01 0 0 0-.743-.307z" style="-inkscape-stroke:none;font-variation-settings:normal" transform="translate(-1.59 -3.096)scale(.5253)"/><path fill="url(#n)" d="M15.11 32.86q-.436 0-.751.307l-1.624 1.668a1.01 1.01 0 0 0-.307.743q0 .434.307.75l1.624 1.667q.307.307.742.307t.752-.307l1.667-1.668q.308-.306.308-.74c0-.435-.104-.542-.308-.752l-1.667-1.668a1.01 1.01 0 0 0-.743-.307z" style="-inkscape-stroke:none;font-variation-settings:normal" transform="translate(-1.59 -3.096)scale(.5253)"/><path fill="url(#b)" d="M35.64 33.17a.19.19 0 0 0-.13.054c-.126.125-.259.248-.396.377q-.159.147-.328.31a6 6 0 0 0-.71.788c-.414.57-.653 1.249-.321 2.046a2.06 2.06 0 0 0 1.886 1.253c.815 0 1.57-.5 1.886-1.253.332-.799.092-1.475-.323-2.047a6 6 0 0 0-.71-.788q-.17-.163-.33-.31a17 17 0 0 1-.395-.376.19.19 0 0 0-.13-.054z" style="-inkscape-stroke:none;font-variation-settings:normal" transform="translate(-1.59 -3.096)scale(.5253)"/><path fill="url(#o)" d="M8.541 39.17a.19.19 0 0 0-.13.054c-.126.125-.259.248-.396.377q-.159.147-.328.31a6 6 0 0 0-.71.788c-.414.57-.653 1.249-.321 2.046a2.06 2.06 0 0 0 1.886 1.253c.815 0 1.57-.5 1.886-1.253.332-.799.092-1.475-.323-2.047a6 6 0 0 0-.71-.788q-.17-.163-.33-.31a17 17 0 0 1-.395-.376.19.19 0 0 0-.13-.054z" style="-inkscape-stroke:none;font-variation-settings:normal" transform="translate(-1.59 -3.096)scale(.5253)"/></svg>