<svg xmlns="http://www.w3.org/2000/svg" xmlns:xlink="http://www.w3.org/1999/xlink" viewBox="0 0 22 22"><defs><linearGradient id="a" x1="3.092" x2="11.25" y1="20.19" y2="12.03" gradientTransform="matrix(.5731 0 0 .6491 1.564 4.864)" gradientUnits="userSpaceOnUse"><stop offset="0" stop-color="#248efe"/><stop offset=".92" stop-color="#1df4ff"/></linearGradient><linearGradient xlink:href="#a" id="e" x1="7.142" x2="7.153" y1="1.963" y2="-4.063" gradientTransform="matrix(.4141 0 0 .4691 1.756 16.47)" gradientUnits="userSpaceOnUse"/><linearGradient xlink:href="#a" id="g" x1="7.142" x2="7.153" y1="1.963" y2="-4.063" gradientTransform="matrix(.4141 0 0 .4691 10.13 16.47)" gradientUnits="userSpaceOnUse"/><linearGradient xlink:href="#a" id="h" x1="7.142" x2="7.153" y1="1.963" y2="-4.063" gradientTransform="matrix(.4141 0 0 .4691 3.849 19.61)" gradientUnits="userSpaceOnUse"/><linearGradient xlink:href="#a" id="i" x1="7.142" x2="7.153" y1="1.963" y2="-4.063" gradientTransform="matrix(.4141 0 0 .4691 12.22 19.61)" gradientUnits="userSpaceOnUse"/><linearGradient id="b" x1="50.35" x2="50.74" y1="24.58" y2="103" gradientTransform="matrix(.4639 0 0 .3065 .445 .443)" gradientUnits="userSpaceOnUse"><stop offset="0" stop-color="#00b5ff"/><stop offset="1" stop-color="#050aff"/></linearGradient><linearGradient id="c" x2="0" y1="1"><stop offset="0" stop-color="#033bda"/><stop offset="1" stop-color="#0b81fc"/></linearGradient></defs><path fill="url(#b)" d="M23.8 7.977a11.99 11.99 0 0 0-11.53 9.652 12.3 12.3 0 0 0-.239 2.38v.856a5.993 5.993 0 1 0-2.996 11.13h26.97a8.991 8.991 0 0 0 0-17.98 9.6 9.6 0 0 0-1.498.134 11.99 11.99 0 0 0-10.72-6.173z" style="-inkscape-stroke:none;font-variation-settings:normal" transform="translate(-1.55 -2.825)scale(.525)"/><path fill="url(#c)" d="M20 33.17a.19.19 0 0 0-.13.054q-.19.186-.396.376l-.328.31a6 6 0 0 0-.709.788c-.415.571-.654 1.25-.322 2.046a2.06 2.06 0 0 0 1.886 1.253c.815 0 1.571-.499 1.886-1.253.332-.798.093-1.475-.323-2.047a6 6 0 0 0-.71-.787l-.328-.31a17 17 0 0 1-.396-.376.19.19 0 0 0-.13-.054z" style="-inkscape-stroke:none;font-variation-settings:normal" transform="translate(-1.55 -2.825)scale(.52497)"/><path fill="url(#c)" d="M36 33.17a.19.19 0 0 0-.13.054q-.189.186-.396.376l-.328.31a6 6 0 0 0-.709.788c-.415.571-.654 1.25-.322 2.046a2.06 2.06 0 0 0 1.886 1.253c.815 0 1.571-.499 1.886-1.253.332-.798.093-1.475-.323-2.047a6 6 0 0 0-.71-.787l-.328-.31a17 17 0 0 1-.396-.376.19.19 0 0 0-.13-.054z" style="-inkscape-stroke:none;font-variation-settings:normal" transform="translate(-1.55 -2.825)scale(.52497)"/><path fill="url(#c)" d="M7.999 39.17a.19.19 0 0 0-.13.054q-.19.186-.396.376l-.328.31a6 6 0 0 0-.709.788c-.415.571-.654 1.25-.322 2.046A2.06 2.06 0 0 0 8 43.997c.815 0 1.571-.499 1.886-1.253.332-.798.093-1.475-.323-2.047a6 6 0 0 0-.71-.787l-.329-.31a17 17 0 0 1-.395-.376.19.19 0 0 0-.13-.054z" style="-inkscape-stroke:none;font-variation-settings:normal" transform="translate(-1.55 -2.825)scale(.52497)"/><path fill="url(#c)" d="M24 39.17a.19.19 0 0 0-.13.054q-.19.186-.396.376l-.328.31a6 6 0 0 0-.709.788c-.415.571-.654 1.25-.322 2.046a2.06 2.06 0 0 0 1.886 1.253c.815 0 1.571-.499 1.886-1.253.332-.798.093-1.475-.323-2.047a6 6 0 0 0-.71-.787l-.328-.31a17 17 0 0 1-.396-.376.19.19 0 0 0-.13-.054z" style="-inkscape-stroke:none;font-variation-settings:normal" transform="translate(-1.55 -2.825)scale(.52497)"/><path fill="url(#e)" d="M4.717 14.57a.54.54 0 0 0-.39.16l-.843.866q-.16.16-.16.385c0 .225.053.28.16.39l.843.866q.16.16.386.16a.54.54 0 0 0 .39-.16l.865-.867q.16-.159.16-.384c0-.225-.054-.281-.16-.39l-.865-.867a.53.53 0 0 0-.386-.159" style="-inkscape-stroke:none;font-variation-settings:normal" transform="translate(.009 .047)scale(1.003)"/><path fill="url(#g)" d="M13.09 14.57a.54.54 0 0 0-.39.16l-.843.866q-.16.16-.16.385c0 .225.053.28.16.39l.843.866q.16.16.386.16a.54.54 0 0 0 .39-.16l.865-.867q.16-.159.16-.384c0-.225-.054-.281-.16-.39l-.865-.867a.53.53 0 0 0-.386-.159" style="-inkscape-stroke:none;font-variation-settings:normal" transform="translate(.009 .047)scale(1.003)"/><path fill="url(#h)" d="M6.811 17.71a.54.54 0 0 0-.39.16l-.843.866q-.16.16-.16.385c0 .225.053.28.16.39l.843.866q.16.16.386.16a.54.54 0 0 0 .39-.16l.865-.867q.16-.159.16-.384c0-.225-.054-.281-.16-.39l-.865-.867a.53.53 0 0 0-.386-.159" style="-inkscape-stroke:none;font-variation-settings:normal" transform="translate(.009 .047)scale(1.003)"/><path fill="url(#i)" d="M15.19 17.71a.54.54 0 0 0-.39.16l-.843.866q-.16.16-.16.385c0 .225.053.28.16.39l.843.866q.16.16.386.16a.54.54 0 0 0 .39-.16l.865-.867q.16-.159.16-.384c0-.225-.054-.281-.16-.39l-.865-.867a.53.53 0 0 0-.386-.159" style="-inkscape-stroke:none;font-variation-settings:normal" transform="translate(.009 .047)scale(1.003)"/></svg>