<svg xmlns="http://www.w3.org/2000/svg" xmlns:xlink="http://www.w3.org/1999/xlink" viewBox="0 0 22 22"><defs><linearGradient id="e" x1="50.35" x2="50.74" y1="24.58" y2="103" gradientTransform="matrix(.464 0 0 .3065 .534 .443)" gradientUnits="userSpaceOnUse"><stop offset="0" stop-color="#00b5ff"/><stop offset="1" stop-color="#050aff"/></linearGradient><linearGradient id="f" x1="10.13" x2="10.13" y1="8.383" y2="16.22" gradientTransform="matrix(1.303 0 0 2.128 5.181 11.16)" gradientUnits="userSpaceOnUse"><stop offset=".039" stop-color="#f7f206"/><stop offset=".974" stop-color="#ffbb24"/></linearGradient><linearGradient xlink:href="#a" id="g" x1="17.63" x2="19.96" y1="15.86" y2="13.53" gradientTransform="matrix(.9231 0 0 1.091 -.227 -.439)" gradientUnits="userSpaceOnUse"/><linearGradient id="a" x1="17.63" x2="19.96" y1="15.86" y2="13.53" gradientTransform="matrix(.9198 0 0 1.087 7.128 -.124)" gradientUnits="userSpaceOnUse"><stop offset="0" stop-color="#248efe"/><stop offset=".92" stop-color="#1df4ff"/></linearGradient><linearGradient xlink:href="#a" id="j" x1="17.63" x2="19.96" y1="15.86" y2="13.53" gradientTransform="matrix(.9231 0 0 1.091 -3.595 2.712)" gradientUnits="userSpaceOnUse"/><linearGradient xlink:href="#a" id="l" x1="17.63" x2="19.96" y1="15.86" y2="13.53" gradientTransform="matrix(.9231 0 0 1.091 -11 -.44)" gradientUnits="userSpaceOnUse"/><linearGradient xlink:href="#a" id="m" x1="17.63" x2="19.96" y1="15.86" y2="13.53" gradientTransform="matrix(.9231 0 0 1.091 -14.46 2.713)" gradientUnits="userSpaceOnUse"/><linearGradient xlink:href="#b" id="c" x1="1.512" x2="22.5" y1="1.499" y2="22.48" gradientTransform="matrix(.398 0 0 .3982 -.61 .713)" gradientUnits="userSpaceOnUse"/><linearGradient id="b" y2="1"><stop offset=".03" stop-color="#f7f206"/><stop offset=".987" stop-color="#ffbb24"/></linearGradient><linearGradient xlink:href="#b" id="d" x1="5.988" x2="18" y1="6.004" y2="18.01" gradientTransform="matrix(.3984 0 0 .3978 -.61 .713)" gradientUnits="userSpaceOnUse"/></defs><g stroke-width=".398"><path fill="url(#c)" d="M4.166 1.31a.597.597 0 0 0-.597.597v.398l.003.058a.597.597 0 0 0 1.191-.058v-.398L4.76 1.85a.597.597 0 0 0-.594-.54zm2.56 1.047a.6.6 0 0 0-.45.177l-.28.282-.042.046a.597.597 0 0 0 .887.799l.28-.282.041-.045a.597.597 0 0 0-.436-.977m-5.084.002a.6.6 0 0 0-.432.175.597.597 0 0 0 0 .845l.281.282.046.04a.597.597 0 0 0 .8-.886l-.282-.281-.046-.04a.6.6 0 0 0-.367-.135zM.583 4.893l-.058.003a.597.597 0 0 0 .058 1.191h.398l.058-.003a.597.597 0 0 0-.058-1.19zm6.767 0-.058.003a.597.597 0 0 0 .058 1.191h.398l.058-.003a.597.597 0 0 0-.058-1.19zm-5.41 2.25a.6.6 0 0 0-.45.177l-.28.281-.041.046a.597.597 0 0 0 .885.8l.282-.282.041-.046a.597.597 0 0 0-.437-.977zm4.486.002a.6.6 0 0 0-.431.175.597.597 0 0 0 0 .845l.28.281.047.04a.597.597 0 0 0 .8-.885l-.282-.282-.046-.04a.6.6 0 0 0-.368-.135zm-2.261.933a.597.597 0 0 0-.597.597v.398l.003.058a.597.597 0 0 0 1.191-.058v-.398l-.003-.058a.597.597 0 0 0-.594-.54z" transform="translate(.009 -.219)scale(1.001)"/><path fill="url(#d)" d="M4.166 3.101a2.39 2.39 0 0 0-2.068 1.194c-.92 1.592.23 3.583 2.068 3.583a2.39 2.39 0 0 0 2.068-1.194c.92-1.592-.23-3.583-2.068-3.583" transform="translate(.009 -.219)scale(1.001)"/></g><path fill="url(#e)" d="M23.88 7.979a11.99 11.99 0 0 0-11.52 9.651 12.3 12.3 0 0 0-.239 2.381v.855a5.994 5.994 0 1 0-2.997 11.13h26.97a8.992 8.992 0 0 0 0-17.98 9.6 9.6 0 0 0-1.497.134 11.99 11.99 0 0 0-10.71-6.173z" transform="translate(-1.597 -3.102)scale(.52583)"/><path fill="url(#f)" d="M22.42 29c-.558 0-1.131.39-1.354.92L18.5 35.89c-.153.362-.14.74.054 1.032a1.03 1.03 0 0 0 .867.447h1.478l-2.36 6.723c-.222.627-.123 1.157.281 1.435a.84.84 0 0 0 .474.155c.251 0 .585-.114.975-.477l7.351-7.279c.656-.628.547-1.158.477-1.368-.153-.363-.504-.586-.964-.586h-1.52l2.9-5.495a1.12 1.12 0 0 0-.054-1.032 1.02 1.02 0 0 0-.866-.446z" transform="translate(-1.597 -3.102)scale(.52583)"/><path fill="url(#g)" d="M17.12 14.33a.1.1 0 0 0-.069.028q-.099.098-.207.198l-.172.163a3 3 0 0 0-.373.414c-.218.3-.343.656-.169 1.075.165.396.563.658.99.658.429 0 .826-.262.992-.658.174-.42.048-.775-.17-1.075a3 3 0 0 0-.373-.414l-.173-.163a9 9 0 0 1-.207-.197.1.1 0 0 0-.07-.029z" style="-inkscape-stroke:none;font-variation-settings:normal" transform="translate(.003 -.004)scale(1.001)"/><path fill="url(#j)" d="M13.75 17.48a.1.1 0 0 0-.069.028q-.099.098-.207.198l-.172.163a3 3 0 0 0-.373.414c-.218.3-.343.656-.169 1.075.165.396.563.658.99.658.429 0 .826-.262.992-.658.174-.42.048-.775-.17-1.075a3 3 0 0 0-.373-.414l-.173-.163a9 9 0 0 1-.207-.197.1.1 0 0 0-.07-.029z" style="-inkscape-stroke:none;font-variation-settings:normal" transform="translate(.003 -.004)scale(1.001)"/><path fill="url(#l)" d="M6.347 14.33a.1.1 0 0 0-.069.028q-.099.098-.207.198l-.172.163a3 3 0 0 0-.373.414c-.218.3-.343.656-.169 1.075.165.396.563.658.99.658.429 0 .826-.262.992-.658.174-.42.048-.775-.17-1.075a3 3 0 0 0-.373-.414l-.173-.163a9 9 0 0 1-.207-.197.1.1 0 0 0-.07-.029z" style="-inkscape-stroke:none;font-variation-settings:normal" transform="translate(.003 -.004)scale(1.001)"/><path fill="url(#m)" d="M2.887 17.48a.1.1 0 0 0-.069.028q-.099.098-.207.198l-.173.163a3 3 0 0 0-.372.414c-.218.3-.343.656-.169 1.075.165.396.563.658.99.658.429 0 .826-.262.991-.658.175-.42.05-.775-.17-1.075a3 3 0 0 0-.372-.414l-.173-.163a9 9 0 0 1-.207-.197.1.1 0 0 0-.07-.029z" style="-inkscape-stroke:none;font-variation-settings:normal" transform="translate(.003 -.004)scale(1.001)"/></svg>