<svg version="1.1" viewBox="0 0 22 22" xmlns="http://www.w3.org/2000/svg">
 <defs>
  <linearGradient id="c" x1="1" x2="0" y1="1">
   <stop stop-color="#7f00ff" offset="0"/>
   <stop stop-color="#f0f" offset="1"/>
  </linearGradient>
  <linearGradient id="a" x1="1.197" x2="1.197" y1="12.89" y2="56" gradientTransform="matrix(.4639 0 0 .3065 .445 .443)" gradientUnits="userSpaceOnUse">
   <stop stop-color="#00b5ff" offset="0"/>
   <stop stop-color="#050aff" offset="1"/>
  </linearGradient>
 </defs>
 <path transform="translate(0 5e-4) scale(1) translate(0 -.688) scale(1.375)" d="M8 1C5.929 1 4.165 2.268 3.406 4.062A3.98 3.98 0 0 0 0 8a4 4 0 0 0 4 4h1v-1a1 1 0 0 1 .293-.707L7 8.586V8H5a1 1 0 0 1-1-1V5a1 1 0 0 1 1-1h5a1 1 0 0 1 1 1v4c0 .266-.105.521-.293.709L9 11.416V12h3.5A3.5 3.5 0 0 0 16 8.5a3.49 3.49 0 0 0-3.094-3.469A5.01 5.01 0 0 0 8 1" fill="url(#a)" opacity=".6" style="-inkscape-stroke:none;font-variation-settings:normal"/>
 <path transform="translate(0 5e-4) scale(1) translate(0 -.688) scale(1.375)" d="M5 5v2h3v2l-2 2v2h2v-2l2-2V5zm1 9v2h2v-2z" fill="url(#c)" style="-inkscape-stroke:none;font-variation-settings:normal"/>
</svg>
