<svg version="1.1" viewBox="0 0 22 22" xmlns="http://www.w3.org/2000/svg" xmlns:xlink="http://www.w3.org/1999/xlink">
 <defs>
  <linearGradient id="s" x1="7.142" x2="7.153" y1="1.963" y2="-4.063" gradientTransform="matrix(.3727 0 0 .4222 14.55 17.49)" gradientUnits="userSpaceOnUse" xlink:href="#a"/>
  <linearGradient id="a" x1="3.092" x2="11.25" y1="20.19" y2="12.03" gradientTransform="matrix(.5731 0 0 .6491 1.564 4.864)" gradientUnits="userSpaceOnUse">
   <stop stop-color="#248efe" offset="0"/>
   <stop stop-color="#1df4ff" offset=".92"/>
  </linearGradient>
  <linearGradient id="b" x2="0" y1="1">
   <stop stop-color="#033bda" offset="0"/>
   <stop stop-color="#0b81fc" offset="1"/>
  </linearGradient>
  <linearGradient id="r" x1="7.142" x2="7.153" y1="1.963" y2="-4.063" gradientTransform="matrix(.3727 0 0 .4222 12.67 14.66)" gradientUnits="userSpaceOnUse" xlink:href="#a"/>
  <linearGradient id="o" x1="7.142" x2="7.153" y1="1.963" y2="-4.063" gradientTransform="matrix(.3727 0 0 .4222 2.315 17.6)" gradientUnits="userSpaceOnUse" xlink:href="#a"/>
  <linearGradient id="k" x1="7.142" x2="7.153" y1="1.963" y2="-4.063" gradientTransform="matrix(.3727 0 0 .4222 .43 14.78)" gradientUnits="userSpaceOnUse" xlink:href="#a"/>
  <linearGradient id="h" x1="19.52" x2="19.52" y1="34.95" y2="30.51" gradientTransform="matrix(.4333 0 0 .5121 -2.548 -2.628)" gradientUnits="userSpaceOnUse" xlink:href="#b"/>
  <linearGradient id="p" x1="36.92" x2="36.92" y1="34.95" y2="30.51" gradientTransform="matrix(.4333 0 0 .5121 2.152 -2.739)" gradientUnits="userSpaceOnUse" xlink:href="#b"/>
  <linearGradient id="i" x1="6.477" x2="6.477" y1="40.47" y2="36.03" gradientTransform="matrix(.4333 0 0 .5121 -2.548 -2.628)" gradientUnits="userSpaceOnUse" xlink:href="#b"/>
  <linearGradient id="q" x1="23.87" x2="23.87" y1="40.47" y2="36.03" gradientTransform="matrix(.4333 0 0 .5121 2.152 -2.739)" gradientUnits="userSpaceOnUse" xlink:href="#b"/>
  <linearGradient id="t" x1="10.13" x2="10.13" y1="8.383" y2="16.22" gradientTransform="matrix(.6845 0 0 1.118 1.099 1.195)" gradientUnits="userSpaceOnUse">
   <stop stop-color="#f7f206" offset=".039"/>
   <stop stop-color="#ffbb24" offset=".974"/>
  </linearGradient>
  <linearGradient id="g" x1="1" x2="0" y1=".5" y2=".5">
   <stop stop-color="#033bda" offset="0"/>
   <stop stop-color="#0b81fc" offset="1"/>
  </linearGradient>
  <linearGradient id="c" y1=".5" y2=".5">
   <stop stop-color="#033bda" offset="0"/>
   <stop stop-color="#0b81fc" offset="1"/>
  </linearGradient>
  <linearGradient id="e" x1="1" x2="0" y2="1">
   <stop stop-color="#c50ed2" offset="0"/>
   <stop stop-color="#8500f7" offset=".983"/>
  </linearGradient>
 </defs>
 <path transform="translate(-.002998 -.00089) scale(1) translate(0 1.663) scale(.9994)" d="M9.499-.65a6.78 6.78 0 0 0-6.341 4.38 4.24 4.24 0 0 0 1.079 8.338h10.52a4.239 4.239 0 0 0 1.088-8.336A6.785 6.785 0 0 0 9.504-.65z" fill="url(#c)"/>
 <path transform="translate(-.002998 -.00089) scale(1) translate(0 1.663) scale(.9994)" d="m13.68 0 .008.002a4.97 4.97 0 0 0-3.915 1.901A2.801 2.801 0 0 0 4.786 4.01 4.06 4.06 0 0 0 .003 8.007a4.063 4.063 0 0 0 4.058 4.06H17.8a3.654 3.654 0 0 0 3.644-3.656h.003a3.655 3.655 0 0 0-2.786-3.548A4.99 4.99 0 0 0 13.68 0z" fill="url(#e)"/>
 <path transform="translate(-.002998 -.00089) scale(1) translate(0 1.663) scale(.9994)" d="M13.01 1.779a5.135 5.135 0 0 0-4.935 4.134 5.3 5.3 0 0 0-.103 1.019v.366a2.568 2.568 0 1 0-1.284 4.769h11.56a3.852 3.852 0 0 0 0-7.702 4 4 0 0 0-.642.059 5.14 5.14 0 0 0-4.585-2.644z" fill="url(#g)"/>
 <path transform="translate(-.002998 -.00089) scale(1) translate(0 1.663) scale(.9994)" d="M6.873 13a.1.1 0 0 0-.062.026q-.088.086-.186.177-.074.07-.154.146a3 3 0 0 0-.334.371c-.196.269-.308.588-.152.964.148.355.505.59.889.59s.74-.235.888-.59c.156-.376.044-.695-.152-.964a3 3 0 0 0-.334-.371l-.156-.147a8 8 0 0 1-.186-.177.1.1 0 0 0-.061-.025z" fill="url(#h)" style="-inkscape-stroke:none;font-variation-settings:normal"/>
 <path transform="translate(-.002998 -.00089) scale(1) translate(0 1.663) scale(.9994)" d="M1.22 15.82a.1.1 0 0 0-.062.026q-.088.087-.186.177-.074.07-.154.146a3 3 0 0 0-.334.371c-.196.269-.308.588-.152.964.148.355.505.59.889.59s.74-.235.888-.59c.156-.376.044-.695-.152-.964a3 3 0 0 0-.334-.371l-.156-.147a8 8 0 0 1-.186-.177.1.1 0 0 0-.061-.025z" fill="url(#i)" style="-inkscape-stroke:none;font-variation-settings:normal"/>
 <path transform="translate(-.002998 -.00089) scale(1) translate(0 1.663) scale(.9994)" d="M3.096 13.06a.49.49 0 0 0-.351.144l-.759.78q-.143.142-.143.346c0 .204.047.252.143.35l.759.78a.47.47 0 0 0 .347.144.49.49 0 0 0 .351-.144l.779-.78q.144-.142.144-.346c0-.204-.048-.253-.144-.35l-.779-.78a.47.47 0 0 0-.347-.144" fill="url(#k)" style="-inkscape-stroke:none;font-variation-settings:normal"/>
 <path transform="translate(-.002998 -.00089) scale(1) translate(0 1.663) scale(.9994)" d="M4.981 15.88a.49.49 0 0 0-.351.144l-.759.78q-.143.142-.143.346c0 .204.047.252.143.35l.759.78a.47.47 0 0 0 .347.144.49.49 0 0 0 .351-.144l.779-.78q.144-.142.144-.346c0-.204-.048-.253-.144-.35l-.779-.78a.47.47 0 0 0-.347-.144" fill="url(#o)" style="-inkscape-stroke:none;font-variation-settings:normal"/>
 <path transform="translate(-.002998 -.00089) scale(1) translate(0 1.663) scale(.9994)" d="M19.11 12.89a.1.1 0 0 0-.062.026q-.089.087-.186.177-.074.07-.154.146a3 3 0 0 0-.334.371c-.196.269-.308.588-.152.964.148.355.505.59.889.59s.74-.235.888-.59c.156-.376.044-.695-.152-.964a3 3 0 0 0-.334-.371l-.156-.147a8 8 0 0 1-.186-.177.1.1 0 0 0-.061-.025z" fill="url(#p)" style="-inkscape-stroke:none;font-variation-settings:normal"/>
 <path transform="translate(-.002998 -.00089) scale(1) translate(0 1.663) scale(.9994)" d="M13.46 15.71a.1.1 0 0 0-.062.026q-.088.087-.186.177-.074.07-.154.146a3 3 0 0 0-.334.371c-.196.269-.308.588-.152.964.148.355.505.59.889.59s.74-.235.888-.59c.156-.376.044-.695-.152-.964a3 3 0 0 0-.334-.371l-.156-.147a8 8 0 0 1-.186-.177.1.1 0 0 0-.061-.025z" fill="url(#q)" style="-inkscape-stroke:none;font-variation-settings:normal"/>
 <path transform="translate(-.002998 -.00089) scale(1) translate(0 1.663) scale(.9994)" d="M15.33 12.95a.49.49 0 0 0-.351.144l-.759.78q-.144.142-.143.346c0 .204.047.252.143.35l.759.78a.47.47 0 0 0 .347.144.49.49 0 0 0 .351-.144l.779-.78q.144-.142.144-.346c0-.204-.048-.253-.144-.35l-.779-.78a.47.47 0 0 0-.347-.144" fill="url(#r)" style="-inkscape-stroke:none;font-variation-settings:normal"/>
 <path transform="translate(-.002998 -.00089) scale(1) translate(0 1.663) scale(.9994)" d="M17.22 15.77a.49.49 0 0 0-.351.144l-.759.78q-.144.142-.143.346c0 .204.047.252.143.35l.759.78a.47.47 0 0 0 .347.144.49.49 0 0 0 .351-.144l.779-.78q.144-.142.144-.346c0-.204-.048-.253-.144-.35l-.779-.78a.47.47 0 0 0-.347-.144" fill="url(#s)" style="-inkscape-stroke:none;font-variation-settings:normal"/>
 <path transform="translate(-.002998 -.00089) scale(1) translate(0 1.663) scale(.9994)" d="M10.15 10.57a.81.81 0 0 0-.711.484L8.09 14.189c-.08.19-.074.388.028.542a.54.54 0 0 0 .455.235h.777l-1.24 3.532c-.116.33-.064.607.148.753a.44.44 0 0 0 .25.082c.131 0 .306-.06.511-.25l3.861-3.825c.345-.33.288-.608.25-.718-.08-.19-.264-.308-.506-.308h-.798l1.524-2.887a.59.59 0 0 0-.029-.542.54.54 0 0 0-.455-.235z" fill="url(#t)"/>
</svg>
