<svg xmlns="http://www.w3.org/2000/svg" xmlns:xlink="http://www.w3.org/1999/xlink" viewBox="0 0 22 22"><defs><linearGradient id="a" y2="1"><stop offset=".03" stop-color="#f7f206"/><stop offset=".987" stop-color="#ffbb24"/></linearGradient><linearGradient xlink:href="#a" id="b" x1="1.512" x2="22.5" y1="1.499" y2="22.48" gradientTransform="translate(-1.577 -1.572)scale(1.048)" gradientUnits="userSpaceOnUse"/><linearGradient xlink:href="#a" id="d" x1="5.988" x2="18" y1="6.004" y2="18.01" gradientTransform="matrix(1.049 0 0 1.047 -1.577 -1.572)" gradientUnits="userSpaceOnUse"/><linearGradient id="e" x1="1.197" x2="1.197" y1="12.89" y2="56" gradientTransform="matrix(.4639 0 0 .3065 .445 .443)" gradientUnits="userSpaceOnUse"><stop offset="0" stop-color="#00b5ff"/><stop offset="1" stop-color="#050aff"/></linearGradient></defs><g stroke-width="1.048"><path fill="url(#b)" d="M11 0a1.57 1.57 0 0 0-1.572 1.572V2.62l.008.151a1.572 1.572 0 0 0 3.135-.151V1.572l-.008-.151A1.57 1.57 0 0 0 11 0zm6.74 2.755a1.57 1.57 0 0 0-1.183.467l-.74.74-.11.121a1.572 1.572 0 0 0 2.335 2.104l.74-.74.107-.121a1.572 1.572 0 0 0-1.148-2.57zm-13.38.006a1.57 1.57 0 0 0-1.138.46 1.57 1.57 0 0 0 0 2.226l.74.74.122.109a1.572 1.572 0 0 0 2.104-2.334l-.741-.741-.121-.106a1.57 1.57 0 0 0-.966-.355zm-2.787 6.67-.151.008a1.572 1.572 0 0 0 .151 3.135h1.048l.151-.008a1.572 1.572 0 0 0-.151-3.135zm17.81 0-.151.008a1.572 1.572 0 0 0 .151 3.135h1.048l.151-.008a1.572 1.572 0 0 0-.151-3.135zm-14.24 5.921a1.57 1.57 0 0 0-1.183.467l-.74.74-.107.121a1.572 1.572 0 0 0 2.332 2.104l.74-.74.109-.121a1.572 1.572 0 0 0-1.151-2.57zm11.81.006a1.57 1.57 0 0 0-1.136.46 1.57 1.57 0 0 0 0 2.226l.74.74.122.107a1.572 1.572 0 0 0 2.104-2.332l-.741-.74-.121-.11a1.57 1.57 0 0 0-.968-.351zm-5.952 2.456a1.57 1.57 0 0 0-1.572 1.572v1.048l.008.152a1.572 1.572 0 0 0 3.135-.152v-1.048l-.008-.151A1.57 1.57 0 0 0 11 17.814z" transform="translate(8.354 1.764)scale(.6208)"/><path fill="url(#d)" d="M11 4.715a6.29 6.29 0 0 0-5.444 3.144C3.135 12.051 6.16 17.29 11 17.29a6.29 6.29 0 0 0 5.444-3.144C18.865 9.954 15.84 4.715 11 4.715" transform="translate(8.354 1.764)scale(.6208)"/></g><path fill="url(#e)" d="M10.09 4.395c-3.261 0-6.011 2.572-6.267 5.867-1.715.468-2.819 1.909-2.819 3.65 0 2.192 1.644 3.694 4.065 3.694h10.97c2.802 0 4.966-2.121 4.966-4.834 0-2.749-2.262-4.808-5.256-4.781-1.131-2.28-3.208-3.597-5.656-3.597z" transform="translate(-1.048 1.793)scale(1.048)"/></svg>