<svg xmlns="http://www.w3.org/2000/svg" xmlns:xlink="http://www.w3.org/1999/xlink" viewBox="0 0 22 22"><defs><linearGradient xlink:href="#a" id="x" x1="7.142" x2="7.153" y1="1.963" y2="-4.063" gradientTransform="matrix(.3727 0 0 .4222 14.55 17.49)" gradientUnits="userSpaceOnUse"/><linearGradient id="a" x1="3.092" x2="11.25" y1="20.19" y2="12.03" gradientTransform="matrix(.5731 0 0 .6491 1.564 4.864)" gradientUnits="userSpaceOnUse"><stop offset="0" stop-color="#248efe"/><stop offset=".92" stop-color="#1df4ff"/></linearGradient><linearGradient id="b" x2="0" y1="1"><stop offset="0" stop-color="#033bda"/><stop offset="1" stop-color="#0b81fc"/></linearGradient><linearGradient xlink:href="#a" id="w" x1="7.142" x2="7.153" y1="1.963" y2="-4.063" gradientTransform="matrix(.3727 0 0 .4222 12.67 14.66)" gradientUnits="userSpaceOnUse"/><linearGradient xlink:href="#a" id="t" x1="7.142" x2="7.153" y1="1.963" y2="-4.063" gradientTransform="matrix(.3727 0 0 .4222 2.315 17.6)" gradientUnits="userSpaceOnUse"/><linearGradient xlink:href="#a" id="s" x1="7.142" x2="7.153" y1="1.963" y2="-4.063" gradientTransform="matrix(.3727 0 0 .4222 .43 14.78)" gradientUnits="userSpaceOnUse"/><linearGradient xlink:href="#b" id="k" x1="19.52" x2="19.52" y1="34.95" y2="30.51" gradientTransform="matrix(.4333 0 0 .5121 -2.548 -2.628)" gradientUnits="userSpaceOnUse"/><linearGradient xlink:href="#b" id="u" x1="36.92" x2="36.92" y1="34.95" y2="30.51" gradientTransform="matrix(.4333 0 0 .5121 2.152 -2.739)" gradientUnits="userSpaceOnUse"/><linearGradient xlink:href="#b" id="r" x1="6.477" x2="6.477" y1="40.47" y2="36.03" gradientTransform="matrix(.4333 0 0 .5121 -2.548 -2.628)" gradientUnits="userSpaceOnUse"/><linearGradient xlink:href="#b" id="v" x1="23.87" x2="23.87" y1="40.47" y2="36.03" gradientTransform="matrix(.4333 0 0 .5121 2.152 -2.739)" gradientUnits="userSpaceOnUse"/><linearGradient id="y" x1="10.13" x2="10.13" y1="8.383" y2="16.22" gradientTransform="matrix(.6845 0 0 1.118 1.099 1.195)" gradientUnits="userSpaceOnUse"><stop offset=".039" stop-color="#f7f206"/><stop offset=".974" stop-color="#ffbb24"/></linearGradient><linearGradient id="j" x1="1" x2="0" y1=".5" y2=".5"><stop offset="0" stop-color="#033bda"/><stop offset="1" stop-color="#0b81fc"/></linearGradient><linearGradient id="h" y1=".5" y2=".5"><stop offset="0" stop-color="#033bda"/><stop offset="1" stop-color="#0b81fc"/></linearGradient><linearGradient id="i" x1="1" x2="0" y2="1"><stop offset="0" stop-color="#c50ed2"/><stop offset=".983" stop-color="#8500f7"/></linearGradient><linearGradient xlink:href="#c" id="e" x1="1.512" x2="22.5" y1="1.499" y2="22.48" gradientTransform="matrix(.398 0 0 .3982 -.61 .713)" gradientUnits="userSpaceOnUse"/><linearGradient id="c" y2="1"><stop offset=".03" stop-color="#f7f206"/><stop offset=".987" stop-color="#ffbb24"/></linearGradient><linearGradient xlink:href="#c" id="g" x1="5.988" x2="18" y1="6.004" y2="18.01" gradientTransform="matrix(.3984 0 0 .3978 -.61 .713)" gradientUnits="userSpaceOnUse"/></defs><g stroke-width=".398"><path fill="url(#e)" d="M4.166 1.31a.597.597 0 0 0-.597.597v.398l.003.058a.597.597 0 0 0 1.191-.058v-.398L4.76 1.85a.597.597 0 0 0-.594-.54zm2.56 1.047a.6.6 0 0 0-.45.177l-.28.282-.042.046a.597.597 0 0 0 .887.799l.28-.282.041-.045a.597.597 0 0 0-.436-.977m-5.084.002a.6.6 0 0 0-.432.175.597.597 0 0 0 0 .845l.281.282.046.04a.597.597 0 0 0 .8-.886l-.282-.281-.046-.04a.6.6 0 0 0-.367-.135zM.583 4.893l-.058.003a.597.597 0 0 0 .058 1.191h.398l.058-.003a.597.597 0 0 0-.058-1.19zm6.767 0-.058.003a.597.597 0 0 0 .058 1.191h.398l.058-.003a.597.597 0 0 0-.058-1.19zm-5.41 2.25a.6.6 0 0 0-.45.177l-.28.281-.041.046a.597.597 0 0 0 .885.8l.282-.282.041-.046a.597.597 0 0 0-.437-.977zm4.486.002a.6.6 0 0 0-.431.175.597.597 0 0 0 0 .845l.28.281.047.04a.597.597 0 0 0 .8-.885l-.282-.282-.046-.04a.6.6 0 0 0-.368-.135zm-2.261.933a.597.597 0 0 0-.597.597v.398l.003.058a.597.597 0 0 0 1.191-.058v-.398l-.003-.058a.597.597 0 0 0-.594-.54z" transform="translate(13.657 -.802)scale(.9998)"/><path fill="url(#g)" d="M4.166 3.101a2.39 2.39 0 0 0-2.068 1.194c-.92 1.592.23 3.583 2.068 3.583a2.39 2.39 0 0 0 2.068-1.194c.92-1.592-.23-3.583-2.068-3.583" transform="translate(13.657 -.802)scale(.9998)"/></g><path fill="url(#h)" d="M9.499-.65a6.78 6.78 0 0 0-6.341 4.38 4.24 4.24 0 0 0 1.079 8.338h10.52a4.239 4.239 0 0 0 1.088-8.336A6.785 6.785 0 0 0 9.504-.65z" transform="translate(0 2.17)scale(.9994)"/><path fill="url(#i)" d="m13.68 0 .008.002a4.97 4.97 0 0 0-3.915 1.901A2.801 2.801 0 0 0 4.786 4.01 4.06 4.06 0 0 0 .003 8.007a4.063 4.063 0 0 0 4.058 4.06H17.8a3.654 3.654 0 0 0 3.644-3.656h.003a3.655 3.655 0 0 0-2.786-3.548A4.99 4.99 0 0 0 13.68 0z" transform="translate(0 2.17)scale(.9994)"/><path fill="url(#j)" d="M13.01 1.779a5.135 5.135 0 0 0-4.935 4.134 5.3 5.3 0 0 0-.103 1.019v.366a2.568 2.568 0 1 0-1.284 4.769h11.56a3.852 3.852 0 0 0 0-7.702 4 4 0 0 0-.642.059 5.14 5.14 0 0 0-4.585-2.644z" transform="translate(0 2.17)scale(.9994)"/><path fill="url(#k)" d="M6.873 13a.1.1 0 0 0-.062.026q-.088.086-.186.177-.074.07-.154.146a3 3 0 0 0-.334.371c-.196.269-.308.588-.152.964.148.355.505.59.889.59s.74-.235.888-.59c.156-.376.044-.695-.152-.964a3 3 0 0 0-.334-.371l-.156-.147a8 8 0 0 1-.186-.177.1.1 0 0 0-.061-.025z" style="-inkscape-stroke:none;font-variation-settings:normal" transform="translate(0 2.17)scale(.9994)"/><path fill="url(#r)" d="M1.22 15.82a.1.1 0 0 0-.062.026q-.088.087-.186.177-.074.07-.154.146a3 3 0 0 0-.334.371c-.196.269-.308.588-.152.964.148.355.505.59.889.59s.74-.235.888-.59c.156-.376.044-.695-.152-.964a3 3 0 0 0-.334-.371l-.156-.147a8 8 0 0 1-.186-.177.1.1 0 0 0-.061-.025z" style="-inkscape-stroke:none;font-variation-settings:normal" transform="translate(0 2.17)scale(.9994)"/><path fill="url(#s)" d="M3.096 13.06a.49.49 0 0 0-.351.144l-.759.78q-.143.142-.143.346c0 .204.047.252.143.35l.759.78a.47.47 0 0 0 .347.144.49.49 0 0 0 .351-.144l.779-.78q.144-.142.144-.346c0-.204-.048-.253-.144-.35l-.779-.78a.47.47 0 0 0-.347-.144" style="-inkscape-stroke:none;font-variation-settings:normal" transform="translate(0 2.17)scale(.9994)"/><path fill="url(#t)" d="M4.981 15.88a.49.49 0 0 0-.351.144l-.759.78q-.143.142-.143.346c0 .204.047.252.143.35l.759.78a.47.47 0 0 0 .347.144.49.49 0 0 0 .351-.144l.779-.78q.144-.142.144-.346c0-.204-.048-.253-.144-.35l-.779-.78a.47.47 0 0 0-.347-.144" style="-inkscape-stroke:none;font-variation-settings:normal" transform="translate(0 2.17)scale(.9994)"/><path fill="url(#u)" d="M19.11 12.89a.1.1 0 0 0-.062.026q-.089.087-.186.177-.074.07-.154.146a3 3 0 0 0-.334.371c-.196.269-.308.588-.152.964.148.355.505.59.889.59s.74-.235.888-.59c.156-.376.044-.695-.152-.964a3 3 0 0 0-.334-.371l-.156-.147a8 8 0 0 1-.186-.177.1.1 0 0 0-.061-.025z" style="-inkscape-stroke:none;font-variation-settings:normal" transform="translate(0 2.17)scale(.9994)"/><path fill="url(#v)" d="M13.46 15.71a.1.1 0 0 0-.062.026q-.088.087-.186.177-.074.07-.154.146a3 3 0 0 0-.334.371c-.196.269-.308.588-.152.964.148.355.505.59.889.59s.74-.235.888-.59c.156-.376.044-.695-.152-.964a3 3 0 0 0-.334-.371l-.156-.147a8 8 0 0 1-.186-.177.1.1 0 0 0-.061-.025z" style="-inkscape-stroke:none;font-variation-settings:normal" transform="translate(0 2.17)scale(.9994)"/><path fill="url(#w)" d="M15.33 12.95a.49.49 0 0 0-.351.144l-.759.78q-.144.142-.143.346c0 .204.047.252.143.35l.759.78a.47.47 0 0 0 .347.144.49.49 0 0 0 .351-.144l.779-.78q.144-.142.144-.346c0-.204-.048-.253-.144-.35l-.779-.78a.47.47 0 0 0-.347-.144" style="-inkscape-stroke:none;font-variation-settings:normal" transform="translate(0 2.17)scale(.9994)"/><path fill="url(#x)" d="M17.22 15.77a.49.49 0 0 0-.351.144l-.759.78q-.144.142-.143.346c0 .204.047.252.143.35l.759.78a.47.47 0 0 0 .347.144.49.49 0 0 0 .351-.144l.779-.78q.144-.142.144-.346c0-.204-.048-.253-.144-.35l-.779-.78a.47.47 0 0 0-.347-.144" style="-inkscape-stroke:none;font-variation-settings:normal" transform="translate(0 2.17)scale(.9994)"/><path fill="url(#y)" d="M10.15 10.57a.81.81 0 0 0-.711.484L8.09 14.189c-.08.19-.074.388.028.542a.54.54 0 0 0 .455.235h.777l-1.24 3.532c-.116.33-.064.607.148.753a.44.44 0 0 0 .25.082c.131 0 .306-.06.511-.25l3.861-3.825c.345-.33.288-.608.25-.718-.08-.19-.264-.308-.506-.308h-.798l1.524-2.887a.59.59 0 0 0-.029-.542.54.54 0 0 0-.455-.235z" transform="translate(0 2.17)scale(.9994)"/></svg>