<svg version="1.1" viewBox="0 0 22 22" xmlns="http://www.w3.org/2000/svg" xmlns:xlink="http://www.w3.org/1999/xlink">
 <defs>
  <linearGradient id="i" x1="10.13" x2="10.13" y1="8.383" y2="16.22" gradientTransform="matrix(.6845 0 0 1.118 1.099 1.195)" gradientUnits="userSpaceOnUse">
   <stop stop-color="#f7f206" offset=".039"/>
   <stop stop-color="#ffbb24" offset=".974"/>
  </linearGradient>
  <linearGradient id="h" x1="1" x2="0" y1=".5" y2=".5">
   <stop stop-color="#033bda" offset="0"/>
   <stop stop-color="#0b81fc" offset="1"/>
  </linearGradient>
  <linearGradient id="f" y1=".5" y2=".5">
   <stop stop-color="#033bda" offset="0"/>
   <stop stop-color="#0b81fc" offset="1"/>
  </linearGradient>
  <linearGradient id="g" x1="1" x2="0" y2="1">
   <stop stop-color="#c50ed2" offset="0"/>
   <stop stop-color="#8500f7" offset=".983"/>
  </linearGradient>
  <linearGradient id="c" x1="1.512" x2="22.5" y1="1.499" y2="22.48" gradientTransform="matrix(.398 0 0 .3982 -.61 .713)" gradientUnits="userSpaceOnUse" xlink:href="#a"/>
  <linearGradient id="a" y2="1">
   <stop stop-color="#f7f206" offset=".03"/>
   <stop stop-color="#ffbb24" offset=".987"/>
  </linearGradient>
  <linearGradient id="d" x1="5.988" x2="18" y1="6.004" y2="18.01" gradientTransform="matrix(.3984 0 0 .3978 -.61 .713)" gradientUnits="userSpaceOnUse" xlink:href="#a"/>
  <linearGradient id="b">
   <stop stop-color="#abdaf9" offset="0"/>
   <stop stop-color="#e1f2ff" offset="1"/>
  </linearGradient>
  <linearGradient id="j" x1="412" x2="412" y1="512.6" y2="509.8" gradientTransform="translate(-312.3 -395.5)scale(.8043)" gradientUnits="userSpaceOnUse" xlink:href="#b"/>
  <linearGradient id="p" x1="412" x2="412" y1="512.6" y2="509.8" gradientTransform="translate(-314.1 -392.5)scale(.8043)" gradientUnits="userSpaceOnUse" xlink:href="#b"/>
  <linearGradient id="q" x1="412" x2="412" y1="512.6" y2="509.8" gradientTransform="translate(-316 -395.3)scale(.8043)" gradientUnits="userSpaceOnUse" xlink:href="#b"/>
  <linearGradient id="r" x1="412" x2="412" y1="512.6" y2="509.8" gradientTransform="translate(-317.9 -392.7)scale(.8043)" gradientUnits="userSpaceOnUse" xlink:href="#b"/>
  <linearGradient id="s" x1="412" x2="412" y1="512.6" y2="509.8" gradientTransform="translate(-324.5 -395.4)scale(.8043)" gradientUnits="userSpaceOnUse" xlink:href="#b"/>
  <linearGradient id="t" x1="412" x2="412" y1="512.6" y2="509.8" gradientTransform="translate(-326.4 -392.4)scale(.8043)" gradientUnits="userSpaceOnUse" xlink:href="#b"/>
  <linearGradient id="u" x1="412" x2="412" y1="512.6" y2="509.8" gradientTransform="translate(-328.3 -395.2)scale(.8043)" gradientUnits="userSpaceOnUse" xlink:href="#b"/>
  <linearGradient id="v" x1="412" x2="412" y1="512.6" y2="509.8" gradientTransform="translate(-330.1 -392.6)scale(.8043)" gradientUnits="userSpaceOnUse" xlink:href="#b"/>
 </defs>
 <g transform="translate(-.002998 -.001588) scale(1)" stroke-width=".398">
  <path transform="translate(13.657 -.802)scale(.9998)" d="M4.166 1.31a.597.597 0 0 0-.597.597v.398l.003.058a.597.597 0 0 0 1.191-.058v-.398L4.76 1.85a.597.597 0 0 0-.594-.54zm2.56 1.047a.6.6 0 0 0-.45.177l-.28.282-.042.046a.597.597 0 0 0 .887.799l.28-.282.041-.045a.597.597 0 0 0-.436-.977m-5.084.002a.6.6 0 0 0-.432.175.597.597 0 0 0 0 .845l.281.282.046.04a.597.597 0 0 0 .8-.886l-.282-.281-.046-.04a.6.6 0 0 0-.367-.135zM.583 4.893l-.058.003a.597.597 0 0 0 .058 1.191h.398l.058-.003a.597.597 0 0 0-.058-1.19zm6.767 0-.058.003a.597.597 0 0 0 .058 1.191h.398l.058-.003a.597.597 0 0 0-.058-1.19zm-5.41 2.25a.6.6 0 0 0-.45.177l-.28.281-.041.046a.597.597 0 0 0 .885.8l.282-.282.041-.046a.597.597 0 0 0-.437-.977zm4.486.002a.6.6 0 0 0-.431.175.597.597 0 0 0 0 .845l.28.281.047.04a.597.597 0 0 0 .8-.885l-.282-.282-.046-.04a.6.6 0 0 0-.368-.135zm-2.261.933a.597.597 0 0 0-.597.597v.398l.003.058a.597.597 0 0 0 1.191-.058v-.398l-.003-.058a.597.597 0 0 0-.594-.54z" fill="url(#c)"/>
  <path transform="translate(13.657 -.802)scale(.9998)" d="M4.166 3.101a2.39 2.39 0 0 0-2.068 1.194c-.92 1.592.23 3.583 2.068 3.583a2.39 2.39 0 0 0 2.068-1.194c.92-1.592-.23-3.583-2.068-3.583" fill="url(#d)"/>
 </g>
 <path transform="translate(-.002998 -.001588) scale(1) translate(0 2.17) scale(.9994)" d="M9.499-.65a6.78 6.78 0 0 0-6.341 4.38 4.24 4.24 0 0 0 1.079 8.338h10.52a4.239 4.239 0 0 0 1.088-8.336A6.785 6.785 0 0 0 9.504-.65z" fill="url(#f)"/>
 <path transform="translate(-.002998 -.001588) scale(1) translate(0 2.17) scale(.9994)" d="m13.68 0 .008.002a4.97 4.97 0 0 0-3.915 1.901A2.801 2.801 0 0 0 4.786 4.01 4.06 4.06 0 0 0 .003 8.007a4.063 4.063 0 0 0 4.058 4.06H17.8a3.654 3.654 0 0 0 3.644-3.656h.003a3.655 3.655 0 0 0-2.786-3.548A4.99 4.99 0 0 0 13.68 0z" fill="url(#g)"/>
 <path transform="translate(-.002998 -.001588) scale(1) translate(0 2.17) scale(.9994)" d="M13.01 1.779a5.135 5.135 0 0 0-4.935 4.134 5.3 5.3 0 0 0-.103 1.019v.366a2.568 2.568 0 1 0-1.284 4.769h11.56a3.852 3.852 0 0 0 0-7.702 4 4 0 0 0-.642.059 5.14 5.14 0 0 0-4.585-2.644z" fill="url(#h)"/>
 <path transform="translate(-.002998 -.001588) scale(1) translate(0 2.17) scale(.9994)" d="M10.15 10.57a.81.81 0 0 0-.711.484L8.09 14.189c-.08.19-.074.388.028.542a.54.54 0 0 0 .455.235h.777l-1.24 3.532c-.116.33-.064.607.148.753a.44.44 0 0 0 .25.082c.131 0 .306-.06.511-.25l3.861-3.825c.345-.33.288-.608.25-.718-.08-.19-.264-.308-.506-.308h-.798l1.524-2.887a.59.59 0 0 0-.029-.542.54.54 0 0 0-.455-.235z" fill="url(#i)"/>
 <path transform="translate(-.002998 -.001588) scale(1) translate(0 .507) scale(.9998)" d="m19.1 14.55a1.136 1.136 0 1 0 0 2.272 1.136 1.136 0 0 0 0-2.272" fill="url(#j)" style="-inkscape-stroke:none;font-variation-settings:normal"/>
 <path transform="translate(-.002998 -.001588) scale(1) translate(0 .507) scale(.9998)" d="m17.22 17.56a1.136 1.136 0 1 0 0 2.272 1.136 1.136 0 0 0 0-2.272" fill="url(#p)" style="-inkscape-stroke:none;font-variation-settings:normal"/>
 <path transform="translate(-.002998 -.001588) scale(1) translate(0 .507) scale(.9998)" d="m15.33 14.74a1.136 1.136 0 1 0 0 2.272 1.136 1.136 0 0 0 0-2.272" fill="url(#q)" style="-inkscape-stroke:none;font-variation-settings:normal"/>
 <path transform="translate(-.002998 -.001588) scale(1) translate(0 .507) scale(.9998)" d="m13.46 17.37a1.136 1.136 0 1 0 0 2.272 1.136 1.136 0 0 0 0-2.272" fill="url(#r)" style="-inkscape-stroke:none;font-variation-settings:normal"/>
 <path transform="translate(-.002998 -.001588) scale(1) translate(0 .507) scale(.9998)" d="m6.871 14.66a1.136 1.136 0 1 0 0 2.272 1.136 1.136 0 0 0 0-2.272" fill="url(#s)" style="-inkscape-stroke:none;font-variation-settings:normal"/>
 <path transform="translate(-.002998 -.001588) scale(1) translate(0 .507) scale(.9998)" d="m4.987 17.67a1.136 1.136 0 1 0 0 2.272 1.136 1.136 0 0 0 0-2.272" fill="url(#t)" style="-inkscape-stroke:none;font-variation-settings:normal"/>
 <path transform="translate(-.002998 -.001588) scale(1) translate(0 .507) scale(.9998)" d="m3.103 14.85a1.136 1.136 0 1 0 0 2.272 1.136 1.136 0 0 0 0-2.272" fill="url(#u)" style="-inkscape-stroke:none;font-variation-settings:normal"/>
 <path transform="translate(-.002998 -.001588) scale(1) translate(0 .507) scale(.9998)" d="m1.22 17.48a1.136 1.136 0 1 0 0 2.272 1.136 1.136 0 0 0 0-2.272" fill="url(#v)" style="-inkscape-stroke:none;font-variation-settings:normal"/>
</svg>
