<svg version="1.1" viewBox="0 0 22 22" xmlns="http://www.w3.org/2000/svg" xmlns:xlink="http://www.w3.org/1999/xlink">
 <defs>
  <linearGradient id="a" x1="3.092" x2="11.25" y1="20.19" y2="12.03" gradientTransform="matrix(.5731 0 0 .6491 1.564 4.864)" gradientUnits="userSpaceOnUse">
   <stop stop-color="#248efe" offset="0"/>
   <stop stop-color="#1df4ff" offset=".92"/>
  </linearGradient>
  <linearGradient id="c" x1="7.142" x2="7.153" y1="1.963" y2="-4.063" gradientTransform="matrix(.4141 0 0 .4691 1.757 16.47)" gradientUnits="userSpaceOnUse" xlink:href="#a"/>
  <linearGradient id="f" x1="7.142" x2="7.153" y1="1.963" y2="-4.063" gradientTransform="matrix(.4141 0 0 .4691 10.13 16.47)" gradientUnits="userSpaceOnUse" xlink:href="#a"/>
  <linearGradient id="g" x1="7.142" x2="7.153" y1="1.963" y2="-4.063" gradientTransform="matrix(.4141 0 0 .4691 3.849 19.4)" gradientUnits="userSpaceOnUse" xlink:href="#a"/>
  <linearGradient id="h" x1="7.142" x2="7.153" y1="1.963" y2="-4.063" gradientTransform="matrix(.4141 0 0 .4691 12.22 19.4)" gradientUnits="userSpaceOnUse" xlink:href="#a"/>
  <linearGradient id="b" x1="50.35" x2="50.74" y1="24.58" y2="103" gradientTransform="matrix(.4639 0 0 .3065 .445 .443)" gradientUnits="userSpaceOnUse">
   <stop stop-color="#00b5ff" offset="0"/>
   <stop stop-color="#050aff" offset="1"/>
  </linearGradient>
  <linearGradient id="i" x1="7.142" x2="7.153" y1="1.963" y2="-4.063" gradientTransform="matrix(.4141 0 0 .4691 14.32 16.47)" gradientUnits="userSpaceOnUse" xlink:href="#a"/>
  <linearGradient id="j" x1="7.142" x2="7.153" y1="1.963" y2="-4.063" gradientTransform="matrix(.4141 0 0 .4691 8.036 19.4)" gradientUnits="userSpaceOnUse" xlink:href="#a"/>
  <linearGradient id="l" x1="7.142" x2="7.153" y1="1.963" y2="-4.063" gradientTransform="matrix(.4141 0 0 .4691 5.942 16.47)" gradientUnits="userSpaceOnUse" xlink:href="#a"/>
  <linearGradient id="m" x1="7.142" x2="7.153" y1="1.963" y2="-4.063" gradientTransform="matrix(.4141 0 0 .4691 -.34 19.4)" gradientUnits="userSpaceOnUse" xlink:href="#a"/>
 </defs>
 <path transform="translate(-5.4e-5 -.0014) scale(.9999) translate(-1.55 -2.716) scale(.525)" d="M23.8 7.977a11.99 11.99 0 0 0-11.53 9.652 12.3 12.3 0 0 0-.239 2.38v.856a5.993 5.993 0 1 0-2.996 11.13h26.97a8.991 8.991 0 0 0 0-17.98 9.6 9.6 0 0 0-1.498.134 11.99 11.99 0 0 0-10.72-6.173z" fill="url(#b)" style="-inkscape-stroke:none;font-variation-settings:normal"/>
 <path transform="translate(-5.4e-5 -.0014) scale(.9999) translate(.009 .157) scale(1.003)" d="M4.719 14.57a.54.54 0 0 0-.39.16l-.843.866q-.16.16-.16.385c0 .225.053.28.16.39l.843.866q.16.16.386.16a.54.54 0 0 0 .39-.16l.865-.867q.16-.159.16-.384c0-.225-.054-.281-.16-.39l-.865-.867a.53.53 0 0 0-.386-.159" fill="url(#c)" style="-inkscape-stroke:none;font-variation-settings:normal"/>
 <path transform="translate(-5.4e-5 -.0014) scale(.9999) translate(.009 .157) scale(1.003)" d="M13.09 14.57a.54.54 0 0 0-.39.16l-.843.866q-.16.16-.16.385c0 .225.053.28.16.39l.843.866q.16.16.386.16a.54.54 0 0 0 .39-.16l.865-.867q.16-.159.16-.384c0-.225-.054-.281-.16-.39l-.865-.867a.53.53 0 0 0-.386-.159" fill="url(#f)" style="-inkscape-stroke:none;font-variation-settings:normal"/>
 <path transform="translate(-5.4e-5 -.0014) scale(.9999) translate(.009 .157) scale(1.003)" d="M6.811 17.49a.54.54 0 0 0-.39.16l-.843.866q-.16.16-.16.385c0 .225.053.28.16.39l.843.866q.16.16.386.16a.54.54 0 0 0 .39-.16l.865-.867q.16-.159.16-.384c0-.225-.054-.281-.16-.39l-.865-.867a.53.53 0 0 0-.386-.159" fill="url(#g)" style="-inkscape-stroke:none;font-variation-settings:normal"/>
 <path transform="translate(-5.4e-5 -.0014) scale(.9999) translate(.009 .157) scale(1.003)" d="M15.19 17.49a.54.54 0 0 0-.39.16l-.843.866q-.16.16-.16.385c0 .225.053.28.16.39l.843.866q.16.16.386.16a.54.54 0 0 0 .39-.16l.865-.867q.16-.159.16-.384c0-.225-.054-.281-.16-.39l-.865-.867a.53.53 0 0 0-.386-.159" fill="url(#h)" style="-inkscape-stroke:none;font-variation-settings:normal"/>
 <path transform="translate(-5.4e-5 -.0014) scale(.9999) translate(.009 .157) scale(1.003)" d="M17.28 14.57a.54.54 0 0 0-.39.16l-.843.866q-.16.16-.16.385c0 .225.053.28.16.39l.843.866q.16.16.386.16a.54.54 0 0 0 .39-.16l.865-.867q.16-.159.16-.384c0-.225-.054-.281-.16-.39l-.865-.867a.53.53 0 0 0-.386-.159" fill="url(#i)" style="-inkscape-stroke:none;font-variation-settings:normal"/>
 <path transform="translate(-5.4e-5 -.0014) scale(.9999) translate(.009 .157) scale(1.003)" d="M11 17.49a.54.54 0 0 0-.39.16l-.843.866q-.16.16-.16.385c0 .225.053.28.16.39l.843.866q.16.16.386.16a.54.54 0 0 0 .39-.16l.865-.867q.16-.159.16-.384c0-.225-.054-.281-.16-.39l-.865-.867A.53.53 0 0 0 11 17.49" fill="url(#j)" style="-inkscape-stroke:none;font-variation-settings:normal"/>
 <path transform="translate(-5.4e-5 -.0014) scale(.9999) translate(.009 .157) scale(1.003)" d="M8.905 14.57a.54.54 0 0 0-.39.16l-.843.866q-.16.16-.16.385c0 .225.053.28.16.39l.843.866q.16.16.386.16a.54.54 0 0 0 .39-.16l.865-.867q.16-.159.16-.384c0-.225-.054-.281-.16-.39l-.865-.867a.53.53 0 0 0-.386-.159" fill="url(#l)" style="-inkscape-stroke:none;font-variation-settings:normal"/>
 <path transform="translate(-5.4e-5 -.0014) scale(.9999) translate(.009 .157) scale(1.003)" d="M2.623 17.49a.54.54 0 0 0-.39.16l-.843.866q-.16.16-.16.385c0 .225.053.28.16.39l.843.866q.16.16.386.16a.54.54 0 0 0 .39-.16l.865-.867q.16-.159.16-.384c0-.225-.054-.281-.16-.39l-.865-.867a.53.53 0 0 0-.386-.159" fill="url(#m)" style="-inkscape-stroke:none;font-variation-settings:normal"/>
</svg>
