<svg version="1.1" viewBox="0 0 22 22" xmlns="http://www.w3.org/2000/svg" xmlns:xlink="http://www.w3.org/1999/xlink">
 <defs>
  <linearGradient id="f" x1="10.13" x2="10.13" y1="8.383" y2="16.22" gradientTransform="matrix(.6845 0 0 1.118 1.099 1.195)" gradientUnits="userSpaceOnUse">
   <stop stop-color="#f7f206" offset=".039"/>
   <stop stop-color="#ffbb24" offset=".974"/>
  </linearGradient>
  <linearGradient id="e" x1="1" x2="0" y1=".5" y2=".5">
   <stop stop-color="#033bda" offset="0"/>
   <stop stop-color="#0b81fc" offset="1"/>
  </linearGradient>
  <linearGradient id="c" y1=".5" y2=".5">
   <stop stop-color="#033bda" offset="0"/>
   <stop stop-color="#0b81fc" offset="1"/>
  </linearGradient>
  <linearGradient id="d" x1="1" x2="0" y2="1">
   <stop stop-color="#c50ed2" offset="0"/>
   <stop stop-color="#8500f7" offset=".983"/>
  </linearGradient>
  <linearGradient id="a">
   <stop stop-color="#abdaf9" offset="0"/>
   <stop stop-color="#e1f2ff" offset="1"/>
  </linearGradient>
  <linearGradient id="g" x1="412" x2="412" y1="512.6" y2="509.8" gradientTransform="translate(-312.3 -395.5)scale(.8043)" gradientUnits="userSpaceOnUse" xlink:href="#a"/>
  <linearGradient id="h" x1="412" x2="412" y1="512.6" y2="509.8" gradientTransform="translate(-314.1 -392.5)scale(.8043)" gradientUnits="userSpaceOnUse" xlink:href="#a"/>
  <linearGradient id="n" x1="412" x2="412" y1="512.6" y2="509.8" gradientTransform="translate(-316 -395.3)scale(.8043)" gradientUnits="userSpaceOnUse" xlink:href="#a"/>
  <linearGradient id="o" x1="412" x2="412" y1="512.6" y2="509.8" gradientTransform="translate(-317.9 -392.7)scale(.8043)" gradientUnits="userSpaceOnUse" xlink:href="#a"/>
  <linearGradient id="p" x1="412" x2="412" y1="512.6" y2="509.8" gradientTransform="translate(-324.5 -395.4)scale(.8043)" gradientUnits="userSpaceOnUse" xlink:href="#a"/>
  <linearGradient id="q" x1="412" x2="412" y1="512.6" y2="509.8" gradientTransform="translate(-326.4 -392.4)scale(.8043)" gradientUnits="userSpaceOnUse" xlink:href="#a"/>
  <linearGradient id="r" x1="412" x2="412" y1="512.6" y2="509.8" gradientTransform="translate(-328.3 -395.2)scale(.8043)" gradientUnits="userSpaceOnUse" xlink:href="#a"/>
  <linearGradient id="s" x1="412" x2="412" y1="512.6" y2="509.8" gradientTransform="translate(-330.1 -392.6)scale(.8043)" gradientUnits="userSpaceOnUse" xlink:href="#a"/>
  <linearGradient id="b" x1="19.22" x2=".009" y1="11.07" y2="11.07" gradientTransform="matrix(.4378 0 0 .4546 -.292 -.118)" gradientUnits="userSpaceOnUse">
   <stop stop-color="#6c00bf" offset="0"/>
   <stop stop-color="#f0f" offset="1"/>
  </linearGradient>
 </defs>
 <path transform="translate(-.002998 -.001651) scale(1) translate(0 .259) scale(.9998)" d="M4.441.497a4.136 4.136 0 1 0 3.565 6.424.276.276 0 0 0-.287-.422A3.309 3.309 0 0 1 4.649.972a.276.276 0 0 0-.207-.467z" fill="url(#b)" style="-inkscape-stroke:none;font-variation-settings:normal"/>
 <path transform="translate(-.002998 -.001651) scale(1) translate(0 1.922) scale(.9994)" d="M9.499-.65a6.78 6.78 0 0 0-6.341 4.38 4.24 4.24 0 0 0 1.079 8.338h10.52a4.239 4.239 0 0 0 1.088-8.336A6.785 6.785 0 0 0 9.504-.65z" fill="url(#c)"/>
 <path transform="translate(-.002998 -.001651) scale(1) translate(0 1.922) scale(.9994)" d="m13.68 0 .008.002a4.97 4.97 0 0 0-3.915 1.901A2.801 2.801 0 0 0 4.786 4.01 4.06 4.06 0 0 0 .003 8.007a4.063 4.063 0 0 0 4.058 4.06H17.8a3.654 3.654 0 0 0 3.644-3.656h.003a3.655 3.655 0 0 0-2.786-3.548A4.99 4.99 0 0 0 13.68 0z" fill="url(#d)"/>
 <path transform="translate(-.002998 -.001651) scale(1) translate(0 1.922) scale(.9994)" d="M13.01 1.779a5.135 5.135 0 0 0-4.935 4.134 5.3 5.3 0 0 0-.103 1.019v.366a2.568 2.568 0 1 0-1.284 4.769h11.56a3.852 3.852 0 0 0 0-7.702 4 4 0 0 0-.642.059 5.14 5.14 0 0 0-4.585-2.644z" fill="url(#e)"/>
 <path transform="translate(-.002998 -.001651) scale(1) translate(0 1.922) scale(.9994)" d="M10.15 10.57a.81.81 0 0 0-.711.484L8.09 14.189c-.08.19-.074.388.028.542a.54.54 0 0 0 .455.235h.777l-1.24 3.532c-.116.33-.064.607.148.753a.44.44 0 0 0 .25.082c.131 0 .306-.06.511-.25l3.861-3.825c.345-.33.288-.608.25-.718-.08-.19-.264-.308-.506-.308h-.798l1.524-2.887a.59.59 0 0 0-.029-.542.54.54 0 0 0-.455-.235z" fill="url(#f)"/>
 <path transform="translate(-.002998 -.001651) scale(1) translate(0 .259) scale(.9998)" d="m19.1 14.55a1.136 1.136 0 1 0 0 2.272 1.136 1.136 0 0 0 0-2.272" fill="url(#g)" style="-inkscape-stroke:none;font-variation-settings:normal"/>
 <path transform="translate(-.002998 -.001651) scale(1) translate(0 .259) scale(.9998)" d="m17.22 17.56a1.136 1.136 0 1 0 0 2.272 1.136 1.136 0 0 0 0-2.272" fill="url(#h)" style="-inkscape-stroke:none;font-variation-settings:normal"/>
 <path transform="translate(-.002998 -.001651) scale(1) translate(0 .259) scale(.9998)" d="m15.33 14.74a1.136 1.136 0 1 0 0 2.272 1.136 1.136 0 0 0 0-2.272" fill="url(#n)" style="-inkscape-stroke:none;font-variation-settings:normal"/>
 <path transform="translate(-.002998 -.001651) scale(1) translate(0 .259) scale(.9998)" d="m13.46 17.37a1.136 1.136 0 1 0 0 2.272 1.136 1.136 0 0 0 0-2.272" fill="url(#o)" style="-inkscape-stroke:none;font-variation-settings:normal"/>
 <path transform="translate(-.002998 -.001651) scale(1) translate(0 .259) scale(.9998)" d="m6.871 14.66a1.136 1.136 0 1 0 0 2.272 1.136 1.136 0 0 0 0-2.272" fill="url(#p)" style="-inkscape-stroke:none;font-variation-settings:normal"/>
 <path transform="translate(-.002998 -.001651) scale(1) translate(0 .259) scale(.9998)" d="m4.987 17.67a1.136 1.136 0 1 0 0 2.272 1.136 1.136 0 0 0 0-2.272" fill="url(#q)" style="-inkscape-stroke:none;font-variation-settings:normal"/>
 <path transform="translate(-.002998 -.001651) scale(1) translate(0 .259) scale(.9998)" d="m3.103 14.85a1.136 1.136 0 1 0 0 2.272 1.136 1.136 0 0 0 0-2.272" fill="url(#r)" style="-inkscape-stroke:none;font-variation-settings:normal"/>
 <path transform="translate(-.002998 -.001651) scale(1) translate(0 .259) scale(.9998)" d="m1.22 17.48a1.136 1.136 0 1 0 0 2.272 1.136 1.136 0 0 0 0-2.272" fill="url(#s)" style="-inkscape-stroke:none;font-variation-settings:normal"/>
</svg>
