<svg xmlns="http://www.w3.org/2000/svg" xmlns:xlink="http://www.w3.org/1999/xlink" viewBox="0 0 22 22"><defs><linearGradient id="e" x1="50.35" x2="50.74" y1="24.58" y2="103" gradientTransform="matrix(.4639 0 0 .3065 .445 .443)" gradientUnits="userSpaceOnUse"><stop offset="0" stop-color="#00b5ff"/><stop offset="1" stop-color="#050aff"/></linearGradient><linearGradient id="b" y2="1"><stop offset=".03" stop-color="#f7f206"/><stop offset=".987" stop-color="#ffbb24"/></linearGradient><linearGradient id="a"><stop offset="0" stop-color="#abdaf9"/><stop offset="1" stop-color="#e1f2ff"/></linearGradient><linearGradient xlink:href="#a" id="f" x1="412" x2="412" y1="512.6" y2="509.8" gradientTransform="translate(-409.4 -492.3)" gradientUnits="userSpaceOnUse"/><linearGradient xlink:href="#a" id="g" x1="412" x2="412" y1="512.6" y2="509.8" gradientTransform="translate(-407.3 -495.2)" gradientUnits="userSpaceOnUse"/><linearGradient xlink:href="#a" id="h" x1="412" x2="412" y1="512.6" y2="509.8" gradientTransform="translate(-405.2 -492.3)" gradientUnits="userSpaceOnUse"/><linearGradient xlink:href="#a" id="i" x1="412" x2="412" y1="512.6" y2="509.8" gradientTransform="translate(-403.1 -495.2)" gradientUnits="userSpaceOnUse"/><linearGradient xlink:href="#a" id="m" x1="412" x2="412" y1="512.6" y2="509.8" gradientTransform="translate(-401 -492.3)" gradientUnits="userSpaceOnUse"/><linearGradient xlink:href="#a" id="n" x1="412" x2="412" y1="512.6" y2="509.8" gradientTransform="translate(-398.9 -495.2)" gradientUnits="userSpaceOnUse"/><linearGradient xlink:href="#a" id="o" x1="412" x2="412" y1="512.6" y2="509.8" gradientTransform="translate(-396.8 -492.3)" gradientUnits="userSpaceOnUse"/><linearGradient xlink:href="#a" id="p" x1="412" x2="412" y1="512.6" y2="509.8" gradientTransform="translate(-394.7 -495.2)" gradientUnits="userSpaceOnUse"/><linearGradient xlink:href="#b" id="c" x1="1.512" x2="22.5" y1="1.499" y2="22.48" gradientTransform="matrix(.398 0 0 .3982 -.61 .713)" gradientUnits="userSpaceOnUse"/><linearGradient xlink:href="#b" id="d" x1="5.988" x2="18" y1="6.004" y2="18.01" gradientTransform="matrix(.3984 0 0 .3978 -.61 .713)" gradientUnits="userSpaceOnUse"/></defs><g stroke-width=".398"><path fill="url(#c)" d="M4.166 1.31a.597.597 0 0 0-.597.597v.398l.003.058a.597.597 0 0 0 1.191-.058v-.398L4.76 1.85a.597.597 0 0 0-.594-.54zm2.56 1.047a.6.6 0 0 0-.45.177l-.28.282-.042.046a.597.597 0 0 0 .887.799l.28-.282.041-.045a.597.597 0 0 0-.436-.977m-5.084.002a.6.6 0 0 0-.432.175.597.597 0 0 0 0 .845l.281.282.046.04a.597.597 0 0 0 .8-.886l-.282-.281-.046-.04a.6.6 0 0 0-.367-.135zM.583 4.893l-.058.003a.597.597 0 0 0 .058 1.191h.398l.058-.003a.597.597 0 0 0-.058-1.19zm6.767 0-.058.003a.597.597 0 0 0 .058 1.191h.398l.058-.003a.597.597 0 0 0-.058-1.19zm-5.41 2.25a.6.6 0 0 0-.45.177l-.28.281-.041.046a.597.597 0 0 0 .885.8l.282-.282.041-.046a.597.597 0 0 0-.437-.977zm4.486.002a.6.6 0 0 0-.431.175.597.597 0 0 0 0 .845l.28.281.047.04a.597.597 0 0 0 .8-.885l-.282-.282-.046-.04a.6.6 0 0 0-.368-.135zm-2.261.933a.597.597 0 0 0-.597.597v.398l.003.058a.597.597 0 0 0 1.191-.058v-.398l-.003-.058a.597.597 0 0 0-.594-.54z" transform="translate(.009 .157)scale(1.003)"/><path fill="url(#d)" d="M4.166 3.101a2.39 2.39 0 0 0-2.068 1.194c-.92 1.592.23 3.583 2.068 3.583a2.39 2.39 0 0 0 2.068-1.194c.92-1.592-.23-3.583-2.068-3.583" transform="translate(.009 .157)scale(1.003)"/></g><path fill="url(#e)" d="M23.8 7.977a11.99 11.99 0 0 0-11.53 9.652 12.3 12.3 0 0 0-.239 2.38v.856a5.993 5.993 0 1 0-2.996 11.13h26.97a8.991 8.991 0 0 0 0-17.98 9.6 9.6 0 0 0-1.498.134 11.99 11.99 0 0 0-10.72-6.173z" style="-inkscape-stroke:none;font-variation-settings:normal" transform="translate(-1.55 -2.716)scale(.525)"/><path fill="url(#f)" d="M2.632 17.49a1.413 1.413 0 1 0 0 2.826 1.413 1.413 0 0 0 0-2.826" style="-inkscape-stroke:none;font-variation-settings:normal" transform="translate(.009 .157)scale(1.003)"/><path fill="url(#g)" d="M4.728 14.57a1.413 1.413 0 1 0 0 2.826 1.413 1.413 0 0 0 0-2.826" style="-inkscape-stroke:none;font-variation-settings:normal" transform="translate(.009 .157)scale(1.003)"/><path fill="url(#h)" d="M6.82 17.49a1.413 1.413 0 1 0 0 2.826 1.413 1.413 0 0 0 0-2.826" style="-inkscape-stroke:none;font-variation-settings:normal" transform="translate(.009 .157)scale(1.003)"/><path fill="url(#i)" d="M8.915 14.57a1.413 1.413 0 1 0 0 2.826 1.413 1.413 0 0 0 0-2.826" style="-inkscape-stroke:none;font-variation-settings:normal" transform="translate(.009 .157)scale(1.003)"/><path fill="url(#m)" d="M11.01 17.49a1.413 1.413 0 1 0 0 2.826 1.413 1.413 0 0 0 0-2.826" style="-inkscape-stroke:none;font-variation-settings:normal" transform="translate(.009 .157)scale(1.003)"/><path fill="url(#n)" d="M13.1 14.57a1.413 1.413 0 1 0 0 2.826 1.413 1.413 0 0 0 0-2.826" style="-inkscape-stroke:none;font-variation-settings:normal" transform="translate(.009 .157)scale(1.003)"/><path fill="url(#o)" d="M15.2 17.49a1.413 1.413 0 1 0 0 2.826 1.413 1.413 0 0 0 0-2.826" style="-inkscape-stroke:none;font-variation-settings:normal" transform="translate(.009 .157)scale(1.003)"/><path fill="url(#p)" d="M17.29 14.57a1.413 1.413 0 1 0 0 2.826 1.413 1.413 0 0 0 0-2.826" style="-inkscape-stroke:none;font-variation-settings:normal" transform="translate(.009 .157)scale(1.003)"/></svg>