<svg version="1.1" viewBox="0 0 22 22" xmlns="http://www.w3.org/2000/svg">
 <defs>
  <linearGradient id="c" x1="50.35" x2="50.74" y1="24.58" y2="103" gradientTransform="matrix(.4639 0 0 .3065 .445 .443)" gradientUnits="userSpaceOnUse">
   <stop stop-color="#00b5ff" offset="0"/>
   <stop stop-color="#050aff" offset="1"/>
  </linearGradient>
  <linearGradient id="d" y1="1">
   <stop stop-color="#248efe" offset="0"/>
   <stop stop-color="#1df4ff" offset=".92"/>
  </linearGradient>
  <linearGradient id="a" x1="19.22" x2=".009" y1="11.07" y2="11.07" gradientTransform="matrix(.4153 0 0 .4313 .43 .726)" gradientUnits="userSpaceOnUse">
   <stop stop-color="#6c00bf" offset="0"/>
   <stop stop-color="#f0f" offset="1"/>
  </linearGradient>
 </defs>
 <path transform="translate(-5.4e-5 -.00103) scale(.9999) translate(.009 .232) scale(1.003)" d="M4.919 1.309a3.924 3.924 0 1 0 3.382 6.094.262.262 0 0 0-.273-.4 3.139 3.139 0 0 1-2.913-5.245.262.262 0 0 0-.196-.442z" fill="url(#a)" style="-inkscape-stroke:none;font-variation-settings:normal"/>
 <path transform="translate(-5.4e-5 -.00103) scale(.9999) translate(-1.55 -2.641) scale(.525)" d="M23.8 7.977a11.99 11.99 0 0 0-11.53 9.652 12.3 12.3 0 0 0-.239 2.38v.856a5.993 5.993 0 1 0-2.996 11.13h26.97a8.991 8.991 0 0 0 0-17.98 9.6 9.6 0 0 0-1.498.134 11.99 11.99 0 0 0-10.72-6.173z" fill="url(#c)" style="-inkscape-stroke:none;font-variation-settings:normal"/>
 <path transform="translate(-5.4e-5 -.00103) scale(.9999) translate(.009 .232) scale(1.003)" d="M17.29 14.72a.1.1 0 0 0-.068.028q-.099.098-.207.197l-.172.163a3 3 0 0 0-.371.412c-.217.299-.342.654-.168 1.071.164.395.56.656.987.656s.822-.261.987-.656c.173-.418.048-.772-.17-1.071a3 3 0 0 0-.37-.412l-.173-.163a9 9 0 0 1-.207-.196.1.1 0 0 0-.068-.029z" fill="url(#d)" style="-inkscape-stroke:none;font-variation-settings:normal"/>
 <path transform="translate(-5.4e-5 -.00103) scale(.9999) translate(.009 .232) scale(1.003)" d="M15.2 17.64a.1.1 0 0 0-.068.028q-.099.098-.207.197l-.172.163a3 3 0 0 0-.371.412c-.217.299-.342.654-.168 1.071.164.395.56.656.987.656s.822-.261.987-.656c.173-.418.048-.772-.17-1.07a3 3 0 0 0-.37-.413l-.173-.163a9 9 0 0 1-.207-.196.1.1 0 0 0-.068-.029z" fill="url(#d)" style="-inkscape-stroke:none;font-variation-settings:normal"/>
 <path transform="translate(-5.4e-5 -.00103) scale(.9999) translate(.009 .232) scale(1.003)" d="M11.01 17.64a.1.1 0 0 0-.068.028q-.099.098-.207.197l-.172.163a3 3 0 0 0-.371.412c-.217.299-.342.654-.168 1.071.164.395.56.656.987.656s.822-.261.987-.656c.173-.418.048-.772-.17-1.07a3 3 0 0 0-.37-.413l-.173-.163a9 9 0 0 1-.207-.196.1.1 0 0 0-.068-.029z" fill="url(#d)" style="-inkscape-stroke:none;font-variation-settings:normal"/>
 <path transform="translate(-5.4e-5 -.00103) scale(.9999) translate(.009 .232) scale(1.003)" d="M13.1 14.72a.1.1 0 0 0-.068.028q-.099.098-.207.197l-.172.163a3 3 0 0 0-.371.412c-.217.299-.342.654-.168 1.071.164.395.56.656.987.656s.822-.261.987-.656c.173-.418.048-.772-.17-1.071a3 3 0 0 0-.37-.412l-.173-.163a9 9 0 0 1-.207-.196.1.1 0 0 0-.068-.029z" fill="url(#d)" style="-inkscape-stroke:none;font-variation-settings:normal"/>
 <path transform="translate(-5.4e-5 -.00103) scale(.9999) translate(.009 .232) scale(1.003)" d="M8.914 14.72a.1.1 0 0 0-.068.028q-.099.098-.207.197l-.172.163a3 3 0 0 0-.371.412c-.217.299-.342.654-.168 1.071.164.395.56.656.987.656s.822-.261.987-.656c.173-.418.048-.772-.17-1.071a3 3 0 0 0-.37-.412l-.173-.163a9 9 0 0 1-.207-.196.1.1 0 0 0-.068-.029z" fill="url(#d)" style="-inkscape-stroke:none;font-variation-settings:normal"/>
 <path transform="translate(-5.4e-5 -.00103) scale(.9999) translate(.009 .232) scale(1.003)" d="M6.82 17.64a.1.1 0 0 0-.068.028q-.099.098-.207.197l-.172.163a3 3 0 0 0-.371.412c-.217.299-.342.654-.168 1.071.164.395.56.656.987.656s.822-.261.987-.656c.173-.418.048-.772-.17-1.07a3 3 0 0 0-.37-.413l-.173-.163a9 9 0 0 1-.207-.196.1.1 0 0 0-.068-.029z" fill="url(#d)" style="-inkscape-stroke:none;font-variation-settings:normal"/>
 <path transform="translate(-5.4e-5 -.00103) scale(.9999) translate(.009 .232) scale(1.003)" d="M4.728 14.72a.1.1 0 0 0-.068.028q-.099.098-.207.197l-.172.163a3 3 0 0 0-.371.412c-.217.299-.342.654-.168 1.071.164.395.56.656.987.656s.822-.261.987-.656c.173-.418.048-.772-.17-1.071a3 3 0 0 0-.37-.412l-.173-.163a9 9 0 0 1-.207-.196.1.1 0 0 0-.068-.029z" fill="url(#d)" style="-inkscape-stroke:none;font-variation-settings:normal"/>
 <path transform="translate(-5.4e-5 -.00103) scale(.9999) translate(.009 .232) scale(1.003)" d="M2.632 17.64a.1.1 0 0 0-.068.028q-.099.098-.207.197l-.172.163a3 3 0 0 0-.371.412c-.217.299-.342.654-.168 1.071.164.395.56.656.987.656s.822-.261.987-.656c.173-.418.048-.772-.17-1.07a3 3 0 0 0-.37-.413l-.173-.163a9 9 0 0 1-.207-.196.1.1 0 0 0-.068-.029z" fill="url(#d)" style="-inkscape-stroke:none;font-variation-settings:normal"/>
</svg>
