<svg xmlns="http://www.w3.org/2000/svg" xmlns:xlink="http://www.w3.org/1999/xlink" viewBox="0 0 22 22"><defs><linearGradient id="a"><stop offset="0" stop-color="#abdaf9"/><stop offset="1" stop-color="#e1f2ff"/></linearGradient><linearGradient id="b" x1="128.2" x2="128.3" y1="57.29" y2="98.3" gradientTransform="matrix(.8864 0 0 .5857 -89.75 -25.57)" gradientUnits="userSpaceOnUse"><stop offset="0" stop-color="#00b5ff"/><stop offset="1" stop-color="#050aff"/></linearGradient><linearGradient xlink:href="#a" id="c" x1="412" x2="412" y1="512.6" y2="509.8" gradientTransform="translate(-839.7 -1050)scale(2.123)" gradientUnits="userSpaceOnUse"/><linearGradient xlink:href="#a" id="e" x1="412" x2="412" y1="512.6" y2="509.8" gradientTransform="translate(-847.7 -1046)scale(2.123)" gradientUnits="userSpaceOnUse"/><linearGradient xlink:href="#a" id="f" x1="412" x2="412" y1="512.6" y2="509.8" gradientTransform="translate(-855.7 -1050)scale(2.123)" gradientUnits="userSpaceOnUse"/><linearGradient xlink:href="#a" id="g" x1="412" x2="412" y1="512.6" y2="509.8" gradientTransform="translate(-863.7 -1046)scale(2.123)" gradientUnits="userSpaceOnUse"/></defs><path fill="url(#b)" d="M23.88 7.979a11.99 11.99 0 0 0-11.53 9.653 12.3 12.3 0 0 0-.239 2.38v.856a5.994 5.994 0 1 0-2.996 11.13h26.97a8.992 8.992 0 0 0 0-17.98 9.6 9.6 0 0 0-1.498.134 11.99 11.99 0 0 0-10.72-6.174z" style="-inkscape-stroke:none;font-variation-settings:normal" transform="translate(-1.589 -2.255)scale(.5249)"/><path fill="url(#c)" d="M35 32.53a3 3 0 1 0 0 6 3 3 0 0 0 0-6" style="-inkscape-stroke:none;font-variation-settings:normal" transform="translate(-1.589 -2.255)scale(.5249)"/><path fill="url(#e)" d="M27 36.53a3 3 0 1 0 0 6 3 3 0 0 0 0-6" style="-inkscape-stroke:none;font-variation-settings:normal" transform="translate(-1.589 -2.255)scale(.5249)"/><path fill="url(#f)" d="M19 32.53a3 3 0 1 0 0 6 3 3 0 0 0 0-6" style="-inkscape-stroke:none;font-variation-settings:normal" transform="translate(-1.589 -2.255)scale(.5249)"/><path fill="url(#g)" d="M11 36.53a3 3 0 1 0 0 6 3 3 0 0 0 0-6" style="-inkscape-stroke:none;font-variation-settings:normal" transform="translate(-1.589 -2.255)scale(.5249)"/></svg>