<svg version="1.1" viewBox="0 0 22 22" xmlns="http://www.w3.org/2000/svg">
 <defs>
  <style>.ColorScheme-Text { color: #0abdc6; } .ColorScheme-Highlight { color:#5294e2; }</style>
  <linearGradient id="a" x1="1" x2="0" y2="1">
   <stop stop-color="#0f9" offset="0"/>
   <stop stop-color="#14dc57" offset="1"/>
  </linearGradient>
 </defs>
 <path transform="translate(.002686) scale(.3439) translate(-.8171 -.8171) scale(1.025)" d="m32 0.7972c-17.19 0-31.21 14.02-31.21 31.21 0 6.084 1.829 11.74 4.857 16.55l-2.994 8.956a3.3 3.3 0 0 0 4.173 4.179l9.093-3.032c4.707 2.846 10.19 4.558 16.08 4.558 4.057 0 7.938-0.7796 11.5-2.199-1.57-1.579-2.718-3.577-3.26-5.808-2.575 0.9115-5.349 1.406-8.239 1.406-5.152 0-9.903-1.579-13.86-4.28a3.3 3.3 0 0 0-2.906-0.4078l-4.226 1.408 1.38-4.125a3.3 3.3 0 0 0-0.444-2.959c-2.867-4.025-4.552-8.928-4.552-14.24 0-13.62 10.99-24.61 24.61-24.61l-0.001905-0.003811c13.62 0 24.61 10.99 24.61 24.61 0 2.892-0.4967 5.665-1.408 8.239 2.231 0.5423 4.229 1.691 5.808 3.26 1.419-3.561 2.199-7.443 2.199-11.5 0-17.19-14.02-31.21-31.21-31.21z" fill="url(#a)"/>
 <path transform="translate(.002686) scale(.3439) translate(-.8171 -.8171) scale(1.025)" d="m43.72 21.2c-0.712 0-1.361 0.102-1.98 0.2148a0.5 0.5 0 0 0-0.4082 0.4394c-0.3138 2.905-0.6288 5.775-1 8.604-0.05514 0.3519-0.1291 0.5816-0.2324 0.7617-0.09575 0.1555-0.1484 0.222-0.2578 0.2305a0.5 0.5 0 0 0-0.0059 0c-0.07833 0.0072-0.1747-0.05406-0.2246-0.1035a0.5 0.5 0 0 0-0.0078-0.02344c-0.07619-0.1015-0.1133-0.1672-0.1426-0.2402a0.5 0.5 0 0 0-0.02732-0.05468c-0.4585-1.602-0.9498-3.168-1.438-4.693v-2e-3c-0.4529-1.441-0.924-2.899-1.389-4.369a0.5 0.5 0 0 0-0.3926-0.3418c-0.7478-0.1267-1.512-0.2441-2.328-0.2441a0.5 0.5 0 0 0-0.01367 0 0.5 0.5 0 0 0-2e-3 0c-0.2849-0.0083-0.5343 0.01619-0.7559 0.03125l0.0059-2e-3c-1.041 0.05692-2.074 0.1255-3.086 0.209a0.5 0.5 0 0 0-0.4375 0.3555c-0.1738 0.582-0.3587 1.2-0.5644 1.961a0.5 0.5 0 0 0-2e-3 0.0039c-0.2313 0.8761-0.4723 1.762-0.7344 2.676-0.2586 0.8929-0.5335 1.803-0.7949 2.684a0.5 0.5 0 0 0-0.0078 0.04687c-0.2496 0.8531-0.5048 1.607-0.748 2.25a0.5 0.5 0 0 0-0.0059 0.02734c-0.0094 0.01064-0.08563 0.1012-0.1152 0.1152h-2e-3l-2e-3 2e-3h-6e-3c-0.0156 0.0048-0.02794 0.0086-0.03516 0.0098 0.0011-2.72e-4 -0.0034-4.67e-4 -0.01758 0-0.02928 9.63e-4 -0.07568-0.0049-0.168-0.02344a0.5 0.5 0 0 0-0.01563-2e-3c-0.115-0.03262-0.3107-0.2179-0.3301-0.3144a0.5 0.5 0 0 0-0.0332-0.06055c-0.2349-1.593-0.47-3.178-0.7302-4.738-0.2433-1.468-0.5006-2.914-0.7695-4.377a0.5 0.5 0 0 0-0.4102-0.4023c-0.8316-0.1398-1.662-0.2441-2.475-0.2441-0.3561 0-0.6782 0.03738-0.9824 0.06055a0.5 0.5 0 0 0-2e-3 0c-1.052 0.08308-2.065 0.2203-3.084 0.3906a0.5 0.5 0 0 0-0.4102 0.5801c0.3038 1.699 0.592 3.409 0.8223 5.115a0.5 0.5 0 0 0 0 2e-3c0.2622 1.876 0.5065 3.74 0.7695 5.613a0.5 0.5 0 0 0 2e-3 0c0.2629 1.863 0.5534 3.745 0.8555 5.621 0.2841 1.757 0.6363 3.51 1.01 5.279a0.5 0.5 0 0 0 0.4668 0.3965c0.642 0.02772 1.271 0.05728 1.856 0.08984 0.729 0.03958 1.443 0.05147 2.146 0.05859a0.5 0.5 0 0 0 0.0059 0h0.4434c0.5677 0 1.152-0.0043 1.762-0.0293a0.5 0.5 0 0 0 2e-3 0c0.6492-0.02734 1.361-0.07137 2.109-0.1211a0.5 0.5 0 0 0 0.4551-0.3867c0.17-0.7459 0.3155-1.468 0.498-2.205a0.5 0.5 0 0 0 2e-3 -2e-3c0.2131-0.8682 0.4458-1.709 0.6465-2.504v-2e-3c0.206-0.7916 0.3937-1.505 0.5606-2.148l2e-3 -0.0059c0.1716-0.6321 0.2841-1.152 0.373-1.52a0.5 0.5 0 0 0 0.03125-0.05078c0.08137-0.2606 0.1567-0.4275 0.2715-0.5762 0.1268-0.1604 0.245-0.2463 0.375-0.2539 0.0974-0.0057 0.2837 0.09133 0.3926 0.2148a0.5 0.5 0 0 0 0 2e-3c0.03106 0.03511 0.05937 0.07194 0.08594 0.1152 0.04219 0.06875 0.08182 0.1586 0.1172 0.2656 0.01221 0.03703 0.01995 0.05571 0.02148 0.05859v2e-3c0.01658 0.05641 0.03173 0.1174 0.04687 0.1875a0.5 0.5 0 0 0 0 0.0039c0.04797 0.2157 0.1136 0.5571 0.2012 1.043a0.5 0.5 0 0 0 0 2e-3c0.08418 0.4587 0.1686 0.9932 0.2617 1.566a0.5 0.5 0 0 0 0.0039 0.05469c0.1033 0.5803 0.2235 1.197 0.3242 1.824a0.5 0.5 0 0 0 2e-3 0.0059c0.1112 0.6431 0.2052 1.246 0.293 1.82 0.08849 0.5786 0.1738 1.07 0.2363 1.477a0.5 0.5 0 0 0 2e-3 0.0098c0.04067 0.2351 0.06451 0.3197 0.08789 0.4473a0.5 0.5 0 0 0 0.4922 0.4102c0.689-3.05e-4 1.363-0.02338 1.982-0.0293a0.5 0.5 0 0 0 2e-3 0c0.7795-0.0081 1.547-0.0286 2.32-0.06055 0.7726-0.03185 1.573-0.06946 2.369-0.1172 0.676-0.04072 1.397-0.09758 2.133-0.1504a0.5 0.5 0 0 0 0.4551-0.3984c0.1316-0.6499 0.2809-1.381 0.4453-2.312v-0.0039c0.1991-1.093 0.4067-2.292 0.6211-3.578l-2e-3 2e-3c0.2231-1.3 0.4298-2.644 0.6523-4.082 0.223-1.449 0.4304-2.911 0.6211-4.35v-2e-3c0.1986-1.437 0.3685-2.84 0.5039-4.209v-2e-3c0.123-1.191 0.2162-2.259 0.2693-3.272a0.5 0.5 0 0 0-0.457-0.5234c-0.9263-0.08024-1.84-0.1678-2.738-0.209l0.01172 2e-3c-0.2385-0.01643-0.4583-0.0084-0.6387-2e-3a0.5 0.5 0 0 0-0.01563 0z" fill="url(#a)"/>
 <path transform="translate(.002686) scale(.3439)" d="m52.77 41.58a11.2 11.2 0 0 0-11.2 11.2 11.2 11.2 0 0 0 11.2 11.2 11.2 11.2 0 0 0 11.2-11.2 11.2 11.2 0 0 0-11.2-11.2z" color="#5294e2" fill="#0ff" stroke-width="5.603"/>
</svg>
