<svg version="1.1" viewBox="0 0 64 64" xmlns="http://www.w3.org/2000/svg">
 <defs>
  <linearGradient id="a" x1=".986" x2=".986" y1="1.015" y2="20.71" gradientTransform="matrix(1.501 0 0 1.455 15.74 19.64)" gradientUnits="userSpaceOnUse">
   <stop stop-color="#f7f206" offset="0"/>
   <stop stop-color="#ffbb24" offset=".978"/>
  </linearGradient>
 </defs>
 <path transform="translate(0) scale(1) translate(0) scale(1) translate(0) scale(1) translate(-.000564 .00037) scale(1) translate(-.003 .001) scale(.9999)" d="M12.18 4.998c-1.318-.004-2.631.044-3.928.287-4.546.943-8.135 4.88-8.215 9.191-.058 11.26.005 22.53-.031 33.8-.027 1.664.163 3.364.945 4.883 1.659 3.496 5.668 5.875 9.809 5.834 14.31-.004 28.63.034 42.94-.016 5.406-.082 10.21-4.476 10.27-9.463.045-6.74.014-13.48.014-20.21.16-1.289-.904-2.573-2.326-2.66-1.45-.177-2.882.964-2.846 2.318-.05 6.027-.01 12.06-.02 18.09-.027 1.412.175 2.91-.527 4.223-.876 1.75-2.888 2.96-4.988 2.951-13.58.025-27.16-.005-40.74.016-1.292-.008-2.644.083-3.86-.394-2.042-.758-3.484-2.701-3.448-4.734-.022-10.86.009-21.7-.014-32.56.01-1.29-.108-2.658.549-3.848.957-1.878 3.202-3.061 5.445-2.926 3.264.07 6.548-.136 9.803.103 2.347 1.017 3.67 3.296 5.654 4.783 1.623 1.355 3.802 2.1 5.988 2.111 9.549.008 19.1.055 28.65.043 1.225.074 2.401-.755 2.629-1.87.416-1.442-.981-2.986-2.6-2.858-9.401-.053-18.81-.064-28.21-.064-.97.016-1.971-.19-2.744-.743-2.102-1.647-3.65-3.875-6.002-5.246-2.468-1.42-5.485-.937-8.238-1.016-1.312.04-2.635-.016-3.953-.02z" fill="url(#a)"/>
 <path transform="translate(0) scale(1) translate(0) scale(1) translate(0) scale(1) translate(-.000564 .00037) scale(1) translate(-.004) scale(.9999)" d="M32 21.12a4.465 4.465 0 0 0-4.252 3.101l-1.178 3.666c-.14.437-.546.734-1.005.734h-3.874a4.47 4.47 0 0 0-4.25 3.08 4.46 4.46 0 0 0-.003 2.757c.29.897.853 1.68 1.614 2.235l3.181 2.326c.368.27.521.742.381 1.175l-1.207 3.732a4.4 4.4 0 0 0 1.64 4.997 4.45 4.45 0 0 0 2.613.86 4.46 4.46 0 0 0 2.647-.883l3.07-2.26a1.05 1.05 0 0 1 1.25 0l3.072 2.257a4.47 4.47 0 0 0 5.259.03 4.5 4.5 0 0 0 1.635-2.236 4.46 4.46 0 0 0 .005-2.765l-1.207-3.732c-.14-.433.014-.906.381-1.175l3.178-2.326a4.467 4.467 0 0 0-2.636-8.073h-3.877c-.458 0-.864-.296-1.005-.733l-1.18-3.666a4.48 4.48 0 0 0-4.257-3.101z" fill="url(#a)"/>
</svg>
