<svg version="1.1" viewBox="0 0 64 64" xmlns="http://www.w3.org/2000/svg">
 <path transform="translate(0) scale(1) translate(0) scale(1) translate(-1e-6) scale(1) translate(.00031 .00014) scale(1)" d="M12.172 4.994c-1.318-.003-2.632.044-3.928.287-4.545.942-8.13 4.877-8.21 9.187-.058 11.258.004 22.526-.032 33.788-.026 1.664.16 3.364.943 4.884 1.658 3.495 5.667 5.872 9.806 5.831 14.301-.004 28.616.034 42.918-.016 5.403-.082 10.204-4.475 10.267-9.46.044-6.74.013-13.475.013-20.206.16-1.289-.904-2.571-2.325-2.658-1.447-.177-2.881.962-2.845 2.316-.05 6.026-.01 12.053-.019 18.074-.026 1.411.173 2.91-.528 4.222-.876 1.75-2.887 2.96-4.988 2.953-13.568.025-27.15-.005-40.732.015-1.292-.008-2.642.082-3.858-.395-2.042-.758-3.486-2.7-3.45-4.733-.022-10.851.01-21.7-.013-32.549.009-1.288-.108-2.655.55-3.845.956-1.877 3.2-3.062 5.443-2.926 3.263.07 6.547-.137 9.802.102 2.345 1.017 3.665 3.299 5.648 4.785 1.622 1.354 3.804 2.1 5.99 2.111 9.547.008 19.1.054 28.643.042 1.225.074 2.402-.754 2.63-1.869.416-1.44-.985-2.986-2.603-2.858-9.4-.053-18.793-.065-28.203-.065-.97.017-1.97-.19-2.745-.742-2.1-1.646-3.646-3.872-5.998-5.243-2.467-1.42-5.483-.94-8.237-1.018-1.311.04-2.633-.015-3.952-.018z" fill="#00b4f1"/>
 <path transform="translate(0) scale(1) translate(0) scale(1) translate(-1e-6) scale(1) translate(.00031 .00014) scale(1)" d="M33.386 36.589a1.64 1.64 0 0 0-.675.13 1.7 1.7 0 0 0-.877 1.008c-.494 1.701-1.253 4.307-1.728 6.143a3.03 3.03 0 0 0 .195 2.156 3.04 3.04 0 0 0 1.611 1.45c2.95 1.114 5.861.514 7.521-.048a3.12 3.12 0 0 0 1.917-2.022c.5-1.728 1.383-4.787 1.954-6.786.112-.418-.013-.9-.307-1.21a1.33 1.33 0 0 0-1.209-.322c-1.09.315-2.475.664-3.668.782-1.333.144-2.931-.515-4.067-1.141a1.7 1.7 0 0 0-.668-.144z" fill="#ffc300"/>
 <path transform="translate(0) scale(1) translate(0) scale(1) translate(-1e-6) scale(1) translate(.00031 .00014) scale(1)" d="M25.696 32.865c-1.561-.107-3.31.34-4.507.744a3.08 3.08 0 0 0-1.943 2.012c-.528 1.702-1.39 4.706-1.963 6.698-.107.42.019.91.32 1.223.315.297.801.42 1.219.31 1.073-.274 2.327-.445 3.704-.558 1.284-.117 2.866.52 4.014 1.09.403.173.899.173 1.302-.004.395-.19.715-.561.847-.982.526-1.7 1.3-4.35 1.84-6.205a3.1 3.1 0 0 0-.183-2.169 3.1 3.1 0 0 0-1.592-1.484c-.872-.287-1.923-.593-3.058-.675z" fill="#00b4f1"/>
 <path transform="translate(0) scale(1) translate(0) scale(1) translate(-1e-6) scale(1) translate(.00031 .00014) scale(1)" d="M36.772 24.73c-.225 0-.45.045-.652.133a1.67 1.67 0 0 0-.845.982c-.527 1.702-1.3 4.35-1.838 6.205a3.1 3.1 0 0 0 .182 2.169 3.1 3.1 0 0 0 1.592 1.484c.871.288 1.925.593 3.058.675 1.563.107 3.31-.34 4.507-.744a3.08 3.08 0 0 0 1.943-2.014c.528-1.7 1.389-4.701 1.963-6.695.107-.42-.019-.908-.316-1.223a1.34 1.34 0 0 0-1.223-.31c-1.072.274-2.329.445-3.704.558-1.284.117-2.866-.521-4.011-1.092a1.7 1.7 0 0 0-.656-.127z" fill="#91c300"/>
 <path transform="translate(0) scale(1) translate(0) scale(1) translate(-1e-6) scale(1) translate(.00031 .00014) scale(1)" d="M28.812 21.142c-1.718-.045-3.244.322-4.281.672a3.12 3.12 0 0 0-1.917 2.018c-.501 1.73-1.382 4.79-1.954 6.786-.11.418.005.904.307 1.21s.792.426 1.21.323c1.09-.32 2.47-.665 3.664-.783 1.332-.144 2.933.517 4.07 1.141.412.184.926.194 1.344.013.409-.193.74-.575.874-1.007.496-1.7 1.254-4.307 1.731-6.144a3.04 3.04 0 0 0-.195-2.155 3.04 3.04 0 0 0-1.614-1.45 9.9 9.9 0 0 0-3.238-.624z" fill="#f8682c"/>
</svg>
