<svg version="1.1" viewBox="0 0 64 64" xmlns="http://www.w3.org/2000/svg">
 <defs>
  <linearGradient id="a" x1="1" x2="0" y2="1">
   <stop stop-color="#00ff7f" offset="0"/>
   <stop stop-color="#5fff00" offset="1"/>
  </linearGradient>
 </defs>
 <path transform="translate(5e-4 -5e-5) scale(1) translate(-.003808 .00097) scale(.9999)" d="m12.18 4.998c-1.318-4e-3 -2.631 0.04605-3.928 0.2891-4.546 0.9429-8.135 4.876-8.215 9.188-0.05799 11.26 0.004746 22.53-0.03125 33.8-0.027 1.665 0.1624 3.368 0.9453 4.887 1.659 3.496 5.668 5.873 9.809 5.832 14.31-4e-3 28.63 0.03337 42.94-0.01563 5.406-0.08199 10.21-4.474 10.27-9.461 0.044-6.74 0.01367-13.48 0.01367-20.21 0.16-1.29-0.9045-2.573-2.326-2.66-1.45-0.177-2.882 0.9657-2.846 2.32-0.05 6.027-0.01153 12.06-0.01953 18.09-0.027 1.412 0.1746 2.909-0.5273 4.223-0.8759 1.75-2.888 2.961-4.988 2.953-13.58 0.025-27.16-0.0054-40.74 0.01563-1.292-9e-3 -2.644 0.08149-3.859-0.3965-2.043-0.7579-3.485-2.701-3.449-4.734-0.022-10.86 0.00833-21.7-0.01367-32.56 9e-3 -1.29-0.1091-2.658 0.5488-3.848 0.9559-1.878 3.202-3.061 5.445-2.926 3.264 0.06999 6.55-0.1355 9.805 0.1035 2.347 1.017 3.668 3.296 5.652 4.783 1.623 1.355 3.802 2.101 5.988 2.113 9.549 8e-3 19.1 0.05301 28.65 0.04102 1.225 0.07399 2.4-0.7553 2.629-1.871 0.415-1.441-0.9814-2.985-2.6-2.857-9.401-0.05399-18.81-0.06641-28.21-0.06641-0.9699 0.017-1.971-0.1902-2.744-0.7422-2.102-1.647-3.65-3.873-6.002-5.244-2.468-1.42-5.485-0.9392-8.238-1.018-1.312 0.04-2.633-0.01553-3.951-0.01953z" fill="url(#a)"/>
 <path transform="translate(5e-4 -5e-5) scale(1)" d="m30.46 20.1c-1.137 0-2.112 0.0069-3.053 0.02072h-0.04144c-0.161 0.0025-0.3833-0.0012-0.566 0.0028-1.468 0.03228-2.725 0.105-3.856 0.3023-1.606 0.2802-3.022 0.862-4.106 1.948-1.084 1.085-1.661 2.493-1.942 4.099-3e-6 9.1e-4 -3e-6 0.0019 0 0.0028-0.1974 1.131-0.2699 2.385-0.3023 3.853-0.0041 0.1825-3.71e-4 0.4048-0.0028 0.566v0.04237c-0.0139 0.9412-0.02164 1.916-0.02164 3.053v3.068c0 1.137 0.0078 2.112 0.02166 3.053v0.04144c0.0025 0.161-0.0012 0.3876 0.0028 0.5697 0.03228 1.468 0.105 2.723 0.3023 3.853 0.2802 1.606 0.862 3.022 1.948 4.106 1.084 1.084 2.494 1.66 4.1 1.94 1.131 0.1976 2.386 0.2736 3.855 0.306 0.1828 0.0039 0.4041 1e-3 0.5641 0.0037l0.04426-1e-3c0.9412 0.01396 1.916 0.02072 3.053 0.02072h3.068c1.137 0 2.112-0.0069 3.053-0.02072h0.04238c0.1607-0.0025 0.3822 0.0015 0.566-0.0028 1.468-0.03228 2.725-0.1088 3.856-0.306 1.606-0.2802 3.017-0.8583 4.101-1.945 1.084-1.084 1.665-2.496 1.946-4.101v-0.0028l0.0027-0.04897c0.0018-0.0097 0.0036-0.01943 0.0036-0.0292v-0.0037c0.1879-1.111 0.2649-2.333 0.2966-3.77 0.0036-0.1828-9.09e-4 -0.4058 0.0018-0.566v-0.04426c0.01401-0.9412 0.02165-1.916 0.02165-3.053v-3.068c0-1.137-0.0082-2.112-0.02165-3.053v-0.04144c-0.0027-0.1607 0.0027-0.3822-0.0018-0.566-0.03192-1.469-0.106-2.724-0.3032-3.854-0.2802-1.606-0.8611-3.021-1.947-4.105-1.085-1.084-2.497-1.665-4.102-1.946-1.131-0.1974-2.385-0.2689-3.853-0.3013-0.1825-4e-3 -0.4048-3.72e-4 -0.566-0.0028h-0.04237c-0.9413-0.01383-1.916-0.02166-3.053-0.02166zm-1e-3 3.236h3.069c0.5458 0 0.9863 0.0055 1.45 0.0094l3.242 0.09794c0.8571 0.03643 1.709 0.0732 2.271 0.1714 1.217 0.2125 1.837 0.5078 2.376 1.045 0.5378 0.5378 0.8303 1.152 1.042 2.37 0.09808 0.5624 0.135 1.417 0.1714 2.274h-5.86l-3.243-0.0028h-5.967l-3.234 0.0028h-5.86c0.03643-0.8571 0.07414-1.708 0.1723-2.27 0.2125-1.217 0.5068-1.838 1.044-2.377 0.5378-0.5378 1.153-0.8294 2.37-1.042 0.5624-0.09808 1.417-0.135 2.274-0.1714l3.233-0.09888c0.4632-0.0038 0.9029-0.0094 1.448-0.0094zm-10.64 9.204h5.962v5.967h-5.962c-0.0039-0.4638-0.0075-0.9038-0.0075-1.45v-3.068c0-0.5455 0.0036-0.9857 0.0075-1.449zm9.197 0h5.967v5.967h-5.967v-2.985zm9.202 0h5.962c0.0036 0.4638 0.0082 0.9038 0.0082 1.45v3.068c0 0.5458-0.0045 0.9863-0.0082 1.45h-5.962v-2.985zm-18.3 9.202 0.0037 1e-3h5.86v5.86c-0.8581-0.03644-1.712-0.07309-2.274-0.1714-1.217-0.2123-1.834-0.5115-2.373-1.049-0.5378-0.5378-0.8341-1.15-1.046-2.367-0.09808-0.5624-0.134-1.416-0.1704-2.273zm9.104 1e-3h5.967v5.956c-0.4638 0.0038-0.9038 0.0094-1.45 0.0094h-3.068c-0.5453 0-0.9878-0.0055-1.451-0.0094v-2.975zm9.203 0h5.86c-0.03638 0.8571-0.07231 1.71-0.1704 2.271-0.2123 1.217-0.5106 1.836-1.048 2.375-0.5378 0.5378-1.149 0.8303-2.366 1.042-0.563 0.09819-1.419 0.1349-2.278 0.1714v-2.877z" fill="url(#a)"/>
</svg>
