<svg version="1.1" viewBox="0 0 64 64" xmlns="http://www.w3.org/2000/svg" xmlns:xlink="http://www.w3.org/1999/xlink">
 <defs>
  <linearGradient id="a" x1="1" x2="0" y1=".5" y2=".5">
   <stop stop-color="#0cf" offset="0"/>
   <stop stop-color="#006cff" offset="1"/>
  </linearGradient>
  <linearGradient id="b" x1="64" x2="0" y1="32" y2="32" gradientTransform="translate(15.99 20.06)scale(.5006)" gradientUnits="userSpaceOnUse" xlink:href="#a"/>
  <linearGradient id="c" x1="57.91" x2="4.931" y1="31.43" y2="31.43" gradientTransform="matrix(.4905 0 0 .511 15.99 20.06)" gradientUnits="userSpaceOnUse" xlink:href="#a"/>
  <linearGradient id="d" x1="37.67" x2="28.53" y1="48.64" y2="48.64" gradientTransform="translate(15.99 20.06)scale(.5006)" gradientUnits="userSpaceOnUse" xlink:href="#a"/>
  <linearGradient id="e" x1="51.83" x2="42.68" y1="47.73" y2="47.73" gradientTransform="matrix(.5006 0 0 .5007 15.99 20.06)" gradientUnits="userSpaceOnUse" xlink:href="#a"/>
  <linearGradient id="f" x1="18.99" x2="9.85" y1="45.31" y2="45.31" gradientTransform="translate(15.99 20.06)scale(.5006)" gradientUnits="userSpaceOnUse" xlink:href="#a"/>
  <linearGradient id="j" x1="43.64" x2="34.5" y1="32.67" y2="32.67" gradientTransform="matrix(.5006 0 0 .5007 15.99 20.06)" gradientUnits="userSpaceOnUse" xlink:href="#a"/>
  <linearGradient id="k" x1="18.28" x2="9.14" y1="27.43" y2="27.43" gradientTransform="translate(15.99 20.06)scale(.5006)" gradientUnits="userSpaceOnUse" xlink:href="#a"/>
  <linearGradient id="l" x1="41.01" x2="31.87" y1="20.66" y2="20.66" gradientTransform="translate(15.99 20.06)scale(.5006)" gradientUnits="userSpaceOnUse" xlink:href="#a"/>
 </defs>
 <path transform="translate(0) scale(1) translate(0) scale(1) translate(-.000564 .00037) scale(1) translate(-.003 .001) scale(.9999)" d="M12.18 4.998c-1.318-.004-2.631.044-3.928.287-4.546.943-8.135 4.88-8.215 9.191-.058 11.26.005 22.53-.031 33.8-.027 1.664.163 3.364.945 4.883 1.659 3.496 5.668 5.875 9.809 5.834 14.31-.004 28.63.034 42.94-.016 5.406-.082 10.21-4.476 10.27-9.463.045-6.74.014-13.48.014-20.21.16-1.289-.904-2.573-2.326-2.66-1.45-.177-2.882.964-2.846 2.318-.05 6.027-.01 12.06-.02 18.09-.027 1.412.175 2.91-.527 4.223-.876 1.75-2.888 2.96-4.988 2.951-13.58.025-27.16-.005-40.74.016-1.292-.008-2.644.083-3.86-.394-2.042-.758-3.484-2.701-3.448-4.734-.022-10.86.009-21.7-.014-32.56.01-1.29-.108-2.658.549-3.848.957-1.878 3.202-3.061 5.445-2.926 3.264.07 6.548-.136 9.803.103 2.347 1.017 3.67 3.296 5.654 4.783 1.623 1.355 3.802 2.1 5.988 2.111 9.549.008 19.1.055 28.65.043 1.225.074 2.401-.755 2.629-1.87.416-1.442-.981-2.986-2.6-2.858-9.401-.053-18.81-.064-28.21-.064-.97.016-1.971-.19-2.744-.743-2.102-1.647-3.65-3.875-6.002-5.246-2.468-1.42-5.485-.937-8.238-1.016-1.312.04-2.635-.016-3.953-.02z" fill="url(#b)"/>
 <g transform="translate(0) scale(1) translate(0) scale(1) translate(-.000564 .00037) scale(1)" stroke-width=".501">
  <path transform="translate(-.003 -.664)scale(.9999)" d="M32.01 20.06a16.02 16.02 0 0 0-16.02 16.02A16.02 16.02 0 0 0 32.01 52.1a16.02 16.02 0 0 0 16.02-16.02 16.02 16.02 0 0 0-16.02-16.02m-.071 2.298a13.65 13.65 0 0 1 13.65 13.65 13.65 13.65 0 0 1-13.65 13.65 13.65 13.65 0 0 1-13.65-13.65 13.65 13.65 0 0 1 13.65-13.65" fill="url(#b)"/>
  <path transform="translate(-.003 -.664)scale(.9999)" d="M34.35 22.59v.002a30.3 30.3 0 0 0-.737 5.612 2.3 2.3 0 0 1 .612-.085 2.3 2.3 0 0 1 .988.228c.06-1.724.267-3.508.693-5.392a14 14 0 0 0-1.555-.367zm-6.353.364a13.7 13.7 0 0 0-2.533 1.05c-1.469 2.522-2.465 5.04-3.057 7.55a2.3 2.3 0 0 1 .443-.045 2.3 2.3 0 0 1 1.117.295c.71-2.918 1.993-5.857 4.032-8.85zm12.25 2.256a31 31 0 0 1-4.393 3.595 2.3 2.3 0 0 1 .657 1.497 32 32 0 0 0 4.947-4.046 14 14 0 0 0-1.211-1.045zm2.103 2.012.001.002.001-.001zm.001.002c-2.743 2.105-4.91 4.423-6.528 6.929a2.3 2.3 0 0 1 1.422.747c1.516-2.295 3.51-4.433 6.073-6.398a14 14 0 0 0-.97-1.281zm-10.33 3.789a22.6 22.6 0 0 1-7.089 1.85 2.3 2.3 0 0 1 .201.935 2.3 2.3 0 0 1-.089.634 24.6 24.6 0 0 0 7.9-2.128 2.3 2.3 0 0 1-.925-1.292zm3.362 1.368a2.3 2.3 0 0 1-1.156.317 2.3 2.3 0 0 1-.363-.027c.09.642.199 1.277.336 1.9a2.3 2.3 0 0 1 1.34-.434 2 2 0 0 1 .148.005 22 22 0 0 1-.304-1.761zm-16.69.348a14 14 0 0 0-.3 1.573c.775.103 1.52.141 2.27.193a2.3 2.3 0 0 1-.11-.698 2.3 2.3 0 0 1 .187-.898c-.679-.05-1.347-.077-2.048-.17zm3.114 3.109c-.085 1.657-.046 3.307.184 4.948-1.222-.747-2.397-1.632-3.54-2.611a13.7 13.7 0 0 0 .68 2.566c.62.453 1.256.873 1.9 1.273a2.29 2.29 0 0 1 2.162-1.555 2 2 0 0 1 .344.026 23.7 23.7 0 0 1-.214-4.456 2.3 2.3 0 0 1-.483.054 2.3 2.3 0 0 1-1.032-.245zm12.03 2.114a26 26 0 0 0-1.327 4.179l.04-.005a2.3 2.3 0 0 1 1.492.56c.293-1.37.672-2.71 1.198-3.997a2.3 2.3 0 0 1-1.403-.737zm3.174.224a2.3 2.3 0 0 1-1.474.537h-.005a27.4 27.4 0 0 0 2.145 4.057 2.3 2.3 0 0 1 1.265-.993 25.6 25.6 0 0 1-1.93-3.6zm7.369 3.392c-.99.397-1.953.733-2.905 1.036a2.3 2.3 0 0 1 .443 1.354 2 2 0 0 1-.005.174c.42-.13.835-.243 1.261-.388a13.7 13.7 0 0 0 1.207-2.177zm-18.91.951a2 2 0 0 1 .014.228 2.3 2.3 0 0 1-.39 1.274 22.7 22.7 0 0 0 5.368 1.332 2.3 2.3 0 0 1-.2-.939 2.3 2.3 0 0 1 .088-.63 20.7 20.7 0 0 1-4.88-1.265zm11.9 1.086q-1.32.225-2.583.313a2.3 2.3 0 0 1 .054.496 2.3 2.3 0 0 1-.268 1.069 27 27 0 0 0 3.102-.345 2.3 2.3 0 0 1-.33-1.18 2 2 0 0 1 .026-.353zm-12.89 1.036a2.3 2.3 0 0 1-1.288.394 2 2 0 0 1-.254-.014q.258.853.554 1.702a13.7 13.7 0 0 0 2.257 1.444 35 35 0 0 1-1.269-3.527zm17.02.63a2.3 2.3 0 0 1-1.327.908c.117.142.225.288.344.43a14 14 0 0 0 1.19-1.1q-.103-.12-.207-.237zm-8.01 1.225a2.3 2.3 0 0 1-.943.206 2.3 2.3 0 0 1-.693-.112 37 37 0 0 0-.08 3.062l.147.008a14 14 0 0 0 1.462-.093c-.01-1.041.032-2.062.107-3.071z" fill="url(#c)"/>
  <path transform="translate(-.003 -.664)scale(.9999)" d="m32.56 42.13a2.29 2.29 0 0 0-2.289 2.289 2.29 2.29 0 0 0 2.289 2.288 2.29 2.29 0 0 0 2.288-2.288 2.29 2.29 0 0 0-2.288-2.289" fill="url(#d)"/>
  <path transform="translate(-.003 -.664)scale(.9999)" d="m39.64 41.67a2.29 2.29 0 0 0-2.288 2.288 2.29 2.29 0 0 0 2.288 2.289 2.29 2.29 0 0 0 2.288-2.289 2.29 2.29 0 0 0-2.288-2.288" fill="url(#e)"/>
  <path transform="translate(-.003 -.664)scale(.9999)" d="M23.2 40.46a2.29 2.29 0 0 0-2.288 2.289 2.29 2.29 0 0 0 2.288 2.288 2.29 2.29 0 0 0 2.289-2.288A2.29 2.29 0 0 0 23.2 40.46" fill="url(#f)"/>
  <path transform="translate(-.003 -.664)scale(.9999)" d="m35.54 34.13a2.29 2.29 0 0 0-2.288 2.289 2.29 2.29 0 0 0 2.288 2.288 2.29 2.29 0 0 0 2.288-2.288 2.29 2.29 0 0 0-2.288-2.289" fill="url(#j)"/>
  <path transform="translate(-.003 -.664)scale(.9999)" d="m22.85 31.51a2.29 2.29 0 0 0-2.288 2.288 2.29 2.29 0 0 0 2.288 2.288 2.29 2.29 0 0 0 2.288-2.288 2.29 2.29 0 0 0-2.288-2.288" fill="url(#k)"/>
  <path transform="translate(-.003 -.664)scale(.9999)" d="m34.23 28.12a2.29 2.29 0 0 0-2.289 2.288 2.29 2.29 0 0 0 2.289 2.289 2.29 2.29 0 0 0 2.288-2.289 2.29 2.29 0 0 0-2.288-2.288" fill="url(#l)"/>
 </g>
</svg>
