<svg version="1.1" viewBox="0 0 64 64" xmlns="http://www.w3.org/2000/svg">
 <defs>
  <linearGradient id="a" y1=".5" y2=".5">
   <stop stop-color="#879af2" offset="0"/>
   <stop stop-color="#d3208b" offset=".479"/>
   <stop stop-color="#fda000" offset=".979"/>
  </linearGradient>
 </defs>
 <path transform="translate(5e-4 -5e-5) scale(1) translate(-.003808 .00097) scale(.9999)" d="m12.18 4.998c-1.318-4e-3 -2.631 0.04605-3.928 0.2891-4.546 0.9429-8.135 4.876-8.215 9.188-0.05799 11.26 0.004746 22.53-0.03125 33.8-0.027 1.665 0.1624 3.368 0.9453 4.887 1.659 3.496 5.668 5.873 9.809 5.832 14.31-4e-3 28.63 0.03337 42.94-0.01563 5.406-0.08199 10.21-4.474 10.27-9.461 0.044-6.74 0.01367-13.48 0.01367-20.21 0.16-1.29-0.9045-2.573-2.326-2.66-1.45-0.177-2.882 0.9657-2.846 2.32-0.05 6.027-0.01153 12.06-0.01953 18.09-0.027 1.412 0.1746 2.909-0.5273 4.223-0.8759 1.75-2.888 2.961-4.988 2.953-13.58 0.025-27.16-0.0054-40.74 0.01563-1.292-9e-3 -2.644 0.08149-3.859-0.3965-2.043-0.7579-3.485-2.701-3.449-4.734-0.022-10.86 0.00833-21.7-0.01367-32.56 9e-3 -1.29-0.1091-2.658 0.5488-3.848 0.9559-1.878 3.202-3.061 5.445-2.926 3.264 0.06999 6.55-0.1355 9.805 0.1035 2.347 1.017 3.668 3.296 5.652 4.783 1.623 1.355 3.802 2.101 5.988 2.113 9.549 8e-3 19.1 0.05301 28.65 0.04102 1.225 0.07399 2.4-0.7553 2.629-1.871 0.415-1.441-0.9814-2.985-2.6-2.857-9.401-0.05399-18.81-0.06641-28.21-0.06641-0.9699 0.017-1.971-0.1902-2.744-0.7422-2.102-1.647-3.65-3.873-6.002-5.244-2.468-1.42-5.485-0.9392-8.238-1.018-1.312 0.04-2.633-0.01553-3.951-0.01953z" fill="url(#a)"/>
 <path transform="translate(5e-4 -5e-5) scale(1)" d="m30.42 19.17a2.429 2.429 0 0 0-0.3174 0.0033 2.429 2.429 0 0 0-2.186 1.978l-3.323 17.92-2.294-7.751a2.429 2.429 0 0 0-2.33-1.74h-8.767a2.429 2.429 0 0 0-2.429 2.429 2.429 2.429 0 0 0 2.429 2.426h6.952l4.654 15.71a2.429 2.429 0 0 0 4.718-0.2468l3.555-19.17 2.115 5.744a2.429 2.429 0 0 0 4.456 0.2404l2.664-5.371 3.222 8.757a2.429 2.429 0 0 0 2.283 1.59h6.968a2.429 2.429 0 0 0 2.426-2.429 2.429 2.429 0 0 0-2.426-2.429h-5.276l-4.584-12.46a2.429 2.429 0 0 0-4.456-0.2371l-2.664 5.37-3.225-8.754a2.429 2.429 0 0 0-2.163-1.587z" fill="url(#a)" stroke-width="1.641"/>
</svg>
