<svg version="1.1" viewBox="0 0 64 64" xmlns="http://www.w3.org/2000/svg">
 <defs>
  <linearGradient id="a" y1="1">
   <stop stop-color="#5433ff" offset="0"/>
   <stop stop-color="#20bdff" offset=".5"/>
   <stop stop-color="#a5fecb" offset="1"/>
  </linearGradient>
 </defs>
 <path transform="translate(0) scale(1) translate(0) scale(1) translate(0) scale(1) translate(5e-4 -5e-5) scale(1) translate(-.003808 .00097) scale(.9999)" d="m12.18 4.998c-1.318-4e-3 -2.631 0.04605-3.928 0.2891-4.546 0.9429-8.135 4.876-8.215 9.188-0.05799 11.26 0.004746 22.53-0.03125 33.8-0.027 1.665 0.1624 3.368 0.9453 4.887 1.659 3.496 5.668 5.873 9.809 5.832 14.31-4e-3 28.63 0.03337 42.94-0.01563 5.406-0.08199 10.21-4.474 10.27-9.461 0.044-6.74 0.01367-13.48 0.01367-20.21 0.16-1.29-0.9045-2.573-2.326-2.66-1.45-0.177-2.882 0.9657-2.846 2.32-0.05 6.027-0.01153 12.06-0.01953 18.09-0.027 1.412 0.1746 2.909-0.5273 4.223-0.8759 1.75-2.888 2.961-4.988 2.953-13.58 0.025-27.16-0.0054-40.74 0.01563-1.292-9e-3 -2.644 0.08149-3.859-0.3965-2.043-0.7579-3.485-2.701-3.449-4.734-0.022-10.86 0.00833-21.7-0.01367-32.56 9e-3 -1.29-0.1091-2.658 0.5488-3.848 0.9559-1.878 3.202-3.061 5.445-2.926 3.264 0.06999 6.55-0.1355 9.805 0.1035 2.347 1.017 3.668 3.296 5.652 4.783 1.623 1.355 3.802 2.101 5.988 2.113 9.549 8e-3 19.1 0.05301 28.65 0.04102 1.225 0.07399 2.4-0.7553 2.629-1.871 0.415-1.441-0.9814-2.985-2.6-2.857-9.401-0.05399-18.81-0.06641-28.21-0.06641-0.9699 0.017-1.971-0.1902-2.744-0.7422-2.102-1.647-3.65-3.873-6.002-5.244-2.468-1.42-5.485-0.9392-8.238-1.018-1.312 0.04-2.633-0.01553-3.951-0.01953z" fill="url(#a)"/>
 <path transform="translate(0) scale(1) translate(0) scale(1) translate(0) scale(1) translate(5e-4 -5e-5) scale(1)" d="m32 21.06c-5.319 0-9.609 3.848-10.67 8.857-4.539 1.046-8.008 4.97-8.008 9.819 0 5.643 4.609 10.25 10.25 10.25h17.69c5.178 0 9.411-4.232 9.411-9.411 0-4.574-3.38-8.2-7.708-9.026-0.3307-5.812-5.073-10.49-10.97-10.49zm0 3.66h0.0034c4.129 0.0018 7.436 3.307 7.436 7.436 0 0.2286-0.0097 0.4572-0.02984 0.6808-0.1385 1.536-0.7402 2.925-1.669 4.051-0.6378 0.7747-0.5278 1.938 0.2476 2.577 0.773 0.6384 1.933 0.5274 2.573-0.2442 0.9564-1.158 1.466-2.586 1.866-4.037 2.597 0.56 4.597 2.634 4.597 5.396 0 3.201-2.551 5.75-5.75 5.75h-17.69c-3.666 0-6.593-2.928-6.593-6.593 0-3.45 2.608-6.248 5.959-6.565 0.2091-0.0199 0.4204-0.02984 0.6344-0.02984 1.495 0 2.852 0.4902 3.956 1.32a0.5659 0.5659 0 0 0 0.0034 0c0.8013 0.6016 1.954 0.4376 2.557-0.3625 0.6044-0.8025 0.4407-1.96-0.3625-2.563-1.287-0.9666-2.893-1.382-4.524-1.638 0.9819-2.951 3.508-5.178 6.791-5.179z" fill="url(#a)" stroke-width=".5659"/>
</svg>
