<svg version="1.1" viewBox="0 0 64 64" xmlns="http://www.w3.org/2000/svg">
 <defs>
  <linearGradient id="a" x1="1" x2="0" y1="1">
   <stop stop-color="#00b8ff" offset="0"/>
   <stop stop-color="#00ff9d" offset="1"/>
  </linearGradient>
 </defs>
 <path transform="translate(0) scale(1) translate(0) scale(1) translate(-.000554 .00142) scale(1) translate(-.003) scale(.9999)" d="M12.18 4.998c-1.318-.004-2.631.046-3.928.29C3.706 6.23.117 10.163.037 14.474c-.058 11.26.005 22.53-.031 33.8-.027 1.665.162 3.368.945 4.887 1.659 3.496 5.668 5.873 9.809 5.832 14.31-.004 28.63.033 42.94-.016 5.406-.082 10.21-4.474 10.27-9.46.044-6.74.014-13.48.014-20.21.16-1.29-.905-2.574-2.326-2.66-1.45-.178-2.882.965-2.846 2.32-.05 6.026-.012 12.06-.02 18.09-.027 1.411.175 2.908-.527 4.222-.876 1.75-2.888 2.961-4.988 2.953-13.58.025-27.16-.005-40.74.016-1.292-.009-2.644.082-3.86-.396-2.042-.758-3.484-2.701-3.448-4.734-.022-10.86.008-21.7-.014-32.56.01-1.29-.109-2.658.549-3.848.956-1.878 3.202-3.061 5.445-2.926 3.264.07 6.55-.136 9.805.103 2.347 1.017 3.668 3.296 5.652 4.783 1.623 1.355 3.802 2.101 5.988 2.113 9.549.008 19.1.053 28.65.041 1.225.074 2.4-.755 2.629-1.87.415-1.442-.982-2.985-2.6-2.857-9.401-.054-18.81-.066-28.21-.066-.97.017-1.971-.19-2.744-.742-2.102-1.647-3.65-3.875-6.002-5.246-2.468-1.42-5.485-.938-8.238-1.016-1.312.04-2.633-.016-3.951-.02z" fill="url(#a)"/>
 <path transform="translate(0) scale(1) translate(0) scale(1) translate(-.000554 .00142) scale(1) translate(-.003) scale(.9999)" d="M21.76 18.23a3.536 3.536 0 0 0-3.533 3.533v24.76a3.76 3.76 0 0 0 3.754 3.754h24.76c1.563 0 2.756-.953 3.264-2.18.508-1.226.34-2.745-.766-3.85l-24.98-24.98c-.631-.632-1.483-.975-2.373-1.008l-.029-.027zm-.064 2.604h.02a.93.93 0 0 1 .7.272l.633.632-.908.908a.79.79 0 0 0-.28.608.8.8 0 0 0 .24.537.8.8 0 0 0 .54.242.79.79 0 0 0 .607-.28l.908-.905 1.781 1.78-.642.647a.78.78 0 0 0-.28.606c.008.211.102.4.24.539a.8.8 0 0 0 .54.242c.212.007.44-.09.607-.281l.645-.643 1.783 1.781-.92.922a.78.78 0 0 0-.268.594c.007.212.104.4.242.539s.328.235.54.242a.78.78 0 0 0 .605-.281l.908-.906 1.785 1.783-.644.646a.78.78 0 0 0-.281.606c.007.212.103.4.242.539s.327.235.539.242a.78.78 0 0 0 .605-.281l-.01.014.657-.657 1.78 1.783-.917.92a.78.78 0 0 0-.268.594c.007.212.104.4.242.54s.328.234.54.241a.78.78 0 0 0 .605-.28l.908-.907 1.783 1.783-.656.658a.78.78 0 0 0-.268.594c.007.212.104.4.243.54s.327.232.539.24a.78.78 0 0 0 .605-.28l.645-.645 1.783 1.783-.918.922a.78.78 0 0 0-.268.594c.007.212.103.4.242.54s.328.232.54.24a.78.78 0 0 0 .605-.28l.908-.908 1.783 1.785-.643.644a.79.79 0 0 0-.28.608c.006.212.103.4.241.539s.328.233.54.24a.78.78 0 0 0 .605-.28l.645-.644 1.783 1.783-.907.909a.79.79 0 0 0-.279.607c.007.212.103.4.242.54a.8.8 0 0 0 .537.24.79.79 0 0 0 .608-.28l.908-.908.11.11a.9.9 0 0 1 .2 1.011.9.9 0 0 1-.859.574h-24.76a1.15 1.15 0 0 1-1.152-1.15v-24.76c0-.493.38-.892.871-.923zm.714 2.248h.002l-.02.027zm20.504 19.98h.002l-.02.027q.008-.014.018-.027m2.63 3.154h.001l-.02.027q.008-.014.018-.027m2.624.482" fill="url(#a)"/>
 <path transform="translate(0) scale(1) translate(0) scale(1) translate(-.000554 .00142) scale(1) translate(-.003) scale(.9999)" d="M26.66 31.92c-1.078-.027-2.121.816-2.121 2.062v7.635a2.356 2.356 0 0 0 2.352 2.354h7.637c.906 0 1.606-.556 1.902-1.27a2.04 2.04 0 0 0-.445-2.244l-7.932-7.932c-.4-.4-.902-.593-1.391-.606zm.48 3.373 6.072 6.074H27.14z" fill="url(#a)"/>
</svg>
