<svg version="1.1" viewBox="0 0 64 64" xmlns="http://www.w3.org/2000/svg" xmlns:xlink="http://www.w3.org/1999/xlink">
 <defs>
  <linearGradient id="b" x1="15.9" x2="49.78" y1="55.58" y2="21.7" gradientTransform="matrix(.8703 0 0 .9165 3.421 .1526)" gradientUnits="userSpaceOnUse">
   <stop stop-color="#007bf6" offset="0"/>
   <stop stop-color="#d60cff" offset=".5"/>
   <stop stop-color="#ff167a" offset="1"/>
  </linearGradient>
  <linearGradient id="a" x1="-.006836" x2="67.12" y1="61.29" y2="13.31" gradientTransform="matrix(.8703 0 0 .9165 3.421 .1526)" gradientUnits="userSpaceOnUse" xlink:href="#b"/>
 </defs>
 <path transform="translate(5e-4 -5e-5) scale(1) translate(-.003808 .00097) scale(.9999)" d="m12.18 4.998c-1.318-4e-3 -2.631 0.04605-3.928 0.2891-4.546 0.9429-8.135 4.876-8.215 9.188-0.05799 11.26 0.004746 22.53-0.03125 33.8-0.027 1.665 0.1624 3.368 0.9453 4.887 1.659 3.496 5.668 5.873 9.809 5.832 14.31-4e-3 28.63 0.03337 42.94-0.01563 5.406-0.08199 10.21-4.474 10.27-9.461 0.044-6.74 0.01367-13.48 0.01367-20.21 0.16-1.29-0.9045-2.573-2.326-2.66-1.45-0.177-2.882 0.9657-2.846 2.32-0.05 6.027-0.01153 12.06-0.01953 18.09-0.027 1.412 0.1746 2.909-0.5273 4.223-0.8759 1.75-2.888 2.961-4.988 2.953-13.58 0.025-27.16-0.0054-40.74 0.01563-1.292-9e-3 -2.644 0.08149-3.859-0.3965-2.043-0.7579-3.485-2.701-3.449-4.734-0.022-10.86 0.00833-21.7-0.01367-32.56 9e-3 -1.29-0.1091-2.658 0.5488-3.848 0.9559-1.878 3.202-3.061 5.445-2.926 3.264 0.06999 6.55-0.1355 9.805 0.1035 2.347 1.017 3.668 3.296 5.652 4.783 1.623 1.355 3.802 2.101 5.988 2.113 9.549 8e-3 19.1 0.05301 28.65 0.04102 1.225 0.07399 2.4-0.7553 2.629-1.871 0.415-1.441-0.9814-2.985-2.6-2.857-9.401-0.05399-18.81-0.06641-28.21-0.06641-0.9699 0.017-1.971-0.1902-2.744-0.7422-2.102-1.647-3.65-3.873-6.002-5.244-2.468-1.42-5.485-0.9392-8.238-1.018-1.312 0.04-2.633-0.01553-3.951-0.01953z" fill="url(#a)" stroke-width=".3437"/>
 <path transform="translate(5e-4 -5e-5) scale(1)" d="m30.34 20.04c-1.944 0-3.517 1.574-3.517 3.517a1.759 1.759 0 0 1-2.635 1.521 3.517 3.517 0 0 0-4.802 1.29l-1.658 2.871a3.517 3.517 0 0 0 1.286 4.802 1.759 1.759 0 0 1 0 3.049 3.517 3.517 0 0 0-1.286 4.803l1.658 2.871a3.515 3.515 0 0 0 4.802 1.29 1.759 1.759 0 0 1 2.64 1.521c0 1.944 1.571 3.516 3.512 3.516h3.316c1.944 0 3.512-1.574 3.512-3.516a1.759 1.759 0 0 1 2.64-1.521 3.517 3.517 0 0 0 4.802-1.29l1.658-2.871a3.519 3.519 0 0 0-1.286-4.803 1.759 1.759 0 0 1 0-3.049c1.681-0.9708 2.256-3.121 1.286-4.802l-1.658-2.871a3.517 3.517 0 0 0-4.802-1.29 1.759 1.759 0 0 1-2.64-1.521c0-1.944-1.571-3.517-3.512-3.517zm0 3.105h3.316c0.2277 0 0.4084 0.1855 0.4084 0.4131 0 3.743 4.055 6.084 7.296 4.208a0.4119 0.4119 0 0 1 0.5617 0.1535l1.658 2.871a0.4119 0.4119 0 0 1-0.1497 0.5617c-3.242 1.874-3.242 6.554 0 8.427a0.4119 0.4119 0 0 1 0.1497 0.5617l-1.658 2.872a0.4119 0.4119 0 0 1-0.5617 0.1535c-3.24-1.874-7.291 0.4678-7.291 4.208 0 0.2277-0.1845 0.4084-0.4122 0.4084h-3.316a0.4119 0.4119 0 0 1-0.4122-0.4084c0-3.743-4.051-6.084-7.291-4.208a0.4119 0.4119 0 0 1-0.5657-0.1535l-1.653-2.872a0.4119 0.4119 0 0 1 0.1497-0.5617c3.242-1.874 3.242-6.554 0-8.427a0.4119 0.4119 0 0 1-0.1535-0.5617l1.658-2.871a0.4119 0.4119 0 0 1 0.5657-0.1535c3.242 1.874 7.291-0.4678 7.291-4.208 0-0.2277 0.1845-0.4094 0.4122-0.4094zm-0.4851 6.768a2.07 2.07 0 0 0-1.997 2.067v7.17a2.07 2.07 0 0 0 3.105 1.791l6.21-3.586a2.07 2.07 0 0 0 0-3.582l-6.21-3.586a2.07 2.07 0 0 0-1.107-0.2748z" fill="url(#b)" stroke-width=".3437"/>
</svg>
