<svg version="1.1" viewBox="0 0 64 64" xmlns="http://www.w3.org/2000/svg" xmlns:xlink="http://www.w3.org/1999/xlink">
 <defs>
  <linearGradient id="b" x1=".000561" x2=".000561" y1="66.71" y2="18.84" gradientTransform="matrix(.8335 0 0 .4664 12.04 15.58)" gradientUnits="userSpaceOnUse">
   <stop stop-color="#02aa93" offset="0"/>
   <stop stop-color="#67ff80" offset="1"/>
  </linearGradient>
  <linearGradient id="a" y1="1">
   <stop stop-color="#a93aff" offset="0"/>
   <stop stop-color="#ff81ff" offset="1"/>
  </linearGradient>
  <linearGradient id="d" x1="40.51" x2="55.74" y1="40.3" y2="25.07" gradientTransform="matrix(.6234 0 0 .6235 12.04 15.58)" gradientUnits="userSpaceOnUse" xlink:href="#a"/>
  <linearGradient id="c" x1="4.802" x2="13.7" y1="62.02" y2="53.12" gradientTransform="matrix(1.092 0 0 .3561 12.04 15.58)" gradientUnits="userSpaceOnUse" xlink:href="#a"/>
 </defs>
 <path transform="translate(5e-4 -5e-5) scale(1) translate(-.003808 .00097) scale(.9999)" d="m12.18 4.998c-1.318-4e-3 -2.631 0.04605-3.928 0.2891-4.546 0.9429-8.135 4.876-8.215 9.188-0.05799 11.26 0.004746 22.53-0.03125 33.8-0.027 1.665 0.1624 3.368 0.9453 4.887 1.659 3.496 5.668 5.873 9.809 5.832 14.31-4e-3 28.63 0.03337 42.94-0.01563 5.406-0.08199 10.21-4.474 10.27-9.461 0.044-6.74 0.01367-13.48 0.01367-20.21 0.16-1.29-0.9045-2.573-2.326-2.66-1.45-0.177-2.882 0.9657-2.846 2.32-0.05 6.027-0.01153 12.06-0.01953 18.09-0.027 1.412 0.1746 2.909-0.5273 4.223-0.8759 1.75-2.888 2.961-4.988 2.953-13.58 0.025-27.16-0.0054-40.74 0.01563-1.292-9e-3 -2.644 0.08149-3.859-0.3965-2.043-0.7579-3.485-2.701-3.449-4.734-0.022-10.86 0.00833-21.7-0.01367-32.56 9e-3 -1.29-0.1091-2.658 0.5488-3.848 0.9559-1.878 3.202-3.061 5.445-2.926 3.264 0.06999 6.55-0.1355 9.805 0.1035 2.347 1.017 3.668 3.296 5.652 4.783 1.623 1.355 3.802 2.101 5.988 2.113 9.549 8e-3 19.1 0.05301 28.65 0.04102 1.225 0.07399 2.4-0.7553 2.629-1.871 0.415-1.441-0.9814-2.985-2.6-2.857-9.401-0.05399-18.81-0.06641-28.21-0.06641-0.9699 0.017-1.971-0.1902-2.744-0.7422-2.102-1.647-3.65-3.873-6.002-5.244-2.468-1.42-5.485-0.9392-8.238-1.018-1.312 0.04-2.633-0.01553-3.951-0.01953z" fill="url(#b)" stroke-width=".6235"/>
 <path transform="translate(5e-4 -5e-5) scale(1)" d="m42.09 24.36c-0.3746 0.0029-0.7494 0.029-1.123 0.08037l-0.0049 0.0012h-0.0049c-2.762 0.3967-5.028 2.098-6.671 4.089a1.584 1.584 0 0 0 0.2131 2.23 1.584 1.584 0 0 0 2.23-0.2119c1.289-1.561 2.969-2.725 4.677-2.971 0.9489-0.1294 1.916-0.01307 2.807 0.3397h0.0012l0.0012 0.0012h0.0012c0.9308 0.3735 1.762 0.9539 2.434 1.699l0.0024 0.0037 0.0024 0.0024c1.37 1.503 2.127 3.707 2.127 5.887 0 2.181-0.7569 4.382-2.129 5.887l-0.0012 0.0024-0.0024 0.0024c-0.6734 0.7444-1.507 1.325-2.439 1.698-0.8909 0.353-1.857 0.4692-2.808 0.3397-1.706-0.2461-3.385-1.41-4.675-2.971h-0.0012c-1.306-1.577-2.29-3.565-3.305-5.649l-0.0012-0.0024c-1.013-2.087-2.082-4.318-3.712-6.285l-0.0024-0.0037c-1.643-1.99-3.907-3.691-6.671-4.087l-0.0037-0.0012h-0.0037c-0.3736-0.05179-0.7494-0.07843-1.124-0.08161l0.0012 0.0049c-0.3747-0.0032-0.7488 0.01738-1.12 0.06211-0.7432 0.08947-1.474 0.2736-2.175 0.5516l-0.0024 0.0012-0.0049 0.0012c-1.378 0.5521-2.609 1.412-3.604 2.512l-0.0012 0.0012c-1.995 2.189-2.953 5.128-2.953 8.018 0 2.89 0.9589 5.823 2.949 8.018 7.86e-4 8.72e-4 0.0017 0.0016 0.0024 0.0024l0.0012 0.0012c0.9969 1.101 2.232 1.961 3.612 2.512l0.0037 0.0012 0.0037 0.0024c1.36 0.5345 2.904 0.803 4.472 0.5236h0.0037c2.71-0.4899 5.566-2.062 7.133-4.791a1.584 1.584 0 0 0-0.5834-2.162 1.584 1.584 0 0 0-2.162 0.5821c-0.967 1.681-3.079 2.913-4.95 3.253h-0.0012c-0.8498 0.151-1.827 0.01-2.755-0.3544h-0.0012c-0.9296-0.3728-1.762-0.952-2.433-1.695l-0.0012-0.0012-0.0012-0.0024c-1.372-1.509-2.129-3.711-2.129-5.889s0.7569-4.386 2.126-5.887l0.0037-0.0024 0.0024-0.0024c0.6715-0.7438 1.504-1.325 2.433-1.699l0.0024-0.0012c0.8928-0.3532 1.861-0.4682 2.812-0.3373 1.707 0.2457 3.388 1.409 4.675 2.97l0.0024 0.0024c1.308 1.577 2.29 3.564 3.303 5.65l0.0012 0.0024v0.0012c1.016 2.084 2.084 4.314 3.713 6.285 1.645 1.99 3.907 3.691 6.671 4.088l0.0049 0.0012h0.0049c1.494 0.2056 3.018 0.02236 4.42-0.5346l0.0012-0.0012 0.0024-0.0012c1.38-0.552 2.615-1.412 3.612-2.514 1.991-2.19 2.949-5.122 2.949-8.018 1e-6 -2.892-0.9564-5.826-2.948-8.018l-0.0012-0.0012c-0.9963-1.103-2.231-1.965-3.611-2.518h-0.0024l-0.0024-0.0012c-1.051-0.4172-2.17-0.6246-3.294-0.616z" fill="url(#b)" stroke-width=".6235"/>
 <path transform="translate(5e-4 -5e-5) scale(1)" d="m42.07 31.21a1.412 1.412 0 0 0-0.9851 0.3921 1.317 1.317 0 0 0-0.4177 0.9608v2.011h-1.984a1.36 1.36 0 0 0-1.379 1.371c0 0.373 0.1394 0.7176 0.3945 0.9851a1.317 1.317 0 0 0 0.9583 0.4177h2.009v1.985c0 0.3717 0.1393 0.7145 0.397 0.9739 0.2603 0.2629 0.6135 0.4018 0.9988 0.4018 0.3587 0 0.6946-0.1371 0.9608-0.3909a1.321 1.321 0 0 0 0.4177-0.962v-2.007h1.985a1.369 1.369 0 0 0 0.9739-0.3958c0.2629-0.2603 0.4006-0.6135 0.4006-0.9988 0-0.3587-0.1363-0.6958-0.3897-0.962a1.321 1.321 0 0 0-0.962-0.4165h-2.007v-1.988c0-0.3717-0.1385-0.717-0.3958-0.9764a1.355 1.355 0 0 0-0.9751-0.3994z" fill="url(#d)" stroke-width=".6235"/>
 <path transform="translate(5e-4 -5e-5) scale(1)" d="m18.92 34.5a1.584 1.584 0 1 0 0 3.166h2.442a0.3204 0.3204 0 0 0 0.2277-0.09377l2.797-2.798a0.1614 0.1614 0 0 0-0.1145-0.274zm6.665 0.0097a0.3023 0.3023 0 0 0-0.2046 0.09009l-2.792 2.791a0.1614 0.1614 0 0 0 0.1145 0.2752h2.718a1.584 1.584 0 0 0 0.1973-3.155l-0.03166-0.0012a0.3023 0.3023 0 0 0-0.0012 0z" fill="url(#c)" stroke-width=".6235"/>
</svg>
