<svg version="1.1" viewBox="0 0 64 64" xmlns="http://www.w3.org/2000/svg">
 <defs>
  <linearGradient id="a" x1="179.6" x2="37.09" y1="14.29" y2="156.8" gradientTransform="matrix(.186 0 0 .2343 11.84 15.48)" gradientUnits="userSpaceOnUse">
   <stop stop-color="#ff00d4" offset="0"/>
   <stop stop-color="#0040ff" offset="1"/>
  </linearGradient>
 </defs>
 <path transform="translate(0) scale(1) translate(5e-4 -5e-5) scale(1) translate(-.003808 .00097) scale(.9999)" d="m12.18 4.998c-1.318-4e-3 -2.631 0.04605-3.928 0.2891-4.546 0.9429-8.135 4.876-8.215 9.188-0.05799 11.26 0.004746 22.53-0.03125 33.8-0.027 1.665 0.1624 3.368 0.9453 4.887 1.659 3.496 5.668 5.873 9.809 5.832 14.31-4e-3 28.63 0.03337 42.94-0.01563 5.406-0.08199 10.21-4.474 10.27-9.461 0.044-6.74 0.01367-13.48 0.01367-20.21 0.16-1.29-0.9045-2.573-2.326-2.66-1.45-0.177-2.882 0.9657-2.846 2.32-0.05 6.027-0.01153 12.06-0.01953 18.09-0.027 1.412 0.1746 2.909-0.5273 4.223-0.8759 1.75-2.888 2.961-4.988 2.953-13.58 0.025-27.16-0.0054-40.74 0.01563-1.292-9e-3 -2.644 0.08149-3.859-0.3965-2.043-0.7579-3.485-2.701-3.449-4.734-0.022-10.86 0.00833-21.7-0.01367-32.56 9e-3 -1.29-0.1091-2.658 0.5488-3.848 0.9559-1.878 3.202-3.061 5.445-2.926 3.264 0.06999 6.55-0.1355 9.805 0.1035 2.347 1.017 3.668 3.296 5.652 4.783 1.623 1.355 3.802 2.101 5.988 2.113 9.549 8e-3 19.1 0.05301 28.65 0.04102 1.225 0.07399 2.4-0.7553 2.629-1.871 0.415-1.441-0.9814-2.985-2.6-2.857-9.401-0.05399-18.81-0.06641-28.21-0.06641-0.9699 0.017-1.971-0.1902-2.744-0.7422-2.102-1.647-3.65-3.873-6.002-5.244-2.468-1.42-5.485-0.9392-8.238-1.018-1.312 0.04-2.633-0.01553-3.951-0.01953z" fill="url(#a)" stroke-width=".2088"/>
 <path transform="translate(0) scale(1) translate(5e-4 -5e-5) scale(1)" d="m32.84 18.83c-0.7322 0.01525-1.462 0.2752-2.051 0.7899l-6.111 5.343c-0.8646 0.7558-1.426 1.8-1.58 2.938a1.253 1.253 0 0 0 0 4.17e-4l-0.6251 4.631-3.422 7.41a1.253 1.253 0 0 0 0 4.18e-4c-0.5932 1.286-0.3324 2.815 0.6537 3.831l5.915 6.101a1.253 1.253 0 0 0 0.6744 0.2915 1.253 1.253 0 0 0 0.1215 0.08481c2.925 0.243 5.197 0.1329 7.895 1.209a1.253 1.253 0 0 0 0.1081 0.03752l1.985 0.5884c1.963 0.5821 4.04-0.7103 4.378-2.731l0.2998-1.794a1.253 1.253 0 0 0 0.01428-0.1236c0.02403-0.3614 0.1918-0.9312 0.7548-1.945 0.5669-1.02 1.509-2.453 2.936-4.493 0.6516-0.9289 0.6116-2.192-0.09747-3.078a1.253 1.253 0 0 0-8.35e-4 -8.35e-4l-0.7753-0.9661c-2.123-2.856-2.518-4.489-2.466-8.561l-4.17e-4 0.0025c0.0074-0.4907-0.1545-0.9694-0.4583-1.355a1.253 1.253 0 0 0-0.0017-0.0025l-5.583-7.047a1.253 1.253 0 0 0-0.01956-0.01101 1.253 1.253 0 0 0-0.0069-0.02121c-0.578-0.6811-1.389-1.061-2.222-1.123-0.1043-0.0078-0.209-0.01074-0.3136-0.0086zm0.05955 2.491c0.02307-6.05e-4 0.04593-8.5e-5 0.06892 0.0016 0.1154 0.0086 0.2242 0.05621 0.3257 0.1223 0.5788 2.238-0.5665 3.909-1.737 6.011a1.253 1.253 0 0 0-0.01917 0.03548c-1.158 2.247-1.396 4.228-1.112 6.047 0.2009 1.286 0.6237 2.51 1.071 3.783-0.7575 0.06567-1.536 0.1961-2.355 0.398-0.8135-2.303-2.253-4.216-4.105-5.454l0.5437-4.03v-4.17e-4c0.07287-0.5379 0.338-1.03 0.7466-1.387a1.253 1.253 0 0 0 0-4.17e-4l6.111-5.343a1.253 1.253 0 0 0 4.18e-4 0c0.1372-0.12 0.2994-0.181 0.4608-0.1851zm2.806 3.09 3.24 4.09c-0.03871 4.209 0.6354 6.832 2.961 9.957a1.253 1.253 0 0 0 0.02814 0.03629l0.798 0.9951c0.0203 0.02535 0.02065 0.04602 0.0021 0.0726a1.253 1.253 0 0 0-8.35e-4 0.0017c-0.7836 1.121-1.408 2.044-1.939 2.863-1.795-2.825-3.98-4.504-6.608-4.99-0.569-1.682-1.097-3.078-1.285-4.284-0.2167-1.388-0.1011-2.639 0.8621-4.51 0.6554-1.174 1.523-2.585 1.942-4.232zm-11.5 10.35c1.847 1.54 3.186 4.207 3.186 7.302 0 1.659-0.4556 3.451-1.126 4.877l-4.761-4.909a1.253 1.253 0 0 0-4.18e-4 -4.18e-4c-0.2702-0.2785-0.3393-0.6836-0.177-1.036v-4.17e-4zm7.951 5.011c0.3357-0.01255 0.6606-0.0047 0.9807 0.02284 2.541 0.2186 4.366 1.597 6.222 5.128-0.4086 0.8297-0.6924 1.572-0.754 2.28-3.5e-5 4.18e-4 3.6e-5 8.35e-4 0 0.0013l-0.2908 1.739c-0.09573 0.5725-0.6318 0.9083-1.195 0.7414l-1.931-0.5729c-6.27e-4 -2.09e-4 -1e-3 -1.93e-4 -0.0017-4.18e-4 -2.416-0.9534-4.52-1.096-6.596-1.216 0.8162-1.746 1.308-3.792 1.308-5.832 0-0.6393-0.05575-1.263-0.1423-1.875 0.8646-0.21 1.692-0.3886 2.401-0.4151z" fill="url(#a)" stroke-width=".2088"/>
</svg>
