<svg version="1.1" viewBox="0 0 64 64" xmlns="http://www.w3.org/2000/svg" xmlns:xlink="http://www.w3.org/1999/xlink">
 <defs>
  <linearGradient id="a" x1="16.23" x2="3.03" y1="13.2" gradientTransform="matrix(1.624 0 0 2.386 16.36 19.54)" gradientUnits="userSpaceOnUse">
   <stop stop-color="#f300ff" stop-opacity=".996" offset="0"/>
   <stop stop-color="#12dbb9" offset="1"/>
  </linearGradient>
  <linearGradient id="b" x1="27.43" x2="-7.662" y1="15.29" y2="-5.135" gradientTransform="matrix(1.624 0 0 2.386 16.36 19.54)" gradientUnits="userSpaceOnUse" xlink:href="#a"/>
 </defs>
 <path transform="translate(.000446 -8e-5) scale(1) translate(-.003 -.001) scale(.9999)" d="M12.18 5c-1.318-.004-2.632.045-3.929.288-4.547.943-8.134 4.879-8.214 9.19-.058 11.26.004 22.53-.032 33.8-.027 1.665.162 3.367.945 4.886 1.659 3.496 5.669 5.875 9.81 5.834 14.31-.004 28.63.033 42.94-.016 5.406-.082 10.21-4.476 10.27-9.463.044-6.741.014-13.48.014-20.21.16-1.29-.904-2.574-2.326-2.661-1.45-.177-2.883.965-2.847 2.32-.05 6.028-.01 12.06-.018 18.09-.027 1.412.174 2.91-.528 4.224-.876 1.75-2.889 2.96-4.99 2.952-13.58.025-27.16-.005-40.74.016-1.292-.009-2.643.083-3.859-.395-2.043-.758-3.486-2.702-3.45-4.736-.022-10.86.008-21.7-.014-32.56.009-1.29-.108-2.657.55-3.847.956-1.878 3.202-3.062 5.446-2.927 3.264.07 6.549-.136 9.804.103 2.347 1.017 3.668 3.297 5.653 4.784 1.623 1.355 3.804 2.101 5.99 2.113 9.55.008 19.1.054 28.65.042 1.225.074 2.4-.755 2.629-1.871.415-1.441-.983-2.985-2.601-2.857-9.402-.054-18.81-.066-28.21-.066-.97.017-1.971-.19-2.744-.742-2.102-1.647-3.65-3.875-6.002-5.246-2.468-1.42-5.486-.938-8.24-1.016-1.312.04-2.634-.016-3.952-.02z" fill="url(#b)" style="-inkscape-stroke:none;font-variation-settings:normal"/>
 <path transform="translate(.000446 -8e-5) scale(1)" d="M29.98 19.54c-.977 0-1.008.004-1.096.138-.073.112-1.472 3.055-2.507 5.271-.11.236-.454.963-.765 1.62-.683 1.44-2.007 4.245-2.322 4.92a307 307 0 0 1-.78 1.653c-.593 1.243-.86 1.96-1.03 2.768-.093.439-.095.515-.02.585.076.07 1.371.333 2.211.446.163.022.27.044.308.061l.007.004.004.004v.012h-.004l-.004.004c-.07.036-.495.057-1.234.057-1.085 0-1.299.015-1.38.096-.078.079-.096.262-.096 1.026 0 .623.026.939.074 1.003l.003.004.004.004c.07.048.435.065 1.242.065.647 0 1.19.026 1.207.054v.008h-.004l-.008.008c-.104.06-.824.207-1.83.369-.228.037-.451.105-.511.154l-.008.004c-.154.186.279 1.736.785 2.818a10.9 10.9 0 0 0 1.945 2.845c.221.231.403.443.403.465l-.004.004c-.01.03-.1.135-.211.242-.32.31-.29.458.161.823 1.781 1.439 3.9 2.306 6.255 2.56.135.015.713.02 1.284.008 1.58-.032 2.774-.282 4.218-.876 1.16-.478 2.97-1.651 3.014-1.953.013-.085-.06-.234-.203-.408l-.227-.277.496-.503a10.47 10.47 0 0 0 2.718-4.852c.17-.684.177-.77.092-.854-.059-.059-.534-.171-1.28-.303a57 57 0 0 0-1.234-.212h-.016v-.004h-.003v-.004h-.004v-.023a.1.1 0 0 1 .011-.03v-.005h.004l.004-.004h.004c.075-.035.535-.054 1.303-.05.703.004 1.307-.01 1.342-.03v-.004h.004l.004-.004v-.004c.083-.164.072-1.94-.016-2.084l-.007-.008c-.073-.05-.49-.07-1.461-.07-.82 0-1.31-.023-1.392-.06l-.004-.004v-.004h-.004v-.008h.004V37h.004l.004-.004q.054-.028.353-.061c.198-.023.71-.11 1.142-.192.432-.083.846-.15.92-.15.073 0 .193-.05.268-.112l.139-.111-.2-.762-.227-.884a.12.12 0 0 1 .012-.092c.037-.051.148-.096.396-.18.314-.108.444-.185.465-.273.016-.068.02-.851.011-1.742-.016-1.584-.02-1.632-.184-2.118-.081-.24-.18-.454-.23-.512l-.013-.008v-.003h-.003c-.042-.013-.432-.01-.87.007l-.795.035-.185.565c-.088.272-.187.498-.23.542h-.004v.004h-.008c-.032-.01-.315-.568-.63-1.238-3.556-7.549-4.73-10.02-4.795-10.1v-.004h-.004c-.059-.051-.354-.072-1.057-.072-.925 0-1.003.01-1.06.119-.041.075-.066.968-.066 2.476v2.357h-1.465V22.13c0-1.508-.025-2.4-.065-2.476-.059-.11-.138-.12-1.07-.12zm-.746.488h1.392v4.468l-.154.058c-.136.052-.156.096-.165.411-.006.195-.014.392-.02.443-.004.05-.03.593-.057 1.207-.046 1.075-.05 1.12-.177 1.146-1.638.327-2.947.851-4.168 1.672-.301.202-.804.592-1.115.865-.31.272-.565.475-.565.453 0-.02.198-.452.438-.96l.696-1.48 1.861-3.942a918 918 0 0 0 1.82-3.868zm3.837 0h.685l.688.004.9 1.907c.83 1.763 1.297 2.75 3.432 7.274.425.9.773 1.648.773 1.665q-.001.009-.004.016v.007h-.004l-.004.004h-.011c-.05-.009-.182-.123-.435-.377-1.358-1.36-3.273-2.32-5.513-2.768-.157-.031-.182-.228-.234-1.71-.041-1.162-.073-1.405-.189-1.5l-.004-.003-.003-.004c-.067-.08-.077-.498-.077-2.288zm-3.906 2.33a.91.91 0 0 0-.719.392c-.242.37-.06 1.003.346 1.207.258.13.486.136.765.02.59-.247.612-1.232.035-1.53a.8.8 0 0 0-.427-.089m5.194 0a.9.9 0 0 0-.715.392c-.242.37-.06 1.003.346 1.207.258.13.482.136.761.02.59-.247.612-1.232.035-1.53a.8.8 0 0 0-.427-.089m-5.19.485h.03c.302 0 .439.463.19.638a.5.5 0 0 1-.2.092.5.5 0 0 1-.2-.092c-.253-.177-.12-.611.18-.638m5.198 0h.027c.301 0 .438.463.188.638-.178.125-.31.118-.434-.02-.202-.222-.062-.595.22-.618m-3.549 2.138h.973c.657 0 .936.02.996.065l.004.004v.004h.003v.004c.015.042.068 1.08.12 2.307s.107 2.41.122 2.63c.016.218.044.838.066 1.376.021.537.05 1.06.061 1.16.011.101.024.498.031.885l.012.703-.404.02-.404.015v-.396c0-.414-.09-.551-.307-.477-.148.051-.18.147-.181.52 0 .218-.01.303-.054.334a.2.2 0 0 1-.1.015.2.2 0 0 1-.108-.02c-.043-.033-.046-.126-.046-.376 0-.411-.09-.547-.307-.473-.148.051-.18.147-.181.52v.35h-.746l.039-.75c.02-.412.062-1.353.096-2.093.114-2.546.125-2.753.154-3.18.015-.235.043-.897.061-1.469.018-.571.047-1.18.065-1.357zm4.333.061c-.334 0-.84.277-1.03.565-.234.354-.26.91-.065 1.3.152.306.364.491.719.623.487.182 1.168-.043 1.457-.48.23-.35.27-.96.084-1.323-.21-.411-.676-.685-1.165-.685zm-6.825.012q-.16.002-.307.05c-.571.183-.892.624-.892 1.23 0 .58.287.98.853 1.192.31.115.763.063 1.088-.127.538-.315.73-1.114.415-1.722-.196-.38-.696-.631-1.157-.623zm6.851.477c.266 0 .704.291.704.469v.007l-.004.004v.004l-.004.004v.004l-.004.004c-.047.041-.234.053-.692.053-.35 0-.644-.019-.696-.042h-.008v-.004c0-.2.423-.503.704-.503zm-6.848.011a.753.753 0 0 1 .707.373.772.772 0 0 1-.326 1.103c-.28.133-.457.127-.696-.02-.267-.162-.392-.372-.396-.668-.004-.293.125-.515.396-.68a.75.75 0 0 1 .315-.108zm6.863 1.011c.448.008.645.028.692.066v.004h.004v.007h.004v.016c-.03.12-.208.293-.392.388a.68.68 0 0 1-.7-.035c-.18-.11-.327-.292-.327-.411h.004v-.004h.004v-.004c.053-.023.353-.033.711-.027zm-1.772 1.711.358.046c.484.06 1.682.459 2.368.789.918.44.923.27-.05 1.623-.464.644-.86 1.18-.88 1.192h-.009c-.044-.002-.266-.097-.519-.22a7 7 0 0 0-.803-.33l-.311-.089-.043-1.053a48 48 0 0 0-.077-1.503zm-3.418.02h.15l-.042 1.146a33 33 0 0 1-.073 1.457l-.035.307-.438.142a7 7 0 0 0-4.072 3.487c-.223.444-.503 1.226-.585 1.634-.013.067-.024.12-.05.15l-.007.008c-.082.056-.314.01-1.103-.138a97 97 0 0 0-1.361-.246c-.223-.037-.4-.095-.439-.135l-.004-.004v-.008a10.16 10.16 0 0 1 5.575-7.005c.807-.383 2.095-.796 2.484-.796zm7.36 1.557h.015c.164.004.965.646 1.623 1.31.544.55 1.07 1.206 1.1 1.354v.011l-.004.004v.004l-.004.004c-.015.014-.68.262-1.48.55-.8.287-1.473.516-1.496.51-.023-.004-.29-.26-.592-.568-.303-.309-.634-.618-.735-.689l-.184-.127.13-.142c.071-.078.45-.599.846-1.153.396-.555.745-1.03.773-1.06v-.005h.004zm4.286.396c.313-.009.383.09.438.384l.043.227h-.65c-.312 0-.578-.013-.638-.03l-.004-.005h-.004v-.004c0-.02.031-.139.07-.265.062-.211.087-.234.341-.269q.248-.035.404-.038zm.588 1.096v1.01c0 .557-.02 1.013-.046 1.012h-.004c-.073-.017-.395-.254-.453-.335v-.004l-.004-.004c-.022-.072-.035-.44-.027-.85l.015-.791.262-.02zm-1.284.007h.247v.67c0 .37-.008.67-.016.668a6 6 0 0 1-.257-.188c-.24-.18-.247-.192-.235-.53.007-.192.014-.41.015-.485q.002-.057.02-.089l.007-.011.012-.008c.034-.023.095-.027.208-.027zm-11.01.412q.01.001.02.004h.011v.003h.008v.004l.004.004v.004c.016.04.018.16.004.28-.015.129-.046.723-.07 1.32-.032.828-.023 1.107.035 1.177.057.069.212.092.623.092h.546l-.02.165c-.015.135-.064.18-.265.239-.33.095-.825.35-1.053.542-.089.075-.176.137-.203.15h-.004c-.012-.003-.607-.49-1.323-1.084l-1.3-1.08.38-.358a6 6 0 0 1 1.453-1.019c.491-.248 1.006-.441 1.153-.442zm3.741.084q.017-.002.039.004l.065.016c.357.085 1.294.594 1.803.98.455.344.953.851.961.965v.004l-.003.004v.003a43 43 0 0 1-1.461.543c-.79.284-1.58.575-1.757.645-.178.07-.332.127-.339.123a10 10 0 0 0-.303-.096c-.243-.074-.289-.113-.289-.238 0-.148.005-.15.604-.15.413 0 .614-.027.669-.08.048-.059.053-.392.011-1.178-.059-1.108-.079-1.443-.027-1.526l.012-.011h.004l.004-.004h.004zm6.91 1.03.21.139c.103.066.182.145.193.184v.012l-.004.004c-.048.043-.38.188-.773.334-1.044.39-3.009 1.118-4.583 1.7-1.687.622-1.52.587-1.769.376a.8.8 0 0 1-.18-.196v-.012c.015-.015 1.404-.526 3.084-1.134s3.227-1.175 3.437-1.257zm.91.712h.016c.07-.002.162.047.32.157.123.088.217.177.234.22l.003.007v.004l-.003.004v.004c-.026.023-.778.305-1.67.626a1766 1766 0 0 0-5.566 2.022c-.072.03-.14-.022-.239-.18a1 1 0 0 1-.115-.235v-.004c.012-.01.451-.177.973-.369s1.566-.58 2.322-.86c.756-.282 1.868-.693 2.472-.916a28 28 0 0 0 1.203-.465.2.2 0 0 1 .05-.016zm-14.88.388h.005c.045 0 2.56 2.096 2.56 2.134 0 .02-.111.25-.246.511l-.242.473-.826-.008a9 9 0 0 1-1.646-.153c-.453-.082-.838-.162-.854-.177v-.004l-.004-.004v-.004c-.022-.13.254-1.029.454-1.46.18-.393.675-1.2.788-1.3l.008-.005zm5.095.673h.038c.112 0 .15.033.15.123s-.038.123-.15.123-.154-.034-.154-.123c0-.079.033-.116.116-.123m9.577.207.007.008c.11.1.371 1.106.327 1.246v.004l-.004.004h-.004c-.039.024-.281.079-.538.12-.256.04-.81.139-1.23.218-1.177.223-1.338.239-1.373.143-.057-.16-.143-.624-.134-.7v-.008c.063-.063 2.893-1.056 2.949-1.034zm-9.59.527h.05c.149 0 .15.012.15.423 0 .303.028.45.097.519.053.053.09.085.123.092.035.004.077-.017.153-.058.1-.053.12-.13.12-.492 0-.26 0-.365.034-.396l.004-.004h.004l.004-.003h.004q.03-.007.084.011c.37.11.922.435 1.2.708 1.412 1.382 1.026 3.652-.765 4.502-.43.204-.534.229-1.057.246-.49.016-.647-.004-.988-.127a2.8 2.8 0 0 1-1.803-1.97c-.328-1.225.346-2.63 1.534-3.186.214-.1.335-.146.396-.123l.012.004.007.007c.04.042.046.148.046.33 0 .249.03.393.096.458.057.057.092.088.127.093.034 0 .075-.02.146-.058.1-.054.12-.13.12-.52 0-.292.006-.404.05-.441a.1.1 0 0 1 .053-.016zm6.13.68.1.339c.048.167.076.322.069.361v.004c-.017.016-.411.096-.877.177-.76.132-1.787.188-1.91.115h-.005v-.003h-.004v-.008c0-.025.38-.177.842-.339a102 102 0 0 0 1.311-.469zm-6.002.854q-.074.001-.15.008c-.65.054-1.12.58-1.12 1.253 0 .495.32 1.004.735 1.169.227.09.829.081 1.061-.016.445-.185.711-.622.711-1.169 0-.736-.512-1.24-1.238-1.246zm-.016.515c.321 0 .36.015.554.227.175.19.208.276.208.511 0 .355-.158.587-.489.72-.3.12-.281.122-.58-.016-.296-.136-.458-.396-.458-.734 0-.201.04-.298.208-.481.194-.212.236-.227.557-.227m-10.06.15h1.592v.37h-1.592v-.185zm2.08 0h4.737v1.223h-4.737v-.611zm11.22 0h4.737v1.223h-4.737v-.611zm5.23 0h1.587v.37h-1.588v-.185zm-18.52.857h1.591v.366h-1.592v-.181zm18.52 0h1.587v.366h-1.588v-.181zm-5.388.854.72.004c.628.002 2.103.206 2.244.307l.004.004v.004h.004v.008c.005.039-.018.157-.058.288-.233.775-.851 1.813-1.465 2.457a5 5 0 0 1-.353.354c-.011 0-.443-.499-.958-1.107-.654-.774-.857-1.043-.86-1.142v-.008l.003-.011v-.004l.012-.012c.141-.113.466-.593.592-.876zm-7.074.008c.435-.01.822.001.877.042.033.025.125.179.207.342.083.163.239.406.346.542l.197.246-.985 1.123c-.541.617-1.018 1.123-1.057 1.123h-.004c-.133-.022-.76-.74-1.107-1.273-.336-.515-.718-1.32-.784-1.653-.01-.054-.021-.096-.012-.127v-.003l.008-.012.004-.004c.063-.067.313-.108 1.13-.258.26-.047.745-.078 1.18-.088zm10.65.384h.012q.01 0 .023.004c.053.015.423.085.827.158 1.479.265 2.312.424 2.338.45v.003h.003v.004c.029.12-.318 1.248-.565 1.822-.497 1.16-1.087 2.061-1.98 3.034-.27.295-.525.537-.576.55h-.004c-.04-.002-.557-.586-1.153-1.296l-1.088-1.288.388-.404a7.2 7.2 0 0 0 1.603-2.71c.064-.208.117-.303.17-.324zm-13.59.039h.012l.011.004q.086.038.181.345c.287.925.868 1.898 1.592 2.672l.396.423-.35.4c-.191.22-.583.663-.869.985-.285.321-.607.686-.715.81a2.4 2.4 0 0 1-.215.228h-.004a4 4 0 0 1-.358-.35c-.835-.88-1.564-1.971-2.01-3.007-.241-.558-.608-1.705-.608-1.9 0-.01.004-.025.008-.034l.011-.02c.04-.047.15-.08.393-.122.226-.039.867-.15 1.423-.25.554-.1 1.05-.184 1.103-.185zm4.964 1.107h.004a.1.1 0 0 1 .023 0 .3.3 0 0 1 .13.076c.14.127.638.341 1.02.443.716.19 1.755.051 2.403-.323.135-.079.271-.133.311-.131h.004c.05.018.516.568 3.772 4.437.904 1.074 1.122 1.348 1.12 1.457v.012l-.005.011-.004.004a.1.1 0 0 1-.026.03c-.415.328-1.485.992-2.007 1.246-1.09.53-2.37.908-3.518 1.034-.62.068-1.868.07-2.511.004-.604-.062-1.684-.314-2.361-.55-1.064-.37-2.495-1.165-3.23-1.792l-.243-.208.52-.573c.284-.316.985-1.11 1.556-1.76 2.302-2.624 2.99-3.398 3.041-3.419zm-.18 1.826c-.511 0-.846.26-.962.75-.083.353.229.915.577 1.041.237.086.658.038.854-.096.75-.512.423-1.696-.47-1.696zm4.16 0a.921.921 0 0 0-.516 1.696c.39.26.92.161 1.25-.231.13-.155.162-.255.162-.527 0-.6-.325-.938-.896-.938zm-2.053.373a.96.96 0 0 0-.73.35.86.86 0 0 0-.128.938c.137.308.237.4.55.51.782.28 1.47-.496 1.127-1.272a.87.87 0 0 0-.819-.527zm-2.145.08h.019c.05.002.098.023.173.062.293.151.348.477.115.696s-.54.166-.688-.12c-.078-.15-.082-.206-.015-.346a.6.6 0 0 1 .246-.242.4.4 0 0 1 .15-.05m4.179 0a.34.34 0 0 1 .165.046c.229.11.324.323.246.546a.5.5 0 0 1-.173.239c-.381.204-.788-.171-.63-.58.02-.055.117-.139.215-.19a.4.4 0 0 1 .177-.06zm-2.084.42h.057c.25.014.491.24.412.557a.47.47 0 0 1-.22.25c-.23.12-.26.117-.45-.031-.211-.167-.249-.324-.134-.546a.4.4 0 0 1 .335-.23m2.603 1.164a.9.9 0 0 0-.316.07c-.33.138-.488.305-.573.607-.13.463.11.956.55 1.13.364.145.784.028 1.053-.292.528-.627 0-1.537-.715-1.515zm-5.14.012a1 1 0 0 0-.22.03c-.84.227-.935 1.394-.142 1.747.584.26 1.311-.198 1.311-.823a.936.936 0 0 0-.95-.954zm5.117.457h.011c.05 0 .177.071.28.158.231.194.245.402.04.608a.53.53 0 0 1-.312.15c-.191 0-.458-.248-.458-.427 0-.144.296-.469.439-.489zm-2.53.004c-.467.015-.929.36-.927.896.001.359.15.658.407.815.28.17.761.161 1.03-.019a.954.954 0 0 0 .239-1.33.86.86 0 0 0-.75-.361zm-2.58.004h.03c.082.004.163.051.262.143.204.188.208.418.011.615-.238.238-.528.18-.7-.143q-.142-.264.158-.5a.46.46 0 0 1 .239-.115zm2.53.492h.03c.303-.002.557.34.404.627-.256.478-1.026.123-.792-.365a.53.53 0 0 1 .258-.239.4.4 0 0 1 .1-.023m-7.547 1.826-.381.431a9.169 5.989 0 0 0 8.043 3.126 9.169 5.989 0 0 0 7.966-3.034l-.346-.4a8.898 5.989 0 0 1-7.593 2.88 8.898 5.989 0 0 1-7.69-3.003z" color="#5c616c" fill="url(#a)"/>
</svg>
