<svg version="1.1" viewBox="0 0 64 64" xmlns="http://www.w3.org/2000/svg">
 <defs>
  <linearGradient id="a" x2="0" y2="1">
   <stop stop-color="#00f0ff" offset="0"/>
   <stop stop-color="#0070e0" offset="1"/>
  </linearGradient>
 </defs>
 <path transform="translate(-0) scale(1) translate(-.001599 .00229) scale(1) translate(.000105 .00036) scale(1)" d="m12.18 4.998c-1.318-0.0035-2.633 0.04413-3.93 0.2871l-0.00195 0.00977c-4.546 0.9429-8.133 4.879-8.213 9.189-0.05799 11.26 0.004746 22.53-0.03125 33.79-0.026 1.664 0.1604 3.365 0.9434 4.885 1.659 3.495 5.671 5.874 9.81 5.834 14.31-5e-3 28.63 0.03242 42.94-0.01758 5.404-0.08199 10.2-4.475 10.27-9.461 0.044-6.739 0.01367-13.47 0.01367-20.21 0.161-1.289-0.9024-2.573-2.324-2.66-1.448-0.177-2.884 0.9615-2.848 2.316-0.04899 6.019-0.0086 12.05-0.01758 18.08-0.027 1.413 0.1736 2.911-0.5273 4.225-0.8769 1.75-2.89 2.961-4.99 2.953-13.57 0.025-27.16-0.0054-40.74 0.01563-1.293-9e-3 -2.642 0.08342-3.857-0.3945-2.044-0.7569-3.487-2.701-3.451-4.734-0.023-10.86 0.006373-21.71-0.01562-32.56 9e-3 -1.289-0.1062-2.656 0.5508-3.846 0.9569-1.878 3.202-3.064 5.445-2.928 3.264 0.06999 6.55-0.1374 9.805 0.1016 2.347 1.017 3.666 3.299 5.65 4.785 1.623 1.355 3.804 2.1 5.99 2.113 9.549 7e-3 19.1 0.05206 28.65 0.03906 1.225 0.07499 2.401-0.7522 2.629-1.869 0.416-1.442-0.9837-2.985-2.602-2.857-9.399-0.054-18.8-0.06445-28.21-0.06445-0.9699 0.016-1.97-0.1902-2.744-0.7422-2.101-1.646-3.648-3.875-6-5.246-2.468-1.42-5.486-0.9386-8.24-1.018-1.312 0.039-2.633-0.01408-3.951-0.01758z" fill="url(#a)"/>
 <path transform="translate(-0) scale(1) translate(-.001599 .00229) scale(1) translate(.000105 .00036) scale(1)" d="m26.5 22.06a1.075 1.075 0 0 0-0.5156 0.1699l-7.836 5.076a1.076 1.076 0 0 0-0.08984 1.74l4.389 3.522-4.379 3.449a1.076 1.076 0 0 0 0.07813 1.746l5.039 3.291v3.244a1.08 1.08 0 0 0 0.5234 0.9238l7.836 4.682c0.342 0.204 0.7675 0.203 1.107-2e-3l7.812-4.703c0.323-0.194 0.5195-0.5439 0.5195-0.9219v-3.26l4.875-3.19a1.076 1.076 0 0 0 0.08594-1.738l-4.34-3.488 4.348-3.56a1.077 1.077 0 0 0-0.0918-1.732l-7.752-5.074a1.08 1.08 0 0 0-1.277 0.07227l-4.814 4.002-4.756-3.998a1.075 1.075 0 0 0-0.7617-0.25zm-0.0098 2.416 3.697 3.109-5.928 3.682-3.688-2.959zm11.11 0 5.859 3.836-3.631 2.973-5.973-3.695zm-5.584 4.5 5.834 3.611-5.816 3.564-5.809-3.578zm-7.762 4.912 5.93 3.65-3.693 3.106-1.639-1.07-4.273-2.793zm15.56 0.02734 3.639 2.924-5.828 3.814-3.754-3.1zm-7.799 4.902 4.826 4.012c0.363 0.302 0.8814 0.3303 1.277 0.07031l0.02148-0.01367 0.7031-0.459v1.244l-6.738 4.057-6.76-4.037v-1.228l0.6445 0.4199a1.08 1.08 0 0 0 1.281-0.07813z" fill="url(#a)"/>
</svg>
