<svg version="1.1" viewBox="0 0 64 64" xmlns="http://www.w3.org/2000/svg">
 <defs>
  <linearGradient id="a" x1="1" x2="0" y2="1">
   <stop stop-color="#bf00ff" offset="0"/>
   <stop stop-color="#6033ff" offset="1"/>
  </linearGradient>
 </defs>
 <path transform="translate(-.003499 .003499) scale(.9998) translate(.00019 .00142)" d="m12.18 4.998c-1.318-4e-3 -2.631 0.04608-3.928 0.2891-4.546 0.9428-8.135 4.877-8.215 9.188-0.05798 11.26 0.004742 22.53-0.03125 33.8-0.027 1.665 0.1625 3.368 0.9453 4.887 1.659 3.496 5.668 5.871 9.809 5.83 14.31-4e-3 28.63 0.03337 42.94-0.01563 5.406-0.08198 10.21-4.472 10.27-9.459 0.044-6.739 0.01367-13.48 0.01367-20.21 0.16-1.29-0.9046-2.571-2.326-2.658-1.45-0.177-2.882 0.9639-2.846 2.318-0.05 6.026-0.01153 12.06-0.01953 18.09-0.027 1.412 0.1745 2.909-0.5273 4.223-0.8758 1.75-2.888 2.961-4.988 2.953-13.58 0.025-27.16-0.0054-40.73 0.01563-1.292-9e-3 -2.644 0.08144-3.859-0.3965-2.043-0.7578-3.485-2.7-3.449-4.732-0.022-10.86 0.00833-21.7-0.01367-32.56 9e-3 -1.29-0.109-2.658 0.5488-3.848 0.9558-1.878 3.202-3.061 5.445-2.926 3.264 0.06998 6.548-0.1355 9.803 0.1035 2.347 1.017 3.668 3.294 5.652 4.781 1.623 1.355 3.8 2.101 5.986 2.113 9.548 8e-3 19.1 0.053 28.65 0.04102 1.225 0.07398 2.4-0.7554 2.629-1.871 0.415-1.441-0.9816-2.984-2.6-2.856-9.4-0.05398-18.81-0.06641-28.21-0.06641-0.9698 0.017-1.971-0.1902-2.744-0.7422-2.102-1.647-3.65-3.875-6.002-5.246-2.468-1.42-5.484-0.9372-8.236-1.016-1.312 0.04-2.633-0.01553-3.951-0.01953z" fill="url(#a)"/>
 <path transform="translate(-.003499 .003499) scale(.9998)" d="m32.04 23.06a3.762 3.762 0 0 0-2.624 1.044 3.508 3.508 0 0 0-1.112 2.56v5.357h-5.287a3.623 3.623 0 0 0-3.673 3.655c0 0.9939 0.3726 1.913 1.052 2.626a3.508 3.508 0 0 0 2.552 1.112h5.355v5.288c0 0.9906 0.3699 1.904 1.057 2.596 0.6935 0.7005 1.635 1.068 2.661 1.068 0.9558 0 1.854-0.3617 2.563-1.038a3.52 3.52 0 0 0 1.111-2.566v-5.348h5.288a3.647 3.647 0 0 0 2.598-1.057c0.7005-0.6935 1.068-1.634 1.068-2.659 0-0.9558-0.3626-1.856-1.038-2.564a3.52 3.52 0 0 0-2.564-1.111h-5.349v-5.293c0-0.9906-0.3711-1.908-1.057-2.599a3.612 3.612 0 0 0-2.598-1.068z" fill="#0f0" stroke-width=".81"/>
</svg>
