<svg version="1.1" viewBox="0 0 64 64" xmlns="http://www.w3.org/2000/svg">
 <defs>
  <linearGradient id="a" y1=".5" y2=".5">
   <stop stop-color="#66fff6" offset="0"/>
   <stop stop-color="#00b2ff" offset="1"/>
  </linearGradient>
 </defs>
 <path transform="translate(-.000564 .00037) scale(1) translate(-.003 .001) scale(.9999)" d="M12.18 4.998c-1.318-.004-2.631.044-3.928.287-4.546.943-8.135 4.88-8.215 9.191-.058 11.26.005 22.53-.031 33.8-.027 1.664.163 3.364.945 4.883 1.659 3.496 5.668 5.875 9.809 5.834 14.31-.004 28.63.034 42.94-.016 5.406-.082 10.21-4.476 10.27-9.463.045-6.74.014-13.48.014-20.21.16-1.289-.904-2.573-2.326-2.66-1.45-.177-2.882.964-2.846 2.318-.05 6.027-.01 12.06-.02 18.09-.027 1.412.175 2.91-.527 4.223-.876 1.75-2.888 2.96-4.988 2.951-13.58.025-27.16-.005-40.74.016-1.292-.008-2.644.083-3.86-.394-2.042-.758-3.484-2.701-3.448-4.734-.022-10.86.009-21.7-.014-32.56.01-1.29-.108-2.658.549-3.848.957-1.878 3.202-3.061 5.445-2.926 3.264.07 6.548-.136 9.803.103 2.347 1.017 3.67 3.296 5.654 4.783 1.623 1.355 3.802 2.1 5.988 2.111 9.549.008 19.1.055 28.65.043 1.225.074 2.401-.755 2.629-1.87.416-1.442-.981-2.986-2.6-2.858-9.401-.053-18.81-.064-28.21-.064-.97.016-1.971-.19-2.744-.743-2.102-1.647-3.65-3.875-6.002-5.246-2.468-1.42-5.485-.937-8.238-1.016-1.312.04-2.635-.016-3.953-.02z" fill="url(#a)"/>
 <path transform="translate(-.000564 .00037) scale(1) translate(-.003 .001) scale(.9999)" d="M46.57 19.42a.18.18 0 0 0-.143.082L38.7 31.482a.92.92 0 0 0 .172 1.195l1.016.875a1.59 1.59 0 0 0 1.385.344l.104-.024a1.66 1.66 0 0 1 1.143.15l1.574.825a.555.555 0 0 0 .808-.422l1.86-14.8a.182.182 0 0 0-.192-.205m-26.69 6.6a4.25 4.25 0 0 0-2.592.844h-.004l-6.05 4.4L17.005 31a5.83 5.83 0 0 1 5.873 4.225l3.398 11.9a1.124 1.124 0 0 0 1.875.486 28.43 28.43 0 0 1 24.6 1.352l-7.787-12.98-1.887-1.08a2.83 2.83 0 0 0-2.824.01l-6.867 3.992a4.336 4.336 0 0 1-6.182-2.084l-3.354-8.059a4.5 4.5 0 0 0-2.88-2.584 4.3 4.3 0 0 0-1.097-.158zm14.94 5.246a4.84 4.84 0 0 0-2.607.766l-3.877 2.48a1.174 1.174 0 0 0-.453 1.434l.273.668a3.435 3.435 0 0 0 4.875 1.686l6.463-3.672a.41.41 0 0 0 .057-.674l-2.205-1.791a4 4 0 0 0-2.525-.897z" fill="url(#a)"/>
</svg>
