<svg version="1.1" viewBox="0 0 64 64" xmlns="http://www.w3.org/2000/svg">
 <defs>
  <linearGradient id="a" y2="1">
   <stop stop-color="#00f4ff" offset="0"/>
   <stop stop-color="#0037dc" offset="1"/>
  </linearGradient>
 </defs>
 <path transform="translate(0) scale(1) translate(5e-4 -5e-5) scale(1) translate(-.003808 .00097) scale(.9999)" d="m12.18 4.998c-1.318-4e-3 -2.631 0.04605-3.928 0.2891-4.546 0.9429-8.135 4.876-8.215 9.188-0.05799 11.26 0.004746 22.53-0.03125 33.8-0.027 1.665 0.1624 3.368 0.9453 4.887 1.659 3.496 5.668 5.873 9.809 5.832 14.31-4e-3 28.63 0.03337 42.94-0.01563 5.406-0.08199 10.21-4.474 10.27-9.461 0.044-6.74 0.01367-13.48 0.01367-20.21 0.16-1.29-0.9045-2.573-2.326-2.66-1.45-0.177-2.882 0.9657-2.846 2.32-0.05 6.027-0.01153 12.06-0.01953 18.09-0.027 1.412 0.1746 2.909-0.5273 4.223-0.8759 1.75-2.888 2.961-4.988 2.953-13.58 0.025-27.16-0.0054-40.74 0.01563-1.292-9e-3 -2.644 0.08149-3.859-0.3965-2.043-0.7579-3.485-2.701-3.449-4.734-0.022-10.86 0.00833-21.7-0.01367-32.56 9e-3 -1.29-0.1091-2.658 0.5488-3.848 0.9559-1.878 3.202-3.061 5.445-2.926 3.264 0.06999 6.55-0.1355 9.805 0.1035 2.347 1.017 3.668 3.296 5.652 4.783 1.623 1.355 3.802 2.101 5.988 2.113 9.549 8e-3 19.1 0.05301 28.65 0.04102 1.225 0.07399 2.4-0.7553 2.629-1.871 0.415-1.441-0.9814-2.985-2.6-2.857-9.401-0.05399-18.81-0.06641-28.21-0.06641-0.9699 0.017-1.971-0.1902-2.744-0.7422-2.102-1.647-3.65-3.873-6.002-5.244-2.468-1.42-5.485-0.9392-8.238-1.018-1.312 0.04-2.633-0.01553-3.951-0.01953z" fill="url(#a)"/>
 <path transform="translate(0) scale(1) translate(5e-4 -5e-5) scale(1)" d="m33.02 21.39c-3.186 0-5.757 1.043-7.747 2.605-0.5943 0.4662-1.14 0.9738-1.646 1.509-7.892-0.4126-13.93 7.238-11.62 14.85 1.472 4.851 5.96 8.18 11.03 8.18h19.98c3.829-4.4e-5 7.289-2.312 8.754-5.849v-0.0013c1.996-4.817-0.3098-10.39-5.127-12.38-0.2554-0.1058-0.5276-0.156-0.7903-0.2388-2.091-5.203-7.126-8.642-12.74-8.677a1.537 1.537 0 0 0-0.09129-0.0025zm0 3.074c3.816 1.37e-4 7.278 2.014 9.201 5.206-2.521 0.2081-4.569 1.322-6.088 2.851-1.681 1.69-2.869 3.78-4.047 5.755-1.178 1.974-2.341 3.828-3.734 5.116-1.392 1.288-2.934 2.073-5.318 2.073-3.278-5.9e-5 -6.206-1.877-7.602-4.754 3.751-1.861 5.59-6.052 7.758-9.496 1.187-1.889 2.449-3.601 3.98-4.802s3.303-1.948 5.849-1.948zm-11.91 4.306c-0.177 0.2693-0.3494 0.5394-0.519 0.8091-2.123 3.379-3.803 6.56-5.994 8.046-0.3361-4.187 2.484-7.945 6.513-8.855zm21.9 3.885v0.0038c0.8408 2.3e-5 1.673 0.166 2.45 0.4877 3.283 1.36 4.825 5.081 3.465 8.365-0.9927 2.397-3.321 3.952-5.915 3.952h-12.4c1.726-1.659 2.961-3.688 4.11-5.616 1.191-1.995 2.307-3.875 3.588-5.163 1.28-1.287 2.608-2.028 4.698-2.028z" fill="url(#a)" stroke-width=".2561"/>
</svg>
