<svg version="1.1" viewBox="0 0 64 64" xmlns="http://www.w3.org/2000/svg" xmlns:xlink="http://www.w3.org/1999/xlink">
 <defs>
  <linearGradient id="a" x1="817.2" x2="104.6" y1="202.2" y2="914.8" gradientTransform="matrix(.05466 0 0 .04432 6.805 10.77)" gradientUnits="userSpaceOnUse">
   <stop stop-color="#fee800" offset="0"/>
   <stop stop-color="#ff1162" offset=".507"/>
   <stop stop-color="#ff00ab" offset="1"/>
  </linearGradient>
  <linearGradient id="b" x1="997.6" x2="-56.51" y1="29.87" y2="1021" gradientTransform="matrix(.05466 0 0 .04432 6.805 10.77)" gradientUnits="userSpaceOnUse" xlink:href="#a"/>
 </defs>
 <path transform="translate(5e-4 -5e-5) scale(1) translate(-.003808 .00097) scale(.9999)" d="m12.18 4.998c-1.318-4e-3 -2.631 0.04605-3.928 0.2891-4.546 0.9429-8.135 4.876-8.215 9.188-0.05799 11.26 0.004746 22.53-0.03125 33.8-0.027 1.665 0.1624 3.368 0.9453 4.887 1.659 3.496 5.668 5.873 9.809 5.832 14.31-4e-3 28.63 0.03337 42.94-0.01563 5.406-0.08199 10.21-4.474 10.27-9.461 0.044-6.74 0.01367-13.48 0.01367-20.21 0.16-1.29-0.9045-2.573-2.326-2.66-1.45-0.177-2.882 0.9657-2.846 2.32-0.05 6.027-0.01153 12.06-0.01953 18.09-0.027 1.412 0.1746 2.909-0.5273 4.223-0.8759 1.75-2.888 2.961-4.988 2.953-13.58 0.025-27.16-0.0054-40.74 0.01563-1.292-9e-3 -2.644 0.08149-3.859-0.3965-2.043-0.7579-3.485-2.701-3.449-4.734-0.022-10.86 0.00833-21.7-0.01367-32.56 9e-3 -1.29-0.1091-2.658 0.5488-3.848 0.9559-1.878 3.202-3.061 5.445-2.926 3.264 0.06999 6.55-0.1355 9.805 0.1035 2.347 1.017 3.668 3.296 5.652 4.783 1.623 1.355 3.802 2.101 5.988 2.113 9.549 8e-3 19.1 0.05301 28.65 0.04102 1.225 0.07399 2.4-0.7553 2.629-1.871 0.415-1.441-0.9814-2.985-2.6-2.857-9.401-0.05399-18.81-0.06641-28.21-0.06641-0.9699 0.017-1.971-0.1902-2.744-0.7422-2.102-1.647-3.65-3.873-6.002-5.244-2.468-1.42-5.485-0.9392-8.238-1.018-1.312 0.04-2.633-0.01553-3.951-0.01953z" fill="url(#b)" stroke-width=".04922"/>
 <path transform="translate(5e-4 -5e-5) scale(1)" d="m31.97 19.74c-0.8357 0.0068-1.44 0.1414-2.038 1.099l-5.434-0.0024-1.396-0.0026c-1.629-6e-3 -1.746 0.1387-2.466 1.605l-0.7939 1.579c-0.1387 0.2743-0.3513 0.7417-0.5217 0.9913-0.4296 0.02023-1.077-0.1256-1.391 0.1995-0.2639 0.2733-0.192 0.7412-0.2019 1.089-0.0052 0.4472 0.01034 0.9017-2e-3 1.351-0.7919 0.0379-1.35 0.162-1.925 0.7717-0.8889 0.943-0.5512 2.279-0.6246 3.519q-0.6721 0.0052-1.345-0.0017c-1.296-0.0056-1.297 0.08967-1.298 1.349v1.321c3.44e-4 1.223-0.02638 2.451-0.0031 3.673 0.0049 0.2563 0.03243 0.4591 0.2308 0.6438 0.2599 0.2417 1.943 0.1093 2.403 0.1592 0.0062 0.4096 0.0088 0.819 0.0074 1.229 0.0015 0.9159 0.02766 1.494 0.7368 2.18a2.077 2.077 0 0 0 0.9445 0.5291c0.3972 0.09706 1.124 0.06895 1.566 0.06817l2.213 5.91e-4c0.3557 7.91e-4 0.8603-0.01236 1.206 0.0122-2.96e-4 0.3734-0.0021 0.7521-9.9e-5 1.125 0.0041 0.7978-0.1019 1.557 0.9612 1.549l0.4426-0.0037c-0.8908 1.517-1.866 3.042-2.746 4.569-0.05729 0.09942-0.05148 0.3498-0.02362 0.4635a0.6315 0.6315 0 0 0 0.2999 0.3992c0.2794 0.1587 1.023 0.1107 1.37 0.1039 0.8505-0.01678 1.741 0.05837 2.581-0.02992 0.3113-0.03268 0.6881-0.7767 0.8411-1.035 0.3057-0.5143 0.6064-1.032 0.9012-1.553 0.5316-0.9347 1.169-1.968 1.652-2.91l0.02387-0.0471c0.2392 0.03509 0.6044 0.01334 0.8603 0.02338 0.2422 0.4158 0.5193 0.8446 0.7698 1.262l1.383 2.32c0.3191 0.5261 0.6226 1.091 0.9706 1.603 0.07762 0.1142 0.2159 0.2593 0.3555 0.2837 0.3243 0.05665 0.7255 0.03568 1.058 0.03411l1.572-0.0044c0.192 6.69e-4 0.3855 0.0082 0.5773 0.0095 0.4951 0.0035 0.8643 0.1094 1.138-0.3908 7.91e-4 -0.05867 0.0069-0.3196-0.0093-0.3559-0.1683-0.3807-0.4523-0.8047-0.6718-1.149a225 225 0 0 1-1.546-2.504c-0.1509-0.2428-0.6152-0.9199-0.7033-1.136 1.04-0.01029 1.493 0.1614 1.436-1.182-0.01516-0.3598-0.0223-1.063 0.0044-1.424 0.9927-0.03947 2.003 0.0089 3.004-0.0097 0.8987-0.01673 1.889 0.1309 2.574-0.6103 0.3602-0.3899 0.4669-0.7909 0.533-1.303 0.567-0.0091 1.134-0.01295 1.701-0.01166 0.1733-2.46e-4 0.8549-0.01555 0.9642 0.03002 2.189 0.9145 4.338 1.932 6.521 2.86 0.2299 0.0977 0.726-0.07929 0.7476-0.314 0.1415-0.2197 0.07466-1.812 0.06959-2.176q-0.01-1.053-0.0088-2.106l-0.0082-7.21c0.0082-0.9524-0.0037-1.901-0.01457-2.856-0.0074-0.6438 0.03863-1.306-0.0129-1.952-0.0092-0.3279-0.2884-0.5827-0.6162-0.5695-0.217 9e-3 -0.4234 0.1273-0.6187 0.2213-1.204 0.5803-2.439 1.099-3.655 1.654-0.7461 0.3409-1.488 0.7319-2.267 0.9898-0.1891 0.06113-0.9209 0.0411-1.151 0.04046l-1.693-1.96e-4c-0.02609-0.7063-0.05936-1.12-0.6005-1.633-0.6767-0.6423-1.756-0.5015-2.629-0.502l-10.94-0.0015c-1.396 0.0014-2.832 0.01821-4.225 0.0011 6.7e-4 -0.3905-0.01629-0.9622 0.01019-1.339 0.4107-0.2371 0.489-0.5001 0.6822-0.9169 0.08318-0.1795 0.166-0.3603 0.2441-0.5424 0.4561-0.01516 0.9287-0.01654 1.385-0.01048 1.479 0.01969 2.974-0.01939 4.452 0.0156 0.2829 0.535 0.7142 1.12 1.316 1.271 0.5621 0.1408 1.581 0.09164 2.165 0.09228l4.859 0.0032c0.7176 5e-5 1.196 0.08284 1.832-0.2936 0.5074-0.3009 0.7831-0.6635 0.9351-1.23a1.772 1.772 0 0 0 0.0598-0.3605c0.03115-0.4809-0.0065-1.135 0.0041-1.63 0.0051-0.2383 0.0044-1.04-0.02663-1.228a2.131 2.131 0 0 0-0.2721-0.7309 2.107 2.107 0 0 0-1.281-0.9524c-0.3649-0.09096-1.269-0.05345-1.682-0.05247l-2.354-0.0013-2.458-0.0024c-0.3386-3.44e-4 -0.6428-0.01236-0.9214-0.01009zm6.649 1.321c0.4506 0.0093 0.9588 0.1017 0.9952 0.6078 0.05261 0.7299-0.0063 1.543 0.02584 2.281 0.0064 0.1469-0.01378 0.4399-0.07575 0.569-0.2144 0.4472-0.7501 0.3901-1.163 0.3894-0.2197-9.13e-4 -0.41-0.0012-0.6142-0.0016l-4.765 4e-3c-0.141 6.7e-4 -0.3138 0.01034-0.4498 0.0027-0.4278-0.02362-1.004 0.1049-1.335-0.2253-0.2927-0.292-0.2472-0.787-0.2373-1.175 0.01565-0.6201-0.03824-1.249 0.02387-1.864 0.02314-0.2262 0.2668-0.502 0.4961-0.5365 0.411-0.04572 0.8495-0.02978 1.267-0.03066l2.43-0.0071 2.551-0.0073c0.1456-2.46e-4 0.2956-9.74e-4 0.4385-5.91e-4 0.1179-3e-3 0.2617-0.0092 0.4119-6e-3zm-11.89 1.11c0.9396 9.9e-5 2.028-0.02539 2.958 0.01029 0.01098 0.4476 0.0069 0.9371 0.0038 1.385-0.9091 0.04179-2.203 0.0065-3.137 0.0069-0.5704 9.74e-4 -2.957-0.06438-3.297 0.06782-0.3693 0.1435-0.6841 1.021-0.8436 1.384-0.4688 0.0093-1.101 0.0069-1.565-0.02953 0.09524-0.2307 0.2987-0.6152 0.4131-0.8475l0.9735-1.938c0.1097-0.01289 0.2489-0.02077 0.3611-0.03002 1.378-0.01093 2.755-0.01393 4.133-0.0089zm-7.658 4.165c0.8579 0.0046 1.796 0.01516 2.648 0.0049l-0.0015 1.317c-0.8795 0.01359-1.755-0.0059-2.636 0.01565-0.01157-0.4416 0.0049-0.881-0.01024-1.337zm31.05 2.285 0.01654 0.01545c0.03701 0.1739 0.02348 0.9578 0.02353 1.192l-2.46e-4 2.543-0.02057 10.04c-0.2949-0.08367-0.9258-0.4062-1.252-0.5512l-2.456-1.066c-0.4264-0.1992-1.167-0.4848-1.541-0.7112-0.03169-0.362-0.01486-1.009-0.01511-1.384-0.0021-0.8908 9.74e-4 -1.782 0.0092-2.673 0.01206-1.672-0.03942-3.383-0.0012-5.05 0.2658-0.173 0.7412-0.3505 1.051-0.4871l1.979-0.879c0.428-0.1887 0.8544-0.3807 1.28-0.5759 0.2251-0.1047 0.7097-0.347 0.9283-0.4047zm-15.3 0.3677c1.543 1.48e-4 3.091-4e-3 4.634 0.0079 0.1824 0.0042 0.3449 0.02151 0.4705 0.1673 0.08608 0.09996 0.1623 0.2033 0.1675 0.3411 0.02146 0.564 0.0124 1.137 0.01152 1.702l-0.0054 3.279-8e-3 4.537c-6.69e-4 0.7014 0.0086 1.405 0.0043 2.105-0.0024 0.4124-0.2411 0.6423-0.6457 0.6546-0.4172 0.01279-0.8436 0.0049-1.261 4e-3l-2.38-0.0032-7.393 0.0012-7.299-0.0012-2.368 0.0019c-0.4288 4.92e-4 -0.8593 8e-3 -1.288-5e-3 -0.5419-0.01639-0.7156-0.2734-0.9386-0.7048 0.01073-0.09283 0.0043-0.4702 0.0041-0.5788l-5.88e-4 -1.134-0.0071-3.821c0.0087-0.9652 0.0081-1.931-0.0018-2.896-0.01654-0.9076-0.04247-1.998 0.04061-2.909 0.02732-0.299 0.5153-0.7486 0.8155-0.7334 0.2886-0.01536 0.5773-0.01181 0.8638-0.01191l1.522 5.91e-4 5.256 0.0127 9.804-0.01634zm-8.726 1.376c-0.1537-6.7e-4 -0.309 0.0031-0.4638 3e-3l-6.3 0.0089c-0.6546 0.03367-1.229 0.4246-1.364 1.089-0.07555 0.3716-0.05493 0.8342-0.05394 1.216l0.0058 1.485c0.0011 0.6822-0.01993 1.37 0.0033 2.05 0.01408 0.4117 0.2445 0.8466 0.5542 1.113 0.4775 0.4124 1.136 0.3491 1.726 0.3484l1.445-0.0023 4.922 0.0018c0.6408-0.05153 1.251-0.4813 1.366-1.146 0.05183-0.3012 0.03401-0.6339 0.03352-0.9406l-0.0023-1.305-9.74e-4 -1.593c-6.7e-4 -0.7698 0.08736-1.434-0.5813-1.976-0.3813-0.3086-0.8288-0.3508-1.29-0.3529zm5.37 0.07909a2.018 2.018 0 0 0-0.2045 0.0051c-1.106 0.08308-1.934 1.049-1.847 2.155 0.08751 1.106 1.057 1.93 2.163 1.838 1.099-0.09145 1.918-1.054 1.83-2.154-0.0816-1.031-0.9302-1.818-1.942-1.844zm9.927 0.6792c0.7279 0.01112 1.458-0.0047 2.183 0.0058l0.0022 6.58c-0.0055 0.6192 0.05921 1.594 0.0087 2.167-0.2781 0.01624-1.897 0.04075-2.108-0.0055-0.07589-0.0945-0.04656-0.9952-0.06275-1.21-0.01925-1.75-0.0057-3.517-0.0051-5.266l-0.0041-1.542c-0.0012-0.1833 0.0097-0.5704-0.01427-0.7289zm-20.14 0.5576 3.067 0.0064c0.3015 0 2.154-0.03697 2.32 0.06984 0.1196 0.3864 0.02175 2.745 0.04725 3.307-0.0026 0.3174 8e-3 0.6349 0 0.9519-0.0014 0.0565-0.02446 0.216-0.0535 0.2625-0.07304 0.1171-0.3104 0.1139-0.4422 0.115-0.173 0.0015-0.358-0.0014-0.536-0.0022l-1.474-0.0054-3.214-5e-5c-0.4656 1.98e-4 -0.9307 0.0029-1.396 0.0043-0.1942 5.91e-4 -0.2462-0.0096-0.393-0.1396 0.02594-0.1281 0.01526-1.385 0.01506-1.591l-0.0021-1.769c-3.94e-4 -0.2904 0.01048-0.7343-0.01462-1.012 0.02919-0.05193 0.0883-0.178 0.1383-0.1808 0.5911-0.03308 1.353-0.01737 1.938-0.01693zm10.13 0.08766c0.376-0.01708 0.6969 0.2696 0.7215 0.6453 0.0249 0.3755-0.2551 0.7023-0.63 0.7348a0.6918 0.6918 0 1 1-0.0916-1.38zm6.477 0.01772c-0.2748-0.0072-0.5611 0.02057-0.786 0.02362q-0.7944 0.01541-1.589-0.0087c-0.2204 0.0222-0.4149 0.06817-0.5596 0.2573a0.6334 0.6334 0 0 0-0.1262 0.4724 0.6723 0.6723 0 0 0 0.2533 0.4383c0.2694 0.2054 0.9863 0.1486 1.339 0.1493l1.802 0.0031c0.3836-0.02412 0.6467-0.3372 0.6029-0.7334-0.05325-0.4815-0.4791-0.5901-0.9371-0.6024zm-23.91 1.468c0.377-0.0058 0.8746-0.01934 1.24 0.01393 0.01506 0.2097 0.0061 0.5478 0.0065 0.7678l0.0033 1.499 0.0044 1.384c6.88e-4 0.2377 0.01127 0.5857-0.0071 0.8136l-0.04085 0.0122c-0.36 1.97e-4 -0.9509 0.01762-1.287-0.01732-0.01723-0.3614-0.0059-4.373 0.02372-4.454l0.05586-0.0187zm23.9 3.138c-0.1771-0.0016-0.3548 0.0029-0.5247 0.0042l-1.804 0.01801-3.705-0.0022c-0.5946-0.0018-1.244-0.02131-1.832-0.0081-0.7063 0.0504-0.6241 0.5212-0.6261 1.081-0.0028 0.8269-0.01122 1.658 0.0088 2.484 0.0065 0.2125 0.1473 0.326 0.3114 0.4344l8.667 0.0015c0.3113-0.04302 0.4467-0.2143 0.4545-0.5266 0.01329-0.5335-0.0019-1.069 9.74e-4 -1.603-0.01058-0.3948 0.02702-1.219-0.02579-1.561-0.1127-0.1559-0.2056-0.2644-0.4046-0.2912-0.1676-0.02259-0.344-0.03012-0.5212-0.03164zm-1.527 1.319c0.3788-4e-3 0.8057-0.01742 1.179 0.01161 0.01541 0.1842 0.02303 1.206-0.0083 1.362l-0.1561 5e-3c-0.3363-0.02869-0.882-0.01585-1.233-0.01757-0.02475-0.1441-0.01909-1.175-0.0016-1.325 0.057-0.04311 0.1432-0.03322 0.2204-0.03568zm-1.555 0.0032q0.0099 0.6924 0.0015 1.385c-0.4106-2.95e-4 -1.004-0.01304-1.411-0.02953 0.0158-0.3678 0.02697-0.9844-0.0014-1.348 0.3815 9.8e-5 1.07-0.0282 1.411-0.0073zm-4.082 0.0069 1.4 0.0043c0.0086 0.2634 0.0096 1.116-0.02805 1.344-0.3798 0.02485-0.9726 0.0046-1.368 0.0035 0.0016-0.3158-0.03642-1.116-0.0037-1.352zm-4.139 1.345c-0.4626-0.0023-0.9445 0.0079-1.143 0.0081l-3.19-6.69e-4 -2.515-0.0035c-0.405 2.96e-4 -0.9238-0.01408-1.317 0.01009-0.5478 0.2967-0.6871 1.061 0.0054 1.292 0.1297 0.04331 0.7575 0.0223 0.9243 0.0223l1.908-3.94e-4 4.07 0.0023c0.662 9.74e-4 1.496 0.02707 2.134-0.0013 0.4207-0.1221 0.6763-0.4307 0.5163-0.8776a0.6556 0.6556 0 0 0-0.3659-0.384c-0.1211-0.05011-0.564-0.06497-1.027-0.06728zm3.171 4.03 2.834 0.0089c0.4215 0.0014 1.045-0.01659 1.455 0.01161l1e-3 1.318c-1.663 0.04676-3.358-0.01206-5.025 0.0071-1.911 0.02205-3.828-0.01098-5.739-0.0026-0.07545 3.45e-4 -0.09533 0.01398-0.1224-0.06295 0.02569-0.3184 0.01231-0.7722 0.0063-1.093l0.01231-0.1347c0.08086-0.06334 1.815-0.04287 2.054-0.04429l4.523-0.0075zm2.067 2.637c0.1677-0.0058 0.3871 0.0063 0.5586 0.01097 0.8018 1.283 1.594 2.571 2.385 3.861a13.19 13.19 0 0 0 0.2047 0.3241c-0.3517 0.01536-0.8387-0.01024-1.2-0.02008q-0.3262 7.91e-4 -0.6521-0.0035c-0.7683-1.15-1.494-2.368-2.217-3.548-0.1229-0.2008-0.2444-0.3929-0.3493-0.6039 0.4046-0.01885 0.8613-0.01496 1.27-0.02048zm-7.004 0.01338c0.5975-0.0033 1.304-9e-3 1.894 0.01343-0.1359 0.3431-0.5434 0.9839-0.7461 1.322l-1.033 1.752c-0.1115 0.1877-0.6339 1.103-0.7363 1.22-0.4778 1e-3 -1.508 0.02496-1.938-0.02928 0.186-0.4349 0.5635-0.9327 0.8018-1.353 0.5537-0.9765 1.235-1.935 1.757-2.924z" fill="url(#a)" stroke-width=".04922"/>
</svg>
