<svg version="1.1" viewBox="0 0 64 64" xmlns="http://www.w3.org/2000/svg">
 <defs>
  <linearGradient id="b" x1="5.471" x2="58.53" y1="14.1" y2="49.89" gradientUnits="userSpaceOnUse">
   <stop stop-color="#d300dc" offset="0"/>
   <stop stop-color="#8700ff" offset="1"/>
  </linearGradient>
  <linearGradient id="d" x2="1" y1=".5" y2=".5" gradientTransform="matrix(22.98 0 0 21.49 .45 2.706)" gradientUnits="userSpaceOnUse">
   <stop stop-color="#f7f206" offset="0"/>
   <stop stop-color="#ffbb24" offset=".978"/>
  </linearGradient>
  <linearGradient id="c" x1=".576" x2=".128" y1=".387" y2=".792" gradientTransform="matrix(-40.36 0 0 40.38 47.55 4.913)" gradientUnits="userSpaceOnUse">
   <stop stop-color="#d300dc" offset="0"/>
   <stop stop-color="#8700ff" offset="1"/>
  </linearGradient>
 </defs>
 <path transform="translate(-.000533 1e-4) scale(.9999) translate(-.002 .006)" d="M12.18 5c-1.318-.004-2.633.044-3.93.287-4.547.943-8.133 4.879-8.214 9.19-.058 11.26.005 22.53-.031 33.79-.027 1.663.16 3.365.942 4.884 1.66 3.496 5.67 5.874 9.81 5.833 14.31-.004 28.63.034 42.94-.015 5.406-.082 10.21-4.477 10.27-9.464.045-6.741.013-13.48.013-20.21.161-1.29-.903-2.572-2.326-2.66-1.449-.176-2.882.964-2.846 2.319-.049 6.028-.009 12.06-.018 18.09-.027 1.412.173 2.91-.528 4.224-.877 1.75-2.888 2.96-4.99 2.953-13.58.025-27.16-.005-40.74.016-1.292-.009-2.643.081-3.86-.396-2.042-.758-3.485-2.7-3.45-4.734-.022-10.85.01-21.7-.012-32.56.009-1.29-.108-2.656.55-3.846.956-1.878 3.2-3.063 5.444-2.927 3.264.07 6.55-.138 9.805.101 2.347 1.017 3.666 3.3 5.651 4.786 1.623 1.355 3.806 2.1 5.992 2.112 9.55.008 19.1.054 28.65.042 1.225.074 2.402-.754 2.63-1.87.416-1.441-.986-2.987-2.604-2.859-9.403-.054-18.81-.065-28.21-.065-.97.016-1.97-.19-2.745-.742-2.1-1.647-3.648-3.874-6-5.245-2.468-1.421-5.485-.94-8.24-1.018-1.312.039-2.635-.015-3.953-.019z" fill="url(#b)"/>
 <g transform="translate(-.000533 1e-4) scale(.9999)" style="isolation:isolate">
  <path transform="translate(14.832 18.6)scale(.6783)" d="M28.35 4.913a15 15 0 0 1 4.208 10.4c0 3.983-1.583 7.791-4.383 10.59a14.98 14.98 0 0 1-10.59 4.4 14.98 14.98 0 0 1-10.4-4.208 20.25 20.25 0 0 0 6.243 13.64 20.33 20.33 0 0 0 13.93 5.565 20.23 20.23 0 0 0 14.28-5.931 20.15 20.15 0 0 0 5.914-14.28c0-5.183-2-10.17-5.565-13.91a20.2 20.2 0 0 0-13.64-6.259zm9.409 9.391a14.97 14.97 0 0 1 4.573 10.78c0 3.965-1.583 7.791-4.383 10.59a14.98 14.98 0 0 1-10.59 4.4c-4.069 0-7.964-1.67-10.78-4.591.33.017.66.034 1.008.034 5.356 0 10.49-2.14 14.28-5.93a20.15 20.15 0 0 0 5.912-14.28c0-.33 0-.661-.016-1.008z" fill="url(#c)"/>
  <path transform="translate(14.832 18.6)scale(.6783)" d="m10.06 2.706-.731 1.336-1.334.73 1.334.729.731 1.336.73-1.336 1.334-.73-1.335-.729zm11.31 8.42-.73 1.336-1.336.73 1.337.73.729 1.334.73-1.334 1.336-.73-1.336-.73zM4.58 14.558l-1.46 2.669-2.67 1.462 2.67 1.459 1.46 2.67 1.46-2.67 2.67-1.459-2.67-1.462zm13.77 4.131-.974 1.78-1.78.973 1.78.974.974 1.78.973-1.78 1.78-.974-1.78-.973z" fill="url(#d)"/>
 </g>
</svg>
