<svg version="1.1" viewBox="0 0 64 64" xmlns="http://www.w3.org/2000/svg" xmlns:xlink="http://www.w3.org/1999/xlink">
 <defs>
  <linearGradient id="a" x1="3.394" x2="3.394" y1="18.6" y2="1.567" gradientTransform="scale(.9117 1.097)" gradientUnits="userSpaceOnUse">
   <stop stop-color="#fe0844" offset="0"/>
   <stop stop-color="#feb302" offset="1"/>
  </linearGradient>
  <linearGradient id="b" x1="35.08" x2="35.08" y1="53.79" y2="10.88" gradientTransform="scale(.9117 1.097)" gradientUnits="userSpaceOnUse" xlink:href="#a"/>
 </defs>
 <path transform="translate(-.000323 1e-5) scale(1) translate(.002 -.001) scale(.9999)" d="M8.271 5.279c2.575-.478 5.222-.177 7.828-.26 2.682.095 5.584-.407 8.029.894 2.495 1.342 4.073 3.677 6.241 5.378.778.523 1.753.762 2.714.733 9.241 0 18.48 0 27.72.037 1.256-.136 2.669.437 3.04 1.622.644 1.52-.827 3.282-2.575 3.142-9.527.008-19.06-.033-28.59-.05-2.307.005-4.605-.823-6.268-2.301-1.449-1.29-2.768-2.697-4.216-3.978-.662-.58-1.6-.766-2.49-.725-3.071.025-6.147-.02-9.219.02-2.888.067-5.378 2.5-5.293 5.16 0 11.39-.009 22.77-.004 34.16-.072 2.727 2.589 5.177 5.553 5.116 14.16.008 28.33.008 42.49-.004 2.964.053 5.629-2.413 5.53-5.152.009-6.445.004-12.89-.005-19.33.014-.754-.013-1.598.559-2.207.925-1.161 3.013-1.227 4.01-.112.653.61.653 1.511.648 2.31-.031 6.606.023 13.21-.027 19.82-.085 4.98-4.886 9.344-10.27 9.426-14.31.037-28.62.021-42.93.009-4.135.04-8.146-2.335-9.8-5.831-.791-1.524-.96-3.237-.947-4.9.035-11.26-.036-22.52.026-33.77.085-4.324 3.68-8.27 8.244-9.204z" fill="url(#b)" style="-inkscape-stroke:none;font-variation-settings:normal"/>
 <path transform="translate(-.000323 1e-5) scale(1) translate(15.71 18.93) scale(1.498)" d="M5.5 6.178c0-.861.276-1.291.61-1.546.388-.298 1.054-.508 2.064-.508h5.373c.982 0 1.664.197 2.07.488.339.244.604.634.604 1.41v11.73l-4.51-2.456-.003-.002a1.83 1.83 0 0 0-1.741 0l-.007.004-4.46 2.444zm-2.406 12.22a2.1 2.1 0 0 0 .259.972 2.04 2.04 0 0 0 2.74.792l4.745-2.6 4.778 2.6.026.015a2.1 2.1 0 0 0 .953.233 2.03 2.03 0 0 0 2.032-2.032V6.028c0-1.456-.564-2.617-1.609-3.366-.979-.702-2.236-.939-3.47-.939H8.173c-1.277 0-2.55.255-3.528 1.004-1.034.792-1.552 1.991-1.552 3.456v12.22zm4.653-11.13a1.203 1.203 0 1 0 0 2.406h6.18a1.203 1.203 0 1 0 0-2.406z" fill="url(#a)" fill-rule="evenodd"/>
</svg>
