<svg version="1.1" viewBox="0 0 64 64" xmlns="http://www.w3.org/2000/svg">
 <defs>
  <linearGradient id="a" x1="1" x2="0" y1=".5" y2=".5">
   <stop stop-color="#9c33c4" offset="0"/>
   <stop stop-color="#ff1950" offset=".508"/>
   <stop stop-color="#ff8724" offset="1"/>
  </linearGradient>
 </defs>
 <path transform="translate(-.003564 .00137) scale(.9999)" d="M12.18 4.998c-1.318-.004-2.631.044-3.928.287-4.547.943-8.135 4.88-8.215 9.191-.058 11.26.005 22.53-.031 33.8-.027 1.664.163 3.364.945 4.883 1.659 3.496 5.668 5.875 9.809 5.834 14.31-.004 28.63.034 42.94-.016 5.405-.082 10.21-4.476 10.27-9.463.045-6.74.014-13.48.014-20.21.16-1.289-.904-2.573-2.326-2.66-1.45-.177-2.882.964-2.846 2.318-.05 6.027-.01 12.06-.02 18.09-.027 1.412.175 2.91-.527 4.223-.876 1.75-2.887 2.96-4.988 2.951-13.58.025-27.16-.005-40.74.016-1.292-.008-2.643.083-3.86-.394-2.042-.758-3.484-2.701-3.448-4.734-.022-10.86.009-21.7-.014-32.56.01-1.29-.108-2.658.549-3.848.957-1.878 3.202-3.061 5.445-2.926 3.264.07 6.548-.136 9.803.103 2.347 1.017 3.669 3.296 5.654 4.783 1.623 1.355 3.802 2.1 5.988 2.111 9.549.008 19.1.055 28.65.043 1.225.074 2.401-.755 2.629-1.87.416-1.442-.981-2.986-2.6-2.858-9.401-.053-18.81-.064-28.21-.064-.97.016-1.971-.19-2.744-.743-2.102-1.647-3.65-3.875-6.002-5.246-2.468-1.42-5.485-.937-8.238-1.016-1.312.04-2.635-.016-3.953-.02z" fill="url(#a)"/>
 <path transform="translate(-.003564 .00137) scale(.9999)" d="M21.71 21.19a.61.61 0 0 0-.598.408l-3.64 9.855h8.478l-3.645-9.855a.61.61 0 0 0-.594-.408zm20.57 0a.61.61 0 0 0-.596.41l-3.646 9.855h8.48L42.875 21.6a.61.61 0 0 0-.595-.41zm4.236 10.27-14.53 18.48 15.91-10.98a1.16 1.16 0 0 0 .457-1.332zm-14.53 18.48-14.53-18.48-1.84 6.168a1.16 1.16 0 0 0 .457 1.332zm0 0 6.047-18.48h-12.09z" fill="url(#a)"/>
</svg>
