<svg version="1.1" viewBox="0 0 64 64" xmlns="http://www.w3.org/2000/svg" xmlns:xlink="http://www.w3.org/1999/xlink">
 <defs>
  <linearGradient id="a" y1="1">
   <stop stop-color="#5433ff" offset="0"/>
   <stop stop-color="#20bdff" offset=".5"/>
   <stop stop-color="#a5fecb" offset="1"/>
  </linearGradient>
  <linearGradient id="e" x1="13.7" x2="20.68" y1="18.38" y2="11.4" gradientTransform="matrix(1.344 0 0 1.551 14.67 18.2)" gradientUnits="userSpaceOnUse" xlink:href="#a"/>
  <linearGradient id="d" x1="4.25" x2="11.75" y1="11.75" y2="4.25" gradientTransform="matrix(1.444 0 0 1.444 14.67 18.2)" gradientUnits="userSpaceOnUse" xlink:href="#a"/>
  <linearGradient id="c" x1="1.249" x2="14.75" y1="14.75" y2="1.25" gradientTransform="matrix(1.444 0 0 1.444 14.67 18.2)" gradientUnits="userSpaceOnUse" xlink:href="#a"/>
  <linearGradient id="b" x1="9.25" x2="22.75" y1="22.75" y2="9.25" gradientTransform="matrix(1.444 0 0 1.444 14.67 18.2)" gradientUnits="userSpaceOnUse" xlink:href="#a"/>
  <linearGradient id="f" x1="-8.26" x2="32.31" y1="25.97" y2="-4.222" gradientTransform="matrix(1.444 0 0 1.444 14.67 18.2)" gradientUnits="userSpaceOnUse" xlink:href="#a"/>
 </defs>
 <path transform="translate(0) scale(1) translate(5e-4 -5e-5) scale(1) translate(-.003808 .00097) scale(.9999)" d="m12.18 4.998c-1.318-4e-3 -2.631 0.04605-3.928 0.2891-4.546 0.9429-8.135 4.876-8.215 9.188-0.05799 11.26 0.004746 22.53-0.03125 33.8-0.027 1.665 0.1624 3.368 0.9453 4.887 1.659 3.496 5.668 5.873 9.809 5.832 14.31-4e-3 28.63 0.03337 42.94-0.01563 5.406-0.08199 10.21-4.474 10.27-9.461 0.044-6.74 0.01367-13.48 0.01367-20.21 0.16-1.29-0.9045-2.573-2.326-2.66-1.45-0.177-2.882 0.9657-2.846 2.32-0.05 6.027-0.01153 12.06-0.01953 18.09-0.027 1.412 0.1746 2.909-0.5273 4.223-0.8759 1.75-2.888 2.961-4.988 2.953-13.58 0.025-27.16-0.0054-40.74 0.01563-1.292-9e-3 -2.644 0.08149-3.859-0.3965-2.043-0.7579-3.485-2.701-3.449-4.734-0.022-10.86 0.00833-21.7-0.01367-32.56 9e-3 -1.29-0.1091-2.658 0.5488-3.848 0.9559-1.878 3.202-3.061 5.445-2.926 3.264 0.06999 6.55-0.1355 9.805 0.1035 2.347 1.017 3.668 3.296 5.652 4.783 1.623 1.355 3.802 2.101 5.988 2.113 9.549 8e-3 19.1 0.05301 28.65 0.04102 1.225 0.07399 2.4-0.7553 2.629-1.871 0.415-1.441-0.9814-2.985-2.6-2.857-9.401-0.05399-18.81-0.06641-28.21-0.06641-0.9699 0.017-1.971-0.1902-2.744-0.7422-2.102-1.647-3.65-3.873-6.002-5.244-2.468-1.42-5.485-0.9392-8.238-1.018-1.312 0.04-2.633-0.01553-3.951-0.01953z" fill="url(#f)" stroke-width="1.444"/>
 <path transform="translate(0) scale(1) translate(5e-4 -5e-5) scale(1)" d="m37.77 35.89a1.083 1.083 0 0 0-0.9985 0.6656l-2.409 5.777-1.202 2.888a1.083 1.083 0 0 0 0.581 1.416 1.083 1.083 0 0 0 1.416-0.581l0.928-2.223h3.368l0.928 2.223a1.083 1.083 0 0 0 1.416 0.581 1.083 1.083 0 0 0 0.581-1.416l-1.202-2.888-2.409-5.777a1.083 1.083 0 0 0-0.9985-0.6656zm0 3.898 0.7813 1.879h-1.563z" fill="url(#e)" stroke-width="1.444"/>
 <path transform="translate(0) scale(1) translate(5e-4 -5e-5) scale(1)" d="m25.79 24.33a1.083 1.083 0 0 0-1.083 1.083v0.1128h-2.815a1.083 1.083 0 0 0-1.083 1.083 1.083 1.083 0 0 0 1.083 1.083h4.691c-0.2384 0.4968-0.4932 0.9761-0.8096 1.456-0.1516-0.222-0.4436-0.5962-0.4682-0.6487a1.083 1.083 0 0 0-1.441-0.5218 1.083 1.083 0 0 0-0.5218 1.441c0.25 0.5339 0.7214 1.081 1.148 1.625-0.6744 0.7744-1.358 1.544-2.119 2.234a1.083 1.083 0 0 0-0.07334 1.529 1.083 1.083 0 0 0 1.529 0.07334c0.7391-0.6714 1.395-1.424 2.059-2.169l0.8885 0.9224a1.083 1.083 0 0 0 1.531 0.03104 1.083 1.083 0 0 0 0.0282-1.531l-1.131-1.176c0.7279-0.9985 1.348-2.084 1.794-3.264h1.56a1.083 1.083 0 0 0 1.083-1.083 1.083 1.083 0 0 0-1.083-1.083h-3.684v-0.1128a1.083 1.083 0 0 0-1.083-1.083z" fill="url(#d)" stroke-width="1.444"/>
 <path transform="translate(0) scale(1) translate(5e-4 -5e-5) scale(1)" d="m26.22 20c-2.042 0-3.597-0.0059-4.9 0.1693-1.301 0.175-2.422 0.5772-3.261 1.416-0.8405 0.8396-1.244 1.961-1.419 3.264-0.1752 1.303-0.1693 2.858-0.1693 4.9s-6e-3 3.597 0.1693 4.9c0.175 1.301 0.5772 2.422 1.416 3.261h0.0028v0.0029c0.8394 0.8388 1.96 1.241 3.261 1.416 1.303 0.175 2.858 0.1691 4.9 0.1691h2.888a1.083 1.083 0 0 0 1.083-1.083 1.083 1.083 0 0 0-1.083-1.083h-2.888c-2.042 0-3.551-0.0074-4.608-0.1495-1.057-0.1422-1.591-0.3722-2.019-0.8011v-0.0029h-0.0028c-0.4289-0.4282-0.6588-0.9624-0.8011-2.019-0.1422-1.057-0.1495-2.566-0.1495-4.608s0.0073-3.551 0.1495-4.608 0.3722-1.591 0.8011-2.019h0.0028v-0.0028c0.4283-0.4289 0.9624-0.6588 2.019-0.8011 1.057-0.1422 2.566-0.1495 4.608-0.1495s3.551 0.0073 4.608 0.1495 1.591 0.3722 2.019 0.8011v0.0028h0.0029c0.4289 0.4283 0.6588 0.9624 0.8011 2.019 0.142 1.057 0.1495 2.566 0.1495 4.608v2.888a1.083 1.083 0 0 0 1.083 1.083 1.083 1.083 0 0 0 1.083-1.083v-2.888c0-2.042 0.0059-3.597-0.1693-4.9-0.175-1.301-0.5772-2.422-1.416-3.261-0.8396-0.8405-1.961-1.244-3.264-1.419-1.303-0.1752-2.858-0.1693-4.9-0.1693z" fill="url(#c)" stroke-width="1.444"/>
 <path transform="translate(0) scale(1) translate(5e-4 -5e-5) scale(1)" d="m37.77 31.55c-2.042 0-3.597-6e-3 -4.9 0.1693-1.301 0.175-2.422 0.5772-3.261 1.416-0.8405 0.8396-1.244 1.961-1.419 3.264s-0.1693 2.858-0.1693 4.9-6e-3 3.597 0.1693 4.9c0.175 1.301 0.5772 2.422 1.416 3.261h0.0029v0.0029c0.8394 0.8388 1.96 1.241 3.261 1.416 1.303 0.175 2.857 0.1691 4.899 0.1691s3.597 0.0059 4.9-0.1693 2.423-0.5782 3.264-1.419c0.8388-0.8394 1.241-1.96 1.416-3.261 0.1752-1.303 0.1693-2.858 0.1693-4.9s0.0059-3.597-0.1693-4.9c-0.175-1.301-0.5772-2.422-1.416-3.261-0.8396-0.8405-1.961-1.244-3.264-1.419s-2.858-0.1693-4.9-0.1693zm0 2.166c2.042 0 3.551 0.0074 4.608 0.1495 1.057 0.1422 1.591 0.3722 2.019 0.8011v0.0029h0.0029c0.4289 0.4283 0.6588 0.9624 0.8011 2.019 0.142 1.057 0.1495 2.566 0.1495 4.608s-0.0074 3.551-0.1495 4.608c-0.1422 1.057-0.3722 1.591-0.8011 2.019h-0.0029v0.0029c-0.4283 0.4289-0.9624 0.6588-2.019 0.8011-1.057 0.142-2.566 0.1495-4.608 0.1495s-3.551-0.0074-4.608-0.1495c-1.057-0.1422-1.591-0.3722-2.019-0.8011v-0.0029h-0.0029c-0.4288-0.4282-0.6588-0.9624-0.8009-2.019-0.1422-1.057-0.1495-2.566-0.1495-4.608s0.0074-3.551 0.1495-4.608c0.1422-1.057 0.3722-1.591 0.8011-2.019h0.0029v-0.0029c0.4283-0.4289 0.9624-0.6588 2.019-0.8011 1.057-0.142 2.566-0.1495 4.608-0.1495z" fill="url(#b)" stroke-width="1.444"/>
 <path transform="translate(0) scale(1) translate(5e-4 -5e-5) scale(1)" d="m20.44 40.94a1.083 1.083 0 0 0-1.083 1.083c0 2.028-0.07687 3.258 0.6685 4.372 0.2898 0.4338 0.6635 0.8074 1.097 1.097 1.115 0.7453 2.344 0.6685 4.372 0.6685a1.083 1.083 0 0 0 1.083-1.083 1.083 1.083 0 0 0-1.083-1.083c-2.028 0-2.826-0.07663-3.167-0.3046a1.083 1.083 0 0 0-0.0028 0c-0.1973-0.1318-0.3647-0.2992-0.4965-0.4965a1.083 1.083 0 0 0 0-0.0029c-0.228-0.3408-0.3046-1.14-0.3046-3.167a1.083 1.083 0 0 0-1.083-1.083z" fill="#ff007c" stroke-width="1.444"/>
 <path transform="translate(0) scale(1) translate(5e-4 -5e-5) scale(1)" d="m38.5 22.89a1.083 1.083 0 0 0-1.083 1.083 1.083 1.083 0 0 0 1.083 1.083c2.028 0 2.826 0.07663 3.167 0.3046a1.083 1.083 0 0 0 0.0029 0c0.1973 0.1318 0.3647 0.2992 0.4965 0.4965a1.083 1.083 0 0 0 0 0.0028c0.2279 0.341 0.3046 1.14 0.3046 3.167a1.083 1.083 0 0 0 1.083 1.083 1.083 1.083 0 0 0 1.083-1.083c0-2.028 0.07687-3.258-0.6685-4.372-0.2898-0.4338-0.6635-0.8074-1.097-1.097-1.115-0.7453-2.344-0.6685-4.372-0.6685z" fill="#ff007c" stroke-width="1.444"/>
</svg>
