<svg version="1.1" viewBox="0 0 64 64" xmlns="http://www.w3.org/2000/svg">
 <defs>
  <linearGradient id="a" x1="1" x2="0" y2="1">
   <stop stop-color="#00ff6f" offset="0"/>
   <stop stop-color="#1eff01" offset="1"/>
  </linearGradient>
 </defs>
 <path transform="translate(0) scale(1) matrix(.9999 0 0 .9999 -.002554 -.00108)" d="m12.18 5c-1.318-4e-3 -2.632 0.045-3.929 0.288-4.547 0.943-8.134 4.879-8.214 9.19-0.058 11.26 4e-3 22.53-0.032 33.8-0.027 1.665 0.162 3.367 0.945 4.886 1.659 3.496 5.669 5.875 9.81 5.834 14.31-4e-3 28.63 0.033 42.94-0.016 5.406-0.082 10.21-4.476 10.27-9.463 0.044-6.741 0.014-13.48 0.014-20.21 0.16-1.29-0.904-2.574-2.326-2.661-1.45-0.177-2.883 0.965-2.847 2.32-0.05 6.028-0.01 12.06-0.018 18.09-0.027 1.412 0.174 2.91-0.528 4.224-0.876 1.75-2.889 2.96-4.99 2.952-13.58 0.025-27.16-5e-3 -40.74 0.016-1.292-9e-3 -2.643 0.083-3.859-0.395-2.043-0.758-3.486-2.702-3.45-4.736-0.022-10.86 8e-3 -21.7-0.014-32.56 9e-3 -1.29-0.108-2.657 0.55-3.847 0.956-1.878 3.202-3.062 5.446-2.927 3.264 0.07 6.549-0.136 9.804 0.103 2.347 1.017 3.668 3.297 5.653 4.784 1.623 1.355 3.804 2.101 5.99 2.113 9.55 8e-3 19.1 0.054 28.65 0.042 1.225 0.074 2.4-0.755 2.629-1.871 0.415-1.441-0.983-2.985-2.601-2.857-9.402-0.054-18.81-0.066-28.21-0.066-0.97 0.017-1.971-0.19-2.744-0.742-2.102-1.647-3.65-3.875-6.002-5.246-2.468-1.42-5.486-0.938-8.24-1.016-1.312 0.04-2.634-0.016-3.952-0.02z" fill="url(#a)" style="-inkscape-stroke:none;font-variation-settings:normal"/>
 <path transform="translate(0) scale(1) translate(.000446 -8e-5)" d="m32 22.04c-6.487 0-9.733 0-11.75 2.013-2.014 2.017-2.013 5.26-2.013 11.75s0 9.732 2.013 11.75c0.943 0.943 2.151 1.442 3.833 1.708l2.064 0.213c1.59 0.095 3.511 0.095 5.85 0.095s4.257 0 5.848-0.095l2.064-0.213c1.683-0.267 2.892-0.767 3.831-1.708 2.015-2.013 2.015-5.26 2.015-11.75 0-0.47-1e-3 -0.704-0.022-0.943a5.55 5.55 0 0 0-1.269-3.06 11 11 0 0 0-0.662-0.696l-7.114-7.109q-0.333-0.345-0.692-0.662a5.57 5.57 0 0 0-3.059-1.269c-0.24-0.022-0.475-0.022-0.943-0.022z" fill="#0f0" opacity=".5"/>
 <path transform="translate(0) scale(1) translate(.000446 -8e-5)" d="m27.84 41.61a3.754 3.754 0 0 0-3.753 3.753v3.071q0 0.432 0.093 0.836l1.972 0.2c1.59 0.095 3.508 0.095 5.848 0.095s4.256 0 5.848-0.095l1.969-0.2c0.06-0.269 0.095-0.549 0.095-0.836v-3.071a3.754 3.754 0 0 0-3.753-3.753zm-2.72-12.34a1.03 1.03 0 0 0-0.728 0.305 1.024 1.024 0 0 0 0 1.457c0.193 0.193 0.454 0.305 0.728 0.305h8.257a1.036 1.036 0 0 0 1.031-1.036 1.037 1.037 0 0 0-1.031-1.031z" fill="#0f0"/>
</svg>
