<svg version="1.1" viewBox="0 0 64 64" xmlns="http://www.w3.org/2000/svg">
 <defs>
  <linearGradient id="a" y1="1">
   <stop stop-color="#007dff" offset="0"/>
   <stop stop-color="#00ff63" offset="1"/>
  </linearGradient>
 </defs>
 <path transform="translate(5e-4 -5e-5) scale(1) translate(-.003808 .00097) scale(.9999)" d="m12.18 4.998c-1.318-4e-3 -2.631 0.04605-3.928 0.2891-4.546 0.9429-8.135 4.876-8.215 9.188-0.05799 11.26 0.004746 22.53-0.03125 33.8-0.027 1.665 0.1624 3.368 0.9453 4.887 1.659 3.496 5.668 5.873 9.809 5.832 14.31-4e-3 28.63 0.03337 42.94-0.01563 5.406-0.08199 10.21-4.474 10.27-9.461 0.044-6.74 0.01367-13.48 0.01367-20.21 0.16-1.29-0.9045-2.573-2.326-2.66-1.45-0.177-2.882 0.9657-2.846 2.32-0.05 6.027-0.01153 12.06-0.01953 18.09-0.027 1.412 0.1746 2.909-0.5273 4.223-0.8759 1.75-2.888 2.961-4.988 2.953-13.58 0.025-27.16-0.0054-40.74 0.01563-1.292-9e-3 -2.644 0.08149-3.859-0.3965-2.043-0.7579-3.485-2.701-3.449-4.734-0.022-10.86 0.00833-21.7-0.01367-32.56 9e-3 -1.29-0.1091-2.658 0.5488-3.848 0.9559-1.878 3.202-3.061 5.445-2.926 3.264 0.06999 6.55-0.1355 9.805 0.1035 2.347 1.017 3.668 3.296 5.652 4.783 1.623 1.355 3.802 2.101 5.988 2.113 9.549 8e-3 19.1 0.05301 28.65 0.04102 1.225 0.07399 2.4-0.7553 2.629-1.871 0.415-1.441-0.9814-2.985-2.6-2.857-9.401-0.05399-18.81-0.06641-28.21-0.06641-0.9699 0.017-1.971-0.1902-2.744-0.7422-2.102-1.647-3.65-3.873-6.002-5.244-2.468-1.42-5.485-0.9392-8.238-1.018-1.312 0.04-2.633-0.01553-3.951-0.01953z" fill="url(#a)"/>
 <path transform="translate(5e-4 -5e-5) scale(1)" d="m31.96 20.68 0.0029 2e-3c-2.524-0.02821-4.978 1.013-6.975 3.025-0.5521 0.5517-0.6016 1.302-0.251 1.854 0.2883 0.4768 0.9026 0.7652 1.742 0.5521 1.943-0.4882 3.886-0.3392 5.788 0.952l-0.8023 2.032c-0.301 0.7518-0.2759 1.365 0.0251 1.929l-14.33 13.19c-1.203 1.114-1.341 2.33-0.2375 3.433l-9.35e-4 1e-3 1.981 1.98c1.09 1.066 2.331 0.9787 3.434-0.2375l13.12-14.29c0.5388 0.3762 1.039 0.3637 1.654 0.2385l1.341-0.2761 0.8912 0.8912-0.06372 0.6634c-0.08729 0.6891 0.1131 1.217 0.7523 1.856l1.052 1.04c0.6391 0.652 1.492 0.6896 2.106 0.07529l4.176-4.174c0.6139-0.6144 0.5754-1.454-0.06471-2.106l-1.052-1.053c-0.6387-0.6391-1.178-0.865-1.855-0.7647l-0.6767 0.07435-0.8527-0.8517 0.3765-1.468c0.1752-0.7266-0.01276-1.315-0.8023-2.092l-3.096-3.085c-2.276-2.262-4.87-3.359-7.395-3.387zm-0.1699 1.852c2.121-0.0087 4.23 0.8809 5.961 2.615l3.371 3.347c0.301 0.301 0.3389 0.5378 0.251 0.9145l-0.4769 2.006 2.019 2.019 1.229-0.113c0.363-0.03734 0.476-0.01318 0.7771 0.2751l0.7899 0.8033-3.523 3.533-0.8023-0.8013c-0.2883-0.2883-0.313-0.401-0.2751-0.7647l0.113-1.241-2.006-2.006-2.081 0.4007c-0.3636 0.07524-0.5512 0.07554-0.865-0.2375l-2.783-2.795c-0.301-0.301-0.3398-0.4759-0.1767-0.8764l1.23-2.933c-2.056-1.968-4.777-3.06-7.4-2.219-0.1126 0.03734-0.187 0.01329-0.225-0.03668-0.03734-0.06263-0.03778-0.126 0.06278-0.2133 1.497-1.119 3.155-1.669 4.805-1.676zm0.8601 9.812 1.568 1.579-13.03 14.03c-0.3889 0.4262-0.8769 0.5517-1.404 0.03765l-1.228-1.243c-0.6391-0.6391-0.413-1.028 0.01255-1.416z" fill="url(#a)" stroke-width=".4943"/>
</svg>
