<svg version="1.1" viewBox="0 0 64 64" xmlns="http://www.w3.org/2000/svg">
 <defs>
  <linearGradient id="a" x1="15.28" x2="3.073" y1="6.974" y2="6.974" gradientTransform="matrix(1.953 0 0 2.569 14.09 17.82)" gradientUnits="userSpaceOnUse">
   <stop stop-color="#00fffa" offset="0"/>
   <stop stop-color="#0078ff" offset="1"/>
  </linearGradient>
 </defs>
 <path transform="translate(0) scale(1) translate(-.003499 .00045) scale(.9999) translate(.000191 .00047) scale(1)" d="m12.18 4.998c-1.318-4e-3 -2.631 0.04609-3.928 0.2891-4.546 0.9429-8.135 4.877-8.215 9.188-0.05799 11.26 0.004746 22.53-0.03125 33.8-0.027 1.665 0.1624 3.368 0.9453 4.887 1.659 3.496 5.668 5.873 9.809 5.832 14.31-4e-3 28.63 0.03337 42.94-0.01563 5.406-0.08199 10.21-4.474 10.27-9.461 0.044-6.74 0.01367-13.48 0.01367-20.21 0.16-1.29-0.9043-2.573-2.326-2.66-1.45-0.177-2.882 0.9654-2.846 2.32-0.05 6.027-0.01153 12.06-0.01953 18.09-0.027 1.412 0.1746 2.909-0.5273 4.223-0.8759 1.75-2.888 2.961-4.988 2.953-13.58 0.025-27.16-0.0054-40.74 0.01563-1.292-9e-3 -2.644 0.08147-3.859-0.3965-2.043-0.7579-3.485-2.701-3.449-4.734-0.022-10.86 0.00833-21.7-0.01367-32.56 9e-3 -1.29-0.1091-2.658 0.5488-3.848 0.9559-1.878 3.202-3.061 5.445-2.926 3.264 0.06999 6.55-0.1355 9.805 0.1035 2.347 1.017 3.668 3.296 5.652 4.783 1.623 1.355 3.802 2.101 5.988 2.113 9.549 8e-3 19.1 0.05301 28.65 0.04102 1.225 0.07399 2.4-0.7552 2.629-1.871 0.415-1.441-0.9818-2.984-2.6-2.856-9.401-0.05399-18.81-0.06641-28.21-0.06641-0.9699 0.017-1.971-0.1902-2.744-0.7422-2.102-1.647-3.65-3.875-6.002-5.246-2.468-1.42-5.485-0.9376-8.238-1.016-1.312 0.04-2.633-0.01553-3.951-0.01953z" fill="url(#a)" stroke-width="2.24"/>
 <path transform="translate(0) scale(1) translate(-.003499 .00045) scale(.9999)" d="m32.07 20.06a0.2016 0.2016 0 0 0-0.1792 0.1971v3.696c0 0.1232 0.09856 0.224 0.224 0.224h1.595a1.232 1.232 0 0 1 1.225 1.127v17.38c0 0.4211-0.1232 3.418-3.651 3.08-4.171-0.392-6.769-5.28-4.299-7.354 1.805-1.51 4.541-0.2038 4.668-0.1344 0.08288 0.0448 0.1411 0.0448 0.1747 0.03136l0.01344-9e-3 0.01792-0.01792a0.224 0.224 0 0 0 0.0224-0.08288v-5.564a0.336 0.336 0 0 0-0.2621-0.3338c-6.675-1.467-12.16 3.255-11.48 9.296 0.6272 5.533 6.057 9.818 11.62 9.818 4.973 0 8.803-3.423 9.095-7.972l0.01344-17.99v-0.06496a1.232 1.232 0 0 1 1.232-1.21h1.597a0.224 0.224 0 0 0 0.224-0.224v-3.696a0.1949 0.1949 0 0 0-0.1971-0.1949z" fill="url(#a)" stroke-width="2.24"/>
</svg>
