<svg version="1.1" viewBox="0 0 64 64" xmlns="http://www.w3.org/2000/svg">
 <defs>
  <linearGradient id="a" y1="1">
   <stop stop-color="#8b00fc" offset="0"/>
   <stop stop-color="#ff33db" offset="1"/>
  </linearGradient>
 </defs>
 <path transform="translate(0) scale(1) translate(-.003599 5e-4) scale(1) translate(.000301 .00102) scale(1)" d="m12.18 4.994c-1.318-4e-3 -2.633 0.04413-3.93 0.2871-4.546 0.9429-8.132 4.877-8.213 9.188-0.05799 11.26 0.004746 22.53-0.03125 33.8-0.027 1.663 0.1614 3.365 0.9434 4.885 1.66 3.497 5.669 5.875 9.809 5.834 14.31-5e-3 28.63 0.03337 42.94-0.01563 5.406-0.08199 10.21-4.476 10.27-9.463 0.045-6.74 0.01367-13.48 0.01367-20.21 0.16-1.29-0.9043-2.572-2.326-2.66-1.45-0.176-2.882 0.9635-2.846 2.318-0.05 6.028-0.01053 12.06-0.01953 18.09-0.027 1.412 0.1746 2.911-0.5273 4.225-0.8769 1.75-2.888 2.96-4.99 2.953-13.58 0.025-27.16-0.0054-40.75 0.01563-1.292-9e-3 -2.642 0.08047-3.859-0.3965-2.043-0.7579-3.486-2.701-3.451-4.734-0.023-10.86 0.01028-21.7-0.01172-32.56 9e-3 -1.29-0.1091-2.656 0.5488-3.846 0.9559-1.878 3.2-3.062 5.445-2.926 3.264 0.06999 6.55-0.1374 9.805 0.1016 2.347 1.017 3.666 3.299 5.65 4.785 1.623 1.355 3.804 2.099 5.99 2.111 9.549 8e-3 19.1 0.05497 28.65 0.04297 1.225 0.07399 2.401-0.7552 2.629-1.871 0.416-1.441-0.9857-2.985-2.604-2.857-9.402-0.054-18.81-0.06641-28.21-0.06641-0.9699 0.016-1.971-0.1902-2.746-0.7422-2.1-1.647-3.646-3.873-5.998-5.244-2.468-1.421-5.486-0.9396-8.24-1.018-1.312 0.039-2.633-0.01553-3.951-0.01953z" fill="url(#a)"/>
 <path transform="translate(0) scale(1) translate(-.003599 5e-4) scale(1) translate(.000301 .00102) scale(1)" d="m25.85 18.72v3.4h3.4v-3.4zm-17.14 3.402v3.398h3.539v3.4h3.398v-3.4h-3.394v-3.398zm6.943 0v3.398h3.396v3.4h3.4v-3.4h-3.396v-3.398zm6.801 0v3.398h3.396v3.4h3.4v-3.4h-3.396v-3.398zm6.801 0v3.398h3.396v3.4h3.4v-3.4h-3.396v-3.398zm6.801 0v3.398h3.396v3.4h3.4v-3.4h-3.396v-3.398zm6.801 0v3.398h3.396v3.4h3.4v-3.4h-3.396v-3.398zm6.801 0v3.398h3.396v3.4h3.4v-3.4h-3.396v-3.398zm6.818 0v3.398h3.553v-3.398z" fill="url(#a)" opacity=".6"/>
 <path transform="translate(0) scale(1) translate(-.003599 5e-4) scale(1) translate(.000301 .00102) scale(1)" d="m12.28 18.72v3.4h3.398v-3.4zm6.795 0v3.4h3.4v-3.4zm13.6 0v3.4h3.4v-3.4zm6.797 0v3.4h3.4v-3.4zm6.799 0v3.4h3.4v-3.4zm6.799 0v3.4h3.4v-3.4zm-47.71 0.03125v3.398h3.398v-3.398zm0 6.801v3.398h3.398v-3.398z" fill="url(#a)" opacity=".6"/>
 <path transform="translate(0) scale(1) translate(-.003599 5e-4) scale(1) translate(.000301 .00102) scale(1)" d="m32 21.88c-3.938 0-7.16 3.22-7.16 7.158v2.115c-2.08 0.7222-3.703 2.463-4.006 4.713-0.1861 1.382-0.3477 2.842-0.3477 4.367s0.1615 2.988 0.3477 4.373c0.3783 2.81 2.71 5.019 5.57 5.152 1.786 0.08208 3.601 0.127 5.596 0.127s3.81-0.04488 5.596-0.127c2.86-0.1315 5.192-2.341 5.572-5.152 0.1861-1.382 0.3477-2.845 0.3477-4.373s-0.1615-2.986-0.3477-4.367c-0.3031-2.25-1.928-3.991-4.008-4.713v-2.115c0-3.938-3.222-7.158-7.16-7.158zm0 3.119c2.252 0 4.037 1.787 4.037 4.039v1.625c-1.299-0.04246-2.61-0.07422-4.037-0.07422s-2.739 0.03177-4.039 0.07422v-1.625c0-2.252 1.787-4.039 4.039-4.039zm0 8.711c1.95 0 3.713 0.04116 5.453 0.1211 1.326 0.06093 2.437 1.105 2.619 2.451 0.1788 1.329 0.3203 2.65 0.3203 3.953s-0.1415 2.624-0.3203 3.953c-0.1813 1.346-1.294 2.392-2.619 2.453-1.739 0.07991-3.502 0.1211-5.453 0.1211s-3.716-0.04119-5.455-0.1211c-1.326-0.06093-2.437-1.107-2.619-2.453-0.1789-1.329-0.3203-2.65-0.3203-3.953s0.1414-2.624 0.3203-3.953c0.1813-1.346 1.294-2.391 2.619-2.451 1.739-0.07995 3.505-0.1211 5.455-0.1211z" fill="url(#a)"/>
 <path transform="translate(0) scale(1) translate(-.003599 5e-4) scale(1) translate(.000301 .00102) scale(1)" d="m32 36.73a2.086 2.086 0 0 0-1.4 3.652v1.947a1.4 1.4 0 0 0 2.801 0v-1.947a2.086 2.086 0 0 0-1.4-3.652z" fill="url(#a)"/>
</svg>
