<svg version="1.1" viewBox="0 0 64 64" xmlns="http://www.w3.org/2000/svg">
 <defs>
  <linearGradient id="a" x1="43.65" x2="84.35" y1="119.9" y2="8.065" gradientTransform="translate(14.91 18.45)scale(.2668)" gradientUnits="userSpaceOnUse">
   <stop stop-color="#fd5900" offset="0"/>
   <stop stop-color="#ffde00" offset="1"/>
  </linearGradient>
 </defs>
 <g transform="translate(0) scale(1) translate(0) scale(1) translate(0) scale(1) translate(0) scale(1) translate(0) scale(1) translate(-.000323 1e-5) scale(1) translate(.002 -.001) scale(.9999)" fill="url(#a)" stroke-width=".267">
  <path d="M8.271 5.279c2.575-.478 5.222-.177 7.828-.26 2.682.095 5.584-.407 8.029.894 2.495 1.342 4.073 3.677 6.241 5.378.778.523 1.753.762 2.714.733 9.241 0 18.48 0 27.72.037 1.256-.136 2.669.437 3.04 1.622.644 1.52-.827 3.282-2.575 3.142-9.527.008-19.06-.033-28.59-.05-2.307.005-4.605-.823-6.268-2.301-1.449-1.29-2.768-2.697-4.216-3.978-.662-.58-1.6-.766-2.49-.725-3.071.025-6.147-.02-9.219.02-2.888.067-5.378 2.5-5.293 5.16 0 11.39-.009 22.77-.004 34.16-.072 2.727 2.589 5.177 5.553 5.116 14.16.008 28.33.008 42.49-.004 2.964.053 5.629-2.413 5.53-5.152.009-6.445.004-12.89-.005-19.33.014-.754-.013-1.598.559-2.207.925-1.161 3.013-1.227 4.01-.112.653.61.653 1.511.648 2.31-.031 6.606.023 13.21-.027 19.82-.085 4.98-4.886 9.344-10.27 9.426-14.31.037-28.62.021-42.93.009-4.135.04-8.146-2.335-9.8-5.831-.791-1.524-.96-3.237-.947-4.9.035-11.26-.036-22.52.026-33.77.085-4.324 3.68-8.27 8.244-9.204z" style="-inkscape-stroke:none;font-variation-settings:normal"/>
  <path d="M26.54 21.52c-3.134 0-5.079 1.19-5.892 1.813h-3.235c-.717 0-1.307.59-1.307 1.307V46.4c0 .717.59 1.307 1.307 1.307h11.77c.5 1.062 1.553 1.813 2.799 1.813s2.299-.751 2.799-1.813h11.77c.717 0 1.307-.59 1.307-1.307V24.64c0-.717-.59-1.307-1.307-1.307h-3.235c-.813-.623-2.758-1.813-5.892-1.813-2.661 0-4.451.862-5.44 1.507-.99-.645-2.779-1.507-5.44-1.507zm0 2.614c2.212 0 3.54.732 4.133 1.147v15.23a10.06 10.06 0 0 0-4.133-.856c-1.769 0-3.097.405-4.133.854V25.28c.597-.417 1.925-1.147 4.133-1.147zm10.88 0c2.208 0 3.536.73 4.133 1.147v15.23a10.1 10.1 0 0 0-4.133-.856c-1.769 0-3.097.405-4.133.854V25.28c.605-.419 1.942-1.146 4.133-1.146zm-18.7 1.813h1.073v16.83a1.308 1.308 0 0 0 2.222.933c.007-.007 1.487-1.44 4.525-1.44 3.036 0 4.515 1.43 4.524 1.44h.002c.51.5 1.269.457 1.748.056a1 1 0 0 0 .065-.046l.001-.001h.001q.007-.006.01-.006l.006-.004c.011-.011 1.488-1.439 4.524-1.439 3.03 0 4.513 1.428 4.518 1.433v.001a1.309 1.309 0 0 0 2.229-.928v-16.83h1.073v19.15H33.79c-.717 0-1.307.59-1.307 1.307 0 .284-.223.507-.507.507s-.506-.223-.506-.507c0-.717-.59-1.307-1.307-1.307h-11.45z"/>
 </g>
</svg>
