<svg version="1.1" viewBox="0 0 64 64" xmlns="http://www.w3.org/2000/svg">
 <defs>
  <linearGradient id="a" x2="0" y1="1">
   <stop stop-color="#00ff60" offset="0"/>
   <stop stop-color="#00afff" offset="1"/>
  </linearGradient>
 </defs>
 <path transform="translate(.000446 -8e-5) scale(1) translate(-.003 -.001) scale(.9999)" d="M12.18 5c-1.318-.004-2.632.045-3.929.288-4.547.943-8.134 4.879-8.214 9.19-.058 11.26.004 22.53-.032 33.8-.027 1.665.162 3.367.945 4.886 1.659 3.496 5.669 5.875 9.81 5.834 14.31-.004 28.63.033 42.94-.016 5.406-.082 10.21-4.476 10.27-9.463.044-6.741.014-13.48.014-20.21.16-1.29-.904-2.574-2.326-2.661-1.45-.177-2.883.965-2.847 2.32-.05 6.028-.01 12.06-.018 18.09-.027 1.412.174 2.91-.528 4.224-.876 1.75-2.889 2.96-4.99 2.952-13.58.025-27.16-.005-40.74.016-1.292-.009-2.643.083-3.859-.395-2.043-.758-3.486-2.702-3.45-4.736-.022-10.86.008-21.7-.014-32.56.009-1.29-.108-2.657.55-3.847.956-1.878 3.202-3.062 5.446-2.927 3.264.07 6.549-.136 9.804.103 2.347 1.017 3.668 3.297 5.653 4.784 1.623 1.355 3.804 2.101 5.99 2.113 9.55.008 19.1.054 28.65.042 1.225.074 2.4-.755 2.629-1.871.415-1.441-.983-2.985-2.601-2.857-9.402-.054-18.81-.066-28.21-.066-.97.017-1.971-.19-2.744-.742-2.102-1.647-3.65-3.875-6.002-5.246-2.468-1.42-5.486-.938-8.24-1.016-1.312.04-2.634-.016-3.952-.02z" fill="url(#a)"/>
 <path transform="translate(.000446 -8e-5) scale(1)" d="M41.06 21.44c-.537 0-1.215.266-1.562.897-.333.597-.709 1.666-.742 3.424-.03 1.528.58 2.833 1.298 3.815.122.167.244.201.37.351-.082-.078-.202-.103-.283-.18l-.01-.013c-1.546-1.683-2.867-2.93-4.56-4.133-.295-.209-.373-.288-.38-.332v-.009c.006-.025.036-.042.047-.08.03-.103.33-.385.305-.373.294-.142.713-.245.919-1.003.103-.38-.028-.888-.233-1.152a1.43 1.43 0 0 0-.584-.45c-.685-.314-1.26-.296-2.189-.264-1.633.055-3.208.777-4.182 1.242-1.115-.242-2.399-.317-3.098-.31h-.003c-3.995 0-6.808 1.86-8.466 4.13-1.66 2.27-2.273 4.866-2.273 6.752 0 5.155 2.105 9.096 4.964 11.67 2.86 2.572 6.425 3.831 9.538 3.831 3.308 0 5.62-.68 7.122-1.4 1.004-.481 1.184-.748 1.524-1.056.166.053.272.128.49.18.566.134 1.303.246 2.23.286 1.19.05 2.085-.077 2.794-.373s1.333-.813 1.444-1.642c.072-.54-.17-1.18-.49-1.506-.32-.325-.612-.434-.77-.509l-.003-.003a26 26 0 0 0-1.434-.602c3.265-3.667 4.125-7.772 4.176-10.4 3.135-.553 4.713-2.795 5.198-4.055.258-.67.46-1.415.543-2.133.041-.36.056-.709 0-1.084-.055-.375-.17-.855-.668-1.24-.494-.38-1.352-.4-1.798-.152-.36.201-.548.424-.683.65-.242.255-.381.388-.534.471-.172.094-.437.19-1.096.19l-.003.003h-.003c-.885.005-1.701.313-2.453.748-.197-.292-.283-.72-.525-.931-.615-.542-1.275-.831-1.86-1.102-.241-.113-.42-.471-.478-.789v-.003c-.131-.721-.755-1.36-1.599-1.36zm-8.104 3.065v.003h-.006v.003h-.004v.003c-.276.95.152 2.26 1.245 3.036 1.54 1.092 2.701 2.186 4.195 3.812l.01.013a9 9 0 0 0 3.427 2.26 1.19 1.19 0 0 0 1.506-.64c.194-.443.56-1.305.708-2.156a1.19 1.19 0 0 0-.54-1.214c-.348-.218-1.014-.765-1.518-1.456-.505-.691-.855-1.5-.838-2.362.009-.503.095-.479.152-.807.248.27.445.569.838.751.582.271 1.018.493 1.292.733.273.24.45.478.577 1.08a1.192 1.192 0 0 0 2.046.559c.5-.546 1.2-.859 1.941-.863l.022-.01c.862-.003 1.549-.163 2.114-.453-.053.18-.071.354-.133.516-.335.868-1.204 2.625-4.046 2.736a1.19 1.19 0 0 0-1.146 1.254c.103 1.974-.638 7.22-4.62 10.83a1.19 1.19 0 0 0-.165 1.583c.25.345.41.417.677.574s.602.31 1.034.45c.105.035.111.051.202.084-.217.012-.241.068-.522.056a9.6 9.6 0 0 1-1.782-.224c-.324-.077-.557-.183-.583-.19h-.004v.004h.004l.003.003.012.01a1.19 1.19 0 0 0-1.527.236s-.326.424-1.5.987-3.108 1.164-6.092 1.164c-2.45 0-5.542-1.057-7.945-3.22-2.404-2.161-4.173-5.375-4.173-9.895 0-1.325.519-3.575 1.814-5.346s3.256-3.151 6.545-3.151h.01c.67-.006 2.47.122 2.868.248a1.2 1.2 0 0 0 .892-.068c.57-.282 1.993-.733 3.006-.928q.003-.001.006-.004z" fill="url(#a)"/>
 <path transform="translate(.000446 -8e-5) scale(1)" d="M22.71 30.31a10.6 10.6 0 0 0-2.329.283 1.19 1.19 0 0 0-.922 1.154s-.018 2.32 1.059 4.934c1.077 2.616 3.353 5.646 7.694 6.949a1.19 1.19 0 0 0 1.484-.799 1.19 1.19 0 0 0-.801-1.484c-3.607-1.084-5.281-3.42-6.17-5.576-.639-1.553-.588-2.227-.636-2.887 1.946-.179 3.472.21 4.801 1.205 1.607 1.204 3.017 3.132 4.527 5.092 1.291 1.68 2.386 2.75 3.182 3.415s1.382.966 1.382.966a1.19 1.19 0 0 0 1.593-.55 1.19 1.19 0 0 0-.55-1.595s-.24-.104-.893-.65c-.653-.545-1.63-1.49-2.822-3.042-1.477-1.92-2.962-4.025-4.987-5.542a9.26 9.26 0 0 0-3.508-1.645 9.2 9.2 0 0 0-2.102-.227zm12.23 1.45c-.694.007-1.17.161-1.17.161a1.19 1.19 0 0 0-.789 1.49 1.19 1.19 0 0 0 1.49.79s.876-.239 1.593.25c1.331.908 1.691 2.047 1.691 2.047a1.19 1.19 0 0 0 1.503.766 1.19 1.19 0 0 0 .764-1.503s-.636-1.933-2.613-3.28c-.864-.59-1.774-.728-2.469-.72z" fill="url(#a)"/>
</svg>
