<svg version="1.1" viewBox="0 0 64 64" xmlns="http://www.w3.org/2000/svg">
 <defs>
  <linearGradient id="a" x1="1" x2="0" y2="1">
   <stop stop-color="#feac5e" offset=".013"/>
   <stop stop-color="#c779d0" offset=".53"/>
   <stop stop-color="#4bc0c8" offset=".996"/>
  </linearGradient>
 </defs>
 <path transform="translate(.000446 -8e-5) scale(1) translate(-.003 -.001) scale(.9999)" d="M12.18 5c-1.318-.004-2.632.045-3.929.288-4.547.943-8.134 4.879-8.214 9.19-.058 11.26.004 22.53-.032 33.8-.027 1.665.162 3.367.945 4.886 1.659 3.496 5.669 5.875 9.81 5.834 14.31-.004 28.63.033 42.94-.016 5.406-.082 10.21-4.476 10.27-9.463.044-6.741.014-13.48.014-20.21.16-1.29-.904-2.574-2.326-2.661-1.45-.177-2.883.965-2.847 2.32-.05 6.028-.01 12.06-.018 18.09-.027 1.412.174 2.91-.528 4.224-.876 1.75-2.889 2.96-4.99 2.952-13.58.025-27.16-.005-40.74.016-1.292-.009-2.643.083-3.859-.395-2.043-.758-3.486-2.702-3.45-4.736-.022-10.86.008-21.7-.014-32.56.009-1.29-.108-2.657.55-3.847.956-1.878 3.202-3.062 5.446-2.927 3.264.07 6.549-.136 9.804.103 2.347 1.017 3.668 3.297 5.653 4.784 1.623 1.355 3.804 2.101 5.99 2.113 9.55.008 19.1.054 28.65.042 1.225.074 2.4-.755 2.629-1.871.415-1.441-.983-2.985-2.601-2.857-9.402-.054-18.81-.066-28.21-.066-.97.017-1.971-.19-2.744-.742-2.102-1.647-3.65-3.875-6.002-5.246-2.468-1.42-5.486-.938-8.24-1.016-1.312.04-2.634-.016-3.952-.02z" fill="url(#a)"/>
 <path transform="translate(.000446 -8e-5) scale(1)" d="M43.38 18.79a2.995 2.995 0 0 0-2.642 4.432l-1.432 1.432a13.1 13.1 0 0 0-7.32-2.219c-2.708 0-5.223.819-7.317 2.221l-1.434-1.434a2.995 2.995 0 0 0-2.642-4.425 2.995 2.995 0 0 0-2.932 2.445 2.995 2.995 0 1 0 1.979 5.574l1.426 1.426a13.1 13.1 0 0 0-2.259 7.374c0 2.437.671 4.236 2.075 5.426.41.347.863.625 1.348.85l-2.588 2.594a2.88 2.88 0 0 0-1.606-.491c-1.558 0-2.824 1.246-2.824 2.782 0 1.534 1.265 2.77 2.823 2.77a2.804 2.804 0 0 0 2.813 2.794c1.558 0 2.823-1.246 2.823-2.782 0-.635-.218-1.21-.583-1.677l1.753-1.763a3.146 3.146 0 0 0 5.097 1.915c.563.447 1.276.714 2.05.714s1.487-.267 2.05-.714a3.146 3.146 0 0 0 5.1-1.922l1.775 1.856a2.782 2.782 0 0 0 2.288 4.363 2.78 2.78 0 0 0 2.78-2.78c1.534 0 2.792-1.234 2.792-2.768s-1.246-2.78-2.78-2.78a2.73 2.73 0 0 0-1.677.576l-2.569-2.684a6 6 0 0 0 1.346-.85c1.405-1.192 2.075-2.993 2.075-5.429a13.1 13.1 0 0 0-2.256-7.376l1.423-1.423a2.995 2.995 0 1 0 1.98-5.574 2.995 2.995 0 0 0-2.933-2.453zm-11.39 6.042c5.952 0 10.78 4.82 10.78 10.78 0 1.997-.534 3.015-1.228 3.604-.755.641-1.936.99-3.663 1.135l-1.1.091V45.6a.749.749 0 0 1-1.498 0v-1.647a1.198 1.198 0 0 0-2.396 0v1.498a.899.899 0 0 1-1.797 0v-1.498a1.198 1.198 0 0 0-2.396 0V45.6a.749.749 0 0 1-1.498 0v-5.156l-1.093-.096c-1.73-.15-2.912-.497-3.669-1.137-.695-.59-1.228-1.604-1.228-3.599 0-5.952 4.831-10.78 10.78-10.78zm-5.085 7.741c-2.157 0-3.901 1.766-3.901 3.926s1.757 2.664 3.901 2.664 3.887-.504 3.887-2.664c0-2.172-1.729-3.926-3.887-3.926m10.11 0c-2.109 0-3.822 1.758-3.822 3.922s1.713 2.668 3.822 2.668 3.823-.503 3.823-2.668c0-2.176-1.715-3.934-3.823-3.922m-5.024 5.392c-.411 0-.782.307-.91.758l-.253.868c-.119.374.136.77.48.77h1.375c.352 0 .597-.406.48-.779l-.263-.87c-.138-.441-.5-.747-.91-.747z" fill="url(#a)"/>
</svg>
