<svg version="1.1" viewBox="0 0 64 64" xmlns="http://www.w3.org/2000/svg" xmlns:xlink="http://www.w3.org/1999/xlink">
 <defs>
  <linearGradient id="a" x1="14.76" x2="49.22" y1="49.22" y2="14.76" gradientTransform="matrix(.8782 0 0 .8782 3.911 7.274)" gradientUnits="userSpaceOnUse">
   <stop stop-color="#39ff14" offset="0"/>
   <stop stop-color="#00ff81" offset="1"/>
  </linearGradient>
  <linearGradient id="b" x1="-.2341" x2="61.53" y1="56.13" y2="5.473" gradientTransform="matrix(.8782 0 0 .8782 3.911 7.274)" gradientUnits="userSpaceOnUse" xlink:href="#a"/>
 </defs>
 <path transform="translate(0) scale(1) translate(0) scale(1) translate(0) scale(1) translate(0) scale(1) translate(-.003499 .00045) scale(.9999) translate(.000191 .00047) scale(1)" d="m12.18 4.998c-1.318-4e-3 -2.631 0.04609-3.928 0.2891-4.546 0.9429-8.135 4.877-8.215 9.188-0.05799 11.26 0.004746 22.53-0.03125 33.8-0.027 1.665 0.1624 3.368 0.9453 4.887 1.659 3.496 5.668 5.873 9.809 5.832 14.31-4e-3 28.63 0.03337 42.94-0.01563 5.406-0.08199 10.21-4.474 10.27-9.461 0.044-6.74 0.01367-13.48 0.01367-20.21 0.16-1.29-0.9043-2.573-2.326-2.66-1.45-0.177-2.882 0.9654-2.846 2.32-0.05 6.027-0.01153 12.06-0.01953 18.09-0.027 1.412 0.1746 2.909-0.5273 4.223-0.8759 1.75-2.888 2.961-4.988 2.953-13.58 0.025-27.16-0.0054-40.74 0.01563-1.292-9e-3 -2.644 0.08147-3.859-0.3965-2.043-0.7579-3.485-2.701-3.449-4.734-0.022-10.86 0.00833-21.7-0.01367-32.56 9e-3 -1.29-0.1091-2.658 0.5488-3.848 0.9559-1.878 3.202-3.061 5.445-2.926 3.264 0.06999 6.55-0.1355 9.805 0.1035 2.347 1.017 3.668 3.296 5.652 4.783 1.623 1.355 3.802 2.101 5.988 2.113 9.549 8e-3 19.1 0.05301 28.65 0.04102 1.225 0.07399 2.4-0.7552 2.629-1.871 0.415-1.441-0.9818-2.984-2.6-2.856-9.401-0.05399-18.81-0.06641-28.21-0.06641-0.9699 0.017-1.971-0.1902-2.744-0.7422-2.102-1.647-3.65-3.875-6.002-5.246-2.468-1.42-5.485-0.9376-8.238-1.016-1.312 0.04-2.633-0.01553-3.951-0.01953z" fill="url(#b)" stroke-width=".8782"/>
 <path transform="translate(0) scale(1) translate(0) scale(1) translate(0) scale(1) translate(0) scale(1) translate(-.003499 .00045) scale(.9999)" d="m21.41 20.24c-2.49 0-4.54 2.052-4.54 4.54v21.18c0 2.49 2.052 4.54 4.54 4.54h21.18c2.49 0 4.54-2.052 4.54-4.54v-21.18c0-2.49-2.052-4.54-4.54-4.54zm0 3.024h21.18c0.8648 0 1.515 0.6515 1.515 1.517v4.539h-24.21v-4.539c0-0.8648 0.6498-1.517 1.515-1.517zm-1.515 9.081h6.054v6.052h-6.054zm9.081 0h6.054v6.052h-6.054zm9.081 0h6.054v6.052h-6.054zm-18.16 9.081h6.054v6.054h-4.54c-0.8648 0-1.515-0.6498-1.515-1.515zm9.081 0h6.054v6.054h-6.054zm9.081 0h6.054v4.539c0 0.8648-0.6498 1.515-1.515 1.515h-4.54z" fill="url(#a)" stroke-width=".8782"/>
</svg>
