<svg version="1.1" viewBox="0 0 64 64" xmlns="http://www.w3.org/2000/svg">
 <defs>
  <linearGradient id="a" y1=".5" y2=".5">
   <stop stop-color="#fd5" offset="0"/>
   <stop stop-color="#ff80e5" offset=".5"/>
   <stop stop-color="#0cf" offset="1"/>
  </linearGradient>
 </defs>
 <path transform="translate(-.003499 4e-4) scale(1) translate(.00019 .00052) scale(1)" d="m12.18 4.998c-1.318-4e-3 -2.631 0.04604-3.928 0.2891-4.546 0.9428-8.135 4.876-8.215 9.188-0.05798 11.26 0.004742 22.53-0.03125 33.8-0.027 1.665 0.1625 3.368 0.9453 4.887 1.659 3.496 5.668 5.871 9.809 5.83 14.31-4e-3 28.63 0.03337 42.94-0.01563 5.406-0.08198 10.21-4.472 10.27-9.459 0.044-6.739 0.01367-13.48 0.01367-20.21 0.16-1.29-0.9029-2.571-2.324-2.658-1.45-0.177-2.882 0.9642-2.846 2.318-0.05 6.026-0.01153 12.06-0.01953 18.09-0.027 1.412 0.1745 2.907-0.5273 4.221-0.8758 1.75-2.888 2.961-4.988 2.953-13.58 0.025-27.16-0.0054-40.74 0.01563-1.292-9e-3 -2.642 0.08146-3.857-0.3965-2.043-0.7578-3.485-2.7-3.449-4.732-0.022-10.86 0.008326-21.7-0.01367-32.56 0.008999-1.29-0.109-2.658 0.5488-3.848 0.9558-1.878 3.201-3.061 5.443-2.926 3.264 0.06998 6.55-0.1355 9.805 0.1035 2.347 1.017 3.668 3.294 5.652 4.781 1.623 1.355 3.8 2.101 5.986 2.113 9.548 8e-3 19.1 0.053 28.65 0.04102 1.225 0.07398 2.398-0.7555 2.627-1.871 0.415-1.441-0.9812-2.984-2.6-2.856-9.4-0.05398-18.81-0.06641-28.21-0.06641-0.9698 0.017-1.969-0.1902-2.742-0.7422-2.102-1.647-3.65-3.873-6.002-5.244-2.468-1.42-5.486-0.9388-8.238-1.018-1.312 0.04-2.631-0.01553-3.949-0.01953z" fill="url(#a)"/>
 <path transform="translate(-.003499 4e-4) scale(1) translate(.00019 .00052) scale(1)" d="m30.28 21.02c-1.708-0.02004-2.432 0.5468-3.373 1.344l-4.922 4.01h-2.35c-2.744 0-4.786 2.324-5.119 4.709l-0.0059 0.03516c-0.3089 2.479-0.3486 6.19 0.0039 8.725 0.1562 1.263 0.6453 2.484 1.562 3.402 0.9213 0.9225 2.252 1.432 3.557 1.432h2.354l5.043 4.096c0.903 0.7592 1.77 1.277 3.254 1.258 2.24 0.02947 4.122-1.62 4.75-3.719l0.01953-0.06836c0.3271-1.22 0.3534-2.228 0.4453-2.988 0.3843-3.07 0.3843-12.39 0-15.46-0.09608-0.7898-0.1396-1.824-0.4414-2.977l-0.02344-0.08203c-0.6295-2.099-2.51-3.75-4.754-3.719zm14.1 0.1914v0.0059a1.768 1.768 0 0 0-1.426 2.777c1.995 2.869 3.24 6.796 3.24 11.25s-1.246 8.383-3.24 11.25a1.768 1.768 0 0 0 2.904 2.018c2.452-3.527 3.873-8.175 3.873-13.27 0-5.094-1.421-9.743-3.873-13.27a1.768 1.768 0 0 0-1.478-0.7598zm-14.15 4.512a2.358 2.358 0 0 0 0.1172 0v2e-3c0.0018 0.0041 0.0074 0.01208 0.0098 0.01563v2e-3c-0.04303-0.0059-0.0403-0.01777-0.127-0.01953zm0.1641 0.1035h2e-3l6e-3 6e-3c0.01077 0.01549 0.03495 0.06524 0.09375 0.2246 0.125 0.4993 0.1993 1.346 0.3184 2.318v0.0078c0.1368 1.094 0.1368 13.18 0 14.28l-2e-3 0.0078c-0.1226 1.005-0.1624 1.729-0.3144 2.314-0.05246 0.1474-0.1018 0.2288-0.1348 0.2754 0.02357 0.0088 0.04312 0.01967 0.05078 0.02734v2e-3l2e-3 2e-3v0.0059l-2e-3 2e-3h-2e-3a0.2358 0.2358 0 0 1-0.08984 0.01758c0.0036-0.0077 0.0192-0.02599 0.04102-0.05664-0.09136-0.03301-0.2717-0.07132-0.3047-0.09961l-0.0293-0.02539-5.725-4.65a2.358 2.358 0 0 0-1.486-0.5273h-3.19c-0.1533 0-0.189-8e-3 -0.2031-0.02148-0.0059-7e-3 -0.0095-0.01672-0.01953-0.02734-0.0336-0.0336-0.1639-0.1944-0.2188-0.6523l-0.0059-0.04297c-0.2417-1.713-0.2267-5.637 2e-3 -7.492 0.08252-0.5859 0.1188-0.6328 0.4453-0.6328h3.19a2.358 2.358 0 0 0 1.488-0.5296l5.606-4.57 0.03516-0.02734c0.01474-0.01179 0.297-0.07778 0.4473-0.1367zm8.77 0.04102a1.768 1.768 0 0 0-1.426 2.777c1.151 1.656 1.893 3.957 1.893 6.602s-0.7408 4.944-1.893 6.602a1.769 1.769 0 0 0 2.904 2.02c1.609-2.313 2.523-5.336 2.523-8.617 0-3.283-0.9148-6.307-2.523-8.617a1.768 1.768 0 0 0-1.478-0.7598zm-8.844 19.45v2e-3l2e-3 2e-3h2e-3l0.0039 2e-3a2.358 2.358 0 0 0-0.1074 0c0.03972-7.93e-4 0.07339-0.0036 0.09961-0.0059z" fill="url(#a)"/>
</svg>
