<svg version="1.1" viewBox="0 0 64 64" xmlns="http://www.w3.org/2000/svg">
 <defs>
  <linearGradient id="a" y1="1">
   <stop stop-color="#ff7500" offset="0"/>
   <stop stop-color="#8000d4" offset="1"/>
  </linearGradient>
 </defs>
 <path transform="translate(.000446 -8e-5) scale(1) translate(-.003 -.001) scale(.9999)" d="M12.18 5c-1.318-.004-2.632.045-3.929.288-4.547.943-8.134 4.879-8.214 9.19-.058 11.26.004 22.53-.032 33.8-.027 1.665.162 3.367.945 4.886 1.659 3.496 5.669 5.875 9.81 5.834 14.31-.004 28.63.033 42.94-.016 5.406-.082 10.21-4.476 10.27-9.463.044-6.741.014-13.48.014-20.21.16-1.29-.904-2.574-2.326-2.661-1.45-.177-2.883.965-2.847 2.32-.05 6.028-.01 12.06-.018 18.09-.027 1.412.174 2.91-.528 4.224-.876 1.75-2.889 2.96-4.99 2.952-13.58.025-27.16-.005-40.74.016-1.292-.009-2.643.083-3.859-.395-2.043-.758-3.486-2.702-3.45-4.736-.022-10.86.008-21.7-.014-32.56.009-1.29-.108-2.657.55-3.847.956-1.878 3.202-3.062 5.446-2.927 3.264.07 6.549-.136 9.804.103 2.347 1.017 3.668 3.297 5.653 4.784 1.623 1.355 3.804 2.101 5.99 2.113 9.55.008 19.1.054 28.65.042 1.225.074 2.4-.755 2.629-1.871.415-1.441-.983-2.985-2.601-2.857-9.402-.054-18.81-.066-28.21-.066-.97.017-1.971-.19-2.744-.742-2.102-1.647-3.65-3.875-6.002-5.246-2.468-1.42-5.486-.938-8.24-1.016-1.312.04-2.634-.016-3.952-.02z" fill="url(#a)"/>
 <path transform="translate(.000446 -8e-5) scale(1)" d="M20.34 24.08a5.57 5.57 0 0 0-5.571 5.571v11.83a5.57 5.57 0 0 0 5.571 5.571h1.832a1.21 1.21 0 0 0 1.209-1.21v-1.884a1.21 1.21 0 0 0-1.209-1.21h-1.885a1.21 1.21 0 0 1-1.209-1.213v-11.93a1.21 1.21 0 0 1 1.209-1.209h1.885a1.21 1.21 0 0 0 1.209-1.21v-1.884a1.21 1.21 0 0 0-1.209-1.213zm21.48 0a1.21 1.21 0 0 0-1.21 1.213v1.885a1.21 1.21 0 0 0 1.21 1.209h1.888a1.21 1.21 0 0 1 1.209 1.21v11.93a1.21 1.21 0 0 1-1.209 1.214H41.82a1.21 1.21 0 0 0-1.21 1.209v1.885a1.21 1.21 0 0 0 1.21 1.209h1.836a5.57 5.57 0 0 0 5.571-5.571v-11.83a5.57 5.57 0 0 0-5.571-5.571zm-1.998 6.395za.75.75 0 0 0-.382.125l-6.27 4.183a.937.937 0 0 0 0 1.56l6.27 4.182a.752.752 0 0 0 1.17-.622v-8.677a.75.75 0 0 0-.788-.752zm-13.57.784a4.306 4.306 0 1 0 0 8.613 4.31 4.31 0 0 0 4.307-4.309 4.304 4.304 0 0 0-4.307-4.304" fill="url(#a)"/>
</svg>
