<svg version="1.1" viewBox="0 0 64 64" xmlns="http://www.w3.org/2000/svg" xmlns:xlink="http://www.w3.org/1999/xlink">
 <defs>
  <linearGradient id="b" x1="11" x2="21" y1="21.1" y2="8.535" gradientTransform="translate(14.26 17.83)scale(1.612)" gradientUnits="userSpaceOnUse">
   <stop stop-color="#00f1fa" offset="0"/>
   <stop stop-color="#006cff" offset="1"/>
  </linearGradient>
 </defs>
 <path transform="translate(.000446 -8e-5) scale(1) translate(-.003 -.001) scale(.9999)" d="M12.18 5c-1.318-.004-2.632.045-3.929.288-4.547.943-8.134 4.879-8.214 9.19-.058 11.26.004 22.53-.032 33.8-.027 1.665.162 3.367.945 4.886 1.659 3.496 5.669 5.875 9.81 5.834 14.31-.004 28.63.033 42.94-.016 5.406-.082 10.21-4.476 10.27-9.463.044-6.741.014-13.48.014-20.21.16-1.29-.904-2.574-2.326-2.661-1.45-.177-2.883.965-2.847 2.32-.05 6.028-.01 12.06-.018 18.09-.027 1.412.174 2.91-.528 4.224-.876 1.75-2.889 2.96-4.99 2.952-13.58.025-27.16-.005-40.74.016-1.292-.009-2.643.083-3.859-.395-2.043-.758-3.486-2.702-3.45-4.736-.022-10.86.008-21.7-.014-32.56.009-1.29-.108-2.657.55-3.847.956-1.878 3.202-3.062 5.446-2.927 3.264.07 6.549-.136 9.804.103 2.347 1.017 3.668 3.297 5.653 4.784 1.623 1.355 3.804 2.101 5.99 2.113 9.55.008 19.1.054 28.65.042 1.225.074 2.4-.755 2.629-1.871.415-1.441-.983-2.985-2.601-2.857-9.402-.054-18.81-.066-28.21-.066-.97.017-1.971-.19-2.744-.742-2.102-1.647-3.65-3.875-6.002-5.246-2.468-1.42-5.486-.938-8.24-1.016-1.312.04-2.634-.016-3.952-.02z" fill="url(#b)" style="-inkscape-stroke:none;font-variation-settings:normal"/>
 <g transform="translate(.000446 -8e-5) scale(1) matrix(.81 0 0 .81 6.079 6.757)" color="#ddd" fill="url(#b)">
  <path d="M32 45.4a3.223 3.223 0 0 0-3.224 3.224A3.223 3.223 0 0 0 32 51.848a3.223 3.223 0 0 0 3.224-3.224A3.223 3.223 0 0 0 32 45.4"/>
  <path d="M32 19.28c-6.274 0-10.57 1.734-14.78 4.422a2.93 2.93 0 0 0-.888 4.023c.86 1.346 2.68 1.753 4.025.894 3.56-2.27 6.584-3.511 11.65-3.511 5.068 0 8.18 1.246 11.63 3.493a2.93 2.93 0 0 0 4.031-.85 2.93 2.93 0 0 0-.847-4.035c-4.158-2.712-8.544-4.436-14.81-4.436zm.003 8.945-.003.003c-4.557 0-7.617 1.232-10.72 3.042a2.934 2.934 0 0 0-1.05 3.988 2.93 2.93 0 0 0 3.988 1.044c2.565-1.497 4.409-2.244 7.782-2.244 3.357 0 5.237.785 7.799 2.256a2.93 2.93 0 0 0 3.979-1.076 2.93 2.93 0 0 0-1.079-3.98v-.002c-3.047-1.749-6.126-3.031-10.7-3.031zM32 36.759c-2.457 0-4.652.639-6.611 1.64a2.93 2.93 0 0 0-1.272 3.921 2.93 2.93 0 0 0 3.921 1.272c1.278-.653 2.537-1.003 3.962-1.003 1.38 0 2.702.37 3.979 1.012a2.93 2.93 0 0 0 3.91-1.296 2.93 2.93 0 0 0-1.293-3.913c-1.925-.967-4.149-1.634-6.596-1.634z"/>
 </g>
</svg>
