<svg version="1.1" viewBox="0 0 64 64" xmlns="http://www.w3.org/2000/svg">
 <defs>
  <linearGradient id="a" x1="32.09" x2="480.1" y1="480" y2="31.95" gradientTransform="matrix(.07551 0 0 .07546 12.66 16.25)" gradientUnits="userSpaceOnUse">
   <stop stop-color="#f60" offset="0"/>
   <stop stop-color="#ae00ff" offset="1"/>
  </linearGradient>
  <linearGradient id="b" x1="176" x2="48.02" y1="336" y2="464" gradientTransform="translate(12.66 16.25)scale(.07548)" gradientUnits="userSpaceOnUse">
   <stop stop-color="#ff6e00" offset="0"/>
   <stop stop-color="#ff0062" offset="1"/>
  </linearGradient>
 </defs>
 <path transform="translate(.000446 -8e-5) scale(1) translate(-.003 -.001) scale(.9999)" d="M12.18 5c-1.318-.004-2.632.045-3.929.288-4.547.943-8.134 4.879-8.214 9.19-.058 11.26.004 22.53-.032 33.8-.027 1.665.162 3.367.945 4.886 1.659 3.496 5.669 5.875 9.81 5.834 14.31-.004 28.63.033 42.94-.016 5.406-.082 10.21-4.476 10.27-9.463.044-6.741.014-13.48.014-20.21.16-1.29-.904-2.574-2.326-2.661-1.45-.177-2.883.965-2.847 2.32-.05 6.028-.01 12.06-.018 18.09-.027 1.412.174 2.91-.528 4.224-.876 1.75-2.889 2.96-4.99 2.952-13.58.025-27.16-.005-40.74.016-1.292-.009-2.643.083-3.859-.395-2.043-.758-3.486-2.702-3.45-4.736-.022-10.86.008-21.7-.014-32.56.009-1.29-.108-2.657.55-3.847.956-1.878 3.202-3.062 5.446-2.927 3.264.07 6.549-.136 9.804.103 2.347 1.017 3.668 3.297 5.653 4.784 1.623 1.355 3.804 2.101 5.99 2.113 9.55.008 19.1.054 28.65.042 1.225.074 2.4-.755 2.629-1.871.415-1.441-.983-2.985-2.601-2.857-9.402-.054-18.81-.066-28.21-.066-.97.017-1.971-.19-2.744-.742-2.102-1.647-3.65-3.875-6.002-5.246-2.468-1.42-5.486-.938-8.24-1.016-1.312.04-2.634-.016-3.952-.02z" fill="url(#a)" style="-inkscape-stroke:none;font-variation-settings:normal"/>
 <path transform="translate(.000446 -8e-5) scale(1)" d="M45.46 18.66c-2.237.02-4.876.728-7.616 1.826-3.656 1.463-7.422 3.692-10.15 6.424-.808.802-1.552 1.663-2.235 2.572-1.498-.067-3.02.086-4.416.694l-.003.002c-4.44 1.953-5.599 6.802-5.935 8.839v.002c-.195 1.196.85 2.304 2.055 2.181h.009l4.855-.534q.006.083.014.167c.06.595.327 1.15.752 1.572l2.36 2.36c.421.426.978.692 1.574.752q.078.007.157.014l-.532 4.85-.001.011c-.122 1.203.984 2.246 2.178 2.053 2.047-.329 6.902-1.486 8.847-5.93v-.001c.608-1.394.762-2.908.7-4.398a23.5 23.5 0 0 0 2.58-2.235c2.74-2.725 4.972-6.437 6.436-10.07 1.458-3.62 2.214-7.097 1.619-9.737v-.007l-.002-.007-.003-.018-.012-.022a1.54 1.54 0 0 0-1.135-1.138 8.5 8.5 0 0 0-2.086-.22zm.872 1.895.006.012v.004q-.004-.008-.006-.016m-.806.558c.33-.01.623.004.893.03.179 1.778-.362 4.739-1.581 7.767-1.356 3.365-3.481 6.854-5.901 9.262l-.006.005a21 21 0 0 1-2.797 2.362 1.21 1.21 0 0 0-.507 1.091c.125 1.448-.002 2.828-.478 3.92-1.227 2.805-4.42 3.958-6.329 4.378l.593-5.396a1.21 1.21 0 0 0-1.19-1.34q-.626-.007-1.25-.076h-.014a.16.16 0 0 1-.1-.048l-.004-.005-2.37-2.37-.004-.004a.16.16 0 0 1-.047-.1l-.002-.012a12 12 0 0 1-.075-1.258 1.21 1.21 0 0 0-1.34-1.19l-5.4.593c.426-1.912 1.579-5.094 4.386-6.33 1.087-.474 2.475-.601 3.927-.47a1.21 1.21 0 0 0 1.095-.505 21 21 0 0 1 2.363-2.79l.003-.003c2.408-2.406 5.953-4.534 9.352-5.893 2.547-1.02 5.052-1.563 6.787-1.615zm-8.047 4.553a4.435 4.435 0 0 0-4.093 2.736 4.44 4.44 0 0 0 .96 4.827v.001l.001.001c1.72 1.722 4.546 1.722 6.265 0a4.44 4.44 0 0 0 .961-4.829 4.44 4.44 0 0 0-4.093-2.736zm0 2.415c.82 0 1.55.488 1.862 1.244a2.01 2.01 0 0 1-.437 2.197v.001a1.993 1.993 0 0 1-2.849 0c-.58-.58-.751-1.44-.438-2.198s1.043-1.244 1.862-1.244z" fill="url(#a)"/>
 <path transform="translate(.000446 -8e-5) scale(1)" d="M20.95 41.61a1 1 0 0 0-.158.009 4.6 4.6 0 0 0-2.696 1.313l-.002.002c-1.178 1.182-1.359 2.841-1.567 4.323a27 27 0 0 0-.24 2.776 1.21 1.21 0 0 0 1.237 1.238s1.295-.032 2.777-.24c1.482-.21 3.141-.39 4.321-1.57a4.6 4.6 0 0 0 1.316-2.702 1.21 1.21 0 0 0-1.055-1.343 1.21 1.21 0 0 0-1.343 1.055 2.17 2.17 0 0 1-.623 1.28l-.001.001c-.15.15-1.63.7-2.951.887-.426.06-.816.1-1.177.131.032-.36.071-.75.131-1.176.187-1.322.734-2.8.886-2.954a2.2 2.2 0 0 1 1.281-.623 1.21 1.21 0 0 0 1.051-1.347 1.21 1.21 0 0 0-1.188-1.06z" fill="url(#b)"/>
</svg>
