<svg version="1.1" viewBox="0 0 64 64" xmlns="http://www.w3.org/2000/svg">
 <defs>
  <linearGradient id="a" y1="1">
   <stop stop-color="#ff5e27" offset="0"/>
   <stop stop-color="#ffd709" offset="1"/>
  </linearGradient>
 </defs>
 <path transform="translate(.000446 -8e-5) scale(1) translate(-.003 -.001) scale(.9999)" d="M12.18 5c-1.318-.004-2.632.045-3.929.288-4.547.943-8.134 4.879-8.214 9.19-.058 11.26.004 22.53-.032 33.8-.027 1.665.162 3.367.945 4.886 1.659 3.496 5.669 5.875 9.81 5.834 14.31-.004 28.63.033 42.94-.016 5.406-.082 10.21-4.476 10.27-9.463.044-6.741.014-13.48.014-20.21.16-1.29-.904-2.574-2.326-2.661-1.45-.177-2.883.965-2.847 2.32-.05 6.028-.01 12.06-.018 18.09-.027 1.412.174 2.91-.528 4.224-.876 1.75-2.889 2.96-4.99 2.952-13.58.025-27.16-.005-40.74.016-1.292-.009-2.643.083-3.859-.395-2.043-.758-3.486-2.702-3.45-4.736-.022-10.86.008-21.7-.014-32.56.009-1.29-.108-2.657.55-3.847.956-1.878 3.202-3.062 5.446-2.927 3.264.07 6.549-.136 9.804.103 2.347 1.017 3.668 3.297 5.653 4.784 1.623 1.355 3.804 2.101 5.99 2.113 9.55.008 19.1.054 28.65.042 1.225.074 2.4-.755 2.629-1.871.415-1.441-.983-2.985-2.601-2.857-9.402-.054-18.81-.066-28.21-.066-.97.017-1.971-.19-2.744-.742-2.102-1.647-3.65-3.875-6.002-5.246-2.468-1.42-5.486-.938-8.24-1.016-1.312.04-2.634-.016-3.952-.02z" fill="url(#a)"/>
 <path transform="translate(.000446 -8e-5) scale(1)" d="M36.36 20.28A10.92 10.92 0 0 0 25.63 33.2l-7.109 7.109a6.175 6.175 0 0 0 8.733 8.733l7.109-7.109q.974.183 2 .183a10.92 10.92 0 0 0 10.92-10.92c0-2.214-.941-4.08-1.075-4.336l-.034-.06a1.736 1.736 0 0 0-2.777-.451l-4.801 4.8a.15.15 0 0 1-.115.048 2.12 2.12 0 0 1-2.115-2.12q0-.063.047-.11l4.8-4.801a1.75 1.75 0 0 0 .389-.584 1.736 1.736 0 0 0-.9-2.227c-.255-.134-2.123-1.075-4.336-1.075zm0 3.275a5 5 0 0 1 .768.06l-3.037 3.037a3.43 3.43 0 0 0-1.006 2.426 5.393 5.393 0 0 0 5.39 5.395 3.45 3.45 0 0 0 2.43-1.011l3.037-3.033q.06.381.06.767a7.64 7.64 0 0 1-7.642 7.641q-.724 0-1.403-.128l-1.697-.31-8.323 8.322a2.902 2.902 0 0 1-4.102-4.102l8.323-8.323-.311-1.697a7.64 7.64 0 0 1 7.513-9.045z" fill="url(#a)"/>
</svg>
