<svg version="1.1" viewBox="0 0 64 64" xmlns="http://www.w3.org/2000/svg">
 <defs>
  <linearGradient id="a" y2="1">
   <stop stop-color="#00fffa" offset="0"/>
   <stop stop-color="#0078ff" offset="1"/>
  </linearGradient>
 </defs>
 <path transform="translate(-.000564 .00037) scale(1) translate(-.003 .001) scale(.9999)" d="M12.18 4.998c-1.318-.004-2.631.044-3.928.287-4.546.943-8.135 4.88-8.215 9.191-.058 11.26.005 22.53-.031 33.8-.027 1.664.163 3.364.945 4.883 1.659 3.496 5.668 5.875 9.809 5.834 14.31-.004 28.63.034 42.94-.016 5.406-.082 10.21-4.476 10.27-9.463.045-6.74.014-13.48.014-20.21.16-1.289-.904-2.573-2.326-2.66-1.45-.177-2.882.964-2.846 2.318-.05 6.027-.01 12.06-.02 18.09-.027 1.412.175 2.91-.527 4.223-.876 1.75-2.888 2.96-4.988 2.951-13.58.025-27.16-.005-40.74.016-1.292-.008-2.644.083-3.86-.394-2.042-.758-3.484-2.701-3.448-4.734-.022-10.86.009-21.7-.014-32.56.01-1.29-.108-2.658.549-3.848.957-1.878 3.202-3.061 5.445-2.926 3.264.07 6.548-.136 9.803.103 2.347 1.017 3.67 3.296 5.654 4.783 1.623 1.355 3.802 2.1 5.988 2.111 9.549.008 19.1.055 28.65.043 1.225.074 2.401-.755 2.629-1.87.416-1.442-.981-2.986-2.6-2.858-9.401-.053-18.81-.064-28.21-.064-.97.016-1.971-.19-2.744-.743-2.102-1.647-3.65-3.875-6.002-5.246-2.468-1.42-5.485-.937-8.238-1.016-1.312.04-2.635-.016-3.953-.02z" fill="url(#a)"/>
 <path transform="translate(-.000564 .00037) scale(1) translate(-.004) scale(.9999)" d="M31.93 24.28c-3.626 0-6.817 1.696-8.828 4.347a8.1 8.1 0 0 0-4.924-1.658c-4.584 0-8.222 3.792-8.222 8.219s3.796 8.219 8.222 8.219c1.747 0 3.396-.59 4.752-1.578 1.998 2.785 5.267 4.581 9 4.581 3.767 0 7.063-1.829 9.055-4.659 1.375 1.034 3.065 1.655 4.856 1.655 4.584 0 8.219-3.792 8.219-8.219s-3.634-8.219-8.219-8.219a8.14 8.14 0 0 0-5.03 1.736c-2.008-2.695-5.222-4.425-8.883-4.425zm0 5.533c3.004 0 5.533 2.529 5.533 5.533s-2.529 5.533-5.533 5.533-5.533-2.529-5.533-5.533 2.529-5.533 5.533-5.533m-13.75 2.689a2.83 2.83 0 0 1 2.718 1.995 11.5 11.5 0 0 0 0 1.698 2.83 2.83 0 0 1-2.718 1.998c-1.581 0-2.847-1.266-2.847-2.847s1.266-2.844 2.847-2.844zm27.67 0c1.581 0 2.844 1.263 2.844 2.844s-1.263 2.847-2.844 2.847-2.847-1.266-2.847-2.847 1.266-2.844 2.847-2.844" fill="url(#a)"/>
</svg>
