<svg version="1.1" viewBox="0 0 64 64" xmlns="http://www.w3.org/2000/svg">
 <defs>
  <linearGradient id="a" x2="0" y1="1">
   <stop stop-color="#004dff" offset="0"/>
   <stop stop-color="#00e0f8" offset="1"/>
  </linearGradient>
 </defs>
 <path transform="translate(0) scale(1) translate(0) scale(1) translate(0) scale(1) translate(0) scale(1) translate(-.000564 .00037) scale(1) translate(-.003 .001) scale(.9999)" d="M12.18 4.998c-1.318-.004-2.631.044-3.928.287-4.546.943-8.135 4.88-8.215 9.191-.058 11.26.005 22.53-.031 33.8-.027 1.664.163 3.364.945 4.883 1.659 3.496 5.668 5.875 9.809 5.834 14.31-.004 28.63.034 42.94-.016 5.406-.082 10.21-4.476 10.27-9.463.045-6.74.014-13.48.014-20.21.16-1.289-.904-2.573-2.326-2.66-1.45-.177-2.882.964-2.846 2.318-.05 6.027-.01 12.06-.02 18.09-.027 1.412.175 2.91-.527 4.223-.876 1.75-2.888 2.96-4.988 2.951-13.58.025-27.16-.005-40.74.016-1.292-.008-2.644.083-3.86-.394-2.042-.758-3.484-2.701-3.448-4.734-.022-10.86.009-21.7-.014-32.56.01-1.29-.108-2.658.549-3.848.957-1.878 3.202-3.061 5.445-2.926 3.264.07 6.548-.136 9.803.103 2.347 1.017 3.67 3.296 5.654 4.783 1.623 1.355 3.802 2.1 5.988 2.111 9.549.008 19.1.055 28.65.043 1.225.074 2.401-.755 2.629-1.87.416-1.442-.981-2.986-2.6-2.858-9.401-.053-18.81-.064-28.21-.064-.97.016-1.971-.19-2.744-.743-2.102-1.647-3.65-3.875-6.002-5.246-2.468-1.42-5.485-.937-8.238-1.016-1.312.04-2.635-.016-3.953-.02z" fill="url(#a)"/>
 <path transform="translate(0) scale(1) translate(0) scale(1) translate(0) scale(1) translate(0) scale(1) translate(-.000564 .00037) scale(1) translate(-.004) scale(.9999)" d="M29.92 22.21a7.4 7.4 0 0 0-2.011.254c-1.418.38-2.519 1.204-3.414 2.181l-1.849.01c-1.475.008-2.797.743-3.631 1.83a4.58 4.58 0 0 0-.33 5.016 7.4 7.4 0 0 0-.94 1.129c-4.808.002-8.348 4.62-7.104 9.266 1.192 4.449 6.165 6.642 10.24 4.713 1.9 1.113 4.41.767 5.884-1.071 1.487 1.084 3.26 1.81 5.236 1.81 2.228 0 4.249-.847 5.824-2.194 1.9 1.9 4.515 2.556 6.864 1.993.606-.146 1.173-.422 1.727-.715 2.34 1.612 5.719.806 6.85-1.935 1.09-2.631-.54-5.462-3.147-6.147a7.34 7.34 0 0 0-3.305-4.636 7.4 7.4 0 0 0-3.836-1.078c-.597-3.184-3.183-5.615-6.453-5.93a7.38 7.38 0 0 0-4.986-4.214zm-.046 2.654c2.602.008 4.612 2.198 4.525 4.84-.768-.214-1.562-.365-2.396-.365-2.392 0-4.539.975-6.154 2.506-1.497-2.583-.382-5.971 2.747-6.811.437-.117.865-.17 1.278-.17zm-7.254 2.428c.077 0 .174.054.255.065q-.332 1.036-.354 2.129a7.2 7.2 0 0 0-1.61.464c-.274-.652-.218-1.284.214-1.847.389-.507.91-.813 1.496-.811zm14.53 2.224a4.59 4.59 0 0 1 3.265 3.655q-.437.166-.863.394a9 9 0 0 0-2.54-2.633c.09-.478.142-.95.138-1.417zm-5.147 2.48a6.325 6.325 0 0 1 6.348 6.347 6.326 6.326 0 0 1-6.348 6.347 6.325 6.325 0 0 1-6.347-6.347 6.325 6.325 0 0 1 6.347-6.347m-9.045.113a7.2 7.2 0 0 0 1.146 2.035c-.647 1.214-1.055 2.572-1.082 4.033a4.45 4.45 0 0 0-2.928 1.364c-1.136-1.44-1.28-3.15-.661-4.642.592-1.43 1.825-2.508 3.526-2.789zm19.93 3.156a4.74 4.74 0 0 1 2.538.715c1.53.938 2.525 2.615 2.187 4.744-.337 2.13-1.8 3.42-3.546 3.837h-.001c-1.593.383-3.286-.036-4.537-1.43.891-1.398 1.48-3.014 1.48-4.789 0-.827-.2-1.598-.41-2.36.752-.453 1.525-.708 2.29-.718zm-26.33.3c-.346 2.174.21 4.537 2.016 6.34l.02.02.02.017c.061.054.147.05.216.09-.166.754-.212 1.556.117 2.395-2.438.665-5.043-.613-5.741-3.219-.698-2.602.912-4.997 3.352-5.645zm6.577 5.198c.082-.002.175.023.26.032a8.9 8.9 0 0 0 1.489 2.953c-.434.709-1.11 1.006-1.79.962-.695-.046-1.35-.433-1.68-1.23-.578-1.396.401-2.686 1.722-2.717zm27.09.422c.657.506.958 1.4.587 2.294-.403.972-1.362 1.38-2.25 1.157.798-.954 1.437-2.076 1.663-3.452z" fill="url(#a)"/>
</svg>
