<svg version="1.1" viewBox="0 0 64 64" xmlns="http://www.w3.org/2000/svg" xmlns:xlink="http://www.w3.org/1999/xlink">
 <defs>
  <linearGradient id="a" y1="1">
   <stop stop-color="#ff00d2" offset="0"/>
   <stop stop-color="#00e5ff" offset="1"/>
  </linearGradient>
  <linearGradient id="d" x1="111" x2="486.2" y1="-365.8" y2="-741" gradientTransform="scale(.8556 1.169)" gradientUnits="userSpaceOnUse" xlink:href="#a"/>
  <linearGradient id="g" x1="543.6" x2="800.4" y1="-89.13" y2="-346" gradientTransform="scale(.9382 1.066)" gradientUnits="userSpaceOnUse" xlink:href="#a"/>
  <linearGradient id="h" x1="135" x2="906" y1="-95" y2="-866" gradientUnits="userSpaceOnUse" xlink:href="#a"/>
  <linearGradient id="c" x1="1.758" x2="39.44" y1="43.9" y2="16.7" gradientTransform="scale(1.333)" gradientUnits="userSpaceOnUse" xlink:href="#a"/>
 </defs>
 <path transform="translate(-0) scale(1) translate(-0) scale(1) translate(-.000533 .00012) scale(1) translate(-.002 -.006) scale(.9999)" d="M12.18 5c-1.318-.004-2.633.044-3.93.287-4.547.943-8.133 4.879-8.214 9.19-.058 11.26.005 22.53-.031 33.8-.027 1.663.16 3.365.942 4.885 1.66 3.497 5.67 5.876 9.81 5.835 14.31-.005 28.63.033 42.94-.016 5.406-.082 10.21-4.477 10.27-9.464.045-6.741.014-13.48.014-20.21.16-1.29-.904-2.572-2.326-2.66-1.45-.176-2.882.964-2.846 2.319-.05 6.029-.01 12.06-.019 18.09-.027 1.412.174 2.91-.528 4.224-.877 1.75-2.888 2.96-4.99 2.953-13.58.025-27.16-.005-40.75.016-1.292-.009-2.643.081-3.86-.396-2.043-.758-3.486-2.7-3.451-4.734-.023-10.86.009-21.7-.013-32.56.009-1.29-.108-2.656.55-3.846.956-1.878 3.2-3.063 5.445-2.927 3.264.07 6.55-.138 9.805.101 2.347 1.017 3.666 3.3 5.651 4.786 1.623 1.355 3.806 2.1 5.992 2.112 9.55.008 19.1.054 28.65.042 1.225.074 2.402-.754 2.63-1.87.416-1.441-.986-2.987-2.604-2.859-9.403-.054-18.81-.065-28.21-.065-.97.016-1.97-.19-2.745-.742-2.1-1.647-3.648-3.874-6-5.245-2.468-1.421-5.486-.94-8.24-1.018-1.312.039-2.635-.015-3.953-.019z" fill="url(#c)"/>
 <path transform="translate(-0) scale(1) translate(-0) scale(1) translate(-.000533 .00012) scale(1) translate(13.82 52.92) scale(.03632)" d="M345-739q0 20-18.5 35T244-670q-99 33-124 63.5T95-540q0 48 32 73t73 38q15 4 27.5-3t16.5-22-3-28-22-17q-27-9-40-19t-13-22q0-13 19.5-27.5T273-604q84-27 113.5-57.5T416-739q0-58-42.5-92.5T261-866q-44 0-79 15.5T129-812q-9 11-8.5 25t13.5 24q11 9 25.5 8t24.5-12q14-14 32-20.5t45-6.5q43 0 63.5 16.5T345-739" fill="url(#d)"/>
 <path transform="translate(-0) scale(1) translate(-0) scale(1) translate(-.000533 .00012) scale(1) translate(13.82 52.92) scale(.03632)" d="M545-95q81 0 143.5-38T751-241q0-37-24-68t-75-54q-13-7-28-5.5T601-355t-6.5 28 14.5 23q33 15 52 31t19 32q0 31-39 53t-96 22q-14 0-24.5 10T510-131t10.5 25.5T545-95" fill="url(#g)"/>
 <path transform="translate(-0) scale(1) translate(-0) scale(1) translate(-.000533 .00012) scale(1) translate(13.82 52.92) scale(.03632)" d="M182-95q-20 0-33.5-13.5T135-142v-45q0-19 7.5-36.5T163-255l585-584q12-13 25.5-20t27.5-7 28 7 27 20l25 23q12 11 18.5 25t6.5 28-6 28-19 27L296-123q-14 13-31.5 20.5T228-95zm25-71h32l460-461-16-16-15-16-461 461zm627-596-32-32zM683-643l-15-16 31 32z" fill="url(#h)"/>
</svg>
