<svg version="1.1" viewBox="0 0 64 64" xmlns="http://www.w3.org/2000/svg">
 <defs>
  <linearGradient id="a" y2="1">
   <stop stop-color="#f0f" offset="0"/>
   <stop stop-color="#ff0080" offset="1"/>
  </linearGradient>
 </defs>
 <g transform="translate(-.000586 7e-5) scale(1) translate(-.001 -.004) scale(1.333)" fill="url(#a)">
  <path d="M9.133 3.75c-.989-.003-1.975.033-2.947.215-3.41.707-6.1 3.659-6.16 6.893-.044 8.446.003 16.9-.023 25.35-.02 1.248.12 2.524.707 3.664 1.244 2.622 4.252 4.406 7.357 4.375 10.73-.003 21.47.025 32.2-.012 4.054-.062 7.656-3.358 7.703-7.098.033-5.056.01-10.11.01-15.16.12-.967-.678-1.929-1.745-1.994-1.086-.133-2.162.722-2.135 1.738-.036 4.521-.007 9.043-.013 13.56-.02 1.06.13 2.183-.397 3.168-.657 1.313-2.166 2.221-3.742 2.215-10.18.019-20.37-.004-30.56.012-.969-.006-1.982.061-2.895-.297-1.532-.568-2.615-2.025-2.588-3.551-.017-8.141.007-16.28-.01-24.42.007-.967-.08-1.992.413-2.885.717-1.408 2.4-2.297 4.084-2.195 2.448.052 4.912-.103 7.354.076 1.76.763 2.75 2.475 4.238 3.59 1.217 1.016 2.854 1.575 4.494 1.584 7.163.006 14.33.04 21.49.031.918.056 1.802-.565 1.973-1.402.311-1.08-.74-2.24-1.953-2.144-7.052-.04-14.1-.049-21.16-.049-.728.013-1.478-.142-2.06-.556-1.575-1.235-2.735-2.905-4.5-3.934-1.85-1.066-4.113-.705-6.18-.764-.984.03-1.975-.01-2.964-.013z"/>
  <path class="ColorScheme-Text" d="M12.86 35.51c-.138-.04-.377-.225-.658-.511-.355-.36-.505-.577-.759-1.099-1.844-3.787-1.822-10.68.045-14.46.532-1.076 1.144-1.686 1.762-1.756.654-.074 2.067.491 3.312 1.324 1.717 1.148 3.552 2.915 4.423 4.259.224.345.272.481.332.928.039.287.07.74.07 1.007v.485l-.42-.177c-.584-.248-1.55-.536-2.293-.685-.77-.154-2.09-.274-2.353-.214-.19.043-.185.047.148.13 1.074.271 4.782 1.48 4.9 1.599.057.056-.121 1.502-.19 1.546-.155.099-1.253.434-2.497.764-.717.19-1.32.361-1.338.38s.092.019.246-.001.687-.08 1.183-.132a29 29 0 0 0 1.6-.219c.384-.067.71-.122.723-.122.046 0-.144.76-.34 1.369-.225.69-.28.757-1.554 1.872-2.304 2.017-4.073 3.243-5.233 3.63-.504.168-.754.187-1.108.085zm21.23-.025c-.839-.221-2.259-1.073-3.512-2.106-.806-.665-1.914-1.692-2.405-2.23l-.385-.422.106-.418c.057-.23.121-.665.14-.967.035-.521.043-.548.167-.511.83.243 1.915.447 3.15.592.325.038.676.082.778.098.183.027.184.027.031-.04-.085-.036-.701-.219-1.37-.404s-1.552-.452-1.964-.591l-.75-.254-.113-.882a32 32 0 0 1-.121-1.037c-.008-.14.085-.203.925-.635a73 73 0 0 1 2.1-1.023c.641-.298 1.158-.55 1.148-.56-.05-.05-1.614.411-2.897.855-.8.277-1.476.48-1.502.451s-.096-.206-.156-.394a7 7 0 0 0-.32-.774c-.115-.238-.21-.457-.21-.487s.13-.256.288-.501c1.02-1.587 3.194-3.641 4.945-4.675 1.032-.61 2.16-.981 2.679-.883.584.111 1.162.714 1.676 1.752.966 1.948 1.502 4.924 1.41 7.84-.081 2.632-.566 4.982-1.364 6.621-.254.521-.404.739-.757 1.097-.586.596-.934.694-1.717.488zm-10.67-4.45c-.758-.11-1.486-.4-1.771-.703-.125-.132-.125-.134-.004-.598.331-1.28.521-3.428.434-4.914-.047-.805-.042-.91.05-.982.342-.264 2.172-.619 2.835-.55.442.046.825.21 1.05.45.387.413.863 1.775 1.088 3.113.161.957.16 2.878-.003 3.424-.11.368-.128.39-.424.517-.17.073-.52.174-.777.223-.51.097-1.868.108-2.477.02z" style="isolation:isolate"/>
 </g>
</svg>
