<svg version="1.1" viewBox="0 0 64 64" xmlns="http://www.w3.org/2000/svg">
 <defs>
  <linearGradient id="a" y1=".5" y2=".5">
   <stop stop-color="#be0de2" offset="0"/>
   <stop stop-color="#ff0050" offset="1"/>
  </linearGradient>
 </defs>
 <path transform="translate(0) scale(1) translate(-.003499 .003499) scale(.9998) translate(.00019 .00142) scale(1)" d="m12.18 4.998c-1.318-4e-3 -2.631 0.04608-3.928 0.2891-4.546 0.9428-8.135 4.877-8.215 9.188-0.05798 11.26 0.004742 22.53-0.03125 33.8-0.027 1.665 0.1625 3.368 0.9453 4.887 1.659 3.496 5.668 5.871 9.809 5.83 14.31-4e-3 28.63 0.03337 42.94-0.01563 5.406-0.08198 10.21-4.472 10.27-9.459 0.044-6.739 0.01367-13.48 0.01367-20.21 0.16-1.29-0.9046-2.571-2.326-2.658-1.45-0.177-2.882 0.9639-2.846 2.318-0.05 6.026-0.01153 12.06-0.01953 18.09-0.027 1.412 0.1745 2.909-0.5273 4.223-0.8758 1.75-2.888 2.961-4.988 2.953-13.58 0.025-27.16-0.0054-40.73 0.01563-1.292-9e-3 -2.644 0.08144-3.859-0.3965-2.043-0.7578-3.485-2.7-3.449-4.732-0.022-10.86 0.008326-21.7-0.01367-32.56 0.008999-1.29-0.109-2.658 0.5488-3.848 0.9558-1.878 3.202-3.061 5.445-2.926 3.264 0.06998 6.548-0.1355 9.803 0.1035 2.347 1.017 3.668 3.294 5.652 4.781 1.623 1.355 3.8 2.101 5.986 2.113 9.548 8e-3 19.1 0.053 28.65 0.04102 1.225 0.07398 2.4-0.7554 2.629-1.871 0.415-1.441-0.9816-2.984-2.6-2.856-9.4-0.05398-18.81-0.06641-28.21-0.06641-0.9698 0.017-1.971-0.1902-2.744-0.7422-2.102-1.647-3.65-3.875-6.002-5.246-2.468-1.42-5.484-0.9372-8.236-1.016-1.312 0.04-2.633-0.01553-3.951-0.01953z" fill="url(#a)"/>
 <path transform="translate(0) scale(1) translate(-.003499 .003499) scale(.9998) translate(.00019 .00142) scale(1)" d="m31.98 18.69c-0.5196 0.01106-1.016 0.1089-1.492 0.2969-0.4756 0.1879-0.8907 0.4584-1.244 0.8125l-13.11 13.11c-0.365 0.3761-0.6489 0.8016-0.8477 1.277-0.1988 0.4758-0.2969 0.9746-0.2969 1.494 0 0.5308 0.09779 1.028 0.2969 1.492 0.1991 0.4644 0.483 0.8794 0.8477 1.244l13.11 13.11c0.365 0.365 0.7865 0.6489 1.262 0.8477 0.475 0.1988 0.9726 0.2969 1.492 0.2969 0.542 0 1.045-0.09779 1.51-0.2969 0.4644-0.1991 0.8794-0.483 1.244-0.8477l13.13-13.11c0.3538-0.365 0.631-0.7865 0.8301-1.262 0.1991-0.4752 0.2969-0.9662 0.2969-1.475-0.01106-0.5308-0.1089-1.034-0.2969-1.51-0.188-0.475-0.4651-0.8966-0.8301-1.262l-13.13-13.11c-0.3761-0.365-0.8016-0.6401-1.277-0.8281-0.4758-0.1879-0.9746-0.2812-1.494-0.2812zm0.01758 2.586c0.3538 0 0.6529 0.122 0.8965 0.3652l13.13 13.13c0.2434 0.2434 0.3652 0.5405 0.3652 0.8945s-0.122 0.6529-0.3652 0.8965l-13.13 13.13c-0.2434 0.2434-0.5424 0.3652-0.8965 0.3652s-0.6529-0.122-0.8965-0.3652l-13.13-13.13c-0.2543-0.2543-0.3809-0.5534-0.3809-0.8965 0-0.1659 0.03133-0.3258 0.09766-0.4805 0.06635-0.1548 0.1616-0.2926 0.2832-0.4141l8.705-8.705 2.902 2.902c-0.1438 0.3429-0.2148 0.68-0.2148 1.012 0 0.5308 0.1487 1.017 0.4473 1.459 0.2986 0.4426 0.6958 0.7639 1.193 0.9629v7.379c-0.4976 0.1991-0.8949 0.5187-1.193 0.9609-0.2986 0.4423-0.4473 0.9283-0.4473 1.459 0.01106 0.3761 0.08217 0.7196 0.2148 1.029 0.1327 0.3099 0.3191 0.5848 0.5625 0.8281 0.2433 0.2434 0.5203 0.4317 0.8301 0.5644s0.647 0.1992 1.012 0.1992c0.3761-0.01106 0.7196-0.08405 1.029-0.2168 0.3099-0.1327 0.5867-0.3191 0.8301-0.5625 0.2434-0.2433 0.4298-0.5203 0.5625-0.8301s0.1992-0.647 0.1992-1.012c0-0.5308-0.1487-1.017-0.4473-1.459-0.2986-0.4426-0.6978-0.7619-1.195-0.9609v-7.379l0.05078-0.01758 3.084 3.102c-0.1216 0.3098-0.1816 0.6202-0.1816 0.9297 0.02212 0.3761 0.09326 0.7177 0.2148 1.027 0.1216 0.3099 0.3036 0.5867 0.5469 0.8301s0.5203 0.4317 0.8301 0.5644c0.3098 0.1328 0.647 0.1992 1.012 0.1992 0.3761-0.01106 0.7196-0.08405 1.029-0.2168 0.3099-0.1327 0.5848-0.3211 0.8281-0.5644 0.2434-0.2433 0.4318-0.5184 0.5644-0.8281 0.1327-0.3098 0.1992-0.647 0.1992-1.012-0.01106-0.365-0.08405-0.7087-0.2168-1.029-0.1327-0.3205-0.3191-0.5958-0.5625-0.8281-0.2433-0.2322-0.5203-0.4161-0.8301-0.5488s-0.647-0.1973-1.012-0.1973c-0.387 0-0.7467 0.08221-1.078 0.248l-3.051-3.055c0.1438-0.3538 0.2148-0.6955 0.2148-1.027-0.01106-0.3761-0.08217-0.7196-0.2148-1.029-0.1327-0.3099-0.3211-0.5848-0.5644-0.8281-0.2433-0.2434-0.5203-0.4317-0.8301-0.5644s-0.647-0.1992-1.012-0.1992c-0.3318 0-0.6692 0.07297-1.012 0.2168l-2.902-2.902 3.02-3.022c0.2434-0.2434 0.5424-0.3633 0.8965-0.3633z" fill="url(#a)"/>
</svg>
