<svg version="1.1" viewBox="0 0 64 64" xmlns="http://www.w3.org/2000/svg">
 <defs>
  <linearGradient id="a" y1="1">
   <stop stop-color="#ff6540" offset="0"/>
   <stop stop-color="#ff00f0" offset=".5"/>
   <stop stop-color="#5f26ff" offset="1"/>
  </linearGradient>
  <linearGradient id="b" x1="1" x2="0" y2="1">
   <stop stop-color="#ff6540" offset="0"/>
   <stop stop-color="#ff00f0" offset=".5"/>
   <stop stop-color="#5f26ff" offset="1"/>
  </linearGradient>
 </defs>
 <path transform="translate(-0) scale(1) translate(-0) scale(1) translate(-.003499 -.00045) scale(1) translate(.000191 .00141) scale(1)" d="m12.18 4.998c-1.318-4e-3 -2.631 0.04704-3.928 0.291-4.546 0.9419-8.135 4.875-8.215 9.186-0.05799 11.26 0.004746 22.53-0.03125 33.8-0.027 1.665 0.1624 3.366 0.9453 4.885 1.659 3.496 5.668 5.873 9.809 5.832 14.31-4e-3 28.63 0.03337 42.94-0.01563 5.406-0.08199 10.21-4.474 10.27-9.459 0.044-6.739 0.01367-13.48 0.01367-20.21 0.16-1.29-0.9053-2.572-2.326-2.658-1.45-0.178-2.882 0.9635-2.846 2.318-0.05 6.025-0.01153 12.06-0.01953 18.09-0.027 1.411 0.1746 2.907-0.5273 4.221-0.8759 1.75-2.888 2.961-4.988 2.953-13.58 0.025-27.16-0.0054-40.74 0.01563-1.292-9e-3 -2.644 0.08147-3.859-0.3965-2.042-0.7579-3.483-2.7-3.447-4.732-0.022-10.86 0.00833-21.7-0.01367-32.56 0.01-1.29-0.1091-2.658 0.5488-3.848 0.9559-1.878 3.202-3.061 5.445-2.926 3.264 0.06999 6.548-0.1374 9.803 0.1016 2.347 1.017 3.668 3.296 5.652 4.783 1.623 1.355 3.8 2.101 5.986 2.113 9.548 8e-3 19.1 0.05301 28.65 0.04102 1.225 0.07399 2.4-0.7562 2.629-1.871 0.415-1.442-0.9818-2.984-2.6-2.856-9.4-0.05399-18.81-0.06641-28.21-0.06641-0.9699 0.017-1.969-0.1902-2.742-0.7422-2.102-1.647-3.65-3.875-6.002-5.246-2.468-1.42-5.484-0.9376-8.236-1.016-1.312 0.04-2.633-0.01553-3.951-0.01953z" fill="url(#b)"/>
 <path transform="translate(-0) scale(1) translate(-0) scale(1) translate(-.003499 -.00045) scale(1) translate(.000191 .00141)" d="m43.23 25.69-0.0039 2e-3a5.999 5.999 0 0 0-0.9902 0.08984c-0.6279 0.104-1.385 0.2993-2.281 0.5293l-5.523 1.424-0.2051 0.05273c-0.9819 0.252-1.844 0.4745-2.516 0.9824a4.16 4.16 0 0 0-1.332 1.715c-0.324 0.7759-0.3194 1.662-0.3184 2.674v8.742c-1.159 0-2.587 0.1967-3.867 0.8086-1.327 0.6349-2.77 1.891-3.055 3.998-0.154 1.15 0.09972 2.547 1.225 3.67 1.127 1.123 2.52 1.375 3.674 1.221 2.111-0.284 3.371-1.727 4.008-3.051 0.6139-1.277 0.793-2.7 0.793-3.856v-8.426c0-0.412 3.2e-4 -0.619 0.07031-0.791a0.9299 0.9299 0 0 1 0.2949-0.3828c0.148-0.112 0.3462-0.1636 0.7441-0.2656l8.617-2.219c0.6299-0.161 0.9454-0.24 1.193-0.166a0.9299 0.9299 0 0 1 0.5215 0.4062c0.134 0.223 0.1348 0.5453 0.1348 1.197v5.531c-1.158 0-2.586 0.1937-3.863 0.8066-1.327 0.6359-2.77 1.892-3.053 4-0.154 1.153 0.09777 2.543 1.223 3.666a4.3 4.3 0 0 0 3.674 1.221c2.11-0.281 3.371-1.723 4.008-3.047 0.6129-1.275 0.793-2.7 0.793-3.859v-10.46c0-0.9249-0.0016-1.705-0.05664-2.34-0.05999-0.6559-0.1878-1.314-0.5527-1.912a4.17 4.17 0 0 0-2.35-1.818 3.5 3.5 0 0 0-1.006-0.1445z" fill="url(#a)"/>
 <path transform="translate(-0) scale(1) translate(-0) scale(1) translate(-.003499 -.00045) scale(1) translate(.000191 .00141)" d="m29.89 19.04a1.3 1.3 0 0 0-0.3438 0.06836l-3.443 1.144a2.6 2.6 0 0 0-1.777 2.467v6.336a3.898 3.898 0 1 0 1.732 3.242v-5.871l4.012-1.336a1.73 1.73 0 0 0 1.184-1.644v-3.104a1.3 1.3 0 0 0-1.365-1.299z" fill="url(#a)"/>
</svg>
