<svg version="1.1" viewBox="0 0 64 64" xmlns="http://www.w3.org/2000/svg" xmlns:xlink="http://www.w3.org/1999/xlink">
 <defs>
  <linearGradient id="a" x1="1" x2="0" y2="1">
   <stop stop-color="#fda700" offset="0"/>
   <stop stop-color="#ffde00" offset="1"/>
  </linearGradient>
  <linearGradient id="c" x1="57.15" x2="-.01" y1="6.84" y2="64" gradientTransform="translate(17.74 20.92)scale(.4467)" gradientUnits="userSpaceOnUse" xlink:href="#a"/>
  <linearGradient id="d" x1="61.83" x2="10.98" y1=".005" y2="50.86" gradientTransform="matrix(.4615 0 0 .4323 17.74 20.92)" gradientUnits="userSpaceOnUse" xlink:href="#a"/>
 </defs>
 <path transform="translate(0) scale(1) translate(0) scale(1) translate(-.000554 .00142) scale(1) translate(-.003) scale(.9999)" d="M12.18 4.998c-1.318-.004-2.631.046-3.928.29C3.706 6.23.117 10.163.037 14.474c-.058 11.26.005 22.53-.031 33.8-.027 1.665.162 3.368.945 4.887 1.659 3.496 5.668 5.873 9.809 5.832 14.31-.004 28.63.033 42.94-.016 5.406-.082 10.21-4.474 10.27-9.46.044-6.74.014-13.48.014-20.21.16-1.29-.905-2.574-2.326-2.66-1.45-.178-2.882.965-2.846 2.32-.05 6.026-.012 12.06-.02 18.09-.027 1.411.175 2.908-.527 4.222-.876 1.75-2.888 2.961-4.988 2.953-13.58.025-27.16-.005-40.74.016-1.292-.009-2.644.082-3.86-.396-2.042-.758-3.484-2.701-3.448-4.734-.022-10.86.008-21.7-.014-32.56.01-1.29-.109-2.658.549-3.848.956-1.878 3.202-3.061 5.445-2.926 3.264.07 6.55-.136 9.805.103 2.347 1.017 3.668 3.296 5.652 4.783 1.623 1.355 3.802 2.101 5.988 2.113 9.549.008 19.1.053 28.65.041 1.225.074 2.4-.755 2.629-1.87.415-1.442-.982-2.985-2.6-2.857-9.401-.054-18.81-.066-28.21-.066-.97.017-1.971-.19-2.744-.742-2.102-1.647-3.65-3.875-6.002-5.246-2.468-1.42-5.485-.938-8.238-1.016-1.312.04-2.633-.016-3.951-.02z" fill="url(#c)"/>
 <path transform="translate(0) scale(1) translate(0) scale(1) translate(-.000554 .00142) scale(1) translate(-.003) scale(.9999)" d="M22.24 23.97c-2.47 0-4.507 2.035-4.507 4.507v16.52c0 2.47 2.035 4.507 4.507 4.507h16.52c2.47 0 4.507-2.035 4.507-4.507V40.49a1.5 1.5 0 0 0-1.502-1.502 1.5 1.5 0 0 0-1.501 1.502v4.507c0 .847-.654 1.501-1.501 1.501h-16.52a1.48 1.48 0 0 1-1.501-1.501v-16.52c0-.847.654-1.501 1.501-1.501h4.507a1.5 1.5 0 0 0 1.5-1.502 1.5 1.5 0 0 0-1.5-1.501z" fill="url(#c)"/>
 <path transform="translate(0) scale(1) translate(0) scale(1) translate(-.000554 .00142) scale(1) translate(-.003) scale(.9999)" d="M41.73 20.92a2.99 2.99 0 0 0-2.213.88l-8.237 8.303c-.443.446-.73.737-.972 1.07a5.2 5.2 0 0 0-.542.944c-.166.375-.272.772-.434 1.378l-.286 1.07-.001.008-.568 2.124a7 7 0 0 0-.147.611 1.4 1.4 0 0 0 0 .595V37.9l.024.097h-.003l.03.096a1.42 1.42 0 0 0 .822.814 1.46 1.46 0 0 0 .787.045 6 6 0 0 0 .417-.096l.076-.02 3.313-.918c.605-.167 1-.276 1.375-.446q.495-.225.937-.548c.328-.243.62-.536 1.063-.983l8.237-8.304a2.99 2.99 0 0 0 .717-3.02 3 3 0 0 0-.153-.378 6.5 6.5 0 0 0-3.061-3.032 3 3 0 0 0-1.182-.286zm-.061 1.737a1.25 1.25 0 0 1 .494.119 4.77 4.77 0 0 1 2.243 2.226 1 1 0 0 1 .063.157 1.25 1.25 0 0 1-.3 1.26l-.886.897a7.45 7.45 0 0 0-3.424-3.4l.885-.892a1.25 1.25 0 0 1 .925-.367zm-3.128 2.59a5.71 5.71 0 0 1 3.428 3.392l-5.986 6.039c-.506.511-.7.696-.908.849a3.5 3.5 0 0 1-.625.368c-.235.106-.493.179-1.186.37l-.134.037a3.7 3.7 0 0 0-.853-1.315 3.7 3.7 0 0 0-1.323-.842h-.003l.034-.133c.185-.694.257-.954.36-1.189q.15-.334.364-.63c.15-.21.339-.404.845-.914zm.797 1.766.002.002a.87.87 0 0 0-.642.254l-5.002 5.048a.87.87 0 0 0-.199.784v.002a.868.868 0 0 0 1.431.434l5.002-5.048a.87.87 0 0 0 .209-.876h-.001a.87.87 0 0 0-.8-.6zm-15.41 4.632c-1.5 0-1.5 2.252 0 2.252h1.8c1.5 0 1.5-2.252 0-2.252zm6.571 4.187a1.93 1.93 0 0 1 .944.936l.001.001-1.289.357zm-6.57.316c-1.5 0-1.5 2.252 0 2.252h1.798c1.5 0 1.5-2.252 0-2.252zm0 4.502a1.126 1.126 0 0 0 0 2.252h11.26a1.126 1.126 0 0 0 0-2.252z" fill="url(#d)"/>
</svg>
