<svg version="1.1" viewBox="0 0 64 64" xmlns="http://www.w3.org/2000/svg">
 <defs>
  <linearGradient id="a" x2="0" y2="1">
   <stop stop-color="#0072ff" offset="0"/>
   <stop stop-color="#43e97b" offset="1"/>
  </linearGradient>
 </defs>
 <path transform="translate(.000446 -8e-5) scale(1) translate(-.003 -.001) scale(.9999)" d="M12.18 5c-1.318-.004-2.632.045-3.929.288-4.547.943-8.134 4.879-8.214 9.19-.058 11.26.004 22.53-.032 33.8-.027 1.665.162 3.367.945 4.886 1.659 3.496 5.669 5.875 9.81 5.834 14.31-.004 28.63.033 42.94-.016 5.406-.082 10.21-4.476 10.27-9.463.044-6.741.014-13.48.014-20.21.16-1.29-.904-2.574-2.326-2.661-1.45-.177-2.883.965-2.847 2.32-.05 6.028-.01 12.06-.018 18.09-.027 1.412.174 2.91-.528 4.224-.876 1.75-2.889 2.96-4.99 2.952-13.58.025-27.16-.005-40.74.016-1.292-.009-2.643.083-3.859-.395-2.043-.758-3.486-2.702-3.45-4.736-.022-10.86.008-21.7-.014-32.56.009-1.29-.108-2.657.55-3.847.956-1.878 3.202-3.062 5.446-2.927 3.264.07 6.549-.136 9.804.103 2.347 1.017 3.668 3.297 5.653 4.784 1.623 1.355 3.804 2.101 5.99 2.113 9.55.008 19.1.054 28.65.042 1.225.074 2.4-.755 2.629-1.871.415-1.441-.983-2.985-2.601-2.857-9.402-.054-18.81-.066-28.21-.066-.97.017-1.971-.19-2.744-.742-2.102-1.647-3.65-3.875-6.002-5.246-2.468-1.42-5.486-.938-8.24-1.016-1.312.04-2.634-.016-3.952-.02z" fill="url(#a)"/>
 <path transform="translate(.000446 -8e-5) scale(1)" d="M29.81 21.14c-6.784 0-6.933 4.53-8.894 7.577 2.402-1.133 5.08-2.099 7.971-2.845a46 46 0 0 1 7.851-1.33c-1.633-1.328-2.771-3.4-6.928-3.4zm9.312 6.488c-2.992.056-6.236.518-9.434 1.346-10.54 2.72-18.05 8.644-16.78 13.23.733 2.617 4.273 4.989 9.543 5.301-.002-.018-.008-.036-.01-.054v-.008c-.005-.046-.02-.087-.028-.133-.308-2.797 1.292-4.965 3.129-6.495 1.838-1.53 4.196-2.634 6.868-3.23 1.294-.29 2.603-.436 4.208-.416 1.606.019 3.384.378 4.95 1.267 1.289.73 2.47 2.002 2.973 3.576 4.81-2.94 7.298-6.9 6.54-9.665-.843-3.035-5.428-4.842-11.96-4.715zm-2.864 12.74a13.8 13.8 0 0 0-3.153.343c-4.414.985-7.776 3.78-7.505 6.246.272 2.466 4.073 3.662 8.49 2.68 4.417-.987 7.772-3.78 7.5-6.247-.197-1.792-2.297-2.985-5.332-3.023z" fill="url(#a)"/>
</svg>
