<svg version="1.1" viewBox="0 0 64 64" xmlns="http://www.w3.org/2000/svg" xmlns:xlink="http://www.w3.org/1999/xlink">
 <defs>
  <linearGradient id="a" x2="0" y1="1">
   <stop stop-color="#d800bd" offset="0"/>
   <stop stop-color="#f92d7a" offset=".408"/>
   <stop stop-color="#ff4a52" offset=".59"/>
   <stop stop-color="#ffb243" offset="1"/>
  </linearGradient>
  <linearGradient id="d" x1="9.489" x2="9.489" y1="93.15" y2="78.87" gradientTransform="matrix(.9516 0 0 .257 16.17 19.7)" gradientUnits="userSpaceOnUse" xlink:href="#a"/>
  <linearGradient id="c" x1=".5345" x2=".5345" y1="63.47" y2=".8359" gradientTransform="matrix(.4969 0 0 .4923 16.17 19.7)" gradientUnits="userSpaceOnUse" xlink:href="#a"/>
  <linearGradient id="b" x1="-.0005747" x2="-.0005747" y1="67.36" y2="30.57" gradientTransform="matrix(.8606 0 0 .2842 16.17 19.7)" gradientUnits="userSpaceOnUse" xlink:href="#a"/>
  <linearGradient id="e" x1="18.4" x2="18.4" y1="138.3" y2="-27.29" gradientTransform="matrix(.8606 0 0 .2842 16.17 19.7)" gradientUnits="userSpaceOnUse" xlink:href="#a"/>
 </defs>
 <path transform="translate(5e-4 -5e-5) scale(1) translate(-.003808 .00097) scale(.9999)" d="m12.18 4.998c-1.318-4e-3 -2.631 0.04605-3.928 0.2891-4.546 0.9429-8.135 4.876-8.215 9.188-0.05799 11.26 0.004746 22.53-0.03125 33.8-0.027 1.665 0.1624 3.368 0.9453 4.887 1.659 3.496 5.668 5.873 9.809 5.832 14.31-4e-3 28.63 0.03337 42.94-0.01563 5.406-0.08199 10.21-4.474 10.27-9.461 0.044-6.74 0.01367-13.48 0.01367-20.21 0.16-1.29-0.9045-2.573-2.326-2.66-1.45-0.177-2.882 0.9657-2.846 2.32-0.05 6.027-0.01153 12.06-0.01953 18.09-0.027 1.412 0.1746 2.909-0.5273 4.223-0.8759 1.75-2.888 2.961-4.988 2.953-13.58 0.025-27.16-0.0054-40.74 0.01563-1.292-9e-3 -2.644 0.08149-3.859-0.3965-2.043-0.7579-3.485-2.701-3.449-4.734-0.022-10.86 0.00833-21.7-0.01367-32.56 9e-3 -1.29-0.1091-2.658 0.5488-3.848 0.9559-1.878 3.202-3.061 5.445-2.926 3.264 0.06999 6.55-0.1355 9.805 0.1035 2.347 1.017 3.668 3.296 5.652 4.783 1.623 1.355 3.802 2.101 5.988 2.113 9.549 8e-3 19.1 0.05301 28.65 0.04102 1.225 0.07399 2.4-0.7553 2.629-1.871 0.415-1.441-0.9814-2.985-2.6-2.857-9.401-0.05399-18.81-0.06641-28.21-0.06641-0.9699 0.017-1.971-0.1902-2.744-0.7422-2.102-1.647-3.65-3.873-6.002-5.244-2.468-1.42-5.485-0.9392-8.238-1.018-1.312 0.04-2.633-0.01553-3.951-0.01953z" fill="url(#e)" stroke-width=".4946"/>
 <path transform="translate(5e-4 -5e-5) scale(1)" d="m26.11 39.97-0.911 1.321q3.362 2.349 6.795 2.349 3.436 0 6.795-2.349l-0.91-1.321q-2.952 2.055-5.885 2.055c-2.934 4.94e-4 -3.919-0.6855-5.885-2.055z" fill="url(#d)" stroke-width=".4946"/>
 <path transform="translate(5e-4 -5e-5) scale(1)" d="m32 20.11q-3.347 0-6.187 1.152-2.84 1.152-4.94 3.237a14.74 14.74 0 0 0-2.887 4.05q-0.2003 0.4154-0.3798 0.8457a14.84 14.84 0 0 0-0.6152 1.807q-0.5514 2.041-0.5514 4.321 0 3.317 1.167 6.132 1.167 2.812 3.266 4.896 2.1 2.084 4.94 3.237 2.841 1.152 6.187 1.152c3.346 0 4.295-0.3843 6.187-1.152q2.841-1.152 4.94-3.237 2.099-2.085 3.267-4.896 1.167-2.811 1.167-6.132 0-2.28-0.5519-4.321a14.84 14.84 0 0 0-0.6152-1.807 15.83 15.83 0 0 0-0.3793-0.8457 14.74 14.74 0 0 0-2.887-4.05q-2.099-2.084-4.94-3.237-2.842-1.152-6.187-1.152zm0 1.614q2.98 0 5.499 1.036 2.518 1.035 4.375 2.892a13.01 13.01 0 0 1 2.119 2.784 13.85 13.85 0 0 1 0.7725 1.591q1.035 2.517 1.035 5.499 4.94e-4 0.6301-0.04649 1.24-0.1731 2.262-0.9881 4.25-1.035 2.525-2.892 4.382c-1.858 1.857-2.697 2.202-4.375 2.893q-2.516 1.035-5.499 1.036h-9.89e-4q-2.965 0-5.49-1.036-2.526-1.035-4.382-2.892-1.857-1.857-2.893-4.382-0.815-1.989-0.9881-4.25a16.32 16.32 0 0 1-0.04698-1.24q0-2.98 1.036-5.499 0.3412-0.8313 0.7735-1.591a12.96 12.96 0 0 1 2.126-2.784q1.864-1.856 4.382-2.892c1.679-0.6899 3.506-1.036 5.485-1.036z" fill="url(#c)" stroke-width=".4946"/>
 <path transform="translate(5e-4 -5e-5) scale(1)" d="m22.16 28.39q-0.998 0-2.155 0.0455a13.85 13.85 0 0 0-0.7735 1.591q-1.035 2.517-1.036 5.499 0 0.6301 0.04748 1.24 0.6034 0.9446 1.649 1.431 1.387 0.6459 3.736 0.6464 2.363 0 3.92-0.998 1.556-0.9985 2.099-2.849l0.1469-0.4995q0.543-1.835 0.9911-2.466 0.4476-0.6315 1.211-0.6315c0.7636 0 0.913 0.2107 1.211 0.6315q0.4476 0.6306 0.9911 2.466l0.1469 0.4995q0.5425 1.85 2.107 2.849 1.563 0.9985 3.912 0.998c2.349-4.95e-4 2.811-0.2156 3.736-0.6464q1.045-0.4861 1.649-1.431 0.04599-0.6103 0.04599-1.24 4.94e-4 -2.98-1.035-5.499a13.85 13.85 0 0 0-0.7725-1.591q-1.157-0.04599-2.156-0.0455-1.937 0-3.707 0.1103-1.769 0.1098-3.31 0.2201c-1.541 0.1103-1.968 0.1103-2.819 0.1103q-1.909 0-4.411-0.2206-2.503-0.2201-5.425-0.2201zm-4.179 0.1602a42.53 42.53 0 0 0-1.811 0.1771v2.158q0.5623 0.06578 0.816 0.3175a14.84 14.84 0 0 1 0.6152-1.807q0.1785-0.4308 0.3798-0.8452zm28.03 0q0.2003 0.4139 0.3798 0.8457a14.84 14.84 0 0 1 0.6152 1.807q0.2537-0.2522 0.816-0.3175v-2.158a42.53 42.53 0 0 0-1.811-0.1771zm-23.7 1.512q0.2938 0 0.4995 0.2127 0.2052 0.2127 0.2047 0.5218 0 0.4847-0.5138 0.7196-0.6602 0.3076-0.7774 1.204-0.1029 0.7047-0.7784 0.7052-0.6894 0-0.6894-0.7052 0-0.6454 0.3081-1.255 0.3086-0.6098 0.7854-1.006 0.4772-0.3956 0.9619-0.3956zm15.56 0q0.2938 0 0.4995 0.2136 0.2052 0.2127 0.2047 0.5208 0 0.4847-0.5138 0.7196-0.6602 0.3076-0.7774 1.204-0.1034 0.7047-0.7784 0.7052-0.6899 0-0.6894-0.7052 0-0.6454 0.3081-1.255 0.3086-0.6098 0.7854-1.005 0.4772-0.3966 0.9619-0.3971z" fill="url(#b)" stroke-width=".4946"/>
</svg>
