<svg version="1.1" viewBox="0 0 64 64" xmlns="http://www.w3.org/2000/svg" xmlns:xlink="http://www.w3.org/1999/xlink">
 <defs>
  <linearGradient id="a" x1="1" x2="0" y1="1">
   <stop stop-color="#ff0073" offset="0"/>
   <stop stop-color="#5a00ff" offset="1"/>
  </linearGradient>
  <linearGradient id="b" y1=".5" y2=".5">
   <stop stop-color="#f0f" offset="0"/>
   <stop stop-color="#ff0080" offset="1"/>
  </linearGradient>
  <linearGradient id="c" x1="20.31" x2="10.32" y1="14.04" y2="4.057" gradientTransform="matrix(1.241 0 0 2.404 13 16.53)" gradientUnits="userSpaceOnUse" xlink:href="#a"/>
  <linearGradient id="f" x1="9.335" x2="20.37" y1="9.332" y2="9.332" gradientTransform="matrix(1.279 0 0 2.332 13 16.53)" gradientUnits="userSpaceOnUse" xlink:href="#b"/>
  <linearGradient id="e" x1="17.49" x2=".201" y1="20.33" y2="3.045" gradientTransform="matrix(2.147 0 0 1.389 13 16.53)" gradientUnits="userSpaceOnUse" xlink:href="#a"/>
  <linearGradient id="d" x1="-.2027" x2="18.11" y1="11.55" y2="11.55" gradientTransform="matrix(2.122 0 0 1.406 13 16.53)" gradientUnits="userSpaceOnUse" xlink:href="#b"/>
  <linearGradient id="g" y1=".5" y2=".5">
   <stop stop-color="#ff0073" offset="0"/>
   <stop stop-color="#5a00ff" offset="1"/>
  </linearGradient>
 </defs>
 <path transform="translate(5e-4 -5e-5) scale(1) translate(-.003808 .00097) scale(.9999)" d="m12.18 4.998c-1.318-4e-3 -2.631 0.04605-3.928 0.2891-4.546 0.9429-8.135 4.876-8.215 9.188-0.05799 11.26 0.004746 22.53-0.03125 33.8-0.027 1.665 0.1624 3.368 0.9453 4.887 1.659 3.496 5.668 5.873 9.809 5.832 14.31-4e-3 28.63 0.03337 42.94-0.01563 5.406-0.08199 10.21-4.474 10.27-9.461 0.044-6.74 0.01367-13.48 0.01367-20.21 0.16-1.29-0.9045-2.573-2.326-2.66-1.45-0.177-2.882 0.9657-2.846 2.32-0.05 6.027-0.01153 12.06-0.01953 18.09-0.027 1.412 0.1746 2.909-0.5273 4.223-0.8759 1.75-2.888 2.961-4.988 2.953-13.58 0.025-27.16-0.0054-40.74 0.01563-1.292-9e-3 -2.644 0.08149-3.859-0.3965-2.043-0.7579-3.485-2.701-3.449-4.734-0.022-10.86 0.00833-21.7-0.01367-32.56 9e-3 -1.29-0.1091-2.658 0.5488-3.848 0.9559-1.878 3.202-3.061 5.445-2.926 3.264 0.06999 6.55-0.1355 9.805 0.1035 2.347 1.017 3.668 3.296 5.652 4.783 1.623 1.355 3.802 2.101 5.988 2.113 9.549 8e-3 19.1 0.05301 28.65 0.04102 1.225 0.07399 2.4-0.7553 2.629-1.871 0.415-1.441-0.9814-2.985-2.6-2.857-9.401-0.05399-18.81-0.06641-28.21-0.06641-0.9699 0.017-1.971-0.1902-2.744-0.7422-2.102-1.647-3.65-3.873-6.002-5.244-2.468-1.42-5.485-0.9392-8.238-1.018-1.312 0.04-2.633-0.01553-3.951-0.01953z" fill="url(#g)"/>
 <path transform="translate(5e-4 -5e-5) scale(1)" d="m32 26.28c-2.784 0-4.993 2.012-5.772 4.665h2.236c0.9745 0 1.762 0.8234 1.762 1.812 0 0.9878-0.7846 1.815-1.762 1.815h-2.658v1.896h2.658c0.9761 0 1.762 0.8302 1.762 1.819 0 0.988-0.7861 1.812-1.762 1.812h-2.269c0.6559 2.261 2.338 4.062 4.57 4.533a0.4317 0.4317 0 0 1 0.344 0.4216v4.286c0 0.5395 0.4013 0.9478 0.8904 0.9478 0.4891 0 0.8939-0.4084 0.8939-0.9478v-4.286a0.4317 0.4317 0 0 1 0.3407-0.4216c2.23-0.472 3.91-2.274 4.568-4.533h-4.034c-0.9745 0-1.758-0.8248-1.758-1.812 0-0.9864 0.7813-1.819 1.758-1.819h4.428v-1.896h-4.428c-0.9761 0-1.758-0.8283-1.758-1.815 0-0.9866 0.7827-1.812 1.758-1.812h4.003c-0.7794-2.653-2.986-4.665-5.772-4.665z" fill="url(#c)" stop-color="#000000" stroke-linecap="round" stroke-linejoin="round" stroke-width=".9779"/>
 <path transform="translate(5e-4 -5e-5) scale(1)" d="m32 25.42c-3.419 0-6.264 2.532-6.915 5.875a0.4317 0.4317 0 0 0 0.4216 0.5127h2.958c0.4891 0 0.8972 0.4096 0.8972 0.9478 0 0.5378-0.4095 0.9512-0.8972 0.9512h-3.09a0.4317 0.4317 0 0 0-0.4317 0.4352v2.76a0.4317 0.4317 0 0 0 0.4317 0.4317h3.09c0.4877 0 0.8972 0.4133 0.8972 0.9512 0 0.5381-0.4081 0.9478-0.8972 0.9478h-2.958a0.4317 0.4317 0 0 0-0.4216 0.516c0.5321 2.734 2.577 4.827 5.16 5.535v4.055c0 0.9866 0.7794 1.812 1.755 1.812s1.758-0.8248 1.758-1.812v-4.055c2.582-0.7103 4.628-2.803 5.16-5.535a0.4317 0.4317 0 0 0-0.425-0.516h-4.725c-0.4891 0-0.8904-0.4084-0.8904-0.9478 0-0.5392 0.4027-0.9512 0.8904-0.9512h4.863a0.4317 0.4317 0 0 0 0.4283-0.4317v-2.76a0.4317 0.4317 0 0 0-0.4283-0.4352h-4.863c-0.4877 0-0.8904-0.4119-0.8904-0.9512 0-0.5395 0.4013-0.9478 0.8904-0.9478h4.725a0.4317 0.4317 0 0 0 0.425-0.5127c-0.6511-3.343-3.499-5.875-6.918-5.875zm0 0.86c2.784 0 4.993 2.012 5.772 4.665h-4.003c-0.9745 0-1.758 0.8248-1.758 1.812 0 0.9864 0.7813 1.815 1.758 1.815h4.428v1.896h-4.428c-0.9761 0-1.758 0.8315-1.758 1.819 0 0.9866 0.7827 1.812 1.758 1.812h4.034c-0.6576 2.259-2.337 4.062-4.568 4.533a0.4317 0.4317 0 0 0-0.3407 0.4216v4.286c0 0.5395-0.4046 0.9478-0.8939 0.9478s-0.8904-0.4084-0.8904-0.9478v-4.286a0.4317 0.4317 0 0 0-0.344-0.4216c-2.231-0.4718-3.915-2.273-4.57-4.533h2.269c0.9745 0 1.762-0.8234 1.762-1.812 0-0.9878-0.7846-1.819-1.762-1.819h-2.658v-1.896h2.658c0.9761 0 1.762-0.8269 1.762-1.815 0-0.988-0.7861-1.812-1.762-1.812h-2.236c0.779-2.653 2.986-4.665 5.772-4.665z" fill="url(#f)" stop-color="#000000" stroke-linecap="round" stroke-linejoin="round" stroke-width=".9779"/>
 <path transform="translate(5e-4 -5e-5) scale(1)" d="m32 20.76c-6.091 0-11.08 4.939-11.47 11.21a0.4317 0.4317 0 0 1-0.6374 0.3542c-0.6079-0.3286-1.294-0.5127-2.027-0.5127-2.44 0-4.428 2.06-4.428 4.635v3.684c0 2.573 1.988 4.639 4.428 4.639 0.07203 0 0.1531-0.0081 0.2463-0.01347a0.4317 0.4317 0 0 1 0.03036 0.01347c2.29-0.0016 4.152-1.938 4.152-4.354v-7.654c0-5.564 4.342-10.1 9.707-10.1 5.366-1e-6 9.704 4.533 9.704 10.1v7.654c0 2.414 1.867 4.352 4.155 4.354a0.4317 0.4317 0 0 1 0.03036-0.01347c0.09317 0.0054 0.1739 0.01347 0.2463 0.01347 2.44 0 4.428-2.064 4.428-4.639v-3.684c2e-6 -2.573-1.988-4.635-4.428-4.635-0.7333 0-1.422 0.1839-2.031 0.5127a0.4317 0.4317 0 0 1-0.6341-0.3542c-0.3896-6.272-5.38-11.21-11.47-11.21z" fill="url(#e)" stop-color="#000000" stroke-linecap="round" stroke-linejoin="round" stroke-width=".9779"/>
 <path transform="translate(5e-4 -5e-5) scale(1)" d="m32 19.9c-6.39 0-11.56 5.081-12.21 11.54-0.6082-0.2525-1.232-0.4891-1.926-0.4891-2.927 0-5.291 2.476-5.291 5.499v3.684c0 3.022 2.364 5.502 5.291 5.502 0.09645 0 0.1779-9e-3 0.2563-0.01347a0.4317 0.4317 0 0 0 0.01687 0.01347c2.777 0 5.019-2.352 5.019-5.217v-7.654c0-5.117 3.963-9.236 8.844-9.236 4.88 0 8.844 4.117 8.844 9.236v7.654c0 2.865 2.242 5.217 5.019 5.217a0.4317 0.4317 0 0 0 0.01347-0.01019c0.07847 0.0045 0.163 0.01019 0.2597 0.01019 2.927 0 5.29-2.48 5.288-5.502v-3.684c0-3.022-2.363-5.499-5.288-5.499-0.6923 0-1.318 0.234-1.926 0.4856-0.6516-6.455-5.822-11.54-12.21-11.54zm0 0.86c6.091 0 11.08 4.939 11.47 11.21a0.4317 0.4317 0 0 0 0.6341 0.3542c0.6086-0.3288 1.297-0.5127 2.031-0.5127 2.44 0 4.428 2.06 4.428 4.635v3.684c0 2.573-1.988 4.639-4.428 4.639-0.07226 0-0.1531-0.0081-0.2463-0.01347a0.4317 0.4317 0 0 0-0.03036 0.01347c-2.29-0.0017-4.155-1.939-4.155-4.354v-7.654c0-5.564-4.338-10.1-9.704-10.1-5.366 0-9.707 4.533-9.707 10.1v7.654c0 2.418-1.863 4.354-4.152 4.354a0.4317 0.4317 0 0 0-0.03036-0.01347c-0.0931 0.0054-0.1743 0.01347-0.2463 0.01347-2.44 0-4.428-2.064-4.428-4.639v-3.684c0-2.573 1.988-4.635 4.428-4.635 0.7336 0 1.419 0.1839 2.027 0.5127a0.4317 0.4317 0 0 0 0.6374-0.3542c0.3894-6.272 5.38-11.21 11.47-11.21z" fill="url(#d)" stop-color="#000000" stroke-linecap="round" stroke-linejoin="round" stroke-width=".9779"/>
</svg>
