<svg version="1.1" viewBox="0 0 64 64" xmlns="http://www.w3.org/2000/svg">
 <defs>
  <linearGradient id="a" y1=".5" y2=".5">
   <stop stop-color="#5433ff" offset="0"/>
   <stop stop-color="#20bdff" offset=".5"/>
   <stop stop-color="#a5fecb" offset="1"/>
  </linearGradient>
 </defs>
 <path transform="translate(0) scale(1) translate(0) scale(1) translate(0) scale(1) translate(-.003499 .003499) scale(.9998) translate(.00019 .00142) scale(1)" d="m12.18 4.998c-1.318-4e-3 -2.631 0.04604-3.928 0.2891-4.546 0.9428-8.135 4.876-8.215 9.188-0.05798 11.26 0.004742 22.53-0.03125 33.8-0.027 1.665 0.1625 3.368 0.9453 4.887 1.659 3.496 5.668 5.871 9.809 5.83 14.31-4e-3 28.63 0.03337 42.94-0.01563 5.406-0.08198 10.21-4.472 10.27-9.459 0.044-6.739 0.01367-13.48 0.01367-20.21 0.16-1.29-0.9048-2.571-2.326-2.658-1.45-0.177-2.882 0.9642-2.846 2.318-0.05 6.026-0.01153 12.06-0.01953 18.09-0.027 1.412 0.1745 2.909-0.5273 4.223-0.8758 1.75-2.888 2.961-4.988 2.953-13.58 0.025-27.16-0.0054-40.73 0.01563-1.292-9e-3 -2.644 0.08146-3.859-0.3965-2.043-0.7578-3.485-2.7-3.449-4.732-0.022-10.86 0.008326-21.7-0.01367-32.56 0.008999-1.29-0.109-2.658 0.5488-3.848 0.9558-1.878 3.202-3.061 5.445-2.926 3.264 0.06998 6.548-0.1355 9.803 0.1035 2.347 1.017 3.668 3.294 5.652 4.781 1.623 1.355 3.8 2.101 5.986 2.113 9.548 8e-3 19.1 0.053 28.65 0.04102 1.225 0.07398 2.4-0.7555 2.629-1.871 0.415-1.441-0.9812-2.984-2.6-2.856-9.4-0.05398-18.81-0.06641-28.21-0.06641-0.9698 0.017-1.971-0.1902-2.744-0.7422-2.102-1.647-3.65-3.873-6.002-5.244-2.468-1.42-5.484-0.9388-8.236-1.018-1.312 0.04-2.633-0.01553-3.951-0.01953z" fill="url(#a)"/>
 <path transform="translate(0) scale(1) translate(0) scale(1) translate(0) scale(1) translate(-.003499 .003499) scale(.9998) translate(.00019 .00142) scale(1)" d="m33.02 21.38-0.0039 0.0059c-3.186 0-5.756 1.042-7.746 2.604-0.5943 0.4662-1.14 0.9746-1.646 1.51-7.892-0.4126-13.93 7.238-11.62 14.85 1.472 4.851 5.959 8.18 11.03 8.18h19.98c3.829-4.4e-5 7.289-2.311 8.754-5.848v-2e-3c1.996-4.817-0.3098-10.39-5.127-12.38-0.2554-0.1058-0.5283-0.1555-0.791-0.2383-2.091-5.203-7.126-8.641-12.74-8.676a1.537 1.537 0 0 0-0.08984-0.0039zm-0.0039 3.08c3.816 1.37e-4 7.278 2.013 9.201 5.205-2.521 0.2081-4.569 1.323-6.088 2.852-1.681 1.69-2.869 3.779-4.047 5.754-1.178 1.974-2.341 3.829-3.734 5.117-1.392 1.288-2.932 2.072-5.316 2.072-3.278-5.9e-5 -6.208-1.877-7.604-4.754 3.751-1.861 5.592-6.052 7.76-9.496 1.187-1.889 2.448-3.602 3.978-4.803s3.304-1.947 5.85-1.947zm-11.91 4.305c-0.177 0.2693-0.35 0.5389-0.5195 0.8086-2.123 3.379-3.803 6.561-5.994 8.047-0.3361-4.187 2.485-7.945 6.514-8.856zm21.9 3.885v0.0039c0.8408 2.3e-5 1.674 0.1666 2.451 0.4883 3.283 1.36 4.825 5.081 3.465 8.365-0.9927 2.397-3.322 3.951-5.916 3.951h-12.4c1.726-1.659 2.96-3.687 4.109-5.615 1.191-1.995 2.307-3.876 3.588-5.164 1.28-1.287 2.607-2.027 4.697-2.027z" fill="url(#a)"/>
</svg>
