<svg version="1.1" viewBox="0 0 64 64" xmlns="http://www.w3.org/2000/svg" xmlns:xlink="http://www.w3.org/1999/xlink">
 <defs>
  <linearGradient id="d" x1="474.3" x2="469.8" y1="538.8" y2="548.3" gradientTransform="matrix(2.419 0 0 2.411 -1107 -1277)" gradientUnits="userSpaceOnUse" xlink:href="#a"/>
  <linearGradient id="a" x1="477.4" x2="464.4" y1="537.7" y2="550.7" gradientTransform="matrix(4.915 0 0 4.899 -2282 -2634)" gradientUnits="userSpaceOnUse">
   <stop stop-color="#d800bd" offset="0"/>
   <stop stop-color="#f92d7a" offset=".408"/>
   <stop stop-color="#ff4a52" offset=".59"/>
   <stop stop-color="#ffb243" offset="1"/>
  </linearGradient>
  <linearGradient id="b" x1="483.6" x2="459.7" y1="534.6" y2="553.3" gradientTransform="matrix(2.419 0 0 2.411 -1107 -1277)" gradientUnits="userSpaceOnUse" xlink:href="#a"/>
 </defs>
 <g transform="translate(-.000323 1e-5) scale(1)" stroke-width="2.415">
  <path transform="translate(.002 -.001)scale(.9999)" d="M8.271 5.279c2.575-.478 5.222-.177 7.828-.26 2.682.095 5.584-.407 8.029.894 2.495 1.342 4.073 3.677 6.241 5.378.778.523 1.753.762 2.714.733 9.241 0 18.48 0 27.72.037 1.256-.136 2.669.437 3.04 1.622.644 1.52-.827 3.282-2.575 3.142-9.527.008-19.06-.033-28.59-.05-2.307.005-4.605-.823-6.268-2.301-1.449-1.29-2.768-2.697-4.216-3.978-.662-.58-1.6-.766-2.49-.725-3.071.025-6.147-.02-9.219.02-2.888.067-5.378 2.5-5.293 5.16 0 11.39-.009 22.77-.004 34.16-.072 2.727 2.589 5.177 5.553 5.116 14.16.008 28.33.008 42.49-.004 2.964.053 5.629-2.413 5.53-5.152.009-6.445.004-12.89-.005-19.33.014-.754-.013-1.598.559-2.207.925-1.161 3.013-1.227 4.01-.112.653.61.653 1.511.648 2.31-.031 6.606.023 13.21-.027 19.82-.085 4.98-4.886 9.344-10.27 9.426-14.31.037-28.62.021-42.93.009-4.135.04-8.146-2.335-9.8-5.831-.791-1.524-.96-3.237-.947-4.9.035-11.26-.036-22.52.026-33.77.085-4.324 3.68-8.27 8.244-9.204z" fill="url(#b)" style="-inkscape-stroke:none;font-variation-settings:normal"/>
  <path d="M35.279 41.685c-.759 0-.788 1.215-.788 2.606 0 1.393.13 2.605.828 2.605.695 0 .828-1.248.828-2.64h.003c0-1.393-.116-2.571-.871-2.571M28.69 41.685c-.757 0-.872 1.179-.872 2.572h.002c0 1.39.132 2.64.828 2.64.698 0 .828-1.213.828-2.606 0-1.391-.028-2.606-.787-2.606" fill="#f6be00"/>
  <path transform="translate(.002 -.001)scale(.9999)" d="M31.98 19.82c-10.95 0-15.75 10.61-15.75 16.41 0 5.804 3.57 8.105 6.267 9.1.362 4.263 3.652 5.883 9.482 5.883 5.828 0 9.12-1.62 9.482-5.883 2.698-.995 6.267-3.297 6.267-9.1 0-5.806-4.799-16.41-15.75-16.41zm-.002 2.328c4.101 0 7.424 3.222 7.424 7.197s-3.323 7.197-7.424 7.197-7.425-3.222-7.425-7.197 3.324-7.197 7.425-7.197m-11.94 5.758c1.311 3.847-.007 9.046-2.328 10.88-.184-.739-.287-1.581-.287-2.552l-.003-.003c0-2.22.848-5.455 2.618-8.324zm23.88.004c1.772 2.869 2.618 6.102 2.618 8.324 0 .97-.104 1.813-.287 2.552-2.318-1.832-3.637-7.031-2.33-10.88zm-11.93 12.46c5.44 0 8.103 2.195 8.685 3.009.027 1.432-.256 3.57-1.33 4.734-1.442 1.563-4.642 1.903-7.355 1.903s-5.909-.34-7.354-1.903c-1.075-1.162-1.358-3.3-1.33-4.734.579-.814 3.245-3.01 8.684-3.01" fill="url(#d)"/>
 </g>
</svg>
