<svg version="1.1" viewBox="0 0 64 64" xmlns="http://www.w3.org/2000/svg">
 <defs>
  <linearGradient id="a" x1="2.149" x2="46.47" y1="45.85" y2="1.535" gradientTransform="matrix(-.6575 0 0 .6742 47.98 19.54)" gradientUnits="userSpaceOnUse">
   <stop stop-color="#00ff87" offset="0"/>
   <stop stop-color="#60efff" offset="1"/>
  </linearGradient>
  <linearGradient id="b" x2="0" y1="1">
   <stop stop-color="#00ff87" offset="0"/>
   <stop stop-color="#60efff" offset="1"/>
  </linearGradient>
 </defs>
 <path transform="translate(5e-4 -5e-5) scale(1) translate(-.003808 .00097) scale(.9999)" d="m12.18 4.998c-1.318-4e-3 -2.631 0.04605-3.928 0.2891-4.546 0.9429-8.135 4.876-8.215 9.188-0.05799 11.26 0.004746 22.53-0.03125 33.8-0.027 1.665 0.1624 3.368 0.9453 4.887 1.659 3.496 5.668 5.873 9.809 5.832 14.31-4e-3 28.63 0.03337 42.94-0.01563 5.406-0.08199 10.21-4.474 10.27-9.461 0.044-6.74 0.01367-13.48 0.01367-20.21 0.16-1.29-0.9045-2.573-2.326-2.66-1.45-0.177-2.882 0.9657-2.846 2.32-0.05 6.027-0.01153 12.06-0.01953 18.09-0.027 1.412 0.1746 2.909-0.5273 4.223-0.8759 1.75-2.888 2.961-4.988 2.953-13.58 0.025-27.16-0.0054-40.74 0.01563-1.292-9e-3 -2.644 0.08149-3.859-0.3965-2.043-0.7579-3.485-2.701-3.449-4.734-0.022-10.86 0.00833-21.7-0.01367-32.56 9e-3 -1.29-0.1091-2.658 0.5488-3.848 0.9559-1.878 3.202-3.061 5.445-2.926 3.264 0.06999 6.55-0.1355 9.805 0.1035 2.347 1.017 3.668 3.296 5.652 4.783 1.623 1.355 3.802 2.101 5.988 2.113 9.549 8e-3 19.1 0.05301 28.65 0.04102 1.225 0.07399 2.4-0.7553 2.629-1.871 0.415-1.441-0.9814-2.985-2.6-2.857-9.401-0.05399-18.81-0.06641-28.21-0.06641-0.9699 0.017-1.971-0.1902-2.744-0.7422-2.102-1.647-3.65-3.873-6.002-5.244-2.468-1.42-5.485-0.9392-8.238-1.018-1.312 0.04-2.633-0.01553-3.951-0.01953z" fill="url(#b)"/>
 <path transform="translate(5e-4 -5e-5) scale(1)" d="m32.34 37.39a1.005 1.005 0 0 1 1.381 0.3029 0.9956 0.9956 0 0 1-0.3015 1.377 8.285 8.285 0 0 1-2.505 1.078 8.34 8.34 0 0 1-6.298-0.9535 8.34 8.34 0 0 1-3.779-5.129 8.34 8.34 0 0 1 0.9535-6.298 8.34 8.34 0 0 1 5.129-3.779 8.34 8.34 0 0 1 6.298 0.9535 8.34 8.34 0 0 1 3.779 5.129q0.2363 0.944 0.2418 1.923a0.9956 0.9956 0 0 1-0.9848 1.008 1.005 1.005 0 0 1-1.012-0.9875 6.33 6.33 0 0 0-3.056-5.362 6.33 6.33 0 0 0-4.787-0.724 6.33 6.33 0 0 0-3.9 2.87 6.33 6.33 0 0 0 2.146 8.688 6.33 6.33 0 0 0 6.691-0.09507m2.323-2.674a0.9956 0.9956 0 0 1 1.324-0.4849 0.9983 0.9983 0 0 1 0.489 1.327 8.15 8.15 0 0 1-0.4998 0.9182 0.9997 0.9997 0 1 1-1.695-1.055 5.433 5.433 0 0 0 0.3817-0.7049m-11.8-9.515a1.165 1.165 0 0 1-1.546-1.744 11.5 11.5 0 0 1 7.604-2.877c3.043 0 5.966 1.212 8.124 3.363a11.52 11.52 0 0 1 3.363 8.124c0 3.043-1.212 5.966-3.363 8.124a11.52 11.52 0 0 1-8.122 3.363c-3.029 0-5.941-1.198-8.091-3.328-2.15-2.13-3.369-5.035-3.396-8.064a1.168 1.168 0 0 1 1.159-1.175 1.163 1.163 0 0 1 1.172 1.155 9.141 9.141 0 0 0 2.71 6.426 9.128 9.128 0 0 0 6.445 2.657c2.43 0 4.761-0.9644 6.472-2.684a9.141 9.141 0 0 0 2.684-6.472c0-2.43-0.9644-4.761-2.684-6.472a9.141 9.141 0 0 0-6.472-2.684c-2.23 0-4.387 0.819-6.059 2.29m-2.503 3.623a1.168 1.168 0 0 1-2.184-0.8245c0.1657-0.4211 0.3532-0.8394 0.5596-1.239a1.165 1.165 0 1 1 2.065 1.078c-0.1671 0.3192-0.3124 0.652-0.4401 0.9848m18.84 11.95a1.167 1.167 0 0 1 1.725-1.572l4.841 5.338c0.5257 0.5732 0.8123 1.319 0.8123 2.092 0 0.9046-0.3939 1.771-1.078 2.357l-0.8 0.6927a3.215 3.215 0 0 1-4.474-0.2662h-0.0068l-4.841-5.341a1.168 1.168 0 0 1 0.07743-1.648 1.168 1.168 0 0 1 1.648 0.08422l4.841 5.334a0.887 0.887 0 0 0 1.232 0.07335l0.7987-0.6927a0.7742 0.7742 0 0 0 0.2717-0.5936 0.815 0.815 0 0 0-0.1983-0.5257h-0.0068z" fill="url(#a)" fill-rule="evenodd" stroke-width=".9999" style="isolation:isolate"/>
</svg>
