<svg version="1.1" viewBox="0 0 64 64" xmlns="http://www.w3.org/2000/svg">
 <defs>
  <linearGradient id="a" x2="0" y2="1">
   <stop stop-color="#f83d5c" offset="0"/>
   <stop stop-color="#b800ff" offset="1"/>
  </linearGradient>
 </defs>
 <g transform="translate(-0) scale(1) translate(-0) scale(1) translate(.000675 1e-5) scale(1) translate(-.009 -.004) scale(.9999)" fill="url(#a)">
  <path d="M8.272 5.278c2.575-.478 5.222-.177 7.828-.26 2.682.095 5.584-.407 8.029.894 2.495 1.342 4.073 3.677 6.241 5.378.778.523 1.752.762 2.714.733 9.241 0 18.48 0 27.72.037 1.256-.136 2.669.437 3.04 1.622.644 1.52-.827 3.282-2.575 3.142-9.527.008-19.06-.033-28.58-.05-2.307.005-4.605-.823-6.268-2.301-1.449-1.29-2.767-2.697-4.216-3.978-.662-.58-1.6-.766-2.49-.725-3.071.025-6.147-.02-9.218.02-2.888.067-5.378 2.5-5.293 5.16 0 11.39-.009 22.77-.004 34.16-.072 2.727 2.588 5.177 5.552 5.115 14.16.008 28.32.008 42.49-.004 2.964.053 5.628-2.413 5.53-5.152.009-6.445.004-12.89-.005-19.33.014-.754-.013-1.598.559-2.207.925-1.161 3.013-1.227 4.01-.112.653.61.653 1.511.648 2.31-.031 6.605.022 13.21-.027 19.82-.085 4.98-4.886 9.344-10.27 9.426-14.31.037-28.62.021-42.93.009-4.135.04-8.146-2.335-9.8-5.831-.791-1.524-.961-3.237-.948-4.9.036-11.26-.035-22.52.027-33.77.085-4.324 3.68-8.27 8.244-9.204z"/>
  <path d="M21.63 25.88c-7.296 3.072-11.13 7.707-12.29 12.29 3.842-3.842 7.68-5.954 9.409-.768 6.529-2.88 11.71-.768 13.25 6.721 1.536-6.913 6.146-9.984 13.25-6.721 1.344-4.225 4.608-4.225 9.409.768-.96-4.225-4.225-8.833-12.29-12.29l-.96 2.688-7.104 1.728-.768-3.072-.768 1.92-.768.192-.768-.192-.769-1.92-.575 3.072-7.296-1.728-.96-2.688z"/>
 </g>
</svg>
