<svg version="1.1" viewBox="0 0 64 64" xmlns="http://www.w3.org/2000/svg">
 <defs>
  <linearGradient id="a" y1="1">
   <stop stop-color="#ff00e2" offset="0"/>
   <stop stop-color="#00b2ff" offset="1"/>
  </linearGradient>
 </defs>
 <path transform="translate(0) scale(1) translate(0) scale(1) translate(0) scale(1) translate(0) scale(1) translate(-.003499 .00045) scale(.9999) translate(.000191 .00047) scale(1)" d="m12.18 4.998c-1.318-4e-3 -2.631 0.04609-3.928 0.2891-4.546 0.9429-8.135 4.877-8.215 9.188-0.05799 11.26 0.004746 22.53-0.03125 33.8-0.027 1.665 0.1624 3.368 0.9453 4.887 1.659 3.496 5.668 5.873 9.809 5.832 14.31-4e-3 28.63 0.03337 42.94-0.01563 5.406-0.08199 10.21-4.474 10.27-9.461 0.044-6.74 0.01367-13.48 0.01367-20.21 0.16-1.29-0.9043-2.573-2.326-2.66-1.45-0.177-2.882 0.9654-2.846 2.32-0.05 6.027-0.01153 12.06-0.01953 18.09-0.027 1.412 0.1746 2.909-0.5273 4.223-0.8759 1.75-2.888 2.961-4.988 2.953-13.58 0.025-27.16-0.0054-40.74 0.01563-1.292-9e-3 -2.644 0.08147-3.859-0.3965-2.043-0.7579-3.485-2.701-3.449-4.734-0.022-10.86 0.00833-21.7-0.01367-32.56 9e-3 -1.29-0.1091-2.658 0.5488-3.848 0.9559-1.878 3.202-3.061 5.445-2.926 3.264 0.06999 6.55-0.1355 9.805 0.1035 2.347 1.017 3.668 3.296 5.652 4.783 1.623 1.355 3.802 2.101 5.988 2.113 9.549 8e-3 19.1 0.05301 28.65 0.04102 1.225 0.07399 2.4-0.7552 2.629-1.871 0.415-1.441-0.9818-2.984-2.6-2.856-9.401-0.05399-18.81-0.06641-28.21-0.06641-0.9699 0.017-1.971-0.1902-2.744-0.7422-2.102-1.647-3.65-3.875-6.002-5.246-2.468-1.42-5.485-0.9376-8.238-1.016-1.312 0.04-2.633-0.01553-3.951-0.01953z" fill="url(#a)"/>
 <path transform="translate(0) scale(1) translate(0) scale(1) translate(0) scale(1) translate(0) scale(1) translate(-.003499 .00045) scale(.9999)" d="m32 20.42c-3.213 0-6.14 0.6299-8.407 1.761-2.267 1.134-4.106 2.947-4.106 5.34v16.22c0 2.394 1.839 4.208 4.106 5.34 2.263 1.131 5.191 1.761 8.407 1.761 3.215 0 6.14-0.6299 8.407-1.761 2.267-1.134 4.107-2.947 4.107-5.34v-16.22c0-2.394-1.84-4.208-4.107-5.34-2.263-1.131-5.191-1.761-8.407-1.761zm0 3.391c2.756 0 5.245 0.5813 6.89 1.404 1.65 0.8252 2.231 1.764 2.231 2.308 0 0.5445-0.5804 1.483-2.231 2.308-1.646 0.822-4.133 1.405-6.89 1.405s-5.245-0.5822-6.89-1.405c-1.65-0.8252-2.231-1.764-2.231-2.308 0-0.5445 0.5813-1.483 2.231-2.308 1.645-0.8225 4.133-1.404 6.89-1.404zm-9.123 8.609c0.2435 0.1452 0.4573 0.3196 0.7157 0.4488 2.263 1.131 5.191 1.761 8.407 1.761 3.215 0 6.14-0.629 8.407-1.761 0.2584-0.1292 0.4723-0.3036 0.7157-0.4488v3.219c0 0.545-0.5804 1.483-2.231 2.307-1.645 0.8225-4.133 1.405-6.89 1.405s-5.245-0.5822-6.89-1.405c-1.65-0.8252-2.231-1.763-2.231-2.307zm0 8.111c0.2435 0.1452 0.4573 0.3196 0.7157 0.4488 2.263 1.131 5.191 1.761 8.407 1.761 3.213 0 6.14-0.6299 8.407-1.761 0.2584-0.1292 0.4723-0.3036 0.7157-0.4488v3.219c0 0.545-0.5804 1.483-2.231 2.308-1.645 0.8225-4.133 1.405-6.89 1.405s-5.245-0.5822-6.89-1.405c-1.65-0.8252-2.231-1.764-2.231-2.308z" fill="url(#a)" stroke-width=".4541"/>
</svg>
