<svg version="1.1" viewBox="0 0 64 64" xmlns="http://www.w3.org/2000/svg" xmlns:xlink="http://www.w3.org/1999/xlink">
 <defs>
  <linearGradient id="a" x1="8.678" x2="8.443" y1="13.81" y2="4.151" gradientTransform="matrix(1.807 0 0 2.219 16.94 19.47)" gradientUnits="userSpaceOnUse">
   <stop stop-color="#029edb" offset="0"/>
   <stop stop-color="#a6319b" offset=".204"/>
   <stop stop-color="#f31f32" offset=".4"/>
   <stop stop-color="#fc7b04" offset=".59"/>
   <stop stop-color="#fcb604" offset=".8"/>
   <stop stop-color="#36be2d" offset="1"/>
  </linearGradient>
  <linearGradient id="b" x1="8.328" x2="8.328" y1="17.8" y2="-3.398" gradientTransform="matrix(1.807 0 0 2.219 16.94 19.47)" gradientUnits="userSpaceOnUse" xlink:href="#a"/>
 </defs>
 <path transform="translate(-0) scale(1) translate(-0) scale(1) translate(.001467 .005652) scale(1)" d="M12.17 4.994c-1.318-.004-2.632.044-3.928.286-4.545.943-8.13 4.877-8.21 9.187-.058 11.26.005 22.53-.031 33.79-.027 1.663.16 3.364.942 4.884 1.658 3.495 5.667 5.873 9.806 5.831 14.3-.004 28.62.034 42.92-.015 5.403-.083 10.2-4.476 10.27-9.461.045-6.74.013-13.48.013-20.21.161-1.288-.903-2.571-2.325-2.658-1.447-.177-2.882.962-2.846 2.317-.049 6.026-.01 12.05-.018 18.07-.027 1.41.173 2.91-.529 4.222-.876 1.75-2.887 2.96-4.988 2.952-13.57.024-27.15-.005-40.73.015-1.292-.008-2.642.082-3.859-.395-2.042-.758-3.485-2.7-3.449-4.733-.022-10.85.01-21.7-.013-32.55.01-1.288-.107-2.655.55-3.845.956-1.877 3.2-3.062 5.443-2.926 3.263.07 6.547-.138 9.802.101 2.346 1.017 3.665 3.3 5.649 4.785 1.622 1.354 3.804 2.1 5.99 2.111 9.547.008 19.1.054 28.64.042 1.225.074 2.402-.754 2.63-1.87.415-1.44-.986-2.985-2.603-2.857-9.4-.054-18.79-.065-28.2-.065-.97.016-1.97-.19-2.744-.742-2.101-1.646-3.647-3.872-5.998-5.243-2.467-1.421-5.483-.94-8.237-1.018-1.312.039-2.634-.015-3.952-.018z" fill="url(#b)" style="-inkscape-stroke:none;font-variation-settings:normal"/>
 <path class="ColorScheme-Text" transform="translate(-0) scale(1) translate(-0) scale(1) translate(.001467 .005652) scale(1)" d="M40.73 36.49c-.04-4.005 3.31-6.008 3.459-6.008-1.882-2.804-4.814-3.204-5.858-3.204-2.495-.4-4.87 1.402-6.136 1.402-1.262 0-3.216-1.402-5.287-1.402-2.72 0-5.227 1.602-6.629 4.005-2.822 5.007-.719 12.22 2.033 16.22 1.348 1.802 2.952 4.005 5.059 4.005 2.029 0 2.796-1.402 5.249-1.402s3.144 1.402 5.291 1.402c2.183 0 3.567-2.003 4.902-4.005 1.544-2.203 2.181-4.406 2.219-4.606-.048 0-4.258-1.602-4.3-6.408zm-4.035-11.82c1.119-1.402 1.874-3.404 1.668-5.207-1.61 0-3.565 1.001-4.72 2.403-1.035 1.202-1.943 3.204-1.702 5.007 1.8.2 3.635-1.001 4.754-2.203" color="#5d656b" fill="url(#a)"/>
</svg>
