<svg version="1.1" viewBox="0 0 64 64" xmlns="http://www.w3.org/2000/svg" xmlns:xlink="http://www.w3.org/1999/xlink">
 <defs>
  <linearGradient id="a" x1="1" x2="0" y1=".5" y2=".5">
   <stop stop-color="#0061ff" offset="0"/>
   <stop stop-color="#60efff" offset="1"/>
  </linearGradient>
  <linearGradient id="c" x1="19.88" x2=".818" y1="13.69" y2="13.69" gradientTransform="matrix(1.463 0 0 1.295 16.87 20.19)" gradientUnits="userSpaceOnUse" xlink:href="#a"/>
  <linearGradient id="d" x1="22" x2="15.05" y1="17.51" y2="17.51" gradientTransform="translate(16.87 20.19)scale(1.377)" gradientUnits="userSpaceOnUse" xlink:href="#a"/>
  <linearGradient id="g" x1="6.947" x2="0" y1="17.51" y2="17.51" gradientTransform="translate(16.87 20.19)scale(1.377)" gradientUnits="userSpaceOnUse" xlink:href="#a"/>
  <linearGradient id="h" x1="14.48" x2="7.527" y1="3.618" y2="3.618" gradientTransform="translate(16.87 20.19)scale(1.377)" gradientUnits="userSpaceOnUse" xlink:href="#a"/>
  <linearGradient id="b" x1="32.3" x2="-10.15" y1="-5.884" y2="22.66" gradientTransform="translate(16.87 20.19)scale(1.377)" gradientUnits="userSpaceOnUse" xlink:href="#a"/>
 </defs>
 <path transform="translate(0) scale(1) translate(0) scale(1) translate(-.000564 .00037) scale(1) translate(-.003 .001) scale(.9999)" d="M12.18 4.998c-1.318-.004-2.631.044-3.928.287-4.546.943-8.135 4.88-8.215 9.191-.058 11.26.005 22.53-.031 33.8-.027 1.664.163 3.364.945 4.883 1.659 3.496 5.668 5.875 9.809 5.834 14.31-.004 28.63.034 42.94-.016 5.406-.082 10.21-4.476 10.27-9.463.045-6.74.014-13.48.014-20.21.16-1.289-.904-2.573-2.326-2.66-1.45-.177-2.882.964-2.846 2.318-.05 6.027-.01 12.06-.02 18.09-.027 1.412.175 2.91-.527 4.223-.876 1.75-2.888 2.96-4.988 2.951-13.58.025-27.16-.005-40.74.016-1.292-.008-2.644.083-3.86-.394-2.042-.758-3.484-2.701-3.448-4.734-.022-10.86.009-21.7-.014-32.56.01-1.29-.108-2.658.549-3.848.957-1.878 3.202-3.061 5.445-2.926 3.264.07 6.548-.136 9.803.103 2.347 1.017 3.67 3.296 5.654 4.783 1.623 1.355 3.802 2.1 5.988 2.111 9.549.008 19.1.055 28.65.043 1.225.074 2.401-.755 2.629-1.87.416-1.442-.981-2.986-2.6-2.858-9.401-.053-18.81-.064-28.21-.064-.97.016-1.971-.19-2.744-.743-2.102-1.647-3.65-3.875-6.002-5.246-2.468-1.42-5.485-.937-8.238-1.016-1.312.04-2.635-.016-3.953-.02z" fill="url(#b)"/>
 <path transform="translate(0) scale(1) translate(0) scale(1) translate(-.000564 .00037) scale(1) translate(-.004) scale(.9999)" d="M23.53 25.58c-.272.008-.533.11-.742.288a13.9 13.9 0 0 0-3.49 4.722 13.9 13.9 0 0 0-1.231 5.738 1.195 1.195 0 1 0 2.39 0 11.5 11.5 0 0 1 1.022-4.756 11.5 11.5 0 0 1 2.891-3.913 1.195 1.195 0 0 0-.72-2.076q-.06-.005-.119-.003zm16.96 0q-.06-.002-.118.003a1.194 1.194 0 0 0-.72 2.076 11.5 11.5 0 0 1 2.89 3.913 11.5 11.5 0 0 1 1.022 4.756 1.198 1.198 0 0 0 2.04.847c.225-.225.35-.53.35-.847a13.91 13.91 0 0 0-4.72-10.46 1.2 1.2 0 0 0-.743-.288zM28.76 47.47q-.06 0-.121.008a1.19 1.19 0 0 0-.807.463 1.19 1.19 0 0 0-.234.9 1.195 1.195 0 0 0 .917.99 14 14 0 0 0 6.974 0 1.195 1.195 0 0 0 .917-.99 1.2 1.2 0 0 0-.024-.476 1.2 1.2 0 0 0-.21-.424 1.191 1.191 0 0 0-1.28-.425 11.664 11.664 0 0 1-5.782 0 1.2 1.2 0 0 0-.352-.046z" fill="url(#c)" opacity=".5"/>
 <path transform="translate(0) scale(1) translate(0) scale(1) translate(-.000564 .00037) scale(1) translate(-.004) scale(.9999)" d="m42.36 39.52a4.78 4.78 0 0 0-3.38 8.164 4.78 4.78 0 0 0 6.763 0 4.778 4.778 0 0 0 0-6.763 4.79 4.79 0 0 0-3.383-1.401" fill="url(#d)"/>
 <path transform="translate(0) scale(1) translate(0) scale(1) translate(-.000564 .00037) scale(1) translate(-.004) scale(.9999)" d="m21.65 39.52a4.786 4.786 0 0 0-4.421 6.612 4.8 4.8 0 0 0 2.59 2.59 4.784 4.784 0 0 0 5.211-7.801 4.78 4.78 0 0 0-3.38-1.401" fill="url(#g)"/>
 <path transform="translate(0) scale(1) translate(0) scale(1) translate(-.000564 .00037) scale(1) translate(-.004) scale(.9999)" d="m32.01 20.39a4.778 4.778 0 0 0-4.782 4.781 4.782 4.782 0 0 0 8.165 3.383 4.778 4.778 0 0 0 0-6.763 4.79 4.79 0 0 0-3.383-1.401" fill="url(#h)"/>
</svg>
