<svg version="1.1" viewBox="0 0 64 64" xmlns="http://www.w3.org/2000/svg">
 <defs>
  <linearGradient id="b" x1="87.03" x2="87.03" y1="52.43" y2="26.18" gradientTransform="translate(10.58 9.846)scale(.3943)" gradientUnits="userSpaceOnUse">
   <stop stop-color="#fd5900" offset="0"/>
   <stop stop-color="#ffde00" offset="1"/>
  </linearGradient>
  <linearGradient id="a" x1="24.06" x2="22" y1="44.25" y2="20.69" gradientTransform="scale(1.333)" gradientUnits="userSpaceOnUse">
   <stop stop-color="#02aa93" offset="0"/>
   <stop stop-color="#67ff80" offset="1"/>
  </linearGradient>
  <linearGradient id="d" x1="64.03" x2="64.03" y1="89.41" y2="5.936" gradientTransform="translate(-8.05 27.75)scale(.3943)" gradientUnits="userSpaceOnUse">
   <stop stop-color="#5570ff" offset="0"/>
   <stop stop-color="#4dd3ff" offset="1"/>
  </linearGradient>
 </defs>
 <g transform="translate(-0) scale(1) translate(-0) scale(1) translate(-.000486 .00037) scale(1)" stroke-width="1.333">
  <path transform="translate(0 .003)scale(.9999)" d="M12.18 5.001c-1.312-.004-2.622.042-3.914.279-4.731.963-8.375 5.165-8.263 9.64 0 11.38-.004 22.77.005 34.16v.003q-.015.481.026.956c.004.047.016.094.021.14a8.4 8.4 0 0 0 .703 2.602 9.4 9.4 0 0 0 .956 1.664l.003.003q.28.393.599.76v.003q.319.368.674.708c.373.36.78.687 1.206.993.114.081.222.17.339.247h.002q.414.274.854.513c.153.082.313.151.47.227.145.07.287.15.437.213H6.3q.463.198.946.354c.967.312 1.988.489 3.034.506 14.48.04 28.96.033 43.44 0 2.679-.05 5.204-1.15 7.078-2.857a10.5 10.5 0 0 0 1.64-1.893h.074l-.042-.045q.327-.494.589-1.02l.015-.03c.147-.295.263-.602.375-.91.031-.086.076-.167.104-.253l.003-.01c.099-.302.165-.612.23-.923.019-.094.053-.186.07-.281q.107-.62.114-1.255v-.003c.05-6.444-.005-12.89.026-19.33-.027-.934.115-2.03-.672-2.755-.992-1.087-3.026-1.025-3.956.1-.594.613-.577 1.473-.59 2.24.013 6.44.012 12.88.007 19.32.014.393-.027.782-.12 1.158-3.748-3.859-7.543-7.684-11.31-11.52a3.83 3.83 0 0 0-4.9-.453l-4.88 3.425-10.59-9.029a3.63 3.63 0 0 0-2.537-.857 3.64 3.64 0 0 0-2.445 1.096c-5.34 5.82-11.35 11.38-16.69 17.2-.253-11.68-.111-23.42-.114-35.12-.099-2.755 2.58-5.25 5.576-5.18 3.412.054 6.852-.152 10.25.107 2.513 1.132 3.898 3.651 6.138 5.167 1.556 1.112 3.519 1.711 5.482 1.72 9.56.011 19.12.056 28.68.043 1.198.058 2.359-.748 2.596-1.836.442-1.458-.965-3.027-2.602-2.904-9.556-.061-19.12-.04-28.67-.073-1.65.025-2.862-1.107-3.872-2.162-1.641-1.49-3.048-3.329-5.222-4.198-2.34-.976-4.96-.533-7.438-.627-1.306.039-2.62-.017-3.932-.021zm12.48 31.26 10.32 8.802a3.98 3.98 0 0 0 4.846.23l4.755-3.332 11.37 11.59a5.57 5.57 0 0 1-2.716.667c-1.793.002-3.587-.001-5.38 0l-28.89.005q-3.203 0-6.404.005c-.562-.006-1.133.012-1.701-.005a10 10 0 0 1-.849-.07c-.093-.011-.189-.011-.281-.026-.097-.016-.191-.04-.287-.06-.082-.018-.166-.03-.247-.052a5 5 0 0 1-.521-.172 5 5 0 0 1-.471-.198c-.087-.041-.166-.095-.25-.14z" fill="url(#a)"/>
  <path transform="translate(0 .003)scale(.9999)" d="M44.98 20.17a5.9 5.9 0 0 0-2.037.322c-2.235.733-3.794 2.884-3.652 5.07.06 2.1 1.664 4.037 3.813 4.7l.291.062.29.063c2.582.579 5.448-.81 6.405-3.093a4.83 4.83 0 0 0-.3-4.474c-.385-.655-.957-1.19-1.572-1.665-.937-.626-2.085-.967-3.238-.986z" fill="url(#b)" fill-rule="evenodd"/>
  <path transform="translate(0 .003)scale(.9999)" d="M12.18 5.001c-1.312-.004-2.622.042-3.914.279-4.731.963-8.375 5.165-8.263 9.64v35.16H5.2l-.001-35.12c-.099-2.754 2.58-5.25 5.576-5.18 3.412.054 6.852-.152 10.25.107 2.513 1.132 3.898 3.651 6.138 5.167 1.556 1.112 3.519 1.711 5.482 1.72 9.56.012 19.12.056 28.68.044 1.198.057 2.359-.75 2.596-1.836.442-1.458-.965-3.027-2.602-2.904-9.556-.062-19.12-.04-28.67-.073-1.65.025-2.862-1.107-3.872-2.162-1.641-1.491-3.048-3.33-5.222-4.198-2.34-.976-4.96-.533-7.438-.628-1.306.04-2.62-.017-3.932-.02z" fill="url(#d)"/>
 </g>
</svg>
