<svg version="1.1" viewBox="0 0 64 64" xmlns="http://www.w3.org/2000/svg" xmlns:xlink="http://www.w3.org/1999/xlink">
 <defs>
  <linearGradient id="c" x1="125.1" x2="4.534" y1="5.49" y2="123.2" gradientTransform="translate(16.53 19.79)scale(.2427)" gradientUnits="userSpaceOnUse" xlink:href="#a"/>
  <linearGradient id="a">
   <stop stop-color="#ffc700" offset="0"/>
   <stop stop-color="#ff49ab" offset=".2"/>
   <stop stop-color="#ba49ff" offset=".38"/>
   <stop stop-color="#5849ff" offset=".53"/>
   <stop stop-color="#1effd6" offset=".84"/>
   <stop stop-color="#0ff" offset="1"/>
  </linearGradient>
  <linearGradient id="b" x1="189.6" x2="-51.4" y1="-30.74" y2="152.6" gradientTransform="translate(16.53 19.79)scale(.2427)" gradientUnits="userSpaceOnUse" xlink:href="#a"/>
 </defs>
 <path transform="translate(-0) scale(1) translate(-0) scale(1) translate(-.000322 1e-5) scale(1) translate(.002 -.001)" d="M8.271 5.279c2.575-.478 5.222-.177 7.828-.26 2.682.095 5.584-.407 8.029.894 2.495 1.342 4.073 3.677 6.241 5.378.778.523 1.753.762 2.714.733 9.241 0 18.48 0 27.72.037 1.256-.136 2.669.437 3.04 1.622.644 1.52-.827 3.282-2.575 3.142-9.527.008-19.06-.033-28.59-.05-2.307.005-4.605-.823-6.268-2.301-1.449-1.29-2.768-2.697-4.216-3.978-.662-.58-1.6-.766-2.49-.725-3.071.025-6.147-.02-9.219.02-2.888.067-5.378 2.5-5.293 5.16 0 11.39-.009 22.77-.004 34.16-.072 2.727 2.589 5.177 5.553 5.116 14.16.008 28.33.008 42.49-.004 2.964.053 5.629-2.413 5.53-5.152.009-6.445.004-12.89-.005-19.33.014-.754-.013-1.598.559-2.207.925-1.161 3.013-1.227 4.01-.112.653.61.653 1.511.648 2.31-.031 6.606.023 13.21-.027 19.82-.085 4.98-4.886 9.344-10.27 9.426-14.31.037-28.62.021-42.93.009-4.135.04-8.146-2.335-9.8-5.831-.791-1.524-.96-3.237-.947-4.9.035-11.26-.036-22.52.026-33.77.085-4.324 3.68-8.27 8.244-9.204z" fill="url(#b)" style="-inkscape-stroke:none;font-variation-settings:normal"/>
 <path transform="translate(-0) scale(1) translate(-0) scale(1) translate(-.000322 1e-5) scale(1) translate(.001)" d="M43.18 21.12c-.295 0-.593.041-.883.13-.634.173-1.177.552-1.593 1.025a9739 9739 0 0 1-6.072 6.625l-.002.002q-2.496 2.72-4.991 5.442c-1.27 1.277-1.148 3.527.277 4.642 1.244 1.067 3.236.949 4.346-.257 3.753-4.08 7.495-8.165 11.24-12.25.841-.875 1.083-2.2.651-3.319-.414-1.144-1.503-1.912-2.677-2.026a3 3 0 0 0-.294-.015zm-11.88.03q-.775.036-1.541.15c-5.143.744-9.658 4.49-11.33 9.38-.942 2.67-1.048 5.606-.348 8.342a1.376 1.376 0 0 0 1.632 1.073 1.377 1.377 0 0 0 1.097-1.74l-.003-.01c-.59-2.337-.47-4.859.42-7.095v-.001l.002-.002c1.129-2.908 3.526-5.313 6.439-6.468h.001l.002-.002a11.6 11.6 0 0 1 7.138-.49l.01.003c.24.07.509.111.787.08.278-.03.571-.145.796-.38.744-.679.48-2-.49-2.312l-.01-.003a14.1 14.1 0 0 0-4.607-.524zm11.88 2.795q.035.002.07.009c.096.02.185.069.228.14l.01.017.012.015c.056.072.063.134.036.238a.7.7 0 0 1-.198.315l-.012.01-.01.012a5053 5053 0 0 0-4.425 4.822l-.002.002a3505 3505 0 0 1-6.658 7.25l-.008.01-.007.009c-.138.171-.544.102-.601-.11l-.005-.023-.009-.022c-.04-.097-.03-.14.026-.246.056-.107.175-.244.305-.384l.065-.07.002-.003c1.534-1.655 3.056-3.322 4.578-4.984l.007-.006c2.129-2.328 4.256-4.656 6.412-6.952a.3.3 0 0 1 .184-.049m1.455 7.288a1.35 1.35 0 0 0-.608.155c-.671.318-.89 1.091-.713 1.73v.005l.004.014c.628 3.042-.05 6.337-1.854 8.874l-.002.004c-2.02 2.896-5.462 4.83-9.018 4.874a2.4 2.4 0 0 0-.873.12 1.3 1.3 0 0 0-.747.651c-.509.905.22 2.102 1.271 2.032 5.413.11 10.59-3.265 12.87-8.1l.002-.003a14.23 14.23 0 0 0 1.048-9.29c-.141-.66-.753-1.073-1.381-1.064zm-18.45 6.653a4.4 4.4 0 0 0-.844.104c-1.896.36-3.45 1.935-3.75 3.839v.003l-.001.004c-.155 1.11-.45 2.222-1.167 3.004-.552.592-1.381.887-2.238 1.138l.02-.004-.038.009c-.262.065-.414.294-.461.49-.05.204-.039.423.124.624.772 1.026 2.006 1.617 3.257 1.7h.005c2.867.16 5.89-.534 8.161-2.413 1.611-1.232 2.253-3.492 1.52-5.38-.671-1.89-2.599-3.166-4.585-3.117zm.046 2.825v.002q.173-.004.343.02c.454.068.888.284 1.18.63l.004.008.007.008c.667.709.625 1.973-.084 2.638-1.237 1.126-2.883 1.711-4.568 1.902.67-1.046 1.062-2.244 1.229-3.447v-.008l.002-.009a1.95 1.95 0 0 1 .907-1.453l.005-.002.004-.003c.286-.187.627-.28.97-.286z" fill="url(#c)"/>
</svg>
