<svg version="1.1" viewBox="0 0 64 64" xmlns="http://www.w3.org/2000/svg" xmlns:xlink="http://www.w3.org/1999/xlink">
 <defs>
  <linearGradient id="c" x1="5.944" x2="5.944" y1="7.977" y2="1.773" gradientTransform="matrix(2.015 0 0 2.564 13.8 18.47)" gradientUnits="userSpaceOnUse" xlink:href="#a"/>
  <linearGradient id="a" x2="0" y1="1">
   <stop stop-color="#0061ff" offset="0"/>
   <stop stop-color="#60efff" offset="1"/>
  </linearGradient>
  <linearGradient id="b" x1=".845" x2=".845" y1="15.38" y2="3.55" gradientTransform="matrix(5.409 0 0 3.864 -4.571 -2.286)" gradientUnits="userSpaceOnUse" xlink:href="#a"/>
  <linearGradient id="d" x1=".845" x2=".845" y1="15.38" y2="3.55" gradientTransform="matrix(2.689 0 0 1.921 13.8 18.47)" gradientUnits="userSpaceOnUse" xlink:href="#a"/>
 </defs>
 <g transform="translate(0) scale(1) translate(-.000323 1e-5) scale(1)" stroke-width="2.273">
  <path transform="translate(.002 -.001)scale(.9999)" d="M8.271 5.279c2.575-.478 5.222-.177 7.828-.26 2.682.095 5.584-.407 8.029.894 2.495 1.342 4.073 3.677 6.241 5.378.778.523 1.753.762 2.714.733 9.241 0 18.48 0 27.72.037 1.256-.136 2.669.437 3.04 1.622.644 1.52-.827 3.282-2.575 3.142-9.527.008-19.06-.033-28.59-.05-2.307.005-4.605-.823-6.268-2.301-1.449-1.29-2.768-2.697-4.216-3.978-.662-.58-1.6-.766-2.49-.725-3.071.025-6.147-.02-9.219.02-2.888.067-5.378 2.5-5.293 5.16 0 11.39-.009 22.77-.004 34.16-.072 2.727 2.589 5.177 5.553 5.116 14.16.008 28.33.008 42.49-.004 2.964.053 5.629-2.413 5.53-5.152.009-6.445.004-12.89-.005-19.33.014-.754-.013-1.598.559-2.207.925-1.161 3.013-1.227 4.01-.112.653.61.653 1.511.648 2.31-.031 6.606.023 13.21-.027 19.82-.085 4.98-4.886 9.344-10.27 9.426-14.31.037-28.62.021-42.93.009-4.135.04-8.146-2.335-9.8-5.831-.791-1.524-.96-3.237-.947-4.9.035-11.26-.036-22.52.026-33.77.085-4.324 3.68-8.27 8.244-9.204z" fill="url(#b)" style="-inkscape-stroke:none;font-variation-settings:normal"/>
  <path transform="translate(.002 -.001)scale(.9999)" d="m33.69 24.72a1.704 1.704 0 0 0-3.409 0v8.386l-1.636-1.636a1.704 1.704 0 0 0-2.409 2.409l4.546 4.546a1.704 1.704 0 0 0 2.409 0l4.546-4.546a1.704 1.704 0 1 0-2.409-2.409l-1.636 1.636z" fill="url(#c)"/>
  <path transform="translate(.002 -.001)scale(.9999)" d="M24.67 28.7a1.7 1.7 0 0 0-1.593 1.098l-3.477 9.13h5.482a2.27 2.27 0 0 1 1.891 1.011l.923 1.386a2.27 2.27 0 0 0 1.89 1.011h4.387a2.27 2.27 0 0 0 1.89-1.011l.923-1.386a2.27 2.27 0 0 1 1.891-1.011h5.482l-3.477-9.13a1.7 1.7 0 0 0-1.59-1.098H38.23a1.704 1.704 0 0 1 0-3.409h1.06a5.12 5.12 0 0 1 4.78 3.293l3.485 9.15c.22.582.334 1.198.334 1.82v3.35a5.114 5.114 0 0 1-5.114 5.114h-21.59a5.114 5.114 0 0 1-5.114-5.114v-3.35c0-.623.114-1.239.335-1.82l3.486-9.15a5.11 5.11 0 0 1 4.78-3.293h1.059a1.704 1.704 0 0 1 0 3.409z" fill="url(#d)"/>
 </g>
</svg>
