<svg version="1.1" viewBox="0 0 64 64" xmlns="http://www.w3.org/2000/svg" xmlns:xlink="http://www.w3.org/1999/xlink">
 <defs>
  <linearGradient id="d" x1="-.001" x2="-.001" y1="67.61" y2="13.52" gradientTransform="matrix(.5176 0 0 .3698 18.02 23.52)" gradientUnits="userSpaceOnUse">
   <stop stop-color="#ff4000" offset="0"/>
   <stop stop-color="#ffa200" offset=".905"/>
  </linearGradient>
  <linearGradient id="c" x1="21.9" x2="21.9" y1="24.28" y2="-4.055" gradientTransform="matrix(.4212 0 0 .5351 16.81 22.79)" gradientUnits="userSpaceOnUse" xlink:href="#a"/>
  <linearGradient id="a" x2="0" y1="1">
   <stop stop-color="#ff4000" offset="0"/>
   <stop stop-color="#ffa200" offset=".905"/>
  </linearGradient>
  <linearGradient id="b" x1="-.002535" x2="-.002535" y1="67.62" y2="13.53" gradientTransform="matrix(.5617 0 0 .4012 16.81 23.31)" gradientUnits="userSpaceOnUse" xlink:href="#a"/>
 </defs>
 <path transform="translate(0) scale(1)" d="m8.272 5.277c2.575-0.478 5.221-0.177 7.827-0.26 2.682 0.09499 5.583-0.407 8.028 0.8939 2.495 1.342 4.073 3.677 6.24 5.377 0.7779 0.5229 1.753 0.7619 2.714 0.7329 9.24 0 18.48 0 27.72 0.037 1.256-0.136 2.669 0.437 3.04 1.622 0.6439 1.52-0.8269 3.282-2.575 3.142-9.526 8e-3 -19.06-0.033-28.59-0.05-2.307 5e-3 -4.605-0.8229-6.267-2.301-1.449-1.29-2.768-2.697-4.216-3.978-0.6619-0.5799-1.6-0.7659-2.49-0.7249-3.071 0.025-6.146-0.02-9.218 0.02-2.888 0.06699-5.377 2.5-5.292 5.159 0 11.39-9e-3 22.77-4e-3 34.16-0.07199 2.727 2.589 5.176 5.552 5.115 14.16 8e-3 28.33 8e-3 42.49-4e-3 2.964 0.05299 5.628-2.413 5.529-5.151 9e-3 -6.444 4e-3 -12.89-5e-3 -19.33 0.014-0.7539-0.013-1.598 0.5589-2.207 0.9249-1.161 3.013-1.227 4.01-0.112 0.6529 0.6099 0.6529 1.511 0.6479 2.31-0.031 6.605 0.023 13.21-0.027 19.82-0.08499 4.98-4.886 9.343-10.27 9.425-14.31 0.037-28.62 0.021-42.93 9e-3 -4.135 0.04-8.145-2.335-9.799-5.83-0.7909-1.524-0.9599-3.237-0.9469-4.9 0.035-11.26-0.036-22.52 0.026-33.77 0.08499-4.324 3.68-8.269 8.243-9.203z" fill="url(#d)" stroke-width=".438" style="-inkscape-stroke:none;font-variation-settings:normal"/>
 <path transform="translate(0) scale(1)" d="m33.59 36.56c-0.03643 2.133-3.219 2.133-3.255 0v-10.38l-1.562 1.562c-1.533 1.423-3.723-0.7679-2.301-2.301l4.34-4.34c0.6356-0.6344 1.665-0.6344 2.301 0l4.34 4.34c1.651 1.533-0.7679 3.951-2.301 2.301l-1.562-1.562z" fill="url(#c)" stroke-width=".9998"/>
 <path transform="translate(0) scale(1)" d="m24.07 31.99c-0.6755-1.3e-5 -1.281 0.417-1.521 1.048l-2.37 8.716h5.236c0.7254-1.92e-4 1.403 0.3622 1.805 0.9656l0.8811 1.324c0.4025 0.6034 1.08 0.9658 1.805 0.9656h4.189c0.7254 1.92e-4 1.403-0.3622 1.805-0.9656l0.8811-1.324c0.4025-0.6034 1.08-0.9658 1.805-0.9656h5.236l-2.371-8.716c-0.2403-0.6304-0.8445-1.047-1.519-1.048h-1.014c-2.133-0.03643-2.133-3.219 0-3.255h1.011c2.027 0 3.841 1.252 4.564 3.145l2.379 8.735c0.2103 0.5554 0.319 1.144 0.319 1.738v3.199c0 2.698-2.187 4.885-4.885 4.885h-20.62c-2.698 0-4.885-2.187-4.885-4.885v-3.199c0-0.5948 0.1087-1.183 0.319-1.738l2.379-8.735c0.7219-1.893 2.538-3.144 4.564-3.145h1.011c2.133 0.03643 2.133 3.219 0 3.255z" fill="url(#b)" stroke-width=".9998"/>
</svg>
