<svg version="1.1" viewBox="0 0 64 64" xmlns="http://www.w3.org/2000/svg">
 <defs>
  <linearGradient id="a" x1=".433" x2=".433" y1="15.56" y2=".433" gradientTransform="translate(17.19 20.71)scale(1.85)" gradientUnits="userSpaceOnUse">
   <stop stop-color="#00fffa" offset="0"/>
   <stop stop-color="#0078ff" offset="1"/>
  </linearGradient>
 </defs>
 <path transform="translate(0) scale(1) translate(0) scale(1) translate(0) scale(1) translate(.000674 .00016) scale(1) translate(.002 .002)" d="M8.272 5.277c2.575-.478 5.221-.177 7.827-.26 2.682.095 5.583-.407 8.028.894 2.495 1.342 4.073 3.677 6.24 5.377.778.523 1.753.762 2.714.733 9.24 0 18.48 0 27.72.037 1.256-.136 2.669.437 3.04 1.622.644 1.52-.827 3.282-2.575 3.142-9.526.008-19.06-.033-28.59-.05-2.307.005-4.605-.823-6.267-2.301-1.449-1.29-2.768-2.697-4.216-3.978-.661-.58-1.6-.766-2.49-.725-3.071.025-6.146-.02-9.218.02-2.888.066-5.377 2.5-5.292 5.16 0 11.39-.009 22.77-.004 34.16-.072 2.726 2.589 5.175 5.552 5.114 14.16.008 28.33.008 42.49-.005 2.964.054 5.628-2.413 5.529-5.15.009-6.445.004-12.89-.005-19.33.014-.754-.013-1.599.559-2.208.925-1.16 3.013-1.227 4.01-.11.652.609.652 1.51.648 2.31-.031 6.604.022 13.21-.027 19.82-.085 4.978-4.886 9.342-10.27 9.424-14.31.037-28.62.02-42.93.009-4.135.04-8.145-2.335-9.799-5.83-.791-1.524-.961-3.237-.948-4.9.036-11.26-.035-22.52.027-33.77.085-4.324 3.68-8.268 8.243-9.203z" fill="url(#a)" style="-inkscape-stroke:none;font-variation-settings:normal"/>
 <path transform="translate(0) scale(1) translate(0) scale(1) translate(0) scale(1) translate(.000674 .00016) scale(1) translate(.002 .002)" d="M24.54 21.52c-.532 0-1.011-.002-1.413.025-.429.03-.888.097-1.351.29a4.14 4.14 0 0 0-2.237 2.236c-.192.464-.256.923-.285 1.351-.028.402-.03.881-.03 1.413v.098c0 .532.002 1.01.03 1.413.029.429.093.888.285 1.35a4.14 4.14 0 0 0 2.237 2.238c.463.192.923.26 1.351.289.402.027.88.025 1.413.025h4.895c.31 0 .467.001.585.062a.55.55 0 0 1 .243.242c.06.118.061.274.061.585V34.2c0 .311 0 .467-.061.586a.55.55 0 0 1-.243.242c-.118.06-.274.058-.585.058h-1.46c-.98 0-1.812.001-2.498.057-.72.06-1.423.187-2.092.528a5.37 5.37 0 0 0-2.346 2.346c-.341.67-.469 1.372-.528 2.092q-.033.424-.043.921c-.005.208-.01.311-.036.39a.5.5 0 0 1-.108.188c-.055.063-.16.13-.373.26a4.133 4.133 0 0 0 2.168 7.649 4.132 4.132 0 0 0 2.185-7.637c-.216-.136-.326-.205-.383-.271a.5.5 0 0 1-.108-.203c-.025-.084-.024-.185-.018-.387.006-.24.017-.449.032-.64.042-.513.115-.727.177-.848.196-.383.51-.698.893-.893.122-.062.335-.135.85-.177.533-.044 1.23-.043 2.293-.043h1.391c.311 0 .467 0 .586.061a.55.55 0 0 1 .242.242c.06.119.061.275.061.586v1.72c0 .205 0 .305-.025.386a.5.5 0 0 1-.109.196c-.055.064-.164.13-.379.263a4.132 4.132 0 1 0 4.35 0c-.215-.133-.32-.199-.376-.263a.5.5 0 0 1-.108-.196c-.026-.08-.026-.181-.026-.386v-1.72c0-.311-.002-.467.058-.586a.56.56 0 0 1 .246-.242c.119-.06.27-.061.582-.061h1.395c1.064 0 1.76 0 2.294.043.514.042.727.115.849.177.383.195.694.51.889.893.062.121.135.335.177.849.016.19.026.398.033.64.005.2.01.302-.015.386a.5.5 0 0 1-.108.203c-.057.066-.167.135-.383.27a4.132 4.132 0 1 0 4.353-.011c-.213-.13-.318-.197-.373-.26a.5.5 0 0 1-.108-.188c-.026-.079-.031-.182-.036-.39a17 17 0 0 0-.043-.921c-.06-.72-.187-1.423-.528-2.092a5.37 5.37 0 0 0-2.346-2.346c-.67-.341-1.372-.469-2.092-.528-.685-.056-1.52-.057-2.501-.057h-1.46c-.31 0-.463.002-.582-.058a.56.56 0 0 1-.245-.242c-.06-.12-.058-.275-.058-.586v-1.062c0-.31-.003-.466.058-.585a.56.56 0 0 1 .245-.242c.119-.06.271-.062.582-.062h4.899c.532 0 1.011.002 1.413-.025.429-.03.888-.097 1.351-.29a4.14 4.14 0 0 0 2.237-2.236c.192-.463.256-.923.285-1.351.028-.402.03-.881.03-1.413v-.098c0-.532-.002-1.01-.03-1.413-.029-.429-.093-.888-.285-1.35a4.14 4.14 0 0 0-2.237-2.238c-.463-.192-.923-.26-1.351-.289-.402-.027-.88-.025-1.413-.025zm.05 3.328h14.8c.598 0 .962.003 1.237.022.222.015.294.036.303.04a.8.8 0 0 1 .434.433c.003.01.028.08.043.304.019.274.018.642.018 1.239s0 .961-.018 1.236c-.015.223-.04.294-.043.303a.8.8 0 0 1-.434.434c-.01.004-.08.025-.303.04-.275.018-.639.021-1.236.021h-14.8c-.598 0-.962-.003-1.236-.021a1.4 1.4 0 0 1-.304-.04h-.004a.8.8 0 0 1-.43-.434 1.2 1.2 0 0 1-.043-.303c-.019-.274-.018-.639-.018-1.236 0-.598 0-.965.018-1.24.015-.222.04-.293.043-.303a.8.8 0 0 1 .43-.434h.004c.01-.003.08-.024.304-.04.274-.018.638-.021 1.236-.021m-2.467 19.74a.8.8 0 1 1 0 1.6.8.8 0 1 1 0-1.6m9.868 0a.8.8 0 1 1 0 1.6.8.8 0 1 1 0-1.6m9.868 0c.442 0 .798.36.798.802s-.356.799-.798.799a.8.8 0 1 1 0-1.601" fill="url(#a)"/>
</svg>
