<svg version="1.1" viewBox="0 0 64 64" xmlns="http://www.w3.org/2000/svg" xmlns:xlink="http://www.w3.org/1999/xlink">
 <defs>
  <linearGradient id="a" y1="1">
   <stop stop-color="#00efff" offset="0"/>
   <stop stop-color="#07f" offset="1"/>
  </linearGradient>
  <linearGradient id="b" x2="0" y1="1">
   <stop stop-color="#01ff01" offset="0"/>
   <stop stop-color="#1bc100" offset="1"/>
  </linearGradient>
  <linearGradient id="d" x2="0" y2="1">
   <stop stop-color="#fda700" offset="0"/>
   <stop stop-color="#ffde00" offset="1"/>
  </linearGradient>
  <linearGradient id="e" x1="2" x2="22" y1="22" y2="2" gradientTransform="translate(13.98 17.2)scale(1.502)" gradientUnits="userSpaceOnUse" xlink:href="#a"/>
  <linearGradient id="f" x1="17" x2="17" y1="19" y2="17" gradientTransform="translate(13.98 17.2)scale(1.502)" gradientUnits="userSpaceOnUse" xlink:href="#b"/>
  <linearGradient id="g" x1="14" x2="14" y1="17" y2="19" gradientTransform="translate(13.98 17.2)scale(1.502)" gradientUnits="userSpaceOnUse" xlink:href="#d"/>
  <linearGradient id="h" x1="3.162" x2="6.325" y1="30.04" y2="26.88" gradientTransform="matrix(2.375 0 0 .9499 13.98 17.2)" gradientUnits="userSpaceOnUse" xlink:href="#a"/>
  <linearGradient id="i" x1="17" x2="17" y1="13" y2="11" gradientTransform="translate(13.98 17.2)scale(1.502)" gradientUnits="userSpaceOnUse" xlink:href="#b"/>
  <linearGradient id="n" x1="14" x2="14" y1="11" y2="13" gradientTransform="translate(13.98 17.2)scale(1.502)" gradientUnits="userSpaceOnUse" xlink:href="#d"/>
  <linearGradient id="o" x1="3.162" x2="6.325" y1="20.55" y2="17.39" gradientTransform="matrix(2.375 0 0 .9499 13.98 17.2)" gradientUnits="userSpaceOnUse" xlink:href="#a"/>
  <linearGradient id="p" x1="17" x2="17" y1="7" y2="5" gradientTransform="translate(13.98 17.2)scale(1.502)" gradientUnits="userSpaceOnUse" xlink:href="#b"/>
  <linearGradient id="q" x1="14" x2="14" y1="5" y2="7" gradientTransform="translate(13.98 17.2)scale(1.502)" gradientUnits="userSpaceOnUse" xlink:href="#d"/>
  <linearGradient id="r" x1="3.162" x2="6.325" y1="11.07" y2="7.906" gradientTransform="matrix(2.375 0 0 .9499 13.98 17.2)" gradientUnits="userSpaceOnUse" xlink:href="#a"/>
 </defs>
 <path transform="translate(0) scale(1) translate(0) scale(1) translate(-.000564 .00037) scale(1) translate(-.003 .001) scale(.9999)" d="M12.18 4.998c-1.318-.004-2.631.044-3.928.287-4.546.943-8.135 4.88-8.215 9.191-.058 11.26.005 22.53-.031 33.8-.027 1.664.163 3.364.945 4.883 1.659 3.496 5.668 5.875 9.809 5.834 14.31-.004 28.63.034 42.94-.016 5.406-.082 10.21-4.476 10.27-9.463.045-6.74.014-13.48.014-20.21.16-1.289-.904-2.573-2.326-2.66-1.45-.177-2.882.964-2.846 2.318-.05 6.027-.01 12.06-.02 18.09-.027 1.412.175 2.91-.527 4.223-.876 1.75-2.888 2.96-4.988 2.951-13.58.025-27.16-.005-40.74.016-1.292-.008-2.644.083-3.86-.394-2.042-.758-3.484-2.701-3.448-4.734-.022-10.86.009-21.7-.014-32.56.01-1.29-.108-2.658.549-3.848.957-1.878 3.202-3.061 5.445-2.926 3.264.07 6.548-.136 9.803.103 2.347 1.017 3.67 3.296 5.654 4.783 1.623 1.355 3.802 2.1 5.988 2.111 9.549.008 19.1.055 28.65.043 1.225.074 2.401-.755 2.629-1.87.416-1.442-.981-2.986-2.6-2.858-9.401-.053-18.81-.064-28.21-.064-.97.016-1.971-.19-2.744-.743-2.102-1.647-3.65-3.875-6.002-5.246-2.468-1.42-5.485-.937-8.238-1.016-1.312.04-2.635-.016-3.953-.02z" fill="url(#e)"/>
 <path transform="translate(0) scale(1) translate(0) scale(1) translate(-.000564 .00037) scale(1) translate(-.004) scale(.9999)" d="M21.49 20.21a4.506 4.506 0 0 0-4.506 4.506v3.004a4.5 4.5 0 0 0 1.17 3.004 4.5 4.5 0 0 0-1.17 3.004v3.004a4.5 4.5 0 0 0 1.17 3.004 4.5 4.5 0 0 0-1.17 3.004v3.004a4.506 4.506 0 0 0 4.506 4.506h21.03a4.506 4.506 0 0 0 4.506-4.506V42.74a4.5 4.5 0 0 0-1.17-3.004 4.5 4.5 0 0 0 1.17-3.004v-3.004a4.5 4.5 0 0 0-1.17-3.004 4.5 4.5 0 0 0 1.17-3.004v-3.004a4.506 4.506 0 0 0-4.506-4.506zm0 3.004h21.03a1.5 1.5 0 0 1 1.502 1.502v3.004a1.5 1.5 0 0 1-1.502 1.502H21.49a1.5 1.5 0 0 1-1.502-1.502v-3.004a1.5 1.5 0 0 1 1.502-1.502m0 9.011h21.03a1.5 1.5 0 0 1 1.502 1.502v3.004a1.5 1.5 0 0 1-1.502 1.502H21.49a1.5 1.5 0 0 1-1.502-1.502v-3.004a1.5 1.5 0 0 1 1.502-1.502m0 9.011h21.03a1.5 1.5 0 0 1 1.502 1.502v3.004a1.5 1.5 0 0 1-1.502 1.502H21.49a1.5 1.5 0 0 1-1.502-1.502v-3.004a1.5 1.5 0 0 1 1.502-1.502" fill="url(#e)"/>
 <path transform="translate(0) scale(1) translate(0) scale(1) translate(-.000564 .00037) scale(1) translate(-.004) scale(.9999)" d="m41.02 42.73a1.502 1.502 0 1 0 1.502 1.502 1.5 1.5 0 0 0-1.502-1.502" fill="url(#f)"/>
 <path transform="translate(0) scale(1) translate(0) scale(1) translate(-.000564 .00037) scale(1) translate(-.004) scale(.9999)" d="m36.51 42.73a1.502 1.502 0 1 0 1.502 1.502 1.5 1.5 0 0 0-1.502-1.502" fill="url(#g)"/>
 <path transform="translate(0) scale(1) translate(0) scale(1) translate(-.000564 .00037) scale(1) translate(-.004) scale(.9999)" d="m22.99 42.73a1.502 1.502 0 0 0 0 3.004h4.506a1.502 1.502 0 0 0 0-3.004z" fill="url(#h)"/>
 <path transform="translate(0) scale(1) translate(0) scale(1) translate(-.000564 .00037) scale(1) translate(-.004) scale(.9999)" d="m41.02 33.72a1.502 1.502 0 1 0 1.502 1.502 1.5 1.5 0 0 0-1.502-1.502" fill="url(#i)"/>
 <path transform="translate(0) scale(1) translate(0) scale(1) translate(-.000564 .00037) scale(1) translate(-.004) scale(.9999)" d="m36.51 33.72a1.502 1.502 0 1 0 1.502 1.502 1.5 1.5 0 0 0-1.502-1.502" fill="url(#n)"/>
 <path transform="translate(0) scale(1) translate(0) scale(1) translate(-.000564 .00037) scale(1) translate(-.004) scale(.9999)" d="m22.99 33.72a1.502 1.502 0 0 0 0 3.004h4.506a1.502 1.502 0 0 0 0-3.004z" fill="url(#o)"/>
 <path transform="translate(0) scale(1) translate(0) scale(1) translate(-.000564 .00037) scale(1) translate(-.004) scale(.9999)" d="m41.02 24.71a1.502 1.502 0 1 0 1.502 1.502 1.5 1.5 0 0 0-1.502-1.502" fill="url(#p)"/>
 <path transform="translate(0) scale(1) translate(0) scale(1) translate(-.000564 .00037) scale(1) translate(-.004) scale(.9999)" d="m36.51 24.71a1.502 1.502 0 1 0 1.502 1.502 1.5 1.5 0 0 0-1.502-1.502" fill="url(#q)"/>
 <path transform="translate(0) scale(1) translate(0) scale(1) translate(-.000564 .00037) scale(1) translate(-.004) scale(.9999)" d="m22.99 24.71a1.502 1.502 0 0 0 0 3.004h4.506a1.502 1.502 0 0 0 0-3.004z" fill="url(#r)"/>
</svg>
