<svg version="1.1" viewBox="0 0 64 64" xmlns="http://www.w3.org/2000/svg">
 <defs>
  <linearGradient id="a" y1=".5" y2=".5">
   <stop stop-color="#e374ab" offset="0"/>
   <stop stop-color="#fea75f" offset="1"/>
  </linearGradient>
  <linearGradient id="b" x1="1.231" x2=".461" y1="-.231" y2=".539">
   <stop offset="0"/>
   <stop stop-opacity="0" offset="1"/>
  </linearGradient>
 </defs>
 <path transform="translate(0) scale(1) translate(0) scale(1) translate(0) scale(1) translate(0) scale(1) translate(1.9e-5) scale(1)" d="m42.88 0-7.254 7.246 13.3 13.28-13.3 13.28 7.254 7.246 20.55-20.53z" fill="url(#a)"/>
 <path transform="translate(0) scale(1) translate(0) scale(1) translate(0) scale(1) translate(0) scale(1) translate(1.9e-5) scale(1)" d="M15.921 1.199a3.565 3.565 0 0 0-3.572 3.572v.404a3.565 3.565 0 0 0 3.572 3.572h.412a3.563 3.563 0 0 0 3.57-3.572v-.404a3.563 3.563 0 0 0-3.57-3.572z" fill="#fa8865"/>
 <path transform="translate(0) scale(1) translate(0) scale(1) translate(0) scale(1) translate(0) scale(1) translate(1.9e-5) scale(1)" d="M5.712 24.76A5.13 5.13 0 0 0 .57 29.904v.582a5.13 5.13 0 0 0 5.143 5.143h.594a5.13 5.13 0 0 0 5.143-5.143v-.582a5.13 5.13 0 0 0-5.143-5.143z" fill="#63c605"/>
 <path transform="translate(0) scale(1) translate(0) scale(1) translate(0) scale(1) translate(0) scale(1) translate(1.9e-5) scale(1)" d="M23.71 48.3a7.414 7.414 0 0 0-7.43 7.43v.84A7.414 7.414 0 0 0 23.71 64h.858a7.41 7.41 0 0 0 7.428-7.43v-.84a7.41 7.41 0 0 0-7.428-7.43z" fill="#1b89f3"/>
 <path transform="translate(0) scale(1) translate(0) scale(1) translate(0) scale(1) translate(0) scale(1) translate(1.9e-5) scale(1)" d="m48.93 20.53-8.463 8.453 7.254 7.244 8.461-8.451z" fill="url(#b)" fill-rule="evenodd" opacity=".9"/>
</svg>
