<svg version="1.1" viewBox="0 0 64 64" xmlns="http://www.w3.org/2000/svg">
 <defs>
  <linearGradient id="a" x1="3.394" x2="3.394" y1="18.6" y2="1.567" gradientTransform="matrix(1.366 0 0 1.643 15.71 18.94)" gradientUnits="userSpaceOnUse">
   <stop stop-color="#fe0844" offset="0"/>
   <stop stop-color="#feb302" offset="1"/>
  </linearGradient>
 </defs>
 <g transform="translate(0) scale(1) translate(0) scale(1) translate(0) scale(1) translate(-.000323 1e-5) scale(1) translate(.002 -.001) scale(.9999)" fill="url(#a)" stroke-width="1.498">
  <path d="M8.271 5.279c2.575-.478 5.222-.177 7.828-.26 2.682.095 5.584-.407 8.029.894 2.495 1.342 4.073 3.677 6.241 5.378.778.523 1.753.762 2.714.733 9.241 0 18.48 0 27.72.037 1.256-.136 2.669.437 3.04 1.622.644 1.52-.827 3.282-2.575 3.142-9.527.008-19.06-.033-28.59-.05-2.307.005-4.605-.823-6.268-2.301-1.449-1.29-2.768-2.697-4.216-3.978-.662-.58-1.6-.766-2.49-.725-3.071.025-6.147-.02-9.219.02-2.888.067-5.378 2.5-5.293 5.16 0 11.39-.009 22.77-.004 34.16-.072 2.727 2.589 5.177 5.553 5.116 14.16.008 28.33.008 42.49-.004 2.964.053 5.629-2.413 5.53-5.152.009-6.445.004-12.89-.005-19.33.014-.754-.013-1.598.559-2.207.925-1.161 3.013-1.227 4.01-.112.653.61.653 1.511.648 2.31-.031 6.606.023 13.21-.027 19.82-.085 4.98-4.886 9.344-10.27 9.426-14.31.037-28.62.021-42.93.009-4.135.04-8.146-2.335-9.8-5.831-.791-1.524-.96-3.237-.947-4.9.035-11.26-.036-22.52.026-33.77.085-4.324 3.68-8.27 8.244-9.204z" style="-inkscape-stroke:none;font-variation-settings:normal"/>
  <path d="M23.95 28.2c0-1.291.414-1.934.913-2.315.582-.446 1.58-.761 3.093-.761h8.05c1.472 0 2.492.296 3.1.73.509.366.906.95.906 2.114v17.57l-6.757-3.68-.005-.002a2.74 2.74 0 0 0-2.608 0l-.01.005-6.683 3.661zm-3.605 18.3a3.1 3.1 0 0 0 .388 1.457 3.057 3.057 0 0 0 4.104 1.186l7.11-3.895 7.158 3.897.039.02c.433.223.912.343 1.398.35h.029a3.05 3.05 0 0 0 3.046-3.045v-18.5c0-2.182-.846-3.921-2.41-5.043-1.466-1.052-3.35-1.406-5.2-1.406h-8.05c-1.914 0-3.82.382-5.285 1.504-1.55 1.186-2.326 2.983-2.326 5.177v18.3zm6.972-16.68a1.802 1.802 0 1 0 0 3.604h9.258a1.803 1.803 0 1 0 0-3.604z" fill-rule="evenodd"/>
 </g>
</svg>
