<svg version="1.1" viewBox="0 0 64 64" xmlns="http://www.w3.org/2000/svg">
 <defs>
  <linearGradient id="a" x1="11.31" x2="11.31" y1="18.83" y2="45.88" gradientTransform="matrix(1.035 0 0 1.139 6.295 -1.333)" gradientUnits="userSpaceOnUse">
   <stop stop-color="#de87cd" offset="0"/>
   <stop stop-color="#fd5" offset="1"/>
  </linearGradient>
 </defs>
 <path transform="translate(5e-4 -5e-5) scale(1) translate(-.003808 .00097) scale(.9999)" d="m12.18 4.998c-1.318-4e-3 -2.631 0.04605-3.928 0.2891-4.546 0.9429-8.135 4.876-8.215 9.188-0.05799 11.26 0.004746 22.53-0.03125 33.8-0.027 1.665 0.1624 3.368 0.9453 4.887 1.659 3.496 5.668 5.873 9.809 5.832 14.31-4e-3 28.63 0.03337 42.94-0.01563 5.406-0.08199 10.21-4.474 10.27-9.461 0.044-6.74 0.01367-13.48 0.01367-20.21 0.16-1.29-0.9045-2.573-2.326-2.66-1.45-0.177-2.882 0.9657-2.846 2.32-0.05 6.027-0.01153 12.06-0.01953 18.09-0.027 1.412 0.1746 2.909-0.5273 4.223-0.8759 1.75-2.888 2.961-4.988 2.953-13.58 0.025-27.16-0.0054-40.74 0.01563-1.292-9e-3 -2.644 0.08149-3.859-0.3965-2.043-0.7579-3.485-2.701-3.449-4.734-0.022-10.86 0.00833-21.7-0.01367-32.56 9e-3 -1.29-0.1091-2.658 0.5488-3.848 0.9559-1.878 3.202-3.061 5.445-2.926 3.264 0.06999 6.55-0.1355 9.805 0.1035 2.347 1.017 3.668 3.296 5.652 4.783 1.623 1.355 3.802 2.101 5.988 2.113 9.549 8e-3 19.1 0.05301 28.65 0.04102 1.225 0.07399 2.4-0.7553 2.629-1.871 0.415-1.441-0.9814-2.985-2.6-2.857-9.401-0.05399-18.81-0.06641-28.21-0.06641-0.9699 0.017-1.971-0.1902-2.744-0.7422-2.102-1.647-3.65-3.873-6.002-5.244-2.468-1.42-5.485-0.9392-8.238-1.018-1.312 0.04-2.633-0.01553-3.951-0.01953z" fill="url(#a)" stroke-width="1.086"/>
 <path transform="translate(5e-4 -5e-5) scale(1)" d="m19.48 50.85c-1.847-0.4593-2.013-3.329-0.2324-4.01 0.3388-0.1303 0.5874-0.152 2.091-0.1987 2.867-0.08687 3.794-0.5798 5.523-2.93 0.632-0.8578 0.6417-0.696-0.08035-1.325-4.984-4.343-6.512-7.401-4.644-9.303l0.6026-0.6135v-1.032c0-5.575 2.966-9.259 8.906-11.06 1.632-0.4941 1.699-0.4354 1.83 1.572l0.08035 1.231 0.86 0.1911c4.83 1.072 6.837 3.505 6.837 8.289v0.7243l0.6341 0.6548c1.808 1.869 0.7829 4.155-3.975 8.871l-1.121 1.109 0.3909 0.5711c1.548 2.256 2.848 2.953 5.675 3.047 2.517 0.08252 3.143 0.5125 3.142 2.154 0 1.729-0.7818 2.187-3.559 2.091-2.83-0.09772-4.016-0.6993-6.641-3.364-1.957-1.987-1.845-1.926-3.644-1.961-1.911-0.03692-1.71-0.1336-3.522 1.705-2.026 2.055-3.045 2.775-4.667 3.296-1.001 0.3214-3.667 0.493-4.487 0.2888zm13.74-9.589c1.427-0.6884 6.058-5.615 6.058-6.444 0-0.2193-0.1976-0.4018-0.8393-0.7775-0.5462-0.3203-0.5266-0.2421-0.5288-2.076 0-3.625-0.8448-4.67-4.53-5.646-0.5494-0.1466-0.5918-0.2117-0.5918-0.9251 0-0.5375 0.03909-0.5158-0.6493-0.3703-4.014 0.8469-5.329 2.479-5.41 6.708l-0.038 1.996-0.7992 0.3105c-1.238 0.4821-1.339 0.6515-0.8741 1.466 0.5255 0.9197 4.387 4.846 5.502 5.592 0.8795 0.5896 1.719 0.6406 2.7 0.1672z" fill="url(#a)" stroke-width="1.086"/>
</svg>
