<svg version="1.1" viewBox="0 0 64 64" xmlns="http://www.w3.org/2000/svg">
 <defs>
  <linearGradient id="a" y1="1">
   <stop stop-color="#d4ff2a" offset="0"/>
   <stop stop-color="#ff0" offset="1"/>
  </linearGradient>
  <linearGradient id="b" x1="1" x2="0" y2="1">
   <stop stop-color="#0f9" offset="0"/>
   <stop stop-color="#14dc57" offset="1"/>
  </linearGradient>
 </defs>
 <path transform="translate(-.005439 -1e-6) scale(.9999) translate(-.0144 .005682) scale(2.909)" d="m16.51-0.001953-6.793 0.001953c-0.8747 1.868e-4 -1.714 0.3482-2.332 0.9668l-4.211 4.211c-0.6186 0.6184-0.9666 1.458-0.9668 2.332v11.19c0 1.808 1.486 3.301 3.295 3.301h11.01c1.808-9.04e-4 3.297-1.492 3.297-3.301v-15.4c0-1.81-1.491-3.299-3.301-3.299zm-6.793 2.201h6.789c0.6205 0 1.1 0.481 1.1 1.102v15.4c0 0.6203-0.4793 1.101-1.1 1.102h-11c-0.6198 0-1.096-0.4787-1.096-1.102v-11.19c6.24e-5 -0.2922 0.1157-0.5728 0.3223-0.7793l4.211-4.209c0.2066-0.2066 0.4852-0.3222 0.7773-0.3223z" fill="url(#b)"/>
 <path transform="translate(-.005439 -1e-6) scale(.9999)" d="m23.36 15.07-7.266 7.266v7.726l5.143-5.143h2.812l1.47e-4 -9.845zm4.671 0-1.48e-4 9.845h7.956l1.48e-4 -9.845zm11.94 0-1.49e-4 9.845h2.812l5.143 5.143 1.48e-4 -11.01c3e-5 -2.204-1.775-3.978-3.978-3.978zm-17.08 13.83-3.978 3.978h-2.812v3.978h2.812l3.978 3.978h18.25l3.978-3.978h2.812v-3.978h-2.812l-3.978-3.978zm-6.793 10.77v11.01c0 2.204 1.775 3.972 3.978 3.972h3.978v-9.843h-2.812zm31.83 0-5.143 5.143h-2.812v9.843h3.978c2.204 0 3.978-1.769 3.978-3.972zm-19.89 5.143v9.843h7.956v-9.843z" fill="url(#a)" stroke-width="2.749"/>
</svg>
