<svg version="1.1" viewBox="0 0 64 64" xmlns="http://www.w3.org/2000/svg">
 <defs>
  <linearGradient id="a" y2="1">
   <stop stop-color="#ff00d4" offset="0"/>
   <stop stop-color="#0040ff" offset="1"/>
  </linearGradient>
  <linearGradient id="b" y2="1">
   <stop stop-color="#feaa00" offset="0"/>
   <stop stop-color="#fd0575" offset=".5"/>
   <stop stop-color="#7b31fe" offset="1"/>
  </linearGradient>
 </defs>
 <path transform="translate(4e-4 .000726) scale(1) translate(.00138 -.000566) scale(1) translate(-.336 -.3359) scale(1.347)" d="m28.34 0.2508c-0.1346-0.00416-0.2726 0.004134-0.4103 0.02755l-10.86 1.847c-0.745 0.127-1.248 0.8351-1.121 1.58s0.8341 1.248 1.579 1.121l8.836-1.502c0.745-0.127 1.453 0.3754 1.58 1.121l0.4103 2.416c-0.1146 0.06334-0.2194 0.1507-0.3059 0.2595l-6.07 5.559c-0.278 0.256-0.7558 0.2832-1.064 0.06525l-4.131-2.93c-0.924-0.656-2.267-0.4828-2.997 0.3842l-5.336 6.338-1.437-8.536c-0.126-0.745 0.3774-1.452 1.122-1.579l3.745-0.6365c0.745-0.127 1.248-0.8365 1.121-1.582s-0.8341-1.245-1.579-1.118l-5.771 0.9802c-1.118 0.19-1.867 1.252-1.673 2.368l1.847 10.62c0.1701 0.9796 1.018 1.793 1.989 1.975 0.3402 0.2351 0.7743 0.2359 1.109 0.03625l22.21-0.1c1.133-5e-3 1.9-0.9175 1.71-2.036l-2.548-14.97c-0.1659-0.9762-0.9948-1.674-1.947-1.71h-0.0058zm-4.765 5.085c-0.1136-0.00377-0.2287 0.00332-0.3451 0.0232-0.932 0.158-1.559 1.044-1.401 1.975 0.159 0.931 1.043 1.559 1.975 1.401 0.931-0.159 1.56-1.044 1.401-1.975-0.1382-0.8146-0.8344-1.397-1.63-1.424zm5.188 3.929 1.038 6.1c0.127 0.745-0.3825 1.393-1.137 1.447l-18.56 1.335c-0.1039 0.007443-0.2079 0.003231-0.3088-0.0116l5.348-6.132c0.249-0.285 0.7015-0.3393 1.009-0.1203l4.037 2.864c0.925 0.656 2.337 0.5502 3.152-0.2378l5.421-5.245z" fill="url(#b)"/>
 <path transform="translate(4e-4 .000726) scale(1) translate(.00138 -.000566) scale(1) matrix(1.347 0 0 1.347 -.336 -.3359)" d="m6.552 16.38c-2.875 0-5.208 2.334-5.208 5.209v4.846c0 0.04 3.242e-4 0.07965 0.00732 0.1186-7e-3 0.038-0.00732 0.07765-0.00732 0.1186v13.28c0 2.874 2.332 5.208 5.208 5.208h10.94l-1.824-3.905-1.042 0.2593h-6.511c-1.724 0-3.124-1.4-3.124-3.124v-11.72c0-0.041-0.00179-0.08065-0.00879-0.1186 7e-3 -0.039 0.00879-0.07865 0.00879-0.1186v-3.284c0-1.724 1.4-3.124 3.124-3.124h31.77c1.724 0 3.124 1.4 3.124 3.124v15.24c0 1.725-1.4 3.124-3.124 3.124h-5.66l-2.675 3.646h9.896c2.875 0 5.208-2.334 5.208-5.208v-18.36c0-2.875-2.332-5.209-5.208-5.209zm27.67 25.14 0.1904-0.2593-1.042 0.2593zm-24.81-19.69c-0.835 0-1.513 0.6777-1.513 1.512s0.6782 1.512 1.513 1.512c0.834 0 1.51-0.6777 1.51-1.512s-0.6762-1.512-1.51-1.512z" fill="url(#a)"/>
 <path transform="translate(4e-4 .000726) scale(1) translate(.00138 -.000566) scale(1) matrix(1.347 0 0 1.347 -.336 -.3359)" d="m24.52 21.23c-3.521 0-6.895 1.401-9.382 3.879-2.486 2.486-3.879 5.861-3.879 9.382 0 3.511 1.393 6.886 3.879 9.372 2.487 2.487 5.861 3.888 9.382 3.888 3.511 0 6.885-1.401 9.372-3.888 2.486-2.486 3.888-5.861 3.888-9.372 0-3.521-1.402-6.896-3.888-9.382-2.487-2.478-5.861-3.879-9.372-3.879zm0 2.564c2.836 0 5.552 1.128 7.56 3.136 2.008 1.999 3.136 4.724 3.136 7.562 0 2.836-1.128 5.562-3.136 7.562-2.008 2.008-4.724 3.136-7.56 3.136-2.837 0-5.563-1.128-7.57-3.136-2-1.999-3.127-4.726-3.127-7.562 0-2.837 1.127-5.562 3.127-7.562 2.007-2.008 4.733-3.136 7.57-3.136zm-0.0029 1.582c-2.417 0-4.74 0.9595-6.448 2.668s-2.668 4.03-2.668 6.447 0.9595 4.74 2.668 6.448 4.031 2.668 6.448 2.668c0.864 0 1.718-0.1248 2.542-0.3648 0.695-0.201 1.097-0.9253 0.895-1.614-0.201-0.69-0.9243-1.087-1.614-0.8862-0.594 0.177-1.208 0.2607-1.822 0.2607-1.729 0-3.386-0.6882-4.604-1.907-1.219-1.218-1.907-2.875-1.907-4.604s0.6882-3.385 1.907-4.604c1.218-1.219 2.875-1.906 4.604-1.906s3.385 0.6868 4.604 1.906 1.906 2.875 1.906 4.604c0 1.219-0.3428 2.417-0.9888 3.448-0.38 0.609-0.193 1.415 0.416 1.797 0.61 0.382 1.412 0.1984 1.792-0.4116 0.906-1.447 1.386-3.126 1.386-4.834 0-2.417-0.958-4.739-2.666-6.447-1.709-1.708-4.031-2.668-6.448-2.668z" fill="url(#a)"/>
</svg>
