<svg version="1.1" viewBox="0 0 64 64" xmlns="http://www.w3.org/2000/svg" xmlns:xlink="http://www.w3.org/1999/xlink">
 <defs>
  <linearGradient id="a" x2="0" y1="1">
   <stop stop-color="#0357d1" offset="0"/>
   <stop stop-color="#27cdfc" offset="1"/>
  </linearGradient>
  <linearGradient id="c" y1="1">
   <stop stop-color="#fea51d" offset="0"/>
   <stop stop-color="#ff0a76" offset="1"/>
  </linearGradient>
  <linearGradient id="b" y1="1">
   <stop stop-color="#8b00fc" offset="0"/>
   <stop stop-color="#ff33db" offset="1"/>
  </linearGradient>
  <linearGradient id="e" x1="2.159" x2="22.11" y1="19.95" gradientTransform="scale(.9067 1.103)" gradientUnits="userSpaceOnUse" xlink:href="#b"/>
  <linearGradient id="d" x1="1.789" x2="15.16" y1="25.41" y2="12.04" gradientTransform="scale(1.298 .7703)" gradientUnits="userSpaceOnUse" xlink:href="#b"/>
 </defs>
 <path transform="translate(5e-4) scale(1) translate(-.003)" d="M13.24 0c-1.511 0-2.935.619-4.008 1.74a5.78 5.78 0 0 0-1.617 4.01v52.6a5.63 5.63 0 0 0 5.625 5.625h37.5a5.63 5.63 0 0 0 5.625-5.625V5.75c0-3.108-2.512-5.75-5.625-5.75zm-.006 3.728h.008l-.002.021h37.5c.998 0 1.875.935 1.875 2v52.6a1.877 1.877 0 0 1-1.875 1.875H26.26c-.081-.74-1.348-2.377-3.113-4.309a5.8 5.8 0 0 1-1.35 1.096 5.7 5.7 0 0 1-1.346.569c1.164 1.26 1.979 2.275 2.039 2.682h-9.24a1.877 1.877 0 0 1-1.875-1.875l-.004-9.244c.185.026 1.055.733 2.234 1.78.236-.962.697-1.946 1.38-2.907-1.805-1.564-3.218-2.64-3.626-2.688v-39.6c0-1.066.877-2 1.875-2z" fill="url(#a)"/>
 <path transform="translate(5e-4) scale(1) translate(-.003)" d="m16.98 7.625a1.875 1.875 0 1 0 0 3.75 1.875 1.875 0 0 0 0-3.75" fill="url(#c)"/>
 <path transform="translate(5e-4) scale(1) translate(-.003)" d="m46.98 7.625a1.875 1.875 0 1 0 0 3.75 1.875 1.875 0 0 0 0-3.75" fill="url(#c)"/>
 <path transform="translate(5e-4) scale(1) translate(-.003)" d="m39.49 45.25a1.875 1.875 0 1 0 0 3.75h7.5a1.875 1.875 0 1 0 0-3.75z" fill="url(#c)"/>
 <path transform="translate(5e-4) scale(1) translate(-.003)" d="m39.49 52.75a1.875 1.875 0 1 0 0 3.75h7.5a1.875 1.875 0 1 0 0-3.75z" fill="url(#c)"/>
 <g transform="translate(5e-4) scale(1) matrix(1.464 0 0 1.464 16.13 8.421)">
  <path transform="translate(-7e-5)" d="m11 0c-3.093 0-5.623 2.53-5.623 5.623v1.66c-1.634 0.5672-2.911 1.936-3.148 3.703-0.1462 1.086-0.2715 2.234-0.2715 3.432s0.1253 2.346 0.2715 3.434c0.2971 2.207 2.13 3.942 4.377 4.047 1.403 0.06447 2.828 0.09961 4.394 0.09961s2.994-0.03514 4.396-0.09961c2.246-0.1033 4.076-1.839 4.375-4.047 0.1462-1.086 0.2734-2.233 0.2734-3.434s-0.1272-2.347-0.2734-3.432c-0.2381-1.768-1.513-3.136-3.146-3.703v-1.66c0-3.093-2.53-5.623-5.623-5.623zm0 2.451c1.769-1e-7 3.172 1.403 3.172 3.172v1.277c-1.021-0.03335-2.05-0.05859-3.172-0.05859-1.121 0-2.151 0.02525-3.172 0.05859v-1.277c0-1.769 1.403-3.172 3.172-3.172zm0 6.842c1.531 0 2.917 0.03292 4.283 0.0957 1.041 0.04786 1.916 0.8681 2.059 1.926 0.1405 1.044 0.252 2.08 0.252 3.104s-0.1115 2.062-0.252 3.106c-0.1424 1.057-1.017 1.88-2.059 1.928-1.366 0.06276-2.751 0.0957-4.283 0.0957s-2.917-0.03294-4.283-0.0957c-1.041-0.04786-1.916-0.87-2.059-1.928-0.1405-1.044-0.252-2.082-0.252-3.106s0.1114-2.06 0.252-3.104c0.1424-1.057 1.017-1.878 2.059-1.926 1.366-0.0628 2.752-0.0957 4.283-0.0957z" fill="url(#e)"/>
  <path d="m5.79 9.273v3.434h3.407v3.428h3.434v-3.432h-3.407v-3.43zm6.865 0v3.434h3.434v3.428h3.589v-3.432h-3.589v-3.43zm-10.33 3.43v3.434h3.436v-3.434zm3.436 3.434v3.434h3.434v-3.434zm6.871 0v3.434h3.434v-3.434z" fill="url(#d)" opacity=".6" stroke-width="1.01"/>
 </g>
 <path transform="translate(5e-4) scale(1) translate(-.003)" d="m27.09 34.27-.004.004a1.92 1.92 0 0 0-1.604.713l-10.19 12.61-.023.03c-1.53 1.97-2.12 4.055-1.738 5.888s1.699 3.217 3.254 3.848a5.7 5.7 0 0 0 5.014-.355c1.58-.923 2.775-2.687 3.207-5.012q0-.005.002-.01l3.842-15.33a1.92 1.92 0 0 0-1.006-2.188 1.9 1.9 0 0 0-.75-.2zm-4.094 9.906-1.742 6.941a2 2 0 0 0-.027.13c-.269 1.508-.847 2.13-1.373 2.439a1.84 1.84 0 0 1-1.625.113c-.5-.203-.83-.552-.938-1.07s-.032-1.403 1.01-2.746v-.002h.002v-.002z" fill="url(#c)"/>
</svg>
