<svg version="1.1" viewBox="0 0 64 64" xmlns="http://www.w3.org/2000/svg">
 <defs>
  <linearGradient id="a" y1="1">
   <stop stop-color="#00ffe0" offset="0"/>
   <stop stop-color="#078aa7" offset="1"/>
  </linearGradient>
 </defs>
 <path transform="translate(-0) scale(1) translate(-0 4e-5) scale(1) translate(-0 -4e-5) scale(.9999) translate(.000101 .00192) scale(2.909) matrix(.3438 0 0 .3438 .000653 .000928)" d="m7.102 5.836c-3.921 0-7.104 3.196-7.104 7.117v28.43c0 2.015 0.8414 3.842 2.191 5.137a1.829 1.829 0 0 0 0.1211 0.1387l10.98 10.97a1.829 1.829 0 0 0 3.113-1.293v-7.838h40.48c3.921 0 7.115-3.196 7.115-7.117v-28.43c0-3.921-3.194-7.115-7.115-7.115zm0 5.336h49.78c0.9777 0 1.779 0.8039 1.779 1.781v28.43c0 0.9777-0.8019 1.779-1.779 1.779h-49.78c-0.9777 0-1.773-0.8019-1.773-1.779v-28.43c0-0.9777 0.7958-1.781 1.773-1.781z" fill="url(#a)"/>
 <path transform="translate(-0) scale(1) translate(-0 4e-5) scale(1) translate(-0 -4e-5) scale(.9999) translate(.000101 .00192) scale(2.909) matrix(.3438 0 0 .3438 .000653 .000928)" d="m31.11 15.61c-0.9777 0-1.784 0.8067-1.784 1.784v1.772c0 0.9777 0.8067 1.772 1.784 1.772h1.778c0.9777 0 1.772-0.7952 1.772-1.772v-1.772c0-0.9777-0.7955-1.784-1.772-1.784zm-8.874 8.891c-0.9777 0-1.778 0.7956-1.778 1.772v1.784c0 0.9777 0.8011 1.778 1.778 1.778h1.778c0.9777 0 1.772-0.801 1.772-1.778v-1.784c0-0.9777-0.7952-1.772-1.772-1.772zm-2.659 9.777c-0.9777 0-1.778 0.7956-1.778 1.772v1.784c0 0.9777 0.8009 1.772 1.778 1.772h24.88c0.9777 0 1.784-0.7953 1.784-1.772v-1.784c0-0.9777-0.8067-1.772-1.784-1.772z" fill="#00ff80"/>
 <path transform="translate(-0) scale(1) translate(-0 4e-5) scale(1) translate(-0 -4e-5) scale(.9999) translate(.000101 .00192) scale(2.909) matrix(.3438 0 0 .3438 .000653 .000928)" d="m13.33 15.61c-0.9777 0-1.772 0.8067-1.772 1.784v1.772c0 0.9777 0.7952 1.772 1.772 1.772h1.778c0.9777 0 1.778-0.7952 1.778-1.772v-1.772c0-0.9777-0.8012-1.784-1.778-1.784zm8.896 0c-0.9777 0-1.778 0.8067-1.778 1.784v1.772c0 0.9777 0.8011 1.772 1.778 1.772h1.772c0.9777 0 1.772-0.7952 1.772-1.772v-1.772c0-0.9777-0.7953-1.784-1.772-1.784zm17.77 0c-0.9777 0-1.778 0.8067-1.778 1.784v1.772c0 0.9777 0.801 1.772 1.778 1.772h1.778c0.9777 0 1.778-0.7952 1.778-1.772v-1.772c0-0.9777-0.801-1.784-1.778-1.784zm8.885 0c-0.9777 0-1.772 0.8067-1.772 1.784v1.772c0 0.9777 0.7953 1.772 1.772 1.772h1.784c0.9777 0 1.772-0.7952 1.772-1.772v-1.772c0-0.9777-0.7956-1.784-1.772-1.784zm-35.53 8.891c-0.9777 0-1.778 0.7956-1.778 1.772v1.784c0 0.9777 0.801 1.778 1.778 1.778h1.778c0.9777 0 1.772-0.801 1.772-1.778v-1.784c0-0.9777-0.7956-1.772-1.772-1.772zm17.78 0c-0.9777 0-1.778 0.7956-1.778 1.772v1.784c0 0.9777 0.801 1.778 1.778 1.778h1.784c0.9777 0 1.772-0.801 1.772-1.778v-1.784c0-0.9777-0.7956-1.772-1.772-1.772zm8.891 0c-0.9777 0-1.778 0.7956-1.778 1.772v1.784c0 0.9777 0.801 1.778 1.778 1.778h1.772c0.9777 0 1.784-0.801 1.784-1.778v-1.784c0-0.9777-0.8067-1.772-1.784-1.772zm8.885 0c-0.9777 0-1.772 0.7956-1.772 1.772v1.784c0 0.9777 0.7953 1.778 1.772 1.778h1.778c0.9777 0 1.772-0.801 1.772-1.778v-1.784c0-0.9777-0.7956-1.772-1.772-1.772z" fill="url(#a)"/>
</svg>
