<svg xmlns="http://www.w3.org/2000/svg" fill="none" viewBox="0 0 64 64"><defs><linearGradient id="a" x1="11.07" x2="11.07" y1="20.62" y2="1.375" gradientUnits="userSpaceOnUse"><stop offset="0" stop-color="#0028ff"/><stop offset=".521" stop-color="#36a0ff"/><stop offset="1" stop-color="#4dd3ff"/></linearGradient><linearGradient id="b" x1="11.89" x2="11.89" y1="15.49" y2="3.942" gradientUnits="userSpaceOnUse"><stop offset="0" stop-color="#fd7900"/><stop offset="1" stop-color="#faff00"/></linearGradient></defs><path fill="url(#a)" fill-rule="evenodd" d="M2.782 2.658a.05.05 0 0 0-.05.05v16.63c.092 0-.027 0 0 0l.593.002c.381.002.691-.306.691-.688v-1.188c0-.38.308-.687.688-.687h5.042c.38 0 .687.308.687.687v1.192c0 .38.308.688.688.688h.034c.38 0 .687-.308.687-.688v-1.192c0-.38.308-.687.688-.687h5.042c.38 0 .687.308.687.687v1.88h-2.807 3.915a.05.05 0 0 0 .05-.05V2.714a.05.05 0 0 0-.05-.05H2.787zm-1.333.05c0-.737.597-1.334 1.333-1.334h16.58c.736 0 1.333.597 1.333 1.333v16.58c0 .736-.597 1.333-1.333 1.333H2.782a1.333 1.333 0 0 1-1.333-1.333z" clip-rule="evenodd" transform="translate(-3.706 -3.467)scale(3.22368)"/><path stroke="url(#a)" stroke-linejoin="round" stroke-width=".6" d="M2.733 19.34V2.71a.05.05 0 0 1 .05-.05h16.58a.05.05 0 0 1 .049.05v16.58a.05.05 0 0 1-.05.05h-3.915 2.807v-1.88a.687.687 0 0 0-.687-.687h-5.042a.687.687 0 0 0-.688.687v1.192c0 .38-.307.688-.687.688h-.034a.687.687 0 0 1-.688-.688V17.46a.69.69 0 0 0-.687-.687H4.699a.687.687 0 0 0-.688.687v1.188c0 .381-.31.69-.69.688l-.593-.003zm0 0c-.027 0 .092 0 0 0zM1.45 2.71c0-.736.597-1.333 1.333-1.333h16.58c.736 0 1.333.597 1.333 1.333v16.58c0 .736-.597 1.333-1.333 1.333H2.783A1.333 1.333 0 0 1 1.45 19.29z" transform="translate(-3.706 -3.467)scale(3.22368)"/><path fill="url(#b)" d="M9.191 3.942a1.966 1.966 0 0 0-1.147 3.561c.3.215.656-.052.656-.421 0-.202-.118-.38-.25-.532a.982.982 0 1 1 1.724-.643c0 .083.03.164.095.215l.153.118c.29.226.718.11.733-.257l.002-.076A1.966 1.966 0 0 0 9.19 3.941zm1.107 2.814a.688.688 0 0 0-1.106.546l.004 6.126c0 .66.842.94 1.238.412l1.5-2.004a.69.69 0 0 1 .55-.276h2.052c.657 0 .94-.833.418-1.233l-4.657-3.57z" transform="translate(-3.706 -3.467)scale(3.22368)"/></svg>