<svg version="1.1" viewBox="0 0 64 64" xmlns="http://www.w3.org/2000/svg">
 <defs>
  <linearGradient id="a" y1=".5" y2=".5">
   <stop stop-color="#46d9ff" offset="0"/>
   <stop stop-color="#ff23ff" offset=".5"/>
   <stop stop-color="#ffd93f" offset="1"/>
  </linearGradient>
 </defs>
 <path transform="translate(0) scale(1) translate(0) scale(1) translate(-.00029 1.9e-5) scale(1) translate(-2.909 -2.909) scale(2.909)" d="m6 1c-0.5487 0.001333-1.019 0.1972-1.412 0.5879-0.3927 0.3907-0.5886 0.8614-0.5879 1.412s0.1966 1.021 0.5879 1.412c0.3913 0.3913 0.8621 0.5879 1.412 0.5879 0.5527 0.002667 1.023-0.1939 1.412-0.5879 0.3893-0.394 0.5859-0.8641 0.5879-1.412s-0.1946-1.019-0.5879-1.412c-0.3933-0.3933-0.8634-0.5892-1.412-0.5879zm6 0c-0.5487 0.001333-1.019 0.1972-1.412 0.5879-0.3927 0.3907-0.5886 0.8614-0.5879 1.412 6.67e-4 0.5507 0.1966 1.021 0.5879 1.412 0.3913 0.3913 0.8621 0.5879 1.412 0.5879 0.5527 0.002667 1.023-0.1939 1.412-0.5879 0.3893-0.394 0.5859-0.8641 0.5879-1.412s-0.1946-1.019-0.5879-1.412c-0.3933-0.3933-0.8634-0.5892-1.412-0.5879zm6 0c-0.5487 0.001333-1.019 0.1972-1.412 0.5879-0.3927 0.3907-0.5886 0.8614-0.5879 1.412s0.1966 1.021 0.5879 1.412c0.3913 0.3913 0.8621 0.5879 1.412 0.5879 0.5527 0.002667 1.023-0.1939 1.412-0.5879 0.3893-0.394 0.5859-0.8641 0.5879-1.412s-0.1946-1.019-0.5879-1.412c-0.3933-0.3933-0.8634-0.5892-1.412-0.5879zm-12 6c-0.5487 0.001333-1.019 0.1972-1.412 0.5879-0.3927 0.3907-0.5886 0.8614-0.5879 1.412s0.1966 1.021 0.5879 1.412c0.3913 0.3913 0.8621 0.5879 1.412 0.5879 0.5527 0.002667 1.023-0.1939 1.412-0.5879 0.3893-0.394 0.5859-0.8641 0.5879-1.412s-0.1946-1.019-0.5879-1.412c-0.3933-0.3933-0.8634-0.5892-1.412-0.5879zm6 0c-0.5487 0.001333-1.019 0.1972-1.412 0.5879-0.3927 0.3907-0.5886 0.8614-0.5879 1.412 6.67e-4 0.5507 0.1966 1.021 0.5879 1.412 0.3913 0.3913 0.8621 0.5879 1.412 0.5879 0.5527 0.0027 1.023-0.1939 1.412-0.5879 0.3893-0.394 0.5859-0.8641 0.5879-1.412s-0.1946-1.019-0.5879-1.412c-0.3933-0.3933-0.8634-0.5892-1.412-0.5879zm6 0c-0.5487 0.001333-1.019 0.1972-1.412 0.5879-0.3927 0.3907-0.5886 0.8614-0.5879 1.412s0.1966 1.021 0.5879 1.412c0.3913 0.3913 0.8621 0.5879 1.412 0.5879 0.5527 0.0027 1.023-0.1939 1.412-0.5879 0.3893-0.394 0.5859-0.8641 0.5879-1.412s-0.1946-1.019-0.5879-1.412c-0.3933-0.3933-0.8634-0.5892-1.412-0.5879zm-12 6c-0.5487 0.001333-1.019 0.1972-1.412 0.5879-0.3927 0.3907-0.5886 0.8614-0.5879 1.412s0.1966 1.021 0.5879 1.412c0.3913 0.3913 0.8621 0.5879 1.412 0.5879 0.5527 0.002667 1.023-0.1939 1.412-0.5879 0.3893-0.394 0.5859-0.8641 0.5879-1.412s-0.1946-1.019-0.5879-1.412c-0.3933-0.3933-0.8634-0.5892-1.412-0.5879zm6 0c-0.5487 0.0013-1.019 0.1972-1.412 0.5879-0.3927 0.3907-0.5886 0.8614-0.5879 1.412 6.67e-4 0.5507 0.1966 1.021 0.5879 1.412 0.3913 0.3913 0.8621 0.5879 1.412 0.5879 0.5527 0.0027 1.023-0.1939 1.412-0.5879 0.3893-0.394 0.5859-0.8641 0.5879-1.412s-0.1946-1.019-0.5879-1.412c-0.3933-0.3933-0.8634-0.5892-1.412-0.5879zm6 0c-0.5487 0.0013-1.019 0.1972-1.412 0.5879-0.3927 0.3907-0.5886 0.8614-0.5879 1.412s0.1966 1.021 0.5879 1.412c0.3913 0.3913 0.8621 0.5879 1.412 0.5879 0.5527 0.0027 1.023-0.1939 1.412-0.5879 0.3893-0.394 0.5859-0.8641 0.5879-1.412s-0.1946-1.019-0.5879-1.412c-0.3933-0.3933-0.8634-0.5892-1.412-0.5879zm-6 6c-0.5487 0.0013-1.019 0.1972-1.412 0.5879-0.3927 0.3907-0.5886 0.8614-0.5879 1.412 6.67e-4 0.5507 0.1966 1.021 0.5879 1.412 0.3913 0.3913 0.8621 0.5879 1.412 0.5879 0.5527 0.0027 1.023-0.1939 1.412-0.5879 0.3893-0.394 0.5859-0.8641 0.5879-1.412s-0.1946-1.019-0.5879-1.412c-0.3933-0.3933-0.8634-0.5892-1.412-0.5879z" fill="url(#a)"/>
</svg>
