<svg version="1.1" viewBox="0 0 64 64" xmlns="http://www.w3.org/2000/svg">
 <defs>
  <linearGradient id="a" y1=".5" y2=".5">
   <stop stop-color="#00fffa" offset="0"/>
   <stop stop-color="#0078ff" offset="1"/>
  </linearGradient>
 </defs>
 <path transform="translate(-0 2e-5) scale(1) translate(.002673 .005739) scale(.9998) translate(-.01758 -.01764) scale(1) translate(-39.62 -51.81) scale(2.095)" d="m46.56 27.65a2.91 2.91 0 0 0-2.911 2.91v10.18h-14.8l0.8549-0.8549a2.91 2.91 0 0 0 0-4.115 2.91 2.91 0 0 0-2.057-0.8512l9.32e-4 9.32e-4a2.91 2.91 0 0 0-2.059 0.8512l-5.817 5.82a2.91 2.91 0 0 0-0.2508 0.2862 2.91 2.91 0 0 0-9.32e-4 9.33e-4 2.91 2.91 0 0 0-0.3235 0.5454 2.91 2.91 0 0 0-0.05594 0.1119 2.91 2.91 0 0 0 0 9.33e-4 2.91 2.91 0 0 0-0.1221 0.3589 2.91 2.91 0 0 0-0.09975 0.7542 2.91 2.91 0 0 0 0.0261 0.3785 2.91 2.91 0 0 0 0.055 0.2797 2.91 2.91 0 0 0 0.02051 0.09975 2.91 2.91 0 0 0 0.08391 0.248 2.91 2.91 0 0 0 0.04102 0.1165 2.91 2.91 0 0 0 0.1109 0.2228 2.91 2.91 0 0 0 0.06433 0.1249 2.91 2.91 0 0 0 0.1333 0.2004 2.91 2.91 0 0 0 0.08204 0.1175 2.91 2.91 0 0 0 0.1566 0.179 2.91 2.91 0 0 0 0.07924 0.0895l0.0606 0.0606 5.757 5.758a2.91 2.91 0 0 0 4.115 0 2.91 2.91 0 0 0 0-4.113l-0.8512-0.8521h17.71a2.91 2.91 0 0 0 2.91-2.91v-13.09a2.91 2.91 0 0 0-2.91-2.91z" fill="url(#a)"/>
</svg>
