<svg version="1.1" viewBox="0 0 64 64" xmlns="http://www.w3.org/2000/svg">
 <defs>
  <linearGradient id="a" x2="0" y1="1">
   <stop stop-color="#07f" offset="0"/>
   <stop stop-color="#00f7ff" offset="1"/>
  </linearGradient>
  <linearGradient id="b" x2="0" y1="1">
   <stop stop-color="#ff0015" offset="0"/>
   <stop stop-color="#fc00a3" offset="1"/>
  </linearGradient>
 </defs>
 <path transform="translate(0) scale(1) translate(0) scale(1) translate(0) scale(1) translate(-3e-5) scale(1) translate(-.00316) scale(.9999) translate(-0) scale(2.91) translate(-.6958 -.001906)" d="m12.65 0.001953-7.244 0.001953c-2.28-0.005544-4.129 1.841-4.125 4.121v9.623c0 2.75 1.376 4.124 4.125 5.498l5.506 2.752 5.49-2.752c2.743-1.375 4.123-2.749 4.123-5.498v-3.121a1 1 0 0 0-1-1.002h-0.748a1 1 0 0 0-1 1.002v3.121c0 0.7619-0.6131 1.375-1.375 1.375h-11c-0.7605 0.0028-1.378-0.6145-1.375-1.375v-9.623c0-0.7619 0.6131-1.375 1.375-1.375h7.248a1 1 0 0 0 1-1v-0.748a0.9998 0.9998 0 0 0-1-1z" fill="url(#a)" opacity=".6"/>
 <path transform="translate(0) scale(1) translate(0) scale(1) translate(0) scale(1) translate(-3e-5) scale(1) translate(-.00316) scale(.9999) translate(-0) scale(2.91) translate(-.6958 -.001906)" d="m10.97 4.242c-0.1367 0.00405-0.3007 0.0415-0.4551 0.1445-0.1175 0.07844-0.2313 0.1965-0.3047 0.3555-5e-3 0.01078-0.0091 0.02204-0.01367 0.0332-0.07083 0.1699-0.1787 0.4277-0.252 0.6035-0.4572 1.097-1.567 3.761-1.773 4.256-0.2166 0.5197-0.3663 0.8824-0.5977 1.438-0.01322 0.03174-0.3464 0.8314-0.3223 0.7734-0.04484 0.1077-0.06696 0.2218-0.06641 0.3359 5.432e-4 0.1113 0.02196 0.221 0.06445 0.3242 0.0416 0.1011 0.1041 0.1963 0.1836 0.2773 0.07834 0.07985 0.1727 0.1453 0.2832 0.1914 0.1091 0.04552 0.2245 0.06891 0.3379 0.06836 0.1121-5.48e-4 0.2217-0.02422 0.3242-0.06641 0.1018-0.04189 0.1968-0.1026 0.2773-0.1816 0.08037-0.07885 0.1456-0.1753 0.1914-0.2852l0.5156-1.234h3.264c0.07579 0.1818 0.1506 0.3603 0.2227 0.5332 0.09434 0.2264 0.1924 0.4599 0.293 0.7012 0.04526 0.1085 0.1099 0.2052 0.1914 0.2852 0.07953 0.07802 0.1742 0.1392 0.2773 0.1816 0.1012 0.04167 0.2108 0.06586 0.3242 0.06641 0.112 5.48e-4 0.2275-0.02231 0.3379-0.06836 0.1092-0.04556 0.2039-0.1106 0.2832-0.1914 0.07857-0.08009 0.1415-0.175 0.1836-0.2773 0.04194-0.1019 0.0639-0.2115 0.06445-0.3242 5.51e-4 -0.1127-0.02062-0.2282-0.06641-0.3379-0.0071-0.01718-0.315-0.754-0.3223-0.7715-0.06891-0.1654-0.4292-1.034-0.5606-1.35-0.0055-0.01337-0.01437-0.0341-0.02539-0.06055-0.0073-0.01741 0.0019 0.00539-0.01172-0.02734-0.2572-0.6171-1.761-4.225-2.025-4.859-0.0031-0.00735-7e-3 -0.01493-0.0098-0.02148v-0.00195c-0.04224-0.1015-0.04635-0.1077-0.0039-0.00586-0.06818-0.1528-0.1771-0.2755-0.3027-0.3594-0.1471-0.09821-0.3155-0.1445-0.4805-0.1445-0.0081 0-0.01706-2.466e-4 -0.02539 0zm0.02539 3.115 0.9121 2.188h-1.824z" fill="url(#a)" opacity=".6"/>
 <path transform="translate(0) scale(1) translate(0) scale(1) translate(0) scale(1) translate(-3e-5) scale(1) translate(-.00316) scale(.9999) translate(-0) scale(2.91)" d="m17.24 7.635a1.252 1.252 0 0 1-0.8836-0.3654l-2.924-2.922a1.252 1.252 0 0 1-0.4007-0.9401 1.252 1.252 0 0 1 1.231-1.231 1.252 1.252 0 0 1 0.9379 0.4007l2.04 2.038 2.039-2.038a1.252 1.252 0 0 1 1.767 0 1.252 1.252 0 0 1 0.3664 0.8857h-0.0011a1.252 1.252 0 0 1-0.3664 0.8846l-2.921 2.922a1.252 1.252 0 0 1-0.8846 0.3654z" fill="url(#b)" opacity=".6" stroke-width=".5329"/>
</svg>
