<svg fill="none" version="1.1" viewBox="0 0 64 64" xmlns="http://www.w3.org/2000/svg">
 <defs>
  <linearGradient id="a" x1="7.607" x2="13.66" y1="20.36" y2="12.25" gradientUnits="userSpaceOnUse">
   <stop stop-color="#fe0844" offset="0"/>
   <stop stop-color="#feb302" offset="1"/>
  </linearGradient>
  <linearGradient id="c" x1="1" x2="25.13" y1="21.5" y2="10.98" gradientUnits="userSpaceOnUse">
   <stop stop-color="#0357d1" offset="0"/>
   <stop stop-color="#27cdfc" offset="1"/>
  </linearGradient>
 </defs>
 <path transform="translate(-0) scale(1) translate(-0) scale(1) translate(-0) scale(1) translate(-0) scale(1) translate(-0) scale(1) translate(-.000321 -.000479) scale(1) translate(.001473 -.000921) scale(1) translate(-3.21 -4.789) scale(3.2)" d="M16.32 21.18v-5.968a.97.97 0 0 0-.968-.968h-8.71a.97.97 0 0 0-.968.968v5.968" stroke="url(#a)" stroke-width="2"/>
 <path transform="translate(-0) scale(1) translate(-0) scale(1) translate(-0) scale(1) translate(-0) scale(1) translate(-0) scale(1) translate(-.000321 -.000479) scale(1) translate(.001473 -.000921) scale(1) translate(-3.21 -4.789) scale(3.2)" d="M6 19.83h10l-.52 1.302H6zm11.67 0h1.667V8.16q0-.183-.13-.501-.13-.32-.26-.45l-3.66-3.659q-.13-.13-.442-.26-.313-.13-.508-.13v5.417q0 .52-.365.885a1.2 1.2 0 0 1-.885.365h-7.5q-.521 0-.886-.365a1.2 1.2 0 0 1-.364-.885V3.16H2.67v16.67h3.333c.468 0-1.91.66-1.667.417s.538-.365.885-.365h10.83q.521 0 .885.365c.244.243-1.458-.417-.937-.417h1.667zm-5-12.08V3.583a.4.4 0 0 0-.124-.293.4.4 0 0 0-.293-.124h-2.5a.4.4 0 0 0-.293.124.4.4 0 0 0-.123.293V7.75q0 .169.123.293c.123.124.18.124.293.124h2.5a.4.4 0 0 0 .293-.124.4.4 0 0 0 .124-.293m8.333.417v12.08q0 .52-.364.885a1.2 1.2 0 0 1-.886.365h-17.5q-.52 0-.885-.365a1.2 1.2 0 0 1-.365-.885v-17.5q0-.522.365-.886c.365-.364.538-.364.885-.364h12.08q.521 0 1.146.26.626.26.99.625l3.645 3.646q.366.365.625.99.261.624.261 1.146z" fill="url(#c)"/>
</svg>
