<svg version="1.1" viewBox="0 0 64 64" xmlns="http://www.w3.org/2000/svg">
 <defs>
  <linearGradient id="b" x2="0" y2="1">
   <stop stop-color="#f0f" offset="0"/>
   <stop stop-color="#ff0080" offset="1"/>
  </linearGradient>
  <linearGradient id="a" x2="0" y1="1">
   <stop stop-color="#43e97b" offset="0"/>
   <stop stop-color="#38f9d7" offset="1"/>
  </linearGradient>
 </defs>
 <path transform="translate(0 2e-5) scale(1) translate(0) scale(1) matrix(2.909 0 0 2.909 0 .001436)" d="m4.383 1.322c-2.421 7.334e-4 -4.383 1.962-4.383 4.383v7.941c0 2.306 1.786 4.174 4.047 4.35 0.1952 1.501 1.428 2.682 2.982 2.682h7.943c1.554 0 2.787-1.18 2.982-2.682 2.261-0.1747 4.047-2.044 4.047-4.35v-7.941c0-2.421-1.961-4.383-4.383-4.383h-13.23zm0 2.15h13.23a2.22 2.22 0 0 1 2.234 2.232v7.941a2.22 2.22 0 0 1-2.234 2.234 1.737 1.737 0 0 0-1.736 1.736 0.899 0.899 0 0 1-0.9102 0.9102h-7.941a0.899 0.899 0 0 1-0.9102-0.9102 1.737 1.737 0 0 0-1.736-1.736 2.22 2.22 0 0 1-2.232-2.234v-7.941a2.22 2.22 0 0 1 2.232-2.232z" fill="url(#b)"/>
 <path transform="translate(0 2e-5) scale(1) translate(0) scale(1) translate(0 4e-5) scale(1) translate(0 -.001513) scale(2.909) translate(0 .001) scale(.9999)" d="m16.29 5.707c-0.733 0-1.322 0.5909-1.322 1.324v5.293c0 0.733 0.5889 1.324 1.322 1.324 0.7333 0 1.324-0.5909 1.324-1.324v-5.293c0-0.733-0.5909-1.324-1.324-1.324z" fill="url(#a)"/>
 <path transform="translate(0 2e-5) scale(1) translate(0) scale(1) translate(0 4e-5) scale(1) translate(0 -.001513) scale(2.909) translate(0 .001) scale(.9999)" d="m11 5.707c-0.733 0-1.324 0.5909-1.324 1.324v5.293c0 0.733 0.5909 1.324 1.324 1.324 0.7333 0 1.324-0.5909 1.324-1.324v-5.293c0-0.733-0.5909-1.324-1.324-1.324z" fill="url(#a)"/>
 <path transform="translate(0 2e-5) scale(1) translate(0) scale(1) translate(0 4e-5) scale(1) translate(0 -.001513) scale(2.909) translate(0 .001) scale(.9999)" d="m5.707 5.707c-0.733 0-1.324 0.5909-1.324 1.324v5.293c0 0.733 0.5909 1.324 1.324 1.324 0.733 0 1.324-0.5909 1.324-1.324v-5.293c0-0.733-0.5909-1.324-1.324-1.324z" fill="url(#a)"/>
</svg>
