<svg version="1.1" viewBox="0 0 64 64" xmlns="http://www.w3.org/2000/svg">
 <defs>
  <linearGradient id="a" x1="1" x2="0" y1="1">
   <stop stop-color="#5433ff" offset="0"/>
   <stop stop-color="#20bdff" offset=".5"/>
   <stop stop-color="#a5fecb" offset="1"/>
  </linearGradient>
  <linearGradient id="b" y1=".5" y2=".5">
   <stop stop-color="#0091ff" offset="0"/>
   <stop stop-color="#50f" offset="1"/>
  </linearGradient>
 </defs>
 <path transform="translate(-0) scale(1) translate(-0) scale(1) translate(-0) scale(1) translate(-0) scale(1) translate(-0) scale(1) translate(-0) scale(1) translate(-0) scale(1) translate(-0) scale(1) translate(-.001207 -1.6e-5) scale(1) translate(-.2063 .001969)" d="m32-0.001953-0.007812 0.001953c-12.32 0-20.75 3.406-29.02 8.686-2.653 1.712-3.432 5.242-1.744 7.91 1.713 2.645 5.233 3.424 7.902 1.75 6.993-4.462 12.94-6.896 22.88-6.896 3.66 0 6.801 0.3312 9.644 0.9688 0.04669-0.941 0.09134-1.944 0.1387-2.596 0.2378-3.267 2.864-5.819 6.014-5.986 0.0038-0.00393 0.0079-0.00782 0.01172-0.01172 1.05-0.05364-3.507-3.826-15.81-3.826zm0.0039 17.57v0.0059l-0.01172 0.0039c-8.951 0-14.96 2.422-21.06 5.978-2.713 1.609-3.63 5.1-2.057 7.834 1.609 2.71 5.095 3.626 7.828 2.057 5.036-2.944 8.66-4.416 15.29-4.416 0.7107 0 1.388 0.01908 2.037 0.05469 0.06435-0.5272 0.1981-1.027 0.3848-1.473 0.4831-1.153 1.237-2.005 2.084-2.621 0.0013-0.0013 0.0027-0.0026 0.0039-0.0039 0.02851-0.02057 0.05754-0.04001 0.08594-0.06055-0.02764-0.01998-0.05632-0.03859-0.08398-0.05859l-0.0078-0.0039c-0.8447-0.6154-1.599-1.466-2.082-2.619-0.4833-1.153-0.6158-2.664-0.08594-4.096v-2e-3c0.06385-0.1724 0.1324-0.3422 0.207-0.5098-0.8198-0.04598-1.665-0.07031-2.537-0.07031zm-0.0098 16.76-2e-3 0.0039v0.0059c-4.826 0-9.125 1.258-12.98 3.221-2.799 1.45-3.915 4.878-2.506 7.697 1.429 2.794 4.913 3.933 7.709 2.506 2.512-1.283 4.976-1.977 7.777-1.977 2.712 0 5.307 0.7243 7.82 1.988 2.562 1.272 5.67 0.4683 7.295-1.887-2.762-0.5163-5.105-2.855-5.324-5.854-0.061-0.8388-0.1173-2.261-0.1797-3.385-1.658 0.2676-3.526-0.05359-4.98-1.492v-2e-3h-2e-3v-2e-3h-2e-3c-0.1561-0.1543-0.3128-0.3185-0.4688-0.4941-1.346-0.2126-2.734-0.3292-4.16-0.3301zm-2e-3 16.99c-8.742-0.3009-8.742 12.97 0 12.67 8.161-0.2809 8.161-12.39 0-12.67z" fill="url(#b)"/>
 <path transform="translate(-0) scale(1) translate(-0) scale(1) translate(-0) scale(1) translate(-0) scale(1) translate(-0) scale(1) translate(-0) scale(1) translate(-0) scale(1) translate(-0) scale(1) translate(-.2075 .001953)" d="m47.94 6.32v0.00976c-1.886 0.09635-3.509 1.621-3.658 3.674-0.1237 1.704-0.2641 4.029-0.3652 6.885a180.6 180.6 0 0 0-1.492-0.8496c-1.134-0.6373-2.818-0.7728-4.041 0.4395a9.199 9.199 0 0 0-0.8418 0.9668 6.105 6.105 0 0 0-0.8633 1.572c-0.6105 1.65 0.307 3.105 1.297 3.826a138.8 138.8 0 0 0 2.963 2.084 133.8 133.8 0 0 0-2.963 2.086c-0.9902 0.7198-1.907 2.177-1.297 3.828 0.1789 0.4824 0.4514 1.027 0.8633 1.57 0.291 0.3821 0.575 0.7034 0.8418 0.9668 1.223 1.212 2.907 1.077 4.041 0.4394 0.3763-0.2107 0.8636-0.4889 1.492-0.8496 0.1004 2.856 0.2414 5.183 0.3652 6.885 0.1998 2.738 3.02 4.532 5.588 3.26 3.091-1.532 8.158-4.31 12.75-8.06 2.07-1.687 1.865-4.812-0.209-6.326a167.2 167.2 0 0 0-5.441-3.805 167.2 167.2 0 0 0 5.441-3.803c2.074-1.514 2.279-4.64 0.209-6.326-4.595-3.747-9.664-6.526-12.75-8.06-0.6419-0.3182-1.301-0.4442-1.93-0.4121zm0.1758 3.356c0.08129-0.0036 0.1717 0.01399 0.2695 0.0625 2.982 1.478 7.803 4.127 12.12 7.652 0.2926 0.2392 0.3207 0.7532-0.06641 1.035a168.9 168.9 0 0 1-7.414 5.104 1.672 1.672 0 0 0 0 2.803 168.9 168.9 0 0 1 7.414 5.104c0.3871 0.2818 0.3599 0.7942 0.06641 1.033-4.323 3.524-9.14 6.175-12.12 7.652-0.1957 0.09699-0.3592 0.07413-0.4863-2e-3 -0.1321-0.07856-0.2621-0.2397-0.2812-0.5039-0.1589-2.184-0.3455-5.432-0.4375-9.531a1.672 1.672 0 0 0-2.514-1.406 297.6 297.6 0 0 1-3.881 2.228 0.5017 0.5017 0 0 1-0.1035 0.04492 5.855 5.855 0 0 1-0.4785-0.5586 2.759 2.759 0 0 1-0.3438-0.5977 0.5017 0.5017 0 0 1 0.08203-0.07422c0.8891-0.6466 2.466-1.763 4.906-3.398a1.672 1.672 0 0 0 0-2.777c-2.44-1.634-4.017-2.753-4.906-3.4a0.5017 0.5017 0 0 1-0.08203-0.07422c0.07943-0.189 0.1882-0.3938 0.3438-0.5977 0.1706-0.2241 0.333-0.4098 0.4785-0.5586a0.5017 0.5017 0 0 1 0.1035 0.04492c0.746 0.4181 1.965 1.113 3.881 2.228a1.672 1.672 0 0 0 2.514-1.408c0.09199-4.099 0.2779-7.343 0.4375-9.529 0.01923-0.265 0.1491-0.4254 0.2812-0.5039 0.06356-0.03762 0.1354-0.06286 0.2168-0.06641zm2.609 3.93-2e-3 2e-3a0.8361 0.8361 0 0 0-0.8438 0.7734v0.0098l-0.0039 0.0293-0.0078 0.1074-0.03125 0.418a444 444 0 0 0-0.4238 6.385 0.8361 0.8361 0 0 0 1.272 0.7637c0.6675-0.4047 1.484-0.95 2.316-1.506l0.5039-0.338c1.016-0.6774 2.014-1.33 2.814-1.773a0.8361 0.8361 0 0 0 0.04687-1.436 577.8 577.8 0 0 0-4.717-3l-0.3613-0.2246-0.0957-0.06055-0.02539-0.01563-0.0059-0.0059h-2e-3a0.8361 0.8361 0 0 0-0.4336-0.1289zm-0.4746 14.03v2e-3a0.8361 0.8361 0 0 0-0.4336 0.1211 0.8361 0.8361 0 0 0-0.4043 0.7656 440.6 440.6 0 0 0 0.4238 6.385l0.03125 0.418 0.0078 0.1074 0.0039 0.02734v0.0098a0.8361 0.8361 0 0 0 1.277 0.6465v-0.0039l-0.4453-0.7051h2e-3l0.4434 0.7051h0.0039l0.0059-0.0039 0.02344-0.01563 0.09766-0.06055 0.3594-0.2266a573.6 573.6 0 0 0 4.719-2.998 0.8361 0.8361 0 0 0-0.04687-1.436c-0.8001-0.4431-1.799-1.094-2.814-1.772l-0.502-0.3359-2e-3 -2e-3c-0.832-0.556-1.651-1.103-2.318-1.508a0.8361 0.8361 0 0 0-0.4316-0.1211z" fill="url(#a)"/>
</svg>
