<svg xmlns="http://www.w3.org/2000/svg" fill="none" viewBox="0 0 64 64"><defs><linearGradient id="a" x1="11.41" x2="11.41" y1="21.08" y2="1.834" gradientUnits="userSpaceOnUse"><stop offset="0" stop-color="#a93aff"/><stop offset="1" stop-color="#ff81ff"/></linearGradient></defs><path fill="url(#a)" fill-rule="evenodd" d="M11.41 3.277a7.216 7.216 0 0 0-7.218 7.218v.24a.722.722 0 1 1-1.444 0v-.24a8.662 8.662 0 1 1 17.324 0v.24a.722.722 0 1 1-1.443 0v-.24a7.22 7.22 0 0 0-7.218-7.218zm0 2.888a4.33 4.33 0 0 0-4.332 4.332v.24a.722.722 0 0 1-1.444 0v-.24a5.775 5.775 0 0 1 11.551 0v.24a.722.722 0 0 1-1.443 0v-.24a4.335 4.335 0 0 0-4.331-4.332zM9.501 8.329a2.9 2.9 0 0 1 1.909-.72 2.887 2.887 0 0 1 .721 5.683v2.016h5.053a2.889 2.889 0 0 1 0 5.775H5.634a2.889 2.889 0 0 1 0-5.775h5.053v-2.016A2.89 2.89 0 0 1 9.5 8.329zm.889 1.146a1.444 1.444 0 1 0 2.041 2.042 1.444 1.444 0 0 0-2.042-2.042m7.817 7.7a1.44 1.44 0 0 0-1.022-.423H5.635a1.444 1.444 0 0 0 0 2.888h11.55a1.444 1.444 0 0 0 1.021-2.465" clip-rule="evenodd" transform="translate(-5.94 -6.096)scale(3.32467)"/></svg>