<svg xmlns="http://www.w3.org/2000/svg" viewBox="0 0 64 64"><defs><linearGradient id="a" x1="11" x2="21" y1="21.1" y2="8.535" gradientUnits="userSpaceOnUse"><stop offset="0" stop-color="#00f1fa"/><stop offset="1" stop-color="#006cff"/></linearGradient></defs><path fill="url(#a)" d="M11 17.1a2 2 0 1 0 0 4 2 2 0 0 0 0-4" class="ColorScheme-Text" color="#ddd" transform="translate(-2.859 -2.875)scale(3.17)"/><g fill="url(#a)" class="ColorScheme-Text" color="#ddd" transform="translate(-2.859 -2.875)scale(3.17)"><path d="M11 1.565c-3.773 0-6.259 1.01-8.81 2.638a1.141 1.141 0 1 0 1.228 1.924C5.682 4.682 7.748 3.848 11 3.848c3.258 0 5.371.838 7.572 2.273a1.142 1.142 0 0 0 1.247-1.913C17.31 2.57 14.767 1.564 11 1.564zm0 5.549c-2.712 0-4.436.7-6.312 1.795a1.141 1.141 0 1 0 1.15 1.971c1.635-.953 2.963-1.484 5.163-1.484 2.194 0 3.54.553 5.169 1.488a1.141 1.141 0 1 0 1.136-1.979C15.46 7.844 13.718 7.114 11 7.114zm0 5.291c-1.409 0-2.659.363-3.798.945a1.142 1.142 0 1 0 1.039 2.033c.867-.443 1.763-.695 2.759-.695.975 0 1.9.263 2.766.698a1.142 1.142 0 0 0 1.025-2.04c-1.12-.563-2.394-.941-3.79-.941z"/><path d="M11 .898c-3.891 0-6.556 1.075-9.168 2.742a1.817 1.817 0 0 0-.55 2.496 1.82 1.82 0 0 0 2.495.553C5.984 5.281 7.861 4.513 11 4.513c3.143 0 5.072.772 7.21 2.166.829.541 1.958.302 2.5-.527a1.82 1.82 0 0 0-.526-2.502C17.604 1.968 14.886.898 11 .898zm0 1.332c3.649 0 6.011.944 8.455 2.537a.466.466 0 0 1 .139.659.466.466 0 0 1-.659.138C16.67 4.087 14.371 3.181 11 3.181c-3.366 0-5.619.904-7.94 2.385a.467.467 0 0 1-.658-.144.47.47 0 0 1 .147-.658c2.49-1.59 4.797-2.533 8.45-2.533zm0 4.217c-2.826 0-4.725.765-6.648 1.887a1.82 1.82 0 0 0-.65 2.473 1.82 1.82 0 0 0 2.473.649c1.59-.929 2.734-1.393 4.826-1.393 2.082 0 3.249.488 4.838 1.4.858.493 1.974.19 2.467-.668a1.817 1.817 0 0 0-.668-2.467v-.002c-1.89-1.085-3.8-1.88-6.637-1.88zm0 1.332c2.598 0 4.17.667 5.975 1.703.235.135.31.414.176.649a.467.467 0 0 1-.65.176C14.832 9.349 13.305 8.73 11 8.73c-2.307 0-3.823.595-5.499 1.574a.465.465 0 0 1-.65-.17.466.466 0 0 1 .172-.65C6.854 8.415 8.403 7.778 11 7.778zm0 3.96c-1.524 0-2.885.397-4.1 1.017a1.82 1.82 0 0 0-.79 2.432c.451.882 1.55 1.24 2.433.79.793-.405 1.573-.623 2.457-.623.856 0 1.675.228 2.467.627a1.817 1.817 0 0 0 2.426-.803 1.817 1.817 0 0 0-.803-2.426c-1.194-.6-2.572-1.014-4.09-1.014zm0 1.331c1.277 0 2.447.346 3.492.872a.466.466 0 0 1 .21.638.466.466 0 0 1-.638.211c-.94-.472-1.969-.77-3.064-.77-1.108 0-2.12.287-3.062.768a.464.464 0 0 1-.638-.207.464.464 0 0 1 .207-.639c1.063-.542 2.199-.872 3.494-.872z"/></g></svg>