<svg version="1.1" viewBox="0 0 64 64" xmlns="http://www.w3.org/2000/svg">
 <defs>
  <linearGradient id="a" x2="0" y1="1">
   <stop stop-color="#5433ff" offset="0"/>
   <stop stop-color="#20bdff" offset=".5"/>
   <stop stop-color="#a5fecb" offset="1"/>
  </linearGradient>
  <linearGradient id="b" x2="0" y2="1">
   <stop stop-color="#f4c4f3" offset="0"/>
   <stop stop-color="#fc67fa" offset="1"/>
  </linearGradient>
 </defs>
 <style transform="translate(0) scale(1) translate(0) scale(1) translate(0) scale(1) translate(0) scale(1) translate(0) scale(1) translate(0) scale(1) translate(0 -.00195) scale(1) translate(.9697 4.364) scale(.9697)">.ColorScheme-Text {
            color:#232629;
        }</style>
 <path transform="translate(0) scale(1) translate(0) scale(1) translate(0) scale(1) translate(0) scale(1) translate(0) scale(1) translate(0) scale(1) translate(0 -.00195) scale(1) matrix(.9697 0 0 .9697 .9697 4.364)" d="m32-1c-18.27 0-33 14.73-33 33 0 8.082 2.888 15.47 7.688 21.2a1 1 0 0 0 1.469 0.07031l2.844-2.844a1 1 0 0 0 0.07031-1.344c-3.798-4.657-6.07-10.58-6.07-17.09 0-14.98 12.02-27 27-27s27 12.02 27 27c0 6.502-2.273 12.43-6.07 17.09a1 1 0 0 0 0.07031 1.344l2.859 2.844a1 1 0 0 0 1.469-0.07031c4.784-5.736 7.672-13.12 7.672-21.2 0-18.27-14.73-33-33-33zm0 12c-11.62 0-21 9.383-21 21 0 4.742 1.616 9.068 4.234 12.57a1 1 0 0 0 1.5 0.1094l2.844-2.828a1 1 0 0 0 0.1172-1.281c-1.7-2.433-2.695-5.374-2.695-8.57 0-8.323 6.677-15 15-15s15 6.677 15 15c0 3.198-0.9948 6.139-2.695 8.57a1 1 0 0 0 0.1172 1.281l2.844 2.828a1 1 0 0 0 1.508-0.1094c2.618-3.501 4.227-7.828 4.227-12.57 0-11.62-9.383-21-21-21z" fill="url(#a)"/>
 <path transform="translate(0) scale(1) translate(0) scale(1) translate(0) scale(1) translate(0) scale(1) translate(0) scale(1) translate(0) scale(1) translate(0 -.00195) scale(1) translate(.9697 4.364) scale(.9697)" d="m32 23c-4.971 0-9 4.027-9 9 0 3.08 1.642 5.684 4 7.305v17.7c5.5e-5 0.5523 0.4477 0.9999 1 1h8c0.5523-5.5e-5 0.9999-0.4477 1-1v-17.7c2.358-1.621 4-4.225 4-7.305 0-4.973-4.027-9-9-9zm0 6c1.684 0 3 1.316 3 3s-1.316 3-3 3-3-1.316-3-3 1.316-3 3-3z" fill="url(#b)"/>
</svg>
