<svg version="1.1" viewBox="0 0 64 64" xmlns="http://www.w3.org/2000/svg">
 <defs>
  <linearGradient id="a" x2="0" y2="1">
   <stop stop-color="#f7f107" offset="0"/>
   <stop stop-color="#ffbb24" offset="1"/>
  </linearGradient>
  <linearGradient id="b" y1="1">
   <stop stop-color="#00ff7f" offset="0"/>
   <stop stop-color="#5fff00" offset="1"/>
  </linearGradient>
  <linearGradient id="c" y1=".5" y2=".5">
   <stop stop-color="#00c4ff" offset="0"/>
   <stop stop-color="#0072ff" offset="1"/>
  </linearGradient>
 </defs>
 <path transform="translate(0) scale(1) translate(0) scale(1) translate(-.000448 .00063) scale(1) translate(0 .00364) scale(.9999) translate(.249 -.311) scale(.9962)" d="m2.344 7.378-0.2235 0.007842c-1.305 5.739e-4 -2.369 1.063-2.37 2.368-5.744e-4 1.306 1.064 2.369 2.37 2.37h0.2215c0.9352 5.37e-4 1.629 0.6948 1.631 1.631v40.49c5.739e-4 1.305 1.063 2.368 2.368 2.368 1.305-5.74e-4 2.368-1.063 2.368-2.368v-3.349c0.6689 2.089 2.603 3.666 4.909 3.666h3.874c2.244 3e-6 4.11-1.869 4.107-4.113v-1.441c5.4e-5 -0.4717 0.3302-0.8038 0.8019-0.8038h6.452c0.4704 0.0013 0.8019 0.333 0.8019 0.8038v1.447c-0.0016 2.243 1.864 4.109 4.107 4.109h21.66c4.708 8.68e-4 8.579-3.868 8.576-8.576v-25.88c0-4.578-3.757-8.336-8.332-8.35a2.331 2.331 0 0 0-0.02157-0.01372l0.005882-0.005882-37.93 0.003921a2.331 2.331 0 0 0-0.00196 0c-4.352 0.001455-8.037 3.057-9.009 7.127v-5.125c-0.002034-3.489-2.874-6.366-6.364-6.368h-0.00196zm15.38 9.025h37.91a2.331 2.331 0 0 0 0.01568 0.007842c2.067 0 3.692 1.625 3.692 3.692v25.89c0.0013 2.187-1.723 3.912-3.909 3.911a2.331 2.331 0 0 0-0.00196 0h-21.11v-0.896c0-2.989-2.471-5.466-5.46-5.468a2.331 2.331 0 0 0-0.001961 0h-6.452c-2.991 0-5.464 2.477-5.464 5.468v0.8921h-3.321c-0.2661 0-0.496-0.1868-0.496-0.6078v-28.29c0-2.566 2.031-4.6 4.598-4.601z" fill="url(#c)"/>
 <path transform="translate(0) scale(1) translate(0) scale(1) translate(-.000448 .00063) scale(1) translate(0 .00364) scale(.9999) matrix(.9962 0 0 .9962 .249 -.311)" d="m36.24 49.01a2.11 2.11 0 0 0-2.109 2.106v4.264a2.11 2.11 0 0 0 2.109 2.107h0.02148a2.11 2.11 0 0 0 2.109-2.107v-4.264a2.11 2.11 0 0 0-2.109-2.106zm6.357 0a2.11 2.11 0 0 0-2.107 2.106v4.264a2.11 2.11 0 0 0 2.107 2.107h0.02344a2.11 2.11 0 0 0 2.109-2.107v-4.264a2.11 2.11 0 0 0-2.109-2.106zm6.357 0a2.11 2.11 0 0 0-2.109 2.106v4.264a2.11 2.11 0 0 0 2.109 2.107h0.02344a2.11 2.11 0 0 0 2.107-2.107v-4.264a2.11 2.11 0 0 0-2.107-2.106zm6.359 0a2.11 2.11 0 0 0-2.109 2.106v4.264a2.11 2.11 0 0 0 2.109 2.107h0.02539a2.11 2.11 0 0 0 2.106-2.107v-4.264a2.11 2.11 0 0 0-2.106-2.106z" fill="url(#a)"/>
 <path transform="translate(0) scale(1) translate(0) scale(1) translate(-.000448 .00063) scale(1) translate(0 .00364) scale(.9999) matrix(.9962 0 0 .9962 .249 -.311)" d="m26.63 20.43c-2.646 0-4.799 2.153-4.799 4.799s2.153 4.799 4.799 4.799c2.086 0 3.863-1.337 4.523-3.199h9.873v1.6c0 0.8835 0.7161 1.6 1.6 1.6h1.6v6.398h-6.674c-0.6606-1.862-2.439-3.199-4.523-3.199-2.646 0-4.799 2.153-4.799 4.799s2.153 4.799 4.799 4.799c2.086 0 3.863-1.337 4.523-3.199h8.273c0.8835 0 1.6-0.7161 1.6-1.6v-7.998h1.6c0.8835 0 1.6-0.7161 1.6-1.6v-6.398c0-0.8835-0.7161-1.6-1.6-1.6h-6.398c-0.8835 0-1.6 0.7161-1.6 1.6v1.6h-9.873c-0.6606-1.862-2.439-3.199-4.523-3.199zm0 3.199c0.8819 0 1.6 0.7177 1.6 1.6s-0.7177 1.6-1.6 1.6c-0.8819 0-1.6-0.7177-1.6-1.6s0.7177-1.6 1.6-1.6zm17.6 0h3.199v3.199h-3.199zm-11.2 12.8c0.8819 0 1.6 0.7177 1.6 1.6 0 0.8819-0.7177 1.6-1.6 1.6s-1.6-0.7177-1.6-1.6 0.7177-1.6 1.6-1.6z" fill="url(#b)"/>
</svg>
