<svg version="1.1" viewBox="0 0 64 64" xmlns="http://www.w3.org/2000/svg" xmlns:xlink="http://www.w3.org/1999/xlink">
 <defs>
  <linearGradient id="a">
   <stop stop-color="#00f1fa" offset="0"/>
   <stop stop-color="#006cff" offset="1"/>
  </linearGradient>
  <linearGradient id="b" x1="11.08" x2="29.37" y1="37.38" y2="19.14" gradientUnits="userSpaceOnUse" xlink:href="#a"/>
  <linearGradient id="c" x1="11.08" x2="29.37" y1="37.38" y2="19.14" gradientUnits="userSpaceOnUse">
   <stop stop-color="#00f1fa" offset="0"/>
   <stop stop-color="#006cff" offset="1"/>
  </linearGradient>
  <linearGradient id="d" x1="19" x2="37.29" y1="29.2" y2="10.96" gradientTransform="rotate(90 -87.09 79.32) scale(23.29)" gradientUnits="userSpaceOnUse" xlink:href="#a"/>
  <linearGradient id="g" x1="11" x2="29.29" y1="21.1" y2="2.863" gradientTransform="matrix(23.29 0 0 -23.29 -520.1 678.7)" gradientUnits="userSpaceOnUse" xlink:href="#a"/>
  <linearGradient id="h" x1="2.899" x2="21.19" y1="29.2" y2="10.96" gradientTransform="rotate(-90 79.3 599.4)scale(23.29)" gradientUnits="userSpaceOnUse" xlink:href="#a"/>
  <linearGradient id="i" x1="11" x2="21" y1="21.1" y2="8.535" gradientTransform="translate(0 -.855)" gradientUnits="userSpaceOnUse" xlink:href="#a"/>
 </defs>
 <path class="ColorScheme-Text" transform="translate(.03082 .004006) scale(.999) translate(12.46 -1.58) scale(1.755)" d="M11 1.565c-3.773 0-6.259 1.01-8.81 2.638a1.141 1.141 0 1 0 1.228 1.924C5.682 4.682 7.748 3.848 11 3.848c3.258 0 5.371.838 7.572 2.273a1.142 1.142 0 0 0 1.247-1.913C17.31 2.57 14.767 1.564 11 1.564z" color="#ddd" fill="url(#b)" stroke="url(#c)" stroke-width="1.332"/>
 <path class="ColorScheme-Text" transform="translate(.03082 .004006) scale(.999) rotate(-90 -.89 13.07) scale(.075)" d="m-263.9 202.8c-87.86 0-145.8 23.51-205.2 61.43-12.38 7.9-16 24.34-8.105 36.71s24.34 16 36.71 8.103c52.72-33.65 100.8-53.08 176.6-53.08 75.86 0 125.1 19.51 176.3 52.94 12.3 8.02 28.77 4.551 36.79-7.749s4.551-28.77-7.749-36.79c-58.49-38.14-117.6-61.57-205.4-61.57z" color="#ddd" fill="url(#d)" stroke="url(#d)" stroke-width="31.02"/>
 <path class="ColorScheme-Text" transform="translate(.03082 .004006) scale(.999) matrix(.075 0 0 -.075 51.79 78.11)" d="m-263.9 202.8c-87.86 0-145.8 23.51-205.2 61.43-12.38 7.9-16 24.34-8.105 36.71s24.34 16 36.71 8.103c52.72-33.65 100.8-53.08 176.6-53.08 75.86 0 125.1 19.51 176.3 52.94 12.3 8.02 28.77 4.551 36.79-7.749s4.551-28.77-7.749-36.79c-58.49-38.14-117.6-61.57-205.4-61.57z" color="#ddd" fill="url(#g)" stroke="url(#g)" stroke-width="31.02"/>
 <path class="ColorScheme-Text" transform="translate(.03082 .004006) scale(.999) rotate(90 13.01 64.96) scale(.075)" d="m-263.9 202.8c-87.86 0-145.8 23.51-205.2 61.43-12.38 7.9-16 24.34-8.105 36.71s24.34 16 36.71 8.103c52.72-33.65 100.8-53.08 176.6-53.08 75.86 0 125.1 19.51 176.3 52.94 12.3 8.02 28.77 4.551 36.79-7.749s4.551-28.77-7.749-36.79c-58.49-38.14-117.6-61.57-205.4-61.57z" color="#ddd" fill="url(#h)" stroke="url(#h)" stroke-width="31.02"/>
 <path class="ColorScheme-Text" transform="translate(.03082 .004006) scale(.999) translate(12.72 14.17) scale(1.754)" d="m11 17.1a2 2 0 1 0 0 4 2 2 0 0 0 0-4" color="#ddd" fill="url(#i)"/>
 <g class="ColorScheme-Text" transform="translate(.03082 .004006) scale(.999) translate(12.72 14.17) scale(1.754)" color="#ddd" fill="url(#i)">
  <path d="M11 1.565c-3.773 0-6.259 1.01-8.81 2.638a1.141 1.141 0 1 0 1.228 1.924C5.682 4.682 7.748 3.848 11 3.848c3.258 0 5.371.838 7.572 2.273a1.142 1.142 0 0 0 1.247-1.913C17.31 2.57 14.767 1.564 11 1.564zm0 5.549c-2.712 0-4.436.7-6.312 1.795a1.141 1.141 0 1 0 1.15 1.971c1.635-.953 2.963-1.484 5.163-1.484 2.194 0 3.54.553 5.169 1.488a1.141 1.141 0 1 0 1.136-1.979C15.46 7.844 13.718 7.114 11 7.114zm0 5.291c-1.409 0-2.659.363-3.798.945a1.142 1.142 0 1 0 1.039 2.033c.867-.443 1.763-.695 2.759-.695.975 0 1.9.263 2.766.698a1.142 1.142 0 0 0 1.025-2.04c-1.12-.563-2.394-.941-3.79-.941z"/>
  <path d="M11 .898c-3.891 0-6.556 1.075-9.168 2.742a1.817 1.817 0 0 0-.55 2.496 1.82 1.82 0 0 0 2.495.553C5.984 5.281 7.861 4.513 11 4.513c3.143 0 5.072.772 7.21 2.166.829.541 1.958.302 2.5-.527a1.82 1.82 0 0 0-.526-2.502C17.604 1.968 14.886.898 11 .898zm0 1.332c3.649 0 6.011.944 8.455 2.537a.466.466 0 0 1 .139.659.466.466 0 0 1-.659.138C16.67 4.087 14.371 3.181 11 3.181c-3.366 0-5.619.904-7.94 2.385a.467.467 0 0 1-.658-.144.47.47 0 0 1 .147-.658c2.49-1.59 4.797-2.533 8.45-2.533zm0 4.217c-2.826 0-4.725.765-6.648 1.887a1.82 1.82 0 0 0-.65 2.473 1.82 1.82 0 0 0 2.473.649c1.59-.929 2.734-1.393 4.826-1.393 2.082 0 3.249.488 4.838 1.4.858.493 1.974.19 2.467-.668a1.817 1.817 0 0 0-.668-2.467v-.002c-1.89-1.085-3.8-1.88-6.637-1.88zm0 1.332c2.598 0 4.17.667 5.975 1.703.235.135.31.414.176.649a.467.467 0 0 1-.65.176C14.832 9.349 13.305 8.73 11 8.73c-2.307 0-3.823.595-5.499 1.574a.465.465 0 0 1-.65-.17.466.466 0 0 1 .172-.65C6.854 8.415 8.403 7.778 11 7.778zm0 3.96c-1.524 0-2.885.397-4.1 1.017a1.82 1.82 0 0 0-.79 2.432c.451.882 1.55 1.24 2.433.79.793-.405 1.573-.623 2.457-.623.856 0 1.675.228 2.467.627a1.817 1.817 0 0 0 2.426-.803 1.817 1.817 0 0 0-.803-2.426c-1.194-.6-2.572-1.014-4.09-1.014zm0 1.331c1.277 0 2.447.346 3.492.872a.466.466 0 0 1 .21.638.466.466 0 0 1-.638.211c-.94-.472-1.969-.77-3.064-.77-1.108 0-2.12.287-3.062.768a.464.464 0 0 1-.638-.207.464.464 0 0 1 .207-.639c1.063-.542 2.199-.872 3.494-.872z"/>
 </g>
</svg>
