<svg version="1.1" viewBox="0 0 64 64" xmlns="http://www.w3.org/2000/svg">
 <defs>
  <linearGradient id="a" x1="17.96" x2="63.3" y1="48.93" y2="1.872" gradientTransform="scale(.7905 1.265)" gradientUnits="userSpaceOnUse">
   <stop stop-color="#9717f2" offset="0"/>
   <stop stop-color="#ff00b0" offset="1"/>
  </linearGradient>
  <linearGradient id="b" y1="1">
   <stop stop-color="#0028ff" offset="0"/>
   <stop stop-color="#4dd3ff" offset=".5"/>
   <stop stop-color="#00c0ff" offset="1"/>
  </linearGradient>
 </defs>
 <path transform="translate(0) scale(1)" d="m26 51.99c-1.108 0-2 0.892-2 2s0.892 2 2 2h12c1.107 0 2-0.892 2-2s-0.893-2-2-2zm-4-44a2 2 0 0 0-2 2 2 2 0 0 0 2 2 2 2 0 0 0 2-2 2 2 0 0 0-2-2" fill="#ff00b0" stroke-width="4"/>
 <path transform="translate(0) scale(1)" d="m20 0c-4.432 0-7.999 3.568-7.999 7.999v48c0 4.432 3.568 7.999 7.999 7.999h24c4.432 0 7.999-3.568 7.999-7.999v-48c0-4.432-3.568-7.999-7.999-7.999zm0 4h24c2.216 0 4 1.784 4 4v48c0 2.216-1.784 4-4 4h-24c-2.216 0-4-1.784-4-4v-48c0-2.216 1.784-4 4-4" fill="url(#a)" stroke-width="4"/>
 <path transform="translate(0) scale(1)" d="m34.61 19.4c-0.7616 0.02997-1.776 0.3563-2.536 1.117-1.218 1.216-1.322 3.085-0.8811 3.525 0.4399 0.4399 2.308 0.3353 3.525-0.8811 1.218-1.216 1.322-3.085 0.8811-3.525-0.165-0.1655-0.5313-0.2541-0.9883-0.236zm-6.623 5.146c-0.2428-0.0016-0.4953 0.01692-0.757 0.06086-2.576 0.4337-4.265 1.909-5.187 3.805-0.8961 1.84-1.05 4.014-0.7667 5.951a16.83 16.83 0 0 0 2.222 6.214c1.058 1.729 2.459 3.193 4.045 3.821 0.921 0.3652 1.911 0.1702 2.843-0.08277l0.981-0.2727 0.3992-0.0998c0.2405-0.05359 0.4343-0.08277 0.5964-0.08277a2.866 2.866 0 0 1 0.5964 0.08277l0.3968 0.0998 0.7302 0.202 0.5062 0.1387c0.8575 0.2156 1.752 0.3461 2.59 0.01461 1.26-0.4998 2.393-1.522 3.32-2.753 0.9385-1.246 1.73-2.789 2.281-4.462 0.2119-0.6456-0.1504-1.363-0.796-1.575a3.117 3.117 0 0 1-0.1655-5.864c0.6979-0.2729 0.9995-1.131 0.6256-1.782-0.9684-1.687-2.595-2.96-4.952-3.356-1.15-0.1932-2.126 0.1123-2.879 0.4114l-0.9274 0.3821c-0.4985 0.1957-0.8928 0.3091-1.326 0.3091-0.435 0-0.828-0.1135-1.326-0.3091l-0.7278-0.3019-0.4114-0.1606c-0.5403-0.2029-1.182-0.3871-1.911-0.3918zm8.695 2.493c0.1331-0.0056 0.2636 0.0037 0.4017 0.02677 1.053 0.1782 1.845 0.5905 2.434 1.151-1.319 1.026-2.169 2.627-2.169 4.431a5.608 5.608 0 0 0 2.685 4.788c-0.4275 1.028-0.9506 1.952-1.524 2.712-0.769 1.022-1.56 1.666-2.242 1.936-0.2991 0.1184-0.7306 0.02477-1.129-0.09737l-0.5526-0.1826-0.1509-0.04625-0.5404-0.1509c-0.4811-0.1246-1.024-0.236-1.53-0.236-0.5085 0-1.05 0.1115-1.53 0.236l-0.5404 0.1509-0.1509 0.04625-0.5526 0.1826c-0.3988 0.1221-0.8303 0.2157-1.129 0.09738-0.8774-0.3465-1.913-1.302-2.833-2.804-0.8998-1.473-1.6-3.333-1.884-5.274-0.2318-1.593-0.07778-3.229 0.5404-4.498 0.592-1.215 1.626-2.146 3.361-2.439 0.6132-0.1022 1.119 0.08843 2.03 0.4699l0.4333 0.1801c0.6144 0.243 1.378 0.4868 2.256 0.4868 1.099 0 2.015-0.3841 2.69-0.667l0.2605-0.1071c0.5636-0.2318 0.9687-0.3729 1.368-0.3895z" fill="url(#b)" stroke-width="1.246"/>
</svg>
