<svg fill="none" version="1.1" viewBox="0 0 64 64" xmlns="http://www.w3.org/2000/svg">
 <defs>
  <linearGradient id="a" x1="115.8" x2="80.5" y1="20.52" y2="117.5" gradientUnits="userSpaceOnUse">
   <stop stop-color="#FE0F7C" offset="0"/>
   <stop stop-color="#DF0066" offset="1"/>
  </linearGradient>
 </defs>
 <path transform="translate(-4.609 -4.496) scale(.5517)" d="m52.02 101.7c0.3063 0.555 0.7505 1.022 1.29 1.356s1.156 0.523 1.789 0.55c0.6338 0.026 1.264-0.111 1.829-0.399s1.047-0.717 1.398-1.245l3.787-5.692 28.76-43.78c0.5765-0.8775 0.9188-1.888 0.9945-2.935 0.0756-1.047-0.1181-2.096-0.5625-3.048-0.4444-0.9512-1.125-1.773-1.977-2.387s-1.846-0.9997-2.889-1.121l-71.37-8.257m36.96 66.96 3.901 7.071c0.6608 1.205 1.54 2.277 2.592 3.161 1.2 0.999 2.598 1.734 4.102 2.155 1.504 0.421 3.08 0.52 4.624 0.29 1.545-0.23 3.024-0.783 4.34-1.625 1.316-0.841 2.439-1.95 3.297-3.256l42.66-65.02c1.037-1.581 1.652-3.4 1.786-5.286 0.135-1.886-0.215-3.774-1.017-5.486-0.801-1.712-2.028-3.19-3.562-4.294-1.535-1.104-3.326-1.796-5.204-2.012l-83.85-9.616c-2.02-0.2316-4.065 0.0973-5.91 0.9508-1.845 0.8534-3.42 2.198-4.552 3.888-1.132 1.689-1.777 3.657-1.864 5.689-0.0874 2.031 0.3861 4.048 1.369 5.828l0.332 0.6m36.96 66.96-36.96-66.96" stroke="url(#a)" stroke-linecap="round" stroke-linejoin="round" stroke-width="10"/>
</svg>
