<svg version="1.1" viewBox="0 0 64 64" xmlns="http://www.w3.org/2000/svg">
 <defs>
  <linearGradient id="a" y1="1">
   <stop stop-color="#5433ff" offset="0"/>
   <stop stop-color="#20bdff" offset=".5"/>
   <stop stop-color="#a5fecb" offset="1"/>
  </linearGradient>
 </defs>
 <path transform="translate(0) scale(1) translate(0) scale(1) translate(0 -1e-5) scale(1) translate(-.0013 .004999) scale(.9998) translate(.00031 .00051) scale(1)" d="m10.7 2.412c-1.35-0.01041-2.719 0.03856-4.084 0.332l-0.02148 0.003906c-3.513 0.9075-6.259 3.963-6.527 7.443v0.0059c-0.1124 1.787-0.04766 3.555-0.05078 5.295v2e-3c-0.04995 0.9678 0.312 2.045 1.256 2.643 1.648 1.188 4.201 0.2656 4.572-1.699l0.00391-0.02148 0.00195-0.01953c0.2185-1.973-0.02747-3.882 0.1172-5.701 0.101-1.299 1.38-2.497 2.814-2.568 2.789-0.1145 5.633 0.08461 8.51-0.08398h0.01953l0.01758-0.00391c2.216-0.3018 3.192-3.156 1.629-4.682-0.5984-0.6525-1.406-0.8631-2.152-0.9141-0.7535-0.05203-1.492 0.02536-2.082-0.005859l-0.02344-0.00195h-0.02539c-1.294 0.05724-2.625-0.01199-3.975-0.02344zm15.68 0.5547c-1.269 0.05905-2.348 1.186-2.234 2.398 0.0083 1.236 1.236 2.307 2.547 2.207 9.588 0.03538 19.18-0.00882 28.76 0.02344 1.963-0.0614 3.709 1.586 3.658 3.436 0.03434 6.122-0.0062 12.24 0.01563 18.37-8.954 0.04163-17.91 0.02921-26.87 0.07813-1.277-0.05203-2.435 0.9964-2.447 2.195-0.1114 1.266 1.061 2.447 2.412 2.41 8.962 0.09366 17.93-0.08628 26.89-0.0332-0.02185 2.154 0.08504 4.313-0.04297 6.463-0.1977 1.842-2.16 3.15-4.072 2.965-15.29-0.01665-30.58 0.01561-45.86 0-1.938 0.07285-3.726-1.497-3.711-3.332-0.06452-4.986 0.04133-9.972-0.04297-14.96 0.05099-1.734-2.31-2.878-3.777-1.828-0.972 0.5495-1.121 1.684-1.074 2.658 0.04163 4.849-0.05511 9.698 0.04688 14.55 0.1415 3.972 3.901 7.463 8.123 7.504 5.833 0.0031 11.67 0.03862 17.49-0.01758-3.416 2.869-6.676 5.9-10.04 8.814-0.6941 0.6182-1.54 1.275-1.57 2.258-0.1363 1.365 1.204 2.587 2.648 2.453 10.02 0.01249 20.03 0.01249 30.06 0 1.446 0.129 2.745-1.125 2.6-2.478-0.06452-1.159-1.167-1.838-1.957-2.578-3.252-2.804-6.337-5.79-9.691-8.48 5.88 0.08846 11.76 0.03516 17.65 0.03516 4.38-0.0562 8.182-3.822 8.109-7.94 0.0083-9.834 0.02107-19.68-0.0039-29.51-0.08221-4.02-3.845-7.603-8.123-7.652-9.742-0.01561-19.49-0.01145-29.23 0v-0.003917c-0.086-0.005854-0.1713-0.00589-0.2559-0.001953zm5.889 46c3.025 2.637 5.991 5.342 9.029 7.973-6.039 0.01665-12.07 0.01639-18.11 0.0039 3.055-2.63 6.027-5.342 9.078-7.977z" fill="url(#a)"/>
</svg>
