<svg version="1.1" viewBox="0 0 64 64" xmlns="http://www.w3.org/2000/svg">
 <defs>
  <linearGradient id="a" y1="1">
   <stop stop-color="#ff001e" offset="0"/>
   <stop stop-color="#ff004b" offset="1"/>
  </linearGradient>
 </defs>
 <path transform="translate(0) scale(1) translate(0) scale(1) translate(0) scale(1) translate(-.00051 -1e-6) scale(1) translate(.01 .004) scale(.9997)" d="M53.19-.004 10.8 0a7.18 7.18 0 0 0-7.174 7.174v8.064c0 1.683 1.21 3.047 2.701 3.047s2.703-1.364 2.703-3.047V10.4c0-2.377 1.928-4.973 4.303-4.973h37.32c2.375 0 4.303 2.596 4.303 4.973v26.17c0 1.681 1.212 3.049 2.703 3.049s2.701-1.367 2.701-3.049V7.17a7.18 7.18 0 0 0-7.174-7.174zM6.34 25.906l-.006.008c-1.49 0-2.7 1.364-2.7 3.047v27.87a7.18 7.18 0 0 0 7.173 7.176h23.9c1.491 0 2.701-1.367 2.701-3.05s-2.7-2.38-2.7-2.38h-21.36c-2.376 0-4.306-2.596-4.306-4.973v-24.65c0-1.683-1.212-3.047-2.703-3.047zm51.33 19.82c-1.491 0-2.703 1.364-2.703 3.047v4.838c0 2.377-1.928 4.973-4.303 4.973-1.35.006-3.069-.007-4.053 0-.983.007-2.451.696-2.451 2.38 0 1.68 1.211 3.048 2.703 3.048h6.334a7.18 7.18 0 0 0 7.174-7.174v-8.064c0-1.683-1.21-3.047-2.701-3.047z" fill="url(#a)"/>
 <path transform="translate(0) scale(1) translate(0) scale(1) translate(0) scale(1) translate(-.00051 -1e-6) scale(1) translate(.01 .004) scale(.9997)" d="M31.46 13.58a8.4 8.4 0 0 0-3.086.805h-.006l-10.73 5.15a6.08 6.08 0 0 0-3.443 5.473v1.268a25.56 25.56 0 0 0 11.78 21.53l2.504 1.604a6.51 6.51 0 0 0 7.035 0l2.504-1.604a25.56 25.56 0 0 0 11.78-21.53v-1.268a6.07 6.07 0 0 0-3.443-5.473l-10.74-5.15a8.4 8.4 0 0 0-4.16-.805zm.248 3.805h.004a4.6 4.6 0 0 1 2.266.443l10.73 5.144a2.26 2.26 0 0 1 1.28 2.037v1.266a21.74 21.74 0 0 1-10.02 18.31l-2.507 1.606a2.7 2.7 0 0 1-2.91 0l-2.508-1.606a21.74 21.74 0 0 1-10.02-18.31V25.01c0-.867.5-1.66 1.28-2.037l10.73-5.144a4.6 4.6 0 0 1 1.68-.443z" fill="url(#a)"/>
 <path transform="translate(0) scale(1) translate(0) scale(1) translate(0) scale(1) translate(-.00051 -1e-6) scale(1) translate(.01 .004) scale(.9997)" d="m32.13 25.01a3.815 3.815 0 0 0-2.037 7.119v4.957a1.908 1.908 0 0 0 3.814 0v-4.957a3.82 3.82 0 0 0 1.908-3.309 3.815 3.815 0 0 0-3.686-3.81z" fill="url(#a)"/>
</svg>
