<svg version="1.1" viewBox="0 0 64 64" xmlns="http://www.w3.org/2000/svg">
 <defs>
  <linearGradient id="a" x1=".097" x2="63.89" y1="32" y2="32" gradientTransform="matrix(.5494 0 0 .5494 14.42 14.42)" gradientUnits="userSpaceOnUse">
   <stop stop-color="#d300dc" offset="0"/>
   <stop stop-color="#8700ff" offset="1"/>
  </linearGradient>
  <linearGradient id="b" x1="32.13" x2="43.38" y1="47.85" y2="26.95" gradientTransform="matrix(.5494 0 0 .5494 14.42 14.42)" gradientUnits="userSpaceOnUse">
   <stop stop-color="#879af2" offset="0"/>
   <stop stop-color="#d3208b" offset=".5"/>
   <stop stop-color="#fda000" offset="1"/>
  </linearGradient>
 </defs>
 <path transform="translate(0) scale(1) translate(0) scale(1) translate(0) scale(1) translate(-2e-5) scale(1) translate(.008199 .003999) scale(.9998) translate(-2e-4) scale(1)" d="m10.8 0c-3.959 0-7.174 3.215-7.174 7.174v8.064c0 1.683 1.21 3.047 2.701 3.047s2.703-1.364 2.703-3.047v-4.838c0-2.377 1.928-4.973 4.303-4.973h37.32c2.375 0 4.303 2.596 4.303 4.973v26.17c0 1.681 1.212 3.049 2.703 3.049s2.701-1.367 2.701-3.049v-29.4c0-3.959-3.215-7.174-7.174-7.174zm-4.473 25.91c-1.491 0-2.701 1.364-2.701 3.047v27.87c0 3.959 3.215 7.174 7.174 7.174h23.9c1.491 0 2.701-1.365 2.701-3.047 0-1.683-2.701-2.381-2.701-2.381h-21.36c-2.375 0-4.305-2.596-4.305-4.973v-24.65c0-1.683-1.212-3.047-2.703-3.047zm51.34 19.81c-1.491 0-2.703 1.364-2.703 3.047v4.838c0 2.377-1.928 4.973-4.303 4.973-1.35 0.0056-3.069-0.0066-4.053 0-0.9835 0.0065-2.451 0.696-2.451 2.379 0 1.681 1.211 3.049 2.703 3.049h6.334c3.959 0 7.174-3.215 7.174-7.174v-8.064c0-1.683-1.21-3.047-2.701-3.047z" fill="url(#a)" stroke-width=".5494"/>
 <path transform="translate(0) scale(1) translate(0) scale(1) translate(0) scale(1) translate(-2e-5) scale(1) translate(.008199 .003999) scale(.9998)" d="m34.67 14.43q-0.1088 0.0011-0.2198 0.01538c-1.949 0.0412-3.895-0.09834-5.84 0.02143-1.019 0.1319-1.403 1.175-1.681 1.976-0.3637 1.003-0.1395 2.223-0.9131 3.068-0.7329 0.5813-1.592 0.9911-2.39 1.483a102.2 102.2 0 0 1-3.244-1.169c-0.9724-0.3489-2.114 0.0055-2.683 0.8285-0.8873 1.301-1.662 2.669-2.509 3.994-0.4313 0.7005-0.9158 1.514-0.6247 2.347 0.5082 1.653 2.405 2.331 3.383 3.678 0.1209 0.8076-0.01099 1.627 0.01483 2.443-0.9263 1.008-2.155 1.728-3.055 2.754-0.7016 0.8812-0.2862 2.009 0.1522 2.906a79.66 79.66 0 0 0 2.377 4.088c0.5054 0.884 1.665 1.334 2.689 1.094 1.202-0.2934 2.34-0.7697 3.501-1.176 0.901 0.4571 1.756 0.9889 2.61 1.519 0.3615 1.433 0.5725 2.903 1.111 4.29 0.1912 0.4659 0.7032 0.6961 1.1 0.9763 2.173-0.05824 4.346 0.05549 6.516-0.01538 1.958-0.4489 2.424-2.604 2.424-4.244 0.1264-1.04-1.256-1.846-2.181-1.275-0.9439 0.5203-0.784 1.727-0.9906 2.603-1.476-0.0044-2.952 0.0071-4.427-0.0055-0.1857-1.035-0.4439-2.056-0.7126-3.072-0.2967-1.003-1.192-1.694-2.123-2.171-0.8565-0.4544-1.637-1.084-2.605-1.321-1.638-0.3241-3.068 0.6835-4.573 1.091-0.7043-1.319-1.511-2.584-2.221-3.897 0.9235-0.7966 1.984-1.476 2.742-2.423 0.7609-0.9104 0.5675-2.125 0.6269-3.203 0.06208-1.055-0.07692-2.199-0.8565-3.015-0.7769-0.8054-1.685-1.487-2.531-2.226 0.7999-1.216 1.525-2.473 2.315-3.696 1.344 0.2928 2.601 1.148 4.042 1.058 0.8488-0.03901 1.555-0.5351 2.256-0.9323 0.9856-0.5906 2.092-1.143 2.657-2.156 0.5829-1.033 0.8104-2.207 0.9571-3.357 1.458 0.01758 2.915 0.01209 4.372 0.0027 0.2835 1.045 0.4846 2.112 0.7736 3.155 0.6142 1.662 2.533 2.24 3.95 3.145 1.806 0.9395 3.615-0.3615 5.356-0.7812 0.6966 1.289 1.475 2.534 2.186 3.816-1.12 1.106-2.75 1.893-3.238 3.453a19.23 19.23 0 0 0-0.06208 3.566c0.2813 1.772 2.089 2.707 3.32 3.872-0.7895 1.255-1.525 2.541-2.357 3.772-0.7895-0.2912-1.544-0.7296-2.399-0.8104-1.106-0.1099-1.924 1.254-1.256 2.097 0.6142 0.8422 1.79 0.9137 2.69 1.343 1.039 0.5197 2.489 0.3802 3.16-0.6082 1.009-1.514 1.941-3.073 2.881-4.626 0.4175-0.6197 0.5395-1.444 0.1593-2.107-0.6857-1.467-2.514-2.069-3.291-3.46-0.0055-0.8005-0.08241-1.633 0.1286-2.412 0.9158-1.028 2.235-1.697 3.048-2.811 0.6681-0.8862 0.1033-1.965-0.3066-2.834-0.7587-1.384-1.539-2.759-2.393-4.089-0.5236-0.879-1.728-1.231-2.727-0.9741-1.174 0.2802-2.279 0.7615-3.419 1.137-0.867-0.4785-1.77-0.9202-2.542-1.528-0.4434-1.064-0.4467-2.249-0.8433-3.33-0.2785-0.9543-1.195-1.875-2.288-1.864z" fill="url(#a)" stroke-width=".5494"/>
 <path transform="translate(0) scale(1) translate(0) scale(1) translate(0) scale(1) translate(-2e-5) scale(1) translate(.008199 .003999) scale(.9998)" d="m32.07 23.84a2.304 2.304 0 0 0-2.3 2.301v6.9h-2.397a1.489 1.489 0 0 0-1.375 0.9186 1.483 1.483 0 0 0-0.08131 0.8582c0.05714 0.2879 0.1967 0.55 0.4044 0.7576l4.697 4.698c0.1374 0.1384 0.3038 0.2494 0.4835 0.3241a1.483 1.483 0 0 0 0.5681 0.1104 1.472 1.472 0 0 0 1.052-0.4346l4.696-4.698a1.478 1.478 0 0 0 0.323-1.616 1.489 1.489 0 0 0-1.375-0.9186h-2.394l-0.0044-6.9a2.302 2.302 0 0 0-2.298-2.301" fill="url(#b)" stroke-width=".5494"/>
</svg>
