<svg version="1.1" viewBox="0 0 64 64" xmlns="http://www.w3.org/2000/svg">
 <defs>
  <linearGradient id="a" x1="1" x2="0" y2="1">
   <stop stop-color="#01ff4d" offset="0"/>
   <stop stop-color="#2fff00" offset="1"/>
  </linearGradient>
 </defs>
 <path transform="translate(.009199 .009599) scale(.9999) translate(.00081 .000494) scale(1)" d="m53.18 0-42.38 0.003906c-3.958 0-7.174 3.214-7.174 7.172v8.062c0 1.683 1.21 3.047 2.701 3.047s2.703-1.364 2.703-3.047v-4.836c0-2.376 1.926-4.973 4.301-4.973h37.31c2.374 0 4.303 2.596 4.303 4.973v26.16c0 1.681 1.212 3.049 2.703 3.049s2.699-1.367 2.699-3.049v-29.4c0-3.958-3.214-7.172-7.172-7.172zm-46.85 25.9-0.00391 0.0059c-1.491 0-2.701 1.364-2.701 3.047v27.86c0 3.958 3.216 7.172 7.174 7.172h23.9c1.491 0 2.701-1.365 2.701-3.047 0-1.683-2.701-2.381-2.701-2.381h-21.36c-2.374 0-4.305-2.594-4.305-4.971v-24.65c0-1.683-1.212-3.045-2.703-3.045zm51.33 19.81c-1.491 0-2.703 1.364-2.703 3.047v4.836c0 2.376-1.928 4.973-4.303 4.973-1.35 0.0056-3.067-0.0066-4.051 0-0.9833 0.0065-2.451 0.6962-2.451 2.379 0 1.681 1.211 3.049 2.703 3.049h6.332c3.958 0 7.172-3.216 7.172-7.174v-8.062c0-1.683-1.208-3.045-2.699-3.045z" fill="url(#a)"/>
 <path transform="translate(.009199 .009599) scale(.9999) translate(.00081 .000494) scale(1)" d="m31.36 14.64v2e-3c-3.827 0-6.512 3.441-5.961 6.941h-3.582a5.205 5.205 0 0 0-5.207 5.205v4.176c0 1.322 1.351 2.215 2.564 1.693l0.3457-0.1445a2.27 2.27 0 1 1 0 4.168l-0.3418-0.1465c-1.217-0.5205-2.566 0.3726-2.566 1.695v5.91a5.205 5.205 0 0 0 5.205 5.205h5.91c1.322 0 2.216-1.351 1.695-2.564l-0.1465-0.3457a2.27 2.27 0 1 1 4.168 0l-0.1465 0.3418a1.842 1.842 0 0 0 1.695 2.566h4.176a5.205 5.205 0 0 0 5.205-5.205v-3.582c3.499 0.5483 6.941-2.134 6.941-5.961s-3.441-6.506-6.941-5.961v-1.848a5.205 5.205 0 0 0-5.205-5.205h-1.848c0.5483-3.499-2.134-6.941-5.961-6.941zm0 3.473h2e-3a2.554 2.554 0 0 1 2.281 3.697l-0.2812 0.5625c-0.6143 1.232 0.2801 2.68 1.658 2.68h4.148a1.735 1.735 0 0 1 1.734 1.736v4.148a1.852 1.852 0 0 0 2.682 1.656l0.5625-0.2793a2.554 2.554 0 1 1 0 4.566l-0.5625-0.2793c-1.232-0.6143-2.682 0.2789-2.682 1.656v5.883a1.735 1.735 0 0 1-1.734 1.736h-2.07c0.1892-3.158-2.312-6.074-5.738-6.074s-5.926 2.917-5.736 6.074h-3.805a1.735 1.735 0 0 1-1.736-1.736v-3.803c3.158 0.1892 6.072-2.312 6.072-5.738s-2.914-5.928-6.072-5.738v-2.07a1.735 1.735 0 0 1 1.736-1.734h5.883a1.852 1.852 0 0 0 1.658-2.682l-0.2812-0.5625a2.554 2.554 0 0 1 2.281-3.699z" fill="url(#a)"/>
</svg>
