<svg version="1.1" viewBox="0 0 64 64" xmlns="http://www.w3.org/2000/svg" xmlns:xlink="http://www.w3.org/1999/xlink">
 <defs>
  <linearGradient id="a" x1="1" x2="0" y1="1">
   <stop stop-color="#ff4000" offset="0"/>
   <stop stop-color="#ffa200" offset="1"/>
  </linearGradient>
  <linearGradient id="b" x1="51.17" x2="12.84" y1="51.17" y2="12.84" gradientTransform="matrix(.8662 0 0 .8662 4.279 4.279)" gradientUnits="userSpaceOnUse" xlink:href="#a"/>
  <linearGradient id="d" x1="32.68" x2="21.42" y1="61.18" y2="49.92" gradientTransform="matrix(1.173 0 0 .6398 4.279 4.279)" gradientUnits="userSpaceOnUse" xlink:href="#a"/>
  <linearGradient id="c" x1="25.85" x2="14.6" y1="46.18" y2="34.92" gradientTransform="matrix(1.173 0 0 .6396 4.279 4.279)" gradientUnits="userSpaceOnUse" xlink:href="#a"/>
 </defs>
 <path transform="translate(0) scale(1) translate(0) scale(1) translate(-2e-5) scale(1) translate(.008199 .003999) scale(.9998) translate(-2e-4) scale(1)" d="m10.8 0c-3.959 0-7.174 3.215-7.174 7.174v8.064c0 1.683 1.21 3.047 2.701 3.047s2.703-1.364 2.703-3.047v-4.838c0-2.377 1.928-4.973 4.303-4.973h37.32c2.375 0 4.303 2.596 4.303 4.973v26.17c0 1.681 1.212 3.049 2.703 3.049s2.701-1.367 2.701-3.049v-29.4c0-3.959-3.215-7.174-7.174-7.174zm-4.473 25.91c-1.491 0-2.701 1.364-2.701 3.047v27.87c0 3.959 3.215 7.174 7.174 7.174h23.9c1.491 0 2.701-1.365 2.701-3.047 0-1.683-2.701-2.381-2.701-2.381h-21.36c-2.375 0-4.305-2.596-4.305-4.973v-24.65c0-1.683-1.212-3.047-2.703-3.047zm51.34 19.81c-1.491 0-2.703 1.364-2.703 3.047v4.838c0 2.377-1.928 4.973-4.303 4.973-1.35 0.0056-3.069-0.0066-4.053 0-0.9835 0.0065-2.451 0.696-2.451 2.379 0 1.681 1.211 3.049 2.703 3.049h6.334c3.959 0 7.174-3.215 7.174-7.174v-8.064c0-1.683-1.21-3.047-2.701-3.047z" fill="url(#b)" stroke-width=".8662"/>
 <path transform="translate(0) scale(1) translate(0) scale(1) translate(-2e-5) scale(1) translate(.008199 .003999) scale(.9998)" d="m22 15.4s-0.6496 0.0061-1.27 0.3162c-0.5855 0.2919-1.01 0.8159-1.234 1.684h-3.496a0.602 0.602 0 0 0-0.6011 0.602v30c0 0.3317 0.2685 0.6011 0.6011 0.6011h32a0.602 0.602 0 0 0 0.602-0.6011v-30a0.602 0.602 0 0 0-0.602-0.602h-3.496c-0.2217-0.8722-0.6479-1.391-1.234-1.684-0.6202-0.3101-1.27-0.3162-1.27-0.3162h-5.999s-0.6496 0.0061-1.27 0.3162c-0.5864 0.2919-1.01 0.8159-1.234 1.684h-2.992c-0.2217-0.8722-0.6479-1.391-1.234-1.684-0.6202-0.3101-1.27-0.3162-1.27-0.3162zm0 2.602h5.999v2h-5.999zm14 0h5.999v2h-5.999zm-17.39 6.601h26.8v20.8h-26.8z" fill="url(#b)" stroke-width=".8662"/>
 <path transform="translate(0) scale(1) translate(0) scale(1) translate(-2e-5) scale(1) translate(.008199 .003999) scale(.9998)" d="m30 36.22a0.602 0.602 0 0 0-0.6011 0.602v5.998c0 0.3326 0.2685 0.602 0.6011 0.602h2a0.602 0.602 0 0 0 0.602-0.6011v-1.398h6.794v1.397c0 0.3317 0.2702 0.6011 0.602 0.6011h2a0.602 0.602 0 0 0 0.6011-0.6011v-5.999a0.602 0.602 0 0 0-0.6011-0.602h-2a0.602 0.602 0 0 0-0.6011 0.602v1.397h-6.796v-1.398a0.602 0.602 0 0 0-0.6003-0.6003z" fill="url(#d)" stroke-width=".8662"/>
 <path transform="translate(0) scale(1) translate(0) scale(1) translate(-2e-5) scale(1) translate(.008199 .003999) scale(.9998)" d="m22 26.62a0.602 0.602 0 0 0-0.6011 0.602v5.999c0 0.3317 0.2685 0.5977 0.6011 0.5977h2a0.5977 0.5977 0 0 0 0.602-0.5977v-1.403h6.795v1.403c0 0.3317 0.2685 0.5977 0.6011 0.5977h2a0.5977 0.5977 0 0 0 0.602-0.5977v-6a0.602 0.602 0 0 0-0.602-0.6011h-2a0.602 0.602 0 0 0-0.6011 0.6011v1.398h-6.796v-1.398a0.602 0.602 0 0 0-0.6011-0.6011z" fill="url(#c)" stroke-width=".8662"/>
</svg>
