<svg version="1.1" viewBox="0 0 64 64" xmlns="http://www.w3.org/2000/svg">
 <defs>
  <linearGradient id="c" y1="1">
   <stop stop-color="#8d01a2" offset="0"/>
   <stop stop-color="#ff00d2" offset="1"/>
  </linearGradient>
  <linearGradient id="a" x1="1" x2="0" y1="1">
   <stop stop-color="#007bf6" offset="0"/>
   <stop stop-color="#d60cff" offset=".5"/>
   <stop stop-color="#ff167a" offset="1"/>
  </linearGradient>
  <linearGradient id="b" x2="0" y1="1">
   <stop stop-color="#248efe" offset="0"/>
   <stop stop-color="#1df4ff" offset="1"/>
  </linearGradient>
 </defs>
 <path transform="translate(.00155 .004001) scale(1) translate(.00015)" d="m29.32 4.289v6.875h-4.631v3.564h4.631v3.562h-4.631v3.564h4.631v3.564h-4.631v3.564h4.631v4.074h5.332v-4.074h4.631v-3.564h-4.631v-3.564h4.631v-3.564h-4.631v-3.562h4.631v-3.564h-4.631v-6.875z" fill="url(#a)"/>
 <path transform="translate(.00155 .004001) scale(1) translate(.00015)" d="m10.8 0c-3.959 0-7.172 3.214-7.172 7.172v29.39c0 1.681 1.211 3.045 2.701 3.045s2.701-1.364 2.701-3.045v-26.17c0-2.375 1.927-4.303 4.303-4.303h32.17c0.2346 0 0.4625-0.03358 0.6758-0.1016 0.2133 0.06798 0.4392 0.1016 0.6738 0.1016h3.801c2.375 0 4.305 1.927 4.305 4.303v4.838c0 1.681 1.211 3.047 2.701 3.047s2.699-1.366 2.699-3.047v-8.062c0-3.958-3.211-7.172-7.17-7.172h-6.336c-0.2346 0-0.4606 0.0342-0.6738 0.1035h-2e-3c-0.2132-0.06932-0.4411-0.1035-0.6757-0.1035zm46.86 25.89c-1.49 0-2.701 1.366-2.701 3.047h2e-3v24.65c0 2.375-1.929 4.305-4.305 4.305h-21.36c-1.492 0-2.701 1.366-2.701 3.047 0 1.682 1.21 3.047 2.701 3.047h23.89c3.959 0 7.17-3.214 7.17-7.172v-27.87c0-1.681-1.209-3.047-2.699-3.047zm-51.32 19.81c-1.49 0-2.701 1.364-2.701 3.045v8.064c0 3.958 3.213 7.17 7.172 7.17h6.336c1.49 0 2.699-1.365 2.699-3.047 0-1.681-1.209-3.045-2.699-3.045h-3.801c-2.375 0-4.305-1.929-4.305-4.305v-4.838c0-1.681-1.211-3.045-2.701-3.045z" fill="url(#c)"/>
 <path transform="translate(.00155 .004001) scale(1) translate(.00015)" d="m31.99 31.36c-2.943 0-5.332 2.129-5.332 4.752v7.129c0 2.623 2.389 4.752 5.332 4.752s5.332-2.129 5.332-4.752v-7.129c1e-6 -2.623-2.389-4.752-5.332-4.752zm0 2.969c1.104 0 1.998 0.7994 1.998 1.783s-0.8943 1.781-1.998 1.781-2-0.7975-2-1.781 0.8963-1.783 2-1.783zm0 6.535c1.104 0 1.998 1.065 1.998 2.377s-0.8943 2.375-1.998 2.375-2-1.063-2-2.375 0.8963-2.377 2-2.377z" fill="url(#b)"/>
</svg>
