<svg version="1.1" viewBox="0 0 64 64" xmlns="http://www.w3.org/2000/svg">
 <defs>
  <linearGradient id="a" x1="1" x2="0" y1="1">
   <stop stop-color="#ff0002" offset="0"/>
   <stop stop-color="#ff0050" offset="1"/>
  </linearGradient>
 </defs>
 <path transform="translate(0) scale(1) translate(0) scale(1) translate(0) scale(1) translate(-.00049 -1e-6) scale(1) translate(.003 .007) scale(.9999)" d="M53.2 0a7.18 7.18 0 0 1 7.174 7.174v27.87c0 1.683-1.21 3.047-2.701 3.047s-2.703-1.364-2.703-3.047v-24.65c0-2.377-1.929-4.973-4.305-4.973h-21.36c-1.2 0-2.701-.698-2.701-2.381-.15-1.728.425-3.047 2.701-3.047zM17.14 0c1.492 0 2.703 1.366 2.703 3.047 0 1.683-1.468 2.374-2.451 2.381s-2.702-.006-4.053 0c-2.375 0-4.303 2.596-4.303 4.973v4.838c0 1.683-1.212 3.047-2.703 3.047s-2.701-1.364-2.701-3.047V7.175A7.18 7.18 0 0 1 10.806.001zM6.33 24.38c1.491 0 2.703 1.366 2.703 3.047v26.17c0 2.377 1.928 4.973 4.303 4.973h37.32c2.375 0 4.303-2.596 4.303-4.973v-4.838c0-1.683 1.212-3.047 2.703-3.047s2.701 1.364 2.701 3.047v8.064a7.18 7.18 0 0 1-7.174 7.174l-42.39-.002a7.176 7.176 0 0 1-7.174-7.172v-29.4c0-1.681 1.21-3.047 2.701-3.047z" fill="url(#a)"/>
 <path transform="translate(0) scale(1) translate(0) scale(1) translate(0) scale(1) translate(-.00049 -1e-6) scale(1)" d="M23.23 18.96q-.143.004-.326.02c-.469.031-9.304 1.684-9.865 1.847-.595.173-1.102.538-1.226.882-.212.587.4 2.496 1.208 3.778 3.224 3.83 6.803 4.8 10.31 6.863.403.472.562.7-2.526 2.067-4.825 2.137-6.388 3.955-7.313 6.643-.273.794-.4 2.896-.207 3.424.25.685.4.824 5.063-.061 4.683-.889 4.296-.941 4.688-1.311.318-.302.336-.374.475-1.8.08-.818.246-2.413.367-2.835.281-.982.989-2.007 1.759-2.549 2.921-2.056 8.421-1.031 11.4 2.124 1.121 1.189 1.825 2.885 2.387 4.729.324 1.064.653 1.526 1.165 1.628.47.092.482-.051 6.441-1.185 3.315-.629 4.696-.936 4.891-1.087.419-.326.42-1.125.003-2.445-.717-2.268-1.96-3.776-4.261-5.52-1.14-.863-2.577-1.678-5.012-2.845-2.316-1.109-3.42-1.409-3.42-1.753 0-.286.91-.412 2.747-.962 4.026-1.205 5.966-2.896 5.966-6.024 0-1.373-.26-2.48-.662-2.84-.536-.478-1.477-.493-3.727-.081-7.215 1.305-6.717 1.254-7.053 1.797-.178.287-.17.355.156 1.66.187.748.338 1.684.337 1.902-.003.462-.603 1.234-.897 1.509-.718.673-2.346 1.13-4.013 1.13-2.017 0-3.538-.692-5.045-2.3-1.09-1.161-1.648-2.286-2.39-4.355-.653-1.816-.743-2.053-1.414-2.042z" fill="url(#a)"/>
</svg>
