<svg version="1.1" viewBox="0 0 64 64" xmlns="http://www.w3.org/2000/svg" xmlns:xlink="http://www.w3.org/1999/xlink">
 <defs>
  <linearGradient id="a" transform="translate(-1.203 -1.2)scale(1.383)" x2="1" y1=".5" y2=".5" gradientTransform="matrix(15.2 0 0 10.84 24.38 32.89)" gradientUnits="userSpaceOnUse">
   <stop stop-color="#ffe031" offset="0"/>
   <stop stop-color="#fc5252" offset=".987"/>
  </linearGradient>
  <linearGradient id="c" transform="translate(-1.203 -1.2)scale(1.383)" x2=".907" y1=".5" y2=".92" gradientTransform="matrix(39.5 0 0 32.68 12.25 15.66)" gradientUnits="userSpaceOnUse">
   <stop stop-color="#00c4ff" offset="0"/>
   <stop stop-color="#0072ff" offset=".839"/>
  </linearGradient>
  <linearGradient id="b" x2=".907" y1=".5" y2=".92" gradientTransform="matrix(35.38 0 0 29.27 14.31 17.36)" gradientUnits="userSpaceOnUse" xlink:href="#c"/>
 </defs>
 <path transform="translate(0) scale(1) matrix(.9998 0 0 .9998 .007979 .003999)" d="m10.8 0c-3.959 0-7.174 3.215-7.174 7.174v8.064c0 1.683 1.21 3.047 2.701 3.047s2.703-1.364 2.703-3.047v-4.838c0-2.377 1.928-4.973 4.303-4.973h37.32c2.375 0 4.303 2.596 4.303 4.973v26.17c0 1.681 1.212 3.049 2.703 3.049s2.701-1.367 2.701-3.049v-29.4c0-3.959-3.215-7.174-7.174-7.174zm-4.473 25.91c-1.491 0-2.701 1.364-2.701 3.047v27.87c0 3.959 3.215 7.174 7.174 7.174h23.9c1.491 0 2.701-1.365 2.701-3.047 0-1.683-2.701-2.381-2.701-2.381h-21.36c-2.375 0-4.305-2.596-4.305-4.973v-24.65c0-1.683-1.212-3.047-2.703-3.047zm51.34 19.81c-1.491 0-2.703 1.364-2.703 3.047v4.838c0 2.377-1.928 4.973-4.303 4.973-1.35 0.0056-3.069-0.0066-4.053 0-0.9835 0.0065-2.451 0.696-2.451 2.379 0 1.681 1.211 3.049 2.703 3.049h6.334c3.959 0 7.174-3.215 7.174-7.174v-8.064c0-1.683-1.21-3.047-2.701-3.047z" fill="url(#c)" stroke-width=".8538"/>
 <path transform="translate(0) scale(1)" d="m26.09 42.12-0.2906 0.7112-1.415-0.5736 0.2829-0.7112 3.22-7.984 2.699 6.386 1.912-4.137 1.308 3.387 2.654-6.309 2.89 8.703 0.2371 0.7264-1.446 0.4818-0.2447-0.7264-1.606-4.841-2.546 6.056-1.377-3.556-1.843 3.992-2.608-6.156z" fill="url(#a)" stroke-width=".7647" style="isolation:isolate"/>
 <path transform="translate(0) scale(1)" d="m41.96 33.42c0.1208 0.7242 0.751 1.277 1.509 1.277 0.8412 0 1.644 0.3365 2.241 0.9332 0.5889 0.5889 0.9252 1.4 0.9252 2.241v2.531c0 0.8412-0.3365 1.644-0.9252 2.241a3.166 3.166 0 0 1-2.241 0.9332 1.53 1.53 0 0 0 0 3.059c1.652 0 3.235-0.6577 4.405-1.828a6.255 6.255 0 0 0 1.82-4.405v-2.531c0-1.652-0.6577-3.235-1.82-4.405a6.233 6.233 0 0 0-2.875-1.636v-2.998c0-0.06118-0.0076-0.13-0.0153-0.1912-0.1147-0.9404-0.3059-1.866-0.5659-2.776-0.2141-0.7724-0.5047-1.522-0.8641-2.241-0.3212-0.6423-0.7035-1.254-1.132-1.82q-0.6309-0.8144-1.4-1.491c-0.7685-0.6767-1.078-0.8489-1.667-1.193-0.6347-0.3594-1.3-0.6653-1.996-0.91-0.7876-0.2753-1.599-0.4741-2.416-0.6041-0.9861-0.153-1.98-0.2371-2.974-0.2447q-1.331-0.01147-2.661 0.1147c-0.7341 0.06883-1.461 0.1835-2.179 0.3518-0.7035 0.153-1.384 0.367-2.057 0.6347-0.5812 0.2295-1.147 0.5124-1.682 0.8489-0.5812 0.3594-1.124 0.7876-1.614 1.269-0.4741 0.4664-0.8947 0.9861-1.254 1.552-0.3747 0.5965-0.6883 1.231-0.918 1.897-0.26 0.7418-0.4512 1.506-0.5659 2.287-0.0076 0.07647-0.0153 0.1453-0.0153 0.2218v1.53c0 0.8435 0.6852 1.53 1.53 1.53 0.8442 0 1.53-0.686 1.53-1.53v-1.415c0.08412-0.5506 0.2218-1.085 0.4053-1.606 0.1606-0.4512 0.367-0.8718 0.6194-1.269 0.2295-0.3747 0.5047-0.7112 0.8182-1.017 0.3288-0.3212 0.6883-0.6118 1.085-0.8565 0.3747-0.2371 0.7724-0.4359 1.185-0.5965 0.5276-0.2064 1.063-0.3747 1.614-0.4971 0.5889-0.1377 1.185-0.2295 1.789-0.2906 0.78-0.07647 1.56-0.107 2.347-0.09941 0.8412 0.0076 1.69 0.07647 2.524 0.2064 0.6423 0.09941 1.269 0.26 1.889 0.4741 0.5124 0.1835 1.002 0.4053 1.476 0.673 0.4206 0.2447 0.8106 0.52 1.178 0.8412 0.3594 0.3136 0.6806 0.6653 0.9709 1.04 0.3212 0.4206 0.5965 0.8641 0.8336 1.331q0.413 0.8259 0.6653 1.72 0.3097 1.09 0.4588 2.226v4.489zm-21.41 10.16a1.53 1.53 0 0 1 0 3.059c-1.652 0-3.242-0.6577-4.405-1.828a6.233 6.233 0 0 1-1.828-4.405v-2.531c0-1.652 0.6577-3.235 1.828-4.405a6.217 6.217 0 0 1 4.405-1.828 1.53 1.53 0 0 1 0 3.059c-0.8412 0-1.652 0.3365-2.248 0.9332-0.5889 0.5889-0.9252 1.4-0.9252 2.241v2.531c0 0.8412 0.3365 1.644 0.9252 2.241 0.5965 0.5965 1.407 0.9332 2.248 0.9332m5.437 0.1835c0 0.8435-1.028 1.53-2.295 1.53a0.7647 0.7647 0 0 1-0.7647-0.7647v-10.77a0.7647 0.7647 0 0 1 0.7647-0.7647c1.266 0 2.295 0.6852 2.295 1.53zm15.09 0v0.7647a0.7647 0.7647 0 0 1-0.7647 0.7647c-1.266 0-2.295-0.686-2.295-1.53v-9.243c0-0.8442 1.028-1.53 2.295-1.53a0.7647 0.7647 0 0 1 0.7647 0.7647z" fill="url(#b)" fill-rule="evenodd" stroke-width=".7647" style="isolation:isolate"/>
</svg>
