<svg version="1.1" viewBox="0 0 64 64" xmlns="http://www.w3.org/2000/svg">
 <defs>
  <linearGradient id="a" x1="1" x2="0" y2="1">
   <stop stop-color="#0f9" offset="0"/>
   <stop stop-color="#14dc57" offset="1"/>
  </linearGradient>
 </defs>
 <path transform="translate(0) scale(1) translate(0) scale(1) translate(.00025) scale(1) translate(-.00055) scale(1)" d="m10.81 0a7.177 7.177 0 0 0-7.174 7.174v29.4c0 1.681 1.206 3.047 2.697 3.047s2.701-1.366 2.701-3.047v-26.17a4.31 4.31 0 0 1 4.309-4.307h32.17c0.236 6.667e-4 0.4611-0.03415 0.6758-0.1016 0.2133 0.06733 0.4384 0.1022 0.6758 0.1016h3.799a4.31 4.31 0 0 1 4.31 4.307v4.838c0 1.681 1.209 3.047 2.699 3.047s2.699-1.366 2.699-3.047v-8.064a7.176 7.176 0 0 0-7.174-7.174h-6.336c-0.2367 0-0.4618 0.03489-0.6758 0.1035a2.2 2.2 0 0 0-0.6758-0.1035h-34.7zm46.86 25.9-2e-3 2e-3 -0.0059 2e-3c-1.49 0-2.699 1.366-2.699 3.047v24.65a4.307 4.307 0 0 1-4.307 4.305h-21.36c-1.492 0-2.703 1.366-2.703 3.047 0 1.683 1.211 3.047 2.703 3.047h23.9a7.174 7.174 0 0 0 7.172-7.172v-27.88c0-1.681-1.206-3.047-2.697-3.047zm-51.34 19.81v0.0079c-1.491 0-2.701 1.366-2.701 3.047v8.06a7.176 7.176 0 0 0 7.174 7.172h6.334c1.491 0 2.703-1.364 2.703-3.047 0-1.681-1.212-3.047-2.703-3.047h-3.801a4.31 4.31 0 0 1-4.307-4.307v-4.84c0-1.681-1.208-3.047-2.699-3.047z" fill="url(#a)"/>
 <path transform="translate(0) scale(1) translate(0) scale(1) translate(.00025) scale(1) translate(-.00055) scale(1)" d="m36.18 46.64a2.094 2.094 0 0 0-2.092 2.092 2.094 2.094 0 0 0 2.092 2.094h12.56a2.094 2.094 0 0 0 2.092-2.094 2.094 2.094 0 0 0-2.092-2.092z" fill="url(#a)"/>
 <path transform="translate(0) scale(1) translate(0) scale(1) translate(.00025) scale(1) translate(-.00055) scale(1)" d="m36.18 38.27a2.094 2.094 0 0 0-2.092 2.092 2.094 2.094 0 0 0 2.092 2.092h12.56a2.094 2.094 0 0 0 2.092-2.092 2.094 2.094 0 0 0-2.092-2.092z" fill="url(#a)"/>
 <path transform="translate(0) scale(1) translate(0) scale(1) translate(.00025) scale(1) translate(-.00055) scale(1)" d="m36.18 29.9a2.094 2.094 0 0 0-2.092 2.094 2.094 2.094 0 0 0 2.092 2.092h12.56a2.094 2.094 0 0 0 2.092-2.092 2.094 2.094 0 0 0-2.092-2.094z" fill="url(#a)"/>
 <path transform="translate(0) scale(1) translate(0) scale(1) translate(.00025) scale(1) translate(-.00055) scale(1)" d="m17.35 29.9c-2.287 0-4.184 1.898-4.184 4.184v12.56c0 2.287 1.898 4.184 4.184 4.184h8.369c2.287 0 4.18-1.898 4.18-4.184v-12.56c0-2.287-1.894-4.184-4.18-4.184zm0 4.184h8.369v12.56h-8.369z" fill="url(#a)"/>
 <path transform="translate(0) scale(1) translate(0) scale(1) translate(.00025) scale(1) translate(-.00055) scale(1)" d="m15.47 21.54c-1.156 0.0011-2.092 0.9376-2.092 2.094 0.0011 1.155 0.9365 2.091 2.092 2.092h33.27c1.155-0.0011 2.093-0.9365 2.094-2.092 1e-6 -1.156-0.9378-2.093-2.094-2.094z" fill="url(#a)"/>
 <path transform="translate(0) scale(1) translate(0) scale(1) translate(.00025) scale(1) translate(-.00055) scale(1)" d="m15.47 13.17c-1.156 0.0011-2.092 0.9376-2.092 2.094 0.0011 1.155 0.9365 2.091 2.092 2.092h33.27c1.155-0.0011 2.093-0.9365 2.094-2.092 1e-6 -1.156-0.9378-2.093-2.094-2.094z" fill="url(#a)"/>
</svg>
