<svg version="1.1" viewBox="0 0 64 64" xmlns="http://www.w3.org/2000/svg">
 <defs>
  <linearGradient id="a" x1="1" x2="0" y2="1">
   <stop stop-color="#00ff6f" offset="0"/>
   <stop stop-color="#1eff01" offset="1"/>
  </linearGradient>
 </defs>
 <path transform="translate(-4e-5) scale(1) translate(-.007769 .000329) scale(.9999) translate(.00951 .009765) scale(1)" d="m53.18-0.009766 0.00586 0.009766-42.38 0.003906c-3.958 0-7.174 3.214-7.174 7.172v8.062c0 1.683 1.21 3.047 2.701 3.047s2.703-1.364 2.703-3.047v-4.836c0-2.376 1.926-4.973 4.301-4.973h37.31c2.374 0 4.303 2.596 4.303 4.973v26.16c0 1.681 1.212 3.049 2.703 3.049s2.699-1.367 2.699-3.049v-29.4c0-3.958-3.214-7.172-7.172-7.172zm-46.84 25.9-0.00195 0.0098-0.00391 0.0059c-1.491 0-2.701 1.364-2.701 3.047v27.86c0 3.958 3.218 7.174 7.176 7.174h23.9c1.491 0 2.701-1.367 2.701-3.049 0-1.683-2.701-2.381-2.701-2.381h-21.36c-2.374 0-4.305-2.594-4.305-4.971v-24.65c0-1.683-1.212-3.045-2.703-3.045zm51.33 19.82c-1.491 0-2.703 1.364-2.703 3.047v4.836c0 2.376-1.928 4.973-4.303 4.973-1.35 0.0056-3.067-0.0066-4.051 0-0.9833 0.0065-2.451 0.6961-2.451 2.379 0 1.681 1.211 3.049 2.703 3.049h6.332c3.958 0 7.172-3.216 7.172-7.174v-8.062c0-1.683-1.208-3.045-2.699-3.045z" fill="url(#a)"/>
 <path transform="translate(-4e-5) scale(1) translate(-.007769 .000329) scale(.9999) translate(.00951 .009765) scale(1)" d="m40.08 34.31-2e-3 2e-3c-0.294 0-0.5895 0.05332-0.8535 0.1816-0.264 0.1275-0.5049 0.345-0.5996 0.6582l-2.613 8.523-0.0039 0.0098c-0.01366 0.05372-0.03711 0.07663-0.03711 0.2188 0 0.3851 0.2682 0.6602 0.5469 0.8242 0.2786 0.1639 0.5987 0.25 0.9082 0.25 0.1858 0 0.3731-0.02641 0.5488-0.1211a0.8012 0.8012 0 0 0 0.3809-0.4863l0.4414-1.545h2.578l0.4414 1.545c0.05554 0.2113 0.207 0.3908 0.3828 0.4863s0.3612 0.1211 0.5469 0.1211c0.3123 0 0.6315-0.09102 0.9082-0.2559 0.2767-0.1648 0.5469-0.4341 0.5469-0.8184 0-0.1166-0.02618-0.1778-0.03711-0.2188l-0.0039-0.0098-2.611-8.523c-0.09369-0.3132-0.3376-0.5346-0.6035-0.6621a2.003 2.003 0 0 0-0.8652-0.1797zm-2e-3 3.898 0.7227 2.549h-1.441z" fill="url(#a)"/>
 <path transform="translate(-4e-5) scale(1) translate(-.007769 .000329) scale(.9999) translate(.00951 .009765) scale(1)" d="m16.86 12.37a4.51 4.51 0 0 0-4.502 4.502v14.52a4.51 4.51 0 0 0 4.502 4.5h11.24v4.426l-3.621 2.586a1.475 1.475 0 0 0 0 2.4l3.727 2.66c0.3969 2.08 2.206 3.664 4.396 3.664h14.52a4.51 4.51 0 0 0 4.502-4.5v-14.52a4.51 4.51 0 0 0-4.502-4.502h-11.24v-4.428l3.619-2.584a1.475 1.475 0 0 0 0-2.398l-3.727-2.662c-0.3969-2.08-2.204-3.664-4.394-3.664zm-0.01172 2.945 2e-3 0.0039h14.53a1.548 1.548 0 0 1 1.551 1.553c0 0.4762 0.2313 0.9238 0.6191 1.199l2.557 1.826-2.559 1.826a1.475 1.475 0 0 0-0.6172 1.199v5.184h-0.3398a4.51 4.51 0 0 0-4.502 4.502v0.3418h-11.24a1.548 1.548 0 0 1-1.553-1.555v-14.53a1.548 1.548 0 0 1 1.553-1.551zm15.75 15.74v0.0039h14.53a1.548 1.548 0 0 1 1.551 1.553v14.52a1.548 1.548 0 0 1-1.551 1.553h-14.53a1.548 1.548 0 0 1-1.551-1.553c0-0.4753-0.2303-0.922-0.6172-1.197l-2.56-1.828 2.56-1.826a1.475 1.475 0 0 0 0.6172-1.199v-8.475a1.548 1.548 0 0 1 1.551-1.553z" fill="url(#a)"/>
 <path transform="translate(-4e-5) scale(1) translate(-.007769 .000329) scale(.9999) translate(.00951 .009765) scale(1)" d="m23.94 18.35a1.063 1.063 0 0 0-1.055 1.059v1.387h-2.826c-0.58 0-1.059 0.4775-1.059 1.057 0 0.58 0.4786 1.057 1.059 1.057h0.6992a7.102 7.102 0 0 0 1.52 3.438c-0.6747 0.335-1.413 0.5566-2.217 0.5566-0.58 0-1.059 0.4786-1.059 1.059 0 0.58 0.4776 1.057 1.057 1.057 1.437 0 2.762-0.452 3.883-1.184 1.123 0.7312 2.447 1.184 3.881 1.184a1.063 1.063 0 0 0 1.057-1.057 1.062 1.062 0 0 0-1.057-1.059c-0.8039 0-1.545-0.2216-2.219-0.5566a7.102 7.102 0 0 0 1.522-3.438h0.6992c0.5791 0 1.055-0.4766 1.055-1.057 0-0.58-0.4757-1.057-1.055-1.057h-2.826v-1.387a1.063 1.063 0 0 0-1.057-1.059zm-1.002 4.56h2.01a4.971 4.971 0 0 1-1.004 2.09 5.008 5.008 0 0 1-1.006-2.09z" fill="url(#a)"/>
</svg>
