<svg version="1.1" viewBox="0 0 64 64" xmlns="http://www.w3.org/2000/svg">
 <defs>
  <linearGradient id="a" x1="1" x2="0" y1=".5" y2=".5">
   <stop stop-color="#b900ff" offset="0"/>
   <stop stop-color="#6033ff" offset="1"/>
  </linearGradient>
 </defs>
 <path transform="translate(0) scale(1) translate(0) scale(1) translate(0) scale(1) translate(0) scale(1) translate(5e-4) scale(1) translate(.002)" d="M10.8 0a7.177 7.177 0 0 0-7.174 7.175v29.4c0 1.68 1.21 3.047 2.701 3.047s2.701-1.366 2.701-3.047v-26.17a4.31 4.31 0 0 1 4.305-4.307h32.17q.354.001.676-.1.32.101.676.1h3.8a4.31 4.31 0 0 1 4.306 4.307v4.838c0 1.68 1.21 3.047 2.7 3.047s2.702-1.366 2.702-3.047V7.179A7.176 7.176 0 0 0 53.19.005h-6.336c-.235 0-.463.034-.676.103a2.2 2.2 0 0 0-.676-.103h-34.7zm46.86 25.9c-1.491 0-2.701 1.367-2.701 3.048v24.65a4.307 4.307 0 0 1-4.305 4.305h-21.36c-1.492 0-2.703 1.366-2.703 3.047 0 1.683 1.211 3.047 2.703 3.047h23.9a7.174 7.174 0 0 0 7.172-7.172v-27.88c0-1.681-1.21-3.047-2.701-3.047zM6.33 45.71c-1.491 0-2.701 1.367-2.701 3.048v8.066a7.176 7.176 0 0 0 7.174 7.172h6.334c1.491 0 2.703-1.364 2.703-3.047 0-1.681-1.212-3.047-2.703-3.047h-3.801a4.307 4.307 0 0 1-4.305-4.305v-4.84c0-1.681-1.21-3.047-2.701-3.047z" fill="url(#a)"/>
 <path transform="translate(0) scale(1) translate(0) scale(1) translate(0) scale(1) translate(0) scale(1) translate(5e-4) scale(1)" d="m39.32 10.04-7.319 8.783h2.928v2.928h-14.64v23.42h-2.928l7.319 8.783 7.319-8.783h-2.928v-2.928h14.64v-23.42h2.928zm0 4.392 1.464 1.464v23.42h-11.71v-2.928h8.783v-20.49zm-16.1 10.25h11.71v2.928h-8.783V48.1l-1.464 1.464-1.464-1.464v-2.928zm5.856 5.856h5.856v2.928h-5.856z" fill="url(#a)"/>
</svg>
