<svg version="1.1" viewBox="0 0 64 64" xmlns="http://www.w3.org/2000/svg">
 <defs>
  <linearGradient id="a" x1="1" x2="0" y1=".5" y2=".5">
   <stop stop-color="#0df" offset="0"/>
   <stop stop-color="#90f" offset="1"/>
  </linearGradient>
 </defs>
 <path transform="translate(.008199 .003999) scale(.9998) translate(-2e-4) scale(1)" d="m10.8 0c-3.959 0-7.174 3.215-7.174 7.174v8.064c0 1.683 1.21 3.047 2.701 3.047s2.703-1.364 2.703-3.047v-4.838c0-2.377 1.928-4.973 4.303-4.973h37.32c2.375 0 4.303 2.596 4.303 4.973v26.17c0 1.681 1.212 3.049 2.703 3.049s2.701-1.367 2.701-3.049v-29.4c0-3.959-3.215-7.174-7.174-7.174zm-4.473 25.91c-1.491 0-2.701 1.364-2.701 3.047v27.87c0 3.959 3.215 7.174 7.174 7.174h23.9c1.491 0 2.701-1.365 2.701-3.047 0-1.683-2.701-2.381-2.701-2.381h-21.36c-2.375 0-4.305-2.596-4.305-4.973v-24.65c0-1.683-1.212-3.047-2.703-3.047zm51.34 19.81c-1.491 0-2.703 1.364-2.703 3.047v4.838c0 2.377-1.928 4.973-4.303 4.973-1.35 0.0056-3.069-0.0066-4.053 0-0.9835 0.0065-2.451 0.696-2.451 2.379 0 1.681 1.211 3.049 2.703 3.049h6.334c3.959 0 7.174-3.215 7.174-7.174v-8.064c0-1.683-1.21-3.047-2.701-3.047z" fill="url(#a)"/>
 <path transform="translate(.008199 .003999) scale(.9998)" d="m34.4 12.9c-2.263 0.0062-7.239 0.2-12.34 4.054a0.2967 0.2967 0 0 0-0.0012 0c-4.02 3.062-6.48 7.275-7.411 11.76 0 3e-6 1.6e-5 0.0022 0 0.0023-0.1327 0.6397-0.2341 1.285-0.3048 1.934-0.08082 0.7417-0.1216 1.488-0.1217 2.234v0.0024a0.2967 0.2967 0 0 0 0 0.0058c0.03484 1.767 0.2854 3.389 0.6711 4.859v0.0024c1.157 4.405 3.521 7.406 4.978 8.735a0.2967 0.2967 0 0 0 0.0197 0.01738c0.9132 0.7192 1.886 1.365 2.911 1.931 1.025 0.5652 2.102 1.049 3.221 1.443 1.119 0.3941 2.281 0.6984 3.476 0.9037 1.195 0.2057 2.422 0.3129 3.674 0.3129 0.7738 0 1.496-0.03905 2.25-0.1263a0.2967 0.2967 0 0 0 0.0024 0c0.0012-1.98e-4 0.0042-5.15e-4 0.0092-0.0012 0.4865-0.05663 1.023-0.1672 1.532-0.2607a0.2967 0.2967 0 0 0-0.03707-0.5888c-0.3494-0.01943-0.7382-0.06391-1.113-0.09038-0.4647-0.03276-0.8871-0.05361-1.368-0.1136-0.6373-0.07945-1.308-0.2317-1.994-0.3744-0.5309-0.1101-1.027-0.1812-1.543-0.3268-0.3023-0.08533-0.6059-0.1861-0.9156-0.2886-0.2555-0.08456-0.503-0.161-0.7477-0.2527-0.1253-0.04693-0.2512-0.09697-0.3767-0.1495-0.2188-0.09167-0.4391-0.1902-0.6616-0.2886-0.246-0.1087-0.4836-0.2027-0.7115-0.3152-0.3632-0.1791-0.7227-0.3931-1.089-0.607-0.2137-0.1251-0.4187-0.2257-0.607-0.3467-0.5529-0.3545-1.092-0.7423-1.612-1.174-4.049-3.392-6.124-8.254-6.07-13.09a0.2967 0.2967 0 0 0 0-0.0012c0.02734-3.608 1.255-7.21 3.744-10.16 4.414-5.227 10.08-5.711 12.54-5.726a0.2967 0.2967 0 0 0 0.2944-0.2967v-3.315a0.2967 0.2967 0 0 0-0.2979-0.2967zm0.131 4.687c-0.2122 5.11e-4 -0.4223 0.0047-0.6314 0.0139-4.115 0.1802-7.542 1.984-9.749 3.961-1.83 1.627-3.022 3.432-3.795 5.109-0.2581 0.559-0.4706 1.104-0.6444 1.624-0.5805 1.736-0.7376 3.189-0.7785 3.948a0.2967 0.2967 0 0 0 0 0.01391l0.0011-0.01622c-0.238 3.619 0.7376 8.064 4.161 11.74 1.36 1.471 2.947 2.581 4.853 3.602a0.2967 0.2967 0 0 0 0.0024 0c3.401 1.795 8.201 2.241 12.16 2.242a0.2967 0.2967 0 0 0 0.102-0.01855c1.094-0.4006 1.58-0.5933 2.178-0.8379a0.2967 0.2967 0 0 0 0.0011-0.0012c0.972-0.4032 1.826-0.9999 2.679-1.562a0.2967 0.2967 0 0 0-0.2179-0.5401c-3.058 0.5698-6.142 0.4468-9.209 0h-0.0024c-5.634-1.014-10.47-4.458-12.24-9.643-1.678-4.907-0.1057-9.583 3.077-12.56 3.145-2.938 7.862-4.17 12.57-2.325a0.2967 0.2967 0 0 0 0.3767-0.1495l1.394-2.971a0.2967 0.2967 0 0 0-0.1588-0.4021c-0.8397-0.3356-1.669-0.6064-2.484-0.8023-0.4216-0.1011-0.8385-0.1832-1.25-0.248-0.411-0.06468-0.8183-0.1116-1.219-0.1414a0.2967 0.2967 0 0 0-0.0081 0c-9e-3 -6.57e-4 -0.01767-5.19e-4 -0.02667-0.0012-0.3864-0.02763-0.769-0.04147-1.145-0.04057zm0.05448 4.601c-2.263 0.05223-4.396 0.8023-6.165 2.027-0.4429 0.3065-0.8628 0.645-1.256 1.007-0.7874 0.7245-1.47 1.552-2.019 2.459-0.2665 0.4405-0.5013 0.9002-0.7014 1.374a0.2967 0.2967 0 0 0-0.02318 0.04636 0.2967 0.2967 0 0 0-0.0081 0.01855c-0.37 0.8859-0.6272 1.804-0.7649 2.752-0.07732 0.5321-0.1171 1.073-0.1171 1.622 0 5.58 4.441 10.5 10.3 12.47a0.2967 0.2967 0 0 0 0.01045 0.0012c1.325 0.4358 3.332 0.8005 5.609 0.9304 2.274 0.13 4.812 0.02427 7.186-0.4879a0.2967 0.2967 0 0 0 0.1228-0.05795c1.086-0.8681 2.071-1.87 2.959-2.933a0.2967 0.2967 0 0 0-0.2632-0.4845c-3.491 0.4199-9.85 0.8871-14.42-0.6361-3.929-1.31-7.631-4.662-7.631-8.776 0-2.06 0.8337-3.915 2.179-5.257 0.3366-0.3359 0.7038-0.6403 1.099-0.9061 1.186-0.7987 2.613-1.263 4.148-1.263 1.035 0 2.014 0.2155 2.902 0.6005 0.5917 0.2565 1.142 0.589 1.643 0.9838 0.7263 0.5734 1.335 1.289 1.813 2.091a0.2967 0.2967 0 0 0 0.3871 0.1136l2.976-1.475a0.2967 0.2967 0 0 0 0.1263-0.4115c-1.032-1.822-2.351-3.061-3.536-3.867-0.2405-0.1634-0.4744-0.3091-0.7002-0.4392-0.4493-0.2592-0.861-0.4546-1.208-0.5993a0.2967 0.2967 0 0 0-0.0099-0.0023c-0.01463-0.0062-0.02937-0.0067-0.044-0.01275a0.2967 0.2967 0 0 0-0.0099-0.0035h-0.0011v-0.0012h-0.0022c-1.534-0.6343-3.075-0.9144-4.564-0.8818a0.2967 0.2967 0 0 0-0.01504-0.0069zm0.2051 0.08111 0.0069 0.0023c0.0047 0.0043 0.0096 0.0092 0.0139 0.01391a0.2967 0.2967 0 0 0-0.02089-0.01622z" fill="url(#a)" stroke-width=".5934"/>
</svg>
