<svg version="1.1" viewBox="0 0 64 64" xmlns="http://www.w3.org/2000/svg">
 <defs>
  <linearGradient id="a" y2="1">
   <stop stop-color="#ffc025" offset="0"/>
   <stop stop-color="#ffff7f" offset="1"/>
  </linearGradient>
 </defs>
 <g transform="translate(0) scale(1) translate(0) scale(1) translate(-2e-5 -1e-6) scale(1) translate(.008 .004) scale(.9998)" fill="url(#a)">
  <path d="M10.8 0a7.18 7.18 0 0 0-7.174 7.174v8.064c0 1.683 1.21 3.047 2.701 3.047s2.703-1.364 2.703-3.047V10.4c0-2.377 1.928-4.973 4.303-4.973h37.32c2.375 0 4.303 2.596 4.303 4.973v26.17c0 1.681 1.212 3.049 2.703 3.049s2.701-1.367 2.701-3.049V7.17a7.18 7.18 0 0 0-7.174-7.174zM6.327 25.91c-1.491 0-2.701 1.364-2.701 3.047v27.87a7.18 7.18 0 0 0 7.174 7.174h23.9c1.491 0 2.701-1.365 2.701-3.047S34.7 58.573 34.7 58.573H13.34c-2.375 0-4.305-2.596-4.305-4.973V28.95c0-1.683-1.212-3.047-2.703-3.047zm51.34 19.81c-1.491 0-2.703 1.364-2.703 3.047v4.838c0 2.377-1.928 4.973-4.303 4.973-1.35.006-3.069-.007-4.053 0-.983.006-2.451.696-2.451 2.379 0 1.681 1.211 3.049 2.703 3.049h6.334a7.18 7.18 0 0 0 7.174-7.174v-8.064c0-1.683-1.21-3.047-2.701-3.047z"/>
  <path d="M32 47.19c2.842 0 6.194-.357 7.705-1.994 1.126-1.22 1.422-3.459 1.394-4.959-.61-.853-3.401-3.153-9.099-3.153s-8.492 2.3-9.099 3.153c-.028 1.503.268 3.742 1.394 4.959 1.513 1.637 4.863 1.994 7.705 1.994m-4.367-6.022c0 1.457.14 2.766.868 2.766.731 0 .868-1.27.868-2.73 0-1.457-.03-2.73-.825-2.73-.792 0-.914 1.235-.914 2.695m8.735 0c0 1.457-.139 2.766-.867 2.766-.732 0-.868-1.27-.868-2.73 0-1.457.03-2.73.825-2.73.792 0 .913 1.235.913 2.695m-19.62-8.416c0 1.017.109 1.9.301 2.674 2.432-1.92 3.813-7.368 2.44-11.4-1.856 3.006-2.744 6.397-2.744 8.722m5.316 9.537c-2.826-1.042-6.566-3.454-6.566-9.534s5.028-17.2 16.5-17.2c11.47 0 16.5 11.11 16.5 17.2 0 6.08-3.74 8.492-6.566 9.534-.38 4.466-3.828 6.164-9.934 6.164-6.108 0-9.554-1.698-9.934-6.164m22.44-18.26c-1.37 4.028.01 9.478 2.44 11.4.191-.774.3-1.657.3-2.674 0-2.328-.885-5.716-2.743-8.722m-12.51-6.035c-4.296 0-7.778 3.375-7.778 7.54s3.482 7.54 7.778 7.54 7.778-3.375 7.778-7.54-3.482-7.54-7.778-7.54"/>
 </g>
</svg>
