<svg version="1.1" viewBox="0 0 64 64" xmlns="http://www.w3.org/2000/svg">
 <defs>
  <linearGradient id="a" y1="1">
   <stop stop-color="#00fffa" offset="0"/>
   <stop stop-color="#0078ff" offset="1"/>
  </linearGradient>
 </defs>
 <path transform="translate(-2e-5) scale(1) translate(.00105 9.4e-5) scale(.9998) translate(.008509 .003906) scale(.9999)" d="m53.19-0.003906-42.39 0.003906c-3.959 0-7.174 3.215-7.174 7.174v8.064c0 1.683 1.21 3.047 2.701 3.047s2.703-1.364 2.703-3.047v-4.838c0-2.377 1.928-4.973 4.303-4.973h37.32c2.375 0 4.303 2.596 4.303 4.973v26.17c0 1.681 1.212 3.049 2.703 3.049s2.701-1.367 2.701-3.049v-29.4c0-3.959-3.215-7.174-7.174-7.174zm-46.85 25.91-0.00586 0.0078c-1.491 0-2.701 1.364-2.701 3.047v27.87c0 3.959 3.215 7.176 7.174 7.176h23.9c1.491 0 2.701-1.367 2.701-3.049 0-1.683-2.701-2.381-2.701-2.381h-21.36c-2.375 0-4.305-2.596-4.305-4.973v-24.65c0-1.683-1.212-3.047-2.703-3.047zm51.33 19.82c-1.491 0-2.703 1.364-2.703 3.047v4.838c0 2.377-1.928 4.973-4.303 4.973-1.35 0.0056-3.069-0.0066-4.053 0-0.9835 0.0065-2.451 0.6959-2.451 2.379 0 1.681 1.211 3.049 2.703 3.049h6.334c3.959 0 7.174-3.215 7.174-7.174v-8.064c0-1.683-1.21-3.047-2.701-3.047z" fill="url(#a)"/>
 <path transform="translate(-2e-5) scale(1) translate(.00105 9.4e-5) scale(.9998) translate(.008509 .003906) scale(.9999)" d="m19.68 31.8v6.719h-2.24v15.68c0 1.241 1.003 2.145 2.24 2.24h26.88v-15.68c0-1.241-0.9995-2.24-2.24-2.24h-4.478v-6.719zm2.238 2.24h15.68v4.478h-3.377c-1.054-1.405-2.705-2.235-4.461-2.24-1.761 0.0014-3.418 0.8316-4.475 2.24h-3.365zm-2.238 6.719h24.64v2.24h-8.959c-2.482 0-4.478 1.997-4.478 4.478s1.997 4.478 4.478 4.478h8.959v2.24h-24.64zm17.92 4.478c1.237 0 2.24 1.003 2.24 2.24s-1.003 2.24-2.24 2.24-2.24-1.003-2.24-2.24 1.003-2.24 2.24-2.24z" fill="url(#a)" fill-opacity=".941"/>
 <path transform="translate(-2e-5) scale(1) translate(.00105 9.4e-5) scale(.9998) translate(.008509 .003906) scale(.9999)" d="m30 5.432v1.994h1.996v-1.994zm1.996 1.994v2h1.998v-2zm0 2h-1.996v2.002h1.996zm0 2.002v1.998h1.998v-1.998zm0 1.998h-1.996v2h1.996zm0 2v2h1.998v-2zm0 2h-1.996v1.998h1.996zm0 1.998v2.002h1.998v-2.002zm-1.996 3.004v6.496c0 0.2769 0.2191 0.5 0.4961 0.5h3.002c0.2769 0 0.498-0.2231 0.498-0.5v-6.496zm1 4h1.998v1.994h-1.998z" fill="url(#a)"/>
</svg>
