<svg version="1.1" viewBox="0 0 64 64" xmlns="http://www.w3.org/2000/svg">
 <defs>
  <linearGradient id="a" y1="1">
   <stop stop-color="#f00" offset="0"/>
   <stop stop-color="#ff006e" offset="1"/>
  </linearGradient>
 </defs>
 <path transform="translate(-.00225 .0016) scale(1) translate(-.0012 .000494) scale(1)" d="m53.18 0-42.37 0.003906a7.178 7.178 0 0 0-7.172 7.172v8.062c0 1.682 1.209 3.045 2.699 3.045s2.703-1.362 2.703-3.045v-4.838c0-2.376 1.926-4.971 4.301-4.971h37.31c2.374 0 4.303 2.594 4.303 4.971v26.16c0 1.68 1.211 3.049 2.701 3.049s2.701-1.367 2.701-3.049v-29.39a7.178 7.178 0 0 0-7.172-7.172zm-46.83 25.9-0.00586 0.0078c-1.49 0-2.699 1.364-2.699 3.047v27.86a7.178 7.178 0 0 0 7.17 7.174h23.9c1.491 0 2.699-1.366 2.699-3.049s-2.699-2.381-2.699-2.381h-21.35c-2.375 0-4.305-2.594-4.305-4.971v-24.64c0-1.682-1.211-3.047-2.701-3.047zm51.31 19.81c-1.491 0-2.701 1.362-2.701 3.045v4.838c0 2.376-1.928 4.971-4.303 4.971-1.35 6e-3 -3.067-7e-3 -4.051 0-0.9827 7e-3 -2.451 0.6954-2.451 2.379 0 1.68 1.212 3.047 2.703 3.047h6.332a7.178 7.178 0 0 0 7.172-7.172v-8.06c0-1.682-1.211-3.047-2.701-3.047z" fill="url(#a)"/>
 <path transform="translate(-.00225 .0016) scale(1)" d="m31.48 14.92c-1.012 0.06577-2.001 0.3283-2.918 0.7617a0.5 0.5 0 0 0-0.04297 0.009765l-9.656 4.633a0.5 0.5 0 0 0-0.001953 0c-2.064 0.9937-3.377 3.085-3.379 5.375v1.141c5.77e-4 8.011 4.084 15.47 10.83 19.79l2.254 1.445c2.091 1.342 4.778 1.341 6.869-0.001953l2.25-1.443c6.748-4.318 10.83-11.78 10.83-19.79v-1.141c6.4e-5 -2.292-1.317-4.384-3.383-5.375l-9.666-4.633c-1.24-0.593-2.612-0.8582-3.984-0.7715a0.5 0.5 0 0 0-0.007812 0zm0.3008 4.422c0.6152-0.03598 1.229 0.08324 1.785 0.3496l9.658 4.629c0.531 0.2563 0.8674 0.791 0.8672 1.381v1.141c-0.0015 6.499-3.313 12.55-8.787 16.05l-2.256 1.445c-0.635 0.4064-1.443 0.4064-2.078 0l-2.256-1.445c-5.474-3.502-8.786-9.55-8.787-16.05v-1.141c0-0.5879 0.3371-1.125 0.8672-1.381l9.656-4.627a0.5 0.5 0 0 0 0-0.001954c0.4168-0.2004 0.8687-0.3182 1.33-0.3496z" fill="url(#a)" stop-color="#000000" stroke-linecap="round" stroke-linejoin="round"/>
 <path transform="translate(-.00225 .0016) scale(1)" d="m32.13 25.21c-2.011-0.06959-3.463 1.264-3.916 2.85-0.4273 1.494 0.05644 3.242 1.568 4.281v4.234a0.5 0.5 0 0 0 0 0.01562c0.02194 0.6771 0.3076 1.243 0.7285 1.607 0.421 0.3648 0.9566 0.5371 1.486 0.5371s1.065-0.1723 1.486-0.5371c0.421-0.3648 0.7066-0.9303 0.7285-1.607a0.5 0.5 0 0 0 0-0.01562v-4.277c1.036-0.7339 1.718-1.876 1.717-3.16-0.0016-2.114-1.686-3.857-3.799-3.928zm2.578 2.811c0.07086 0.1722 0.1268 0.3521 0.1641 0.5391-0.03728-0.1869-0.0932-0.3669-0.1641-0.5391z" fill="url(#a)" stop-color="#000000" stroke-linecap="round" stroke-linejoin="round"/>
</svg>
