<svg version="1.1" viewBox="0 0 64 64" xmlns="http://www.w3.org/2000/svg">
 <defs>
  <linearGradient id="a" x1="3.119" x2="22.35" y1="21.16" y2="1.924" gradientTransform="matrix(1.607 0 0 1.737 11.53 12.06)" gradientUnits="userSpaceOnUse">
   <stop stop-color="#07f" offset="0"/>
   <stop stop-color="#00f7ff" offset="1"/>
  </linearGradient>
 </defs>
 <path transform="translate(-2e-5) scale(1) translate(.008199 .003999) scale(.9998) translate(-2e-4) scale(1)" d="m10.8 0c-3.959 0-7.174 3.215-7.174 7.174v8.064c0 1.683 1.21 3.047 2.701 3.047s2.703-1.364 2.703-3.047v-4.838c0-2.377 1.928-4.973 4.303-4.973h37.32c2.375 0 4.303 2.596 4.303 4.973v26.17c0 1.681 1.212 3.049 2.703 3.049s2.701-1.367 2.701-3.049v-29.4c0-3.959-3.215-7.174-7.174-7.174zm-4.473 25.91c-1.491 0-2.701 1.364-2.701 3.047v27.87c0 3.959 3.215 7.174 7.174 7.174h23.9c1.491 0 2.701-1.365 2.701-3.047 0-1.683-2.701-2.381-2.701-2.381h-21.36c-2.375 0-4.305-2.596-4.305-4.973v-24.65c0-1.683-1.212-3.047-2.703-3.047zm51.34 19.81c-1.491 0-2.703 1.364-2.703 3.047v4.838c0 2.377-1.928 4.973-4.303 4.973-1.35 0.0056-3.069-0.0066-4.053 0-0.9835 0.0065-2.451 0.696-2.451 2.379 0 1.681 1.211 3.049 2.703 3.049h6.334c3.959 0 7.174-3.215 7.174-7.174v-8.064c0-1.683-1.21-3.047-2.701-3.047z" fill="url(#a)" stroke-width="1.671"/>
 <path transform="translate(-2e-5) scale(1) translate(.008199 .003999) scale(.9998)" d="m39.94 15.4a5.012 5.012 0 0 0-5.006 4.817l-5.3-3.338a4.177 4.177 0 0 0-5.179 0.5809l-2.506 2.506a4.177 4.177 0 0 0 5.906 5.906l0.1468-0.1468 0.06526 0.03916-2.623 3.064a10.02 10.02 0 1 0 11.15 9.963h1.586l-0.6656 3.358a4.177 4.177 0 0 0 8.187 1.638l1.671-8.354c0.2456-1.226-0.06953-2.499-0.8614-3.469-0.7435-0.9072-1.836-1.454-2.999-1.521l-0.2317-0.0065h-5.656l1.592-1.85a4.177 4.177 0 0 0 0.9789-3.171 5.012 5.012 0 0 0-0.261-10.01zm0 2.506a2.506 2.506 0 0 1 0 5.012 2.506 2.506 0 0 1 0-5.012zm-12.47 0.8354a1.671 1.671 0 0 1 0.8255 0.2578l8.648 5.45a1.674 1.674 0 0 1 0.3753 2.503l-3.893 4.529c-1.32-1.238-2.972-2.125-4.81-2.506l3.235-3.789-4.207-2.65-1.563 1.563a1.671 1.671 0 1 1-2.362-2.362l2.506-2.506 0.2219-0.186a1.671 1.671 0 0 1 1.025-0.3034zm-0.9007 12.53a7.518 7.518 0 0 1 0 15.04 7.518 7.518 0 0 1 0-15.04zm8.138 1.671h8.573a1.671 1.671 0 0 1 1.635 1.997l-1.671 8.354a1.671 1.671 0 0 1-3.276-0.6526l1.273-6.357h-4.961c-0.3141-1.22-0.8578-2.347-1.573-3.342z" fill="url(#a)" stroke-width="1.671"/>
</svg>
