<svg version="1.1" viewBox="0 0 64 64" xmlns="http://www.w3.org/2000/svg">
 <defs>
  <linearGradient id="a" x1="1" x2="0" y2="1">
   <stop stop-color="#00ff6f" offset="0"/>
   <stop stop-color="#1eff01" offset="1"/>
  </linearGradient>
 </defs>
 <path transform="translate(-27.36 -27.36) scale(1.855)" d="m40.71 38.7c-0.6874 0-1.25 0.5626-1.25 1.25v0.7031c0 0.6874 0.5626 1.25 1.25 1.25h3.408c0.6874 0 1.25-0.5626 1.25-1.25v-0.7031c0-0.6874-0.5626-1.25-1.25-1.25z" fill="url(#a)" stop-color="#000000" stroke-linecap="round" stroke-linejoin="round"/>
 <path transform="translate(-27.36 -27.36) scale(1.855)" d="m40.71 34.45c-0.6874 0-1.25 0.5626-1.25 1.25v0.7031c0 0.6874 0.5626 1.25 1.25 1.25h3.408c0.6874 0 1.25-0.5626 1.25-1.25v-0.7031c0-0.6874-0.5626-1.25-1.25-1.25z" fill="url(#a)" stop-color="#000000" stroke-linecap="round" stroke-linejoin="round"/>
 <path transform="translate(-27.36 -27.36) scale(1.855)" d="m40.71 30.2c-0.05403-2.38e-4 -0.1085 3e-3 -0.1621 0.0098a0.25 0.25 0 0 0-2e-3 0c-0.6202 0.08186-1.086 0.6147-1.086 1.24v0.7051c0 0.6874 0.5626 1.25 1.25 1.25h3.408c0.6874 0 1.25-0.5626 1.25-1.25v-0.7051c0-0.6874-0.5626-1.25-1.25-1.25h-3.406z" fill="url(#a)" stop-color="#000000" stroke-linecap="round" stroke-linejoin="round"/>
 <path transform="translate(-27.36 -27.36) scale(1.855)" d="m40.71 25.96c-0.05403-2.38e-4 -0.1085 3e-3 -0.1621 0.0098a0.25 0.25 0 0 0-2e-3 0c-0.6202 0.08186-1.086 0.6147-1.086 1.24v0.7031c0 0.6874 0.5626 1.25 1.25 1.25h3.408c0.6874 0 1.25-0.5626 1.25-1.25v-0.7031c0-0.6874-0.5626-1.25-1.25-1.25h-3.406z" fill="url(#a)" stop-color="#000000" stroke-linecap="round" stroke-linejoin="round"/>
 <path transform="translate(-27.36 -27.36) scale(1.855)" d="m40.71 21.71c-0.05403-2.38e-4 -0.1085 3e-3 -0.1621 0.0098a0.25 0.25 0 0 0-2e-3 0c-0.6202 0.08186-1.086 0.6147-1.086 1.24v0.7031c0 0.6874 0.5626 1.25 1.25 1.25h3.408c0.6874 0 1.25-0.5626 1.25-1.25v-0.7031c0-0.6874-0.5626-1.25-1.25-1.25h-3.406z" fill="url(#a)" stop-color="#000000" stroke-linecap="round" stroke-linejoin="round"/>
 <path transform="translate(-27.36 -27.36) scale(1.855)" d="m32.78 15.14a0.25 0.25 0 0 0-0.04297 0.003906l-17.78 3.094a0.25 0.25 0 0 0-0.207 0.2461v27.04a0.25 0.25 0 0 0 0.207 0.2461l17.68 3.09a0.25 0.25 0 0 0 0.04297 0.003906h2.398a0.25 0.25 0 0 0 0.25-0.25v-3.227h11.76a0.25 0.25 0 0 0 0.009765 0c0.3197-0.01343 0.7421-0.02031 1.133-0.1445 0.3898-0.124 0.7706-0.412 0.8672-0.9062 0.2455-1.159 0.1178-2.323 0.1367-3.424a0.25 0.25 0 0 0 0-0.003906l0.01562-20.11a0.25 0.25 0 0 0 0-0.009766c-0.02632-0.6393 0.02716-1.428-0.4316-2.088a0.25 0.25 0 0 0-0.06445-0.0625c-0.6565-0.4511-1.437-0.3898-2.07-0.416a0.25 0.25 0 0 0-0.009766 0h-11.35v-2.828a0.25 0.25 0 0 0-0.25-0.25l-2.291-0.001953zm2.545 5.414h11.58v22.63h-11.58v-1.287h1.84c0.6874 0 1.25-0.5626 1.25-1.25v-0.7031c0-0.6874-0.5626-1.25-1.25-1.25h-1.84v-1.043h1.84c0.6874 0 1.25-0.5626 1.25-1.25v-0.7051c0-0.6874-0.5626-1.25-1.25-1.25h-1.84v-1.045h1.84c0.6874 0 1.25-0.5626 1.25-1.25v-0.7031c0-0.6874-0.5626-1.25-1.25-1.25h-1.84v-1.045h1.84c0.6874 0 1.25-0.5626 1.25-1.25v-0.7031c0-0.6874-0.5626-1.25-1.25-1.25h-1.84v-1.045h1.84c0.6874 0 1.25-0.5626 1.25-1.25v-0.7031c0-0.6874-0.5626-1.25-1.25-1.25h-1.84v-1.152zm5.383 1.152c-0.05403-2e-4 -0.1085 0.002966-0.1621 0.009766a0.25 0.25 0 0 0-0.001953 0c-0.6202 0.08186-1.086 0.6147-1.086 1.24v0.7031c0 0.6874 0.5626 1.25 1.25 1.25h3.408c0.6874 0 1.25-0.5626 1.25-1.25v-0.7031c0-0.6874-0.5626-1.25-1.25-1.25h-3.406-0.001953zm-11.68 2.961c0.2605-0.01218 0.5261 0.1183 0.668 0.334 0.1418 0.2157 0.1553 0.5098 0.04102 0.7441-0.9767 2.001-1.961 4.002-2.955 5.998 1.009 2.048 2.038 4.088 3.053 6.146 0.1161 0.2349 0.1032 0.5324-0.04102 0.75s-0.4141 0.344-0.6758 0.3281l0.02539 0.001953a0.5 0.5 0 0 1-0.02734 0c-0.9336-0.05419-1.863-0.1156-2.797-0.1816-0.2812-0.01946-0.5342-0.1994-0.6426-0.4629-0.4108-1.008-0.8356-2.066-1.242-3.131-0.3955 0.9642-0.8053 1.924-1.17 2.854-0.1117 0.2846-0.3937 0.4794-0.7012 0.4785a0.5 0.5 0 0 1-0.003906 0c-0.8585-0.01172-1.715-0.04533-2.561-0.08008-0.2517-0.01092-0.4953-0.1528-0.6211-0.3672-0.1258-0.2143-0.1303-0.4975-0.01562-0.7227a0.5 0.5 0 0 0 0-0.001953c0.9323-1.825 1.844-3.671 2.809-5.506-0.8232-1.862-1.715-3.707-2.568-5.59a0.5 0.5 0 0 0 0-0.001954 0.5 0.5 0 0 0-0.001953 0c-0.1018-0.2228-0.08932-0.4945 0.03516-0.7012 0.1245-0.2067 0.359-0.3452 0.6035-0.3594a0.5 0.5 0 0 0 0.001953 0c0.8502-0.05022 1.701-0.1 2.553-0.1465 0.3168-0.01675 0.6274 0.1844 0.7402 0.4824a0.5 0.5 0 0 0 0 0.001953v0.001953c0.3411 0.895 0.6791 1.814 1.012 2.734 0.3943-1.007 0.7977-2.01 1.195-2.979 0.1084-0.2635 0.3614-0.4434 0.6426-0.4629 0.8769-0.06213 1.761-0.1193 2.645-0.1621zm11.68 1.287c-0.05403-2e-4 -0.1085 0.002966-0.1621 0.009766a0.25 0.25 0 0 0-0.001953 0c-0.6202 0.08186-1.086 0.6147-1.086 1.24v0.7031c0 0.6874 0.5626 1.25 1.25 1.25h3.408c0.6874 0 1.25-0.5626 1.25-1.25v-0.7031c0-0.6874-0.5626-1.25-1.25-1.25h-3.406-0.001953zm0 4.248c-0.05403-2e-4 -0.1085 0.002966-0.1621 0.009766a0.25 0.25 0 0 0-0.001953 0c-0.6202 0.08186-1.086 0.6147-1.086 1.24v0.7051c0 0.6874 0.5626 1.25 1.25 1.25h3.408c0.6874 0 1.25-0.5626 1.25-1.25v-0.7051c0-0.6874-0.5626-1.25-1.25-1.25h-3.406-0.001953zm0 4.25c-0.6874 0-1.25 0.5626-1.25 1.25v0.7031c0 0.6874 0.5626 1.25 1.25 1.25h3.408c0.6874 0 1.25-0.5626 1.25-1.25v-0.7031c0-0.6874-0.5626-1.25-1.25-1.25h-3.408zm0 4.248c-0.6874 0-1.25 0.5626-1.25 1.25v0.7031c0 0.6874 0.5626 1.25 1.25 1.25h3.408c0.6874 0 1.25-0.5626 1.25-1.25v-0.7031c0-0.6874-0.5626-1.25-1.25-1.25h-3.408z" fill="url(#a)" stop-color="#000000" stroke-linecap="round" stroke-linejoin="round"/>
</svg>
