<svg version="1.1" viewBox="0 0 64 64" xmlns="http://www.w3.org/2000/svg">
 <defs>
  <linearGradient id="a" x1="1" x2="0" y2="1">
   <stop stop-color="#ff0073" offset="0"/>
   <stop stop-color="#5a00ff" offset="1"/>
  </linearGradient>
  <linearGradient id="c" x2="0" y2="1">
   <stop stop-color="#f7f206" offset="0"/>
   <stop stop-color="#ffbb24" offset=".9833"/>
  </linearGradient>
  <linearGradient id="b" y1="1">
   <stop stop-color="#39ff14" offset="0"/>
   <stop stop-color="#00ff81" offset="1"/>
  </linearGradient>
 </defs>
 <path transform="translate(-0) scale(1) translate(-0) scale(1) translate(-0) scale(1) translate(-0) scale(1) translate(.00044) scale(1) translate(.000267) scale(1.333)" d="m22 3.214v5.158h-3.475v2.673h3.475v2.673h-3.475v2.673h3.475v2.675h-3.475v2.673h3.475v3.056h3.999v-3.056h3.475v-2.673h-3.475v-2.675h3.475v-2.673h-3.475v-2.673h3.475v-2.673h-3.475v-5.158z" fill="url(#b)"/>
 <path transform="translate(-0) scale(1) translate(-0) scale(1) translate(-0) scale(1) translate(-0) scale(1) translate(.00044) scale(1) matrix(1.333 0 0 1.333 .000267 0)" d="m8.104 0c-2.97 0-5.38 2.411-5.38 5.38v22.05c0 1.261 0.9079 2.285 2.026 2.285s2.026-1.024 2.026-2.285v-19.63c0-1.782 1.446-3.23 3.228-3.23h24.13c0.176 0 0.3468-0.02371 0.5068-0.07471 0.16 0.051 0.3294 0.07471 0.5054 0.07471h2.852c1.782 0 3.228 1.448 3.228 3.23v3.628c0 1.261 0.9079 2.285 2.026 2.285s2.026-1.024 2.026-2.285v-6.048c0-2.969-2.41-5.38-5.38-5.38h-4.752c-0.176 0-0.3454 0.02564-0.5054 0.07764-0.16-0.052-0.3308-0.07764-0.5068-0.07764zm35.15 19.43c-1.118-1e-6 -2.026 1.023-2.026 2.284v18.49c0 1.782-1.446 3.23-3.228 3.23h-16.02c-1.119-1e-6 -2.027 1.023-2.027 2.284 0 1.262 0.9083 2.287 2.027 2.287h17.92c2.97 0 5.38-2.411 5.38-5.38v-20.91c0-1.261-0.9079-2.284-2.026-2.284zm-38.5 14.86c-1.118 0-2.026 1.024-2.026 2.285v6.048c0 2.969 2.41 5.38 5.38 5.38h4.752c1.118 0 2.026-1.025 2.026-2.287 0-1.261-0.9079-2.284-2.026-2.284h-2.852c-1.782-1e-6 -3.228-1.448-3.228-3.23v-3.628c0-1.261-0.9079-2.285-2.026-2.285z" fill="url(#a)"/>
 <path transform="translate(-0) scale(1) translate(-0) scale(1) translate(-0) scale(1) translate(-0) scale(1) translate(.00044) scale(1) matrix(1.333 0 0 1.333 .000267 0)" d="m24 23.52c-2.208 0-4 1.596-4 3.564v5.348c0 1.968 1.792 3.565 4 3.565s4-1.597 4-3.565v-5.348c0-1.968-1.792-3.564-4-3.564zm0 2.228c0.828 0 1.5 0.5979 1.5 1.336s-0.672 1.337-1.5 1.337-1.5-0.5994-1.5-1.337 0.672-1.336 1.5-1.336zm0 4.901c0.828 0 1.5 0.7987 1.5 1.783s-0.672 1.783-1.5 1.783-1.5-0.7987-1.5-1.783 0.672-1.783 1.5-1.783z" fill="url(#c)"/>
</svg>
