<svg version="1.1" viewBox="0 0 64 64" xmlns="http://www.w3.org/2000/svg">
 <defs>
  <linearGradient id="b" y1="1">
   <stop stop-color="#007bf6" offset="0"/>
   <stop stop-color="#d60cff" offset=".5"/>
   <stop stop-color="#ff167a" offset="1"/>
  </linearGradient>
  <linearGradient id="c" x1="1" x2="0" y2="1">
   <stop stop-color="#00d2ff" offset="0"/>
   <stop stop-color="#0006ff" offset="1"/>
  </linearGradient>
  <linearGradient id="a" y1="1">
   <stop stop-color="#00ff7f" offset="0"/>
   <stop stop-color="#5fff00" offset="1"/>
  </linearGradient>
  <linearGradient id="d" x1="1" x2="0" y2="1">
   <stop stop-color="#f35c58" offset="0"/>
   <stop stop-color="#ba09b2" offset=".5"/>
   <stop stop-color="#7900d9" offset="1"/>
  </linearGradient>
 </defs>
 <path transform="translate(.008199 .003999) scale(.9998) translate(-2e-4) scale(1)" d="m10.8 0c-3.959 0-7.174 3.215-7.174 7.174v8.064c0 1.683 1.21 3.047 2.701 3.047s2.703-1.364 2.703-3.047v-4.838c0-2.377 1.928-4.973 4.303-4.973h37.32c2.375 0 4.303 2.596 4.303 4.973v26.17c0 1.681 1.212 3.049 2.703 3.049s2.701-1.367 2.701-3.049v-29.4c0-3.959-3.215-7.174-7.174-7.174zm-4.473 25.91c-1.491 0-2.701 1.364-2.701 3.047v27.87c0 3.959 3.215 7.174 7.174 7.174h23.9c1.491 0 2.701-1.365 2.701-3.047 0-1.683-2.701-2.381-2.701-2.381h-21.36c-2.375 0-4.305-2.596-4.305-4.973v-24.65c0-1.683-1.212-3.047-2.703-3.047zm51.34 19.81c-1.491 0-2.703 1.364-2.703 3.047v4.838c0 2.377-1.928 4.973-4.303 4.973-1.35 0.0056-3.069-0.0066-4.053 0-0.9835 0.0065-2.451 0.696-2.451 2.379 0 1.681 1.211 3.049 2.703 3.049h6.334c3.959 0 7.174-3.215 7.174-7.174v-8.064c0-1.683-1.21-3.047-2.701-3.047z" fill="url(#d)"/>
 <path transform="translate(.008199 .003999) scale(.9998)" d="m22.55 13.09c-3.898 0-7.09 3.191-7.09 7.09v23.63c0 3.898 3.191 7.09 7.09 7.09h18.91c3.898 0 7.09-3.191 7.09-7.09v-23.63c0-3.898-3.191-7.09-7.09-7.09zm0 2.836h18.91c2.367 0 4.254 1.888 4.254 4.254v23.63c0 2.367-1.888 4.254-4.254 4.254h-18.91c-2.367 0-4.254-1.888-4.254-4.254v-23.63c0-2.367 1.888-4.254 4.254-4.254z" fill="url(#b)" stroke-width="3.2"/>
 <path transform="translate(.008199 .003999) scale(.9998)" d="m32 43.81a1.418 1.418 0 0 0-1.418 1.418 1.418 1.418 0 0 0 1.418 1.418h3.781a1.418 1.418 0 0 0 1.418-1.418 1.418 1.418 0 0 0-1.418-1.418z" fill="#00bfff" stroke-width="3.2"/>
 <path transform="translate(.008199 .003999) scale(.9998)" d="m37.93 38.32a1.418 1.418 0 0 0-1.418 1.418v0.757a1.418 1.418 0 0 0 1.418 1.418 1.418 1.418 0 0 0 1.418-1.418v-0.757a1.418 1.418 0 0 0-1.418-1.418z" fill="#f00" stroke-width="3.2"/>
 <path transform="translate(.008199 .003999) scale(.9998)" d="m41.26 34.57a1.418 1.418 0 0 0-1.418 1.418v0.757a1.418 1.418 0 0 0 1.418 1.418 1.418 1.418 0 0 0 1.418-1.418v-0.757a1.418 1.418 0 0 0-1.418-1.418z" fill="#f00" stroke-width="3.2"/>
 <path transform="translate(.008199 .003999) scale(.9998)" d="m25.45 34.57a1.418 1.418 0 0 0-1.418 1.418v1.865h-1.865a1.418 1.418 0 0 0-1.418 1.418 1.418 1.418 0 0 0 1.418 1.418h1.865v1.868a1.418 1.418 0 0 0 1.418 1.418 1.418 1.418 0 0 0 1.418-1.418v-1.868h1.839a1.418 1.418 0 0 0 1.418-1.418 1.418 1.418 0 0 0-1.418-1.418h-1.839v-1.865a1.418 1.418 0 0 0-1.418-1.418z" fill="url(#a)" stroke-width="3.2"/>
 <path transform="translate(.008199 .003999) scale(.9998)" d="m23.49 18.41c-1.699 0-3.308 1.249-3.308 3.038v8.101c0 1.79 1.607 3.038 3.308 3.038h17.01c1.701 0 3.308-1.249 3.308-3.038v-8.101c0-1.79-1.609-3.038-3.308-3.038zm0 2.836h17.01c0.3636 0 0.4619 0.1788 0.4726 0.203v8.101c0-0.0011-0.08664 0.203-0.4726 0.203h-17.01c-0.386 0-0.4726-0.2042-0.4726-0.203v-8.105c0.01076-0.02424 0.1092-0.1995 0.4726-0.1995z" fill="url(#c)" stroke-width="3.2"/>
</svg>
