<svg version="1.1" viewBox="0 0 64 64" xmlns="http://www.w3.org/2000/svg">
 <defs>
  <linearGradient id="a" y1="1">
   <stop stop-color="#ffa800" offset="0"/>
   <stop stop-color="#fff737" offset="1"/>
  </linearGradient>
 </defs>
 <path transform="translate(-2e-5) scale(1) translate(.008199 .003999) scale(.9998) translate(-2e-4) scale(1)" d="m10.8 0c-3.959 0-7.174 3.215-7.174 7.174v8.064c0 1.683 1.21 3.047 2.701 3.047s2.703-1.364 2.703-3.047v-4.838c0-2.377 1.928-4.973 4.303-4.973h37.32c2.375 0 4.303 2.596 4.303 4.973v26.17c0 1.681 1.212 3.049 2.703 3.049s2.701-1.367 2.701-3.049v-29.4c0-3.959-3.215-7.174-7.174-7.174zm-4.473 25.91c-1.491 0-2.701 1.364-2.701 3.047v27.87c0 3.959 3.215 7.174 7.174 7.174h23.9c1.491 0 2.701-1.365 2.701-3.047 0-1.683-2.701-2.381-2.701-2.381h-21.36c-2.375 0-4.305-2.596-4.305-4.973v-24.65c0-1.683-1.212-3.047-2.703-3.047zm51.34 19.81c-1.491 0-2.703 1.364-2.703 3.047v4.838c0 2.377-1.928 4.973-4.303 4.973-1.35 0.0056-3.069-0.0066-4.053 0-0.9835 0.0065-2.451 0.696-2.451 2.379 0 1.681 1.211 3.049 2.703 3.049h6.334c3.959 0 7.174-3.215 7.174-7.174v-8.064c0-1.683-1.21-3.047-2.701-3.047z" fill="url(#a)"/>
 <path transform="translate(-2e-5) scale(1) translate(.008199 .003999) scale(.9998)" d="m32 13.31c-0.902 0-1.804 0.2333-2.613 0.7005l-11.66 6.731c-1.618 0.9344-2.613 2.661-2.613 4.528v13.47c0 1.869 0.9944 3.594 2.613 4.527l11.66 6.731c1.618 0.9344 3.606 0.9344 5.224 0l11.66-6.731c1.618-0.9344 2.614-2.661 2.614-4.527v-13.47c0-1.869-0.9956-3.595-2.614-4.528l-11.66-6.731c-0.809-0.4672-1.71-0.7005-2.612-0.7005zm0.2864 4.268c0.07654 0.02245 0.16 0.01862 0.2305 0.05935l11.67 6.735c0.07043 0.04068 0.1087 0.1137 0.1666 0.1689l-12.06 6.967zm-12.92 7.458 12.35 7.131v14.26c-0.07826-0.02278-0.1635-0.02031-0.235-0.06162l-11.66-6.732c-0.3179-0.1836-0.5157-0.5291-0.5157-0.8968v-13.47c0-0.08092 0.04282-0.1519 0.06277-0.2293z" fill="url(#a)" stroke-width="2.075"/>
</svg>
