<svg version="1.1" viewBox="0 0 64 64" xmlns="http://www.w3.org/2000/svg">
 <defs>
  <linearGradient id="a" x1="1" x2="0" y2="1">
   <stop stop-color="#00ffe0" offset="0"/>
   <stop stop-color="#19ffff" offset=".5"/>
   <stop stop-color="#00ff85" offset="1"/>
  </linearGradient>
  <linearGradient id="b" x2="0" y2="1">
   <stop stop-color="#fabd2f" offset="0"/>
   <stop stop-color="#fe8019" offset=".5"/>
   <stop stop-color="#d65d0e" offset="1"/>
  </linearGradient>
 </defs>
 <path transform="translate(.009199 .009599) scale(.9999) translate(.00081 .000494)" d="m53.18 0-42.38 0.003906a7.179 7.179 0 0 0-7.174 7.172v8.062c0 1.683 1.21 3.047 2.701 3.047s2.703-1.364 2.703-3.047v-4.836c0-2.376 1.926-4.973 4.301-4.973h37.31c2.374 0 4.303 2.596 4.303 4.973v26.16c0 1.681 1.212 3.049 2.703 3.049s2.699-1.367 2.699-3.049v-29.4a7.179 7.179 0 0 0-7.172-7.172zm-46.85 25.9-0.00391 0.0059c-1.491 0-2.701 1.364-2.701 3.047v27.86a7.179 7.179 0 0 0 7.174 7.172h23.9c1.491 0 2.701-1.365 2.701-3.047s-2.701-2.381-2.701-2.381h-21.36c-2.374 0-4.305-2.594-4.305-4.971v-24.65c0-1.683-1.212-3.045-2.703-3.045zm51.33 19.81c-1.491 0-2.703 1.364-2.703 3.047v4.836c0 2.376-1.928 4.973-4.303 4.973-1.35 6e-3 -3.067-7e-3 -4.051 0-0.9828 6e-3 -2.451 0.6962-2.451 2.379 0 1.681 1.211 3.049 2.703 3.049h6.332a7.179 7.179 0 0 0 7.172-7.174v-8.062c0-1.683-1.208-3.045-2.699-3.045z" fill="url(#a)"/>
 <path transform="translate(.009199 .009599) scale(.9999) translate(.00081 .000494)" d="m14.56 15.73v0.0039c-0.4439 4e-3 -0.7291 0.5737-0.3691 0.9336l17.99 17.99a0.5439 0.5439 0 0 0 0.9297-0.3848v-11.51a0.5399 0.5399 0 0 0-0.3594-0.5098l-17.99-6.486a0.5999 0.5999 0 0 0-0.2012-0.03711zm20.39 7.523a0.5439 0.5439 0 0 0-0.5645 0.543v9.9c0 0.4759 0.57 0.7215 0.918 0.3945l7.104-6.668a0.5439 0.5439 0 0 0-0.1484-0.8926l-7.102-3.229a0.4999 0.4999 0 0 0-0.2051-0.04883zm-6.59 9.729v2e-3l-0.0098 0.0078a0.5399 0.5399 0 0 0-0.457 0.2891l-7.504 14.17c-0.2929 0.5519 0.4233 1.077 0.8652 0.6367l10.9-10.9a0.5439 0.5439 0 0 0-0.0078-0.7754l-3.381-3.277a0.5399 0.5399 0 0 0-0.4043-0.1523z" fill="url(#a)"/>
 <path transform="translate(.009199 .009599) scale(.9999) translate(.00081 .000494)" d="m38.78 22.48c-0.5859 0-0.7566 0.7991-0.2227 1.039l10.64 4.779a0.5439 0.5439 0 0 0 0.7109-0.7344l-2.338-4.779a0.5399 0.5399 0 0 0-0.4883-0.3047z" fill="url(#b)"/>
</svg>
