<svg version="1.1" viewBox="0 0 64 64" xmlns="http://www.w3.org/2000/svg">
 <defs>
  <linearGradient id="a" y1="1">
   <stop stop-color="#f00" offset="0"/>
   <stop stop-color="#ff006e" offset="1"/>
  </linearGradient>
  <linearGradient id="b" x2="0" y2="1">
   <stop stop-color="#ffab00" offset="0"/>
   <stop stop-color="#ff4b2b" offset=".5"/>
   <stop stop-color="#ff004c" offset="1"/>
  </linearGradient>
  <linearGradient id="c" x1="1" x2="0" y1="1">
   <stop stop-color="#f0f" offset="0"/>
   <stop stop-color="#fca" offset="1"/>
  </linearGradient>
 </defs>
 <path transform="translate(.008199 .003999) scale(.9998) translate(-2e-4)" d="m10.8 0c-3.959 0-7.174 3.215-7.174 7.174v8.064c0 1.683 1.21 3.047 2.701 3.047s2.703-1.364 2.703-3.047v-4.838c0-2.377 1.928-4.973 4.303-4.973h37.32c2.375 0 4.303 2.596 4.303 4.973v26.17c0 1.681 1.212 3.049 2.703 3.049s2.701-1.367 2.701-3.049v-29.4c0-3.959-3.215-7.174-7.174-7.174zm-4.473 25.91c-1.491 0-2.701 1.364-2.701 3.047v27.87c0 3.959 3.215 7.174 7.174 7.174h23.9c1.491 0 2.701-1.365 2.701-3.047 0-1.683-2.701-2.381-2.701-2.381h-21.36c-2.375 0-4.305-2.596-4.305-4.973v-24.65c0-1.683-1.212-3.047-2.703-3.047zm51.34 19.81c-1.491 0-2.703 1.364-2.703 3.047v4.838c0 2.377-1.928 4.973-4.303 4.973-1.35 0.0056-3.069-0.0066-4.053 0-0.9835 0.0065-2.451 0.696-2.451 2.379 0 1.681 1.211 3.049 2.703 3.049h6.334c3.959 0 7.174-3.215 7.174-7.174v-8.064c0-1.683-1.21-3.047-2.701-3.047z" fill="url(#b)"/>
 <path transform="translate(.008199 .003999) scale(.9998)" d="m43.08 45.83c-2.307 0-3.82 1.187-3.82 3.116 0 1.964 1.549 2.614 2.846 3.072 1.743 0.5809 2.127 0.9985 2.127 1.573 0 0.7109-0.4671 1.079-1.678 1.079-0.985-0.02002-1.947-0.1669-2.816-0.6599l-0.6592 1.858c1.21 0.6914 2.698 0.7936 3.475 0.7936 1.854 0 4.09-0.5247 4.09-3.056 0-1.96-0.9693-2.637-3.191-3.46-0.7255-0.2534-1.706-0.485-1.798-1.379 0-0.6449 0.4801-0.9438 1.573-0.9438 0.7899 0.01948 1.546 0.1956 2.247 0.5693l0.6738-1.843c-0.67-0.3656-1.677-0.7191-3.071-0.7191zm-11.21 0.12c-0.4195 0-0.9243 0.02002-1.513 0.06001-0.5794 0.02976-1.138 0.09474-1.677 0.1946v10.11c0.5393 0.1098 1.088 0.18 1.647 0.21 0.5592 0.04004 1.049 0.06001 1.469 0.06001 2.193 0 5.978-0.6745 5.978-5.333 0-4.322-3.091-5.303-5.903-5.303zm-14.52 0.12v10.38h2.307v-6.801c1.878 2.198 3.447 4.648 4.659 6.801h1.963v-10.38h-2.322v6.127c-0.83-1.245-3.076-4.502-4.704-6.127zm14.64 1.873c1.412 0 3.371 0.3696 3.371 3.311 0 1.394-0.527 3.326-3.446 3.326-0.3001 0-0.5996 0.0065-0.8981-0.02976v-6.562c0.3237-0.02922 0.6483-0.04329 0.9738-0.04437z" fill="url(#c)" stroke-width=".06922"/>
 <path transform="translate(.008199 .003999) scale(.9998)" d="m24.58 26.59c-2.741 0-4.948 2.207-4.948 4.948v6.165c0 2.741 2.207 4.948 4.948 4.948h14.84c2.741 0 4.948-2.207 4.948-4.948v-6.165c0-2.741-2.207-4.948-4.948-4.948zm1.237 3.711h12.37c1.371 0 2.474 1.103 2.474 2.474v3.711c0 1.371-1.103 2.474-2.474 2.474h-12.37c-1.371 0-2.474-1.103-2.474-2.474v-3.711c0-1.371 1.103-2.474 2.474-2.474z" fill="url(#a)" stroke-width="4.574"/>
 <path transform="translate(.008199 .003999) scale(.9998)" d="m24.58 8.031c-2.741 0-4.948 2.207-4.948 4.948v6.165c0 2.741 2.207 4.948 4.948 4.948h14.84c2.741 0 4.948-2.207 4.948-4.948v-6.165c0-2.741-2.207-4.948-4.948-4.948zm1.237 3.711h12.37c1.371 0 2.474 1.103 2.474 2.474v3.711c0 1.371-1.103 2.474-2.474 2.474h-12.37c-1.371 0-2.474-1.103-2.474-2.474v-3.711c0-1.371 1.103-2.474 2.474-2.474z" fill="url(#a)" stroke-width="4.574"/>
</svg>
