<svg version="1.1" viewBox="0 0 64 64" xmlns="http://www.w3.org/2000/svg">
 <defs>
  <linearGradient id="a" x1=".097" x2="63.89" y1="32" y2="32" gradientTransform="matrix(.5494 0 0 .5494 14.42 14.42)" gradientUnits="userSpaceOnUse">
   <stop stop-color="#d300dc" offset="0"/>
   <stop stop-color="#8700ff" offset="1"/>
  </linearGradient>
  <linearGradient id="b" x1=".5705" x2="22.01" y1="10.72" y2="10.72" gradientTransform="scale(.9744 1.026)" gradientUnits="userSpaceOnUse">
   <stop stop-color="#d300dc" offset="0"/>
   <stop stop-color="#8700ff" offset="1"/>
  </linearGradient>
  <linearGradient id="c" x1="32.13" x2="43.38" y1="47.85" y2="26.95" gradientTransform="translate(.003626 .000543)" gradientUnits="userSpaceOnUse">
   <stop stop-color="#879af2" offset="0"/>
   <stop stop-color="#d3208b" offset=".5"/>
   <stop stop-color="#fda000" offset="1"/>
  </linearGradient>
 </defs>
 <path transform="translate(0) scale(1) translate(0) scale(1) translate(0) scale(1) translate(0) scale(1) translate(0) scale(1) translate(-2e-5) scale(1) translate(.008199 .003999) scale(.9998) translate(-2e-4) scale(1)" d="m10.8 0c-3.959 0-7.174 3.215-7.174 7.174v8.064c0 1.683 1.21 3.047 2.701 3.047s2.703-1.364 2.703-3.047v-4.838c0-2.377 1.928-4.973 4.303-4.973h37.32c2.375 0 4.303 2.596 4.303 4.973v26.17c0 1.681 1.212 3.049 2.703 3.049s2.701-1.367 2.701-3.049v-29.4c0-3.959-3.215-7.174-7.174-7.174zm-4.473 25.91c-1.491 0-2.701 1.364-2.701 3.047v27.87c0 3.959 3.215 7.174 7.174 7.174h23.9c1.491 0 2.701-1.365 2.701-3.047 0-1.683-2.701-2.381-2.701-2.381h-21.36c-2.375 0-4.305-2.596-4.305-4.973v-24.65c0-1.683-1.212-3.047-2.703-3.047zm51.34 19.81c-1.491 0-2.703 1.364-2.703 3.047v4.838c0 2.377-1.928 4.973-4.303 4.973-1.35 0.0056-3.069-0.0066-4.053 0-0.9835 0.0065-2.451 0.696-2.451 2.379 0 1.681 1.211 3.049 2.703 3.049h6.334c3.959 0 7.174-3.215 7.174-7.174v-8.064c0-1.683-1.21-3.047-2.701-3.047z" fill="url(#a)" stroke-width=".5494"/>
 <g transform="translate(0) scale(1) matrix(.5493 0 0 .5493 14.43 14.42)" stroke-width="1.82">
  <path transform="matrix(2.908 0 0 2.908 .001594 0)" d="m9.826 0c-1.378 0-2.492 1.115-2.492 2.492a1.247 1.247 0 0 1-1.867 1.078 2.494 2.494 0 0 0-3.402 0.9141l-1.176 2.035a2.494 2.494 0 0 0 0.9121 3.402 1.247 1.247 0 0 1 0 2.16 2.494 2.494 0 0 0-0.9121 3.404l1.176 2.035a2.494 2.494 0 0 0 3.402 0.9141 1.247 1.247 0 0 1 1.871 1.076c0 1.378 1.113 2.494 2.488 2.494h2.352c1.378 0 2.488-1.118 2.488-2.494a1.247 1.247 0 0 1 1.871-1.076 2.494 2.494 0 0 0 3.404-0.9141l1.174-2.035a2.494 2.494 0 0 0-0.9121-3.404 1.247 1.247 0 0 1 0-2.16c1.191-0.688 1.6-2.211 0.9121-3.402l-1.174-2.035a2.494 2.494 0 0 0-3.404-0.9141 1.247 1.247 0 0 1-1.871-1.078c0-1.378-1.113-2.492-2.488-2.492zm0 2.201h2.352c0.1614 0 0.2891 0.1297 0.2891 0.291 0 2.652 2.873 4.31 5.17 2.982a0.2934 0.2934 0 0 1 0.3984 0.1094l1.176 2.035a0.2934 0.2934 0 0 1-0.1055 0.3984c-2.297 1.328-2.297 4.643 0 5.971a0.2934 0.2934 0 0 1 0.1055 0.3984l-1.176 2.035a0.2934 0.2934 0 0 1-0.3984 0.1074c-2.296-1.328-5.168 0.3318-5.168 2.982 0 0.1614-0.1297 0.2891-0.291 0.2891h-2.352a0.2934 0.2934 0 0 1-0.291-0.2891c0-2.652-2.871-4.31-5.168-2.982a0.2934 0.2934 0 0 1-0.4023-0.1074l-1.172-2.035a0.2934 0.2934 0 0 1 0.1074-0.3984c2.297-1.328 2.297-4.643 0-5.971a0.2934 0.2934 0 0 1-0.1094-0.3984l1.174-2.035a0.2934 0.2934 0 0 1 0.4023-0.1094c2.297 1.328 5.168-0.3318 5.168-2.982 0-0.1614 0.1316-0.2891 0.293-0.2891z" fill="url(#b)"/>
  <path d="m32.13 17.15a4.193 4.193 0 0 0-4.186 4.189v12.56h-4.363a2.71 2.71 0 0 0-2.502 1.672 2.7 2.7 0 0 0-0.148 1.562c0.104 0.524 0.358 1.001 0.736 1.379l8.549 8.551c0.25 0.252 0.553 0.454 0.88 0.59a2.7 2.7 0 0 0 1.034 0.201 2.68 2.68 0 0 0 1.914-0.791l8.547-8.551a2.69 2.69 0 0 0 0.588-2.941 2.71 2.71 0 0 0-2.502-1.672h-4.357l-8e-3 -12.56a4.19 4.19 0 0 0-4.182-4.189" fill="url(#c)"/>
 </g>
</svg>
