<svg version="1.1" viewBox="0 0 64 64" xmlns="http://www.w3.org/2000/svg">
 <defs>
  <linearGradient id="b" y1="1">
   <stop stop-color="#00f1fa" offset="0"/>
   <stop stop-color="#006cff" offset="1"/>
  </linearGradient>
  <linearGradient id="a" x1="42.6" x2="42.6" y1="117.7" y2="44.52" gradientUnits="userSpaceOnUse">
   <stop stop-color="#5570ff" offset="0"/>
   <stop stop-color="#4dd3ff" offset="1"/>
  </linearGradient>
  <linearGradient id="c" x1="85.4" x2="85.4" y1="10" y2="83.19" gradientUnits="userSpaceOnUse">
   <stop stop-color="#5570ff" offset="0"/>
   <stop stop-color="#4dd3ff" offset="1"/>
  </linearGradient>
 </defs>
 <path transform="translate(0) scale(1) translate(0) scale(1) translate(0) scale(1) translate(0) scale(1) translate(0) scale(1) translate(-2e-5) scale(1) translate(.008199 .003999) scale(.9998) translate(-2e-4) scale(1)" d="m10.8 0c-3.959 0-7.174 3.215-7.174 7.174v8.064c0 1.683 1.21 3.047 2.701 3.047s2.703-1.364 2.703-3.047v-4.838c0-2.377 1.928-4.973 4.303-4.973h37.32c2.375 0 4.303 2.596 4.303 4.973v26.17c0 1.681 1.212 3.049 2.703 3.049s2.701-1.367 2.701-3.049v-29.4c0-3.959-3.215-7.174-7.174-7.174zm-4.473 25.91c-1.491 0-2.701 1.364-2.701 3.047v27.87c0 3.959 3.215 7.174 7.174 7.174h23.9c1.491 0 2.701-1.365 2.701-3.047 0-1.683-2.701-2.381-2.701-2.381h-21.36c-2.375 0-4.305-2.596-4.305-4.973v-24.65c0-1.683-1.212-3.047-2.703-3.047zm51.34 19.81c-1.491 0-2.703 1.364-2.703 3.047v4.838c0 2.377-1.928 4.973-4.303 4.973-1.35 0.0056-3.069-0.0066-4.053 0-0.9835 0.0065-2.451 0.696-2.451 2.379 0 1.681 1.211 3.049 2.703 3.049h6.334c3.959 0 7.174-3.215 7.174-7.174v-8.064c0-1.683-1.21-3.047-2.701-3.047z" fill="url(#b)"/>
 <g transform="translate(0) scale(1) translate(0) scale(1) translate(0) scale(1) translate(0) scale(1) translate(0) scale(1) translate(-2e-5) scale(1) translate(.008199 .003999) scale(.9998) matrix(1.674 0 0 1.674 14.45 13.16)">
  <path transform="matrix(.1896 0 0 .1896 -1.137 -1.11)" d="m53.79 44.52c-2.41-0.023-4.821 0.28-7.16 0.908-4.394 1.165-8.552 3.4-12 6.801l-20.8 20.5c-10.44 10.29-10.44 26.97 0 37.26s27.36 10.29 37.8 0l11.35-10.72c1.65-1.626 0.08-3.598-1.531-5.262-0.78-0.806-1.499-1.629-2.379-2.627-1.919-2.176-3.679-3.782-5.746-1.746a4100 4100 0 0 0-11.14 11.04c-5.198 5.123-13.7 5.123-18.9 0-5.198-5.124-5.198-13.51 0-18.63l20.8-20.5c0.804-0.792 1.701-1.49 2.693-2.002 5.103-2.98 11.81-2.33 16.21 2.002 3.421 3.372 8.244 4.515 12.62 3.45 2.218-0.54 3.196-3.007 2.242-5.08a26.1 26.1 0 0 0-5.412-7.685 26.4 26.4 0 0 0-11.48-6.66 26.7 26.7 0 0 0-7.158-1.049z" fill="url(#a)"/>
  <path transform="matrix(.1896 0 0 .1896 -1.137 -1.11)" d="m95.27 10c-6.84 0-13.68 2.574-18.9 7.721l-11.35 10.72c-1.65 1.626-0.08 3.598 1.531 5.262 0.78 0.806 1.499 1.629 2.379 2.627 1.919 2.176 3.679 3.782 5.746 1.746 1.957-1.928 5.364-5.301 11.14-11.04 5.198-5.124 13.7-5.124 18.9 0 5.198 5.124 5.198 13.51 0 18.63l-20.8 20.5c-0.804 0.792-1.701 1.492-2.693 2.004-5.103 2.981-11.81 2.328-16.21-2.004-3.421-3.372-8.244-4.513-12.62-3.447-2.218 0.54-3.196 3.006-2.242 5.08a26.1 26.1 0 0 0 5.412 7.684 26.4 26.4 0 0 0 11.48 6.66 26.7 26.7 0 0 0 14.32 0.14c4.394-1.164 8.552-3.4 12-6.8l20.8-20.5a26.08 26.08 0 0 0 0-37.26c-5.222-5.147-12.06-7.721-18.9-7.721z" fill="url(#c)"/>
  <path d="m17.9 13.88a0.49 0.49 0 0 0-0.445 0.342 0.55 0.55 0 0 0 0.304 0.686l0.949 0.38a0.487 0.487 0 0 0 0.643-0.307 0.55 0.55 0 0 0-0.304-0.686l-0.948-0.38a0.5 0.5 0 0 0-0.199-0.035zm-2.032 3.147a0.48 0.48 0 0 0-0.318 0.12 0.55 0.55 0 0 0-0.059 0.747l0.652 0.826c0.18 0.228 0.497 0.263 0.71 0.077a0.55 0.55 0 0 0 0.057-0.747l-0.65-0.826a0.5 0.5 0 0 0-0.392-0.197m-3.302 1.545a0.5 0.5 0 0 0-0.102 6e-3c-0.274 0.047-0.455 0.32-0.405 0.61l0.18 1.05c0.05 0.29 0.312 0.488 0.586 0.441 0.27-0.045 0.455-0.317 0.405-0.61l-0.18-1.05a0.53 0.53 0 0 0-0.484-0.447m-4.392-16.74a0.465 0.465 0 0 0-0.455 0.573l0.239 1.015c0.06 0.258 0.318 0.423 0.577 0.369a0.464 0.464 0 0 0 0.358-0.563l-0.237-1.015a0.494 0.494 0 0 0-0.481-0.38m-3.863 1.914a0.47 0.47 0 0 0-0.297 0.12 0.47 0.47 0 0 0-0.022 0.673l0.715 0.772a0.484 0.484 0 0 0 0.679 0.038 0.47 0.47 0 0 0 0.022-0.672l-0.715-0.773a0.5 0.5 0 0 0-0.382-0.158m-2.24 3.619a0.47 0.47 0 0 0-0.455 0.327c-0.077 0.25 0.066 0.52 0.32 0.601l1.001 0.324a0.47 0.47 0 0 0 0.599-0.303 0.486 0.486 0 0 0-0.32-0.602l-1.003-0.323a0.5 0.5 0 0 0-0.145-0.024" fill="#0cf"/>
 </g>
</svg>
