<svg version="1.1" viewBox="0 0 64 64" xmlns="http://www.w3.org/2000/svg" xmlns:xlink="http://www.w3.org/1999/xlink">
 <defs>
  <linearGradient id="a" x1="-2.508e-5" x2="61.82" y1="66.05" y2="4.224" gradientTransform="matrix(.5877 0 0 .5487 13.83 13.83)" gradientUnits="userSpaceOnUse">
   <stop stop-color="#7f00ff" offset="0"/>
   <stop stop-color="#e100ff" offset="1"/>
  </linearGradient>
  <linearGradient id="b" x2="0" y1="1">
   <stop stop-color="#00cca0" offset="0"/>
  </linearGradient>
  <linearGradient id="c" y1="1">
   <stop stop-color="#5433ff" offset="0"/>
   <stop stop-color="#20bdff" offset=".5"/>
   <stop stop-color="#a5fecb" offset="1"/>
  </linearGradient>
  <linearGradient id="h" x1="19.29" x2="19.29" y1="7.682" y2=".1151" gradientTransform="matrix(.4006 0 0 .8049 13.83 13.83)" gradientUnits="userSpaceOnUse" xlink:href="#b"/>
  <linearGradient id="g" x1="63.85" x2="63.85" y1="7.682" y2=".1151" gradientTransform="matrix(.4006 0 0 .8049 13.83 13.83)" gradientUnits="userSpaceOnUse" xlink:href="#b"/>
  <linearGradient id="f" x1="2.553" x2="6.351" y1="32.32" y2="28.53" gradientTransform="matrix(2.86 0 0 .9534 13.83 13.83)" gradientUnits="userSpaceOnUse" xlink:href="#c"/>
  <linearGradient id="e" x1="4.452" x2="8.251" y1="24.72" y2="20.92" gradientTransform="matrix(2.86 0 0 .9534 13.83 13.83)" gradientUnits="userSpaceOnUse" xlink:href="#c"/>
  <linearGradient id="d" x1="6.353" x2="10.15" y1="17.13" y2="13.33" gradientTransform="matrix(2.86 0 0 .9534 13.83 13.83)" gradientUnits="userSpaceOnUse" xlink:href="#c"/>
  <linearGradient id="i" x1="-13.78" x2="75.2" y1="87.61" y2="-21.79" gradientTransform="matrix(.5877 0 0 .5487 13.83 13.83)" gradientUnits="userSpaceOnUse" xlink:href="#a"/>
 </defs>
 <path transform="translate(.008199 .003999) scale(.9998) translate(-2e-4) scale(1)" d="m10.8 0c-3.959 0-7.174 3.215-7.174 7.174v8.064c0 1.683 1.21 3.047 2.701 3.047s2.703-1.364 2.703-3.047v-4.838c0-2.377 1.928-4.973 4.303-4.973h37.32c2.375 0 4.303 2.596 4.303 4.973v26.17c0 1.681 1.212 3.049 2.703 3.049s2.701-1.367 2.701-3.049v-29.4c0-3.959-3.215-7.174-7.174-7.174zm-4.473 25.91c-1.491 0-2.701 1.364-2.701 3.047v27.87c0 3.959 3.215 7.174 7.174 7.174h23.9c1.491 0 2.701-1.365 2.701-3.047 0-1.683-2.701-2.381-2.701-2.381h-21.36c-2.375 0-4.305-2.596-4.305-4.973v-24.65c0-1.683-1.212-3.047-2.703-3.047zm51.34 19.81c-1.491 0-2.703 1.364-2.703 3.047v4.838c0 2.377-1.928 4.973-4.303 4.973-1.35 0.0056-3.069-0.0066-4.053 0-0.9835 0.0065-2.451 0.696-2.451 2.379 0 1.681 1.211 3.049 2.703 3.049h6.334c3.959 0 7.174-3.215 7.174-7.174v-8.064c0-1.683-1.21-3.047-2.701-3.047z" fill="url(#i)" stroke-width=".3439"/>
 <path transform="translate(.008199 .003999) scale(.9998)" d="m18.68 16.15a4.835 4.835 0 0 0-4.846 4.847v24.23a4.835 4.835 0 0 0 4.846 4.847h26.64a4.836 4.836 0 0 0 4.847-4.847v-24.23a4.836 4.836 0 0 0-4.847-4.847h-1.739v2.351c0 1.451-1.205 2.65-2.653 2.65s-2.65-1.202-2.65-2.65v-2.351h-12.56v2.351c0 1.451-1.205 2.65-2.653 2.65s-2.65-1.202-2.65-2.65v-2.351zm0 7.269h26.64a2.419 2.419 0 0 1 2.425 2.422v19.38a2.419 2.419 0 0 1-2.425 2.422h-26.64a2.417 2.417 0 0 1-2.422-2.422v-19.38a2.417 2.417 0 0 1 2.422-2.422" fill="url(#a)" stroke-width=".3439"/>
 <path transform="translate(.008199 .003999) scale(.9998)" d="m23 13.93a1.516 1.516 0 0 0-1.44 1.514v3.062c0 0.8404 0.6746 1.514 1.514 1.514 0.8393 0 1.517-0.6746 1.517-1.514v-3.062a1.512 1.512 0 0 0-1.517-1.514c-0.02612 0-0.0477-0.0011-0.07325 0z" fill="url(#h)" stroke-width=".3439"/>
 <path transform="translate(.008199 .003999) scale(.9998)" d="m40.85 13.93a1.516 1.516 0 0 0-1.44 1.514v3.062c0 0.8404 0.6746 1.514 1.514 1.514 0.8393 0 1.517-0.6746 1.517-1.514v-3.062a1.512 1.512 0 0 0-1.517-1.514c-0.02612 0-0.0477-0.0011-0.07325 0z" fill="url(#g)" stroke-width=".3439"/>
 <path transform="translate(.008199 .003999) scale(.9998)" d="m22.95 41.03c-0.513 0-0.9443 0.1722-1.291 0.5198-0.3464 0.3476-0.5186 0.779-0.5198 1.291-0.0012 0.5119 0.1711 0.942 0.5198 1.291 0.3489 0.3489 0.7802 0.5223 1.291 0.5198h7.242c0.513 0 0.9432-0.1722 1.291-0.5198 0.3477-0.3476 0.5211-0.779 0.5198-1.291-0.0012-0.5119-0.1734-0.9432-0.5198-1.291-0.3464-0.3477-0.7779-0.5198-1.291-0.5198z" fill="url(#f)" stroke-width="1.097"/>
 <path transform="translate(.008199 .003999) scale(.9998)" d="m28.38 33.78c-0.513 0-0.9443 0.1722-1.291 0.5198-0.3464 0.3476-0.5186 0.779-0.5198 1.291-0.0012 0.5119 0.1711 0.942 0.5198 1.291 0.3489 0.3489 0.7802 0.5223 1.291 0.5198h7.242c0.513 0 0.9432-0.1722 1.291-0.5198 0.3476-0.3477 0.5211-0.779 0.5198-1.291-0.0012-0.5119-0.1734-0.9432-0.5198-1.291-0.3464-0.3477-0.7779-0.5198-1.291-0.5198z" fill="url(#e)" stroke-width="1.097"/>
 <path transform="translate(.008199 .003999) scale(.9998)" d="m33.81 26.54c-0.513 0-0.9443 0.1722-1.291 0.5198-0.3464 0.3476-0.5186 0.779-0.5198 1.291-0.0012 0.5119 0.1711 0.942 0.5198 1.291 0.3489 0.3489 0.7802 0.5223 1.291 0.5198h7.242c0.513 0 0.9432-0.1722 1.291-0.5198s0.5211-0.779 0.5198-1.291c-0.0012-0.5119-0.1734-0.9432-0.5198-1.291-0.3464-0.3476-0.7779-0.5198-1.291-0.5198z" fill="url(#d)" stroke-width="1.097"/>
</svg>
