<svg version="1.1" viewBox="0 0 64 64" xmlns="http://www.w3.org/2000/svg">
 <defs>
  <linearGradient id="a" y1="1">
   <stop stop-color="#ff0700" offset="0"/>
   <stop stop-color="#f503f7" offset="1"/>
  </linearGradient>
  <linearGradient id="c" x1="1" x2="0" y1="1">
   <stop stop-color="#46d9ff" offset="0"/>
   <stop stop-color="#ff23ff" offset=".5"/>
   <stop stop-color="#ffd93f" offset="1"/>
  </linearGradient>
  <linearGradient id="b" x2="0" y1="1">
   <stop stop-color="#f0f" offset="0"/>
   <stop stop-color="#fca" offset="1"/>
  </linearGradient>
 </defs>
 <path transform="translate(.0014 .004) scale(1) translate(-4e-4)" d="m29.33 4.285v6.875h-4.631v3.562h4.631v3.562h-4.631v3.564h4.631v3.564h-4.631v3.564h4.631v4.072h5.332v-4.072h4.631v-3.564h-4.631v-3.564h4.631v-3.564h-4.631v-3.562h4.631v-3.562h-4.631v-6.875z" fill="url(#c)"/>
 <path transform="translate(.0014 .004) scale(1) translate(-4e-4)" d="m10.8 0c-3.959 0-7.172 3.214-7.172 7.172v29.39c0 1.681 1.211 3.045 2.701 3.045s2.701-1.364 2.701-3.045v-26.17c0-2.375 1.927-4.305 4.303-4.305h32.17c0.2346 0 0.4625-0.03163 0.6758-0.09961 0.2133 0.06798 0.4392 0.09961 0.6738 0.09961h3.801c2.375 0 4.303 1.929 4.303 4.305v4.838c0 1.681 1.211 3.045 2.701 3.045s2.701-1.364 2.701-3.045v-8.062c0-3.958-3.213-7.172-7.172-7.172h-6.334c-0.2346 0-0.4606 0.0342-0.6738 0.1035-0.2133-0.06932-0.4412-0.1035-0.6758-0.1035zm46.86 25.9c-1.49-2e-6 -2.701 1.364-2.701 3.045v24.65c0 2.375-1.927 4.307-4.303 4.307h-21.35c-1.492-1e-6 -2.703 1.362-2.703 3.043 0 1.682 1.212 3.049 2.703 3.049h23.89c3.959 0 7.172-3.214 7.172-7.172v-27.87c0-1.681-1.211-3.043-2.701-3.043zm-51.32 19.81v2e-3c-1.49 0-2.701 1.364-2.701 3.045v8.062c0 3.958 3.213 7.172 7.172 7.172h6.334c1.49 0 2.701-1.367 2.701-3.049 0-1.681-1.211-3.045-2.701-3.045h-3.801c-2.375-4.8e-5 -4.303-1.929-4.303-4.305v-4.836c0-1.681-1.211-3.047-2.701-3.047z" fill="url(#a)"/>
 <path transform="translate(.0014 .004) scale(1) translate(-4e-4) scale(1)" d="m31.99 31.35c-2.943 0-5.332 2.129-5.332 4.752v7.129c0 2.623 2.389 4.752 5.332 4.752s5.332-2.129 5.332-4.752v-7.129c0-2.623-2.389-4.752-5.332-4.752zm0 2.971c1.104 0 2 0.7974 2 1.781 0 0.9839-0.8963 1.781-2 1.781-1.104 0-1.998-0.798-1.998-1.781 0-0.9832 0.8943-1.781 1.998-1.781zm0 6.533c1.104 0 2 1.065 2 2.377s-0.8963 2.377-2 2.377c-1.104 0-1.998-1.065-1.998-2.377s0.8943-2.377 1.998-2.377z" fill="url(#b)"/>
</svg>
