<svg version="1.1" viewBox="0 0 64 64" xmlns="http://www.w3.org/2000/svg">
 <defs>
  <linearGradient id="a" x1="1" x2="0" y2="1">
   <stop stop-color="#0f9" offset="0"/>
   <stop stop-color="#14dc57" offset="1"/>
  </linearGradient>
  <linearGradient id="b" y2="1">
   <stop stop-color="#06ccf7" offset="0"/>
   <stop stop-color="#b8ff24" offset="1"/>
  </linearGradient>
 </defs>
 <path transform="translate(-0) scale(1) translate(-0) scale(1) translate(-0) scale(1) translate(-0) scale(1) translate(-0) scale(1) translate(-2e-5) scale(1) translate(.00105 9.4e-5) scale(.9998) translate(.008509 .003906) scale(.9999)" d="m53.19-0.003906-42.39 0.003906c-3.959 0-7.174 3.215-7.174 7.174v8.064c0 1.683 1.21 3.047 2.701 3.047s2.703-1.364 2.703-3.047v-4.838c0-2.377 1.928-4.973 4.303-4.973h37.32c2.375 0 4.303 2.596 4.303 4.973v26.17c0 1.681 1.212 3.049 2.703 3.049s2.701-1.367 2.701-3.049v-29.4c0-3.959-3.215-7.174-7.174-7.174zm-46.85 25.91-0.00586 0.0078c-1.491 0-2.701 1.364-2.701 3.047v27.87c0 3.959 3.215 7.176 7.174 7.176h23.9c1.491 0 2.701-1.367 2.701-3.049 0-1.683-2.701-2.381-2.701-2.381h-21.36c-2.375 0-4.305-2.596-4.305-4.973v-24.65c0-1.683-1.212-3.047-2.703-3.047zm51.33 19.82c-1.491 0-2.703 1.364-2.703 3.047v4.838c0 2.377-1.928 4.973-4.303 4.973-1.35 0.0056-3.069-0.0066-4.053 0-0.9835 0.0065-2.451 0.6959-2.451 2.379 0 1.681 1.211 3.049 2.703 3.049h6.334c3.959 0 7.174-3.215 7.174-7.174v-8.064c0-1.683-1.21-3.047-2.701-3.047z" fill="url(#b)"/>
 <path transform="translate(-0) scale(1) translate(-0) scale(1) translate(-0) scale(1) translate(-0) scale(1) translate(-0) scale(1) translate(-2e-5) scale(1) translate(.00105 9.4e-5) scale(.9998) matrix(.9999 0 0 .9999 .008509 .003906)" d="m36.99 13.9c-0.4694 0.01665-0.9415 0.06014-1.418 0.1309-7.187 1.067-11.72 7.989-10.37 14.96l-10.26 10.26c-0.679 0.6788-1.062 1.6-1.062 2.56v4.686c0 1.98 1.643 3.623 3.623 3.623h5.436a1.812 1.812 0 0 0 1.812-1.81v-1.812h1.81a1.812 1.812 0 0 0 1.812-1.812v-1.81h1.81a1.812 1.812 0 0 0 1.281-0.5312l3.568-3.566c7.658 1.47 15.08-4.198 15.08-12.21-0.0069-7.225-6.085-12.91-13.12-12.66zm0.1367 3.617-2e-3 2e-3c5.069-0.1908 9.362 3.829 9.367 9.043 0.0018 6.131-5.825 10.45-11.69 8.67a1.812 1.812 0 0 0-1.805 0.4531l-3.559 3.559h-2.875a1.812 1.812 0 0 0-1.81 1.812v1.812h-1.812a1.812 1.812 0 0 0-1.81 1.81v1.812h-3.623v-4.686l10.81-10.81a1.812 1.812 0 0 0 0.4512-1.805c-1.61-5.324 1.838-10.76 7.34-11.58 0.3439-0.05103 0.6856-0.083 1.023-0.0957zm0.3066 3.611a1.812 1.812 0 0 0-1.812 1.81 1.812 1.812 0 0 0 1.812 1.812c1.022 0 1.812 0.7886 1.812 1.81a1.812 1.812 0 0 0 1.81 1.812 1.812 1.812 0 0 0 1.812-1.812c0-2.98-2.455-5.434-5.436-5.434z" fill="url(#a)"/>
</svg>
