<svg version="1.1" viewBox="0 0 64 64" xmlns="http://www.w3.org/2000/svg">
 <defs>
  <linearGradient id="a" y2="1">
   <stop stop-color="#46d9ff" offset="0"/>
   <stop stop-color="#ff23ff" offset=".5"/>
   <stop stop-color="#ffd93f" offset="1"/>
  </linearGradient>
 </defs>
 <path transform="translate(0) scale(1) translate(0) scale(1) translate(0) scale(1) translate(0) scale(1) translate(-2e-5) scale(1) translate(.008199 .003999) scale(.9998) translate(-2e-4) scale(1)" d="m10.8 0c-3.959 0-7.174 3.215-7.174 7.174v8.064c0 1.683 1.21 3.047 2.701 3.047s2.703-1.364 2.703-3.047v-4.838c0-2.377 1.928-4.973 4.303-4.973h37.32c2.375 0 4.303 2.596 4.303 4.973v26.17c0 1.681 1.212 3.049 2.703 3.049s2.701-1.367 2.701-3.049v-29.4c0-3.959-3.215-7.174-7.174-7.174zm-4.473 25.91c-1.491 0-2.701 1.364-2.701 3.047v27.87c0 3.959 3.215 7.174 7.174 7.174h23.9c1.491 0 2.701-1.365 2.701-3.047 0-1.683-2.701-2.381-2.701-2.381h-21.36c-2.375 0-4.305-2.596-4.305-4.973v-24.65c0-1.683-1.212-3.047-2.703-3.047zm51.34 19.81c-1.491 0-2.703 1.364-2.703 3.047v4.838c0 2.377-1.928 4.973-4.303 4.973-1.35 0.0056-3.069-0.0066-4.053 0-0.9835 0.0065-2.451 0.696-2.451 2.379 0 1.681 1.211 3.049 2.703 3.049h6.334c3.959 0 7.174-3.215 7.174-7.174v-8.064c0-1.683-1.21-3.047-2.701-3.047z" fill="url(#a)"/>
 <path transform="translate(0) scale(1) translate(0) scale(1) translate(0) scale(1) translate(0) scale(1) translate(-2e-5) scale(1) translate(.008199 .003999) scale(.9998)" d="m29.57 13.09c-0.5095 0-1.04 0.07612-1.575 0.2116-0.5486 0.1389-1.109 0.3422-1.666 0.5955-1.136 0.5167-2.275 1.25-3.331 2.122-0.7325 0.3469-1.328 0.8924-1.746 1.541-0.4591 0.7107-0.7039 1.542-0.7039 2.402 0 0.352 0.03923 0.6878 0.1097 1.002-1.029 0.341-1.883 0.9824-2.504 1.761-0.8145 1.022-1.238 2.284-1.238 3.574 0 0.493 0.06087 0.9417 0.1545 1.339-1.044 1.211-1.367 2.633-1.367 3.731 0 1.334 0.4386 2.316 0.7388 2.844-0.1901 0.3006-0.2227 0.3839-0.2216 0.4086v0.0023l0.0011 0.0011v0.0012l0.0011 0.0011v0.0011l0.0011 0.0012h0.0012v0.0011h0.0011c0.0011 6.51e-4 0.0024 0.0017 0.0034 0.0022h0.0011v0.0011h0.0011v0.0011l0.0011 0.0011v0.0011l-0.0011 0.0012v0.0023l-0.0011 0.0011v0.0012l-0.0011 0.0011v0.0011c-0.03529 0.05004-0.5262 0.2909-0.5262 2.428 0 0.8351 0.1811 1.843 0.7365 2.831 0.3691 0.6569 0.9228 1.332 1.698 1.859-0.0063 0.1211-9e-3 0.2489-9e-3 0.3862 0 1.278 0.3789 2.57 1.153 3.672 0.6586 0.9383 1.605 1.739 2.805 2.188 0.5051 0.8345 1.205 1.557 2.07 2.077 0.8569 0.5149 1.879 0.8305 2.991 0.8305 1.139 0 2.246-0.3324 3.205-0.9652 0.6299-0.4152 1.193-0.9578 1.648-1.609 0.4364 0.6259 0.9916 1.176 1.647 1.609 0.8993 0.5938 1.995 0.9652 3.203 0.9652 1.048 0 2.078-0.2814 2.994-0.8305 0.8512-0.5107 1.558-1.227 2.072-2.077 1.175-0.4417 2.133-1.233 2.805-2.19 0.7514-1.071 1.153-2.356 1.153-3.671 0-0.1333-0.0043-0.263-0.01232-0.3884 0.7262-0.4953 1.296-1.145 1.697-1.856 0.4968-0.8804 0.7423-1.86 0.7423-2.832 0-1.107-0.2994-2.066-0.7503-2.853 0.5431-0.9538 0.7503-1.958 0.7503-2.852 0-1.709-0.7125-2.969-1.364-3.728 0.198-0.7451 0.1372-0.8936 0.1388-0.9159v-0.0023h0.0012v-0.0023h0.0034v-0.0011l0.0011-0.0011c0.0047-0.01285 0.01119-0.07973 0.01119-0.4198 0-0.8317-0.1862-2.253-1.245-3.575-0.5371-0.6712-1.371-1.385-2.509-1.761 0.06615-0.2947 0.1097-0.6293 0.1097-1.001 0-0.8277-0.227-1.664-0.7033-2.402-0.4066-0.6299-0.9944-1.185-1.748-1.541-1.033-0.8529-2.171-1.595-3.331-2.122-0.5517-0.2509-1.113-0.4553-1.666-0.5955-0.5304-0.135-1.062-0.2119-1.575-0.2119-0.5766 0-1.143 0.1442-1.656 0.4265-0.274 0.1508-0.5317 0.3416-0.7646 0.5665-0.2258-0.2179-0.4841-0.4108-0.7701-0.5673-0.4803-0.2629-1.043-0.4254-1.657-0.4254zm-0.09291 2.327c0.03071 0.0051 0.06179 0.0078 0.09291 0.0079 0.1756 0 0.3405 0.03684 0.4892 0.103 0.1523 0.06775 0.2901 0.1666 0.4064 0.2888 0.1187 0.1248 0.2139 0.2738 0.2799 0.4377 0.06729 0.1671 0.1041 0.35 0.1041 0.5418v6.683c-0.0274-0.01101-0.05521-0.02218-0.08282-0.03246-0.3851-0.1434-0.7887-0.2149-1.197-0.2149-0.1643 0-0.3185 0.03619-0.4556 0.09738-0.1409 0.06288-0.2628 0.1518-0.3627 0.2564-0.1032 0.108-0.184 0.2333-0.2396 0.3694-0.05761 0.1412-0.08844 0.2938-0.08844 0.4489 0 0.1607 0.033 0.3123 0.08953 0.4489 0.05858 0.1415 0.1417 0.2663 0.2429 0.3694 0.1052 0.1072 0.2296 0.1914 0.3649 0.2497 0.1416 0.06098 0.294 0.09291 0.4489 0.09291 0.1776 0 0.3426 0.03772 0.4892 0.103 0.1545 0.06878 0.2919 0.1683 0.4064 0.2888 0.1208 0.127 0.2149 0.2764 0.2799 0.4377 0.06861 0.1705 0.1041 0.3536 0.1041 0.5418v12.86c-0.7474-0.6121-1.526-0.9434-2.145-1.117-0.1742-0.04808-0.3312-0.04893-0.459-0.03135-0.1814 0.02496-0.3228 0.08827-0.4187 0.1444-0.3328 0.1949-0.3375 0.2764-0.3336 0.2933v0.0023c-3.17e-4 -9.7e-5 -0.0028-9.72e-4 -0.0034-0.0011-0.01745-0.0018-0.09343 0.01597-0.1959 0.4153-0.02953 0.115-0.05144 0.2713-0.02799 0.4523 0.01642 0.1266 0.05572 0.271 0.1354 0.4165 0.06317 0.1152 0.1552 0.236 0.2832 0.3403 0.1083 0.08821 0.2453 0.1668 0.4108 0.2127 0.7073 0.1988 1.431 0.6437 1.977 1.387 0.4436 0.6036 0.7761 1.423 0.7761 2.38 0 0.5237-0.09876 1.04-0.2955 1.526-0.1839 0.4535-0.4538 0.8781-0.8024 1.243-0.3277 0.3426-0.7256 0.6316-1.18 0.8328-0.4288 0.19-0.9125 0.3034-1.434 0.3034-0.6517 0-1.311-0.1795-1.904-0.5564-0.5405-0.3432-1.031-0.8546-1.37-1.529-0.06822-0.1364-0.166-0.2634-0.2911-0.3683-0.1164-0.0975-0.2549-0.1745-0.412-0.2206-0.0022-7.69e-4 -0.0045-0.0015-0.0067-0.0022-0.7778-0.2186-1.474-0.6988-1.977-1.384-0.4728-0.6437-0.7726-1.469-0.7726-2.378 0-0.2544 0.02115-0.5286 0.07165-0.8001 0.04791-0.2491 0.01545-0.5117-0.09738-0.7446-0.05465-0.1127-0.1286-0.2202-0.2216-0.3135-0.09125-0.09154-0.2013-0.1693-0.3269-0.2273-0.5463-0.2531-1.013-0.6683-1.344-1.2-0.3177-0.5109-0.5082-1.128-0.5082-1.791 0-0.3445 0.05035-0.6861 0.1522-1.016 0.3116 0.2132 0.6477 0.3956 1.008 0.5407 0.6133 0.2475 1.27 0.3773 1.942 0.3773 0.1635 0 0.318-0.03675 0.4568-0.09962 0.1405-0.06368 0.2623-0.153 0.3616-0.2597 0.2036-0.2189 0.3168-0.5097 0.3168-0.8128 0-0.3161-0.1215-0.6036-0.3213-0.8128-0.1027-0.1075-0.2265-0.1952-0.3638-0.2552-0.1405-0.06144-0.2932-0.09291-0.4501-0.09291-0.4285-1e-6 -0.8328-0.09257-1.198-0.2541-0.3733-0.1653-0.7073-0.4039-0.9876-0.6964-0.2865-0.299-0.5151-0.6528-0.6729-1.041-0.1612-0.3969-0.2485-0.8288-0.2485-1.279 0-0.5007 0.1088-0.975 0.2967-1.395 0.1976-0.4419 0.4822-0.8242 0.8282-1.127 0.1926-0.1659 0.3138-0.3846 0.3672-0.6058 0.05707-0.2361 0.04036-0.483-0.0459-0.7073-0.1662-0.4263-0.2328-0.8483-0.2328-1.243 0-0.464 0.09182-0.8953 0.2474-1.278 0.1626-0.4003 0.3961-0.7503 0.6729-1.039 0.2895-0.3018 0.6265-0.5359 0.9876-0.6953 0.3784-0.1671 0.783-0.253 1.198-0.253 0.4354 1e-6 0.8385 0.0948 1.197 0.253 0.3795 0.1678 0.7125 0.408 0.9864 0.6941 0.2916 0.3045 0.5167 0.6603 0.6706 1.04 0.1646 0.4061 0.2474 0.8385 0.2474 1.278 0 0.1624 0.0329 0.313 0.08621 0.4455 0.05795 0.1442 0.141 0.2686 0.2374 0.3706 0.1064 0.1125 0.2308 0.1993 0.3627 0.2586 0.1485 0.06666 0.3033 0.09738 0.4556 0.09738 0.1736 0 0.3283-0.04076 0.4568-0.09853 0.1518-0.06827 0.2723-0.1627 0.3627-0.2586 0.1142-0.1211 0.1887-0.252 0.2362-0.3706 0.06792-0.1695 0.08506-0.3256 0.08506-0.4444 0-0.9807-0.2536-1.707-0.2989-1.843-0.08368-0.2495-0.08953-0.2496-0.08953-0.2497-2e-5 -5.1e-5 0.0037-0.0056-0.1019-0.2441-0.06385-0.1443-0.3551-0.8133-0.9664-1.491-0.3398-0.3768-0.862-0.8523-1.597-1.22-0.4426-0.2214-0.9956-0.4201-1.644-0.506-0.08392-0.2057-0.1545-0.4703-0.1545-0.7824 0-0.3819 0.1037-0.7738 0.328-1.122 0.192-0.2976 0.4729-0.5601 0.8282-0.7199 0.01603-0.0072 0.03171-0.01496 0.04701-0.02351 0.01009-0.0035 0.02116-0.0084 0.03359-0.01344 0.1938-0.07606 0.4109-0.1276 0.6569-0.1276 0.35 0 0.6935 0.0987 0.995 0.2967 0.2823 0.1852 0.5331 0.4608 0.701 0.8242 0.065 0.1412 0.1567 0.2679 0.2709 0.3716 0.1107 0.1006 0.241 0.1783 0.3829 0.2284 0.138 0.04872 0.2875 0.07176 0.44 0.06271 0.1489-0.0088 0.2989-0.04798 0.4411-0.1198 0.14-0.0713 0.2613-0.1679 0.3594-0.2832 0.09543-0.1122 0.1686-0.242 0.2161-0.3817 0.0464-0.1365 0.06849-0.2828 0.06156-0.4333-0.0068-0.1474-0.04133-0.2974-0.1075-0.4411-0.2683-0.5783-0.6603-1.091-1.149-1.498-0.1577-0.1315-0.3256-0.2522-0.5027-0.3605 0.3539-0.1816 0.7033-0.3354 1.042-0.459 0.5904-0.2151 1.135-0.3323 1.61-0.3448zm4.881 0.0045c0.02008 0.0022 0.04025 0.0033 0.06047 0.0034 0.4951 0 1.074 0.1173 1.701 0.3448 0.3399 0.1234 0.689 0.278 1.042 0.459-0.1762 0.1078-0.3436 0.2275-0.5004 0.3582-0.4886 0.4074-0.8787 0.9194-1.145 1.494-0.06672 0.145-0.1013 0.2935-0.1086 0.44-0.0075 0.1498 0.01328 0.297 0.05823 0.4333 0.04614 0.1399 0.1184 0.2707 0.2127 0.384 0.09721 0.1168 0.2172 0.214 0.356 0.2854 0.2914 0.1485 0.6104 0.1603 0.8878 0.06047 0.2951-0.1062 0.5226-0.3283 0.6483-0.6076 0.1697-0.3632 0.422-0.6379 0.7033-0.8219 0.3049-0.1992 0.6505-0.2967 0.9985-0.2967 0.228 0 0.4309 0.04331 0.6076 0.1052 0.04169 0.02407 0.07938 0.03929 0.1086 0.05038 0.02407 0.0091 0.0421 0.01576 0.05597 0.02016 0.3476 0.1665 0.611 0.4245 0.7904 0.7033 0.2339 0.3633 0.3258 0.7595 0.3258 1.122 0 0.3454-0.0866 0.6236-0.15 0.7824-0.2484 0.03193-0.905 0.1368-1.644 0.5071-0.4592 0.2299-1.047 0.6076-1.6 1.221-0.3879 0.4303-0.7852 1.006-1.069 1.738-0.2257 0.5812-0.3896 1.287-0.3896 2.092 0 0.146 0.02754 0.2995 0.08844 0.4489 0.05292 0.1298 0.1318 0.2567 0.2396 0.3694 0.09601 0.1005 0.2169 0.1924 0.3627 0.2575 0.1327 0.05921 0.2868 0.09629 0.4556 0.09629 0.1557 0 0.3105-0.03151 0.4556-0.09629 0.134-0.05978 0.2586-0.1473 0.3638-0.2575 0.09824-0.1028 0.1814-0.2267 0.2396-0.3694 0.05481-0.1345 0.08729-0.2868 0.08729-0.4489 0-0.4437 0.08346-0.8764 0.2463-1.279 0.1546-0.383 0.3807-0.7382 0.6695-1.041 0.2752-0.2885 0.6076-0.5292 0.9841-0.6964 0.3594-0.1595 0.7635-0.2541 1.197-0.2541 0.4158 0 0.8196 0.08747 1.196 0.2541 0.3615 0.1603 0.6981 0.395 0.9864 0.6964 0.2771 0.29 0.5088 0.6414 0.6706 1.041 0.1559 0.3852 0.2474 0.8162 0.2474 1.279 0 0.402-0.06385 0.8196-0.2261 1.236-0.08621 0.2241-0.1051 0.4683-0.0515 0.7033 0.05077 0.2224 0.1687 0.4449 0.3649 0.6167 0.3478 0.3043 0.6339 0.6855 0.8305 1.125 0.1882 0.4197 0.2955 0.8936 0.2955 1.393 0 0.4512-0.0869 0.8827-0.2474 1.279-0.1573 0.3888-0.3852 0.7423-0.6706 1.041-0.2796 0.2927-0.6139 0.5313-0.9864 0.6964-0.3647 0.1616-0.768 0.2541-1.197 0.2541-0.1588 0-0.3128 0.03302-0.4534 0.09515-0.1376 0.06082-0.2602 0.1479-0.3627 0.2552-0.1007 0.1054-0.1822 0.2312-0.2384 0.3706-0.05539 0.1372-0.08621 0.2881-0.08621 0.4455 0 0.1573 0.03132 0.3074 0.08621 0.4444 0.05571 0.1391 0.1363 0.2646 0.2362 0.3706 0.1018 0.1079 0.2237 0.1965 0.3616 0.2586 0.141 0.06345 0.2961 0.09853 0.4568 0.09853 0.6975 0 1.354-0.1396 1.945-0.3784 0.3606-0.1455 0.6981-0.3287 1.009-0.5407 0.1009 0.3303 0.1478 0.6729 0.1478 1.016 0 0.6655-0.1914 1.282-0.5071 1.789-0.3332 0.5359-0.803 0.9492-1.347 1.203-0.2533 0.1171-0.4375 0.316-0.5463 0.5351-0.1163 0.2341-0.1508 0.4992-0.1019 0.7531 0.05465 0.2782 0.07612 0.546 0.07612 0.7927 0 0.9234-0.3093 1.748-0.7738 2.38-0.5147 0.701-1.217 1.173-1.976 1.386-0.0019 7.68e-4 -0.0037 0.0015-0.0057 0.0022-0.1617 0.04741-0.3012 0.1269-0.4142 0.2216-0.1294 0.1085-0.2247 0.2367-0.2911 0.3694-0.3551 0.7056-0.8632 1.203-1.372 1.523-0.6442 0.4066-1.318 0.5541-1.908 0.5541-0.5541 0-1.037-0.1281-1.433-0.3034-0.499-0.2212-0.8884-0.5302-1.178-0.8328-0.4127-0.4319-0.658-0.8873-0.8013-1.243-0.2588-0.6397-0.2836-1.191-0.29-1.32-0.0081-0.164-0.0056-0.1983-0.0045-0.2049v-0.0023c3e-3 -0.0078 0.014-0.06276-0.01567-0.459 0.0092-0.05624 0.01567-0.1212 0.01567-0.1937v-19.63c0-0.1877 0.03538-0.3712 0.1041-0.5418 0.06534-0.1622 0.1599-0.3122 0.281-0.44 0.1153-0.1216 0.2533-0.2219 0.4075-0.2911 0.1468-0.0658 0.3101-0.1041 0.4859-0.1041 0.1552-1e-6 0.3076-0.03209 0.4489-0.09291 0.1354-0.0583 0.2598-0.1428 0.3649-0.2497 0.1013-0.1029 0.1864-0.2269 0.2451-0.3683 0.05686-0.1368 0.08844-0.2891 0.08844-0.4501 0-0.1556-0.02956-0.3077-0.08729-0.4489-0.05571-0.1363-0.1373-0.2616-0.2406-0.3694-0.1001-0.1045-0.2219-0.1936-0.3627-0.2564-0.1372-0.06116-0.2926-0.09738-0.4568-0.09738-0.4087 0-0.8122 0.07176-1.197 0.2149-0.02753 0.01025-0.05443 0.0215-0.08173 0.03246v-4.149c0-0.1916 0.03659-0.3742 0.1041-0.5418 0.06626-0.1645 0.1619-0.3145 0.281-0.44 0.1166-0.1228 0.2553-0.222 0.4075-0.29 0.1316-0.05881 0.2745-0.09434 0.4265-0.1019zm8.552 9.079c-0.1659 0-0.3208 0.03625-0.4568 0.09738-0.1427 0.06419-0.2636 0.1546-0.3616 0.2586-0.1038 0.11-0.1826 0.2367-0.2362 0.3706-0.05719 0.1428-0.08621 0.2944-0.08621 0.4455 0 0.4707-0.09463 0.9022-0.2474 1.279-0.165 0.4074-0.3998 0.756-0.6706 1.039-0.2951 0.3083-0.6328 0.5395-0.9853 0.6953-0.388 0.1715-0.7938 0.253-1.198 0.253-1.123 0-1.852-0.5938-2.201-0.9692-0.1338-0.1419-0.2716-0.2218-0.3761-0.2676-0.3363-0.1471-0.4175-0.115-0.4355-0.09853-2.61e-4 2.91e-4 -0.0018 0.0027-0.0022 0.0034l-0.0011 0.0012h-0.0011v-0.0012l-0.0034-0.0034c-0.01636-0.0174-0.0932-0.05386-0.44 0.09515-0.1056 0.0454-0.2454 0.125-0.3773 0.2642-0.09412 0.09658-0.1825 0.2212-0.2451 0.3761-0.05058 0.125-0.08425 0.2712-0.08621 0.431-0.0017 0.1343 0.01884 0.2823 0.07503 0.4321 0.04908 0.131 0.1267 0.2661 0.2407 0.3884l0.0012 0.0011c0.6603 0.7044 1.597 1.35 2.839 1.592 0.2014 0.8196 0.6402 1.596 1.304 2.2 0.3551 0.3229 0.7749 0.5955 1.251 0.7858 0.4516 0.1808 0.9538 0.2877 1.491 0.2877 0.1659 0 0.3209-0.03749 0.4568-0.09853 0.1427-0.06408 0.2646-0.1537 0.3627-0.2575 0.1039-0.1099 0.1835-0.2366 0.2374-0.3706 0.05743-0.1429 0.08506-0.2941 0.08506-0.4455 0-0.1619-0.03171-0.313-0.08621-0.4467-0.05863-0.1439-0.1424-0.268-0.2407-0.3694-0.1071-0.1106-0.2327-0.1955-0.3649-0.253-0.1462-0.06357-0.2995-0.09291-0.4501-0.09291h-0.0045c-0.2695 0-0.4858-0.06006-0.6339-0.1164-0.5348-0.2039-0.5474-0.3073-0.5452-0.3246v-0.0011h-0.0011l-0.0011-0.0011c-7e-3 -0.0043-0.03163-0.02373-0.1176-0.1109-0.03688-0.03738-0.2001-0.198-0.3448-0.4713 0.3798-0.1049 0.7755-0.2609 1.172-0.4836 0.5085-0.2856 1.027-0.6861 1.486-1.227 0.7096-0.8357 1.346-2.099 1.346-3.696 0-0.1497-0.02774-0.3028-0.08729-0.4489-0.05386-0.1321-0.1334-0.2584-0.2396-0.3694-0.09732-0.1019-0.2186-0.192-0.3627-0.2564-0.1293-0.05766-0.2789-0.0948-0.4388-0.09738zm-20.61 0.6179-0.0067 0.0067c-0.1692 2.66e-4 -0.3222 0.03886-0.4534 0.09738-0.147 0.06557-0.2688 0.157-0.3638 0.2564-0.1091 0.1142-0.1874 0.2416-0.2396 0.3694-0.06213 0.1523-0.08729 0.3063-0.08729 0.4489 0 1.873 0.8678 3.136 1.348 3.702 0.5671 0.6683 1.152 1.028 1.275 1.105 0.2067 0.1292 0.2116 0.1254 0.2116 0.1254 2.7e-5 1.5e-5 -2.75e-4 0.0065 0.2183 0.1164 0.08568 0.04309 0.4364 0.2247 0.9549 0.3683-0.1025 0.1934-0.25 0.3973-0.4646 0.58-0.1472 0.1253-0.3301 0.2423-0.5474 0.3246-0.1827 0.06924-0.3957 0.1164-0.6345 0.1164-0.1522 0-0.3085 0.03124-0.4568 0.09738-0.1317 0.05881-0.2557 0.1444-0.3627 0.2564-0.09687 0.1013-0.1807 0.225-0.2396 0.3694-0.05422 0.1329-0.08729 0.2852-0.08729 0.4489 0 0.1523 0.02926 0.3038 0.08844 0.4478 0.05512 0.1342 0.135 0.2615 0.2407 0.3706 0.09922 0.1024 0.2225 0.1906 0.3649 0.253 0.135 0.05921 0.288 0.09515 0.4523 0.09515 0.5122 0 1.016-0.0971 1.491-0.2866 0.4525-0.1804 0.8758-0.4443 1.25-0.7835 0.6557-0.5961 1.097-1.368 1.3-2.198 1.198-0.2338 2.157-0.8609 2.84-1.593 0.112-0.1187 0.1906-0.2545 0.2407-0.3896 0.05443-0.1467 0.07589-0.2948 0.07388-0.4333-0.0022-0.1528-0.0331-0.298-0.08506-0.4287-0.05846-0.147-0.1433-0.276-0.2463-0.3829l-0.0045-0.0045c-0.1177-0.1191-0.2492-0.2021-0.3773-0.2552-0.1516-0.06294-0.3007-0.0854-0.4333-0.08506-0.167 3.82e-4 -0.3136 0.03756-0.4321 0.08729-0.1689 0.0709-0.2916 0.1701-0.3739 0.2541-0.0027 0.0029-0.0053 0.0059-0.0079 9e-3 -0.3708 0.3959-0.4592 0.422-0.4769 0.4209h-0.0023v0.0034c-0.0055 0.01755-0.06013 0.09217-0.5351 0.3022-0.2234 0.09876-0.6397 0.2508-1.189 0.2508-0.3838 0-0.7915-0.07474-1.197-0.2541-0.3422-0.1516-0.6838-0.3785-0.9887-0.6964-0.2652-0.277-0.5038-0.6253-0.6729-1.041-0.1506-0.3707-0.2485-0.8019-0.2485-1.279 0-0.2816-0.09927-0.5789-0.3168-0.8128-0.09636-0.1036-0.2163-0.1955-0.3604-0.2609-0.1352-0.06128-0.2907-0.09853-0.4578-0.09853zm12.12 8.896c-0.166 0-0.3205 0.03688-0.4568 0.09853-0.1429 0.06465-0.2639 0.1561-0.3616 0.2608-0.2131 0.2285-0.3179 0.5229-0.3179 0.8128 0 0.3335 0.1358 0.6167 0.3213 0.8128 0.1058 0.1119 0.2288 0.1984 0.3616 0.2575 0.1469 0.06534 0.3013 0.09629 0.4534 0.09629 0.4489 0 0.8523 0.1004 1.197 0.253 0.3958 0.1754 0.7256 0.4236 0.9864 0.6964 0.3099 0.3242 0.5266 0.6855 0.6706 1.041 0.1808 0.4464 0.2474 0.8867 0.2474 1.28 0 0.01249 4.5e-5 0.02393 0 0.03471-0.6826 0.3472-1.468 0.9343-2.09 1.884-0.5016 0.7663-0.9337 1.84-0.9337 3.158 0 0.2794 0.09801 0.5778 0.3224 0.8128 0.09773 0.1023 0.2199 0.1921 0.3638 0.2552 0.134 0.05869 0.2858 0.09406 0.4501 0.09406 0.1537 0 0.3068-0.03099 0.4501-0.09291 0.1342-0.058 0.259-0.1425 0.3649-0.2508 0.1001-0.1022 0.184-0.227 0.2429-0.3694 0.05605-0.1355 0.08844-0.2872 0.08844-0.4489 0-0.4663 0.09274-0.8982 0.2474-1.28 0.1632-0.4037 0.3967-0.7549 0.6718-1.043 0.2909-0.305 0.6282-0.5395 0.9864-0.6987 0.3805-0.1691 0.7841-0.2541 1.196-0.2541 0.1657 0 0.3194-0.03591 0.4534-0.09515 0.1441-0.06368 0.2653-0.1544 0.3627-0.2564 0.1062-0.1111 0.1852-0.2375 0.2384-0.3694 0.05881-0.1458 0.08621-0.2975 0.08621-0.4455 0-0.1653-0.03288-0.316-0.08506-0.4455-0.05973-0.1483-0.1448-0.2712-0.2384-0.3694-0.1114-0.1169-0.2373-0.2007-0.3627-0.2564-0.1579-0.07005-0.3159-0.09629-0.4545-0.09629-0.03519 0-0.06723 8.27e-4 -0.09629 0.0011-0.05066-0.552-0.1795-1.103-0.3951-1.636-0.2588-0.6385-0.642-1.25-1.15-1.78-0.4659-0.487-1.041-0.9096-1.711-1.207-0.6196-0.2744-1.326-0.4441-2.092-0.4456h-0.0011zm-6.666 1.27c-0.7635 0-1.474 0.1656-2.104 0.4444-0.6632 0.2936-1.239 0.713-1.711 1.207-0.5 0.5228-0.8856 1.132-1.149 1.781-0.2125 0.5248-0.345 1.075-0.3963 1.636-0.03313-8.28e-4 -0.06523-0.0012-0.09629-0.0012-0.1945 0-0.3496 0.05024-0.4534 0.09629-0.3493 0.1549-0.3677 0.232-0.3649 0.2519 1.46e-4 5.73e-4 9.72e-4 0.0029 0.0011 0.0034h-0.0034c-0.0191-9.72e-4 -0.09337 0.02159-0.234 0.3706-0.04173 0.1035-0.08621 0.2562-0.08621 0.4455 0 0.1352 0.02327 0.2873 0.08621 0.4444 0.04977 0.1243 0.1258 0.2535 0.2362 0.3706 0.0928 0.09841 0.2126 0.1916 0.3616 0.2586 0.1305 0.05869 0.2852 0.09853 0.4568 0.09853 0.4035 0 0.8087 0.08111 1.197 0.253 0.352 0.156 0.6912 0.3874 0.9864 0.6964 0.271 0.2835 0.5054 0.6334 0.6706 1.041 0.1529 0.3777 0.2474 0.8099 0.2474 1.28 0 0.1511 0.02789 0.3017 0.08506 0.4444 0.05361 0.1338 0.1335 0.2605 0.2374 0.3706 0.09801 0.1039 0.2189 0.1944 0.3616 0.2586 0.136 0.06116 0.2908 0.09853 0.4568 0.09853 0.1658 0 0.3201-0.03698 0.4556-0.09738 0.1424-0.06345 0.2639-0.1533 0.3627-0.2564 0.1047-0.1092 0.1857-0.235 0.2407-0.3694 0.05869-0.1434 0.08844-0.2958 0.08844-0.4489 0-1.253-0.3956-2.332-0.9406-3.159-0.5713-0.8672-1.315-1.487-2.094-1.883-1.19e-4 -0.01099 0-0.02077 0-0.03022 0-0.5506 0.1291-0.9881 0.2474-1.28 0.2125-0.5253 0.5083-0.8603 0.5653-0.9257 0.1014-0.1169 0.1052-0.1153 0.1052-0.1153 2e-5 -2.1e-5 -7.09e-4 -0.0038 0.1109-0.1097 0.06403-0.06075 0.3809-0.3675 0.8752-0.5864 0.2748-0.1218 0.6832-0.253 1.197-0.253 0.14 0 0.2969-0.02657 0.4556-0.09738 0.1255-0.056 0.2512-0.1397 0.3627-0.2564 0.09371-0.09801 0.179-0.222 0.2396-0.3706 0.05312-0.1302 0.08844-0.2808 0.08844-0.4478 0-0.1498-0.02886-0.3034-0.08953-0.4501-0.0549-0.1326-0.1352-0.2585-0.2429-0.3683-0.09881-0.1007-0.2215-0.189-0.3649-0.2508-0.1334-0.05743-0.2853-0.09182-0.4489-0.09182z" fill="url(#a)" stroke-width=".5732"/>
</svg>
