<svg version="1.1" viewBox="0 0 64 64" xmlns="http://www.w3.org/2000/svg">
 <defs>
  <linearGradient id="a" x1="1" x2="0" y1="1">
   <stop stop-color="#ffb900" offset="0"/>
   <stop stop-color="#ff0" offset="1"/>
  </linearGradient>
 </defs>
 <path transform="translate(-2e-5) scale(1) translate(.008199 .003999) scale(.9998) translate(-2e-4) scale(1)" d="m10.8 0c-3.959 0-7.174 3.215-7.174 7.174v8.064c0 1.683 1.21 3.047 2.701 3.047s2.703-1.364 2.703-3.047v-4.838c0-2.377 1.928-4.973 4.303-4.973h37.32c2.375 0 4.303 2.596 4.303 4.973v26.17c0 1.681 1.212 3.049 2.703 3.049s2.701-1.367 2.701-3.049v-29.4c0-3.959-3.215-7.174-7.174-7.174zm-4.473 25.91c-1.491 0-2.701 1.364-2.701 3.047v27.87c0 3.959 3.215 7.174 7.174 7.174h23.9c1.491 0 2.701-1.365 2.701-3.047 0-1.683-2.701-2.381-2.701-2.381h-21.36c-2.375 0-4.305-2.596-4.305-4.973v-24.65c0-1.683-1.212-3.047-2.703-3.047zm51.34 19.81c-1.491 0-2.703 1.364-2.703 3.047v4.838c0 2.377-1.928 4.973-4.303 4.973-1.35 0.0056-3.069-0.0066-4.053 0-0.9835 0.0065-2.451 0.696-2.451 2.379 0 1.681 1.211 3.049 2.703 3.049h6.334c3.959 0 7.174-3.215 7.174-7.174v-8.064c0-1.683-1.21-3.047-2.701-3.047z" fill="url(#a)"/>
 <path transform="translate(-2e-5) scale(1) translate(.008199 .003999) scale(.9998)" d="m38.96 18.52c-4.141 0-6.803 0.7577-9.609 1.199-2.123 0.3343-4.383 0.5227-7.684 0.1324a1.304 1.304 0 0 0-0.05135-8e-3 1.304 1.304 0 0 0-0.07645-8e-3c-1.027-0.125-2.154-0.3056-3.408-0.5545-2.431-0.4825-4.822 1.365-4.822 3.882v3.501a1.304 1.304 0 0 0-0.0057 0.1187 1.304 1.304 0 0 0 0.0057 0.1187v9.322a1.304 1.304 0 0 0-0.0057 0.1164 1.304 1.304 0 0 0 0.0057 0.1175v4.133c0 1.795 1.241 3.39 3.012 3.781 6.176 1.362 9.94 1.248 13.09 0.7805 3.153-0.4678 5.579-1.22 9.545-1.22 2.546 0 4.596 0.2401 6.152 0.534 1.356 0.256 2.701-0.1246 3.746-0.8866 1.046-0.7619 1.842-1.987 1.842-3.436v-16.97c0-1.485-0.904-2.95-2.425-3.421-1.757-0.5444-4.868-1.233-9.315-1.233zm0.0023 2.606-0.0023 0.0034c1.117 0 2.139 0.04544 3.065 0.1221 0.1408 1.936 1.003 3.723 2.225 5.091 1.04 1.165 2.367 2.064 3.841 2.408v7.258c-3.047 0.4542-5.807 2.473-6.584 5.39-0.7933-0.04972-1.642-0.07874-2.546-0.07874-4.296 0-6.995 0.816-9.926 1.251-1.765 0.2618-3.658 0.411-6.182 0.202-0.2446-3.866-3.176-7.028-6.936-7.632v-7.16c3.07-0.5012 5.63-2.718 6.53-5.438 3.004 0.2603 5.276 0.07247 7.31-0.2476 2.998-0.4718 5.383-1.168 9.206-1.168zm5.733 0.4621c1.195 0.2062 2.13 0.4492 2.805 0.6584 0.3659 0.1134 0.5911 0.436 0.5911 0.9277v2.827c-0.6625-0.2823-1.328-0.7608-1.895-1.397-0.7479-0.8384-1.3-1.915-1.5-3.017zm-27.4 0.2168c0.1081-0.0018 0.2198 0.0085 0.332 0.03081 0.7372 0.1463 1.438 0.2704 2.106 0.3743-0.7025 1.349-2.164 2.618-3.816 3.082v-2.131c0-0.7671 0.6205-1.343 1.377-1.356zm14.71 4.541c-3.106 0-5.653 2.547-5.653 5.653s2.546 5.653 5.653 5.653 5.652-2.547 5.652-5.653-2.545-5.653-5.652-5.653zm0 2.61c1.696 0 3.043 1.347 3.043 3.043s-1.347 3.044-3.043 3.044-3.044-1.348-3.044-3.044 1.348-3.043 3.044-3.043zm-16.09 8.839c2.232 0.5229 3.942 2.357 4.282 4.657-1.008-0.1572-2.106-0.3646-3.314-0.631-0.5663-0.1248-0.9687-0.6334-0.9687-1.233zm32.17 0.8718v1.475c0 0.4908-0.2732 0.9655-0.7713 1.328s-1.176 0.5317-1.725 0.4279c-0.4385-0.08282-0.9098-0.161-1.414-0.2316 0.6094-1.442 2.146-2.604 3.91-3z" fill="url(#a)" stroke-width="1.739"/>
</svg>
