<svg version="1.1" viewBox="0 0 64 64" xmlns="http://www.w3.org/2000/svg">
 <defs>
  <linearGradient id="a" x2="0" y1="1">
   <stop stop-color="#a93aff" offset="0"/>
   <stop stop-color="#ff81ff" offset="1"/>
  </linearGradient>
 </defs>
 <path transform="translate(0) scale(1) translate(0) scale(1) translate(-2e-5) scale(1) translate(.004999 .007998) scale(.9998)" d="M57.768 32.114c-8.348 0-13.47 5.469-17.06 10.46-1.788 2.49-3.276 4.912-4.61 6.57-1.33 1.657-2.364 2.324-3.11 2.319-.757-.007-1.791-.69-3.105-2.348s-2.776-4.074-4.538-6.555c-3.531-4.968-8.616-10.4-16.96-10.4H7.62v3.677h.764c6.786 0 10.64 4.177 13.96 8.853 1.658 2.335 3.098 4.746 4.653 6.706 1.553 1.959 3.418 3.718 5.955 3.74h.001c2.546.02 4.432-1.731 6.007-3.69s3.044-4.38 4.73-6.727c3.375-4.705 7.292-8.926 14.07-8.926h.765l.001-3.678z" fill="#0ff"/>
 <path transform="translate(0) scale(1) translate(0) scale(1) translate(-2e-5) scale(1) translate(.004999 .007998) scale(.9998)" d="M33.038 16.984c-2.238-.004-4.073 1.13-5.652 2.48-1.575 1.349-3.033 2.988-4.695 4.558-3.333 3.147-7.28 6.048-14.31 6.048h-.766v3.677h.766c8.095 0 13.23-3.64 16.84-7.048 1.8-1.701 3.277-3.34 4.563-4.44 1.29-1.103 2.259-1.6 3.253-1.598.875.002 1.857.558 3.159 1.843 1.3 1.283 2.783 3.173 4.59 5.13 3.623 3.923 8.8 8.147 16.97 8.147h.765v-3.678h-.764c-6.95 0-10.91-3.32-14.27-6.961-1.68-1.818-3.147-3.71-4.716-5.258-1.505-1.484-3.27-2.75-5.454-2.86l-.066-.04z" fill="red"/>
 <path transform="translate(0) scale(1) translate(0) scale(1) translate(-2e-5) scale(1) translate(.004999 .007998) scale(.9998)" d="M33.018 8.58c-2.92 0-5.126 1.866-6.811 4.086-1.68 2.212-3.075 4.939-4.636 7.565s-3.275 5.143-5.358 6.934c-2.091 1.796-4.47 2.913-7.82 2.913h-.766v3.677h.766c4.22 0 7.607-1.56 10.22-3.802 2.604-2.237 4.496-5.101 6.126-7.846s3.023-5.403 4.399-7.216c1.383-1.823 2.494-2.632 3.882-2.632 1.31 0 2.448.876 3.856 2.888 1.402 2.005 2.816 4.925 4.459 7.92 1.644 2.998 3.535 6.109 6.143 8.548 2.614 2.446 6.032 4.173 10.29 4.173h.764V32.11h-.764c-3.307 0-5.67-1.207-7.78-3.183-2.105-1.97-3.852-4.747-5.433-7.63-1.58-2.881-2.99-5.856-4.668-8.257-1.606-2.3-3.705-4.222-6.488-4.397l-.066-.066z" fill="#ff0"/>
 <path transform="translate(0) scale(1) translate(0) scale(1) translate(-2e-5) scale(1) translate(.004999 .007998) scale(.9998) translate(.008 .004)" d="M53.18-.004 10.8 0a7.176 7.176 0 0 0-7.174 7.172v8.064c0 1.683 1.21 3.047 2.701 3.047s2.703-1.364 2.703-3.047v-4.838c0-2.377 1.926-4.973 4.301-4.973h37.32c2.375 0 4.303 2.596 4.303 4.973v21.71H47.79v-2.145h-3.676v2.145h-9.205v-2.145h-3.676v2.145h-9.205v-2.145h-3.676v2.145H9.149v-2.145h-.111V28.94c0-1.683-1.212-3.045-2.703-3.045l-.004.006c-1.491 0-2.701 1.364-2.701 3.047v27.87a7.18 7.18 0 0 0 7.174 7.174h23.9c1.49 0 2.7-1.365 2.7-3.047s-2.7-2.381-2.7-2.381h-21.36c-2.375 0-4.305-2.596-4.305-4.973V35.83h.111v-.047h9.203v2.148h3.676v-2.148h9.205v2.148h3.676v-2.148h9.205v2.148h3.676v-2.148h7.164v.775c0 1.681 1.212 3.047 2.703 3.047s2.701-1.365 2.701-3.047V7.16a7.176 7.176 0 0 0-7.174-7.172zm4.48 45.72c-1.491 0-2.703 1.364-2.703 3.047v4.838c0 2.377-1.928 4.973-4.303 4.973-1.35.006-3.067-.007-4.051 0-.983.007-2.451.694-2.451 2.377 0 1.681 1.211 3.05 2.703 3.05h6.332a7.176 7.176 0 0 0 7.174-7.173v-8.064c0-1.683-1.21-3.047-2.701-3.047z" fill="url(#a)"/>
</svg>
