<svg style="isolation:isolate" version="1.1" viewBox="0 0 64 64" xmlns="http://www.w3.org/2000/svg">
 <defs>
  <linearGradient id="a" x1="128" x2="252.1" y1="285.6" y2="145.6" gradientUnits="userSpaceOnUse">
   <stop stop-color="#00f1fa" offset="0"/>
   <stop stop-color="#006cff" offset="1"/>
  </linearGradient>
 </defs>
 <linearGradient id="c" transform="translate(0) scale(1) translate(0) scale(1) translate(0) scale(1) translate(0) scale(1) translate(.00134 .01333) scale(1) translate(-1.3e-5) scale(1.333)" x1=".5" x2="2.22e-16" y1="2.22e-16" y2=".5" gradientTransform="matrix(-42.56 0 0 -48 45.28 48)" gradientUnits="userSpaceOnUse">
  <stop stop-color="#00f1fa" offset="0"/>
  <stop stop-color="#006cff" offset="1"/>
 </linearGradient>
 <path transform="translate(0) scale(1) translate(0) scale(1) translate(0) scale(1) translate(0) scale(1) translate(.00134 .01333) scale(1) translate(-1.3e-5) scale(1.333)" d="m39.9 48c2.969 0 5.38-2.411 5.38-5.38v-22.05c0-1.261-0.9076-2.285-2.026-2.285s-2.027 1.024-2.027 2.285v19.63c0 1.783-1.447 3.729-3.228 3.729h-27.99c-1.781 0-3.228-1.946-3.228-3.729v-3.628c0-1.262-0.9087-2.285-2.027-2.285s-2.026 1.023-2.026 2.285v6.048c0 2.969 2.411 5.38 5.38 5.38zm-4.939-43.93c-0.7376-0.0049-1.839-0.5234-1.839-1.786 0-1.261 0.9076-2.285 2.027-2.285h4.751c2.969 0 5.38 2.411 5.38 5.38v6.048c0 1.262-0.9076 2.285-2.026 2.285s-2.027-1.023-2.027-2.285v-3.628c0-1.783-1.447-3.729-3.228-3.729-1.013-0.0042-2.301 5e-3 -3.039 9e-5zm-28.18 22.21c0 1.262-0.9087 2.285-2.027 2.285s-2.026-1.023-2.026-2.285v-20.91c0-2.969 2.411-5.38 5.38-5.38h17.92c1.707 0 2.138 0.9893 2.026 2.285 0 1.262-1.126 1.786-2.026 1.786h-16.02c-1.781 0-3.228 1.946-3.228 3.729z" fill="url(#c)" fill-rule="evenodd" stroke-width="1.091"/>
 <g transform="translate(0) scale(1) translate(0) scale(1) translate(0) scale(1) translate(0) scale(1) translate(.00134 .01333) scale(1) translate(-1.3e-5) scale(1.333) matrix(.1714 0 0 .1714 2.057 -.9667)" fill="url(#a)" style="isolation:isolate">
  <path d="m128 113.8c5.046-0.0149 7.216-0.033 13 8.5e-4l-0.014 1.795c-0.056 4.245-0.097 8.49-0.167 12.75-4.275-0.015-8.565-0.015-12.85 0-0.014 4.777-0.084 9.553 0.07 14.33 0.696 0.047 2.075 0.125 2.771 0.156 2.618 0.203 5.334-0.187 7.882 0.733 2.632 1.171 3.51 4.465 4.345 7.196 3.524 12.84 6.922 25.75 10.64 38.55 1.463 8.522-2.465 17.32-9.052 21.66-10.44 6.54-23.68 6.009-34.13-0.25-6.629-4.87-10.33-14.72-7.604-23.29 3.733-13.46 7.34-26.92 10.96-40.41 1.755-5.994 0.947-12.38 1.045-18.56 4.359-0.14 8.732-0.156 13.1-0.187-0.015-4.563 6e-3 -10.27 2e-3 -14.48zm-13.53 81.99c4.206 7.617 13.41 8.054 20.36 5.853 2.799-0.889 6.81-3.293 5.835-7.226-1.295-3.606-5.125-4.87-8.231-5.572-6.42-1.202-14.69-0.406-17.96 6.945z"/>
  <path d="m114.1 77.67c4.66-0.0448 9.336-0.1042 13.98 0.2386-0.06 4.593-0.06 9.171-0.045 13.75 4.66 0.0298 9.321-0.015 14-0.1194l-0.03 1.491c-0.075 4.161-0.09 8.321-0.134 12.5-4.631 0.015-9.246 0-13.86 0-0.015 4.265 0.026 9.567 0.1601 13.9-5.824 0.0969-8.931 0.0291-14.1-2e-3 -0.059-4.652-0.06-9.32 0.075-13.97 4.601 0.044 9.201 0.044 13.82 0.029 0.074-4.637 0.044-9.26-0.105-13.88-4.571 0-9.141 0-13.7 0.0448z" stroke="url(#a)" stroke-width="4"/>
 </g>
</svg>
