<svg version="1.1" viewBox="0 0 64 64" xmlns="http://www.w3.org/2000/svg">
 <defs>
  <linearGradient id="a" x1="1" x2="0" y2="1">
   <stop stop-color="#ff00d2" offset="0"/>
   <stop stop-color="#ff0052" offset="1"/>
  </linearGradient>
  <linearGradient id="b" y1="1">
   <stop stop-color="#fe0844" offset="0"/>
   <stop stop-color="#feb302" offset="1"/>
  </linearGradient>
 </defs>
 <path transform="translate(0) scale(1) translate(0) scale(1) translate(.0079 .001188) scale(1) translate(5e-4)" d="m34.69 0-23.89 0.007812a7.179 7.179 0 0 0-7.174 7.172v27.87c0 1.683 1.21 3.047 2.701 3.047s2.703-1.364 2.703-3.047v-24.65c0-2.377 1.929-4.973 4.305-4.973h21.36c1.2 0 2.701-0.698 2.701-2.381 0.15-1.728-0.4254-3.047-2.701-3.047zm12.16 0.007812c-1.492 0-2.703 1.364-2.703 3.045 0 1.683 1.468 2.374 2.451 2.381s2.702-6e-3 4.053 0c2.375 0 4.303 2.596 4.303 4.973v4.838c0 1.683 1.212 3.047 2.703 3.047s2.699-1.364 2.699-3.047v-8.062a7.179 7.179 0 0 0-7.172-7.174zm10.81 24.37-0.0039 0.0039c-1.491 0-2.703 1.366-2.703 3.047v26.17c0 2.377-1.928 4.971-4.303 4.971h-37.32c-2.375 0-4.301-2.594-4.301-4.971v-4.838c0-1.683-1.212-3.047-2.703-3.047s-2.701 1.364-2.701 3.047v8.062a7.179 7.179 0 0 0 7.174 7.174l42.38-2e-3a7.175 7.175 0 0 0 7.174-7.172v-29.4c0-1.681-1.21-3.047-2.701-3.047z" fill="url(#a)"/>
 <path transform="translate(0) scale(1) translate(0) scale(1) translate(.0079 .001188) scale(1) translate(5e-4)" d="m31.73 16.27c-8.495 0-15.47 6.971-15.47 15.47 0 8.495 6.971 15.47 15.47 15.47 8.495 0 15.47-6.971 15.47-15.47 0-8.495-6.971-15.47-15.47-15.47zm0 1.82c7.496 0 13.65 6.158 13.65 13.65 0 7.496-6.158 13.65-13.65 13.65-7.496 0-13.65-6.158-13.65-13.65 0-7.496 6.158-13.65 13.65-13.65z" fill="url(#a)"/>
 <path transform="translate(0) scale(1) translate(0) scale(1) translate(.0079 .001188) scale(1) translate(5e-4)" d="m31.73 15.74c-8.787 0-16 7.213-16 16s7.213 16 16 16 16.01-7.213 16.01-16-7.215-16-16.01-16zm0 1.066c8.207 0 14.94 6.734 14.94 14.94 0 8.207-6.734 14.94-14.94 14.94-8.207 0-14.94-6.732-14.94-14.94 0-8.207 6.734-14.94 14.94-14.94zm0 0.754c-7.784 0-14.18 6.395-14.18 14.18 0 7.784 6.395 14.18 14.18 14.18 7.784 0 14.18-6.395 14.18-14.18 0-7.784-6.397-14.18-14.18-14.18zm0 1.066c7.204 0 13.12 5.917 13.12 13.12 0 7.204-5.917 13.12-13.12 13.12-7.204 0-13.12-5.917-13.12-13.12 0-7.204 5.917-13.12 13.12-13.12z" fill="url(#a)"/>
 <path transform="translate(0) scale(1) translate(0) scale(1) translate(.0079 .001188) scale(1) translate(5e-4)" d="m35.92 21.06a0.9999 0.9999 0 0 0-0.373 1.934 9.999 9.999 0 0 1 3.18 2.145 9.999 9.999 0 0 1 2.145 3.18 0.9996 0.9996 0 1 0 1.842-0.7773 12 12 0 0 0-2.572-3.814l-0.001953-0.001953a12 12 0 0 0-3.811-2.572 0.9999 0.9999 0 0 0-0.4062-0.0918h-0.001953zm-3.92 3.939c-3.859 0-6.998 3.14-6.998 7s3.138 7 6.998 7 7-3.14 7-7-3.14-7-7-7zm-0.06641 1.93c2.757 0 5 2.243 5 5s-2.243 5-5 5-5-2.243-5-5 2.243-5 5-5zm-9.654 7.209 0.001953 0.001953a0.9994 0.9994 0 0 0-0.8613 1.389c0.6039 1.427 1.466 2.712 2.57 3.814s2.387 1.966 3.814 2.57a1 1 0 1 0 0.7793-1.842c-1.19-0.504-2.26-1.224-3.18-2.143a9.999 9.999 0 0 1-2.146-3.182 0.9994 0.9994 0 0 0-0.9785-0.6094z" fill="url(#b)"/>
 <path transform="translate(0) scale(1) translate(0) scale(1) translate(.0079 .001188) scale(1) translate(5e-4)" d="m32 29.07c-1.617 0-2.932 1.315-2.932 2.932s1.315 2.934 2.932 2.934 2.934-1.317 2.934-2.934-1.317-2.932-2.934-2.932zm2e-3 1.863a1.069 1.069 0 0 1-2e-3 2.137 1.069 1.069 0 1 1 2e-3 -2.137z" fill="url(#a)"/>
</svg>
