<svg version="1.1" viewBox="0 0 64 64" xmlns="http://www.w3.org/2000/svg">
 <defs>
  <linearGradient id="a" y1="1">
   <stop stop-color="#f00" offset="0"/>
   <stop stop-color="#ff0086" offset="1"/>
  </linearGradient>
 </defs>
 <path transform="translate(.00185 -4e-4) scale(1) translate(-3e-5 .000588)" d="m19.64 5.428v3.092h3.064v3.09h-3.064v3.092h3.064v3.09h-3.064v3.09h3.064v3.088h-3.066v3.094h3.066v0.05859h2.059v-0.05859h-2.033v-3.094h2.033v-0.9883c0-0.7168 0.1064-1.426 0.3106-2.102h-2.344v-3.09h3.066v-3.084h3.086v1.604c0.04255-0.0228 0.08598-0.04433 0.1289-0.06641 0.4898-0.2552 1.007-0.4481 1.545-0.5859 0.4662-0.1194 0.9423-0.2017 1.42-0.2422v-0.707h-3.088l-0.0059-3.092h-3.086v3.088h-3.066v-3.094h3.066v-3.086h3.086v3.092h3.094v-3.092h-3.088l-0.0059-3.092h-3.086v3.088h-3.066v-3.092zm-6.176 0.00195v3.092h3.06v3.09h-3.062v3.092h3.06v3.09h-3.06v3.094h3.06v3.084h-3.06v3.094h3.06v3.086h-3.06v3.094h3.06v3.088h-3.06v3.092h3.06v3.088h-3.06v3.094h3.06v3.086h-3.06v3.094h3.06v3.088h-3.088v3.094h3.059v3.088h3.092v-3.088h-3.059v-3.094h3.086v3.088h3.066v3.086h3.094l-2e-3 -3.086h-3.066v-3.096h3.066v3.096h3.086v3.086h3.094v-3.086h-3.088l-0.0059-3.096h-3.06v-3.082h3.088v3.086h3.094v-3.086h-3.088l-0.0059-3.094h-3.088v3.09h-3.062v-3.094h3.062v-1.566h-3.092v1.566h-3.064v3.094h3.064l-2e-3 3.086h-3.092v-3.08h-3.059v-3.094h3.059v-2.477c-0.1648-0.1818-0.304-0.3865-0.416-0.6074h-2.643v-3.096h2.348v-3.088h-2.348v-3.092h2.348v-3.088h-2.348v-3.092h2.348v-0.2754c0-0.7119 0.2695-1.362 0.7129-1.852v-0.9609h-3.059v-3.094h3.059v-3.084h-3.059v-3.094h3.059v-3.088h-3.059v-3.092h3.059v-3.092h-3.058v-3.092zm15.42 43.26h3.094v-1.57h-3.094zm3.094 6.18v3.096h3.06v3.086h3.094v-3.086h-3.06v-3.096h3.086v-3.086h-3.059v-3.094h3.059v-1.57h-3.092v1.57h-3.06v3.094h3.06v3.086zm0.02734-49.44v3.092h3.06v3.09h-3.06v3.092h3.06v1.096c0.1923 0.06759 0.3823 0.1433 0.5684 0.2266 0.5727 0.2553 1.115 0.5718 1.619 0.9512 0.3143 0.2366 0.6163 0.4898 0.9043 0.7559v-3.025h-3.059v-3.094h3.059v-3.09h-3.059v-3.09zm6.18 0v3.092h3.06v3.09h-3.06v3.092h3.06v3.09h-3.022c0.2262 0.2121 0.4428 0.432 0.6504 0.6602 0.276 0.3105 0.5186 0.6432 0.7188 1.002 0.2069 0.3585 0.3844 0.7275 0.5293 1.113 0.04123 0.1032 0.08083 0.2088 0.1172 0.3144h1.006v3.086h-0.6191v3.094h0.6191v0.05273h1.107c0.7797 0 1.48 0.3234 1.982 0.8438v-0.8965h-3.059v-3.094h3.059v-3.086h-3.059v-3.092h3.059v-3.088h-3.059v-3.094h3.059v-3.088h-3.059v-3.092zm6.182 0v3.092h3.06v3.09h-3.06v3.092h3.06v3.09h-3.06v3.092h3.06v3.086h-3.06v3.094h3.06v3.086h-2.312v3.094h2.312v3.088h-2.312v3.092h2.312v3.088h-2.312v1.852c0 0.4467-0.1064 0.8674-0.2949 1.24h2.607v3.088h-3.06v3.094h3.06v3.082h-3.086v3.096h3.059v3.086h3.092v-3.086h-3.059l-0.0059-3.09h3.088v3.094h3.088v3.086h3.227v-3.086h-3.223v-3.094h-3.086v-3.088h-3.06l-0.0039-3.094h3.064v-3.088h-3.06l-0.0039-3.092h3.064v-3.088h-3.06l-0.0039-3.092h3.064v-3.088h-3.06l-0.0039-3.094h3.064v-3.086h-3.059l-0.0039-3.094h3.062v-3.086h-3.06l-0.0039-3.092h3.062v-3.09h-3.059l-0.0039-3.092h3.062v-3.09h-3.06l-0.0039-3.092zm6.172 0.00977v3.092h3.088v3.092h-3.088v3.092h3.088v3.088h-3.088v3.094h3.088v3.086h-3.088v3.092h3.088v3.086h-3.088v3.094h3.088v3.088h-3.088v3.092h3.088v3.088h-3.088v3.092h3.088v3.088h-3.088v3.096h3.088v3.086h3.227v-3.086h-3.221v-3.096h3.221v-3.088h-3.221v-3.092h3.223v-3.088h-3.223v-3.092h3.223v-3.088h-3.223v-3.094h3.223v-3.086h-3.223v-3.092h3.223v-3.086h-3.223v-3.094h3.223v-3.088h-3.223v-3.092h3.223v-3.092h-3.223v-3.092zm-43.37 0.02929v3.094h3.041v3.06h3.215v-3.09h-3.164v-3.06zm0 6.186v3.09h3.041v3.059h3.215v-3.088h-3.164v-3.06zm18.62 6.141v1.455c0.169-0.2817 0.3588-0.5537 0.5664-0.8125 0.1819-0.2247 0.3729-0.438 0.5723-0.6426zm-18.62 0.03711v3.092h3.041v3.059h3.215v-3.088h-3.164v-3.06zm0 6.182v3.088h3.041v3.06h3.215v-3.088h-3.164v-3.06zm-0.00195 6.178v3.094h3.043v3.055h3.215v-3.086h-3.164v-3.059zm0 6.18v3.094h3.043v3.059h3.215v-3.09h-3.164v-3.059zm0 6.18v3.094h3.043v3.059h3.215v-3.088h-3.164v-3.06zm37.17 3.725c-0.5018 0.5202-1.205 0.8438-1.984 0.8438h-1.107v1.57h-3.06v3.092h3.06v3.088h-3.086v3.096h3.059v3.086h3.096v-3.086h-3.062v-3.096h3.086v-3.086h-3.06v-3.094h3.06zm-37.17 2.451v3.094h3.043v3.057h3.215v-3.088h-3.164v-3.06zm-0.02734 6.184v3.092h3.043v3.057h3.215v-3.086h-3.164v-3.062z" fill="url(#a)" opacity=".3"/>
 <path transform="translate(.00185 -4e-4) scale(1) translate(-3e-5 .000588)" d="m53.19 0 2e-3 0.001953-0.01172 0.001953-42.37 0.003906c-3.958 0-7.17 3.214-7.17 7.172v8.06c0 1.682 1.209 3.045 2.699 3.045 1.491 0 2.701-1.362 2.701-3.045v-4.838c0-2.376 1.928-4.971 4.303-4.971h37.31c2.374 0 4.301 2.594 4.301 4.971v26.16c0 1.68 1.213 3.049 2.703 3.049s2.699-1.367 2.699-3.049v-29.39c1e-6 -3.956-3.21-7.17-7.166-7.172zm-46.84 25.9v0.0039l-0.00586 0.0078c-1.491 0-2.701 1.362-2.701 3.045v27.86c0 3.958 3.214 7.172 7.172 7.172h23.89c1.491 0 2.699-1.367 2.699-3.049s-2.699-2.381-2.699-2.381h-21.35c-2.374 0-4.303-2.594-4.303-4.971v-24.64c0-1.682-1.211-3.047-2.701-3.047zm51.3 19.82c-1.491 0-2.701 1.362-2.701 3.045v4.838c0 2.376-1.926 4.971-4.301 4.971-1.35 0.0056-3.069-0.0066-4.053 0-0.9831 0.0065-2.451 0.6963-2.451 2.379 0 1.68 1.212 3.047 2.703 3.047h6.33c3.958 0 7.172-3.214 7.172-7.172v-8.059c0-1.682-1.209-3.047-2.699-3.047z" fill="url(#a)"/>
 <path transform="translate(.00185 -4e-4) scale(1) translate(-3e-5 .000588)" d="m31.99 33.32a2.528 2.528 0 0 0-1.262 4.719v2.027a0.8436 0.8436 0 0 0 0.8438 0.8418h0.8418c0.4657 0 0.8438-0.3768 0.8438-0.8418v-2.027a2.528 2.528 0 0 0-1.266-4.719z" fill="url(#a)" opacity=".451"/>
 <path transform="translate(.00185 -4e-4) scale(1) translate(-3e-5 .000588)" d="m32.28 15.39 0.0039 2e-3c-0.5794 0.02759-1.162 0.1169-1.728 0.2617-0.538 0.138-1.055 0.3308-1.545 0.5859-0.4966 0.2552-0.9666 0.5592-1.393 0.918-0.4621 0.3863-0.8761 0.8093-1.256 1.277-1.035 1.29-1.602 2.888-1.602 4.543v4.141h-3.104c-1.524 0-2.762 1.234-2.762 2.758v14.49c0 1.524 1.238 2.76 2.762 2.76h20.69c1.524 0 2.762-1.236 2.762-2.76v-3.447a1.381 1.381 0 0 0-2.762 0v2.066a1.38 1.38 0 0 1-1.381 1.381h-15.18v-5.15c0-0.5828-0.4645-1.057-1.035-1.057-0.5711 0-1.033 0.4726-1.033 1.057v5.15h-0.6914a1.38 1.38 0 0 1-1.379-1.381v-11.73a1.38 1.38 0 0 1 1.379-1.381h17.93a1.38 1.38 0 0 1 1.381 1.381v2.07a1.38 1.38 0 0 0 2.76 0v-3.451c0-1.524-1.236-2.758-2.76-2.758h-1.728v-4.152c-0.0069-0.407-0.05496-0.8124-0.1445-1.213-0.08967-0.4001-0.2076-0.7994-0.3594-1.18-0.1449-0.3863-0.3224-0.7591-0.5293-1.117-0.2-0.3587-0.4426-0.6914-0.7188-1.002-0.4898-0.538-1.032-1.035-1.619-1.477-0.5036-0.3794-1.046-0.6958-1.619-0.9512-0.5242-0.2345-1.078-0.4072-1.644-0.5176-0.5604-0.1026-1.128-0.1433-1.695-0.1172zm0.1328 2.762h0.0079c0.3518-0.02069 0.7084 0.0063 1.059 0.06836a5.036 5.036 0 0 1 1.033 0.3242c0.3794 0.1724 0.7474 0.3863 1.078 0.6348 0.4484 0.338 0.861 0.718 1.232 1.125 0.1449 0.1586 0.2698 0.3313 0.373 0.5176 0.138 0.2414 0.255 0.4909 0.3516 0.7461 0.1035 0.2552 0.1801 0.5219 0.2422 0.791 0.0483 0.2069 0.07617 0.4151 0.07617 0.6289v4.133h-10.35v-4.141a4.484 4.484 0 0 1 0.9922-2.812c0.2621-0.3242 0.5519-0.6225 0.8691-0.8848 0.269-0.2276 0.5655-0.4273 0.8828-0.5859 0.3104-0.1586 0.6424-0.2836 0.9805-0.373 0.3794-0.09657 0.7714-0.1512 1.172-0.1719zm-7.721 16.56a1.035 1.035 0 0 0-0.9629 1.035 1.036 1.036 0 0 0 2.068-2e-3 1.035 1.035 0 0 0-1.106-1.033zm18.94 1.037a1.38 1.38 0 0 0-1.285 1.377 1.38 1.38 0 0 0 2.758 0 1.38 1.38 0 0 0-1.473-1.377z" fill="url(#a)"/>
 <path transform="translate(.00185 -4e-4) scale(1) translate(-3e-5 .000588)" d="m32.01 32.56c-1.629-6.82e-4 -2.829 1.129-3.18 2.438-0.304 1.135 0.1472 2.39 1.156 3.256v1.812c7.15e-4 0.875 0.7252 1.601 1.602 1.602h0.8418c0.8762 0 1.606-0.7248 1.606-1.602v-1.812c1.01-0.8654 1.46-2.121 1.156-3.256-0.3504-1.308-1.551-2.437-3.18-2.438zm2e-3 1.52h2e-3c0.9602-0.0015 1.516 0.5802 1.711 1.309 0.1953 0.729 0.0042 1.513-0.8281 1.992l-0.3789 0.2207v2.465c0 0.05439-0.02906 0.08398-0.08398 0.08398h-0.8418c-0.0551-4.1e-5 -0.08524-0.02949-0.08594-0.08398v-2.465l-0.3789-0.2207c-0.8324-0.4787-1.024-1.263-0.8281-1.992 0.1953-0.729 0.7524-1.311 1.713-1.309z" fill="url(#a)"/>
</svg>
