<svg version="1.1" viewBox="0 0 64 64" xmlns="http://www.w3.org/2000/svg" xmlns:xlink="http://www.w3.org/1999/xlink">
 <defs>
  <linearGradient id="a" x1="1" x2="0" y1="1">
   <stop stop-color="#9000ff" offset="0"/>
   <stop stop-color="#ff0cff" offset="1"/>
  </linearGradient>
  <linearGradient id="c" x1="33.25" x2="10.16" y1="33" y2="9.921" gradientTransform="matrix(.8446 0 0 .865 4.641 4.65)" gradientUnits="userSpaceOnUse" xlink:href="#a"/>
  <linearGradient id="b" x1="54.72" x2="22.24" y1="53.22" y2="20.74" gradientTransform="matrix(.843 0 0 .8667 4.641 4.65)" gradientUnits="userSpaceOnUse" xlink:href="#a"/>
 </defs>
 <path transform="translate(0) scale(1) translate(0) scale(1) translate(-2e-5) scale(1) translate(.008199 .003999) scale(.9998) translate(-2e-4) scale(1)" d="m10.8 0c-3.959 0-7.174 3.215-7.174 7.174v8.064c0 1.683 1.21 3.047 2.701 3.047s2.703-1.364 2.703-3.047v-4.838c0-2.377 1.928-4.973 4.303-4.973h37.32c2.375 0 4.303 2.596 4.303 4.973v26.17c0 1.681 1.212 3.049 2.703 3.049s2.701-1.367 2.701-3.049v-29.4c0-3.959-3.215-7.174-7.174-7.174zm-4.473 25.91c-1.491 0-2.701 1.364-2.701 3.047v27.87c0 3.959 3.215 7.174 7.174 7.174h23.9c1.491 0 2.701-1.365 2.701-3.047 0-1.683-2.701-2.381-2.701-2.381h-21.36c-2.375 0-4.305-2.596-4.305-4.973v-24.65c0-1.683-1.212-3.047-2.703-3.047zm51.34 19.81c-1.491 0-2.703 1.364-2.703 3.047v4.838c0 2.377-1.928 4.973-4.303 4.973-1.35 0.0056-3.069-0.0066-4.053 0-0.9835 0.0065-2.451 0.696-2.451 2.379 0 1.681 1.211 3.049 2.703 3.049h6.334c3.959 0 7.174-3.215 7.174-7.174v-8.064c0-1.683-1.21-3.047-2.701-3.047z" fill="url(#b)" stroke-width=".8547"/>
 <path transform="translate(0) scale(1) translate(0) scale(1) translate(-2e-5) scale(1) translate(.008199 .003999) scale(.9998)" d="m24.47 13.23-2.843 0.0034a2.8 2.8 0 0 0-2.801 2.774 2.795 2.795 0 0 0-3.803 1.037l-1.422 2.464a2.8 2.8 0 0 0 1.005 3.811 2.795 2.795 0 0 0-1.005 3.811l1.422 2.461a2.801 2.801 0 0 0 3.803 1.038 2.804 2.804 0 0 0 1.741 2.564 6.205 6.205 0 0 1 0.8393-3.154l0.1282-0.2197a2.804 2.804 0 0 0-4.079-1.653l-1.407-2.438c1.848-1.081 1.848-3.754 0-4.834l1.407-2.438a2.8 2.8 0 0 0 4.182-2.415h2.815a2.8 2.8 0 0 0 4.188 2.415l1.407 2.438c0.7821-0.4368 1.717-0.7265 2.671-0.8975a2.821 2.821 0 0 0-0.2274-0.4949l-1.422-2.462a2.795 2.795 0 0 0-3.799-1.037 2.795 2.795 0 0 0-2.799-2.774zm-1.419 7.283a2.815 2.815 0 0 0 0 5.629 2.815 2.815 0 0 0 0-5.629" fill="url(#c)" stroke-width=".8547"/>
 <path transform="translate(0) scale(1) translate(0) scale(1) translate(-2e-5) scale(1) translate(.008199 .003999) scale(.9998)" d="m35 22.62a3.436 3.436 0 0 0-3.437 3.439 0.6231 0.6231 0 0 1-0.9385 0.5428 3.439 3.439 0 0 0-4.696 1.256l-2.077 3.597a3.439 3.439 0 0 0 1.257 4.698 0.6248 0.6248 0 0 1 0 1.082 3.439 3.439 0 0 0-1.257 4.699l2.075 3.594a3.439 3.439 0 0 0 4.699 1.256 0.6248 0.6248 0 0 1 0.9385 0.5436 3.439 3.439 0 0 0 3.437 3.439h4.153a3.44 3.44 0 0 0 3.439-3.442 0.6248 0.6248 0 0 1 0.9385-0.5393 3.439 3.439 0 0 0 4.699-1.261l2.075-3.596a3.439 3.439 0 0 0-1.261-4.694 0.6231 0.6231 0 0 1 0-1.082 3.436 3.436 0 0 0 1.261-4.694l-2.077-3.599a3.436 3.436 0 0 0-4.699-1.257 0.624 0.624 0 0 1-0.9351-0.5428 3.436 3.436 0 0 0-3.439-3.439zm0 2.815h4.153a0.624 0.624 0 0 1 0.6231 0.6231c0 2.646 2.866 4.304 5.157 2.98a0.6197 0.6197 0 0 1 0.853 0.2265l2.077 3.599a0.6197 0.6197 0 0 1-0.2274 0.8496c-2.293 1.325-2.292 4.633 0 5.957a0.624 0.624 0 0 1 0.2308 0.8505l-2.076 3.594a0.6265 0.6265 0 0 1-0.8547 0.2308c-2.293-1.323-5.16 0.3308-5.16 2.976a0.624 0.624 0 0 1-0.6222 0.6274h-4.154a0.624 0.624 0 0 1-0.6222-0.624c0-2.648-2.868-4.303-5.16-2.98a0.624 0.624 0 0 1-0.8547-0.2274l-2.075-3.594a0.624 0.624 0 0 1 0.2274-0.8547h0.0034c2.289-1.321 2.293-4.633 0-5.957a0.624 0.624 0 0 1-0.2273-0.853l2.075-3.596a0.624 0.624 0 0 1 0.8547-0.2308c2.293 1.325 5.157-0.3299 5.157-2.975a0.6197 0.6197 0 0 1 0.6231-0.6231m1.685 5.51a5.752 5.752 0 0 0-5.359 5.738 5.752 5.752 0 0 0 11.5 0 5.752 5.752 0 0 0-6.142-5.738zm0.3923 2.804a2.937 2.937 0 0 1 0 5.871 2.937 2.937 0 1 1 0-5.871" fill="url(#b)" stroke-width=".8547"/>
</svg>
