<svg version="1.1" viewBox="0 0 64 64" xmlns="http://www.w3.org/2000/svg" xmlns:xlink="http://www.w3.org/1999/xlink">
 <defs>
  <linearGradient id="a" y1="1">
   <stop stop-color="#cbcbcb" offset="0"/>
   <stop stop-color="#fafafa" offset=".9973"/>
  </linearGradient>
  <linearGradient id="b" x1="32.38" x2="57.01" y1="38.33" y2="13.7" gradientTransform="matrix(.7159 0 0 1.397 -4.411 -.8878)" gradientUnits="userSpaceOnUse" xlink:href="#a"/>
 </defs>
 <path transform="translate(0) scale(1) translate(0) scale(1) translate(0) scale(1) translate(0) scale(1) translate(0) scale(1) translate(0) scale(1) translate(-.00025) scale(1) translate(0 .004)" d="M30.22-.004 10.28 0a7.243 7.243 0 0 0-7.24 7.24v49.22c0 3.996 3.244 7.535 7.24 7.535H32a2.894 2.894 0 0 0 0-5.788H13.18c-2.398 0-4.344-2.243-4.344-4.641v-43.43a4.344 4.344 0 0 1 4.344-4.342h17.71c.8 0 1.89.472 2.438 1.055l.313.334c.472.503.974.946 1.416 1.508l19.44 24.7c.964 1.034 2.986.714 3.862-.103.877-.818 1.333-2.814.37-3.848l-1.072-1.197-19.61-24.57-.496-.524a7 7 0 0 0-.723-.658C35.06 1.068 32.303-.003 30.217-.003zm23.5.002L45.036 0c-1.598 0-2.896 1.298-2.896 2.896s1.298 2.896 2.896 2.896h5.787a4.345 4.345 0 0 1 4.346 4.342v5.793a2.894 2.894 0 0 0 5.788 0v-8.69a7.24 7.24 0 0 0-7.238-7.24zm4.346 45.18a2.896 2.896 0 0 0-2.896 2.894v5.793a4.344 4.344 0 0 1-4.344 4.342h-5.789a2.895 2.895 0 1 0 0 5.789h8.686a7.24 7.24 0 0 0 7.238-7.236v-8.69a2.894 2.894 0 0 0-2.894-2.893z" fill="url(#a)"/>
 <path transform="translate(0) scale(1) translate(0) scale(1) translate(0) scale(1) translate(0) scale(1) translate(0) scale(1) translate(0) scale(1)" d="m23.55 18.25-2.129 2.199 2.141 2.197 7.907 0.013 2.296-2.19-2.251-2.22zm-2.554 3.528-2.221 2.251v7.969l2.197 2.129 2.199-2.141 0.013-7.911zm13.23 0-2.225 2.251v7.969l2.199 2.129 2.199-2.141 8e-3 -7.911zm-13.23 15-2.221 2.251v7.969l2.197 2.129 2.199-2.141 0.013-7.911zm13.23 0-2.225 2.251v7.969l2.199 2.129 2.199-2.141 8e-3 -7.911zm-10.68 11.46-2.129 2.199 2.141 2.199 7.907 0.013 2.296-2.19-2.251-2.224z" fill="url(#b)"/>
</svg>
