<svg version="1.1" viewBox="0 0 64 64" xmlns="http://www.w3.org/2000/svg" xmlns:xlink="http://www.w3.org/1999/xlink">
 <defs>
  <linearGradient id="a" y1="1">
   <stop stop-color="#9717f2" offset="0"/>
   <stop stop-color="#ff00b0" offset="1"/>
  </linearGradient>
  <linearGradient id="c" x2="16" y1="16" y2="-.0004501" gradientTransform="matrix(2.293 0 0 2.293 13.66 13.66)" gradientUnits="userSpaceOnUse" xlink:href="#a"/>
  <linearGradient id="b" x1="3" x2="7" y1="10" y2="6" gradientTransform="matrix(2.293 0 0 2.293 13.66 13.66)" gradientUnits="userSpaceOnUse" xlink:href="#a"/>
  <linearGradient id="d" x1="-3.512" x2="19.87" y1="20.99" y2="-4.524" gradientTransform="matrix(2.293 0 0 2.293 13.66 13.66)" gradientUnits="userSpaceOnUse" xlink:href="#a"/>
 </defs>
 <path transform="translate(-2e-5) scale(1) translate(.008199 .003999) scale(.9998) translate(-2e-4) scale(1)" d="m10.8 0c-3.959 0-7.174 3.215-7.174 7.174v8.064c0 1.683 1.21 3.047 2.701 3.047s2.703-1.364 2.703-3.047v-4.838c0-2.377 1.928-4.973 4.303-4.973h37.32c2.375 0 4.303 2.596 4.303 4.973v26.17c0 1.681 1.212 3.049 2.703 3.049s2.701-1.367 2.701-3.049v-29.4c0-3.959-3.215-7.174-7.174-7.174zm-4.473 25.91c-1.491 0-2.701 1.364-2.701 3.047v27.87c0 3.959 3.215 7.174 7.174 7.174h23.9c1.491 0 2.701-1.365 2.701-3.047 0-1.683-2.701-2.381-2.701-2.381h-21.36c-2.375 0-4.305-2.596-4.305-4.973v-24.65c0-1.683-1.212-3.047-2.703-3.047zm51.34 19.81c-1.491 0-2.703 1.364-2.703 3.047v4.838c0 2.377-1.928 4.973-4.303 4.973-1.35 0.0056-3.069-0.0066-4.053 0-0.9835 0.0065-2.451 0.696-2.451 2.379 0 1.681 1.211 3.049 2.703 3.049h6.334c3.959 0 7.174-3.215 7.174-7.174v-8.064c0-1.683-1.21-3.047-2.701-3.047z" fill="url(#d)" stroke-width="2.293"/>
 <path transform="translate(-2e-5) scale(1) translate(.008199 .003999) scale(.9998)" d="m34.23 13.66a2.293 2.293 0 0 0-0.4884 0.06878l-18.34 4.585a2.293 2.293 0 0 0-1.738 2.224v22.93a2.293 2.293 0 0 0 1.738 2.224l18.34 4.585a2.293 2.293 0 0 0 2.848-2.224v-2.293h4.585c1.683 0 2.903-1.096 3.698-2.476a2.293 2.293 0 0 0 0.8873 0.1834h2.293a2.293 2.293 0 0 0 2.293-2.293v-4.585a2.293 2.293 0 0 0-0.3095-1.146 2.293 2.293 0 0 0 0.3095-1.146v-4.585a2.293 2.293 0 0 0-0.3095-1.146 2.293 2.293 0 0 0 0.3095-1.146v-4.585a2.293 2.293 0 0 0-2.293-2.293h-0.963c-0.8185-1.286-2.011-2.293-3.623-2.293h-6.878v-2.293a2.293 2.293 0 0 0-2.362-2.293zm0.06878 2.293v32.1l-18.34-4.585v-22.93zm2.293 4.585h6.878c1.268 0 2.293 1.023 2.293 2.293h2.293v4.585h-4.585v13.76c0 1.27-1.025 2.293-2.293 2.293h-4.585v-2.293h4.585v-2.293h-4.585v-2.293h4.585v-2.293h-4.585v-2.293h4.585v-2.293h-4.585v-2.293h4.585v-2.293h-4.585zm9.171 9.171h2.293v4.585h-2.293zm0 6.878h2.293v4.585h-2.293z" fill="url(#c)" stroke-width="2.293"/>
 <path transform="translate(-2e-5) scale(1) translate(.008199 .003999) scale(.9998)" d="m20.54 27.42v9.171h2.293v-6.878l4.585 6.878h2.293v-9.171h-2.293v5.732l-3.439-5.732z" fill="url(#b)" stroke-width="2.293"/>
</svg>
