<svg version="1.1" viewBox="0 0 64 64" xmlns="http://www.w3.org/2000/svg">
 <defs>
  <linearGradient id="a" y1="1">
   <stop stop-color="#46d9ff" offset="0"/>
   <stop stop-color="#ff23ff" offset=".5"/>
   <stop stop-color="#ffd93f" offset="1"/>
  </linearGradient>
 </defs>
 <path transform="translate(-0) scale(1) translate(-0) scale(1) translate(-2e-5) scale(1) translate(.00105 9.4e-5) scale(.9998) translate(.008509 .003906) scale(.9999)" d="m53.19-0.003906-42.39 0.003906c-3.959 0-7.174 3.215-7.174 7.174v8.064c0 1.683 1.21 3.047 2.701 3.047s2.703-1.364 2.703-3.047v-4.838c0-2.377 1.928-4.973 4.303-4.973h37.32c2.375 0 4.303 2.596 4.303 4.973v26.17c0 1.681 1.212 3.049 2.703 3.049s2.701-1.367 2.701-3.049v-29.4c0-3.959-3.215-7.174-7.174-7.174zm-46.85 25.91-0.00586 0.0078c-1.491 0-2.701 1.364-2.701 3.047v27.87c0 3.959 3.215 7.176 7.174 7.176h23.9c1.491 0 2.701-1.367 2.701-3.049 0-1.683-2.701-2.381-2.701-2.381h-21.36c-2.375 0-4.305-2.596-4.305-4.973v-24.65c0-1.683-1.212-3.047-2.703-3.047zm51.33 19.82c-1.491 0-2.703 1.364-2.703 3.047v4.838c0 2.377-1.928 4.973-4.303 4.973-1.35 0.0056-3.069-0.0066-4.053 0-0.9835 0.0065-2.451 0.6959-2.451 2.379 0 1.681 1.211 3.049 2.703 3.049h6.334c3.959 0 7.174-3.215 7.174-7.174v-8.064c0-1.683-1.21-3.047-2.701-3.047z" fill="url(#a)"/>
 <path transform="translate(-0) scale(1) translate(-0) scale(1) translate(-2e-5) scale(1) translate(.00105 9.4e-5) scale(.9998) translate(.008509 .003906) scale(.9999)" d="m46.44 14.35s-4.861 1.684-8.658 0.4707c-0.9578-0.308-1.943-0.315-2.877-0.08399-2.82 0.645-5.158 2.998-5.158 2.998l0.05469 0.08398 4.484 15.31c-3.186-1.603-7.778-1.191-11.59 1.316-4.88 3.23-6.598 8.788-3.75 12.36 2.82 3.566 9.106 3.799 13.99 0.5644 3.894-2.561 6.035-6.595 5.246-9.926-0.02887-0.1011-0.05511-0.1802-0.08398-0.2812l-4.316-15.31 0.0098-0.0078v-0.0098c0.179-0.1486 1.498-0.6423 5.434-0.8945 4.317-0.284 7.221-6.588 7.221-6.588z" fill="url(#a)"/>
</svg>
