<svg version="1.1" viewBox="0 0 64 64" xmlns="http://www.w3.org/2000/svg">
 <defs>
  <linearGradient id="a" y2="1">
   <stop stop-color="#0078ff" offset="0"/>
   <stop stop-color="#00fffa" offset="1"/>
  </linearGradient>
 </defs>
 <path transform="translate(-0) scale(1) translate(-0) scale(1) translate(-0) scale(1) translate(-0) scale(1) translate(-0) scale(1) translate(-0) scale(1) translate(-0) scale(1) translate(-2e-5) scale(1) translate(.00105 9.4e-5) scale(.9998) translate(.008509 .003906) scale(.9999)" d="m53.19-0.003906-42.39 0.003906c-3.959 0-7.174 3.215-7.174 7.174v8.064c0 1.683 1.21 3.047 2.701 3.047s2.703-1.364 2.703-3.047v-4.838c0-2.377 1.928-4.973 4.303-4.973h37.32c2.375 0 4.303 2.596 4.303 4.973v26.17c0 1.681 1.212 3.049 2.703 3.049s2.701-1.367 2.701-3.049v-29.4c0-3.959-3.215-7.174-7.174-7.174zm-46.85 25.91-0.00586 0.0078c-1.491 0-2.701 1.364-2.701 3.047v27.87c0 3.959 3.215 7.176 7.174 7.176h23.9c1.491 0 2.701-1.367 2.701-3.049 0-1.683-2.701-2.381-2.701-2.381h-21.36c-2.375 0-4.305-2.596-4.305-4.973v-24.65c0-1.683-1.212-3.047-2.703-3.047zm51.33 19.82c-1.491 0-2.703 1.364-2.703 3.047v4.838c0 2.377-1.928 4.973-4.303 4.973-1.35 0.0056-3.069-0.0066-4.053 0-0.9835 0.0065-2.451 0.6959-2.451 2.379 0 1.681 1.211 3.049 2.703 3.049h6.334c3.959 0 7.174-3.215 7.174-7.174v-8.064c0-1.683-1.21-3.047-2.701-3.047z" fill="url(#a)"/>
 <path transform="translate(-0) scale(1) translate(-0) scale(1) translate(-0) scale(1) translate(-0) scale(1) translate(-0) scale(1) translate(-0) scale(1) translate(-0) scale(1) translate(-2e-5) scale(1) translate(.00105 9.4e-5) scale(.9998) translate(.008509 .003906) scale(.9999)" d="m45.83 15.09s-4.658 1.609-8.297 0.4473c-0.9177-0.2951-1.863-0.2956-2.758-0.07422-2.702 0.618-4.943 2.873-4.943 2.873l0.05469 0.07422 4.299 14.67c-3.053-1.536-7.457-1.139-11.11 1.264-4.676 3.094-6.322 8.42-3.592 11.84 2.702 3.417 8.73 3.644 13.41 0.5449 3.731-2.453 5.782-6.318 5.025-9.514-0.02766-0.09684-0.05436-0.1766-0.08203-0.2734l-4.137-14.66c0.1061-0.1245 1.323-0.6182 5.215-0.8672 4.137-0.2721 6.918-6.318 6.918-6.318z" fill="url(#a)"/>
</svg>
