<svg version="1.1" viewBox="0 0 64 64" xmlns="http://www.w3.org/2000/svg">
 <defs>
  <linearGradient id="a" x1="1" x2="0" y1="1">
   <stop stop-color="#01ff4d" offset="0"/>
   <stop stop-color="#2fff00" offset="1"/>
  </linearGradient>
 </defs>
 <path transform="translate(.009199 .009599) scale(.9999) translate(.00081 .000494) scale(1)" d="m53.18 0-42.38 0.003906c-3.958 0-7.174 3.214-7.174 7.172v8.062c0 1.683 1.21 3.047 2.701 3.047s2.703-1.364 2.703-3.047v-4.836c0-2.376 1.926-4.973 4.301-4.973h37.31c2.374 0 4.303 2.596 4.303 4.973v26.16c0 1.681 1.212 3.049 2.703 3.049s2.699-1.367 2.699-3.049v-29.4c0-3.958-3.214-7.172-7.172-7.172zm-46.85 25.9-0.00391 0.0059c-1.491 0-2.701 1.364-2.701 3.047v27.86c0 3.958 3.216 7.172 7.174 7.172h23.9c1.491 0 2.701-1.365 2.701-3.047 0-1.683-2.701-2.381-2.701-2.381h-21.36c-2.374 0-4.305-2.594-4.305-4.971v-24.65c0-1.683-1.212-3.045-2.703-3.045zm51.33 19.81c-1.491 0-2.703 1.364-2.703 3.047v4.836c0 2.376-1.928 4.973-4.303 4.973-1.35 0.0056-3.067-0.0066-4.051 0-0.9833 0.0065-2.451 0.6962-2.451 2.379 0 1.681 1.211 3.049 2.703 3.049h6.332c3.958 0 7.172-3.216 7.172-7.174v-8.062c0-1.683-1.208-3.045-2.699-3.045z" fill="url(#a)"/>
 <path transform="translate(.009199 .009599) scale(.9999) translate(.00081 .000494) scale(1)" d="m43.03 21.65c-0.3658-0.0022-0.7297 0.04026-1.088 0.09961-0.6916 0.1142-1.525 0.3291-2.512 0.582l-6.078 1.564-0.2266 0.06055c-1.081 0.277-2.027 0.5214-2.766 1.08a4.578 4.578 0 0 0-1.467 1.887c-0.3569 0.8544-0.3538 1.832-0.3516 2.945v9.619c-1.275 0-2.846 0.2154-4.254 0.8887-1.461 0.6997-3.049 2.081-3.361 4.4-0.1696 1.267 0.1092 2.803 1.348 4.039 1.241 1.236 2.774 1.513 4.043 1.344 2.322-0.3123 3.707-1.901 4.408-3.357 0.6751-1.406 0.873-2.969 0.873-4.242v-9.272c0-0.4529 0.0025-0.6795 0.08008-0.8691a1.026 1.026 0 0 1 0.3223-0.4219c0.1633-0.1223 0.3817-0.1785 0.8203-0.291l9.48-2.441c0.6934-0.1776 1.042-0.2652 1.314-0.1836a1.026 1.026 0 0 1 0.5742 0.4473c0.1473 0.2446 0.1465 0.6002 0.1465 1.318v6.086c-1.275 0-2.844 0.214-4.25 0.8887-1.461 0.6997-3.048 2.081-3.359 4.4-0.1696 1.269 0.108 2.798 1.346 4.033a4.725 4.725 0 0 0 4.041 1.344c2.322-0.3096 3.709-1.897 4.41-3.354 0.6751-1.404 0.8711-2.971 0.8711-4.246v-11.51c0-1.018 0.0026-1.876-0.05859-2.574-0.06559-0.722-0.2078-1.449-0.6094-2.107a4.587 4.587 0 0 0-2.586-2 3.882 3.882 0 0 0-1.107-0.1602z" fill="url(#a)"/>
 <path transform="translate(.009199 .009599) scale(.9999) translate(.00081 .000494) scale(1)" d="m28.36 14.33a1.428 1.428 0 0 0-0.3809 0.07227l-3.789 1.262a2.86 2.86 0 0 0-1.953 2.711v6.975a4.289 4.289 0 1 0 1.904 3.566v-6.461l4.414-1.469a1.906 1.906 0 0 0 1.303-1.81v-3.416a1.43 1.43 0 0 0-1.502-1.428z" fill="url(#a)"/>
</svg>
