<svg version="1.1" viewBox="0 0 64 64" xmlns="http://www.w3.org/2000/svg" xmlns:xlink="http://www.w3.org/1999/xlink">
 <defs>
  <linearGradient id="a" y1="1">
   <stop stop-color="#8b00fc" offset="0"/>
   <stop stop-color="#ff33db" offset="1"/>
  </linearGradient>
  <linearGradient id="b" x1="7.544" x2="60.13" y1="57.72" y2="5.129" gradientTransform="matrix(.9453 0 0 1.058 .01317 -43.77)" gradientUnits="userSpaceOnUse" xlink:href="#a"/>
  <linearGradient id="d" x1="22.79" x2="44.2" y1="40.88" y2="21.27" gradientTransform="scale(.9068 1.103)" gradientUnits="userSpaceOnUse" xlink:href="#a"/>
  <linearGradient id="c" x1="39.77" x2="43.82" y1="31.39" y2="26.44" gradientTransform="scale(.7763 1.288)" gradientUnits="userSpaceOnUse" xlink:href="#a"/>
 </defs>
 <path transform="translate(0) scale(1)" d="m19.64 4.91v3.096h3.066l-0.001953 3.086h-3.092v-3.08h-3.061v-3.094h-0.0293-3.061v3.094h3.061v3.086h-3.088v3.094h3.061v3.086h-3.061v3.094h3.061v3.086h-3.09v3.094h3.061v3.086h-3.061v3.094h3.061v3.086h-3.088v3.094h3.061v3.09h2.916c-0.005611-0.03702-0.01062-0.07412-0.01562-0.1113-0.1292-0.9612-0.2481-1.955-0.3203-2.979h-2.547v-3.094h2.498c0.04488-1.06 0.1477-2.089 0.2715-3.086h-2.744v-3.092h3.061v-3.088h-3.059v-3.094h3.086v3.088h3.066v0.6543c0.3891-0.2222 0.8013-0.4095 1.23-0.5586v-0.0957h-1.205v-3.094h1.244c0.1087-1.108 0.4429-2.152 0.9551-3.086h-2.17v-3.094h3.066l-0.001953-3.086h-3.064v-3.094h3.064v3.094h3.086v2.58c0.9542-0.4037 2-0.6307 3.096-0.6367v-1.943h-3.09l-0.005859-3.094h-3.059v-3.082h3.088v3.086h3.092v-3.086h-3.088l-0.005859-3.094h-3.086v3.09h-3.064v-3.096h-0.02734-3.066zm12.34 6.186v3.094h3.061v2.533c0.3844 0.1565 0.7547 0.3415 1.107 0.5527h1.986v-3.086h-3.061v-3.094h3.088v-3.086h-3.061v-3.094h-0.0332-3.059v3.094h3.059v3.086h-3.088zm6.209-6.182v3.094h3.061v3.088h-3.086v3.094h3.061v3.086h-0.001953-3.061v1.699c0.3669 0.428 0.6902 0.895 0.9629 1.393h2.098v3.088h-1.145c0.02535 0.2597 0.03906 0.523 0.03906 0.7891v2.305h1.078v0.5664c1.098 0.5924 2.024 1.457 2.65 2.52h0.4453v-3.086h-3.062v-3.094h3.086v-3.086h-3.061v-3.094h3.064v-3.086h-3.062v-3.094h3.088v3.092h3.061v3.086h3.092v-3.086h-3.061l-0.005859-3.09h3.088v3.094h3.088v3.086h3.227v-3.086h-3.223v-3.094h-3.086v-3.086h-3.061l-0.003907-3.094h-0.0293-3.059v3.094h3.059v3.082h-3.086v-3.084h-3.062v-3.094h3.062l-3.094-0.001953h-3.061zm-27.98 0.01367h3.215-3.215zm40.33 0v3.094h3.088v3.086h3.225v-3.086h-3.219v-3.094h-0.00586-3.088zm-43.37 0.02539v3.092h3.043v3.057h3.215v-3.088h-3.164v-3.061h-3.094zm9.357 6.145h3.086v3.088h3.066v3.086h-0.001953-3.064v3.094h3.064l-0.001954 3.086h-3.092v-3.08h-3.059v-3.092h3.062v-3.088h-3.061v-3.094zm-9.385 0.03711v3.092h3.043v3.057h3.215v-3.086h-3.164v-3.062h-3.094zm18.63 6.141v1.781c0.5878-0.7039 1.292-1.308 2.082-1.781h-2.082zm18.57 0.001953v3.094h3.061v3.082h-3.086v3.094h3.059v3.086h3.092v-3.086h-3.059l-0.005859-3.09h3.088v3.094h3.088v3.086h3.227v-3.086h-3.223v-3.094h-3.086v-3.086h-3.061l-0.003906-3.094h-0.0293-3.061zm-34.16 0.009765h3.215-3.215zm40.33 0v3.094h3.088v3.086h3.227v-3.086h-3.221v-3.094h-0.00586-3.088zm-43.37 0.02539v3.092h3.043v3.057h3.215v-3.088h-3.164v-3.061h-3.094zm-0.02734 6.182v3.092h3.043v3.057h3.215v-3.086h-3.164v-3.061l-3.094-0.001953zm12.47 6.137v1.271c0.1442-0.4489 0.3374-0.874 0.5723-1.271h-0.5723zm24.73 0.00586v0.9805c0.1627 0.4333 0.2795 0.8897 0.3438 1.367 0.03323 0.2466 0.0664 0.4953 0.09766 0.7461h2.617v3.082h-2.346c0.01582 0.3698 0.02539 0.7435 0.02539 1.121 0 0.6692-0.02648 1.327-0.07226 1.973h2.367v3.086h3.092v-3.086h-3.061l-0.005859-3.09h3.088v3.094h3.088v3.086h3.229v-3.086h-3.225v-3.094h-3.086v-3.086h-3.059l-0.003906-3.094h-0.03125-3.059zm-34.16 0.009765h3.215-3.215zm40.33 0v3.094h3.088v3.086h3.225v-3.086h-3.219v-3.094h-0.005859-3.088zm-43.37 0.02539v3.092h3.043v3.059h3.217v-3.088h-3.164v-3.061l-3.096-0.001953zm-0.02734 6.182v3.094h3.043v3.057h3.217v3.088h3.061v3.086h-3.088v3.094h3.061v3.082h-3.059v3.094h3.061v3.086h0.003907 3.086l3.09-0.005859h-3.092v-3.08h-3.059v-3.088h3.061v-3.088h-3.059v-3.094h3.086v3.088h3.064v3.082h-3.064v3.094h3.064l-0.001953 3.086h0.001953 3.066 0.02539v-3.082h3.088v3.086h3.094v-3.086h-3.088l-0.005859-3.094h-3.086l-0.001953-3.086h-3.064v-3.094h3.064v3.094h3.088v3.086h3.094v-3.086h-3.088l-0.005859-3.094h-3.061v-0.4395c-0.008464-3.88e-4 -0.01693-0.001564-0.02539-0.001953-1.115-0.05213-2.16-0.3831-3.068-0.9238v1.365h-3.092v-3.08h-3.061v-3.096h-0.0293-3.061v-3.078h-3.164v-3.062l-3.096-0.001953zm37.55 6.143c-0.0764 0.504-0.208 0.9912-0.3887 1.453v1.643h3.059v3.082h-3.086v-3.084h-0.8945c-0.5887 0.7739-1.339 1.417-2.199 1.875v1.211h-3.086v3.094h3.061v3.082h-3.061v3.092h3.061v3.088h0.005859 3.086v-3.086h-3.061v-3.09h3.062v-3.086h-3.062v-3.094h3.088v3.092h3.061v3.086h-3.061v3.094h3.061v3.082h-3.086l3.086 0.003906h3.088 0.005859v-3.086h-3.061l-0.003906-3.094h3.062v-3.086h-3.061l-0.005859-3.09h3.088v3.094h3.088v3.086h3.227v-3.086h-3.223v-3.094h-3.086v-3.086h-3.059l-0.003906-3.096h-0.03125-2.67zm-34.55 0.01172h3.215-3.215zm40.33 0v3.094h3.088v3.086h3.225v-3.086h-3.219v-3.094h-0.005859-3.088zm-43.37 0.02539v3.092h3.043v3.057h3.215v-3.088h-3.164v-3.061h-3.094zm12.47 0.7539v2.299h1.141c-0.5156-0.6779-0.9076-1.456-1.141-2.299zm18.52 4.957c-1.013 0.04433-2.037 0.07789-3.092 0.09961v0.332h-3.09v3.094h3.061v3.082h-3.059v3.094h3.061v3.086h0.00586 3.086v-3.086h-3.059v-3.09h3.059v-3.086h-3.059v-3.094h3.086v-0.4316zm-6.182 0.4316v-0.3027c-1.07-9.49e-4 -2.094-0.01256-3.092-0.03516v0.3379h3.092zm-24.84 0.03906v3.092h3.043v3.057h3.215v-3.086h-3.164v-3.062h-3.094zm15.57 6.137h3.062v3.09h-3.062v-3.09zm27.8 0.01172v3.094h3.088v3.086h3.227v-3.086h-3.221v-3.094h-0.00586-3.088zm-43.37 0.02539v3.092h3.043v3.057h3.215v-3.088h-3.164v-3.061h-3.094zm-0.02734 6.182 3.094 0.001954-3.094-0.001954z" fill="url(#b)" opacity=".3"/>
 <path transform="translate(0) scale(1) translate(0) scale(1) translate(0) scale(1) translate(.00465 .0016) scale(1) translate(.00012 .000541) scale(1)" d="m53.19 0-0.01172 0.001953-42.37 0.003906c-3.958 0-7.17 3.214-7.17 7.172v8.06c0 1.682 1.209 3.045 2.699 3.045 1.491 0 2.701-1.362 2.701-3.045v-4.838c0-2.376 1.928-4.971 4.303-4.971h37.31c2.374 0 4.301 2.594 4.301 4.971v26.16c0 1.68 1.213 3.049 2.703 3.049s2.699-1.367 2.699-3.049v-29.39c1e-6 -3.956-3.21-7.17-7.166-7.172zm-46.84 25.9v0.0039l-0.00586 0.0078c-1.491 0-2.701 1.362-2.701 3.045v27.86c0 3.958 3.214 7.172 7.172 7.172h23.89c1.491 0 2.699-1.367 2.699-3.049s-2.699-2.381-2.699-2.381h-21.35c-2.374 0-4.303-2.594-4.303-4.971v-24.64c0-1.682-1.211-3.047-2.701-3.047zm51.3 19.82c-1.491 0-2.701 1.362-2.701 3.045v4.838c0 2.376-1.926 4.971-4.301 4.971-1.35 0.0056-3.069-0.0066-4.053 0-0.9831 0.0065-2.451 0.6964-2.451 2.379 0 1.68 1.212 3.047 2.703 3.047h6.33c3.958 0 7.172-3.214 7.172-7.172v-8.059c0-1.682-1.209-3.047-2.699-3.047z" fill="url(#a)"/>
 <path transform="translate(0) scale(1)" d="m32 16.13c-4.463 0-8.115 3.651-8.115 8.115v2.397c-2.357 0.8186-4.199 2.793-4.542 5.344-0.211 1.567-0.3932 3.222-0.3932 4.95s0.1822 3.386 0.3932 4.955c0.4288 3.185 3.072 5.689 6.315 5.841 2.025 0.09304 4.083 0.1434 6.343 0.1434s4.319-0.05036 6.343-0.1434c3.242-0.149 5.884-2.654 6.315-5.841 0.211-1.567 0.3941-3.223 0.3941-4.955s-0.1831-3.385-0.3941-4.95c-0.3435-2.551-2.185-4.525-4.542-5.344v-2.397c0-4.463-3.651-8.115-8.115-8.115zm0 3.537c2.553-1e-6 4.577 2.024 4.577 4.577v1.843c-1.473-0.04813-2.959-0.08513-4.577-0.08513-1.618 0-3.105 0.03701-4.578 0.08513v-1.843c0-2.553 2.025-4.577 4.578-4.577zm0 9.872c2.21 0 4.21 0.04725 6.182 0.1379 1.503 0.06907 2.763 1.253 2.969 2.779 0.2027 1.506 0.3636 3.003 0.3636 4.481 0 1.478-0.1609 2.973-0.3636 4.479-0.2055 1.526-1.467 2.713-2.969 2.782-1.971 0.09058-3.971 0.1379-6.182 0.1379s-4.211-0.04728-6.182-0.1379c-1.503-0.06907-2.763-1.256-2.969-2.782-0.2028-1.506-0.3636-3.002-0.3636-4.479 0-1.478 0.1608-2.975 0.3636-4.481 0.2055-1.526 1.467-2.711 2.969-2.779 1.971-0.09062 3.972-0.1379 6.182-0.1379z" fill="url(#d)" stroke-width=".3283"/>
 <path transform="translate(0) scale(1)" d="m32 32.97a2.365 2.365 0 0 0-1.587 4.141v2.208a1.587 1.587 0 0 0 3.174 0v-2.208a2.365 2.365 0 0 0-1.587-4.141z" fill="url(#c)" stroke-width="1.1"/>
</svg>
