<svg version="1.1" viewBox="0 0 64 64" xmlns="http://www.w3.org/2000/svg" xmlns:xlink="http://www.w3.org/1999/xlink">
 <defs>
  <linearGradient id="a" x1=".548" x2="48" y1="47.45" gradientTransform="matrix(.843 0 0 .8626 11.54 11.54)" gradientUnits="userSpaceOnUse">
   <stop stop-color="#882ae9" offset="0"/>
   <stop stop-color="#34eceb" offset="1"/>
  </linearGradient>
  <linearGradient id="c" x1="43.9" x2="20.07" y1="20.08" y2="43.91" gradientTransform="matrix(.5182 0 0 .5181 15.42 15.43)" gradientUnits="userSpaceOnUse">
   <stop stop-color="#a5f86a" offset="0"/>
   <stop stop-color="#2fce92" offset=".979"/>
  </linearGradient>
  <linearGradient id="b" x1=".548" x2="48" y1="47.45" gradientTransform="matrix(.6828 0 0 .6987 15.42 15.43)" gradientUnits="userSpaceOnUse" xlink:href="#a"/>
 </defs>
 <path transform="translate(0) scale(1) translate(0) scale(1) translate(0) scale(1) translate(0) scale(1) translate(0) scale(1) translate(-2e-5 -1e-6) scale(1) translate(.008 .004) scale(.9998)" d="M10.8 0a7.18 7.18 0 0 0-7.174 7.174v8.064c0 1.683 1.21 3.047 2.701 3.047s2.703-1.364 2.703-3.047V10.4c0-2.377 1.928-4.973 4.303-4.973h37.32c2.375 0 4.303 2.596 4.303 4.973v26.17c0 1.681 1.212 3.049 2.703 3.049s2.701-1.367 2.701-3.049V7.17a7.18 7.18 0 0 0-7.174-7.174zM6.327 25.91c-1.491 0-2.701 1.364-2.701 3.047v27.87a7.18 7.18 0 0 0 7.174 7.174h23.9c1.491 0 2.701-1.365 2.701-3.047S34.7 58.573 34.7 58.573H13.34c-2.375 0-4.305-2.596-4.305-4.973V28.95c0-1.683-1.212-3.047-2.703-3.047zm51.34 19.81c-1.491 0-2.703 1.364-2.703 3.047v4.838c0 2.377-1.928 4.973-4.303 4.973-1.35.006-3.069-.007-4.053 0-.983.006-2.451.696-2.451 2.379 0 1.681 1.211 3.049 2.703 3.049h6.334a7.18 7.18 0 0 0 7.174-7.174v-8.064c0-1.683-1.21-3.047-2.701-3.047z" fill="url(#a)"/>
 <path transform="translate(0) scale(1) translate(0) scale(1) translate(0) scale(1) translate(0) scale(1) translate(0) scale(1) translate(-2e-5 -1e-6) scale(1) translate(.008 .004) scale(.9998)" d="m28.81 15.43-.067.008a2.3 2.3 0 0 0-1.289.587 2.28 2.28 0 0 0-.685 1.236l-.482 2.44q-1.109.507-2.102 1.206l-2.388-.805a2.5 2.5 0 0 0-.708-.122 2.3 2.3 0 0 0-1.96 1.093c-.007.007-.008.021-.014.03l-3.022 5.23c-.007.007-.007.014-.015.022-.181.331-.28.709-.28 1.086a2.25 2.25 0 0 0 .77 1.718l1.906 1.665c-.038.392-.06.79-.06 1.182s.022.79.06 1.182l-1.906 1.665a2.25 2.25 0 0 0-.77 1.718c0 .384.1.754.28 1.086.008.007.008.014.015.022l3.021 5.229a2.266 2.266 0 0 0 2.682 1.002l2.389-.806q.995.699 2.102 1.206l.482 2.44c.098.513.369.972.768 1.303s.905.521 1.424.529h6.073a2.25 2.25 0 0 0 1.424-.529c.4-.331.67-.79.768-1.303l.483-2.44q1.107-.507 2.102-1.206l2.388.806a2.266 2.266 0 0 0 2.682-1v-.002l3.022-5.23c.007-.007.007-.014.015-.021a2.26 2.26 0 0 0 .279-1.086 2.25 2.25 0 0 0-.769-1.718l-1.899-1.665c.03-.393.053-.791.053-1.182 0-.392-.023-.79-.053-1.182l1.9-1.665h.007a2.27 2.27 0 0 0 .761-1.718c0-.377-.098-.755-.279-1.086-.007-.008-.007-.015-.015-.023l-3.02-5.229a.1.1 0 0 0-.016-.03 2.3 2.3 0 0 0-1.96-1.093 2.5 2.5 0 0 0-.707.121l-2.388.806A13.3 13.3 0 0 0 37.71 19.7l-.483-2.44a2.24 2.24 0 0 0-.768-1.303 2.3 2.3 0 0 0-1.424-.528h-6.088zm.8 3.014h4.783l.513 2.623c.106.505.451.926.934 1.115 1.002.384 1.929.919 2.773 1.589.4.317.934.407 1.417.249l2.554-.866 2.396 4.144-2.042 1.785c-.384.339-.573.86-.49 1.365.075.52.12 1.039.12 1.559s-.045 1.046-.12 1.559a1.5 1.5 0 0 0 .49 1.365l2.042 1.785-2.396 4.144-2.554-.858a1.5 1.5 0 0 0-1.424.249 10.6 10.6 0 0 1-2.765 1.582 1.51 1.51 0 0 0-.934 1.115l-.52 2.623H29.61l-.52-2.623a1.51 1.51 0 0 0-.934-1.115 10.6 10.6 0 0 1-2.765-1.582 1.5 1.5 0 0 0-1.424-.249l-2.554.858-2.396-4.144 2.042-1.785c.384-.34.572-.853.497-1.365a11 11 0 0 1-.127-1.56c.006-.52.044-1.038.127-1.558a1.53 1.53 0 0 0-.497-1.365l-2.042-1.785 2.396-4.144 2.554.866a1.53 1.53 0 0 0 1.424-.249 10.4 10.4 0 0 1 2.765-1.589 1.51 1.51 0 0 0 .934-1.115z" fill="url(#b)"/>
 <path transform="translate(0) scale(1) translate(0) scale(1) translate(0) scale(1) translate(0) scale(1) translate(0) scale(1) translate(-2e-5 -1e-6) scale(1) translate(.008 .004) scale(.9998)" d="M37.76 26.24a1.4 1.4 0 0 0-.994-.41h-6.292a1.41 1.41 0 0 0-1.304.867 1.4 1.4 0 0 0-.078.814 1.4 1.4 0 0 0 .385.72l1.603 1.603-4.622 4.622a2.18 2.18 0 0 0 0 3.08l.003.004a2.17 2.17 0 0 0 1.538.638 2.19 2.19 0 0 0 1.545-.636l4.622-4.622 1.602 1.602a1.4 1.4 0 0 0 .72.386 1.4 1.4 0 0 0 .814-.078 1.4 1.4 0 0 0 .63-.52 1.4 1.4 0 0 0 .237-.784v-6.292a1.4 1.4 0 0 0-.41-.994z" fill="url(#c)"/>
</svg>
