<svg version="1.1" viewBox="0 0 64 64" xmlns="http://www.w3.org/2000/svg" xmlns:xlink="http://www.w3.org/1999/xlink">
 <defs>
  <linearGradient id="b" x1="5.471" x2="5.471" y1="19.43" y2="12.48" gradientTransform="scale(1.348 .7421)" gradientUnits="userSpaceOnUse">
   <stop stop-color="#02aa93" offset="0"/>
   <stop stop-color="#67ff80" offset="1"/>
  </linearGradient>
  <linearGradient id="a" x1="10.98" x2="9.474" y1="4.369" y2="6.462" gradientTransform="matrix(1.19 0 0 1.098 -.7596 -1.204)" gradientUnits="userSpaceOnUse">
   <stop stop-color="#fd5900" offset="0"/>
   <stop stop-color="#ffde00" offset="1"/>
  </linearGradient>
  <linearGradient id="c" x1="1" x2="0" y1="1">
   <stop stop-color="#5433ff" offset="0"/>
   <stop stop-color="#20bdff" offset=".5"/>
   <stop stop-color="#a5fecb" offset="1"/>
  </linearGradient>
 </defs>
 <path transform="translate(-.000307 -.002944) scale(4) translate(-1.143 -1.143) scale(1.143)" d="m9.873 1.584c-0.5303 0.00344-1.076 0.00544-1.68 0.00391h-0.01562c-0.00149-5e-6 -0.00243 5e-6 -0.00391 0-1.295-0.00438-2.591-0.00164-3.887 0-0.3253 4.157e-4 -0.6512-3.228e-4 -0.9766 0-1.143-6.607e-4 -2.186 0.9019-2.25 1.98v0.00782c-0.0089 0.6428-0.00751 1.285-0.00586 1.926 7.059e-4 0.2741 0.00206 0.5485 0.00195 0.8223v0.06641c-0.0026 1.45-0.00368 2.898-0.00195 4.348v0.3965l0.2773-0.2832c0.1025-0.1045 0.2086-0.2064 0.3164-0.3106 0.2265-0.2187 0.4616-0.4443 0.666-0.6973 0.00386-0.00158 0.00771-0.00422 0.01172-0.00586h0.00391v-0.00195h0.0039c0.02106-0.00863 0.04363-0.01911 0.05859-0.02539l0.1953-0.08204-0.1309-0.168-0.06055-0.07422c-0.00602-1.389-0.00493-2.778-0.00391-4.168 3.784e-4 -0.5282 0.00195-1.056 0.00195-1.584v-0.00195c-0.00356-0.3239 0.213-0.6571 0.5469-0.791l0.00782-0.0039c0.1295-0.05971 0.284-0.07784 0.459-0.08984 0.5528-2.69e-4 1.105 0.00146 1.658 0.00195 1.036 9.297e-4 2.073 0.00216 3.109-0.00195h0.01172c1.523 0.00238 3.046 0.00354 4.568 0.00195 0.3335 0.03496 0.6341 0.2065 0.7891 0.4629 0.06278 0.1267 0.1048 0.2432 0.1094 0.3574v0.00195c0.0016 0.7758 4.44e-4 1.552 0 2.328-6.56e-4 0.8482-4.47e-4 1.696 2e-3 2.545v0.00195c-0.0017 0.5733-0.0017 1.146 0 1.719-4.1e-5 0.0011 3.6e-5 0.0028 0 0.0039-0.01001 0.3024 0.2202 0.5629 0.5078 0.6348 0.2084 0.04977 0.422-0.0064 0.5781-0.1211 0.1531-0.1126 0.267-0.2955 0.2559-0.5098-1e-4 -0.0019 1.08e-4 -4e-3 0-0.0059 5.47e-4 -0.6409 0.0021-1.281 2e-3 -1.922 0-0.3216-2e-3 -0.6432-2e-3 -0.9648 8.4e-5 -0.1184-6.9e-5 -0.2371 0-0.3555 6.56e-4 -1.097 7.65e-4 -2.196 0-3.293v-0.00195c0.0026-0.2968-0.07258-0.5823-0.1816-0.8438l-2e-3 -0.00391c-0.05786-0.1256-0.1308-0.2455-0.2129-0.3574l0.0059-0.00391-0.1133-0.1328c-0.3804-0.4435-0.9542-0.7318-1.557-0.789l-0.04102-0.00391-0.04297-0.00391-2e-3 0.00195-0.3398-0.00586c-0.9723-0.0162-1.788-0.00942-2.639-0.00391z" fill="url(#c)"/>
 <path transform="translate(-.000307 -.002944) scale(4)" d="m11.29 3.286c-0.2167-0.00357-0.4323 0.02866-0.6362 0.1005-0.7001 0.2297-1.19 0.9049-1.145 1.59 0.01877 0.6583 0.521 1.263 1.194 1.471 0.02284 0.00504 0.05726 0.01277 0.09153 0.02009 0.03398 0.00726 0.06888 0.0151 0.09153 0.02009 0.8089 0.1814 1.705-0.2532 2.005-0.9689 0.2008-0.4485 0.1653-0.9789-0.09376-1.402-0.1207-0.2052-0.2983-0.3738-0.4911-0.5224-0.2935-0.196-0.6545-0.3021-1.016-0.308z" fill="url(#a)" stroke-width="1.143"/>
 <path transform="translate(-.000307 -.002944) scale(4) matrix(1.143 0 0 1.143 -1.143 -1.143)" d="m5.264 6.894c-0.02004 1.405e-4 -0.0406 0.00202-0.06055 0.00391-0.1571 0.01483-0.3086 0.08359-0.418 0.1992l-0.00195 0.00195c-0.8252 0.78-1.65 1.561-2.475 2.34l-0.00391 0.00195-0.00195 0.00391c-0.00783 0.00849-0.04079 0.03577-0.07227 0.0625s-0.06149 0.05209-0.08789 0.08008c-0.00204 0.00217-0.00425 0.00409-0.00586 0.00586-0.00311 0.00282-0.00523 0.00578-0.01172 0.01172-0.01258 0.0115-0.03248 0.02873-0.06445 0.05859l-0.00195 0.00195c-0.3758 0.3758-0.6894 0.6535-1.027 0.998l-0.0293 0.03125v0.04297c-8.65e-4 0.5598-0.004333 1.121 0 1.682v2e-3l0.00195 2e-3c0.02857 0.7556 0.5357 1.455 1.262 1.781l0.00391 2e-3 0.05469 0.01953 0.00391 2e-3c0.6958 0.2979 1.452 0.1546 2.133 0.1856l0.00586-0.1074v0.1074c0.7006 0 1.401 7.65e-4 2.102 0 0.6919 0 1.384 7.65e-4 2.076 0 0.775 0 1.551 7.65e-4 2.326 0 0.5534 0 1.108 0.0028 1.662 0 0.8516-0.0083 1.668-0.5048 2.004-1.238l2e-3 -0.0039 2e-3 -0.0059c0.07641-0.2137-0.0079-0.4071-0.125-0.5469-0.1171-0.1397-0.2668-0.251-0.3594-0.3535l-0.0059-0.0059c-0.4206-0.4052-0.8414-0.8079-1.262-1.213-0.4592-0.4466-0.9227-0.889-1.389-1.328v-0.00195h-2e-3c-0.3966-0.3902-0.7973-0.7748-1.199-1.158-0.1082-0.1305-0.2528-0.2631-0.4277-0.3398-0.1792-0.07869-0.3996-0.09213-0.5996 0.03125l-0.00391 0.00391-0.00586 0.00391c-0.4192 0.3332-0.8051 0.6967-1.203 1.039-0.00344 0.00296-0.00654 0.00727-0.01172 0.01172-0.09668-0.08201-0.1918-0.165-0.2852-0.25-0.269-0.2447-0.5273-0.5013-0.7832-0.7578-0.333-0.3337-0.6639-0.6696-1.016-0.9863-0.0977-0.0953-0.1953-0.1901-0.2969-0.2832l-0.00391-0.00195-0.00195-0.00391c-0.1146-0.09-0.2562-0.1318-0.3965-0.1309zm-0.00586 1.455c0.02849 0.02629 0.05806 0.05311 0.08594 0.08008l0.0293 0.03125c0.4746 0.4656 0.9563 0.9274 1.434 1.391l0.07422-0.07812-0.06836 0.08203c0.3153 0.2672 0.569 0.6561 1 0.875l0.01562 0.0098 0.01758 2e-3c0.2075 0.03159 0.442-0.0019 0.6094-0.1582 0.3832-0.3294 0.7539-0.6682 1.137-0.9902 0.04198 0.0413 0.08512 0.0834 0.127 0.125v0.00195c0.3361 0.3219 0.6722 0.6444 1.01 0.9668v2e-3c0.4464 0.4307 0.8938 0.8594 1.342 1.289 0.3725 0.3588 0.7471 0.717 1.117 1.076-0.1877 0.1327-0.4043 0.1949-0.6543 0.207-0.291 0.01407-0.6087-0.02024-0.9121-2e-3 -0.7545-0.0016-1.508-7.66e-4 -2.264 0h-0.00195c-0.6911-6.99e-4 -1.381 0-2.072 0-0.7187-8.75e-4 -1.438-9.83e-4 -2.156 0h-0.00391c-0.7268-0.02295-1.449 0.04156-2.148-0.03516-0.1004-0.037-0.1958-0.06944-0.2695-0.1152l-0.00195-2e-3 -0.00391-2e-3c-0.3078-0.1681-0.4818-0.5079-0.4688-0.832v-2e-3c0.0059-0.367-0.00772-0.7291 0.00781-1.084 1.022-0.9335 2.01-1.898 3.02-2.838zm-3.053 1.213c-3.7e-6 6e-7 0.00677 0.0868 0.00781 0.09961-0.00401-0.01004-0.0362-0.09148-0.03711-0.09375 0.00537-0.0019 0.01171-0.0039 0.01172-0.00391zm0.00781 0.1074c-0.00543 0.00468-0.02265 0.02036-0.07617 0.07031l-0.00391-0.00391s0.07467-0.06203 0.08008-0.06641z" fill="url(#b)"/>
</svg>
