<svg version="1.1" viewBox="0 0 64 64" xmlns="http://www.w3.org/2000/svg">
 <defs>
  <linearGradient id="a" x1="1" x2="0" y1="1">
   <stop stop-color="#008cfe" offset="0"/>
   <stop stop-color="#03effe" offset=".5"/>
   <stop stop-color="#6eff6e" offset="1"/>
  </linearGradient>
 </defs>
 <path transform="translate(.008199 .003999) scale(.9998) translate(-2e-4) scale(1)" d="m10.8 0c-3.959 0-7.174 3.215-7.174 7.174v8.064c0 1.683 1.21 3.047 2.701 3.047s2.703-1.364 2.703-3.047v-4.838c0-2.377 1.928-4.973 4.303-4.973h37.32c2.375 0 4.303 2.596 4.303 4.973v26.17c0 1.681 1.212 3.049 2.703 3.049s2.701-1.367 2.701-3.049v-29.4c0-3.959-3.215-7.174-7.174-7.174zm-4.473 25.91c-1.491 0-2.701 1.364-2.701 3.047v27.87c0 3.959 3.215 7.174 7.174 7.174h23.9c1.491 0 2.701-1.365 2.701-3.047 0-1.683-2.701-2.381-2.701-2.381h-21.36c-2.375 0-4.305-2.596-4.305-4.973v-24.65c0-1.683-1.212-3.047-2.703-3.047zm51.34 19.81c-1.491 0-2.703 1.364-2.703 3.047v4.838c0 2.377-1.928 4.973-4.303 4.973-1.35 0.0056-3.069-0.0066-4.053 0-0.9835 0.0065-2.451 0.696-2.451 2.379 0 1.681 1.211 3.049 2.703 3.049h6.334c3.959 0 7.174-3.215 7.174-7.174v-8.064c0-1.683-1.21-3.047-2.701-3.047z" fill="url(#a)"/>
 <path transform="translate(.008199 .003999) scale(.9998)" d="m50.82 13.7s-2.754 0.2379-4.515 0.8776c-0.5257 0.2023-0.9361 0.5607-1.235 1.072-2.869 4.904-3.59 7.415-6.699 12.51-1.214 1.988-4.583 6.971-7.451 6.281-3.506-0.8596 1.225-12.27 4.086-18.46-1.17 0.1983-2.668 0.4476-3.929 0.6686-1.255 0.3156-2.421 0.742-3.138 1.903-1.731 2.806-5.369 19.11-14.76 31.74 3.143-0.4841 6.5-0.8776 8.481-3.822 1.363-2.127 2.213-3.95 4.643-10.03l0.0051-0.0051v-0.0051l0.01529-0.01528h0.0051l0.0051-0.0051h0.03057l0.01024 0.01024h0.0051c2.848 2.707 5.45 3.569 9.975-0.6686 1.035-0.9766 2.066-1.97 3.112-2.929 0.6793 2.561 1.375 5.293 2.072 7.762 1.515-1.62 3.106-3.336 4.577-4.93-3.342-5.839-3.295-10.07 4.7-21.95z" fill="url(#a)" stroke-width="4.443"/>
</svg>
