<svg version="1.1" viewBox="0 0 64 64" xmlns="http://www.w3.org/2000/svg">
 <defs>
  <linearGradient id="a" y1="1">
   <stop stop-color="#f00" offset="0"/>
   <stop stop-color="#ffa500" offset=".5"/>
   <stop stop-color="#ff0" offset="1"/>
  </linearGradient>
 </defs>
 <path transform="translate(0) scale(1) translate(1e-5) scale(1) translate(.007239 .002328) scale(.9999) translate(-.00049) scale(1)" d="m53.18 0 0.0078 0.009766-42.38 0.003906c-3.958 0-7.174 3.214-7.174 7.172v8.06c0 1.683 1.21 3.047 2.701 3.047s2.703-1.364 2.703-3.047v-4.836c0-2.376 1.926-4.973 4.301-4.973h37.31c2.374 0 4.303 2.596 4.303 4.973v26.16c0 1.681 1.21 3.049 2.701 3.049s2.699-1.367 2.699-3.049v-29.4c1.3e-5 -3.958-3.214-7.172-7.172-7.172zm-46.84 25.9v0.0098l-0.00391 0.0059c-1.491 0-2.701 1.364-2.701 3.047v27.86c0 3.958 3.216 7.172 7.174 7.172h23.9c1.491 0 2.701-1.365 2.701-3.047 0-1.683-2.701-2.381-2.701-2.381h-21.36c-2.374 0-4.305-2.594-4.305-4.971v-24.65c0-1.683-1.212-3.045-2.703-3.045zm51.32 19.82c-1.491 0-2.703 1.364-2.703 3.047v4.836c0 2.376-1.928 4.973-4.303 4.973-1.35 0.0056-3.067-0.0066-4.051 0-0.9832 0.0065-2.449 0.6963-2.449 2.379 0 1.681 1.209 3.049 2.701 3.049h6.332c3.958 0 7.172-3.216 7.172-7.174v-8.06c0-1.683-1.208-3.045-2.699-3.045z" fill="url(#a)"/>
 <path transform="translate(0) scale(1) translate(1e-5) scale(1) translate(.007239 .002328) scale(.9999) translate(-.00049) scale(1)" d="m29 13.68a0.2819 0.2819 0 0 0-0.2812 0.2793v6.016a0.2819 0.2819 0 0 0 0.2812 0.2812h6.014a0.2819 0.2819 0 0 0 0.2812-0.2812v-6.016a0.2819 0.2819 0 0 0-0.2812-0.2793zm6.406 7.062v0.007813l-0.0059 0.0039-0.3945 0.01367a0.2819 0.2819 0 0 0-0.2754 0.2812v3.006a0.2819 0.2819 0 0 0 0.2109 0.2773l8.17 2.19-8.17 2.186a0.2819 0.2819 0 0 0-0.2109 0.2695v21.04a0.2819 0.2819 0 0 0 0.2812 0.2812h0.3945a0.2819 0.2819 0 0 0 0.07617-0.0059l14.55-3.898-0.04102-0.01172a0.2819 0.2819 0 0 0 0.3457-0.2773v-21.17a0.2819 0.2819 0 0 0-0.3477-0.2695l0.04297-0.01172-14.55-3.9a0.2819 0.2819 0 0 0-0.07617-0.01172zm-6.803 0.02539a0.2819 0.2819 0 0 0-0.07422 0.01172l-5.949 1.596a0.2819 0.2819 0 0 0-0.1289 0.4707l2.461 2.455a0.2819 0.2819 0 0 0 0.2754 0.07617l3.889-1.045a0.2819 0.2819 0 0 0 0.2051-0.2773v-3.006a0.2819 0.2819 0 0 0-0.2812-0.2812zm-10.71 2.865a0.2819 0.2819 0 0 0-0.07422 0.01172l-3.936 1.057a0.2819 0.2819 0 0 0-0.2109 0.2695v22.07a0.2819 0.2819 0 0 0 0.2344 0.2812l18.05 3.006a0.2819 0.2819 0 0 0 0.3301-0.2832v-21.04a0.2819 0.2819 0 0 0-0.2363-0.2754l-11.92-1.986 0.2988-0.08008a0.2819 0.2819 0 0 0 0.1289-0.4766l-2.461-2.461a0.2819 0.2819 0 0 0-0.2031-0.08203zm28.85 5.613v12.6l-8.455-2.273v-8.049zm-8.455 14.03 4.826 1.291-4.826 1.299z" fill="url(#a)"/>
</svg>
