<svg version="1.1" viewBox="0 0 64 64" xmlns="http://www.w3.org/2000/svg">
 <defs>
  <linearGradient id="a" y1="1">
   <stop stop-color="#f00" offset="0"/>
   <stop stop-color="#ff0086" offset="1"/>
  </linearGradient>
  <linearGradient id="b" y1="1">
   <stop stop-color="#ffbb24" offset="0"/>
   <stop stop-color="#f7f206" offset="1"/>
  </linearGradient>
  <linearGradient id="c" x1="1" x2="0" y2="1">
   <stop stop-color="#46d9ff" offset="0"/>
   <stop stop-color="#ff23ff" offset=".5"/>
   <stop stop-color="#ffd93f" offset="1"/>
  </linearGradient>
 </defs>
 <path transform="translate(0) scale(1) translate(0) scale(1) translate(0) scale(1) translate(0) scale(1) translate(-7e-4 -.0012) scale(1) translate(-.6828 -.8081) scale(1.367)" d="m31.44 17.5c-0.58 0.03-1.129 0.279-1.529 0.709l-5.981 6.46-2.31-2.269c-0.41-0.41-0.9701-0.6401-1.56-0.6401-0.53 0-1.05 0.1891-1.45 0.5391l-12.22 10.61c-0.48 0.42-0.7602 1.02-0.7602 1.67 0 0.54 0.201 1.059 0.561 1.459 0.42 0.47 1.02 0.7398 1.66 0.7398 0.53 0 1.05-0.1891 1.45-0.5391l10.67-9.261 6.41 6.321c0.41 0.41 0.9701 0.6401 1.56 0.6401 0.58 0 1.14-0.2301 1.56-0.6401s0.6489-0.9803 0.6489-1.57-0.2289-1.16-0.6489-1.57l-2.42-2.38 4.6-4.96 6.98 6.31h0.01025c0.4 0.37 0.9295 0.5698 1.48 0.5698 0.62 0 1.21-0.2502 1.63-0.7002 0.38-0.41 0.5903-0.9488 0.5903-1.509 0-0.62-0.261-1.21-0.731-1.63l-8.61-7.79-0.0088-0.01025c-0.42-0.37-0.9602-0.5696-1.51-0.5596h-0.02051z" fill="url(#c)"/>
 <path transform="translate(0) scale(1) translate(0) scale(1) translate(0) scale(1) translate(0) scale(1) translate(-7e-4 -.0012) scale(1) matrix(1.367 0 0 1.367 -.6828 -.8081)" d="m6.352 2.347c-3.23 0-5.852 2.622-5.852 5.852v31.6c0 3.23 2.622 5.852 5.852 5.852h35.11c3.23 0 5.852-2.622 5.852-5.852v-31.6c0-3.23-2.622-5.852-5.852-5.852zm2.341 4.682h30.43c1.938 0 3.51 1.573 3.51 3.511v26.92c0 1.938-1.572 3.511-3.51 3.511h-30.43c-1.938 0-3.51-1.573-3.51-3.511v-26.92c0-1.938 1.572-3.511 3.51-3.511z" fill="url(#a)"/>
 <path transform="translate(0) scale(1) translate(0) scale(1) translate(0) scale(1) translate(0) scale(1) translate(-7e-4 -.0012) scale(1) matrix(1.367 0 0 1.367 -.6828 -.8081)" d="m13.42 11c-2.526 0-4.578 2.069-4.578 4.616s2.052 4.614 4.578 4.614c2.527 0 4.578-2.067 4.578-4.614s-2.051-4.616-4.578-4.616z" fill="url(#b)"/>
</svg>
