<svg version="1.1" viewBox="0 0 64 64" xmlns="http://www.w3.org/2000/svg" xmlns:xlink="http://www.w3.org/1999/xlink">
 <defs>
  <linearGradient id="a" x1="21.99" x2="8.178" y1="21.99" y2="8.18" gradientTransform="matrix(2.576 0 0 2.576 -4.885 -4.891)" gradientUnits="userSpaceOnUse">
   <stop stop-color="#007bf6" offset="0"/>
   <stop stop-color="#d60cff" offset=".5"/>
   <stop stop-color="#ff167a" offset="1"/>
  </linearGradient>
  <linearGradient id="b" x1="24.75" x2="4.191" y1="25.67" y2="2.647" gradientTransform="matrix(2.576 0 0 2.576 -4.885 -4.891)" gradientUnits="userSpaceOnUse" xlink:href="#a"/>
 </defs>
 <path transform="translate(.008199 .003999) scale(.9998) translate(-2e-4) scale(1)" d="m10.8 0c-3.959 0-7.174 3.215-7.174 7.174v8.064c0 1.683 1.21 3.047 2.701 3.047s2.703-1.364 2.703-3.047v-4.838c0-2.377 1.928-4.973 4.303-4.973h37.32c2.375 0 4.303 2.596 4.303 4.973v26.17c0 1.681 1.212 3.049 2.703 3.049s2.701-1.367 2.701-3.049v-29.4c0-3.959-3.215-7.174-7.174-7.174zm-4.473 25.91c-1.491 0-2.701 1.364-2.701 3.047v27.87c0 3.959 3.215 7.174 7.174 7.174h23.9c1.491 0 2.701-1.365 2.701-3.047 0-1.683-2.701-2.381-2.701-2.381h-21.36c-2.375 0-4.305-2.596-4.305-4.973v-24.65c0-1.683-1.212-3.047-2.703-3.047zm51.34 19.81c-1.491 0-2.703 1.364-2.703 3.047v4.838c0 2.377-1.928 4.973-4.303 4.973-1.35 0.0056-3.069-0.0066-4.053 0-0.9835 0.0065-2.451 0.696-2.451 2.379 0 1.681 1.211 3.049 2.703 3.049h6.334c3.959 0 7.174-3.215 7.174-7.174v-8.064c0-1.683-1.21-3.047-2.701-3.047z" fill="url(#b)" stroke-width="2.576"/>
 <path transform="translate(.008199 .003999) scale(.9998)" d="m20.92 16.18c-0.2406-3.56e-4 -0.4773 0.01278-0.7194 0.04023-0.9744 0.1108-1.987 0.5483-2.712 1.273-0.7243 0.7253-1.162 1.738-1.273 2.712-0.1108 0.9744 0.02028 1.925 0.2617 2.952 0.4827 2.056 1.446 4.474 2.697 7.67l4.149 10.6c1.195 3.057 2.086 5.37 3.039 7.098 0.477 0.8649 0.9659 1.606 1.66 2.218 0.6941 0.6125 1.718 1.056 2.73 1.001 1.018-0.05373 1.992-0.6115 2.617-1.298 0.6243-0.6864 1.031-1.479 1.414-2.395 0.7655-1.832 1.409-4.239 2.279-7.431 0.5159-1.896 0.7583-2.453 0.9306-2.627a1.977 1.977 0 0 0 0-0.0052c0.1659-0.1666 0.7346-0.4085 2.627-0.9257 3.189-0.8695 5.605-1.513 7.436-2.279 0.9156-0.3827 1.698-0.7894 2.385-1.414 0.6854-0.623 1.248-1.595 1.303-2.612v-0.0052c0.05316-1.012-0.3889-2.044-1.001-2.735-0.613-0.6941-1.354-1.179-2.218-1.655-1.73-0.9527-4.041-1.839-7.098-3.034l-10.6-4.149a1.977 1.977 0 0 0-0.0052 0 1.977 1.977 0 0 0 0-5e-3c-3.201-1.251-5.615-2.214-7.67-2.697-0.7691-0.1806-1.498-0.2998-2.224-0.3019zm-0.01 3.959h0.0052c0.3096 0.0053 0.7593 0.06041 1.338 0.1962 1.548 0.3637 3.938 1.275 7.134 2.525a1.977 1.977 0 0 0 0 0.0052h0.0052l10.59 4.144c3.057 1.195 5.329 2.101 6.63 2.818 0.5695 0.3137 0.8561 0.5512 1.021 0.7093-0.1834 0.1413-0.4992 0.3547-1.107 0.6086-1.384 0.5785-3.755 1.238-6.946 2.108-1.9 0.5192-3.24 0.8015-4.386 1.952-1.142 1.144-1.43 2.48-1.947 4.376-0.8695 3.191-1.529 5.566-2.108 6.952-0.2526 0.6045-0.4621 0.9118-0.6037 1.097-0.1591-0.1662-0.397-0.4438-0.7097-1.011-0.7176-1.301-1.623-3.575-2.818-6.63l-4.149-10.6c-1.251-3.199-2.167-5.584-2.53-7.134-0.1819-0.7747-0.2182-1.323-0.1861-1.605 0.03206-0.2818 0.05489-0.281 0.1409-0.3673 0.08608-0.08595 0.08013-0.1038 0.3621-0.1358 0.06916-0.0078 0.1608-0.01148 0.2617-0.01z" fill="url(#a)" stroke-width="2.576"/>
</svg>
