<svg version="1.1" viewBox="0 0 64 64" xmlns="http://www.w3.org/2000/svg">
 <defs>
  <linearGradient id="e" x2="0" y1="1">
   <stop stop-color="#6203ff" offset="0"/>
   <stop stop-color="#e901ff" offset="1"/>
  </linearGradient>
  <linearGradient id="c" y1="1">
   <stop stop-color="#f10" offset="0"/>
   <stop stop-color="#ff115a" offset="1"/>
  </linearGradient>
  <linearGradient id="a" y1=".5" y2=".5">
   <stop stop-color="#248efe" offset="0"/>
   <stop stop-color="#1df4ff" offset="1"/>
  </linearGradient>
  <linearGradient id="b" y1="1">
   <stop stop-color="#f0f" offset="0"/>
   <stop stop-color="#fca" offset="1"/>
  </linearGradient>
  <linearGradient id="d" x1="1" x2="0" y2="1">
   <stop stop-color="#f35c58" offset="0"/>
   <stop stop-color="#ba09b2" offset=".5"/>
   <stop stop-color="#7900d9" offset="1"/>
  </linearGradient>
 </defs>
 <path transform="translate(.008199 .003999) scale(.9998) translate(-2e-4)" d="m10.8 0c-3.959 0-7.174 3.215-7.174 7.174v8.064c0 1.683 1.21 3.047 2.701 3.047s2.703-1.364 2.703-3.047v-4.838c0-2.377 1.928-4.973 4.303-4.973h37.32c2.375 0 4.303 2.596 4.303 4.973v26.17c0 1.681 1.212 3.049 2.703 3.049s2.701-1.367 2.701-3.049v-29.4c0-3.959-3.215-7.174-7.174-7.174zm-4.473 25.91c-1.491 0-2.701 1.364-2.701 3.047v27.87c0 3.959 3.215 7.174 7.174 7.174h23.9c1.491 0 2.701-1.365 2.701-3.047 0-1.683-2.701-2.381-2.701-2.381h-21.36c-2.375 0-4.305-2.596-4.305-4.973v-24.65c0-1.683-1.212-3.047-2.703-3.047zm51.34 19.81c-1.491 0-2.703 1.364-2.703 3.047v4.838c0 2.377-1.928 4.973-4.303 4.973-1.35 0.0056-3.069-0.0066-4.053 0-0.9835 0.0065-2.451 0.696-2.451 2.379 0 1.681 1.211 3.049 2.703 3.049h6.334c3.959 0 7.174-3.215 7.174-7.174v-8.064c0-1.683-1.21-3.047-2.701-3.047z" fill="url(#d)"/>
 <path transform="translate(.008199 .003999) scale(.9998)" d="m17.23 23.25-0.2598 2e-3 -0.1016 0.09961c-0.5241 0.1106-1.001 0.3852-1.264 0.8652l-2e-3 2e-3 -0.5703 1.047c-0.5209 0.9564-0.09198 2.178 0.9121 2.6l30.05 12.63c0.8695 0.3662 1.89 0.01321 2.346-0.8125l0.5723-1.037c0.5274-0.9564 0.1021-2.184-0.9043-2.607h-2e-3l-30.05-12.64c-0.2293-0.09634-0.4756-0.1453-0.7246-0.1445z" fill="url(#c)" stroke-width=".9411"/>
 <path transform="translate(.008199 .003999) scale(.9998)" d="m48.69 34.27c-2.675 0-4.875 2.204-4.875 4.877 0 2.674 2.201 4.875 4.875 4.875s4.873-2.202 4.873-4.875-2.198-4.877-4.873-4.877z" fill="url(#b)" stroke-width=".9411"/>
 <path transform="translate(.008199 .003999) scale(.9998)" d="m15.31 19.97c-2.676 0-4.875 2.203-4.875 4.877 0 2.675 2.202 4.873 4.875 4.873s4.873-2.199 4.873-4.873c0-2.673-2.196-4.877-4.873-4.877z" fill="url(#b)" stroke-width=".9411"/>
 <path transform="translate(.008199 .003999) scale(.9998)" d="m35 11.13-0.1699 0.668c-6.54e-4 -1.7e-5 -0.0013 1.8e-5 -2e-3 0-0.03009-8.07e-4 -0.05983-0.0013-0.08984-2e-3l0.04492-0.6055 0.1367-0.02539c-0.04842-0.0015-0.08845 0.01476-0.1367 0.01367l2e-3 -0.01172c-0.01584 0.0053-0.03119 0.01189-0.04687 0.01758-1.294-0.02525-2.54 0.08174-3.689 0.375-3.28 0.8365-5.84 2.921-7.205 5.645-2.718 5.439-0.4577 12.89 6.982 16.95 5.71 3.115 6.413 7.509 4.939 10.44v2e-3c-0.7376 1.474-2.043 2.636-4.041 3.143-1.993 0.5045-4.736 0.3207-8.225-1.289-0.9234-0.427-2.037-0.01719-2.465 0.9062l-0.5 1.08c-0.4283 0.9241-0.02018 2.039 0.9043 2.467 8.486 3.918 15.84 1.375 18.62-3.979l0.03906-0.03906 0.04492-0.0918h2e-3c2.718-5.436 0.4659-12.89-6.977-16.95-5.708-3.113-6.418-7.527-4.943-10.48 0.737-1.473 2.039-2.632 4.037-3.135v-2e-3c1.994-0.5024 4.74-0.3172 8.225 1.291h2e-3c0.9228 0.4256 2.033 0.01748 2.461-0.9043l0.502-1.082c0.428-0.9241 0.01704-2.038-0.9082-2.465-2.67-1.233-5.208-1.852-7.545-1.939z" fill="url(#e)" stroke-width=".9411"/>
 <path transform="translate(.008199 .003999) scale(.9998)" d="m20.69 44.41c-1.367-6.97e-4 -2.491 1.124-2.49 2.49v3.574c-6.98e-4 1.367 1.124 2.493 2.49 2.492h3.574c1.367 6.98e-4 2.493-1.125 2.492-2.492v-3.574c6.98e-4 -1.367-1.125-2.491-2.492-2.49z" fill="url(#a)" stroke-width=".9411"/>
 <path transform="translate(.008199 .003999) scale(.9998)" d="m30.22 27.72c-1.367-6.97e-4 -2.493 1.124-2.492 2.49v3.574c-6.98e-4 1.367 1.125 2.491 2.492 2.49h3.578c1.367 6.98e-4 2.489-1.124 2.488-2.49v-3.574c6.35e-4 -1.366-1.122-2.491-2.488-2.49z" fill="url(#a)" stroke-width=".9411"/>
 <path transform="translate(.008199 .003999) scale(.9998)" d="m39.75 11.04c-1.366 6.66e-4 -2.489 1.126-2.488 2.492v3.574c-6.34e-4 1.365 1.122 2.49 2.488 2.49h3.576c1.366-6.34e-4 2.491-1.124 2.49-2.49v-3.574c6.98e-4 -1.365-1.124-2.492-2.49-2.492z" fill="url(#a)" stroke-width=".9411"/>
</svg>
