<svg version="1.1" viewBox="0 0 64 64" xmlns="http://www.w3.org/2000/svg">
 <defs>
  <linearGradient id="a" y1="1">
   <stop stop-color="#fff045" offset="0"/>
   <stop stop-color="#00cdd7" offset="1"/>
  </linearGradient>
 </defs>
 <path transform="translate(0) scale(1) translate(-2e-5) scale(1) translate(.008199 .003999) scale(.9998) translate(-2e-4) scale(1)" d="m10.8 0c-3.959 0-7.174 3.215-7.174 7.174v8.064c0 1.683 1.21 3.047 2.701 3.047s2.703-1.364 2.703-3.047v-4.838c0-2.377 1.928-4.973 4.303-4.973h37.32c2.375 0 4.303 2.596 4.303 4.973v26.17c0 1.681 1.212 3.049 2.703 3.049s2.701-1.367 2.701-3.049v-29.4c0-3.959-3.215-7.174-7.174-7.174zm-4.473 25.91c-1.491 0-2.701 1.364-2.701 3.047v27.87c0 3.959 3.215 7.174 7.174 7.174h23.9c1.491 0 2.701-1.365 2.701-3.047 0-1.683-2.701-2.381-2.701-2.381h-21.36c-2.375 0-4.305-2.596-4.305-4.973v-24.65c0-1.683-1.212-3.047-2.703-3.047zm51.34 19.81c-1.491 0-2.703 1.364-2.703 3.047v4.838c0 2.377-1.928 4.973-4.303 4.973-1.35 0.0056-3.069-0.0066-4.053 0-0.9835 0.0065-2.451 0.696-2.451 2.379 0 1.681 1.211 3.049 2.703 3.049h6.334c3.959 0 7.174-3.215 7.174-7.174v-8.064c0-1.683-1.21-3.047-2.701-3.047z" fill="url(#a)"/>
 <path transform="translate(0) scale(1) translate(-2e-5) scale(1) translate(.008199 .003999) scale(.9998)" d="m22.42 18.92c-1.997 0.01615-4.509 0.1576-7.2 0.616v25.54h6.064v-9.24s11.95 1.109 12.17-7.627c0 0 1.576-9.389-11.04-9.287zm0.616 4.552c3.679 0.01385 4.646 1.315 4.739 3.74 0 5.084-6.491 3.84-6.491 3.84v-7.488c0.6424-0.04927 1.226-0.09372 1.752-0.09175zm18.58 2.223c-1.473 0.06668-2.923 0.412-4.216 1.14-2.393 1.411-2.695 4.851-1.376 7.104 1.648 2.433 4.818 2.785 7.059 4.455 1.138 0.7555 0.5545 2.673-0.7558 2.796-2.413 0.395-4.845-0.4813-7.016-1.472v3.46c-0.3011 1.025 0.9595 1.052 1.66 1.328 2.606 0.6323 5.431 0.7262 8.007-0.09611 2.277-0.6701 3.914-2.939 3.791-5.308-7.86e-4 -0.6341-0.1217-1.242-0.3319-1.843-0.8969-2.487-3.682-3.297-5.829-4.359-1.364-0.3494-3.373-2.058-1.564-3.223 2.033-0.6379 4.131 0.3158 5.967 1.14l1.328-3.176c0.4438-0.9978-1.706-0.9812-2.369-1.42-1.394-0.393-2.888-0.5909-4.359-0.5243z" fill="url(#a)" stroke-width="2.237"/>
</svg>
