<svg version="1.1" viewBox="0 0 64 64" xmlns="http://www.w3.org/2000/svg">
 <defs>
  <linearGradient id="a" y2="1">
   <stop stop-color="#f37b7e" offset="0"/>
   <stop stop-color="#fad986" offset=".283"/>
   <stop stop-color="#5fed96" offset=".688"/>
   <stop stop-color="#0fc3e9" offset=".975"/>
  </linearGradient>
  <linearGradient id="b" x1="14.9" x2="41.31" y1="23.18" y2="49.59" gradientTransform="matrix(1.137 0 0 .8794 -1.281 .01)" gradientUnits="userSpaceOnUse">
   <stop stop-color="#6e82ff" offset="0"/>
   <stop stop-color="#0ca9dc" offset=".368"/>
   <stop stop-color="#2ad678" offset="1"/>
  </linearGradient>
 </defs>
 <path transform="translate(0) scale(1) translate(0) scale(1) translate(0) scale(1) translate(0) scale(1) translate(0) scale(1) translate(0) scale(1) translate(0) scale(1) translate(0) scale(1) translate(-.00049 -1e-6) scale(1) translate(.01 .01) scale(.9999)" d="M53.18 0 10.8.004a7.18 7.18 0 0 0-7.174 7.172v8.062c0 1.683 1.21 3.047 2.701 3.047S9.03 16.92 9.03 15.238v-4.836c0-2.376 1.926-4.973 4.301-4.973h37.31c2.374 0 4.303 2.596 4.303 4.973v26.16c0 1.68 1.212 3.049 2.703 3.049s2.699-1.367 2.699-3.05v-29.4A7.176 7.176 0 0 0 53.174-.01zM6.33 25.9l-.004.006c-1.49 0-2.7 1.364-2.7 3.047v27.86a7.18 7.18 0 0 0 7.173 7.172h23.9c1.491 0 2.701-1.365 2.701-3.047s-2.7-2.381-2.7-2.381H13.34c-2.375 0-4.306-2.594-4.306-4.971v-24.65c0-1.683-1.212-3.045-2.703-3.045zm51.33 19.81c-1.491 0-2.703 1.364-2.703 3.047v4.836c0 2.376-1.928 4.973-4.303 4.973-1.35.006-3.067-.007-4.051 0-.983.006-2.451.696-2.451 2.379 0 1.681 1.211 3.049 2.703 3.049h6.332a7.18 7.18 0 0 0 7.172-7.174v-8.062c0-1.683-1.208-3.045-2.699-3.045z" fill="url(#a)"/>
 <path transform="translate(0) scale(1) translate(0) scale(1) translate(0) scale(1) translate(0) scale(1) translate(0) scale(1) translate(0) scale(1) translate(0) scale(1) translate(0) scale(1) translate(-.00049 -1e-6) scale(1)" d="m32.88 20.4a6.214 6.214 0 0 0-5.978 4.508l-2.537 8.882c-0.028 0.09899-0.06299 0.13-0.08199 0.145a0.3 0.3 0 0 1-0.164 0.058 0.3 0.3 0 0 1-0.17-0.027c-0.021-0.011-0.06299-0.035-0.11-0.127a5.259 5.259 0 0 0-4.7-2.906h-0.9219a2.487 2.487 0 1 0 0 4.972h0.9219c0.107 0 0.204 0.05999 0.252 0.156 2.145 4.288 8.439 3.704 9.757-0.9059l2.537-8.88a1.246 1.246 0 0 1 1.197-0.9029h6.399a2.486 2.486 0 1 0 0-4.972zm2.461 10.35a2.488 2.488 0 0 0-1.762 4.247l1.754 1.751a0.6199 0.6199 0 0 1 0 0.8799l-1.754 1.753a2.488 2.488 0 1 0 3.52 3.518l1.752-1.752a0.6239 0.6239 0 0 1 0.8799 0l1.753 1.752a2.488 2.488 0 0 0 3.516-3.518l-1.752-1.754a0.6199 0.6199 0 0 1 0-0.8779l1.752-1.752a2.488 2.488 0 0 0-3.516-3.519l-1.752 1.754a0.6239 0.6239 0 0 1-0.8809 0l-1.752-1.754a2.48 2.48 0 0 0-1.758-0.7279" fill="url(#b)" stroke-width=".9999"/>
</svg>
