<svg version="1.1" viewBox="0 0 64 64" xmlns="http://www.w3.org/2000/svg">
 <defs>
  <linearGradient id="a" y1="1">
   <stop stop-color="#5433ff" offset="0"/>
   <stop stop-color="#20bdff" offset=".5"/>
   <stop stop-color="#a5fecb" offset="1"/>
  </linearGradient>
 </defs>
 <path transform="translate(.009199 .009599) scale(.9999) translate(.00081 .000494) scale(1)" d="m53.18 0-42.38 0.003906c-3.958 0-7.174 3.214-7.174 7.172v8.062c0 1.683 1.21 3.047 2.701 3.047s2.703-1.364 2.703-3.047v-4.836c0-2.376 1.926-4.973 4.301-4.973h37.31c2.374 0 4.303 2.596 4.303 4.973v26.16c0 1.681 1.212 3.049 2.703 3.049s2.699-1.367 2.699-3.049v-29.4c0-3.958-3.214-7.172-7.172-7.172zm-46.85 25.9-0.00391 0.0059c-1.491 0-2.701 1.364-2.701 3.047v27.86c0 3.958 3.216 7.172 7.174 7.172h23.9c1.491 0 2.701-1.365 2.701-3.047 0-1.683-2.701-2.381-2.701-2.381h-21.36c-2.374 0-4.305-2.594-4.305-4.971v-24.65c0-1.683-1.212-3.045-2.703-3.045zm51.33 19.81c-1.491 0-2.703 1.364-2.703 3.047v4.836c0 2.376-1.928 4.973-4.303 4.973-1.35 0.0056-3.067-0.0066-4.051 0-0.9833 0.0065-2.451 0.6962-2.451 2.379 0 1.681 1.211 3.049 2.703 3.049h6.332c3.958 0 7.172-3.216 7.172-7.174v-8.062c0-1.683-1.208-3.045-2.699-3.045z" fill="url(#a)"/>
 <path transform="translate(.009199 .009599) scale(.9999)" d="m19.38 18.1a5.052 5.052 0 0 0-5.052 5.052v16.42a6.314 6.314 0 0 0 6.314 6.314h22.73a6.314 6.314 0 0 0 6.314-6.314v-11.37a5.052 5.052 0 0 0-5.052-5.052 5.052 5.052 0 0 0-5.052-5.052zm7e-3 2.523-7e-3 0.0035h20.21a2.525 2.525 0 0 1 2.526 2.526v15.16a1.263 1.263 0 0 0 1.262 1.262 1.263 1.263 0 0 0 1.262-1.262v-12.63a2.525 2.525 0 0 1 2.526 2.526v11.37a3.788 3.788 0 0 1-3.788 3.79h-22.72a3.788 3.788 0 0 1-3.788-3.79v-16.42a2.525 2.525 0 0 1 2.526-2.526z" fill="url(#a)"/>
 <path transform="translate(.009199 .009599) scale(.9999)" d="m20.64 25.68a1.263 1.263 0 0 0 0 2.526h17.68a1.263 1.263 0 0 0 0-2.526zm0 5.052a1.263 1.263 0 0 0-1.264 1.262v5.052a1.263 1.263 0 0 0 1.264 1.262h5.05a1.263 1.263 0 0 0 1.264-1.262v-5.052a1.263 1.263 0 0 0-1.264-1.262zm10.11 0a1.264 1.264 0 0 0 0 2.526h7.578a1.264 1.264 0 0 0 0-2.526zm-8.84 2.526h2.528v2.526h-2.528zm8.84 2.526a1.263 1.263 0 0 0 0 2.526h7.578a1.263 1.263 0 0 0 0-2.526z" fill="url(#a)"/>
</svg>
