<svg version="1.1" viewBox="0 0 64 64" xmlns="http://www.w3.org/2000/svg">
 <defs>
  <linearGradient id="a" x1="1" x2="0" y2="1">
   <stop stop-color="#0078ff" offset="0"/>
   <stop stop-color="#00fffa" offset="1"/>
  </linearGradient>
 </defs>
 <path transform="translate(0) scale(1) translate(-2e-5) scale(1) translate(.008199 .003999) scale(.9998) translate(-2e-4) scale(1)" d="m10.8 0c-3.959 0-7.174 3.215-7.174 7.174v8.064c0 1.683 1.21 3.047 2.701 3.047s2.703-1.364 2.703-3.047v-4.838c0-2.377 1.928-4.973 4.303-4.973h37.32c2.375 0 4.303 2.596 4.303 4.973v26.17c0 1.681 1.212 3.049 2.703 3.049s2.701-1.367 2.701-3.049v-29.4c0-3.959-3.215-7.174-7.174-7.174zm-4.473 25.91c-1.491 0-2.701 1.364-2.701 3.047v27.87c0 3.959 3.215 7.174 7.174 7.174h23.9c1.491 0 2.701-1.365 2.701-3.047 0-1.683-2.701-2.381-2.701-2.381h-21.36c-2.375 0-4.305-2.596-4.305-4.973v-24.65c0-1.683-1.212-3.047-2.703-3.047zm51.34 19.81c-1.491 0-2.703 1.364-2.703 3.047v4.838c0 2.377-1.928 4.973-4.303 4.973-1.35 0.0056-3.069-0.0066-4.053 0-0.9835 0.0065-2.451 0.696-2.451 2.379 0 1.681 1.211 3.049 2.703 3.049h6.334c3.959 0 7.174-3.215 7.174-7.174v-8.064c0-1.683-1.21-3.047-2.701-3.047z" fill="url(#a)"/>
 <path transform="translate(0) scale(1) translate(-2e-5) scale(1) translate(.008199 .003999) scale(.9998)" d="m17.97 16.56a5.614 5.614 0 0 0-5.614 5.614v18.25a7.017 7.017 0 0 0 7.017 7.017h25.26a7.017 7.017 0 0 0 7.017-7.017v-12.63a5.614 5.614 0 0 0-5.614-5.614 5.614 5.614 0 0 0-5.614-5.614zm0 2.807h22.46a2.807 2.807 0 0 1 2.807 2.807v16.84a1.403 1.403 0 0 0 1.403 1.403 1.403 1.403 0 0 0 1.403-1.403v-14.03a2.807 2.807 0 0 1 2.807 2.807v12.63a4.21 4.21 0 0 1-4.21 4.21h-25.26a4.21 4.21 0 0 1-4.21-4.21v-18.25a2.807 2.807 0 0 1 2.807-2.807z" fill="url(#a)" stroke-width="2.807"/>
 <path transform="translate(0) scale(1) translate(-2e-5) scale(1) translate(.008199 .003999) scale(.9998)" d="m19.37 24.98a1.403 1.403 0 0 0 0 2.807h19.65a1.403 1.403 0 0 0 0-2.807h-19.65zm0 5.613a1.403 1.403 0 0 0-1.404 1.404v5.613a1.403 1.403 0 0 0 1.404 1.404h5.613a1.403 1.403 0 0 0 1.404-1.404v-5.613a1.403 1.403 0 0 0-1.404-1.404h-5.613zm11.23 0a1.404 1.404 0 0 0 0 2.809h8.422a1.404 1.404 0 0 0 0-2.809h-8.422zm-9.824 2.809h2.809v2.807h-2.809v-2.807zm9.824 2.807a1.403 1.403 0 0 0 0 2.807h8.422a1.403 1.403 0 0 0 0-2.807h-8.422z" fill="url(#a)" stroke-width="2.807"/>
</svg>
