<svg version="1.1" viewBox="0 0 64 64" xmlns="http://www.w3.org/2000/svg">
 <defs>
  <linearGradient id="a" y1="1">
   <stop stop-color="#f00" offset="0"/>
   <stop stop-color="#ff0086" offset="1"/>
  </linearGradient>
  <linearGradient id="b" y2="1">
   <stop stop-color="#46d9ff" offset="0"/>
   <stop stop-color="#ff23ff" offset=".5"/>
   <stop stop-color="#ffd93f" offset="1"/>
  </linearGradient>
 </defs>
 <path transform="translate(-0) scale(1) translate(-0) scale(1) translate(-0) scale(1) translate(-0) scale(1) translate(-2e-5) scale(1) translate(.00105 9.4e-5) scale(.9998) matrix(.9999 0 0 .9999 .008509 .003906)" d="m53.19-0.003906-42.39 0.003906c-3.959 0-7.174 3.215-7.174 7.174v8.064c0 1.683 1.21 3.047 2.701 3.047s2.703-1.364 2.703-3.047v-4.838c0-2.377 1.928-4.973 4.303-4.973h37.32c2.375 0 4.303 2.596 4.303 4.973v26.17c0 1.681 1.212 3.049 2.703 3.049s2.701-1.367 2.701-3.049v-29.4c0-3.959-3.215-7.174-7.174-7.174zm-46.85 25.91-0.00586 0.0078c-1.491 0-2.701 1.364-2.701 3.047v27.87c0 3.959 3.215 7.176 7.174 7.176h23.9c1.491 0 2.701-1.367 2.701-3.049 0-1.683-2.701-2.381-2.701-2.381h-21.36c-2.375 0-4.305-2.596-4.305-4.973v-24.65c0-1.683-1.212-3.047-2.703-3.047zm51.33 19.82c-1.491 0-2.703 1.364-2.703 3.047v4.838c0 2.377-1.928 4.973-4.303 4.973-1.35 0.0056-3.069-0.0066-4.053 0-0.9835 0.0065-2.451 0.6959-2.451 2.379 0 1.681 1.211 3.049 2.703 3.049h6.334c3.959 0 7.174-3.215 7.174-7.174v-8.064c0-1.683-1.21-3.047-2.701-3.047z" fill="url(#a)"/>
 <path transform="translate(-0) scale(1) translate(-0) scale(1) translate(-0) scale(1) translate(-0) scale(1) translate(-2e-5) scale(1) translate(.00105 9.4e-5) scale(.9998) matrix(.9999 0 0 .9999 .008509 .003906)" d="m32 16.98-15.8 11.85c-0.03429 0.02247-0.06573 0.04939-0.09766 0.07422l-0.01758 0.01367v2e-3c-0.3855 0.3027-0.6387 0.7691-0.6387 1.299v13.28h0.0059l1.709-2.203 1.106 2.768 2.152-1.568 1.606 4.41 2.176-3.406 2.223 2.412 1.236-3.055 1.354 1.631 1.865-1.951 1.898 4.475h0.5195l1.799-6.488 1.381 4.309 1.58-2.436 2.037 4.615h0.6016l1.004-3.512 1.75 1.106 1.693-1.617 1.75 1.473 1.664-0.8867v-13.35c0-0.5416-0.2624-1.017-0.6621-1.318l0.0059-0.0098zm0 7.564a5.912 5.912 0 0 1 5.912 5.912v1.773c0 0.9826-0.7908 1.773-1.773 1.773a1.769 1.769 0 0 1-1.621-1.053 3.547 3.547 0 0 1-2.518 1.053 3.547 3.547 0 0 1-3.547-3.547 3.547 3.547 0 0 1 3.547-3.547 3.547 3.547 0 0 1 3.547 3.547v1.773a0.592 0.592 0 1 0 1.184 0v-1.773a4.73 4.73 0 0 0-4.73-4.73 4.73 4.73 0 0 0-4.73 4.73 4.73 4.73 0 0 0 4.73 4.73h4.139a0.5912 0.5912 0 1 1 0 1.182h-4.139a5.912 5.912 0 0 1-5.912-5.912 5.912 5.912 0 0 1 5.912-5.912zm0 3.547a2.365 2.365 0 0 0-2.365 2.365 2.365 2.365 0 0 0 2.365 2.365 2.365 2.365 0 0 0 2.365-2.365 2.365 2.365 0 0 0-2.365-2.365z" fill="url(#a)" opacity=".5"/>
 <path transform="translate(-0) scale(1) translate(-0) scale(1) translate(-0) scale(1) translate(-0) scale(1) translate(-2e-5) scale(1) translate(.00105 9.4e-5) scale(.9998) translate(.008509 .003906) scale(.9999)" d="m20.77 21c-0.9826 0-1.773 0.792-1.773 1.773v17.74c0 0.9814 0.7908 1.772 1.773 1.772h13.84l0.4863-1.758 0.5644 1.758h7.574c0.9814 0 1.773-0.7901 1.773-1.772v-17.74c0-0.9814-0.792-1.773-1.773-1.773zm11.23 3.547a5.912 5.912 0 0 1 5.912 5.912v1.773c0 0.9826-0.7908 1.773-1.773 1.773a1.769 1.769 0 0 1-1.621-1.053 3.547 3.547 0 0 1-2.518 1.053 3.547 3.547 0 0 1-3.547-3.547 3.547 3.547 0 0 1 3.547-3.547 3.547 3.547 0 0 1 3.547 3.547v1.773a0.5918 0.5918 0 1 0 1.184 0v-1.773a4.73 4.73 0 0 0-4.73-4.73 4.73 4.73 0 0 0-4.73 4.73 4.73 4.73 0 0 0 4.73 4.73h4.139a0.5912 0.5912 0 1 1 0 1.182h-4.139a5.912 5.912 0 0 1-5.912-5.912 5.912 5.912 0 0 1 5.912-5.912zm0 3.547a2.365 2.365 0 0 0-2.365 2.365 2.365 2.365 0 0 0 2.365 2.365 2.365 2.365 0 0 0 2.365-2.365 2.365 2.365 0 0 0-2.365-2.365z" fill="url(#b)"/>
 <path transform="translate(-0) scale(1) translate(-0) scale(1) translate(-0) scale(1) translate(-0) scale(1) translate(-2e-5) scale(1) translate(.00105 9.4e-5) scale(.9998) matrix(.9999 0 0 .9999 .008509 .003906)" d="m15.44 30.23v13.28h0.0059l1.709-2.203 1.106 2.768 2.152-1.568 1.606 4.41 2.176-3.406 2.223 2.412 1.236-3.055 1.354 1.631 1.865-1.951 2.213 5.215 1.273-4.588zm20.94 14.32 0.08984 0.2832 0.09961-0.1523zm3.756 2.57 0.3164 0.7188 0.1211-0.4199z" fill="url(#a)"/>
 <path transform="translate(-0) scale(1) translate(-0) scale(1) translate(-0) scale(1) translate(-0) scale(1) translate(-2e-5) scale(1) translate(.00105 9.4e-5) scale(.9998) matrix(.9999 0 0 .9999 .008509 .003906)" d="m48.56 30.23-20.02 13.69 0.4746 0.5703 1.865-1.949 2.213 5.213 2.004-7.227 1.381 4.309 1.58-2.438 2.402 5.441 1.24-4.336 1.75 1.106 1.693-1.617 1.75 1.473 1.664-0.8867zm-21.82 14.93-0.6172 0.4199 0.3086 0.3379z" fill="url(#a)"/>
</svg>
