<svg version="1.1" viewBox="0 0 64 64" xmlns="http://www.w3.org/2000/svg">
 <defs>
  <linearGradient id="a" y1="1">
   <stop stop-color="#2a7fff" offset="0"/>
   <stop stop-color="#2affd5" offset=".5"/>
   <stop stop-color="#0fc" offset="1"/>
  </linearGradient>
 </defs>
 <path transform="translate(.00105 9.4e-5) scale(.9998) translate(.008509 .003906) scale(.9999)" d="m53.19-0.003906-42.39 0.003906c-3.959 0-7.174 3.215-7.174 7.174v8.064c0 1.683 1.21 3.047 2.701 3.047s2.703-1.364 2.703-3.047v-4.838c0-2.377 1.928-4.973 4.303-4.973h37.32c2.375 0 4.303 2.596 4.303 4.973v26.17c0 1.681 1.212 3.049 2.703 3.049s2.701-1.367 2.701-3.049v-29.4c0-3.959-3.215-7.174-7.174-7.174zm-46.85 25.91-0.00586 0.0078c-1.491 0-2.701 1.364-2.701 3.047v27.87c0 3.959 3.215 7.176 7.174 7.176h23.9c1.491 0 2.701-1.367 2.701-3.049 0-1.683-2.701-2.381-2.701-2.381h-21.36c-2.375 0-4.305-2.596-4.305-4.973v-24.65c0-1.683-1.212-3.047-2.703-3.047zm51.33 19.82c-1.491 0-2.703 1.364-2.703 3.047v4.838c0 2.377-1.928 4.973-4.303 4.973-1.35 0.0056-3.069-0.0066-4.053 0-0.9835 0.0065-2.451 0.6959-2.451 2.379 0 1.681 1.211 3.049 2.703 3.049h6.334c3.959 0 7.174-3.215 7.174-7.174v-8.064c0-1.683-1.21-3.047-2.701-3.047z" fill="url(#a)"/>
 <path transform="translate(.00105 9.4e-5) scale(.9998) translate(.008509 .003906) scale(.9999)" d="m32 14.73c-0.8106 0-1.619 0.2089-2.346 0.623a1.57 1.57 0 0 0-0.0039 0l-10.99 6.293a1.57 1.57 0 0 0-0.0039 0.0039c-0.6181 0.3544-1.072 0.889-1.465 1.457a1.57 1.57 0 0 0-0.2578 0.1992 1.57 1.57 0 0 0 0.01172 0.04687c-0.4136 0.7049-0.6465 1.512-0.6465 2.356v12.59c0 1.676 0.9067 3.226 2.361 4.059l10.99 6.293a1.57 1.57 0 0 0 0.0039 0.0039c0.7258 0.4135 1.533 0.6187 2.342 0.6191h0.003898a1.57 1.57 0 0 0 0.0039 0c0.8095-5.07e-4 1.616-0.2057 2.342-0.6191a1.57 1.57 0 0 0 0.0039-0.0039l10.99-6.293a1.57 1.57 0 0 0 0.0039 0c1.453-0.8339 2.357-2.387 2.357-4.062v-12.59a1.57 1.57 0 0 0 0-0.0039c-0.0014-0.813-0.2336-1.589-0.6191-2.275a1.57 1.57 0 0 0-0.01563-0.123 1.57 1.57 0 0 0-0.248-0.1894c-0.3934-0.5741-0.8544-1.113-1.478-1.469h-2e-3l-10.99-6.295a1.57 1.57 0 0 0-0.0039 0c-0.7265-0.414-1.535-0.623-2.346-0.623zm0 3.141c0.2739 0 0.5481 0.07026 0.7949 0.2109l10.13 5.801-10.93 6.309-10.93-6.309 10.13-5.801c0.2469-0.1406 0.521-0.2109 0.7949-0.2109zm-12.56 8.695 10.99 6.344v12.57l-10.21-5.85c-0.4896-0.28-0.7793-0.7811-0.7793-1.332zm25.12 0v11.73c0 0.547-0.2896 1.052-0.7773 1.334h-0.0039v0.0039l-10.21 5.846v-12.57z" fill="url(#a)"/>
</svg>
