<svg version="1.1" viewBox="0 0 64 64" xmlns="http://www.w3.org/2000/svg" xmlns:xlink="http://www.w3.org/1999/xlink">
 <defs>
  <linearGradient id="a" x1="1" x2="0" y1="1">
   <stop stop-color="#ff0073" offset="0"/>
   <stop stop-color="#5a00ff" offset="1"/>
  </linearGradient>
  <linearGradient id="b" y1=".5" y2=".5">
   <stop stop-color="#f0f" offset="0"/>
   <stop stop-color="#ff0080" offset="1"/>
  </linearGradient>
  <linearGradient id="c" x1="20.31" x2="10.32" y1="14.04" y2="4.057" gradientTransform="matrix(1.174 0 0 2.275 14.02 14.02)" gradientUnits="userSpaceOnUse" xlink:href="#a"/>
  <linearGradient id="f" x1="9.335" x2="20.37" y1="9.332" y2="9.332" gradientTransform="matrix(1.211 0 0 2.207 14.02 14.02)" gradientUnits="userSpaceOnUse" xlink:href="#b"/>
  <linearGradient id="e" x1="17.49" x2=".201" y1="20.33" y2="3.045" gradientTransform="matrix(2.032 0 0 1.314 14.02 14.02)" gradientUnits="userSpaceOnUse" xlink:href="#a"/>
  <linearGradient id="d" x1="-.2027" x2="18.11" y1="11.55" y2="11.55" gradientTransform="matrix(2.008 0 0 1.33 14.02 14.02)" gradientUnits="userSpaceOnUse" xlink:href="#b"/>
  <linearGradient id="g" x1="1" x2="0" y2="1">
   <stop stop-color="#007bf6" offset="0"/>
   <stop stop-color="#d60cff" offset=".5"/>
   <stop stop-color="#ff167a" offset="1"/>
  </linearGradient>
 </defs>
 <path transform="translate(.008199 .003999) scale(.9998) translate(-2e-4) scale(1)" d="m10.8 0c-3.959 0-7.174 3.215-7.174 7.174v8.064c0 1.683 1.21 3.047 2.701 3.047s2.703-1.364 2.703-3.047v-4.838c0-2.377 1.928-4.973 4.303-4.973h37.32c2.375 0 4.303 2.596 4.303 4.973v26.17c0 1.681 1.212 3.049 2.703 3.049s2.701-1.367 2.701-3.049v-29.4c0-3.959-3.215-7.174-7.174-7.174zm-4.473 25.91c-1.491 0-2.701 1.364-2.701 3.047v27.87c0 3.959 3.215 7.174 7.174 7.174h23.9c1.491 0 2.701-1.365 2.701-3.047 0-1.683-2.701-2.381-2.701-2.381h-21.36c-2.375 0-4.305-2.596-4.305-4.973v-24.65c0-1.683-1.212-3.047-2.703-3.047zm51.34 19.81c-1.491 0-2.703 1.364-2.703 3.047v4.838c0 2.377-1.928 4.973-4.303 4.973-1.35 0.0056-3.069-0.0066-4.053 0-0.9835 0.0065-2.451 0.696-2.451 2.379 0 1.681 1.211 3.049 2.703 3.049h6.334c3.959 0 7.174-3.215 7.174-7.174v-8.064c0-1.683-1.21-3.047-2.701-3.047z" fill="url(#g)"/>
 <path transform="translate(.008199 .003999) scale(.9998)" d="m32 23.25c-2.635 0-4.725 1.904-5.462 4.414h2.117c0.9223-1e-6 1.667 0.7793 1.667 1.714 0 0.9349-0.7425 1.718-1.667 1.718h-2.515v1.795h2.515c0.9238 0 1.667 0.7856 1.667 1.721 0 0.935-0.744 1.714-1.667 1.714h-2.148c0.6207 2.139 2.213 3.844 4.325 4.29a0.4086 0.4086 0 0 1 0.3256 0.399v4.057c0 0.5106 0.3798 0.897 0.8427 0.897 0.4629 0 0.846-0.3865 0.846-0.897v-4.057a0.4086 0.4086 0 0 1 0.3225-0.399c2.11-0.4467 3.7-2.152 4.323-4.29h-3.818c-0.9223 0-1.664-0.7806-1.664-1.714 0-0.9336 0.7394-1.721 1.664-1.721h4.191v-1.795h-4.191c-0.9238 0-1.664-0.7839-1.664-1.718 0-0.9337 0.7407-1.714 1.664-1.714h3.789c-0.7376-2.51-2.826-4.414-5.462-4.414z" fill="url(#c)" stop-color="#000000" stroke-linecap="round" stroke-linejoin="round" stroke-width=".9779"/>
 <path transform="translate(.008199 .003999) scale(.9998)" d="m32 22.44c-3.236 0-5.928 2.396-6.544 5.56a0.4086 0.4086 0 0 0 0.399 0.4852h2.8c0.4629 0 0.8491 0.3877 0.8491 0.897 0 0.5089-0.3875 0.9002-0.8491 0.9002h-2.924a0.4086 0.4086 0 0 0-0.4086 0.4119v2.612a0.4086 0.4086 0 0 0 0.4086 0.4086h2.924c0.4616 0 0.8491 0.3911 0.8491 0.9002 0 0.5093-0.3862 0.897-0.8491 0.897h-2.8a0.4086 0.4086 0 0 0-0.399 0.4884c0.5036 2.587 2.439 4.568 4.884 5.238v3.838c0 0.9337 0.7376 1.714 1.661 1.714 0.9229 0 1.664-0.7806 1.664-1.714v-3.838c2.443-0.6722 4.38-2.653 4.884-5.238a0.4086 0.4086 0 0 0-0.4022-0.4884h-4.472c-0.4629 0-0.8427-0.3865-0.8427-0.897 0-0.5103 0.3811-0.9002 0.8427-0.9002h4.602a0.4086 0.4086 0 0 0 0.4053-0.4086v-2.612a0.4086 0.4086 0 0 0-0.4053-0.4119h-4.602c-0.4616 0-0.8427-0.3898-0.8427-0.9002 0-0.5106 0.3798-0.897 0.8427-0.897h4.472a0.4086 0.4086 0 0 0 0.4022-0.4852c-0.6162-3.164-3.311-5.56-6.547-5.56zm0 0.8139c2.635 0 4.725 1.904 5.462 4.414h-3.789c-0.9223 0-1.664 0.7806-1.664 1.714 0 0.9336 0.7394 1.718 1.664 1.718h4.191v1.795h-4.191c-0.9238 0-1.664 0.787-1.664 1.721 0 0.9337 0.7407 1.714 1.664 1.714h3.818c-0.6224 2.138-2.211 3.844-4.323 4.29a0.4086 0.4086 0 0 0-0.3225 0.399v4.057c0 0.5106-0.3829 0.897-0.846 0.897s-0.8427-0.3865-0.8427-0.897v-4.057a0.4086 0.4086 0 0 0-0.3256-0.399c-2.112-0.4465-3.705-2.151-4.325-4.29h2.148c0.9223 0 1.667-0.7793 1.667-1.714 0-0.9349-0.7425-1.721-1.667-1.721h-2.515v-1.795h2.515c0.9238 0 1.667-0.7825 1.667-1.718 0-0.935-0.744-1.714-1.667-1.714h-2.117c0.7373-2.51 2.826-4.414 5.462-4.414z" fill="url(#f)" stop-color="#000000" stroke-linecap="round" stroke-linejoin="round" stroke-width=".9779"/>
 <path transform="translate(.008199 .003999) scale(.9998)" d="m32 18.02c-5.764 0-10.49 4.674-10.86 10.61a0.4086 0.4086 0 0 1-0.6033 0.3352c-0.5753-0.311-1.224-0.4852-1.919-0.4852-2.309 0-4.191 1.95-4.191 4.387v3.486c0 2.435 1.881 4.39 4.191 4.39 0.06817 0 0.1449-0.0077 0.2331-0.01275a0.4086 0.4086 0 0 1 0.02873 0.01275c2.167-0.0015 3.929-1.834 3.929-4.12v-7.244c0-5.266 4.109-9.558 9.187-9.558 5.078 0 9.184 4.29 9.184 9.558v7.244c0 2.285 1.767 4.119 3.932 4.12a0.4086 0.4086 0 0 1 0.02873-0.01275c0.08817 0.0051 0.1646 0.01275 0.2331 0.01275 2.309 0 4.191-1.953 4.191-4.39v-3.486c2e-6 -2.435-1.881-4.387-4.191-4.387-0.694 0-1.346 0.1741-1.922 0.4852a0.4086 0.4086 0 0 1-0.6001-0.3352c-0.3687-5.936-5.091-10.61-10.86-10.61z" fill="url(#e)" stop-color="#000000" stroke-linecap="round" stroke-linejoin="round" stroke-width=".9779"/>
 <path transform="translate(.008199 .003999) scale(.9998)" d="m32 17.21c-6.047 0-10.94 4.808-11.56 10.92-0.5756-0.2389-1.166-0.4629-1.822-0.4629-2.77 0-5.008 2.344-5.008 5.204v3.486c0 2.86 2.237 5.207 5.008 5.207 0.09128 0 0.1683-0.0085 0.2425-0.01275a0.4086 0.4086 0 0 0 0.01597 0.01275c2.628 0 4.75-2.226 4.75-4.937v-7.244c0-4.843 3.751-8.741 8.37-8.741 4.619 0 8.37 3.896 8.37 8.741v7.244c0 2.711 2.121 4.937 4.75 4.937a0.4086 0.4086 0 0 0 0.01275-0.0096c0.07427 0.0042 0.1543 0.0096 0.2458 0.0096 2.77 0 5.006-2.347 5.004-5.207v-3.486c0-2.86-2.236-5.204-5.004-5.204-0.6552 0-1.248 0.2215-1.822 0.4596-0.6167-6.109-5.51-10.92-11.56-10.92zm0 0.8139c5.764 0 10.49 4.674 10.86 10.61a0.4086 0.4086 0 0 0 0.6001 0.3352c0.576-0.3112 1.228-0.4852 1.922-0.4852 2.309 0 4.191 1.95 4.191 4.387v3.486c0 2.435-1.881 4.39-4.191 4.39-0.06838 0-0.1449-0.0077-0.2331-0.01275a0.4086 0.4086 0 0 0-0.02873 0.01275c-2.167-0.0016-3.932-1.835-3.932-4.12v-7.244c0-5.266-4.106-9.558-9.184-9.558-5.078 0-9.187 4.29-9.187 9.558v7.244c0 2.288-1.764 4.12-3.929 4.12a0.4086 0.4086 0 0 0-0.02873-0.01275c-0.08811 0.0051-0.1649 0.01275-0.2331 0.01275-2.309 0-4.191-1.953-4.191-4.39v-3.486c0-2.435 1.881-4.387 4.191-4.387 0.6943 0 1.343 0.1741 1.919 0.4852a0.4086 0.4086 0 0 0 0.6033-0.3352c0.3686-5.936 5.091-10.61 10.86-10.61z" fill="url(#d)" stop-color="#000000" stroke-linecap="round" stroke-linejoin="round" stroke-width=".9779"/>
</svg>
