<svg version="1.1" viewBox="0 0 64 64" xmlns="http://www.w3.org/2000/svg">
 <defs>
  <linearGradient id="a" x1="1" x2="0" y2="1">
   <stop stop-color="#0cf" offset="0"/>
   <stop stop-color="#006cff" offset="1"/>
  </linearGradient>
 </defs>
 <path transform="translate(0) scale(1) translate(0) scale(1) translate(.004) scale(1) translate(.006)" d="M10.8 0a7.177 7.177 0 0 0-7.174 7.174v29.4c0 1.681 1.206 3.047 2.697 3.047s2.701-1.366 2.701-3.047v-26.17a4.31 4.31 0 0 1 4.307-4.307h32.17q.354.001.676-.1.32.101.676.1h3.8a4.31 4.31 0 0 1 4.306 4.307v4.838c0 1.681 1.21 3.047 2.7 3.047 1.492 0 2.702-1.366 2.702-3.047V7.178A7.176 7.176 0 0 0 53.189.004h-6.336c-.235 0-.463.034-.676.103A2.2 2.2 0 0 0 45.5.004h-34.7zm46.86 25.9v.002l-.006.002c-1.49 0-2.7 1.366-2.7 3.047v24.65a4.307 4.307 0 0 1-4.306 4.305h-21.36c-1.492 0-2.703 1.366-2.703 3.047 0 1.683 1.211 3.047 2.703 3.047h23.9a7.174 7.174 0 0 0 7.172-7.172v-27.88c0-1.681-1.208-3.047-2.699-3.047zM6.32 45.71v.004c-1.491 0-2.701 1.366-2.701 3.047v8.064a7.176 7.176 0 0 0 7.174 7.172h6.334c1.491 0 2.703-1.364 2.703-3.047 0-1.681-1.212-3.047-2.703-3.047h-3.801a4.31 4.31 0 0 1-4.305-4.307v-4.84c0-1.681-1.21-3.047-2.701-3.047z" fill="url(#a)"/>
 <path transform="translate(0) scale(1) translate(0) scale(1) translate(.004) scale(1)" d="M25.116 39.72a.58.58 0 0 0-.36.139l-9.741 8.27a.58.58 0 0 0 .375 1.024h30.25c.638 0 .809-.882.216-1.121l-20.51-8.27a.6.6 0 0 0-.234-.043z" fill="#0f0"/>
 <path transform="translate(0) scale(1) translate(0) scale(1) translate(.004) scale(1)" d="m33.146 16.34-.002.004c-.32-.011-.645.234-.61.633l2.278 25.48a.58.58 0 0 0 .36.486l13.22 5.336a.58.58 0 0 0 .737-.797l-15.5-30.82a.56.56 0 0 0-.488-.32z" fill="red"/>
 <path transform="translate(0) scale(1) translate(0) scale(1) translate(.004) scale(1)" d="M31.086 14.85a.56.56 0 0 0-.533.318l-15.34 30.33c-.286.566.41 1.116.892.705l16.72-14.21a.58.58 0 0 0 .203-.49l-1.387-16.12h-.002a.573.573 0 0 0-.55-.53z" fill="#0cf"/>
</svg>
