<svg version="1.1" viewBox="0 0 64 64" xmlns="http://www.w3.org/2000/svg">
 <defs>
  <linearGradient id="a" y1=".5" y2=".5">
   <stop stop-color="#ffc025" offset="0"/>
   <stop stop-color="#ffff7f" offset="1"/>
  </linearGradient>
 </defs>
 <path transform="translate(0) scale(1) translate(0) scale(1) translate(.004) scale(1) translate(.006)" d="M10.8 0a7.177 7.177 0 0 0-7.174 7.174v29.4c0 1.681 1.206 3.047 2.697 3.047s2.701-1.366 2.701-3.047v-26.17a4.31 4.31 0 0 1 4.307-4.307h32.17q.354.001.676-.1.32.101.676.1h3.8a4.31 4.31 0 0 1 4.306 4.307v4.838c0 1.681 1.21 3.047 2.7 3.047 1.492 0 2.702-1.366 2.702-3.047V7.178A7.176 7.176 0 0 0 53.189.004h-6.336c-.235 0-.463.034-.676.103A2.2 2.2 0 0 0 45.5.004h-34.7zm46.86 25.9v.002l-.006.002c-1.49 0-2.7 1.366-2.7 3.047v24.65a4.307 4.307 0 0 1-4.306 4.305h-21.36c-1.492 0-2.703 1.366-2.703 3.047 0 1.683 1.211 3.047 2.703 3.047h23.9a7.174 7.174 0 0 0 7.172-7.172v-27.88c0-1.681-1.208-3.047-2.699-3.047zM6.32 45.71v.004c-1.491 0-2.701 1.366-2.701 3.047v8.064a7.176 7.176 0 0 0 7.174 7.172h6.334c1.491 0 2.703-1.364 2.703-3.047 0-1.681-1.212-3.047-2.703-3.047h-3.801a4.31 4.31 0 0 1-4.305-4.307v-4.84c0-1.681-1.21-3.047-2.701-3.047z" fill="url(#a)"/>
 <path transform="translate(0) scale(1) translate(0) scale(1) translate(.004) scale(1) translate(.006)" d="M32.01 13.64q-3.836 0-7.166 1.445-3.329 1.445-5.818 3.922t-3.914 5.809q-1.425 3.331-1.426 7.164t1.426 7.158a18.4 18.4 0 0 0 3.922 5.822 18.4 18.4 0 0 0 5.824 3.922q3.329 1.426 7.158 1.426t7.162-1.434 5.809-3.916 3.922-5.811 1.445-7.164q0-3.837-1.443-7.178t-3.916-5.812c-2.473-2.471-3.586-2.951-5.811-3.912q-3.337-1.44-7.174-1.441m-.033 4.094q5.984 0 10.13 4.158 4.15 4.158 4.15 10.08 0 5.98-4.158 10.13-4.158 4.152-10.08 4.152-5.98 0-10.13-4.158c-4.15-4.158-4.152-6.132-4.152-10.08q0-5.984 4.158-10.13c4.158-4.146 6.132-4.15 10.08-4.15zm-3.986 6.895q-.835 0-1.236.541-.401.542-.4 1.396v10.9q-.001.836.4 1.365.401.53 1.236.53h7.799q.877 0 1.344-.532.466-.532.467-1.32v-1.725q0-.75-.524-1.258-.522-.508-1.295-.508-.594 0-1.004.307a1.94 1.94 0 0 0-.625.812v.69H29.93v-7.668h4.223v.732q.216.506.654.813.44.307 1.012.306.807 0 1.293-.521.488-.522.489-1.287v-1.725q0-.825-.467-1.34-.465-.512-1.344-.512z" fill="url(#a)"/>
</svg>
