<svg version="1.1" viewBox="0 0 64 64" xmlns="http://www.w3.org/2000/svg">
 <defs>
  <linearGradient id="a" y1="1">
   <stop stop-color="#ff0015" offset="0"/>
   <stop stop-color="#fc00a3" offset="1"/>
  </linearGradient>
 </defs>
 <path transform="translate(.008199 .003999) scale(.9998)" d="m53.19 64c3.959 0 7.174-3.215 7.174-7.174v-8.064c0-1.683-1.21-3.047-2.701-3.047s-2.703 1.364-2.703 3.047v4.838c0 2.377-1.928 4.973-4.303 4.973h-37.32c-2.375 0-4.303-2.596-4.303-4.973v-26.17c0-1.681-1.212-3.049-2.703-3.049s-2.701 1.367-2.701 3.049v29.4c0 3.959 3.215 7.174 7.174 7.174zm4.473-25.91c1.491 0 2.701-1.364 2.701-3.047v-27.87c0-3.959-3.215-7.174-7.174-7.174h-23.9c-1.491 0-2.701 1.365-2.701 3.047 0 1.683 2.701 2.381 2.701 2.381h21.36c2.375 0 4.305 2.596 4.305 4.973v24.65c0 1.683 1.212 3.047 2.703 3.047zm-51.34-19.81c1.491 0 2.703-1.364 2.703-3.047v-4.838c0-2.377 1.928-4.973 4.303-4.973 1.35-0.0056 3.069 0.0066 4.053 0 0.9835-0.0065 2.451-0.696 2.451-2.379 0-1.681-1.211-3.049-2.703-3.049h-6.334c-3.959 0-7.174 3.215-7.174 7.174v8.064c0 1.683 1.21 3.047 2.701 3.047z" fill="url(#a)"/>
 <path transform="translate(.008199 .003999) scale(.9998)" d="m15.16 16.18c-0.4086 0.5987-0.8172 1.198-1.226 1.797-0.3529 0.5175-0.861 1.394-1.093 1.975-2.537 6.385-0.6486 12.94 0.4676 15.06 0.3051-3.852 2.989-6.666 5.783-4.105-3.756 0.09952-3.87 3.165-3.887 4.351-0.07628 5.22 5.919 9.415 8.119 10.7-2.037-1.99-2.286-4.08-2.176-6.07 0.4742-8.587 14.56-7.743 10.01 0.9009-0.07295-3.798-2.821-5.425-5.286-3.9-2.998 1.854-3.184 7.156 5.04 10.22 3.382 1.261 8.587 0.9753 13.55-2.04-10.25-0.3482-12.35-11.53-5.118-15.92 1.16-0.7047 2.345-0.9968 3.467-0.9845 4.86 0.05306 8.548 5.818 3.956 8.518-2.416 1.421-4.465-0.9385-4.514-1.153v-0.01349h0.0075c4.879 2.892 6.404-4.882 0.2713-4.425-3.335 0.5539-4.692 4.712-3.654 7.293 1.549 3.858 7.911 3.314 9.6 1.925 2.44-1.466 3.933-4.1 3.939-6.945 0-4.484-3.638-8.119-8.119-8.119-1.113 0.0033-2.214 0.2347-3.233 0.6804v-0.0075l-0.08994 0.04646c-0.04175 0.01963-0.08748 0.03673-0.1289 0.05696l-7.653 3.678c-1.721 0.8287-3.608 1.263-5.518 1.263-7.031 0-12.73-5.698-12.73-12.73 0.01266-0.6794 0.08533-1.37 0.2143-2.058z" fill="url(#a)" stroke-width="1.203"/>
</svg>
