<svg version="1.1" viewBox="0 0 64 64" xmlns="http://www.w3.org/2000/svg">
 <defs>
  <linearGradient id="a" y1="1">
   <stop stop-color="#5433ff" offset="0"/>
   <stop stop-color="#20bdff" offset=".5"/>
   <stop stop-color="#a5fecb" offset="1"/>
  </linearGradient>
 </defs>
 <path transform="translate(.008199 .003999) scale(.9998)" d="m53.19 64c3.959 0 7.174-3.215 7.174-7.174v-8.064c0-1.683-1.21-3.047-2.701-3.047s-2.703 1.364-2.703 3.047v4.838c0 2.377-1.928 4.973-4.303 4.973h-37.32c-2.375 0-4.303-2.596-4.303-4.973v-26.17c0-1.681-1.212-3.049-2.703-3.049s-2.701 1.367-2.701 3.049v29.4c0 3.959 3.215 7.174 7.174 7.174zm4.473-25.91c1.491 0 2.701-1.364 2.701-3.047v-27.87c0-3.959-3.215-7.174-7.174-7.174h-23.9c-1.491 0-2.701 1.365-2.701 3.047 0 1.683 2.701 2.381 2.701 2.381h21.36c2.375 0 4.305 2.596 4.305 4.973v24.65c0 1.683 1.212 3.047 2.703 3.047zm-51.34-19.81c1.491 0 2.703-1.364 2.703-3.047v-4.838c0-2.377 1.928-4.973 4.303-4.973 1.35-0.0056 3.069 0.0066 4.053 0 0.9835-0.0065 2.451-0.696 2.451-2.379 0-1.681-1.211-3.049-2.703-3.049h-6.334c-3.959 0-7.174 3.215-7.174 7.174v8.064c0 1.683 1.21 3.047 2.701 3.047z" fill="url(#a)"/>
 <path transform="translate(.008199 .003999) scale(.9998)" d="m33.37 14.55c-3.968 0-7.639 1.331-10.57 3.569-0.4201 0.3205-0.8227 0.6586-1.21 1.013-3.047 2.792-5.103 6.653-5.569 10.99-0.06655 0.6188-0.1008 1.248-0.1008 1.884 0 9.622 7.829 17.45 17.45 17.45 5.908 0 11.36-3.085 14.56-7.995a0.8604 0.8604 0 0 0-0.289-1.215l-6.063-3.51a0.8604 0.8604 0 0 0-1.134 0.247c-1.635 2.308-4.244 3.747-7.074 3.747-4.81 0-8.726-3.916-8.726-8.726 0-0.2993 0.01536-0.5968 0.04536-0.8906 0.4483-4.388 4.171-7.835 8.68-7.835 2.477 0 4.782 1.101 6.417 2.924 0.2338 0.2607 0.4529 0.5351 0.657 0.8233a0.8604 0.8604 0 0 0 1.134 0.247l6.063-3.51a0.8604 0.8604 0 0 0 0.289-1.215c-3.202-4.909-8.654-7.995-14.56-7.995z" fill="url(#a)" stop-color="#000000" stroke-linecap="round" stroke-linejoin="round"/>
</svg>
