<svg version="1.1" viewBox="0 0 64 64" xmlns="http://www.w3.org/2000/svg">
 <defs>
  <linearGradient id="a" x1="1" x2="0" y2="1">
   <stop stop-color="#00ffc3" offset="0"/>
   <stop stop-color="#00ff69" offset="1"/>
  </linearGradient>
 </defs>
 <path transform="translate(0) scale(1) translate(0) scale(1) translate(.00065) scale(1) translate(-7e-4) scale(1)" d="m30.22 0-19.94 0.003906a7.242 7.242 0 0 0-7.238 7.238v49.22c0 3.996 3.243 7.535 7.238 7.535h21.72a2.896 2.896 0 0 0 0-5.791h-18.82c-2.398 0-4.342-2.242-4.342-4.639v-43.43a4.344 4.344 0 0 1 4.342-4.342h17.71c0.7999 0 1.891 0.4738 2.438 1.055l0.3125 0.334c0.472 0.503 0.9741 0.9469 1.416 1.508l19.44 24.7c0.9639 1.034 2.986 0.7134 3.863-0.1035 0.8759-0.8179 1.333-2.812 0.3691-3.846l-1.07-1.195-19.61-24.57-0.4961-0.5234a6.999 6.999 0 0 0-0.7227-0.6582c-1.768-1.422-4.524-2.494-6.609-2.494zm14.81 0.003906c-1.598 0-2.898 1.3-2.898 2.896 0 1.597 1.301 2.894 2.898 2.894h5.789a4.344 4.344 0 0 1 4.342 4.342v5.791a2.896 2.896 0 0 0 5.791 0v-8.686a7.239 7.239 0 0 0-7.236-7.238zm13.03 45.17a2.897 2.897 0 0 0-2.896 2.894v5.793a4.345 4.345 0 0 1-4.342 4.344h-5.789c-1.598 0-2.898 1.296-2.898 2.894s1.301 2.894 2.898 2.894h8.686a7.239 7.239 0 0 0 7.236-7.238v-8.686a2.895 2.895 0 0 0-2.894-2.894z" fill="url(#a)"/>
 <path transform="translate(0) scale(1) translate(0) scale(1) translate(.00065) scale(1) translate(-7e-4) scale(1)" d="m22.27 20.7c-3.321 0-5.793 1.19-7.426 3.568-1.628 2.356-2.443 5.768-2.443 10.24 0 4.562 0.8155 8.031 2.443 10.43 1.136 1.672 2.664 2.754 4.57 3.254 0 0 0.385-0.01782 0.418 0.3691 0.6579 5.044 3.99 5.053 7.791 5.053 0 0 0.4902 9.7e-4 0.4902-0.459v-2.779c0-0.466-0.4902-0.4668-0.4902-0.4668-1.902 0-2.39 0.1133-2.893-1.688a8.699 8.699 0 0 0 1.801-0.6191 7.899 7.899 0 0 0 3.094-2.691c0.8199-1.19 1.424-2.656 1.814-4.4 0.407-1.742 0.6035-3.743 0.6035-6.002 0-4.516-0.8226-7.948-2.482-10.28-1.655-2.346-4.097-3.51-7.293-3.51zm-0.02539 2.617v0.0117c0.7019 0 1.406 0.274 1.857 0.7539 0.26 0.276 0.5149 0.5738 0.7148 1.012 0.138 0.303 0.2722 0.6513 0.3691 1.029 0.257 1.024 0.4711 1.899 0.5781 3.373s0.2246 3.138 0.2246 5.008c0 1.88-0.1176 3.574-0.2246 5.068-0.107 1.488-0.3212 2.372-0.5781 3.422-0.09499 0.391-0.2361 0.7562-0.3711 1.078-0.017 0.04299-0.03169 0.08591-0.05469 0.1289a4.4 4.4 0 0 1-0.6602 0.9082c-0.45 0.498-1.16 0.7852-1.856 0.7852-0.6919 0-1.42-0.2792-1.856-0.7852-0.442-0.511-0.8328-1.21-1.092-2.211-0.264-1.017-0.4839-1.891-0.5879-3.357-0.104-1.478-0.2324-3.165-0.2324-5.041 0-1.858 0.1224-3.517 0.2324-4.973 0.11-1.452 0.3259-2.308 0.5879-3.295 0.261-0.9859 0.6568-1.681 1.092-2.162 0.436-0.48 1.16-0.7539 1.856-0.7539zm15.21 1.529c-1.473 5.561-0.4938 5.562-3.44 5.562v3.246h1.971v9.728s-0.4988 2.775 1.959 4.164c2.529 1.43 7.275 0.06999 7.369 0v-3.238s-1.072 0.3669-1.857 0.2969c-0.6209 0-1.128-0.2242-1.502-0.6582-0.38-0.44-0.5684-1.084-0.5684-1.953v-8.338h3.928v-3.246h-3.93v-5.56z" fill="url(#a)"/>
</svg>
