<svg style="isolation:isolate" version="1.1" viewBox="0 0 64 64" xmlns="http://www.w3.org/2000/svg">
 <linearGradient id="d" transform="translate(-2.909 -2.909) scale(1.455)" x1=".03118" x2=".9584" y1=".1087" y2=".9752" gradientTransform="matrix(39.01 0 0 44 4.496 2)" gradientUnits="userSpaceOnUse">
  <stop stop-color="#a5f86a" offset="0"/>
  <stop stop-color="#2fce92" offset=".9792"/>
 </linearGradient>
 <path transform="translate(-2.909 -2.909) scale(1.455)" d="m33.75 2.07c-0.147-0.047-0.303-0.07-0.464-0.07h-23.86c-2.722 0-4.932 2.21-4.932 4.932v20.21c0 1.156 0.832 2.095 1.857 2.095s1.858-0.939 1.858-2.095v-17.99c0-1.634 1.326-2.96 2.959-2.96h22.12c0.161 0 0.317-0.023 0.464-0.07 0.147 0.047 0.303 0.07 0.465 0.07h2.613c1.633 0 2.959 1.326 2.959 2.96v3.326c0 1.157 0.833 2.095 1.858 2.095s1.857-0.938 1.857-2.095v-5.544c0-2.722-2.21-4.932-4.932-4.932h-4.355c-0.162 0-0.318 0.023-0.465 0.07zm-19.97 39.74c1.026 0 1.858 0.938 1.858 2.095 0 1.156-0.832 2.095-1.858 2.095h-4.355c-2.722 0-4.932-2.21-4.932-4.932v-5.544c0-1.157 0.832-2.095 1.857-2.095s1.858 0.938 1.858 2.095v3.326c0 1.634 1.326 2.96 2.959 2.96h2.613zm26.01-19.9c0-1.157 0.833-2.095 1.858-2.095s1.857 0.938 1.857 2.095v19.16c0 2.722-2.21 4.932-4.932 4.932h-16.43c-1.025 0-1.857-0.939-1.857-2.095 0-1.157 0.832-2.095 1.857-2.095h14.69c1.633 0 2.959-1.326 2.959-2.96v-16.94z" fill="url(#d)" fill-rule="evenodd"/>
 <linearGradient id="c" transform="translate(-2.909 -2.909) scale(1.455)" x1=".03118" x2=".9584" y1=".1087" y2=".9752" gradientTransform="matrix(11.05 0 0 11.05 18.48 10.61)" gradientUnits="userSpaceOnUse">
  <stop stop-color="#a5f86a" offset="0"/>
  <stop stop-color="#2fce92" offset=".9792"/>
 </linearGradient>
 <path transform="translate(-2.909 -2.909) scale(1.455)" d="m18.48 16.13c0-1.466 0.582-2.872 1.617-3.906 1.034-1.034 2.44-1.617 3.906-1.617s2.872 0.583 3.906 1.617c1.035 1.034 1.617 2.44 1.617 3.906 0 1.467-0.582 2.873-1.617 3.907-1.034 1.034-2.44 1.617-3.906 1.617s-2.872-0.583-3.906-1.617c-1.035-1.034-1.617-2.44-1.617-3.907zm2.008 0c0-0.934 0.372-1.827 1.03-2.485 0.657-0.658 1.551-1.029 2.485-1.029s1.828 0.371 2.485 1.029c0.658 0.658 1.03 1.551 1.03 2.485s-0.372 1.828-1.03 2.486c-0.657 0.658-1.551 1.029-2.485 1.029s-1.828-0.371-2.485-1.029c-0.658-0.658-1.03-1.552-1.03-2.486z" fill="url(#c)" fill-rule="evenodd"/>
 <linearGradient id="b" transform="translate(-2.909 -2.909) scale(1.455)" x1=".03118" x2=".9584" y1=".1087" y2=".9752" gradientTransform="matrix(11.05 0 0 11.05 24.5 22.16)" gradientUnits="userSpaceOnUse">
  <stop stop-color="#c751fb" offset="0"/>
  <stop stop-color="#6d44de" offset=".975"/>
 </linearGradient>
 <path transform="translate(-2.909 -2.909) scale(1.455)" d="m24.5 27.68c0-1.466 0.583-2.872 1.617-3.906 1.034-1.035 2.44-1.617 3.906-1.617 1.467 0 2.873 0.582 3.907 1.617 1.034 1.034 1.617 2.44 1.617 3.906s-0.583 2.872-1.617 3.907c-1.034 1.034-2.44 1.616-3.907 1.616-1.466 0-2.872-0.582-3.906-1.616-1.034-1.035-1.617-2.441-1.617-3.907zm2.009 0c0-0.934 0.371-1.828 1.029-2.485 0.658-0.658 1.551-1.03 2.485-1.03s1.828 0.372 2.486 1.03c0.658 0.657 1.029 1.551 1.029 2.485s-0.371 1.828-1.029 2.486c-0.658 0.657-1.552 1.029-2.486 1.029s-1.827-0.372-2.485-1.029c-0.658-0.658-1.029-1.552-1.029-2.486z" fill="url(#b)" fill-rule="evenodd"/>
 <linearGradient id="a" transform="translate(-2.909 -2.909) scale(1.455)" x1="-.01446" x2="1.016" y1=".009839" y2="1.072" gradientTransform="matrix(11.05 0 0 11.05 12.45 22.16)" gradientUnits="userSpaceOnUse">
  <stop stop-color="#f9d423" offset="0"/>
  <stop stop-color="#ff4e50" offset=".5156"/>
  <stop stop-color="#8a2387" offset=".9913"/>
 </linearGradient>
 <path transform="translate(-2.909 -2.909) scale(1.455)" d="m12.45 27.68c0-1.466 0.583-2.872 1.617-3.906 1.034-1.035 2.44-1.617 3.907-1.617 1.466 0 2.872 0.582 3.906 1.617 1.034 1.034 1.617 2.44 1.617 3.906s-0.583 2.872-1.617 3.907c-1.034 1.034-2.44 1.616-3.906 1.616-1.467 0-2.873-0.582-3.907-1.616-1.034-1.035-1.617-2.441-1.617-3.907zm2.009 0c0-0.934 0.371-1.828 1.029-2.485 0.658-0.658 1.552-1.03 2.486-1.03s1.827 0.372 2.485 1.03c0.658 0.657 1.029 1.551 1.029 2.485s-0.371 1.828-1.029 2.486c-0.658 0.657-1.551 1.029-2.485 1.029s-1.828-0.372-2.486-1.029c-0.658-0.658-1.029-1.552-1.029-2.486z" fill="url(#a)" fill-rule="evenodd"/>
</svg>
