<svg version="1.1" viewBox="0 0 64 64" xmlns="http://www.w3.org/2000/svg">
 <defs>
  <linearGradient id="a" y1="1">
   <stop stop-color="#0061ff" offset="0"/>
   <stop stop-color="#60efff" offset="1"/>
  </linearGradient>
 </defs>
 <path transform="translate(0) scale(1) translate(-.002151 .000906) scale(1) translate(.003901) scale(1) translate(.00035)" d="m10.8 0a7.173 7.173 0 0 0-7.17 7.17v29.38c0 1.681 1.209 3.045 2.699 3.045s2.701-1.364 2.701-3.045v-26.15a4.303 4.303 0 0 1 4.303-4.305h32.16c0.2346 0 0.4606-0.03368 0.6758-0.1016 0.2142 0.06785 0.4393 0.1016 0.6758 0.1016h3.799a4.303 4.303 0 0 1 4.301 4.305v4.834c0 1.682 1.211 3.047 2.701 3.047s2.701-1.365 2.701-3.047v-8.059a7.173 7.173 0 0 0-7.17-7.172h-6.332c-0.2365-1e-8 -0.4616 0.03368-0.6758 0.1016l-0.003906-0.001953a2.181 2.181 0 0 0-0.6738-0.1016l-34.69-0.001953zm46.84 25.9v0.001953c-1.49 0-2.701 1.363-2.701 3.045l0.003906 0.003906v24.63a4.303 4.303 0 0 1-4.303 4.307h-21.36c-1.49 0-2.697 1.364-2.697 3.045s1.207 3.047 2.697 3.047h23.89a7.173 7.173 0 0 0 7.172-7.172v-27.86c0-1.682-1.211-3.045-2.701-3.045zm-51.31 19.79v0.001954c-1.49 0-2.699 1.363-2.699 3.045v8.061a7.173 7.173 0 0 0 7.17 7.17h6.332c1.492 0 2.701-1.364 2.701-3.045 0-1.682-1.21-3.047-2.701-3.047h-3.799a4.303 4.303 0 0 1-4.305-4.305v-4.836c0-1.682-1.209-3.045-2.699-3.045z" fill="url(#a)"/>
 <path transform="translate(0) scale(1) translate(-.002151 .000906) scale(1) translate(.003901) scale(1) translate(.00035)" d="m23.26 19.64a5.815 5.815 0 0 0 0 11.63 5.815 5.815 0 0 0 0-11.63zm17.45 0a5.815 5.815 0 0 0 0 11.63 5.815 5.815 0 0 0 0-11.63zm-19.63 3.635a2.182 2.182 0 1 1-0.001953 4.361 2.182 2.182 0 0 1 0.001953-4.361zm17.44 0a2.182 2.182 0 1 1-0.001953 4.361 2.182 2.182 0 0 1 0.001953-4.361zm-6.6 7.996a2.906 2.906 0 0 0-2.84 2.906h-1.453c-1.611 0-2.906 1.297-2.906 2.908s1.295 2.906 2.906 2.906h1.455v2.908c0 0.8054 0.6478 1.453 1.453 1.453s1.455-0.6478 1.455-1.453c0 0.8054 0.6459 1.453 1.451 1.453s1.453-0.6478 1.453-1.453v-2.908h1.455c1.611 0 2.906-1.295 2.906-2.906s-1.295-2.908-2.906-2.908h-1.455a2.908 2.908 0 0 1-5.812 0h5.812a2.908 2.908 0 0 0-2.975-2.906z" fill="url(#a)"/>
</svg>
