<svg version="1.1" viewBox="0 0 64 64" xmlns="http://www.w3.org/2000/svg" xmlns:xlink="http://www.w3.org/1999/xlink">
 <defs>
  <linearGradient id="a" y1="1">
   <stop stop-color="#0078ff" offset="0"/>
   <stop stop-color="#00fffa" offset="1"/>
  </linearGradient>
  <linearGradient id="b" x1="11.95" x2="55.94" y1="52.17" y2="8.179" gradientTransform="matrix(.8483 0 0 .9545 3.208 3.204)" gradientUnits="userSpaceOnUse" xlink:href="#a"/>
 </defs>
 <path transform="translate(0) scale(1) translate(0) scale(1) translate(-2e-5) scale(1) translate(.008199 .003999) scale(.9998) translate(-2e-4) scale(1)" d="m10.8 0c-3.959 0-7.174 3.215-7.174 7.174v8.064c0 1.683 1.21 3.047 2.701 3.047s2.703-1.364 2.703-3.047v-4.838c0-2.377 1.928-4.973 4.303-4.973h37.32c2.375 0 4.303 2.596 4.303 4.973v26.17c0 1.681 1.212 3.049 2.703 3.049s2.701-1.367 2.701-3.049v-29.4c0-3.959-3.215-7.174-7.174-7.174zm-4.473 25.91c-1.491 0-2.701 1.364-2.701 3.047v27.87c0 3.959 3.215 7.174 7.174 7.174h23.9c1.491 0 2.701-1.365 2.701-3.047 0-1.683-2.701-2.381-2.701-2.381h-21.36c-2.375 0-4.305-2.596-4.305-4.973v-24.65c0-1.683-1.212-3.047-2.703-3.047zm51.34 19.81c-1.491 0-2.703 1.364-2.703 3.047v4.838c0 2.377-1.928 4.973-4.303 4.973-1.35 0.0056-3.069-0.0066-4.053 0-0.9835 0.0065-2.451 0.696-2.451 2.379 0 1.681 1.211 3.049 2.703 3.049h6.334c3.959 0 7.174-3.215 7.174-7.174v-8.064c0-1.683-1.21-3.047-2.701-3.047z" fill="url(#a)"/>
 <path transform="translate(0) scale(1) translate(0) scale(1) translate(-2e-5) scale(1)" d="m15.31 11.01a1.967 1.967 0 0 0-1.967 1.967v0.7288a1.967 1.967 0 0 0 1.967 1.967h10.06a1.967 1.967 0 0 0 1.967-1.967v-0.7288a1.967 1.967 0 0 0-1.967-1.967zm18.65 0a1.967 1.967 0 0 0-1.967 1.967v0.7288a1.967 1.967 0 0 0 1.967 1.967h14.72a1.967 1.967 0 0 0 1.967-1.967v-0.7288a1.967 1.967 0 0 0-1.967-1.967zm-18.65 9.331a1.967 1.967 0 0 0-1.967 1.967v0.7288a1.967 1.967 0 0 0 1.967 1.967h33.37a1.967 1.967 0 0 0 1.967-1.967v-0.7288a1.967 1.967 0 0 0-1.967-1.967zm0 9.331a1.967 1.967 0 0 0-1.967 1.967v0.7301a1.967 1.967 0 0 0 1.967 1.967h0.7288a1.967 1.967 0 0 0 1.967-1.967v-0.7301a1.967 1.967 0 0 0-1.967-1.967zm9.331 0a1.967 1.967 0 0 0-1.967 1.967v0.7301a1.967 1.967 0 0 0 1.967 1.967h24.05a1.967 1.967 0 0 0 1.967-1.967v-0.7301a1.967 1.967 0 0 0-1.967-1.967h-10.06zm-9.331 9.331a1.967 1.967 0 0 0-1.967 1.967v0.7288a1.967 1.967 0 0 0 1.967 1.967h33.37a1.967 1.967 0 0 0 1.967-1.967v-0.7288a1.967 1.967 0 0 0-1.967-1.967zm0 9.331a1.967 1.967 0 0 0-1.967 1.967v0.7288a1.967 1.967 0 0 0 1.967 1.967h17.05a1.967 1.967 0 0 0 1.967-1.967v-0.7288a1.967 1.967 0 0 0-1.967-1.967zm25.65 0a1.967 1.967 0 0 0-1.967 1.967v0.7288a1.967 1.967 0 0 0 1.967 1.967h7.725a1.967 1.967 0 0 0 1.967-1.967v-0.7288a1.967 1.967 0 0 0-1.967-1.967z" fill="url(#b)" opacity=".98" stroke-width=".7288"/>
</svg>
