<svg version="1.1" viewBox="0 0 64 64" xmlns="http://www.w3.org/2000/svg">
 <defs>
  <linearGradient id="a" y1="1">
   <stop stop-color="#39ff14" offset="0"/>
   <stop stop-color="#00ff81" offset="1"/>
  </linearGradient>
  <linearGradient id="b" y1="1">
   <stop stop-color="#fda700" offset="0"/>
   <stop stop-color="#ffde00" offset="1"/>
  </linearGradient>
 </defs>
 <path transform="translate(0) scale(1) translate(0) scale(1) translate(.0024 .001235) scale(1) translate(.00545 .001953)" d="m34.7-0.001953-0.003906 0.001953-23.89 0.007812a7.179 7.179 0 0 0-7.174 7.172v27.87c0 1.683 1.21 3.047 2.701 3.047s2.703-1.364 2.703-3.047v-24.65c0-2.377 1.929-4.973 4.305-4.973h21.36c1.2 0 2.701-0.6998 2.701-2.383 0.15-1.728-0.4256-3.047-2.701-3.047zm12.15 0.009766c-1.492 0-2.703 1.364-2.703 3.045 0 1.683 1.468 2.374 2.451 2.381s2.704-6e-3 4.055 0c2.375 0 4.303 2.596 4.303 4.973v4.838c0 1.683 1.21 3.047 2.701 3.047s2.701-1.364 2.701-3.047v-8.06a7.179 7.179 0 0 0-7.176-7.174zm10.81 24.37v2e-3l-0.0039 0.0039c-1.491 0-2.703 1.368-2.703 3.049v26.17c0 2.377-1.928 4.971-4.303 4.971h-37.32c-2.375 0-4.303-2.594-4.303-4.971v-4.84c0-1.683-1.21-3.047-2.701-3.047s-2.701 1.364-2.701 3.047v8.062a7.179 7.179 0 0 0 7.172 7.174l42.39-2e-3a7.175 7.175 0 0 0 7.174-7.172v-29.4c0-1.681-1.21-3.047-2.701-3.047z" fill="url(#a)"/>
 <path transform="translate(0) scale(1) translate(0) scale(1) translate(.0024 .001235) scale(1) translate(.00545 .001953)" d="m31.73 15.74c-8.787 0-16 7.213-16 16s7.213 16 16 16 16-7.213 16-16-7.213-16-16-16zm0 2.887c7.204 0 13.12 5.916 13.12 13.12s-5.914 13.12-13.12 13.12c-7.204 0-13.12-5.916-13.12-13.12s5.916-13.12 13.12-13.12z" fill="url(#a)"/>
 <path transform="translate(0) scale(1) translate(0) scale(1) translate(.0024 .001235) scale(1) translate(.00545 .001953)" d="m32 25c-3.859 0-7 3.14-7 7s3.14 7 7 7 7-3.14 7-7-3.14-7-7-7zm-0.06641 1.93c2.757 0 5 2.243 5 5s-2.243 5-5 5-5-2.243-5-5 2.243-5 5-5z" fill="url(#a)"/>
 <path transform="translate(0) scale(1) translate(0) scale(1) translate(.0024 .001235) scale(1) translate(.00545 .001953)" d="m35.92 21.06a0.9999 0.9999 0 0 0-0.373 1.934 9.999 9.999 0 0 1 3.18 2.145 9.999 9.999 0 0 1 2.145 3.18 0.9996 0.9996 0 1 0 1.842-0.7773 12 12 0 0 0-2.574-3.814v-2e-3a12 12 0 0 0-3.812-2.572 0.9999 0.9999 0 0 0-0.4043-0.0918zm-3.92 8.01c-1.617 0-2.932 1.315-2.932 2.932s1.315 2.934 2.932 2.934 2.934-1.317 2.934-2.934-1.317-2.932-2.934-2.932zm2e-3 1.863a1.069 1.069 0 0 1-2e-3 2.137 1.069 1.069 0 0 1 2e-3 -2.137zm-9.725 3.203 4e-3 4e-3a0.9994 0.9994 0 0 0-0.8613 1.389c0.6039 1.427 1.466 2.712 2.57 3.814s2.385 1.964 3.811 2.568a1 1 0 1 0 0.7793-1.842c-1.189-0.5038-2.258-1.224-3.178-2.143a9.999 9.999 0 0 1-2.146-3.182 0.9994 0.9994 0 0 0-0.9785-0.6094z" fill="url(#b)"/>
</svg>
