<svg version="1.1" viewBox="0 0 64 64" xmlns="http://www.w3.org/2000/svg">
 <defs>
  <linearGradient id="a" x1="1" x2="0" y2="1">
   <stop stop-color="#00ff7f" offset="0"/>
   <stop stop-color="#5fff00" offset="1"/>
  </linearGradient>
 </defs>
 <path transform="translate(0) scale(1) translate(.004751 -4e-4) scale(1) translate(-3e-4 .000541) scale(1)" d="m53.18 0-0.0078 0.001953-42.37 0.003906c-3.958 0-7.172 3.214-7.172 7.172v8.062c0 1.682 1.209 3.045 2.699 3.045 1.491 0 2.703-1.362 2.703-3.045v-4.838c0-2.376 1.926-4.971 4.301-4.971h37.31c2.374 0 4.303 2.594 4.303 4.971v26.16c0 1.68 1.211 3.049 2.701 3.049s2.701-1.367 2.701-3.049v-29.39c-1.3e-5 -3.956-3.214-7.17-7.17-7.172zm-46.84 25.9-0.00586 0.0078c-1.491 0-2.697 1.364-2.697 3.047v27.86c0 3.958 3.212 7.174 7.17 7.174h23.9c1.491 0 2.699-1.367 2.699-3.049s-2.699-2.381-2.699-2.381h-21.35c-2.374 0-4.305-2.594-4.305-4.971v-24.64c0-1.682-1.211-3.047-2.701-3.047zm51.31 19.81c-1.491 0-2.701 1.362-2.701 3.045v4.838c0 2.376-1.928 4.971-4.303 4.971-1.35 0.0056-3.067-0.0066-4.051 0-0.9832 0.0065-2.451 0.6962-2.451 2.379 0 1.68 1.212 3.047 2.703 3.047h6.332c3.958 0 7.172-3.214 7.172-7.172v-8.06c0-1.682-1.211-3.047-2.701-3.047z" fill="url(#a)"/>
 <path transform="translate(0) scale(1) translate(.004751 -4e-4) scale(1) translate(-3e-4 .000541) scale(1)" d="m46.92 13.95-22.4 2e-3c-1.71 0-3.111 1.401-3.111 3.111v3.109h-4.354c-1.71 0-3.111 1.399-3.111 3.109v23.64c0 1.71 1.401 3.107 3.111 3.107h29.86c1.71 0 3.111-1.397 3.111-3.107v-29.86c1e-6 -1.71-1.401-3.111-3.111-3.111zm-21.77 3.736h21.15v2.486h-21.15zm-7.465 6.221h3.73v4.978h-3.73zm7.465 0h8.711v4.978h-8.711zm12.45 0h8.709v4.978h-8.709zm-19.9 8.709h3.73v4.978h-3.73zm7.465 0h8.711v4.978h-8.711zm12.44 0h8.709v4.978h-8.709zm-19.9 8.709h3.73v4.978h-3.73zm7.465 0h8.709v4.978h-8.709zm12.44 0h8.709v4.978h-8.709z" fill="url(#a)"/>
</svg>
