<svg version="1.1" viewBox="0 0 64 64" xmlns="http://www.w3.org/2000/svg">
 <defs>
  <linearGradient id="a" y2="1">
   <stop stop-color="#ffde3e" offset="0"/>
   <stop stop-color="#ff793e" offset=".25"/>
   <stop stop-color="#ff31fa" offset=".5"/>
   <stop stop-color="#8733ff" offset=".75"/>
   <stop stop-color="#221dff" offset="1"/>
  </linearGradient>
 </defs>
 <path transform="translate(.009199 .009599) scale(.9999) translate(.00081 .000494) scale(1)" d="m53.18 0-42.38 0.003906c-3.958 0-7.174 3.214-7.174 7.172v8.062c0 1.683 1.21 3.047 2.701 3.047s2.703-1.364 2.703-3.047v-4.836c0-2.376 1.926-4.973 4.301-4.973h37.31c2.374 0 4.303 2.596 4.303 4.973v26.16c0 1.681 1.212 3.049 2.703 3.049s2.699-1.367 2.699-3.049v-29.4c0-3.958-3.214-7.172-7.172-7.172zm-46.85 25.9-0.00391 0.0059c-1.491 0-2.701 1.364-2.701 3.047v27.86c0 3.958 3.216 7.172 7.174 7.172h23.9c1.491 0 2.701-1.365 2.701-3.047 0-1.683-2.701-2.381-2.701-2.381h-21.36c-2.374 0-4.305-2.594-4.305-4.971v-24.65c0-1.683-1.212-3.045-2.703-3.045zm51.33 19.81c-1.491 0-2.703 1.364-2.703 3.047v4.836c0 2.376-1.928 4.973-4.303 4.973-1.35 0.0056-3.067-0.0066-4.051 0-0.9833 0.0065-2.451 0.6962-2.451 2.379 0 1.681 1.211 3.049 2.703 3.049h6.332c3.958 0 7.172-3.216 7.172-7.174v-8.062c0-1.683-1.208-3.045-2.699-3.045z" fill="url(#a)"/>
 <path transform="translate(.009199 .009599) scale(.9999) translate(.00081 .000494) scale(1)" d="m40.34 18.52v2e-3a1.548 1.592 0 0 0-0.4121 3.111s0.7376 0.2551 1.625 0.7344c0.8869 0.4807 1.836 1.22 2.172 1.777 0.3792 0.6304 0.2524 0.8492-0.0293 1.816-0.2817 0.9663-0.7898 2.571-0.08398 4.324 0.6269 1.554 1.875 2.377 2.994 2.969-1.119 0.5938-2.367 1.42-2.994 2.973-0.7058 1.754-0.1977 3.356 0.08398 4.322 0.2817 0.9663 0.4085 1.186 0.0293 1.818-0.3358 0.5588-1.285 1.299-2.172 1.777-0.8869 0.4807-1.625 0.7324-1.625 0.7324a1.548 1.592 0 1 0 0.9746 3.022s0.9717-0.3309 2.094-0.9375c1.122-0.6082 2.486-1.459 3.363-2.918 0.9767-1.627 0.6061-3.366 0.3027-4.408-0.3034-1.041-0.4696-1.494-0.1894-2.191 0.1378-0.3407 0.9751-1.087 1.894-1.549 0.9179-0.4633 1.752-0.7051 1.752-0.7051a1.548 1.592 0 0 0 1.107-1.914 1.548 1.592 0 0 0-1.107-1.955s-0.8341-0.2437-1.752-0.707c-0.9194-0.4633-1.757-1.207-1.894-1.547-0.2801-0.6958-0.114-1.154 0.1894-2.193 0.3034-1.041 0.674-2.781-0.3027-4.406-0.8776-1.462-2.24-2.312-3.363-2.92-1.122-0.6082-2.094-0.9356-2.094-0.9356a1.548 1.592 0 0 0-0.4082-0.08594 1.548 1.592 0 0 0-0.1465-0.0059 1.548 1.592 0 0 0-0.0078 0zm-16.68 2e-3a1.548 1.592 0 0 0-0.1465 0.0059 1.548 1.592 0 0 0-0.4102 0.08594s-0.9676 0.3292-2.09 0.9375c-1.124 0.6082-2.489 1.456-3.367 2.918-0.9767 1.626-0.6061 3.364-0.3027 4.406 0.3048 1.04 0.4711 1.498 0.1894 2.193-0.1362 0.3407-0.9745 1.084-1.893 1.547-0.9194 0.4633-1.754 0.707-1.754 0.707a1.548 1.592 0 0 0-1.107 1.955 1.548 1.592 0 0 0 1.107 1.914s0.8348 0.2437 1.754 0.707c0.9179 0.4617 1.757 1.207 1.893 1.547 0.2817 0.6973 0.1155 1.152-0.1894 2.193-0.3034 1.041-0.674 2.78 0.3027 4.406 0.8776 1.461 2.243 2.31 3.367 2.918 1.122 0.6066 2.09 0.9375 2.09 0.9375a1.548 1.592 0 1 0 0.9746-3.022s-0.7356-0.2515-1.623-0.7324c-0.8869-0.4791-1.837-1.221-2.172-1.779-0.3792-0.632-0.2544-0.8492 0.02734-1.816 0.2832-0.9663 0.7914-2.569 0.08398-4.322-0.6253-1.554-1.875-2.377-2.994-2.971 1.119-0.5922 2.368-1.417 2.994-2.971 0.7074-1.754 0.1992-3.358-0.08398-4.324-0.2817-0.9663-0.4066-1.186-0.02734-1.816 0.3343-0.5588 1.285-1.296 2.172-1.777 0.8869-0.4791 1.623-0.7324 1.623-0.7324a1.548 1.592 0 0 0-0.418-3.111zm8.34 6.803a3.401 3.401 0 0 0-3.402 3.402 3.401 3.401 0 0 0 3.402 3.4 3.401 3.401 0 0 0 3.4-3.4 3.401 3.401 0 0 0-3.4-3.402zm0 9.045c-1.88 0-3.402 1.521-3.402 3.4s1.523 3.402 3.402 3.402c1.202 0 1.701 3.4 1.701 3.4s1.699-6.126 1.699-6.803c0-1.88-1.521-3.4-3.4-3.4z" fill="url(#a)"/>
</svg>
