<svg version="1.1" viewBox="0 0 64 64" xmlns="http://www.w3.org/2000/svg">
 <defs>
  <linearGradient id="a" y2="1">
   <stop stop-color="#f00" offset="0"/>
   <stop stop-color="#ff006e" offset="1"/>
  </linearGradient>
 </defs>
 <path transform="translate(.006309) scale(.9999) translate(.007699 .003906) scale(.9999)" d="m10.81-0.003906c-3.959 0-7.174 3.215-7.174 7.174v29.4c0 1.682 1.208 3.049 2.699 3.049s2.703-1.368 2.703-3.049v-26.17c0-2.377 1.928-4.973 4.303-4.973h37.32c2.375 0 4.303 2.596 4.303 4.973v4.838c0 1.683 1.212 3.047 2.703 3.047s2.701-1.364 2.701-3.047v-8.064c0-3.959-3.215-7.174-7.174-7.174zm46.85 25.91c-1.491 0-2.703 1.364-2.703 3.047v24.65c0 2.377-1.93 4.973-4.305 4.973h-21.36s-2.699 0.6979-2.699 2.381c0 1.682 1.208 3.049 2.699 3.049h23.9c3.959 0 7.174-3.217 7.174-7.176v-27.87c0-1.683-1.21-3.047-2.701-3.047zm-51.34 19.82c-1.491 0-2.701 1.364-2.701 3.047v8.064c0 3.959 3.215 7.174 7.174 7.174h6.336c1.492 0 2.701-1.368 2.701-3.049 0-1.683-1.466-2.372-2.449-2.379-0.984-0.0066-2.705 0.0056-4.055 0-2.375 0-4.303-2.596-4.303-4.973v-4.838c0-1.683-1.212-3.047-2.703-3.047z" fill="url(#a)"/>
 <path transform="translate(.006309) scale(.9999) translate(.007699 .003906) scale(.9999)" d="m14.93 48.23a1 1 0 0 0-1 1v2.844a1 1 0 0 0 1 1h14.22a1 1 0 0 0 1-1v-2.844a1 1 0 0 0-1-1z" fill="url(#a)"/>
 <path transform="translate(.006309) scale(.9999) translate(.007699 .003906) scale(.9999)" d="m14.93 37.69a1 1 0 0 0-1 1v2.844a1 1 0 0 0 1 1h8.535a1 1 0 0 0 1-1v-2.844a1 1 0 0 0-1-1z" fill="url(#a)"/>
 <path transform="translate(.006309) scale(.9999) translate(.007699 .003906) scale(.9999)" d="m14.93 31a1 1 0 0 0-1 1v2.844a1 1 0 0 0 1 1h14.22a1 1 0 0 0 1-1v-2.844a1 1 0 0 0-1-1z" fill="url(#a)"/>
 <path transform="translate(.006309) scale(.9999) translate(.007699 .003906) scale(.9999)" d="m14.93 21.47a1 1 0 0 0-1 1v2.844a1 1 0 0 0 1 1h34.14a1 1 0 0 0 1-1v-2.844a1 1 0 0 0-1-1z" fill="url(#a)"/>
 <path transform="translate(.006309) scale(.9999) translate(.007699 .003906) scale(.9999)" d="m14.93 10.93a1 1 0 0 0-1 1v2.844a1 1 0 0 0 1 1h17.07a1 1 0 0 0 1-1v-2.844a1 1 0 0 0-1-1z" fill="url(#a)"/>
 <path transform="translate(.006309) scale(.9999) translate(.007699 .003906) scale(.9999)" d="m41.31 29.64a3.175 3.175 0 0 0-2.957 3.166v9.525h-3.309a2.053 2.053 0 0 0-1.894 1.266 2.053 2.053 0 0 0 0.4453 2.234l6.482 6.482a2.049 2.049 0 0 0 2.9 0l6.484-6.482a2.049 2.049 0 0 0-1.451-3.5h-3.307l-2e-3 -9.525a3.175 3.175 0 0 0-3.392-3.166z" fill="url(#a)"/>
</svg>
