<svg version="1.1" viewBox="0 0 64 64" xmlns="http://www.w3.org/2000/svg">
 <defs>
  <linearGradient id="a" x1="1" x2="0" y1="1">
   <stop stop-color="#ff00d2" offset="0"/>
   <stop stop-color="#b800ff" offset="1"/>
  </linearGradient>
 </defs>
 <path transform="translate(0) scale(1) translate(1e-5 -1e-6) scale(1) translate(.009 .009) scale(.9999)" d="M34.69-.008 10.79 0a7.18 7.18 0 0 0-7.174 7.174v27.87c0 1.683 1.21 3.047 2.701 3.047s2.703-1.364 2.703-3.047v-24.65c0-2.377 1.929-4.973 4.305-4.973h21.36c1.2 0 2.701-.7 2.701-2.383.15-1.728-.425-3.047-2.701-3.047zM46.86 0c-1.492 0-2.703 1.366-2.703 3.047 0 1.683 1.468 2.374 2.451 2.381s2.702-.006 4.053 0c2.375 0 4.303 2.596 4.303 4.973v4.838c0 1.683 1.212 3.047 2.703 3.047s2.701-1.364 2.701-3.047V7.177A7.18 7.18 0 0 0 53.194.003zm10.81 24.38-.004.004c-1.49 0-2.703 1.366-2.703 3.047V53.6c0 2.377-1.928 4.973-4.303 4.973H13.34c-2.375 0-4.303-2.596-4.303-4.973v-4.838c0-1.683-1.212-3.047-2.703-3.047s-2.7 1.364-2.7 3.047v8.062a7.18 7.18 0 0 0 7.173 7.174l42.39-.002a7.177 7.177 0 0 0 7.176-7.172v-29.4c0-1.681-1.21-3.047-2.7-3.047z" fill="url(#a)"/>
 <path transform="translate(0) scale(1) translate(1e-5 -1e-6) scale(1) translate(.009 .009) scale(.9999)" d="M32.71 9.162c-.234.004-.564.098-1.033.24-5.47 1.662-8.201 5.053-8.201 10.19v.95l-.553.564c-1.72 1.752-.315 4.569 4.275 8.568.665.579.656.428.075 1.219-1.592 2.164-2.446 2.619-5.086 2.699-1.385.042-1.614.062-1.926.181-1.64.627-1.486 3.27.214 3.693l-.002-.004c.755.188 3.21.029 4.133-.267 1.494-.48 2.431-1.14 4.297-3.033 1.67-1.693 1.484-1.604 3.244-1.57 1.657.032 1.554-.024 3.356 1.805 2.417 2.454 3.51 3.007 6.115 3.098 2.557.088 3.277-.334 3.277-1.926.001-1.512-.574-1.906-2.893-1.982-2.603-.086-3.8-.729-5.227-2.807l-.36-.526 1.032-1.022c4.382-4.342 5.325-6.447 3.66-8.168l-.584-.603v-.668c0-4.406-1.85-6.646-6.297-7.633l-.791-.176-.074-1.135c-.083-1.27-.138-1.694-.653-1.686zm-.129 4.436c.16-.001.145.105.145.424 0 .656.039.717.545.851 3.393.9 4.171 1.862 4.171 5.2.003 1.688-.016 1.617.487 1.911.59.346.773.515.773.717 0 .764-4.264 5.3-5.578 5.934-.904.436-1.679.388-2.488-.154-1.026-.687-4.582-4.302-5.066-5.15-.428-.75-.333-.904.807-1.348l.736-.287.033-1.838c.074-3.895 1.286-5.397 4.982-6.178.198-.042.331-.073.42-.08z" fill="url(#a)"/>
 <path transform="translate(0) scale(1) translate(1e-5 -1e-6) scale(1) translate(.009 .009) scale(.9999)" d="m49.77 42.26-7.188.018-7.19.015-.29.172c-1.406.827-1.07 3.64.48 4.02.103.025 3.33.04 7.171.035l6.98-.01.332-.15c1.4-.632 1.412-3.365.018-3.965z" fill="url(#a)"/>
 <path transform="translate(0) scale(1) translate(1e-5 -1e-6) scale(1) translate(.009 .009) scale(.9999)" d="m28.44 49.52-7.188.018-7.19.015-.29.172c-1.406.827-1.07 3.64.48 4.02.103.025 3.33.04 7.171.035l6.98-.01.332-.15c1.4-.632 1.412-3.365.018-3.965z" fill="url(#a)"/>
 <path transform="translate(0) scale(1) translate(1e-5 -1e-6) scale(1) translate(.009 .009) scale(.9999)" d="m14.18 42.25-.318.15c-1.375.64-1.277 3.534.136 4.037v-.004c.31.11 14.18.139 14.57.03 1.488-.413 1.663-3.297.246-4.037l-.336-.176H21.33z" fill="url(#a)"/>
 <path transform="translate(0) scale(1) translate(1e-5 -1e-6) scale(1) translate(.009 .009) scale(.9999)" d="m49.77 49.52-7.188.018-7.19.015-.29.172c-1.406.827-1.07 3.64.48 4.02.103.025 3.33.04 7.171.035l6.98-.01.332-.15c1.4-.632 1.412-3.365.018-3.965z" fill="url(#a)"/>
</svg>
