<svg version="1.1" viewBox="0 0 64 64" xmlns="http://www.w3.org/2000/svg">
 <defs>
  <linearGradient id="a" x1="1" x2="0" y1="1">
   <stop stop-color="#ff00d2" offset="0"/>
   <stop stop-color="#b800ff" offset="1"/>
  </linearGradient>
  <linearGradient id="b" y1="1">
   <stop stop-color="#f0f" offset="0"/>
   <stop stop-color="#fca" offset="1"/>
  </linearGradient>
  <linearGradient id="c" x2="0" y2="1">
   <stop stop-color="#f0f" offset="0"/>
   <stop stop-color="#ffd42a" offset="1"/>
  </linearGradient>
 </defs>
 <path transform="translate(0) scale(1) matrix(.9999 0 0 .9999 .00901 .008999)" d="m34.69-8e-3 -23.9 8e-3a7.18 7.18 0 0 0-7.174 7.174v27.87c0 1.683 1.21 3.047 2.701 3.047s2.703-1.364 2.703-3.047v-24.65c0-2.377 1.929-4.973 4.305-4.973h21.36c1.2 0 2.701-0.7 2.701-2.383 0.15-1.728-0.425-3.047-2.701-3.047zm12.17 8e-3c-1.492 0-2.703 1.366-2.703 3.047 0 1.683 1.468 2.374 2.451 2.381s2.702-6e-3 4.053 0c2.375 0 4.303 2.596 4.303 4.973v4.838c0 1.683 1.212 3.047 2.703 3.047s2.701-1.364 2.701-3.047v-8.062a7.18 7.18 0 0 0-7.174-7.174zm10.81 24.38-4e-3 4e-3c-1.49 0-2.703 1.366-2.703 3.047v26.17c0 2.377-1.928 4.973-4.303 4.973h-37.32c-2.375 0-4.303-2.596-4.303-4.973v-4.838c0-1.683-1.212-3.047-2.703-3.047s-2.7 1.364-2.7 3.047v8.062a7.18 7.18 0 0 0 7.173 7.174l42.39-2e-3a7.177 7.177 0 0 0 7.176-7.172v-29.4c0-1.681-1.21-3.047-2.7-3.047z" fill="url(#a)"/>
 <path transform="translate(0) scale(1) matrix(.9999 0 0 .9999 .00901 .008999)" d="m32.71 9.162c-0.234 4e-3 -0.564 0.098-1.033 0.24-5.47 1.662-8.201 5.053-8.201 10.19v0.95l-0.553 0.564c-1.72 1.752-0.315 4.569 4.275 8.568 0.665 0.579 0.656 0.428 0.075 1.219-1.592 2.164-2.446 2.619-5.086 2.699-1.385 0.042-1.614 0.062-1.926 0.181-1.64 0.627-1.486 3.27 0.214 3.693l-2e-3 -4e-3c0.755 0.188 3.21 0.029 4.133-0.267 1.494-0.48 2.431-1.14 4.297-3.033 1.67-1.693 1.484-1.604 3.244-1.57 1.657 0.032 1.554-0.024 3.356 1.805 2.417 2.454 3.51 3.007 6.115 3.098 2.557 0.088 3.277-0.334 3.277-1.926 1e-3 -1.512-0.574-1.906-2.893-1.982-2.603-0.086-3.8-0.729-5.227-2.807l-0.36-0.526 1.032-1.022c4.382-4.342 5.325-6.447 3.66-8.168l-0.584-0.603v-0.668c0-4.406-1.85-6.646-6.297-7.633l-0.791-0.176-0.074-1.135c-0.083-1.27-0.138-1.694-0.653-1.686zm-0.129 4.436c0.16-1e-3 0.145 0.105 0.145 0.424 0 0.656 0.039 0.717 0.545 0.851 3.393 0.9 4.171 1.862 4.171 5.2 3e-3 1.688-0.016 1.617 0.487 1.911 0.59 0.346 0.773 0.515 0.773 0.717 0 0.764-4.264 5.3-5.578 5.934-0.904 0.436-1.679 0.388-2.488-0.154-1.026-0.687-4.582-4.302-5.066-5.15-0.428-0.75-0.333-0.904 0.807-1.348l0.736-0.287 0.033-1.838c0.074-3.895 1.286-5.397 4.982-6.178 0.198-0.042 0.331-0.073 0.42-0.08z" fill="url(#c)"/>
 <path transform="translate(0) scale(1) matrix(.9999 0 0 .9999 .00901 .008999)" d="m49.77 42.26-7.188 0.018-7.19 0.015-0.29 0.172c-1.406 0.827-1.07 3.64 0.48 4.02 0.103 0.025 3.33 0.04 7.171 0.035l6.98-0.01 0.332-0.15c1.4-0.632 1.412-3.365 0.018-3.965z" fill="url(#b)"/>
 <path transform="translate(0) scale(1) matrix(.9999 0 0 .9999 .00901 .008999)" d="m28.44 49.52-7.188 0.018-7.19 0.015-0.29 0.172c-1.406 0.827-1.07 3.64 0.48 4.02 0.103 0.025 3.33 0.04 7.171 0.035l6.98-0.01 0.332-0.15c1.4-0.632 1.412-3.365 0.018-3.965z" fill="url(#b)"/>
 <path transform="translate(0) scale(1) matrix(.9999 0 0 .9999 .00901 .008999)" d="m14.18 42.25-0.318 0.15c-1.375 0.64-1.277 3.534 0.136 4.037v-4e-3c0.31 0.11 14.18 0.139 14.57 0.03 1.488-0.413 1.663-3.297 0.246-4.037l-0.336-0.176h-7.148z" fill="url(#b)"/>
 <path transform="translate(0) scale(1) matrix(.9999 0 0 .9999 .00901 .008999)" d="m49.77 49.52-7.188 0.018-7.19 0.015-0.29 0.172c-1.406 0.827-1.07 3.64 0.48 4.02 0.103 0.025 3.33 0.04 7.171 0.035l6.98-0.01 0.332-0.15c1.4-0.632 1.412-3.365 0.018-3.965z" fill="url(#b)"/>
</svg>
