<svg version="1.1" viewBox="0 0 64 64" xmlns="http://www.w3.org/2000/svg">
 <defs>
  <linearGradient id="a" y1="1">
   <stop stop-color="#00b8ff" offset="0"/>
   <stop stop-color="#00ff9d" offset="1"/>
  </linearGradient>
 </defs>
 <path transform="translate(0) scale(1) translate(0) scale(1) translate(0) scale(1) translate(0) scale(1) translate(.008)" d="M10.8 0a7.177 7.177 0 0 0-7.174 7.174v29.4c0 1.681 1.208 3.047 2.699 3.047s2.701-1.366 2.701-3.047v-26.17a4.31 4.31 0 0 1 4.307-4.307h32.17q.354.001.676-.1.32.101.676.1h3.8a4.31 4.31 0 0 1 4.306 4.307v4.838c0 1.681 1.21 3.047 2.7 3.047s2.702-1.366 2.702-3.047V7.178A7.176 7.176 0 0 0 53.19.004h-6.336c-.235 0-.463.034-.676.103a2.2 2.2 0 0 0-.676-.103h-34.7zm46.86 25.9-.006.002c-1.49 0-2.7 1.366-2.7 3.047v24.65a4.307 4.307 0 0 1-4.306 4.305h-21.36c-1.492 0-2.703 1.366-2.703 3.047 0 1.683 1.211 3.047 2.703 3.047h23.9a7.174 7.174 0 0 0 7.172-7.172v-27.88c0-1.681-1.208-3.047-2.699-3.047zM6.32 45.71v.002c-1.491 0-2.701 1.366-2.701 3.047v8.066a7.176 7.176 0 0 0 7.174 7.172h6.334c1.491 0 2.703-1.364 2.703-3.047 0-1.681-1.212-3.047-2.703-3.047h-3.801a4.31 4.31 0 0 1-4.305-4.307v-4.84c0-1.681-1.21-3.047-2.701-3.047z" fill="url(#a)"/>
 <path transform="translate(0) scale(1) translate(0) scale(1) translate(0) scale(1) translate(0) scale(1) translate(.006)" d="M31.99 16.65q-3.136-.003-6.269.129h-.003c-1.784.076-3.168.127-4.418.38-1.259.254-2.406.78-3.326 1.706-.913.92-1.435 2.052-1.68 3.292-.243 1.23-.276 2.586-.337 4.32a91 91 0 0 0-.06 3.34q0 1.675.06 3.347c.06 1.73.094 3.086.337 4.315.246 1.24.767 2.37 1.68 3.292.92.926 2.067 1.45 3.326 1.706.955.193 2.144.233 3.375.291v2.075c-.002 2.08 2.6 3.276 4.178 1.923l3.19-2.737c.796-.683 1.103-.895 1.251-.952.117-.044.528-.096 1.597-.117h.012c1.155-.022 2.27-.056 3.358-.103h.003c1.784-.076 3.168-.127 4.418-.38 1.259-.254 2.406-.78 3.326-1.706.913-.92 1.435-2.052 1.68-3.292.243-1.23.276-2.585.337-4.318v-.003a95 95 0 0 0 0-6.68c-.061-1.734-.094-3.09-.337-4.321-.246-1.24-.767-2.371-1.68-3.292-.921-.927-2.067-1.451-3.326-1.706-1.25-.253-2.633-.304-4.415-.38-1.982-.086-4.09-.13-6.275-.13zm0 2.926c2.145 0 4.208.045 6.144.129 1.784.076 3.087.141 3.969.32.895.18 1.318.388 1.826.9.513.516.711.931.883 1.8.17.856.228 2.115.289 3.849a92 92 0 0 1 0 6.487c-.061 1.734-.12 2.993-.289 3.849-.172.869-.37 1.283-.883 1.8-.507.51-.931.719-1.826.9-.883.178-2.185.243-3.969.32q-1.594.068-3.292.103c-1.073.02-1.798-.001-2.597.305-.782.3-1.306.783-2.106 1.47a.37.37 0 0 0-.129.277v-.166l-2.409 2.066v-2.577c.001-.78-.622-1.43-1.403-1.463l-.354-.014h-.017c-1.772-.076-3.071-.143-3.95-.32-.894-.181-1.317-.39-1.825-.9-.513-.517-.711-.932-.883-1.8-.17-.855-.228-2.112-.289-3.84v-.015a92 92 0 0 1 0-6.476v-.017c.06-1.727.12-2.984.289-3.838.172-.869.37-1.283.883-1.8.507-.51.931-.72 1.826-.9.881-.178 2.183-.243 3.963-.32q3.074-.13 6.149-.129zm-6.584 5.852c-.804 0-1.463.66-1.463 1.463 0 .804.66 1.463 1.463 1.463h13.17c.804 0 1.463-.66 1.463-1.463 0-.804-.66-1.463-1.463-1.463zm0 5.852c-.804 0-1.463.66-1.463 1.463 0 .804.66 1.463 1.463 1.463h8.047c.804 0 1.463-.66 1.463-1.463 0-.804-.66-1.463-1.463-1.463z" fill="url(#a)"/>
</svg>
