<svg version="1.1" viewBox="0 0 64 64" xmlns="http://www.w3.org/2000/svg">
 <defs>
  <linearGradient id="a" y1=".5" y2=".5">
   <stop stop-color="#00f0ff" offset="0"/>
   <stop stop-color="#85fff0" offset="1"/>
  </linearGradient>
 </defs>
 <path transform="translate(.008199 .003999) scale(.9998) translate(-2e-4) scale(1)" d="m10.8 0c-3.959 0-7.174 3.215-7.174 7.174v8.064c0 1.683 1.21 3.047 2.701 3.047s2.703-1.364 2.703-3.047v-4.838c0-2.377 1.928-4.973 4.303-4.973h37.32c2.375 0 4.303 2.596 4.303 4.973v26.17c0 1.681 1.212 3.049 2.703 3.049s2.701-1.367 2.701-3.049v-29.4c0-3.959-3.215-7.174-7.174-7.174zm-4.473 25.91c-1.491 0-2.701 1.364-2.701 3.047v27.87c0 3.959 3.215 7.174 7.174 7.174h23.9c1.491 0 2.701-1.365 2.701-3.047 0-1.683-2.701-2.381-2.701-2.381h-21.36c-2.375 0-4.305-2.596-4.305-4.973v-24.65c0-1.683-1.212-3.047-2.703-3.047zm51.34 19.81c-1.491 0-2.703 1.364-2.703 3.047v4.838c0 2.377-1.928 4.973-4.303 4.973-1.35 0.0056-3.069-0.0066-4.053 0-0.9835 0.0065-2.451 0.696-2.451 2.379 0 1.681 1.211 3.049 2.703 3.049h6.334c3.959 0 7.174-3.215 7.174-7.174v-8.064c0-1.683-1.21-3.047-2.701-3.047z" fill="url(#a)"/>
 <path transform="translate(.008199 .003999) scale(.9998)" d="m42.07 26.52a0.2844 0.2844 0 0 0-0.2832 0.2852v1.914a0.2844 0.2844 0 0 0-2e-3 0h-1.895a0.2844 0.2844 0 0 0-0.2832 0.2852v1.627a0.2844 0.2844 0 0 0 0.2832 0.2832h1.895a0.2844 0.2844 0 0 0 2e-3 0 0.2844 0.2844 0 0 0 0 0.0039v2.193a0.2844 0.2844 0 0 0 0 2e-3 0.2844 0.2844 0 0 0-2e-3 0h-1.895a0.2844 0.2844 0 0 0-0.2832 0.2852v1.627a0.2844 0.2844 0 0 0 0.2832 0.2832h1.895a0.2844 0.2844 0 0 0 2e-3 0 0.2844 0.2844 0 0 0 0 2e-3v1.914a0.2844 0.2844 0 0 0 0.2832 0.2832h1.641a0.2844 0.2844 0 0 0 0.2852-0.2832v-1.914a0.2844 0.2844 0 0 0 0-2e-3 0.2844 0.2844 0 0 0 2e-3 0h2.195a0.2844 0.2844 0 0 0 2e-3 0 0.2844 0.2844 0 0 0 0 2e-3v1.914a0.2844 0.2844 0 0 0 0.2852 0.2832h1.629a0.2844 0.2844 0 0 0 0.2852-0.2832v-1.914a0.2844 0.2844 0 0 0 0-2e-3 0.2844 0.2844 0 0 0 2e-3 0h1.912a0.2844 0.2844 0 0 0 0.2852-0.2832v-1.629a0.2844 0.2844 0 0 0-0.2852-0.2832h-1.912a0.2844 0.2844 0 0 0-2e-3 0 0.2844 0.2844 0 0 0 0-2e-3v-2.193a0.2844 0.2844 0 0 0 0-0.0039 0.2844 0.2844 0 0 0 2e-3 0h1.912a0.2844 0.2844 0 0 0 0.2852-0.2832v-1.627a0.2844 0.2844 0 0 0-0.2853-0.2852h-1.912a0.2844 0.2844 0 0 0-2e-3 0v-1.914a0.2844 0.2844 0 0 0-0.2852-0.2852h-1.629a0.2844 0.2844 0 0 0-0.2852 0.2852v1.914a0.2844 0.2844 0 0 0-2e-3 0h-2.195a0.2844 0.2844 0 0 0-2e-3 0v-1.914a0.2844 0.2844 0 0 0-0.2852-0.2852zm1.926 4.4a0.2844 0.2844 0 0 0 2e-3 0h2.195a0.2844 0.2844 0 0 0 2e-3 0v2.191a0.2844 0.2844 0 0 0 0 2e-3 0.2844 0.2844 0 0 0-2e-3 0h-2.195a0.2844 0.2844 0 0 0-2e-3 0 0.2844 0.2844 0 0 0 0-2e-3z" fill="url(#a)" stop-color="#000000" stroke-linecap="round" stroke-linejoin="round" stroke-width="1.066"/>
 <path transform="translate(.008199 .003999) scale(.9998)" d="m31.27 14.11a0.4692 0.4692 0 0 0-0.05078 0.03516c0.0069 1.81e-4 -0.019 0-0.0078 0a0.4692 0.4692 0 0 0-2e-3 0c-9.21 0.04148-16.79 7.056-17.71 16.05-0.06083 0.6-0.09375 1.209-0.09375 1.826 0 3.235 0.8612 6.276 2.367 8.896 3.085 5.366 8.886 8.984 15.51 8.984h0.1797a0.4692 0.4692 0 0 0 0.0039 0c-0.01519 9.8e-5 0.0033 1.86e-4 0.01953 0 5.791-0.06486 10.8-3.004 14-7.287 0.5574-0.746 0.3727-1.824-0.4023-2.34l-5.742-3.824c-0.7003-0.4662-1.652-0.321-2.18 0.334-1.079 1.337-2.48 2.335-4.094 2.75-0.5673 0.1458-1.164 0.2227-1.785 0.2227-4.397 0-7.73-3.599-7.73-7.727 0-4.275 3.456-7.736 7.73-7.736h0.02539l-0.0078-2e-3c0.0036 2.77e-4 0.01691 0.0012 0.02734 2e-3l2e-3 -0.04102a0.4692 0.4692 0 0 0 0.04687 0.04687c2.357 0.02911 4.373 1.195 5.797 2.959a0.4692 0.4692 0 0 0 0 2e-3c0.5284 0.6545 1.478 0.7967 2.178 0.3301l5.732-3.818c0.7741-0.5162 0.9587-1.592 0.4023-2.338-3.21-4.295-8.245-7.22-14.05-7.271v-2e-3c-0.0019-1.7e-5 -4e-3 1.6e-5 -0.0059 0-0.0025-2.2e-5 -0.0054 2.1e-5 -0.0078 0h-2e-3l-2e-3 -2e-3h-4e-3v2e-3l0.0039 0.0059a0.4692 0.4692 0 0 0-0.02344-0.0059v-2e-3a0.4692 0.4692 0 0 0-0.0098 0 0.4692 0.4692 0 0 0-0.0059 0 0.4692 0.4692 0 0 0-0.0098-0.0039h-2e-3a0.4692 0.4692 0 0 0-0.0059 0.0039 0.4692 0.4692 0 0 0-0.01172-0.0078h-2e-3c-7.8e-4 1.6e-5 -5e-3 -6.6e-5 -0.0059 0h-2e-3a0.4692 0.4692 0 0 0-0.01563 0.0039 0.4692 0.4692 0 0 0-0.0078-0.0059l0.02344-0.01758-0.03125-0.0098-2e-3 0.01172a0.4692 0.4692 0 0 0-0.01563-0.01563zm0.1797 0.05664 0.0332 0.0098a0.4692 0.4692 0 0 0-0.02734-0.0039 0.4692 0.4692 0 0 0-0.0059-0.0059zm-0.6641 0.3887a0.4692 0.4692 0 0 0 0.02734 0.04687 0.4692 0.4692 0 0 0-0.0078 0.01953c-0.01801 4.56e-4 -0.03671-5.51e-4 -0.05469 0v-0.04102zm0.4414 2.859c0.01941 0.0017 0.03914 0.0048 0.05859 0.0059a0.4692 0.4692 0 0 0 0.02344 0c4.142 0.0052 7.705 1.877 10.35 4.709l-3.047 2.033c-1.834-1.761-4.21-3.031-6.994-3.119h-4e-3v-2e-3h-6e-3v-2e-3h-4e-3a0.4692 0.4692 0 0 0-0.04297-2e-3 0.4692 0.4692 0 0 0-2e-3 0c-0.0037-5.26e-4 -8e-3 -0.0014-0.01172-2e-3a0.4692 0.4692 0 0 0-0.0039-2e-3c-4e-3 -2.14e-4 -0.0061 1.88e-4 -0.0098 0-0.0075-3.89e-4 -0.01157 2.49e-4 -0.01758 0h-4e-3l-2e-3 -2e-3h-8e-3c-0.03713-4e-3 -0.07399-0.0102-0.1113-0.01172a0.4692 0.4692 0 0 0-0.01758 0h-0.08398c-6.052 0-11 4.957-11 11.01 0 5.9 4.813 11 11 11 0.8964 0 1.768-0.1129 2.598-0.3262 1.882-0.4836 3.403-1.57 4.691-2.834l3.08 2.049c-2.614 2.802-6.122 4.667-10.2 4.713h-0.166c-5.439 9.6e-5 -10.16-2.958-12.68-7.342-1.23-2.141-1.932-4.61-1.932-7.268 0-0.5047 0.02621-1.003 0.07617-1.496 0.7458-7.356 6.907-13.07 14.47-13.11zm0.2285 3.615h2e-3v2e-3h-2e-3zm7.109 17.78a0.4692 0.4692 0 0 1 0.05859 0.0078 0.4692 0.4692 0 0 0-0.123-0.003894 0.4692 0.4692 0 0 1 0.06445-0.0039z" fill="url(#a)" stop-color="#000000" stroke-linecap="round" stroke-linejoin="round" stroke-width="1.066"/>
</svg>
