<svg style="isolation:isolate" version="1.1" viewBox="0 0 64 64" xmlns="http://www.w3.org/2000/svg" xmlns:xlink="http://www.w3.org/1999/xlink">
 <defs>
  <linearGradient id="a" x1=".2208" x2=".9022" y1=".04724" y2=".9061" gradientTransform="matrix(43.5,0,0,44,5,2)" gradientUnits="userSpaceOnUse">
   <stop stop-color="#d300dc" offset="0"/>
   <stop stop-color="#8700ff" offset="1"/>
  </linearGradient>
 </defs>
 <path transform="translate(-2.909 -2.909) scale(1.455)" d="m43 22m-0.05304 19.16c-0.002871 2.742-2.191 4.84-4.703 4.84h-28.49c-2.625 0-4.756-2.131-4.756-4.756v-19.24c0-1.104 0.811-2 1.81-2 0.998 0 1.809 0.896 1.809 2v17.15c0 1.575 1.279 2.854 2.854 2.854h25.05c1.575 0 2.854-1.279 2.854-2.854v-30.29c0-1.575-1.279-2.854-2.854-2.854h-25.05c-1.575 0-2.854 1.279-2.854 2.854v5.146c0 1.104-0.811 2-1.809 2-0.999 0-1.81-0.896-1.81-2v-7.244c0-2.625 2.131-4.756 4.756-4.756h28.49c2.512 0 4.742 2.135 4.739 4.769zm-24.96-3.043s1.681 0.119 3.843-0.071c0.875-0.077 4.2-0.404 6.685-0.949 0 0 3.03-0.649 4.652-1.246 1.696-0.625 2.619-1.156 3.034-1.908-0.018-0.154 0.128-0.7-0.654-1.028-2-0.839-4.319-0.687-8.909-0.784-5.09-0.175-6.783-1.027-7.685-1.713-0.865-0.696-0.43-2.622 3.276-4.319 1.867-0.903 9.185-2.57 9.185-2.57-2.465-1.218-7.06-3.36-8.005-3.822-0.829-0.406-2.155-1.016-2.442-1.755-0.326-0.71 0.77-1.321 1.381-1.496 1.971-0.568 4.753-0.921 7.285-0.961 1.273-0.02 1.479-0.102 1.479-0.102 1.756-0.291 2.913-1.493 2.431-3.395-0.433-1.943-2.713-3.084-4.88-2.689-2.041 0.372-6.96 1.801-6.96 1.801 6.08-0.053 7.098 0.049 7.552 0.684 0.269 0.376-0.122 0.89-1.743 1.155-1.765 0.288-5.435 0.636-5.435 0.636-3.52 0.209-6 0.223-6.744 1.797-0.486 1.029 0.518 1.939 0.958 2.508 1.86 2.068 4.546 3.183 6.275 4.005 0.651 0.309 2.559 0.892 2.559 0.892-5.609-0.308-9.655 1.414-12.03 3.397-2.684 2.483-1.497 5.443 4.003 7.266 3.249 1.076 4.86 1.582 9.705 1.146 2.854-0.154 3.304-0.062 3.333 0.172 0.04 0.33-3.17 1.149-4.047 1.401-2.229 0.643-8.074 1.942-8.103 1.948z" fill="url(#a)" fill-rule="evenodd"/>
</svg>
