<svg version="1.1" viewBox="0 0 64 64" xmlns="http://www.w3.org/2000/svg">
 <defs>
  <linearGradient id="a" y1="1">
   <stop stop-color="#fdac7e" offset="0"/>
   <stop stop-color="#fcf39f" offset="1"/>
  </linearGradient>
 </defs>
 <path transform="translate(0) scale(1) translate(0) scale(1) translate(-2e-5 -1e-6) scale(1) translate(.008 .004) scale(.9998)" d="M10.8 0a7.18 7.18 0 0 0-7.174 7.174v8.064c0 1.683 1.21 3.047 2.701 3.047s2.703-1.364 2.703-3.047V10.4c0-2.377 1.928-4.973 4.303-4.973h37.32c2.375 0 4.303 2.596 4.303 4.973v26.17c0 1.681 1.212 3.049 2.703 3.049s2.701-1.367 2.701-3.049V7.17a7.18 7.18 0 0 0-7.174-7.174zM6.327 25.91c-1.491 0-2.701 1.364-2.701 3.047v27.87a7.18 7.18 0 0 0 7.174 7.174h23.9c1.491 0 2.701-1.365 2.701-3.047S34.7 58.573 34.7 58.573H13.34c-2.375 0-4.305-2.596-4.305-4.973V28.95c0-1.683-1.212-3.047-2.703-3.047zm51.34 19.81c-1.491 0-2.703 1.364-2.703 3.047v4.838c0 2.377-1.928 4.973-4.303 4.973-1.35.006-3.069-.007-4.053 0-.983.006-2.451.696-2.451 2.379 0 1.681 1.211 3.049 2.703 3.049h6.334a7.18 7.18 0 0 0 7.174-7.174v-8.064c0-1.683-1.21-3.047-2.701-3.047z" fill="url(#a)"/>
 <path transform="translate(0) scale(1) translate(0) scale(1) translate(-2e-5 -1e-6) scale(1) translate(.008 .004) scale(.9998)" d="m34.36 19.06-.116.076v.81c0 .1.043.169.129.228a.46.46 0 0 0 .27.102l.371.038c.957.039 1.408.288 1.54.443.227.276.334.582-.219 1.773l-3.31 6.509-2.987-6.04c-.981-1.93-1.22-2.533.257-2.647l.59-.076q.424 0 .423-.291v-.849l-.218-.076-8.067.013-.116.076v.848c0 .19.203.241.59.292 1.384.18 1.35.322 2.72 3.002l4.835 9.649-4.528 8.914-.256-.062-9.067-19.54c-.212-.508-.308-.883-.308-1.114 0-.498.45-.761 1.359-.798l1.065-.051c.28 0 .423-.107.423-.33v-.797l-.103-.089H9.477l-.09.089v.836c0 .152.185.249.578.291 1.069.057 1.778.226 2.116.507.336.283 1.167 2.115 1.167 2.115l10.63 23.05c.761 1.682 1.71 1.945 2.872-.051l5.22-10.35c.025-.352.346.114.346.114l4.77 10.21c.861 1.755 1.84 1.925 2.833.05l10.22-22.91c.33-.844.783-1.49 1.37-1.963q.884-.703 2.72-.785.375 0 .373-.33v-.81l-.09-.088h-9.35l-.117.089v.81c0 .095.043.168.13.228a.45.45 0 0 0 .269.101l.783.038c.958.04 1.218.227 1.59.545.368.326.416.877.128 1.659l-8.273 19.39-.32-.088-5.26-10.6 5.657-10.13c.45-.637.7-.753 1.925-.81.248 0 .373-.107.373-.33v-.797l-.09-.09z" fill="url(#a)"/>
</svg>
