<svg version="1.1" viewBox="0 0 64 64" xmlns="http://www.w3.org/2000/svg">
 <defs>
  <linearGradient id="b" x1="16.31" x2="47.67" y1="32" y2="32" gradientUnits="userSpaceOnUse">
   <stop stop-color="#ffcd1a" offset="0"/>
   <stop stop-color="#fd9c0c" offset="1"/>
  </linearGradient>
  <linearGradient id="a" x1="3.619" x2="60.36" y1="32" y2="32" gradientUnits="userSpaceOnUse">
   <stop stop-color="#ffcd1a" offset="0"/>
   <stop stop-color="#fd9c0c" offset="1"/>
  </linearGradient>
 </defs>
 <path transform="translate(0) scale(1) translate(0) scale(1) translate(0) scale(1) translate(.008)" d="M10.8 0a7.177 7.177 0 0 0-7.174 7.174v29.4c0 1.681 1.208 3.047 2.699 3.047s2.701-1.366 2.701-3.047v-26.17a4.31 4.31 0 0 1 4.307-4.307h32.17q.354.001.676-.1.32.101.676.1h3.8a4.31 4.31 0 0 1 4.306 4.307v4.838c0 1.681 1.21 3.047 2.7 3.047s2.702-1.366 2.702-3.047V7.178A7.176 7.176 0 0 0 53.19.004h-6.336c-.235 0-.463.034-.676.103a2.2 2.2 0 0 0-.676-.103h-34.7zm46.86 25.9-.006.002c-1.49 0-2.7 1.366-2.7 3.047v24.65a4.307 4.307 0 0 1-4.306 4.305h-21.36c-1.492 0-2.703 1.366-2.703 3.047 0 1.683 1.211 3.047 2.703 3.047h23.9a7.174 7.174 0 0 0 7.172-7.172v-27.88c0-1.681-1.208-3.047-2.699-3.047zM6.32 45.71v.002c-1.491 0-2.701 1.366-2.701 3.047v8.066a7.176 7.176 0 0 0 7.174 7.172h6.334c1.491 0 2.703-1.364 2.703-3.047 0-1.681-1.212-3.047-2.703-3.047h-3.801a4.31 4.31 0 0 1-4.305-4.307v-4.84c0-1.681-1.21-3.047-2.701-3.047z" fill="url(#a)"/>
 <path transform="translate(0) scale(1) translate(0) scale(1) translate(0) scale(1) translate(.006)" d="M23.24 16.33c-1.798.079-3.518.771-4.836 2.087-3.011 3.013-2.742 8.128.604 11.47l1.63 1.629a.68.68 0 0 1 0 .964l-1.63 1.631c-3.346 3.347-3.616 8.462-.604 11.47 3.013 3.011 8.127 2.74 11.47-.604l1.629-1.631a.68.68 0 0 1 .964 0l1.631 1.63c3.347 3.347 8.463 3.618 11.47.605 3.011-3.013 2.742-8.128-.604-11.47l-1.632-1.631a.68.68 0 0 1 0-.964l1.631-1.629c3.346-3.347 3.616-8.462.605-11.47-3.013-3.011-8.127-2.74-11.47.605l-1.631 1.629a.68.68 0 0 1-.964 0l-1.629-1.63c-1.673-1.672-3.789-2.577-5.863-2.687a8 8 0 0 0-.775-.005zm8.752 7.822c.154 0 .31.085.389.256a1.92 1.92 0 0 1 0 1.605.421.421 0 0 1-.775 0 1.92 1.92 0 0 1 0-1.605.42.42 0 0 1 .386-.256m-2.749 3.211q.071 0 .142.004a.477.477 0 0 1 .447.45 1.92 1.92 0 0 1-.558 1.47 1.92 1.92 0 0 1-1.467.557.48.48 0 0 1-.45-.452q-.016-.306.064-.604a1.92 1.92 0 0 1 1.822-1.425m5.496 0a1.92 1.92 0 0 1 1.885 2.03.48.48 0 0 1-.45.45 1.925 1.925 0 0 1-1.467-.557 1.93 1.93 0 0 1-.557-1.47.48.48 0 0 1 .45-.449 2 2 0 0 1 .139-.004zm-2.749 2.719q.07 0 .14.007h.033q.075.008.15.022l.048.007q.065.014.128.032l.051.013a2 2 0 0 1 .313.124l.051.027q.037.02.072.04.06.036.115.079h.004l.003.002a2 2 0 0 1 .251.209 2 2 0 0 1 .21.256q.04.056.078.115.022.035.043.071l.025.052a2 2 0 0 1 .123.312l.007.02.009.032q.016.063.03.128l.008.05q.015.075.023.15v.034q.006.07.006.14 0 .068-.006.136v.034q-.008.075-.023.15-.004.026-.009.05a2 2 0 0 1-.029.128l-.016.052a2 2 0 0 1-.123.312l-.025.052q-.02.036-.043.071-.037.06-.078.117a2 2 0 0 1-.21.254 2 2 0 0 1-.251.21v.001h-.007a2 2 0 0 1-.115.08l-.072.04-.051.027a2 2 0 0 1-.312.123l-.052.016q-.063.016-.128.03l-.047.006q-.075.015-.15.022h-.035a2 2 0 0 1-.139.01 2 2 0 0 1-.14-.01h-.033q-.075-.008-.15-.022l-.048-.007a1.85 1.85 0 0 1-.73-.315h-.007v-.002h-.002a1.955 1.955 0 0 1-.377-.35 2 2 0 0 1-.081-.108v-.005l-.003-.002a2 2 0 0 1-.076-.115q-.022-.035-.043-.072l-.009-.02-.015-.031a2 2 0 0 1-.126-.312q-.008-.027-.014-.052a2 2 0 0 1-.031-.128l-.007-.05q-.014-.075-.023-.15v-.034a2 2 0 0 1-.006-.137q0-.07.007-.14v-.033q.008-.075.022-.15l.007-.05q.013-.065.031-.128.006-.026.014-.052a2 2 0 0 1 .126-.312l.024-.052.043-.072q.037-.059.079-.114.038-.059.08-.115a2 2 0 0 1 .272-.27q.055-.042.113-.082a2 2 0 0 1 .186-.12 2 2 0 0 1 .196-.09q.083-.034.168-.06l.054-.016q.063-.016.128-.029l.047-.007q.075-.015.15-.022h.035q.07-.006.139-.007m-6.822 1.358c.257-.004.512.045.75.141q.042.017.081.034a.421.421 0 0 1-.002.775 1.91 1.91 0 0 1-1.602 0 .421.421 0 0 1 0-.775c.24-.11.504-.17.773-.175m13.64 0c.27.004.533.065.773.175a.421.421 0 0 1 0 .775h-.002a1.91 1.91 0 0 1-1.602 0 .421.421 0 0 1 0-.775l.08-.034a1.9 1.9 0 0 1 .751-.141m-10.93 2.716a1.9 1.9 0 0 1 .75.142h.003a1.92 1.92 0 0 1 1.193 1.887.48.48 0 0 1-.45.452 1.924 1.924 0 0 1-1.467-.557 1.92 1.92 0 0 1-.557-1.47.477.477 0 0 1 .447-.45zm8.213 0q.04.001.08.005a.477.477 0 0 1 .448.449 1.92 1.92 0 0 1-.557 1.47 1.92 1.92 0 0 1-1.467.557.48.48 0 0 1-.45-.452q-.017-.306.063-.604a1.92 1.92 0 0 1 1.883-1.425zm-4.105 3.581c.154 0 .308.085.386.256a1.92 1.92 0 0 1 0 1.605.42.42 0 0 1-.773 0 1.92 1.92 0 0 1 0-1.605.42.42 0 0 1 .387-.256z" fill="url(#b)"/>
</svg>
