<svg version="1.1" viewBox="0 0 64 64" xmlns="http://www.w3.org/2000/svg" xmlns:xlink="http://www.w3.org/1999/xlink">
 <defs>
  <linearGradient id="a" y1="1">
   <stop stop-color="#ff001e" offset="0"/>
   <stop stop-color="#ff004b" offset="1"/>
  </linearGradient>
  <linearGradient id="c" x1="5.767" x2="24.98" y1="26.29" y2="7.082" gradientTransform="scale(1.041 .9607)" gradientUnits="userSpaceOnUse" xlink:href="#a"/>
  <linearGradient id="b" x1="7.094" x2="30.76" y1="25.36" y2="1.69" gradientTransform="scale(.8452 1.183)" gradientUnits="userSpaceOnUse" xlink:href="#a"/>
 </defs>
 <path transform="translate(0) scale(1) translate(-2e-5) scale(1) translate(.008199 .003999) scale(.9998) translate(-2e-4) scale(1)" d="m10.8 0c-3.959 0-7.174 3.215-7.174 7.174v8.064c0 1.683 1.21 3.047 2.701 3.047s2.703-1.364 2.703-3.047v-4.838c0-2.377 1.928-4.973 4.303-4.973h37.32c2.375 0 4.303 2.596 4.303 4.973v26.17c0 1.681 1.212 3.049 2.703 3.049s2.701-1.367 2.701-3.049v-29.4c0-3.959-3.215-7.174-7.174-7.174zm-4.473 25.91c-1.491 0-2.701 1.364-2.701 3.047v27.87c0 3.959 3.215 7.174 7.174 7.174h23.9c1.491 0 2.701-1.365 2.701-3.047 0-1.683-2.701-2.381-2.701-2.381h-21.36c-2.375 0-4.305-2.596-4.305-4.973v-24.65c0-1.683-1.212-3.047-2.703-3.047zm51.34 19.81c-1.491 0-2.703 1.364-2.703 3.047v4.838c0 2.377-1.928 4.973-4.303 4.973-1.35 0.0056-3.069-0.0066-4.053 0-0.9835 0.0065-2.451 0.696-2.451 2.379 0 1.681 1.211 3.049 2.703 3.049h6.334c3.959 0 7.174-3.215 7.174-7.174v-8.064c0-1.683-1.21-3.047-2.701-3.047z" fill="url(#a)"/>
 <g transform="translate(0) scale(1) translate(-2e-5) scale(1) translate(.008199 .003999) scale(.9998) matrix(.5918 0 0 .5918 13.06 13.06)">
  <path transform="matrix(2.286,0,0,2.286,-4.571,-4.571)" d="m13.48 6.803-0.457 1.213 12.52 5.16 0.457-1.209zm-7.02 3.092-0.457 1.211 12.52 5.162 0.457-1.211zm7.016 5.904-0.457 1.211 12.52 5.162 0.457-1.209zm-7.008 3.086-0.4551 1.213 12.52 5.16 0.457-1.209z" fill="url(#c)"/>
  <path transform="matrix(2.286,0,0,2.286,-4.571,-4.571)" d="m26 2-20 3.109v5.99l20-3.109zm0 9.961-20 3.109v5.029l20-3.109zm-0.0039 9-20 3.109v5.93l20-3.106z" fill="url(#b)"/>
 </g>
</svg>
