<svg version="1.1" viewBox="0 0 64 64" xmlns="http://www.w3.org/2000/svg" xmlns:xlink="http://www.w3.org/1999/xlink">
 <defs>
  <linearGradient id="a" y1="1">
   <stop stop-color="#00b8ff" offset="0"/>
   <stop stop-color="#00ff9d" offset="1"/>
  </linearGradient>
  <linearGradient id="d" x2="63.99" y1="63.99" gradientTransform="matrix(.4231 0 0 .4231 13.95 13.48)" gradientUnits="userSpaceOnUse">
   <stop stop-color="#b5007f" offset="0"/>
   <stop stop-color="#ff014a" offset=".5"/>
   <stop stop-color="#fbd425" offset="1"/>
  </linearGradient>
  <linearGradient id="c" x1="26.89" x2="38.19" y1="29.93" y2="41.68" gradientTransform="scale(1.024 .9765)" gradientUnits="userSpaceOnUse" xlink:href="#a"/>
  <linearGradient id="b" x1="6.557" x2="56.56" y1="1.594" y2="53.7" gradientTransform="scale(.9416 1.062)" gradientUnits="userSpaceOnUse" xlink:href="#a"/>
 </defs>
 <path transform="translate(0) scale(1) translate(0) scale(1) translate(0) scale(1) translate(0) scale(1) translate(0) scale(1) translate(.008)" d="M10.8 0a7.177 7.177 0 0 0-7.174 7.174v29.4c0 1.681 1.208 3.047 2.699 3.047s2.701-1.366 2.701-3.047v-26.17a4.31 4.31 0 0 1 4.307-4.307h32.17q.354.001.676-.1.32.101.676.1h3.8a4.31 4.31 0 0 1 4.306 4.307v4.838c0 1.681 1.21 3.047 2.7 3.047s2.702-1.366 2.702-3.047V7.178A7.176 7.176 0 0 0 53.19.004h-6.336c-.235 0-.463.034-.676.103a2.2 2.2 0 0 0-.676-.103h-34.7zm46.86 25.9-.006.002c-1.49 0-2.7 1.366-2.7 3.047v24.65a4.307 4.307 0 0 1-4.306 4.305h-21.36c-1.492 0-2.703 1.366-2.703 3.047 0 1.683 1.211 3.047 2.703 3.047h23.9a7.174 7.174 0 0 0 7.172-7.172v-27.88c0-1.681-1.208-3.047-2.699-3.047zM6.32 45.71v.002c-1.491 0-2.701 1.366-2.701 3.047v8.066a7.176 7.176 0 0 0 7.174 7.172h6.334c1.491 0 2.703-1.364 2.703-3.047 0-1.681-1.212-3.047-2.703-3.047h-3.801a4.31 4.31 0 0 1-4.305-4.307v-4.84c0-1.681-1.21-3.047-2.701-3.047z" fill="url(#b)"/>
 <path transform="translate(0) scale(1)" d="m20.15 13.48a6.207 6.207 0 0 0-6.203 6.203v14.67a6.207 6.207 0 0 0 6.203 6.203h3.074c-0.0057-0.1755-0.01128-0.3529-0.01763-0.5333a2.821 2.821 0 0 1 0-0.0022c-0.03348-0.9519-0.04853-1.905-0.04517-2.857h-0.1708v-8.462h1.433c0.298-0.5151 0.664-1.007 1.106-1.453a2.821 2.821 0 0 1 0.0022-0.0022c0.9865-0.9929 2.198-1.601 3.384-1.924h-5.934v-8.459h9.026v8.043c0.3864-0.01954 0.7806-0.03429 1.191-0.05179 0.7144-0.03099 1.448-0.05517 2.198-0.07162v-0.02755h2.254c0.1205-3.46e-4 0.2414 0 0.3625 0a2.821 2.821 0 0 1 0.0033 0.0011c1.002-9.03e-4 2.004 0.01197 3.006 0.03856v-5.112a6.207 6.207 0 0 0-6.203-6.203zm15.25 3.439a2.817 2.817 0 0 1 2.254 2.764v1.69h-2.254zm-15.79 0.0022v4.453h-2.259v-1.692a2.821 2.821 0 0 1 2.259-2.761zm-2.264 7.835h2.255v4.506h-2.255zm0.01322 7.892h2.258v4.456a2.817 2.817 0 0 1-2.258-2.764z" fill="url(#d)"/>
 <path transform="translate(0) scale(1)" d="m38.02 27.57c-1.634 0-3.211 0.03266-4.693 0.09696-1.332 0.05683-2.366 0.09508-3.301 0.2843-0.9414 0.1907-1.798 0.5827-2.487 1.276-0.6827 0.6887-1.072 1.534-1.256 2.461-0.1817 0.9205-0.2067 1.935-0.2523 3.232a71.04 71.04 0 0 0 0 4.994v0.0022c0.04562 1.296 0.07061 2.31 0.2523 3.229 0.1832 0.9272 0.5734 1.773 1.256 2.461 0.6879 0.6924 1.545 1.086 2.487 1.276 0.9347 0.1892 1.969 0.2274 3.303 0.2843h0.0022c0.8136 0.03514 1.647 0.06068 2.511 0.07713h0.0088c0.7993 0.01571 1.107 0.05414 1.194 0.08704 0.1107 0.04263 0.3402 0.201 0.9354 0.7118l2.385 2.047c1.18 1.012 3.126 0.1164 3.125-1.439v-1.551c0.9205-0.04337 1.809-0.07274 2.523-0.2171 0.9414-0.1914 1.799-0.5835 2.487-1.276 0.6827-0.6894 1.072-1.534 1.256-2.461 0.1817-0.919 0.2074-1.934 0.2523-3.227 0.02991-0.8335 0.04518-1.667 0.04518-2.502a68.05 68.05 0 0 0-0.04518-2.498c-0.04561-1.297-0.07061-2.311-0.2523-3.23-0.1832-0.9272-0.5734-1.773-1.256-2.461-0.6879-0.6924-1.545-1.086-2.487-1.276-0.9347-0.1892-1.969-0.2274-3.303-0.2843h-0.0022c-1.562-0.06581-3.125-0.09736-4.688-0.09586zm0.0011 2.189c1.533-4.99e-4 3.065 0.03105 4.598 0.09586 1.331 0.05758 2.305 0.106 2.964 0.2391 0.6692 0.1346 0.986 0.2918 1.365 0.6732 0.3836 0.3866 0.5314 0.6966 0.66 1.346 0.1264 0.6386 0.1711 1.579 0.216 2.87v0.01212a68.79 68.79 0 0 1 0 4.842v0.01102c-0.04561 1.292-0.08883 2.232-0.216 2.871-0.1286 0.649-0.2764 0.9598-0.66 1.346-0.3799 0.3814-0.6966 0.5379-1.365 0.6732-0.6573 0.1324-1.628 0.1823-2.953 0.2391h-0.01322l-0.2644 0.0099c-0.584 0.02468-1.049 0.5108-1.049 1.094v1.927l-1.801-1.545v0.1245a0.2767 0.2767 0 0 0-0.09693-0.2071c-0.5982-0.5137-0.9897-0.8753-1.574-1.1-0.5974-0.2288-1.139-0.2131-1.941-0.2281-0.8465-0.01745-1.668-0.04323-2.463-0.07713-1.334-0.05758-2.307-0.106-2.967-0.2391-0.6692-0.1353-0.986-0.2918-1.365-0.6732-0.3836-0.3866-0.5325-0.6955-0.6611-1.345-0.1264-0.6401-0.1704-1.582-0.216-2.879a68.79 68.79 0 0 1 0-4.85c0.04561-1.297 0.08883-2.238 0.216-2.878 0.1286-0.6498 0.2775-0.9606 0.6611-1.346 0.3799-0.3828 0.6959-0.5386 1.365-0.6732 0.6595-0.1338 1.633-0.1823 2.967-0.2391 1.448-0.06281 2.991-0.09586 4.594-0.09586zm-4.924 4.375c-0.6012 0-1.094 0.4936-1.094 1.094 0 0.6012 0.4936 1.094 1.094 1.094h9.848c0.6012 0 1.093-0.4936 1.093-1.094 0-0.6012-0.4925-1.094-1.093-1.094zm0 4.376c-0.6012 0-1.094 0.4936-1.094 1.094 0 0.6012 0.4936 1.094 1.094 1.094h6.017c0.6012 0 1.094-0.4936 1.094-1.094 0-0.6012-0.4936-1.094-1.094-1.094z" fill="url(#c)"/>
</svg>
