<svg version="1.1" viewBox="0 0 64 64" xmlns="http://www.w3.org/2000/svg">
 <defs>
  <linearGradient id="a" x2="0" y1="1">
   <stop stop-color="#00f260" offset="0"/>
   <stop stop-color="#0575e6" offset="1"/>
  </linearGradient>
 </defs>
 <path transform="translate(0) scale(1) translate(-.0012) scale(1) translate(-6e-4) scale(1)" d="m10.81 0a7.177 7.177 0 0 0-7.174 7.174v29.4c0 1.681 1.206 3.047 2.697 3.047s2.701-1.366 2.701-3.047v-26.17a4.31 4.31 0 0 1 4.309-4.307h32.17c0.236 0 0.4611-0.03552 0.6758-0.1035 0.2133 0.06867 0.4384 0.1042 0.6758 0.1035h3.799a4.31 4.31 0 0 1 4.309 4.307v4.838c0 1.681 1.209 3.047 2.699 3.047s2.701-1.366 2.701-3.047v-8.064a7.176 7.176 0 0 0-7.174-7.174h-6.336c-0.2367 0-0.4618 0.03485-0.6758 0.1035a2.2 2.2 0 0 0-0.6758-0.1035h-34.7zm46.86 25.9-2e-3 2e-3 -0.0078 2e-3c-1.49 0-2.697 1.366-2.697 3.047v24.65a4.307 4.307 0 0 1-4.309 4.305h-21.36c-1.492 0-2.703 1.366-2.703 3.047 0 1.683 1.211 3.047 2.703 3.047h23.9a7.174 7.174 0 0 0 7.172-7.172v-27.88c0-1.681-1.206-3.047-2.697-3.047zm-51.34 19.81v0.0059c-1.491 0-2.699 1.366-2.699 3.047v8.062a7.176 7.176 0 0 0 7.174 7.172h6.334c1.491 0 2.703-1.364 2.703-3.047 0-1.681-1.212-3.047-2.703-3.047h-3.801a4.31 4.31 0 0 1-4.307-4.307v-4.84c0-1.681-1.21-3.047-2.701-3.047z" fill="url(#a)"/>
 <path transform="translate(0) scale(1) translate(-.0012) scale(1) translate(-6e-4) scale(1)" d="m32 14.51a4.77 4.77 0 0 0-4.768 4.772v14.31h-4.971a3.08 3.08 0 0 0-2.846 1.894 3.09 3.09 0 0 0 0.6719 3.359l9.74 9.74a3.06 3.06 0 0 0 3.359 0.6719c0.374-0.155 0.7081-0.3839 0.9941-0.6699l9.74-9.74a3.085 3.085 0 0 0 0.6699-3.361 3.07 3.07 0 0 0-1.139-1.381 3.06 3.06 0 0 0-1.707-0.5137h-4.971v-14.31a4.78 4.78 0 0 0-1.402-3.373 4.77 4.77 0 0 0-3.371-1.398z" fill="url(#a)"/>
</svg>
