<svg version="1.1" viewBox="0 0 64 64" xmlns="http://www.w3.org/2000/svg">
 <path transform="translate(0) scale(1) translate(0) scale(1) translate(0) scale(1) translate(0) scale(1) translate(0) scale(1) translate(-2e-5 -1e-6) scale(1) translate(.008 .004) scale(.9998)" d="M10.8 0a7.18 7.18 0 0 0-7.174 7.174v8.064c0 1.683 1.21 3.047 2.701 3.047s2.703-1.364 2.703-3.047V10.4c0-2.377 1.928-4.973 4.303-4.973h37.32c2.375 0 4.303 2.596 4.303 4.973v26.17c0 1.681 1.212 3.049 2.703 3.049s2.701-1.367 2.701-3.049V7.17a7.18 7.18 0 0 0-7.174-7.174zM6.327 25.91c-1.491 0-2.701 1.364-2.701 3.047v27.87a7.18 7.18 0 0 0 7.174 7.174h23.9c1.491 0 2.701-1.365 2.701-3.047S34.7 58.573 34.7 58.573H13.34c-2.375 0-4.305-2.596-4.305-4.973V28.95c0-1.683-1.212-3.047-2.703-3.047zm51.34 19.81c-1.491 0-2.703 1.364-2.703 3.047v4.838c0 2.377-1.928 4.973-4.303 4.973-1.35.006-3.069-.007-4.053 0-.983.006-2.451.696-2.451 2.379 0 1.681 1.211 3.049 2.703 3.049h6.334a7.18 7.18 0 0 0 7.174-7.174v-8.064c0-1.683-1.21-3.047-2.701-3.047z" fill="#fff"/>
 <path transform="translate(0) scale(1) translate(0) scale(1) translate(0) scale(1) translate(0) scale(1) translate(0) scale(1) translate(-2e-5 -1e-6) scale(1) translate(.008 .004) scale(.9998)" d="M33.92 11.75c-6.852 0-12.83 3.804-14.18 9.204v.004c-.582 2.329-.22 4.68 1.032 6.478.774 1.11 1.963 1.826 3.283 2.309-.405.828-.885 1.63-.885 2.66l-.003 3.34a5.96 5.96 0 0 0 1.37 3.809c-1.205 1.287-1.97 3.125-1.97 5.204 0 2.313.948 4.33 2.399 5.618 1.448 1.289 3.287 1.884 5.1 1.884 1.814 0 3.665-.596 5.11-1.884 1.447-1.29 2.393-3.304 2.393-5.618 0-2.118-.793-3.99-2.038-5.28q.132-.165.251-.337c.933-1.364 1.5-2.29 1.867-2.497 2.35-1.32 4.537-2.701 6.237-4.63 1.7-1.927 2.803-4.487 2.803-7.512 0-3.08-.921-6.24-3.053-8.697-2.132-2.458-5.495-4.057-9.7-4.057zm0 4.499c3.13 0 5.02 1.024 6.305 2.506s1.952 3.574 1.952 5.747c0 2.035-.57 3.283-1.676 4.539-1.107 1.257-2.865 2.438-5.064 3.672-2.042 1.146-2.749 2.965-3.377 3.88l-.004.004a1.47 1.47 0 0 1-1.237.658h-1.658a1.47 1.47 0 0 1-1.5-1.503l.007-3.344v-.004c0-.75.693-1.777 2.201-2.902s3.534-2.14 5.143-3.03a2.25 2.25 0 0 0-2.107-3.979q-.034.022-.072.043v-.003c-.02.012-.06.038-.082.05a95 95 0 0 0-4.725 2.641h-.004v.004c-.687.405-1.21.587-1.5.593-1.055.021-1.635-.345-2.064-.96s-.665-1.58-.356-2.812c.635-2.523 4.75-5.797 9.819-5.797zm-3.86 25.5c.813 0 1.601.282 2.121.744.52.463.885 1.072.885 2.26s-.364 1.792-.885 2.255c-.52.464-1.309.745-2.121.745s-1.591-.28-2.11-.744c-.52-.464-.885-1.068-.885-2.257 0-1.188.364-1.797.885-2.259.52-.462 1.3-.744 2.11-.744" fill="#fff"/>
</svg>
