<svg version="1.1" viewBox="0 0 64 64" xmlns="http://www.w3.org/2000/svg">
 <defs>
  <linearGradient id="b" x1="1" x2="0" y1="1">
   <stop stop-color="#ff0002" offset="0"/>
   <stop stop-color="#ff0050" offset="1"/>
  </linearGradient>
  <linearGradient id="a" y2="1">
   <stop stop-color="#ff8618" offset="0"/>
   <stop stop-color="#ff246e" offset=".5"/>
   <stop stop-color="#af1df5" offset="1"/>
  </linearGradient>
 </defs>
 <path transform="translate(0 -7e-4) scale(1) translate(0) scale(1) translate(0) scale(1) translate(0) scale(1) translate(0) scale(1) translate(0 .00036) scale(1) translate(0 .003)" d="m57.15 2.745c-1.095-0.18-49.87-0.1312-50.65 0.05078a8.43 8.43 0 0 0-6.303 6.381l-0.168 0.7617v36.64l11.05 0.03711v1.727c0 3.038 1.301 4.3 3.428 3.33 0.464-0.212 0.9346-0.6761 1.141-1.121l0.1562-0.3379 0.03906-36.7-0.1855-0.377c-0.663-1.355-2.746-1.686-3.885-0.6172-0.588 0.553-0.6493 0.7672-0.6973 2.49l-0.04102 1.48-6.471 0.03906 0.05078-6.145 0.1855-0.4805c0.492-1.277 1.275-2.087 2.375-2.457l0.4473-0.1504h24.44c25.93 0 24.76-0.01378 25.43 0.3242 1.249 0.637 1.899 1.739 1.996 3.381 0.092 1.565 0.2788 1.711 2.215 1.711 2.03 0 2.26-0.1859 2.26-1.836 0-4.28-2.65-7.439-6.816-8.123l0.003907-0.007812zm-6.451 9.135c-0.912 7e-3 -1.825 0.4615-2.238 1.355l-0.1562 0.3379v36.56l0.1699 0.3789c0.794 1.756 3.4 1.849 4.34 0.1543l0.2129-0.3867 0.04688-3.67h6.543l-0.02734 3.469c-0.025 3.094-0.04316 3.514-0.1602 3.871-0.454 1.39-1.383 2.314-2.668 2.656-0.574 0.153-48.68 0.1589-49.25 0.005859-1.838-0.49-2.775-1.768-2.854-3.896-0.066-1.776-0.1651-1.854-2.369-1.854-1.928 0-2.289 0.1867-2.289 1.18 0 4.938 3 8.671 7.43 9.246 0.95 0.124 48.82 0.08884 49.53-0.03516 3.443-0.6 6.171-3.197 6.91-6.576 0.13-0.594 0.134-1.341 0.127-19.37l-0.007813-18.75-10.92-0.03711-0.001953-1.508c-1e-3 -1.318-0.01772-1.547-0.1367-1.811-0.403-0.886-1.315-1.324-2.227-1.316l-0.005859-0.003907zm2.365 9.143h6.506v8.287h-6.506v-4.143-4.145zm-48.48 0.001953h6.506v8.287h-6.506v-4.143-4.145zm48.48 12.79h6.471v8.287h-6.471v-4.143-4.145zm-48.48 0.001953h6.506l-0.01953 3.738c-0.011 2.056 0.007969 3.922 0.04297 4.145l0.06445 0.4043h-6.594v-4.143-4.145z" fill="url(#a)"/>
 <path transform="translate(0 -7e-4) scale(1) translate(0 .00336)" d="m43.88 17.16c-2.17 0.032-11.06 0.94-14.62 13.42-3.025 10.6-8.822 10.34-9.539 10.28-0.048-5e-3 -0.049-7e-3 -0.096-0.01-0.203-0.015-0.614 0.314-0.614 0.517v4.896c0 0.323 0.263 0.584 0.585 0.582 0.038 0 0.073-4e-3 0.11-4e-3 0.841-5e-3 9.796 0.72 14.12-11.19a0.93 0.93 0 0 1 0.861-0.617h6.3a0.9 0.9 0 0 0 0.899-0.9v-4.17a0.9 0.9 0 0 0-0.9-0.9h-3.198c-0.59 0-1-0.552-0.751-1.086 0.784-1.687 2.824-4.753 7.317-4.83h1e-3a0.605 0.605 0 0 0 0.62-0.629v-5.033a0.32 0.32 0 0 0-0.319-0.319h-0.316v2e-3h-1e-3v1e-3h-2e-3v5e-3l-3e-3 3e-3h-1e-3a5 5 0 0 0-0.458-0.01z" fill="url(#b)"/>
</svg>
