<svg version="1.1" viewBox="0 0 64 64" xmlns="http://www.w3.org/2000/svg">
 <defs>
  <linearGradient id="b" y1="1">
   <stop stop-color="#0006ff" offset="0"/>
   <stop stop-color="#00d2ff" offset="1"/>
  </linearGradient>
  <linearGradient id="a" x2="0" y1="1">
   <stop stop-color="#fd7900" offset="0"/>
   <stop stop-color="#faff00" offset="1"/>
  </linearGradient>
 </defs>
 <path transform="translate(0) scale(1) translate(0) scale(1) translate(0) scale(1) translate(0) scale(1) translate(-.00044 -.0012) scale(1) translate(-.00338 .00061)" d="m57.15 2.746c-1.095-0.18-49.87-0.1292-50.64 0.05078a8.43 8.43 0 0 0-6.301 6.385l-0.168 0.7617v36.64l11.05 0.03711v1.728c0 3.038 1.3 4.3 3.428 3.33 0.464-0.212 0.932-0.6775 1.141-1.121l0.1562-0.3379 0.03711-36.71-0.1856-0.3789c-0.663-1.353-2.746-1.685-3.885-0.6152-0.588 0.552-0.6493 0.7665-0.6973 2.488l-0.03906 1.48-6.475 0.03711 0.0293-3.068 0.02148-3.072 0.1894-0.4824c0.492-1.277 1.274-2.085 2.375-2.455l0.4473-0.1523 24.44 0.00195c25.93 0 24.76-0.0137 25.43 0.3242 1.25 0.637 1.9 1.74 1.996 3.383 0.092 1.564 0.277 1.711 2.215 1.711 2.03 0 2.258-0.1865 2.258-1.836 0-4.28-2.645-7.432-6.809-8.115zm-6.449 9.133c-0.912 7e-3 -1.825 0.4585-2.238 1.356l-0.1543 0.3379v36.56l0.1699 0.3789c0.793 1.755 3.4 1.845 4.34 0.1504l0.2148-0.3867 0.04492-3.67h6.545l-0.0293 3.473c-0.025 3.094-0.0422 3.513-0.1582 3.869-0.454 1.39-1.384 2.312-2.668 2.654-0.575 0.153-48.67 0.1569-49.25 0.0039-1.838-0.49-2.776-1.765-2.856-3.893-0.066-1.776-0.1675-1.857-2.371-1.857-1.927 2.1e-5 -2.287 0.185-2.287 1.182 0 4.938 3 8.672 7.43 9.246 0.95 0.124 48.81 0.09375 49.53-0.03125 3.442-0.6 6.166-3.196 6.906-6.574 0.13-0.594 0.134-1.341 0.127-19.37l-0.0078-18.75-10.92-0.03711-2e-3 -1.508c-9.99e-4 -1.318-0.01955-1.547-0.1387-1.809-0.403-0.888-1.316-1.322-2.228-1.314zm2.363 9.144h6.508v8.287h-6.508v-4.144zm-48.48 0.0059h6.506v8.287h-6.506v-4.144zm0 12.79h6.506l-0.01953 3.734c-0.01 2.056 8e-3 3.922 0.04297 4.144l0.0625 0.4043h-6.592v-4.144zm48.48 0.0078h6.471v8.283h-6.471v-4.143z" fill="url(#b)"/>
 <path transform="translate(0) scale(1) translate(0) scale(1) translate(0) scale(1) translate(0) scale(1) translate(-.00044 -.0012) scale(1) translate(-.00338 .00061) scale(1)" d="m27.85 25.17c-1.605 0.02294-3.066 1.313-3.066 3.111v9.818c0 2.397 2.599 3.892 4.67 2.686l8.422-4.912c2.053-1.198 2.053-4.164 0-5.361l-8.422-4.912c-0.5178-0.3018-1.068-0.4353-1.604-0.4277z" fill="url(#a)"/>
</svg>
