<svg version="1.1" viewBox="0 0 64 64" xmlns="http://www.w3.org/2000/svg">
 <defs>
  <linearGradient id="a" x1="1" x2="0" y1="1">
   <stop stop-color="#ff0030" offset="0"/>
   <stop stop-color="#ff36a5" offset="1"/>
  </linearGradient>
  <linearGradient id="b" x1="1" x2="0" y1="1">
   <stop stop-color="#ff0002" offset="0"/>
   <stop stop-color="#ff0050" offset="1"/>
  </linearGradient>
 </defs>
 <path transform="translate(0) scale(1) translate(0) scale(1) translate(0) scale(1) translate(0) scale(1) translate(0 .00036) scale(1) translate(0 .003)" d="M50.7 11.88c-.912.007-1.827.46-2.24 1.354l-.156.338v36.56l.171.379c.794 1.756 3.4 1.848 4.34.153l.213-.387.046-3.67h6.544l-.029 3.47c-.025 3.094-.042 3.514-.159 3.871-.454 1.39-1.383 2.315-2.668 2.657-.574.153-48.68.157-49.25.004-1.838-.49-2.775-1.768-2.854-3.896-.066-1.776-.164-1.854-2.368-1.854-1.928 0-2.29.187-2.29 1.18 0 4.938 3 8.671 7.43 9.246.95.124 48.82.09 49.53-.034 3.443-.6 6.172-3.197 6.911-6.576.13-.594.135-1.342.128-19.37l-.008-18.75-10.92-.037-.002-1.508c-.001-1.318-.019-1.546-.138-1.81-.403-.886-1.313-1.325-2.225-1.317zm2.365 9.142h6.506v8.287h-6.506v-4.143zm0 12.79h6.47v8.287h-6.47v-4.143z" fill="url(#a)"/>
 <path transform="translate(0) scale(1) translate(0) scale(1) translate(0) scale(1) translate(0) scale(1) translate(0 .00036) scale(1) translate(0 .003)" d="M57.15 2.744c-1.095-.18-49.87-.13-50.65.052a8.43 8.43 0 0 0-6.302 6.38l-.168.763v36.64l11.05.037v1.726c0 3.038 1.3 4.3 3.427 3.33.464-.212.936-.675 1.142-1.12l.156-.339.038-36.7-.185-.378c-.663-1.355-2.746-1.685-3.885-.616-.588.553-.648.767-.696 2.49l-.041 1.48-6.471.038.025-3.072.025-3.072.186-.481c.492-1.277 1.274-2.087 2.374-2.457l.448-.15h24.44c25.93 0 24.76-.014 25.43.324 1.249.637 1.899 1.74 1.996 3.382.092 1.565.279 1.71 2.215 1.71 2.03 0 2.259-.186 2.259-1.836 0-4.28-2.65-7.438-6.816-8.122zM4.58 21.024h6.506v8.287H4.58v-4.143zm0 12.79h6.506l-.02 3.738c-.011 2.056.008 3.92.043 4.143l.064.406H4.58v-4.143z" fill="url(#a)"/>
 <path transform="translate(0) scale(1) translate(0) scale(1) translate(0) scale(1) translate(0) scale(1) translate(0 .00036) scale(1) translate(0 .003)" d="M43.88 17.16c-2.17.032-11.06.94-14.62 13.42-3.025 10.6-8.822 10.34-9.539 10.28-.048-.005-.049-.007-.096-.01-.203-.015-.614.314-.614.517v4.896c0 .323.263.584.585.582.038 0 .073-.004.11-.004.841-.005 9.796.72 14.12-11.19a.93.93 0 0 1 .861-.617h6.3a.9.9 0 0 0 .899-.9v-4.17a.9.9 0 0 0-.9-.9h-3.198c-.59 0-1-.552-.751-1.086.784-1.687 2.824-4.753 7.317-4.83h.001a.605.605 0 0 0 .62-.629v-5.033a.32.32 0 0 0-.319-.319h-.316v.002h-.001v.001h-.002v.005l-.003.003h-.001a5 5 0 0 0-.458-.01z" fill="url(#b)"/>
</svg>
