<svg version="1.1" viewBox="0 0 64 64" xmlns="http://www.w3.org/2000/svg" xmlns:xlink="http://www.w3.org/1999/xlink">
 <defs>
  <linearGradient id="a" x1="1" x2="0" y1="1">
   <stop stop-color="#f00" offset="0"/>
   <stop stop-color="#ff0086" offset="1"/>
  </linearGradient>
  <linearGradient id="b" x1="18.02" x2=".9894" y1="23.66" y2="6.629" gradientTransform="matrix(2.246 0 0 1.408 10.66 10.66)" gradientUnits="userSpaceOnUse" xlink:href="#a"/>
  <linearGradient id="h" x1="5.629" x2="3.031" y1="18.62" y2="16.02" gradientTransform="matrix(3.08 0 0 1.027 10.66 10.66)" gradientUnits="userSpaceOnUse" xlink:href="#a"/>
  <linearGradient id="g" x1="6.144" x2="1.322" y1="47.41" y2="42.59" gradientTransform="matrix(5.716 0 0 .5532 10.66 10.66)" gradientUnits="userSpaceOnUse" xlink:href="#a"/>
  <linearGradient id="f" x1="23.66" x2="6.625" y1="18.03" y2=".9905" gradientTransform="matrix(1.409 0 0 2.244 10.66 10.66)" gradientUnits="userSpaceOnUse" xlink:href="#a"/>
  <linearGradient id="e" x1="18" x2="16" y1="11" y2="9" gradientTransform="matrix(1.778 0 0 1.778 10.66 10.66)" gradientUnits="userSpaceOnUse" xlink:href="#a"/>
  <linearGradient id="d" x1="7.044" x2="3.69" y1="38.57" y2="35.22" gradientTransform="matrix(3.976 0 0 .7953 10.66 10.66)" gradientUnits="userSpaceOnUse" xlink:href="#a"/>
  <linearGradient id="c" x1="7.181" x2="4.308" y1="37.82" y2="34.95" gradientTransform="matrix(3.405 0 0 .9287 10.66 10.66)" gradientUnits="userSpaceOnUse" xlink:href="#a"/>
 </defs>
 <path transform="translate(0) scale(1) translate(0) scale(1) translate(0) scale(1) translate(0) scale(1) translate(0) scale(1) translate(0) scale(1) translate(0) scale(1) translate(-2e-5) scale(1) translate(.008199 .003999) scale(.9998) translate(-2e-4) scale(1)" d="m10.8 0c-3.959 0-7.174 3.215-7.174 7.174v8.064c0 1.683 1.21 3.047 2.701 3.047s2.703-1.364 2.703-3.047v-4.838c0-2.377 1.928-4.973 4.303-4.973h37.32c2.375 0 4.303 2.596 4.303 4.973v26.17c0 1.681 1.212 3.049 2.703 3.049s2.701-1.367 2.701-3.049v-29.4c0-3.959-3.215-7.174-7.174-7.174zm-4.473 25.91c-1.491 0-2.701 1.364-2.701 3.047v27.87c0 3.959 3.215 7.174 7.174 7.174h23.9c1.491 0 2.701-1.365 2.701-3.047 0-1.683-2.701-2.381-2.701-2.381h-21.36c-2.375 0-4.305-2.596-4.305-4.973v-24.65c0-1.683-1.212-3.047-2.703-3.047zm51.34 19.81c-1.491 0-2.703 1.364-2.703 3.047v4.838c0 2.377-1.928 4.973-4.303 4.973-1.35 0.0056-3.069-0.0066-4.053 0-0.9835 0.0065-2.451 0.696-2.451 2.379 0 1.681 1.211 3.049 2.703 3.049h6.334c3.959 0 7.174-3.215 7.174-7.174v-8.064c0-1.683-1.21-3.047-2.701-3.047z" fill="url(#b)" stroke-width="1.778"/>
 <path transform="translate(0) scale(1) translate(0) scale(1) translate(0) scale(1) translate(0) scale(1) translate(0) scale(1) translate(0) scale(1) translate(0) scale(1) translate(-2e-5) scale(1) translate(.008199 .003999) scale(.9998)" d="m24.89 20c-2.515 0-4.43-0.0072-6.034 0.2084-1.604 0.2157-2.984 0.7094-4.019 1.744-1.035 1.034-1.528 2.415-1.744 4.019-0.2157 1.604-0.2084 3.517-0.2084 6.034s-0.0072 4.43 0.2084 6.034c0.2157 1.604 0.7094 2.984 1.744 4.019 1.51 1.51 3.608 1.835 6.453 1.921l0.08337-2.667c-2.68-0.08072-3.88-0.3681-4.65-1.139-0.5283-0.5283-0.8114-1.189-0.9864-2.49-0.175-1.302-0.1841-3.16-0.1841-5.675s0.0091-4.373 0.1841-5.675 0.4581-1.961 0.9864-2.49c0.5283-0.5282 1.189-0.8114 2.49-0.9864 1.302-0.175 3.16-0.1841 5.675-0.1841h14.23c2.515 0 4.373 0.0091 5.675 0.1841s1.961 0.4581 2.49 0.9864c0.5283 0.5283 0.8114 1.189 0.9864 2.49 0.175 1.302 0.1841 3.16 0.1841 5.675s-0.0091 4.373-0.1841 5.675-0.4581 1.961-0.9864 2.49c-0.7713 0.7713-1.97 1.058-4.65 1.139l0.08335 2.667c2.845-0.08573 4.944-0.4111 6.453-1.921 1.034-1.034 1.528-2.415 1.744-4.019 0.2157-1.604 0.2084-3.517 0.2084-6.034s0.0073-4.43-0.2084-6.034-0.7094-2.984-1.744-4.019c-1.034-1.034-2.415-1.528-4.019-1.744s-3.517-0.2084-6.034-0.2084z" fill="url(#b)" stroke-width="1.778"/>
 <path transform="translate(0) scale(1) translate(0) scale(1) translate(0) scale(1) translate(0) scale(1) translate(0) scale(1) translate(0) scale(1) translate(0) scale(1) translate(-2e-5) scale(1) translate(.008199 .003999) scale(.9998)" d="m21.33 27.11a1.334 1.334 0 0 0-1.334 1.334 1.334 1.334 0 0 0 1.334 1.334h5.335a1.334 1.334 0 0 0 1.334-1.334 1.334 1.334 0 0 0-1.334-1.334z" fill="url(#h)" stroke-width="1.778"/>
 <path transform="translate(0) scale(1) translate(0) scale(1) translate(0) scale(1) translate(0) scale(1) translate(0) scale(1) translate(0) scale(1) translate(0) scale(1) translate(-2e-5) scale(1) translate(.008199 .003999) scale(.9998)" d="m19.55 34.22a1.334 1.334 0 0 0-1.334 1.334 1.334 1.334 0 0 0 1.334 1.334h24.9a1.334 1.334 0 0 0 1.334-1.334 1.334 1.334 0 0 0-1.334-1.334z" fill="url(#g)" stroke-width="1.778"/>
 <path transform="translate(0) scale(1) translate(0) scale(1) translate(0) scale(1) translate(0) scale(1) translate(0) scale(1) translate(0) scale(1) translate(0) scale(1) translate(-2e-5) scale(1) translate(.008199 .003999) scale(.9998)" d="m32 12.88c-2.477 0-4.471-0.0016-6.034 0.2084-1.601 0.2152-2.948 0.6733-4.019 1.744-1.551 1.551-1.839 3.711-1.921 6.453l2.667 0.08337c0.08385-2.783 0.409-3.921 1.139-4.65 0.4922-0.4922 1.185-0.8109 2.49-0.9864 1.343-0.1807 3.123-0.1841 5.675-0.1841s4.332 0.0035 5.675 0.1841c1.305 0.1754 1.999 0.4942 2.49 0.9864 0.7302 0.7302 1.055 1.867 1.139 4.65l2.667-0.08337c-0.08251-2.742-0.3701-4.903-1.921-6.453-1.071-1.07-2.418-1.528-4.019-1.744-1.562-0.21-3.557-0.2084-6.034-0.2084zm-10.67 21.34c-0.7366 0-1.334 0.5972-1.334 1.334v3.557c0 2.477-0.0016 4.471 0.2084 6.034 0.2152 1.601 0.6733 2.948 1.744 4.019 1.07 1.07 2.418 1.528 4.019 1.744 1.562 0.21 3.557 0.2084 6.034 0.2084s4.471 0.0016 6.034-0.2084c1.601-0.2152 2.948-0.6733 4.019-1.744 1.07-1.071 1.528-2.418 1.744-4.019 0.21-1.562 0.2084-3.557 0.2084-6.034v-3.557c0-0.7366-0.5972-1.334-1.334-1.334s-1.334 0.5972-1.334 1.334v3.557c0 2.552-0.0036 4.332-0.1841 5.675-0.1755 1.305-0.4942 1.999-0.9864 2.49-0.4922 0.4908-1.185 0.8109-2.49 0.9864-1.343 0.1805-3.123 0.1841-5.675 0.1841s-4.332-0.0036-5.675-0.1841c-1.305-0.1755-1.999-0.4942-2.49-0.9864s-0.8109-1.185-0.9864-2.49c-0.1807-1.343-0.1841-3.123-0.1841-5.675v-3.557c0-0.7366-0.5972-1.334-1.334-1.334z" fill="url(#f)" stroke-width="1.778"/>
 <path transform="translate(0) scale(1) translate(0) scale(1) translate(0) scale(1) translate(0) scale(1) translate(0) scale(1) translate(0) scale(1) translate(0) scale(1) translate(-2e-5) scale(1) translate(.008199 .003999) scale(.9998)" d="m40.89 26.66a1.778 1.778 0 0 0-1.778 1.778 1.778 1.778 0 0 0 1.778 1.778 1.778 1.778 0 0 0 1.778-1.778 1.778 1.778 0 0 0-1.778-1.778z" fill="url(#e)" stroke-width="1.778"/>
 <path transform="translate(0) scale(1) translate(0) scale(1) translate(0) scale(1) translate(0) scale(1) translate(0) scale(1) translate(0) scale(1) translate(0) scale(1) translate(-2e-5) scale(1) translate(.008199 .003999) scale(.9998)" d="m26.66 38.67a1.334 1.334 0 0 0-1.334 1.334 1.334 1.334 0 0 0 1.334 1.334h10.67a1.334 1.334 0 0 0 1.334-1.334 1.334 1.334 0 0 0-1.334-1.334z" fill="url(#d)" stroke-width="1.778"/>
 <path transform="translate(0) scale(1) translate(0) scale(1) translate(0) scale(1) translate(0) scale(1) translate(0) scale(1) translate(0) scale(1) translate(0) scale(1) translate(-2e-5) scale(1) translate(.008199 .003999) scale(.9998)" d="m26.66 43.11a1.334 1.334 0 0 0-1.334 1.334 1.334 1.334 0 0 0 1.334 1.334h7.113a1.334 1.334 0 0 0 1.334-1.334 1.334 1.334 0 0 0-1.334-1.334z" fill="url(#c)" stroke-width="1.778"/>
</svg>
