<svg version="1.1" viewBox="0 0 64 64" xmlns="http://www.w3.org/2000/svg">
 <defs>
  <linearGradient id="a" y1="1">
   <stop stop-color="#39ff14" offset="0"/>
   <stop stop-color="#00ff81" offset="1"/>
  </linearGradient>
 </defs>
 <path transform="translate(0) scale(1) translate(0) scale(1) translate(0) scale(1) translate(0) scale(1) translate(0) scale(1) translate(0) scale(1) translate(0) scale(1) translate(0) scale(1) translate(0) scale(1) translate(0) scale(1) translate(.00025 .0016) scale(1) translate(-.00029 .000494) scale(1)" d="m53.18 0-42.37 0.003906a7.178 7.178 0 0 0-7.172 7.172v8.062c0 1.682 1.207 3.045 2.697 3.045s2.703-1.362 2.703-3.045v-4.838c0-2.376 1.926-4.971 4.301-4.971h37.31c2.374 0 4.303 2.594 4.303 4.971v26.16c0 1.68 1.211 3.049 2.701 3.049s2.701-1.367 2.701-3.049v-29.39a7.178 7.178 0 0 0-7.172-7.172zm-46.84 25.9-0.00586 0.0078c-1.49 0-2.699 1.364-2.699 3.047v27.86a7.178 7.178 0 0 0 7.172 7.174h23.89c1.491 0 2.701-1.366 2.701-3.049s-2.699-2.381-2.699-2.381h-21.35c-2.375 0-4.305-2.594-4.305-4.971v-24.64c0-1.682-1.213-3.047-2.703-3.047zm51.32 19.81c-1.491 0-2.703 1.362-2.703 3.045v4.838c0 2.376-1.928 4.971-4.303 4.971-1.35 6e-3 -3.069-7e-3 -4.053 0-0.9837 6e-3 -2.449 0.6954-2.449 2.379 0 1.68 1.21 3.047 2.701 3.047h6.332a7.178 7.178 0 0 0 7.172-7.172v-8.06c0-1.682-1.207-3.047-2.697-3.047z" fill="url(#a)"/>
 <path transform="translate(0) scale(1) translate(0) scale(1) translate(0) scale(1) translate(0) scale(1) translate(0) scale(1) translate(0) scale(1) translate(0) scale(1) translate(0) scale(1) translate(0) scale(1) translate(0) scale(1) translate(.00025 .0016) scale(1) translate(-.00029 .000494) scale(1)" d="m19.93 14.76c-2.835 0-5.17 2.336-5.17 5.17v24.12c0 2.835 2.336 5.17 5.17 5.17h24.12c2.835 0 5.17-2.336 5.17-5.17v-24.12c0-2.835-2.336-5.17-5.17-5.17zm0 3.443h24.12c0.9847 0 1.725 0.7419 1.725 1.727v5.168h-27.57v-5.168c0-0.9847 0.7399-1.727 1.725-1.727zm-1.725 10.34h6.893v6.891h-6.893zm10.34 0h6.894v6.891h-6.894zm10.34 0h6.893v6.891h-6.893zm-20.68 10.34h6.893v6.893h-5.17c-0.9847 0-1.725-0.7399-1.725-1.725zm10.34 0h6.894v6.893h-6.894zm10.34 0h6.893v5.168c0 0.9847-0.7399 1.725-1.725 1.725h-5.17z" fill="url(#a)"/>
</svg>
